<svg width="68" height="68" viewBox="0 0 68 68" fill="none" xmlns="http://www.w3.org/2000/svg">
<g opacity="0.5">
<circle cx="33.5" cy="34" r="28.5" fill="#C7C7C7" stroke="#2C2C2C"/>
<path d="M32.9928 40.3C32.6461 40.3 32.3795 40.1933 32.1928 39.98C32.0061 39.74 31.9128 39.42 31.9128 39.02C31.9128 38.0867 32.0195 37.22 32.2328 36.42C32.4728 35.5933 32.8328 34.7533 33.3128 33.9C33.8195 33.0467 34.4995 32.1267 35.3528 31.14C36.0195 30.34 36.5528 29.6333 36.9528 29.02C37.3528 28.4067 37.6328 27.82 37.7928 27.26C37.9795 26.6733 38.0728 26.0867 38.0728 25.5C38.0728 24.38 37.6728 23.5 36.8728 22.86C36.0728 22.1933 34.9661 21.86 33.5528 21.86C32.3261 21.86 31.1928 22.0467 30.1528 22.42C29.1395 22.7667 28.1528 23.3 27.1928 24.02C26.7928 24.2867 26.4195 24.42 26.0728 24.42C25.7528 24.42 25.4861 24.3267 25.2728 24.14C25.0595 23.9533 24.9128 23.7133 24.8328 23.42C24.7795 23.1267 24.8195 22.82 24.9528 22.5C25.1128 22.18 25.3795 21.8867 25.7528 21.62C26.7928 20.7933 28.0195 20.14 29.4328 19.66C30.8461 19.18 32.2728 18.94 33.7128 18.94C35.2328 18.94 36.5661 19.2067 37.7128 19.74C38.8861 20.2467 39.7928 20.98 40.4328 21.94C41.0728 22.8733 41.3928 23.98 41.3928 25.26C41.3928 26.0867 41.2728 26.8867 41.0328 27.66C40.7928 28.4067 40.4061 29.1667 39.8728 29.94C39.3661 30.7133 38.6461 31.5933 37.7128 32.58C36.8861 33.4333 36.2195 34.2333 35.7128 34.98C35.2061 35.7 34.8195 36.4067 34.5528 37.1C34.3128 37.7667 34.1528 38.4733 34.0728 39.22C34.0461 39.54 33.9395 39.8067 33.7528 40.02C33.5661 40.2067 33.3128 40.3 32.9928 40.3ZM32.9528 47.66C32.2861 47.66 31.7395 47.46 31.3128 47.06C30.9128 46.6333 30.7128 46.1 30.7128 45.46C30.7128 44.82 30.9128 44.3 31.3128 43.9C31.7395 43.4733 32.2861 43.26 32.9528 43.26C33.6195 43.26 34.1395 43.4733 34.5128 43.9C34.9128 44.3 35.1128 44.82 35.1128 45.46C35.1128 46.1 34.9128 46.6333 34.5128 47.06C34.1395 47.46 33.6195 47.66 32.9528 47.66Z" fill="#2C2C2C"/>
</g>
</svg>
