<svg width="24" height="24" viewBox="0 0 24 24" fill="none" xmlns="http://www.w3.org/2000/svg">
<path d="M22.2844 16.304C22.4252 16.4462 22.5042 16.6382 22.5042 16.8384C22.5042 17.0385 22.4252 17.2305 22.2844 17.3727L20.0344 19.6227C19.891 19.7613 19.6994 19.8388 19.5 19.8388C19.3006 19.8388 19.109 19.7613 18.9656 19.6227C18.8248 19.4805 18.7458 19.2885 18.7458 19.0884C18.7458 18.8882 18.8248 18.6962 18.9656 18.554L19.9406 17.5884H18.8344C17.7596 17.5865 16.7008 17.3287 15.7455 16.8364C14.7902 16.344 13.9658 15.6313 13.3406 14.7571L9.43125 9.29148C8.94613 8.61206 8.30623 8.05789 7.56449 7.67479C6.82274 7.29169 6.00046 7.09067 5.16562 7.08835H3C2.80109 7.08835 2.61032 7.00933 2.46967 6.86868C2.32902 6.72803 2.25 6.53726 2.25 6.33835C2.25 6.13944 2.32902 5.94867 2.46967 5.80802C2.61032 5.66737 2.80109 5.58835 3 5.58835H5.16562C6.24035 5.59024 7.29918 5.84802 8.2545 6.34035C9.20983 6.83268 10.0342 7.54542 10.6594 8.4196L14.5687 13.8852C15.0539 14.5646 15.6938 15.1188 16.4355 15.5019C17.1773 15.885 17.9995 16.086 18.8344 16.0884H19.9406L18.9656 15.1227C18.846 14.977 18.7849 14.792 18.7942 14.6037C18.8034 14.4154 18.8824 14.2373 19.0157 14.104C19.149 13.9707 19.3271 13.8918 19.5154 13.8825C19.7037 13.8733 19.8887 13.9344 20.0344 14.054L22.2844 16.304ZM13.4062 9.6196C13.4867 9.67725 13.5779 9.71838 13.6743 9.74064C13.7708 9.76289 13.8707 9.76582 13.9684 9.74926C14.066 9.7327 14.1593 9.69698 14.2431 9.64415C14.3268 9.59133 14.3993 9.52244 14.4562 9.44147L14.5687 9.29148C15.0539 8.61206 15.6938 8.05789 16.4355 7.67479C17.1773 7.29169 17.9995 7.09067 18.8344 7.08835H19.9406L18.9656 8.05398C18.8248 8.19617 18.7458 8.38821 18.7458 8.58835C18.7458 8.78849 18.8248 8.98053 18.9656 9.12273C19.109 9.26134 19.3006 9.33883 19.5 9.33883C19.6994 9.33883 19.891 9.26134 20.0344 9.12273L22.2844 6.87273C22.4252 6.73053 22.5042 6.53849 22.5042 6.33835C22.5042 6.13821 22.4252 5.94617 22.2844 5.80398L20.0344 3.55398C19.8887 3.43438 19.7037 3.37326 19.5154 3.38251C19.3271 3.39175 19.149 3.47071 19.0157 3.60401C18.8824 3.73731 18.8034 3.91543 18.7942 4.10372C18.7849 4.29201 18.846 4.477 18.9656 4.62273L19.9406 5.58835H18.8344C17.7596 5.59024 16.7008 5.84802 15.7455 6.34035C14.7902 6.83268 13.9658 7.54542 13.3406 8.4196L13.2375 8.5696C13.1794 8.64953 13.1376 8.74016 13.1147 8.83628C13.0917 8.93239 13.0879 9.03211 13.1036 9.12968C13.1193 9.22726 13.1541 9.32077 13.206 9.40485C13.258 9.48892 13.326 9.56191 13.4062 9.6196ZM10.5938 13.5571C10.5133 13.4995 10.4221 13.4583 10.3257 13.4361C10.2292 13.4138 10.1293 13.4109 10.0316 13.4274C9.93403 13.444 9.84066 13.4797 9.75692 13.5325C9.67318 13.5854 9.60073 13.6543 9.54375 13.7352L9.43125 13.8852C8.94613 14.5646 8.30623 15.1188 7.56449 15.5019C6.82274 15.885 6.00046 16.086 5.16562 16.0884H3C2.80109 16.0884 2.61032 16.1674 2.46967 16.308C2.32902 16.4487 2.25 16.6394 2.25 16.8384C2.25 17.0373 2.32902 17.228 2.46967 17.3687C2.61032 17.5093 2.80109 17.5884 3 17.5884H5.16562C6.24035 17.5865 7.29918 17.3287 8.2545 16.8364C9.20983 16.344 10.0342 15.6313 10.6594 14.7571L10.7625 14.6071C10.8206 14.5272 10.8624 14.4365 10.8853 14.3404C10.9083 14.2443 10.9121 14.1446 10.8964 14.047C10.8807 13.9494 10.8459 13.8559 10.794 13.7719C10.742 13.6878 10.674 13.6148 10.5938 13.5571Z" fill="white"/>
</svg>
