<svg width="306" height="52" viewBox="0 0 306 52" fill="none" xmlns="http://www.w3.org/2000/svg">
<path d="M8.26541 19.168C7.96141 19.168 7.72141 19.08 7.54541 18.904C7.36941 18.712 7.28141 18.456 7.28141 18.136V3.784H1.88141C1.59341 3.784 1.36941 3.704 1.20941 3.544C1.04941 3.384 0.969412 3.176 0.969412 2.92C0.969412 2.648 1.04941 2.44 1.20941 2.296C1.36941 2.152 1.59341 2.08 1.88141 2.08H14.6734C14.9614 2.08 15.1854 2.152 15.3454 2.296C15.5054 2.44 15.5854 2.648 15.5854 2.92C15.5854 3.192 15.5054 3.408 15.3454 3.568C15.1854 3.712 14.9614 3.784 14.6734 3.784H9.27341V18.136C9.27341 18.456 9.18541 18.712 9.00941 18.904C8.84941 19.08 8.60141 19.168 8.26541 19.168ZM18.8723 19.168C18.5523 19.168 18.3123 19.08 18.1523 18.904C17.9923 18.728 17.9123 18.48 17.9123 18.16V2.896C17.9123 2.576 17.9923 2.336 18.1523 2.176C18.3123 2 18.5523 1.912 18.8723 1.912C19.1763 1.912 19.4163 2 19.5923 2.176C19.7683 2.336 19.8563 2.576 19.8563 2.896V9.928H19.5443C19.8803 9 20.4243 8.304 21.1763 7.84C21.9443 7.36 22.8243 7.12 23.8163 7.12C24.7443 7.12 25.5123 7.288 26.1203 7.624C26.7443 7.96 27.2083 8.472 27.5123 9.16C27.8163 9.832 27.9683 10.688 27.9683 11.728V18.16C27.9683 18.48 27.8803 18.728 27.7043 18.904C27.5443 19.08 27.3123 19.168 27.0083 19.168C26.6883 19.168 26.4403 19.08 26.2643 18.904C26.1043 18.728 26.0243 18.48 26.0243 18.16V11.848C26.0243 10.76 25.8083 9.968 25.3763 9.472C24.9603 8.96 24.2883 8.704 23.3603 8.704C22.2883 8.704 21.4323 9.04 20.7923 9.712C20.1683 10.368 19.8563 11.248 19.8563 12.352V18.16C19.8563 18.832 19.5283 19.168 18.8723 19.168ZM36.8089 19.216C35.5769 19.216 34.5129 18.976 33.6169 18.496C32.7369 18 32.0489 17.304 31.5529 16.408C31.0729 15.512 30.8329 14.44 30.8329 13.192C30.8329 11.976 31.0729 10.92 31.5529 10.024C32.0329 9.112 32.6889 8.4 33.5209 7.888C34.3689 7.376 35.3449 7.12 36.4489 7.12C37.2329 7.12 37.9369 7.256 38.5609 7.528C39.1849 7.784 39.7129 8.16 40.1449 8.656C40.5929 9.152 40.9289 9.752 41.1529 10.456C41.3929 11.16 41.5129 11.952 41.5129 12.832C41.5129 13.088 41.4409 13.28 41.2969 13.408C41.1529 13.52 40.9449 13.576 40.6729 13.576H32.3209V12.304H40.2169L39.8329 12.616C39.8329 11.752 39.7049 11.024 39.4489 10.432C39.1929 9.824 38.8169 9.36 38.3209 9.04C37.8409 8.72 37.2329 8.56 36.4969 8.56C35.6809 8.56 34.9849 8.752 34.4089 9.136C33.8489 9.504 33.4249 10.024 33.1369 10.696C32.8489 11.352 32.7049 12.12 32.7049 13V13.144C32.7049 14.616 33.0569 15.736 33.7609 16.504C34.4809 17.272 35.4969 17.656 36.8089 17.656C37.3529 17.656 37.8889 17.584 38.4169 17.44C38.9609 17.296 39.4889 17.056 40.0009 16.72C40.2249 16.576 40.4249 16.512 40.6009 16.528C40.7929 16.528 40.9449 16.584 41.0569 16.696C41.1689 16.792 41.2409 16.92 41.2729 17.08C41.3209 17.224 41.3049 17.384 41.2249 17.56C41.1609 17.736 41.0249 17.888 40.8169 18.016C40.2889 18.4 39.6649 18.696 38.9449 18.904C38.2249 19.112 37.5129 19.216 36.8089 19.216ZM55.4578 19.216C54.2898 19.216 53.2818 18.96 52.4338 18.448C51.5859 17.936 50.9298 17.224 50.4658 16.312C50.0178 15.384 49.7938 14.312 49.7938 13.096C49.7938 12.168 49.9218 11.336 50.1778 10.6C50.4338 9.864 50.8098 9.24 51.3058 8.728C51.8018 8.2 52.3938 7.8 53.0819 7.528C53.7859 7.256 54.5779 7.12 55.4578 7.12C56.0339 7.12 56.6339 7.208 57.2579 7.384C57.8819 7.56 58.4499 7.864 58.9619 8.296C59.1219 8.408 59.2259 8.544 59.2739 8.704C59.3219 8.864 59.3219 9.024 59.2739 9.184C59.2259 9.328 59.1459 9.456 59.0339 9.568C58.9219 9.664 58.7779 9.72 58.6019 9.736C58.4419 9.752 58.2739 9.696 58.0979 9.568C57.6819 9.248 57.2579 9.024 56.8259 8.896C56.3939 8.768 55.9778 8.704 55.5778 8.704C54.9539 8.704 54.4099 8.808 53.9459 9.016C53.4819 9.208 53.0899 9.488 52.7698 9.856C52.4498 10.224 52.2019 10.68 52.0259 11.224C51.8659 11.768 51.7859 12.4 51.7859 13.12C51.7859 14.512 52.1138 15.616 52.7698 16.432C53.4259 17.232 54.3619 17.632 55.5778 17.632C55.9778 17.632 56.3859 17.568 56.8019 17.44C57.2339 17.312 57.6659 17.088 58.0979 16.768C58.2739 16.64 58.4419 16.584 58.6019 16.6C58.7619 16.616 58.8979 16.68 59.0099 16.792C59.1219 16.888 59.1939 17.016 59.2259 17.176C59.2739 17.336 59.2739 17.496 59.2259 17.656C59.1779 17.8 59.0739 17.928 58.9139 18.04C58.4019 18.456 57.8419 18.76 57.2339 18.952C56.6259 19.128 56.0339 19.216 55.4578 19.216ZM66.2369 19.216C65.1009 19.216 64.1169 18.968 63.2848 18.472C62.4528 17.976 61.8048 17.28 61.3408 16.384C60.8928 15.472 60.6688 14.4 60.6688 13.168C60.6688 12.24 60.7968 11.408 61.0528 10.672C61.3088 9.92 61.6848 9.28 62.1808 8.752C62.6768 8.224 63.2608 7.824 63.9329 7.552C64.6209 7.264 65.3889 7.12 66.2369 7.12C67.3729 7.12 68.3569 7.368 69.1889 7.864C70.0209 8.36 70.6609 9.064 71.1089 9.976C71.5729 10.872 71.8049 11.936 71.8049 13.168C71.8049 14.096 71.6769 14.928 71.4209 15.664C71.1649 16.4 70.7889 17.04 70.2929 17.584C69.7969 18.112 69.2049 18.52 68.5169 18.808C67.8449 19.08 67.0849 19.216 66.2369 19.216ZM66.2369 17.656C66.9569 17.656 67.5889 17.48 68.1329 17.128C68.6769 16.776 69.0929 16.264 69.3809 15.592C69.6849 14.92 69.8369 14.112 69.8369 13.168C69.8369 11.712 69.5089 10.6 68.8529 9.832C68.2129 9.064 67.3409 8.68 66.2369 8.68C65.5009 8.68 64.8609 8.856 64.3169 9.208C63.7889 9.544 63.3729 10.048 63.0689 10.72C62.7809 11.376 62.6368 12.192 62.6368 13.168C62.6368 14.608 62.9649 15.72 63.6209 16.504C64.2769 17.272 65.1489 17.656 66.2369 17.656ZM75.6848 19.168C75.3648 19.168 75.1248 19.08 74.9648 18.904C74.8048 18.728 74.7248 18.48 74.7248 18.16V8.152C74.7248 7.832 74.8048 7.592 74.9648 7.432C75.1248 7.256 75.3568 7.168 75.6608 7.168C75.9648 7.168 76.1968 7.256 76.3568 7.432C76.5328 7.592 76.6208 7.832 76.6208 8.152V10.216L76.3568 9.928C76.6928 9 77.2368 8.304 77.9888 7.84C78.7568 7.36 79.6368 7.12 80.6288 7.12C81.5568 7.12 82.3248 7.288 82.9328 7.624C83.5568 7.96 84.0208 8.472 84.3248 9.16C84.6288 9.832 84.7808 10.688 84.7808 11.728V18.16C84.7808 18.48 84.6928 18.728 84.5168 18.904C84.3568 19.08 84.1248 19.168 83.8208 19.168C83.5008 19.168 83.2528 19.08 83.0768 18.904C82.9168 18.728 82.8368 18.48 82.8368 18.16V11.848C82.8368 10.76 82.6208 9.968 82.1888 9.472C81.7728 8.96 81.1008 8.704 80.1728 8.704C79.1008 8.704 78.2448 9.04 77.6048 9.712C76.9808 10.368 76.6688 11.248 76.6688 12.352V18.16C76.6688 18.832 76.3408 19.168 75.6848 19.168ZM92.3014 19.216C91.5814 19.216 90.8534 19.128 90.1174 18.952C89.3974 18.776 88.7254 18.472 88.1014 18.04C87.9414 17.928 87.8294 17.8 87.7654 17.656C87.7014 17.496 87.6774 17.344 87.6934 17.2C87.7254 17.04 87.7894 16.904 87.8854 16.792C87.9974 16.68 88.1254 16.616 88.2694 16.6C88.4294 16.568 88.6054 16.6 88.7974 16.696C89.4214 17.08 90.0214 17.352 90.5974 17.512C91.1894 17.656 91.7734 17.728 92.3494 17.728C93.2614 17.728 93.9494 17.56 94.4134 17.224C94.8774 16.888 95.1094 16.432 95.1094 15.856C95.1094 15.408 94.9574 15.056 94.6534 14.8C94.3494 14.528 93.8694 14.32 93.2134 14.176L91.0294 13.696C90.0214 13.488 89.2694 13.128 88.7734 12.616C88.2934 12.104 88.0534 11.44 88.0534 10.624C88.0534 9.904 88.2374 9.288 88.6054 8.776C88.9894 8.248 89.5254 7.84 90.2134 7.552C90.9014 7.264 91.7014 7.12 92.6134 7.12C93.3174 7.12 93.9814 7.216 94.6054 7.408C95.2454 7.584 95.8214 7.872 96.3334 8.272C96.4934 8.384 96.5974 8.52 96.6454 8.68C96.7094 8.824 96.7174 8.976 96.6694 9.136C96.6374 9.28 96.5654 9.408 96.4534 9.52C96.3414 9.616 96.2054 9.672 96.0454 9.688C95.8854 9.704 95.7174 9.656 95.5414 9.544C95.0614 9.224 94.5734 8.992 94.0774 8.848C93.5814 8.688 93.0934 8.608 92.6134 8.608C91.7174 8.608 91.0374 8.784 90.5734 9.136C90.1094 9.488 89.8774 9.952 89.8774 10.528C89.8774 10.976 90.0214 11.344 90.3094 11.632C90.5974 11.92 91.0454 12.128 91.6534 12.256L93.8374 12.712C94.8774 12.936 95.6534 13.296 96.1654 13.792C96.6934 14.272 96.9574 14.928 96.9574 15.76C96.9574 16.816 96.5334 17.656 95.6854 18.28C94.8374 18.904 93.7094 19.216 92.3014 19.216ZM104.483 19.216C103.571 19.216 102.803 19.056 102.179 18.736C101.571 18.4 101.115 17.92 100.811 17.296C100.507 16.656 100.355 15.88 100.355 14.968V8.848H98.7469C98.4749 8.848 98.2669 8.784 98.1229 8.656C97.9789 8.512 97.9069 8.32 97.9069 8.08C97.9069 7.84 97.9789 7.656 98.1229 7.528C98.2669 7.4 98.4749 7.336 98.7469 7.336H100.355V4.576C100.355 4.256 100.443 4.016 100.619 3.856C100.795 3.68 101.035 3.592 101.339 3.592C101.643 3.592 101.875 3.68 102.035 3.856C102.211 4.016 102.299 4.256 102.299 4.576V7.336H105.323C105.595 7.336 105.803 7.4 105.947 7.528C106.091 7.656 106.163 7.84 106.163 8.08C106.163 8.32 106.091 8.512 105.947 8.656C105.803 8.784 105.595 8.848 105.323 8.848H102.299V14.776C102.299 15.688 102.491 16.384 102.875 16.864C103.259 17.328 103.883 17.56 104.747 17.56C105.051 17.56 105.307 17.528 105.515 17.464C105.739 17.4 105.923 17.368 106.067 17.368C106.211 17.352 106.331 17.4 106.427 17.512C106.523 17.624 106.571 17.816 106.571 18.088C106.571 18.28 106.531 18.456 106.451 18.616C106.387 18.776 106.267 18.888 106.091 18.952C105.899 19.016 105.643 19.072 105.323 19.12C105.019 19.184 104.739 19.216 104.483 19.216ZM111.866 19.216C111.066 19.216 110.346 19.064 109.706 18.76C109.082 18.44 108.586 18.008 108.218 17.464C107.85 16.92 107.666 16.312 107.666 15.64C107.666 14.776 107.882 14.096 108.314 13.6C108.762 13.104 109.49 12.752 110.498 12.544C111.522 12.336 112.914 12.232 114.674 12.232H115.754V13.504H114.698C113.402 13.504 112.378 13.568 111.626 13.696C110.89 13.808 110.37 14.008 110.066 14.296C109.778 14.584 109.634 14.992 109.634 15.52C109.634 16.176 109.858 16.712 110.306 17.128C110.77 17.544 111.394 17.752 112.178 17.752C112.818 17.752 113.378 17.6 113.858 17.296C114.354 16.992 114.738 16.576 115.01 16.048C115.298 15.52 115.442 14.912 115.442 14.224V11.488C115.442 10.496 115.242 9.784 114.842 9.352C114.442 8.904 113.786 8.68 112.874 8.68C112.314 8.68 111.754 8.752 111.194 8.896C110.634 9.04 110.042 9.272 109.418 9.592C109.194 9.704 109.002 9.744 108.842 9.712C108.682 9.664 108.554 9.576 108.458 9.448C108.362 9.32 108.306 9.176 108.29 9.016C108.274 8.84 108.306 8.672 108.386 8.512C108.482 8.352 108.626 8.224 108.818 8.128C109.522 7.776 110.218 7.52 110.906 7.36C111.594 7.2 112.25 7.12 112.874 7.12C113.882 7.12 114.714 7.288 115.37 7.624C116.026 7.944 116.514 8.44 116.834 9.112C117.154 9.768 117.314 10.616 117.314 11.656V18.16C117.314 18.48 117.234 18.728 117.074 18.904C116.93 19.08 116.714 19.168 116.426 19.168C116.122 19.168 115.89 19.08 115.73 18.904C115.57 18.728 115.49 18.48 115.49 18.16V16.288H115.706C115.578 16.896 115.33 17.416 114.962 17.848C114.61 18.28 114.17 18.616 113.642 18.856C113.114 19.096 112.522 19.216 111.866 19.216ZM121.88 19.168C121.56 19.168 121.32 19.08 121.16 18.904C121 18.728 120.92 18.48 120.92 18.16V8.152C120.92 7.832 121 7.592 121.16 7.432C121.32 7.256 121.552 7.168 121.856 7.168C122.16 7.168 122.392 7.256 122.552 7.432C122.728 7.592 122.816 7.832 122.816 8.152V10.216L122.552 9.928C122.888 9 123.432 8.304 124.184 7.84C124.952 7.36 125.832 7.12 126.824 7.12C127.752 7.12 128.52 7.288 129.128 7.624C129.752 7.96 130.216 8.472 130.52 9.16C130.824 9.832 130.976 10.688 130.976 11.728V18.16C130.976 18.48 130.888 18.728 130.712 18.904C130.552 19.08 130.32 19.168 130.016 19.168C129.696 19.168 129.448 19.08 129.272 18.904C129.112 18.728 129.032 18.48 129.032 18.16V11.848C129.032 10.76 128.816 9.968 128.384 9.472C127.968 8.96 127.296 8.704 126.368 8.704C125.296 8.704 124.44 9.04 123.8 9.712C123.176 10.368 122.864 11.248 122.864 12.352V18.16C122.864 18.832 122.536 19.168 121.88 19.168ZM139.241 19.216C138.329 19.216 137.561 19.056 136.937 18.736C136.329 18.4 135.873 17.92 135.569 17.296C135.265 16.656 135.113 15.88 135.113 14.968V8.848H133.505C133.233 8.848 133.025 8.784 132.881 8.656C132.737 8.512 132.665 8.32 132.665 8.08C132.665 7.84 132.737 7.656 132.881 7.528C133.025 7.4 133.233 7.336 133.505 7.336H135.113V4.576C135.113 4.256 135.201 4.016 135.377 3.856C135.553 3.68 135.793 3.592 136.097 3.592C136.401 3.592 136.633 3.68 136.793 3.856C136.969 4.016 137.057 4.256 137.057 4.576V7.336H140.081C140.353 7.336 140.561 7.4 140.705 7.528C140.849 7.656 140.921 7.84 140.921 8.08C140.921 8.32 140.849 8.512 140.705 8.656C140.561 8.784 140.353 8.848 140.081 8.848H137.057V14.776C137.057 15.688 137.249 16.384 137.633 16.864C138.017 17.328 138.641 17.56 139.505 17.56C139.809 17.56 140.065 17.528 140.273 17.464C140.497 17.4 140.681 17.368 140.825 17.368C140.969 17.352 141.089 17.4 141.185 17.512C141.281 17.624 141.329 17.816 141.329 18.088C141.329 18.28 141.289 18.456 141.209 18.616C141.145 18.776 141.025 18.888 140.849 18.952C140.657 19.016 140.401 19.072 140.081 19.12C139.777 19.184 139.497 19.216 139.241 19.216ZM150.099 19.12C149.779 19.12 149.539 19.032 149.379 18.856C149.219 18.664 149.139 18.4 149.139 18.064V8.248C149.139 7.912 149.219 7.656 149.379 7.48C149.539 7.304 149.779 7.216 150.099 7.216C150.403 7.216 150.643 7.304 150.819 7.48C150.995 7.656 151.083 7.912 151.083 8.248V18.064C151.083 18.4 150.995 18.664 150.819 18.856C150.659 19.032 150.419 19.12 150.099 19.12ZM150.099 4.528C149.699 4.528 149.387 4.424 149.163 4.216C148.939 3.992 148.827 3.696 148.827 3.328C148.827 2.944 148.939 2.656 149.163 2.464C149.387 2.256 149.699 2.152 150.099 2.152C150.515 2.152 150.827 2.256 151.035 2.464C151.259 2.656 151.371 2.944 151.371 3.328C151.371 3.696 151.259 3.992 151.035 4.216C150.827 4.424 150.515 4.528 150.099 4.528ZM158.653 19.216C157.933 19.216 157.205 19.128 156.469 18.952C155.749 18.776 155.077 18.472 154.453 18.04C154.293 17.928 154.181 17.8 154.117 17.656C154.053 17.496 154.029 17.344 154.045 17.2C154.077 17.04 154.141 16.904 154.237 16.792C154.349 16.68 154.477 16.616 154.621 16.6C154.781 16.568 154.957 16.6 155.149 16.696C155.773 17.08 156.373 17.352 156.949 17.512C157.541 17.656 158.125 17.728 158.701 17.728C159.613 17.728 160.301 17.56 160.765 17.224C161.229 16.888 161.461 16.432 161.461 15.856C161.461 15.408 161.309 15.056 161.005 14.8C160.701 14.528 160.221 14.32 159.565 14.176L157.381 13.696C156.373 13.488 155.621 13.128 155.125 12.616C154.645 12.104 154.405 11.44 154.405 10.624C154.405 9.904 154.589 9.288 154.957 8.776C155.341 8.248 155.877 7.84 156.565 7.552C157.253 7.264 158.053 7.12 158.965 7.12C159.669 7.12 160.333 7.216 160.957 7.408C161.597 7.584 162.173 7.872 162.685 8.272C162.845 8.384 162.949 8.52 162.997 8.68C163.061 8.824 163.069 8.976 163.021 9.136C162.989 9.28 162.917 9.408 162.805 9.52C162.693 9.616 162.557 9.672 162.397 9.688C162.237 9.704 162.069 9.656 161.893 9.544C161.413 9.224 160.925 8.992 160.429 8.848C159.933 8.688 159.445 8.608 158.965 8.608C158.069 8.608 157.389 8.784 156.925 9.136C156.461 9.488 156.229 9.952 156.229 10.528C156.229 10.976 156.373 11.344 156.661 11.632C156.949 11.92 157.397 12.128 158.005 12.256L160.189 12.712C161.229 12.936 162.005 13.296 162.517 13.792C163.045 14.272 163.309 14.928 163.309 15.76C163.309 16.816 162.885 17.656 162.037 18.28C161.189 18.904 160.061 19.216 158.653 19.216ZM177.715 19.216C176.483 19.216 175.419 18.976 174.523 18.496C173.643 18 172.955 17.304 172.459 16.408C171.979 15.512 171.739 14.44 171.739 13.192C171.739 11.976 171.979 10.92 172.459 10.024C172.939 9.112 173.595 8.4 174.427 7.888C175.275 7.376 176.251 7.12 177.355 7.12C178.139 7.12 178.843 7.256 179.467 7.528C180.091 7.784 180.619 8.16 181.051 8.656C181.499 9.152 181.835 9.752 182.059 10.456C182.299 11.16 182.419 11.952 182.419 12.832C182.419 13.088 182.347 13.28 182.203 13.408C182.059 13.52 181.851 13.576 181.579 13.576H173.227V12.304H181.123L180.739 12.616C180.739 11.752 180.611 11.024 180.355 10.432C180.099 9.824 179.723 9.36 179.227 9.04C178.747 8.72 178.139 8.56 177.403 8.56C176.587 8.56 175.891 8.752 175.315 9.136C174.755 9.504 174.331 10.024 174.043 10.696C173.755 11.352 173.611 12.12 173.611 13V13.144C173.611 14.616 173.963 15.736 174.667 16.504C175.387 17.272 176.403 17.656 177.715 17.656C178.259 17.656 178.795 17.584 179.323 17.44C179.867 17.296 180.395 17.056 180.907 16.72C181.131 16.576 181.331 16.512 181.507 16.528C181.699 16.528 181.851 16.584 181.963 16.696C182.075 16.792 182.147 16.92 182.179 17.08C182.227 17.224 182.211 17.384 182.131 17.56C182.067 17.736 181.931 17.888 181.723 18.016C181.195 18.4 180.571 18.696 179.851 18.904C179.131 19.112 178.419 19.216 177.715 19.216ZM194.617 23.488C194.297 23.488 194.049 23.4 193.873 23.224C193.713 23.064 193.633 22.824 193.633 22.504V16.264H193.897C193.641 17.16 193.137 17.88 192.385 18.424C191.633 18.952 190.729 19.216 189.673 19.216C188.633 19.216 187.721 18.968 186.937 18.472C186.169 17.976 185.569 17.28 185.137 16.384C184.721 15.472 184.513 14.4 184.513 13.168C184.513 11.92 184.721 10.848 185.137 9.952C185.569 9.04 186.169 8.344 186.937 7.864C187.721 7.368 188.633 7.12 189.673 7.12C190.729 7.12 191.633 7.392 192.385 7.936C193.153 8.464 193.665 9.184 193.921 10.096L193.657 10.432V8.152C193.657 7.832 193.737 7.592 193.897 7.432C194.073 7.256 194.313 7.168 194.617 7.168C194.937 7.168 195.177 7.256 195.337 7.432C195.497 7.592 195.577 7.832 195.577 8.152V22.504C195.577 22.824 195.489 23.064 195.313 23.224C195.153 23.4 194.921 23.488 194.617 23.488ZM190.081 17.656C190.801 17.656 191.433 17.48 191.977 17.128C192.521 16.776 192.937 16.264 193.225 15.592C193.529 14.92 193.681 14.112 193.681 13.168C193.681 11.712 193.353 10.6 192.697 9.832C192.057 9.064 191.185 8.68 190.081 8.68C189.345 8.68 188.705 8.856 188.161 9.208C187.633 9.544 187.217 10.048 186.913 10.72C186.625 11.376 186.481 12.192 186.481 13.168C186.481 14.608 186.809 15.72 187.465 16.504C188.121 17.272 188.993 17.656 190.081 17.656ZM203.353 19.216C202.409 19.216 201.625 19.048 201.001 18.712C200.393 18.36 199.929 17.84 199.609 17.152C199.305 16.464 199.153 15.608 199.153 14.584V8.152C199.153 7.816 199.233 7.568 199.393 7.408C199.569 7.248 199.809 7.168 200.113 7.168C200.433 7.168 200.673 7.248 200.833 7.408C201.009 7.568 201.097 7.816 201.097 8.152V14.56C201.097 15.584 201.305 16.352 201.721 16.864C202.153 17.36 202.825 17.608 203.737 17.608C204.729 17.608 205.537 17.272 206.161 16.6C206.785 15.928 207.097 15.048 207.097 13.96V8.152C207.097 7.816 207.177 7.568 207.337 7.408C207.513 7.248 207.761 7.168 208.081 7.168C208.385 7.168 208.617 7.248 208.777 7.408C208.953 7.568 209.041 7.816 209.041 8.152V18.16C209.041 18.832 208.729 19.168 208.105 19.168C207.801 19.168 207.561 19.08 207.385 18.904C207.225 18.728 207.145 18.48 207.145 18.16V15.976L207.457 16.312C207.137 17.256 206.609 17.976 205.873 18.472C205.153 18.968 204.313 19.216 203.353 19.216ZM216.35 19.216C215.55 19.216 214.83 19.064 214.19 18.76C213.566 18.44 213.07 18.008 212.702 17.464C212.334 16.92 212.15 16.312 212.15 15.64C212.15 14.776 212.366 14.096 212.798 13.6C213.246 13.104 213.974 12.752 214.982 12.544C216.006 12.336 217.398 12.232 219.158 12.232H220.238V13.504H219.182C217.886 13.504 216.862 13.568 216.11 13.696C215.374 13.808 214.854 14.008 214.55 14.296C214.262 14.584 214.118 14.992 214.118 15.52C214.118 16.176 214.342 16.712 214.79 17.128C215.254 17.544 215.878 17.752 216.662 17.752C217.302 17.752 217.862 17.6 218.342 17.296C218.838 16.992 219.222 16.576 219.494 16.048C219.782 15.52 219.926 14.912 219.926 14.224V11.488C219.926 10.496 219.726 9.784 219.326 9.352C218.926 8.904 218.27 8.68 217.358 8.68C216.798 8.68 216.238 8.752 215.678 8.896C215.118 9.04 214.526 9.272 213.902 9.592C213.678 9.704 213.486 9.744 213.326 9.712C213.166 9.664 213.038 9.576 212.942 9.448C212.846 9.32 212.79 9.176 212.774 9.016C212.758 8.84 212.79 8.672 212.87 8.512C212.966 8.352 213.11 8.224 213.302 8.128C214.006 7.776 214.702 7.52 215.39 7.36C216.078 7.2 216.734 7.12 217.358 7.12C218.366 7.12 219.198 7.288 219.854 7.624C220.51 7.944 220.998 8.44 221.318 9.112C221.638 9.768 221.798 10.616 221.798 11.656V18.16C221.798 18.48 221.718 18.728 221.558 18.904C221.414 19.08 221.198 19.168 220.91 19.168C220.606 19.168 220.374 19.08 220.214 18.904C220.054 18.728 219.974 18.48 219.974 18.16V16.288H220.19C220.062 16.896 219.814 17.416 219.446 17.848C219.094 18.28 218.654 18.616 218.126 18.856C217.598 19.096 217.006 19.216 216.35 19.216ZM228.956 19.216C227.804 19.216 226.924 18.864 226.316 18.16C225.708 17.456 225.404 16.448 225.404 15.136V2.896C225.404 2.576 225.484 2.336 225.644 2.176C225.804 2 226.044 1.912 226.364 1.912C226.668 1.912 226.908 2 227.084 2.176C227.26 2.336 227.348 2.576 227.348 2.896V14.992C227.348 15.856 227.516 16.504 227.852 16.936C228.204 17.352 228.716 17.56 229.388 17.56C229.532 17.56 229.66 17.552 229.772 17.536C229.884 17.52 229.996 17.512 230.108 17.512C230.284 17.496 230.404 17.536 230.468 17.632C230.548 17.728 230.588 17.92 230.588 18.208C230.588 18.496 230.524 18.712 230.396 18.856C230.268 19 230.06 19.096 229.772 19.144C229.644 19.16 229.508 19.176 229.364 19.192C229.22 19.208 229.084 19.216 228.956 19.216ZM243.374 19.216C242.462 19.216 241.694 19.056 241.07 18.736C240.462 18.4 240.006 17.92 239.702 17.296C239.398 16.656 239.246 15.88 239.246 14.968V8.848H237.638C237.366 8.848 237.158 8.784 237.014 8.656C236.87 8.512 236.798 8.32 236.798 8.08C236.798 7.84 236.87 7.656 237.014 7.528C237.158 7.4 237.366 7.336 237.638 7.336H239.246V4.576C239.246 4.256 239.334 4.016 239.51 3.856C239.686 3.68 239.926 3.592 240.23 3.592C240.534 3.592 240.766 3.68 240.926 3.856C241.102 4.016 241.19 4.256 241.19 4.576V7.336H244.214C244.486 7.336 244.694 7.4 244.838 7.528C244.982 7.656 245.054 7.84 245.054 8.08C245.054 8.32 244.982 8.512 244.838 8.656C244.694 8.784 244.486 8.848 244.214 8.848H241.19V14.776C241.19 15.688 241.382 16.384 241.766 16.864C242.15 17.328 242.774 17.56 243.638 17.56C243.942 17.56 244.198 17.528 244.406 17.464C244.63 17.4 244.814 17.368 244.958 17.368C245.102 17.352 245.222 17.4 245.318 17.512C245.414 17.624 245.462 17.816 245.462 18.088C245.462 18.28 245.422 18.456 245.342 18.616C245.278 18.776 245.158 18.888 244.982 18.952C244.79 19.016 244.534 19.072 244.214 19.12C243.91 19.184 243.63 19.216 243.374 19.216ZM251.815 19.216C250.679 19.216 249.695 18.968 248.863 18.472C248.031 17.976 247.383 17.28 246.919 16.384C246.471 15.472 246.247 14.4 246.247 13.168C246.247 12.24 246.375 11.408 246.631 10.672C246.887 9.92 247.263 9.28 247.759 8.752C248.255 8.224 248.839 7.824 249.511 7.552C250.199 7.264 250.967 7.12 251.815 7.12C252.951 7.12 253.935 7.368 254.767 7.864C255.599 8.36 256.239 9.064 256.687 9.976C257.151 10.872 257.383 11.936 257.383 13.168C257.383 14.096 257.255 14.928 256.999 15.664C256.743 16.4 256.367 17.04 255.871 17.584C255.375 18.112 254.783 18.52 254.095 18.808C253.423 19.08 252.663 19.216 251.815 19.216ZM251.815 17.656C252.535 17.656 253.167 17.48 253.711 17.128C254.255 16.776 254.671 16.264 254.959 15.592C255.263 14.92 255.415 14.112 255.415 13.168C255.415 11.712 255.087 10.6 254.431 9.832C253.791 9.064 252.919 8.68 251.815 8.68C251.079 8.68 250.439 8.856 249.895 9.208C249.367 9.544 248.951 10.048 248.647 10.72C248.359 11.376 248.215 12.192 248.215 13.168C248.215 14.608 248.543 15.72 249.199 16.504C249.855 17.272 250.727 17.656 251.815 17.656ZM278.15 19.24C276.758 19.24 275.598 18.872 274.67 18.136C273.758 17.384 273.07 16.312 272.606 14.92C272.158 13.528 271.934 11.864 271.934 9.928C271.934 7.976 272.142 6.312 272.558 4.936C272.974 3.544 273.638 2.48 274.55 1.744C275.462 1.008 276.662 0.639999 278.15 0.639999C279.542 0.639999 280.694 1.008 281.606 1.744C282.534 2.464 283.23 3.52 283.694 4.912C284.158 6.288 284.39 7.96 284.39 9.928C284.39 11.864 284.182 13.528 283.766 14.92C283.35 16.312 282.686 17.384 281.774 18.136C280.862 18.872 279.654 19.24 278.15 19.24ZM278.15 16.6C278.742 16.6 279.23 16.424 279.614 16.072C279.998 15.72 280.286 15.152 280.478 14.368C280.67 13.584 280.774 12.544 280.79 11.248H275.51C275.526 12.512 275.622 13.544 275.798 14.344C275.99 15.128 276.278 15.704 276.662 16.072C277.046 16.424 277.542 16.6 278.15 16.6ZM275.534 8.56H280.79C280.758 7.296 280.638 6.28 280.43 5.512C280.238 4.728 279.958 4.16 279.59 3.808C279.222 3.456 278.75 3.28 278.174 3.28C277.582 3.28 277.094 3.456 276.71 3.808C276.342 4.16 276.062 4.728 275.87 5.512C275.694 6.28 275.582 7.296 275.534 8.56ZM289.713 11.1584C288.954 11.1584 288.292 11.0096 287.725 10.712C287.169 10.4144 286.737 9.9872 286.429 9.4304C286.122 8.8736 285.969 8.216 285.969 7.4576C285.969 6.8912 286.055 6.3824 286.228 5.9312C286.401 5.48 286.65 5.096 286.977 4.7792C287.313 4.4528 287.711 4.208 288.172 4.0448C288.633 3.872 289.146 3.7856 289.713 3.7856C290.471 3.7856 291.129 3.9344 291.685 4.232C292.252 4.5296 292.689 4.952 292.996 5.4992C293.313 6.0464 293.471 6.6992 293.471 7.4576C293.471 8.0336 293.38 8.5472 293.197 8.9984C293.025 9.4496 292.775 9.8384 292.449 10.1648C292.122 10.4912 291.724 10.7408 291.253 10.9136C290.793 11.0768 290.279 11.1584 289.713 11.1584ZM289.713 9.5312C290.029 9.5312 290.303 9.4544 290.533 9.3008C290.764 9.1472 290.946 8.9216 291.081 8.624C291.215 8.3168 291.282 7.928 291.282 7.4576C291.282 6.7568 291.138 6.2432 290.85 5.9168C290.562 5.5808 290.183 5.4128 289.713 5.4128C289.405 5.4128 289.132 5.4848 288.892 5.6288C288.661 5.7728 288.479 5.9984 288.345 6.3056C288.22 6.6032 288.157 6.9872 288.157 7.4576C288.157 8.1584 288.301 8.6816 288.589 9.0272C288.877 9.3632 289.252 9.5312 289.713 9.5312Z" fill="#444444"/>
<path d="M264.696 51.24C263.832 51.24 262.936 51.128 262.008 50.904C261.08 50.68 260.272 50.344 259.584 49.896C259.264 49.688 259.048 49.448 258.936 49.176C258.824 48.904 258.792 48.648 258.84 48.408C258.904 48.152 259.024 47.936 259.2 47.76C259.392 47.584 259.624 47.48 259.896 47.448C260.184 47.416 260.496 47.488 260.832 47.664C261.488 48.016 262.12 48.272 262.728 48.432C263.336 48.576 263.96 48.648 264.6 48.648C265.304 48.648 265.896 48.552 266.376 48.36C266.856 48.168 267.216 47.88 267.456 47.496C267.712 47.112 267.84 46.648 267.84 46.104C267.84 45.304 267.568 44.712 267.024 44.328C266.496 43.928 265.72 43.728 264.696 43.728H263.16C262.712 43.728 262.368 43.616 262.128 43.392C261.904 43.168 261.792 42.856 261.792 42.456C261.792 42.056 261.904 41.744 262.128 41.52C262.368 41.296 262.712 41.184 263.16 41.184H264.408C265.016 41.184 265.536 41.088 265.968 40.896C266.4 40.688 266.736 40.4 266.976 40.032C267.216 39.664 267.336 39.216 267.336 38.688C267.336 37.952 267.088 37.392 266.592 37.008C266.112 36.624 265.408 36.432 264.48 36.432C263.888 36.432 263.328 36.504 262.8 36.648C262.288 36.776 261.72 37.024 261.096 37.392C260.808 37.568 260.528 37.64 260.256 37.608C260 37.576 259.784 37.472 259.608 37.296C259.432 37.12 259.312 36.912 259.248 36.672C259.184 36.416 259.2 36.16 259.296 35.904C259.392 35.632 259.592 35.4 259.896 35.208C260.584 34.76 261.344 34.424 262.176 34.2C263.008 33.96 263.864 33.84 264.744 33.84C265.912 33.84 266.912 34.024 267.744 34.392C268.576 34.744 269.208 35.256 269.64 35.928C270.088 36.584 270.312 37.384 270.312 38.328C270.312 39 270.184 39.616 269.928 40.176C269.672 40.72 269.312 41.184 268.848 41.568C268.384 41.952 267.824 42.224 267.168 42.384V42.096C268.32 42.288 269.216 42.768 269.856 43.536C270.496 44.288 270.816 45.232 270.816 46.368C270.816 47.36 270.568 48.224 270.072 48.96C269.576 49.696 268.872 50.264 267.96 50.664C267.048 51.048 265.96 51.24 264.696 51.24ZM280.046 51.24C278.654 51.24 277.462 50.912 276.47 50.256C275.494 49.584 274.75 48.624 274.238 47.376C273.726 46.128 273.47 44.616 273.47 42.84C273.47 41.4 273.63 40.128 273.95 39.024C274.286 37.904 274.766 36.96 275.39 36.192C276.014 35.424 276.774 34.84 277.67 34.44C278.582 34.04 279.606 33.84 280.742 33.84C281.446 33.84 282.158 33.952 282.878 34.176C283.614 34.384 284.302 34.704 284.942 35.136C285.198 35.296 285.366 35.504 285.446 35.76C285.526 36.016 285.534 36.272 285.47 36.528C285.422 36.768 285.31 36.984 285.134 37.176C284.974 37.352 284.766 37.464 284.51 37.512C284.254 37.544 283.974 37.472 283.67 37.296C283.126 36.976 282.614 36.752 282.134 36.624C281.654 36.496 281.174 36.432 280.694 36.432C279.766 36.432 278.982 36.648 278.342 37.08C277.702 37.512 277.214 38.16 276.878 39.024C276.558 39.888 276.398 40.968 276.398 42.264V44.064H276.11C276.238 43.248 276.502 42.552 276.902 41.976C277.318 41.384 277.846 40.936 278.486 40.632C279.126 40.312 279.838 40.152 280.622 40.152C281.598 40.152 282.462 40.384 283.214 40.848C283.966 41.312 284.558 41.952 284.99 42.768C285.422 43.584 285.638 44.52 285.638 45.576C285.638 46.664 285.398 47.64 284.918 48.504C284.454 49.352 283.798 50.024 282.95 50.52C282.118 51 281.15 51.24 280.046 51.24ZM279.878 48.792C280.454 48.792 280.958 48.664 281.39 48.408C281.838 48.152 282.182 47.792 282.422 47.328C282.662 46.848 282.782 46.304 282.782 45.696C282.782 45.072 282.662 44.528 282.422 44.064C282.182 43.6 281.838 43.24 281.39 42.984C280.958 42.712 280.454 42.576 279.878 42.576C279.302 42.576 278.798 42.712 278.366 42.984C277.934 43.24 277.59 43.6 277.334 44.064C277.094 44.528 276.974 45.072 276.974 45.696C276.974 46.304 277.094 46.848 277.334 47.328C277.59 47.792 277.934 48.152 278.366 48.408C278.798 48.664 279.302 48.792 279.878 48.792ZM293.813 51.24C291.813 51.24 290.285 50.488 289.229 48.984C288.173 47.464 287.645 45.304 287.645 42.504C287.645 40.616 287.877 39.032 288.341 37.752C288.821 36.456 289.517 35.48 290.429 34.824C291.357 34.168 292.485 33.84 293.813 33.84C295.829 33.84 297.357 34.576 298.397 36.048C299.453 37.52 299.981 39.664 299.981 42.48C299.981 44.352 299.741 45.944 299.261 47.256C298.797 48.552 298.109 49.544 297.197 50.232C296.285 50.904 295.157 51.24 293.813 51.24ZM293.813 48.72C294.901 48.72 295.701 48.216 296.213 47.208C296.741 46.2 297.005 44.624 297.005 42.48C297.005 40.336 296.741 38.784 296.213 37.824C295.701 36.848 294.901 36.36 293.813 36.36C292.741 36.36 291.941 36.848 291.413 37.824C290.885 38.784 290.621 40.336 290.621 42.48C290.621 44.624 290.885 46.2 291.413 47.208C291.941 48.216 292.741 48.72 293.813 48.72Z" fill="#444444"/>
<line x1="255" y1="26.5" x2="306" y2="26.5" stroke="#444444"/>
</svg>
