<svg width="257" height="57" viewBox="0 0 257 57" fill="none" xmlns="http://www.w3.org/2000/svg">
<path d="M6.26 16.14C6.02 16.14 5.82667 16.08 5.68 15.96C5.53333 15.8267 5.41333 15.6333 5.32 15.38L0.9 2.76C0.806667 2.48 0.826667 2.24667 0.96 2.06C1.10667 1.86 1.33333 1.76 1.64 1.76C1.86667 1.76 2.04667 1.82 2.18 1.94C2.31333 2.04667 2.42667 2.22 2.52 2.46L6.66 14.6H5.96L10.18 2.52C10.2733 2.26667 10.3867 2.08 10.52 1.96C10.6533 1.82667 10.8333 1.76 11.06 1.76C11.2733 1.76 11.44 1.82667 11.56 1.96C11.6933 2.08 11.8067 2.26667 11.9 2.52L16.06 14.6H15.44L19.62 2.46C19.6867 2.23333 19.7867 2.06 19.92 1.94C20.0667 1.82 20.2533 1.76 20.48 1.76C20.76 1.76 20.9667 1.85333 21.1 2.04C21.2333 2.22667 21.2467 2.46667 21.14 2.76L16.7 15.38C16.6067 15.6333 16.4867 15.8267 16.34 15.96C16.2067 16.08 16.0133 16.14 15.76 16.14C15.52 16.14 15.3267 16.08 15.18 15.96C15.0467 15.8267 14.9267 15.6333 14.82 15.38L10.8 3.8H11.24L7.18 15.38C7.08667 15.6333 6.97333 15.8267 6.84 15.96C6.70667 16.08 6.51333 16.14 6.26 16.14ZM24.8005 16.14C24.5338 16.14 24.3338 16.0667 24.2005 15.92C24.0671 15.7733 24.0005 15.5667 24.0005 15.3V2.58C24.0005 2.31333 24.0671 2.11333 24.2005 1.98C24.3338 1.83333 24.5338 1.76 24.8005 1.76C25.0538 1.76 25.2538 1.83333 25.4005 1.98C25.5471 2.11333 25.6205 2.31333 25.6205 2.58V8.44H25.3605C25.6405 7.66667 26.0938 7.08667 26.7205 6.7C27.3605 6.3 28.0938 6.1 28.9205 6.1C29.6938 6.1 30.3338 6.24 30.8405 6.52C31.3605 6.8 31.7471 7.22667 32.0005 7.8C32.2538 8.36 32.3805 9.07333 32.3805 9.94V15.3C32.3805 15.5667 32.3071 15.7733 32.1605 15.92C32.0271 16.0667 31.8338 16.14 31.5805 16.14C31.3138 16.14 31.1071 16.0667 30.9605 15.92C30.8271 15.7733 30.7605 15.5667 30.7605 15.3V10.04C30.7605 9.13333 30.5805 8.47333 30.2205 8.06C29.8738 7.63333 29.3138 7.42 28.5405 7.42C27.6471 7.42 26.9338 7.7 26.4005 8.26C25.8805 8.80667 25.6205 9.54 25.6205 10.46V15.3C25.6205 15.86 25.3471 16.14 24.8005 16.14ZM39.7477 16.18C38.721 16.18 37.8343 15.98 37.0877 15.58C36.3543 15.1667 35.781 14.5867 35.3677 13.84C34.9677 13.0933 34.7677 12.2 34.7677 11.16C34.7677 10.1467 34.9677 9.26667 35.3677 8.52C35.7677 7.76 36.3143 7.16667 37.0077 6.74C37.7143 6.31333 38.5277 6.1 39.4477 6.1C40.101 6.1 40.6877 6.21333 41.2077 6.44C41.7277 6.65333 42.1677 6.96667 42.5277 7.38C42.901 7.79333 43.181 8.29333 43.3677 8.88C43.5677 9.46667 43.6677 10.1267 43.6677 10.86C43.6677 11.0733 43.6077 11.2333 43.4877 11.34C43.3677 11.4333 43.1943 11.48 42.9677 11.48H36.0077V10.42H42.5877L42.2677 10.68C42.2677 9.96 42.161 9.35333 41.9477 8.86C41.7343 8.35333 41.421 7.96667 41.0077 7.7C40.6077 7.43333 40.101 7.3 39.4877 7.3C38.8077 7.3 38.2277 7.46 37.7477 7.78C37.281 8.08667 36.9277 8.52 36.6877 9.08C36.4477 9.62667 36.3277 10.2667 36.3277 11V11.12C36.3277 12.3467 36.621 13.28 37.2077 13.92C37.8077 14.56 38.6543 14.88 39.7477 14.88C40.201 14.88 40.6477 14.82 41.0877 14.7C41.541 14.58 41.981 14.38 42.4077 14.1C42.5943 13.98 42.761 13.9267 42.9077 13.94C43.0677 13.94 43.1943 13.9867 43.2877 14.08C43.381 14.16 43.441 14.2667 43.4677 14.4C43.5077 14.52 43.4943 14.6533 43.4277 14.8C43.3743 14.9467 43.261 15.0733 43.0877 15.18C42.6477 15.5 42.1277 15.7467 41.5277 15.92C40.9277 16.0933 40.3343 16.18 39.7477 16.18ZM46.8122 16.14C46.5455 16.14 46.3455 16.0667 46.2122 15.92C46.0789 15.7733 46.0122 15.5667 46.0122 15.3V6.96C46.0122 6.69333 46.0789 6.49333 46.2122 6.36C46.3455 6.21333 46.5389 6.14 46.7922 6.14C47.0455 6.14 47.2389 6.21333 47.3722 6.36C47.5189 6.49333 47.5922 6.69333 47.5922 6.96V8.68L47.3722 8.44C47.6522 7.66667 48.1055 7.08667 48.7322 6.7C49.3722 6.3 50.1055 6.1 50.9322 6.1C51.7055 6.1 52.3455 6.24 52.8522 6.52C53.3722 6.8 53.7589 7.22667 54.0122 7.8C54.2655 8.36 54.3922 9.07333 54.3922 9.94V15.3C54.3922 15.5667 54.3189 15.7733 54.1722 15.92C54.0389 16.0667 53.8455 16.14 53.5922 16.14C53.3255 16.14 53.1189 16.0667 52.9722 15.92C52.8389 15.7733 52.7722 15.5667 52.7722 15.3V10.04C52.7722 9.13333 52.5922 8.47333 52.2322 8.06C51.8855 7.63333 51.3255 7.42 50.5522 7.42C49.6589 7.42 48.9455 7.7 48.4122 8.26C47.8922 8.80667 47.6322 9.54 47.6322 10.46V15.3C47.6322 15.86 47.3589 16.14 46.8122 16.14ZM66.9356 16.2C65.8423 16.2 64.9356 15.8933 64.2156 15.28C63.509 14.6533 62.9823 13.7667 62.6356 12.62C62.289 11.46 62.1156 10.0733 62.1156 8.46C62.1156 6.83333 62.2756 5.44 62.5956 4.28C62.9156 3.12 63.429 2.23333 64.1356 1.62C64.8556 1.00667 65.789 0.699999 66.9356 0.699999C68.0423 0.699999 68.9556 1.00667 69.6756 1.62C70.3956 2.22 70.929 3.1 71.2756 4.26C71.6356 5.42 71.8156 6.82 71.8156 8.46C71.8156 10.0733 71.649 11.46 71.3156 12.62C70.9956 13.7667 70.4756 14.6533 69.7556 15.28C69.049 15.8933 68.109 16.2 66.9356 16.2ZM66.9356 14.74C67.629 14.74 68.1956 14.54 68.6356 14.14C69.089 13.74 69.429 13.1133 69.6556 12.26C69.8823 11.4067 70.009 10.2933 70.0356 8.92H63.8956C63.9223 10.28 64.0356 11.3867 64.2356 12.24C64.449 13.0933 64.7756 13.7267 65.2156 14.14C65.6556 14.54 66.229 14.74 66.9356 14.74ZM63.8956 7.56H70.0156C69.9756 6.34667 69.8423 5.34667 69.6156 4.56C69.389 3.76 69.0556 3.16667 68.6156 2.78C68.1756 2.38 67.6156 2.18 66.9356 2.18C66.2556 2.18 65.6956 2.38 65.2556 2.78C64.829 3.16667 64.509 3.76 64.2956 4.56C64.0823 5.34667 63.949 6.34667 63.8956 7.56ZM79.6669 8.88C79.4669 8.88 79.3069 8.82667 79.1869 8.72C79.0802 8.61333 79.0269 8.46 79.0269 8.26C79.0269 8.06 79.0802 7.90667 79.1869 7.8C79.3069 7.69333 79.4669 7.64 79.6669 7.64H88.4269C88.6269 7.64 88.7802 7.69333 88.8869 7.8C89.0069 7.90667 89.0669 8.06 89.0669 8.26C89.0669 8.46 89.0069 8.61333 88.8869 8.72C88.7802 8.82667 88.6269 8.88 88.4269 8.88H79.6669ZM79.6669 12.86C79.4669 12.86 79.3069 12.8067 79.1869 12.7C79.0802 12.5933 79.0269 12.44 79.0269 12.24C79.0269 12.04 79.0802 11.8933 79.1869 11.8C79.3069 11.6933 79.4669 11.64 79.6669 11.64H88.4269C88.6269 11.64 88.7802 11.6933 88.8869 11.8C89.0069 11.8933 89.0669 12.04 89.0669 12.24C89.0669 12.4533 89.0069 12.6133 88.8869 12.72C88.7802 12.8133 88.6269 12.86 88.4269 12.86H79.6669ZM97.7753 16C97.482 16 97.262 15.9333 97.1153 15.8C96.982 15.6533 96.9153 15.46 96.9153 15.22C96.9153 15.0733 96.9486 14.9333 97.0153 14.8C97.0953 14.6533 97.202 14.5067 97.3353 14.36L101.815 9.56C102.495 8.82667 102.982 8.15333 103.275 7.54C103.582 6.91333 103.735 6.28 103.735 5.64C103.735 4.84 103.489 4.23333 102.995 3.82C102.515 3.39333 101.809 3.18 100.875 3.18C100.275 3.18 99.7086 3.27333 99.1753 3.46C98.642 3.64667 98.1286 3.93333 97.6353 4.32C97.462 4.45333 97.302 4.51333 97.1553 4.5C97.022 4.48667 96.902 4.43333 96.7953 4.34C96.6886 4.24667 96.6153 4.12667 96.5753 3.98C96.5353 3.83333 96.5353 3.68667 96.5753 3.54C96.6286 3.39333 96.7353 3.26 96.8953 3.14C97.4153 2.71333 98.042 2.37333 98.7753 2.12C99.5086 1.85333 100.255 1.72 101.015 1.72C101.962 1.72 102.762 1.86667 103.415 2.16C104.069 2.45333 104.562 2.88667 104.895 3.46C105.229 4.02 105.395 4.70667 105.395 5.52C105.395 6.08 105.302 6.63333 105.115 7.18C104.942 7.71333 104.669 8.26 104.295 8.82C103.935 9.38 103.462 9.96 102.875 10.56L98.6153 15.06V14.6H105.355C105.609 14.6 105.795 14.66 105.915 14.78C106.049 14.8867 106.115 15.0533 106.115 15.28C106.115 15.52 106.049 15.7 105.915 15.82C105.795 15.94 105.609 16 105.355 16H97.7753ZM110.548 16.14C110.361 16.14 110.201 16.0933 110.068 16C109.934 15.9067 109.848 15.78 109.808 15.62C109.781 15.4467 109.821 15.26 109.928 15.06L116.348 2.6V3.32H109.148C108.908 3.32 108.721 3.26 108.588 3.14C108.454 3.00667 108.388 2.82667 108.388 2.6C108.388 2.37333 108.454 2.2 108.588 2.08C108.721 1.96 108.908 1.9 109.148 1.9H117.088C117.328 1.9 117.521 1.96 117.668 2.08C117.814 2.2 117.888 2.37333 117.888 2.6C117.888 2.78667 117.861 2.95333 117.808 3.1C117.768 3.23333 117.708 3.38667 117.628 3.56L111.468 15.58C111.374 15.7667 111.254 15.9067 111.108 16C110.961 16.0933 110.774 16.14 110.548 16.14ZM125.18 16.18C123.566 16.18 122.34 15.56 121.5 14.32C120.66 13.08 120.24 11.2867 120.24 8.94C120.24 7.36667 120.426 6.04667 120.8 4.98C121.173 3.9 121.726 3.08667 122.46 2.54C123.206 1.99333 124.113 1.72 125.18 1.72C126.806 1.72 128.033 2.33333 128.86 3.56C129.7 4.77333 130.12 6.56 130.12 8.92C130.12 10.4933 129.933 11.82 129.56 12.9C129.186 13.98 128.633 14.8 127.9 15.36C127.166 15.9067 126.26 16.18 125.18 16.18ZM125.18 14.76C126.3 14.76 127.126 14.2867 127.66 13.34C128.206 12.38 128.48 10.9067 128.48 8.92C128.48 6.92 128.206 5.46 127.66 4.54C127.126 3.60667 126.3 3.14 125.18 3.14C124.073 3.14 123.246 3.60667 122.7 4.54C122.153 5.47333 121.88 6.93333 121.88 8.92C121.88 10.9067 122.153 12.38 122.7 13.34C123.246 14.2867 124.073 14.76 125.18 14.76ZM134.532 9.108C133.956 9.108 133.456 8.984 133.032 8.736C132.608 8.488 132.28 8.136 132.048 7.68C131.816 7.224 131.7 6.688 131.7 6.072C131.7 5.608 131.764 5.192 131.892 4.824C132.028 4.448 132.22 4.128 132.468 3.864C132.716 3.6 133.012 3.4 133.356 3.264C133.708 3.12 134.1 3.048 134.532 3.048C135.108 3.048 135.608 3.172 136.032 3.42C136.456 3.668 136.784 4.02 137.016 4.476C137.248 4.924 137.364 5.456 137.364 6.072C137.364 6.536 137.296 6.956 137.16 7.332C137.032 7.708 136.844 8.028 136.596 8.292C136.348 8.556 136.048 8.76 135.696 8.904C135.352 9.04 134.964 9.108 134.532 9.108ZM134.532 8.244C134.884 8.244 135.188 8.16 135.444 7.992C135.708 7.824 135.908 7.58 136.044 7.26C136.188 6.94 136.26 6.544 136.26 6.072C136.26 5.368 136.104 4.832 135.792 4.464C135.48 4.096 135.06 3.912 134.532 3.912C134.188 3.912 133.884 3.996 133.62 4.164C133.364 4.324 133.164 4.564 133.02 4.884C132.876 5.204 132.804 5.6 132.804 6.072C132.804 6.776 132.96 7.316 133.272 7.692C133.592 8.06 134.012 8.244 134.532 8.244ZM145.883 17.9C145.75 18.0733 145.61 18.1733 145.463 18.2C145.316 18.2267 145.19 18.2 145.083 18.12C144.976 18.04 144.916 17.9267 144.903 17.78C144.903 17.6333 144.97 17.4733 145.103 17.3C145.316 17.02 145.463 16.7333 145.543 16.44C145.623 16.16 145.663 15.9 145.663 15.66L145.743 16.08C145.396 16.08 145.116 15.98 144.903 15.78C144.703 15.5667 144.603 15.3 144.603 14.98C144.603 14.66 144.696 14.4 144.883 14.2C145.083 13.9867 145.343 13.88 145.663 13.88C146.01 13.88 146.283 14 146.483 14.24C146.683 14.4667 146.783 14.8 146.783 15.24C146.783 15.52 146.756 15.8067 146.703 16.1C146.65 16.4067 146.556 16.7133 146.423 17.02C146.29 17.3267 146.11 17.62 145.883 17.9ZM63.315 44.14C63.1017 44.14 62.9283 44.0933 62.795 44C62.675 43.8933 62.6017 43.76 62.575 43.6C62.5617 43.4267 62.6017 43.2333 62.695 43.02L68.195 30.5C68.315 30.2333 68.455 30.0467 68.615 29.94C68.7883 29.82 68.975 29.76 69.175 29.76C69.375 29.76 69.555 29.82 69.715 29.94C69.8883 30.0467 70.0283 30.2333 70.135 30.5L75.655 43.02C75.7617 43.2333 75.8017 43.4267 75.775 43.6C75.7617 43.7733 75.695 43.9067 75.575 44C75.455 44.0933 75.2883 44.14 75.075 44.14C74.835 44.14 74.6417 44.08 74.495 43.96C74.3483 43.8267 74.2283 43.64 74.135 43.4L72.655 39.98L73.455 40.4H64.855L65.675 39.98L64.215 43.4C64.095 43.6533 63.9683 43.84 63.835 43.96C63.7017 44.08 63.5283 44.14 63.315 44.14ZM69.155 31.82L65.935 39.4L65.455 39.02H72.855L72.415 39.4L69.195 31.82H69.155ZM83.2216 36.88C83.0216 36.88 82.8616 36.8267 82.7416 36.72C82.6349 36.6133 82.5816 36.46 82.5816 36.26C82.5816 36.06 82.6349 35.9067 82.7416 35.8C82.8616 35.6933 83.0216 35.64 83.2216 35.64H91.9816C92.1816 35.64 92.3349 35.6933 92.4416 35.8C92.5616 35.9067 92.6216 36.06 92.6216 36.26C92.6216 36.46 92.5616 36.6133 92.4416 36.72C92.3349 36.8267 92.1816 36.88 91.9816 36.88H83.2216ZM83.2216 40.86C83.0216 40.86 82.8616 40.8067 82.7416 40.7C82.6349 40.5933 82.5816 40.44 82.5816 40.24C82.5816 40.04 82.6349 39.8933 82.7416 39.8C82.8616 39.6933 83.0216 39.64 83.2216 39.64H91.9816C92.1816 39.64 92.3349 39.6933 92.4416 39.8C92.5616 39.8933 92.6216 40.04 92.6216 40.24C92.6216 40.4533 92.5616 40.6133 92.4416 40.72C92.3349 40.8133 92.1816 40.86 91.9816 40.86H83.2216ZM126.091 44.12C125.918 44.12 125.765 44.0667 125.631 43.96C125.498 43.8533 125.425 43.7133 125.411 43.54C125.411 43.3533 125.498 43.16 125.671 42.96L129.171 38.56V39.4L125.891 35.3C125.718 35.0867 125.631 34.8933 125.631 34.72C125.645 34.5467 125.718 34.4067 125.851 34.3C125.985 34.1933 126.138 34.14 126.311 34.14C126.511 34.14 126.678 34.18 126.811 34.26C126.958 34.3267 127.091 34.44 127.211 34.6L130.071 38.22H129.511L132.391 34.6C132.511 34.44 132.638 34.3267 132.771 34.26C132.905 34.18 133.071 34.14 133.271 34.14C133.458 34.14 133.611 34.1933 133.731 34.3C133.865 34.4067 133.931 34.5533 133.931 34.74C133.945 34.9133 133.865 35.1067 133.691 35.32L130.431 39.36V38.62L133.931 42.96C134.091 43.16 134.165 43.3533 134.151 43.54C134.151 43.7133 134.085 43.8533 133.951 43.96C133.818 44.0667 133.658 44.12 133.471 44.12C133.285 44.12 133.118 44.08 132.971 44C132.838 43.9333 132.705 43.82 132.571 43.66L129.491 39.78H130.071L126.991 43.66C126.871 43.8067 126.738 43.92 126.591 44C126.458 44.08 126.291 44.12 126.091 44.12ZM141.635 44.14C141.422 44.14 141.249 44.0933 141.115 44C140.995 43.8933 140.922 43.76 140.895 43.6C140.882 43.4267 140.922 43.2333 141.015 43.02L146.515 30.5C146.635 30.2333 146.775 30.0467 146.935 29.94C147.109 29.82 147.295 29.76 147.495 29.76C147.695 29.76 147.875 29.82 148.035 29.94C148.209 30.0467 148.349 30.2333 148.455 30.5L153.975 43.02C154.082 43.2333 154.122 43.4267 154.095 43.6C154.082 43.7733 154.015 43.9067 153.895 44C153.775 44.0933 153.609 44.14 153.395 44.14C153.155 44.14 152.962 44.08 152.815 43.96C152.669 43.8267 152.549 43.64 152.455 43.4L150.975 39.98L151.775 40.4H143.175L143.995 39.98L142.535 43.4C142.415 43.6533 142.289 43.84 142.155 43.96C142.022 44.08 141.849 44.14 141.635 44.14ZM147.475 31.82L144.255 39.4L143.775 39.02H151.175L150.735 39.4L147.515 31.82H147.475ZM157.106 44.14C156.839 44.14 156.632 44.0667 156.486 43.92C156.352 43.7733 156.286 43.5667 156.286 43.3V34.96C156.286 34.6933 156.352 34.4933 156.486 34.36C156.619 34.2133 156.812 34.14 157.066 34.14C157.319 34.14 157.512 34.2133 157.646 34.36C157.792 34.4933 157.866 34.6933 157.866 34.96V36.58H157.666C157.879 35.7933 158.286 35.1867 158.886 34.76C159.486 34.3333 160.226 34.1067 161.106 34.08C161.306 34.0667 161.466 34.1133 161.586 34.22C161.706 34.3133 161.772 34.48 161.786 34.72C161.799 34.9467 161.746 35.1267 161.626 35.26C161.506 35.3933 161.319 35.4733 161.066 35.5L160.746 35.54C159.839 35.62 159.139 35.9133 158.646 36.42C158.166 36.9133 157.926 37.5933 157.926 38.46V43.3C157.926 43.5667 157.852 43.7733 157.706 43.92C157.572 44.0667 157.372 44.14 157.106 44.14ZM167.716 44.18C166.69 44.18 165.803 43.98 165.056 43.58C164.323 43.1667 163.75 42.5867 163.336 41.84C162.936 41.0933 162.736 40.2 162.736 39.16C162.736 38.1467 162.936 37.2667 163.336 36.52C163.736 35.76 164.283 35.1667 164.976 34.74C165.683 34.3133 166.496 34.1 167.416 34.1C168.07 34.1 168.656 34.2133 169.176 34.44C169.696 34.6533 170.136 34.9667 170.496 35.38C170.87 35.7933 171.15 36.2933 171.336 36.88C171.536 37.4667 171.636 38.1267 171.636 38.86C171.636 39.0733 171.576 39.2333 171.456 39.34C171.336 39.4333 171.163 39.48 170.936 39.48H163.976V38.42H170.556L170.236 38.68C170.236 37.96 170.13 37.3533 169.916 36.86C169.703 36.3533 169.39 35.9667 168.976 35.7C168.576 35.4333 168.07 35.3 167.456 35.3C166.776 35.3 166.196 35.46 165.716 35.78C165.25 36.0867 164.896 36.52 164.656 37.08C164.416 37.6267 164.296 38.2667 164.296 39V39.12C164.296 40.3467 164.59 41.28 165.176 41.92C165.776 42.56 166.623 42.88 167.716 42.88C168.17 42.88 168.616 42.82 169.056 42.7C169.51 42.58 169.95 42.38 170.376 42.1C170.563 41.98 170.73 41.9267 170.876 41.94C171.036 41.94 171.163 41.9867 171.256 42.08C171.35 42.16 171.41 42.2667 171.436 42.4C171.476 42.52 171.463 42.6533 171.396 42.8C171.343 42.9467 171.23 43.0733 171.056 43.18C170.616 43.5 170.096 43.7467 169.496 43.92C168.896 44.0933 168.303 44.18 167.716 44.18ZM177.041 44.18C176.374 44.18 175.774 44.0533 175.241 43.8C174.721 43.5333 174.308 43.1733 174.001 42.72C173.694 42.2667 173.541 41.76 173.541 41.2C173.541 40.48 173.721 39.9133 174.081 39.5C174.454 39.0867 175.061 38.7933 175.901 38.62C176.754 38.4467 177.914 38.36 179.381 38.36H180.281V39.42H179.401C178.321 39.42 177.468 39.4733 176.841 39.58C176.228 39.6733 175.794 39.84 175.541 40.08C175.301 40.32 175.181 40.66 175.181 41.1C175.181 41.6467 175.368 42.0933 175.741 42.44C176.128 42.7867 176.648 42.96 177.301 42.96C177.834 42.96 178.301 42.8333 178.701 42.58C179.114 42.3267 179.434 41.98 179.661 41.54C179.901 41.1 180.021 40.5933 180.021 40.02V37.74C180.021 36.9133 179.854 36.32 179.521 35.96C179.188 35.5867 178.641 35.4 177.881 35.4C177.414 35.4 176.948 35.46 176.481 35.58C176.014 35.7 175.521 35.8933 175.001 36.16C174.814 36.2533 174.654 36.2867 174.521 36.26C174.388 36.22 174.281 36.1467 174.201 36.04C174.121 35.9333 174.074 35.8133 174.061 35.68C174.048 35.5333 174.074 35.3933 174.141 35.26C174.221 35.1267 174.341 35.02 174.501 34.94C175.088 34.6467 175.668 34.4333 176.241 34.3C176.814 34.1667 177.361 34.1 177.881 34.1C178.721 34.1 179.414 34.24 179.961 34.52C180.508 34.7867 180.914 35.2 181.181 35.76C181.448 36.3067 181.581 37.0133 181.581 37.88V43.3C181.581 43.5667 181.514 43.7733 181.381 43.92C181.261 44.0667 181.081 44.14 180.841 44.14C180.588 44.14 180.394 44.0667 180.261 43.92C180.128 43.7733 180.061 43.5667 180.061 43.3V41.74H180.241C180.134 42.2467 179.928 42.68 179.621 43.04C179.328 43.4 178.961 43.68 178.521 43.88C178.081 44.08 177.588 44.18 177.041 44.18ZM193.783 44.18C192.836 44.18 192.016 43.9733 191.323 43.56C190.629 43.1467 190.089 42.5667 189.703 41.82C189.329 41.06 189.143 40.1667 189.143 39.14C189.143 38.3667 189.249 37.6733 189.463 37.06C189.676 36.4333 189.989 35.9 190.403 35.46C190.816 35.02 191.303 34.6867 191.863 34.46C192.436 34.22 193.076 34.1 193.783 34.1C194.729 34.1 195.549 34.3067 196.243 34.72C196.936 35.1333 197.469 35.72 197.843 36.48C198.229 37.2267 198.423 38.1133 198.423 39.14C198.423 39.9133 198.316 40.6067 198.103 41.22C197.889 41.8333 197.576 42.3667 197.163 42.82C196.749 43.26 196.256 43.6 195.683 43.84C195.123 44.0667 194.489 44.18 193.783 44.18ZM193.783 42.88C194.383 42.88 194.909 42.7333 195.363 42.44C195.816 42.1467 196.163 41.72 196.403 41.16C196.656 40.6 196.783 39.9267 196.783 39.14C196.783 37.9267 196.509 37 195.963 36.36C195.429 35.72 194.703 35.4 193.783 35.4C193.169 35.4 192.636 35.5467 192.183 35.84C191.743 36.12 191.396 36.54 191.143 37.1C190.903 37.6467 190.783 38.3267 190.783 39.14C190.783 40.34 191.056 41.2667 191.603 41.92C192.149 42.56 192.876 42.88 193.783 42.88ZM202.078 44.14C201.825 44.14 201.625 44.0667 201.478 43.92C201.345 43.7733 201.278 43.5667 201.278 43.3V35.54H199.998C199.785 35.54 199.612 35.4867 199.478 35.38C199.358 35.26 199.298 35.1 199.298 34.9C199.298 34.7 199.358 34.5467 199.478 34.44C199.612 34.3333 199.785 34.28 199.998 34.28H201.718L201.278 34.7V33.94C201.278 32.6733 201.585 31.7067 202.198 31.04C202.825 30.3733 203.738 29.9867 204.938 29.88L205.518 29.82C205.705 29.8067 205.852 29.84 205.958 29.92C206.078 30 206.152 30.1 206.178 30.22C206.218 30.34 206.225 30.4667 206.198 30.6C206.172 30.72 206.112 30.8267 206.018 30.92C205.925 31.0133 205.812 31.0667 205.678 31.08L205.218 31.12C204.405 31.1867 203.812 31.4333 203.438 31.86C203.078 32.2867 202.898 32.9133 202.898 33.74V34.58L202.658 34.28H205.058C205.285 34.28 205.458 34.3333 205.578 34.44C205.698 34.5467 205.758 34.7 205.758 34.9C205.758 35.1 205.698 35.26 205.578 35.38C205.458 35.4867 205.285 35.54 205.058 35.54H202.898V43.3C202.898 43.86 202.625 44.14 202.078 44.14ZM216.695 44.18C215.721 44.18 214.881 43.9667 214.175 43.54C213.468 43.1133 212.921 42.52 212.535 41.76C212.161 40.9867 211.975 40.0933 211.975 39.08C211.975 38.3067 212.081 37.6133 212.295 37C212.508 36.3867 212.821 35.8667 213.235 35.44C213.648 35 214.141 34.6667 214.715 34.44C215.301 34.2133 215.961 34.1 216.695 34.1C217.175 34.1 217.675 34.1733 218.195 34.32C218.715 34.4667 219.188 34.72 219.615 35.08C219.748 35.1733 219.835 35.2867 219.875 35.42C219.915 35.5533 219.915 35.6867 219.875 35.82C219.835 35.94 219.768 36.0467 219.675 36.14C219.581 36.22 219.461 36.2667 219.315 36.28C219.181 36.2933 219.041 36.2467 218.895 36.14C218.548 35.8733 218.195 35.6867 217.835 35.58C217.475 35.4733 217.128 35.42 216.795 35.42C216.275 35.42 215.821 35.5067 215.435 35.68C215.048 35.84 214.721 36.0733 214.455 36.38C214.188 36.6867 213.981 37.0667 213.835 37.52C213.701 37.9733 213.635 38.5 213.635 39.1C213.635 40.26 213.908 41.18 214.455 41.86C215.001 42.5267 215.781 42.86 216.795 42.86C217.128 42.86 217.468 42.8067 217.815 42.7C218.175 42.5933 218.535 42.4067 218.895 42.14C219.041 42.0333 219.181 41.9867 219.315 42C219.448 42.0133 219.561 42.0667 219.655 42.16C219.748 42.24 219.808 42.3467 219.835 42.48C219.875 42.6133 219.875 42.7467 219.835 42.88C219.795 43 219.708 43.1067 219.575 43.2C219.148 43.5467 218.681 43.8 218.175 43.96C217.668 44.1067 217.175 44.18 216.695 44.18ZM222.633 44.1C222.366 44.1 222.166 44.0267 222.033 43.88C221.899 43.72 221.833 43.5 221.833 43.22V35.04C221.833 34.76 221.899 34.5467 222.033 34.4C222.166 34.2533 222.366 34.18 222.633 34.18C222.886 34.18 223.086 34.2533 223.233 34.4C223.379 34.5467 223.453 34.76 223.453 35.04V43.22C223.453 43.5 223.379 43.72 223.233 43.88C223.099 44.0267 222.899 44.1 222.633 44.1ZM222.633 31.94C222.299 31.94 222.039 31.8533 221.853 31.68C221.666 31.4933 221.573 31.2467 221.573 30.94C221.573 30.62 221.666 30.38 221.853 30.22C222.039 30.0467 222.299 29.96 222.633 29.96C222.979 29.96 223.239 30.0467 223.413 30.22C223.599 30.38 223.693 30.62 223.693 30.94C223.693 31.2467 223.599 31.4933 223.413 31.68C223.239 31.8533 222.979 31.94 222.633 31.94ZM227.301 44.14C227.034 44.14 226.828 44.0667 226.681 43.92C226.548 43.7733 226.481 43.5667 226.481 43.3V34.96C226.481 34.6933 226.548 34.4933 226.681 34.36C226.814 34.2133 227.008 34.14 227.261 34.14C227.514 34.14 227.708 34.2133 227.841 34.36C227.988 34.4933 228.061 34.6933 228.061 34.96V36.58H227.861C228.074 35.7933 228.481 35.1867 229.081 34.76C229.681 34.3333 230.421 34.1067 231.301 34.08C231.501 34.0667 231.661 34.1133 231.781 34.22C231.901 34.3133 231.968 34.48 231.981 34.72C231.994 34.9467 231.941 35.1267 231.821 35.26C231.701 35.3933 231.514 35.4733 231.261 35.5L230.941 35.54C230.034 35.62 229.334 35.9133 228.841 36.42C228.361 36.9133 228.121 37.5933 228.121 38.46V43.3C228.121 43.5667 228.048 43.7733 227.901 43.92C227.768 44.0667 227.568 44.14 227.301 44.14ZM237.652 44.18C236.678 44.18 235.838 43.9667 235.132 43.54C234.425 43.1133 233.878 42.52 233.492 41.76C233.118 40.9867 232.932 40.0933 232.932 39.08C232.932 38.3067 233.038 37.6133 233.252 37C233.465 36.3867 233.778 35.8667 234.192 35.44C234.605 35 235.098 34.6667 235.672 34.44C236.258 34.2133 236.918 34.1 237.652 34.1C238.132 34.1 238.632 34.1733 239.152 34.32C239.672 34.4667 240.145 34.72 240.572 35.08C240.705 35.1733 240.792 35.2867 240.832 35.42C240.872 35.5533 240.872 35.6867 240.832 35.82C240.792 35.94 240.725 36.0467 240.632 36.14C240.538 36.22 240.418 36.2667 240.272 36.28C240.138 36.2933 239.998 36.2467 239.852 36.14C239.505 35.8733 239.152 35.6867 238.792 35.58C238.432 35.4733 238.085 35.42 237.752 35.42C237.232 35.42 236.778 35.5067 236.392 35.68C236.005 35.84 235.678 36.0733 235.412 36.38C235.145 36.6867 234.938 37.0667 234.792 37.52C234.658 37.9733 234.592 38.5 234.592 39.1C234.592 40.26 234.865 41.18 235.412 41.86C235.958 42.5267 236.738 42.86 237.752 42.86C238.085 42.86 238.425 42.8067 238.772 42.7C239.132 42.5933 239.492 42.4067 239.852 42.14C239.998 42.0333 240.138 41.9867 240.272 42C240.405 42.0133 240.518 42.0667 240.612 42.16C240.705 42.24 240.765 42.3467 240.792 42.48C240.832 42.6133 240.832 42.7467 240.792 42.88C240.752 43 240.665 43.1067 240.532 43.2C240.105 43.5467 239.638 43.8 239.132 43.96C238.625 44.1067 238.132 44.18 237.652 44.18ZM245.75 44.18C244.79 44.18 244.056 43.8867 243.55 43.3C243.043 42.7133 242.79 41.8733 242.79 40.78V30.58C242.79 30.3133 242.856 30.1133 242.99 29.98C243.123 29.8333 243.323 29.76 243.59 29.76C243.843 29.76 244.043 29.8333 244.19 29.98C244.336 30.1133 244.41 30.3133 244.41 30.58V40.66C244.41 41.38 244.55 41.92 244.83 42.28C245.123 42.6267 245.55 42.8 246.11 42.8C246.23 42.8 246.336 42.7933 246.43 42.78C246.523 42.7667 246.616 42.76 246.71 42.76C246.856 42.7467 246.956 42.78 247.01 42.86C247.076 42.94 247.11 43.1 247.11 43.34C247.11 43.58 247.056 43.76 246.95 43.88C246.843 44 246.67 44.08 246.43 44.12C246.323 44.1333 246.21 44.1467 246.09 44.16C245.97 44.1733 245.856 44.18 245.75 44.18ZM252.99 44.18C251.963 44.18 251.077 43.98 250.33 43.58C249.597 43.1667 249.023 42.5867 248.61 41.84C248.21 41.0933 248.01 40.2 248.01 39.16C248.01 38.1467 248.21 37.2667 248.61 36.52C249.01 35.76 249.557 35.1667 250.25 34.74C250.957 34.3133 251.77 34.1 252.69 34.1C253.343 34.1 253.93 34.2133 254.45 34.44C254.97 34.6533 255.41 34.9667 255.77 35.38C256.143 35.7933 256.423 36.2933 256.61 36.88C256.81 37.4667 256.91 38.1267 256.91 38.86C256.91 39.0733 256.85 39.2333 256.73 39.34C256.61 39.4333 256.437 39.48 256.21 39.48H249.25V38.42H255.83L255.51 38.68C255.51 37.96 255.403 37.3533 255.19 36.86C254.977 36.3533 254.663 35.9667 254.25 35.7C253.85 35.4333 253.343 35.3 252.73 35.3C252.05 35.3 251.47 35.46 250.99 35.78C250.523 36.0867 250.17 36.52 249.93 37.08C249.69 37.6267 249.57 38.2667 249.57 39V39.12C249.57 40.3467 249.863 41.28 250.45 41.92C251.05 42.56 251.897 42.88 252.99 42.88C253.443 42.88 253.89 42.82 254.33 42.7C254.783 42.58 255.223 42.38 255.65 42.1C255.837 41.98 256.003 41.9267 256.15 41.94C256.31 41.94 256.437 41.9867 256.53 42.08C256.623 42.16 256.683 42.2667 256.71 42.4C256.75 42.52 256.737 42.6533 256.67 42.8C256.617 42.9467 256.503 43.0733 256.33 43.18C255.89 43.5 255.37 43.7467 254.77 43.92C254.17 44.0933 253.577 44.18 252.99 44.18Z" fill="#444444"/>
<path d="M114.844 37.18C114.071 37.18 113.291 37.0667 112.504 36.84C111.731 36.6133 111.057 36.28 110.484 35.84C110.311 35.72 110.197 35.5867 110.144 35.44C110.091 35.28 110.077 35.1333 110.104 35C110.144 34.8533 110.217 34.7333 110.324 34.64C110.431 34.5333 110.557 34.4733 110.704 34.46C110.864 34.4467 111.037 34.5 111.224 34.62C111.811 35.0067 112.397 35.2867 112.984 35.46C113.571 35.6333 114.177 35.72 114.804 35.72C115.484 35.72 116.057 35.62 116.524 35.42C116.991 35.22 117.344 34.9267 117.584 34.54C117.824 34.14 117.944 33.6533 117.944 33.08C117.944 32.2533 117.671 31.6267 117.124 31.2C116.577 30.7733 115.784 30.56 114.744 30.56H113.324C113.071 30.56 112.877 30.5 112.744 30.38C112.611 30.2467 112.544 30.0667 112.544 29.84C112.544 29.6267 112.611 29.46 112.744 29.34C112.877 29.2067 113.071 29.14 113.324 29.14H114.604C115.217 29.14 115.737 29.0333 116.164 28.82C116.604 28.6067 116.944 28.3067 117.184 27.92C117.424 27.52 117.544 27.04 117.544 26.48C117.544 25.7333 117.304 25.1667 116.824 24.78C116.344 24.38 115.651 24.18 114.744 24.18C114.144 24.18 113.577 24.2667 113.044 24.44C112.511 24.6133 111.984 24.9067 111.464 25.32C111.304 25.44 111.144 25.5 110.984 25.5C110.837 25.4867 110.711 25.44 110.604 25.36C110.511 25.2667 110.437 25.1467 110.384 25C110.344 24.8533 110.351 24.7067 110.404 24.56C110.457 24.4 110.571 24.2533 110.744 24.12C111.277 23.6667 111.904 23.32 112.624 23.08C113.344 22.84 114.084 22.72 114.844 22.72C115.751 22.72 116.524 22.8667 117.164 23.16C117.817 23.44 118.317 23.8533 118.664 24.4C119.011 24.9333 119.184 25.58 119.184 26.34C119.184 26.9133 119.071 27.44 118.844 27.92C118.631 28.3867 118.324 28.7867 117.924 29.12C117.537 29.4533 117.064 29.6933 116.504 29.84V29.62C117.477 29.78 118.231 30.18 118.764 30.82C119.311 31.4467 119.584 32.24 119.584 33.2C119.584 34.0133 119.391 34.72 119.004 35.32C118.631 35.9067 118.091 36.3667 117.384 36.7C116.677 37.02 115.831 37.18 114.844 37.18Z" fill="#444444"/>
<path d="M116.364 56.14C116.111 56.14 115.911 56.0667 115.764 55.92C115.617 55.7733 115.544 55.5667 115.544 55.3V52.98H109.804C109.537 52.98 109.324 52.92 109.164 52.8C109.017 52.6667 108.944 52.48 108.944 52.24C108.944 52.0933 108.977 51.9467 109.044 51.8C109.111 51.64 109.231 51.44 109.404 51.2L115.504 42.32C115.624 42.1333 115.757 41.9933 115.904 41.9C116.051 41.8067 116.224 41.76 116.424 41.76C116.637 41.76 116.817 41.8267 116.964 41.96C117.124 42.0933 117.204 42.3067 117.204 42.6V51.58H118.664C118.917 51.58 119.111 51.64 119.244 51.76C119.377 51.88 119.444 52.0533 119.444 52.28C119.444 52.5067 119.377 52.68 119.244 52.8C119.111 52.92 118.917 52.98 118.664 52.98H117.204V55.3C117.204 55.5667 117.131 55.7733 116.984 55.92C116.837 56.0667 116.631 56.14 116.364 56.14ZM115.544 51.58V43.82H116.024L110.424 52.02V51.58H115.544Z" fill="#444444"/>
<line x1="108" y1="39.5" x2="122" y2="39.5" stroke="#C882FA"/>
</svg>
