<svg width="247" height="56" viewBox="0 0 247 56" fill="none" xmlns="http://www.w3.org/2000/svg">
<path d="M6.26 16.14C6.02 16.14 5.82667 16.08 5.68 15.96C5.53333 15.8267 5.41333 15.6333 5.32 15.38L0.9 2.76C0.806667 2.48 0.826667 2.24667 0.96 2.06C1.10667 1.86 1.33333 1.76 1.64 1.76C1.86667 1.76 2.04667 1.82 2.18 1.94C2.31333 2.04667 2.42667 2.22 2.52 2.46L6.66 14.6H5.96L10.18 2.52C10.2733 2.26667 10.3867 2.08 10.52 1.96C10.6533 1.82667 10.8333 1.76 11.06 1.76C11.2733 1.76 11.44 1.82667 11.56 1.96C11.6933 2.08 11.8067 2.26667 11.9 2.52L16.06 14.6H15.44L19.62 2.46C19.6867 2.23333 19.7867 2.06 19.92 1.94C20.0667 1.82 20.2533 1.76 20.48 1.76C20.76 1.76 20.9667 1.85333 21.1 2.04C21.2333 2.22667 21.2467 2.46667 21.14 2.76L16.7 15.38C16.6067 15.6333 16.4867 15.8267 16.34 15.96C16.2067 16.08 16.0133 16.14 15.76 16.14C15.52 16.14 15.3267 16.08 15.18 15.96C15.0467 15.8267 14.9267 15.6333 14.82 15.38L10.8 3.8H11.24L7.18 15.38C7.08667 15.6333 6.97333 15.8267 6.84 15.96C6.70667 16.08 6.51333 16.14 6.26 16.14ZM24.8005 16.14C24.5338 16.14 24.3338 16.0667 24.2005 15.92C24.0671 15.7733 24.0005 15.5667 24.0005 15.3V2.58C24.0005 2.31333 24.0671 2.11333 24.2005 1.98C24.3338 1.83333 24.5338 1.76 24.8005 1.76C25.0538 1.76 25.2538 1.83333 25.4005 1.98C25.5471 2.11333 25.6205 2.31333 25.6205 2.58V8.44H25.3605C25.6405 7.66667 26.0938 7.08667 26.7205 6.7C27.3605 6.3 28.0938 6.1 28.9205 6.1C29.6938 6.1 30.3338 6.24 30.8405 6.52C31.3605 6.8 31.7471 7.22667 32.0005 7.8C32.2538 8.36 32.3805 9.07333 32.3805 9.94V15.3C32.3805 15.5667 32.3071 15.7733 32.1605 15.92C32.0271 16.0667 31.8338 16.14 31.5805 16.14C31.3138 16.14 31.1071 16.0667 30.9605 15.92C30.8271 15.7733 30.7605 15.5667 30.7605 15.3V10.04C30.7605 9.13333 30.5805 8.47333 30.2205 8.06C29.8738 7.63333 29.3138 7.42 28.5405 7.42C27.6471 7.42 26.9338 7.7 26.4005 8.26C25.8805 8.80667 25.6205 9.54 25.6205 10.46V15.3C25.6205 15.86 25.3471 16.14 24.8005 16.14ZM39.7477 16.18C38.721 16.18 37.8343 15.98 37.0877 15.58C36.3543 15.1667 35.781 14.5867 35.3677 13.84C34.9677 13.0933 34.7677 12.2 34.7677 11.16C34.7677 10.1467 34.9677 9.26667 35.3677 8.52C35.7677 7.76 36.3143 7.16667 37.0077 6.74C37.7143 6.31333 38.5277 6.1 39.4477 6.1C40.101 6.1 40.6877 6.21333 41.2077 6.44C41.7277 6.65333 42.1677 6.96667 42.5277 7.38C42.901 7.79333 43.181 8.29333 43.3677 8.88C43.5677 9.46667 43.6677 10.1267 43.6677 10.86C43.6677 11.0733 43.6077 11.2333 43.4877 11.34C43.3677 11.4333 43.1943 11.48 42.9677 11.48H36.0077V10.42H42.5877L42.2677 10.68C42.2677 9.96 42.161 9.35333 41.9477 8.86C41.7343 8.35333 41.421 7.96667 41.0077 7.7C40.6077 7.43333 40.101 7.3 39.4877 7.3C38.8077 7.3 38.2277 7.46 37.7477 7.78C37.281 8.08667 36.9277 8.52 36.6877 9.08C36.4477 9.62667 36.3277 10.2667 36.3277 11V11.12C36.3277 12.3467 36.621 13.28 37.2077 13.92C37.8077 14.56 38.6543 14.88 39.7477 14.88C40.201 14.88 40.6477 14.82 41.0877 14.7C41.541 14.58 41.981 14.38 42.4077 14.1C42.5943 13.98 42.761 13.9267 42.9077 13.94C43.0677 13.94 43.1943 13.9867 43.2877 14.08C43.381 14.16 43.441 14.2667 43.4677 14.4C43.5077 14.52 43.4943 14.6533 43.4277 14.8C43.3743 14.9467 43.261 15.0733 43.0877 15.18C42.6477 15.5 42.1277 15.7467 41.5277 15.92C40.9277 16.0933 40.3343 16.18 39.7477 16.18ZM46.8122 16.14C46.5455 16.14 46.3455 16.0667 46.2122 15.92C46.0789 15.7733 46.0122 15.5667 46.0122 15.3V6.96C46.0122 6.69333 46.0789 6.49333 46.2122 6.36C46.3455 6.21333 46.5389 6.14 46.7922 6.14C47.0455 6.14 47.2389 6.21333 47.3722 6.36C47.5189 6.49333 47.5922 6.69333 47.5922 6.96V8.68L47.3722 8.44C47.6522 7.66667 48.1055 7.08667 48.7322 6.7C49.3722 6.3 50.1055 6.1 50.9322 6.1C51.7055 6.1 52.3455 6.24 52.8522 6.52C53.3722 6.8 53.7589 7.22667 54.0122 7.8C54.2655 8.36 54.3922 9.07333 54.3922 9.94V15.3C54.3922 15.5667 54.3189 15.7733 54.1722 15.92C54.0389 16.0667 53.8455 16.14 53.5922 16.14C53.3255 16.14 53.1189 16.0667 52.9722 15.92C52.8389 15.7733 52.7722 15.5667 52.7722 15.3V10.04C52.7722 9.13333 52.5922 8.47333 52.2322 8.06C51.8855 7.63333 51.3255 7.42 50.5522 7.42C49.6589 7.42 48.9455 7.7 48.4122 8.26C47.8922 8.80667 47.6322 9.54 47.6322 10.46V15.3C47.6322 15.86 47.3589 16.14 46.8122 16.14ZM66.9356 16.2C65.8423 16.2 64.9356 15.8933 64.2156 15.28C63.509 14.6533 62.9823 13.7667 62.6356 12.62C62.289 11.46 62.1156 10.0733 62.1156 8.46C62.1156 6.83333 62.2756 5.44 62.5956 4.28C62.9156 3.12 63.429 2.23333 64.1356 1.62C64.8556 1.00667 65.789 0.699999 66.9356 0.699999C68.0423 0.699999 68.9556 1.00667 69.6756 1.62C70.3956 2.22 70.929 3.1 71.2756 4.26C71.6356 5.42 71.8156 6.82 71.8156 8.46C71.8156 10.0733 71.649 11.46 71.3156 12.62C70.9956 13.7667 70.4756 14.6533 69.7556 15.28C69.049 15.8933 68.109 16.2 66.9356 16.2ZM66.9356 14.74C67.629 14.74 68.1956 14.54 68.6356 14.14C69.089 13.74 69.429 13.1133 69.6556 12.26C69.8823 11.4067 70.009 10.2933 70.0356 8.92H63.8956C63.9223 10.28 64.0356 11.3867 64.2356 12.24C64.449 13.0933 64.7756 13.7267 65.2156 14.14C65.6556 14.54 66.229 14.74 66.9356 14.74ZM63.8956 7.56H70.0156C69.9756 6.34667 69.8423 5.34667 69.6156 4.56C69.389 3.76 69.0556 3.16667 68.6156 2.78C68.1756 2.38 67.6156 2.18 66.9356 2.18C66.2556 2.18 65.6956 2.38 65.2556 2.78C64.829 3.16667 64.509 3.76 64.2956 4.56C64.0823 5.34667 63.949 6.34667 63.8956 7.56ZM79.6669 8.88C79.4669 8.88 79.3069 8.82667 79.1869 8.72C79.0802 8.61333 79.0269 8.46 79.0269 8.26C79.0269 8.06 79.0802 7.90667 79.1869 7.8C79.3069 7.69333 79.4669 7.64 79.6669 7.64H88.4269C88.6269 7.64 88.7802 7.69333 88.8869 7.8C89.0069 7.90667 89.0669 8.06 89.0669 8.26C89.0669 8.46 89.0069 8.61333 88.8869 8.72C88.7802 8.82667 88.6269 8.88 88.4269 8.88H79.6669ZM79.6669 12.86C79.4669 12.86 79.3069 12.8067 79.1869 12.7C79.0802 12.5933 79.0269 12.44 79.0269 12.24C79.0269 12.04 79.0802 11.8933 79.1869 11.8C79.3069 11.6933 79.4669 11.64 79.6669 11.64H88.4269C88.6269 11.64 88.7802 11.6933 88.8869 11.8C89.0069 11.8933 89.0669 12.04 89.0669 12.24C89.0669 12.4533 89.0069 12.6133 88.8869 12.72C88.7802 12.8133 88.6269 12.86 88.4269 12.86H79.6669ZM98.2953 16C98.0553 16 97.8686 15.94 97.7353 15.82C97.602 15.6867 97.5353 15.5067 97.5353 15.28C97.5353 15.0533 97.602 14.8867 97.7353 14.78C97.8686 14.66 98.0553 14.6 98.2953 14.6H100.895V3.26H101.755L98.8553 5.18C98.682 5.27333 98.5153 5.31333 98.3553 5.3C98.2086 5.28667 98.082 5.23333 97.9753 5.14C97.882 5.03333 97.8153 4.91333 97.7753 4.78C97.7353 4.63333 97.742 4.48667 97.7953 4.34C97.8486 4.18 97.962 4.04667 98.1353 3.94L100.895 2.12C101.069 2.01333 101.235 1.92667 101.395 1.86C101.555 1.79333 101.715 1.76 101.875 1.76C102.062 1.76 102.215 1.82 102.335 1.94C102.469 2.04667 102.535 2.22 102.535 2.46V14.6H104.935C105.175 14.6 105.362 14.66 105.495 14.78C105.629 14.8867 105.695 15.0533 105.695 15.28C105.695 15.52 105.629 15.7 105.495 15.82C105.362 15.94 105.175 16 104.935 16H98.2953ZM113.188 16.18C112.134 16.18 111.228 16.0267 110.468 15.72C109.721 15.4133 109.148 14.9667 108.748 14.38C108.361 13.7933 108.168 13.0867 108.168 12.26C108.168 11.6067 108.301 11.0267 108.568 10.52C108.834 10 109.208 9.58 109.688 9.26C110.168 8.94 110.721 8.74 111.348 8.66V8.96C110.481 8.77333 109.788 8.36667 109.268 7.74C108.761 7.1 108.507 6.34667 108.507 5.48C108.507 4.68 108.694 4.00667 109.068 3.46C109.454 2.9 110.001 2.47333 110.708 2.18C111.414 1.87333 112.241 1.72 113.188 1.72C114.148 1.72 114.974 1.87333 115.668 2.18C116.374 2.47333 116.921 2.9 117.308 3.46C117.694 4.00667 117.888 4.68 117.888 5.48C117.888 6.05333 117.768 6.58667 117.528 7.08C117.301 7.56 116.974 7.96 116.548 8.28C116.121 8.6 115.621 8.82 115.048 8.94V8.66C115.994 8.79333 116.754 9.18667 117.328 9.84C117.914 10.48 118.207 11.2867 118.207 12.26C118.207 13.0867 118.008 13.7933 117.608 14.38C117.221 14.9667 116.648 15.4133 115.888 15.72C115.141 16.0267 114.241 16.18 113.188 16.18ZM113.188 14.82C114.321 14.82 115.174 14.6 115.748 14.16C116.334 13.72 116.628 13.0533 116.628 12.16C116.628 11.28 116.334 10.6267 115.748 10.2C115.174 9.76 114.321 9.54 113.188 9.54C112.068 9.54 111.214 9.76 110.628 10.2C110.041 10.6267 109.748 11.28 109.748 12.16C109.748 13.0533 110.041 13.72 110.628 14.16C111.214 14.6 112.068 14.82 113.188 14.82ZM113.188 8.18C113.841 8.18 114.394 8.08 114.848 7.88C115.314 7.66667 115.674 7.36667 115.928 6.98C116.181 6.59333 116.308 6.14 116.308 5.62C116.308 4.82 116.028 4.2 115.468 3.76C114.921 3.30667 114.161 3.08 113.188 3.08C112.214 3.08 111.454 3.30667 110.908 3.76C110.361 4.2 110.088 4.82 110.088 5.62C110.088 6.42 110.361 7.04667 110.908 7.5C111.454 7.95333 112.214 8.18 113.188 8.18ZM125.18 16.18C123.566 16.18 122.34 15.56 121.5 14.32C120.66 13.08 120.24 11.2867 120.24 8.94C120.24 7.36667 120.426 6.04667 120.8 4.98C121.173 3.9 121.726 3.08667 122.46 2.54C123.206 1.99333 124.113 1.72 125.18 1.72C126.806 1.72 128.033 2.33333 128.86 3.56C129.7 4.77333 130.12 6.56 130.12 8.92C130.12 10.4933 129.933 11.82 129.56 12.9C129.186 13.98 128.633 14.8 127.9 15.36C127.166 15.9067 126.26 16.18 125.18 16.18ZM125.18 14.76C126.3 14.76 127.126 14.2867 127.66 13.34C128.206 12.38 128.48 10.9067 128.48 8.92C128.48 6.92 128.206 5.46 127.66 4.54C127.126 3.60667 126.3 3.14 125.18 3.14C124.073 3.14 123.246 3.60667 122.7 4.54C122.153 5.47333 121.88 6.93333 121.88 8.92C121.88 10.9067 122.153 12.38 122.7 13.34C123.246 14.2867 124.073 14.76 125.18 14.76ZM134.532 9.108C133.956 9.108 133.456 8.984 133.032 8.736C132.608 8.488 132.28 8.136 132.048 7.68C131.816 7.224 131.7 6.688 131.7 6.072C131.7 5.608 131.764 5.192 131.892 4.824C132.028 4.448 132.22 4.128 132.468 3.864C132.716 3.6 133.012 3.4 133.356 3.264C133.708 3.12 134.1 3.048 134.532 3.048C135.108 3.048 135.608 3.172 136.032 3.42C136.456 3.668 136.784 4.02 137.016 4.476C137.248 4.924 137.364 5.456 137.364 6.072C137.364 6.536 137.296 6.956 137.16 7.332C137.032 7.708 136.844 8.028 136.596 8.292C136.348 8.556 136.048 8.76 135.696 8.904C135.352 9.04 134.964 9.108 134.532 9.108ZM134.532 8.244C134.884 8.244 135.188 8.16 135.444 7.992C135.708 7.824 135.908 7.58 136.044 7.26C136.188 6.94 136.26 6.544 136.26 6.072C136.26 5.368 136.104 4.832 135.792 4.464C135.48 4.096 135.06 3.912 134.532 3.912C134.188 3.912 133.884 3.996 133.62 4.164C133.364 4.324 133.164 4.564 133.02 4.884C132.876 5.204 132.804 5.6 132.804 6.072C132.804 6.776 132.96 7.316 133.272 7.692C133.592 8.06 134.012 8.244 134.532 8.244ZM145.883 17.9C145.75 18.0733 145.61 18.1733 145.463 18.2C145.316 18.2267 145.19 18.2 145.083 18.12C144.976 18.04 144.916 17.9267 144.903 17.78C144.903 17.6333 144.97 17.4733 145.103 17.3C145.316 17.02 145.463 16.7333 145.543 16.44C145.623 16.16 145.663 15.9 145.663 15.66L145.743 16.08C145.396 16.08 145.116 15.98 144.903 15.78C144.703 15.5667 144.603 15.3 144.603 14.98C144.603 14.66 144.696 14.4 144.883 14.2C145.083 13.9867 145.343 13.88 145.663 13.88C146.01 13.88 146.283 14 146.483 14.24C146.683 14.4667 146.783 14.8 146.783 15.24C146.783 15.52 146.756 15.8067 146.703 16.1C146.65 16.4067 146.556 16.7133 146.423 17.02C146.29 17.3267 146.11 17.62 145.883 17.9ZM58.1588 44.14C57.9454 44.14 57.7721 44.0933 57.6388 44C57.5188 43.8933 57.4454 43.76 57.4188 43.6C57.4054 43.4267 57.4454 43.2333 57.5388 43.02L63.0388 30.5C63.1588 30.2333 63.2988 30.0467 63.4588 29.94C63.6321 29.82 63.8188 29.76 64.0188 29.76C64.2188 29.76 64.3988 29.82 64.5588 29.94C64.7321 30.0467 64.8721 30.2333 64.9788 30.5L70.4988 43.02C70.6054 43.2333 70.6454 43.4267 70.6188 43.6C70.6054 43.7733 70.5388 43.9067 70.4188 44C70.2988 44.0933 70.1321 44.14 69.9188 44.14C69.6788 44.14 69.4854 44.08 69.3388 43.96C69.1921 43.8267 69.0721 43.64 68.9788 43.4L67.4988 39.98L68.2988 40.4H59.6988L60.5188 39.98L59.0588 43.4C58.9388 43.6533 58.8121 43.84 58.6788 43.96C58.5454 44.08 58.3721 44.14 58.1588 44.14ZM63.9988 31.82L60.7788 39.4L60.2988 39.02H67.6988L67.2588 39.4L64.0388 31.82H63.9988ZM78.0653 36.88C77.8653 36.88 77.7053 36.8267 77.5853 36.72C77.4786 36.6133 77.4253 36.46 77.4253 36.26C77.4253 36.06 77.4786 35.9067 77.5853 35.8C77.7053 35.6933 77.8653 35.64 78.0653 35.64H86.8253C87.0253 35.64 87.1786 35.6933 87.2853 35.8C87.4053 35.9067 87.4653 36.06 87.4653 36.26C87.4653 36.46 87.4053 36.6133 87.2853 36.72C87.1786 36.8267 87.0253 36.88 86.8253 36.88H78.0653ZM78.0653 40.86C77.8653 40.86 77.7053 40.8067 77.5853 40.7C77.4786 40.5933 77.4253 40.44 77.4253 40.24C77.4253 40.04 77.4786 39.8933 77.5853 39.8C77.7053 39.6933 77.8653 39.64 78.0653 39.64H86.8253C87.0253 39.64 87.1786 39.6933 87.2853 39.8C87.4053 39.8933 87.4653 40.04 87.4653 40.24C87.4653 40.4533 87.4053 40.6133 87.2853 40.72C87.1786 40.8133 87.0253 40.86 86.8253 40.86H78.0653ZM115.779 44.12C115.605 44.12 115.452 44.0667 115.319 43.96C115.185 43.8533 115.112 43.7133 115.099 43.54C115.099 43.3533 115.185 43.16 115.359 42.96L118.859 38.56V39.4L115.579 35.3C115.405 35.0867 115.319 34.8933 115.319 34.72C115.332 34.5467 115.405 34.4067 115.539 34.3C115.672 34.1933 115.825 34.14 115.999 34.14C116.199 34.14 116.365 34.18 116.499 34.26C116.645 34.3267 116.779 34.44 116.899 34.6L119.759 38.22H119.199L122.079 34.6C122.199 34.44 122.325 34.3267 122.459 34.26C122.592 34.18 122.759 34.14 122.959 34.14C123.145 34.14 123.299 34.1933 123.419 34.3C123.552 34.4067 123.619 34.5533 123.619 34.74C123.632 34.9133 123.552 35.1067 123.379 35.32L120.119 39.36V38.62L123.619 42.96C123.779 43.16 123.852 43.3533 123.839 43.54C123.839 43.7133 123.772 43.8533 123.639 43.96C123.505 44.0667 123.345 44.12 123.159 44.12C122.972 44.12 122.805 44.08 122.659 44C122.525 43.9333 122.392 43.82 122.259 43.66L119.179 39.78H119.759L116.679 43.66C116.559 43.8067 116.425 43.92 116.279 44C116.145 44.08 115.979 44.12 115.779 44.12ZM131.323 44.14C131.109 44.14 130.936 44.0933 130.803 44C130.683 43.8933 130.609 43.76 130.583 43.6C130.569 43.4267 130.609 43.2333 130.703 43.02L136.203 30.5C136.323 30.2333 136.463 30.0467 136.623 29.94C136.796 29.82 136.983 29.76 137.183 29.76C137.383 29.76 137.563 29.82 137.723 29.94C137.896 30.0467 138.036 30.2333 138.143 30.5L143.663 43.02C143.769 43.2333 143.809 43.4267 143.783 43.6C143.769 43.7733 143.703 43.9067 143.583 44C143.463 44.0933 143.296 44.14 143.083 44.14C142.843 44.14 142.649 44.08 142.503 43.96C142.356 43.8267 142.236 43.64 142.143 43.4L140.663 39.98L141.463 40.4H132.863L133.683 39.98L132.223 43.4C132.103 43.6533 131.976 43.84 131.843 43.96C131.709 44.08 131.536 44.14 131.323 44.14ZM137.163 31.82L133.943 39.4L133.463 39.02H140.863L140.423 39.4L137.203 31.82H137.163ZM146.793 44.14C146.526 44.14 146.32 44.0667 146.173 43.92C146.04 43.7733 145.973 43.5667 145.973 43.3V34.96C145.973 34.6933 146.04 34.4933 146.173 34.36C146.306 34.2133 146.5 34.14 146.753 34.14C147.006 34.14 147.2 34.2133 147.333 34.36C147.48 34.4933 147.553 34.6933 147.553 34.96V36.58H147.353C147.566 35.7933 147.973 35.1867 148.573 34.76C149.173 34.3333 149.913 34.1067 150.793 34.08C150.993 34.0667 151.153 34.1133 151.273 34.22C151.393 34.3133 151.46 34.48 151.473 34.72C151.486 34.9467 151.433 35.1267 151.313 35.26C151.193 35.3933 151.006 35.4733 150.753 35.5L150.433 35.54C149.526 35.62 148.826 35.9133 148.333 36.42C147.853 36.9133 147.613 37.5933 147.613 38.46V43.3C147.613 43.5667 147.54 43.7733 147.393 43.92C147.26 44.0667 147.06 44.14 146.793 44.14ZM157.404 44.18C156.377 44.18 155.491 43.98 154.744 43.58C154.011 43.1667 153.437 42.5867 153.024 41.84C152.624 41.0933 152.424 40.2 152.424 39.16C152.424 38.1467 152.624 37.2667 153.024 36.52C153.424 35.76 153.971 35.1667 154.664 34.74C155.371 34.3133 156.184 34.1 157.104 34.1C157.757 34.1 158.344 34.2133 158.864 34.44C159.384 34.6533 159.824 34.9667 160.184 35.38C160.557 35.7933 160.837 36.2933 161.024 36.88C161.224 37.4667 161.324 38.1267 161.324 38.86C161.324 39.0733 161.264 39.2333 161.144 39.34C161.024 39.4333 160.851 39.48 160.624 39.48H153.664V38.42H160.244L159.924 38.68C159.924 37.96 159.817 37.3533 159.604 36.86C159.391 36.3533 159.077 35.9667 158.664 35.7C158.264 35.4333 157.757 35.3 157.144 35.3C156.464 35.3 155.884 35.46 155.404 35.78C154.937 36.0867 154.584 36.52 154.344 37.08C154.104 37.6267 153.984 38.2667 153.984 39V39.12C153.984 40.3467 154.277 41.28 154.864 41.92C155.464 42.56 156.311 42.88 157.404 42.88C157.857 42.88 158.304 42.82 158.744 42.7C159.197 42.58 159.637 42.38 160.064 42.1C160.251 41.98 160.417 41.9267 160.564 41.94C160.724 41.94 160.851 41.9867 160.944 42.08C161.037 42.16 161.097 42.2667 161.124 42.4C161.164 42.52 161.151 42.6533 161.084 42.8C161.031 42.9467 160.917 43.0733 160.744 43.18C160.304 43.5 159.784 43.7467 159.184 43.92C158.584 44.0933 157.991 44.18 157.404 44.18ZM166.728 44.18C166.062 44.18 165.462 44.0533 164.928 43.8C164.408 43.5333 163.995 43.1733 163.688 42.72C163.382 42.2667 163.228 41.76 163.228 41.2C163.228 40.48 163.408 39.9133 163.768 39.5C164.142 39.0867 164.748 38.7933 165.588 38.62C166.442 38.4467 167.602 38.36 169.068 38.36H169.968V39.42H169.088C168.008 39.42 167.155 39.4733 166.528 39.58C165.915 39.6733 165.482 39.84 165.228 40.08C164.988 40.32 164.868 40.66 164.868 41.1C164.868 41.6467 165.055 42.0933 165.428 42.44C165.815 42.7867 166.335 42.96 166.988 42.96C167.522 42.96 167.988 42.8333 168.388 42.58C168.802 42.3267 169.122 41.98 169.348 41.54C169.588 41.1 169.708 40.5933 169.708 40.02V37.74C169.708 36.9133 169.542 36.32 169.208 35.96C168.875 35.5867 168.328 35.4 167.568 35.4C167.102 35.4 166.635 35.46 166.168 35.58C165.702 35.7 165.208 35.8933 164.688 36.16C164.502 36.2533 164.342 36.2867 164.208 36.26C164.075 36.22 163.968 36.1467 163.888 36.04C163.808 35.9333 163.762 35.8133 163.748 35.68C163.735 35.5333 163.762 35.3933 163.828 35.26C163.908 35.1267 164.028 35.02 164.188 34.94C164.775 34.6467 165.355 34.4333 165.928 34.3C166.502 34.1667 167.048 34.1 167.568 34.1C168.408 34.1 169.102 34.24 169.648 34.52C170.195 34.7867 170.602 35.2 170.868 35.76C171.135 36.3067 171.268 37.0133 171.268 37.88V43.3C171.268 43.5667 171.202 43.7733 171.068 43.92C170.948 44.0667 170.768 44.14 170.528 44.14C170.275 44.14 170.082 44.0667 169.948 43.92C169.815 43.7733 169.748 43.5667 169.748 43.3V41.74H169.928C169.822 42.2467 169.615 42.68 169.308 43.04C169.015 43.4 168.648 43.68 168.208 43.88C167.768 44.08 167.275 44.18 166.728 44.18ZM183.47 44.18C182.523 44.18 181.703 43.9733 181.01 43.56C180.317 43.1467 179.777 42.5667 179.39 41.82C179.017 41.06 178.83 40.1667 178.83 39.14C178.83 38.3667 178.937 37.6733 179.15 37.06C179.363 36.4333 179.677 35.9 180.09 35.46C180.503 35.02 180.99 34.6867 181.55 34.46C182.123 34.22 182.763 34.1 183.47 34.1C184.417 34.1 185.237 34.3067 185.93 34.72C186.623 35.1333 187.157 35.72 187.53 36.48C187.917 37.2267 188.11 38.1133 188.11 39.14C188.11 39.9133 188.003 40.6067 187.79 41.22C187.577 41.8333 187.263 42.3667 186.85 42.82C186.437 43.26 185.943 43.6 185.37 43.84C184.81 44.0667 184.177 44.18 183.47 44.18ZM183.47 42.88C184.07 42.88 184.597 42.7333 185.05 42.44C185.503 42.1467 185.85 41.72 186.09 41.16C186.343 40.6 186.47 39.9267 186.47 39.14C186.47 37.9267 186.197 37 185.65 36.36C185.117 35.72 184.39 35.4 183.47 35.4C182.857 35.4 182.323 35.5467 181.87 35.84C181.43 36.12 181.083 36.54 180.83 37.1C180.59 37.6467 180.47 38.3267 180.47 39.14C180.47 40.34 180.743 41.2667 181.29 41.92C181.837 42.56 182.563 42.88 183.47 42.88ZM191.766 44.14C191.512 44.14 191.312 44.0667 191.166 43.92C191.032 43.7733 190.966 43.5667 190.966 43.3V35.54H189.686C189.472 35.54 189.299 35.4867 189.166 35.38C189.046 35.26 188.986 35.1 188.986 34.9C188.986 34.7 189.046 34.5467 189.166 34.44C189.299 34.3333 189.472 34.28 189.686 34.28H191.406L190.966 34.7V33.94C190.966 32.6733 191.272 31.7067 191.886 31.04C192.512 30.3733 193.426 29.9867 194.626 29.88L195.206 29.82C195.392 29.8067 195.539 29.84 195.646 29.92C195.766 30 195.839 30.1 195.866 30.22C195.906 30.34 195.912 30.4667 195.886 30.6C195.859 30.72 195.799 30.8267 195.706 30.92C195.612 31.0133 195.499 31.0667 195.366 31.08L194.906 31.12C194.092 31.1867 193.499 31.4333 193.126 31.86C192.766 32.2867 192.586 32.9133 192.586 33.74V34.58L192.346 34.28H194.746C194.972 34.28 195.146 34.3333 195.266 34.44C195.386 34.5467 195.446 34.7 195.446 34.9C195.446 35.1 195.386 35.26 195.266 35.38C195.146 35.4867 194.972 35.54 194.746 35.54H192.586V43.3C192.586 43.86 192.312 44.14 191.766 44.14ZM206.382 44.18C205.409 44.18 204.569 43.9667 203.862 43.54C203.156 43.1133 202.609 42.52 202.222 41.76C201.849 40.9867 201.662 40.0933 201.662 39.08C201.662 38.3067 201.769 37.6133 201.982 37C202.196 36.3867 202.509 35.8667 202.922 35.44C203.336 35 203.829 34.6667 204.402 34.44C204.989 34.2133 205.649 34.1 206.382 34.1C206.862 34.1 207.362 34.1733 207.882 34.32C208.402 34.4667 208.876 34.72 209.302 35.08C209.436 35.1733 209.522 35.2867 209.562 35.42C209.602 35.5533 209.602 35.6867 209.562 35.82C209.522 35.94 209.456 36.0467 209.362 36.14C209.269 36.22 209.149 36.2667 209.002 36.28C208.869 36.2933 208.729 36.2467 208.582 36.14C208.236 35.8733 207.882 35.6867 207.522 35.58C207.162 35.4733 206.816 35.42 206.482 35.42C205.962 35.42 205.509 35.5067 205.122 35.68C204.736 35.84 204.409 36.0733 204.142 36.38C203.876 36.6867 203.669 37.0667 203.522 37.52C203.389 37.9733 203.322 38.5 203.322 39.1C203.322 40.26 203.596 41.18 204.142 41.86C204.689 42.5267 205.469 42.86 206.482 42.86C206.816 42.86 207.156 42.8067 207.502 42.7C207.862 42.5933 208.222 42.4067 208.582 42.14C208.729 42.0333 208.869 41.9867 209.002 42C209.136 42.0133 209.249 42.0667 209.342 42.16C209.436 42.24 209.496 42.3467 209.522 42.48C209.562 42.6133 209.562 42.7467 209.522 42.88C209.482 43 209.396 43.1067 209.262 43.2C208.836 43.5467 208.369 43.8 207.862 43.96C207.356 44.1067 206.862 44.18 206.382 44.18ZM212.32 44.1C212.053 44.1 211.853 44.0267 211.72 43.88C211.587 43.72 211.52 43.5 211.52 43.22V35.04C211.52 34.76 211.587 34.5467 211.72 34.4C211.853 34.2533 212.053 34.18 212.32 34.18C212.573 34.18 212.773 34.2533 212.92 34.4C213.067 34.5467 213.14 34.76 213.14 35.04V43.22C213.14 43.5 213.067 43.72 212.92 43.88C212.787 44.0267 212.587 44.1 212.32 44.1ZM212.32 31.94C211.987 31.94 211.727 31.8533 211.54 31.68C211.353 31.4933 211.26 31.2467 211.26 30.94C211.26 30.62 211.353 30.38 211.54 30.22C211.727 30.0467 211.987 29.96 212.32 29.96C212.667 29.96 212.927 30.0467 213.1 30.22C213.287 30.38 213.38 30.62 213.38 30.94C213.38 31.2467 213.287 31.4933 213.1 31.68C212.927 31.8533 212.667 31.94 212.32 31.94ZM216.988 44.14C216.722 44.14 216.515 44.0667 216.368 43.92C216.235 43.7733 216.168 43.5667 216.168 43.3V34.96C216.168 34.6933 216.235 34.4933 216.368 34.36C216.502 34.2133 216.695 34.14 216.948 34.14C217.202 34.14 217.395 34.2133 217.528 34.36C217.675 34.4933 217.748 34.6933 217.748 34.96V36.58H217.548C217.762 35.7933 218.168 35.1867 218.768 34.76C219.368 34.3333 220.108 34.1067 220.988 34.08C221.188 34.0667 221.348 34.1133 221.468 34.22C221.588 34.3133 221.655 34.48 221.668 34.72C221.682 34.9467 221.628 35.1267 221.508 35.26C221.388 35.3933 221.202 35.4733 220.948 35.5L220.628 35.54C219.722 35.62 219.022 35.9133 218.528 36.42C218.048 36.9133 217.808 37.5933 217.808 38.46V43.3C217.808 43.5667 217.735 43.7733 217.588 43.92C217.455 44.0667 217.255 44.14 216.988 44.14ZM227.339 44.18C226.366 44.18 225.526 43.9667 224.819 43.54C224.113 43.1133 223.566 42.52 223.179 41.76C222.806 40.9867 222.619 40.0933 222.619 39.08C222.619 38.3067 222.726 37.6133 222.939 37C223.153 36.3867 223.466 35.8667 223.879 35.44C224.293 35 224.786 34.6667 225.359 34.44C225.946 34.2133 226.606 34.1 227.339 34.1C227.819 34.1 228.319 34.1733 228.839 34.32C229.359 34.4667 229.833 34.72 230.259 35.08C230.393 35.1733 230.479 35.2867 230.519 35.42C230.559 35.5533 230.559 35.6867 230.519 35.82C230.479 35.94 230.413 36.0467 230.319 36.14C230.226 36.22 230.106 36.2667 229.959 36.28C229.826 36.2933 229.686 36.2467 229.539 36.14C229.193 35.8733 228.839 35.6867 228.479 35.58C228.119 35.4733 227.773 35.42 227.439 35.42C226.919 35.42 226.466 35.5067 226.079 35.68C225.693 35.84 225.366 36.0733 225.099 36.38C224.833 36.6867 224.626 37.0667 224.479 37.52C224.346 37.9733 224.279 38.5 224.279 39.1C224.279 40.26 224.553 41.18 225.099 41.86C225.646 42.5267 226.426 42.86 227.439 42.86C227.773 42.86 228.113 42.8067 228.459 42.7C228.819 42.5933 229.179 42.4067 229.539 42.14C229.686 42.0333 229.826 41.9867 229.959 42C230.093 42.0133 230.206 42.0667 230.299 42.16C230.393 42.24 230.453 42.3467 230.479 42.48C230.519 42.6133 230.519 42.7467 230.479 42.88C230.439 43 230.353 43.1067 230.219 43.2C229.793 43.5467 229.326 43.8 228.819 43.96C228.313 44.1067 227.819 44.18 227.339 44.18ZM235.437 44.18C234.477 44.18 233.744 43.8867 233.237 43.3C232.73 42.7133 232.477 41.8733 232.477 40.78V30.58C232.477 30.3133 232.544 30.1133 232.677 29.98C232.81 29.8333 233.01 29.76 233.277 29.76C233.53 29.76 233.73 29.8333 233.877 29.98C234.024 30.1133 234.097 30.3133 234.097 30.58V40.66C234.097 41.38 234.237 41.92 234.517 42.28C234.81 42.6267 235.237 42.8 235.797 42.8C235.917 42.8 236.024 42.7933 236.117 42.78C236.21 42.7667 236.304 42.76 236.397 42.76C236.544 42.7467 236.644 42.78 236.697 42.86C236.764 42.94 236.797 43.1 236.797 43.34C236.797 43.58 236.744 43.76 236.637 43.88C236.53 44 236.357 44.08 236.117 44.12C236.01 44.1333 235.897 44.1467 235.777 44.16C235.657 44.1733 235.544 44.18 235.437 44.18ZM242.677 44.18C241.651 44.18 240.764 43.98 240.017 43.58C239.284 43.1667 238.711 42.5867 238.297 41.84C237.897 41.0933 237.697 40.2 237.697 39.16C237.697 38.1467 237.897 37.2667 238.297 36.52C238.697 35.76 239.244 35.1667 239.937 34.74C240.644 34.3133 241.457 34.1 242.377 34.1C243.031 34.1 243.617 34.2133 244.137 34.44C244.657 34.6533 245.097 34.9667 245.457 35.38C245.831 35.7933 246.111 36.2933 246.297 36.88C246.497 37.4667 246.597 38.1267 246.597 38.86C246.597 39.0733 246.537 39.2333 246.417 39.34C246.297 39.4333 246.124 39.48 245.897 39.48H238.937V38.42H245.517L245.197 38.68C245.197 37.96 245.091 37.3533 244.877 36.86C244.664 36.3533 244.351 35.9667 243.937 35.7C243.537 35.4333 243.031 35.3 242.417 35.3C241.737 35.3 241.157 35.46 240.677 35.78C240.211 36.0867 239.857 36.52 239.617 37.08C239.377 37.6267 239.257 38.2667 239.257 39V39.12C239.257 40.3467 239.551 41.28 240.137 41.92C240.737 42.56 241.584 42.88 242.677 42.88C243.131 42.88 243.577 42.82 244.017 42.7C244.471 42.58 244.911 42.38 245.337 42.1C245.524 41.98 245.691 41.9267 245.837 41.94C245.997 41.94 246.124 41.9867 246.217 42.08C246.311 42.16 246.371 42.2667 246.397 42.4C246.437 42.52 246.424 42.6533 246.357 42.8C246.304 42.9467 246.191 43.0733 246.017 43.18C245.577 43.5 245.057 43.7467 244.457 43.92C243.857 44.0933 243.264 44.18 242.677 44.18Z" fill="#444444"/>
<path d="M102.104 37C101.864 37 101.677 36.94 101.544 36.82C101.411 36.6867 101.344 36.5067 101.344 36.28C101.344 36.0533 101.411 35.8867 101.544 35.78C101.677 35.66 101.864 35.6 102.104 35.6H104.704V24.26H105.564L102.664 26.18C102.491 26.2733 102.324 26.3133 102.164 26.3C102.017 26.2867 101.891 26.2333 101.784 26.14C101.691 26.0333 101.624 25.9133 101.584 25.78C101.544 25.6333 101.551 25.4867 101.604 25.34C101.657 25.18 101.771 25.0467 101.944 24.94L104.704 23.12C104.877 23.0133 105.044 22.9267 105.204 22.86C105.364 22.7933 105.524 22.76 105.684 22.76C105.871 22.76 106.024 22.82 106.144 22.94C106.277 23.0467 106.344 23.22 106.344 23.46V35.6H108.744C108.984 35.6 109.171 35.66 109.304 35.78C109.437 35.8867 109.504 36.0533 109.504 36.28C109.504 36.52 109.437 36.7 109.304 36.82C109.171 36.94 108.984 37 108.744 37H102.104Z" fill="#444444"/>
<path d="M102.584 56C102.291 56 102.071 55.9333 101.924 55.8C101.791 55.6533 101.724 55.46 101.724 55.22C101.724 55.0733 101.757 54.9333 101.824 54.8C101.904 54.6533 102.011 54.5067 102.144 54.36L106.624 49.56C107.304 48.8267 107.791 48.1533 108.084 47.54C108.391 46.9133 108.544 46.28 108.544 45.64C108.544 44.84 108.297 44.2333 107.804 43.82C107.324 43.3933 106.617 43.18 105.684 43.18C105.084 43.18 104.517 43.2733 103.984 43.46C103.451 43.6467 102.937 43.9333 102.444 44.32C102.271 44.4533 102.111 44.5133 101.964 44.5C101.831 44.4867 101.711 44.4333 101.604 44.34C101.497 44.2467 101.424 44.1267 101.384 43.98C101.344 43.8333 101.344 43.6867 101.384 43.54C101.437 43.3933 101.544 43.26 101.704 43.14C102.224 42.7133 102.851 42.3733 103.584 42.12C104.317 41.8533 105.064 41.72 105.824 41.72C106.771 41.72 107.571 41.8667 108.224 42.16C108.877 42.4533 109.371 42.8867 109.704 43.46C110.037 44.02 110.204 44.7067 110.204 45.52C110.204 46.08 110.111 46.6333 109.924 47.18C109.751 47.7133 109.477 48.26 109.104 48.82C108.744 49.38 108.271 49.96 107.684 50.56L103.424 55.06V54.6H110.164C110.417 54.6 110.604 54.66 110.724 54.78C110.857 54.8867 110.924 55.0533 110.924 55.28C110.924 55.52 110.857 55.7 110.724 55.82C110.604 55.94 110.417 56 110.164 56H102.584Z" fill="#444444"/>
<line x1="98" y1="39.5" x2="112" y2="39.5" stroke="#C882FA"/>
</svg>
