<svg width="469" height="51" viewBox="0 0 469 51" fill="none" xmlns="http://www.w3.org/2000/svg">
<path d="M2.384 19.192C1.888 19.192 1.504 19.056 1.232 18.784C0.976 18.496 0.848 18.104 0.848 17.608V3.472C0.848 2.96 0.976 2.568 1.232 2.296C1.504 2.024 1.888 1.888 2.384 1.888C2.88 1.888 3.256 2.024 3.512 2.296C3.784 2.568 3.92 2.96 3.92 3.472V9.136H12.632V3.472C12.632 2.96 12.76 2.568 13.016 2.296C13.288 2.024 13.672 1.888 14.168 1.888C14.664 1.888 15.04 2.024 15.296 2.296C15.568 2.568 15.704 2.96 15.704 3.472V17.608C15.704 18.104 15.568 18.496 15.296 18.784C15.04 19.056 14.664 19.192 14.168 19.192C13.672 19.192 13.288 19.056 13.016 18.784C12.76 18.496 12.632 18.104 12.632 17.608V11.704H3.92V17.608C3.92 18.104 3.792 18.496 3.536 18.784C3.28 19.056 2.896 19.192 2.384 19.192ZM24.9065 19.24C23.5785 19.24 22.4345 18.992 21.4745 18.496C20.5145 18 19.7705 17.296 19.2425 16.384C18.7305 15.472 18.4745 14.392 18.4745 13.144C18.4745 11.928 18.7225 10.864 19.2185 9.952C19.7305 9.04 20.4265 8.328 21.3065 7.816C22.2025 7.288 23.2185 7.024 24.3545 7.024C25.1865 7.024 25.9305 7.16 26.5865 7.432C27.2585 7.704 27.8265 8.096 28.2905 8.608C28.7705 9.12 29.1305 9.744 29.3705 10.48C29.6265 11.2 29.7545 12.016 29.7545 12.928C29.7545 13.216 29.6505 13.44 29.4425 13.6C29.2505 13.744 28.9705 13.816 28.6025 13.816H20.8985V12.088H27.6425L27.2585 12.448C27.2585 11.712 27.1465 11.096 26.9225 10.6C26.7145 10.104 26.4025 9.728 25.9865 9.472C25.5865 9.2 25.0825 9.064 24.4745 9.064C23.8025 9.064 23.2265 9.224 22.7465 9.544C22.2825 9.848 21.9225 10.288 21.6665 10.864C21.4265 11.424 21.3065 12.096 21.3065 12.88V13.048C21.3065 14.36 21.6105 15.344 22.2185 16C22.8425 16.64 23.7545 16.96 24.9545 16.96C25.3705 16.96 25.8345 16.912 26.3465 16.816C26.8745 16.704 27.3705 16.52 27.8345 16.264C28.1705 16.072 28.4665 15.992 28.7225 16.024C28.9785 16.04 29.1785 16.128 29.3225 16.288C29.4825 16.448 29.5785 16.648 29.6105 16.888C29.6425 17.112 29.5945 17.344 29.4665 17.584C29.3545 17.824 29.1545 18.032 28.8665 18.208C28.3065 18.56 27.6585 18.824 26.9225 19C26.2025 19.16 25.5305 19.24 24.9065 19.24ZM33.6183 19.192C33.1383 19.192 32.7703 19.064 32.5143 18.808C32.2583 18.536 32.1303 18.152 32.1303 17.656V8.584C32.1303 8.088 32.2583 7.712 32.5143 7.456C32.7703 7.2 33.1303 7.072 33.5943 7.072C34.0583 7.072 34.4183 7.2 34.6743 7.456C34.9303 7.712 35.0583 8.088 35.0583 8.584V10.216L34.7943 9.616C35.1463 8.768 35.6903 8.128 36.4263 7.696C37.1783 7.248 38.0263 7.024 38.9703 7.024C39.9143 7.024 40.6903 7.2 41.2983 7.552C41.9063 7.904 42.3623 8.44 42.6663 9.16C42.9703 9.864 43.1223 10.76 43.1223 11.848V17.656C43.1223 18.152 42.9943 18.536 42.7383 18.808C42.4823 19.064 42.1143 19.192 41.6343 19.192C41.1543 19.192 40.7783 19.064 40.5063 18.808C40.2503 18.536 40.1223 18.152 40.1223 17.656V11.992C40.1223 11.08 39.9463 10.416 39.5943 10C39.2583 9.584 38.7303 9.376 38.0103 9.376C37.1303 9.376 36.4263 9.656 35.8983 10.216C35.3863 10.76 35.1303 11.488 35.1303 12.4V17.656C35.1303 18.68 34.6263 19.192 33.6183 19.192ZM51.5934 19.24C50.3614 19.24 49.2894 18.992 48.3774 18.496C47.4654 17.984 46.7614 17.264 46.2654 16.336C45.7694 15.408 45.5214 14.32 45.5214 13.072C45.5214 12.128 45.6574 11.288 45.9294 10.552C46.2174 9.8 46.6254 9.168 47.1534 8.656C47.6814 8.128 48.3214 7.728 49.0734 7.456C49.8254 7.168 50.6654 7.024 51.5934 7.024C52.1214 7.024 52.6894 7.096 53.2974 7.24C53.9214 7.384 54.5054 7.624 55.0494 7.96C55.3054 8.12 55.4734 8.312 55.5534 8.536C55.6334 8.76 55.6494 8.992 55.6014 9.232C55.5534 9.456 55.4494 9.656 55.2894 9.832C55.1454 9.992 54.9614 10.096 54.7374 10.144C54.5134 10.176 54.2654 10.12 53.9934 9.976C53.6414 9.768 53.2814 9.616 52.9134 9.52C52.5454 9.408 52.1934 9.352 51.8574 9.352C51.3294 9.352 50.8654 9.44 50.4654 9.616C50.0654 9.776 49.7214 10.016 49.4334 10.336C49.1614 10.64 48.9534 11.024 48.8094 11.488C48.6654 11.952 48.5934 12.488 48.5934 13.096C48.5934 14.28 48.8734 15.216 49.4334 15.904C50.0094 16.576 50.8174 16.912 51.8574 16.912C52.1934 16.912 52.5374 16.864 52.8894 16.768C53.2574 16.672 53.6254 16.52 53.9934 16.312C54.2654 16.168 54.5054 16.12 54.7134 16.168C54.9374 16.216 55.1214 16.328 55.2654 16.504C55.4094 16.664 55.4974 16.864 55.5294 17.104C55.5614 17.328 55.5294 17.552 55.4334 17.776C55.3534 18 55.1934 18.184 54.9534 18.328C54.4254 18.648 53.8654 18.88 53.2734 19.024C52.6814 19.168 52.1214 19.24 51.5934 19.24ZM63.0393 19.24C61.7113 19.24 60.5673 18.992 59.6073 18.496C58.6473 18 57.9033 17.296 57.3753 16.384C56.8633 15.472 56.6073 14.392 56.6073 13.144C56.6073 11.928 56.8553 10.864 57.3513 9.952C57.8633 9.04 58.5593 8.328 59.4393 7.816C60.3353 7.288 61.3513 7.024 62.4873 7.024C63.3193 7.024 64.0633 7.16 64.7193 7.432C65.3913 7.704 65.9593 8.096 66.4233 8.608C66.9033 9.12 67.2633 9.744 67.5033 10.48C67.7593 11.2 67.8873 12.016 67.8873 12.928C67.8873 13.216 67.7833 13.44 67.5753 13.6C67.3833 13.744 67.1033 13.816 66.7353 13.816H59.0313V12.088H65.7753L65.3913 12.448C65.3913 11.712 65.2793 11.096 65.0553 10.6C64.8473 10.104 64.5353 9.728 64.1193 9.472C63.7193 9.2 63.2153 9.064 62.6073 9.064C61.9353 9.064 61.3593 9.224 60.8793 9.544C60.4153 9.848 60.0553 10.288 59.7993 10.864C59.5593 11.424 59.4393 12.096 59.4393 12.88V13.048C59.4393 14.36 59.7433 15.344 60.3513 16C60.9753 16.64 61.8873 16.96 63.0873 16.96C63.5033 16.96 63.9673 16.912 64.4793 16.816C65.0073 16.704 65.5033 16.52 65.9673 16.264C66.3033 16.072 66.5993 15.992 66.8553 16.024C67.1113 16.04 67.3113 16.128 67.4553 16.288C67.6153 16.448 67.7113 16.648 67.7433 16.888C67.7753 17.112 67.7273 17.344 67.5993 17.584C67.4873 17.824 67.2873 18.032 66.9993 18.208C66.4393 18.56 65.7913 18.824 65.0553 19C64.3353 19.16 63.6633 19.24 63.0393 19.24ZM72.0871 21.568C71.8791 21.824 71.6551 21.968 71.4151 22C71.1911 22.048 70.9911 22.008 70.8151 21.88C70.6391 21.752 70.5431 21.568 70.5271 21.328C70.5111 21.104 70.6151 20.856 70.8391 20.584C71.1591 20.184 71.3751 19.784 71.4871 19.384C71.5991 18.984 71.6551 18.624 71.6551 18.304L71.7751 19.12C71.2151 19.12 70.7591 18.96 70.4071 18.64C70.0711 18.304 69.9031 17.864 69.9031 17.32C69.9031 16.808 70.0631 16.392 70.3831 16.072C70.7031 15.736 71.1351 15.568 71.6791 15.568C72.2391 15.568 72.6791 15.76 72.9991 16.144C73.3191 16.512 73.4791 17.048 73.4791 17.752C73.4791 18.136 73.4391 18.536 73.3591 18.952C73.2951 19.352 73.1591 19.768 72.9511 20.2C72.7591 20.648 72.4711 21.104 72.0871 21.568ZM86.5959 19.24C85.7479 19.24 84.9879 19.08 84.3159 18.76C83.6599 18.424 83.1399 17.976 82.7559 17.416C82.3879 16.856 82.2039 16.224 82.2039 15.52C82.2039 14.656 82.4279 13.976 82.8759 13.48C83.3239 12.968 84.0519 12.6 85.0599 12.376C86.0679 12.152 87.4199 12.04 89.1159 12.04H90.3159V13.768H89.1399C88.1479 13.768 87.3559 13.816 86.7639 13.912C86.1719 14.008 85.7479 14.176 85.4919 14.416C85.2519 14.64 85.1319 14.96 85.1319 15.376C85.1319 15.904 85.3159 16.336 85.6839 16.672C86.0519 17.008 86.5639 17.176 87.2199 17.176C87.7479 17.176 88.2119 17.056 88.6119 16.816C89.0279 16.56 89.3559 16.216 89.5959 15.784C89.8359 15.352 89.9559 14.856 89.9559 14.296V11.536C89.9559 10.736 89.7799 10.16 89.4279 9.808C89.0759 9.456 88.4839 9.28 87.6519 9.28C87.1879 9.28 86.6839 9.336 86.1399 9.448C85.6119 9.56 85.0519 9.752 84.4599 10.024C84.1559 10.168 83.8839 10.208 83.6439 10.144C83.4199 10.08 83.2439 9.952 83.1159 9.76C82.9879 9.552 82.9239 9.328 82.9239 9.088C82.9239 8.848 82.9879 8.616 83.1159 8.392C83.2439 8.152 83.4599 7.976 83.7639 7.864C84.4999 7.56 85.2039 7.344 85.8759 7.216C86.5639 7.088 87.1879 7.024 87.7479 7.024C88.8999 7.024 89.8439 7.2 90.5799 7.552C91.3319 7.904 91.8919 8.44 92.2599 9.16C92.6279 9.864 92.8119 10.776 92.8119 11.896V17.656C92.8119 18.152 92.6919 18.536 92.4519 18.808C92.2119 19.064 91.8679 19.192 91.4199 19.192C90.9719 19.192 90.6199 19.064 90.3639 18.808C90.1239 18.536 90.0039 18.152 90.0039 17.656V16.504H90.1959C90.0839 17.064 89.8599 17.552 89.5239 17.968C89.2039 18.368 88.7959 18.68 88.2999 18.904C87.8039 19.128 87.2359 19.24 86.5959 19.24ZM97.3929 19.192C96.8969 19.192 96.5129 19.064 96.2409 18.808C95.9849 18.536 95.8569 18.152 95.8569 17.656V8.584C95.8569 8.088 95.9849 7.712 96.2409 7.456C96.4969 7.2 96.8569 7.072 97.3209 7.072C97.7849 7.072 98.1449 7.2 98.4009 7.456C98.6569 7.712 98.7849 8.088 98.7849 8.584V10.096H98.5449C98.7689 9.136 99.2089 8.408 99.8649 7.912C100.521 7.416 101.393 7.12 102.481 7.024C102.817 6.992 103.081 7.08 103.273 7.288C103.481 7.48 103.601 7.784 103.633 8.2C103.665 8.6 103.569 8.928 103.345 9.184C103.137 9.424 102.817 9.568 102.385 9.616L101.857 9.664C100.881 9.76 100.145 10.064 99.6489 10.576C99.1529 11.072 98.9049 11.776 98.9049 12.688V17.656C98.9049 18.152 98.7769 18.536 98.5209 18.808C98.2649 19.064 97.8889 19.192 97.3929 19.192ZM110.852 19.24C109.524 19.24 108.38 18.992 107.42 18.496C106.46 18 105.716 17.296 105.188 16.384C104.676 15.472 104.42 14.392 104.42 13.144C104.42 11.928 104.668 10.864 105.164 9.952C105.676 9.04 106.372 8.328 107.252 7.816C108.148 7.288 109.164 7.024 110.3 7.024C111.132 7.024 111.876 7.16 112.532 7.432C113.204 7.704 113.772 8.096 114.236 8.608C114.716 9.12 115.076 9.744 115.316 10.48C115.572 11.2 115.7 12.016 115.7 12.928C115.7 13.216 115.596 13.44 115.388 13.6C115.196 13.744 114.916 13.816 114.548 13.816H106.844V12.088H113.588L113.204 12.448C113.204 11.712 113.092 11.096 112.868 10.6C112.66 10.104 112.348 9.728 111.932 9.472C111.532 9.2 111.028 9.064 110.42 9.064C109.748 9.064 109.172 9.224 108.692 9.544C108.228 9.848 107.868 10.288 107.612 10.864C107.372 11.424 107.252 12.096 107.252 12.88V13.048C107.252 14.36 107.556 15.344 108.164 16C108.788 16.64 109.7 16.96 110.9 16.96C111.316 16.96 111.78 16.912 112.292 16.816C112.82 16.704 113.316 16.52 113.78 16.264C114.116 16.072 114.412 15.992 114.668 16.024C114.924 16.04 115.124 16.128 115.268 16.288C115.428 16.448 115.524 16.648 115.556 16.888C115.588 17.112 115.54 17.344 115.412 17.584C115.3 17.824 115.1 18.032 114.812 18.208C114.252 18.56 113.604 18.824 112.868 19C112.148 19.16 111.476 19.24 110.852 19.24ZM121.94 19.24C121.092 19.24 120.332 19.08 119.66 18.76C119.004 18.424 118.484 17.976 118.1 17.416C117.732 16.856 117.548 16.224 117.548 15.52C117.548 14.656 117.772 13.976 118.22 13.48C118.668 12.968 119.396 12.6 120.404 12.376C121.412 12.152 122.764 12.04 124.46 12.04H125.66V13.768H124.484C123.492 13.768 122.7 13.816 122.108 13.912C121.516 14.008 121.092 14.176 120.836 14.416C120.596 14.64 120.476 14.96 120.476 15.376C120.476 15.904 120.66 16.336 121.028 16.672C121.396 17.008 121.908 17.176 122.564 17.176C123.092 17.176 123.556 17.056 123.956 16.816C124.372 16.56 124.7 16.216 124.94 15.784C125.18 15.352 125.3 14.856 125.3 14.296V11.536C125.3 10.736 125.124 10.16 124.772 9.808C124.42 9.456 123.828 9.28 122.996 9.28C122.532 9.28 122.028 9.336 121.484 9.448C120.956 9.56 120.396 9.752 119.804 10.024C119.5 10.168 119.228 10.208 118.988 10.144C118.764 10.08 118.588 9.952 118.46 9.76C118.332 9.552 118.268 9.328 118.268 9.088C118.268 8.848 118.332 8.616 118.46 8.392C118.588 8.152 118.804 7.976 119.108 7.864C119.844 7.56 120.548 7.344 121.22 7.216C121.908 7.088 122.532 7.024 123.092 7.024C124.244 7.024 125.188 7.2 125.924 7.552C126.676 7.904 127.236 8.44 127.604 9.16C127.972 9.864 128.156 10.776 128.156 11.896V17.656C128.156 18.152 128.036 18.536 127.796 18.808C127.556 19.064 127.212 19.192 126.764 19.192C126.316 19.192 125.964 19.064 125.708 18.808C125.468 18.536 125.348 18.152 125.348 17.656V16.504H125.54C125.428 17.064 125.204 17.552 124.868 17.968C124.548 18.368 124.14 18.68 123.644 18.904C123.148 19.128 122.58 19.24 121.94 19.24ZM143.068 19.24C141.852 19.24 140.796 18.992 139.9 18.496C139.004 18 138.308 17.296 137.812 16.384C137.316 15.456 137.068 14.368 137.068 13.12C137.068 12.176 137.204 11.336 137.476 10.6C137.764 9.848 138.172 9.208 138.7 8.68C139.228 8.136 139.86 7.728 140.596 7.456C141.332 7.168 142.156 7.024 143.068 7.024C144.284 7.024 145.34 7.272 146.236 7.768C147.132 8.264 147.828 8.968 148.324 9.88C148.82 10.792 149.068 11.872 149.068 13.12C149.068 14.064 148.924 14.912 148.636 15.664C148.364 16.416 147.964 17.064 147.436 17.608C146.908 18.136 146.276 18.544 145.54 18.832C144.804 19.104 143.98 19.24 143.068 19.24ZM143.068 16.96C143.66 16.96 144.18 16.816 144.628 16.528C145.076 16.24 145.42 15.816 145.66 15.256C145.916 14.68 146.044 13.968 146.044 13.12C146.044 11.84 145.772 10.888 145.228 10.264C144.684 9.624 143.964 9.304 143.068 9.304C142.476 9.304 141.956 9.448 141.508 9.736C141.06 10.008 140.708 10.432 140.452 11.008C140.212 11.568 140.092 12.272 140.092 13.12C140.092 14.384 140.364 15.344 140.908 16C141.452 16.64 142.172 16.96 143.068 16.96ZM153.731 19.192C153.251 19.192 152.875 19.064 152.603 18.808C152.347 18.536 152.219 18.152 152.219 17.656V9.52H151.115C150.731 9.52 150.435 9.424 150.227 9.232C150.019 9.024 149.915 8.744 149.915 8.392C149.915 8.024 150.019 7.744 150.227 7.552C150.435 7.36 150.731 7.264 151.115 7.264H153.083L152.219 8.056V7.24C152.219 5.592 152.635 4.36 153.467 3.544C154.299 2.712 155.499 2.224 157.067 2.08L157.883 2.008C158.203 1.976 158.459 2.032 158.651 2.176C158.843 2.304 158.971 2.48 159.035 2.704C159.099 2.912 159.107 3.128 159.059 3.352C159.011 3.576 158.907 3.776 158.747 3.952C158.603 4.112 158.411 4.2 158.171 4.216L157.835 4.24C156.923 4.304 156.259 4.536 155.843 4.936C155.427 5.336 155.219 5.944 155.219 6.76V7.648L154.835 7.264H157.259C157.643 7.264 157.939 7.36 158.147 7.552C158.355 7.744 158.459 8.024 158.459 8.392C158.459 8.744 158.355 9.024 158.147 9.232C157.939 9.424 157.643 9.52 157.259 9.52H155.219V17.656C155.219 18.68 154.723 19.192 153.731 19.192ZM172.061 19.24C171.021 19.24 170.149 19.064 169.445 18.712C168.757 18.36 168.245 17.848 167.909 17.176C167.573 16.488 167.405 15.64 167.405 14.632V9.52H166.157C165.773 9.52 165.477 9.424 165.269 9.232C165.061 9.024 164.957 8.744 164.957 8.392C164.957 8.024 165.061 7.744 165.269 7.552C165.477 7.36 165.773 7.264 166.157 7.264H167.405V5.08C167.405 4.584 167.533 4.208 167.789 3.952C168.061 3.696 168.437 3.568 168.917 3.568C169.397 3.568 169.765 3.696 170.021 3.952C170.277 4.208 170.405 4.584 170.405 5.08V7.264H172.949C173.333 7.264 173.629 7.36 173.837 7.552C174.045 7.744 174.149 8.024 174.149 8.392C174.149 8.744 174.045 9.024 173.837 9.232C173.629 9.424 173.333 9.52 172.949 9.52H170.405V14.464C170.405 15.232 170.573 15.808 170.909 16.192C171.245 16.576 171.789 16.768 172.541 16.768C172.813 16.768 173.053 16.744 173.261 16.696C173.469 16.648 173.653 16.616 173.813 16.6C174.005 16.584 174.165 16.648 174.293 16.792C174.421 16.92 174.485 17.192 174.485 17.608C174.485 17.928 174.429 18.216 174.317 18.472C174.221 18.712 174.037 18.88 173.765 18.976C173.557 19.04 173.285 19.096 172.949 19.144C172.613 19.208 172.317 19.24 172.061 19.24ZM177.689 19.192C177.209 19.192 176.841 19.064 176.585 18.808C176.329 18.536 176.201 18.152 176.201 17.656V3.4C176.201 2.904 176.329 2.528 176.585 2.272C176.841 2.016 177.209 1.888 177.689 1.888C178.169 1.888 178.537 2.016 178.793 2.272C179.065 2.528 179.201 2.904 179.201 3.4V9.616H178.865C179.217 8.768 179.761 8.128 180.497 7.696C181.249 7.248 182.097 7.024 183.041 7.024C183.985 7.024 184.761 7.2 185.369 7.552C185.977 7.904 186.433 8.44 186.737 9.16C187.041 9.864 187.193 10.76 187.193 11.848V17.656C187.193 18.152 187.065 18.536 186.809 18.808C186.553 19.064 186.185 19.192 185.705 19.192C185.225 19.192 184.849 19.064 184.577 18.808C184.321 18.536 184.193 18.152 184.193 17.656V11.992C184.193 11.08 184.017 10.416 183.665 10C183.329 9.584 182.801 9.376 182.081 9.376C181.201 9.376 180.497 9.656 179.969 10.216C179.457 10.76 179.201 11.488 179.201 12.4V17.656C179.201 18.68 178.697 19.192 177.689 19.192ZM196.024 19.24C194.696 19.24 193.552 18.992 192.592 18.496C191.632 18 190.888 17.296 190.36 16.384C189.848 15.472 189.592 14.392 189.592 13.144C189.592 11.928 189.84 10.864 190.336 9.952C190.848 9.04 191.544 8.328 192.424 7.816C193.32 7.288 194.336 7.024 195.472 7.024C196.304 7.024 197.048 7.16 197.704 7.432C198.376 7.704 198.944 8.096 199.408 8.608C199.888 9.12 200.248 9.744 200.488 10.48C200.744 11.2 200.872 12.016 200.872 12.928C200.872 13.216 200.768 13.44 200.56 13.6C200.368 13.744 200.088 13.816 199.72 13.816H192.016V12.088H198.76L198.376 12.448C198.376 11.712 198.264 11.096 198.04 10.6C197.832 10.104 197.52 9.728 197.104 9.472C196.704 9.2 196.2 9.064 195.592 9.064C194.92 9.064 194.344 9.224 193.864 9.544C193.4 9.848 193.04 10.288 192.784 10.864C192.544 11.424 192.424 12.096 192.424 12.88V13.048C192.424 14.36 192.728 15.344 193.336 16C193.96 16.64 194.872 16.96 196.072 16.96C196.488 16.96 196.952 16.912 197.464 16.816C197.992 16.704 198.488 16.52 198.952 16.264C199.288 16.072 199.584 15.992 199.84 16.024C200.096 16.04 200.296 16.128 200.44 16.288C200.6 16.448 200.696 16.648 200.728 16.888C200.76 17.112 200.712 17.344 200.584 17.584C200.472 17.824 200.272 18.032 199.984 18.208C199.424 18.56 198.776 18.824 198.04 19C197.32 19.16 196.648 19.24 196.024 19.24ZM214.059 19.24C213.371 19.24 212.643 19.168 211.875 19.024C211.107 18.88 210.419 18.632 209.811 18.28C209.555 18.12 209.371 17.936 209.259 17.728C209.163 17.504 209.123 17.288 209.139 17.08C209.171 16.856 209.251 16.664 209.379 16.504C209.523 16.344 209.699 16.24 209.907 16.192C210.131 16.144 210.371 16.184 210.627 16.312C211.267 16.616 211.867 16.832 212.427 16.96C212.987 17.072 213.539 17.128 214.083 17.128C214.851 17.128 215.419 17 215.787 16.744C216.171 16.472 216.363 16.12 216.363 15.688C216.363 15.32 216.235 15.04 215.979 14.848C215.739 14.64 215.371 14.488 214.875 14.392L212.475 13.936C211.483 13.744 210.723 13.384 210.195 12.856C209.683 12.312 209.427 11.616 209.427 10.768C209.427 10 209.635 9.336 210.051 8.776C210.483 8.216 211.075 7.784 211.827 7.48C212.579 7.176 213.443 7.024 214.419 7.024C215.123 7.024 215.779 7.104 216.387 7.264C217.011 7.408 217.611 7.64 218.187 7.96C218.427 8.088 218.587 8.256 218.667 8.464C218.763 8.672 218.787 8.888 218.739 9.112C218.691 9.32 218.595 9.512 218.451 9.688C218.307 9.848 218.123 9.952 217.899 10C217.691 10.032 217.451 9.984 217.179 9.856C216.683 9.6 216.203 9.416 215.739 9.304C215.291 9.192 214.859 9.136 214.443 9.136C213.659 9.136 213.075 9.272 212.691 9.544C212.323 9.816 212.139 10.176 212.139 10.624C212.139 10.96 212.251 11.24 212.475 11.464C212.699 11.688 213.043 11.84 213.507 11.92L215.907 12.376C216.947 12.568 217.731 12.92 218.259 13.432C218.803 13.944 219.075 14.632 219.075 15.496C219.075 16.664 218.619 17.584 217.707 18.256C216.795 18.912 215.579 19.24 214.059 19.24ZM227.266 19.24C225.938 19.24 224.794 18.992 223.834 18.496C222.874 18 222.13 17.296 221.602 16.384C221.09 15.472 220.834 14.392 220.834 13.144C220.834 11.928 221.082 10.864 221.578 9.952C222.09 9.04 222.786 8.328 223.666 7.816C224.562 7.288 225.578 7.024 226.714 7.024C227.546 7.024 228.29 7.16 228.946 7.432C229.618 7.704 230.186 8.096 230.65 8.608C231.13 9.12 231.49 9.744 231.73 10.48C231.986 11.2 232.114 12.016 232.114 12.928C232.114 13.216 232.01 13.44 231.802 13.6C231.61 13.744 231.33 13.816 230.962 13.816H223.258V12.088H230.002L229.618 12.448C229.618 11.712 229.506 11.096 229.282 10.6C229.074 10.104 228.762 9.728 228.346 9.472C227.946 9.2 227.442 9.064 226.834 9.064C226.162 9.064 225.586 9.224 225.106 9.544C224.642 9.848 224.282 10.288 224.026 10.864C223.786 11.424 223.666 12.096 223.666 12.88V13.048C223.666 14.36 223.97 15.344 224.578 16C225.202 16.64 226.114 16.96 227.314 16.96C227.73 16.96 228.194 16.912 228.706 16.816C229.234 16.704 229.73 16.52 230.194 16.264C230.53 16.072 230.826 15.992 231.082 16.024C231.338 16.04 231.538 16.128 231.682 16.288C231.842 16.448 231.938 16.648 231.97 16.888C232.002 17.112 231.954 17.344 231.826 17.584C231.714 17.824 231.514 18.032 231.226 18.208C230.666 18.56 230.018 18.824 229.282 19C228.562 19.16 227.89 19.24 227.266 19.24ZM239.914 19.24C238.682 19.24 237.61 18.992 236.698 18.496C235.786 17.984 235.082 17.264 234.586 16.336C234.09 15.408 233.842 14.32 233.842 13.072C233.842 12.128 233.978 11.288 234.25 10.552C234.538 9.8 234.946 9.168 235.474 8.656C236.002 8.128 236.642 7.728 237.394 7.456C238.146 7.168 238.986 7.024 239.914 7.024C240.442 7.024 241.01 7.096 241.618 7.24C242.242 7.384 242.826 7.624 243.37 7.96C243.626 8.12 243.794 8.312 243.874 8.536C243.954 8.76 243.97 8.992 243.922 9.232C243.874 9.456 243.77 9.656 243.61 9.832C243.466 9.992 243.282 10.096 243.058 10.144C242.834 10.176 242.586 10.12 242.314 9.976C241.962 9.768 241.602 9.616 241.234 9.52C240.866 9.408 240.514 9.352 240.178 9.352C239.65 9.352 239.186 9.44 238.786 9.616C238.386 9.776 238.042 10.016 237.754 10.336C237.482 10.64 237.274 11.024 237.13 11.488C236.986 11.952 236.914 12.488 236.914 13.096C236.914 14.28 237.194 15.216 237.754 15.904C238.33 16.576 239.138 16.912 240.178 16.912C240.514 16.912 240.858 16.864 241.21 16.768C241.578 16.672 241.946 16.52 242.314 16.312C242.586 16.168 242.826 16.12 243.034 16.168C243.258 16.216 243.442 16.328 243.586 16.504C243.73 16.664 243.818 16.864 243.85 17.104C243.882 17.328 243.85 17.552 243.754 17.776C243.674 18 243.514 18.184 243.274 18.328C242.746 18.648 242.186 18.88 241.594 19.024C241.002 19.168 240.442 19.24 239.914 19.24ZM251.233 19.24C250.193 19.24 249.321 19.064 248.617 18.712C247.929 18.36 247.417 17.848 247.081 17.176C246.745 16.488 246.577 15.64 246.577 14.632V9.52H245.329C244.945 9.52 244.649 9.424 244.441 9.232C244.233 9.024 244.129 8.744 244.129 8.392C244.129 8.024 244.233 7.744 244.441 7.552C244.649 7.36 244.945 7.264 245.329 7.264H246.577V5.08C246.577 4.584 246.705 4.208 246.961 3.952C247.233 3.696 247.609 3.568 248.089 3.568C248.569 3.568 248.937 3.696 249.193 3.952C249.449 4.208 249.577 4.584 249.577 5.08V7.264H252.121C252.505 7.264 252.801 7.36 253.009 7.552C253.217 7.744 253.321 8.024 253.321 8.392C253.321 8.744 253.217 9.024 253.009 9.232C252.801 9.424 252.505 9.52 252.121 9.52H249.577V14.464C249.577 15.232 249.745 15.808 250.081 16.192C250.417 16.576 250.961 16.768 251.713 16.768C251.985 16.768 252.225 16.744 252.433 16.696C252.641 16.648 252.825 16.616 252.985 16.6C253.177 16.584 253.337 16.648 253.465 16.792C253.593 16.92 253.657 17.192 253.657 17.608C253.657 17.928 253.601 18.216 253.489 18.472C253.393 18.712 253.209 18.88 252.937 18.976C252.729 19.04 252.457 19.096 252.121 19.144C251.785 19.208 251.489 19.24 251.233 19.24ZM260.303 19.24C259.087 19.24 258.031 18.992 257.135 18.496C256.239 18 255.543 17.296 255.047 16.384C254.551 15.456 254.303 14.368 254.303 13.12C254.303 12.176 254.439 11.336 254.711 10.6C254.999 9.848 255.407 9.208 255.935 8.68C256.463 8.136 257.095 7.728 257.831 7.456C258.567 7.168 259.391 7.024 260.303 7.024C261.519 7.024 262.575 7.272 263.471 7.768C264.367 8.264 265.063 8.968 265.559 9.88C266.055 10.792 266.303 11.872 266.303 13.12C266.303 14.064 266.159 14.912 265.871 15.664C265.599 16.416 265.199 17.064 264.671 17.608C264.143 18.136 263.511 18.544 262.775 18.832C262.039 19.104 261.215 19.24 260.303 19.24ZM260.303 16.96C260.895 16.96 261.415 16.816 261.863 16.528C262.311 16.24 262.655 15.816 262.895 15.256C263.151 14.68 263.279 13.968 263.279 13.12C263.279 11.84 263.007 10.888 262.463 10.264C261.919 9.624 261.199 9.304 260.303 9.304C259.711 9.304 259.191 9.448 258.743 9.736C258.295 10.008 257.943 10.432 257.687 11.008C257.447 11.568 257.327 12.272 257.327 13.12C257.327 14.384 257.599 15.344 258.143 16C258.687 16.64 259.407 16.96 260.303 16.96ZM270.315 19.192C269.819 19.192 269.435 19.064 269.163 18.808C268.907 18.536 268.779 18.152 268.779 17.656V8.584C268.779 8.088 268.907 7.712 269.163 7.456C269.419 7.2 269.779 7.072 270.243 7.072C270.707 7.072 271.067 7.2 271.323 7.456C271.579 7.712 271.707 8.088 271.707 8.584V10.096H271.467C271.691 9.136 272.131 8.408 272.787 7.912C273.443 7.416 274.315 7.12 275.403 7.024C275.739 6.992 276.003 7.08 276.195 7.288C276.403 7.48 276.523 7.784 276.555 8.2C276.587 8.6 276.491 8.928 276.267 9.184C276.059 9.424 275.739 9.568 275.307 9.616L274.779 9.664C273.803 9.76 273.067 10.064 272.571 10.576C272.075 11.072 271.827 11.776 271.827 12.688V17.656C271.827 18.152 271.699 18.536 271.443 18.808C271.187 19.064 270.811 19.192 270.315 19.192ZM288.341 22.912C287.349 21.344 286.629 19.696 286.181 17.968C285.749 16.224 285.533 14.464 285.533 12.688C285.533 11.504 285.629 10.328 285.821 9.16C286.013 7.992 286.317 6.848 286.733 5.728C287.149 4.592 287.685 3.504 288.341 2.464C288.517 2.176 288.749 2 289.037 1.936C289.341 1.856 289.621 1.872 289.877 1.984C290.149 2.096 290.349 2.304 290.477 2.608C290.605 2.896 290.589 3.264 290.429 3.712C290.045 4.736 289.725 5.744 289.469 6.736C289.229 7.712 289.045 8.688 288.917 9.664C288.805 10.64 288.749 11.648 288.749 12.688C288.749 13.728 288.813 14.736 288.941 15.712C289.069 16.688 289.261 17.664 289.517 18.64C289.773 19.616 290.077 20.624 290.429 21.664C290.589 22.112 290.605 22.48 290.477 22.768C290.349 23.072 290.149 23.28 289.877 23.392C289.621 23.504 289.341 23.52 289.037 23.44C288.749 23.376 288.517 23.2 288.341 22.912ZM293.75 19.192C293.366 19.192 293.054 19.104 292.814 18.928C292.59 18.752 292.454 18.52 292.406 18.232C292.358 17.928 292.414 17.592 292.574 17.224L298.91 3.184C299.118 2.72 299.366 2.392 299.654 2.2C299.958 1.992 300.302 1.888 300.686 1.888C301.054 1.888 301.382 1.992 301.67 2.2C301.974 2.392 302.23 2.72 302.438 3.184L308.798 17.224C308.974 17.592 309.038 17.928 308.99 18.232C308.942 18.536 308.806 18.776 308.582 18.952C308.358 19.112 308.062 19.192 307.694 19.192C307.246 19.192 306.894 19.088 306.638 18.88C306.398 18.656 306.182 18.32 305.99 17.872L304.43 14.248L305.726 15.088H295.598L296.894 14.248L295.358 17.872C295.15 18.336 294.934 18.672 294.71 18.88C294.486 19.088 294.166 19.192 293.75 19.192ZM300.638 5.416L297.278 13.408L296.654 12.64H304.67L304.07 13.408L300.686 5.416H300.638ZM312.978 22.912C312.802 23.2 312.562 23.376 312.258 23.44C311.97 23.52 311.69 23.496 311.418 23.368C311.146 23.256 310.946 23.056 310.818 22.768C310.706 22.48 310.73 22.112 310.89 21.664C311.29 20.624 311.61 19.616 311.85 18.64C312.09 17.664 312.266 16.688 312.378 15.712C312.506 14.736 312.57 13.728 312.57 12.688C312.57 11.648 312.506 10.64 312.378 9.664C312.25 8.688 312.058 7.712 311.802 6.736C311.562 5.76 311.258 4.752 310.89 3.712C310.73 3.264 310.714 2.896 310.842 2.608C310.97 2.304 311.17 2.096 311.442 1.984C311.714 1.872 311.994 1.856 312.282 1.936C312.57 2 312.802 2.176 312.978 2.464C313.954 4.016 314.666 5.664 315.114 7.408C315.562 9.152 315.786 10.912 315.786 12.688C315.786 13.872 315.682 15.048 315.474 16.216C315.282 17.384 314.978 18.528 314.562 19.648C314.162 20.784 313.634 21.872 312.978 22.912ZM333.459 10.768C333.123 10.768 332.859 10.68 332.667 10.504C332.475 10.312 332.379 10.048 332.379 9.712C332.379 9.376 332.475 9.12 332.667 8.944C332.859 8.752 333.123 8.656 333.459 8.656H343.395C343.747 8.656 344.011 8.752 344.187 8.944C344.379 9.12 344.475 9.376 344.475 9.712C344.475 10.048 344.379 10.312 344.187 10.504C344.011 10.68 343.747 10.768 343.395 10.768H333.459ZM333.459 15.544C333.123 15.544 332.859 15.456 332.667 15.28C332.475 15.088 332.379 14.824 332.379 14.488C332.379 14.152 332.475 13.896 332.667 13.72C332.859 13.544 333.123 13.456 333.459 13.456H343.395C343.747 13.456 344.011 13.544 344.187 13.72C344.379 13.896 344.475 14.152 344.475 14.488C344.475 14.84 344.379 15.104 344.187 15.28C344.011 15.456 343.747 15.544 343.395 15.544H333.459ZM378.976 19.24C377.584 19.24 376.424 18.872 375.496 18.136C374.584 17.384 373.896 16.312 373.432 14.92C372.984 13.528 372.76 11.864 372.76 9.928C372.76 7.976 372.968 6.312 373.384 4.936C373.8 3.544 374.464 2.48 375.376 1.744C376.288 1.008 377.488 0.639999 378.976 0.639999C380.368 0.639999 381.52 1.008 382.432 1.744C383.36 2.464 384.056 3.52 384.52 4.912C384.984 6.288 385.216 7.96 385.216 9.928C385.216 11.864 385.008 13.528 384.592 14.92C384.176 16.312 383.512 17.384 382.6 18.136C381.688 18.872 380.48 19.24 378.976 19.24ZM378.976 16.6C379.568 16.6 380.056 16.424 380.44 16.072C380.824 15.72 381.112 15.152 381.304 14.368C381.496 13.584 381.6 12.544 381.616 11.248H376.336C376.352 12.512 376.448 13.544 376.624 14.344C376.816 15.128 377.104 15.704 377.488 16.072C377.872 16.424 378.368 16.6 378.976 16.6ZM376.36 8.56H381.616C381.584 7.296 381.464 6.28 381.256 5.512C381.064 4.728 380.784 4.16 380.416 3.808C380.048 3.456 379.576 3.28 379 3.28C378.408 3.28 377.92 3.456 377.536 3.808C377.168 4.16 376.888 4.728 376.696 5.512C376.52 6.28 376.408 7.296 376.36 8.56ZM390.538 11.1584C389.78 11.1584 389.117 11.0096 388.551 10.712C387.994 10.4144 387.562 9.9872 387.255 9.4304C386.948 8.8736 386.794 8.216 386.794 7.4576C386.794 6.8912 386.881 6.3824 387.053 5.9312C387.226 5.48 387.476 5.096 387.802 4.7792C388.138 4.4528 388.537 4.208 388.997 4.0448C389.458 3.872 389.972 3.7856 390.538 3.7856C391.297 3.7856 391.954 3.9344 392.511 4.232C393.077 4.5296 393.514 4.952 393.821 5.4992C394.138 6.0464 394.297 6.6992 394.297 7.4576C394.297 8.0336 394.205 8.5472 394.023 8.9984C393.85 9.4496 393.601 9.8384 393.274 10.1648C392.948 10.4912 392.549 10.7408 392.079 10.9136C391.618 11.0768 391.105 11.1584 390.538 11.1584ZM390.538 9.5312C390.855 9.5312 391.129 9.4544 391.359 9.3008C391.589 9.1472 391.772 8.9216 391.906 8.624C392.041 8.3168 392.108 7.928 392.108 7.4576C392.108 6.7568 391.964 6.2432 391.676 5.9168C391.388 5.5808 391.009 5.4128 390.538 5.4128C390.231 5.4128 389.957 5.4848 389.717 5.6288C389.487 5.7728 389.305 5.9984 389.17 6.3056C389.045 6.6032 388.983 6.9872 388.983 7.4576C388.983 8.1584 389.127 8.6816 389.415 9.0272C389.703 9.3632 390.077 9.5312 390.538 9.5312Z" fill="#444444"/>
<path d="M364.864 50.24C364 50.24 363.104 50.128 362.176 49.904C361.248 49.68 360.44 49.344 359.752 48.896C359.432 48.688 359.216 48.448 359.104 48.176C358.992 47.904 358.96 47.648 359.008 47.408C359.072 47.152 359.192 46.936 359.368 46.76C359.56 46.584 359.792 46.48 360.064 46.448C360.352 46.416 360.664 46.488 361 46.664C361.656 47.016 362.288 47.272 362.896 47.432C363.504 47.576 364.128 47.648 364.768 47.648C365.472 47.648 366.064 47.552 366.544 47.36C367.024 47.168 367.384 46.88 367.624 46.496C367.88 46.112 368.008 45.648 368.008 45.104C368.008 44.304 367.736 43.712 367.192 43.328C366.664 42.928 365.888 42.728 364.864 42.728H363.328C362.88 42.728 362.536 42.616 362.296 42.392C362.072 42.168 361.96 41.856 361.96 41.456C361.96 41.056 362.072 40.744 362.296 40.52C362.536 40.296 362.88 40.184 363.328 40.184H364.576C365.184 40.184 365.704 40.088 366.136 39.896C366.568 39.688 366.904 39.4 367.144 39.032C367.384 38.664 367.504 38.216 367.504 37.688C367.504 36.952 367.256 36.392 366.76 36.008C366.28 35.624 365.576 35.432 364.648 35.432C364.056 35.432 363.496 35.504 362.968 35.648C362.456 35.776 361.888 36.024 361.264 36.392C360.976 36.568 360.696 36.64 360.424 36.608C360.168 36.576 359.952 36.472 359.776 36.296C359.6 36.12 359.48 35.912 359.416 35.672C359.352 35.416 359.368 35.16 359.464 34.904C359.56 34.632 359.76 34.4 360.064 34.208C360.752 33.76 361.512 33.424 362.344 33.2C363.176 32.96 364.032 32.84 364.912 32.84C366.08 32.84 367.08 33.024 367.912 33.392C368.744 33.744 369.376 34.256 369.808 34.928C370.256 35.584 370.48 36.384 370.48 37.328C370.48 38 370.352 38.616 370.096 39.176C369.84 39.72 369.48 40.184 369.016 40.568C368.552 40.952 367.992 41.224 367.336 41.384V41.096C368.488 41.288 369.384 41.768 370.024 42.536C370.664 43.288 370.984 44.232 370.984 45.368C370.984 46.36 370.736 47.224 370.24 47.96C369.744 48.696 369.04 49.264 368.128 49.664C367.216 50.048 366.128 50.24 364.864 50.24ZM380.215 50.24C378.823 50.24 377.631 49.912 376.639 49.256C375.663 48.584 374.919 47.624 374.407 46.376C373.895 45.128 373.639 43.616 373.639 41.84C373.639 40.4 373.799 39.128 374.119 38.024C374.455 36.904 374.935 35.96 375.559 35.192C376.183 34.424 376.943 33.84 377.839 33.44C378.751 33.04 379.775 32.84 380.911 32.84C381.615 32.84 382.327 32.952 383.047 33.176C383.783 33.384 384.471 33.704 385.111 34.136C385.367 34.296 385.535 34.504 385.615 34.76C385.695 35.016 385.703 35.272 385.639 35.528C385.591 35.768 385.479 35.984 385.303 36.176C385.143 36.352 384.935 36.464 384.679 36.512C384.423 36.544 384.143 36.472 383.839 36.296C383.295 35.976 382.783 35.752 382.303 35.624C381.823 35.496 381.343 35.432 380.863 35.432C379.935 35.432 379.151 35.648 378.511 36.08C377.871 36.512 377.383 37.16 377.047 38.024C376.727 38.888 376.567 39.968 376.567 41.264V43.064H376.279C376.407 42.248 376.671 41.552 377.071 40.976C377.487 40.384 378.015 39.936 378.655 39.632C379.295 39.312 380.007 39.152 380.791 39.152C381.767 39.152 382.631 39.384 383.383 39.848C384.135 40.312 384.727 40.952 385.159 41.768C385.591 42.584 385.807 43.52 385.807 44.576C385.807 45.664 385.567 46.64 385.087 47.504C384.623 48.352 383.967 49.024 383.119 49.52C382.287 50 381.319 50.24 380.215 50.24ZM380.047 47.792C380.623 47.792 381.127 47.664 381.559 47.408C382.007 47.152 382.351 46.792 382.591 46.328C382.831 45.848 382.951 45.304 382.951 44.696C382.951 44.072 382.831 43.528 382.591 43.064C382.351 42.6 382.007 42.24 381.559 41.984C381.127 41.712 380.623 41.576 380.047 41.576C379.471 41.576 378.967 41.712 378.535 41.984C378.103 42.24 377.759 42.6 377.503 43.064C377.263 43.528 377.143 44.072 377.143 44.696C377.143 45.304 377.263 45.848 377.503 46.328C377.759 46.792 378.103 47.152 378.535 47.408C378.967 47.664 379.471 47.792 380.047 47.792ZM393.981 50.24C391.981 50.24 390.453 49.488 389.397 47.984C388.341 46.464 387.813 44.304 387.813 41.504C387.813 39.616 388.045 38.032 388.509 36.752C388.989 35.456 389.685 34.48 390.597 33.824C391.525 33.168 392.653 32.84 393.981 32.84C395.997 32.84 397.525 33.576 398.565 35.048C399.621 36.52 400.149 38.664 400.149 41.48C400.149 43.352 399.909 44.944 399.429 46.256C398.965 47.552 398.277 48.544 397.365 49.232C396.453 49.904 395.325 50.24 393.981 50.24ZM393.981 47.72C395.069 47.72 395.869 47.216 396.381 46.208C396.909 45.2 397.173 43.624 397.173 41.48C397.173 39.336 396.909 37.784 396.381 36.824C395.869 35.848 395.069 35.36 393.981 35.36C392.909 35.36 392.109 35.848 391.581 36.824C391.053 37.784 390.789 39.336 390.789 41.48C390.789 43.624 391.053 45.2 391.581 46.208C392.109 47.216 392.909 47.72 393.981 47.72Z" fill="#444444"/>
<path d="M414.87 32.13C414.489 32.13 414.168 32.026 413.908 31.818C413.665 31.5927 413.535 31.3067 413.518 30.96C413.518 30.6133 413.665 30.2493 413.96 29.868L418.172 24.668V26.202L414.22 21.34C413.908 20.9587 413.761 20.5947 413.778 20.248C413.795 19.9013 413.925 19.624 414.168 19.416C414.428 19.1907 414.749 19.078 415.13 19.078C415.529 19.078 415.858 19.1473 416.118 19.286C416.395 19.4247 416.647 19.6413 416.872 19.936L419.992 23.94H418.848L421.994 19.936C422.237 19.6413 422.488 19.4247 422.748 19.286C423.008 19.1473 423.329 19.078 423.71 19.078C424.109 19.078 424.429 19.1907 424.672 19.416C424.915 19.6413 425.036 19.9273 425.036 20.274C425.053 20.6207 424.906 20.9847 424.594 21.366L420.668 26.176V24.72L424.88 29.868C425.192 30.232 425.339 30.5873 425.322 30.934C425.305 31.2807 425.166 31.5667 424.906 31.792C424.663 32.0173 424.343 32.13 423.944 32.13C423.563 32.13 423.242 32.0607 422.982 31.922C422.722 31.7833 422.471 31.5667 422.228 31.272L418.848 27.008H419.94L416.586 31.272C416.361 31.5493 416.118 31.766 415.858 31.922C415.598 32.0607 415.269 32.13 414.87 32.13ZM436.252 32.208C435.663 32.208 435.247 32.0433 435.004 31.714C434.761 31.3673 434.727 30.8993 434.9 30.31C435.281 28.9753 435.576 27.606 435.784 26.202C436.009 24.7807 436.131 23.29 436.148 21.73H434.796C434.38 21.73 434.051 21.626 433.808 21.418C433.565 21.1927 433.444 20.8893 433.444 20.508C433.444 20.1093 433.557 19.806 433.782 19.598C434.025 19.39 434.38 19.286 434.848 19.286H447.458C447.926 19.286 448.273 19.39 448.498 19.598C448.741 19.806 448.862 20.1093 448.862 20.508C448.862 20.8893 448.741 21.1927 448.498 21.418C448.255 21.626 447.926 21.73 447.51 21.73H445.82V26.748C445.82 27.684 446.002 28.386 446.366 28.854C446.747 29.3047 447.337 29.53 448.134 29.53C448.273 29.53 448.403 29.5213 448.524 29.504C448.663 29.4867 448.767 29.478 448.836 29.478C449.044 29.478 449.209 29.5473 449.33 29.686C449.469 29.8073 449.538 30.0673 449.538 30.466C449.538 31.1247 449.356 31.584 448.992 31.844C448.628 32.0867 448.117 32.208 447.458 32.208C446.314 32.208 445.378 32 444.65 31.584C443.939 31.1507 443.411 30.544 443.064 29.764C442.735 28.9667 442.57 28.0307 442.57 26.956V21.73H439.372C439.355 23.5847 439.242 25.266 439.034 26.774C438.826 28.2647 438.523 29.634 438.124 30.882C437.985 31.35 437.76 31.688 437.448 31.896C437.153 32.104 436.755 32.208 436.252 32.208ZM453 32.208C452.462 32.208 452.046 32.0693 451.752 31.792C451.474 31.4973 451.336 31.0813 451.336 30.544V20.716C451.336 20.1787 451.474 19.7713 451.752 19.494C452.029 19.2167 452.419 19.078 452.922 19.078C453.424 19.078 453.814 19.2167 454.092 19.494C454.369 19.7713 454.508 20.1787 454.508 20.716V22.354H454.248C454.49 21.314 454.967 20.5253 455.678 19.988C456.388 19.4507 457.333 19.13 458.512 19.026C458.876 18.9913 459.162 19.0867 459.37 19.312C459.595 19.52 459.725 19.8493 459.76 20.3C459.794 20.7333 459.69 21.0887 459.448 21.366C459.222 21.626 458.876 21.782 458.408 21.834L457.836 21.886C456.778 21.99 455.981 22.3193 455.444 22.874C454.906 23.4113 454.638 24.174 454.638 25.162V30.544C454.638 31.0813 454.499 31.4973 454.222 31.792C453.944 32.0693 453.537 32.208 453 32.208ZM462.219 24.668C461.872 24.668 461.578 24.564 461.335 24.356C461.11 24.1307 460.997 23.8447 460.997 23.498C460.997 23.2207 461.058 22.978 461.179 22.77C461.3 22.562 461.465 22.354 461.673 22.146L464.299 19.39C464.732 18.9393 465.036 18.532 465.209 18.168C465.4 17.804 465.495 17.44 465.495 17.076C465.495 16.6427 465.365 16.3133 465.105 16.088C464.862 15.8453 464.49 15.724 463.987 15.724C463.692 15.724 463.389 15.776 463.077 15.88C462.765 15.9667 462.47 16.088 462.193 16.244C461.881 16.4173 461.595 16.4607 461.335 16.374C461.092 16.2873 460.91 16.1313 460.789 15.906C460.668 15.6633 460.642 15.4033 460.711 15.126C460.78 14.8487 460.971 14.6147 461.283 14.424C461.734 14.1467 462.254 13.9387 462.843 13.8C463.432 13.644 464.013 13.566 464.585 13.566C465.348 13.566 466.006 13.696 466.561 13.956C467.116 14.216 467.54 14.58 467.835 15.048C468.147 15.516 468.303 16.0707 468.303 16.712C468.303 17.284 468.164 17.8387 467.887 18.376C467.627 18.9133 467.185 19.5027 466.561 20.144L464.065 22.718V22.484H467.861C468.606 22.484 468.979 22.848 468.979 23.576C468.979 23.9227 468.884 24.1913 468.693 24.382C468.502 24.5727 468.225 24.668 467.861 24.668H462.219Z" fill="#444444"/>
</svg>
