<svg width="549" height="55" viewBox="0 0 549 55" fill="none" xmlns="http://www.w3.org/2000/svg">
<path d="M1.00447 18.168C0.700469 18.168 0.468469 18.088 0.308469 17.928C0.148469 17.752 0.0684689 17.504 0.0684689 17.184V1.92C0.0684689 1.6 0.148469 1.352 0.308469 1.176C0.468469 1 0.676469 0.912 0.932469 0.912C1.18847 0.912 1.37247 0.96 1.48447 1.056C1.61247 1.136 1.75647 1.288 1.91647 1.512L12.3805 15.456H11.8045V1.872C11.8045 1.568 11.8845 1.336 12.0445 1.176C12.2045 1 12.4365 0.912 12.7405 0.912C13.0285 0.912 13.2445 1 13.3885 1.176C13.5485 1.336 13.6285 1.568 13.6285 1.872V17.208C13.6285 17.512 13.5565 17.752 13.4125 17.928C13.2845 18.088 13.0925 18.168 12.8365 18.168C12.5965 18.168 12.4045 18.12 12.2605 18.024C12.1165 17.928 11.9645 17.776 11.8045 17.568L1.36447 3.624H1.91647V17.184C1.91647 17.504 1.83647 17.752 1.67647 17.928C1.51647 18.088 1.29247 18.168 1.00447 18.168ZM22.4181 18.216C21.2821 18.216 20.2981 17.968 19.4661 17.472C18.6341 16.976 17.9861 16.28 17.5221 15.384C17.0741 14.472 16.8501 13.4 16.8501 12.168C16.8501 11.24 16.9781 10.408 17.2341 9.672C17.4901 8.92 17.8661 8.28 18.3621 7.752C18.8581 7.224 19.4421 6.824 20.1141 6.552C20.8021 6.264 21.5701 6.12 22.4181 6.12C23.5541 6.12 24.5381 6.368 25.3701 6.864C26.2021 7.36 26.8421 8.064 27.2901 8.976C27.7541 9.872 27.9861 10.936 27.9861 12.168C27.9861 13.096 27.8581 13.928 27.6021 14.664C27.3461 15.4 26.9701 16.04 26.4741 16.584C25.9781 17.112 25.3861 17.52 24.6981 17.808C24.0261 18.08 23.2661 18.216 22.4181 18.216ZM22.4181 16.656C23.1381 16.656 23.7701 16.48 24.3141 16.128C24.8581 15.776 25.2741 15.264 25.5621 14.592C25.8661 13.92 26.0181 13.112 26.0181 12.168C26.0181 10.712 25.6901 9.6 25.0341 8.832C24.3941 8.064 23.5221 7.68 22.4181 7.68C21.6821 7.68 21.0421 7.856 20.4981 8.208C19.9701 8.544 19.5541 9.048 19.2501 9.72C18.9621 10.376 18.8181 11.192 18.8181 12.168C18.8181 13.608 19.1461 14.72 19.8021 15.504C20.4581 16.272 21.3301 16.656 22.4181 16.656ZM35.4688 18.216C34.5568 18.216 33.7888 18.056 33.1648 17.736C32.5568 17.4 32.1008 16.92 31.7968 16.296C31.4928 15.656 31.3408 14.88 31.3408 13.968V7.848H29.7328C29.4608 7.848 29.2528 7.784 29.1088 7.656C28.9648 7.512 28.8928 7.32 28.8928 7.08C28.8928 6.84 28.9648 6.656 29.1088 6.528C29.2528 6.4 29.4608 6.336 29.7328 6.336H31.3408V3.576C31.3408 3.256 31.4288 3.016 31.6048 2.856C31.7808 2.68 32.0208 2.592 32.3248 2.592C32.6288 2.592 32.8608 2.68 33.0208 2.856C33.1968 3.016 33.2848 3.256 33.2848 3.576V6.336H36.3088C36.5808 6.336 36.7888 6.4 36.9328 6.528C37.0768 6.656 37.1488 6.84 37.1488 7.08C37.1488 7.32 37.0768 7.512 36.9328 7.656C36.7888 7.784 36.5808 7.848 36.3088 7.848H33.2848V13.776C33.2848 14.688 33.4768 15.384 33.8608 15.864C34.2448 16.328 34.8688 16.56 35.7328 16.56C36.0368 16.56 36.2928 16.528 36.5008 16.464C36.7248 16.4 36.9088 16.368 37.0528 16.368C37.1968 16.352 37.3168 16.4 37.4128 16.512C37.5088 16.624 37.5568 16.816 37.5568 17.088C37.5568 17.28 37.5168 17.456 37.4368 17.616C37.3728 17.776 37.2528 17.888 37.0768 17.952C36.8848 18.016 36.6288 18.072 36.3088 18.12C36.0048 18.184 35.7248 18.216 35.4688 18.216ZM44.3183 18.216C43.0863 18.216 42.0223 17.976 41.1263 17.496C40.2463 17 39.5583 16.304 39.0623 15.408C38.5823 14.512 38.3423 13.44 38.3423 12.192C38.3423 10.976 38.5823 9.92 39.0623 9.024C39.5423 8.112 40.1983 7.4 41.0303 6.888C41.8783 6.376 42.8543 6.12 43.9583 6.12C44.7423 6.12 45.4463 6.256 46.0703 6.528C46.6943 6.784 47.2223 7.16 47.6543 7.656C48.1023 8.152 48.4383 8.752 48.6623 9.456C48.9023 10.16 49.0223 10.952 49.0223 11.832C49.0223 12.088 48.9503 12.28 48.8063 12.408C48.6623 12.52 48.4543 12.576 48.1823 12.576H39.8303V11.304H47.7263L47.3423 11.616C47.3423 10.752 47.2143 10.024 46.9583 9.432C46.7023 8.824 46.3263 8.36 45.8303 8.04C45.3503 7.72 44.7423 7.56 44.0063 7.56C43.1903 7.56 42.4943 7.752 41.9183 8.136C41.3583 8.504 40.9343 9.024 40.6463 9.696C40.3583 10.352 40.2143 11.12 40.2143 12V12.144C40.2143 13.616 40.5663 14.736 41.2703 15.504C41.9903 16.272 43.0063 16.656 44.3183 16.656C44.8623 16.656 45.3983 16.584 45.9263 16.44C46.4703 16.296 46.9983 16.056 47.5103 15.72C47.7343 15.576 47.9343 15.512 48.1103 15.528C48.3023 15.528 48.4543 15.584 48.5663 15.696C48.6783 15.792 48.7503 15.92 48.7823 16.08C48.8303 16.224 48.8143 16.384 48.7343 16.56C48.6703 16.736 48.5343 16.888 48.3263 17.016C47.7983 17.4 47.1743 17.696 46.4543 17.904C45.7343 18.112 45.0223 18.216 44.3183 18.216ZM62.7032 18.216C61.7912 18.216 61.0232 18.056 60.3992 17.736C59.7912 17.4 59.3352 16.92 59.0312 16.296C58.7272 15.656 58.5752 14.88 58.5752 13.968V7.848H56.9672C56.6952 7.848 56.4872 7.784 56.3432 7.656C56.1992 7.512 56.1272 7.32 56.1272 7.08C56.1272 6.84 56.1992 6.656 56.3432 6.528C56.4872 6.4 56.6952 6.336 56.9672 6.336H58.5752V3.576C58.5752 3.256 58.6632 3.016 58.8392 2.856C59.0152 2.68 59.2552 2.592 59.5592 2.592C59.8632 2.592 60.0952 2.68 60.2552 2.856C60.4312 3.016 60.5192 3.256 60.5192 3.576V6.336H63.5432C63.8152 6.336 64.0232 6.4 64.1672 6.528C64.3112 6.656 64.3832 6.84 64.3832 7.08C64.3832 7.32 64.3112 7.512 64.1672 7.656C64.0232 7.784 63.8152 7.848 63.5432 7.848H60.5192V13.776C60.5192 14.688 60.7112 15.384 61.0952 15.864C61.4792 16.328 62.1032 16.56 62.9672 16.56C63.2712 16.56 63.5272 16.528 63.7352 16.464C63.9592 16.4 64.1432 16.368 64.2872 16.368C64.4312 16.352 64.5512 16.4 64.6472 16.512C64.7432 16.624 64.7912 16.816 64.7912 17.088C64.7912 17.28 64.7512 17.456 64.6712 17.616C64.6072 17.776 64.4872 17.888 64.3112 17.952C64.1192 18.016 63.8632 18.072 63.5432 18.12C63.2392 18.184 62.9592 18.216 62.7032 18.216ZM67.5145 18.168C67.1945 18.168 66.9545 18.08 66.7945 17.904C66.6345 17.728 66.5545 17.48 66.5545 17.16V1.896C66.5545 1.576 66.6345 1.336 66.7945 1.176C66.9545 1 67.1945 0.912 67.5145 0.912C67.8185 0.912 68.0585 1 68.2345 1.176C68.4105 1.336 68.4985 1.576 68.4985 1.896V8.928H68.1865C68.5225 8 69.0665 7.304 69.8185 6.84C70.5865 6.36 71.4665 6.12 72.4585 6.12C73.3865 6.12 74.1545 6.288 74.7625 6.624C75.3865 6.96 75.8505 7.472 76.1545 8.16C76.4585 8.832 76.6105 9.688 76.6105 10.728V17.16C76.6105 17.48 76.5225 17.728 76.3465 17.904C76.1865 18.08 75.9545 18.168 75.6505 18.168C75.3305 18.168 75.0825 18.08 74.9065 17.904C74.7465 17.728 74.6665 17.48 74.6665 17.16V10.848C74.6665 9.76 74.4505 8.968 74.0185 8.472C73.6025 7.96 72.9305 7.704 72.0025 7.704C70.9305 7.704 70.0745 8.04 69.4345 8.712C68.8105 9.368 68.4985 10.248 68.4985 11.352V17.16C68.4985 17.832 68.1705 18.168 67.5145 18.168ZM83.8671 18.216C83.0671 18.216 82.3471 18.064 81.7071 17.76C81.0831 17.44 80.5871 17.008 80.2191 16.464C79.8511 15.92 79.6671 15.312 79.6671 14.64C79.6671 13.776 79.8831 13.096 80.3151 12.6C80.7631 12.104 81.4911 11.752 82.4991 11.544C83.5231 11.336 84.9151 11.232 86.6751 11.232H87.7551V12.504H86.6991C85.4031 12.504 84.3791 12.568 83.6271 12.696C82.8911 12.808 82.3711 13.008 82.0671 13.296C81.7791 13.584 81.6351 13.992 81.6351 14.52C81.6351 15.176 81.8591 15.712 82.3071 16.128C82.7711 16.544 83.3951 16.752 84.1791 16.752C84.8191 16.752 85.3791 16.6 85.8591 16.296C86.3551 15.992 86.7391 15.576 87.0111 15.048C87.2991 14.52 87.4431 13.912 87.4431 13.224V10.488C87.4431 9.496 87.2431 8.784 86.8431 8.352C86.4431 7.904 85.7871 7.68 84.8751 7.68C84.3151 7.68 83.7551 7.752 83.1951 7.896C82.6351 8.04 82.0431 8.272 81.4191 8.592C81.1951 8.704 81.0031 8.744 80.8431 8.712C80.6831 8.664 80.5551 8.576 80.4591 8.448C80.3631 8.32 80.3071 8.176 80.2911 8.016C80.2751 7.84 80.3071 7.672 80.3871 7.512C80.4831 7.352 80.6271 7.224 80.8191 7.128C81.5231 6.776 82.2191 6.52 82.9071 6.36C83.5951 6.2 84.2511 6.12 84.8751 6.12C85.8831 6.12 86.7151 6.288 87.3711 6.624C88.0271 6.944 88.5151 7.44 88.8351 8.112C89.1551 8.768 89.3151 9.616 89.3151 10.656V17.16C89.3151 17.48 89.2351 17.728 89.0751 17.904C88.9311 18.08 88.7151 18.168 88.4271 18.168C88.1231 18.168 87.8911 18.08 87.7311 17.904C87.5711 17.728 87.4911 17.48 87.4911 17.16V15.288H87.7071C87.5791 15.896 87.3311 16.416 86.9631 16.848C86.6111 17.28 86.1711 17.616 85.6431 17.856C85.1151 18.096 84.5231 18.216 83.8671 18.216ZM97.6017 18.216C96.6897 18.216 95.9217 18.056 95.2977 17.736C94.6897 17.4 94.2337 16.92 93.9297 16.296C93.6257 15.656 93.4737 14.88 93.4737 13.968V7.848H91.8657C91.5937 7.848 91.3857 7.784 91.2417 7.656C91.0977 7.512 91.0257 7.32 91.0257 7.08C91.0257 6.84 91.0977 6.656 91.2417 6.528C91.3857 6.4 91.5937 6.336 91.8657 6.336H93.4737V3.576C93.4737 3.256 93.5617 3.016 93.7377 2.856C93.9137 2.68 94.1537 2.592 94.4577 2.592C94.7617 2.592 94.9937 2.68 95.1537 2.856C95.3297 3.016 95.4177 3.256 95.4177 3.576V6.336H98.4417C98.7137 6.336 98.9217 6.4 99.0657 6.528C99.2097 6.656 99.2817 6.84 99.2817 7.08C99.2817 7.32 99.2097 7.512 99.0657 7.656C98.9217 7.784 98.7137 7.848 98.4417 7.848H95.4177V13.776C95.4177 14.688 95.6097 15.384 95.9937 15.864C96.3777 16.328 97.0017 16.56 97.8657 16.56C98.1697 16.56 98.4257 16.528 98.6337 16.464C98.8577 16.4 99.0417 16.368 99.1857 16.368C99.3297 16.352 99.4497 16.4 99.5457 16.512C99.6417 16.624 99.6897 16.816 99.6897 17.088C99.6897 17.28 99.6497 17.456 99.5697 17.616C99.5057 17.776 99.3857 17.888 99.2097 17.952C99.0177 18.016 98.7617 18.072 98.4417 18.12C98.1377 18.184 97.8577 18.216 97.6017 18.216ZM111.172 18.216C110.372 18.216 109.652 18.064 109.012 17.76C108.388 17.44 107.892 17.008 107.524 16.464C107.156 15.92 106.972 15.312 106.972 14.64C106.972 13.776 107.188 13.096 107.62 12.6C108.068 12.104 108.796 11.752 109.804 11.544C110.828 11.336 112.22 11.232 113.98 11.232H115.06V12.504H114.004C112.708 12.504 111.684 12.568 110.932 12.696C110.196 12.808 109.676 13.008 109.372 13.296C109.084 13.584 108.94 13.992 108.94 14.52C108.94 15.176 109.164 15.712 109.612 16.128C110.076 16.544 110.7 16.752 111.484 16.752C112.124 16.752 112.684 16.6 113.164 16.296C113.66 15.992 114.044 15.576 114.316 15.048C114.604 14.52 114.748 13.912 114.748 13.224V10.488C114.748 9.496 114.548 8.784 114.148 8.352C113.748 7.904 113.092 7.68 112.18 7.68C111.62 7.68 111.06 7.752 110.5 7.896C109.94 8.04 109.348 8.272 108.724 8.592C108.5 8.704 108.308 8.744 108.148 8.712C107.988 8.664 107.86 8.576 107.764 8.448C107.668 8.32 107.612 8.176 107.596 8.016C107.58 7.84 107.612 7.672 107.692 7.512C107.788 7.352 107.932 7.224 108.124 7.128C108.828 6.776 109.524 6.52 110.212 6.36C110.9 6.2 111.556 6.12 112.18 6.12C113.188 6.12 114.02 6.288 114.676 6.624C115.332 6.944 115.82 7.44 116.14 8.112C116.46 8.768 116.62 9.616 116.62 10.656V17.16C116.62 17.48 116.54 17.728 116.38 17.904C116.236 18.08 116.02 18.168 115.732 18.168C115.428 18.168 115.196 18.08 115.036 17.904C114.876 17.728 114.796 17.48 114.796 17.16V15.288H115.012C114.884 15.896 114.636 16.416 114.268 16.848C113.916 17.28 113.476 17.616 112.948 17.856C112.42 18.096 111.828 18.216 111.172 18.216ZM131.574 18.24C130.342 18.24 129.27 17.992 128.358 17.496C127.446 16.984 126.742 16.264 126.246 15.336C125.75 14.408 125.502 13.32 125.502 12.072C125.502 11.128 125.638 10.288 125.91 9.552C126.198 8.8 126.606 8.168 127.134 7.656C127.662 7.128 128.302 6.728 129.054 6.456C129.806 6.168 130.646 6.024 131.574 6.024C132.102 6.024 132.67 6.096 133.278 6.24C133.902 6.384 134.486 6.624 135.03 6.96C135.286 7.12 135.454 7.312 135.534 7.536C135.614 7.76 135.63 7.992 135.582 8.232C135.534 8.456 135.43 8.656 135.27 8.832C135.126 8.992 134.942 9.096 134.718 9.144C134.494 9.176 134.246 9.12 133.974 8.976C133.622 8.768 133.262 8.616 132.894 8.52C132.526 8.408 132.174 8.352 131.838 8.352C131.31 8.352 130.846 8.44 130.446 8.616C130.046 8.776 129.702 9.016 129.414 9.336C129.142 9.64 128.934 10.024 128.79 10.488C128.646 10.952 128.574 11.488 128.574 12.096C128.574 13.28 128.854 14.216 129.414 14.904C129.99 15.576 130.798 15.912 131.838 15.912C132.174 15.912 132.518 15.864 132.87 15.768C133.238 15.672 133.606 15.52 133.974 15.312C134.246 15.168 134.486 15.12 134.694 15.168C134.918 15.216 135.102 15.328 135.246 15.504C135.39 15.664 135.478 15.864 135.51 16.104C135.542 16.328 135.51 16.552 135.414 16.776C135.334 17 135.174 17.184 134.934 17.328C134.406 17.648 133.846 17.88 133.254 18.024C132.662 18.168 132.102 18.24 131.574 18.24ZM142.588 18.24C141.372 18.24 140.316 17.992 139.42 17.496C138.524 17 137.828 16.296 137.332 15.384C136.836 14.456 136.588 13.368 136.588 12.12C136.588 11.176 136.724 10.336 136.996 9.6C137.284 8.848 137.692 8.208 138.22 7.68C138.748 7.136 139.38 6.728 140.116 6.456C140.852 6.168 141.676 6.024 142.588 6.024C143.804 6.024 144.86 6.272 145.756 6.768C146.652 7.264 147.348 7.968 147.844 8.88C148.34 9.792 148.588 10.872 148.588 12.12C148.588 13.064 148.444 13.912 148.156 14.664C147.884 15.416 147.484 16.064 146.956 16.608C146.428 17.136 145.796 17.544 145.06 17.832C144.324 18.104 143.5 18.24 142.588 18.24ZM142.588 15.96C143.18 15.96 143.7 15.816 144.148 15.528C144.596 15.24 144.94 14.816 145.18 14.256C145.436 13.68 145.564 12.968 145.564 12.12C145.564 10.84 145.292 9.888 144.748 9.264C144.204 8.624 143.484 8.304 142.588 8.304C141.996 8.304 141.476 8.448 141.028 8.736C140.58 9.008 140.228 9.432 139.972 10.008C139.732 10.568 139.612 11.272 139.612 12.12C139.612 13.384 139.884 14.344 140.428 15C140.972 15.64 141.692 15.96 142.588 15.96ZM152.552 18.192C152.072 18.192 151.704 18.064 151.448 17.808C151.192 17.536 151.064 17.152 151.064 16.656V7.584C151.064 7.088 151.192 6.712 151.448 6.456C151.704 6.2 152.064 6.072 152.528 6.072C152.992 6.072 153.352 6.2 153.608 6.456C153.864 6.712 153.992 7.088 153.992 7.584V9.216L153.728 8.616C154.08 7.768 154.624 7.128 155.36 6.696C156.112 6.248 156.96 6.024 157.904 6.024C158.848 6.024 159.624 6.2 160.232 6.552C160.84 6.904 161.296 7.44 161.6 8.16C161.904 8.864 162.056 9.76 162.056 10.848V16.656C162.056 17.152 161.928 17.536 161.672 17.808C161.416 18.064 161.048 18.192 160.568 18.192C160.088 18.192 159.712 18.064 159.44 17.808C159.184 17.536 159.056 17.152 159.056 16.656V10.992C159.056 10.08 158.88 9.416 158.528 9C158.192 8.584 157.664 8.376 156.944 8.376C156.064 8.376 155.36 8.656 154.832 9.216C154.32 9.76 154.064 10.488 154.064 11.4V16.656C154.064 17.68 153.56 18.192 152.552 18.192ZM169.399 18.24C168.711 18.24 167.983 18.168 167.215 18.024C166.447 17.88 165.759 17.632 165.151 17.28C164.895 17.12 164.711 16.936 164.599 16.728C164.503 16.504 164.463 16.288 164.479 16.08C164.511 15.856 164.591 15.664 164.719 15.504C164.863 15.344 165.039 15.24 165.247 15.192C165.471 15.144 165.711 15.184 165.967 15.312C166.607 15.616 167.207 15.832 167.767 15.96C168.327 16.072 168.879 16.128 169.423 16.128C170.191 16.128 170.759 16 171.127 15.744C171.511 15.472 171.703 15.12 171.703 14.688C171.703 14.32 171.575 14.04 171.319 13.848C171.079 13.64 170.711 13.488 170.215 13.392L167.815 12.936C166.823 12.744 166.063 12.384 165.535 11.856C165.023 11.312 164.767 10.616 164.767 9.768C164.767 9 164.975 8.336 165.391 7.776C165.823 7.216 166.415 6.784 167.167 6.48C167.919 6.176 168.783 6.024 169.759 6.024C170.463 6.024 171.119 6.104 171.727 6.264C172.351 6.408 172.951 6.64 173.527 6.96C173.767 7.088 173.927 7.256 174.007 7.464C174.103 7.672 174.127 7.888 174.079 8.112C174.031 8.32 173.935 8.512 173.791 8.688C173.647 8.848 173.463 8.952 173.239 9C173.031 9.032 172.791 8.984 172.519 8.856C172.023 8.6 171.543 8.416 171.079 8.304C170.631 8.192 170.199 8.136 169.783 8.136C168.999 8.136 168.415 8.272 168.031 8.544C167.663 8.816 167.479 9.176 167.479 9.624C167.479 9.96 167.591 10.24 167.815 10.464C168.039 10.688 168.383 10.84 168.847 10.92L171.247 11.376C172.287 11.568 173.071 11.92 173.599 12.432C174.143 12.944 174.415 13.632 174.415 14.496C174.415 15.664 173.959 16.584 173.047 17.256C172.135 17.912 170.919 18.24 169.399 18.24ZM182.081 18.24C181.041 18.24 180.169 18.064 179.465 17.712C178.777 17.36 178.265 16.848 177.929 16.176C177.593 15.488 177.425 14.64 177.425 13.632V8.52H176.177C175.793 8.52 175.497 8.424 175.289 8.232C175.081 8.024 174.977 7.744 174.977 7.392C174.977 7.024 175.081 6.744 175.289 6.552C175.497 6.36 175.793 6.264 176.177 6.264H177.425V4.08C177.425 3.584 177.553 3.208 177.809 2.952C178.081 2.696 178.457 2.568 178.937 2.568C179.417 2.568 179.785 2.696 180.041 2.952C180.297 3.208 180.425 3.584 180.425 4.08V6.264H182.969C183.353 6.264 183.649 6.36 183.857 6.552C184.065 6.744 184.169 7.024 184.169 7.392C184.169 7.744 184.065 8.024 183.857 8.232C183.649 8.424 183.353 8.52 182.969 8.52H180.425V13.464C180.425 14.232 180.593 14.808 180.929 15.192C181.265 15.576 181.809 15.768 182.561 15.768C182.833 15.768 183.073 15.744 183.281 15.696C183.489 15.648 183.673 15.616 183.833 15.6C184.025 15.584 184.185 15.648 184.313 15.792C184.441 15.92 184.505 16.192 184.505 16.608C184.505 16.928 184.449 17.216 184.337 17.472C184.241 17.712 184.057 17.88 183.785 17.976C183.577 18.04 183.305 18.096 182.969 18.144C182.633 18.208 182.337 18.24 182.081 18.24ZM189.779 18.24C188.931 18.24 188.171 18.08 187.499 17.76C186.843 17.424 186.323 16.976 185.939 16.416C185.571 15.856 185.387 15.224 185.387 14.52C185.387 13.656 185.611 12.976 186.059 12.48C186.507 11.968 187.235 11.6 188.243 11.376C189.251 11.152 190.603 11.04 192.299 11.04H193.499V12.768H192.323C191.331 12.768 190.539 12.816 189.947 12.912C189.355 13.008 188.931 13.176 188.675 13.416C188.435 13.64 188.315 13.96 188.315 14.376C188.315 14.904 188.499 15.336 188.867 15.672C189.235 16.008 189.747 16.176 190.403 16.176C190.931 16.176 191.395 16.056 191.795 15.816C192.211 15.56 192.539 15.216 192.779 14.784C193.019 14.352 193.139 13.856 193.139 13.296V10.536C193.139 9.736 192.963 9.16 192.611 8.808C192.259 8.456 191.667 8.28 190.835 8.28C190.371 8.28 189.867 8.336 189.323 8.448C188.795 8.56 188.235 8.752 187.643 9.024C187.339 9.168 187.067 9.208 186.827 9.144C186.603 9.08 186.427 8.952 186.299 8.76C186.171 8.552 186.107 8.328 186.107 8.088C186.107 7.848 186.171 7.616 186.299 7.392C186.427 7.152 186.643 6.976 186.947 6.864C187.683 6.56 188.387 6.344 189.059 6.216C189.747 6.088 190.371 6.024 190.931 6.024C192.083 6.024 193.027 6.2 193.763 6.552C194.515 6.904 195.075 7.44 195.443 8.16C195.811 8.864 195.995 9.776 195.995 10.896V16.656C195.995 17.152 195.875 17.536 195.635 17.808C195.395 18.064 195.051 18.192 194.603 18.192C194.155 18.192 193.803 18.064 193.547 17.808C193.307 17.536 193.187 17.152 193.187 16.656V15.504H193.379C193.267 16.064 193.043 16.552 192.707 16.968C192.387 17.368 191.979 17.68 191.483 17.904C190.987 18.128 190.419 18.24 189.779 18.24ZM200.528 18.192C200.048 18.192 199.68 18.064 199.424 17.808C199.168 17.536 199.04 17.152 199.04 16.656V7.584C199.04 7.088 199.168 6.712 199.424 6.456C199.68 6.2 200.04 6.072 200.504 6.072C200.968 6.072 201.328 6.2 201.584 6.456C201.84 6.712 201.968 7.088 201.968 7.584V9.216L201.704 8.616C202.056 7.768 202.6 7.128 203.336 6.696C204.088 6.248 204.936 6.024 205.88 6.024C206.824 6.024 207.6 6.2 208.208 6.552C208.816 6.904 209.272 7.44 209.576 8.16C209.88 8.864 210.032 9.76 210.032 10.848V16.656C210.032 17.152 209.904 17.536 209.648 17.808C209.392 18.064 209.024 18.192 208.544 18.192C208.064 18.192 207.688 18.064 207.416 17.808C207.16 17.536 207.032 17.152 207.032 16.656V10.992C207.032 10.08 206.856 9.416 206.504 9C206.168 8.584 205.64 8.376 204.92 8.376C204.04 8.376 203.336 8.656 202.808 9.216C202.296 9.76 202.04 10.488 202.04 11.4V16.656C202.04 17.68 201.536 18.192 200.528 18.192ZM218.456 18.24C217.416 18.24 216.544 18.064 215.84 17.712C215.152 17.36 214.64 16.848 214.304 16.176C213.968 15.488 213.8 14.64 213.8 13.632V8.52H212.552C212.168 8.52 211.872 8.424 211.664 8.232C211.456 8.024 211.352 7.744 211.352 7.392C211.352 7.024 211.456 6.744 211.664 6.552C211.872 6.36 212.168 6.264 212.552 6.264H213.8V4.08C213.8 3.584 213.928 3.208 214.184 2.952C214.456 2.696 214.832 2.568 215.312 2.568C215.792 2.568 216.16 2.696 216.416 2.952C216.672 3.208 216.8 3.584 216.8 4.08V6.264H219.344C219.728 6.264 220.024 6.36 220.232 6.552C220.44 6.744 220.544 7.024 220.544 7.392C220.544 7.744 220.44 8.024 220.232 8.232C220.024 8.424 219.728 8.52 219.344 8.52H216.8V13.464C216.8 14.232 216.968 14.808 217.304 15.192C217.64 15.576 218.184 15.768 218.936 15.768C219.208 15.768 219.448 15.744 219.656 15.696C219.864 15.648 220.048 15.616 220.208 15.6C220.4 15.584 220.56 15.648 220.688 15.792C220.816 15.92 220.88 16.192 220.88 16.608C220.88 16.928 220.824 17.216 220.712 17.472C220.616 17.712 220.432 17.88 220.16 17.976C219.952 18.04 219.68 18.096 219.344 18.144C219.008 18.208 218.712 18.24 218.456 18.24ZM229.702 18.12C229.382 18.12 229.142 18.032 228.982 17.856C228.822 17.664 228.742 17.4 228.742 17.064V7.248C228.742 6.912 228.822 6.656 228.982 6.48C229.142 6.304 229.382 6.216 229.702 6.216C230.006 6.216 230.246 6.304 230.422 6.48C230.598 6.656 230.686 6.912 230.686 7.248V17.064C230.686 17.4 230.598 17.664 230.422 17.856C230.262 18.032 230.022 18.12 229.702 18.12ZM229.702 3.528C229.302 3.528 228.99 3.424 228.766 3.216C228.542 2.992 228.43 2.696 228.43 2.328C228.43 1.944 228.542 1.656 228.766 1.464C228.99 1.256 229.302 1.152 229.702 1.152C230.118 1.152 230.43 1.256 230.638 1.464C230.862 1.656 230.974 1.944 230.974 2.328C230.974 2.696 230.862 2.992 230.638 3.216C230.43 3.424 230.118 3.528 229.702 3.528ZM238.256 18.216C237.536 18.216 236.808 18.128 236.072 17.952C235.352 17.776 234.68 17.472 234.056 17.04C233.896 16.928 233.784 16.8 233.72 16.656C233.656 16.496 233.632 16.344 233.648 16.2C233.68 16.04 233.744 15.904 233.84 15.792C233.952 15.68 234.08 15.616 234.224 15.6C234.384 15.568 234.56 15.6 234.752 15.696C235.376 16.08 235.976 16.352 236.552 16.512C237.144 16.656 237.728 16.728 238.304 16.728C239.216 16.728 239.904 16.56 240.368 16.224C240.832 15.888 241.064 15.432 241.064 14.856C241.064 14.408 240.912 14.056 240.608 13.8C240.304 13.528 239.824 13.32 239.168 13.176L236.984 12.696C235.976 12.488 235.224 12.128 234.728 11.616C234.248 11.104 234.008 10.44 234.008 9.624C234.008 8.904 234.192 8.288 234.56 7.776C234.944 7.248 235.48 6.84 236.168 6.552C236.856 6.264 237.656 6.12 238.568 6.12C239.272 6.12 239.936 6.216 240.56 6.408C241.2 6.584 241.776 6.872 242.288 7.272C242.448 7.384 242.552 7.52 242.6 7.68C242.664 7.824 242.672 7.976 242.624 8.136C242.592 8.28 242.52 8.408 242.408 8.52C242.296 8.616 242.16 8.672 242 8.688C241.84 8.704 241.672 8.656 241.496 8.544C241.016 8.224 240.528 7.992 240.032 7.848C239.536 7.688 239.048 7.608 238.568 7.608C237.672 7.608 236.992 7.784 236.528 8.136C236.064 8.488 235.832 8.952 235.832 9.528C235.832 9.976 235.976 10.344 236.264 10.632C236.552 10.92 237 11.128 237.608 11.256L239.792 11.712C240.832 11.936 241.608 12.296 242.12 12.792C242.648 13.272 242.912 13.928 242.912 14.76C242.912 15.816 242.488 16.656 241.64 17.28C240.792 17.904 239.664 18.216 238.256 18.216ZM253.07 18.168C252.75 18.168 252.51 18.08 252.35 17.904C252.19 17.728 252.11 17.48 252.11 17.16V7.152C252.11 6.832 252.19 6.592 252.35 6.432C252.51 6.256 252.742 6.168 253.046 6.168C253.35 6.168 253.582 6.256 253.742 6.432C253.918 6.592 254.006 6.832 254.006 7.152V9.264L253.742 8.928C254.046 8.032 254.534 7.344 255.206 6.864C255.894 6.368 256.71 6.12 257.654 6.12C258.646 6.12 259.446 6.36 260.054 6.84C260.678 7.304 261.094 8.032 261.302 9.024H260.942C261.23 8.128 261.742 7.424 262.478 6.912C263.23 6.384 264.102 6.12 265.094 6.12C265.974 6.12 266.694 6.288 267.254 6.624C267.83 6.96 268.262 7.472 268.55 8.16C268.838 8.832 268.982 9.688 268.982 10.728V17.16C268.982 17.48 268.894 17.728 268.718 17.904C268.558 18.08 268.318 18.168 267.998 18.168C267.694 18.168 267.454 18.08 267.278 17.904C267.118 17.728 267.038 17.48 267.038 17.16V10.824C267.038 9.752 266.854 8.968 266.486 8.472C266.118 7.96 265.494 7.704 264.614 7.704C263.654 7.704 262.894 8.04 262.334 8.712C261.79 9.368 261.518 10.264 261.518 11.4V17.16C261.518 17.48 261.43 17.728 261.254 17.904C261.094 18.08 260.854 18.168 260.534 18.168C260.23 18.168 259.99 18.08 259.814 17.904C259.654 17.728 259.574 17.48 259.574 17.16V10.824C259.574 9.752 259.382 8.968 258.998 8.472C258.63 7.96 258.014 7.704 257.15 7.704C256.19 7.704 255.43 8.04 254.87 8.712C254.326 9.368 254.054 10.264 254.054 11.4V17.16C254.054 17.832 253.726 18.168 253.07 18.168ZM276.745 18.216C275.801 18.216 275.017 18.048 274.393 17.712C273.785 17.36 273.321 16.84 273.001 16.152C272.697 15.464 272.545 14.608 272.545 13.584V7.152C272.545 6.816 272.625 6.568 272.785 6.408C272.961 6.248 273.201 6.168 273.505 6.168C273.825 6.168 274.065 6.248 274.225 6.408C274.401 6.568 274.489 6.816 274.489 7.152V13.56C274.489 14.584 274.697 15.352 275.113 15.864C275.545 16.36 276.217 16.608 277.129 16.608C278.121 16.608 278.929 16.272 279.553 15.6C280.177 14.928 280.489 14.048 280.489 12.96V7.152C280.489 6.816 280.569 6.568 280.729 6.408C280.905 6.248 281.153 6.168 281.473 6.168C281.777 6.168 282.009 6.248 282.169 6.408C282.345 6.568 282.433 6.816 282.433 7.152V17.16C282.433 17.832 282.121 18.168 281.497 18.168C281.193 18.168 280.953 18.08 280.777 17.904C280.617 17.728 280.537 17.48 280.537 17.16V14.976L280.849 15.312C280.529 16.256 280.001 16.976 279.265 17.472C278.545 17.968 277.705 18.216 276.745 18.216ZM289.622 18.216C288.47 18.216 287.59 17.864 286.982 17.16C286.374 16.456 286.07 15.448 286.07 14.136V1.896C286.07 1.576 286.15 1.336 286.31 1.176C286.47 1 286.71 0.912 287.03 0.912C287.334 0.912 287.574 1 287.75 1.176C287.926 1.336 288.014 1.576 288.014 1.896V13.992C288.014 14.856 288.182 15.504 288.518 15.936C288.87 16.352 289.382 16.56 290.054 16.56C290.198 16.56 290.326 16.552 290.438 16.536C290.55 16.52 290.662 16.512 290.774 16.512C290.95 16.496 291.07 16.536 291.134 16.632C291.214 16.728 291.254 16.92 291.254 17.208C291.254 17.496 291.19 17.712 291.062 17.856C290.934 18 290.726 18.096 290.438 18.144C290.31 18.16 290.174 18.176 290.03 18.192C289.886 18.208 289.75 18.216 289.622 18.216ZM297.641 18.216C296.729 18.216 295.961 18.056 295.337 17.736C294.729 17.4 294.273 16.92 293.969 16.296C293.665 15.656 293.513 14.88 293.513 13.968V7.848H291.905C291.633 7.848 291.425 7.784 291.281 7.656C291.137 7.512 291.065 7.32 291.065 7.08C291.065 6.84 291.137 6.656 291.281 6.528C291.425 6.4 291.633 6.336 291.905 6.336H293.513V3.576C293.513 3.256 293.601 3.016 293.777 2.856C293.953 2.68 294.193 2.592 294.497 2.592C294.801 2.592 295.033 2.68 295.193 2.856C295.369 3.016 295.457 3.256 295.457 3.576V6.336H298.481C298.753 6.336 298.961 6.4 299.105 6.528C299.249 6.656 299.321 6.84 299.321 7.08C299.321 7.32 299.249 7.512 299.105 7.656C298.961 7.784 298.753 7.848 298.481 7.848H295.457V13.776C295.457 14.688 295.649 15.384 296.033 15.864C296.417 16.328 297.041 16.56 297.905 16.56C298.209 16.56 298.465 16.528 298.673 16.464C298.897 16.4 299.081 16.368 299.225 16.368C299.369 16.352 299.489 16.4 299.585 16.512C299.681 16.624 299.729 16.816 299.729 17.088C299.729 17.28 299.689 17.456 299.609 17.616C299.545 17.776 299.425 17.888 299.249 17.952C299.057 18.016 298.801 18.072 298.481 18.12C298.177 18.184 297.897 18.216 297.641 18.216ZM302.452 18.12C302.132 18.12 301.892 18.032 301.732 17.856C301.572 17.664 301.492 17.4 301.492 17.064V7.248C301.492 6.912 301.572 6.656 301.732 6.48C301.892 6.304 302.132 6.216 302.452 6.216C302.756 6.216 302.996 6.304 303.172 6.48C303.348 6.656 303.436 6.912 303.436 7.248V17.064C303.436 17.4 303.348 17.664 303.172 17.856C303.012 18.032 302.772 18.12 302.452 18.12ZM302.452 3.528C302.052 3.528 301.74 3.424 301.516 3.216C301.292 2.992 301.18 2.696 301.18 2.328C301.18 1.944 301.292 1.656 301.516 1.464C301.74 1.256 302.052 1.152 302.452 1.152C302.868 1.152 303.18 1.256 303.388 1.464C303.612 1.656 303.724 1.944 303.724 2.328C303.724 2.696 303.612 2.992 303.388 3.216C303.18 3.424 302.868 3.528 302.452 3.528ZM308.03 22.488C307.71 22.488 307.47 22.4 307.31 22.224C307.15 22.064 307.07 21.824 307.07 21.504V7.152C307.07 6.832 307.15 6.592 307.31 6.432C307.47 6.256 307.702 6.168 308.006 6.168C308.326 6.168 308.566 6.256 308.726 6.432C308.902 6.592 308.99 6.832 308.99 7.152V9.432L308.726 9.096C308.982 8.184 309.486 7.464 310.238 6.936C311.006 6.392 311.918 6.12 312.974 6.12C314.014 6.12 314.918 6.368 315.686 6.864C316.47 7.344 317.07 8.04 317.486 8.952C317.918 9.848 318.134 10.92 318.134 12.168C318.134 13.4 317.918 14.472 317.486 15.384C317.07 16.28 316.478 16.976 315.71 17.472C314.942 17.968 314.03 18.216 312.974 18.216C311.918 18.216 311.014 17.952 310.262 17.424C309.51 16.88 308.998 16.16 308.726 15.264H309.014V21.504C309.014 21.824 308.926 22.064 308.75 22.224C308.574 22.4 308.334 22.488 308.03 22.488ZM312.566 16.656C313.302 16.656 313.934 16.48 314.462 16.128C315.006 15.776 315.422 15.264 315.71 14.592C316.014 13.92 316.166 13.112 316.166 12.168C316.166 10.712 315.838 9.6 315.182 8.832C314.542 8.064 313.67 7.68 312.566 7.68C311.846 7.68 311.214 7.856 310.67 8.208C310.126 8.544 309.702 9.048 309.398 9.72C309.11 10.376 308.966 11.192 308.966 12.168C308.966 13.608 309.294 14.72 309.95 15.504C310.606 16.272 311.478 16.656 312.566 16.656ZM324.614 18.216C323.462 18.216 322.582 17.864 321.974 17.16C321.366 16.456 321.062 15.448 321.062 14.136V1.896C321.062 1.576 321.142 1.336 321.302 1.176C321.462 1 321.702 0.912 322.022 0.912C322.326 0.912 322.566 1 322.742 1.176C322.918 1.336 323.006 1.576 323.006 1.896V13.992C323.006 14.856 323.174 15.504 323.51 15.936C323.862 16.352 324.374 16.56 325.046 16.56C325.19 16.56 325.318 16.552 325.43 16.536C325.542 16.52 325.654 16.512 325.766 16.512C325.942 16.496 326.062 16.536 326.126 16.632C326.206 16.728 326.246 16.92 326.246 17.208C326.246 17.496 326.182 17.712 326.054 17.856C325.926 18 325.718 18.096 325.43 18.144C325.302 18.16 325.166 18.176 325.022 18.192C324.878 18.208 324.742 18.216 324.614 18.216ZM329.124 18.12C328.804 18.12 328.564 18.032 328.404 17.856C328.244 17.664 328.164 17.4 328.164 17.064V7.248C328.164 6.912 328.244 6.656 328.404 6.48C328.564 6.304 328.804 6.216 329.124 6.216C329.428 6.216 329.668 6.304 329.844 6.48C330.02 6.656 330.108 6.912 330.108 7.248V17.064C330.108 17.4 330.02 17.664 329.844 17.856C329.684 18.032 329.444 18.12 329.124 18.12ZM329.124 3.528C328.724 3.528 328.412 3.424 328.188 3.216C327.964 2.992 327.852 2.696 327.852 2.328C327.852 1.944 327.964 1.656 328.188 1.464C328.412 1.256 328.724 1.152 329.124 1.152C329.54 1.152 329.852 1.256 330.06 1.464C330.284 1.656 330.396 1.944 330.396 2.328C330.396 2.696 330.284 2.992 330.06 3.216C329.852 3.424 329.54 3.528 329.124 3.528ZM338.998 18.216C337.766 18.216 336.702 17.976 335.806 17.496C334.926 17 334.238 16.304 333.742 15.408C333.262 14.512 333.022 13.44 333.022 12.192C333.022 10.976 333.262 9.92 333.742 9.024C334.222 8.112 334.878 7.4 335.71 6.888C336.558 6.376 337.534 6.12 338.638 6.12C339.422 6.12 340.126 6.256 340.75 6.528C341.374 6.784 341.902 7.16 342.334 7.656C342.782 8.152 343.118 8.752 343.342 9.456C343.582 10.16 343.702 10.952 343.702 11.832C343.702 12.088 343.63 12.28 343.486 12.408C343.342 12.52 343.134 12.576 342.862 12.576H334.51V11.304H342.406L342.022 11.616C342.022 10.752 341.894 10.024 341.638 9.432C341.382 8.824 341.006 8.36 340.51 8.04C340.03 7.72 339.422 7.56 338.686 7.56C337.87 7.56 337.174 7.752 336.598 8.136C336.038 8.504 335.614 9.024 335.326 9.696C335.038 10.352 334.894 11.12 334.894 12V12.144C334.894 13.616 335.246 14.736 335.95 15.504C336.67 16.272 337.686 16.656 338.998 16.656C339.542 16.656 340.078 16.584 340.606 16.44C341.15 16.296 341.678 16.056 342.19 15.72C342.414 15.576 342.614 15.512 342.79 15.528C342.982 15.528 343.134 15.584 343.246 15.696C343.358 15.792 343.43 15.92 343.462 16.08C343.51 16.224 343.494 16.384 343.414 16.56C343.35 16.736 343.214 16.888 343.006 17.016C342.478 17.4 341.854 17.696 341.134 17.904C340.414 18.112 339.702 18.216 338.998 18.216ZM350.955 18.216C349.915 18.216 349.003 17.968 348.219 17.472C347.451 16.976 346.851 16.28 346.419 15.384C346.003 14.472 345.795 13.4 345.795 12.168C345.795 10.92 346.003 9.848 346.419 8.952C346.851 8.04 347.451 7.344 348.219 6.864C349.003 6.368 349.915 6.12 350.955 6.12C352.011 6.12 352.915 6.384 353.667 6.912C354.419 7.44 354.923 8.152 355.179 9.048H354.915V1.896C354.915 1.576 354.995 1.336 355.155 1.176C355.331 1 355.579 0.912 355.899 0.912C356.203 0.912 356.435 1 356.595 1.176C356.771 1.336 356.859 1.576 356.859 1.896V17.16C356.859 17.48 356.779 17.728 356.619 17.904C356.459 18.08 356.219 18.168 355.899 18.168C355.595 18.168 355.355 18.08 355.179 17.904C355.019 17.728 354.939 17.48 354.939 17.16V14.88L355.203 15.216C354.947 16.128 354.435 16.856 353.667 17.4C352.915 17.944 352.011 18.216 350.955 18.216ZM351.363 16.656C352.083 16.656 352.715 16.48 353.259 16.128C353.803 15.776 354.219 15.264 354.507 14.592C354.811 13.92 354.963 13.112 354.963 12.168C354.963 10.712 354.635 9.6 353.979 8.832C353.339 8.064 352.467 7.68 351.363 7.68C350.627 7.68 349.987 7.856 349.443 8.208C348.915 8.544 348.499 9.048 348.195 9.72C347.907 10.376 347.763 11.192 347.763 12.168C347.763 13.608 348.091 14.72 348.747 15.504C349.403 16.272 350.275 16.656 351.363 16.656ZM371.375 18.216C370.463 18.216 369.695 18.056 369.071 17.736C368.463 17.4 368.007 16.92 367.703 16.296C367.399 15.656 367.247 14.88 367.247 13.968V7.848H365.639C365.367 7.848 365.159 7.784 365.015 7.656C364.871 7.512 364.799 7.32 364.799 7.08C364.799 6.84 364.871 6.656 365.015 6.528C365.159 6.4 365.367 6.336 365.639 6.336H367.247V3.576C367.247 3.256 367.335 3.016 367.511 2.856C367.687 2.68 367.927 2.592 368.231 2.592C368.535 2.592 368.767 2.68 368.927 2.856C369.103 3.016 369.191 3.256 369.191 3.576V6.336H372.215C372.487 6.336 372.695 6.4 372.839 6.528C372.983 6.656 373.055 6.84 373.055 7.08C373.055 7.32 372.983 7.512 372.839 7.656C372.695 7.784 372.487 7.848 372.215 7.848H369.191V13.776C369.191 14.688 369.383 15.384 369.767 15.864C370.151 16.328 370.775 16.56 371.639 16.56C371.943 16.56 372.199 16.528 372.407 16.464C372.631 16.4 372.815 16.368 372.959 16.368C373.103 16.352 373.223 16.4 373.319 16.512C373.415 16.624 373.463 16.816 373.463 17.088C373.463 17.28 373.423 17.456 373.343 17.616C373.279 17.776 373.159 17.888 372.983 17.952C372.791 18.016 372.535 18.072 372.215 18.12C371.911 18.184 371.631 18.216 371.375 18.216ZM379.817 18.216C378.681 18.216 377.697 17.968 376.865 17.472C376.033 16.976 375.385 16.28 374.921 15.384C374.473 14.472 374.249 13.4 374.249 12.168C374.249 11.24 374.377 10.408 374.633 9.672C374.889 8.92 375.265 8.28 375.761 7.752C376.257 7.224 376.841 6.824 377.513 6.552C378.201 6.264 378.969 6.12 379.817 6.12C380.953 6.12 381.937 6.368 382.769 6.864C383.601 7.36 384.241 8.064 384.689 8.976C385.153 9.872 385.385 10.936 385.385 12.168C385.385 13.096 385.257 13.928 385.001 14.664C384.745 15.4 384.369 16.04 383.873 16.584C383.377 17.112 382.785 17.52 382.097 17.808C381.425 18.08 380.665 18.216 379.817 18.216ZM379.817 16.656C380.537 16.656 381.169 16.48 381.713 16.128C382.257 15.776 382.673 15.264 382.961 14.592C383.265 13.92 383.417 13.112 383.417 12.168C383.417 10.712 383.089 9.6 382.433 8.832C381.793 8.064 380.921 7.68 379.817 7.68C379.081 7.68 378.441 7.856 377.897 8.208C377.369 8.544 376.953 9.048 376.649 9.72C376.361 10.376 376.217 11.192 376.217 12.168C376.217 13.608 376.545 14.72 377.201 15.504C377.857 16.272 378.729 16.656 379.817 16.656ZM399.172 18.216C398.26 18.216 397.492 18.056 396.868 17.736C396.26 17.4 395.804 16.92 395.5 16.296C395.196 15.656 395.044 14.88 395.044 13.968V7.848H393.436C393.164 7.848 392.956 7.784 392.812 7.656C392.668 7.512 392.596 7.32 392.596 7.08C392.596 6.84 392.668 6.656 392.812 6.528C392.956 6.4 393.164 6.336 393.436 6.336H395.044V3.576C395.044 3.256 395.132 3.016 395.308 2.856C395.484 2.68 395.724 2.592 396.028 2.592C396.332 2.592 396.564 2.68 396.724 2.856C396.9 3.016 396.988 3.256 396.988 3.576V6.336H400.012C400.284 6.336 400.492 6.4 400.636 6.528C400.78 6.656 400.852 6.84 400.852 7.08C400.852 7.32 400.78 7.512 400.636 7.656C400.492 7.784 400.284 7.848 400.012 7.848H396.988V13.776C396.988 14.688 397.18 15.384 397.564 15.864C397.948 16.328 398.572 16.56 399.436 16.56C399.74 16.56 399.996 16.528 400.204 16.464C400.428 16.4 400.612 16.368 400.756 16.368C400.9 16.352 401.02 16.4 401.116 16.512C401.212 16.624 401.26 16.816 401.26 17.088C401.26 17.28 401.22 17.456 401.14 17.616C401.076 17.776 400.956 17.888 400.78 17.952C400.588 18.016 400.332 18.072 400.012 18.12C399.708 18.184 399.428 18.216 399.172 18.216ZM403.983 18.168C403.663 18.168 403.423 18.08 403.263 17.904C403.103 17.728 403.023 17.48 403.023 17.16V1.896C403.023 1.576 403.103 1.336 403.263 1.176C403.423 1 403.663 0.912 403.983 0.912C404.287 0.912 404.527 1 404.703 1.176C404.879 1.336 404.967 1.576 404.967 1.896V8.928H404.655C404.991 8 405.535 7.304 406.287 6.84C407.055 6.36 407.935 6.12 408.927 6.12C409.855 6.12 410.623 6.288 411.231 6.624C411.855 6.96 412.319 7.472 412.623 8.16C412.927 8.832 413.079 9.688 413.079 10.728V17.16C413.079 17.48 412.991 17.728 412.815 17.904C412.655 18.08 412.423 18.168 412.119 18.168C411.799 18.168 411.551 18.08 411.375 17.904C411.215 17.728 411.135 17.48 411.135 17.16V10.848C411.135 9.76 410.919 8.968 410.487 8.472C410.071 7.96 409.399 7.704 408.471 7.704C407.399 7.704 406.543 8.04 405.903 8.712C405.279 9.368 404.967 10.248 404.967 11.352V17.16C404.967 17.832 404.639 18.168 403.983 18.168ZM421.92 18.216C420.688 18.216 419.624 17.976 418.728 17.496C417.848 17 417.16 16.304 416.664 15.408C416.184 14.512 415.944 13.44 415.944 12.192C415.944 10.976 416.184 9.92 416.664 9.024C417.144 8.112 417.8 7.4 418.632 6.888C419.48 6.376 420.456 6.12 421.56 6.12C422.344 6.12 423.048 6.256 423.672 6.528C424.296 6.784 424.824 7.16 425.256 7.656C425.704 8.152 426.04 8.752 426.264 9.456C426.504 10.16 426.624 10.952 426.624 11.832C426.624 12.088 426.552 12.28 426.408 12.408C426.264 12.52 426.056 12.576 425.784 12.576H417.432V11.304H425.328L424.944 11.616C424.944 10.752 424.816 10.024 424.56 9.432C424.304 8.824 423.928 8.36 423.432 8.04C422.952 7.72 422.344 7.56 421.608 7.56C420.792 7.56 420.096 7.752 419.52 8.136C418.96 8.504 418.536 9.024 418.248 9.696C417.96 10.352 417.816 11.12 417.816 12V12.144C417.816 13.616 418.168 14.736 418.872 15.504C419.592 16.272 420.608 16.656 421.92 16.656C422.464 16.656 423 16.584 423.528 16.44C424.072 16.296 424.6 16.056 425.112 15.72C425.336 15.576 425.536 15.512 425.712 15.528C425.904 15.528 426.056 15.584 426.168 15.696C426.28 15.792 426.352 15.92 426.384 16.08C426.432 16.224 426.416 16.384 426.336 16.56C426.272 16.736 426.136 16.888 425.928 17.016C425.4 17.4 424.776 17.696 424.056 17.904C423.336 18.112 422.624 18.216 421.92 18.216ZM439.297 18.216C438.497 18.216 437.777 18.064 437.137 17.76C436.513 17.44 436.017 17.008 435.649 16.464C435.281 15.92 435.097 15.312 435.097 14.64C435.097 13.776 435.313 13.096 435.745 12.6C436.193 12.104 436.921 11.752 437.929 11.544C438.953 11.336 440.345 11.232 442.105 11.232H443.185V12.504H442.129C440.833 12.504 439.809 12.568 439.057 12.696C438.321 12.808 437.801 13.008 437.497 13.296C437.209 13.584 437.065 13.992 437.065 14.52C437.065 15.176 437.289 15.712 437.737 16.128C438.201 16.544 438.825 16.752 439.609 16.752C440.249 16.752 440.809 16.6 441.289 16.296C441.785 15.992 442.169 15.576 442.441 15.048C442.729 14.52 442.873 13.912 442.873 13.224V10.488C442.873 9.496 442.673 8.784 442.273 8.352C441.873 7.904 441.217 7.68 440.305 7.68C439.745 7.68 439.185 7.752 438.625 7.896C438.065 8.04 437.473 8.272 436.849 8.592C436.625 8.704 436.433 8.744 436.273 8.712C436.113 8.664 435.985 8.576 435.889 8.448C435.793 8.32 435.737 8.176 435.721 8.016C435.705 7.84 435.737 7.672 435.817 7.512C435.913 7.352 436.057 7.224 436.249 7.128C436.953 6.776 437.649 6.52 438.337 6.36C439.025 6.2 439.681 6.12 440.305 6.12C441.313 6.12 442.145 6.288 442.801 6.624C443.457 6.944 443.945 7.44 444.265 8.112C444.585 8.768 444.745 9.616 444.745 10.656V17.16C444.745 17.48 444.665 17.728 444.505 17.904C444.361 18.08 444.145 18.168 443.857 18.168C443.553 18.168 443.321 18.08 443.161 17.904C443.001 17.728 442.921 17.48 442.921 17.16V15.288H443.137C443.009 15.896 442.761 16.416 442.393 16.848C442.041 17.28 441.601 17.616 441.073 17.856C440.545 18.096 439.953 18.216 439.297 18.216ZM449.335 18.168C449.015 18.168 448.767 18.08 448.591 17.904C448.431 17.728 448.351 17.48 448.351 17.16V7.152C448.351 6.832 448.431 6.592 448.591 6.432C448.751 6.256 448.983 6.168 449.287 6.168C449.591 6.168 449.823 6.256 449.983 6.432C450.159 6.592 450.247 6.832 450.247 7.152V9.096H450.007C450.263 8.152 450.751 7.424 451.471 6.912C452.191 6.4 453.079 6.128 454.135 6.096C454.375 6.08 454.567 6.136 454.711 6.264C454.855 6.376 454.935 6.576 454.951 6.864C454.967 7.136 454.903 7.352 454.759 7.512C454.615 7.672 454.391 7.768 454.087 7.8L453.703 7.848C452.615 7.944 451.775 8.296 451.183 8.904C450.607 9.496 450.319 10.312 450.319 11.352V17.16C450.319 17.48 450.231 17.728 450.055 17.904C449.895 18.08 449.655 18.168 449.335 18.168ZM462.068 18.216C460.836 18.216 459.772 17.976 458.876 17.496C457.996 17 457.308 16.304 456.812 15.408C456.332 14.512 456.092 13.44 456.092 12.192C456.092 10.976 456.332 9.92 456.812 9.024C457.292 8.112 457.948 7.4 458.78 6.888C459.628 6.376 460.604 6.12 461.708 6.12C462.492 6.12 463.196 6.256 463.82 6.528C464.444 6.784 464.972 7.16 465.404 7.656C465.852 8.152 466.188 8.752 466.412 9.456C466.652 10.16 466.772 10.952 466.772 11.832C466.772 12.088 466.7 12.28 466.556 12.408C466.412 12.52 466.204 12.576 465.932 12.576H457.58V11.304H465.476L465.092 11.616C465.092 10.752 464.964 10.024 464.708 9.432C464.452 8.824 464.076 8.36 463.58 8.04C463.1 7.72 462.492 7.56 461.756 7.56C460.94 7.56 460.244 7.752 459.668 8.136C459.108 8.504 458.684 9.024 458.396 9.696C458.108 10.352 457.964 11.12 457.964 12V12.144C457.964 13.616 458.316 14.736 459.02 15.504C459.74 16.272 460.756 16.656 462.068 16.656C462.612 16.656 463.148 16.584 463.676 16.44C464.22 16.296 464.748 16.056 465.26 15.72C465.484 15.576 465.684 15.512 465.86 15.528C466.052 15.528 466.204 15.584 466.316 15.696C466.428 15.792 466.5 15.92 466.532 16.08C466.58 16.224 466.564 16.384 466.484 16.56C466.42 16.736 466.284 16.888 466.076 17.016C465.548 17.4 464.924 17.696 464.204 17.904C463.484 18.112 462.772 18.216 462.068 18.216ZM473.258 18.216C472.458 18.216 471.738 18.064 471.098 17.76C470.474 17.44 469.978 17.008 469.61 16.464C469.242 15.92 469.058 15.312 469.058 14.64C469.058 13.776 469.274 13.096 469.706 12.6C470.154 12.104 470.882 11.752 471.89 11.544C472.914 11.336 474.306 11.232 476.066 11.232H477.146V12.504H476.09C474.794 12.504 473.77 12.568 473.018 12.696C472.282 12.808 471.762 13.008 471.458 13.296C471.17 13.584 471.026 13.992 471.026 14.52C471.026 15.176 471.25 15.712 471.698 16.128C472.162 16.544 472.786 16.752 473.57 16.752C474.21 16.752 474.77 16.6 475.25 16.296C475.746 15.992 476.13 15.576 476.402 15.048C476.69 14.52 476.834 13.912 476.834 13.224V10.488C476.834 9.496 476.634 8.784 476.234 8.352C475.834 7.904 475.178 7.68 474.266 7.68C473.706 7.68 473.146 7.752 472.586 7.896C472.026 8.04 471.434 8.272 470.81 8.592C470.586 8.704 470.394 8.744 470.234 8.712C470.074 8.664 469.946 8.576 469.85 8.448C469.754 8.32 469.698 8.176 469.682 8.016C469.666 7.84 469.698 7.672 469.778 7.512C469.874 7.352 470.018 7.224 470.21 7.128C470.914 6.776 471.61 6.52 472.298 6.36C472.986 6.2 473.642 6.12 474.266 6.12C475.274 6.12 476.106 6.288 476.762 6.624C477.418 6.944 477.906 7.44 478.226 8.112C478.546 8.768 478.706 9.616 478.706 10.656V17.16C478.706 17.48 478.626 17.728 478.466 17.904C478.322 18.08 478.106 18.168 477.818 18.168C477.514 18.168 477.282 18.08 477.122 17.904C476.962 17.728 476.882 17.48 476.882 17.16V15.288H477.098C476.97 15.896 476.722 16.416 476.354 16.848C476.002 17.28 475.562 17.616 475.034 17.856C474.506 18.096 473.914 18.216 473.258 18.216ZM493.348 18.216C492.212 18.216 491.228 17.968 490.396 17.472C489.564 16.976 488.916 16.28 488.452 15.384C488.004 14.472 487.78 13.4 487.78 12.168C487.78 11.24 487.908 10.408 488.164 9.672C488.42 8.92 488.796 8.28 489.292 7.752C489.788 7.224 490.372 6.824 491.044 6.552C491.732 6.264 492.5 6.12 493.348 6.12C494.484 6.12 495.468 6.368 496.3 6.864C497.132 7.36 497.772 8.064 498.22 8.976C498.684 9.872 498.916 10.936 498.916 12.168C498.916 13.096 498.788 13.928 498.532 14.664C498.276 15.4 497.9 16.04 497.404 16.584C496.908 17.112 496.316 17.52 495.628 17.808C494.956 18.08 494.196 18.216 493.348 18.216ZM493.348 16.656C494.068 16.656 494.7 16.48 495.244 16.128C495.788 15.776 496.204 15.264 496.492 14.592C496.796 13.92 496.948 13.112 496.948 12.168C496.948 10.712 496.62 9.6 495.964 8.832C495.324 8.064 494.452 7.68 493.348 7.68C492.612 7.68 491.972 7.856 491.428 8.208C490.9 8.544 490.484 9.048 490.18 9.72C489.892 10.376 489.748 11.192 489.748 12.168C489.748 13.608 490.076 14.72 490.732 15.504C491.388 16.272 492.26 16.656 493.348 16.656ZM503.303 18.168C502.999 18.168 502.759 18.08 502.583 17.904C502.423 17.728 502.343 17.48 502.343 17.16V7.848H500.807C500.551 7.848 500.343 7.784 500.183 7.656C500.039 7.512 499.967 7.32 499.967 7.08C499.967 6.84 500.039 6.656 500.183 6.528C500.343 6.4 500.551 6.336 500.807 6.336H502.871L502.343 6.84V5.928C502.343 4.408 502.711 3.248 503.447 2.448C504.199 1.648 505.295 1.184 506.735 1.056L507.431 0.983999C507.655 0.967999 507.831 1.008 507.959 1.104C508.103 1.2 508.191 1.32 508.223 1.464C508.271 1.608 508.279 1.76 508.247 1.92C508.215 2.064 508.143 2.192 508.031 2.304C507.919 2.416 507.783 2.48 507.623 2.496L507.071 2.544C506.095 2.624 505.383 2.92 504.935 3.432C504.503 3.944 504.287 4.696 504.287 5.688V6.696L503.999 6.336H506.879C507.151 6.336 507.359 6.4 507.503 6.528C507.647 6.656 507.719 6.84 507.719 7.08C507.719 7.32 507.647 7.512 507.503 7.656C507.359 7.784 507.151 7.848 506.879 7.848H504.287V17.16C504.287 17.832 503.959 18.168 503.303 18.168ZM520.578 18.216C519.666 18.216 518.898 18.056 518.274 17.736C517.666 17.4 517.21 16.92 516.906 16.296C516.602 15.656 516.45 14.88 516.45 13.968V7.848H514.842C514.57 7.848 514.362 7.784 514.218 7.656C514.074 7.512 514.002 7.32 514.002 7.08C514.002 6.84 514.074 6.656 514.218 6.528C514.362 6.4 514.57 6.336 514.842 6.336H516.45V3.576C516.45 3.256 516.538 3.016 516.714 2.856C516.89 2.68 517.13 2.592 517.434 2.592C517.738 2.592 517.97 2.68 518.13 2.856C518.306 3.016 518.394 3.256 518.394 3.576V6.336H521.418C521.69 6.336 521.898 6.4 522.042 6.528C522.186 6.656 522.258 6.84 522.258 7.08C522.258 7.32 522.186 7.512 522.042 7.656C521.898 7.784 521.69 7.848 521.418 7.848H518.394V13.776C518.394 14.688 518.586 15.384 518.97 15.864C519.354 16.328 519.978 16.56 520.842 16.56C521.146 16.56 521.402 16.528 521.61 16.464C521.834 16.4 522.018 16.368 522.162 16.368C522.306 16.352 522.426 16.4 522.522 16.512C522.618 16.624 522.666 16.816 522.666 17.088C522.666 17.28 522.626 17.456 522.546 17.616C522.482 17.776 522.362 17.888 522.186 17.952C521.994 18.016 521.738 18.072 521.418 18.12C521.114 18.184 520.834 18.216 520.578 18.216ZM525.389 18.168C525.069 18.168 524.829 18.08 524.669 17.904C524.509 17.728 524.429 17.48 524.429 17.16V1.896C524.429 1.576 524.509 1.336 524.669 1.176C524.829 1 525.069 0.912 525.389 0.912C525.693 0.912 525.933 1 526.109 1.176C526.285 1.336 526.373 1.576 526.373 1.896V8.928H526.061C526.397 8 526.941 7.304 527.693 6.84C528.461 6.36 529.341 6.12 530.333 6.12C531.261 6.12 532.029 6.288 532.637 6.624C533.261 6.96 533.725 7.472 534.029 8.16C534.333 8.832 534.485 9.688 534.485 10.728V17.16C534.485 17.48 534.397 17.728 534.221 17.904C534.061 18.08 533.829 18.168 533.525 18.168C533.205 18.168 532.957 18.08 532.781 17.904C532.621 17.728 532.541 17.48 532.541 17.16V10.848C532.541 9.76 532.325 8.968 531.893 8.472C531.477 7.96 530.805 7.704 529.877 7.704C528.805 7.704 527.949 8.04 527.309 8.712C526.685 9.368 526.373 10.248 526.373 11.352V17.16C526.373 17.832 526.045 18.168 525.389 18.168ZM543.326 18.216C542.094 18.216 541.03 17.976 540.134 17.496C539.254 17 538.566 16.304 538.07 15.408C537.59 14.512 537.35 13.44 537.35 12.192C537.35 10.976 537.59 9.92 538.07 9.024C538.55 8.112 539.206 7.4 540.038 6.888C540.886 6.376 541.862 6.12 542.966 6.12C543.75 6.12 544.454 6.256 545.078 6.528C545.702 6.784 546.23 7.16 546.662 7.656C547.11 8.152 547.446 8.752 547.67 9.456C547.91 10.16 548.03 10.952 548.03 11.832C548.03 12.088 547.958 12.28 547.814 12.408C547.67 12.52 547.462 12.576 547.19 12.576H538.838V11.304H546.734L546.35 11.616C546.35 10.752 546.222 10.024 545.966 9.432C545.71 8.824 545.334 8.36 544.838 8.04C544.358 7.72 543.75 7.56 543.014 7.56C542.198 7.56 541.502 7.752 540.926 8.136C540.366 8.504 539.942 9.024 539.654 9.696C539.366 10.352 539.222 11.12 539.222 12V12.144C539.222 13.616 539.574 14.736 540.278 15.504C540.998 16.272 542.014 16.656 543.326 16.656C543.87 16.656 544.406 16.584 544.934 16.44C545.478 16.296 546.006 16.056 546.518 15.72C546.742 15.576 546.942 15.512 547.118 15.528C547.31 15.528 547.462 15.584 547.574 15.696C547.686 15.792 547.758 15.92 547.79 16.08C547.838 16.224 547.822 16.384 547.742 16.56C547.678 16.736 547.542 16.888 547.334 17.016C546.806 17.4 546.182 17.696 545.462 17.904C544.742 18.112 544.03 18.216 543.326 18.216ZM97.9828 50.216C96.8148 50.216 95.8068 49.96 94.9588 49.448C94.1108 48.936 93.4548 48.224 92.9908 47.312C92.5428 46.384 92.3188 45.312 92.3188 44.096C92.3188 43.168 92.4468 42.336 92.7028 41.6C92.9588 40.864 93.3348 40.24 93.8308 39.728C94.3268 39.2 94.9188 38.8 95.6068 38.528C96.3108 38.256 97.1028 38.12 97.9828 38.12C98.5588 38.12 99.1588 38.208 99.7828 38.384C100.407 38.56 100.975 38.864 101.487 39.296C101.647 39.408 101.751 39.544 101.799 39.704C101.847 39.864 101.847 40.024 101.799 40.184C101.751 40.328 101.671 40.456 101.559 40.568C101.447 40.664 101.303 40.72 101.127 40.736C100.967 40.752 100.799 40.696 100.623 40.568C100.207 40.248 99.7828 40.024 99.3508 39.896C98.9188 39.768 98.5028 39.704 98.1028 39.704C97.4788 39.704 96.9348 39.808 96.4708 40.016C96.0068 40.208 95.6148 40.488 95.2948 40.856C94.9748 41.224 94.7268 41.68 94.5508 42.224C94.3908 42.768 94.3108 43.4 94.3108 44.12C94.3108 45.512 94.6388 46.616 95.2948 47.432C95.9508 48.232 96.8868 48.632 98.1028 48.632C98.5028 48.632 98.9108 48.568 99.3268 48.44C99.7588 48.312 100.191 48.088 100.623 47.768C100.799 47.64 100.967 47.584 101.127 47.6C101.287 47.616 101.423 47.68 101.535 47.792C101.647 47.888 101.719 48.016 101.751 48.176C101.799 48.336 101.799 48.496 101.751 48.656C101.703 48.8 101.599 48.928 101.439 49.04C100.927 49.456 100.367 49.76 99.7588 49.952C99.1508 50.128 98.5588 50.216 97.9828 50.216ZM105.108 50.12C104.788 50.12 104.548 50.032 104.388 49.856C104.228 49.664 104.148 49.4 104.148 49.064V39.248C104.148 38.912 104.228 38.656 104.388 38.48C104.548 38.304 104.788 38.216 105.108 38.216C105.412 38.216 105.652 38.304 105.828 38.48C106.004 38.656 106.092 38.912 106.092 39.248V49.064C106.092 49.4 106.004 49.664 105.828 49.856C105.668 50.032 105.428 50.12 105.108 50.12ZM105.108 35.528C104.708 35.528 104.396 35.424 104.172 35.216C103.948 34.992 103.836 34.696 103.836 34.328C103.836 33.944 103.948 33.656 104.172 33.464C104.396 33.256 104.708 33.152 105.108 33.152C105.524 33.152 105.836 33.256 106.044 33.464C106.268 33.656 106.38 33.944 106.38 34.328C106.38 34.696 106.268 34.992 106.044 35.216C105.836 35.424 105.524 35.528 105.108 35.528ZM110.71 50.168C110.39 50.168 110.142 50.08 109.966 49.904C109.806 49.728 109.726 49.48 109.726 49.16V39.152C109.726 38.832 109.806 38.592 109.966 38.432C110.126 38.256 110.358 38.168 110.662 38.168C110.966 38.168 111.198 38.256 111.358 38.432C111.534 38.592 111.622 38.832 111.622 39.152V41.096H111.382C111.638 40.152 112.126 39.424 112.846 38.912C113.566 38.4 114.454 38.128 115.51 38.096C115.75 38.08 115.942 38.136 116.086 38.264C116.23 38.376 116.31 38.576 116.326 38.864C116.342 39.136 116.278 39.352 116.134 39.512C115.99 39.672 115.766 39.768 115.462 39.8L115.078 39.848C113.99 39.944 113.15 40.296 112.558 40.904C111.982 41.496 111.694 42.312 111.694 43.352V49.16C111.694 49.48 111.606 49.728 111.43 49.904C111.27 50.08 111.03 50.168 110.71 50.168ZM123.131 50.216C121.963 50.216 120.955 49.96 120.107 49.448C119.259 48.936 118.603 48.224 118.139 47.312C117.691 46.384 117.467 45.312 117.467 44.096C117.467 43.168 117.595 42.336 117.851 41.6C118.107 40.864 118.483 40.24 118.979 39.728C119.475 39.2 120.067 38.8 120.755 38.528C121.459 38.256 122.251 38.12 123.131 38.12C123.707 38.12 124.307 38.208 124.931 38.384C125.555 38.56 126.123 38.864 126.635 39.296C126.795 39.408 126.899 39.544 126.947 39.704C126.995 39.864 126.995 40.024 126.947 40.184C126.899 40.328 126.819 40.456 126.707 40.568C126.595 40.664 126.451 40.72 126.275 40.736C126.115 40.752 125.947 40.696 125.771 40.568C125.355 40.248 124.931 40.024 124.499 39.896C124.067 39.768 123.651 39.704 123.251 39.704C122.627 39.704 122.083 39.808 121.619 40.016C121.155 40.208 120.763 40.488 120.443 40.856C120.123 41.224 119.875 41.68 119.699 42.224C119.539 42.768 119.459 43.4 119.459 44.12C119.459 45.512 119.787 46.616 120.443 47.432C121.099 48.232 122.035 48.632 123.251 48.632C123.651 48.632 124.059 48.568 124.475 48.44C124.907 48.312 125.339 48.088 125.771 47.768C125.947 47.64 126.115 47.584 126.275 47.6C126.435 47.616 126.571 47.68 126.683 47.792C126.795 47.888 126.867 48.016 126.899 48.176C126.947 48.336 126.947 48.496 126.899 48.656C126.851 48.8 126.747 48.928 126.587 49.04C126.075 49.456 125.515 49.76 124.907 49.952C124.299 50.128 123.707 50.216 123.131 50.216ZM132.849 50.216C131.697 50.216 130.817 49.864 130.209 49.16C129.601 48.456 129.297 47.448 129.297 46.136V33.896C129.297 33.576 129.377 33.336 129.537 33.176C129.697 33 129.937 32.912 130.257 32.912C130.561 32.912 130.801 33 130.977 33.176C131.153 33.336 131.241 33.576 131.241 33.896V45.992C131.241 46.856 131.409 47.504 131.745 47.936C132.097 48.352 132.609 48.56 133.281 48.56C133.425 48.56 133.553 48.552 133.665 48.536C133.777 48.52 133.889 48.512 134.001 48.512C134.177 48.496 134.297 48.536 134.361 48.632C134.441 48.728 134.481 48.92 134.481 49.208C134.481 49.496 134.417 49.712 134.289 49.856C134.161 50 133.953 50.096 133.665 50.144C133.537 50.16 133.401 50.176 133.257 50.192C133.113 50.208 132.977 50.216 132.849 50.216ZM141.537 50.216C140.305 50.216 139.241 49.976 138.345 49.496C137.465 49 136.777 48.304 136.281 47.408C135.801 46.512 135.561 45.44 135.561 44.192C135.561 42.976 135.801 41.92 136.281 41.024C136.761 40.112 137.417 39.4 138.249 38.888C139.097 38.376 140.073 38.12 141.177 38.12C141.961 38.12 142.665 38.256 143.289 38.528C143.913 38.784 144.441 39.16 144.873 39.656C145.321 40.152 145.657 40.752 145.881 41.456C146.121 42.16 146.241 42.952 146.241 43.832C146.241 44.088 146.169 44.28 146.025 44.408C145.881 44.52 145.673 44.576 145.401 44.576H137.049V43.304H144.945L144.561 43.616C144.561 42.752 144.433 42.024 144.177 41.432C143.921 40.824 143.545 40.36 143.049 40.04C142.569 39.72 141.961 39.56 141.225 39.56C140.409 39.56 139.713 39.752 139.137 40.136C138.577 40.504 138.153 41.024 137.865 41.696C137.577 42.352 137.433 43.12 137.433 44V44.144C137.433 45.616 137.785 46.736 138.489 47.504C139.209 48.272 140.225 48.656 141.537 48.656C142.081 48.656 142.617 48.584 143.145 48.44C143.689 48.296 144.217 48.056 144.729 47.72C144.953 47.576 145.153 47.512 145.329 47.528C145.521 47.528 145.673 47.584 145.785 47.696C145.897 47.792 145.969 47.92 146.001 48.08C146.049 48.224 146.033 48.384 145.953 48.56C145.889 48.736 145.753 48.888 145.545 49.016C145.017 49.4 144.393 49.696 143.673 49.904C142.953 50.112 142.241 50.216 141.537 50.216ZM159.922 50.216C159.01 50.216 158.242 50.056 157.618 49.736C157.01 49.4 156.554 48.92 156.25 48.296C155.946 47.656 155.794 46.88 155.794 45.968V39.848H154.186C153.914 39.848 153.706 39.784 153.562 39.656C153.418 39.512 153.346 39.32 153.346 39.08C153.346 38.84 153.418 38.656 153.562 38.528C153.706 38.4 153.914 38.336 154.186 38.336H155.794V35.576C155.794 35.256 155.882 35.016 156.058 34.856C156.234 34.68 156.474 34.592 156.778 34.592C157.082 34.592 157.314 34.68 157.474 34.856C157.65 35.016 157.738 35.256 157.738 35.576V38.336H160.762C161.034 38.336 161.242 38.4 161.386 38.528C161.53 38.656 161.602 38.84 161.602 39.08C161.602 39.32 161.53 39.512 161.386 39.656C161.242 39.784 161.034 39.848 160.762 39.848H157.738V45.776C157.738 46.688 157.93 47.384 158.314 47.864C158.698 48.328 159.322 48.56 160.186 48.56C160.49 48.56 160.746 48.528 160.954 48.464C161.178 48.4 161.362 48.368 161.506 48.368C161.65 48.352 161.77 48.4 161.866 48.512C161.962 48.624 162.01 48.816 162.01 49.088C162.01 49.28 161.97 49.456 161.89 49.616C161.826 49.776 161.706 49.888 161.53 49.952C161.338 50.016 161.082 50.072 160.762 50.12C160.458 50.184 160.178 50.216 159.922 50.216ZM168.363 50.216C167.227 50.216 166.243 49.968 165.411 49.472C164.579 48.976 163.931 48.28 163.467 47.384C163.019 46.472 162.795 45.4 162.795 44.168C162.795 43.24 162.923 42.408 163.179 41.672C163.435 40.92 163.811 40.28 164.307 39.752C164.803 39.224 165.387 38.824 166.059 38.552C166.747 38.264 167.515 38.12 168.363 38.12C169.499 38.12 170.483 38.368 171.315 38.864C172.147 39.36 172.787 40.064 173.235 40.976C173.699 41.872 173.931 42.936 173.931 44.168C173.931 45.096 173.803 45.928 173.547 46.664C173.291 47.4 172.915 48.04 172.419 48.584C171.923 49.112 171.331 49.52 170.643 49.808C169.971 50.08 169.211 50.216 168.363 50.216ZM168.363 48.656C169.083 48.656 169.715 48.48 170.259 48.128C170.803 47.776 171.219 47.264 171.507 46.592C171.811 45.92 171.963 45.112 171.963 44.168C171.963 42.712 171.635 41.6 170.979 40.832C170.339 40.064 169.467 39.68 168.363 39.68C167.627 39.68 166.987 39.856 166.443 40.208C165.915 40.544 165.499 41.048 165.195 41.72C164.907 42.376 164.763 43.192 164.763 44.168C164.763 45.608 165.091 46.72 165.747 47.504C166.403 48.272 167.275 48.656 168.363 48.656ZM188.199 54.536C187.351 54.536 186.519 54.432 185.703 54.224C184.903 54.032 184.175 53.72 183.519 53.288C183.327 53.176 183.199 53.04 183.135 52.88C183.087 52.72 183.079 52.56 183.111 52.4C183.143 52.256 183.215 52.12 183.327 51.992C183.439 51.88 183.567 51.808 183.711 51.776C183.871 51.744 184.031 51.768 184.191 51.848C184.895 52.28 185.567 52.576 186.207 52.736C186.847 52.896 187.479 52.976 188.103 52.976C189.239 52.976 190.095 52.672 190.671 52.064C191.263 51.456 191.559 50.576 191.559 49.424V46.712H191.799C191.559 47.64 191.047 48.376 190.263 48.92C189.495 49.464 188.591 49.736 187.551 49.736C186.479 49.736 185.551 49.496 184.767 49.016C183.983 48.52 183.375 47.832 182.943 46.952C182.527 46.072 182.319 45.056 182.319 43.904C182.319 43.04 182.439 42.256 182.679 41.552C182.919 40.832 183.263 40.224 183.711 39.728C184.175 39.216 184.727 38.824 185.367 38.552C186.023 38.264 186.751 38.12 187.551 38.12C188.607 38.12 189.519 38.392 190.287 38.936C191.055 39.464 191.551 40.184 191.775 41.096L191.535 41.384V39.152C191.535 38.832 191.615 38.592 191.775 38.432C191.951 38.256 192.191 38.168 192.495 38.168C192.815 38.168 193.055 38.256 193.215 38.432C193.375 38.592 193.455 38.832 193.455 39.152V49.16C193.455 50.936 193.007 52.272 192.111 53.168C191.231 54.08 189.927 54.536 188.199 54.536ZM187.911 48.152C188.663 48.152 189.311 47.984 189.855 47.648C190.399 47.296 190.815 46.8 191.103 46.16C191.407 45.52 191.559 44.768 191.559 43.904C191.559 42.608 191.231 41.584 190.575 40.832C189.919 40.064 189.031 39.68 187.911 39.68C187.175 39.68 186.535 39.856 185.991 40.208C185.447 40.544 185.023 41.032 184.719 41.672C184.431 42.296 184.287 43.04 184.287 43.904C184.287 45.2 184.615 46.232 185.271 47C185.927 47.768 186.807 48.152 187.911 48.152ZM202.357 50.216C201.125 50.216 200.061 49.976 199.165 49.496C198.285 49 197.597 48.304 197.101 47.408C196.621 46.512 196.381 45.44 196.381 44.192C196.381 42.976 196.621 41.92 197.101 41.024C197.581 40.112 198.237 39.4 199.069 38.888C199.917 38.376 200.893 38.12 201.997 38.12C202.781 38.12 203.485 38.256 204.109 38.528C204.733 38.784 205.261 39.16 205.693 39.656C206.141 40.152 206.477 40.752 206.701 41.456C206.941 42.16 207.061 42.952 207.061 43.832C207.061 44.088 206.989 44.28 206.845 44.408C206.701 44.52 206.493 44.576 206.221 44.576H197.869V43.304H205.765L205.381 43.616C205.381 42.752 205.253 42.024 204.997 41.432C204.741 40.824 204.365 40.36 203.869 40.04C203.389 39.72 202.781 39.56 202.045 39.56C201.229 39.56 200.533 39.752 199.957 40.136C199.397 40.504 198.973 41.024 198.685 41.696C198.397 42.352 198.253 43.12 198.253 44V44.144C198.253 45.616 198.605 46.736 199.309 47.504C200.029 48.272 201.045 48.656 202.357 48.656C202.901 48.656 203.437 48.584 203.965 48.44C204.509 48.296 205.037 48.056 205.549 47.72C205.773 47.576 205.973 47.512 206.149 47.528C206.341 47.528 206.493 47.584 206.605 47.696C206.717 47.792 206.789 47.92 206.821 48.08C206.869 48.224 206.853 48.384 206.773 48.56C206.709 48.736 206.573 48.888 206.365 49.016C205.837 49.4 205.213 49.696 204.493 49.904C203.773 50.112 203.061 50.216 202.357 50.216ZM214.555 50.216C213.643 50.216 212.875 50.056 212.251 49.736C211.643 49.4 211.187 48.92 210.883 48.296C210.579 47.656 210.427 46.88 210.427 45.968V39.848H208.819C208.547 39.848 208.339 39.784 208.195 39.656C208.051 39.512 207.979 39.32 207.979 39.08C207.979 38.84 208.051 38.656 208.195 38.528C208.339 38.4 208.547 38.336 208.819 38.336H210.427V35.576C210.427 35.256 210.515 35.016 210.691 34.856C210.867 34.68 211.107 34.592 211.411 34.592C211.715 34.592 211.947 34.68 212.107 34.856C212.283 35.016 212.371 35.256 212.371 35.576V38.336H215.395C215.667 38.336 215.875 38.4 216.019 38.528C216.163 38.656 216.235 38.84 216.235 39.08C216.235 39.32 216.163 39.512 216.019 39.656C215.875 39.784 215.667 39.848 215.395 39.848H212.371V45.776C212.371 46.688 212.563 47.384 212.947 47.864C213.331 48.328 213.955 48.56 214.819 48.56C215.123 48.56 215.379 48.528 215.587 48.464C215.811 48.4 215.995 48.368 216.139 48.368C216.283 48.352 216.403 48.4 216.499 48.512C216.595 48.624 216.643 48.816 216.643 49.088C216.643 49.28 216.603 49.456 216.523 49.616C216.459 49.776 216.339 49.888 216.163 49.952C215.971 50.016 215.715 50.072 215.395 50.12C215.091 50.184 214.811 50.216 214.555 50.216ZM229.133 50.216C228.221 50.216 227.453 50.056 226.829 49.736C226.221 49.4 225.765 48.92 225.461 48.296C225.157 47.656 225.005 46.88 225.005 45.968V39.848H223.397C223.125 39.848 222.917 39.784 222.773 39.656C222.629 39.512 222.557 39.32 222.557 39.08C222.557 38.84 222.629 38.656 222.773 38.528C222.917 38.4 223.125 38.336 223.397 38.336H225.005V35.576C225.005 35.256 225.093 35.016 225.269 34.856C225.445 34.68 225.685 34.592 225.989 34.592C226.293 34.592 226.525 34.68 226.685 34.856C226.861 35.016 226.949 35.256 226.949 35.576V38.336H229.973C230.245 38.336 230.453 38.4 230.597 38.528C230.741 38.656 230.813 38.84 230.813 39.08C230.813 39.32 230.741 39.512 230.597 39.656C230.453 39.784 230.245 39.848 229.973 39.848H226.949V45.776C226.949 46.688 227.141 47.384 227.525 47.864C227.909 48.328 228.533 48.56 229.397 48.56C229.701 48.56 229.957 48.528 230.165 48.464C230.389 48.4 230.573 48.368 230.717 48.368C230.861 48.352 230.981 48.4 231.077 48.512C231.173 48.624 231.221 48.816 231.221 49.088C231.221 49.28 231.181 49.456 231.101 49.616C231.037 49.776 230.917 49.888 230.741 49.952C230.549 50.016 230.293 50.072 229.973 50.12C229.669 50.184 229.389 50.216 229.133 50.216ZM233.944 50.168C233.624 50.168 233.384 50.08 233.224 49.904C233.064 49.728 232.984 49.48 232.984 49.16V33.896C232.984 33.576 233.064 33.336 233.224 33.176C233.384 33 233.624 32.912 233.944 32.912C234.248 32.912 234.488 33 234.664 33.176C234.84 33.336 234.928 33.576 234.928 33.896V40.928H234.616C234.952 40 235.496 39.304 236.248 38.84C237.016 38.36 237.896 38.12 238.888 38.12C239.816 38.12 240.584 38.288 241.192 38.624C241.816 38.96 242.28 39.472 242.584 40.16C242.888 40.832 243.04 41.688 243.04 42.728V49.16C243.04 49.48 242.952 49.728 242.776 49.904C242.616 50.08 242.384 50.168 242.08 50.168C241.76 50.168 241.512 50.08 241.336 49.904C241.176 49.728 241.096 49.48 241.096 49.16V42.848C241.096 41.76 240.88 40.968 240.448 40.472C240.032 39.96 239.36 39.704 238.432 39.704C237.36 39.704 236.504 40.04 235.864 40.712C235.24 41.368 234.928 42.248 234.928 43.352V49.16C234.928 49.832 234.6 50.168 233.944 50.168ZM251.881 50.216C250.649 50.216 249.585 49.976 248.689 49.496C247.809 49 247.121 48.304 246.625 47.408C246.145 46.512 245.905 45.44 245.905 44.192C245.905 42.976 246.145 41.92 246.625 41.024C247.105 40.112 247.761 39.4 248.593 38.888C249.441 38.376 250.417 38.12 251.521 38.12C252.305 38.12 253.009 38.256 253.633 38.528C254.257 38.784 254.785 39.16 255.217 39.656C255.665 40.152 256.001 40.752 256.225 41.456C256.465 42.16 256.585 42.952 256.585 43.832C256.585 44.088 256.513 44.28 256.369 44.408C256.225 44.52 256.017 44.576 255.745 44.576H247.393V43.304H255.289L254.905 43.616C254.905 42.752 254.777 42.024 254.521 41.432C254.265 40.824 253.889 40.36 253.393 40.04C252.913 39.72 252.305 39.56 251.569 39.56C250.753 39.56 250.057 39.752 249.481 40.136C248.921 40.504 248.497 41.024 248.209 41.696C247.921 42.352 247.777 43.12 247.777 44V44.144C247.777 45.616 248.129 46.736 248.833 47.504C249.553 48.272 250.569 48.656 251.881 48.656C252.425 48.656 252.961 48.584 253.489 48.44C254.033 48.296 254.561 48.056 255.073 47.72C255.297 47.576 255.497 47.512 255.673 47.528C255.865 47.528 256.017 47.584 256.129 47.696C256.241 47.792 256.313 47.92 256.345 48.08C256.393 48.224 256.377 48.384 256.297 48.56C256.233 48.736 256.097 48.888 255.889 49.016C255.361 49.4 254.737 49.696 254.017 49.904C253.297 50.112 252.585 50.216 251.881 50.216ZM269.258 50.216C268.458 50.216 267.738 50.064 267.098 49.76C266.474 49.44 265.978 49.008 265.61 48.464C265.242 47.92 265.058 47.312 265.058 46.64C265.058 45.776 265.274 45.096 265.706 44.6C266.154 44.104 266.882 43.752 267.89 43.544C268.914 43.336 270.306 43.232 272.066 43.232H273.146V44.504H272.09C270.794 44.504 269.77 44.568 269.018 44.696C268.282 44.808 267.762 45.008 267.458 45.296C267.17 45.584 267.026 45.992 267.026 46.52C267.026 47.176 267.25 47.712 267.698 48.128C268.162 48.544 268.786 48.752 269.57 48.752C270.21 48.752 270.77 48.6 271.25 48.296C271.746 47.992 272.13 47.576 272.402 47.048C272.69 46.52 272.834 45.912 272.834 45.224V42.488C272.834 41.496 272.634 40.784 272.234 40.352C271.834 39.904 271.178 39.68 270.266 39.68C269.706 39.68 269.146 39.752 268.586 39.896C268.026 40.04 267.434 40.272 266.81 40.592C266.586 40.704 266.394 40.744 266.234 40.712C266.074 40.664 265.946 40.576 265.85 40.448C265.754 40.32 265.698 40.176 265.682 40.016C265.666 39.84 265.698 39.672 265.778 39.512C265.874 39.352 266.018 39.224 266.21 39.128C266.914 38.776 267.61 38.52 268.298 38.36C268.986 38.2 269.642 38.12 270.266 38.12C271.274 38.12 272.106 38.288 272.762 38.624C273.418 38.944 273.906 39.44 274.226 40.112C274.546 40.768 274.706 41.616 274.706 42.656V49.16C274.706 49.48 274.626 49.728 274.466 49.904C274.322 50.08 274.106 50.168 273.818 50.168C273.514 50.168 273.282 50.08 273.122 49.904C272.962 49.728 272.882 49.48 272.882 49.16V47.288H273.098C272.97 47.896 272.722 48.416 272.354 48.848C272.002 49.28 271.562 49.616 271.034 49.856C270.506 50.096 269.914 50.216 269.258 50.216ZM279.296 50.168C278.976 50.168 278.728 50.08 278.552 49.904C278.392 49.728 278.312 49.48 278.312 49.16V39.152C278.312 38.832 278.392 38.592 278.552 38.432C278.712 38.256 278.944 38.168 279.248 38.168C279.552 38.168 279.784 38.256 279.944 38.432C280.12 38.592 280.208 38.832 280.208 39.152V41.096H279.968C280.224 40.152 280.712 39.424 281.432 38.912C282.152 38.4 283.04 38.128 284.096 38.096C284.336 38.08 284.528 38.136 284.672 38.264C284.816 38.376 284.896 38.576 284.912 38.864C284.928 39.136 284.864 39.352 284.72 39.512C284.576 39.672 284.352 39.768 284.048 39.8L283.664 39.848C282.576 39.944 281.736 40.296 281.144 40.904C280.568 41.496 280.28 42.312 280.28 43.352V49.16C280.28 49.48 280.192 49.728 280.016 49.904C279.856 50.08 279.616 50.168 279.296 50.168ZM292.029 50.216C290.797 50.216 289.733 49.976 288.837 49.496C287.957 49 287.269 48.304 286.773 47.408C286.293 46.512 286.053 45.44 286.053 44.192C286.053 42.976 286.293 41.92 286.773 41.024C287.253 40.112 287.909 39.4 288.741 38.888C289.589 38.376 290.565 38.12 291.669 38.12C292.453 38.12 293.157 38.256 293.781 38.528C294.405 38.784 294.933 39.16 295.365 39.656C295.813 40.152 296.149 40.752 296.373 41.456C296.613 42.16 296.733 42.952 296.733 43.832C296.733 44.088 296.661 44.28 296.517 44.408C296.373 44.52 296.165 44.576 295.893 44.576H287.541V43.304H295.437L295.053 43.616C295.053 42.752 294.925 42.024 294.669 41.432C294.413 40.824 294.037 40.36 293.541 40.04C293.061 39.72 292.453 39.56 291.717 39.56C290.901 39.56 290.205 39.752 289.629 40.136C289.069 40.504 288.645 41.024 288.357 41.696C288.069 42.352 287.925 43.12 287.925 44V44.144C287.925 45.616 288.277 46.736 288.981 47.504C289.701 48.272 290.717 48.656 292.029 48.656C292.573 48.656 293.109 48.584 293.637 48.44C294.181 48.296 294.709 48.056 295.221 47.72C295.445 47.576 295.645 47.512 295.821 47.528C296.013 47.528 296.165 47.584 296.277 47.696C296.389 47.792 296.461 47.92 296.493 48.08C296.541 48.224 296.525 48.384 296.445 48.56C296.381 48.736 296.245 48.888 296.037 49.016C295.509 49.4 294.885 49.696 294.165 49.904C293.445 50.112 292.733 50.216 292.029 50.216ZM303.219 50.216C302.419 50.216 301.699 50.064 301.059 49.76C300.435 49.44 299.939 49.008 299.571 48.464C299.203 47.92 299.019 47.312 299.019 46.64C299.019 45.776 299.235 45.096 299.667 44.6C300.115 44.104 300.843 43.752 301.851 43.544C302.875 43.336 304.267 43.232 306.027 43.232H307.107V44.504H306.051C304.755 44.504 303.731 44.568 302.979 44.696C302.243 44.808 301.723 45.008 301.419 45.296C301.131 45.584 300.987 45.992 300.987 46.52C300.987 47.176 301.211 47.712 301.659 48.128C302.123 48.544 302.747 48.752 303.531 48.752C304.171 48.752 304.731 48.6 305.211 48.296C305.707 47.992 306.091 47.576 306.363 47.048C306.651 46.52 306.795 45.912 306.795 45.224V42.488C306.795 41.496 306.595 40.784 306.195 40.352C305.795 39.904 305.139 39.68 304.227 39.68C303.667 39.68 303.107 39.752 302.547 39.896C301.987 40.04 301.395 40.272 300.771 40.592C300.547 40.704 300.355 40.744 300.195 40.712C300.035 40.664 299.907 40.576 299.811 40.448C299.715 40.32 299.659 40.176 299.643 40.016C299.627 39.84 299.659 39.672 299.739 39.512C299.835 39.352 299.979 39.224 300.171 39.128C300.875 38.776 301.571 38.52 302.259 38.36C302.947 38.2 303.603 38.12 304.227 38.12C305.235 38.12 306.067 38.288 306.723 38.624C307.379 38.944 307.867 39.44 308.187 40.112C308.507 40.768 308.667 41.616 308.667 42.656V49.16C308.667 49.48 308.587 49.728 308.427 49.904C308.283 50.08 308.067 50.168 307.779 50.168C307.475 50.168 307.243 50.08 307.083 49.904C306.923 49.728 306.843 49.48 306.843 49.16V47.288H307.059C306.931 47.896 306.683 48.416 306.315 48.848C305.963 49.28 305.523 49.616 304.995 49.856C304.467 50.096 303.875 50.216 303.219 50.216ZM323.309 50.216C322.173 50.216 321.189 49.968 320.357 49.472C319.525 48.976 318.877 48.28 318.413 47.384C317.965 46.472 317.741 45.4 317.741 44.168C317.741 43.24 317.869 42.408 318.125 41.672C318.381 40.92 318.757 40.28 319.253 39.752C319.749 39.224 320.333 38.824 321.005 38.552C321.693 38.264 322.461 38.12 323.309 38.12C324.445 38.12 325.429 38.368 326.261 38.864C327.093 39.36 327.733 40.064 328.181 40.976C328.645 41.872 328.877 42.936 328.877 44.168C328.877 45.096 328.749 45.928 328.493 46.664C328.237 47.4 327.861 48.04 327.365 48.584C326.869 49.112 326.277 49.52 325.589 49.808C324.917 50.08 324.157 50.216 323.309 50.216ZM323.309 48.656C324.029 48.656 324.661 48.48 325.205 48.128C325.749 47.776 326.165 47.264 326.453 46.592C326.757 45.92 326.909 45.112 326.909 44.168C326.909 42.712 326.581 41.6 325.925 40.832C325.285 40.064 324.413 39.68 323.309 39.68C322.573 39.68 321.933 39.856 321.389 40.208C320.861 40.544 320.445 41.048 320.141 41.72C319.853 42.376 319.709 43.192 319.709 44.168C319.709 45.608 320.037 46.72 320.693 47.504C321.349 48.272 322.221 48.656 323.309 48.656ZM333.263 50.168C332.959 50.168 332.719 50.08 332.543 49.904C332.383 49.728 332.303 49.48 332.303 49.16V39.848H330.767C330.511 39.848 330.303 39.784 330.143 39.656C329.999 39.512 329.927 39.32 329.927 39.08C329.927 38.84 329.999 38.656 330.143 38.528C330.303 38.4 330.511 38.336 330.767 38.336H332.831L332.303 38.84V37.928C332.303 36.408 332.671 35.248 333.407 34.448C334.159 33.648 335.255 33.184 336.695 33.056L337.391 32.984C337.615 32.968 337.791 33.008 337.919 33.104C338.063 33.2 338.151 33.32 338.183 33.464C338.231 33.608 338.239 33.76 338.207 33.92C338.175 34.064 338.103 34.192 337.991 34.304C337.879 34.416 337.743 34.48 337.583 34.496L337.031 34.544C336.055 34.624 335.343 34.92 334.895 35.432C334.463 35.944 334.247 36.696 334.247 37.688V38.696L333.959 38.336H336.839C337.111 38.336 337.319 38.4 337.463 38.528C337.607 38.656 337.679 38.84 337.679 39.08C337.679 39.32 337.607 39.512 337.463 39.656C337.319 39.784 337.111 39.848 336.839 39.848H334.247V49.16C334.247 49.832 333.919 50.168 333.263 50.168ZM350.539 50.216C349.627 50.216 348.859 50.056 348.235 49.736C347.627 49.4 347.171 48.92 346.867 48.296C346.563 47.656 346.411 46.88 346.411 45.968V39.848H344.803C344.531 39.848 344.323 39.784 344.179 39.656C344.035 39.512 343.963 39.32 343.963 39.08C343.963 38.84 344.035 38.656 344.179 38.528C344.323 38.4 344.531 38.336 344.803 38.336H346.411V35.576C346.411 35.256 346.499 35.016 346.675 34.856C346.851 34.68 347.091 34.592 347.395 34.592C347.699 34.592 347.931 34.68 348.091 34.856C348.267 35.016 348.355 35.256 348.355 35.576V38.336H351.379C351.651 38.336 351.859 38.4 352.003 38.528C352.147 38.656 352.219 38.84 352.219 39.08C352.219 39.32 352.147 39.512 352.003 39.656C351.859 39.784 351.651 39.848 351.379 39.848H348.355V45.776C348.355 46.688 348.547 47.384 348.931 47.864C349.315 48.328 349.939 48.56 350.803 48.56C351.107 48.56 351.363 48.528 351.571 48.464C351.795 48.4 351.979 48.368 352.123 48.368C352.267 48.352 352.387 48.4 352.483 48.512C352.579 48.624 352.627 48.816 352.627 49.088C352.627 49.28 352.587 49.456 352.507 49.616C352.443 49.776 352.323 49.888 352.147 49.952C351.955 50.016 351.699 50.072 351.379 50.12C351.075 50.184 350.795 50.216 350.539 50.216ZM355.35 50.168C355.03 50.168 354.79 50.08 354.63 49.904C354.47 49.728 354.39 49.48 354.39 49.16V33.896C354.39 33.576 354.47 33.336 354.63 33.176C354.79 33 355.03 32.912 355.35 32.912C355.654 32.912 355.894 33 356.07 33.176C356.246 33.336 356.334 33.576 356.334 33.896V40.928H356.022C356.358 40 356.902 39.304 357.654 38.84C358.422 38.36 359.302 38.12 360.294 38.12C361.222 38.12 361.99 38.288 362.598 38.624C363.222 38.96 363.686 39.472 363.99 40.16C364.294 40.832 364.446 41.688 364.446 42.728V49.16C364.446 49.48 364.358 49.728 364.182 49.904C364.022 50.08 363.79 50.168 363.486 50.168C363.166 50.168 362.918 50.08 362.742 49.904C362.582 49.728 362.502 49.48 362.502 49.16V42.848C362.502 41.76 362.286 40.968 361.854 40.472C361.438 39.96 360.766 39.704 359.838 39.704C358.766 39.704 357.91 40.04 357.27 40.712C356.646 41.368 356.334 42.248 356.334 43.352V49.16C356.334 49.832 356.006 50.168 355.35 50.168ZM373.287 50.216C372.055 50.216 370.991 49.976 370.095 49.496C369.215 49 368.527 48.304 368.031 47.408C367.551 46.512 367.311 45.44 367.311 44.192C367.311 42.976 367.551 41.92 368.031 41.024C368.511 40.112 369.167 39.4 369.999 38.888C370.847 38.376 371.823 38.12 372.927 38.12C373.711 38.12 374.415 38.256 375.039 38.528C375.663 38.784 376.191 39.16 376.623 39.656C377.071 40.152 377.407 40.752 377.631 41.456C377.871 42.16 377.991 42.952 377.991 43.832C377.991 44.088 377.919 44.28 377.775 44.408C377.631 44.52 377.423 44.576 377.151 44.576H368.799V43.304H376.695L376.311 43.616C376.311 42.752 376.183 42.024 375.927 41.432C375.671 40.824 375.295 40.36 374.799 40.04C374.319 39.72 373.711 39.56 372.975 39.56C372.159 39.56 371.463 39.752 370.887 40.136C370.327 40.504 369.903 41.024 369.615 41.696C369.327 42.352 369.183 43.12 369.183 44V44.144C369.183 45.616 369.535 46.736 370.239 47.504C370.959 48.272 371.975 48.656 373.287 48.656C373.831 48.656 374.367 48.584 374.895 48.44C375.439 48.296 375.967 48.056 376.479 47.72C376.703 47.576 376.903 47.512 377.079 47.528C377.271 47.528 377.423 47.584 377.535 47.696C377.647 47.792 377.719 47.92 377.751 48.08C377.799 48.224 377.783 48.384 377.703 48.56C377.639 48.736 377.503 48.888 377.295 49.016C376.767 49.4 376.143 49.696 375.423 49.904C374.703 50.112 373.991 50.216 373.287 50.216ZM390.928 50.216C390.208 50.216 389.48 50.128 388.744 49.952C388.024 49.776 387.352 49.472 386.728 49.04C386.568 48.928 386.456 48.8 386.392 48.656C386.328 48.496 386.304 48.344 386.32 48.2C386.352 48.04 386.416 47.904 386.512 47.792C386.624 47.68 386.752 47.616 386.896 47.6C387.056 47.568 387.232 47.6 387.424 47.696C388.048 48.08 388.648 48.352 389.224 48.512C389.816 48.656 390.4 48.728 390.976 48.728C391.888 48.728 392.576 48.56 393.04 48.224C393.504 47.888 393.736 47.432 393.736 46.856C393.736 46.408 393.584 46.056 393.28 45.8C392.976 45.528 392.496 45.32 391.84 45.176L389.656 44.696C388.648 44.488 387.896 44.128 387.4 43.616C386.92 43.104 386.68 42.44 386.68 41.624C386.68 40.904 386.864 40.288 387.232 39.776C387.616 39.248 388.152 38.84 388.84 38.552C389.528 38.264 390.328 38.12 391.24 38.12C391.944 38.12 392.608 38.216 393.232 38.408C393.872 38.584 394.448 38.872 394.96 39.272C395.12 39.384 395.224 39.52 395.272 39.68C395.336 39.824 395.344 39.976 395.296 40.136C395.264 40.28 395.192 40.408 395.08 40.52C394.968 40.616 394.832 40.672 394.672 40.688C394.512 40.704 394.344 40.656 394.168 40.544C393.688 40.224 393.2 39.992 392.704 39.848C392.208 39.688 391.72 39.608 391.24 39.608C390.344 39.608 389.664 39.784 389.2 40.136C388.736 40.488 388.504 40.952 388.504 41.528C388.504 41.976 388.648 42.344 388.936 42.632C389.224 42.92 389.672 43.128 390.28 43.256L392.464 43.712C393.504 43.936 394.28 44.296 394.792 44.792C395.32 45.272 395.584 45.928 395.584 46.76C395.584 47.816 395.16 48.656 394.312 49.28C393.464 49.904 392.336 50.216 390.928 50.216ZM403.803 50.216C402.571 50.216 401.507 49.976 400.611 49.496C399.731 49 399.043 48.304 398.547 47.408C398.067 46.512 397.827 45.44 397.827 44.192C397.827 42.976 398.067 41.92 398.547 41.024C399.027 40.112 399.683 39.4 400.515 38.888C401.363 38.376 402.339 38.12 403.443 38.12C404.227 38.12 404.931 38.256 405.555 38.528C406.179 38.784 406.707 39.16 407.139 39.656C407.587 40.152 407.923 40.752 408.147 41.456C408.387 42.16 408.507 42.952 408.507 43.832C408.507 44.088 408.435 44.28 408.291 44.408C408.147 44.52 407.939 44.576 407.667 44.576H399.315V43.304H407.211L406.827 43.616C406.827 42.752 406.699 42.024 406.443 41.432C406.187 40.824 405.811 40.36 405.315 40.04C404.835 39.72 404.227 39.56 403.491 39.56C402.675 39.56 401.979 39.752 401.403 40.136C400.843 40.504 400.419 41.024 400.131 41.696C399.843 42.352 399.699 43.12 399.699 44V44.144C399.699 45.616 400.051 46.736 400.755 47.504C401.475 48.272 402.491 48.656 403.803 48.656C404.347 48.656 404.883 48.584 405.411 48.44C405.955 48.296 406.483 48.056 406.995 47.72C407.219 47.576 407.419 47.512 407.595 47.528C407.787 47.528 407.939 47.584 408.051 47.696C408.163 47.792 408.235 47.92 408.267 48.08C408.315 48.224 408.299 48.384 408.219 48.56C408.155 48.736 408.019 48.888 407.811 49.016C407.283 49.4 406.659 49.696 405.939 49.904C405.219 50.112 404.507 50.216 403.803 50.216ZM416.264 50.216C415.096 50.216 414.088 49.96 413.24 49.448C412.392 48.936 411.736 48.224 411.272 47.312C410.824 46.384 410.6 45.312 410.6 44.096C410.6 43.168 410.728 42.336 410.984 41.6C411.24 40.864 411.616 40.24 412.112 39.728C412.608 39.2 413.2 38.8 413.888 38.528C414.592 38.256 415.384 38.12 416.264 38.12C416.84 38.12 417.44 38.208 418.064 38.384C418.688 38.56 419.256 38.864 419.768 39.296C419.928 39.408 420.032 39.544 420.08 39.704C420.128 39.864 420.128 40.024 420.08 40.184C420.032 40.328 419.952 40.456 419.84 40.568C419.728 40.664 419.584 40.72 419.408 40.736C419.248 40.752 419.08 40.696 418.904 40.568C418.488 40.248 418.064 40.024 417.632 39.896C417.2 39.768 416.784 39.704 416.384 39.704C415.76 39.704 415.216 39.808 414.752 40.016C414.288 40.208 413.896 40.488 413.576 40.856C413.256 41.224 413.008 41.68 412.832 42.224C412.672 42.768 412.592 43.4 412.592 44.12C412.592 45.512 412.92 46.616 413.576 47.432C414.232 48.232 415.168 48.632 416.384 48.632C416.784 48.632 417.192 48.568 417.608 48.44C418.04 48.312 418.472 48.088 418.904 47.768C419.08 47.64 419.248 47.584 419.408 47.6C419.568 47.616 419.704 47.68 419.816 47.792C419.928 47.888 420 48.016 420.032 48.176C420.08 48.336 420.08 48.496 420.032 48.656C419.984 48.8 419.88 48.928 419.72 49.04C419.208 49.456 418.648 49.76 418.04 49.952C417.432 50.128 416.84 50.216 416.264 50.216ZM427.109 50.216C426.197 50.216 425.429 50.056 424.805 49.736C424.197 49.4 423.741 48.92 423.437 48.296C423.133 47.656 422.981 46.88 422.981 45.968V39.848H421.373C421.101 39.848 420.893 39.784 420.749 39.656C420.605 39.512 420.533 39.32 420.533 39.08C420.533 38.84 420.605 38.656 420.749 38.528C420.893 38.4 421.101 38.336 421.373 38.336H422.981V35.576C422.981 35.256 423.069 35.016 423.245 34.856C423.421 34.68 423.661 34.592 423.965 34.592C424.269 34.592 424.501 34.68 424.661 34.856C424.837 35.016 424.925 35.256 424.925 35.576V38.336H427.949C428.221 38.336 428.429 38.4 428.573 38.528C428.717 38.656 428.789 38.84 428.789 39.08C428.789 39.32 428.717 39.512 428.573 39.656C428.429 39.784 428.221 39.848 427.949 39.848H424.925V45.776C424.925 46.688 425.117 47.384 425.501 47.864C425.885 48.328 426.509 48.56 427.373 48.56C427.677 48.56 427.933 48.528 428.141 48.464C428.365 48.4 428.549 48.368 428.693 48.368C428.837 48.352 428.957 48.4 429.053 48.512C429.149 48.624 429.197 48.816 429.197 49.088C429.197 49.28 429.157 49.456 429.077 49.616C429.013 49.776 428.893 49.888 428.717 49.952C428.525 50.016 428.269 50.072 427.949 50.12C427.645 50.184 427.365 50.216 427.109 50.216ZM435.551 50.216C434.415 50.216 433.431 49.968 432.599 49.472C431.767 48.976 431.119 48.28 430.655 47.384C430.207 46.472 429.983 45.4 429.983 44.168C429.983 43.24 430.111 42.408 430.367 41.672C430.623 40.92 430.999 40.28 431.495 39.752C431.991 39.224 432.575 38.824 433.247 38.552C433.935 38.264 434.703 38.12 435.551 38.12C436.687 38.12 437.671 38.368 438.503 38.864C439.335 39.36 439.975 40.064 440.423 40.976C440.887 41.872 441.119 42.936 441.119 44.168C441.119 45.096 440.991 45.928 440.735 46.664C440.479 47.4 440.103 48.04 439.607 48.584C439.111 49.112 438.519 49.52 437.831 49.808C437.159 50.08 436.399 50.216 435.551 50.216ZM435.551 48.656C436.271 48.656 436.903 48.48 437.447 48.128C437.991 47.776 438.407 47.264 438.695 46.592C438.999 45.92 439.151 45.112 439.151 44.168C439.151 42.712 438.823 41.6 438.167 40.832C437.527 40.064 436.655 39.68 435.551 39.68C434.815 39.68 434.175 39.856 433.631 40.208C433.103 40.544 432.687 41.048 432.383 41.72C432.095 42.376 431.951 43.192 431.951 44.168C431.951 45.608 432.279 46.72 432.935 47.504C433.591 48.272 434.463 48.656 435.551 48.656ZM445.023 50.168C444.703 50.168 444.455 50.08 444.279 49.904C444.119 49.728 444.039 49.48 444.039 49.16V39.152C444.039 38.832 444.119 38.592 444.279 38.432C444.439 38.256 444.671 38.168 444.975 38.168C445.279 38.168 445.511 38.256 445.671 38.432C445.847 38.592 445.935 38.832 445.935 39.152V41.096H445.695C445.951 40.152 446.439 39.424 447.159 38.912C447.879 38.4 448.767 38.128 449.823 38.096C450.063 38.08 450.255 38.136 450.399 38.264C450.543 38.376 450.623 38.576 450.639 38.864C450.655 39.136 450.591 39.352 450.447 39.512C450.303 39.672 450.079 39.768 449.775 39.8L449.391 39.848C448.303 39.944 447.463 40.296 446.871 40.904C446.295 41.496 446.007 42.312 446.007 43.352V49.16C446.007 49.48 445.919 49.728 445.743 49.904C445.583 50.08 445.343 50.168 445.023 50.168ZM453.084 50.096C452.684 50.096 452.364 49.976 452.124 49.736C451.884 49.48 451.764 49.16 451.764 48.776C451.764 48.392 451.884 48.08 452.124 47.84C452.364 47.584 452.684 47.456 453.084 47.456C453.484 47.456 453.796 47.584 454.02 47.84C454.26 48.08 454.38 48.392 454.38 48.776C454.38 49.16 454.26 49.48 454.02 49.736C453.796 49.976 453.484 50.096 453.084 50.096Z" fill="#444444"/>
</svg>
