<svg width="108" height="97" viewBox="0 0 108 97" fill="none" xmlns="http://www.w3.org/2000/svg">
<rect x="1" width="107" height="97" fill="white"/>
<g opacity="0.5">
<rect x="2.07983" width="105.84" height="96" fill="white" fill-opacity="0.5"/>
<line opacity="0.5" x1="16.6997" y1="96" x2="16.6997" y2="2.02854e-08" stroke="#C882FA"/>
<line opacity="0.5" x1="31.8198" y1="96" x2="31.8198" y2="2.02854e-08" stroke="#C882FA"/>
<line opacity="0.5" x1="46.9399" y1="96" x2="46.9399" y2="2.05364e-08" stroke="#C882FA"/>
<line opacity="0.5" x1="62.0601" y1="96" x2="62.0601" y2="2.05364e-08" stroke="#C882FA"/>
<line opacity="0.5" x1="77.1799" y1="96" x2="77.1799" y2="2.05364e-08" stroke="#C882FA"/>
<line opacity="0.5" x1="92.2998" y1="96" x2="92.2998" y2="-2.31277e-08" stroke="#C882FA"/>
<line opacity="0.5" x1="107.92" y1="80.5" x2="2.07993" y2="80.5" stroke="#C882FA"/>
<line opacity="0.5" x1="107.92" y1="64.5" x2="2.07993" y2="64.5" stroke="#C882FA"/>
<line opacity="0.5" x1="107.92" y1="48.5" x2="2.07993" y2="48.5" stroke="#C882FA"/>
<line opacity="0.5" x1="107.92" y1="32.5" x2="2.07993" y2="32.5" stroke="#C882FA"/>
<line opacity="0.5" x1="107.92" y1="16.5" x2="2.07993" y2="16.5" stroke="#C882FA"/>
<line opacity="0.5" x1="1.57983" y1="96" x2="1.57984" y2="-1.97383e-08" stroke="#C882FA"/>
<line opacity="0.5" x1="107.92" y1="96.5" x2="0.819923" y2="96.5" stroke="#C882FA"/>
<line opacity="0.5" x1="107.42" y1="96" x2="107.42" y2="-2.31277e-08" stroke="#C882FA"/>
<line opacity="0.5" x1="107.92" y1="0.5" x2="0.819923" y2="0.5" stroke="#C882FA"/>
</g>
<g opacity="0.8">
<rect x="62.5" y="48.5" width="15" height="16" fill="#F4E5FF" stroke="#C882FA"/>
<rect x="17" y="32.5" width="15" height="16" fill="#F4E5FF" stroke="#C882FA"/>
<path d="M47 16.5H62.0601V32.5H47V16.5Z" fill="#F4E5FF" stroke="#C882FA"/>
<path d="M32 32.5H47.18V48.5H32V32.5Z" fill="#F4E5FF" stroke="#C882FA"/>
<path d="M47 48.5H62.18V64.5H47V48.5Z" fill="#F4E5FF" stroke="#C882FA"/>
<path d="M47 32.5H62V48.5H47V32.5Z" fill="#C882FA" stroke="#C882FA"/>
</g>
</svg>
