<svg width="114" height="60" viewBox="0 0 114 60" fill="none" xmlns="http://www.w3.org/2000/svg">
<rect width="114" height="60" rx="10" fill="#1A1A1A"/>
<g clip-path="url(#clip0_89_26305)">
<path d="M38.3938 21.752C38.6498 21.208 39.0738 20.936 39.6658 20.936C40.0658 20.936 40.4258 21.064 40.7458 21.32C41.0658 21.576 41.2258 21.896 41.2258 22.28C41.2258 22.456 41.1778 22.656 41.0818 22.88L34.4338 37.184C34.2898 37.488 34.0658 37.728 33.7618 37.904C33.4738 38.064 33.1618 38.144 32.8258 38.144C32.4898 38.144 32.1698 38.064 31.8658 37.904C31.5778 37.728 31.3618 37.488 31.2178 37.184L24.5938 22.88C24.4978 22.656 24.4498 22.464 24.4498 22.304C24.4498 21.904 24.6098 21.576 24.9298 21.32C25.2658 21.064 25.6418 20.936 26.0578 20.936C26.3298 20.936 26.5778 21.008 26.8018 21.152C27.0418 21.28 27.2258 21.48 27.3538 21.752L32.8738 34.016L38.3938 21.752ZM50.8558 34.784C51.1278 34.784 51.3438 34.888 51.5038 35.096C51.6798 35.304 51.7678 35.584 51.7678 35.936C51.7678 36.432 51.4718 36.848 50.8798 37.184C50.3358 37.488 49.7198 37.736 49.0318 37.928C48.3438 38.104 47.6878 38.192 47.0638 38.192C45.1758 38.192 43.6798 37.648 42.5758 36.56C41.4718 35.472 40.9198 33.984 40.9198 32.096C40.9198 30.896 41.1598 29.832 41.6398 28.904C42.1198 27.976 42.7918 27.256 43.6558 26.744C44.5358 26.232 45.5278 25.976 46.6318 25.976C47.6878 25.976 48.6078 26.208 49.3918 26.672C50.1758 27.136 50.7838 27.792 51.2158 28.64C51.6478 29.488 51.8638 30.488 51.8638 31.64C51.8638 32.328 51.5598 32.672 50.9518 32.672H43.8718C43.9678 33.776 44.2798 34.592 44.8078 35.12C45.3358 35.632 46.1038 35.888 47.1118 35.888C47.6238 35.888 48.0718 35.824 48.4558 35.696C48.8558 35.568 49.3038 35.392 49.7998 35.168C50.2798 34.912 50.6318 34.784 50.8558 34.784ZM46.7038 28.088C45.8878 28.088 45.2318 28.344 44.7358 28.856C44.2558 29.368 43.9678 30.104 43.8718 31.064H49.2958C49.2638 30.088 49.0238 29.352 48.5758 28.856C48.1278 28.344 47.5038 28.088 46.7038 28.088ZM60.8698 26.024C61.2858 25.992 61.6138 26.08 61.8538 26.288C62.0938 26.496 62.2138 26.808 62.2138 27.224C62.2138 27.656 62.1098 27.976 61.9018 28.184C61.6938 28.392 61.3178 28.528 60.7738 28.592L60.0538 28.664C59.1098 28.76 58.4138 29.08 57.9658 29.624C57.5338 30.168 57.3178 30.848 57.3178 31.664V36.704C57.3178 37.168 57.1738 37.528 56.8858 37.784C56.5978 38.024 56.2378 38.144 55.8058 38.144C55.3738 38.144 55.0138 38.024 54.7258 37.784C54.4538 37.528 54.3178 37.168 54.3178 36.704V27.416C54.3178 26.968 54.4538 26.624 54.7258 26.384C55.0138 26.144 55.3658 26.024 55.7818 26.024C56.1978 26.024 56.5338 26.144 56.7898 26.384C57.0458 26.608 57.1738 26.936 57.1738 27.368V28.328C57.4778 27.624 57.9258 27.08 58.5178 26.696C59.1258 26.312 59.7978 26.096 60.5338 26.048L60.8698 26.024ZM64.9933 38.144C64.5613 38.144 64.2013 38.024 63.9133 37.784C63.6413 37.528 63.5053 37.168 63.5053 36.704V27.44C63.5053 26.976 63.6413 26.624 63.9133 26.384C64.2013 26.144 64.5613 26.024 64.9933 26.024C65.4253 26.024 65.7853 26.144 66.0733 26.384C66.3613 26.624 66.5053 26.976 66.5053 27.44V36.704C66.5053 37.168 66.3613 37.528 66.0733 37.784C65.7853 38.024 65.4253 38.144 64.9933 38.144ZM64.9933 23.888C64.4493 23.888 64.0173 23.744 63.6973 23.456C63.3773 23.152 63.2173 22.76 63.2173 22.28C63.2173 21.8 63.3773 21.416 63.6973 21.128C64.0173 20.84 64.4493 20.696 64.9933 20.696C65.5213 20.696 65.9453 20.84 66.2653 21.128C66.6013 21.416 66.7693 21.8 66.7693 22.28C66.7693 22.76 66.6093 23.152 66.2893 23.456C65.9693 23.744 65.5373 23.888 64.9933 23.888ZM75.5271 23.312C74.7911 23.36 74.2551 23.584 73.9191 23.984C73.5831 24.384 73.4151 24.96 73.4151 25.712V26.264H75.4551C76.3511 26.264 76.7991 26.64 76.7991 27.392C76.7991 28.144 76.3511 28.52 75.4551 28.52H73.4151V36.704C73.4151 37.168 73.2711 37.52 72.9831 37.76C72.7111 38 72.3591 38.12 71.9271 38.12C71.4951 38.12 71.1351 38 70.8471 37.76C70.5591 37.52 70.4151 37.168 70.4151 36.704V28.52H69.2151C68.3191 28.52 67.8711 28.144 67.8711 27.392C67.8711 26.64 68.3191 26.264 69.2151 26.264H70.4151V26.096C70.4151 24.592 70.8071 23.416 71.5911 22.568C72.3911 21.704 73.5111 21.216 74.9511 21.104L75.5751 21.056C76.2151 21.008 76.6631 21.08 76.9191 21.272C77.1911 21.448 77.3271 21.728 77.3271 22.112C77.3271 22.8 76.9351 23.184 76.1511 23.264L75.5271 23.312ZM86.8534 26.888C86.9814 26.6 87.1494 26.392 87.3574 26.264C87.5814 26.12 87.8214 26.048 88.0774 26.048C88.4454 26.048 88.7734 26.176 89.0614 26.432C89.3654 26.672 89.5174 26.976 89.5174 27.344C89.5174 27.52 89.4694 27.704 89.3734 27.896L82.8214 41.624C82.5494 42.168 82.1254 42.44 81.5494 42.44C81.1814 42.44 80.8534 42.32 80.5654 42.08C80.2934 41.856 80.1574 41.568 80.1574 41.216C80.1574 41.04 80.2054 40.84 80.3014 40.616L81.9334 37.184L77.4694 27.896C77.3894 27.736 77.3494 27.552 77.3494 27.344C77.3494 26.976 77.5014 26.664 77.8054 26.408C78.1254 26.152 78.4854 26.024 78.8854 26.024C79.1574 26.024 79.4054 26.096 79.6294 26.24C79.8534 26.368 80.0294 26.576 80.1574 26.864L83.5174 34.28L86.8534 26.888Z" fill="white"/>
</g>
<defs>
<clipPath id="clip0_89_26305">
<rect width="66" height="28" fill="white" transform="translate(24 16)"/>
</clipPath>
</defs>
</svg>
