<svg width="149" height="137" viewBox="0 0 149 137" fill="none" xmlns="http://www.w3.org/2000/svg">
<path d="M74.5342 63.9583L93.8395 52.1583L41.5656 35.7416L22.7534 47.7705L74.5342 63.9583Z" fill="#CF8B04"/>
<path d="M22.7534 47.7333L67.137 61.5V104.767H22.7534L22.7534 47.7333Z" fill="#FFD2A6"/>
<path d="M67.137 34.95L111.521 61.9917V104.767H67.137V34.95Z" fill="#FFD2A6"/>
<path d="M111.521 61.9917L130.333 50.1917V92.775L111.521 104.804V61.9917Z" fill="#C882FA"/>
<path d="M111.448 61.9917L130.753 50.1917L85.9491 22.9583L67.137 34.9872L111.448 61.9917Z" fill="#CF8B04"/>
<path d="M111.395 61.7287L22.8854 61.7287V104.491L111.395 104.721V61.7287Z" fill="#EACCFF"/>
<path d="M81.5848 73.2642H94.5307V86.1806H81.5848V73.2642Z" fill="#D1F7FF"/>
<path d="M79.9665 71.6497V87.7952H96.149V71.6497H79.9665ZM94.5307 73.2643V78.9152H88.8669V73.2643H94.5307ZM87.2486 73.2643V78.9152H81.5848V73.2643H87.2486ZM81.5848 86.1807V80.5297H87.2486V86.1807H81.5848ZM88.8669 86.1807V80.5297H94.5307V86.1807H88.8669Z" fill="#CF8B04"/>
<path d="M32.0179 85.1813H43.2065V104.77H32.0179V85.1813Z" fill="#CF8B04"/>
<path d="M40.8605 94.7062C41.4585 94.7062 41.9433 94.2234 41.9433 93.6279C41.9433 93.0324 41.4585 92.5496 40.8605 92.5496C40.2625 92.5496 39.7777 93.0324 39.7777 93.6279C39.7777 94.2234 40.2625 94.7062 40.8605 94.7062Z" fill="#FFDC73"/>
</svg>
