<svg width="45" height="44" viewBox="0 0 45 44" fill="none" xmlns="http://www.w3.org/2000/svg">
<circle cx="22.5" cy="22" r="21" fill="#F1EDFF" stroke="#7F5CF4" stroke-width="2"/>
<path d="M16.7095 21.396C16.3175 21.396 16.0095 21.2933 15.7855 21.088C15.5615 20.864 15.4495 20.556 15.4495 20.164C15.4495 19.772 15.5615 19.4733 15.7855 19.268C16.0095 19.044 16.3175 18.932 16.7095 18.932H28.3015C28.7121 18.932 29.0201 19.044 29.2255 19.268C29.4495 19.4733 29.5615 19.772 29.5615 20.164C29.5615 20.556 29.4495 20.864 29.2255 21.088C29.0201 21.2933 28.7121 21.396 28.3015 21.396H16.7095ZM16.7095 26.968C16.3175 26.968 16.0095 26.8653 15.7855 26.66C15.5615 26.436 15.4495 26.128 15.4495 25.736C15.4495 25.344 15.5615 25.0453 15.7855 24.84C16.0095 24.6347 16.3175 24.532 16.7095 24.532H28.3015C28.7121 24.532 29.0201 24.6347 29.2255 24.84C29.4495 25.0453 29.5615 25.344 29.5615 25.736C29.5615 26.1467 29.4495 26.4547 29.2255 26.66C29.0201 26.8653 28.7121 26.968 28.3015 26.968H16.7095Z" fill="#7F5CF4"/>
</svg>
