<svg width="225" height="91" viewBox="0 0 225 91" fill="none" xmlns="http://www.w3.org/2000/svg">
<rect x="12.25" y="7.25" width="212.5" height="71.5" rx="7.75" fill="white"/>
<path d="M29.1121 36.08C28.9095 36.08 28.7441 36.0213 28.6161 35.904C28.4988 35.776 28.4401 35.6107 28.4401 35.408V25.84H25.0001C24.8081 25.84 24.6588 25.792 24.5521 25.696C24.4455 25.6 24.3921 25.4613 24.3921 25.28C24.3921 25.0987 24.4455 24.96 24.5521 24.864C24.6588 24.768 24.8081 24.72 25.0001 24.72H33.2081C33.4001 24.72 33.5495 24.768 33.6561 24.864C33.7628 24.96 33.8161 25.0987 33.8161 25.28C33.8161 25.4613 33.7628 25.6 33.6561 25.696C33.5495 25.792 33.4001 25.84 33.2081 25.84H29.7681V35.408C29.7681 35.6107 29.7095 35.776 29.5921 35.904C29.4748 36.0213 29.3148 36.08 29.1121 36.08ZM39.9329 28.016C40.8502 28.016 41.5435 28.2773 42.0129 28.8C42.4822 29.312 42.7169 30.08 42.7169 31.104V35.44C42.7169 35.6427 42.6582 35.8027 42.5409 35.92C42.4235 36.0267 42.2689 36.08 42.0769 36.08C41.8742 36.08 41.7142 36.0267 41.5969 35.92C41.4795 35.8027 41.4209 35.6427 41.4209 35.44V31.136C41.4209 30.4427 41.2769 29.9307 40.9889 29.6C40.7115 29.2693 40.2635 29.104 39.6449 29.104C38.9302 29.104 38.3595 29.3227 37.9329 29.76C37.5062 30.1973 37.2929 30.7893 37.2929 31.536V35.44C37.2929 35.6427 37.2342 35.8027 37.1169 35.92C37.0102 36.0267 36.8555 36.08 36.6529 36.08C36.4502 36.08 36.2902 36.0267 36.1729 35.92C36.0555 35.8027 35.9969 35.6427 35.9969 35.44V25.264C35.9969 25.0827 36.0555 24.9333 36.1729 24.816C36.3009 24.6987 36.4609 24.64 36.6529 24.64C36.8555 24.64 37.0102 24.6987 37.1169 24.816C37.2342 24.9227 37.2929 25.072 37.2929 25.264V29.456C37.5489 28.9867 37.9062 28.6293 38.3649 28.384C38.8235 28.1387 39.3462 28.016 39.9329 28.016ZM51.1226 34.192C51.24 34.192 51.3413 34.24 51.4266 34.336C51.512 34.432 51.5546 34.5547 51.5546 34.704C51.5546 34.9707 51.368 35.216 50.9946 35.44C50.6106 35.664 50.2053 35.8347 49.7786 35.952C49.352 36.0587 48.936 36.112 48.5306 36.112C47.3253 36.112 46.3706 35.7547 45.6666 35.04C44.9733 34.3253 44.6266 33.3387 44.6266 32.08C44.6266 31.28 44.7813 30.576 45.0906 29.968C45.4 29.3493 45.832 28.8693 46.3866 28.528C46.952 28.1867 47.592 28.016 48.3066 28.016C49.32 28.016 50.1253 28.3467 50.7226 29.008C51.32 29.6693 51.6186 30.5653 51.6186 31.696C51.6186 31.9093 51.576 32.064 51.4906 32.16C51.4053 32.256 51.2666 32.304 51.0746 32.304H45.9226C46.0186 34.1387 46.888 35.056 48.5306 35.056C48.9466 35.056 49.304 35.0027 49.6026 34.896C49.9013 34.7787 50.2213 34.624 50.5626 34.432C50.84 34.272 51.0266 34.192 51.1226 34.192ZM48.3226 29.024C47.64 29.024 47.0906 29.2373 46.6746 29.664C46.2693 30.0907 46.0293 30.6933 45.9546 31.472H50.4826C50.4613 30.6827 50.264 30.08 49.8906 29.664C49.5173 29.2373 48.9946 29.024 48.3226 29.024ZM63.6851 34.192C63.8025 34.192 63.9038 34.24 63.9891 34.336C64.0745 34.432 64.1171 34.5547 64.1171 34.704C64.1171 34.9707 63.9305 35.216 63.5571 35.44C63.1731 35.664 62.7678 35.8347 62.3411 35.952C61.9145 36.0587 61.4985 36.112 61.0931 36.112C59.8878 36.112 58.9331 35.7547 58.2291 35.04C57.5358 34.3253 57.1891 33.3387 57.1891 32.08C57.1891 31.28 57.3438 30.576 57.6531 29.968C57.9625 29.3493 58.3945 28.8693 58.9491 28.528C59.5145 28.1867 60.1545 28.016 60.8691 28.016C61.8825 28.016 62.6878 28.3467 63.2851 29.008C63.8825 29.6693 64.1811 30.5653 64.1811 31.696C64.1811 31.9093 64.1385 32.064 64.0531 32.16C63.9678 32.256 63.8291 32.304 63.6371 32.304H58.4851C58.5811 34.1387 59.4505 35.056 61.0931 35.056C61.5091 35.056 61.8665 35.0027 62.1651 34.896C62.4638 34.7787 62.7838 34.624 63.1251 34.432C63.4025 34.272 63.5891 34.192 63.6851 34.192ZM60.8851 29.024C60.2025 29.024 59.6531 29.2373 59.2371 29.664C58.8318 30.0907 58.5918 30.6933 58.5171 31.472H63.0451C63.0238 30.6827 62.8265 30.08 62.4531 29.664C62.0798 29.2373 61.5571 29.024 60.8851 29.024ZM70.0106 28.016C71.8773 28.016 72.8106 29.0453 72.8106 31.104V35.44C72.8106 35.6427 72.752 35.8027 72.6346 35.92C72.528 36.0267 72.3733 36.08 72.1706 36.08C71.968 36.08 71.808 36.0267 71.6906 35.92C71.5733 35.8027 71.5146 35.6427 71.5146 35.44V31.184C71.5146 30.4587 71.3706 29.9307 71.0826 29.6C70.8053 29.2693 70.3573 29.104 69.7386 29.104C69.024 29.104 68.4533 29.3227 68.0266 29.76C67.6 30.1973 67.3866 30.7893 67.3866 31.536V35.44C67.3866 35.6427 67.328 35.8027 67.2106 35.92C67.104 36.0267 66.9493 36.08 66.7466 36.08C66.544 36.08 66.384 36.0267 66.2666 35.92C66.1493 35.8027 66.0906 35.6427 66.0906 35.44V28.688C66.0906 28.496 66.1493 28.3413 66.2666 28.224C66.384 28.1067 66.544 28.048 66.7466 28.048C66.9386 28.048 67.088 28.1067 67.1946 28.224C67.312 28.3413 67.3706 28.4907 67.3706 28.672V29.488C67.6266 29.008 67.984 28.6453 68.4426 28.4C68.9013 28.144 69.424 28.016 70.0106 28.016ZM78.7844 35.056C79.1577 35.088 79.3444 35.2587 79.3444 35.568C79.3444 35.7493 79.275 35.888 79.1364 35.984C79.0084 36.0693 78.811 36.1013 78.5444 36.08L78.1124 36.048C77.259 35.984 76.6297 35.728 76.2244 35.28C75.819 34.832 75.6164 34.1547 75.6164 33.248V29.232H74.5444C74.363 29.232 74.219 29.1893 74.1124 29.104C74.0164 29.008 73.9684 28.8853 73.9684 28.736C73.9684 28.576 74.0164 28.448 74.1124 28.352C74.219 28.256 74.363 28.208 74.5444 28.208H75.6164V26.4C75.6164 26.1973 75.675 26.0427 75.7924 25.936C75.9097 25.8187 76.0697 25.76 76.2724 25.76C76.4644 25.76 76.619 25.8187 76.7364 25.936C76.8537 26.0427 76.9124 26.1973 76.9124 26.4V28.208H78.6884C78.859 28.208 78.9924 28.256 79.0884 28.352C79.195 28.448 79.2484 28.576 79.2484 28.736C79.2484 28.8853 79.195 29.008 79.0884 29.104C78.9924 29.1893 78.859 29.232 78.6884 29.232H76.9124V33.312C76.9124 33.8987 77.0297 34.3253 77.2644 34.592C77.5097 34.848 77.8724 34.992 78.3524 35.024L78.7844 35.056ZM86.6539 34.192C86.7712 34.192 86.8725 34.24 86.9579 34.336C87.0432 34.432 87.0859 34.5547 87.0859 34.704C87.0859 34.9707 86.8992 35.216 86.5259 35.44C86.1419 35.664 85.7365 35.8347 85.3099 35.952C84.8832 36.0587 84.4672 36.112 84.0619 36.112C82.8565 36.112 81.9019 35.7547 81.1979 35.04C80.5045 34.3253 80.1579 33.3387 80.1579 32.08C80.1579 31.28 80.3125 30.576 80.6219 29.968C80.9312 29.3493 81.3632 28.8693 81.9179 28.528C82.4832 28.1867 83.1232 28.016 83.8379 28.016C84.8512 28.016 85.6565 28.3467 86.2539 29.008C86.8512 29.6693 87.1499 30.5653 87.1499 31.696C87.1499 31.9093 87.1072 32.064 87.0219 32.16C86.9365 32.256 86.7979 32.304 86.6059 32.304H81.4539C81.5499 34.1387 82.4192 35.056 84.0619 35.056C84.4779 35.056 84.8352 35.0027 85.1339 34.896C85.4325 34.7787 85.7525 34.624 86.0939 34.432C86.3712 34.272 86.5579 34.192 86.6539 34.192ZM83.8539 29.024C83.1712 29.024 82.6219 29.2373 82.2059 29.664C81.8005 30.0907 81.5605 30.6933 81.4859 31.472H86.0139C85.9925 30.6827 85.7952 30.08 85.4219 29.664C85.0485 29.2373 84.5259 29.024 83.8539 29.024ZM92.9154 28.048C93.3634 28.016 93.5874 28.1973 93.5874 28.592C93.5874 28.7627 93.5394 28.9013 93.4434 29.008C93.3474 29.104 93.182 29.1627 92.9474 29.184L92.4674 29.232C91.7527 29.296 91.2194 29.552 90.8674 30C90.526 30.4373 90.3554 30.9547 90.3554 31.552V35.44C90.3554 35.6533 90.2967 35.8133 90.1794 35.92C90.062 36.0267 89.9074 36.08 89.7154 36.08C89.5234 36.08 89.3634 36.0267 89.2354 35.92C89.118 35.8027 89.0594 35.6427 89.0594 35.44V28.688C89.0594 28.4853 89.1234 28.3307 89.2514 28.224C89.3794 28.1067 89.534 28.048 89.7154 28.048C89.886 28.048 90.03 28.1067 90.1474 28.224C90.2647 28.3307 90.3234 28.48 90.3234 28.672V29.568C90.5474 29.0987 90.862 28.7413 91.2674 28.496C91.6834 28.2507 92.158 28.1067 92.6914 28.064L92.9154 28.048ZM100.576 34.192C100.693 34.192 100.794 34.24 100.88 34.336C100.965 34.432 101.008 34.5547 101.008 34.704C101.008 34.9707 100.821 35.216 100.448 35.44C100.064 35.664 99.6584 35.8347 99.2318 35.952C98.8051 36.0587 98.3891 36.112 97.9838 36.112C96.7784 36.112 95.8238 35.7547 95.1198 35.04C94.4264 34.3253 94.0798 33.3387 94.0798 32.08C94.0798 31.28 94.2344 30.576 94.5438 29.968C94.8531 29.3493 95.2851 28.8693 95.8398 28.528C96.4051 28.1867 97.0451 28.016 97.7598 28.016C98.7731 28.016 99.5784 28.3467 100.176 29.008C100.773 29.6693 101.072 30.5653 101.072 31.696C101.072 31.9093 101.029 32.064 100.944 32.16C100.858 32.256 100.72 32.304 100.528 32.304H95.3758C95.4718 34.1387 96.3411 35.056 97.9838 35.056C98.3998 35.056 98.7571 35.0027 99.0558 34.896C99.3544 34.7787 99.6744 34.624 100.016 34.432C100.293 34.272 100.48 34.192 100.576 34.192ZM97.7758 29.024C97.0931 29.024 96.5438 29.2373 96.1278 29.664C95.7224 30.0907 95.4824 30.6933 95.4078 31.472H99.9358C99.9144 30.6827 99.7171 30.08 99.3438 29.664C98.9704 29.2373 98.4478 29.024 97.7758 29.024ZM109.237 24.64C109.44 24.64 109.6 24.6987 109.717 24.816C109.835 24.9333 109.893 25.0827 109.893 25.264V35.44C109.893 35.632 109.835 35.7867 109.717 35.904C109.6 36.0213 109.44 36.08 109.237 36.08C109.035 36.08 108.875 36.0213 108.757 35.904C108.651 35.7867 108.597 35.632 108.597 35.44V34.576C108.363 35.0667 108.016 35.4453 107.557 35.712C107.109 35.9787 106.581 36.112 105.973 36.112C105.291 36.112 104.688 35.9413 104.165 35.6C103.643 35.2587 103.237 34.784 102.949 34.176C102.661 33.5573 102.517 32.8427 102.517 32.032C102.517 31.232 102.661 30.528 102.949 29.92C103.237 29.312 103.643 28.8427 104.165 28.512C104.688 28.1813 105.291 28.016 105.973 28.016C106.581 28.016 107.109 28.1493 107.557 28.416C108.016 28.6827 108.363 29.0613 108.597 29.552V25.264C108.597 25.072 108.651 24.9227 108.757 24.816C108.875 24.6987 109.035 24.64 109.237 24.64ZM106.229 35.04C106.987 35.04 107.568 34.784 107.973 34.272C108.389 33.7493 108.597 33.0133 108.597 32.064C108.597 31.1147 108.389 30.384 107.973 29.872C107.568 29.36 106.987 29.104 106.229 29.104C105.472 29.104 104.88 29.36 104.453 29.872C104.037 30.384 103.829 31.104 103.829 32.032C103.829 32.9813 104.037 33.7227 104.453 34.256C104.88 34.7787 105.472 35.04 106.229 35.04ZM122.035 28.448C122.152 28.192 122.339 28.064 122.595 28.064C122.755 28.064 122.899 28.1173 123.027 28.224C123.155 28.3307 123.219 28.464 123.219 28.624C123.219 28.72 123.197 28.8053 123.155 28.88L120.035 35.6C119.971 35.7387 119.875 35.8507 119.747 35.936C119.619 36.0107 119.48 36.048 119.331 36.048C119.192 36.048 119.059 36.0107 118.931 35.936C118.803 35.8507 118.701 35.7387 118.627 35.6L115.523 28.88C115.48 28.8053 115.459 28.7253 115.459 28.64C115.459 28.48 115.528 28.3413 115.667 28.224C115.816 28.1067 115.976 28.048 116.147 28.048C116.253 28.048 116.355 28.08 116.451 28.144C116.557 28.208 116.637 28.2987 116.691 28.416L119.363 34.416L122.035 28.448ZM127.681 28.016C129.633 28.016 130.609 29.04 130.609 31.088V35.44C130.609 35.632 130.55 35.7867 130.433 35.904C130.326 36.0213 130.177 36.08 129.985 36.08C129.793 36.08 129.638 36.0213 129.521 35.904C129.404 35.7867 129.345 35.632 129.345 35.44V34.672C129.142 35.1307 128.833 35.488 128.417 35.744C128.001 35.9893 127.521 36.112 126.977 36.112C126.476 36.112 126.012 36.0107 125.585 35.808C125.169 35.6053 124.838 35.3227 124.593 34.96C124.348 34.5973 124.225 34.1973 124.225 33.76C124.225 33.1733 124.374 32.72 124.673 32.4C124.972 32.0693 125.462 31.8347 126.145 31.696C126.828 31.5467 127.777 31.472 128.993 31.472H129.345V30.944C129.345 30.304 129.212 29.8347 128.945 29.536C128.689 29.2373 128.268 29.088 127.681 29.088C126.956 29.088 126.22 29.2853 125.473 29.68C125.185 29.8613 124.982 29.952 124.865 29.952C124.737 29.952 124.63 29.904 124.545 29.808C124.46 29.712 124.417 29.5893 124.417 29.44C124.417 29.2907 124.46 29.1627 124.545 29.056C124.641 28.9387 124.79 28.8213 124.993 28.704C125.366 28.4907 125.788 28.3253 126.257 28.208C126.737 28.08 127.212 28.016 127.681 28.016ZM127.153 35.088C127.793 35.088 128.316 34.8747 128.721 34.448C129.137 34.0107 129.345 33.4507 129.345 32.768V32.304H129.057C128.118 32.304 127.404 32.3467 126.913 32.432C126.422 32.5067 126.07 32.64 125.857 32.832C125.654 33.0133 125.553 33.2853 125.553 33.648C125.553 34.064 125.702 34.4107 126.001 34.688C126.31 34.9547 126.694 35.088 127.153 35.088ZM133.637 36.08C133.445 36.08 133.285 36.0267 133.157 35.92C133.04 35.8027 132.981 35.6427 132.981 35.44V25.28C132.981 25.0773 133.04 24.9227 133.157 24.816C133.285 24.6987 133.445 24.64 133.637 24.64C133.819 24.64 133.968 24.6987 134.085 24.816C134.213 24.9227 134.277 25.0773 134.277 25.28V35.44C134.277 35.6427 134.213 35.8027 134.085 35.92C133.968 36.0267 133.819 36.08 133.637 36.08ZM142.62 28.048C142.823 28.048 142.977 28.1067 143.084 28.224C143.201 28.3413 143.26 28.496 143.26 28.688V35.456C143.26 35.6373 143.201 35.7867 143.084 35.904C142.977 36.0213 142.823 36.08 142.62 36.08C142.428 36.08 142.273 36.0267 142.156 35.92C142.049 35.8027 141.996 35.6533 141.996 35.472V34.672C141.751 35.1413 141.404 35.4987 140.956 35.744C140.519 35.9893 140.023 36.112 139.468 36.112C138.54 36.112 137.841 35.856 137.372 35.344C136.903 34.8213 136.668 34.0533 136.668 33.04V28.688C136.668 28.496 136.727 28.3413 136.844 28.224C136.961 28.1067 137.121 28.048 137.324 28.048C137.527 28.048 137.681 28.1067 137.788 28.224C137.905 28.3413 137.964 28.496 137.964 28.688V33.008C137.964 33.7013 138.103 34.2133 138.38 34.544C138.657 34.864 139.095 35.024 139.692 35.024C140.375 35.024 140.924 34.8053 141.34 34.368C141.756 33.92 141.964 33.3333 141.964 32.608V28.688C141.964 28.496 142.023 28.3413 142.14 28.224C142.257 28.1067 142.417 28.048 142.62 28.048ZM151.701 34.192C151.818 34.192 151.919 34.24 152.005 34.336C152.09 34.432 152.133 34.5547 152.133 34.704C152.133 34.9707 151.946 35.216 151.573 35.44C151.189 35.664 150.783 35.8347 150.357 35.952C149.93 36.0587 149.514 36.112 149.109 36.112C147.903 36.112 146.949 35.7547 146.245 35.04C145.551 34.3253 145.205 33.3387 145.205 32.08C145.205 31.28 145.359 30.576 145.669 29.968C145.978 29.3493 146.41 28.8693 146.965 28.528C147.53 28.1867 148.17 28.016 148.885 28.016C149.898 28.016 150.703 28.3467 151.301 29.008C151.898 29.6693 152.197 30.5653 152.197 31.696C152.197 31.9093 152.154 32.064 152.069 32.16C151.983 32.256 151.845 32.304 151.653 32.304H146.501C146.597 34.1387 147.466 35.056 149.109 35.056C149.525 35.056 149.882 35.0027 150.181 34.896C150.479 34.7787 150.799 34.624 151.141 34.432C151.418 34.272 151.605 34.192 151.701 34.192ZM148.901 29.024C148.218 29.024 147.669 29.2373 147.253 29.664C146.847 30.0907 146.607 30.6933 146.533 31.472H151.061C151.039 30.6827 150.842 30.08 150.469 29.664C150.095 29.2373 149.573 29.024 148.901 29.024ZM166.903 28.016C168.631 28.016 169.495 29.0453 169.495 31.104V35.44C169.495 35.6427 169.437 35.8027 169.319 35.92C169.202 36.0267 169.047 36.08 168.855 36.08C168.663 36.08 168.503 36.0267 168.375 35.92C168.258 35.8027 168.199 35.6427 168.199 35.44V31.136C168.199 30.4213 168.071 29.904 167.815 29.584C167.559 29.264 167.159 29.104 166.615 29.104C165.965 29.104 165.453 29.3227 165.079 29.76C164.706 30.1973 164.519 30.7893 164.519 31.536V35.44C164.519 35.6427 164.455 35.8027 164.327 35.92C164.21 36.0267 164.055 36.08 163.863 36.08C163.671 36.08 163.517 36.0267 163.399 35.92C163.282 35.8027 163.223 35.6427 163.223 35.44V31.136C163.223 30.4213 163.095 29.904 162.839 29.584C162.583 29.264 162.178 29.104 161.623 29.104C160.983 29.104 160.471 29.3227 160.087 29.76C159.714 30.1973 159.527 30.7893 159.527 31.536V35.44C159.527 35.6427 159.469 35.8027 159.351 35.92C159.234 36.0267 159.079 36.08 158.887 36.08C158.695 36.08 158.535 36.0267 158.407 35.92C158.29 35.8027 158.231 35.6427 158.231 35.44V28.688C158.231 28.496 158.29 28.3413 158.407 28.224C158.535 28.1067 158.695 28.048 158.887 28.048C159.069 28.048 159.218 28.1067 159.335 28.224C159.453 28.3307 159.511 28.48 159.511 28.672V29.44C159.746 28.9813 160.071 28.6293 160.487 28.384C160.903 28.1387 161.383 28.016 161.927 28.016C163.143 28.016 163.938 28.528 164.311 29.552C164.535 29.0827 164.877 28.7093 165.335 28.432C165.794 28.1547 166.317 28.016 166.903 28.016ZM177.776 28.048C177.979 28.048 178.134 28.1067 178.24 28.224C178.358 28.3413 178.416 28.496 178.416 28.688V35.456C178.416 35.6373 178.358 35.7867 178.24 35.904C178.134 36.0213 177.979 36.08 177.776 36.08C177.584 36.08 177.43 36.0267 177.312 35.92C177.206 35.8027 177.152 35.6533 177.152 35.472V34.672C176.907 35.1413 176.56 35.4987 176.112 35.744C175.675 35.9893 175.179 36.112 174.624 36.112C173.696 36.112 172.998 35.856 172.528 35.344C172.059 34.8213 171.824 34.0533 171.824 33.04V28.688C171.824 28.496 171.883 28.3413 172 28.224C172.118 28.1067 172.278 28.048 172.48 28.048C172.683 28.048 172.838 28.1067 172.944 28.224C173.062 28.3413 173.12 28.496 173.12 28.688V33.008C173.12 33.7013 173.259 34.2133 173.536 34.544C173.814 34.864 174.251 35.024 174.848 35.024C175.531 35.024 176.08 34.8053 176.496 34.368C176.912 33.92 177.12 33.3333 177.12 32.608V28.688C177.12 28.496 177.179 28.3413 177.296 28.224C177.414 28.1067 177.574 28.048 177.776 28.048ZM183.449 36.112C182.958 36.112 182.489 36.0533 182.041 35.936C181.604 35.8187 181.214 35.6533 180.873 35.44C180.681 35.312 180.542 35.1947 180.457 35.088C180.382 34.9707 180.345 34.832 180.345 34.672C180.345 34.5333 180.382 34.4213 180.457 34.336C180.542 34.24 180.649 34.192 180.777 34.192C180.905 34.192 181.092 34.272 181.337 34.432C181.657 34.624 181.972 34.7787 182.281 34.896C182.601 35.0027 182.996 35.056 183.465 35.056C184.041 35.056 184.489 34.9547 184.809 34.752C185.129 34.5493 185.289 34.256 185.289 33.872C185.289 33.6373 185.23 33.4507 185.113 33.312C184.996 33.1627 184.793 33.0347 184.505 32.928C184.217 32.8107 183.796 32.6933 183.241 32.576C182.302 32.3733 181.63 32.1013 181.225 31.76C180.82 31.4187 180.617 30.9547 180.617 30.368C180.617 29.9093 180.745 29.504 181.001 29.152C181.257 28.8 181.609 28.5227 182.057 28.32C182.516 28.1173 183.033 28.016 183.609 28.016C184.025 28.016 184.425 28.0747 184.809 28.192C185.204 28.2987 185.55 28.4533 185.849 28.656C186.212 28.912 186.393 29.1787 186.393 29.456C186.393 29.5947 186.35 29.712 186.265 29.808C186.18 29.904 186.078 29.952 185.961 29.952C185.833 29.952 185.641 29.8613 185.385 29.68C185.086 29.488 184.804 29.3387 184.537 29.232C184.27 29.1253 183.94 29.072 183.545 29.072C183.044 29.072 182.638 29.184 182.329 29.408C182.03 29.632 181.881 29.9307 181.881 30.304C181.881 30.5387 181.934 30.7307 182.041 30.88C182.158 31.0187 182.345 31.1467 182.601 31.264C182.868 31.3707 183.246 31.4773 183.737 31.584C184.462 31.744 185.022 31.92 185.417 32.112C185.822 32.304 186.11 32.5387 186.281 32.816C186.452 33.0933 186.537 33.4453 186.537 33.872C186.537 34.544 186.254 35.088 185.689 35.504C185.124 35.9093 184.377 36.112 183.449 36.112ZM192.034 35.056C192.408 35.088 192.594 35.2587 192.594 35.568C192.594 35.7493 192.525 35.888 192.386 35.984C192.258 36.0693 192.061 36.1013 191.794 36.08L191.362 36.048C190.509 35.984 189.88 35.728 189.474 35.28C189.069 34.832 188.866 34.1547 188.866 33.248V29.232H187.794C187.613 29.232 187.469 29.1893 187.362 29.104C187.266 29.008 187.218 28.8853 187.218 28.736C187.218 28.576 187.266 28.448 187.362 28.352C187.469 28.256 187.613 28.208 187.794 28.208H188.866V26.4C188.866 26.1973 188.925 26.0427 189.042 25.936C189.16 25.8187 189.32 25.76 189.522 25.76C189.714 25.76 189.869 25.8187 189.986 25.936C190.104 26.0427 190.162 26.1973 190.162 26.4V28.208H191.938C192.109 28.208 192.242 28.256 192.338 28.352C192.445 28.448 192.498 28.576 192.498 28.736C192.498 28.8853 192.445 29.008 192.338 29.104C192.242 29.1893 192.109 29.232 191.938 29.232H190.162V33.312C190.162 33.8987 190.28 34.3253 190.514 34.592C190.76 34.848 191.122 34.992 191.602 35.024L192.034 35.056ZM198.653 36.08C198.461 36.08 198.301 36.0267 198.173 35.92C198.056 35.8027 197.997 35.6427 197.997 35.44V25.28C197.997 25.0773 198.056 24.9227 198.173 24.816C198.301 24.6987 198.461 24.64 198.653 24.64C198.834 24.64 198.984 24.6987 199.101 24.816C199.229 24.9227 199.293 25.0773 199.293 25.28V35.44C199.293 35.6427 199.229 35.8027 199.101 35.92C198.984 36.0267 198.834 36.08 198.653 36.08ZM202.372 36.08C202.18 36.08 202.02 36.0267 201.892 35.92C201.774 35.8027 201.716 35.6427 201.716 35.44V28.688C201.716 28.4853 201.774 28.3307 201.892 28.224C202.02 28.1067 202.18 28.048 202.372 28.048C202.564 28.048 202.718 28.1067 202.836 28.224C202.953 28.3307 203.012 28.4853 203.012 28.688V35.44C203.012 35.6533 202.953 35.8133 202.836 35.92C202.718 36.0267 202.564 36.08 202.372 36.08ZM202.372 26.368C202.116 26.368 201.908 26.2933 201.748 26.144C201.588 25.9947 201.508 25.7973 201.508 25.552C201.508 25.3173 201.588 25.1253 201.748 24.976C201.908 24.8267 202.116 24.752 202.372 24.752C202.628 24.752 202.836 24.8267 202.996 24.976C203.156 25.1253 203.236 25.3173 203.236 25.552C203.236 25.7973 203.156 25.9947 202.996 26.144C202.836 26.2933 202.628 26.368 202.372 26.368ZM211.466 34.192C211.584 34.192 211.685 34.24 211.77 34.336C211.856 34.432 211.898 34.5547 211.898 34.704C211.898 34.9707 211.712 35.216 211.338 35.44C210.954 35.664 210.549 35.8347 210.122 35.952C209.696 36.0587 209.28 36.112 208.874 36.112C207.669 36.112 206.714 35.7547 206.01 35.04C205.317 34.3253 204.97 33.3387 204.97 32.08C204.97 31.28 205.125 30.576 205.434 29.968C205.744 29.3493 206.176 28.8693 206.73 28.528C207.296 28.1867 207.936 28.016 208.65 28.016C209.664 28.016 210.469 28.3467 211.066 29.008C211.664 29.6693 211.962 30.5653 211.962 31.696C211.962 31.9093 211.92 32.064 211.834 32.16C211.749 32.256 211.61 32.304 211.418 32.304H206.266C206.362 34.1387 207.232 35.056 208.874 35.056C209.29 35.056 209.648 35.0027 209.946 34.896C210.245 34.7787 210.565 34.624 210.906 34.432C211.184 34.272 211.37 34.192 211.466 34.192ZM208.666 29.024C207.984 29.024 207.434 29.2373 207.018 29.664C206.613 30.0907 206.373 30.6933 206.298 31.472H210.826C210.805 30.6827 210.608 30.08 210.234 29.664C209.861 29.2373 209.338 29.024 208.666 29.024ZM61.2763 52.016C61.9589 52.016 62.5616 52.1813 63.0843 52.512C63.6069 52.8427 64.0123 53.312 64.3003 53.92C64.5883 54.528 64.7323 55.232 64.7323 56.032C64.7323 56.8427 64.5883 57.5573 64.3003 58.176C64.0123 58.784 63.6069 59.2587 63.0843 59.6C62.5616 59.9413 61.9589 60.112 61.2763 60.112C60.6683 60.112 60.1349 59.9787 59.6763 59.712C59.2283 59.4453 58.8869 59.0667 58.6523 58.576V59.44C58.6523 59.632 58.5936 59.7867 58.4763 59.904C58.3696 60.0213 58.2149 60.08 58.0123 60.08C57.8096 60.08 57.6496 60.0213 57.5323 59.904C57.4149 59.7867 57.3563 59.632 57.3563 59.44V49.264C57.3563 49.0827 57.4149 48.9333 57.5323 48.816C57.6496 48.6987 57.8096 48.64 58.0123 48.64C58.2149 48.64 58.3696 48.6987 58.4763 48.816C58.5936 48.9227 58.6523 49.072 58.6523 49.264V53.552C58.8869 53.0613 59.2283 52.6827 59.6763 52.416C60.1349 52.1493 60.6683 52.016 61.2763 52.016ZM61.0203 59.04C61.7776 59.04 62.3643 58.7787 62.7803 58.256C63.1963 57.7227 63.4043 56.9813 63.4043 56.032C63.4043 55.104 63.1963 54.384 62.7803 53.872C62.3643 53.36 61.7776 53.104 61.0203 53.104C60.2629 53.104 59.6763 53.36 59.2603 53.872C58.8549 54.384 58.6523 55.1147 58.6523 56.064C58.6523 57.0133 58.8549 57.7493 59.2603 58.272C59.6763 58.784 60.2629 59.04 61.0203 59.04ZM72.7008 58.192C72.8181 58.192 72.9194 58.24 73.0048 58.336C73.0901 58.432 73.1328 58.5547 73.1328 58.704C73.1328 58.9707 72.9461 59.216 72.5728 59.44C72.1888 59.664 71.7834 59.8347 71.3568 59.952C70.9301 60.0587 70.5141 60.112 70.1088 60.112C68.9034 60.112 67.9488 59.7547 67.2448 59.04C66.5514 58.3253 66.2048 57.3387 66.2048 56.08C66.2048 55.28 66.3594 54.576 66.6688 53.968C66.9781 53.3493 67.4101 52.8693 67.9648 52.528C68.5301 52.1867 69.1701 52.016 69.8848 52.016C70.8981 52.016 71.7034 52.3467 72.3008 53.008C72.8981 53.6693 73.1968 54.5653 73.1968 55.696C73.1968 55.9093 73.1541 56.064 73.0688 56.16C72.9834 56.256 72.8448 56.304 72.6528 56.304H67.5008C67.5968 58.1387 68.4661 59.056 70.1088 59.056C70.5248 59.056 70.8821 59.0027 71.1808 58.896C71.4794 58.7787 71.7994 58.624 72.1408 58.432C72.4181 58.272 72.6048 58.192 72.7008 58.192ZM69.9008 53.024C69.2181 53.024 68.6688 53.2373 68.2528 53.664C67.8474 54.0907 67.6074 54.6933 67.5328 55.472H72.0608C72.0394 54.6827 71.8421 54.08 71.4688 53.664C71.0954 53.2373 70.5728 53.024 69.9008 53.024ZM78.6594 59.056C79.0327 59.088 79.2194 59.2587 79.2194 59.568C79.2194 59.7493 79.15 59.888 79.0114 59.984C78.8834 60.0693 78.686 60.1013 78.4194 60.08L77.9874 60.048C77.134 59.984 76.5047 59.728 76.0994 59.28C75.694 58.832 75.4914 58.1547 75.4914 57.248V53.232H74.4194C74.238 53.232 74.094 53.1893 73.9874 53.104C73.8914 53.008 73.8434 52.8853 73.8434 52.736C73.8434 52.576 73.8914 52.448 73.9874 52.352C74.094 52.256 74.238 52.208 74.4194 52.208H75.4914V50.4C75.4914 50.1973 75.55 50.0427 75.6674 49.936C75.7847 49.8187 75.9447 49.76 76.1474 49.76C76.3394 49.76 76.494 49.8187 76.6114 49.936C76.7287 50.0427 76.7874 50.1973 76.7874 50.4V52.208H78.5634C78.734 52.208 78.8674 52.256 78.9634 52.352C79.07 52.448 79.1234 52.576 79.1234 52.736C79.1234 52.8853 79.07 53.008 78.9634 53.104C78.8674 53.1893 78.734 53.232 78.5634 53.232H76.7874V57.312C76.7874 57.8987 76.9047 58.3253 77.1394 58.592C77.3847 58.848 77.7474 58.992 78.2274 59.024L78.6594 59.056ZM91.2466 52.464C91.3533 52.208 91.5293 52.08 91.7746 52.08C91.9346 52.08 92.0786 52.1333 92.2066 52.24C92.3346 52.3467 92.3986 52.48 92.3986 52.64C92.3986 52.7147 92.3826 52.7947 92.3506 52.88L89.6946 59.6C89.6306 59.7387 89.5346 59.8507 89.4066 59.936C89.2893 60.0107 89.156 60.048 89.0066 60.048C88.868 60.048 88.7346 60.0107 88.6066 59.936C88.4893 59.8507 88.3986 59.7387 88.3346 59.6L86.1266 53.984L83.9346 59.6C83.8813 59.7387 83.7906 59.8507 83.6626 59.936C83.5346 60.0107 83.396 60.048 83.2466 60.048C83.108 60.048 82.9746 60.0107 82.8466 59.936C82.7186 59.8507 82.6226 59.7387 82.5586 59.6L79.9026 52.896C79.8706 52.8107 79.8546 52.736 79.8546 52.672C79.8546 52.5013 79.924 52.3573 80.0626 52.24C80.212 52.1227 80.372 52.064 80.5426 52.064C80.7986 52.064 80.98 52.192 81.0866 52.448L83.2786 58.352L85.5346 52.496C85.5986 52.3573 85.684 52.2507 85.7906 52.176C85.908 52.1013 86.0306 52.064 86.1586 52.064C86.2973 52.064 86.42 52.1013 86.5266 52.176C86.644 52.2507 86.7293 52.3573 86.7826 52.496L89.0386 58.336L91.2466 52.464ZM99.9976 58.192C100.115 58.192 100.216 58.24 100.302 58.336C100.387 58.432 100.43 58.5547 100.43 58.704C100.43 58.9707 100.243 59.216 99.8696 59.44C99.4856 59.664 99.0803 59.8347 98.6536 59.952C98.227 60.0587 97.811 60.112 97.4056 60.112C96.2003 60.112 95.2456 59.7547 94.5416 59.04C93.8483 58.3253 93.5016 57.3387 93.5016 56.08C93.5016 55.28 93.6563 54.576 93.9656 53.968C94.275 53.3493 94.707 52.8693 95.2616 52.528C95.827 52.1867 96.467 52.016 97.1816 52.016C98.195 52.016 99.0003 52.3467 99.5976 53.008C100.195 53.6693 100.494 54.5653 100.494 55.696C100.494 55.9093 100.451 56.064 100.366 56.16C100.28 56.256 100.142 56.304 99.9496 56.304H94.7976C94.8936 58.1387 95.763 59.056 97.4056 59.056C97.8216 59.056 98.179 59.0027 98.4776 58.896C98.7763 58.7787 99.0963 58.624 99.4376 58.432C99.715 58.272 99.9016 58.192 99.9976 58.192ZM97.1976 53.024C96.515 53.024 95.9656 53.2373 95.5496 53.664C95.1443 54.0907 94.9043 54.6933 94.8296 55.472H99.3576C99.3363 54.6827 99.139 54.08 98.7656 53.664C98.3923 53.2373 97.8696 53.024 97.1976 53.024ZM108.435 58.192C108.552 58.192 108.654 58.24 108.739 58.336C108.824 58.432 108.867 58.5547 108.867 58.704C108.867 58.9707 108.68 59.216 108.307 59.44C107.923 59.664 107.518 59.8347 107.091 59.952C106.664 60.0587 106.248 60.112 105.843 60.112C104.638 60.112 103.683 59.7547 102.979 59.04C102.286 58.3253 101.939 57.3387 101.939 56.08C101.939 55.28 102.094 54.576 102.403 53.968C102.712 53.3493 103.144 52.8693 103.699 52.528C104.264 52.1867 104.904 52.016 105.619 52.016C106.632 52.016 107.438 52.3467 108.035 53.008C108.632 53.6693 108.931 54.5653 108.931 55.696C108.931 55.9093 108.888 56.064 108.803 56.16C108.718 56.256 108.579 56.304 108.387 56.304H103.235C103.331 58.1387 104.2 59.056 105.843 59.056C106.259 59.056 106.616 59.0027 106.915 58.896C107.214 58.7787 107.534 58.624 107.875 58.432C108.152 58.272 108.339 58.192 108.435 58.192ZM105.635 53.024C104.952 53.024 104.403 53.2373 103.987 53.664C103.582 54.0907 103.342 54.6933 103.267 55.472H107.795C107.774 54.6827 107.576 54.08 107.203 53.664C106.83 53.2373 106.307 53.024 105.635 53.024ZM114.761 52.016C116.627 52.016 117.561 53.0453 117.561 55.104V59.44C117.561 59.6427 117.502 59.8027 117.385 59.92C117.278 60.0267 117.123 60.08 116.921 60.08C116.718 60.08 116.558 60.0267 116.441 59.92C116.323 59.8027 116.265 59.6427 116.265 59.44V55.184C116.265 54.4587 116.121 53.9307 115.833 53.6C115.555 53.2693 115.107 53.104 114.489 53.104C113.774 53.104 113.203 53.3227 112.777 53.76C112.35 54.1973 112.137 54.7893 112.137 55.536V59.44C112.137 59.6427 112.078 59.8027 111.961 59.92C111.854 60.0267 111.699 60.08 111.497 60.08C111.294 60.08 111.134 60.0267 111.017 59.92C110.899 59.8027 110.841 59.6427 110.841 59.44V52.688C110.841 52.496 110.899 52.3413 111.017 52.224C111.134 52.1067 111.294 52.048 111.497 52.048C111.689 52.048 111.838 52.1067 111.945 52.224C112.062 52.3413 112.121 52.4907 112.121 52.672V53.488C112.377 53.008 112.734 52.6453 113.193 52.4C113.651 52.144 114.174 52.016 114.761 52.016ZM127.659 60.128C126.369 60.128 125.387 59.6373 124.715 58.656C124.043 57.6747 123.707 56.2453 123.707 54.368C123.707 52.48 124.043 51.0453 124.715 50.064C125.387 49.0827 126.369 48.592 127.659 48.592C128.95 48.592 129.931 49.0827 130.603 50.064C131.275 51.0347 131.611 52.464 131.611 54.352C131.611 56.24 131.275 57.6747 130.603 58.656C129.931 59.6373 128.95 60.128 127.659 60.128ZM127.659 59.024C128.555 59.024 129.217 58.6453 129.643 57.888C130.07 57.1307 130.283 55.952 130.283 54.352C130.283 52.7413 130.07 51.5627 129.643 50.816C129.227 50.0693 128.566 49.696 127.659 49.696C126.763 49.696 126.102 50.0747 125.675 50.832C125.249 51.5787 125.035 52.752 125.035 54.352C125.035 55.952 125.249 57.1307 125.675 57.888C126.102 58.6453 126.763 59.024 127.659 59.024ZM140.962 52.016C142.914 52.016 143.89 53.04 143.89 55.088V59.44C143.89 59.632 143.831 59.7867 143.714 59.904C143.607 60.0213 143.458 60.08 143.266 60.08C143.074 60.08 142.919 60.0213 142.802 59.904C142.685 59.7867 142.626 59.632 142.626 59.44V58.672C142.423 59.1307 142.114 59.488 141.698 59.744C141.282 59.9893 140.802 60.112 140.258 60.112C139.757 60.112 139.293 60.0107 138.866 59.808C138.45 59.6053 138.119 59.3227 137.874 58.96C137.629 58.5973 137.506 58.1973 137.506 57.76C137.506 57.1733 137.655 56.72 137.954 56.4C138.253 56.0693 138.743 55.8347 139.426 55.696C140.109 55.5467 141.058 55.472 142.274 55.472H142.626V54.944C142.626 54.304 142.493 53.8347 142.226 53.536C141.97 53.2373 141.549 53.088 140.962 53.088C140.237 53.088 139.501 53.2853 138.754 53.68C138.466 53.8613 138.263 53.952 138.146 53.952C138.018 53.952 137.911 53.904 137.826 53.808C137.741 53.712 137.698 53.5893 137.698 53.44C137.698 53.2907 137.741 53.1627 137.826 53.056C137.922 52.9387 138.071 52.8213 138.274 52.704C138.647 52.4907 139.069 52.3253 139.538 52.208C140.018 52.08 140.493 52.016 140.962 52.016ZM140.434 59.088C141.074 59.088 141.597 58.8747 142.002 58.448C142.418 58.0107 142.626 57.4507 142.626 56.768V56.304H142.338C141.399 56.304 140.685 56.3467 140.194 56.432C139.703 56.5067 139.351 56.64 139.138 56.832C138.935 57.0133 138.834 57.2853 138.834 57.648C138.834 58.064 138.983 58.4107 139.282 58.688C139.591 58.9547 139.975 59.088 140.434 59.088ZM150.183 52.016C152.049 52.016 152.983 53.0453 152.983 55.104V59.44C152.983 59.6427 152.924 59.8027 152.807 59.92C152.7 60.0267 152.545 60.08 152.343 60.08C152.14 60.08 151.98 60.0267 151.863 59.92C151.745 59.8027 151.687 59.6427 151.687 59.44V55.184C151.687 54.4587 151.543 53.9307 151.255 53.6C150.977 53.2693 150.529 53.104 149.911 53.104C149.196 53.104 148.625 53.3227 148.199 53.76C147.772 54.1973 147.559 54.7893 147.559 55.536V59.44C147.559 59.6427 147.5 59.8027 147.383 59.92C147.276 60.0267 147.121 60.08 146.919 60.08C146.716 60.08 146.556 60.0267 146.439 59.92C146.321 59.8027 146.263 59.6427 146.263 59.44V52.688C146.263 52.496 146.321 52.3413 146.439 52.224C146.556 52.1067 146.716 52.048 146.919 52.048C147.111 52.048 147.26 52.1067 147.367 52.224C147.484 52.3413 147.543 52.4907 147.543 52.672V53.488C147.799 53.008 148.156 52.6453 148.615 52.4C149.073 52.144 149.596 52.016 150.183 52.016ZM161.612 48.64C161.815 48.64 161.975 48.6987 162.092 48.816C162.21 48.9333 162.268 49.0827 162.268 49.264V59.44C162.268 59.632 162.21 59.7867 162.092 59.904C161.975 60.0213 161.815 60.08 161.612 60.08C161.41 60.08 161.25 60.0213 161.132 59.904C161.026 59.7867 160.972 59.632 160.972 59.44V58.576C160.738 59.0667 160.391 59.4453 159.932 59.712C159.484 59.9787 158.956 60.112 158.348 60.112C157.666 60.112 157.063 59.9413 156.54 59.6C156.018 59.2587 155.612 58.784 155.324 58.176C155.036 57.5573 154.892 56.8427 154.892 56.032C154.892 55.232 155.036 54.528 155.324 53.92C155.612 53.312 156.018 52.8427 156.54 52.512C157.063 52.1813 157.666 52.016 158.348 52.016C158.956 52.016 159.484 52.1493 159.932 52.416C160.391 52.6827 160.738 53.0613 160.972 53.552V49.264C160.972 49.072 161.026 48.9227 161.132 48.816C161.25 48.6987 161.41 48.64 161.612 48.64ZM158.604 59.04C159.362 59.04 159.943 58.784 160.348 58.272C160.764 57.7493 160.972 57.0133 160.972 56.064C160.972 55.1147 160.764 54.384 160.348 53.872C159.943 53.36 159.362 53.104 158.604 53.104C157.847 53.104 157.255 53.36 156.828 53.872C156.412 54.384 156.204 55.104 156.204 56.032C156.204 56.9813 156.412 57.7227 156.828 58.256C157.255 58.7787 157.847 59.04 158.604 59.04ZM175.722 58.896C175.914 58.896 176.063 58.944 176.17 59.04C176.276 59.136 176.33 59.2693 176.33 59.44C176.33 59.8133 176.127 60 175.722 60H169.45C169.268 60 169.119 59.9467 169.002 59.84C168.884 59.7227 168.826 59.584 168.826 59.424C168.826 59.2213 168.9 59.0453 169.05 58.896L172.906 54.656C173.439 54.0587 173.823 53.5253 174.058 53.056C174.303 52.576 174.426 52.096 174.426 51.616C174.426 50.9973 174.244 50.5227 173.882 50.192C173.53 49.8613 173.028 49.696 172.378 49.696C171.866 49.696 171.375 49.792 170.906 49.984C170.436 50.1653 169.967 50.448 169.498 50.832C169.338 50.96 169.188 51.024 169.05 51.024C168.932 51.024 168.831 50.9707 168.746 50.864C168.66 50.7467 168.618 50.608 168.618 50.448C168.618 50.224 168.703 50.0427 168.874 49.904C169.311 49.4987 169.844 49.1787 170.474 48.944C171.103 48.7093 171.748 48.592 172.41 48.592C173.423 48.592 174.228 48.8587 174.826 49.392C175.434 49.9253 175.738 50.6453 175.738 51.552C175.738 52.2027 175.588 52.8267 175.29 53.424C175.002 54.0213 174.522 54.688 173.85 55.424L170.65 58.896H175.722ZM179.028 60.08C178.772 60.08 178.558 60 178.388 59.84C178.217 59.6693 178.132 59.4507 178.132 59.184C178.132 58.9173 178.217 58.6987 178.388 58.528C178.558 58.3573 178.772 58.272 179.028 58.272C179.273 58.272 179.476 58.3573 179.636 58.528C179.806 58.6987 179.892 58.9173 179.892 59.184C179.892 59.4507 179.806 59.6693 179.636 59.84C179.476 60 179.273 60.08 179.028 60.08Z" fill="#444444"/>
<rect x="12.25" y="7.25" width="212.5" height="71.5" rx="7.75" stroke="#1A1A1A" stroke-width="0.5"/>
<circle cx="12" cy="79" r="11.5" fill="white" stroke="#1A1A1A"/>
<path d="M11.9996 80.736C11.8396 80.736 11.701 80.6827 11.5836 80.576C11.477 80.4693 11.413 80.3147 11.3916 80.112L10.7996 73.888L10.7836 73.728C10.7836 73.3973 10.8956 73.136 11.1196 72.944C11.3543 72.7413 11.6476 72.64 11.9996 72.64C12.373 72.64 12.677 72.7573 12.9116 72.992C13.1463 73.216 13.2423 73.52 13.1996 73.904L12.6076 80.112C12.5863 80.3147 12.517 80.4693 12.3996 80.576C12.293 80.6827 12.1596 80.736 11.9996 80.736ZM11.9996 84.096C11.6583 84.096 11.3756 83.984 11.1516 83.76C10.9276 83.5253 10.8156 83.2373 10.8156 82.896C10.8156 82.5547 10.9276 82.272 11.1516 82.048C11.3756 81.8133 11.6583 81.696 11.9996 81.696C12.341 81.696 12.6236 81.8133 12.8476 82.048C13.0716 82.272 13.1836 82.5547 13.1836 82.896C13.1836 83.2373 13.0716 83.5253 12.8476 83.76C12.6236 83.984 12.341 84.096 11.9996 84.096Z" fill="#1A1A1A"/>
<rect width="1" height="12" transform="matrix(0 1 1 0 189 7)" fill="white"/>
<path d="M200.497 6.91515C200.787 7.2368 200.559 7.75 200.126 7.75L189.321 7.75C188.897 7.75 188.665 7.25428 188.938 6.92887L194.083 0.788462L194.142 0.717183C194.342 0.474893 194.713 0.474893 194.913 0.717183L194.972 0.788462L200.497 6.91515Z" fill="white"/>
<path d="M201 7L195.463 0.867016C195.052 0.411469 194.331 0.430445 193.944 0.907L189 7" stroke="#1A1A1A" stroke-width="0.5" stroke-linecap="square"/>
</svg>
