<svg width="225" height="91" viewBox="0 0 225 91" fill="none" xmlns="http://www.w3.org/2000/svg">
<rect x="0.25" y="7.25" width="212.5" height="71.5" rx="7.75" fill="white"/>
<path d="M17.2223 36.112C17.0196 36.112 16.8596 36.0533 16.7423 35.936C16.6249 35.808 16.5663 35.6373 16.5663 35.424V25.856H12.9663C12.7743 25.856 12.6249 25.8027 12.5183 25.696C12.4116 25.5893 12.3582 25.4507 12.3582 25.28C12.3582 25.0987 12.4116 24.96 12.5183 24.864C12.6249 24.768 12.7743 24.72 12.9663 24.72H21.4943C21.6863 24.72 21.8356 24.768 21.9423 24.864C22.0489 24.96 22.1023 25.0987 22.1023 25.28C22.1023 25.4613 22.0489 25.6053 21.9423 25.712C21.8356 25.808 21.6863 25.856 21.4943 25.856H17.8943V35.424C17.8943 35.6373 17.8356 35.808 17.7183 35.936C17.6116 36.0533 17.4463 36.112 17.2223 36.112ZM24.2935 36.112C24.0802 36.112 23.9202 36.0533 23.8135 35.936C23.7068 35.8187 23.6535 35.6533 23.6535 35.44V25.264C23.6535 25.0507 23.7068 24.8907 23.8135 24.784C23.9202 24.6667 24.0802 24.608 24.2935 24.608C24.4962 24.608 24.6562 24.6667 24.7735 24.784C24.8908 24.8907 24.9495 25.0507 24.9495 25.264V29.952H24.7415C24.9655 29.3333 25.3282 28.8693 25.8295 28.56C26.3415 28.24 26.9282 28.08 27.5895 28.08C28.2082 28.08 28.7202 28.192 29.1255 28.416C29.5415 28.64 29.8508 28.9813 30.0535 29.44C30.2562 29.888 30.3575 30.4587 30.3575 31.152V35.44C30.3575 35.6533 30.2988 35.8187 30.1815 35.936C30.0748 36.0533 29.9202 36.112 29.7175 36.112C29.5042 36.112 29.3388 36.0533 29.2215 35.936C29.1148 35.8187 29.0615 35.6533 29.0615 35.44V31.232C29.0615 30.5067 28.9175 29.9787 28.6295 29.648C28.3522 29.3067 27.9042 29.136 27.2855 29.136C26.5708 29.136 26.0002 29.36 25.5735 29.808C25.1575 30.2453 24.9495 30.832 24.9495 31.568V35.44C24.9495 35.888 24.7308 36.112 24.2935 36.112ZM36.2513 36.144C35.4299 36.144 34.7206 35.984 34.1233 35.664C33.5366 35.3333 33.0779 34.8693 32.7473 34.272C32.4273 33.6747 32.2673 32.96 32.2673 32.128C32.2673 31.3173 32.4273 30.6133 32.7473 30.016C33.0673 29.408 33.5046 28.9333 34.0593 28.592C34.6246 28.2507 35.2753 28.08 36.0113 28.08C36.5339 28.08 37.0033 28.1707 37.4193 28.352C37.8353 28.5227 38.1873 28.7733 38.4753 29.104C38.7739 29.4347 38.9979 29.8347 39.1473 30.304C39.3073 30.7733 39.3873 31.3013 39.3873 31.888C39.3873 32.0587 39.3393 32.1867 39.2433 32.272C39.1473 32.3467 39.0086 32.384 38.8273 32.384H33.2593V31.536H38.5233L38.2673 31.744C38.2673 31.168 38.1819 30.6827 38.0113 30.288C37.8406 29.8827 37.5899 29.5733 37.2593 29.36C36.9393 29.1467 36.5339 29.04 36.0433 29.04C35.4993 29.04 35.0353 29.168 34.6513 29.424C34.2779 29.6693 33.9953 30.016 33.8033 30.464C33.6113 30.9013 33.5153 31.4133 33.5153 32V32.096C33.5153 33.0773 33.7499 33.824 34.2193 34.336C34.6993 34.848 35.3766 35.104 36.2513 35.104C36.6139 35.104 36.9713 35.056 37.3233 34.96C37.6859 34.864 38.0379 34.704 38.3793 34.48C38.5286 34.384 38.6619 34.3413 38.7793 34.352C38.9073 34.352 39.0086 34.3893 39.0833 34.464C39.1579 34.528 39.2059 34.6133 39.2273 34.72C39.2593 34.816 39.2486 34.9227 39.1953 35.04C39.1526 35.1573 39.0619 35.2587 38.9233 35.344C38.5713 35.6 38.1553 35.7973 37.6753 35.936C37.1953 36.0747 36.7206 36.144 36.2513 36.144ZM48.0119 36.144C47.5319 36.144 47.0465 36.0853 46.5559 35.968C46.0759 35.8507 45.6279 35.648 45.2119 35.36C45.1052 35.2853 45.0305 35.2 44.9879 35.104C44.9452 34.9973 44.9292 34.896 44.9399 34.8C44.9612 34.6933 45.0039 34.6027 45.0679 34.528C45.1425 34.4533 45.2279 34.4107 45.3239 34.4C45.4305 34.3787 45.5479 34.4 45.6759 34.464C46.0919 34.72 46.4919 34.9013 46.8759 35.008C47.2705 35.104 47.6599 35.152 48.0439 35.152C48.6519 35.152 49.1105 35.04 49.4199 34.816C49.7292 34.592 49.8839 34.288 49.8839 33.904C49.8839 33.6053 49.7825 33.3707 49.5799 33.2C49.3772 33.0187 49.0572 32.88 48.6199 32.784L47.1639 32.464C46.4919 32.3253 45.9905 32.0853 45.6599 31.744C45.3399 31.4027 45.1799 30.96 45.1799 30.416C45.1799 29.936 45.3025 29.5253 45.5479 29.184C45.8039 28.832 46.1612 28.56 46.6199 28.368C47.0785 28.176 47.6119 28.08 48.2199 28.08C48.6892 28.08 49.1319 28.144 49.5479 28.272C49.9745 28.3893 50.3585 28.5813 50.6999 28.848C50.8065 28.9227 50.8759 29.0133 50.9079 29.12C50.9505 29.216 50.9559 29.3173 50.9239 29.424C50.9025 29.52 50.8545 29.6053 50.7799 29.68C50.7052 29.744 50.6145 29.7813 50.5079 29.792C50.4012 29.8027 50.2892 29.7707 50.1719 29.696C49.8519 29.4827 49.5265 29.328 49.1959 29.232C48.8652 29.1253 48.5399 29.072 48.2199 29.072C47.6225 29.072 47.1692 29.1893 46.8599 29.424C46.5505 29.6587 46.3959 29.968 46.3959 30.352C46.3959 30.6507 46.4919 30.896 46.6839 31.088C46.8759 31.28 47.1745 31.4187 47.5799 31.504L49.0359 31.808C49.7292 31.9573 50.2465 32.1973 50.5879 32.528C50.9399 32.848 51.1159 33.2853 51.1159 33.84C51.1159 34.544 50.8332 35.104 50.2679 35.52C49.7025 35.936 48.9505 36.144 48.0119 36.144ZM55.843 36.144C55.2137 36.144 54.691 36.032 54.275 35.808C53.8697 35.5733 53.5603 35.2267 53.347 34.768C53.1443 34.3093 53.043 33.7387 53.043 33.056V28.768C53.043 28.544 53.0963 28.3787 53.203 28.272C53.3203 28.1653 53.4803 28.112 53.683 28.112C53.8963 28.112 54.0563 28.1653 54.163 28.272C54.2803 28.3787 54.339 28.544 54.339 28.768V33.04C54.339 33.7227 54.4777 34.2347 54.755 34.576C55.043 34.9067 55.491 35.072 56.099 35.072C56.7603 35.072 57.299 34.848 57.715 34.4C58.131 33.952 58.339 33.3653 58.339 32.64V28.768C58.339 28.544 58.3923 28.3787 58.499 28.272C58.6163 28.1653 58.7817 28.112 58.995 28.112C59.1977 28.112 59.3523 28.1653 59.459 28.272C59.5763 28.3787 59.635 28.544 59.635 28.768V35.44C59.635 35.888 59.427 36.112 59.011 36.112C58.8083 36.112 58.6483 36.0533 58.531 35.936C58.4243 35.8187 58.371 35.6533 58.371 35.44V33.984L58.579 34.208C58.3657 34.8373 58.0137 35.3173 57.523 35.648C57.043 35.9787 56.483 36.144 55.843 36.144ZM65.9958 36.144C65.2918 36.144 64.6838 35.9627 64.1718 35.6C63.6704 35.2373 63.3344 34.752 63.1638 34.144L63.3398 33.968V35.44C63.3398 35.6533 63.2811 35.8187 63.1638 35.936C63.0571 36.0533 62.9024 36.112 62.6998 36.112C62.4864 36.112 62.3264 36.0533 62.2198 35.936C62.1131 35.8187 62.0598 35.6533 62.0598 35.44V25.264C62.0598 25.0507 62.1131 24.8907 62.2198 24.784C62.3264 24.6667 62.4864 24.608 62.6998 24.608C62.9024 24.608 63.0624 24.6667 63.1798 24.784C63.2971 24.8907 63.3558 25.0507 63.3558 25.264V30.032H63.1638C63.3451 29.4347 63.6864 28.96 64.1878 28.608C64.6891 28.256 65.2918 28.08 65.9958 28.08C66.6998 28.08 67.3078 28.2453 67.8198 28.576C68.3318 28.896 68.7264 29.36 69.0038 29.968C69.2918 30.5653 69.4358 31.28 69.4358 32.112C69.4358 32.9333 69.2918 33.648 69.0038 34.256C68.7264 34.8533 68.3264 35.3173 67.8038 35.648C67.2918 35.9787 66.6891 36.144 65.9958 36.144ZM65.7238 35.104C66.2144 35.104 66.6358 34.9867 66.9878 34.752C67.3504 34.5173 67.6278 34.176 67.8198 33.728C68.0224 33.28 68.1238 32.7413 68.1238 32.112C68.1238 31.1413 67.9051 30.4 67.4678 29.888C67.0411 29.376 66.4598 29.12 65.7238 29.12C65.2438 29.12 64.8224 29.2373 64.4598 29.472C64.0971 29.696 63.8144 30.032 63.6118 30.48C63.4198 30.9173 63.3238 31.4613 63.3238 32.112C63.3238 33.072 63.5424 33.8133 63.9798 34.336C64.4171 34.848 64.9984 35.104 65.7238 35.104ZM74.4298 36.144C73.8218 36.144 73.3098 36.0373 72.8938 35.824C72.4884 35.6 72.1844 35.28 71.9818 34.864C71.7791 34.4373 71.6778 33.92 71.6778 33.312V29.232H70.6058C70.4244 29.232 70.2858 29.1893 70.1898 29.104C70.0938 29.008 70.0457 28.88 70.0457 28.72C70.0457 28.56 70.0938 28.4373 70.1898 28.352C70.2858 28.2667 70.4244 28.224 70.6058 28.224H71.6778V26.384C71.6778 26.1707 71.7364 26.0107 71.8538 25.904C71.9711 25.7867 72.1311 25.728 72.3338 25.728C72.5364 25.728 72.6911 25.7867 72.7978 25.904C72.9151 26.0107 72.9738 26.1707 72.9738 26.384V28.224H74.9898C75.1711 28.224 75.3098 28.2667 75.4058 28.352C75.5018 28.4373 75.5498 28.56 75.5498 28.72C75.5498 28.88 75.5018 29.008 75.4058 29.104C75.3098 29.1893 75.1711 29.232 74.9898 29.232H72.9738V33.184C72.9738 33.792 73.1018 34.256 73.3578 34.576C73.6138 34.8853 74.0298 35.04 74.6058 35.04C74.8084 35.04 74.9791 35.0187 75.1178 34.976C75.2671 34.9333 75.3898 34.912 75.4858 34.912C75.5818 34.9013 75.6618 34.9333 75.7258 35.008C75.7898 35.0827 75.8218 35.2107 75.8218 35.392C75.8218 35.52 75.7951 35.6373 75.7418 35.744C75.6991 35.8507 75.6191 35.9253 75.5018 35.968C75.3738 36.0107 75.2031 36.048 74.9898 36.08C74.7871 36.1227 74.6004 36.144 74.4298 36.144ZM77.5595 36.112C77.3462 36.112 77.1808 36.0533 77.0635 35.936C76.9568 35.8187 76.9035 35.6533 76.9035 35.44V28.768C76.9035 28.5547 76.9568 28.3947 77.0635 28.288C77.1702 28.1707 77.3248 28.112 77.5275 28.112C77.7302 28.112 77.8848 28.1707 77.9915 28.288C78.1088 28.3947 78.1675 28.5547 78.1675 28.768V30.064H78.0075C78.1782 29.4347 78.5035 28.9493 78.9835 28.608C79.4635 28.2667 80.0555 28.0853 80.7595 28.064C80.9195 28.0533 81.0475 28.0907 81.1435 28.176C81.2395 28.2507 81.2928 28.384 81.3035 28.576C81.3142 28.7573 81.2715 28.9013 81.1755 29.008C81.0795 29.1147 80.9302 29.1787 80.7275 29.2L80.4715 29.232C79.7462 29.296 79.1862 29.5307 78.7915 29.936C78.4075 30.3307 78.2155 30.8747 78.2155 31.568V35.44C78.2155 35.6533 78.1568 35.8187 78.0395 35.936C77.9328 36.0533 77.7728 36.112 77.5595 36.112ZM85.0078 36.144C84.4744 36.144 83.9944 36.0427 83.5678 35.84C83.1518 35.6267 82.8211 35.3387 82.5758 34.976C82.3304 34.6133 82.2078 34.208 82.2078 33.76C82.2078 33.184 82.3518 32.7307 82.6398 32.4C82.9384 32.0693 83.4238 31.8347 84.0958 31.696C84.7784 31.5573 85.7064 31.488 86.8798 31.488H87.5998V32.336H86.8958C86.0318 32.336 85.3491 32.3787 84.8478 32.464C84.3571 32.5387 84.0104 32.672 83.8078 32.864C83.6158 33.056 83.5198 33.328 83.5198 33.68C83.5198 34.1173 83.6691 34.4747 83.9678 34.752C84.2771 35.0293 84.6931 35.168 85.2158 35.168C85.6424 35.168 86.0158 35.0667 86.3358 34.864C86.6664 34.6613 86.9224 34.384 87.1038 34.032C87.2958 33.68 87.3918 33.2747 87.3918 32.816V30.992C87.3918 30.3307 87.2584 29.856 86.9918 29.568C86.7251 29.2693 86.2878 29.12 85.6798 29.12C85.3064 29.12 84.9331 29.168 84.5598 29.264C84.1864 29.36 83.7918 29.5147 83.3758 29.728C83.2264 29.8027 83.0984 29.8293 82.9918 29.808C82.8851 29.776 82.7998 29.7173 82.7358 29.632C82.6718 29.5467 82.6344 29.4507 82.6238 29.344C82.6131 29.2267 82.6344 29.1147 82.6878 29.008C82.7518 28.9013 82.8478 28.816 82.9758 28.752C83.4451 28.5173 83.9091 28.3467 84.3678 28.24C84.8264 28.1333 85.2638 28.08 85.6798 28.08C86.3518 28.08 86.9064 28.192 87.3438 28.416C87.7811 28.6293 88.1064 28.96 88.3198 29.408C88.5331 29.8453 88.6398 30.4107 88.6398 31.104V35.44C88.6398 35.6533 88.5864 35.8187 88.4798 35.936C88.3838 36.0533 88.2398 36.112 88.0478 36.112C87.8451 36.112 87.6904 36.0533 87.5838 35.936C87.4771 35.8187 87.4238 35.6533 87.4238 35.44V34.192H87.5678C87.4824 34.5973 87.3171 34.944 87.0718 35.232C86.8371 35.52 86.5438 35.744 86.1918 35.904C85.8398 36.064 85.4451 36.144 85.0078 36.144ZM91.6841 36.112C91.4708 36.112 91.3108 36.0533 91.2041 35.936C91.0975 35.8187 91.0441 35.6533 91.0441 35.44V25.264C91.0441 25.0507 91.0975 24.8907 91.2041 24.784C91.3108 24.6667 91.4708 24.608 91.6841 24.608C91.8868 24.608 92.0468 24.6667 92.1641 24.784C92.2815 24.8907 92.3401 25.0507 92.3401 25.264V29.952H92.1321C92.3561 29.3333 92.7188 28.8693 93.2201 28.56C93.7321 28.24 94.3188 28.08 94.9801 28.08C95.5988 28.08 96.1108 28.192 96.5161 28.416C96.9321 28.64 97.2415 28.9813 97.4441 29.44C97.6468 29.888 97.7481 30.4587 97.7481 31.152V35.44C97.7481 35.6533 97.6895 35.8187 97.5721 35.936C97.4655 36.0533 97.3108 36.112 97.1081 36.112C96.8948 36.112 96.7295 36.0533 96.6121 35.936C96.5055 35.8187 96.4521 35.6533 96.4521 35.44V31.232C96.4521 30.5067 96.3081 29.9787 96.0201 29.648C95.7428 29.3067 95.2948 29.136 94.6761 29.136C93.9615 29.136 93.3908 29.36 92.9641 29.808C92.5481 30.2453 92.3401 30.832 92.3401 31.568V35.44C92.3401 35.888 92.1215 36.112 91.6841 36.112ZM103.642 36.144C102.821 36.144 102.111 35.984 101.514 35.664C100.927 35.3333 100.469 34.8693 100.138 34.272C99.8179 33.6747 99.6579 32.96 99.6579 32.128C99.6579 31.3173 99.8179 30.6133 100.138 30.016C100.458 29.408 100.895 28.9333 101.45 28.592C102.015 28.2507 102.666 28.08 103.402 28.08C103.925 28.08 104.394 28.1707 104.81 28.352C105.226 28.5227 105.578 28.7733 105.866 29.104C106.165 29.4347 106.389 29.8347 106.538 30.304C106.698 30.7733 106.778 31.3013 106.778 31.888C106.778 32.0587 106.73 32.1867 106.634 32.272C106.538 32.3467 106.399 32.384 106.218 32.384H100.65V31.536H105.914L105.658 31.744C105.658 31.168 105.573 30.6827 105.402 30.288C105.231 29.8827 104.981 29.5733 104.65 29.36C104.33 29.1467 103.925 29.04 103.434 29.04C102.89 29.04 102.426 29.168 102.042 29.424C101.669 29.6693 101.386 30.016 101.194 30.464C101.002 30.9013 100.906 31.4133 100.906 32V32.096C100.906 33.0773 101.141 33.824 101.61 34.336C102.09 34.848 102.767 35.104 103.642 35.104C104.005 35.104 104.362 35.056 104.714 34.96C105.077 34.864 105.429 34.704 105.77 34.48C105.919 34.384 106.053 34.3413 106.17 34.352C106.298 34.352 106.399 34.3893 106.474 34.464C106.549 34.528 106.597 34.6133 106.618 34.72C106.65 34.816 106.639 34.9227 106.586 35.04C106.543 35.1573 106.453 35.2587 106.314 35.344C105.962 35.6 105.546 35.7973 105.066 35.936C104.586 36.0747 104.111 36.144 103.642 36.144ZM109.294 36.112C109.08 36.112 108.92 36.0533 108.814 35.936C108.707 35.8187 108.654 35.6533 108.654 35.44V28.768C108.654 28.5547 108.707 28.3947 108.814 28.288C108.92 28.1707 109.075 28.112 109.278 28.112C109.48 28.112 109.635 28.1707 109.742 28.288C109.859 28.3947 109.918 28.5547 109.918 28.768V30.144L109.742 29.952C109.966 29.3333 110.328 28.8693 110.83 28.56C111.342 28.24 111.928 28.08 112.59 28.08C113.208 28.08 113.72 28.192 114.126 28.416C114.542 28.64 114.851 28.9813 115.054 29.44C115.256 29.888 115.358 30.4587 115.358 31.152V35.44C115.358 35.6533 115.299 35.8187 115.182 35.936C115.075 36.0533 114.92 36.112 114.718 36.112C114.504 36.112 114.339 36.0533 114.222 35.936C114.115 35.8187 114.062 35.6533 114.062 35.44V31.232C114.062 30.5067 113.918 29.9787 113.63 29.648C113.352 29.3067 112.904 29.136 112.286 29.136C111.571 29.136 111 29.36 110.574 29.808C110.158 30.2453 109.95 30.832 109.95 31.568V35.44C109.95 35.888 109.731 36.112 109.294 36.112ZM120.707 36.144C120.014 36.144 119.406 35.9787 118.883 35.648C118.371 35.3173 117.971 34.8533 117.683 34.256C117.406 33.648 117.267 32.9333 117.267 32.112C117.267 31.28 117.406 30.5653 117.683 29.968C117.971 29.36 118.371 28.896 118.883 28.576C119.406 28.2453 120.014 28.08 120.707 28.08C121.411 28.08 122.014 28.256 122.515 28.608C123.017 28.96 123.353 29.4347 123.523 30.032H123.347V25.264C123.347 25.0507 123.401 24.8907 123.507 24.784C123.625 24.6667 123.79 24.608 124.003 24.608C124.206 24.608 124.361 24.6667 124.467 24.784C124.585 24.8907 124.643 25.0507 124.643 25.264V35.44C124.643 35.6533 124.59 35.8187 124.483 35.936C124.377 36.0533 124.217 36.112 124.003 36.112C123.801 36.112 123.641 36.0533 123.523 35.936C123.417 35.8187 123.363 35.6533 123.363 35.44V33.92L123.539 34.144C123.369 34.752 123.027 35.2373 122.515 35.6C122.014 35.9627 121.411 36.144 120.707 36.144ZM120.979 35.104C121.459 35.104 121.881 34.9867 122.243 34.752C122.606 34.5173 122.883 34.176 123.075 33.728C123.278 33.28 123.379 32.7413 123.379 32.112C123.379 31.1413 123.161 30.4 122.723 29.888C122.297 29.376 121.715 29.12 120.979 29.12C120.489 29.12 120.062 29.2373 119.699 29.472C119.347 29.696 119.07 30.032 118.867 30.48C118.675 30.9173 118.579 31.4613 118.579 32.112C118.579 33.072 118.798 33.8133 119.235 34.336C119.673 34.848 120.254 35.104 120.979 35.104ZM133.824 36.144C133.344 36.144 132.859 36.0853 132.368 35.968C131.888 35.8507 131.44 35.648 131.024 35.36C130.918 35.2853 130.843 35.2 130.8 35.104C130.758 34.9973 130.742 34.896 130.752 34.8C130.774 34.6933 130.816 34.6027 130.88 34.528C130.955 34.4533 131.04 34.4107 131.136 34.4C131.243 34.3787 131.36 34.4 131.488 34.464C131.904 34.72 132.304 34.9013 132.688 35.008C133.083 35.104 133.472 35.152 133.856 35.152C134.464 35.152 134.923 35.04 135.232 34.816C135.542 34.592 135.696 34.288 135.696 33.904C135.696 33.6053 135.595 33.3707 135.392 33.2C135.19 33.0187 134.87 32.88 134.432 32.784L132.976 32.464C132.304 32.3253 131.803 32.0853 131.472 31.744C131.152 31.4027 130.992 30.96 130.992 30.416C130.992 29.936 131.115 29.5253 131.36 29.184C131.616 28.832 131.974 28.56 132.432 28.368C132.891 28.176 133.424 28.08 134.032 28.08C134.502 28.08 134.944 28.144 135.36 28.272C135.787 28.3893 136.171 28.5813 136.512 28.848C136.619 28.9227 136.688 29.0133 136.72 29.12C136.763 29.216 136.768 29.3173 136.736 29.424C136.715 29.52 136.667 29.6053 136.592 29.68C136.518 29.744 136.427 29.7813 136.32 29.792C136.214 29.8027 136.102 29.7707 135.984 29.696C135.664 29.4827 135.339 29.328 135.008 29.232C134.678 29.1253 134.352 29.072 134.032 29.072C133.435 29.072 132.982 29.1893 132.672 29.424C132.363 29.6587 132.208 29.968 132.208 30.352C132.208 30.6507 132.304 30.896 132.496 31.088C132.688 31.28 132.987 31.4187 133.392 31.504L134.848 31.808C135.542 31.9573 136.059 32.1973 136.4 32.528C136.752 32.848 136.928 33.2853 136.928 33.84C136.928 34.544 136.646 35.104 136.08 35.52C135.515 35.936 134.763 36.144 133.824 36.144ZM139.544 36.112C139.33 36.112 139.17 36.0533 139.064 35.936C138.957 35.8187 138.904 35.6533 138.904 35.44V25.264C138.904 25.0507 138.957 24.8907 139.064 24.784C139.17 24.6667 139.33 24.608 139.544 24.608C139.746 24.608 139.906 24.6667 140.024 24.784C140.141 24.8907 140.2 25.0507 140.2 25.264V29.952H139.992C140.216 29.3333 140.578 28.8693 141.08 28.56C141.592 28.24 142.178 28.08 142.84 28.08C143.458 28.08 143.97 28.192 144.376 28.416C144.792 28.64 145.101 28.9813 145.304 29.44C145.506 29.888 145.608 30.4587 145.608 31.152V35.44C145.608 35.6533 145.549 35.8187 145.432 35.936C145.325 36.0533 145.17 36.112 144.968 36.112C144.754 36.112 144.589 36.0533 144.472 35.936C144.365 35.8187 144.312 35.6533 144.312 35.44V31.232C144.312 30.5067 144.168 29.9787 143.88 29.648C143.602 29.3067 143.154 29.136 142.536 29.136C141.821 29.136 141.25 29.36 140.824 29.808C140.408 30.2453 140.2 30.832 140.2 31.568V35.44C140.2 35.888 139.981 36.112 139.544 36.112ZM151.229 36.144C150.472 36.144 149.816 35.9787 149.261 35.648C148.707 35.3173 148.275 34.8533 147.965 34.256C147.667 33.648 147.517 32.9333 147.517 32.112C147.517 31.4933 147.603 30.9387 147.773 30.448C147.944 29.9467 148.195 29.52 148.525 29.168C148.856 28.816 149.245 28.5493 149.693 28.368C150.152 28.176 150.664 28.08 151.229 28.08C151.987 28.08 152.643 28.2453 153.197 28.576C153.752 28.9067 154.179 29.376 154.477 29.984C154.787 30.5813 154.941 31.2907 154.941 32.112C154.941 32.7307 154.856 33.2853 154.685 33.776C154.515 34.2667 154.264 34.6933 153.933 35.056C153.603 35.408 153.208 35.68 152.749 35.872C152.301 36.0533 151.795 36.144 151.229 36.144ZM151.229 35.104C151.709 35.104 152.131 34.9867 152.493 34.752C152.856 34.5173 153.133 34.176 153.325 33.728C153.528 33.28 153.629 32.7413 153.629 32.112C153.629 31.1413 153.411 30.4 152.973 29.888C152.547 29.376 151.965 29.12 151.229 29.12C150.739 29.12 150.312 29.2373 149.949 29.472C149.597 29.696 149.32 30.032 149.117 30.48C148.925 30.9173 148.829 31.4613 148.829 32.112C148.829 33.072 149.048 33.8133 149.485 34.336C149.923 34.848 150.504 35.104 151.229 35.104ZM159.64 36.144C159.011 36.144 158.488 36.032 158.072 35.808C157.667 35.5733 157.357 35.2267 157.144 34.768C156.941 34.3093 156.84 33.7387 156.84 33.056V28.768C156.84 28.544 156.893 28.3787 157 28.272C157.117 28.1653 157.277 28.112 157.48 28.112C157.693 28.112 157.853 28.1653 157.96 28.272C158.077 28.3787 158.136 28.544 158.136 28.768V33.04C158.136 33.7227 158.275 34.2347 158.552 34.576C158.84 34.9067 159.288 35.072 159.896 35.072C160.557 35.072 161.096 34.848 161.512 34.4C161.928 33.952 162.136 33.3653 162.136 32.64V28.768C162.136 28.544 162.189 28.3787 162.296 28.272C162.413 28.1653 162.579 28.112 162.792 28.112C162.995 28.112 163.149 28.1653 163.256 28.272C163.373 28.3787 163.432 28.544 163.432 28.768V35.44C163.432 35.888 163.224 36.112 162.808 36.112C162.605 36.112 162.445 36.0533 162.328 35.936C162.221 35.8187 162.168 35.6533 162.168 35.44V33.984L162.376 34.208C162.163 34.8373 161.811 35.3173 161.32 35.648C160.84 35.9787 160.28 36.144 159.64 36.144ZM168.225 36.144C167.457 36.144 166.87 35.9093 166.465 35.44C166.059 34.9707 165.857 34.2987 165.857 33.424V25.264C165.857 25.0507 165.91 24.8907 166.017 24.784C166.123 24.6667 166.283 24.608 166.497 24.608C166.699 24.608 166.859 24.6667 166.977 24.784C167.094 24.8907 167.153 25.0507 167.153 25.264V33.328C167.153 33.904 167.265 34.336 167.489 34.624C167.723 34.9013 168.065 35.04 168.513 35.04C168.609 35.04 168.694 35.0347 168.769 35.024C168.843 35.0133 168.918 35.008 168.993 35.008C169.11 34.9973 169.19 35.024 169.233 35.088C169.286 35.152 169.313 35.28 169.313 35.472C169.313 35.664 169.27 35.808 169.185 35.904C169.099 36 168.961 36.064 168.769 36.096C168.683 36.1067 168.593 36.1173 168.497 36.128C168.401 36.1387 168.31 36.144 168.225 36.144ZM173.473 36.144C172.78 36.144 172.172 35.9787 171.649 35.648C171.137 35.3173 170.737 34.8533 170.449 34.256C170.172 33.648 170.033 32.9333 170.033 32.112C170.033 31.28 170.172 30.5653 170.449 29.968C170.737 29.36 171.137 28.896 171.649 28.576C172.172 28.2453 172.78 28.08 173.473 28.08C174.177 28.08 174.78 28.256 175.281 28.608C175.782 28.96 176.118 29.4347 176.289 30.032H176.113V25.264C176.113 25.0507 176.166 24.8907 176.273 24.784C176.39 24.6667 176.556 24.608 176.769 24.608C176.972 24.608 177.126 24.6667 177.233 24.784C177.35 24.8907 177.409 25.0507 177.409 25.264V35.44C177.409 35.6533 177.356 35.8187 177.249 35.936C177.142 36.0533 176.982 36.112 176.769 36.112C176.566 36.112 176.406 36.0533 176.289 35.936C176.182 35.8187 176.129 35.6533 176.129 35.44V33.92L176.305 34.144C176.134 34.752 175.793 35.2373 175.281 35.6C174.78 35.9627 174.177 36.144 173.473 36.144ZM173.745 35.104C174.225 35.104 174.646 34.9867 175.009 34.752C175.372 34.5173 175.649 34.176 175.841 33.728C176.044 33.28 176.145 32.7413 176.145 32.112C176.145 31.1413 175.926 30.4 175.489 29.888C175.062 29.376 174.481 29.12 173.745 29.12C173.254 29.12 172.828 29.2373 172.465 29.472C172.113 29.696 171.836 30.032 171.633 30.48C171.441 30.9173 171.345 31.4613 171.345 32.112C171.345 33.072 171.564 33.8133 172.001 34.336C172.438 34.848 173.02 35.104 173.745 35.104ZM187.902 36.144C187.198 36.144 186.59 35.9627 186.078 35.6C185.577 35.2373 185.241 34.752 185.07 34.144L185.246 33.968V35.44C185.246 35.6533 185.187 35.8187 185.07 35.936C184.963 36.0533 184.809 36.112 184.606 36.112C184.393 36.112 184.233 36.0533 184.126 35.936C184.019 35.8187 183.966 35.6533 183.966 35.44V25.264C183.966 25.0507 184.019 24.8907 184.126 24.784C184.233 24.6667 184.393 24.608 184.606 24.608C184.809 24.608 184.969 24.6667 185.086 24.784C185.203 24.8907 185.262 25.0507 185.262 25.264V30.032H185.07C185.251 29.4347 185.593 28.96 186.094 28.608C186.595 28.256 187.198 28.08 187.902 28.08C188.606 28.08 189.214 28.2453 189.726 28.576C190.238 28.896 190.633 29.36 190.91 29.968C191.198 30.5653 191.342 31.28 191.342 32.112C191.342 32.9333 191.198 33.648 190.91 34.256C190.633 34.8533 190.233 35.3173 189.71 35.648C189.198 35.9787 188.595 36.144 187.902 36.144ZM187.63 35.104C188.121 35.104 188.542 34.9867 188.894 34.752C189.257 34.5173 189.534 34.176 189.726 33.728C189.929 33.28 190.03 32.7413 190.03 32.112C190.03 31.1413 189.811 30.4 189.374 29.888C188.947 29.376 188.366 29.12 187.63 29.12C187.15 29.12 186.729 29.2373 186.366 29.472C186.003 29.696 185.721 30.032 185.518 30.48C185.326 30.9173 185.23 31.4613 185.23 32.112C185.23 33.072 185.449 33.8133 185.886 34.336C186.323 34.848 186.905 35.104 187.63 35.104ZM196.798 36.144C195.977 36.144 195.267 35.984 194.67 35.664C194.083 35.3333 193.625 34.8693 193.294 34.272C192.974 33.6747 192.814 32.96 192.814 32.128C192.814 31.3173 192.974 30.6133 193.294 30.016C193.614 29.408 194.051 28.9333 194.606 28.592C195.171 28.2507 195.822 28.08 196.558 28.08C197.081 28.08 197.55 28.1707 197.966 28.352C198.382 28.5227 198.734 28.7733 199.022 29.104C199.321 29.4347 199.545 29.8347 199.694 30.304C199.854 30.7733 199.934 31.3013 199.934 31.888C199.934 32.0587 199.886 32.1867 199.79 32.272C199.694 32.3467 199.555 32.384 199.374 32.384H193.806V31.536H199.07L198.814 31.744C198.814 31.168 198.729 30.6827 198.558 30.288C198.387 29.8827 198.137 29.5733 197.806 29.36C197.486 29.1467 197.081 29.04 196.59 29.04C196.046 29.04 195.582 29.168 195.198 29.424C194.825 29.6693 194.542 30.016 194.35 30.464C194.158 30.9013 194.062 31.4133 194.062 32V32.096C194.062 33.0773 194.297 33.824 194.766 34.336C195.246 34.848 195.923 35.104 196.798 35.104C197.161 35.104 197.518 35.056 197.87 34.96C198.233 34.864 198.585 34.704 198.926 34.48C199.075 34.384 199.209 34.3413 199.326 34.352C199.454 34.352 199.555 34.3893 199.63 34.464C199.705 34.528 199.753 34.6133 199.774 34.72C199.806 34.816 199.795 34.9227 199.742 35.04C199.699 35.1573 199.609 35.2587 199.47 35.344C199.118 35.6 198.702 35.7973 198.222 35.936C197.742 36.0747 197.267 36.144 196.798 36.144ZM16.5275 60.144C16.0475 60.144 15.5622 60.0853 15.0715 59.968C14.5915 59.8507 14.1435 59.648 13.7275 59.36C13.6208 59.2853 13.5462 59.2 13.5035 59.104C13.4608 58.9973 13.4448 58.896 13.4555 58.8C13.4768 58.6933 13.5195 58.6027 13.5835 58.528C13.6582 58.4533 13.7435 58.4107 13.8395 58.4C13.9462 58.3787 14.0635 58.4 14.1915 58.464C14.6075 58.72 15.0075 58.9013 15.3915 59.008C15.7862 59.104 16.1755 59.152 16.5595 59.152C17.1675 59.152 17.6262 59.04 17.9355 58.816C18.2448 58.592 18.3995 58.288 18.3995 57.904C18.3995 57.6053 18.2982 57.3707 18.0955 57.2C17.8928 57.0187 17.5728 56.88 17.1355 56.784L15.6795 56.464C15.0075 56.3253 14.5062 56.0853 14.1755 55.744C13.8555 55.4027 13.6955 54.96 13.6955 54.416C13.6955 53.936 13.8182 53.5253 14.0635 53.184C14.3195 52.832 14.6768 52.56 15.1355 52.368C15.5942 52.176 16.1275 52.08 16.7355 52.08C17.2048 52.08 17.6475 52.144 18.0635 52.272C18.4902 52.3893 18.8742 52.5813 19.2155 52.848C19.3222 52.9227 19.3915 53.0133 19.4235 53.12C19.4662 53.216 19.4715 53.3173 19.4395 53.424C19.4182 53.52 19.3702 53.6053 19.2955 53.68C19.2208 53.744 19.1302 53.7813 19.0235 53.792C18.9168 53.8027 18.8048 53.7707 18.6875 53.696C18.3675 53.4827 18.0422 53.328 17.7115 53.232C17.3808 53.1253 17.0555 53.072 16.7355 53.072C16.1382 53.072 15.6848 53.1893 15.3755 53.424C15.0662 53.6587 14.9115 53.968 14.9115 54.352C14.9115 54.6507 15.0075 54.896 15.1995 55.088C15.3915 55.28 15.6902 55.4187 16.0955 55.504L17.5515 55.808C18.2448 55.9573 18.7622 56.1973 19.1035 56.528C19.4555 56.848 19.6315 57.2853 19.6315 57.84C19.6315 58.544 19.3488 59.104 18.7835 59.52C18.2182 59.936 17.4662 60.144 16.5275 60.144ZM22.2786 60.112C22.0653 60.112 21.9053 60.0533 21.7986 59.936C21.692 59.8187 21.6386 59.6533 21.6386 59.44V52.768C21.6386 52.5547 21.692 52.3947 21.7986 52.288C21.9053 52.1707 22.06 52.112 22.2626 52.112C22.4653 52.112 22.62 52.1707 22.7266 52.288C22.844 52.3947 22.9026 52.5547 22.9026 52.768V54.176L22.7266 53.952C22.9293 53.3547 23.2546 52.896 23.7026 52.576C24.1613 52.2453 24.7053 52.08 25.3346 52.08C25.996 52.08 26.5293 52.24 26.9346 52.56C27.3506 52.8693 27.628 53.3547 27.7666 54.016H27.5266C27.7186 53.4187 28.06 52.9493 28.5506 52.608C29.052 52.256 29.6333 52.08 30.2946 52.08C30.8813 52.08 31.3613 52.192 31.7346 52.416C32.1186 52.64 32.4066 52.9813 32.5986 53.44C32.7906 53.888 32.8866 54.4587 32.8866 55.152V59.44C32.8866 59.6533 32.828 59.8187 32.7106 59.936C32.604 60.0533 32.444 60.112 32.2306 60.112C32.028 60.112 31.868 60.0533 31.7506 59.936C31.644 59.8187 31.5906 59.6533 31.5906 59.44V55.216C31.5906 54.5013 31.468 53.9787 31.2226 53.648C30.9773 53.3067 30.5613 53.136 29.9746 53.136C29.3346 53.136 28.828 53.36 28.4546 53.808C28.092 54.2453 27.9106 54.8427 27.9106 55.6V59.44C27.9106 59.6533 27.852 59.8187 27.7346 59.936C27.628 60.0533 27.468 60.112 27.2546 60.112C27.052 60.112 26.892 60.0533 26.7746 59.936C26.668 59.8187 26.6146 59.6533 26.6146 59.44V55.216C26.6146 54.5013 26.4866 53.9787 26.2306 53.648C25.9853 53.3067 25.5746 53.136 24.9986 53.136C24.3586 53.136 23.852 53.36 23.4786 53.808C23.116 54.2453 22.9346 54.8427 22.9346 55.6V59.44C22.9346 59.888 22.716 60.112 22.2786 60.112ZM37.7578 60.144C37.2244 60.144 36.7444 60.0427 36.3178 59.84C35.9018 59.6267 35.5711 59.3387 35.3258 58.976C35.0804 58.6133 34.9578 58.208 34.9578 57.76C34.9578 57.184 35.1018 56.7307 35.3898 56.4C35.6884 56.0693 36.1738 55.8347 36.8458 55.696C37.5284 55.5573 38.4564 55.488 39.6298 55.488H40.3498V56.336H39.6458C38.7818 56.336 38.0991 56.3787 37.5978 56.464C37.1071 56.5387 36.7604 56.672 36.5578 56.864C36.3658 57.056 36.2698 57.328 36.2698 57.68C36.2698 58.1173 36.4191 58.4747 36.7178 58.752C37.0271 59.0293 37.4431 59.168 37.9658 59.168C38.3924 59.168 38.7658 59.0667 39.0858 58.864C39.4164 58.6613 39.6724 58.384 39.8538 58.032C40.0458 57.68 40.1418 57.2747 40.1418 56.816V54.992C40.1418 54.3307 40.0084 53.856 39.7418 53.568C39.4751 53.2693 39.0378 53.12 38.4298 53.12C38.0564 53.12 37.6831 53.168 37.3098 53.264C36.9364 53.36 36.5418 53.5147 36.1258 53.728C35.9764 53.8027 35.8484 53.8293 35.7418 53.808C35.6351 53.776 35.5498 53.7173 35.4858 53.632C35.4218 53.5467 35.3844 53.4507 35.3738 53.344C35.3631 53.2267 35.3844 53.1147 35.4378 53.008C35.5018 52.9013 35.5978 52.816 35.7258 52.752C36.1951 52.5173 36.6591 52.3467 37.1178 52.24C37.5764 52.1333 38.0138 52.08 38.4298 52.08C39.1018 52.08 39.6564 52.192 40.0938 52.416C40.5311 52.6293 40.8564 52.96 41.0698 53.408C41.2831 53.8453 41.3898 54.4107 41.3898 55.104V59.44C41.3898 59.6533 41.3364 59.8187 41.2298 59.936C41.1338 60.0533 40.9898 60.112 40.7978 60.112C40.5951 60.112 40.4404 60.0533 40.3338 59.936C40.2271 59.8187 40.1738 59.6533 40.1738 59.44V58.192H40.3178C40.2324 58.5973 40.0671 58.944 39.8218 59.232C39.5871 59.52 39.2938 59.744 38.9418 59.904C38.5898 60.064 38.1951 60.144 37.7578 60.144ZM46.1621 60.144C45.3941 60.144 44.8075 59.9093 44.4021 59.44C43.9968 58.9707 43.7941 58.2987 43.7941 57.424V49.264C43.7941 49.0507 43.8475 48.8907 43.9541 48.784C44.0608 48.6667 44.2208 48.608 44.4341 48.608C44.6368 48.608 44.7968 48.6667 44.9141 48.784C45.0315 48.8907 45.0901 49.0507 45.0901 49.264V57.328C45.0901 57.904 45.2021 58.336 45.4261 58.624C45.6608 58.9013 46.0021 59.04 46.4501 59.04C46.5461 59.04 46.6315 59.0347 46.7061 59.024C46.7808 59.0133 46.8555 59.008 46.9301 59.008C47.0475 58.9973 47.1275 59.024 47.1701 59.088C47.2235 59.152 47.2501 59.28 47.2501 59.472C47.2501 59.664 47.2075 59.808 47.1221 59.904C47.0368 60 46.8981 60.064 46.7061 60.096C46.6208 60.1067 46.5301 60.1173 46.4341 60.128C46.3381 60.1387 46.2475 60.144 46.1621 60.144ZM50.8965 60.144C50.1285 60.144 49.5418 59.9093 49.1365 59.44C48.7312 58.9707 48.5285 58.2987 48.5285 57.424V49.264C48.5285 49.0507 48.5818 48.8907 48.6885 48.784C48.7952 48.6667 48.9552 48.608 49.1685 48.608C49.3712 48.608 49.5312 48.6667 49.6485 48.784C49.7658 48.8907 49.8245 49.0507 49.8245 49.264V57.328C49.8245 57.904 49.9365 58.336 50.1605 58.624C50.3952 58.9013 50.7365 59.04 51.1845 59.04C51.2805 59.04 51.3658 59.0347 51.4405 59.024C51.5152 59.0133 51.5898 59.008 51.6645 59.008C51.7818 58.9973 51.8618 59.024 51.9045 59.088C51.9578 59.152 51.9845 59.28 51.9845 59.472C51.9845 59.664 51.9418 59.808 51.8565 59.904C51.7712 60 51.6325 60.064 51.4405 60.096C51.3552 60.1067 51.2645 60.1173 51.1685 60.128C51.0725 60.1387 50.9818 60.144 50.8965 60.144ZM56.6888 60.144C55.8674 60.144 55.1581 59.984 54.5608 59.664C53.9741 59.3333 53.5154 58.8693 53.1848 58.272C52.8648 57.6747 52.7048 56.96 52.7048 56.128C52.7048 55.3173 52.8648 54.6133 53.1848 54.016C53.5048 53.408 53.9421 52.9333 54.4968 52.592C55.0621 52.2507 55.7128 52.08 56.4488 52.08C56.9714 52.08 57.4408 52.1707 57.8568 52.352C58.2728 52.5227 58.6248 52.7733 58.9128 53.104C59.2114 53.4347 59.4354 53.8347 59.5848 54.304C59.7448 54.7733 59.8248 55.3013 59.8248 55.888C59.8248 56.0587 59.7768 56.1867 59.6808 56.272C59.5848 56.3467 59.4461 56.384 59.2648 56.384H53.6968V55.536H58.9608L58.7048 55.744C58.7048 55.168 58.6194 54.6827 58.4488 54.288C58.2781 53.8827 58.0274 53.5733 57.6968 53.36C57.3768 53.1467 56.9714 53.04 56.4808 53.04C55.9368 53.04 55.4728 53.168 55.0888 53.424C54.7154 53.6693 54.4328 54.016 54.2408 54.464C54.0488 54.9013 53.9528 55.4133 53.9528 56V56.096C53.9528 57.0773 54.1874 57.824 54.6568 58.336C55.1368 58.848 55.8141 59.104 56.6888 59.104C57.0514 59.104 57.4088 59.056 57.7608 58.96C58.1234 58.864 58.4754 58.704 58.8168 58.48C58.9661 58.384 59.0994 58.3413 59.2168 58.352C59.3448 58.352 59.4461 58.3893 59.5208 58.464C59.5954 58.528 59.6434 58.6133 59.6648 58.72C59.6968 58.816 59.6861 58.9227 59.6328 59.04C59.5901 59.1573 59.4994 59.2587 59.3608 59.344C59.0088 59.6 58.5928 59.7973 58.1128 59.936C57.6328 60.0747 57.1581 60.144 56.6888 60.144ZM62.3564 60.112C62.143 60.112 61.9777 60.0533 61.8604 59.936C61.7537 59.8187 61.7004 59.6533 61.7004 59.44V52.768C61.7004 52.5547 61.7537 52.3947 61.8604 52.288C61.967 52.1707 62.1217 52.112 62.3244 52.112C62.527 52.112 62.6817 52.1707 62.7884 52.288C62.9057 52.3947 62.9644 52.5547 62.9644 52.768V54.064H62.8044C62.975 53.4347 63.3004 52.9493 63.7804 52.608C64.2604 52.2667 64.8524 52.0853 65.5564 52.064C65.7164 52.0533 65.8444 52.0907 65.9404 52.176C66.0364 52.2507 66.0897 52.384 66.1004 52.576C66.111 52.7573 66.0684 52.9013 65.9724 53.008C65.8764 53.1147 65.727 53.1787 65.5244 53.2L65.2684 53.232C64.543 53.296 63.983 53.5307 63.5884 53.936C63.2044 54.3307 63.0124 54.8747 63.0124 55.568V59.44C63.0124 59.6533 62.9537 59.8187 62.8364 59.936C62.7297 60.0533 62.5697 60.112 62.3564 60.112ZM74.6798 60.144C74.0718 60.144 73.5598 60.0373 73.1438 59.824C72.7384 59.6 72.4344 59.28 72.2318 58.864C72.0291 58.4373 71.9278 57.92 71.9278 57.312V53.232H70.8558C70.6744 53.232 70.5358 53.1893 70.4398 53.104C70.3438 53.008 70.2957 52.88 70.2957 52.72C70.2957 52.56 70.3438 52.4373 70.4398 52.352C70.5358 52.2667 70.6744 52.224 70.8558 52.224H71.9278V50.384C71.9278 50.1707 71.9864 50.0107 72.1038 49.904C72.2211 49.7867 72.3811 49.728 72.5838 49.728C72.7864 49.728 72.9411 49.7867 73.0478 49.904C73.1651 50.0107 73.2238 50.1707 73.2238 50.384V52.224H75.2398C75.4211 52.224 75.5598 52.2667 75.6558 52.352C75.7518 52.4373 75.7998 52.56 75.7998 52.72C75.7998 52.88 75.7518 53.008 75.6558 53.104C75.5598 53.1893 75.4211 53.232 75.2398 53.232H73.2238V57.184C73.2238 57.792 73.3518 58.256 73.6078 58.576C73.8638 58.8853 74.2798 59.04 74.8558 59.04C75.0584 59.04 75.2291 59.0187 75.3678 58.976C75.5171 58.9333 75.6398 58.912 75.7358 58.912C75.8318 58.9013 75.9118 58.9333 75.9758 59.008C76.0398 59.0827 76.0718 59.2107 76.0718 59.392C76.0718 59.52 76.0451 59.6373 75.9918 59.744C75.9491 59.8507 75.8691 59.9253 75.7518 59.968C75.6238 60.0107 75.4531 60.048 75.2398 60.08C75.0371 60.1227 74.8504 60.144 74.6798 60.144ZM77.8873 60.112C77.6739 60.112 77.5139 60.0533 77.4073 59.936C77.3006 59.8187 77.2473 59.6533 77.2473 59.44V49.264C77.2473 49.0507 77.3006 48.8907 77.4073 48.784C77.5139 48.6667 77.6739 48.608 77.8873 48.608C78.0899 48.608 78.2499 48.6667 78.3673 48.784C78.4846 48.8907 78.5433 49.0507 78.5433 49.264V53.952H78.3353C78.5593 53.3333 78.9219 52.8693 79.4233 52.56C79.9353 52.24 80.5219 52.08 81.1833 52.08C81.8019 52.08 82.3139 52.192 82.7193 52.416C83.1353 52.64 83.4446 52.9813 83.6473 53.44C83.8499 53.888 83.9513 54.4587 83.9513 55.152V59.44C83.9513 59.6533 83.8926 59.8187 83.7753 59.936C83.6686 60.0533 83.5139 60.112 83.3113 60.112C83.0979 60.112 82.9326 60.0533 82.8153 59.936C82.7086 59.8187 82.6553 59.6533 82.6553 59.44V55.232C82.6553 54.5067 82.5113 53.9787 82.2233 53.648C81.9459 53.3067 81.4979 53.136 80.8793 53.136C80.1646 53.136 79.5939 53.36 79.1673 53.808C78.7513 54.2453 78.5433 54.832 78.5433 55.568V59.44C78.5433 59.888 78.3246 60.112 77.8873 60.112ZM88.789 60.144C88.2557 60.144 87.7757 60.0427 87.349 59.84C86.933 59.6267 86.6023 59.3387 86.357 58.976C86.1117 58.6133 85.989 58.208 85.989 57.76C85.989 57.184 86.133 56.7307 86.421 56.4C86.7197 56.0693 87.205 55.8347 87.877 55.696C88.5597 55.5573 89.4877 55.488 90.661 55.488H91.381V56.336H90.677C89.813 56.336 89.1303 56.3787 88.629 56.464C88.1383 56.5387 87.7917 56.672 87.589 56.864C87.397 57.056 87.301 57.328 87.301 57.68C87.301 58.1173 87.4503 58.4747 87.749 58.752C88.0583 59.0293 88.4743 59.168 88.997 59.168C89.4237 59.168 89.797 59.0667 90.117 58.864C90.4477 58.6613 90.7037 58.384 90.885 58.032C91.077 57.68 91.173 57.2747 91.173 56.816V54.992C91.173 54.3307 91.0397 53.856 90.773 53.568C90.5063 53.2693 90.069 53.12 89.461 53.12C89.0877 53.12 88.7143 53.168 88.341 53.264C87.9677 53.36 87.573 53.5147 87.157 53.728C87.0077 53.8027 86.8797 53.8293 86.773 53.808C86.6663 53.776 86.581 53.7173 86.517 53.632C86.453 53.5467 86.4157 53.4507 86.405 53.344C86.3943 53.2267 86.4157 53.1147 86.469 53.008C86.533 52.9013 86.629 52.816 86.757 52.752C87.2263 52.5173 87.6903 52.3467 88.149 52.24C88.6077 52.1333 89.045 52.08 89.461 52.08C90.133 52.08 90.6877 52.192 91.125 52.416C91.5623 52.6293 91.8877 52.96 92.101 53.408C92.3143 53.8453 92.421 54.4107 92.421 55.104V59.44C92.421 59.6533 92.3677 59.8187 92.261 59.936C92.165 60.0533 92.021 60.112 91.829 60.112C91.6263 60.112 91.4717 60.0533 91.365 59.936C91.2583 59.8187 91.205 59.6533 91.205 59.44V58.192H91.349C91.2637 58.5973 91.0983 58.944 90.853 59.232C90.6183 59.52 90.325 59.744 89.973 59.904C89.621 60.064 89.2263 60.144 88.789 60.144ZM95.4654 60.112C95.252 60.112 95.092 60.0533 94.9854 59.936C94.8787 59.8187 94.8254 59.6533 94.8254 59.44V52.768C94.8254 52.5547 94.8787 52.3947 94.9854 52.288C95.092 52.1707 95.2467 52.112 95.4494 52.112C95.652 52.112 95.8067 52.1707 95.9134 52.288C96.0307 52.3947 96.0894 52.5547 96.0894 52.768V54.144L95.9134 53.952C96.1374 53.3333 96.5 52.8693 97.0014 52.56C97.5134 52.24 98.1 52.08 98.7614 52.08C99.38 52.08 99.892 52.192 100.297 52.416C100.713 52.64 101.023 52.9813 101.225 53.44C101.428 53.888 101.529 54.4587 101.529 55.152V59.44C101.529 59.6533 101.471 59.8187 101.353 59.936C101.247 60.0533 101.092 60.112 100.889 60.112C100.676 60.112 100.511 60.0533 100.393 59.936C100.287 59.8187 100.233 59.6533 100.233 59.44V55.232C100.233 54.5067 100.089 53.9787 99.8014 53.648C99.524 53.3067 99.076 53.136 98.4574 53.136C97.7427 53.136 97.172 53.36 96.7454 53.808C96.3294 54.2453 96.1214 54.832 96.1214 55.568V59.44C96.1214 59.888 95.9027 60.112 95.4654 60.112ZM111.164 60.144C110.556 60.144 110.044 60.0373 109.628 59.824C109.223 59.6 108.919 59.28 108.716 58.864C108.513 58.4373 108.412 57.92 108.412 57.312V53.232H107.34C107.159 53.232 107.02 53.1893 106.924 53.104C106.828 53.008 106.78 52.88 106.78 52.72C106.78 52.56 106.828 52.4373 106.924 52.352C107.02 52.2667 107.159 52.224 107.34 52.224H108.412V50.384C108.412 50.1707 108.471 50.0107 108.588 49.904C108.705 49.7867 108.865 49.728 109.068 49.728C109.271 49.728 109.425 49.7867 109.532 49.904C109.649 50.0107 109.708 50.1707 109.708 50.384V52.224H111.724C111.905 52.224 112.044 52.2667 112.14 52.352C112.236 52.4373 112.284 52.56 112.284 52.72C112.284 52.88 112.236 53.008 112.14 53.104C112.044 53.1893 111.905 53.232 111.724 53.232H109.708V57.184C109.708 57.792 109.836 58.256 110.092 58.576C110.348 58.8853 110.764 59.04 111.34 59.04C111.543 59.04 111.713 59.0187 111.852 58.976C112.001 58.9333 112.124 58.912 112.22 58.912C112.316 58.9013 112.396 58.9333 112.46 59.008C112.524 59.0827 112.556 59.2107 112.556 59.392C112.556 59.52 112.529 59.6373 112.476 59.744C112.433 59.8507 112.353 59.9253 112.236 59.968C112.108 60.0107 111.937 60.048 111.724 60.08C111.521 60.1227 111.335 60.144 111.164 60.144ZM114.372 60.112C114.158 60.112 113.998 60.0533 113.892 59.936C113.785 59.8187 113.732 59.6533 113.732 59.44V49.264C113.732 49.0507 113.785 48.8907 113.892 48.784C113.998 48.6667 114.158 48.608 114.372 48.608C114.574 48.608 114.734 48.6667 114.852 48.784C114.969 48.8907 115.028 49.0507 115.028 49.264V53.952H114.82C115.044 53.3333 115.406 52.8693 115.908 52.56C116.42 52.24 117.006 52.08 117.668 52.08C118.286 52.08 118.798 52.192 119.204 52.416C119.62 52.64 119.929 52.9813 120.132 53.44C120.334 53.888 120.436 54.4587 120.436 55.152V59.44C120.436 59.6533 120.377 59.8187 120.26 59.936C120.153 60.0533 119.998 60.112 119.796 60.112C119.582 60.112 119.417 60.0533 119.3 59.936C119.193 59.8187 119.14 59.6533 119.14 59.44V55.232C119.14 54.5067 118.996 53.9787 118.708 53.648C118.43 53.3067 117.982 53.136 117.364 53.136C116.649 53.136 116.078 53.36 115.652 53.808C115.236 54.2453 115.028 54.832 115.028 55.568V59.44C115.028 59.888 114.809 60.112 114.372 60.112ZM126.329 60.144C125.508 60.144 124.799 59.984 124.201 59.664C123.615 59.3333 123.156 58.8693 122.825 58.272C122.505 57.6747 122.345 56.96 122.345 56.128C122.345 55.3173 122.505 54.6133 122.825 54.016C123.145 53.408 123.583 52.9333 124.137 52.592C124.703 52.2507 125.353 52.08 126.089 52.08C126.612 52.08 127.081 52.1707 127.497 52.352C127.913 52.5227 128.265 52.7733 128.553 53.104C128.852 53.4347 129.076 53.8347 129.225 54.304C129.385 54.7733 129.465 55.3013 129.465 55.888C129.465 56.0587 129.417 56.1867 129.321 56.272C129.225 56.3467 129.087 56.384 128.905 56.384H123.337V55.536H128.601L128.345 55.744C128.345 55.168 128.26 54.6827 128.089 54.288C127.919 53.8827 127.668 53.5733 127.337 53.36C127.017 53.1467 126.612 53.04 126.121 53.04C125.577 53.04 125.113 53.168 124.729 53.424C124.356 53.6693 124.073 54.016 123.881 54.464C123.689 54.9013 123.593 55.4133 123.593 56V56.096C123.593 57.0773 123.828 57.824 124.297 58.336C124.777 58.848 125.455 59.104 126.329 59.104C126.692 59.104 127.049 59.056 127.401 58.96C127.764 58.864 128.116 58.704 128.457 58.48C128.607 58.384 128.74 58.3413 128.857 58.352C128.985 58.352 129.087 58.3893 129.161 58.464C129.236 58.528 129.284 58.6133 129.305 58.72C129.337 58.816 129.327 58.9227 129.273 59.04C129.231 59.1573 129.14 59.2587 129.001 59.344C128.649 59.6 128.233 59.7973 127.753 59.936C127.273 60.0747 126.799 60.144 126.329 60.144ZM136.138 60.112C135.925 60.112 135.765 60.0533 135.658 59.936C135.551 59.8187 135.498 59.6533 135.498 59.44V52.768C135.498 52.5547 135.551 52.3947 135.658 52.288C135.765 52.1707 135.919 52.112 136.122 52.112C136.325 52.112 136.479 52.1707 136.586 52.288C136.703 52.3947 136.762 52.5547 136.762 52.768V54.176L136.586 53.952C136.789 53.3547 137.114 52.896 137.562 52.576C138.021 52.2453 138.565 52.08 139.194 52.08C139.855 52.08 140.389 52.24 140.794 52.56C141.21 52.8693 141.487 53.3547 141.626 54.016H141.386C141.578 53.4187 141.919 52.9493 142.41 52.608C142.911 52.256 143.493 52.08 144.154 52.08C144.741 52.08 145.221 52.192 145.594 52.416C145.978 52.64 146.266 52.9813 146.458 53.44C146.65 53.888 146.746 54.4587 146.746 55.152V59.44C146.746 59.6533 146.687 59.8187 146.57 59.936C146.463 60.0533 146.303 60.112 146.09 60.112C145.887 60.112 145.727 60.0533 145.61 59.936C145.503 59.8187 145.45 59.6533 145.45 59.44V55.216C145.45 54.5013 145.327 53.9787 145.082 53.648C144.837 53.3067 144.421 53.136 143.834 53.136C143.194 53.136 142.687 53.36 142.314 53.808C141.951 54.2453 141.77 54.8427 141.77 55.6V59.44C141.77 59.6533 141.711 59.8187 141.594 59.936C141.487 60.0533 141.327 60.112 141.114 60.112C140.911 60.112 140.751 60.0533 140.634 59.936C140.527 59.8187 140.474 59.6533 140.474 59.44V55.216C140.474 54.5013 140.346 53.9787 140.09 53.648C139.845 53.3067 139.434 53.136 138.858 53.136C138.218 53.136 137.711 53.36 137.338 53.808C136.975 54.2453 136.794 54.8427 136.794 55.6V59.44C136.794 59.888 136.575 60.112 136.138 60.112ZM149.809 60.08C149.596 60.08 149.436 60.0213 149.329 59.904C149.222 59.776 149.169 59.6 149.169 59.376V52.832C149.169 52.608 149.222 52.4373 149.329 52.32C149.436 52.2027 149.596 52.144 149.809 52.144C150.012 52.144 150.172 52.2027 150.289 52.32C150.406 52.4373 150.465 52.608 150.465 52.832V59.376C150.465 59.6 150.406 59.776 150.289 59.904C150.182 60.0213 150.022 60.08 149.809 60.08ZM149.809 50.352C149.542 50.352 149.334 50.2827 149.185 50.144C149.036 49.9947 148.961 49.7973 148.961 49.552C148.961 49.296 149.036 49.104 149.185 48.976C149.334 48.8373 149.542 48.768 149.809 48.768C150.086 48.768 150.294 48.8373 150.433 48.976C150.582 49.104 150.657 49.296 150.657 49.552C150.657 49.7973 150.582 49.9947 150.433 50.144C150.294 50.2827 150.086 50.352 149.809 50.352ZM153.528 60.112C153.315 60.112 153.155 60.0533 153.048 59.936C152.941 59.8187 152.888 59.6533 152.888 59.44V52.768C152.888 52.5547 152.941 52.3947 153.048 52.288C153.155 52.1707 153.309 52.112 153.512 52.112C153.715 52.112 153.869 52.1707 153.976 52.288C154.093 52.3947 154.152 52.5547 154.152 52.768V54.144L153.976 53.952C154.2 53.3333 154.563 52.8693 155.064 52.56C155.576 52.24 156.163 52.08 156.824 52.08C157.443 52.08 157.955 52.192 158.36 52.416C158.776 52.64 159.085 52.9813 159.288 53.44C159.491 53.888 159.592 54.4587 159.592 55.152V59.44C159.592 59.6533 159.533 59.8187 159.416 59.936C159.309 60.0533 159.155 60.112 158.952 60.112C158.739 60.112 158.573 60.0533 158.456 59.936C158.349 59.8187 158.296 59.6533 158.296 59.44V55.232C158.296 54.5067 158.152 53.9787 157.864 53.648C157.587 53.3067 157.139 53.136 156.52 53.136C155.805 53.136 155.235 53.36 154.808 53.808C154.392 54.2453 154.184 54.832 154.184 55.568V59.44C154.184 59.888 153.965 60.112 153.528 60.112ZM164.734 60.144C164.104 60.144 163.582 60.032 163.166 59.808C162.76 59.5733 162.451 59.2267 162.238 58.768C162.035 58.3093 161.934 57.7387 161.934 57.056V52.768C161.934 52.544 161.987 52.3787 162.094 52.272C162.211 52.1653 162.371 52.112 162.574 52.112C162.787 52.112 162.947 52.1653 163.054 52.272C163.171 52.3787 163.23 52.544 163.23 52.768V57.04C163.23 57.7227 163.368 58.2347 163.646 58.576C163.934 58.9067 164.382 59.072 164.99 59.072C165.651 59.072 166.19 58.848 166.606 58.4C167.022 57.952 167.23 57.3653 167.23 56.64V52.768C167.23 52.544 167.283 52.3787 167.39 52.272C167.507 52.1653 167.672 52.112 167.886 52.112C168.088 52.112 168.243 52.1653 168.35 52.272C168.467 52.3787 168.526 52.544 168.526 52.768V59.44C168.526 59.888 168.318 60.112 167.902 60.112C167.699 60.112 167.539 60.0533 167.422 59.936C167.315 59.8187 167.262 59.6533 167.262 59.44V57.984L167.47 58.208C167.256 58.8373 166.904 59.3173 166.414 59.648C165.934 59.9787 165.374 60.144 164.734 60.144ZM174.454 60.144C173.633 60.144 172.924 59.984 172.326 59.664C171.74 59.3333 171.281 58.8693 170.95 58.272C170.63 57.6747 170.47 56.96 170.47 56.128C170.47 55.3173 170.63 54.6133 170.95 54.016C171.27 53.408 171.708 52.9333 172.262 52.592C172.828 52.2507 173.478 52.08 174.214 52.08C174.737 52.08 175.206 52.1707 175.622 52.352C176.038 52.5227 176.39 52.7733 176.678 53.104C176.977 53.4347 177.201 53.8347 177.35 54.304C177.51 54.7733 177.59 55.3013 177.59 55.888C177.59 56.0587 177.542 56.1867 177.446 56.272C177.35 56.3467 177.212 56.384 177.03 56.384H171.462V55.536H176.726L176.47 55.744C176.47 55.168 176.385 54.6827 176.214 54.288C176.044 53.8827 175.793 53.5733 175.462 53.36C175.142 53.1467 174.737 53.04 174.246 53.04C173.702 53.04 173.238 53.168 172.854 53.424C172.481 53.6693 172.198 54.016 172.006 54.464C171.814 54.9013 171.718 55.4133 171.718 56V56.096C171.718 57.0773 171.953 57.824 172.422 58.336C172.902 58.848 173.58 59.104 174.454 59.104C174.817 59.104 175.174 59.056 175.526 58.96C175.889 58.864 176.241 58.704 176.582 58.48C176.732 58.384 176.865 58.3413 176.982 58.352C177.11 58.352 177.212 58.3893 177.286 58.464C177.361 58.528 177.409 58.6133 177.43 58.72C177.462 58.816 177.452 58.9227 177.398 59.04C177.356 59.1573 177.265 59.2587 177.126 59.344C176.774 59.6 176.358 59.7973 175.878 59.936C175.398 60.0747 174.924 60.144 174.454 60.144ZM180.106 60.112C179.893 60.112 179.733 60.0533 179.626 59.936C179.519 59.8187 179.466 59.6533 179.466 59.44V52.768C179.466 52.5547 179.519 52.3947 179.626 52.288C179.733 52.1707 179.887 52.112 180.09 52.112C180.293 52.112 180.447 52.1707 180.554 52.288C180.671 52.3947 180.73 52.5547 180.73 52.768V54.144L180.554 53.952C180.778 53.3333 181.141 52.8693 181.642 52.56C182.154 52.24 182.741 52.08 183.402 52.08C184.021 52.08 184.533 52.192 184.938 52.416C185.354 52.64 185.663 52.9813 185.866 53.44C186.069 53.888 186.17 54.4587 186.17 55.152V59.44C186.17 59.6533 186.111 59.8187 185.994 59.936C185.887 60.0533 185.733 60.112 185.53 60.112C185.317 60.112 185.151 60.0533 185.034 59.936C184.927 59.8187 184.874 59.6533 184.874 59.44V55.232C184.874 54.5067 184.73 53.9787 184.442 53.648C184.165 53.3067 183.717 53.136 183.098 53.136C182.383 53.136 181.813 53.36 181.386 53.808C180.97 54.2453 180.762 54.832 180.762 55.568V59.44C180.762 59.888 180.543 60.112 180.106 60.112ZM191.52 60.144C190.826 60.144 190.218 59.9787 189.696 59.648C189.184 59.3173 188.784 58.8533 188.496 58.256C188.218 57.648 188.08 56.9333 188.08 56.112C188.08 55.28 188.218 54.5653 188.496 53.968C188.784 53.36 189.184 52.896 189.696 52.576C190.218 52.2453 190.826 52.08 191.52 52.08C192.224 52.08 192.826 52.256 193.328 52.608C193.829 52.96 194.165 53.4347 194.336 54.032H194.16V49.264C194.16 49.0507 194.213 48.8907 194.32 48.784C194.437 48.6667 194.602 48.608 194.816 48.608C195.018 48.608 195.173 48.6667 195.28 48.784C195.397 48.8907 195.456 49.0507 195.456 49.264V59.44C195.456 59.6533 195.402 59.8187 195.296 59.936C195.189 60.0533 195.029 60.112 194.816 60.112C194.613 60.112 194.453 60.0533 194.336 59.936C194.229 59.8187 194.176 59.6533 194.176 59.44V57.92L194.352 58.144C194.181 58.752 193.84 59.2373 193.328 59.6C192.826 59.9627 192.224 60.144 191.52 60.144ZM191.792 59.104C192.272 59.104 192.693 58.9867 193.056 58.752C193.418 58.5173 193.696 58.176 193.888 57.728C194.09 57.28 194.192 56.7413 194.192 56.112C194.192 55.1413 193.973 54.4 193.536 53.888C193.109 53.376 192.528 53.12 191.792 53.12C191.301 53.12 190.874 53.2373 190.512 53.472C190.16 53.696 189.882 54.032 189.68 54.48C189.488 54.9173 189.392 55.4613 189.392 56.112C189.392 57.072 189.61 57.8133 190.048 58.336C190.485 58.848 191.066 59.104 191.792 59.104ZM198.512 60.064C198.245 60.064 198.032 59.984 197.872 59.824C197.712 59.6533 197.632 59.44 197.632 59.184C197.632 58.928 197.712 58.72 197.872 58.56C198.032 58.3893 198.245 58.304 198.512 58.304C198.779 58.304 198.987 58.3893 199.136 58.56C199.296 58.72 199.376 58.928 199.376 59.184C199.376 59.44 199.296 59.6533 199.136 59.824C198.987 59.984 198.779 60.064 198.512 60.064Z" fill="#444444"/>
<rect x="0.25" y="7.25" width="212.5" height="71.5" rx="7.75" stroke="#1A1A1A" stroke-width="0.5"/>
<circle cx="213" cy="79" r="11.5" fill="white" stroke="#1A1A1A"/>
<path d="M213.016 80.752C212.813 80.752 212.653 80.688 212.536 80.56C212.429 80.432 212.365 80.2507 212.344 80.016L211.864 73.904C211.832 73.5093 211.917 73.1947 212.12 72.96C212.322 72.7147 212.621 72.592 213.016 72.592C213.4 72.592 213.688 72.7147 213.88 72.96C214.082 73.1947 214.168 73.5093 214.136 73.904L213.656 80.016C213.645 80.2507 213.581 80.432 213.464 80.56C213.357 80.688 213.208 80.752 213.016 80.752ZM213.016 84.08C212.653 84.08 212.36 83.968 212.136 83.744C211.922 83.52 211.816 83.232 211.816 82.88C211.816 82.5387 211.922 82.2613 212.136 82.048C212.36 81.824 212.653 81.712 213.016 81.712C213.389 81.712 213.677 81.824 213.88 82.048C214.093 82.2613 214.2 82.5387 214.2 82.88C214.2 83.232 214.093 83.52 213.88 83.744C213.677 83.968 213.389 84.08 213.016 84.08Z" fill="#1A1A1A"/>
<rect width="1" height="12" transform="matrix(0 1 1 0 24 7)" fill="white"/>
<path d="M35.4972 6.91515C35.7872 7.2368 35.559 7.75 35.1258 7.75L24.3213 7.75C23.8967 7.75 23.6654 7.25428 23.9381 6.92887L29.0833 0.788462L29.1422 0.717183C29.3422 0.474893 29.7134 0.474893 29.9134 0.717183L29.9722 0.788462L35.4972 6.91515Z" fill="white"/>
<path d="M36 7L30.4632 0.867016C30.0519 0.411469 29.3312 0.430445 28.9444 0.907L24 7" stroke="#1A1A1A" stroke-width="0.5" stroke-linecap="square"/>
</svg>
