<svg width="676" height="68" viewBox="0 0 676 68" fill="none" xmlns="http://www.w3.org/2000/svg">
<path d="M17.976 39.128C17.6453 39.128 17.3893 39.0373 17.208 38.856C17.0373 38.664 16.952 38.4027 16.952 38.072V29.432H13.832C13.5547 29.432 13.336 29.3573 13.176 29.208C13.0267 29.048 12.952 28.8347 12.952 28.568C12.952 28.2907 13.0267 28.0827 13.176 27.944C13.336 27.7947 13.5547 27.72 13.832 27.72H22.12C22.3973 27.72 22.6107 27.7947 22.76 27.944C22.92 28.0827 23 28.2907 23 28.568C23 28.8347 22.92 29.048 22.76 29.208C22.6107 29.3573 22.3973 29.432 22.12 29.432H19V38.072C19 38.4027 18.9147 38.664 18.744 38.856C18.5733 39.0373 18.3173 39.128 17.976 39.128ZM26.2955 39.16C25.4848 39.16 24.7808 38.9947 24.1835 38.664C23.5862 38.3333 23.1222 37.864 22.7915 37.256C22.4608 36.6373 22.2955 35.912 22.2955 35.08C22.2955 34.4507 22.3862 33.8907 22.5675 33.4C22.7595 32.8987 23.0315 32.472 23.3835 32.12C23.7355 31.7573 24.1568 31.4853 24.6475 31.304C25.1382 31.112 25.6875 31.016 26.2955 31.016C27.1062 31.016 27.8102 31.1813 28.4075 31.512C29.0048 31.8427 29.4688 32.312 29.7995 32.92C30.1302 33.528 30.2955 34.248 30.2955 35.08C30.2955 35.7093 30.1995 36.2747 30.0075 36.776C29.8262 37.2773 29.5595 37.7093 29.2075 38.072C28.8555 38.424 28.4342 38.696 27.9435 38.888C27.4528 39.0693 26.9035 39.16 26.2955 39.16ZM26.2955 37.64C26.6902 37.64 27.0368 37.544 27.3355 37.352C27.6342 37.16 27.8635 36.8773 28.0235 36.504C28.1942 36.12 28.2795 35.6453 28.2795 35.08C28.2795 34.2267 28.0982 33.592 27.7355 33.176C27.3728 32.7493 26.8928 32.536 26.2955 32.536C25.9008 32.536 25.5542 32.632 25.2555 32.824C24.9568 33.0053 24.7222 33.288 24.5515 33.672C24.3915 34.0453 24.3115 34.5147 24.3115 35.08C24.3115 35.9227 24.4928 36.5627 24.8555 37C25.2182 37.4267 25.6982 37.64 26.2955 37.64ZM35.4521 39.16C34.7588 39.16 34.1775 39.0427 33.7081 38.808C33.2495 38.5733 32.9081 38.232 32.6841 37.784C32.4601 37.3253 32.3481 36.76 32.3481 36.088V32.68H31.5161C31.2601 32.68 31.0628 32.616 30.9241 32.488C30.7855 32.3493 30.7161 32.1627 30.7161 31.928C30.7161 31.6827 30.7855 31.496 30.9241 31.368C31.0628 31.24 31.2601 31.176 31.5161 31.176H32.3481V29.72C32.3481 29.3893 32.4335 29.1387 32.6041 28.968C32.7855 28.7973 33.0361 28.712 33.3561 28.712C33.6761 28.712 33.9215 28.7973 34.0921 28.968C34.2628 29.1387 34.3481 29.3893 34.3481 29.72V31.176H36.0441C36.3001 31.176 36.4975 31.24 36.6361 31.368C36.7748 31.496 36.8441 31.6827 36.8441 31.928C36.8441 32.1627 36.7748 32.3493 36.6361 32.488C36.4975 32.616 36.3001 32.68 36.0441 32.68H34.3481V35.976C34.3481 36.488 34.4601 36.872 34.6841 37.128C34.9081 37.384 35.2708 37.512 35.7721 37.512C35.9535 37.512 36.1135 37.496 36.2521 37.464C36.3908 37.432 36.5135 37.4107 36.6201 37.4C36.7481 37.3893 36.8548 37.432 36.9401 37.528C37.0255 37.6133 37.0681 37.7947 37.0681 38.072C37.0681 38.2853 37.0308 38.4773 36.9561 38.648C36.8921 38.808 36.7695 38.92 36.5881 38.984C36.4495 39.0267 36.2681 39.064 36.0441 39.096C35.8201 39.1387 35.6228 39.16 35.4521 39.16ZM40.5848 39.16C40.0194 39.16 39.5128 39.0533 39.0648 38.84C38.6274 38.616 38.2808 38.3173 38.0247 37.944C37.7794 37.5707 37.6568 37.1493 37.6568 36.68C37.6568 36.104 37.8061 35.6507 38.1048 35.32C38.4034 34.9787 38.8888 34.7333 39.5608 34.584C40.2328 34.4347 41.1341 34.36 42.2648 34.36H43.0648V35.512H42.2808C41.6194 35.512 41.0914 35.544 40.6968 35.608C40.3021 35.672 40.0194 35.784 39.8488 35.944C39.6888 36.0933 39.6088 36.3067 39.6088 36.584C39.6088 36.936 39.7314 37.224 39.9768 37.448C40.2221 37.672 40.5634 37.784 41.0008 37.784C41.3528 37.784 41.6621 37.704 41.9288 37.544C42.2061 37.3733 42.4248 37.144 42.5848 36.856C42.7448 36.568 42.8248 36.2373 42.8248 35.864V34.024C42.8248 33.4907 42.7074 33.1067 42.4728 32.872C42.2381 32.6373 41.8434 32.52 41.2888 32.52C40.9794 32.52 40.6434 32.5573 40.2808 32.632C39.9288 32.7067 39.5554 32.8347 39.1608 33.016C38.9581 33.112 38.7768 33.1387 38.6168 33.096C38.4674 33.0533 38.3501 32.968 38.2648 32.84C38.1794 32.7013 38.1368 32.552 38.1368 32.392C38.1368 32.232 38.1794 32.0773 38.2648 31.928C38.3501 31.768 38.4941 31.6507 38.6968 31.576C39.1874 31.3733 39.6568 31.2293 40.1048 31.144C40.5634 31.0587 40.9794 31.016 41.3528 31.016C42.1208 31.016 42.7501 31.1333 43.2408 31.368C43.7421 31.6027 44.1154 31.96 44.3608 32.44C44.6061 32.9093 44.7288 33.5173 44.7288 34.264V38.104C44.7288 38.4347 44.6488 38.6907 44.4888 38.872C44.3288 39.0427 44.0994 39.128 43.8008 39.128C43.5021 39.128 43.2674 39.0427 43.0968 38.872C42.9368 38.6907 42.8568 38.4347 42.8568 38.104V37.336H42.9848C42.9101 37.7093 42.7608 38.0347 42.5368 38.312C42.3234 38.5787 42.0514 38.7867 41.7208 38.936C41.3901 39.0853 41.0114 39.16 40.5848 39.16ZM49.4308 39.16C48.5454 39.16 47.8788 38.9093 47.4308 38.408C46.9828 37.896 46.7588 37.1493 46.7588 36.168V28.6C46.7588 28.2693 46.8441 28.0187 47.0148 27.848C47.1854 27.6773 47.4308 27.592 47.7508 27.592C48.0708 27.592 48.3161 27.6773 48.4868 27.848C48.6681 28.0187 48.7588 28.2693 48.7588 28.6V36.072C48.7588 36.5627 48.8601 36.9253 49.0628 37.16C49.2761 37.3947 49.5748 37.512 49.9588 37.512C50.0441 37.512 50.1241 37.512 50.1988 37.512C50.2734 37.5013 50.3481 37.4907 50.4227 37.48C50.5721 37.4587 50.6734 37.5013 50.7268 37.608C50.7801 37.704 50.8068 37.9067 50.8068 38.216C50.8068 38.4827 50.7534 38.6907 50.6468 38.84C50.5401 38.9893 50.3641 39.08 50.1188 39.112C50.0121 39.1227 49.9001 39.1333 49.7828 39.144C49.6654 39.1547 49.5481 39.16 49.4308 39.16ZM59.7959 39.16C59.1025 39.16 58.5212 39.0427 58.0519 38.808C57.5932 38.5733 57.2519 38.232 57.0279 37.784C56.8039 37.3253 56.6919 36.76 56.6919 36.088V32.68H55.8599C55.6039 32.68 55.4065 32.616 55.2679 32.488C55.1292 32.3493 55.0599 32.1627 55.0599 31.928C55.0599 31.6827 55.1292 31.496 55.2679 31.368C55.4065 31.24 55.6039 31.176 55.8599 31.176H56.6919V29.72C56.6919 29.3893 56.7772 29.1387 56.9479 28.968C57.1292 28.7973 57.3799 28.712 57.6999 28.712C58.0199 28.712 58.2652 28.7973 58.4359 28.968C58.6065 29.1387 58.6919 29.3893 58.6919 29.72V31.176H60.3879C60.6439 31.176 60.8412 31.24 60.9799 31.368C61.1185 31.496 61.1879 31.6827 61.1879 31.928C61.1879 32.1627 61.1185 32.3493 60.9799 32.488C60.8412 32.616 60.6439 32.68 60.3879 32.68H58.6919V35.976C58.6919 36.488 58.8039 36.872 59.0279 37.128C59.2519 37.384 59.6145 37.512 60.1159 37.512C60.2972 37.512 60.4572 37.496 60.5959 37.464C60.7345 37.432 60.8572 37.4107 60.9639 37.4C61.0919 37.3893 61.1985 37.432 61.2839 37.528C61.3692 37.6133 61.4119 37.7947 61.4119 38.072C61.4119 38.2853 61.3745 38.4773 61.2999 38.648C61.2359 38.808 61.1132 38.92 60.9319 38.984C60.7932 39.0267 60.6119 39.064 60.3879 39.096C60.1639 39.1387 59.9665 39.16 59.7959 39.16ZM63.3765 39.128C63.0458 39.128 62.7898 39.0427 62.6085 38.872C62.4378 38.6907 62.3525 38.4347 62.3525 38.104V32.056C62.3525 31.7253 62.4378 31.4747 62.6085 31.304C62.7792 31.1333 63.0192 31.048 63.3285 31.048C63.6378 31.048 63.8778 31.1333 64.0485 31.304C64.2192 31.4747 64.3045 31.7253 64.3045 32.056V33.064H64.1445C64.2938 32.424 64.5872 31.9387 65.0245 31.608C65.4618 31.2773 66.0432 31.08 66.7685 31.016C66.9925 30.9947 67.1685 31.0533 67.2965 31.192C67.4352 31.32 67.5152 31.5227 67.5365 31.8C67.5578 32.0667 67.4938 32.2853 67.3445 32.456C67.2058 32.616 66.9925 32.712 66.7045 32.744L66.3525 32.776C65.7018 32.84 65.2112 33.0427 64.8805 33.384C64.5498 33.7147 64.3845 34.184 64.3845 34.792V38.104C64.3845 38.4347 64.2992 38.6907 64.1285 38.872C63.9578 39.0427 63.7072 39.128 63.3765 39.128ZM71.116 39.16C70.5507 39.16 70.044 39.0533 69.596 38.84C69.1587 38.616 68.812 38.3173 68.556 37.944C68.3107 37.5707 68.188 37.1493 68.188 36.68C68.188 36.104 68.3373 35.6507 68.636 35.32C68.9347 34.9787 69.42 34.7333 70.092 34.584C70.764 34.4347 71.6653 34.36 72.796 34.36H73.596V35.512H72.812C72.1507 35.512 71.6227 35.544 71.228 35.608C70.8333 35.672 70.5507 35.784 70.38 35.944C70.22 36.0933 70.14 36.3067 70.14 36.584C70.14 36.936 70.2627 37.224 70.508 37.448C70.7533 37.672 71.0947 37.784 71.532 37.784C71.884 37.784 72.1933 37.704 72.46 37.544C72.7373 37.3733 72.956 37.144 73.116 36.856C73.276 36.568 73.356 36.2373 73.356 35.864V34.024C73.356 33.4907 73.2387 33.1067 73.004 32.872C72.7693 32.6373 72.3747 32.52 71.82 32.52C71.5107 32.52 71.1747 32.5573 70.812 32.632C70.46 32.7067 70.0867 32.8347 69.692 33.016C69.4893 33.112 69.308 33.1387 69.148 33.096C68.9987 33.0533 68.8813 32.968 68.796 32.84C68.7107 32.7013 68.668 32.552 68.668 32.392C68.668 32.232 68.7107 32.0773 68.796 31.928C68.8813 31.768 69.0253 31.6507 69.228 31.576C69.7187 31.3733 70.188 31.2293 70.636 31.144C71.0947 31.0587 71.5107 31.016 71.884 31.016C72.652 31.016 73.2813 31.1333 73.772 31.368C74.2733 31.6027 74.6467 31.96 74.892 32.44C75.1373 32.9093 75.26 33.5173 75.26 34.264V38.104C75.26 38.4347 75.18 38.6907 75.02 38.872C74.86 39.0427 74.6307 39.128 74.332 39.128C74.0333 39.128 73.7987 39.0427 73.628 38.872C73.468 38.6907 73.388 38.4347 73.388 38.104V37.336H73.516C73.4413 37.7093 73.292 38.0347 73.068 38.312C72.8547 38.5787 72.5827 38.7867 72.252 38.936C71.9213 39.0853 71.5427 39.16 71.116 39.16ZM80.3799 39.128C80.1132 39.128 79.8785 39.0587 79.6759 38.92C79.4839 38.7813 79.3239 38.568 79.1959 38.28L76.6519 32.376C76.5559 32.1413 76.5185 31.9227 76.5399 31.72C76.5719 31.5173 76.6679 31.3573 76.8279 31.24C76.9985 31.112 77.2279 31.048 77.5159 31.048C77.7612 31.048 77.9585 31.1067 78.1079 31.224C78.2572 31.3307 78.3905 31.5387 78.5079 31.848L80.6679 37.24H80.1879L82.4119 31.832C82.5292 31.5333 82.6625 31.3307 82.8119 31.224C82.9719 31.1067 83.1852 31.048 83.4519 31.048C83.6865 31.048 83.8732 31.112 84.0119 31.24C84.1505 31.3573 84.2359 31.5173 84.2679 31.72C84.2999 31.912 84.2625 32.1253 84.1559 32.36L81.5639 38.28C81.4465 38.568 81.2865 38.7813 81.0839 38.92C80.8919 39.0587 80.6572 39.128 80.3799 39.128ZM89.3491 39.16C88.4638 39.16 87.7011 38.9947 87.0611 38.664C86.4211 38.3333 85.9251 37.864 85.5731 37.256C85.2318 36.648 85.0611 35.928 85.0611 35.096C85.0611 34.2853 85.2265 33.576 85.5571 32.968C85.8985 32.36 86.3625 31.8853 86.9491 31.544C87.5465 31.192 88.2238 31.016 88.9811 31.016C89.5358 31.016 90.0318 31.1067 90.4691 31.288C90.9171 31.4693 91.2958 31.7307 91.6051 32.072C91.9251 32.4133 92.1651 32.8293 92.3251 33.32C92.4958 33.8 92.5811 34.344 92.5811 34.952C92.5811 35.144 92.5118 35.2933 92.3731 35.4C92.2451 35.496 92.0585 35.544 91.8131 35.544H86.6771V34.392H91.1731L90.9171 34.632C90.9171 34.1413 90.8425 33.7307 90.6931 33.4C90.5545 33.0693 90.3465 32.8187 90.0691 32.648C89.8025 32.4667 89.4665 32.376 89.0611 32.376C88.6131 32.376 88.2291 32.4827 87.9091 32.696C87.5998 32.8987 87.3598 33.192 87.1891 33.576C87.0291 33.9493 86.9491 34.3973 86.9491 34.92V35.032C86.9491 35.9067 87.1518 36.5627 87.5571 37C87.9731 37.4267 88.5811 37.64 89.3811 37.64C89.6585 37.64 89.9678 37.608 90.3091 37.544C90.6611 37.4693 90.9918 37.3467 91.3011 37.176C91.5251 37.048 91.7225 36.9947 91.8931 37.016C92.0638 37.0267 92.1971 37.0853 92.2931 37.192C92.3998 37.2987 92.4638 37.432 92.4851 37.592C92.5065 37.7413 92.4745 37.896 92.3891 38.056C92.3145 38.216 92.1811 38.3547 91.9891 38.472C91.6158 38.7067 91.1838 38.8827 90.6931 39C90.2131 39.1067 89.7651 39.16 89.3491 39.16ZM96.837 39.16C95.9517 39.16 95.285 38.9093 94.837 38.408C94.389 37.896 94.165 37.1493 94.165 36.168V28.6C94.165 28.2693 94.2503 28.0187 94.421 27.848C94.5917 27.6773 94.837 27.592 95.157 27.592C95.477 27.592 95.7223 27.6773 95.893 27.848C96.0743 28.0187 96.165 28.2693 96.165 28.6V36.072C96.165 36.5627 96.2663 36.9253 96.469 37.16C96.6823 37.3947 96.981 37.512 97.365 37.512C97.4503 37.512 97.5303 37.512 97.605 37.512C97.6797 37.5013 97.7543 37.4907 97.829 37.48C97.9783 37.4587 98.0797 37.5013 98.133 37.608C98.1863 37.704 98.213 37.9067 98.213 38.216C98.213 38.4827 98.1597 38.6907 98.053 38.84C97.9463 38.9893 97.7703 39.08 97.525 39.112C97.4183 39.1227 97.3063 39.1333 97.189 39.144C97.0717 39.1547 96.9543 39.16 96.837 39.16ZM107.202 39.16C106.509 39.16 105.927 39.0427 105.458 38.808C104.999 38.5733 104.658 38.232 104.434 37.784C104.21 37.3253 104.098 36.76 104.098 36.088V32.68H103.266C103.01 32.68 102.813 32.616 102.674 32.488C102.535 32.3493 102.466 32.1627 102.466 31.928C102.466 31.6827 102.535 31.496 102.674 31.368C102.813 31.24 103.01 31.176 103.266 31.176H104.098V29.72C104.098 29.3893 104.183 29.1387 104.354 28.968C104.535 28.7973 104.786 28.712 105.106 28.712C105.426 28.712 105.671 28.7973 105.842 28.968C106.013 29.1387 106.098 29.3893 106.098 29.72V31.176H107.794C108.05 31.176 108.247 31.24 108.386 31.368C108.525 31.496 108.594 31.6827 108.594 31.928C108.594 32.1627 108.525 32.3493 108.386 32.488C108.247 32.616 108.05 32.68 107.794 32.68H106.098V35.976C106.098 36.488 106.21 36.872 106.434 37.128C106.658 37.384 107.021 37.512 107.522 37.512C107.703 37.512 107.863 37.496 108.002 37.464C108.141 37.432 108.263 37.4107 108.37 37.4C108.498 37.3893 108.605 37.432 108.69 37.528C108.775 37.6133 108.818 37.7947 108.818 38.072C108.818 38.2853 108.781 38.4773 108.706 38.648C108.642 38.808 108.519 38.92 108.338 38.984C108.199 39.0267 108.018 39.064 107.794 39.096C107.57 39.1387 107.373 39.16 107.202 39.16ZM110.954 39.112C110.634 39.112 110.389 39.016 110.218 38.824C110.047 38.632 109.962 38.3653 109.962 38.024V32.152C109.962 31.8 110.047 31.5333 110.218 31.352C110.389 31.16 110.634 31.064 110.954 31.064C111.274 31.064 111.519 31.16 111.69 31.352C111.871 31.5333 111.962 31.8 111.962 32.152V38.024C111.962 38.3653 111.877 38.632 111.706 38.824C111.535 39.016 111.285 39.112 110.954 39.112ZM110.954 29.576C110.581 29.576 110.287 29.4853 110.074 29.304C109.871 29.112 109.77 28.8507 109.77 28.52C109.77 28.1787 109.871 27.9173 110.074 27.736C110.287 27.5547 110.581 27.464 110.954 27.464C111.338 27.464 111.631 27.5547 111.834 27.736C112.037 27.9173 112.138 28.1787 112.138 28.52C112.138 28.8507 112.037 29.112 111.834 29.304C111.631 29.4853 111.338 29.576 110.954 29.576ZM115.064 39.128C114.744 39.128 114.499 39.0427 114.328 38.872C114.157 38.6907 114.072 38.4347 114.072 38.104V32.056C114.072 31.7253 114.157 31.4747 114.328 31.304C114.499 31.1333 114.739 31.048 115.048 31.048C115.357 31.048 115.597 31.1333 115.768 31.304C115.939 31.4747 116.024 31.7253 116.024 32.056V33.224L115.848 32.744C116.061 32.2107 116.392 31.7893 116.84 31.48C117.288 31.1707 117.821 31.016 118.44 31.016C119.069 31.016 119.587 31.1653 119.992 31.464C120.397 31.7627 120.68 32.2213 120.84 32.84H120.616C120.829 32.2747 121.181 31.832 121.672 31.512C122.163 31.1813 122.728 31.016 123.368 31.016C123.965 31.016 124.456 31.1333 124.84 31.368C125.235 31.6027 125.528 31.96 125.72 32.44C125.912 32.9093 126.008 33.5067 126.008 34.232V38.104C126.008 38.4347 125.917 38.6907 125.736 38.872C125.565 39.0427 125.32 39.128 125 39.128C124.68 39.128 124.435 39.0427 124.264 38.872C124.093 38.6907 124.008 38.4347 124.008 38.104V34.312C124.008 33.7147 123.907 33.2773 123.704 33C123.512 32.7227 123.181 32.584 122.712 32.584C122.189 32.584 121.779 32.7707 121.48 33.144C121.181 33.5067 121.032 34.0133 121.032 34.664V38.104C121.032 38.4347 120.947 38.6907 120.776 38.872C120.605 39.0427 120.36 39.128 120.04 39.128C119.72 39.128 119.469 39.0427 119.288 38.872C119.117 38.6907 119.032 38.4347 119.032 38.104V34.312C119.032 33.7147 118.931 33.2773 118.728 33C118.536 32.7227 118.211 32.584 117.752 32.584C117.229 32.584 116.819 32.7707 116.52 33.144C116.221 33.5067 116.072 34.0133 116.072 34.664V38.104C116.072 38.7867 115.736 39.128 115.064 39.128ZM131.927 39.16C131.042 39.16 130.279 38.9947 129.639 38.664C128.999 38.3333 128.503 37.864 128.151 37.256C127.81 36.648 127.639 35.928 127.639 35.096C127.639 34.2853 127.805 33.576 128.135 32.968C128.477 32.36 128.941 31.8853 129.527 31.544C130.125 31.192 130.802 31.016 131.559 31.016C132.114 31.016 132.61 31.1067 133.047 31.288C133.495 31.4693 133.874 31.7307 134.183 32.072C134.503 32.4133 134.743 32.8293 134.903 33.32C135.074 33.8 135.159 34.344 135.159 34.952C135.159 35.144 135.09 35.2933 134.951 35.4C134.823 35.496 134.637 35.544 134.391 35.544H129.255V34.392H133.751L133.495 34.632C133.495 34.1413 133.421 33.7307 133.271 33.4C133.133 33.0693 132.925 32.8187 132.647 32.648C132.381 32.4667 132.045 32.376 131.639 32.376C131.191 32.376 130.807 32.4827 130.487 32.696C130.178 32.8987 129.938 33.192 129.767 33.576C129.607 33.9493 129.527 34.3973 129.527 34.92V35.032C129.527 35.9067 129.73 36.5627 130.135 37C130.551 37.4267 131.159 37.64 131.959 37.64C132.237 37.64 132.546 37.608 132.887 37.544C133.239 37.4693 133.57 37.3467 133.879 37.176C134.103 37.048 134.301 36.9947 134.471 37.016C134.642 37.0267 134.775 37.0853 134.871 37.192C134.978 37.2987 135.042 37.432 135.063 37.592C135.085 37.7413 135.053 37.896 134.967 38.056C134.893 38.216 134.759 38.3547 134.567 38.472C134.194 38.7067 133.762 38.8827 133.271 39C132.791 39.1067 132.343 39.16 131.927 39.16Z" fill="#C882FA"/>
<rect x="158" width="87" height="68" fill="#FAF2FF"/>
<rect x="269" width="87" height="68" fill="#FAF2FF"/>
<rect x="380" width="127" height="68" fill="#FAF2FF"/>
<path d="M532 0H671C673.761 0 676 2.23858 676 5V63C676 65.7614 673.761 68 671 68H532V0Z" fill="#FAF2FF"/>
<path d="M252.325 32.425C251.975 32.425 251.7 32.3333 251.5 32.15C251.3 31.95 251.2 31.675 251.2 31.325C251.2 30.975 251.3 30.7083 251.5 30.525C251.7 30.325 251.975 30.225 252.325 30.225H262.675C263.042 30.225 263.317 30.325 263.5 30.525C263.7 30.7083 263.8 30.975 263.8 31.325C263.8 31.675 263.7 31.95 263.5 32.15C263.317 32.3333 263.042 32.425 262.675 32.425H252.325ZM252.325 37.4C251.975 37.4 251.7 37.3083 251.5 37.125C251.3 36.925 251.2 36.65 251.2 36.3C251.2 35.95 251.3 35.6833 251.5 35.5C251.7 35.3167 251.975 35.225 252.325 35.225H262.675C263.042 35.225 263.317 35.3167 263.5 35.5C263.7 35.6833 263.8 35.95 263.8 36.3C263.8 36.6667 263.7 36.9417 263.5 37.125C263.317 37.3083 263.042 37.4 262.675 37.4H252.325Z" fill="black"/>
<path d="M362.325 32.425C361.975 32.425 361.7 32.3333 361.5 32.15C361.3 31.95 361.2 31.675 361.2 31.325C361.2 30.975 361.3 30.7083 361.5 30.525C361.7 30.325 361.975 30.225 362.325 30.225H372.675C373.042 30.225 373.317 30.325 373.5 30.525C373.7 30.7083 373.8 30.975 373.8 31.325C373.8 31.675 373.7 31.95 373.5 32.15C373.317 32.3333 373.042 32.425 372.675 32.425H362.325ZM362.325 37.4C361.975 37.4 361.7 37.3083 361.5 37.125C361.3 36.925 361.2 36.65 361.2 36.3C361.2 35.95 361.3 35.6833 361.5 35.5C361.7 35.3167 361.975 35.225 362.325 35.225H372.675C373.042 35.225 373.317 35.3167 373.5 35.5C373.7 35.6833 373.8 35.95 373.8 36.3C373.8 36.6667 373.7 36.9417 373.5 37.125C373.317 37.3083 373.042 37.4 372.675 37.4H362.325Z" fill="black"/>
<path d="M514.325 34.425C513.975 34.425 513.7 34.3333 513.5 34.15C513.3 33.95 513.2 33.675 513.2 33.325C513.2 32.975 513.3 32.7083 513.5 32.525C513.7 32.325 513.975 32.225 514.325 32.225H524.675C525.042 32.225 525.317 32.325 525.5 32.525C525.7 32.7083 525.8 32.975 525.8 33.325C525.8 33.675 525.7 33.95 525.5 34.15C525.317 34.3333 525.042 34.425 524.675 34.425H514.325ZM514.325 39.4C513.975 39.4 513.7 39.3083 513.5 39.125C513.3 38.925 513.2 38.65 513.2 38.3C513.2 37.95 513.3 37.6833 513.5 37.5C513.7 37.3167 513.975 37.225 514.325 37.225H524.675C525.042 37.225 525.317 37.3167 525.5 37.5C525.7 37.6833 525.8 37.95 525.8 38.3C525.8 38.6667 525.7 38.9417 525.5 39.125C525.317 39.3083 525.042 39.4 524.675 39.4H514.325Z" fill="black"/>
</svg>
