<svg width="407" height="54" viewBox="0 0 407 54" fill="none" xmlns="http://www.w3.org/2000/svg">
<path d="M1.48406 15.16C1.07073 15.16 0.750729 15.0467 0.524063 14.82C0.310729 14.58 0.204063 14.2533 0.204063 13.84V2.2C0.204063 1.77333 0.317396 1.45333 0.544063 1.24C0.770729 1.01333 1.09073 0.899999 1.50406 0.899999H6.32406C7.87073 0.899999 9.06406 1.27333 9.90406 2.02C10.7441 2.75333 11.1641 3.78667 11.1641 5.12C11.1641 5.98667 10.9707 6.73333 10.5841 7.36C10.2107 7.98667 9.66406 8.46667 8.94406 8.8C8.22406 9.13333 7.35073 9.3 6.32406 9.3L6.50406 9H7.16406C7.71073 9 8.18406 9.13333 8.58406 9.4C8.9974 9.66667 9.3574 10.0867 9.66406 10.66L11.1641 13.44C11.3241 13.72 11.3974 13.9933 11.3841 14.26C11.3707 14.5267 11.2707 14.7467 11.0841 14.92C10.8974 15.08 10.6241 15.16 10.2641 15.16C9.90406 15.16 9.61073 15.0867 9.38406 14.94C9.1574 14.78 8.9574 14.54 8.78406 14.22L6.76406 10.5C6.52406 10.0467 6.2374 9.74667 5.90406 9.6C5.58406 9.44 5.17073 9.36 4.66406 9.36H2.76406V13.84C2.76406 14.2533 2.6574 14.58 2.44406 14.82C2.23073 15.0467 1.91073 15.16 1.48406 15.16ZM2.76406 7.46H5.88406C6.80406 7.46 7.4974 7.27333 7.96406 6.9C8.44406 6.51333 8.68406 5.94 8.68406 5.18C8.68406 4.43333 8.44406 3.87333 7.96406 3.5C7.4974 3.11333 6.80406 2.92 5.88406 2.92H2.76406V7.46ZM18.2411 15.2C17.1344 15.2 16.1811 14.9933 15.3811 14.58C14.5811 14.1667 13.9611 13.58 13.5211 12.82C13.0944 12.06 12.8811 11.16 12.8811 10.12C12.8811 9.10667 13.0878 8.22 13.5011 7.46C13.9278 6.7 14.5078 6.10667 15.2411 5.68C15.9878 5.24 16.8344 5.02 17.7811 5.02C18.4744 5.02 19.0944 5.13333 19.6411 5.36C20.2011 5.58667 20.6744 5.91333 21.0611 6.34C21.4611 6.76667 21.7611 7.28667 21.9611 7.9C22.1744 8.5 22.2811 9.18 22.2811 9.94C22.2811 10.18 22.1944 10.3667 22.0211 10.5C21.8611 10.62 21.6278 10.68 21.3211 10.68H14.9011V9.24H20.5211L20.2011 9.54C20.2011 8.92667 20.1078 8.41333 19.9211 8C19.7478 7.58667 19.4878 7.27333 19.1411 7.06C18.8078 6.83333 18.3878 6.72 17.8811 6.72C17.3211 6.72 16.8411 6.85333 16.4411 7.12C16.0544 7.37333 15.7544 7.74 15.5411 8.22C15.3411 8.68667 15.2411 9.24667 15.2411 9.9V10.04C15.2411 11.1333 15.4944 11.9533 16.0011 12.5C16.5211 13.0333 17.2811 13.3 18.2811 13.3C18.6278 13.3 19.0144 13.26 19.4411 13.18C19.8811 13.0867 20.2944 12.9333 20.6811 12.72C20.9611 12.56 21.2078 12.4933 21.4211 12.52C21.6344 12.5333 21.8011 12.6067 21.9211 12.74C22.0544 12.8733 22.1344 13.04 22.1611 13.24C22.1878 13.4267 22.1478 13.62 22.0411 13.82C21.9478 14.02 21.7811 14.1933 21.5411 14.34C21.0744 14.6333 20.5344 14.8533 19.9211 15C19.3211 15.1333 18.7611 15.2 18.2411 15.2ZM28.7809 15.2C27.7543 15.2 26.8609 14.9933 26.1009 14.58C25.3409 14.1533 24.7543 13.5533 24.3409 12.78C23.9276 12.0067 23.7209 11.1 23.7209 10.06C23.7209 9.27333 23.8343 8.57333 24.0609 7.96C24.3009 7.33333 24.6409 6.80667 25.0809 6.38C25.5209 5.94 26.0543 5.60667 26.6809 5.38C27.3076 5.14 28.0076 5.02 28.7809 5.02C29.2209 5.02 29.6943 5.08 30.2009 5.2C30.7209 5.32 31.2076 5.52 31.6609 5.8C31.8743 5.93333 32.0143 6.09333 32.0809 6.28C32.1476 6.46667 32.1609 6.66 32.1209 6.86C32.0809 7.04667 31.9943 7.21333 31.8609 7.36C31.7409 7.49333 31.5876 7.58 31.4009 7.62C31.2143 7.64667 31.0076 7.6 30.7809 7.48C30.4876 7.30667 30.1876 7.18 29.8809 7.1C29.5743 7.00667 29.2809 6.96 29.0009 6.96C28.5609 6.96 28.1743 7.03333 27.8409 7.18C27.5076 7.31333 27.2209 7.51333 26.9809 7.78C26.7543 8.03333 26.5809 8.35333 26.4609 8.74C26.3409 9.12667 26.2809 9.57333 26.2809 10.08C26.2809 11.0667 26.5143 11.8467 26.9809 12.42C27.4609 12.98 28.1343 13.26 29.0009 13.26C29.2809 13.26 29.5676 13.22 29.8609 13.14C30.1676 13.06 30.4743 12.9333 30.7809 12.76C31.0076 12.64 31.2076 12.6 31.3809 12.64C31.5676 12.68 31.7209 12.7733 31.8409 12.92C31.9609 13.0533 32.0343 13.22 32.0609 13.42C32.0876 13.6067 32.0609 13.7933 31.9809 13.98C31.9143 14.1667 31.7809 14.32 31.5809 14.44C31.1409 14.7067 30.6743 14.9 30.1809 15.02C29.6876 15.14 29.2209 15.2 28.7809 15.2ZM38.2136 15.2C37.3469 15.2 36.6203 15.0533 36.0336 14.76C35.4603 14.4667 35.0336 14.04 34.7536 13.48C34.4736 12.9067 34.3336 12.2 34.3336 11.36V7.1H33.2936C32.9736 7.1 32.7269 7.02 32.5536 6.86C32.3803 6.68667 32.2936 6.45333 32.2936 6.16C32.2936 5.85333 32.3803 5.62 32.5536 5.46C32.7269 5.3 32.9736 5.22 33.2936 5.22H34.3336V3.4C34.3336 2.98667 34.4403 2.67333 34.6536 2.46C34.8803 2.24667 35.1936 2.14 35.5936 2.14C35.9936 2.14 36.3003 2.24667 36.5136 2.46C36.7269 2.67333 36.8336 2.98667 36.8336 3.4V5.22H38.9536C39.2736 5.22 39.5203 5.3 39.6936 5.46C39.8669 5.62 39.9536 5.85333 39.9536 6.16C39.9536 6.45333 39.8669 6.68667 39.6936 6.86C39.5203 7.02 39.2736 7.1 38.9536 7.1H36.8336V11.22C36.8336 11.86 36.9736 12.34 37.2536 12.66C37.5336 12.98 37.9869 13.14 38.6136 13.14C38.8403 13.14 39.0403 13.12 39.2136 13.08C39.3869 13.04 39.5403 13.0133 39.6736 13C39.8336 12.9867 39.9669 13.04 40.0736 13.16C40.1803 13.2667 40.2336 13.4933 40.2336 13.84C40.2336 14.1067 40.1869 14.3467 40.0936 14.56C40.0136 14.76 39.8603 14.9 39.6336 14.98C39.4603 15.0333 39.2336 15.08 38.9536 15.12C38.6736 15.1733 38.4269 15.2 38.2136 15.2ZM44.6294 15.2C43.9227 15.2 43.2894 15.0667 42.7294 14.8C42.1827 14.52 41.7494 14.1467 41.4294 13.68C41.1227 13.2133 40.9694 12.6867 40.9694 12.1C40.9694 11.38 41.156 10.8133 41.5294 10.4C41.9027 9.97333 42.5094 9.66667 43.3494 9.48C44.1894 9.29333 45.316 9.2 46.7294 9.2H47.7294V10.64H46.7494C45.9227 10.64 45.2627 10.68 44.7694 10.76C44.276 10.84 43.9227 10.98 43.7094 11.18C43.5094 11.3667 43.4094 11.6333 43.4094 11.98C43.4094 12.42 43.5627 12.78 43.8694 13.06C44.176 13.34 44.6027 13.48 45.1494 13.48C45.5894 13.48 45.976 13.38 46.3094 13.18C46.656 12.9667 46.9294 12.68 47.1294 12.32C47.3294 11.96 47.4294 11.5467 47.4294 11.08V8.78C47.4294 8.11333 47.2827 7.63333 46.9894 7.34C46.696 7.04667 46.2027 6.9 45.5094 6.9C45.1227 6.9 44.7027 6.94667 44.2494 7.04C43.8094 7.13333 43.3427 7.29333 42.8494 7.52C42.596 7.64 42.3694 7.67333 42.1694 7.62C41.9827 7.56667 41.836 7.46 41.7294 7.3C41.6227 7.12667 41.5694 6.94 41.5694 6.74C41.5694 6.54 41.6227 6.34667 41.7294 6.16C41.836 5.96 42.016 5.81333 42.2694 5.72C42.8827 5.46667 43.4694 5.28667 44.0294 5.18C44.6027 5.07333 45.1227 5.02 45.5894 5.02C46.5494 5.02 47.336 5.16667 47.9494 5.46C48.576 5.75333 49.0427 6.2 49.3494 6.8C49.656 7.38667 49.8094 8.14667 49.8094 9.08V13.88C49.8094 14.2933 49.7094 14.6133 49.5094 14.84C49.3094 15.0533 49.0227 15.16 48.6494 15.16C48.276 15.16 47.9827 15.0533 47.7694 14.84C47.5694 14.6133 47.4694 14.2933 47.4694 13.88V12.92H47.6294C47.536 13.3867 47.3494 13.7933 47.0694 14.14C46.8027 14.4733 46.4627 14.7333 46.0494 14.92C45.636 15.1067 45.1627 15.2 44.6294 15.2ZM53.5869 15.16C53.1869 15.16 52.8802 15.0533 52.6669 14.84C52.4535 14.6133 52.3469 14.2933 52.3469 13.88V6.32C52.3469 5.90667 52.4535 5.59333 52.6669 5.38C52.8802 5.16667 53.1802 5.06 53.5669 5.06C53.9535 5.06 54.2535 5.16667 54.4669 5.38C54.6802 5.59333 54.7869 5.90667 54.7869 6.32V7.68L54.5669 7.18C54.8602 6.47333 55.3135 5.94 55.9269 5.58C56.5535 5.20667 57.2602 5.02 58.0469 5.02C58.8335 5.02 59.4802 5.16667 59.9869 5.46C60.4935 5.75333 60.8735 6.2 61.1269 6.8C61.3802 7.38667 61.5069 8.13333 61.5069 9.04V13.88C61.5069 14.2933 61.4002 14.6133 61.1869 14.84C60.9735 15.0533 60.6669 15.16 60.2669 15.16C59.8669 15.16 59.5535 15.0533 59.3269 14.84C59.1135 14.6133 59.0069 14.2933 59.0069 13.88V9.16C59.0069 8.4 58.8602 7.84667 58.5669 7.5C58.2869 7.15333 57.8469 6.98 57.2469 6.98C56.5135 6.98 55.9269 7.21333 55.4869 7.68C55.0602 8.13333 54.8469 8.74 54.8469 9.5V13.88C54.8469 14.7333 54.4269 15.16 53.5869 15.16ZM68.6061 18.8C67.8861 18.8 67.1861 18.7333 66.5061 18.6C65.8394 18.4667 65.2328 18.26 64.6861 17.98C64.4328 17.8467 64.2594 17.6867 64.1661 17.5C64.0861 17.3133 64.0594 17.12 64.0861 16.92C64.1261 16.7333 64.2061 16.5667 64.3261 16.42C64.4594 16.2733 64.6194 16.1733 64.8061 16.12C64.9928 16.0667 65.1861 16.0933 65.3861 16.2C65.9728 16.4933 66.5261 16.68 67.0461 16.76C67.5794 16.8533 68.0328 16.9 68.4061 16.9C69.2994 16.9 69.9661 16.68 70.4061 16.24C70.8594 15.8133 71.0861 15.1733 71.0861 14.32V12.52H71.2661C71.0661 13.2 70.6461 13.7467 70.0061 14.16C69.3794 14.56 68.6661 14.76 67.8661 14.76C66.9861 14.76 66.2194 14.56 65.5661 14.16C64.9128 13.7467 64.4061 13.1733 64.0461 12.44C63.6861 11.7067 63.5061 10.8533 63.5061 9.88C63.5061 9.14667 63.6061 8.48667 63.8061 7.9C64.0194 7.3 64.3128 6.78667 64.6861 6.36C65.0728 5.93333 65.5328 5.60667 66.0661 5.38C66.6128 5.14 67.2128 5.02 67.8661 5.02C68.6928 5.02 69.4128 5.22667 70.0261 5.64C70.6528 6.04 71.0594 6.57333 71.2461 7.24L71.0461 7.74V6.32C71.0461 5.90667 71.1528 5.59333 71.3661 5.38C71.5928 5.16667 71.8994 5.06 72.2861 5.06C72.6861 5.06 72.9928 5.16667 73.2061 5.38C73.4194 5.59333 73.5261 5.90667 73.5261 6.32V14.02C73.5261 15.6067 73.1061 16.8 72.2661 17.6C71.4261 18.4 70.2061 18.8 68.6061 18.8ZM68.5461 12.86C69.0661 12.86 69.5128 12.74 69.8861 12.5C70.2594 12.26 70.5461 11.92 70.7461 11.48C70.9594 11.0267 71.0661 10.4933 71.0661 9.88C71.0661 8.96 70.8394 8.24 70.3861 7.72C69.9328 7.18667 69.3194 6.92 68.5461 6.92C68.0261 6.92 67.5794 7.04 67.2061 7.28C66.8328 7.52 66.5394 7.86 66.3261 8.3C66.1261 8.74 66.0261 9.26667 66.0261 9.88C66.0261 10.8 66.2528 11.5267 66.7061 12.06C67.1594 12.5933 67.7728 12.86 68.5461 12.86ZM79.6564 15.2C78.8431 15.2 78.1697 15.0533 77.6364 14.76C77.1031 14.4533 76.7031 14 76.4364 13.4C76.1831 12.8 76.0564 12.0533 76.0564 11.16V6.32C76.0564 5.89333 76.1631 5.58 76.3764 5.38C76.5897 5.16667 76.8964 5.06 77.2964 5.06C77.6964 5.06 78.0031 5.16667 78.2164 5.38C78.4431 5.58 78.5564 5.89333 78.5564 6.32V11.2C78.5564 11.8933 78.6964 12.4067 78.9764 12.74C79.2564 13.0733 79.7031 13.24 80.3164 13.24C80.9831 13.24 81.5297 13.0133 81.9564 12.56C82.3831 12.0933 82.5964 11.48 82.5964 10.72V6.32C82.5964 5.89333 82.7031 5.58 82.9164 5.38C83.1297 5.16667 83.4364 5.06 83.8364 5.06C84.2364 5.06 84.5431 5.16667 84.7564 5.38C84.9831 5.58 85.0964 5.89333 85.0964 6.32V13.88C85.0964 14.7333 84.6897 15.16 83.8764 15.16C83.4897 15.16 83.1897 15.0533 82.9764 14.84C82.7631 14.6133 82.6564 14.2933 82.6564 13.88V12.36L82.9364 12.96C82.6564 13.68 82.2297 14.2333 81.6564 14.62C81.0964 15.0067 80.4297 15.2 79.6564 15.2ZM91.0384 15.2C89.9318 15.2 89.0984 14.8867 88.5384 14.26C87.9784 13.62 87.6984 12.6867 87.6984 11.46V2C87.6984 1.58667 87.8051 1.27333 88.0184 1.06C88.2318 0.846666 88.5384 0.739999 88.9384 0.739999C89.3384 0.739999 89.6451 0.846666 89.8584 1.06C90.0851 1.27333 90.1984 1.58667 90.1984 2V11.34C90.1984 11.9533 90.3251 12.4067 90.5784 12.7C90.8451 12.9933 91.2184 13.14 91.6984 13.14C91.8051 13.14 91.9051 13.14 91.9984 13.14C92.0918 13.1267 92.1851 13.1133 92.2784 13.1C92.4651 13.0733 92.5918 13.1267 92.6584 13.26C92.7251 13.38 92.7584 13.6333 92.7584 14.02C92.7584 14.3533 92.6918 14.6133 92.5584 14.8C92.4251 14.9867 92.2051 15.1 91.8984 15.14C91.7651 15.1533 91.6251 15.1667 91.4784 15.18C91.3318 15.1933 91.1851 15.2 91.0384 15.2ZM97.3052 15.2C96.5985 15.2 95.9652 15.0667 95.4052 14.8C94.8585 14.52 94.4252 14.1467 94.1052 13.68C93.7985 13.2133 93.6452 12.6867 93.6452 12.1C93.6452 11.38 93.8318 10.8133 94.2052 10.4C94.5785 9.97333 95.1852 9.66667 96.0252 9.48C96.8652 9.29333 97.9918 9.2 99.4052 9.2H100.405V10.64H99.4252C98.5985 10.64 97.9385 10.68 97.4452 10.76C96.9518 10.84 96.5985 10.98 96.3852 11.18C96.1852 11.3667 96.0852 11.6333 96.0852 11.98C96.0852 12.42 96.2385 12.78 96.5452 13.06C96.8518 13.34 97.2785 13.48 97.8252 13.48C98.2652 13.48 98.6518 13.38 98.9852 13.18C99.3318 12.9667 99.6052 12.68 99.8052 12.32C100.005 11.96 100.105 11.5467 100.105 11.08V8.78C100.105 8.11333 99.9585 7.63333 99.6652 7.34C99.3718 7.04667 98.8785 6.9 98.1852 6.9C97.7985 6.9 97.3785 6.94667 96.9252 7.04C96.4852 7.13333 96.0185 7.29333 95.5252 7.52C95.2718 7.64 95.0452 7.67333 94.8452 7.62C94.6585 7.56667 94.5118 7.46 94.4052 7.3C94.2985 7.12667 94.2452 6.94 94.2452 6.74C94.2452 6.54 94.2985 6.34667 94.4052 6.16C94.5118 5.96 94.6918 5.81333 94.9452 5.72C95.5585 5.46667 96.1452 5.28667 96.7052 5.18C97.2785 5.07333 97.7985 5.02 98.2652 5.02C99.2252 5.02 100.012 5.16667 100.625 5.46C101.252 5.75333 101.718 6.2 102.025 6.8C102.332 7.38667 102.485 8.14667 102.485 9.08V13.88C102.485 14.2933 102.385 14.6133 102.185 14.84C101.985 15.0533 101.698 15.16 101.325 15.16C100.952 15.16 100.658 15.0533 100.445 14.84C100.245 14.6133 100.145 14.2933 100.145 13.88V12.92H100.305C100.212 13.3867 100.025 13.7933 99.7452 14.14C99.4785 14.4733 99.1385 14.7333 98.7252 14.92C98.3118 15.1067 97.8385 15.2 97.3052 15.2ZM106.303 15.16C105.889 15.16 105.569 15.0533 105.343 14.84C105.129 14.6133 105.023 14.2933 105.023 13.88V6.32C105.023 5.90667 105.129 5.59333 105.343 5.38C105.556 5.16667 105.856 5.06 106.243 5.06C106.629 5.06 106.929 5.16667 107.143 5.38C107.356 5.59333 107.463 5.90667 107.463 6.32V7.58H107.263C107.449 6.78 107.816 6.17333 108.363 5.76C108.909 5.34667 109.636 5.1 110.543 5.02C110.823 4.99333 111.043 5.06667 111.203 5.24C111.376 5.4 111.476 5.65333 111.503 6C111.529 6.33333 111.449 6.60667 111.263 6.82C111.089 7.02 110.823 7.14 110.463 7.18L110.023 7.22C109.209 7.3 108.596 7.55333 108.183 7.98C107.769 8.39333 107.563 8.98 107.563 9.74V13.88C107.563 14.2933 107.456 14.6133 107.243 14.84C107.029 15.0533 106.716 15.16 106.303 15.16ZM119.524 18.76C119.124 18.76 118.818 18.6533 118.604 18.44C118.391 18.2267 118.284 17.9133 118.284 17.5V6.32C118.284 5.90667 118.391 5.59333 118.604 5.38C118.818 5.16667 119.118 5.06 119.504 5.06C119.904 5.06 120.211 5.16667 120.424 5.38C120.638 5.59333 120.744 5.90667 120.744 6.32V7.88L120.524 7.28C120.724 6.6 121.131 6.05333 121.744 5.64C122.371 5.22667 123.098 5.02 123.924 5.02C124.778 5.02 125.524 5.22667 126.164 5.64C126.818 6.05333 127.324 6.64 127.684 7.4C128.044 8.14667 128.224 9.04667 128.224 10.1C128.224 11.14 128.044 12.0467 127.684 12.82C127.324 13.58 126.824 14.1667 126.184 14.58C125.544 14.9933 124.791 15.2 123.924 15.2C123.111 15.2 122.398 15 121.784 14.6C121.171 14.1867 120.758 13.6533 120.544 13H120.784V17.5C120.784 17.9133 120.671 18.2267 120.444 18.44C120.231 18.6533 119.924 18.76 119.524 18.76ZM123.224 13.3C123.718 13.3 124.151 13.18 124.524 12.94C124.898 12.7 125.184 12.3467 125.384 11.88C125.598 11.4 125.704 10.8067 125.704 10.1C125.704 9.03333 125.478 8.24 125.024 7.72C124.571 7.18667 123.971 6.92 123.224 6.92C122.731 6.92 122.298 7.04 121.924 7.28C121.551 7.50667 121.258 7.86 121.044 8.34C120.844 8.80667 120.744 9.39333 120.744 10.1C120.744 11.1533 120.971 11.9533 121.424 12.5C121.878 13.0333 122.478 13.3 123.224 13.3ZM132.561 18.76C132.268 18.76 132.028 18.68 131.841 18.52C131.655 18.3733 131.541 18.1733 131.501 17.92C131.475 17.6667 131.521 17.4 131.641 17.12L133.001 14.1V15.14L129.361 6.72C129.241 6.42667 129.201 6.15333 129.241 5.9C129.281 5.64667 129.401 5.44667 129.601 5.3C129.815 5.14 130.101 5.06 130.461 5.06C130.768 5.06 131.015 5.13333 131.201 5.28C131.388 5.41333 131.555 5.67333 131.701 6.06L134.401 12.8H133.801L136.561 6.04C136.708 5.66667 136.881 5.41333 137.081 5.28C137.281 5.13333 137.548 5.06 137.881 5.06C138.175 5.06 138.408 5.14 138.581 5.3C138.755 5.44667 138.861 5.64667 138.901 5.9C138.941 6.14 138.895 6.40667 138.761 6.7L133.901 17.8C133.728 18.1733 133.541 18.4267 133.341 18.56C133.141 18.6933 132.881 18.76 132.561 18.76ZM141.889 15.16C141.475 15.16 141.155 15.0533 140.929 14.84C140.715 14.6133 140.609 14.2933 140.609 13.88V6.32C140.609 5.90667 140.715 5.59333 140.929 5.38C141.142 5.16667 141.442 5.06 141.829 5.06C142.215 5.06 142.515 5.16667 142.729 5.38C142.942 5.59333 143.049 5.90667 143.049 6.32V7.58H142.849C143.035 6.78 143.402 6.17333 143.949 5.76C144.495 5.34667 145.222 5.1 146.129 5.02C146.409 4.99333 146.629 5.06667 146.789 5.24C146.962 5.4 147.062 5.65333 147.089 6C147.115 6.33333 147.035 6.60667 146.849 6.82C146.675 7.02 146.409 7.14 146.049 7.18L145.609 7.22C144.795 7.3 144.182 7.55333 143.769 7.98C143.355 8.39333 143.149 8.98 143.149 9.74V13.88C143.149 14.2933 143.042 14.6133 142.829 14.84C142.615 15.0533 142.302 15.16 141.889 15.16ZM151.563 15.2C150.856 15.2 150.223 15.0667 149.663 14.8C149.116 14.52 148.683 14.1467 148.363 13.68C148.056 13.2133 147.903 12.6867 147.903 12.1C147.903 11.38 148.09 10.8133 148.463 10.4C148.836 9.97333 149.443 9.66667 150.283 9.48C151.123 9.29333 152.25 9.2 153.663 9.2H154.663V10.64H153.683C152.856 10.64 152.196 10.68 151.703 10.76C151.21 10.84 150.856 10.98 150.643 11.18C150.443 11.3667 150.343 11.6333 150.343 11.98C150.343 12.42 150.496 12.78 150.803 13.06C151.11 13.34 151.536 13.48 152.083 13.48C152.523 13.48 152.91 13.38 153.243 13.18C153.59 12.9667 153.863 12.68 154.063 12.32C154.263 11.96 154.363 11.5467 154.363 11.08V8.78C154.363 8.11333 154.216 7.63333 153.923 7.34C153.63 7.04667 153.136 6.9 152.443 6.9C152.056 6.9 151.636 6.94667 151.183 7.04C150.743 7.13333 150.276 7.29333 149.783 7.52C149.53 7.64 149.303 7.67333 149.103 7.62C148.916 7.56667 148.77 7.46 148.663 7.3C148.556 7.12667 148.503 6.94 148.503 6.74C148.503 6.54 148.556 6.34667 148.663 6.16C148.77 5.96 148.95 5.81333 149.203 5.72C149.816 5.46667 150.403 5.28667 150.963 5.18C151.536 5.07333 152.056 5.02 152.523 5.02C153.483 5.02 154.27 5.16667 154.883 5.46C155.51 5.75333 155.976 6.2 156.283 6.8C156.59 7.38667 156.743 8.14667 156.743 9.08V13.88C156.743 14.2933 156.643 14.6133 156.443 14.84C156.243 15.0533 155.956 15.16 155.583 15.16C155.21 15.16 154.916 15.0533 154.703 14.84C154.503 14.6133 154.403 14.2933 154.403 13.88V12.92H154.563C154.47 13.3867 154.283 13.7933 154.003 14.14C153.736 14.4733 153.396 14.7333 152.983 14.92C152.57 15.1067 152.096 15.2 151.563 15.2ZM160.56 15.16C160.16 15.16 159.854 15.0533 159.64 14.84C159.427 14.6133 159.32 14.2933 159.32 13.88V6.32C159.32 5.90667 159.427 5.59333 159.64 5.38C159.854 5.16667 160.154 5.06 160.54 5.06C160.927 5.06 161.227 5.16667 161.44 5.38C161.654 5.59333 161.76 5.90667 161.76 6.32V7.78L161.54 7.18C161.807 6.51333 162.22 5.98667 162.78 5.6C163.34 5.21333 164.007 5.02 164.78 5.02C165.567 5.02 166.214 5.20667 166.72 5.58C167.227 5.95333 167.58 6.52667 167.78 7.3H167.5C167.767 6.59333 168.207 6.04 168.82 5.64C169.434 5.22667 170.14 5.02 170.94 5.02C171.687 5.02 172.3 5.16667 172.78 5.46C173.274 5.75333 173.64 6.2 173.88 6.8C174.12 7.38667 174.24 8.13333 174.24 9.04V13.88C174.24 14.2933 174.127 14.6133 173.9 14.84C173.687 15.0533 173.38 15.16 172.98 15.16C172.58 15.16 172.274 15.0533 172.06 14.84C171.847 14.6133 171.74 14.2933 171.74 13.88V9.14C171.74 8.39333 171.614 7.84667 171.36 7.5C171.12 7.15333 170.707 6.98 170.12 6.98C169.467 6.98 168.954 7.21333 168.58 7.68C168.207 8.13333 168.02 8.76667 168.02 9.58V13.88C168.02 14.2933 167.914 14.6133 167.7 14.84C167.487 15.0533 167.18 15.16 166.78 15.16C166.38 15.16 166.067 15.0533 165.84 14.84C165.627 14.6133 165.52 14.2933 165.52 13.88V9.14C165.52 8.39333 165.394 7.84667 165.14 7.5C164.9 7.15333 164.494 6.98 163.92 6.98C163.267 6.98 162.754 7.21333 162.38 7.68C162.007 8.13333 161.82 8.76667 161.82 9.58V13.88C161.82 14.7333 161.4 15.16 160.56 15.16ZM178.06 15.14C177.66 15.14 177.353 15.02 177.14 14.78C176.926 14.54 176.82 14.2067 176.82 13.78V6.44C176.82 6 176.926 5.66667 177.14 5.44C177.353 5.2 177.66 5.08 178.06 5.08C178.46 5.08 178.766 5.2 178.98 5.44C179.206 5.66667 179.32 6 179.32 6.44V13.78C179.32 14.2067 179.213 14.54 179 14.78C178.786 15.02 178.473 15.14 178.06 15.14ZM178.06 3.22C177.593 3.22 177.226 3.10667 176.96 2.88C176.706 2.64 176.58 2.31333 176.58 1.9C176.58 1.47333 176.706 1.14667 176.96 0.919999C177.226 0.693333 177.593 0.58 178.06 0.58C178.54 0.58 178.906 0.693333 179.16 0.919999C179.413 1.14667 179.54 1.47333 179.54 1.9C179.54 2.31333 179.413 2.64 179.16 2.88C178.906 3.10667 178.54 3.22 178.06 3.22ZM185.677 15.2C184.824 15.2 184.071 14.9933 183.417 14.58C182.777 14.1667 182.277 13.58 181.917 12.82C181.557 12.0467 181.377 11.14 181.377 10.1C181.377 9.04667 181.557 8.14667 181.917 7.4C182.277 6.64 182.777 6.05333 183.417 5.64C184.071 5.22667 184.824 5.02 185.677 5.02C186.491 5.02 187.197 5.22 187.797 5.62C188.411 6.02 188.824 6.54667 189.037 7.2H188.817V2C188.817 1.58667 188.924 1.27333 189.137 1.06C189.351 0.846666 189.657 0.739999 190.057 0.739999C190.457 0.739999 190.764 0.846666 190.977 1.06C191.204 1.27333 191.317 1.58667 191.317 2V13.88C191.317 14.2933 191.211 14.6133 190.997 14.84C190.784 15.0533 190.477 15.16 190.077 15.16C189.677 15.16 189.371 15.0533 189.157 14.84C188.944 14.6133 188.837 14.2933 188.837 13.88V12.32L189.057 12.92C188.857 13.6133 188.451 14.1667 187.837 14.58C187.224 14.9933 186.504 15.2 185.677 15.2ZM186.377 13.3C186.871 13.3 187.304 13.18 187.677 12.94C188.051 12.7 188.337 12.3467 188.537 11.88C188.751 11.4 188.857 10.8067 188.857 10.1C188.857 9.03333 188.631 8.24 188.177 7.72C187.724 7.18667 187.124 6.92 186.377 6.92C185.884 6.92 185.451 7.04 185.077 7.28C184.704 7.50667 184.411 7.86 184.197 8.34C183.997 8.80667 183.897 9.39333 183.897 10.1C183.897 11.1533 184.124 11.9533 184.577 12.5C185.031 13.0333 185.631 13.3 186.377 13.3ZM195.049 6.86C194.809 6.86 194.596 6.77333 194.409 6.6C194.236 6.42667 194.136 6.19333 194.109 5.9L193.729 2.2C193.689 1.78667 193.796 1.44 194.049 1.16C194.303 0.879999 194.636 0.739999 195.049 0.739999C195.316 0.739999 195.549 0.806666 195.749 0.94C195.963 1.06 196.123 1.23333 196.229 1.46C196.336 1.67333 196.376 1.92 196.349 2.2L195.969 5.9C195.943 6.19333 195.843 6.42667 195.669 6.6C195.509 6.77333 195.303 6.86 195.049 6.86ZM202.353 15.2C201.779 15.2 201.173 15.14 200.533 15.02C199.893 14.9 199.319 14.6933 198.813 14.4C198.599 14.2667 198.446 14.1133 198.353 13.94C198.273 13.7533 198.239 13.5733 198.253 13.4C198.279 13.2133 198.346 13.0533 198.453 12.92C198.573 12.7867 198.719 12.7 198.893 12.66C199.079 12.62 199.279 12.6533 199.493 12.76C200.026 13.0133 200.526 13.1933 200.993 13.3C201.459 13.3933 201.919 13.44 202.373 13.44C203.013 13.44 203.486 13.3333 203.793 13.12C204.113 12.8933 204.273 12.6 204.273 12.24C204.273 11.9333 204.166 11.7 203.953 11.54C203.753 11.3667 203.446 11.24 203.033 11.16L201.033 10.78C200.206 10.62 199.573 10.32 199.133 9.88C198.706 9.42667 198.493 8.84667 198.493 8.14C198.493 7.5 198.666 6.94667 199.013 6.48C199.373 6.01333 199.866 5.65333 200.493 5.4C201.119 5.14667 201.839 5.02 202.653 5.02C203.239 5.02 203.786 5.08667 204.293 5.22C204.813 5.34 205.313 5.53333 205.793 5.8C205.993 5.90667 206.126 6.04667 206.193 6.22C206.273 6.39333 206.293 6.57333 206.253 6.76C206.213 6.93333 206.133 7.09333 206.013 7.24C205.893 7.37333 205.739 7.46 205.553 7.5C205.379 7.52667 205.179 7.48667 204.953 7.38C204.539 7.16667 204.139 7.01333 203.753 6.92C203.379 6.82667 203.019 6.78 202.673 6.78C202.019 6.78 201.533 6.89333 201.213 7.12C200.906 7.34667 200.753 7.64667 200.753 8.02C200.753 8.3 200.846 8.53333 201.033 8.72C201.219 8.90667 201.506 9.03333 201.893 9.1L203.893 9.48C204.759 9.64 205.413 9.93333 205.853 10.36C206.306 10.7867 206.533 11.36 206.533 12.08C206.533 13.0533 206.153 13.82 205.393 14.38C204.633 14.9267 203.619 15.2 202.353 15.2ZM217.928 15.16C217.595 15.16 217.301 15.0733 217.048 14.9C216.808 14.7267 216.608 14.46 216.448 14.1L213.268 6.72C213.148 6.42667 213.101 6.15333 213.128 5.9C213.168 5.64667 213.288 5.44667 213.488 5.3C213.701 5.14 213.988 5.06 214.348 5.06C214.655 5.06 214.901 5.13333 215.088 5.28C215.275 5.41333 215.441 5.67333 215.588 6.06L218.288 12.8H217.688L220.468 6.04C220.615 5.66667 220.781 5.41333 220.968 5.28C221.168 5.13333 221.435 5.06 221.768 5.06C222.061 5.06 222.295 5.14 222.468 5.3C222.641 5.44667 222.748 5.64667 222.788 5.9C222.828 6.14 222.781 6.40667 222.648 6.7L219.408 14.1C219.261 14.46 219.061 14.7267 218.808 14.9C218.568 15.0733 218.275 15.16 217.928 15.16ZM229.14 15.2C228.033 15.2 227.08 14.9933 226.28 14.58C225.48 14.1667 224.86 13.58 224.42 12.82C223.993 12.06 223.78 11.16 223.78 10.12C223.78 9.10667 223.986 8.22 224.4 7.46C224.826 6.7 225.406 6.10667 226.14 5.68C226.886 5.24 227.733 5.02 228.68 5.02C229.373 5.02 229.993 5.13333 230.54 5.36C231.1 5.58667 231.573 5.91333 231.96 6.34C232.36 6.76667 232.66 7.28667 232.86 7.9C233.073 8.5 233.18 9.18 233.18 9.94C233.18 10.18 233.093 10.3667 232.92 10.5C232.76 10.62 232.526 10.68 232.22 10.68H225.8V9.24H231.42L231.1 9.54C231.1 8.92667 231.006 8.41333 230.82 8C230.646 7.58667 230.386 7.27333 230.04 7.06C229.706 6.83333 229.286 6.72 228.78 6.72C228.22 6.72 227.74 6.85333 227.34 7.12C226.953 7.37333 226.653 7.74 226.44 8.22C226.24 8.68667 226.14 9.24667 226.14 9.9V10.04C226.14 11.1333 226.393 11.9533 226.9 12.5C227.42 13.0333 228.18 13.3 229.18 13.3C229.526 13.3 229.913 13.26 230.34 13.18C230.78 13.0867 231.193 12.9333 231.58 12.72C231.86 12.56 232.106 12.4933 232.32 12.52C232.533 12.5333 232.7 12.6067 232.82 12.74C232.953 12.8733 233.033 13.04 233.06 13.24C233.086 13.4267 233.046 13.62 232.94 13.82C232.846 14.02 232.68 14.1933 232.44 14.34C231.973 14.6333 231.433 14.8533 230.82 15C230.22 15.1333 229.66 15.2 229.14 15.2ZM236.439 15.16C236.026 15.16 235.706 15.0533 235.479 14.84C235.266 14.6133 235.159 14.2933 235.159 13.88V6.32C235.159 5.90667 235.266 5.59333 235.479 5.38C235.693 5.16667 235.993 5.06 236.379 5.06C236.766 5.06 237.066 5.16667 237.279 5.38C237.493 5.59333 237.599 5.90667 237.599 6.32V7.58H237.399C237.586 6.78 237.953 6.17333 238.499 5.76C239.046 5.34667 239.773 5.1 240.679 5.02C240.959 4.99333 241.179 5.06667 241.339 5.24C241.513 5.4 241.613 5.65333 241.639 6C241.666 6.33333 241.586 6.60667 241.399 6.82C241.226 7.02 240.959 7.14 240.599 7.18L240.159 7.22C239.346 7.3 238.733 7.55333 238.319 7.98C237.906 8.39333 237.699 8.98 237.699 9.74V13.88C237.699 14.2933 237.593 14.6133 237.379 14.84C237.166 15.0533 236.853 15.16 236.439 15.16ZM248.038 15.2C247.171 15.2 246.444 15.0533 245.858 14.76C245.284 14.4667 244.858 14.04 244.578 13.48C244.298 12.9067 244.158 12.2 244.158 11.36V7.1H243.118C242.798 7.1 242.551 7.02 242.378 6.86C242.204 6.68667 242.118 6.45333 242.118 6.16C242.118 5.85333 242.204 5.62 242.378 5.46C242.551 5.3 242.798 5.22 243.118 5.22H244.158V3.4C244.158 2.98667 244.264 2.67333 244.478 2.46C244.704 2.24667 245.018 2.14 245.418 2.14C245.818 2.14 246.124 2.24667 246.338 2.46C246.551 2.67333 246.658 2.98667 246.658 3.4V5.22H248.778C249.098 5.22 249.344 5.3 249.518 5.46C249.691 5.62 249.778 5.85333 249.778 6.16C249.778 6.45333 249.691 6.68667 249.518 6.86C249.344 7.02 249.098 7.1 248.778 7.1H246.658V11.22C246.658 11.86 246.798 12.34 247.078 12.66C247.358 12.98 247.811 13.14 248.438 13.14C248.664 13.14 248.864 13.12 249.038 13.08C249.211 13.04 249.364 13.0133 249.498 13C249.658 12.9867 249.791 13.04 249.898 13.16C250.004 13.2667 250.058 13.4933 250.058 13.84C250.058 14.1067 250.011 14.3467 249.918 14.56C249.838 14.76 249.684 14.9 249.458 14.98C249.284 15.0333 249.058 15.08 248.778 15.12C248.498 15.1733 248.251 15.2 248.038 15.2ZM252.728 15.14C252.328 15.14 252.021 15.02 251.808 14.78C251.594 14.54 251.488 14.2067 251.488 13.78V6.44C251.488 6 251.594 5.66667 251.808 5.44C252.021 5.2 252.328 5.08 252.728 5.08C253.128 5.08 253.434 5.2 253.648 5.44C253.874 5.66667 253.988 6 253.988 6.44V13.78C253.988 14.2067 253.881 14.54 253.668 14.78C253.454 15.02 253.141 15.14 252.728 15.14ZM252.728 3.22C252.261 3.22 251.894 3.10667 251.628 2.88C251.374 2.64 251.248 2.31333 251.248 1.9C251.248 1.47333 251.374 1.14667 251.628 0.919999C251.894 0.693333 252.261 0.58 252.728 0.58C253.208 0.58 253.574 0.693333 253.828 0.919999C254.081 1.14667 254.208 1.47333 254.208 1.9C254.208 2.31333 254.081 2.64 253.828 2.88C253.574 3.10667 253.208 3.22 252.728 3.22ZM261.105 15.2C260.078 15.2 259.185 14.9933 258.425 14.58C257.665 14.1533 257.078 13.5533 256.665 12.78C256.252 12.0067 256.045 11.1 256.045 10.06C256.045 9.27333 256.158 8.57333 256.385 7.96C256.625 7.33333 256.965 6.80667 257.405 6.38C257.845 5.94 258.378 5.60667 259.005 5.38C259.632 5.14 260.332 5.02 261.105 5.02C261.545 5.02 262.018 5.08 262.525 5.2C263.045 5.32 263.532 5.52 263.985 5.8C264.198 5.93333 264.338 6.09333 264.405 6.28C264.472 6.46667 264.485 6.66 264.445 6.86C264.405 7.04667 264.318 7.21333 264.185 7.36C264.065 7.49333 263.912 7.58 263.725 7.62C263.538 7.64667 263.332 7.6 263.105 7.48C262.812 7.30667 262.512 7.18 262.205 7.1C261.898 7.00667 261.605 6.96 261.325 6.96C260.885 6.96 260.498 7.03333 260.165 7.18C259.832 7.31333 259.545 7.51333 259.305 7.78C259.078 8.03333 258.905 8.35333 258.785 8.74C258.665 9.12667 258.605 9.57333 258.605 10.08C258.605 11.0667 258.838 11.8467 259.305 12.42C259.785 12.98 260.458 13.26 261.325 13.26C261.605 13.26 261.892 13.22 262.185 13.14C262.492 13.06 262.798 12.9333 263.105 12.76C263.332 12.64 263.532 12.6 263.705 12.64C263.892 12.68 264.045 12.7733 264.165 12.92C264.285 13.0533 264.358 13.22 264.385 13.42C264.412 13.6067 264.385 13.7933 264.305 13.98C264.238 14.1667 264.105 14.32 263.905 14.44C263.465 14.7067 262.998 14.9 262.505 15.02C262.012 15.14 261.545 15.2 261.105 15.2ZM269.18 15.2C268.473 15.2 267.84 15.0667 267.28 14.8C266.733 14.52 266.3 14.1467 265.98 13.68C265.673 13.2133 265.52 12.6867 265.52 12.1C265.52 11.38 265.707 10.8133 266.08 10.4C266.453 9.97333 267.06 9.66667 267.9 9.48C268.74 9.29333 269.867 9.2 271.28 9.2H272.28V10.64H271.3C270.473 10.64 269.813 10.68 269.32 10.76C268.827 10.84 268.473 10.98 268.26 11.18C268.06 11.3667 267.96 11.6333 267.96 11.98C267.96 12.42 268.113 12.78 268.42 13.06C268.727 13.34 269.153 13.48 269.7 13.48C270.14 13.48 270.527 13.38 270.86 13.18C271.207 12.9667 271.48 12.68 271.68 12.32C271.88 11.96 271.98 11.5467 271.98 11.08V8.78C271.98 8.11333 271.833 7.63333 271.54 7.34C271.247 7.04667 270.753 6.9 270.06 6.9C269.673 6.9 269.253 6.94667 268.8 7.04C268.36 7.13333 267.893 7.29333 267.4 7.52C267.147 7.64 266.92 7.67333 266.72 7.62C266.533 7.56667 266.387 7.46 266.28 7.3C266.173 7.12667 266.12 6.94 266.12 6.74C266.12 6.54 266.173 6.34667 266.28 6.16C266.387 5.96 266.567 5.81333 266.82 5.72C267.433 5.46667 268.02 5.28667 268.58 5.18C269.153 5.07333 269.673 5.02 270.14 5.02C271.1 5.02 271.887 5.16667 272.5 5.46C273.127 5.75333 273.593 6.2 273.9 6.8C274.207 7.38667 274.36 8.14667 274.36 9.08V13.88C274.36 14.2933 274.26 14.6133 274.06 14.84C273.86 15.0533 273.573 15.16 273.2 15.16C272.827 15.16 272.533 15.0533 272.32 14.84C272.12 14.6133 272.02 14.2933 272.02 13.88V12.92H272.18C272.087 13.3867 271.9 13.7933 271.62 14.14C271.353 14.4733 271.013 14.7333 270.6 14.92C270.187 15.1067 269.713 15.2 269.18 15.2ZM280.238 15.2C279.131 15.2 278.298 14.8867 277.738 14.26C277.178 13.62 276.898 12.6867 276.898 11.46V2C276.898 1.58667 277.004 1.27333 277.218 1.06C277.431 0.846666 277.738 0.739999 278.138 0.739999C278.538 0.739999 278.844 0.846666 279.058 1.06C279.284 1.27333 279.398 1.58667 279.398 2V11.34C279.398 11.9533 279.524 12.4067 279.778 12.7C280.044 12.9933 280.418 13.14 280.898 13.14C281.004 13.14 281.104 13.14 281.198 13.14C281.291 13.1267 281.384 13.1133 281.478 13.1C281.664 13.0733 281.791 13.1267 281.858 13.26C281.924 13.38 281.958 13.6333 281.958 14.02C281.958 14.3533 281.891 14.6133 281.758 14.8C281.624 14.9867 281.404 15.1 281.098 15.14C280.964 15.1533 280.824 15.1667 280.678 15.18C280.531 15.1933 280.384 15.2 280.238 15.2ZM293.234 15.2C292.207 15.2 291.314 14.9933 290.554 14.58C289.794 14.1533 289.207 13.5533 288.794 12.78C288.381 12.0067 288.174 11.1 288.174 10.06C288.174 9.27333 288.287 8.57333 288.514 7.96C288.754 7.33333 289.094 6.80667 289.534 6.38C289.974 5.94 290.507 5.60667 291.134 5.38C291.761 5.14 292.461 5.02 293.234 5.02C293.674 5.02 294.147 5.08 294.654 5.2C295.174 5.32 295.661 5.52 296.114 5.8C296.327 5.93333 296.467 6.09333 296.534 6.28C296.601 6.46667 296.614 6.66 296.574 6.86C296.534 7.04667 296.447 7.21333 296.314 7.36C296.194 7.49333 296.041 7.58 295.854 7.62C295.667 7.64667 295.461 7.6 295.234 7.48C294.941 7.30667 294.641 7.18 294.334 7.1C294.027 7.00667 293.734 6.96 293.454 6.96C293.014 6.96 292.627 7.03333 292.294 7.18C291.961 7.31333 291.674 7.51333 291.434 7.78C291.207 8.03333 291.034 8.35333 290.914 8.74C290.794 9.12667 290.734 9.57333 290.734 10.08C290.734 11.0667 290.967 11.8467 291.434 12.42C291.914 12.98 292.587 13.26 293.454 13.26C293.734 13.26 294.021 13.22 294.314 13.14C294.621 13.06 294.927 12.9333 295.234 12.76C295.461 12.64 295.661 12.6 295.834 12.64C296.021 12.68 296.174 12.7733 296.294 12.92C296.414 13.0533 296.487 13.22 296.514 13.42C296.541 13.6067 296.514 13.7933 296.434 13.98C296.367 14.1667 296.234 14.32 296.034 14.44C295.594 14.7067 295.127 14.9 294.634 15.02C294.141 15.14 293.674 15.2 293.234 15.2ZM299.428 15.16C299.014 15.16 298.694 15.0533 298.468 14.84C298.254 14.6133 298.148 14.2933 298.148 13.88V6.32C298.148 5.90667 298.254 5.59333 298.468 5.38C298.681 5.16667 298.981 5.06 299.368 5.06C299.754 5.06 300.054 5.16667 300.268 5.38C300.481 5.59333 300.588 5.90667 300.588 6.32V7.58H300.388C300.574 6.78 300.941 6.17333 301.488 5.76C302.034 5.34667 302.761 5.1 303.668 5.02C303.948 4.99333 304.168 5.06667 304.328 5.24C304.501 5.4 304.601 5.65333 304.628 6C304.654 6.33333 304.574 6.60667 304.388 6.82C304.214 7.02 303.948 7.14 303.588 7.18L303.148 7.22C302.334 7.3 301.721 7.55333 301.308 7.98C300.894 8.39333 300.688 8.98 300.688 9.74V13.88C300.688 14.2933 300.581 14.6133 300.368 14.84C300.154 15.0533 299.841 15.16 299.428 15.16ZM310.283 15.2C309.27 15.2 308.39 14.9933 307.643 14.58C306.897 14.1667 306.317 13.58 305.903 12.82C305.49 12.0467 305.283 11.14 305.283 10.1C305.283 9.31333 305.397 8.61333 305.623 8C305.863 7.37333 306.203 6.84 306.643 6.4C307.083 5.94667 307.61 5.60667 308.223 5.38C308.837 5.14 309.523 5.02 310.283 5.02C311.297 5.02 312.177 5.22667 312.923 5.64C313.67 6.05333 314.25 6.64 314.663 7.4C315.077 8.16 315.283 9.06 315.283 10.1C315.283 10.8867 315.163 11.5933 314.923 12.22C314.697 12.8467 314.363 13.3867 313.923 13.84C313.483 14.28 312.957 14.62 312.343 14.86C311.73 15.0867 311.043 15.2 310.283 15.2ZM310.283 13.3C310.777 13.3 311.21 13.18 311.583 12.94C311.957 12.7 312.243 12.3467 312.443 11.88C312.657 11.4 312.763 10.8067 312.763 10.1C312.763 9.03333 312.537 8.24 312.083 7.72C311.63 7.18667 311.03 6.92 310.283 6.92C309.79 6.92 309.357 7.04 308.983 7.28C308.61 7.50667 308.317 7.86 308.103 8.34C307.903 8.80667 307.803 9.39333 307.803 10.1C307.803 11.1533 308.03 11.9533 308.483 12.5C308.937 13.0333 309.537 13.3 310.283 13.3ZM320.927 15.2C320.354 15.2 319.747 15.14 319.107 15.02C318.467 14.9 317.894 14.6933 317.387 14.4C317.174 14.2667 317.02 14.1133 316.927 13.94C316.847 13.7533 316.814 13.5733 316.827 13.4C316.854 13.2133 316.92 13.0533 317.027 12.92C317.147 12.7867 317.294 12.7 317.467 12.66C317.654 12.62 317.854 12.6533 318.067 12.76C318.6 13.0133 319.1 13.1933 319.567 13.3C320.034 13.3933 320.494 13.44 320.947 13.44C321.587 13.44 322.06 13.3333 322.367 13.12C322.687 12.8933 322.847 12.6 322.847 12.24C322.847 11.9333 322.74 11.7 322.527 11.54C322.327 11.3667 322.02 11.24 321.607 11.16L319.607 10.78C318.78 10.62 318.147 10.32 317.707 9.88C317.28 9.42667 317.067 8.84667 317.067 8.14C317.067 7.5 317.24 6.94667 317.587 6.48C317.947 6.01333 318.44 5.65333 319.067 5.4C319.694 5.14667 320.414 5.02 321.227 5.02C321.814 5.02 322.36 5.08667 322.867 5.22C323.387 5.34 323.887 5.53333 324.367 5.8C324.567 5.90667 324.7 6.04667 324.767 6.22C324.847 6.39333 324.867 6.57333 324.827 6.76C324.787 6.93333 324.707 7.09333 324.587 7.24C324.467 7.37333 324.314 7.46 324.127 7.5C323.954 7.52667 323.754 7.48667 323.527 7.38C323.114 7.16667 322.714 7.01333 322.327 6.92C321.954 6.82667 321.594 6.78 321.247 6.78C320.594 6.78 320.107 6.89333 319.787 7.12C319.48 7.34667 319.327 7.64667 319.327 8.02C319.327 8.3 319.42 8.53333 319.607 8.72C319.794 8.90667 320.08 9.03333 320.467 9.1L322.467 9.48C323.334 9.64 323.987 9.93333 324.427 10.36C324.88 10.7867 325.107 11.36 325.107 12.08C325.107 13.0533 324.727 13.82 323.967 14.38C323.207 14.9267 322.194 15.2 320.927 15.2ZM330.693 15.2C330.119 15.2 329.513 15.14 328.873 15.02C328.233 14.9 327.659 14.6933 327.153 14.4C326.939 14.2667 326.786 14.1133 326.693 13.94C326.613 13.7533 326.579 13.5733 326.593 13.4C326.619 13.2133 326.686 13.0533 326.793 12.92C326.913 12.7867 327.059 12.7 327.233 12.66C327.419 12.62 327.619 12.6533 327.833 12.76C328.366 13.0133 328.866 13.1933 329.333 13.3C329.799 13.3933 330.259 13.44 330.713 13.44C331.353 13.44 331.826 13.3333 332.133 13.12C332.453 12.8933 332.613 12.6 332.613 12.24C332.613 11.9333 332.506 11.7 332.293 11.54C332.093 11.3667 331.786 11.24 331.373 11.16L329.373 10.78C328.546 10.62 327.913 10.32 327.473 9.88C327.046 9.42667 326.833 8.84667 326.833 8.14C326.833 7.5 327.006 6.94667 327.353 6.48C327.713 6.01333 328.206 5.65333 328.833 5.4C329.459 5.14667 330.179 5.02 330.993 5.02C331.579 5.02 332.126 5.08667 332.633 5.22C333.153 5.34 333.653 5.53333 334.133 5.8C334.333 5.90667 334.466 6.04667 334.533 6.22C334.613 6.39333 334.633 6.57333 334.593 6.76C334.553 6.93333 334.473 7.09333 334.353 7.24C334.233 7.37333 334.079 7.46 333.893 7.5C333.719 7.52667 333.519 7.48667 333.293 7.38C332.879 7.16667 332.479 7.01333 332.093 6.92C331.719 6.82667 331.359 6.78 331.013 6.78C330.359 6.78 329.873 6.89333 329.553 7.12C329.246 7.34667 329.093 7.64667 329.093 8.02C329.093 8.3 329.186 8.53333 329.373 8.72C329.559 8.90667 329.846 9.03333 330.233 9.1L332.233 9.48C333.099 9.64 333.753 9.93333 334.193 10.36C334.646 10.7867 334.873 11.36 334.873 12.08C334.873 13.0533 334.493 13.82 333.733 14.38C332.973 14.9267 331.959 15.2 330.693 15.2ZM345.888 15.2C345.314 15.2 344.708 15.14 344.068 15.02C343.428 14.9 342.854 14.6933 342.348 14.4C342.134 14.2667 341.981 14.1133 341.888 13.94C341.808 13.7533 341.774 13.5733 341.788 13.4C341.814 13.2133 341.881 13.0533 341.988 12.92C342.108 12.7867 342.254 12.7 342.428 12.66C342.614 12.62 342.814 12.6533 343.028 12.76C343.561 13.0133 344.061 13.1933 344.528 13.3C344.994 13.3933 345.454 13.44 345.908 13.44C346.548 13.44 347.021 13.3333 347.328 13.12C347.648 12.8933 347.808 12.6 347.808 12.24C347.808 11.9333 347.701 11.7 347.488 11.54C347.288 11.3667 346.981 11.24 346.568 11.16L344.568 10.78C343.741 10.62 343.108 10.32 342.668 9.88C342.241 9.42667 342.028 8.84667 342.028 8.14C342.028 7.5 342.201 6.94667 342.548 6.48C342.908 6.01333 343.401 5.65333 344.028 5.4C344.654 5.14667 345.374 5.02 346.188 5.02C346.774 5.02 347.321 5.08667 347.828 5.22C348.348 5.34 348.848 5.53333 349.328 5.8C349.528 5.90667 349.661 6.04667 349.728 6.22C349.808 6.39333 349.828 6.57333 349.788 6.76C349.748 6.93333 349.668 7.09333 349.548 7.24C349.428 7.37333 349.274 7.46 349.088 7.5C348.914 7.52667 348.714 7.48667 348.488 7.38C348.074 7.16667 347.674 7.01333 347.288 6.92C346.914 6.82667 346.554 6.78 346.208 6.78C345.554 6.78 345.068 6.89333 344.748 7.12C344.441 7.34667 344.288 7.64667 344.288 8.02C344.288 8.3 344.381 8.53333 344.568 8.72C344.754 8.90667 345.041 9.03333 345.428 9.1L347.428 9.48C348.294 9.64 348.948 9.93333 349.388 10.36C349.841 10.7867 350.068 11.36 350.068 12.08C350.068 13.0533 349.688 13.82 348.928 14.38C348.168 14.9267 347.154 15.2 345.888 15.2ZM356.893 15.2C355.787 15.2 354.833 14.9933 354.033 14.58C353.233 14.1667 352.613 13.58 352.173 12.82C351.747 12.06 351.533 11.16 351.533 10.12C351.533 9.10667 351.74 8.22 352.153 7.46C352.58 6.7 353.16 6.10667 353.893 5.68C354.64 5.24 355.487 5.02 356.433 5.02C357.127 5.02 357.747 5.13333 358.293 5.36C358.853 5.58667 359.327 5.91333 359.713 6.34C360.113 6.76667 360.413 7.28667 360.613 7.9C360.827 8.5 360.933 9.18 360.933 9.94C360.933 10.18 360.847 10.3667 360.673 10.5C360.513 10.62 360.28 10.68 359.973 10.68H353.553V9.24H359.173L358.853 9.54C358.853 8.92667 358.76 8.41333 358.573 8C358.4 7.58667 358.14 7.27333 357.793 7.06C357.46 6.83333 357.04 6.72 356.533 6.72C355.973 6.72 355.493 6.85333 355.093 7.12C354.707 7.37333 354.407 7.74 354.193 8.22C353.993 8.68667 353.893 9.24667 353.893 9.9V10.04C353.893 11.1333 354.147 11.9533 354.653 12.5C355.173 13.0333 355.933 13.3 356.933 13.3C357.28 13.3 357.667 13.26 358.093 13.18C358.533 13.0867 358.947 12.9333 359.333 12.72C359.613 12.56 359.86 12.4933 360.073 12.52C360.287 12.5333 360.453 12.6067 360.573 12.74C360.707 12.8733 360.787 13.04 360.813 13.24C360.84 13.4267 360.8 13.62 360.693 13.82C360.6 14.02 360.433 14.1933 360.193 14.34C359.727 14.6333 359.187 14.8533 358.573 15C357.973 15.1333 357.413 15.2 356.893 15.2ZM367.433 15.2C366.407 15.2 365.513 14.9933 364.753 14.58C363.993 14.1533 363.407 13.5533 362.993 12.78C362.58 12.0067 362.373 11.1 362.373 10.06C362.373 9.27333 362.487 8.57333 362.713 7.96C362.953 7.33333 363.293 6.80667 363.733 6.38C364.173 5.94 364.707 5.60667 365.333 5.38C365.96 5.14 366.66 5.02 367.433 5.02C367.873 5.02 368.347 5.08 368.853 5.2C369.373 5.32 369.86 5.52 370.313 5.8C370.527 5.93333 370.667 6.09333 370.733 6.28C370.8 6.46667 370.813 6.66 370.773 6.86C370.733 7.04667 370.647 7.21333 370.513 7.36C370.393 7.49333 370.24 7.58 370.053 7.62C369.867 7.64667 369.66 7.6 369.433 7.48C369.14 7.30667 368.84 7.18 368.533 7.1C368.227 7.00667 367.933 6.96 367.653 6.96C367.213 6.96 366.827 7.03333 366.493 7.18C366.16 7.31333 365.873 7.51333 365.633 7.78C365.407 8.03333 365.233 8.35333 365.113 8.74C364.993 9.12667 364.933 9.57333 364.933 10.08C364.933 11.0667 365.167 11.8467 365.633 12.42C366.113 12.98 366.787 13.26 367.653 13.26C367.933 13.26 368.22 13.22 368.513 13.14C368.82 13.06 369.127 12.9333 369.433 12.76C369.66 12.64 369.86 12.6 370.033 12.64C370.22 12.68 370.373 12.7733 370.493 12.92C370.613 13.0533 370.687 13.22 370.713 13.42C370.74 13.6067 370.713 13.7933 370.633 13.98C370.567 14.1667 370.433 14.32 370.233 14.44C369.793 14.7067 369.327 14.9 368.833 15.02C368.34 15.14 367.873 15.2 367.433 15.2ZM376.866 15.2C375.999 15.2 375.273 15.0533 374.686 14.76C374.113 14.4667 373.686 14.04 373.406 13.48C373.126 12.9067 372.986 12.2 372.986 11.36V7.1H371.946C371.626 7.1 371.379 7.02 371.206 6.86C371.033 6.68667 370.946 6.45333 370.946 6.16C370.946 5.85333 371.033 5.62 371.206 5.46C371.379 5.3 371.626 5.22 371.946 5.22H372.986V3.4C372.986 2.98667 373.093 2.67333 373.306 2.46C373.533 2.24667 373.846 2.14 374.246 2.14C374.646 2.14 374.953 2.24667 375.166 2.46C375.379 2.67333 375.486 2.98667 375.486 3.4V5.22H377.606C377.926 5.22 378.173 5.3 378.346 5.46C378.519 5.62 378.606 5.85333 378.606 6.16C378.606 6.45333 378.519 6.68667 378.346 6.86C378.173 7.02 377.926 7.1 377.606 7.1H375.486V11.22C375.486 11.86 375.626 12.34 375.906 12.66C376.186 12.98 376.639 13.14 377.266 13.14C377.493 13.14 377.693 13.12 377.866 13.08C378.039 13.04 378.193 13.0133 378.326 13C378.486 12.9867 378.619 13.04 378.726 13.16C378.833 13.2667 378.886 13.4933 378.886 13.84C378.886 14.1067 378.839 14.3467 378.746 14.56C378.666 14.76 378.513 14.9 378.286 14.98C378.113 15.0333 377.886 15.08 377.606 15.12C377.326 15.1733 377.079 15.2 376.866 15.2ZM381.556 15.14C381.156 15.14 380.849 15.02 380.636 14.78C380.422 14.54 380.316 14.2067 380.316 13.78V6.44C380.316 6 380.422 5.66667 380.636 5.44C380.849 5.2 381.156 5.08 381.556 5.08C381.956 5.08 382.262 5.2 382.476 5.44C382.702 5.66667 382.816 6 382.816 6.44V13.78C382.816 14.2067 382.709 14.54 382.496 14.78C382.282 15.02 381.969 15.14 381.556 15.14ZM381.556 3.22C381.089 3.22 380.722 3.10667 380.456 2.88C380.202 2.64 380.076 2.31333 380.076 1.9C380.076 1.47333 380.202 1.14667 380.456 0.919999C380.722 0.693333 381.089 0.58 381.556 0.58C382.036 0.58 382.402 0.693333 382.656 0.919999C382.909 1.14667 383.036 1.47333 383.036 1.9C383.036 2.31333 382.909 2.64 382.656 2.88C382.402 3.10667 382.036 3.22 381.556 3.22ZM389.873 15.2C388.86 15.2 387.98 14.9933 387.233 14.58C386.487 14.1667 385.907 13.58 385.493 12.82C385.08 12.0467 384.873 11.14 384.873 10.1C384.873 9.31333 384.987 8.61333 385.213 8C385.453 7.37333 385.793 6.84 386.233 6.4C386.673 5.94667 387.2 5.60667 387.813 5.38C388.427 5.14 389.113 5.02 389.873 5.02C390.887 5.02 391.767 5.22667 392.513 5.64C393.26 6.05333 393.84 6.64 394.253 7.4C394.667 8.16 394.873 9.06 394.873 10.1C394.873 10.8867 394.753 11.5933 394.513 12.22C394.287 12.8467 393.953 13.3867 393.513 13.84C393.073 14.28 392.547 14.62 391.933 14.86C391.32 15.0867 390.633 15.2 389.873 15.2ZM389.873 13.3C390.367 13.3 390.8 13.18 391.173 12.94C391.547 12.7 391.833 12.3467 392.033 11.88C392.247 11.4 392.353 10.8067 392.353 10.1C392.353 9.03333 392.127 8.24 391.673 7.72C391.22 7.18667 390.62 6.92 389.873 6.92C389.38 6.92 388.947 7.04 388.573 7.28C388.2 7.50667 387.907 7.86 387.693 8.34C387.493 8.80667 387.393 9.39333 387.393 10.1C387.393 11.1533 387.62 11.9533 388.073 12.5C388.527 13.0333 389.127 13.3 389.873 13.3ZM398.177 15.16C397.777 15.16 397.47 15.0533 397.257 14.84C397.043 14.6133 396.937 14.2933 396.937 13.88V6.32C396.937 5.90667 397.043 5.59333 397.257 5.38C397.47 5.16667 397.77 5.06 398.157 5.06C398.543 5.06 398.843 5.16667 399.057 5.38C399.27 5.59333 399.377 5.90667 399.377 6.32V7.68L399.157 7.18C399.45 6.47333 399.903 5.94 400.517 5.58C401.143 5.20667 401.85 5.02 402.637 5.02C403.423 5.02 404.07 5.16667 404.577 5.46C405.083 5.75333 405.463 6.2 405.717 6.8C405.97 7.38667 406.097 8.13333 406.097 9.04V13.88C406.097 14.2933 405.99 14.6133 405.777 14.84C405.563 15.0533 405.257 15.16 404.857 15.16C404.457 15.16 404.143 15.0533 403.917 14.84C403.703 14.6133 403.597 14.2933 403.597 13.88V9.16C403.597 8.4 403.45 7.84667 403.157 7.5C402.877 7.15333 402.437 6.98 401.837 6.98C401.103 6.98 400.517 7.21333 400.077 7.68C399.65 8.13333 399.437 8.74 399.437 9.5V13.88C399.437 14.7333 399.017 15.16 398.177 15.16Z" fill="#444444"/>
<path d="M46.3464 49.2C45.4797 49.2 44.7531 49.0533 44.1664 48.76C43.5931 48.4667 43.1664 48.04 42.8864 47.48C42.6064 46.9067 42.4664 46.2 42.4664 45.36V41.1H41.4264C41.1064 41.1 40.8597 41.02 40.6864 40.86C40.5131 40.6867 40.4264 40.4533 40.4264 40.16C40.4264 39.8533 40.5131 39.62 40.6864 39.46C40.8597 39.3 41.1064 39.22 41.4264 39.22H42.4664V37.4C42.4664 36.9867 42.5731 36.6733 42.7864 36.46C43.0131 36.2467 43.3264 36.14 43.7264 36.14C44.1264 36.14 44.4331 36.2467 44.6464 36.46C44.8597 36.6733 44.9664 36.9867 44.9664 37.4V39.22H47.0864C47.4064 39.22 47.6531 39.3 47.8264 39.46C47.9997 39.62 48.0864 39.8533 48.0864 40.16C48.0864 40.4533 47.9997 40.6867 47.8264 40.86C47.6531 41.02 47.4064 41.1 47.0864 41.1H44.9664V45.22C44.9664 45.86 45.1064 46.34 45.3864 46.66C45.6664 46.98 46.1197 47.14 46.7464 47.14C46.9731 47.14 47.1731 47.12 47.3464 47.08C47.5197 47.04 47.6731 47.0133 47.8064 47C47.9664 46.9867 48.0997 47.04 48.2064 47.16C48.3131 47.2667 48.3664 47.4933 48.3664 47.84C48.3664 48.1067 48.3197 48.3467 48.2264 48.56C48.1464 48.76 47.9931 48.9 47.7664 48.98C47.5931 49.0333 47.3664 49.08 47.0864 49.12C46.8064 49.1733 46.5597 49.2 46.3464 49.2ZM51.0361 49.16C50.6361 49.16 50.3294 49.0533 50.1161 48.84C49.9028 48.6133 49.7961 48.2933 49.7961 47.88V36C49.7961 35.5867 49.9028 35.2733 50.1161 35.06C50.3294 34.8467 50.6361 34.74 51.0361 34.74C51.4361 34.74 51.7428 34.8467 51.9561 35.06C52.1828 35.2733 52.2961 35.5867 52.2961 36V41.18H52.0161C52.3094 40.4733 52.7628 39.94 53.3761 39.58C54.0028 39.2067 54.7094 39.02 55.4961 39.02C56.2828 39.02 56.9294 39.1667 57.4361 39.46C57.9428 39.7533 58.3228 40.2 58.5761 40.8C58.8294 41.3867 58.9561 42.1333 58.9561 43.04V47.88C58.9561 48.2933 58.8494 48.6133 58.6361 48.84C58.4228 49.0533 58.1161 49.16 57.7161 49.16C57.3161 49.16 57.0028 49.0533 56.7761 48.84C56.5628 48.6133 56.4561 48.2933 56.4561 47.88V43.16C56.4561 42.4 56.3094 41.8467 56.0161 41.5C55.7361 41.1533 55.2961 40.98 54.6961 40.98C53.9628 40.98 53.3761 41.2133 52.9361 41.68C52.5094 42.1333 52.2961 42.74 52.2961 43.5V47.88C52.2961 48.7333 51.8761 49.16 51.0361 49.16ZM62.7753 49.16C62.362 49.16 62.042 49.0533 61.8153 48.84C61.602 48.6133 61.4953 48.2933 61.4953 47.88V40.32C61.4953 39.9067 61.602 39.5933 61.8153 39.38C62.0286 39.1667 62.3286 39.06 62.7153 39.06C63.102 39.06 63.402 39.1667 63.6153 39.38C63.8286 39.5933 63.9353 39.9067 63.9353 40.32V41.58H63.7353C63.922 40.78 64.2886 40.1733 64.8353 39.76C65.382 39.3467 66.1086 39.1 67.0153 39.02C67.2953 38.9933 67.5153 39.0667 67.6753 39.24C67.8486 39.4 67.9486 39.6533 67.9753 40C68.002 40.3333 67.922 40.6067 67.7353 40.82C67.562 41.02 67.2953 41.14 66.9353 41.18L66.4953 41.22C65.682 41.3 65.0686 41.5533 64.6553 41.98C64.242 42.3933 64.0353 42.98 64.0353 43.74V47.88C64.0353 48.2933 63.9286 48.6133 63.7153 48.84C63.502 49.0533 63.1886 49.16 62.7753 49.16ZM73.6311 49.2C72.6178 49.2 71.7378 48.9933 70.9911 48.58C70.2444 48.1667 69.6644 47.58 69.2511 46.82C68.8378 46.0467 68.6311 45.14 68.6311 44.1C68.6311 43.3133 68.7444 42.6133 68.9711 42C69.2111 41.3733 69.5511 40.84 69.9911 40.4C70.4311 39.9467 70.9578 39.6067 71.5711 39.38C72.1844 39.14 72.8711 39.02 73.6311 39.02C74.6444 39.02 75.5244 39.2267 76.2711 39.64C77.0178 40.0533 77.5978 40.64 78.0111 41.4C78.4244 42.16 78.6311 43.06 78.6311 44.1C78.6311 44.8867 78.5111 45.5933 78.2711 46.22C78.0444 46.8467 77.7111 47.3867 77.2711 47.84C76.8311 48.28 76.3044 48.62 75.6911 48.86C75.0778 49.0867 74.3911 49.2 73.6311 49.2ZM73.6311 47.3C74.1244 47.3 74.5578 47.18 74.9311 46.94C75.3044 46.7 75.5911 46.3467 75.7911 45.88C76.0044 45.4 76.1111 44.8067 76.1111 44.1C76.1111 43.0333 75.8844 42.24 75.4311 41.72C74.9778 41.1867 74.3778 40.92 73.6311 40.92C73.1378 40.92 72.7044 41.04 72.3311 41.28C71.9578 41.5067 71.6644 41.86 71.4511 42.34C71.2511 42.8067 71.1511 43.3933 71.1511 44.1C71.1511 45.1533 71.3778 45.9533 71.8311 46.5C72.2844 47.0333 72.8844 47.3 73.6311 47.3ZM84.2345 49.2C83.4212 49.2 82.7479 49.0533 82.2145 48.76C81.6812 48.4533 81.2812 48 81.0145 47.4C80.7612 46.8 80.6345 46.0533 80.6345 45.16V40.32C80.6345 39.8933 80.7412 39.58 80.9545 39.38C81.1679 39.1667 81.4745 39.06 81.8745 39.06C82.2745 39.06 82.5812 39.1667 82.7945 39.38C83.0212 39.58 83.1345 39.8933 83.1345 40.32V45.2C83.1345 45.8933 83.2745 46.4067 83.5545 46.74C83.8345 47.0733 84.2812 47.24 84.8945 47.24C85.5612 47.24 86.1079 47.0133 86.5345 46.56C86.9612 46.0933 87.1745 45.48 87.1745 44.72V40.32C87.1745 39.8933 87.2812 39.58 87.4945 39.38C87.7079 39.1667 88.0145 39.06 88.4145 39.06C88.8145 39.06 89.1212 39.1667 89.3345 39.38C89.5612 39.58 89.6745 39.8933 89.6745 40.32V47.88C89.6745 48.7333 89.2679 49.16 88.4545 49.16C88.0679 49.16 87.7679 49.0533 87.5545 48.84C87.3412 48.6133 87.2345 48.2933 87.2345 47.88V46.36L87.5145 46.96C87.2345 47.68 86.8079 48.2333 86.2345 48.62C85.6745 49.0067 85.0079 49.2 84.2345 49.2ZM96.8366 52.8C96.1166 52.8 95.4166 52.7333 94.7366 52.6C94.0699 52.4667 93.4632 52.26 92.9166 51.98C92.6632 51.8467 92.4899 51.6867 92.3966 51.5C92.3166 51.3133 92.2899 51.12 92.3166 50.92C92.3566 50.7333 92.4366 50.5667 92.5566 50.42C92.6899 50.2733 92.8499 50.1733 93.0366 50.12C93.2232 50.0667 93.4166 50.0933 93.6166 50.2C94.2032 50.4933 94.7566 50.68 95.2766 50.76C95.8099 50.8533 96.2632 50.9 96.6366 50.9C97.5299 50.9 98.1966 50.68 98.6366 50.24C99.0899 49.8133 99.3166 49.1733 99.3166 48.32V46.52H99.4966C99.2966 47.2 98.8766 47.7467 98.2366 48.16C97.6099 48.56 96.8966 48.76 96.0966 48.76C95.2166 48.76 94.4499 48.56 93.7966 48.16C93.1432 47.7467 92.6366 47.1733 92.2766 46.44C91.9166 45.7067 91.7366 44.8533 91.7366 43.88C91.7366 43.1467 91.8366 42.4867 92.0366 41.9C92.2499 41.3 92.5432 40.7867 92.9166 40.36C93.3032 39.9333 93.7632 39.6067 94.2966 39.38C94.8432 39.14 95.4432 39.02 96.0966 39.02C96.9232 39.02 97.6432 39.2267 98.2566 39.64C98.8832 40.04 99.2899 40.5733 99.4766 41.24L99.2766 41.74V40.32C99.2766 39.9067 99.3832 39.5933 99.5966 39.38C99.8232 39.1667 100.13 39.06 100.517 39.06C100.917 39.06 101.223 39.1667 101.437 39.38C101.65 39.5933 101.757 39.9067 101.757 40.32V48.02C101.757 49.6067 101.337 50.8 100.497 51.6C99.6566 52.4 98.4366 52.8 96.8366 52.8ZM96.7766 46.86C97.2966 46.86 97.7432 46.74 98.1166 46.5C98.4899 46.26 98.7766 45.92 98.9766 45.48C99.1899 45.0267 99.2966 44.4933 99.2966 43.88C99.2966 42.96 99.0699 42.24 98.6166 41.72C98.1632 41.1867 97.5499 40.92 96.7766 40.92C96.2566 40.92 95.8099 41.04 95.4366 41.28C95.0632 41.52 94.7699 41.86 94.5566 42.3C94.3566 42.74 94.2566 43.2667 94.2566 43.88C94.2566 44.8 94.4832 45.5267 94.9366 46.06C95.3899 46.5933 96.0032 46.86 96.7766 46.86ZM105.587 49.16C105.187 49.16 104.88 49.0533 104.667 48.84C104.454 48.6133 104.347 48.2933 104.347 47.88V36C104.347 35.5867 104.454 35.2733 104.667 35.06C104.88 34.8467 105.187 34.74 105.587 34.74C105.987 34.74 106.294 34.8467 106.507 35.06C106.734 35.2733 106.847 35.5867 106.847 36V41.18H106.567C106.86 40.4733 107.314 39.94 107.927 39.58C108.554 39.2067 109.26 39.02 110.047 39.02C110.834 39.02 111.48 39.1667 111.987 39.46C112.494 39.7533 112.874 40.2 113.127 40.8C113.38 41.3867 113.507 42.1333 113.507 43.04V47.88C113.507 48.2933 113.4 48.6133 113.187 48.84C112.974 49.0533 112.667 49.16 112.267 49.16C111.867 49.16 111.554 49.0533 111.327 48.84C111.114 48.6133 111.007 48.2933 111.007 47.88V43.16C111.007 42.4 110.86 41.8467 110.567 41.5C110.287 41.1533 109.847 40.98 109.247 40.98C108.514 40.98 107.927 41.2133 107.487 41.68C107.06 42.1333 106.847 42.74 106.847 43.5V47.88C106.847 48.7333 106.427 49.16 105.587 49.16ZM122.716 49.14C122.316 49.14 122.009 49.02 121.796 48.78C121.582 48.54 121.476 48.2067 121.476 47.78V40.44C121.476 40 121.582 39.6667 121.796 39.44C122.009 39.2 122.316 39.08 122.716 39.08C123.116 39.08 123.422 39.2 123.636 39.44C123.862 39.6667 123.976 40 123.976 40.44V47.78C123.976 48.2067 123.869 48.54 123.656 48.78C123.442 49.02 123.129 49.14 122.716 49.14ZM122.716 37.22C122.249 37.22 121.882 37.1067 121.616 36.88C121.362 36.64 121.236 36.3133 121.236 35.9C121.236 35.4733 121.362 35.1467 121.616 34.92C121.882 34.6933 122.249 34.58 122.716 34.58C123.196 34.58 123.562 34.6933 123.816 34.92C124.069 35.1467 124.196 35.4733 124.196 35.9C124.196 36.3133 124.069 36.64 123.816 36.88C123.562 37.1067 123.196 37.22 122.716 37.22ZM131.053 49.2C130.187 49.2 129.46 49.0533 128.873 48.76C128.3 48.4667 127.873 48.04 127.593 47.48C127.313 46.9067 127.173 46.2 127.173 45.36V41.1H126.133C125.813 41.1 125.567 41.02 125.393 40.86C125.22 40.6867 125.133 40.4533 125.133 40.16C125.133 39.8533 125.22 39.62 125.393 39.46C125.567 39.3 125.813 39.22 126.133 39.22H127.173V37.4C127.173 36.9867 127.28 36.6733 127.493 36.46C127.72 36.2467 128.033 36.14 128.433 36.14C128.833 36.14 129.14 36.2467 129.353 36.46C129.567 36.6733 129.673 36.9867 129.673 37.4V39.22H131.793C132.113 39.22 132.36 39.3 132.533 39.46C132.707 39.62 132.793 39.8533 132.793 40.16C132.793 40.4533 132.707 40.6867 132.533 40.86C132.36 41.02 132.113 41.1 131.793 41.1H129.673V45.22C129.673 45.86 129.813 46.34 130.093 46.66C130.373 46.98 130.827 47.14 131.453 47.14C131.68 47.14 131.88 47.12 132.053 47.08C132.227 47.04 132.38 47.0133 132.513 47C132.673 46.9867 132.807 47.04 132.913 47.16C133.02 47.2667 133.073 47.4933 133.073 47.84C133.073 48.1067 133.027 48.3467 132.933 48.56C132.853 48.76 132.7 48.9 132.473 48.98C132.3 49.0333 132.073 49.08 131.793 49.12C131.513 49.1733 131.267 49.2 131.053 49.2ZM137.829 49.2C137.256 49.2 136.649 49.14 136.009 49.02C135.369 48.9 134.796 48.6933 134.289 48.4C134.076 48.2667 133.923 48.1133 133.829 47.94C133.749 47.7533 133.716 47.5733 133.729 47.4C133.756 47.2133 133.823 47.0533 133.929 46.92C134.049 46.7867 134.196 46.7 134.369 46.66C134.556 46.62 134.756 46.6533 134.969 46.76C135.503 47.0133 136.003 47.1933 136.469 47.3C136.936 47.3933 137.396 47.44 137.849 47.44C138.489 47.44 138.963 47.3333 139.269 47.12C139.589 46.8933 139.749 46.6 139.749 46.24C139.749 45.9333 139.643 45.7 139.429 45.54C139.229 45.3667 138.923 45.24 138.509 45.16L136.509 44.78C135.683 44.62 135.049 44.32 134.609 43.88C134.183 43.4267 133.969 42.8467 133.969 42.14C133.969 41.5 134.143 40.9467 134.489 40.48C134.849 40.0133 135.343 39.6533 135.969 39.4C136.596 39.1467 137.316 39.02 138.129 39.02C138.716 39.02 139.263 39.0867 139.769 39.22C140.289 39.34 140.789 39.5333 141.269 39.8C141.469 39.9067 141.603 40.0467 141.669 40.22C141.749 40.3933 141.769 40.5733 141.729 40.76C141.689 40.9333 141.609 41.0933 141.489 41.24C141.369 41.3733 141.216 41.46 141.029 41.5C140.856 41.5267 140.656 41.4867 140.429 41.38C140.016 41.1667 139.616 41.0133 139.229 40.92C138.856 40.8267 138.496 40.78 138.149 40.78C137.496 40.78 137.009 40.8933 136.689 41.12C136.383 41.3467 136.229 41.6467 136.229 42.02C136.229 42.3 136.323 42.5333 136.509 42.72C136.696 42.9067 136.983 43.0333 137.369 43.1L139.369 43.48C140.236 43.64 140.889 43.9333 141.329 44.36C141.783 44.7867 142.009 45.36 142.009 46.08C142.009 47.0533 141.629 47.82 140.869 48.38C140.109 48.9267 139.096 49.2 137.829 49.2ZM152.665 49.2C151.958 49.2 151.325 49.0667 150.765 48.8C150.218 48.52 149.785 48.1467 149.465 47.68C149.158 47.2133 149.005 46.6867 149.005 46.1C149.005 45.38 149.191 44.8133 149.565 44.4C149.938 43.9733 150.545 43.6667 151.385 43.48C152.225 43.2933 153.351 43.2 154.765 43.2H155.765V44.64H154.785C153.958 44.64 153.298 44.68 152.805 44.76C152.311 44.84 151.958 44.98 151.745 45.18C151.545 45.3667 151.445 45.6333 151.445 45.98C151.445 46.42 151.598 46.78 151.905 47.06C152.211 47.34 152.638 47.48 153.185 47.48C153.625 47.48 154.011 47.38 154.345 47.18C154.691 46.9667 154.965 46.68 155.165 46.32C155.365 45.96 155.465 45.5467 155.465 45.08V42.78C155.465 42.1133 155.318 41.6333 155.025 41.34C154.731 41.0467 154.238 40.9 153.545 40.9C153.158 40.9 152.738 40.9467 152.285 41.04C151.845 41.1333 151.378 41.2933 150.885 41.52C150.631 41.64 150.405 41.6733 150.205 41.62C150.018 41.5667 149.871 41.46 149.765 41.3C149.658 41.1267 149.605 40.94 149.605 40.74C149.605 40.54 149.658 40.3467 149.765 40.16C149.871 39.96 150.051 39.8133 150.305 39.72C150.918 39.4667 151.505 39.2867 152.065 39.18C152.638 39.0733 153.158 39.02 153.625 39.02C154.585 39.02 155.371 39.1667 155.985 39.46C156.611 39.7533 157.078 40.2 157.385 40.8C157.691 41.3867 157.845 42.1467 157.845 43.08V47.88C157.845 48.2933 157.745 48.6133 157.545 48.84C157.345 49.0533 157.058 49.16 156.685 49.16C156.311 49.16 156.018 49.0533 155.805 48.84C155.605 48.6133 155.505 48.2933 155.505 47.88V46.92H155.665C155.571 47.3867 155.385 47.7933 155.105 48.14C154.838 48.4733 154.498 48.7333 154.085 48.92C153.671 49.1067 153.198 49.2 152.665 49.2ZM161.622 52.76C161.222 52.76 160.915 52.6533 160.702 52.44C160.489 52.2267 160.382 51.9133 160.382 51.5V40.32C160.382 39.9067 160.489 39.5933 160.702 39.38C160.915 39.1667 161.215 39.06 161.602 39.06C162.002 39.06 162.309 39.1667 162.522 39.38C162.735 39.5933 162.842 39.9067 162.842 40.32V41.88L162.622 41.28C162.822 40.6 163.229 40.0533 163.842 39.64C164.469 39.2267 165.195 39.02 166.022 39.02C166.875 39.02 167.622 39.2267 168.262 39.64C168.915 40.0533 169.422 40.64 169.782 41.4C170.142 42.1467 170.322 43.0467 170.322 44.1C170.322 45.14 170.142 46.0467 169.782 46.82C169.422 47.58 168.922 48.1667 168.282 48.58C167.642 48.9933 166.889 49.2 166.022 49.2C165.209 49.2 164.495 49 163.882 48.6C163.269 48.1867 162.855 47.6533 162.642 47H162.882V51.5C162.882 51.9133 162.769 52.2267 162.542 52.44C162.329 52.6533 162.022 52.76 161.622 52.76ZM165.322 47.3C165.815 47.3 166.249 47.18 166.622 46.94C166.995 46.7 167.282 46.3467 167.482 45.88C167.695 45.4 167.802 44.8067 167.802 44.1C167.802 43.0333 167.575 42.24 167.122 41.72C166.669 41.1867 166.069 40.92 165.322 40.92C164.829 40.92 164.395 41.04 164.022 41.28C163.649 41.5067 163.355 41.86 163.142 42.34C162.942 42.8067 162.842 43.3933 162.842 44.1C162.842 45.1533 163.069 45.9533 163.522 46.5C163.975 47.0333 164.575 47.3 165.322 47.3ZM177.194 49.2C176.088 49.2 175.134 48.9933 174.334 48.58C173.534 48.1667 172.914 47.58 172.474 46.82C172.048 46.06 171.834 45.16 171.834 44.12C171.834 43.1067 172.041 42.22 172.454 41.46C172.881 40.7 173.461 40.1067 174.194 39.68C174.941 39.24 175.788 39.02 176.734 39.02C177.428 39.02 178.048 39.1333 178.594 39.36C179.154 39.5867 179.628 39.9133 180.014 40.34C180.414 40.7667 180.714 41.2867 180.914 41.9C181.128 42.5 181.234 43.18 181.234 43.94C181.234 44.18 181.148 44.3667 180.974 44.5C180.814 44.62 180.581 44.68 180.274 44.68H173.854V43.24H179.474L179.154 43.54C179.154 42.9267 179.061 42.4133 178.874 42C178.701 41.5867 178.441 41.2733 178.094 41.06C177.761 40.8333 177.341 40.72 176.834 40.72C176.274 40.72 175.794 40.8533 175.394 41.12C175.008 41.3733 174.708 41.74 174.494 42.22C174.294 42.6867 174.194 43.2467 174.194 43.9V44.04C174.194 45.1333 174.448 45.9533 174.954 46.5C175.474 47.0333 176.234 47.3 177.234 47.3C177.581 47.3 177.968 47.26 178.394 47.18C178.834 47.0867 179.248 46.9333 179.634 46.72C179.914 46.56 180.161 46.4933 180.374 46.52C180.588 46.5333 180.754 46.6067 180.874 46.74C181.008 46.8733 181.088 47.04 181.114 47.24C181.141 47.4267 181.101 47.62 180.994 47.82C180.901 48.02 180.734 48.1933 180.494 48.34C180.028 48.6333 179.488 48.8533 178.874 49C178.274 49.1333 177.714 49.2 177.194 49.2ZM183.835 49.1C183.542 49.1 183.295 49.02 183.095 48.86C182.909 48.6867 182.809 48.4667 182.795 48.2C182.795 47.9333 182.909 47.6533 183.135 47.36L186.375 43.36V44.54L183.335 40.8C183.095 40.5067 182.982 40.2267 182.995 39.96C183.009 39.6933 183.109 39.48 183.295 39.32C183.495 39.1467 183.742 39.06 184.035 39.06C184.342 39.06 184.595 39.1133 184.795 39.22C185.009 39.3267 185.202 39.4933 185.375 39.72L187.775 42.8H186.895L189.315 39.72C189.502 39.4933 189.695 39.3267 189.895 39.22C190.095 39.1133 190.342 39.06 190.635 39.06C190.942 39.06 191.189 39.1467 191.375 39.32C191.562 39.4933 191.655 39.7133 191.655 39.98C191.669 40.2467 191.555 40.5267 191.315 40.82L188.295 44.52V43.4L191.535 47.36C191.775 47.64 191.889 47.9133 191.875 48.18C191.862 48.4467 191.755 48.6667 191.555 48.84C191.369 49.0133 191.122 49.1 190.815 49.1C190.522 49.1 190.275 49.0467 190.075 48.94C189.875 48.8333 189.682 48.6667 189.495 48.44L186.895 45.16H187.735L185.155 48.44C184.982 48.6533 184.795 48.82 184.595 48.94C184.395 49.0467 184.142 49.1 183.835 49.1ZM200.743 49.14C200.343 49.14 200.036 49.02 199.823 48.78C199.61 48.54 199.503 48.2067 199.503 47.78V40.44C199.503 40 199.61 39.6667 199.823 39.44C200.036 39.2 200.343 39.08 200.743 39.08C201.143 39.08 201.45 39.2 201.663 39.44C201.89 39.6667 202.003 40 202.003 40.44V47.78C202.003 48.2067 201.896 48.54 201.683 48.78C201.47 49.02 201.156 49.14 200.743 49.14ZM200.743 37.22C200.276 37.22 199.91 37.1067 199.643 36.88C199.39 36.64 199.263 36.3133 199.263 35.9C199.263 35.4733 199.39 35.1467 199.643 34.92C199.91 34.6933 200.276 34.58 200.743 34.58C201.223 34.58 201.59 34.6933 201.843 34.92C202.096 35.1467 202.223 35.4733 202.223 35.9C202.223 36.3133 202.096 36.64 201.843 36.88C201.59 37.1067 201.223 37.22 200.743 37.22ZM208.181 49.2C207.607 49.2 207.001 49.14 206.361 49.02C205.721 48.9 205.147 48.6933 204.641 48.4C204.427 48.2667 204.274 48.1133 204.181 47.94C204.101 47.7533 204.067 47.5733 204.081 47.4C204.107 47.2133 204.174 47.0533 204.281 46.92C204.401 46.7867 204.547 46.7 204.721 46.66C204.907 46.62 205.107 46.6533 205.321 46.76C205.854 47.0133 206.354 47.1933 206.821 47.3C207.287 47.3933 207.747 47.44 208.201 47.44C208.841 47.44 209.314 47.3333 209.621 47.12C209.941 46.8933 210.101 46.6 210.101 46.24C210.101 45.9333 209.994 45.7 209.781 45.54C209.581 45.3667 209.274 45.24 208.861 45.16L206.861 44.78C206.034 44.62 205.401 44.32 204.961 43.88C204.534 43.4267 204.321 42.8467 204.321 42.14C204.321 41.5 204.494 40.9467 204.841 40.48C205.201 40.0133 205.694 39.6533 206.321 39.4C206.947 39.1467 207.667 39.02 208.481 39.02C209.067 39.02 209.614 39.0867 210.121 39.22C210.641 39.34 211.141 39.5333 211.621 39.8C211.821 39.9067 211.954 40.0467 212.021 40.22C212.101 40.3933 212.121 40.5733 212.081 40.76C212.041 40.9333 211.961 41.0933 211.841 41.24C211.721 41.3733 211.567 41.46 211.381 41.5C211.207 41.5267 211.007 41.4867 210.781 41.38C210.367 41.1667 209.967 41.0133 209.581 40.92C209.207 40.8267 208.847 40.78 208.501 40.78C207.847 40.78 207.361 40.8933 207.041 41.12C206.734 41.3467 206.581 41.6467 206.581 42.02C206.581 42.3 206.674 42.5333 206.861 42.72C207.047 42.9067 207.334 43.0333 207.721 43.1L209.721 43.48C210.587 43.64 211.241 43.9333 211.681 44.36C212.134 44.7867 212.361 45.36 212.361 46.08C212.361 47.0533 211.981 47.82 211.221 48.38C210.461 48.9267 209.447 49.2 208.181 49.2ZM223.016 49.2C222.309 49.2 221.676 49.0667 221.116 48.8C220.569 48.52 220.136 48.1467 219.816 47.68C219.509 47.2133 219.356 46.6867 219.356 46.1C219.356 45.38 219.543 44.8133 219.916 44.4C220.289 43.9733 220.896 43.6667 221.736 43.48C222.576 43.2933 223.703 43.2 225.116 43.2H226.116V44.64H225.136C224.309 44.64 223.649 44.68 223.156 44.76C222.663 44.84 222.309 44.98 222.096 45.18C221.896 45.3667 221.796 45.6333 221.796 45.98C221.796 46.42 221.949 46.78 222.256 47.06C222.563 47.34 222.989 47.48 223.536 47.48C223.976 47.48 224.363 47.38 224.696 47.18C225.043 46.9667 225.316 46.68 225.516 46.32C225.716 45.96 225.816 45.5467 225.816 45.08V42.78C225.816 42.1133 225.669 41.6333 225.376 41.34C225.083 41.0467 224.589 40.9 223.896 40.9C223.509 40.9 223.089 40.9467 222.636 41.04C222.196 41.1333 221.729 41.2933 221.236 41.52C220.983 41.64 220.756 41.6733 220.556 41.62C220.369 41.5667 220.223 41.46 220.116 41.3C220.009 41.1267 219.956 40.94 219.956 40.74C219.956 40.54 220.009 40.3467 220.116 40.16C220.223 39.96 220.403 39.8133 220.656 39.72C221.269 39.4667 221.856 39.2867 222.416 39.18C222.989 39.0733 223.509 39.02 223.976 39.02C224.936 39.02 225.723 39.1667 226.336 39.46C226.963 39.7533 227.429 40.2 227.736 40.8C228.043 41.3867 228.196 42.1467 228.196 43.08V47.88C228.196 48.2933 228.096 48.6133 227.896 48.84C227.696 49.0533 227.409 49.16 227.036 49.16C226.663 49.16 226.369 49.0533 226.156 48.84C225.956 48.6133 225.856 48.2933 225.856 47.88V46.92H226.016C225.923 47.3867 225.736 47.7933 225.456 48.14C225.189 48.4733 224.849 48.7333 224.436 48.92C224.023 49.1067 223.549 49.2 223.016 49.2Z" fill="#444444"/>
<rect x="239.5" y="28" width="88" height="28" rx="5" fill="#FFF2E5"/>
<path d="M250.579 49.2C249.712 49.2 248.985 49.0533 248.399 48.76C247.825 48.4667 247.399 48.04 247.119 47.48C246.839 46.9067 246.699 46.2 246.699 45.36V41.1H245.659C245.339 41.1 245.092 41.02 244.919 40.86C244.745 40.6867 244.659 40.4533 244.659 40.16C244.659 39.8533 244.745 39.62 244.919 39.46C245.092 39.3 245.339 39.22 245.659 39.22H246.699V37.4C246.699 36.9867 246.805 36.6733 247.019 36.46C247.245 36.2467 247.559 36.14 247.959 36.14C248.359 36.14 248.665 36.2467 248.879 36.46C249.092 36.6733 249.199 36.9867 249.199 37.4V39.22H251.319C251.639 39.22 251.885 39.3 252.059 39.46C252.232 39.62 252.319 39.8533 252.319 40.16C252.319 40.4533 252.232 40.6867 252.059 40.86C251.885 41.02 251.639 41.1 251.319 41.1H249.199V45.22C249.199 45.86 249.339 46.34 249.619 46.66C249.899 46.98 250.352 47.14 250.979 47.14C251.205 47.14 251.405 47.12 251.579 47.08C251.752 47.04 251.905 47.0133 252.039 47C252.199 46.9867 252.332 47.04 252.439 47.16C252.545 47.2667 252.599 47.4933 252.599 47.84C252.599 48.1067 252.552 48.3467 252.459 48.56C252.379 48.76 252.225 48.9 251.999 48.98C251.825 49.0333 251.599 49.08 251.319 49.12C251.039 49.1733 250.792 49.2 250.579 49.2ZM255.055 49.16C254.641 49.16 254.321 49.0533 254.095 48.84C253.881 48.6133 253.775 48.2933 253.775 47.88V40.32C253.775 39.9067 253.881 39.5933 254.095 39.38C254.308 39.1667 254.608 39.06 254.995 39.06C255.381 39.06 255.681 39.1667 255.895 39.38C256.108 39.5933 256.215 39.9067 256.215 40.32V41.58H256.015C256.201 40.78 256.568 40.1733 257.115 39.76C257.661 39.3467 258.388 39.1 259.295 39.02C259.575 38.9933 259.795 39.0667 259.955 39.24C260.128 39.4 260.228 39.6533 260.255 40C260.281 40.3333 260.201 40.6067 260.015 40.82C259.841 41.02 259.575 41.14 259.215 41.18L258.775 41.22C257.961 41.3 257.348 41.5533 256.935 41.98C256.521 42.3933 256.315 42.98 256.315 43.74V47.88C256.315 48.2933 256.208 48.6133 255.995 48.84C255.781 49.0533 255.468 49.16 255.055 49.16ZM262.847 49.14C262.447 49.14 262.14 49.02 261.927 48.78C261.713 48.54 261.607 48.2067 261.607 47.78V40.44C261.607 40 261.713 39.6667 261.927 39.44C262.14 39.2 262.447 39.08 262.847 39.08C263.247 39.08 263.553 39.2 263.767 39.44C263.993 39.6667 264.107 40 264.107 40.44V47.78C264.107 48.2067 264 48.54 263.787 48.78C263.573 49.02 263.26 49.14 262.847 49.14ZM262.847 37.22C262.38 37.22 262.013 37.1067 261.747 36.88C261.493 36.64 261.367 36.3133 261.367 35.9C261.367 35.4733 261.493 35.1467 261.747 34.92C262.013 34.6933 262.38 34.58 262.847 34.58C263.327 34.58 263.693 34.6933 263.947 34.92C264.2 35.1467 264.327 35.4733 264.327 35.9C264.327 36.3133 264.2 36.64 263.947 36.88C263.693 37.1067 263.327 37.22 262.847 37.22ZM269.924 49.2C269.218 49.2 268.584 49.0667 268.024 48.8C267.478 48.52 267.044 48.1467 266.724 47.68C266.418 47.2133 266.264 46.6867 266.264 46.1C266.264 45.38 266.451 44.8133 266.824 44.4C267.198 43.9733 267.804 43.6667 268.644 43.48C269.484 43.2933 270.611 43.2 272.024 43.2H273.024V44.64H272.044C271.218 44.64 270.558 44.68 270.064 44.76C269.571 44.84 269.218 44.98 269.004 45.18C268.804 45.3667 268.704 45.6333 268.704 45.98C268.704 46.42 268.858 46.78 269.164 47.06C269.471 47.34 269.898 47.48 270.444 47.48C270.884 47.48 271.271 47.38 271.604 47.18C271.951 46.9667 272.224 46.68 272.424 46.32C272.624 45.96 272.724 45.5467 272.724 45.08V42.78C272.724 42.1133 272.578 41.6333 272.284 41.34C271.991 41.0467 271.498 40.9 270.804 40.9C270.418 40.9 269.998 40.9467 269.544 41.04C269.104 41.1333 268.638 41.2933 268.144 41.52C267.891 41.64 267.664 41.6733 267.464 41.62C267.278 41.5667 267.131 41.46 267.024 41.3C266.918 41.1267 266.864 40.94 266.864 40.74C266.864 40.54 266.918 40.3467 267.024 40.16C267.131 39.96 267.311 39.8133 267.564 39.72C268.178 39.4667 268.764 39.2867 269.324 39.18C269.898 39.0733 270.418 39.02 270.884 39.02C271.844 39.02 272.631 39.1667 273.244 39.46C273.871 39.7533 274.338 40.2 274.644 40.8C274.951 41.3867 275.104 42.1467 275.104 43.08V47.88C275.104 48.2933 275.004 48.6133 274.804 48.84C274.604 49.0533 274.318 49.16 273.944 49.16C273.571 49.16 273.278 49.0533 273.064 48.84C272.864 48.6133 272.764 48.2933 272.764 47.88V46.92H272.924C272.831 47.3867 272.644 47.7933 272.364 48.14C272.098 48.4733 271.758 48.7333 271.344 48.92C270.931 49.1067 270.458 49.2 269.924 49.2ZM278.882 49.16C278.482 49.16 278.175 49.0533 277.962 48.84C277.748 48.6133 277.642 48.2933 277.642 47.88V40.32C277.642 39.9067 277.748 39.5933 277.962 39.38C278.175 39.1667 278.475 39.06 278.862 39.06C279.248 39.06 279.548 39.1667 279.762 39.38C279.975 39.5933 280.082 39.9067 280.082 40.32V41.68L279.862 41.18C280.155 40.4733 280.608 39.94 281.222 39.58C281.848 39.2067 282.555 39.02 283.342 39.02C284.128 39.02 284.775 39.1667 285.282 39.46C285.788 39.7533 286.168 40.2 286.422 40.8C286.675 41.3867 286.802 42.1333 286.802 43.04V47.88C286.802 48.2933 286.695 48.6133 286.482 48.84C286.268 49.0533 285.962 49.16 285.562 49.16C285.162 49.16 284.848 49.0533 284.622 48.84C284.408 48.6133 284.302 48.2933 284.302 47.88V43.16C284.302 42.4 284.155 41.8467 283.862 41.5C283.582 41.1533 283.142 40.98 282.542 40.98C281.808 40.98 281.222 41.2133 280.782 41.68C280.355 42.1333 280.142 42.74 280.142 43.5V47.88C280.142 48.7333 279.722 49.16 278.882 49.16ZM293.901 52.8C293.181 52.8 292.481 52.7333 291.801 52.6C291.134 52.4667 290.528 52.26 289.981 51.98C289.728 51.8467 289.554 51.6867 289.461 51.5C289.381 51.3133 289.354 51.12 289.381 50.92C289.421 50.7333 289.501 50.5667 289.621 50.42C289.754 50.2733 289.914 50.1733 290.101 50.12C290.288 50.0667 290.481 50.0933 290.681 50.2C291.268 50.4933 291.821 50.68 292.341 50.76C292.874 50.8533 293.328 50.9 293.701 50.9C294.594 50.9 295.261 50.68 295.701 50.24C296.154 49.8133 296.381 49.1733 296.381 48.32V46.52H296.561C296.361 47.2 295.941 47.7467 295.301 48.16C294.674 48.56 293.961 48.76 293.161 48.76C292.281 48.76 291.514 48.56 290.861 48.16C290.208 47.7467 289.701 47.1733 289.341 46.44C288.981 45.7067 288.801 44.8533 288.801 43.88C288.801 43.1467 288.901 42.4867 289.101 41.9C289.314 41.3 289.608 40.7867 289.981 40.36C290.368 39.9333 290.828 39.6067 291.361 39.38C291.908 39.14 292.508 39.02 293.161 39.02C293.988 39.02 294.708 39.2267 295.321 39.64C295.948 40.04 296.354 40.5733 296.541 41.24L296.341 41.74V40.32C296.341 39.9067 296.448 39.5933 296.661 39.38C296.888 39.1667 297.194 39.06 297.581 39.06C297.981 39.06 298.288 39.1667 298.501 39.38C298.714 39.5933 298.821 39.9067 298.821 40.32V48.02C298.821 49.6067 298.401 50.8 297.561 51.6C296.721 52.4 295.501 52.8 293.901 52.8ZM293.841 46.86C294.361 46.86 294.808 46.74 295.181 46.5C295.554 46.26 295.841 45.92 296.041 45.48C296.254 45.0267 296.361 44.4933 296.361 43.88C296.361 42.96 296.134 42.24 295.681 41.72C295.228 41.1867 294.614 40.92 293.841 40.92C293.321 40.92 292.874 41.04 292.501 41.28C292.128 41.52 291.834 41.86 291.621 42.3C291.421 42.74 291.321 43.2667 291.321 43.88C291.321 44.8 291.548 45.5267 292.001 46.06C292.454 46.5933 293.068 46.86 293.841 46.86ZM304.751 49.2C303.645 49.2 302.811 48.8867 302.251 48.26C301.691 47.62 301.411 46.6867 301.411 45.46V36C301.411 35.5867 301.518 35.2733 301.731 35.06C301.945 34.8467 302.251 34.74 302.651 34.74C303.051 34.74 303.358 34.8467 303.571 35.06C303.798 35.2733 303.911 35.5867 303.911 36V45.34C303.911 45.9533 304.038 46.4067 304.291 46.7C304.558 46.9933 304.931 47.14 305.411 47.14C305.518 47.14 305.618 47.14 305.711 47.14C305.805 47.1267 305.898 47.1133 305.991 47.1C306.178 47.0733 306.305 47.1267 306.371 47.26C306.438 47.38 306.471 47.6333 306.471 48.02C306.471 48.3533 306.405 48.6133 306.271 48.8C306.138 48.9867 305.918 49.1 305.611 49.14C305.478 49.1533 305.338 49.1667 305.191 49.18C305.045 49.1933 304.898 49.2 304.751 49.2ZM312.52 49.2C311.414 49.2 310.46 48.9933 309.66 48.58C308.86 48.1667 308.24 47.58 307.8 46.82C307.374 46.06 307.16 45.16 307.16 44.12C307.16 43.1067 307.367 42.22 307.78 41.46C308.207 40.7 308.787 40.1067 309.52 39.68C310.267 39.24 311.114 39.02 312.06 39.02C312.754 39.02 313.374 39.1333 313.92 39.36C314.48 39.5867 314.954 39.9133 315.34 40.34C315.74 40.7667 316.04 41.2867 316.24 41.9C316.454 42.5 316.56 43.18 316.56 43.94C316.56 44.18 316.474 44.3667 316.3 44.5C316.14 44.62 315.907 44.68 315.6 44.68H309.18V43.24H314.8L314.48 43.54C314.48 42.9267 314.387 42.4133 314.2 42C314.027 41.5867 313.767 41.2733 313.42 41.06C313.087 40.8333 312.667 40.72 312.16 40.72C311.6 40.72 311.12 40.8533 310.72 41.12C310.334 41.3733 310.034 41.74 309.82 42.22C309.62 42.6867 309.52 43.2467 309.52 43.9V44.04C309.52 45.1333 309.774 45.9533 310.28 46.5C310.8 47.0333 311.56 47.3 312.56 47.3C312.907 47.3 313.294 47.26 313.72 47.18C314.16 47.0867 314.574 46.9333 314.96 46.72C315.24 46.56 315.487 46.4933 315.7 46.52C315.914 46.5333 316.08 46.6067 316.2 46.74C316.334 46.8733 316.414 47.04 316.44 47.24C316.467 47.4267 316.427 47.62 316.32 47.82C316.227 48.02 316.06 48.1933 315.82 48.34C315.354 48.6333 314.814 48.8533 314.2 49C313.6 49.1333 313.04 49.2 312.52 49.2ZM319.74 49.1C319.287 49.1 318.92 48.96 318.64 48.68C318.374 48.4 318.24 48.04 318.24 47.6C318.24 47.1733 318.374 46.8267 318.64 46.56C318.92 46.28 319.287 46.14 319.74 46.14C320.207 46.14 320.567 46.28 320.82 46.56C321.087 46.8267 321.22 47.1733 321.22 47.6C321.22 48.04 321.087 48.4 320.82 48.68C320.567 48.96 320.207 49.1 319.74 49.1Z" fill="#D97A1A"/>
</svg>
