<svg width="573" height="28" viewBox="0 0 573 28" fill="none" xmlns="http://www.w3.org/2000/svg">
<path d="M1.98602 21.16C1.57268 21.16 1.25268 21.0467 1.02602 20.82C0.812682 20.58 0.706016 20.2533 0.706016 19.84V8.2C0.706016 7.77333 0.819349 7.45333 1.04602 7.24C1.27268 7.01333 1.59268 6.9 2.00602 6.9H6.82602C8.37268 6.9 9.56602 7.27333 10.406 8.02C11.246 8.75333 11.666 9.78667 11.666 11.12C11.666 11.9867 11.4727 12.7333 11.086 13.36C10.7127 13.9867 10.166 14.4667 9.44602 14.8C8.72602 15.1333 7.85268 15.3 6.82602 15.3L7.00602 15H7.66602C8.21268 15 8.68602 15.1333 9.08602 15.4C9.49935 15.6667 9.85935 16.0867 10.166 16.66L11.666 19.44C11.826 19.72 11.8993 19.9933 11.886 20.26C11.8727 20.5267 11.7727 20.7467 11.586 20.92C11.3994 21.08 11.126 21.16 10.766 21.16C10.406 21.16 10.1127 21.0867 9.88602 20.94C9.65935 20.78 9.45935 20.54 9.28602 20.22L7.26602 16.5C7.02602 16.0467 6.73935 15.7467 6.40602 15.6C6.08602 15.44 5.67268 15.36 5.16602 15.36H3.26602V19.84C3.26602 20.2533 3.15935 20.58 2.94602 20.82C2.73268 21.0467 2.41268 21.16 1.98602 21.16ZM3.26602 13.46H6.38602C7.30602 13.46 7.99935 13.2733 8.46602 12.9C8.94602 12.5133 9.18602 11.94 9.18602 11.18C9.18602 10.4333 8.94602 9.87333 8.46602 9.5C7.99935 9.11333 7.30602 8.92 6.38602 8.92H3.26602V13.46ZM18.743 21.2C17.6364 21.2 16.683 20.9933 15.883 20.58C15.083 20.1667 14.463 19.58 14.023 18.82C13.5964 18.06 13.383 17.16 13.383 16.12C13.383 15.1067 13.5897 14.22 14.003 13.46C14.4297 12.7 15.0097 12.1067 15.743 11.68C16.4897 11.24 17.3364 11.02 18.283 11.02C18.9764 11.02 19.5964 11.1333 20.143 11.36C20.703 11.5867 21.1764 11.9133 21.563 12.34C21.963 12.7667 22.263 13.2867 22.463 13.9C22.6764 14.5 22.783 15.18 22.783 15.94C22.783 16.18 22.6964 16.3667 22.523 16.5C22.363 16.62 22.1297 16.68 21.823 16.68H15.403V15.24H21.023L20.703 15.54C20.703 14.9267 20.6097 14.4133 20.423 14C20.2497 13.5867 19.9897 13.2733 19.643 13.06C19.3097 12.8333 18.8897 12.72 18.383 12.72C17.823 12.72 17.343 12.8533 16.943 13.12C16.5564 13.3733 16.2564 13.74 16.043 14.22C15.843 14.6867 15.743 15.2467 15.743 15.9V16.04C15.743 17.1333 15.9964 17.9533 16.503 18.5C17.023 19.0333 17.783 19.3 18.783 19.3C19.1297 19.3 19.5164 19.26 19.943 19.18C20.383 19.0867 20.7964 18.9333 21.183 18.72C21.463 18.56 21.7097 18.4933 21.923 18.52C22.1364 18.5333 22.303 18.6067 22.423 18.74C22.5564 18.8733 22.6364 19.04 22.663 19.24C22.6897 19.4267 22.6497 19.62 22.543 19.82C22.4497 20.02 22.283 20.1933 22.043 20.34C21.5764 20.6333 21.0364 20.8533 20.423 21C19.823 21.1333 19.263 21.2 18.743 21.2ZM29.2829 21.2C28.2562 21.2 27.3629 20.9933 26.6029 20.58C25.8429 20.1533 25.2562 19.5533 24.8429 18.78C24.4296 18.0067 24.2229 17.1 24.2229 16.06C24.2229 15.2733 24.3362 14.5733 24.5629 13.96C24.8029 13.3333 25.1429 12.8067 25.5829 12.38C26.0229 11.94 26.5562 11.6067 27.1829 11.38C27.8096 11.14 28.5096 11.02 29.2829 11.02C29.7229 11.02 30.1962 11.08 30.7029 11.2C31.2229 11.32 31.7096 11.52 32.1629 11.8C32.3762 11.9333 32.5162 12.0933 32.5829 12.28C32.6496 12.4667 32.6629 12.66 32.6229 12.86C32.5829 13.0467 32.4962 13.2133 32.3629 13.36C32.2429 13.4933 32.0896 13.58 31.9029 13.62C31.7162 13.6467 31.5096 13.6 31.2829 13.48C30.9896 13.3067 30.6896 13.18 30.3829 13.1C30.0762 13.0067 29.7829 12.96 29.5029 12.96C29.0629 12.96 28.6762 13.0333 28.3429 13.18C28.0096 13.3133 27.7229 13.5133 27.4829 13.78C27.2562 14.0333 27.0829 14.3533 26.9629 14.74C26.8429 15.1267 26.7829 15.5733 26.7829 16.08C26.7829 17.0667 27.0162 17.8467 27.4829 18.42C27.9629 18.98 28.6362 19.26 29.5029 19.26C29.7829 19.26 30.0696 19.22 30.3629 19.14C30.6696 19.06 30.9762 18.9333 31.2829 18.76C31.5096 18.64 31.7096 18.6 31.8829 18.64C32.0696 18.68 32.2229 18.7733 32.3429 18.92C32.4629 19.0533 32.5362 19.22 32.5629 19.42C32.5896 19.6067 32.5629 19.7933 32.4829 19.98C32.4162 20.1667 32.2829 20.32 32.0829 20.44C31.6429 20.7067 31.1762 20.9 30.6829 21.02C30.1896 21.14 29.7229 21.2 29.2829 21.2ZM38.7155 21.2C37.8489 21.2 37.1222 21.0533 36.5355 20.76C35.9622 20.4667 35.5355 20.04 35.2555 19.48C34.9755 18.9067 34.8355 18.2 34.8355 17.36V13.1H33.7955C33.4755 13.1 33.2289 13.02 33.0555 12.86C32.8822 12.6867 32.7955 12.4533 32.7955 12.16C32.7955 11.8533 32.8822 11.62 33.0555 11.46C33.2289 11.3 33.4755 11.22 33.7955 11.22H34.8355V9.4C34.8355 8.98667 34.9422 8.67333 35.1555 8.46C35.3822 8.24667 35.6955 8.14 36.0955 8.14C36.4955 8.14 36.8022 8.24667 37.0155 8.46C37.2289 8.67333 37.3355 8.98667 37.3355 9.4V11.22H39.4555C39.7755 11.22 40.0222 11.3 40.1955 11.46C40.3689 11.62 40.4555 11.8533 40.4555 12.16C40.4555 12.4533 40.3689 12.6867 40.1955 12.86C40.0222 13.02 39.7755 13.1 39.4555 13.1H37.3355V17.22C37.3355 17.86 37.4755 18.34 37.7555 18.66C38.0355 18.98 38.4889 19.14 39.1155 19.14C39.3422 19.14 39.5422 19.12 39.7155 19.08C39.8889 19.04 40.0422 19.0133 40.1755 19C40.3355 18.9867 40.4689 19.04 40.5755 19.16C40.6822 19.2667 40.7355 19.4933 40.7355 19.84C40.7355 20.1067 40.6889 20.3467 40.5955 20.56C40.5155 20.76 40.3622 20.9 40.1355 20.98C39.9622 21.0333 39.7355 21.08 39.4555 21.12C39.1755 21.1733 38.9289 21.2 38.7155 21.2ZM45.1313 21.2C44.4247 21.2 43.7913 21.0667 43.2313 20.8C42.6847 20.52 42.2513 20.1467 41.9313 19.68C41.6247 19.2133 41.4713 18.6867 41.4713 18.1C41.4713 17.38 41.658 16.8133 42.0313 16.4C42.4047 15.9733 43.0113 15.6667 43.8513 15.48C44.6913 15.2933 45.818 15.2 47.2313 15.2H48.2313V16.64H47.2513C46.4247 16.64 45.7647 16.68 45.2713 16.76C44.778 16.84 44.4247 16.98 44.2113 17.18C44.0113 17.3667 43.9113 17.6333 43.9113 17.98C43.9113 18.42 44.0647 18.78 44.3713 19.06C44.678 19.34 45.1047 19.48 45.6513 19.48C46.0913 19.48 46.478 19.38 46.8113 19.18C47.158 18.9667 47.4313 18.68 47.6313 18.32C47.8313 17.96 47.9313 17.5467 47.9313 17.08V14.78C47.9313 14.1133 47.7847 13.6333 47.4913 13.34C47.198 13.0467 46.7047 12.9 46.0113 12.9C45.6247 12.9 45.2047 12.9467 44.7513 13.04C44.3113 13.1333 43.8447 13.2933 43.3513 13.52C43.098 13.64 42.8713 13.6733 42.6713 13.62C42.4847 13.5667 42.338 13.46 42.2313 13.3C42.1247 13.1267 42.0713 12.94 42.0713 12.74C42.0713 12.54 42.1247 12.3467 42.2313 12.16C42.338 11.96 42.518 11.8133 42.7713 11.72C43.3847 11.4667 43.9713 11.2867 44.5313 11.18C45.1047 11.0733 45.6247 11.02 46.0913 11.02C47.0513 11.02 47.838 11.1667 48.4513 11.46C49.078 11.7533 49.5447 12.2 49.8513 12.8C50.158 13.3867 50.3113 14.1467 50.3113 15.08V19.88C50.3113 20.2933 50.2113 20.6133 50.0113 20.84C49.8113 21.0533 49.5247 21.16 49.1513 21.16C48.778 21.16 48.4847 21.0533 48.2713 20.84C48.0713 20.6133 47.9713 20.2933 47.9713 19.88V18.92H48.1313C48.038 19.3867 47.8513 19.7933 47.5713 20.14C47.3047 20.4733 46.9647 20.7333 46.5513 20.92C46.138 21.1067 45.6647 21.2 45.1313 21.2ZM54.0888 21.16C53.6888 21.16 53.3822 21.0533 53.1688 20.84C52.9555 20.6133 52.8488 20.2933 52.8488 19.88V12.32C52.8488 11.9067 52.9555 11.5933 53.1688 11.38C53.3822 11.1667 53.6822 11.06 54.0688 11.06C54.4555 11.06 54.7555 11.1667 54.9688 11.38C55.1822 11.5933 55.2888 11.9067 55.2888 12.32V13.68L55.0688 13.18C55.3622 12.4733 55.8155 11.94 56.4288 11.58C57.0555 11.2067 57.7622 11.02 58.5488 11.02C59.3355 11.02 59.9822 11.1667 60.4888 11.46C60.9955 11.7533 61.3755 12.2 61.6288 12.8C61.8822 13.3867 62.0088 14.1333 62.0088 15.04V19.88C62.0088 20.2933 61.9022 20.6133 61.6888 20.84C61.4755 21.0533 61.1688 21.16 60.7688 21.16C60.3688 21.16 60.0555 21.0533 59.8288 20.84C59.6155 20.6133 59.5088 20.2933 59.5088 19.88V15.16C59.5088 14.4 59.3622 13.8467 59.0688 13.5C58.7888 13.1533 58.3488 12.98 57.7488 12.98C57.0155 12.98 56.4288 13.2133 55.9888 13.68C55.5622 14.1333 55.3488 14.74 55.3488 15.5V19.88C55.3488 20.7333 54.9288 21.16 54.0888 21.16ZM69.108 24.8C68.388 24.8 67.688 24.7333 67.008 24.6C66.3414 24.4667 65.7347 24.26 65.188 23.98C64.9347 23.8467 64.7614 23.6867 64.668 23.5C64.588 23.3133 64.5614 23.12 64.588 22.92C64.628 22.7333 64.708 22.5667 64.828 22.42C64.9614 22.2733 65.1214 22.1733 65.308 22.12C65.4947 22.0667 65.688 22.0933 65.888 22.2C66.4747 22.4933 67.028 22.68 67.548 22.76C68.0814 22.8533 68.5347 22.9 68.908 22.9C69.8014 22.9 70.468 22.68 70.908 22.24C71.3614 21.8133 71.588 21.1733 71.588 20.32V18.52H71.768C71.568 19.2 71.148 19.7467 70.508 20.16C69.8814 20.56 69.168 20.76 68.368 20.76C67.488 20.76 66.7214 20.56 66.068 20.16C65.4147 19.7467 64.908 19.1733 64.548 18.44C64.188 17.7067 64.008 16.8533 64.008 15.88C64.008 15.1467 64.108 14.4867 64.308 13.9C64.5214 13.3 64.8147 12.7867 65.188 12.36C65.5747 11.9333 66.0347 11.6067 66.568 11.38C67.1147 11.14 67.7147 11.02 68.368 11.02C69.1947 11.02 69.9147 11.2267 70.528 11.64C71.1547 12.04 71.5614 12.5733 71.748 13.24L71.548 13.74V12.32C71.548 11.9067 71.6547 11.5933 71.868 11.38C72.0947 11.1667 72.4014 11.06 72.788 11.06C73.188 11.06 73.4947 11.1667 73.708 11.38C73.9214 11.5933 74.028 11.9067 74.028 12.32V20.02C74.028 21.6067 73.608 22.8 72.768 23.6C71.928 24.4 70.708 24.8 69.108 24.8ZM69.048 18.86C69.568 18.86 70.0147 18.74 70.388 18.5C70.7614 18.26 71.048 17.92 71.248 17.48C71.4614 17.0267 71.568 16.4933 71.568 15.88C71.568 14.96 71.3414 14.24 70.888 13.72C70.4347 13.1867 69.8214 12.92 69.048 12.92C68.528 12.92 68.0814 13.04 67.708 13.28C67.3347 13.52 67.0414 13.86 66.828 14.3C66.628 14.74 66.528 15.2667 66.528 15.88C66.528 16.8 66.7547 17.5267 67.208 18.06C67.6614 18.5933 68.2747 18.86 69.048 18.86ZM80.1584 21.2C79.345 21.2 78.6717 21.0533 78.1384 20.76C77.605 20.4533 77.205 20 76.9384 19.4C76.685 18.8 76.5584 18.0533 76.5584 17.16V12.32C76.5584 11.8933 76.665 11.58 76.8784 11.38C77.0917 11.1667 77.3984 11.06 77.7984 11.06C78.1984 11.06 78.505 11.1667 78.7184 11.38C78.945 11.58 79.0584 11.8933 79.0584 12.32V17.2C79.0584 17.8933 79.1984 18.4067 79.4784 18.74C79.7584 19.0733 80.205 19.24 80.8184 19.24C81.485 19.24 82.0317 19.0133 82.4584 18.56C82.885 18.0933 83.0984 17.48 83.0984 16.72V12.32C83.0984 11.8933 83.205 11.58 83.4184 11.38C83.6317 11.1667 83.9384 11.06 84.3384 11.06C84.7384 11.06 85.045 11.1667 85.2584 11.38C85.485 11.58 85.5984 11.8933 85.5984 12.32V19.88C85.5984 20.7333 85.1917 21.16 84.3784 21.16C83.9917 21.16 83.6917 21.0533 83.4784 20.84C83.265 20.6133 83.1584 20.2933 83.1584 19.88V18.36L83.4384 18.96C83.1584 19.68 82.7317 20.2333 82.1584 20.62C81.5984 21.0067 80.9317 21.2 80.1584 21.2ZM91.5404 21.2C90.4337 21.2 89.6004 20.8867 89.0404 20.26C88.4804 19.62 88.2004 18.6867 88.2004 17.46V8C88.2004 7.58667 88.3071 7.27333 88.5204 7.06C88.7337 6.84667 89.0404 6.74 89.4404 6.74C89.8404 6.74 90.1471 6.84667 90.3604 7.06C90.5871 7.27333 90.7004 7.58667 90.7004 8V17.34C90.7004 17.9533 90.8271 18.4067 91.0804 18.7C91.3471 18.9933 91.7204 19.14 92.2004 19.14C92.3071 19.14 92.4071 19.14 92.5004 19.14C92.5937 19.1267 92.6871 19.1133 92.7804 19.1C92.9671 19.0733 93.0937 19.1267 93.1604 19.26C93.2271 19.38 93.2604 19.6333 93.2604 20.02C93.2604 20.3533 93.1937 20.6133 93.0604 20.8C92.9271 20.9867 92.7071 21.1 92.4004 21.14C92.2671 21.1533 92.1271 21.1667 91.9804 21.18C91.8337 21.1933 91.6871 21.2 91.5404 21.2ZM97.8071 21.2C97.1004 21.2 96.4671 21.0667 95.9071 20.8C95.3604 20.52 94.9271 20.1467 94.6071 19.68C94.3004 19.2133 94.1471 18.6867 94.1471 18.1C94.1471 17.38 94.3338 16.8133 94.7071 16.4C95.0804 15.9733 95.6871 15.6667 96.5271 15.48C97.3671 15.2933 98.4938 15.2 99.9071 15.2H100.907V16.64H99.9271C99.1004 16.64 98.4404 16.68 97.9471 16.76C97.4538 16.84 97.1004 16.98 96.8871 17.18C96.6871 17.3667 96.5871 17.6333 96.5871 17.98C96.5871 18.42 96.7404 18.78 97.0471 19.06C97.3538 19.34 97.7804 19.48 98.3271 19.48C98.7671 19.48 99.1538 19.38 99.4871 19.18C99.8338 18.9667 100.107 18.68 100.307 18.32C100.507 17.96 100.607 17.5467 100.607 17.08V14.78C100.607 14.1133 100.46 13.6333 100.167 13.34C99.8738 13.0467 99.3804 12.9 98.6871 12.9C98.3004 12.9 97.8804 12.9467 97.4271 13.04C96.9871 13.1333 96.5204 13.2933 96.0271 13.52C95.7738 13.64 95.5471 13.6733 95.3471 13.62C95.1604 13.5667 95.0138 13.46 94.9071 13.3C94.8004 13.1267 94.7471 12.94 94.7471 12.74C94.7471 12.54 94.8004 12.3467 94.9071 12.16C95.0138 11.96 95.1938 11.8133 95.4471 11.72C96.0604 11.4667 96.6471 11.2867 97.2071 11.18C97.7804 11.0733 98.3004 11.02 98.7671 11.02C99.7271 11.02 100.514 11.1667 101.127 11.46C101.754 11.7533 102.22 12.2 102.527 12.8C102.834 13.3867 102.987 14.1467 102.987 15.08V19.88C102.987 20.2933 102.887 20.6133 102.687 20.84C102.487 21.0533 102.2 21.16 101.827 21.16C101.454 21.16 101.16 21.0533 100.947 20.84C100.747 20.6133 100.647 20.2933 100.647 19.88V18.92H100.807C100.714 19.3867 100.527 19.7933 100.247 20.14C99.9804 20.4733 99.6404 20.7333 99.2271 20.92C98.8138 21.1067 98.3404 21.2 97.8071 21.2ZM106.805 21.16C106.391 21.16 106.071 21.0533 105.845 20.84C105.631 20.6133 105.525 20.2933 105.525 19.88V12.32C105.525 11.9067 105.631 11.5933 105.845 11.38C106.058 11.1667 106.358 11.06 106.745 11.06C107.131 11.06 107.431 11.1667 107.645 11.38C107.858 11.5933 107.965 11.9067 107.965 12.32V13.58H107.765C107.951 12.78 108.318 12.1733 108.865 11.76C109.411 11.3467 110.138 11.1 111.045 11.02C111.325 10.9933 111.545 11.0667 111.705 11.24C111.878 11.4 111.978 11.6533 112.005 12C112.031 12.3333 111.951 12.6067 111.765 12.82C111.591 13.02 111.325 13.14 110.965 13.18L110.525 13.22C109.711 13.3 109.098 13.5533 108.685 13.98C108.271 14.3933 108.065 14.98 108.065 15.74V19.88C108.065 20.2933 107.958 20.6133 107.745 20.84C107.531 21.0533 107.218 21.16 106.805 21.16ZM120.026 24.76C119.626 24.76 119.32 24.6533 119.106 24.44C118.893 24.2267 118.786 23.9133 118.786 23.5V12.32C118.786 11.9067 118.893 11.5933 119.106 11.38C119.32 11.1667 119.62 11.06 120.006 11.06C120.406 11.06 120.713 11.1667 120.926 11.38C121.14 11.5933 121.246 11.9067 121.246 12.32V13.88L121.026 13.28C121.226 12.6 121.633 12.0533 122.246 11.64C122.873 11.2267 123.6 11.02 124.426 11.02C125.28 11.02 126.026 11.2267 126.666 11.64C127.32 12.0533 127.826 12.64 128.186 13.4C128.546 14.1467 128.726 15.0467 128.726 16.1C128.726 17.14 128.546 18.0467 128.186 18.82C127.826 19.58 127.326 20.1667 126.686 20.58C126.046 20.9933 125.293 21.2 124.426 21.2C123.613 21.2 122.9 21 122.286 20.6C121.673 20.1867 121.26 19.6533 121.046 19H121.286V23.5C121.286 23.9133 121.173 24.2267 120.946 24.44C120.733 24.6533 120.426 24.76 120.026 24.76ZM123.726 19.3C124.22 19.3 124.653 19.18 125.026 18.94C125.4 18.7 125.686 18.3467 125.886 17.88C126.1 17.4 126.206 16.8067 126.206 16.1C126.206 15.0333 125.98 14.24 125.526 13.72C125.073 13.1867 124.473 12.92 123.726 12.92C123.233 12.92 122.8 13.04 122.426 13.28C122.053 13.5067 121.76 13.86 121.546 14.34C121.346 14.8067 121.246 15.3933 121.246 16.1C121.246 17.1533 121.473 17.9533 121.926 18.5C122.38 19.0333 122.98 19.3 123.726 19.3ZM133.063 24.76C132.77 24.76 132.53 24.68 132.343 24.52C132.157 24.3733 132.043 24.1733 132.003 23.92C131.977 23.6667 132.023 23.4 132.143 23.12L133.503 20.1V21.14L129.863 12.72C129.743 12.4267 129.703 12.1533 129.743 11.9C129.783 11.6467 129.903 11.4467 130.103 11.3C130.317 11.14 130.603 11.06 130.963 11.06C131.27 11.06 131.517 11.1333 131.703 11.28C131.89 11.4133 132.057 11.6733 132.203 12.06L134.903 18.8H134.303L137.063 12.04C137.21 11.6667 137.383 11.4133 137.583 11.28C137.783 11.1333 138.05 11.06 138.383 11.06C138.677 11.06 138.91 11.14 139.083 11.3C139.257 11.4467 139.363 11.6467 139.403 11.9C139.443 12.14 139.397 12.4067 139.263 12.7L134.403 23.8C134.23 24.1733 134.043 24.4267 133.843 24.56C133.643 24.6933 133.383 24.76 133.063 24.76ZM142.391 21.16C141.977 21.16 141.657 21.0533 141.431 20.84C141.217 20.6133 141.111 20.2933 141.111 19.88V12.32C141.111 11.9067 141.217 11.5933 141.431 11.38C141.644 11.1667 141.944 11.06 142.331 11.06C142.717 11.06 143.017 11.1667 143.231 11.38C143.444 11.5933 143.551 11.9067 143.551 12.32V13.58H143.351C143.537 12.78 143.904 12.1733 144.451 11.76C144.997 11.3467 145.724 11.1 146.631 11.02C146.911 10.9933 147.131 11.0667 147.291 11.24C147.464 11.4 147.564 11.6533 147.591 12C147.617 12.3333 147.537 12.6067 147.351 12.82C147.177 13.02 146.911 13.14 146.551 13.18L146.111 13.22C145.297 13.3 144.684 13.5533 144.271 13.98C143.857 14.3933 143.651 14.98 143.651 15.74V19.88C143.651 20.2933 143.544 20.6133 143.331 20.84C143.117 21.0533 142.804 21.16 142.391 21.16ZM152.065 21.2C151.358 21.2 150.725 21.0667 150.165 20.8C149.618 20.52 149.185 20.1467 148.865 19.68C148.558 19.2133 148.405 18.6867 148.405 18.1C148.405 17.38 148.592 16.8133 148.965 16.4C149.338 15.9733 149.945 15.6667 150.785 15.48C151.625 15.2933 152.752 15.2 154.165 15.2H155.165V16.64H154.185C153.358 16.64 152.698 16.68 152.205 16.76C151.712 16.84 151.358 16.98 151.145 17.18C150.945 17.3667 150.845 17.6333 150.845 17.98C150.845 18.42 150.998 18.78 151.305 19.06C151.612 19.34 152.038 19.48 152.585 19.48C153.025 19.48 153.412 19.38 153.745 19.18C154.092 18.9667 154.365 18.68 154.565 18.32C154.765 17.96 154.865 17.5467 154.865 17.08V14.78C154.865 14.1133 154.718 13.6333 154.425 13.34C154.132 13.0467 153.638 12.9 152.945 12.9C152.558 12.9 152.138 12.9467 151.685 13.04C151.245 13.1333 150.778 13.2933 150.285 13.52C150.032 13.64 149.805 13.6733 149.605 13.62C149.418 13.5667 149.272 13.46 149.165 13.3C149.058 13.1267 149.005 12.94 149.005 12.74C149.005 12.54 149.058 12.3467 149.165 12.16C149.272 11.96 149.452 11.8133 149.705 11.72C150.318 11.4667 150.905 11.2867 151.465 11.18C152.038 11.0733 152.558 11.02 153.025 11.02C153.985 11.02 154.772 11.1667 155.385 11.46C156.012 11.7533 156.478 12.2 156.785 12.8C157.092 13.3867 157.245 14.1467 157.245 15.08V19.88C157.245 20.2933 157.145 20.6133 156.945 20.84C156.745 21.0533 156.458 21.16 156.085 21.16C155.712 21.16 155.418 21.0533 155.205 20.84C155.005 20.6133 154.905 20.2933 154.905 19.88V18.92H155.065C154.972 19.3867 154.785 19.7933 154.505 20.14C154.238 20.4733 153.898 20.7333 153.485 20.92C153.072 21.1067 152.598 21.2 152.065 21.2ZM161.062 21.16C160.662 21.16 160.356 21.0533 160.142 20.84C159.929 20.6133 159.822 20.2933 159.822 19.88V12.32C159.822 11.9067 159.929 11.5933 160.142 11.38C160.356 11.1667 160.656 11.06 161.042 11.06C161.429 11.06 161.729 11.1667 161.942 11.38C162.156 11.5933 162.262 11.9067 162.262 12.32V13.78L162.042 13.18C162.309 12.5133 162.722 11.9867 163.282 11.6C163.842 11.2133 164.509 11.02 165.282 11.02C166.069 11.02 166.716 11.2067 167.222 11.58C167.729 11.9533 168.082 12.5267 168.282 13.3H168.002C168.269 12.5933 168.709 12.04 169.322 11.64C169.936 11.2267 170.642 11.02 171.442 11.02C172.189 11.02 172.802 11.1667 173.282 11.46C173.776 11.7533 174.142 12.2 174.382 12.8C174.622 13.3867 174.742 14.1333 174.742 15.04V19.88C174.742 20.2933 174.629 20.6133 174.402 20.84C174.189 21.0533 173.882 21.16 173.482 21.16C173.082 21.16 172.776 21.0533 172.562 20.84C172.349 20.6133 172.242 20.2933 172.242 19.88V15.14C172.242 14.3933 172.116 13.8467 171.862 13.5C171.622 13.1533 171.209 12.98 170.622 12.98C169.969 12.98 169.456 13.2133 169.082 13.68C168.709 14.1333 168.522 14.7667 168.522 15.58V19.88C168.522 20.2933 168.416 20.6133 168.202 20.84C167.989 21.0533 167.682 21.16 167.282 21.16C166.882 21.16 166.569 21.0533 166.342 20.84C166.129 20.6133 166.022 20.2933 166.022 19.88V15.14C166.022 14.3933 165.896 13.8467 165.642 13.5C165.402 13.1533 164.996 12.98 164.422 12.98C163.769 12.98 163.256 13.2133 162.882 13.68C162.509 14.1333 162.322 14.7667 162.322 15.58V19.88C162.322 20.7333 161.902 21.16 161.062 21.16ZM178.561 21.14C178.161 21.14 177.855 21.02 177.641 20.78C177.428 20.54 177.321 20.2067 177.321 19.78V12.44C177.321 12 177.428 11.6667 177.641 11.44C177.855 11.2 178.161 11.08 178.561 11.08C178.961 11.08 179.268 11.2 179.481 11.44C179.708 11.6667 179.821 12 179.821 12.44V19.78C179.821 20.2067 179.715 20.54 179.501 20.78C179.288 21.02 178.975 21.14 178.561 21.14ZM178.561 9.22C178.095 9.22 177.728 9.10667 177.461 8.88C177.208 8.64 177.081 8.31333 177.081 7.9C177.081 7.47333 177.208 7.14667 177.461 6.92C177.728 6.69333 178.095 6.58 178.561 6.58C179.041 6.58 179.408 6.69333 179.661 6.92C179.915 7.14667 180.041 7.47333 180.041 7.9C180.041 8.31333 179.915 8.64 179.661 8.88C179.408 9.10667 179.041 9.22 178.561 9.22ZM186.179 21.2C185.326 21.2 184.572 20.9933 183.919 20.58C183.279 20.1667 182.779 19.58 182.419 18.82C182.059 18.0467 181.879 17.14 181.879 16.1C181.879 15.0467 182.059 14.1467 182.419 13.4C182.779 12.64 183.279 12.0533 183.919 11.64C184.572 11.2267 185.326 11.02 186.179 11.02C186.992 11.02 187.699 11.22 188.299 11.62C188.912 12.02 189.326 12.5467 189.539 13.2H189.319V8C189.319 7.58667 189.426 7.27333 189.639 7.06C189.852 6.84667 190.159 6.74 190.559 6.74C190.959 6.74 191.266 6.84667 191.479 7.06C191.706 7.27333 191.819 7.58667 191.819 8V19.88C191.819 20.2933 191.712 20.6133 191.499 20.84C191.286 21.0533 190.979 21.16 190.579 21.16C190.179 21.16 189.872 21.0533 189.659 20.84C189.446 20.6133 189.339 20.2933 189.339 19.88V18.32L189.559 18.92C189.359 19.6133 188.952 20.1667 188.339 20.58C187.726 20.9933 187.006 21.2 186.179 21.2ZM186.879 19.3C187.372 19.3 187.806 19.18 188.179 18.94C188.552 18.7 188.839 18.3467 189.039 17.88C189.252 17.4 189.359 16.8067 189.359 16.1C189.359 15.0333 189.132 14.24 188.679 13.72C188.226 13.1867 187.626 12.92 186.879 12.92C186.386 12.92 185.952 13.04 185.579 13.28C185.206 13.5067 184.912 13.86 184.699 14.34C184.499 14.8067 184.399 15.3933 184.399 16.1C184.399 17.1533 184.626 17.9533 185.079 18.5C185.532 19.0333 186.132 19.3 186.879 19.3ZM195.551 12.86C195.311 12.86 195.098 12.7733 194.911 12.6C194.738 12.4267 194.638 12.1933 194.611 11.9L194.231 8.2C194.191 7.78667 194.298 7.44 194.551 7.16C194.805 6.88 195.138 6.74 195.551 6.74C195.818 6.74 196.051 6.80667 196.251 6.94C196.465 7.06 196.625 7.23333 196.731 7.46C196.838 7.67333 196.878 7.92 196.851 8.2L196.471 11.9C196.445 12.1933 196.345 12.4267 196.171 12.6C196.011 12.7733 195.805 12.86 195.551 12.86ZM202.855 21.2C202.281 21.2 201.675 21.14 201.035 21.02C200.395 20.9 199.821 20.6933 199.315 20.4C199.101 20.2667 198.948 20.1133 198.855 19.94C198.775 19.7533 198.741 19.5733 198.755 19.4C198.781 19.2133 198.848 19.0533 198.955 18.92C199.075 18.7867 199.221 18.7 199.395 18.66C199.581 18.62 199.781 18.6533 199.995 18.76C200.528 19.0133 201.028 19.1933 201.495 19.3C201.961 19.3933 202.421 19.44 202.875 19.44C203.515 19.44 203.988 19.3333 204.295 19.12C204.615 18.8933 204.775 18.6 204.775 18.24C204.775 17.9333 204.668 17.7 204.455 17.54C204.255 17.3667 203.948 17.24 203.535 17.16L201.535 16.78C200.708 16.62 200.075 16.32 199.635 15.88C199.208 15.4267 198.995 14.8467 198.995 14.14C198.995 13.5 199.168 12.9467 199.515 12.48C199.875 12.0133 200.368 11.6533 200.995 11.4C201.621 11.1467 202.341 11.02 203.155 11.02C203.741 11.02 204.288 11.0867 204.795 11.22C205.315 11.34 205.815 11.5333 206.295 11.8C206.495 11.9067 206.628 12.0467 206.695 12.22C206.775 12.3933 206.795 12.5733 206.755 12.76C206.715 12.9333 206.635 13.0933 206.515 13.24C206.395 13.3733 206.241 13.46 206.055 13.5C205.881 13.5267 205.681 13.4867 205.455 13.38C205.041 13.1667 204.641 13.0133 204.255 12.92C203.881 12.8267 203.521 12.78 203.175 12.78C202.521 12.78 202.035 12.8933 201.715 13.12C201.408 13.3467 201.255 13.6467 201.255 14.02C201.255 14.3 201.348 14.5333 201.535 14.72C201.721 14.9067 202.008 15.0333 202.395 15.1L204.395 15.48C205.261 15.64 205.915 15.9333 206.355 16.36C206.808 16.7867 207.035 17.36 207.035 18.08C207.035 19.0533 206.655 19.82 205.895 20.38C205.135 20.9267 204.121 21.2 202.855 21.2ZM215.71 21.16C215.31 21.16 215.003 21.0533 214.79 20.84C214.577 20.6133 214.47 20.2933 214.47 19.88V8C214.47 7.58667 214.577 7.27333 214.79 7.06C215.003 6.84667 215.31 6.74 215.71 6.74C216.11 6.74 216.417 6.84667 216.63 7.06C216.857 7.27333 216.97 7.58667 216.97 8V13.18H216.69C216.983 12.4733 217.437 11.94 218.05 11.58C218.677 11.2067 219.383 11.02 220.17 11.02C220.957 11.02 221.603 11.1667 222.11 11.46C222.617 11.7533 222.997 12.2 223.25 12.8C223.503 13.3867 223.63 14.1333 223.63 15.04V19.88C223.63 20.2933 223.523 20.6133 223.31 20.84C223.097 21.0533 222.79 21.16 222.39 21.16C221.99 21.16 221.677 21.0533 221.45 20.84C221.237 20.6133 221.13 20.2933 221.13 19.88V15.16C221.13 14.4 220.983 13.8467 220.69 13.5C220.41 13.1533 219.97 12.98 219.37 12.98C218.637 12.98 218.05 13.2133 217.61 13.68C217.183 14.1333 216.97 14.74 216.97 15.5V19.88C216.97 20.7333 216.55 21.16 215.71 21.16ZM230.629 21.2C229.616 21.2 228.736 20.9933 227.989 20.58C227.242 20.1667 226.662 19.58 226.249 18.82C225.836 18.0467 225.629 17.14 225.629 16.1C225.629 15.3133 225.742 14.6133 225.969 14C226.209 13.3733 226.549 12.84 226.989 12.4C227.429 11.9467 227.956 11.6067 228.569 11.38C229.182 11.14 229.869 11.02 230.629 11.02C231.642 11.02 232.522 11.2267 233.269 11.64C234.016 12.0533 234.596 12.64 235.009 13.4C235.422 14.16 235.629 15.06 235.629 16.1C235.629 16.8867 235.509 17.5933 235.269 18.22C235.042 18.8467 234.709 19.3867 234.269 19.84C233.829 20.28 233.302 20.62 232.689 20.86C232.076 21.0867 231.389 21.2 230.629 21.2ZM230.629 19.3C231.122 19.3 231.556 19.18 231.929 18.94C232.302 18.7 232.589 18.3467 232.789 17.88C233.002 17.4 233.109 16.8067 233.109 16.1C233.109 15.0333 232.882 14.24 232.429 13.72C231.976 13.1867 231.376 12.92 230.629 12.92C230.136 12.92 229.702 13.04 229.329 13.28C228.956 13.5067 228.662 13.86 228.449 14.34C228.249 14.8067 228.149 15.3933 228.149 16.1C228.149 17.1533 228.376 17.9533 228.829 18.5C229.282 19.0333 229.882 19.3 230.629 19.3ZM238.973 21.16C238.559 21.16 238.239 21.0533 238.013 20.84C237.799 20.6133 237.693 20.2933 237.693 19.88V12.32C237.693 11.9067 237.799 11.5933 238.013 11.38C238.226 11.1667 238.526 11.06 238.913 11.06C239.299 11.06 239.599 11.1667 239.813 11.38C240.026 11.5933 240.133 11.9067 240.133 12.32V13.58H239.933C240.119 12.78 240.486 12.1733 241.033 11.76C241.579 11.3467 242.306 11.1 243.213 11.02C243.493 10.9933 243.713 11.0667 243.873 11.24C244.046 11.4 244.146 11.6533 244.173 12C244.199 12.3333 244.119 12.6067 243.933 12.82C243.759 13.02 243.493 13.14 243.133 13.18L242.693 13.22C241.879 13.3 241.266 13.5533 240.853 13.98C240.439 14.3933 240.233 14.98 240.233 15.74V19.88C240.233 20.2933 240.126 20.6133 239.913 20.84C239.699 21.0533 239.386 21.16 238.973 21.16ZM246.765 21.14C246.365 21.14 246.058 21.02 245.845 20.78C245.631 20.54 245.525 20.2067 245.525 19.78V12.44C245.525 12 245.631 11.6667 245.845 11.44C246.058 11.2 246.365 11.08 246.765 11.08C247.165 11.08 247.471 11.2 247.685 11.44C247.911 11.6667 248.025 12 248.025 12.44V19.78C248.025 20.2067 247.918 20.54 247.705 20.78C247.491 21.02 247.178 21.14 246.765 21.14ZM246.765 9.22C246.298 9.22 245.931 9.10667 245.665 8.88C245.411 8.64 245.285 8.31333 245.285 7.9C245.285 7.47333 245.411 7.14667 245.665 6.92C245.931 6.69333 246.298 6.58 246.765 6.58C247.245 6.58 247.611 6.69333 247.865 6.92C248.118 7.14667 248.245 7.47333 248.245 7.9C248.245 8.31333 248.118 8.64 247.865 8.88C247.611 9.10667 247.245 9.22 246.765 9.22ZM251.222 21C250.969 21 250.756 20.94 250.582 20.82C250.422 20.6867 250.316 20.52 250.262 20.32C250.209 20.12 250.209 19.9067 250.262 19.68C250.329 19.44 250.456 19.2133 250.642 19L255.822 12.5V13.1H251.102C250.796 13.1 250.556 13.02 250.382 12.86C250.222 12.6867 250.142 12.4533 250.142 12.16C250.142 11.8533 250.222 11.62 250.382 11.46C250.556 11.3 250.796 11.22 251.102 11.22H257.022C257.316 11.22 257.556 11.2867 257.742 11.42C257.929 11.54 258.049 11.7 258.102 11.9C258.169 12.1 258.176 12.3133 258.122 12.54C258.069 12.7667 257.949 12.98 257.762 13.18L252.482 19.78V19.12H257.482C258.122 19.12 258.442 19.4333 258.442 20.06C258.442 20.3533 258.356 20.5867 258.182 20.76C258.022 20.92 257.789 21 257.482 21H251.222ZM264.36 21.2C263.346 21.2 262.466 20.9933 261.72 20.58C260.973 20.1667 260.393 19.58 259.98 18.82C259.566 18.0467 259.36 17.14 259.36 16.1C259.36 15.3133 259.473 14.6133 259.7 14C259.94 13.3733 260.28 12.84 260.72 12.4C261.16 11.9467 261.686 11.6067 262.3 11.38C262.913 11.14 263.6 11.02 264.36 11.02C265.373 11.02 266.253 11.2267 267 11.64C267.746 12.0533 268.326 12.64 268.74 13.4C269.153 14.16 269.36 15.06 269.36 16.1C269.36 16.8867 269.24 17.5933 269 18.22C268.773 18.8467 268.44 19.3867 268 19.84C267.56 20.28 267.033 20.62 266.42 20.86C265.806 21.0867 265.12 21.2 264.36 21.2ZM264.36 19.3C264.853 19.3 265.286 19.18 265.66 18.94C266.033 18.7 266.32 18.3467 266.52 17.88C266.733 17.4 266.84 16.8067 266.84 16.1C266.84 15.0333 266.613 14.24 266.16 13.72C265.706 13.1867 265.106 12.92 264.36 12.92C263.866 12.92 263.433 13.04 263.06 13.28C262.686 13.5067 262.393 13.86 262.18 14.34C261.98 14.8067 261.88 15.3933 261.88 16.1C261.88 17.1533 262.106 17.9533 262.56 18.5C263.013 19.0333 263.613 19.3 264.36 19.3ZM272.663 21.16C272.263 21.16 271.956 21.0533 271.743 20.84C271.53 20.6133 271.423 20.2933 271.423 19.88V12.32C271.423 11.9067 271.53 11.5933 271.743 11.38C271.956 11.1667 272.256 11.06 272.643 11.06C273.03 11.06 273.33 11.1667 273.543 11.38C273.756 11.5933 273.863 11.9067 273.863 12.32V13.68L273.643 13.18C273.936 12.4733 274.39 11.94 275.003 11.58C275.63 11.2067 276.336 11.02 277.123 11.02C277.91 11.02 278.556 11.1667 279.063 11.46C279.57 11.7533 279.95 12.2 280.203 12.8C280.456 13.3867 280.583 14.1333 280.583 15.04V19.88C280.583 20.2933 280.476 20.6133 280.263 20.84C280.05 21.0533 279.743 21.16 279.343 21.16C278.943 21.16 278.63 21.0533 278.403 20.84C278.19 20.6133 278.083 20.2933 278.083 19.88V15.16C278.083 14.4 277.936 13.8467 277.643 13.5C277.363 13.1533 276.923 12.98 276.323 12.98C275.59 12.98 275.003 13.2133 274.563 13.68C274.136 14.1333 273.923 14.74 273.923 15.5V19.88C273.923 20.7333 273.503 21.16 272.663 21.16ZM287.602 21.2C286.736 21.2 286.009 21.0533 285.422 20.76C284.849 20.4667 284.422 20.04 284.142 19.48C283.862 18.9067 283.722 18.2 283.722 17.36V13.1H282.682C282.362 13.1 282.116 13.02 281.942 12.86C281.769 12.6867 281.682 12.4533 281.682 12.16C281.682 11.8533 281.769 11.62 281.942 11.46C282.116 11.3 282.362 11.22 282.682 11.22H283.722V9.4C283.722 8.98667 283.829 8.67333 284.042 8.46C284.269 8.24667 284.582 8.14 284.982 8.14C285.382 8.14 285.689 8.24667 285.902 8.46C286.116 8.67333 286.222 8.98667 286.222 9.4V11.22H288.342C288.662 11.22 288.909 11.3 289.082 11.46C289.256 11.62 289.342 11.8533 289.342 12.16C289.342 12.4533 289.256 12.6867 289.082 12.86C288.909 13.02 288.662 13.1 288.342 13.1H286.222V17.22C286.222 17.86 286.362 18.34 286.642 18.66C286.922 18.98 287.376 19.14 288.002 19.14C288.229 19.14 288.429 19.12 288.602 19.08C288.776 19.04 288.929 19.0133 289.062 19C289.222 18.9867 289.356 19.04 289.462 19.16C289.569 19.2667 289.622 19.4933 289.622 19.84C289.622 20.1067 289.576 20.3467 289.482 20.56C289.402 20.76 289.249 20.9 289.022 20.98C288.849 21.0333 288.622 21.08 288.342 21.12C288.062 21.1733 287.816 21.2 287.602 21.2ZM294.018 21.2C293.311 21.2 292.678 21.0667 292.118 20.8C291.571 20.52 291.138 20.1467 290.818 19.68C290.511 19.2133 290.358 18.6867 290.358 18.1C290.358 17.38 290.545 16.8133 290.918 16.4C291.291 15.9733 291.898 15.6667 292.738 15.48C293.578 15.2933 294.705 15.2 296.118 15.2H297.118V16.64H296.138C295.311 16.64 294.651 16.68 294.158 16.76C293.665 16.84 293.311 16.98 293.098 17.18C292.898 17.3667 292.798 17.6333 292.798 17.98C292.798 18.42 292.951 18.78 293.258 19.06C293.565 19.34 293.991 19.48 294.538 19.48C294.978 19.48 295.365 19.38 295.698 19.18C296.045 18.9667 296.318 18.68 296.518 18.32C296.718 17.96 296.818 17.5467 296.818 17.08V14.78C296.818 14.1133 296.671 13.6333 296.378 13.34C296.085 13.0467 295.591 12.9 294.898 12.9C294.511 12.9 294.091 12.9467 293.638 13.04C293.198 13.1333 292.731 13.2933 292.238 13.52C291.985 13.64 291.758 13.6733 291.558 13.62C291.371 13.5667 291.225 13.46 291.118 13.3C291.011 13.1267 290.958 12.94 290.958 12.74C290.958 12.54 291.011 12.3467 291.118 12.16C291.225 11.96 291.405 11.8133 291.658 11.72C292.271 11.4667 292.858 11.2867 293.418 11.18C293.991 11.0733 294.511 11.02 294.978 11.02C295.938 11.02 296.725 11.1667 297.338 11.46C297.965 11.7533 298.431 12.2 298.738 12.8C299.045 13.3867 299.198 14.1467 299.198 15.08V19.88C299.198 20.2933 299.098 20.6133 298.898 20.84C298.698 21.0533 298.411 21.16 298.038 21.16C297.665 21.16 297.371 21.0533 297.158 20.84C296.958 20.6133 296.858 20.2933 296.858 19.88V18.92H297.018C296.925 19.3867 296.738 19.7933 296.458 20.14C296.191 20.4733 295.851 20.7333 295.438 20.92C295.025 21.1067 294.551 21.2 294.018 21.2ZM305.076 21.2C303.969 21.2 303.136 20.8867 302.576 20.26C302.016 19.62 301.736 18.6867 301.736 17.46V8C301.736 7.58667 301.842 7.27333 302.056 7.06C302.269 6.84667 302.576 6.74 302.976 6.74C303.376 6.74 303.682 6.84667 303.896 7.06C304.122 7.27333 304.236 7.58667 304.236 8V17.34C304.236 17.9533 304.362 18.4067 304.616 18.7C304.882 18.9933 305.256 19.14 305.736 19.14C305.842 19.14 305.942 19.14 306.036 19.14C306.129 19.1267 306.222 19.1133 306.316 19.1C306.502 19.0733 306.629 19.1267 306.696 19.26C306.762 19.38 306.796 19.6333 306.796 20.02C306.796 20.3533 306.729 20.6133 306.596 20.8C306.462 20.9867 306.242 21.1 305.936 21.14C305.802 21.1533 305.662 21.1667 305.516 21.18C305.369 21.1933 305.222 21.2 305.076 21.2ZM318.072 21.2C317.045 21.2 316.152 20.9933 315.392 20.58C314.632 20.1533 314.045 19.5533 313.632 18.78C313.219 18.0067 313.012 17.1 313.012 16.06C313.012 15.2733 313.125 14.5733 313.352 13.96C313.592 13.3333 313.932 12.8067 314.372 12.38C314.812 11.94 315.345 11.6067 315.972 11.38C316.599 11.14 317.299 11.02 318.072 11.02C318.512 11.02 318.985 11.08 319.492 11.2C320.012 11.32 320.499 11.52 320.952 11.8C321.165 11.9333 321.305 12.0933 321.372 12.28C321.439 12.4667 321.452 12.66 321.412 12.86C321.372 13.0467 321.285 13.2133 321.152 13.36C321.032 13.4933 320.879 13.58 320.692 13.62C320.505 13.6467 320.299 13.6 320.072 13.48C319.779 13.3067 319.479 13.18 319.172 13.1C318.865 13.0067 318.572 12.96 318.292 12.96C317.852 12.96 317.465 13.0333 317.132 13.18C316.799 13.3133 316.512 13.5133 316.272 13.78C316.045 14.0333 315.872 14.3533 315.752 14.74C315.632 15.1267 315.572 15.5733 315.572 16.08C315.572 17.0667 315.805 17.8467 316.272 18.42C316.752 18.98 317.425 19.26 318.292 19.26C318.572 19.26 318.859 19.22 319.152 19.14C319.459 19.06 319.765 18.9333 320.072 18.76C320.299 18.64 320.499 18.6 320.672 18.64C320.859 18.68 321.012 18.7733 321.132 18.92C321.252 19.0533 321.325 19.22 321.352 19.42C321.379 19.6067 321.352 19.7933 321.272 19.98C321.205 20.1667 321.072 20.32 320.872 20.44C320.432 20.7067 319.965 20.9 319.472 21.02C318.979 21.14 318.512 21.2 318.072 21.2ZM324.266 21.16C323.852 21.16 323.532 21.0533 323.306 20.84C323.092 20.6133 322.986 20.2933 322.986 19.88V12.32C322.986 11.9067 323.092 11.5933 323.306 11.38C323.519 11.1667 323.819 11.06 324.206 11.06C324.592 11.06 324.892 11.1667 325.106 11.38C325.319 11.5933 325.426 11.9067 325.426 12.32V13.58H325.226C325.412 12.78 325.779 12.1733 326.326 11.76C326.872 11.3467 327.599 11.1 328.506 11.02C328.786 10.9933 329.006 11.0667 329.166 11.24C329.339 11.4 329.439 11.6533 329.466 12C329.492 12.3333 329.412 12.6067 329.226 12.82C329.052 13.02 328.786 13.14 328.426 13.18L327.986 13.22C327.172 13.3 326.559 13.5533 326.146 13.98C325.732 14.3933 325.526 14.98 325.526 15.74V19.88C325.526 20.2933 325.419 20.6133 325.206 20.84C324.992 21.0533 324.679 21.16 324.266 21.16ZM335.121 21.2C334.108 21.2 333.228 20.9933 332.481 20.58C331.735 20.1667 331.155 19.58 330.741 18.82C330.328 18.0467 330.121 17.14 330.121 16.1C330.121 15.3133 330.235 14.6133 330.461 14C330.701 13.3733 331.041 12.84 331.481 12.4C331.921 11.9467 332.448 11.6067 333.061 11.38C333.675 11.14 334.361 11.02 335.121 11.02C336.135 11.02 337.015 11.2267 337.761 11.64C338.508 12.0533 339.088 12.64 339.501 13.4C339.915 14.16 340.121 15.06 340.121 16.1C340.121 16.8867 340.001 17.5933 339.761 18.22C339.535 18.8467 339.201 19.3867 338.761 19.84C338.321 20.28 337.795 20.62 337.181 20.86C336.568 21.0867 335.881 21.2 335.121 21.2ZM335.121 19.3C335.615 19.3 336.048 19.18 336.421 18.94C336.795 18.7 337.081 18.3467 337.281 17.88C337.495 17.4 337.601 16.8067 337.601 16.1C337.601 15.0333 337.375 14.24 336.921 13.72C336.468 13.1867 335.868 12.92 335.121 12.92C334.628 12.92 334.195 13.04 333.821 13.28C333.448 13.5067 333.155 13.86 332.941 14.34C332.741 14.8067 332.641 15.3933 332.641 16.1C332.641 17.1533 332.868 17.9533 333.321 18.5C333.775 19.0333 334.375 19.3 335.121 19.3ZM345.765 21.2C345.191 21.2 344.585 21.14 343.945 21.02C343.305 20.9 342.731 20.6933 342.225 20.4C342.011 20.2667 341.858 20.1133 341.765 19.94C341.685 19.7533 341.651 19.5733 341.665 19.4C341.691 19.2133 341.758 19.0533 341.865 18.92C341.985 18.7867 342.131 18.7 342.305 18.66C342.491 18.62 342.691 18.6533 342.905 18.76C343.438 19.0133 343.938 19.1933 344.405 19.3C344.871 19.3933 345.331 19.44 345.785 19.44C346.425 19.44 346.898 19.3333 347.205 19.12C347.525 18.8933 347.685 18.6 347.685 18.24C347.685 17.9333 347.578 17.7 347.365 17.54C347.165 17.3667 346.858 17.24 346.445 17.16L344.445 16.78C343.618 16.62 342.985 16.32 342.545 15.88C342.118 15.4267 341.905 14.8467 341.905 14.14C341.905 13.5 342.078 12.9467 342.425 12.48C342.785 12.0133 343.278 11.6533 343.905 11.4C344.531 11.1467 345.251 11.02 346.065 11.02C346.651 11.02 347.198 11.0867 347.705 11.22C348.225 11.34 348.725 11.5333 349.205 11.8C349.405 11.9067 349.538 12.0467 349.605 12.22C349.685 12.3933 349.705 12.5733 349.665 12.76C349.625 12.9333 349.545 13.0933 349.425 13.24C349.305 13.3733 349.151 13.46 348.965 13.5C348.791 13.5267 348.591 13.4867 348.365 13.38C347.951 13.1667 347.551 13.0133 347.165 12.92C346.791 12.8267 346.431 12.78 346.085 12.78C345.431 12.78 344.945 12.8933 344.625 13.12C344.318 13.3467 344.165 13.6467 344.165 14.02C344.165 14.3 344.258 14.5333 344.445 14.72C344.631 14.9067 344.918 15.0333 345.305 15.1L347.305 15.48C348.171 15.64 348.825 15.9333 349.265 16.36C349.718 16.7867 349.945 17.36 349.945 18.08C349.945 19.0533 349.565 19.82 348.805 20.38C348.045 20.9267 347.031 21.2 345.765 21.2ZM355.53 21.2C354.957 21.2 354.35 21.14 353.71 21.02C353.07 20.9 352.497 20.6933 351.99 20.4C351.777 20.2667 351.624 20.1133 351.53 19.94C351.45 19.7533 351.417 19.5733 351.43 19.4C351.457 19.2133 351.524 19.0533 351.63 18.92C351.75 18.7867 351.897 18.7 352.07 18.66C352.257 18.62 352.457 18.6533 352.67 18.76C353.204 19.0133 353.704 19.1933 354.17 19.3C354.637 19.3933 355.097 19.44 355.55 19.44C356.19 19.44 356.664 19.3333 356.97 19.12C357.29 18.8933 357.45 18.6 357.45 18.24C357.45 17.9333 357.344 17.7 357.13 17.54C356.93 17.3667 356.624 17.24 356.21 17.16L354.21 16.78C353.384 16.62 352.75 16.32 352.31 15.88C351.884 15.4267 351.67 14.8467 351.67 14.14C351.67 13.5 351.844 12.9467 352.19 12.48C352.55 12.0133 353.044 11.6533 353.67 11.4C354.297 11.1467 355.017 11.02 355.83 11.02C356.417 11.02 356.964 11.0867 357.47 11.22C357.99 11.34 358.49 11.5333 358.97 11.8C359.17 11.9067 359.304 12.0467 359.37 12.22C359.45 12.3933 359.47 12.5733 359.43 12.76C359.39 12.9333 359.31 13.0933 359.19 13.24C359.07 13.3733 358.917 13.46 358.73 13.5C358.557 13.5267 358.357 13.4867 358.13 13.38C357.717 13.1667 357.317 13.0133 356.93 12.92C356.557 12.8267 356.197 12.78 355.85 12.78C355.197 12.78 354.71 12.8933 354.39 13.12C354.084 13.3467 353.93 13.6467 353.93 14.02C353.93 14.3 354.024 14.5333 354.21 14.72C354.397 14.9067 354.684 15.0333 355.07 15.1L357.07 15.48C357.937 15.64 358.59 15.9333 359.03 16.36C359.484 16.7867 359.71 17.36 359.71 18.08C359.71 19.0533 359.33 19.82 358.57 20.38C357.81 20.9267 356.797 21.2 355.53 21.2ZM370.726 21.2C370.152 21.2 369.546 21.14 368.906 21.02C368.266 20.9 367.692 20.6933 367.186 20.4C366.972 20.2667 366.819 20.1133 366.726 19.94C366.646 19.7533 366.612 19.5733 366.626 19.4C366.652 19.2133 366.719 19.0533 366.826 18.92C366.946 18.7867 367.092 18.7 367.266 18.66C367.452 18.62 367.652 18.6533 367.866 18.76C368.399 19.0133 368.899 19.1933 369.366 19.3C369.832 19.3933 370.292 19.44 370.746 19.44C371.386 19.44 371.859 19.3333 372.166 19.12C372.486 18.8933 372.646 18.6 372.646 18.24C372.646 17.9333 372.539 17.7 372.326 17.54C372.126 17.3667 371.819 17.24 371.406 17.16L369.406 16.78C368.579 16.62 367.946 16.32 367.506 15.88C367.079 15.4267 366.866 14.8467 366.866 14.14C366.866 13.5 367.039 12.9467 367.386 12.48C367.746 12.0133 368.239 11.6533 368.866 11.4C369.492 11.1467 370.212 11.02 371.026 11.02C371.612 11.02 372.159 11.0867 372.666 11.22C373.186 11.34 373.686 11.5333 374.166 11.8C374.366 11.9067 374.499 12.0467 374.566 12.22C374.646 12.3933 374.666 12.5733 374.626 12.76C374.586 12.9333 374.506 13.0933 374.386 13.24C374.266 13.3733 374.112 13.46 373.926 13.5C373.752 13.5267 373.552 13.4867 373.326 13.38C372.912 13.1667 372.512 13.0133 372.126 12.92C371.752 12.8267 371.392 12.78 371.046 12.78C370.392 12.78 369.906 12.8933 369.586 13.12C369.279 13.3467 369.126 13.6467 369.126 14.02C369.126 14.3 369.219 14.5333 369.406 14.72C369.592 14.9067 369.879 15.0333 370.266 15.1L372.266 15.48C373.132 15.64 373.786 15.9333 374.226 16.36C374.679 16.7867 374.906 17.36 374.906 18.08C374.906 19.0533 374.526 19.82 373.766 20.38C373.006 20.9267 371.992 21.2 370.726 21.2ZM381.731 21.2C380.625 21.2 379.671 20.9933 378.871 20.58C378.071 20.1667 377.451 19.58 377.011 18.82C376.585 18.06 376.371 17.16 376.371 16.12C376.371 15.1067 376.578 14.22 376.991 13.46C377.418 12.7 377.998 12.1067 378.731 11.68C379.478 11.24 380.325 11.02 381.271 11.02C381.965 11.02 382.585 11.1333 383.131 11.36C383.691 11.5867 384.165 11.9133 384.551 12.34C384.951 12.7667 385.251 13.2867 385.451 13.9C385.665 14.5 385.771 15.18 385.771 15.94C385.771 16.18 385.685 16.3667 385.511 16.5C385.351 16.62 385.118 16.68 384.811 16.68H378.391V15.24H384.011L383.691 15.54C383.691 14.9267 383.598 14.4133 383.411 14C383.238 13.5867 382.978 13.2733 382.631 13.06C382.298 12.8333 381.878 12.72 381.371 12.72C380.811 12.72 380.331 12.8533 379.931 13.12C379.545 13.3733 379.245 13.74 379.031 14.22C378.831 14.6867 378.731 15.2467 378.731 15.9V16.04C378.731 17.1333 378.985 17.9533 379.491 18.5C380.011 19.0333 380.771 19.3 381.771 19.3C382.118 19.3 382.505 19.26 382.931 19.18C383.371 19.0867 383.785 18.9333 384.171 18.72C384.451 18.56 384.698 18.4933 384.911 18.52C385.125 18.5333 385.291 18.6067 385.411 18.74C385.545 18.8733 385.625 19.04 385.651 19.24C385.678 19.4267 385.638 19.62 385.531 19.82C385.438 20.02 385.271 20.1933 385.031 20.34C384.565 20.6333 384.025 20.8533 383.411 21C382.811 21.1333 382.251 21.2 381.731 21.2ZM392.271 21.2C391.245 21.2 390.351 20.9933 389.591 20.58C388.831 20.1533 388.245 19.5533 387.831 18.78C387.418 18.0067 387.211 17.1 387.211 16.06C387.211 15.2733 387.325 14.5733 387.551 13.96C387.791 13.3333 388.131 12.8067 388.571 12.38C389.011 11.94 389.545 11.6067 390.171 11.38C390.798 11.14 391.498 11.02 392.271 11.02C392.711 11.02 393.185 11.08 393.691 11.2C394.211 11.32 394.698 11.52 395.151 11.8C395.365 11.9333 395.505 12.0933 395.571 12.28C395.638 12.4667 395.651 12.66 395.611 12.86C395.571 13.0467 395.485 13.2133 395.351 13.36C395.231 13.4933 395.078 13.58 394.891 13.62C394.705 13.6467 394.498 13.6 394.271 13.48C393.978 13.3067 393.678 13.18 393.371 13.1C393.065 13.0067 392.771 12.96 392.491 12.96C392.051 12.96 391.665 13.0333 391.331 13.18C390.998 13.3133 390.711 13.5133 390.471 13.78C390.245 14.0333 390.071 14.3533 389.951 14.74C389.831 15.1267 389.771 15.5733 389.771 16.08C389.771 17.0667 390.005 17.8467 390.471 18.42C390.951 18.98 391.625 19.26 392.491 19.26C392.771 19.26 393.058 19.22 393.351 19.14C393.658 19.06 393.965 18.9333 394.271 18.76C394.498 18.64 394.698 18.6 394.871 18.64C395.058 18.68 395.211 18.7733 395.331 18.92C395.451 19.0533 395.525 19.22 395.551 19.42C395.578 19.6067 395.551 19.7933 395.471 19.98C395.405 20.1667 395.271 20.32 395.071 20.44C394.631 20.7067 394.165 20.9 393.671 21.02C393.178 21.14 392.711 21.2 392.271 21.2ZM401.704 21.2C400.837 21.2 400.11 21.0533 399.524 20.76C398.95 20.4667 398.524 20.04 398.244 19.48C397.964 18.9067 397.824 18.2 397.824 17.36V13.1H396.784C396.464 13.1 396.217 13.02 396.044 12.86C395.87 12.6867 395.784 12.4533 395.784 12.16C395.784 11.8533 395.87 11.62 396.044 11.46C396.217 11.3 396.464 11.22 396.784 11.22H397.824V9.4C397.824 8.98667 397.93 8.67333 398.144 8.46C398.37 8.24667 398.684 8.14 399.084 8.14C399.484 8.14 399.79 8.24667 400.004 8.46C400.217 8.67333 400.324 8.98667 400.324 9.4V11.22H402.444C402.764 11.22 403.01 11.3 403.184 11.46C403.357 11.62 403.444 11.8533 403.444 12.16C403.444 12.4533 403.357 12.6867 403.184 12.86C403.01 13.02 402.764 13.1 402.444 13.1H400.324V17.22C400.324 17.86 400.464 18.34 400.744 18.66C401.024 18.98 401.477 19.14 402.104 19.14C402.33 19.14 402.53 19.12 402.704 19.08C402.877 19.04 403.03 19.0133 403.164 19C403.324 18.9867 403.457 19.04 403.564 19.16C403.67 19.2667 403.724 19.4933 403.724 19.84C403.724 20.1067 403.677 20.3467 403.584 20.56C403.504 20.76 403.35 20.9 403.124 20.98C402.95 21.0333 402.724 21.08 402.444 21.12C402.164 21.1733 401.917 21.2 401.704 21.2ZM406.394 21.14C405.994 21.14 405.687 21.02 405.474 20.78C405.26 20.54 405.154 20.2067 405.154 19.78V12.44C405.154 12 405.26 11.6667 405.474 11.44C405.687 11.2 405.994 11.08 406.394 11.08C406.794 11.08 407.1 11.2 407.314 11.44C407.54 11.6667 407.654 12 407.654 12.44V19.78C407.654 20.2067 407.547 20.54 407.334 20.78C407.12 21.02 406.807 21.14 406.394 21.14ZM406.394 9.22C405.927 9.22 405.56 9.10667 405.294 8.88C405.04 8.64 404.914 8.31333 404.914 7.9C404.914 7.47333 405.04 7.14667 405.294 6.92C405.56 6.69333 405.927 6.58 406.394 6.58C406.874 6.58 407.24 6.69333 407.494 6.92C407.747 7.14667 407.874 7.47333 407.874 7.9C407.874 8.31333 407.747 8.64 407.494 8.88C407.24 9.10667 406.874 9.22 406.394 9.22ZM414.711 21.2C413.698 21.2 412.818 20.9933 412.071 20.58C411.325 20.1667 410.745 19.58 410.331 18.82C409.918 18.0467 409.711 17.14 409.711 16.1C409.711 15.3133 409.825 14.6133 410.051 14C410.291 13.3733 410.631 12.84 411.071 12.4C411.511 11.9467 412.038 11.6067 412.651 11.38C413.265 11.14 413.951 11.02 414.711 11.02C415.725 11.02 416.605 11.2267 417.351 11.64C418.098 12.0533 418.678 12.64 419.091 13.4C419.505 14.16 419.711 15.06 419.711 16.1C419.711 16.8867 419.591 17.5933 419.351 18.22C419.125 18.8467 418.791 19.3867 418.351 19.84C417.911 20.28 417.385 20.62 416.771 20.86C416.158 21.0867 415.471 21.2 414.711 21.2ZM414.711 19.3C415.205 19.3 415.638 19.18 416.011 18.94C416.385 18.7 416.671 18.3467 416.871 17.88C417.085 17.4 417.191 16.8067 417.191 16.1C417.191 15.0333 416.965 14.24 416.511 13.72C416.058 13.1867 415.458 12.92 414.711 12.92C414.218 12.92 413.785 13.04 413.411 13.28C413.038 13.5067 412.745 13.86 412.531 14.34C412.331 14.8067 412.231 15.3933 412.231 16.1C412.231 17.1533 412.458 17.9533 412.911 18.5C413.365 19.0333 413.965 19.3 414.711 19.3ZM423.015 21.16C422.615 21.16 422.308 21.0533 422.095 20.84C421.881 20.6133 421.775 20.2933 421.775 19.88V12.32C421.775 11.9067 421.881 11.5933 422.095 11.38C422.308 11.1667 422.608 11.06 422.995 11.06C423.381 11.06 423.681 11.1667 423.895 11.38C424.108 11.5933 424.215 11.9067 424.215 12.32V13.68L423.995 13.18C424.288 12.4733 424.741 11.94 425.355 11.58C425.981 11.2067 426.688 11.02 427.475 11.02C428.261 11.02 428.908 11.1667 429.415 11.46C429.921 11.7533 430.301 12.2 430.555 12.8C430.808 13.3867 430.935 14.1333 430.935 15.04V19.88C430.935 20.2933 430.828 20.6133 430.615 20.84C430.401 21.0533 430.095 21.16 429.695 21.16C429.295 21.16 428.981 21.0533 428.755 20.84C428.541 20.6133 428.435 20.2933 428.435 19.88V15.16C428.435 14.4 428.288 13.8467 427.995 13.5C427.715 13.1533 427.275 12.98 426.675 12.98C425.941 12.98 425.355 13.2133 424.915 13.68C424.488 14.1333 424.275 14.74 424.275 15.5V19.88C424.275 20.7333 423.855 21.16 423.015 21.16ZM440.144 21.14C439.744 21.14 439.437 21.02 439.224 20.78C439.01 20.54 438.904 20.2067 438.904 19.78V12.44C438.904 12 439.01 11.6667 439.224 11.44C439.437 11.2 439.744 11.08 440.144 11.08C440.544 11.08 440.85 11.2 441.064 11.44C441.29 11.6667 441.404 12 441.404 12.44V19.78C441.404 20.2067 441.297 20.54 441.084 20.78C440.87 21.02 440.557 21.14 440.144 21.14ZM440.144 9.22C439.677 9.22 439.31 9.10667 439.044 8.88C438.79 8.64 438.664 8.31333 438.664 7.9C438.664 7.47333 438.79 7.14667 439.044 6.92C439.31 6.69333 439.677 6.58 440.144 6.58C440.624 6.58 440.99 6.69333 441.244 6.92C441.497 7.14667 441.624 7.47333 441.624 7.9C441.624 8.31333 441.497 8.64 441.244 8.88C440.99 9.10667 440.624 9.22 440.144 9.22ZM447.581 21.2C447.008 21.2 446.401 21.14 445.761 21.02C445.121 20.9 444.548 20.6933 444.041 20.4C443.828 20.2667 443.675 20.1133 443.581 19.94C443.501 19.7533 443.468 19.5733 443.481 19.4C443.508 19.2133 443.575 19.0533 443.681 18.92C443.801 18.7867 443.948 18.7 444.121 18.66C444.308 18.62 444.508 18.6533 444.721 18.76C445.255 19.0133 445.755 19.1933 446.221 19.3C446.688 19.3933 447.148 19.44 447.601 19.44C448.241 19.44 448.715 19.3333 449.021 19.12C449.341 18.8933 449.501 18.6 449.501 18.24C449.501 17.9333 449.395 17.7 449.181 17.54C448.981 17.3667 448.675 17.24 448.261 17.16L446.261 16.78C445.435 16.62 444.801 16.32 444.361 15.88C443.935 15.4267 443.721 14.8467 443.721 14.14C443.721 13.5 443.895 12.9467 444.241 12.48C444.601 12.0133 445.095 11.6533 445.721 11.4C446.348 11.1467 447.068 11.02 447.881 11.02C448.468 11.02 449.015 11.0867 449.521 11.22C450.041 11.34 450.541 11.5333 451.021 11.8C451.221 11.9067 451.355 12.0467 451.421 12.22C451.501 12.3933 451.521 12.5733 451.481 12.76C451.441 12.9333 451.361 13.0933 451.241 13.24C451.121 13.3733 450.968 13.46 450.781 13.5C450.608 13.5267 450.408 13.4867 450.181 13.38C449.768 13.1667 449.368 13.0133 448.981 12.92C448.608 12.8267 448.248 12.78 447.901 12.78C447.248 12.78 446.761 12.8933 446.441 13.12C446.135 13.3467 445.981 13.6467 445.981 14.02C445.981 14.3 446.075 14.5333 446.261 14.72C446.448 14.9067 446.735 15.0333 447.121 15.1L449.121 15.48C449.988 15.64 450.641 15.9333 451.081 16.36C451.535 16.7867 451.761 17.36 451.761 18.08C451.761 19.0533 451.381 19.82 450.621 20.38C449.861 20.9267 448.848 21.2 447.581 21.2ZM462.416 21.2C461.71 21.2 461.076 21.0667 460.516 20.8C459.97 20.52 459.536 20.1467 459.216 19.68C458.91 19.2133 458.756 18.6867 458.756 18.1C458.756 17.38 458.943 16.8133 459.316 16.4C459.69 15.9733 460.296 15.6667 461.136 15.48C461.976 15.2933 463.103 15.2 464.516 15.2H465.516V16.64H464.536C463.71 16.64 463.05 16.68 462.556 16.76C462.063 16.84 461.71 16.98 461.496 17.18C461.296 17.3667 461.196 17.6333 461.196 17.98C461.196 18.42 461.35 18.78 461.656 19.06C461.963 19.34 462.39 19.48 462.936 19.48C463.376 19.48 463.763 19.38 464.096 19.18C464.443 18.9667 464.716 18.68 464.916 18.32C465.116 17.96 465.216 17.5467 465.216 17.08V14.78C465.216 14.1133 465.07 13.6333 464.776 13.34C464.483 13.0467 463.99 12.9 463.296 12.9C462.91 12.9 462.49 12.9467 462.036 13.04C461.596 13.1333 461.13 13.2933 460.636 13.52C460.383 13.64 460.156 13.6733 459.956 13.62C459.77 13.5667 459.623 13.46 459.516 13.3C459.41 13.1267 459.356 12.94 459.356 12.74C459.356 12.54 459.41 12.3467 459.516 12.16C459.623 11.96 459.803 11.8133 460.056 11.72C460.67 11.4667 461.256 11.2867 461.816 11.18C462.39 11.0733 462.91 11.02 463.376 11.02C464.336 11.02 465.123 11.1667 465.736 11.46C466.363 11.7533 466.83 12.2 467.136 12.8C467.443 13.3867 467.596 14.1467 467.596 15.08V19.88C467.596 20.2933 467.496 20.6133 467.296 20.84C467.096 21.0533 466.81 21.16 466.436 21.16C466.063 21.16 465.77 21.0533 465.556 20.84C465.356 20.6133 465.256 20.2933 465.256 19.88V18.92H465.416C465.323 19.3867 465.136 19.7933 464.856 20.14C464.59 20.4733 464.25 20.7333 463.836 20.92C463.423 21.1067 462.95 21.2 462.416 21.2Z" fill="#444444"/>
<rect x="475" width="98" height="28" rx="5" fill="#FFF2E5"/>
<path d="M482.83 21.16C482.417 21.16 482.097 21.0533 481.87 20.84C481.657 20.6133 481.55 20.2933 481.55 19.88V12.32C481.55 11.9067 481.657 11.5933 481.87 11.38C482.083 11.1667 482.383 11.06 482.77 11.06C483.157 11.06 483.457 11.1667 483.67 11.38C483.883 11.5933 483.99 11.9067 483.99 12.32V13.58H483.79C483.977 12.78 484.343 12.1733 484.89 11.76C485.437 11.3467 486.163 11.1 487.07 11.02C487.35 10.9933 487.57 11.0667 487.73 11.24C487.903 11.4 488.003 11.6533 488.03 12C488.057 12.3333 487.977 12.6067 487.79 12.82C487.617 13.02 487.35 13.14 486.99 13.18L486.55 13.22C485.737 13.3 485.123 13.5533 484.71 13.98C484.297 14.3933 484.09 14.98 484.09 15.74V19.88C484.09 20.2933 483.983 20.6133 483.77 20.84C483.557 21.0533 483.243 21.16 482.83 21.16ZM494.046 21.2C492.939 21.2 491.986 20.9933 491.186 20.58C490.386 20.1667 489.766 19.58 489.326 18.82C488.899 18.06 488.686 17.16 488.686 16.12C488.686 15.1067 488.892 14.22 489.306 13.46C489.732 12.7 490.312 12.1067 491.046 11.68C491.792 11.24 492.639 11.02 493.586 11.02C494.279 11.02 494.899 11.1333 495.446 11.36C496.006 11.5867 496.479 11.9133 496.866 12.34C497.266 12.7667 497.566 13.2867 497.766 13.9C497.979 14.5 498.086 15.18 498.086 15.94C498.086 16.18 497.999 16.3667 497.826 16.5C497.666 16.62 497.432 16.68 497.126 16.68H490.706V15.24H496.326L496.006 15.54C496.006 14.9267 495.912 14.4133 495.726 14C495.552 13.5867 495.292 13.2733 494.946 13.06C494.612 12.8333 494.192 12.72 493.686 12.72C493.126 12.72 492.646 12.8533 492.246 13.12C491.859 13.3733 491.559 13.74 491.346 14.22C491.146 14.6867 491.046 15.2467 491.046 15.9V16.04C491.046 17.1333 491.299 17.9533 491.806 18.5C492.326 19.0333 493.086 19.3 494.086 19.3C494.432 19.3 494.819 19.26 495.246 19.18C495.686 19.0867 496.099 18.9333 496.486 18.72C496.766 18.56 497.012 18.4933 497.226 18.52C497.439 18.5333 497.606 18.6067 497.726 18.74C497.859 18.8733 497.939 19.04 497.966 19.24C497.992 19.4267 497.952 19.62 497.846 19.82C497.752 20.02 497.586 20.1933 497.346 20.34C496.879 20.6333 496.339 20.8533 495.726 21C495.126 21.1333 494.566 21.2 494.046 21.2ZM504.586 21.2C503.559 21.2 502.666 20.9933 501.906 20.58C501.146 20.1533 500.559 19.5533 500.146 18.78C499.732 18.0067 499.526 17.1 499.526 16.06C499.526 15.2733 499.639 14.5733 499.866 13.96C500.106 13.3333 500.446 12.8067 500.886 12.38C501.326 11.94 501.859 11.6067 502.486 11.38C503.112 11.14 503.812 11.02 504.586 11.02C505.026 11.02 505.499 11.08 506.006 11.2C506.526 11.32 507.012 11.52 507.466 11.8C507.679 11.9333 507.819 12.0933 507.886 12.28C507.952 12.4667 507.966 12.66 507.926 12.86C507.886 13.0467 507.799 13.2133 507.666 13.36C507.546 13.4933 507.392 13.58 507.206 13.62C507.019 13.6467 506.812 13.6 506.586 13.48C506.292 13.3067 505.992 13.18 505.686 13.1C505.379 13.0067 505.086 12.96 504.806 12.96C504.366 12.96 503.979 13.0333 503.646 13.18C503.312 13.3133 503.026 13.5133 502.786 13.78C502.559 14.0333 502.386 14.3533 502.266 14.74C502.146 15.1267 502.086 15.5733 502.086 16.08C502.086 17.0667 502.319 17.8467 502.786 18.42C503.266 18.98 503.939 19.26 504.806 19.26C505.086 19.26 505.372 19.22 505.666 19.14C505.972 19.06 506.279 18.9333 506.586 18.76C506.812 18.64 507.012 18.6 507.186 18.64C507.372 18.68 507.526 18.7733 507.646 18.92C507.766 19.0533 507.839 19.22 507.866 19.42C507.892 19.6067 507.866 19.7933 507.786 19.98C507.719 20.1667 507.586 20.32 507.386 20.44C506.946 20.7067 506.479 20.9 505.986 21.02C505.492 21.14 505.026 21.2 504.586 21.2ZM514.018 21.2C513.152 21.2 512.425 21.0533 511.838 20.76C511.265 20.4667 510.838 20.04 510.558 19.48C510.278 18.9067 510.138 18.2 510.138 17.36V13.1H509.098C508.778 13.1 508.532 13.02 508.358 12.86C508.185 12.6867 508.098 12.4533 508.098 12.16C508.098 11.8533 508.185 11.62 508.358 11.46C508.532 11.3 508.778 11.22 509.098 11.22H510.138V9.4C510.138 8.98667 510.245 8.67333 510.458 8.46C510.685 8.24667 510.998 8.14 511.398 8.14C511.798 8.14 512.105 8.24667 512.318 8.46C512.532 8.67333 512.638 8.98667 512.638 9.4V11.22H514.758C515.078 11.22 515.325 11.3 515.498 11.46C515.672 11.62 515.758 11.8533 515.758 12.16C515.758 12.4533 515.672 12.6867 515.498 12.86C515.325 13.02 515.078 13.1 514.758 13.1H512.638V17.22C512.638 17.86 512.778 18.34 513.058 18.66C513.338 18.98 513.792 19.14 514.418 19.14C514.645 19.14 514.845 19.12 515.018 19.08C515.192 19.04 515.345 19.0133 515.478 19C515.638 18.9867 515.772 19.04 515.878 19.16C515.985 19.2667 516.038 19.4933 516.038 19.84C516.038 20.1067 515.992 20.3467 515.898 20.56C515.818 20.76 515.665 20.9 515.438 20.98C515.265 21.0333 515.038 21.08 514.758 21.12C514.478 21.1733 514.232 21.2 514.018 21.2ZM520.434 21.2C519.727 21.2 519.094 21.0667 518.534 20.8C517.987 20.52 517.554 20.1467 517.234 19.68C516.927 19.2133 516.774 18.6867 516.774 18.1C516.774 17.38 516.961 16.8133 517.334 16.4C517.707 15.9733 518.314 15.6667 519.154 15.48C519.994 15.2933 521.121 15.2 522.534 15.2H523.534V16.64H522.554C521.727 16.64 521.067 16.68 520.574 16.76C520.081 16.84 519.727 16.98 519.514 17.18C519.314 17.3667 519.214 17.6333 519.214 17.98C519.214 18.42 519.367 18.78 519.674 19.06C519.981 19.34 520.407 19.48 520.954 19.48C521.394 19.48 521.781 19.38 522.114 19.18C522.461 18.9667 522.734 18.68 522.934 18.32C523.134 17.96 523.234 17.5467 523.234 17.08V14.78C523.234 14.1133 523.087 13.6333 522.794 13.34C522.501 13.0467 522.007 12.9 521.314 12.9C520.927 12.9 520.507 12.9467 520.054 13.04C519.614 13.1333 519.147 13.2933 518.654 13.52C518.401 13.64 518.174 13.6733 517.974 13.62C517.787 13.5667 517.641 13.46 517.534 13.3C517.427 13.1267 517.374 12.94 517.374 12.74C517.374 12.54 517.427 12.3467 517.534 12.16C517.641 11.96 517.821 11.8133 518.074 11.72C518.687 11.4667 519.274 11.2867 519.834 11.18C520.407 11.0733 520.927 11.02 521.394 11.02C522.354 11.02 523.141 11.1667 523.754 11.46C524.381 11.7533 524.847 12.2 525.154 12.8C525.461 13.3867 525.614 14.1467 525.614 15.08V19.88C525.614 20.2933 525.514 20.6133 525.314 20.84C525.114 21.0533 524.827 21.16 524.454 21.16C524.081 21.16 523.787 21.0533 523.574 20.84C523.374 20.6133 523.274 20.2933 523.274 19.88V18.92H523.434C523.341 19.3867 523.154 19.7933 522.874 20.14C522.607 20.4733 522.267 20.7333 521.854 20.92C521.441 21.1067 520.967 21.2 520.434 21.2ZM529.392 21.16C528.992 21.16 528.685 21.0533 528.472 20.84C528.258 20.6133 528.152 20.2933 528.152 19.88V12.32C528.152 11.9067 528.258 11.5933 528.472 11.38C528.685 11.1667 528.985 11.06 529.372 11.06C529.758 11.06 530.058 11.1667 530.272 11.38C530.485 11.5933 530.592 11.9067 530.592 12.32V13.68L530.372 13.18C530.665 12.4733 531.118 11.94 531.732 11.58C532.358 11.2067 533.065 11.02 533.852 11.02C534.638 11.02 535.285 11.1667 535.792 11.46C536.298 11.7533 536.678 12.2 536.932 12.8C537.185 13.3867 537.312 14.1333 537.312 15.04V19.88C537.312 20.2933 537.205 20.6133 536.992 20.84C536.778 21.0533 536.472 21.16 536.072 21.16C535.672 21.16 535.358 21.0533 535.132 20.84C534.918 20.6133 534.812 20.2933 534.812 19.88V15.16C534.812 14.4 534.665 13.8467 534.372 13.5C534.092 13.1533 533.652 12.98 533.052 12.98C532.318 12.98 531.732 13.2133 531.292 13.68C530.865 14.1333 530.652 14.74 530.652 15.5V19.88C530.652 20.7333 530.232 21.16 529.392 21.16ZM544.411 24.8C543.691 24.8 542.991 24.7333 542.311 24.6C541.644 24.4667 541.037 24.26 540.491 23.98C540.237 23.8467 540.064 23.6867 539.971 23.5C539.891 23.3133 539.864 23.12 539.891 22.92C539.931 22.7333 540.011 22.5667 540.131 22.42C540.264 22.2733 540.424 22.1733 540.611 22.12C540.797 22.0667 540.991 22.0933 541.191 22.2C541.777 22.4933 542.331 22.68 542.851 22.76C543.384 22.8533 543.837 22.9 544.211 22.9C545.104 22.9 545.771 22.68 546.211 22.24C546.664 21.8133 546.891 21.1733 546.891 20.32V18.52H547.071C546.871 19.2 546.451 19.7467 545.811 20.16C545.184 20.56 544.471 20.76 543.671 20.76C542.791 20.76 542.024 20.56 541.371 20.16C540.717 19.7467 540.211 19.1733 539.851 18.44C539.491 17.7067 539.311 16.8533 539.311 15.88C539.311 15.1467 539.411 14.4867 539.611 13.9C539.824 13.3 540.117 12.7867 540.491 12.36C540.877 11.9333 541.337 11.6067 541.871 11.38C542.417 11.14 543.017 11.02 543.671 11.02C544.497 11.02 545.217 11.2267 545.831 11.64C546.457 12.04 546.864 12.5733 547.051 13.24L546.851 13.74V12.32C546.851 11.9067 546.957 11.5933 547.171 11.38C547.397 11.1667 547.704 11.06 548.091 11.06C548.491 11.06 548.797 11.1667 549.011 11.38C549.224 11.5933 549.331 11.9067 549.331 12.32V20.02C549.331 21.6067 548.911 22.8 548.071 23.6C547.231 24.4 546.011 24.8 544.411 24.8ZM544.351 18.86C544.871 18.86 545.317 18.74 545.691 18.5C546.064 18.26 546.351 17.92 546.551 17.48C546.764 17.0267 546.871 16.4933 546.871 15.88C546.871 14.96 546.644 14.24 546.191 13.72C545.737 13.1867 545.124 12.92 544.351 12.92C543.831 12.92 543.384 13.04 543.011 13.28C542.637 13.52 542.344 13.86 542.131 14.3C541.931 14.74 541.831 15.2667 541.831 15.88C541.831 16.8 542.057 17.5267 542.511 18.06C542.964 18.5933 543.577 18.86 544.351 18.86ZM555.261 21.2C554.154 21.2 553.321 20.8867 552.761 20.26C552.201 19.62 551.921 18.6867 551.921 17.46V8C551.921 7.58667 552.028 7.27333 552.241 7.06C552.454 6.84667 552.761 6.74 553.161 6.74C553.561 6.74 553.868 6.84667 554.081 7.06C554.308 7.27333 554.421 7.58667 554.421 8V17.34C554.421 17.9533 554.548 18.4067 554.801 18.7C555.068 18.9933 555.441 19.14 555.921 19.14C556.028 19.14 556.128 19.14 556.221 19.14C556.314 19.1267 556.408 19.1133 556.501 19.1C556.688 19.0733 556.814 19.1267 556.881 19.26C556.948 19.38 556.981 19.6333 556.981 20.02C556.981 20.3533 556.914 20.6133 556.781 20.8C556.648 20.9867 556.428 21.1 556.121 21.14C555.988 21.1533 555.848 21.1667 555.701 21.18C555.554 21.1933 555.408 21.2 555.261 21.2ZM563.03 21.2C561.923 21.2 560.97 20.9933 560.17 20.58C559.37 20.1667 558.75 19.58 558.31 18.82C557.883 18.06 557.67 17.16 557.67 16.12C557.67 15.1067 557.877 14.22 558.29 13.46C558.717 12.7 559.297 12.1067 560.03 11.68C560.777 11.24 561.623 11.02 562.57 11.02C563.263 11.02 563.883 11.1333 564.43 11.36C564.99 11.5867 565.463 11.9133 565.85 12.34C566.25 12.7667 566.55 13.2867 566.75 13.9C566.963 14.5 567.07 15.18 567.07 15.94C567.07 16.18 566.983 16.3667 566.81 16.5C566.65 16.62 566.417 16.68 566.11 16.68H559.69V15.24H565.31L564.99 15.54C564.99 14.9267 564.897 14.4133 564.71 14C564.537 13.5867 564.277 13.2733 563.93 13.06C563.597 12.8333 563.177 12.72 562.67 12.72C562.11 12.72 561.63 12.8533 561.23 13.12C560.843 13.3733 560.543 13.74 560.33 14.22C560.13 14.6867 560.03 15.2467 560.03 15.9V16.04C560.03 17.1333 560.283 17.9533 560.79 18.5C561.31 19.0333 562.07 19.3 563.07 19.3C563.417 19.3 563.803 19.26 564.23 19.18C564.67 19.0867 565.083 18.9333 565.47 18.72C565.75 18.56 565.997 18.4933 566.21 18.52C566.423 18.5333 566.59 18.6067 566.71 18.74C566.843 18.8733 566.923 19.04 566.95 19.24C566.977 19.4267 566.937 19.62 566.83 19.82C566.737 20.02 566.57 20.1933 566.33 20.34C565.863 20.6333 565.323 20.8533 564.71 21C564.11 21.1333 563.55 21.2 563.03 21.2Z" fill="#D97A1A"/>
</svg>
