<svg width="160" height="60" viewBox="0 0 160 60" fill="none" xmlns="http://www.w3.org/2000/svg">
<rect width="160" height="60" rx="10" fill="#8C69FF"/>
<path d="M55.5 19.5V25.3333H49.6667" stroke="white" stroke-width="2" stroke-linecap="round" stroke-linejoin="round"/>
<path d="M55.4417 31.1667C55.1832 33.5068 54.1458 35.6922 52.4961 37.3718C50.8463 39.0515 48.6799 40.128 46.3448 40.4283C44.0097 40.7287 41.6414 40.2356 39.6203 39.0282C37.5991 37.8208 36.0424 35.9692 35.2001 33.7706C34.3578 31.5721 34.2788 29.1543 34.9758 26.9055C35.6729 24.6567 37.1055 22.7074 39.0435 21.3707C40.9816 20.034 43.3127 19.3874 45.6624 19.5348C48.0121 19.6821 50.2441 20.6149 52 22.1834L55.5 25.3334" stroke="white" stroke-width="2" stroke-linecap="round" stroke-linejoin="round"/>
<path d="M70.8449 38.192C70.3489 38.192 69.9649 38.056 69.6929 37.784C69.4369 37.496 69.3089 37.104 69.3089 36.608V22.64C69.3089 22.128 69.4449 21.744 69.7169 21.488C69.9889 21.216 70.3729 21.08 70.8689 21.08H76.6529C78.5089 21.08 79.9409 21.528 80.9489 22.424C81.9569 23.304 82.4609 24.544 82.4609 26.144C82.4609 27.184 82.2289 28.08 81.7649 28.832C81.3169 29.584 80.6609 30.16 79.7969 30.56C78.9329 30.96 77.8849 31.16 76.6529 31.16L76.8689 30.8H77.6609C78.3169 30.8 78.8849 30.96 79.3649 31.28C79.8609 31.6 80.2929 32.104 80.6609 32.792L82.4609 36.128C82.6529 36.464 82.7409 36.792 82.7249 37.112C82.7089 37.432 82.5889 37.696 82.3649 37.904C82.1409 38.096 81.8129 38.192 81.3809 38.192C80.9489 38.192 80.5969 38.104 80.3249 37.928C80.0529 37.736 79.8129 37.448 79.6049 37.064L77.1809 32.6C76.8929 32.056 76.5489 31.696 76.1489 31.52C75.7649 31.328 75.2689 31.232 74.6609 31.232H72.3809V36.608C72.3809 37.104 72.2529 37.496 71.9969 37.784C71.7409 38.056 71.3569 38.192 70.8449 38.192ZM72.3809 28.952H76.1249C77.2289 28.952 78.0609 28.728 78.6209 28.28C79.1969 27.816 79.4849 27.128 79.4849 26.216C79.4849 25.32 79.1969 24.648 78.6209 24.2C78.0609 23.736 77.2289 23.504 76.1249 23.504H72.3809V28.952ZM90.9534 38.24C89.6254 38.24 88.4814 37.992 87.5214 37.496C86.5614 37 85.8174 36.296 85.2894 35.384C84.7774 34.472 84.5214 33.392 84.5214 32.144C84.5214 30.928 84.7694 29.864 85.2654 28.952C85.7774 28.04 86.4734 27.328 87.3534 26.816C88.2494 26.288 89.2654 26.024 90.4014 26.024C91.2334 26.024 91.9774 26.16 92.6334 26.432C93.3054 26.704 93.8734 27.096 94.3374 27.608C94.8174 28.12 95.1774 28.744 95.4174 29.48C95.6734 30.2 95.8014 31.016 95.8014 31.928C95.8014 32.216 95.6974 32.44 95.4894 32.6C95.2974 32.744 95.0174 32.816 94.6494 32.816H86.9454V31.088H93.6894L93.3054 31.448C93.3054 30.712 93.1934 30.096 92.9694 29.6C92.7614 29.104 92.4494 28.728 92.0334 28.472C91.6334 28.2 91.1294 28.064 90.5214 28.064C89.8494 28.064 89.2734 28.224 88.7934 28.544C88.3294 28.848 87.9694 29.288 87.7134 29.864C87.4734 30.424 87.3534 31.096 87.3534 31.88V32.048C87.3534 33.36 87.6574 34.344 88.2654 35C88.8894 35.64 89.8014 35.96 91.0014 35.96C91.4174 35.96 91.8814 35.912 92.3934 35.816C92.9214 35.704 93.4174 35.52 93.8814 35.264C94.2174 35.072 94.5134 34.992 94.7694 35.024C95.0254 35.04 95.2254 35.128 95.3694 35.288C95.5294 35.448 95.6254 35.648 95.6574 35.888C95.6894 36.112 95.6414 36.344 95.5134 36.584C95.4014 36.824 95.2014 37.032 94.9134 37.208C94.3534 37.56 93.7054 37.824 92.9694 38C92.2494 38.16 91.5774 38.24 90.9534 38.24ZM103.506 38.24C102.466 38.24 101.594 38.064 100.89 37.712C100.202 37.36 99.6903 36.848 99.3543 36.176C99.0183 35.488 98.8503 34.64 98.8503 33.632V28.52H97.6023C97.2183 28.52 96.9223 28.424 96.7143 28.232C96.5063 28.024 96.4023 27.744 96.4023 27.392C96.4023 27.024 96.5063 26.744 96.7143 26.552C96.9223 26.36 97.2183 26.264 97.6023 26.264H98.8503V24.08C98.8503 23.584 98.9783 23.208 99.2343 22.952C99.5063 22.696 99.8823 22.568 100.362 22.568C100.842 22.568 101.21 22.696 101.466 22.952C101.722 23.208 101.85 23.584 101.85 24.08V26.264H104.394C104.778 26.264 105.074 26.36 105.282 26.552C105.49 26.744 105.594 27.024 105.594 27.392C105.594 27.744 105.49 28.024 105.282 28.232C105.074 28.424 104.778 28.52 104.394 28.52H101.85V33.464C101.85 34.232 102.018 34.808 102.354 35.192C102.69 35.576 103.234 35.768 103.986 35.768C104.258 35.768 104.498 35.744 104.706 35.696C104.914 35.648 105.098 35.616 105.258 35.6C105.45 35.584 105.61 35.648 105.738 35.792C105.866 35.92 105.93 36.192 105.93 36.608C105.93 36.928 105.874 37.216 105.762 37.472C105.666 37.712 105.482 37.88 105.21 37.976C105.002 38.04 104.73 38.096 104.394 38.144C104.058 38.208 103.762 38.24 103.506 38.24ZM108.877 38.192C108.381 38.192 107.997 38.064 107.725 37.808C107.469 37.536 107.341 37.152 107.341 36.656V27.584C107.341 27.088 107.469 26.712 107.725 26.456C107.981 26.2 108.341 26.072 108.805 26.072C109.269 26.072 109.629 26.2 109.885 26.456C110.141 26.712 110.269 27.088 110.269 27.584V29.096H110.029C110.253 28.136 110.693 27.408 111.349 26.912C112.005 26.416 112.877 26.12 113.965 26.024C114.301 25.992 114.565 26.08 114.757 26.288C114.965 26.48 115.085 26.784 115.117 27.2C115.149 27.6 115.053 27.928 114.829 28.184C114.621 28.424 114.301 28.568 113.869 28.616L113.341 28.664C112.365 28.76 111.629 29.064 111.133 29.576C110.637 30.072 110.389 30.776 110.389 31.688V36.656C110.389 37.152 110.261 37.536 110.005 37.808C109.749 38.064 109.373 38.192 108.877 38.192ZM120.442 42.512C120.09 42.512 119.802 42.416 119.578 42.224C119.354 42.048 119.218 41.808 119.17 41.504C119.138 41.2 119.194 40.88 119.338 40.544L120.97 36.92V38.168L116.602 28.064C116.458 27.712 116.41 27.384 116.458 27.08C116.506 26.776 116.65 26.536 116.89 26.36C117.146 26.168 117.49 26.072 117.922 26.072C118.29 26.072 118.586 26.16 118.81 26.336C119.034 26.496 119.234 26.808 119.41 27.272L122.65 35.36H121.93L125.242 27.248C125.418 26.8 125.626 26.496 125.866 26.336C126.106 26.16 126.426 26.072 126.826 26.072C127.178 26.072 127.458 26.168 127.666 26.36C127.874 26.536 128.002 26.776 128.05 27.08C128.098 27.368 128.042 27.688 127.882 28.04L122.05 41.36C121.842 41.808 121.618 42.112 121.378 42.272C121.138 42.432 120.826 42.512 120.442 42.512Z" fill="white"/>
</svg>
