<svg width="326" height="16" viewBox="0 0 326 16" fill="none" xmlns="http://www.w3.org/2000/svg">
<path d="M1.60181 12.128C1.34581 12.128 1.13781 12.0693 0.977813 11.952C0.828479 11.8347 0.737813 11.68 0.705813 11.488C0.673813 11.2853 0.711146 11.0613 0.817813 10.816L5.04181 1.456C5.18048 1.14667 5.34581 0.927999 5.53781 0.799999C5.74048 0.661332 5.96981 0.591999 6.22581 0.591999C6.47115 0.591999 6.68981 0.661332 6.88181 0.799999C7.08448 0.927999 7.25515 1.14667 7.39381 1.456L11.6338 10.816C11.7511 11.0613 11.7938 11.2853 11.7618 11.488C11.7298 11.6907 11.6391 11.8507 11.4898 11.968C11.3405 12.0747 11.1431 12.128 10.8978 12.128C10.5991 12.128 10.3645 12.0587 10.1938 11.92C10.0338 11.7707 9.88981 11.5467 9.76181 11.248L8.72181 8.832L9.58581 9.392H2.83381L3.69781 8.832L2.67381 11.248C2.53515 11.5573 2.39115 11.7813 2.24181 11.92C2.09248 12.0587 1.87915 12.128 1.60181 12.128ZM6.19381 2.944L3.95381 8.272L3.53781 7.76H8.88181L8.48181 8.272L6.22581 2.944H6.19381ZM15.9431 12.16C15.4844 12.16 14.9991 12.112 14.4871 12.016C13.9751 11.92 13.5164 11.7547 13.1111 11.52C12.9404 11.4133 12.8177 11.2907 12.7431 11.152C12.6791 11.0027 12.6524 10.8587 12.6631 10.72C12.6844 10.5707 12.7377 10.4427 12.8231 10.336C12.9191 10.2293 13.0364 10.16 13.1751 10.128C13.3244 10.096 13.4844 10.1227 13.6551 10.208C14.0817 10.4107 14.4817 10.5547 14.8551 10.64C15.2284 10.7147 15.5964 10.752 15.9591 10.752C16.4711 10.752 16.8497 10.6667 17.0951 10.496C17.3511 10.3147 17.4791 10.08 17.4791 9.792C17.4791 9.54667 17.3937 9.36 17.2231 9.232C17.0631 9.09333 16.8177 8.992 16.4871 8.928L14.8871 8.624C14.2257 8.496 13.7191 8.256 13.3671 7.904C13.0257 7.54133 12.8551 7.07733 12.8551 6.512C12.8551 6 12.9937 5.55733 13.2711 5.184C13.5591 4.81067 13.9537 4.52267 14.4551 4.32C14.9564 4.11733 15.5324 4.016 16.1831 4.016C16.6524 4.016 17.0897 4.06933 17.4951 4.176C17.9111 4.272 18.3111 4.42667 18.6951 4.64C18.8551 4.72533 18.9617 4.83733 19.0151 4.976C19.0791 5.11467 19.0951 5.25867 19.0631 5.408C19.0311 5.54667 18.9671 5.67467 18.8711 5.792C18.7751 5.89867 18.6524 5.968 18.5031 6C18.3644 6.02133 18.2044 5.98933 18.0231 5.904C17.6924 5.73333 17.3724 5.61067 17.0631 5.536C16.7644 5.46133 16.4764 5.424 16.1991 5.424C15.6764 5.424 15.2871 5.51467 15.0311 5.696C14.7857 5.87733 14.6631 6.11733 14.6631 6.416C14.6631 6.64 14.7377 6.82667 14.8871 6.976C15.0364 7.12533 15.2657 7.22667 15.5751 7.28L17.1751 7.584C17.8684 7.712 18.3911 7.94667 18.7431 8.288C19.1057 8.62933 19.2871 9.088 19.2871 9.664C19.2871 10.4427 18.9831 11.056 18.3751 11.504C17.7671 11.9413 16.9564 12.16 15.9431 12.16ZM27.8113 12.16C27.246 12.16 26.7393 12.0533 26.2913 11.84C25.854 11.616 25.5073 11.3173 25.2513 10.944C25.006 10.5707 24.8833 10.1493 24.8833 9.68C24.8833 9.104 25.0326 8.65067 25.3313 8.32C25.63 7.97867 26.1153 7.73333 26.7873 7.584C27.4593 7.43467 28.3606 7.36 29.4913 7.36H30.2913V8.512H29.5073C28.846 8.512 28.318 8.544 27.9233 8.608C27.5286 8.672 27.246 8.784 27.0753 8.944C26.9153 9.09333 26.8353 9.30667 26.8353 9.584C26.8353 9.936 26.958 10.224 27.2033 10.448C27.4486 10.672 27.79 10.784 28.2273 10.784C28.5793 10.784 28.8886 10.704 29.1553 10.544C29.4326 10.3733 29.6513 10.144 29.8113 9.856C29.9713 9.568 30.0513 9.23733 30.0513 8.864V7.024C30.0513 6.49067 29.934 6.10667 29.6993 5.872C29.4646 5.63733 29.07 5.52 28.5153 5.52C28.206 5.52 27.87 5.55733 27.5073 5.632C27.1553 5.70667 26.782 5.83467 26.3873 6.016C26.1846 6.112 26.0033 6.13867 25.8433 6.096C25.694 6.05333 25.5766 5.968 25.4913 5.84C25.406 5.70133 25.3633 5.552 25.3633 5.392C25.3633 5.232 25.406 5.07733 25.4913 4.928C25.5766 4.768 25.7206 4.65067 25.9233 4.576C26.414 4.37333 26.8833 4.22933 27.3313 4.144C27.79 4.05867 28.206 4.016 28.5793 4.016C29.3473 4.016 29.9766 4.13333 30.4673 4.368C30.9686 4.60267 31.342 4.96 31.5873 5.44C31.8326 5.90933 31.9553 6.51733 31.9553 7.264V11.104C31.9553 11.4347 31.8753 11.6907 31.7153 11.872C31.5553 12.0427 31.326 12.128 31.0273 12.128C30.7286 12.128 30.494 12.0427 30.3233 11.872C30.1633 11.6907 30.0833 11.4347 30.0833 11.104V10.336H30.2113C30.1366 10.7093 29.9873 11.0347 29.7633 11.312C29.55 11.5787 29.278 11.7867 28.9473 11.936C28.6166 12.0853 28.238 12.16 27.8113 12.16ZM34.9773 15.008C34.6573 15.008 34.412 14.9227 34.2413 14.752C34.0706 14.5813 33.9853 14.3307 33.9853 14V5.056C33.9853 4.72533 34.0706 4.47467 34.2413 4.304C34.412 4.13333 34.652 4.048 34.9613 4.048C35.2813 4.048 35.5266 4.13333 35.6973 4.304C35.868 4.47467 35.9533 4.72533 35.9533 5.056V6.304L35.7773 5.824C35.9373 5.28 36.2626 4.84267 36.7533 4.512C37.2546 4.18133 37.836 4.016 38.4973 4.016C39.18 4.016 39.7773 4.18133 40.2893 4.512C40.812 4.84267 41.2173 5.312 41.5053 5.92C41.7933 6.51733 41.9373 7.23733 41.9373 8.08C41.9373 8.912 41.7933 9.63733 41.5053 10.256C41.2173 10.864 40.8173 11.3333 40.3053 11.664C39.7933 11.9947 39.1906 12.16 38.4973 12.16C37.8466 12.16 37.276 12 36.7853 11.68C36.2946 11.3493 35.964 10.9227 35.7933 10.4H35.9853V14C35.9853 14.3307 35.8946 14.5813 35.7133 14.752C35.5426 14.9227 35.2973 15.008 34.9773 15.008ZM37.9373 10.64C38.332 10.64 38.6786 10.544 38.9773 10.352C39.276 10.16 39.5053 9.87733 39.6653 9.504C39.836 9.12 39.9213 8.64533 39.9213 8.08C39.9213 7.22667 39.74 6.592 39.3773 6.176C39.0146 5.74933 38.5346 5.536 37.9373 5.536C37.5426 5.536 37.196 5.632 36.8973 5.824C36.5986 6.00533 36.364 6.288 36.1933 6.672C36.0333 7.04533 35.9533 7.51467 35.9533 8.08C35.9533 8.92267 36.1346 9.56267 36.4973 10C36.86 10.4267 37.34 10.64 37.9373 10.64ZM44.5711 15.008C44.2511 15.008 44.0057 14.9227 43.8351 14.752C43.6644 14.5813 43.5791 14.3307 43.5791 14V5.056C43.5791 4.72533 43.6644 4.47467 43.8351 4.304C44.0057 4.13333 44.2457 4.048 44.5551 4.048C44.8751 4.048 45.1204 4.13333 45.2911 4.304C45.4617 4.47467 45.5471 4.72533 45.5471 5.056V6.304L45.3711 5.824C45.5311 5.28 45.8564 4.84267 46.3471 4.512C46.8484 4.18133 47.4297 4.016 48.0911 4.016C48.7737 4.016 49.3711 4.18133 49.8831 4.512C50.4057 4.84267 50.8111 5.312 51.0991 5.92C51.3871 6.51733 51.5311 7.23733 51.5311 8.08C51.5311 8.912 51.3871 9.63733 51.0991 10.256C50.8111 10.864 50.4111 11.3333 49.8991 11.664C49.3871 11.9947 48.7844 12.16 48.0911 12.16C47.4404 12.16 46.8697 12 46.3791 11.68C45.8884 11.3493 45.5577 10.9227 45.3871 10.4H45.5791V14C45.5791 14.3307 45.4884 14.5813 45.3071 14.752C45.1364 14.9227 44.8911 15.008 44.5711 15.008ZM47.5311 10.64C47.9257 10.64 48.2724 10.544 48.5711 10.352C48.8697 10.16 49.0991 9.87733 49.2591 9.504C49.4297 9.12 49.5151 8.64533 49.5151 8.08C49.5151 7.22667 49.3337 6.592 48.9711 6.176C48.6084 5.74933 48.1284 5.536 47.5311 5.536C47.1364 5.536 46.7897 5.632 46.4911 5.824C46.1924 6.00533 45.9577 6.288 45.7871 6.672C45.6271 7.04533 45.5471 7.51467 45.5471 8.08C45.5471 8.92267 45.7284 9.56267 46.0911 10C46.4537 10.4267 46.9337 10.64 47.5311 10.64ZM55.8448 12.16C54.9595 12.16 54.2928 11.9093 53.8448 11.408C53.3968 10.896 53.1728 10.1493 53.1728 9.168V1.6C53.1728 1.26933 53.2581 1.01867 53.4288 0.848C53.5995 0.677333 53.8448 0.591999 54.1648 0.591999C54.4848 0.591999 54.7301 0.677333 54.9008 0.848C55.0821 1.01867 55.1728 1.26933 55.1728 1.6V9.072C55.1728 9.56267 55.2741 9.92533 55.4768 10.16C55.6901 10.3947 55.9888 10.512 56.3728 10.512C56.4581 10.512 56.5381 10.512 56.6128 10.512C56.6875 10.5013 56.7621 10.4907 56.8368 10.48C56.9861 10.4587 57.0875 10.5013 57.1408 10.608C57.1941 10.704 57.2208 10.9067 57.2208 11.216C57.2208 11.4827 57.1675 11.6907 57.0608 11.84C56.9541 11.9893 56.7781 12.08 56.5328 12.112C56.4261 12.1227 56.3141 12.1333 56.1968 12.144C56.0795 12.1547 55.9621 12.16 55.8448 12.16ZM62.0601 12.16C61.1747 12.16 60.4121 11.9947 59.7721 11.664C59.1321 11.3333 58.6361 10.864 58.2841 10.256C57.9427 9.648 57.7721 8.928 57.7721 8.096C57.7721 7.28533 57.9374 6.576 58.2681 5.968C58.6094 5.36 59.0734 4.88533 59.6601 4.544C60.2574 4.192 60.9347 4.016 61.6921 4.016C62.2467 4.016 62.7427 4.10667 63.1801 4.288C63.6281 4.46933 64.0067 4.73067 64.3161 5.072C64.6361 5.41333 64.8761 5.82933 65.0361 6.32C65.2067 6.8 65.2921 7.344 65.2921 7.952C65.2921 8.144 65.2227 8.29333 65.0841 8.4C64.9561 8.496 64.7694 8.544 64.5241 8.544H59.3881V7.392H63.8841L63.6281 7.632C63.6281 7.14133 63.5534 6.73067 63.4041 6.4C63.2654 6.06933 63.0574 5.81867 62.7801 5.648C62.5134 5.46667 62.1774 5.376 61.7721 5.376C61.3241 5.376 60.9401 5.48267 60.6201 5.696C60.3107 5.89867 60.0707 6.192 59.9001 6.576C59.7401 6.94933 59.6601 7.39733 59.6601 7.92V8.032C59.6601 8.90667 59.8627 9.56267 60.2681 10C60.6841 10.4267 61.2921 10.64 62.0921 10.64C62.3694 10.64 62.6787 10.608 63.0201 10.544C63.3721 10.4693 63.7027 10.3467 64.0121 10.176C64.2361 10.048 64.4334 9.99467 64.6041 10.016C64.7747 10.0267 64.9081 10.0853 65.0041 10.192C65.1107 10.2987 65.1747 10.432 65.1961 10.592C65.2174 10.7413 65.1854 10.896 65.1001 11.056C65.0254 11.216 64.8921 11.3547 64.7001 11.472C64.3267 11.7067 63.8947 11.8827 63.4041 12C62.9241 12.1067 62.4761 12.16 62.0601 12.16ZM77.7317 15.008C77.4117 15.008 77.1664 14.9227 76.9957 14.752C76.825 14.5813 76.7397 14.3307 76.7397 14V10.4H76.9157C76.745 10.9227 76.4144 11.3493 75.9237 11.68C75.4437 12 74.8784 12.16 74.2277 12.16C73.545 12.16 72.9424 11.9947 72.4197 11.664C71.9077 11.3333 71.5077 10.864 71.2197 10.256C70.9317 9.63733 70.7877 8.912 70.7877 8.08C70.7877 7.23733 70.9317 6.51733 71.2197 5.92C71.5077 5.312 71.9077 4.84267 72.4197 4.512C72.9424 4.18133 73.545 4.016 74.2277 4.016C74.889 4.016 75.465 4.18133 75.9557 4.512C76.4464 4.84267 76.7717 5.28 76.9317 5.824L76.7557 6.304V5.056C76.7557 4.72533 76.841 4.47467 77.0117 4.304C77.1824 4.13333 77.4277 4.048 77.7477 4.048C78.0677 4.048 78.313 4.13333 78.4837 4.304C78.6544 4.47467 78.7397 4.72533 78.7397 5.056V14C78.7397 14.3307 78.649 14.5813 78.4677 14.752C78.297 14.9227 78.0517 15.008 77.7317 15.008ZM74.7877 10.64C75.1824 10.64 75.529 10.544 75.8277 10.352C76.1264 10.16 76.3557 9.87733 76.5157 9.504C76.6864 9.12 76.7717 8.64533 76.7717 8.08C76.7717 7.22667 76.5904 6.592 76.2277 6.176C75.865 5.74933 75.385 5.536 74.7877 5.536C74.393 5.536 74.0464 5.632 73.7477 5.824C73.449 6.00533 73.2144 6.288 73.0437 6.672C72.8837 7.04533 72.8037 7.51467 72.8037 8.08C72.8037 8.92267 72.985 9.56267 73.3477 10C73.7104 10.4267 74.1904 10.64 74.7877 10.64ZM83.6454 12.16C82.9948 12.16 82.4561 12.0427 82.0294 11.808C81.6028 11.5627 81.2828 11.2 81.0694 10.72C80.8668 10.24 80.7654 9.64267 80.7654 8.928V5.056C80.7654 4.71467 80.8508 4.464 81.0214 4.304C81.1921 4.13333 81.4374 4.048 81.7574 4.048C82.0774 4.048 82.3228 4.13333 82.4934 4.304C82.6748 4.464 82.7654 4.71467 82.7654 5.056V8.96C82.7654 9.51467 82.8774 9.92533 83.1014 10.192C83.3254 10.4587 83.6828 10.592 84.1734 10.592C84.7068 10.592 85.1441 10.4107 85.4854 10.048C85.8268 9.67467 85.9974 9.184 85.9974 8.576V5.056C85.9974 4.71467 86.0828 4.464 86.2534 4.304C86.4241 4.13333 86.6694 4.048 86.9894 4.048C87.3094 4.048 87.5548 4.13333 87.7254 4.304C87.9068 4.464 87.9974 4.71467 87.9974 5.056V11.104C87.9974 11.7867 87.6721 12.128 87.0214 12.128C86.7121 12.128 86.4721 12.0427 86.3014 11.872C86.1308 11.6907 86.0454 11.4347 86.0454 11.104V9.888L86.2694 10.368C86.0454 10.944 85.7041 11.3867 85.2454 11.696C84.7974 12.0053 84.2641 12.16 83.6454 12.16ZM92.6551 12.16C92.0897 12.16 91.5831 12.0533 91.1351 11.84C90.6977 11.616 90.3511 11.3173 90.0951 10.944C89.8497 10.5707 89.7271 10.1493 89.7271 9.68C89.7271 9.104 89.8764 8.65067 90.1751 8.32C90.4737 7.97867 90.9591 7.73333 91.6311 7.584C92.3031 7.43467 93.2044 7.36 94.3351 7.36H95.1351V8.512H94.3511C93.6897 8.512 93.1617 8.544 92.7671 8.608C92.3724 8.672 92.0897 8.784 91.9191 8.944C91.7591 9.09333 91.6791 9.30667 91.6791 9.584C91.6791 9.936 91.8017 10.224 92.0471 10.448C92.2924 10.672 92.6337 10.784 93.0711 10.784C93.4231 10.784 93.7324 10.704 93.9991 10.544C94.2764 10.3733 94.4951 10.144 94.6551 9.856C94.8151 9.568 94.8951 9.23733 94.8951 8.864V7.024C94.8951 6.49067 94.7777 6.10667 94.5431 5.872C94.3084 5.63733 93.9137 5.52 93.3591 5.52C93.0497 5.52 92.7137 5.55733 92.3511 5.632C91.9991 5.70667 91.6257 5.83467 91.2311 6.016C91.0284 6.112 90.8471 6.13867 90.6871 6.096C90.5377 6.05333 90.4204 5.968 90.3351 5.84C90.2497 5.70133 90.2071 5.552 90.2071 5.392C90.2071 5.232 90.2497 5.07733 90.3351 4.928C90.4204 4.768 90.5644 4.65067 90.7671 4.576C91.2577 4.37333 91.7271 4.22933 92.1751 4.144C92.6337 4.05867 93.0497 4.016 93.4231 4.016C94.1911 4.016 94.8204 4.13333 95.3111 4.368C95.8124 4.60267 96.1857 4.96 96.4311 5.44C96.6764 5.90933 96.7991 6.51733 96.7991 7.264V11.104C96.7991 11.4347 96.7191 11.6907 96.5591 11.872C96.3991 12.0427 96.1697 12.128 95.8711 12.128C95.5724 12.128 95.3377 12.0427 95.1671 11.872C95.0071 11.6907 94.9271 11.4347 94.9271 11.104V10.336H95.0551C94.9804 10.7093 94.8311 11.0347 94.6071 11.312C94.3937 11.5787 94.1217 11.7867 93.7911 11.936C93.4604 12.0853 93.0817 12.16 92.6551 12.16ZM99.8211 12.128C99.5011 12.128 99.2557 12.0427 99.0851 11.872C98.9144 11.6907 98.8291 11.4347 98.8291 11.104V5.056C98.8291 4.72533 98.9144 4.47467 99.0851 4.304C99.2557 4.13333 99.4957 4.048 99.8051 4.048C100.114 4.048 100.354 4.13333 100.525 4.304C100.696 4.47467 100.781 4.72533 100.781 5.056V6.144L100.605 5.744C100.84 5.17867 101.202 4.752 101.693 4.464C102.194 4.16533 102.76 4.016 103.389 4.016C104.018 4.016 104.536 4.13333 104.941 4.368C105.346 4.60267 105.65 4.96 105.853 5.44C106.056 5.90933 106.157 6.50667 106.157 7.232V11.104C106.157 11.4347 106.072 11.6907 105.901 11.872C105.73 12.0427 105.485 12.128 105.165 12.128C104.845 12.128 104.594 12.0427 104.413 11.872C104.242 11.6907 104.157 11.4347 104.157 11.104V7.328C104.157 6.72 104.04 6.27733 103.805 6C103.581 5.72267 103.229 5.584 102.749 5.584C102.162 5.584 101.693 5.77067 101.341 6.144C101 6.50667 100.829 6.992 100.829 7.6V11.104C100.829 11.7867 100.493 12.128 99.8211 12.128ZM111.772 12.16C111.079 12.16 110.498 12.0427 110.028 11.808C109.57 11.5733 109.228 11.232 109.004 10.784C108.78 10.3253 108.668 9.76 108.668 9.088V5.68H107.836C107.58 5.68 107.383 5.616 107.244 5.488C107.106 5.34933 107.036 5.16267 107.036 4.928C107.036 4.68267 107.106 4.496 107.244 4.368C107.383 4.24 107.58 4.176 107.836 4.176H108.668V2.72C108.668 2.38933 108.754 2.13867 108.924 1.968C109.106 1.79733 109.356 1.712 109.676 1.712C109.996 1.712 110.242 1.79733 110.412 1.968C110.583 2.13867 110.668 2.38933 110.668 2.72V4.176H112.364C112.62 4.176 112.818 4.24 112.956 4.368C113.095 4.496 113.164 4.68267 113.164 4.928C113.164 5.16267 113.095 5.34933 112.956 5.488C112.818 5.616 112.62 5.68 112.364 5.68H110.668V8.976C110.668 9.488 110.78 9.872 111.004 10.128C111.228 10.384 111.591 10.512 112.092 10.512C112.274 10.512 112.434 10.496 112.572 10.464C112.711 10.432 112.834 10.4107 112.94 10.4C113.068 10.3893 113.175 10.432 113.26 10.528C113.346 10.6133 113.388 10.7947 113.388 11.072C113.388 11.2853 113.351 11.4773 113.276 11.648C113.212 11.808 113.09 11.92 112.908 11.984C112.77 12.0267 112.588 12.064 112.364 12.096C112.14 12.1387 111.943 12.16 111.772 12.16ZM115.524 12.112C115.204 12.112 114.959 12.016 114.788 11.824C114.618 11.632 114.532 11.3653 114.532 11.024V5.152C114.532 4.8 114.618 4.53333 114.788 4.352C114.959 4.16 115.204 4.064 115.524 4.064C115.844 4.064 116.09 4.16 116.26 4.352C116.442 4.53333 116.532 4.8 116.532 5.152V11.024C116.532 11.3653 116.447 11.632 116.276 11.824C116.106 12.016 115.855 12.112 115.524 12.112ZM115.524 2.576C115.151 2.576 114.858 2.48533 114.644 2.304C114.442 2.112 114.34 1.85067 114.34 1.52C114.34 1.17867 114.442 0.917333 114.644 0.735999C114.858 0.554666 115.151 0.464 115.524 0.464C115.908 0.464 116.202 0.554666 116.404 0.735999C116.607 0.917333 116.708 1.17867 116.708 1.52C116.708 1.85067 116.607 2.112 116.404 2.304C116.202 2.48533 115.908 2.576 115.524 2.576ZM122.194 12.16C121.501 12.16 120.92 12.0427 120.45 11.808C119.992 11.5733 119.65 11.232 119.426 10.784C119.202 10.3253 119.09 9.76 119.09 9.088V5.68H118.258C118.002 5.68 117.805 5.616 117.666 5.488C117.528 5.34933 117.458 5.16267 117.458 4.928C117.458 4.68267 117.528 4.496 117.666 4.368C117.805 4.24 118.002 4.176 118.258 4.176H119.09V2.72C119.09 2.38933 119.176 2.13867 119.346 1.968C119.528 1.79733 119.778 1.712 120.098 1.712C120.418 1.712 120.664 1.79733 120.834 1.968C121.005 2.13867 121.09 2.38933 121.09 2.72V4.176H122.786C123.042 4.176 123.24 4.24 123.378 4.368C123.517 4.496 123.586 4.68267 123.586 4.928C123.586 5.16267 123.517 5.34933 123.378 5.488C123.24 5.616 123.042 5.68 122.786 5.68H121.09V8.976C121.09 9.488 121.202 9.872 121.426 10.128C121.65 10.384 122.013 10.512 122.514 10.512C122.696 10.512 122.856 10.496 122.994 10.464C123.133 10.432 123.256 10.4107 123.362 10.4C123.49 10.3893 123.597 10.432 123.682 10.528C123.768 10.6133 123.81 10.7947 123.81 11.072C123.81 11.2853 123.773 11.4773 123.698 11.648C123.634 11.808 123.512 11.92 123.33 11.984C123.192 12.0267 123.01 12.064 122.786 12.096C122.562 12.1387 122.365 12.16 122.194 12.16ZM126.86 15.008C126.625 15.008 126.433 14.944 126.284 14.816C126.135 14.6987 126.044 14.5387 126.012 14.336C125.991 14.1333 126.028 13.92 126.124 13.696L127.212 11.28V12.112L124.3 5.376C124.204 5.14133 124.172 4.92267 124.204 4.72C124.236 4.51733 124.332 4.35733 124.492 4.24C124.663 4.112 124.892 4.048 125.18 4.048C125.425 4.048 125.623 4.10667 125.772 4.224C125.921 4.33067 126.055 4.53867 126.172 4.848L128.332 10.24H127.852L130.06 4.832C130.177 4.53333 130.316 4.33067 130.476 4.224C130.636 4.10667 130.849 4.048 131.116 4.048C131.351 4.048 131.537 4.112 131.676 4.24C131.815 4.35733 131.9 4.51733 131.932 4.72C131.964 4.912 131.927 5.12533 131.82 5.36L127.932 14.24C127.793 14.5387 127.644 14.7413 127.484 14.848C127.324 14.9547 127.116 15.008 126.86 15.008ZM207.701 13.712C207.563 13.8827 207.413 13.9787 207.253 14C207.104 14.032 206.971 14.0053 206.853 13.92C206.736 13.8347 206.672 13.712 206.661 13.552C206.651 13.4027 206.72 13.2373 206.869 13.056C207.083 12.7893 207.227 12.5227 207.301 12.256C207.376 11.9893 207.413 11.7493 207.413 11.536L207.493 12.08C207.12 12.08 206.816 11.9733 206.581 11.76C206.357 11.536 206.245 11.2427 206.245 10.88C206.245 10.5387 206.352 10.2613 206.565 10.048C206.779 9.824 207.067 9.712 207.429 9.712C207.803 9.712 208.096 9.84 208.309 10.096C208.523 10.3413 208.629 10.6987 208.629 11.168C208.629 11.424 208.603 11.6907 208.549 11.968C208.507 12.2347 208.416 12.512 208.277 12.8C208.149 13.0987 207.957 13.4027 207.701 13.712ZM218.382 12.16C217.688 12.16 217.107 12.0427 216.638 11.808C216.179 11.5733 215.838 11.232 215.614 10.784C215.39 10.3253 215.278 9.76 215.278 9.088V5.68H214.446C214.19 5.68 213.992 5.616 213.854 5.488C213.715 5.34933 213.646 5.16267 213.646 4.928C213.646 4.68267 213.715 4.496 213.854 4.368C213.992 4.24 214.19 4.176 214.446 4.176H215.278V2.72C215.278 2.38933 215.363 2.13867 215.534 1.968C215.715 1.79733 215.966 1.712 216.286 1.712C216.606 1.712 216.851 1.79733 217.022 1.968C217.192 2.13867 217.278 2.38933 217.278 2.72V4.176H218.974C219.23 4.176 219.427 4.24 219.566 4.368C219.704 4.496 219.774 4.68267 219.774 4.928C219.774 5.16267 219.704 5.34933 219.566 5.488C219.427 5.616 219.23 5.68 218.974 5.68H217.278V8.976C217.278 9.488 217.39 9.872 217.614 10.128C217.838 10.384 218.2 10.512 218.702 10.512C218.883 10.512 219.043 10.496 219.182 10.464C219.32 10.432 219.443 10.4107 219.55 10.4C219.678 10.3893 219.784 10.432 219.87 10.528C219.955 10.6133 219.998 10.7947 219.998 11.072C219.998 11.2853 219.96 11.4773 219.886 11.648C219.822 11.808 219.699 11.92 219.518 11.984C219.379 12.0267 219.198 12.064 218.974 12.096C218.75 12.1387 218.552 12.16 218.382 12.16ZM224.428 12.16C223.618 12.16 222.914 11.9947 222.316 11.664C221.719 11.3333 221.255 10.864 220.924 10.256C220.594 9.63733 220.428 8.912 220.428 8.08C220.428 7.45067 220.519 6.89067 220.7 6.4C220.892 5.89867 221.164 5.472 221.516 5.12C221.868 4.75733 222.29 4.48533 222.78 4.304C223.271 4.112 223.82 4.016 224.428 4.016C225.239 4.016 225.943 4.18133 226.54 4.512C227.138 4.84267 227.602 5.312 227.932 5.92C228.263 6.528 228.428 7.248 228.428 8.08C228.428 8.70933 228.332 9.27467 228.14 9.776C227.959 10.2773 227.692 10.7093 227.34 11.072C226.988 11.424 226.567 11.696 226.076 11.888C225.586 12.0693 225.036 12.16 224.428 12.16ZM224.428 10.64C224.823 10.64 225.17 10.544 225.468 10.352C225.767 10.16 225.996 9.87733 226.156 9.504C226.327 9.12 226.412 8.64533 226.412 8.08C226.412 7.22667 226.231 6.592 225.868 6.176C225.506 5.74933 225.026 5.536 224.428 5.536C224.034 5.536 223.687 5.632 223.388 5.824C223.09 6.00533 222.855 6.288 222.684 6.672C222.524 7.04533 222.444 7.51467 222.444 8.08C222.444 8.92267 222.626 9.56267 222.988 10C223.351 10.4267 223.831 10.64 224.428 10.64ZM233.585 12.16C232.892 12.16 232.31 12.0427 231.841 11.808C231.382 11.5733 231.041 11.232 230.817 10.784C230.593 10.3253 230.481 9.76 230.481 9.088V5.68H229.649C229.393 5.68 229.196 5.616 229.057 5.488C228.918 5.34933 228.849 5.16267 228.849 4.928C228.849 4.68267 228.918 4.496 229.057 4.368C229.196 4.24 229.393 4.176 229.649 4.176H230.481V2.72C230.481 2.38933 230.566 2.13867 230.737 1.968C230.918 1.79733 231.169 1.712 231.489 1.712C231.809 1.712 232.054 1.79733 232.225 1.968C232.396 2.13867 232.481 2.38933 232.481 2.72V4.176H234.177C234.433 4.176 234.63 4.24 234.769 4.368C234.908 4.496 234.977 4.68267 234.977 4.928C234.977 5.16267 234.908 5.34933 234.769 5.488C234.63 5.616 234.433 5.68 234.177 5.68H232.481V8.976C232.481 9.488 232.593 9.872 232.817 10.128C233.041 10.384 233.404 10.512 233.905 10.512C234.086 10.512 234.246 10.496 234.385 10.464C234.524 10.432 234.646 10.4107 234.753 10.4C234.881 10.3893 234.988 10.432 235.073 10.528C235.158 10.6133 235.201 10.7947 235.201 11.072C235.201 11.2853 235.164 11.4773 235.089 11.648C235.025 11.808 234.902 11.92 234.721 11.984C234.582 12.0267 234.401 12.064 234.177 12.096C233.953 12.1387 233.756 12.16 233.585 12.16ZM238.718 12.16C238.152 12.16 237.646 12.0533 237.198 11.84C236.76 11.616 236.414 11.3173 236.158 10.944C235.912 10.5707 235.79 10.1493 235.79 9.68C235.79 9.104 235.939 8.65067 236.238 8.32C236.536 7.97867 237.022 7.73333 237.694 7.584C238.366 7.43467 239.267 7.36 240.398 7.36H241.198V8.512H240.414C239.752 8.512 239.224 8.544 238.83 8.608C238.435 8.672 238.152 8.784 237.982 8.944C237.822 9.09333 237.742 9.30667 237.742 9.584C237.742 9.936 237.864 10.224 238.11 10.448C238.355 10.672 238.696 10.784 239.134 10.784C239.486 10.784 239.795 10.704 240.062 10.544C240.339 10.3733 240.558 10.144 240.718 9.856C240.878 9.568 240.958 9.23733 240.958 8.864V7.024C240.958 6.49067 240.84 6.10667 240.606 5.872C240.371 5.63733 239.976 5.52 239.422 5.52C239.112 5.52 238.776 5.55733 238.414 5.632C238.062 5.70667 237.688 5.83467 237.294 6.016C237.091 6.112 236.91 6.13867 236.75 6.096C236.6 6.05333 236.483 5.968 236.398 5.84C236.312 5.70133 236.27 5.552 236.27 5.392C236.27 5.232 236.312 5.07733 236.398 4.928C236.483 4.768 236.627 4.65067 236.83 4.576C237.32 4.37333 237.79 4.22933 238.238 4.144C238.696 4.05867 239.112 4.016 239.486 4.016C240.254 4.016 240.883 4.13333 241.374 4.368C241.875 4.60267 242.248 4.96 242.494 5.44C242.739 5.90933 242.862 6.51733 242.862 7.264V11.104C242.862 11.4347 242.782 11.6907 242.622 11.872C242.462 12.0427 242.232 12.128 241.934 12.128C241.635 12.128 241.4 12.0427 241.23 11.872C241.07 11.6907 240.99 11.4347 240.99 11.104V10.336H241.118C241.043 10.7093 240.894 11.0347 240.67 11.312C240.456 11.5787 240.184 11.7867 239.854 11.936C239.523 12.0853 239.144 12.16 238.718 12.16ZM247.564 12.16C246.678 12.16 246.012 11.9093 245.564 11.408C245.116 10.896 244.892 10.1493 244.892 9.168V1.6C244.892 1.26933 244.977 1.01867 245.148 0.848C245.318 0.677333 245.564 0.591999 245.884 0.591999C246.204 0.591999 246.449 0.677333 246.62 0.848C246.801 1.01867 246.892 1.26933 246.892 1.6V9.072C246.892 9.56267 246.993 9.92533 247.196 10.16C247.409 10.3947 247.708 10.512 248.092 10.512C248.177 10.512 248.257 10.512 248.332 10.512C248.406 10.5013 248.481 10.4907 248.556 10.48C248.705 10.4587 248.806 10.5013 248.86 10.608C248.913 10.704 248.94 10.9067 248.94 11.216C248.94 11.4827 248.886 11.6907 248.78 11.84C248.673 11.9893 248.497 12.08 248.252 12.112C248.145 12.1227 248.033 12.1333 247.916 12.144C247.798 12.1547 247.681 12.16 247.564 12.16ZM257.961 12.16C257.139 12.16 256.425 11.9947 255.817 11.664C255.209 11.3227 254.739 10.8427 254.409 10.224C254.078 9.60533 253.913 8.88 253.913 8.048C253.913 7.41867 254.003 6.85867 254.185 6.368C254.377 5.86667 254.649 5.44533 255.001 5.104C255.353 4.752 255.779 4.48533 256.281 4.304C256.782 4.112 257.342 4.016 257.961 4.016C258.313 4.016 258.691 4.064 259.097 4.16C259.513 4.256 259.902 4.416 260.265 4.64C260.435 4.74667 260.547 4.87467 260.601 5.024C260.654 5.17333 260.665 5.328 260.633 5.488C260.601 5.63733 260.531 5.77067 260.425 5.888C260.329 5.99467 260.206 6.064 260.057 6.096C259.907 6.11733 259.742 6.08 259.561 5.984C259.326 5.84533 259.086 5.744 258.841 5.68C258.595 5.60533 258.361 5.568 258.137 5.568C257.785 5.568 257.475 5.62667 257.209 5.744C256.942 5.85067 256.713 6.01067 256.521 6.224C256.339 6.42667 256.201 6.68267 256.105 6.992C256.009 7.30133 255.961 7.65867 255.961 8.064C255.961 8.85333 256.147 9.47733 256.521 9.936C256.905 10.384 257.443 10.608 258.137 10.608C258.361 10.608 258.59 10.576 258.825 10.512C259.07 10.448 259.315 10.3467 259.561 10.208C259.742 10.112 259.902 10.08 260.041 10.112C260.19 10.144 260.313 10.2187 260.409 10.336C260.505 10.4427 260.563 10.576 260.585 10.736C260.606 10.8853 260.585 11.0347 260.521 11.184C260.467 11.3333 260.361 11.456 260.201 11.552C259.849 11.7653 259.475 11.92 259.081 12.016C258.686 12.112 258.313 12.16 257.961 12.16ZM265.303 12.16C264.493 12.16 263.789 11.9947 263.191 11.664C262.594 11.3333 262.13 10.864 261.799 10.256C261.469 9.63733 261.303 8.912 261.303 8.08C261.303 7.45067 261.394 6.89067 261.575 6.4C261.767 5.89867 262.039 5.472 262.391 5.12C262.743 4.75733 263.165 4.48533 263.655 4.304C264.146 4.112 264.695 4.016 265.303 4.016C266.114 4.016 266.818 4.18133 267.415 4.512C268.013 4.84267 268.477 5.312 268.807 5.92C269.138 6.528 269.303 7.248 269.303 8.08C269.303 8.70933 269.207 9.27467 269.015 9.776C268.834 10.2773 268.567 10.7093 268.215 11.072C267.863 11.424 267.442 11.696 266.951 11.888C266.461 12.0693 265.911 12.16 265.303 12.16ZM265.303 10.64C265.698 10.64 266.045 10.544 266.343 10.352C266.642 10.16 266.871 9.87733 267.031 9.504C267.202 9.12 267.287 8.64533 267.287 8.08C267.287 7.22667 267.106 6.592 266.743 6.176C266.381 5.74933 265.901 5.536 265.303 5.536C264.909 5.536 264.562 5.632 264.263 5.824C263.965 6.00533 263.73 6.288 263.559 6.672C263.399 7.04533 263.319 7.51467 263.319 8.08C263.319 8.92267 263.501 9.56267 263.863 10C264.226 10.4267 264.706 10.64 265.303 10.64ZM273.818 12.16C273.359 12.16 272.874 12.112 272.362 12.016C271.85 11.92 271.391 11.7547 270.986 11.52C270.815 11.4133 270.693 11.2907 270.618 11.152C270.554 11.0027 270.527 10.8587 270.538 10.72C270.559 10.5707 270.613 10.4427 270.698 10.336C270.794 10.2293 270.911 10.16 271.05 10.128C271.199 10.096 271.359 10.1227 271.53 10.208C271.957 10.4107 272.357 10.5547 272.73 10.64C273.103 10.7147 273.471 10.752 273.834 10.752C274.346 10.752 274.725 10.6667 274.97 10.496C275.226 10.3147 275.354 10.08 275.354 9.792C275.354 9.54667 275.269 9.36 275.098 9.232C274.938 9.09333 274.693 8.992 274.362 8.928L272.762 8.624C272.101 8.496 271.594 8.256 271.242 7.904C270.901 7.54133 270.73 7.07733 270.73 6.512C270.73 6 270.869 5.55733 271.146 5.184C271.434 4.81067 271.829 4.52267 272.33 4.32C272.831 4.11733 273.407 4.016 274.058 4.016C274.527 4.016 274.965 4.06933 275.37 4.176C275.786 4.272 276.186 4.42667 276.57 4.64C276.73 4.72533 276.837 4.83733 276.89 4.976C276.954 5.11467 276.97 5.25867 276.938 5.408C276.906 5.54667 276.842 5.67467 276.746 5.792C276.65 5.89867 276.527 5.968 276.378 6C276.239 6.02133 276.079 5.98933 275.898 5.904C275.567 5.73333 275.247 5.61067 274.938 5.536C274.639 5.46133 274.351 5.424 274.074 5.424C273.551 5.424 273.162 5.51467 272.906 5.696C272.661 5.87733 272.538 6.11733 272.538 6.416C272.538 6.64 272.613 6.82667 272.762 6.976C272.911 7.12533 273.141 7.22667 273.45 7.28L275.05 7.584C275.743 7.712 276.266 7.94667 276.618 8.288C276.981 8.62933 277.162 9.088 277.162 9.664C277.162 10.4427 276.858 11.056 276.25 11.504C275.642 11.9413 274.831 12.16 273.818 12.16ZM282.272 12.16C281.579 12.16 280.998 12.0427 280.528 11.808C280.07 11.5733 279.728 11.232 279.504 10.784C279.28 10.3253 279.168 9.76 279.168 9.088V5.68H278.336C278.08 5.68 277.883 5.616 277.744 5.488C277.606 5.34933 277.536 5.16267 277.536 4.928C277.536 4.68267 277.606 4.496 277.744 4.368C277.883 4.24 278.08 4.176 278.336 4.176H279.168V2.72C279.168 2.38933 279.254 2.13867 279.424 1.968C279.606 1.79733 279.856 1.712 280.176 1.712C280.496 1.712 280.742 1.79733 280.912 1.968C281.083 2.13867 281.168 2.38933 281.168 2.72V4.176H282.864C283.12 4.176 283.318 4.24 283.456 4.368C283.595 4.496 283.664 4.68267 283.664 4.928C283.664 5.16267 283.595 5.34933 283.456 5.488C283.318 5.616 283.12 5.68 282.864 5.68H281.168V8.976C281.168 9.488 281.28 9.872 281.504 10.128C281.728 10.384 282.091 10.512 282.592 10.512C282.774 10.512 282.934 10.496 283.072 10.464C283.211 10.432 283.334 10.4107 283.44 10.4C283.568 10.3893 283.675 10.432 283.76 10.528C283.846 10.6133 283.888 10.7947 283.888 11.072C283.888 11.2853 283.851 11.4773 283.776 11.648C283.712 11.808 283.59 11.92 283.408 11.984C283.27 12.0267 283.088 12.064 282.864 12.096C282.64 12.1387 282.443 12.16 282.272 12.16ZM324.773 12.08C324.411 12.08 324.117 11.968 323.893 11.744C323.68 11.52 323.573 11.232 323.573 10.88C323.573 10.5387 323.68 10.2613 323.893 10.048C324.117 9.824 324.411 9.712 324.773 9.712C325.147 9.712 325.435 9.824 325.637 10.048C325.851 10.2613 325.957 10.5387 325.957 10.88C325.957 11.232 325.851 11.52 325.637 11.744C325.435 11.968 325.147 12.08 324.773 12.08Z" fill="#444444"/>
<path d="M138.634 12.112C138.314 12.112 138.068 12.016 137.898 11.824C137.727 11.632 137.642 11.3653 137.642 11.024V5.152C137.642 4.8 137.727 4.53333 137.898 4.352C138.068 4.16 138.314 4.064 138.634 4.064C138.954 4.064 139.199 4.16 139.37 4.352C139.551 4.53333 139.642 4.8 139.642 5.152V11.024C139.642 11.3653 139.556 11.632 139.386 11.824C139.215 12.016 138.964 12.112 138.634 12.112ZM138.634 2.576C138.26 2.576 137.967 2.48533 137.754 2.304C137.551 2.112 137.45 1.85067 137.45 1.52C137.45 1.17867 137.551 0.917333 137.754 0.735999C137.967 0.554666 138.26 0.464 138.634 0.464C139.018 0.464 139.311 0.554666 139.514 0.735999C139.716 0.917333 139.818 1.17867 139.818 1.52C139.818 1.85067 139.716 2.112 139.514 2.304C139.311 2.48533 139.018 2.576 138.634 2.576ZM142.712 12.128C142.392 12.128 142.146 12.0427 141.976 11.872C141.805 11.6907 141.72 11.4347 141.72 11.104V5.056C141.72 4.72533 141.805 4.47467 141.976 4.304C142.146 4.13333 142.386 4.048 142.696 4.048C143.005 4.048 143.245 4.13333 143.416 4.304C143.586 4.47467 143.672 4.72533 143.672 5.056V6.144L143.496 5.744C143.73 5.17867 144.093 4.752 144.584 4.464C145.085 4.16533 145.65 4.016 146.28 4.016C146.909 4.016 147.426 4.13333 147.832 4.368C148.237 4.60267 148.541 4.96 148.744 5.44C148.946 5.90933 149.048 6.50667 149.048 7.232V11.104C149.048 11.4347 148.962 11.6907 148.792 11.872C148.621 12.0427 148.376 12.128 148.056 12.128C147.736 12.128 147.485 12.0427 147.304 11.872C147.133 11.6907 147.048 11.4347 147.048 11.104V7.328C147.048 6.72 146.93 6.27733 146.696 6C146.472 5.72267 146.12 5.584 145.64 5.584C145.053 5.584 144.584 5.77067 144.232 6.144C143.89 6.50667 143.72 6.992 143.72 7.6V11.104C143.72 11.7867 143.384 12.128 142.712 12.128ZM154.695 12.16C153.874 12.16 153.159 11.9947 152.551 11.664C151.943 11.3227 151.474 10.8427 151.143 10.224C150.812 9.60533 150.647 8.88 150.647 8.048C150.647 7.41867 150.738 6.85867 150.919 6.368C151.111 5.86667 151.383 5.44533 151.735 5.104C152.087 4.752 152.514 4.48533 153.015 4.304C153.516 4.112 154.076 4.016 154.695 4.016C155.047 4.016 155.426 4.064 155.831 4.16C156.247 4.256 156.636 4.416 156.999 4.64C157.17 4.74667 157.282 4.87467 157.335 5.024C157.388 5.17333 157.399 5.328 157.367 5.488C157.335 5.63733 157.266 5.77067 157.159 5.888C157.063 5.99467 156.94 6.064 156.791 6.096C156.642 6.11733 156.476 6.08 156.295 5.984C156.06 5.84533 155.82 5.744 155.575 5.68C155.33 5.60533 155.095 5.568 154.871 5.568C154.519 5.568 154.21 5.62667 153.943 5.744C153.676 5.85067 153.447 6.01067 153.255 6.224C153.074 6.42667 152.935 6.68267 152.839 6.992C152.743 7.30133 152.695 7.65867 152.695 8.064C152.695 8.85333 152.882 9.47733 153.255 9.936C153.639 10.384 154.178 10.608 154.871 10.608C155.095 10.608 155.324 10.576 155.559 10.512C155.804 10.448 156.05 10.3467 156.295 10.208C156.476 10.112 156.636 10.08 156.775 10.112C156.924 10.144 157.047 10.2187 157.143 10.336C157.239 10.4427 157.298 10.576 157.319 10.736C157.34 10.8853 157.319 11.0347 157.255 11.184C157.202 11.3333 157.095 11.456 156.935 11.552C156.583 11.7653 156.21 11.92 155.815 12.016C155.42 12.112 155.047 12.16 154.695 12.16ZM159.65 12.128C159.319 12.128 159.063 12.0427 158.882 11.872C158.711 11.6907 158.626 11.4347 158.626 11.104V5.056C158.626 4.72533 158.711 4.47467 158.882 4.304C159.053 4.13333 159.293 4.048 159.602 4.048C159.911 4.048 160.151 4.13333 160.322 4.304C160.493 4.47467 160.578 4.72533 160.578 5.056V6.064H160.418C160.567 5.424 160.861 4.93867 161.298 4.608C161.735 4.27733 162.317 4.08 163.042 4.016C163.266 3.99467 163.442 4.05333 163.57 4.192C163.709 4.32 163.789 4.52267 163.81 4.8C163.831 5.06667 163.767 5.28533 163.618 5.456C163.479 5.616 163.266 5.712 162.978 5.744L162.626 5.776C161.975 5.84 161.485 6.04267 161.154 6.384C160.823 6.71467 160.658 7.184 160.658 7.792V11.104C160.658 11.4347 160.573 11.6907 160.402 11.872C160.231 12.0427 159.981 12.128 159.65 12.128ZM168.623 12.16C167.737 12.16 166.975 11.9947 166.335 11.664C165.695 11.3333 165.199 10.864 164.847 10.256C164.505 9.648 164.335 8.928 164.335 8.096C164.335 7.28533 164.5 6.576 164.831 5.968C165.172 5.36 165.636 4.88533 166.223 4.544C166.82 4.192 167.497 4.016 168.255 4.016C168.809 4.016 169.305 4.10667 169.743 4.288C170.191 4.46933 170.569 4.73067 170.879 5.072C171.199 5.41333 171.439 5.82933 171.599 6.32C171.769 6.8 171.855 7.344 171.855 7.952C171.855 8.144 171.785 8.29333 171.647 8.4C171.519 8.496 171.332 8.544 171.087 8.544H165.951V7.392H170.447L170.191 7.632C170.191 7.14133 170.116 6.73067 169.967 6.4C169.828 6.06933 169.62 5.81867 169.343 5.648C169.076 5.46667 168.74 5.376 168.335 5.376C167.887 5.376 167.503 5.48267 167.183 5.696C166.873 5.89867 166.633 6.192 166.463 6.576C166.303 6.94933 166.223 7.39733 166.223 7.92V8.032C166.223 8.90667 166.425 9.56267 166.831 10C167.247 10.4267 167.855 10.64 168.655 10.64C168.932 10.64 169.241 10.608 169.583 10.544C169.935 10.4693 170.265 10.3467 170.575 10.176C170.799 10.048 170.996 9.99467 171.167 10.016C171.337 10.0267 171.471 10.0853 171.567 10.192C171.673 10.2987 171.737 10.432 171.759 10.592C171.78 10.7413 171.748 10.896 171.663 11.056C171.588 11.216 171.455 11.3547 171.263 11.472C170.889 11.7067 170.457 11.8827 169.967 12C169.487 12.1067 169.039 12.16 168.623 12.16ZM176.014 12.16C175.449 12.16 174.942 12.0533 174.494 11.84C174.057 11.616 173.71 11.3173 173.454 10.944C173.209 10.5707 173.086 10.1493 173.086 9.68C173.086 9.104 173.236 8.65067 173.534 8.32C173.833 7.97867 174.318 7.73333 174.99 7.584C175.662 7.43467 176.564 7.36 177.694 7.36H178.494V8.512H177.71C177.049 8.512 176.521 8.544 176.126 8.608C175.732 8.672 175.449 8.784 175.278 8.944C175.118 9.09333 175.038 9.30667 175.038 9.584C175.038 9.936 175.161 10.224 175.406 10.448C175.652 10.672 175.993 10.784 176.43 10.784C176.782 10.784 177.092 10.704 177.358 10.544C177.636 10.3733 177.854 10.144 178.014 9.856C178.174 9.568 178.254 9.23733 178.254 8.864V7.024C178.254 6.49067 178.137 6.10667 177.902 5.872C177.668 5.63733 177.273 5.52 176.718 5.52C176.409 5.52 176.073 5.55733 175.71 5.632C175.358 5.70667 174.985 5.83467 174.59 6.016C174.388 6.112 174.206 6.13867 174.046 6.096C173.897 6.05333 173.78 5.968 173.694 5.84C173.609 5.70133 173.566 5.552 173.566 5.392C173.566 5.232 173.609 5.07733 173.694 4.928C173.78 4.768 173.924 4.65067 174.126 4.576C174.617 4.37333 175.086 4.22933 175.534 4.144C175.993 4.05867 176.409 4.016 176.782 4.016C177.55 4.016 178.18 4.13333 178.67 4.368C179.172 4.60267 179.545 4.96 179.79 5.44C180.036 5.90933 180.158 6.51733 180.158 7.264V11.104C180.158 11.4347 180.078 11.6907 179.918 11.872C179.758 12.0427 179.529 12.128 179.23 12.128C178.932 12.128 178.697 12.0427 178.526 11.872C178.366 11.6907 178.286 11.4347 178.286 11.104V10.336H178.414C178.34 10.7093 178.19 11.0347 177.966 11.312C177.753 11.5787 177.481 11.7867 177.15 11.936C176.82 12.0853 176.441 12.16 176.014 12.16ZM185.052 12.16C184.594 12.16 184.108 12.112 183.596 12.016C183.084 11.92 182.626 11.7547 182.22 11.52C182.05 11.4133 181.927 11.2907 181.852 11.152C181.788 11.0027 181.762 10.8587 181.772 10.72C181.794 10.5707 181.847 10.4427 181.932 10.336C182.028 10.2293 182.146 10.16 182.284 10.128C182.434 10.096 182.594 10.1227 182.764 10.208C183.191 10.4107 183.591 10.5547 183.964 10.64C184.338 10.7147 184.706 10.752 185.068 10.752C185.58 10.752 185.959 10.6667 186.204 10.496C186.46 10.3147 186.588 10.08 186.588 9.792C186.588 9.54667 186.503 9.36 186.332 9.232C186.172 9.09333 185.927 8.992 185.596 8.928L183.996 8.624C183.335 8.496 182.828 8.256 182.476 7.904C182.135 7.54133 181.964 7.07733 181.964 6.512C181.964 6 182.103 5.55733 182.38 5.184C182.668 4.81067 183.063 4.52267 183.564 4.32C184.066 4.11733 184.642 4.016 185.292 4.016C185.762 4.016 186.199 4.06933 186.604 4.176C187.02 4.272 187.42 4.42667 187.804 4.64C187.964 4.72533 188.071 4.83733 188.124 4.976C188.188 5.11467 188.204 5.25867 188.172 5.408C188.14 5.54667 188.076 5.67467 187.98 5.792C187.884 5.89867 187.762 5.968 187.612 6C187.474 6.02133 187.314 5.98933 187.132 5.904C186.802 5.73333 186.482 5.61067 186.172 5.536C185.874 5.46133 185.586 5.424 185.308 5.424C184.786 5.424 184.396 5.51467 184.14 5.696C183.895 5.87733 183.772 6.11733 183.772 6.416C183.772 6.64 183.847 6.82667 183.996 6.976C184.146 7.12533 184.375 7.22667 184.684 7.28L186.284 7.584C186.978 7.712 187.5 7.94667 187.852 8.288C188.215 8.62933 188.396 9.088 188.396 9.664C188.396 10.4427 188.092 11.056 187.484 11.504C186.876 11.9413 186.066 12.16 185.052 12.16ZM193.857 12.16C192.972 12.16 192.209 11.9947 191.569 11.664C190.929 11.3333 190.433 10.864 190.081 10.256C189.74 9.648 189.569 8.928 189.569 8.096C189.569 7.28533 189.734 6.576 190.065 5.968C190.406 5.36 190.87 4.88533 191.457 4.544C192.054 4.192 192.732 4.016 193.489 4.016C194.044 4.016 194.54 4.10667 194.977 4.288C195.425 4.46933 195.804 4.73067 196.113 5.072C196.433 5.41333 196.673 5.82933 196.833 6.32C197.004 6.8 197.089 7.344 197.089 7.952C197.089 8.144 197.02 8.29333 196.881 8.4C196.753 8.496 196.566 8.544 196.321 8.544H191.185V7.392H195.681L195.425 7.632C195.425 7.14133 195.35 6.73067 195.201 6.4C195.062 6.06933 194.854 5.81867 194.577 5.648C194.31 5.46667 193.974 5.376 193.569 5.376C193.121 5.376 192.737 5.48267 192.417 5.696C192.108 5.89867 191.868 6.192 191.697 6.576C191.537 6.94933 191.457 7.39733 191.457 7.92V8.032C191.457 8.90667 191.66 9.56267 192.065 10C192.481 10.4267 193.089 10.64 193.889 10.64C194.166 10.64 194.476 10.608 194.817 10.544C195.169 10.4693 195.5 10.3467 195.809 10.176C196.033 10.048 196.23 9.99467 196.401 10.016C196.572 10.0267 196.705 10.0853 196.801 10.192C196.908 10.2987 196.972 10.432 196.993 10.592C197.014 10.7413 196.982 10.896 196.897 11.056C196.822 11.216 196.689 11.3547 196.497 11.472C196.124 11.7067 195.692 11.8827 195.201 12C194.721 12.1067 194.273 12.16 193.857 12.16ZM201.537 12.16C201.078 12.16 200.593 12.112 200.081 12.016C199.569 11.92 199.11 11.7547 198.705 11.52C198.534 11.4133 198.411 11.2907 198.337 11.152C198.273 11.0027 198.246 10.8587 198.257 10.72C198.278 10.5707 198.331 10.4427 198.417 10.336C198.513 10.2293 198.63 10.16 198.769 10.128C198.918 10.096 199.078 10.1227 199.249 10.208C199.675 10.4107 200.075 10.5547 200.449 10.64C200.822 10.7147 201.19 10.752 201.553 10.752C202.065 10.752 202.443 10.6667 202.689 10.496C202.945 10.3147 203.073 10.08 203.073 9.792C203.073 9.54667 202.987 9.36 202.817 9.232C202.657 9.09333 202.411 8.992 202.081 8.928L200.481 8.624C199.819 8.496 199.313 8.256 198.961 7.904C198.619 7.54133 198.449 7.07733 198.449 6.512C198.449 6 198.587 5.55733 198.865 5.184C199.153 4.81067 199.547 4.52267 200.049 4.32C200.55 4.11733 201.126 4.016 201.777 4.016C202.246 4.016 202.683 4.06933 203.089 4.176C203.505 4.272 203.905 4.42667 204.289 4.64C204.449 4.72533 204.555 4.83733 204.609 4.976C204.673 5.11467 204.689 5.25867 204.657 5.408C204.625 5.54667 204.561 5.67467 204.465 5.792C204.369 5.89867 204.246 5.968 204.097 6C203.958 6.02133 203.798 5.98933 203.617 5.904C203.286 5.73333 202.966 5.61067 202.657 5.536C202.358 5.46133 202.07 5.424 201.793 5.424C201.27 5.424 200.881 5.51467 200.625 5.696C200.379 5.87733 200.257 6.11733 200.257 6.416C200.257 6.64 200.331 6.82667 200.481 6.976C200.63 7.12533 200.859 7.22667 201.169 7.28L202.769 7.584C203.462 7.712 203.985 7.94667 204.337 8.288C204.699 8.62933 204.881 9.088 204.881 9.664C204.881 10.4427 204.577 11.056 203.969 11.504C203.361 11.9413 202.55 12.16 201.537 12.16ZM290.197 12.128C289.866 12.128 289.61 12.0427 289.429 11.872C289.258 11.6907 289.173 11.4347 289.173 11.104V5.056C289.173 4.72533 289.258 4.47467 289.429 4.304C289.599 4.13333 289.839 4.048 290.149 4.048C290.458 4.048 290.698 4.13333 290.869 4.304C291.039 4.47467 291.125 4.72533 291.125 5.056V6.064H290.965C291.114 5.424 291.407 4.93867 291.845 4.608C292.282 4.27733 292.863 4.08 293.589 4.016C293.813 3.99467 293.989 4.05333 294.117 4.192C294.255 4.32 294.335 4.52267 294.357 4.8C294.378 5.06667 294.314 5.28533 294.165 5.456C294.026 5.616 293.813 5.712 293.525 5.744L293.173 5.776C292.522 5.84 292.031 6.04267 291.701 6.384C291.37 6.71467 291.205 7.184 291.205 7.792V11.104C291.205 11.4347 291.119 11.6907 290.949 11.872C290.778 12.0427 290.527 12.128 290.197 12.128ZM296.43 12.112C296.11 12.112 295.865 12.016 295.694 11.824C295.524 11.632 295.438 11.3653 295.438 11.024V5.152C295.438 4.8 295.524 4.53333 295.694 4.352C295.865 4.16 296.11 4.064 296.43 4.064C296.75 4.064 296.996 4.16 297.166 4.352C297.348 4.53333 297.438 4.8 297.438 5.152V11.024C297.438 11.3653 297.353 11.632 297.182 11.824C297.012 12.016 296.761 12.112 296.43 12.112ZM296.43 2.576C296.057 2.576 295.764 2.48533 295.55 2.304C295.348 2.112 295.246 1.85067 295.246 1.52C295.246 1.17867 295.348 0.917333 295.55 0.735999C295.764 0.554666 296.057 0.464 296.43 0.464C296.814 0.464 297.108 0.554666 297.31 0.735999C297.513 0.917333 297.614 1.17867 297.614 1.52C297.614 1.85067 297.513 2.112 297.31 2.304C297.108 2.48533 296.814 2.576 296.43 2.576ZM302.381 12.16C301.922 12.16 301.437 12.112 300.925 12.016C300.413 11.92 299.954 11.7547 299.549 11.52C299.378 11.4133 299.255 11.2907 299.181 11.152C299.117 11.0027 299.09 10.8587 299.101 10.72C299.122 10.5707 299.175 10.4427 299.261 10.336C299.357 10.2293 299.474 10.16 299.613 10.128C299.762 10.096 299.922 10.1227 300.093 10.208C300.519 10.4107 300.919 10.5547 301.293 10.64C301.666 10.7147 302.034 10.752 302.397 10.752C302.909 10.752 303.287 10.6667 303.533 10.496C303.789 10.3147 303.917 10.08 303.917 9.792C303.917 9.54667 303.831 9.36 303.661 9.232C303.501 9.09333 303.255 8.992 302.925 8.928L301.325 8.624C300.663 8.496 300.157 8.256 299.805 7.904C299.463 7.54133 299.293 7.07733 299.293 6.512C299.293 6 299.431 5.55733 299.709 5.184C299.997 4.81067 300.391 4.52267 300.893 4.32C301.394 4.11733 301.97 4.016 302.621 4.016C303.09 4.016 303.527 4.06933 303.933 4.176C304.349 4.272 304.749 4.42667 305.133 4.64C305.293 4.72533 305.399 4.83733 305.453 4.976C305.517 5.11467 305.533 5.25867 305.501 5.408C305.469 5.54667 305.405 5.67467 305.309 5.792C305.213 5.89867 305.09 5.968 304.941 6C304.802 6.02133 304.642 5.98933 304.461 5.904C304.13 5.73333 303.81 5.61067 303.501 5.536C303.202 5.46133 302.914 5.424 302.637 5.424C302.114 5.424 301.725 5.51467 301.469 5.696C301.223 5.87733 301.101 6.11733 301.101 6.416C301.101 6.64 301.175 6.82667 301.325 6.976C301.474 7.12533 301.703 7.22667 302.013 7.28L303.613 7.584C304.306 7.712 304.829 7.94667 305.181 8.288C305.543 8.62933 305.725 9.088 305.725 9.664C305.725 10.4427 305.421 11.056 304.813 11.504C304.205 11.9413 303.394 12.16 302.381 12.16ZM311.185 12.16C310.3 12.16 309.537 11.9947 308.897 11.664C308.257 11.3333 307.761 10.864 307.409 10.256C307.068 9.648 306.897 8.928 306.897 8.096C306.897 7.28533 307.062 6.576 307.393 5.968C307.734 5.36 308.198 4.88533 308.785 4.544C309.382 4.192 310.06 4.016 310.817 4.016C311.372 4.016 311.868 4.10667 312.305 4.288C312.753 4.46933 313.132 4.73067 313.441 5.072C313.761 5.41333 314.001 5.82933 314.161 6.32C314.332 6.8 314.417 7.344 314.417 7.952C314.417 8.144 314.348 8.29333 314.209 8.4C314.081 8.496 313.894 8.544 313.649 8.544H308.513V7.392H313.009L312.753 7.632C312.753 7.14133 312.678 6.73067 312.529 6.4C312.39 6.06933 312.182 5.81867 311.905 5.648C311.638 5.46667 311.302 5.376 310.897 5.376C310.449 5.376 310.065 5.48267 309.745 5.696C309.436 5.89867 309.196 6.192 309.025 6.576C308.865 6.94933 308.785 7.39733 308.785 7.92V8.032C308.785 8.90667 308.988 9.56267 309.393 10C309.809 10.4267 310.417 10.64 311.217 10.64C311.494 10.64 311.804 10.608 312.145 10.544C312.497 10.4693 312.828 10.3467 313.137 10.176C313.361 10.048 313.558 9.99467 313.729 10.016C313.9 10.0267 314.033 10.0853 314.129 10.192C314.236 10.2987 314.3 10.432 314.321 10.592C314.342 10.7413 314.31 10.896 314.225 11.056C314.15 11.216 314.017 11.3547 313.825 11.472C313.452 11.7067 313.02 11.8827 312.529 12C312.049 12.1067 311.601 12.16 311.185 12.16ZM318.865 12.16C318.406 12.16 317.921 12.112 317.409 12.016C316.897 11.92 316.438 11.7547 316.033 11.52C315.862 11.4133 315.74 11.2907 315.665 11.152C315.601 11.0027 315.574 10.8587 315.585 10.72C315.606 10.5707 315.66 10.4427 315.745 10.336C315.841 10.2293 315.958 10.16 316.097 10.128C316.246 10.096 316.406 10.1227 316.577 10.208C317.004 10.4107 317.404 10.5547 317.777 10.64C318.15 10.7147 318.518 10.752 318.881 10.752C319.393 10.752 319.772 10.6667 320.017 10.496C320.273 10.3147 320.401 10.08 320.401 9.792C320.401 9.54667 320.316 9.36 320.145 9.232C319.985 9.09333 319.74 8.992 319.409 8.928L317.809 8.624C317.148 8.496 316.641 8.256 316.289 7.904C315.948 7.54133 315.777 7.07733 315.777 6.512C315.777 6 315.916 5.55733 316.193 5.184C316.481 4.81067 316.876 4.52267 317.377 4.32C317.878 4.11733 318.454 4.016 319.105 4.016C319.574 4.016 320.012 4.06933 320.417 4.176C320.833 4.272 321.233 4.42667 321.617 4.64C321.777 4.72533 321.884 4.83733 321.937 4.976C322.001 5.11467 322.017 5.25867 321.985 5.408C321.953 5.54667 321.889 5.67467 321.793 5.792C321.697 5.89867 321.574 5.968 321.425 6C321.286 6.02133 321.126 5.98933 320.945 5.904C320.614 5.73333 320.294 5.61067 319.985 5.536C319.686 5.46133 319.398 5.424 319.121 5.424C318.598 5.424 318.209 5.51467 317.953 5.696C317.708 5.87733 317.585 6.11733 317.585 6.416C317.585 6.64 317.66 6.82667 317.809 6.976C317.958 7.12533 318.188 7.22667 318.497 7.28L320.097 7.584C320.79 7.712 321.313 7.94667 321.665 8.288C322.028 8.62933 322.209 9.088 322.209 9.664C322.209 10.4427 321.905 11.056 321.297 11.504C320.689 11.9413 319.878 12.16 318.865 12.16Z" fill="#6595DE"/>
</svg>
