<svg width="146" height="60" viewBox="0 0 146 60" fill="none" xmlns="http://www.w3.org/2000/svg">
<rect width="146" height="60" rx="10" fill="#1A1A1A"/>
<path d="M45.4219 21V26H40.4219" stroke="white" stroke-width="2" stroke-linecap="round" stroke-linejoin="round"/>
<path d="M45.3719 30.9996C45.1504 33.0054 44.2612 34.8786 42.8471 36.3183C41.433 37.758 39.5761 38.6807 37.5746 38.9382C35.5731 39.1956 33.5431 38.773 31.8107 37.7381C30.0782 36.7031 28.7439 35.116 28.0219 33.2316C27.3 31.3471 27.2323 29.2747 27.8297 27.3472C28.4272 25.4196 29.6551 23.7488 31.3163 22.603C32.9775 21.4573 34.9756 20.9031 36.9896 21.0294C39.0037 21.1557 40.9169 21.9552 42.4219 23.2996L45.4219 25.9996" stroke="white" stroke-width="2" stroke-linecap="round" stroke-linejoin="round"/>
<g clip-path="url(#clip0_5037_817)">
<path d="M63.8449 38.192C63.3489 38.192 62.9649 38.056 62.6929 37.784C62.4369 37.496 62.3089 37.104 62.3089 36.608V22.64C62.3089 22.128 62.4449 21.744 62.7169 21.488C62.9889 21.216 63.3729 21.08 63.8689 21.08H69.6529C71.5089 21.08 72.9409 21.528 73.9489 22.424C74.9569 23.304 75.4609 24.544 75.4609 26.144C75.4609 27.184 75.2289 28.08 74.7649 28.832C74.3169 29.584 73.6609 30.16 72.7969 30.56C71.9329 30.96 70.8849 31.16 69.6529 31.16L69.8689 30.8H70.6609C71.3169 30.8 71.8849 30.96 72.3649 31.28C72.8609 31.6 73.2929 32.104 73.6609 32.792L75.4609 36.128C75.6529 36.464 75.7409 36.792 75.7249 37.112C75.7089 37.432 75.5889 37.696 75.3649 37.904C75.1409 38.096 74.8129 38.192 74.3809 38.192C73.9489 38.192 73.5969 38.104 73.3249 37.928C73.0529 37.736 72.8129 37.448 72.6049 37.064L70.1809 32.6C69.8929 32.056 69.5489 31.696 69.1489 31.52C68.7649 31.328 68.2689 31.232 67.6609 31.232H65.3809V36.608C65.3809 37.104 65.2529 37.496 64.9969 37.784C64.7409 38.056 64.3569 38.192 63.8449 38.192ZM65.3809 28.952H69.1249C70.2289 28.952 71.0609 28.728 71.6209 28.28C72.1969 27.816 72.4849 27.128 72.4849 26.216C72.4849 25.32 72.1969 24.648 71.6209 24.2C71.0609 23.736 70.2289 23.504 69.1249 23.504H65.3809V28.952ZM83.9534 38.24C82.6254 38.24 81.4814 37.992 80.5214 37.496C79.5614 37 78.8174 36.296 78.2894 35.384C77.7774 34.472 77.5214 33.392 77.5214 32.144C77.5214 30.928 77.7694 29.864 78.2654 28.952C78.7774 28.04 79.4734 27.328 80.3534 26.816C81.2494 26.288 82.2654 26.024 83.4014 26.024C84.2334 26.024 84.9774 26.16 85.6334 26.432C86.3054 26.704 86.8734 27.096 87.3374 27.608C87.8174 28.12 88.1774 28.744 88.4174 29.48C88.6734 30.2 88.8014 31.016 88.8014 31.928C88.8014 32.216 88.6974 32.44 88.4894 32.6C88.2974 32.744 88.0174 32.816 87.6494 32.816H79.9454V31.088H86.6894L86.3054 31.448C86.3054 30.712 86.1934 30.096 85.9694 29.6C85.7614 29.104 85.4494 28.728 85.0334 28.472C84.6334 28.2 84.1294 28.064 83.5214 28.064C82.8494 28.064 82.2734 28.224 81.7934 28.544C81.3294 28.848 80.9694 29.288 80.7134 29.864C80.4734 30.424 80.3534 31.096 80.3534 31.88V32.048C80.3534 33.36 80.6574 34.344 81.2654 35C81.8894 35.64 82.8014 35.96 84.0014 35.96C84.4174 35.96 84.8814 35.912 85.3934 35.816C85.9214 35.704 86.4174 35.52 86.8814 35.264C87.2174 35.072 87.5134 34.992 87.7694 35.024C88.0254 35.04 88.2254 35.128 88.3694 35.288C88.5294 35.448 88.6254 35.648 88.6574 35.888C88.6894 36.112 88.6414 36.344 88.5134 36.584C88.4014 36.824 88.2014 37.032 87.9134 37.208C87.3534 37.56 86.7054 37.824 85.9694 38C85.2494 38.16 84.5774 38.24 83.9534 38.24ZM96.5063 38.24C95.4663 38.24 94.5943 38.064 93.8903 37.712C93.2023 37.36 92.6903 36.848 92.3543 36.176C92.0183 35.488 91.8503 34.64 91.8503 33.632V28.52H90.6023C90.2183 28.52 89.9223 28.424 89.7143 28.232C89.5063 28.024 89.4023 27.744 89.4023 27.392C89.4023 27.024 89.5063 26.744 89.7143 26.552C89.9223 26.36 90.2183 26.264 90.6023 26.264H91.8503V24.08C91.8503 23.584 91.9783 23.208 92.2343 22.952C92.5063 22.696 92.8823 22.568 93.3623 22.568C93.8423 22.568 94.2103 22.696 94.4663 22.952C94.7223 23.208 94.8503 23.584 94.8503 24.08V26.264H97.3943C97.7783 26.264 98.0743 26.36 98.2823 26.552C98.4903 26.744 98.5943 27.024 98.5943 27.392C98.5943 27.744 98.4903 28.024 98.2823 28.232C98.0743 28.424 97.7783 28.52 97.3943 28.52H94.8503V33.464C94.8503 34.232 95.0183 34.808 95.3543 35.192C95.6903 35.576 96.2343 35.768 96.9863 35.768C97.2583 35.768 97.4983 35.744 97.7063 35.696C97.9143 35.648 98.0983 35.616 98.2583 35.6C98.4503 35.584 98.6103 35.648 98.7383 35.792C98.8663 35.92 98.9303 36.192 98.9303 36.608C98.9303 36.928 98.8743 37.216 98.7623 37.472C98.6663 37.712 98.4823 37.88 98.2103 37.976C98.0023 38.04 97.7303 38.096 97.3943 38.144C97.0583 38.208 96.7623 38.24 96.5063 38.24ZM101.877 38.192C101.381 38.192 100.997 38.064 100.725 37.808C100.469 37.536 100.341 37.152 100.341 36.656V27.584C100.341 27.088 100.469 26.712 100.725 26.456C100.981 26.2 101.341 26.072 101.805 26.072C102.269 26.072 102.629 26.2 102.885 26.456C103.141 26.712 103.269 27.088 103.269 27.584V29.096H103.029C103.253 28.136 103.693 27.408 104.349 26.912C105.005 26.416 105.877 26.12 106.965 26.024C107.301 25.992 107.565 26.08 107.757 26.288C107.965 26.48 108.085 26.784 108.117 27.2C108.149 27.6 108.053 27.928 107.829 28.184C107.621 28.424 107.301 28.568 106.869 28.616L106.341 28.664C105.365 28.76 104.629 29.064 104.133 29.576C103.637 30.072 103.389 30.776 103.389 31.688V36.656C103.389 37.152 103.261 37.536 103.005 37.808C102.749 38.064 102.373 38.192 101.877 38.192ZM113.442 42.512C113.09 42.512 112.802 42.416 112.578 42.224C112.354 42.048 112.218 41.808 112.17 41.504C112.138 41.2 112.194 40.88 112.338 40.544L113.97 36.92V38.168L109.602 28.064C109.458 27.712 109.41 27.384 109.458 27.08C109.506 26.776 109.65 26.536 109.89 26.36C110.146 26.168 110.49 26.072 110.922 26.072C111.29 26.072 111.586 26.16 111.81 26.336C112.034 26.496 112.234 26.808 112.41 27.272L115.65 35.36H114.93L118.242 27.248C118.418 26.8 118.626 26.496 118.866 26.336C119.106 26.16 119.426 26.072 119.826 26.072C120.178 26.072 120.458 26.168 120.666 26.36C120.874 26.536 121.002 26.776 121.05 27.08C121.098 27.368 121.042 27.688 120.882 28.04L115.05 41.36C114.842 41.808 114.618 42.112 114.378 42.272C114.138 42.432 113.826 42.512 113.442 42.512Z" fill="white"/>
</g>
<defs>
<clipPath id="clip0_5037_817">
<rect width="62" height="28" fill="white" transform="translate(60 16)"/>
</clipPath>
</defs>
</svg>
