<svg width="128" height="28" viewBox="0 0 128 28" fill="none" xmlns="http://www.w3.org/2000/svg">
<path d="M20.7569 3.36592C20.5225 3.13162 20.2047 3 19.8733 3C19.5419 3 19.2241 3.13162 18.9897 3.36592L17.11 5.24434C16.8757 5.47871 16.7441 5.79654 16.7441 6.12794C16.7441 6.45934 16.8757 6.77717 17.11 7.01153L18.9885 8.88996C19.2228 9.12426 19.5407 9.25588 19.8721 9.25588C20.2035 9.25588 20.5213 9.12426 20.7557 8.88996L22.6341 7.01153C22.8684 6.77717 23 6.45934 23 6.12794C23 5.79654 22.8684 5.47871 22.6341 5.24434L20.7569 3.36592ZM17.9949 6.12794L19.8733 4.24952L21.7517 6.12794L19.8721 8.00636L17.9949 6.12794ZM15.4953 5.50305H6.12446C5.2958 5.50305 4.50108 5.83223 3.91513 6.41818C3.32918 7.00413 3 7.79885 3 8.6275V19.8755C3 20.7042 3.32918 21.4989 3.91513 22.0849C4.50108 22.6708 5.2958 23 6.12446 23H17.3725C18.2012 23 18.9959 22.6708 19.5818 22.0849C20.1678 21.4989 20.497 20.7042 20.497 19.8755V10.5022H15.4953V5.50305ZM5.94449 21.7415C5.48062 21.6967 5.05004 21.4808 4.73672 21.1358C4.4234 20.7909 4.2498 20.3416 4.24978 19.8755V18.0009H7.99913V21.7502H6.12446L5.94449 21.7415ZM9.24891 18.0009H14.248V21.7502H9.24891V18.0009ZM19.2384 20.0555C19.1937 20.5194 18.9778 20.95 18.6328 21.2633C18.2878 21.5766 17.8385 21.7502 17.3725 21.7502H15.4978V18.0009H19.2472V19.8755L19.2384 20.0555ZM9.24891 11.752H14.248V16.7511H9.24891V11.752ZM15.4978 16.7511V11.752H19.2472V16.7511H15.4978ZM9.24891 6.75283H14.248V10.5022H9.24891V6.75283ZM6.12446 6.75283H7.99913V10.5022H4.24978V8.6275L4.25853 8.44628C4.30356 7.98264 4.5196 7.55237 4.86454 7.23931C5.20949 6.92624 5.65863 6.75282 6.12446 6.75283ZM4.24978 16.7511V11.752H7.99913V16.7511H4.24978Z" fill="white"/>
<g clip-path="url(#clip0_2_137)">
<path d="M43.8714 22.24C43.1674 22.24 42.4634 22.184 41.7594 22.072C41.0554 21.976 40.3914 21.824 39.7674 21.616C39.1434 21.392 38.5834 21.12 38.0874 20.8C37.7994 20.608 37.5994 20.376 37.4874 20.104C37.3754 19.832 37.3354 19.568 37.3674 19.312C37.4154 19.04 37.5194 18.808 37.6794 18.616C37.8554 18.408 38.0714 18.28 38.3274 18.232C38.5834 18.184 38.8634 18.256 39.1674 18.448C39.8714 18.864 40.6154 19.168 41.3994 19.36C42.1834 19.552 43.0074 19.648 43.8714 19.648C45.1354 19.648 46.0554 19.44 46.6314 19.024C47.2074 18.592 47.4954 18.04 47.4954 17.368C47.4954 16.808 47.2874 16.368 46.8714 16.048C46.4714 15.728 45.7754 15.464 44.7834 15.256L42.1434 14.704C40.6234 14.384 39.4874 13.848 38.7354 13.096C37.9994 12.328 37.6314 11.32 37.6314 10.072C37.6314 9.288 37.7914 8.576 38.1114 7.936C38.4314 7.296 38.8794 6.744 39.4554 6.28C40.0474 5.816 40.7434 5.464 41.5434 5.224C42.3594 4.968 43.2554 4.84 44.2314 4.84C45.1914 4.84 46.1034 4.96 46.9674 5.2C47.8314 5.44 48.6074 5.792 49.2954 6.256C49.5514 6.432 49.7194 6.648 49.7994 6.904C49.8954 7.16 49.9194 7.416 49.8714 7.672C49.8234 7.912 49.7114 8.12 49.5354 8.296C49.3594 8.472 49.1354 8.576 48.8634 8.608C48.6074 8.64 48.3114 8.56 47.9754 8.368C47.3834 8.032 46.7834 7.792 46.1754 7.648C45.5674 7.504 44.9114 7.432 44.2074 7.432C43.4714 7.432 42.8394 7.536 42.3114 7.744C41.7834 7.952 41.3754 8.248 41.0874 8.632C40.8154 9 40.6794 9.44 40.6794 9.952C40.6794 10.528 40.8714 10.992 41.2554 11.344C41.6394 11.68 42.2954 11.944 43.2234 12.136L45.8394 12.688C47.4234 13.024 48.5994 13.552 49.3674 14.272C50.1514 14.992 50.5434 15.952 50.5434 17.152C50.5434 17.92 50.3834 18.616 50.0634 19.24C49.7594 19.864 49.3114 20.4 48.7194 20.848C48.1434 21.296 47.4474 21.64 46.6314 21.88C45.8154 22.12 44.8954 22.24 43.8714 22.24ZM54.38 22.168C53.9 22.168 53.532 22.024 53.276 21.736C53.02 21.448 52.892 21.048 52.892 20.536V11.728C52.892 11.2 53.02 10.8 53.276 10.528C53.532 10.24 53.9 10.096 54.38 10.096C54.86 10.096 55.228 10.24 55.484 10.528C55.756 10.8 55.892 11.2 55.892 11.728V20.536C55.892 21.048 55.764 21.448 55.508 21.736C55.252 22.024 54.876 22.168 54.38 22.168ZM54.38 7.864C53.82 7.864 53.38 7.728 53.06 7.456C52.756 7.168 52.604 6.776 52.604 6.28C52.604 5.768 52.756 5.376 53.06 5.104C53.38 4.832 53.82 4.696 54.38 4.696C54.956 4.696 55.396 4.832 55.7 5.104C56.004 5.376 56.156 5.768 56.156 6.28C56.156 6.776 56.004 7.168 55.7 7.456C55.396 7.728 54.956 7.864 54.38 7.864ZM60.5452 22.192C60.0652 22.192 59.6972 22.064 59.4412 21.808C59.1852 21.536 59.0572 21.152 59.0572 20.656V11.584C59.0572 11.088 59.1852 10.712 59.4412 10.456C59.6972 10.2 60.0572 10.072 60.5212 10.072C60.9852 10.072 61.3452 10.2 61.6012 10.456C61.8572 10.712 61.9852 11.088 61.9852 11.584V13.336L61.7212 12.616C62.0412 11.816 62.5372 11.184 63.2092 10.72C63.8812 10.256 64.6812 10.024 65.6092 10.024C66.5532 10.024 67.3292 10.248 67.9372 10.696C68.5452 11.144 68.9692 11.832 69.2092 12.76H68.8732C69.1932 11.912 69.7212 11.248 70.4572 10.768C71.1932 10.272 72.0412 10.024 73.0012 10.024C73.8972 10.024 74.6332 10.2 75.2092 10.552C75.8012 10.904 76.2412 11.44 76.5292 12.16C76.8172 12.864 76.9612 13.76 76.9612 14.848V20.656C76.9612 21.152 76.8252 21.536 76.5532 21.808C76.2972 22.064 75.9292 22.192 75.4492 22.192C74.9692 22.192 74.6012 22.064 74.3452 21.808C74.0892 21.536 73.9612 21.152 73.9612 20.656V14.968C73.9612 14.072 73.8092 13.416 73.5052 13C73.2172 12.584 72.7212 12.376 72.0172 12.376C71.2332 12.376 70.6172 12.656 70.1692 13.216C69.7212 13.76 69.4972 14.52 69.4972 15.496V20.656C69.4972 21.152 69.3692 21.536 69.1132 21.808C68.8572 22.064 68.4892 22.192 68.0092 22.192C67.5292 22.192 67.1532 22.064 66.8812 21.808C66.6252 21.536 66.4972 21.152 66.4972 20.656V14.968C66.4972 14.072 66.3452 13.416 66.0412 13C65.7532 12.584 65.2652 12.376 64.5772 12.376C63.7932 12.376 63.1772 12.656 62.7292 13.216C62.2812 13.76 62.0572 14.52 62.0572 15.496V20.656C62.0572 21.68 61.5532 22.192 60.5452 22.192ZM81.5441 26.512C81.0641 26.512 80.6961 26.384 80.4401 26.128C80.1841 25.872 80.0561 25.496 80.0561 25V11.584C80.0561 11.088 80.1841 10.712 80.4401 10.456C80.6961 10.2 81.0561 10.072 81.5201 10.072C82.0001 10.072 82.3681 10.2 82.6241 10.456C82.8801 10.712 83.0081 11.088 83.0081 11.584V13.456L82.7441 12.736C82.9841 11.92 83.4721 11.264 84.2081 10.768C84.9601 10.272 85.8321 10.024 86.8241 10.024C87.8481 10.024 88.7441 10.272 89.5121 10.768C90.2961 11.264 90.9041 11.968 91.3361 12.88C91.7681 13.776 91.9841 14.856 91.9841 16.12C91.9841 17.368 91.7681 18.456 91.3361 19.384C90.9041 20.296 90.3041 21 89.5361 21.496C88.7681 21.992 87.8641 22.24 86.8241 22.24C85.8481 22.24 84.9921 22 84.2561 21.52C83.5201 21.024 83.0241 20.384 82.7681 19.6H83.0561V25C83.0561 25.496 82.9201 25.872 82.6481 26.128C82.3921 26.384 82.0241 26.512 81.5441 26.512ZM85.9841 19.96C86.5761 19.96 87.0961 19.816 87.5441 19.528C87.9921 19.24 88.3361 18.816 88.5761 18.256C88.8321 17.68 88.9601 16.968 88.9601 16.12C88.9601 14.84 88.6881 13.888 88.1441 13.264C87.6001 12.624 86.8801 12.304 85.9841 12.304C85.3921 12.304 84.8721 12.448 84.4241 12.736C83.9761 13.008 83.6241 13.432 83.3681 14.008C83.1281 14.568 83.0081 15.272 83.0081 16.12C83.0081 17.384 83.2801 18.344 83.8241 19C84.3681 19.64 85.0881 19.96 85.9841 19.96ZM98.4547 22.24C97.1267 22.24 96.1267 21.864 95.4547 21.112C94.7827 20.344 94.4467 19.224 94.4467 17.752V6.4C94.4467 5.904 94.5747 5.528 94.8307 5.272C95.0867 5.016 95.4547 4.888 95.9347 4.888C96.4147 4.888 96.7827 5.016 97.0387 5.272C97.3107 5.528 97.4467 5.904 97.4467 6.4V17.608C97.4467 18.344 97.5987 18.888 97.9027 19.24C98.2227 19.592 98.6707 19.768 99.2467 19.768C99.3747 19.768 99.4947 19.768 99.6067 19.768C99.7187 19.752 99.8307 19.736 99.9427 19.72C100.167 19.688 100.319 19.752 100.399 19.912C100.479 20.056 100.519 20.36 100.519 20.824C100.519 21.224 100.439 21.536 100.279 21.76C100.119 21.984 99.8547 22.12 99.4867 22.168C99.3267 22.184 99.1587 22.2 98.9827 22.216C98.8067 22.232 98.6307 22.24 98.4547 22.24ZM103.599 22.168C103.119 22.168 102.751 22.024 102.495 21.736C102.239 21.448 102.111 21.048 102.111 20.536V11.728C102.111 11.2 102.239 10.8 102.495 10.528C102.751 10.24 103.119 10.096 103.599 10.096C104.079 10.096 104.447 10.24 104.703 10.528C104.975 10.8 105.111 11.2 105.111 11.728V20.536C105.111 21.048 104.983 21.448 104.727 21.736C104.471 22.024 104.095 22.168 103.599 22.168ZM103.599 7.864C103.039 7.864 102.599 7.728 102.279 7.456C101.975 7.168 101.823 6.776 101.823 6.28C101.823 5.768 101.975 5.376 102.279 5.104C102.599 4.832 103.039 4.696 103.599 4.696C104.175 4.696 104.615 4.832 104.919 5.104C105.223 5.376 105.375 5.768 105.375 6.28C105.375 6.776 105.223 7.168 104.919 7.456C104.615 7.728 104.175 7.864 103.599 7.864ZM110.532 22.192C110.052 22.192 109.676 22.064 109.404 21.808C109.148 21.536 109.02 21.152 109.02 20.656V12.52H107.916C107.532 12.52 107.236 12.424 107.028 12.232C106.82 12.024 106.716 11.744 106.716 11.392C106.716 11.024 106.82 10.744 107.028 10.552C107.236 10.36 107.532 10.264 107.916 10.264H109.884L109.02 11.056V10.24C109.02 8.592 109.436 7.36 110.268 6.544C111.1 5.712 112.3 5.224 113.868 5.08L114.684 5.008C115.004 4.976 115.26 5.032 115.452 5.176C115.644 5.304 115.772 5.48 115.836 5.704C115.9 5.912 115.908 6.128 115.86 6.352C115.812 6.576 115.708 6.776 115.548 6.952C115.404 7.112 115.212 7.2 114.972 7.216L114.636 7.24C113.724 7.304 113.06 7.536 112.644 7.936C112.228 8.336 112.02 8.944 112.02 9.76V10.648L111.636 10.264H114.06C114.444 10.264 114.74 10.36 114.948 10.552C115.156 10.744 115.26 11.024 115.26 11.392C115.26 11.744 115.156 12.024 114.948 12.232C114.74 12.424 114.444 12.52 114.06 12.52H112.02V20.656C112.02 21.68 111.524 22.192 110.532 22.192ZM119.712 26.512C119.36 26.512 119.072 26.416 118.848 26.224C118.624 26.048 118.488 25.808 118.44 25.504C118.408 25.2 118.464 24.88 118.608 24.544L120.24 20.92V22.168L115.872 12.064C115.728 11.712 115.68 11.384 115.728 11.08C115.776 10.776 115.92 10.536 116.16 10.36C116.416 10.168 116.76 10.072 117.192 10.072C117.56 10.072 117.856 10.16 118.08 10.336C118.304 10.496 118.504 10.808 118.68 11.272L121.92 19.36H121.2L124.512 11.248C124.688 10.8 124.896 10.496 125.136 10.336C125.376 10.16 125.696 10.072 126.096 10.072C126.448 10.072 126.728 10.168 126.936 10.36C127.144 10.536 127.272 10.776 127.32 11.08C127.368 11.368 127.312 11.688 127.152 12.04L121.32 25.36C121.112 25.808 120.888 26.112 120.648 26.272C120.408 26.432 120.096 26.512 119.712 26.512Z" fill="white"/>
</g>
<defs>
<clipPath id="clip0_2_137">
<rect width="92" height="28" fill="white" transform="translate(36)"/>
</clipPath>
</defs>
</svg>
