<svg width="45" height="44" viewBox="0 0 45 44" fill="none" xmlns="http://www.w3.org/2000/svg">
<circle cx="22.5" cy="22" r="21" fill="#F1EDFF" stroke="#7F5CF4" stroke-width="2"/>
<path d="M28.2735 24.56C28.6281 24.56 28.9175 24.6813 29.1415 24.924C29.3841 25.1667 29.5055 25.4653 29.5055 25.82C29.5055 26.156 29.3841 26.4453 29.1415 26.688C28.9175 26.912 28.6281 27.024 28.2735 27.024H22.1695L21.1055 29.572C20.9935 29.8147 20.8348 30.0013 20.6295 30.132C20.4428 30.2627 20.2281 30.328 19.9855 30.328C19.6121 30.328 19.3041 30.216 19.0615 29.992C18.8375 29.7493 18.7255 29.4693 18.7255 29.152C18.7255 28.9467 18.7628 28.7693 18.8375 28.62L19.5095 27.024H17.0735C16.7188 27.024 16.4201 26.912 16.1775 26.688C15.9535 26.4453 15.8415 26.1467 15.8415 25.792C15.8415 25.4373 15.9535 25.148 16.1775 24.924C16.4201 24.6813 16.7188 24.56 17.0735 24.56H20.5175L21.8335 21.424H17.0735C16.7188 21.424 16.4201 21.312 16.1775 21.088C15.9535 20.8453 15.8415 20.5467 15.8415 20.192C15.8415 19.8373 15.9535 19.548 16.1775 19.324C16.4201 19.0813 16.7188 18.96 17.0735 18.96H22.8415L23.9055 16.412C23.9988 16.1693 24.1388 15.9827 24.3255 15.852C24.5308 15.7213 24.7548 15.656 24.9975 15.656C25.3895 15.656 25.6975 15.768 25.9215 15.992C26.1455 16.216 26.2575 16.496 26.2575 16.832C26.2575 17.0373 26.2201 17.2147 26.1455 17.364L25.4735 18.96H28.2735C28.6281 18.96 28.9175 19.0813 29.1415 19.324C29.3841 19.5667 29.5055 19.8653 29.5055 20.22C29.5055 20.556 29.3841 20.8453 29.1415 21.088C28.9175 21.312 28.6281 21.424 28.2735 21.424H24.4655L23.1775 24.56H28.2735Z" fill="#7F5CF4"/>
</svg>
