<svg width="583" height="64" viewBox="0 0 583 64" fill="none" xmlns="http://www.w3.org/2000/svg">
<path d="M10 1H290V63H1V10C1 5.02944 5.02944 1 10 1Z" stroke="#444444" stroke-width="2" stroke-linecap="round"/>
<path d="M292 1H573C577.971 1 582 5.02944 582 10V63H292V1Z" stroke="#444444" stroke-width="2" stroke-linecap="round"/>
<path d="M65.5336 25.2C64.0669 25.2 62.8069 24.9067 61.7536 24.32C60.7136 23.72 59.9136 22.88 59.3536 21.8C58.7936 20.7067 58.5136 19.42 58.5136 17.94C58.5136 16.8333 58.6736 15.84 58.9936 14.96C59.3136 14.0667 59.7736 13.3067 60.3736 12.68C60.9736 12.04 61.7069 11.5533 62.5736 11.22C63.4536 10.8733 64.4403 10.7 65.5336 10.7C66.2669 10.7 66.9869 10.7933 67.6936 10.98C68.4003 11.1667 69.0203 11.4333 69.5536 11.78C69.8336 11.9533 70.0203 12.1667 70.1136 12.42C70.2069 12.66 70.2269 12.9 70.1736 13.14C70.1203 13.3667 70.0069 13.56 69.8336 13.72C69.6736 13.88 69.4669 13.9733 69.2136 14C68.9736 14.0133 68.7069 13.9267 68.4136 13.74C68.0003 13.4733 67.5536 13.28 67.0736 13.16C66.5936 13.04 66.1069 12.98 65.6136 12.98C64.6669 12.98 63.8669 13.1733 63.2136 13.56C62.5603 13.9467 62.0669 14.5067 61.7336 15.24C61.4003 15.9733 61.2336 16.8733 61.2336 17.94C61.2336 18.9933 61.4003 19.8933 61.7336 20.64C62.0669 21.3867 62.5603 21.9533 63.2136 22.34C63.8669 22.7267 64.6669 22.92 65.6136 22.92C66.1203 22.92 66.6203 22.86 67.1136 22.74C67.6069 22.6067 68.0736 22.4067 68.5136 22.14C68.8069 21.9667 69.0669 21.8933 69.2936 21.92C69.5336 21.9333 69.7336 22.0133 69.8936 22.16C70.0536 22.3067 70.1603 22.4933 70.2136 22.72C70.2669 22.9333 70.2536 23.16 70.1736 23.4C70.0936 23.6267 69.9336 23.8267 69.6936 24C69.1603 24.3867 68.5203 24.6867 67.7736 24.9C67.0403 25.1 66.2936 25.2 65.5336 25.2ZM75.6134 25.2C74.8001 25.2 74.1268 25.0533 73.5934 24.76C73.0601 24.4533 72.6601 24 72.3934 23.4C72.1401 22.8 72.0134 22.0533 72.0134 21.16V16.32C72.0134 15.8933 72.1201 15.58 72.3334 15.38C72.5468 15.1667 72.8534 15.06 73.2534 15.06C73.6534 15.06 73.9601 15.1667 74.1734 15.38C74.4001 15.58 74.5134 15.8933 74.5134 16.32V21.2C74.5134 21.8933 74.6534 22.4067 74.9334 22.74C75.2134 23.0733 75.6601 23.24 76.2734 23.24C76.9401 23.24 77.4868 23.0133 77.9134 22.56C78.3401 22.0933 78.5534 21.48 78.5534 20.72V16.32C78.5534 15.8933 78.6601 15.58 78.8734 15.38C79.0868 15.1667 79.3934 15.06 79.7934 15.06C80.1934 15.06 80.5001 15.1667 80.7134 15.38C80.9401 15.58 81.0534 15.8933 81.0534 16.32V23.88C81.0534 24.7333 80.6468 25.16 79.8334 25.16C79.4468 25.16 79.1468 25.0533 78.9334 24.84C78.7201 24.6133 78.6134 24.2933 78.6134 23.88V22.36L78.8934 22.96C78.6134 23.68 78.1868 24.2333 77.6134 24.62C77.0534 25.0067 76.3868 25.2 75.6134 25.2ZM84.9355 25.16C84.5221 25.16 84.2021 25.0533 83.9755 24.84C83.7621 24.6133 83.6555 24.2933 83.6555 23.88V16.32C83.6555 15.9067 83.7621 15.5933 83.9755 15.38C84.1888 15.1667 84.4888 15.06 84.8755 15.06C85.2621 15.06 85.5621 15.1667 85.7755 15.38C85.9888 15.5933 86.0955 15.9067 86.0955 16.32V17.58H85.8955C86.0821 16.78 86.4488 16.1733 86.9955 15.76C87.5421 15.3467 88.2688 15.1 89.1755 15.02C89.4555 14.9933 89.6755 15.0667 89.8355 15.24C90.0088 15.4 90.1088 15.6533 90.1355 16C90.1621 16.3333 90.0821 16.6067 89.8955 16.82C89.7221 17.02 89.4555 17.14 89.0955 17.18L88.6555 17.22C87.8421 17.3 87.2288 17.5533 86.8155 17.98C86.4021 18.3933 86.1955 18.98 86.1955 19.74V23.88C86.1955 24.2933 86.0888 24.6133 85.8755 24.84C85.6621 25.0533 85.3488 25.16 84.9355 25.16ZM92.7675 25.16C92.3542 25.16 92.0342 25.0533 91.8075 24.84C91.5942 24.6133 91.4875 24.2933 91.4875 23.88V16.32C91.4875 15.9067 91.5942 15.5933 91.8075 15.38C92.0208 15.1667 92.3208 15.06 92.7075 15.06C93.0942 15.06 93.3942 15.1667 93.6075 15.38C93.8208 15.5933 93.9275 15.9067 93.9275 16.32V17.58H93.7275C93.9142 16.78 94.2808 16.1733 94.8275 15.76C95.3742 15.3467 96.1008 15.1 97.0075 15.02C97.2875 14.9933 97.5075 15.0667 97.6675 15.24C97.8408 15.4 97.9408 15.6533 97.9675 16C97.9942 16.3333 97.9142 16.6067 97.7275 16.82C97.5542 17.02 97.2875 17.14 96.9275 17.18L96.4875 17.22C95.6742 17.3 95.0608 17.5533 94.6475 17.98C94.2342 18.3933 94.0275 18.98 94.0275 19.74V23.88C94.0275 24.2933 93.9208 24.6133 93.7075 24.84C93.4942 25.0533 93.1808 25.16 92.7675 25.16ZM103.983 25.2C102.877 25.2 101.923 24.9933 101.123 24.58C100.323 24.1667 99.7033 23.58 99.2633 22.82C98.8366 22.06 98.6233 21.16 98.6233 20.12C98.6233 19.1067 98.8299 18.22 99.2433 17.46C99.6699 16.7 100.25 16.1067 100.983 15.68C101.73 15.24 102.577 15.02 103.523 15.02C104.217 15.02 104.837 15.1333 105.383 15.36C105.943 15.5867 106.417 15.9133 106.803 16.34C107.203 16.7667 107.503 17.2867 107.703 17.9C107.917 18.5 108.023 19.18 108.023 19.94C108.023 20.18 107.937 20.3667 107.763 20.5C107.603 20.62 107.37 20.68 107.063 20.68H100.643V19.24H106.263L105.943 19.54C105.943 18.9267 105.85 18.4133 105.663 18C105.49 17.5867 105.23 17.2733 104.883 17.06C104.55 16.8333 104.13 16.72 103.623 16.72C103.063 16.72 102.583 16.8533 102.183 17.12C101.797 17.3733 101.497 17.74 101.283 18.22C101.083 18.6867 100.983 19.2467 100.983 19.9V20.04C100.983 21.1333 101.237 21.9533 101.743 22.5C102.263 23.0333 103.023 23.3 104.023 23.3C104.37 23.3 104.757 23.26 105.183 23.18C105.623 23.0867 106.037 22.9333 106.423 22.72C106.703 22.56 106.95 22.4933 107.163 22.52C107.377 22.5333 107.543 22.6067 107.663 22.74C107.797 22.8733 107.877 23.04 107.903 23.24C107.93 23.4267 107.89 23.62 107.783 23.82C107.69 24.02 107.523 24.1933 107.283 24.34C106.817 24.6333 106.277 24.8533 105.663 25C105.063 25.1333 104.503 25.2 103.983 25.2ZM111.243 25.16C110.843 25.16 110.536 25.0533 110.323 24.84C110.11 24.6133 110.003 24.2933 110.003 23.88V16.32C110.003 15.9067 110.11 15.5933 110.323 15.38C110.536 15.1667 110.836 15.06 111.223 15.06C111.61 15.06 111.91 15.1667 112.123 15.38C112.336 15.5933 112.443 15.9067 112.443 16.32V17.68L112.223 17.18C112.516 16.4733 112.97 15.94 113.583 15.58C114.21 15.2067 114.916 15.02 115.703 15.02C116.49 15.02 117.136 15.1667 117.643 15.46C118.15 15.7533 118.53 16.2 118.783 16.8C119.036 17.3867 119.163 18.1333 119.163 19.04V23.88C119.163 24.2933 119.056 24.6133 118.843 24.84C118.63 25.0533 118.323 25.16 117.923 25.16C117.523 25.16 117.21 25.0533 116.983 24.84C116.77 24.6133 116.663 24.2933 116.663 23.88V19.16C116.663 18.4 116.516 17.8467 116.223 17.5C115.943 17.1533 115.503 16.98 114.903 16.98C114.17 16.98 113.583 17.2133 113.143 17.68C112.716 18.1333 112.503 18.74 112.503 19.5V23.88C112.503 24.7333 112.083 25.16 111.243 25.16ZM126.182 25.2C125.316 25.2 124.589 25.0533 124.002 24.76C123.429 24.4667 123.002 24.04 122.722 23.48C122.442 22.9067 122.302 22.2 122.302 21.36V17.1H121.262C120.942 17.1 120.696 17.02 120.522 16.86C120.349 16.6867 120.262 16.4533 120.262 16.16C120.262 15.8533 120.349 15.62 120.522 15.46C120.696 15.3 120.942 15.22 121.262 15.22H122.302V13.4C122.302 12.9867 122.409 12.6733 122.622 12.46C122.849 12.2467 123.162 12.14 123.562 12.14C123.962 12.14 124.269 12.2467 124.482 12.46C124.696 12.6733 124.802 12.9867 124.802 13.4V15.22H126.922C127.242 15.22 127.489 15.3 127.662 15.46C127.836 15.62 127.922 15.8533 127.922 16.16C127.922 16.4533 127.836 16.6867 127.662 16.86C127.489 17.02 127.242 17.1 126.922 17.1H124.802V21.22C124.802 21.86 124.942 22.34 125.222 22.66C125.502 22.98 125.956 23.14 126.582 23.14C126.809 23.14 127.009 23.12 127.182 23.08C127.356 23.04 127.509 23.0133 127.642 23C127.802 22.9867 127.936 23.04 128.042 23.16C128.149 23.2667 128.202 23.4933 128.202 23.84C128.202 24.1067 128.156 24.3467 128.062 24.56C127.982 24.76 127.829 24.9 127.602 24.98C127.429 25.0333 127.202 25.08 126.922 25.12C126.642 25.1733 126.396 25.2 126.182 25.2ZM139.628 25.2C138.521 25.2 137.568 24.9933 136.768 24.58C135.968 24.1667 135.348 23.58 134.908 22.82C134.481 22.06 134.268 21.16 134.268 20.12C134.268 19.1067 134.474 18.22 134.888 17.46C135.314 16.7 135.894 16.1067 136.628 15.68C137.374 15.24 138.221 15.02 139.168 15.02C139.861 15.02 140.481 15.1333 141.028 15.36C141.588 15.5867 142.061 15.9133 142.448 16.34C142.848 16.7667 143.148 17.2867 143.348 17.9C143.561 18.5 143.668 19.18 143.668 19.94C143.668 20.18 143.581 20.3667 143.408 20.5C143.248 20.62 143.014 20.68 142.708 20.68H136.288V19.24H141.908L141.588 19.54C141.588 18.9267 141.494 18.4133 141.308 18C141.134 17.5867 140.874 17.2733 140.528 17.06C140.194 16.8333 139.774 16.72 139.268 16.72C138.708 16.72 138.228 16.8533 137.828 17.12C137.441 17.3733 137.141 17.74 136.928 18.22C136.728 18.6867 136.628 19.2467 136.628 19.9V20.04C136.628 21.1333 136.881 21.9533 137.388 22.5C137.908 23.0333 138.668 23.3 139.668 23.3C140.014 23.3 140.401 23.26 140.828 23.18C141.268 23.0867 141.681 22.9333 142.068 22.72C142.348 22.56 142.594 22.4933 142.808 22.52C143.021 22.5333 143.188 22.6067 143.308 22.74C143.441 22.8733 143.521 23.04 143.548 23.24C143.574 23.4267 143.534 23.62 143.428 23.82C143.334 24.02 143.168 24.1933 142.928 24.34C142.461 24.6333 141.921 24.8533 141.308 25C140.708 25.1333 140.148 25.2 139.628 25.2ZM146.269 25.1C145.976 25.1 145.729 25.02 145.529 24.86C145.342 24.6867 145.242 24.4667 145.229 24.2C145.229 23.9333 145.342 23.6533 145.569 23.36L148.809 19.36V20.54L145.769 16.8C145.529 16.5067 145.416 16.2267 145.429 15.96C145.442 15.6933 145.542 15.48 145.729 15.32C145.929 15.1467 146.176 15.06 146.469 15.06C146.776 15.06 147.029 15.1133 147.229 15.22C147.442 15.3267 147.636 15.4933 147.809 15.72L150.209 18.8H149.329L151.749 15.72C151.936 15.4933 152.129 15.3267 152.329 15.22C152.529 15.1133 152.776 15.06 153.069 15.06C153.376 15.06 153.622 15.1467 153.809 15.32C153.996 15.4933 154.089 15.7133 154.089 15.98C154.102 16.2467 153.989 16.5267 153.749 16.82L150.729 20.52V19.4L153.969 23.36C154.209 23.64 154.322 23.9133 154.309 24.18C154.296 24.4467 154.189 24.6667 153.989 24.84C153.802 25.0133 153.556 25.1 153.249 25.1C152.956 25.1 152.709 25.0467 152.509 24.94C152.309 24.8333 152.116 24.6667 151.929 24.44L149.329 21.16H150.169L147.589 24.44C147.416 24.6533 147.229 24.82 147.029 24.94C146.829 25.0467 146.576 25.1 146.269 25.1ZM157.747 28.76C157.347 28.76 157.04 28.6533 156.827 28.44C156.614 28.2267 156.507 27.9133 156.507 27.5V16.32C156.507 15.9067 156.614 15.5933 156.827 15.38C157.04 15.1667 157.34 15.06 157.727 15.06C158.127 15.06 158.434 15.1667 158.647 15.38C158.86 15.5933 158.967 15.9067 158.967 16.32V17.88L158.747 17.28C158.947 16.6 159.354 16.0533 159.967 15.64C160.594 15.2267 161.32 15.02 162.147 15.02C163 15.02 163.747 15.2267 164.387 15.64C165.04 16.0533 165.547 16.64 165.907 17.4C166.267 18.1467 166.447 19.0467 166.447 20.1C166.447 21.14 166.267 22.0467 165.907 22.82C165.547 23.58 165.047 24.1667 164.407 24.58C163.767 24.9933 163.014 25.2 162.147 25.2C161.334 25.2 160.62 25 160.007 24.6C159.394 24.1867 158.98 23.6533 158.767 23H159.007V27.5C159.007 27.9133 158.894 28.2267 158.667 28.44C158.454 28.6533 158.147 28.76 157.747 28.76ZM161.447 23.3C161.94 23.3 162.374 23.18 162.747 22.94C163.12 22.7 163.407 22.3467 163.607 21.88C163.82 21.4 163.927 20.8067 163.927 20.1C163.927 19.0333 163.7 18.24 163.247 17.72C162.794 17.1867 162.194 16.92 161.447 16.92C160.954 16.92 160.52 17.04 160.147 17.28C159.774 17.5067 159.48 17.86 159.267 18.34C159.067 18.8067 158.967 19.3933 158.967 20.1C158.967 21.1533 159.194 21.9533 159.647 22.5C160.1 23.0333 160.7 23.3 161.447 23.3ZM169.779 25.16C169.366 25.16 169.046 25.0533 168.819 24.84C168.606 24.6133 168.499 24.2933 168.499 23.88V16.32C168.499 15.9067 168.606 15.5933 168.819 15.38C169.033 15.1667 169.333 15.06 169.719 15.06C170.106 15.06 170.406 15.1667 170.619 15.38C170.833 15.5933 170.939 15.9067 170.939 16.32V17.58H170.739C170.926 16.78 171.293 16.1733 171.839 15.76C172.386 15.3467 173.113 15.1 174.019 15.02C174.299 14.9933 174.519 15.0667 174.679 15.24C174.853 15.4 174.953 15.6533 174.979 16C175.006 16.3333 174.926 16.6067 174.739 16.82C174.566 17.02 174.299 17.14 173.939 17.18L173.499 17.22C172.686 17.3 172.073 17.5533 171.659 17.98C171.246 18.3933 171.039 18.98 171.039 19.74V23.88C171.039 24.2933 170.933 24.6133 170.719 24.84C170.506 25.0533 170.193 25.16 169.779 25.16ZM180.995 25.2C179.888 25.2 178.935 24.9933 178.135 24.58C177.335 24.1667 176.715 23.58 176.275 22.82C175.848 22.06 175.635 21.16 175.635 20.12C175.635 19.1067 175.842 18.22 176.255 17.46C176.682 16.7 177.262 16.1067 177.995 15.68C178.742 15.24 179.588 15.02 180.535 15.02C181.228 15.02 181.848 15.1333 182.395 15.36C182.955 15.5867 183.428 15.9133 183.815 16.34C184.215 16.7667 184.515 17.2867 184.715 17.9C184.928 18.5 185.035 19.18 185.035 19.94C185.035 20.18 184.948 20.3667 184.775 20.5C184.615 20.62 184.382 20.68 184.075 20.68H177.655V19.24H183.275L182.955 19.54C182.955 18.9267 182.862 18.4133 182.675 18C182.502 17.5867 182.242 17.2733 181.895 17.06C181.562 16.8333 181.142 16.72 180.635 16.72C180.075 16.72 179.595 16.8533 179.195 17.12C178.808 17.3733 178.508 17.74 178.295 18.22C178.095 18.6867 177.995 19.2467 177.995 19.9V20.04C177.995 21.1333 178.248 21.9533 178.755 22.5C179.275 23.0333 180.035 23.3 181.035 23.3C181.382 23.3 181.768 23.26 182.195 23.18C182.635 23.0867 183.048 22.9333 183.435 22.72C183.715 22.56 183.962 22.4933 184.175 22.52C184.388 22.5333 184.555 22.6067 184.675 22.74C184.808 22.8733 184.888 23.04 184.915 23.24C184.942 23.4267 184.902 23.62 184.795 23.82C184.702 24.02 184.535 24.1933 184.295 24.34C183.828 24.6333 183.288 24.8533 182.675 25C182.075 25.1333 181.515 25.2 180.995 25.2ZM190.595 25.2C190.022 25.2 189.415 25.14 188.775 25.02C188.135 24.9 187.562 24.6933 187.055 24.4C186.842 24.2667 186.688 24.1133 186.595 23.94C186.515 23.7533 186.482 23.5733 186.495 23.4C186.522 23.2133 186.588 23.0533 186.695 22.92C186.815 22.7867 186.962 22.7 187.135 22.66C187.322 22.62 187.522 22.6533 187.735 22.76C188.268 23.0133 188.768 23.1933 189.235 23.3C189.702 23.3933 190.162 23.44 190.615 23.44C191.255 23.44 191.728 23.3333 192.035 23.12C192.355 22.8933 192.515 22.6 192.515 22.24C192.515 21.9333 192.408 21.7 192.195 21.54C191.995 21.3667 191.688 21.24 191.275 21.16L189.275 20.78C188.448 20.62 187.815 20.32 187.375 19.88C186.948 19.4267 186.735 18.8467 186.735 18.14C186.735 17.5 186.908 16.9467 187.255 16.48C187.615 16.0133 188.108 15.6533 188.735 15.4C189.362 15.1467 190.082 15.02 190.895 15.02C191.482 15.02 192.028 15.0867 192.535 15.22C193.055 15.34 193.555 15.5333 194.035 15.8C194.235 15.9067 194.368 16.0467 194.435 16.22C194.515 16.3933 194.535 16.5733 194.495 16.76C194.455 16.9333 194.375 17.0933 194.255 17.24C194.135 17.3733 193.982 17.46 193.795 17.5C193.622 17.5267 193.422 17.4867 193.195 17.38C192.782 17.1667 192.382 17.0133 191.995 16.92C191.622 16.8267 191.262 16.78 190.915 16.78C190.262 16.78 189.775 16.8933 189.455 17.12C189.148 17.3467 188.995 17.6467 188.995 18.02C188.995 18.3 189.088 18.5333 189.275 18.72C189.462 18.9067 189.748 19.0333 190.135 19.1L192.135 19.48C193.002 19.64 193.655 19.9333 194.095 20.36C194.548 20.7867 194.775 21.36 194.775 22.08C194.775 23.0533 194.395 23.82 193.635 24.38C192.875 24.9267 191.862 25.2 190.595 25.2ZM200.36 25.2C199.787 25.2 199.18 25.14 198.54 25.02C197.9 24.9 197.327 24.6933 196.82 24.4C196.607 24.2667 196.454 24.1133 196.36 23.94C196.28 23.7533 196.247 23.5733 196.26 23.4C196.287 23.2133 196.354 23.0533 196.46 22.92C196.58 22.7867 196.727 22.7 196.9 22.66C197.087 22.62 197.287 22.6533 197.5 22.76C198.034 23.0133 198.534 23.1933 199 23.3C199.467 23.3933 199.927 23.44 200.38 23.44C201.02 23.44 201.494 23.3333 201.8 23.12C202.12 22.8933 202.28 22.6 202.28 22.24C202.28 21.9333 202.174 21.7 201.96 21.54C201.76 21.3667 201.454 21.24 201.04 21.16L199.04 20.78C198.214 20.62 197.58 20.32 197.14 19.88C196.714 19.4267 196.5 18.8467 196.5 18.14C196.5 17.5 196.674 16.9467 197.02 16.48C197.38 16.0133 197.874 15.6533 198.5 15.4C199.127 15.1467 199.847 15.02 200.66 15.02C201.247 15.02 201.794 15.0867 202.3 15.22C202.82 15.34 203.32 15.5333 203.8 15.8C204 15.9067 204.134 16.0467 204.2 16.22C204.28 16.3933 204.3 16.5733 204.26 16.76C204.22 16.9333 204.14 17.0933 204.02 17.24C203.9 17.3733 203.747 17.46 203.56 17.5C203.387 17.5267 203.187 17.4867 202.96 17.38C202.547 17.1667 202.147 17.0133 201.76 16.92C201.387 16.8267 201.027 16.78 200.68 16.78C200.027 16.78 199.54 16.8933 199.22 17.12C198.914 17.3467 198.76 17.6467 198.76 18.02C198.76 18.3 198.854 18.5333 199.04 18.72C199.227 18.9067 199.514 19.0333 199.9 19.1L201.9 19.48C202.767 19.64 203.42 19.9333 203.86 20.36C204.314 20.7867 204.54 21.36 204.54 22.08C204.54 23.0533 204.16 23.82 203.4 24.38C202.64 24.9267 201.627 25.2 200.36 25.2ZM207.786 25.14C207.386 25.14 207.079 25.02 206.866 24.78C206.653 24.54 206.546 24.2067 206.546 23.78V16.44C206.546 16 206.653 15.6667 206.866 15.44C207.079 15.2 207.386 15.08 207.786 15.08C208.186 15.08 208.493 15.2 208.706 15.44C208.933 15.6667 209.046 16 209.046 16.44V23.78C209.046 24.2067 208.939 24.54 208.726 24.78C208.513 25.02 208.199 25.14 207.786 25.14ZM207.786 13.22C207.319 13.22 206.953 13.1067 206.686 12.88C206.433 12.64 206.306 12.3133 206.306 11.9C206.306 11.4733 206.433 11.1467 206.686 10.92C206.953 10.6933 207.319 10.58 207.786 10.58C208.266 10.58 208.633 10.6933 208.886 10.92C209.139 11.1467 209.266 11.4733 209.266 11.9C209.266 12.3133 209.139 12.64 208.886 12.88C208.633 13.1067 208.266 13.22 207.786 13.22ZM216.104 25.2C215.09 25.2 214.21 24.9933 213.464 24.58C212.717 24.1667 212.137 23.58 211.724 22.82C211.31 22.0467 211.104 21.14 211.104 20.1C211.104 19.3133 211.217 18.6133 211.444 18C211.684 17.3733 212.024 16.84 212.464 16.4C212.904 15.9467 213.43 15.6067 214.044 15.38C214.657 15.14 215.344 15.02 216.104 15.02C217.117 15.02 217.997 15.2267 218.744 15.64C219.49 16.0533 220.07 16.64 220.484 17.4C220.897 18.16 221.104 19.06 221.104 20.1C221.104 20.8867 220.984 21.5933 220.744 22.22C220.517 22.8467 220.184 23.3867 219.744 23.84C219.304 24.28 218.777 24.62 218.164 24.86C217.55 25.0867 216.864 25.2 216.104 25.2ZM216.104 23.3C216.597 23.3 217.03 23.18 217.404 22.94C217.777 22.7 218.064 22.3467 218.264 21.88C218.477 21.4 218.584 20.8067 218.584 20.1C218.584 19.0333 218.357 18.24 217.904 17.72C217.45 17.1867 216.85 16.92 216.104 16.92C215.61 16.92 215.177 17.04 214.804 17.28C214.43 17.5067 214.137 17.86 213.924 18.34C213.724 18.8067 213.624 19.3933 213.624 20.1C213.624 21.1533 213.85 21.9533 214.304 22.5C214.757 23.0333 215.357 23.3 216.104 23.3ZM224.407 25.16C224.007 25.16 223.701 25.0533 223.487 24.84C223.274 24.6133 223.167 24.2933 223.167 23.88V16.32C223.167 15.9067 223.274 15.5933 223.487 15.38C223.701 15.1667 224.001 15.06 224.387 15.06C224.774 15.06 225.074 15.1667 225.287 15.38C225.501 15.5933 225.607 15.9067 225.607 16.32V17.68L225.387 17.18C225.681 16.4733 226.134 15.94 226.747 15.58C227.374 15.2067 228.081 15.02 228.867 15.02C229.654 15.02 230.301 15.1667 230.807 15.46C231.314 15.7533 231.694 16.2 231.947 16.8C232.201 17.3867 232.327 18.1333 232.327 19.04V23.88C232.327 24.2933 232.221 24.6133 232.007 24.84C231.794 25.0533 231.487 25.16 231.087 25.16C230.687 25.16 230.374 25.0533 230.147 24.84C229.934 24.6133 229.827 24.2933 229.827 23.88V19.16C229.827 18.4 229.681 17.8467 229.387 17.5C229.107 17.1533 228.667 16.98 228.067 16.98C227.334 16.98 226.747 17.2133 226.307 17.68C225.881 18.1333 225.667 18.74 225.667 19.5V23.88C225.667 24.7333 225.247 25.16 224.407 25.16Z" fill="#646464"/>
<path d="M360.466 25.16C360.053 25.16 359.733 25.0467 359.506 24.82C359.293 24.58 359.186 24.2533 359.186 23.84V13.04H355.286C354.939 13.04 354.666 12.9467 354.466 12.76C354.279 12.56 354.186 12.2933 354.186 11.96C354.186 11.6133 354.279 11.3533 354.466 11.18C354.666 10.9933 354.939 10.9 355.286 10.9H365.646C365.993 10.9 366.259 10.9933 366.446 11.18C366.646 11.3533 366.746 11.6133 366.746 11.96C366.746 12.2933 366.646 12.56 366.446 12.76C366.259 12.9467 365.993 13.04 365.646 13.04H361.746V23.84C361.746 24.2533 361.639 24.58 361.426 24.82C361.213 25.0467 360.893 25.16 360.466 25.16ZM369.625 25.2C368.919 25.2 368.285 25.0667 367.725 24.8C367.179 24.52 366.745 24.1467 366.425 23.68C366.119 23.2133 365.965 22.6867 365.965 22.1C365.965 21.38 366.152 20.8133 366.525 20.4C366.899 19.9733 367.505 19.6667 368.345 19.48C369.185 19.2933 370.312 19.2 371.725 19.2H372.725V20.64H371.745C370.919 20.64 370.259 20.68 369.765 20.76C369.272 20.84 368.919 20.98 368.705 21.18C368.505 21.3667 368.405 21.6333 368.405 21.98C368.405 22.42 368.559 22.78 368.865 23.06C369.172 23.34 369.599 23.48 370.145 23.48C370.585 23.48 370.972 23.38 371.305 23.18C371.652 22.9667 371.925 22.68 372.125 22.32C372.325 21.96 372.425 21.5467 372.425 21.08V18.78C372.425 18.1133 372.279 17.6333 371.985 17.34C371.692 17.0467 371.199 16.9 370.505 16.9C370.119 16.9 369.699 16.9467 369.245 17.04C368.805 17.1333 368.339 17.2933 367.845 17.52C367.592 17.64 367.365 17.6733 367.165 17.62C366.979 17.5667 366.832 17.46 366.725 17.3C366.619 17.1267 366.565 16.94 366.565 16.74C366.565 16.54 366.619 16.3467 366.725 16.16C366.832 15.96 367.012 15.8133 367.265 15.72C367.879 15.4667 368.465 15.2867 369.025 15.18C369.599 15.0733 370.119 15.02 370.585 15.02C371.545 15.02 372.332 15.1667 372.945 15.46C373.572 15.7533 374.039 16.2 374.345 16.8C374.652 17.3867 374.805 18.1467 374.805 19.08V23.88C374.805 24.2933 374.705 24.6133 374.505 24.84C374.305 25.0533 374.019 25.16 373.645 25.16C373.272 25.16 372.979 25.0533 372.765 24.84C372.565 24.6133 372.465 24.2933 372.465 23.88V22.92H372.625C372.532 23.3867 372.345 23.7933 372.065 24.14C371.799 24.4733 371.459 24.7333 371.045 24.92C370.632 25.1067 370.159 25.2 369.625 25.2ZM378.623 25.16C378.21 25.16 377.89 25.0533 377.663 24.84C377.45 24.6133 377.343 24.2933 377.343 23.88V16.32C377.343 15.9067 377.45 15.5933 377.663 15.38C377.876 15.1667 378.176 15.06 378.563 15.06C378.95 15.06 379.25 15.1667 379.463 15.38C379.676 15.5933 379.783 15.9067 379.783 16.32V17.58H379.583C379.77 16.78 380.136 16.1733 380.683 15.76C381.23 15.3467 381.956 15.1 382.863 15.02C383.143 14.9933 383.363 15.0667 383.523 15.24C383.696 15.4 383.796 15.6533 383.823 16C383.85 16.3333 383.77 16.6067 383.583 16.82C383.41 17.02 383.143 17.14 382.783 17.18L382.343 17.22C381.53 17.3 380.916 17.5533 380.503 17.98C380.09 18.3933 379.883 18.98 379.883 19.74V23.88C379.883 24.2933 379.776 24.6133 379.563 24.84C379.35 25.0533 379.036 25.16 378.623 25.16ZM389.579 28.8C388.859 28.8 388.159 28.7333 387.479 28.6C386.812 28.4667 386.205 28.26 385.659 27.98C385.405 27.8467 385.232 27.6867 385.139 27.5C385.059 27.3133 385.032 27.12 385.059 26.92C385.099 26.7333 385.179 26.5667 385.299 26.42C385.432 26.2733 385.592 26.1733 385.779 26.12C385.965 26.0667 386.159 26.0933 386.359 26.2C386.945 26.4933 387.499 26.68 388.019 26.76C388.552 26.8533 389.005 26.9 389.379 26.9C390.272 26.9 390.939 26.68 391.379 26.24C391.832 25.8133 392.059 25.1733 392.059 24.32V22.52H392.239C392.039 23.2 391.619 23.7467 390.979 24.16C390.352 24.56 389.639 24.76 388.839 24.76C387.959 24.76 387.192 24.56 386.539 24.16C385.885 23.7467 385.379 23.1733 385.019 22.44C384.659 21.7067 384.479 20.8533 384.479 19.88C384.479 19.1467 384.579 18.4867 384.779 17.9C384.992 17.3 385.285 16.7867 385.659 16.36C386.045 15.9333 386.505 15.6067 387.039 15.38C387.585 15.14 388.185 15.02 388.839 15.02C389.665 15.02 390.385 15.2267 390.999 15.64C391.625 16.04 392.032 16.5733 392.219 17.24L392.019 17.74V16.32C392.019 15.9067 392.125 15.5933 392.339 15.38C392.565 15.1667 392.872 15.06 393.259 15.06C393.659 15.06 393.965 15.1667 394.179 15.38C394.392 15.5933 394.499 15.9067 394.499 16.32V24.02C394.499 25.6067 394.079 26.8 393.239 27.6C392.399 28.4 391.179 28.8 389.579 28.8ZM389.519 22.86C390.039 22.86 390.485 22.74 390.859 22.5C391.232 22.26 391.519 21.92 391.719 21.48C391.932 21.0267 392.039 20.4933 392.039 19.88C392.039 18.96 391.812 18.24 391.359 17.72C390.905 17.1867 390.292 16.92 389.519 16.92C388.999 16.92 388.552 17.04 388.179 17.28C387.805 17.52 387.512 17.86 387.299 18.3C387.099 18.74 386.999 19.2667 386.999 19.88C386.999 20.8 387.225 21.5267 387.679 22.06C388.132 22.5933 388.745 22.86 389.519 22.86ZM401.909 25.2C400.802 25.2 399.849 24.9933 399.049 24.58C398.249 24.1667 397.629 23.58 397.189 22.82C396.762 22.06 396.549 21.16 396.549 20.12C396.549 19.1067 396.756 18.22 397.169 17.46C397.596 16.7 398.176 16.1067 398.909 15.68C399.656 15.24 400.502 15.02 401.449 15.02C402.142 15.02 402.762 15.1333 403.309 15.36C403.869 15.5867 404.342 15.9133 404.729 16.34C405.129 16.7667 405.429 17.2867 405.629 17.9C405.842 18.5 405.949 19.18 405.949 19.94C405.949 20.18 405.862 20.3667 405.689 20.5C405.529 20.62 405.296 20.68 404.989 20.68H398.569V19.24H404.189L403.869 19.54C403.869 18.9267 403.776 18.4133 403.589 18C403.416 17.5867 403.156 17.2733 402.809 17.06C402.476 16.8333 402.056 16.72 401.549 16.72C400.989 16.72 400.509 16.8533 400.109 17.12C399.722 17.3733 399.422 17.74 399.209 18.22C399.009 18.6867 398.909 19.2467 398.909 19.9V20.04C398.909 21.1333 399.162 21.9533 399.669 22.5C400.189 23.0333 400.949 23.3 401.949 23.3C402.296 23.3 402.682 23.26 403.109 23.18C403.549 23.0867 403.962 22.9333 404.349 22.72C404.629 22.56 404.876 22.4933 405.089 22.52C405.302 22.5333 405.469 22.6067 405.589 22.74C405.722 22.8733 405.802 23.04 405.829 23.24C405.856 23.4267 405.816 23.62 405.709 23.82C405.616 24.02 405.449 24.1933 405.209 24.34C404.742 24.6333 404.202 24.8533 403.589 25C402.989 25.1333 402.429 25.2 401.909 25.2ZM412.37 25.2C411.503 25.2 410.777 25.0533 410.19 24.76C409.617 24.4667 409.19 24.04 408.91 23.48C408.63 22.9067 408.49 22.2 408.49 21.36V17.1H407.45C407.13 17.1 406.883 17.02 406.71 16.86C406.537 16.6867 406.45 16.4533 406.45 16.16C406.45 15.8533 406.537 15.62 406.71 15.46C406.883 15.3 407.13 15.22 407.45 15.22H408.49V13.4C408.49 12.9867 408.597 12.6733 408.81 12.46C409.037 12.2467 409.35 12.14 409.75 12.14C410.15 12.14 410.457 12.2467 410.67 12.46C410.883 12.6733 410.99 12.9867 410.99 13.4V15.22H413.11C413.43 15.22 413.677 15.3 413.85 15.46C414.023 15.62 414.11 15.8533 414.11 16.16C414.11 16.4533 414.023 16.6867 413.85 16.86C413.677 17.02 413.43 17.1 413.11 17.1H410.99V21.22C410.99 21.86 411.13 22.34 411.41 22.66C411.69 22.98 412.143 23.14 412.77 23.14C412.997 23.14 413.197 23.12 413.37 23.08C413.543 23.04 413.697 23.0133 413.83 23C413.99 22.9867 414.123 23.04 414.23 23.16C414.337 23.2667 414.39 23.4933 414.39 23.84C414.39 24.1067 414.343 24.3467 414.25 24.56C414.17 24.76 414.017 24.9 413.79 24.98C413.617 25.0333 413.39 25.08 413.11 25.12C412.83 25.1733 412.583 25.2 412.37 25.2ZM425.815 25.2C424.709 25.2 423.755 24.9933 422.955 24.58C422.155 24.1667 421.535 23.58 421.095 22.82C420.669 22.06 420.455 21.16 420.455 20.12C420.455 19.1067 420.662 18.22 421.075 17.46C421.502 16.7 422.082 16.1067 422.815 15.68C423.562 15.24 424.409 15.02 425.355 15.02C426.049 15.02 426.669 15.1333 427.215 15.36C427.775 15.5867 428.249 15.9133 428.635 16.34C429.035 16.7667 429.335 17.2867 429.535 17.9C429.749 18.5 429.855 19.18 429.855 19.94C429.855 20.18 429.769 20.3667 429.595 20.5C429.435 20.62 429.202 20.68 428.895 20.68H422.475V19.24H428.095L427.775 19.54C427.775 18.9267 427.682 18.4133 427.495 18C427.322 17.5867 427.062 17.2733 426.715 17.06C426.382 16.8333 425.962 16.72 425.455 16.72C424.895 16.72 424.415 16.8533 424.015 17.12C423.629 17.3733 423.329 17.74 423.115 18.22C422.915 18.6867 422.815 19.2467 422.815 19.9V20.04C422.815 21.1333 423.069 21.9533 423.575 22.5C424.095 23.0333 424.855 23.3 425.855 23.3C426.202 23.3 426.589 23.26 427.015 23.18C427.455 23.0867 427.869 22.9333 428.255 22.72C428.535 22.56 428.782 22.4933 428.995 22.52C429.209 22.5333 429.375 22.6067 429.495 22.74C429.629 22.8733 429.709 23.04 429.735 23.24C429.762 23.4267 429.722 23.62 429.615 23.82C429.522 24.02 429.355 24.1933 429.115 24.34C428.649 24.6333 428.109 24.8533 427.495 25C426.895 25.1333 426.335 25.2 425.815 25.2ZM432.457 25.1C432.163 25.1 431.917 25.02 431.717 24.86C431.53 24.6867 431.43 24.4667 431.417 24.2C431.417 23.9333 431.53 23.6533 431.757 23.36L434.997 19.36V20.54L431.957 16.8C431.717 16.5067 431.603 16.2267 431.617 15.96C431.63 15.6933 431.73 15.48 431.917 15.32C432.117 15.1467 432.363 15.06 432.657 15.06C432.963 15.06 433.217 15.1133 433.417 15.22C433.63 15.3267 433.823 15.4933 433.997 15.72L436.397 18.8H435.517L437.937 15.72C438.123 15.4933 438.317 15.3267 438.517 15.22C438.717 15.1133 438.963 15.06 439.257 15.06C439.563 15.06 439.81 15.1467 439.997 15.32C440.183 15.4933 440.277 15.7133 440.277 15.98C440.29 16.2467 440.177 16.5267 439.937 16.82L436.917 20.52V19.4L440.157 23.36C440.397 23.64 440.51 23.9133 440.497 24.18C440.483 24.4467 440.377 24.6667 440.177 24.84C439.99 25.0133 439.743 25.1 439.437 25.1C439.143 25.1 438.897 25.0467 438.697 24.94C438.497 24.8333 438.303 24.6667 438.117 24.44L435.517 21.16H436.357L433.777 24.44C433.603 24.6533 433.417 24.82 433.217 24.94C433.017 25.0467 432.763 25.1 432.457 25.1ZM443.935 28.76C443.535 28.76 443.228 28.6533 443.015 28.44C442.801 28.2267 442.695 27.9133 442.695 27.5V16.32C442.695 15.9067 442.801 15.5933 443.015 15.38C443.228 15.1667 443.528 15.06 443.915 15.06C444.315 15.06 444.621 15.1667 444.835 15.38C445.048 15.5933 445.155 15.9067 445.155 16.32V17.88L444.935 17.28C445.135 16.6 445.541 16.0533 446.155 15.64C446.781 15.2267 447.508 15.02 448.335 15.02C449.188 15.02 449.935 15.2267 450.575 15.64C451.228 16.0533 451.735 16.64 452.095 17.4C452.455 18.1467 452.635 19.0467 452.635 20.1C452.635 21.14 452.455 22.0467 452.095 22.82C451.735 23.58 451.235 24.1667 450.595 24.58C449.955 24.9933 449.201 25.2 448.335 25.2C447.521 25.2 446.808 25 446.195 24.6C445.581 24.1867 445.168 23.6533 444.955 23H445.195V27.5C445.195 27.9133 445.081 28.2267 444.855 28.44C444.641 28.6533 444.335 28.76 443.935 28.76ZM447.635 23.3C448.128 23.3 448.561 23.18 448.935 22.94C449.308 22.7 449.595 22.3467 449.795 21.88C450.008 21.4 450.115 20.8067 450.115 20.1C450.115 19.0333 449.888 18.24 449.435 17.72C448.981 17.1867 448.381 16.92 447.635 16.92C447.141 16.92 446.708 17.04 446.335 17.28C445.961 17.5067 445.668 17.86 445.455 18.34C445.255 18.8067 445.155 19.3933 445.155 20.1C445.155 21.1533 445.381 21.9533 445.835 22.5C446.288 23.0333 446.888 23.3 447.635 23.3ZM455.967 25.16C455.553 25.16 455.233 25.0533 455.007 24.84C454.793 24.6133 454.687 24.2933 454.687 23.88V16.32C454.687 15.9067 454.793 15.5933 455.007 15.38C455.22 15.1667 455.52 15.06 455.907 15.06C456.293 15.06 456.593 15.1667 456.807 15.38C457.02 15.5933 457.127 15.9067 457.127 16.32V17.58H456.927C457.113 16.78 457.48 16.1733 458.027 15.76C458.573 15.3467 459.3 15.1 460.207 15.02C460.487 14.9933 460.707 15.0667 460.867 15.24C461.04 15.4 461.14 15.6533 461.167 16C461.193 16.3333 461.113 16.6067 460.927 16.82C460.753 17.02 460.487 17.14 460.127 17.18L459.687 17.22C458.873 17.3 458.26 17.5533 457.847 17.98C457.433 18.3933 457.227 18.98 457.227 19.74V23.88C457.227 24.2933 457.12 24.6133 456.907 24.84C456.693 25.0533 456.38 25.16 455.967 25.16ZM467.183 25.2C466.076 25.2 465.123 24.9933 464.323 24.58C463.523 24.1667 462.903 23.58 462.463 22.82C462.036 22.06 461.823 21.16 461.823 20.12C461.823 19.1067 462.029 18.22 462.443 17.46C462.869 16.7 463.449 16.1067 464.183 15.68C464.929 15.24 465.776 15.02 466.723 15.02C467.416 15.02 468.036 15.1333 468.583 15.36C469.143 15.5867 469.616 15.9133 470.003 16.34C470.403 16.7667 470.703 17.2867 470.903 17.9C471.116 18.5 471.223 19.18 471.223 19.94C471.223 20.18 471.136 20.3667 470.963 20.5C470.803 20.62 470.569 20.68 470.263 20.68H463.843V19.24H469.463L469.143 19.54C469.143 18.9267 469.049 18.4133 468.863 18C468.689 17.5867 468.429 17.2733 468.083 17.06C467.749 16.8333 467.329 16.72 466.823 16.72C466.263 16.72 465.783 16.8533 465.383 17.12C464.996 17.3733 464.696 17.74 464.483 18.22C464.283 18.6867 464.183 19.2467 464.183 19.9V20.04C464.183 21.1333 464.436 21.9533 464.943 22.5C465.463 23.0333 466.223 23.3 467.223 23.3C467.569 23.3 467.956 23.26 468.383 23.18C468.823 23.0867 469.236 22.9333 469.623 22.72C469.903 22.56 470.149 22.4933 470.363 22.52C470.576 22.5333 470.743 22.6067 470.863 22.74C470.996 22.8733 471.076 23.04 471.103 23.24C471.129 23.4267 471.089 23.62 470.983 23.82C470.889 24.02 470.723 24.1933 470.483 24.34C470.016 24.6333 469.476 24.8533 468.863 25C468.263 25.1333 467.703 25.2 467.183 25.2ZM476.782 25.2C476.209 25.2 475.602 25.14 474.962 25.02C474.322 24.9 473.749 24.6933 473.242 24.4C473.029 24.2667 472.876 24.1133 472.782 23.94C472.702 23.7533 472.669 23.5733 472.682 23.4C472.709 23.2133 472.776 23.0533 472.882 22.92C473.002 22.7867 473.149 22.7 473.322 22.66C473.509 22.62 473.709 22.6533 473.922 22.76C474.456 23.0133 474.956 23.1933 475.422 23.3C475.889 23.3933 476.349 23.44 476.802 23.44C477.442 23.44 477.916 23.3333 478.222 23.12C478.542 22.8933 478.702 22.6 478.702 22.24C478.702 21.9333 478.596 21.7 478.382 21.54C478.182 21.3667 477.876 21.24 477.462 21.16L475.462 20.78C474.636 20.62 474.002 20.32 473.562 19.88C473.136 19.4267 472.922 18.8467 472.922 18.14C472.922 17.5 473.096 16.9467 473.442 16.48C473.802 16.0133 474.296 15.6533 474.922 15.4C475.549 15.1467 476.269 15.02 477.082 15.02C477.669 15.02 478.216 15.0867 478.722 15.22C479.242 15.34 479.742 15.5333 480.222 15.8C480.422 15.9067 480.556 16.0467 480.622 16.22C480.702 16.3933 480.722 16.5733 480.682 16.76C480.642 16.9333 480.562 17.0933 480.442 17.24C480.322 17.3733 480.169 17.46 479.982 17.5C479.809 17.5267 479.609 17.4867 479.382 17.38C478.969 17.1667 478.569 17.0133 478.182 16.92C477.809 16.8267 477.449 16.78 477.102 16.78C476.449 16.78 475.962 16.8933 475.642 17.12C475.336 17.3467 475.182 17.6467 475.182 18.02C475.182 18.3 475.276 18.5333 475.462 18.72C475.649 18.9067 475.936 19.0333 476.322 19.1L478.322 19.48C479.189 19.64 479.842 19.9333 480.282 20.36C480.736 20.7867 480.962 21.36 480.962 22.08C480.962 23.0533 480.582 23.82 479.822 24.38C479.062 24.9267 478.049 25.2 476.782 25.2ZM486.548 25.2C485.975 25.2 485.368 25.14 484.728 25.02C484.088 24.9 483.515 24.6933 483.008 24.4C482.795 24.2667 482.641 24.1133 482.548 23.94C482.468 23.7533 482.435 23.5733 482.448 23.4C482.475 23.2133 482.541 23.0533 482.648 22.92C482.768 22.7867 482.915 22.7 483.088 22.66C483.275 22.62 483.475 22.6533 483.688 22.76C484.221 23.0133 484.721 23.1933 485.188 23.3C485.655 23.3933 486.115 23.44 486.568 23.44C487.208 23.44 487.681 23.3333 487.988 23.12C488.308 22.8933 488.468 22.6 488.468 22.24C488.468 21.9333 488.361 21.7 488.148 21.54C487.948 21.3667 487.641 21.24 487.228 21.16L485.228 20.78C484.401 20.62 483.768 20.32 483.328 19.88C482.901 19.4267 482.688 18.8467 482.688 18.14C482.688 17.5 482.861 16.9467 483.208 16.48C483.568 16.0133 484.061 15.6533 484.688 15.4C485.315 15.1467 486.035 15.02 486.848 15.02C487.435 15.02 487.981 15.0867 488.488 15.22C489.008 15.34 489.508 15.5333 489.988 15.8C490.188 15.9067 490.321 16.0467 490.388 16.22C490.468 16.3933 490.488 16.5733 490.448 16.76C490.408 16.9333 490.328 17.0933 490.208 17.24C490.088 17.3733 489.935 17.46 489.748 17.5C489.575 17.5267 489.375 17.4867 489.148 17.38C488.735 17.1667 488.335 17.0133 487.948 16.92C487.575 16.8267 487.215 16.78 486.868 16.78C486.215 16.78 485.728 16.8933 485.408 17.12C485.101 17.3467 484.948 17.6467 484.948 18.02C484.948 18.3 485.041 18.5333 485.228 18.72C485.415 18.9067 485.701 19.0333 486.088 19.1L488.088 19.48C488.955 19.64 489.608 19.9333 490.048 20.36C490.501 20.7867 490.728 21.36 490.728 22.08C490.728 23.0533 490.348 23.82 489.588 24.38C488.828 24.9267 487.815 25.2 486.548 25.2ZM493.974 25.14C493.574 25.14 493.267 25.02 493.054 24.78C492.84 24.54 492.734 24.2067 492.734 23.78V16.44C492.734 16 492.84 15.6667 493.054 15.44C493.267 15.2 493.574 15.08 493.974 15.08C494.374 15.08 494.68 15.2 494.894 15.44C495.12 15.6667 495.234 16 495.234 16.44V23.78C495.234 24.2067 495.127 24.54 494.914 24.78C494.7 25.02 494.387 25.14 493.974 25.14ZM493.974 13.22C493.507 13.22 493.14 13.1067 492.874 12.88C492.62 12.64 492.494 12.3133 492.494 11.9C492.494 11.4733 492.62 11.1467 492.874 10.92C493.14 10.6933 493.507 10.58 493.974 10.58C494.454 10.58 494.82 10.6933 495.074 10.92C495.327 11.1467 495.454 11.4733 495.454 11.9C495.454 12.3133 495.327 12.64 495.074 12.88C494.82 13.1067 494.454 13.22 493.974 13.22ZM502.291 25.2C501.278 25.2 500.398 24.9933 499.651 24.58C498.905 24.1667 498.325 23.58 497.911 22.82C497.498 22.0467 497.291 21.14 497.291 20.1C497.291 19.3133 497.405 18.6133 497.631 18C497.871 17.3733 498.211 16.84 498.651 16.4C499.091 15.9467 499.618 15.6067 500.231 15.38C500.845 15.14 501.531 15.02 502.291 15.02C503.305 15.02 504.185 15.2267 504.931 15.64C505.678 16.0533 506.258 16.64 506.671 17.4C507.085 18.16 507.291 19.06 507.291 20.1C507.291 20.8867 507.171 21.5933 506.931 22.22C506.705 22.8467 506.371 23.3867 505.931 23.84C505.491 24.28 504.965 24.62 504.351 24.86C503.738 25.0867 503.051 25.2 502.291 25.2ZM502.291 23.3C502.785 23.3 503.218 23.18 503.591 22.94C503.965 22.7 504.251 22.3467 504.451 21.88C504.665 21.4 504.771 20.8067 504.771 20.1C504.771 19.0333 504.545 18.24 504.091 17.72C503.638 17.1867 503.038 16.92 502.291 16.92C501.798 16.92 501.365 17.04 500.991 17.28C500.618 17.5067 500.325 17.86 500.111 18.34C499.911 18.8067 499.811 19.3933 499.811 20.1C499.811 21.1533 500.038 21.9533 500.491 22.5C500.945 23.0333 501.545 23.3 502.291 23.3ZM510.595 25.16C510.195 25.16 509.888 25.0533 509.675 24.84C509.461 24.6133 509.355 24.2933 509.355 23.88V16.32C509.355 15.9067 509.461 15.5933 509.675 15.38C509.888 15.1667 510.188 15.06 510.575 15.06C510.961 15.06 511.261 15.1667 511.475 15.38C511.688 15.5933 511.795 15.9067 511.795 16.32V17.68L511.575 17.18C511.868 16.4733 512.321 15.94 512.935 15.58C513.561 15.2067 514.268 15.02 515.055 15.02C515.841 15.02 516.488 15.1667 516.995 15.46C517.501 15.7533 517.881 16.2 518.135 16.8C518.388 17.3867 518.515 18.1333 518.515 19.04V23.88C518.515 24.2933 518.408 24.6133 518.195 24.84C517.981 25.0533 517.675 25.16 517.275 25.16C516.875 25.16 516.561 25.0533 516.335 24.84C516.121 24.6133 516.015 24.2933 516.015 23.88V19.16C516.015 18.4 515.868 17.8467 515.575 17.5C515.295 17.1533 514.855 16.98 514.255 16.98C513.521 16.98 512.935 17.2133 512.495 17.68C512.068 18.1333 511.855 18.74 511.855 19.5V23.88C511.855 24.7333 511.435 25.16 510.595 25.16Z" fill="#646464"/>
</svg>
