<svg width="419" height="54" viewBox="0 0 419 54" fill="none" xmlns="http://www.w3.org/2000/svg">
<path opacity="0.5" d="M381.879 54H0V0H413.29C426.99 24.09 409.592 54 381.879 54Z" fill="#FFF2F2"/>
<path d="M65.86 34.2C64.5 34.2 63.3067 33.9 62.28 33.3C61.2667 32.7 60.48 31.86 59.92 30.78C59.36 29.6867 59.08 28.4067 59.08 26.94C59.08 25.8333 59.24 24.84 59.56 23.96C59.88 23.0667 60.3333 22.3067 60.92 21.68C61.52 21.04 62.2333 20.5533 63.06 20.22C63.9 19.8733 64.8333 19.7 65.86 19.7C67.2333 19.7 68.4267 20 69.44 20.6C70.4533 21.1867 71.24 22.02 71.8 23.1C72.36 24.18 72.64 25.4533 72.64 26.92C72.64 28.0267 72.48 29.0267 72.16 29.92C71.84 30.8133 71.38 31.58 70.78 32.22C70.1933 32.86 69.48 33.3533 68.64 33.7C67.8133 34.0333 66.8867 34.2 65.86 34.2ZM65.86 32C66.7267 32 67.46 31.8 68.06 31.4C68.6733 31 69.14 30.42 69.46 29.66C69.7933 28.9 69.96 27.9933 69.96 26.94C69.96 25.34 69.6 24.1 68.88 23.22C68.1733 22.34 67.1667 21.9 65.86 21.9C65.0067 21.9 64.2733 22.1 63.66 22.5C63.0467 22.8867 62.5733 23.46 62.24 24.22C61.92 24.9667 61.76 25.8733 61.76 26.94C61.76 28.5267 62.12 29.7667 62.84 30.66C63.56 31.5533 64.5667 32 65.86 32ZM79.4631 34.2C78.4498 34.2 77.5698 33.9933 76.8231 33.58C76.0765 33.1667 75.4965 32.58 75.0831 31.82C74.6698 31.0467 74.4631 30.14 74.4631 29.1C74.4631 28.3133 74.5765 27.6133 74.8031 27C75.0431 26.3733 75.3831 25.84 75.8231 25.4C76.2631 24.9467 76.7898 24.6067 77.4031 24.38C78.0165 24.14 78.7031 24.02 79.4631 24.02C80.4765 24.02 81.3565 24.2267 82.1031 24.64C82.8498 25.0533 83.4298 25.64 83.8431 26.4C84.2565 27.16 84.4631 28.06 84.4631 29.1C84.4631 29.8867 84.3431 30.5933 84.1031 31.22C83.8765 31.8467 83.5431 32.3867 83.1031 32.84C82.6631 33.28 82.1365 33.62 81.5231 33.86C80.9098 34.0867 80.2231 34.2 79.4631 34.2ZM79.4631 32.3C79.9565 32.3 80.3898 32.18 80.7631 31.94C81.1365 31.7 81.4231 31.3467 81.6231 30.88C81.8365 30.4 81.9431 29.8067 81.9431 29.1C81.9431 28.0333 81.7165 27.24 81.2631 26.72C80.8098 26.1867 80.2098 25.92 79.4631 25.92C78.9698 25.92 78.5365 26.04 78.1631 26.28C77.7898 26.5067 77.4965 26.86 77.2831 27.34C77.0831 27.8067 76.9831 28.3933 76.9831 29.1C76.9831 30.1533 77.2098 30.9533 77.6631 31.5C78.1165 32.0333 78.7165 32.3 79.4631 32.3ZM87.7666 37.76C87.3666 37.76 87.0599 37.6533 86.8466 37.44C86.6332 37.2267 86.5266 36.9133 86.5266 36.5V25.32C86.5266 24.9067 86.6332 24.5933 86.8466 24.38C87.0599 24.1667 87.3599 24.06 87.7466 24.06C88.1466 24.06 88.4532 24.1667 88.6666 24.38C88.8799 24.5933 88.9866 24.9067 88.9866 25.32V26.88L88.7666 26.28C88.9666 25.6 89.3732 25.0533 89.9866 24.64C90.6132 24.2267 91.3399 24.02 92.1666 24.02C93.0199 24.02 93.7666 24.2267 94.4066 24.64C95.0599 25.0533 95.5666 25.64 95.9266 26.4C96.2866 27.1467 96.4666 28.0467 96.4666 29.1C96.4666 30.14 96.2866 31.0467 95.9266 31.82C95.5666 32.58 95.0666 33.1667 94.4266 33.58C93.7866 33.9933 93.0332 34.2 92.1666 34.2C91.3532 34.2 90.6399 34 90.0266 33.6C89.4132 33.1867 88.9999 32.6533 88.7866 32H89.0266V36.5C89.0266 36.9133 88.9132 37.2267 88.6866 37.44C88.4732 37.6533 88.1666 37.76 87.7666 37.76ZM91.4666 32.3C91.9599 32.3 92.3932 32.18 92.7666 31.94C93.1399 31.7 93.4266 31.3467 93.6266 30.88C93.8399 30.4 93.9466 29.8067 93.9466 29.1C93.9466 28.0333 93.7199 27.24 93.2666 26.72C92.8132 26.1867 92.2132 25.92 91.4666 25.92C90.9732 25.92 90.5399 26.04 90.1666 26.28C89.7932 26.5067 89.4999 26.86 89.2866 27.34C89.0866 27.8067 88.9866 28.3933 88.9866 29.1C88.9866 30.1533 89.2132 30.9533 89.6666 31.5C90.1199 32.0333 90.7199 32.3 91.4666 32.3ZM102.099 34.2C101.525 34.2 100.919 34.14 100.279 34.02C99.6388 33.9 99.0654 33.6933 98.5588 33.4C98.3454 33.2667 98.1921 33.1133 98.0988 32.94C98.0188 32.7533 97.9854 32.5733 97.9988 32.4C98.0254 32.2133 98.0921 32.0533 98.1988 31.92C98.3188 31.7867 98.4654 31.7 98.6388 31.66C98.8254 31.62 99.0254 31.6533 99.2388 31.76C99.7721 32.0133 100.272 32.1933 100.739 32.3C101.205 32.3933 101.665 32.44 102.119 32.44C102.759 32.44 103.232 32.3333 103.539 32.12C103.859 31.8933 104.019 31.6 104.019 31.24C104.019 30.9333 103.912 30.7 103.699 30.54C103.499 30.3667 103.192 30.24 102.779 30.16L100.779 29.78C99.9521 29.62 99.3188 29.32 98.8788 28.88C98.4521 28.4267 98.2388 27.8467 98.2388 27.14C98.2388 26.5 98.4121 25.9467 98.7588 25.48C99.1188 25.0133 99.6121 24.6533 100.239 24.4C100.865 24.1467 101.585 24.02 102.399 24.02C102.985 24.02 103.532 24.0867 104.039 24.22C104.559 24.34 105.059 24.5333 105.539 24.8C105.739 24.9067 105.872 25.0467 105.939 25.22C106.019 25.3933 106.039 25.5733 105.999 25.76C105.959 25.9333 105.879 26.0933 105.759 26.24C105.639 26.3733 105.485 26.46 105.299 26.5C105.125 26.5267 104.925 26.4867 104.699 26.38C104.285 26.1667 103.885 26.0133 103.499 25.92C103.125 25.8267 102.765 25.78 102.419 25.78C101.765 25.78 101.279 25.8933 100.959 26.12C100.652 26.3467 100.499 26.6467 100.499 27.02C100.499 27.3 100.592 27.5333 100.779 27.72C100.965 27.9067 101.252 28.0333 101.639 28.1L103.639 28.48C104.505 28.64 105.159 28.9333 105.599 29.36C106.052 29.7867 106.279 30.36 106.279 31.08C106.279 32.0533 105.899 32.82 105.139 33.38C104.379 33.9267 103.365 34.2 102.099 34.2ZM109.484 29.94C109.231 29.94 109.031 29.86 108.884 29.7C108.751 29.54 108.671 29.3133 108.644 29.02L108.044 21.38C108.004 20.8867 108.111 20.4933 108.364 20.2C108.618 19.8933 108.991 19.74 109.484 19.74C109.964 19.74 110.324 19.8933 110.564 20.2C110.818 20.4933 110.924 20.8867 110.884 21.38L110.284 29.02C110.271 29.3133 110.191 29.54 110.044 29.7C109.911 29.86 109.724 29.94 109.484 29.94ZM109.484 34.1C109.031 34.1 108.664 33.96 108.384 33.68C108.118 33.4 107.984 33.04 107.984 32.6C107.984 32.1733 108.118 31.8267 108.384 31.56C108.664 31.28 109.031 31.14 109.484 31.14C109.951 31.14 110.311 31.28 110.564 31.56C110.831 31.8267 110.964 32.1733 110.964 32.6C110.964 33.04 110.831 33.4 110.564 33.68C110.311 33.96 109.951 34.1 109.484 34.1ZM121.155 37.76C120.862 37.76 120.622 37.68 120.435 37.52C120.248 37.3733 120.135 37.1733 120.095 36.92C120.068 36.6667 120.115 36.4 120.235 36.12L121.595 33.1V34.14L117.955 25.72C117.835 25.4267 117.795 25.1533 117.835 24.9C117.875 24.6467 117.995 24.4467 118.195 24.3C118.408 24.14 118.695 24.06 119.055 24.06C119.362 24.06 119.608 24.1333 119.795 24.28C119.982 24.4133 120.148 24.6733 120.295 25.06L122.995 31.8H122.395L125.155 25.04C125.302 24.6667 125.475 24.4133 125.675 24.28C125.875 24.1333 126.142 24.06 126.475 24.06C126.768 24.06 127.002 24.14 127.175 24.3C127.348 24.4467 127.455 24.6467 127.495 24.9C127.535 25.14 127.488 25.4067 127.355 25.7L122.495 36.8C122.322 37.1733 122.135 37.4267 121.935 37.56C121.735 37.6933 121.475 37.76 121.155 37.76ZM133.467 34.2C132.454 34.2 131.574 33.9933 130.827 33.58C130.08 33.1667 129.5 32.58 129.087 31.82C128.674 31.0467 128.467 30.14 128.467 29.1C128.467 28.3133 128.58 27.6133 128.807 27C129.047 26.3733 129.387 25.84 129.827 25.4C130.267 24.9467 130.794 24.6067 131.407 24.38C132.02 24.14 132.707 24.02 133.467 24.02C134.48 24.02 135.36 24.2267 136.107 24.64C136.854 25.0533 137.434 25.64 137.847 26.4C138.26 27.16 138.467 28.06 138.467 29.1C138.467 29.8867 138.347 30.5933 138.107 31.22C137.88 31.8467 137.547 32.3867 137.107 32.84C136.667 33.28 136.14 33.62 135.527 33.86C134.914 34.0867 134.227 34.2 133.467 34.2ZM133.467 32.3C133.96 32.3 134.394 32.18 134.767 31.94C135.14 31.7 135.427 31.3467 135.627 30.88C135.84 30.4 135.947 29.8067 135.947 29.1C135.947 28.0333 135.72 27.24 135.267 26.72C134.814 26.1867 134.214 25.92 133.467 25.92C132.974 25.92 132.54 26.04 132.167 26.28C131.794 26.5067 131.5 26.86 131.287 27.34C131.087 27.8067 130.987 28.3933 130.987 29.1C130.987 30.1533 131.214 30.9533 131.667 31.5C132.12 32.0333 132.72 32.3 133.467 32.3ZM144.07 34.2C143.257 34.2 142.584 34.0533 142.05 33.76C141.517 33.4533 141.117 33 140.85 32.4C140.597 31.8 140.47 31.0533 140.47 30.16V25.32C140.47 24.8933 140.577 24.58 140.79 24.38C141.004 24.1667 141.31 24.06 141.71 24.06C142.11 24.06 142.417 24.1667 142.63 24.38C142.857 24.58 142.97 24.8933 142.97 25.32V30.2C142.97 30.8933 143.11 31.4067 143.39 31.74C143.67 32.0733 144.117 32.24 144.73 32.24C145.397 32.24 145.944 32.0133 146.37 31.56C146.797 31.0933 147.01 30.48 147.01 29.72V25.32C147.01 24.8933 147.117 24.58 147.33 24.38C147.544 24.1667 147.85 24.06 148.25 24.06C148.65 24.06 148.957 24.1667 149.17 24.38C149.397 24.58 149.51 24.8933 149.51 25.32V32.88C149.51 33.7333 149.104 34.16 148.29 34.16C147.904 34.16 147.604 34.0533 147.39 33.84C147.177 33.6133 147.07 33.2933 147.07 32.88V31.36L147.35 31.96C147.07 32.68 146.644 33.2333 146.07 33.62C145.51 34.0067 144.844 34.2 144.07 34.2ZM153.633 24.8C153.459 25.0133 153.273 25.1333 153.073 25.16C152.886 25.1867 152.719 25.1533 152.573 25.06C152.426 24.9533 152.346 24.8067 152.333 24.62C152.319 24.42 152.406 24.2067 152.593 23.98C152.859 23.6467 153.039 23.3133 153.133 22.98C153.226 22.6467 153.273 22.3533 153.273 22.1L153.373 22.76C152.906 22.76 152.526 22.6267 152.233 22.36C151.953 22.0933 151.813 21.7333 151.813 21.28C151.813 20.84 151.946 20.4867 152.213 20.22C152.479 19.94 152.839 19.8 153.293 19.8C153.759 19.8 154.126 19.96 154.393 20.28C154.659 20.5867 154.793 21.0333 154.793 21.62C154.793 21.94 154.759 22.2733 154.693 22.62C154.639 22.9533 154.526 23.3067 154.353 23.68C154.193 24.04 153.953 24.4133 153.633 24.8ZM161.229 34.16C160.895 34.16 160.602 34.0733 160.349 33.9C160.109 33.7267 159.909 33.46 159.749 33.1L156.569 25.72C156.449 25.4267 156.402 25.1533 156.429 24.9C156.469 24.6467 156.589 24.4467 156.789 24.3C157.002 24.14 157.289 24.06 157.649 24.06C157.955 24.06 158.202 24.1333 158.389 24.28C158.575 24.4133 158.742 24.6733 158.889 25.06L161.589 31.8H160.989L163.769 25.04C163.915 24.6667 164.082 24.4133 164.269 24.28C164.469 24.1333 164.735 24.06 165.069 24.06C165.362 24.06 165.595 24.14 165.769 24.3C165.942 24.4467 166.049 24.6467 166.089 24.9C166.129 25.14 166.082 25.4067 165.949 25.7L162.709 33.1C162.562 33.46 162.362 33.7267 162.109 33.9C161.869 34.0733 161.575 34.16 161.229 34.16ZM172.44 34.2C171.334 34.2 170.38 33.9933 169.58 33.58C168.78 33.1667 168.16 32.58 167.72 31.82C167.294 31.06 167.08 30.16 167.08 29.12C167.08 28.1067 167.287 27.22 167.7 26.46C168.127 25.7 168.707 25.1067 169.44 24.68C170.187 24.24 171.034 24.02 171.98 24.02C172.674 24.02 173.294 24.1333 173.84 24.36C174.4 24.5867 174.874 24.9133 175.26 25.34C175.66 25.7667 175.96 26.2867 176.16 26.9C176.374 27.5 176.48 28.18 176.48 28.94C176.48 29.18 176.394 29.3667 176.22 29.5C176.06 29.62 175.827 29.68 175.52 29.68H169.1V28.24H174.72L174.4 28.54C174.4 27.9267 174.307 27.4133 174.12 27C173.947 26.5867 173.687 26.2733 173.34 26.06C173.007 25.8333 172.587 25.72 172.08 25.72C171.52 25.72 171.04 25.8533 170.64 26.12C170.254 26.3733 169.954 26.74 169.74 27.22C169.54 27.6867 169.44 28.2467 169.44 28.9V29.04C169.44 30.1333 169.694 30.9533 170.2 31.5C170.72 32.0333 171.48 32.3 172.48 32.3C172.827 32.3 173.214 32.26 173.64 32.18C174.08 32.0867 174.494 31.9333 174.88 31.72C175.16 31.56 175.407 31.4933 175.62 31.52C175.834 31.5333 176 31.6067 176.12 31.74C176.254 31.8733 176.334 32.04 176.36 32.24C176.387 32.4267 176.347 32.62 176.24 32.82C176.147 33.02 175.98 33.1933 175.74 33.34C175.274 33.6333 174.734 33.8533 174.12 34C173.52 34.1333 172.96 34.2 172.44 34.2ZM188.71 34.2C187.603 34.2 186.65 33.9933 185.85 33.58C185.05 33.1667 184.43 32.58 183.99 31.82C183.563 31.06 183.35 30.16 183.35 29.12C183.35 28.1067 183.557 27.22 183.97 26.46C184.397 25.7 184.977 25.1067 185.71 24.68C186.457 24.24 187.303 24.02 188.25 24.02C188.943 24.02 189.563 24.1333 190.11 24.36C190.67 24.5867 191.143 24.9133 191.53 25.34C191.93 25.7667 192.23 26.2867 192.43 26.9C192.643 27.5 192.75 28.18 192.75 28.94C192.75 29.18 192.663 29.3667 192.49 29.5C192.33 29.62 192.097 29.68 191.79 29.68H185.37V28.24H190.99L190.67 28.54C190.67 27.9267 190.577 27.4133 190.39 27C190.217 26.5867 189.957 26.2733 189.61 26.06C189.277 25.8333 188.857 25.72 188.35 25.72C187.79 25.72 187.31 25.8533 186.91 26.12C186.523 26.3733 186.223 26.74 186.01 27.22C185.81 27.6867 185.71 28.2467 185.71 28.9V29.04C185.71 30.1333 185.963 30.9533 186.47 31.5C186.99 32.0333 187.75 32.3 188.75 32.3C189.097 32.3 189.483 32.26 189.91 32.18C190.35 32.0867 190.763 31.9333 191.15 31.72C191.43 31.56 191.677 31.4933 191.89 31.52C192.103 31.5333 192.27 31.6067 192.39 31.74C192.523 31.8733 192.603 32.04 192.63 32.24C192.657 32.4267 192.617 32.62 192.51 32.82C192.417 33.02 192.25 33.1933 192.01 33.34C191.543 33.6333 191.003 33.8533 190.39 34C189.79 34.1333 189.23 34.2 188.71 34.2ZM195.351 34.1C195.058 34.1 194.811 34.02 194.611 33.86C194.424 33.6867 194.324 33.4667 194.311 33.2C194.311 32.9333 194.424 32.6533 194.651 32.36L197.891 28.36V29.54L194.851 25.8C194.611 25.5067 194.498 25.2267 194.511 24.96C194.524 24.6933 194.624 24.48 194.811 24.32C195.011 24.1467 195.258 24.06 195.551 24.06C195.858 24.06 196.111 24.1133 196.311 24.22C196.524 24.3267 196.718 24.4933 196.891 24.72L199.291 27.8H198.411L200.831 24.72C201.018 24.4933 201.211 24.3267 201.411 24.22C201.611 24.1133 201.858 24.06 202.151 24.06C202.458 24.06 202.704 24.1467 202.891 24.32C203.078 24.4933 203.171 24.7133 203.171 24.98C203.184 25.2467 203.071 25.5267 202.831 25.82L199.811 29.52V28.4L203.051 32.36C203.291 32.64 203.404 32.9133 203.391 33.18C203.378 33.4467 203.271 33.6667 203.071 33.84C202.884 34.0133 202.638 34.1 202.331 34.1C202.038 34.1 201.791 34.0467 201.591 33.94C201.391 33.8333 201.198 33.6667 201.011 33.44L198.411 30.16H199.251L196.671 33.44C196.498 33.6533 196.311 33.82 196.111 33.94C195.911 34.0467 195.658 34.1 195.351 34.1ZM209.855 34.2C208.828 34.2 207.935 33.9933 207.175 33.58C206.415 33.1533 205.828 32.5533 205.415 31.78C205.002 31.0067 204.795 30.1 204.795 29.06C204.795 28.2733 204.908 27.5733 205.135 26.96C205.375 26.3333 205.715 25.8067 206.155 25.38C206.595 24.94 207.128 24.6067 207.755 24.38C208.382 24.14 209.082 24.02 209.855 24.02C210.295 24.02 210.768 24.08 211.275 24.2C211.795 24.32 212.282 24.52 212.735 24.8C212.948 24.9333 213.088 25.0933 213.155 25.28C213.222 25.4667 213.235 25.66 213.195 25.86C213.155 26.0467 213.068 26.2133 212.935 26.36C212.815 26.4933 212.662 26.58 212.475 26.62C212.288 26.6467 212.082 26.6 211.855 26.48C211.562 26.3067 211.262 26.18 210.955 26.1C210.648 26.0067 210.355 25.96 210.075 25.96C209.635 25.96 209.248 26.0333 208.915 26.18C208.582 26.3133 208.295 26.5133 208.055 26.78C207.828 27.0333 207.655 27.3533 207.535 27.74C207.415 28.1267 207.355 28.5733 207.355 29.08C207.355 30.0667 207.588 30.8467 208.055 31.42C208.535 31.98 209.208 32.26 210.075 32.26C210.355 32.26 210.642 32.22 210.935 32.14C211.242 32.06 211.548 31.9333 211.855 31.76C212.082 31.64 212.282 31.6 212.455 31.64C212.642 31.68 212.795 31.7733 212.915 31.92C213.035 32.0533 213.108 32.22 213.135 32.42C213.162 32.6067 213.135 32.7933 213.055 32.98C212.988 33.1667 212.855 33.32 212.655 33.44C212.215 33.7067 211.748 33.9 211.255 34.02C210.762 34.14 210.295 34.2 209.855 34.2ZM219.393 34.2C218.287 34.2 217.333 33.9933 216.533 33.58C215.733 33.1667 215.113 32.58 214.673 31.82C214.247 31.06 214.033 30.16 214.033 29.12C214.033 28.1067 214.24 27.22 214.653 26.46C215.08 25.7 215.66 25.1067 216.393 24.68C217.14 24.24 217.987 24.02 218.933 24.02C219.627 24.02 220.247 24.1333 220.793 24.36C221.353 24.5867 221.827 24.9133 222.213 25.34C222.613 25.7667 222.913 26.2867 223.113 26.9C223.327 27.5 223.433 28.18 223.433 28.94C223.433 29.18 223.347 29.3667 223.173 29.5C223.013 29.62 222.78 29.68 222.473 29.68H216.053V28.24H221.673L221.353 28.54C221.353 27.9267 221.26 27.4133 221.073 27C220.9 26.5867 220.64 26.2733 220.293 26.06C219.96 25.8333 219.54 25.72 219.033 25.72C218.473 25.72 217.993 25.8533 217.593 26.12C217.207 26.3733 216.907 26.74 216.693 27.22C216.493 27.6867 216.393 28.2467 216.393 28.9V29.04C216.393 30.1333 216.647 30.9533 217.153 31.5C217.673 32.0333 218.433 32.3 219.433 32.3C219.78 32.3 220.167 32.26 220.593 32.18C221.033 32.0867 221.447 31.9333 221.833 31.72C222.113 31.56 222.36 31.4933 222.573 31.52C222.787 31.5333 222.953 31.6067 223.073 31.74C223.207 31.8733 223.287 32.04 223.313 32.24C223.34 32.4267 223.3 32.62 223.193 32.82C223.1 33.02 222.933 33.1933 222.693 33.34C222.227 33.6333 221.687 33.8533 221.073 34C220.473 34.1333 219.913 34.2 219.393 34.2ZM230.233 34.2C229.127 34.2 228.173 33.9933 227.373 33.58C226.573 33.1667 225.953 32.58 225.513 31.82C225.087 31.06 224.873 30.16 224.873 29.12C224.873 28.1067 225.08 27.22 225.493 26.46C225.92 25.7 226.5 25.1067 227.233 24.68C227.98 24.24 228.827 24.02 229.773 24.02C230.467 24.02 231.087 24.1333 231.633 24.36C232.193 24.5867 232.667 24.9133 233.053 25.34C233.453 25.7667 233.753 26.2867 233.953 26.9C234.167 27.5 234.273 28.18 234.273 28.94C234.273 29.18 234.187 29.3667 234.013 29.5C233.853 29.62 233.62 29.68 233.313 29.68H226.893V28.24H232.513L232.193 28.54C232.193 27.9267 232.1 27.4133 231.913 27C231.74 26.5867 231.48 26.2733 231.133 26.06C230.8 25.8333 230.38 25.72 229.873 25.72C229.313 25.72 228.833 25.8533 228.433 26.12C228.047 26.3733 227.747 26.74 227.533 27.22C227.333 27.6867 227.233 28.2467 227.233 28.9V29.04C227.233 30.1333 227.487 30.9533 227.993 31.5C228.513 32.0333 229.273 32.3 230.273 32.3C230.62 32.3 231.007 32.26 231.433 32.18C231.873 32.0867 232.287 31.9333 232.673 31.72C232.953 31.56 233.2 31.4933 233.413 31.52C233.627 31.5333 233.793 31.6067 233.913 31.74C234.047 31.8733 234.127 32.04 234.153 32.24C234.18 32.4267 234.14 32.62 234.033 32.82C233.94 33.02 233.773 33.1933 233.533 33.34C233.067 33.6333 232.527 33.8533 231.913 34C231.313 34.1333 230.753 34.2 230.233 34.2ZM240.013 34.2C239.16 34.2 238.406 33.9933 237.753 33.58C237.113 33.1667 236.613 32.58 236.253 31.82C235.893 31.0467 235.713 30.14 235.713 29.1C235.713 28.0467 235.893 27.1467 236.253 26.4C236.613 25.64 237.113 25.0533 237.753 24.64C238.406 24.2267 239.16 24.02 240.013 24.02C240.826 24.02 241.533 24.22 242.133 24.62C242.746 25.02 243.16 25.5467 243.373 26.2H243.153V21C243.153 20.5867 243.26 20.2733 243.473 20.06C243.686 19.8467 243.993 19.74 244.393 19.74C244.793 19.74 245.1 19.8467 245.313 20.06C245.54 20.2733 245.653 20.5867 245.653 21V32.88C245.653 33.2933 245.546 33.6133 245.333 33.84C245.12 34.0533 244.813 34.16 244.413 34.16C244.013 34.16 243.706 34.0533 243.493 33.84C243.28 33.6133 243.173 33.2933 243.173 32.88V31.32L243.393 31.92C243.193 32.6133 242.786 33.1667 242.173 33.58C241.56 33.9933 240.84 34.2 240.013 34.2ZM240.713 32.3C241.206 32.3 241.64 32.18 242.013 31.94C242.386 31.7 242.673 31.3467 242.873 30.88C243.086 30.4 243.193 29.8067 243.193 29.1C243.193 28.0333 242.966 27.24 242.513 26.72C242.06 26.1867 241.46 25.92 240.713 25.92C240.22 25.92 239.786 26.04 239.413 26.28C239.04 26.5067 238.746 26.86 238.533 27.34C238.333 27.8067 238.233 28.3933 238.233 29.1C238.233 30.1533 238.46 30.9533 238.913 31.5C239.366 32.0333 239.966 32.3 240.713 32.3ZM253.065 34.2C251.959 34.2 251.005 33.9933 250.205 33.58C249.405 33.1667 248.785 32.58 248.345 31.82C247.919 31.06 247.705 30.16 247.705 29.12C247.705 28.1067 247.912 27.22 248.325 26.46C248.752 25.7 249.332 25.1067 250.065 24.68C250.812 24.24 251.659 24.02 252.605 24.02C253.299 24.02 253.919 24.1333 254.465 24.36C255.025 24.5867 255.499 24.9133 255.885 25.34C256.285 25.7667 256.585 26.2867 256.785 26.9C256.999 27.5 257.105 28.18 257.105 28.94C257.105 29.18 257.019 29.3667 256.845 29.5C256.685 29.62 256.452 29.68 256.145 29.68H249.725V28.24H255.345L255.025 28.54C255.025 27.9267 254.932 27.4133 254.745 27C254.572 26.5867 254.312 26.2733 253.965 26.06C253.632 25.8333 253.212 25.72 252.705 25.72C252.145 25.72 251.665 25.8533 251.265 26.12C250.879 26.3733 250.579 26.74 250.365 27.22C250.165 27.6867 250.065 28.2467 250.065 28.9V29.04C250.065 30.1333 250.319 30.9533 250.825 31.5C251.345 32.0333 252.105 32.3 253.105 32.3C253.452 32.3 253.839 32.26 254.265 32.18C254.705 32.0867 255.119 31.9333 255.505 31.72C255.785 31.56 256.032 31.4933 256.245 31.52C256.459 31.5333 256.625 31.6067 256.745 31.74C256.879 31.8733 256.959 32.04 256.985 32.24C257.012 32.4267 256.972 32.62 256.865 32.82C256.772 33.02 256.605 33.1933 256.365 33.34C255.899 33.6333 255.359 33.8533 254.745 34C254.145 34.1333 253.585 34.2 253.065 34.2ZM262.845 34.2C261.992 34.2 261.238 33.9933 260.585 33.58C259.945 33.1667 259.445 32.58 259.085 31.82C258.725 31.0467 258.545 30.14 258.545 29.1C258.545 28.0467 258.725 27.1467 259.085 26.4C259.445 25.64 259.945 25.0533 260.585 24.64C261.238 24.2267 261.992 24.02 262.845 24.02C263.658 24.02 264.365 24.22 264.965 24.62C265.578 25.02 265.992 25.5467 266.205 26.2H265.985V21C265.985 20.5867 266.092 20.2733 266.305 20.06C266.518 19.8467 266.825 19.74 267.225 19.74C267.625 19.74 267.932 19.8467 268.145 20.06C268.372 20.2733 268.485 20.5867 268.485 21V32.88C268.485 33.2933 268.378 33.6133 268.165 33.84C267.952 34.0533 267.645 34.16 267.245 34.16C266.845 34.16 266.538 34.0533 266.325 33.84C266.112 33.6133 266.005 33.2933 266.005 32.88V31.32L266.225 31.92C266.025 32.6133 265.618 33.1667 265.005 33.58C264.392 33.9933 263.672 34.2 262.845 34.2ZM263.545 32.3C264.038 32.3 264.472 32.18 264.845 31.94C265.218 31.7 265.505 31.3467 265.705 30.88C265.918 30.4 266.025 29.8067 266.025 29.1C266.025 28.0333 265.798 27.24 265.345 26.72C264.892 26.1867 264.292 25.92 263.545 25.92C263.052 25.92 262.618 26.04 262.245 26.28C261.872 26.5067 261.578 26.86 261.365 27.34C261.165 27.8067 261.065 28.3933 261.065 29.1C261.065 30.1533 261.292 30.9533 261.745 31.5C262.198 32.0333 262.798 32.3 263.545 32.3ZM280.987 34.2C280.12 34.2 279.394 34.0533 278.807 33.76C278.234 33.4667 277.807 33.04 277.527 32.48C277.247 31.9067 277.107 31.2 277.107 30.36V26.1H276.067C275.747 26.1 275.5 26.02 275.327 25.86C275.154 25.6867 275.067 25.4533 275.067 25.16C275.067 24.8533 275.154 24.62 275.327 24.46C275.5 24.3 275.747 24.22 276.067 24.22H277.107V22.4C277.107 21.9867 277.214 21.6733 277.427 21.46C277.654 21.2467 277.967 21.14 278.367 21.14C278.767 21.14 279.074 21.2467 279.287 21.46C279.5 21.6733 279.607 21.9867 279.607 22.4V24.22H281.727C282.047 24.22 282.294 24.3 282.467 24.46C282.64 24.62 282.727 24.8533 282.727 25.16C282.727 25.4533 282.64 25.6867 282.467 25.86C282.294 26.02 282.047 26.1 281.727 26.1H279.607V30.22C279.607 30.86 279.747 31.34 280.027 31.66C280.307 31.98 280.76 32.14 281.387 32.14C281.614 32.14 281.814 32.12 281.987 32.08C282.16 32.04 282.314 32.0133 282.447 32C282.607 31.9867 282.74 32.04 282.847 32.16C282.954 32.2667 283.007 32.4933 283.007 32.84C283.007 33.1067 282.96 33.3467 282.867 33.56C282.787 33.76 282.634 33.9 282.407 33.98C282.234 34.0333 282.007 34.08 281.727 34.12C281.447 34.1733 281.2 34.2 280.987 34.2ZM285.677 34.16C285.277 34.16 284.97 34.0533 284.757 33.84C284.543 33.6133 284.437 33.2933 284.437 32.88V21C284.437 20.5867 284.543 20.2733 284.757 20.06C284.97 19.8467 285.277 19.74 285.677 19.74C286.077 19.74 286.383 19.8467 286.597 20.06C286.823 20.2733 286.937 20.5867 286.937 21V26.18H286.657C286.95 25.4733 287.403 24.94 288.017 24.58C288.643 24.2067 289.35 24.02 290.137 24.02C290.923 24.02 291.57 24.1667 292.077 24.46C292.583 24.7533 292.963 25.2 293.217 25.8C293.47 26.3867 293.597 27.1333 293.597 28.04V32.88C293.597 33.2933 293.49 33.6133 293.277 33.84C293.063 34.0533 292.757 34.16 292.357 34.16C291.957 34.16 291.643 34.0533 291.417 33.84C291.203 33.6133 291.097 33.2933 291.097 32.88V28.16C291.097 27.4 290.95 26.8467 290.657 26.5C290.377 26.1533 289.937 25.98 289.337 25.98C288.603 25.98 288.017 26.2133 287.577 26.68C287.15 27.1333 286.937 27.74 286.937 28.5V32.88C286.937 33.7333 286.517 34.16 285.677 34.16ZM300.956 34.2C299.849 34.2 298.896 33.9933 298.096 33.58C297.296 33.1667 296.676 32.58 296.236 31.82C295.809 31.06 295.596 30.16 295.596 29.12C295.596 28.1067 295.803 27.22 296.216 26.46C296.643 25.7 297.223 25.1067 297.956 24.68C298.703 24.24 299.549 24.02 300.496 24.02C301.189 24.02 301.809 24.1333 302.356 24.36C302.916 24.5867 303.389 24.9133 303.776 25.34C304.176 25.7667 304.476 26.2867 304.676 26.9C304.889 27.5 304.996 28.18 304.996 28.94C304.996 29.18 304.909 29.3667 304.736 29.5C304.576 29.62 304.343 29.68 304.036 29.68H297.616V28.24H303.236L302.916 28.54C302.916 27.9267 302.823 27.4133 302.636 27C302.463 26.5867 302.203 26.2733 301.856 26.06C301.523 25.8333 301.103 25.72 300.596 25.72C300.036 25.72 299.556 25.8533 299.156 26.12C298.769 26.3733 298.469 26.74 298.256 27.22C298.056 27.6867 297.956 28.2467 297.956 28.9V29.04C297.956 30.1333 298.209 30.9533 298.716 31.5C299.236 32.0333 299.996 32.3 300.996 32.3C301.343 32.3 301.729 32.26 302.156 32.18C302.596 32.0867 303.009 31.9333 303.396 31.72C303.676 31.56 303.923 31.4933 304.136 31.52C304.349 31.5333 304.516 31.6067 304.636 31.74C304.769 31.8733 304.849 32.04 304.876 32.24C304.903 32.4267 304.863 32.62 304.756 32.82C304.663 33.02 304.496 33.1933 304.256 33.34C303.789 33.6333 303.249 33.8533 302.636 34C302.036 34.1333 301.476 34.2 300.956 34.2ZM315.745 34.2C314.639 34.2 313.805 33.8867 313.245 33.26C312.685 32.62 312.405 31.6867 312.405 30.46V21C312.405 20.5867 312.512 20.2733 312.725 20.06C312.939 19.8467 313.245 19.74 313.645 19.74C314.045 19.74 314.352 19.8467 314.565 20.06C314.792 20.2733 314.905 20.5867 314.905 21V30.34C314.905 30.9533 315.032 31.4067 315.285 31.7C315.552 31.9933 315.925 32.14 316.405 32.14C316.512 32.14 316.612 32.14 316.705 32.14C316.799 32.1267 316.892 32.1133 316.985 32.1C317.172 32.0733 317.299 32.1267 317.365 32.26C317.432 32.38 317.465 32.6333 317.465 33.02C317.465 33.3533 317.399 33.6133 317.265 33.8C317.132 33.9867 316.912 34.1 316.605 34.14C316.472 34.1533 316.332 34.1667 316.185 34.18C316.039 34.1933 315.892 34.2 315.745 34.2ZM320.032 34.14C319.632 34.14 319.326 34.02 319.112 33.78C318.899 33.54 318.792 33.2067 318.792 32.78V25.44C318.792 25 318.899 24.6667 319.112 24.44C319.326 24.2 319.632 24.08 320.032 24.08C320.432 24.08 320.739 24.2 320.952 24.44C321.179 24.6667 321.292 25 321.292 25.44V32.78C321.292 33.2067 321.186 33.54 320.972 33.78C320.759 34.02 320.446 34.14 320.032 34.14ZM320.032 22.22C319.566 22.22 319.199 22.1067 318.932 21.88C318.679 21.64 318.552 21.3133 318.552 20.9C318.552 20.4733 318.679 20.1467 318.932 19.92C319.199 19.6933 319.566 19.58 320.032 19.58C320.512 19.58 320.879 19.6933 321.132 19.92C321.386 20.1467 321.512 20.4733 321.512 20.9C321.512 21.3133 321.386 21.64 321.132 21.88C320.879 22.1067 320.512 22.22 320.032 22.22ZM325.17 34.16C324.77 34.16 324.463 34.0533 324.25 33.84C324.037 33.6133 323.93 33.2933 323.93 32.88V25.32C323.93 24.9067 324.037 24.5933 324.25 24.38C324.463 24.1667 324.763 24.06 325.15 24.06C325.537 24.06 325.837 24.1667 326.05 24.38C326.263 24.5933 326.37 24.9067 326.37 25.32V26.78L326.15 26.18C326.417 25.5133 326.83 24.9867 327.39 24.6C327.95 24.2133 328.617 24.02 329.39 24.02C330.177 24.02 330.823 24.2067 331.33 24.58C331.837 24.9533 332.19 25.5267 332.39 26.3H332.11C332.377 25.5933 332.817 25.04 333.43 24.64C334.043 24.2267 334.75 24.02 335.55 24.02C336.297 24.02 336.91 24.1667 337.39 24.46C337.883 24.7533 338.25 25.2 338.49 25.8C338.73 26.3867 338.85 27.1333 338.85 28.04V32.88C338.85 33.2933 338.737 33.6133 338.51 33.84C338.297 34.0533 337.99 34.16 337.59 34.16C337.19 34.16 336.883 34.0533 336.67 33.84C336.457 33.6133 336.35 33.2933 336.35 32.88V28.14C336.35 27.3933 336.223 26.8467 335.97 26.5C335.73 26.1533 335.317 25.98 334.73 25.98C334.077 25.98 333.563 26.2133 333.19 26.68C332.817 27.1333 332.63 27.7667 332.63 28.58V32.88C332.63 33.2933 332.523 33.6133 332.31 33.84C332.097 34.0533 331.79 34.16 331.39 34.16C330.99 34.16 330.677 34.0533 330.45 33.84C330.237 33.6133 330.13 33.2933 330.13 32.88V28.14C330.13 27.3933 330.003 26.8467 329.75 26.5C329.51 26.1533 329.103 25.98 328.53 25.98C327.877 25.98 327.363 26.2133 326.99 26.68C326.617 27.1333 326.43 27.7667 326.43 28.58V32.88C326.43 33.7333 326.01 34.16 325.17 34.16ZM342.669 34.14C342.269 34.14 341.962 34.02 341.749 33.78C341.536 33.54 341.429 33.2067 341.429 32.78V25.44C341.429 25 341.536 24.6667 341.749 24.44C341.962 24.2 342.269 24.08 342.669 24.08C343.069 24.08 343.376 24.2 343.589 24.44C343.816 24.6667 343.929 25 343.929 25.44V32.78C343.929 33.2067 343.822 33.54 343.609 33.78C343.396 34.02 343.082 34.14 342.669 34.14ZM342.669 22.22C342.202 22.22 341.836 22.1067 341.569 21.88C341.316 21.64 341.189 21.3133 341.189 20.9C341.189 20.4733 341.316 20.1467 341.569 19.92C341.836 19.6933 342.202 19.58 342.669 19.58C343.149 19.58 343.516 19.6933 343.769 19.92C344.022 20.1467 344.149 20.4733 344.149 20.9C344.149 21.3133 344.022 21.64 343.769 21.88C343.516 22.1067 343.149 22.22 342.669 22.22ZM351.007 34.2C350.14 34.2 349.413 34.0533 348.827 33.76C348.253 33.4667 347.827 33.04 347.547 32.48C347.267 31.9067 347.127 31.2 347.127 30.36V26.1H346.087C345.767 26.1 345.52 26.02 345.347 25.86C345.173 25.6867 345.087 25.4533 345.087 25.16C345.087 24.8533 345.173 24.62 345.347 24.46C345.52 24.3 345.767 24.22 346.087 24.22H347.127V22.4C347.127 21.9867 347.233 21.6733 347.447 21.46C347.673 21.2467 347.987 21.14 348.387 21.14C348.787 21.14 349.093 21.2467 349.307 21.46C349.52 21.6733 349.627 21.9867 349.627 22.4V24.22H351.747C352.067 24.22 352.313 24.3 352.487 24.46C352.66 24.62 352.747 24.8533 352.747 25.16C352.747 25.4533 352.66 25.6867 352.487 25.86C352.313 26.02 352.067 26.1 351.747 26.1H349.627V30.22C349.627 30.86 349.767 31.34 350.047 31.66C350.327 31.98 350.78 32.14 351.407 32.14C351.633 32.14 351.833 32.12 352.007 32.08C352.18 32.04 352.333 32.0133 352.467 32C352.627 31.9867 352.76 32.04 352.867 32.16C352.973 32.2667 353.027 32.4933 353.027 32.84C353.027 33.1067 352.98 33.3467 352.887 33.56C352.807 33.76 352.653 33.9 352.427 33.98C352.253 34.0333 352.027 34.08 351.747 34.12C351.467 34.1733 351.22 34.2 351.007 34.2ZM355.754 34.1C355.301 34.1 354.934 33.96 354.654 33.68C354.387 33.4 354.254 33.04 354.254 32.6C354.254 32.1733 354.387 31.8267 354.654 31.56C354.934 31.28 355.301 31.14 355.754 31.14C356.221 31.14 356.581 31.28 356.834 31.56C357.101 31.8267 357.234 32.1733 357.234 32.6C357.234 33.04 357.101 33.4 356.834 33.68C356.581 33.96 356.221 34.1 355.754 34.1Z" fill="#646464"/>
<circle cx="34" cy="27" r="11" stroke="#646464" stroke-width="2"/>
<path d="M33.9889 21.207C34.8969 21.207 35.6536 21.9608 35.6536 22.8612C35.6536 23.7654 34.8969 24.5173 33.9889 24.5173C33.081 24.5173 32.3432 23.7823 32.3432 22.8819C32.3432 21.9608 33.081 21.207 33.9889 21.207Z" fill="#646464"/>
<rect x="35.6536" y="32.7932" width="3.31034" height="7.44828" rx="1.65517" transform="rotate(-180 35.6536 32.7932)" fill="#646464"/>
</svg>
