<svg width="559" height="54" viewBox="0 0 559 54" fill="none" xmlns="http://www.w3.org/2000/svg">
<path opacity="0.5" d="M525.19 54H0V0H551.985C568.813 22.1555 553.011 54 525.19 54Z" fill="#E5FFEC"/>
<path d="M64.18 34.16C63.7667 34.16 63.4467 34.0467 63.22 33.82C63.0067 33.58 62.9 33.2467 62.9 32.82V26.74L63.44 28.28L58.62 21.5C58.4467 21.26 58.3667 21.0067 58.38 20.74C58.4067 20.46 58.52 20.2267 58.72 20.04C58.92 19.84 59.2 19.74 59.56 19.74C59.8267 19.74 60.0667 19.8067 60.28 19.94C60.5067 20.0733 60.72 20.28 60.92 20.56L64.5 25.64H63.94L67.54 20.56C67.7533 20.2667 67.96 20.06 68.16 19.94C68.36 19.8067 68.6067 19.74 68.9 19.74C69.2467 19.74 69.5133 19.8333 69.7 20.02C69.9 20.1933 70 20.4133 70 20.68C70.0133 20.9467 69.92 21.2267 69.72 21.52L64.94 28.28L65.46 26.74V32.82C65.46 33.7133 65.0333 34.16 64.18 34.16ZM73.3208 34.2C72.6141 34.2 71.9808 34.0667 71.4208 33.8C70.8741 33.52 70.4408 33.1467 70.1208 32.68C69.8141 32.2133 69.6608 31.6867 69.6608 31.1C69.6608 30.38 69.8474 29.8133 70.2208 29.4C70.5941 28.9733 71.2008 28.6667 72.0408 28.48C72.8808 28.2933 74.0074 28.2 75.4208 28.2H76.4208V29.64H75.4408C74.6141 29.64 73.9541 29.68 73.4608 29.76C72.9674 29.84 72.6141 29.98 72.4008 30.18C72.2008 30.3667 72.1008 30.6333 72.1008 30.98C72.1008 31.42 72.2541 31.78 72.5608 32.06C72.8674 32.34 73.2941 32.48 73.8408 32.48C74.2808 32.48 74.6674 32.38 75.0008 32.18C75.3474 31.9667 75.6208 31.68 75.8208 31.32C76.0208 30.96 76.1208 30.5467 76.1208 30.08V27.78C76.1208 27.1133 75.9741 26.6333 75.6808 26.34C75.3874 26.0467 74.8941 25.9 74.2008 25.9C73.8141 25.9 73.3941 25.9467 72.9408 26.04C72.5008 26.1333 72.0341 26.2933 71.5408 26.52C71.2874 26.64 71.0608 26.6733 70.8608 26.62C70.6741 26.5667 70.5274 26.46 70.4208 26.3C70.3141 26.1267 70.2608 25.94 70.2608 25.74C70.2608 25.54 70.3141 25.3467 70.4208 25.16C70.5274 24.96 70.7074 24.8133 70.9608 24.72C71.5741 24.4667 72.1608 24.2867 72.7208 24.18C73.2941 24.0733 73.8141 24.02 74.2808 24.02C75.2408 24.02 76.0274 24.1667 76.6408 24.46C77.2674 24.7533 77.7341 25.2 78.0408 25.8C78.3474 26.3867 78.5008 27.1467 78.5008 28.08V32.88C78.5008 33.2933 78.4008 33.6133 78.2008 33.84C78.0008 34.0533 77.7141 34.16 77.3408 34.16C76.9674 34.16 76.6741 34.0533 76.4608 33.84C76.2608 33.6133 76.1608 33.2933 76.1608 32.88V31.92H76.3208C76.2274 32.3867 76.0408 32.7933 75.7608 33.14C75.4941 33.4733 75.1541 33.7333 74.7408 33.92C74.3274 34.1067 73.8541 34.2 73.3208 34.2ZM83.4206 37.76C83.1273 37.76 82.8873 37.68 82.7006 37.52C82.514 37.3733 82.4006 37.1733 82.3606 36.92C82.334 36.6667 82.3806 36.4 82.5006 36.12L83.8606 33.1V34.14L80.2206 25.72C80.1006 25.4267 80.0606 25.1533 80.1006 24.9C80.1406 24.6467 80.2606 24.4467 80.4606 24.3C80.674 24.14 80.9606 24.06 81.3206 24.06C81.6273 24.06 81.874 24.1333 82.0606 24.28C82.2473 24.4133 82.414 24.6733 82.5606 25.06L85.2606 31.8H84.6606L87.4206 25.04C87.5673 24.6667 87.7406 24.4133 87.9406 24.28C88.1406 24.1333 88.4073 24.06 88.7406 24.06C89.034 24.06 89.2673 24.14 89.4406 24.3C89.614 24.4467 89.7206 24.6467 89.7606 24.9C89.8006 25.14 89.754 25.4067 89.6206 25.7L84.7606 36.8C84.5873 37.1733 84.4006 37.4267 84.2006 37.56C84.0006 37.6933 83.7406 37.76 83.4206 37.76ZM92.668 29.94C92.4146 29.94 92.2146 29.86 92.068 29.7C91.9346 29.54 91.8546 29.3133 91.828 29.02L91.228 21.38C91.188 20.8867 91.2946 20.4933 91.548 20.2C91.8013 19.8933 92.1746 19.74 92.668 19.74C93.148 19.74 93.508 19.8933 93.748 20.2C94.0013 20.4933 94.108 20.8867 94.068 21.38L93.468 29.02C93.4546 29.3133 93.3746 29.54 93.228 29.7C93.0946 29.86 92.908 29.94 92.668 29.94ZM92.668 34.1C92.2146 34.1 91.848 33.96 91.568 33.68C91.3013 33.4 91.168 33.04 91.168 32.6C91.168 32.1733 91.3013 31.8267 91.568 31.56C91.848 31.28 92.2146 31.14 92.668 31.14C93.1346 31.14 93.4946 31.28 93.748 31.56C94.0146 31.8267 94.148 32.1733 94.148 32.6C94.148 33.04 94.0146 33.4 93.748 33.68C93.4946 33.96 93.1346 34.1 92.668 34.1ZM104.339 37.76C104.045 37.76 103.805 37.68 103.619 37.52C103.432 37.3733 103.319 37.1733 103.279 36.92C103.252 36.6667 103.299 36.4 103.419 36.12L104.779 33.1V34.14L101.139 25.72C101.019 25.4267 100.979 25.1533 101.019 24.9C101.059 24.6467 101.179 24.4467 101.379 24.3C101.592 24.14 101.879 24.06 102.239 24.06C102.545 24.06 102.792 24.1333 102.979 24.28C103.165 24.4133 103.332 24.6733 103.479 25.06L106.179 31.8H105.579L108.339 25.04C108.485 24.6667 108.659 24.4133 108.859 24.28C109.059 24.1333 109.325 24.06 109.659 24.06C109.952 24.06 110.185 24.14 110.359 24.3C110.532 24.4467 110.639 24.6467 110.679 24.9C110.719 25.14 110.672 25.4067 110.539 25.7L105.679 36.8C105.505 37.1733 105.319 37.4267 105.119 37.56C104.919 37.6933 104.659 37.76 104.339 37.76ZM116.651 34.2C115.637 34.2 114.757 33.9933 114.011 33.58C113.264 33.1667 112.684 32.58 112.271 31.82C111.857 31.0467 111.651 30.14 111.651 29.1C111.651 28.3133 111.764 27.6133 111.991 27C112.231 26.3733 112.571 25.84 113.011 25.4C113.451 24.9467 113.977 24.6067 114.591 24.38C115.204 24.14 115.891 24.02 116.651 24.02C117.664 24.02 118.544 24.2267 119.291 24.64C120.037 25.0533 120.617 25.64 121.031 26.4C121.444 27.16 121.651 28.06 121.651 29.1C121.651 29.8867 121.531 30.5933 121.291 31.22C121.064 31.8467 120.731 32.3867 120.291 32.84C119.851 33.28 119.324 33.62 118.711 33.86C118.097 34.0867 117.411 34.2 116.651 34.2ZM116.651 32.3C117.144 32.3 117.577 32.18 117.951 31.94C118.324 31.7 118.611 31.3467 118.811 30.88C119.024 30.4 119.131 29.8067 119.131 29.1C119.131 28.0333 118.904 27.24 118.451 26.72C117.997 26.1867 117.397 25.92 116.651 25.92C116.157 25.92 115.724 26.04 115.351 26.28C114.977 26.5067 114.684 26.86 114.471 27.34C114.271 27.8067 114.171 28.3933 114.171 29.1C114.171 30.1533 114.397 30.9533 114.851 31.5C115.304 32.0333 115.904 32.3 116.651 32.3ZM127.254 34.2C126.441 34.2 125.767 34.0533 125.234 33.76C124.701 33.4533 124.301 33 124.034 32.4C123.781 31.8 123.654 31.0533 123.654 30.16V25.32C123.654 24.8933 123.761 24.58 123.974 24.38C124.187 24.1667 124.494 24.06 124.894 24.06C125.294 24.06 125.601 24.1667 125.814 24.38C126.041 24.58 126.154 24.8933 126.154 25.32V30.2C126.154 30.8933 126.294 31.4067 126.574 31.74C126.854 32.0733 127.301 32.24 127.914 32.24C128.581 32.24 129.127 32.0133 129.554 31.56C129.981 31.0933 130.194 30.48 130.194 29.72V25.32C130.194 24.8933 130.301 24.58 130.514 24.38C130.727 24.1667 131.034 24.06 131.434 24.06C131.834 24.06 132.141 24.1667 132.354 24.38C132.581 24.58 132.694 24.8933 132.694 25.32V32.88C132.694 33.7333 132.287 34.16 131.474 34.16C131.087 34.16 130.787 34.0533 130.574 33.84C130.361 33.6133 130.254 33.2933 130.254 32.88V31.36L130.534 31.96C130.254 32.68 129.827 33.2333 129.254 33.62C128.694 34.0067 128.027 34.2 127.254 34.2ZM136.816 24.8C136.643 25.0133 136.456 25.1333 136.256 25.16C136.069 25.1867 135.903 25.1533 135.756 25.06C135.609 24.9533 135.529 24.8067 135.516 24.62C135.503 24.42 135.589 24.2067 135.776 23.98C136.043 23.6467 136.223 23.3133 136.316 22.98C136.409 22.6467 136.456 22.3533 136.456 22.1L136.556 22.76C136.089 22.76 135.709 22.6267 135.416 22.36C135.136 22.0933 134.996 21.7333 134.996 21.28C134.996 20.84 135.129 20.4867 135.396 20.22C135.663 19.94 136.023 19.8 136.476 19.8C136.943 19.8 137.309 19.96 137.576 20.28C137.843 20.5867 137.976 21.0333 137.976 21.62C137.976 21.94 137.943 22.2733 137.876 22.62C137.823 22.9533 137.709 23.3067 137.536 23.68C137.376 24.04 137.136 24.4133 136.816 24.8ZM144.412 34.16C144.079 34.16 143.786 34.0733 143.532 33.9C143.292 33.7267 143.092 33.46 142.932 33.1L139.752 25.72C139.632 25.4267 139.586 25.1533 139.612 24.9C139.652 24.6467 139.772 24.4467 139.972 24.3C140.186 24.14 140.472 24.06 140.832 24.06C141.139 24.06 141.386 24.1333 141.572 24.28C141.759 24.4133 141.926 24.6733 142.072 25.06L144.772 31.8H144.172L146.952 25.04C147.099 24.6667 147.266 24.4133 147.452 24.28C147.652 24.1333 147.919 24.06 148.252 24.06C148.546 24.06 148.779 24.14 148.952 24.3C149.126 24.4467 149.232 24.6467 149.272 24.9C149.312 25.14 149.266 25.4067 149.132 25.7L145.892 33.1C145.746 33.46 145.546 33.7267 145.292 33.9C145.052 34.0733 144.759 34.16 144.412 34.16ZM155.624 34.2C154.517 34.2 153.564 33.9933 152.764 33.58C151.964 33.1667 151.344 32.58 150.904 31.82C150.477 31.06 150.264 30.16 150.264 29.12C150.264 28.1067 150.471 27.22 150.884 26.46C151.311 25.7 151.891 25.1067 152.624 24.68C153.371 24.24 154.217 24.02 155.164 24.02C155.857 24.02 156.477 24.1333 157.024 24.36C157.584 24.5867 158.057 24.9133 158.444 25.34C158.844 25.7667 159.144 26.2867 159.344 26.9C159.557 27.5 159.664 28.18 159.664 28.94C159.664 29.18 159.577 29.3667 159.404 29.5C159.244 29.62 159.011 29.68 158.704 29.68H152.284V28.24H157.904L157.584 28.54C157.584 27.9267 157.491 27.4133 157.304 27C157.131 26.5867 156.871 26.2733 156.524 26.06C156.191 25.8333 155.771 25.72 155.264 25.72C154.704 25.72 154.224 25.8533 153.824 26.12C153.437 26.3733 153.137 26.74 152.924 27.22C152.724 27.6867 152.624 28.2467 152.624 28.9V29.04C152.624 30.1333 152.877 30.9533 153.384 31.5C153.904 32.0333 154.664 32.3 155.664 32.3C156.011 32.3 156.397 32.26 156.824 32.18C157.264 32.0867 157.677 31.9333 158.064 31.72C158.344 31.56 158.591 31.4933 158.804 31.52C159.017 31.5333 159.184 31.6067 159.304 31.74C159.437 31.8733 159.517 32.04 159.544 32.24C159.571 32.4267 159.531 32.62 159.424 32.82C159.331 33.02 159.164 33.1933 158.924 33.34C158.457 33.6333 157.917 33.8533 157.304 34C156.704 34.1333 156.144 34.2 155.624 34.2ZM171.593 34.2C170.567 34.2 169.673 33.9933 168.913 33.58C168.153 33.1533 167.567 32.5533 167.153 31.78C166.74 31.0067 166.533 30.1 166.533 29.06C166.533 28.2733 166.647 27.5733 166.873 26.96C167.113 26.3333 167.453 25.8067 167.893 25.38C168.333 24.94 168.867 24.6067 169.493 24.38C170.12 24.14 170.82 24.02 171.593 24.02C172.033 24.02 172.507 24.08 173.013 24.2C173.533 24.32 174.02 24.52 174.473 24.8C174.687 24.9333 174.827 25.0933 174.893 25.28C174.96 25.4667 174.973 25.66 174.933 25.86C174.893 26.0467 174.807 26.2133 174.673 26.36C174.553 26.4933 174.4 26.58 174.213 26.62C174.027 26.6467 173.82 26.6 173.593 26.48C173.3 26.3067 173 26.18 172.693 26.1C172.387 26.0067 172.093 25.96 171.813 25.96C171.373 25.96 170.987 26.0333 170.653 26.18C170.32 26.3133 170.033 26.5133 169.793 26.78C169.567 27.0333 169.393 27.3533 169.273 27.74C169.153 28.1267 169.093 28.5733 169.093 29.08C169.093 30.0667 169.327 30.8467 169.793 31.42C170.273 31.98 170.947 32.26 171.813 32.26C172.093 32.26 172.38 32.22 172.673 32.14C172.98 32.06 173.287 31.9333 173.593 31.76C173.82 31.64 174.02 31.6 174.193 31.64C174.38 31.68 174.533 31.7733 174.653 31.92C174.773 32.0533 174.847 32.22 174.873 32.42C174.9 32.6067 174.873 32.7933 174.793 32.98C174.727 33.1667 174.593 33.32 174.393 33.44C173.953 33.7067 173.487 33.9 172.993 34.02C172.5 34.14 172.033 34.2 171.593 34.2ZM177.787 34.16C177.374 34.16 177.054 34.0533 176.827 33.84C176.614 33.6133 176.507 33.2933 176.507 32.88V25.32C176.507 24.9067 176.614 24.5933 176.827 24.38C177.04 24.1667 177.34 24.06 177.727 24.06C178.114 24.06 178.414 24.1667 178.627 24.38C178.84 24.5933 178.947 24.9067 178.947 25.32V26.58H178.747C178.934 25.78 179.3 25.1733 179.847 24.76C180.394 24.3467 181.12 24.1 182.027 24.02C182.307 23.9933 182.527 24.0667 182.687 24.24C182.86 24.4 182.96 24.6533 182.987 25C183.014 25.3333 182.934 25.6067 182.747 25.82C182.574 26.02 182.307 26.14 181.947 26.18L181.507 26.22C180.694 26.3 180.08 26.5533 179.667 26.98C179.254 27.3933 179.047 27.98 179.047 28.74V32.88C179.047 33.2933 178.94 33.6133 178.727 33.84C178.514 34.0533 178.2 34.16 177.787 34.16ZM189.003 34.2C187.896 34.2 186.943 33.9933 186.143 33.58C185.343 33.1667 184.723 32.58 184.283 31.82C183.856 31.06 183.643 30.16 183.643 29.12C183.643 28.1067 183.849 27.22 184.263 26.46C184.689 25.7 185.269 25.1067 186.003 24.68C186.749 24.24 187.596 24.02 188.543 24.02C189.236 24.02 189.856 24.1333 190.403 24.36C190.963 24.5867 191.436 24.9133 191.823 25.34C192.223 25.7667 192.523 26.2867 192.723 26.9C192.936 27.5 193.043 28.18 193.043 28.94C193.043 29.18 192.956 29.3667 192.783 29.5C192.623 29.62 192.389 29.68 192.083 29.68H185.663V28.24H191.283L190.963 28.54C190.963 27.9267 190.869 27.4133 190.683 27C190.509 26.5867 190.249 26.2733 189.903 26.06C189.569 25.8333 189.149 25.72 188.643 25.72C188.083 25.72 187.603 25.8533 187.203 26.12C186.816 26.3733 186.516 26.74 186.303 27.22C186.103 27.6867 186.003 28.2467 186.003 28.9V29.04C186.003 30.1333 186.256 30.9533 186.763 31.5C187.283 32.0333 188.043 32.3 189.043 32.3C189.389 32.3 189.776 32.26 190.203 32.18C190.643 32.0867 191.056 31.9333 191.443 31.72C191.723 31.56 191.969 31.4933 192.183 31.52C192.396 31.5333 192.563 31.6067 192.683 31.74C192.816 31.8733 192.896 32.04 192.923 32.24C192.949 32.4267 192.909 32.62 192.803 32.82C192.709 33.02 192.543 33.1933 192.303 33.34C191.836 33.6333 191.296 33.8533 190.683 34C190.083 34.1333 189.523 34.2 189.003 34.2ZM198.243 34.2C197.536 34.2 196.903 34.0667 196.343 33.8C195.796 33.52 195.363 33.1467 195.043 32.68C194.736 32.2133 194.583 31.6867 194.583 31.1C194.583 30.38 194.769 29.8133 195.143 29.4C195.516 28.9733 196.123 28.6667 196.963 28.48C197.803 28.2933 198.929 28.2 200.343 28.2H201.343V29.64H200.363C199.536 29.64 198.876 29.68 198.383 29.76C197.889 29.84 197.536 29.98 197.323 30.18C197.123 30.3667 197.023 30.6333 197.023 30.98C197.023 31.42 197.176 31.78 197.483 32.06C197.789 32.34 198.216 32.48 198.763 32.48C199.203 32.48 199.589 32.38 199.923 32.18C200.269 31.9667 200.543 31.68 200.743 31.32C200.943 30.96 201.043 30.5467 201.043 30.08V27.78C201.043 27.1133 200.896 26.6333 200.603 26.34C200.309 26.0467 199.816 25.9 199.123 25.9C198.736 25.9 198.316 25.9467 197.863 26.04C197.423 26.1333 196.956 26.2933 196.463 26.52C196.209 26.64 195.983 26.6733 195.783 26.62C195.596 26.5667 195.449 26.46 195.343 26.3C195.236 26.1267 195.183 25.94 195.183 25.74C195.183 25.54 195.236 25.3467 195.343 25.16C195.449 24.96 195.629 24.8133 195.883 24.72C196.496 24.4667 197.083 24.2867 197.643 24.18C198.216 24.0733 198.736 24.02 199.203 24.02C200.163 24.02 200.949 24.1667 201.563 24.46C202.189 24.7533 202.656 25.2 202.963 25.8C203.269 26.3867 203.423 27.1467 203.423 28.08V32.88C203.423 33.2933 203.323 33.6133 203.123 33.84C202.923 34.0533 202.636 34.16 202.263 34.16C201.889 34.16 201.596 34.0533 201.383 33.84C201.183 33.6133 201.083 33.2933 201.083 32.88V31.92H201.243C201.149 32.3867 200.963 32.7933 200.683 33.14C200.416 33.4733 200.076 33.7333 199.663 33.92C199.249 34.1067 198.776 34.2 198.243 34.2ZM210.44 34.2C209.573 34.2 208.847 34.0533 208.26 33.76C207.687 33.4667 207.26 33.04 206.98 32.48C206.7 31.9067 206.56 31.2 206.56 30.36V26.1H205.52C205.2 26.1 204.953 26.02 204.78 25.86C204.607 25.6867 204.52 25.4533 204.52 25.16C204.52 24.8533 204.607 24.62 204.78 24.46C204.953 24.3 205.2 24.22 205.52 24.22H206.56V22.4C206.56 21.9867 206.667 21.6733 206.88 21.46C207.107 21.2467 207.42 21.14 207.82 21.14C208.22 21.14 208.527 21.2467 208.74 21.46C208.953 21.6733 209.06 21.9867 209.06 22.4V24.22H211.18C211.5 24.22 211.747 24.3 211.92 24.46C212.093 24.62 212.18 24.8533 212.18 25.16C212.18 25.4533 212.093 25.6867 211.92 25.86C211.747 26.02 211.5 26.1 211.18 26.1H209.06V30.22C209.06 30.86 209.2 31.34 209.48 31.66C209.76 31.98 210.213 32.14 210.84 32.14C211.067 32.14 211.267 32.12 211.44 32.08C211.613 32.04 211.767 32.0133 211.9 32C212.06 31.9867 212.193 32.04 212.3 32.16C212.407 32.2667 212.46 32.4933 212.46 32.84C212.46 33.1067 212.413 33.3467 212.32 33.56C212.24 33.76 212.087 33.9 211.86 33.98C211.687 34.0333 211.46 34.08 211.18 34.12C210.9 34.1733 210.653 34.2 210.44 34.2ZM218.358 34.2C217.252 34.2 216.298 33.9933 215.498 33.58C214.698 33.1667 214.078 32.58 213.638 31.82C213.212 31.06 212.998 30.16 212.998 29.12C212.998 28.1067 213.205 27.22 213.618 26.46C214.045 25.7 214.625 25.1067 215.358 24.68C216.105 24.24 216.952 24.02 217.898 24.02C218.592 24.02 219.212 24.1333 219.758 24.36C220.318 24.5867 220.792 24.9133 221.178 25.34C221.578 25.7667 221.878 26.2867 222.078 26.9C222.292 27.5 222.398 28.18 222.398 28.94C222.398 29.18 222.312 29.3667 222.138 29.5C221.978 29.62 221.745 29.68 221.438 29.68H215.018V28.24H220.638L220.318 28.54C220.318 27.9267 220.225 27.4133 220.038 27C219.865 26.5867 219.605 26.2733 219.258 26.06C218.925 25.8333 218.505 25.72 217.998 25.72C217.438 25.72 216.958 25.8533 216.558 26.12C216.172 26.3733 215.872 26.74 215.658 27.22C215.458 27.6867 215.358 28.2467 215.358 28.9V29.04C215.358 30.1333 215.612 30.9533 216.118 31.5C216.638 32.0333 217.398 32.3 218.398 32.3C218.745 32.3 219.132 32.26 219.558 32.18C219.998 32.0867 220.412 31.9333 220.798 31.72C221.078 31.56 221.325 31.4933 221.538 31.52C221.752 31.5333 221.918 31.6067 222.038 31.74C222.172 31.8733 222.252 32.04 222.278 32.24C222.305 32.4267 222.265 32.62 222.158 32.82C222.065 33.02 221.898 33.1933 221.658 33.34C221.192 33.6333 220.652 33.8533 220.038 34C219.438 34.1333 218.878 34.2 218.358 34.2ZM228.138 34.2C227.285 34.2 226.531 33.9933 225.878 33.58C225.238 33.1667 224.738 32.58 224.378 31.82C224.018 31.0467 223.838 30.14 223.838 29.1C223.838 28.0467 224.018 27.1467 224.378 26.4C224.738 25.64 225.238 25.0533 225.878 24.64C226.531 24.2267 227.285 24.02 228.138 24.02C228.951 24.02 229.658 24.22 230.258 24.62C230.871 25.02 231.285 25.5467 231.498 26.2H231.278V21C231.278 20.5867 231.385 20.2733 231.598 20.06C231.811 19.8467 232.118 19.74 232.518 19.74C232.918 19.74 233.225 19.8467 233.438 20.06C233.665 20.2733 233.778 20.5867 233.778 21V32.88C233.778 33.2933 233.671 33.6133 233.458 33.84C233.245 34.0533 232.938 34.16 232.538 34.16C232.138 34.16 231.831 34.0533 231.618 33.84C231.405 33.6133 231.298 33.2933 231.298 32.88V31.32L231.518 31.92C231.318 32.6133 230.911 33.1667 230.298 33.58C229.685 33.9933 228.965 34.2 228.138 34.2ZM228.838 32.3C229.331 32.3 229.765 32.18 230.138 31.94C230.511 31.7 230.798 31.3467 230.998 30.88C231.211 30.4 231.318 29.8067 231.318 29.1C231.318 28.0333 231.091 27.24 230.638 26.72C230.185 26.1867 229.585 25.92 228.838 25.92C228.345 25.92 227.911 26.04 227.538 26.28C227.165 26.5067 226.871 26.86 226.658 27.34C226.458 27.8067 226.358 28.3933 226.358 29.1C226.358 30.1533 226.585 30.9533 227.038 31.5C227.491 32.0333 228.091 32.3 228.838 32.3ZM246.28 34.2C245.413 34.2 244.687 34.0533 244.1 33.76C243.527 33.4667 243.1 33.04 242.82 32.48C242.54 31.9067 242.4 31.2 242.4 30.36V26.1H241.36C241.04 26.1 240.793 26.02 240.62 25.86C240.447 25.6867 240.36 25.4533 240.36 25.16C240.36 24.8533 240.447 24.62 240.62 24.46C240.793 24.3 241.04 24.22 241.36 24.22H242.4V22.4C242.4 21.9867 242.507 21.6733 242.72 21.46C242.947 21.2467 243.26 21.14 243.66 21.14C244.06 21.14 244.367 21.2467 244.58 21.46C244.793 21.6733 244.9 21.9867 244.9 22.4V24.22H247.02C247.34 24.22 247.587 24.3 247.76 24.46C247.933 24.62 248.02 24.8533 248.02 25.16C248.02 25.4533 247.933 25.6867 247.76 25.86C247.587 26.02 247.34 26.1 247.02 26.1H244.9V30.22C244.9 30.86 245.04 31.34 245.32 31.66C245.6 31.98 246.053 32.14 246.68 32.14C246.907 32.14 247.107 32.12 247.28 32.08C247.453 32.04 247.607 32.0133 247.74 32C247.9 31.9867 248.033 32.04 248.14 32.16C248.247 32.2667 248.3 32.4933 248.3 32.84C248.3 33.1067 248.253 33.3467 248.16 33.56C248.08 33.76 247.927 33.9 247.7 33.98C247.527 34.0333 247.3 34.08 247.02 34.12C246.74 34.1733 246.493 34.2 246.28 34.2ZM250.97 34.16C250.57 34.16 250.263 34.0533 250.05 33.84C249.836 33.6133 249.73 33.2933 249.73 32.88V21C249.73 20.5867 249.836 20.2733 250.05 20.06C250.263 19.8467 250.57 19.74 250.97 19.74C251.37 19.74 251.676 19.8467 251.89 20.06C252.116 20.2733 252.23 20.5867 252.23 21V26.18H251.95C252.243 25.4733 252.696 24.94 253.31 24.58C253.936 24.2067 254.643 24.02 255.43 24.02C256.216 24.02 256.863 24.1667 257.37 24.46C257.876 24.7533 258.256 25.2 258.51 25.8C258.763 26.3867 258.89 27.1333 258.89 28.04V32.88C258.89 33.2933 258.783 33.6133 258.57 33.84C258.356 34.0533 258.05 34.16 257.65 34.16C257.25 34.16 256.936 34.0533 256.71 33.84C256.496 33.6133 256.39 33.2933 256.39 32.88V28.16C256.39 27.4 256.243 26.8467 255.95 26.5C255.67 26.1533 255.23 25.98 254.63 25.98C253.896 25.98 253.31 26.2133 252.87 26.68C252.443 27.1333 252.23 27.74 252.23 28.5V32.88C252.23 33.7333 251.81 34.16 250.97 34.16ZM266.249 34.2C265.142 34.2 264.189 33.9933 263.389 33.58C262.589 33.1667 261.969 32.58 261.529 31.82C261.102 31.06 260.889 30.16 260.889 29.12C260.889 28.1067 261.096 27.22 261.509 26.46C261.936 25.7 262.516 25.1067 263.249 24.68C263.996 24.24 264.842 24.02 265.789 24.02C266.482 24.02 267.102 24.1333 267.649 24.36C268.209 24.5867 268.682 24.9133 269.069 25.34C269.469 25.7667 269.769 26.2867 269.969 26.9C270.182 27.5 270.289 28.18 270.289 28.94C270.289 29.18 270.202 29.3667 270.029 29.5C269.869 29.62 269.636 29.68 269.329 29.68H262.909V28.24H268.529L268.209 28.54C268.209 27.9267 268.116 27.4133 267.929 27C267.756 26.5867 267.496 26.2733 267.149 26.06C266.816 25.8333 266.396 25.72 265.889 25.72C265.329 25.72 264.849 25.8533 264.449 26.12C264.062 26.3733 263.762 26.74 263.549 27.22C263.349 27.6867 263.249 28.2467 263.249 28.9V29.04C263.249 30.1333 263.502 30.9533 264.009 31.5C264.529 32.0333 265.289 32.3 266.289 32.3C266.636 32.3 267.022 32.26 267.449 32.18C267.889 32.0867 268.302 31.9333 268.689 31.72C268.969 31.56 269.216 31.4933 269.429 31.52C269.642 31.5333 269.809 31.6067 269.929 31.74C270.062 31.8733 270.142 32.04 270.169 32.24C270.196 32.4267 270.156 32.62 270.049 32.82C269.956 33.02 269.789 33.1933 269.549 33.34C269.082 33.6333 268.542 33.8533 267.929 34C267.329 34.1333 266.769 34.2 266.249 34.2ZM282.218 34.2C281.192 34.2 280.298 33.9933 279.538 33.58C278.778 33.1533 278.192 32.5533 277.778 31.78C277.365 31.0067 277.158 30.1 277.158 29.06C277.158 28.2733 277.272 27.5733 277.498 26.96C277.738 26.3333 278.078 25.8067 278.518 25.38C278.958 24.94 279.492 24.6067 280.118 24.38C280.745 24.14 281.445 24.02 282.218 24.02C282.658 24.02 283.132 24.08 283.638 24.2C284.158 24.32 284.645 24.52 285.098 24.8C285.312 24.9333 285.452 25.0933 285.518 25.28C285.585 25.4667 285.598 25.66 285.558 25.86C285.518 26.0467 285.432 26.2133 285.298 26.36C285.178 26.4933 285.025 26.58 284.838 26.62C284.652 26.6467 284.445 26.6 284.218 26.48C283.925 26.3067 283.625 26.18 283.318 26.1C283.012 26.0067 282.718 25.96 282.438 25.96C281.998 25.96 281.612 26.0333 281.278 26.18C280.945 26.3133 280.658 26.5133 280.418 26.78C280.192 27.0333 280.018 27.3533 279.898 27.74C279.778 28.1267 279.718 28.5733 279.718 29.08C279.718 30.0667 279.952 30.8467 280.418 31.42C280.898 31.98 281.572 32.26 282.438 32.26C282.718 32.26 283.005 32.22 283.298 32.14C283.605 32.06 283.912 31.9333 284.218 31.76C284.445 31.64 284.645 31.6 284.818 31.64C285.005 31.68 285.158 31.7733 285.278 31.92C285.398 32.0533 285.472 32.22 285.498 32.42C285.525 32.6067 285.498 32.7933 285.418 32.98C285.352 33.1667 285.218 33.32 285.018 33.44C284.578 33.7067 284.112 33.9 283.618 34.02C283.125 34.14 282.658 34.2 282.218 34.2ZM291.397 34.2C290.383 34.2 289.503 33.9933 288.757 33.58C288.01 33.1667 287.43 32.58 287.017 31.82C286.603 31.0467 286.397 30.14 286.397 29.1C286.397 28.3133 286.51 27.6133 286.737 27C286.977 26.3733 287.317 25.84 287.757 25.4C288.197 24.9467 288.723 24.6067 289.337 24.38C289.95 24.14 290.637 24.02 291.397 24.02C292.41 24.02 293.29 24.2267 294.037 24.64C294.783 25.0533 295.363 25.64 295.777 26.4C296.19 27.16 296.397 28.06 296.397 29.1C296.397 29.8867 296.277 30.5933 296.037 31.22C295.81 31.8467 295.477 32.3867 295.037 32.84C294.597 33.28 294.07 33.62 293.457 33.86C292.843 34.0867 292.157 34.2 291.397 34.2ZM291.397 32.3C291.89 32.3 292.323 32.18 292.697 31.94C293.07 31.7 293.357 31.3467 293.557 30.88C293.77 30.4 293.877 29.8067 293.877 29.1C293.877 28.0333 293.65 27.24 293.197 26.72C292.743 26.1867 292.143 25.92 291.397 25.92C290.903 25.92 290.47 26.04 290.097 26.28C289.723 26.5067 289.43 26.86 289.217 27.34C289.017 27.8067 288.917 28.3933 288.917 29.1C288.917 30.1533 289.143 30.9533 289.597 31.5C290.05 32.0333 290.65 32.3 291.397 32.3ZM299.74 34.16C299.327 34.16 299.007 34.0533 298.78 33.84C298.567 33.6133 298.46 33.2933 298.46 32.88V25.32C298.46 24.9067 298.567 24.5933 298.78 24.38C298.993 24.1667 299.293 24.06 299.68 24.06C300.067 24.06 300.367 24.1667 300.58 24.38C300.793 24.5933 300.9 24.9067 300.9 25.32V26.58H300.7C300.887 25.78 301.253 25.1733 301.8 24.76C302.347 24.3467 303.073 24.1 303.98 24.02C304.26 23.9933 304.48 24.0667 304.64 24.24C304.813 24.4 304.913 24.6533 304.94 25C304.967 25.3333 304.887 25.6067 304.7 25.82C304.527 26.02 304.26 26.14 303.9 26.18L303.46 26.22C302.647 26.3 302.033 26.5533 301.62 26.98C301.207 27.3933 301 27.98 301 28.74V32.88C301 33.2933 300.893 33.6133 300.68 33.84C300.467 34.0533 300.153 34.16 299.74 34.16ZM307.572 34.16C307.159 34.16 306.839 34.0533 306.612 33.84C306.399 33.6133 306.292 33.2933 306.292 32.88V25.32C306.292 24.9067 306.399 24.5933 306.612 24.38C306.826 24.1667 307.126 24.06 307.512 24.06C307.899 24.06 308.199 24.1667 308.412 24.38C308.626 24.5933 308.732 24.9067 308.732 25.32V26.58H308.532C308.719 25.78 309.086 25.1733 309.632 24.76C310.179 24.3467 310.906 24.1 311.812 24.02C312.092 23.9933 312.312 24.0667 312.472 24.24C312.646 24.4 312.746 24.6533 312.772 25C312.799 25.3333 312.719 25.6067 312.532 25.82C312.359 26.02 312.092 26.14 311.732 26.18L311.292 26.22C310.479 26.3 309.866 26.5533 309.452 26.98C309.039 27.3933 308.832 27.98 308.832 28.74V32.88C308.832 33.2933 308.726 33.6133 308.512 33.84C308.299 34.0533 307.986 34.16 307.572 34.16ZM318.788 34.2C317.681 34.2 316.728 33.9933 315.928 33.58C315.128 33.1667 314.508 32.58 314.068 31.82C313.641 31.06 313.428 30.16 313.428 29.12C313.428 28.1067 313.635 27.22 314.048 26.46C314.475 25.7 315.055 25.1067 315.788 24.68C316.535 24.24 317.381 24.02 318.328 24.02C319.021 24.02 319.641 24.1333 320.188 24.36C320.748 24.5867 321.221 24.9133 321.608 25.34C322.008 25.7667 322.308 26.2867 322.508 26.9C322.721 27.5 322.828 28.18 322.828 28.94C322.828 29.18 322.741 29.3667 322.568 29.5C322.408 29.62 322.175 29.68 321.868 29.68H315.448V28.24H321.068L320.748 28.54C320.748 27.9267 320.655 27.4133 320.468 27C320.295 26.5867 320.035 26.2733 319.688 26.06C319.355 25.8333 318.935 25.72 318.428 25.72C317.868 25.72 317.388 25.8533 316.988 26.12C316.601 26.3733 316.301 26.74 316.088 27.22C315.888 27.6867 315.788 28.2467 315.788 28.9V29.04C315.788 30.1333 316.041 30.9533 316.548 31.5C317.068 32.0333 317.828 32.3 318.828 32.3C319.175 32.3 319.561 32.26 319.988 32.18C320.428 32.0867 320.841 31.9333 321.228 31.72C321.508 31.56 321.755 31.4933 321.968 31.52C322.181 31.5333 322.348 31.6067 322.468 31.74C322.601 31.8733 322.681 32.04 322.708 32.24C322.735 32.4267 322.695 32.62 322.588 32.82C322.495 33.02 322.328 33.1933 322.088 33.34C321.621 33.6333 321.081 33.8533 320.468 34C319.868 34.1333 319.308 34.2 318.788 34.2ZM329.328 34.2C328.301 34.2 327.408 33.9933 326.648 33.58C325.888 33.1533 325.301 32.5533 324.888 31.78C324.474 31.0067 324.268 30.1 324.268 29.06C324.268 28.2733 324.381 27.5733 324.608 26.96C324.848 26.3333 325.188 25.8067 325.628 25.38C326.068 24.94 326.601 24.6067 327.228 24.38C327.854 24.14 328.554 24.02 329.328 24.02C329.768 24.02 330.241 24.08 330.748 24.2C331.268 24.32 331.754 24.52 332.208 24.8C332.421 24.9333 332.561 25.0933 332.628 25.28C332.694 25.4667 332.708 25.66 332.668 25.86C332.628 26.0467 332.541 26.2133 332.408 26.36C332.288 26.4933 332.134 26.58 331.948 26.62C331.761 26.6467 331.554 26.6 331.328 26.48C331.034 26.3067 330.734 26.18 330.428 26.1C330.121 26.0067 329.828 25.96 329.548 25.96C329.108 25.96 328.721 26.0333 328.388 26.18C328.054 26.3133 327.768 26.5133 327.528 26.78C327.301 27.0333 327.128 27.3533 327.008 27.74C326.888 28.1267 326.828 28.5733 326.828 29.08C326.828 30.0667 327.061 30.8467 327.528 31.42C328.008 31.98 328.681 32.26 329.548 32.26C329.828 32.26 330.114 32.22 330.408 32.14C330.714 32.06 331.021 31.9333 331.328 31.76C331.554 31.64 331.754 31.6 331.928 31.64C332.114 31.68 332.268 31.7733 332.388 31.92C332.508 32.0533 332.581 32.22 332.608 32.42C332.634 32.6067 332.608 32.7933 332.528 32.98C332.461 33.1667 332.328 33.32 332.128 33.44C331.688 33.7067 331.221 33.9 330.728 34.02C330.234 34.14 329.768 34.2 329.328 34.2ZM338.76 34.2C337.894 34.2 337.167 34.0533 336.58 33.76C336.007 33.4667 335.58 33.04 335.3 32.48C335.02 31.9067 334.88 31.2 334.88 30.36V26.1H333.84C333.52 26.1 333.274 26.02 333.1 25.86C332.927 25.6867 332.84 25.4533 332.84 25.16C332.84 24.8533 332.927 24.62 333.1 24.46C333.274 24.3 333.52 24.22 333.84 24.22H334.88V22.4C334.88 21.9867 334.987 21.6733 335.2 21.46C335.427 21.2467 335.74 21.14 336.14 21.14C336.54 21.14 336.847 21.2467 337.06 21.46C337.274 21.6733 337.38 21.9867 337.38 22.4V24.22H339.5C339.82 24.22 340.067 24.3 340.24 24.46C340.414 24.62 340.5 24.8533 340.5 25.16C340.5 25.4533 340.414 25.6867 340.24 25.86C340.067 26.02 339.82 26.1 339.5 26.1H337.38V30.22C337.38 30.86 337.52 31.34 337.8 31.66C338.08 31.98 338.534 32.14 339.16 32.14C339.387 32.14 339.587 32.12 339.76 32.08C339.934 32.04 340.087 32.0133 340.22 32C340.38 31.9867 340.514 32.04 340.62 32.16C340.727 32.2667 340.78 32.4933 340.78 32.84C340.78 33.1067 340.734 33.3467 340.64 33.56C340.56 33.76 340.407 33.9 340.18 33.98C340.007 34.0333 339.78 34.08 339.5 34.12C339.22 34.1733 338.974 34.2 338.76 34.2ZM350.606 34.2C349.899 34.2 349.266 34.0667 348.706 33.8C348.159 33.52 347.726 33.1467 347.406 32.68C347.099 32.2133 346.946 31.6867 346.946 31.1C346.946 30.38 347.133 29.8133 347.506 29.4C347.879 28.9733 348.486 28.6667 349.326 28.48C350.166 28.2933 351.293 28.2 352.706 28.2H353.706V29.64H352.726C351.899 29.64 351.239 29.68 350.746 29.76C350.253 29.84 349.899 29.98 349.686 30.18C349.486 30.3667 349.386 30.6333 349.386 30.98C349.386 31.42 349.539 31.78 349.846 32.06C350.153 32.34 350.579 32.48 351.126 32.48C351.566 32.48 351.953 32.38 352.286 32.18C352.633 31.9667 352.906 31.68 353.106 31.32C353.306 30.96 353.406 30.5467 353.406 30.08V27.78C353.406 27.1133 353.259 26.6333 352.966 26.34C352.673 26.0467 352.179 25.9 351.486 25.9C351.099 25.9 350.679 25.9467 350.226 26.04C349.786 26.1333 349.319 26.2933 348.826 26.52C348.573 26.64 348.346 26.6733 348.146 26.62C347.959 26.5667 347.813 26.46 347.706 26.3C347.599 26.1267 347.546 25.94 347.546 25.74C347.546 25.54 347.599 25.3467 347.706 25.16C347.813 24.96 347.993 24.8133 348.246 24.72C348.859 24.4667 349.446 24.2867 350.006 24.18C350.579 24.0733 351.099 24.02 351.566 24.02C352.526 24.02 353.313 24.1667 353.926 24.46C354.553 24.7533 355.019 25.2 355.326 25.8C355.633 26.3867 355.786 27.1467 355.786 28.08V32.88C355.786 33.2933 355.686 33.6133 355.486 33.84C355.286 34.0533 354.999 34.16 354.626 34.16C354.253 34.16 353.959 34.0533 353.746 33.84C353.546 33.6133 353.446 33.2933 353.446 32.88V31.92H353.606C353.513 32.3867 353.326 32.7933 353.046 33.14C352.779 33.4733 352.439 33.7333 352.026 33.92C351.613 34.1067 351.139 34.2 350.606 34.2ZM361.663 34.2C360.557 34.2 359.723 33.8867 359.163 33.26C358.603 32.62 358.323 31.6867 358.323 30.46V21C358.323 20.5867 358.43 20.2733 358.643 20.06C358.857 19.8467 359.163 19.74 359.563 19.74C359.963 19.74 360.27 19.8467 360.483 20.06C360.71 20.2733 360.823 20.5867 360.823 21V30.34C360.823 30.9533 360.95 31.4067 361.203 31.7C361.47 31.9933 361.843 32.14 362.323 32.14C362.43 32.14 362.53 32.14 362.623 32.14C362.717 32.1267 362.81 32.1133 362.903 32.1C363.09 32.0733 363.217 32.1267 363.283 32.26C363.35 32.38 363.383 32.6333 363.383 33.02C363.383 33.3533 363.317 33.6133 363.183 33.8C363.05 33.9867 362.83 34.1 362.523 34.14C362.39 34.1533 362.25 34.1667 362.103 34.18C361.957 34.1933 361.81 34.2 361.663 34.2ZM369.173 37.8C368.453 37.8 367.753 37.7333 367.073 37.6C366.406 37.4667 365.799 37.26 365.253 36.98C364.999 36.8467 364.826 36.6867 364.733 36.5C364.653 36.3133 364.626 36.12 364.653 35.92C364.693 35.7333 364.773 35.5667 364.893 35.42C365.026 35.2733 365.186 35.1733 365.373 35.12C365.559 35.0667 365.753 35.0933 365.952 35.2C366.539 35.4933 367.093 35.68 367.613 35.76C368.146 35.8533 368.599 35.9 368.973 35.9C369.866 35.9 370.533 35.68 370.973 35.24C371.426 34.8133 371.653 34.1733 371.653 33.32V31.52H371.833C371.633 32.2 371.213 32.7467 370.573 33.16C369.946 33.56 369.233 33.76 368.433 33.76C367.553 33.76 366.786 33.56 366.133 33.16C365.479 32.7467 364.973 32.1733 364.613 31.44C364.253 30.7067 364.073 29.8533 364.073 28.88C364.073 28.1467 364.173 27.4867 364.373 26.9C364.586 26.3 364.879 25.7867 365.253 25.36C365.639 24.9333 366.099 24.6067 366.633 24.38C367.179 24.14 367.779 24.02 368.433 24.02C369.259 24.02 369.979 24.2267 370.593 24.64C371.219 25.04 371.626 25.5733 371.813 26.24L371.613 26.74V25.32C371.613 24.9067 371.719 24.5933 371.933 24.38C372.159 24.1667 372.466 24.06 372.853 24.06C373.253 24.06 373.559 24.1667 373.773 24.38C373.986 24.5933 374.093 24.9067 374.093 25.32V33.02C374.093 34.6067 373.673 35.8 372.833 36.6C371.993 37.4 370.773 37.8 369.173 37.8ZM369.113 31.86C369.633 31.86 370.079 31.74 370.453 31.5C370.826 31.26 371.113 30.92 371.313 30.48C371.526 30.0267 371.633 29.4933 371.633 28.88C371.633 27.96 371.406 27.24 370.953 26.72C370.499 26.1867 369.886 25.92 369.113 25.92C368.593 25.92 368.146 26.04 367.773 26.28C367.399 26.52 367.106 26.86 366.893 27.3C366.693 27.74 366.593 28.2667 366.593 28.88C366.593 29.8 366.819 30.5267 367.273 31.06C367.726 31.5933 368.339 31.86 369.113 31.86ZM381.503 34.2C380.396 34.2 379.443 33.9933 378.643 33.58C377.843 33.1667 377.223 32.58 376.783 31.82C376.356 31.06 376.143 30.16 376.143 29.12C376.143 28.1067 376.349 27.22 376.763 26.46C377.189 25.7 377.769 25.1067 378.503 24.68C379.249 24.24 380.096 24.02 381.043 24.02C381.736 24.02 382.356 24.1333 382.903 24.36C383.463 24.5867 383.936 24.9133 384.323 25.34C384.723 25.7667 385.023 26.2867 385.223 26.9C385.436 27.5 385.543 28.18 385.543 28.94C385.543 29.18 385.456 29.3667 385.283 29.5C385.123 29.62 384.889 29.68 384.583 29.68H378.163V28.24H383.783L383.463 28.54C383.463 27.9267 383.369 27.4133 383.183 27C383.009 26.5867 382.749 26.2733 382.403 26.06C382.069 25.8333 381.649 25.72 381.143 25.72C380.583 25.72 380.103 25.8533 379.703 26.12C379.316 26.3733 379.016 26.74 378.803 27.22C378.603 27.6867 378.503 28.2467 378.503 28.9V29.04C378.503 30.1333 378.756 30.9533 379.263 31.5C379.783 32.0333 380.543 32.3 381.543 32.3C381.889 32.3 382.276 32.26 382.703 32.18C383.143 32.0867 383.556 31.9333 383.943 31.72C384.223 31.56 384.469 31.4933 384.683 31.52C384.896 31.5333 385.063 31.6067 385.183 31.74C385.316 31.8733 385.396 32.04 385.423 32.24C385.449 32.4267 385.409 32.62 385.303 32.82C385.209 33.02 385.043 33.1933 384.803 33.34C384.336 33.6333 383.796 33.8533 383.183 34C382.583 34.1333 382.023 34.2 381.503 34.2ZM393.163 34.2C392.336 34.2 391.609 33.9933 390.983 33.58C390.369 33.1667 389.963 32.6133 389.763 31.92L389.983 31.42V32.88C389.983 33.2933 389.876 33.6133 389.663 33.84C389.449 34.0533 389.149 34.16 388.763 34.16C388.363 34.16 388.056 34.0533 387.843 33.84C387.629 33.6133 387.523 33.2933 387.523 32.88V21C387.523 20.5867 387.629 20.2733 387.843 20.06C388.056 19.8467 388.363 19.74 388.763 19.74C389.163 19.74 389.469 19.8467 389.683 20.06C389.909 20.2733 390.023 20.5867 390.023 21V26.2H389.783C389.996 25.5467 390.409 25.02 391.023 24.62C391.636 24.22 392.349 24.02 393.163 24.02C394.029 24.02 394.783 24.2267 395.423 24.64C396.063 25.0533 396.563 25.64 396.923 26.4C397.283 27.1467 397.463 28.0467 397.463 29.1C397.463 30.14 397.283 31.0467 396.923 31.82C396.563 32.58 396.056 33.1667 395.403 33.58C394.763 33.9933 394.016 34.2 393.163 34.2ZM392.463 32.3C392.956 32.3 393.389 32.18 393.763 31.94C394.136 31.7 394.423 31.3467 394.623 30.88C394.836 30.4 394.943 29.8067 394.943 29.1C394.943 28.0333 394.716 27.24 394.263 26.72C393.809 26.1867 393.209 25.92 392.463 25.92C391.969 25.92 391.536 26.04 391.163 26.28C390.789 26.5067 390.496 26.86 390.283 27.34C390.083 27.8067 389.983 28.3933 389.983 29.1C389.983 30.1533 390.209 30.9533 390.663 31.5C391.116 32.0333 391.716 32.3 392.463 32.3ZM400.795 34.16C400.382 34.16 400.062 34.0533 399.835 33.84C399.622 33.6133 399.515 33.2933 399.515 32.88V25.32C399.515 24.9067 399.622 24.5933 399.835 24.38C400.048 24.1667 400.348 24.06 400.735 24.06C401.122 24.06 401.422 24.1667 401.635 24.38C401.848 24.5933 401.955 24.9067 401.955 25.32V26.58H401.755C401.942 25.78 402.308 25.1733 402.855 24.76C403.402 24.3467 404.128 24.1 405.035 24.02C405.315 23.9933 405.535 24.0667 405.695 24.24C405.868 24.4 405.968 24.6533 405.995 25C406.022 25.3333 405.942 25.6067 405.755 25.82C405.582 26.02 405.315 26.14 404.955 26.18L404.515 26.22C403.702 26.3 403.088 26.5533 402.675 26.98C402.262 27.3933 402.055 27.98 402.055 28.74V32.88C402.055 33.2933 401.948 33.6133 401.735 33.84C401.522 34.0533 401.208 34.16 400.795 34.16ZM410.469 34.2C409.763 34.2 409.129 34.0667 408.569 33.8C408.023 33.52 407.589 33.1467 407.269 32.68C406.963 32.2133 406.809 31.6867 406.809 31.1C406.809 30.38 406.996 29.8133 407.369 29.4C407.743 28.9733 408.349 28.6667 409.189 28.48C410.029 28.2933 411.156 28.2 412.569 28.2H413.569V29.64H412.589C411.763 29.64 411.103 29.68 410.609 29.76C410.116 29.84 409.763 29.98 409.549 30.18C409.349 30.3667 409.249 30.6333 409.249 30.98C409.249 31.42 409.403 31.78 409.709 32.06C410.016 32.34 410.443 32.48 410.989 32.48C411.429 32.48 411.816 32.38 412.149 32.18C412.496 31.9667 412.769 31.68 412.969 31.32C413.169 30.96 413.269 30.5467 413.269 30.08V27.78C413.269 27.1133 413.123 26.6333 412.829 26.34C412.536 26.0467 412.043 25.9 411.349 25.9C410.963 25.9 410.543 25.9467 410.089 26.04C409.649 26.1333 409.183 26.2933 408.689 26.52C408.436 26.64 408.209 26.6733 408.009 26.62C407.823 26.5667 407.676 26.46 407.569 26.3C407.463 26.1267 407.409 25.94 407.409 25.74C407.409 25.54 407.463 25.3467 407.569 25.16C407.676 24.96 407.856 24.8133 408.109 24.72C408.723 24.4667 409.309 24.2867 409.869 24.18C410.443 24.0733 410.963 24.02 411.429 24.02C412.389 24.02 413.176 24.1667 413.789 24.46C414.416 24.7533 414.883 25.2 415.189 25.8C415.496 26.3867 415.649 27.1467 415.649 28.08V32.88C415.649 33.2933 415.549 33.6133 415.349 33.84C415.149 34.0533 414.863 34.16 414.489 34.16C414.116 34.16 413.823 34.0533 413.609 33.84C413.409 33.6133 413.309 33.2933 413.309 32.88V31.92H413.469C413.376 32.3867 413.189 32.7933 412.909 33.14C412.643 33.4733 412.303 33.7333 411.889 33.92C411.476 34.1067 411.003 34.2 410.469 34.2ZM419.427 34.14C419.027 34.14 418.72 34.02 418.507 33.78C418.293 33.54 418.187 33.2067 418.187 32.78V25.44C418.187 25 418.293 24.6667 418.507 24.44C418.72 24.2 419.027 24.08 419.427 24.08C419.827 24.08 420.133 24.2 420.347 24.44C420.573 24.6667 420.687 25 420.687 25.44V32.78C420.687 33.2067 420.58 33.54 420.367 33.78C420.153 34.02 419.84 34.14 419.427 34.14ZM419.427 22.22C418.96 22.22 418.593 22.1067 418.327 21.88C418.073 21.64 417.947 21.3133 417.947 20.9C417.947 20.4733 418.073 20.1467 418.327 19.92C418.593 19.6933 418.96 19.58 419.427 19.58C419.907 19.58 420.273 19.6933 420.527 19.92C420.78 20.1467 420.907 20.4733 420.907 20.9C420.907 21.3133 420.78 21.64 420.527 21.88C420.273 22.1067 419.907 22.22 419.427 22.22ZM427.804 34.2C426.778 34.2 425.884 33.9933 425.124 33.58C424.364 33.1533 423.778 32.5533 423.364 31.78C422.951 31.0067 422.744 30.1 422.744 29.06C422.744 28.2733 422.858 27.5733 423.084 26.96C423.324 26.3333 423.664 25.8067 424.104 25.38C424.544 24.94 425.078 24.6067 425.704 24.38C426.331 24.14 427.031 24.02 427.804 24.02C428.244 24.02 428.718 24.08 429.224 24.2C429.744 24.32 430.231 24.52 430.684 24.8C430.898 24.9333 431.038 25.0933 431.104 25.28C431.171 25.4667 431.184 25.66 431.144 25.86C431.104 26.0467 431.018 26.2133 430.884 26.36C430.764 26.4933 430.611 26.58 430.424 26.62C430.238 26.6467 430.031 26.6 429.804 26.48C429.511 26.3067 429.211 26.18 428.904 26.1C428.598 26.0067 428.304 25.96 428.024 25.96C427.584 25.96 427.198 26.0333 426.864 26.18C426.531 26.3133 426.244 26.5133 426.004 26.78C425.778 27.0333 425.604 27.3533 425.484 27.74C425.364 28.1267 425.304 28.5733 425.304 29.08C425.304 30.0667 425.538 30.8467 426.004 31.42C426.484 31.98 427.158 32.26 428.024 32.26C428.304 32.26 428.591 32.22 428.884 32.14C429.191 32.06 429.498 31.9333 429.804 31.76C430.031 31.64 430.231 31.6 430.404 31.64C430.591 31.68 430.744 31.7733 430.864 31.92C430.984 32.0533 431.058 32.22 431.084 32.42C431.111 32.6067 431.084 32.7933 431.004 32.98C430.938 33.1667 430.804 33.32 430.604 33.44C430.164 33.7067 429.698 33.9 429.204 34.02C428.711 34.14 428.244 34.2 427.804 34.2ZM442.968 34.2C441.861 34.2 440.908 33.9933 440.108 33.58C439.308 33.1667 438.688 32.58 438.248 31.82C437.821 31.06 437.608 30.16 437.608 29.12C437.608 28.1067 437.814 27.22 438.228 26.46C438.654 25.7 439.234 25.1067 439.968 24.68C440.714 24.24 441.561 24.02 442.508 24.02C443.201 24.02 443.821 24.1333 444.368 24.36C444.928 24.5867 445.401 24.9133 445.788 25.34C446.188 25.7667 446.488 26.2867 446.688 26.9C446.901 27.5 447.008 28.18 447.008 28.94C447.008 29.18 446.921 29.3667 446.748 29.5C446.588 29.62 446.354 29.68 446.048 29.68H439.628V28.24H445.248L444.928 28.54C444.928 27.9267 444.834 27.4133 444.648 27C444.474 26.5867 444.214 26.2733 443.868 26.06C443.534 25.8333 443.114 25.72 442.608 25.72C442.048 25.72 441.568 25.8533 441.168 26.12C440.781 26.3733 440.481 26.74 440.268 27.22C440.068 27.6867 439.968 28.2467 439.968 28.9V29.04C439.968 30.1333 440.221 30.9533 440.728 31.5C441.248 32.0333 442.008 32.3 443.008 32.3C443.354 32.3 443.741 32.26 444.168 32.18C444.608 32.0867 445.021 31.9333 445.408 31.72C445.688 31.56 445.934 31.4933 446.148 31.52C446.361 31.5333 446.528 31.6067 446.648 31.74C446.781 31.8733 446.861 32.04 446.888 32.24C446.914 32.4267 446.874 32.62 446.768 32.82C446.674 33.02 446.508 33.1933 446.268 33.34C445.801 33.6333 445.261 33.8533 444.648 34C444.048 34.1333 443.488 34.2 442.968 34.2ZM449.609 34.1C449.316 34.1 449.069 34.02 448.869 33.86C448.682 33.6867 448.582 33.4667 448.569 33.2C448.569 32.9333 448.682 32.6533 448.909 32.36L452.149 28.36V29.54L449.109 25.8C448.869 25.5067 448.756 25.2267 448.769 24.96C448.782 24.6933 448.882 24.48 449.069 24.32C449.269 24.1467 449.516 24.06 449.809 24.06C450.116 24.06 450.369 24.1133 450.569 24.22C450.782 24.3267 450.976 24.4933 451.149 24.72L453.549 27.8H452.669L455.089 24.72C455.276 24.4933 455.469 24.3267 455.669 24.22C455.869 24.1133 456.116 24.06 456.409 24.06C456.716 24.06 456.962 24.1467 457.149 24.32C457.336 24.4933 457.429 24.7133 457.429 24.98C457.442 25.2467 457.329 25.5267 457.089 25.82L454.069 29.52V28.4L457.309 32.36C457.549 32.64 457.662 32.9133 457.649 33.18C457.636 33.4467 457.529 33.6667 457.329 33.84C457.142 34.0133 456.896 34.1 456.589 34.1C456.296 34.1 456.049 34.0467 455.849 33.94C455.649 33.8333 455.456 33.6667 455.269 33.44L452.669 30.16H453.509L450.929 33.44C450.756 33.6533 450.569 33.82 450.369 33.94C450.169 34.0467 449.916 34.1 449.609 34.1ZM461.087 37.76C460.687 37.76 460.38 37.6533 460.167 37.44C459.954 37.2267 459.847 36.9133 459.847 36.5V25.32C459.847 24.9067 459.954 24.5933 460.167 24.38C460.38 24.1667 460.68 24.06 461.067 24.06C461.467 24.06 461.774 24.1667 461.987 24.38C462.2 24.5933 462.307 24.9067 462.307 25.32V26.88L462.087 26.28C462.287 25.6 462.694 25.0533 463.307 24.64C463.934 24.2267 464.66 24.02 465.487 24.02C466.34 24.02 467.087 24.2267 467.727 24.64C468.38 25.0533 468.887 25.64 469.247 26.4C469.607 27.1467 469.787 28.0467 469.787 29.1C469.787 30.14 469.607 31.0467 469.247 31.82C468.887 32.58 468.387 33.1667 467.747 33.58C467.107 33.9933 466.354 34.2 465.487 34.2C464.674 34.2 463.96 34 463.347 33.6C462.734 33.1867 462.32 32.6533 462.107 32H462.347V36.5C462.347 36.9133 462.234 37.2267 462.007 37.44C461.794 37.6533 461.487 37.76 461.087 37.76ZM464.787 32.3C465.28 32.3 465.714 32.18 466.087 31.94C466.46 31.7 466.747 31.3467 466.947 30.88C467.16 30.4 467.267 29.8067 467.267 29.1C467.267 28.0333 467.04 27.24 466.587 26.72C466.134 26.1867 465.534 25.92 464.787 25.92C464.294 25.92 463.86 26.04 463.487 26.28C463.114 26.5067 462.82 26.86 462.607 27.34C462.407 27.8067 462.307 28.3933 462.307 29.1C462.307 30.1533 462.534 30.9533 462.987 31.5C463.44 32.0333 464.04 32.3 464.787 32.3ZM473.119 34.16C472.706 34.16 472.386 34.0533 472.159 33.84C471.946 33.6133 471.839 33.2933 471.839 32.88V25.32C471.839 24.9067 471.946 24.5933 472.159 24.38C472.372 24.1667 472.672 24.06 473.059 24.06C473.446 24.06 473.746 24.1667 473.959 24.38C474.172 24.5933 474.279 24.9067 474.279 25.32V26.58H474.079C474.266 25.78 474.632 25.1733 475.179 24.76C475.726 24.3467 476.452 24.1 477.359 24.02C477.639 23.9933 477.859 24.0667 478.019 24.24C478.192 24.4 478.292 24.6533 478.319 25C478.346 25.3333 478.266 25.6067 478.079 25.82C477.906 26.02 477.639 26.14 477.279 26.18L476.839 26.22C476.026 26.3 475.412 26.5533 474.999 26.98C474.586 27.3933 474.379 27.98 474.379 28.74V32.88C474.379 33.2933 474.272 33.6133 474.059 33.84C473.846 34.0533 473.532 34.16 473.119 34.16ZM484.335 34.2C483.228 34.2 482.275 33.9933 481.475 33.58C480.675 33.1667 480.055 32.58 479.615 31.82C479.188 31.06 478.975 30.16 478.975 29.12C478.975 28.1067 479.182 27.22 479.595 26.46C480.022 25.7 480.602 25.1067 481.335 24.68C482.082 24.24 482.928 24.02 483.875 24.02C484.568 24.02 485.188 24.1333 485.735 24.36C486.295 24.5867 486.768 24.9133 487.155 25.34C487.555 25.7667 487.855 26.2867 488.055 26.9C488.268 27.5 488.375 28.18 488.375 28.94C488.375 29.18 488.288 29.3667 488.115 29.5C487.955 29.62 487.722 29.68 487.415 29.68H480.995V28.24H486.615L486.295 28.54C486.295 27.9267 486.202 27.4133 486.015 27C485.842 26.5867 485.582 26.2733 485.235 26.06C484.902 25.8333 484.482 25.72 483.975 25.72C483.415 25.72 482.935 25.8533 482.535 26.12C482.148 26.3733 481.848 26.74 481.635 27.22C481.435 27.6867 481.335 28.2467 481.335 28.9V29.04C481.335 30.1333 481.588 30.9533 482.095 31.5C482.615 32.0333 483.375 32.3 484.375 32.3C484.722 32.3 485.108 32.26 485.535 32.18C485.975 32.0867 486.388 31.9333 486.775 31.72C487.055 31.56 487.302 31.4933 487.515 31.52C487.728 31.5333 487.895 31.6067 488.015 31.74C488.148 31.8733 488.228 32.04 488.255 32.24C488.282 32.4267 488.242 32.62 488.135 32.82C488.042 33.02 487.875 33.1933 487.635 33.34C487.168 33.6333 486.628 33.8533 486.015 34C485.415 34.1333 484.855 34.2 484.335 34.2ZM493.935 34.2C493.361 34.2 492.755 34.14 492.115 34.02C491.475 33.9 490.901 33.6933 490.395 33.4C490.181 33.2667 490.028 33.1133 489.935 32.94C489.855 32.7533 489.821 32.5733 489.835 32.4C489.861 32.2133 489.928 32.0533 490.035 31.92C490.155 31.7867 490.301 31.7 490.475 31.66C490.661 31.62 490.861 31.6533 491.075 31.76C491.608 32.0133 492.108 32.1933 492.575 32.3C493.041 32.3933 493.501 32.44 493.955 32.44C494.595 32.44 495.068 32.3333 495.375 32.12C495.695 31.8933 495.855 31.6 495.855 31.24C495.855 30.9333 495.748 30.7 495.535 30.54C495.335 30.3667 495.028 30.24 494.615 30.16L492.615 29.78C491.788 29.62 491.155 29.32 490.715 28.88C490.288 28.4267 490.075 27.8467 490.075 27.14C490.075 26.5 490.248 25.9467 490.595 25.48C490.955 25.0133 491.448 24.6533 492.075 24.4C492.701 24.1467 493.421 24.02 494.235 24.02C494.821 24.02 495.368 24.0867 495.875 24.22C496.395 24.34 496.895 24.5333 497.375 24.8C497.575 24.9067 497.708 25.0467 497.775 25.22C497.855 25.3933 497.875 25.5733 497.835 25.76C497.795 25.9333 497.715 26.0933 497.595 26.24C497.475 26.3733 497.321 26.46 497.135 26.5C496.961 26.5267 496.761 26.4867 496.535 26.38C496.121 26.1667 495.721 26.0133 495.335 25.92C494.961 25.8267 494.601 25.78 494.255 25.78C493.601 25.78 493.115 25.8933 492.795 26.12C492.488 26.3467 492.335 26.6467 492.335 27.02C492.335 27.3 492.428 27.5333 492.615 27.72C492.801 27.9067 493.088 28.0333 493.475 28.1L495.475 28.48C496.341 28.64 496.995 28.9333 497.435 29.36C497.888 29.7867 498.115 30.36 498.115 31.08C498.115 32.0533 497.735 32.82 496.975 33.38C496.215 33.9267 495.201 34.2 493.935 34.2ZM503.7 34.2C503.127 34.2 502.52 34.14 501.88 34.02C501.24 33.9 500.667 33.6933 500.16 33.4C499.947 33.2667 499.794 33.1133 499.7 32.94C499.62 32.7533 499.587 32.5733 499.6 32.4C499.627 32.2133 499.694 32.0533 499.8 31.92C499.92 31.7867 500.067 31.7 500.24 31.66C500.427 31.62 500.627 31.6533 500.84 31.76C501.374 32.0133 501.874 32.1933 502.34 32.3C502.807 32.3933 503.267 32.44 503.72 32.44C504.36 32.44 504.834 32.3333 505.14 32.12C505.46 31.8933 505.62 31.6 505.62 31.24C505.62 30.9333 505.514 30.7 505.3 30.54C505.1 30.3667 504.794 30.24 504.38 30.16L502.38 29.78C501.554 29.62 500.92 29.32 500.48 28.88C500.054 28.4267 499.84 27.8467 499.84 27.14C499.84 26.5 500.014 25.9467 500.36 25.48C500.72 25.0133 501.214 24.6533 501.84 24.4C502.467 24.1467 503.187 24.02 504 24.02C504.587 24.02 505.134 24.0867 505.64 24.22C506.16 24.34 506.66 24.5333 507.14 24.8C507.34 24.9067 507.474 25.0467 507.54 25.22C507.62 25.3933 507.64 25.5733 507.6 25.76C507.56 25.9333 507.48 26.0933 507.36 26.24C507.24 26.3733 507.087 26.46 506.9 26.5C506.727 26.5267 506.527 26.4867 506.3 26.38C505.887 26.1667 505.487 26.0133 505.1 25.92C504.727 25.8267 504.367 25.78 504.02 25.78C503.367 25.78 502.88 25.8933 502.56 26.12C502.254 26.3467 502.1 26.6467 502.1 27.02C502.1 27.3 502.194 27.5333 502.38 27.72C502.567 27.9067 502.854 28.0333 503.24 28.1L505.24 28.48C506.107 28.64 506.76 28.9333 507.2 29.36C507.654 29.7867 507.88 30.36 507.88 31.08C507.88 32.0533 507.5 32.82 506.74 33.38C505.98 33.9267 504.967 34.2 503.7 34.2ZM511.126 34.14C510.726 34.14 510.419 34.02 510.206 33.78C509.993 33.54 509.886 33.2067 509.886 32.78V25.44C509.886 25 509.993 24.6667 510.206 24.44C510.419 24.2 510.726 24.08 511.126 24.08C511.526 24.08 511.833 24.2 512.046 24.44C512.273 24.6667 512.386 25 512.386 25.44V32.78C512.386 33.2067 512.279 33.54 512.066 33.78C511.853 34.02 511.539 34.14 511.126 34.14ZM511.126 22.22C510.659 22.22 510.293 22.1067 510.026 21.88C509.773 21.64 509.646 21.3133 509.646 20.9C509.646 20.4733 509.773 20.1467 510.026 19.92C510.293 19.6933 510.659 19.58 511.126 19.58C511.606 19.58 511.973 19.6933 512.226 19.92C512.479 20.1467 512.606 20.4733 512.606 20.9C512.606 21.3133 512.479 21.64 512.226 21.88C511.973 22.1067 511.606 22.22 511.126 22.22ZM519.444 34.2C518.43 34.2 517.55 33.9933 516.804 33.58C516.057 33.1667 515.477 32.58 515.064 31.82C514.65 31.0467 514.444 30.14 514.444 29.1C514.444 28.3133 514.557 27.6133 514.784 27C515.024 26.3733 515.364 25.84 515.804 25.4C516.244 24.9467 516.77 24.6067 517.384 24.38C517.997 24.14 518.684 24.02 519.444 24.02C520.457 24.02 521.337 24.2267 522.084 24.64C522.83 25.0533 523.41 25.64 523.824 26.4C524.237 27.16 524.444 28.06 524.444 29.1C524.444 29.8867 524.324 30.5933 524.084 31.22C523.857 31.8467 523.524 32.3867 523.084 32.84C522.644 33.28 522.117 33.62 521.504 33.86C520.89 34.0867 520.204 34.2 519.444 34.2ZM519.444 32.3C519.937 32.3 520.37 32.18 520.744 31.94C521.117 31.7 521.404 31.3467 521.604 30.88C521.817 30.4 521.924 29.8067 521.924 29.1C521.924 28.0333 521.697 27.24 521.244 26.72C520.79 26.1867 520.19 25.92 519.444 25.92C518.95 25.92 518.517 26.04 518.144 26.28C517.77 26.5067 517.477 26.86 517.264 27.34C517.064 27.8067 516.964 28.3933 516.964 29.1C516.964 30.1533 517.19 30.9533 517.644 31.5C518.097 32.0333 518.697 32.3 519.444 32.3ZM527.747 34.16C527.347 34.16 527.04 34.0533 526.827 33.84C526.614 33.6133 526.507 33.2933 526.507 32.88V25.32C526.507 24.9067 526.614 24.5933 526.827 24.38C527.04 24.1667 527.34 24.06 527.727 24.06C528.114 24.06 528.414 24.1667 528.627 24.38C528.84 24.5933 528.947 24.9067 528.947 25.32V26.68L528.727 26.18C529.02 25.4733 529.474 24.94 530.087 24.58C530.714 24.2067 531.42 24.02 532.207 24.02C532.994 24.02 533.64 24.1667 534.147 24.46C534.654 24.7533 535.034 25.2 535.287 25.8C535.54 26.3867 535.667 27.1333 535.667 28.04V32.88C535.667 33.2933 535.56 33.6133 535.347 33.84C535.134 34.0533 534.827 34.16 534.427 34.16C534.027 34.16 533.714 34.0533 533.487 33.84C533.274 33.6133 533.167 33.2933 533.167 32.88V28.16C533.167 27.4 533.02 26.8467 532.727 26.5C532.447 26.1533 532.007 25.98 531.407 25.98C530.674 25.98 530.087 26.2133 529.647 26.68C529.22 27.1333 529.007 27.74 529.007 28.5V32.88C529.007 33.7333 528.587 34.16 527.747 34.16ZM539.406 34.1C538.953 34.1 538.586 33.96 538.306 33.68C538.04 33.4 537.906 33.04 537.906 32.6C537.906 32.1733 538.04 31.8267 538.306 31.56C538.586 31.28 538.953 31.14 539.406 31.14C539.873 31.14 540.233 31.28 540.486 31.56C540.753 31.8267 540.886 32.1733 540.886 32.6C540.886 33.04 540.753 33.4 540.486 33.68C540.233 33.96 539.873 34.1 539.406 34.1Z" fill="#32A66C"/>
<circle cx="34" cy="27" r="11" stroke="#32A66C" stroke-width="2"/>
<path d="M33.9887 21.207C34.8967 21.207 35.6533 21.9608 35.6533 22.8612C35.6533 23.7654 34.8967 24.5173 33.9887 24.5173C33.0807 24.5173 32.343 23.7823 32.343 22.8819C32.343 21.9608 33.0807 21.207 33.9887 21.207V21.207Z" fill="#32A66C"/>
<rect x="35.6533" y="32.7932" width="3.31034" height="7.44828" rx="1.65517" transform="rotate(-180 35.6533 32.7932)" fill="#32A66C"/>
</svg>
