<svg width="102" height="60" viewBox="0 0 102 60" fill="none" xmlns="http://www.w3.org/2000/svg">
<rect width="102" height="60" rx="10" fill="#1A1A1A"/>
<g clip-path="url(#clip0_6486_905)">
<path d="M27.6864 38.192C27.2224 38.192 26.8624 38.064 26.6064 37.808C26.3664 37.552 26.2464 37.184 26.2464 36.704V22.424C26.2464 21.928 26.3664 21.552 26.6064 21.296C26.8624 21.024 27.1904 20.888 27.5904 20.888C27.9584 20.888 28.2304 20.96 28.4064 21.104C28.5984 21.232 28.8224 21.456 29.0784 21.776L38.2704 33.704H37.6464V22.352C37.6464 21.888 37.7664 21.528 38.0064 21.272C38.2624 21.016 38.6224 20.888 39.0864 20.888C39.5504 20.888 39.9024 21.016 40.1424 21.272C40.3824 21.528 40.5024 21.888 40.5024 22.352V36.752C40.5024 37.2 40.3904 37.552 40.1664 37.808C39.9424 38.064 39.6384 38.192 39.2544 38.192C38.8864 38.192 38.5904 38.12 38.3664 37.976C38.1584 37.832 37.9264 37.6 37.6704 37.28L28.5024 25.352H29.1024V36.704C29.1024 37.184 28.9824 37.552 28.7424 37.808C28.5024 38.064 28.1504 38.192 27.6864 38.192ZM49.6956 38.24C48.3676 38.24 47.2236 37.992 46.2636 37.496C45.3036 37 44.5596 36.296 44.0316 35.384C43.5196 34.472 43.2636 33.392 43.2636 32.144C43.2636 30.928 43.5116 29.864 44.0076 28.952C44.5196 28.04 45.2156 27.328 46.0956 26.816C46.9916 26.288 48.0076 26.024 49.1436 26.024C49.9756 26.024 50.7196 26.16 51.3756 26.432C52.0476 26.704 52.6156 27.096 53.0796 27.608C53.5596 28.12 53.9196 28.744 54.1596 29.48C54.4156 30.2 54.5436 31.016 54.5436 31.928C54.5436 32.216 54.4396 32.44 54.2316 32.6C54.0396 32.744 53.7596 32.816 53.3916 32.816H45.6876V31.088H52.4316L52.0476 31.448C52.0476 30.712 51.9356 30.096 51.7116 29.6C51.5036 29.104 51.1916 28.728 50.7756 28.472C50.3756 28.2 49.8716 28.064 49.2636 28.064C48.5916 28.064 48.0156 28.224 47.5356 28.544C47.0716 28.848 46.7116 29.288 46.4556 29.864C46.2156 30.424 46.0956 31.096 46.0956 31.88V32.048C46.0956 33.36 46.3996 34.344 47.0076 35C47.6316 35.64 48.5436 35.96 49.7436 35.96C50.1596 35.96 50.6236 35.912 51.1356 35.816C51.6636 35.704 52.1596 35.52 52.6236 35.264C52.9596 35.072 53.2556 34.992 53.5116 35.024C53.7676 35.04 53.9676 35.128 54.1116 35.288C54.2716 35.448 54.3676 35.648 54.3996 35.888C54.4316 36.112 54.3836 36.344 54.2556 36.584C54.1436 36.824 53.9436 37.032 53.6556 37.208C53.0956 37.56 52.4476 37.824 51.7116 38C50.9916 38.16 50.3196 38.24 49.6956 38.24ZM57.6651 38.12C57.3131 38.12 57.0171 38.024 56.7771 37.832C56.5531 37.624 56.4331 37.36 56.4171 37.04C56.4171 36.72 56.5531 36.384 56.8251 36.032L60.7131 31.232V32.648L57.0651 28.16C56.7771 27.808 56.6411 27.472 56.6571 27.152C56.6731 26.832 56.7931 26.576 57.0171 26.384C57.2571 26.176 57.5531 26.072 57.9051 26.072C58.2731 26.072 58.5771 26.136 58.8171 26.264C59.0731 26.392 59.3051 26.592 59.5131 26.864L62.3931 30.56H61.3371L64.2411 26.864C64.4651 26.592 64.6971 26.392 64.9371 26.264C65.1771 26.136 65.4731 26.072 65.8251 26.072C66.1931 26.072 66.4891 26.176 66.7131 26.384C66.9371 26.592 67.0491 26.856 67.0491 27.176C67.0651 27.496 66.9291 27.832 66.6411 28.184L63.0171 32.624V31.28L66.9051 36.032C67.1931 36.368 67.3291 36.696 67.3131 37.016C67.2971 37.336 67.1691 37.6 66.9291 37.808C66.7051 38.016 66.4091 38.12 66.0411 38.12C65.6891 38.12 65.3931 38.056 65.1531 37.928C64.9131 37.8 64.6811 37.6 64.4571 37.328L61.3371 33.392H62.3451L59.2491 37.328C59.0411 37.584 58.8171 37.784 58.5771 37.928C58.3371 38.056 58.0331 38.12 57.6651 38.12ZM75.3266 38.24C74.2866 38.24 73.4146 38.064 72.7106 37.712C72.0226 37.36 71.5106 36.848 71.1746 36.176C70.8386 35.488 70.6706 34.64 70.6706 33.632V28.52H69.4226C69.0386 28.52 68.7426 28.424 68.5346 28.232C68.3266 28.024 68.2226 27.744 68.2226 27.392C68.2226 27.024 68.3266 26.744 68.5346 26.552C68.7426 26.36 69.0386 26.264 69.4226 26.264H70.6706V24.08C70.6706 23.584 70.7986 23.208 71.0546 22.952C71.3266 22.696 71.7026 22.568 72.1826 22.568C72.6626 22.568 73.0306 22.696 73.2866 22.952C73.5426 23.208 73.6706 23.584 73.6706 24.08V26.264H76.2146C76.5986 26.264 76.8946 26.36 77.1026 26.552C77.3106 26.744 77.4146 27.024 77.4146 27.392C77.4146 27.744 77.3106 28.024 77.1026 28.232C76.8946 28.424 76.5986 28.52 76.2146 28.52H73.6706V33.464C73.6706 34.232 73.8386 34.808 74.1746 35.192C74.5106 35.576 75.0546 35.768 75.8066 35.768C76.0786 35.768 76.3186 35.744 76.5266 35.696C76.7346 35.648 76.9186 35.616 77.0786 35.6C77.2706 35.584 77.4306 35.648 77.5586 35.792C77.6866 35.92 77.7506 36.192 77.7506 36.608C77.7506 36.928 77.6946 37.216 77.5826 37.472C77.4866 37.712 77.3026 37.88 77.0306 37.976C76.8226 38.04 76.5506 38.096 76.2146 38.144C75.8786 38.208 75.5826 38.24 75.3266 38.24Z" fill="white"/>
</g>
<defs>
<clipPath id="clip0_6486_905">
<rect width="54" height="28" fill="white" transform="translate(24 16)"/>
</clipPath>
</defs>
</svg>
