<svg width="224" height="108" viewBox="0 0 224 108" fill="none" xmlns="http://www.w3.org/2000/svg">
<path d="M223.69 107.62V0L0 107.74L223.69 107.62Z" fill="#D0F7FF"/>
<path d="M117.48 106.12V52.82L222.19 2.39V106.12H117.48Z" fill="#FFF5DA"/>
<path d="M220.69 4.77V104.61H118.98V53.76L220.69 4.77ZM223.69 0L115.98 51.88V107.62H223.69V0Z" fill="#CF8D06"/>
<path d="M220.69 4.77V104.61L13.16 104.72L220.69 4.77ZM223.69 0L0 107.74L223.69 107.62V0Z" fill="#8C69FF"/>
<path d="M211.96 59.09C211.13 59.09 210.41 58.88 209.78 58.47C209.17 58.06 208.76 57.5 208.56 56.81L208.78 56.31V57.77C208.78 58.18 208.67 58.5 208.46 58.73C208.25 58.94 207.95 59.05 207.56 59.05C207.17 59.05 206.85 58.94 206.64 58.73C206.43 58.5 206.32 58.18 206.32 57.77V45.89C206.32 45.48 206.43 45.16 206.64 44.95C206.85 44.74 207.16 44.63 207.56 44.63C207.96 44.63 208.27 44.74 208.48 44.95C208.71 45.16 208.82 45.48 208.82 45.89V51.09H208.58C208.79 50.44 209.21 49.91 209.82 49.51C210.43 49.11 211.15 48.91 211.96 48.91C212.83 48.91 213.58 49.12 214.22 49.53C214.86 49.94 215.36 50.53 215.72 51.29C216.08 52.04 216.26 52.94 216.26 53.99C216.26 55.04 216.08 55.94 215.72 56.71C215.36 57.47 214.85 58.06 214.2 58.47C213.56 58.88 212.81 59.09 211.96 59.09ZM211.26 57.19C211.75 57.19 212.19 57.07 212.56 56.83C212.93 56.59 213.22 56.24 213.42 55.77C213.63 55.29 213.74 54.7 213.74 53.99C213.74 52.92 213.51 52.13 213.06 51.61C212.61 51.08 212.01 50.81 211.26 50.81C210.77 50.81 210.33 50.93 209.96 51.17C209.59 51.4 209.29 51.75 209.08 52.23C208.88 52.7 208.78 53.28 208.78 53.99C208.78 55.04 209.01 55.84 209.46 56.39C209.91 56.92 210.51 57.19 211.26 57.19Z" fill="#AA5EE0"/>
<path d="M167.7 102.33C166.99 102.33 166.36 102.2 165.8 101.93C165.25 101.65 164.82 101.28 164.5 100.81C164.19 100.34 164.04 99.82 164.04 99.23C164.04 98.51 164.23 97.94 164.6 97.53C164.97 97.1 165.58 96.8 166.42 96.61C167.26 96.42 168.39 96.33 169.8 96.33H170.8V97.77H169.82C168.99 97.77 168.33 97.81 167.84 97.89C167.35 97.97 166.99 98.11 166.78 98.31C166.58 98.5 166.48 98.76 166.48 99.11C166.48 99.55 166.63 99.91 166.94 100.19C167.25 100.47 167.67 100.61 168.22 100.61C168.66 100.61 169.05 100.51 169.38 100.31C169.73 100.1 170 99.81 170.2 99.45C170.4 99.09 170.5 98.68 170.5 98.21V95.91C170.5 95.24 170.35 94.76 170.06 94.47C169.77 94.18 169.27 94.03 168.58 94.03C168.19 94.03 167.77 94.08 167.32 94.17C166.88 94.26 166.41 94.42 165.92 94.65C165.67 94.77 165.44 94.8 165.24 94.75C165.05 94.7 164.91 94.59 164.8 94.43C164.69 94.26 164.64 94.07 164.64 93.87C164.64 93.67 164.69 93.48 164.8 93.29C164.91 93.09 165.09 92.94 165.34 92.85C165.95 92.6 166.54 92.42 167.1 92.31C167.67 92.2 168.19 92.15 168.66 92.15C169.62 92.15 170.41 92.3 171.02 92.59C171.65 92.88 172.11 93.33 172.42 93.93C172.73 94.52 172.88 95.28 172.88 96.21V101.01C172.88 101.42 172.78 101.74 172.58 101.97C172.38 102.18 172.09 102.29 171.72 102.29C171.35 102.29 171.05 102.18 170.84 101.97C170.64 101.74 170.54 101.42 170.54 101.01V100.05H170.7C170.61 100.52 170.42 100.92 170.14 101.27C169.87 101.6 169.53 101.86 169.12 102.05C168.71 102.24 168.23 102.33 167.7 102.33Z" fill="#AA5EE0"/>
<path d="M127.83 66.36C126.8 66.36 125.91 66.15 125.15 65.74C124.39 65.31 123.8 64.71 123.39 63.94C122.98 63.17 122.77 62.26 122.77 61.22C122.77 60.43 122.88 59.73 123.11 59.12C123.35 58.49 123.69 57.97 124.13 57.54C124.57 57.1 125.1 56.77 125.73 56.54C126.36 56.3 127.06 56.18 127.83 56.18C128.27 56.18 128.74 56.24 129.25 56.36C129.77 56.48 130.26 56.68 130.71 56.96C130.92 57.09 131.06 57.25 131.13 57.44C131.2 57.63 131.21 57.82 131.17 58.02C131.13 58.21 131.04 58.37 130.91 58.52C130.79 58.65 130.64 58.74 130.45 58.78C130.26 58.81 130.06 58.76 129.83 58.64C129.54 58.47 129.24 58.34 128.93 58.26C128.62 58.17 128.33 58.12 128.05 58.12C127.61 58.12 127.22 58.19 126.89 58.34C126.56 58.47 126.27 58.67 126.03 58.94C125.8 59.19 125.63 59.51 125.51 59.9C125.39 60.29 125.33 60.73 125.33 61.24C125.33 62.23 125.56 63.01 126.03 63.58C126.51 64.14 127.18 64.42 128.05 64.42C128.33 64.42 128.62 64.38 128.91 64.3C129.22 64.22 129.52 64.09 129.83 63.92C130.06 63.8 130.26 63.76 130.43 63.8C130.62 63.84 130.77 63.93 130.89 64.08C131.01 64.21 131.08 64.38 131.11 64.58C131.14 64.77 131.11 64.95 131.03 65.14C130.96 65.33 130.83 65.48 130.63 65.6C130.19 65.87 129.72 66.06 129.23 66.18C128.74 66.3 128.27 66.36 127.83 66.36Z" fill="#AA5EE0"/>
</svg>
