<svg width="112" height="219" viewBox="0 0 112 219" fill="none" xmlns="http://www.w3.org/2000/svg">
<path d="M1.5 217.2V6.25999L108.74 217.2H1.5Z" fill="#D1F7FF"/>
<path d="M3 12.52L106.29 215.7H3V12.52ZM0 0V218.7H111.18L0 0Z" fill="#8C69FF"/>
<path d="M52.45 212.17C51.61 212.17 50.88 211.96 50.25 211.54C49.63 211.12 49.22 210.56 49.02 209.86L49.24 209.35V210.83C49.24 211.25 49.13 211.57 48.92 211.8C48.7 212.02 48.4 212.12 48.01 212.12C47.62 212.12 47.3 212.01 47.08 211.8C46.86 211.57 46.76 211.25 46.76 210.83V198.81C46.76 198.39 46.87 198.08 47.08 197.86C47.3 197.64 47.61 197.54 48.01 197.54C48.41 197.54 48.72 197.65 48.94 197.86C49.17 198.08 49.28 198.39 49.28 198.81V204.07H49.04C49.26 203.41 49.67 202.88 50.29 202.47C50.91 202.07 51.63 201.86 52.45 201.86C53.33 201.86 54.09 202.07 54.74 202.49C55.39 202.91 55.89 203.5 56.26 204.27C56.62 205.03 56.81 205.94 56.81 207C56.81 208.06 56.63 208.97 56.26 209.75C55.9 210.52 55.38 211.11 54.72 211.53C54.07 211.95 53.32 212.16 52.45 212.16V212.17ZM51.74 210.25C52.24 210.25 52.68 210.13 53.05 209.89C53.43 209.65 53.72 209.29 53.92 208.82C54.14 208.33 54.24 207.73 54.24 207.02C54.24 205.94 54.01 205.14 53.55 204.61C53.09 204.07 52.48 203.8 51.73 203.8C51.23 203.8 50.79 203.92 50.42 204.16C50.04 204.39 49.75 204.75 49.53 205.23C49.33 205.7 49.23 206.3 49.23 207.01C49.23 208.08 49.46 208.88 49.92 209.44C50.38 209.98 50.99 210.25 51.74 210.25Z" fill="#AA5EE0"/>
<path d="M9.48999 113.26C8.77999 113.26 8.12999 113.13 7.56999 112.86C7.01999 112.58 6.57999 112.2 6.25999 111.73C5.94999 111.26 5.78999 110.73 5.78999 110.13C5.78999 109.4 5.97999 108.83 6.35999 108.41C6.73999 107.98 7.34999 107.67 8.19999 107.48C9.04999 107.29 10.19 107.2 11.62 107.2H12.63V108.66H11.64C10.8 108.66 10.14 108.7 9.63999 108.78C9.13999 108.86 8.77999 109 8.56999 109.2C8.36999 109.39 8.26999 109.66 8.26999 110.01C8.26999 110.46 8.42999 110.82 8.73999 111.1C9.04999 111.38 9.47999 111.52 10.03 111.52C10.48 111.52 10.87 111.42 11.2 111.22C11.55 111 11.83 110.71 12.03 110.35C12.23 109.99 12.33 109.57 12.33 109.1V106.77C12.33 106.1 12.18 105.61 11.88 105.31C11.58 105.01 11.08 104.86 10.38 104.86C9.98999 104.86 9.55999 104.91 9.10999 105C8.65999 105.09 8.18999 105.26 7.68999 105.49C7.42999 105.61 7.19999 105.65 6.99999 105.59C6.80999 105.54 6.65999 105.43 6.54999 105.27C6.43999 105.09 6.38999 104.91 6.38999 104.7C6.38999 104.49 6.43999 104.3 6.54999 104.11C6.65999 103.91 6.83999 103.76 7.09999 103.66C7.71999 103.4 8.30999 103.22 8.87999 103.11C9.45999 103 9.98999 102.95 10.46 102.95C11.43 102.95 12.23 103.1 12.85 103.4C13.48 103.7 13.96 104.15 14.27 104.76C14.58 105.35 14.74 106.12 14.74 107.07V111.92C14.74 112.34 14.64 112.66 14.44 112.89C14.24 113.11 13.95 113.21 13.57 113.21C13.19 113.21 12.9 113.1 12.68 112.89C12.48 112.66 12.38 112.34 12.38 111.92V110.95H12.54C12.45 111.42 12.26 111.83 11.97 112.18C11.7 112.52 11.36 112.78 10.94 112.97C10.52 113.16 10.04 113.25 9.49999 113.25L9.48999 113.26Z" fill="#AA5EE0"/>
<path d="M47.61 132.27C46.57 132.27 45.67 132.06 44.9 131.64C44.13 131.21 43.54 130.6 43.12 129.82C42.7 129.04 42.49 128.12 42.49 127.07C42.49 126.27 42.6 125.57 42.83 124.95C43.07 124.32 43.42 123.78 43.86 123.35C44.31 122.9 44.84 122.57 45.48 122.34C46.11 122.1 46.82 121.98 47.6 121.98C48.05 121.98 48.52 122.04 49.04 122.16C49.57 122.28 50.06 122.48 50.52 122.77C50.74 122.9 50.88 123.07 50.94 123.26C51.01 123.45 51.02 123.64 50.98 123.85C50.94 124.04 50.85 124.21 50.72 124.36C50.6 124.49 50.44 124.58 50.25 124.62C50.06 124.65 49.85 124.6 49.62 124.48C49.32 124.3 49.02 124.18 48.71 124.1C48.4 124.01 48.1 123.96 47.82 123.96C47.37 123.96 46.98 124.03 46.65 124.18C46.31 124.31 46.02 124.52 45.78 124.79C45.55 125.05 45.38 125.37 45.25 125.76C45.13 126.15 45.07 126.6 45.07 127.12C45.07 128.12 45.31 128.91 45.78 129.49C46.27 130.06 46.95 130.34 47.82 130.34C48.1 130.34 48.39 130.3 48.69 130.22C49 130.14 49.31 130.01 49.62 129.84C49.85 129.72 50.05 129.68 50.23 129.72C50.42 129.76 50.57 129.85 50.7 130C50.82 130.13 50.9 130.3 50.92 130.51C50.95 130.7 50.92 130.89 50.84 131.08C50.77 131.27 50.64 131.42 50.44 131.55C49.99 131.82 49.52 132.02 49.02 132.14C48.52 132.26 48.05 132.32 47.6 132.32L47.61 132.27Z" fill="#AA5EE0"/>
</svg>
