<svg width="201" height="103" viewBox="0 0 201 103" fill="none" xmlns="http://www.w3.org/2000/svg">
<rect x="0.25" y="0.25" width="200.5" height="95.5" rx="7.75" fill="white"/>
<path d="M18.544 29.144C17.3387 29.144 16.32 28.9147 15.488 28.456C14.6667 27.9973 14.0427 27.336 13.616 26.472C13.1893 25.608 12.976 24.5733 12.976 23.368C12.976 22.472 13.0933 21.6667 13.328 20.952C13.5733 20.2373 13.9253 19.6347 14.384 19.144C14.8533 18.6427 15.4187 18.2587 16.08 17.992C16.752 17.7147 17.5093 17.576 18.352 17.576C19.024 17.576 19.6747 17.672 20.304 17.864C20.9333 18.0453 21.4933 18.3387 21.984 18.744C22.112 18.84 22.192 18.9467 22.224 19.064C22.256 19.1813 22.2507 19.2987 22.208 19.416C22.176 19.5333 22.1173 19.6347 22.032 19.72C21.9573 19.7947 21.856 19.8373 21.728 19.848C21.6107 19.8587 21.488 19.8213 21.36 19.736C20.9227 19.3947 20.4587 19.1493 19.968 19C19.4773 18.84 18.9333 18.76 18.336 18.76C17.4827 18.76 16.7573 18.9413 16.16 19.304C15.5733 19.6667 15.1253 20.1893 14.816 20.872C14.5173 21.5547 14.368 22.3867 14.368 23.368C14.368 24.8613 14.7147 26.0027 15.408 26.792C16.112 27.5813 17.168 27.976 18.576 27.976C19.088 27.976 19.5893 27.928 20.08 27.832C20.5707 27.7253 21.0347 27.5813 21.472 27.4L21.184 28.152V24.168H18.896C18.704 24.168 18.56 24.12 18.464 24.024C18.368 23.928 18.32 23.8 18.32 23.64C18.32 23.4693 18.368 23.3413 18.464 23.256C18.56 23.1707 18.704 23.128 18.896 23.128H21.76C21.9413 23.128 22.08 23.176 22.176 23.272C22.272 23.368 22.32 23.5067 22.32 23.688V27.864C22.32 28.024 22.2933 28.1573 22.24 28.264C22.1867 28.3707 22.096 28.4507 21.968 28.504C21.52 28.6853 20.9813 28.84 20.352 28.968C19.7333 29.0853 19.1307 29.144 18.544 29.144ZM29.8814 29.144C28.772 29.144 27.8227 28.9093 27.0334 28.44C26.244 27.9707 25.636 27.304 25.2094 26.44C24.7934 25.576 24.5854 24.5467 24.5854 23.352C24.5854 22.456 24.7027 21.656 24.9374 20.952C25.1827 20.2373 25.5294 19.6347 25.9774 19.144C26.436 18.6427 26.996 18.2587 27.6574 17.992C28.3187 17.7147 29.06 17.576 29.8814 17.576C30.5427 17.576 31.172 17.672 31.7694 17.864C32.3667 18.0453 32.884 18.3173 33.3214 18.68C33.46 18.7867 33.5507 18.9093 33.5934 19.048C33.6467 19.176 33.652 19.304 33.6094 19.432C33.5774 19.5493 33.5134 19.6507 33.4174 19.736C33.332 19.8107 33.2254 19.848 33.0974 19.848C32.9694 19.848 32.8254 19.7947 32.6654 19.688C32.2814 19.3787 31.86 19.1493 31.4014 19C30.9427 18.8507 30.4467 18.776 29.9134 18.776C29.0707 18.776 28.356 18.9573 27.7694 19.32C27.1827 19.672 26.74 20.1893 26.4414 20.872C26.1427 21.5547 25.9934 22.3813 25.9934 23.352C25.9934 24.3227 26.1427 25.1547 26.4414 25.848C26.74 26.5307 27.1827 27.0533 27.7694 27.416C28.356 27.768 29.0707 27.944 29.9134 27.944C30.436 27.944 30.932 27.8693 31.4014 27.72C31.8707 27.56 32.3027 27.3253 32.6974 27.016C32.8574 26.9093 33.0014 26.8613 33.1294 26.872C33.2574 26.872 33.364 26.9093 33.4494 26.984C33.5347 27.0587 33.5934 27.1547 33.6254 27.272C33.668 27.3893 33.668 27.512 33.6254 27.64C33.5934 27.768 33.5134 27.88 33.3854 27.976C32.9374 28.36 32.4094 28.6533 31.8014 28.856C31.204 29.048 30.564 29.144 29.8814 29.144ZM36.471 29.112C36.247 29.112 36.071 29.0533 35.943 28.936C35.8257 28.808 35.767 28.6267 35.767 28.392V18.44C35.767 18.2053 35.8257 18.0293 35.943 17.912C36.071 17.784 36.2523 17.72 36.487 17.72H42.295C42.4763 17.72 42.615 17.768 42.711 17.864C42.807 17.96 42.855 18.0933 42.855 18.264C42.855 18.4453 42.807 18.584 42.711 18.68C42.615 18.776 42.4763 18.824 42.295 18.824H37.079V22.76H41.959C42.1403 22.76 42.279 22.808 42.375 22.904C42.4817 23 42.535 23.1333 42.535 23.304C42.535 23.4853 42.4817 23.624 42.375 23.72C42.279 23.816 42.1403 23.864 41.959 23.864H37.079V28.392C37.079 28.872 36.8763 29.112 36.471 29.112ZM48.5616 23.304C48.4016 23.304 48.2736 23.2613 48.1776 23.176C48.0923 23.0907 48.0496 22.968 48.0496 22.808C48.0496 22.648 48.0923 22.5253 48.1776 22.44C48.2736 22.3547 48.4016 22.312 48.5616 22.312H55.5696C55.7296 22.312 55.8523 22.3547 55.9376 22.44C56.0336 22.5253 56.0816 22.648 56.0816 22.808C56.0816 22.968 56.0336 23.0907 55.9376 23.176C55.8523 23.2613 55.7296 23.304 55.5696 23.304H48.5616ZM48.5616 26.488C48.4016 26.488 48.2736 26.4453 48.1776 26.36C48.0923 26.2747 48.0496 26.152 48.0496 25.992C48.0496 25.832 48.0923 25.7147 48.1776 25.64C48.2736 25.5547 48.4016 25.512 48.5616 25.512H55.5696C55.7296 25.512 55.8523 25.5547 55.9376 25.64C56.0336 25.7147 56.0816 25.832 56.0816 25.992C56.0816 26.1627 56.0336 26.2907 55.9376 26.376C55.8523 26.4507 55.7296 26.488 55.5696 26.488H48.5616ZM63.0324 29.112C62.819 29.112 62.6537 29.0533 62.5364 28.936C62.4297 28.808 62.3764 28.6373 62.3764 28.424V18.392C62.3764 18.168 62.435 18.0027 62.5524 17.896C62.6697 17.7787 62.835 17.72 63.0484 17.72H66.8404C68.0457 17.72 68.9737 18.0187 69.6244 18.616C70.275 19.2027 70.6004 20.0347 70.6004 21.112C70.6004 22.1787 70.275 23.0107 69.6244 23.608C68.9737 24.2053 68.0457 24.504 66.8404 24.504H63.6884V28.424C63.6884 28.6373 63.635 28.808 63.5284 28.936C63.4217 29.0533 63.2564 29.112 63.0324 29.112ZM63.6884 23.4H66.6804C67.5444 23.4 68.195 23.208 68.6324 22.824C69.0804 22.4293 69.3044 21.8587 69.3044 21.112C69.3044 20.3547 69.0804 19.784 68.6324 19.4C68.195 19.0053 67.5444 18.808 66.6804 18.808H63.6884V23.4ZM72.8251 29.112C72.6118 29.112 72.4465 29.0533 72.3291 28.936C72.2225 28.8187 72.1691 28.6533 72.1691 28.44V21.768C72.1691 21.5547 72.2225 21.3947 72.3291 21.288C72.4358 21.1707 72.5905 21.112 72.7931 21.112C72.9958 21.112 73.1505 21.1707 73.2571 21.288C73.3745 21.3947 73.4331 21.5547 73.4331 21.768V23.064H73.2731C73.4438 22.4347 73.7691 21.9493 74.2491 21.608C74.7291 21.2667 75.3211 21.0853 76.0251 21.064C76.1851 21.0533 76.3131 21.0907 76.4091 21.176C76.5051 21.2507 76.5585 21.384 76.5691 21.576C76.5798 21.7573 76.5371 21.9013 76.4411 22.008C76.3451 22.1147 76.1958 22.1787 75.9931 22.2L75.7371 22.232C75.0118 22.296 74.4518 22.5307 74.0571 22.936C73.6731 23.3307 73.4811 23.8747 73.4811 24.568V28.44C73.4811 28.6533 73.4225 28.8187 73.3051 28.936C73.1985 29.0533 73.0385 29.112 72.8251 29.112ZM81.0418 29.144C80.2844 29.144 79.6284 28.9787 79.0738 28.648C78.5191 28.3173 78.0871 27.8533 77.7778 27.256C77.4791 26.648 77.3298 25.9333 77.3298 25.112C77.3298 24.4933 77.4151 23.9387 77.5858 23.448C77.7564 22.9467 78.0071 22.52 78.3378 22.168C78.6684 21.816 79.0578 21.5493 79.5058 21.368C79.9644 21.176 80.4764 21.08 81.0418 21.08C81.7991 21.08 82.4551 21.2453 83.0098 21.576C83.5644 21.9067 83.9911 22.376 84.2898 22.984C84.5991 23.5813 84.7538 24.2907 84.7538 25.112C84.7538 25.7307 84.6684 26.2853 84.4978 26.776C84.3271 27.2667 84.0764 27.6933 83.7458 28.056C83.4151 28.408 83.0204 28.68 82.5618 28.872C82.1138 29.0533 81.6071 29.144 81.0418 29.144ZM81.0418 28.104C81.5218 28.104 81.9431 27.9867 82.3058 27.752C82.6684 27.5173 82.9458 27.176 83.1378 26.728C83.3404 26.28 83.4418 25.7413 83.4418 25.112C83.4418 24.1413 83.2231 23.4 82.7858 22.888C82.3591 22.376 81.7778 22.12 81.0418 22.12C80.5511 22.12 80.1244 22.2373 79.7618 22.472C79.4098 22.696 79.1324 23.032 78.9298 23.48C78.7378 23.9173 78.6418 24.4613 78.6418 25.112C78.6418 26.072 78.8604 26.8133 79.2978 27.336C79.7351 27.848 80.3164 28.104 81.0418 28.104ZM89.6604 29.144C88.967 29.144 88.359 28.9787 87.8364 28.648C87.3244 28.3173 86.9244 27.8533 86.6364 27.256C86.359 26.648 86.2204 25.9333 86.2204 25.112C86.2204 24.28 86.359 23.5653 86.6364 22.968C86.9244 22.36 87.3244 21.896 87.8364 21.576C88.359 21.2453 88.967 21.08 89.6604 21.08C90.3644 21.08 90.967 21.256 91.4684 21.608C91.9697 21.96 92.3057 22.4347 92.4764 23.032H92.3004V18.264C92.3004 18.0507 92.3537 17.8907 92.4604 17.784C92.5777 17.6667 92.743 17.608 92.9564 17.608C93.159 17.608 93.3137 17.6667 93.4204 17.784C93.5377 17.8907 93.5964 18.0507 93.5964 18.264V28.44C93.5964 28.6533 93.543 28.8187 93.4364 28.936C93.3297 29.0533 93.1697 29.112 92.9564 29.112C92.7537 29.112 92.5937 29.0533 92.4764 28.936C92.3697 28.8187 92.3164 28.6533 92.3164 28.44V26.92L92.4924 27.144C92.3217 27.752 91.9804 28.2373 91.4684 28.6C90.967 28.9627 90.3644 29.144 89.6604 29.144ZM89.9324 28.104C90.4124 28.104 90.8337 27.9867 91.1964 27.752C91.559 27.5173 91.8364 27.176 92.0284 26.728C92.231 26.28 92.3324 25.7413 92.3324 25.112C92.3324 24.1413 92.1137 23.4 91.6764 22.888C91.2497 22.376 90.6684 22.12 89.9324 22.12C89.4417 22.12 89.015 22.2373 88.6524 22.472C88.3004 22.696 88.023 23.032 87.8204 23.48C87.6284 23.9173 87.5324 24.4613 87.5324 25.112C87.5324 26.072 87.751 26.8133 88.1884 27.336C88.6257 27.848 89.207 28.104 89.9324 28.104ZM98.7805 29.144C98.1512 29.144 97.6285 29.032 97.2125 28.808C96.8072 28.5733 96.4978 28.2267 96.2845 27.768C96.0818 27.3093 95.9805 26.7387 95.9805 26.056V21.768C95.9805 21.544 96.0338 21.3787 96.1405 21.272C96.2578 21.1653 96.4178 21.112 96.6205 21.112C96.8338 21.112 96.9938 21.1653 97.1005 21.272C97.2178 21.3787 97.2765 21.544 97.2765 21.768V26.04C97.2765 26.7227 97.4152 27.2347 97.6925 27.576C97.9805 27.9067 98.4285 28.072 99.0365 28.072C99.6978 28.072 100.237 27.848 100.653 27.4C101.069 26.952 101.277 26.3653 101.277 25.64V21.768C101.277 21.544 101.33 21.3787 101.437 21.272C101.554 21.1653 101.719 21.112 101.933 21.112C102.135 21.112 102.29 21.1653 102.397 21.272C102.514 21.3787 102.573 21.544 102.573 21.768V28.44C102.573 28.888 102.365 29.112 101.949 29.112C101.746 29.112 101.586 29.0533 101.469 28.936C101.362 28.8187 101.309 28.6533 101.309 28.44V26.984L101.517 27.208C101.303 27.8373 100.951 28.3173 100.461 28.648C99.9805 28.9787 99.4205 29.144 98.7805 29.144ZM108.293 29.144C107.515 29.144 106.843 28.9733 106.277 28.632C105.712 28.2907 105.275 27.816 104.965 27.208C104.667 26.5893 104.517 25.8747 104.517 25.064C104.517 24.4453 104.603 23.8907 104.773 23.4C104.944 22.9093 105.195 22.4933 105.525 22.152C105.856 21.8 106.251 21.5333 106.709 21.352C107.179 21.1707 107.707 21.08 108.293 21.08C108.677 21.08 109.077 21.1387 109.493 21.256C109.909 21.3733 110.288 21.576 110.629 21.864C110.736 21.9387 110.805 22.0293 110.837 22.136C110.869 22.2427 110.869 22.3493 110.837 22.456C110.805 22.552 110.752 22.6373 110.677 22.712C110.603 22.776 110.507 22.8133 110.389 22.824C110.283 22.8347 110.171 22.7973 110.053 22.712C109.776 22.4987 109.493 22.3493 109.205 22.264C108.917 22.1787 108.64 22.136 108.373 22.136C107.957 22.136 107.595 22.2053 107.285 22.344C106.976 22.472 106.715 22.6587 106.501 22.904C106.288 23.1493 106.123 23.4533 106.005 23.816C105.899 24.1787 105.845 24.6 105.845 25.08C105.845 26.008 106.064 26.744 106.501 27.288C106.939 27.8213 107.563 28.088 108.373 28.088C108.64 28.088 108.912 28.0453 109.189 27.96C109.477 27.8747 109.765 27.7253 110.053 27.512C110.171 27.4267 110.283 27.3893 110.389 27.4C110.496 27.4107 110.587 27.4533 110.661 27.528C110.736 27.592 110.784 27.6773 110.805 27.784C110.837 27.8907 110.837 27.9973 110.805 28.104C110.773 28.2 110.704 28.2853 110.597 28.36C110.256 28.6373 109.883 28.84 109.477 28.968C109.072 29.0853 108.677 29.144 108.293 29.144ZM115.524 29.144C114.916 29.144 114.404 29.0373 113.988 28.824C113.582 28.6 113.278 28.28 113.076 27.864C112.873 27.4373 112.772 26.92 112.772 26.312V22.232H111.7C111.518 22.232 111.38 22.1893 111.284 22.104C111.188 22.008 111.139 21.88 111.139 21.72C111.139 21.56 111.188 21.4373 111.284 21.352C111.38 21.2667 111.518 21.224 111.7 21.224H112.772V19.384C112.772 19.1707 112.83 19.0107 112.948 18.904C113.065 18.7867 113.225 18.728 113.428 18.728C113.63 18.728 113.785 18.7867 113.892 18.904C114.009 19.0107 114.068 19.1707 114.068 19.384V21.224H116.084C116.265 21.224 116.404 21.2667 116.5 21.352C116.596 21.4373 116.644 21.56 116.644 21.72C116.644 21.88 116.596 22.008 116.5 22.104C116.404 22.1893 116.265 22.232 116.084 22.232H114.068V26.184C114.068 26.792 114.196 27.256 114.452 27.576C114.708 27.8853 115.124 28.04 115.7 28.04C115.902 28.04 116.073 28.0187 116.212 27.976C116.361 27.9333 116.484 27.912 116.58 27.912C116.676 27.9013 116.756 27.9333 116.82 28.008C116.884 28.0827 116.916 28.2107 116.916 28.392C116.916 28.52 116.889 28.6373 116.836 28.744C116.793 28.8507 116.713 28.9253 116.596 28.968C116.468 29.0107 116.297 29.048 116.084 29.08C115.881 29.1227 115.694 29.144 115.524 29.144ZM125.354 29.144C124.597 29.144 123.941 28.9787 123.386 28.648C122.832 28.3173 122.4 27.8533 122.09 27.256C121.792 26.648 121.642 25.9333 121.642 25.112C121.642 24.4933 121.728 23.9387 121.898 23.448C122.069 22.9467 122.32 22.52 122.65 22.168C122.981 21.816 123.37 21.5493 123.818 21.368C124.277 21.176 124.789 21.08 125.354 21.08C126.112 21.08 126.768 21.2453 127.322 21.576C127.877 21.9067 128.304 22.376 128.602 22.984C128.912 23.5813 129.066 24.2907 129.066 25.112C129.066 25.7307 128.981 26.2853 128.81 26.776C128.64 27.2667 128.389 27.6933 128.058 28.056C127.728 28.408 127.333 28.68 126.874 28.872C126.426 29.0533 125.92 29.144 125.354 29.144ZM125.354 28.104C125.834 28.104 126.256 27.9867 126.618 27.752C126.981 27.5173 127.258 27.176 127.45 26.728C127.653 26.28 127.754 25.7413 127.754 25.112C127.754 24.1413 127.536 23.4 127.098 22.888C126.672 22.376 126.09 22.12 125.354 22.12C124.864 22.12 124.437 22.2373 124.074 22.472C123.722 22.696 123.445 23.032 123.242 23.48C123.05 23.9173 122.954 24.4613 122.954 25.112C122.954 26.072 123.173 26.8133 123.61 27.336C124.048 27.848 124.629 28.104 125.354 28.104ZM131.991 29.112C131.788 29.112 131.628 29.0533 131.511 28.936C131.404 28.8187 131.351 28.6533 131.351 28.44V22.232H130.327C130.156 22.232 130.017 22.1893 129.911 22.104C129.815 22.008 129.767 21.88 129.767 21.72C129.767 21.56 129.815 21.4373 129.911 21.352C130.017 21.2667 130.156 21.224 130.327 21.224H131.703L131.351 21.56V20.952C131.351 19.9387 131.596 19.1653 132.087 18.632C132.588 18.0987 133.319 17.7893 134.279 17.704L134.743 17.656C134.892 17.6453 135.009 17.672 135.095 17.736C135.191 17.8 135.249 17.88 135.271 17.976C135.303 18.072 135.308 18.1733 135.287 18.28C135.265 18.376 135.217 18.4613 135.143 18.536C135.068 18.6107 134.977 18.6533 134.871 18.664L134.503 18.696C133.852 18.7493 133.377 18.9467 133.079 19.288C132.791 19.6293 132.647 20.1307 132.647 20.792V21.464L132.455 21.224H134.375C134.556 21.224 134.695 21.2667 134.791 21.352C134.887 21.4373 134.935 21.56 134.935 21.72C134.935 21.88 134.887 22.008 134.791 22.104C134.695 22.1893 134.556 22.232 134.375 22.232H132.647V28.44C132.647 28.888 132.428 29.112 131.991 29.112ZM142.836 29.144C142.303 29.144 141.823 29.0427 141.396 28.84C140.98 28.6267 140.649 28.3387 140.404 27.976C140.159 27.6133 140.036 27.208 140.036 26.76C140.036 26.184 140.18 25.7307 140.468 25.4C140.767 25.0693 141.252 24.8347 141.924 24.696C142.607 24.5573 143.535 24.488 144.708 24.488H145.428V25.336H144.724C143.86 25.336 143.177 25.3787 142.676 25.464C142.185 25.5387 141.839 25.672 141.636 25.864C141.444 26.056 141.348 26.328 141.348 26.68C141.348 27.1173 141.497 27.4747 141.796 27.752C142.105 28.0293 142.521 28.168 143.044 28.168C143.471 28.168 143.844 28.0667 144.164 27.864C144.495 27.6613 144.751 27.384 144.932 27.032C145.124 26.68 145.22 26.2747 145.22 25.816V23.992C145.22 23.3307 145.087 22.856 144.82 22.568C144.553 22.2693 144.116 22.12 143.508 22.12C143.135 22.12 142.761 22.168 142.388 22.264C142.015 22.36 141.62 22.5147 141.204 22.728C141.055 22.8027 140.927 22.8293 140.82 22.808C140.713 22.776 140.628 22.7173 140.564 22.632C140.5 22.5467 140.463 22.4507 140.452 22.344C140.441 22.2267 140.463 22.1147 140.516 22.008C140.58 21.9013 140.676 21.816 140.804 21.752C141.273 21.5173 141.737 21.3467 142.196 21.24C142.655 21.1333 143.092 21.08 143.508 21.08C144.18 21.08 144.735 21.192 145.172 21.416C145.609 21.6293 145.935 21.96 146.148 22.408C146.361 22.8453 146.468 23.4107 146.468 24.104V28.44C146.468 28.6533 146.415 28.8187 146.308 28.936C146.212 29.0533 146.068 29.112 145.876 29.112C145.673 29.112 145.519 29.0533 145.412 28.936C145.305 28.8187 145.252 28.6533 145.252 28.44V27.192H145.396C145.311 27.5973 145.145 27.944 144.9 28.232C144.665 28.52 144.372 28.744 144.02 28.904C143.668 29.064 143.273 29.144 142.836 29.144ZM151.24 29.144C150.472 29.144 149.886 28.9093 149.48 28.44C149.075 27.9707 148.872 27.2987 148.872 26.424V18.264C148.872 18.0507 148.926 17.8907 149.032 17.784C149.139 17.6667 149.299 17.608 149.512 17.608C149.715 17.608 149.875 17.6667 149.992 17.784C150.11 17.8907 150.168 18.0507 150.168 18.264V26.328C150.168 26.904 150.28 27.336 150.504 27.624C150.739 27.9013 151.08 28.04 151.528 28.04C151.624 28.04 151.71 28.0347 151.784 28.024C151.859 28.0133 151.934 28.008 152.008 28.008C152.126 27.9973 152.206 28.024 152.248 28.088C152.302 28.152 152.328 28.28 152.328 28.472C152.328 28.664 152.286 28.808 152.2 28.904C152.115 29 151.976 29.064 151.784 29.096C151.699 29.1067 151.608 29.1173 151.512 29.128C151.416 29.1387 151.326 29.144 151.24 29.144ZM155.975 29.144C155.207 29.144 154.62 28.9093 154.215 28.44C153.809 27.9707 153.607 27.2987 153.607 26.424V18.264C153.607 18.0507 153.66 17.8907 153.767 17.784C153.873 17.6667 154.033 17.608 154.247 17.608C154.449 17.608 154.609 17.6667 154.727 17.784C154.844 17.8907 154.903 18.0507 154.903 18.264V26.328C154.903 26.904 155.015 27.336 155.239 27.624C155.473 27.9013 155.815 28.04 156.263 28.04C156.359 28.04 156.444 28.0347 156.519 28.024C156.593 28.0133 156.668 28.008 156.743 28.008C156.86 27.9973 156.94 28.024 156.983 28.088C157.036 28.152 157.063 28.28 157.063 28.472C157.063 28.664 157.02 28.808 156.935 28.904C156.849 29 156.711 29.064 156.519 29.096C156.433 29.1067 156.343 29.1173 156.247 29.128C156.151 29.1387 156.06 29.144 155.975 29.144ZM165.586 29.144C164.978 29.144 164.466 29.0373 164.05 28.824C163.645 28.6 163.341 28.28 163.138 27.864C162.935 27.4373 162.834 26.92 162.834 26.312V22.232H161.762C161.581 22.232 161.442 22.1893 161.346 22.104C161.25 22.008 161.202 21.88 161.202 21.72C161.202 21.56 161.25 21.4373 161.346 21.352C161.442 21.2667 161.581 21.224 161.762 21.224H162.834V19.384C162.834 19.1707 162.893 19.0107 163.01 18.904C163.127 18.7867 163.287 18.728 163.49 18.728C163.693 18.728 163.847 18.7867 163.954 18.904C164.071 19.0107 164.13 19.1707 164.13 19.384V21.224H166.146C166.327 21.224 166.466 21.2667 166.562 21.352C166.658 21.4373 166.706 21.56 166.706 21.72C166.706 21.88 166.658 22.008 166.562 22.104C166.466 22.1893 166.327 22.232 166.146 22.232H164.13V26.184C164.13 26.792 164.258 27.256 164.514 27.576C164.77 27.8853 165.186 28.04 165.762 28.04C165.965 28.04 166.135 28.0187 166.274 27.976C166.423 27.9333 166.546 27.912 166.642 27.912C166.738 27.9013 166.818 27.9333 166.882 28.008C166.946 28.0827 166.978 28.2107 166.978 28.392C166.978 28.52 166.951 28.6373 166.898 28.744C166.855 28.8507 166.775 28.9253 166.658 28.968C166.53 29.0107 166.359 29.048 166.146 29.08C165.943 29.1227 165.757 29.144 165.586 29.144ZM168.794 29.112C168.58 29.112 168.42 29.0533 168.314 28.936C168.207 28.8187 168.154 28.6533 168.154 28.44V18.264C168.154 18.0507 168.207 17.8907 168.314 17.784C168.42 17.6667 168.58 17.608 168.794 17.608C168.996 17.608 169.156 17.6667 169.274 17.784C169.391 17.8907 169.45 18.0507 169.45 18.264V22.952H169.242C169.466 22.3333 169.828 21.8693 170.33 21.56C170.842 21.24 171.428 21.08 172.09 21.08C172.708 21.08 173.22 21.192 173.626 21.416C174.042 21.64 174.351 21.9813 174.554 22.44C174.756 22.888 174.858 23.4587 174.858 24.152V28.44C174.858 28.6533 174.799 28.8187 174.682 28.936C174.575 29.0533 174.42 29.112 174.218 29.112C174.004 29.112 173.839 29.0533 173.722 28.936C173.615 28.8187 173.562 28.6533 173.562 28.44V24.232C173.562 23.5067 173.418 22.9787 173.13 22.648C172.852 22.3067 172.404 22.136 171.786 22.136C171.071 22.136 170.5 22.36 170.074 22.808C169.658 23.2453 169.45 23.832 169.45 24.568V28.44C169.45 28.888 169.231 29.112 168.794 29.112ZM180.751 29.144C179.93 29.144 179.221 28.984 178.623 28.664C178.037 28.3333 177.578 27.8693 177.247 27.272C176.927 26.6747 176.767 25.96 176.767 25.128C176.767 24.3173 176.927 23.6133 177.247 23.016C177.567 22.408 178.005 21.9333 178.559 21.592C179.125 21.2507 179.775 21.08 180.511 21.08C181.034 21.08 181.503 21.1707 181.919 21.352C182.335 21.5227 182.687 21.7733 182.975 22.104C183.274 22.4347 183.498 22.8347 183.647 23.304C183.807 23.7733 183.887 24.3013 183.887 24.888C183.887 25.0587 183.839 25.1867 183.743 25.272C183.647 25.3467 183.509 25.384 183.327 25.384H177.759V24.536H183.023L182.767 24.744C182.767 24.168 182.682 23.6827 182.511 23.288C182.341 22.8827 182.09 22.5733 181.759 22.36C181.439 22.1467 181.034 22.04 180.543 22.04C179.999 22.04 179.535 22.168 179.151 22.424C178.778 22.6693 178.495 23.016 178.303 23.464C178.111 23.9013 178.015 24.4133 178.015 25V25.096C178.015 26.0773 178.25 26.824 178.719 27.336C179.199 27.848 179.877 28.104 180.751 28.104C181.114 28.104 181.471 28.056 181.823 27.96C182.186 27.864 182.538 27.704 182.879 27.48C183.029 27.384 183.162 27.3413 183.279 27.352C183.407 27.352 183.509 27.3893 183.583 27.464C183.658 27.528 183.706 27.6133 183.727 27.72C183.759 27.816 183.749 27.9227 183.695 28.04C183.653 28.1573 183.562 28.2587 183.423 28.344C183.071 28.6 182.655 28.7973 182.175 28.936C181.695 29.0747 181.221 29.144 180.751 29.144ZM65.34 53.144C64.86 53.144 64.3747 53.0853 63.884 52.968C63.404 52.8507 62.956 52.648 62.54 52.36C62.4333 52.2853 62.3587 52.2 62.316 52.104C62.2733 51.9973 62.2573 51.896 62.268 51.8C62.2893 51.6933 62.332 51.6027 62.396 51.528C62.4707 51.4533 62.556 51.4107 62.652 51.4C62.7587 51.3787 62.876 51.4 63.004 51.464C63.42 51.72 63.82 51.9013 64.204 52.008C64.5987 52.104 64.988 52.152 65.372 52.152C65.98 52.152 66.4387 52.04 66.748 51.816C67.0573 51.592 67.212 51.288 67.212 50.904C67.212 50.6053 67.1107 50.3707 66.908 50.2C66.7053 50.0187 66.3853 49.88 65.948 49.784L64.492 49.464C63.82 49.3253 63.3187 49.0853 62.988 48.744C62.668 48.4027 62.508 47.96 62.508 47.416C62.508 46.936 62.6307 46.5253 62.876 46.184C63.132 45.832 63.4893 45.56 63.948 45.368C64.4067 45.176 64.94 45.08 65.548 45.08C66.0173 45.08 66.46 45.144 66.876 45.272C67.3027 45.3893 67.6867 45.5813 68.028 45.848C68.1347 45.9227 68.204 46.0133 68.236 46.12C68.2787 46.216 68.284 46.3173 68.252 46.424C68.2307 46.52 68.1827 46.6053 68.108 46.68C68.0333 46.744 67.9427 46.7813 67.836 46.792C67.7293 46.8027 67.6173 46.7707 67.5 46.696C67.18 46.4827 66.8547 46.328 66.524 46.232C66.1933 46.1253 65.868 46.072 65.548 46.072C64.9507 46.072 64.4973 46.1893 64.188 46.424C63.8787 46.6587 63.724 46.968 63.724 47.352C63.724 47.6507 63.82 47.896 64.012 48.088C64.204 48.28 64.5027 48.4187 64.908 48.504L66.364 48.808C67.0573 48.9573 67.5747 49.1973 67.916 49.528C68.268 49.848 68.444 50.2853 68.444 50.84C68.444 51.544 68.1613 52.104 67.596 52.52C67.0307 52.936 66.2787 53.144 65.34 53.144ZM71.0591 53.112C70.8458 53.112 70.6858 53.0533 70.5791 52.936C70.4725 52.8187 70.4191 52.6533 70.4191 52.44V42.264C70.4191 42.0507 70.4725 41.8907 70.5791 41.784C70.6858 41.6667 70.8458 41.608 71.0591 41.608C71.2618 41.608 71.4218 41.6667 71.5391 41.784C71.6565 41.8907 71.7151 42.0507 71.7151 42.264V46.952H71.5071C71.7311 46.3333 72.0938 45.8693 72.5951 45.56C73.1071 45.24 73.6938 45.08 74.3551 45.08C74.9738 45.08 75.4858 45.192 75.8911 45.416C76.3071 45.64 76.6165 45.9813 76.8191 46.44C77.0218 46.888 77.1231 47.4587 77.1231 48.152V52.44C77.1231 52.6533 77.0645 52.8187 76.9471 52.936C76.8405 53.0533 76.6858 53.112 76.4831 53.112C76.2698 53.112 76.1045 53.0533 75.9871 52.936C75.8805 52.8187 75.8271 52.6533 75.8271 52.44V48.232C75.8271 47.5067 75.6831 46.9787 75.3951 46.648C75.1178 46.3067 74.6698 46.136 74.0511 46.136C73.3365 46.136 72.7658 46.36 72.3391 46.808C71.9231 47.2453 71.7151 47.832 71.7151 48.568V52.44C71.7151 52.888 71.4965 53.112 71.0591 53.112ZM81.9609 53.144C81.4275 53.144 80.9475 53.0427 80.5209 52.84C80.1049 52.6267 79.7742 52.3387 79.5289 51.976C79.2835 51.6133 79.1609 51.208 79.1609 50.76C79.1609 50.184 79.3049 49.7307 79.5929 49.4C79.8915 49.0693 80.3769 48.8347 81.0489 48.696C81.7315 48.5573 82.6595 48.488 83.8329 48.488H84.5529V49.336H83.8489C82.9849 49.336 82.3022 49.3787 81.8009 49.464C81.3102 49.5387 80.9635 49.672 80.7609 49.864C80.5689 50.056 80.4729 50.328 80.4729 50.68C80.4729 51.1173 80.6222 51.4747 80.9209 51.752C81.2302 52.0293 81.6462 52.168 82.1689 52.168C82.5955 52.168 82.9689 52.0667 83.2889 51.864C83.6195 51.6613 83.8755 51.384 84.0569 51.032C84.2489 50.68 84.3449 50.2747 84.3449 49.816V47.992C84.3449 47.3307 84.2115 46.856 83.9449 46.568C83.6782 46.2693 83.2409 46.12 82.6329 46.12C82.2595 46.12 81.8862 46.168 81.5129 46.264C81.1395 46.36 80.7449 46.5147 80.3289 46.728C80.1795 46.8027 80.0515 46.8293 79.9449 46.808C79.8382 46.776 79.7529 46.7173 79.6889 46.632C79.6249 46.5467 79.5875 46.4507 79.5769 46.344C79.5662 46.2267 79.5875 46.1147 79.6409 46.008C79.7049 45.9013 79.8009 45.816 79.9289 45.752C80.3982 45.5173 80.8622 45.3467 81.3209 45.24C81.7795 45.1333 82.2169 45.08 82.6329 45.08C83.3049 45.08 83.8595 45.192 84.2969 45.416C84.7342 45.6293 85.0595 45.96 85.2729 46.408C85.4862 46.8453 85.5929 47.4107 85.5929 48.104V52.44C85.5929 52.6533 85.5395 52.8187 85.4329 52.936C85.3369 53.0533 85.1929 53.112 85.0009 53.112C84.7982 53.112 84.6435 53.0533 84.5369 52.936C84.4302 52.8187 84.3769 52.6533 84.3769 52.44V51.192H84.5209C84.4355 51.5973 84.2702 51.944 84.0249 52.232C83.7902 52.52 83.4969 52.744 83.1449 52.904C82.7929 53.064 82.3982 53.144 81.9609 53.144ZM88.6533 53.112C88.4399 53.112 88.2746 53.0533 88.1573 52.936C88.0506 52.8187 87.9973 52.6533 87.9973 52.44V45.768C87.9973 45.5547 88.0506 45.3947 88.1573 45.288C88.2639 45.1707 88.4186 45.112 88.6213 45.112C88.8239 45.112 88.9786 45.1707 89.0853 45.288C89.2026 45.3947 89.2613 45.5547 89.2613 45.768V47.064H89.1013C89.2719 46.4347 89.5973 45.9493 90.0773 45.608C90.5573 45.2667 91.1493 45.0853 91.8533 45.064C92.0133 45.0533 92.1413 45.0907 92.2373 45.176C92.3333 45.2507 92.3866 45.384 92.3973 45.576C92.4079 45.7573 92.3653 45.9013 92.2693 46.008C92.1733 46.1147 92.0239 46.1787 91.8213 46.2L91.5653 46.232C90.8399 46.296 90.2799 46.5307 89.8853 46.936C89.5013 47.3307 89.3093 47.8747 89.3093 48.568V52.44C89.3093 52.6533 89.2506 52.8187 89.1332 52.936C89.0266 53.0533 88.8666 53.112 88.6533 53.112ZM97.1419 53.144C96.3205 53.144 95.6112 52.984 95.0139 52.664C94.4272 52.3333 93.9685 51.8693 93.6379 51.272C93.3179 50.6747 93.1579 49.96 93.1579 49.128C93.1579 48.3173 93.3179 47.6133 93.6379 47.016C93.9579 46.408 94.3952 45.9333 94.9499 45.592C95.5152 45.2507 96.1659 45.08 96.9019 45.08C97.4245 45.08 97.8939 45.1707 98.3099 45.352C98.7259 45.5227 99.0779 45.7733 99.3659 46.104C99.6645 46.4347 99.8885 46.8347 100.038 47.304C100.198 47.7733 100.278 48.3013 100.278 48.888C100.278 49.0587 100.23 49.1867 100.134 49.272C100.038 49.3467 99.8992 49.384 99.7179 49.384H94.1499V48.536H99.4139L99.1579 48.744C99.1579 48.168 99.0725 47.6827 98.9019 47.288C98.7312 46.8827 98.4805 46.5733 98.1499 46.36C97.8299 46.1467 97.4245 46.04 96.9339 46.04C96.3899 46.04 95.9259 46.168 95.5419 46.424C95.1685 46.6693 94.8859 47.016 94.6939 47.464C94.5019 47.9013 94.4059 48.4133 94.4059 49V49.096C94.4059 50.0773 94.6405 50.824 95.1099 51.336C95.5899 51.848 96.2672 52.104 97.1419 52.104C97.5045 52.104 97.8619 52.056 98.2139 51.96C98.5765 51.864 98.9285 51.704 99.2699 51.48C99.4192 51.384 99.5525 51.3413 99.6699 51.352C99.7979 51.352 99.8992 51.3893 99.9739 51.464C100.049 51.528 100.097 51.6133 100.118 51.72C100.15 51.816 100.139 51.9227 100.086 52.04C100.043 52.1573 99.9525 52.2587 99.8139 52.344C99.4619 52.6 99.0459 52.7973 98.5659 52.936C98.0859 53.0747 97.6112 53.144 97.1419 53.144ZM105.114 53.144C104.42 53.144 103.812 52.9787 103.289 52.648C102.778 52.3173 102.378 51.8533 102.09 51.256C101.812 50.648 101.674 49.9333 101.674 49.112C101.674 48.28 101.812 47.5653 102.09 46.968C102.378 46.36 102.778 45.896 103.289 45.576C103.812 45.2453 104.42 45.08 105.114 45.08C105.818 45.08 106.42 45.256 106.922 45.608C107.423 45.96 107.759 46.4347 107.93 47.032H107.754V42.264C107.754 42.0507 107.807 41.8907 107.914 41.784C108.031 41.6667 108.196 41.608 108.41 41.608C108.612 41.608 108.767 41.6667 108.874 41.784C108.991 41.8907 109.05 42.0507 109.05 42.264V52.44C109.05 52.6533 108.996 52.8187 108.89 52.936C108.783 53.0533 108.623 53.112 108.41 53.112C108.207 53.112 108.047 53.0533 107.93 52.936C107.823 52.8187 107.77 52.6533 107.77 52.44V50.92L107.946 51.144C107.775 51.752 107.434 52.2373 106.922 52.6C106.42 52.9627 105.818 53.144 105.114 53.144ZM105.386 52.104C105.866 52.104 106.287 51.9867 106.65 51.752C107.012 51.5173 107.29 51.176 107.482 50.728C107.684 50.28 107.786 49.7413 107.786 49.112C107.786 48.1413 107.567 47.4 107.13 46.888C106.703 46.376 106.122 46.12 105.386 46.12C104.895 46.12 104.468 46.2373 104.106 46.472C103.754 46.696 103.476 47.032 103.274 47.48C103.082 47.9173 102.986 48.4613 102.986 49.112C102.986 50.072 103.204 50.8133 103.642 51.336C104.079 51.848 104.66 52.104 105.386 52.104ZM116.663 53.112C116.46 53.112 116.3 53.0533 116.183 52.936C116.076 52.8187 116.023 52.6533 116.023 52.44V46.232H114.999C114.828 46.232 114.689 46.1893 114.583 46.104C114.487 46.008 114.439 45.88 114.439 45.72C114.439 45.56 114.487 45.4373 114.583 45.352C114.689 45.2667 114.828 45.224 114.999 45.224H116.375L116.023 45.56V44.952C116.023 43.9387 116.268 43.1653 116.759 42.632C117.26 42.0987 117.991 41.7893 118.951 41.704L119.415 41.656C119.564 41.6453 119.681 41.672 119.767 41.736C119.863 41.8 119.921 41.88 119.943 41.976C119.975 42.072 119.98 42.1733 119.959 42.28C119.937 42.376 119.889 42.4613 119.815 42.536C119.74 42.6107 119.649 42.6533 119.543 42.664L119.175 42.696C118.524 42.7493 118.049 42.9467 117.751 43.288C117.463 43.6293 117.319 44.1307 117.319 44.792V45.464L117.127 45.224H119.047C119.228 45.224 119.367 45.2667 119.463 45.352C119.559 45.4373 119.607 45.56 119.607 45.72C119.607 45.88 119.559 46.008 119.463 46.104C119.367 46.1893 119.228 46.232 119.047 46.232H117.319V52.44C117.319 52.888 117.1 53.112 116.663 53.112ZM123.305 53.144C122.771 53.144 122.291 53.0427 121.865 52.84C121.449 52.6267 121.118 52.3387 120.873 51.976C120.627 51.6133 120.505 51.208 120.505 50.76C120.505 50.184 120.649 49.7307 120.937 49.4C121.235 49.0693 121.721 48.8347 122.393 48.696C123.075 48.5573 124.003 48.488 125.177 48.488H125.897V49.336H125.193C124.329 49.336 123.646 49.3787 123.145 49.464C122.654 49.5387 122.307 49.672 122.105 49.864C121.913 50.056 121.817 50.328 121.817 50.68C121.817 51.1173 121.966 51.4747 122.265 51.752C122.574 52.0293 122.99 52.168 123.513 52.168C123.939 52.168 124.313 52.0667 124.633 51.864C124.963 51.6613 125.219 51.384 125.401 51.032C125.593 50.68 125.689 50.2747 125.689 49.816V47.992C125.689 47.3307 125.555 46.856 125.289 46.568C125.022 46.2693 124.585 46.12 123.977 46.12C123.603 46.12 123.23 46.168 122.857 46.264C122.483 46.36 122.089 46.5147 121.673 46.728C121.523 46.8027 121.395 46.8293 121.289 46.808C121.182 46.776 121.097 46.7173 121.033 46.632C120.969 46.5467 120.931 46.4507 120.921 46.344C120.91 46.2267 120.931 46.1147 120.985 46.008C121.049 45.9013 121.145 45.816 121.273 45.752C121.742 45.5173 122.206 45.3467 122.665 45.24C123.123 45.1333 123.561 45.08 123.977 45.08C124.649 45.08 125.203 45.192 125.641 45.416C126.078 45.6293 126.403 45.96 126.617 46.408C126.83 46.8453 126.937 47.4107 126.937 48.104V52.44C126.937 52.6533 126.883 52.8187 126.777 52.936C126.681 53.0533 126.537 53.112 126.345 53.112C126.142 53.112 125.987 53.0533 125.881 52.936C125.774 52.8187 125.721 52.6533 125.721 52.44V51.192H125.865C125.779 51.5973 125.614 51.944 125.369 52.232C125.134 52.52 124.841 52.744 124.489 52.904C124.137 53.064 123.742 53.144 123.305 53.144ZM132.637 53.144C131.858 53.144 131.186 52.9733 130.621 52.632C130.056 52.2907 129.618 51.816 129.309 51.208C129.01 50.5893 128.861 49.8747 128.861 49.064C128.861 48.4453 128.946 47.8907 129.117 47.4C129.288 46.9093 129.538 46.4933 129.869 46.152C130.2 45.8 130.594 45.5333 131.053 45.352C131.522 45.1707 132.05 45.08 132.637 45.08C133.021 45.08 133.421 45.1387 133.837 45.256C134.253 45.3733 134.632 45.576 134.973 45.864C135.08 45.9387 135.149 46.0293 135.181 46.136C135.213 46.2427 135.213 46.3493 135.181 46.456C135.149 46.552 135.096 46.6373 135.021 46.712C134.946 46.776 134.85 46.8133 134.733 46.824C134.626 46.8347 134.514 46.7973 134.397 46.712C134.12 46.4987 133.837 46.3493 133.549 46.264C133.261 46.1787 132.984 46.136 132.717 46.136C132.301 46.136 131.938 46.2053 131.629 46.344C131.32 46.472 131.058 46.6587 130.845 46.904C130.632 47.1493 130.466 47.4533 130.349 47.816C130.242 48.1787 130.189 48.6 130.189 49.08C130.189 50.008 130.408 50.744 130.845 51.288C131.282 51.8213 131.906 52.088 132.717 52.088C132.984 52.088 133.256 52.0453 133.533 51.96C133.821 51.8747 134.109 51.7253 134.397 51.512C134.514 51.4267 134.626 51.3893 134.733 51.4C134.84 51.4107 134.93 51.4533 135.005 51.528C135.08 51.592 135.128 51.6773 135.149 51.784C135.181 51.8907 135.181 51.9973 135.149 52.104C135.117 52.2 135.048 52.2853 134.941 52.36C134.6 52.6373 134.226 52.84 133.821 52.968C133.416 53.0853 133.021 53.144 132.637 53.144ZM139.867 53.144C139.259 53.144 138.747 53.0373 138.331 52.824C137.926 52.6 137.622 52.28 137.419 51.864C137.217 51.4373 137.115 50.92 137.115 50.312V46.232H136.043C135.862 46.232 135.723 46.1893 135.627 46.104C135.531 46.008 135.483 45.88 135.483 45.72C135.483 45.56 135.531 45.4373 135.627 45.352C135.723 45.2667 135.862 45.224 136.043 45.224H137.115V43.384C137.115 43.1707 137.174 43.0107 137.291 42.904C137.409 42.7867 137.569 42.728 137.771 42.728C137.974 42.728 138.129 42.7867 138.235 42.904C138.353 43.0107 138.411 43.1707 138.411 43.384V45.224H140.427C140.609 45.224 140.747 45.2667 140.843 45.352C140.939 45.4373 140.987 45.56 140.987 45.72C140.987 45.88 140.939 46.008 140.843 46.104C140.747 46.1893 140.609 46.232 140.427 46.232H138.411V50.184C138.411 50.792 138.539 51.256 138.795 51.576C139.051 51.8853 139.467 52.04 140.043 52.04C140.246 52.04 140.417 52.0187 140.555 51.976C140.705 51.9333 140.827 51.912 140.923 51.912C141.019 51.9013 141.099 51.9333 141.163 52.008C141.227 52.0827 141.259 52.2107 141.259 52.392C141.259 52.52 141.233 52.6373 141.179 52.744C141.137 52.8507 141.057 52.9253 140.939 52.968C140.811 53.0107 140.641 53.048 140.427 53.08C140.225 53.1227 140.038 53.144 139.867 53.144ZM145.495 53.144C144.738 53.144 144.082 52.9787 143.527 52.648C142.972 52.3173 142.54 51.8533 142.231 51.256C141.932 50.648 141.783 49.9333 141.783 49.112C141.783 48.4933 141.868 47.9387 142.039 47.448C142.21 46.9467 142.46 46.52 142.791 46.168C143.122 45.816 143.511 45.5493 143.959 45.368C144.418 45.176 144.93 45.08 145.495 45.08C146.252 45.08 146.908 45.2453 147.463 45.576C148.018 45.9067 148.444 46.376 148.743 46.984C149.052 47.5813 149.207 48.2907 149.207 49.112C149.207 49.7307 149.122 50.2853 148.951 50.776C148.78 51.2667 148.53 51.6933 148.199 52.056C147.868 52.408 147.474 52.68 147.015 52.872C146.567 53.0533 146.06 53.144 145.495 53.144ZM145.495 52.104C145.975 52.104 146.396 51.9867 146.759 51.752C147.122 51.5173 147.399 51.176 147.591 50.728C147.794 50.28 147.895 49.7413 147.895 49.112C147.895 48.1413 147.676 47.4 147.239 46.888C146.812 46.376 146.231 46.12 145.495 46.12C145.004 46.12 144.578 46.2373 144.215 46.472C143.863 46.696 143.586 47.032 143.383 47.48C143.191 47.9173 143.095 48.4613 143.095 49.112C143.095 50.072 143.314 50.8133 143.751 51.336C144.188 51.848 144.77 52.104 145.495 52.104ZM151.81 53.112C151.596 53.112 151.431 53.0533 151.314 52.936C151.207 52.8187 151.154 52.6533 151.154 52.44V45.768C151.154 45.5547 151.207 45.3947 151.314 45.288C151.42 45.1707 151.575 45.112 151.778 45.112C151.98 45.112 152.135 45.1707 152.242 45.288C152.359 45.3947 152.418 45.5547 152.418 45.768V47.064H152.258C152.428 46.4347 152.754 45.9493 153.234 45.608C153.714 45.2667 154.306 45.0853 155.01 45.064C155.17 45.0533 155.298 45.0907 155.394 45.176C155.49 45.2507 155.543 45.384 155.554 45.576C155.564 45.7573 155.522 45.9013 155.426 46.008C155.33 46.1147 155.18 46.1787 154.978 46.2L154.722 46.232C153.996 46.296 153.436 46.5307 153.042 46.936C152.658 47.3307 152.466 47.8747 152.466 48.568V52.44C152.466 52.6533 152.407 52.8187 152.289 52.936C152.183 53.0533 152.023 53.112 151.81 53.112ZM159.434 53.144C158.954 53.144 158.468 53.0853 157.978 52.968C157.498 52.8507 157.05 52.648 156.634 52.36C156.527 52.2853 156.452 52.2 156.41 52.104C156.367 51.9973 156.351 51.896 156.362 51.8C156.383 51.6933 156.426 51.6027 156.49 51.528C156.564 51.4533 156.65 51.4107 156.746 51.4C156.852 51.3787 156.97 51.4 157.098 51.464C157.514 51.72 157.914 51.9013 158.298 52.008C158.692 52.104 159.082 52.152 159.466 52.152C160.074 52.152 160.532 52.04 160.842 51.816C161.151 51.592 161.306 51.288 161.306 50.904C161.306 50.6053 161.204 50.3707 161.002 50.2C160.799 50.0187 160.479 49.88 160.042 49.784L158.586 49.464C157.914 49.3253 157.412 49.0853 157.082 48.744C156.762 48.4027 156.602 47.96 156.602 47.416C156.602 46.936 156.724 46.5253 156.97 46.184C157.226 45.832 157.583 45.56 158.042 45.368C158.5 45.176 159.034 45.08 159.642 45.08C160.111 45.08 160.554 45.144 160.97 45.272C161.396 45.3893 161.78 45.5813 162.122 45.848C162.228 45.9227 162.298 46.0133 162.33 46.12C162.372 46.216 162.378 46.3173 162.346 46.424C162.324 46.52 162.276 46.6053 162.202 46.68C162.127 46.744 162.036 46.7813 161.93 46.792C161.823 46.8027 161.711 46.7707 161.594 46.696C161.274 46.4827 160.948 46.328 160.618 46.232C160.287 46.1253 159.962 46.072 159.642 46.072C159.044 46.072 158.591 46.1893 158.282 46.424C157.972 46.6587 157.818 46.968 157.818 47.352C157.818 47.6507 157.914 47.896 158.106 48.088C158.298 48.28 158.596 48.4187 159.002 48.504L160.458 48.808C161.151 48.9573 161.668 49.1973 162.01 49.528C162.362 49.848 162.538 50.2853 162.538 50.84C162.538 51.544 162.255 52.104 161.69 52.52C161.124 52.936 160.372 53.144 159.434 53.144ZM169.278 53.08C169.065 53.08 168.905 53.0213 168.798 52.904C168.691 52.776 168.638 52.6 168.638 52.376V45.832C168.638 45.608 168.691 45.4373 168.798 45.32C168.905 45.2027 169.065 45.144 169.278 45.144C169.481 45.144 169.641 45.2027 169.758 45.32C169.875 45.4373 169.934 45.608 169.934 45.832V52.376C169.934 52.6 169.875 52.776 169.758 52.904C169.651 53.0213 169.491 53.08 169.278 53.08ZM169.278 43.352C169.011 43.352 168.803 43.2827 168.654 43.144C168.505 42.9947 168.43 42.7973 168.43 42.552C168.43 42.296 168.505 42.104 168.654 41.976C168.803 41.8373 169.011 41.768 169.278 41.768C169.555 41.768 169.763 41.8373 169.902 41.976C170.051 42.104 170.126 42.296 170.126 42.552C170.126 42.7973 170.051 42.9947 169.902 43.144C169.763 43.2827 169.555 43.352 169.278 43.352ZM172.997 53.112C172.783 53.112 172.623 53.0533 172.517 52.936C172.41 52.8187 172.357 52.6533 172.357 52.44V45.768C172.357 45.5547 172.41 45.3947 172.517 45.288C172.623 45.1707 172.778 45.112 172.981 45.112C173.183 45.112 173.338 45.1707 173.445 45.288C173.562 45.3947 173.621 45.5547 173.621 45.768V47.144L173.445 46.952C173.669 46.3333 174.031 45.8693 174.533 45.56C175.045 45.24 175.631 45.08 176.293 45.08C176.911 45.08 177.423 45.192 177.829 45.416C178.245 45.64 178.554 45.9813 178.757 46.44C178.959 46.888 179.061 47.4587 179.061 48.152V52.44C179.061 52.6533 179.002 52.8187 178.885 52.936C178.778 53.0533 178.623 53.112 178.421 53.112C178.207 53.112 178.042 53.0533 177.925 52.936C177.818 52.8187 177.765 52.6533 177.765 52.44V48.232C177.765 47.5067 177.621 46.9787 177.333 46.648C177.055 46.3067 176.607 46.136 175.989 46.136C175.274 46.136 174.703 46.36 174.277 46.808C173.861 47.2453 173.653 47.832 173.653 48.568V52.44C173.653 52.888 173.434 53.112 172.997 53.112ZM65.836 77.144C65.228 77.144 64.716 77.0373 64.3 76.824C63.8947 76.6 63.5907 76.28 63.388 75.864C63.1853 75.4373 63.084 74.92 63.084 74.312V70.232H62.012C61.8307 70.232 61.692 70.1893 61.596 70.104C61.5 70.008 61.452 69.88 61.452 69.72C61.452 69.56 61.5 69.4373 61.596 69.352C61.692 69.2667 61.8307 69.224 62.012 69.224H63.084V67.384C63.084 67.1707 63.1427 67.0107 63.26 66.904C63.3773 66.7867 63.5373 66.728 63.74 66.728C63.9427 66.728 64.0973 66.7867 64.204 66.904C64.3213 67.0107 64.38 67.1707 64.38 67.384V69.224H66.396C66.5773 69.224 66.716 69.2667 66.812 69.352C66.908 69.4373 66.956 69.56 66.956 69.72C66.956 69.88 66.908 70.008 66.812 70.104C66.716 70.1893 66.5773 70.232 66.396 70.232H64.38V74.184C64.38 74.792 64.508 75.256 64.764 75.576C65.02 75.8853 65.436 76.04 66.012 76.04C66.2147 76.04 66.3853 76.0187 66.524 75.976C66.6733 75.9333 66.796 75.912 66.892 75.912C66.988 75.9013 67.068 75.9333 67.132 76.008C67.196 76.0827 67.228 76.2107 67.228 76.392C67.228 76.52 67.2013 76.6373 67.148 76.744C67.1053 76.8507 67.0253 76.9253 66.908 76.968C66.78 77.0107 66.6093 77.048 66.396 77.08C66.1933 77.1227 66.0067 77.144 65.836 77.144ZM69.0435 77.112C68.8302 77.112 68.6702 77.0533 68.5635 76.936C68.4568 76.8187 68.4035 76.6533 68.4035 76.44V66.264C68.4035 66.0507 68.4568 65.8907 68.5635 65.784C68.6702 65.6667 68.8302 65.608 69.0435 65.608C69.2462 65.608 69.4062 65.6667 69.5235 65.784C69.6408 65.8907 69.6995 66.0507 69.6995 66.264V70.952H69.4915C69.7155 70.3333 70.0782 69.8693 70.5795 69.56C71.0915 69.24 71.6782 69.08 72.3395 69.08C72.9582 69.08 73.4702 69.192 73.8755 69.416C74.2915 69.64 74.6008 69.9813 74.8035 70.44C75.0062 70.888 75.1075 71.4587 75.1075 72.152V76.44C75.1075 76.6533 75.0488 76.8187 74.9315 76.936C74.8248 77.0533 74.6702 77.112 74.4675 77.112C74.2542 77.112 74.0888 77.0533 73.9715 76.936C73.8648 76.8187 73.8115 76.6533 73.8115 76.44V72.232C73.8115 71.5067 73.6675 70.9787 73.3795 70.648C73.1022 70.3067 72.6542 70.136 72.0355 70.136C71.3208 70.136 70.7502 70.36 70.3235 70.808C69.9075 71.2453 69.6995 71.832 69.6995 72.568V76.44C69.6995 76.888 69.4808 77.112 69.0435 77.112ZM81.0013 77.144C80.1799 77.144 79.4706 76.984 78.8733 76.664C78.2866 76.3333 77.8279 75.8693 77.4973 75.272C77.1773 74.6747 77.0173 73.96 77.0173 73.128C77.0173 72.3173 77.1773 71.6133 77.4973 71.016C77.8173 70.408 78.2546 69.9333 78.8093 69.592C79.3746 69.2507 80.0253 69.08 80.7613 69.08C81.2839 69.08 81.7533 69.1707 82.1693 69.352C82.5853 69.5227 82.9373 69.7733 83.2253 70.104C83.5239 70.4347 83.7479 70.8347 83.8973 71.304C84.0573 71.7733 84.1373 72.3013 84.1373 72.888C84.1373 73.0587 84.0893 73.1867 83.9933 73.272C83.8973 73.3467 83.7586 73.384 83.5773 73.384H78.0093V72.536H83.2733L83.0173 72.744C83.0173 72.168 82.9319 71.6827 82.7613 71.288C82.5906 70.8827 82.3399 70.5733 82.0093 70.36C81.6893 70.1467 81.2839 70.04 80.7933 70.04C80.2493 70.04 79.7853 70.168 79.4013 70.424C79.0279 70.6693 78.7453 71.016 78.5533 71.464C78.3613 71.9013 78.2653 72.4133 78.2653 73V73.096C78.2653 74.0773 78.4999 74.824 78.9693 75.336C79.4493 75.848 80.1266 76.104 81.0013 76.104C81.3639 76.104 81.7213 76.056 82.0733 75.96C82.4359 75.864 82.7879 75.704 83.1293 75.48C83.2786 75.384 83.4119 75.3413 83.5293 75.352C83.6573 75.352 83.7586 75.3893 83.8333 75.464C83.9079 75.528 83.9559 75.6133 83.9773 75.72C84.0093 75.816 83.9986 75.9227 83.9453 76.04C83.9026 76.1573 83.8119 76.2587 83.6733 76.344C83.3213 76.6 82.9053 76.7973 82.4253 76.936C81.9453 77.0747 81.4706 77.144 81.0013 77.144ZM94.4419 77.112C94.2392 77.112 94.0739 77.064 93.9459 76.968C93.8179 76.872 93.7165 76.728 93.6419 76.536L89.2419 66.472C89.1672 66.2907 89.1459 66.1413 89.1779 66.024C89.2099 65.896 89.2792 65.7947 89.3859 65.72C89.5032 65.6453 89.6365 65.608 89.7859 65.608C89.9885 65.608 90.1379 65.656 90.2339 65.752C90.3405 65.8373 90.4259 65.9653 90.4899 66.136L94.7139 75.944H94.2019L98.4099 66.12C98.4845 65.96 98.5752 65.8373 98.6819 65.752C98.7885 65.656 98.9379 65.608 99.1299 65.608C99.2792 65.608 99.4019 65.6453 99.4979 65.72C99.6045 65.7947 99.6685 65.896 99.6899 66.024C99.7219 66.152 99.7005 66.3013 99.6259 66.472L95.2259 76.536C95.1512 76.728 95.0499 76.872 94.9219 76.968C94.8045 77.064 94.6445 77.112 94.4419 77.112ZM103.736 77.144C102.914 77.144 102.205 76.984 101.608 76.664C101.021 76.3333 100.562 75.8693 100.232 75.272C99.9116 74.6747 99.7516 73.96 99.7516 73.128C99.7516 72.3173 99.9116 71.6133 100.232 71.016C100.552 70.408 100.989 69.9333 101.544 69.592C102.109 69.2507 102.76 69.08 103.496 69.08C104.018 69.08 104.488 69.1707 104.904 69.352C105.32 69.5227 105.672 69.7733 105.96 70.104C106.258 70.4347 106.482 70.8347 106.632 71.304C106.792 71.7733 106.872 72.3013 106.872 72.888C106.872 73.0587 106.824 73.1867 106.728 73.272C106.632 73.3467 106.493 73.384 106.312 73.384H100.744V72.536H106.008L105.752 72.744C105.752 72.168 105.666 71.6827 105.496 71.288C105.325 70.8827 105.074 70.5733 104.744 70.36C104.424 70.1467 104.018 70.04 103.528 70.04C102.984 70.04 102.52 70.168 102.136 70.424C101.762 70.6693 101.48 71.016 101.288 71.464C101.096 71.9013 101 72.4133 101 73V73.096C101 74.0773 101.234 74.824 101.704 75.336C102.184 75.848 102.861 76.104 103.736 76.104C104.098 76.104 104.456 76.056 104.808 75.96C105.17 75.864 105.522 75.704 105.864 75.48C106.013 75.384 106.146 75.3413 106.264 75.352C106.392 75.352 106.493 75.3893 106.568 75.464C106.642 75.528 106.69 75.6133 106.712 75.72C106.744 75.816 106.733 75.9227 106.68 76.04C106.637 76.1573 106.546 76.2587 106.408 76.344C106.056 76.6 105.64 76.7973 105.16 76.936C104.68 77.0747 104.205 77.144 103.736 77.144ZM109.387 77.112C109.174 77.112 109.014 77.0533 108.907 76.936C108.801 76.8187 108.747 76.6533 108.747 76.44V69.768C108.747 69.5547 108.801 69.3947 108.907 69.288C109.014 69.1707 109.169 69.112 109.371 69.112C109.574 69.112 109.729 69.1707 109.835 69.288C109.953 69.3947 110.011 69.5547 110.011 69.768V71.144L109.835 70.952C110.059 70.3333 110.422 69.8693 110.923 69.56C111.435 69.24 112.022 69.08 112.683 69.08C113.302 69.08 113.814 69.192 114.219 69.416C114.635 69.64 114.945 69.9813 115.147 70.44C115.35 70.888 115.451 71.4587 115.451 72.152V76.44C115.451 76.6533 115.393 76.8187 115.275 76.936C115.169 77.0533 115.014 77.112 114.811 77.112C114.598 77.112 114.433 77.0533 114.315 76.936C114.209 76.8187 114.155 76.6533 114.155 76.44V72.232C114.155 71.5067 114.011 70.9787 113.723 70.648C113.446 70.3067 112.998 70.136 112.379 70.136C111.665 70.136 111.094 70.36 110.667 70.808C110.251 71.2453 110.043 71.832 110.043 72.568V76.44C110.043 76.888 109.825 77.112 109.387 77.112ZM118.481 77.112C118.268 77.112 118.108 77.0533 118.001 76.936C117.894 76.8187 117.841 76.6533 117.841 76.44V69.768C117.841 69.5547 117.894 69.3947 118.001 69.288C118.108 69.1707 118.262 69.112 118.465 69.112C118.668 69.112 118.822 69.1707 118.929 69.288C119.046 69.3947 119.105 69.5547 119.105 69.768V71.144L118.929 70.952C119.153 70.3333 119.516 69.8693 120.017 69.56C120.529 69.24 121.116 69.08 121.777 69.08C122.396 69.08 122.908 69.192 123.313 69.416C123.729 69.64 124.038 69.9813 124.241 70.44C124.444 70.888 124.545 71.4587 124.545 72.152V76.44C124.545 76.6533 124.486 76.8187 124.369 76.936C124.262 77.0533 124.108 77.112 123.905 77.112C123.692 77.112 123.526 77.0533 123.409 76.936C123.302 76.8187 123.249 76.6533 123.249 76.44V72.232C123.249 71.5067 123.105 70.9787 122.817 70.648C122.54 70.3067 122.092 70.136 121.473 70.136C120.758 70.136 120.188 70.36 119.761 70.808C119.345 71.2453 119.137 71.832 119.137 72.568V76.44C119.137 76.888 118.918 77.112 118.481 77.112ZM134.02 77.144C133.326 77.144 132.718 76.9787 132.196 76.648C131.684 76.3173 131.284 75.8533 130.996 75.256C130.718 74.648 130.58 73.9333 130.58 73.112C130.58 72.28 130.718 71.5653 130.996 70.968C131.284 70.36 131.684 69.896 132.196 69.576C132.718 69.2453 133.326 69.08 134.02 69.08C134.724 69.08 135.326 69.256 135.828 69.608C136.329 69.96 136.665 70.4347 136.836 71.032H136.66V66.264C136.66 66.0507 136.713 65.8907 136.82 65.784C136.937 65.6667 137.102 65.608 137.316 65.608C137.518 65.608 137.673 65.6667 137.78 65.784C137.897 65.8907 137.956 66.0507 137.956 66.264V76.44C137.956 76.6533 137.902 76.8187 137.796 76.936C137.689 77.0533 137.529 77.112 137.316 77.112C137.113 77.112 136.953 77.0533 136.836 76.936C136.729 76.8187 136.676 76.6533 136.676 76.44V74.92L136.852 75.144C136.681 75.752 136.34 76.2373 135.828 76.6C135.326 76.9627 134.724 77.144 134.02 77.144ZM134.292 76.104C134.772 76.104 135.193 75.9867 135.556 75.752C135.918 75.5173 136.196 75.176 136.388 74.728C136.59 74.28 136.692 73.7413 136.692 73.112C136.692 72.1413 136.473 71.4 136.036 70.888C135.609 70.376 135.028 70.12 134.292 70.12C133.801 70.12 133.374 70.2373 133.012 70.472C132.66 70.696 132.382 71.032 132.18 71.48C131.988 71.9173 131.892 72.4613 131.892 73.112C131.892 74.072 132.11 74.8133 132.548 75.336C132.985 75.848 133.566 76.104 134.292 76.104ZM141.028 77.08C140.815 77.08 140.655 77.0213 140.548 76.904C140.441 76.776 140.388 76.6 140.388 76.376V69.832C140.388 69.608 140.441 69.4373 140.548 69.32C140.655 69.2027 140.815 69.144 141.028 69.144C141.231 69.144 141.391 69.2027 141.508 69.32C141.625 69.4373 141.684 69.608 141.684 69.832V76.376C141.684 76.6 141.625 76.776 141.508 76.904C141.401 77.0213 141.241 77.08 141.028 77.08ZM141.028 67.352C140.761 67.352 140.553 67.2827 140.404 67.144C140.255 66.9947 140.18 66.7973 140.18 66.552C140.18 66.296 140.255 66.104 140.404 65.976C140.553 65.8373 140.761 65.768 141.028 65.768C141.305 65.768 141.513 65.8373 141.652 65.976C141.801 66.104 141.876 66.296 141.876 66.552C141.876 66.7973 141.801 66.9947 141.652 67.144C141.513 67.2827 141.305 67.352 141.028 67.352ZM146.555 77.144C146.021 77.144 145.541 77.0427 145.115 76.84C144.699 76.6267 144.368 76.3387 144.123 75.976C143.877 75.6133 143.755 75.208 143.755 74.76C143.755 74.184 143.899 73.7307 144.187 73.4C144.485 73.0693 144.971 72.8347 145.643 72.696C146.325 72.5573 147.253 72.488 148.427 72.488H149.147V73.336H148.443C147.579 73.336 146.896 73.3787 146.395 73.464C145.904 73.5387 145.557 73.672 145.355 73.864C145.163 74.056 145.067 74.328 145.067 74.68C145.067 75.1173 145.216 75.4747 145.515 75.752C145.824 76.0293 146.24 76.168 146.763 76.168C147.189 76.168 147.563 76.0667 147.883 75.864C148.213 75.6613 148.469 75.384 148.651 75.032C148.843 74.68 148.939 74.2747 148.939 73.816V71.992C148.939 71.3307 148.805 70.856 148.539 70.568C148.272 70.2693 147.835 70.12 147.227 70.12C146.853 70.12 146.48 70.168 146.107 70.264C145.733 70.36 145.339 70.5147 144.923 70.728C144.773 70.8027 144.645 70.8293 144.539 70.808C144.432 70.776 144.347 70.7173 144.283 70.632C144.219 70.5467 144.181 70.4507 144.171 70.344C144.16 70.2267 144.181 70.1147 144.235 70.008C144.299 69.9013 144.395 69.816 144.523 69.752C144.992 69.5173 145.456 69.3467 145.915 69.24C146.373 69.1333 146.811 69.08 147.227 69.08C147.899 69.08 148.453 69.192 148.891 69.416C149.328 69.6293 149.653 69.96 149.867 70.408C150.08 70.8453 150.187 71.4107 150.187 72.104V76.44C150.187 76.6533 150.133 76.8187 150.027 76.936C149.931 77.0533 149.787 77.112 149.595 77.112C149.392 77.112 149.237 77.0533 149.131 76.936C149.024 76.8187 148.971 76.6533 148.971 76.44V75.192H149.115C149.029 75.5973 148.864 75.944 148.619 76.232C148.384 76.52 148.091 76.744 147.739 76.904C147.387 77.064 146.992 77.144 146.555 77.144ZM156.031 80.024C155.466 80.024 154.911 79.9547 154.367 79.816C153.834 79.688 153.348 79.48 152.911 79.192C152.783 79.1173 152.698 79.0267 152.655 78.92C152.623 78.8133 152.618 78.7067 152.639 78.6C152.66 78.504 152.708 78.4133 152.783 78.328C152.858 78.2533 152.943 78.2053 153.039 78.184C153.146 78.1627 153.252 78.1787 153.359 78.232C153.828 78.52 154.276 78.7173 154.703 78.824C155.13 78.9307 155.551 78.984 155.967 78.984C156.724 78.984 157.295 78.7813 157.679 78.376C158.074 77.9707 158.271 77.384 158.271 76.616V74.808H158.431C158.271 75.4267 157.93 75.9173 157.407 76.28C156.895 76.6427 156.292 76.824 155.599 76.824C154.884 76.824 154.266 76.664 153.743 76.344C153.22 76.0133 152.815 75.5547 152.527 74.968C152.25 74.3813 152.111 73.704 152.111 72.936C152.111 72.36 152.191 71.8373 152.351 71.368C152.511 70.888 152.74 70.4827 153.039 70.152C153.348 69.8107 153.716 69.5493 154.143 69.368C154.58 69.176 155.066 69.08 155.599 69.08C156.303 69.08 156.911 69.2613 157.423 69.624C157.935 69.976 158.266 70.456 158.415 71.064L158.255 71.256V69.768C158.255 69.5547 158.308 69.3947 158.415 69.288C158.532 69.1707 158.692 69.112 158.895 69.112C159.108 69.112 159.268 69.1707 159.375 69.288C159.482 69.3947 159.535 69.5547 159.535 69.768V76.44C159.535 77.624 159.236 78.5147 158.639 79.112C158.052 79.72 157.183 80.024 156.031 80.024ZM155.839 75.768C156.34 75.768 156.772 75.656 157.135 75.432C157.498 75.1973 157.775 74.8667 157.967 74.44C158.17 74.0133 158.271 73.512 158.271 72.936C158.271 72.072 158.052 71.3893 157.615 70.888C157.178 70.376 156.586 70.12 155.839 70.12C155.348 70.12 154.922 70.2373 154.559 70.472C154.196 70.696 153.914 71.0213 153.711 71.448C153.519 71.864 153.423 72.36 153.423 72.936C153.423 73.8 153.642 74.488 154.079 75C154.516 75.512 155.103 75.768 155.839 75.768ZM162.622 77.112C162.409 77.112 162.243 77.0533 162.126 76.936C162.019 76.8187 161.966 76.6533 161.966 76.44V69.768C161.966 69.5547 162.019 69.3947 162.126 69.288C162.233 69.1707 162.387 69.112 162.59 69.112C162.793 69.112 162.947 69.1707 163.054 69.288C163.171 69.3947 163.23 69.5547 163.23 69.768V71.064H163.07C163.241 70.4347 163.566 69.9493 164.046 69.608C164.526 69.2667 165.118 69.0853 165.822 69.064C165.982 69.0533 166.11 69.0907 166.206 69.176C166.302 69.2507 166.355 69.384 166.366 69.576C166.377 69.7573 166.334 69.9013 166.238 70.008C166.142 70.1147 165.993 70.1787 165.79 70.2L165.534 70.232C164.809 70.296 164.249 70.5307 163.854 70.936C163.47 71.3307 163.278 71.8747 163.278 72.568V76.44C163.278 76.6533 163.219 76.8187 163.102 76.936C162.995 77.0533 162.835 77.112 162.622 77.112ZM170.07 77.144C169.537 77.144 169.057 77.0427 168.63 76.84C168.214 76.6267 167.884 76.3387 167.638 75.976C167.393 75.6133 167.27 75.208 167.27 74.76C167.27 74.184 167.414 73.7307 167.702 73.4C168.001 73.0693 168.486 72.8347 169.158 72.696C169.841 72.5573 170.769 72.488 171.942 72.488H172.662V73.336H171.958C171.094 73.336 170.412 73.3787 169.91 73.464C169.42 73.5387 169.073 73.672 168.87 73.864C168.678 74.056 168.582 74.328 168.582 74.68C168.582 75.1173 168.732 75.4747 169.03 75.752C169.34 76.0293 169.756 76.168 170.278 76.168C170.705 76.168 171.078 76.0667 171.398 75.864C171.729 75.6613 171.985 75.384 172.166 75.032C172.358 74.68 172.454 74.2747 172.454 73.816V71.992C172.454 71.3307 172.321 70.856 172.054 70.568C171.788 70.2693 171.35 70.12 170.742 70.12C170.369 70.12 169.996 70.168 169.622 70.264C169.249 70.36 168.854 70.5147 168.438 70.728C168.289 70.8027 168.161 70.8293 168.054 70.808C167.948 70.776 167.862 70.7173 167.798 70.632C167.734 70.5467 167.697 70.4507 167.686 70.344C167.676 70.2267 167.697 70.1147 167.75 70.008C167.814 69.9013 167.91 69.816 168.038 69.752C168.508 69.5173 168.972 69.3467 169.43 69.24C169.889 69.1333 170.326 69.08 170.742 69.08C171.414 69.08 171.969 69.192 172.406 69.416C172.844 69.6293 173.169 69.96 173.382 70.408C173.596 70.8453 173.702 71.4107 173.702 72.104V76.44C173.702 76.6533 173.649 76.8187 173.542 76.936C173.446 77.0533 173.302 77.112 173.11 77.112C172.908 77.112 172.753 77.0533 172.646 76.936C172.54 76.8187 172.486 76.6533 172.486 76.44V75.192H172.63C172.545 75.5973 172.38 75.944 172.134 76.232C171.9 76.52 171.606 76.744 171.254 76.904C170.902 77.064 170.508 77.144 170.07 77.144ZM176.779 77.112C176.565 77.112 176.405 77.0533 176.299 76.936C176.192 76.8187 176.139 76.6533 176.139 76.44V69.768C176.139 69.5547 176.192 69.3947 176.299 69.288C176.405 69.1707 176.56 69.112 176.763 69.112C176.965 69.112 177.12 69.1707 177.227 69.288C177.344 69.3947 177.403 69.5547 177.403 69.768V71.176L177.227 70.952C177.429 70.3547 177.755 69.896 178.203 69.576C178.661 69.2453 179.205 69.08 179.835 69.08C180.496 69.08 181.029 69.24 181.435 69.56C181.851 69.8693 182.128 70.3547 182.267 71.016H182.027C182.219 70.4187 182.56 69.9493 183.051 69.608C183.552 69.256 184.133 69.08 184.795 69.08C185.381 69.08 185.861 69.192 186.235 69.416C186.619 69.64 186.907 69.9813 187.099 70.44C187.291 70.888 187.387 71.4587 187.387 72.152V76.44C187.387 76.6533 187.328 76.8187 187.211 76.936C187.104 77.0533 186.944 77.112 186.731 77.112C186.528 77.112 186.368 77.0533 186.251 76.936C186.144 76.8187 186.091 76.6533 186.091 76.44V72.216C186.091 71.5013 185.968 70.9787 185.723 70.648C185.477 70.3067 185.061 70.136 184.475 70.136C183.835 70.136 183.328 70.36 182.955 70.808C182.592 71.2453 182.411 71.8427 182.411 72.6V76.44C182.411 76.6533 182.352 76.8187 182.235 76.936C182.128 77.0533 181.968 77.112 181.755 77.112C181.552 77.112 181.392 77.0533 181.275 76.936C181.168 76.8187 181.115 76.6533 181.115 76.44V72.216C181.115 71.5013 180.987 70.9787 180.731 70.648C180.485 70.3067 180.075 70.136 179.499 70.136C178.859 70.136 178.352 70.36 177.979 70.808C177.616 71.2453 177.435 71.8427 177.435 72.6V76.44C177.435 76.888 177.216 77.112 176.779 77.112Z" fill="#444444"/>
<rect x="0.25" y="0.25" width="200.5" height="95.5" rx="7.75" stroke="#1A1A1A" stroke-width="0.5"/>
<rect x="24" y="96" width="1" height="12" transform="rotate(-90 24 96)" fill="white"/>
<path d="M35.4972 96.0848C35.7872 95.7632 35.559 95.25 35.1258 95.25L24.3213 95.25C23.8967 95.25 23.6654 95.7457 23.9381 96.0711L29.0833 102.212L29.1422 102.283C29.3422 102.525 29.7134 102.525 29.9134 102.283L29.9722 102.212L35.4972 96.0848Z" fill="white"/>
<path d="M36 96L30.4632 102.133C30.0519 102.589 29.3312 102.57 28.9444 102.093L24 96" stroke="#1A1A1A" stroke-width="0.5" stroke-linecap="square"/>
</svg>
