<svg width="24" height="24" viewBox="0 0 24 24" fill="none" xmlns="http://www.w3.org/2000/svg">
<g id="CTA Icons">
<path id="Vector" d="M22.2844 16.3041C22.4252 16.4463 22.5042 16.6383 22.5042 16.8384C22.5042 17.0386 22.4252 17.2306 22.2844 17.3728L20.0344 19.6228C19.891 19.7614 19.6994 19.8389 19.5 19.8389C19.3006 19.8389 19.109 19.7614 18.9656 19.6228C18.8248 19.4806 18.7458 19.2886 18.7458 19.0884C18.7458 18.8883 18.8248 18.6963 18.9656 18.5541L19.9406 17.5884H18.8344C17.7596 17.5866 16.7008 17.3288 15.7455 16.8364C14.7902 16.3441 13.9658 15.6314 13.3406 14.7572L9.43125 9.29157C8.94613 8.61215 8.30623 8.05798 7.56449 7.67488C6.82274 7.29178 6.00046 7.09076 5.16562 7.08844H3C2.80109 7.08844 2.61032 7.00942 2.46967 6.86877C2.32902 6.72812 2.25 6.53735 2.25 6.33844C2.25 6.13953 2.32902 5.94876 2.46967 5.80811C2.61032 5.66746 2.80109 5.58844 3 5.58844H5.16562C6.24035 5.59033 7.29918 5.84811 8.2545 6.34044C9.20983 6.83278 10.0342 7.54552 10.6594 8.41969L14.5687 13.8853C15.0539 14.5647 15.6938 15.1189 16.4355 15.502C17.1773 15.8851 17.9995 16.0861 18.8344 16.0884H19.9406L18.9656 15.1228C18.846 14.9771 18.7849 14.7921 18.7942 14.6038C18.8034 14.4155 18.8824 14.2374 19.0157 14.1041C19.149 13.9708 19.3271 13.8918 19.5154 13.8826C19.7037 13.8734 19.8887 13.9345 20.0344 14.0541L22.2844 16.3041ZM13.4062 9.61969C13.4867 9.67734 13.5779 9.71847 13.6743 9.74073C13.7708 9.76298 13.8707 9.76591 13.9684 9.74935C14.066 9.73279 14.1593 9.69707 14.2431 9.64424C14.3268 9.59142 14.3993 9.52253 14.4562 9.44157L14.5687 9.29157C15.0539 8.61215 15.6938 8.05798 16.4355 7.67488C17.1773 7.29178 17.9995 7.09076 18.8344 7.08844H19.9406L18.9656 8.05407C18.8248 8.19626 18.7458 8.38831 18.7458 8.58844C18.7458 8.78858 18.8248 8.98062 18.9656 9.12282C19.109 9.26143 19.3006 9.33892 19.5 9.33892C19.6994 9.33892 19.891 9.26143 20.0344 9.12282L22.2844 6.87282C22.4252 6.73062 22.5042 6.53858 22.5042 6.33844C22.5042 6.13831 22.4252 5.94626 22.2844 5.80407L20.0344 3.55407C19.8887 3.43447 19.7037 3.37335 19.5154 3.3826C19.3271 3.39185 19.149 3.4708 19.0157 3.6041C18.8824 3.7374 18.8034 3.91552 18.7942 4.10381C18.7849 4.2921 18.846 4.4771 18.9656 4.62282L19.9406 5.58844H18.8344C17.7596 5.59033 16.7008 5.84811 15.7455 6.34044C14.7902 6.83278 13.9658 7.54552 13.3406 8.41969L13.2375 8.56969C13.1794 8.64962 13.1376 8.74025 13.1147 8.83637C13.0917 8.93249 13.0879 9.0322 13.1036 9.12977C13.1193 9.22735 13.1541 9.32086 13.206 9.40494C13.258 9.48902 13.326 9.562 13.4062 9.61969ZM10.5938 13.5572C10.5133 13.4995 10.4221 13.4584 10.3257 13.4362C10.2292 13.4139 10.1293 13.411 10.0316 13.4275C9.93403 13.4441 9.84066 13.4798 9.75692 13.5326C9.67318 13.5855 9.60073 13.6543 9.54375 13.7353L9.43125 13.8853C8.94613 14.5647 8.30623 15.1189 7.56449 15.502C6.82274 15.8851 6.00046 16.0861 5.16562 16.0884H3C2.80109 16.0884 2.61032 16.1675 2.46967 16.3081C2.32902 16.4488 2.25 16.6395 2.25 16.8384C2.25 17.0374 2.32902 17.2281 2.46967 17.3688C2.61032 17.5094 2.80109 17.5884 3 17.5884H5.16562C6.24035 17.5866 7.29918 17.3288 8.2545 16.8364C9.20983 16.3441 10.0342 15.6314 10.6594 14.7572L10.7625 14.6072C10.8206 14.5273 10.8624 14.4366 10.8853 14.3405C10.9083 14.2444 10.9121 14.1447 10.8964 14.0471C10.8807 13.9495 10.8459 13.856 10.794 13.7719C10.742 13.6879 10.674 13.6149 10.5938 13.5572Z" fill="white"/>
</g>
</svg>
