<svg width="24" height="20" viewBox="0 0 24 20" fill="none" xmlns="http://www.w3.org/2000/svg">
<path d="M23.4984 15.5019C23.6627 15.6678 23.7549 15.8918 23.7549 16.1253C23.7549 16.3588 23.6627 16.5829 23.4984 16.7488L20.8734 19.3738C20.7062 19.5355 20.4826 19.6259 20.25 19.6259C20.0174 19.6259 19.7938 19.5355 19.6266 19.3738C19.4623 19.2079 19.3701 18.9838 19.3701 18.7503C19.3701 18.5168 19.4623 18.2928 19.6266 18.1269L20.7641 17.0003H19.4734C18.2196 16.9981 16.9843 16.6974 15.8697 16.123C14.7552 15.5486 13.7934 14.7171 13.0641 13.6972L8.50313 7.32065C7.93715 6.52799 7.19061 5.88146 6.32524 5.43451C5.45987 4.98757 4.50053 4.75304 3.52656 4.75033H1C0.767936 4.75033 0.545376 4.65815 0.381282 4.49405C0.217187 4.32996 0.125 4.1074 0.125 3.87533C0.125 3.64327 0.217187 3.42071 0.381282 3.25661C0.545376 3.09252 0.767936 3.00033 1 3.00033H3.52656C4.78041 3.00254 6.01571 3.30328 7.13026 3.87767C8.2448 4.45206 9.20655 5.28359 9.93594 6.30346L14.4969 12.68C15.0629 13.4727 15.8094 14.1192 16.6748 14.5662C17.5401 15.0131 18.4995 15.2476 19.4734 15.2503H20.7641L19.6266 14.1238C19.487 13.9538 19.4157 13.7379 19.4265 13.5183C19.4373 13.2986 19.5294 13.0908 19.6849 12.9353C19.8405 12.7797 20.0483 12.6876 20.2679 12.6768C20.4876 12.6661 20.7034 12.7374 20.8734 12.8769L23.4984 15.5019ZM13.1406 7.70346C13.2345 7.77071 13.3408 7.8187 13.4534 7.84467C13.566 7.87063 13.6825 7.87405 13.7964 7.85473C13.9103 7.83541 14.0192 7.79373 14.1169 7.7321C14.2146 7.67047 14.2991 7.59011 14.3656 7.49565L14.4969 7.32065C15.0629 6.52799 15.8094 5.88146 16.6748 5.43451C17.5401 4.98757 18.4995 4.75304 19.4734 4.75033H20.7641L19.6266 5.8769C19.4623 6.04279 19.3701 6.26684 19.3701 6.50033C19.3701 6.73382 19.4623 6.95788 19.6266 7.12377C19.7938 7.28549 20.0174 7.37589 20.25 7.37589C20.4826 7.37589 20.7062 7.28549 20.8734 7.12377L23.4984 4.49877C23.6627 4.33288 23.7549 4.10882 23.7549 3.87533C23.7549 3.64184 23.6627 3.41779 23.4984 3.2519L20.8734 0.626895C20.7034 0.487365 20.4876 0.41606 20.2679 0.426849C20.0483 0.437637 19.8405 0.529749 19.6849 0.685267C19.5294 0.840785 19.4373 1.04859 19.4265 1.26826C19.4157 1.48793 19.487 1.70376 19.6266 1.87377L20.7641 3.00033H19.4734C18.2196 3.00254 16.9843 3.30328 15.8697 3.87767C14.7552 4.45206 13.7934 5.28359 13.0641 6.30346L12.9438 6.47846C12.8759 6.57171 12.8272 6.67744 12.8004 6.78958C12.7736 6.90172 12.7692 7.01805 12.7875 7.13189C12.8058 7.24572 12.8464 7.35482 12.907 7.45291C12.9676 7.551 13.047 7.63615 13.1406 7.70346ZM9.85938 12.2972C9.76546 12.23 9.65916 12.182 9.54661 12.156C9.43405 12.13 9.31747 12.1266 9.20359 12.1459C9.0897 12.1653 8.98077 12.2069 8.88308 12.2686C8.78538 12.3302 8.70086 12.4106 8.63438 12.505L8.50313 12.68C7.93715 13.4727 7.19061 14.1192 6.32524 14.5662C5.45987 15.0131 4.50053 15.2476 3.52656 15.2503H1C0.767936 15.2503 0.545376 15.3425 0.381282 15.5066C0.217187 15.6707 0.125 15.8933 0.125 16.1253C0.125 16.3574 0.217187 16.58 0.381282 16.7441C0.545376 16.9081 0.767936 17.0003 1 17.0003H3.52656C4.78041 16.9981 6.01571 16.6974 7.13026 16.123C8.2448 15.5486 9.20655 14.7171 9.93594 13.6972L10.0563 13.5222C10.1241 13.429 10.1728 13.3232 10.1996 13.2111C10.2264 13.0989 10.2308 12.9826 10.2125 12.8688C10.1942 12.7549 10.1536 12.6458 10.093 12.5478C10.0324 12.4497 9.95299 12.3645 9.85938 12.2972Z" fill="white"/>
</svg>
