<svg width="229" height="46" viewBox="0 0 229 46" fill="none" xmlns="http://www.w3.org/2000/svg">
<path d="M17.0484 6.44428C18.5244 2.5645 22.2438 0 26.3949 0H203.311C207.359 0 211.008 2.44075 212.554 6.1824L223.293 32.1824C226.012 38.7655 221.173 46 214.05 46H16.5036C9.50128 46 4.66725 38.9889 7.15707 32.4443L17.0484 6.44428Z" fill="#7F5CF4"/>
<path d="M28.3982 28.16C27.1502 28.16 26.0942 27.9253 25.2302 27.456C24.3769 26.9867 23.7262 26.32 23.2782 25.456C22.8302 24.592 22.6062 23.568 22.6062 22.384C22.6062 21.488 22.7342 20.6827 22.9902 19.968C23.2569 19.2533 23.6355 18.6453 24.1262 18.144C24.6275 17.632 25.2355 17.2427 25.9502 16.976C26.6649 16.6987 27.4755 16.56 28.3822 16.56C28.9795 16.56 29.5769 16.6347 30.1742 16.784C30.7822 16.9227 31.3529 17.1627 31.8862 17.504C32.0675 17.6213 32.1849 17.7653 32.2382 17.936C32.3022 18.1067 32.3129 18.2827 32.2702 18.464C32.2275 18.6347 32.1475 18.784 32.0302 18.912C31.9129 19.04 31.7635 19.12 31.5822 19.152C31.4115 19.184 31.2195 19.1413 31.0062 19.024C30.6009 18.7893 30.1902 18.6187 29.7742 18.512C29.3582 18.4053 28.8942 18.352 28.3822 18.352C27.5929 18.352 26.9262 18.512 26.3822 18.832C25.8382 19.1413 25.4275 19.5947 25.1502 20.192C24.8835 20.7893 24.7502 21.52 24.7502 22.384C24.7502 23.696 25.0649 24.6933 25.6942 25.376C26.3235 26.0587 27.2569 26.4 28.4942 26.4C28.9209 26.4 29.3529 26.3573 29.7902 26.272C30.2275 26.1867 30.6542 26.0693 31.0702 25.92L30.6702 26.832V23.424H28.9102C28.6435 23.424 28.4355 23.3547 28.2862 23.216C28.1475 23.0773 28.0782 22.8907 28.0782 22.656C28.0782 22.4107 28.1475 22.224 28.2862 22.096C28.4355 21.968 28.6435 21.904 28.9102 21.904H31.5502C31.8169 21.904 32.0195 21.9787 32.1582 22.128C32.3075 22.2667 32.3822 22.4693 32.3822 22.736V26.624C32.3822 26.8587 32.3342 27.056 32.2382 27.216C32.1529 27.376 32.0089 27.4933 31.8062 27.568C31.3369 27.7387 30.7982 27.8827 30.1902 28C29.5822 28.1067 28.9849 28.16 28.3982 28.16ZM37.2354 28.16C36.3501 28.16 35.6834 27.9093 35.2354 27.408C34.7874 26.896 34.5634 26.1493 34.5634 25.168V17.6C34.5634 17.2693 34.6488 17.0187 34.8194 16.848C34.9901 16.6773 35.2354 16.592 35.5554 16.592C35.8754 16.592 36.1208 16.6773 36.2914 16.848C36.4728 17.0187 36.5634 17.2693 36.5634 17.6V25.072C36.5634 25.5627 36.6648 25.9253 36.8674 26.16C37.0808 26.3947 37.3794 26.512 37.7634 26.512C37.8488 26.512 37.9288 26.512 38.0034 26.512C38.0781 26.5013 38.1528 26.4907 38.2274 26.48C38.3768 26.4587 38.4781 26.5013 38.5314 26.608C38.5848 26.704 38.6114 26.9067 38.6114 27.216C38.6114 27.4827 38.5581 27.6907 38.4514 27.84C38.3448 27.9893 38.1688 28.08 37.9234 28.112C37.8168 28.1227 37.7048 28.1333 37.5874 28.144C37.4701 28.1547 37.3528 28.16 37.2354 28.16ZM42.2488 28.16C41.6835 28.16 41.1768 28.0533 40.7288 27.84C40.2915 27.616 39.9448 27.3173 39.6888 26.944C39.4435 26.5707 39.3208 26.1493 39.3208 25.68C39.3208 25.104 39.4701 24.6507 39.7688 24.32C40.0675 23.9787 40.5528 23.7333 41.2248 23.584C41.8968 23.4347 42.7981 23.36 43.9288 23.36H44.7288V24.512H43.9448C43.2835 24.512 42.7555 24.544 42.3608 24.608C41.9661 24.672 41.6835 24.784 41.5128 24.944C41.3528 25.0933 41.2728 25.3067 41.2728 25.584C41.2728 25.936 41.3955 26.224 41.6408 26.448C41.8861 26.672 42.2275 26.784 42.6648 26.784C43.0168 26.784 43.3261 26.704 43.5928 26.544C43.8701 26.3733 44.0888 26.144 44.2488 25.856C44.4088 25.568 44.4888 25.2373 44.4888 24.864V23.024C44.4888 22.4907 44.3715 22.1067 44.1368 21.872C43.9021 21.6373 43.5075 21.52 42.9528 21.52C42.6435 21.52 42.3075 21.5573 41.9448 21.632C41.5928 21.7067 41.2195 21.8347 40.8248 22.016C40.6221 22.112 40.4408 22.1387 40.2808 22.096C40.1315 22.0533 40.0141 21.968 39.9288 21.84C39.8435 21.7013 39.8008 21.552 39.8008 21.392C39.8008 21.232 39.8435 21.0773 39.9288 20.928C40.0141 20.768 40.1581 20.6507 40.3608 20.576C40.8515 20.3733 41.3208 20.2293 41.7688 20.144C42.2275 20.0587 42.6435 20.016 43.0168 20.016C43.7848 20.016 44.4141 20.1333 44.9048 20.368C45.4061 20.6027 45.7795 20.96 46.0248 21.44C46.2701 21.9093 46.3928 22.5173 46.3928 23.264V27.104C46.3928 27.4347 46.3128 27.6907 46.1528 27.872C45.9928 28.0427 45.7635 28.128 45.4648 28.128C45.1661 28.128 44.9315 28.0427 44.7608 27.872C44.6008 27.6907 44.5208 27.4347 44.5208 27.104V26.336H44.6488C44.5741 26.7093 44.4248 27.0347 44.2008 27.312C43.9875 27.5787 43.7155 27.7867 43.3848 27.936C43.0541 28.0853 42.6755 28.16 42.2488 28.16ZM51.2868 28.16C50.8281 28.16 50.3428 28.112 49.8308 28.016C49.3188 27.92 48.8601 27.7547 48.4548 27.52C48.2841 27.4133 48.1615 27.2907 48.0868 27.152C48.0228 27.0027 47.9961 26.8587 48.0068 26.72C48.0281 26.5707 48.0815 26.4427 48.1668 26.336C48.2628 26.2293 48.3801 26.16 48.5188 26.128C48.6681 26.096 48.8281 26.1227 48.9988 26.208C49.4255 26.4107 49.8255 26.5547 50.1988 26.64C50.5721 26.7147 50.9401 26.752 51.3028 26.752C51.8148 26.752 52.1935 26.6667 52.4388 26.496C52.6948 26.3147 52.8228 26.08 52.8228 25.792C52.8228 25.5467 52.7375 25.36 52.5668 25.232C52.4068 25.0933 52.1615 24.992 51.8308 24.928L50.2308 24.624C49.5695 24.496 49.0628 24.256 48.7108 23.904C48.3695 23.5413 48.1988 23.0773 48.1988 22.512C48.1988 22 48.3375 21.5573 48.6148 21.184C48.9028 20.8107 49.2975 20.5227 49.7988 20.32C50.3001 20.1173 50.8761 20.016 51.5268 20.016C51.9961 20.016 52.4335 20.0693 52.8388 20.176C53.2548 20.272 53.6548 20.4267 54.0388 20.64C54.1988 20.7253 54.3055 20.8373 54.3588 20.976C54.4228 21.1147 54.4388 21.2587 54.4068 21.408C54.3748 21.5467 54.3108 21.6747 54.2148 21.792C54.1188 21.8987 53.9961 21.968 53.8468 22C53.7081 22.0213 53.5481 21.9893 53.3668 21.904C53.0361 21.7333 52.7161 21.6107 52.4068 21.536C52.1081 21.4613 51.8201 21.424 51.5428 21.424C51.0201 21.424 50.6308 21.5147 50.3748 21.696C50.1295 21.8773 50.0068 22.1173 50.0068 22.416C50.0068 22.64 50.0815 22.8267 50.2308 22.976C50.3801 23.1253 50.6095 23.2267 50.9188 23.28L52.5188 23.584C53.2121 23.712 53.7348 23.9467 54.0868 24.288C54.4495 24.6293 54.6308 25.088 54.6308 25.664C54.6308 26.4427 54.3268 27.056 53.7188 27.504C53.1108 27.9413 52.3001 28.16 51.2868 28.16ZM59.0993 28.16C58.6406 28.16 58.1553 28.112 57.6433 28.016C57.1313 27.92 56.6726 27.7547 56.2673 27.52C56.0966 27.4133 55.974 27.2907 55.8993 27.152C55.8353 27.0027 55.8086 26.8587 55.8193 26.72C55.8406 26.5707 55.894 26.4427 55.9793 26.336C56.0753 26.2293 56.1926 26.16 56.3313 26.128C56.4806 26.096 56.6406 26.1227 56.8113 26.208C57.238 26.4107 57.638 26.5547 58.0113 26.64C58.3846 26.7147 58.7526 26.752 59.1153 26.752C59.6273 26.752 60.006 26.6667 60.2513 26.496C60.5073 26.3147 60.6353 26.08 60.6353 25.792C60.6353 25.5467 60.55 25.36 60.3793 25.232C60.2193 25.0933 59.974 24.992 59.6433 24.928L58.0433 24.624C57.382 24.496 56.8753 24.256 56.5233 23.904C56.182 23.5413 56.0113 23.0773 56.0113 22.512C56.0113 22 56.15 21.5573 56.4273 21.184C56.7153 20.8107 57.11 20.5227 57.6113 20.32C58.1126 20.1173 58.6886 20.016 59.3393 20.016C59.8086 20.016 60.246 20.0693 60.6513 20.176C61.0673 20.272 61.4673 20.4267 61.8513 20.64C62.0113 20.7253 62.118 20.8373 62.1713 20.976C62.2353 21.1147 62.2513 21.2587 62.2193 21.408C62.1873 21.5467 62.1233 21.6747 62.0273 21.792C61.9313 21.8987 61.8086 21.968 61.6593 22C61.5206 22.0213 61.3606 21.9893 61.1793 21.904C60.8486 21.7333 60.5286 21.6107 60.2193 21.536C59.9206 21.4613 59.6326 21.424 59.3553 21.424C58.8326 21.424 58.4433 21.5147 58.1873 21.696C57.942 21.8773 57.8193 22.1173 57.8193 22.416C57.8193 22.64 57.894 22.8267 58.0433 22.976C58.1926 23.1253 58.422 23.2267 58.7313 23.28L60.3313 23.584C61.0246 23.712 61.5473 23.9467 61.8993 24.288C62.262 24.6293 62.4433 25.088 62.4433 25.664C62.4433 26.4427 62.1393 27.056 61.5313 27.504C60.9233 27.9413 60.1126 28.16 59.0993 28.16ZM67.9038 28.16C67.0185 28.16 66.2558 27.9947 65.6158 27.664C64.9758 27.3333 64.4798 26.864 64.1278 26.256C63.7865 25.648 63.6158 24.928 63.6158 24.096C63.6158 23.2853 63.7811 22.576 64.1118 21.968C64.4531 21.36 64.9171 20.8853 65.5038 20.544C66.1011 20.192 66.7785 20.016 67.5358 20.016C68.0905 20.016 68.5865 20.1067 69.0238 20.288C69.4718 20.4693 69.8505 20.7307 70.1598 21.072C70.4798 21.4133 70.7198 21.8293 70.8798 22.32C71.0505 22.8 71.1358 23.344 71.1358 23.952C71.1358 24.144 71.0665 24.2933 70.9278 24.4C70.7998 24.496 70.6131 24.544 70.3678 24.544H65.2318V23.392H69.7278L69.4718 23.632C69.4718 23.1413 69.3971 22.7307 69.2478 22.4C69.1091 22.0693 68.9011 21.8187 68.6238 21.648C68.3571 21.4667 68.0211 21.376 67.6158 21.376C67.1678 21.376 66.7838 21.4827 66.4638 21.696C66.1545 21.8987 65.9145 22.192 65.7438 22.576C65.5838 22.9493 65.5038 23.3973 65.5038 23.92V24.032C65.5038 24.9067 65.7065 25.5627 66.1118 26C66.5278 26.4267 67.1358 26.64 67.9358 26.64C68.2131 26.64 68.5225 26.608 68.8638 26.544C69.2158 26.4693 69.5465 26.3467 69.8558 26.176C70.0798 26.048 70.2771 25.9947 70.4478 26.016C70.6185 26.0267 70.7518 26.0853 70.8478 26.192C70.9545 26.2987 71.0185 26.432 71.0398 26.592C71.0611 26.7413 71.0291 26.896 70.9438 27.056C70.8691 27.216 70.7358 27.3547 70.5438 27.472C70.1705 27.7067 69.7385 27.8827 69.2478 28C68.7678 28.1067 68.3198 28.16 67.9038 28.16ZM75.5837 28.16C75.125 28.16 74.6397 28.112 74.1277 28.016C73.6157 27.92 73.157 27.7547 72.7517 27.52C72.581 27.4133 72.4584 27.2907 72.3837 27.152C72.3197 27.0027 72.293 26.8587 72.3037 26.72C72.325 26.5707 72.3784 26.4427 72.4637 26.336C72.5597 26.2293 72.677 26.16 72.8157 26.128C72.965 26.096 73.125 26.1227 73.2957 26.208C73.7224 26.4107 74.1224 26.5547 74.4957 26.64C74.869 26.7147 75.237 26.752 75.5997 26.752C76.1117 26.752 76.4904 26.6667 76.7357 26.496C76.9917 26.3147 77.1197 26.08 77.1197 25.792C77.1197 25.5467 77.0344 25.36 76.8637 25.232C76.7037 25.0933 76.4584 24.992 76.1277 24.928L74.5277 24.624C73.8664 24.496 73.3597 24.256 73.0077 23.904C72.6664 23.5413 72.4957 23.0773 72.4957 22.512C72.4957 22 72.6344 21.5573 72.9117 21.184C73.1997 20.8107 73.5944 20.5227 74.0957 20.32C74.597 20.1173 75.173 20.016 75.8237 20.016C76.293 20.016 76.7304 20.0693 77.1357 20.176C77.5517 20.272 77.9517 20.4267 78.3357 20.64C78.4957 20.7253 78.6024 20.8373 78.6557 20.976C78.7197 21.1147 78.7357 21.2587 78.7037 21.408C78.6717 21.5467 78.6077 21.6747 78.5117 21.792C78.4157 21.8987 78.293 21.968 78.1437 22C78.005 22.0213 77.845 21.9893 77.6637 21.904C77.333 21.7333 77.013 21.6107 76.7037 21.536C76.405 21.4613 76.117 21.424 75.8397 21.424C75.317 21.424 74.9277 21.5147 74.6717 21.696C74.4264 21.8773 74.3037 22.1173 74.3037 22.416C74.3037 22.64 74.3784 22.8267 74.5277 22.976C74.677 23.1253 74.9064 23.2267 75.2157 23.28L76.8157 23.584C77.509 23.712 78.0317 23.9467 78.3837 24.288C78.7464 24.6293 78.9277 25.088 78.9277 25.664C78.9277 26.4427 78.6237 27.056 78.0157 27.504C77.4077 27.9413 76.597 28.16 75.5837 28.16ZM85.8679 31.008C85.5479 31.008 85.3026 30.9227 85.1319 30.752C84.9613 30.5813 84.8759 30.3307 84.8759 30V21.056C84.8759 20.7253 84.9613 20.4747 85.1319 20.304C85.3026 20.1333 85.5426 20.048 85.8519 20.048C86.1719 20.048 86.4173 20.1333 86.5879 20.304C86.7586 20.4747 86.8439 20.7253 86.8439 21.056V22.304L86.6679 21.824C86.8279 21.28 87.1533 20.8427 87.6439 20.512C88.1453 20.1813 88.7266 20.016 89.3879 20.016C90.0706 20.016 90.6679 20.1813 91.1799 20.512C91.7026 20.8427 92.1079 21.312 92.3959 21.92C92.6839 22.5173 92.8279 23.2373 92.8279 24.08C92.8279 24.912 92.6839 25.6373 92.3959 26.256C92.1079 26.864 91.7079 27.3333 91.1959 27.664C90.6839 27.9947 90.0813 28.16 89.3879 28.16C88.7373 28.16 88.1666 28 87.6759 27.68C87.1853 27.3493 86.8546 26.9227 86.6839 26.4H86.8759V30C86.8759 30.3307 86.7853 30.5813 86.6039 30.752C86.4333 30.9227 86.1879 31.008 85.8679 31.008ZM88.8279 26.64C89.2226 26.64 89.5693 26.544 89.8679 26.352C90.1666 26.16 90.3959 25.8773 90.5559 25.504C90.7266 25.12 90.8119 24.6453 90.8119 24.08C90.8119 23.2267 90.6306 22.592 90.2679 22.176C89.9053 21.7493 89.4253 21.536 88.8279 21.536C88.4333 21.536 88.0866 21.632 87.7879 21.824C87.4893 22.0053 87.2546 22.288 87.0839 22.672C86.9239 23.0453 86.8439 23.5147 86.8439 24.08C86.8439 24.9227 87.0253 25.5627 87.3879 26C87.7506 26.4267 88.2306 26.64 88.8279 26.64ZM98.0377 28.16C97.227 28.16 96.523 27.9947 95.9257 27.664C95.3284 27.3333 94.8644 26.864 94.5337 26.256C94.203 25.6373 94.0377 24.912 94.0377 24.08C94.0377 23.4507 94.1284 22.8907 94.3097 22.4C94.5017 21.8987 94.7737 21.472 95.1257 21.12C95.4777 20.7573 95.899 20.4853 96.3897 20.304C96.8804 20.112 97.4297 20.016 98.0377 20.016C98.8484 20.016 99.5524 20.1813 100.15 20.512C100.747 20.8427 101.211 21.312 101.542 21.92C101.872 22.528 102.038 23.248 102.038 24.08C102.038 24.7093 101.942 25.2747 101.75 25.776C101.568 26.2773 101.302 26.7093 100.95 27.072C100.598 27.424 100.176 27.696 99.6857 27.888C99.195 28.0693 98.6457 28.16 98.0377 28.16ZM98.0377 26.64C98.4324 26.64 98.779 26.544 99.0777 26.352C99.3764 26.16 99.6057 25.8773 99.7657 25.504C99.9364 25.12 100.022 24.6453 100.022 24.08C100.022 23.2267 99.8404 22.592 99.4777 22.176C99.115 21.7493 98.635 21.536 98.0377 21.536C97.643 21.536 97.2964 21.632 96.9977 21.824C96.699 22.0053 96.4644 22.288 96.2937 22.672C96.1337 23.0453 96.0537 23.5147 96.0537 24.08C96.0537 24.9227 96.235 25.5627 96.5977 26C96.9604 26.4267 97.4404 26.64 98.0377 26.64ZM106.52 28.16C105.87 28.16 105.331 28.0427 104.904 27.808C104.478 27.5627 104.158 27.2 103.944 26.72C103.742 26.24 103.64 25.6427 103.64 24.928V21.056C103.64 20.7147 103.726 20.464 103.896 20.304C104.067 20.1333 104.312 20.048 104.632 20.048C104.952 20.048 105.198 20.1333 105.368 20.304C105.55 20.464 105.64 20.7147 105.64 21.056V24.96C105.64 25.5147 105.752 25.9253 105.976 26.192C106.2 26.4587 106.558 26.592 107.048 26.592C107.582 26.592 108.019 26.4107 108.36 26.048C108.702 25.6747 108.872 25.184 108.872 24.576V21.056C108.872 20.7147 108.958 20.464 109.128 20.304C109.299 20.1333 109.544 20.048 109.864 20.048C110.184 20.048 110.43 20.1333 110.6 20.304C110.782 20.464 110.872 20.7147 110.872 21.056V27.104C110.872 27.7867 110.547 28.128 109.896 28.128C109.587 28.128 109.347 28.0427 109.176 27.872C109.006 27.6907 108.92 27.4347 108.92 27.104V25.888L109.144 26.368C108.92 26.944 108.579 27.3867 108.12 27.696C107.672 28.0053 107.139 28.16 106.52 28.16ZM113.978 28.128C113.647 28.128 113.391 28.0427 113.21 27.872C113.039 27.6907 112.954 27.4347 112.954 27.104V21.056C112.954 20.7253 113.039 20.4747 113.21 20.304C113.381 20.1333 113.621 20.048 113.93 20.048C114.239 20.048 114.479 20.1333 114.65 20.304C114.821 20.4747 114.906 20.7253 114.906 21.056V22.064H114.746C114.895 21.424 115.189 20.9387 115.626 20.608C116.063 20.2773 116.645 20.08 117.37 20.016C117.594 19.9947 117.77 20.0533 117.898 20.192C118.037 20.32 118.117 20.5227 118.138 20.8C118.159 21.0667 118.095 21.2853 117.946 21.456C117.807 21.616 117.594 21.712 117.306 21.744L116.954 21.776C116.303 21.84 115.813 22.0427 115.482 22.384C115.151 22.7147 114.986 23.184 114.986 23.792V27.104C114.986 27.4347 114.901 27.6907 114.73 27.872C114.559 28.0427 114.309 28.128 113.978 28.128ZM122.951 28.16C122.065 28.16 121.303 27.9947 120.663 27.664C120.023 27.3333 119.527 26.864 119.175 26.256C118.833 25.648 118.663 24.928 118.663 24.096C118.663 23.2853 118.828 22.576 119.159 21.968C119.5 21.36 119.964 20.8853 120.551 20.544C121.148 20.192 121.825 20.016 122.583 20.016C123.137 20.016 123.633 20.1067 124.071 20.288C124.519 20.4693 124.897 20.7307 125.207 21.072C125.527 21.4133 125.767 21.8293 125.927 22.32C126.097 22.8 126.183 23.344 126.183 23.952C126.183 24.144 126.113 24.2933 125.975 24.4C125.847 24.496 125.66 24.544 125.415 24.544H120.279V23.392H124.775L124.519 23.632C124.519 23.1413 124.444 22.7307 124.295 22.4C124.156 22.0693 123.948 21.8187 123.671 21.648C123.404 21.4667 123.068 21.376 122.663 21.376C122.215 21.376 121.831 21.4827 121.511 21.696C121.201 21.8987 120.961 22.192 120.791 22.576C120.631 22.9493 120.551 23.3973 120.551 23.92V24.032C120.551 24.9067 120.753 25.5627 121.159 26C121.575 26.4267 122.183 26.64 122.983 26.64C123.26 26.64 123.569 26.608 123.911 26.544C124.263 26.4693 124.593 26.3467 124.903 26.176C125.127 26.048 125.324 25.9947 125.495 26.016C125.665 26.0267 125.799 26.0853 125.895 26.192C126.001 26.2987 126.065 26.432 126.087 26.592C126.108 26.7413 126.076 26.896 125.991 27.056C125.916 27.216 125.783 27.3547 125.591 27.472C125.217 27.7067 124.785 27.8827 124.295 28C123.815 28.1067 123.367 28.16 122.951 28.16ZM130.775 28.16C130.092 28.16 129.489 27.9947 128.967 27.664C128.455 27.3333 128.055 26.864 127.767 26.256C127.479 25.6373 127.335 24.912 127.335 24.08C127.335 23.2373 127.479 22.5173 127.767 21.92C128.055 21.312 128.455 20.8427 128.967 20.512C129.489 20.1813 130.092 20.016 130.775 20.016C131.425 20.016 131.991 20.176 132.471 20.496C132.961 20.816 133.292 21.2373 133.463 21.76H133.287V17.6C133.287 17.2693 133.372 17.0187 133.543 16.848C133.713 16.6773 133.959 16.592 134.279 16.592C134.599 16.592 134.844 16.6773 135.015 16.848C135.196 17.0187 135.287 17.2693 135.287 17.6V27.104C135.287 27.4347 135.201 27.6907 135.031 27.872C134.86 28.0427 134.615 28.128 134.295 28.128C133.975 28.128 133.729 28.0427 133.559 27.872C133.388 27.6907 133.303 27.4347 133.303 27.104V25.856L133.479 26.336C133.319 26.8907 132.993 27.3333 132.503 27.664C132.012 27.9947 131.436 28.16 130.775 28.16ZM131.335 26.64C131.729 26.64 132.076 26.544 132.375 26.352C132.673 26.16 132.903 25.8773 133.063 25.504C133.233 25.12 133.319 24.6453 133.319 24.08C133.319 23.2267 133.137 22.592 132.775 22.176C132.412 21.7493 131.932 21.536 131.335 21.536C130.94 21.536 130.593 21.632 130.295 21.824C129.996 22.0053 129.761 22.288 129.591 22.672C129.431 23.0453 129.351 23.5147 129.351 24.08C129.351 24.9227 129.532 25.5627 129.895 26C130.257 26.4267 130.737 26.64 131.335 26.64ZM142.152 22.512C141.928 22.512 141.752 22.4533 141.624 22.336C141.496 22.208 141.432 22.032 141.432 21.808C141.432 21.584 141.496 21.4133 141.624 21.296C141.752 21.168 141.928 21.104 142.152 21.104H148.776C149.011 21.104 149.187 21.168 149.304 21.296C149.432 21.4133 149.496 21.584 149.496 21.808C149.496 22.032 149.432 22.208 149.304 22.336C149.187 22.4533 149.011 22.512 148.776 22.512H142.152ZM142.152 25.696C141.928 25.696 141.752 25.6373 141.624 25.52C141.496 25.392 141.432 25.216 141.432 24.992C141.432 24.768 141.496 24.5973 141.624 24.48C141.752 24.3627 141.928 24.304 142.152 24.304H148.776C149.011 24.304 149.187 24.3627 149.304 24.48C149.432 24.5973 149.496 24.768 149.496 24.992C149.496 25.2267 149.432 25.4027 149.304 25.52C149.187 25.6373 149.011 25.696 148.776 25.696H142.152Z" fill="white"/>
<rect x="160" y="10" width="44" height="28" rx="5" fill="#F6F6F6"/>
</svg>
