<svg width="86" height="36" viewBox="0 0 86 36" fill="none" xmlns="http://www.w3.org/2000/svg">
<rect width="86" height="36" rx="10" fill="#8C69FF"/>
<path d="M27.8576 23.128C27.5269 23.128 27.2709 23.0373 27.0896 22.856C26.9189 22.664 26.8336 22.4027 26.8336 22.072V12.76C26.8336 12.4187 26.9242 12.1627 27.1056 11.992C27.2869 11.8107 27.5429 11.72 27.8736 11.72H31.7296C32.9669 11.72 33.9216 12.0293 34.5936 12.648C35.2656 13.2667 35.6016 14.1307 35.6016 15.24C35.6016 16.3493 35.2656 17.2187 34.5936 17.848C33.9216 18.4667 32.9669 18.776 31.7296 18.776H28.8816V22.072C28.8816 22.4027 28.7962 22.664 28.6256 22.856C28.4549 23.0373 28.1989 23.128 27.8576 23.128ZM28.8816 17.16H31.4096C32.1349 17.16 32.6842 17 33.0576 16.68C33.4309 16.3493 33.6176 15.8693 33.6176 15.24C33.6176 14.6107 33.4309 14.136 33.0576 13.816C32.6842 13.496 32.1349 13.336 31.4096 13.336H28.8816V17.16ZM40.2564 23.16C39.4458 23.16 38.7418 22.9947 38.1444 22.664C37.5471 22.3333 37.0831 21.864 36.7524 21.256C36.4218 20.6373 36.2564 19.912 36.2564 19.08C36.2564 18.4507 36.3471 17.8907 36.5284 17.4C36.7204 16.8987 36.9924 16.472 37.3444 16.12C37.6964 15.7573 38.1178 15.4853 38.6084 15.304C39.0991 15.112 39.6484 15.016 40.2564 15.016C41.0671 15.016 41.7711 15.1813 42.3684 15.512C42.9658 15.8427 43.4298 16.312 43.7604 16.92C44.0911 17.528 44.2564 18.248 44.2564 19.08C44.2564 19.7093 44.1604 20.2747 43.9684 20.776C43.7871 21.2773 43.5204 21.7093 43.1684 22.072C42.8164 22.424 42.3951 22.696 41.9044 22.888C41.4138 23.0693 40.8644 23.16 40.2564 23.16ZM40.2564 21.64C40.6511 21.64 40.9978 21.544 41.2964 21.352C41.5951 21.16 41.8244 20.8773 41.9844 20.504C42.1551 20.12 42.2404 19.6453 42.2404 19.08C42.2404 18.2267 42.0591 17.592 41.6964 17.176C41.3338 16.7493 40.8538 16.536 40.2564 16.536C39.8618 16.536 39.5151 16.632 39.2164 16.824C38.9178 17.0053 38.6831 17.288 38.5124 17.672C38.3524 18.0453 38.2724 18.5147 38.2724 19.08C38.2724 19.9227 38.4538 20.5627 38.8164 21C39.1791 21.4267 39.6591 21.64 40.2564 21.64ZM48.7392 23.16C48.0885 23.16 47.5499 23.0427 47.1232 22.808C46.6965 22.5627 46.3765 22.2 46.1632 21.72C45.9605 21.24 45.8592 20.6427 45.8592 19.928V16.056C45.8592 15.7147 45.9445 15.464 46.1152 15.304C46.2859 15.1333 46.5312 15.048 46.8512 15.048C47.1712 15.048 47.4165 15.1333 47.5872 15.304C47.7685 15.464 47.8592 15.7147 47.8592 16.056V19.96C47.8592 20.5147 47.9712 20.9253 48.1952 21.192C48.4192 21.4587 48.7765 21.592 49.2672 21.592C49.8005 21.592 50.2379 21.4107 50.5792 21.048C50.9205 20.6747 51.0912 20.184 51.0912 19.576V16.056C51.0912 15.7147 51.1765 15.464 51.3472 15.304C51.5179 15.1333 51.7632 15.048 52.0832 15.048C52.4032 15.048 52.6485 15.1333 52.8192 15.304C53.0005 15.464 53.0912 15.7147 53.0912 16.056V22.104C53.0912 22.7867 52.7659 23.128 52.1152 23.128C51.8059 23.128 51.5659 23.0427 51.3952 22.872C51.2245 22.6907 51.1392 22.4347 51.1392 22.104V20.888L51.3632 21.368C51.1392 21.944 50.7979 22.3867 50.3392 22.696C49.8912 23.0053 49.3579 23.16 48.7392 23.16ZM56.1968 23.128C55.8661 23.128 55.6101 23.0427 55.4288 22.872C55.2581 22.6907 55.1728 22.4347 55.1728 22.104V16.056C55.1728 15.7253 55.2581 15.4747 55.4288 15.304C55.5995 15.1333 55.8395 15.048 56.1488 15.048C56.4581 15.048 56.6981 15.1333 56.8688 15.304C57.0395 15.4747 57.1248 15.7253 57.1248 16.056V17.064H56.9648C57.1141 16.424 57.4075 15.9387 57.8448 15.608C58.2821 15.2773 58.8635 15.08 59.5888 15.016C59.8128 14.9947 59.9888 15.0533 60.1168 15.192C60.2555 15.32 60.3355 15.5227 60.3568 15.8C60.3781 16.0667 60.3141 16.2853 60.1648 16.456C60.0261 16.616 59.8128 16.712 59.5248 16.744L59.1728 16.776C58.5221 16.84 58.0315 17.0427 57.7008 17.384C57.3701 17.7147 57.2048 18.184 57.2048 18.792V22.104C57.2048 22.4347 57.1195 22.6907 56.9488 22.872C56.7781 23.0427 56.5275 23.128 56.1968 23.128Z" fill="white"/>
</svg>
