<svg width="83" height="148" viewBox="0 0 83 148" fill="none" xmlns="http://www.w3.org/2000/svg">
<path d="M68.8893 143.636C68.8893 146.04 57.0924 147.989 41.5777 147.989C26.0629 147.989 15.0464 146.04 15.0464 143.636C15.0464 141.232 26.0629 139.284 41.5777 139.284C57.0924 139.284 68.8893 141.232 68.8893 143.636Z" fill="#867272"/>
<path d="M1 33.3696H82.1545L69.145 143.635H14.629L1 33.3696Z" fill="#2AD3F5"/>
<path d="M81.374 34.0303C51.7214 39.8337 19.7279 40.5591 0.999906 34.0303" stroke="#F1EDFF"/>
<path d="M81.374 35.5464C51.7214 41.3498 19.7279 41.3498 0.999901 34.821" stroke="#F1EDFF"/>
<path d="M14.85 143.385L1.2828 33.6196H81.8732L68.9227 143.385H14.85Z" stroke="#444444" stroke-width="0.5"/>
<path d="M81.9045 33.3704C81.9045 33.4361 81.8746 33.5261 81.7634 33.6435C81.6512 33.762 81.4717 33.8911 81.214 34.0262C80.6993 34.2959 79.9244 34.5636 78.9042 34.8223C76.868 35.3387 73.9104 35.8062 70.243 36.1996C62.9113 36.986 52.7763 37.473 41.5772 37.473C30.3781 37.473 20.2432 36.986 12.9115 36.1996C9.24402 35.8062 6.2865 35.3387 4.25022 34.8223C3.23007 34.5636 2.45512 34.2959 1.94045 34.0262C1.68277 33.8911 1.50322 33.762 1.39104 33.6435C1.27987 33.5261 1.25 33.4361 1.25 33.3704C1.25 33.3047 1.27987 33.2147 1.39104 33.0972C1.50322 32.9788 1.68277 32.8497 1.94045 32.7146C2.45512 32.4448 3.23007 32.1772 4.25022 31.9185C6.2865 31.4021 9.24402 30.9346 12.9115 30.5412C20.2432 29.7548 30.3781 29.2678 41.5772 29.2678C52.7763 29.2678 62.9113 29.7548 70.243 30.5412C73.9104 30.9346 76.868 31.4021 78.9042 31.9185C79.9244 32.1772 80.6993 32.4448 81.214 32.7146C81.4717 32.8497 81.6512 32.9788 81.7634 33.0972C81.8746 33.2147 81.9045 33.3047 81.9045 33.3704Z" fill="#F1EDFF" stroke="#444444" stroke-width="0.5"/>
</svg>
