<svg width="146" height="60" viewBox="0 0 146 60" fill="none" xmlns="http://www.w3.org/2000/svg">
<rect x="0.5" width="145" height="60" rx="10" fill="#1A1A1A"/>
<path d="M45.9219 21V26H40.9219" stroke="white" stroke-width="2" stroke-linecap="round" stroke-linejoin="round"/>
<path d="M45.8719 30.9996C45.6504 33.0054 44.7612 34.8786 43.3471 36.3183C41.933 37.758 40.0761 38.6807 38.0746 38.9382C36.0731 39.1956 34.0431 38.773 32.3107 37.7381C30.5782 36.7031 29.2439 35.116 28.5219 33.2316C27.8 31.3471 27.7323 29.2747 28.3297 27.3472C28.9272 25.4196 30.1551 23.7488 31.8163 22.603C33.4775 21.4573 35.4756 20.9031 37.4896 21.0294C39.5037 21.1557 41.4169 21.9552 42.9219 23.2996L45.9219 25.9996" stroke="white" stroke-width="2" stroke-linecap="round" stroke-linejoin="round"/>
<g clip-path="url(#clip0_5989_385)">
<path d="M76.0202 36.056C76.2122 36.344 76.3082 36.624 76.3082 36.896C76.3082 37.264 76.1562 37.568 75.8522 37.808C75.5642 38.048 75.2202 38.168 74.8202 38.168C74.5642 38.168 74.3162 38.112 74.0762 38C73.8522 37.872 73.6602 37.688 73.5002 37.448L70.3082 32.6C69.9882 32.088 69.6442 31.728 69.2762 31.52C68.9242 31.312 68.4602 31.208 67.8842 31.208H65.5322V36.584C65.5322 37.064 65.3962 37.448 65.1242 37.736C64.8522 38.008 64.4842 38.144 64.0202 38.144C63.5562 38.144 63.1802 38.008 62.8922 37.736C62.6202 37.448 62.4842 37.064 62.4842 36.584V22.544C62.4842 22.08 62.6122 21.72 62.8682 21.464C63.1402 21.208 63.5082 21.08 63.9722 21.08H69.9722C71.8922 21.08 73.3482 21.512 74.3402 22.376C75.3482 23.224 75.8522 24.456 75.8522 26.072C75.8522 27.384 75.4762 28.464 74.7242 29.312C73.9882 30.144 72.9402 30.68 71.5802 30.92C72.0442 31.032 72.4522 31.232 72.8042 31.52C73.1562 31.808 73.5002 32.208 73.8362 32.72L76.0202 36.056ZM69.5402 28.832C70.7082 28.832 71.5642 28.616 72.1082 28.184C72.6522 27.736 72.9242 27.056 72.9242 26.144C72.9242 25.216 72.6522 24.544 72.1082 24.128C71.5642 23.696 70.7082 23.48 69.5402 23.48H65.5082V28.832H69.5402ZM88.1957 34.784C88.4677 34.784 88.6837 34.888 88.8437 35.096C89.0197 35.304 89.1077 35.584 89.1077 35.936C89.1077 36.432 88.8117 36.848 88.2197 37.184C87.6757 37.488 87.0597 37.736 86.3717 37.928C85.6837 38.104 85.0277 38.192 84.4037 38.192C82.5157 38.192 81.0197 37.648 79.9157 36.56C78.8117 35.472 78.2597 33.984 78.2597 32.096C78.2597 30.896 78.4997 29.832 78.9797 28.904C79.4597 27.976 80.1317 27.256 80.9957 26.744C81.8757 26.232 82.8677 25.976 83.9717 25.976C85.0277 25.976 85.9477 26.208 86.7317 26.672C87.5157 27.136 88.1237 27.792 88.5557 28.64C88.9877 29.488 89.2037 30.488 89.2037 31.64C89.2037 32.328 88.8997 32.672 88.2917 32.672H81.2117C81.3077 33.776 81.6197 34.592 82.1477 35.12C82.6757 35.632 83.4437 35.888 84.4517 35.888C84.9637 35.888 85.4117 35.824 85.7957 35.696C86.1957 35.568 86.6437 35.392 87.1397 35.168C87.6197 34.912 87.9717 34.784 88.1957 34.784ZM84.0437 28.088C83.2277 28.088 82.5717 28.344 82.0757 28.856C81.5957 29.368 81.3077 30.104 81.2117 31.064H86.6357C86.6037 30.088 86.3637 29.352 85.9157 28.856C85.4677 28.344 84.8437 28.088 84.0437 28.088ZM97.5896 35.912C98.3896 35.96 98.7896 36.32 98.7896 36.992C98.7896 37.376 98.6296 37.672 98.3096 37.88C98.0056 38.072 97.5656 38.152 96.9896 38.12L96.3416 38.072C93.6536 37.88 92.3096 36.44 92.3096 33.752V28.52H91.1096C90.6776 28.52 90.3416 28.424 90.1016 28.232C89.8776 28.04 89.7656 27.76 89.7656 27.392C89.7656 27.024 89.8776 26.744 90.1016 26.552C90.3416 26.36 90.6776 26.264 91.1096 26.264H92.3096V24.056C92.3096 23.624 92.4456 23.28 92.7176 23.024C92.9896 22.768 93.3576 22.64 93.8216 22.64C94.2696 22.64 94.6296 22.768 94.9016 23.024C95.1736 23.28 95.3096 23.624 95.3096 24.056V26.264H97.3496C97.7816 26.264 98.1096 26.36 98.3336 26.552C98.5736 26.744 98.6936 27.024 98.6936 27.392C98.6936 27.76 98.5736 28.04 98.3336 28.232C98.1096 28.424 97.7816 28.52 97.3496 28.52H95.3096V33.968C95.3096 35.152 95.8536 35.784 96.9416 35.864L97.5896 35.912ZM106.905 26.024C107.321 25.992 107.649 26.08 107.889 26.288C108.129 26.496 108.249 26.808 108.249 27.224C108.249 27.656 108.145 27.976 107.937 28.184C107.729 28.392 107.353 28.528 106.809 28.592L106.089 28.664C105.145 28.76 104.449 29.08 104.001 29.624C103.569 30.168 103.353 30.848 103.353 31.664V36.704C103.353 37.168 103.209 37.528 102.921 37.784C102.633 38.024 102.273 38.144 101.841 38.144C101.409 38.144 101.049 38.024 100.761 37.784C100.489 37.528 100.353 37.168 100.353 36.704V27.416C100.353 26.968 100.489 26.624 100.761 26.384C101.049 26.144 101.401 26.024 101.817 26.024C102.233 26.024 102.569 26.144 102.825 26.384C103.081 26.608 103.209 26.936 103.209 27.368V28.328C103.513 27.624 103.961 27.08 104.553 26.696C105.161 26.312 105.833 26.096 106.569 26.048L106.905 26.024ZM118.451 26.888C118.579 26.6 118.747 26.392 118.955 26.264C119.179 26.12 119.419 26.048 119.675 26.048C120.043 26.048 120.371 26.176 120.659 26.432C120.963 26.672 121.115 26.976 121.115 27.344C121.115 27.52 121.067 27.704 120.971 27.896L114.419 41.624C114.147 42.168 113.723 42.44 113.147 42.44C112.779 42.44 112.451 42.32 112.163 42.08C111.891 41.856 111.755 41.568 111.755 41.216C111.755 41.04 111.803 40.84 111.899 40.616L113.531 37.184L109.067 27.896C108.987 27.736 108.947 27.552 108.947 27.344C108.947 26.976 109.099 26.664 109.403 26.408C109.723 26.152 110.083 26.024 110.483 26.024C110.755 26.024 111.003 26.096 111.227 26.24C111.451 26.368 111.627 26.576 111.755 26.864L115.115 34.28L118.451 26.888Z" fill="white"/>
</g>
<defs>
<clipPath id="clip0_5989_385">
<rect width="61" height="28" fill="white" transform="translate(60.5 16)"/>
</clipPath>
</defs>
</svg>
