<svg width="21" height="17" viewBox="0 0 21 17" fill="none" xmlns="http://www.w3.org/2000/svg">
<path d="M20.2844 13.3041C20.4252 13.4463 20.5042 13.6383 20.5042 13.8385C20.5042 14.0386 20.4252 14.2307 20.2844 14.3728L18.0344 16.6228C17.891 16.7615 17.6994 16.8389 17.5 16.8389C17.3006 16.8389 17.109 16.7615 16.9656 16.6228C16.8248 16.4807 16.7458 16.2886 16.7458 16.0885C16.7458 15.8883 16.8248 15.6963 16.9656 15.5541L17.9406 14.5885H16.8344C15.7596 14.5866 14.7008 14.3288 13.7455 13.8365C12.7902 13.3441 11.9658 12.6314 11.3406 11.7572L7.43125 6.2916C6.94613 5.61218 6.30623 5.05801 5.56449 4.67491C4.82274 4.29181 4.00046 4.09079 3.16562 4.08847H1C0.801088 4.08847 0.610322 4.00945 0.46967 3.8688C0.329018 3.72815 0.25 3.53738 0.25 3.33847C0.25 3.13956 0.329018 2.94879 0.46967 2.80814C0.610322 2.66749 0.801088 2.58847 1 2.58847H3.16562C4.24035 2.59036 5.29918 2.84814 6.2545 3.34047C7.20983 3.83281 8.03419 4.54555 8.65937 5.41972L12.5687 10.8853C13.0539 11.5648 13.6938 12.1189 14.4355 12.502C15.1773 12.8851 15.9995 13.0862 16.8344 13.0885H17.9406L16.9656 12.1228C16.846 11.9771 16.7849 11.7921 16.7942 11.6038C16.8034 11.4155 16.8824 11.2374 17.0157 11.1041C17.149 10.9708 17.3271 10.8919 17.5154 10.8826C17.7037 10.8734 17.8887 10.9345 18.0344 11.0541L20.2844 13.3041ZM11.4062 6.61972C11.4867 6.67737 11.5779 6.7185 11.6743 6.74076C11.7708 6.76301 11.8707 6.76594 11.9684 6.74938C12.066 6.73283 12.1593 6.6971 12.2431 6.64427C12.3268 6.59145 12.3993 6.52256 12.4562 6.4416L12.5687 6.2916C13.0539 5.61218 13.6938 5.05801 14.4355 4.67491C15.1773 4.29181 15.9995 4.09079 16.8344 4.08847H17.9406L16.9656 5.0541C16.8248 5.19629 16.7458 5.38834 16.7458 5.58847C16.7458 5.78861 16.8248 5.98065 16.9656 6.12285C17.109 6.26146 17.3006 6.33895 17.5 6.33895C17.6994 6.33895 17.891 6.26146 18.0344 6.12285L20.2844 3.87285C20.4252 3.73065 20.5042 3.53861 20.5042 3.33847C20.5042 3.13834 20.4252 2.94629 20.2844 2.8041L18.0344 0.554097C17.8887 0.4345 17.7037 0.373381 17.5154 0.382629C17.3271 0.391876 17.149 0.470829 17.0157 0.60413C16.8824 0.737431 16.8034 0.915549 16.7942 1.10384C16.7849 1.29213 16.846 1.47713 16.9656 1.62285L17.9406 2.58847H16.8344C15.7596 2.59036 14.7008 2.84814 13.7455 3.34047C12.7902 3.83281 11.9658 4.54555 11.3406 5.41972L11.2375 5.56972C11.1794 5.64965 11.1376 5.74028 11.1147 5.8364C11.0917 5.93252 11.0879 6.03223 11.1036 6.1298C11.1193 6.22738 11.1541 6.32089 11.206 6.40497C11.258 6.48905 11.326 6.56203 11.4062 6.61972ZM8.59375 10.5572C8.51325 10.4996 8.42214 10.4584 8.32566 10.4362C8.22919 10.4139 8.12926 10.411 8.03164 10.4276C7.93403 10.4441 7.84066 10.4798 7.75692 10.5327C7.67318 10.5855 7.60073 10.6544 7.54375 10.7353L7.43125 10.8853C6.94613 11.5648 6.30623 12.1189 5.56449 12.502C4.82274 12.8851 4.00046 13.0862 3.16562 13.0885H1C0.801088 13.0885 0.610322 13.1675 0.46967 13.3081C0.329018 13.4488 0.25 13.6396 0.25 13.8385C0.25 14.0374 0.329018 14.2282 0.46967 14.3688C0.610322 14.5095 0.801088 14.5885 1 14.5885H3.16562C4.24035 14.5866 5.29918 14.3288 6.2545 13.8365C7.20983 13.3441 8.03419 12.6314 8.65937 11.7572L8.7625 11.6072C8.82062 11.5273 8.86237 11.4367 8.88535 11.3405C8.90833 11.2444 8.91209 11.1447 8.8964 11.0471C8.88072 10.9496 8.84591 10.8561 8.79397 10.772C8.74203 10.6879 8.67399 10.6149 8.59375 10.5572Z" fill="#212121"/>
</svg>
