<svg width="153" height="144" viewBox="0 0 153 144" fill="none" xmlns="http://www.w3.org/2000/svg">
<g filter="url(#filter0_i_1634_2982)">
<rect width="153" height="144" rx="12" fill="white"/>
<rect x="0.5" y="0.5" width="152" height="143" rx="11.5" stroke="#C7C7C7"/>
</g>
<circle cx="77" cy="72" r="55.5" fill="#F6F6F6" stroke="#444444"/>
<path d="M21.6464 72.6464C21.4512 72.8417 21.4512 73.1583 21.6464 73.3536L24.8284 76.5355C25.0237 76.7308 25.3403 76.7308 25.5355 76.5355C25.7308 76.3403 25.7308 76.0237 25.5355 75.8284L22.7071 73L25.5355 70.1716C25.7308 69.9763 25.7308 69.6597 25.5355 69.4645C25.3403 69.2692 25.0237 69.2692 24.8284 69.4645L21.6464 72.6464ZM132.354 73.3536C132.549 73.1583 132.549 72.8417 132.354 72.6465L129.172 69.4645C128.976 69.2692 128.66 69.2692 128.464 69.4645C128.269 69.6597 128.269 69.9763 128.464 70.1716L131.293 73L128.464 75.8284C128.269 76.0237 128.269 76.3403 128.464 76.5355C128.66 76.7308 128.976 76.7308 129.172 76.5355L132.354 73.3536ZM22 73.5L132 73.5L132 72.5L22 72.5L22 73.5Z" fill="black"/>
<path d="M72.2181 67C71.9248 67 71.6981 66.9267 71.5381 66.78C71.3915 66.62 71.3181 66.3933 71.3181 66.1V53.8C71.3181 53.5067 71.3915 53.2867 71.5381 53.14C71.6981 52.98 71.9248 52.9 72.2181 52.9H76.0781C78.3581 52.9 80.1181 53.5 81.3581 54.7C82.5981 55.9 83.2181 57.6467 83.2181 59.94C83.2181 61.0867 83.0581 62.1 82.7381 62.98C82.4315 63.8467 81.9715 64.58 81.3581 65.18C80.7448 65.78 79.9981 66.2333 79.1181 66.54C78.2381 66.8467 77.2248 67 76.0781 67H72.2181ZM72.9581 65.6H75.9581C76.8915 65.6 77.6981 65.48 78.3781 65.24C79.0715 65 79.6448 64.6467 80.0981 64.18C80.5648 63.7133 80.9115 63.1267 81.1381 62.42C81.3648 61.7 81.4781 60.8733 81.4781 59.94C81.4781 58.06 81.0181 56.6533 80.0981 55.72C79.1781 54.7733 77.7981 54.3 75.9581 54.3H72.9581V65.6Z" fill="#444444"/>
<path d="M57.2736 90.144C56.6549 90.144 56.0309 90.0533 55.4016 89.872C54.7829 89.6907 54.2442 89.424 53.7856 89.072C53.6469 88.976 53.5562 88.8693 53.5136 88.752C53.4709 88.624 53.4602 88.5067 53.4816 88.4C53.5136 88.2827 53.5722 88.1867 53.6576 88.112C53.7429 88.0267 53.8442 87.9787 53.9616 87.968C54.0896 87.9573 54.2282 88 54.3776 88.096C54.8469 88.4053 55.3162 88.6293 55.7856 88.768C56.2549 88.9067 56.7402 88.976 57.2416 88.976C57.7856 88.976 58.2442 88.896 58.6176 88.736C58.9909 88.576 59.2736 88.3413 59.4656 88.032C59.6576 87.712 59.7536 87.3227 59.7536 86.864C59.7536 86.2027 59.5349 85.7013 59.0976 85.36C58.6602 85.0187 58.0256 84.848 57.1936 84.848H56.0576C55.8549 84.848 55.7002 84.8 55.5936 84.704C55.4869 84.5973 55.4336 84.4533 55.4336 84.272C55.4336 84.1013 55.4869 83.968 55.5936 83.872C55.7002 83.7653 55.8549 83.712 56.0576 83.712H57.0816C57.5722 83.712 57.9882 83.6267 58.3296 83.456C58.6816 83.2853 58.9536 83.0453 59.1456 82.736C59.3376 82.416 59.4336 82.032 59.4336 81.584C59.4336 80.9867 59.2416 80.5333 58.8576 80.224C58.4736 79.904 57.9189 79.744 57.1936 79.744C56.7136 79.744 56.2602 79.8133 55.8336 79.952C55.4069 80.0907 54.9856 80.3253 54.5696 80.656C54.4416 80.752 54.3136 80.8 54.1856 80.8C54.0682 80.7893 53.9669 80.752 53.8816 80.688C53.8069 80.6133 53.7482 80.5173 53.7056 80.4C53.6736 80.2827 53.6789 80.1653 53.7216 80.048C53.7642 79.92 53.8549 79.8027 53.9936 79.696C54.4202 79.3333 54.9216 79.056 55.4976 78.864C56.0736 78.672 56.6656 78.576 57.2736 78.576C57.9989 78.576 58.6176 78.6933 59.1296 78.928C59.6522 79.152 60.0522 79.4827 60.3296 79.92C60.6069 80.3467 60.7456 80.864 60.7456 81.472C60.7456 81.9307 60.6549 82.352 60.4736 82.736C60.3029 83.1093 60.0576 83.4293 59.7376 83.696C59.4282 83.9627 59.0496 84.1547 58.6016 84.272V84.096C59.3802 84.224 59.9829 84.544 60.4096 85.056C60.8469 85.5573 61.0656 86.192 61.0656 86.96C61.0656 87.6107 60.9109 88.176 60.6016 88.656C60.3029 89.1253 59.8709 89.4933 59.3056 89.76C58.7402 90.016 58.0629 90.144 57.2736 90.144ZM70.2883 90.144C69.659 90.144 69.1363 90.032 68.7203 89.808C68.315 89.5733 68.0056 89.2267 67.7923 88.768C67.5896 88.3093 67.4883 87.7387 67.4883 87.056V82.768C67.4883 82.544 67.5416 82.3787 67.6483 82.272C67.7656 82.1653 67.9256 82.112 68.1283 82.112C68.3416 82.112 68.5016 82.1653 68.6083 82.272C68.7256 82.3787 68.7843 82.544 68.7843 82.768V87.04C68.7843 87.7227 68.923 88.2347 69.2003 88.576C69.4883 88.9067 69.9363 89.072 70.5443 89.072C71.2056 89.072 71.7443 88.848 72.1603 88.4C72.5763 87.952 72.7843 87.3653 72.7843 86.64V82.768C72.7843 82.544 72.8376 82.3787 72.9443 82.272C73.0616 82.1653 73.227 82.112 73.4403 82.112C73.643 82.112 73.7976 82.1653 73.9043 82.272C74.0216 82.3787 74.0803 82.544 74.0803 82.768V89.44C74.0803 89.888 73.8723 90.112 73.4563 90.112C73.2536 90.112 73.0936 90.0533 72.9763 89.936C72.8696 89.8187 72.8163 89.6533 72.8163 89.44V87.984L73.0243 88.208C72.811 88.8373 72.459 89.3173 71.9683 89.648C71.4883 89.9787 70.9283 90.144 70.2883 90.144ZM77.1451 90.112C76.9317 90.112 76.7717 90.0533 76.6651 89.936C76.5584 89.8187 76.5051 89.6533 76.5051 89.44V82.768C76.5051 82.5547 76.5584 82.3947 76.6651 82.288C76.7717 82.1707 76.9264 82.112 77.1291 82.112C77.3317 82.112 77.4864 82.1707 77.5931 82.288C77.7104 82.3947 77.7691 82.5547 77.7691 82.768V84.144L77.5931 83.952C77.8171 83.3333 78.1797 82.8693 78.6811 82.56C79.1931 82.24 79.7797 82.08 80.4411 82.08C81.0597 82.08 81.5717 82.192 81.9771 82.416C82.3931 82.64 82.7024 82.9813 82.9051 83.44C83.1077 83.888 83.2091 84.4587 83.2091 85.152V89.44C83.2091 89.6533 83.1504 89.8187 83.0331 89.936C82.9264 90.0533 82.7717 90.112 82.5691 90.112C82.3557 90.112 82.1904 90.0533 82.0731 89.936C81.9664 89.8187 81.9131 89.6533 81.9131 89.44V85.232C81.9131 84.5067 81.7691 83.9787 81.4811 83.648C81.2037 83.3067 80.7557 83.136 80.1371 83.136C79.4224 83.136 78.8517 83.36 78.4251 83.808C78.0091 84.2453 77.8011 84.832 77.8011 85.568V89.44C77.8011 89.888 77.5824 90.112 77.1451 90.112ZM86.2388 90.08C86.0255 90.08 85.8655 90.0213 85.7588 89.904C85.6521 89.776 85.5988 89.6 85.5988 89.376V82.832C85.5988 82.608 85.6521 82.4373 85.7588 82.32C85.8655 82.2027 86.0255 82.144 86.2388 82.144C86.4415 82.144 86.6015 82.2027 86.7188 82.32C86.8361 82.4373 86.8948 82.608 86.8948 82.832V89.376C86.8948 89.6 86.8361 89.776 86.7188 89.904C86.6121 90.0213 86.4521 90.08 86.2388 90.08ZM86.2388 80.352C85.9721 80.352 85.7641 80.2827 85.6148 80.144C85.4655 79.9947 85.3908 79.7973 85.3908 79.552C85.3908 79.296 85.4655 79.104 85.6148 78.976C85.7641 78.8373 85.9721 78.768 86.2388 78.768C86.5161 78.768 86.7241 78.8373 86.8628 78.976C87.0121 79.104 87.0868 79.296 87.0868 79.552C87.0868 79.7973 87.0121 79.9947 86.8628 80.144C86.7241 80.2827 86.5161 80.352 86.2388 80.352ZM92.4376 90.144C91.8296 90.144 91.3176 90.0373 90.9016 89.824C90.4962 89.6 90.1922 89.28 89.9896 88.864C89.7869 88.4373 89.6856 87.92 89.6856 87.312V83.232H88.6136C88.4322 83.232 88.2936 83.1893 88.1976 83.104C88.1016 83.008 88.0536 82.88 88.0536 82.72C88.0536 82.56 88.1016 82.4373 88.1976 82.352C88.2936 82.2667 88.4322 82.224 88.6136 82.224H89.6856V80.384C89.6856 80.1707 89.7442 80.0107 89.8616 79.904C89.9789 79.7867 90.1389 79.728 90.3416 79.728C90.5442 79.728 90.6989 79.7867 90.8056 79.904C90.9229 80.0107 90.9816 80.1707 90.9816 80.384V82.224H92.9976C93.1789 82.224 93.3176 82.2667 93.4136 82.352C93.5096 82.4373 93.5576 82.56 93.5576 82.72C93.5576 82.88 93.5096 83.008 93.4136 83.104C93.3176 83.1893 93.1789 83.232 92.9976 83.232H90.9816V87.184C90.9816 87.792 91.1096 88.256 91.3656 88.576C91.6216 88.8853 92.0376 89.04 92.6136 89.04C92.8162 89.04 92.9869 89.0187 93.1256 88.976C93.2749 88.9333 93.3976 88.912 93.4936 88.912C93.5896 88.9013 93.6696 88.9333 93.7336 89.008C93.7976 89.0827 93.8296 89.2107 93.8296 89.392C93.8296 89.52 93.8029 89.6373 93.7496 89.744C93.7069 89.8507 93.6269 89.9253 93.5096 89.968C93.3816 90.0107 93.2109 90.048 92.9976 90.08C92.7949 90.1227 92.6082 90.144 92.4376 90.144ZM97.5353 90.144C97.0553 90.144 96.57 90.0853 96.0793 89.968C95.5993 89.8507 95.1513 89.648 94.7353 89.36C94.6286 89.2853 94.554 89.2 94.5113 89.104C94.4686 88.9973 94.4526 88.896 94.4633 88.8C94.4846 88.6933 94.5273 88.6027 94.5913 88.528C94.666 88.4533 94.7513 88.4107 94.8473 88.4C94.954 88.3787 95.0713 88.4 95.1993 88.464C95.6153 88.72 96.0153 88.9013 96.3993 89.008C96.794 89.104 97.1833 89.152 97.5673 89.152C98.1753 89.152 98.634 89.04 98.9433 88.816C99.2526 88.592 99.4073 88.288 99.4073 87.904C99.4073 87.6053 99.306 87.3707 99.1033 87.2C98.9006 87.0187 98.5806 86.88 98.1433 86.784L96.6873 86.464C96.0153 86.3253 95.514 86.0853 95.1833 85.744C94.8633 85.4027 94.7033 84.96 94.7033 84.416C94.7033 83.936 94.826 83.5253 95.0713 83.184C95.3273 82.832 95.6846 82.56 96.1433 82.368C96.602 82.176 97.1353 82.08 97.7433 82.08C98.2126 82.08 98.6553 82.144 99.0713 82.272C99.498 82.3893 99.882 82.5813 100.223 82.848C100.33 82.9227 100.399 83.0133 100.431 83.12C100.474 83.216 100.479 83.3173 100.447 83.424C100.426 83.52 100.378 83.6053 100.303 83.68C100.229 83.744 100.138 83.7813 100.031 83.792C99.9246 83.8027 99.8126 83.7707 99.6953 83.696C99.3753 83.4827 99.05 83.328 98.7193 83.232C98.3886 83.1253 98.0633 83.072 97.7433 83.072C97.146 83.072 96.6926 83.1893 96.3833 83.424C96.074 83.6587 95.9193 83.968 95.9193 84.352C95.9193 84.6507 96.0153 84.896 96.2073 85.088C96.3993 85.28 96.698 85.4187 97.1033 85.504L98.5593 85.808C99.2526 85.9573 99.77 86.1973 100.111 86.528C100.463 86.848 100.639 87.2853 100.639 87.84C100.639 88.544 100.357 89.104 99.7913 89.52C99.226 89.936 98.474 90.144 97.5353 90.144Z" fill="#444444"/>
<defs>
<filter id="filter0_i_1634_2982" x="0" y="0" width="153" height="144" filterUnits="userSpaceOnUse" color-interpolation-filters="sRGB">
<feFlood flood-opacity="0" result="BackgroundImageFix"/>
<feBlend mode="normal" in="SourceGraphic" in2="BackgroundImageFix" result="shape"/>
<feColorMatrix in="SourceAlpha" type="matrix" values="0 0 0 0 0 0 0 0 0 0 0 0 0 0 0 0 0 0 127 0" result="hardAlpha"/>
<feOffset dy="-4"/>
<feComposite in2="hardAlpha" operator="arithmetic" k2="-1" k3="1"/>
<feColorMatrix type="matrix" values="0 0 0 0 0.780392 0 0 0 0 0.780392 0 0 0 0 0.780392 0 0 0 1 0"/>
<feBlend mode="normal" in2="shape" result="effect1_innerShadow_1634_2982"/>
</filter>
</defs>
</svg>
