<svg width="153" height="144" viewBox="0 0 153 144" fill="none" xmlns="http://www.w3.org/2000/svg">
<g filter="url(#filter0_i_1634_2999)">
<rect width="153" height="144" rx="12" fill="white"/>
<rect x="0.5" y="0.5" width="152" height="143" rx="11.5" stroke="#C7C7C7"/>
</g>
<circle cx="77" cy="72" r="45.5" fill="#F6F6F6" stroke="#444444"/>
<path d="M31.6464 72.6464C31.4512 72.8417 31.4512 73.1583 31.6464 73.3536L34.8284 76.5355C35.0237 76.7308 35.3403 76.7308 35.5355 76.5355C35.7308 76.3403 35.7308 76.0237 35.5355 75.8284L32.7071 73L35.5355 70.1716C35.7308 69.9763 35.7308 69.6597 35.5355 69.4645C35.3403 69.2692 35.0237 69.2692 34.8284 69.4645L31.6464 72.6464ZM122.354 73.3536C122.549 73.1583 122.549 72.8417 122.354 72.6464L119.172 69.4645C118.976 69.2692 118.66 69.2692 118.464 69.4645C118.269 69.6597 118.269 69.9763 118.464 70.1716L121.293 73L118.464 75.8284C118.269 76.0237 118.269 76.3403 118.464 76.5355C118.66 76.7308 118.976 76.7308 119.172 76.5355L122.354 73.3536ZM32 73.5L122 73.5V72.5L32 72.5V73.5Z" fill="black"/>
<path d="M71.2181 67C70.9248 67 70.6981 66.9267 70.5381 66.78C70.3915 66.62 70.3181 66.3933 70.3181 66.1V53.8C70.3181 53.5067 70.3915 53.2867 70.5381 53.14C70.6981 52.98 70.9248 52.9 71.2181 52.9H75.0781C77.3581 52.9 79.1181 53.5 80.3581 54.7C81.5981 55.9 82.2181 57.6467 82.2181 59.94C82.2181 61.0867 82.0581 62.1 81.7381 62.98C81.4315 63.8467 80.9715 64.58 80.3581 65.18C79.7448 65.78 78.9981 66.2333 78.1181 66.54C77.2381 66.8467 76.2248 67 75.0781 67H71.2181ZM71.9581 65.6H74.9581C75.8915 65.6 76.6981 65.48 77.3781 65.24C78.0715 65 78.6448 64.6467 79.0981 64.18C79.5648 63.7133 79.9115 63.1267 80.1381 62.42C80.3648 61.7 80.4781 60.8733 80.4781 59.94C80.4781 58.06 80.0181 56.6533 79.0981 55.72C78.1781 54.7733 76.7981 54.3 74.9581 54.3H71.9581V65.6Z" fill="#444444"/>
<path d="M53.6656 90C53.4309 90 53.2549 89.9467 53.1376 89.84C53.0309 89.7227 52.9776 89.568 52.9776 89.376C52.9776 89.2587 53.0042 89.1467 53.0576 89.04C53.1216 88.9227 53.2069 88.8053 53.3136 88.688L56.8976 84.848C57.4416 84.2613 57.8309 83.7227 58.0656 83.232C58.3109 82.7307 58.4336 82.224 58.4336 81.712C58.4336 81.072 58.2362 80.5867 57.8416 80.256C57.4576 79.9147 56.8922 79.744 56.1456 79.744C55.6656 79.744 55.2122 79.8187 54.7856 79.968C54.3589 80.1173 53.9482 80.3467 53.5536 80.656C53.4149 80.7627 53.2869 80.8107 53.1696 80.8C53.0629 80.7893 52.9669 80.7467 52.8816 80.672C52.7962 80.5973 52.7376 80.5013 52.7056 80.384C52.6736 80.2667 52.6736 80.1493 52.7056 80.032C52.7482 79.9147 52.8336 79.808 52.9616 79.712C53.3776 79.3707 53.8789 79.0987 54.4656 78.896C55.0522 78.6827 55.6496 78.576 56.2576 78.576C57.0149 78.576 57.6549 78.6933 58.1776 78.928C58.7002 79.1627 59.0949 79.5093 59.3616 79.968C59.6282 80.416 59.7616 80.9653 59.7616 81.616C59.7616 82.064 59.6869 82.5067 59.5376 82.944C59.3989 83.3707 59.1802 83.808 58.8816 84.256C58.5936 84.704 58.2149 85.168 57.7456 85.648L54.3376 89.248V88.88H59.7296C59.9322 88.88 60.0816 88.928 60.1776 89.024C60.2842 89.1093 60.3376 89.2427 60.3376 89.424C60.3376 89.616 60.2842 89.76 60.1776 89.856C60.0816 89.952 59.9322 90 59.7296 90H53.6656ZM69.2883 90.144C68.659 90.144 68.1363 90.032 67.7203 89.808C67.315 89.5733 67.0056 89.2267 66.7923 88.768C66.5896 88.3093 66.4883 87.7387 66.4883 87.056V82.768C66.4883 82.544 66.5416 82.3787 66.6483 82.272C66.7656 82.1653 66.9256 82.112 67.1283 82.112C67.3416 82.112 67.5016 82.1653 67.6083 82.272C67.7256 82.3787 67.7843 82.544 67.7843 82.768V87.04C67.7843 87.7227 67.923 88.2347 68.2003 88.576C68.4883 88.9067 68.9363 89.072 69.5443 89.072C70.2056 89.072 70.7443 88.848 71.1603 88.4C71.5763 87.952 71.7843 87.3653 71.7843 86.64V82.768C71.7843 82.544 71.8376 82.3787 71.9443 82.272C72.0616 82.1653 72.227 82.112 72.4403 82.112C72.643 82.112 72.7976 82.1653 72.9043 82.272C73.0216 82.3787 73.0803 82.544 73.0803 82.768V89.44C73.0803 89.888 72.8723 90.112 72.4563 90.112C72.2536 90.112 72.0936 90.0533 71.9763 89.936C71.8696 89.8187 71.8163 89.6533 71.8163 89.44V87.984L72.0243 88.208C71.811 88.8373 71.459 89.3173 70.9683 89.648C70.4883 89.9787 69.9283 90.144 69.2883 90.144ZM76.1451 90.112C75.9317 90.112 75.7717 90.0533 75.6651 89.936C75.5584 89.8187 75.5051 89.6533 75.5051 89.44V82.768C75.5051 82.5547 75.5584 82.3947 75.6651 82.288C75.7717 82.1707 75.9264 82.112 76.1291 82.112C76.3317 82.112 76.4864 82.1707 76.5931 82.288C76.7104 82.3947 76.7691 82.5547 76.7691 82.768V84.144L76.5931 83.952C76.8171 83.3333 77.1797 82.8693 77.6811 82.56C78.1931 82.24 78.7797 82.08 79.4411 82.08C80.0597 82.08 80.5717 82.192 80.9771 82.416C81.3931 82.64 81.7024 82.9813 81.9051 83.44C82.1077 83.888 82.2091 84.4587 82.2091 85.152V89.44C82.2091 89.6533 82.1504 89.8187 82.0331 89.936C81.9264 90.0533 81.7717 90.112 81.5691 90.112C81.3557 90.112 81.1904 90.0533 81.0731 89.936C80.9664 89.8187 80.9131 89.6533 80.9131 89.44V85.232C80.9131 84.5067 80.7691 83.9787 80.4811 83.648C80.2037 83.3067 79.7557 83.136 79.1371 83.136C78.4224 83.136 77.8517 83.36 77.4251 83.808C77.0091 84.2453 76.8011 84.832 76.8011 85.568V89.44C76.8011 89.888 76.5824 90.112 76.1451 90.112ZM85.2388 90.08C85.0255 90.08 84.8655 90.0213 84.7588 89.904C84.6521 89.776 84.5988 89.6 84.5988 89.376V82.832C84.5988 82.608 84.6521 82.4373 84.7588 82.32C84.8655 82.2027 85.0255 82.144 85.2388 82.144C85.4415 82.144 85.6015 82.2027 85.7188 82.32C85.8361 82.4373 85.8948 82.608 85.8948 82.832V89.376C85.8948 89.6 85.8361 89.776 85.7188 89.904C85.6121 90.0213 85.4521 90.08 85.2388 90.08ZM85.2388 80.352C84.9721 80.352 84.7641 80.2827 84.6148 80.144C84.4655 79.9947 84.3908 79.7973 84.3908 79.552C84.3908 79.296 84.4655 79.104 84.6148 78.976C84.7641 78.8373 84.9721 78.768 85.2388 78.768C85.5161 78.768 85.7241 78.8373 85.8628 78.976C86.0121 79.104 86.0868 79.296 86.0868 79.552C86.0868 79.7973 86.0121 79.9947 85.8628 80.144C85.7241 80.2827 85.5161 80.352 85.2388 80.352ZM91.4376 90.144C90.8296 90.144 90.3176 90.0373 89.9016 89.824C89.4962 89.6 89.1922 89.28 88.9896 88.864C88.7869 88.4373 88.6856 87.92 88.6856 87.312V83.232H87.6136C87.4322 83.232 87.2936 83.1893 87.1976 83.104C87.1016 83.008 87.0536 82.88 87.0536 82.72C87.0536 82.56 87.1016 82.4373 87.1976 82.352C87.2936 82.2667 87.4322 82.224 87.6136 82.224H88.6856V80.384C88.6856 80.1707 88.7442 80.0107 88.8616 79.904C88.9789 79.7867 89.1389 79.728 89.3416 79.728C89.5442 79.728 89.6989 79.7867 89.8056 79.904C89.9229 80.0107 89.9816 80.1707 89.9816 80.384V82.224H91.9976C92.1789 82.224 92.3176 82.2667 92.4136 82.352C92.5096 82.4373 92.5576 82.56 92.5576 82.72C92.5576 82.88 92.5096 83.008 92.4136 83.104C92.3176 83.1893 92.1789 83.232 91.9976 83.232H89.9816V87.184C89.9816 87.792 90.1096 88.256 90.3656 88.576C90.6216 88.8853 91.0376 89.04 91.6136 89.04C91.8162 89.04 91.9869 89.0187 92.1256 88.976C92.2749 88.9333 92.3976 88.912 92.4936 88.912C92.5896 88.9013 92.6696 88.9333 92.7336 89.008C92.7976 89.0827 92.8296 89.2107 92.8296 89.392C92.8296 89.52 92.8029 89.6373 92.7496 89.744C92.7069 89.8507 92.6269 89.9253 92.5096 89.968C92.3816 90.0107 92.2109 90.048 91.9976 90.08C91.7949 90.1227 91.6082 90.144 91.4376 90.144ZM96.5353 90.144C96.0553 90.144 95.57 90.0853 95.0793 89.968C94.5993 89.8507 94.1513 89.648 93.7353 89.36C93.6286 89.2853 93.554 89.2 93.5113 89.104C93.4686 88.9973 93.4526 88.896 93.4633 88.8C93.4846 88.6933 93.5273 88.6027 93.5913 88.528C93.666 88.4533 93.7513 88.4107 93.8473 88.4C93.954 88.3787 94.0713 88.4 94.1993 88.464C94.6153 88.72 95.0153 88.9013 95.3993 89.008C95.794 89.104 96.1833 89.152 96.5673 89.152C97.1753 89.152 97.634 89.04 97.9433 88.816C98.2526 88.592 98.4073 88.288 98.4073 87.904C98.4073 87.6053 98.306 87.3707 98.1033 87.2C97.9006 87.0187 97.5806 86.88 97.1433 86.784L95.6873 86.464C95.0153 86.3253 94.514 86.0853 94.1833 85.744C93.8633 85.4027 93.7033 84.96 93.7033 84.416C93.7033 83.936 93.826 83.5253 94.0713 83.184C94.3273 82.832 94.6846 82.56 95.1433 82.368C95.602 82.176 96.1353 82.08 96.7433 82.08C97.2126 82.08 97.6553 82.144 98.0713 82.272C98.498 82.3893 98.882 82.5813 99.2233 82.848C99.33 82.9227 99.3993 83.0133 99.4313 83.12C99.474 83.216 99.4793 83.3173 99.4473 83.424C99.426 83.52 99.378 83.6053 99.3033 83.68C99.2286 83.744 99.138 83.7813 99.0313 83.792C98.9246 83.8027 98.8126 83.7707 98.6953 83.696C98.3753 83.4827 98.05 83.328 97.7193 83.232C97.3886 83.1253 97.0633 83.072 96.7433 83.072C96.146 83.072 95.6926 83.1893 95.3833 83.424C95.074 83.6587 94.9193 83.968 94.9193 84.352C94.9193 84.6507 95.0153 84.896 95.2073 85.088C95.3993 85.28 95.698 85.4187 96.1033 85.504L97.5593 85.808C98.2526 85.9573 98.77 86.1973 99.1113 86.528C99.4633 86.848 99.6393 87.2853 99.6393 87.84C99.6393 88.544 99.3566 89.104 98.7913 89.52C98.226 89.936 97.474 90.144 96.5353 90.144Z" fill="#444444"/>
<defs>
<filter id="filter0_i_1634_2999" x="0" y="0" width="153" height="144" filterUnits="userSpaceOnUse" color-interpolation-filters="sRGB">
<feFlood flood-opacity="0" result="BackgroundImageFix"/>
<feBlend mode="normal" in="SourceGraphic" in2="BackgroundImageFix" result="shape"/>
<feColorMatrix in="SourceAlpha" type="matrix" values="0 0 0 0 0 0 0 0 0 0 0 0 0 0 0 0 0 0 127 0" result="hardAlpha"/>
<feOffset dy="-4"/>
<feComposite in2="hardAlpha" operator="arithmetic" k2="-1" k3="1"/>
<feColorMatrix type="matrix" values="0 0 0 0 0.780392 0 0 0 0 0.780392 0 0 0 0 0.780392 0 0 0 1 0"/>
<feBlend mode="normal" in2="shape" result="effect1_innerShadow_1634_2999"/>
</filter>
</defs>
</svg>
