<svg width="347" height="19" viewBox="0 0 347 19" fill="none" xmlns="http://www.w3.org/2000/svg">
<path d="M1.52 15.14C1.26667 15.14 1.07333 15.0733 0.94 14.94C0.806667 14.7933 0.74 14.5867 0.74 14.32V1.6C0.74 1.33333 0.806667 1.12667 0.94 0.979999C1.07333 0.833333 1.24667 0.76 1.46 0.76C1.67333 0.76 1.82667 0.8 1.92 0.879999C2.02667 0.946666 2.14667 1.07333 2.28 1.26L11 12.88H10.52V1.56C10.52 1.30667 10.5867 1.11333 10.72 0.979999C10.8533 0.833333 11.0467 0.76 11.3 0.76C11.54 0.76 11.72 0.833333 11.84 0.979999C11.9733 1.11333 12.04 1.30667 12.04 1.56V14.34C12.04 14.5933 11.98 14.7933 11.86 14.94C11.7533 15.0733 11.5933 15.14 11.38 15.14C11.18 15.14 11.02 15.1 10.9 15.02C10.78 14.94 10.6533 14.8133 10.52 14.64L1.82 3.02H2.28V14.32C2.28 14.5867 2.21333 14.7933 2.08 14.94C1.94667 15.0733 1.76 15.14 1.52 15.14ZM19.3647 15.18C18.418 15.18 17.598 14.9733 16.9047 14.56C16.2114 14.1467 15.6714 13.5667 15.2847 12.82C14.9114 12.06 14.7247 11.1667 14.7247 10.14C14.7247 9.36667 14.8314 8.67333 15.0447 8.06C15.258 7.43333 15.5714 6.9 15.9847 6.46C16.398 6.02 16.8847 5.68667 17.4447 5.46C18.018 5.22 18.658 5.1 19.3647 5.1C20.3114 5.1 21.1314 5.30667 21.8247 5.72C22.518 6.13333 23.0514 6.72 23.4247 7.48C23.8114 8.22667 24.0047 9.11333 24.0047 10.14C24.0047 10.9133 23.898 11.6067 23.6847 12.22C23.4714 12.8333 23.158 13.3667 22.7447 13.82C22.3314 14.26 21.838 14.6 21.2647 14.84C20.7047 15.0667 20.0714 15.18 19.3647 15.18ZM19.3647 13.88C19.9647 13.88 20.4914 13.7333 20.9447 13.44C21.398 13.1467 21.7447 12.72 21.9847 12.16C22.238 11.6 22.3647 10.9267 22.3647 10.14C22.3647 8.92667 22.0914 8 21.5447 7.36C21.0114 6.72 20.2847 6.4 19.3647 6.4C18.7514 6.4 18.218 6.54667 17.7647 6.84C17.3247 7.12 16.978 7.54 16.7247 8.1C16.4847 8.64667 16.3647 9.32667 16.3647 10.14C16.3647 11.34 16.638 12.2667 17.1847 12.92C17.7314 13.56 18.458 13.88 19.3647 13.88ZM30.2403 15.18C29.4803 15.18 28.8403 15.0467 28.3203 14.78C27.8136 14.5 27.4336 14.1 27.1803 13.58C26.927 13.0467 26.8003 12.4 26.8003 11.64V6.54H25.4603C25.2336 6.54 25.0603 6.48667 24.9403 6.38C24.8203 6.26 24.7603 6.1 24.7603 5.9C24.7603 5.7 24.8203 5.54667 24.9403 5.44C25.0603 5.33333 25.2336 5.28 25.4603 5.28H26.8003V2.98C26.8003 2.71333 26.8736 2.51333 27.0203 2.38C27.167 2.23333 27.367 2.16 27.6203 2.16C27.8736 2.16 28.067 2.23333 28.2003 2.38C28.347 2.51333 28.4203 2.71333 28.4203 2.98V5.28H30.9403C31.167 5.28 31.3403 5.33333 31.4603 5.44C31.5803 5.54667 31.6403 5.7 31.6403 5.9C31.6403 6.1 31.5803 6.26 31.4603 6.38C31.3403 6.48667 31.167 6.54 30.9403 6.54H28.4203V11.48C28.4203 12.24 28.5803 12.82 28.9003 13.22C29.2203 13.6067 29.7403 13.8 30.4603 13.8C30.7136 13.8 30.927 13.7733 31.1003 13.72C31.287 13.6667 31.4403 13.64 31.5603 13.64C31.6803 13.6267 31.7803 13.6667 31.8603 13.76C31.9403 13.8533 31.9803 14.0133 31.9803 14.24C31.9803 14.4 31.947 14.5467 31.8803 14.68C31.827 14.8133 31.727 14.9067 31.5803 14.96C31.4203 15.0133 31.207 15.06 30.9403 15.1C30.687 15.1533 30.4536 15.18 30.2403 15.18ZM37.6148 15.18C36.5882 15.18 35.7015 14.98 34.9548 14.58C34.2215 14.1667 33.6482 13.5867 33.2348 12.84C32.8348 12.0933 32.6348 11.2 32.6348 10.16C32.6348 9.14667 32.8348 8.26667 33.2348 7.52C33.6348 6.76 34.1815 6.16667 34.8748 5.74C35.5815 5.31333 36.3948 5.1 37.3148 5.1C37.9682 5.1 38.5548 5.21333 39.0748 5.44C39.5948 5.65333 40.0348 5.96667 40.3948 6.38C40.7682 6.79333 41.0482 7.29333 41.2348 7.88C41.4348 8.46667 41.5348 9.12667 41.5348 9.86C41.5348 10.0733 41.4748 10.2333 41.3548 10.34C41.2348 10.4333 41.0615 10.48 40.8348 10.48H33.8748V9.42H40.4548L40.1348 9.68C40.1348 8.96 40.0282 8.35333 39.8148 7.86C39.6015 7.35333 39.2882 6.96667 38.8748 6.7C38.4748 6.43333 37.9682 6.3 37.3548 6.3C36.6748 6.3 36.0948 6.46 35.6148 6.78C35.1482 7.08667 34.7948 7.52 34.5548 8.08C34.3148 8.62667 34.1948 9.26667 34.1948 10V10.12C34.1948 11.3467 34.4882 12.28 35.0748 12.92C35.6748 13.56 36.5215 13.88 37.6148 13.88C38.0682 13.88 38.5148 13.82 38.9548 13.7C39.4082 13.58 39.8482 13.38 40.2748 13.1C40.4615 12.98 40.6282 12.9267 40.7748 12.94C40.9348 12.94 41.0615 12.9867 41.1548 13.08C41.2482 13.16 41.3082 13.2667 41.3348 13.4C41.3748 13.52 41.3615 13.6533 41.2948 13.8C41.2415 13.9467 41.1282 14.0733 40.9548 14.18C40.5148 14.5 39.9948 14.7467 39.3948 14.92C38.7948 15.0933 38.2015 15.18 37.6148 15.18ZM52.9356 15.18C52.1756 15.18 51.5356 15.0467 51.0156 14.78C50.509 14.5 50.129 14.1 49.8756 13.58C49.6223 13.0467 49.4956 12.4 49.4956 11.64V6.54H48.1556C47.929 6.54 47.7556 6.48667 47.6356 6.38C47.5156 6.26 47.4556 6.1 47.4556 5.9C47.4556 5.7 47.5156 5.54667 47.6356 5.44C47.7556 5.33333 47.929 5.28 48.1556 5.28H49.4956V2.98C49.4956 2.71333 49.569 2.51333 49.7156 2.38C49.8623 2.23333 50.0623 2.16 50.3156 2.16C50.569 2.16 50.7623 2.23333 50.8956 2.38C51.0423 2.51333 51.1156 2.71333 51.1156 2.98V5.28H53.6356C53.8623 5.28 54.0356 5.33333 54.1556 5.44C54.2756 5.54667 54.3356 5.7 54.3356 5.9C54.3356 6.1 54.2756 6.26 54.1556 6.38C54.0356 6.48667 53.8623 6.54 53.6356 6.54H51.1156V11.48C51.1156 12.24 51.2756 12.82 51.5956 13.22C51.9156 13.6067 52.4356 13.8 53.1556 13.8C53.409 13.8 53.6223 13.7733 53.7956 13.72C53.9823 13.6667 54.1356 13.64 54.2556 13.64C54.3756 13.6267 54.4756 13.6667 54.5556 13.76C54.6356 13.8533 54.6756 14.0133 54.6756 14.24C54.6756 14.4 54.6423 14.5467 54.5756 14.68C54.5223 14.8133 54.4223 14.9067 54.2756 14.96C54.1156 15.0133 53.9023 15.06 53.6356 15.1C53.3823 15.1533 53.149 15.18 52.9356 15.18ZM56.945 15.14C56.6783 15.14 56.4783 15.0667 56.345 14.92C56.2117 14.7733 56.145 14.5667 56.145 14.3V1.58C56.145 1.31333 56.2117 1.11333 56.345 0.979999C56.4783 0.833333 56.6783 0.76 56.945 0.76C57.1983 0.76 57.3983 0.833333 57.545 0.979999C57.6917 1.11333 57.765 1.31333 57.765 1.58V7.44H57.505C57.785 6.66667 58.2383 6.08667 58.865 5.7C59.505 5.3 60.2383 5.1 61.065 5.1C61.8383 5.1 62.4783 5.24 62.985 5.52C63.505 5.8 63.8917 6.22667 64.145 6.8C64.3983 7.36 64.525 8.07333 64.525 8.94V14.3C64.525 14.5667 64.4517 14.7733 64.305 14.92C64.1717 15.0667 63.9783 15.14 63.725 15.14C63.4583 15.14 63.2517 15.0667 63.105 14.92C62.9717 14.7733 62.905 14.5667 62.905 14.3V9.04C62.905 8.13333 62.725 7.47333 62.365 7.06C62.0183 6.63333 61.4583 6.42 60.685 6.42C59.7917 6.42 59.0783 6.7 58.545 7.26C58.025 7.80667 57.765 8.54 57.765 9.46V14.3C57.765 14.86 57.4917 15.14 56.945 15.14ZM70.5722 15.18C69.9055 15.18 69.3055 15.0533 68.7722 14.8C68.2522 14.5333 67.8389 14.1733 67.5322 13.72C67.2255 13.2667 67.0722 12.76 67.0722 12.2C67.0722 11.48 67.2522 10.9133 67.6122 10.5C67.9855 10.0867 68.5922 9.79333 69.4322 9.62C70.2855 9.44667 71.4455 9.36 72.9122 9.36H73.8122V10.42H72.9322C71.8522 10.42 70.9989 10.4733 70.3722 10.58C69.7589 10.6733 69.3255 10.84 69.0722 11.08C68.8322 11.32 68.7122 11.66 68.7122 12.1C68.7122 12.6467 68.8989 13.0933 69.2722 13.44C69.6589 13.7867 70.1789 13.96 70.8322 13.96C71.3655 13.96 71.8322 13.8333 72.2322 13.58C72.6455 13.3267 72.9655 12.98 73.1922 12.54C73.4322 12.1 73.5522 11.5933 73.5522 11.02V8.74C73.5522 7.91333 73.3855 7.32 73.0522 6.96C72.7189 6.58667 72.1722 6.4 71.4122 6.4C70.9455 6.4 70.4789 6.46 70.0122 6.58C69.5455 6.7 69.0522 6.89333 68.5322 7.16C68.3455 7.25333 68.1855 7.28667 68.0522 7.26C67.9189 7.22 67.8122 7.14667 67.7322 7.04C67.6522 6.93333 67.6055 6.81333 67.5922 6.68C67.5789 6.53333 67.6055 6.39333 67.6722 6.26C67.7522 6.12667 67.8722 6.02 68.0322 5.94C68.6189 5.64667 69.1989 5.43333 69.7722 5.3C70.3455 5.16667 70.8922 5.1 71.4122 5.1C72.2522 5.1 72.9455 5.24 73.4922 5.52C74.0389 5.78667 74.4455 6.2 74.7122 6.76C74.9789 7.30667 75.1122 8.01333 75.1122 8.88V14.3C75.1122 14.5667 75.0455 14.7733 74.9122 14.92C74.7922 15.0667 74.6122 15.14 74.3722 15.14C74.1189 15.14 73.9255 15.0667 73.7922 14.92C73.6589 14.7733 73.5922 14.5667 73.5922 14.3V12.74H73.7722C73.6655 13.2467 73.4589 13.68 73.1522 14.04C72.8589 14.4 72.4922 14.68 72.0522 14.88C71.6122 15.08 71.1189 15.18 70.5722 15.18ZM82.0177 15.18C81.2577 15.18 80.6177 15.0467 80.0977 14.78C79.591 14.5 79.211 14.1 78.9577 13.58C78.7043 13.0467 78.5777 12.4 78.5777 11.64V6.54H77.2377C77.011 6.54 76.8377 6.48667 76.7177 6.38C76.5977 6.26 76.5377 6.1 76.5377 5.9C76.5377 5.7 76.5977 5.54667 76.7177 5.44C76.8377 5.33333 77.011 5.28 77.2377 5.28H78.5777V2.98C78.5777 2.71333 78.651 2.51333 78.7977 2.38C78.9443 2.23333 79.1443 2.16 79.3977 2.16C79.651 2.16 79.8443 2.23333 79.9777 2.38C80.1243 2.51333 80.1977 2.71333 80.1977 2.98V5.28H82.7177C82.9443 5.28 83.1177 5.33333 83.2377 5.44C83.3577 5.54667 83.4177 5.7 83.4177 5.9C83.4177 6.1 83.3577 6.26 83.2377 6.38C83.1177 6.48667 82.9443 6.54 82.7177 6.54H80.1977V11.48C80.1977 12.24 80.3577 12.82 80.6777 13.22C80.9977 13.6067 81.5177 13.8 82.2377 13.8C82.491 13.8 82.7043 13.7733 82.8777 13.72C83.0643 13.6667 83.2177 13.64 83.3377 13.64C83.4577 13.6267 83.5577 13.6667 83.6377 13.76C83.7177 13.8533 83.7577 14.0133 83.7577 14.24C83.7577 14.4 83.7243 14.5467 83.6577 14.68C83.6043 14.8133 83.5043 14.9067 83.3577 14.96C83.1977 15.0133 82.9843 15.06 82.7177 15.1C82.4643 15.1533 82.231 15.18 82.0177 15.18ZM91.8661 15C91.5194 15 91.2461 14.9067 91.0461 14.72C90.8594 14.52 90.7661 14.2533 90.7661 13.92C90.7661 13.5733 90.8594 13.3133 91.0461 13.14C91.2461 12.9667 91.5194 12.88 91.8661 12.88H94.1061V3.06H95.3461L92.4061 4.84C92.1528 4.98667 91.9128 5.04667 91.6861 5.02C91.4728 4.98 91.2861 4.88667 91.1261 4.74C90.9794 4.58 90.8794 4.39333 90.8261 4.18C90.7728 3.96667 90.7861 3.75333 90.8661 3.54C90.9594 3.31333 91.1328 3.12667 91.3861 2.98L94.1461 1.32C94.4128 1.16 94.6794 1.02667 94.9461 0.919999C95.2128 0.799999 95.4594 0.739999 95.6861 0.739999C95.9661 0.739999 96.1994 0.819999 96.3861 0.979999C96.5728 1.12667 96.6661 1.37333 96.6661 1.72V12.88H98.7061C99.0528 12.88 99.3194 12.9667 99.5061 13.14C99.7061 13.3133 99.8061 13.5733 99.8061 13.92C99.8061 14.2667 99.7061 14.5333 99.5061 14.72C99.3194 14.9067 99.0528 15 98.7061 15H91.8661ZM106.738 15.2C105.072 15.2 103.798 14.5733 102.918 13.32C102.038 12.0533 101.598 10.2533 101.598 7.92C101.598 6.34667 101.792 5.02667 102.178 3.96C102.578 2.88 103.158 2.06667 103.918 1.52C104.692 0.973333 105.632 0.699999 106.738 0.699999C108.418 0.699999 109.692 1.31333 110.558 2.54C111.438 3.76667 111.878 5.55333 111.878 7.9C111.878 9.46 111.678 10.7867 111.278 11.88C110.892 12.96 110.318 13.7867 109.558 14.36C108.798 14.92 107.858 15.2 106.738 15.2ZM106.738 13.1C107.645 13.1 108.312 12.68 108.738 11.84C109.178 11 109.398 9.68667 109.398 7.9C109.398 6.11333 109.178 4.82 108.738 4.02C108.312 3.20667 107.645 2.8 106.738 2.8C105.845 2.8 105.178 3.20667 104.738 4.02C104.298 4.82 104.078 6.11333 104.078 7.9C104.078 9.68667 104.298 11 104.738 11.84C105.178 12.68 105.845 13.1 106.738 13.1ZM118.73 15.2C117.064 15.2 115.79 14.5733 114.91 13.32C114.03 12.0533 113.59 10.2533 113.59 7.92C113.59 6.34667 113.784 5.02667 114.17 3.96C114.57 2.88 115.15 2.06667 115.91 1.52C116.684 0.973333 117.624 0.699999 118.73 0.699999C120.41 0.699999 121.684 1.31333 122.55 2.54C123.43 3.76667 123.87 5.55333 123.87 7.9C123.87 9.46 123.67 10.7867 123.27 11.88C122.884 12.96 122.31 13.7867 121.55 14.36C120.79 14.92 119.85 15.2 118.73 15.2ZM118.73 13.1C119.637 13.1 120.304 12.68 120.73 11.84C121.17 11 121.39 9.68667 121.39 7.9C121.39 6.11333 121.17 4.82 120.73 4.02C120.304 3.20667 119.637 2.8 118.73 2.8C117.837 2.8 117.17 3.20667 116.73 4.02C116.29 4.82 116.07 6.11333 116.07 7.9C116.07 9.68667 116.29 11 116.73 11.84C117.17 12.68 117.837 13.1 118.73 13.1ZM135.032 15.2C134.459 15.2 133.852 15.14 133.212 15.02C132.572 14.9 131.999 14.6933 131.492 14.4C131.279 14.2667 131.126 14.1133 131.032 13.94C130.952 13.7533 130.919 13.5733 130.932 13.4C130.959 13.2133 131.026 13.0533 131.132 12.92C131.252 12.7867 131.399 12.7 131.572 12.66C131.759 12.62 131.959 12.6533 132.172 12.76C132.706 13.0133 133.206 13.1933 133.672 13.3C134.139 13.3933 134.599 13.44 135.052 13.44C135.692 13.44 136.166 13.3333 136.472 13.12C136.792 12.8933 136.952 12.6 136.952 12.24C136.952 11.9333 136.846 11.7 136.632 11.54C136.432 11.3667 136.126 11.24 135.712 11.16L133.712 10.78C132.886 10.62 132.252 10.32 131.812 9.88C131.386 9.42667 131.172 8.84667 131.172 8.14C131.172 7.5 131.346 6.94667 131.692 6.48C132.052 6.01333 132.546 5.65333 133.172 5.4C133.799 5.14667 134.519 5.02 135.332 5.02C135.919 5.02 136.466 5.08667 136.972 5.22C137.492 5.34 137.992 5.53333 138.472 5.8C138.672 5.90667 138.806 6.04667 138.872 6.22C138.952 6.39333 138.972 6.57333 138.932 6.76C138.892 6.93333 138.812 7.09333 138.692 7.24C138.572 7.37333 138.419 7.46 138.232 7.5C138.059 7.52667 137.859 7.48667 137.632 7.38C137.219 7.16667 136.819 7.01333 136.432 6.92C136.059 6.82667 135.699 6.78 135.352 6.78C134.699 6.78 134.212 6.89333 133.892 7.12C133.586 7.34667 133.432 7.64667 133.432 8.02C133.432 8.3 133.526 8.53333 133.712 8.72C133.899 8.90667 134.186 9.03333 134.572 9.1L136.572 9.48C137.439 9.64 138.092 9.93333 138.532 10.36C138.986 10.7867 139.212 11.36 139.212 12.08C139.212 13.0533 138.832 13.82 138.072 14.38C137.312 14.9267 136.299 15.2 135.032 15.2ZM149.358 18.76C148.958 18.76 148.651 18.6533 148.438 18.44C148.225 18.2267 148.118 17.9133 148.118 17.5V13H148.338C148.125 13.6533 147.711 14.1867 147.098 14.6C146.498 15 145.791 15.2 144.978 15.2C144.125 15.2 143.371 14.9933 142.718 14.58C142.078 14.1667 141.578 13.58 141.218 12.82C140.858 12.0467 140.678 11.14 140.678 10.1C140.678 9.04667 140.858 8.14667 141.218 7.4C141.578 6.64 142.078 6.05333 142.718 5.64C143.371 5.22667 144.125 5.02 144.978 5.02C145.805 5.02 146.525 5.22667 147.138 5.64C147.751 6.05333 148.158 6.6 148.358 7.28L148.138 7.88V6.32C148.138 5.90667 148.245 5.59333 148.458 5.38C148.671 5.16667 148.978 5.06 149.378 5.06C149.778 5.06 150.085 5.16667 150.298 5.38C150.511 5.59333 150.618 5.90667 150.618 6.32V17.5C150.618 17.9133 150.505 18.2267 150.278 18.44C150.065 18.6533 149.758 18.76 149.358 18.76ZM145.678 13.3C146.171 13.3 146.605 13.18 146.978 12.94C147.351 12.7 147.638 12.3467 147.838 11.88C148.051 11.4 148.158 10.8067 148.158 10.1C148.158 9.03333 147.931 8.24 147.478 7.72C147.025 7.18667 146.425 6.92 145.678 6.92C145.185 6.92 144.751 7.04 144.378 7.28C144.005 7.50667 143.711 7.86 143.498 8.34C143.298 8.80667 143.198 9.39333 143.198 10.1C143.198 11.1533 143.425 11.9533 143.878 12.5C144.331 13.0333 144.931 13.3 145.678 13.3ZM156.75 15.2C155.937 15.2 155.263 15.0533 154.73 14.76C154.197 14.4533 153.797 14 153.53 13.4C153.277 12.8 153.15 12.0533 153.15 11.16V6.32C153.15 5.89333 153.257 5.58 153.47 5.38C153.683 5.16667 153.99 5.06 154.39 5.06C154.79 5.06 155.097 5.16667 155.31 5.38C155.537 5.58 155.65 5.89333 155.65 6.32V11.2C155.65 11.8933 155.79 12.4067 156.07 12.74C156.35 13.0733 156.797 13.24 157.41 13.24C158.077 13.24 158.623 13.0133 159.05 12.56C159.477 12.0933 159.69 11.48 159.69 10.72V6.32C159.69 5.89333 159.797 5.58 160.01 5.38C160.223 5.16667 160.53 5.06 160.93 5.06C161.33 5.06 161.637 5.16667 161.85 5.38C162.077 5.58 162.19 5.89333 162.19 6.32V13.88C162.19 14.7333 161.783 15.16 160.97 15.16C160.583 15.16 160.283 15.0533 160.07 14.84C159.857 14.6133 159.75 14.2933 159.75 13.88V12.36L160.03 12.96C159.75 13.68 159.323 14.2333 158.75 14.62C158.19 15.0067 157.523 15.2 156.75 15.2ZM168.012 15.2C167.306 15.2 166.672 15.0667 166.112 14.8C165.566 14.52 165.132 14.1467 164.812 13.68C164.506 13.2133 164.352 12.6867 164.352 12.1C164.352 11.38 164.539 10.8133 164.912 10.4C165.286 9.97333 165.892 9.66667 166.732 9.48C167.572 9.29333 168.699 9.2 170.112 9.2H171.112V10.64H170.132C169.306 10.64 168.646 10.68 168.152 10.76C167.659 10.84 167.306 10.98 167.092 11.18C166.892 11.3667 166.792 11.6333 166.792 11.98C166.792 12.42 166.946 12.78 167.252 13.06C167.559 13.34 167.986 13.48 168.532 13.48C168.972 13.48 169.359 13.38 169.692 13.18C170.039 12.9667 170.312 12.68 170.512 12.32C170.712 11.96 170.812 11.5467 170.812 11.08V8.78C170.812 8.11333 170.666 7.63333 170.372 7.34C170.079 7.04667 169.586 6.9 168.892 6.9C168.506 6.9 168.086 6.94667 167.632 7.04C167.192 7.13333 166.726 7.29333 166.232 7.52C165.979 7.64 165.752 7.67333 165.552 7.62C165.366 7.56667 165.219 7.46 165.112 7.3C165.006 7.12667 164.952 6.94 164.952 6.74C164.952 6.54 165.006 6.34667 165.112 6.16C165.219 5.96 165.399 5.81333 165.652 5.72C166.266 5.46667 166.852 5.28667 167.412 5.18C167.986 5.07333 168.506 5.02 168.972 5.02C169.932 5.02 170.719 5.16667 171.332 5.46C171.959 5.75333 172.426 6.2 172.732 6.8C173.039 7.38667 173.192 8.14667 173.192 9.08V13.88C173.192 14.2933 173.092 14.6133 172.892 14.84C172.692 15.0533 172.406 15.16 172.032 15.16C171.659 15.16 171.366 15.0533 171.152 14.84C170.952 14.6133 170.852 14.2933 170.852 13.88V12.92H171.012C170.919 13.3867 170.732 13.7933 170.452 14.14C170.186 14.4733 169.846 14.7333 169.432 14.92C169.019 15.1067 168.546 15.2 168.012 15.2ZM177.01 15.16C176.596 15.16 176.276 15.0533 176.05 14.84C175.836 14.6133 175.73 14.2933 175.73 13.88V6.32C175.73 5.90667 175.836 5.59333 176.05 5.38C176.263 5.16667 176.563 5.06 176.95 5.06C177.336 5.06 177.636 5.16667 177.85 5.38C178.063 5.59333 178.17 5.90667 178.17 6.32V7.58H177.97C178.156 6.78 178.523 6.17333 179.07 5.76C179.616 5.34667 180.343 5.1 181.25 5.02C181.53 4.99333 181.75 5.06667 181.91 5.24C182.083 5.4 182.183 5.65333 182.21 6C182.236 6.33333 182.156 6.60667 181.97 6.82C181.796 7.02 181.53 7.14 181.17 7.18L180.73 7.22C179.916 7.3 179.303 7.55333 178.89 7.98C178.476 8.39333 178.27 8.98 178.27 9.74V13.88C178.27 14.2933 178.163 14.6133 177.95 14.84C177.736 15.0533 177.423 15.16 177.01 15.16ZM188.225 15.2C187.119 15.2 186.165 14.9933 185.365 14.58C184.565 14.1667 183.945 13.58 183.505 12.82C183.079 12.06 182.865 11.16 182.865 10.12C182.865 9.10667 183.072 8.22 183.485 7.46C183.912 6.7 184.492 6.10667 185.225 5.68C185.972 5.24 186.819 5.02 187.765 5.02C188.459 5.02 189.079 5.13333 189.625 5.36C190.185 5.58667 190.659 5.91333 191.045 6.34C191.445 6.76667 191.745 7.28667 191.945 7.9C192.159 8.5 192.265 9.18 192.265 9.94C192.265 10.18 192.179 10.3667 192.005 10.5C191.845 10.62 191.612 10.68 191.305 10.68H184.885V9.24H190.505L190.185 9.54C190.185 8.92667 190.092 8.41333 189.905 8C189.732 7.58667 189.472 7.27333 189.125 7.06C188.792 6.83333 188.372 6.72 187.865 6.72C187.305 6.72 186.825 6.85333 186.425 7.12C186.039 7.37333 185.739 7.74 185.525 8.22C185.325 8.68667 185.225 9.24667 185.225 9.9V10.04C185.225 11.1333 185.479 11.9533 185.985 12.5C186.505 13.0333 187.265 13.3 188.265 13.3C188.612 13.3 188.999 13.26 189.425 13.18C189.865 13.0867 190.279 12.9333 190.665 12.72C190.945 12.56 191.192 12.4933 191.405 12.52C191.619 12.5333 191.785 12.6067 191.905 12.74C192.039 12.8733 192.119 13.04 192.145 13.24C192.172 13.4267 192.132 13.62 192.025 13.82C191.932 14.02 191.765 14.1933 191.525 14.34C191.059 14.6333 190.519 14.8533 189.905 15C189.305 15.1333 188.745 15.2 188.225 15.2ZM203.215 15.2C202.402 15.2 201.728 15.0533 201.195 14.76C200.662 14.4533 200.262 14 199.995 13.4C199.742 12.8 199.615 12.0533 199.615 11.16V6.32C199.615 5.89333 199.722 5.58 199.935 5.38C200.148 5.16667 200.455 5.06 200.855 5.06C201.255 5.06 201.562 5.16667 201.775 5.38C202.002 5.58 202.115 5.89333 202.115 6.32V11.2C202.115 11.8933 202.255 12.4067 202.535 12.74C202.815 13.0733 203.262 13.24 203.875 13.24C204.542 13.24 205.088 13.0133 205.515 12.56C205.942 12.0933 206.155 11.48 206.155 10.72V6.32C206.155 5.89333 206.262 5.58 206.475 5.38C206.688 5.16667 206.995 5.06 207.395 5.06C207.795 5.06 208.102 5.16667 208.315 5.38C208.542 5.58 208.655 5.89333 208.655 6.32V13.88C208.655 14.7333 208.248 15.16 207.435 15.16C207.048 15.16 206.748 15.0533 206.535 14.84C206.322 14.6133 206.215 14.2933 206.215 13.88V12.36L206.495 12.96C206.215 13.68 205.788 14.2333 205.215 14.62C204.655 15.0067 203.988 15.2 203.215 15.2ZM212.497 15.16C212.097 15.16 211.79 15.0533 211.577 14.84C211.364 14.6133 211.257 14.2933 211.257 13.88V6.32C211.257 5.90667 211.364 5.59333 211.577 5.38C211.79 5.16667 212.09 5.06 212.477 5.06C212.864 5.06 213.164 5.16667 213.377 5.38C213.59 5.59333 213.697 5.90667 213.697 6.32V7.68L213.477 7.18C213.77 6.47333 214.224 5.94 214.837 5.58C215.464 5.20667 216.17 5.02 216.957 5.02C217.744 5.02 218.39 5.16667 218.897 5.46C219.404 5.75333 219.784 6.2 220.037 6.8C220.29 7.38667 220.417 8.13333 220.417 9.04V13.88C220.417 14.2933 220.31 14.6133 220.097 14.84C219.884 15.0533 219.577 15.16 219.177 15.16C218.777 15.16 218.464 15.0533 218.237 14.84C218.024 14.6133 217.917 14.2933 217.917 13.88V9.16C217.917 8.4 217.77 7.84667 217.477 7.5C217.197 7.15333 216.757 6.98 216.157 6.98C215.424 6.98 214.837 7.21333 214.397 7.68C213.97 8.13333 213.757 8.74 213.757 9.5V13.88C213.757 14.7333 213.337 15.16 212.497 15.16ZM224.196 15.14C223.796 15.14 223.49 15.02 223.276 14.78C223.063 14.54 222.956 14.2067 222.956 13.78V6.44C222.956 6 223.063 5.66667 223.276 5.44C223.49 5.2 223.796 5.08 224.196 5.08C224.596 5.08 224.903 5.2 225.116 5.44C225.343 5.66667 225.456 6 225.456 6.44V13.78C225.456 14.2067 225.35 14.54 225.136 14.78C224.923 15.02 224.61 15.14 224.196 15.14ZM224.196 3.22C223.73 3.22 223.363 3.10667 223.096 2.88C222.843 2.64 222.716 2.31333 222.716 1.9C222.716 1.47333 222.843 1.14667 223.096 0.919999C223.363 0.693333 223.73 0.58 224.196 0.58C224.676 0.58 225.043 0.693333 225.296 0.919999C225.55 1.14667 225.676 1.47333 225.676 1.9C225.676 2.31333 225.55 2.64 225.296 2.88C225.043 3.10667 224.676 3.22 224.196 3.22ZM232.534 15.2C231.667 15.2 230.941 15.0533 230.354 14.76C229.781 14.4667 229.354 14.04 229.074 13.48C228.794 12.9067 228.654 12.2 228.654 11.36V7.1H227.614C227.294 7.1 227.047 7.02 226.874 6.86C226.701 6.68667 226.614 6.45333 226.614 6.16C226.614 5.85333 226.701 5.62 226.874 5.46C227.047 5.3 227.294 5.22 227.614 5.22H228.654V3.4C228.654 2.98667 228.761 2.67333 228.974 2.46C229.201 2.24667 229.514 2.14 229.914 2.14C230.314 2.14 230.621 2.24667 230.834 2.46C231.047 2.67333 231.154 2.98667 231.154 3.4V5.22H233.274C233.594 5.22 233.841 5.3 234.014 5.46C234.187 5.62 234.274 5.85333 234.274 6.16C234.274 6.45333 234.187 6.68667 234.014 6.86C233.841 7.02 233.594 7.1 233.274 7.1H231.154V11.22C231.154 11.86 231.294 12.34 231.574 12.66C231.854 12.98 232.307 13.14 232.934 13.14C233.161 13.14 233.361 13.12 233.534 13.08C233.707 13.04 233.861 13.0133 233.994 13C234.154 12.9867 234.287 13.04 234.394 13.16C234.501 13.2667 234.554 13.4933 234.554 13.84C234.554 14.1067 234.507 14.3467 234.414 14.56C234.334 14.76 234.181 14.9 233.954 14.98C233.781 15.0333 233.554 15.08 233.274 15.12C232.994 15.1733 232.747 15.2 232.534 15.2ZM239.31 15.2C238.736 15.2 238.13 15.14 237.49 15.02C236.85 14.9 236.276 14.6933 235.77 14.4C235.556 14.2667 235.403 14.1133 235.31 13.94C235.23 13.7533 235.196 13.5733 235.21 13.4C235.236 13.2133 235.303 13.0533 235.41 12.92C235.53 12.7867 235.676 12.7 235.85 12.66C236.036 12.62 236.236 12.6533 236.45 12.76C236.983 13.0133 237.483 13.1933 237.95 13.3C238.416 13.3933 238.876 13.44 239.33 13.44C239.97 13.44 240.443 13.3333 240.75 13.12C241.07 12.8933 241.23 12.6 241.23 12.24C241.23 11.9333 241.123 11.7 240.91 11.54C240.71 11.3667 240.403 11.24 239.99 11.16L237.99 10.78C237.163 10.62 236.53 10.32 236.09 9.88C235.663 9.42667 235.45 8.84667 235.45 8.14C235.45 7.5 235.623 6.94667 235.97 6.48C236.33 6.01333 236.823 5.65333 237.45 5.4C238.076 5.14667 238.796 5.02 239.61 5.02C240.196 5.02 240.743 5.08667 241.25 5.22C241.77 5.34 242.27 5.53333 242.75 5.8C242.95 5.90667 243.083 6.04667 243.15 6.22C243.23 6.39333 243.25 6.57333 243.21 6.76C243.17 6.93333 243.09 7.09333 242.97 7.24C242.85 7.37333 242.696 7.46 242.51 7.5C242.336 7.52667 242.136 7.48667 241.91 7.38C241.496 7.16667 241.096 7.01333 240.71 6.92C240.336 6.82667 239.976 6.78 239.63 6.78C238.976 6.78 238.49 6.89333 238.17 7.12C237.863 7.34667 237.71 7.64667 237.71 8.02C237.71 8.3 237.803 8.53333 237.99 8.72C238.176 8.90667 238.463 9.03333 238.85 9.1L240.85 9.48C241.716 9.64 242.37 9.93333 242.81 10.36C243.263 10.7867 243.49 11.36 243.49 12.08C243.49 13.0533 243.11 13.82 242.35 14.38C241.59 14.9267 240.576 15.2 239.31 15.2ZM252.192 15.14C251.938 15.14 251.738 15.0667 251.592 14.92C251.458 14.7733 251.392 14.5667 251.392 14.3V6.54H250.112C249.898 6.54 249.725 6.48667 249.592 6.38C249.472 6.26 249.412 6.1 249.412 5.9C249.412 5.7 249.472 5.54667 249.592 5.44C249.725 5.33333 249.898 5.28 250.112 5.28H251.832L251.392 5.7V4.94C251.392 3.67333 251.698 2.70667 252.312 2.04C252.938 1.37333 253.852 0.986666 255.052 0.879999L255.632 0.819999C255.818 0.806666 255.965 0.839999 256.072 0.919999C256.192 0.999999 256.265 1.1 256.292 1.22C256.332 1.34 256.338 1.46667 256.312 1.6C256.285 1.72 256.225 1.82667 256.132 1.92C256.038 2.01333 255.925 2.06667 255.792 2.08L255.332 2.12C254.518 2.18667 253.925 2.43333 253.552 2.86C253.192 3.28667 253.012 3.91333 253.012 4.74V5.58L252.772 5.28H255.172C255.398 5.28 255.572 5.33333 255.692 5.44C255.812 5.54667 255.872 5.7 255.872 5.9C255.872 6.1 255.812 6.26 255.692 6.38C255.572 6.48667 255.398 6.54 255.172 6.54H253.012V14.3C253.012 14.86 252.738 15.14 252.192 15.14ZM261.298 15.18C260.352 15.18 259.532 14.9733 258.838 14.56C258.145 14.1467 257.605 13.5667 257.218 12.82C256.845 12.06 256.658 11.1667 256.658 10.14C256.658 9.36667 256.765 8.67333 256.978 8.06C257.192 7.43333 257.505 6.9 257.918 6.46C258.332 6.02 258.818 5.68667 259.378 5.46C259.952 5.22 260.592 5.1 261.298 5.1C262.245 5.1 263.065 5.30667 263.758 5.72C264.452 6.13333 264.985 6.72 265.358 7.48C265.745 8.22667 265.938 9.11333 265.938 10.14C265.938 10.9133 265.832 11.6067 265.618 12.22C265.405 12.8333 265.092 13.3667 264.678 13.82C264.265 14.26 263.772 14.6 263.198 14.84C262.638 15.0667 262.005 15.18 261.298 15.18ZM261.298 13.88C261.898 13.88 262.425 13.7333 262.878 13.44C263.332 13.1467 263.678 12.72 263.918 12.16C264.172 11.6 264.298 10.9267 264.298 10.14C264.298 8.92667 264.025 8 263.478 7.36C262.945 6.72 262.218 6.4 261.298 6.4C260.685 6.4 260.152 6.54667 259.698 6.84C259.258 7.12 258.912 7.54 258.658 8.1C258.418 8.64667 258.298 9.32667 258.298 10.14C258.298 11.34 258.572 12.2667 259.118 12.92C259.665 13.56 260.392 13.88 261.298 13.88ZM269.192 15.14C268.925 15.14 268.718 15.0667 268.572 14.92C268.438 14.7733 268.372 14.5667 268.372 14.3V5.96C268.372 5.69333 268.438 5.49333 268.572 5.36C268.705 5.21333 268.898 5.14 269.152 5.14C269.405 5.14 269.598 5.21333 269.732 5.36C269.878 5.49333 269.952 5.69333 269.952 5.96V7.58H269.752C269.965 6.79333 270.372 6.18667 270.972 5.76C271.572 5.33333 272.312 5.10667 273.192 5.08C273.392 5.06667 273.552 5.11333 273.672 5.22C273.792 5.31333 273.858 5.48 273.872 5.72C273.885 5.94667 273.832 6.12667 273.712 6.26C273.592 6.39333 273.405 6.47333 273.152 6.5L272.832 6.54C271.925 6.62 271.225 6.91333 270.732 7.42C270.252 7.91333 270.012 8.59333 270.012 9.46V14.3C270.012 14.5667 269.938 14.7733 269.792 14.92C269.658 15.0667 269.458 15.14 269.192 15.14ZM276.38 15.14C276.113 15.14 275.913 15.0667 275.78 14.92C275.646 14.7733 275.58 14.5667 275.58 14.3V5.96C275.58 5.69333 275.646 5.49333 275.78 5.36C275.913 5.21333 276.106 5.14 276.36 5.14C276.613 5.14 276.806 5.21333 276.94 5.36C277.086 5.49333 277.16 5.69333 277.16 5.96V7.72L276.94 7.44C277.193 6.69333 277.6 6.12 278.16 5.72C278.733 5.30667 279.413 5.1 280.2 5.1C281.026 5.1 281.693 5.3 282.2 5.7C282.72 6.08667 283.066 6.69333 283.24 7.52H282.94C283.18 6.77333 283.606 6.18667 284.22 5.76C284.846 5.32 285.573 5.1 286.4 5.1C287.133 5.1 287.733 5.24 288.2 5.52C288.68 5.8 289.04 6.22667 289.28 6.8C289.52 7.36 289.64 8.07333 289.64 8.94V14.3C289.64 14.5667 289.566 14.7733 289.42 14.92C289.286 15.0667 289.086 15.14 288.82 15.14C288.566 15.14 288.366 15.0667 288.22 14.92C288.086 14.7733 288.02 14.5667 288.02 14.3V9.02C288.02 8.12667 287.866 7.47333 287.56 7.06C287.253 6.63333 286.733 6.42 286 6.42C285.2 6.42 284.566 6.7 284.1 7.26C283.646 7.80667 283.42 8.55333 283.42 9.5V14.3C283.42 14.5667 283.346 14.7733 283.2 14.92C283.066 15.0667 282.866 15.14 282.6 15.14C282.346 15.14 282.146 15.0667 282 14.92C281.866 14.7733 281.8 14.5667 281.8 14.3V9.02C281.8 8.12667 281.64 7.47333 281.32 7.06C281.013 6.63333 280.5 6.42 279.78 6.42C278.98 6.42 278.346 6.7 277.88 7.26C277.426 7.80667 277.2 8.55333 277.2 9.5V14.3C277.2 14.86 276.926 15.14 276.38 15.14ZM299.425 15C299.078 15 298.805 14.9067 298.605 14.72C298.418 14.52 298.325 14.2533 298.325 13.92C298.325 13.5733 298.418 13.3133 298.605 13.14C298.805 12.9667 299.078 12.88 299.425 12.88H301.665V3.06H302.905L299.965 4.84C299.711 4.98667 299.471 5.04667 299.245 5.02C299.031 4.98 298.845 4.88667 298.685 4.74C298.538 4.58 298.438 4.39333 298.385 4.18C298.331 3.96667 298.345 3.75333 298.425 3.54C298.518 3.31333 298.691 3.12667 298.945 2.98L301.705 1.32C301.971 1.16 302.238 1.02667 302.505 0.919999C302.771 0.799999 303.018 0.739999 303.245 0.739999C303.525 0.739999 303.758 0.819999 303.945 0.979999C304.131 1.12667 304.225 1.37333 304.225 1.72V12.88H306.265C306.611 12.88 306.878 12.9667 307.065 13.14C307.265 13.3133 307.365 13.5733 307.365 13.92C307.365 14.2667 307.265 14.5333 307.065 14.72C306.878 14.9067 306.611 15 306.265 15H299.425ZM318.247 15.2C317.54 15.2 316.907 15.0667 316.347 14.8C315.8 14.52 315.367 14.1467 315.047 13.68C314.74 13.2133 314.587 12.6867 314.587 12.1C314.587 11.38 314.773 10.8133 315.147 10.4C315.52 9.97333 316.127 9.66667 316.967 9.48C317.807 9.29333 318.933 9.2 320.347 9.2H321.347V10.64H320.367C319.54 10.64 318.88 10.68 318.387 10.76C317.893 10.84 317.54 10.98 317.327 11.18C317.127 11.3667 317.027 11.6333 317.027 11.98C317.027 12.42 317.18 12.78 317.487 13.06C317.793 13.34 318.22 13.48 318.767 13.48C319.207 13.48 319.593 13.38 319.927 13.18C320.273 12.9667 320.547 12.68 320.747 12.32C320.947 11.96 321.047 11.5467 321.047 11.08V8.78C321.047 8.11333 320.9 7.63333 320.607 7.34C320.313 7.04667 319.82 6.9 319.127 6.9C318.74 6.9 318.32 6.94667 317.867 7.04C317.427 7.13333 316.96 7.29333 316.467 7.52C316.213 7.64 315.987 7.67333 315.787 7.62C315.6 7.56667 315.453 7.46 315.347 7.3C315.24 7.12667 315.187 6.94 315.187 6.74C315.187 6.54 315.24 6.34667 315.347 6.16C315.453 5.96 315.633 5.81333 315.887 5.72C316.5 5.46667 317.087 5.28667 317.647 5.18C318.22 5.07333 318.74 5.02 319.207 5.02C320.167 5.02 320.953 5.16667 321.567 5.46C322.193 5.75333 322.66 6.2 322.967 6.8C323.273 7.38667 323.427 8.14667 323.427 9.08V13.88C323.427 14.2933 323.327 14.6133 323.127 14.84C322.927 15.0533 322.64 15.16 322.267 15.16C321.893 15.16 321.6 15.0533 321.387 14.84C321.187 14.6133 321.087 14.2933 321.087 13.88V12.92H321.247C321.153 13.3867 320.967 13.7933 320.687 14.14C320.42 14.4733 320.08 14.7333 319.667 14.92C319.253 15.1067 318.78 15.2 318.247 15.2ZM327.244 15.16C326.831 15.16 326.511 15.0533 326.284 14.84C326.071 14.6133 325.964 14.2933 325.964 13.88V6.32C325.964 5.90667 326.071 5.59333 326.284 5.38C326.497 5.16667 326.797 5.06 327.184 5.06C327.571 5.06 327.871 5.16667 328.084 5.38C328.297 5.59333 328.404 5.90667 328.404 6.32V7.58H328.204C328.391 6.78 328.757 6.17333 329.304 5.76C329.851 5.34667 330.577 5.1 331.484 5.02C331.764 4.99333 331.984 5.06667 332.144 5.24C332.317 5.4 332.417 5.65333 332.444 6C332.471 6.33333 332.391 6.60667 332.204 6.82C332.031 7.02 331.764 7.14 331.404 7.18L330.964 7.22C330.151 7.3 329.537 7.55333 329.124 7.98C328.711 8.39333 328.504 8.98 328.504 9.74V13.88C328.504 14.2933 328.397 14.6133 328.184 14.84C327.971 15.0533 327.657 15.16 327.244 15.16ZM338.46 15.2C337.353 15.2 336.4 14.9933 335.6 14.58C334.8 14.1667 334.18 13.58 333.74 12.82C333.313 12.06 333.1 11.16 333.1 10.12C333.1 9.10667 333.307 8.22 333.72 7.46C334.147 6.7 334.727 6.10667 335.46 5.68C336.207 5.24 337.053 5.02 338 5.02C338.693 5.02 339.313 5.13333 339.86 5.36C340.42 5.58667 340.893 5.91333 341.28 6.34C341.68 6.76667 341.98 7.28667 342.18 7.9C342.393 8.5 342.5 9.18 342.5 9.94C342.5 10.18 342.413 10.3667 342.24 10.5C342.08 10.62 341.847 10.68 341.54 10.68H335.12V9.24H340.74L340.42 9.54C340.42 8.92667 340.327 8.41333 340.14 8C339.967 7.58667 339.707 7.27333 339.36 7.06C339.027 6.83333 338.607 6.72 338.1 6.72C337.54 6.72 337.06 6.85333 336.66 7.12C336.273 7.37333 335.973 7.74 335.76 8.22C335.56 8.68667 335.46 9.24667 335.46 9.9V10.04C335.46 11.1333 335.713 11.9533 336.22 12.5C336.74 13.0333 337.5 13.3 338.5 13.3C338.847 13.3 339.233 13.26 339.66 13.18C340.1 13.0867 340.513 12.9333 340.9 12.72C341.18 12.56 341.427 12.4933 341.64 12.52C341.853 12.5333 342.02 12.6067 342.14 12.74C342.273 12.8733 342.353 13.04 342.38 13.24C342.407 13.4267 342.367 13.62 342.26 13.82C342.167 14.02 342 14.1933 341.76 14.34C341.293 14.6333 340.753 14.8533 340.14 15C339.54 15.1333 338.98 15.2 338.46 15.2ZM345.48 15.08C345.146 15.08 344.88 14.98 344.68 14.78C344.48 14.5667 344.38 14.3 344.38 13.98C344.38 13.66 344.48 13.4 344.68 13.2C344.88 12.9867 345.146 12.88 345.48 12.88C345.813 12.88 346.073 12.9867 346.26 13.2C346.46 13.4 346.56 13.66 346.56 13.98C346.56 14.3 346.46 14.5667 346.26 14.78C346.073 14.98 345.813 15.08 345.48 15.08Z" fill="#646464"/>
</svg>
