<svg width="308" height="16" viewBox="0 0 308 16" fill="none" xmlns="http://www.w3.org/2000/svg">
<path d="M1.52 15.14C1.26667 15.14 1.07333 15.0733 0.94 14.94C0.806667 14.7933 0.74 14.5867 0.74 14.32V1.6C0.74 1.33333 0.806667 1.12667 0.94 0.979999C1.07333 0.833333 1.24667 0.76 1.46 0.76C1.67333 0.76 1.82667 0.8 1.92 0.879999C2.02667 0.946666 2.14667 1.07333 2.28 1.26L11 12.88H10.52V1.56C10.52 1.30667 10.5867 1.11333 10.72 0.979999C10.8533 0.833333 11.0467 0.76 11.3 0.76C11.54 0.76 11.72 0.833333 11.84 0.979999C11.9733 1.11333 12.04 1.30667 12.04 1.56V14.34C12.04 14.5933 11.98 14.7933 11.86 14.94C11.7533 15.0733 11.5933 15.14 11.38 15.14C11.18 15.14 11.02 15.1 10.9 15.02C10.78 14.94 10.6533 14.8133 10.52 14.64L1.82 3.02H2.28V14.32C2.28 14.5867 2.21333 14.7933 2.08 14.94C1.94667 15.0733 1.76 15.14 1.52 15.14ZM19.3647 15.18C18.418 15.18 17.598 14.9733 16.9047 14.56C16.2114 14.1467 15.6714 13.5667 15.2847 12.82C14.9114 12.06 14.7247 11.1667 14.7247 10.14C14.7247 9.36667 14.8314 8.67333 15.0447 8.06C15.258 7.43333 15.5714 6.9 15.9847 6.46C16.398 6.02 16.8847 5.68667 17.4447 5.46C18.018 5.22 18.658 5.1 19.3647 5.1C20.3114 5.1 21.1314 5.30667 21.8247 5.72C22.518 6.13333 23.0514 6.72 23.4247 7.48C23.8114 8.22667 24.0047 9.11333 24.0047 10.14C24.0047 10.9133 23.898 11.6067 23.6847 12.22C23.4714 12.8333 23.158 13.3667 22.7447 13.82C22.3314 14.26 21.838 14.6 21.2647 14.84C20.7047 15.0667 20.0714 15.18 19.3647 15.18ZM19.3647 13.88C19.9647 13.88 20.4914 13.7333 20.9447 13.44C21.398 13.1467 21.7447 12.72 21.9847 12.16C22.238 11.6 22.3647 10.9267 22.3647 10.14C22.3647 8.92667 22.0914 8 21.5447 7.36C21.0114 6.72 20.2847 6.4 19.3647 6.4C18.7514 6.4 18.218 6.54667 17.7647 6.84C17.3247 7.12 16.978 7.54 16.7247 8.1C16.4847 8.64667 16.3647 9.32667 16.3647 10.14C16.3647 11.34 16.638 12.2667 17.1847 12.92C17.7314 13.56 18.458 13.88 19.3647 13.88ZM30.2403 15.18C29.4803 15.18 28.8403 15.0467 28.3203 14.78C27.8136 14.5 27.4336 14.1 27.1803 13.58C26.927 13.0467 26.8003 12.4 26.8003 11.64V6.54H25.4603C25.2336 6.54 25.0603 6.48667 24.9403 6.38C24.8203 6.26 24.7603 6.1 24.7603 5.9C24.7603 5.7 24.8203 5.54667 24.9403 5.44C25.0603 5.33333 25.2336 5.28 25.4603 5.28H26.8003V2.98C26.8003 2.71333 26.8736 2.51333 27.0203 2.38C27.167 2.23333 27.367 2.16 27.6203 2.16C27.8736 2.16 28.067 2.23333 28.2003 2.38C28.347 2.51333 28.4203 2.71333 28.4203 2.98V5.28H30.9403C31.167 5.28 31.3403 5.33333 31.4603 5.44C31.5803 5.54667 31.6403 5.7 31.6403 5.9C31.6403 6.1 31.5803 6.26 31.4603 6.38C31.3403 6.48667 31.167 6.54 30.9403 6.54H28.4203V11.48C28.4203 12.24 28.5803 12.82 28.9003 13.22C29.2203 13.6067 29.7403 13.8 30.4603 13.8C30.7136 13.8 30.927 13.7733 31.1003 13.72C31.287 13.6667 31.4403 13.64 31.5603 13.64C31.6803 13.6267 31.7803 13.6667 31.8603 13.76C31.9403 13.8533 31.9803 14.0133 31.9803 14.24C31.9803 14.4 31.947 14.5467 31.8803 14.68C31.827 14.8133 31.727 14.9067 31.5803 14.96C31.4203 15.0133 31.207 15.06 30.9403 15.1C30.687 15.1533 30.4536 15.18 30.2403 15.18ZM37.6148 15.18C36.5882 15.18 35.7015 14.98 34.9548 14.58C34.2215 14.1667 33.6482 13.5867 33.2348 12.84C32.8348 12.0933 32.6348 11.2 32.6348 10.16C32.6348 9.14667 32.8348 8.26667 33.2348 7.52C33.6348 6.76 34.1815 6.16667 34.8748 5.74C35.5815 5.31333 36.3948 5.1 37.3148 5.1C37.9682 5.1 38.5548 5.21333 39.0748 5.44C39.5948 5.65333 40.0348 5.96667 40.3948 6.38C40.7682 6.79333 41.0482 7.29333 41.2348 7.88C41.4348 8.46667 41.5348 9.12667 41.5348 9.86C41.5348 10.0733 41.4748 10.2333 41.3548 10.34C41.2348 10.4333 41.0615 10.48 40.8348 10.48H33.8748V9.42H40.4548L40.1348 9.68C40.1348 8.96 40.0282 8.35333 39.8148 7.86C39.6015 7.35333 39.2882 6.96667 38.8748 6.7C38.4748 6.43333 37.9682 6.3 37.3548 6.3C36.6748 6.3 36.0948 6.46 35.6148 6.78C35.1482 7.08667 34.7948 7.52 34.5548 8.08C34.3148 8.62667 34.1948 9.26667 34.1948 10V10.12C34.1948 11.3467 34.4882 12.28 35.0748 12.92C35.6748 13.56 36.5215 13.88 37.6148 13.88C38.0682 13.88 38.5148 13.82 38.9548 13.7C39.4082 13.58 39.8482 13.38 40.2748 13.1C40.4615 12.98 40.6282 12.9267 40.7748 12.94C40.9348 12.94 41.0615 12.9867 41.1548 13.08C41.2482 13.16 41.3082 13.2667 41.3348 13.4C41.3748 13.52 41.3615 13.6533 41.2948 13.8C41.2415 13.9467 41.1282 14.0733 40.9548 14.18C40.5148 14.5 39.9948 14.7467 39.3948 14.92C38.7948 15.0933 38.2015 15.18 37.6148 15.18ZM52.9356 15.18C52.1756 15.18 51.5356 15.0467 51.0156 14.78C50.509 14.5 50.129 14.1 49.8756 13.58C49.6223 13.0467 49.4956 12.4 49.4956 11.64V6.54H48.1556C47.929 6.54 47.7556 6.48667 47.6356 6.38C47.5156 6.26 47.4556 6.1 47.4556 5.9C47.4556 5.7 47.5156 5.54667 47.6356 5.44C47.7556 5.33333 47.929 5.28 48.1556 5.28H49.4956V2.98C49.4956 2.71333 49.569 2.51333 49.7156 2.38C49.8623 2.23333 50.0623 2.16 50.3156 2.16C50.569 2.16 50.7623 2.23333 50.8956 2.38C51.0423 2.51333 51.1156 2.71333 51.1156 2.98V5.28H53.6356C53.8623 5.28 54.0356 5.33333 54.1556 5.44C54.2756 5.54667 54.3356 5.7 54.3356 5.9C54.3356 6.1 54.2756 6.26 54.1556 6.38C54.0356 6.48667 53.8623 6.54 53.6356 6.54H51.1156V11.48C51.1156 12.24 51.2756 12.82 51.5956 13.22C51.9156 13.6067 52.4356 13.8 53.1556 13.8C53.409 13.8 53.6223 13.7733 53.7956 13.72C53.9823 13.6667 54.1356 13.64 54.2556 13.64C54.3756 13.6267 54.4756 13.6667 54.5556 13.76C54.6356 13.8533 54.6756 14.0133 54.6756 14.24C54.6756 14.4 54.6423 14.5467 54.5756 14.68C54.5223 14.8133 54.4223 14.9067 54.2756 14.96C54.1156 15.0133 53.9023 15.06 53.6356 15.1C53.3823 15.1533 53.149 15.18 52.9356 15.18ZM56.945 15.14C56.6783 15.14 56.4783 15.0667 56.345 14.92C56.2117 14.7733 56.145 14.5667 56.145 14.3V1.58C56.145 1.31333 56.2117 1.11333 56.345 0.979999C56.4783 0.833333 56.6783 0.76 56.945 0.76C57.1983 0.76 57.3983 0.833333 57.545 0.979999C57.6917 1.11333 57.765 1.31333 57.765 1.58V7.44H57.505C57.785 6.66667 58.2383 6.08667 58.865 5.7C59.505 5.3 60.2383 5.1 61.065 5.1C61.8383 5.1 62.4783 5.24 62.985 5.52C63.505 5.8 63.8917 6.22667 64.145 6.8C64.3983 7.36 64.525 8.07333 64.525 8.94V14.3C64.525 14.5667 64.4517 14.7733 64.305 14.92C64.1717 15.0667 63.9783 15.14 63.725 15.14C63.4583 15.14 63.2517 15.0667 63.105 14.92C62.9717 14.7733 62.905 14.5667 62.905 14.3V9.04C62.905 8.13333 62.725 7.47333 62.365 7.06C62.0183 6.63333 61.4583 6.42 60.685 6.42C59.7917 6.42 59.0783 6.7 58.545 7.26C58.025 7.80667 57.765 8.54 57.765 9.46V14.3C57.765 14.86 57.4917 15.14 56.945 15.14ZM70.5722 15.18C69.9055 15.18 69.3055 15.0533 68.7722 14.8C68.2522 14.5333 67.8389 14.1733 67.5322 13.72C67.2255 13.2667 67.0722 12.76 67.0722 12.2C67.0722 11.48 67.2522 10.9133 67.6122 10.5C67.9855 10.0867 68.5922 9.79333 69.4322 9.62C70.2855 9.44667 71.4455 9.36 72.9122 9.36H73.8122V10.42H72.9322C71.8522 10.42 70.9989 10.4733 70.3722 10.58C69.7589 10.6733 69.3255 10.84 69.0722 11.08C68.8322 11.32 68.7122 11.66 68.7122 12.1C68.7122 12.6467 68.8989 13.0933 69.2722 13.44C69.6589 13.7867 70.1789 13.96 70.8322 13.96C71.3655 13.96 71.8322 13.8333 72.2322 13.58C72.6455 13.3267 72.9655 12.98 73.1922 12.54C73.4322 12.1 73.5522 11.5933 73.5522 11.02V8.74C73.5522 7.91333 73.3855 7.32 73.0522 6.96C72.7189 6.58667 72.1722 6.4 71.4122 6.4C70.9455 6.4 70.4789 6.46 70.0122 6.58C69.5455 6.7 69.0522 6.89333 68.5322 7.16C68.3455 7.25333 68.1855 7.28667 68.0522 7.26C67.9189 7.22 67.8122 7.14667 67.7322 7.04C67.6522 6.93333 67.6055 6.81333 67.5922 6.68C67.5789 6.53333 67.6055 6.39333 67.6722 6.26C67.7522 6.12667 67.8722 6.02 68.0322 5.94C68.6189 5.64667 69.1989 5.43333 69.7722 5.3C70.3455 5.16667 70.8922 5.1 71.4122 5.1C72.2522 5.1 72.9455 5.24 73.4922 5.52C74.0389 5.78667 74.4455 6.2 74.7122 6.76C74.9789 7.30667 75.1122 8.01333 75.1122 8.88V14.3C75.1122 14.5667 75.0455 14.7733 74.9122 14.92C74.7922 15.0667 74.6122 15.14 74.3722 15.14C74.1189 15.14 73.9255 15.0667 73.7922 14.92C73.6589 14.7733 73.5922 14.5667 73.5922 14.3V12.74H73.7722C73.6655 13.2467 73.4589 13.68 73.1522 14.04C72.8589 14.4 72.4922 14.68 72.0522 14.88C71.6122 15.08 71.1189 15.18 70.5722 15.18ZM82.0177 15.18C81.2577 15.18 80.6177 15.0467 80.0977 14.78C79.591 14.5 79.211 14.1 78.9577 13.58C78.7043 13.0467 78.5777 12.4 78.5777 11.64V6.54H77.2377C77.011 6.54 76.8377 6.48667 76.7177 6.38C76.5977 6.26 76.5377 6.1 76.5377 5.9C76.5377 5.7 76.5977 5.54667 76.7177 5.44C76.8377 5.33333 77.011 5.28 77.2377 5.28H78.5777V2.98C78.5777 2.71333 78.651 2.51333 78.7977 2.38C78.9443 2.23333 79.1443 2.16 79.3977 2.16C79.651 2.16 79.8443 2.23333 79.9777 2.38C80.1243 2.51333 80.1977 2.71333 80.1977 2.98V5.28H82.7177C82.9443 5.28 83.1177 5.33333 83.2377 5.44C83.3577 5.54667 83.4177 5.7 83.4177 5.9C83.4177 6.1 83.3577 6.26 83.2377 6.38C83.1177 6.48667 82.9443 6.54 82.7177 6.54H80.1977V11.48C80.1977 12.24 80.3577 12.82 80.6777 13.22C80.9977 13.6067 81.5177 13.8 82.2377 13.8C82.491 13.8 82.7043 13.7733 82.8777 13.72C83.0643 13.6667 83.2177 13.64 83.3377 13.64C83.4577 13.6267 83.5577 13.6667 83.6377 13.76C83.7177 13.8533 83.7577 14.0133 83.7577 14.24C83.7577 14.4 83.7243 14.5467 83.6577 14.68C83.6043 14.8133 83.5043 14.9067 83.3577 14.96C83.1977 15.0133 82.9843 15.06 82.7177 15.1C82.4643 15.1533 82.231 15.18 82.0177 15.18ZM91.8461 15C91.6061 15 91.4194 14.94 91.2861 14.82C91.1528 14.6867 91.0861 14.5067 91.0861 14.28C91.0861 14.0533 91.1528 13.8867 91.2861 13.78C91.4194 13.66 91.6061 13.6 91.8461 13.6H94.4461V2.26H95.3061L92.4061 4.18C92.2328 4.27333 92.0661 4.31333 91.9061 4.3C91.7594 4.28667 91.6328 4.23333 91.5261 4.14C91.4328 4.03333 91.3661 3.91333 91.3261 3.78C91.2861 3.63333 91.2928 3.48667 91.3461 3.34C91.3994 3.18 91.5128 3.04667 91.6861 2.94L94.4461 1.12C94.6194 1.01333 94.7861 0.926666 94.9461 0.86C95.1061 0.793333 95.2661 0.76 95.4261 0.76C95.6128 0.76 95.7661 0.82 95.8861 0.94C96.0194 1.04667 96.0861 1.22 96.0861 1.46V13.6H98.4861C98.7261 13.6 98.9128 13.66 99.0461 13.78C99.1794 13.8867 99.2461 14.0533 99.2461 14.28C99.2461 14.52 99.1794 14.7 99.0461 14.82C98.9128 14.94 98.7261 15 98.4861 15H91.8461ZM106.738 15.18C105.125 15.18 103.898 14.56 103.058 13.32C102.218 12.08 101.798 10.2867 101.798 7.94C101.798 6.36667 101.985 5.04667 102.358 3.98C102.732 2.9 103.285 2.08667 104.018 1.54C104.765 0.993332 105.672 0.719999 106.738 0.719999C108.365 0.719999 109.592 1.33333 110.418 2.56C111.258 3.77333 111.678 5.56 111.678 7.92C111.678 9.49333 111.492 10.82 111.118 11.9C110.745 12.98 110.192 13.8 109.458 14.36C108.725 14.9067 107.818 15.18 106.738 15.18ZM106.738 13.76C107.858 13.76 108.685 13.2867 109.218 12.34C109.765 11.38 110.038 9.90667 110.038 7.92C110.038 5.92 109.765 4.46 109.218 3.54C108.685 2.60667 107.858 2.14 106.738 2.14C105.632 2.14 104.805 2.60667 104.258 3.54C103.712 4.47333 103.438 5.93333 103.438 7.92C103.438 9.90667 103.712 11.38 104.258 12.34C104.805 13.2867 105.632 13.76 106.738 13.76ZM118.73 15.18C117.117 15.18 115.89 14.56 115.05 13.32C114.21 12.08 113.79 10.2867 113.79 7.94C113.79 6.36667 113.977 5.04667 114.35 3.98C114.724 2.9 115.277 2.08667 116.01 1.54C116.757 0.993332 117.664 0.719999 118.73 0.719999C120.357 0.719999 121.584 1.33333 122.41 2.56C123.25 3.77333 123.67 5.56 123.67 7.92C123.67 9.49333 123.484 10.82 123.11 11.9C122.737 12.98 122.184 13.8 121.45 14.36C120.717 14.9067 119.81 15.18 118.73 15.18ZM118.73 13.76C119.85 13.76 120.677 13.2867 121.21 12.34C121.757 11.38 122.03 9.90667 122.03 7.92C122.03 5.92 121.757 4.46 121.21 3.54C120.677 2.60667 119.85 2.14 118.73 2.14C117.624 2.14 116.797 2.60667 116.25 3.54C115.704 4.47333 115.43 5.93333 115.43 7.92C115.43 9.90667 115.704 11.38 116.25 12.34C116.797 13.2867 117.624 13.76 118.73 13.76ZM134.459 15.18C133.792 15.18 133.192 15.0533 132.659 14.8C132.139 14.5333 131.726 14.1733 131.419 13.72C131.112 13.2667 130.959 12.76 130.959 12.2C130.959 11.48 131.139 10.9133 131.499 10.5C131.872 10.0867 132.479 9.79333 133.319 9.62C134.172 9.44667 135.332 9.36 136.799 9.36H137.699V10.42H136.819C135.739 10.42 134.886 10.4733 134.259 10.58C133.646 10.6733 133.212 10.84 132.959 11.08C132.719 11.32 132.599 11.66 132.599 12.1C132.599 12.6467 132.786 13.0933 133.159 13.44C133.546 13.7867 134.066 13.96 134.719 13.96C135.252 13.96 135.719 13.8333 136.119 13.58C136.532 13.3267 136.852 12.98 137.079 12.54C137.319 12.1 137.439 11.5933 137.439 11.02V8.74C137.439 7.91333 137.272 7.32 136.939 6.96C136.606 6.58667 136.059 6.4 135.299 6.4C134.832 6.4 134.366 6.46 133.899 6.58C133.432 6.7 132.939 6.89333 132.419 7.16C132.232 7.25333 132.072 7.28667 131.939 7.26C131.806 7.22 131.699 7.14667 131.619 7.04C131.539 6.93333 131.492 6.81333 131.479 6.68C131.466 6.53333 131.492 6.39333 131.559 6.26C131.639 6.12667 131.759 6.02 131.919 5.94C132.506 5.64667 133.086 5.43333 133.659 5.3C134.232 5.16667 134.779 5.1 135.299 5.1C136.139 5.1 136.832 5.24 137.379 5.52C137.926 5.78667 138.332 6.2 138.599 6.76C138.866 7.30667 138.999 8.01333 138.999 8.88V14.3C138.999 14.5667 138.932 14.7733 138.799 14.92C138.679 15.0667 138.499 15.14 138.259 15.14C138.006 15.14 137.812 15.0667 137.679 14.92C137.546 14.7733 137.479 14.5667 137.479 14.3V12.74H137.659C137.552 13.2467 137.346 13.68 137.039 14.04C136.746 14.4 136.379 14.68 135.939 14.88C135.499 15.08 135.006 15.18 134.459 15.18ZM142.824 15.14C142.558 15.14 142.351 15.0667 142.204 14.92C142.071 14.7733 142.004 14.5667 142.004 14.3V5.96C142.004 5.69333 142.071 5.49333 142.204 5.36C142.338 5.21333 142.531 5.14 142.784 5.14C143.038 5.14 143.231 5.21333 143.364 5.36C143.511 5.49333 143.584 5.69333 143.584 5.96V7.58H143.384C143.598 6.79333 144.004 6.18667 144.604 5.76C145.204 5.33333 145.944 5.10667 146.824 5.08C147.024 5.06667 147.184 5.11333 147.304 5.22C147.424 5.31333 147.491 5.48 147.504 5.72C147.518 5.94667 147.464 6.12667 147.344 6.26C147.224 6.39333 147.038 6.47333 146.784 6.5L146.464 6.54C145.558 6.62 144.858 6.91333 144.364 7.42C143.884 7.91333 143.644 8.59333 143.644 9.46V14.3C143.644 14.5667 143.571 14.7733 143.424 14.92C143.291 15.0667 143.091 15.14 142.824 15.14ZM153.435 15.18C152.408 15.18 151.522 14.98 150.775 14.58C150.042 14.1667 149.468 13.5867 149.055 12.84C148.655 12.0933 148.455 11.2 148.455 10.16C148.455 9.14667 148.655 8.26667 149.055 7.52C149.455 6.76 150.002 6.16667 150.695 5.74C151.402 5.31333 152.215 5.1 153.135 5.1C153.788 5.1 154.375 5.21333 154.895 5.44C155.415 5.65333 155.855 5.96667 156.215 6.38C156.588 6.79333 156.868 7.29333 157.055 7.88C157.255 8.46667 157.355 9.12667 157.355 9.86C157.355 10.0733 157.295 10.2333 157.175 10.34C157.055 10.4333 156.882 10.48 156.655 10.48H149.695V9.42H156.275L155.955 9.68C155.955 8.96 155.848 8.35333 155.635 7.86C155.422 7.35333 155.108 6.96667 154.695 6.7C154.295 6.43333 153.788 6.3 153.175 6.3C152.495 6.3 151.915 6.46 151.435 6.78C150.968 7.08667 150.615 7.52 150.375 8.08C150.135 8.62667 150.015 9.26667 150.015 10V10.12C150.015 11.3467 150.308 12.28 150.895 12.92C151.495 13.56 152.342 13.88 153.435 13.88C153.888 13.88 154.335 13.82 154.775 13.7C155.228 13.58 155.668 13.38 156.095 13.1C156.282 12.98 156.448 12.9267 156.595 12.94C156.755 12.94 156.882 12.9867 156.975 13.08C157.068 13.16 157.128 13.2667 157.155 13.4C157.195 13.52 157.182 13.6533 157.115 13.8C157.062 13.9467 156.948 14.0733 156.775 14.18C156.335 14.5 155.815 14.7467 155.215 14.92C154.615 15.0933 154.022 15.18 153.435 15.18ZM162.98 15.18C162.38 15.18 161.773 15.1067 161.16 14.96C160.56 14.8133 160 14.56 159.48 14.2C159.346 14.1067 159.253 14 159.2 13.88C159.146 13.7467 159.126 13.62 159.14 13.5C159.166 13.3667 159.22 13.2533 159.3 13.16C159.393 13.0667 159.5 13.0133 159.62 13C159.753 12.9733 159.9 13 160.06 13.08C160.58 13.4 161.08 13.6267 161.56 13.76C162.053 13.88 162.54 13.94 163.02 13.94C163.78 13.94 164.353 13.8 164.74 13.52C165.126 13.24 165.32 12.86 165.32 12.38C165.32 12.0067 165.193 11.7133 164.94 11.5C164.686 11.2733 164.286 11.1 163.74 10.98L161.92 10.58C161.08 10.4067 160.453 10.1067 160.04 9.68C159.64 9.25333 159.44 8.7 159.44 8.02C159.44 7.42 159.593 6.90667 159.9 6.48C160.22 6.04 160.666 5.7 161.24 5.46C161.813 5.22 162.48 5.1 163.24 5.1C163.826 5.1 164.38 5.18 164.9 5.34C165.433 5.48667 165.913 5.72667 166.34 6.06C166.473 6.15333 166.56 6.26667 166.6 6.4C166.653 6.52 166.66 6.64667 166.62 6.78C166.593 6.9 166.533 7.00667 166.44 7.1C166.346 7.18 166.233 7.22667 166.1 7.24C165.966 7.25333 165.826 7.21333 165.68 7.12C165.28 6.85333 164.873 6.66 164.46 6.54C164.046 6.40667 163.64 6.34 163.24 6.34C162.493 6.34 161.926 6.48667 161.54 6.78C161.153 7.07333 160.96 7.46 160.96 7.94C160.96 8.31333 161.08 8.62 161.32 8.86C161.56 9.1 161.933 9.27333 162.44 9.38L164.26 9.76C165.126 9.94667 165.773 10.2467 166.2 10.66C166.64 11.06 166.86 11.6067 166.86 12.3C166.86 13.18 166.506 13.88 165.8 14.4C165.093 14.92 164.153 15.18 162.98 15.18ZM175.805 15.14C175.552 15.14 175.352 15.0667 175.205 14.92C175.072 14.7733 175.005 14.5667 175.005 14.3V6.54H173.725C173.512 6.54 173.338 6.48667 173.205 6.38C173.085 6.26 173.025 6.1 173.025 5.9C173.025 5.7 173.085 5.54667 173.205 5.44C173.338 5.33333 173.512 5.28 173.725 5.28H175.445L175.005 5.7V4.94C175.005 3.67333 175.312 2.70667 175.925 2.04C176.552 1.37333 177.465 0.986666 178.665 0.879999L179.245 0.819999C179.432 0.806666 179.578 0.839999 179.685 0.919999C179.805 0.999999 179.878 1.1 179.905 1.22C179.945 1.34 179.952 1.46667 179.925 1.6C179.898 1.72 179.838 1.82667 179.745 1.92C179.652 2.01333 179.538 2.06667 179.405 2.08L178.945 2.12C178.132 2.18667 177.538 2.43333 177.165 2.86C176.805 3.28667 176.625 3.91333 176.625 4.74V5.58L176.385 5.28H178.785C179.012 5.28 179.185 5.33333 179.305 5.44C179.425 5.54667 179.485 5.7 179.485 5.9C179.485 6.1 179.425 6.26 179.305 6.38C179.185 6.48667 179.012 6.54 178.785 6.54H176.625V14.3C176.625 14.86 176.352 15.14 175.805 15.14ZM184.912 15.18C183.965 15.18 183.145 14.9733 182.452 14.56C181.758 14.1467 181.218 13.5667 180.832 12.82C180.458 12.06 180.272 11.1667 180.272 10.14C180.272 9.36667 180.378 8.67333 180.592 8.06C180.805 7.43333 181.118 6.9 181.532 6.46C181.945 6.02 182.432 5.68667 182.992 5.46C183.565 5.22 184.205 5.1 184.912 5.1C185.858 5.1 186.678 5.30667 187.372 5.72C188.065 6.13333 188.598 6.72 188.972 7.48C189.358 8.22667 189.552 9.11333 189.552 10.14C189.552 10.9133 189.445 11.6067 189.232 12.22C189.018 12.8333 188.705 13.3667 188.292 13.82C187.878 14.26 187.385 14.6 186.812 14.84C186.252 15.0667 185.618 15.18 184.912 15.18ZM184.912 13.88C185.512 13.88 186.038 13.7333 186.492 13.44C186.945 13.1467 187.292 12.72 187.532 12.16C187.785 11.6 187.912 10.9267 187.912 10.14C187.912 8.92667 187.638 8 187.092 7.36C186.558 6.72 185.832 6.4 184.912 6.4C184.298 6.4 183.765 6.54667 183.312 6.84C182.872 7.12 182.525 7.54 182.272 8.1C182.032 8.64667 181.912 9.32667 181.912 10.14C181.912 11.34 182.185 12.2667 182.732 12.92C183.278 13.56 184.005 13.88 184.912 13.88ZM192.805 15.14C192.538 15.14 192.332 15.0667 192.185 14.92C192.052 14.7733 191.985 14.5667 191.985 14.3V5.96C191.985 5.69333 192.052 5.49333 192.185 5.36C192.318 5.21333 192.512 5.14 192.765 5.14C193.018 5.14 193.212 5.21333 193.345 5.36C193.492 5.49333 193.565 5.69333 193.565 5.96V7.58H193.365C193.578 6.79333 193.985 6.18667 194.585 5.76C195.185 5.33333 195.925 5.10667 196.805 5.08C197.005 5.06667 197.165 5.11333 197.285 5.22C197.405 5.31333 197.472 5.48 197.485 5.72C197.498 5.94667 197.445 6.12667 197.325 6.26C197.205 6.39333 197.018 6.47333 196.765 6.5L196.445 6.54C195.538 6.62 194.838 6.91333 194.345 7.42C193.865 7.91333 193.625 8.59333 193.625 9.46V14.3C193.625 14.5667 193.552 14.7733 193.405 14.92C193.272 15.0667 193.072 15.14 192.805 15.14ZM199.993 15.14C199.726 15.14 199.526 15.0667 199.393 14.92C199.259 14.7733 199.193 14.5667 199.193 14.3V5.96C199.193 5.69333 199.259 5.49333 199.393 5.36C199.526 5.21333 199.719 5.14 199.973 5.14C200.226 5.14 200.419 5.21333 200.553 5.36C200.699 5.49333 200.773 5.69333 200.773 5.96V7.72L200.553 7.44C200.806 6.69333 201.213 6.12 201.773 5.72C202.346 5.30667 203.026 5.1 203.813 5.1C204.639 5.1 205.306 5.3 205.813 5.7C206.333 6.08667 206.679 6.69333 206.853 7.52H206.553C206.793 6.77333 207.219 6.18667 207.833 5.76C208.459 5.32 209.186 5.1 210.013 5.1C210.746 5.1 211.346 5.24 211.813 5.52C212.293 5.8 212.653 6.22667 212.893 6.8C213.133 7.36 213.253 8.07333 213.253 8.94V14.3C213.253 14.5667 213.179 14.7733 213.033 14.92C212.899 15.0667 212.699 15.14 212.433 15.14C212.179 15.14 211.979 15.0667 211.833 14.92C211.699 14.7733 211.633 14.5667 211.633 14.3V9.02C211.633 8.12667 211.479 7.47333 211.173 7.06C210.866 6.63333 210.346 6.42 209.613 6.42C208.813 6.42 208.179 6.7 207.713 7.26C207.259 7.80667 207.033 8.55333 207.033 9.5V14.3C207.033 14.5667 206.959 14.7733 206.813 14.92C206.679 15.0667 206.479 15.14 206.213 15.14C205.959 15.14 205.759 15.0667 205.613 14.92C205.479 14.7733 205.413 14.5667 205.413 14.3V9.02C205.413 8.12667 205.253 7.47333 204.933 7.06C204.626 6.63333 204.113 6.42 203.393 6.42C202.593 6.42 201.959 6.7 201.493 7.26C201.039 7.80667 200.813 8.55333 200.813 9.5V14.3C200.813 14.86 200.539 15.14 199.993 15.14ZM223.018 15C222.778 15 222.591 14.94 222.458 14.82C222.325 14.6867 222.258 14.5067 222.258 14.28C222.258 14.0533 222.325 13.8867 222.458 13.78C222.591 13.66 222.778 13.6 223.018 13.6H225.618V2.26H226.478L223.578 4.18C223.405 4.27333 223.238 4.31333 223.078 4.3C222.931 4.28667 222.805 4.23333 222.698 4.14C222.605 4.03333 222.538 3.91333 222.498 3.78C222.458 3.63333 222.465 3.48667 222.518 3.34C222.571 3.18 222.685 3.04667 222.858 2.94L225.618 1.12C225.791 1.01333 225.958 0.926666 226.118 0.86C226.278 0.793333 226.438 0.76 226.598 0.76C226.785 0.76 226.938 0.82 227.058 0.94C227.191 1.04667 227.258 1.22 227.258 1.46V13.6H229.658C229.898 13.6 230.085 13.66 230.218 13.78C230.351 13.8867 230.418 14.0533 230.418 14.28C230.418 14.52 230.351 14.7 230.218 14.82C230.085 14.94 229.898 15 229.658 15H223.018ZM239.386 15.14C239.12 15.14 238.92 15.0667 238.786 14.92C238.653 14.7733 238.586 14.5667 238.586 14.3V1.58C238.586 1.31333 238.653 1.11333 238.786 0.979999C238.92 0.833333 239.12 0.76 239.386 0.76C239.64 0.76 239.84 0.833333 239.986 0.979999C240.133 1.11333 240.206 1.31333 240.206 1.58V7.44H239.946C240.226 6.66667 240.68 6.08667 241.306 5.7C241.946 5.3 242.68 5.1 243.506 5.1C244.28 5.1 244.92 5.24 245.426 5.52C245.946 5.8 246.333 6.22667 246.586 6.8C246.84 7.36 246.966 8.07333 246.966 8.94V14.3C246.966 14.5667 246.893 14.7733 246.746 14.92C246.613 15.0667 246.42 15.14 246.166 15.14C245.9 15.14 245.693 15.0667 245.546 14.92C245.413 14.7733 245.346 14.5667 245.346 14.3V9.04C245.346 8.13333 245.166 7.47333 244.806 7.06C244.46 6.63333 243.9 6.42 243.126 6.42C242.233 6.42 241.52 6.7 240.986 7.26C240.466 7.80667 240.206 8.54 240.206 9.46V14.3C240.206 14.86 239.933 15.14 239.386 15.14ZM254.334 15.18C253.307 15.18 252.42 14.98 251.674 14.58C250.94 14.1667 250.367 13.5867 249.954 12.84C249.554 12.0933 249.354 11.2 249.354 10.16C249.354 9.14667 249.554 8.26667 249.954 7.52C250.354 6.76 250.9 6.16667 251.594 5.74C252.3 5.31333 253.114 5.1 254.034 5.1C254.687 5.1 255.274 5.21333 255.794 5.44C256.314 5.65333 256.754 5.96667 257.114 6.38C257.487 6.79333 257.767 7.29333 257.954 7.88C258.154 8.46667 258.254 9.12667 258.254 9.86C258.254 10.0733 258.194 10.2333 258.074 10.34C257.954 10.4333 257.78 10.48 257.554 10.48H250.594V9.42H257.174L256.854 9.68C256.854 8.96 256.747 8.35333 256.534 7.86C256.32 7.35333 256.007 6.96667 255.594 6.7C255.194 6.43333 254.687 6.3 254.074 6.3C253.394 6.3 252.814 6.46 252.334 6.78C251.867 7.08667 251.514 7.52 251.274 8.08C251.034 8.62667 250.914 9.26667 250.914 10V10.12C250.914 11.3467 251.207 12.28 251.794 12.92C252.394 13.56 253.24 13.88 254.334 13.88C254.787 13.88 255.234 13.82 255.674 13.7C256.127 13.58 256.567 13.38 256.994 13.1C257.18 12.98 257.347 12.9267 257.494 12.94C257.654 12.94 257.78 12.9867 257.874 13.08C257.967 13.16 258.027 13.2667 258.054 13.4C258.094 13.52 258.08 13.6533 258.014 13.8C257.96 13.9467 257.847 14.0733 257.674 14.18C257.234 14.5 256.714 14.7467 256.114 14.92C255.514 15.0933 254.92 15.18 254.334 15.18ZM264.718 15.18C263.745 15.18 262.905 14.9667 262.198 14.54C261.491 14.1133 260.945 13.52 260.558 12.76C260.185 11.9867 259.998 11.0933 259.998 10.08C259.998 9.30667 260.105 8.61333 260.318 8C260.531 7.38667 260.845 6.86667 261.258 6.44C261.671 6 262.165 5.66667 262.738 5.44C263.325 5.21333 263.985 5.1 264.718 5.1C265.198 5.1 265.698 5.17333 266.218 5.32C266.738 5.46667 267.211 5.72 267.638 6.08C267.771 6.17333 267.858 6.28667 267.898 6.42C267.938 6.55333 267.938 6.68667 267.898 6.82C267.858 6.94 267.791 7.04667 267.698 7.14C267.605 7.22 267.485 7.26667 267.338 7.28C267.205 7.29333 267.065 7.24667 266.918 7.14C266.571 6.87333 266.218 6.68667 265.858 6.58C265.498 6.47333 265.151 6.42 264.818 6.42C264.298 6.42 263.845 6.50667 263.458 6.68C263.071 6.84 262.745 7.07333 262.478 7.38C262.211 7.68667 262.005 8.06667 261.858 8.52C261.725 8.97333 261.658 9.5 261.658 10.1C261.658 11.26 261.931 12.18 262.478 12.86C263.025 13.5267 263.805 13.86 264.818 13.86C265.151 13.86 265.491 13.8067 265.838 13.7C266.198 13.5933 266.558 13.4067 266.918 13.14C267.065 13.0333 267.205 12.9867 267.338 13C267.471 13.0133 267.585 13.0667 267.678 13.16C267.771 13.24 267.831 13.3467 267.858 13.48C267.898 13.6133 267.898 13.7467 267.858 13.88C267.818 14 267.731 14.1067 267.598 14.2C267.171 14.5467 266.705 14.8 266.198 14.96C265.691 15.1067 265.198 15.18 264.718 15.18ZM273.756 15.18C272.996 15.18 272.356 15.0467 271.836 14.78C271.329 14.5 270.949 14.1 270.696 13.58C270.443 13.0467 270.316 12.4 270.316 11.64V6.54H268.976C268.749 6.54 268.576 6.48667 268.456 6.38C268.336 6.26 268.276 6.1 268.276 5.9C268.276 5.7 268.336 5.54667 268.456 5.44C268.576 5.33333 268.749 5.28 268.976 5.28H270.316V2.98C270.316 2.71333 270.389 2.51333 270.536 2.38C270.683 2.23333 270.883 2.16 271.136 2.16C271.389 2.16 271.583 2.23333 271.716 2.38C271.863 2.51333 271.936 2.71333 271.936 2.98V5.28H274.456C274.683 5.28 274.856 5.33333 274.976 5.44C275.096 5.54667 275.156 5.7 275.156 5.9C275.156 6.1 275.096 6.26 274.976 6.38C274.856 6.48667 274.683 6.54 274.456 6.54H271.936V11.48C271.936 12.24 272.096 12.82 272.416 13.22C272.736 13.6067 273.256 13.8 273.976 13.8C274.229 13.8 274.443 13.7733 274.616 13.72C274.803 13.6667 274.956 13.64 275.076 13.64C275.196 13.6267 275.296 13.6667 275.376 13.76C275.456 13.8533 275.496 14.0133 275.496 14.24C275.496 14.4 275.463 14.5467 275.396 14.68C275.343 14.8133 275.243 14.9067 275.096 14.96C274.936 15.0133 274.723 15.06 274.456 15.1C274.203 15.1533 273.969 15.18 273.756 15.18ZM279.908 15.18C279.241 15.18 278.641 15.0533 278.108 14.8C277.588 14.5333 277.175 14.1733 276.868 13.72C276.561 13.2667 276.408 12.76 276.408 12.2C276.408 11.48 276.588 10.9133 276.948 10.5C277.321 10.0867 277.928 9.79333 278.768 9.62C279.621 9.44667 280.781 9.36 282.248 9.36H283.148V10.42H282.268C281.188 10.42 280.335 10.4733 279.708 10.58C279.095 10.6733 278.661 10.84 278.408 11.08C278.168 11.32 278.048 11.66 278.048 12.1C278.048 12.6467 278.235 13.0933 278.608 13.44C278.995 13.7867 279.515 13.96 280.168 13.96C280.701 13.96 281.168 13.8333 281.568 13.58C281.981 13.3267 282.301 12.98 282.528 12.54C282.768 12.1 282.888 11.5933 282.888 11.02V8.74C282.888 7.91333 282.721 7.32 282.388 6.96C282.055 6.58667 281.508 6.4 280.748 6.4C280.281 6.4 279.815 6.46 279.348 6.58C278.881 6.7 278.388 6.89333 277.868 7.16C277.681 7.25333 277.521 7.28667 277.388 7.26C277.255 7.22 277.148 7.14667 277.068 7.04C276.988 6.93333 276.941 6.81333 276.928 6.68C276.915 6.53333 276.941 6.39333 277.008 6.26C277.088 6.12667 277.208 6.02 277.368 5.94C277.955 5.64667 278.535 5.43333 279.108 5.3C279.681 5.16667 280.228 5.1 280.748 5.1C281.588 5.1 282.281 5.24 282.828 5.52C283.375 5.78667 283.781 6.2 284.048 6.76C284.315 7.30667 284.448 8.01333 284.448 8.88V14.3C284.448 14.5667 284.381 14.7733 284.248 14.92C284.128 15.0667 283.948 15.14 283.708 15.14C283.455 15.14 283.261 15.0667 283.128 14.92C282.995 14.7733 282.928 14.5667 282.928 14.3V12.74H283.108C283.001 13.2467 282.795 13.68 282.488 14.04C282.195 14.4 281.828 14.68 281.388 14.88C280.948 15.08 280.455 15.18 279.908 15.18ZM288.274 15.14C288.007 15.14 287.8 15.0667 287.654 14.92C287.52 14.7733 287.454 14.5667 287.454 14.3V5.96C287.454 5.69333 287.52 5.49333 287.654 5.36C287.787 5.21333 287.98 5.14 288.234 5.14C288.487 5.14 288.68 5.21333 288.814 5.36C288.96 5.49333 289.034 5.69333 289.034 5.96V7.58H288.834C289.047 6.79333 289.454 6.18667 290.054 5.76C290.654 5.33333 291.394 5.10667 292.274 5.08C292.474 5.06667 292.634 5.11333 292.754 5.22C292.874 5.31333 292.94 5.48 292.954 5.72C292.967 5.94667 292.914 6.12667 292.794 6.26C292.674 6.39333 292.487 6.47333 292.234 6.5L291.914 6.54C291.007 6.62 290.307 6.91333 289.814 7.42C289.334 7.91333 289.094 8.59333 289.094 9.46V14.3C289.094 14.5667 289.02 14.7733 288.874 14.92C288.74 15.0667 288.54 15.14 288.274 15.14ZM298.884 15.18C297.858 15.18 296.971 14.98 296.224 14.58C295.491 14.1667 294.918 13.5867 294.504 12.84C294.104 12.0933 293.904 11.2 293.904 10.16C293.904 9.14667 294.104 8.26667 294.504 7.52C294.904 6.76 295.451 6.16667 296.144 5.74C296.851 5.31333 297.664 5.1 298.584 5.1C299.238 5.1 299.824 5.21333 300.344 5.44C300.864 5.65333 301.304 5.96667 301.664 6.38C302.038 6.79333 302.318 7.29333 302.504 7.88C302.704 8.46667 302.804 9.12667 302.804 9.86C302.804 10.0733 302.744 10.2333 302.624 10.34C302.504 10.4333 302.331 10.48 302.104 10.48H295.144V9.42H301.724L301.404 9.68C301.404 8.96 301.298 8.35333 301.084 7.86C300.871 7.35333 300.558 6.96667 300.144 6.7C299.744 6.43333 299.238 6.3 298.624 6.3C297.944 6.3 297.364 6.46 296.884 6.78C296.418 7.08667 296.064 7.52 295.824 8.08C295.584 8.62667 295.464 9.26667 295.464 10V10.12C295.464 11.3467 295.758 12.28 296.344 12.92C296.944 13.56 297.791 13.88 298.884 13.88C299.338 13.88 299.784 13.82 300.224 13.7C300.678 13.58 301.118 13.38 301.544 13.1C301.731 12.98 301.898 12.9267 302.044 12.94C302.204 12.94 302.331 12.9867 302.424 13.08C302.518 13.16 302.578 13.2667 302.604 13.4C302.644 13.52 302.631 13.6533 302.564 13.8C302.511 13.9467 302.398 14.0733 302.224 14.18C301.784 14.5 301.264 14.7467 300.664 14.92C300.064 15.0933 299.471 15.18 298.884 15.18ZM305.929 15.08C305.596 15.08 305.329 14.98 305.129 14.78C304.929 14.5667 304.829 14.3 304.829 13.98C304.829 13.66 304.929 13.4 305.129 13.2C305.329 12.9867 305.596 12.88 305.929 12.88C306.262 12.88 306.522 12.9867 306.709 13.2C306.909 13.4 307.009 13.66 307.009 13.98C307.009 14.3 306.909 14.5667 306.709 14.78C306.522 14.98 306.262 15.08 305.929 15.08Z" fill="#646464"/>
</svg>
