<svg width="263" height="39" viewBox="0 0 263 39" fill="none" xmlns="http://www.w3.org/2000/svg">
<path d="M58.9652 23C58.7252 23 58.5386 22.94 58.4052 22.82C58.2719 22.6867 58.2052 22.5067 58.2052 22.28C58.2052 22.0533 58.2719 21.8867 58.4052 21.78C58.5386 21.66 58.7252 21.6 58.9652 21.6H61.5652V10.26H62.4252L59.5252 12.18C59.3519 12.2733 59.1852 12.3133 59.0252 12.3C58.8786 12.2867 58.7519 12.2333 58.6452 12.14C58.5519 12.0333 58.4852 11.9133 58.4452 11.78C58.4052 11.6333 58.4119 11.4867 58.4652 11.34C58.5186 11.18 58.6319 11.0467 58.8052 10.94L61.5652 9.12C61.7386 9.01333 61.9052 8.92667 62.0652 8.86C62.2252 8.79333 62.3852 8.76 62.5452 8.76C62.7319 8.76 62.8852 8.82 63.0052 8.94C63.1386 9.04667 63.2052 9.22 63.2052 9.46V21.6H65.6052C65.8452 21.6 66.0319 21.66 66.1652 21.78C66.2986 21.8867 66.3652 22.0533 66.3652 22.28C66.3652 22.52 66.2986 22.7 66.1652 22.82C66.0319 22.94 65.8452 23 65.6052 23H58.9652ZM74.4537 23.14C74.2403 23.14 74.067 23.0933 73.9337 23C73.8137 22.8933 73.7403 22.76 73.7137 22.6C73.7003 22.4267 73.7403 22.2333 73.8337 22.02L79.3337 9.5C79.4537 9.23333 79.5937 9.04667 79.7537 8.94C79.927 8.82 80.1137 8.76 80.3137 8.76C80.5137 8.76 80.6937 8.82 80.8537 8.94C81.027 9.04667 81.167 9.23333 81.2737 9.5L86.7937 22.02C86.9003 22.2333 86.9403 22.4267 86.9137 22.6C86.9003 22.7733 86.8337 22.9067 86.7137 23C86.5937 23.0933 86.427 23.14 86.2137 23.14C85.9737 23.14 85.7803 23.08 85.6337 22.96C85.487 22.8267 85.367 22.64 85.2737 22.4L83.7937 18.98L84.5937 19.4H75.9937L76.8137 18.98L75.3537 22.4C75.2337 22.6533 75.107 22.84 74.9737 22.96C74.8403 23.08 74.667 23.14 74.4537 23.14ZM80.2937 10.82L77.0737 18.4L76.5937 18.02H83.9937L83.5537 18.4L80.3337 10.82H80.2937ZM89.924 23.14C89.6573 23.14 89.4507 23.0667 89.304 22.92C89.1707 22.7733 89.104 22.5667 89.104 22.3V13.96C89.104 13.6933 89.1707 13.4933 89.304 13.36C89.4373 13.2133 89.6307 13.14 89.884 13.14C90.1373 13.14 90.3307 13.2133 90.464 13.36C90.6107 13.4933 90.684 13.6933 90.684 13.96V15.58H90.484C90.6973 14.7933 91.104 14.1867 91.704 13.76C92.304 13.3333 93.044 13.1067 93.924 13.08C94.124 13.0667 94.284 13.1133 94.404 13.22C94.524 13.3133 94.5907 13.48 94.604 13.72C94.6173 13.9467 94.564 14.1267 94.444 14.26C94.324 14.3933 94.1373 14.4733 93.884 14.5L93.564 14.54C92.6573 14.62 91.9573 14.9133 91.464 15.42C90.984 15.9133 90.744 16.5933 90.744 17.46V22.3C90.744 22.5667 90.6707 22.7733 90.524 22.92C90.3907 23.0667 90.1907 23.14 89.924 23.14ZM100.535 23.18C99.5081 23.18 98.6214 22.98 97.8748 22.58C97.1414 22.1667 96.5681 21.5867 96.1548 20.84C95.7548 20.0933 95.5548 19.2 95.5548 18.16C95.5548 17.1467 95.7548 16.2667 96.1548 15.52C96.5548 14.76 97.1014 14.1667 97.7948 13.74C98.5014 13.3133 99.3148 13.1 100.235 13.1C100.888 13.1 101.475 13.2133 101.995 13.44C102.515 13.6533 102.955 13.9667 103.315 14.38C103.688 14.7933 103.968 15.2933 104.155 15.88C104.355 16.4667 104.455 17.1267 104.455 17.86C104.455 18.0733 104.395 18.2333 104.275 18.34C104.155 18.4333 103.981 18.48 103.755 18.48H96.7948V17.42H103.375L103.055 17.68C103.055 16.96 102.948 16.3533 102.735 15.86C102.521 15.3533 102.208 14.9667 101.795 14.7C101.395 14.4333 100.888 14.3 100.275 14.3C99.5948 14.3 99.0148 14.46 98.5348 14.78C98.0681 15.0867 97.7148 15.52 97.4748 16.08C97.2348 16.6267 97.1148 17.2667 97.1148 18V18.12C97.1148 19.3467 97.4081 20.28 97.9948 20.92C98.5948 21.56 99.4414 21.88 100.535 21.88C100.988 21.88 101.435 21.82 101.875 21.7C102.328 21.58 102.768 21.38 103.195 21.1C103.381 20.98 103.548 20.9267 103.695 20.94C103.855 20.94 103.981 20.9867 104.075 21.08C104.168 21.16 104.228 21.2667 104.255 21.4C104.295 21.52 104.281 21.6533 104.215 21.8C104.161 21.9467 104.048 22.0733 103.875 22.18C103.435 22.5 102.915 22.7467 102.315 22.92C101.715 23.0933 101.121 23.18 100.535 23.18ZM112.056 15.88C111.856 15.88 111.696 15.8267 111.576 15.72C111.469 15.6133 111.416 15.46 111.416 15.26C111.416 15.06 111.469 14.9067 111.576 14.8C111.696 14.6933 111.856 14.64 112.056 14.64H120.816C121.016 14.64 121.169 14.6933 121.276 14.8C121.396 14.9067 121.456 15.06 121.456 15.26C121.456 15.46 121.396 15.6133 121.276 15.72C121.169 15.8267 121.016 15.88 120.816 15.88H112.056ZM112.056 19.86C111.856 19.86 111.696 19.8067 111.576 19.7C111.469 19.5933 111.416 19.44 111.416 19.24C111.416 19.04 111.469 18.8933 111.576 18.8C111.696 18.6933 111.856 18.64 112.056 18.64H120.816C121.016 18.64 121.169 18.6933 121.276 18.8C121.396 18.8933 121.456 19.04 121.456 19.24C121.456 19.4533 121.396 19.6133 121.276 19.72C121.169 19.8133 121.016 19.86 120.816 19.86H112.056ZM130.684 23C130.444 23 130.257 22.94 130.124 22.82C129.991 22.6867 129.924 22.5067 129.924 22.28C129.924 22.0533 129.991 21.8867 130.124 21.78C130.257 21.66 130.444 21.6 130.684 21.6H133.284V10.26H134.144L131.244 12.18C131.071 12.2733 130.904 12.3133 130.744 12.3C130.597 12.2867 130.471 12.2333 130.364 12.14C130.271 12.0333 130.204 11.9133 130.164 11.78C130.124 11.6333 130.131 11.4867 130.184 11.34C130.237 11.18 130.351 11.0467 130.524 10.94L133.284 9.12C133.457 9.01333 133.624 8.92667 133.784 8.86C133.944 8.79333 134.104 8.76 134.264 8.76C134.451 8.76 134.604 8.82 134.724 8.94C134.857 9.04667 134.924 9.22 134.924 9.46V21.6H137.324C137.564 21.6 137.751 21.66 137.884 21.78C138.017 21.8867 138.084 22.0533 138.084 22.28C138.084 22.52 138.017 22.7 137.884 22.82C137.751 22.94 137.564 23 137.324 23H130.684ZM145.576 23.18C143.963 23.18 142.736 22.56 141.896 21.32C141.056 20.08 140.636 18.2867 140.636 15.94C140.636 14.3667 140.823 13.0467 141.196 11.98C141.57 10.9 142.123 10.0867 142.856 9.54C143.603 8.99333 144.51 8.72 145.576 8.72C147.203 8.72 148.43 9.33333 149.256 10.56C150.096 11.7733 150.516 13.56 150.516 15.92C150.516 17.4933 150.33 18.82 149.956 19.9C149.583 20.98 149.03 21.8 148.296 22.36C147.563 22.9067 146.656 23.18 145.576 23.18ZM145.576 21.76C146.696 21.76 147.523 21.2867 148.056 20.34C148.603 19.38 148.876 17.9067 148.876 15.92C148.876 13.92 148.603 12.46 148.056 11.54C147.523 10.6067 146.696 10.14 145.576 10.14C144.47 10.14 143.643 10.6067 143.096 11.54C142.55 12.4733 142.276 13.9333 142.276 15.92C142.276 17.9067 142.55 19.38 143.096 20.34C143.643 21.2867 144.47 21.76 145.576 21.76ZM157.568 23.18C155.955 23.18 154.728 22.56 153.888 21.32C153.048 20.08 152.628 18.2867 152.628 15.94C152.628 14.3667 152.815 13.0467 153.188 11.98C153.562 10.9 154.115 10.0867 154.848 9.54C155.595 8.99333 156.502 8.72 157.568 8.72C159.195 8.72 160.422 9.33333 161.248 10.56C162.088 11.7733 162.508 13.56 162.508 15.92C162.508 17.4933 162.322 18.82 161.948 19.9C161.575 20.98 161.022 21.8 160.288 22.36C159.555 22.9067 158.648 23.18 157.568 23.18ZM157.568 21.76C158.688 21.76 159.515 21.2867 160.048 20.34C160.595 19.38 160.868 17.9067 160.868 15.92C160.868 13.92 160.595 12.46 160.048 11.54C159.515 10.6067 158.688 10.14 157.568 10.14C156.462 10.14 155.635 10.6067 155.088 11.54C154.542 12.4733 154.268 13.9333 154.268 15.92C154.268 17.9067 154.542 19.38 155.088 20.34C155.635 21.2867 156.462 21.76 157.568 21.76ZM173.517 23.18C172.917 23.18 172.31 23.1067 171.697 22.96C171.097 22.8133 170.537 22.56 170.017 22.2C169.883 22.1067 169.79 22 169.737 21.88C169.683 21.7467 169.663 21.62 169.677 21.5C169.703 21.3667 169.757 21.2533 169.837 21.16C169.93 21.0667 170.037 21.0133 170.157 21C170.29 20.9733 170.437 21 170.597 21.08C171.117 21.4 171.617 21.6267 172.097 21.76C172.59 21.88 173.077 21.94 173.557 21.94C174.317 21.94 174.89 21.8 175.277 21.52C175.663 21.24 175.857 20.86 175.857 20.38C175.857 20.0067 175.73 19.7133 175.477 19.5C175.223 19.2733 174.823 19.1 174.277 18.98L172.457 18.58C171.617 18.4067 170.99 18.1067 170.577 17.68C170.177 17.2533 169.977 16.7 169.977 16.02C169.977 15.42 170.13 14.9067 170.437 14.48C170.757 14.04 171.203 13.7 171.777 13.46C172.35 13.22 173.017 13.1 173.777 13.1C174.363 13.1 174.917 13.18 175.437 13.34C175.97 13.4867 176.45 13.7267 176.877 14.06C177.01 14.1533 177.097 14.2667 177.137 14.4C177.19 14.52 177.197 14.6467 177.157 14.78C177.13 14.9 177.07 15.0067 176.977 15.1C176.883 15.18 176.77 15.2267 176.637 15.24C176.503 15.2533 176.363 15.2133 176.217 15.12C175.817 14.8533 175.41 14.66 174.997 14.54C174.583 14.4067 174.177 14.34 173.777 14.34C173.03 14.34 172.463 14.4867 172.077 14.78C171.69 15.0733 171.497 15.46 171.497 15.94C171.497 16.3133 171.617 16.62 171.857 16.86C172.097 17.1 172.47 17.2733 172.977 17.38L174.797 17.76C175.663 17.9467 176.31 18.2467 176.737 18.66C177.177 19.06 177.397 19.6067 177.397 20.3C177.397 21.18 177.043 21.88 176.337 22.4C175.63 22.92 174.69 23.18 173.517 23.18ZM187.686 26.74C187.419 26.74 187.212 26.6667 187.066 26.52C186.932 26.3867 186.866 26.1867 186.866 25.92V20.72H187.086C186.872 21.4667 186.452 22.0667 185.826 22.52C185.199 22.96 184.446 23.18 183.566 23.18C182.699 23.18 181.939 22.9733 181.286 22.56C180.646 22.1467 180.146 21.5667 179.786 20.82C179.439 20.06 179.266 19.1667 179.266 18.14C179.266 17.1 179.439 16.2067 179.786 15.46C180.146 14.7 180.646 14.12 181.286 13.72C181.939 13.3067 182.699 13.1 183.566 13.1C184.446 13.1 185.199 13.3267 185.826 13.78C186.466 14.22 186.892 14.82 187.106 15.58L186.886 15.86V13.96C186.886 13.6933 186.952 13.4933 187.086 13.36C187.232 13.2133 187.432 13.14 187.686 13.14C187.952 13.14 188.152 13.2133 188.286 13.36C188.419 13.4933 188.486 13.6933 188.486 13.96V25.92C188.486 26.1867 188.412 26.3867 188.266 26.52C188.132 26.6667 187.939 26.74 187.686 26.74ZM183.906 21.88C184.506 21.88 185.032 21.7333 185.486 21.44C185.939 21.1467 186.286 20.72 186.526 20.16C186.779 19.6 186.906 18.9267 186.906 18.14C186.906 16.9267 186.632 16 186.086 15.36C185.552 14.72 184.826 14.4 183.906 14.4C183.292 14.4 182.759 14.5467 182.306 14.84C181.866 15.12 181.519 15.54 181.266 16.1C181.026 16.6467 180.906 17.3267 180.906 18.14C180.906 19.34 181.179 20.2667 181.726 20.92C182.272 21.56 182.999 21.88 183.906 21.88ZM197.522 23.14C197.255 23.14 197.055 23.0667 196.922 22.92C196.789 22.7733 196.722 22.5667 196.722 22.3V13.96C196.722 13.6933 196.789 13.4933 196.922 13.36C197.055 13.2133 197.249 13.14 197.502 13.14C197.755 13.14 197.949 13.2133 198.082 13.36C198.229 13.4933 198.302 13.6933 198.302 13.96V15.72L198.082 15.44C198.335 14.6933 198.742 14.12 199.302 13.72C199.875 13.3067 200.555 13.1 201.342 13.1C202.169 13.1 202.835 13.3 203.342 13.7C203.862 14.0867 204.209 14.6933 204.382 15.52H204.082C204.322 14.7733 204.749 14.1867 205.362 13.76C205.989 13.32 206.715 13.1 207.542 13.1C208.275 13.1 208.875 13.24 209.342 13.52C209.822 13.8 210.182 14.2267 210.422 14.8C210.662 15.36 210.782 16.0733 210.782 16.94V22.3C210.782 22.5667 210.709 22.7733 210.562 22.92C210.429 23.0667 210.229 23.14 209.962 23.14C209.709 23.14 209.509 23.0667 209.362 22.92C209.229 22.7733 209.162 22.5667 209.162 22.3V17.02C209.162 16.1267 209.009 15.4733 208.702 15.06C208.395 14.6333 207.875 14.42 207.142 14.42C206.342 14.42 205.709 14.7 205.242 15.26C204.789 15.8067 204.562 16.5533 204.562 17.5V22.3C204.562 22.5667 204.489 22.7733 204.342 22.92C204.209 23.0667 204.009 23.14 203.742 23.14C203.489 23.14 203.289 23.0667 203.142 22.92C203.009 22.7733 202.942 22.5667 202.942 22.3V17.02C202.942 16.1267 202.782 15.4733 202.462 15.06C202.155 14.6333 201.642 14.42 200.922 14.42C200.122 14.42 199.489 14.7 199.022 15.26C198.569 15.8067 198.342 16.5533 198.342 17.5V22.3C198.342 22.86 198.069 23.14 197.522 23.14Z" fill="#646464"/>
<path d="M58.9652 23C58.7252 23 58.5386 22.94 58.4052 22.82C58.2719 22.6867 58.2052 22.5067 58.2052 22.28C58.2052 22.0533 58.2719 21.8867 58.4052 21.78C58.5386 21.66 58.7252 21.6 58.9652 21.6H61.5652V10.26H62.4252L59.5252 12.18C59.3519 12.2733 59.1852 12.3133 59.0252 12.3C58.8786 12.2867 58.7519 12.2333 58.6452 12.14C58.5519 12.0333 58.4852 11.9133 58.4452 11.78C58.4052 11.6333 58.4119 11.4867 58.4652 11.34C58.5186 11.18 58.6319 11.0467 58.8052 10.94L61.5652 9.12C61.7386 9.01333 61.9052 8.92667 62.0652 8.86C62.2252 8.79333 62.3852 8.76 62.5452 8.76C62.7319 8.76 62.8852 8.82 63.0052 8.94C63.1386 9.04667 63.2052 9.22 63.2052 9.46V21.6H65.6052C65.8452 21.6 66.0319 21.66 66.1652 21.78C66.2986 21.8867 66.3652 22.0533 66.3652 22.28C66.3652 22.52 66.2986 22.7 66.1652 22.82C66.0319 22.94 65.8452 23 65.6052 23H58.9652ZM74.4537 23.14C74.2403 23.14 74.067 23.0933 73.9337 23C73.8137 22.8933 73.7403 22.76 73.7137 22.6C73.7003 22.4267 73.7403 22.2333 73.8337 22.02L79.3337 9.5C79.4537 9.23333 79.5937 9.04667 79.7537 8.94C79.927 8.82 80.1137 8.76 80.3137 8.76C80.5137 8.76 80.6937 8.82 80.8537 8.94C81.027 9.04667 81.167 9.23333 81.2737 9.5L86.7937 22.02C86.9003 22.2333 86.9403 22.4267 86.9137 22.6C86.9003 22.7733 86.8337 22.9067 86.7137 23C86.5937 23.0933 86.427 23.14 86.2137 23.14C85.9737 23.14 85.7803 23.08 85.6337 22.96C85.487 22.8267 85.367 22.64 85.2737 22.4L83.7937 18.98L84.5937 19.4H75.9937L76.8137 18.98L75.3537 22.4C75.2337 22.6533 75.107 22.84 74.9737 22.96C74.8403 23.08 74.667 23.14 74.4537 23.14ZM80.2937 10.82L77.0737 18.4L76.5937 18.02H83.9937L83.5537 18.4L80.3337 10.82H80.2937ZM89.924 23.14C89.6573 23.14 89.4507 23.0667 89.304 22.92C89.1707 22.7733 89.104 22.5667 89.104 22.3V13.96C89.104 13.6933 89.1707 13.4933 89.304 13.36C89.4373 13.2133 89.6307 13.14 89.884 13.14C90.1373 13.14 90.3307 13.2133 90.464 13.36C90.6107 13.4933 90.684 13.6933 90.684 13.96V15.58H90.484C90.6973 14.7933 91.104 14.1867 91.704 13.76C92.304 13.3333 93.044 13.1067 93.924 13.08C94.124 13.0667 94.284 13.1133 94.404 13.22C94.524 13.3133 94.5907 13.48 94.604 13.72C94.6173 13.9467 94.564 14.1267 94.444 14.26C94.324 14.3933 94.1373 14.4733 93.884 14.5L93.564 14.54C92.6573 14.62 91.9573 14.9133 91.464 15.42C90.984 15.9133 90.744 16.5933 90.744 17.46V22.3C90.744 22.5667 90.6707 22.7733 90.524 22.92C90.3907 23.0667 90.1907 23.14 89.924 23.14ZM100.535 23.18C99.5081 23.18 98.6214 22.98 97.8748 22.58C97.1414 22.1667 96.5681 21.5867 96.1548 20.84C95.7548 20.0933 95.5548 19.2 95.5548 18.16C95.5548 17.1467 95.7548 16.2667 96.1548 15.52C96.5548 14.76 97.1014 14.1667 97.7948 13.74C98.5014 13.3133 99.3148 13.1 100.235 13.1C100.888 13.1 101.475 13.2133 101.995 13.44C102.515 13.6533 102.955 13.9667 103.315 14.38C103.688 14.7933 103.968 15.2933 104.155 15.88C104.355 16.4667 104.455 17.1267 104.455 17.86C104.455 18.0733 104.395 18.2333 104.275 18.34C104.155 18.4333 103.981 18.48 103.755 18.48H96.7948V17.42H103.375L103.055 17.68C103.055 16.96 102.948 16.3533 102.735 15.86C102.521 15.3533 102.208 14.9667 101.795 14.7C101.395 14.4333 100.888 14.3 100.275 14.3C99.5948 14.3 99.0148 14.46 98.5348 14.78C98.0681 15.0867 97.7148 15.52 97.4748 16.08C97.2348 16.6267 97.1148 17.2667 97.1148 18V18.12C97.1148 19.3467 97.4081 20.28 97.9948 20.92C98.5948 21.56 99.4414 21.88 100.535 21.88C100.988 21.88 101.435 21.82 101.875 21.7C102.328 21.58 102.768 21.38 103.195 21.1C103.381 20.98 103.548 20.9267 103.695 20.94C103.855 20.94 103.981 20.9867 104.075 21.08C104.168 21.16 104.228 21.2667 104.255 21.4C104.295 21.52 104.281 21.6533 104.215 21.8C104.161 21.9467 104.048 22.0733 103.875 22.18C103.435 22.5 102.915 22.7467 102.315 22.92C101.715 23.0933 101.121 23.18 100.535 23.18ZM112.056 15.88C111.856 15.88 111.696 15.8267 111.576 15.72C111.469 15.6133 111.416 15.46 111.416 15.26C111.416 15.06 111.469 14.9067 111.576 14.8C111.696 14.6933 111.856 14.64 112.056 14.64H120.816C121.016 14.64 121.169 14.6933 121.276 14.8C121.396 14.9067 121.456 15.06 121.456 15.26C121.456 15.46 121.396 15.6133 121.276 15.72C121.169 15.8267 121.016 15.88 120.816 15.88H112.056ZM112.056 19.86C111.856 19.86 111.696 19.8067 111.576 19.7C111.469 19.5933 111.416 19.44 111.416 19.24C111.416 19.04 111.469 18.8933 111.576 18.8C111.696 18.6933 111.856 18.64 112.056 18.64H120.816C121.016 18.64 121.169 18.6933 121.276 18.8C121.396 18.8933 121.456 19.04 121.456 19.24C121.456 19.4533 121.396 19.6133 121.276 19.72C121.169 19.8133 121.016 19.86 120.816 19.86H112.056ZM130.684 23C130.444 23 130.257 22.94 130.124 22.82C129.991 22.6867 129.924 22.5067 129.924 22.28C129.924 22.0533 129.991 21.8867 130.124 21.78C130.257 21.66 130.444 21.6 130.684 21.6H133.284V10.26H134.144L131.244 12.18C131.071 12.2733 130.904 12.3133 130.744 12.3C130.597 12.2867 130.471 12.2333 130.364 12.14C130.271 12.0333 130.204 11.9133 130.164 11.78C130.124 11.6333 130.131 11.4867 130.184 11.34C130.237 11.18 130.351 11.0467 130.524 10.94L133.284 9.12C133.457 9.01333 133.624 8.92667 133.784 8.86C133.944 8.79333 134.104 8.76 134.264 8.76C134.451 8.76 134.604 8.82 134.724 8.94C134.857 9.04667 134.924 9.22 134.924 9.46V21.6H137.324C137.564 21.6 137.751 21.66 137.884 21.78C138.017 21.8867 138.084 22.0533 138.084 22.28C138.084 22.52 138.017 22.7 137.884 22.82C137.751 22.94 137.564 23 137.324 23H130.684ZM145.576 23.18C143.963 23.18 142.736 22.56 141.896 21.32C141.056 20.08 140.636 18.2867 140.636 15.94C140.636 14.3667 140.823 13.0467 141.196 11.98C141.57 10.9 142.123 10.0867 142.856 9.54C143.603 8.99333 144.51 8.72 145.576 8.72C147.203 8.72 148.43 9.33333 149.256 10.56C150.096 11.7733 150.516 13.56 150.516 15.92C150.516 17.4933 150.33 18.82 149.956 19.9C149.583 20.98 149.03 21.8 148.296 22.36C147.563 22.9067 146.656 23.18 145.576 23.18ZM145.576 21.76C146.696 21.76 147.523 21.2867 148.056 20.34C148.603 19.38 148.876 17.9067 148.876 15.92C148.876 13.92 148.603 12.46 148.056 11.54C147.523 10.6067 146.696 10.14 145.576 10.14C144.47 10.14 143.643 10.6067 143.096 11.54C142.55 12.4733 142.276 13.9333 142.276 15.92C142.276 17.9067 142.55 19.38 143.096 20.34C143.643 21.2867 144.47 21.76 145.576 21.76ZM157.568 23.18C155.955 23.18 154.728 22.56 153.888 21.32C153.048 20.08 152.628 18.2867 152.628 15.94C152.628 14.3667 152.815 13.0467 153.188 11.98C153.562 10.9 154.115 10.0867 154.848 9.54C155.595 8.99333 156.502 8.72 157.568 8.72C159.195 8.72 160.422 9.33333 161.248 10.56C162.088 11.7733 162.508 13.56 162.508 15.92C162.508 17.4933 162.322 18.82 161.948 19.9C161.575 20.98 161.022 21.8 160.288 22.36C159.555 22.9067 158.648 23.18 157.568 23.18ZM157.568 21.76C158.688 21.76 159.515 21.2867 160.048 20.34C160.595 19.38 160.868 17.9067 160.868 15.92C160.868 13.92 160.595 12.46 160.048 11.54C159.515 10.6067 158.688 10.14 157.568 10.14C156.462 10.14 155.635 10.6067 155.088 11.54C154.542 12.4733 154.268 13.9333 154.268 15.92C154.268 17.9067 154.542 19.38 155.088 20.34C155.635 21.2867 156.462 21.76 157.568 21.76ZM173.517 23.18C172.917 23.18 172.31 23.1067 171.697 22.96C171.097 22.8133 170.537 22.56 170.017 22.2C169.883 22.1067 169.79 22 169.737 21.88C169.683 21.7467 169.663 21.62 169.677 21.5C169.703 21.3667 169.757 21.2533 169.837 21.16C169.93 21.0667 170.037 21.0133 170.157 21C170.29 20.9733 170.437 21 170.597 21.08C171.117 21.4 171.617 21.6267 172.097 21.76C172.59 21.88 173.077 21.94 173.557 21.94C174.317 21.94 174.89 21.8 175.277 21.52C175.663 21.24 175.857 20.86 175.857 20.38C175.857 20.0067 175.73 19.7133 175.477 19.5C175.223 19.2733 174.823 19.1 174.277 18.98L172.457 18.58C171.617 18.4067 170.99 18.1067 170.577 17.68C170.177 17.2533 169.977 16.7 169.977 16.02C169.977 15.42 170.13 14.9067 170.437 14.48C170.757 14.04 171.203 13.7 171.777 13.46C172.35 13.22 173.017 13.1 173.777 13.1C174.363 13.1 174.917 13.18 175.437 13.34C175.97 13.4867 176.45 13.7267 176.877 14.06C177.01 14.1533 177.097 14.2667 177.137 14.4C177.19 14.52 177.197 14.6467 177.157 14.78C177.13 14.9 177.07 15.0067 176.977 15.1C176.883 15.18 176.77 15.2267 176.637 15.24C176.503 15.2533 176.363 15.2133 176.217 15.12C175.817 14.8533 175.41 14.66 174.997 14.54C174.583 14.4067 174.177 14.34 173.777 14.34C173.03 14.34 172.463 14.4867 172.077 14.78C171.69 15.0733 171.497 15.46 171.497 15.94C171.497 16.3133 171.617 16.62 171.857 16.86C172.097 17.1 172.47 17.2733 172.977 17.38L174.797 17.76C175.663 17.9467 176.31 18.2467 176.737 18.66C177.177 19.06 177.397 19.6067 177.397 20.3C177.397 21.18 177.043 21.88 176.337 22.4C175.63 22.92 174.69 23.18 173.517 23.18ZM187.686 26.74C187.419 26.74 187.212 26.6667 187.066 26.52C186.932 26.3867 186.866 26.1867 186.866 25.92V20.72H187.086C186.872 21.4667 186.452 22.0667 185.826 22.52C185.199 22.96 184.446 23.18 183.566 23.18C182.699 23.18 181.939 22.9733 181.286 22.56C180.646 22.1467 180.146 21.5667 179.786 20.82C179.439 20.06 179.266 19.1667 179.266 18.14C179.266 17.1 179.439 16.2067 179.786 15.46C180.146 14.7 180.646 14.12 181.286 13.72C181.939 13.3067 182.699 13.1 183.566 13.1C184.446 13.1 185.199 13.3267 185.826 13.78C186.466 14.22 186.892 14.82 187.106 15.58L186.886 15.86V13.96C186.886 13.6933 186.952 13.4933 187.086 13.36C187.232 13.2133 187.432 13.14 187.686 13.14C187.952 13.14 188.152 13.2133 188.286 13.36C188.419 13.4933 188.486 13.6933 188.486 13.96V25.92C188.486 26.1867 188.412 26.3867 188.266 26.52C188.132 26.6667 187.939 26.74 187.686 26.74ZM183.906 21.88C184.506 21.88 185.032 21.7333 185.486 21.44C185.939 21.1467 186.286 20.72 186.526 20.16C186.779 19.6 186.906 18.9267 186.906 18.14C186.906 16.9267 186.632 16 186.086 15.36C185.552 14.72 184.826 14.4 183.906 14.4C183.292 14.4 182.759 14.5467 182.306 14.84C181.866 15.12 181.519 15.54 181.266 16.1C181.026 16.6467 180.906 17.3267 180.906 18.14C180.906 19.34 181.179 20.2667 181.726 20.92C182.272 21.56 182.999 21.88 183.906 21.88ZM197.522 23.14C197.255 23.14 197.055 23.0667 196.922 22.92C196.789 22.7733 196.722 22.5667 196.722 22.3V13.96C196.722 13.6933 196.789 13.4933 196.922 13.36C197.055 13.2133 197.249 13.14 197.502 13.14C197.755 13.14 197.949 13.2133 198.082 13.36C198.229 13.4933 198.302 13.6933 198.302 13.96V15.72L198.082 15.44C198.335 14.6933 198.742 14.12 199.302 13.72C199.875 13.3067 200.555 13.1 201.342 13.1C202.169 13.1 202.835 13.3 203.342 13.7C203.862 14.0867 204.209 14.6933 204.382 15.52H204.082C204.322 14.7733 204.749 14.1867 205.362 13.76C205.989 13.32 206.715 13.1 207.542 13.1C208.275 13.1 208.875 13.24 209.342 13.52C209.822 13.8 210.182 14.2267 210.422 14.8C210.662 15.36 210.782 16.0733 210.782 16.94V22.3C210.782 22.5667 210.709 22.7733 210.562 22.92C210.429 23.0667 210.229 23.14 209.962 23.14C209.709 23.14 209.509 23.0667 209.362 22.92C209.229 22.7733 209.162 22.5667 209.162 22.3V17.02C209.162 16.1267 209.009 15.4733 208.702 15.06C208.395 14.6333 207.875 14.42 207.142 14.42C206.342 14.42 205.709 14.7 205.242 15.26C204.789 15.8067 204.562 16.5533 204.562 17.5V22.3C204.562 22.5667 204.489 22.7733 204.342 22.92C204.209 23.0667 204.009 23.14 203.742 23.14C203.489 23.14 203.289 23.0667 203.142 22.92C203.009 22.7733 202.942 22.5667 202.942 22.3V17.02C202.942 16.1267 202.782 15.4733 202.462 15.06C202.155 14.6333 201.642 14.42 200.922 14.42C200.122 14.42 199.489 14.7 199.022 15.26C198.569 15.8067 198.342 16.5533 198.342 17.5V22.3C198.342 22.86 198.069 23.14 197.522 23.14Z" fill="#646464"/>
</svg>
