<svg width="263" height="39" viewBox="0 0 263 39" fill="none" xmlns="http://www.w3.org/2000/svg">
<path d="M24.7563 23C24.5163 23 24.3296 22.94 24.1963 22.82C24.0629 22.6867 23.9963 22.5067 23.9963 22.28C23.9963 22.0533 24.0629 21.8867 24.1963 21.78C24.3296 21.66 24.5163 21.6 24.7563 21.6H27.3563V10.26H28.2163L25.3163 12.18C25.1429 12.2733 24.9763 12.3133 24.8163 12.3C24.6696 12.2867 24.5429 12.2333 24.4363 12.14C24.3429 12.0333 24.2763 11.9133 24.2363 11.78C24.1963 11.6333 24.2029 11.4867 24.2563 11.34C24.3096 11.18 24.4229 11.0467 24.5962 10.94L27.3563 9.12C27.5296 9.01333 27.6963 8.92667 27.8563 8.86C28.0163 8.79333 28.1763 8.76 28.3363 8.76C28.5229 8.76 28.6763 8.82 28.7963 8.94C28.9296 9.04667 28.9963 9.22 28.9963 9.46V21.6H31.3963C31.6363 21.6 31.8229 21.66 31.9563 21.78C32.0896 21.8867 32.1563 22.0533 32.1563 22.28C32.1563 22.52 32.0896 22.7 31.9563 22.82C31.8229 22.94 31.6363 23 31.3963 23H24.7563ZM41.1247 23.14C40.858 23.14 40.658 23.0667 40.5247 22.92C40.3914 22.7733 40.3247 22.5667 40.3247 22.3V9.58C40.3247 9.31333 40.3914 9.11333 40.5247 8.98C40.658 8.83333 40.858 8.76 41.1247 8.76C41.378 8.76 41.578 8.83333 41.7247 8.98C41.8714 9.11333 41.9447 9.31333 41.9447 9.58V15.44H41.6847C41.9647 14.6667 42.418 14.0867 43.0447 13.7C43.6847 13.3 44.418 13.1 45.2447 13.1C46.018 13.1 46.658 13.24 47.1647 13.52C47.6847 13.8 48.0714 14.2267 48.3247 14.8C48.578 15.36 48.7047 16.0733 48.7047 16.94V22.3C48.7047 22.5667 48.6314 22.7733 48.4847 22.92C48.3514 23.0667 48.158 23.14 47.9047 23.14C47.638 23.14 47.4314 23.0667 47.2847 22.92C47.1514 22.7733 47.0847 22.5667 47.0847 22.3V17.04C47.0847 16.1333 46.9047 15.4733 46.5447 15.06C46.198 14.6333 45.638 14.42 44.8647 14.42C43.9714 14.42 43.258 14.7 42.7247 15.26C42.2047 15.8067 41.9447 16.54 41.9447 17.46V22.3C41.9447 22.86 41.6714 23.14 41.1247 23.14ZM56.0719 23.18C55.0452 23.18 54.1585 22.98 53.4119 22.58C52.6785 22.1667 52.1052 21.5867 51.6919 20.84C51.2919 20.0933 51.0919 19.2 51.0919 18.16C51.0919 17.1467 51.2919 16.2667 51.6919 15.52C52.0919 14.76 52.6385 14.1667 53.3319 13.74C54.0385 13.3133 54.8519 13.1 55.7719 13.1C56.4252 13.1 57.0119 13.2133 57.5319 13.44C58.0519 13.6533 58.4919 13.9667 58.8519 14.38C59.2252 14.7933 59.5052 15.2933 59.6919 15.88C59.8919 16.4667 59.9919 17.1267 59.9919 17.86C59.9919 18.0733 59.9319 18.2333 59.8119 18.34C59.6919 18.4333 59.5185 18.48 59.2919 18.48H52.3319V17.42H58.9119L58.5919 17.68C58.5919 16.96 58.4852 16.3533 58.2719 15.86C58.0585 15.3533 57.7452 14.9667 57.3319 14.7C56.9319 14.4333 56.4252 14.3 55.8119 14.3C55.1319 14.3 54.5519 14.46 54.0719 14.78C53.6052 15.0867 53.2519 15.52 53.0119 16.08C52.7719 16.6267 52.6519 17.2667 52.6519 18V18.12C52.6519 19.3467 52.9452 20.28 53.5319 20.92C54.1319 21.56 54.9785 21.88 56.0719 21.88C56.5252 21.88 56.9719 21.82 57.4119 21.7C57.8652 21.58 58.3052 21.38 58.7319 21.1C58.9185 20.98 59.0852 20.9267 59.2319 20.94C59.3919 20.94 59.5185 20.9867 59.6119 21.08C59.7052 21.16 59.7652 21.2667 59.7919 21.4C59.8319 21.52 59.8185 21.6533 59.7519 21.8C59.6985 21.9467 59.5852 22.0733 59.4119 22.18C58.9719 22.5 58.4519 22.7467 57.8519 22.92C57.2519 23.0933 56.6585 23.18 56.0719 23.18ZM66.4564 23.18C65.4831 23.18 64.6431 22.9667 63.9364 22.54C63.2297 22.1133 62.6831 21.52 62.2964 20.76C61.9231 19.9867 61.7364 19.0933 61.7364 18.08C61.7364 17.3067 61.8431 16.6133 62.0564 16C62.2697 15.3867 62.5831 14.8667 62.9964 14.44C63.4097 14 63.9031 13.6667 64.4764 13.44C65.0631 13.2133 65.7231 13.1 66.4564 13.1C66.9364 13.1 67.4364 13.1733 67.9564 13.32C68.4764 13.4667 68.9497 13.72 69.3764 14.08C69.5097 14.1733 69.5964 14.2867 69.6364 14.42C69.6764 14.5533 69.6764 14.6867 69.6364 14.82C69.5964 14.94 69.5297 15.0467 69.4364 15.14C69.3431 15.22 69.2231 15.2667 69.0764 15.28C68.9431 15.2933 68.8031 15.2467 68.6564 15.14C68.3097 14.8733 67.9564 14.6867 67.5964 14.58C67.2364 14.4733 66.8897 14.42 66.5564 14.42C66.0364 14.42 65.5831 14.5067 65.1964 14.68C64.8097 14.84 64.4831 15.0733 64.2164 15.38C63.9497 15.6867 63.7431 16.0667 63.5964 16.52C63.4631 16.9733 63.3964 17.5 63.3964 18.1C63.3964 19.26 63.6697 20.18 64.2164 20.86C64.7631 21.5267 65.5431 21.86 66.5564 21.86C66.8897 21.86 67.2297 21.8067 67.5764 21.7C67.9364 21.5933 68.2964 21.4067 68.6564 21.14C68.8031 21.0333 68.9431 20.9867 69.0764 21C69.2097 21.0133 69.3231 21.0667 69.4164 21.16C69.5097 21.24 69.5697 21.3467 69.5964 21.48C69.6364 21.6133 69.6364 21.7467 69.5964 21.88C69.5564 22 69.4697 22.1067 69.3364 22.2C68.9097 22.5467 68.4431 22.8 67.9364 22.96C67.4297 23.1067 66.9364 23.18 66.4564 23.18ZM75.4942 23.18C74.7342 23.18 74.0942 23.0467 73.5742 22.78C73.0676 22.5 72.6876 22.1 72.4342 21.58C72.1809 21.0467 72.0542 20.4 72.0542 19.64V14.54H70.7142C70.4876 14.54 70.3142 14.4867 70.1942 14.38C70.0742 14.26 70.0142 14.1 70.0142 13.9C70.0142 13.7 70.0742 13.5467 70.1942 13.44C70.3142 13.3333 70.4876 13.28 70.7142 13.28H72.0542V10.98C72.0542 10.7133 72.1276 10.5133 72.2742 10.38C72.4209 10.2333 72.6209 10.16 72.8742 10.16C73.1276 10.16 73.3209 10.2333 73.4542 10.38C73.6009 10.5133 73.6742 10.7133 73.6742 10.98V13.28H76.1942C76.4209 13.28 76.5942 13.3333 76.7142 13.44C76.8342 13.5467 76.8942 13.7 76.8942 13.9C76.8942 14.1 76.8342 14.26 76.7142 14.38C76.5942 14.4867 76.4209 14.54 76.1942 14.54H73.6742V19.48C73.6742 20.24 73.8342 20.82 74.1542 21.22C74.4742 21.6067 74.9942 21.8 75.7142 21.8C75.9676 21.8 76.1809 21.7733 76.3542 21.72C76.5409 21.6667 76.6942 21.64 76.8142 21.64C76.9342 21.6267 77.0342 21.6667 77.1142 21.76C77.1942 21.8533 77.2342 22.0133 77.2342 22.24C77.2342 22.4 77.2009 22.5467 77.1342 22.68C77.0809 22.8133 76.9809 22.9067 76.8342 22.96C76.6742 23.0133 76.4609 23.06 76.1942 23.1C75.9409 23.1533 75.7076 23.18 75.4942 23.18ZM81.6464 23.18C80.9797 23.18 80.3797 23.0533 79.8464 22.8C79.3264 22.5333 78.9131 22.1733 78.6064 21.72C78.2997 21.2667 78.1464 20.76 78.1464 20.2C78.1464 19.48 78.3264 18.9133 78.6864 18.5C79.0597 18.0867 79.6664 17.7933 80.5064 17.62C81.3597 17.4467 82.5197 17.36 83.9864 17.36H84.8864V18.42H84.0064C82.9264 18.42 82.0731 18.4733 81.4464 18.58C80.8331 18.6733 80.3997 18.84 80.1464 19.08C79.9064 19.32 79.7864 19.66 79.7864 20.1C79.7864 20.6467 79.9731 21.0933 80.3464 21.44C80.7331 21.7867 81.2531 21.96 81.9064 21.96C82.4397 21.96 82.9064 21.8333 83.3064 21.58C83.7197 21.3267 84.0397 20.98 84.2664 20.54C84.5064 20.1 84.6264 19.5933 84.6264 19.02V16.74C84.6264 15.9133 84.4597 15.32 84.1264 14.96C83.7931 14.5867 83.2464 14.4 82.4864 14.4C82.0197 14.4 81.5531 14.46 81.0864 14.58C80.6197 14.7 80.1264 14.8933 79.6064 15.16C79.4197 15.2533 79.2597 15.2867 79.1264 15.26C78.9931 15.22 78.8864 15.1467 78.8064 15.04C78.7264 14.9333 78.6797 14.8133 78.6664 14.68C78.6531 14.5333 78.6797 14.3933 78.7464 14.26C78.8264 14.1267 78.9464 14.02 79.1064 13.94C79.6931 13.6467 80.2731 13.4333 80.8464 13.3C81.4197 13.1667 81.9664 13.1 82.4864 13.1C83.3264 13.1 84.0197 13.24 84.5664 13.52C85.1131 13.7867 85.5197 14.2 85.7864 14.76C86.0531 15.3067 86.1864 16.0133 86.1864 16.88V22.3C86.1864 22.5667 86.1197 22.7733 85.9864 22.92C85.8664 23.0667 85.6864 23.14 85.4464 23.14C85.1931 23.14 84.9997 23.0667 84.8664 22.92C84.7331 22.7733 84.6664 22.5667 84.6664 22.3V20.74H84.8464C84.7397 21.2467 84.5331 21.68 84.2264 22.04C83.9331 22.4 83.5664 22.68 83.1264 22.88C82.6864 23.08 82.1931 23.18 81.6464 23.18ZM90.0119 23.14C89.7452 23.14 89.5385 23.0667 89.3919 22.92C89.2585 22.7733 89.1919 22.5667 89.1919 22.3V13.96C89.1919 13.6933 89.2585 13.4933 89.3919 13.36C89.5252 13.2133 89.7185 13.14 89.9719 13.14C90.2252 13.14 90.4185 13.2133 90.5519 13.36C90.6985 13.4933 90.7719 13.6933 90.7719 13.96V15.58H90.5719C90.7852 14.7933 91.1919 14.1867 91.7919 13.76C92.3919 13.3333 93.1319 13.1067 94.0119 13.08C94.2119 13.0667 94.3719 13.1133 94.4919 13.22C94.6119 13.3133 94.6785 13.48 94.6919 13.72C94.7052 13.9467 94.6519 14.1267 94.5319 14.26C94.4119 14.3933 94.2252 14.4733 93.9719 14.5L93.6519 14.54C92.7452 14.62 92.0452 14.9133 91.5519 15.42C91.0719 15.9133 90.8319 16.5933 90.8319 17.46V22.3C90.8319 22.5667 90.7585 22.7733 90.6119 22.92C90.4785 23.0667 90.2785 23.14 90.0119 23.14ZM100.623 23.18C99.596 23.18 98.7093 22.98 97.9627 22.58C97.2293 22.1667 96.656 21.5867 96.2427 20.84C95.8427 20.0933 95.6427 19.2 95.6427 18.16C95.6427 17.1467 95.8427 16.2667 96.2427 15.52C96.6427 14.76 97.1893 14.1667 97.8827 13.74C98.5893 13.3133 99.4027 13.1 100.323 13.1C100.976 13.1 101.563 13.2133 102.083 13.44C102.603 13.6533 103.043 13.9667 103.403 14.38C103.776 14.7933 104.056 15.2933 104.243 15.88C104.443 16.4667 104.543 17.1267 104.543 17.86C104.543 18.0733 104.483 18.2333 104.363 18.34C104.243 18.4333 104.069 18.48 103.843 18.48H96.8827V17.42H103.463L103.143 17.68C103.143 16.96 103.036 16.3533 102.823 15.86C102.609 15.3533 102.296 14.9667 101.883 14.7C101.483 14.4333 100.976 14.3 100.363 14.3C99.6827 14.3 99.1027 14.46 98.6227 14.78C98.156 15.0867 97.8027 15.52 97.5627 16.08C97.3227 16.6267 97.2027 17.2667 97.2027 18V18.12C97.2027 19.3467 97.496 20.28 98.0827 20.92C98.6827 21.56 99.5293 21.88 100.623 21.88C101.076 21.88 101.523 21.82 101.963 21.7C102.416 21.58 102.856 21.38 103.283 21.1C103.469 20.98 103.636 20.9267 103.783 20.94C103.943 20.94 104.069 20.9867 104.163 21.08C104.256 21.16 104.316 21.2667 104.343 21.4C104.383 21.52 104.369 21.6533 104.303 21.8C104.249 21.9467 104.136 22.0733 103.963 22.18C103.523 22.5 103.003 22.7467 102.403 22.92C101.803 23.0933 101.209 23.18 100.623 23.18ZM112.143 15.88C111.943 15.88 111.783 15.8267 111.663 15.72C111.557 15.6133 111.503 15.46 111.503 15.26C111.503 15.06 111.557 14.9067 111.663 14.8C111.783 14.6933 111.943 14.64 112.143 14.64H120.903C121.103 14.64 121.257 14.6933 121.363 14.8C121.483 14.9067 121.543 15.06 121.543 15.26C121.543 15.46 121.483 15.6133 121.363 15.72C121.257 15.8267 121.103 15.88 120.903 15.88H112.143ZM112.143 19.86C111.943 19.86 111.783 19.8067 111.663 19.7C111.557 19.5933 111.503 19.44 111.503 19.24C111.503 19.04 111.557 18.8933 111.663 18.8C111.783 18.6933 111.943 18.64 112.143 18.64H120.903C121.103 18.64 121.257 18.6933 121.363 18.8C121.483 18.8933 121.543 19.04 121.543 19.24C121.543 19.4533 121.483 19.6133 121.363 19.72C121.257 19.8133 121.103 19.86 120.903 19.86H112.143ZM130.772 23C130.532 23 130.345 22.94 130.212 22.82C130.079 22.6867 130.012 22.5067 130.012 22.28C130.012 22.0533 130.079 21.8867 130.212 21.78C130.345 21.66 130.532 21.6 130.772 21.6H133.372V10.26H134.232L131.332 12.18C131.159 12.2733 130.992 12.3133 130.832 12.3C130.685 12.2867 130.559 12.2333 130.452 12.14C130.359 12.0333 130.292 11.9133 130.252 11.78C130.212 11.6333 130.219 11.4867 130.272 11.34C130.325 11.18 130.439 11.0467 130.612 10.94L133.372 9.12C133.545 9.01333 133.712 8.92667 133.872 8.86C134.032 8.79333 134.192 8.76 134.352 8.76C134.539 8.76 134.692 8.82 134.812 8.94C134.945 9.04667 135.012 9.22 135.012 9.46V21.6H137.412C137.652 21.6 137.839 21.66 137.972 21.78C138.105 21.8867 138.172 22.0533 138.172 22.28C138.172 22.52 138.105 22.7 137.972 22.82C137.839 22.94 137.652 23 137.412 23H130.772ZM145.664 23.18C144.051 23.18 142.824 22.56 141.984 21.32C141.144 20.08 140.724 18.2867 140.724 15.94C140.724 14.3667 140.911 13.0467 141.284 11.98C141.657 10.9 142.211 10.0867 142.944 9.54C143.691 8.99333 144.597 8.72 145.664 8.72C147.291 8.72 148.517 9.33333 149.344 10.56C150.184 11.7733 150.604 13.56 150.604 15.92C150.604 17.4933 150.417 18.82 150.044 19.9C149.671 20.98 149.117 21.8 148.384 22.36C147.651 22.9067 146.744 23.18 145.664 23.18ZM145.664 21.76C146.784 21.76 147.611 21.2867 148.144 20.34C148.691 19.38 148.964 17.9067 148.964 15.92C148.964 13.92 148.691 12.46 148.144 11.54C147.611 10.6067 146.784 10.14 145.664 10.14C144.557 10.14 143.731 10.6067 143.184 11.54C142.637 12.4733 142.364 13.9333 142.364 15.92C142.364 17.9067 142.637 19.38 143.184 20.34C143.731 21.2867 144.557 21.76 145.664 21.76ZM157.656 23.18C156.043 23.18 154.816 22.56 153.976 21.32C153.136 20.08 152.716 18.2867 152.716 15.94C152.716 14.3667 152.903 13.0467 153.276 11.98C153.65 10.9 154.203 10.0867 154.936 9.54C155.683 8.99333 156.59 8.72 157.656 8.72C159.283 8.72 160.51 9.33333 161.336 10.56C162.176 11.7733 162.596 13.56 162.596 15.92C162.596 17.4933 162.41 18.82 162.036 19.9C161.663 20.98 161.11 21.8 160.376 22.36C159.643 22.9067 158.736 23.18 157.656 23.18ZM157.656 21.76C158.776 21.76 159.603 21.2867 160.136 20.34C160.683 19.38 160.956 17.9067 160.956 15.92C160.956 13.92 160.683 12.46 160.136 11.54C159.603 10.6067 158.776 10.14 157.656 10.14C156.55 10.14 155.723 10.6067 155.176 11.54C154.63 12.4733 154.356 13.9333 154.356 15.92C154.356 17.9067 154.63 19.38 155.176 20.34C155.723 21.2867 156.55 21.76 157.656 21.76ZM173.385 23.18C172.718 23.18 172.118 23.0533 171.585 22.8C171.065 22.5333 170.651 22.1733 170.345 21.72C170.038 21.2667 169.885 20.76 169.885 20.2C169.885 19.48 170.065 18.9133 170.425 18.5C170.798 18.0867 171.405 17.7933 172.245 17.62C173.098 17.4467 174.258 17.36 175.725 17.36H176.625V18.42H175.745C174.665 18.42 173.811 18.4733 173.185 18.58C172.571 18.6733 172.138 18.84 171.885 19.08C171.645 19.32 171.525 19.66 171.525 20.1C171.525 20.6467 171.711 21.0933 172.085 21.44C172.471 21.7867 172.991 21.96 173.645 21.96C174.178 21.96 174.645 21.8333 175.045 21.58C175.458 21.3267 175.778 20.98 176.005 20.54C176.245 20.1 176.365 19.5933 176.365 19.02V16.74C176.365 15.9133 176.198 15.32 175.865 14.96C175.531 14.5867 174.985 14.4 174.225 14.4C173.758 14.4 173.291 14.46 172.825 14.58C172.358 14.7 171.865 14.8933 171.345 15.16C171.158 15.2533 170.998 15.2867 170.865 15.26C170.731 15.22 170.625 15.1467 170.545 15.04C170.465 14.9333 170.418 14.8133 170.405 14.68C170.391 14.5333 170.418 14.3933 170.485 14.26C170.565 14.1267 170.685 14.02 170.845 13.94C171.431 13.6467 172.011 13.4333 172.585 13.3C173.158 13.1667 173.705 13.1 174.225 13.1C175.065 13.1 175.758 13.24 176.305 13.52C176.851 13.7867 177.258 14.2 177.525 14.76C177.791 15.3067 177.925 16.0133 177.925 16.88V22.3C177.925 22.5667 177.858 22.7733 177.725 22.92C177.605 23.0667 177.425 23.14 177.185 23.14C176.931 23.14 176.738 23.0667 176.605 22.92C176.471 22.7733 176.405 22.5667 176.405 22.3V20.74H176.585C176.478 21.2467 176.271 21.68 175.965 22.04C175.671 22.4 175.305 22.68 174.865 22.88C174.425 23.08 173.931 23.18 173.385 23.18ZM181.75 23.14C181.483 23.14 181.277 23.0667 181.13 22.92C180.997 22.7733 180.93 22.5667 180.93 22.3V13.96C180.93 13.6933 180.997 13.4933 181.13 13.36C181.263 13.2133 181.457 13.14 181.71 13.14C181.963 13.14 182.157 13.2133 182.29 13.36C182.437 13.4933 182.51 13.6933 182.51 13.96V15.58H182.31C182.523 14.7933 182.93 14.1867 183.53 13.76C184.13 13.3333 184.87 13.1067 185.75 13.08C185.95 13.0667 186.11 13.1133 186.23 13.22C186.35 13.3133 186.417 13.48 186.43 13.72C186.443 13.9467 186.39 14.1267 186.27 14.26C186.15 14.3933 185.963 14.4733 185.71 14.5L185.39 14.54C184.483 14.62 183.783 14.9133 183.29 15.42C182.81 15.9133 182.57 16.5933 182.57 17.46V22.3C182.57 22.5667 182.497 22.7733 182.35 22.92C182.217 23.0667 182.017 23.14 181.75 23.14ZM192.361 23.18C191.334 23.18 190.448 22.98 189.701 22.58C188.968 22.1667 188.394 21.5867 187.981 20.84C187.581 20.0933 187.381 19.2 187.381 18.16C187.381 17.1467 187.581 16.2667 187.981 15.52C188.381 14.76 188.928 14.1667 189.621 13.74C190.328 13.3133 191.141 13.1 192.061 13.1C192.714 13.1 193.301 13.2133 193.821 13.44C194.341 13.6533 194.781 13.9667 195.141 14.38C195.514 14.7933 195.794 15.2933 195.981 15.88C196.181 16.4667 196.281 17.1267 196.281 17.86C196.281 18.0733 196.221 18.2333 196.101 18.34C195.981 18.4333 195.808 18.48 195.581 18.48H188.621V17.42H195.201L194.881 17.68C194.881 16.96 194.774 16.3533 194.561 15.86C194.348 15.3533 194.034 14.9667 193.621 14.7C193.221 14.4333 192.714 14.3 192.101 14.3C191.421 14.3 190.841 14.46 190.361 14.78C189.894 15.0867 189.541 15.52 189.301 16.08C189.061 16.6267 188.941 17.2667 188.941 18V18.12C188.941 19.3467 189.234 20.28 189.821 20.92C190.421 21.56 191.268 21.88 192.361 21.88C192.814 21.88 193.261 21.82 193.701 21.7C194.154 21.58 194.594 21.38 195.021 21.1C195.208 20.98 195.374 20.9267 195.521 20.94C195.681 20.94 195.808 20.9867 195.901 21.08C195.994 21.16 196.054 21.2667 196.081 21.4C196.121 21.52 196.108 21.6533 196.041 21.8C195.988 21.9467 195.874 22.0733 195.701 22.18C195.261 22.5 194.741 22.7467 194.141 22.92C193.541 23.0933 192.948 23.18 192.361 23.18Z" fill="#646464"/>
<path d="M24.7563 23C24.5163 23 24.3296 22.94 24.1963 22.82C24.0629 22.6867 23.9963 22.5067 23.9963 22.28C23.9963 22.0533 24.0629 21.8867 24.1963 21.78C24.3296 21.66 24.5163 21.6 24.7563 21.6H27.3563V10.26H28.2163L25.3163 12.18C25.1429 12.2733 24.9763 12.3133 24.8163 12.3C24.6696 12.2867 24.5429 12.2333 24.4363 12.14C24.3429 12.0333 24.2763 11.9133 24.2363 11.78C24.1963 11.6333 24.2029 11.4867 24.2563 11.34C24.3096 11.18 24.4229 11.0467 24.5962 10.94L27.3563 9.12C27.5296 9.01333 27.6963 8.92667 27.8563 8.86C28.0163 8.79333 28.1763 8.76 28.3363 8.76C28.5229 8.76 28.6763 8.82 28.7963 8.94C28.9296 9.04667 28.9963 9.22 28.9963 9.46V21.6H31.3963C31.6363 21.6 31.8229 21.66 31.9563 21.78C32.0896 21.8867 32.1563 22.0533 32.1563 22.28C32.1563 22.52 32.0896 22.7 31.9563 22.82C31.8229 22.94 31.6363 23 31.3963 23H24.7563ZM41.1247 23.14C40.858 23.14 40.658 23.0667 40.5247 22.92C40.3914 22.7733 40.3247 22.5667 40.3247 22.3V9.58C40.3247 9.31333 40.3914 9.11333 40.5247 8.98C40.658 8.83333 40.858 8.76 41.1247 8.76C41.378 8.76 41.578 8.83333 41.7247 8.98C41.8714 9.11333 41.9447 9.31333 41.9447 9.58V15.44H41.6847C41.9647 14.6667 42.418 14.0867 43.0447 13.7C43.6847 13.3 44.418 13.1 45.2447 13.1C46.018 13.1 46.658 13.24 47.1647 13.52C47.6847 13.8 48.0714 14.2267 48.3247 14.8C48.578 15.36 48.7047 16.0733 48.7047 16.94V22.3C48.7047 22.5667 48.6314 22.7733 48.4847 22.92C48.3514 23.0667 48.158 23.14 47.9047 23.14C47.638 23.14 47.4314 23.0667 47.2847 22.92C47.1514 22.7733 47.0847 22.5667 47.0847 22.3V17.04C47.0847 16.1333 46.9047 15.4733 46.5447 15.06C46.198 14.6333 45.638 14.42 44.8647 14.42C43.9714 14.42 43.258 14.7 42.7247 15.26C42.2047 15.8067 41.9447 16.54 41.9447 17.46V22.3C41.9447 22.86 41.6714 23.14 41.1247 23.14ZM56.0719 23.18C55.0452 23.18 54.1585 22.98 53.4119 22.58C52.6785 22.1667 52.1052 21.5867 51.6919 20.84C51.2919 20.0933 51.0919 19.2 51.0919 18.16C51.0919 17.1467 51.2919 16.2667 51.6919 15.52C52.0919 14.76 52.6385 14.1667 53.3319 13.74C54.0385 13.3133 54.8519 13.1 55.7719 13.1C56.4252 13.1 57.0119 13.2133 57.5319 13.44C58.0519 13.6533 58.4919 13.9667 58.8519 14.38C59.2252 14.7933 59.5052 15.2933 59.6919 15.88C59.8919 16.4667 59.9919 17.1267 59.9919 17.86C59.9919 18.0733 59.9319 18.2333 59.8119 18.34C59.6919 18.4333 59.5185 18.48 59.2919 18.48H52.3319V17.42H58.9119L58.5919 17.68C58.5919 16.96 58.4852 16.3533 58.2719 15.86C58.0585 15.3533 57.7452 14.9667 57.3319 14.7C56.9319 14.4333 56.4252 14.3 55.8119 14.3C55.1319 14.3 54.5519 14.46 54.0719 14.78C53.6052 15.0867 53.2519 15.52 53.0119 16.08C52.7719 16.6267 52.6519 17.2667 52.6519 18V18.12C52.6519 19.3467 52.9452 20.28 53.5319 20.92C54.1319 21.56 54.9785 21.88 56.0719 21.88C56.5252 21.88 56.9719 21.82 57.4119 21.7C57.8652 21.58 58.3052 21.38 58.7319 21.1C58.9185 20.98 59.0852 20.9267 59.2319 20.94C59.3919 20.94 59.5185 20.9867 59.6119 21.08C59.7052 21.16 59.7652 21.2667 59.7919 21.4C59.8319 21.52 59.8185 21.6533 59.7519 21.8C59.6985 21.9467 59.5852 22.0733 59.4119 22.18C58.9719 22.5 58.4519 22.7467 57.8519 22.92C57.2519 23.0933 56.6585 23.18 56.0719 23.18ZM66.4564 23.18C65.4831 23.18 64.6431 22.9667 63.9364 22.54C63.2297 22.1133 62.6831 21.52 62.2964 20.76C61.9231 19.9867 61.7364 19.0933 61.7364 18.08C61.7364 17.3067 61.8431 16.6133 62.0564 16C62.2697 15.3867 62.5831 14.8667 62.9964 14.44C63.4097 14 63.9031 13.6667 64.4764 13.44C65.0631 13.2133 65.7231 13.1 66.4564 13.1C66.9364 13.1 67.4364 13.1733 67.9564 13.32C68.4764 13.4667 68.9497 13.72 69.3764 14.08C69.5097 14.1733 69.5964 14.2867 69.6364 14.42C69.6764 14.5533 69.6764 14.6867 69.6364 14.82C69.5964 14.94 69.5297 15.0467 69.4364 15.14C69.3431 15.22 69.2231 15.2667 69.0764 15.28C68.9431 15.2933 68.8031 15.2467 68.6564 15.14C68.3097 14.8733 67.9564 14.6867 67.5964 14.58C67.2364 14.4733 66.8897 14.42 66.5564 14.42C66.0364 14.42 65.5831 14.5067 65.1964 14.68C64.8097 14.84 64.4831 15.0733 64.2164 15.38C63.9497 15.6867 63.7431 16.0667 63.5964 16.52C63.4631 16.9733 63.3964 17.5 63.3964 18.1C63.3964 19.26 63.6697 20.18 64.2164 20.86C64.7631 21.5267 65.5431 21.86 66.5564 21.86C66.8897 21.86 67.2297 21.8067 67.5764 21.7C67.9364 21.5933 68.2964 21.4067 68.6564 21.14C68.8031 21.0333 68.9431 20.9867 69.0764 21C69.2097 21.0133 69.3231 21.0667 69.4164 21.16C69.5097 21.24 69.5697 21.3467 69.5964 21.48C69.6364 21.6133 69.6364 21.7467 69.5964 21.88C69.5564 22 69.4697 22.1067 69.3364 22.2C68.9097 22.5467 68.4431 22.8 67.9364 22.96C67.4297 23.1067 66.9364 23.18 66.4564 23.18ZM75.4942 23.18C74.7342 23.18 74.0942 23.0467 73.5742 22.78C73.0676 22.5 72.6876 22.1 72.4342 21.58C72.1809 21.0467 72.0542 20.4 72.0542 19.64V14.54H70.7142C70.4876 14.54 70.3142 14.4867 70.1942 14.38C70.0742 14.26 70.0142 14.1 70.0142 13.9C70.0142 13.7 70.0742 13.5467 70.1942 13.44C70.3142 13.3333 70.4876 13.28 70.7142 13.28H72.0542V10.98C72.0542 10.7133 72.1276 10.5133 72.2742 10.38C72.4209 10.2333 72.6209 10.16 72.8742 10.16C73.1276 10.16 73.3209 10.2333 73.4542 10.38C73.6009 10.5133 73.6742 10.7133 73.6742 10.98V13.28H76.1942C76.4209 13.28 76.5942 13.3333 76.7142 13.44C76.8342 13.5467 76.8942 13.7 76.8942 13.9C76.8942 14.1 76.8342 14.26 76.7142 14.38C76.5942 14.4867 76.4209 14.54 76.1942 14.54H73.6742V19.48C73.6742 20.24 73.8342 20.82 74.1542 21.22C74.4742 21.6067 74.9942 21.8 75.7142 21.8C75.9676 21.8 76.1809 21.7733 76.3542 21.72C76.5409 21.6667 76.6942 21.64 76.8142 21.64C76.9342 21.6267 77.0342 21.6667 77.1142 21.76C77.1942 21.8533 77.2342 22.0133 77.2342 22.24C77.2342 22.4 77.2009 22.5467 77.1342 22.68C77.0809 22.8133 76.9809 22.9067 76.8342 22.96C76.6742 23.0133 76.4609 23.06 76.1942 23.1C75.9409 23.1533 75.7076 23.18 75.4942 23.18ZM81.6464 23.18C80.9797 23.18 80.3797 23.0533 79.8464 22.8C79.3264 22.5333 78.9131 22.1733 78.6064 21.72C78.2997 21.2667 78.1464 20.76 78.1464 20.2C78.1464 19.48 78.3264 18.9133 78.6864 18.5C79.0597 18.0867 79.6664 17.7933 80.5064 17.62C81.3597 17.4467 82.5197 17.36 83.9864 17.36H84.8864V18.42H84.0064C82.9264 18.42 82.0731 18.4733 81.4464 18.58C80.8331 18.6733 80.3997 18.84 80.1464 19.08C79.9064 19.32 79.7864 19.66 79.7864 20.1C79.7864 20.6467 79.9731 21.0933 80.3464 21.44C80.7331 21.7867 81.2531 21.96 81.9064 21.96C82.4397 21.96 82.9064 21.8333 83.3064 21.58C83.7197 21.3267 84.0397 20.98 84.2664 20.54C84.5064 20.1 84.6264 19.5933 84.6264 19.02V16.74C84.6264 15.9133 84.4597 15.32 84.1264 14.96C83.7931 14.5867 83.2464 14.4 82.4864 14.4C82.0197 14.4 81.5531 14.46 81.0864 14.58C80.6197 14.7 80.1264 14.8933 79.6064 15.16C79.4197 15.2533 79.2597 15.2867 79.1264 15.26C78.9931 15.22 78.8864 15.1467 78.8064 15.04C78.7264 14.9333 78.6797 14.8133 78.6664 14.68C78.6531 14.5333 78.6797 14.3933 78.7464 14.26C78.8264 14.1267 78.9464 14.02 79.1064 13.94C79.6931 13.6467 80.2731 13.4333 80.8464 13.3C81.4197 13.1667 81.9664 13.1 82.4864 13.1C83.3264 13.1 84.0197 13.24 84.5664 13.52C85.1131 13.7867 85.5197 14.2 85.7864 14.76C86.0531 15.3067 86.1864 16.0133 86.1864 16.88V22.3C86.1864 22.5667 86.1197 22.7733 85.9864 22.92C85.8664 23.0667 85.6864 23.14 85.4464 23.14C85.1931 23.14 84.9997 23.0667 84.8664 22.92C84.7331 22.7733 84.6664 22.5667 84.6664 22.3V20.74H84.8464C84.7397 21.2467 84.5331 21.68 84.2264 22.04C83.9331 22.4 83.5664 22.68 83.1264 22.88C82.6864 23.08 82.1931 23.18 81.6464 23.18ZM90.0119 23.14C89.7452 23.14 89.5385 23.0667 89.3919 22.92C89.2585 22.7733 89.1919 22.5667 89.1919 22.3V13.96C89.1919 13.6933 89.2585 13.4933 89.3919 13.36C89.5252 13.2133 89.7185 13.14 89.9719 13.14C90.2252 13.14 90.4185 13.2133 90.5519 13.36C90.6985 13.4933 90.7719 13.6933 90.7719 13.96V15.58H90.5719C90.7852 14.7933 91.1919 14.1867 91.7919 13.76C92.3919 13.3333 93.1319 13.1067 94.0119 13.08C94.2119 13.0667 94.3719 13.1133 94.4919 13.22C94.6119 13.3133 94.6785 13.48 94.6919 13.72C94.7052 13.9467 94.6519 14.1267 94.5319 14.26C94.4119 14.3933 94.2252 14.4733 93.9719 14.5L93.6519 14.54C92.7452 14.62 92.0452 14.9133 91.5519 15.42C91.0719 15.9133 90.8319 16.5933 90.8319 17.46V22.3C90.8319 22.5667 90.7585 22.7733 90.6119 22.92C90.4785 23.0667 90.2785 23.14 90.0119 23.14ZM100.623 23.18C99.596 23.18 98.7093 22.98 97.9627 22.58C97.2293 22.1667 96.656 21.5867 96.2427 20.84C95.8427 20.0933 95.6427 19.2 95.6427 18.16C95.6427 17.1467 95.8427 16.2667 96.2427 15.52C96.6427 14.76 97.1893 14.1667 97.8827 13.74C98.5893 13.3133 99.4027 13.1 100.323 13.1C100.976 13.1 101.563 13.2133 102.083 13.44C102.603 13.6533 103.043 13.9667 103.403 14.38C103.776 14.7933 104.056 15.2933 104.243 15.88C104.443 16.4667 104.543 17.1267 104.543 17.86C104.543 18.0733 104.483 18.2333 104.363 18.34C104.243 18.4333 104.069 18.48 103.843 18.48H96.8827V17.42H103.463L103.143 17.68C103.143 16.96 103.036 16.3533 102.823 15.86C102.609 15.3533 102.296 14.9667 101.883 14.7C101.483 14.4333 100.976 14.3 100.363 14.3C99.6827 14.3 99.1027 14.46 98.6227 14.78C98.156 15.0867 97.8027 15.52 97.5627 16.08C97.3227 16.6267 97.2027 17.2667 97.2027 18V18.12C97.2027 19.3467 97.496 20.28 98.0827 20.92C98.6827 21.56 99.5293 21.88 100.623 21.88C101.076 21.88 101.523 21.82 101.963 21.7C102.416 21.58 102.856 21.38 103.283 21.1C103.469 20.98 103.636 20.9267 103.783 20.94C103.943 20.94 104.069 20.9867 104.163 21.08C104.256 21.16 104.316 21.2667 104.343 21.4C104.383 21.52 104.369 21.6533 104.303 21.8C104.249 21.9467 104.136 22.0733 103.963 22.18C103.523 22.5 103.003 22.7467 102.403 22.92C101.803 23.0933 101.209 23.18 100.623 23.18ZM112.143 15.88C111.943 15.88 111.783 15.8267 111.663 15.72C111.557 15.6133 111.503 15.46 111.503 15.26C111.503 15.06 111.557 14.9067 111.663 14.8C111.783 14.6933 111.943 14.64 112.143 14.64H120.903C121.103 14.64 121.257 14.6933 121.363 14.8C121.483 14.9067 121.543 15.06 121.543 15.26C121.543 15.46 121.483 15.6133 121.363 15.72C121.257 15.8267 121.103 15.88 120.903 15.88H112.143ZM112.143 19.86C111.943 19.86 111.783 19.8067 111.663 19.7C111.557 19.5933 111.503 19.44 111.503 19.24C111.503 19.04 111.557 18.8933 111.663 18.8C111.783 18.6933 111.943 18.64 112.143 18.64H120.903C121.103 18.64 121.257 18.6933 121.363 18.8C121.483 18.8933 121.543 19.04 121.543 19.24C121.543 19.4533 121.483 19.6133 121.363 19.72C121.257 19.8133 121.103 19.86 120.903 19.86H112.143ZM130.772 23C130.532 23 130.345 22.94 130.212 22.82C130.079 22.6867 130.012 22.5067 130.012 22.28C130.012 22.0533 130.079 21.8867 130.212 21.78C130.345 21.66 130.532 21.6 130.772 21.6H133.372V10.26H134.232L131.332 12.18C131.159 12.2733 130.992 12.3133 130.832 12.3C130.685 12.2867 130.559 12.2333 130.452 12.14C130.359 12.0333 130.292 11.9133 130.252 11.78C130.212 11.6333 130.219 11.4867 130.272 11.34C130.325 11.18 130.439 11.0467 130.612 10.94L133.372 9.12C133.545 9.01333 133.712 8.92667 133.872 8.86C134.032 8.79333 134.192 8.76 134.352 8.76C134.539 8.76 134.692 8.82 134.812 8.94C134.945 9.04667 135.012 9.22 135.012 9.46V21.6H137.412C137.652 21.6 137.839 21.66 137.972 21.78C138.105 21.8867 138.172 22.0533 138.172 22.28C138.172 22.52 138.105 22.7 137.972 22.82C137.839 22.94 137.652 23 137.412 23H130.772ZM145.664 23.18C144.051 23.18 142.824 22.56 141.984 21.32C141.144 20.08 140.724 18.2867 140.724 15.94C140.724 14.3667 140.911 13.0467 141.284 11.98C141.657 10.9 142.211 10.0867 142.944 9.54C143.691 8.99333 144.597 8.72 145.664 8.72C147.291 8.72 148.517 9.33333 149.344 10.56C150.184 11.7733 150.604 13.56 150.604 15.92C150.604 17.4933 150.417 18.82 150.044 19.9C149.671 20.98 149.117 21.8 148.384 22.36C147.651 22.9067 146.744 23.18 145.664 23.18ZM145.664 21.76C146.784 21.76 147.611 21.2867 148.144 20.34C148.691 19.38 148.964 17.9067 148.964 15.92C148.964 13.92 148.691 12.46 148.144 11.54C147.611 10.6067 146.784 10.14 145.664 10.14C144.557 10.14 143.731 10.6067 143.184 11.54C142.637 12.4733 142.364 13.9333 142.364 15.92C142.364 17.9067 142.637 19.38 143.184 20.34C143.731 21.2867 144.557 21.76 145.664 21.76ZM157.656 23.18C156.043 23.18 154.816 22.56 153.976 21.32C153.136 20.08 152.716 18.2867 152.716 15.94C152.716 14.3667 152.903 13.0467 153.276 11.98C153.65 10.9 154.203 10.0867 154.936 9.54C155.683 8.99333 156.59 8.72 157.656 8.72C159.283 8.72 160.51 9.33333 161.336 10.56C162.176 11.7733 162.596 13.56 162.596 15.92C162.596 17.4933 162.41 18.82 162.036 19.9C161.663 20.98 161.11 21.8 160.376 22.36C159.643 22.9067 158.736 23.18 157.656 23.18ZM157.656 21.76C158.776 21.76 159.603 21.2867 160.136 20.34C160.683 19.38 160.956 17.9067 160.956 15.92C160.956 13.92 160.683 12.46 160.136 11.54C159.603 10.6067 158.776 10.14 157.656 10.14C156.55 10.14 155.723 10.6067 155.176 11.54C154.63 12.4733 154.356 13.9333 154.356 15.92C154.356 17.9067 154.63 19.38 155.176 20.34C155.723 21.2867 156.55 21.76 157.656 21.76ZM173.385 23.18C172.718 23.18 172.118 23.0533 171.585 22.8C171.065 22.5333 170.651 22.1733 170.345 21.72C170.038 21.2667 169.885 20.76 169.885 20.2C169.885 19.48 170.065 18.9133 170.425 18.5C170.798 18.0867 171.405 17.7933 172.245 17.62C173.098 17.4467 174.258 17.36 175.725 17.36H176.625V18.42H175.745C174.665 18.42 173.811 18.4733 173.185 18.58C172.571 18.6733 172.138 18.84 171.885 19.08C171.645 19.32 171.525 19.66 171.525 20.1C171.525 20.6467 171.711 21.0933 172.085 21.44C172.471 21.7867 172.991 21.96 173.645 21.96C174.178 21.96 174.645 21.8333 175.045 21.58C175.458 21.3267 175.778 20.98 176.005 20.54C176.245 20.1 176.365 19.5933 176.365 19.02V16.74C176.365 15.9133 176.198 15.32 175.865 14.96C175.531 14.5867 174.985 14.4 174.225 14.4C173.758 14.4 173.291 14.46 172.825 14.58C172.358 14.7 171.865 14.8933 171.345 15.16C171.158 15.2533 170.998 15.2867 170.865 15.26C170.731 15.22 170.625 15.1467 170.545 15.04C170.465 14.9333 170.418 14.8133 170.405 14.68C170.391 14.5333 170.418 14.3933 170.485 14.26C170.565 14.1267 170.685 14.02 170.845 13.94C171.431 13.6467 172.011 13.4333 172.585 13.3C173.158 13.1667 173.705 13.1 174.225 13.1C175.065 13.1 175.758 13.24 176.305 13.52C176.851 13.7867 177.258 14.2 177.525 14.76C177.791 15.3067 177.925 16.0133 177.925 16.88V22.3C177.925 22.5667 177.858 22.7733 177.725 22.92C177.605 23.0667 177.425 23.14 177.185 23.14C176.931 23.14 176.738 23.0667 176.605 22.92C176.471 22.7733 176.405 22.5667 176.405 22.3V20.74H176.585C176.478 21.2467 176.271 21.68 175.965 22.04C175.671 22.4 175.305 22.68 174.865 22.88C174.425 23.08 173.931 23.18 173.385 23.18ZM181.75 23.14C181.483 23.14 181.277 23.0667 181.13 22.92C180.997 22.7733 180.93 22.5667 180.93 22.3V13.96C180.93 13.6933 180.997 13.4933 181.13 13.36C181.263 13.2133 181.457 13.14 181.71 13.14C181.963 13.14 182.157 13.2133 182.29 13.36C182.437 13.4933 182.51 13.6933 182.51 13.96V15.58H182.31C182.523 14.7933 182.93 14.1867 183.53 13.76C184.13 13.3333 184.87 13.1067 185.75 13.08C185.95 13.0667 186.11 13.1133 186.23 13.22C186.35 13.3133 186.417 13.48 186.43 13.72C186.443 13.9467 186.39 14.1267 186.27 14.26C186.15 14.3933 185.963 14.4733 185.71 14.5L185.39 14.54C184.483 14.62 183.783 14.9133 183.29 15.42C182.81 15.9133 182.57 16.5933 182.57 17.46V22.3C182.57 22.5667 182.497 22.7733 182.35 22.92C182.217 23.0667 182.017 23.14 181.75 23.14ZM192.361 23.18C191.334 23.18 190.448 22.98 189.701 22.58C188.968 22.1667 188.394 21.5867 187.981 20.84C187.581 20.0933 187.381 19.2 187.381 18.16C187.381 17.1467 187.581 16.2667 187.981 15.52C188.381 14.76 188.928 14.1667 189.621 13.74C190.328 13.3133 191.141 13.1 192.061 13.1C192.714 13.1 193.301 13.2133 193.821 13.44C194.341 13.6533 194.781 13.9667 195.141 14.38C195.514 14.7933 195.794 15.2933 195.981 15.88C196.181 16.4667 196.281 17.1267 196.281 17.86C196.281 18.0733 196.221 18.2333 196.101 18.34C195.981 18.4333 195.808 18.48 195.581 18.48H188.621V17.42H195.201L194.881 17.68C194.881 16.96 194.774 16.3533 194.561 15.86C194.348 15.3533 194.034 14.9667 193.621 14.7C193.221 14.4333 192.714 14.3 192.101 14.3C191.421 14.3 190.841 14.46 190.361 14.78C189.894 15.0867 189.541 15.52 189.301 16.08C189.061 16.6267 188.941 17.2667 188.941 18V18.12C188.941 19.3467 189.234 20.28 189.821 20.92C190.421 21.56 191.268 21.88 192.361 21.88C192.814 21.88 193.261 21.82 193.701 21.7C194.154 21.58 194.594 21.38 195.021 21.1C195.208 20.98 195.374 20.9267 195.521 20.94C195.681 20.94 195.808 20.9867 195.901 21.08C195.994 21.16 196.054 21.2667 196.081 21.4C196.121 21.52 196.108 21.6533 196.041 21.8C195.988 21.9467 195.874 22.0733 195.701 22.18C195.261 22.5 194.741 22.7467 194.141 22.92C193.541 23.0933 192.948 23.18 192.361 23.18Z" fill="#646464"/>
</svg>
