<svg width="426" height="102" viewBox="0 0 426 102" fill="none" xmlns="http://www.w3.org/2000/svg">
<path d="M1.68 15.16C1.36 15.16 1.1 15.0867 0.9 14.94C0.713333 14.7933 0.6 14.6 0.56 14.36C0.52 14.1067 0.566667 13.8267 0.7 13.52L5.98 1.82C6.15333 1.43333 6.36 1.16 6.6 0.999999C6.85333 0.826666 7.14 0.739999 7.46 0.739999C7.76667 0.739999 8.04 0.826666 8.28 0.999999C8.53333 1.16 8.74667 1.43333 8.92 1.82L14.22 13.52C14.3667 13.8267 14.42 14.1067 14.38 14.36C14.34 14.6133 14.2267 14.8133 14.04 14.96C13.8533 15.0933 13.6067 15.16 13.3 15.16C12.9267 15.16 12.6333 15.0733 12.42 14.9C12.22 14.7133 12.04 14.4333 11.88 14.06L10.58 11.04L11.66 11.74H3.22L4.3 11.04L3.02 14.06C2.84667 14.4467 2.66667 14.7267 2.48 14.9C2.29333 15.0733 2.02667 15.16 1.68 15.16ZM7.42 3.68L4.62 10.34L4.1 9.7H10.78L10.28 10.34L7.46 3.68H7.42ZM17.4628 15.16C17.0495 15.16 16.7295 15.0533 16.5028 14.84C16.2895 14.6133 16.1828 14.2933 16.1828 13.88V6.32C16.1828 5.90667 16.2895 5.59333 16.5028 5.38C16.7161 5.16667 17.0161 5.06 17.4028 5.06C17.7895 5.06 18.0895 5.16667 18.3028 5.38C18.5161 5.59333 18.6228 5.90667 18.6228 6.32V7.58H18.4228C18.6095 6.78 18.9761 6.17333 19.5228 5.76C20.0695 5.34667 20.7961 5.1 21.7028 5.02C21.9828 4.99333 22.2028 5.06667 22.3628 5.24C22.5361 5.4 22.6361 5.65333 22.6628 6C22.6895 6.33333 22.6095 6.60667 22.4228 6.82C22.2495 7.02 21.9828 7.14 21.6228 7.18L21.1828 7.22C20.3695 7.3 19.7561 7.55333 19.3428 7.98C18.9295 8.39333 18.7228 8.98 18.7228 9.74V13.88C18.7228 14.2933 18.6161 14.6133 18.4028 14.84C18.1895 15.0533 17.8761 15.16 17.4628 15.16ZM28.6786 15.2C27.5719 15.2 26.6186 14.9933 25.8186 14.58C25.0186 14.1667 24.3986 13.58 23.9586 12.82C23.5319 12.06 23.3186 11.16 23.3186 10.12C23.3186 9.10667 23.5253 8.22 23.9386 7.46C24.3653 6.7 24.9453 6.10667 25.6786 5.68C26.4253 5.24 27.2719 5.02 28.2186 5.02C28.9119 5.02 29.5319 5.13333 30.0786 5.36C30.6386 5.58667 31.1119 5.91333 31.4986 6.34C31.8986 6.76667 32.1986 7.28667 32.3986 7.9C32.6119 8.5 32.7186 9.18 32.7186 9.94C32.7186 10.18 32.6319 10.3667 32.4586 10.5C32.2986 10.62 32.0653 10.68 31.7586 10.68H25.3386V9.24H30.9586L30.6386 9.54C30.6386 8.92667 30.5453 8.41333 30.3586 8C30.1853 7.58667 29.9253 7.27333 29.5786 7.06C29.2453 6.83333 28.8253 6.72 28.3186 6.72C27.7586 6.72 27.2786 6.85333 26.8786 7.12C26.4919 7.37333 26.1919 7.74 25.9786 8.22C25.7786 8.68667 25.6786 9.24667 25.6786 9.9V10.04C25.6786 11.1333 25.9319 11.9533 26.4386 12.5C26.9586 13.0333 27.7186 13.3 28.7186 13.3C29.0653 13.3 29.4519 13.26 29.8786 13.18C30.3186 13.0867 30.7319 12.9333 31.1186 12.72C31.3986 12.56 31.6453 12.4933 31.8586 12.52C32.0719 12.5333 32.2386 12.6067 32.3586 12.74C32.4919 12.8733 32.5719 13.04 32.5986 13.24C32.6253 13.4267 32.5853 13.62 32.4786 13.82C32.3853 14.02 32.2186 14.1933 31.9786 14.34C31.5119 14.6333 30.9719 14.8533 30.3586 15C29.7586 15.1333 29.1986 15.2 28.6786 15.2ZM37.9184 15.2C37.2118 15.2 36.5784 15.0667 36.0184 14.8C35.4718 14.52 35.0384 14.1467 34.7184 13.68C34.4118 13.2133 34.2584 12.6867 34.2584 12.1C34.2584 11.38 34.4451 10.8133 34.8184 10.4C35.1918 9.97333 35.7984 9.66667 36.6384 9.48C37.4784 9.29333 38.6051 9.2 40.0184 9.2H41.0184V10.64H40.0384C39.2118 10.64 38.5518 10.68 38.0584 10.76C37.5651 10.84 37.2118 10.98 36.9984 11.18C36.7984 11.3667 36.6984 11.6333 36.6984 11.98C36.6984 12.42 36.8518 12.78 37.1584 13.06C37.4651 13.34 37.8918 13.48 38.4384 13.48C38.8784 13.48 39.2651 13.38 39.5984 13.18C39.9451 12.9667 40.2184 12.68 40.4184 12.32C40.6184 11.96 40.7184 11.5467 40.7184 11.08V8.78C40.7184 8.11333 40.5718 7.63333 40.2784 7.34C39.9851 7.04667 39.4918 6.9 38.7984 6.9C38.4118 6.9 37.9918 6.94667 37.5384 7.04C37.0984 7.13333 36.6318 7.29333 36.1384 7.52C35.8851 7.64 35.6584 7.67333 35.4584 7.62C35.2718 7.56667 35.1251 7.46 35.0184 7.3C34.9118 7.12667 34.8584 6.94 34.8584 6.74C34.8584 6.54 34.9118 6.34667 35.0184 6.16C35.1251 5.96 35.3051 5.81333 35.5584 5.72C36.1718 5.46667 36.7584 5.28667 37.3184 5.18C37.8918 5.07333 38.4118 5.02 38.8784 5.02C39.8384 5.02 40.6251 5.16667 41.2384 5.46C41.8651 5.75333 42.3318 6.2 42.6384 6.8C42.9451 7.38667 43.0984 8.14667 43.0984 9.08V13.88C43.0984 14.2933 42.9984 14.6133 42.7984 14.84C42.5984 15.0533 42.3118 15.16 41.9384 15.16C41.5651 15.16 41.2718 15.0533 41.0584 14.84C40.8584 14.6133 40.7584 14.2933 40.7584 13.88V12.92H40.9184C40.8251 13.3867 40.6384 13.7933 40.3584 14.14C40.0918 14.4733 39.7518 14.7333 39.3384 14.92C38.9251 15.1067 38.4518 15.2 37.9184 15.2ZM55.5256 15.2C54.5123 15.2 53.6323 14.9933 52.8856 14.58C52.139 14.1667 51.559 13.58 51.1456 12.82C50.7323 12.0467 50.5256 11.14 50.5256 10.1C50.5256 9.31333 50.639 8.61333 50.8656 8C51.1056 7.37333 51.4456 6.84 51.8856 6.4C52.3256 5.94667 52.8523 5.60667 53.4656 5.38C54.079 5.14 54.7656 5.02 55.5256 5.02C56.539 5.02 57.419 5.22667 58.1656 5.64C58.9123 6.05333 59.4923 6.64 59.9056 7.4C60.319 8.16 60.5256 9.06 60.5256 10.1C60.5256 10.8867 60.4056 11.5933 60.1656 12.22C59.939 12.8467 59.6056 13.3867 59.1656 13.84C58.7256 14.28 58.199 14.62 57.5856 14.86C56.9723 15.0867 56.2856 15.2 55.5256 15.2ZM55.5256 13.3C56.019 13.3 56.4523 13.18 56.8256 12.94C57.199 12.7 57.4856 12.3467 57.6856 11.88C57.899 11.4 58.0056 10.8067 58.0056 10.1C58.0056 9.03333 57.779 8.24 57.3256 7.72C56.8723 7.18667 56.2723 6.92 55.5256 6.92C55.0323 6.92 54.599 7.04 54.2256 7.28C53.8523 7.50667 53.559 7.86 53.3456 8.34C53.1456 8.80667 53.0456 9.39333 53.0456 10.1C53.0456 11.1533 53.2723 11.9533 53.7256 12.5C54.179 13.0333 54.779 13.3 55.5256 13.3ZM64.4114 15.16C64.0114 15.16 63.6981 15.0533 63.4714 14.84C63.2581 14.6133 63.1514 14.2933 63.1514 13.88V7.1H62.2314C61.9114 7.1 61.6647 7.02 61.4914 6.86C61.3181 6.68667 61.2314 6.45333 61.2314 6.16C61.2314 5.85333 61.3181 5.62 61.4914 5.46C61.6647 5.3 61.9114 5.22 62.2314 5.22H63.8714L63.1514 5.88V5.2C63.1514 3.82667 63.4981 2.8 64.1914 2.12C64.8847 1.42667 65.8847 1.02 67.1914 0.899999L67.8714 0.84C68.1381 0.813333 68.3514 0.859999 68.5114 0.979999C68.6714 1.08667 68.7781 1.23333 68.8314 1.42C68.8847 1.59333 68.8914 1.77333 68.8514 1.96C68.8114 2.14667 68.7247 2.31333 68.5914 2.46C68.4714 2.59333 68.3114 2.66667 68.1114 2.68L67.8314 2.7C67.0714 2.75333 66.5181 2.94667 66.1714 3.28C65.8247 3.61333 65.6514 4.12 65.6514 4.8V5.54L65.3314 5.22H67.3514C67.6714 5.22 67.9181 5.3 68.0914 5.46C68.2647 5.62 68.3514 5.85333 68.3514 6.16C68.3514 6.45333 68.2647 6.68667 68.0914 6.86C67.9181 7.02 67.6714 7.1 67.3514 7.1H65.6514V13.88C65.6514 14.7333 65.2381 15.16 64.4114 15.16ZM76.7263 15.16C76.3129 15.16 75.9929 15.0467 75.7663 14.82C75.5529 14.58 75.4463 14.2533 75.4463 13.84V2.2C75.4463 1.77333 75.5596 1.45333 75.7863 1.24C76.0129 1.01333 76.3329 0.899999 76.7463 0.899999H81.5663C83.1129 0.899999 84.3063 1.28667 85.1463 2.06C85.9863 2.83333 86.4062 3.91333 86.4062 5.3C86.4062 6.68667 85.9863 7.77333 85.1463 8.56C84.3063 9.33333 83.1129 9.72 81.5663 9.72H78.0063V13.84C78.0063 14.2533 77.8996 14.58 77.6863 14.82C77.4729 15.0467 77.1529 15.16 76.7263 15.16ZM78.0063 7.7H81.1663C82.0729 7.7 82.7596 7.5 83.2263 7.1C83.6929 6.68667 83.9263 6.08667 83.9263 5.3C83.9263 4.51333 83.6929 3.92 83.2263 3.52C82.7596 3.12 82.0729 2.92 81.1663 2.92H78.0063V7.7ZM91.0044 15.2C90.2977 15.2 89.6644 15.0667 89.1044 14.8C88.5577 14.52 88.1244 14.1467 87.8044 13.68C87.4977 13.2133 87.3444 12.6867 87.3444 12.1C87.3444 11.38 87.531 10.8133 87.9044 10.4C88.2777 9.97333 88.8844 9.66667 89.7244 9.48C90.5644 9.29333 91.691 9.2 93.1044 9.2H94.1044V10.64H93.1244C92.2977 10.64 91.6377 10.68 91.1444 10.76C90.651 10.84 90.2977 10.98 90.0844 11.18C89.8844 11.3667 89.7844 11.6333 89.7844 11.98C89.7844 12.42 89.9377 12.78 90.2444 13.06C90.551 13.34 90.9777 13.48 91.5244 13.48C91.9644 13.48 92.351 13.38 92.6844 13.18C93.031 12.9667 93.3044 12.68 93.5044 12.32C93.7044 11.96 93.8044 11.5467 93.8044 11.08V8.78C93.8044 8.11333 93.6577 7.63333 93.3644 7.34C93.071 7.04667 92.5777 6.9 91.8844 6.9C91.4977 6.9 91.0777 6.94667 90.6244 7.04C90.1844 7.13333 89.7177 7.29333 89.2244 7.52C88.971 7.64 88.7444 7.67333 88.5444 7.62C88.3577 7.56667 88.211 7.46 88.1044 7.3C87.9977 7.12667 87.9444 6.94 87.9444 6.74C87.9444 6.54 87.9977 6.34667 88.1044 6.16C88.211 5.96 88.391 5.81333 88.6444 5.72C89.2577 5.46667 89.8444 5.28667 90.4044 5.18C90.9777 5.07333 91.4977 5.02 91.9644 5.02C92.9244 5.02 93.711 5.16667 94.3244 5.46C94.951 5.75333 95.4177 6.2 95.7244 6.8C96.031 7.38667 96.1844 8.14667 96.1844 9.08V13.88C96.1844 14.2933 96.0844 14.6133 95.8844 14.84C95.6844 15.0533 95.3977 15.16 95.0244 15.16C94.651 15.16 94.3577 15.0533 94.1444 14.84C93.9444 14.6133 93.8444 14.2933 93.8444 13.88V12.92H94.0044C93.911 13.3867 93.7244 13.7933 93.4444 14.14C93.1777 14.4733 92.8377 14.7333 92.4244 14.92C92.011 15.1067 91.5377 15.2 91.0044 15.2ZM100.002 15.16C99.5885 15.16 99.2685 15.0533 99.0419 14.84C98.8285 14.6133 98.7219 14.2933 98.7219 13.88V6.32C98.7219 5.90667 98.8285 5.59333 99.0419 5.38C99.2552 5.16667 99.5552 5.06 99.9419 5.06C100.329 5.06 100.629 5.16667 100.842 5.38C101.055 5.59333 101.162 5.90667 101.162 6.32V7.58H100.962C101.149 6.78 101.515 6.17333 102.062 5.76C102.609 5.34667 103.335 5.1 104.242 5.02C104.522 4.99333 104.742 5.06667 104.902 5.24C105.075 5.4 105.175 5.65333 105.202 6C105.229 6.33333 105.149 6.60667 104.962 6.82C104.789 7.02 104.522 7.14 104.162 7.18L103.722 7.22C102.909 7.3 102.295 7.55333 101.882 7.98C101.469 8.39333 101.262 8.98 101.262 9.74V13.88C101.262 14.2933 101.155 14.6133 100.942 14.84C100.729 15.0533 100.415 15.16 100.002 15.16ZM109.676 15.2C108.97 15.2 108.336 15.0667 107.776 14.8C107.23 14.52 106.796 14.1467 106.476 13.68C106.17 13.2133 106.016 12.6867 106.016 12.1C106.016 11.38 106.203 10.8133 106.576 10.4C106.95 9.97333 107.556 9.66667 108.396 9.48C109.236 9.29333 110.363 9.2 111.776 9.2H112.776V10.64H111.796C110.97 10.64 110.31 10.68 109.816 10.76C109.323 10.84 108.97 10.98 108.756 11.18C108.556 11.3667 108.456 11.6333 108.456 11.98C108.456 12.42 108.61 12.78 108.916 13.06C109.223 13.34 109.65 13.48 110.196 13.48C110.636 13.48 111.023 13.38 111.356 13.18C111.703 12.9667 111.976 12.68 112.176 12.32C112.376 11.96 112.476 11.5467 112.476 11.08V8.78C112.476 8.11333 112.33 7.63333 112.036 7.34C111.743 7.04667 111.25 6.9 110.556 6.9C110.17 6.9 109.75 6.94667 109.296 7.04C108.856 7.13333 108.39 7.29333 107.896 7.52C107.643 7.64 107.416 7.67333 107.216 7.62C107.03 7.56667 106.883 7.46 106.776 7.3C106.67 7.12667 106.616 6.94 106.616 6.74C106.616 6.54 106.67 6.34667 106.776 6.16C106.883 5.96 107.063 5.81333 107.316 5.72C107.93 5.46667 108.516 5.28667 109.076 5.18C109.65 5.07333 110.17 5.02 110.636 5.02C111.596 5.02 112.383 5.16667 112.996 5.46C113.623 5.75333 114.09 6.2 114.396 6.8C114.703 7.38667 114.856 8.14667 114.856 9.08V13.88C114.856 14.2933 114.756 14.6133 114.556 14.84C114.356 15.0533 114.07 15.16 113.696 15.16C113.323 15.16 113.03 15.0533 112.816 14.84C112.616 14.6133 112.516 14.2933 112.516 13.88V12.92H112.676C112.583 13.3867 112.396 13.7933 112.116 14.14C111.85 14.4733 111.51 14.7333 111.096 14.92C110.683 15.1067 110.21 15.2 109.676 15.2ZM120.734 15.2C119.627 15.2 118.794 14.8867 118.234 14.26C117.674 13.62 117.394 12.6867 117.394 11.46V2C117.394 1.58667 117.5 1.27333 117.714 1.06C117.927 0.846666 118.234 0.739999 118.634 0.739999C119.034 0.739999 119.34 0.846666 119.554 1.06C119.78 1.27333 119.894 1.58667 119.894 2V11.34C119.894 11.9533 120.02 12.4067 120.274 12.7C120.54 12.9933 120.914 13.14 121.394 13.14C121.5 13.14 121.6 13.14 121.694 13.14C121.787 13.1267 121.88 13.1133 121.974 13.1C122.16 13.0733 122.287 13.1267 122.354 13.26C122.42 13.38 122.454 13.6333 122.454 14.02C122.454 14.3533 122.387 14.6133 122.254 14.8C122.12 14.9867 121.9 15.1 121.594 15.14C121.46 15.1533 121.32 15.1667 121.174 15.18C121.027 15.1933 120.88 15.2 120.734 15.2ZM127.12 15.2C126.014 15.2 125.18 14.8867 124.62 14.26C124.06 13.62 123.78 12.6867 123.78 11.46V2C123.78 1.58667 123.887 1.27333 124.1 1.06C124.314 0.846666 124.62 0.739999 125.02 0.739999C125.42 0.739999 125.727 0.846666 125.94 1.06C126.167 1.27333 126.28 1.58667 126.28 2V11.34C126.28 11.9533 126.407 12.4067 126.66 12.7C126.927 12.9933 127.3 13.14 127.78 13.14C127.887 13.14 127.987 13.14 128.08 13.14C128.174 13.1267 128.267 13.1133 128.36 13.1C128.547 13.0733 128.674 13.1267 128.74 13.26C128.807 13.38 128.84 13.6333 128.84 14.02C128.84 14.3533 128.774 14.6133 128.64 14.8C128.507 14.9867 128.287 15.1 127.98 15.14C127.847 15.1533 127.707 15.1667 127.56 15.18C127.414 15.1933 127.267 15.2 127.12 15.2ZM134.89 15.2C133.783 15.2 132.83 14.9933 132.03 14.58C131.23 14.1667 130.61 13.58 130.17 12.82C129.743 12.06 129.53 11.16 129.53 10.12C129.53 9.10667 129.736 8.22 130.15 7.46C130.576 6.7 131.156 6.10667 131.89 5.68C132.636 5.24 133.483 5.02 134.43 5.02C135.123 5.02 135.743 5.13333 136.29 5.36C136.85 5.58667 137.323 5.91333 137.71 6.34C138.11 6.76667 138.41 7.28667 138.61 7.9C138.823 8.5 138.93 9.18 138.93 9.94C138.93 10.18 138.843 10.3667 138.67 10.5C138.51 10.62 138.276 10.68 137.97 10.68H131.55V9.24H137.17L136.85 9.54C136.85 8.92667 136.756 8.41333 136.57 8C136.396 7.58667 136.136 7.27333 135.79 7.06C135.456 6.83333 135.036 6.72 134.53 6.72C133.97 6.72 133.49 6.85333 133.09 7.12C132.703 7.37333 132.403 7.74 132.19 8.22C131.99 8.68667 131.89 9.24667 131.89 9.9V10.04C131.89 11.1333 132.143 11.9533 132.65 12.5C133.17 13.0333 133.93 13.3 134.93 13.3C135.276 13.3 135.663 13.26 136.09 13.18C136.53 13.0867 136.943 12.9333 137.33 12.72C137.61 12.56 137.856 12.4933 138.07 12.52C138.283 12.5333 138.45 12.6067 138.57 12.74C138.703 12.8733 138.783 13.04 138.81 13.24C138.836 13.4267 138.796 13.62 138.69 13.82C138.596 14.02 138.43 14.1933 138.19 14.34C137.723 14.6333 137.183 14.8533 136.57 15C135.97 15.1333 135.41 15.2 134.89 15.2ZM144.249 15.2C143.143 15.2 142.309 14.8867 141.749 14.26C141.189 13.62 140.909 12.6867 140.909 11.46V2C140.909 1.58667 141.016 1.27333 141.229 1.06C141.443 0.846666 141.749 0.739999 142.149 0.739999C142.549 0.739999 142.856 0.846666 143.069 1.06C143.296 1.27333 143.409 1.58667 143.409 2V11.34C143.409 11.9533 143.536 12.4067 143.789 12.7C144.056 12.9933 144.429 13.14 144.909 13.14C145.016 13.14 145.116 13.14 145.209 13.14C145.303 13.1267 145.396 13.1133 145.489 13.1C145.676 13.0733 145.803 13.1267 145.869 13.26C145.936 13.38 145.969 13.6333 145.969 14.02C145.969 14.3533 145.903 14.6133 145.769 14.8C145.636 14.9867 145.416 15.1 145.109 15.14C144.976 15.1533 144.836 15.1667 144.689 15.18C144.543 15.1933 144.396 15.2 144.249 15.2ZM151.658 15.2C150.645 15.2 149.765 14.9933 149.018 14.58C148.272 14.1667 147.692 13.58 147.278 12.82C146.865 12.0467 146.658 11.14 146.658 10.1C146.658 9.31333 146.772 8.61333 146.998 8C147.238 7.37333 147.578 6.84 148.018 6.4C148.458 5.94667 148.985 5.60667 149.598 5.38C150.212 5.14 150.898 5.02 151.658 5.02C152.672 5.02 153.552 5.22667 154.298 5.64C155.045 6.05333 155.625 6.64 156.038 7.4C156.452 8.16 156.658 9.06 156.658 10.1C156.658 10.8867 156.538 11.5933 156.298 12.22C156.072 12.8467 155.738 13.3867 155.298 13.84C154.858 14.28 154.332 14.62 153.718 14.86C153.105 15.0867 152.418 15.2 151.658 15.2ZM151.658 13.3C152.152 13.3 152.585 13.18 152.958 12.94C153.332 12.7 153.618 12.3467 153.818 11.88C154.032 11.4 154.138 10.8067 154.138 10.1C154.138 9.03333 153.912 8.24 153.458 7.72C153.005 7.18667 152.405 6.92 151.658 6.92C151.165 6.92 150.732 7.04 150.358 7.28C149.985 7.50667 149.692 7.86 149.478 8.34C149.278 8.80667 149.178 9.39333 149.178 10.1C149.178 11.1533 149.405 11.9533 149.858 12.5C150.312 13.0333 150.912 13.3 151.658 13.3ZM163.282 18.8C162.562 18.8 161.862 18.7333 161.182 18.6C160.515 18.4667 159.909 18.26 159.362 17.98C159.109 17.8467 158.935 17.6867 158.842 17.5C158.762 17.3133 158.735 17.12 158.762 16.92C158.802 16.7333 158.882 16.5667 159.002 16.42C159.135 16.2733 159.295 16.1733 159.482 16.12C159.669 16.0667 159.862 16.0933 160.062 16.2C160.649 16.4933 161.202 16.68 161.722 16.76C162.255 16.8533 162.709 16.9 163.082 16.9C163.975 16.9 164.642 16.68 165.082 16.24C165.535 15.8133 165.762 15.1733 165.762 14.32V12.52H165.942C165.742 13.2 165.322 13.7467 164.682 14.16C164.055 14.56 163.342 14.76 162.542 14.76C161.662 14.76 160.895 14.56 160.242 14.16C159.589 13.7467 159.082 13.1733 158.722 12.44C158.362 11.7067 158.182 10.8533 158.182 9.88C158.182 9.14667 158.282 8.48667 158.482 7.9C158.695 7.3 158.989 6.78667 159.362 6.36C159.749 5.93333 160.209 5.60667 160.742 5.38C161.289 5.14 161.889 5.02 162.542 5.02C163.369 5.02 164.089 5.22667 164.702 5.64C165.329 6.04 165.735 6.57333 165.922 7.24L165.722 7.74V6.32C165.722 5.90667 165.829 5.59333 166.042 5.38C166.269 5.16667 166.575 5.06 166.962 5.06C167.362 5.06 167.669 5.16667 167.882 5.38C168.095 5.59333 168.202 5.90667 168.202 6.32V14.02C168.202 15.6067 167.782 16.8 166.942 17.6C166.102 18.4 164.882 18.8 163.282 18.8ZM163.222 12.86C163.742 12.86 164.189 12.74 164.562 12.5C164.935 12.26 165.222 11.92 165.422 11.48C165.635 11.0267 165.742 10.4933 165.742 9.88C165.742 8.96 165.515 8.24 165.062 7.72C164.609 7.18667 163.995 6.92 163.222 6.92C162.702 6.92 162.255 7.04 161.882 7.28C161.509 7.52 161.215 7.86 161.002 8.3C160.802 8.74 160.702 9.26667 160.702 9.88C160.702 10.8 160.929 11.5267 161.382 12.06C161.835 12.5933 162.449 12.86 163.222 12.86ZM172.072 15.16C171.659 15.16 171.339 15.0533 171.112 14.84C170.899 14.6133 170.792 14.2933 170.792 13.88V6.32C170.792 5.90667 170.899 5.59333 171.112 5.38C171.326 5.16667 171.626 5.06 172.012 5.06C172.399 5.06 172.699 5.16667 172.912 5.38C173.126 5.59333 173.232 5.90667 173.232 6.32V7.58H173.032C173.219 6.78 173.586 6.17333 174.132 5.76C174.679 5.34667 175.406 5.1 176.312 5.02C176.592 4.99333 176.812 5.06667 176.972 5.24C177.146 5.4 177.246 5.65333 177.272 6C177.299 6.33333 177.219 6.60667 177.032 6.82C176.859 7.02 176.592 7.14 176.232 7.18L175.792 7.22C174.979 7.3 174.366 7.55333 173.952 7.98C173.539 8.39333 173.332 8.98 173.332 9.74V13.88C173.332 14.2933 173.226 14.6133 173.012 14.84C172.799 15.0533 172.486 15.16 172.072 15.16ZM181.747 15.2C181.04 15.2 180.407 15.0667 179.847 14.8C179.3 14.52 178.867 14.1467 178.547 13.68C178.24 13.2133 178.087 12.6867 178.087 12.1C178.087 11.38 178.273 10.8133 178.647 10.4C179.02 9.97333 179.627 9.66667 180.467 9.48C181.307 9.29333 182.433 9.2 183.847 9.2H184.847V10.64H183.867C183.04 10.64 182.38 10.68 181.887 10.76C181.393 10.84 181.04 10.98 180.827 11.18C180.627 11.3667 180.527 11.6333 180.527 11.98C180.527 12.42 180.68 12.78 180.987 13.06C181.293 13.34 181.72 13.48 182.267 13.48C182.707 13.48 183.093 13.38 183.427 13.18C183.773 12.9667 184.047 12.68 184.247 12.32C184.447 11.96 184.547 11.5467 184.547 11.08V8.78C184.547 8.11333 184.4 7.63333 184.107 7.34C183.813 7.04667 183.32 6.9 182.627 6.9C182.24 6.9 181.82 6.94667 181.367 7.04C180.927 7.13333 180.46 7.29333 179.967 7.52C179.713 7.64 179.487 7.67333 179.287 7.62C179.1 7.56667 178.953 7.46 178.847 7.3C178.74 7.12667 178.687 6.94 178.687 6.74C178.687 6.54 178.74 6.34667 178.847 6.16C178.953 5.96 179.133 5.81333 179.387 5.72C180 5.46667 180.587 5.28667 181.147 5.18C181.72 5.07333 182.24 5.02 182.707 5.02C183.667 5.02 184.453 5.16667 185.067 5.46C185.693 5.75333 186.16 6.2 186.467 6.8C186.773 7.38667 186.927 8.14667 186.927 9.08V13.88C186.927 14.2933 186.827 14.6133 186.627 14.84C186.427 15.0533 186.14 15.16 185.767 15.16C185.393 15.16 185.1 15.0533 184.887 14.84C184.687 14.6133 184.587 14.2933 184.587 13.88V12.92H184.747C184.653 13.3867 184.467 13.7933 184.187 14.14C183.92 14.4733 183.58 14.7333 183.167 14.92C182.753 15.1067 182.28 15.2 181.747 15.2ZM190.744 15.16C190.344 15.16 190.037 15.0533 189.824 14.84C189.611 14.6133 189.504 14.2933 189.504 13.88V6.32C189.504 5.90667 189.611 5.59333 189.824 5.38C190.037 5.16667 190.337 5.06 190.724 5.06C191.111 5.06 191.411 5.16667 191.624 5.38C191.837 5.59333 191.944 5.90667 191.944 6.32V7.78L191.724 7.18C191.991 6.51333 192.404 5.98667 192.964 5.6C193.524 5.21333 194.191 5.02 194.964 5.02C195.751 5.02 196.397 5.20667 196.904 5.58C197.411 5.95333 197.764 6.52667 197.964 7.3H197.684C197.951 6.59333 198.391 6.04 199.004 5.64C199.617 5.22667 200.324 5.02 201.124 5.02C201.871 5.02 202.484 5.16667 202.964 5.46C203.457 5.75333 203.824 6.2 204.064 6.8C204.304 7.38667 204.424 8.13333 204.424 9.04V13.88C204.424 14.2933 204.311 14.6133 204.084 14.84C203.871 15.0533 203.564 15.16 203.164 15.16C202.764 15.16 202.457 15.0533 202.244 14.84C202.031 14.6133 201.924 14.2933 201.924 13.88V9.14C201.924 8.39333 201.797 7.84667 201.544 7.5C201.304 7.15333 200.891 6.98 200.304 6.98C199.651 6.98 199.137 7.21333 198.764 7.68C198.391 8.13333 198.204 8.76667 198.204 9.58V13.88C198.204 14.2933 198.097 14.6133 197.884 14.84C197.671 15.0533 197.364 15.16 196.964 15.16C196.564 15.16 196.251 15.0533 196.024 14.84C195.811 14.6133 195.704 14.2933 195.704 13.88V9.14C195.704 8.39333 195.577 7.84667 195.324 7.5C195.084 7.15333 194.677 6.98 194.104 6.98C193.451 6.98 192.937 7.21333 192.564 7.68C192.191 8.13333 192.004 8.76667 192.004 9.58V13.88C192.004 14.7333 191.584 15.16 190.744 15.16ZM212.993 8.14C212.713 8.14 212.493 8.06667 212.333 7.92C212.173 7.76 212.093 7.54 212.093 7.26C212.093 6.98 212.173 6.76667 212.333 6.62C212.493 6.46 212.713 6.38 212.993 6.38H221.273C221.566 6.38 221.786 6.46 221.933 6.62C222.093 6.76667 222.173 6.98 222.173 7.26C222.173 7.54 222.093 7.76 221.933 7.92C221.786 8.06667 221.566 8.14 221.273 8.14H212.993ZM212.993 12.12C212.713 12.12 212.493 12.0467 212.333 11.9C212.173 11.74 212.093 11.52 212.093 11.24C212.093 10.96 212.173 10.7467 212.333 10.6C212.493 10.4533 212.713 10.38 212.993 10.38H221.273C221.566 10.38 221.786 10.4533 221.933 10.6C222.093 10.7467 222.173 10.96 222.173 11.24C222.173 11.5333 222.093 11.7533 221.933 11.9C221.786 12.0467 221.566 12.12 221.273 12.12H212.993ZM230.235 15.16C229.915 15.16 229.655 15.0867 229.455 14.94C229.268 14.7933 229.155 14.6 229.115 14.36C229.075 14.1067 229.121 13.8267 229.255 13.52L234.535 1.82C234.708 1.43333 234.915 1.16 235.155 0.999999C235.408 0.826666 235.695 0.739999 236.015 0.739999C236.321 0.739999 236.595 0.826666 236.835 0.999999C237.088 1.16 237.301 1.43333 237.475 1.82L242.775 13.52C242.921 13.8267 242.975 14.1067 242.935 14.36C242.895 14.6133 242.781 14.8133 242.595 14.96C242.408 15.0933 242.161 15.16 241.855 15.16C241.481 15.16 241.188 15.0733 240.975 14.9C240.775 14.7133 240.595 14.4333 240.435 14.06L239.135 11.04L240.215 11.74H231.775L232.855 11.04L231.575 14.06C231.401 14.4467 231.221 14.7267 231.035 14.9C230.848 15.0733 230.581 15.16 230.235 15.16ZM235.975 3.68L233.175 10.34L232.655 9.7H239.335L238.835 10.34L236.015 3.68H235.975ZM246.018 15.16C245.604 15.16 245.284 15.0533 245.058 14.84C244.844 14.6133 244.738 14.2933 244.738 13.88V6.32C244.738 5.90667 244.844 5.59333 245.058 5.38C245.271 5.16667 245.571 5.06 245.958 5.06C246.344 5.06 246.644 5.16667 246.858 5.38C247.071 5.59333 247.178 5.90667 247.178 6.32V7.58H246.978C247.164 6.78 247.531 6.17333 248.078 5.76C248.624 5.34667 249.351 5.1 250.258 5.02C250.538 4.99333 250.758 5.06667 250.918 5.24C251.091 5.4 251.191 5.65333 251.218 6C251.244 6.33333 251.164 6.60667 250.978 6.82C250.804 7.02 250.538 7.14 250.178 7.18L249.738 7.22C248.924 7.3 248.311 7.55333 247.898 7.98C247.484 8.39333 247.278 8.98 247.278 9.74V13.88C247.278 14.2933 247.171 14.6133 246.958 14.84C246.744 15.0533 246.431 15.16 246.018 15.16ZM257.233 15.2C256.127 15.2 255.173 14.9933 254.373 14.58C253.573 14.1667 252.953 13.58 252.513 12.82C252.087 12.06 251.873 11.16 251.873 10.12C251.873 9.10667 252.08 8.22 252.493 7.46C252.92 6.7 253.5 6.10667 254.233 5.68C254.98 5.24 255.827 5.02 256.773 5.02C257.467 5.02 258.087 5.13333 258.633 5.36C259.193 5.58667 259.667 5.91333 260.053 6.34C260.453 6.76667 260.753 7.28667 260.953 7.9C261.167 8.5 261.273 9.18 261.273 9.94C261.273 10.18 261.187 10.3667 261.013 10.5C260.853 10.62 260.62 10.68 260.313 10.68H253.893V9.24H259.513L259.193 9.54C259.193 8.92667 259.1 8.41333 258.913 8C258.74 7.58667 258.48 7.27333 258.133 7.06C257.8 6.83333 257.38 6.72 256.873 6.72C256.313 6.72 255.833 6.85333 255.433 7.12C255.047 7.37333 254.747 7.74 254.533 8.22C254.333 8.68667 254.233 9.24667 254.233 9.9V10.04C254.233 11.1333 254.487 11.9533 254.993 12.5C255.513 13.0333 256.273 13.3 257.273 13.3C257.62 13.3 258.007 13.26 258.433 13.18C258.873 13.0867 259.287 12.9333 259.673 12.72C259.953 12.56 260.2 12.4933 260.413 12.52C260.627 12.5333 260.793 12.6067 260.913 12.74C261.047 12.8733 261.127 13.04 261.153 13.24C261.18 13.4267 261.14 13.62 261.033 13.82C260.94 14.02 260.773 14.1933 260.533 14.34C260.067 14.6333 259.527 14.8533 258.913 15C258.313 15.1333 257.753 15.2 257.233 15.2ZM266.473 15.2C265.766 15.2 265.133 15.0667 264.573 14.8C264.026 14.52 263.593 14.1467 263.273 13.68C262.966 13.2133 262.813 12.6867 262.813 12.1C262.813 11.38 263 10.8133 263.373 10.4C263.746 9.97333 264.353 9.66667 265.193 9.48C266.033 9.29333 267.16 9.2 268.573 9.2H269.573V10.64H268.593C267.766 10.64 267.106 10.68 266.613 10.76C266.12 10.84 265.766 10.98 265.553 11.18C265.353 11.3667 265.253 11.6333 265.253 11.98C265.253 12.42 265.406 12.78 265.713 13.06C266.02 13.34 266.446 13.48 266.993 13.48C267.433 13.48 267.82 13.38 268.153 13.18C268.5 12.9667 268.773 12.68 268.973 12.32C269.173 11.96 269.273 11.5467 269.273 11.08V8.78C269.273 8.11333 269.126 7.63333 268.833 7.34C268.54 7.04667 268.046 6.9 267.353 6.9C266.966 6.9 266.546 6.94667 266.093 7.04C265.653 7.13333 265.186 7.29333 264.693 7.52C264.44 7.64 264.213 7.67333 264.013 7.62C263.826 7.56667 263.68 7.46 263.573 7.3C263.466 7.12667 263.413 6.94 263.413 6.74C263.413 6.54 263.466 6.34667 263.573 6.16C263.68 5.96 263.86 5.81333 264.113 5.72C264.726 5.46667 265.313 5.28667 265.873 5.18C266.446 5.07333 266.966 5.02 267.433 5.02C268.393 5.02 269.18 5.16667 269.793 5.46C270.42 5.75333 270.886 6.2 271.193 6.8C271.5 7.38667 271.653 8.14667 271.653 9.08V13.88C271.653 14.2933 271.553 14.6133 271.353 14.84C271.153 15.0533 270.866 15.16 270.493 15.16C270.12 15.16 269.826 15.0533 269.613 14.84C269.413 14.6133 269.313 14.2933 269.313 13.88V12.92H269.473C269.38 13.3867 269.193 13.7933 268.913 14.14C268.646 14.4733 268.306 14.7333 267.893 14.92C267.48 15.1067 267.006 15.2 266.473 15.2ZM284.08 15.2C283.067 15.2 282.187 14.9933 281.44 14.58C280.694 14.1667 280.114 13.58 279.7 12.82C279.287 12.0467 279.08 11.14 279.08 10.1C279.08 9.31333 279.194 8.61333 279.42 8C279.66 7.37333 280 6.84 280.44 6.4C280.88 5.94667 281.407 5.60667 282.02 5.38C282.634 5.14 283.32 5.02 284.08 5.02C285.094 5.02 285.974 5.22667 286.72 5.64C287.467 6.05333 288.047 6.64 288.46 7.4C288.874 8.16 289.08 9.06 289.08 10.1C289.08 10.8867 288.96 11.5933 288.72 12.22C288.494 12.8467 288.16 13.3867 287.72 13.84C287.28 14.28 286.754 14.62 286.14 14.86C285.527 15.0867 284.84 15.2 284.08 15.2ZM284.08 13.3C284.574 13.3 285.007 13.18 285.38 12.94C285.754 12.7 286.04 12.3467 286.24 11.88C286.454 11.4 286.56 10.8067 286.56 10.1C286.56 9.03333 286.334 8.24 285.88 7.72C285.427 7.18667 284.827 6.92 284.08 6.92C283.587 6.92 283.154 7.04 282.78 7.28C282.407 7.50667 282.114 7.86 281.9 8.34C281.7 8.80667 281.6 9.39333 281.6 10.1C281.6 11.1533 281.827 11.9533 282.28 12.5C282.734 13.0333 283.334 13.3 284.08 13.3ZM292.966 15.16C292.566 15.16 292.253 15.0533 292.026 14.84C291.813 14.6133 291.706 14.2933 291.706 13.88V7.1H290.786C290.466 7.1 290.219 7.02 290.046 6.86C289.873 6.68667 289.786 6.45333 289.786 6.16C289.786 5.85333 289.873 5.62 290.046 5.46C290.219 5.3 290.466 5.22 290.786 5.22H292.426L291.706 5.88V5.2C291.706 3.82667 292.053 2.8 292.746 2.12C293.439 1.42667 294.439 1.02 295.746 0.899999L296.426 0.84C296.693 0.813333 296.906 0.859999 297.066 0.979999C297.226 1.08667 297.333 1.23333 297.386 1.42C297.439 1.59333 297.446 1.77333 297.406 1.96C297.366 2.14667 297.279 2.31333 297.146 2.46C297.026 2.59333 296.866 2.66667 296.666 2.68L296.386 2.7C295.626 2.75333 295.073 2.94667 294.726 3.28C294.379 3.61333 294.206 4.12 294.206 4.8V5.54L293.886 5.22H295.906C296.226 5.22 296.473 5.3 296.646 5.46C296.819 5.62 296.906 5.85333 296.906 6.16C296.906 6.45333 296.819 6.68667 296.646 6.86C296.473 7.02 296.226 7.1 295.906 7.1H294.206V13.88C294.206 14.7333 293.793 15.16 292.966 15.16ZM308.241 15.2C307.374 15.2 306.648 15.0533 306.061 14.76C305.488 14.4667 305.061 14.04 304.781 13.48C304.501 12.9067 304.361 12.2 304.361 11.36V7.1H303.321C303.001 7.1 302.754 7.02 302.581 6.86C302.408 6.68667 302.321 6.45333 302.321 6.16C302.321 5.85333 302.408 5.62 302.581 5.46C302.754 5.3 303.001 5.22 303.321 5.22H304.361V3.4C304.361 2.98667 304.468 2.67333 304.681 2.46C304.908 2.24667 305.221 2.14 305.621 2.14C306.021 2.14 306.328 2.24667 306.541 2.46C306.754 2.67333 306.861 2.98667 306.861 3.4V5.22H308.981C309.301 5.22 309.548 5.3 309.721 5.46C309.894 5.62 309.981 5.85333 309.981 6.16C309.981 6.45333 309.894 6.68667 309.721 6.86C309.548 7.02 309.301 7.1 308.981 7.1H306.861V11.22C306.861 11.86 307.001 12.34 307.281 12.66C307.561 12.98 308.014 13.14 308.641 13.14C308.868 13.14 309.068 13.12 309.241 13.08C309.414 13.04 309.568 13.0133 309.701 13C309.861 12.9867 309.994 13.04 310.101 13.16C310.208 13.2667 310.261 13.4933 310.261 13.84C310.261 14.1067 310.214 14.3467 310.121 14.56C310.041 14.76 309.888 14.9 309.661 14.98C309.488 15.0333 309.261 15.08 308.981 15.12C308.701 15.1733 308.454 15.2 308.241 15.2ZM312.931 15.16C312.531 15.16 312.224 15.0533 312.011 14.84C311.797 14.6133 311.691 14.2933 311.691 13.88V2C311.691 1.58667 311.797 1.27333 312.011 1.06C312.224 0.846666 312.531 0.739999 312.931 0.739999C313.331 0.739999 313.637 0.846666 313.851 1.06C314.077 1.27333 314.191 1.58667 314.191 2V7.18H313.911C314.204 6.47333 314.657 5.94 315.271 5.58C315.897 5.20667 316.604 5.02 317.391 5.02C318.177 5.02 318.824 5.16667 319.331 5.46C319.837 5.75333 320.217 6.2 320.471 6.8C320.724 7.38667 320.851 8.13333 320.851 9.04V13.88C320.851 14.2933 320.744 14.6133 320.531 14.84C320.317 15.0533 320.011 15.16 319.611 15.16C319.211 15.16 318.897 15.0533 318.671 14.84C318.457 14.6133 318.351 14.2933 318.351 13.88V9.16C318.351 8.4 318.204 7.84667 317.911 7.5C317.631 7.15333 317.191 6.98 316.591 6.98C315.857 6.98 315.271 7.21333 314.831 7.68C314.404 8.13333 314.191 8.74 314.191 9.5V13.88C314.191 14.7333 313.771 15.16 312.931 15.16ZM328.21 15.2C327.103 15.2 326.15 14.9933 325.35 14.58C324.55 14.1667 323.93 13.58 323.49 12.82C323.063 12.06 322.85 11.16 322.85 10.12C322.85 9.10667 323.057 8.22 323.47 7.46C323.897 6.7 324.477 6.10667 325.21 5.68C325.957 5.24 326.803 5.02 327.75 5.02C328.443 5.02 329.063 5.13333 329.61 5.36C330.17 5.58667 330.643 5.91333 331.03 6.34C331.43 6.76667 331.73 7.28667 331.93 7.9C332.143 8.5 332.25 9.18 332.25 9.94C332.25 10.18 332.163 10.3667 331.99 10.5C331.83 10.62 331.597 10.68 331.29 10.68H324.87V9.24H330.49L330.17 9.54C330.17 8.92667 330.077 8.41333 329.89 8C329.717 7.58667 329.457 7.27333 329.11 7.06C328.777 6.83333 328.357 6.72 327.85 6.72C327.29 6.72 326.81 6.85333 326.41 7.12C326.023 7.37333 325.723 7.74 325.51 8.22C325.31 8.68667 325.21 9.24667 325.21 9.9V10.04C325.21 11.1333 325.463 11.9533 325.97 12.5C326.49 13.0333 327.25 13.3 328.25 13.3C328.597 13.3 328.983 13.26 329.41 13.18C329.85 13.0867 330.263 12.9333 330.65 12.72C330.93 12.56 331.177 12.4933 331.39 12.52C331.603 12.5333 331.77 12.6067 331.89 12.74C332.023 12.8733 332.103 13.04 332.13 13.24C332.157 13.4267 332.117 13.62 332.01 13.82C331.917 14.02 331.75 14.1933 331.51 14.34C331.043 14.6333 330.503 14.8533 329.89 15C329.29 15.1333 328.73 15.2 328.21 15.2ZM340.939 15.16C340.526 15.16 340.206 15.0533 339.979 14.84C339.766 14.6133 339.659 14.2933 339.659 13.88V6.32C339.659 5.90667 339.766 5.59333 339.979 5.38C340.193 5.16667 340.493 5.06 340.879 5.06C341.266 5.06 341.566 5.16667 341.779 5.38C341.993 5.59333 342.099 5.90667 342.099 6.32V7.58H341.899C342.086 6.78 342.453 6.17333 342.999 5.76C343.546 5.34667 344.273 5.1 345.179 5.02C345.459 4.99333 345.679 5.06667 345.839 5.24C346.013 5.4 346.113 5.65333 346.139 6C346.166 6.33333 346.086 6.60667 345.899 6.82C345.726 7.02 345.459 7.14 345.099 7.18L344.659 7.22C343.846 7.3 343.233 7.55333 342.819 7.98C342.406 8.39333 342.199 8.98 342.199 9.74V13.88C342.199 14.2933 342.093 14.6133 341.879 14.84C341.666 15.0533 341.353 15.16 340.939 15.16ZM352.155 15.2C351.048 15.2 350.095 14.9933 349.295 14.58C348.495 14.1667 347.875 13.58 347.435 12.82C347.008 12.06 346.795 11.16 346.795 10.12C346.795 9.10667 347.002 8.22 347.415 7.46C347.842 6.7 348.422 6.10667 349.155 5.68C349.902 5.24 350.748 5.02 351.695 5.02C352.388 5.02 353.008 5.13333 353.555 5.36C354.115 5.58667 354.588 5.91333 354.975 6.34C355.375 6.76667 355.675 7.28667 355.875 7.9C356.088 8.5 356.195 9.18 356.195 9.94C356.195 10.18 356.108 10.3667 355.935 10.5C355.775 10.62 355.542 10.68 355.235 10.68H348.815V9.24H354.435L354.115 9.54C354.115 8.92667 354.022 8.41333 353.835 8C353.662 7.58667 353.402 7.27333 353.055 7.06C352.722 6.83333 352.302 6.72 351.795 6.72C351.235 6.72 350.755 6.85333 350.355 7.12C349.968 7.37333 349.668 7.74 349.455 8.22C349.255 8.68667 349.155 9.24667 349.155 9.9V10.04C349.155 11.1333 349.408 11.9533 349.915 12.5C350.435 13.0333 351.195 13.3 352.195 13.3C352.542 13.3 352.928 13.26 353.355 13.18C353.795 13.0867 354.208 12.9333 354.595 12.72C354.875 12.56 355.122 12.4933 355.335 12.52C355.548 12.5333 355.715 12.6067 355.835 12.74C355.968 12.8733 356.048 13.04 356.075 13.24C356.102 13.4267 356.062 13.62 355.955 13.82C355.862 14.02 355.695 14.1933 355.455 14.34C354.988 14.6333 354.448 14.8533 353.835 15C353.235 15.1333 352.675 15.2 352.155 15.2ZM362.695 15.2C361.668 15.2 360.775 14.9933 360.015 14.58C359.255 14.1533 358.668 13.5533 358.255 12.78C357.842 12.0067 357.635 11.1 357.635 10.06C357.635 9.27333 357.748 8.57333 357.975 7.96C358.215 7.33333 358.555 6.80667 358.995 6.38C359.435 5.94 359.968 5.60667 360.595 5.38C361.222 5.14 361.922 5.02 362.695 5.02C363.135 5.02 363.608 5.08 364.115 5.2C364.635 5.32 365.122 5.52 365.575 5.8C365.788 5.93333 365.928 6.09333 365.995 6.28C366.062 6.46667 366.075 6.66 366.035 6.86C365.995 7.04667 365.908 7.21333 365.775 7.36C365.655 7.49333 365.502 7.58 365.315 7.62C365.128 7.64667 364.922 7.6 364.695 7.48C364.402 7.30667 364.102 7.18 363.795 7.1C363.488 7.00667 363.195 6.96 362.915 6.96C362.475 6.96 362.088 7.03333 361.755 7.18C361.422 7.31333 361.135 7.51333 360.895 7.78C360.668 8.03333 360.495 8.35333 360.375 8.74C360.255 9.12667 360.195 9.57333 360.195 10.08C360.195 11.0667 360.428 11.8467 360.895 12.42C361.375 12.98 362.048 13.26 362.915 13.26C363.195 13.26 363.482 13.22 363.775 13.14C364.082 13.06 364.388 12.9333 364.695 12.76C364.922 12.64 365.122 12.6 365.295 12.64C365.482 12.68 365.635 12.7733 365.755 12.92C365.875 13.0533 365.948 13.22 365.975 13.42C366.002 13.6067 365.975 13.7933 365.895 13.98C365.828 14.1667 365.695 14.32 365.495 14.44C365.055 14.7067 364.588 14.9 364.095 15.02C363.602 15.14 363.135 15.2 362.695 15.2ZM372.128 15.2C371.261 15.2 370.534 15.0533 369.948 14.76C369.374 14.4667 368.948 14.04 368.668 13.48C368.388 12.9067 368.248 12.2 368.248 11.36V7.1H367.208C366.888 7.1 366.641 7.02 366.468 6.86C366.294 6.68667 366.208 6.45333 366.208 6.16C366.208 5.85333 366.294 5.62 366.468 5.46C366.641 5.3 366.888 5.22 367.208 5.22H368.248V3.4C368.248 2.98667 368.354 2.67333 368.568 2.46C368.794 2.24667 369.108 2.14 369.508 2.14C369.908 2.14 370.214 2.24667 370.428 2.46C370.641 2.67333 370.748 2.98667 370.748 3.4V5.22H372.868C373.188 5.22 373.434 5.3 373.608 5.46C373.781 5.62 373.868 5.85333 373.868 6.16C373.868 6.45333 373.781 6.68667 373.608 6.86C373.434 7.02 373.188 7.1 372.868 7.1H370.748V11.22C370.748 11.86 370.888 12.34 371.168 12.66C371.448 12.98 371.901 13.14 372.528 13.14C372.754 13.14 372.954 13.12 373.128 13.08C373.301 13.04 373.454 13.0133 373.588 13C373.748 12.9867 373.881 13.04 373.988 13.16C374.094 13.2667 374.148 13.4933 374.148 13.84C374.148 14.1067 374.101 14.3467 374.008 14.56C373.928 14.76 373.774 14.9 373.548 14.98C373.374 15.0333 373.148 15.08 372.868 15.12C372.588 15.1733 372.341 15.2 372.128 15.2ZM378.543 15.2C377.837 15.2 377.203 15.0667 376.643 14.8C376.097 14.52 375.663 14.1467 375.343 13.68C375.037 13.2133 374.883 12.6867 374.883 12.1C374.883 11.38 375.07 10.8133 375.443 10.4C375.817 9.97333 376.423 9.66667 377.263 9.48C378.103 9.29333 379.23 9.2 380.643 9.2H381.643V10.64H380.663C379.837 10.64 379.177 10.68 378.683 10.76C378.19 10.84 377.837 10.98 377.623 11.18C377.423 11.3667 377.323 11.6333 377.323 11.98C377.323 12.42 377.477 12.78 377.783 13.06C378.09 13.34 378.517 13.48 379.063 13.48C379.503 13.48 379.89 13.38 380.223 13.18C380.57 12.9667 380.843 12.68 381.043 12.32C381.243 11.96 381.343 11.5467 381.343 11.08V8.78C381.343 8.11333 381.197 7.63333 380.903 7.34C380.61 7.04667 380.117 6.9 379.423 6.9C379.037 6.9 378.617 6.94667 378.163 7.04C377.723 7.13333 377.257 7.29333 376.763 7.52C376.51 7.64 376.283 7.67333 376.083 7.62C375.897 7.56667 375.75 7.46 375.643 7.3C375.537 7.12667 375.483 6.94 375.483 6.74C375.483 6.54 375.537 6.34667 375.643 6.16C375.75 5.96 375.93 5.81333 376.183 5.72C376.797 5.46667 377.383 5.28667 377.943 5.18C378.517 5.07333 379.037 5.02 379.503 5.02C380.463 5.02 381.25 5.16667 381.863 5.46C382.49 5.75333 382.957 6.2 383.263 6.8C383.57 7.38667 383.723 8.14667 383.723 9.08V13.88C383.723 14.2933 383.623 14.6133 383.423 14.84C383.223 15.0533 382.937 15.16 382.563 15.16C382.19 15.16 381.897 15.0533 381.683 14.84C381.483 14.6133 381.383 14.2933 381.383 13.88V12.92H381.543C381.45 13.3867 381.263 13.7933 380.983 14.14C380.717 14.4733 380.377 14.7333 379.963 14.92C379.55 15.1067 379.077 15.2 378.543 15.2ZM387.501 15.16C387.101 15.16 386.794 15.0533 386.581 14.84C386.368 14.6133 386.261 14.2933 386.261 13.88V6.32C386.261 5.90667 386.368 5.59333 386.581 5.38C386.794 5.16667 387.094 5.06 387.481 5.06C387.868 5.06 388.168 5.16667 388.381 5.38C388.594 5.59333 388.701 5.90667 388.701 6.32V7.68L388.481 7.18C388.774 6.47333 389.228 5.94 389.841 5.58C390.468 5.20667 391.174 5.02 391.961 5.02C392.748 5.02 393.394 5.16667 393.901 5.46C394.408 5.75333 394.788 6.2 395.041 6.8C395.294 7.38667 395.421 8.13333 395.421 9.04V13.88C395.421 14.2933 395.314 14.6133 395.101 14.84C394.888 15.0533 394.581 15.16 394.181 15.16C393.781 15.16 393.468 15.0533 393.241 14.84C393.028 14.6133 392.921 14.2933 392.921 13.88V9.16C392.921 8.4 392.774 7.84667 392.481 7.5C392.201 7.15333 391.761 6.98 391.161 6.98C390.428 6.98 389.841 7.21333 389.401 7.68C388.974 8.13333 388.761 8.74 388.761 9.5V13.88C388.761 14.7333 388.341 15.16 387.501 15.16ZM402.52 18.8C401.8 18.8 401.1 18.7333 400.42 18.6C399.753 18.4667 399.147 18.26 398.6 17.98C398.347 17.8467 398.173 17.6867 398.08 17.5C398 17.3133 397.973 17.12 398 16.92C398.04 16.7333 398.12 16.5667 398.24 16.42C398.373 16.2733 398.533 16.1733 398.72 16.12C398.907 16.0667 399.1 16.0933 399.3 16.2C399.887 16.4933 400.44 16.68 400.96 16.76C401.493 16.8533 401.947 16.9 402.32 16.9C403.213 16.9 403.88 16.68 404.32 16.24C404.773 15.8133 405 15.1733 405 14.32V12.52H405.18C404.98 13.2 404.56 13.7467 403.92 14.16C403.293 14.56 402.58 14.76 401.78 14.76C400.9 14.76 400.133 14.56 399.48 14.16C398.827 13.7467 398.32 13.1733 397.96 12.44C397.6 11.7067 397.42 10.8533 397.42 9.88C397.42 9.14667 397.52 8.48667 397.72 7.9C397.933 7.3 398.227 6.78667 398.6 6.36C398.987 5.93333 399.447 5.60667 399.98 5.38C400.527 5.14 401.127 5.02 401.78 5.02C402.607 5.02 403.327 5.22667 403.94 5.64C404.567 6.04 404.973 6.57333 405.16 7.24L404.96 7.74V6.32C404.96 5.90667 405.067 5.59333 405.28 5.38C405.507 5.16667 405.813 5.06 406.2 5.06C406.6 5.06 406.907 5.16667 407.12 5.38C407.333 5.59333 407.44 5.90667 407.44 6.32V14.02C407.44 15.6067 407.02 16.8 406.18 17.6C405.34 18.4 404.12 18.8 402.52 18.8ZM402.46 12.86C402.98 12.86 403.427 12.74 403.8 12.5C404.173 12.26 404.46 11.92 404.66 11.48C404.873 11.0267 404.98 10.4933 404.98 9.88C404.98 8.96 404.753 8.24 404.3 7.72C403.847 7.18667 403.233 6.92 402.46 6.92C401.94 6.92 401.493 7.04 401.12 7.28C400.747 7.52 400.453 7.86 400.24 8.3C400.04 8.74 399.94 9.26667 399.94 9.88C399.94 10.8 400.167 11.5267 400.62 12.06C401.073 12.5933 401.687 12.86 402.46 12.86ZM413.37 15.2C412.264 15.2 411.43 14.8867 410.87 14.26C410.31 13.62 410.03 12.6867 410.03 11.46V2C410.03 1.58667 410.137 1.27333 410.35 1.06C410.564 0.846666 410.87 0.739999 411.27 0.739999C411.67 0.739999 411.977 0.846666 412.19 1.06C412.417 1.27333 412.53 1.58667 412.53 2V11.34C412.53 11.9533 412.657 12.4067 412.91 12.7C413.177 12.9933 413.55 13.14 414.03 13.14C414.137 13.14 414.237 13.14 414.33 13.14C414.424 13.1267 414.517 13.1133 414.61 13.1C414.797 13.0733 414.924 13.1267 414.99 13.26C415.057 13.38 415.09 13.6333 415.09 14.02C415.09 14.3533 415.024 14.6133 414.89 14.8C414.757 14.9867 414.537 15.1 414.23 15.14C414.097 15.1533 413.957 15.1667 413.81 15.18C413.664 15.1933 413.517 15.2 413.37 15.2ZM421.14 15.2C420.033 15.2 419.08 14.9933 418.28 14.58C417.48 14.1667 416.86 13.58 416.42 12.82C415.993 12.06 415.78 11.16 415.78 10.12C415.78 9.10667 415.986 8.22 416.4 7.46C416.826 6.7 417.406 6.10667 418.14 5.68C418.886 5.24 419.733 5.02 420.68 5.02C421.373 5.02 421.993 5.13333 422.54 5.36C423.1 5.58667 423.573 5.91333 423.96 6.34C424.36 6.76667 424.66 7.28667 424.86 7.9C425.073 8.5 425.18 9.18 425.18 9.94C425.18 10.18 425.093 10.3667 424.92 10.5C424.76 10.62 424.526 10.68 424.22 10.68H417.8V9.24H423.42L423.1 9.54C423.1 8.92667 423.006 8.41333 422.82 8C422.646 7.58667 422.386 7.27333 422.04 7.06C421.706 6.83333 421.286 6.72 420.78 6.72C420.22 6.72 419.74 6.85333 419.34 7.12C418.953 7.37333 418.653 7.74 418.44 8.22C418.24 8.68667 418.14 9.24667 418.14 9.9V10.04C418.14 11.1333 418.393 11.9533 418.9 12.5C419.42 13.0333 420.18 13.3 421.18 13.3C421.526 13.3 421.913 13.26 422.34 13.18C422.78 13.0867 423.193 12.9333 423.58 12.72C423.86 12.56 424.106 12.4933 424.32 12.52C424.533 12.5333 424.7 12.6067 424.82 12.74C424.953 12.8733 425.033 13.04 425.06 13.24C425.086 13.4267 425.046 13.62 424.94 13.82C424.846 14.02 424.68 14.1933 424.44 14.34C423.973 14.6333 423.433 14.8533 422.82 15C422.22 15.1333 421.66 15.2 421.14 15.2Z" fill="#646464"/>
<path d="M213.618 51.14C213.338 51.14 213.118 51.0667 212.958 50.92C212.798 50.76 212.718 50.54 212.718 50.26C212.718 49.98 212.798 49.7667 212.958 49.62C213.118 49.46 213.338 49.38 213.618 49.38H221.898C222.191 49.38 222.411 49.46 222.558 49.62C222.718 49.7667 222.798 49.98 222.798 50.26C222.798 50.54 222.718 50.76 222.558 50.92C222.411 51.0667 222.191 51.14 221.898 51.14H213.618ZM213.618 55.12C213.338 55.12 213.118 55.0467 212.958 54.9C212.798 54.74 212.718 54.52 212.718 54.24C212.718 53.96 212.798 53.7467 212.958 53.6C213.118 53.4533 213.338 53.38 213.618 53.38H221.898C222.191 53.38 222.411 53.4533 222.558 53.6C222.718 53.7467 222.798 53.96 222.798 54.24C222.798 54.5333 222.718 54.7533 222.558 54.9C222.411 55.0467 222.191 55.12 221.898 55.12H213.618ZM232.08 58C231.64 58 231.3 57.8867 231.06 57.66C230.833 57.42 230.72 57.08 230.72 56.64V45.26C230.72 44.82 230.833 44.4867 231.06 44.26C231.3 44.02 231.64 43.9 232.08 43.9H236.88C237.866 43.9 238.706 44.0467 239.4 44.34C240.093 44.6333 240.62 45.0533 240.98 45.6C241.353 46.1467 241.54 46.8 241.54 47.56C241.54 48.4133 241.293 49.1333 240.8 49.72C240.306 50.3067 239.633 50.7 238.78 50.9V50.6C239.766 50.7467 240.533 51.12 241.08 51.72C241.626 52.32 241.9 53.1 241.9 54.06C241.9 55.3133 241.473 56.2867 240.62 56.98C239.78 57.66 238.606 58 237.1 58H232.08ZM233.18 56.06H236.78C237.686 56.06 238.353 55.8867 238.78 55.54C239.206 55.18 239.42 54.6467 239.42 53.94C239.42 53.22 239.206 52.6867 238.78 52.34C238.353 51.9933 237.686 51.82 236.78 51.82H233.18V56.06ZM233.18 49.88H236.44C237.32 49.88 237.973 49.7133 238.4 49.38C238.84 49.0333 239.06 48.5267 239.06 47.86C239.06 47.1933 238.84 46.6933 238.4 46.36C237.973 46.0133 237.32 45.84 236.44 45.84H233.18V49.88ZM247.469 58.2C246.763 58.2 246.129 58.0667 245.569 57.8C245.023 57.52 244.589 57.1467 244.269 56.68C243.963 56.2133 243.809 55.6867 243.809 55.1C243.809 54.38 243.996 53.8133 244.369 53.4C244.743 52.9733 245.349 52.6667 246.189 52.48C247.029 52.2933 248.156 52.2 249.569 52.2H250.569V53.64H249.589C248.763 53.64 248.103 53.68 247.609 53.76C247.116 53.84 246.763 53.98 246.549 54.18C246.349 54.3667 246.249 54.6333 246.249 54.98C246.249 55.42 246.403 55.78 246.709 56.06C247.016 56.34 247.443 56.48 247.989 56.48C248.429 56.48 248.816 56.38 249.149 56.18C249.496 55.9667 249.769 55.68 249.969 55.32C250.169 54.96 250.269 54.5467 250.269 54.08V51.78C250.269 51.1133 250.123 50.6333 249.829 50.34C249.536 50.0467 249.043 49.9 248.349 49.9C247.963 49.9 247.543 49.9467 247.089 50.04C246.649 50.1333 246.183 50.2933 245.689 50.52C245.436 50.64 245.209 50.6733 245.009 50.62C244.823 50.5667 244.676 50.46 244.569 50.3C244.463 50.1267 244.409 49.94 244.409 49.74C244.409 49.54 244.463 49.3467 244.569 49.16C244.676 48.96 244.856 48.8133 245.109 48.72C245.723 48.4667 246.309 48.2867 246.869 48.18C247.443 48.0733 247.963 48.02 248.429 48.02C249.389 48.02 250.176 48.1667 250.789 48.46C251.416 48.7533 251.883 49.2 252.189 49.8C252.496 50.3867 252.649 51.1467 252.649 52.08V56.88C252.649 57.2933 252.549 57.6133 252.349 57.84C252.149 58.0533 251.863 58.16 251.489 58.16C251.116 58.16 250.823 58.0533 250.609 57.84C250.409 57.6133 250.309 57.2933 250.309 56.88V55.92H250.469C250.376 56.3867 250.189 56.7933 249.909 57.14C249.643 57.4733 249.303 57.7333 248.889 57.92C248.476 58.1067 248.003 58.2 247.469 58.2ZM258.767 58.2C258.193 58.2 257.587 58.14 256.947 58.02C256.307 57.9 255.733 57.6933 255.227 57.4C255.013 57.2667 254.86 57.1133 254.767 56.94C254.687 56.7533 254.653 56.5733 254.667 56.4C254.693 56.2133 254.76 56.0533 254.867 55.92C254.987 55.7867 255.133 55.7 255.307 55.66C255.493 55.62 255.693 55.6533 255.907 55.76C256.44 56.0133 256.94 56.1933 257.407 56.3C257.873 56.3933 258.333 56.44 258.787 56.44C259.427 56.44 259.9 56.3333 260.207 56.12C260.527 55.8933 260.687 55.6 260.687 55.24C260.687 54.9333 260.58 54.7 260.367 54.54C260.167 54.3667 259.86 54.24 259.447 54.16L257.447 53.78C256.62 53.62 255.987 53.32 255.547 52.88C255.12 52.4267 254.907 51.8467 254.907 51.14C254.907 50.5 255.08 49.9467 255.427 49.48C255.787 49.0133 256.28 48.6533 256.907 48.4C257.533 48.1467 258.253 48.02 259.067 48.02C259.653 48.02 260.2 48.0867 260.707 48.22C261.227 48.34 261.727 48.5333 262.207 48.8C262.407 48.9067 262.54 49.0467 262.607 49.22C262.687 49.3933 262.707 49.5733 262.667 49.76C262.627 49.9333 262.547 50.0933 262.427 50.24C262.307 50.3733 262.153 50.46 261.967 50.5C261.793 50.5267 261.593 50.4867 261.367 50.38C260.953 50.1667 260.553 50.0133 260.167 49.92C259.793 49.8267 259.433 49.78 259.087 49.78C258.433 49.78 257.947 49.8933 257.627 50.12C257.32 50.3467 257.167 50.6467 257.167 51.02C257.167 51.3 257.26 51.5333 257.447 51.72C257.633 51.9067 257.92 52.0333 258.307 52.1L260.307 52.48C261.173 52.64 261.827 52.9333 262.267 53.36C262.72 53.7867 262.947 54.36 262.947 55.08C262.947 56.0533 262.567 56.82 261.807 57.38C261.047 57.9267 260.033 58.2 258.767 58.2ZM269.772 58.2C268.666 58.2 267.712 57.9933 266.912 57.58C266.112 57.1667 265.492 56.58 265.052 55.82C264.626 55.06 264.412 54.16 264.412 53.12C264.412 52.1067 264.619 51.22 265.032 50.46C265.459 49.7 266.039 49.1067 266.772 48.68C267.519 48.24 268.366 48.02 269.312 48.02C270.006 48.02 270.626 48.1333 271.172 48.36C271.732 48.5867 272.206 48.9133 272.592 49.34C272.992 49.7667 273.292 50.2867 273.492 50.9C273.706 51.5 273.812 52.18 273.812 52.94C273.812 53.18 273.726 53.3667 273.552 53.5C273.392 53.62 273.159 53.68 272.852 53.68H266.432V52.24H272.052L271.732 52.54C271.732 51.9267 271.639 51.4133 271.452 51C271.279 50.5867 271.019 50.2733 270.672 50.06C270.339 49.8333 269.919 49.72 269.412 49.72C268.852 49.72 268.372 49.8533 267.972 50.12C267.586 50.3733 267.286 50.74 267.072 51.22C266.872 51.6867 266.772 52.2467 266.772 52.9V53.04C266.772 54.1333 267.026 54.9533 267.532 55.5C268.052 56.0333 268.812 56.3 269.812 56.3C270.159 56.3 270.546 56.26 270.972 56.18C271.412 56.0867 271.826 55.9333 272.212 55.72C272.492 55.56 272.739 55.4933 272.952 55.52C273.166 55.5333 273.332 55.6067 273.452 55.74C273.586 55.8733 273.666 56.04 273.692 56.24C273.719 56.4267 273.679 56.62 273.572 56.82C273.479 57.02 273.312 57.1933 273.072 57.34C272.606 57.6333 272.066 57.8533 271.452 58C270.852 58.1333 270.292 58.2 269.772 58.2ZM281.902 58.1C281.609 58.1 281.362 58.02 281.162 57.86C280.975 57.6867 280.875 57.4667 280.862 57.2C280.862 56.9333 280.975 56.6533 281.202 56.36L284.442 52.36V53.54L281.402 49.8C281.162 49.5067 281.049 49.2267 281.062 48.96C281.075 48.6933 281.175 48.48 281.362 48.32C281.562 48.1467 281.809 48.06 282.102 48.06C282.409 48.06 282.662 48.1133 282.862 48.22C283.075 48.3267 283.269 48.4933 283.442 48.72L285.842 51.8H284.962L287.382 48.72C287.569 48.4933 287.762 48.3267 287.962 48.22C288.162 48.1133 288.409 48.06 288.702 48.06C289.009 48.06 289.255 48.1467 289.442 48.32C289.629 48.4933 289.722 48.7133 289.722 48.98C289.735 49.2467 289.622 49.5267 289.382 49.82L286.362 53.52V52.4L289.602 56.36C289.842 56.64 289.955 56.9133 289.942 57.18C289.929 57.4467 289.822 57.6667 289.622 57.84C289.435 58.0133 289.189 58.1 288.882 58.1C288.589 58.1 288.342 58.0467 288.142 57.94C287.942 57.8333 287.749 57.6667 287.562 57.44L284.962 54.16H285.802L283.222 57.44C283.049 57.6533 282.862 57.82 282.662 57.94C282.462 58.0467 282.209 58.1 281.902 58.1ZM299.09 58.16C298.676 58.16 298.356 58.0467 298.13 57.82C297.916 57.58 297.81 57.2533 297.81 56.84V45.06C297.81 44.6333 297.916 44.3067 298.13 44.08C298.356 43.8533 298.676 43.74 299.09 43.74C299.503 43.74 299.816 43.8533 300.03 44.08C300.256 44.3067 300.37 44.6333 300.37 45.06V49.78H307.63V45.06C307.63 44.6333 307.736 44.3067 307.95 44.08C308.176 43.8533 308.496 43.74 308.91 43.74C309.323 43.74 309.636 43.8533 309.85 44.08C310.076 44.3067 310.19 44.6333 310.19 45.06V56.84C310.19 57.2533 310.076 57.58 309.85 57.82C309.636 58.0467 309.323 58.16 308.91 58.16C308.496 58.16 308.176 58.0467 307.95 57.82C307.736 57.58 307.63 57.2533 307.63 56.84V51.92H300.37V56.84C300.37 57.2533 300.263 57.58 300.05 57.82C299.836 58.0467 299.516 58.16 299.09 58.16ZM317.858 58.2C316.752 58.2 315.798 57.9933 314.998 57.58C314.198 57.1667 313.578 56.58 313.138 55.82C312.712 55.06 312.498 54.16 312.498 53.12C312.498 52.1067 312.705 51.22 313.118 50.46C313.545 49.7 314.125 49.1067 314.858 48.68C315.605 48.24 316.452 48.02 317.398 48.02C318.092 48.02 318.712 48.1333 319.258 48.36C319.818 48.5867 320.292 48.9133 320.678 49.34C321.078 49.7667 321.378 50.2867 321.578 50.9C321.792 51.5 321.898 52.18 321.898 52.94C321.898 53.18 321.812 53.3667 321.638 53.5C321.478 53.62 321.245 53.68 320.938 53.68H314.518V52.24H320.138L319.818 52.54C319.818 51.9267 319.725 51.4133 319.538 51C319.365 50.5867 319.105 50.2733 318.758 50.06C318.425 49.8333 318.005 49.72 317.498 49.72C316.938 49.72 316.458 49.8533 316.058 50.12C315.672 50.3733 315.372 50.74 315.158 51.22C314.958 51.6867 314.858 52.2467 314.858 52.9V53.04C314.858 54.1333 315.112 54.9533 315.618 55.5C316.138 56.0333 316.898 56.3 317.898 56.3C318.245 56.3 318.632 56.26 319.058 56.18C319.498 56.0867 319.912 55.9333 320.298 55.72C320.578 55.56 320.825 55.4933 321.038 55.52C321.252 55.5333 321.418 55.6067 321.538 55.74C321.672 55.8733 321.752 56.04 321.778 56.24C321.805 56.4267 321.765 56.62 321.658 56.82C321.565 57.02 321.398 57.1933 321.158 57.34C320.692 57.6333 320.152 57.8533 319.538 58C318.938 58.1333 318.378 58.2 317.858 58.2ZM325.118 58.14C324.718 58.14 324.411 58.02 324.198 57.78C323.985 57.54 323.878 57.2067 323.878 56.78V49.44C323.878 49 323.985 48.6667 324.198 48.44C324.411 48.2 324.718 48.08 325.118 48.08C325.518 48.08 325.825 48.2 326.038 48.44C326.265 48.6667 326.378 49 326.378 49.44V56.78C326.378 57.2067 326.271 57.54 326.058 57.78C325.845 58.02 325.531 58.14 325.118 58.14ZM325.118 46.22C324.651 46.22 324.285 46.1067 324.018 45.88C323.765 45.64 323.638 45.3133 323.638 44.9C323.638 44.4733 323.765 44.1467 324.018 43.92C324.285 43.6933 324.651 43.58 325.118 43.58C325.598 43.58 325.965 43.6933 326.218 43.92C326.471 44.1467 326.598 44.4733 326.598 44.9C326.598 45.3133 326.471 45.64 326.218 45.88C325.965 46.1067 325.598 46.22 325.118 46.22ZM333.536 61.8C332.816 61.8 332.116 61.7333 331.436 61.6C330.769 61.4667 330.162 61.26 329.616 60.98C329.362 60.8467 329.189 60.6867 329.096 60.5C329.016 60.3133 328.989 60.12 329.016 59.92C329.056 59.7333 329.136 59.5667 329.256 59.42C329.389 59.2733 329.549 59.1733 329.736 59.12C329.922 59.0667 330.116 59.0933 330.316 59.2C330.902 59.4933 331.456 59.68 331.976 59.76C332.509 59.8533 332.962 59.9 333.336 59.9C334.229 59.9 334.896 59.68 335.336 59.24C335.789 58.8133 336.016 58.1733 336.016 57.32V55.52H336.196C335.996 56.2 335.576 56.7467 334.936 57.16C334.309 57.56 333.596 57.76 332.796 57.76C331.916 57.76 331.149 57.56 330.496 57.16C329.842 56.7467 329.336 56.1733 328.976 55.44C328.616 54.7067 328.436 53.8533 328.436 52.88C328.436 52.1467 328.536 51.4867 328.736 50.9C328.949 50.3 329.242 49.7867 329.616 49.36C330.002 48.9333 330.462 48.6067 330.996 48.38C331.542 48.14 332.142 48.02 332.796 48.02C333.622 48.02 334.342 48.2267 334.956 48.64C335.582 49.04 335.989 49.5733 336.176 50.24L335.976 50.74V49.32C335.976 48.9067 336.082 48.5933 336.296 48.38C336.522 48.1667 336.829 48.06 337.216 48.06C337.616 48.06 337.922 48.1667 338.136 48.38C338.349 48.5933 338.456 48.9067 338.456 49.32V57.02C338.456 58.6067 338.036 59.8 337.196 60.6C336.356 61.4 335.136 61.8 333.536 61.8ZM333.476 55.86C333.996 55.86 334.442 55.74 334.816 55.5C335.189 55.26 335.476 54.92 335.676 54.48C335.889 54.0267 335.996 53.4933 335.996 52.88C335.996 51.96 335.769 51.24 335.316 50.72C334.862 50.1867 334.249 49.92 333.476 49.92C332.956 49.92 332.509 50.04 332.136 50.28C331.762 50.52 331.469 50.86 331.256 51.3C331.056 51.74 330.956 52.2667 330.956 52.88C330.956 53.8 331.182 54.5267 331.636 55.06C332.089 55.5933 332.702 55.86 333.476 55.86ZM342.286 58.16C341.886 58.16 341.579 58.0533 341.366 57.84C341.153 57.6133 341.046 57.2933 341.046 56.88V45C341.046 44.5867 341.153 44.2733 341.366 44.06C341.579 43.8467 341.886 43.74 342.286 43.74C342.686 43.74 342.993 43.8467 343.206 44.06C343.433 44.2733 343.546 44.5867 343.546 45V50.18H343.266C343.559 49.4733 344.013 48.94 344.626 48.58C345.253 48.2067 345.959 48.02 346.746 48.02C347.533 48.02 348.179 48.1667 348.686 48.46C349.193 48.7533 349.573 49.2 349.826 49.8C350.079 50.3867 350.206 51.1333 350.206 52.04V56.88C350.206 57.2933 350.099 57.6133 349.886 57.84C349.673 58.0533 349.366 58.16 348.966 58.16C348.566 58.16 348.253 58.0533 348.026 57.84C347.813 57.6133 347.706 57.2933 347.706 56.88V52.16C347.706 51.4 347.559 50.8467 347.266 50.5C346.986 50.1533 346.546 49.98 345.946 49.98C345.213 49.98 344.626 50.2133 344.186 50.68C343.759 51.1333 343.546 51.74 343.546 52.5V56.88C343.546 57.7333 343.126 58.16 342.286 58.16ZM357.225 58.2C356.359 58.2 355.632 58.0533 355.045 57.76C354.472 57.4667 354.045 57.04 353.765 56.48C353.485 55.9067 353.345 55.2 353.345 54.36V50.1H352.305C351.985 50.1 351.739 50.02 351.565 49.86C351.392 49.6867 351.305 49.4533 351.305 49.16C351.305 48.8533 351.392 48.62 351.565 48.46C351.739 48.3 351.985 48.22 352.305 48.22H353.345V46.4C353.345 45.9867 353.452 45.6733 353.665 45.46C353.892 45.2467 354.205 45.14 354.605 45.14C355.005 45.14 355.312 45.2467 355.525 45.46C355.739 45.6733 355.845 45.9867 355.845 46.4V48.22H357.965C358.285 48.22 358.532 48.3 358.705 48.46C358.879 48.62 358.965 48.8533 358.965 49.16C358.965 49.4533 358.879 49.6867 358.705 49.86C358.532 50.02 358.285 50.1 357.965 50.1H355.845V54.22C355.845 54.86 355.985 55.34 356.265 55.66C356.545 55.98 356.999 56.14 357.625 56.14C357.852 56.14 358.052 56.12 358.225 56.08C358.399 56.04 358.552 56.0133 358.685 56C358.845 55.9867 358.979 56.04 359.085 56.16C359.192 56.2667 359.245 56.4933 359.245 56.84C359.245 57.1067 359.199 57.3467 359.105 57.56C359.025 57.76 358.872 57.9 358.645 57.98C358.472 58.0333 358.245 58.08 357.965 58.12C357.685 58.1733 357.439 58.2 357.225 58.2Z" fill="#646464"/>
<path d="M214.86 94.14C214.58 94.14 214.36 94.0667 214.2 93.92C214.04 93.76 213.96 93.54 213.96 93.26C213.96 92.98 214.04 92.7667 214.2 92.62C214.36 92.46 214.58 92.38 214.86 92.38H223.14C223.433 92.38 223.653 92.46 223.8 92.62C223.96 92.7667 224.04 92.98 224.04 93.26C224.04 93.54 223.96 93.76 223.8 93.92C223.653 94.0667 223.433 94.14 223.14 94.14H214.86ZM214.86 98.12C214.58 98.12 214.36 98.0467 214.2 97.9C214.04 97.74 213.96 97.52 213.96 97.24C213.96 96.96 214.04 96.7467 214.2 96.6C214.36 96.4533 214.58 96.38 214.86 96.38H223.14C223.433 96.38 223.653 96.4533 223.8 96.6C223.96 96.7467 224.04 96.96 224.04 97.24C224.04 97.5333 223.96 97.7533 223.8 97.9C223.653 98.0467 223.433 98.12 223.14 98.12H214.86ZM237.362 101.2C236.535 101.2 235.809 100.993 235.182 100.58C234.569 100.167 234.162 99.6133 233.962 98.92L234.182 98.42V99.88C234.182 100.293 234.075 100.613 233.862 100.84C233.649 101.053 233.349 101.16 232.962 101.16C232.562 101.16 232.255 101.053 232.042 100.84C231.829 100.613 231.722 100.293 231.722 99.88V88C231.722 87.5867 231.829 87.2733 232.042 87.06C232.255 86.8467 232.562 86.74 232.962 86.74C233.362 86.74 233.669 86.8467 233.882 87.06C234.109 87.2733 234.222 87.5867 234.222 88V93.2H233.982C234.195 92.5467 234.609 92.02 235.222 91.62C235.835 91.22 236.549 91.02 237.362 91.02C238.229 91.02 238.982 91.2267 239.622 91.64C240.262 92.0533 240.762 92.64 241.122 93.4C241.482 94.1467 241.662 95.0467 241.662 96.1C241.662 97.14 241.482 98.0467 241.122 98.82C240.762 99.58 240.255 100.167 239.602 100.58C238.962 100.993 238.215 101.2 237.362 101.2ZM236.662 99.3C237.155 99.3 237.589 99.18 237.962 98.94C238.335 98.7 238.622 98.3467 238.822 97.88C239.035 97.4 239.142 96.8067 239.142 96.1C239.142 95.0333 238.915 94.24 238.462 93.72C238.009 93.1867 237.409 92.92 236.662 92.92C236.169 92.92 235.735 93.04 235.362 93.28C234.989 93.5067 234.695 93.86 234.482 94.34C234.282 94.8067 234.182 95.3933 234.182 96.1C234.182 97.1533 234.409 97.9533 234.862 98.5C235.315 99.0333 235.915 99.3 236.662 99.3ZM249.824 101.1C249.53 101.1 249.284 101.02 249.084 100.86C248.897 100.687 248.797 100.467 248.784 100.2C248.784 99.9333 248.897 99.6533 249.124 99.36L252.364 95.36V96.54L249.324 92.8C249.084 92.5067 248.97 92.2267 248.984 91.96C248.997 91.6933 249.097 91.48 249.284 91.32C249.484 91.1467 249.73 91.06 250.024 91.06C250.33 91.06 250.584 91.1133 250.784 91.22C250.997 91.3267 251.19 91.4933 251.364 91.72L253.764 94.8H252.884L255.304 91.72C255.49 91.4933 255.684 91.3267 255.884 91.22C256.084 91.1133 256.33 91.06 256.624 91.06C256.93 91.06 257.177 91.1467 257.364 91.32C257.55 91.4933 257.644 91.7133 257.644 91.98C257.657 92.2467 257.544 92.5267 257.304 92.82L254.284 96.52V95.4L257.524 99.36C257.764 99.64 257.877 99.9133 257.864 100.18C257.85 100.447 257.744 100.667 257.544 100.84C257.357 101.013 257.11 101.1 256.804 101.1C256.51 101.1 256.264 101.047 256.064 100.94C255.864 100.833 255.67 100.667 255.484 100.44L252.884 97.16H253.724L251.144 100.44C250.97 100.653 250.784 100.82 250.584 100.94C250.384 101.047 250.13 101.1 249.824 101.1ZM266.731 101.16C266.331 101.16 266.025 101.053 265.811 100.84C265.598 100.613 265.491 100.293 265.491 99.88V88C265.491 87.5867 265.598 87.2733 265.811 87.06C266.025 86.8467 266.331 86.74 266.731 86.74C267.131 86.74 267.438 86.8467 267.651 87.06C267.878 87.2733 267.991 87.5867 267.991 88V93.18H267.711C268.005 92.4733 268.458 91.94 269.071 91.58C269.698 91.2067 270.405 91.02 271.191 91.02C271.978 91.02 272.625 91.1667 273.131 91.46C273.638 91.7533 274.018 92.2 274.271 92.8C274.525 93.3867 274.651 94.1333 274.651 95.04V99.88C274.651 100.293 274.545 100.613 274.331 100.84C274.118 101.053 273.811 101.16 273.411 101.16C273.011 101.16 272.698 101.053 272.471 100.84C272.258 100.613 272.151 100.293 272.151 99.88V95.16C272.151 94.4 272.005 93.8467 271.711 93.5C271.431 93.1533 270.991 92.98 270.391 92.98C269.658 92.98 269.071 93.2133 268.631 93.68C268.205 94.1333 267.991 94.74 267.991 95.5V99.88C267.991 100.733 267.571 101.16 266.731 101.16Z" fill="#646464"/>
</svg>
