<svg width="668" height="399" viewBox="0 0 668 399" fill="none" xmlns="http://www.w3.org/2000/svg">
<mask id="mask0_450_534" style="mask-type:alpha" maskUnits="userSpaceOnUse" x="0" y="0" width="668" height="399">
<rect width="668" height="399" fill="#D9D9D9"/>
</mask>
<g mask="url(#mask0_450_534)">
<path fill-rule="evenodd" clip-rule="evenodd" d="M0 2H668V447H0V2ZM333.5 194.172V371.896C439.996 371.938 546.493 371.972 652.991 372C633.753 312.786 614.506 253.563 594.653 194.561C507.6 194.412 420.55 194.274 333.5 194.172Z" fill="#FF9E80"/>
<mask id="mask1_450_534" style="mask-type:luminance" maskUnits="userSpaceOnUse" x="0" y="2" width="668" height="397">
<path d="M668 2H0V399H668V2Z" fill="white"/>
</mask>
<g mask="url(#mask1_450_534)">
<path d="M668.062 2H-0.0534363V165.769H668.062V2Z" fill="#D7EEFF"/>
<path fill-rule="evenodd" clip-rule="evenodd" d="M668 161H0V399H668V161ZM14 370.753C226.667 370.863 439.324 370.945 651.991 371C632.753 312.119 613.506 253.229 593.653 194.558C426.303 194.274 258.962 194.027 91.6204 194C79.6748 222.164 67.1719 250.066 54.6691 277.967C40.8623 308.779 27.0557 339.59 14 370.753Z" fill="black" fill-opacity="0.4"/>
<path fill-rule="evenodd" clip-rule="evenodd" d="M659.639 368.094C640.048 309.754 620.458 251.419 600.214 193.305H89.559C77.1755 221.88 64.152 250.163 51.1286 278.445C36.8006 309.56 22.4729 340.675 8.99819 372.178H661.011L659.639 368.094ZM333.5 195.171V369.899C439.33 369.939 545.159 369.973 650.991 370C631.753 311.784 612.506 253.559 592.653 195.551C506.267 195.407 419.883 195.272 333.5 195.171Z" fill="white"/>
<path fill-rule="evenodd" clip-rule="evenodd" d="M333.5 195.169C253.206 195.076 172.913 195.013 92.6204 195C80.6748 222.846 68.1718 250.432 55.6689 278.019C41.8622 308.482 28.0557 338.945 15 369.756C121.168 369.81 227.334 369.857 333.5 369.898V195.169Z" fill="#5085D3"/>
<path d="M335.988 370C334.394 370 333.594 370 332 370C332 311.664 332.014 253.336 332.014 195C333.594 195 334.401 195 335.988 195C336.01 253.336 335.995 311.664 335.995 370H335.988Z" fill="white"/>
<path d="M379.014 283.32C379.415 303.719 347.894 308.792 334 308.694C319.927 308.596 289.253 303.051 289.832 282.546C290.402 262.289 319.625 256.682 334 256.798C348.393 256.914 378.613 263.019 379.014 283.32Z" fill="white"/>
<path d="M374.347 283.258C374.632 300.853 347.155 306.006 334 305.917C320.685 305.828 293.965 300.221 294.365 282.564C294.766 265.12 320.31 259.441 334 259.566C347.716 259.691 374.071 265.751 374.347 283.249V283.258Z" fill="#5085D3"/>
<path d="M133.671 225.47C120.293 213.197 100.921 211.542 84.0166 211.203C82.9567 211.186 81.8434 211.212 80.7478 211.239C80.0442 212.841 79.6879 213.642 78.9754 215.235C80.0709 215.208 81.1843 215.182 82.2531 215.199C98.3207 215.529 116.677 217.131 129.476 228.665C138.614 236.898 141.251 249.732 136.78 261.115C131.578 274.883 126.341 288.651 121.148 302.419C107.361 338.002 54.5177 349.144 21.2691 349.064C20.1736 349.064 19.0781 349.047 18.0093 349.02C17.27 350.702 16.9049 351.539 16.1656 353.221C17.2433 353.247 18.3299 353.265 19.4254 353.265C54.393 353.327 110.941 341.553 125.21 303.692C130.607 289.078 136.014 274.482 141.411 259.869C144.288 246.848 144.333 235.216 133.68 225.452L133.671 225.47Z" fill="white"/>
<path d="M604.602 218.243C605.671 218.225 606.793 218.279 607.898 218.314C607.283 216.543 606.971 215.644 606.357 213.856C605.261 213.82 604.13 213.775 603.07 213.793C577.873 214.14 526.473 226.138 538.274 263.9C542.202 278.256 546.077 292.629 549.933 307.003C560.381 344.686 618.817 354.547 650.837 354.618C651.932 354.618 653.028 354.618 654.106 354.591C653.58 353.034 653.322 352.251 652.796 350.693C651.719 350.711 650.623 350.72 649.528 350.72C619.209 350.64 564.424 341.312 554.306 305.837C550.583 292.291 546.843 278.754 543.057 265.226C531.496 229.439 581.472 218.573 604.62 218.243H604.602Z" fill="white"/>
<path d="M614.56 195.833L648.12 215.6L656.68 267.558" stroke="#E4E5E6" stroke-width="3" stroke-linecap="round" stroke-linejoin="round"/>
<path d="M613.883 239.826L614.257 195.637L642.652 253.327V323.415" stroke="white" stroke-width="3" stroke-linecap="round" stroke-linejoin="round"/>
<path d="M642.652 253.327L676.212 273.094L684.21 324.029" stroke="white" stroke-width="3" stroke-linecap="round" stroke-linejoin="round"/>
<path d="M69.0801 192.852L32.1798 217.923L23.0415 264.577" stroke="#E4E5E6" stroke-width="3" stroke-linecap="round" stroke-linejoin="round"/>
<path d="M69.0801 237.494L68.6971 193.305L29.9353 253.327V323.415" stroke="white" stroke-width="3" stroke-linecap="round" stroke-linejoin="round"/>
<path d="M29.9353 253.327L-3.62501 273.094L-4.66709 330.143" stroke="white" stroke-width="3" stroke-linecap="round" stroke-linejoin="round"/>
<path d="M682.999 127.517H-14.9988V139.211H682.999V127.517Z" fill="#B5C8EA"/>
<path d="M674.796 115.84H-14.9988V127.517H674.796V115.84Z" fill="#ACBADD"/>
<path d="M682.571 104.145H-15.4263V115.84H682.571V104.145Z" fill="#B5C8EA"/>
<path d="M670.396 92.4685H-15.4263V104.145H670.396V92.4685Z" fill="#ACBADD"/>
<path d="M682.571 80.7739H-15.4263V92.4685H682.571V80.7739Z" fill="#B5C8EA"/>
<path d="M670.396 69.0972H-15.4263V80.774H670.396V69.0972Z" fill="#ACBADD"/>
<path d="M682.571 57.4025H-15.4263V69.0971H682.571V57.4025Z" fill="#B5C8EA"/>
<path d="M670.396 45.7346H-15.4263V57.4114H670.396V45.7346Z" fill="#ACBADD"/>
<path d="M62.9612 153.647L124.854 45.7346H152.001L87.9711 151.849L62.9612 153.647Z" fill="#7B7BB2"/>
<path d="M127.57 45.7346H118.655L118.147 57.4114C118.147 57.4114 110.808 57.4114 110.968 57.4114C111.128 57.4114 111.44 69.106 111.44 69.106H104.671V80.9074H97.9021L98.0446 92.4685H90.7411L91.3468 104.145H83.7583L84.6401 115.84H77.3099L77.9422 127.517H68.7238L69.4898 142.264L127.57 45.7346Z" fill="#8898BA"/>
<path d="M152.001 45.7346H145.116V57.4025L152.001 45.7346Z" fill="#ACBADD"/>
<path d="M137.902 69.0972H131.008V80.774L137.902 69.0972Z" fill="#ACBADD"/>
<path d="M124.141 92.4685H116.793V104.145L124.141 92.4685Z" fill="#ACBADD"/>
<path d="M110.006 115.84H102.649V127.517L110.006 115.84Z" fill="#ACBADD"/>
<path d="M145.116 57.4114L137.902 57.4025V69.0971L145.116 57.4114Z" fill="#B5C8EA"/>
<path d="M131.177 80.7828L123.963 80.7739V92.4685L131.177 80.7828Z" fill="#B5C8EA"/>
<path d="M117.221 104.154L110.006 104.145V115.84L117.221 104.154Z" fill="#B5C8EA"/>
<path d="M103.237 127.526L96.0228 127.517V139.211L103.237 127.526Z" fill="#B5C8EA"/>
<path d="M568.014 153.647L506.121 45.7346H478.974L543.004 151.849L568.014 153.647Z" fill="#7B7BB2"/>
<path d="M503.405 45.7346H512.32L512.828 57.4114C512.828 57.4114 520.167 57.4114 520.007 57.4114C519.847 57.4114 519.535 69.106 519.535 69.106H526.304V80.9074H533.073L532.93 92.4685H540.234L539.628 104.145H547.217L546.335 115.84H553.665L553.033 127.517H562.251L561.485 142.264L503.405 45.7346Z" fill="#8898BA"/>
<path d="M478.974 45.7346H485.859V57.4025L478.974 45.7346Z" fill="#ACBADD"/>
<path d="M493.073 69.0972H499.958V80.774L493.073 69.0972Z" fill="#ACBADD"/>
<path d="M506.834 92.4685H514.182V104.145L506.834 92.4685Z" fill="#ACBADD"/>
<path d="M520.969 115.84H528.326V127.517L520.969 115.84Z" fill="#ACBADD"/>
<path d="M485.859 57.4114L493.073 57.4025V69.0971L485.859 57.4114Z" fill="#B5C8EA"/>
<path d="M499.798 80.7828L507.012 80.7739V92.4685L499.798 80.7828Z" fill="#B5C8EA"/>
<path d="M513.754 104.154L520.969 104.145V115.84L513.754 104.154Z" fill="#B5C8EA"/>
<path d="M527.738 127.526L534.952 127.517V139.211L527.738 127.526Z" fill="#B5C8EA"/>
<path d="M689.599 27.4451H510.842V30.9962H689.599V27.4451Z" fill="#7B7BB2"/>
<path d="M654.898 29.2162H652.841V45.7257H654.898V29.2162Z" fill="#7B7BB2"/>
<path d="M627.288 29.2162H625.23V45.7257H627.288V29.2162Z" fill="#7B7BB2"/>
<path d="M599.677 29.2162H597.62V45.7257H599.677V29.2162Z" fill="#7B7BB2"/>
<path d="M572.066 29.2162H570.009V45.7257H572.066V29.2162Z" fill="#7B7BB2"/>
<path d="M544.456 29.2162H542.398V45.7257H544.456V29.2162Z" fill="#7B7BB2"/>
<path d="M516.845 29.2162H514.788V45.7257H516.845V29.2162Z" fill="#7B7BB2"/>
<path d="M466.647 27.4451H152.001V30.9962H466.647V27.4451Z" fill="#7B7BB2"/>
<path d="M461.624 29.2162H459.566V45.7257H461.624V29.2162Z" fill="#7B7BB2"/>
<path d="M433.122 29.2162H431.065V45.7257H433.122V29.2162Z" fill="#7B7BB2"/>
<path d="M405.512 29.2162H403.454V45.7257H405.512V29.2162Z" fill="#7B7BB2"/>
<path d="M377.901 29.2162H375.844V45.7257H377.901V29.2162Z" fill="#7B7BB2"/>
<path d="M350.29 29.2162H348.233V45.7257H350.29V29.2162Z" fill="#7B7BB2"/>
<path d="M322.68 29.2162H320.622V45.7257H322.68V29.2162Z" fill="#7B7BB2"/>
<path d="M295.069 29.2162H293.012V45.7257H295.069V29.2162Z" fill="#7B7BB2"/>
<path d="M267.458 29.2162H265.401V45.7257H267.458V29.2162Z" fill="#7B7BB2"/>
<path d="M239.848 29.2162H237.79V45.7257H239.848V29.2162Z" fill="#7B7BB2"/>
<path d="M212.237 29.2162H210.18V45.7257H212.237V29.2162Z" fill="#7B7BB2"/>
<path d="M184.626 29.2162H182.569V45.7257H184.626V29.2162Z" fill="#7B7BB2"/>
<path d="M157.016 29.2162H154.958V45.7257H157.016V29.2162Z" fill="#7B7BB2"/>
<path d="M110.22 27.4451H-14.9988V30.9962H110.22V27.4451Z" fill="#7B7BB2"/>
<path d="M101.794 29.2162H99.7369V45.7257H101.794V29.2162Z" fill="#7B7BB2"/>
<path d="M74.1836 29.2162H72.1262V45.7257H74.1836V29.2162Z" fill="#7B7BB2"/>
<path d="M46.573 29.2162H44.5155V45.7257H46.573V29.2162Z" fill="#7B7BB2"/>
<path d="M18.9623 29.2162H16.9049V45.7257H18.9623V29.2162Z" fill="#7B7BB2"/>
<path d="M682.571 139.211H-14.2952V172.132H682.571V139.211Z" fill="#F7E74B"/>
<path d="M52.4425 145.788H-14.2952V172.132H52.4425V145.788Z" fill="#281C1D"/>
<path d="M320.391 145.788H188.305V172.132H320.391V145.788Z" fill="#281C1D"/>
<path d="M326.429 145.788H320.453V172.132H326.429V145.788Z" fill="white"/>
<path d="M572.627 145.788H440.542V172.132H572.627V145.788Z" fill="#281C1D"/>
<path d="M440.479 145.788H434.574V172.132H440.479V145.788Z" fill="white"/>
<path d="M682.571 145.788H572.627V172.132H682.571V145.788Z" fill="white"/>
<path d="M188.305 145.788H51.1955V172.132H188.305V145.788Z" fill="white"/>
<path d="M434.449 145.788H326.554V172.132H434.449V145.788Z" fill="#F4456A"/>
</g>
<rect width="668" height="172" fill="black" fill-opacity="0.4"/>
</g>
</svg>
