<svg width="24" height="24" viewBox="0 0 24 24" fill="none" xmlns="http://www.w3.org/2000/svg">
<circle cx="12" cy="12" r="11.5" fill="white" stroke="#1A1A1A"/>
<path d="M12.0156 13.752C11.813 13.752 11.653 13.688 11.5356 13.56C11.429 13.432 11.365 13.2507 11.3436 13.016L10.8636 6.904C10.8316 6.50933 10.917 6.19467 11.1196 5.96C11.3223 5.71467 11.621 5.592 12.0156 5.592C12.3996 5.592 12.6876 5.71467 12.8796 5.96C13.0823 6.19467 13.1676 6.50933 13.1356 6.904L12.6556 13.016C12.645 13.2507 12.581 13.432 12.4636 13.56C12.357 13.688 12.2076 13.752 12.0156 13.752ZM12.0156 17.08C11.653 17.08 11.3596 16.968 11.1356 16.744C10.9223 16.52 10.8156 16.232 10.8156 15.88C10.8156 15.5387 10.9223 15.2613 11.1356 15.048C11.3596 14.824 11.653 14.712 12.0156 14.712C12.389 14.712 12.677 14.824 12.8796 15.048C13.093 15.2613 13.1996 15.5387 13.1996 15.88C13.1996 16.232 13.093 16.52 12.8796 16.744C12.677 16.968 12.389 17.08 12.0156 17.08Z" fill="black"/>
</svg>
