<svg width="21" height="17" viewBox="0 0 21 17" fill="none" xmlns="http://www.w3.org/2000/svg">
<path d="M20.2844 13.304C20.4252 13.4462 20.5042 13.6382 20.5042 13.8384C20.5042 14.0385 20.4252 14.2305 20.2844 14.3727L18.0344 16.6227C17.891 16.7613 17.6994 16.8388 17.5 16.8388C17.3006 16.8388 17.109 16.7613 16.9656 16.6227C16.8248 16.4805 16.7458 16.2885 16.7458 16.0884C16.7458 15.8882 16.8248 15.6962 16.9656 15.554L17.9406 14.5884H16.8344C15.7596 14.5865 14.7008 14.3287 13.7455 13.8364C12.7902 13.344 11.9658 12.6313 11.3406 11.7571L7.43125 6.29148C6.94613 5.61206 6.30623 5.05789 5.56449 4.67479C4.82274 4.29169 4.00046 4.09067 3.16562 4.08835H1C0.801088 4.08835 0.610322 4.00933 0.46967 3.86868C0.329018 3.72803 0.25 3.53726 0.25 3.33835C0.25 3.13944 0.329018 2.94867 0.46967 2.80802C0.610322 2.66737 0.801088 2.58835 1 2.58835H3.16562C4.24035 2.59024 5.29918 2.84802 6.2545 3.34035C7.20983 3.83268 8.03419 4.54542 8.65937 5.4196L12.5687 10.8852C13.0539 11.5646 13.6938 12.1188 14.4355 12.5019C15.1773 12.885 15.9995 13.086 16.8344 13.0884H17.9406L16.9656 12.1227C16.846 11.977 16.7849 11.792 16.7942 11.6037C16.8034 11.4154 16.8824 11.2373 17.0157 11.104C17.149 10.9707 17.3271 10.8918 17.5154 10.8825C17.7037 10.8733 17.8887 10.9344 18.0344 11.054L20.2844 13.304ZM11.4062 6.6196C11.4867 6.67725 11.5779 6.71838 11.6743 6.74064C11.7708 6.76289 11.8707 6.76582 11.9684 6.74926C12.066 6.7327 12.1593 6.69698 12.2431 6.64415C12.3268 6.59133 12.3993 6.52244 12.4562 6.44147L12.5687 6.29148C13.0539 5.61206 13.6938 5.05789 14.4355 4.67479C15.1773 4.29169 15.9995 4.09067 16.8344 4.08835H17.9406L16.9656 5.05398C16.8248 5.19617 16.7458 5.38821 16.7458 5.58835C16.7458 5.78849 16.8248 5.98053 16.9656 6.12273C17.109 6.26134 17.3006 6.33883 17.5 6.33883C17.6994 6.33883 17.891 6.26134 18.0344 6.12273L20.2844 3.87273C20.4252 3.73053 20.5042 3.53849 20.5042 3.33835C20.5042 3.13821 20.4252 2.94617 20.2844 2.80398L18.0344 0.553975C17.8887 0.434378 17.7037 0.373259 17.5154 0.382507C17.3271 0.391754 17.149 0.470707 17.0157 0.604008C16.8824 0.737309 16.8034 0.915427 16.7942 1.10372C16.7849 1.29201 16.846 1.477 16.9656 1.62273L17.9406 2.58835H16.8344C15.7596 2.59024 14.7008 2.84802 13.7455 3.34035C12.7902 3.83268 11.9658 4.54542 11.3406 5.4196L11.2375 5.5696C11.1794 5.64953 11.1376 5.74016 11.1147 5.83628C11.0917 5.93239 11.0879 6.03211 11.1036 6.12968C11.1193 6.22726 11.1541 6.32077 11.206 6.40485C11.258 6.48892 11.326 6.56191 11.4062 6.6196ZM8.59375 10.5571C8.51325 10.4995 8.42214 10.4583 8.32566 10.4361C8.22919 10.4138 8.12926 10.4109 8.03164 10.4274C7.93403 10.444 7.84066 10.4797 7.75692 10.5325C7.67318 10.5854 7.60073 10.6543 7.54375 10.7352L7.43125 10.8852C6.94613 11.5646 6.30623 12.1188 5.56449 12.5019C4.82274 12.885 4.00046 13.086 3.16562 13.0884H1C0.801088 13.0884 0.610322 13.1674 0.46967 13.308C0.329018 13.4487 0.25 13.6394 0.25 13.8384C0.25 14.0373 0.329018 14.228 0.46967 14.3687C0.610322 14.5093 0.801088 14.5884 1 14.5884H3.16562C4.24035 14.5865 5.29918 14.3287 6.2545 13.8364C7.20983 13.344 8.03419 12.6313 8.65937 11.7571L8.7625 11.6071C8.82062 11.5272 8.86237 11.4365 8.88535 11.3404C8.90833 11.2443 8.91209 11.1446 8.8964 11.047C8.88072 10.9494 8.84591 10.8559 8.79397 10.7719C8.74203 10.6878 8.67399 10.6148 8.59375 10.5571Z" fill="white"/>
</svg>
