<svg width="8" height="49" viewBox="0 0 8 49" fill="none" xmlns="http://www.w3.org/2000/svg">
<path d="M5.57088 47.54C1.96688 39.9433 0.164875 32.117 0.164875 24.061C0.164875 16.0403 1.96688 8.214 5.57088 0.581998C5.71221 0.228665 5.97721 0.0519989 6.36588 0.0519989C6.68388 0.0519989 6.94888 0.193333 7.16088 0.476C7.37288 0.723332 7.40821 1.02366 7.26688 1.377C5.64154 5.12233 4.42254 8.92067 3.60988 12.772C2.79721 16.6233 2.39088 20.3863 2.39088 24.061C2.39088 27.7357 2.79721 31.4987 3.60988 35.35C4.42254 39.2013 5.64154 43.0173 7.26688 46.798C7.33754 47.01 7.37288 47.1337 7.37288 47.169C7.37288 47.4163 7.26688 47.6283 7.05488 47.805C6.84288 47.9817 6.61321 48.07 6.36588 48.07C5.97721 48.07 5.71221 47.8933 5.57088 47.54Z" fill="#646464"/>
</svg>
