<svg width="8" height="49" viewBox="0 0 8 49" fill="none" xmlns="http://www.w3.org/2000/svg">
<path d="M2.42912 47.54C6.03312 39.9433 7.83512 32.117 7.83512 24.061C7.83512 16.0403 6.03312 8.214 2.42912 0.581998C2.28779 0.228665 2.02279 0.0519989 1.63412 0.0519989C1.31612 0.0519989 1.05112 0.193333 0.839125 0.476C0.627124 0.723332 0.591791 1.02366 0.733124 1.377C2.35846 5.12233 3.57746 8.92067 4.39012 12.772C5.20279 16.6233 5.60912 20.3863 5.60912 24.061C5.60912 27.7357 5.20279 31.4987 4.39012 35.35C3.57746 39.2013 2.35846 43.0173 0.733124 46.798C0.662458 47.01 0.627124 47.1337 0.627124 47.169C0.627124 47.4163 0.733124 47.6283 0.945124 47.805C1.15712 47.9817 1.38679 48.07 1.63412 48.07C2.02279 48.07 2.28779 47.8933 2.42912 47.54Z" fill="#646464"/>
</svg>
