<svg width="5" height="16" viewBox="0 0 5 16" fill="none" xmlns="http://www.w3.org/2000/svg">
<path d="M4.86 5.43303L0.279909 5.93798L0.115907 6.60655L1.01592 6.75258C1.60393 6.87574 1.71994 7.06224 1.59193 7.57774L0.115907 13.6793C-0.272101 15.2575 0.325911 16 1.73194 16C2.82196 16 4.08798 15.5566 4.66199 14.9479L4.838 14.216C4.43799 14.5256 3.85398 14.6488 3.46597 14.6488C2.91596 14.6488 2.71596 14.3092 2.85796 13.711L4.86 5.43303ZM5 1.7594C5 2.22602 4.78928 2.67353 4.4142 3.00349C4.03912 3.33344 3.5304 3.5188 2.99996 3.5188C2.46952 3.5188 1.9608 3.33344 1.58572 3.00349C1.21064 2.67353 0.999923 2.22602 0.999923 1.7594C0.999923 1.29278 1.21064 0.845269 1.58572 0.515317C1.9608 0.185365 2.46952 0 2.99996 0C3.5304 0 4.03912 0.185365 4.4142 0.515317C4.78928 0.845269 5 1.29278 5 1.7594Z" fill="#1A1A1A"/>
</svg>
