<svg width="648" height="271" viewBox="0 0 648 271" fill="none" xmlns="http://www.w3.org/2000/svg">
<rect x="0.25" y="7.25" width="647.5" height="263.5" rx="7.75" fill="white"/>
<rect x="0.25" y="7.25" width="647.5" height="263.5" rx="7.75" stroke="#1A1A1A" stroke-width="0.5"/>
<rect width="1" height="12" transform="matrix(-4.37114e-08 1 1 4.37114e-08 599 7)" fill="white"/>
<path d="M610.747 7.16515C611.037 7.4868 610.809 8 610.376 8L599.571 8C599.147 8 598.915 7.50428 599.188 7.17887L604.333 1.03846L604.392 0.967183C604.592 0.724893 604.963 0.724893 605.163 0.967183L605.222 1.03846L610.747 7.16515Z" fill="white"/>
<path d="M611 7L605.463 0.867016C605.052 0.411469 604.331 0.430444 603.944 0.906999L599 7" stroke="#1A1A1A" stroke-width="0.5" stroke-linecap="square"/>
</svg>
