<svg width="316" height="86" viewBox="0 0 316 86" fill="none" xmlns="http://www.w3.org/2000/svg">
<rect x="218.25" y="0.25" width="97.5" height="79.5" rx="7.75" fill="white"/>
<rect x="218.25" y="0.25" width="97.5" height="79.5" rx="7.75" stroke="#1A1A1A" stroke-width="0.5"/>
<path d="M4 40.0001L3.5 40.0001L3.5 39.5001L4 39.5001L4 40.0001ZM4.35355 85.3535C4.15829 85.5488 3.84171 85.5488 3.64645 85.3535L0.464466 82.1716C0.269204 81.9763 0.269204 81.6597 0.464466 81.4645C0.659728 81.2692 0.976311 81.2692 1.17157 81.4645L4 84.2929L6.82843 81.4645C7.02369 81.2692 7.34027 81.2692 7.53553 81.4645C7.7308 81.6597 7.7308 81.9763 7.53553 82.1716L4.35355 85.3535ZM215 40.5L4 40.5001L4 39.5001L215 39.5L215 40.5ZM4.5 40.0001L4.5 85L3.5 85L3.5 40.0001L4.5 40.0001Z" fill="#2C2C2C"/>
<path d="M218 35C215.239 35 213 37.2386 213 40C213 42.7614 215.239 45 218 45L218 40L218 35Z" fill="#2C2C2C"/>
</svg>
