<svg width="150" height="81" viewBox="0 0 150 81" fill="none" xmlns="http://www.w3.org/2000/svg">
<path d="M53 36C53 33.2386 50.7614 31 48 31C45.2386 31 43 33.2386 43 36H48H53Z" fill="#2C2C2C"/>
<path d="M48 21.6838L48.1847 21.2192L48.5 21.3445L48.5 21.6838L48 21.6838ZM0.540849 3.19794C0.43153 2.94436 0.548479 2.65017 0.802061 2.54085L4.93442 0.759397C5.18801 0.650078 5.4822 0.767027 5.59151 1.02061C5.70083 1.27419 5.58388 1.56838 5.3303 1.6777L1.65709 3.26121L3.24061 6.93443C3.34992 7.18801 3.23298 7.4822 2.97939 7.59152C2.72581 7.70084 2.43162 7.58389 2.3223 7.3303L0.540849 3.19794ZM47.5 36L47.5 21.6838L48.5 21.6838L48.5 36L47.5 36ZM47.8153 22.1485L0.815295 3.46464L1.18471 2.53537L48.1847 21.2192L47.8153 22.1485Z" fill="#2C2C2C"/>
<rect x="22.25" y="36.25" width="127.5" height="44.5" rx="7.75" fill="white"/>
<rect x="22.25" y="36.25" width="127.5" height="44.5" rx="7.75" stroke="#1A1A1A" stroke-width="0.5"/>
</svg>
