<svg width="126" height="42" viewBox="0 0 126 42" fill="none" xmlns="http://www.w3.org/2000/svg">
<path d="M26.4984 26.5019C26.6627 26.6678 26.7549 26.8918 26.7549 27.1253C26.7549 27.3588 26.6627 27.5829 26.4984 27.7488L23.8734 30.3738C23.7062 30.5355 23.4826 30.6259 23.25 30.6259C23.0174 30.6259 22.7938 30.5355 22.6266 30.3738C22.4623 30.2079 22.3701 29.9838 22.3701 29.7503C22.3701 29.5168 22.4623 29.2928 22.6266 29.1269L23.7641 28.0003H22.4734C21.2196 27.9981 19.9843 27.6974 18.8697 27.123C17.7552 26.5486 16.7934 25.7171 16.0641 24.6972L11.5031 18.3206C10.9371 17.528 10.1906 16.8815 9.32524 16.4345C8.45987 15.9876 7.50053 15.753 6.52656 15.7503H4C3.76794 15.7503 3.54538 15.6581 3.38128 15.4941C3.21719 15.33 3.125 15.1074 3.125 14.8753C3.125 14.6433 3.21719 14.4207 3.38128 14.2566C3.54538 14.0925 3.76794 14.0003 4 14.0003H6.52656C7.78041 14.0025 9.01571 14.3033 10.1303 14.8777C11.2448 15.4521 12.2066 16.2836 12.9359 17.3035L17.4969 23.68C18.0629 24.4727 18.8094 25.1192 19.6748 25.5662C20.5401 26.0131 21.4995 26.2476 22.4734 26.2503H23.7641L22.6266 25.1238C22.487 24.9538 22.4157 24.7379 22.4265 24.5183C22.4373 24.2986 22.5294 24.0908 22.6849 23.9353C22.8405 23.7797 23.0483 23.6876 23.2679 23.6768C23.4876 23.6661 23.7034 23.7374 23.8734 23.8769L26.4984 26.5019ZM16.1406 18.7035C16.2345 18.7707 16.3408 18.8187 16.4534 18.8447C16.566 18.8706 16.6825 18.8741 16.7964 18.8547C16.9103 18.8354 17.0192 18.7937 17.1169 18.7321C17.2146 18.6705 17.2991 18.5901 17.3656 18.4956L17.4969 18.3206C18.0629 17.528 18.8094 16.8815 19.6748 16.4345C20.5401 15.9876 21.4995 15.753 22.4734 15.7503H23.7641L22.6266 16.8769C22.4623 17.0428 22.3701 17.2668 22.3701 17.5003C22.3701 17.7338 22.4623 17.9579 22.6266 18.1238C22.7938 18.2855 23.0174 18.3759 23.25 18.3759C23.4826 18.3759 23.7062 18.2855 23.8734 18.1238L26.4984 15.4988C26.6627 15.3329 26.7549 15.1088 26.7549 14.8753C26.7549 14.6418 26.6627 14.4178 26.4984 14.2519L23.8734 11.6269C23.7034 11.4874 23.4876 11.4161 23.2679 11.4268C23.0483 11.4376 22.8405 11.5297 22.6849 11.6853C22.5294 11.8408 22.4373 12.0486 22.4265 12.2683C22.4157 12.4879 22.487 12.7038 22.6266 12.8738L23.7641 14.0003H22.4734C21.2196 14.0025 19.9843 14.3033 18.8697 14.8777C17.7552 15.4521 16.7934 16.2836 16.0641 17.3035L15.9438 17.4785C15.8759 17.5717 15.8272 17.6774 15.8004 17.7896C15.7736 17.9017 15.7692 18.018 15.7875 18.1319C15.8058 18.2457 15.8464 18.3548 15.907 18.4529C15.9676 18.551 16.047 18.6361 16.1406 18.7035ZM12.8594 23.2972C12.7655 23.23 12.6592 23.182 12.5466 23.156C12.4341 23.13 12.3175 23.1266 12.2036 23.1459C12.0897 23.1653 11.9808 23.2069 11.8831 23.2686C11.7854 23.3302 11.7009 23.4106 11.6344 23.505L11.5031 23.68C10.9371 24.4727 10.1906 25.1192 9.32524 25.5662C8.45987 26.0131 7.50053 26.2476 6.52656 26.2503H4C3.76794 26.2503 3.54538 26.3425 3.38128 26.5066C3.21719 26.6707 3.125 26.8933 3.125 27.1253C3.125 27.3574 3.21719 27.58 3.38128 27.7441C3.54538 27.9081 3.76794 28.0003 4 28.0003H6.52656C7.78041 27.9981 9.01571 27.6974 10.1303 27.123C11.2448 26.5486 12.2066 25.7171 12.9359 24.6972L13.0563 24.5222C13.1241 24.429 13.1728 24.3232 13.1996 24.2111C13.2264 24.0989 13.2308 23.9826 13.2125 23.8688C13.1942 23.7549 13.1536 23.6458 13.093 23.5478C13.0324 23.4497 12.953 23.3645 12.8594 23.2972Z" fill="white"/>
<path d="M43.1515 29.192C42.6555 29.192 42.2715 29.056 41.9995 28.784C41.7435 28.496 41.6155 28.104 41.6155 27.608V14.648H36.9355C36.5195 14.648 36.1915 14.536 35.9515 14.312C35.7275 14.072 35.6155 13.752 35.6155 13.352C35.6155 12.936 35.7275 12.624 35.9515 12.416C36.1915 12.192 36.5195 12.08 36.9355 12.08H49.3675C49.7835 12.08 50.1035 12.192 50.3275 12.416C50.5675 12.624 50.6875 12.936 50.6875 13.352C50.6875 13.752 50.5675 14.072 50.3275 14.312C50.1035 14.536 49.7835 14.648 49.3675 14.648H44.6875V27.608C44.6875 28.104 44.5595 28.496 44.3035 28.784C44.0475 29.056 43.6635 29.192 43.1515 29.192ZM51.8148 29.192C51.3188 29.192 50.9348 29.064 50.6628 28.808C50.4068 28.536 50.2788 28.152 50.2788 27.656V18.584C50.2788 18.088 50.4068 17.712 50.6628 17.456C50.9188 17.2 51.2788 17.072 51.7428 17.072C52.2068 17.072 52.5668 17.2 52.8228 17.456C53.0788 17.712 53.2068 18.088 53.2068 18.584V20.096H52.9668C53.1908 19.136 53.6308 18.408 54.2868 17.912C54.9428 17.416 55.8148 17.12 56.9028 17.024C57.2388 16.992 57.5028 17.08 57.6948 17.288C57.9028 17.48 58.0228 17.784 58.0548 18.2C58.0868 18.6 57.9908 18.928 57.7668 19.184C57.5588 19.424 57.2388 19.568 56.8068 19.616L56.2788 19.664C55.3028 19.76 54.5668 20.064 54.0708 20.576C53.5748 21.072 53.3268 21.776 53.3268 22.688V27.656C53.3268 28.152 53.1988 28.536 52.9428 28.808C52.6868 29.064 52.3108 29.192 51.8148 29.192ZM63.3798 33.512C63.0278 33.512 62.7398 33.416 62.5158 33.224C62.2918 33.048 62.1558 32.808 62.1078 32.504C62.0758 32.2 62.1318 31.88 62.2758 31.544L63.9078 27.92V29.168L59.5398 19.064C59.3958 18.712 59.3478 18.384 59.3958 18.08C59.4438 17.776 59.5878 17.536 59.8278 17.36C60.0838 17.168 60.4278 17.072 60.8598 17.072C61.2278 17.072 61.5238 17.16 61.7478 17.336C61.9718 17.496 62.1718 17.808 62.3478 18.272L65.5878 26.36H64.8678L68.1798 18.248C68.3558 17.8 68.5638 17.496 68.8038 17.336C69.0438 17.16 69.3638 17.072 69.7638 17.072C70.1158 17.072 70.3958 17.168 70.6038 17.36C70.8118 17.536 70.9398 17.776 70.9878 18.08C71.0358 18.368 70.9798 18.688 70.8198 19.04L64.9878 32.36C64.7798 32.808 64.5558 33.112 64.3158 33.272C64.0758 33.432 63.7638 33.512 63.3798 33.512ZM81.0402 29.192C80.5602 29.192 80.1922 29.064 79.9362 28.808C79.6802 28.536 79.5522 28.152 79.5522 27.656V18.584C79.5522 18.088 79.6802 17.712 79.9362 17.456C80.1922 17.2 80.5522 17.072 81.0162 17.072C81.4802 17.072 81.8402 17.2 82.0962 17.456C82.3522 17.712 82.4802 18.088 82.4802 18.584V20.216L82.2162 19.616C82.5682 18.768 83.1122 18.128 83.8482 17.696C84.6002 17.248 85.4482 17.024 86.3922 17.024C87.3362 17.024 88.1122 17.2 88.7202 17.552C89.3282 17.904 89.7842 18.44 90.0882 19.16C90.3922 19.864 90.5442 20.76 90.5442 21.848V27.656C90.5442 28.152 90.4162 28.536 90.1602 28.808C89.9042 29.064 89.5362 29.192 89.0562 29.192C88.5762 29.192 88.2002 29.064 87.9282 28.808C87.6722 28.536 87.5442 28.152 87.5442 27.656V21.992C87.5442 21.08 87.3682 20.416 87.0162 20C86.6802 19.584 86.1522 19.376 85.4322 19.376C84.5522 19.376 83.8482 19.656 83.3202 20.216C82.8082 20.76 82.5522 21.488 82.5522 22.4V27.656C82.5522 28.68 82.0482 29.192 81.0402 29.192ZM99.3753 29.24C98.0473 29.24 96.9033 28.992 95.9433 28.496C94.9833 28 94.2393 27.296 93.7113 26.384C93.1993 25.472 92.9433 24.392 92.9433 23.144C92.9433 21.928 93.1913 20.864 93.6873 19.952C94.1993 19.04 94.8953 18.328 95.7753 17.816C96.6713 17.288 97.6873 17.024 98.8233 17.024C99.6553 17.024 100.399 17.16 101.055 17.432C101.727 17.704 102.295 18.096 102.759 18.608C103.239 19.12 103.599 19.744 103.839 20.48C104.095 21.2 104.223 22.016 104.223 22.928C104.223 23.216 104.119 23.44 103.911 23.6C103.719 23.744 103.439 23.816 103.071 23.816H95.3673V22.088H102.111L101.727 22.448C101.727 21.712 101.615 21.096 101.391 20.6C101.183 20.104 100.871 19.728 100.455 19.472C100.055 19.2 99.5513 19.064 98.9433 19.064C98.2713 19.064 97.6953 19.224 97.2153 19.544C96.7513 19.848 96.3913 20.288 96.1353 20.864C95.8953 21.424 95.7753 22.096 95.7753 22.88V23.048C95.7753 24.36 96.0793 25.344 96.6873 26C97.3113 26.64 98.2233 26.96 99.4233 26.96C99.8393 26.96 100.303 26.912 100.815 26.816C101.343 26.704 101.839 26.52 102.303 26.264C102.639 26.072 102.935 25.992 103.191 26.024C103.447 26.04 103.647 26.128 103.791 26.288C103.951 26.448 104.047 26.648 104.079 26.888C104.111 27.112 104.063 27.344 103.935 27.584C103.823 27.824 103.623 28.032 103.335 28.208C102.775 28.56 102.127 28.824 101.391 29C100.671 29.16 99.9993 29.24 99.3753 29.24ZM110.948 29.192C110.548 29.192 110.204 29.096 109.916 28.904C109.628 28.696 109.396 28.376 109.22 27.944L105.74 19.064C105.596 18.68 105.548 18.344 105.596 18.056C105.66 17.752 105.812 17.512 106.052 17.336C106.292 17.16 106.612 17.072 107.012 17.072C107.364 17.072 107.652 17.16 107.876 17.336C108.1 17.496 108.292 17.808 108.452 18.272L111.356 26.264H110.804L113.804 18.08C113.932 17.728 114.1 17.472 114.308 17.312C114.532 17.152 114.82 17.072 115.172 17.072C115.524 17.072 115.812 17.16 116.036 17.336C116.26 17.496 116.428 17.744 116.54 18.08L119.492 26.264H118.988L121.916 18.2C122.076 17.768 122.276 17.472 122.516 17.312C122.772 17.152 123.052 17.072 123.356 17.072C123.74 17.072 124.036 17.168 124.244 17.36C124.452 17.552 124.572 17.8 124.604 18.104C124.636 18.392 124.58 18.712 124.436 19.064L120.98 27.944C120.82 28.36 120.588 28.672 120.284 28.88C119.996 29.088 119.652 29.192 119.252 29.192C118.852 29.192 118.5 29.088 118.196 28.88C117.908 28.672 117.684 28.36 117.524 27.944L114.38 19.616H115.748L112.676 27.92C112.516 28.352 112.292 28.672 112.004 28.88C111.716 29.088 111.364 29.192 110.948 29.192Z" fill="white"/>
</svg>
