<svg width="335" height="187" viewBox="0 0 335 187" fill="none" xmlns="http://www.w3.org/2000/svg">
<path d="M175.329 86.5273H159.019V116.428H175.329V86.5273Z" fill="#565557"/>
<path d="M189.12 116.428H145.238V126.395H189.12V116.428Z" fill="#B6B5B5"/>
<path d="M327.87 164.415H311.053V179.266H327.87V164.415Z" fill="#E1E1E1"/>
<path d="M332.701 182.827V186.125H306.234V182.827C306.234 180.054 308.354 179.511 311.064 179.257H327.881C330.59 179.502 332.701 180.054 332.701 182.827Z" fill="#565557"/>
<path d="M23.2876 164.415H6.47052V179.266H23.2876V164.415Z" fill="#E1E1E1"/>
<path d="M28.1171 182.827V186.125H1.65012V182.827C1.65012 180.054 3.77037 179.511 6.47959 179.257H23.2967C26.0059 179.502 28.1171 180.054 28.1171 182.827Z" fill="#565557"/>
<path d="M295.097 126.396H39.2534C30.1834 126.396 21.9017 131.543 17.8787 139.679L0.17363 175.524H334.177L316.472 139.679C312.458 131.543 304.167 126.396 295.097 126.396Z" fill="#B6B5B5"/>
<path d="M13.3885 148.785H320.97L318.696 144.182H15.6628L13.3885 148.785Z" fill="#DAD9D9"/>
<path d="M11.1756 153.26H323.179L320.905 148.657H13.4499L11.1756 153.26Z" fill="#868484"/>
<path d="M189.12 116.428H145.238V126.395H189.12V116.428Z" fill="#747273"/>
<circle cx="166.72" cy="78.8253" r="17.6688" fill="#918F90"/>
<circle cx="166.718" cy="78.8255" r="5.8896" fill="#58595B"/>
<path d="M167.174 64.6641V42.918" stroke="#888888" stroke-width="4" stroke-linecap="round"/>
<circle cx="167.174" cy="22.0782" r="20.7462" fill="#F1EDFF" stroke="#7F5CF4" stroke-width="2"/>
</svg>
