<svg width="240" height="299" viewBox="0 0 240 299" fill="none" xmlns="http://www.w3.org/2000/svg">
<path d="M179 149.5C179 101.243 202.174 58.3993 238 31.4892C213.348 12.9724 182.705 2 149.5 2C68.038 2 2 68.038 2 149.5C2 230.962 68.038 297 149.5 297C182.705 297 213.348 286.028 238 267.511C202.174 240.601 179 197.757 179 149.5Z" fill="#E7FBFF"/>
<path d="M238 31.4892C213.348 12.9724 182.705 2 149.5 2C68.038 2 2 68.038 2 149.5C2 230.962 68.038 297 149.5 297C182.705 297 213.348 286.028 238 267.511" stroke="#1CB9D9" stroke-width="3" stroke-linecap="round" stroke-dasharray="16 16"/>
</svg>
