<svg width="240" height="299" viewBox="0 0 240 299" fill="none" xmlns="http://www.w3.org/2000/svg">
<path d="M61 149.5C61 197.757 37.8262 240.601 2 267.511C26.652 286.028 57.2946 297 90.5 297C171.962 297 238 230.962 238 149.5C238 68.038 171.962 2 90.5 2C57.2946 2 26.652 12.9724 2 31.4892C37.8262 58.3993 61 101.243 61 149.5Z" fill="#FFF2E5"/>
<path d="M2 267.511C26.652 286.028 57.2946 297 90.5 297C171.962 297 238 230.962 238 149.5C238 68.038 171.962 2 90.5 2C57.2946 2 26.652 12.9724 2 31.4892" stroke="#FF8F1F" stroke-width="3" stroke-linecap="round" stroke-dasharray="16 16"/>
</svg>
