<svg width="24" height="24" viewBox="0 0 24 24" fill="none" xmlns="http://www.w3.org/2000/svg">
<path d="M21.5108 16.8558L8.33894 7.84266C8.44604 7.48849 8.50037 7.12048 8.50019 6.75047C8.50029 5.90209 8.21272 5.07875 7.68445 4.41492C7.15617 3.75109 6.41841 3.28601 5.59167 3.09564C4.76493 2.90526 3.89806 3.00085 3.13267 3.36679C2.36727 3.73273 1.74857 4.34739 1.37763 5.11037C1.00669 5.87336 0.905432 6.73958 1.09039 7.56755C1.27535 8.39552 1.73559 9.13631 2.39595 9.66892C3.05631 10.2015 3.87775 10.4945 4.72611 10.4999C5.57447 10.5054 6.39961 10.223 7.06675 9.69891L9.87925 11.6264L7.06675 13.5539C6.49854 13.1075 5.81345 12.8347 5.0939 12.7685C4.37434 12.7022 3.65096 12.8452 3.01078 13.1804C2.37059 13.5155 1.84087 14.0285 1.48533 14.6576C1.12979 15.2866 0.963574 16.0051 1.00668 16.7264C1.04978 17.4477 1.30037 18.1412 1.7283 18.7234C2.15623 19.3057 2.74328 19.7519 3.41882 20.0084C4.09436 20.265 4.82962 20.3208 5.53617 20.1693C6.24271 20.0178 6.89044 19.6654 7.40144 19.1545C7.75114 18.8069 8.02834 18.3933 8.21696 17.9377C8.40557 17.4821 8.50184 16.9936 8.50019 16.5005C8.50046 16.1302 8.44613 15.7618 8.33894 15.4073L11.8752 12.9886L20.2396 18.713C20.3615 18.7964 20.4987 18.8551 20.6433 18.8855C20.7879 18.916 20.9371 18.9177 21.0823 18.8904C21.2276 18.8632 21.3661 18.8077 21.4899 18.727C21.6136 18.6463 21.7203 18.5419 21.8038 18.42C21.8873 18.2981 21.9459 18.1609 21.9763 18.0163C22.0068 17.8717 22.0085 17.7225 21.9813 17.5772C21.9541 17.432 21.8985 17.2935 21.8178 17.1697C21.7371 17.0459 21.6328 16.9393 21.5108 16.8558ZM5.8105 17.5627C5.56508 17.8079 5.24223 17.9605 4.89693 17.9945C4.55163 18.0284 4.20525 17.9416 3.91677 17.7488C3.62829 17.556 3.41556 17.2692 3.31482 16.9372C3.21407 16.6052 3.23153 16.2485 3.36424 15.9279C3.49694 15.6074 3.73667 15.3427 4.0426 15.179C4.34854 15.0154 4.70175 14.9628 5.04208 15.0303C5.3824 15.0978 5.6888 15.2812 5.90909 15.5493C6.12937 15.8174 6.24991 16.1535 6.25019 16.5005C6.25034 16.6977 6.21159 16.8931 6.13614 17.0754C6.06069 17.2576 5.95003 17.4232 5.8105 17.5627ZM3.68987 7.80985C3.48 7.60011 3.33704 7.33283 3.27908 7.04184C3.22112 6.75084 3.25077 6.44919 3.36427 6.17504C3.47778 5.90089 3.67003 5.66657 3.91673 5.5017C4.16342 5.33684 4.45347 5.24884 4.75019 5.24884C5.0469 5.24884 5.33695 5.33684 5.58364 5.5017C5.83034 5.66657 6.0226 5.90089 6.1361 6.17504C6.2496 6.44919 6.27925 6.75084 6.22129 7.04184C6.16333 7.33283 6.02038 7.60011 5.8105 7.80985C5.52922 8.09094 5.14784 8.24884 4.75019 8.24884C4.35253 8.24884 3.97115 8.09094 3.68987 7.80985ZM14.2667 9.9886C14.1833 9.86665 14.1248 9.72947 14.0944 9.58489C14.064 9.44031 14.0623 9.29115 14.0896 9.14595C14.1168 9.00074 14.1724 8.86232 14.2532 8.73859C14.3339 8.61486 14.4382 8.50825 14.5602 8.42485L20.2396 4.53797C20.4858 4.36939 20.789 4.30555 21.0823 4.36049C21.3757 4.41544 21.6352 4.58466 21.8038 4.83094C21.9724 5.07722 22.0362 5.38038 21.9813 5.67372C21.9263 5.96707 21.7571 6.22658 21.5108 6.39516L15.8305 10.282C15.7086 10.3654 15.5714 10.424 15.4268 10.4544C15.2822 10.4848 15.1331 10.4864 14.9878 10.4592C14.8426 10.4319 14.7042 10.3764 14.5805 10.2956C14.4568 10.2149 14.3502 10.1105 14.2667 9.9886Z" fill="white"/>
</svg>
