<svg width="640" height="172" viewBox="0 0 640 172" fill="none" xmlns="http://www.w3.org/2000/svg">
<rect x="0.5" y="0.5" width="639" height="171" rx="9.5" fill="white"/>
<path d="M1 10C1 5.02944 5.02944 1 10 1H630C634.971 1 639 5.02944 639 10V44H1V10Z" fill="#C882FA"/>
<path d="M158.52 31.2C157.053 31.2 155.793 30.9067 154.74 30.32C153.7 29.72 152.9 28.88 152.34 27.8C151.78 26.7067 151.5 25.42 151.5 23.94C151.5 22.8333 151.66 21.84 151.98 20.96C152.3 20.0667 152.76 19.3067 153.36 18.68C153.96 18.04 154.693 17.5533 155.56 17.22C156.44 16.8733 157.427 16.7 158.52 16.7C159.253 16.7 159.973 16.7933 160.68 16.98C161.387 17.1667 162.007 17.4333 162.54 17.78C162.82 17.9533 163.007 18.1667 163.1 18.42C163.193 18.66 163.213 18.9 163.16 19.14C163.107 19.3667 162.993 19.56 162.82 19.72C162.66 19.88 162.453 19.9733 162.2 20C161.96 20.0133 161.693 19.9267 161.4 19.74C160.987 19.4733 160.54 19.28 160.06 19.16C159.58 19.04 159.093 18.98 158.6 18.98C157.653 18.98 156.853 19.1733 156.2 19.56C155.547 19.9467 155.053 20.5067 154.72 21.24C154.387 21.9733 154.22 22.8733 154.22 23.94C154.22 24.9933 154.387 25.8933 154.72 26.64C155.053 27.3867 155.547 27.9533 156.2 28.34C156.853 28.7267 157.653 28.92 158.6 28.92C159.107 28.92 159.607 28.86 160.1 28.74C160.593 28.6067 161.06 28.4067 161.5 28.14C161.793 27.9667 162.053 27.8933 162.28 27.92C162.52 27.9333 162.72 28.0133 162.88 28.16C163.04 28.3067 163.147 28.4933 163.2 28.72C163.253 28.9333 163.24 29.16 163.16 29.4C163.08 29.6267 162.92 29.8267 162.68 30C162.147 30.3867 161.507 30.6867 160.76 30.9C160.027 31.1 159.28 31.2 158.52 31.2ZM166.554 31.16C166.154 31.16 165.847 31.0533 165.634 30.84C165.42 30.6133 165.314 30.2933 165.314 29.88V18C165.314 17.5867 165.42 17.2733 165.634 17.06C165.847 16.8467 166.154 16.74 166.554 16.74C166.954 16.74 167.26 16.8467 167.474 17.06C167.7 17.2733 167.814 17.5867 167.814 18V23.18H167.534C167.827 22.4733 168.28 21.94 168.894 21.58C169.52 21.2067 170.227 21.02 171.014 21.02C171.8 21.02 172.447 21.1667 172.954 21.46C173.46 21.7533 173.84 22.2 174.094 22.8C174.347 23.3867 174.474 24.1333 174.474 25.04V29.88C174.474 30.2933 174.367 30.6133 174.154 30.84C173.94 31.0533 173.634 31.16 173.234 31.16C172.834 31.16 172.52 31.0533 172.294 30.84C172.08 30.6133 171.974 30.2933 171.974 29.88V25.16C171.974 24.4 171.827 23.8467 171.534 23.5C171.254 23.1533 170.814 22.98 170.214 22.98C169.48 22.98 168.894 23.2133 168.454 23.68C168.027 24.1333 167.814 24.74 167.814 25.5V29.88C167.814 30.7333 167.394 31.16 166.554 31.16ZM180.233 31.2C179.526 31.2 178.893 31.0667 178.333 30.8C177.786 30.52 177.353 30.1467 177.033 29.68C176.726 29.2133 176.573 28.6867 176.573 28.1C176.573 27.38 176.76 26.8133 177.133 26.4C177.506 25.9733 178.113 25.6667 178.953 25.48C179.793 25.2933 180.92 25.2 182.333 25.2H183.333V26.64H182.353C181.526 26.64 180.866 26.68 180.373 26.76C179.88 26.84 179.526 26.98 179.313 27.18C179.113 27.3667 179.013 27.6333 179.013 27.98C179.013 28.42 179.166 28.78 179.473 29.06C179.78 29.34 180.206 29.48 180.753 29.48C181.193 29.48 181.58 29.38 181.913 29.18C182.26 28.9667 182.533 28.68 182.733 28.32C182.933 27.96 183.033 27.5467 183.033 27.08V24.78C183.033 24.1133 182.886 23.6333 182.593 23.34C182.3 23.0467 181.806 22.9 181.113 22.9C180.726 22.9 180.306 22.9467 179.853 23.04C179.413 23.1333 178.946 23.2933 178.453 23.52C178.2 23.64 177.973 23.6733 177.773 23.62C177.586 23.5667 177.44 23.46 177.333 23.3C177.226 23.1267 177.173 22.94 177.173 22.74C177.173 22.54 177.226 22.3467 177.333 22.16C177.44 21.96 177.62 21.8133 177.873 21.72C178.486 21.4667 179.073 21.2867 179.633 21.18C180.206 21.0733 180.726 21.02 181.193 21.02C182.153 21.02 182.94 21.1667 183.553 21.46C184.18 21.7533 184.646 22.2 184.953 22.8C185.26 23.3867 185.413 24.1467 185.413 25.08V29.88C185.413 30.2933 185.313 30.6133 185.113 30.84C184.913 31.0533 184.626 31.16 184.253 31.16C183.88 31.16 183.586 31.0533 183.373 30.84C183.173 30.6133 183.073 30.2933 183.073 29.88V28.92H183.233C183.14 29.3867 182.953 29.7933 182.673 30.14C182.406 30.4733 182.066 30.7333 181.653 30.92C181.24 31.1067 180.766 31.2 180.233 31.2ZM189.19 31.14C188.79 31.14 188.484 31.02 188.27 30.78C188.057 30.54 187.95 30.2067 187.95 29.78V22.44C187.95 22 188.057 21.6667 188.27 21.44C188.484 21.2 188.79 21.08 189.19 21.08C189.59 21.08 189.897 21.2 190.11 21.44C190.337 21.6667 190.45 22 190.45 22.44V29.78C190.45 30.2067 190.344 30.54 190.13 30.78C189.917 31.02 189.604 31.14 189.19 31.14ZM189.19 19.22C188.724 19.22 188.357 19.1067 188.09 18.88C187.837 18.64 187.71 18.3133 187.71 17.9C187.71 17.4733 187.837 17.1467 188.09 16.92C188.357 16.6933 188.724 16.58 189.19 16.58C189.67 16.58 190.037 16.6933 190.29 16.92C190.544 17.1467 190.67 17.4733 190.67 17.9C190.67 18.3133 190.544 18.64 190.29 18.88C190.037 19.1067 189.67 19.22 189.19 19.22ZM194.328 31.16C193.915 31.16 193.595 31.0533 193.368 30.84C193.155 30.6133 193.048 30.2933 193.048 29.88V22.32C193.048 21.9067 193.155 21.5933 193.368 21.38C193.581 21.1667 193.881 21.06 194.268 21.06C194.655 21.06 194.955 21.1667 195.168 21.38C195.381 21.5933 195.488 21.9067 195.488 22.32V23.58H195.288C195.475 22.78 195.841 22.1733 196.388 21.76C196.935 21.3467 197.661 21.1 198.568 21.02C198.848 20.9933 199.068 21.0667 199.228 21.24C199.401 21.4 199.501 21.6533 199.528 22C199.555 22.3333 199.475 22.6067 199.288 22.82C199.115 23.02 198.848 23.14 198.488 23.18L198.048 23.22C197.235 23.3 196.621 23.5533 196.208 23.98C195.795 24.3933 195.588 24.98 195.588 25.74V29.88C195.588 30.2933 195.481 30.6133 195.268 30.84C195.055 31.0533 194.741 31.16 194.328 31.16Z" fill="white"/>
<path d="M293.99 31.16C293.577 31.16 293.257 31.0467 293.03 30.82C292.817 30.58 292.71 30.2533 292.71 29.84V18.2C292.71 17.7733 292.823 17.4533 293.05 17.24C293.277 17.0133 293.597 16.9 294.01 16.9H298.83C300.377 16.9 301.57 17.2867 302.41 18.06C303.25 18.8333 303.67 19.9133 303.67 21.3C303.67 22.6867 303.25 23.7733 302.41 24.56C301.57 25.3333 300.377 25.72 298.83 25.72H295.27V29.84C295.27 30.2533 295.163 30.58 294.95 30.82C294.737 31.0467 294.417 31.16 293.99 31.16ZM295.27 23.7H298.43C299.337 23.7 300.023 23.5 300.49 23.1C300.957 22.6867 301.19 22.0867 301.19 21.3C301.19 20.5133 300.957 19.92 300.49 19.52C300.023 19.12 299.337 18.92 298.43 18.92H295.27V23.7ZM309.489 31.2C308.475 31.2 307.595 30.9933 306.849 30.58C306.102 30.1667 305.522 29.58 305.109 28.82C304.695 28.0467 304.489 27.14 304.489 26.1C304.489 25.3133 304.602 24.6133 304.829 24C305.069 23.3733 305.409 22.84 305.849 22.4C306.289 21.9467 306.815 21.6067 307.429 21.38C308.042 21.14 308.729 21.02 309.489 21.02C310.502 21.02 311.382 21.2267 312.129 21.64C312.875 22.0533 313.455 22.64 313.869 23.4C314.282 24.16 314.489 25.06 314.489 26.1C314.489 26.8867 314.369 27.5933 314.129 28.22C313.902 28.8467 313.569 29.3867 313.129 29.84C312.689 30.28 312.162 30.62 311.549 30.86C310.935 31.0867 310.249 31.2 309.489 31.2ZM309.489 29.3C309.982 29.3 310.415 29.18 310.789 28.94C311.162 28.7 311.449 28.3467 311.649 27.88C311.862 27.4 311.969 26.8067 311.969 26.1C311.969 25.0333 311.742 24.24 311.289 23.72C310.835 23.1867 310.235 22.92 309.489 22.92C308.995 22.92 308.562 23.04 308.189 23.28C307.815 23.5067 307.522 23.86 307.309 24.34C307.109 24.8067 307.009 25.3933 307.009 26.1C307.009 27.1533 307.235 27.9533 307.689 28.5C308.142 29.0333 308.742 29.3 309.489 29.3ZM320.934 31.2C320.068 31.2 319.341 31.0533 318.754 30.76C318.181 30.4667 317.754 30.04 317.474 29.48C317.194 28.9067 317.054 28.2 317.054 27.36V23.1H316.014C315.694 23.1 315.448 23.02 315.274 22.86C315.101 22.6867 315.014 22.4533 315.014 22.16C315.014 21.8533 315.101 21.62 315.274 21.46C315.448 21.3 315.694 21.22 316.014 21.22H317.054V19.4C317.054 18.9867 317.161 18.6733 317.374 18.46C317.601 18.2467 317.914 18.14 318.314 18.14C318.714 18.14 319.021 18.2467 319.234 18.46C319.448 18.6733 319.554 18.9867 319.554 19.4V21.22H321.674C321.994 21.22 322.241 21.3 322.414 21.46C322.588 21.62 322.674 21.8533 322.674 22.16C322.674 22.4533 322.588 22.6867 322.414 22.86C322.241 23.02 321.994 23.1 321.674 23.1H319.554V27.22C319.554 27.86 319.694 28.34 319.974 28.66C320.254 28.98 320.708 29.14 321.334 29.14C321.561 29.14 321.761 29.12 321.934 29.08C322.108 29.04 322.261 29.0133 322.394 29C322.554 28.9867 322.688 29.04 322.794 29.16C322.901 29.2667 322.954 29.4933 322.954 29.84C322.954 30.1067 322.908 30.3467 322.814 30.56C322.734 30.76 322.581 30.9 322.354 30.98C322.181 31.0333 321.954 31.08 321.674 31.12C321.394 31.1733 321.148 31.2 320.934 31.2Z" fill="white"/>
<path d="M416.947 31.16C416.534 31.16 416.214 31.0467 415.987 30.82C415.774 30.58 415.667 30.2533 415.667 29.84V18.2C415.667 17.7733 415.78 17.4533 416.007 17.24C416.234 17.0133 416.554 16.9 416.967 16.9H421.787C423.334 16.9 424.527 17.2867 425.367 18.06C426.207 18.8333 426.627 19.9133 426.627 21.3C426.627 22.6867 426.207 23.7733 425.367 24.56C424.527 25.3333 423.334 25.72 421.787 25.72H418.227V29.84C418.227 30.2533 418.12 30.58 417.907 30.82C417.694 31.0467 417.374 31.16 416.947 31.16ZM418.227 23.7H421.387C422.294 23.7 422.98 23.5 423.447 23.1C423.914 22.6867 424.147 22.0867 424.147 21.3C424.147 20.5133 423.914 19.92 423.447 19.52C422.98 19.12 422.294 18.92 421.387 18.92H418.227V23.7ZM431.814 31.2C430.707 31.2 429.874 30.8867 429.314 30.26C428.754 29.62 428.474 28.6867 428.474 27.46V18C428.474 17.5867 428.58 17.2733 428.794 17.06C429.007 16.8467 429.314 16.74 429.714 16.74C430.114 16.74 430.42 16.8467 430.634 17.06C430.86 17.2733 430.974 17.5867 430.974 18V27.34C430.974 27.9533 431.1 28.4067 431.354 28.7C431.62 28.9933 431.994 29.14 432.474 29.14C432.58 29.14 432.68 29.14 432.774 29.14C432.867 29.1267 432.96 29.1133 433.054 29.1C433.24 29.0733 433.367 29.1267 433.434 29.26C433.5 29.38 433.534 29.6333 433.534 30.02C433.534 30.3533 433.467 30.6133 433.334 30.8C433.2 30.9867 432.98 31.1 432.674 31.14C432.54 31.1533 432.4 31.1667 432.254 31.18C432.107 31.1933 431.96 31.2 431.814 31.2ZM438.081 31.2C437.374 31.2 436.741 31.0667 436.181 30.8C435.634 30.52 435.201 30.1467 434.881 29.68C434.574 29.2133 434.421 28.6867 434.421 28.1C434.421 27.38 434.607 26.8133 434.981 26.4C435.354 25.9733 435.961 25.6667 436.801 25.48C437.641 25.2933 438.767 25.2 440.181 25.2H441.181V26.64H440.201C439.374 26.64 438.714 26.68 438.221 26.76C437.727 26.84 437.374 26.98 437.161 27.18C436.961 27.3667 436.861 27.6333 436.861 27.98C436.861 28.42 437.014 28.78 437.321 29.06C437.627 29.34 438.054 29.48 438.601 29.48C439.041 29.48 439.427 29.38 439.761 29.18C440.107 28.9667 440.381 28.68 440.581 28.32C440.781 27.96 440.881 27.5467 440.881 27.08V24.78C440.881 24.1133 440.734 23.6333 440.441 23.34C440.147 23.0467 439.654 22.9 438.961 22.9C438.574 22.9 438.154 22.9467 437.701 23.04C437.261 23.1333 436.794 23.2933 436.301 23.52C436.047 23.64 435.821 23.6733 435.621 23.62C435.434 23.5667 435.287 23.46 435.181 23.3C435.074 23.1267 435.021 22.94 435.021 22.74C435.021 22.54 435.074 22.3467 435.181 22.16C435.287 21.96 435.467 21.8133 435.721 21.72C436.334 21.4667 436.921 21.2867 437.481 21.18C438.054 21.0733 438.574 21.02 439.041 21.02C440.001 21.02 440.787 21.1667 441.401 21.46C442.027 21.7533 442.494 22.2 442.801 22.8C443.107 23.3867 443.261 24.1467 443.261 25.08V29.88C443.261 30.2933 443.161 30.6133 442.961 30.84C442.761 31.0533 442.474 31.16 442.101 31.16C441.727 31.16 441.434 31.0533 441.221 30.84C441.021 30.6133 440.921 30.2933 440.921 29.88V28.92H441.081C440.987 29.3867 440.801 29.7933 440.521 30.14C440.254 30.4733 439.914 30.7333 439.501 30.92C439.087 31.1067 438.614 31.2 438.081 31.2ZM447.038 31.16C446.638 31.16 446.331 31.0533 446.118 30.84C445.905 30.6133 445.798 30.2933 445.798 29.88V22.32C445.798 21.9067 445.905 21.5933 446.118 21.38C446.331 21.1667 446.631 21.06 447.018 21.06C447.405 21.06 447.705 21.1667 447.918 21.38C448.131 21.5933 448.238 21.9067 448.238 22.32V23.68L448.018 23.18C448.311 22.4733 448.765 21.94 449.378 21.58C450.005 21.2067 450.711 21.02 451.498 21.02C452.285 21.02 452.931 21.1667 453.438 21.46C453.945 21.7533 454.325 22.2 454.578 22.8C454.831 23.3867 454.958 24.1333 454.958 25.04V29.88C454.958 30.2933 454.851 30.6133 454.638 30.84C454.425 31.0533 454.118 31.16 453.718 31.16C453.318 31.16 453.005 31.0533 452.778 30.84C452.565 30.6133 452.458 30.2933 452.458 29.88V25.16C452.458 24.4 452.311 23.8467 452.018 23.5C451.738 23.1533 451.298 22.98 450.698 22.98C449.965 22.98 449.378 23.2133 448.938 23.68C448.511 24.1333 448.298 24.74 448.298 25.5V29.88C448.298 30.7333 447.878 31.16 447.038 31.16ZM461.977 31.2C461.111 31.2 460.384 31.0533 459.797 30.76C459.224 30.4667 458.797 30.04 458.517 29.48C458.237 28.9067 458.097 28.2 458.097 27.36V23.1H457.057C456.737 23.1 456.491 23.02 456.317 22.86C456.144 22.6867 456.057 22.4533 456.057 22.16C456.057 21.8533 456.144 21.62 456.317 21.46C456.491 21.3 456.737 21.22 457.057 21.22H458.097V19.4C458.097 18.9867 458.204 18.6733 458.417 18.46C458.644 18.2467 458.957 18.14 459.357 18.14C459.757 18.14 460.064 18.2467 460.277 18.46C460.491 18.6733 460.597 18.9867 460.597 19.4V21.22H462.717C463.037 21.22 463.284 21.3 463.457 21.46C463.631 21.62 463.717 21.8533 463.717 22.16C463.717 22.4533 463.631 22.6867 463.457 22.86C463.284 23.02 463.037 23.1 462.717 23.1H460.597V27.22C460.597 27.86 460.737 28.34 461.017 28.66C461.297 28.98 461.751 29.14 462.377 29.14C462.604 29.14 462.804 29.12 462.977 29.08C463.151 29.04 463.304 29.0133 463.437 29C463.597 28.9867 463.731 29.04 463.837 29.16C463.944 29.2667 463.997 29.4933 463.997 29.84C463.997 30.1067 463.951 30.3467 463.857 30.56C463.777 30.76 463.624 30.9 463.397 30.98C463.224 31.0333 462.997 31.08 462.717 31.12C462.437 31.1733 462.191 31.2 461.977 31.2Z" fill="white"/>
<path d="M556.316 31.2C555.729 31.2 555.143 31.1533 554.556 31.06C553.969 30.98 553.416 30.8533 552.896 30.68C552.376 30.4933 551.909 30.2667 551.496 30C551.256 29.84 551.089 29.6467 550.996 29.42C550.903 29.1933 550.869 28.9733 550.896 28.76C550.936 28.5333 551.023 28.34 551.156 28.18C551.303 28.0067 551.483 27.9 551.696 27.86C551.909 27.82 552.143 27.88 552.396 28.04C552.983 28.3867 553.603 28.64 554.256 28.8C554.909 28.96 555.596 29.04 556.316 29.04C557.369 29.04 558.136 28.8667 558.616 28.52C559.096 28.16 559.336 27.7 559.336 27.14C559.336 26.6733 559.163 26.3067 558.816 26.04C558.483 25.7733 557.903 25.5533 557.076 25.38L554.876 24.92C553.609 24.6533 552.663 24.2067 552.036 23.58C551.423 22.94 551.116 22.1 551.116 21.06C551.116 20.4067 551.249 19.8133 551.516 19.28C551.783 18.7467 552.156 18.2867 552.636 17.9C553.129 17.5133 553.709 17.22 554.376 17.02C555.056 16.8067 555.803 16.7 556.616 16.7C557.416 16.7 558.176 16.8 558.896 17C559.616 17.2 560.263 17.4933 560.836 17.88C561.049 18.0267 561.189 18.2067 561.256 18.42C561.336 18.6333 561.356 18.8467 561.316 19.06C561.276 19.26 561.183 19.4333 561.036 19.58C560.889 19.7267 560.703 19.8133 560.476 19.84C560.263 19.8667 560.016 19.8 559.736 19.64C559.243 19.36 558.743 19.16 558.236 19.04C557.729 18.92 557.183 18.86 556.596 18.86C555.983 18.86 555.456 18.9467 555.016 19.12C554.576 19.2933 554.236 19.54 553.996 19.86C553.769 20.1667 553.656 20.5333 553.656 20.96C553.656 21.44 553.816 21.8267 554.136 22.12C554.456 22.4 555.003 22.62 555.776 22.78L557.956 23.24C559.276 23.52 560.256 23.96 560.896 24.56C561.549 25.16 561.876 25.96 561.876 26.96C561.876 27.6 561.743 28.18 561.476 28.7C561.223 29.22 560.849 29.6667 560.356 30.04C559.876 30.4133 559.296 30.7 558.616 30.9C557.936 31.1 557.169 31.2 556.316 31.2ZM568.293 31.2C567.28 31.2 566.4 30.9933 565.653 30.58C564.907 30.1667 564.327 29.58 563.913 28.82C563.5 28.0467 563.293 27.14 563.293 26.1C563.293 25.3133 563.407 24.6133 563.633 24C563.873 23.3733 564.213 22.84 564.653 22.4C565.093 21.9467 565.62 21.6067 566.233 21.38C566.847 21.14 567.533 21.02 568.293 21.02C569.307 21.02 570.187 21.2267 570.933 21.64C571.68 22.0533 572.26 22.64 572.673 23.4C573.087 24.16 573.293 25.06 573.293 26.1C573.293 26.8867 573.173 27.5933 572.933 28.22C572.707 28.8467 572.373 29.3867 571.933 29.84C571.493 30.28 570.967 30.62 570.353 30.86C569.74 31.0867 569.053 31.2 568.293 31.2ZM568.293 29.3C568.787 29.3 569.22 29.18 569.593 28.94C569.967 28.7 570.253 28.3467 570.453 27.88C570.667 27.4 570.773 26.8067 570.773 26.1C570.773 25.0333 570.547 24.24 570.093 23.72C569.64 23.1867 569.04 22.92 568.293 22.92C567.8 22.92 567.367 23.04 566.993 23.28C566.62 23.5067 566.327 23.86 566.113 24.34C565.913 24.8067 565.813 25.3933 565.813 26.1C565.813 27.1533 566.04 27.9533 566.493 28.5C566.947 29.0333 567.547 29.3 568.293 29.3ZM577.179 31.16C576.779 31.16 576.466 31.0533 576.239 30.84C576.026 30.6133 575.919 30.2933 575.919 29.88V23.1H574.999C574.679 23.1 574.432 23.02 574.259 22.86C574.086 22.6867 573.999 22.4533 573.999 22.16C573.999 21.8533 574.086 21.62 574.259 21.46C574.432 21.3 574.679 21.22 574.999 21.22H576.639L575.919 21.88V21.2C575.919 19.8267 576.266 18.8 576.959 18.12C577.652 17.4267 578.652 17.02 579.959 16.9L580.639 16.84C580.906 16.8133 581.119 16.86 581.279 16.98C581.439 17.0867 581.546 17.2333 581.599 17.42C581.652 17.5933 581.659 17.7733 581.619 17.96C581.579 18.1467 581.492 18.3133 581.359 18.46C581.239 18.5933 581.079 18.6667 580.879 18.68L580.599 18.7C579.839 18.7533 579.286 18.9467 578.939 19.28C578.592 19.6133 578.419 20.12 578.419 20.8V21.54L578.099 21.22H580.119C580.439 21.22 580.686 21.3 580.859 21.46C581.032 21.62 581.119 21.8533 581.119 22.16C581.119 22.4533 581.032 22.6867 580.859 22.86C580.686 23.02 580.439 23.1 580.119 23.1H578.419V29.88C578.419 30.7333 578.006 31.16 577.179 31.16ZM585.666 31.2C584.96 31.2 584.326 31.0667 583.766 30.8C583.22 30.52 582.786 30.1467 582.466 29.68C582.16 29.2133 582.006 28.6867 582.006 28.1C582.006 27.38 582.193 26.8133 582.566 26.4C582.94 25.9733 583.546 25.6667 584.386 25.48C585.226 25.2933 586.353 25.2 587.766 25.2H588.766V26.64H587.786C586.96 26.64 586.3 26.68 585.806 26.76C585.313 26.84 584.96 26.98 584.746 27.18C584.546 27.3667 584.446 27.6333 584.446 27.98C584.446 28.42 584.6 28.78 584.906 29.06C585.213 29.34 585.64 29.48 586.186 29.48C586.626 29.48 587.013 29.38 587.346 29.18C587.693 28.9667 587.966 28.68 588.166 28.32C588.366 27.96 588.466 27.5467 588.466 27.08V24.78C588.466 24.1133 588.32 23.6333 588.026 23.34C587.733 23.0467 587.24 22.9 586.546 22.9C586.16 22.9 585.74 22.9467 585.286 23.04C584.846 23.1333 584.38 23.2933 583.886 23.52C583.633 23.64 583.406 23.6733 583.206 23.62C583.02 23.5667 582.873 23.46 582.766 23.3C582.66 23.1267 582.606 22.94 582.606 22.74C582.606 22.54 582.66 22.3467 582.766 22.16C582.873 21.96 583.053 21.8133 583.306 21.72C583.92 21.4667 584.506 21.2867 585.066 21.18C585.64 21.0733 586.16 21.02 586.626 21.02C587.586 21.02 588.373 21.1667 588.986 21.46C589.613 21.7533 590.08 22.2 590.386 22.8C590.693 23.3867 590.846 24.1467 590.846 25.08V29.88C590.846 30.2933 590.746 30.6133 590.546 30.84C590.346 31.0533 590.06 31.16 589.686 31.16C589.313 31.16 589.02 31.0533 588.806 30.84C588.606 30.6133 588.506 30.2933 588.506 29.88V28.92H588.666C588.573 29.3867 588.386 29.7933 588.106 30.14C587.84 30.4733 587.5 30.7333 587.086 30.92C586.673 31.1067 586.2 31.2 585.666 31.2Z" fill="white"/>
<path d="M31.4303 31.2C30.0703 31.2 28.877 30.9 27.8503 30.3C26.837 29.7 26.0503 28.86 25.4903 27.78C24.9303 26.6867 24.6503 25.4067 24.6503 23.94C24.6503 22.8333 24.8103 21.84 25.1303 20.96C25.4503 20.0667 25.9036 19.3067 26.4903 18.68C27.0903 18.04 27.8036 17.5533 28.6303 17.22C29.4703 16.8733 30.4036 16.7 31.4303 16.7C32.8036 16.7 33.997 17 35.0103 17.6C36.0236 18.1867 36.8103 19.02 37.3703 20.1C37.9303 21.18 38.2103 22.4533 38.2103 23.92C38.2103 25.0267 38.0503 26.0267 37.7303 26.92C37.4103 27.8133 36.9503 28.58 36.3503 29.22C35.7636 29.86 35.0503 30.3533 34.2103 30.7C33.3836 31.0333 32.457 31.2 31.4303 31.2ZM31.4303 29C32.297 29 33.0303 28.8 33.6303 28.4C34.2436 28 34.7103 27.42 35.0303 26.66C35.3636 25.9 35.5303 24.9933 35.5303 23.94C35.5303 22.34 35.1703 21.1 34.4503 20.22C33.7436 19.34 32.737 18.9 31.4303 18.9C30.577 18.9 29.8436 19.1 29.2303 19.5C28.617 19.8867 28.1436 20.46 27.8103 21.22C27.4903 21.9667 27.3303 22.8733 27.3303 23.94C27.3303 25.5267 27.6903 26.7667 28.4103 27.66C29.1303 28.5533 30.137 29 31.4303 29ZM46.2134 31.2C45.3868 31.2 44.6601 30.9933 44.0334 30.58C43.4201 30.1667 43.0134 29.6133 42.8134 28.92L43.0334 28.42V29.88C43.0334 30.2933 42.9268 30.6133 42.7134 30.84C42.5001 31.0533 42.2001 31.16 41.8134 31.16C41.4134 31.16 41.1068 31.0533 40.8934 30.84C40.6801 30.6133 40.5734 30.2933 40.5734 29.88V18C40.5734 17.5867 40.6801 17.2733 40.8934 17.06C41.1068 16.8467 41.4134 16.74 41.8134 16.74C42.2134 16.74 42.5201 16.8467 42.7334 17.06C42.9601 17.2733 43.0734 17.5867 43.0734 18V23.2H42.8334C43.0468 22.5467 43.4601 22.02 44.0734 21.62C44.6868 21.22 45.4001 21.02 46.2134 21.02C47.0801 21.02 47.8334 21.2267 48.4734 21.64C49.1134 22.0533 49.6134 22.64 49.9734 23.4C50.3334 24.1467 50.5134 25.0467 50.5134 26.1C50.5134 27.14 50.3334 28.0467 49.9734 28.82C49.6134 29.58 49.1068 30.1667 48.4534 30.58C47.8134 30.9933 47.0668 31.2 46.2134 31.2ZM45.5134 29.3C46.0068 29.3 46.4401 29.18 46.8134 28.94C47.1868 28.7 47.4734 28.3467 47.6734 27.88C47.8868 27.4 47.9934 26.8067 47.9934 26.1C47.9934 25.0333 47.7668 24.24 47.3134 23.72C46.8601 23.1867 46.2601 22.92 45.5134 22.92C45.0201 22.92 44.5868 23.04 44.2134 23.28C43.8401 23.5067 43.5468 23.86 43.3334 24.34C43.1334 24.8067 43.0334 25.3933 43.0334 26.1C43.0334 27.1533 43.2601 27.9533 43.7134 28.5C44.1668 29.0333 44.7668 29.3 45.5134 29.3ZM51.3656 34.78C51.0723 34.8067 50.8323 34.76 50.6456 34.64C50.459 34.5333 50.3323 34.3933 50.2656 34.22C50.1856 34.0467 50.159 33.8667 50.1856 33.68C50.2123 33.4933 50.2923 33.3267 50.4256 33.18C50.5456 33.0467 50.7123 32.9733 50.9256 32.96C51.5256 32.9067 51.959 32.7333 52.2256 32.44C52.5056 32.16 52.6456 31.7267 52.6456 31.14V22.32C52.6456 21.9067 52.7523 21.5933 52.9656 21.38C53.1923 21.1667 53.5056 21.06 53.9056 21.06C54.3056 21.06 54.6123 21.1667 54.8256 21.38C55.039 21.5933 55.1456 21.9067 55.1456 22.32V30.92C55.1456 31.7733 55.0056 32.4733 54.7256 33.02C54.459 33.5667 54.0456 33.98 53.4856 34.26C52.939 34.54 52.2323 34.7133 51.3656 34.78ZM53.8856 19.22C53.419 19.22 53.0523 19.1067 52.7856 18.88C52.5323 18.64 52.4056 18.3133 52.4056 17.9C52.4056 17.4733 52.5323 17.1467 52.7856 16.92C53.0523 16.6933 53.419 16.58 53.8856 16.58C54.3656 16.58 54.7323 16.6933 54.9856 16.92C55.239 17.1467 55.3656 17.4733 55.3656 17.9C55.3656 18.3133 55.239 18.64 54.9856 18.88C54.7323 19.1067 54.3656 19.22 53.8856 19.22ZM62.5614 31.2C61.4547 31.2 60.5014 30.9933 59.7014 30.58C58.9014 30.1667 58.2814 29.58 57.8414 28.82C57.4147 28.06 57.2014 27.16 57.2014 26.12C57.2014 25.1067 57.4081 24.22 57.8214 23.46C58.2481 22.7 58.8281 22.1067 59.5614 21.68C60.3081 21.24 61.1547 21.02 62.1014 21.02C62.7947 21.02 63.4147 21.1333 63.9614 21.36C64.5214 21.5867 64.9947 21.9133 65.3814 22.34C65.7814 22.7667 66.0814 23.2867 66.2814 23.9C66.4947 24.5 66.6014 25.18 66.6014 25.94C66.6014 26.18 66.5147 26.3667 66.3414 26.5C66.1814 26.62 65.9481 26.68 65.6414 26.68H59.2214V25.24H64.8414L64.5214 25.54C64.5214 24.9267 64.4281 24.4133 64.2414 24C64.0681 23.5867 63.8081 23.2733 63.4614 23.06C63.1281 22.8333 62.7081 22.72 62.2014 22.72C61.6414 22.72 61.1614 22.8533 60.7614 23.12C60.3747 23.3733 60.0747 23.74 59.8614 24.22C59.6614 24.6867 59.5614 25.2467 59.5614 25.9V26.04C59.5614 27.1333 59.8147 27.9533 60.3214 28.5C60.8414 29.0333 61.6014 29.3 62.6014 29.3C62.9481 29.3 63.3347 29.26 63.7614 29.18C64.2014 29.0867 64.6147 28.9333 65.0014 28.72C65.2814 28.56 65.5281 28.4933 65.7414 28.52C65.9547 28.5333 66.1214 28.6067 66.2414 28.74C66.3747 28.8733 66.4547 29.04 66.4814 29.24C66.5081 29.4267 66.4681 29.62 66.3614 29.82C66.2681 30.02 66.1014 30.1933 65.8614 30.34C65.3947 30.6333 64.8547 30.8533 64.2414 31C63.6414 31.1333 63.0814 31.2 62.5614 31.2ZM73.1013 31.2C72.0746 31.2 71.1813 30.9933 70.4213 30.58C69.6613 30.1533 69.0746 29.5533 68.6613 28.78C68.2479 28.0067 68.0413 27.1 68.0413 26.06C68.0413 25.2733 68.1546 24.5733 68.3813 23.96C68.6213 23.3333 68.9613 22.8067 69.4013 22.38C69.8413 21.94 70.3746 21.6067 71.0013 21.38C71.6279 21.14 72.3279 21.02 73.1013 21.02C73.5413 21.02 74.0146 21.08 74.5213 21.2C75.0413 21.32 75.5279 21.52 75.9813 21.8C76.1946 21.9333 76.3346 22.0933 76.4013 22.28C76.4679 22.4667 76.4813 22.66 76.4413 22.86C76.4013 23.0467 76.3146 23.2133 76.1813 23.36C76.0613 23.4933 75.9079 23.58 75.7213 23.62C75.5346 23.6467 75.3279 23.6 75.1013 23.48C74.8079 23.3067 74.5079 23.18 74.2013 23.1C73.8946 23.0067 73.6013 22.96 73.3213 22.96C72.8813 22.96 72.4946 23.0333 72.1613 23.18C71.8279 23.3133 71.5413 23.5133 71.3013 23.78C71.0746 24.0333 70.9013 24.3533 70.7813 24.74C70.6613 25.1267 70.6013 25.5733 70.6013 26.08C70.6013 27.0667 70.8346 27.8467 71.3013 28.42C71.7813 28.98 72.4546 29.26 73.3213 29.26C73.6013 29.26 73.8879 29.22 74.1813 29.14C74.4879 29.06 74.7946 28.9333 75.1013 28.76C75.3279 28.64 75.5279 28.6 75.7013 28.64C75.8879 28.68 76.0413 28.7733 76.1613 28.92C76.2813 29.0533 76.3546 29.22 76.3813 29.42C76.4079 29.6067 76.3813 29.7933 76.3013 29.98C76.2346 30.1667 76.1013 30.32 75.9013 30.44C75.4613 30.7067 74.9946 30.9 74.5013 31.02C74.0079 31.14 73.5413 31.2 73.1013 31.2ZM82.5339 31.2C81.6672 31.2 80.9406 31.0533 80.3539 30.76C79.7806 30.4667 79.3539 30.04 79.0739 29.48C78.7939 28.9067 78.6539 28.2 78.6539 27.36V23.1H77.6139C77.2939 23.1 77.0472 23.02 76.8739 22.86C76.7006 22.6867 76.6139 22.4533 76.6139 22.16C76.6139 21.8533 76.7006 21.62 76.8739 21.46C77.0472 21.3 77.2939 21.22 77.6139 21.22H78.6539V19.4C78.6539 18.9867 78.7606 18.6733 78.9739 18.46C79.2006 18.2467 79.5139 18.14 79.9139 18.14C80.3139 18.14 80.6206 18.2467 80.8339 18.46C81.0472 18.6733 81.1539 18.9867 81.1539 19.4V21.22H83.2739C83.5939 21.22 83.8406 21.3 84.0139 21.46C84.1872 21.62 84.2739 21.8533 84.2739 22.16C84.2739 22.4533 84.1872 22.6867 84.0139 22.86C83.8406 23.02 83.5939 23.1 83.2739 23.1H81.1539V27.22C81.1539 27.86 81.2939 28.34 81.5739 28.66C81.8539 28.98 82.3072 29.14 82.9339 29.14C83.1606 29.14 83.3606 29.12 83.5339 29.08C83.7072 29.04 83.8606 29.0133 83.9939 29C84.1539 28.9867 84.2872 29.04 84.3939 29.16C84.5006 29.2667 84.5539 29.4933 84.5539 29.84C84.5539 30.1067 84.5072 30.3467 84.4139 30.56C84.3339 30.76 84.1806 30.9 83.9539 30.98C83.7806 31.0333 83.5539 31.08 83.2739 31.12C82.9939 31.1733 82.7472 31.2 82.5339 31.2Z" fill="white"/>
<path d="M25.5 93.16C25.14 93.16 24.8467 93.0733 24.62 92.9C24.4067 92.7267 24.2333 92.4533 24.1 92.08L19.92 80.26C19.7733 79.8333 19.8 79.4733 20 79.18C20.2133 78.8867 20.5667 78.74 21.06 78.74C21.42 78.74 21.7 78.8267 21.9 79C22.1 79.16 22.26 79.42 22.38 79.78L25.98 90.46H25.18L28.94 79.8C29.0733 79.44 29.24 79.1733 29.44 79C29.64 78.8267 29.9 78.74 30.22 78.74C30.54 78.74 30.7933 78.8267 30.98 79C31.1667 79.1733 31.3267 79.4467 31.46 79.82L35.1 90.46H34.4L38.06 79.78C38.18 79.4333 38.34 79.1733 38.54 79C38.74 78.8267 39.0133 78.74 39.36 78.74C39.7867 78.74 40.1 78.8867 40.3 79.18C40.5 79.4733 40.5267 79.8333 40.38 80.26L36.16 92.1C36.0267 92.46 35.8533 92.7267 35.64 92.9C35.4267 93.0733 35.14 93.16 34.78 93.16C34.42 93.16 34.1333 93.0733 33.92 92.9C33.7067 92.7267 33.5333 92.4533 33.4 92.08L29.92 82.16H30.38L26.86 92.1C26.7267 92.46 26.5533 92.7267 26.34 92.9C26.14 93.0733 25.86 93.16 25.5 93.16ZM46.1356 93.2C45.029 93.2 44.0756 92.9933 43.2756 92.58C42.4756 92.1667 41.8556 91.58 41.4156 90.82C40.989 90.06 40.7756 89.16 40.7756 88.12C40.7756 87.1067 40.9823 86.22 41.3956 85.46C41.8223 84.7 42.4023 84.1067 43.1356 83.68C43.8823 83.24 44.729 83.02 45.6756 83.02C46.369 83.02 46.989 83.1333 47.5356 83.36C48.0956 83.5867 48.569 83.9133 48.9556 84.34C49.3556 84.7667 49.6556 85.2867 49.8556 85.9C50.069 86.5 50.1756 87.18 50.1756 87.94C50.1756 88.18 50.089 88.3667 49.9156 88.5C49.7556 88.62 49.5223 88.68 49.2156 88.68H42.7956V87.24H48.4156L48.0956 87.54C48.0956 86.9267 48.0023 86.4133 47.8156 86C47.6423 85.5867 47.3823 85.2733 47.0356 85.06C46.7023 84.8333 46.2823 84.72 45.7756 84.72C45.2156 84.72 44.7356 84.8533 44.3356 85.12C43.949 85.3733 43.649 85.74 43.4356 86.22C43.2356 86.6867 43.1356 87.2467 43.1356 87.9V88.04C43.1356 89.1333 43.389 89.9533 43.8956 90.5C44.4156 91.0333 45.1756 91.3 46.1756 91.3C46.5223 91.3 46.909 91.26 47.3356 91.18C47.7756 91.0867 48.189 90.9333 48.5756 90.72C48.8556 90.56 49.1023 90.4933 49.3156 90.52C49.529 90.5333 49.6956 90.6067 49.8156 90.74C49.949 90.8733 50.029 91.04 50.0556 91.24C50.0823 91.4267 50.0423 91.62 49.9356 91.82C49.8423 92.02 49.6756 92.1933 49.4356 92.34C48.969 92.6333 48.429 92.8533 47.8156 93C47.2156 93.1333 46.6556 93.2 46.1356 93.2ZM53.3955 93.14C52.9955 93.14 52.6888 93.02 52.4755 92.78C52.2621 92.54 52.1555 92.2067 52.1555 91.78V84.44C52.1555 84 52.2621 83.6667 52.4755 83.44C52.6888 83.2 52.9955 83.08 53.3955 83.08C53.7955 83.08 54.1021 83.2 54.3155 83.44C54.5421 83.6667 54.6555 84 54.6555 84.44V91.78C54.6555 92.2067 54.5488 92.54 54.3355 92.78C54.1221 93.02 53.8088 93.14 53.3955 93.14ZM53.3955 81.22C52.9288 81.22 52.5621 81.1067 52.2955 80.88C52.0421 80.64 51.9155 80.3133 51.9155 79.9C51.9155 79.4733 52.0421 79.1467 52.2955 78.92C52.5621 78.6933 52.9288 78.58 53.3955 78.58C53.8755 78.58 54.2421 78.6933 54.4955 78.92C54.7488 79.1467 54.8755 79.4733 54.8755 79.9C54.8755 80.3133 54.7488 80.64 54.4955 80.88C54.2421 81.1067 53.8755 81.22 53.3955 81.22ZM61.8131 96.8C61.0931 96.8 60.3931 96.7333 59.7131 96.6C59.0465 96.4667 58.4398 96.26 57.8931 95.98C57.6398 95.8467 57.4665 95.6867 57.3731 95.5C57.2931 95.3133 57.2665 95.12 57.2931 94.92C57.3331 94.7333 57.4131 94.5667 57.5331 94.42C57.6665 94.2733 57.8265 94.1733 58.0131 94.12C58.1998 94.0667 58.3931 94.0933 58.5931 94.2C59.1798 94.4933 59.7331 94.68 60.2531 94.76C60.7865 94.8533 61.2398 94.9 61.6131 94.9C62.5065 94.9 63.1731 94.68 63.6131 94.24C64.0665 93.8133 64.2931 93.1733 64.2931 92.32V90.52H64.4731C64.2731 91.2 63.8531 91.7467 63.2131 92.16C62.5865 92.56 61.8731 92.76 61.0731 92.76C60.1931 92.76 59.4265 92.56 58.7731 92.16C58.1198 91.7467 57.6131 91.1733 57.2531 90.44C56.8931 89.7067 56.7131 88.8533 56.7131 87.88C56.7131 87.1467 56.8131 86.4867 57.0131 85.9C57.2265 85.3 57.5198 84.7867 57.8931 84.36C58.2798 83.9333 58.7398 83.6067 59.2731 83.38C59.8198 83.14 60.4198 83.02 61.0731 83.02C61.8998 83.02 62.6198 83.2267 63.2331 83.64C63.8598 84.04 64.2665 84.5733 64.4531 85.24L64.2531 85.74V84.32C64.2531 83.9067 64.3598 83.5933 64.5731 83.38C64.7998 83.1667 65.1065 83.06 65.4931 83.06C65.8931 83.06 66.1998 83.1667 66.4131 83.38C66.6265 83.5933 66.7331 83.9067 66.7331 84.32V92.02C66.7331 93.6067 66.3131 94.8 65.4731 95.6C64.6331 96.4 63.4131 96.8 61.8131 96.8ZM61.7531 90.86C62.2731 90.86 62.7198 90.74 63.0931 90.5C63.4665 90.26 63.7531 89.92 63.9531 89.48C64.1665 89.0267 64.2731 88.4933 64.2731 87.88C64.2731 86.96 64.0465 86.24 63.5931 85.72C63.1398 85.1867 62.5265 84.92 61.7531 84.92C61.2331 84.92 60.7865 85.04 60.4131 85.28C60.0398 85.52 59.7465 85.86 59.5331 86.3C59.3331 86.74 59.2331 87.2667 59.2331 87.88C59.2331 88.8 59.4598 89.5267 59.9131 90.06C60.3665 90.5933 60.9798 90.86 61.7531 90.86ZM70.5634 93.16C70.1634 93.16 69.8568 93.0533 69.6434 92.84C69.4301 92.6133 69.3234 92.2933 69.3234 91.88V80C69.3234 79.5867 69.4301 79.2733 69.6434 79.06C69.8568 78.8467 70.1634 78.74 70.5634 78.74C70.9634 78.74 71.2701 78.8467 71.4834 79.06C71.7101 79.2733 71.8234 79.5867 71.8234 80V85.18H71.5434C71.8368 84.4733 72.2901 83.94 72.9034 83.58C73.5301 83.2067 74.2368 83.02 75.0234 83.02C75.8101 83.02 76.4568 83.1667 76.9634 83.46C77.4701 83.7533 77.8501 84.2 78.1034 84.8C78.3568 85.3867 78.4834 86.1333 78.4834 87.04V91.88C78.4834 92.2933 78.3768 92.6133 78.1634 92.84C77.9501 93.0533 77.6434 93.16 77.2434 93.16C76.8434 93.16 76.5301 93.0533 76.3034 92.84C76.0901 92.6133 75.9834 92.2933 75.9834 91.88V87.16C75.9834 86.4 75.8368 85.8467 75.5434 85.5C75.2634 85.1533 74.8234 84.98 74.2234 84.98C73.4901 84.98 72.9034 85.2133 72.4634 85.68C72.0368 86.1333 71.8234 86.74 71.8234 87.5V91.88C71.8234 92.7333 71.4034 93.16 70.5634 93.16ZM85.5027 93.2C84.636 93.2 83.9093 93.0533 83.3227 92.76C82.7493 92.4667 82.3227 92.04 82.0427 91.48C81.7627 90.9067 81.6227 90.2 81.6227 89.36V85.1H80.5827C80.2627 85.1 80.016 85.02 79.8427 84.86C79.6693 84.6867 79.5827 84.4533 79.5827 84.16C79.5827 83.8533 79.6693 83.62 79.8427 83.46C80.016 83.3 80.2627 83.22 80.5827 83.22H81.6227V81.4C81.6227 80.9867 81.7293 80.6733 81.9427 80.46C82.1693 80.2467 82.4827 80.14 82.8827 80.14C83.2827 80.14 83.5893 80.2467 83.8027 80.46C84.016 80.6733 84.1227 80.9867 84.1227 81.4V83.22H86.2427C86.5627 83.22 86.8093 83.3 86.9827 83.46C87.156 83.62 87.2427 83.8533 87.2427 84.16C87.2427 84.4533 87.156 84.6867 86.9827 84.86C86.8093 85.02 86.5627 85.1 86.2427 85.1H84.1227V89.22C84.1227 89.86 84.2627 90.34 84.5427 90.66C84.8227 90.98 85.276 91.14 85.9027 91.14C86.1293 91.14 86.3293 91.12 86.5027 91.08C86.676 91.04 86.8293 91.0133 86.9627 91C87.1227 90.9867 87.256 91.04 87.3627 91.16C87.4693 91.2667 87.5227 91.4933 87.5227 91.84C87.5227 92.1067 87.476 92.3467 87.3827 92.56C87.3027 92.76 87.1493 92.9 86.9227 92.98C86.7493 93.0333 86.5227 93.08 86.2427 93.12C85.9627 93.1733 85.716 93.2 85.5027 93.2Z" fill="#444444"/>
<path d="M165.66 93C165.233 93 164.92 92.9067 164.72 92.72C164.533 92.52 164.44 92.2333 164.44 91.86C164.44 91.6333 164.5 91.4133 164.62 91.2C164.74 90.9867 164.913 90.76 165.14 90.52L169.16 86.24C169.773 85.6 170.213 85.02 170.48 84.5C170.747 83.9667 170.88 83.4333 170.88 82.9C170.88 82.2333 170.667 81.7267 170.24 81.38C169.827 81.0333 169.22 80.86 168.42 80.86C167.967 80.86 167.513 80.9267 167.06 81.06C166.607 81.18 166.147 81.3933 165.68 81.7C165.44 81.86 165.213 81.9267 165 81.9C164.8 81.8733 164.62 81.7867 164.46 81.64C164.313 81.4933 164.213 81.3133 164.16 81.1C164.107 80.8867 164.113 80.6733 164.18 80.46C164.26 80.2333 164.42 80.04 164.66 79.88C165.233 79.4933 165.873 79.2 166.58 79C167.3 78.8 168.02 78.7 168.74 78.7C169.753 78.7 170.607 78.8533 171.3 79.16C171.993 79.4667 172.52 79.9133 172.88 80.5C173.24 81.0867 173.42 81.8 173.42 82.64C173.42 83.2 173.327 83.7467 173.14 84.28C172.967 84.8133 172.693 85.3533 172.32 85.9C171.96 86.4467 171.487 87.0267 170.9 87.64L167.14 91.56V90.88H173.02C173.38 90.88 173.653 90.9667 173.84 91.14C174.027 91.3133 174.12 91.5733 174.12 91.92C174.12 92.2667 174.027 92.5333 173.84 92.72C173.653 92.9067 173.38 93 173.02 93H165.66ZM180.992 93.2C179.326 93.2 178.052 92.5733 177.172 91.32C176.292 90.0533 175.852 88.2533 175.852 85.92C175.852 84.3467 176.046 83.0267 176.432 81.96C176.832 80.88 177.412 80.0667 178.172 79.52C178.946 78.9733 179.886 78.7 180.992 78.7C182.672 78.7 183.946 79.3133 184.812 80.54C185.692 81.7667 186.132 83.5533 186.132 85.9C186.132 87.46 185.932 88.7867 185.532 89.88C185.146 90.96 184.572 91.7867 183.812 92.36C183.052 92.92 182.112 93.2 180.992 93.2ZM180.992 91.1C181.899 91.1 182.566 90.68 182.992 89.84C183.432 89 183.652 87.6867 183.652 85.9C183.652 84.1133 183.432 82.82 182.992 82.02C182.566 81.2067 181.899 80.8 180.992 80.8C180.099 80.8 179.432 81.2067 178.992 82.02C178.552 82.82 178.332 84.1133 178.332 85.9C178.332 87.6867 178.552 89 178.992 89.84C179.432 90.68 180.099 91.1 180.992 91.1Z" fill="#444444"/>
<path d="M177.264 155.16C176.864 155.16 176.551 155.053 176.324 154.84C176.097 154.613 175.984 154.293 175.984 153.88V152.32H171.044C170.631 152.32 170.297 152.233 170.044 152.06C169.804 151.887 169.684 151.613 169.684 151.24C169.684 151.027 169.737 150.793 169.844 150.54C169.964 150.287 170.171 149.953 170.464 149.54L175.944 141.6C176.131 141.32 176.337 141.107 176.564 140.96C176.791 140.813 177.051 140.74 177.344 140.74C177.691 140.74 177.977 140.847 178.204 141.06C178.431 141.26 178.544 141.58 178.544 142.02V150.2H179.524C179.911 150.2 180.197 150.293 180.384 150.48C180.584 150.653 180.684 150.913 180.684 151.26C180.684 151.607 180.584 151.873 180.384 152.06C180.197 152.233 179.911 152.32 179.524 152.32H178.544V153.88C178.544 154.293 178.431 154.613 178.204 154.84C177.977 155.053 177.664 155.16 177.264 155.16ZM175.984 150.2V143.96H176.564L171.844 150.88V150.2H175.984Z" fill="#444444"/>
<path d="M305.124 155C304.777 155 304.504 154.907 304.304 154.72C304.117 154.52 304.024 154.253 304.024 153.92C304.024 153.573 304.117 153.313 304.304 153.14C304.504 152.967 304.777 152.88 305.124 152.88H307.364V143.06H308.604L305.664 144.84C305.411 144.987 305.171 145.047 304.944 145.02C304.731 144.98 304.544 144.887 304.384 144.74C304.237 144.58 304.137 144.393 304.084 144.18C304.031 143.967 304.044 143.753 304.124 143.54C304.217 143.313 304.391 143.127 304.644 142.98L307.404 141.32C307.671 141.16 307.937 141.027 308.204 140.92C308.471 140.8 308.717 140.74 308.944 140.74C309.224 140.74 309.457 140.82 309.644 140.98C309.831 141.127 309.924 141.373 309.924 141.72V152.88H311.964C312.311 152.88 312.577 152.967 312.764 153.14C312.964 153.313 313.064 153.573 313.064 153.92C313.064 154.267 312.964 154.533 312.764 154.72C312.577 154.907 312.311 155 311.964 155H305.124Z" fill="#444444"/>
<path d="M440.724 155.2C440.004 155.2 439.257 155.107 438.484 154.92C437.711 154.733 437.037 154.453 436.464 154.08C436.197 153.907 436.017 153.707 435.924 153.48C435.831 153.253 435.804 153.04 435.844 152.84C435.897 152.627 435.997 152.447 436.144 152.3C436.304 152.153 436.497 152.067 436.724 152.04C436.964 152.013 437.224 152.073 437.504 152.22C438.051 152.513 438.577 152.727 439.084 152.86C439.591 152.98 440.111 153.04 440.644 153.04C441.231 153.04 441.724 152.96 442.124 152.8C442.524 152.64 442.824 152.4 443.024 152.08C443.237 151.76 443.344 151.373 443.344 150.92C443.344 150.253 443.117 149.76 442.664 149.44C442.224 149.107 441.577 148.94 440.724 148.94H439.444C439.071 148.94 438.784 148.847 438.584 148.66C438.397 148.473 438.304 148.213 438.304 147.88C438.304 147.547 438.397 147.287 438.584 147.1C438.784 146.913 439.071 146.82 439.444 146.82H440.484C440.991 146.82 441.424 146.74 441.784 146.58C442.144 146.407 442.424 146.167 442.624 145.86C442.824 145.553 442.924 145.18 442.924 144.74C442.924 144.127 442.717 143.66 442.304 143.34C441.904 143.02 441.317 142.86 440.544 142.86C440.051 142.86 439.584 142.92 439.144 143.04C438.717 143.147 438.244 143.353 437.724 143.66C437.484 143.807 437.251 143.867 437.024 143.84C436.811 143.813 436.631 143.727 436.484 143.58C436.337 143.433 436.237 143.26 436.184 143.06C436.131 142.847 436.144 142.633 436.224 142.42C436.304 142.193 436.471 142 436.724 141.84C437.297 141.467 437.931 141.187 438.624 141C439.317 140.8 440.031 140.7 440.764 140.7C441.737 140.7 442.571 140.853 443.264 141.16C443.957 141.453 444.484 141.88 444.844 142.44C445.217 142.987 445.404 143.653 445.404 144.44C445.404 145 445.297 145.513 445.084 145.98C444.871 146.433 444.571 146.82 444.184 147.14C443.797 147.46 443.331 147.687 442.784 147.82V147.58C443.744 147.74 444.491 148.14 445.024 148.78C445.557 149.407 445.824 150.193 445.824 151.14C445.824 151.967 445.617 152.687 445.204 153.3C444.791 153.913 444.204 154.387 443.444 154.72C442.684 155.04 441.777 155.2 440.724 155.2Z" fill="#444444"/>
<path d="M564.668 155C564.241 155 563.928 154.907 563.728 154.72C563.541 154.52 563.448 154.233 563.448 153.86C563.448 153.633 563.508 153.413 563.628 153.2C563.748 152.987 563.921 152.76 564.148 152.52L568.168 148.24C568.781 147.6 569.221 147.02 569.488 146.5C569.754 145.967 569.888 145.433 569.888 144.9C569.888 144.233 569.674 143.727 569.248 143.38C568.834 143.033 568.228 142.86 567.428 142.86C566.974 142.86 566.521 142.927 566.068 143.06C565.614 143.18 565.154 143.393 564.688 143.7C564.448 143.86 564.221 143.927 564.008 143.9C563.808 143.873 563.628 143.787 563.468 143.64C563.321 143.493 563.221 143.313 563.168 143.1C563.114 142.887 563.121 142.673 563.188 142.46C563.268 142.233 563.428 142.04 563.668 141.88C564.241 141.493 564.881 141.2 565.588 141C566.308 140.8 567.028 140.7 567.748 140.7C568.761 140.7 569.614 140.853 570.308 141.16C571.001 141.467 571.528 141.913 571.888 142.5C572.248 143.087 572.428 143.8 572.428 144.64C572.428 145.2 572.334 145.747 572.148 146.28C571.974 146.813 571.701 147.353 571.328 147.9C570.968 148.447 570.494 149.027 569.908 149.64L566.148 153.56V152.88H572.028C572.388 152.88 572.661 152.967 572.848 153.14C573.034 153.313 573.128 153.573 573.128 153.92C573.128 154.267 573.034 154.533 572.848 154.72C572.661 154.907 572.388 155 572.028 155H564.668ZM582.26 155.16C581.86 155.16 581.547 155.053 581.32 154.84C581.093 154.613 580.98 154.293 580.98 153.88V152.32H576.04C575.627 152.32 575.293 152.233 575.04 152.06C574.8 151.887 574.68 151.613 574.68 151.24C574.68 151.027 574.733 150.793 574.84 150.54C574.96 150.287 575.167 149.953 575.46 149.54L580.94 141.6C581.127 141.32 581.333 141.107 581.56 140.96C581.787 140.813 582.047 140.74 582.34 140.74C582.687 140.74 582.973 140.847 583.2 141.06C583.427 141.26 583.54 141.58 583.54 142.02V150.2H584.52C584.907 150.2 585.193 150.293 585.38 150.48C585.58 150.653 585.68 150.913 585.68 151.26C585.68 151.607 585.58 151.873 585.38 152.06C585.193 152.233 584.907 152.32 584.52 152.32H583.54V153.88C583.54 154.293 583.427 154.613 583.2 154.84C582.973 155.053 582.66 155.16 582.26 155.16ZM580.98 150.2V143.96H581.56L576.84 150.88V150.2H580.98Z" fill="#444444"/>
<path d="M8.78477 155C8.34477 155 8.00477 154.887 7.76477 154.66C7.5381 154.42 7.42477 154.08 7.42477 153.64V142.26C7.42477 141.82 7.5381 141.487 7.76477 141.26C8.00477 141.02 8.34477 140.9 8.78477 140.9H13.5848C14.5714 140.9 15.4114 141.047 16.1048 141.34C16.7981 141.633 17.3248 142.053 17.6848 142.6C18.0581 143.147 18.2448 143.8 18.2448 144.56C18.2448 145.413 17.9981 146.133 17.5048 146.72C17.0114 147.307 16.3381 147.7 15.4848 147.9V147.6C16.4714 147.747 17.2381 148.12 17.7848 148.72C18.3314 149.32 18.6048 150.1 18.6048 151.06C18.6048 152.313 18.1781 153.287 17.3248 153.98C16.4848 154.66 15.3114 155 13.8048 155H8.78477ZM9.88477 153.06H13.4848C14.3914 153.06 15.0581 152.887 15.4848 152.54C15.9114 152.18 16.1248 151.647 16.1248 150.94C16.1248 150.22 15.9114 149.687 15.4848 149.34C15.0581 148.993 14.3914 148.82 13.4848 148.82H9.88477V153.06ZM9.88477 146.88H13.1448C14.0248 146.88 14.6781 146.713 15.1048 146.38C15.5448 146.033 15.7648 145.527 15.7648 144.86C15.7648 144.193 15.5448 143.693 15.1048 143.36C14.6781 143.013 14.0248 142.84 13.1448 142.84H9.88477V146.88ZM24.1743 155.2C23.4676 155.2 22.8343 155.067 22.2743 154.8C21.7276 154.52 21.2943 154.147 20.9743 153.68C20.6676 153.213 20.5143 152.687 20.5143 152.1C20.5143 151.38 20.701 150.813 21.0743 150.4C21.4476 149.973 22.0543 149.667 22.8943 149.48C23.7343 149.293 24.861 149.2 26.2743 149.2H27.2743V150.64H26.2943C25.4676 150.64 24.8076 150.68 24.3143 150.76C23.821 150.84 23.4676 150.98 23.2543 151.18C23.0543 151.367 22.9543 151.633 22.9543 151.98C22.9543 152.42 23.1076 152.78 23.4143 153.06C23.721 153.34 24.1476 153.48 24.6943 153.48C25.1343 153.48 25.521 153.38 25.8543 153.18C26.201 152.967 26.4743 152.68 26.6743 152.32C26.8743 151.96 26.9743 151.547 26.9743 151.08V148.78C26.9743 148.113 26.8276 147.633 26.5343 147.34C26.241 147.047 25.7476 146.9 25.0543 146.9C24.6676 146.9 24.2476 146.947 23.7943 147.04C23.3543 147.133 22.8876 147.293 22.3943 147.52C22.141 147.64 21.9143 147.673 21.7143 147.62C21.5276 147.567 21.381 147.46 21.2743 147.3C21.1676 147.127 21.1143 146.94 21.1143 146.74C21.1143 146.54 21.1676 146.347 21.2743 146.16C21.381 145.96 21.561 145.813 21.8143 145.72C22.4276 145.467 23.0143 145.287 23.5743 145.18C24.1476 145.073 24.6676 145.02 25.1343 145.02C26.0943 145.02 26.881 145.167 27.4943 145.46C28.121 145.753 28.5876 146.2 28.8943 146.8C29.201 147.387 29.3543 148.147 29.3543 149.08V153.88C29.3543 154.293 29.2543 154.613 29.0543 154.84C28.8543 155.053 28.5676 155.16 28.1943 155.16C27.821 155.16 27.5276 155.053 27.3143 154.84C27.1143 154.613 27.0143 154.293 27.0143 153.88V152.92H27.1743C27.081 153.387 26.8943 153.793 26.6143 154.14C26.3476 154.473 26.0076 154.733 25.5943 154.92C25.181 155.107 24.7076 155.2 24.1743 155.2ZM35.2318 155.2C34.1251 155.2 33.2918 154.887 32.7318 154.26C32.1718 153.62 31.8918 152.687 31.8918 151.46V142C31.8918 141.587 31.9985 141.273 32.2118 141.06C32.4251 140.847 32.7318 140.74 33.1318 140.74C33.5318 140.74 33.8385 140.847 34.0518 141.06C34.2785 141.273 34.3918 141.587 34.3918 142V151.34C34.3918 151.953 34.5185 152.407 34.7718 152.7C35.0385 152.993 35.4118 153.14 35.8918 153.14C35.9985 153.14 36.0985 153.14 36.1918 153.14C36.2851 153.127 36.3785 153.113 36.4718 153.1C36.6585 153.073 36.7851 153.127 36.8518 153.26C36.9185 153.38 36.9518 153.633 36.9518 154.02C36.9518 154.353 36.8851 154.613 36.7518 154.8C36.6185 154.987 36.3985 155.1 36.0918 155.14C35.9585 155.153 35.8185 155.167 35.6718 155.18C35.5251 155.193 35.3785 155.2 35.2318 155.2ZM41.6185 155.2C40.5118 155.2 39.6785 154.887 39.1185 154.26C38.5585 153.62 38.2785 152.687 38.2785 151.46V142C38.2785 141.587 38.3852 141.273 38.5985 141.06C38.8118 140.847 39.1185 140.74 39.5185 140.74C39.9185 140.74 40.2252 140.847 40.4385 141.06C40.6652 141.273 40.7785 141.587 40.7785 142V151.34C40.7785 151.953 40.9052 152.407 41.1585 152.7C41.4252 152.993 41.7985 153.14 42.2785 153.14C42.3852 153.14 42.4852 153.14 42.5785 153.14C42.6718 153.127 42.7652 153.113 42.8585 153.1C43.0452 153.073 43.1718 153.127 43.2385 153.26C43.3052 153.38 43.3385 153.633 43.3385 154.02C43.3385 154.353 43.2718 154.613 43.1385 154.8C43.0052 154.987 42.7852 155.1 42.4785 155.14C42.3452 155.153 42.2052 155.167 42.0585 155.18C41.9118 155.193 41.7652 155.2 41.6185 155.2ZM49.0276 155.2C48.0142 155.2 47.1342 154.993 46.3876 154.58C45.6409 154.167 45.0609 153.58 44.6476 152.82C44.2342 152.047 44.0276 151.14 44.0276 150.1C44.0276 149.313 44.1409 148.613 44.3676 148C44.6076 147.373 44.9476 146.84 45.3876 146.4C45.8276 145.947 46.3542 145.607 46.9676 145.38C47.5809 145.14 48.2676 145.02 49.0276 145.02C50.0409 145.02 50.9209 145.227 51.6676 145.64C52.4142 146.053 52.9942 146.64 53.4076 147.4C53.8209 148.16 54.0276 149.06 54.0276 150.1C54.0276 150.887 53.9076 151.593 53.6676 152.22C53.4409 152.847 53.1076 153.387 52.6676 153.84C52.2276 154.28 51.7009 154.62 51.0876 154.86C50.4742 155.087 49.7876 155.2 49.0276 155.2ZM49.0276 153.3C49.5209 153.3 49.9542 153.18 50.3276 152.94C50.7009 152.7 50.9876 152.347 51.1876 151.88C51.4009 151.4 51.5076 150.807 51.5076 150.1C51.5076 149.033 51.2809 148.24 50.8276 147.72C50.3742 147.187 49.7742 146.92 49.0276 146.92C48.5342 146.92 48.1009 147.04 47.7276 147.28C47.3542 147.507 47.0609 147.86 46.8476 148.34C46.6476 148.807 46.5476 149.393 46.5476 150.1C46.5476 151.153 46.7742 151.953 47.2276 152.5C47.6809 153.033 48.2809 153.3 49.0276 153.3ZM60.551 155.2C59.5377 155.2 58.6577 154.993 57.911 154.58C57.1643 154.167 56.5843 153.58 56.171 152.82C55.7577 152.047 55.551 151.14 55.551 150.1C55.551 149.313 55.6643 148.613 55.891 148C56.131 147.373 56.471 146.84 56.911 146.4C57.351 145.947 57.8777 145.607 58.491 145.38C59.1043 145.14 59.791 145.02 60.551 145.02C61.5643 145.02 62.4443 145.227 63.191 145.64C63.9377 146.053 64.5177 146.64 64.931 147.4C65.3443 148.16 65.551 149.06 65.551 150.1C65.551 150.887 65.431 151.593 65.191 152.22C64.9643 152.847 64.631 153.387 64.191 153.84C63.751 154.28 63.2243 154.62 62.611 154.86C61.9977 155.087 61.311 155.2 60.551 155.2ZM60.551 153.3C61.0443 153.3 61.4777 153.18 61.851 152.94C62.2243 152.7 62.511 152.347 62.711 151.88C62.9243 151.4 63.031 150.807 63.031 150.1C63.031 149.033 62.8043 148.24 62.351 147.72C61.8977 147.187 61.2977 146.92 60.551 146.92C60.0577 146.92 59.6243 147.04 59.251 147.28C58.8777 147.507 58.5843 147.86 58.371 148.34C58.171 148.807 58.071 149.393 58.071 150.1C58.071 151.153 58.2977 151.953 58.751 152.5C59.2043 153.033 59.8043 153.3 60.551 153.3ZM68.8545 155.16C68.4545 155.16 68.1478 155.053 67.9345 154.84C67.7211 154.613 67.6145 154.293 67.6145 153.88V146.32C67.6145 145.907 67.7211 145.593 67.9345 145.38C68.1478 145.167 68.4478 145.06 68.8345 145.06C69.2211 145.06 69.5211 145.167 69.7345 145.38C69.9478 145.593 70.0545 145.907 70.0545 146.32V147.68L69.8345 147.18C70.1278 146.473 70.5811 145.94 71.1945 145.58C71.8211 145.207 72.5278 145.02 73.3145 145.02C74.1011 145.02 74.7478 145.167 75.2545 145.46C75.7611 145.753 76.1411 146.2 76.3945 146.8C76.6478 147.387 76.7745 148.133 76.7745 149.04V153.88C76.7745 154.293 76.6678 154.613 76.4545 154.84C76.2411 155.053 75.9345 155.16 75.5345 155.16C75.1345 155.16 74.8211 155.053 74.5945 154.84C74.3811 154.613 74.2745 154.293 74.2745 153.88V149.16C74.2745 148.4 74.1278 147.847 73.8345 147.5C73.5545 147.153 73.1145 146.98 72.5145 146.98C71.7811 146.98 71.1945 147.213 70.7545 147.68C70.3278 148.133 70.1145 148.74 70.1145 149.5V153.88C70.1145 154.733 69.6945 155.16 68.8545 155.16ZM82.3537 158.26C81.527 156.953 80.927 155.58 80.5537 154.14C80.1937 152.687 80.0137 151.22 80.0137 149.74C80.0137 148.753 80.0937 147.773 80.2537 146.8C80.4137 145.827 80.667 144.873 81.0137 143.94C81.3603 142.993 81.807 142.087 82.3537 141.22C82.5003 140.98 82.6937 140.833 82.9337 140.78C83.187 140.713 83.4203 140.727 83.6337 140.82C83.8603 140.913 84.027 141.087 84.1337 141.34C84.2403 141.58 84.227 141.887 84.0937 142.26C83.7737 143.113 83.507 143.953 83.2937 144.78C83.0937 145.593 82.9403 146.407 82.8337 147.22C82.7403 148.033 82.6937 148.873 82.6937 149.74C82.6937 150.607 82.747 151.447 82.8537 152.26C82.9603 153.073 83.1203 153.887 83.3337 154.7C83.547 155.513 83.8003 156.353 84.0937 157.22C84.227 157.593 84.2403 157.9 84.1337 158.14C84.027 158.393 83.8603 158.567 83.6337 158.66C83.4203 158.753 83.187 158.767 82.9337 158.7C82.6937 158.647 82.5003 158.5 82.3537 158.26ZM90.0616 155.2C89.4883 155.2 88.8816 155.14 88.2416 155.02C87.6016 154.9 87.0283 154.693 86.5216 154.4C86.3083 154.267 86.155 154.113 86.0616 153.94C85.9816 153.753 85.9483 153.573 85.9616 153.4C85.9883 153.213 86.055 153.053 86.1616 152.92C86.2816 152.787 86.4283 152.7 86.6016 152.66C86.7883 152.62 86.9883 152.653 87.2016 152.76C87.735 153.013 88.235 153.193 88.7016 153.3C89.1683 153.393 89.6283 153.44 90.0816 153.44C90.7216 153.44 91.195 153.333 91.5016 153.12C91.8216 152.893 91.9816 152.6 91.9816 152.24C91.9816 151.933 91.875 151.7 91.6616 151.54C91.4616 151.367 91.155 151.24 90.7416 151.16L88.7416 150.78C87.915 150.62 87.2816 150.32 86.8416 149.88C86.415 149.427 86.2016 148.847 86.2016 148.14C86.2016 147.5 86.375 146.947 86.7216 146.48C87.0816 146.013 87.575 145.653 88.2016 145.4C88.8283 145.147 89.5483 145.02 90.3616 145.02C90.9483 145.02 91.495 145.087 92.0016 145.22C92.5216 145.34 93.0216 145.533 93.5016 145.8C93.7016 145.907 93.835 146.047 93.9016 146.22C93.9816 146.393 94.0016 146.573 93.9616 146.76C93.9216 146.933 93.8416 147.093 93.7216 147.24C93.6016 147.373 93.4483 147.46 93.2616 147.5C93.0883 147.527 92.8883 147.487 92.6616 147.38C92.2483 147.167 91.8483 147.013 91.4616 146.92C91.0883 146.827 90.7283 146.78 90.3816 146.78C89.7283 146.78 89.2416 146.893 88.9216 147.12C88.615 147.347 88.4616 147.647 88.4616 148.02C88.4616 148.3 88.555 148.533 88.7416 148.72C88.9283 148.907 89.215 149.033 89.6016 149.1L91.6016 149.48C92.4683 149.64 93.1216 149.933 93.5616 150.36C94.015 150.787 94.2416 151.36 94.2416 152.08C94.2416 153.053 93.8616 153.82 93.1016 154.38C92.3416 154.927 91.3283 155.2 90.0616 155.2ZM97.7673 158.26C97.6206 158.5 97.4206 158.647 97.1673 158.7C96.9273 158.767 96.6939 158.747 96.4673 158.64C96.2406 158.547 96.0739 158.38 95.9673 158.14C95.8739 157.9 95.8939 157.593 96.0273 157.22C96.3606 156.353 96.6273 155.513 96.8273 154.7C97.0273 153.887 97.1739 153.073 97.2673 152.26C97.3739 151.447 97.4273 150.607 97.4273 149.74C97.4273 148.873 97.3739 148.033 97.2673 147.22C97.1606 146.407 97.0006 145.593 96.7873 144.78C96.5873 143.967 96.3339 143.127 96.0273 142.26C95.8939 141.887 95.8806 141.58 95.9873 141.34C96.0939 141.087 96.2606 140.913 96.4873 140.82C96.7139 140.727 96.9473 140.713 97.1873 140.78C97.4273 140.833 97.6206 140.98 97.7673 141.22C98.5806 142.513 99.1739 143.887 99.5473 145.34C99.9206 146.793 100.107 148.26 100.107 149.74C100.107 150.727 100.021 151.707 99.8473 152.68C99.6873 153.653 99.4339 154.607 99.0873 155.54C98.7539 156.487 98.3139 157.393 97.7673 158.26Z" fill="#444444"/>
<line x1="108.5" y1="1" x2="108.5" y2="171" stroke="#1A1A1A"/>
<line y1="44.5" x2="640" y2="44.5" stroke="#1A1A1A"/>
<line y1="126.5" x2="640" y2="126.5" stroke="#1A1A1A"/>
<line x1="241.5" y1="1" x2="241.5" y2="171" stroke="#1A1A1A"/>
<line x1="374.5" y1="1" x2="374.5" y2="171" stroke="#1A1A1A"/>
<line x1="507.5" y1="1" x2="507.5" y2="171" stroke="#1A1A1A"/>
<rect x="0.5" y="0.5" width="639" height="171" rx="9.5" stroke="#1A1A1A"/>
</svg>
