<svg width="680" height="680" viewBox="0 0 680 680" fill="none" xmlns="http://www.w3.org/2000/svg">
<g clip-path="url(#clip0_404_413)">
<rect y="40" width="680" height="610" rx="8" fill="#FDF2F2"/>
<rect x="20.5" y="254.5" width="639" height="171" rx="9.5" fill="white"/>
<path d="M21 264C21 259.029 25.0294 255 30 255H650C654.971 255 659 259.029 659 264V298H21V264Z" fill="#C882FA"/>
<path d="M178.52 285.2C177.053 285.2 175.793 284.907 174.74 284.32C173.7 283.72 172.9 282.88 172.34 281.8C171.78 280.707 171.5 279.42 171.5 277.94C171.5 276.833 171.66 275.84 171.98 274.96C172.3 274.067 172.76 273.307 173.36 272.68C173.96 272.04 174.693 271.553 175.56 271.22C176.44 270.873 177.427 270.7 178.52 270.7C179.253 270.7 179.973 270.793 180.68 270.98C181.387 271.167 182.007 271.433 182.54 271.78C182.82 271.953 183.007 272.167 183.1 272.42C183.193 272.66 183.213 272.9 183.16 273.14C183.107 273.367 182.993 273.56 182.82 273.72C182.66 273.88 182.453 273.973 182.2 274C181.96 274.013 181.693 273.927 181.4 273.74C180.987 273.473 180.54 273.28 180.06 273.16C179.58 273.04 179.093 272.98 178.6 272.98C177.653 272.98 176.853 273.173 176.2 273.56C175.547 273.947 175.053 274.507 174.72 275.24C174.387 275.973 174.22 276.873 174.22 277.94C174.22 278.993 174.387 279.893 174.72 280.64C175.053 281.387 175.547 281.953 176.2 282.34C176.853 282.727 177.653 282.92 178.6 282.92C179.107 282.92 179.607 282.86 180.1 282.74C180.593 282.607 181.06 282.407 181.5 282.14C181.793 281.967 182.053 281.893 182.28 281.92C182.52 281.933 182.72 282.013 182.88 282.16C183.04 282.307 183.147 282.493 183.2 282.72C183.253 282.933 183.24 283.16 183.16 283.4C183.08 283.627 182.92 283.827 182.68 284C182.147 284.387 181.507 284.687 180.76 284.9C180.027 285.1 179.28 285.2 178.52 285.2ZM186.554 285.16C186.154 285.16 185.847 285.053 185.634 284.84C185.42 284.613 185.314 284.293 185.314 283.88V272C185.314 271.587 185.42 271.273 185.634 271.06C185.847 270.847 186.154 270.74 186.554 270.74C186.954 270.74 187.26 270.847 187.474 271.06C187.7 271.273 187.814 271.587 187.814 272V277.18H187.534C187.827 276.473 188.28 275.94 188.894 275.58C189.52 275.207 190.227 275.02 191.014 275.02C191.8 275.02 192.447 275.167 192.954 275.46C193.46 275.753 193.84 276.2 194.094 276.8C194.347 277.387 194.474 278.133 194.474 279.04V283.88C194.474 284.293 194.367 284.613 194.154 284.84C193.94 285.053 193.634 285.16 193.234 285.16C192.834 285.16 192.52 285.053 192.294 284.84C192.08 284.613 191.974 284.293 191.974 283.88V279.16C191.974 278.4 191.827 277.847 191.534 277.5C191.254 277.153 190.814 276.98 190.214 276.98C189.48 276.98 188.894 277.213 188.454 277.68C188.027 278.133 187.814 278.74 187.814 279.5V283.88C187.814 284.733 187.394 285.16 186.554 285.16ZM200.233 285.2C199.526 285.2 198.893 285.067 198.333 284.8C197.786 284.52 197.353 284.147 197.033 283.68C196.726 283.213 196.573 282.687 196.573 282.1C196.573 281.38 196.76 280.813 197.133 280.4C197.506 279.973 198.113 279.667 198.953 279.48C199.793 279.293 200.92 279.2 202.333 279.2H203.333V280.64H202.353C201.526 280.64 200.866 280.68 200.373 280.76C199.88 280.84 199.526 280.98 199.313 281.18C199.113 281.367 199.013 281.633 199.013 281.98C199.013 282.42 199.166 282.78 199.473 283.06C199.78 283.34 200.206 283.48 200.753 283.48C201.193 283.48 201.58 283.38 201.913 283.18C202.26 282.967 202.533 282.68 202.733 282.32C202.933 281.96 203.033 281.547 203.033 281.08V278.78C203.033 278.113 202.886 277.633 202.593 277.34C202.3 277.047 201.806 276.9 201.113 276.9C200.726 276.9 200.306 276.947 199.853 277.04C199.413 277.133 198.946 277.293 198.453 277.52C198.2 277.64 197.973 277.673 197.773 277.62C197.586 277.567 197.44 277.46 197.333 277.3C197.226 277.127 197.173 276.94 197.173 276.74C197.173 276.54 197.226 276.347 197.333 276.16C197.44 275.96 197.62 275.813 197.873 275.72C198.486 275.467 199.073 275.287 199.633 275.18C200.206 275.073 200.726 275.02 201.193 275.02C202.153 275.02 202.94 275.167 203.553 275.46C204.18 275.753 204.646 276.2 204.953 276.8C205.26 277.387 205.413 278.147 205.413 279.08V283.88C205.413 284.293 205.313 284.613 205.113 284.84C204.913 285.053 204.626 285.16 204.253 285.16C203.88 285.16 203.586 285.053 203.373 284.84C203.173 284.613 203.073 284.293 203.073 283.88V282.92H203.233C203.14 283.387 202.953 283.793 202.673 284.14C202.406 284.473 202.066 284.733 201.653 284.92C201.24 285.107 200.766 285.2 200.233 285.2ZM209.19 285.14C208.79 285.14 208.484 285.02 208.27 284.78C208.057 284.54 207.95 284.207 207.95 283.78V276.44C207.95 276 208.057 275.667 208.27 275.44C208.484 275.2 208.79 275.08 209.19 275.08C209.59 275.08 209.897 275.2 210.11 275.44C210.337 275.667 210.45 276 210.45 276.44V283.78C210.45 284.207 210.344 284.54 210.13 284.78C209.917 285.02 209.604 285.14 209.19 285.14ZM209.19 273.22C208.724 273.22 208.357 273.107 208.09 272.88C207.837 272.64 207.71 272.313 207.71 271.9C207.71 271.473 207.837 271.147 208.09 270.92C208.357 270.693 208.724 270.58 209.19 270.58C209.67 270.58 210.037 270.693 210.29 270.92C210.544 271.147 210.67 271.473 210.67 271.9C210.67 272.313 210.544 272.64 210.29 272.88C210.037 273.107 209.67 273.22 209.19 273.22ZM214.328 285.16C213.915 285.16 213.595 285.053 213.368 284.84C213.155 284.613 213.048 284.293 213.048 283.88V276.32C213.048 275.907 213.155 275.593 213.368 275.38C213.581 275.167 213.881 275.06 214.268 275.06C214.655 275.06 214.955 275.167 215.168 275.38C215.381 275.593 215.488 275.907 215.488 276.32V277.58H215.288C215.475 276.78 215.841 276.173 216.388 275.76C216.935 275.347 217.661 275.1 218.568 275.02C218.848 274.993 219.068 275.067 219.228 275.24C219.401 275.4 219.501 275.653 219.528 276C219.555 276.333 219.475 276.607 219.288 276.82C219.115 277.02 218.848 277.14 218.488 277.18L218.048 277.22C217.235 277.3 216.621 277.553 216.208 277.98C215.795 278.393 215.588 278.98 215.588 279.74V283.88C215.588 284.293 215.481 284.613 215.268 284.84C215.055 285.053 214.741 285.16 214.328 285.16Z" fill="white"/>
<path d="M313.99 285.16C313.577 285.16 313.257 285.047 313.03 284.82C312.817 284.58 312.71 284.253 312.71 283.84V272.2C312.71 271.773 312.823 271.453 313.05 271.24C313.277 271.013 313.597 270.9 314.01 270.9H318.83C320.377 270.9 321.57 271.287 322.41 272.06C323.25 272.833 323.67 273.913 323.67 275.3C323.67 276.687 323.25 277.773 322.41 278.56C321.57 279.333 320.377 279.72 318.83 279.72H315.27V283.84C315.27 284.253 315.163 284.58 314.95 284.82C314.737 285.047 314.417 285.16 313.99 285.16ZM315.27 277.7H318.43C319.337 277.7 320.023 277.5 320.49 277.1C320.957 276.687 321.19 276.087 321.19 275.3C321.19 274.513 320.957 273.92 320.49 273.52C320.023 273.12 319.337 272.92 318.43 272.92H315.27V277.7ZM329.489 285.2C328.475 285.2 327.595 284.993 326.849 284.58C326.102 284.167 325.522 283.58 325.109 282.82C324.695 282.047 324.489 281.14 324.489 280.1C324.489 279.313 324.602 278.613 324.829 278C325.069 277.373 325.409 276.84 325.849 276.4C326.289 275.947 326.815 275.607 327.429 275.38C328.042 275.14 328.729 275.02 329.489 275.02C330.502 275.02 331.382 275.227 332.129 275.64C332.875 276.053 333.455 276.64 333.869 277.4C334.282 278.16 334.489 279.06 334.489 280.1C334.489 280.887 334.369 281.593 334.129 282.22C333.902 282.847 333.569 283.387 333.129 283.84C332.689 284.28 332.162 284.62 331.549 284.86C330.935 285.087 330.249 285.2 329.489 285.2ZM329.489 283.3C329.982 283.3 330.415 283.18 330.789 282.94C331.162 282.7 331.449 282.347 331.649 281.88C331.862 281.4 331.969 280.807 331.969 280.1C331.969 279.033 331.742 278.24 331.289 277.72C330.835 277.187 330.235 276.92 329.489 276.92C328.995 276.92 328.562 277.04 328.189 277.28C327.815 277.507 327.522 277.86 327.309 278.34C327.109 278.807 327.009 279.393 327.009 280.1C327.009 281.153 327.235 281.953 327.689 282.5C328.142 283.033 328.742 283.3 329.489 283.3ZM340.934 285.2C340.068 285.2 339.341 285.053 338.754 284.76C338.181 284.467 337.754 284.04 337.474 283.48C337.194 282.907 337.054 282.2 337.054 281.36V277.1H336.014C335.694 277.1 335.448 277.02 335.274 276.86C335.101 276.687 335.014 276.453 335.014 276.16C335.014 275.853 335.101 275.62 335.274 275.46C335.448 275.3 335.694 275.22 336.014 275.22H337.054V273.4C337.054 272.987 337.161 272.673 337.374 272.46C337.601 272.247 337.914 272.14 338.314 272.14C338.714 272.14 339.021 272.247 339.234 272.46C339.448 272.673 339.554 272.987 339.554 273.4V275.22H341.674C341.994 275.22 342.241 275.3 342.414 275.46C342.588 275.62 342.674 275.853 342.674 276.16C342.674 276.453 342.588 276.687 342.414 276.86C342.241 277.02 341.994 277.1 341.674 277.1H339.554V281.22C339.554 281.86 339.694 282.34 339.974 282.66C340.254 282.98 340.708 283.14 341.334 283.14C341.561 283.14 341.761 283.12 341.934 283.08C342.108 283.04 342.261 283.013 342.394 283C342.554 282.987 342.688 283.04 342.794 283.16C342.901 283.267 342.954 283.493 342.954 283.84C342.954 284.107 342.908 284.347 342.814 284.56C342.734 284.76 342.581 284.9 342.354 284.98C342.181 285.033 341.954 285.08 341.674 285.12C341.394 285.173 341.148 285.2 340.934 285.2Z" fill="white"/>
<path d="M436.947 285.16C436.534 285.16 436.214 285.047 435.987 284.82C435.774 284.58 435.667 284.253 435.667 283.84V272.2C435.667 271.773 435.78 271.453 436.007 271.24C436.234 271.013 436.554 270.9 436.967 270.9H441.787C443.334 270.9 444.527 271.287 445.367 272.06C446.207 272.833 446.627 273.913 446.627 275.3C446.627 276.687 446.207 277.773 445.367 278.56C444.527 279.333 443.334 279.72 441.787 279.72H438.227V283.84C438.227 284.253 438.12 284.58 437.907 284.82C437.694 285.047 437.374 285.16 436.947 285.16ZM438.227 277.7H441.387C442.294 277.7 442.98 277.5 443.447 277.1C443.914 276.687 444.147 276.087 444.147 275.3C444.147 274.513 443.914 273.92 443.447 273.52C442.98 273.12 442.294 272.92 441.387 272.92H438.227V277.7ZM451.814 285.2C450.707 285.2 449.874 284.887 449.314 284.26C448.754 283.62 448.474 282.687 448.474 281.46V272C448.474 271.587 448.58 271.273 448.794 271.06C449.007 270.847 449.314 270.74 449.714 270.74C450.114 270.74 450.42 270.847 450.634 271.06C450.86 271.273 450.974 271.587 450.974 272V281.34C450.974 281.953 451.1 282.407 451.354 282.7C451.62 282.993 451.994 283.14 452.474 283.14C452.58 283.14 452.68 283.14 452.774 283.14C452.867 283.127 452.96 283.113 453.054 283.1C453.24 283.073 453.367 283.127 453.434 283.26C453.5 283.38 453.534 283.633 453.534 284.02C453.534 284.353 453.467 284.613 453.334 284.8C453.2 284.987 452.98 285.1 452.674 285.14C452.54 285.153 452.4 285.167 452.254 285.18C452.107 285.193 451.96 285.2 451.814 285.2ZM458.081 285.2C457.374 285.2 456.741 285.067 456.181 284.8C455.634 284.52 455.201 284.147 454.881 283.68C454.574 283.213 454.421 282.687 454.421 282.1C454.421 281.38 454.607 280.813 454.981 280.4C455.354 279.973 455.961 279.667 456.801 279.48C457.641 279.293 458.767 279.2 460.181 279.2H461.181V280.64H460.201C459.374 280.64 458.714 280.68 458.221 280.76C457.727 280.84 457.374 280.98 457.161 281.18C456.961 281.367 456.861 281.633 456.861 281.98C456.861 282.42 457.014 282.78 457.321 283.06C457.627 283.34 458.054 283.48 458.601 283.48C459.041 283.48 459.427 283.38 459.761 283.18C460.107 282.967 460.381 282.68 460.581 282.32C460.781 281.96 460.881 281.547 460.881 281.08V278.78C460.881 278.113 460.734 277.633 460.441 277.34C460.147 277.047 459.654 276.9 458.961 276.9C458.574 276.9 458.154 276.947 457.701 277.04C457.261 277.133 456.794 277.293 456.301 277.52C456.047 277.64 455.821 277.673 455.621 277.62C455.434 277.567 455.287 277.46 455.181 277.3C455.074 277.127 455.021 276.94 455.021 276.74C455.021 276.54 455.074 276.347 455.181 276.16C455.287 275.96 455.467 275.813 455.721 275.72C456.334 275.467 456.921 275.287 457.481 275.18C458.054 275.073 458.574 275.02 459.041 275.02C460.001 275.02 460.787 275.167 461.401 275.46C462.027 275.753 462.494 276.2 462.801 276.8C463.107 277.387 463.261 278.147 463.261 279.08V283.88C463.261 284.293 463.161 284.613 462.961 284.84C462.761 285.053 462.474 285.16 462.101 285.16C461.727 285.16 461.434 285.053 461.221 284.84C461.021 284.613 460.921 284.293 460.921 283.88V282.92H461.081C460.987 283.387 460.801 283.793 460.521 284.14C460.254 284.473 459.914 284.733 459.501 284.92C459.087 285.107 458.614 285.2 458.081 285.2ZM467.038 285.16C466.638 285.16 466.331 285.053 466.118 284.84C465.905 284.613 465.798 284.293 465.798 283.88V276.32C465.798 275.907 465.905 275.593 466.118 275.38C466.331 275.167 466.631 275.06 467.018 275.06C467.405 275.06 467.705 275.167 467.918 275.38C468.131 275.593 468.238 275.907 468.238 276.32V277.68L468.018 277.18C468.311 276.473 468.765 275.94 469.378 275.58C470.005 275.207 470.711 275.02 471.498 275.02C472.285 275.02 472.931 275.167 473.438 275.46C473.945 275.753 474.325 276.2 474.578 276.8C474.831 277.387 474.958 278.133 474.958 279.04V283.88C474.958 284.293 474.851 284.613 474.638 284.84C474.425 285.053 474.118 285.16 473.718 285.16C473.318 285.16 473.005 285.053 472.778 284.84C472.565 284.613 472.458 284.293 472.458 283.88V279.16C472.458 278.4 472.311 277.847 472.018 277.5C471.738 277.153 471.298 276.98 470.698 276.98C469.965 276.98 469.378 277.213 468.938 277.68C468.511 278.133 468.298 278.74 468.298 279.5V283.88C468.298 284.733 467.878 285.16 467.038 285.16ZM481.977 285.2C481.111 285.2 480.384 285.053 479.797 284.76C479.224 284.467 478.797 284.04 478.517 283.48C478.237 282.907 478.097 282.2 478.097 281.36V277.1H477.057C476.737 277.1 476.491 277.02 476.317 276.86C476.144 276.687 476.057 276.453 476.057 276.16C476.057 275.853 476.144 275.62 476.317 275.46C476.491 275.3 476.737 275.22 477.057 275.22H478.097V273.4C478.097 272.987 478.204 272.673 478.417 272.46C478.644 272.247 478.957 272.14 479.357 272.14C479.757 272.14 480.064 272.247 480.277 272.46C480.491 272.673 480.597 272.987 480.597 273.4V275.22H482.717C483.037 275.22 483.284 275.3 483.457 275.46C483.631 275.62 483.717 275.853 483.717 276.16C483.717 276.453 483.631 276.687 483.457 276.86C483.284 277.02 483.037 277.1 482.717 277.1H480.597V281.22C480.597 281.86 480.737 282.34 481.017 282.66C481.297 282.98 481.751 283.14 482.377 283.14C482.604 283.14 482.804 283.12 482.977 283.08C483.151 283.04 483.304 283.013 483.437 283C483.597 282.987 483.731 283.04 483.837 283.16C483.944 283.267 483.997 283.493 483.997 283.84C483.997 284.107 483.951 284.347 483.857 284.56C483.777 284.76 483.624 284.9 483.397 284.98C483.224 285.033 482.997 285.08 482.717 285.12C482.437 285.173 482.191 285.2 481.977 285.2Z" fill="white"/>
<path d="M576.316 285.2C575.729 285.2 575.143 285.153 574.556 285.06C573.969 284.98 573.416 284.853 572.896 284.68C572.376 284.493 571.909 284.267 571.496 284C571.256 283.84 571.089 283.647 570.996 283.42C570.903 283.193 570.869 282.973 570.896 282.76C570.936 282.533 571.023 282.34 571.156 282.18C571.303 282.007 571.483 281.9 571.696 281.86C571.909 281.82 572.143 281.88 572.396 282.04C572.983 282.387 573.603 282.64 574.256 282.8C574.909 282.96 575.596 283.04 576.316 283.04C577.369 283.04 578.136 282.867 578.616 282.52C579.096 282.16 579.336 281.7 579.336 281.14C579.336 280.673 579.163 280.307 578.816 280.04C578.483 279.773 577.903 279.553 577.076 279.38L574.876 278.92C573.609 278.653 572.663 278.207 572.036 277.58C571.423 276.94 571.116 276.1 571.116 275.06C571.116 274.407 571.249 273.813 571.516 273.28C571.783 272.747 572.156 272.287 572.636 271.9C573.129 271.513 573.709 271.22 574.376 271.02C575.056 270.807 575.803 270.7 576.616 270.7C577.416 270.7 578.176 270.8 578.896 271C579.616 271.2 580.263 271.493 580.836 271.88C581.049 272.027 581.189 272.207 581.256 272.42C581.336 272.633 581.356 272.847 581.316 273.06C581.276 273.26 581.183 273.433 581.036 273.58C580.889 273.727 580.703 273.813 580.476 273.84C580.263 273.867 580.016 273.8 579.736 273.64C579.243 273.36 578.743 273.16 578.236 273.04C577.729 272.92 577.183 272.86 576.596 272.86C575.983 272.86 575.456 272.947 575.016 273.12C574.576 273.293 574.236 273.54 573.996 273.86C573.769 274.167 573.656 274.533 573.656 274.96C573.656 275.44 573.816 275.827 574.136 276.12C574.456 276.4 575.003 276.62 575.776 276.78L577.956 277.24C579.276 277.52 580.256 277.96 580.896 278.56C581.549 279.16 581.876 279.96 581.876 280.96C581.876 281.6 581.743 282.18 581.476 282.7C581.223 283.22 580.849 283.667 580.356 284.04C579.876 284.413 579.296 284.7 578.616 284.9C577.936 285.1 577.169 285.2 576.316 285.2ZM588.293 285.2C587.28 285.2 586.4 284.993 585.653 284.58C584.907 284.167 584.327 283.58 583.913 282.82C583.5 282.047 583.293 281.14 583.293 280.1C583.293 279.313 583.407 278.613 583.633 278C583.873 277.373 584.213 276.84 584.653 276.4C585.093 275.947 585.62 275.607 586.233 275.38C586.847 275.14 587.533 275.02 588.293 275.02C589.307 275.02 590.187 275.227 590.933 275.64C591.68 276.053 592.26 276.64 592.673 277.4C593.087 278.16 593.293 279.06 593.293 280.1C593.293 280.887 593.173 281.593 592.933 282.22C592.707 282.847 592.373 283.387 591.933 283.84C591.493 284.28 590.967 284.62 590.353 284.86C589.74 285.087 589.053 285.2 588.293 285.2ZM588.293 283.3C588.787 283.3 589.22 283.18 589.593 282.94C589.967 282.7 590.253 282.347 590.453 281.88C590.667 281.4 590.773 280.807 590.773 280.1C590.773 279.033 590.547 278.24 590.093 277.72C589.64 277.187 589.04 276.92 588.293 276.92C587.8 276.92 587.367 277.04 586.993 277.28C586.62 277.507 586.327 277.86 586.113 278.34C585.913 278.807 585.813 279.393 585.813 280.1C585.813 281.153 586.04 281.953 586.493 282.5C586.947 283.033 587.547 283.3 588.293 283.3ZM597.179 285.16C596.779 285.16 596.466 285.053 596.239 284.84C596.026 284.613 595.919 284.293 595.919 283.88V277.1H594.999C594.679 277.1 594.432 277.02 594.259 276.86C594.086 276.687 593.999 276.453 593.999 276.16C593.999 275.853 594.086 275.62 594.259 275.46C594.432 275.3 594.679 275.22 594.999 275.22H596.639L595.919 275.88V275.2C595.919 273.827 596.266 272.8 596.959 272.12C597.652 271.427 598.652 271.02 599.959 270.9L600.639 270.84C600.906 270.813 601.119 270.86 601.279 270.98C601.439 271.087 601.546 271.233 601.599 271.42C601.652 271.593 601.659 271.773 601.619 271.96C601.579 272.147 601.492 272.313 601.359 272.46C601.239 272.593 601.079 272.667 600.879 272.68L600.599 272.7C599.839 272.753 599.286 272.947 598.939 273.28C598.592 273.613 598.419 274.12 598.419 274.8V275.54L598.099 275.22H600.119C600.439 275.22 600.686 275.3 600.859 275.46C601.032 275.62 601.119 275.853 601.119 276.16C601.119 276.453 601.032 276.687 600.859 276.86C600.686 277.02 600.439 277.1 600.119 277.1H598.419V283.88C598.419 284.733 598.006 285.16 597.179 285.16ZM605.666 285.2C604.96 285.2 604.326 285.067 603.766 284.8C603.22 284.52 602.786 284.147 602.466 283.68C602.16 283.213 602.006 282.687 602.006 282.1C602.006 281.38 602.193 280.813 602.566 280.4C602.94 279.973 603.546 279.667 604.386 279.48C605.226 279.293 606.353 279.2 607.766 279.2H608.766V280.64H607.786C606.96 280.64 606.3 280.68 605.806 280.76C605.313 280.84 604.96 280.98 604.746 281.18C604.546 281.367 604.446 281.633 604.446 281.98C604.446 282.42 604.6 282.78 604.906 283.06C605.213 283.34 605.64 283.48 606.186 283.48C606.626 283.48 607.013 283.38 607.346 283.18C607.693 282.967 607.966 282.68 608.166 282.32C608.366 281.96 608.466 281.547 608.466 281.08V278.78C608.466 278.113 608.32 277.633 608.026 277.34C607.733 277.047 607.24 276.9 606.546 276.9C606.16 276.9 605.74 276.947 605.286 277.04C604.846 277.133 604.38 277.293 603.886 277.52C603.633 277.64 603.406 277.673 603.206 277.62C603.02 277.567 602.873 277.46 602.766 277.3C602.66 277.127 602.606 276.94 602.606 276.74C602.606 276.54 602.66 276.347 602.766 276.16C602.873 275.96 603.053 275.813 603.306 275.72C603.92 275.467 604.506 275.287 605.066 275.18C605.64 275.073 606.16 275.02 606.626 275.02C607.586 275.02 608.373 275.167 608.986 275.46C609.613 275.753 610.08 276.2 610.386 276.8C610.693 277.387 610.846 278.147 610.846 279.08V283.88C610.846 284.293 610.746 284.613 610.546 284.84C610.346 285.053 610.06 285.16 609.686 285.16C609.313 285.16 609.02 285.053 608.806 284.84C608.606 284.613 608.506 284.293 608.506 283.88V282.92H608.666C608.573 283.387 608.386 283.793 608.106 284.14C607.84 284.473 607.5 284.733 607.086 284.92C606.673 285.107 606.2 285.2 605.666 285.2Z" fill="white"/>
<path d="M51.4303 285.2C50.0703 285.2 48.877 284.9 47.8503 284.3C46.837 283.7 46.0503 282.86 45.4903 281.78C44.9303 280.687 44.6503 279.407 44.6503 277.94C44.6503 276.833 44.8103 275.84 45.1303 274.96C45.4503 274.067 45.9036 273.307 46.4903 272.68C47.0903 272.04 47.8036 271.553 48.6303 271.22C49.4703 270.873 50.4036 270.7 51.4303 270.7C52.8036 270.7 53.997 271 55.0103 271.6C56.0236 272.187 56.8103 273.02 57.3703 274.1C57.9303 275.18 58.2103 276.453 58.2103 277.92C58.2103 279.027 58.0503 280.027 57.7303 280.92C57.4103 281.813 56.9503 282.58 56.3503 283.22C55.7636 283.86 55.0503 284.353 54.2103 284.7C53.3836 285.033 52.457 285.2 51.4303 285.2ZM51.4303 283C52.297 283 53.0303 282.8 53.6303 282.4C54.2436 282 54.7103 281.42 55.0303 280.66C55.3636 279.9 55.5303 278.993 55.5303 277.94C55.5303 276.34 55.1703 275.1 54.4503 274.22C53.7436 273.34 52.737 272.9 51.4303 272.9C50.577 272.9 49.8436 273.1 49.2303 273.5C48.617 273.887 48.1436 274.46 47.8103 275.22C47.4903 275.967 47.3303 276.873 47.3303 277.94C47.3303 279.527 47.6903 280.767 48.4103 281.66C49.1303 282.553 50.137 283 51.4303 283ZM66.2134 285.2C65.3868 285.2 64.6601 284.993 64.0334 284.58C63.4201 284.167 63.0134 283.613 62.8134 282.92L63.0334 282.42V283.88C63.0334 284.293 62.9268 284.613 62.7134 284.84C62.5001 285.053 62.2001 285.16 61.8134 285.16C61.4134 285.16 61.1068 285.053 60.8934 284.84C60.6801 284.613 60.5734 284.293 60.5734 283.88V272C60.5734 271.587 60.6801 271.273 60.8934 271.06C61.1068 270.847 61.4134 270.74 61.8134 270.74C62.2134 270.74 62.5201 270.847 62.7334 271.06C62.9601 271.273 63.0734 271.587 63.0734 272V277.2H62.8334C63.0468 276.547 63.4601 276.02 64.0734 275.62C64.6868 275.22 65.4001 275.02 66.2134 275.02C67.0801 275.02 67.8334 275.227 68.4734 275.64C69.1134 276.053 69.6134 276.64 69.9734 277.4C70.3334 278.147 70.5134 279.047 70.5134 280.1C70.5134 281.14 70.3334 282.047 69.9734 282.82C69.6134 283.58 69.1068 284.167 68.4534 284.58C67.8134 284.993 67.0668 285.2 66.2134 285.2ZM65.5134 283.3C66.0068 283.3 66.4401 283.18 66.8134 282.94C67.1868 282.7 67.4734 282.347 67.6734 281.88C67.8868 281.4 67.9934 280.807 67.9934 280.1C67.9934 279.033 67.7668 278.24 67.3134 277.72C66.8601 277.187 66.2601 276.92 65.5134 276.92C65.0201 276.92 64.5868 277.04 64.2134 277.28C63.8401 277.507 63.5468 277.86 63.3334 278.34C63.1334 278.807 63.0334 279.393 63.0334 280.1C63.0334 281.153 63.2601 281.953 63.7134 282.5C64.1668 283.033 64.7668 283.3 65.5134 283.3ZM71.3656 288.78C71.0723 288.807 70.8323 288.76 70.6456 288.64C70.459 288.533 70.3323 288.393 70.2656 288.22C70.1856 288.047 70.159 287.867 70.1856 287.68C70.2123 287.493 70.2923 287.327 70.4256 287.18C70.5456 287.047 70.7123 286.973 70.9256 286.96C71.5256 286.907 71.959 286.733 72.2256 286.44C72.5056 286.16 72.6456 285.727 72.6456 285.14V276.32C72.6456 275.907 72.7523 275.593 72.9656 275.38C73.1923 275.167 73.5056 275.06 73.9056 275.06C74.3056 275.06 74.6123 275.167 74.8256 275.38C75.039 275.593 75.1456 275.907 75.1456 276.32V284.92C75.1456 285.773 75.0056 286.473 74.7256 287.02C74.459 287.567 74.0456 287.98 73.4856 288.26C72.939 288.54 72.2323 288.713 71.3656 288.78ZM73.8856 273.22C73.419 273.22 73.0523 273.107 72.7856 272.88C72.5323 272.64 72.4056 272.313 72.4056 271.9C72.4056 271.473 72.5323 271.147 72.7856 270.92C73.0523 270.693 73.419 270.58 73.8856 270.58C74.3656 270.58 74.7323 270.693 74.9856 270.92C75.239 271.147 75.3656 271.473 75.3656 271.9C75.3656 272.313 75.239 272.64 74.9856 272.88C74.7323 273.107 74.3656 273.22 73.8856 273.22ZM82.5614 285.2C81.4547 285.2 80.5014 284.993 79.7014 284.58C78.9014 284.167 78.2814 283.58 77.8414 282.82C77.4147 282.06 77.2014 281.16 77.2014 280.12C77.2014 279.107 77.4081 278.22 77.8214 277.46C78.2481 276.7 78.8281 276.107 79.5614 275.68C80.3081 275.24 81.1547 275.02 82.1014 275.02C82.7947 275.02 83.4147 275.133 83.9614 275.36C84.5214 275.587 84.9947 275.913 85.3814 276.34C85.7814 276.767 86.0814 277.287 86.2814 277.9C86.4947 278.5 86.6014 279.18 86.6014 279.94C86.6014 280.18 86.5147 280.367 86.3414 280.5C86.1814 280.62 85.9481 280.68 85.6414 280.68H79.2214V279.24H84.8414L84.5214 279.54C84.5214 278.927 84.4281 278.413 84.2414 278C84.0681 277.587 83.8081 277.273 83.4614 277.06C83.1281 276.833 82.7081 276.72 82.2014 276.72C81.6414 276.72 81.1614 276.853 80.7614 277.12C80.3747 277.373 80.0747 277.74 79.8614 278.22C79.6614 278.687 79.5614 279.247 79.5614 279.9V280.04C79.5614 281.133 79.8147 281.953 80.3214 282.5C80.8414 283.033 81.6014 283.3 82.6014 283.3C82.9481 283.3 83.3347 283.26 83.7614 283.18C84.2014 283.087 84.6147 282.933 85.0014 282.72C85.2814 282.56 85.5281 282.493 85.7414 282.52C85.9547 282.533 86.1214 282.607 86.2414 282.74C86.3747 282.873 86.4547 283.04 86.4814 283.24C86.5081 283.427 86.4681 283.62 86.3614 283.82C86.2681 284.02 86.1014 284.193 85.8614 284.34C85.3947 284.633 84.8547 284.853 84.2414 285C83.6414 285.133 83.0814 285.2 82.5614 285.2ZM93.1013 285.2C92.0746 285.2 91.1813 284.993 90.4213 284.58C89.6613 284.153 89.0746 283.553 88.6613 282.78C88.2479 282.007 88.0413 281.1 88.0413 280.06C88.0413 279.273 88.1546 278.573 88.3813 277.96C88.6213 277.333 88.9613 276.807 89.4013 276.38C89.8413 275.94 90.3746 275.607 91.0013 275.38C91.6279 275.14 92.3279 275.02 93.1013 275.02C93.5413 275.02 94.0146 275.08 94.5213 275.2C95.0413 275.32 95.5279 275.52 95.9813 275.8C96.1946 275.933 96.3346 276.093 96.4013 276.28C96.4679 276.467 96.4813 276.66 96.4413 276.86C96.4013 277.047 96.3146 277.213 96.1813 277.36C96.0613 277.493 95.9079 277.58 95.7213 277.62C95.5346 277.647 95.3279 277.6 95.1013 277.48C94.8079 277.307 94.5079 277.18 94.2013 277.1C93.8946 277.007 93.6013 276.96 93.3213 276.96C92.8813 276.96 92.4946 277.033 92.1613 277.18C91.8279 277.313 91.5413 277.513 91.3013 277.78C91.0746 278.033 90.9013 278.353 90.7813 278.74C90.6613 279.127 90.6013 279.573 90.6013 280.08C90.6013 281.067 90.8346 281.847 91.3013 282.42C91.7813 282.98 92.4546 283.26 93.3213 283.26C93.6013 283.26 93.8879 283.22 94.1813 283.14C94.4879 283.06 94.7946 282.933 95.1013 282.76C95.3279 282.64 95.5279 282.6 95.7013 282.64C95.8879 282.68 96.0413 282.773 96.1613 282.92C96.2813 283.053 96.3546 283.22 96.3813 283.42C96.4079 283.607 96.3813 283.793 96.3013 283.98C96.2346 284.167 96.1013 284.32 95.9013 284.44C95.4613 284.707 94.9946 284.9 94.5013 285.02C94.0079 285.14 93.5413 285.2 93.1013 285.2ZM102.534 285.2C101.667 285.2 100.941 285.053 100.354 284.76C99.7806 284.467 99.3539 284.04 99.0739 283.48C98.7939 282.907 98.6539 282.2 98.6539 281.36V277.1H97.6139C97.2939 277.1 97.0472 277.02 96.8739 276.86C96.7006 276.687 96.6139 276.453 96.6139 276.16C96.6139 275.853 96.7006 275.62 96.8739 275.46C97.0472 275.3 97.2939 275.22 97.6139 275.22H98.6539V273.4C98.6539 272.987 98.7606 272.673 98.9739 272.46C99.2006 272.247 99.5139 272.14 99.9139 272.14C100.314 272.14 100.621 272.247 100.834 272.46C101.047 272.673 101.154 272.987 101.154 273.4V275.22H103.274C103.594 275.22 103.841 275.3 104.014 275.46C104.187 275.62 104.274 275.853 104.274 276.16C104.274 276.453 104.187 276.687 104.014 276.86C103.841 277.02 103.594 277.1 103.274 277.1H101.154V281.22C101.154 281.86 101.294 282.34 101.574 282.66C101.854 282.98 102.307 283.14 102.934 283.14C103.161 283.14 103.361 283.12 103.534 283.08C103.707 283.04 103.861 283.013 103.994 283C104.154 282.987 104.287 283.04 104.394 283.16C104.501 283.267 104.554 283.493 104.554 283.84C104.554 284.107 104.507 284.347 104.414 284.56C104.334 284.76 104.181 284.9 103.954 284.98C103.781 285.033 103.554 285.08 103.274 285.12C102.994 285.173 102.747 285.2 102.534 285.2Z" fill="white"/>
<path d="M45.5 347.16C45.14 347.16 44.8467 347.073 44.62 346.9C44.4067 346.727 44.2333 346.453 44.1 346.08L39.92 334.26C39.7733 333.833 39.8 333.473 40 333.18C40.2133 332.887 40.5667 332.74 41.06 332.74C41.42 332.74 41.7 332.827 41.9 333C42.1 333.16 42.26 333.42 42.38 333.78L45.98 344.46H45.18L48.94 333.8C49.0733 333.44 49.24 333.173 49.44 333C49.64 332.827 49.9 332.74 50.22 332.74C50.54 332.74 50.7933 332.827 50.98 333C51.1667 333.173 51.3267 333.447 51.46 333.82L55.1 344.46H54.4L58.06 333.78C58.18 333.433 58.34 333.173 58.54 333C58.74 332.827 59.0133 332.74 59.36 332.74C59.7867 332.74 60.1 332.887 60.3 333.18C60.5 333.473 60.5267 333.833 60.38 334.26L56.16 346.1C56.0267 346.46 55.8533 346.727 55.64 346.9C55.4267 347.073 55.14 347.16 54.78 347.16C54.42 347.16 54.1333 347.073 53.92 346.9C53.7067 346.727 53.5333 346.453 53.4 346.08L49.92 336.16H50.38L46.86 346.1C46.7267 346.46 46.5533 346.727 46.34 346.9C46.14 347.073 45.86 347.16 45.5 347.16ZM66.1356 347.2C65.029 347.2 64.0756 346.993 63.2756 346.58C62.4756 346.167 61.8556 345.58 61.4156 344.82C60.989 344.06 60.7756 343.16 60.7756 342.12C60.7756 341.107 60.9823 340.22 61.3956 339.46C61.8223 338.7 62.4023 338.107 63.1356 337.68C63.8823 337.24 64.729 337.02 65.6756 337.02C66.369 337.02 66.989 337.133 67.5356 337.36C68.0956 337.587 68.569 337.913 68.9556 338.34C69.3556 338.767 69.6556 339.287 69.8556 339.9C70.069 340.5 70.1756 341.18 70.1756 341.94C70.1756 342.18 70.089 342.367 69.9156 342.5C69.7556 342.62 69.5223 342.68 69.2156 342.68H62.7956V341.24H68.4156L68.0956 341.54C68.0956 340.927 68.0023 340.413 67.8156 340C67.6423 339.587 67.3823 339.273 67.0356 339.06C66.7023 338.833 66.2823 338.72 65.7756 338.72C65.2156 338.72 64.7356 338.853 64.3356 339.12C63.949 339.373 63.649 339.74 63.4356 340.22C63.2356 340.687 63.1356 341.247 63.1356 341.9V342.04C63.1356 343.133 63.389 343.953 63.8956 344.5C64.4156 345.033 65.1756 345.3 66.1756 345.3C66.5223 345.3 66.909 345.26 67.3356 345.18C67.7756 345.087 68.189 344.933 68.5756 344.72C68.8556 344.56 69.1023 344.493 69.3156 344.52C69.529 344.533 69.6956 344.607 69.8156 344.74C69.949 344.873 70.029 345.04 70.0556 345.24C70.0823 345.427 70.0423 345.62 69.9356 345.82C69.8423 346.02 69.6756 346.193 69.4356 346.34C68.969 346.633 68.429 346.853 67.8156 347C67.2156 347.133 66.6556 347.2 66.1356 347.2ZM73.3955 347.14C72.9955 347.14 72.6888 347.02 72.4755 346.78C72.2621 346.54 72.1555 346.207 72.1555 345.78V338.44C72.1555 338 72.2621 337.667 72.4755 337.44C72.6888 337.2 72.9955 337.08 73.3955 337.08C73.7955 337.08 74.1021 337.2 74.3155 337.44C74.5421 337.667 74.6555 338 74.6555 338.44V345.78C74.6555 346.207 74.5488 346.54 74.3355 346.78C74.1221 347.02 73.8088 347.14 73.3955 347.14ZM73.3955 335.22C72.9288 335.22 72.5621 335.107 72.2955 334.88C72.0421 334.64 71.9155 334.313 71.9155 333.9C71.9155 333.473 72.0421 333.147 72.2955 332.92C72.5621 332.693 72.9288 332.58 73.3955 332.58C73.8755 332.58 74.2421 332.693 74.4955 332.92C74.7488 333.147 74.8755 333.473 74.8755 333.9C74.8755 334.313 74.7488 334.64 74.4955 334.88C74.2421 335.107 73.8755 335.22 73.3955 335.22ZM81.8131 350.8C81.0931 350.8 80.3931 350.733 79.7131 350.6C79.0465 350.467 78.4398 350.26 77.8931 349.98C77.6398 349.847 77.4665 349.687 77.3731 349.5C77.2931 349.313 77.2665 349.12 77.2931 348.92C77.3331 348.733 77.4131 348.567 77.5331 348.42C77.6665 348.273 77.8265 348.173 78.0131 348.12C78.1998 348.067 78.3931 348.093 78.5931 348.2C79.1798 348.493 79.7331 348.68 80.2531 348.76C80.7865 348.853 81.2398 348.9 81.6131 348.9C82.5065 348.9 83.1731 348.68 83.6131 348.24C84.0665 347.813 84.2931 347.173 84.2931 346.32V344.52H84.4731C84.2731 345.2 83.8531 345.747 83.2131 346.16C82.5865 346.56 81.8731 346.76 81.0731 346.76C80.1931 346.76 79.4265 346.56 78.7731 346.16C78.1198 345.747 77.6131 345.173 77.2531 344.44C76.8931 343.707 76.7131 342.853 76.7131 341.88C76.7131 341.147 76.8131 340.487 77.0131 339.9C77.2265 339.3 77.5198 338.787 77.8931 338.36C78.2798 337.933 78.7398 337.607 79.2731 337.38C79.8198 337.14 80.4198 337.02 81.0731 337.02C81.8998 337.02 82.6198 337.227 83.2331 337.64C83.8598 338.04 84.2665 338.573 84.4531 339.24L84.2531 339.74V338.32C84.2531 337.907 84.3598 337.593 84.5731 337.38C84.7998 337.167 85.1065 337.06 85.4931 337.06C85.8931 337.06 86.1998 337.167 86.4131 337.38C86.6265 337.593 86.7331 337.907 86.7331 338.32V346.02C86.7331 347.607 86.3131 348.8 85.4731 349.6C84.6331 350.4 83.4131 350.8 81.8131 350.8ZM81.7531 344.86C82.2731 344.86 82.7198 344.74 83.0931 344.5C83.4665 344.26 83.7531 343.92 83.9531 343.48C84.1665 343.027 84.2731 342.493 84.2731 341.88C84.2731 340.96 84.0465 340.24 83.5931 339.72C83.1398 339.187 82.5265 338.92 81.7531 338.92C81.2331 338.92 80.7865 339.04 80.4131 339.28C80.0398 339.52 79.7465 339.86 79.5331 340.3C79.3331 340.74 79.2331 341.267 79.2331 341.88C79.2331 342.8 79.4598 343.527 79.9131 344.06C80.3665 344.593 80.9798 344.86 81.7531 344.86ZM90.5634 347.16C90.1634 347.16 89.8568 347.053 89.6434 346.84C89.4301 346.613 89.3234 346.293 89.3234 345.88V334C89.3234 333.587 89.4301 333.273 89.6434 333.06C89.8568 332.847 90.1634 332.74 90.5634 332.74C90.9634 332.74 91.2701 332.847 91.4834 333.06C91.7101 333.273 91.8234 333.587 91.8234 334V339.18H91.5434C91.8368 338.473 92.2901 337.94 92.9034 337.58C93.5301 337.207 94.2368 337.02 95.0234 337.02C95.8101 337.02 96.4568 337.167 96.9634 337.46C97.4701 337.753 97.8501 338.2 98.1034 338.8C98.3568 339.387 98.4834 340.133 98.4834 341.04V345.88C98.4834 346.293 98.3768 346.613 98.1634 346.84C97.9501 347.053 97.6434 347.16 97.2434 347.16C96.8434 347.16 96.5301 347.053 96.3034 346.84C96.0901 346.613 95.9834 346.293 95.9834 345.88V341.16C95.9834 340.4 95.8368 339.847 95.5434 339.5C95.2634 339.153 94.8234 338.98 94.2234 338.98C93.4901 338.98 92.9034 339.213 92.4634 339.68C92.0368 340.133 91.8234 340.74 91.8234 341.5V345.88C91.8234 346.733 91.4034 347.16 90.5634 347.16ZM105.503 347.2C104.636 347.2 103.909 347.053 103.323 346.76C102.749 346.467 102.323 346.04 102.043 345.48C101.763 344.907 101.623 344.2 101.623 343.36V339.1H100.583C100.263 339.1 100.016 339.02 99.8427 338.86C99.6693 338.687 99.5827 338.453 99.5827 338.16C99.5827 337.853 99.6693 337.62 99.8427 337.46C100.016 337.3 100.263 337.22 100.583 337.22H101.623V335.4C101.623 334.987 101.729 334.673 101.943 334.46C102.169 334.247 102.483 334.14 102.883 334.14C103.283 334.14 103.589 334.247 103.803 334.46C104.016 334.673 104.123 334.987 104.123 335.4V337.22H106.243C106.563 337.22 106.809 337.3 106.983 337.46C107.156 337.62 107.243 337.853 107.243 338.16C107.243 338.453 107.156 338.687 106.983 338.86C106.809 339.02 106.563 339.1 106.243 339.1H104.123V343.22C104.123 343.86 104.263 344.34 104.543 344.66C104.823 344.98 105.276 345.14 105.903 345.14C106.129 345.14 106.329 345.12 106.503 345.08C106.676 345.04 106.829 345.013 106.963 345C107.123 344.987 107.256 345.04 107.363 345.16C107.469 345.267 107.523 345.493 107.523 345.84C107.523 346.107 107.476 346.347 107.383 346.56C107.303 346.76 107.149 346.9 106.923 346.98C106.749 347.033 106.523 347.08 106.243 347.12C105.963 347.173 105.716 347.2 105.503 347.2Z" fill="#444444"/>
<path d="M185.66 347C185.233 347 184.92 346.907 184.72 346.72C184.533 346.52 184.44 346.233 184.44 345.86C184.44 345.633 184.5 345.413 184.62 345.2C184.74 344.987 184.913 344.76 185.14 344.52L189.16 340.24C189.773 339.6 190.213 339.02 190.48 338.5C190.747 337.967 190.88 337.433 190.88 336.9C190.88 336.233 190.667 335.727 190.24 335.38C189.827 335.033 189.22 334.86 188.42 334.86C187.967 334.86 187.513 334.927 187.06 335.06C186.607 335.18 186.147 335.393 185.68 335.7C185.44 335.86 185.213 335.927 185 335.9C184.8 335.873 184.62 335.787 184.46 335.64C184.313 335.493 184.213 335.313 184.16 335.1C184.107 334.887 184.113 334.673 184.18 334.46C184.26 334.233 184.42 334.04 184.66 333.88C185.233 333.493 185.873 333.2 186.58 333C187.3 332.8 188.02 332.7 188.74 332.7C189.753 332.7 190.607 332.853 191.3 333.16C191.993 333.467 192.52 333.913 192.88 334.5C193.24 335.087 193.42 335.8 193.42 336.64C193.42 337.2 193.327 337.747 193.14 338.28C192.967 338.813 192.693 339.353 192.32 339.9C191.96 340.447 191.487 341.027 190.9 341.64L187.14 345.56V344.88H193.02C193.38 344.88 193.653 344.967 193.84 345.14C194.027 345.313 194.12 345.573 194.12 345.92C194.12 346.267 194.027 346.533 193.84 346.72C193.653 346.907 193.38 347 193.02 347H185.66ZM200.992 347.2C199.326 347.2 198.052 346.573 197.172 345.32C196.292 344.053 195.852 342.253 195.852 339.92C195.852 338.347 196.046 337.027 196.432 335.96C196.832 334.88 197.412 334.067 198.172 333.52C198.946 332.973 199.886 332.7 200.992 332.7C202.672 332.7 203.946 333.313 204.812 334.54C205.692 335.767 206.132 337.553 206.132 339.9C206.132 341.46 205.932 342.787 205.532 343.88C205.146 344.96 204.572 345.787 203.812 346.36C203.052 346.92 202.112 347.2 200.992 347.2ZM200.992 345.1C201.899 345.1 202.566 344.68 202.992 343.84C203.432 343 203.652 341.687 203.652 339.9C203.652 338.113 203.432 336.82 202.992 336.02C202.566 335.207 201.899 334.8 200.992 334.8C200.099 334.8 199.432 335.207 198.992 336.02C198.552 336.82 198.332 338.113 198.332 339.9C198.332 341.687 198.552 343 198.992 343.84C199.432 344.68 200.099 345.1 200.992 345.1Z" fill="#444444"/>
<path d="M197.264 409.16C196.864 409.16 196.551 409.053 196.324 408.84C196.097 408.613 195.984 408.293 195.984 407.88V406.32H191.044C190.631 406.32 190.297 406.233 190.044 406.06C189.804 405.887 189.684 405.613 189.684 405.24C189.684 405.027 189.737 404.793 189.844 404.54C189.964 404.287 190.171 403.953 190.464 403.54L195.944 395.6C196.131 395.32 196.337 395.107 196.564 394.96C196.791 394.813 197.051 394.74 197.344 394.74C197.691 394.74 197.977 394.847 198.204 395.06C198.431 395.26 198.544 395.58 198.544 396.02V404.2H199.524C199.911 404.2 200.197 404.293 200.384 404.48C200.584 404.653 200.684 404.913 200.684 405.26C200.684 405.607 200.584 405.873 200.384 406.06C200.197 406.233 199.911 406.32 199.524 406.32H198.544V407.88C198.544 408.293 198.431 408.613 198.204 408.84C197.977 409.053 197.664 409.16 197.264 409.16ZM195.984 404.2V397.96H196.564L191.844 404.88V404.2H195.984Z" fill="#444444"/>
<path d="M325.124 409C324.777 409 324.504 408.907 324.304 408.72C324.117 408.52 324.024 408.253 324.024 407.92C324.024 407.573 324.117 407.313 324.304 407.14C324.504 406.967 324.777 406.88 325.124 406.88H327.364V397.06H328.604L325.664 398.84C325.411 398.987 325.171 399.047 324.944 399.02C324.731 398.98 324.544 398.887 324.384 398.74C324.237 398.58 324.137 398.393 324.084 398.18C324.031 397.967 324.044 397.753 324.124 397.54C324.217 397.313 324.391 397.127 324.644 396.98L327.404 395.32C327.671 395.16 327.937 395.027 328.204 394.92C328.471 394.8 328.717 394.74 328.944 394.74C329.224 394.74 329.457 394.82 329.644 394.98C329.831 395.127 329.924 395.373 329.924 395.72V406.88H331.964C332.311 406.88 332.577 406.967 332.764 407.14C332.964 407.313 333.064 407.573 333.064 407.92C333.064 408.267 332.964 408.533 332.764 408.72C332.577 408.907 332.311 409 331.964 409H325.124Z" fill="#444444"/>
<path d="M460.724 409.2C460.004 409.2 459.257 409.107 458.484 408.92C457.711 408.733 457.037 408.453 456.464 408.08C456.197 407.907 456.017 407.707 455.924 407.48C455.831 407.253 455.804 407.04 455.844 406.84C455.897 406.627 455.997 406.447 456.144 406.3C456.304 406.153 456.497 406.067 456.724 406.04C456.964 406.013 457.224 406.073 457.504 406.22C458.051 406.513 458.577 406.727 459.084 406.86C459.591 406.98 460.111 407.04 460.644 407.04C461.231 407.04 461.724 406.96 462.124 406.8C462.524 406.64 462.824 406.4 463.024 406.08C463.237 405.76 463.344 405.373 463.344 404.92C463.344 404.253 463.117 403.76 462.664 403.44C462.224 403.107 461.577 402.94 460.724 402.94H459.444C459.071 402.94 458.784 402.847 458.584 402.66C458.397 402.473 458.304 402.213 458.304 401.88C458.304 401.547 458.397 401.287 458.584 401.1C458.784 400.913 459.071 400.82 459.444 400.82H460.484C460.991 400.82 461.424 400.74 461.784 400.58C462.144 400.407 462.424 400.167 462.624 399.86C462.824 399.553 462.924 399.18 462.924 398.74C462.924 398.127 462.717 397.66 462.304 397.34C461.904 397.02 461.317 396.86 460.544 396.86C460.051 396.86 459.584 396.92 459.144 397.04C458.717 397.147 458.244 397.353 457.724 397.66C457.484 397.807 457.251 397.867 457.024 397.84C456.811 397.813 456.631 397.727 456.484 397.58C456.337 397.433 456.237 397.26 456.184 397.06C456.131 396.847 456.144 396.633 456.224 396.42C456.304 396.193 456.471 396 456.724 395.84C457.297 395.467 457.931 395.187 458.624 395C459.317 394.8 460.031 394.7 460.764 394.7C461.737 394.7 462.571 394.853 463.264 395.16C463.957 395.453 464.484 395.88 464.844 396.44C465.217 396.987 465.404 397.653 465.404 398.44C465.404 399 465.297 399.513 465.084 399.98C464.871 400.433 464.571 400.82 464.184 401.14C463.797 401.46 463.331 401.687 462.784 401.82V401.58C463.744 401.74 464.491 402.14 465.024 402.78C465.557 403.407 465.824 404.193 465.824 405.14C465.824 405.967 465.617 406.687 465.204 407.3C464.791 407.913 464.204 408.387 463.444 408.72C462.684 409.04 461.777 409.2 460.724 409.2Z" fill="#444444"/>
<path d="M584.668 409C584.241 409 583.928 408.907 583.728 408.72C583.541 408.52 583.448 408.233 583.448 407.86C583.448 407.633 583.508 407.413 583.628 407.2C583.748 406.987 583.921 406.76 584.148 406.52L588.168 402.24C588.781 401.6 589.221 401.02 589.488 400.5C589.754 399.967 589.888 399.433 589.888 398.9C589.888 398.233 589.674 397.727 589.248 397.38C588.834 397.033 588.228 396.86 587.428 396.86C586.974 396.86 586.521 396.927 586.068 397.06C585.614 397.18 585.154 397.393 584.688 397.7C584.448 397.86 584.221 397.927 584.008 397.9C583.808 397.873 583.628 397.787 583.468 397.64C583.321 397.493 583.221 397.313 583.168 397.1C583.114 396.887 583.121 396.673 583.188 396.46C583.268 396.233 583.428 396.04 583.668 395.88C584.241 395.493 584.881 395.2 585.588 395C586.308 394.8 587.028 394.7 587.748 394.7C588.761 394.7 589.614 394.853 590.308 395.16C591.001 395.467 591.528 395.913 591.888 396.5C592.248 397.087 592.428 397.8 592.428 398.64C592.428 399.2 592.334 399.747 592.148 400.28C591.974 400.813 591.701 401.353 591.328 401.9C590.968 402.447 590.494 403.027 589.908 403.64L586.148 407.56V406.88H592.028C592.388 406.88 592.661 406.967 592.848 407.14C593.034 407.313 593.128 407.573 593.128 407.92C593.128 408.267 593.034 408.533 592.848 408.72C592.661 408.907 592.388 409 592.028 409H584.668ZM602.26 409.16C601.86 409.16 601.547 409.053 601.32 408.84C601.093 408.613 600.98 408.293 600.98 407.88V406.32H596.04C595.627 406.32 595.293 406.233 595.04 406.06C594.8 405.887 594.68 405.613 594.68 405.24C594.68 405.027 594.733 404.793 594.84 404.54C594.96 404.287 595.167 403.953 595.46 403.54L600.94 395.6C601.127 395.32 601.333 395.107 601.56 394.96C601.787 394.813 602.047 394.74 602.34 394.74C602.687 394.74 602.973 394.847 603.2 395.06C603.427 395.26 603.54 395.58 603.54 396.02V404.2H604.52C604.907 404.2 605.193 404.293 605.38 404.48C605.58 404.653 605.68 404.913 605.68 405.26C605.68 405.607 605.58 405.873 605.38 406.06C605.193 406.233 604.907 406.32 604.52 406.32H603.54V407.88C603.54 408.293 603.427 408.613 603.2 408.84C602.973 409.053 602.66 409.16 602.26 409.16ZM600.98 404.2V397.96H601.56L596.84 404.88V404.2H600.98Z" fill="#444444"/>
<path d="M28.7848 409C28.3448 409 28.0048 408.887 27.7648 408.66C27.5381 408.42 27.4248 408.08 27.4248 407.64V396.26C27.4248 395.82 27.5381 395.487 27.7648 395.26C28.0048 395.02 28.3448 394.9 28.7848 394.9H33.5848C34.5714 394.9 35.4114 395.047 36.1048 395.34C36.7981 395.633 37.3248 396.053 37.6848 396.6C38.0581 397.147 38.2448 397.8 38.2448 398.56C38.2448 399.413 37.9981 400.133 37.5048 400.72C37.0114 401.307 36.3381 401.7 35.4848 401.9V401.6C36.4714 401.747 37.2381 402.12 37.7848 402.72C38.3314 403.32 38.6048 404.1 38.6048 405.06C38.6048 406.313 38.1781 407.287 37.3248 407.98C36.4848 408.66 35.3114 409 33.8048 409H28.7848ZM29.8848 407.06H33.4848C34.3914 407.06 35.0581 406.887 35.4848 406.54C35.9114 406.18 36.1248 405.647 36.1248 404.94C36.1248 404.22 35.9114 403.687 35.4848 403.34C35.0581 402.993 34.3914 402.82 33.4848 402.82H29.8848V407.06ZM29.8848 400.88H33.1448C34.0248 400.88 34.6781 400.713 35.1048 400.38C35.5448 400.033 35.7648 399.527 35.7648 398.86C35.7648 398.193 35.5448 397.693 35.1048 397.36C34.6781 397.013 34.0248 396.84 33.1448 396.84H29.8848V400.88ZM44.1743 409.2C43.4676 409.2 42.8343 409.067 42.2743 408.8C41.7276 408.52 41.2943 408.147 40.9743 407.68C40.6676 407.213 40.5143 406.687 40.5143 406.1C40.5143 405.38 40.701 404.813 41.0743 404.4C41.4476 403.973 42.0543 403.667 42.8943 403.48C43.7343 403.293 44.861 403.2 46.2743 403.2H47.2743V404.64H46.2943C45.4676 404.64 44.8076 404.68 44.3143 404.76C43.821 404.84 43.4676 404.98 43.2543 405.18C43.0543 405.367 42.9543 405.633 42.9543 405.98C42.9543 406.42 43.1076 406.78 43.4143 407.06C43.721 407.34 44.1476 407.48 44.6943 407.48C45.1343 407.48 45.521 407.38 45.8543 407.18C46.201 406.967 46.4743 406.68 46.6743 406.32C46.8743 405.96 46.9743 405.547 46.9743 405.08V402.78C46.9743 402.113 46.8276 401.633 46.5343 401.34C46.241 401.047 45.7476 400.9 45.0543 400.9C44.6676 400.9 44.2476 400.947 43.7943 401.04C43.3543 401.133 42.8876 401.293 42.3943 401.52C42.141 401.64 41.9143 401.673 41.7143 401.62C41.5276 401.567 41.381 401.46 41.2743 401.3C41.1676 401.127 41.1143 400.94 41.1143 400.74C41.1143 400.54 41.1676 400.347 41.2743 400.16C41.381 399.96 41.561 399.813 41.8143 399.72C42.4276 399.467 43.0143 399.287 43.5743 399.18C44.1476 399.073 44.6676 399.02 45.1343 399.02C46.0943 399.02 46.881 399.167 47.4943 399.46C48.121 399.753 48.5876 400.2 48.8943 400.8C49.201 401.387 49.3543 402.147 49.3543 403.08V407.88C49.3543 408.293 49.2543 408.613 49.0543 408.84C48.8543 409.053 48.5676 409.16 48.1943 409.16C47.821 409.16 47.5276 409.053 47.3143 408.84C47.1143 408.613 47.0143 408.293 47.0143 407.88V406.92H47.1743C47.081 407.387 46.8943 407.793 46.6143 408.14C46.3476 408.473 46.0076 408.733 45.5943 408.92C45.181 409.107 44.7076 409.2 44.1743 409.2ZM55.2318 409.2C54.1251 409.2 53.2918 408.887 52.7318 408.26C52.1718 407.62 51.8918 406.687 51.8918 405.46V396C51.8918 395.587 51.9985 395.273 52.2118 395.06C52.4251 394.847 52.7318 394.74 53.1318 394.74C53.5318 394.74 53.8385 394.847 54.0518 395.06C54.2785 395.273 54.3918 395.587 54.3918 396V405.34C54.3918 405.953 54.5185 406.407 54.7718 406.7C55.0385 406.993 55.4118 407.14 55.8918 407.14C55.9985 407.14 56.0985 407.14 56.1918 407.14C56.2851 407.127 56.3785 407.113 56.4718 407.1C56.6585 407.073 56.7851 407.127 56.8518 407.26C56.9185 407.38 56.9518 407.633 56.9518 408.02C56.9518 408.353 56.8851 408.613 56.7518 408.8C56.6185 408.987 56.3985 409.1 56.0918 409.14C55.9585 409.153 55.8185 409.167 55.6718 409.18C55.5251 409.193 55.3785 409.2 55.2318 409.2ZM61.6185 409.2C60.5118 409.2 59.6785 408.887 59.1185 408.26C58.5585 407.62 58.2785 406.687 58.2785 405.46V396C58.2785 395.587 58.3852 395.273 58.5985 395.06C58.8118 394.847 59.1185 394.74 59.5185 394.74C59.9185 394.74 60.2252 394.847 60.4385 395.06C60.6652 395.273 60.7785 395.587 60.7785 396V405.34C60.7785 405.953 60.9052 406.407 61.1585 406.7C61.4252 406.993 61.7985 407.14 62.2785 407.14C62.3852 407.14 62.4852 407.14 62.5785 407.14C62.6718 407.127 62.7652 407.113 62.8585 407.1C63.0452 407.073 63.1718 407.127 63.2385 407.26C63.3052 407.38 63.3385 407.633 63.3385 408.02C63.3385 408.353 63.2718 408.613 63.1385 408.8C63.0052 408.987 62.7852 409.1 62.4785 409.14C62.3452 409.153 62.2052 409.167 62.0585 409.18C61.9118 409.193 61.7652 409.2 61.6185 409.2ZM69.0276 409.2C68.0142 409.2 67.1342 408.993 66.3876 408.58C65.6409 408.167 65.0609 407.58 64.6476 406.82C64.2342 406.047 64.0276 405.14 64.0276 404.1C64.0276 403.313 64.1409 402.613 64.3676 402C64.6076 401.373 64.9476 400.84 65.3876 400.4C65.8276 399.947 66.3542 399.607 66.9676 399.38C67.5809 399.14 68.2676 399.02 69.0276 399.02C70.0409 399.02 70.9209 399.227 71.6676 399.64C72.4142 400.053 72.9942 400.64 73.4076 401.4C73.8209 402.16 74.0276 403.06 74.0276 404.1C74.0276 404.887 73.9076 405.593 73.6676 406.22C73.4409 406.847 73.1076 407.387 72.6676 407.84C72.2276 408.28 71.7009 408.62 71.0876 408.86C70.4742 409.087 69.7876 409.2 69.0276 409.2ZM69.0276 407.3C69.5209 407.3 69.9542 407.18 70.3276 406.94C70.7009 406.7 70.9876 406.347 71.1876 405.88C71.4009 405.4 71.5076 404.807 71.5076 404.1C71.5076 403.033 71.2809 402.24 70.8276 401.72C70.3742 401.187 69.7742 400.92 69.0276 400.92C68.5342 400.92 68.1009 401.04 67.7276 401.28C67.3542 401.507 67.0609 401.86 66.8476 402.34C66.6476 402.807 66.5476 403.393 66.5476 404.1C66.5476 405.153 66.7742 405.953 67.2276 406.5C67.6809 407.033 68.2809 407.3 69.0276 407.3ZM80.551 409.2C79.5377 409.2 78.6577 408.993 77.911 408.58C77.1643 408.167 76.5843 407.58 76.171 406.82C75.7577 406.047 75.551 405.14 75.551 404.1C75.551 403.313 75.6643 402.613 75.891 402C76.131 401.373 76.471 400.84 76.911 400.4C77.351 399.947 77.8777 399.607 78.491 399.38C79.1043 399.14 79.791 399.02 80.551 399.02C81.5643 399.02 82.4443 399.227 83.191 399.64C83.9377 400.053 84.5177 400.64 84.931 401.4C85.3443 402.16 85.551 403.06 85.551 404.1C85.551 404.887 85.431 405.593 85.191 406.22C84.9643 406.847 84.631 407.387 84.191 407.84C83.751 408.28 83.2243 408.62 82.611 408.86C81.9977 409.087 81.311 409.2 80.551 409.2ZM80.551 407.3C81.0443 407.3 81.4777 407.18 81.851 406.94C82.2243 406.7 82.511 406.347 82.711 405.88C82.9243 405.4 83.031 404.807 83.031 404.1C83.031 403.033 82.8043 402.24 82.351 401.72C81.8977 401.187 81.2977 400.92 80.551 400.92C80.0577 400.92 79.6243 401.04 79.251 401.28C78.8777 401.507 78.5843 401.86 78.371 402.34C78.171 402.807 78.071 403.393 78.071 404.1C78.071 405.153 78.2977 405.953 78.751 406.5C79.2043 407.033 79.8043 407.3 80.551 407.3ZM88.8545 409.16C88.4545 409.16 88.1478 409.053 87.9345 408.84C87.7211 408.613 87.6145 408.293 87.6145 407.88V400.32C87.6145 399.907 87.7211 399.593 87.9345 399.38C88.1478 399.167 88.4478 399.06 88.8345 399.06C89.2211 399.06 89.5211 399.167 89.7345 399.38C89.9478 399.593 90.0545 399.907 90.0545 400.32V401.68L89.8345 401.18C90.1278 400.473 90.5811 399.94 91.1945 399.58C91.8211 399.207 92.5278 399.02 93.3145 399.02C94.1011 399.02 94.7478 399.167 95.2545 399.46C95.7611 399.753 96.1411 400.2 96.3945 400.8C96.6478 401.387 96.7745 402.133 96.7745 403.04V407.88C96.7745 408.293 96.6678 408.613 96.4545 408.84C96.2411 409.053 95.9345 409.16 95.5345 409.16C95.1345 409.16 94.8211 409.053 94.5945 408.84C94.3811 408.613 94.2745 408.293 94.2745 407.88V403.16C94.2745 402.4 94.1278 401.847 93.8345 401.5C93.5545 401.153 93.1145 400.98 92.5145 400.98C91.7811 400.98 91.1945 401.213 90.7545 401.68C90.3278 402.133 90.1145 402.74 90.1145 403.5V407.88C90.1145 408.733 89.6945 409.16 88.8545 409.16ZM102.354 412.26C101.527 410.953 100.927 409.58 100.554 408.14C100.194 406.687 100.014 405.22 100.014 403.74C100.014 402.753 100.094 401.773 100.254 400.8C100.414 399.827 100.667 398.873 101.014 397.94C101.36 396.993 101.807 396.087 102.354 395.22C102.5 394.98 102.694 394.833 102.934 394.78C103.187 394.713 103.42 394.727 103.634 394.82C103.86 394.913 104.027 395.087 104.134 395.34C104.24 395.58 104.227 395.887 104.094 396.26C103.774 397.113 103.507 397.953 103.294 398.78C103.094 399.593 102.94 400.407 102.834 401.22C102.74 402.033 102.694 402.873 102.694 403.74C102.694 404.607 102.747 405.447 102.854 406.26C102.96 407.073 103.12 407.887 103.334 408.7C103.547 409.513 103.8 410.353 104.094 411.22C104.227 411.593 104.24 411.9 104.134 412.14C104.027 412.393 103.86 412.567 103.634 412.66C103.42 412.753 103.187 412.767 102.934 412.7C102.694 412.647 102.5 412.5 102.354 412.26ZM110.062 409.2C109.488 409.2 108.882 409.14 108.242 409.02C107.602 408.9 107.028 408.693 106.522 408.4C106.308 408.267 106.155 408.113 106.062 407.94C105.982 407.753 105.948 407.573 105.962 407.4C105.988 407.213 106.055 407.053 106.162 406.92C106.282 406.787 106.428 406.7 106.602 406.66C106.788 406.62 106.988 406.653 107.202 406.76C107.735 407.013 108.235 407.193 108.702 407.3C109.168 407.393 109.628 407.44 110.082 407.44C110.722 407.44 111.195 407.333 111.502 407.12C111.822 406.893 111.982 406.6 111.982 406.24C111.982 405.933 111.875 405.7 111.662 405.54C111.462 405.367 111.155 405.24 110.742 405.16L108.742 404.78C107.915 404.62 107.282 404.32 106.842 403.88C106.415 403.427 106.202 402.847 106.202 402.14C106.202 401.5 106.375 400.947 106.722 400.48C107.082 400.013 107.575 399.653 108.202 399.4C108.828 399.147 109.548 399.02 110.362 399.02C110.948 399.02 111.495 399.087 112.002 399.22C112.522 399.34 113.022 399.533 113.502 399.8C113.702 399.907 113.835 400.047 113.902 400.22C113.982 400.393 114.002 400.573 113.962 400.76C113.922 400.933 113.842 401.093 113.722 401.24C113.602 401.373 113.448 401.46 113.262 401.5C113.088 401.527 112.888 401.487 112.662 401.38C112.248 401.167 111.848 401.013 111.462 400.92C111.088 400.827 110.728 400.78 110.382 400.78C109.728 400.78 109.242 400.893 108.922 401.12C108.615 401.347 108.462 401.647 108.462 402.02C108.462 402.3 108.555 402.533 108.742 402.72C108.928 402.907 109.215 403.033 109.602 403.1L111.602 403.48C112.468 403.64 113.122 403.933 113.562 404.36C114.015 404.787 114.242 405.36 114.242 406.08C114.242 407.053 113.862 407.82 113.102 408.38C112.342 408.927 111.328 409.2 110.062 409.2ZM117.767 412.26C117.621 412.5 117.421 412.647 117.167 412.7C116.927 412.767 116.694 412.747 116.467 412.64C116.241 412.547 116.074 412.38 115.967 412.14C115.874 411.9 115.894 411.593 116.027 411.22C116.361 410.353 116.627 409.513 116.827 408.7C117.027 407.887 117.174 407.073 117.267 406.26C117.374 405.447 117.427 404.607 117.427 403.74C117.427 402.873 117.374 402.033 117.267 401.22C117.161 400.407 117.001 399.593 116.787 398.78C116.587 397.967 116.334 397.127 116.027 396.26C115.894 395.887 115.881 395.58 115.987 395.34C116.094 395.087 116.261 394.913 116.487 394.82C116.714 394.727 116.947 394.713 117.187 394.78C117.427 394.833 117.621 394.98 117.767 395.22C118.581 396.513 119.174 397.887 119.547 399.34C119.921 400.793 120.107 402.26 120.107 403.74C120.107 404.727 120.021 405.707 119.847 406.68C119.687 407.653 119.434 408.607 119.087 409.54C118.754 410.487 118.314 411.393 117.767 412.26Z" fill="#444444"/>
<line x1="128.5" y1="255" x2="128.5" y2="425" stroke="#1A1A1A"/>
<line x1="20" y1="298.5" x2="660" y2="298.5" stroke="#1A1A1A"/>
<line x1="20" y1="380.5" x2="660" y2="380.5" stroke="#1A1A1A"/>
<line x1="261.5" y1="255" x2="261.5" y2="425" stroke="#1A1A1A"/>
<line x1="394.5" y1="255" x2="394.5" y2="425" stroke="#1A1A1A"/>
<line x1="527.5" y1="255" x2="527.5" y2="425" stroke="#1A1A1A"/>
<rect x="20.5" y="254.5" width="639" height="171" rx="9.5" stroke="#1A1A1A"/>
</g>
<defs>
<clipPath id="clip0_404_413">
<rect width="680" height="680" fill="white"/>
</clipPath>
</defs>
</svg>
