<svg width="398" height="172" viewBox="0 0 398 172" fill="none" xmlns="http://www.w3.org/2000/svg">
<rect x="0.5" y="0.5" width="397" height="171" rx="9.5" fill="white"/>
<path d="M1 10C1 5.02944 5.02944 1 10 1H388C392.971 1 397 5.02944 397 10V42H1V10Z" fill="#2AD3F5"/>
<path d="M151.873 31.2C151.286 31.2 150.699 31.1533 150.113 31.06C149.526 30.98 148.973 30.8533 148.453 30.68C147.933 30.4933 147.466 30.2667 147.053 30C146.813 29.84 146.646 29.6467 146.553 29.42C146.459 29.1933 146.426 28.9733 146.453 28.76C146.493 28.5333 146.579 28.34 146.713 28.18C146.859 28.0067 147.039 27.9 147.253 27.86C147.466 27.82 147.699 27.88 147.953 28.04C148.539 28.3867 149.159 28.64 149.813 28.8C150.466 28.96 151.153 29.04 151.873 29.04C152.926 29.04 153.693 28.8667 154.173 28.52C154.653 28.16 154.893 27.7 154.893 27.14C154.893 26.6733 154.719 26.3067 154.373 26.04C154.039 25.7733 153.459 25.5533 152.633 25.38L150.433 24.92C149.166 24.6533 148.219 24.2067 147.593 23.58C146.979 22.94 146.673 22.1 146.673 21.06C146.673 20.4067 146.806 19.8133 147.073 19.28C147.339 18.7467 147.713 18.2867 148.193 17.9C148.686 17.5133 149.266 17.22 149.933 17.02C150.613 16.8067 151.359 16.7 152.173 16.7C152.973 16.7 153.733 16.8 154.453 17C155.173 17.2 155.819 17.4933 156.393 17.88C156.606 18.0267 156.746 18.2067 156.813 18.42C156.893 18.6333 156.913 18.8467 156.873 19.06C156.833 19.26 156.739 19.4333 156.593 19.58C156.446 19.7267 156.259 19.8133 156.033 19.84C155.819 19.8667 155.573 19.8 155.293 19.64C154.799 19.36 154.299 19.16 153.793 19.04C153.286 18.92 152.739 18.86 152.153 18.86C151.539 18.86 151.013 18.9467 150.573 19.12C150.133 19.2933 149.793 19.54 149.553 19.86C149.326 20.1667 149.213 20.5333 149.213 20.96C149.213 21.44 149.373 21.8267 149.693 22.12C150.013 22.4 150.559 22.62 151.333 22.78L153.513 23.24C154.833 23.52 155.813 23.96 156.453 24.56C157.106 25.16 157.433 25.96 157.433 26.96C157.433 27.6 157.299 28.18 157.033 28.7C156.779 29.22 156.406 29.6667 155.913 30.04C155.433 30.4133 154.853 30.7 154.173 30.9C153.493 31.1 152.726 31.2 151.873 31.2ZM163.91 31.2C162.883 31.2 161.99 30.9933 161.23 30.58C160.47 30.1533 159.883 29.5533 159.47 28.78C159.057 28.0067 158.85 27.1 158.85 26.06C158.85 25.2733 158.963 24.5733 159.19 23.96C159.43 23.3333 159.77 22.8067 160.21 22.38C160.65 21.94 161.183 21.6067 161.81 21.38C162.437 21.14 163.137 21.02 163.91 21.02C164.35 21.02 164.823 21.08 165.33 21.2C165.85 21.32 166.337 21.52 166.79 21.8C167.003 21.9333 167.143 22.0933 167.21 22.28C167.277 22.4667 167.29 22.66 167.25 22.86C167.21 23.0467 167.123 23.2133 166.99 23.36C166.87 23.4933 166.717 23.58 166.53 23.62C166.343 23.6467 166.137 23.6 165.91 23.48C165.617 23.3067 165.317 23.18 165.01 23.1C164.703 23.0067 164.41 22.96 164.13 22.96C163.69 22.96 163.303 23.0333 162.97 23.18C162.637 23.3133 162.35 23.5133 162.11 23.78C161.883 24.0333 161.71 24.3533 161.59 24.74C161.47 25.1267 161.41 25.5733 161.41 26.08C161.41 27.0667 161.643 27.8467 162.11 28.42C162.59 28.98 163.263 29.26 164.13 29.26C164.41 29.26 164.697 29.22 164.99 29.14C165.297 29.06 165.603 28.9333 165.91 28.76C166.137 28.64 166.337 28.6 166.51 28.64C166.697 28.68 166.85 28.7733 166.97 28.92C167.09 29.0533 167.163 29.22 167.19 29.42C167.217 29.6067 167.19 29.7933 167.11 29.98C167.043 30.1667 166.91 30.32 166.71 30.44C166.27 30.7067 165.803 30.9 165.31 31.02C164.817 31.14 164.35 31.2 163.91 31.2ZM173.088 31.2C172.075 31.2 171.195 30.9933 170.448 30.58C169.701 30.1667 169.121 29.58 168.708 28.82C168.295 28.0467 168.088 27.14 168.088 26.1C168.088 25.3133 168.201 24.6133 168.428 24C168.668 23.3733 169.008 22.84 169.448 22.4C169.888 21.9467 170.415 21.6067 171.028 21.38C171.641 21.14 172.328 21.02 173.088 21.02C174.101 21.02 174.981 21.2267 175.728 21.64C176.475 22.0533 177.055 22.64 177.468 23.4C177.881 24.16 178.088 25.06 178.088 26.1C178.088 26.8867 177.968 27.5933 177.728 28.22C177.501 28.8467 177.168 29.3867 176.728 29.84C176.288 30.28 175.761 30.62 175.148 30.86C174.535 31.0867 173.848 31.2 173.088 31.2ZM173.088 29.3C173.581 29.3 174.015 29.18 174.388 28.94C174.761 28.7 175.048 28.3467 175.248 27.88C175.461 27.4 175.568 26.8067 175.568 26.1C175.568 25.0333 175.341 24.24 174.888 23.72C174.435 23.1867 173.835 22.92 173.088 22.92C172.595 22.92 172.161 23.04 171.788 23.28C171.415 23.5067 171.121 23.86 170.908 24.34C170.708 24.8067 170.608 25.3933 170.608 26.1C170.608 27.1533 170.835 27.9533 171.288 28.5C171.741 29.0333 172.341 29.3 173.088 29.3ZM184.612 31.2C183.598 31.2 182.718 30.9933 181.972 30.58C181.225 30.1667 180.645 29.58 180.232 28.82C179.818 28.0467 179.612 27.14 179.612 26.1C179.612 25.3133 179.725 24.6133 179.952 24C180.192 23.3733 180.532 22.84 180.972 22.4C181.412 21.9467 181.938 21.6067 182.552 21.38C183.165 21.14 183.852 21.02 184.612 21.02C185.625 21.02 186.505 21.2267 187.252 21.64C187.998 22.0533 188.578 22.64 188.992 23.4C189.405 24.16 189.612 25.06 189.612 26.1C189.612 26.8867 189.492 27.5933 189.252 28.22C189.025 28.8467 188.692 29.3867 188.252 29.84C187.812 30.28 187.285 30.62 186.672 30.86C186.058 31.0867 185.372 31.2 184.612 31.2ZM184.612 29.3C185.105 29.3 185.538 29.18 185.912 28.94C186.285 28.7 186.572 28.3467 186.772 27.88C186.985 27.4 187.092 26.8067 187.092 26.1C187.092 25.0333 186.865 24.24 186.412 23.72C185.958 23.1867 185.358 22.92 184.612 22.92C184.118 22.92 183.685 23.04 183.312 23.28C182.938 23.5067 182.645 23.86 182.432 24.34C182.232 24.8067 182.132 25.3933 182.132 26.1C182.132 27.1533 182.358 27.9533 182.812 28.5C183.265 29.0333 183.865 29.3 184.612 29.3ZM196.057 31.2C195.191 31.2 194.464 31.0533 193.877 30.76C193.304 30.4667 192.877 30.04 192.597 29.48C192.317 28.9067 192.177 28.2 192.177 27.36V23.1H191.137C190.817 23.1 190.571 23.02 190.397 22.86C190.224 22.6867 190.137 22.4533 190.137 22.16C190.137 21.8533 190.224 21.62 190.397 21.46C190.571 21.3 190.817 21.22 191.137 21.22H192.177V19.4C192.177 18.9867 192.284 18.6733 192.497 18.46C192.724 18.2467 193.037 18.14 193.437 18.14C193.837 18.14 194.144 18.2467 194.357 18.46C194.571 18.6733 194.677 18.9867 194.677 19.4V21.22H196.797C197.117 21.22 197.364 21.3 197.537 21.46C197.711 21.62 197.797 21.8533 197.797 22.16C197.797 22.4533 197.711 22.6867 197.537 22.86C197.364 23.02 197.117 23.1 196.797 23.1H194.677V27.22C194.677 27.86 194.817 28.34 195.097 28.66C195.377 28.98 195.831 29.14 196.457 29.14C196.684 29.14 196.884 29.12 197.057 29.08C197.231 29.04 197.384 29.0133 197.517 29C197.677 28.9867 197.811 29.04 197.917 29.16C198.024 29.2667 198.077 29.4933 198.077 29.84C198.077 30.1067 198.031 30.3467 197.937 30.56C197.857 30.76 197.704 30.9 197.477 30.98C197.304 31.0333 197.077 31.08 196.797 31.12C196.517 31.1733 196.271 31.2 196.057 31.2ZM203.975 31.2C202.869 31.2 201.915 30.9933 201.115 30.58C200.315 30.1667 199.695 29.58 199.255 28.82C198.829 28.06 198.615 27.16 198.615 26.12C198.615 25.1067 198.822 24.22 199.235 23.46C199.662 22.7 200.242 22.1067 200.975 21.68C201.722 21.24 202.569 21.02 203.515 21.02C204.209 21.02 204.829 21.1333 205.375 21.36C205.935 21.5867 206.409 21.9133 206.795 22.34C207.195 22.7667 207.495 23.2867 207.695 23.9C207.909 24.5 208.015 25.18 208.015 25.94C208.015 26.18 207.929 26.3667 207.755 26.5C207.595 26.62 207.362 26.68 207.055 26.68H200.635V25.24H206.255L205.935 25.54C205.935 24.9267 205.842 24.4133 205.655 24C205.482 23.5867 205.222 23.2733 204.875 23.06C204.542 22.8333 204.122 22.72 203.615 22.72C203.055 22.72 202.575 22.8533 202.175 23.12C201.789 23.3733 201.489 23.74 201.275 24.22C201.075 24.6867 200.975 25.2467 200.975 25.9V26.04C200.975 27.1333 201.229 27.9533 201.735 28.5C202.255 29.0333 203.015 29.3 204.015 29.3C204.362 29.3 204.749 29.26 205.175 29.18C205.615 29.0867 206.029 28.9333 206.415 28.72C206.695 28.56 206.942 28.4933 207.155 28.52C207.369 28.5333 207.535 28.6067 207.655 28.74C207.789 28.8733 207.869 29.04 207.895 29.24C207.922 29.4267 207.882 29.62 207.775 29.82C207.682 30.02 207.515 30.1933 207.275 30.34C206.809 30.6333 206.269 30.8533 205.655 31C205.055 31.1333 204.495 31.2 203.975 31.2ZM211.275 31.16C210.862 31.16 210.542 31.0533 210.315 30.84C210.102 30.6133 209.995 30.2933 209.995 29.88V22.32C209.995 21.9067 210.102 21.5933 210.315 21.38C210.529 21.1667 210.829 21.06 211.215 21.06C211.602 21.06 211.902 21.1667 212.115 21.38C212.329 21.5933 212.435 21.9067 212.435 22.32V23.58H212.235C212.422 22.78 212.789 22.1733 213.335 21.76C213.882 21.3467 214.609 21.1 215.515 21.02C215.795 20.9933 216.015 21.0667 216.175 21.24C216.349 21.4 216.449 21.6533 216.475 22C216.502 22.3333 216.422 22.6067 216.235 22.82C216.062 23.02 215.795 23.14 215.435 23.18L214.995 23.22C214.182 23.3 213.569 23.5533 213.155 23.98C212.742 24.3933 212.535 24.98 212.535 25.74V29.88C212.535 30.2933 212.429 30.6133 212.215 30.84C212.002 31.0533 211.689 31.16 211.275 31.16Z" fill="white"/>
<path d="M308.52 31.2C307.053 31.2 305.793 30.9067 304.74 30.32C303.7 29.72 302.9 28.88 302.34 27.8C301.78 26.7067 301.5 25.42 301.5 23.94C301.5 22.8333 301.66 21.84 301.98 20.96C302.3 20.0667 302.76 19.3067 303.36 18.68C303.96 18.04 304.693 17.5533 305.56 17.22C306.44 16.8733 307.427 16.7 308.52 16.7C309.253 16.7 309.973 16.7933 310.68 16.98C311.387 17.1667 312.007 17.4333 312.54 17.78C312.82 17.9533 313.007 18.1667 313.1 18.42C313.193 18.66 313.213 18.9 313.16 19.14C313.107 19.3667 312.993 19.56 312.82 19.72C312.66 19.88 312.453 19.9733 312.2 20C311.96 20.0133 311.693 19.9267 311.4 19.74C310.987 19.4733 310.54 19.28 310.06 19.16C309.58 19.04 309.093 18.98 308.6 18.98C307.653 18.98 306.853 19.1733 306.2 19.56C305.547 19.9467 305.053 20.5067 304.72 21.24C304.387 21.9733 304.22 22.8733 304.22 23.94C304.22 24.9933 304.387 25.8933 304.72 26.64C305.053 27.3867 305.547 27.9533 306.2 28.34C306.853 28.7267 307.653 28.92 308.6 28.92C309.107 28.92 309.607 28.86 310.1 28.74C310.593 28.6067 311.06 28.4067 311.5 28.14C311.793 27.9667 312.053 27.8933 312.28 27.92C312.52 27.9333 312.72 28.0133 312.88 28.16C313.04 28.3067 313.147 28.4933 313.2 28.72C313.253 28.9333 313.24 29.16 313.16 29.4C313.08 29.6267 312.92 29.8267 312.68 30C312.147 30.3867 311.507 30.6867 310.76 30.9C310.027 31.1 309.28 31.2 308.52 31.2ZM316.554 31.16C316.154 31.16 315.847 31.0533 315.634 30.84C315.42 30.6133 315.314 30.2933 315.314 29.88V18C315.314 17.5867 315.42 17.2733 315.634 17.06C315.847 16.8467 316.154 16.74 316.554 16.74C316.954 16.74 317.26 16.8467 317.474 17.06C317.7 17.2733 317.814 17.5867 317.814 18V23.18H317.534C317.827 22.4733 318.28 21.94 318.894 21.58C319.52 21.2067 320.227 21.02 321.014 21.02C321.8 21.02 322.447 21.1667 322.954 21.46C323.46 21.7533 323.84 22.2 324.094 22.8C324.347 23.3867 324.474 24.1333 324.474 25.04V29.88C324.474 30.2933 324.367 30.6133 324.154 30.84C323.94 31.0533 323.634 31.16 323.234 31.16C322.834 31.16 322.52 31.0533 322.294 30.84C322.08 30.6133 321.974 30.2933 321.974 29.88V25.16C321.974 24.4 321.827 23.8467 321.534 23.5C321.254 23.1533 320.814 22.98 320.214 22.98C319.48 22.98 318.894 23.2133 318.454 23.68C318.027 24.1333 317.814 24.74 317.814 25.5V29.88C317.814 30.7333 317.394 31.16 316.554 31.16ZM330.233 31.2C329.526 31.2 328.893 31.0667 328.333 30.8C327.786 30.52 327.353 30.1467 327.033 29.68C326.726 29.2133 326.573 28.6867 326.573 28.1C326.573 27.38 326.76 26.8133 327.133 26.4C327.506 25.9733 328.113 25.6667 328.953 25.48C329.793 25.2933 330.92 25.2 332.333 25.2H333.333V26.64H332.353C331.526 26.64 330.866 26.68 330.373 26.76C329.88 26.84 329.526 26.98 329.313 27.18C329.113 27.3667 329.013 27.6333 329.013 27.98C329.013 28.42 329.166 28.78 329.473 29.06C329.78 29.34 330.206 29.48 330.753 29.48C331.193 29.48 331.58 29.38 331.913 29.18C332.26 28.9667 332.533 28.68 332.733 28.32C332.933 27.96 333.033 27.5467 333.033 27.08V24.78C333.033 24.1133 332.886 23.6333 332.593 23.34C332.3 23.0467 331.806 22.9 331.113 22.9C330.726 22.9 330.306 22.9467 329.853 23.04C329.413 23.1333 328.946 23.2933 328.453 23.52C328.2 23.64 327.973 23.6733 327.773 23.62C327.586 23.5667 327.44 23.46 327.333 23.3C327.226 23.1267 327.173 22.94 327.173 22.74C327.173 22.54 327.226 22.3467 327.333 22.16C327.44 21.96 327.62 21.8133 327.873 21.72C328.486 21.4667 329.073 21.2867 329.633 21.18C330.206 21.0733 330.726 21.02 331.193 21.02C332.153 21.02 332.94 21.1667 333.553 21.46C334.18 21.7533 334.646 22.2 334.953 22.8C335.26 23.3867 335.413 24.1467 335.413 25.08V29.88C335.413 30.2933 335.313 30.6133 335.113 30.84C334.913 31.0533 334.626 31.16 334.253 31.16C333.88 31.16 333.586 31.0533 333.373 30.84C333.173 30.6133 333.073 30.2933 333.073 29.88V28.92H333.233C333.14 29.3867 332.953 29.7933 332.673 30.14C332.406 30.4733 332.066 30.7333 331.653 30.92C331.24 31.1067 330.766 31.2 330.233 31.2ZM339.19 31.14C338.79 31.14 338.484 31.02 338.27 30.78C338.057 30.54 337.95 30.2067 337.95 29.78V22.44C337.95 22 338.057 21.6667 338.27 21.44C338.484 21.2 338.79 21.08 339.19 21.08C339.59 21.08 339.897 21.2 340.11 21.44C340.337 21.6667 340.45 22 340.45 22.44V29.78C340.45 30.2067 340.344 30.54 340.13 30.78C339.917 31.02 339.604 31.14 339.19 31.14ZM339.19 19.22C338.724 19.22 338.357 19.1067 338.09 18.88C337.837 18.64 337.71 18.3133 337.71 17.9C337.71 17.4733 337.837 17.1467 338.09 16.92C338.357 16.6933 338.724 16.58 339.19 16.58C339.67 16.58 340.037 16.6933 340.29 16.92C340.544 17.1467 340.67 17.4733 340.67 17.9C340.67 18.3133 340.544 18.64 340.29 18.88C340.037 19.1067 339.67 19.22 339.19 19.22ZM344.328 31.16C343.915 31.16 343.595 31.0533 343.368 30.84C343.155 30.6133 343.048 30.2933 343.048 29.88V22.32C343.048 21.9067 343.155 21.5933 343.368 21.38C343.581 21.1667 343.881 21.06 344.268 21.06C344.655 21.06 344.955 21.1667 345.168 21.38C345.381 21.5933 345.488 21.9067 345.488 22.32V23.58H345.288C345.475 22.78 345.841 22.1733 346.388 21.76C346.935 21.3467 347.661 21.1 348.568 21.02C348.848 20.9933 349.068 21.0667 349.228 21.24C349.401 21.4 349.501 21.6533 349.528 22C349.555 22.3333 349.475 22.6067 349.288 22.82C349.115 23.02 348.848 23.14 348.488 23.18L348.048 23.22C347.235 23.3 346.621 23.5533 346.208 23.98C345.795 24.3933 345.588 24.98 345.588 25.74V29.88C345.588 30.2933 345.481 30.6133 345.268 30.84C345.055 31.0533 344.741 31.16 344.328 31.16Z" fill="white"/>
<path d="M31.4303 31.2C30.0703 31.2 28.877 30.9 27.8503 30.3C26.837 29.7 26.0503 28.86 25.4903 27.78C24.9303 26.6867 24.6503 25.4067 24.6503 23.94C24.6503 22.8333 24.8103 21.84 25.1303 20.96C25.4503 20.0667 25.9036 19.3067 26.4903 18.68C27.0903 18.04 27.8036 17.5533 28.6303 17.22C29.4703 16.8733 30.4036 16.7 31.4303 16.7C32.8036 16.7 33.997 17 35.0103 17.6C36.0236 18.1867 36.8103 19.02 37.3703 20.1C37.9303 21.18 38.2103 22.4533 38.2103 23.92C38.2103 25.0267 38.0503 26.0267 37.7303 26.92C37.4103 27.8133 36.9503 28.58 36.3503 29.22C35.7636 29.86 35.0503 30.3533 34.2103 30.7C33.3836 31.0333 32.457 31.2 31.4303 31.2ZM31.4303 29C32.297 29 33.0303 28.8 33.6303 28.4C34.2436 28 34.7103 27.42 35.0303 26.66C35.3636 25.9 35.5303 24.9933 35.5303 23.94C35.5303 22.34 35.1703 21.1 34.4503 20.22C33.7436 19.34 32.737 18.9 31.4303 18.9C30.577 18.9 29.8436 19.1 29.2303 19.5C28.617 19.8867 28.1436 20.46 27.8103 21.22C27.4903 21.9667 27.3303 22.8733 27.3303 23.94C27.3303 25.5267 27.6903 26.7667 28.4103 27.66C29.1303 28.5533 30.137 29 31.4303 29ZM46.2134 31.2C45.3868 31.2 44.6601 30.9933 44.0334 30.58C43.4201 30.1667 43.0134 29.6133 42.8134 28.92L43.0334 28.42V29.88C43.0334 30.2933 42.9268 30.6133 42.7134 30.84C42.5001 31.0533 42.2001 31.16 41.8134 31.16C41.4134 31.16 41.1068 31.0533 40.8934 30.84C40.6801 30.6133 40.5734 30.2933 40.5734 29.88V18C40.5734 17.5867 40.6801 17.2733 40.8934 17.06C41.1068 16.8467 41.4134 16.74 41.8134 16.74C42.2134 16.74 42.5201 16.8467 42.7334 17.06C42.9601 17.2733 43.0734 17.5867 43.0734 18V23.2H42.8334C43.0468 22.5467 43.4601 22.02 44.0734 21.62C44.6868 21.22 45.4001 21.02 46.2134 21.02C47.0801 21.02 47.8334 21.2267 48.4734 21.64C49.1134 22.0533 49.6134 22.64 49.9734 23.4C50.3334 24.1467 50.5134 25.0467 50.5134 26.1C50.5134 27.14 50.3334 28.0467 49.9734 28.82C49.6134 29.58 49.1068 30.1667 48.4534 30.58C47.8134 30.9933 47.0668 31.2 46.2134 31.2ZM45.5134 29.3C46.0068 29.3 46.4401 29.18 46.8134 28.94C47.1868 28.7 47.4734 28.3467 47.6734 27.88C47.8868 27.4 47.9934 26.8067 47.9934 26.1C47.9934 25.0333 47.7668 24.24 47.3134 23.72C46.8601 23.1867 46.2601 22.92 45.5134 22.92C45.0201 22.92 44.5868 23.04 44.2134 23.28C43.8401 23.5067 43.5468 23.86 43.3334 24.34C43.1334 24.8067 43.0334 25.3933 43.0334 26.1C43.0334 27.1533 43.2601 27.9533 43.7134 28.5C44.1668 29.0333 44.7668 29.3 45.5134 29.3ZM51.3656 34.78C51.0723 34.8067 50.8323 34.76 50.6456 34.64C50.459 34.5333 50.3323 34.3933 50.2656 34.22C50.1856 34.0467 50.159 33.8667 50.1856 33.68C50.2123 33.4933 50.2923 33.3267 50.4256 33.18C50.5456 33.0467 50.7123 32.9733 50.9256 32.96C51.5256 32.9067 51.959 32.7333 52.2256 32.44C52.5056 32.16 52.6456 31.7267 52.6456 31.14V22.32C52.6456 21.9067 52.7523 21.5933 52.9656 21.38C53.1923 21.1667 53.5056 21.06 53.9056 21.06C54.3056 21.06 54.6123 21.1667 54.8256 21.38C55.039 21.5933 55.1456 21.9067 55.1456 22.32V30.92C55.1456 31.7733 55.0056 32.4733 54.7256 33.02C54.459 33.5667 54.0456 33.98 53.4856 34.26C52.939 34.54 52.2323 34.7133 51.3656 34.78ZM53.8856 19.22C53.419 19.22 53.0523 19.1067 52.7856 18.88C52.5323 18.64 52.4056 18.3133 52.4056 17.9C52.4056 17.4733 52.5323 17.1467 52.7856 16.92C53.0523 16.6933 53.419 16.58 53.8856 16.58C54.3656 16.58 54.7323 16.6933 54.9856 16.92C55.239 17.1467 55.3656 17.4733 55.3656 17.9C55.3656 18.3133 55.239 18.64 54.9856 18.88C54.7323 19.1067 54.3656 19.22 53.8856 19.22ZM62.5614 31.2C61.4547 31.2 60.5014 30.9933 59.7014 30.58C58.9014 30.1667 58.2814 29.58 57.8414 28.82C57.4147 28.06 57.2014 27.16 57.2014 26.12C57.2014 25.1067 57.4081 24.22 57.8214 23.46C58.2481 22.7 58.8281 22.1067 59.5614 21.68C60.3081 21.24 61.1547 21.02 62.1014 21.02C62.7947 21.02 63.4147 21.1333 63.9614 21.36C64.5214 21.5867 64.9947 21.9133 65.3814 22.34C65.7814 22.7667 66.0814 23.2867 66.2814 23.9C66.4947 24.5 66.6014 25.18 66.6014 25.94C66.6014 26.18 66.5147 26.3667 66.3414 26.5C66.1814 26.62 65.9481 26.68 65.6414 26.68H59.2214V25.24H64.8414L64.5214 25.54C64.5214 24.9267 64.4281 24.4133 64.2414 24C64.0681 23.5867 63.8081 23.2733 63.4614 23.06C63.1281 22.8333 62.7081 22.72 62.2014 22.72C61.6414 22.72 61.1614 22.8533 60.7614 23.12C60.3747 23.3733 60.0747 23.74 59.8614 24.22C59.6614 24.6867 59.5614 25.2467 59.5614 25.9V26.04C59.5614 27.1333 59.8147 27.9533 60.3214 28.5C60.8414 29.0333 61.6014 29.3 62.6014 29.3C62.9481 29.3 63.3347 29.26 63.7614 29.18C64.2014 29.0867 64.6147 28.9333 65.0014 28.72C65.2814 28.56 65.5281 28.4933 65.7414 28.52C65.9547 28.5333 66.1214 28.6067 66.2414 28.74C66.3747 28.8733 66.4547 29.04 66.4814 29.24C66.5081 29.4267 66.4681 29.62 66.3614 29.82C66.2681 30.02 66.1014 30.1933 65.8614 30.34C65.3947 30.6333 64.8547 30.8533 64.2414 31C63.6414 31.1333 63.0814 31.2 62.5614 31.2ZM73.1013 31.2C72.0746 31.2 71.1813 30.9933 70.4213 30.58C69.6613 30.1533 69.0746 29.5533 68.6613 28.78C68.2479 28.0067 68.0413 27.1 68.0413 26.06C68.0413 25.2733 68.1546 24.5733 68.3813 23.96C68.6213 23.3333 68.9613 22.8067 69.4013 22.38C69.8413 21.94 70.3746 21.6067 71.0013 21.38C71.6279 21.14 72.3279 21.02 73.1013 21.02C73.5413 21.02 74.0146 21.08 74.5213 21.2C75.0413 21.32 75.5279 21.52 75.9813 21.8C76.1946 21.9333 76.3346 22.0933 76.4013 22.28C76.4679 22.4667 76.4813 22.66 76.4413 22.86C76.4013 23.0467 76.3146 23.2133 76.1813 23.36C76.0613 23.4933 75.9079 23.58 75.7213 23.62C75.5346 23.6467 75.3279 23.6 75.1013 23.48C74.8079 23.3067 74.5079 23.18 74.2013 23.1C73.8946 23.0067 73.6013 22.96 73.3213 22.96C72.8813 22.96 72.4946 23.0333 72.1613 23.18C71.8279 23.3133 71.5413 23.5133 71.3013 23.78C71.0746 24.0333 70.9013 24.3533 70.7813 24.74C70.6613 25.1267 70.6013 25.5733 70.6013 26.08C70.6013 27.0667 70.8346 27.8467 71.3013 28.42C71.7813 28.98 72.4546 29.26 73.3213 29.26C73.6013 29.26 73.8879 29.22 74.1813 29.14C74.4879 29.06 74.7946 28.9333 75.1013 28.76C75.3279 28.64 75.5279 28.6 75.7013 28.64C75.8879 28.68 76.0413 28.7733 76.1613 28.92C76.2813 29.0533 76.3546 29.22 76.3813 29.42C76.4079 29.6067 76.3813 29.7933 76.3013 29.98C76.2346 30.1667 76.1013 30.32 75.9013 30.44C75.4613 30.7067 74.9946 30.9 74.5013 31.02C74.0079 31.14 73.5413 31.2 73.1013 31.2ZM82.5339 31.2C81.6672 31.2 80.9406 31.0533 80.3539 30.76C79.7806 30.4667 79.3539 30.04 79.0739 29.48C78.7939 28.9067 78.6539 28.2 78.6539 27.36V23.1H77.6139C77.2939 23.1 77.0472 23.02 76.8739 22.86C76.7006 22.6867 76.6139 22.4533 76.6139 22.16C76.6139 21.8533 76.7006 21.62 76.8739 21.46C77.0472 21.3 77.2939 21.22 77.6139 21.22H78.6539V19.4C78.6539 18.9867 78.7606 18.6733 78.9739 18.46C79.2006 18.2467 79.5139 18.14 79.9139 18.14C80.3139 18.14 80.6206 18.2467 80.8339 18.46C81.0472 18.6733 81.1539 18.9867 81.1539 19.4V21.22H83.2739C83.5939 21.22 83.8406 21.3 84.0139 21.46C84.1872 21.62 84.2739 21.8533 84.2739 22.16C84.2739 22.4533 84.1872 22.6867 84.0139 22.86C83.8406 23.02 83.5939 23.1 83.2739 23.1H81.1539V27.22C81.1539 27.86 81.2939 28.34 81.5739 28.66C81.8539 28.98 82.3072 29.14 82.9339 29.14C83.1606 29.14 83.3606 29.12 83.5339 29.08C83.7072 29.04 83.8606 29.0133 83.9939 29C84.1539 28.9867 84.2872 29.04 84.3939 29.16C84.5006 29.2667 84.5539 29.4933 84.5539 29.84C84.5539 30.1067 84.5072 30.3467 84.4139 30.56C84.3339 30.76 84.1806 30.9 83.9539 30.98C83.7806 31.0333 83.5539 31.08 83.2739 31.12C82.9939 31.1733 82.7472 31.2 82.5339 31.2Z" fill="white"/>
<path d="M25.5 72.16C25.14 72.16 24.8467 72.0733 24.62 71.9C24.4067 71.7267 24.2333 71.4533 24.1 71.08L19.92 59.26C19.7733 58.8333 19.8 58.4733 20 58.18C20.2133 57.8867 20.5667 57.74 21.06 57.74C21.42 57.74 21.7 57.8267 21.9 58C22.1 58.16 22.26 58.42 22.38 58.78L25.98 69.46H25.18L28.94 58.8C29.0733 58.44 29.24 58.1733 29.44 58C29.64 57.8267 29.9 57.74 30.22 57.74C30.54 57.74 30.7933 57.8267 30.98 58C31.1667 58.1733 31.3267 58.4467 31.46 58.82L35.1 69.46H34.4L38.06 58.78C38.18 58.4333 38.34 58.1733 38.54 58C38.74 57.8267 39.0133 57.74 39.36 57.74C39.7867 57.74 40.1 57.8867 40.3 58.18C40.5 58.4733 40.5267 58.8333 40.38 59.26L36.16 71.1C36.0267 71.46 35.8533 71.7267 35.64 71.9C35.4267 72.0733 35.14 72.16 34.78 72.16C34.42 72.16 34.1333 72.0733 33.92 71.9C33.7067 71.7267 33.5333 71.4533 33.4 71.08L29.92 61.16H30.38L26.86 71.1C26.7267 71.46 26.5533 71.7267 26.34 71.9C26.14 72.0733 25.86 72.16 25.5 72.16ZM46.1356 72.2C45.029 72.2 44.0756 71.9933 43.2756 71.58C42.4756 71.1667 41.8556 70.58 41.4156 69.82C40.989 69.06 40.7756 68.16 40.7756 67.12C40.7756 66.1067 40.9823 65.22 41.3956 64.46C41.8223 63.7 42.4023 63.1067 43.1356 62.68C43.8823 62.24 44.729 62.02 45.6756 62.02C46.369 62.02 46.989 62.1333 47.5356 62.36C48.0956 62.5867 48.569 62.9133 48.9556 63.34C49.3556 63.7667 49.6556 64.2867 49.8556 64.9C50.069 65.5 50.1756 66.18 50.1756 66.94C50.1756 67.18 50.089 67.3667 49.9156 67.5C49.7556 67.62 49.5223 67.68 49.2156 67.68H42.7956V66.24H48.4156L48.0956 66.54C48.0956 65.9267 48.0023 65.4133 47.8156 65C47.6423 64.5867 47.3823 64.2733 47.0356 64.06C46.7023 63.8333 46.2823 63.72 45.7756 63.72C45.2156 63.72 44.7356 63.8533 44.3356 64.12C43.949 64.3733 43.649 64.74 43.4356 65.22C43.2356 65.6867 43.1356 66.2467 43.1356 66.9V67.04C43.1356 68.1333 43.389 68.9533 43.8956 69.5C44.4156 70.0333 45.1756 70.3 46.1756 70.3C46.5223 70.3 46.909 70.26 47.3356 70.18C47.7756 70.0867 48.189 69.9333 48.5756 69.72C48.8556 69.56 49.1023 69.4933 49.3156 69.52C49.529 69.5333 49.6956 69.6067 49.8156 69.74C49.949 69.8733 50.029 70.04 50.0556 70.24C50.0823 70.4267 50.0423 70.62 49.9356 70.82C49.8423 71.02 49.6756 71.1933 49.4356 71.34C48.969 71.6333 48.429 71.8533 47.8156 72C47.2156 72.1333 46.6556 72.2 46.1356 72.2ZM53.3955 72.14C52.9955 72.14 52.6888 72.02 52.4755 71.78C52.2621 71.54 52.1555 71.2067 52.1555 70.78V63.44C52.1555 63 52.2621 62.6667 52.4755 62.44C52.6888 62.2 52.9955 62.08 53.3955 62.08C53.7955 62.08 54.1021 62.2 54.3155 62.44C54.5421 62.6667 54.6555 63 54.6555 63.44V70.78C54.6555 71.2067 54.5488 71.54 54.3355 71.78C54.1221 72.02 53.8088 72.14 53.3955 72.14ZM53.3955 60.22C52.9288 60.22 52.5621 60.1067 52.2955 59.88C52.0421 59.64 51.9155 59.3133 51.9155 58.9C51.9155 58.4733 52.0421 58.1467 52.2955 57.92C52.5621 57.6933 52.9288 57.58 53.3955 57.58C53.8755 57.58 54.2421 57.6933 54.4955 57.92C54.7488 58.1467 54.8755 58.4733 54.8755 58.9C54.8755 59.3133 54.7488 59.64 54.4955 59.88C54.2421 60.1067 53.8755 60.22 53.3955 60.22ZM61.8131 75.8C61.0931 75.8 60.3931 75.7333 59.7131 75.6C59.0465 75.4667 58.4398 75.26 57.8931 74.98C57.6398 74.8467 57.4665 74.6867 57.3731 74.5C57.2931 74.3133 57.2665 74.12 57.2931 73.92C57.3331 73.7333 57.4131 73.5667 57.5331 73.42C57.6665 73.2733 57.8265 73.1733 58.0131 73.12C58.1998 73.0667 58.3931 73.0933 58.5931 73.2C59.1798 73.4933 59.7331 73.68 60.2531 73.76C60.7865 73.8533 61.2398 73.9 61.6131 73.9C62.5065 73.9 63.1731 73.68 63.6131 73.24C64.0665 72.8133 64.2931 72.1733 64.2931 71.32V69.52H64.4731C64.2731 70.2 63.8531 70.7467 63.2131 71.16C62.5865 71.56 61.8731 71.76 61.0731 71.76C60.1931 71.76 59.4265 71.56 58.7731 71.16C58.1198 70.7467 57.6131 70.1733 57.2531 69.44C56.8931 68.7067 56.7131 67.8533 56.7131 66.88C56.7131 66.1467 56.8131 65.4867 57.0131 64.9C57.2265 64.3 57.5198 63.7867 57.8931 63.36C58.2798 62.9333 58.7398 62.6067 59.2731 62.38C59.8198 62.14 60.4198 62.02 61.0731 62.02C61.8998 62.02 62.6198 62.2267 63.2331 62.64C63.8598 63.04 64.2665 63.5733 64.4531 64.24L64.2531 64.74V63.32C64.2531 62.9067 64.3598 62.5933 64.5731 62.38C64.7998 62.1667 65.1065 62.06 65.4931 62.06C65.8931 62.06 66.1998 62.1667 66.4131 62.38C66.6265 62.5933 66.7331 62.9067 66.7331 63.32V71.02C66.7331 72.6067 66.3131 73.8 65.4731 74.6C64.6331 75.4 63.4131 75.8 61.8131 75.8ZM61.7531 69.86C62.2731 69.86 62.7198 69.74 63.0931 69.5C63.4665 69.26 63.7531 68.92 63.9531 68.48C64.1665 68.0267 64.2731 67.4933 64.2731 66.88C64.2731 65.96 64.0465 65.24 63.5931 64.72C63.1398 64.1867 62.5265 63.92 61.7531 63.92C61.2331 63.92 60.7865 64.04 60.4131 64.28C60.0398 64.52 59.7465 64.86 59.5331 65.3C59.3331 65.74 59.2331 66.2667 59.2331 66.88C59.2331 67.8 59.4598 68.5267 59.9131 69.06C60.3665 69.5933 60.9798 69.86 61.7531 69.86ZM70.5634 72.16C70.1634 72.16 69.8568 72.0533 69.6434 71.84C69.4301 71.6133 69.3234 71.2933 69.3234 70.88V59C69.3234 58.5867 69.4301 58.2733 69.6434 58.06C69.8568 57.8467 70.1634 57.74 70.5634 57.74C70.9634 57.74 71.2701 57.8467 71.4834 58.06C71.7101 58.2733 71.8234 58.5867 71.8234 59V64.18H71.5434C71.8368 63.4733 72.2901 62.94 72.9034 62.58C73.5301 62.2067 74.2368 62.02 75.0234 62.02C75.8101 62.02 76.4568 62.1667 76.9634 62.46C77.4701 62.7533 77.8501 63.2 78.1034 63.8C78.3568 64.3867 78.4834 65.1333 78.4834 66.04V70.88C78.4834 71.2933 78.3768 71.6133 78.1634 71.84C77.9501 72.0533 77.6434 72.16 77.2434 72.16C76.8434 72.16 76.5301 72.0533 76.3034 71.84C76.0901 71.6133 75.9834 71.2933 75.9834 70.88V66.16C75.9834 65.4 75.8368 64.8467 75.5434 64.5C75.2634 64.1533 74.8234 63.98 74.2234 63.98C73.4901 63.98 72.9034 64.2133 72.4634 64.68C72.0368 65.1333 71.8234 65.74 71.8234 66.5V70.88C71.8234 71.7333 71.4034 72.16 70.5634 72.16ZM85.5027 72.2C84.636 72.2 83.9093 72.0533 83.3227 71.76C82.7493 71.4667 82.3227 71.04 82.0427 70.48C81.7627 69.9067 81.6227 69.2 81.6227 68.36V64.1H80.5827C80.2627 64.1 80.016 64.02 79.8427 63.86C79.6693 63.6867 79.5827 63.4533 79.5827 63.16C79.5827 62.8533 79.6693 62.62 79.8427 62.46C80.016 62.3 80.2627 62.22 80.5827 62.22H81.6227V60.4C81.6227 59.9867 81.7293 59.6733 81.9427 59.46C82.1693 59.2467 82.4827 59.14 82.8827 59.14C83.2827 59.14 83.5893 59.2467 83.8027 59.46C84.016 59.6733 84.1227 59.9867 84.1227 60.4V62.22H86.2427C86.5627 62.22 86.8093 62.3 86.9827 62.46C87.156 62.62 87.2427 62.8533 87.2427 63.16C87.2427 63.4533 87.156 63.6867 86.9827 63.86C86.8093 64.02 86.5627 64.1 86.2427 64.1H84.1227V68.22C84.1227 68.86 84.2627 69.34 84.5427 69.66C84.8227 69.98 85.276 70.14 85.9027 70.14C86.1293 70.14 86.3293 70.12 86.5027 70.08C86.676 70.04 86.8293 70.0133 86.9627 70C87.1227 69.9867 87.256 70.04 87.3627 70.16C87.4693 70.2667 87.5227 70.4933 87.5227 70.84C87.5227 71.1067 87.476 71.3467 87.3827 71.56C87.3027 71.76 87.1493 71.9 86.9227 71.98C86.7493 72.0333 86.5227 72.08 86.2427 72.12C85.9627 72.1733 85.716 72.2 85.5027 72.2Z" fill="#444444"/>
<path d="M165.132 72C164.785 72 164.512 71.9067 164.312 71.72C164.125 71.52 164.032 71.2533 164.032 70.92C164.032 70.5733 164.125 70.3133 164.312 70.14C164.512 69.9667 164.785 69.88 165.132 69.88H167.372V60.06H168.612L165.672 61.84C165.418 61.9867 165.178 62.0467 164.952 62.02C164.738 61.98 164.552 61.8867 164.392 61.74C164.245 61.58 164.145 61.3933 164.092 61.18C164.038 60.9667 164.052 60.7533 164.132 60.54C164.225 60.3133 164.398 60.1267 164.652 59.98L167.412 58.32C167.678 58.16 167.945 58.0267 168.212 57.92C168.478 57.8 168.725 57.74 168.952 57.74C169.232 57.74 169.465 57.82 169.652 57.98C169.838 58.1267 169.932 58.3733 169.932 58.72V69.88H171.972C172.318 69.88 172.585 69.9667 172.772 70.14C172.972 70.3133 173.072 70.5733 173.072 70.92C173.072 71.2667 172.972 71.5333 172.772 71.72C172.585 71.9067 172.318 72 171.972 72H165.132ZM180.004 72.2C178.911 72.2 177.971 72.0467 177.184 71.74C176.411 71.42 175.811 70.96 175.384 70.36C174.971 69.76 174.764 69.04 174.764 68.2C174.764 67.5333 174.897 66.9467 175.164 66.44C175.444 65.92 175.824 65.5 176.304 65.18C176.784 64.86 177.331 64.66 177.944 64.58V65C177.091 64.8133 176.404 64.4067 175.884 63.78C175.377 63.14 175.124 62.38 175.124 61.5C175.124 60.7 175.324 60.02 175.724 59.46C176.124 58.8867 176.691 58.4533 177.424 58.16C178.157 57.8533 179.017 57.7 180.004 57.7C181.004 57.7 181.871 57.8533 182.604 58.16C183.337 58.4533 183.904 58.8867 184.304 59.46C184.704 60.02 184.904 60.7 184.904 61.5C184.904 62.0867 184.784 62.6267 184.544 63.12C184.317 63.6133 183.991 64.02 183.564 64.34C183.151 64.66 182.664 64.8733 182.104 64.98V64.58C183.037 64.7133 183.791 65.1067 184.364 65.76C184.951 66.4 185.244 67.2133 185.244 68.2C185.244 69.04 185.031 69.76 184.604 70.36C184.191 70.96 183.591 71.42 182.804 71.74C182.031 72.0467 181.097 72.2 180.004 72.2ZM180.004 70.2C180.951 70.2 181.664 70.02 182.144 69.66C182.624 69.2867 182.864 68.74 182.864 68.02C182.864 67.3 182.624 66.76 182.144 66.4C181.664 66.04 180.951 65.86 180.004 65.86C179.071 65.86 178.357 66.04 177.864 66.4C177.384 66.76 177.144 67.3 177.144 68.02C177.144 68.74 177.384 69.2867 177.864 69.66C178.357 70.02 179.071 70.2 180.004 70.2ZM180.004 63.86C180.537 63.86 180.991 63.78 181.364 63.62C181.737 63.4467 182.024 63.2 182.224 62.88C182.424 62.56 182.524 62.1867 182.524 61.76C182.524 61.12 182.297 60.62 181.844 60.26C181.404 59.8867 180.791 59.7 180.004 59.7C179.217 59.7 178.604 59.8867 178.164 60.26C177.724 60.62 177.504 61.12 177.504 61.76C177.504 62.4133 177.724 62.9267 178.164 63.3C178.604 63.6733 179.217 63.86 180.004 63.86ZM191.996 72.2C190.329 72.2 189.056 71.5733 188.176 70.32C187.296 69.0533 186.856 67.2533 186.856 64.92C186.856 63.3467 187.049 62.0267 187.436 60.96C187.836 59.88 188.416 59.0667 189.176 58.52C189.949 57.9733 190.889 57.7 191.996 57.7C193.676 57.7 194.949 58.3133 195.816 59.54C196.696 60.7667 197.136 62.5533 197.136 64.9C197.136 66.46 196.936 67.7867 196.536 68.88C196.149 69.96 195.576 70.7867 194.816 71.36C194.056 71.92 193.116 72.2 191.996 72.2ZM191.996 70.1C192.903 70.1 193.569 69.68 193.996 68.84C194.436 68 194.656 66.6867 194.656 64.9C194.656 63.1133 194.436 61.82 193.996 61.02C193.569 60.2067 192.903 59.8 191.996 59.8C191.103 59.8 190.436 60.2067 189.996 61.02C189.556 61.82 189.336 63.1133 189.336 64.9C189.336 66.6867 189.556 68 189.996 68.84C190.436 69.68 191.103 70.1 191.996 70.1Z" fill="#444444"/>
<path d="M316.668 72C316.241 72 315.928 71.9067 315.728 71.72C315.541 71.52 315.448 71.2333 315.448 70.86C315.448 70.6333 315.508 70.4133 315.628 70.2C315.748 69.9867 315.921 69.76 316.148 69.52L320.168 65.24C320.781 64.6 321.221 64.02 321.488 63.5C321.754 62.9667 321.888 62.4333 321.888 61.9C321.888 61.2333 321.674 60.7267 321.248 60.38C320.834 60.0333 320.228 59.86 319.428 59.86C318.974 59.86 318.521 59.9267 318.068 60.06C317.614 60.18 317.154 60.3933 316.688 60.7C316.448 60.86 316.221 60.9267 316.008 60.9C315.808 60.8733 315.628 60.7867 315.468 60.64C315.321 60.4933 315.221 60.3133 315.168 60.1C315.114 59.8867 315.121 59.6733 315.188 59.46C315.268 59.2333 315.428 59.04 315.668 58.88C316.241 58.4933 316.881 58.2 317.588 58C318.308 57.8 319.028 57.7 319.748 57.7C320.761 57.7 321.614 57.8533 322.308 58.16C323.001 58.4667 323.528 58.9133 323.888 59.5C324.248 60.0867 324.428 60.8 324.428 61.64C324.428 62.2 324.334 62.7467 324.148 63.28C323.974 63.8133 323.701 64.3533 323.328 64.9C322.968 65.4467 322.494 66.0267 321.908 66.64L318.148 70.56V69.88H324.028C324.388 69.88 324.661 69.9667 324.848 70.14C325.034 70.3133 325.128 70.5733 325.128 70.92C325.128 71.2667 325.034 71.5333 324.848 71.72C324.661 71.9067 324.388 72 324.028 72H316.668ZM332 72.2C330.333 72.2 329.06 71.5733 328.18 70.32C327.3 69.0533 326.86 67.2533 326.86 64.92C326.86 63.3467 327.053 62.0267 327.44 60.96C327.84 59.88 328.42 59.0667 329.18 58.52C329.953 57.9733 330.893 57.7 332 57.7C333.68 57.7 334.953 58.3133 335.82 59.54C336.7 60.7667 337.14 62.5533 337.14 64.9C337.14 66.46 336.94 67.7867 336.54 68.88C336.153 69.96 335.58 70.7867 334.82 71.36C334.06 71.92 333.12 72.2 332 72.2ZM332 70.1C332.907 70.1 333.573 69.68 334 68.84C334.44 68 334.66 66.6867 334.66 64.9C334.66 63.1133 334.44 61.82 334 61.02C333.573 60.2067 332.907 59.8 332 59.8C331.107 59.8 330.44 60.2067 330 61.02C329.56 61.82 329.34 63.1133 329.34 64.9C329.34 66.6867 329.56 68 330 68.84C330.44 69.68 331.107 70.1 332 70.1Z" fill="#444444"/>
<path d="M328.264 135.16C327.864 135.16 327.551 135.053 327.324 134.84C327.097 134.613 326.984 134.293 326.984 133.88V132.32H322.044C321.631 132.32 321.297 132.233 321.044 132.06C320.804 131.887 320.684 131.613 320.684 131.24C320.684 131.027 320.737 130.793 320.844 130.54C320.964 130.287 321.171 129.953 321.464 129.54L326.944 121.6C327.131 121.32 327.337 121.107 327.564 120.96C327.791 120.813 328.051 120.74 328.344 120.74C328.691 120.74 328.977 120.847 329.204 121.06C329.431 121.26 329.544 121.58 329.544 122.02V130.2H330.524C330.911 130.2 331.197 130.293 331.384 130.48C331.584 130.653 331.684 130.913 331.684 131.26C331.684 131.607 331.584 131.873 331.384 132.06C331.197 132.233 330.911 132.32 330.524 132.32H329.544V133.88C329.544 134.293 329.431 134.613 329.204 134.84C328.977 135.053 328.664 135.16 328.264 135.16ZM326.984 130.2V123.96H327.564L322.844 130.88V130.2H326.984Z" fill="#444444"/>
<path d="M15.9527 135C15.5127 135 15.1727 134.887 14.9327 134.66C14.7061 134.42 14.5927 134.08 14.5927 133.64V122.26C14.5927 121.82 14.7061 121.487 14.9327 121.26C15.1727 121.02 15.5127 120.9 15.9527 120.9H20.7527C21.7394 120.9 22.5794 121.047 23.2727 121.34C23.9661 121.633 24.4927 122.053 24.8527 122.6C25.2261 123.147 25.4127 123.8 25.4127 124.56C25.4127 125.413 25.1661 126.133 24.6727 126.72C24.1794 127.307 23.5061 127.7 22.6527 127.9V127.6C23.6394 127.747 24.4061 128.12 24.9527 128.72C25.4994 129.32 25.7727 130.1 25.7727 131.06C25.7727 132.313 25.3461 133.287 24.4927 133.98C23.6527 134.66 22.4794 135 20.9727 135H15.9527ZM17.0527 133.06H20.6527C21.5594 133.06 22.2261 132.887 22.6527 132.54C23.0794 132.18 23.2927 131.647 23.2927 130.94C23.2927 130.22 23.0794 129.687 22.6527 129.34C22.2261 128.993 21.5594 128.82 20.6527 128.82H17.0527V133.06ZM17.0527 126.88H20.3127C21.1927 126.88 21.8461 126.713 22.2727 126.38C22.7127 126.033 22.9327 125.527 22.9327 124.86C22.9327 124.193 22.7127 123.693 22.2727 123.36C21.8461 123.013 21.1927 122.84 20.3127 122.84H17.0527V126.88ZM31.3423 135.2C30.6356 135.2 30.0023 135.067 29.4423 134.8C28.8956 134.52 28.4623 134.147 28.1423 133.68C27.8356 133.213 27.6823 132.687 27.6823 132.1C27.6823 131.38 27.8689 130.813 28.2423 130.4C28.6156 129.973 29.2223 129.667 30.0623 129.48C30.9023 129.293 32.0289 129.2 33.4423 129.2H34.4423V130.64H33.4623C32.6356 130.64 31.9756 130.68 31.4823 130.76C30.9889 130.84 30.6356 130.98 30.4223 131.18C30.2223 131.367 30.1223 131.633 30.1223 131.98C30.1223 132.42 30.2756 132.78 30.5823 133.06C30.8889 133.34 31.3156 133.48 31.8623 133.48C32.3023 133.48 32.6889 133.38 33.0223 133.18C33.3689 132.967 33.6423 132.68 33.8423 132.32C34.0423 131.96 34.1423 131.547 34.1423 131.08V128.78C34.1423 128.113 33.9956 127.633 33.7023 127.34C33.4089 127.047 32.9156 126.9 32.2223 126.9C31.8356 126.9 31.4156 126.947 30.9623 127.04C30.5223 127.133 30.0556 127.293 29.5623 127.52C29.3089 127.64 29.0823 127.673 28.8823 127.62C28.6956 127.567 28.5489 127.46 28.4423 127.3C28.3356 127.127 28.2823 126.94 28.2823 126.74C28.2823 126.54 28.3356 126.347 28.4423 126.16C28.5489 125.96 28.7289 125.813 28.9823 125.72C29.5956 125.467 30.1823 125.287 30.7423 125.18C31.3156 125.073 31.8356 125.02 32.3023 125.02C33.2623 125.02 34.0489 125.167 34.6623 125.46C35.2889 125.753 35.7556 126.2 36.0623 126.8C36.3689 127.387 36.5223 128.147 36.5223 129.08V133.88C36.5223 134.293 36.4223 134.613 36.2223 134.84C36.0223 135.053 35.7356 135.16 35.3623 135.16C34.9889 135.16 34.6956 135.053 34.4823 134.84C34.2823 134.613 34.1823 134.293 34.1823 133.88V132.92H34.3423C34.2489 133.387 34.0623 133.793 33.7823 134.14C33.5156 134.473 33.1756 134.733 32.7623 134.92C32.3489 135.107 31.8756 135.2 31.3423 135.2ZM42.3998 135.2C41.2931 135.2 40.4598 134.887 39.8998 134.26C39.3398 133.62 39.0598 132.687 39.0598 131.46V122C39.0598 121.587 39.1664 121.273 39.3798 121.06C39.5931 120.847 39.8998 120.74 40.2998 120.74C40.6998 120.74 41.0064 120.847 41.2198 121.06C41.4464 121.273 41.5598 121.587 41.5598 122V131.34C41.5598 131.953 41.6864 132.407 41.9398 132.7C42.2064 132.993 42.5798 133.14 43.0598 133.14C43.1664 133.14 43.2664 133.14 43.3598 133.14C43.4531 133.127 43.5464 133.113 43.6398 133.1C43.8264 133.073 43.9531 133.127 44.0198 133.26C44.0864 133.38 44.1198 133.633 44.1198 134.02C44.1198 134.353 44.0531 134.613 43.9198 134.8C43.7864 134.987 43.5664 135.1 43.2598 135.14C43.1264 135.153 42.9864 135.167 42.8398 135.18C42.6931 135.193 42.5464 135.2 42.3998 135.2ZM48.7865 135.2C47.6798 135.2 46.8465 134.887 46.2865 134.26C45.7265 133.62 45.4465 132.687 45.4465 131.46V122C45.4465 121.587 45.5532 121.273 45.7665 121.06C45.9798 120.847 46.2865 120.74 46.6865 120.74C47.0865 120.74 47.3932 120.847 47.6065 121.06C47.8332 121.273 47.9465 121.587 47.9465 122V131.34C47.9465 131.953 48.0732 132.407 48.3265 132.7C48.5932 132.993 48.9665 133.14 49.4465 133.14C49.5532 133.14 49.6532 133.14 49.7465 133.14C49.8398 133.127 49.9332 133.113 50.0265 133.1C50.2132 133.073 50.3398 133.127 50.4065 133.26C50.4732 133.38 50.5065 133.633 50.5065 134.02C50.5065 134.353 50.4398 134.613 50.3065 134.8C50.1732 134.987 49.9532 135.1 49.6465 135.14C49.5132 135.153 49.3732 135.167 49.2265 135.18C49.0798 135.193 48.9332 135.2 48.7865 135.2ZM56.1955 135.2C55.1822 135.2 54.3022 134.993 53.5555 134.58C52.8089 134.167 52.2289 133.58 51.8155 132.82C51.4022 132.047 51.1955 131.14 51.1955 130.1C51.1955 129.313 51.3089 128.613 51.5355 128C51.7755 127.373 52.1155 126.84 52.5555 126.4C52.9955 125.947 53.5222 125.607 54.1355 125.38C54.7489 125.14 55.4355 125.02 56.1955 125.02C57.2089 125.02 58.0889 125.227 58.8355 125.64C59.5822 126.053 60.1622 126.64 60.5755 127.4C60.9889 128.16 61.1955 129.06 61.1955 130.1C61.1955 130.887 61.0755 131.593 60.8355 132.22C60.6089 132.847 60.2755 133.387 59.8355 133.84C59.3955 134.28 58.8689 134.62 58.2555 134.86C57.6422 135.087 56.9555 135.2 56.1955 135.2ZM56.1955 133.3C56.6889 133.3 57.1222 133.18 57.4955 132.94C57.8689 132.7 58.1555 132.347 58.3555 131.88C58.5689 131.4 58.6755 130.807 58.6755 130.1C58.6755 129.033 58.4489 128.24 57.9955 127.72C57.5422 127.187 56.9422 126.92 56.1955 126.92C55.7022 126.92 55.2689 127.04 54.8955 127.28C54.5222 127.507 54.2289 127.86 54.0155 128.34C53.8155 128.807 53.7155 129.393 53.7155 130.1C53.7155 131.153 53.9422 131.953 54.3955 132.5C54.8489 133.033 55.4489 133.3 56.1955 133.3ZM67.719 135.2C66.7057 135.2 65.8257 134.993 65.079 134.58C64.3323 134.167 63.7523 133.58 63.339 132.82C62.9257 132.047 62.719 131.14 62.719 130.1C62.719 129.313 62.8323 128.613 63.059 128C63.299 127.373 63.639 126.84 64.079 126.4C64.519 125.947 65.0457 125.607 65.659 125.38C66.2723 125.14 66.959 125.02 67.719 125.02C68.7323 125.02 69.6123 125.227 70.359 125.64C71.1057 126.053 71.6857 126.64 72.099 127.4C72.5123 128.16 72.719 129.06 72.719 130.1C72.719 130.887 72.599 131.593 72.359 132.22C72.1323 132.847 71.799 133.387 71.359 133.84C70.919 134.28 70.3923 134.62 69.779 134.86C69.1657 135.087 68.479 135.2 67.719 135.2ZM67.719 133.3C68.2123 133.3 68.6457 133.18 69.019 132.94C69.3923 132.7 69.679 132.347 69.879 131.88C70.0923 131.4 70.199 130.807 70.199 130.1C70.199 129.033 69.9723 128.24 69.519 127.72C69.0657 127.187 68.4657 126.92 67.719 126.92C67.2257 126.92 66.7923 127.04 66.419 127.28C66.0457 127.507 65.7523 127.86 65.539 128.34C65.339 128.807 65.239 129.393 65.239 130.1C65.239 131.153 65.4657 131.953 65.919 132.5C66.3723 133.033 66.9723 133.3 67.719 133.3ZM76.0224 135.16C75.6224 135.16 75.3158 135.053 75.1024 134.84C74.8891 134.613 74.7824 134.293 74.7824 133.88V126.32C74.7824 125.907 74.8891 125.593 75.1024 125.38C75.3158 125.167 75.6158 125.06 76.0024 125.06C76.3891 125.06 76.6891 125.167 76.9024 125.38C77.1158 125.593 77.2224 125.907 77.2224 126.32V127.68L77.0024 127.18C77.2958 126.473 77.7491 125.94 78.3624 125.58C78.9891 125.207 79.6958 125.02 80.4824 125.02C81.2691 125.02 81.9158 125.167 82.4224 125.46C82.9291 125.753 83.3091 126.2 83.5624 126.8C83.8158 127.387 83.9424 128.133 83.9424 129.04V133.88C83.9424 134.293 83.8358 134.613 83.6224 134.84C83.4091 135.053 83.1024 135.16 82.7024 135.16C82.3024 135.16 81.9891 135.053 81.7624 134.84C81.5491 134.613 81.4424 134.293 81.4424 133.88V129.16C81.4424 128.4 81.2958 127.847 81.0024 127.5C80.7224 127.153 80.2824 126.98 79.6824 126.98C78.9491 126.98 78.3624 127.213 77.9224 127.68C77.4958 128.133 77.2824 128.74 77.2824 129.5V133.88C77.2824 134.733 76.8624 135.16 76.0224 135.16ZM90.0616 135.2C89.4883 135.2 88.8816 135.14 88.2416 135.02C87.6016 134.9 87.0283 134.693 86.5216 134.4C86.3083 134.267 86.155 134.113 86.0616 133.94C85.9816 133.753 85.9483 133.573 85.9616 133.4C85.9883 133.213 86.055 133.053 86.1616 132.92C86.2816 132.787 86.4283 132.7 86.6016 132.66C86.7883 132.62 86.9883 132.653 87.2016 132.76C87.735 133.013 88.235 133.193 88.7016 133.3C89.1683 133.393 89.6283 133.44 90.0816 133.44C90.7216 133.44 91.195 133.333 91.5016 133.12C91.8216 132.893 91.9816 132.6 91.9816 132.24C91.9816 131.933 91.875 131.7 91.6616 131.54C91.4616 131.367 91.155 131.24 90.7416 131.16L88.7416 130.78C87.915 130.62 87.2816 130.32 86.8416 129.88C86.415 129.427 86.2016 128.847 86.2016 128.14C86.2016 127.5 86.375 126.947 86.7216 126.48C87.0816 126.013 87.575 125.653 88.2016 125.4C88.8283 125.147 89.5483 125.02 90.3616 125.02C90.9483 125.02 91.495 125.087 92.0016 125.22C92.5216 125.34 93.0216 125.533 93.5016 125.8C93.7016 125.907 93.835 126.047 93.9016 126.22C93.9816 126.393 94.0016 126.573 93.9616 126.76C93.9216 126.933 93.8416 127.093 93.7216 127.24C93.6016 127.373 93.4483 127.46 93.2616 127.5C93.0883 127.527 92.8883 127.487 92.6616 127.38C92.2483 127.167 91.8483 127.013 91.4616 126.92C91.0883 126.827 90.7283 126.78 90.3816 126.78C89.7283 126.78 89.2416 126.893 88.9216 127.12C88.615 127.347 88.4616 127.647 88.4616 128.02C88.4616 128.3 88.555 128.533 88.7416 128.72C88.9283 128.907 89.215 129.033 89.6016 129.1L91.6016 129.48C92.4683 129.64 93.1216 129.933 93.5616 130.36C94.015 130.787 94.2416 131.36 94.2416 132.08C94.2416 133.053 93.8616 133.82 93.1016 134.38C92.3416 134.927 91.3283 135.2 90.0616 135.2Z" fill="#444444"/>
<line x1="108.5" y1="1" x2="108.5" y2="171" stroke="#1A1A1A"/>
<line y1="42.5" x2="398" y2="42.5" stroke="#1A1A1A"/>
<line y1="87.5" x2="398" y2="87.5" stroke="#1A1A1A"/>
<line x1="253.5" y1="1" x2="253.5" y2="171" stroke="#1A1A1A"/>
<rect x="0.5" y="0.5" width="397" height="171" rx="9.5" stroke="#1A1A1A"/>
</svg>
