<svg width="680" height="408" viewBox="0 0 680 408" fill="none" xmlns="http://www.w3.org/2000/svg">
<g clip-path="url(#clip0_5380_1834)">
<rect y="-96" width="680" height="610" rx="8" fill="#F3F7FE"/>
<g clip-path="url(#clip1_5380_1834)">
<path d="M186.439 124.899H207.698C211.827 124.899 215.186 128.224 215.299 132.326L215.163 132.503H190.547C187.313 132.503 184.691 129.881 184.691 126.647C184.691 125.682 185.474 124.899 186.439 124.899Z" fill="#1785B8"/>
<path d="M187.176 174.758C194.127 174.758 199.762 169.123 199.762 162.172C199.762 155.221 194.127 149.586 187.176 149.586C180.225 149.586 174.59 155.221 174.59 162.172C174.59 169.123 180.225 174.758 187.176 174.758Z" fill="#888888"/>
<path d="M187.176 169.317C183.236 169.317 180.031 166.111 180.031 162.171C180.031 158.232 183.236 155.026 187.176 155.026C191.116 155.026 194.321 158.231 194.321 162.171C194.321 166.111 191.116 169.317 187.176 169.317Z" fill="#CADDEA"/>
<path d="M250.971 174.758C257.922 174.758 263.557 169.123 263.557 162.172C263.557 155.221 257.922 149.586 250.971 149.586C244.02 149.586 238.385 155.221 238.385 162.172C238.385 169.123 244.02 174.758 250.971 174.758Z" fill="#888888"/>
<path d="M250.971 169.317C247.031 169.317 243.826 166.111 243.826 162.171C243.826 158.232 247.031 155.026 250.971 155.026C254.911 155.026 258.116 158.231 258.116 162.171C258.116 166.111 254.911 169.317 250.971 169.317Z" fill="#CADDEA"/>
<path d="M252.076 164.105C250.657 164.847 248.904 164.297 248.162 162.878L240.191 147.624L245.333 144.937L253.304 160.19C254.046 161.611 253.496 163.363 252.076 164.105Z" fill="#D0D1D2"/>
<path d="M260.193 148.071C257.762 143.378 252.487 140.581 246.766 141.247L234.726 120.104L229.745 121.888C229.745 121.888 237.517 140.489 234.07 153.166C233.656 155.313 231.777 156.864 229.591 156.864H221.835C221.704 156.864 221.574 156.862 221.444 156.858C214.057 156.608 209.156 149.064 211.703 142.125L215.299 132.325C215.304 132.313 215.295 132.3 215.282 132.3H191.008C177.442 132.3 166.444 143.298 166.444 156.864V160.842C166.444 161.851 167.262 162.669 168.271 162.669H210.466H233.125C236.353 162.669 239.246 161.766 240.398 158.752C240.856 157.554 241.58 156.471 242.537 155.617C247.949 150.791 255.464 150.074 259.012 150.028C260.009 150.015 260.652 148.957 260.193 148.071Z" fill="#F9644B"/>
<path d="M191.941 144.527H182.758C173.748 144.527 166.444 151.831 166.444 160.842C166.444 161.851 167.262 162.669 168.271 162.669H206.428V159.014C206.428 151.013 199.942 144.527 191.941 144.527Z" fill="#F94730"/>
<path d="M241.959 123.186H229.256C228.731 123.186 228.305 122.76 228.305 122.235V119.109C228.305 118.287 228.864 117.57 229.662 117.37L241.692 114.347C242.384 114.173 243.054 114.696 243.054 115.408V122.091C243.054 122.696 242.564 123.186 241.959 123.186Z" fill="#F94730"/>
<path d="M241.692 114.347L237.682 115.354V123.186H241.959C242.564 123.186 243.054 122.696 243.054 122.091V115.408C243.054 114.696 242.383 114.173 241.692 114.347Z" fill="#E2EFFA"/>
<path d="M237.257 161.966C238.66 161.378 239.78 160.369 240.398 158.752C240.869 157.52 241.628 156.418 242.618 155.546C248.023 150.785 255.48 150.074 259.011 150.028C260.009 150.015 260.652 148.956 260.193 148.07C257.762 143.378 252.486 140.581 246.766 141.247C246.766 141.247 236.272 150.118 237.257 161.966Z" fill="#F94730"/>
<path d="M218.105 110.173L224.345 110.11C224.664 110.107 224.969 110.249 225.172 110.496L228.378 114.386L219.309 114.454C218.204 114.454 217.309 113.558 217.309 112.453V110.969C217.308 110.53 217.665 110.173 218.105 110.173Z" fill="#1375A3"/>
<path d="M259.872 151.332C260.499 151.126 261.038 150.702 261.39 150.114C261.89 149.28 261.922 148.268 261.475 147.407L261.475 147.406C261.471 147.399 261.467 147.391 261.463 147.384C261.382 147.229 261.299 147.076 261.213 146.925C261.184 146.872 261.152 146.821 261.122 146.769C261.06 146.664 260.999 146.559 260.935 146.456C260.897 146.396 260.858 146.337 260.82 146.278C260.761 146.185 260.701 146.092 260.64 146.001C260.598 145.939 260.554 145.878 260.511 145.817C260.451 145.73 260.391 145.644 260.33 145.56C260.284 145.497 260.237 145.437 260.19 145.375C260.128 145.294 260.067 145.213 260.004 145.133C259.955 145.071 259.905 145.011 259.855 144.95C259.791 144.873 259.728 144.796 259.663 144.72C259.611 144.66 259.558 144.601 259.506 144.541C259.44 144.468 259.375 144.394 259.308 144.322C259.253 144.263 259.198 144.205 259.143 144.148C259.075 144.077 259.007 144.007 258.938 143.938C258.882 143.881 258.824 143.825 258.766 143.77C258.697 143.702 258.627 143.636 258.556 143.57C258.497 143.515 258.437 143.461 258.377 143.407C258.305 143.343 258.232 143.279 258.159 143.217C258.098 143.164 258.037 143.112 257.975 143.061C257.901 142.999 257.826 142.938 257.75 142.878C257.687 142.828 257.624 142.779 257.561 142.73C257.484 142.671 257.406 142.613 257.328 142.555C257.264 142.508 257.2 142.461 257.135 142.415C257.055 142.358 256.975 142.303 256.894 142.248C256.829 142.204 256.764 142.159 256.697 142.116C256.615 142.062 256.531 142.009 256.447 141.957C256.381 141.915 256.316 141.873 256.249 141.833C256.162 141.781 256.074 141.73 255.987 141.68C255.922 141.642 255.856 141.604 255.79 141.567C255.698 141.516 255.604 141.467 255.511 141.418C255.448 141.384 255.385 141.35 255.322 141.318C255.219 141.266 255.115 141.216 255.012 141.167C254.956 141.14 254.9 141.112 254.843 141.086C254.712 141.025 254.579 140.967 254.445 140.91C254.415 140.897 254.386 140.883 254.356 140.871C254.19 140.801 254.024 140.735 253.856 140.672C253.82 140.658 253.782 140.646 253.746 140.632C253.615 140.584 253.484 140.537 253.351 140.492C253.291 140.472 253.231 140.454 253.17 140.435C253.06 140.399 252.949 140.363 252.837 140.33C252.769 140.31 252.701 140.292 252.633 140.273C252.527 140.244 252.422 140.214 252.316 140.187C252.244 140.168 252.171 140.151 252.098 140.133C251.995 140.109 251.891 140.084 251.788 140.061C251.712 140.044 251.636 140.029 251.56 140.014C251.458 139.993 251.356 139.972 251.253 139.954C251.175 139.94 251.097 139.927 251.019 139.914C250.916 139.897 250.814 139.88 250.712 139.865C250.632 139.854 250.552 139.844 250.472 139.833C250.37 139.82 250.267 139.807 250.165 139.796C250.084 139.787 250.002 139.78 249.921 139.772C249.818 139.763 249.715 139.754 249.612 139.746C249.53 139.74 249.448 139.735 249.365 139.73C249.262 139.724 249.158 139.72 249.054 139.716C248.971 139.713 248.888 139.71 248.805 139.708C248.701 139.706 248.597 139.705 248.493 139.705C248.409 139.705 248.325 139.705 248.24 139.706C248.136 139.708 248.032 139.711 247.928 139.714C247.843 139.717 247.758 139.72 247.673 139.724C247.636 139.726 247.6 139.726 247.564 139.729L241.185 128.528C240.791 127.836 239.909 127.594 239.216 127.988C238.523 128.383 238.281 129.265 238.676 129.958L244.943 140.961C242.413 143.404 235.477 151.028 235.757 160.955C234.863 161.176 233.933 161.225 233.126 161.225H207.872V159.014C207.872 150.229 200.725 143.083 191.941 143.083H190.388C189.591 143.083 188.945 143.729 188.945 144.527C188.945 145.324 189.591 145.97 190.388 145.97H191.941C199.133 145.97 204.984 151.821 204.984 159.013V161.225H168.271C168.142 161.225 168.028 161.16 167.959 161.062C167.957 161.06 167.955 161.058 167.953 161.055C167.95 161.051 167.948 161.045 167.945 161.041C167.91 160.982 167.888 160.914 167.888 160.841C167.888 152.641 174.559 145.97 182.759 145.97H190.497C191.294 145.97 191.941 145.324 191.941 144.527C191.941 143.729 191.294 143.083 190.497 143.083H182.759C177.262 143.083 172.342 145.593 169.082 149.526C171.994 140.849 179.922 134.453 189.405 133.8C189.649 133.784 189.891 133.771 190.132 133.762C190.172 133.761 190.212 133.759 190.252 133.758C190.507 133.749 190.76 133.744 191.008 133.744H213.241L210.347 141.627C208.972 145.374 209.486 149.592 211.72 152.91C213.938 156.203 217.464 158.168 221.395 158.3C221.541 158.305 221.688 158.308 221.836 158.308H229.591C232.445 158.308 234.911 156.287 235.476 153.494C238.12 143.679 234.364 130.59 232.307 124.629H235.642L238.676 129.958C238.942 130.425 239.43 130.687 239.932 130.687C240.174 130.687 240.42 130.626 240.645 130.498C241.338 130.104 241.58 129.221 241.185 128.528L238.964 124.629H241.959C243.359 124.629 244.498 123.491 244.498 122.091V115.409C244.498 114.621 244.141 113.891 243.52 113.407C242.899 112.922 242.104 112.754 241.34 112.947L229.618 115.892L229.295 115.5C229.261 115.528 229.225 115.554 229.188 115.579C229.399 115.436 229.574 115.238 229.686 114.998C229.922 114.493 229.847 113.898 229.493 113.468L226.286 109.578C225.808 108.998 225.106 108.667 224.355 108.667C224.347 108.667 224.338 108.667 224.33 108.667L218.095 108.729C216.864 108.735 215.865 109.737 215.865 110.97V112.453C215.865 114.353 217.41 115.898 219.32 115.898L225.842 115.85L227.253 117.563C227.002 118.025 226.861 118.554 226.861 119.109V121.639L220.829 122.775C220.045 122.922 219.53 123.677 219.677 124.46C219.808 125.154 220.414 125.637 221.095 125.637C221.183 125.637 221.273 125.629 221.363 125.612L228.118 124.341C228.454 124.523 228.838 124.628 229.246 124.629C231.098 129.772 235.29 143.175 232.676 152.787C232.667 152.822 232.659 152.857 232.652 152.893C232.37 154.358 231.083 155.421 229.591 155.421H221.836C221.721 155.421 221.608 155.419 221.493 155.415C218.499 155.314 215.809 153.813 214.115 151.297C212.371 148.707 211.986 145.545 213.059 142.622L216.651 132.832C216.671 132.779 216.688 132.725 216.701 132.67C216.706 132.652 216.708 132.633 216.712 132.615C216.72 132.578 216.727 132.542 216.732 132.505C216.734 132.483 216.736 132.461 216.737 132.439C216.74 132.405 216.743 132.372 216.743 132.338C216.743 132.315 216.742 132.292 216.742 132.269C216.741 132.249 216.742 132.23 216.74 132.21C216.567 127.375 212.527 123.455 207.699 123.455H186.439C184.68 123.455 183.248 124.887 183.248 126.646C183.248 128.49 183.958 130.215 185.136 131.525C173.614 134.195 165 144.543 165 156.865V160.842C165 160.955 165.006 161.066 165.017 161.176C165.185 162.823 166.58 164.113 168.271 164.113H173.282C174.225 170.994 180.081 176.201 187.176 176.201C194.271 176.201 200.127 170.994 201.07 164.113H233.126C234.593 164.113 235.888 163.936 237.013 163.589C237.726 170.662 243.714 176.201 250.971 176.201C258.707 176.201 265 169.908 265 162.172C265 157.9 263.051 153.948 259.872 151.332ZM239.125 116.48L241.61 115.856V121.742H239.125V116.48ZM219.309 113.01C219.002 113.01 218.752 112.761 218.752 112.453V111.611L224.175 111.556L225.336 112.966L219.309 113.01ZM229.749 119.109C229.749 118.949 229.858 118.809 230.013 118.77L236.238 117.206V121.742H229.749V119.109ZM186.439 126.343H207.699C210.485 126.343 212.885 128.264 213.624 130.857H191.008C190.751 130.857 190.496 130.862 190.241 130.869C190.207 130.87 190.172 130.872 190.138 130.873C189.905 130.881 189.673 130.892 189.442 130.906C189.429 130.906 189.415 130.907 189.401 130.907C187.498 130.396 186.136 128.634 186.136 126.647C186.136 126.479 186.272 126.343 186.439 126.343ZM192.533 164.113C191.733 166.311 189.617 167.873 187.176 167.873C184.734 167.873 182.618 166.311 181.818 164.113H192.533ZM187.176 173.313C181.679 173.313 177.122 169.378 176.207 164.113H178.812C179.7 167.933 183.143 170.761 187.176 170.761C191.208 170.761 194.651 167.933 195.539 164.113H198.145C197.23 169.378 192.672 173.313 187.176 173.313ZM238.908 158.565C238.893 158.596 238.878 158.627 238.863 158.657C238.816 158.752 238.766 158.844 238.713 158.933C238.707 158.943 238.701 158.951 238.696 158.96C239.383 150.526 245.857 144.05 247.379 142.637C247.384 142.637 247.388 142.636 247.392 142.636C247.431 142.633 247.47 142.631 247.509 142.628C247.626 142.62 247.743 142.611 247.859 142.606C247.883 142.605 247.907 142.605 247.931 142.604C248.062 142.599 248.193 142.595 248.324 142.593C248.339 142.593 248.355 142.593 248.37 142.593C248.508 142.592 248.647 142.593 248.784 142.597C248.796 142.597 248.808 142.598 248.82 142.598C248.96 142.602 249.101 142.608 249.24 142.616C249.25 142.617 249.26 142.618 249.27 142.619C249.411 142.628 249.552 142.638 249.692 142.652C249.702 142.653 249.712 142.654 249.721 142.655C249.861 142.669 250 142.685 250.138 142.704C250.149 142.705 250.16 142.707 250.171 142.708C250.308 142.727 250.444 142.747 250.58 142.77C250.591 142.772 250.603 142.775 250.615 142.777C250.749 142.8 250.883 142.825 251.015 142.852C251.029 142.855 251.042 142.858 251.056 142.861C251.186 142.888 251.315 142.918 251.444 142.949C251.46 142.953 251.476 142.957 251.492 142.961C251.618 142.992 251.743 143.025 251.867 143.061C251.885 143.066 251.903 143.071 251.921 143.076C252.043 143.111 252.164 143.148 252.284 143.187C252.304 143.193 252.324 143.2 252.344 143.206C252.461 143.245 252.578 143.285 252.693 143.327C252.715 143.335 252.738 143.343 252.76 143.351C252.872 143.393 252.984 143.436 253.095 143.481C253.12 143.491 253.144 143.501 253.169 143.511C253.276 143.555 253.383 143.601 253.489 143.649C253.516 143.661 253.543 143.673 253.57 143.685C253.673 143.732 253.775 143.78 253.876 143.83C253.905 143.844 253.933 143.858 253.962 143.873C254.06 143.922 254.157 143.973 254.254 144.025C254.285 144.041 254.316 144.058 254.346 144.075C254.44 144.126 254.532 144.179 254.624 144.232C254.656 144.251 254.689 144.27 254.721 144.29C254.81 144.343 254.898 144.397 254.985 144.453C255.019 144.475 255.053 144.496 255.086 144.518C255.171 144.573 255.254 144.629 255.337 144.686C255.372 144.711 255.407 144.735 255.442 144.759C255.522 144.816 255.601 144.874 255.68 144.932C255.715 144.959 255.752 144.986 255.787 145.013C255.863 145.071 255.938 145.131 256.012 145.191C256.049 145.22 256.086 145.25 256.123 145.28C256.194 145.339 256.265 145.4 256.335 145.461C256.372 145.494 256.41 145.526 256.447 145.559C256.515 145.62 256.581 145.682 256.648 145.744C256.685 145.779 256.723 145.814 256.761 145.85C256.825 145.912 256.888 145.976 256.951 146.039C256.988 146.077 257.026 146.114 257.063 146.153C257.123 146.216 257.183 146.281 257.242 146.346C257.279 146.386 257.317 146.426 257.353 146.467C257.411 146.532 257.467 146.599 257.523 146.665C257.559 146.708 257.596 146.75 257.631 146.793C257.686 146.86 257.74 146.929 257.794 146.997C257.828 147.041 257.863 147.085 257.897 147.13C257.951 147.2 258.002 147.271 258.053 147.343C258.086 147.388 258.119 147.432 258.151 147.478C258.203 147.552 258.253 147.628 258.303 147.704C258.333 147.748 258.363 147.792 258.392 147.837C258.446 147.921 258.497 148.006 258.549 148.091C258.572 148.13 258.597 148.168 258.62 148.207C258.693 148.332 258.765 148.459 258.834 148.587C258.706 148.59 258.576 148.593 258.442 148.596C256.296 148.659 253.342 148.949 250.241 149.869C250.24 149.869 250.238 149.869 250.237 149.87C250.05 149.925 249.864 149.983 249.676 150.043C249.668 150.045 249.659 150.048 249.651 150.051C249.471 150.108 249.291 150.169 249.111 150.231C249.095 150.237 249.079 150.242 249.062 150.247C248.888 150.308 248.713 150.371 248.538 150.436C248.516 150.444 248.495 150.452 248.473 150.46C248.306 150.522 248.139 150.587 247.973 150.654C247.942 150.666 247.912 150.677 247.881 150.69C247.721 150.754 247.561 150.822 247.4 150.89C247.364 150.906 247.328 150.921 247.291 150.937C247.137 151.003 246.984 151.073 246.83 151.143C246.788 151.163 246.745 151.182 246.702 151.202C246.554 151.27 246.408 151.342 246.261 151.414C246.213 151.438 246.164 151.461 246.115 151.485C245.974 151.555 245.834 151.629 245.695 151.703C245.64 151.731 245.586 151.759 245.531 151.788C245.397 151.86 245.264 151.935 245.131 152.011C245.071 152.044 245.012 152.077 244.952 152.111C244.825 152.184 244.699 152.261 244.572 152.337C244.507 152.377 244.443 152.414 244.378 152.454C244.257 152.529 244.136 152.608 244.015 152.686C243.947 152.73 243.879 152.773 243.811 152.818C243.695 152.895 243.58 152.976 243.465 153.056C243.394 153.105 243.322 153.153 243.251 153.204C243.141 153.283 243.031 153.365 242.921 153.447C242.848 153.502 242.773 153.555 242.7 153.611C242.594 153.693 242.49 153.777 242.385 153.861C242.309 153.921 242.233 153.98 242.158 154.042C242.057 154.126 241.956 154.213 241.856 154.299C241.792 154.354 241.727 154.406 241.664 154.462C241.655 154.47 241.647 154.479 241.638 154.486C241.618 154.504 241.597 154.521 241.576 154.539C240.471 155.525 239.598 156.803 239.05 158.236C239.006 158.35 238.958 158.458 238.908 158.565ZM254.583 159.522L253.234 156.94C255.255 157.818 256.672 159.832 256.672 162.172C256.672 165.316 254.114 167.873 250.971 167.873C247.827 167.873 245.269 165.316 245.269 162.172C245.269 161.697 245.329 161.234 245.44 160.786L246.882 163.546C247.657 165.029 249.173 165.878 250.74 165.878C251.418 165.878 252.105 165.719 252.745 165.385C254.868 164.275 255.693 161.645 254.583 159.522ZM252.123 161.97C252.007 162.341 251.753 162.645 251.408 162.826C250.695 163.197 249.813 162.921 249.441 162.209L246.715 156.993C246.713 156.988 246.711 156.984 246.708 156.979L245.697 155.044C245.762 155.003 245.827 154.963 245.891 154.923C245.976 154.871 246.06 154.819 246.146 154.768C246.274 154.692 246.402 154.617 246.531 154.544C246.573 154.521 246.615 154.498 246.657 154.474C247.188 154.181 247.728 153.915 248.27 153.676L252.024 160.859C252.204 161.204 252.239 161.599 252.123 161.97ZM250.971 173.313C244.827 173.313 239.829 168.315 239.829 162.172C239.829 162.137 239.83 162.1 239.83 162.064C240.136 161.796 240.416 161.502 240.668 161.181C240.682 161.163 240.697 161.144 240.711 161.126C240.81 160.997 240.906 160.864 240.996 160.727C241.044 160.656 241.091 160.583 241.137 160.509C241.175 160.446 241.213 160.383 241.25 160.319C241.328 160.182 241.402 160.042 241.472 159.898C241.491 159.859 241.509 159.819 241.527 159.78C241.605 159.613 241.679 159.444 241.747 159.268C242.101 158.34 242.66 157.501 243.368 156.821L243.743 157.54C242.861 158.917 242.381 160.529 242.381 162.172C242.381 166.908 246.234 170.761 250.97 170.761C255.706 170.761 259.559 166.908 259.559 162.172C259.559 157.61 255.984 153.869 251.488 153.6L251.004 152.673C252.416 152.251 253.787 151.975 255.024 151.794C259.278 153.456 262.112 157.582 262.112 162.172C262.112 168.315 257.114 173.313 250.971 173.313Z" fill="#444444"/>
</g>
<rect x="-0.5" y="-0.5" width="49" height="5" rx="2.5" transform="matrix(0 -1 -1 0 534 224)" fill="#A97449" stroke="#444444"/>
<rect x="-0.5" y="-0.5" width="49" height="5" rx="2.5" transform="matrix(0 -1 -1 0 400 224)" fill="#A97449" stroke="#444444"/>
<rect x="395.5" y="175.5" width="5" height="5" rx="2.5" fill="#2C2C2C" stroke="#444444"/>
<rect x="529.5" y="175.5" width="5" height="5" rx="2.5" fill="#2C2C2C" stroke="#444444"/>
<rect x="0.5" y="-0.5" width="49" height="5" rx="2.5" transform="matrix(1 0 0 -1 235 179)" fill="#A97449" stroke="#444444"/>
<rect x="0.5" y="-0.5" width="49" height="5" rx="2.5" transform="matrix(1 0 0 -1 145 179)" fill="#A97449" stroke="#444444"/>
<rect x="145.5" y="174.5" width="5" height="5" rx="2.5" fill="#2C2C2C" stroke="#444444"/>
<rect x="279.5" y="174.5" width="5" height="5" rx="2.5" fill="#2C2C2C" stroke="#444444"/>
</g>
<defs>
<clipPath id="clip0_5380_1834">
<rect width="680" height="408" fill="white"/>
</clipPath>
<clipPath id="clip1_5380_1834">
<rect width="100" height="100" fill="white" transform="translate(165 76)"/>
</clipPath>
</defs>
</svg>
