<svg width="71" height="100" viewBox="0 0 71 100" fill="none" xmlns="http://www.w3.org/2000/svg">
<path opacity="0.6" d="M19.7236 98.3166L19.7236 16.3325L1.72711 6.83434L1.72711 85.819L19.7236 98.3166Z" fill="#FAF2FF"/>
<path opacity="0.6" d="M1.22717 85.819L1.22717 6.83434L69.7139 6.83434L69.7139 85.819L1.22717 85.819Z" fill="#FAF2FF"/>
<path opacity="0.6" d="M1.55174 7.36721L19.4737 17.0823L69.464 7.36717L1.55174 7.36721Z" fill="#FAF2FF"/>
<path d="M1.47716 85.3191L19.2237 98.0666L69.464 85.3191L1.47716 85.3191Z" fill="#FFCCDB"/>
<line x1="68.2142" y1="85.625" x2="1.22717" y2="85.625" stroke="#C882FA" stroke-dasharray="2 2"/>
<path opacity="0.5" d="M69.214 85.819L69.214 6.83434L18.9738 16.5824L18.9738 97.8167L69.214 85.819Z" fill="#F4E5FF"/>
<path opacity="0.6" d="M1.47714 85.5689L1.47714 7.08414L18.9737 16.5823L18.9737 97.8165L1.47714 85.5689Z" fill="#FAF2FF"/>
<path d="M68.9641 6.89038L19.2237 16.8884" stroke="#C882FA"/>
<path d="M69.2141 85.3751L19.2237 97.8727" stroke="#C882FA"/>
<path d="M19.2238 98.1225L19.2238 16.8883" stroke="#C882FA"/>
<path d="M69.464 85.6251L69.214 6.89031" stroke="#C882FA"/>
<path d="M1.24994 85.6251L0.999987 6.89031" stroke="#C882FA"/>
<path d="M69.2141 6.89026L1.22724 6.89026" stroke="#C882FA"/>
<path d="M1.22724 6.89038L19.2238 16.8884" stroke="#C882FA"/>
<path d="M1.22724 85.1252L19.2238 97.8727" stroke="#C882FA"/>
</svg>
