<svg width="118" height="111" viewBox="0 0 118 111" fill="none" xmlns="http://www.w3.org/2000/svg">
<path d="M95.1287 64.619L95.1244 64.6277L87.9557 64.632L95.1287 64.619Z" fill="#803827"/>
<path opacity="0.7" d="M8.61425 80.578L47.144 57.8391L113.909 71.4473L75.3765 94.3982L8.61425 80.578Z" fill="#FFCCDB" stroke="#C882FA"/>
<path opacity="0.6" d="M113.595 70.4791L61.1629 6.04386L47.2651 57.0025L113.595 70.4791Z" fill="#FAF2FF" stroke="#C882FA"/>
<path opacity="0.6" d="M76.3126 94.42L60.9357 4.97388L8.09101 80.5591L76.3126 94.42Z" fill="#FAF2FF"/>
<path opacity="0.6" d="M9.62151 79.3694L47.29 56.8501L59.778 7.50798L9.62151 79.3694Z" fill="#FAF2FF" stroke="#C882FA"/>
<path opacity="0.7" d="M8.61424 80.578L47.1438 57.8393L113.696 71.4475L75.3754 94.398L8.61424 80.578Z" fill="#FFCCDB" stroke="#C882FA"/>
<path opacity="0.6" d="M114.324 71.1107L61.714 6.71538L75.3726 94.0885L114.324 71.1107Z" fill="#FAF2FF" stroke="#C882FA"/>
<path opacity="0.6" d="M8.5873 80.4139L74.8218 94.2572L60.9786 6.08646L8.5873 80.4139Z" fill="#FAF2FF" stroke="#C882FA"/>
</svg>
