<svg width="609" height="329" viewBox="0 0 609 329" fill="none" xmlns="http://www.w3.org/2000/svg">
<rect x="3" y="1" width="604" height="327" rx="19" fill="white" stroke="#EACCFF" stroke-width="2"/>
<line x1="281.5" y1="1.66381e-08" x2="281.5" y2="329" stroke="#EACCFF"/>
<line x1="248.5" y1="1.66381e-08" x2="248.5" y2="329" stroke="#EACCFF"/>
<line x1="248.5" y1="1.66381e-08" x2="248.5" y2="329" stroke="#EACCFF"/>
<line x1="215.5" y1="1.66381e-08" x2="215.5" y2="329" stroke="#EACCFF"/>
<line x1="215.5" y1="1.66381e-08" x2="215.5" y2="329" stroke="#EACCFF"/>
<line x1="182.5" y1="1.66381e-08" x2="182.5" y2="329" stroke="#EACCFF"/>
<line x1="182.5" y1="1.66381e-08" x2="182.5" y2="329" stroke="#EACCFF"/>
<line x1="149.5" y1="1.66381e-08" x2="149.5" y2="329" stroke="#EACCFF"/>
<line x1="149.5" y1="1.66381e-08" x2="149.5" y2="329" stroke="#EACCFF"/>
<line x1="116.5" y1="1.66381e-08" x2="116.5" y2="329" stroke="#EACCFF"/>
<line x1="116.5" y1="1.66381e-08" x2="116.5" y2="329" stroke="#EACCFF"/>
<line x1="83.5" y1="1.66381e-08" x2="83.5" y2="329" stroke="#EACCFF"/>
<line x1="83.5" y1="1.66381e-08" x2="83.5" y2="329" stroke="#EACCFF"/>
<line x1="50.5" y1="1.66381e-08" x2="50.5" y2="329" stroke="#EACCFF"/>
<line x1="50.5" y1="1.66381e-08" x2="50.5" y2="329" stroke="#EACCFF"/>
<line x1="17.5" y1="1.66381e-08" x2="17.5" y2="329" stroke="#EACCFF"/>
<line x1="314.5" y1="2.18557e-08" x2="314.5" y2="329" stroke="#EACCFF"/>
<line x1="281.5" y1="2.18557e-08" x2="281.5" y2="329" stroke="#EACCFF"/>
<line x1="347.5" y1="2.18557e-08" x2="347.5" y2="329" stroke="#EACCFF"/>
<line x1="314.5" y1="2.18557e-08" x2="314.5" y2="329" stroke="#EACCFF"/>
<line x1="380.5" y1="2.18557e-08" x2="380.5" y2="329" stroke="#EACCFF"/>
<line x1="347.5" y1="2.18557e-08" x2="347.5" y2="329" stroke="#EACCFF"/>
<line x1="413.5" y1="2.18557e-08" x2="413.5" y2="329" stroke="#EACCFF"/>
<line x1="380.5" y1="2.18557e-08" x2="380.5" y2="329" stroke="#EACCFF"/>
<line x1="446.5" y1="2.18557e-08" x2="446.5" y2="329" stroke="#EACCFF"/>
<line x1="413.5" y1="2.18557e-08" x2="413.5" y2="329" stroke="#EACCFF"/>
<line x1="479.5" y1="2.18557e-08" x2="479.5" y2="329" stroke="#EACCFF"/>
<line x1="446.5" y1="2.18557e-08" x2="446.5" y2="329" stroke="#EACCFF"/>
<line x1="512.5" y1="2.18557e-08" x2="512.5" y2="329" stroke="#EACCFF"/>
<line x1="479.5" y1="2.18557e-08" x2="479.5" y2="329" stroke="#EACCFF"/>
<line x1="545.5" y1="2.18557e-08" x2="545.5" y2="329" stroke="#EACCFF"/>
<line x1="512.5" y1="2.18557e-08" x2="512.5" y2="329" stroke="#EACCFF"/>
<line x1="578.5" y1="2.18557e-08" x2="578.5" y2="329" stroke="#EACCFF"/>
<line x1="545.5" y1="2.18557e-08" x2="545.5" y2="329" stroke="#EACCFF"/>
<line x1="578.5" y1="2.18557e-08" x2="578.5" y2="329" stroke="#EACCFF"/>
<line x1="3" y1="215.5" x2="604" y2="215.5" stroke="#EACCFF"/>
<line x1="5" y1="119.5" x2="604" y2="119.5" stroke="#EACCFF"/>
<line x1="5" y1="152.5" x2="604" y2="152.5" stroke="#EACCFF"/>
<line x1="1" y1="85.5" x2="607" y2="85.5" stroke="#EACCFF"/>
<line x1="1" y1="54.5" x2="607" y2="54.5" stroke="#EACCFF"/>
<line x1="1" y1="22.5" x2="607" y2="22.5" stroke="#EACCFF"/>
<line x1="5" y1="184.5" x2="604" y2="184.5" stroke="#EACCFF"/>
<line y1="282.5" x2="606" y2="282.5" stroke="#EACCFF"/>
<line x1="5" y1="315.5" x2="606" y2="315.5" stroke="#EACCFF"/>
<line x1="3" y1="247.5" x2="609" y2="247.5" stroke="#EACCFF"/>
</svg>
