<svg width="487" height="108" viewBox="0 0 487 108" fill="none" xmlns="http://www.w3.org/2000/svg">
<path d="M425.061 50.9393C424.475 50.3536 423.525 50.3536 422.939 50.9393L413.393 60.4853C412.808 61.0711 412.808 62.0208 413.393 62.6066C413.979 63.1924 414.929 63.1924 415.515 62.6066L424 54.1213L432.485 62.6066C433.071 63.1924 434.021 63.1924 434.607 62.6066C435.192 62.0208 435.192 61.0711 434.607 60.4853L425.061 50.9393ZM425.5 85L425.5 52L422.5 52L422.5 85L425.5 85Z" fill="#646464"/>
<path d="M389.82 106.2C388.793 106.2 387.9 105.993 387.14 105.58C386.38 105.153 385.793 104.553 385.38 103.78C384.967 103.007 384.76 102.1 384.76 101.06C384.76 100.273 384.873 99.5733 385.1 98.96C385.34 98.3333 385.68 97.8067 386.12 97.38C386.56 96.94 387.093 96.6067 387.72 96.38C388.347 96.14 389.047 96.02 389.82 96.02C390.26 96.02 390.733 96.08 391.24 96.2C391.76 96.32 392.247 96.52 392.7 96.8C392.913 96.9333 393.053 97.0933 393.12 97.28C393.187 97.4667 393.2 97.66 393.16 97.86C393.12 98.0467 393.033 98.2133 392.9 98.36C392.78 98.4933 392.627 98.58 392.44 98.62C392.253 98.6467 392.047 98.6 391.82 98.48C391.527 98.3067 391.227 98.18 390.92 98.1C390.613 98.0067 390.32 97.96 390.04 97.96C389.6 97.96 389.213 98.0333 388.88 98.18C388.547 98.3133 388.26 98.5133 388.02 98.78C387.793 99.0333 387.62 99.3533 387.5 99.74C387.38 100.127 387.32 100.573 387.32 101.08C387.32 102.067 387.553 102.847 388.02 103.42C388.5 103.98 389.173 104.26 390.04 104.26C390.32 104.26 390.607 104.22 390.9 104.14C391.207 104.06 391.513 103.933 391.82 103.76C392.047 103.64 392.247 103.6 392.42 103.64C392.607 103.68 392.76 103.773 392.88 103.92C393 104.053 393.073 104.22 393.1 104.42C393.127 104.607 393.1 104.793 393.02 104.98C392.953 105.167 392.82 105.32 392.62 105.44C392.18 105.707 391.713 105.9 391.22 106.02C390.727 106.14 390.26 106.2 389.82 106.2ZM398.998 106.2C397.985 106.2 397.105 105.993 396.358 105.58C395.612 105.167 395.032 104.58 394.618 103.82C394.205 103.047 393.998 102.14 393.998 101.1C393.998 100.313 394.112 99.6133 394.338 99C394.578 98.3733 394.918 97.84 395.358 97.4C395.798 96.9467 396.325 96.6067 396.938 96.38C397.552 96.14 398.238 96.02 398.998 96.02C400.012 96.02 400.892 96.2267 401.638 96.64C402.385 97.0533 402.965 97.64 403.378 98.4C403.792 99.16 403.998 100.06 403.998 101.1C403.998 101.887 403.878 102.593 403.638 103.22C403.412 103.847 403.078 104.387 402.638 104.84C402.198 105.28 401.672 105.62 401.058 105.86C400.445 106.087 399.758 106.2 398.998 106.2ZM398.998 104.3C399.492 104.3 399.925 104.18 400.298 103.94C400.672 103.7 400.958 103.347 401.158 102.88C401.372 102.4 401.478 101.807 401.478 101.1C401.478 100.033 401.252 99.24 400.798 98.72C400.345 98.1867 399.745 97.92 398.998 97.92C398.505 97.92 398.072 98.04 397.698 98.28C397.325 98.5067 397.032 98.86 396.818 99.34C396.618 99.8067 396.518 100.393 396.518 101.1C396.518 102.153 396.745 102.953 397.198 103.5C397.652 104.033 398.252 104.3 398.998 104.3ZM407.302 106.16C406.902 106.16 406.595 106.053 406.382 105.84C406.168 105.613 406.062 105.293 406.062 104.88V97.32C406.062 96.9067 406.168 96.5933 406.382 96.38C406.595 96.1667 406.895 96.06 407.282 96.06C407.668 96.06 407.968 96.1667 408.182 96.38C408.395 96.5933 408.502 96.9067 408.502 97.32V98.68L408.282 98.18C408.575 97.4733 409.028 96.94 409.642 96.58C410.268 96.2067 410.975 96.02 411.762 96.02C412.548 96.02 413.195 96.1667 413.702 96.46C414.208 96.7533 414.588 97.2 414.842 97.8C415.095 98.3867 415.222 99.1333 415.222 100.04V104.88C415.222 105.293 415.115 105.613 414.902 105.84C414.688 106.053 414.382 106.16 413.982 106.16C413.582 106.16 413.268 106.053 413.042 105.84C412.828 105.613 412.722 105.293 412.722 104.88V100.16C412.722 99.4 412.575 98.8467 412.282 98.5C412.002 98.1533 411.562 97.98 410.962 97.98C410.228 97.98 409.642 98.2133 409.202 98.68C408.775 99.1333 408.562 99.74 408.562 100.5V104.88C408.562 105.733 408.142 106.16 407.302 106.16ZM421.341 106.2C420.768 106.2 420.161 106.14 419.521 106.02C418.881 105.9 418.308 105.693 417.801 105.4C417.588 105.267 417.434 105.113 417.341 104.94C417.261 104.753 417.228 104.573 417.241 104.4C417.268 104.213 417.334 104.053 417.441 103.92C417.561 103.787 417.708 103.7 417.881 103.66C418.068 103.62 418.268 103.653 418.481 103.76C419.014 104.013 419.514 104.193 419.981 104.3C420.448 104.393 420.908 104.44 421.361 104.44C422.001 104.44 422.474 104.333 422.781 104.12C423.101 103.893 423.261 103.6 423.261 103.24C423.261 102.933 423.154 102.7 422.941 102.54C422.741 102.367 422.434 102.24 422.021 102.16L420.021 101.78C419.194 101.62 418.561 101.32 418.121 100.88C417.694 100.427 417.481 99.8467 417.481 99.14C417.481 98.5 417.654 97.9467 418.001 97.48C418.361 97.0133 418.854 96.6533 419.481 96.4C420.108 96.1467 420.828 96.02 421.641 96.02C422.228 96.02 422.774 96.0867 423.281 96.22C423.801 96.34 424.301 96.5333 424.781 96.8C424.981 96.9067 425.114 97.0467 425.181 97.22C425.261 97.3933 425.281 97.5733 425.241 97.76C425.201 97.9333 425.121 98.0933 425.001 98.24C424.881 98.3733 424.728 98.46 424.541 98.5C424.368 98.5267 424.168 98.4867 423.941 98.38C423.528 98.1667 423.128 98.0133 422.741 97.92C422.368 97.8267 422.008 97.78 421.661 97.78C421.008 97.78 420.521 97.8933 420.201 98.12C419.894 98.3467 419.741 98.6467 419.741 99.02C419.741 99.3 419.834 99.5333 420.021 99.72C420.208 99.9067 420.494 100.033 420.881 100.1L422.881 100.48C423.748 100.64 424.401 100.933 424.841 101.36C425.294 101.787 425.521 102.36 425.521 103.08C425.521 104.053 425.141 104.82 424.381 105.38C423.621 105.927 422.608 106.2 421.341 106.2ZM431.909 106.2C431.042 106.2 430.316 106.053 429.729 105.76C429.156 105.467 428.729 105.04 428.449 104.48C428.169 103.907 428.029 103.2 428.029 102.36V98.1H426.989C426.669 98.1 426.422 98.02 426.249 97.86C426.076 97.6867 425.989 97.4533 425.989 97.16C425.989 96.8533 426.076 96.62 426.249 96.46C426.422 96.3 426.669 96.22 426.989 96.22H428.029V94.4C428.029 93.9867 428.136 93.6733 428.349 93.46C428.576 93.2467 428.889 93.14 429.289 93.14C429.689 93.14 429.996 93.2467 430.209 93.46C430.422 93.6733 430.529 93.9867 430.529 94.4V96.22H432.649C432.969 96.22 433.216 96.3 433.389 96.46C433.562 96.62 433.649 96.8533 433.649 97.16C433.649 97.4533 433.562 97.6867 433.389 97.86C433.216 98.02 432.969 98.1 432.649 98.1H430.529V102.22C430.529 102.86 430.669 103.34 430.949 103.66C431.229 103.98 431.682 104.14 432.309 104.14C432.536 104.14 432.736 104.12 432.909 104.08C433.082 104.04 433.236 104.013 433.369 104C433.529 103.987 433.662 104.04 433.769 104.16C433.876 104.267 433.929 104.493 433.929 104.84C433.929 105.107 433.882 105.347 433.789 105.56C433.709 105.76 433.556 105.9 433.329 105.98C433.156 106.033 432.929 106.08 432.649 106.12C432.369 106.173 432.122 106.2 431.909 106.2ZM438.325 106.2C437.618 106.2 436.985 106.067 436.425 105.8C435.878 105.52 435.445 105.147 435.125 104.68C434.818 104.213 434.665 103.687 434.665 103.1C434.665 102.38 434.851 101.813 435.225 101.4C435.598 100.973 436.205 100.667 437.045 100.48C437.885 100.293 439.011 100.2 440.425 100.2H441.425V101.64H440.445C439.618 101.64 438.958 101.68 438.465 101.76C437.971 101.84 437.618 101.98 437.405 102.18C437.205 102.367 437.105 102.633 437.105 102.98C437.105 103.42 437.258 103.78 437.565 104.06C437.871 104.34 438.298 104.48 438.845 104.48C439.285 104.48 439.671 104.38 440.005 104.18C440.351 103.967 440.625 103.68 440.825 103.32C441.025 102.96 441.125 102.547 441.125 102.08V99.78C441.125 99.1133 440.978 98.6333 440.685 98.34C440.391 98.0467 439.898 97.9 439.205 97.9C438.818 97.9 438.398 97.9467 437.945 98.04C437.505 98.1333 437.038 98.2933 436.545 98.52C436.291 98.64 436.065 98.6733 435.865 98.62C435.678 98.5667 435.531 98.46 435.425 98.3C435.318 98.1267 435.265 97.94 435.265 97.74C435.265 97.54 435.318 97.3467 435.425 97.16C435.531 96.96 435.711 96.8133 435.965 96.72C436.578 96.4667 437.165 96.2867 437.725 96.18C438.298 96.0733 438.818 96.02 439.285 96.02C440.245 96.02 441.031 96.1667 441.645 96.46C442.271 96.7533 442.738 97.2 443.045 97.8C443.351 98.3867 443.505 99.1467 443.505 100.08V104.88C443.505 105.293 443.405 105.613 443.205 105.84C443.005 106.053 442.718 106.16 442.345 106.16C441.971 106.16 441.678 106.053 441.465 105.84C441.265 105.613 441.165 105.293 441.165 104.88V103.92H441.325C441.231 104.387 441.045 104.793 440.765 105.14C440.498 105.473 440.158 105.733 439.745 105.92C439.331 106.107 438.858 106.2 438.325 106.2ZM447.282 106.16C446.882 106.16 446.576 106.053 446.362 105.84C446.149 105.613 446.042 105.293 446.042 104.88V97.32C446.042 96.9067 446.149 96.5933 446.362 96.38C446.576 96.1667 446.876 96.06 447.262 96.06C447.649 96.06 447.949 96.1667 448.162 96.38C448.376 96.5933 448.482 96.9067 448.482 97.32V98.68L448.262 98.18C448.556 97.4733 449.009 96.94 449.622 96.58C450.249 96.2067 450.956 96.02 451.742 96.02C452.529 96.02 453.176 96.1667 453.682 96.46C454.189 96.7533 454.569 97.2 454.822 97.8C455.076 98.3867 455.202 99.1333 455.202 100.04V104.88C455.202 105.293 455.096 105.613 454.882 105.84C454.669 106.053 454.362 106.16 453.962 106.16C453.562 106.16 453.249 106.053 453.022 105.84C452.809 105.613 452.702 105.293 452.702 104.88V100.16C452.702 99.4 452.556 98.8467 452.262 98.5C451.982 98.1533 451.542 97.98 450.942 97.98C450.209 97.98 449.622 98.2133 449.182 98.68C448.756 99.1333 448.542 99.74 448.542 100.5V104.88C448.542 105.733 448.122 106.16 447.282 106.16ZM462.221 106.2C461.355 106.2 460.628 106.053 460.041 105.76C459.468 105.467 459.041 105.04 458.761 104.48C458.481 103.907 458.341 103.2 458.341 102.36V98.1H457.301C456.981 98.1 456.735 98.02 456.561 97.86C456.388 97.6867 456.301 97.4533 456.301 97.16C456.301 96.8533 456.388 96.62 456.561 96.46C456.735 96.3 456.981 96.22 457.301 96.22H458.341V94.4C458.341 93.9867 458.448 93.6733 458.661 93.46C458.888 93.2467 459.201 93.14 459.601 93.14C460.001 93.14 460.308 93.2467 460.521 93.46C460.735 93.6733 460.841 93.9867 460.841 94.4V96.22H462.961C463.281 96.22 463.528 96.3 463.701 96.46C463.875 96.62 463.961 96.8533 463.961 97.16C463.961 97.4533 463.875 97.6867 463.701 97.86C463.528 98.02 463.281 98.1 462.961 98.1H460.841V102.22C460.841 102.86 460.981 103.34 461.261 103.66C461.541 103.98 461.995 104.14 462.621 104.14C462.848 104.14 463.048 104.12 463.221 104.08C463.395 104.04 463.548 104.013 463.681 104C463.841 103.987 463.975 104.04 464.081 104.16C464.188 104.267 464.241 104.493 464.241 104.84C464.241 105.107 464.195 105.347 464.101 105.56C464.021 105.76 463.868 105.9 463.641 105.98C463.468 106.033 463.241 106.08 462.961 106.12C462.681 106.173 462.435 106.2 462.221 106.2Z" fill="#646464"/>
<rect x="305" y="5" width="59" height="28" rx="5" fill="#646464"/>
<rect x="306" y="39" width="59" height="28" rx="5" fill="#8C69FF"/>
<path d="M6.58 22C6.31333 22 6.10667 21.9267 5.96 21.78C5.81333 21.62 5.74 21.4067 5.74 21.14V8.66C5.74 8.38 5.80667 8.16667 5.94 8.02C6.08667 7.87333 6.29333 7.8 6.56 7.8C6.82667 7.8 7.02667 7.87333 7.16 8.02C7.30667 8.16667 7.38 8.38 7.38 8.66V20.56H13.94C14.18 20.56 14.3667 20.6267 14.5 20.76C14.6333 20.88 14.7 21.0533 14.7 21.28C14.7 21.5067 14.6333 21.6867 14.5 21.82C14.3667 21.94 14.18 22 13.94 22H6.58ZM20.6617 22.18C19.6351 22.18 18.7484 21.98 18.0017 21.58C17.2684 21.1667 16.6951 20.5867 16.2817 19.84C15.8817 19.0933 15.6817 18.2 15.6817 17.16C15.6817 16.1467 15.8817 15.2667 16.2817 14.52C16.6817 13.76 17.2284 13.1667 17.9217 12.74C18.6284 12.3133 19.4417 12.1 20.3617 12.1C21.0151 12.1 21.6017 12.2133 22.1217 12.44C22.6417 12.6533 23.0817 12.9667 23.4417 13.38C23.8151 13.7933 24.0951 14.2933 24.2817 14.88C24.4817 15.4667 24.5817 16.1267 24.5817 16.86C24.5817 17.0733 24.5217 17.2333 24.4017 17.34C24.2817 17.4333 24.1084 17.48 23.8817 17.48H16.9217V16.42H23.5017L23.1817 16.68C23.1817 15.96 23.0751 15.3533 22.8617 14.86C22.6484 14.3533 22.3351 13.9667 21.9217 13.7C21.5217 13.4333 21.0151 13.3 20.4017 13.3C19.7217 13.3 19.1417 13.46 18.6617 13.78C18.1951 14.0867 17.8417 14.52 17.6017 15.08C17.3617 15.6267 17.2417 16.2667 17.2417 17V17.12C17.2417 18.3467 17.5351 19.28 18.1217 19.92C18.7217 20.56 19.5684 20.88 20.6617 20.88C21.1151 20.88 21.5617 20.82 22.0017 20.7C22.4551 20.58 22.8951 20.38 23.3217 20.1C23.5084 19.98 23.6751 19.9267 23.8217 19.94C23.9817 19.94 24.1084 19.9867 24.2017 20.08C24.2951 20.16 24.3551 20.2667 24.3817 20.4C24.4217 20.52 24.4084 20.6533 24.3417 20.8C24.2884 20.9467 24.1751 21.0733 24.0017 21.18C23.5617 21.5 23.0417 21.7467 22.4417 21.92C21.8417 22.0933 21.2484 22.18 20.6617 22.18ZM27.7263 22.14C27.4596 22.14 27.2596 22.0667 27.1263 21.92C26.9929 21.7733 26.9263 21.5667 26.9263 21.3V12.96C26.9263 12.6933 26.9929 12.4933 27.1263 12.36C27.2596 12.2133 27.4529 12.14 27.7063 12.14C27.9596 12.14 28.1529 12.2133 28.2863 12.36C28.4329 12.4933 28.5063 12.6933 28.5063 12.96V14.68L28.2863 14.44C28.5663 13.6667 29.0196 13.0867 29.6463 12.7C30.2863 12.3 31.0196 12.1 31.8463 12.1C32.6196 12.1 33.2596 12.24 33.7663 12.52C34.2863 12.8 34.6729 13.2267 34.9263 13.8C35.1796 14.36 35.3063 15.0733 35.3063 15.94V21.3C35.3063 21.5667 35.2329 21.7733 35.0863 21.92C34.9529 22.0667 34.7596 22.14 34.5063 22.14C34.2396 22.14 34.0329 22.0667 33.8863 21.92C33.7529 21.7733 33.6863 21.5667 33.6863 21.3V16.04C33.6863 15.1333 33.5063 14.4733 33.1463 14.06C32.7996 13.6333 32.2396 13.42 31.4663 13.42C30.5729 13.42 29.8596 13.7 29.3263 14.26C28.8063 14.8067 28.5463 15.54 28.5463 16.46V21.3C28.5463 21.86 28.2729 22.14 27.7263 22.14ZM42.5934 25.78C41.8868 25.78 41.1934 25.6933 40.5134 25.52C39.8468 25.36 39.2401 25.1 38.6934 24.74C38.5334 24.6467 38.4268 24.5333 38.3734 24.4C38.3334 24.2667 38.3268 24.1333 38.3534 24C38.3801 23.88 38.4401 23.7667 38.5334 23.66C38.6268 23.5667 38.7334 23.5067 38.8534 23.48C38.9868 23.4533 39.1201 23.4733 39.2534 23.54C39.8401 23.9 40.4001 24.1467 40.9334 24.28C41.4668 24.4133 41.9934 24.48 42.5134 24.48C43.4601 24.48 44.1734 24.2267 44.6534 23.72C45.1468 23.2133 45.3934 22.48 45.3934 21.52V19.26H45.5934C45.3934 20.0333 44.9668 20.6467 44.3134 21.1C43.6734 21.5533 42.9201 21.78 42.0534 21.78C41.1601 21.78 40.3868 21.58 39.7334 21.18C39.0801 20.7667 38.5734 20.1933 38.2134 19.46C37.8668 18.7267 37.6934 17.88 37.6934 16.92C37.6934 16.2 37.7934 15.5467 37.9934 14.96C38.1934 14.36 38.4801 13.8533 38.8534 13.44C39.2401 13.0133 39.7001 12.6867 40.2334 12.46C40.7801 12.22 41.3868 12.1 42.0534 12.1C42.9334 12.1 43.6934 12.3267 44.3334 12.78C44.9734 13.22 45.3868 13.82 45.5734 14.58L45.3734 14.82V12.96C45.3734 12.6933 45.4401 12.4933 45.5734 12.36C45.7201 12.2133 45.9201 12.14 46.1734 12.14C46.4401 12.14 46.6401 12.2133 46.7734 12.36C46.9068 12.4933 46.9734 12.6933 46.9734 12.96V21.3C46.9734 22.78 46.6001 23.8933 45.8534 24.64C45.1201 25.4 44.0334 25.78 42.5934 25.78ZM42.3534 20.46C42.9801 20.46 43.5201 20.32 43.9734 20.04C44.4268 19.7467 44.7734 19.3333 45.0134 18.8C45.2668 18.2667 45.3934 17.64 45.3934 16.92C45.3934 15.84 45.1201 14.9867 44.5734 14.36C44.0268 13.72 43.2868 13.4 42.3534 13.4C41.7401 13.4 41.2068 13.5467 40.7534 13.84C40.3001 14.12 39.9468 14.5267 39.6934 15.06C39.4534 15.58 39.3334 16.2 39.3334 16.92C39.3334 18 39.6068 18.86 40.1534 19.5C40.7001 20.14 41.4334 20.46 42.3534 20.46ZM53.9122 22.18C53.1522 22.18 52.5122 22.0467 51.9922 21.78C51.4855 21.5 51.1055 21.1 50.8522 20.58C50.5989 20.0467 50.4722 19.4 50.4722 18.64V13.54H49.1322C48.9055 13.54 48.7322 13.4867 48.6122 13.38C48.4922 13.26 48.4322 13.1 48.4322 12.9C48.4322 12.7 48.4922 12.5467 48.6122 12.44C48.7322 12.3333 48.9055 12.28 49.1322 12.28H50.4722V9.98C50.4722 9.71333 50.5455 9.51333 50.6922 9.38C50.8389 9.23333 51.0389 9.16 51.2922 9.16C51.5455 9.16 51.7389 9.23333 51.8722 9.38C52.0189 9.51333 52.0922 9.71333 52.0922 9.98V12.28H54.6122C54.8389 12.28 55.0122 12.3333 55.1322 12.44C55.2522 12.5467 55.3122 12.7 55.3122 12.9C55.3122 13.1 55.2522 13.26 55.1322 13.38C55.0122 13.4867 54.8389 13.54 54.6122 13.54H52.0922V18.48C52.0922 19.24 52.2522 19.82 52.5722 20.22C52.8922 20.6067 53.4122 20.8 54.1322 20.8C54.3855 20.8 54.5989 20.7733 54.7722 20.72C54.9589 20.6667 55.1122 20.64 55.2322 20.64C55.3522 20.6267 55.4522 20.6667 55.5322 20.76C55.6122 20.8533 55.6522 21.0133 55.6522 21.24C55.6522 21.4 55.6189 21.5467 55.5522 21.68C55.4989 21.8133 55.3989 21.9067 55.2522 21.96C55.0922 22.0133 54.8789 22.06 54.6122 22.1C54.3589 22.1533 54.1255 22.18 53.9122 22.18ZM57.9216 22.14C57.6549 22.14 57.4549 22.0667 57.3216 21.92C57.1882 21.7733 57.1216 21.5667 57.1216 21.3V8.58C57.1216 8.31333 57.1882 8.11333 57.3216 7.98C57.4549 7.83333 57.6549 7.76 57.9216 7.76C58.1749 7.76 58.3749 7.83333 58.5216 7.98C58.6682 8.11333 58.7416 8.31333 58.7416 8.58V14.44H58.4816C58.7616 13.6667 59.2149 13.0867 59.8416 12.7C60.4816 12.3 61.2149 12.1 62.0416 12.1C62.8149 12.1 63.4549 12.24 63.9616 12.52C64.4816 12.8 64.8682 13.2267 65.1216 13.8C65.3749 14.36 65.5016 15.0733 65.5016 15.94V21.3C65.5016 21.5667 65.4282 21.7733 65.2816 21.92C65.1482 22.0667 64.9549 22.14 64.7016 22.14C64.4349 22.14 64.2282 22.0667 64.0816 21.92C63.9482 21.7733 63.8816 21.5667 63.8816 21.3V16.04C63.8816 15.1333 63.7016 14.4733 63.3416 14.06C62.9949 13.6333 62.4349 13.42 61.6616 13.42C60.7682 13.42 60.0549 13.7 59.5216 14.26C59.0016 14.8067 58.7416 15.54 58.7416 16.46V21.3C58.7416 21.86 58.4682 22.14 57.9216 22.14ZM77.685 22.18C76.7383 22.18 75.9183 21.9733 75.225 21.56C74.5317 21.1467 73.9917 20.5667 73.605 19.82C73.2317 19.06 73.045 18.1667 73.045 17.14C73.045 16.3667 73.1517 15.6733 73.365 15.06C73.5783 14.4333 73.8917 13.9 74.305 13.46C74.7183 13.02 75.205 12.6867 75.765 12.46C76.3383 12.22 76.9783 12.1 77.685 12.1C78.6317 12.1 79.4517 12.3067 80.145 12.72C80.8383 13.1333 81.3717 13.72 81.745 14.48C82.1317 15.2267 82.325 16.1133 82.325 17.14C82.325 17.9133 82.2183 18.6067 82.005 19.22C81.7917 19.8333 81.4783 20.3667 81.065 20.82C80.6517 21.26 80.1583 21.6 79.585 21.84C79.025 22.0667 78.3917 22.18 77.685 22.18ZM77.685 20.88C78.285 20.88 78.8117 20.7333 79.265 20.44C79.7183 20.1467 80.065 19.72 80.305 19.16C80.5583 18.6 80.685 17.9267 80.685 17.14C80.685 15.9267 80.4117 15 79.865 14.36C79.3317 13.72 78.605 13.4 77.685 13.4C77.0717 13.4 76.5383 13.5467 76.085 13.84C75.645 14.12 75.2983 14.54 75.045 15.1C74.805 15.6467 74.685 16.3267 74.685 17.14C74.685 18.34 74.9583 19.2667 75.505 19.92C76.0517 20.56 76.7783 20.88 77.685 20.88ZM85.9806 22.14C85.7273 22.14 85.5273 22.0667 85.3806 21.92C85.2473 21.7733 85.1806 21.5667 85.1806 21.3V13.54H83.9006C83.6873 13.54 83.514 13.4867 83.3806 13.38C83.2606 13.26 83.2006 13.1 83.2006 12.9C83.2006 12.7 83.2606 12.5467 83.3806 12.44C83.514 12.3333 83.6873 12.28 83.9006 12.28H85.6206L85.1806 12.7V11.94C85.1806 10.6733 85.4873 9.70667 86.1006 9.04C86.7273 8.37333 87.6406 7.98667 88.8406 7.88L89.4206 7.82C89.6073 7.80667 89.754 7.84 89.8606 7.92C89.9806 8 90.054 8.1 90.0806 8.22C90.1206 8.34 90.1273 8.46667 90.1006 8.6C90.074 8.72 90.014 8.82667 89.9206 8.92C89.8273 9.01333 89.714 9.06667 89.5806 9.08L89.1206 9.12C88.3073 9.18667 87.714 9.43333 87.3406 9.86C86.9806 10.2867 86.8006 10.9133 86.8006 11.74V12.58L86.5606 12.28H88.9606C89.1873 12.28 89.3606 12.3333 89.4806 12.44C89.6006 12.5467 89.6606 12.7 89.6606 12.9C89.6606 13.1 89.6006 13.26 89.4806 13.38C89.3606 13.4867 89.1873 13.54 88.9606 13.54H86.8006V21.3C86.8006 21.86 86.5273 22.14 85.9806 22.14ZM99.917 22.18C99.1304 22.18 98.477 22.04 97.957 21.76C97.4504 21.4667 97.0637 21.0333 96.797 20.46C96.5437 19.8867 96.417 19.1733 96.417 18.32V12.96C96.417 12.68 96.4837 12.4733 96.617 12.34C96.7637 12.2067 96.9637 12.14 97.217 12.14C97.4837 12.14 97.6837 12.2067 97.817 12.34C97.9637 12.4733 98.037 12.68 98.037 12.96V18.3C98.037 19.1533 98.2104 19.7933 98.557 20.22C98.917 20.6333 99.477 20.84 100.237 20.84C101.064 20.84 101.737 20.56 102.257 20C102.777 19.44 103.037 18.7067 103.037 17.8V12.96C103.037 12.68 103.104 12.4733 103.237 12.34C103.384 12.2067 103.59 12.14 103.857 12.14C104.11 12.14 104.304 12.2067 104.437 12.34C104.584 12.4733 104.657 12.68 104.657 12.96V21.3C104.657 21.86 104.397 22.14 103.877 22.14C103.624 22.14 103.424 22.0667 103.277 21.92C103.144 21.7733 103.077 21.5667 103.077 21.3V19.48L103.337 19.76C103.07 20.5467 102.63 21.1467 102.017 21.56C101.417 21.9733 100.717 22.18 99.917 22.18ZM108.488 22.14C108.221 22.14 108.021 22.0667 107.888 21.92C107.755 21.7733 107.688 21.5667 107.688 21.3V12.96C107.688 12.6933 107.755 12.4933 107.888 12.36C108.021 12.2133 108.215 12.14 108.468 12.14C108.721 12.14 108.915 12.2133 109.048 12.36C109.195 12.4933 109.268 12.6933 109.268 12.96V14.68L109.048 14.44C109.328 13.6667 109.781 13.0867 110.408 12.7C111.048 12.3 111.781 12.1 112.608 12.1C113.381 12.1 114.021 12.24 114.528 12.52C115.048 12.8 115.435 13.2267 115.688 13.8C115.941 14.36 116.068 15.0733 116.068 15.94V21.3C116.068 21.5667 115.995 21.7733 115.848 21.92C115.715 22.0667 115.521 22.14 115.268 22.14C115.001 22.14 114.795 22.0667 114.648 21.92C114.515 21.7733 114.448 21.5667 114.448 21.3V16.04C114.448 15.1333 114.268 14.4733 113.908 14.06C113.561 13.6333 113.001 13.42 112.228 13.42C111.335 13.42 110.621 13.7 110.088 14.26C109.568 14.8067 109.308 15.54 109.308 16.46V21.3C109.308 21.86 109.035 22.14 108.488 22.14ZM122.318 22.14C122.091 22.14 121.891 22.08 121.718 21.96C121.544 21.84 121.404 21.6467 121.298 21.38L118.318 13.28C118.238 13.0533 118.211 12.8533 118.238 12.68C118.278 12.5067 118.364 12.3733 118.498 12.28C118.631 12.1867 118.798 12.14 118.998 12.14C119.198 12.14 119.358 12.1867 119.478 12.28C119.611 12.3733 119.718 12.5467 119.798 12.8L122.598 20.8H122.118L124.998 12.8C125.091 12.56 125.204 12.3933 125.338 12.3C125.484 12.1933 125.671 12.14 125.898 12.14C126.111 12.14 126.291 12.1933 126.438 12.3C126.584 12.4067 126.698 12.5733 126.778 12.8L129.598 20.8H129.138L131.978 12.76C132.071 12.52 132.184 12.36 132.318 12.28C132.451 12.1867 132.611 12.14 132.798 12.14C133.011 12.14 133.171 12.1933 133.278 12.3C133.398 12.4067 133.464 12.5467 133.478 12.72C133.491 12.8933 133.458 13.08 133.378 13.28L130.398 21.38C130.304 21.6333 130.164 21.8267 129.978 21.96C129.804 22.08 129.604 22.14 129.378 22.14C129.151 22.14 128.951 22.08 128.778 21.96C128.604 21.8267 128.471 21.6333 128.378 21.38L125.418 13.26H126.278L123.338 21.38C123.244 21.6333 123.111 21.8267 122.938 21.96C122.764 22.08 122.558 22.14 122.318 22.14ZM136.594 22.14C136.327 22.14 136.121 22.0667 135.974 21.92C135.841 21.7733 135.774 21.5667 135.774 21.3V12.96C135.774 12.6933 135.841 12.4933 135.974 12.36C136.107 12.2133 136.301 12.14 136.554 12.14C136.807 12.14 137.001 12.2133 137.134 12.36C137.281 12.4933 137.354 12.6933 137.354 12.96V14.58H137.154C137.367 13.7933 137.774 13.1867 138.374 12.76C138.974 12.3333 139.714 12.1067 140.594 12.08C140.794 12.0667 140.954 12.1133 141.074 12.22C141.194 12.3133 141.261 12.48 141.274 12.72C141.287 12.9467 141.234 13.1267 141.114 13.26C140.994 13.3933 140.807 13.4733 140.554 13.5L140.234 13.54C139.327 13.62 138.627 13.9133 138.134 14.42C137.654 14.9133 137.414 15.5933 137.414 16.46V21.3C137.414 21.5667 137.341 21.7733 137.194 21.92C137.061 22.0667 136.861 22.14 136.594 22.14ZM145.904 22.18C145.238 22.18 144.638 22.0533 144.104 21.8C143.584 21.5333 143.171 21.1733 142.864 20.72C142.558 20.2667 142.404 19.76 142.404 19.2C142.404 18.48 142.584 17.9133 142.944 17.5C143.318 17.0867 143.924 16.7933 144.764 16.62C145.618 16.4467 146.778 16.36 148.244 16.36H149.144V17.42H148.264C147.184 17.42 146.331 17.4733 145.704 17.58C145.091 17.6733 144.658 17.84 144.404 18.08C144.164 18.32 144.044 18.66 144.044 19.1C144.044 19.6467 144.231 20.0933 144.604 20.44C144.991 20.7867 145.511 20.96 146.164 20.96C146.698 20.96 147.164 20.8333 147.564 20.58C147.978 20.3267 148.298 19.98 148.524 19.54C148.764 19.1 148.884 18.5933 148.884 18.02V15.74C148.884 14.9133 148.718 14.32 148.384 13.96C148.051 13.5867 147.504 13.4 146.744 13.4C146.278 13.4 145.811 13.46 145.344 13.58C144.878 13.7 144.384 13.8933 143.864 14.16C143.678 14.2533 143.518 14.2867 143.384 14.26C143.251 14.22 143.144 14.1467 143.064 14.04C142.984 13.9333 142.938 13.8133 142.924 13.68C142.911 13.5333 142.938 13.3933 143.004 13.26C143.084 13.1267 143.204 13.02 143.364 12.94C143.951 12.6467 144.531 12.4333 145.104 12.3C145.678 12.1667 146.224 12.1 146.744 12.1C147.584 12.1 148.278 12.24 148.824 12.52C149.371 12.7867 149.778 13.2 150.044 13.76C150.311 14.3067 150.444 15.0133 150.444 15.88V21.3C150.444 21.5667 150.378 21.7733 150.244 21.92C150.124 22.0667 149.944 22.14 149.704 22.14C149.451 22.14 149.258 22.0667 149.124 21.92C148.991 21.7733 148.924 21.5667 148.924 21.3V19.74H149.104C148.998 20.2467 148.791 20.68 148.484 21.04C148.191 21.4 147.824 21.68 147.384 21.88C146.944 22.08 146.451 22.18 145.904 22.18ZM154.25 25.74C153.983 25.74 153.783 25.6667 153.65 25.52C153.516 25.3867 153.45 25.1867 153.45 24.92V12.96C153.45 12.6933 153.516 12.4933 153.65 12.36C153.783 12.2133 153.976 12.14 154.23 12.14C154.496 12.14 154.696 12.2133 154.83 12.36C154.976 12.4933 155.05 12.6933 155.05 12.96V14.86L154.83 14.58C155.043 13.82 155.463 13.22 156.09 12.78C156.73 12.3267 157.49 12.1 158.37 12.1C159.236 12.1 159.99 12.3067 160.63 12.72C161.283 13.12 161.783 13.7 162.13 14.46C162.49 15.2067 162.67 16.1 162.67 17.14C162.67 18.1667 162.49 19.06 162.13 19.82C161.783 20.5667 161.29 21.1467 160.65 21.56C160.01 21.9733 159.25 22.18 158.37 22.18C157.49 22.18 156.736 21.96 156.11 21.52C155.483 21.0667 155.056 20.4667 154.83 19.72H155.07V24.92C155.07 25.1867 154.996 25.3867 154.85 25.52C154.703 25.6667 154.503 25.74 154.25 25.74ZM158.03 20.88C158.643 20.88 159.17 20.7333 159.61 20.44C160.063 20.1467 160.41 19.72 160.65 19.16C160.903 18.6 161.03 17.9267 161.03 17.14C161.03 15.9267 160.756 15 160.21 14.36C159.676 13.72 158.95 13.4 158.03 13.4C157.43 13.4 156.903 13.5467 156.45 13.84C155.996 14.12 155.643 14.54 155.39 15.1C155.15 15.6467 155.03 16.3267 155.03 17.14C155.03 18.34 155.303 19.2667 155.85 19.92C156.396 20.56 157.123 20.88 158.03 20.88ZM165.91 25.74C165.643 25.74 165.443 25.6667 165.31 25.52C165.177 25.3867 165.11 25.1867 165.11 24.92V12.96C165.11 12.6933 165.177 12.4933 165.31 12.36C165.443 12.2133 165.637 12.14 165.89 12.14C166.157 12.14 166.357 12.2133 166.49 12.36C166.637 12.4933 166.71 12.6933 166.71 12.96V14.86L166.49 14.58C166.703 13.82 167.123 13.22 167.75 12.78C168.39 12.3267 169.15 12.1 170.03 12.1C170.897 12.1 171.65 12.3067 172.29 12.72C172.943 13.12 173.443 13.7 173.79 14.46C174.15 15.2067 174.33 16.1 174.33 17.14C174.33 18.1667 174.15 19.06 173.79 19.82C173.443 20.5667 172.95 21.1467 172.31 21.56C171.67 21.9733 170.91 22.18 170.03 22.18C169.15 22.18 168.397 21.96 167.77 21.52C167.143 21.0667 166.717 20.4667 166.49 19.72H166.73V24.92C166.73 25.1867 166.657 25.3867 166.51 25.52C166.363 25.6667 166.163 25.74 165.91 25.74ZM169.69 20.88C170.303 20.88 170.83 20.7333 171.27 20.44C171.723 20.1467 172.07 19.72 172.31 19.16C172.563 18.6 172.69 17.9267 172.69 17.14C172.69 15.9267 172.417 15 171.87 14.36C171.337 13.72 170.61 13.4 169.69 13.4C169.09 13.4 168.563 13.5467 168.11 13.84C167.657 14.12 167.303 14.54 167.05 15.1C166.81 15.6467 166.69 16.3267 166.69 17.14C166.69 18.34 166.963 19.2667 167.51 19.92C168.057 20.56 168.783 20.88 169.69 20.88ZM181.15 22.18C180.123 22.18 179.237 21.98 178.49 21.58C177.757 21.1667 177.183 20.5867 176.77 19.84C176.37 19.0933 176.17 18.2 176.17 17.16C176.17 16.1467 176.37 15.2667 176.77 14.52C177.17 13.76 177.717 13.1667 178.41 12.74C179.117 12.3133 179.93 12.1 180.85 12.1C181.503 12.1 182.09 12.2133 182.61 12.44C183.13 12.6533 183.57 12.9667 183.93 13.38C184.303 13.7933 184.583 14.2933 184.77 14.88C184.97 15.4667 185.07 16.1267 185.07 16.86C185.07 17.0733 185.01 17.2333 184.89 17.34C184.77 17.4333 184.597 17.48 184.37 17.48H177.41V16.42H183.99L183.67 16.68C183.67 15.96 183.563 15.3533 183.35 14.86C183.137 14.3533 182.823 13.9667 182.41 13.7C182.01 13.4333 181.503 13.3 180.89 13.3C180.21 13.3 179.63 13.46 179.15 13.78C178.683 14.0867 178.33 14.52 178.09 15.08C177.85 15.6267 177.73 16.2667 177.73 17V17.12C177.73 18.3467 178.023 19.28 178.61 19.92C179.21 20.56 180.057 20.88 181.15 20.88C181.603 20.88 182.05 20.82 182.49 20.7C182.943 20.58 183.383 20.38 183.81 20.1C183.997 19.98 184.163 19.9267 184.31 19.94C184.47 19.94 184.597 19.9867 184.69 20.08C184.783 20.16 184.843 20.2667 184.87 20.4C184.91 20.52 184.897 20.6533 184.83 20.8C184.777 20.9467 184.663 21.0733 184.49 21.18C184.05 21.5 183.53 21.7467 182.93 21.92C182.33 22.0933 181.737 22.18 181.15 22.18ZM191.115 22.18C190.248 22.18 189.488 21.9733 188.835 21.56C188.195 21.1467 187.695 20.5667 187.335 19.82C186.988 19.06 186.815 18.1667 186.815 17.14C186.815 16.1 186.988 15.2067 187.335 14.46C187.695 13.7 188.195 13.12 188.835 12.72C189.488 12.3067 190.248 12.1 191.115 12.1C191.995 12.1 192.748 12.32 193.375 12.76C194.001 13.2 194.421 13.7933 194.635 14.54H194.415V8.58C194.415 8.31333 194.481 8.11333 194.615 7.98C194.761 7.83333 194.968 7.76 195.235 7.76C195.488 7.76 195.681 7.83333 195.815 7.98C195.961 8.11333 196.035 8.31333 196.035 8.58V21.3C196.035 21.5667 195.968 21.7733 195.835 21.92C195.701 22.0667 195.501 22.14 195.235 22.14C194.981 22.14 194.781 22.0667 194.635 21.92C194.501 21.7733 194.435 21.5667 194.435 21.3V19.4L194.655 19.68C194.441 20.44 194.015 21.0467 193.375 21.5C192.748 21.9533 191.995 22.18 191.115 22.18ZM191.455 20.88C192.055 20.88 192.581 20.7333 193.035 20.44C193.488 20.1467 193.835 19.72 194.075 19.16C194.328 18.6 194.455 17.9267 194.455 17.14C194.455 15.9267 194.181 15 193.635 14.36C193.101 13.72 192.375 13.4 191.455 13.4C190.841 13.4 190.308 13.5467 189.855 13.84C189.415 14.12 189.068 14.54 188.815 15.1C188.575 15.6467 188.455 16.3267 188.455 17.14C188.455 18.34 188.728 19.2667 189.275 19.92C189.821 20.56 190.548 20.88 191.455 20.88ZM205.031 25.74C204.764 25.74 204.564 25.6667 204.431 25.52C204.298 25.3867 204.231 25.1867 204.231 24.92V12.96C204.231 12.6933 204.298 12.4933 204.431 12.36C204.564 12.2133 204.758 12.14 205.011 12.14C205.278 12.14 205.478 12.2133 205.611 12.36C205.758 12.4933 205.831 12.6933 205.831 12.96V14.86L205.611 14.58C205.824 13.82 206.244 13.22 206.871 12.78C207.511 12.3267 208.271 12.1 209.151 12.1C210.018 12.1 210.771 12.3067 211.411 12.72C212.064 13.12 212.564 13.7 212.911 14.46C213.271 15.2067 213.451 16.1 213.451 17.14C213.451 18.1667 213.271 19.06 212.911 19.82C212.564 20.5667 212.071 21.1467 211.431 21.56C210.791 21.9733 210.031 22.18 209.151 22.18C208.271 22.18 207.518 21.96 206.891 21.52C206.264 21.0667 205.838 20.4667 205.611 19.72H205.851V24.92C205.851 25.1867 205.778 25.3867 205.631 25.52C205.484 25.6667 205.284 25.74 205.031 25.74ZM208.811 20.88C209.424 20.88 209.951 20.7333 210.391 20.44C210.844 20.1467 211.191 19.72 211.431 19.16C211.684 18.6 211.811 17.9267 211.811 17.14C211.811 15.9267 211.538 15 210.991 14.36C210.458 13.72 209.731 13.4 208.811 13.4C208.211 13.4 207.684 13.5467 207.231 13.84C206.778 14.12 206.424 14.54 206.171 15.1C205.931 15.6467 205.811 16.3267 205.811 17.14C205.811 18.34 206.084 19.2667 206.631 19.92C207.178 20.56 207.904 20.88 208.811 20.88ZM219.931 22.18C218.984 22.18 218.164 21.9733 217.471 21.56C216.778 21.1467 216.238 20.5667 215.851 19.82C215.478 19.06 215.291 18.1667 215.291 17.14C215.291 16.3667 215.398 15.6733 215.611 15.06C215.824 14.4333 216.138 13.9 216.551 13.46C216.964 13.02 217.451 12.6867 218.011 12.46C218.584 12.22 219.224 12.1 219.931 12.1C220.878 12.1 221.698 12.3067 222.391 12.72C223.084 13.1333 223.618 13.72 223.991 14.48C224.378 15.2267 224.571 16.1133 224.571 17.14C224.571 17.9133 224.464 18.6067 224.251 19.22C224.038 19.8333 223.724 20.3667 223.311 20.82C222.898 21.26 222.404 21.6 221.831 21.84C221.271 22.0667 220.638 22.18 219.931 22.18ZM219.931 20.88C220.531 20.88 221.058 20.7333 221.511 20.44C221.964 20.1467 222.311 19.72 222.551 19.16C222.804 18.6 222.931 17.9267 222.931 17.14C222.931 15.9267 222.658 15 222.111 14.36C221.578 13.72 220.851 13.4 219.931 13.4C219.318 13.4 218.784 13.5467 218.331 13.84C217.891 14.12 217.544 14.54 217.291 15.1C217.051 15.6467 216.931 16.3267 216.931 17.14C216.931 18.34 217.204 19.2667 217.751 19.92C218.298 20.56 219.024 20.88 219.931 20.88ZM227.824 22.14C227.558 22.14 227.351 22.0667 227.204 21.92C227.071 21.7733 227.004 21.5667 227.004 21.3V12.96C227.004 12.6933 227.071 12.4933 227.204 12.36C227.338 12.2133 227.531 12.14 227.784 12.14C228.038 12.14 228.231 12.2133 228.364 12.36C228.511 12.4933 228.584 12.6933 228.584 12.96V14.58H228.384C228.598 13.7933 229.004 13.1867 229.604 12.76C230.204 12.3333 230.944 12.1067 231.824 12.08C232.024 12.0667 232.184 12.1133 232.304 12.22C232.424 12.3133 232.491 12.48 232.504 12.72C232.518 12.9467 232.464 13.1267 232.344 13.26C232.224 13.3933 232.038 13.4733 231.784 13.5L231.464 13.54C230.558 13.62 229.858 13.9133 229.364 14.42C228.884 14.9133 228.644 15.5933 228.644 16.46V21.3C228.644 21.5667 228.571 21.7733 228.424 21.92C228.291 22.0667 228.091 22.14 227.824 22.14ZM238.6 22.18C237.84 22.18 237.2 22.0467 236.68 21.78C236.173 21.5 235.793 21.1 235.54 20.58C235.286 20.0467 235.16 19.4 235.16 18.64V13.54H233.82C233.593 13.54 233.42 13.4867 233.3 13.38C233.18 13.26 233.12 13.1 233.12 12.9C233.12 12.7 233.18 12.5467 233.3 12.44C233.42 12.3333 233.593 12.28 233.82 12.28H235.16V9.98C235.16 9.71333 235.233 9.51333 235.38 9.38C235.526 9.23333 235.726 9.16 235.98 9.16C236.233 9.16 236.426 9.23333 236.56 9.38C236.706 9.51333 236.78 9.71333 236.78 9.98V12.28H239.3C239.526 12.28 239.7 12.3333 239.82 12.44C239.94 12.5467 240 12.7 240 12.9C240 13.1 239.94 13.26 239.82 13.38C239.7 13.4867 239.526 13.54 239.3 13.54H236.78V18.48C236.78 19.24 236.94 19.82 237.26 20.22C237.58 20.6067 238.1 20.8 238.82 20.8C239.073 20.8 239.286 20.7733 239.46 20.72C239.646 20.6667 239.8 20.64 239.92 20.64C240.04 20.6267 240.14 20.6667 240.22 20.76C240.3 20.8533 240.34 21.0133 240.34 21.24C240.34 21.4 240.306 21.5467 240.24 21.68C240.186 21.8133 240.086 21.9067 239.94 21.96C239.78 22.0133 239.566 22.06 239.3 22.1C239.046 22.1533 238.813 22.18 238.6 22.18ZM242.609 22.1C242.342 22.1 242.142 22.0267 242.009 21.88C241.876 21.72 241.809 21.5 241.809 21.22V13.04C241.809 12.76 241.876 12.5467 242.009 12.4C242.142 12.2533 242.342 12.18 242.609 12.18C242.862 12.18 243.062 12.2533 243.209 12.4C243.356 12.5467 243.429 12.76 243.429 13.04V21.22C243.429 21.5 243.356 21.72 243.209 21.88C243.076 22.0267 242.876 22.1 242.609 22.1ZM242.609 9.94C242.276 9.94 242.016 9.85333 241.829 9.68C241.642 9.49333 241.549 9.24667 241.549 8.94C241.549 8.62 241.642 8.38 241.829 8.22C242.016 8.04667 242.276 7.96 242.609 7.96C242.956 7.96 243.216 8.04667 243.389 8.22C243.576 8.38 243.669 8.62 243.669 8.94C243.669 9.24667 243.576 9.49333 243.389 9.68C243.216 9.85333 242.956 9.94 242.609 9.94ZM250.498 22.18C249.551 22.18 248.731 21.9733 248.038 21.56C247.344 21.1467 246.804 20.5667 246.418 19.82C246.044 19.06 245.858 18.1667 245.858 17.14C245.858 16.3667 245.964 15.6733 246.178 15.06C246.391 14.4333 246.704 13.9 247.118 13.46C247.531 13.02 248.018 12.6867 248.578 12.46C249.151 12.22 249.791 12.1 250.498 12.1C251.444 12.1 252.264 12.3067 252.958 12.72C253.651 13.1333 254.184 13.72 254.558 14.48C254.944 15.2267 255.138 16.1133 255.138 17.14C255.138 17.9133 255.031 18.6067 254.818 19.22C254.604 19.8333 254.291 20.3667 253.878 20.82C253.464 21.26 252.971 21.6 252.398 21.84C251.838 22.0667 251.204 22.18 250.498 22.18ZM250.498 20.88C251.098 20.88 251.624 20.7333 252.078 20.44C252.531 20.1467 252.878 19.72 253.118 19.16C253.371 18.6 253.498 17.9267 253.498 17.14C253.498 15.9267 253.224 15 252.678 14.36C252.144 13.72 251.418 13.4 250.498 13.4C249.884 13.4 249.351 13.5467 248.898 13.84C248.458 14.12 248.111 14.54 247.858 15.1C247.618 15.6467 247.498 16.3267 247.498 17.14C247.498 18.34 247.771 19.2667 248.318 19.92C248.864 20.56 249.591 20.88 250.498 20.88ZM258.371 22.14C258.104 22.14 257.904 22.0667 257.771 21.92C257.637 21.7733 257.571 21.5667 257.571 21.3V12.96C257.571 12.6933 257.637 12.4933 257.771 12.36C257.904 12.2133 258.097 12.14 258.351 12.14C258.604 12.14 258.797 12.2133 258.931 12.36C259.077 12.4933 259.151 12.6933 259.151 12.96V14.68L258.931 14.44C259.211 13.6667 259.664 13.0867 260.291 12.7C260.931 12.3 261.664 12.1 262.491 12.1C263.264 12.1 263.904 12.24 264.411 12.52C264.931 12.8 265.317 13.2267 265.571 13.8C265.824 14.36 265.951 15.0733 265.951 15.94V21.3C265.951 21.5667 265.877 21.7733 265.731 21.92C265.597 22.0667 265.404 22.14 265.151 22.14C264.884 22.14 264.677 22.0667 264.531 21.92C264.397 21.7733 264.331 21.5667 264.331 21.3V16.04C264.331 15.1333 264.151 14.4733 263.791 14.06C263.444 13.6333 262.884 13.42 262.111 13.42C261.217 13.42 260.504 13.7 259.971 14.26C259.451 14.8067 259.191 15.54 259.191 16.46V21.3C259.191 21.86 258.917 22.14 258.371 22.14Z" fill="#444444"/>
<path d="M88.64 53C88.3467 53 88.12 52.9267 87.96 52.78C87.8133 52.62 87.74 52.3933 87.74 52.1V39.8C87.74 39.5067 87.8133 39.2867 87.96 39.14C88.12 38.98 88.3467 38.9 88.64 38.9H92.5C94.78 38.9 96.54 39.5 97.78 40.7C99.02 41.9 99.64 43.6467 99.64 45.94C99.64 47.0867 99.48 48.1 99.16 48.98C98.8533 49.8467 98.3933 50.58 97.78 51.18C97.1667 51.78 96.42 52.2333 95.54 52.54C94.66 52.8467 93.6467 53 92.5 53H88.64ZM89.38 51.6H92.38C93.3133 51.6 94.12 51.48 94.8 51.24C95.4933 51 96.0667 50.6467 96.52 50.18C96.9867 49.7133 97.3333 49.1267 97.56 48.42C97.7867 47.7 97.9 46.8733 97.9 45.94C97.9 44.06 97.44 42.6533 96.52 41.72C95.6 40.7733 94.22 40.3 92.38 40.3H89.38V51.6ZM103.164 53.1C102.897 53.1 102.697 53.0267 102.564 52.88C102.43 52.72 102.364 52.5 102.364 52.22V44.04C102.364 43.76 102.43 43.5467 102.564 43.4C102.697 43.2533 102.897 43.18 103.164 43.18C103.417 43.18 103.617 43.2533 103.764 43.4C103.91 43.5467 103.984 43.76 103.984 44.04V52.22C103.984 52.5 103.91 52.72 103.764 52.88C103.63 53.0267 103.43 53.1 103.164 53.1ZM103.164 40.94C102.83 40.94 102.57 40.8533 102.384 40.68C102.197 40.4933 102.104 40.2467 102.104 39.94C102.104 39.62 102.197 39.38 102.384 39.22C102.57 39.0467 102.83 38.96 103.164 38.96C103.51 38.96 103.77 39.0467 103.944 39.22C104.13 39.38 104.224 39.62 104.224 39.94C104.224 40.2467 104.13 40.4933 103.944 40.68C103.77 40.8533 103.51 40.94 103.164 40.94ZM110.072 53.18C109.406 53.18 108.806 53.0533 108.272 52.8C107.752 52.5333 107.339 52.1733 107.032 51.72C106.726 51.2667 106.572 50.76 106.572 50.2C106.572 49.48 106.752 48.9133 107.112 48.5C107.486 48.0867 108.092 47.7933 108.932 47.62C109.786 47.4467 110.946 47.36 112.412 47.36H113.312V48.42H112.432C111.352 48.42 110.499 48.4733 109.872 48.58C109.259 48.6733 108.826 48.84 108.572 49.08C108.332 49.32 108.212 49.66 108.212 50.1C108.212 50.6467 108.399 51.0933 108.772 51.44C109.159 51.7867 109.679 51.96 110.332 51.96C110.866 51.96 111.332 51.8333 111.732 51.58C112.146 51.3267 112.466 50.98 112.692 50.54C112.932 50.1 113.052 49.5933 113.052 49.02V46.74C113.052 45.9133 112.886 45.32 112.552 44.96C112.219 44.5867 111.672 44.4 110.912 44.4C110.446 44.4 109.979 44.46 109.512 44.58C109.046 44.7 108.552 44.8933 108.032 45.16C107.846 45.2533 107.686 45.2867 107.552 45.26C107.419 45.22 107.312 45.1467 107.232 45.04C107.152 44.9333 107.106 44.8133 107.092 44.68C107.079 44.5333 107.106 44.3933 107.172 44.26C107.252 44.1267 107.372 44.02 107.532 43.94C108.119 43.6467 108.699 43.4333 109.272 43.3C109.846 43.1667 110.392 43.1 110.912 43.1C111.752 43.1 112.446 43.24 112.992 43.52C113.539 43.7867 113.946 44.2 114.212 44.76C114.479 45.3067 114.612 46.0133 114.612 46.88V52.3C114.612 52.5667 114.546 52.7733 114.412 52.92C114.292 53.0667 114.112 53.14 113.872 53.14C113.619 53.14 113.426 53.0667 113.292 52.92C113.159 52.7733 113.092 52.5667 113.092 52.3V50.74H113.272C113.166 51.2467 112.959 51.68 112.652 52.04C112.359 52.4 111.992 52.68 111.552 52.88C111.112 53.08 110.619 53.18 110.072 53.18ZM118.458 53.14C118.191 53.14 117.991 53.0667 117.858 52.92C117.724 52.7733 117.658 52.5667 117.658 52.3V43.96C117.658 43.6933 117.724 43.4933 117.858 43.36C117.991 43.2133 118.184 43.14 118.438 43.14C118.691 43.14 118.884 43.2133 119.018 43.36C119.164 43.4933 119.238 43.6933 119.238 43.96V45.72L119.018 45.44C119.271 44.6933 119.678 44.12 120.238 43.72C120.811 43.3067 121.491 43.1 122.278 43.1C123.104 43.1 123.771 43.3 124.278 43.7C124.798 44.0867 125.144 44.6933 125.318 45.52H125.018C125.258 44.7733 125.684 44.1867 126.298 43.76C126.924 43.32 127.651 43.1 128.478 43.1C129.211 43.1 129.811 43.24 130.278 43.52C130.758 43.8 131.118 44.2267 131.358 44.8C131.598 45.36 131.718 46.0733 131.718 46.94V52.3C131.718 52.5667 131.644 52.7733 131.498 52.92C131.364 53.0667 131.164 53.14 130.898 53.14C130.644 53.14 130.444 53.0667 130.298 52.92C130.164 52.7733 130.098 52.5667 130.098 52.3V47.02C130.098 46.1267 129.944 45.4733 129.638 45.06C129.331 44.6333 128.811 44.42 128.078 44.42C127.278 44.42 126.644 44.7 126.178 45.26C125.724 45.8067 125.498 46.5533 125.498 47.5V52.3C125.498 52.5667 125.424 52.7733 125.278 52.92C125.144 53.0667 124.944 53.14 124.678 53.14C124.424 53.14 124.224 53.0667 124.078 52.92C123.944 52.7733 123.878 52.5667 123.878 52.3V47.02C123.878 46.1267 123.718 45.4733 123.398 45.06C123.091 44.6333 122.578 44.42 121.858 44.42C121.058 44.42 120.424 44.7 119.958 45.26C119.504 45.8067 119.278 46.5533 119.278 47.5V52.3C119.278 52.86 119.004 53.14 118.458 53.14ZM139.127 53.18C138.1 53.18 137.213 52.98 136.467 52.58C135.733 52.1667 135.16 51.5867 134.747 50.84C134.347 50.0933 134.147 49.2 134.147 48.16C134.147 47.1467 134.347 46.2667 134.747 45.52C135.147 44.76 135.693 44.1667 136.387 43.74C137.093 43.3133 137.907 43.1 138.827 43.1C139.48 43.1 140.067 43.2133 140.587 43.44C141.107 43.6533 141.547 43.9667 141.907 44.38C142.28 44.7933 142.56 45.2933 142.747 45.88C142.947 46.4667 143.047 47.1267 143.047 47.86C143.047 48.0733 142.987 48.2333 142.867 48.34C142.747 48.4333 142.573 48.48 142.347 48.48H135.387V47.42H141.967L141.647 47.68C141.647 46.96 141.54 46.3533 141.327 45.86C141.113 45.3533 140.8 44.9667 140.387 44.7C139.987 44.4333 139.48 44.3 138.867 44.3C138.187 44.3 137.607 44.46 137.127 44.78C136.66 45.0867 136.307 45.52 136.067 46.08C135.827 46.6267 135.707 47.2667 135.707 48V48.12C135.707 49.3467 136 50.28 136.587 50.92C137.187 51.56 138.033 51.88 139.127 51.88C139.58 51.88 140.027 51.82 140.467 51.7C140.92 51.58 141.36 51.38 141.787 51.1C141.973 50.98 142.14 50.9267 142.287 50.94C142.447 50.94 142.573 50.9867 142.667 51.08C142.76 51.16 142.82 51.2667 142.847 51.4C142.887 51.52 142.873 51.6533 142.807 51.8C142.753 51.9467 142.64 52.0733 142.467 52.18C142.027 52.5 141.507 52.7467 140.907 52.92C140.307 53.0933 139.713 53.18 139.127 53.18ZM149.291 53.18C148.531 53.18 147.891 53.0467 147.371 52.78C146.864 52.5 146.484 52.1 146.231 51.58C145.978 51.0467 145.851 50.4 145.851 49.64V44.54H144.511C144.284 44.54 144.111 44.4867 143.991 44.38C143.871 44.26 143.811 44.1 143.811 43.9C143.811 43.7 143.871 43.5467 143.991 43.44C144.111 43.3333 144.284 43.28 144.511 43.28H145.851V40.98C145.851 40.7133 145.924 40.5133 146.071 40.38C146.218 40.2333 146.418 40.16 146.671 40.16C146.924 40.16 147.118 40.2333 147.251 40.38C147.398 40.5133 147.471 40.7133 147.471 40.98V43.28H149.991C150.218 43.28 150.391 43.3333 150.511 43.44C150.631 43.5467 150.691 43.7 150.691 43.9C150.691 44.1 150.631 44.26 150.511 44.38C150.391 44.4867 150.218 44.54 149.991 44.54H147.471V49.48C147.471 50.24 147.631 50.82 147.951 51.22C148.271 51.6067 148.791 51.8 149.511 51.8C149.764 51.8 149.978 51.7733 150.151 51.72C150.338 51.6667 150.491 51.64 150.611 51.64C150.731 51.6267 150.831 51.6667 150.911 51.76C150.991 51.8533 151.031 52.0133 151.031 52.24C151.031 52.4 150.998 52.5467 150.931 52.68C150.878 52.8133 150.778 52.9067 150.631 52.96C150.471 53.0133 150.258 53.06 149.991 53.1C149.738 53.1533 149.504 53.18 149.291 53.18ZM156.666 53.18C155.639 53.18 154.752 52.98 154.006 52.58C153.272 52.1667 152.699 51.5867 152.286 50.84C151.886 50.0933 151.686 49.2 151.686 48.16C151.686 47.1467 151.886 46.2667 152.286 45.52C152.686 44.76 153.232 44.1667 153.926 43.74C154.632 43.3133 155.446 43.1 156.366 43.1C157.019 43.1 157.606 43.2133 158.126 43.44C158.646 43.6533 159.086 43.9667 159.446 44.38C159.819 44.7933 160.099 45.2933 160.286 45.88C160.486 46.4667 160.586 47.1267 160.586 47.86C160.586 48.0733 160.526 48.2333 160.406 48.34C160.286 48.4333 160.112 48.48 159.886 48.48H152.926V47.42H159.506L159.186 47.68C159.186 46.96 159.079 46.3533 158.866 45.86C158.652 45.3533 158.339 44.9667 157.926 44.7C157.526 44.4333 157.019 44.3 156.406 44.3C155.726 44.3 155.146 44.46 154.666 44.78C154.199 45.0867 153.846 45.52 153.606 46.08C153.366 46.6267 153.246 47.2667 153.246 48V48.12C153.246 49.3467 153.539 50.28 154.126 50.92C154.726 51.56 155.572 51.88 156.666 51.88C157.119 51.88 157.566 51.82 158.006 51.7C158.459 51.58 158.899 51.38 159.326 51.1C159.512 50.98 159.679 50.9267 159.826 50.94C159.986 50.94 160.112 50.9867 160.206 51.08C160.299 51.16 160.359 51.2667 160.386 51.4C160.426 51.52 160.412 51.6533 160.346 51.8C160.292 51.9467 160.179 52.0733 160.006 52.18C159.566 52.5 159.046 52.7467 158.446 52.92C157.846 53.0933 157.252 53.18 156.666 53.18ZM163.75 53.14C163.483 53.14 163.277 53.0667 163.13 52.92C162.997 52.7733 162.93 52.5667 162.93 52.3V43.96C162.93 43.6933 162.997 43.4933 163.13 43.36C163.263 43.2133 163.457 43.14 163.71 43.14C163.963 43.14 164.157 43.2133 164.29 43.36C164.437 43.4933 164.51 43.6933 164.51 43.96V45.58H164.31C164.523 44.7933 164.93 44.1867 165.53 43.76C166.13 43.3333 166.87 43.1067 167.75 43.08C167.95 43.0667 168.11 43.1133 168.23 43.22C168.35 43.3133 168.417 43.48 168.43 43.72C168.443 43.9467 168.39 44.1267 168.27 44.26C168.15 44.3933 167.963 44.4733 167.71 44.5L167.39 44.54C166.483 44.62 165.783 44.9133 165.29 45.42C164.81 45.9133 164.57 46.5933 164.57 47.46V52.3C164.57 52.5667 164.497 52.7733 164.35 52.92C164.217 53.0667 164.017 53.14 163.75 53.14ZM177.934 56.38C177.188 55.0067 176.641 53.6 176.294 52.16C175.948 50.7067 175.774 49.2333 175.774 47.74C175.774 46.74 175.848 45.7533 175.994 44.78C176.154 43.8067 176.394 42.8467 176.714 41.9C177.034 40.9533 177.441 40.02 177.934 39.1C178.028 38.9267 178.154 38.82 178.314 38.78C178.488 38.74 178.648 38.7533 178.794 38.82C178.954 38.8733 179.068 38.9867 179.134 39.16C179.201 39.32 179.188 39.5267 179.094 39.78C178.748 40.66 178.454 41.54 178.214 42.42C177.974 43.3 177.794 44.18 177.674 45.06C177.554 45.94 177.494 46.8333 177.494 47.74C177.494 48.6467 177.554 49.54 177.674 50.42C177.808 51.3 177.994 52.1733 178.234 53.04C178.474 53.92 178.761 54.8067 179.094 55.7C179.201 55.9533 179.214 56.16 179.134 56.32C179.068 56.4933 178.954 56.6067 178.794 56.66C178.648 56.7267 178.488 56.74 178.314 56.7C178.154 56.66 178.028 56.5533 177.934 56.38ZM182.722 53C182.429 53 182.202 52.9267 182.042 52.78C181.895 52.62 181.822 52.3933 181.822 52.1V39.8C181.822 39.5067 181.895 39.2867 182.042 39.14C182.202 38.98 182.429 38.9 182.722 38.9H186.582C188.862 38.9 190.622 39.5 191.862 40.7C193.102 41.9 193.722 43.6467 193.722 45.94C193.722 47.0867 193.562 48.1 193.242 48.98C192.935 49.8467 192.475 50.58 191.862 51.18C191.249 51.78 190.502 52.2333 189.622 52.54C188.742 52.8467 187.729 53 186.582 53H182.722ZM183.462 51.6H186.462C187.395 51.6 188.202 51.48 188.882 51.24C189.575 51 190.149 50.6467 190.602 50.18C191.069 49.7133 191.415 49.1267 191.642 48.42C191.869 47.7 191.982 46.8733 191.982 45.94C191.982 44.06 191.522 42.6533 190.602 41.72C189.682 40.7733 188.302 40.3 186.462 40.3H183.462V51.6ZM196.91 56.38C196.803 56.5533 196.67 56.66 196.51 56.7C196.35 56.74 196.19 56.7267 196.03 56.66C195.87 56.5933 195.757 56.48 195.69 56.32C195.623 56.16 195.637 55.9533 195.73 55.7C196.09 54.8067 196.383 53.92 196.61 53.04C196.85 52.1733 197.03 51.3 197.15 50.42C197.27 49.54 197.33 48.6467 197.33 47.74C197.33 46.8333 197.263 45.94 197.13 45.06C197.01 44.18 196.83 43.3067 196.59 42.44C196.363 41.56 196.077 40.6733 195.73 39.78C195.637 39.5267 195.623 39.32 195.69 39.16C195.77 38.9867 195.883 38.8733 196.03 38.82C196.177 38.7533 196.33 38.74 196.49 38.78C196.663 38.82 196.803 38.9267 196.91 39.1C197.643 40.46 198.183 41.8667 198.53 43.32C198.877 44.7733 199.05 46.2467 199.05 47.74C199.05 48.74 198.97 49.7333 198.81 50.72C198.663 51.6933 198.43 52.6533 198.11 53.6C197.803 54.5467 197.403 55.4733 196.91 56.38Z" fill="#444444"/>
<path d="M285.86 31.14C285.58 31.14 285.36 31.0667 285.2 30.92C285.04 30.76 284.96 30.54 284.96 30.26C284.96 29.98 285.04 29.7667 285.2 29.62C285.36 29.46 285.58 29.38 285.86 29.38H294.14C294.433 29.38 294.653 29.46 294.8 29.62C294.96 29.7667 295.04 29.98 295.04 30.26C295.04 30.54 294.96 30.76 294.8 30.92C294.653 31.0667 294.433 31.14 294.14 31.14H285.86ZM285.86 35.12C285.58 35.12 285.36 35.0467 285.2 34.9C285.04 34.74 284.96 34.52 284.96 34.24C284.96 33.96 285.04 33.7467 285.2 33.6C285.36 33.4533 285.58 33.38 285.86 33.38H294.14C294.433 33.38 294.653 33.4533 294.8 33.6C294.96 33.7467 295.04 33.96 295.04 34.24C295.04 34.5333 294.96 34.7533 294.8 34.9C294.653 35.0467 294.433 35.12 294.14 35.12H285.86Z" fill="#444444"/>
<path d="M409 39.2C407.333 39.2 406.06 38.5733 405.18 37.32C404.3 36.0533 403.86 34.2533 403.86 31.92C403.86 30.3467 404.053 29.0267 404.44 27.96C404.84 26.88 405.42 26.0667 406.18 25.52C406.953 24.9733 407.893 24.7 409 24.7C410.68 24.7 411.953 25.3133 412.82 26.54C413.7 27.7667 414.14 29.5533 414.14 31.9C414.14 33.46 413.94 34.7867 413.54 35.88C413.153 36.96 412.58 37.7867 411.82 38.36C411.06 38.92 410.12 39.2 409 39.2ZM409 37.1C409.907 37.1 410.573 36.68 411 35.84C411.44 35 411.66 33.6867 411.66 31.9C411.66 30.1133 411.44 28.82 411 28.02C410.573 27.2067 409.907 26.8 409 26.8C408.107 26.8 407.44 27.2067 407 28.02C406.56 28.82 406.34 30.1133 406.34 31.9C406.34 33.6867 406.56 35 407 35.84C407.44 36.68 408.107 37.1 409 37.1ZM417.492 39.1C417.039 39.1 416.672 38.96 416.392 38.68C416.126 38.4 415.992 38.04 415.992 37.6C415.992 37.1733 416.126 36.8267 416.392 36.56C416.672 36.28 417.039 36.14 417.492 36.14C417.959 36.14 418.319 36.28 418.572 36.56C418.839 36.8267 418.972 37.1733 418.972 37.6C418.972 38.04 418.839 38.4 418.572 38.68C418.319 38.96 417.959 39.1 417.492 39.1ZM423.073 39C422.726 39 422.453 38.9067 422.253 38.72C422.066 38.52 421.973 38.2533 421.973 37.92C421.973 37.5733 422.066 37.3133 422.253 37.14C422.453 36.9667 422.726 36.88 423.073 36.88H425.313V27.06H426.553L423.613 28.84C423.36 28.9867 423.12 29.0467 422.893 29.02C422.68 28.98 422.493 28.8867 422.333 28.74C422.186 28.58 422.086 28.3933 422.033 28.18C421.98 27.9667 421.993 27.7533 422.073 27.54C422.166 27.3133 422.34 27.1267 422.593 26.98L425.353 25.32C425.62 25.16 425.886 25.0267 426.153 24.92C426.42 24.8 426.666 24.74 426.893 24.74C427.173 24.74 427.406 24.82 427.593 24.98C427.78 25.1267 427.873 25.3733 427.873 25.72V36.88H429.913C430.26 36.88 430.526 36.9667 430.713 37.14C430.913 37.3133 431.013 37.5733 431.013 37.92C431.013 38.2667 430.913 38.5333 430.713 38.72C430.526 38.9067 430.26 39 429.913 39H423.073ZM440.205 39.16C439.805 39.16 439.492 39.0533 439.265 38.84C439.039 38.6133 438.925 38.2933 438.925 37.88V36.32H433.985C433.572 36.32 433.239 36.2333 432.985 36.06C432.745 35.8867 432.625 35.6133 432.625 35.24C432.625 35.0267 432.679 34.7933 432.785 34.54C432.905 34.2867 433.112 33.9533 433.405 33.54L438.885 25.6C439.072 25.32 439.279 25.1067 439.505 24.96C439.732 24.8133 439.992 24.74 440.285 24.74C440.632 24.74 440.919 24.8467 441.145 25.06C441.372 25.26 441.485 25.58 441.485 26.02V34.2H442.465C442.852 34.2 443.139 34.2933 443.325 34.48C443.525 34.6533 443.625 34.9133 443.625 35.26C443.625 35.6067 443.525 35.8733 443.325 36.06C443.139 36.2333 442.852 36.32 442.465 36.32H441.485V37.88C441.485 38.2933 441.372 38.6133 441.145 38.84C440.919 39.0533 440.605 39.16 440.205 39.16ZM438.925 34.2V27.96H439.505L434.785 34.88V34.2H438.925Z" fill="#444444"/>
<line x1="0.00193049" y1="31.5" x2="275.002" y2="32.5618" stroke="black"/>
<line x1="307" y1="35.5" x2="364" y2="35.5" stroke="black"/>
<path d="M6.58 22C6.31333 22 6.10667 21.9267 5.96 21.78C5.81333 21.62 5.74 21.4067 5.74 21.14V8.66C5.74 8.38 5.80667 8.16667 5.94 8.02C6.08667 7.87333 6.29333 7.8 6.56 7.8C6.82667 7.8 7.02667 7.87333 7.16 8.02C7.30667 8.16667 7.38 8.38 7.38 8.66V20.56H13.94C14.18 20.56 14.3667 20.6267 14.5 20.76C14.6333 20.88 14.7 21.0533 14.7 21.28C14.7 21.5067 14.6333 21.6867 14.5 21.82C14.3667 21.94 14.18 22 13.94 22H6.58ZM20.6617 22.18C19.6351 22.18 18.7484 21.98 18.0017 21.58C17.2684 21.1667 16.6951 20.5867 16.2817 19.84C15.8817 19.0933 15.6817 18.2 15.6817 17.16C15.6817 16.1467 15.8817 15.2667 16.2817 14.52C16.6817 13.76 17.2284 13.1667 17.9217 12.74C18.6284 12.3133 19.4417 12.1 20.3617 12.1C21.0151 12.1 21.6017 12.2133 22.1217 12.44C22.6417 12.6533 23.0817 12.9667 23.4417 13.38C23.8151 13.7933 24.0951 14.2933 24.2817 14.88C24.4817 15.4667 24.5817 16.1267 24.5817 16.86C24.5817 17.0733 24.5217 17.2333 24.4017 17.34C24.2817 17.4333 24.1084 17.48 23.8817 17.48H16.9217V16.42H23.5017L23.1817 16.68C23.1817 15.96 23.0751 15.3533 22.8617 14.86C22.6484 14.3533 22.3351 13.9667 21.9217 13.7C21.5217 13.4333 21.0151 13.3 20.4017 13.3C19.7217 13.3 19.1417 13.46 18.6617 13.78C18.1951 14.0867 17.8417 14.52 17.6017 15.08C17.3617 15.6267 17.2417 16.2667 17.2417 17V17.12C17.2417 18.3467 17.5351 19.28 18.1217 19.92C18.7217 20.56 19.5684 20.88 20.6617 20.88C21.1151 20.88 21.5617 20.82 22.0017 20.7C22.4551 20.58 22.8951 20.38 23.3217 20.1C23.5084 19.98 23.6751 19.9267 23.8217 19.94C23.9817 19.94 24.1084 19.9867 24.2017 20.08C24.2951 20.16 24.3551 20.2667 24.3817 20.4C24.4217 20.52 24.4084 20.6533 24.3417 20.8C24.2884 20.9467 24.1751 21.0733 24.0017 21.18C23.5617 21.5 23.0417 21.7467 22.4417 21.92C21.8417 22.0933 21.2484 22.18 20.6617 22.18ZM27.7263 22.14C27.4596 22.14 27.2596 22.0667 27.1263 21.92C26.9929 21.7733 26.9263 21.5667 26.9263 21.3V12.96C26.9263 12.6933 26.9929 12.4933 27.1263 12.36C27.2596 12.2133 27.4529 12.14 27.7063 12.14C27.9596 12.14 28.1529 12.2133 28.2863 12.36C28.4329 12.4933 28.5063 12.6933 28.5063 12.96V14.68L28.2863 14.44C28.5663 13.6667 29.0196 13.0867 29.6463 12.7C30.2863 12.3 31.0196 12.1 31.8463 12.1C32.6196 12.1 33.2596 12.24 33.7663 12.52C34.2863 12.8 34.6729 13.2267 34.9263 13.8C35.1796 14.36 35.3063 15.0733 35.3063 15.94V21.3C35.3063 21.5667 35.2329 21.7733 35.0863 21.92C34.9529 22.0667 34.7596 22.14 34.5063 22.14C34.2396 22.14 34.0329 22.0667 33.8863 21.92C33.7529 21.7733 33.6863 21.5667 33.6863 21.3V16.04C33.6863 15.1333 33.5063 14.4733 33.1463 14.06C32.7996 13.6333 32.2396 13.42 31.4663 13.42C30.5729 13.42 29.8596 13.7 29.3263 14.26C28.8063 14.8067 28.5463 15.54 28.5463 16.46V21.3C28.5463 21.86 28.2729 22.14 27.7263 22.14ZM42.5934 25.78C41.8868 25.78 41.1934 25.6933 40.5134 25.52C39.8468 25.36 39.2401 25.1 38.6934 24.74C38.5334 24.6467 38.4268 24.5333 38.3734 24.4C38.3334 24.2667 38.3268 24.1333 38.3534 24C38.3801 23.88 38.4401 23.7667 38.5334 23.66C38.6268 23.5667 38.7334 23.5067 38.8534 23.48C38.9868 23.4533 39.1201 23.4733 39.2534 23.54C39.8401 23.9 40.4001 24.1467 40.9334 24.28C41.4668 24.4133 41.9934 24.48 42.5134 24.48C43.4601 24.48 44.1734 24.2267 44.6534 23.72C45.1468 23.2133 45.3934 22.48 45.3934 21.52V19.26H45.5934C45.3934 20.0333 44.9668 20.6467 44.3134 21.1C43.6734 21.5533 42.9201 21.78 42.0534 21.78C41.1601 21.78 40.3868 21.58 39.7334 21.18C39.0801 20.7667 38.5734 20.1933 38.2134 19.46C37.8668 18.7267 37.6934 17.88 37.6934 16.92C37.6934 16.2 37.7934 15.5467 37.9934 14.96C38.1934 14.36 38.4801 13.8533 38.8534 13.44C39.2401 13.0133 39.7001 12.6867 40.2334 12.46C40.7801 12.22 41.3868 12.1 42.0534 12.1C42.9334 12.1 43.6934 12.3267 44.3334 12.78C44.9734 13.22 45.3868 13.82 45.5734 14.58L45.3734 14.82V12.96C45.3734 12.6933 45.4401 12.4933 45.5734 12.36C45.7201 12.2133 45.9201 12.14 46.1734 12.14C46.4401 12.14 46.6401 12.2133 46.7734 12.36C46.9068 12.4933 46.9734 12.6933 46.9734 12.96V21.3C46.9734 22.78 46.6001 23.8933 45.8534 24.64C45.1201 25.4 44.0334 25.78 42.5934 25.78ZM42.3534 20.46C42.9801 20.46 43.5201 20.32 43.9734 20.04C44.4268 19.7467 44.7734 19.3333 45.0134 18.8C45.2668 18.2667 45.3934 17.64 45.3934 16.92C45.3934 15.84 45.1201 14.9867 44.5734 14.36C44.0268 13.72 43.2868 13.4 42.3534 13.4C41.7401 13.4 41.2068 13.5467 40.7534 13.84C40.3001 14.12 39.9468 14.5267 39.6934 15.06C39.4534 15.58 39.3334 16.2 39.3334 16.92C39.3334 18 39.6068 18.86 40.1534 19.5C40.7001 20.14 41.4334 20.46 42.3534 20.46ZM53.9122 22.18C53.1522 22.18 52.5122 22.0467 51.9922 21.78C51.4855 21.5 51.1055 21.1 50.8522 20.58C50.5989 20.0467 50.4722 19.4 50.4722 18.64V13.54H49.1322C48.9055 13.54 48.7322 13.4867 48.6122 13.38C48.4922 13.26 48.4322 13.1 48.4322 12.9C48.4322 12.7 48.4922 12.5467 48.6122 12.44C48.7322 12.3333 48.9055 12.28 49.1322 12.28H50.4722V9.98C50.4722 9.71333 50.5455 9.51333 50.6922 9.38C50.8389 9.23333 51.0389 9.16 51.2922 9.16C51.5455 9.16 51.7389 9.23333 51.8722 9.38C52.0189 9.51333 52.0922 9.71333 52.0922 9.98V12.28H54.6122C54.8389 12.28 55.0122 12.3333 55.1322 12.44C55.2522 12.5467 55.3122 12.7 55.3122 12.9C55.3122 13.1 55.2522 13.26 55.1322 13.38C55.0122 13.4867 54.8389 13.54 54.6122 13.54H52.0922V18.48C52.0922 19.24 52.2522 19.82 52.5722 20.22C52.8922 20.6067 53.4122 20.8 54.1322 20.8C54.3855 20.8 54.5989 20.7733 54.7722 20.72C54.9589 20.6667 55.1122 20.64 55.2322 20.64C55.3522 20.6267 55.4522 20.6667 55.5322 20.76C55.6122 20.8533 55.6522 21.0133 55.6522 21.24C55.6522 21.4 55.6189 21.5467 55.5522 21.68C55.4989 21.8133 55.3989 21.9067 55.2522 21.96C55.0922 22.0133 54.8789 22.06 54.6122 22.1C54.3589 22.1533 54.1255 22.18 53.9122 22.18ZM57.9216 22.14C57.6549 22.14 57.4549 22.0667 57.3216 21.92C57.1882 21.7733 57.1216 21.5667 57.1216 21.3V8.58C57.1216 8.31333 57.1882 8.11333 57.3216 7.98C57.4549 7.83333 57.6549 7.76 57.9216 7.76C58.1749 7.76 58.3749 7.83333 58.5216 7.98C58.6682 8.11333 58.7416 8.31333 58.7416 8.58V14.44H58.4816C58.7616 13.6667 59.2149 13.0867 59.8416 12.7C60.4816 12.3 61.2149 12.1 62.0416 12.1C62.8149 12.1 63.4549 12.24 63.9616 12.52C64.4816 12.8 64.8682 13.2267 65.1216 13.8C65.3749 14.36 65.5016 15.0733 65.5016 15.94V21.3C65.5016 21.5667 65.4282 21.7733 65.2816 21.92C65.1482 22.0667 64.9549 22.14 64.7016 22.14C64.4349 22.14 64.2282 22.0667 64.0816 21.92C63.9482 21.7733 63.8816 21.5667 63.8816 21.3V16.04C63.8816 15.1333 63.7016 14.4733 63.3416 14.06C62.9949 13.6333 62.4349 13.42 61.6616 13.42C60.7682 13.42 60.0549 13.7 59.5216 14.26C59.0016 14.8067 58.7416 15.54 58.7416 16.46V21.3C58.7416 21.86 58.4682 22.14 57.9216 22.14ZM77.685 22.18C76.7383 22.18 75.9183 21.9733 75.225 21.56C74.5317 21.1467 73.9917 20.5667 73.605 19.82C73.2317 19.06 73.045 18.1667 73.045 17.14C73.045 16.3667 73.1517 15.6733 73.365 15.06C73.5783 14.4333 73.8917 13.9 74.305 13.46C74.7183 13.02 75.205 12.6867 75.765 12.46C76.3383 12.22 76.9783 12.1 77.685 12.1C78.6317 12.1 79.4517 12.3067 80.145 12.72C80.8383 13.1333 81.3717 13.72 81.745 14.48C82.1317 15.2267 82.325 16.1133 82.325 17.14C82.325 17.9133 82.2183 18.6067 82.005 19.22C81.7917 19.8333 81.4783 20.3667 81.065 20.82C80.6517 21.26 80.1583 21.6 79.585 21.84C79.025 22.0667 78.3917 22.18 77.685 22.18ZM77.685 20.88C78.285 20.88 78.8117 20.7333 79.265 20.44C79.7183 20.1467 80.065 19.72 80.305 19.16C80.5583 18.6 80.685 17.9267 80.685 17.14C80.685 15.9267 80.4117 15 79.865 14.36C79.3317 13.72 78.605 13.4 77.685 13.4C77.0717 13.4 76.5383 13.5467 76.085 13.84C75.645 14.12 75.2983 14.54 75.045 15.1C74.805 15.6467 74.685 16.3267 74.685 17.14C74.685 18.34 74.9583 19.2667 75.505 19.92C76.0517 20.56 76.7783 20.88 77.685 20.88ZM85.9806 22.14C85.7273 22.14 85.5273 22.0667 85.3806 21.92C85.2473 21.7733 85.1806 21.5667 85.1806 21.3V13.54H83.9006C83.6873 13.54 83.514 13.4867 83.3806 13.38C83.2606 13.26 83.2006 13.1 83.2006 12.9C83.2006 12.7 83.2606 12.5467 83.3806 12.44C83.514 12.3333 83.6873 12.28 83.9006 12.28H85.6206L85.1806 12.7V11.94C85.1806 10.6733 85.4873 9.70667 86.1006 9.04C86.7273 8.37333 87.6406 7.98667 88.8406 7.88L89.4206 7.82C89.6073 7.80667 89.754 7.84 89.8606 7.92C89.9806 8 90.054 8.1 90.0806 8.22C90.1206 8.34 90.1273 8.46667 90.1006 8.6C90.074 8.72 90.014 8.82667 89.9206 8.92C89.8273 9.01333 89.714 9.06667 89.5806 9.08L89.1206 9.12C88.3073 9.18667 87.714 9.43333 87.3406 9.86C86.9806 10.2867 86.8006 10.9133 86.8006 11.74V12.58L86.5606 12.28H88.9606C89.1873 12.28 89.3606 12.3333 89.4806 12.44C89.6006 12.5467 89.6606 12.7 89.6606 12.9C89.6606 13.1 89.6006 13.26 89.4806 13.38C89.3606 13.4867 89.1873 13.54 88.9606 13.54H86.8006V21.3C86.8006 21.86 86.5273 22.14 85.9806 22.14ZM99.917 22.18C99.1304 22.18 98.477 22.04 97.957 21.76C97.4504 21.4667 97.0637 21.0333 96.797 20.46C96.5437 19.8867 96.417 19.1733 96.417 18.32V12.96C96.417 12.68 96.4837 12.4733 96.617 12.34C96.7637 12.2067 96.9637 12.14 97.217 12.14C97.4837 12.14 97.6837 12.2067 97.817 12.34C97.9637 12.4733 98.037 12.68 98.037 12.96V18.3C98.037 19.1533 98.2104 19.7933 98.557 20.22C98.917 20.6333 99.477 20.84 100.237 20.84C101.064 20.84 101.737 20.56 102.257 20C102.777 19.44 103.037 18.7067 103.037 17.8V12.96C103.037 12.68 103.104 12.4733 103.237 12.34C103.384 12.2067 103.59 12.14 103.857 12.14C104.11 12.14 104.304 12.2067 104.437 12.34C104.584 12.4733 104.657 12.68 104.657 12.96V21.3C104.657 21.86 104.397 22.14 103.877 22.14C103.624 22.14 103.424 22.0667 103.277 21.92C103.144 21.7733 103.077 21.5667 103.077 21.3V19.48L103.337 19.76C103.07 20.5467 102.63 21.1467 102.017 21.56C101.417 21.9733 100.717 22.18 99.917 22.18ZM108.488 22.14C108.221 22.14 108.021 22.0667 107.888 21.92C107.755 21.7733 107.688 21.5667 107.688 21.3V12.96C107.688 12.6933 107.755 12.4933 107.888 12.36C108.021 12.2133 108.215 12.14 108.468 12.14C108.721 12.14 108.915 12.2133 109.048 12.36C109.195 12.4933 109.268 12.6933 109.268 12.96V14.68L109.048 14.44C109.328 13.6667 109.781 13.0867 110.408 12.7C111.048 12.3 111.781 12.1 112.608 12.1C113.381 12.1 114.021 12.24 114.528 12.52C115.048 12.8 115.435 13.2267 115.688 13.8C115.941 14.36 116.068 15.0733 116.068 15.94V21.3C116.068 21.5667 115.995 21.7733 115.848 21.92C115.715 22.0667 115.521 22.14 115.268 22.14C115.001 22.14 114.795 22.0667 114.648 21.92C114.515 21.7733 114.448 21.5667 114.448 21.3V16.04C114.448 15.1333 114.268 14.4733 113.908 14.06C113.561 13.6333 113.001 13.42 112.228 13.42C111.335 13.42 110.621 13.7 110.088 14.26C109.568 14.8067 109.308 15.54 109.308 16.46V21.3C109.308 21.86 109.035 22.14 108.488 22.14ZM122.318 22.14C122.091 22.14 121.891 22.08 121.718 21.96C121.544 21.84 121.404 21.6467 121.298 21.38L118.318 13.28C118.238 13.0533 118.211 12.8533 118.238 12.68C118.278 12.5067 118.364 12.3733 118.498 12.28C118.631 12.1867 118.798 12.14 118.998 12.14C119.198 12.14 119.358 12.1867 119.478 12.28C119.611 12.3733 119.718 12.5467 119.798 12.8L122.598 20.8H122.118L124.998 12.8C125.091 12.56 125.204 12.3933 125.338 12.3C125.484 12.1933 125.671 12.14 125.898 12.14C126.111 12.14 126.291 12.1933 126.438 12.3C126.584 12.4067 126.698 12.5733 126.778 12.8L129.598 20.8H129.138L131.978 12.76C132.071 12.52 132.184 12.36 132.318 12.28C132.451 12.1867 132.611 12.14 132.798 12.14C133.011 12.14 133.171 12.1933 133.278 12.3C133.398 12.4067 133.464 12.5467 133.478 12.72C133.491 12.8933 133.458 13.08 133.378 13.28L130.398 21.38C130.304 21.6333 130.164 21.8267 129.978 21.96C129.804 22.08 129.604 22.14 129.378 22.14C129.151 22.14 128.951 22.08 128.778 21.96C128.604 21.8267 128.471 21.6333 128.378 21.38L125.418 13.26H126.278L123.338 21.38C123.244 21.6333 123.111 21.8267 122.938 21.96C122.764 22.08 122.558 22.14 122.318 22.14ZM136.594 22.14C136.327 22.14 136.121 22.0667 135.974 21.92C135.841 21.7733 135.774 21.5667 135.774 21.3V12.96C135.774 12.6933 135.841 12.4933 135.974 12.36C136.107 12.2133 136.301 12.14 136.554 12.14C136.807 12.14 137.001 12.2133 137.134 12.36C137.281 12.4933 137.354 12.6933 137.354 12.96V14.58H137.154C137.367 13.7933 137.774 13.1867 138.374 12.76C138.974 12.3333 139.714 12.1067 140.594 12.08C140.794 12.0667 140.954 12.1133 141.074 12.22C141.194 12.3133 141.261 12.48 141.274 12.72C141.287 12.9467 141.234 13.1267 141.114 13.26C140.994 13.3933 140.807 13.4733 140.554 13.5L140.234 13.54C139.327 13.62 138.627 13.9133 138.134 14.42C137.654 14.9133 137.414 15.5933 137.414 16.46V21.3C137.414 21.5667 137.341 21.7733 137.194 21.92C137.061 22.0667 136.861 22.14 136.594 22.14ZM145.904 22.18C145.238 22.18 144.638 22.0533 144.104 21.8C143.584 21.5333 143.171 21.1733 142.864 20.72C142.558 20.2667 142.404 19.76 142.404 19.2C142.404 18.48 142.584 17.9133 142.944 17.5C143.318 17.0867 143.924 16.7933 144.764 16.62C145.618 16.4467 146.778 16.36 148.244 16.36H149.144V17.42H148.264C147.184 17.42 146.331 17.4733 145.704 17.58C145.091 17.6733 144.658 17.84 144.404 18.08C144.164 18.32 144.044 18.66 144.044 19.1C144.044 19.6467 144.231 20.0933 144.604 20.44C144.991 20.7867 145.511 20.96 146.164 20.96C146.698 20.96 147.164 20.8333 147.564 20.58C147.978 20.3267 148.298 19.98 148.524 19.54C148.764 19.1 148.884 18.5933 148.884 18.02V15.74C148.884 14.9133 148.718 14.32 148.384 13.96C148.051 13.5867 147.504 13.4 146.744 13.4C146.278 13.4 145.811 13.46 145.344 13.58C144.878 13.7 144.384 13.8933 143.864 14.16C143.678 14.2533 143.518 14.2867 143.384 14.26C143.251 14.22 143.144 14.1467 143.064 14.04C142.984 13.9333 142.938 13.8133 142.924 13.68C142.911 13.5333 142.938 13.3933 143.004 13.26C143.084 13.1267 143.204 13.02 143.364 12.94C143.951 12.6467 144.531 12.4333 145.104 12.3C145.678 12.1667 146.224 12.1 146.744 12.1C147.584 12.1 148.278 12.24 148.824 12.52C149.371 12.7867 149.778 13.2 150.044 13.76C150.311 14.3067 150.444 15.0133 150.444 15.88V21.3C150.444 21.5667 150.378 21.7733 150.244 21.92C150.124 22.0667 149.944 22.14 149.704 22.14C149.451 22.14 149.258 22.0667 149.124 21.92C148.991 21.7733 148.924 21.5667 148.924 21.3V19.74H149.104C148.998 20.2467 148.791 20.68 148.484 21.04C148.191 21.4 147.824 21.68 147.384 21.88C146.944 22.08 146.451 22.18 145.904 22.18ZM154.25 25.74C153.983 25.74 153.783 25.6667 153.65 25.52C153.516 25.3867 153.45 25.1867 153.45 24.92V12.96C153.45 12.6933 153.516 12.4933 153.65 12.36C153.783 12.2133 153.976 12.14 154.23 12.14C154.496 12.14 154.696 12.2133 154.83 12.36C154.976 12.4933 155.05 12.6933 155.05 12.96V14.86L154.83 14.58C155.043 13.82 155.463 13.22 156.09 12.78C156.73 12.3267 157.49 12.1 158.37 12.1C159.236 12.1 159.99 12.3067 160.63 12.72C161.283 13.12 161.783 13.7 162.13 14.46C162.49 15.2067 162.67 16.1 162.67 17.14C162.67 18.1667 162.49 19.06 162.13 19.82C161.783 20.5667 161.29 21.1467 160.65 21.56C160.01 21.9733 159.25 22.18 158.37 22.18C157.49 22.18 156.736 21.96 156.11 21.52C155.483 21.0667 155.056 20.4667 154.83 19.72H155.07V24.92C155.07 25.1867 154.996 25.3867 154.85 25.52C154.703 25.6667 154.503 25.74 154.25 25.74ZM158.03 20.88C158.643 20.88 159.17 20.7333 159.61 20.44C160.063 20.1467 160.41 19.72 160.65 19.16C160.903 18.6 161.03 17.9267 161.03 17.14C161.03 15.9267 160.756 15 160.21 14.36C159.676 13.72 158.95 13.4 158.03 13.4C157.43 13.4 156.903 13.5467 156.45 13.84C155.996 14.12 155.643 14.54 155.39 15.1C155.15 15.6467 155.03 16.3267 155.03 17.14C155.03 18.34 155.303 19.2667 155.85 19.92C156.396 20.56 157.123 20.88 158.03 20.88ZM165.91 25.74C165.643 25.74 165.443 25.6667 165.31 25.52C165.177 25.3867 165.11 25.1867 165.11 24.92V12.96C165.11 12.6933 165.177 12.4933 165.31 12.36C165.443 12.2133 165.637 12.14 165.89 12.14C166.157 12.14 166.357 12.2133 166.49 12.36C166.637 12.4933 166.71 12.6933 166.71 12.96V14.86L166.49 14.58C166.703 13.82 167.123 13.22 167.75 12.78C168.39 12.3267 169.15 12.1 170.03 12.1C170.897 12.1 171.65 12.3067 172.29 12.72C172.943 13.12 173.443 13.7 173.79 14.46C174.15 15.2067 174.33 16.1 174.33 17.14C174.33 18.1667 174.15 19.06 173.79 19.82C173.443 20.5667 172.95 21.1467 172.31 21.56C171.67 21.9733 170.91 22.18 170.03 22.18C169.15 22.18 168.397 21.96 167.77 21.52C167.143 21.0667 166.717 20.4667 166.49 19.72H166.73V24.92C166.73 25.1867 166.657 25.3867 166.51 25.52C166.363 25.6667 166.163 25.74 165.91 25.74ZM169.69 20.88C170.303 20.88 170.83 20.7333 171.27 20.44C171.723 20.1467 172.07 19.72 172.31 19.16C172.563 18.6 172.69 17.9267 172.69 17.14C172.69 15.9267 172.417 15 171.87 14.36C171.337 13.72 170.61 13.4 169.69 13.4C169.09 13.4 168.563 13.5467 168.11 13.84C167.657 14.12 167.303 14.54 167.05 15.1C166.81 15.6467 166.69 16.3267 166.69 17.14C166.69 18.34 166.963 19.2667 167.51 19.92C168.057 20.56 168.783 20.88 169.69 20.88ZM181.15 22.18C180.123 22.18 179.237 21.98 178.49 21.58C177.757 21.1667 177.183 20.5867 176.77 19.84C176.37 19.0933 176.17 18.2 176.17 17.16C176.17 16.1467 176.37 15.2667 176.77 14.52C177.17 13.76 177.717 13.1667 178.41 12.74C179.117 12.3133 179.93 12.1 180.85 12.1C181.503 12.1 182.09 12.2133 182.61 12.44C183.13 12.6533 183.57 12.9667 183.93 13.38C184.303 13.7933 184.583 14.2933 184.77 14.88C184.97 15.4667 185.07 16.1267 185.07 16.86C185.07 17.0733 185.01 17.2333 184.89 17.34C184.77 17.4333 184.597 17.48 184.37 17.48H177.41V16.42H183.99L183.67 16.68C183.67 15.96 183.563 15.3533 183.35 14.86C183.137 14.3533 182.823 13.9667 182.41 13.7C182.01 13.4333 181.503 13.3 180.89 13.3C180.21 13.3 179.63 13.46 179.15 13.78C178.683 14.0867 178.33 14.52 178.09 15.08C177.85 15.6267 177.73 16.2667 177.73 17V17.12C177.73 18.3467 178.023 19.28 178.61 19.92C179.21 20.56 180.057 20.88 181.15 20.88C181.603 20.88 182.05 20.82 182.49 20.7C182.943 20.58 183.383 20.38 183.81 20.1C183.997 19.98 184.163 19.9267 184.31 19.94C184.47 19.94 184.597 19.9867 184.69 20.08C184.783 20.16 184.843 20.2667 184.87 20.4C184.91 20.52 184.897 20.6533 184.83 20.8C184.777 20.9467 184.663 21.0733 184.49 21.18C184.05 21.5 183.53 21.7467 182.93 21.92C182.33 22.0933 181.737 22.18 181.15 22.18ZM191.115 22.18C190.248 22.18 189.488 21.9733 188.835 21.56C188.195 21.1467 187.695 20.5667 187.335 19.82C186.988 19.06 186.815 18.1667 186.815 17.14C186.815 16.1 186.988 15.2067 187.335 14.46C187.695 13.7 188.195 13.12 188.835 12.72C189.488 12.3067 190.248 12.1 191.115 12.1C191.995 12.1 192.748 12.32 193.375 12.76C194.001 13.2 194.421 13.7933 194.635 14.54H194.415V8.58C194.415 8.31333 194.481 8.11333 194.615 7.98C194.761 7.83333 194.968 7.76 195.235 7.76C195.488 7.76 195.681 7.83333 195.815 7.98C195.961 8.11333 196.035 8.31333 196.035 8.58V21.3C196.035 21.5667 195.968 21.7733 195.835 21.92C195.701 22.0667 195.501 22.14 195.235 22.14C194.981 22.14 194.781 22.0667 194.635 21.92C194.501 21.7733 194.435 21.5667 194.435 21.3V19.4L194.655 19.68C194.441 20.44 194.015 21.0467 193.375 21.5C192.748 21.9533 191.995 22.18 191.115 22.18ZM191.455 20.88C192.055 20.88 192.581 20.7333 193.035 20.44C193.488 20.1467 193.835 19.72 194.075 19.16C194.328 18.6 194.455 17.9267 194.455 17.14C194.455 15.9267 194.181 15 193.635 14.36C193.101 13.72 192.375 13.4 191.455 13.4C190.841 13.4 190.308 13.5467 189.855 13.84C189.415 14.12 189.068 14.54 188.815 15.1C188.575 15.6467 188.455 16.3267 188.455 17.14C188.455 18.34 188.728 19.2667 189.275 19.92C189.821 20.56 190.548 20.88 191.455 20.88ZM205.031 25.74C204.764 25.74 204.564 25.6667 204.431 25.52C204.298 25.3867 204.231 25.1867 204.231 24.92V12.96C204.231 12.6933 204.298 12.4933 204.431 12.36C204.564 12.2133 204.758 12.14 205.011 12.14C205.278 12.14 205.478 12.2133 205.611 12.36C205.758 12.4933 205.831 12.6933 205.831 12.96V14.86L205.611 14.58C205.824 13.82 206.244 13.22 206.871 12.78C207.511 12.3267 208.271 12.1 209.151 12.1C210.018 12.1 210.771 12.3067 211.411 12.72C212.064 13.12 212.564 13.7 212.911 14.46C213.271 15.2067 213.451 16.1 213.451 17.14C213.451 18.1667 213.271 19.06 212.911 19.82C212.564 20.5667 212.071 21.1467 211.431 21.56C210.791 21.9733 210.031 22.18 209.151 22.18C208.271 22.18 207.518 21.96 206.891 21.52C206.264 21.0667 205.838 20.4667 205.611 19.72H205.851V24.92C205.851 25.1867 205.778 25.3867 205.631 25.52C205.484 25.6667 205.284 25.74 205.031 25.74ZM208.811 20.88C209.424 20.88 209.951 20.7333 210.391 20.44C210.844 20.1467 211.191 19.72 211.431 19.16C211.684 18.6 211.811 17.9267 211.811 17.14C211.811 15.9267 211.538 15 210.991 14.36C210.458 13.72 209.731 13.4 208.811 13.4C208.211 13.4 207.684 13.5467 207.231 13.84C206.778 14.12 206.424 14.54 206.171 15.1C205.931 15.6467 205.811 16.3267 205.811 17.14C205.811 18.34 206.084 19.2667 206.631 19.92C207.178 20.56 207.904 20.88 208.811 20.88ZM219.931 22.18C218.984 22.18 218.164 21.9733 217.471 21.56C216.778 21.1467 216.238 20.5667 215.851 19.82C215.478 19.06 215.291 18.1667 215.291 17.14C215.291 16.3667 215.398 15.6733 215.611 15.06C215.824 14.4333 216.138 13.9 216.551 13.46C216.964 13.02 217.451 12.6867 218.011 12.46C218.584 12.22 219.224 12.1 219.931 12.1C220.878 12.1 221.698 12.3067 222.391 12.72C223.084 13.1333 223.618 13.72 223.991 14.48C224.378 15.2267 224.571 16.1133 224.571 17.14C224.571 17.9133 224.464 18.6067 224.251 19.22C224.038 19.8333 223.724 20.3667 223.311 20.82C222.898 21.26 222.404 21.6 221.831 21.84C221.271 22.0667 220.638 22.18 219.931 22.18ZM219.931 20.88C220.531 20.88 221.058 20.7333 221.511 20.44C221.964 20.1467 222.311 19.72 222.551 19.16C222.804 18.6 222.931 17.9267 222.931 17.14C222.931 15.9267 222.658 15 222.111 14.36C221.578 13.72 220.851 13.4 219.931 13.4C219.318 13.4 218.784 13.5467 218.331 13.84C217.891 14.12 217.544 14.54 217.291 15.1C217.051 15.6467 216.931 16.3267 216.931 17.14C216.931 18.34 217.204 19.2667 217.751 19.92C218.298 20.56 219.024 20.88 219.931 20.88ZM227.824 22.14C227.558 22.14 227.351 22.0667 227.204 21.92C227.071 21.7733 227.004 21.5667 227.004 21.3V12.96C227.004 12.6933 227.071 12.4933 227.204 12.36C227.338 12.2133 227.531 12.14 227.784 12.14C228.038 12.14 228.231 12.2133 228.364 12.36C228.511 12.4933 228.584 12.6933 228.584 12.96V14.58H228.384C228.598 13.7933 229.004 13.1867 229.604 12.76C230.204 12.3333 230.944 12.1067 231.824 12.08C232.024 12.0667 232.184 12.1133 232.304 12.22C232.424 12.3133 232.491 12.48 232.504 12.72C232.518 12.9467 232.464 13.1267 232.344 13.26C232.224 13.3933 232.038 13.4733 231.784 13.5L231.464 13.54C230.558 13.62 229.858 13.9133 229.364 14.42C228.884 14.9133 228.644 15.5933 228.644 16.46V21.3C228.644 21.5667 228.571 21.7733 228.424 21.92C228.291 22.0667 228.091 22.14 227.824 22.14ZM238.6 22.18C237.84 22.18 237.2 22.0467 236.68 21.78C236.173 21.5 235.793 21.1 235.54 20.58C235.286 20.0467 235.16 19.4 235.16 18.64V13.54H233.82C233.593 13.54 233.42 13.4867 233.3 13.38C233.18 13.26 233.12 13.1 233.12 12.9C233.12 12.7 233.18 12.5467 233.3 12.44C233.42 12.3333 233.593 12.28 233.82 12.28H235.16V9.98C235.16 9.71333 235.233 9.51333 235.38 9.38C235.526 9.23333 235.726 9.16 235.98 9.16C236.233 9.16 236.426 9.23333 236.56 9.38C236.706 9.51333 236.78 9.71333 236.78 9.98V12.28H239.3C239.526 12.28 239.7 12.3333 239.82 12.44C239.94 12.5467 240 12.7 240 12.9C240 13.1 239.94 13.26 239.82 13.38C239.7 13.4867 239.526 13.54 239.3 13.54H236.78V18.48C236.78 19.24 236.94 19.82 237.26 20.22C237.58 20.6067 238.1 20.8 238.82 20.8C239.073 20.8 239.286 20.7733 239.46 20.72C239.646 20.6667 239.8 20.64 239.92 20.64C240.04 20.6267 240.14 20.6667 240.22 20.76C240.3 20.8533 240.34 21.0133 240.34 21.24C240.34 21.4 240.306 21.5467 240.24 21.68C240.186 21.8133 240.086 21.9067 239.94 21.96C239.78 22.0133 239.566 22.06 239.3 22.1C239.046 22.1533 238.813 22.18 238.6 22.18ZM242.609 22.1C242.342 22.1 242.142 22.0267 242.009 21.88C241.876 21.72 241.809 21.5 241.809 21.22V13.04C241.809 12.76 241.876 12.5467 242.009 12.4C242.142 12.2533 242.342 12.18 242.609 12.18C242.862 12.18 243.062 12.2533 243.209 12.4C243.356 12.5467 243.429 12.76 243.429 13.04V21.22C243.429 21.5 243.356 21.72 243.209 21.88C243.076 22.0267 242.876 22.1 242.609 22.1ZM242.609 9.94C242.276 9.94 242.016 9.85333 241.829 9.68C241.642 9.49333 241.549 9.24667 241.549 8.94C241.549 8.62 241.642 8.38 241.829 8.22C242.016 8.04667 242.276 7.96 242.609 7.96C242.956 7.96 243.216 8.04667 243.389 8.22C243.576 8.38 243.669 8.62 243.669 8.94C243.669 9.24667 243.576 9.49333 243.389 9.68C243.216 9.85333 242.956 9.94 242.609 9.94ZM250.498 22.18C249.551 22.18 248.731 21.9733 248.038 21.56C247.344 21.1467 246.804 20.5667 246.418 19.82C246.044 19.06 245.858 18.1667 245.858 17.14C245.858 16.3667 245.964 15.6733 246.178 15.06C246.391 14.4333 246.704 13.9 247.118 13.46C247.531 13.02 248.018 12.6867 248.578 12.46C249.151 12.22 249.791 12.1 250.498 12.1C251.444 12.1 252.264 12.3067 252.958 12.72C253.651 13.1333 254.184 13.72 254.558 14.48C254.944 15.2267 255.138 16.1133 255.138 17.14C255.138 17.9133 255.031 18.6067 254.818 19.22C254.604 19.8333 254.291 20.3667 253.878 20.82C253.464 21.26 252.971 21.6 252.398 21.84C251.838 22.0667 251.204 22.18 250.498 22.18ZM250.498 20.88C251.098 20.88 251.624 20.7333 252.078 20.44C252.531 20.1467 252.878 19.72 253.118 19.16C253.371 18.6 253.498 17.9267 253.498 17.14C253.498 15.9267 253.224 15 252.678 14.36C252.144 13.72 251.418 13.4 250.498 13.4C249.884 13.4 249.351 13.5467 248.898 13.84C248.458 14.12 248.111 14.54 247.858 15.1C247.618 15.6467 247.498 16.3267 247.498 17.14C247.498 18.34 247.771 19.2667 248.318 19.92C248.864 20.56 249.591 20.88 250.498 20.88ZM258.371 22.14C258.104 22.14 257.904 22.0667 257.771 21.92C257.637 21.7733 257.571 21.5667 257.571 21.3V12.96C257.571 12.6933 257.637 12.4933 257.771 12.36C257.904 12.2133 258.097 12.14 258.351 12.14C258.604 12.14 258.797 12.2133 258.931 12.36C259.077 12.4933 259.151 12.6933 259.151 12.96V14.68L258.931 14.44C259.211 13.6667 259.664 13.0867 260.291 12.7C260.931 12.3 261.664 12.1 262.491 12.1C263.264 12.1 263.904 12.24 264.411 12.52C264.931 12.8 265.317 13.2267 265.571 13.8C265.824 14.36 265.951 15.0733 265.951 15.94V21.3C265.951 21.5667 265.877 21.7733 265.731 21.92C265.597 22.0667 265.404 22.14 265.151 22.14C264.884 22.14 264.677 22.0667 264.531 21.92C264.397 21.7733 264.331 21.5667 264.331 21.3V16.04C264.331 15.1333 264.151 14.4733 263.791 14.06C263.444 13.6333 262.884 13.42 262.111 13.42C261.217 13.42 260.504 13.7 259.971 14.26C259.451 14.8067 259.191 15.54 259.191 16.46V21.3C259.191 21.86 258.917 22.14 258.371 22.14Z" fill="#444444"/>
<path d="M88.64 53C88.3467 53 88.12 52.9267 87.96 52.78C87.8133 52.62 87.74 52.3933 87.74 52.1V39.8C87.74 39.5067 87.8133 39.2867 87.96 39.14C88.12 38.98 88.3467 38.9 88.64 38.9H92.5C94.78 38.9 96.54 39.5 97.78 40.7C99.02 41.9 99.64 43.6467 99.64 45.94C99.64 47.0867 99.48 48.1 99.16 48.98C98.8533 49.8467 98.3933 50.58 97.78 51.18C97.1667 51.78 96.42 52.2333 95.54 52.54C94.66 52.8467 93.6467 53 92.5 53H88.64ZM89.38 51.6H92.38C93.3133 51.6 94.12 51.48 94.8 51.24C95.4933 51 96.0667 50.6467 96.52 50.18C96.9867 49.7133 97.3333 49.1267 97.56 48.42C97.7867 47.7 97.9 46.8733 97.9 45.94C97.9 44.06 97.44 42.6533 96.52 41.72C95.6 40.7733 94.22 40.3 92.38 40.3H89.38V51.6ZM103.164 53.1C102.897 53.1 102.697 53.0267 102.564 52.88C102.43 52.72 102.364 52.5 102.364 52.22V44.04C102.364 43.76 102.43 43.5467 102.564 43.4C102.697 43.2533 102.897 43.18 103.164 43.18C103.417 43.18 103.617 43.2533 103.764 43.4C103.91 43.5467 103.984 43.76 103.984 44.04V52.22C103.984 52.5 103.91 52.72 103.764 52.88C103.63 53.0267 103.43 53.1 103.164 53.1ZM103.164 40.94C102.83 40.94 102.57 40.8533 102.384 40.68C102.197 40.4933 102.104 40.2467 102.104 39.94C102.104 39.62 102.197 39.38 102.384 39.22C102.57 39.0467 102.83 38.96 103.164 38.96C103.51 38.96 103.77 39.0467 103.944 39.22C104.13 39.38 104.224 39.62 104.224 39.94C104.224 40.2467 104.13 40.4933 103.944 40.68C103.77 40.8533 103.51 40.94 103.164 40.94ZM110.072 53.18C109.406 53.18 108.806 53.0533 108.272 52.8C107.752 52.5333 107.339 52.1733 107.032 51.72C106.726 51.2667 106.572 50.76 106.572 50.2C106.572 49.48 106.752 48.9133 107.112 48.5C107.486 48.0867 108.092 47.7933 108.932 47.62C109.786 47.4467 110.946 47.36 112.412 47.36H113.312V48.42H112.432C111.352 48.42 110.499 48.4733 109.872 48.58C109.259 48.6733 108.826 48.84 108.572 49.08C108.332 49.32 108.212 49.66 108.212 50.1C108.212 50.6467 108.399 51.0933 108.772 51.44C109.159 51.7867 109.679 51.96 110.332 51.96C110.866 51.96 111.332 51.8333 111.732 51.58C112.146 51.3267 112.466 50.98 112.692 50.54C112.932 50.1 113.052 49.5933 113.052 49.02V46.74C113.052 45.9133 112.886 45.32 112.552 44.96C112.219 44.5867 111.672 44.4 110.912 44.4C110.446 44.4 109.979 44.46 109.512 44.58C109.046 44.7 108.552 44.8933 108.032 45.16C107.846 45.2533 107.686 45.2867 107.552 45.26C107.419 45.22 107.312 45.1467 107.232 45.04C107.152 44.9333 107.106 44.8133 107.092 44.68C107.079 44.5333 107.106 44.3933 107.172 44.26C107.252 44.1267 107.372 44.02 107.532 43.94C108.119 43.6467 108.699 43.4333 109.272 43.3C109.846 43.1667 110.392 43.1 110.912 43.1C111.752 43.1 112.446 43.24 112.992 43.52C113.539 43.7867 113.946 44.2 114.212 44.76C114.479 45.3067 114.612 46.0133 114.612 46.88V52.3C114.612 52.5667 114.546 52.7733 114.412 52.92C114.292 53.0667 114.112 53.14 113.872 53.14C113.619 53.14 113.426 53.0667 113.292 52.92C113.159 52.7733 113.092 52.5667 113.092 52.3V50.74H113.272C113.166 51.2467 112.959 51.68 112.652 52.04C112.359 52.4 111.992 52.68 111.552 52.88C111.112 53.08 110.619 53.18 110.072 53.18ZM118.458 53.14C118.191 53.14 117.991 53.0667 117.858 52.92C117.724 52.7733 117.658 52.5667 117.658 52.3V43.96C117.658 43.6933 117.724 43.4933 117.858 43.36C117.991 43.2133 118.184 43.14 118.438 43.14C118.691 43.14 118.884 43.2133 119.018 43.36C119.164 43.4933 119.238 43.6933 119.238 43.96V45.72L119.018 45.44C119.271 44.6933 119.678 44.12 120.238 43.72C120.811 43.3067 121.491 43.1 122.278 43.1C123.104 43.1 123.771 43.3 124.278 43.7C124.798 44.0867 125.144 44.6933 125.318 45.52H125.018C125.258 44.7733 125.684 44.1867 126.298 43.76C126.924 43.32 127.651 43.1 128.478 43.1C129.211 43.1 129.811 43.24 130.278 43.52C130.758 43.8 131.118 44.2267 131.358 44.8C131.598 45.36 131.718 46.0733 131.718 46.94V52.3C131.718 52.5667 131.644 52.7733 131.498 52.92C131.364 53.0667 131.164 53.14 130.898 53.14C130.644 53.14 130.444 53.0667 130.298 52.92C130.164 52.7733 130.098 52.5667 130.098 52.3V47.02C130.098 46.1267 129.944 45.4733 129.638 45.06C129.331 44.6333 128.811 44.42 128.078 44.42C127.278 44.42 126.644 44.7 126.178 45.26C125.724 45.8067 125.498 46.5533 125.498 47.5V52.3C125.498 52.5667 125.424 52.7733 125.278 52.92C125.144 53.0667 124.944 53.14 124.678 53.14C124.424 53.14 124.224 53.0667 124.078 52.92C123.944 52.7733 123.878 52.5667 123.878 52.3V47.02C123.878 46.1267 123.718 45.4733 123.398 45.06C123.091 44.6333 122.578 44.42 121.858 44.42C121.058 44.42 120.424 44.7 119.958 45.26C119.504 45.8067 119.278 46.5533 119.278 47.5V52.3C119.278 52.86 119.004 53.14 118.458 53.14ZM139.127 53.18C138.1 53.18 137.213 52.98 136.467 52.58C135.733 52.1667 135.16 51.5867 134.747 50.84C134.347 50.0933 134.147 49.2 134.147 48.16C134.147 47.1467 134.347 46.2667 134.747 45.52C135.147 44.76 135.693 44.1667 136.387 43.74C137.093 43.3133 137.907 43.1 138.827 43.1C139.48 43.1 140.067 43.2133 140.587 43.44C141.107 43.6533 141.547 43.9667 141.907 44.38C142.28 44.7933 142.56 45.2933 142.747 45.88C142.947 46.4667 143.047 47.1267 143.047 47.86C143.047 48.0733 142.987 48.2333 142.867 48.34C142.747 48.4333 142.573 48.48 142.347 48.48H135.387V47.42H141.967L141.647 47.68C141.647 46.96 141.54 46.3533 141.327 45.86C141.113 45.3533 140.8 44.9667 140.387 44.7C139.987 44.4333 139.48 44.3 138.867 44.3C138.187 44.3 137.607 44.46 137.127 44.78C136.66 45.0867 136.307 45.52 136.067 46.08C135.827 46.6267 135.707 47.2667 135.707 48V48.12C135.707 49.3467 136 50.28 136.587 50.92C137.187 51.56 138.033 51.88 139.127 51.88C139.58 51.88 140.027 51.82 140.467 51.7C140.92 51.58 141.36 51.38 141.787 51.1C141.973 50.98 142.14 50.9267 142.287 50.94C142.447 50.94 142.573 50.9867 142.667 51.08C142.76 51.16 142.82 51.2667 142.847 51.4C142.887 51.52 142.873 51.6533 142.807 51.8C142.753 51.9467 142.64 52.0733 142.467 52.18C142.027 52.5 141.507 52.7467 140.907 52.92C140.307 53.0933 139.713 53.18 139.127 53.18ZM149.291 53.18C148.531 53.18 147.891 53.0467 147.371 52.78C146.864 52.5 146.484 52.1 146.231 51.58C145.978 51.0467 145.851 50.4 145.851 49.64V44.54H144.511C144.284 44.54 144.111 44.4867 143.991 44.38C143.871 44.26 143.811 44.1 143.811 43.9C143.811 43.7 143.871 43.5467 143.991 43.44C144.111 43.3333 144.284 43.28 144.511 43.28H145.851V40.98C145.851 40.7133 145.924 40.5133 146.071 40.38C146.218 40.2333 146.418 40.16 146.671 40.16C146.924 40.16 147.118 40.2333 147.251 40.38C147.398 40.5133 147.471 40.7133 147.471 40.98V43.28H149.991C150.218 43.28 150.391 43.3333 150.511 43.44C150.631 43.5467 150.691 43.7 150.691 43.9C150.691 44.1 150.631 44.26 150.511 44.38C150.391 44.4867 150.218 44.54 149.991 44.54H147.471V49.48C147.471 50.24 147.631 50.82 147.951 51.22C148.271 51.6067 148.791 51.8 149.511 51.8C149.764 51.8 149.978 51.7733 150.151 51.72C150.338 51.6667 150.491 51.64 150.611 51.64C150.731 51.6267 150.831 51.6667 150.911 51.76C150.991 51.8533 151.031 52.0133 151.031 52.24C151.031 52.4 150.998 52.5467 150.931 52.68C150.878 52.8133 150.778 52.9067 150.631 52.96C150.471 53.0133 150.258 53.06 149.991 53.1C149.738 53.1533 149.504 53.18 149.291 53.18ZM156.666 53.18C155.639 53.18 154.752 52.98 154.006 52.58C153.272 52.1667 152.699 51.5867 152.286 50.84C151.886 50.0933 151.686 49.2 151.686 48.16C151.686 47.1467 151.886 46.2667 152.286 45.52C152.686 44.76 153.232 44.1667 153.926 43.74C154.632 43.3133 155.446 43.1 156.366 43.1C157.019 43.1 157.606 43.2133 158.126 43.44C158.646 43.6533 159.086 43.9667 159.446 44.38C159.819 44.7933 160.099 45.2933 160.286 45.88C160.486 46.4667 160.586 47.1267 160.586 47.86C160.586 48.0733 160.526 48.2333 160.406 48.34C160.286 48.4333 160.112 48.48 159.886 48.48H152.926V47.42H159.506L159.186 47.68C159.186 46.96 159.079 46.3533 158.866 45.86C158.652 45.3533 158.339 44.9667 157.926 44.7C157.526 44.4333 157.019 44.3 156.406 44.3C155.726 44.3 155.146 44.46 154.666 44.78C154.199 45.0867 153.846 45.52 153.606 46.08C153.366 46.6267 153.246 47.2667 153.246 48V48.12C153.246 49.3467 153.539 50.28 154.126 50.92C154.726 51.56 155.572 51.88 156.666 51.88C157.119 51.88 157.566 51.82 158.006 51.7C158.459 51.58 158.899 51.38 159.326 51.1C159.512 50.98 159.679 50.9267 159.826 50.94C159.986 50.94 160.112 50.9867 160.206 51.08C160.299 51.16 160.359 51.2667 160.386 51.4C160.426 51.52 160.412 51.6533 160.346 51.8C160.292 51.9467 160.179 52.0733 160.006 52.18C159.566 52.5 159.046 52.7467 158.446 52.92C157.846 53.0933 157.252 53.18 156.666 53.18ZM163.75 53.14C163.483 53.14 163.277 53.0667 163.13 52.92C162.997 52.7733 162.93 52.5667 162.93 52.3V43.96C162.93 43.6933 162.997 43.4933 163.13 43.36C163.263 43.2133 163.457 43.14 163.71 43.14C163.963 43.14 164.157 43.2133 164.29 43.36C164.437 43.4933 164.51 43.6933 164.51 43.96V45.58H164.31C164.523 44.7933 164.93 44.1867 165.53 43.76C166.13 43.3333 166.87 43.1067 167.75 43.08C167.95 43.0667 168.11 43.1133 168.23 43.22C168.35 43.3133 168.417 43.48 168.43 43.72C168.443 43.9467 168.39 44.1267 168.27 44.26C168.15 44.3933 167.963 44.4733 167.71 44.5L167.39 44.54C166.483 44.62 165.783 44.9133 165.29 45.42C164.81 45.9133 164.57 46.5933 164.57 47.46V52.3C164.57 52.5667 164.497 52.7733 164.35 52.92C164.217 53.0667 164.017 53.14 163.75 53.14ZM177.934 56.38C177.188 55.0067 176.641 53.6 176.294 52.16C175.948 50.7067 175.774 49.2333 175.774 47.74C175.774 46.74 175.848 45.7533 175.994 44.78C176.154 43.8067 176.394 42.8467 176.714 41.9C177.034 40.9533 177.441 40.02 177.934 39.1C178.028 38.9267 178.154 38.82 178.314 38.78C178.488 38.74 178.648 38.7533 178.794 38.82C178.954 38.8733 179.068 38.9867 179.134 39.16C179.201 39.32 179.188 39.5267 179.094 39.78C178.748 40.66 178.454 41.54 178.214 42.42C177.974 43.3 177.794 44.18 177.674 45.06C177.554 45.94 177.494 46.8333 177.494 47.74C177.494 48.6467 177.554 49.54 177.674 50.42C177.808 51.3 177.994 52.1733 178.234 53.04C178.474 53.92 178.761 54.8067 179.094 55.7C179.201 55.9533 179.214 56.16 179.134 56.32C179.068 56.4933 178.954 56.6067 178.794 56.66C178.648 56.7267 178.488 56.74 178.314 56.7C178.154 56.66 178.028 56.5533 177.934 56.38ZM182.722 53C182.429 53 182.202 52.9267 182.042 52.78C181.895 52.62 181.822 52.3933 181.822 52.1V39.8C181.822 39.5067 181.895 39.2867 182.042 39.14C182.202 38.98 182.429 38.9 182.722 38.9H186.582C188.862 38.9 190.622 39.5 191.862 40.7C193.102 41.9 193.722 43.6467 193.722 45.94C193.722 47.0867 193.562 48.1 193.242 48.98C192.935 49.8467 192.475 50.58 191.862 51.18C191.249 51.78 190.502 52.2333 189.622 52.54C188.742 52.8467 187.729 53 186.582 53H182.722ZM183.462 51.6H186.462C187.395 51.6 188.202 51.48 188.882 51.24C189.575 51 190.149 50.6467 190.602 50.18C191.069 49.7133 191.415 49.1267 191.642 48.42C191.869 47.7 191.982 46.8733 191.982 45.94C191.982 44.06 191.522 42.6533 190.602 41.72C189.682 40.7733 188.302 40.3 186.462 40.3H183.462V51.6ZM196.91 56.38C196.803 56.5533 196.67 56.66 196.51 56.7C196.35 56.74 196.19 56.7267 196.03 56.66C195.87 56.5933 195.757 56.48 195.69 56.32C195.623 56.16 195.637 55.9533 195.73 55.7C196.09 54.8067 196.383 53.92 196.61 53.04C196.85 52.1733 197.03 51.3 197.15 50.42C197.27 49.54 197.33 48.6467 197.33 47.74C197.33 46.8333 197.263 45.94 197.13 45.06C197.01 44.18 196.83 43.3067 196.59 42.44C196.363 41.56 196.077 40.6733 195.73 39.78C195.637 39.5267 195.623 39.32 195.69 39.16C195.77 38.9867 195.883 38.8733 196.03 38.82C196.177 38.7533 196.33 38.74 196.49 38.78C196.663 38.82 196.803 38.9267 196.91 39.1C197.643 40.46 198.183 41.8667 198.53 43.32C198.877 44.7733 199.05 46.2467 199.05 47.74C199.05 48.74 198.97 49.7333 198.81 50.72C198.663 51.6933 198.43 52.6533 198.11 53.6C197.803 54.5467 197.403 55.4733 196.91 56.38Z" fill="#444444"/>
<path d="M387.18 30.82C386.847 30.82 386.5 30.76 386.14 30.64C385.78 30.52 385.347 30.3267 384.84 30.06C384.347 29.7933 383.96 29.6133 383.68 29.52C383.4 29.4133 383.16 29.36 382.96 29.36C382.733 29.36 382.513 29.4 382.3 29.48C382.087 29.56 381.88 29.7533 381.68 30.06C381.533 30.2867 381.36 30.4133 381.16 30.44C380.96 30.4533 380.78 30.4 380.62 30.28C380.46 30.16 380.353 30 380.3 29.8C380.247 29.5867 380.287 29.3667 380.42 29.14C380.713 28.66 381.067 28.3 381.48 28.06C381.893 27.8067 382.34 27.68 382.82 27.68C383.14 27.68 383.487 27.74 383.86 27.86C384.233 27.9667 384.667 28.1533 385.16 28.42C385.6 28.6467 385.967 28.8267 386.26 28.96C386.567 29.08 386.827 29.14 387.04 29.14C387.267 29.14 387.487 29.1 387.7 29.02C387.927 28.9267 388.14 28.7333 388.34 28.44C388.487 28.2133 388.66 28.0933 388.86 28.08C389.06 28.0533 389.24 28.1 389.4 28.22C389.573 28.34 389.687 28.5067 389.74 28.72C389.793 28.92 389.747 29.1333 389.6 29.36C389.307 29.84 388.947 30.2067 388.52 30.46C388.107 30.7 387.66 30.82 387.18 30.82ZM387.18 34.82C386.847 34.82 386.5 34.76 386.14 34.64C385.78 34.52 385.347 34.3267 384.84 34.06C384.347 33.7933 383.96 33.6133 383.68 33.52C383.4 33.4133 383.16 33.36 382.96 33.36C382.733 33.36 382.513 33.4 382.3 33.48C382.087 33.56 381.88 33.7533 381.68 34.06C381.533 34.2867 381.36 34.4133 381.16 34.44C380.96 34.4533 380.78 34.4 380.62 34.28C380.46 34.16 380.353 34 380.3 33.8C380.247 33.5867 380.287 33.3667 380.42 33.14C380.713 32.66 381.067 32.3 381.48 32.06C381.893 31.8067 382.34 31.68 382.82 31.68C383.14 31.68 383.487 31.74 383.86 31.86C384.233 31.9667 384.667 32.1533 385.16 32.42C385.6 32.6467 385.967 32.8267 386.26 32.96C386.567 33.08 386.827 33.14 387.04 33.14C387.267 33.14 387.487 33.1 387.7 33.02C387.927 32.9267 388.14 32.7333 388.34 32.44C388.487 32.2133 388.66 32.0933 388.86 32.08C389.06 32.0533 389.24 32.1 389.4 32.22C389.573 32.34 389.687 32.5067 389.74 32.72C389.793 32.92 389.747 33.1333 389.6 33.36C389.307 33.84 388.947 34.2067 388.52 34.46C388.107 34.7 387.66 34.82 387.18 34.82Z" fill="#444444"/>
<path d="M409 39.2C407.333 39.2 406.06 38.5733 405.18 37.32C404.3 36.0533 403.86 34.2533 403.86 31.92C403.86 30.3467 404.053 29.0267 404.44 27.96C404.84 26.88 405.42 26.0667 406.18 25.52C406.953 24.9733 407.893 24.7 409 24.7C410.68 24.7 411.953 25.3133 412.82 26.54C413.7 27.7667 414.14 29.5533 414.14 31.9C414.14 33.46 413.94 34.7867 413.54 35.88C413.153 36.96 412.58 37.7867 411.82 38.36C411.06 38.92 410.12 39.2 409 39.2ZM409 37.1C409.907 37.1 410.573 36.68 411 35.84C411.44 35 411.66 33.6867 411.66 31.9C411.66 30.1133 411.44 28.82 411 28.02C410.573 27.2067 409.907 26.8 409 26.8C408.107 26.8 407.44 27.2067 407 28.02C406.56 28.82 406.34 30.1133 406.34 31.9C406.34 33.6867 406.56 35 407 35.84C407.44 36.68 408.107 37.1 409 37.1ZM417.492 39.1C417.039 39.1 416.672 38.96 416.392 38.68C416.126 38.4 415.992 38.04 415.992 37.6C415.992 37.1733 416.126 36.8267 416.392 36.56C416.672 36.28 417.039 36.14 417.492 36.14C417.959 36.14 418.319 36.28 418.572 36.56C418.839 36.8267 418.972 37.1733 418.972 37.6C418.972 38.04 418.839 38.4 418.572 38.68C418.319 38.96 417.959 39.1 417.492 39.1ZM423.073 39C422.726 39 422.453 38.9067 422.253 38.72C422.066 38.52 421.973 38.2533 421.973 37.92C421.973 37.5733 422.066 37.3133 422.253 37.14C422.453 36.9667 422.726 36.88 423.073 36.88H425.313V27.06H426.553L423.613 28.84C423.36 28.9867 423.12 29.0467 422.893 29.02C422.68 28.98 422.493 28.8867 422.333 28.74C422.186 28.58 422.086 28.3933 422.033 28.18C421.98 27.9667 421.993 27.7533 422.073 27.54C422.166 27.3133 422.34 27.1267 422.593 26.98L425.353 25.32C425.62 25.16 425.886 25.0267 426.153 24.92C426.42 24.8 426.666 24.74 426.893 24.74C427.173 24.74 427.406 24.82 427.593 24.98C427.78 25.1267 427.873 25.3733 427.873 25.72V36.88H429.913C430.26 36.88 430.526 36.9667 430.713 37.14C430.913 37.3133 431.013 37.5733 431.013 37.92C431.013 38.2667 430.913 38.5333 430.713 38.72C430.526 38.9067 430.26 39 429.913 39H423.073ZM440.205 39.16C439.805 39.16 439.492 39.0533 439.265 38.84C439.039 38.6133 438.925 38.2933 438.925 37.88V36.32H433.985C433.572 36.32 433.239 36.2333 432.985 36.06C432.745 35.8867 432.625 35.6133 432.625 35.24C432.625 35.0267 432.679 34.7933 432.785 34.54C432.905 34.2867 433.112 33.9533 433.405 33.54L438.885 25.6C439.072 25.32 439.279 25.1067 439.505 24.96C439.732 24.8133 439.992 24.74 440.285 24.74C440.632 24.74 440.919 24.8467 441.145 25.06C441.372 25.26 441.485 25.58 441.485 26.02V34.2H442.465C442.852 34.2 443.139 34.2933 443.325 34.48C443.525 34.6533 443.625 34.9133 443.625 35.26C443.625 35.6067 443.525 35.8733 443.325 36.06C443.139 36.2333 442.852 36.32 442.465 36.32H441.485V37.88C441.485 38.2933 441.372 38.6133 441.145 38.84C440.919 39.0533 440.605 39.16 440.205 39.16ZM438.925 34.2V27.96H439.505L434.785 34.88V34.2H438.925Z" fill="#646464"/>
<line x1="0.00193049" y1="31.5" x2="275.002" y2="32.5618" stroke="black"/>
</svg>
