<svg width="23" height="24" viewBox="0 0 23 24" fill="none" xmlns="http://www.w3.org/2000/svg">
<path d="M14.9724 6.34219C15.3045 6.04688 15.4355 5.58281 15.2624 5.17031C15.1548 4.92188 15.0379 4.67813 14.9069 4.44375L14.7619 4.19063C14.6216 3.95625 14.4672 3.72656 14.3034 3.50625C14.0368 3.15 13.569 3.03281 13.148 3.17344L11.8288 3.60938C11.3282 3.19687 10.7528 2.85938 10.1353 2.62969L9.84996 1.27031C9.76108 0.834375 9.42426 0.4875 8.98452 0.435938C8.67577 0.39375 8.36235 0.375 8.04424 0.375H8.01149C7.69339 0.375 7.37996 0.39375 7.07121 0.43125C6.63148 0.482812 6.29466 0.834375 6.20578 1.26562L5.92042 2.62969C5.29824 2.86406 4.72752 3.19687 4.22697 3.60938L2.90309 3.17813C2.48206 3.0375 2.01426 3.15469 1.74761 3.51094C1.58388 3.73125 1.42951 3.96094 1.28449 4.19531L1.14415 4.44375C1.01316 4.67813 0.896211 4.92188 0.788616 5.175C0.615529 5.58281 0.746514 6.04688 1.07865 6.34688L2.11718 7.275C2.06572 7.58906 2.03765 7.91719 2.03765 8.25C2.03765 8.58281 2.06572 8.91094 2.11718 9.22969L1.07865 10.1578C0.746514 10.4531 0.615529 10.9172 0.788616 11.3297C0.896211 11.5781 1.01316 11.8219 1.14415 12.0609L1.28449 12.3047C1.42483 12.5438 1.5792 12.7688 1.74761 12.9891C2.01426 13.3453 2.48206 13.4625 2.90309 13.3219L4.22229 12.8859C4.72284 13.2984 5.29824 13.6359 5.91574 13.8656L6.2011 15.2297C6.28998 15.6656 6.6268 16.0125 7.06653 16.0641C7.37996 16.1016 7.69807 16.1203 8.02085 16.1203C8.34363 16.1203 8.66174 16.1016 8.97517 16.0641C9.4149 16.0125 9.75172 15.6609 9.8406 15.2297L10.126 13.8656C10.7481 13.6313 11.3189 13.2984 11.8194 12.8859L13.1386 13.3219C13.5596 13.4625 14.0274 13.3453 14.2941 12.9891C14.4578 12.7688 14.6122 12.5438 14.7525 12.3047L14.8976 12.0516C15.0285 11.8172 15.1455 11.5734 15.2531 11.325C15.4262 10.9172 15.2952 10.4531 14.963 10.1531L13.9245 9.225C13.976 8.90625 14.0041 8.57813 14.0041 8.24531C14.0041 7.9125 13.976 7.58438 13.9245 7.26562L14.963 6.3375L14.9724 6.34219ZM5.78007 8.25C5.78007 7.65326 6.01665 7.08097 6.43775 6.65901C6.85886 6.23705 7.43 6 8.02553 6C8.62106 6 9.1922 6.23705 9.61331 6.65901C10.0344 7.08097 10.271 7.65326 10.271 8.25C10.271 8.84674 10.0344 9.41903 9.61331 9.84099C9.1922 10.2629 8.62106 10.5 8.02553 10.5C7.43 10.5 6.85886 10.2629 6.43775 9.84099C6.01665 9.41903 5.78007 8.84674 5.78007 8.25Z" fill="white"/>
<path d="M22.0794 16.3054C22.3326 16.0803 22.4325 15.7266 22.3005 15.4122C22.2185 15.2229 22.1293 15.0371 22.0294 14.8585L21.9189 14.6656C21.8119 14.487 21.6942 14.3119 21.5694 14.144C21.3661 13.8725 21.0094 13.7832 20.6884 13.8903L19.6826 14.2226C19.301 13.9082 18.8623 13.651 18.3915 13.4759L18.174 12.4399C18.1062 12.1077 17.8494 11.8433 17.5142 11.804C17.2788 11.7719 17.0398 11.7576 16.7973 11.7576H16.7723C16.5298 11.7576 16.2908 11.7719 16.0555 11.8004C15.7202 11.8397 15.4634 12.1077 15.3956 12.4363L15.1781 13.4759C14.7037 13.6546 14.2686 13.9082 13.887 14.2226L12.8777 13.8939C12.5567 13.7867 12.2 13.8761 11.9967 14.1476C11.8719 14.3155 11.7542 14.4905 11.6436 14.6691L11.5366 14.8585C11.4368 15.0371 11.3476 15.2229 11.2656 15.4158C11.1336 15.7266 11.2335 16.0803 11.4867 16.3089L12.2785 17.0163C12.2392 17.2556 12.2178 17.5057 12.2178 17.7594C12.2178 18.013 12.2392 18.2631 12.2785 18.506L11.4867 19.2134C11.2335 19.4384 11.1336 19.7921 11.2656 20.1065C11.3476 20.2958 11.4368 20.4816 11.5366 20.6638L11.6436 20.8496C11.7506 21.0318 11.8683 21.2032 11.9967 21.3711C12.2 21.6427 12.5567 21.732 12.8777 21.6248L13.8834 21.2925C14.265 21.6069 14.7037 21.8641 15.1745 22.0392L15.3921 23.0788C15.4598 23.411 15.7166 23.6754 16.0519 23.7147C16.2908 23.7433 16.5334 23.7576 16.7795 23.7576C17.0256 23.7576 17.2681 23.7433 17.507 23.7147C17.8423 23.6754 18.0991 23.4075 18.1669 23.0788L18.3844 22.0392C18.8588 21.8606 19.2939 21.6069 19.6755 21.2925L20.6813 21.6248C21.0023 21.732 21.3589 21.6427 21.5622 21.3711C21.6871 21.2032 21.8047 21.0318 21.9117 20.8496L22.0223 20.6566C22.1222 20.478 22.2113 20.2923 22.2934 20.1029C22.4253 19.7921 22.3255 19.4384 22.0722 19.2098L21.2805 18.5024C21.3197 18.2595 21.3411 18.0094 21.3411 17.7558C21.3411 17.5021 21.3197 17.2521 21.2805 17.0091L22.0722 16.3018L22.0794 16.3054ZM15.0711 17.7594C15.0711 17.3046 15.2515 16.8684 15.5725 16.5468C15.8936 16.2252 16.329 16.0446 16.783 16.0446C17.2371 16.0446 17.6725 16.2252 17.9936 16.5468C18.3146 16.8684 18.495 17.3046 18.495 17.7594C18.495 18.2141 18.3146 18.6503 17.9936 18.9719C17.6725 19.2935 17.2371 19.4742 16.783 19.4742C16.329 19.4742 15.8936 19.2935 15.5725 18.9719C15.2515 18.6503 15.0711 18.2141 15.0711 17.7594Z" fill="white"/>
</svg>
