<svg width="17" height="16" viewBox="0 0 17 16" fill="none" xmlns="http://www.w3.org/2000/svg">
<path fill-rule="evenodd" clip-rule="evenodd" d="M0.5 0H1.5V15H16.5V16H0.5V0ZM15.317 3.113C15.3679 3.15461 15.41 3.20583 15.441 3.26374C15.4721 3.32165 15.4914 3.38511 15.4979 3.45049C15.5044 3.51587 15.498 3.5819 15.4789 3.64478C15.4599 3.70767 15.4287 3.76619 15.387 3.817L10.887 9.317C10.8428 9.37099 10.7877 9.41511 10.7254 9.44655C10.6631 9.47798 10.5949 9.49602 10.5252 9.4995C10.4555 9.50299 10.3858 9.49184 10.3207 9.46678C10.2556 9.44172 10.1964 9.4033 10.147 9.354L7.56 6.767L3.904 11.794C3.82402 11.8957 3.70774 11.9624 3.57958 11.9802C3.45143 11.9979 3.32138 11.9653 3.21677 11.8892C3.11216 11.8131 3.04113 11.6994 3.01861 11.572C2.99609 11.4446 3.02383 11.3134 3.096 11.206L7.096 5.706C7.13846 5.64751 7.19309 5.59893 7.25613 5.56359C7.31917 5.52825 7.38912 5.50699 7.46117 5.50129C7.53322 5.49559 7.60564 5.50557 7.67346 5.53055C7.74128 5.55554 7.80287 5.59492 7.854 5.646L10.463 8.256L14.613 3.183C14.6546 3.13215 14.7058 3.09 14.7637 3.05896C14.8217 3.02792 14.8851 3.00859 14.9505 3.00209C15.0159 2.99559 15.0819 3.00204 15.1448 3.02107C15.2077 3.0401 15.2662 3.07134 15.317 3.113Z" fill="white" stroke="white"/>
</svg>
