<svg width="71" height="70" viewBox="0 0 71 70" fill="none" xmlns="http://www.w3.org/2000/svg">
<path opacity="0.15" d="M17.0813 53.4188C17.0813 53.7348 17.5577 54.0477 18.4833 54.3396C19.409 54.6315 20.7657 54.8968 22.476 55.1202C24.1864 55.3437 26.2168 55.5209 28.4515 55.6418C30.6862 55.7628 33.0813 55.825 35.5 55.825C37.9188 55.825 40.3139 55.7628 42.5486 55.6418C44.7833 55.5209 46.8137 55.3437 48.5241 55.1202C50.2344 54.8968 51.5911 54.6315 52.5168 54.3396C53.4424 54.0477 53.9188 53.7348 53.9188 53.4188C53.9188 52.7806 51.9783 52.1685 48.5241 51.7173C45.0699 51.266 40.385 51.0125 35.5 51.0125C30.6151 51.0125 25.9302 51.266 22.476 51.7173C19.0218 52.1685 17.0813 52.7806 17.0813 53.4188Z" fill="#45413C"/>
<path d="M45.0959 38.9813C48.2701 34.882 52.8164 32.0652 57.9001 31.0479C66.2272 29.3417 69.2897 34.4313 68.1084 38.6313C67.1751 41.5479 62.4793 44.1583 45.0959 38.9813Z" fill="#FFF48C"/>
<path d="M57.9001 34.4458C63.9376 33.2062 67.2043 35.5541 68.1084 38.5437C69.2897 34.3583 66.2126 29.3417 57.9001 31.0479C52.8164 32.0652 48.2701 34.882 45.0959 38.9812C45.9564 39.2437 46.773 39.4625 47.5751 39.6812C50.4874 37.0453 54.0526 35.2375 57.9001 34.4458Z" fill="#FFFACF"/>
<path d="M45.0959 38.9813C48.2701 34.882 52.8164 32.0652 57.9001 31.0479C66.2272 29.3417 69.2897 34.4313 68.1084 38.6313C67.1751 41.5479 62.4793 44.1583 45.0959 38.9813Z" stroke="#45413C" stroke-linecap="round" stroke-linejoin="round"/>
<path d="M45.0959 38.9813C45.5289 44.1595 47.818 49.007 51.5418 52.6313C57.5793 58.6104 62.9314 56.0146 64.1709 51.8292C64.9876 48.8979 62.4793 44.1583 45.0959 38.9813Z" fill="#FFF48C"/>
<path d="M53.0001 48.2562C57.6813 52.8792 61.925 52.3687 64.2001 49.9625C63.573 47.2646 59.723 43.6771 47.7063 39.7542C48.7896 42.9594 50.6017 45.8697 53.0001 48.2562Z" fill="#FFE500"/>
<path d="M45.0959 38.9813C45.5289 44.1595 47.818 49.007 51.5418 52.6313C57.5793 58.6104 62.9314 56.0146 64.1709 51.8292C64.9876 48.8979 62.4793 44.1583 45.0959 38.9813Z" stroke="#45413C" stroke-linecap="round" stroke-linejoin="round"/>
<path d="M45.0959 38.9813C45.0959 38.9813 58.6001 37.7708 64.6668 39.5792C70.7334 41.3875 68.1084 51.0563 61.7501 49.175C55.3918 47.2938 45.0959 38.9813 45.0959 38.9813Z" fill="#FF87AF"/>
<path d="M64.6668 43.1375C65.3854 43.3323 66.0455 43.6999 66.5894 44.2083C67.1334 44.7166 67.5447 45.3504 67.7876 46.0542C68.0459 45.4271 68.1691 44.7527 68.1493 44.0748C68.1295 43.397 67.9671 42.7309 67.6727 42.12C67.3782 41.5091 66.9584 40.9671 66.4404 40.5293C65.9225 40.0915 65.3182 39.7678 64.6668 39.5792C58.6001 37.7708 45.0959 38.9813 45.0959 38.9813C45.0959 38.9813 46.9189 40.4396 49.471 42.2625C53.9918 42.0583 60.8168 42 64.6668 43.1375Z" fill="#FFB0CA"/>
<path d="M45.0959 38.9813C45.0959 38.9813 58.6001 37.7708 64.6668 39.5792C70.7334 41.3875 68.1084 51.0563 61.7501 49.175C55.3918 47.2938 45.0959 38.9813 45.0959 38.9813Z" stroke="#45413C" stroke-linecap="round" stroke-linejoin="round"/>
<path d="M25.9041 33.2646C25.4729 28.0901 23.1832 23.2466 19.4583 19.6292C13.4791 13.6354 8.12705 16.2312 6.88747 20.4167C6.01247 23.3333 8.5208 28.1021 25.9041 33.2646Z" fill="#FFF48C"/>
<path d="M19.4583 23.2021C22.2461 25.9158 24.2597 29.3238 25.2916 33.075L25.9333 33.2646C25.4942 28.0862 23.194 23.2421 19.4583 19.6292C13.4791 13.6354 8.12704 16.2312 6.88745 20.4167C6.61641 21.3475 6.72112 22.3476 7.17912 23.2021C8.82704 19.5125 13.8729 17.6167 19.4583 23.2021Z" fill="#FFFACF"/>
<path d="M25.9041 33.2646C25.4729 28.0901 23.1832 23.2466 19.4583 19.6292C13.4791 13.6354 8.12705 16.2312 6.88747 20.4167C6.01247 23.3333 8.5208 28.1021 25.9041 33.2646Z" stroke="#45413C" stroke-linecap="round" stroke-linejoin="round"/>
<path d="M25.9041 33.2646C22.7341 37.3712 18.1868 40.1939 13.1 41.2125C4.77287 42.9187 1.71037 37.8146 2.89162 33.6291C3.82495 30.6979 8.52079 28.1021 25.9041 33.2646Z" fill="#FFF48C"/>
<path d="M3.7229 32.2729C4.40832 35.4375 7.68957 38.1063 14.0042 36.7646C17.3496 36.0778 20.4868 34.6141 23.1625 32.4917C10.6062 29.1667 5.5604 30.2167 3.7229 32.2729Z" fill="#FFE500"/>
<path d="M25.9041 33.2646C22.7341 37.3712 18.1868 40.1939 13.1 41.2125C4.77287 42.9187 1.71037 37.8146 2.89162 33.6291C3.82495 30.6979 8.52079 28.1021 25.9041 33.2646Z" stroke="#45413C" stroke-linecap="round" stroke-linejoin="round"/>
<path d="M25.9041 33.2646C25.9041 33.2646 15.2583 24.8791 9.19161 23.0562C3.12495 21.2333 0.0332789 30.7854 6.27495 32.6521C12.5166 34.5187 25.9041 33.2646 25.9041 33.2646Z" fill="#FF87AF"/>
<path d="M9.25004 26.3812C12.9105 27.475 18.2334 30.9604 21.8938 33.5562C24.3 33.425 25.9625 33.2646 25.9625 33.2646C25.9625 33.2646 15.3167 24.8792 9.25004 23.0562C4.87504 21.7729 1.95837 26.3812 3.13962 29.7354C3.30084 29.1019 3.59058 28.5084 3.99084 27.9916C4.3911 27.4748 4.89333 27.0458 5.46635 26.7312C6.03937 26.4167 6.67093 26.2233 7.32183 26.1631C7.97272 26.1029 8.62905 26.1771 9.25004 26.3812Z" fill="#FFB0CA"/>
<path d="M25.9041 33.2646C25.9041 33.2646 15.2583 24.8791 9.19161 23.0562C3.12495 21.2333 0.0332789 30.7854 6.27495 32.6521C12.5166 34.5187 25.9041 33.2646 25.9041 33.2646Z" stroke="#45413C" stroke-linecap="round" stroke-linejoin="round"/>
<path d="M50.4918 40.5854C49.6098 43.5525 47.8677 46.1914 45.4858 48.1683C43.1039 50.1451 40.1892 51.3711 37.1104 51.6911C34.0316 52.0112 30.927 51.4109 28.1894 49.9663C25.4518 48.5217 23.2042 46.2975 21.7308 43.5753C20.2574 40.853 19.6246 37.755 19.9122 34.673C20.1999 31.591 21.3951 28.6635 23.3468 26.2609C25.2985 23.8584 27.9189 22.0886 30.8765 21.1755C33.8342 20.2624 36.9962 20.247 39.9626 21.1313C41.9319 21.7163 43.7667 22.6838 45.3619 23.9784C46.9571 25.273 48.2815 26.8693 49.2593 28.676C50.2372 30.4828 50.8494 32.4646 51.0608 34.5081C51.2723 36.5516 51.0789 38.6167 50.4918 40.5854Z" fill="#FF87AF"/>
<path d="M20.5084 37.1C21.5076 33.7188 23.6204 30.7746 26.5039 28.7455C29.3873 26.7164 32.8719 25.7216 36.392 25.9226C39.9121 26.1236 43.2608 27.5086 45.8945 29.8527C48.5282 32.1968 50.2922 35.3624 50.9 38.8354C51.2926 36.5887 51.1888 34.2832 50.596 32.0808C50.0031 29.8784 48.9355 27.8324 47.4681 26.0864C46.0007 24.3403 44.169 22.9365 42.1015 21.9733C40.034 21.0102 37.7808 20.5112 35.5 20.5112C33.2192 20.5112 30.9661 21.0102 28.8986 21.9733C26.8311 22.9365 24.9994 24.3403 23.532 26.0864C22.0645 27.8324 20.997 29.8784 20.4041 32.0808C19.8112 34.2832 19.7074 36.5887 20.1 38.8354C20.202 38.2495 20.3383 37.67 20.5084 37.1Z" fill="#FFB0CA"/>
<path d="M50.4918 40.5854C49.6098 43.5525 47.8677 46.1914 45.4858 48.1683C43.1039 50.1451 40.1892 51.3711 37.1104 51.6911C34.0316 52.0112 30.927 51.4109 28.1894 49.9663C25.4518 48.5217 23.2042 46.2975 21.7308 43.5753C20.2574 40.853 19.6246 37.755 19.9122 34.673C20.1999 31.591 21.3951 28.6635 23.3468 26.2609C25.2985 23.8584 27.9189 22.0886 30.8765 21.1755C33.8342 20.2624 36.9962 20.247 39.9626 21.1313C41.9319 21.7163 43.7667 22.6838 45.3619 23.9784C46.9571 25.273 48.2815 26.8693 49.2593 28.676C50.2372 30.4828 50.8494 32.4646 51.0608 34.5081C51.2723 36.5516 51.0789 38.6167 50.4918 40.5854Z" stroke="#45413C" stroke-linecap="round" stroke-linejoin="round"/>
<path d="M49.0041 28.2625C44.2016 28.9582 39.4914 30.1858 34.9603 31.9229C29.7348 33.6774 24.7704 36.1301 20.202 39.2146C19.7237 37.0111 19.7486 34.728 20.2749 32.5354C24.0411 29.7642 28.1863 27.5491 32.5832 25.9584C36.2225 24.6094 39.9691 23.5703 43.7832 22.8521C45.9469 24.1927 47.7415 26.0524 49.0041 28.2625Z" fill="#FFF48C"/>
<path d="M39.9625 26.5709C41.7042 27.0918 43.3424 27.9109 44.8042 28.9917C46.4229 28.6271 47.7937 28.4229 49.0187 28.2625C47.7321 26.0571 45.9308 24.1958 43.7687 22.8375C39.9611 23.5698 36.2201 24.6136 32.5833 25.9584L30.6875 26.6875C33.6965 25.713 36.93 25.6724 39.9625 26.5709Z" fill="#FFFACF"/>
<path d="M34.9604 31.9229C39.4917 30.1712 44.2085 28.9431 49.0187 28.2625C47.7321 26.0571 45.9308 24.1958 43.7687 22.8375C39.9611 23.5698 36.2201 24.6136 32.5833 25.9584C28.1904 27.5572 24.0539 29.7876 20.3041 32.5792C19.7828 34.7714 19.7479 37.0512 20.2021 39.2584C24.7662 36.1555 29.7312 33.6877 34.9604 31.9229Z" stroke="#45413C" stroke-linecap="round" stroke-linejoin="round"/>
<path d="M50.6522 39.9438C47.2296 40.7182 43.863 41.7219 40.5751 42.9479C35.8719 44.571 31.3664 46.7185 27.1438 49.35C25.6128 48.39 24.2648 47.1654 23.1626 45.7334C27.6062 41.9422 32.6937 38.9786 38.1834 36.9834C42.3146 35.4232 46.5884 34.2705 50.9438 33.5417C51.2984 35.6725 51.199 37.8541 50.6522 39.9438Z" fill="#FFF48C" stroke="#45413C" stroke-linecap="round" stroke-linejoin="round"/>
</svg>
