<svg width="64" height="64" viewBox="0 0 64 64" fill="none" xmlns="http://www.w3.org/2000/svg">
<path d="M22.7996 41.1999C28.1996 46.5999 26.0996 57.4999 22.4996 61.1999C18.7996 64.8999 19.2996 55.5999 13.8996 50.1999C8.49961 44.7999 -0.800389 45.1999 2.89961 41.5999C6.49961 37.8999 17.3996 35.7999 22.7996 41.1999Z" fill="#F2B5B5"/>
<path d="M2.7998 41.4998C2.7998 41.4998 8.8998 41.7998 9.8998 46.5998C10.4998 48.9998 9.1998 51.1998 10.9998 52.9998C12.7998 54.7998 14.9998 53.4998 17.2998 54.0998C22.0998 55.1998 22.3998 61.1998 22.3998 61.1998C26.0998 57.4998 28.1998 46.5998 22.6998 41.1998C17.3998 35.7998 6.4998 37.8998 2.7998 41.4998Z" fill="#FFE6E8"/>
<path d="M41.2003 22.8C35.8003 17.4 37.9003 6.5 41.5003 2.8C45.2003 -0.899998 44.7003 8.4 50.1003 13.8C55.5003 19.2 64.8003 18.8 61.1003 22.4C57.5003 26.1 46.6003 28.2 41.2003 22.8Z" fill="#F2B5B5"/>
<path d="M61.2001 22.5C61.2001 22.5 55.1001 22.2 54.1001 17.4C53.6001 15.1 54.9001 12.9 53.1001 11.1C51.3001 9.3 49.1001 10.6 46.8001 10.1C42.0001 9 41.7001 3 41.7001 3C38.0001 6.7 35.9001 17.6 41.4001 23C46.6001 28.2 57.5001 26.1 61.2001 22.5Z" fill="#FFE6E8"/>
<path d="M32.0002 32.0001C29.2002 34.0001 25.2002 33.7001 22.7002 31.2001C20.5002 29.0001 20.0002 25.8001 21.2002 23.1001C17.7002 27.4001 17.1002 33.3001 19.5002 38.1001C28.0002 40.2001 30.4002 33.9001 32.0002 32.0001Z" fill="#F0154F"/>
<path d="M31.9998 32.0002C29.9998 29.2002 30.2998 25.2002 32.8998 22.7002C35.0998 20.5002 38.2998 20.0002 40.8998 21.2002C36.5998 17.7002 30.6998 17.1002 25.8998 19.5002C23.6998 28.0002 30.0998 30.4002 31.9998 32.0002Z" fill="#F0154F"/>
<path d="M32 32.0003C34.9 30.1003 38.8 30.3003 41.3 32.8003C43.5 35.0003 44 38.1003 42.9 40.8003C46.3 36.5003 46.9 30.7003 44.6 25.9003C36 23.8003 33.6 30.1003 32 32.0003Z" fill="#F0154F"/>
<path d="M32.1002 32.2002C34.0002 35.0002 33.7002 38.9002 31.2002 41.4002C29.0002 43.6002 25.9002 44.1002 23.2002 43.0002C27.5002 46.5002 33.3002 47.0002 38.1002 44.7002C40.2002 36.1002 34.1002 33.7002 32.1002 32.2002Z" fill="#F0154F"/>
<path d="M41.7004 21.9C41.4004 21.6 41.1004 21.4 40.8004 21.1C38.1004 20 35.0004 20.5 32.8004 22.6C30.3004 25.2 30.0004 29.1 32.0004 32C30.1004 30.5 23.8004 28.1 25.9004 19.5C25.5004 19.7 25.2004 19.9 24.8004 20.1C23.8004 20.7 22.9004 21.4 22.1004 22.2L21.9004 22.4C21.6004 22.7 21.4004 23 21.1004 23.3C19.9004 26 20.4004 29.2 22.6004 31.4C25.1004 33.9 29.1004 34.2 31.9004 32.2C30.4004 34 28.0004 40.4 19.4004 38.3C19.6004 38.7 19.8004 39.1 20.0004 39.4C20.6004 40.3 21.3004 41.2 22.1004 42L22.3004 42.2C22.6004 42.5 22.9004 42.7 23.2004 43C25.9004 44.1 29.0004 43.6 31.2004 41.4C33.7004 38.9 34.0004 35 32.1004 32.2C34.1004 33.7 40.2004 36.2 38.1004 44.6C38.5004 44.4 38.8004 44.2 39.2004 44C40.2004 43.4 41.1004 42.7 41.9004 41.9L42.1004 41.7C42.4004 41.4 42.7004 41.1 42.9004 40.8C44.0004 38.2 43.5004 35 41.3004 32.8C38.8004 30.3 34.9004 30 32.0004 32C33.5004 30.1 36.0004 23.8 44.6004 25.9C44.4004 25.6 44.3004 25.2 44.1004 24.9C43.5004 23.9 42.8004 23 41.9004 22.1L41.7004 21.9Z" fill="#FFE6E8"/>
</svg>
