<svg width="100" height="200" viewBox="0 0 100 200" fill="none" xmlns="http://www.w3.org/2000/svg">
<path d="M99.4998 100C99.4998 134.388 87.0491 159.284 74.6024 175.585C68.3778 183.737 62.1539 189.739 57.4886 193.702C55.1561 195.683 53.2138 197.154 51.8567 198.128C51.1781 198.616 50.6459 198.979 50.2844 199.219C50.1731 199.293 50.078 199.356 49.9998 199.406C49.9216 199.356 49.8265 199.293 49.7153 199.219C49.3538 198.979 48.8215 198.616 48.143 198.128C46.7858 197.154 44.8435 195.683 42.511 193.702C37.8457 189.739 31.6219 183.737 25.3973 175.585C12.9506 159.284 0.5 134.388 0.5 100C0.5 65.6119 12.9506 40.7159 25.3973 24.4151C31.6219 16.2631 37.8457 10.2607 42.511 6.29795C44.8435 4.31673 46.7858 2.84583 48.143 1.87151C48.8215 1.38436 49.3538 1.02139 49.7153 0.780884C49.8265 0.706856 49.9216 0.644431 49.9998 0.593561C50.078 0.644432 50.1731 0.706856 50.2844 0.780884C50.6459 1.02139 51.1781 1.38436 51.8567 1.87151C53.2138 2.84583 55.1561 4.31673 57.4886 6.29795C62.1539 10.2607 68.3778 16.2631 74.6024 24.4151C87.0491 40.7159 99.4998 65.6119 99.4998 100Z" fill="white" stroke="#1CB9D9" stroke-linecap="round"/>
</svg>
