<svg width="421" height="55" viewBox="0 0 421 55" fill="none" xmlns="http://www.w3.org/2000/svg">
<path d="M2.94 21.8L6.78 32.72L10.58 21.8H13.48L8.1 36H5.44L0.04 21.8H2.94ZM18.1889 36.2C17.3356 36.2 16.5689 36.06 15.8889 35.78C15.2089 35.4867 14.6289 35.0867 14.1489 34.58C13.6822 34.0733 13.3222 33.4933 13.0689 32.84C12.8156 32.1867 12.6889 31.5 12.6889 30.78C12.6889 30.0467 12.8156 29.3533 13.0689 28.7C13.3222 28.0467 13.6822 27.4667 14.1489 26.96C14.6289 26.4533 15.2089 26.06 15.8889 25.78C16.5689 25.4867 17.3356 25.34 18.1889 25.34C19.0422 25.34 19.8022 25.4867 20.4689 25.78C21.1489 26.06 21.7289 26.4533 22.2089 26.96C22.6889 27.4667 23.0489 28.0467 23.2889 28.7C23.5422 29.3533 23.6689 30.0467 23.6689 30.78C23.6689 31.5 23.5422 32.1867 23.2889 32.84C23.0489 33.4933 22.6889 34.0733 22.2089 34.58C21.7422 35.0867 21.1689 35.4867 20.4889 35.78C19.8089 36.06 19.0422 36.2 18.1889 36.2ZM15.4489 30.78C15.4489 31.3933 15.5689 31.94 15.8089 32.42C16.0489 32.8867 16.3756 33.2533 16.7889 33.52C17.2022 33.7867 17.6689 33.92 18.1889 33.92C18.6956 33.92 19.1556 33.7867 19.5689 33.52C19.9822 33.24 20.3089 32.8667 20.5489 32.4C20.8022 31.92 20.9289 31.3733 20.9289 30.76C20.9289 30.16 20.8022 29.62 20.5489 29.14C20.3089 28.66 19.9822 28.2867 19.5689 28.02C19.1556 27.7533 18.6956 27.62 18.1889 27.62C17.6689 27.62 17.2022 27.76 16.7889 28.04C16.3756 28.3067 16.0489 28.68 15.8089 29.16C15.5689 29.6267 15.4489 30.1667 15.4489 30.78ZM25.4578 21.4H28.1378V32.64C28.1378 33.12 28.2178 33.4467 28.3778 33.62C28.5378 33.78 28.7578 33.86 29.0378 33.86C29.2511 33.86 29.4711 33.8333 29.6978 33.78C29.9245 33.7267 30.1245 33.66 30.2978 33.58L30.6578 35.62C30.2978 35.7933 29.8778 35.9267 29.3978 36.02C28.9178 36.1133 28.4845 36.16 28.0978 36.16C27.2578 36.16 26.6045 35.94 26.1378 35.5C25.6845 35.0467 25.4578 34.4067 25.4578 33.58V21.4ZM31.7255 32.08V25.52H34.4055V31.5C34.4055 32.3 34.5521 32.9067 34.8455 33.32C35.1388 33.72 35.5721 33.92 36.1455 33.92C36.4921 33.92 36.8321 33.8533 37.1655 33.72C37.5121 33.5733 37.8255 33.36 38.1055 33.08C38.3988 32.8 38.6455 32.4467 38.8455 32.02V25.52H41.5255V33C41.5255 33.28 41.5721 33.48 41.6655 33.6C41.7721 33.72 41.9388 33.7933 42.1655 33.82V36C41.8988 36.04 41.6721 36.0667 41.4855 36.08C41.3121 36.1067 41.1521 36.12 41.0055 36.12C40.5255 36.12 40.1321 36.0133 39.8255 35.8C39.5321 35.5733 39.3588 35.2667 39.3055 34.88L39.2455 34.04C38.7788 34.7467 38.1788 35.2867 37.4455 35.66C36.7121 36.02 35.9055 36.2 35.0255 36.2C33.9455 36.2 33.1255 35.8533 32.5655 35.16C32.0055 34.4533 31.7255 33.4267 31.7255 32.08ZM60.4688 36H57.7888V30.12C57.7888 29.2933 57.6421 28.6867 57.3488 28.3C57.0688 27.9 56.6754 27.7 56.1688 27.7C55.6488 27.7 55.1488 27.9067 54.6688 28.32C54.2021 28.72 53.8688 29.2467 53.6688 29.9V36H50.9888V30.12C50.9888 29.28 50.8421 28.6667 50.5488 28.28C50.2688 27.8933 49.8754 27.7 49.3688 27.7C48.8488 27.7 48.3488 27.9 47.8688 28.3C47.4021 28.7 47.0688 29.2267 46.8688 29.88V36H44.1888V25.52H46.6088V27.46C47.0088 26.78 47.5421 26.26 48.2088 25.9C48.8754 25.5267 49.6421 25.34 50.5088 25.34C51.3754 25.34 52.0488 25.5533 52.5288 25.98C53.0221 26.4067 53.3354 26.9333 53.4688 27.56C53.8954 26.84 54.4354 26.2933 55.0888 25.92C55.7554 25.5333 56.5021 25.34 57.3288 25.34C57.9821 25.34 58.5088 25.46 58.9088 25.7C59.3221 25.9267 59.6421 26.24 59.8688 26.64C60.0954 27.0267 60.2488 27.4667 60.3288 27.96C60.4221 28.4533 60.4688 28.9533 60.4688 29.46V36ZM67.662 36.2C66.822 36.2 66.062 36.06 65.382 35.78C64.702 35.4867 64.122 35.0933 63.642 34.6C63.162 34.0933 62.7887 33.52 62.522 32.88C62.2687 32.2267 62.142 31.54 62.142 30.82C62.142 29.82 62.362 28.9067 62.802 28.08C63.2554 27.2533 63.8954 26.5933 64.722 26.1C65.562 25.5933 66.5487 25.34 67.682 25.34C68.8287 25.34 69.8087 25.5933 70.622 26.1C71.4354 26.5933 72.0554 27.2533 72.482 28.08C72.922 28.8933 73.142 29.7733 73.142 30.72C73.142 30.88 73.1354 31.0467 73.122 31.22C73.1087 31.38 73.0954 31.5133 73.082 31.62H64.982C65.0354 32.1533 65.1887 32.62 65.442 33.02C65.7087 33.42 66.042 33.7267 66.442 33.94C66.8554 34.14 67.2954 34.24 67.762 34.24C68.2954 34.24 68.7954 34.1133 69.262 33.86C69.742 33.5933 70.0687 33.2467 70.242 32.82L72.542 33.46C72.2887 33.9933 71.922 34.4667 71.442 34.88C70.9754 35.2933 70.422 35.62 69.782 35.86C69.142 36.0867 68.4354 36.2 67.662 36.2ZM64.922 29.92H70.402C70.3487 29.3867 70.1954 28.9267 69.942 28.54C69.702 28.14 69.382 27.8333 68.982 27.62C68.582 27.3933 68.1354 27.28 67.642 27.28C67.162 27.28 66.722 27.3933 66.322 27.62C65.9354 27.8333 65.6154 28.14 65.362 28.54C65.122 28.9267 64.9754 29.3867 64.922 29.92ZM84.4194 36.2C83.566 36.2 82.7994 36.06 82.1194 35.78C81.4394 35.4867 80.8594 35.0867 80.3794 34.58C79.9127 34.0733 79.5527 33.4933 79.2994 32.84C79.046 32.1867 78.9194 31.5 78.9194 30.78C78.9194 30.0467 79.046 29.3533 79.2994 28.7C79.5527 28.0467 79.9127 27.4667 80.3794 26.96C80.8594 26.4533 81.4394 26.06 82.1194 25.78C82.7994 25.4867 83.566 25.34 84.4194 25.34C85.2727 25.34 86.0327 25.4867 86.6994 25.78C87.3794 26.06 87.9594 26.4533 88.4394 26.96C88.9194 27.4667 89.2794 28.0467 89.5194 28.7C89.7727 29.3533 89.8994 30.0467 89.8994 30.78C89.8994 31.5 89.7727 32.1867 89.5194 32.84C89.2794 33.4933 88.9194 34.0733 88.4394 34.58C87.9727 35.0867 87.3994 35.4867 86.7194 35.78C86.0394 36.06 85.2727 36.2 84.4194 36.2ZM81.6794 30.78C81.6794 31.3933 81.7994 31.94 82.0394 32.42C82.2794 32.8867 82.606 33.2533 83.0194 33.52C83.4327 33.7867 83.8994 33.92 84.4194 33.92C84.926 33.92 85.386 33.7867 85.7994 33.52C86.2127 33.24 86.5394 32.8667 86.7794 32.4C87.0327 31.92 87.1594 31.3733 87.1594 30.76C87.1594 30.16 87.0327 29.62 86.7794 29.14C86.5394 28.66 86.2127 28.2867 85.7994 28.02C85.386 27.7533 84.926 27.62 84.4194 27.62C83.8994 27.62 83.4327 27.76 83.0194 28.04C82.606 28.3067 82.2794 28.68 82.0394 29.16C81.7994 29.6267 81.6794 30.1667 81.6794 30.78ZM92.2506 36V28.12H90.8706V26.08H92.2506V25.44C92.2506 24.5733 92.3906 23.8267 92.6706 23.2C92.964 22.56 93.3706 22.0667 93.8906 21.72C94.424 21.3733 95.044 21.2 95.7506 21.2C96.1773 21.2 96.604 21.2533 97.0306 21.36C97.4706 21.4667 97.904 21.62 98.3306 21.82L97.7906 23.84C97.5906 23.7333 97.3573 23.6467 97.0906 23.58C96.824 23.5 96.5706 23.46 96.3306 23.46C95.8773 23.46 95.5306 23.62 95.2906 23.94C95.0506 24.26 94.9306 24.7267 94.9306 25.34V26.08H97.4906V28.12H94.9306V36H92.2506ZM109.668 36.2C108.855 36.2 108.135 36.02 107.508 35.66C106.895 35.2867 106.415 34.7867 106.068 34.16V40.26H103.388V25.52H105.728V27.32C106.128 26.7067 106.635 26.2267 107.248 25.88C107.861 25.52 108.561 25.34 109.348 25.34C110.055 25.34 110.701 25.48 111.288 25.76C111.888 26.04 112.408 26.4333 112.848 26.94C113.288 27.4333 113.628 28.0067 113.868 28.66C114.121 29.3 114.248 29.9933 114.248 30.74C114.248 31.7533 114.048 32.6733 113.648 33.5C113.261 34.3267 112.721 34.9867 112.028 35.48C111.348 35.96 110.561 36.2 109.668 36.2ZM108.768 33.92C109.181 33.92 109.555 33.8333 109.888 33.66C110.221 33.4867 110.508 33.2533 110.748 32.96C111.001 32.6533 111.188 32.3133 111.308 31.94C111.441 31.5533 111.508 31.1533 111.508 30.74C111.508 30.3 111.435 29.8933 111.288 29.52C111.155 29.1467 110.955 28.82 110.688 28.54C110.421 28.2467 110.108 28.02 109.748 27.86C109.401 27.7 109.021 27.62 108.608 27.62C108.355 27.62 108.095 27.6667 107.828 27.76C107.575 27.84 107.328 27.96 107.088 28.12C106.848 28.28 106.635 28.4667 106.448 28.68C106.275 28.8933 106.148 29.1267 106.068 29.38V31.84C106.228 32.2267 106.441 32.58 106.708 32.9C106.988 33.22 107.308 33.4733 107.668 33.66C108.028 33.8333 108.395 33.92 108.768 33.92ZM115.932 38.04C116.172 38.0933 116.392 38.14 116.592 38.18C116.806 38.22 116.986 38.24 117.132 38.24C117.386 38.24 117.592 38.1733 117.752 38.04C117.926 37.92 118.092 37.6933 118.252 37.36C118.412 37.04 118.579 36.5867 118.752 36L114.612 25.52H117.392L120.212 33.26L122.692 25.52H125.252L120.852 38.08C120.692 38.5467 120.446 38.9667 120.112 39.34C119.792 39.7267 119.386 40.0267 118.892 40.24C118.412 40.4667 117.872 40.58 117.272 40.58C117.059 40.58 116.846 40.56 116.632 40.52C116.419 40.4933 116.186 40.44 115.932 40.36V38.04ZM132.948 27.84C132.135 27.84 131.408 28 130.768 28.32C130.128 28.6267 129.668 29.0733 129.388 29.66V36H126.708V25.52H129.168V27.76C129.542 27.04 130.015 26.4733 130.588 26.06C131.162 25.6467 131.768 25.42 132.408 25.38C132.555 25.38 132.668 25.38 132.748 25.38C132.828 25.38 132.895 25.3867 132.948 25.4V27.84ZM133.664 32.9C133.664 32.22 133.851 31.6267 134.224 31.12C134.611 30.6 135.144 30.2 135.824 29.92C136.504 29.64 137.284 29.5 138.164 29.5C138.604 29.5 139.051 29.5333 139.504 29.6C139.957 29.6667 140.351 29.7733 140.684 29.92V29.36C140.684 28.6933 140.484 28.18 140.084 27.82C139.697 27.46 139.117 27.28 138.344 27.28C137.771 27.28 137.224 27.38 136.704 27.58C136.184 27.78 135.637 28.0733 135.064 28.46L134.204 26.7C134.897 26.2467 135.604 25.9067 136.324 25.68C137.057 25.4533 137.824 25.34 138.624 25.34C140.117 25.34 141.277 25.7133 142.104 26.46C142.944 27.2067 143.364 28.2733 143.364 29.66V33C143.364 33.28 143.411 33.48 143.504 33.6C143.611 33.72 143.777 33.7933 144.004 33.82V36C143.764 36.04 143.544 36.0733 143.344 36.1C143.157 36.1267 142.997 36.14 142.864 36.14C142.331 36.14 141.924 36.02 141.644 35.78C141.377 35.54 141.211 35.2467 141.144 34.9L141.084 34.36C140.631 34.9467 140.064 35.4 139.384 35.72C138.704 36.04 138.011 36.2 137.304 36.2C136.611 36.2 135.984 36.06 135.424 35.78C134.877 35.4867 134.444 35.0933 134.124 34.6C133.817 34.0933 133.664 33.5267 133.664 32.9ZM140.184 33.44C140.331 33.28 140.451 33.12 140.544 32.96C140.637 32.8 140.684 32.6533 140.684 32.52V31.46C140.364 31.3267 140.017 31.2267 139.644 31.16C139.271 31.08 138.917 31.04 138.584 31.04C137.891 31.04 137.317 31.1933 136.864 31.5C136.424 31.7933 136.204 32.1867 136.204 32.68C136.204 32.9467 136.277 33.2 136.424 33.44C136.571 33.68 136.784 33.8733 137.064 34.02C137.344 34.1667 137.677 34.24 138.064 34.24C138.464 34.24 138.857 34.1667 139.244 34.02C139.631 33.86 139.944 33.6667 140.184 33.44ZM162.148 36H159.468V30.12C159.468 29.2933 159.322 28.6867 159.028 28.3C158.748 27.9 158.355 27.7 157.848 27.7C157.328 27.7 156.828 27.9067 156.348 28.32C155.882 28.72 155.548 29.2467 155.348 29.9V36H152.668V30.12C152.668 29.28 152.522 28.6667 152.228 28.28C151.948 27.8933 151.555 27.7 151.048 27.7C150.528 27.7 150.028 27.9 149.548 28.3C149.082 28.7 148.748 29.2267 148.548 29.88V36H145.868V25.52H148.288V27.46C148.688 26.78 149.222 26.26 149.888 25.9C150.555 25.5267 151.322 25.34 152.188 25.34C153.055 25.34 153.728 25.5533 154.208 25.98C154.702 26.4067 155.015 26.9333 155.148 27.56C155.575 26.84 156.115 26.2933 156.768 25.92C157.435 25.5333 158.182 25.34 159.008 25.34C159.662 25.34 160.188 25.46 160.588 25.7C161.002 25.9267 161.322 26.24 161.548 26.64C161.775 27.0267 161.928 27.4667 162.008 27.96C162.102 28.4533 162.148 28.9533 162.148 29.46V36ZM164.482 36V25.52H167.162V36H164.482ZM164.482 24.06V21.4H167.162V24.06H164.482ZM168.939 30.76C168.939 29.7467 169.139 28.8333 169.539 28.02C169.939 27.1933 170.493 26.54 171.199 26.06C171.906 25.58 172.713 25.34 173.619 25.34C174.393 25.34 175.086 25.5333 175.699 25.92C176.326 26.2933 176.813 26.7733 177.159 27.36V21.4H179.839V33C179.839 33.28 179.886 33.48 179.979 33.6C180.073 33.72 180.233 33.7933 180.459 33.82V36C179.993 36.0933 179.613 36.14 179.319 36.14C178.839 36.14 178.439 36.02 178.119 35.78C177.813 35.54 177.639 35.2267 177.599 34.84L177.559 34.18C177.173 34.8333 176.646 35.3333 175.979 35.68C175.326 36.0267 174.639 36.2 173.919 36.2C173.199 36.2 172.533 36.06 171.919 35.78C171.319 35.5 170.793 35.1133 170.339 34.62C169.899 34.1267 169.553 33.5533 169.299 32.9C169.059 32.2333 168.939 31.52 168.939 30.76ZM177.159 32.16V29.66C177.026 29.2733 176.813 28.9267 176.519 28.62C176.226 28.3133 175.899 28.0733 175.539 27.9C175.179 27.7133 174.819 27.62 174.459 27.62C174.046 27.62 173.673 27.7067 173.339 27.88C173.006 28.0533 172.713 28.2867 172.459 28.58C172.219 28.8733 172.033 29.2133 171.899 29.6C171.779 29.9867 171.719 30.3933 171.719 30.82C171.719 31.2467 171.786 31.6533 171.919 32.04C172.066 32.4133 172.273 32.74 172.539 33.02C172.806 33.3 173.113 33.52 173.459 33.68C173.819 33.84 174.206 33.92 174.619 33.92C174.873 33.92 175.126 33.88 175.379 33.8C175.646 33.7067 175.893 33.5867 176.119 33.44C176.359 33.28 176.566 33.0933 176.739 32.88C176.926 32.6533 177.066 32.4133 177.159 32.16ZM187.295 33.12V31.38H193.555V33.12H187.295ZM187.295 29.58V27.84H193.555V29.58H187.295ZM245.752 25.52L247.952 28.8L248.113 29.16L248.313 28.8L250.493 25.52H253.313L249.673 30.74L253.372 36H250.553L248.293 32.74L248.113 32.4L247.952 32.74L245.713 36H242.893L246.593 30.8L242.953 25.52H245.752ZM260.499 21.8L264.339 32.72L268.139 21.8H271.039L265.659 36H262.999L257.599 21.8H260.499ZM275.748 36.2C274.894 36.2 274.128 36.06 273.448 35.78C272.768 35.4867 272.188 35.0867 271.708 34.58C271.241 34.0733 270.881 33.4933 270.628 32.84C270.374 32.1867 270.248 31.5 270.248 30.78C270.248 30.0467 270.374 29.3533 270.628 28.7C270.881 28.0467 271.241 27.4667 271.708 26.96C272.188 26.4533 272.768 26.06 273.448 25.78C274.128 25.4867 274.894 25.34 275.748 25.34C276.601 25.34 277.361 25.4867 278.028 25.78C278.708 26.06 279.288 26.4533 279.768 26.96C280.248 27.4667 280.608 28.0467 280.848 28.7C281.101 29.3533 281.228 30.0467 281.228 30.78C281.228 31.5 281.101 32.1867 280.848 32.84C280.608 33.4933 280.248 34.0733 279.768 34.58C279.301 35.0867 278.728 35.4867 278.048 35.78C277.368 36.06 276.601 36.2 275.748 36.2ZM273.008 30.78C273.008 31.3933 273.128 31.94 273.368 32.42C273.608 32.8867 273.934 33.2533 274.348 33.52C274.761 33.7867 275.228 33.92 275.748 33.92C276.254 33.92 276.714 33.7867 277.128 33.52C277.541 33.24 277.868 32.8667 278.108 32.4C278.361 31.92 278.488 31.3733 278.488 30.76C278.488 30.16 278.361 29.62 278.108 29.14C277.868 28.66 277.541 28.2867 277.128 28.02C276.714 27.7533 276.254 27.62 275.748 27.62C275.228 27.62 274.761 27.76 274.348 28.04C273.934 28.3067 273.608 28.68 273.368 29.16C273.128 29.6267 273.008 30.1667 273.008 30.78ZM283.016 21.4H285.696V32.64C285.696 33.12 285.776 33.4467 285.936 33.62C286.096 33.78 286.316 33.86 286.596 33.86C286.81 33.86 287.03 33.8333 287.256 33.78C287.483 33.7267 287.683 33.66 287.856 33.58L288.216 35.62C287.856 35.7933 287.436 35.9267 286.956 36.02C286.476 36.1133 286.043 36.16 285.656 36.16C284.816 36.16 284.163 35.94 283.696 35.5C283.243 35.0467 283.016 34.4067 283.016 33.58V21.4ZM289.284 32.08V25.52H291.964V31.5C291.964 32.3 292.111 32.9067 292.404 33.32C292.697 33.72 293.131 33.92 293.704 33.92C294.051 33.92 294.391 33.8533 294.724 33.72C295.071 33.5733 295.384 33.36 295.664 33.08C295.957 32.8 296.204 32.4467 296.404 32.02V25.52H299.084V33C299.084 33.28 299.131 33.48 299.224 33.6C299.331 33.72 299.497 33.7933 299.724 33.82V36C299.457 36.04 299.231 36.0667 299.044 36.08C298.871 36.1067 298.711 36.12 298.564 36.12C298.084 36.12 297.691 36.0133 297.384 35.8C297.091 35.5733 296.917 35.2667 296.864 34.88L296.804 34.04C296.337 34.7467 295.737 35.2867 295.004 35.66C294.271 36.02 293.464 36.2 292.584 36.2C291.504 36.2 290.684 35.8533 290.124 35.16C289.564 34.4533 289.284 33.4267 289.284 32.08ZM318.027 36H315.347V30.12C315.347 29.2933 315.201 28.6867 314.907 28.3C314.627 27.9 314.234 27.7 313.727 27.7C313.207 27.7 312.707 27.9067 312.227 28.32C311.761 28.72 311.427 29.2467 311.227 29.9V36H308.547V30.12C308.547 29.28 308.401 28.6667 308.107 28.28C307.827 27.8933 307.434 27.7 306.927 27.7C306.407 27.7 305.907 27.9 305.427 28.3C304.961 28.7 304.627 29.2267 304.427 29.88V36H301.747V25.52H304.167V27.46C304.567 26.78 305.101 26.26 305.767 25.9C306.434 25.5267 307.201 25.34 308.067 25.34C308.934 25.34 309.607 25.5533 310.087 25.98C310.581 26.4067 310.894 26.9333 311.027 27.56C311.454 26.84 311.994 26.2933 312.647 25.92C313.314 25.5333 314.061 25.34 314.887 25.34C315.541 25.34 316.067 25.46 316.467 25.7C316.881 25.9267 317.201 26.24 317.427 26.64C317.654 27.0267 317.807 27.4667 317.887 27.96C317.981 28.4533 318.027 28.9533 318.027 29.46V36ZM325.221 36.2C324.381 36.2 323.621 36.06 322.941 35.78C322.261 35.4867 321.681 35.0933 321.201 34.6C320.721 34.0933 320.347 33.52 320.081 32.88C319.827 32.2267 319.701 31.54 319.701 30.82C319.701 29.82 319.921 28.9067 320.361 28.08C320.814 27.2533 321.454 26.5933 322.281 26.1C323.121 25.5933 324.107 25.34 325.241 25.34C326.387 25.34 327.367 25.5933 328.181 26.1C328.994 26.5933 329.614 27.2533 330.041 28.08C330.481 28.8933 330.701 29.7733 330.701 30.72C330.701 30.88 330.694 31.0467 330.681 31.22C330.667 31.38 330.654 31.5133 330.641 31.62H322.541C322.594 32.1533 322.747 32.62 323.001 33.02C323.267 33.42 323.601 33.7267 324.001 33.94C324.414 34.14 324.854 34.24 325.321 34.24C325.854 34.24 326.354 34.1133 326.821 33.86C327.301 33.5933 327.627 33.2467 327.801 32.82L330.101 33.46C329.847 33.9933 329.481 34.4667 329.001 34.88C328.534 35.2933 327.981 35.62 327.341 35.86C326.701 36.0867 325.994 36.2 325.221 36.2ZM322.481 29.92H327.961C327.907 29.3867 327.754 28.9267 327.501 28.54C327.261 28.14 326.941 27.8333 326.541 27.62C326.141 27.3933 325.694 27.28 325.201 27.28C324.721 27.28 324.281 27.3933 323.881 27.62C323.494 27.8333 323.174 28.14 322.921 28.54C322.681 28.9267 322.534 29.3867 322.481 29.92ZM341.978 36.2C341.125 36.2 340.358 36.06 339.678 35.78C338.998 35.4867 338.418 35.0867 337.938 34.58C337.471 34.0733 337.111 33.4933 336.858 32.84C336.605 32.1867 336.478 31.5 336.478 30.78C336.478 30.0467 336.605 29.3533 336.858 28.7C337.111 28.0467 337.471 27.4667 337.938 26.96C338.418 26.4533 338.998 26.06 339.678 25.78C340.358 25.4867 341.125 25.34 341.978 25.34C342.831 25.34 343.591 25.4867 344.258 25.78C344.938 26.06 345.518 26.4533 345.998 26.96C346.478 27.4667 346.838 28.0467 347.078 28.7C347.331 29.3533 347.458 30.0467 347.458 30.78C347.458 31.5 347.331 32.1867 347.078 32.84C346.838 33.4933 346.478 34.0733 345.998 34.58C345.531 35.0867 344.958 35.4867 344.278 35.78C343.598 36.06 342.831 36.2 341.978 36.2ZM339.238 30.78C339.238 31.3933 339.358 31.94 339.598 32.42C339.838 32.8867 340.165 33.2533 340.578 33.52C340.991 33.7867 341.458 33.92 341.978 33.92C342.485 33.92 342.945 33.7867 343.358 33.52C343.771 33.24 344.098 32.8667 344.338 32.4C344.591 31.92 344.718 31.3733 344.718 30.76C344.718 30.16 344.591 29.62 344.338 29.14C344.098 28.66 343.771 28.2867 343.358 28.02C342.945 27.7533 342.485 27.62 341.978 27.62C341.458 27.62 340.991 27.76 340.578 28.04C340.165 28.3067 339.838 28.68 339.598 29.16C339.358 29.6267 339.238 30.1667 339.238 30.78ZM349.809 36V28.12H348.429V26.08H349.809V25.44C349.809 24.5733 349.949 23.8267 350.229 23.2C350.523 22.56 350.929 22.0667 351.449 21.72C351.983 21.3733 352.603 21.2 353.309 21.2C353.736 21.2 354.163 21.2533 354.589 21.36C355.029 21.4667 355.463 21.62 355.889 21.82L355.349 23.84C355.149 23.7333 354.916 23.6467 354.649 23.58C354.383 23.5 354.129 23.46 353.889 23.46C353.436 23.46 353.089 23.62 352.849 23.94C352.609 24.26 352.489 24.7267 352.489 25.34V26.08H355.049V28.12H352.489V36H349.809ZM367.227 36.2C366.413 36.2 365.693 36.02 365.067 35.66C364.453 35.2867 363.973 34.7867 363.627 34.16V40.26H360.947V25.52H363.287V27.32C363.687 26.7067 364.193 26.2267 364.807 25.88C365.42 25.52 366.12 25.34 366.907 25.34C367.613 25.34 368.26 25.48 368.847 25.76C369.447 26.04 369.967 26.4333 370.407 26.94C370.847 27.4333 371.187 28.0067 371.427 28.66C371.68 29.3 371.807 29.9933 371.807 30.74C371.807 31.7533 371.607 32.6733 371.207 33.5C370.82 34.3267 370.28 34.9867 369.587 35.48C368.907 35.96 368.12 36.2 367.227 36.2ZM366.327 33.92C366.74 33.92 367.113 33.8333 367.447 33.66C367.78 33.4867 368.067 33.2533 368.307 32.96C368.56 32.6533 368.747 32.3133 368.867 31.94C369 31.5533 369.067 31.1533 369.067 30.74C369.067 30.3 368.993 29.8933 368.847 29.52C368.713 29.1467 368.513 28.82 368.247 28.54C367.98 28.2467 367.667 28.02 367.307 27.86C366.96 27.7 366.58 27.62 366.167 27.62C365.913 27.62 365.653 27.6667 365.387 27.76C365.133 27.84 364.887 27.96 364.647 28.12C364.407 28.28 364.193 28.4667 364.007 28.68C363.833 28.8933 363.707 29.1267 363.627 29.38V31.84C363.787 32.2267 364 32.58 364.267 32.9C364.547 33.22 364.867 33.4733 365.227 33.66C365.587 33.8333 365.953 33.92 366.327 33.92ZM379.862 27.84C379.049 27.84 378.322 28 377.682 28.32C377.042 28.6267 376.582 29.0733 376.302 29.66V36H373.622V25.52H376.082V27.76C376.456 27.04 376.929 26.4733 377.502 26.06C378.076 25.6467 378.682 25.42 379.322 25.38C379.469 25.38 379.582 25.38 379.662 25.38C379.742 25.38 379.809 25.3867 379.862 25.4V27.84ZM381.357 36V25.52H384.037V36H381.357ZM381.357 24.06V21.4H384.037V24.06H381.357ZM390.314 36.2C389.421 36.2 388.568 36.0533 387.754 35.76C386.941 35.4667 386.241 35.0333 385.654 34.46L386.614 32.72C387.241 33.2267 387.854 33.6 388.454 33.84C389.068 34.08 389.654 34.2 390.214 34.2C390.734 34.2 391.148 34.1067 391.454 33.92C391.774 33.7333 391.934 33.4533 391.934 33.08C391.934 32.8267 391.848 32.6333 391.674 32.5C391.501 32.3533 391.248 32.2267 390.914 32.12C390.594 32.0133 390.201 31.8933 389.734 31.76C388.961 31.5067 388.314 31.26 387.794 31.02C387.274 30.78 386.881 30.48 386.614 30.12C386.361 29.7467 386.234 29.2733 386.234 28.7C386.234 28.0067 386.408 27.4133 386.754 26.92C387.114 26.4133 387.608 26.02 388.234 25.74C388.874 25.46 389.621 25.32 390.474 25.32C391.221 25.32 391.928 25.44 392.594 25.68C393.261 25.9067 393.868 26.28 394.414 26.8L393.334 28.5C392.801 28.0867 392.294 27.7867 391.814 27.6C391.334 27.4 390.848 27.3 390.354 27.3C390.074 27.3 389.808 27.3333 389.554 27.4C389.314 27.4667 389.114 27.58 388.954 27.74C388.808 27.8867 388.734 28.1 388.734 28.38C388.734 28.6333 388.801 28.8333 388.934 28.98C389.081 29.1133 389.294 29.2333 389.574 29.34C389.868 29.4467 390.221 29.5667 390.634 29.7C391.474 29.94 392.181 30.1867 392.754 30.44C393.341 30.6933 393.781 31.0067 394.074 31.38C394.368 31.74 394.514 32.24 394.514 32.88C394.514 33.92 394.134 34.7333 393.374 35.32C392.614 35.9067 391.594 36.2 390.314 36.2ZM412.617 36H409.937V30.12C409.937 29.2933 409.791 28.6867 409.497 28.3C409.217 27.9 408.824 27.7 408.317 27.7C407.797 27.7 407.297 27.9067 406.817 28.32C406.351 28.72 406.017 29.2467 405.817 29.9V36H403.137V30.12C403.137 29.28 402.991 28.6667 402.697 28.28C402.417 27.8933 402.024 27.7 401.517 27.7C400.997 27.7 400.497 27.9 400.017 28.3C399.551 28.7 399.217 29.2267 399.017 29.88V36H396.337V25.52H398.757V27.46C399.157 26.78 399.691 26.26 400.357 25.9C401.024 25.5267 401.791 25.34 402.657 25.34C403.524 25.34 404.197 25.5533 404.677 25.98C405.171 26.4067 405.484 26.9333 405.617 27.56C406.044 26.84 406.584 26.2933 407.237 25.92C407.904 25.5333 408.651 25.34 409.477 25.34C410.131 25.34 410.657 25.46 411.057 25.7C411.471 25.9267 411.791 26.24 412.017 26.64C412.244 27.0267 412.397 27.4667 412.477 27.96C412.571 28.4533 412.617 28.9533 412.617 29.46V36Z" fill="#646464"/>
<path d="M223.62 42.28C224.18 42.3733 224.667 42.5867 225.08 42.92C225.493 43.24 225.813 43.6533 226.04 44.16C226.28 44.6667 226.4 45.2267 226.4 45.84C226.4 46.6667 226.187 47.3867 225.76 48C225.333 48.6133 224.727 49.0867 223.94 49.42C223.167 49.7667 222.253 49.94 221.2 49.94C220.187 49.94 219.287 49.7733 218.5 49.44C217.727 49.12 217.08 48.6467 216.56 48.02L218.08 46.12C218.427 46.5467 218.84 46.88 219.32 47.12C219.813 47.3733 220.413 47.5 221.12 47.5C221.933 47.5 222.553 47.3333 222.98 47C223.407 46.68 223.62 46.1933 223.62 45.54C223.62 44.8467 223.373 44.3133 222.88 43.94C222.387 43.5667 221.64 43.38 220.64 43.38H220.08V41.38H220.7C221.513 41.38 222.147 41.1933 222.6 40.82C223.067 40.4467 223.3 39.98 223.3 39.42C223.3 39.06 223.213 38.76 223.04 38.52C222.867 38.28 222.627 38.1 222.32 37.98C222.027 37.86 221.68 37.8 221.28 37.8C220.68 37.8 220.133 37.94 219.64 38.22C219.147 38.5 218.747 38.8933 218.44 39.4L216.76 37.52C217.04 37.1067 217.42 36.7533 217.9 36.46C218.393 36.1533 218.953 35.9133 219.58 35.74C220.22 35.5667 220.887 35.48 221.58 35.48C222.487 35.48 223.28 35.6267 223.96 35.92C224.653 36.2133 225.193 36.6267 225.58 37.16C225.967 37.6933 226.16 38.3133 226.16 39.02C226.16 39.54 226.053 40.0333 225.84 40.5C225.627 40.9667 225.327 41.36 224.94 41.68C224.567 41.9867 224.127 42.1867 223.62 42.28Z" fill="#646464"/>
<line x1="210" y1="30" x2="232" y2="30" stroke="#646464" stroke-width="2"/>
<path d="M225.4 19.58V22H217.28V19.58H220.12V13.52C220 13.68 219.813 13.8467 219.56 14.02C219.307 14.18 219.02 14.3333 218.7 14.48C218.38 14.6267 218.06 14.7467 217.74 14.84C217.42 14.9333 217.133 14.98 216.88 14.98V12.48C217.12 12.48 217.407 12.4067 217.74 12.26C218.087 12.1 218.427 11.9133 218.76 11.7C219.107 11.4867 219.4 11.28 219.64 11.08C219.893 10.8667 220.053 10.7 220.12 10.58H222.86V19.58H225.4Z" fill="#646464"/>
</svg>
