<svg width="199" height="86" viewBox="0 0 199 86" fill="none" xmlns="http://www.w3.org/2000/svg">
<path d="M179.406 31.3647H18.6196C10.8091 31.3647 4.41211 12.1464 4.41211 4.33594H193.604C193.604 12.1464 187.216 31.3647 179.397 31.3647H179.406Z" fill="#747273"/>
<path d="M1.89373 4.33728H196.133C197.175 4.33728 198.026 3.48554 198.026 2.44353C198.026 1.40153 197.175 0.549805 196.133 0.549805H1.89373C0.851723 0.549805 0 1.40153 0 2.44353C0 3.48554 0.851723 4.33728 1.89373 4.33728Z" fill="#9C9A9B"/>
<path opacity="0.1" d="M193.186 8.54926C193.458 6.95454 193.612 5.51386 193.612 4.33594H4.41992C4.41992 5.51386 4.56487 6.95454 4.84576 8.54926H193.195H193.186Z" fill="black"/>
<path d="M95.5834 85.7208H114.611V31.3553H95.5834V85.7208Z" fill="#B6B5B5"/>
<path opacity="0.1" d="M95.5834 35.8861H114.611V31.3556L95.5834 31.3556V35.8861Z" fill="black"/>
<path d="M101.619 79.2343C101.619 81.1552 103.178 82.7137 105.099 82.7137C107.02 82.7137 108.578 81.1552 108.578 79.2343C108.578 77.3134 107.02 75.7549 105.099 75.7549C103.178 75.7549 101.619 77.3134 101.619 79.2343Z" fill="#58595B"/>
</svg>
