<svg width="447" height="28" viewBox="0 0 447 28" fill="none" xmlns="http://www.w3.org/2000/svg">
<path d="M1.92742 21.16C1.51409 21.16 1.19409 21.0467 0.967422 20.82C0.754089 20.58 0.647422 20.2533 0.647422 19.84V8.2C0.647422 7.77333 0.760755 7.45333 0.987422 7.24C1.21409 7.01333 1.53409 6.9 1.94742 6.9H6.76742C8.31409 6.9 9.50742 7.27333 10.3474 8.02C11.1874 8.75333 11.6074 9.78667 11.6074 11.12C11.6074 11.9867 11.4141 12.7333 11.0274 13.36C10.6541 13.9867 10.1074 14.4667 9.38742 14.8C8.66742 15.1333 7.79409 15.3 6.76742 15.3L6.94742 15H7.60742C8.15409 15 8.62742 15.1333 9.02742 15.4C9.44076 15.6667 9.80076 16.0867 10.1074 16.66L11.6074 19.44C11.7674 19.72 11.8408 19.9933 11.8274 20.26C11.8141 20.5267 11.7141 20.7467 11.5274 20.92C11.3408 21.08 11.0674 21.16 10.7074 21.16C10.3474 21.16 10.0541 21.0867 9.82742 20.94C9.60076 20.78 9.40076 20.54 9.22742 20.22L7.20742 16.5C6.96742 16.0467 6.68076 15.7467 6.34742 15.6C6.02742 15.44 5.61409 15.36 5.10742 15.36H3.20742V19.84C3.20742 20.2533 3.10076 20.58 2.88742 20.82C2.67409 21.0467 2.35409 21.16 1.92742 21.16ZM3.20742 13.46H6.32742C7.24742 13.46 7.94076 13.2733 8.40742 12.9C8.88742 12.5133 9.12742 11.94 9.12742 11.18C9.12742 10.4333 8.88742 9.87333 8.40742 9.5C7.94076 9.11333 7.24742 8.92 6.32742 8.92H3.20742V13.46ZM18.6845 21.2C17.5778 21.2 16.6245 20.9933 15.8245 20.58C15.0245 20.1667 14.4045 19.58 13.9645 18.82C13.5378 18.06 13.3245 17.16 13.3245 16.12C13.3245 15.1067 13.5311 14.22 13.9445 13.46C14.3711 12.7 14.9511 12.1067 15.6845 11.68C16.4311 11.24 17.2778 11.02 18.2245 11.02C18.9178 11.02 19.5378 11.1333 20.0845 11.36C20.6445 11.5867 21.1178 11.9133 21.5045 12.34C21.9045 12.7667 22.2045 13.2867 22.4045 13.9C22.6178 14.5 22.7245 15.18 22.7245 15.94C22.7245 16.18 22.6378 16.3667 22.4645 16.5C22.3045 16.62 22.0711 16.68 21.7645 16.68H15.3445V15.24H20.9645L20.6445 15.54C20.6445 14.9267 20.5511 14.4133 20.3645 14C20.1911 13.5867 19.9311 13.2733 19.5845 13.06C19.2511 12.8333 18.8311 12.72 18.3245 12.72C17.7645 12.72 17.2845 12.8533 16.8845 13.12C16.4978 13.3733 16.1978 13.74 15.9845 14.22C15.7845 14.6867 15.6845 15.2467 15.6845 15.9V16.04C15.6845 17.1333 15.9378 17.9533 16.4445 18.5C16.9645 19.0333 17.7245 19.3 18.7245 19.3C19.0711 19.3 19.4578 19.26 19.8845 19.18C20.3245 19.0867 20.7378 18.9333 21.1245 18.72C21.4045 18.56 21.6511 18.4933 21.8645 18.52C22.0778 18.5333 22.2445 18.6067 22.3645 18.74C22.4978 18.8733 22.5778 19.04 22.6045 19.24C22.6311 19.4267 22.5911 19.62 22.4845 19.82C22.3911 20.02 22.2245 20.1933 21.9845 20.34C21.5178 20.6333 20.9778 20.8533 20.3645 21C19.7645 21.1333 19.2045 21.2 18.6845 21.2ZM25.9443 24.76C25.5443 24.76 25.2376 24.6533 25.0243 24.44C24.811 24.2267 24.7043 23.9133 24.7043 23.5V12.32C24.7043 11.9067 24.811 11.5933 25.0243 11.38C25.2376 11.1667 25.5376 11.06 25.9243 11.06C26.3243 11.06 26.631 11.1667 26.8443 11.38C27.0576 11.5933 27.1643 11.9067 27.1643 12.32V13.88L26.9443 13.28C27.1443 12.6 27.551 12.0533 28.1643 11.64C28.791 11.2267 29.5176 11.02 30.3443 11.02C31.1976 11.02 31.9443 11.2267 32.5843 11.64C33.2376 12.0533 33.7443 12.64 34.1043 13.4C34.4643 14.1467 34.6443 15.0467 34.6443 16.1C34.6443 17.14 34.4643 18.0467 34.1043 18.82C33.7443 19.58 33.2443 20.1667 32.6043 20.58C31.9643 20.9933 31.211 21.2 30.3443 21.2C29.531 21.2 28.8176 21 28.2043 20.6C27.591 20.1867 27.1776 19.6533 26.9643 19H27.2043V23.5C27.2043 23.9133 27.091 24.2267 26.8643 24.44C26.651 24.6533 26.3443 24.76 25.9443 24.76ZM29.6443 19.3C30.1376 19.3 30.571 19.18 30.9443 18.94C31.3176 18.7 31.6043 18.3467 31.8043 17.88C32.0176 17.4 32.1243 16.8067 32.1243 16.1C32.1243 15.0333 31.8976 14.24 31.4443 13.72C30.991 13.1867 30.391 12.92 29.6443 12.92C29.151 12.92 28.7176 13.04 28.3443 13.28C27.971 13.5067 27.6776 13.86 27.4643 14.34C27.2643 14.8067 27.1643 15.3933 27.1643 16.1C27.1643 17.1533 27.391 17.9533 27.8443 18.5C28.2976 19.0333 28.8976 19.3 29.6443 19.3ZM37.9765 21.16C37.5632 21.16 37.2432 21.0533 37.0165 20.84C36.8032 20.6133 36.6965 20.2933 36.6965 19.88V12.32C36.6965 11.9067 36.8032 11.5933 37.0165 11.38C37.2298 11.1667 37.5298 11.06 37.9165 11.06C38.3032 11.06 38.6032 11.1667 38.8165 11.38C39.0298 11.5933 39.1365 11.9067 39.1365 12.32V13.58H38.9365C39.1232 12.78 39.4898 12.1733 40.0365 11.76C40.5832 11.3467 41.3098 11.1 42.2165 11.02C42.4965 10.9933 42.7165 11.0667 42.8765 11.24C43.0498 11.4 43.1498 11.6533 43.1765 12C43.2032 12.3333 43.1232 12.6067 42.9365 12.82C42.7632 13.02 42.4965 13.14 42.1365 13.18L41.6965 13.22C40.8832 13.3 40.2698 13.5533 39.8565 13.98C39.4432 14.3933 39.2365 14.98 39.2365 15.74V19.88C39.2365 20.2933 39.1298 20.6133 38.9165 20.84C38.7032 21.0533 38.3898 21.16 37.9765 21.16ZM49.1923 21.2C48.0856 21.2 47.1323 20.9933 46.3323 20.58C45.5323 20.1667 44.9123 19.58 44.4723 18.82C44.0456 18.06 43.8323 17.16 43.8323 16.12C43.8323 15.1067 44.0389 14.22 44.4523 13.46C44.8789 12.7 45.4589 12.1067 46.1923 11.68C46.9389 11.24 47.7856 11.02 48.7323 11.02C49.4256 11.02 50.0456 11.1333 50.5923 11.36C51.1523 11.5867 51.6256 11.9133 52.0123 12.34C52.4123 12.7667 52.7123 13.2867 52.9123 13.9C53.1256 14.5 53.2323 15.18 53.2323 15.94C53.2323 16.18 53.1456 16.3667 52.9723 16.5C52.8123 16.62 52.5789 16.68 52.2723 16.68H45.8523V15.24H51.4723L51.1523 15.54C51.1523 14.9267 51.0589 14.4133 50.8723 14C50.6989 13.5867 50.4389 13.2733 50.0923 13.06C49.7589 12.8333 49.3389 12.72 48.8323 12.72C48.2723 12.72 47.7923 12.8533 47.3923 13.12C47.0056 13.3733 46.7056 13.74 46.4923 14.22C46.2923 14.6867 46.1923 15.2467 46.1923 15.9V16.04C46.1923 17.1333 46.4456 17.9533 46.9523 18.5C47.4723 19.0333 48.2323 19.3 49.2323 19.3C49.5789 19.3 49.9656 19.26 50.3923 19.18C50.8323 19.0867 51.2456 18.9333 51.6323 18.72C51.9123 18.56 52.1589 18.4933 52.3723 18.52C52.5856 18.5333 52.7523 18.6067 52.8723 18.74C53.0056 18.8733 53.0856 19.04 53.1123 19.24C53.1389 19.4267 53.0989 19.62 52.9923 19.82C52.8989 20.02 52.7323 20.1933 52.4923 20.34C52.0256 20.6333 51.4856 20.8533 50.8723 21C50.2723 21.1333 49.7123 21.2 49.1923 21.2ZM58.7921 21.2C58.2188 21.2 57.6121 21.14 56.9721 21.02C56.3321 20.9 55.7588 20.6933 55.2521 20.4C55.0388 20.2667 54.8854 20.1133 54.7921 19.94C54.7121 19.7533 54.6788 19.5733 54.6921 19.4C54.7188 19.2133 54.7854 19.0533 54.8921 18.92C55.0121 18.7867 55.1588 18.7 55.3321 18.66C55.5188 18.62 55.7188 18.6533 55.9321 18.76C56.4654 19.0133 56.9654 19.1933 57.4321 19.3C57.8988 19.3933 58.3588 19.44 58.8121 19.44C59.4521 19.44 59.9254 19.3333 60.2321 19.12C60.5521 18.8933 60.7121 18.6 60.7121 18.24C60.7121 17.9333 60.6054 17.7 60.3921 17.54C60.1921 17.3667 59.8854 17.24 59.4721 17.16L57.4721 16.78C56.6454 16.62 56.0121 16.32 55.5721 15.88C55.1454 15.4267 54.9321 14.8467 54.9321 14.14C54.9321 13.5 55.1054 12.9467 55.4521 12.48C55.8121 12.0133 56.3054 11.6533 56.9321 11.4C57.5588 11.1467 58.2788 11.02 59.0921 11.02C59.6788 11.02 60.2254 11.0867 60.7321 11.22C61.2521 11.34 61.7521 11.5333 62.2321 11.8C62.4321 11.9067 62.5654 12.0467 62.6321 12.22C62.7121 12.3933 62.7321 12.5733 62.6921 12.76C62.6521 12.9333 62.5721 13.0933 62.4521 13.24C62.3321 13.3733 62.1788 13.46 61.9921 13.5C61.8188 13.5267 61.6188 13.4867 61.3921 13.38C60.9788 13.1667 60.5788 13.0133 60.1921 12.92C59.8188 12.8267 59.4588 12.78 59.1121 12.78C58.4588 12.78 57.9721 12.8933 57.6521 13.12C57.3454 13.3467 57.1921 13.6467 57.1921 14.02C57.1921 14.3 57.2854 14.5333 57.4721 14.72C57.6588 14.9067 57.9454 15.0333 58.3321 15.1L60.3321 15.48C61.1988 15.64 61.8521 15.9333 62.2921 16.36C62.7454 16.7867 62.9721 17.36 62.9721 18.08C62.9721 19.0533 62.5921 19.82 61.8321 20.38C61.0721 20.9267 60.0588 21.2 58.7921 21.2ZM69.7977 21.2C68.6911 21.2 67.7377 20.9933 66.9377 20.58C66.1377 20.1667 65.5177 19.58 65.0777 18.82C64.6511 18.06 64.4377 17.16 64.4377 16.12C64.4377 15.1067 64.6444 14.22 65.0577 13.46C65.4844 12.7 66.0644 12.1067 66.7977 11.68C67.5444 11.24 68.3911 11.02 69.3377 11.02C70.0311 11.02 70.6511 11.1333 71.1977 11.36C71.7577 11.5867 72.2311 11.9133 72.6177 12.34C73.0177 12.7667 73.3177 13.2867 73.5177 13.9C73.7311 14.5 73.8377 15.18 73.8377 15.94C73.8377 16.18 73.7511 16.3667 73.5777 16.5C73.4177 16.62 73.1844 16.68 72.8777 16.68H66.4577V15.24H72.0777L71.7577 15.54C71.7577 14.9267 71.6644 14.4133 71.4777 14C71.3044 13.5867 71.0444 13.2733 70.6977 13.06C70.3644 12.8333 69.9444 12.72 69.4377 12.72C68.8777 12.72 68.3977 12.8533 67.9977 13.12C67.6111 13.3733 67.3111 13.74 67.0977 14.22C66.8977 14.6867 66.7977 15.2467 66.7977 15.9V16.04C66.7977 17.1333 67.0511 17.9533 67.5577 18.5C68.0777 19.0333 68.8377 19.3 69.8377 19.3C70.1844 19.3 70.5711 19.26 70.9977 19.18C71.4377 19.0867 71.8511 18.9333 72.2377 18.72C72.5177 18.56 72.7644 18.4933 72.9777 18.52C73.1911 18.5333 73.3577 18.6067 73.4777 18.74C73.6111 18.8733 73.6911 19.04 73.7177 19.24C73.7444 19.4267 73.7044 19.62 73.5977 19.82C73.5044 20.02 73.3377 20.1933 73.0977 20.34C72.6311 20.6333 72.0911 20.8533 71.4777 21C70.8777 21.1333 70.3177 21.2 69.7977 21.2ZM77.0576 21.16C76.6576 21.16 76.3509 21.0533 76.1376 20.84C75.9242 20.6133 75.8176 20.2933 75.8176 19.88V12.32C75.8176 11.9067 75.9242 11.5933 76.1376 11.38C76.3509 11.1667 76.6509 11.06 77.0376 11.06C77.4242 11.06 77.7242 11.1667 77.9376 11.38C78.1509 11.5933 78.2576 11.9067 78.2576 12.32V13.68L78.0376 13.18C78.3309 12.4733 78.7842 11.94 79.3976 11.58C80.0242 11.2067 80.7309 11.02 81.5176 11.02C82.3042 11.02 82.9509 11.1667 83.4576 11.46C83.9642 11.7533 84.3442 12.2 84.5976 12.8C84.8509 13.3867 84.9776 14.1333 84.9776 15.04V19.88C84.9776 20.2933 84.8709 20.6133 84.6576 20.84C84.4442 21.0533 84.1376 21.16 83.7376 21.16C83.3376 21.16 83.0242 21.0533 82.7976 20.84C82.5842 20.6133 82.4776 20.2933 82.4776 19.88V15.16C82.4776 14.4 82.3309 13.8467 82.0376 13.5C81.7576 13.1533 81.3176 12.98 80.7176 12.98C79.9842 12.98 79.3976 13.2133 78.9576 13.68C78.5309 14.1333 78.3176 14.74 78.3176 15.5V19.88C78.3176 20.7333 77.8976 21.16 77.0576 21.16ZM91.9968 21.2C91.1301 21.2 90.4035 21.0533 89.8168 20.76C89.2435 20.4667 88.8168 20.04 88.5368 19.48C88.2568 18.9067 88.1168 18.2 88.1168 17.36V13.1H87.0768C86.7568 13.1 86.5101 13.02 86.3368 12.86C86.1635 12.6867 86.0768 12.4533 86.0768 12.16C86.0768 11.8533 86.1635 11.62 86.3368 11.46C86.5101 11.3 86.7568 11.22 87.0768 11.22H88.1168V9.4C88.1168 8.98667 88.2235 8.67333 88.4368 8.46C88.6635 8.24667 88.9768 8.14 89.3768 8.14C89.7768 8.14 90.0835 8.24667 90.2968 8.46C90.5101 8.67333 90.6168 8.98667 90.6168 9.4V11.22H92.7368C93.0568 11.22 93.3035 11.3 93.4768 11.46C93.6501 11.62 93.7368 11.8533 93.7368 12.16C93.7368 12.4533 93.6501 12.6867 93.4768 12.86C93.3035 13.02 93.0568 13.1 92.7368 13.1H90.6168V17.22C90.6168 17.86 90.7568 18.34 91.0368 18.66C91.3168 18.98 91.7701 19.14 92.3968 19.14C92.6235 19.14 92.8235 19.12 92.9968 19.08C93.1701 19.04 93.3235 19.0133 93.4568 19C93.6168 18.9867 93.7501 19.04 93.8568 19.16C93.9635 19.2667 94.0168 19.4933 94.0168 19.84C94.0168 20.1067 93.9701 20.3467 93.8768 20.56C93.7968 20.76 93.6435 20.9 93.4168 20.98C93.2435 21.0333 93.0168 21.08 92.7368 21.12C92.4568 21.1733 92.2101 21.2 91.9968 21.2Z" fill="#444444"/>
<rect x="99" width="51" height="28" rx="5" fill="#E8F0FE"/>
<path d="M110.551 21.2C109.391 21.2 108.398 20.9267 107.571 20.38C106.758 19.82 106.138 19.02 105.711 17.98C105.285 16.94 105.071 15.68 105.071 14.2C105.071 13 105.205 11.94 105.471 11.02C105.751 10.0867 106.151 9.3 106.671 8.66C107.191 8.02 107.825 7.53333 108.571 7.2C109.331 6.86667 110.185 6.7 111.131 6.7C111.718 6.7 112.311 6.79333 112.911 6.98C113.525 7.15333 114.098 7.42 114.631 7.78C114.845 7.91333 114.985 8.08667 115.051 8.3C115.118 8.51333 115.125 8.72667 115.071 8.94C115.031 9.14 114.938 9.32 114.791 9.48C114.658 9.62667 114.485 9.72 114.271 9.76C114.058 9.78667 113.825 9.72667 113.571 9.58C113.118 9.31333 112.691 9.12667 112.291 9.02C111.891 8.91333 111.491 8.86 111.091 8.86C110.318 8.86 109.665 9.04 109.131 9.4C108.598 9.76 108.191 10.3 107.911 11.02C107.645 11.74 107.511 12.64 107.511 13.72V15.22H107.271C107.378 14.54 107.598 13.96 107.931 13.48C108.278 12.9867 108.718 12.6133 109.251 12.36C109.785 12.0933 110.378 11.96 111.031 11.96C111.845 11.96 112.565 12.1533 113.191 12.54C113.818 12.9267 114.311 13.46 114.671 14.14C115.031 14.82 115.211 15.6 115.211 16.48C115.211 17.3867 115.011 18.2 114.611 18.92C114.225 19.6267 113.678 20.1867 112.971 20.6C112.278 21 111.471 21.2 110.551 21.2ZM110.411 19.16C110.891 19.16 111.311 19.0533 111.671 18.84C112.045 18.6267 112.331 18.3267 112.531 17.94C112.731 17.54 112.831 17.0867 112.831 16.58C112.831 16.06 112.731 15.6067 112.531 15.22C112.331 14.8333 112.045 14.5333 111.671 14.32C111.311 14.0933 110.891 13.98 110.411 13.98C109.931 13.98 109.511 14.0933 109.151 14.32C108.791 14.5333 108.505 14.8333 108.291 15.22C108.091 15.6067 107.991 16.06 107.991 16.58C107.991 17.0867 108.091 17.54 108.291 17.94C108.505 18.3267 108.791 18.6267 109.151 18.84C109.511 19.0533 109.931 19.16 110.411 19.16ZM118.523 21.1C118.07 21.1 117.703 20.96 117.423 20.68C117.157 20.4 117.023 20.04 117.023 19.6C117.023 19.1733 117.157 18.8267 117.423 18.56C117.703 18.28 118.07 18.14 118.523 18.14C118.99 18.14 119.35 18.28 119.603 18.56C119.87 18.8267 120.003 19.1733 120.003 19.6C120.003 20.04 119.87 20.4 119.603 20.68C119.35 20.96 118.99 21.1 118.523 21.1ZM124.424 21.16C124.118 21.16 123.864 21.0867 123.664 20.94C123.464 20.7933 123.344 20.6 123.304 20.36C123.264 20.1067 123.324 19.8267 123.484 19.52L129.524 8.16V9.04H123.044C122.684 9.04 122.404 8.94667 122.204 8.76C122.018 8.57333 121.924 8.31333 121.924 7.98C121.924 7.63333 122.018 7.36667 122.204 7.18C122.404 6.99333 122.684 6.9 123.044 6.9H130.784C131.144 6.9 131.438 6.99333 131.664 7.18C131.891 7.36667 132.004 7.63333 132.004 7.98C132.004 8.27333 131.964 8.53333 131.884 8.76C131.804 8.97333 131.698 9.20667 131.564 9.46L125.884 20.32C125.738 20.6133 125.544 20.8267 125.304 20.96C125.078 21.0933 124.784 21.16 124.424 21.16ZM135.637 21C135.21 21 134.897 20.9067 134.697 20.72C134.51 20.52 134.417 20.2333 134.417 19.86C134.417 19.6333 134.477 19.4133 134.597 19.2C134.717 18.9867 134.89 18.76 135.117 18.52L139.137 14.24C139.75 13.6 140.19 13.02 140.457 12.5C140.723 11.9667 140.857 11.4333 140.857 10.9C140.857 10.2333 140.643 9.72667 140.217 9.38C139.803 9.03333 139.197 8.86 138.397 8.86C137.943 8.86 137.49 8.92667 137.037 9.06C136.583 9.18 136.123 9.39333 135.657 9.7C135.417 9.86 135.19 9.92667 134.977 9.9C134.777 9.87333 134.597 9.78667 134.437 9.64C134.29 9.49333 134.19 9.31333 134.137 9.1C134.083 8.88667 134.09 8.67333 134.157 8.46C134.237 8.23333 134.397 8.04 134.637 7.88C135.21 7.49333 135.85 7.2 136.557 7C137.277 6.8 137.997 6.7 138.717 6.7C139.73 6.7 140.583 6.85333 141.277 7.16C141.97 7.46667 142.497 7.91333 142.857 8.5C143.217 9.08667 143.397 9.8 143.397 10.64C143.397 11.2 143.303 11.7467 143.117 12.28C142.943 12.8133 142.67 13.3533 142.297 13.9C141.937 14.4467 141.463 15.0267 140.877 15.64L137.117 19.56V18.88H142.997C143.357 18.88 143.63 18.9667 143.817 19.14C144.003 19.3133 144.097 19.5733 144.097 19.92C144.097 20.2667 144.003 20.5333 143.817 20.72C143.63 20.9067 143.357 21 142.997 21H135.637Z" fill="#6595DE"/>
<path d="M160.883 21.2C159.87 21.2 158.99 20.9933 158.243 20.58C157.496 20.1667 156.916 19.58 156.503 18.82C156.09 18.0467 155.883 17.14 155.883 16.1C155.883 15.3133 155.996 14.6133 156.223 14C156.463 13.3733 156.803 12.84 157.243 12.4C157.683 11.9467 158.21 11.6067 158.823 11.38C159.436 11.14 160.123 11.02 160.883 11.02C161.896 11.02 162.776 11.2267 163.523 11.64C164.27 12.0533 164.85 12.64 165.263 13.4C165.676 14.16 165.883 15.06 165.883 16.1C165.883 16.8867 165.763 17.5933 165.523 18.22C165.296 18.8467 164.963 19.3867 164.523 19.84C164.083 20.28 163.556 20.62 162.943 20.86C162.33 21.0867 161.643 21.2 160.883 21.2ZM160.883 19.3C161.376 19.3 161.81 19.18 162.183 18.94C162.556 18.7 162.843 18.3467 163.043 17.88C163.256 17.4 163.363 16.8067 163.363 16.1C163.363 15.0333 163.136 14.24 162.683 13.72C162.23 13.1867 161.63 12.92 160.883 12.92C160.39 12.92 159.956 13.04 159.583 13.28C159.21 13.5067 158.916 13.86 158.703 14.34C158.503 14.8067 158.403 15.3933 158.403 16.1C158.403 17.1533 158.63 17.9533 159.083 18.5C159.536 19.0333 160.136 19.3 160.883 19.3ZM169.186 21.16C168.786 21.16 168.48 21.0533 168.266 20.84C168.053 20.6133 167.946 20.2933 167.946 19.88V12.32C167.946 11.9067 168.053 11.5933 168.266 11.38C168.48 11.1667 168.78 11.06 169.166 11.06C169.553 11.06 169.853 11.1667 170.066 11.38C170.28 11.5933 170.386 11.9067 170.386 12.32V13.68L170.166 13.18C170.46 12.4733 170.913 11.94 171.526 11.58C172.153 11.2067 172.86 11.02 173.646 11.02C174.433 11.02 175.08 11.1667 175.586 11.46C176.093 11.7533 176.473 12.2 176.726 12.8C176.98 13.3867 177.106 14.1333 177.106 15.04V19.88C177.106 20.2933 177 20.6133 176.786 20.84C176.573 21.0533 176.266 21.16 175.866 21.16C175.466 21.16 175.153 21.0533 174.926 20.84C174.713 20.6133 174.606 20.2933 174.606 19.88V15.16C174.606 14.4 174.46 13.8467 174.166 13.5C173.886 13.1533 173.446 12.98 172.846 12.98C172.113 12.98 171.526 13.2133 171.086 13.68C170.66 14.1333 170.446 14.74 170.446 15.5V19.88C170.446 20.7333 170.026 21.16 169.186 21.16ZM189.555 21.2C188.689 21.2 187.962 21.0533 187.375 20.76C186.802 20.4667 186.375 20.04 186.095 19.48C185.815 18.9067 185.675 18.2 185.675 17.36V13.1H184.635C184.315 13.1 184.069 13.02 183.895 12.86C183.722 12.6867 183.635 12.4533 183.635 12.16C183.635 11.8533 183.722 11.62 183.895 11.46C184.069 11.3 184.315 11.22 184.635 11.22H185.675V9.4C185.675 8.98667 185.782 8.67333 185.995 8.46C186.222 8.24667 186.535 8.14 186.935 8.14C187.335 8.14 187.642 8.24667 187.855 8.46C188.069 8.67333 188.175 8.98667 188.175 9.4V11.22H190.295C190.615 11.22 190.862 11.3 191.035 11.46C191.209 11.62 191.295 11.8533 191.295 12.16C191.295 12.4533 191.209 12.6867 191.035 12.86C190.862 13.02 190.615 13.1 190.295 13.1H188.175V17.22C188.175 17.86 188.315 18.34 188.595 18.66C188.875 18.98 189.329 19.14 189.955 19.14C190.182 19.14 190.382 19.12 190.555 19.08C190.729 19.04 190.882 19.0133 191.015 19C191.175 18.9867 191.309 19.04 191.415 19.16C191.522 19.2667 191.575 19.4933 191.575 19.84C191.575 20.1067 191.529 20.3467 191.435 20.56C191.355 20.76 191.202 20.9 190.975 20.98C190.802 21.0333 190.575 21.08 190.295 21.12C190.015 21.1733 189.769 21.2 189.555 21.2ZM194.245 21.16C193.845 21.16 193.538 21.0533 193.325 20.84C193.112 20.6133 193.005 20.2933 193.005 19.88V8C193.005 7.58667 193.112 7.27333 193.325 7.06C193.538 6.84667 193.845 6.74 194.245 6.74C194.645 6.74 194.952 6.84667 195.165 7.06C195.392 7.27333 195.505 7.58667 195.505 8V13.18H195.225C195.518 12.4733 195.972 11.94 196.585 11.58C197.212 11.2067 197.918 11.02 198.705 11.02C199.492 11.02 200.138 11.1667 200.645 11.46C201.152 11.7533 201.532 12.2 201.785 12.8C202.038 13.3867 202.165 14.1333 202.165 15.04V19.88C202.165 20.2933 202.058 20.6133 201.845 20.84C201.632 21.0533 201.325 21.16 200.925 21.16C200.525 21.16 200.212 21.0533 199.985 20.84C199.772 20.6133 199.665 20.2933 199.665 19.88V15.16C199.665 14.4 199.518 13.8467 199.225 13.5C198.945 13.1533 198.505 12.98 197.905 12.98C197.172 12.98 196.585 13.2133 196.145 13.68C195.718 14.1333 195.505 14.74 195.505 15.5V19.88C195.505 20.7333 195.085 21.16 194.245 21.16ZM209.524 21.2C208.418 21.2 207.464 20.9933 206.664 20.58C205.864 20.1667 205.244 19.58 204.804 18.82C204.378 18.06 204.164 17.16 204.164 16.12C204.164 15.1067 204.371 14.22 204.784 13.46C205.211 12.7 205.791 12.1067 206.524 11.68C207.271 11.24 208.118 11.02 209.064 11.02C209.758 11.02 210.378 11.1333 210.924 11.36C211.484 11.5867 211.958 11.9133 212.344 12.34C212.744 12.7667 213.044 13.2867 213.244 13.9C213.458 14.5 213.564 15.18 213.564 15.94C213.564 16.18 213.478 16.3667 213.304 16.5C213.144 16.62 212.911 16.68 212.604 16.68H206.184V15.24H211.804L211.484 15.54C211.484 14.9267 211.391 14.4133 211.204 14C211.031 13.5867 210.771 13.2733 210.424 13.06C210.091 12.8333 209.671 12.72 209.164 12.72C208.604 12.72 208.124 12.8533 207.724 13.12C207.338 13.3733 207.038 13.74 206.824 14.22C206.624 14.6867 206.524 15.2467 206.524 15.9V16.04C206.524 17.1333 206.778 17.9533 207.284 18.5C207.804 19.0333 208.564 19.3 209.564 19.3C209.911 19.3 210.298 19.26 210.724 19.18C211.164 19.0867 211.578 18.9333 211.964 18.72C212.244 18.56 212.491 18.4933 212.704 18.52C212.918 18.5333 213.084 18.6067 213.204 18.74C213.338 18.8733 213.418 19.04 213.444 19.24C213.471 19.4267 213.431 19.62 213.324 19.82C213.231 20.02 213.064 20.1933 212.824 20.34C212.358 20.6333 211.818 20.8533 211.204 21C210.604 21.1333 210.044 21.2 209.524 21.2ZM222.214 21.16C221.814 21.16 221.507 21.0533 221.294 20.84C221.08 20.6133 220.974 20.2933 220.974 19.88V8C220.974 7.58667 221.08 7.27333 221.294 7.06C221.507 6.84667 221.814 6.74 222.214 6.74C222.614 6.74 222.92 6.84667 223.134 7.06C223.36 7.27333 223.474 7.58667 223.474 8V13.18H223.194C223.487 12.4733 223.94 11.94 224.554 11.58C225.18 11.2067 225.887 11.02 226.674 11.02C227.46 11.02 228.107 11.1667 228.614 11.46C229.12 11.7533 229.5 12.2 229.754 12.8C230.007 13.3867 230.134 14.1333 230.134 15.04V19.88C230.134 20.2933 230.027 20.6133 229.814 20.84C229.6 21.0533 229.294 21.16 228.894 21.16C228.494 21.16 228.18 21.0533 227.954 20.84C227.74 20.6133 227.634 20.2933 227.634 19.88V15.16C227.634 14.4 227.487 13.8467 227.194 13.5C226.914 13.1533 226.474 12.98 225.874 12.98C225.14 12.98 224.554 13.2133 224.114 13.68C223.687 14.1333 223.474 14.74 223.474 15.5V19.88C223.474 20.7333 223.054 21.16 222.214 21.16ZM236.213 21.2C235.4 21.2 234.726 21.0533 234.193 20.76C233.66 20.4533 233.26 20 232.993 19.4C232.74 18.8 232.613 18.0533 232.613 17.16V12.32C232.613 11.8933 232.72 11.58 232.933 11.38C233.146 11.1667 233.453 11.06 233.853 11.06C234.253 11.06 234.56 11.1667 234.773 11.38C235 11.58 235.113 11.8933 235.113 12.32V17.2C235.113 17.8933 235.253 18.4067 235.533 18.74C235.813 19.0733 236.26 19.24 236.873 19.24C237.54 19.24 238.086 19.0133 238.513 18.56C238.94 18.0933 239.153 17.48 239.153 16.72V12.32C239.153 11.8933 239.26 11.58 239.473 11.38C239.686 11.1667 239.993 11.06 240.393 11.06C240.793 11.06 241.1 11.1667 241.313 11.38C241.54 11.58 241.653 11.8933 241.653 12.32V19.88C241.653 20.7333 241.246 21.16 240.433 21.16C240.046 21.16 239.746 21.0533 239.533 20.84C239.32 20.6133 239.213 20.2933 239.213 19.88V18.36L239.493 18.96C239.213 19.68 238.786 20.2333 238.213 20.62C237.653 21.0067 236.986 21.2 236.213 21.2ZM245.495 21.16C245.095 21.16 244.788 21.0533 244.575 20.84C244.362 20.6133 244.255 20.2933 244.255 19.88V12.32C244.255 11.9067 244.362 11.5933 244.575 11.38C244.788 11.1667 245.088 11.06 245.475 11.06C245.862 11.06 246.162 11.1667 246.375 11.38C246.588 11.5933 246.695 11.9067 246.695 12.32V13.68L246.475 13.18C246.768 12.4733 247.222 11.94 247.835 11.58C248.462 11.2067 249.168 11.02 249.955 11.02C250.742 11.02 251.388 11.1667 251.895 11.46C252.402 11.7533 252.782 12.2 253.035 12.8C253.288 13.3867 253.415 14.1333 253.415 15.04V19.88C253.415 20.2933 253.308 20.6133 253.095 20.84C252.882 21.0533 252.575 21.16 252.175 21.16C251.775 21.16 251.462 21.0533 251.235 20.84C251.022 20.6133 250.915 20.2933 250.915 19.88V15.16C250.915 14.4 250.768 13.8467 250.475 13.5C250.195 13.1533 249.755 12.98 249.155 12.98C248.422 12.98 247.835 13.2133 247.395 13.68C246.968 14.1333 246.755 14.74 246.755 15.5V19.88C246.755 20.7333 246.335 21.16 245.495 21.16ZM259.714 21.2C258.861 21.2 258.108 20.9933 257.454 20.58C256.814 20.1667 256.314 19.58 255.954 18.82C255.594 18.0467 255.414 17.14 255.414 16.1C255.414 15.0467 255.594 14.1467 255.954 13.4C256.314 12.64 256.814 12.0533 257.454 11.64C258.108 11.2267 258.861 11.02 259.714 11.02C260.528 11.02 261.234 11.22 261.834 11.62C262.448 12.02 262.861 12.5467 263.074 13.2H262.854V8C262.854 7.58667 262.961 7.27333 263.174 7.06C263.388 6.84667 263.694 6.74 264.094 6.74C264.494 6.74 264.801 6.84667 265.014 7.06C265.241 7.27333 265.354 7.58667 265.354 8V19.88C265.354 20.2933 265.248 20.6133 265.034 20.84C264.821 21.0533 264.514 21.16 264.114 21.16C263.714 21.16 263.408 21.0533 263.194 20.84C262.981 20.6133 262.874 20.2933 262.874 19.88V18.32L263.094 18.92C262.894 19.6133 262.488 20.1667 261.874 20.58C261.261 20.9933 260.541 21.2 259.714 21.2ZM260.414 19.3C260.908 19.3 261.341 19.18 261.714 18.94C262.088 18.7 262.374 18.3467 262.574 17.88C262.788 17.4 262.894 16.8067 262.894 16.1C262.894 15.0333 262.668 14.24 262.214 13.72C261.761 13.1867 261.161 12.92 260.414 12.92C259.921 12.92 259.488 13.04 259.114 13.28C258.741 13.5067 258.448 13.86 258.234 14.34C258.034 14.8067 257.934 15.3933 257.934 16.1C257.934 17.1533 258.161 17.9533 258.614 18.5C259.068 19.0333 259.668 19.3 260.414 19.3ZM269.226 21.16C268.813 21.16 268.493 21.0533 268.266 20.84C268.053 20.6133 267.946 20.2933 267.946 19.88V12.32C267.946 11.9067 268.053 11.5933 268.266 11.38C268.48 11.1667 268.78 11.06 269.166 11.06C269.553 11.06 269.853 11.1667 270.066 11.38C270.28 11.5933 270.386 11.9067 270.386 12.32V13.58H270.186C270.373 12.78 270.74 12.1733 271.286 11.76C271.833 11.3467 272.56 11.1 273.466 11.02C273.746 10.9933 273.966 11.0667 274.126 11.24C274.3 11.4 274.4 11.6533 274.426 12C274.453 12.3333 274.373 12.6067 274.186 12.82C274.013 13.02 273.746 13.14 273.386 13.18L272.946 13.22C272.133 13.3 271.52 13.5533 271.106 13.98C270.693 14.3933 270.486 14.98 270.486 15.74V19.88C270.486 20.2933 270.38 20.6133 270.166 20.84C269.953 21.0533 269.64 21.16 269.226 21.16ZM280.442 21.2C279.336 21.2 278.382 20.9933 277.582 20.58C276.782 20.1667 276.162 19.58 275.722 18.82C275.296 18.06 275.082 17.16 275.082 16.12C275.082 15.1067 275.289 14.22 275.702 13.46C276.129 12.7 276.709 12.1067 277.442 11.68C278.189 11.24 279.036 11.02 279.982 11.02C280.676 11.02 281.296 11.1333 281.842 11.36C282.402 11.5867 282.876 11.9133 283.262 12.34C283.662 12.7667 283.962 13.2867 284.162 13.9C284.376 14.5 284.482 15.18 284.482 15.94C284.482 16.18 284.396 16.3667 284.222 16.5C284.062 16.62 283.829 16.68 283.522 16.68H277.102V15.24H282.722L282.402 15.54C282.402 14.9267 282.309 14.4133 282.122 14C281.949 13.5867 281.689 13.2733 281.342 13.06C281.009 12.8333 280.589 12.72 280.082 12.72C279.522 12.72 279.042 12.8533 278.642 13.12C278.256 13.3733 277.956 13.74 277.742 14.22C277.542 14.6867 277.442 15.2467 277.442 15.9V16.04C277.442 17.1333 277.696 17.9533 278.202 18.5C278.722 19.0333 279.482 19.3 280.482 19.3C280.829 19.3 281.216 19.26 281.642 19.18C282.082 19.0867 282.496 18.9333 282.882 18.72C283.162 18.56 283.409 18.4933 283.622 18.52C283.836 18.5333 284.002 18.6067 284.122 18.74C284.256 18.8733 284.336 19.04 284.362 19.24C284.389 19.4267 284.349 19.62 284.242 19.82C284.149 20.02 283.982 20.1933 283.742 20.34C283.276 20.6333 282.736 20.8533 282.122 21C281.522 21.1333 280.962 21.2 280.442 21.2ZM290.222 21.2C289.369 21.2 288.615 20.9933 287.962 20.58C287.322 20.1667 286.822 19.58 286.462 18.82C286.102 18.0467 285.922 17.14 285.922 16.1C285.922 15.0467 286.102 14.1467 286.462 13.4C286.822 12.64 287.322 12.0533 287.962 11.64C288.615 11.2267 289.369 11.02 290.222 11.02C291.035 11.02 291.742 11.22 292.342 11.62C292.955 12.02 293.369 12.5467 293.582 13.2H293.362V8C293.362 7.58667 293.469 7.27333 293.682 7.06C293.895 6.84667 294.202 6.74 294.602 6.74C295.002 6.74 295.309 6.84667 295.522 7.06C295.749 7.27333 295.862 7.58667 295.862 8V19.88C295.862 20.2933 295.755 20.6133 295.542 20.84C295.329 21.0533 295.022 21.16 294.622 21.16C294.222 21.16 293.915 21.0533 293.702 20.84C293.489 20.6133 293.382 20.2933 293.382 19.88V18.32L293.602 18.92C293.402 19.6133 292.995 20.1667 292.382 20.58C291.769 20.9933 291.049 21.2 290.222 21.2ZM290.922 19.3C291.415 19.3 291.849 19.18 292.222 18.94C292.595 18.7 292.882 18.3467 293.082 17.88C293.295 17.4 293.402 16.8067 293.402 16.1C293.402 15.0333 293.175 14.24 292.722 13.72C292.269 13.1867 291.669 12.92 290.922 12.92C290.429 12.92 289.995 13.04 289.622 13.28C289.249 13.5067 288.955 13.86 288.742 14.34C288.542 14.8067 288.442 15.3933 288.442 16.1C288.442 17.1533 288.669 17.9533 289.122 18.5C289.575 19.0333 290.175 19.3 290.922 19.3ZM302.934 21.2C302.068 21.2 301.341 21.0533 300.754 20.76C300.181 20.4667 299.754 20.04 299.474 19.48C299.194 18.9067 299.054 18.2 299.054 17.36V13.1H298.014C297.694 13.1 297.448 13.02 297.274 12.86C297.101 12.6867 297.014 12.4533 297.014 12.16C297.014 11.8533 297.101 11.62 297.274 11.46C297.448 11.3 297.694 11.22 298.014 11.22H299.054V9.4C299.054 8.98667 299.161 8.67333 299.374 8.46C299.601 8.24667 299.914 8.14 300.314 8.14C300.714 8.14 301.021 8.24667 301.234 8.46C301.448 8.67333 301.554 8.98667 301.554 9.4V11.22H303.674C303.994 11.22 304.241 11.3 304.414 11.46C304.588 11.62 304.674 11.8533 304.674 12.16C304.674 12.4533 304.588 12.6867 304.414 12.86C304.241 13.02 303.994 13.1 303.674 13.1H301.554V17.22C301.554 17.86 301.694 18.34 301.974 18.66C302.254 18.98 302.708 19.14 303.334 19.14C303.561 19.14 303.761 19.12 303.934 19.08C304.108 19.04 304.261 19.0133 304.394 19C304.554 18.9867 304.688 19.04 304.794 19.16C304.901 19.2667 304.954 19.4933 304.954 19.84C304.954 20.1067 304.908 20.3467 304.814 20.56C304.734 20.76 304.581 20.9 304.354 20.98C304.181 21.0333 303.954 21.08 303.674 21.12C303.394 21.1733 303.148 21.2 302.934 21.2ZM307.624 21.16C307.224 21.16 306.917 21.0533 306.704 20.84C306.491 20.6133 306.384 20.2933 306.384 19.88V8C306.384 7.58667 306.491 7.27333 306.704 7.06C306.917 6.84667 307.224 6.74 307.624 6.74C308.024 6.74 308.331 6.84667 308.544 7.06C308.771 7.27333 308.884 7.58667 308.884 8V13.18H308.604C308.897 12.4733 309.351 11.94 309.964 11.58C310.591 11.2067 311.297 11.02 312.084 11.02C312.871 11.02 313.517 11.1667 314.024 11.46C314.531 11.7533 314.911 12.2 315.164 12.8C315.417 13.3867 315.544 14.1333 315.544 15.04V19.88C315.544 20.2933 315.437 20.6133 315.224 20.84C315.011 21.0533 314.704 21.16 314.304 21.16C313.904 21.16 313.591 21.0533 313.364 20.84C313.151 20.6133 313.044 20.2933 313.044 19.88V15.16C313.044 14.4 312.897 13.8467 312.604 13.5C312.324 13.1533 311.884 12.98 311.284 12.98C310.551 12.98 309.964 13.2133 309.524 13.68C309.097 14.1333 308.884 14.74 308.884 15.5V19.88C308.884 20.7333 308.464 21.16 307.624 21.16ZM321.663 21.2C321.09 21.2 320.483 21.14 319.843 21.02C319.203 20.9 318.63 20.6933 318.123 20.4C317.91 20.2667 317.757 20.1133 317.663 19.94C317.583 19.7533 317.55 19.5733 317.563 19.4C317.59 19.2133 317.657 19.0533 317.763 18.92C317.883 18.7867 318.03 18.7 318.203 18.66C318.39 18.62 318.59 18.6533 318.803 18.76C319.337 19.0133 319.837 19.1933 320.303 19.3C320.77 19.3933 321.23 19.44 321.683 19.44C322.323 19.44 322.797 19.3333 323.103 19.12C323.423 18.8933 323.583 18.6 323.583 18.24C323.583 17.9333 323.477 17.7 323.263 17.54C323.063 17.3667 322.757 17.24 322.343 17.16L320.343 16.78C319.517 16.62 318.883 16.32 318.443 15.88C318.017 15.4267 317.803 14.8467 317.803 14.14C317.803 13.5 317.977 12.9467 318.323 12.48C318.683 12.0133 319.177 11.6533 319.803 11.4C320.43 11.1467 321.15 11.02 321.963 11.02C322.55 11.02 323.097 11.0867 323.603 11.22C324.123 11.34 324.623 11.5333 325.103 11.8C325.303 11.9067 325.437 12.0467 325.503 12.22C325.583 12.3933 325.603 12.5733 325.563 12.76C325.523 12.9333 325.443 13.0933 325.323 13.24C325.203 13.3733 325.05 13.46 324.863 13.5C324.69 13.5267 324.49 13.4867 324.263 13.38C323.85 13.1667 323.45 13.0133 323.063 12.92C322.69 12.8267 322.33 12.78 321.983 12.78C321.33 12.78 320.843 12.8933 320.523 13.12C320.217 13.3467 320.063 13.6467 320.063 14.02C320.063 14.3 320.157 14.5333 320.343 14.72C320.53 14.9067 320.817 15.0333 321.203 15.1L323.203 15.48C324.07 15.64 324.723 15.9333 325.163 16.36C325.617 16.7867 325.843 17.36 325.843 18.08C325.843 19.0533 325.463 19.82 324.703 20.38C323.943 20.9267 322.93 21.2 321.663 21.2ZM334.519 21.16C334.119 21.16 333.812 21.0533 333.599 20.84C333.385 20.6133 333.279 20.2933 333.279 19.88V12.32C333.279 11.9067 333.385 11.5933 333.599 11.38C333.812 11.1667 334.112 11.06 334.499 11.06C334.885 11.06 335.185 11.1667 335.399 11.38C335.612 11.5933 335.719 11.9067 335.719 12.32V13.68L335.499 13.18C335.792 12.4733 336.245 11.94 336.859 11.58C337.485 11.2067 338.192 11.02 338.979 11.02C339.765 11.02 340.412 11.1667 340.919 11.46C341.425 11.7533 341.805 12.2 342.059 12.8C342.312 13.3867 342.439 14.1333 342.439 15.04V19.88C342.439 20.2933 342.332 20.6133 342.119 20.84C341.905 21.0533 341.599 21.16 341.199 21.16C340.799 21.16 340.485 21.0533 340.259 20.84C340.045 20.6133 339.939 20.2933 339.939 19.88V15.16C339.939 14.4 339.792 13.8467 339.499 13.5C339.219 13.1533 338.779 12.98 338.179 12.98C337.445 12.98 336.859 13.2133 336.419 13.68C335.992 14.1333 335.779 14.74 335.779 15.5V19.88C335.779 20.7333 335.359 21.16 334.519 21.16ZM348.518 21.2C347.704 21.2 347.031 21.0533 346.498 20.76C345.964 20.4533 345.564 20 345.298 19.4C345.044 18.8 344.918 18.0533 344.918 17.16V12.32C344.918 11.8933 345.024 11.58 345.238 11.38C345.451 11.1667 345.758 11.06 346.158 11.06C346.558 11.06 346.864 11.1667 347.078 11.38C347.304 11.58 347.418 11.8933 347.418 12.32V17.2C347.418 17.8933 347.558 18.4067 347.838 18.74C348.118 19.0733 348.564 19.24 349.178 19.24C349.844 19.24 350.391 19.0133 350.818 18.56C351.244 18.0933 351.458 17.48 351.458 16.72V12.32C351.458 11.8933 351.564 11.58 351.778 11.38C351.991 11.1667 352.298 11.06 352.698 11.06C353.098 11.06 353.404 11.1667 353.618 11.38C353.844 11.58 353.958 11.8933 353.958 12.32V19.88C353.958 20.7333 353.551 21.16 352.738 21.16C352.351 21.16 352.051 21.0533 351.838 20.84C351.624 20.6133 351.518 20.2933 351.518 19.88V18.36L351.798 18.96C351.518 19.68 351.091 20.2333 350.518 20.62C349.958 21.0067 349.291 21.2 348.518 21.2ZM357.84 21.16C357.44 21.16 357.133 21.0533 356.92 20.84C356.706 20.6133 356.6 20.2933 356.6 19.88V12.32C356.6 11.9067 356.706 11.5933 356.92 11.38C357.133 11.1667 357.433 11.06 357.82 11.06C358.206 11.06 358.506 11.1667 358.72 11.38C358.933 11.5933 359.04 11.9067 359.04 12.32V13.78L358.82 13.18C359.086 12.5133 359.5 11.9867 360.06 11.6C360.62 11.2133 361.286 11.02 362.06 11.02C362.846 11.02 363.493 11.2067 364 11.58C364.506 11.9533 364.86 12.5267 365.06 13.3H364.78C365.046 12.5933 365.486 12.04 366.1 11.64C366.713 11.2267 367.42 11.02 368.22 11.02C368.966 11.02 369.58 11.1667 370.06 11.46C370.553 11.7533 370.92 12.2 371.16 12.8C371.4 13.3867 371.52 14.1333 371.52 15.04V19.88C371.52 20.2933 371.406 20.6133 371.18 20.84C370.966 21.0533 370.66 21.16 370.26 21.16C369.86 21.16 369.553 21.0533 369.34 20.84C369.126 20.6133 369.02 20.2933 369.02 19.88V15.14C369.02 14.3933 368.893 13.8467 368.64 13.5C368.4 13.1533 367.986 12.98 367.4 12.98C366.746 12.98 366.233 13.2133 365.86 13.68C365.486 14.1333 365.3 14.7667 365.3 15.58V19.88C365.3 20.2933 365.193 20.6133 364.98 20.84C364.766 21.0533 364.46 21.16 364.06 21.16C363.66 21.16 363.346 21.0533 363.12 20.84C362.906 20.6133 362.8 20.2933 362.8 19.88V15.14C362.8 14.3933 362.673 13.8467 362.42 13.5C362.18 13.1533 361.773 12.98 361.2 12.98C360.546 12.98 360.033 13.2133 359.66 13.68C359.286 14.1333 359.1 14.7667 359.1 15.58V19.88C359.1 20.7333 358.68 21.16 357.84 21.16ZM379.739 21.2C378.912 21.2 378.185 20.9933 377.559 20.58C376.945 20.1667 376.539 19.6133 376.339 18.92L376.559 18.42V19.88C376.559 20.2933 376.452 20.6133 376.239 20.84C376.025 21.0533 375.725 21.16 375.339 21.16C374.939 21.16 374.632 21.0533 374.419 20.84C374.205 20.6133 374.099 20.2933 374.099 19.88V8C374.099 7.58667 374.205 7.27333 374.419 7.06C374.632 6.84667 374.939 6.74 375.339 6.74C375.739 6.74 376.045 6.84667 376.259 7.06C376.485 7.27333 376.599 7.58667 376.599 8V13.2H376.359C376.572 12.5467 376.985 12.02 377.599 11.62C378.212 11.22 378.925 11.02 379.739 11.02C380.605 11.02 381.359 11.2267 381.999 11.64C382.639 12.0533 383.139 12.64 383.499 13.4C383.859 14.1467 384.039 15.0467 384.039 16.1C384.039 17.14 383.859 18.0467 383.499 18.82C383.139 19.58 382.632 20.1667 381.979 20.58C381.339 20.9933 380.592 21.2 379.739 21.2ZM379.039 19.3C379.532 19.3 379.965 19.18 380.339 18.94C380.712 18.7 380.999 18.3467 381.199 17.88C381.412 17.4 381.519 16.8067 381.519 16.1C381.519 15.0333 381.292 14.24 380.839 13.72C380.385 13.1867 379.785 12.92 379.039 12.92C378.545 12.92 378.112 13.04 377.739 13.28C377.365 13.5067 377.072 13.86 376.859 14.34C376.659 14.8067 376.559 15.3933 376.559 16.1C376.559 17.1533 376.785 17.9533 377.239 18.5C377.692 19.0333 378.292 19.3 379.039 19.3ZM390.911 21.2C389.804 21.2 388.851 20.9933 388.051 20.58C387.251 20.1667 386.631 19.58 386.191 18.82C385.764 18.06 385.551 17.16 385.551 16.12C385.551 15.1067 385.758 14.22 386.171 13.46C386.598 12.7 387.178 12.1067 387.911 11.68C388.658 11.24 389.504 11.02 390.451 11.02C391.144 11.02 391.764 11.1333 392.311 11.36C392.871 11.5867 393.344 11.9133 393.731 12.34C394.131 12.7667 394.431 13.2867 394.631 13.9C394.844 14.5 394.951 15.18 394.951 15.94C394.951 16.18 394.864 16.3667 394.691 16.5C394.531 16.62 394.298 16.68 393.991 16.68H387.571V15.24H393.191L392.871 15.54C392.871 14.9267 392.778 14.4133 392.591 14C392.418 13.5867 392.158 13.2733 391.811 13.06C391.478 12.8333 391.058 12.72 390.551 12.72C389.991 12.72 389.511 12.8533 389.111 13.12C388.724 13.3733 388.424 13.74 388.211 14.22C388.011 14.6867 387.911 15.2467 387.911 15.9V16.04C387.911 17.1333 388.164 17.9533 388.671 18.5C389.191 19.0333 389.951 19.3 390.951 19.3C391.298 19.3 391.684 19.26 392.111 19.18C392.551 19.0867 392.964 18.9333 393.351 18.72C393.631 18.56 393.878 18.4933 394.091 18.52C394.304 18.5333 394.471 18.6067 394.591 18.74C394.724 18.8733 394.804 19.04 394.831 19.24C394.858 19.4267 394.818 19.62 394.711 19.82C394.618 20.02 394.451 20.1933 394.211 20.34C393.744 20.6333 393.204 20.8533 392.591 21C391.991 21.1333 391.431 21.2 390.911 21.2ZM398.211 21.16C397.798 21.16 397.478 21.0533 397.251 20.84C397.038 20.6133 396.931 20.2933 396.931 19.88V12.32C396.931 11.9067 397.038 11.5933 397.251 11.38C397.464 11.1667 397.764 11.06 398.151 11.06C398.538 11.06 398.838 11.1667 399.051 11.38C399.264 11.5933 399.371 11.9067 399.371 12.32V13.58H399.171C399.358 12.78 399.724 12.1733 400.271 11.76C400.818 11.3467 401.544 11.1 402.451 11.02C402.731 10.9933 402.951 11.0667 403.111 11.24C403.284 11.4 403.384 11.6533 403.411 12C403.438 12.3333 403.358 12.6067 403.171 12.82C402.998 13.02 402.731 13.14 402.371 13.18L401.931 13.22C401.118 13.3 400.504 13.5533 400.091 13.98C399.678 14.3933 399.471 14.98 399.471 15.74V19.88C399.471 20.2933 399.364 20.6133 399.151 20.84C398.938 21.0533 398.624 21.16 398.211 21.16ZM413.533 21.2C412.426 21.2 411.593 20.8867 411.033 20.26C410.473 19.62 410.193 18.6867 410.193 17.46V8C410.193 7.58667 410.299 7.27333 410.513 7.06C410.726 6.84667 411.033 6.74 411.433 6.74C411.833 6.74 412.139 6.84667 412.353 7.06C412.579 7.27333 412.693 7.58667 412.693 8V17.34C412.693 17.9533 412.819 18.4067 413.073 18.7C413.339 18.9933 413.713 19.14 414.193 19.14C414.299 19.14 414.399 19.14 414.493 19.14C414.586 19.1267 414.679 19.1133 414.773 19.1C414.959 19.0733 415.086 19.1267 415.153 19.26C415.219 19.38 415.253 19.6333 415.253 20.02C415.253 20.3533 415.186 20.6133 415.053 20.8C414.919 20.9867 414.699 21.1 414.393 21.14C414.259 21.1533 414.119 21.1667 413.973 21.18C413.826 21.1933 413.679 21.2 413.533 21.2ZM417.819 21.14C417.419 21.14 417.113 21.02 416.899 20.78C416.686 20.54 416.579 20.2067 416.579 19.78V12.44C416.579 12 416.686 11.6667 416.899 11.44C417.113 11.2 417.419 11.08 417.819 11.08C418.219 11.08 418.526 11.2 418.739 11.44C418.966 11.6667 419.079 12 419.079 12.44V19.78C419.079 20.2067 418.973 20.54 418.759 20.78C418.546 21.02 418.233 21.14 417.819 21.14ZM417.819 9.22C417.353 9.22 416.986 9.10667 416.719 8.88C416.466 8.64 416.339 8.31333 416.339 7.9C416.339 7.47333 416.466 7.14667 416.719 6.92C416.986 6.69333 417.353 6.58 417.819 6.58C418.299 6.58 418.666 6.69333 418.919 6.92C419.173 7.14667 419.299 7.47333 419.299 7.9C419.299 8.31333 419.173 8.64 418.919 8.88C418.666 9.10667 418.299 9.22 417.819 9.22ZM422.917 21.16C422.517 21.16 422.21 21.0533 421.997 20.84C421.784 20.6133 421.677 20.2933 421.677 19.88V12.32C421.677 11.9067 421.784 11.5933 421.997 11.38C422.21 11.1667 422.51 11.06 422.897 11.06C423.284 11.06 423.584 11.1667 423.797 11.38C424.01 11.5933 424.117 11.9067 424.117 12.32V13.68L423.897 13.18C424.19 12.4733 424.644 11.94 425.257 11.58C425.884 11.2067 426.59 11.02 427.377 11.02C428.164 11.02 428.81 11.1667 429.317 11.46C429.824 11.7533 430.204 12.2 430.457 12.8C430.71 13.3867 430.837 14.1333 430.837 15.04V19.88C430.837 20.2933 430.73 20.6133 430.517 20.84C430.304 21.0533 429.997 21.16 429.597 21.16C429.197 21.16 428.884 21.0533 428.657 20.84C428.444 20.6133 428.337 20.2933 428.337 19.88V15.16C428.337 14.4 428.19 13.8467 427.897 13.5C427.617 13.1533 427.177 12.98 426.577 12.98C425.844 12.98 425.257 13.2133 424.817 13.68C424.39 14.1333 424.177 14.74 424.177 15.5V19.88C424.177 20.7333 423.757 21.16 422.917 21.16ZM438.196 21.2C437.09 21.2 436.136 20.9933 435.336 20.58C434.536 20.1667 433.916 19.58 433.476 18.82C433.05 18.06 432.836 17.16 432.836 16.12C432.836 15.1067 433.043 14.22 433.456 13.46C433.883 12.7 434.463 12.1067 435.196 11.68C435.943 11.24 436.79 11.02 437.736 11.02C438.43 11.02 439.05 11.1333 439.596 11.36C440.156 11.5867 440.63 11.9133 441.016 12.34C441.416 12.7667 441.716 13.2867 441.916 13.9C442.13 14.5 442.236 15.18 442.236 15.94C442.236 16.18 442.15 16.3667 441.976 16.5C441.816 16.62 441.583 16.68 441.276 16.68H434.856V15.24H440.476L440.156 15.54C440.156 14.9267 440.063 14.4133 439.876 14C439.703 13.5867 439.443 13.2733 439.096 13.06C438.763 12.8333 438.343 12.72 437.836 12.72C437.276 12.72 436.796 12.8533 436.396 13.12C436.01 13.3733 435.71 13.74 435.496 14.22C435.296 14.6867 435.196 15.2467 435.196 15.9V16.04C435.196 17.1333 435.45 17.9533 435.956 18.5C436.476 19.0333 437.236 19.3 438.236 19.3C438.583 19.3 438.97 19.26 439.396 19.18C439.836 19.0867 440.25 18.9333 440.636 18.72C440.916 18.56 441.163 18.4933 441.376 18.52C441.59 18.5333 441.756 18.6067 441.876 18.74C442.01 18.8733 442.09 19.04 442.116 19.24C442.143 19.4267 442.103 19.62 441.996 19.82C441.903 20.02 441.736 20.1933 441.496 20.34C441.03 20.6333 440.49 20.8533 439.876 21C439.276 21.1333 438.716 21.2 438.196 21.2ZM445.416 21.1C444.963 21.1 444.596 20.96 444.316 20.68C444.049 20.4 443.916 20.04 443.916 19.6C443.916 19.1733 444.049 18.8267 444.316 18.56C444.596 18.28 444.963 18.14 445.416 18.14C445.883 18.14 446.243 18.28 446.496 18.56C446.763 18.8267 446.896 19.1733 446.896 19.6C446.896 20.04 446.763 20.4 446.496 20.68C446.243 20.96 445.883 21.1 445.416 21.1Z" fill="#444444"/>
</svg>
