<svg width="680" height="28" viewBox="0 0 680 28" fill="none" xmlns="http://www.w3.org/2000/svg">
<path d="M37.7457 21.2C37.159 21.2 36.5724 21.1533 35.9857 21.06C35.399 20.98 34.8457 20.8533 34.3257 20.68C33.8057 20.4933 33.339 20.2667 32.9257 20C32.6857 19.84 32.519 19.6467 32.4257 19.42C32.3324 19.1933 32.299 18.9733 32.3257 18.76C32.3657 18.5333 32.4524 18.34 32.5857 18.18C32.7324 18.0067 32.9124 17.9 33.1257 17.86C33.339 17.82 33.5724 17.88 33.8257 18.04C34.4124 18.3867 35.0324 18.64 35.6857 18.8C36.339 18.96 37.0257 19.04 37.7457 19.04C38.799 19.04 39.5657 18.8667 40.0457 18.52C40.5257 18.16 40.7657 17.7 40.7657 17.14C40.7657 16.6733 40.5924 16.3067 40.2457 16.04C39.9124 15.7733 39.3324 15.5533 38.5057 15.38L36.3057 14.92C35.039 14.6533 34.0924 14.2067 33.4657 13.58C32.8524 12.94 32.5457 12.1 32.5457 11.06C32.5457 10.4067 32.679 9.81333 32.9457 9.28C33.2124 8.74667 33.5857 8.28667 34.0657 7.9C34.559 7.51333 35.139 7.22 35.8057 7.02C36.4857 6.80667 37.2324 6.7 38.0457 6.7C38.8457 6.7 39.6057 6.8 40.3257 7C41.0457 7.2 41.6924 7.49333 42.2657 7.88C42.479 8.02667 42.619 8.20667 42.6857 8.42C42.7657 8.63333 42.7857 8.84667 42.7457 9.06C42.7057 9.26 42.6124 9.43333 42.4657 9.58C42.319 9.72667 42.1324 9.81333 41.9057 9.84C41.6924 9.86667 41.4457 9.8 41.1657 9.64C40.6724 9.36 40.1724 9.16 39.6657 9.04C39.159 8.92 38.6124 8.86 38.0257 8.86C37.4124 8.86 36.8857 8.94667 36.4457 9.12C36.0057 9.29333 35.6657 9.54 35.4257 9.86C35.199 10.1667 35.0857 10.5333 35.0857 10.96C35.0857 11.44 35.2457 11.8267 35.5657 12.12C35.8857 12.4 36.4324 12.62 37.2057 12.78L39.3857 13.24C40.7057 13.52 41.6857 13.96 42.3257 14.56C42.979 15.16 43.3057 15.96 43.3057 16.96C43.3057 17.6 43.1724 18.18 42.9057 18.7C42.6524 19.22 42.279 19.6667 41.7857 20.04C41.3057 20.4133 40.7257 20.7 40.0457 20.9C39.3657 21.1 38.599 21.2 37.7457 21.2ZM50.0829 21.2C48.9762 21.2 48.0229 20.9933 47.2229 20.58C46.4229 20.1667 45.8029 19.58 45.3629 18.82C44.9362 18.06 44.7229 17.16 44.7229 16.12C44.7229 15.1067 44.9296 14.22 45.3429 13.46C45.7696 12.7 46.3496 12.1067 47.0829 11.68C47.8296 11.24 48.6762 11.02 49.6229 11.02C50.3162 11.02 50.9362 11.1333 51.4829 11.36C52.0429 11.5867 52.5162 11.9133 52.9029 12.34C53.3029 12.7667 53.6029 13.2867 53.8029 13.9C54.0162 14.5 54.1229 15.18 54.1229 15.94C54.1229 16.18 54.0362 16.3667 53.8629 16.5C53.7029 16.62 53.4696 16.68 53.1629 16.68H46.7429V15.24H52.3629L52.0429 15.54C52.0429 14.9267 51.9496 14.4133 51.7629 14C51.5896 13.5867 51.3296 13.2733 50.9829 13.06C50.6496 12.8333 50.2296 12.72 49.7229 12.72C49.1629 12.72 48.6829 12.8533 48.2829 13.12C47.8962 13.3733 47.5962 13.74 47.3829 14.22C47.1829 14.6867 47.0829 15.2467 47.0829 15.9V16.04C47.0829 17.1333 47.3362 17.9533 47.8429 18.5C48.3629 19.0333 49.1229 19.3 50.1229 19.3C50.4696 19.3 50.8562 19.26 51.2829 19.18C51.7229 19.0867 52.1362 18.9333 52.5229 18.72C52.8029 18.56 53.0496 18.4933 53.2629 18.52C53.4762 18.5333 53.6429 18.6067 53.7629 18.74C53.8962 18.8733 53.9762 19.04 54.0029 19.24C54.0296 19.4267 53.9896 19.62 53.8829 19.82C53.7896 20.02 53.6229 20.1933 53.3829 20.34C52.9162 20.6333 52.3762 20.8533 51.7629 21C51.1629 21.1333 50.6029 21.2 50.0829 21.2ZM59.4427 21.2C58.3361 21.2 57.5027 20.8867 56.9427 20.26C56.3827 19.62 56.1027 18.6867 56.1027 17.46V8C56.1027 7.58667 56.2094 7.27333 56.4227 7.06C56.6361 6.84667 56.9427 6.74 57.3427 6.74C57.7427 6.74 58.0494 6.84667 58.2627 7.06C58.4894 7.27333 58.6027 7.58667 58.6027 8V17.34C58.6027 17.9533 58.7294 18.4067 58.9827 18.7C59.2494 18.9933 59.6227 19.14 60.1027 19.14C60.2094 19.14 60.3094 19.14 60.4027 19.14C60.4961 19.1267 60.5894 19.1133 60.6827 19.1C60.8694 19.0733 60.9961 19.1267 61.0627 19.26C61.1294 19.38 61.1627 19.6333 61.1627 20.02C61.1627 20.3533 61.0961 20.6133 60.9627 20.8C60.8294 20.9867 60.6094 21.1 60.3027 21.14C60.1694 21.1533 60.0294 21.1667 59.8827 21.18C59.7361 21.1933 59.5894 21.2 59.4427 21.2ZM67.2118 21.2C66.1051 21.2 65.1518 20.9933 64.3518 20.58C63.5518 20.1667 62.9318 19.58 62.4918 18.82C62.0651 18.06 61.8518 17.16 61.8518 16.12C61.8518 15.1067 62.0585 14.22 62.4718 13.46C62.8985 12.7 63.4785 12.1067 64.2118 11.68C64.9585 11.24 65.8051 11.02 66.7518 11.02C67.4451 11.02 68.0651 11.1333 68.6118 11.36C69.1718 11.5867 69.6451 11.9133 70.0318 12.34C70.4318 12.7667 70.7318 13.2867 70.9318 13.9C71.1451 14.5 71.2518 15.18 71.2518 15.94C71.2518 16.18 71.1651 16.3667 70.9918 16.5C70.8318 16.62 70.5985 16.68 70.2918 16.68H63.8718V15.24H69.4918L69.1718 15.54C69.1718 14.9267 69.0785 14.4133 68.8918 14C68.7185 13.5867 68.4585 13.2733 68.1118 13.06C67.7785 12.8333 67.3585 12.72 66.8518 12.72C66.2918 12.72 65.8118 12.8533 65.4118 13.12C65.0251 13.3733 64.7251 13.74 64.5118 14.22C64.3118 14.6867 64.2118 15.2467 64.2118 15.9V16.04C64.2118 17.1333 64.4651 17.9533 64.9718 18.5C65.4918 19.0333 66.2518 19.3 67.2518 19.3C67.5985 19.3 67.9851 19.26 68.4118 19.18C68.8518 19.0867 69.2651 18.9333 69.6518 18.72C69.9318 18.56 70.1785 18.4933 70.3918 18.52C70.6051 18.5333 70.7718 18.6067 70.8918 18.74C71.0251 18.8733 71.1051 19.04 71.1318 19.24C71.1585 19.4267 71.1185 19.62 71.0118 19.82C70.9185 20.02 70.7518 20.1933 70.5118 20.34C70.0451 20.6333 69.5051 20.8533 68.8918 21C68.2918 21.1333 67.7318 21.2 67.2118 21.2ZM77.7516 21.2C76.725 21.2 75.8316 20.9933 75.0716 20.58C74.3116 20.1533 73.725 19.5533 73.3116 18.78C72.8983 18.0067 72.6916 17.1 72.6916 16.06C72.6916 15.2733 72.805 14.5733 73.0316 13.96C73.2716 13.3333 73.6116 12.8067 74.0516 12.38C74.4916 11.94 75.025 11.6067 75.6516 11.38C76.2783 11.14 76.9783 11.02 77.7516 11.02C78.1916 11.02 78.665 11.08 79.1716 11.2C79.6916 11.32 80.1783 11.52 80.6316 11.8C80.845 11.9333 80.985 12.0933 81.0516 12.28C81.1183 12.4667 81.1316 12.66 81.0916 12.86C81.0516 13.0467 80.965 13.2133 80.8316 13.36C80.7116 13.4933 80.5583 13.58 80.3716 13.62C80.185 13.6467 79.9783 13.6 79.7516 13.48C79.4583 13.3067 79.1583 13.18 78.8516 13.1C78.545 13.0067 78.2516 12.96 77.9716 12.96C77.5316 12.96 77.145 13.0333 76.8116 13.18C76.4783 13.3133 76.1916 13.5133 75.9516 13.78C75.725 14.0333 75.5516 14.3533 75.4316 14.74C75.3116 15.1267 75.2516 15.5733 75.2516 16.08C75.2516 17.0667 75.485 17.8467 75.9516 18.42C76.4316 18.98 77.105 19.26 77.9716 19.26C78.2516 19.26 78.5383 19.22 78.8316 19.14C79.1383 19.06 79.445 18.9333 79.7516 18.76C79.9783 18.64 80.1783 18.6 80.3516 18.64C80.5383 18.68 80.6916 18.7733 80.8116 18.92C80.9316 19.0533 81.005 19.22 81.0316 19.42C81.0583 19.6067 81.0316 19.7933 80.9516 19.98C80.885 20.1667 80.7516 20.32 80.5516 20.44C80.1116 20.7067 79.645 20.9 79.1516 21.02C78.6583 21.14 78.1916 21.2 77.7516 21.2ZM87.1843 21.2C86.3176 21.2 85.591 21.0533 85.0043 20.76C84.431 20.4667 84.0043 20.04 83.7243 19.48C83.4443 18.9067 83.3043 18.2 83.3043 17.36V13.1H82.2643C81.9443 13.1 81.6976 13.02 81.5243 12.86C81.351 12.6867 81.2643 12.4533 81.2643 12.16C81.2643 11.8533 81.351 11.62 81.5243 11.46C81.6976 11.3 81.9443 11.22 82.2643 11.22H83.3043V9.4C83.3043 8.98667 83.411 8.67333 83.6243 8.46C83.851 8.24667 84.1643 8.14 84.5643 8.14C84.9643 8.14 85.271 8.24667 85.4843 8.46C85.6976 8.67333 85.8043 8.98667 85.8043 9.4V11.22H87.9243C88.2443 11.22 88.491 11.3 88.6643 11.46C88.8376 11.62 88.9243 11.8533 88.9243 12.16C88.9243 12.4533 88.8376 12.6867 88.6643 12.86C88.491 13.02 88.2443 13.1 87.9243 13.1H85.8043V17.22C85.8043 17.86 85.9443 18.34 86.2243 18.66C86.5043 18.98 86.9576 19.14 87.5843 19.14C87.811 19.14 88.011 19.12 88.1843 19.08C88.3576 19.04 88.511 19.0133 88.6443 19C88.8043 18.9867 88.9376 19.04 89.0443 19.16C89.151 19.2667 89.2043 19.4933 89.2043 19.84C89.2043 20.1067 89.1576 20.3467 89.0643 20.56C88.9843 20.76 88.831 20.9 88.6043 20.98C88.431 21.0333 88.2043 21.08 87.9243 21.12C87.6443 21.1733 87.3976 21.2 87.1843 21.2ZM100.29 21.2C99.4231 21.2 98.6964 21.0533 98.1098 20.76C97.5364 20.4667 97.1098 20.04 96.8298 19.48C96.5498 18.9067 96.4098 18.2 96.4098 17.36V13.1H95.3698C95.0498 13.1 94.8031 13.02 94.6298 12.86C94.4564 12.6867 94.3698 12.4533 94.3698 12.16C94.3698 11.8533 94.4564 11.62 94.6298 11.46C94.8031 11.3 95.0498 11.22 95.3698 11.22H96.4098V9.4C96.4098 8.98667 96.5164 8.67333 96.7298 8.46C96.9564 8.24667 97.2698 8.14 97.6698 8.14C98.0698 8.14 98.3764 8.24667 98.5898 8.46C98.8031 8.67333 98.9098 8.98667 98.9098 9.4V11.22H101.03C101.35 11.22 101.596 11.3 101.77 11.46C101.943 11.62 102.03 11.8533 102.03 12.16C102.03 12.4533 101.943 12.6867 101.77 12.86C101.596 13.02 101.35 13.1 101.03 13.1H98.9098V17.22C98.9098 17.86 99.0498 18.34 99.3298 18.66C99.6098 18.98 100.063 19.14 100.69 19.14C100.916 19.14 101.116 19.12 101.29 19.08C101.463 19.04 101.616 19.0133 101.75 19C101.91 18.9867 102.043 19.04 102.15 19.16C102.256 19.2667 102.31 19.4933 102.31 19.84C102.31 20.1067 102.263 20.3467 102.17 20.56C102.09 20.76 101.936 20.9 101.71 20.98C101.536 21.0333 101.31 21.08 101.03 21.12C100.75 21.1733 100.503 21.2 100.29 21.2ZM104.979 21.16C104.579 21.16 104.273 21.0533 104.059 20.84C103.846 20.6133 103.739 20.2933 103.739 19.88V8C103.739 7.58667 103.846 7.27333 104.059 7.06C104.273 6.84667 104.579 6.74 104.979 6.74C105.379 6.74 105.686 6.84667 105.899 7.06C106.126 7.27333 106.239 7.58667 106.239 8V13.18H105.959C106.253 12.4733 106.706 11.94 107.319 11.58C107.946 11.2067 108.653 11.02 109.439 11.02C110.226 11.02 110.873 11.1667 111.379 11.46C111.886 11.7533 112.266 12.2 112.519 12.8C112.773 13.3867 112.899 14.1333 112.899 15.04V19.88C112.899 20.2933 112.793 20.6133 112.579 20.84C112.366 21.0533 112.059 21.16 111.659 21.16C111.259 21.16 110.946 21.0533 110.719 20.84C110.506 20.6133 110.399 20.2933 110.399 19.88V15.16C110.399 14.4 110.253 13.8467 109.959 13.5C109.679 13.1533 109.239 12.98 108.639 12.98C107.906 12.98 107.319 13.2133 106.879 13.68C106.453 14.1333 106.239 14.74 106.239 15.5V19.88C106.239 20.7333 105.819 21.16 104.979 21.16ZM120.259 21.2C119.152 21.2 118.199 20.9933 117.399 20.58C116.599 20.1667 115.979 19.58 115.539 18.82C115.112 18.06 114.899 17.16 114.899 16.12C114.899 15.1067 115.105 14.22 115.519 13.46C115.945 12.7 116.525 12.1067 117.259 11.68C118.005 11.24 118.852 11.02 119.799 11.02C120.492 11.02 121.112 11.1333 121.659 11.36C122.219 11.5867 122.692 11.9133 123.079 12.34C123.479 12.7667 123.779 13.2867 123.979 13.9C124.192 14.5 124.299 15.18 124.299 15.94C124.299 16.18 124.212 16.3667 124.039 16.5C123.879 16.62 123.645 16.68 123.339 16.68H116.919V15.24H122.539L122.219 15.54C122.219 14.9267 122.125 14.4133 121.939 14C121.765 13.5867 121.505 13.2733 121.159 13.06C120.825 12.8333 120.405 12.72 119.899 12.72C119.339 12.72 118.859 12.8533 118.459 13.12C118.072 13.3733 117.772 13.74 117.559 14.22C117.359 14.6867 117.259 15.2467 117.259 15.9V16.04C117.259 17.1333 117.512 17.9533 118.019 18.5C118.539 19.0333 119.299 19.3 120.299 19.3C120.645 19.3 121.032 19.26 121.459 19.18C121.899 19.0867 122.312 18.9333 122.699 18.72C122.979 18.56 123.225 18.4933 123.439 18.52C123.652 18.5333 123.819 18.6067 123.939 18.74C124.072 18.8733 124.152 19.04 124.179 19.24C124.205 19.4267 124.165 19.62 124.059 19.82C123.965 20.02 123.799 20.1933 123.559 20.34C123.092 20.6333 122.552 20.8533 121.939 21C121.339 21.1333 120.779 21.2 120.259 21.2ZM136.188 21.2C135.322 21.2 134.595 21.0533 134.008 20.76C133.435 20.4667 133.008 20.04 132.728 19.48C132.448 18.9067 132.308 18.2 132.308 17.36V13.1H131.268C130.948 13.1 130.702 13.02 130.528 12.86C130.355 12.6867 130.268 12.4533 130.268 12.16C130.268 11.8533 130.355 11.62 130.528 11.46C130.702 11.3 130.948 11.22 131.268 11.22H132.308V9.4C132.308 8.98667 132.415 8.67333 132.628 8.46C132.855 8.24667 133.168 8.14 133.568 8.14C133.968 8.14 134.275 8.24667 134.488 8.46C134.702 8.67333 134.808 8.98667 134.808 9.4V11.22H136.928C137.248 11.22 137.495 11.3 137.668 11.46C137.842 11.62 137.928 11.8533 137.928 12.16C137.928 12.4533 137.842 12.6867 137.668 12.86C137.495 13.02 137.248 13.1 136.928 13.1H134.808V17.22C134.808 17.86 134.948 18.34 135.228 18.66C135.508 18.98 135.962 19.14 136.588 19.14C136.815 19.14 137.015 19.12 137.188 19.08C137.362 19.04 137.515 19.0133 137.648 19C137.808 18.9867 137.942 19.04 138.048 19.16C138.155 19.2667 138.208 19.4933 138.208 19.84C138.208 20.1067 138.162 20.3467 138.068 20.56C137.988 20.76 137.835 20.9 137.608 20.98C137.435 21.0333 137.208 21.08 136.928 21.12C136.648 21.1733 136.402 21.2 136.188 21.2ZM143.32 21.16C142.987 21.16 142.7 21.08 142.46 20.92C142.22 20.7467 142.027 20.48 141.88 20.12L138.98 12.72C138.86 12.4 138.82 12.12 138.86 11.88C138.914 11.6267 139.04 11.4267 139.24 11.28C139.44 11.1333 139.707 11.06 140.04 11.06C140.334 11.06 140.574 11.1333 140.76 11.28C140.947 11.4133 141.107 11.6733 141.24 12.06L143.66 18.72H143.2L145.7 11.9C145.807 11.6067 145.947 11.3933 146.12 11.26C146.307 11.1267 146.547 11.06 146.84 11.06C147.134 11.06 147.374 11.1333 147.56 11.28C147.747 11.4133 147.887 11.62 147.98 11.9L150.44 18.72H150.02L152.46 12C152.594 11.64 152.76 11.3933 152.96 11.26C153.174 11.1267 153.407 11.06 153.66 11.06C153.98 11.06 154.227 11.14 154.4 11.3C154.574 11.46 154.674 11.6667 154.7 11.92C154.727 12.16 154.68 12.4267 154.56 12.72L151.68 20.12C151.547 20.4667 151.354 20.7267 151.1 20.9C150.86 21.0733 150.574 21.16 150.24 21.16C149.907 21.16 149.614 21.0733 149.36 20.9C149.12 20.7267 148.934 20.4667 148.8 20.12L146.18 13.18H147.32L144.76 20.1C144.627 20.46 144.44 20.7267 144.2 20.9C143.96 21.0733 143.667 21.16 143.32 21.16ZM160.856 21.2C159.842 21.2 158.962 20.9933 158.216 20.58C157.469 20.1667 156.889 19.58 156.476 18.82C156.062 18.0467 155.856 17.14 155.856 16.1C155.856 15.3133 155.969 14.6133 156.196 14C156.436 13.3733 156.776 12.84 157.216 12.4C157.656 11.9467 158.182 11.6067 158.796 11.38C159.409 11.14 160.096 11.02 160.856 11.02C161.869 11.02 162.749 11.2267 163.496 11.64C164.242 12.0533 164.822 12.64 165.236 13.4C165.649 14.16 165.856 15.06 165.856 16.1C165.856 16.8867 165.736 17.5933 165.496 18.22C165.269 18.8467 164.936 19.3867 164.496 19.84C164.056 20.28 163.529 20.62 162.916 20.86C162.302 21.0867 161.616 21.2 160.856 21.2ZM160.856 19.3C161.349 19.3 161.782 19.18 162.156 18.94C162.529 18.7 162.816 18.3467 163.016 17.88C163.229 17.4 163.336 16.8067 163.336 16.1C163.336 15.0333 163.109 14.24 162.656 13.72C162.202 13.1867 161.602 12.92 160.856 12.92C160.362 12.92 159.929 13.04 159.556 13.28C159.182 13.5067 158.889 13.86 158.676 14.34C158.476 14.8067 158.376 15.3933 158.376 16.1C158.376 17.1533 158.602 17.9533 159.056 18.5C159.509 19.0333 160.109 19.3 160.856 19.3ZM174.589 21.16C174.189 21.16 173.882 21.0533 173.669 20.84C173.455 20.6133 173.349 20.2933 173.349 19.88V12.32C173.349 11.9067 173.455 11.5933 173.669 11.38C173.882 11.1667 174.182 11.06 174.569 11.06C174.955 11.06 175.255 11.1667 175.469 11.38C175.682 11.5933 175.789 11.9067 175.789 12.32V13.68L175.569 13.18C175.862 12.4733 176.315 11.94 176.929 11.58C177.555 11.2067 178.262 11.02 179.049 11.02C179.835 11.02 180.482 11.1667 180.989 11.46C181.495 11.7533 181.875 12.2 182.129 12.8C182.382 13.3867 182.509 14.1333 182.509 15.04V19.88C182.509 20.2933 182.402 20.6133 182.189 20.84C181.975 21.0533 181.669 21.16 181.269 21.16C180.869 21.16 180.555 21.0533 180.329 20.84C180.115 20.6133 180.009 20.2933 180.009 19.88V15.16C180.009 14.4 179.862 13.8467 179.569 13.5C179.289 13.1533 178.849 12.98 178.249 12.98C177.515 12.98 176.929 13.2133 176.489 13.68C176.062 14.1333 175.849 14.74 175.849 15.5V19.88C175.849 20.7333 175.429 21.16 174.589 21.16ZM188.588 21.2C187.775 21.2 187.101 21.0533 186.568 20.76C186.035 20.4533 185.635 20 185.368 19.4C185.115 18.8 184.988 18.0533 184.988 17.16V12.32C184.988 11.8933 185.095 11.58 185.308 11.38C185.521 11.1667 185.828 11.06 186.228 11.06C186.628 11.06 186.935 11.1667 187.148 11.38C187.375 11.58 187.488 11.8933 187.488 12.32V17.2C187.488 17.8933 187.628 18.4067 187.908 18.74C188.188 19.0733 188.635 19.24 189.248 19.24C189.915 19.24 190.461 19.0133 190.888 18.56C191.315 18.0933 191.528 17.48 191.528 16.72V12.32C191.528 11.8933 191.635 11.58 191.848 11.38C192.061 11.1667 192.368 11.06 192.768 11.06C193.168 11.06 193.475 11.1667 193.688 11.38C193.915 11.58 194.028 11.8933 194.028 12.32V19.88C194.028 20.7333 193.621 21.16 192.808 21.16C192.421 21.16 192.121 21.0533 191.908 20.84C191.695 20.6133 191.588 20.2933 191.588 19.88V18.36L191.868 18.96C191.588 19.68 191.161 20.2333 190.588 20.62C190.028 21.0067 189.361 21.2 188.588 21.2ZM197.91 21.16C197.51 21.16 197.203 21.0533 196.99 20.84C196.777 20.6133 196.67 20.2933 196.67 19.88V12.32C196.67 11.9067 196.777 11.5933 196.99 11.38C197.203 11.1667 197.503 11.06 197.89 11.06C198.277 11.06 198.577 11.1667 198.79 11.38C199.003 11.5933 199.11 11.9067 199.11 12.32V13.78L198.89 13.18C199.157 12.5133 199.57 11.9867 200.13 11.6C200.69 11.2133 201.357 11.02 202.13 11.02C202.917 11.02 203.563 11.2067 204.07 11.58C204.577 11.9533 204.93 12.5267 205.13 13.3H204.85C205.117 12.5933 205.557 12.04 206.17 11.64C206.783 11.2267 207.49 11.02 208.29 11.02C209.037 11.02 209.65 11.1667 210.13 11.46C210.623 11.7533 210.99 12.2 211.23 12.8C211.47 13.3867 211.59 14.1333 211.59 15.04V19.88C211.59 20.2933 211.477 20.6133 211.25 20.84C211.037 21.0533 210.73 21.16 210.33 21.16C209.93 21.16 209.623 21.0533 209.41 20.84C209.197 20.6133 209.09 20.2933 209.09 19.88V15.14C209.09 14.3933 208.963 13.8467 208.71 13.5C208.47 13.1533 208.057 12.98 207.47 12.98C206.817 12.98 206.303 13.2133 205.93 13.68C205.557 14.1333 205.37 14.7667 205.37 15.58V19.88C205.37 20.2933 205.263 20.6133 205.05 20.84C204.837 21.0533 204.53 21.16 204.13 21.16C203.73 21.16 203.417 21.0533 203.19 20.84C202.977 20.6133 202.87 20.2933 202.87 19.88V15.14C202.87 14.3933 202.743 13.8467 202.49 13.5C202.25 13.1533 201.843 12.98 201.27 12.98C200.617 12.98 200.103 13.2133 199.73 13.68C199.357 14.1333 199.17 14.7667 199.17 15.58V19.88C199.17 20.7333 198.75 21.16 197.91 21.16ZM219.809 21.2C218.982 21.2 218.256 20.9933 217.629 20.58C217.016 20.1667 216.609 19.6133 216.409 18.92L216.629 18.42V19.88C216.629 20.2933 216.522 20.6133 216.309 20.84C216.096 21.0533 215.796 21.16 215.409 21.16C215.009 21.16 214.702 21.0533 214.489 20.84C214.276 20.6133 214.169 20.2933 214.169 19.88V8C214.169 7.58667 214.276 7.27333 214.489 7.06C214.702 6.84667 215.009 6.74 215.409 6.74C215.809 6.74 216.116 6.84667 216.329 7.06C216.556 7.27333 216.669 7.58667 216.669 8V13.2H216.429C216.642 12.5467 217.056 12.02 217.669 11.62C218.282 11.22 218.996 11.02 219.809 11.02C220.676 11.02 221.429 11.2267 222.069 11.64C222.709 12.0533 223.209 12.64 223.569 13.4C223.929 14.1467 224.109 15.0467 224.109 16.1C224.109 17.14 223.929 18.0467 223.569 18.82C223.209 19.58 222.702 20.1667 222.049 20.58C221.409 20.9933 220.662 21.2 219.809 21.2ZM219.109 19.3C219.602 19.3 220.036 19.18 220.409 18.94C220.782 18.7 221.069 18.3467 221.269 17.88C221.482 17.4 221.589 16.8067 221.589 16.1C221.589 15.0333 221.362 14.24 220.909 13.72C220.456 13.1867 219.856 12.92 219.109 12.92C218.616 12.92 218.182 13.04 217.809 13.28C217.436 13.5067 217.142 13.86 216.929 14.34C216.729 14.8067 216.629 15.3933 216.629 16.1C216.629 17.1533 216.856 17.9533 217.309 18.5C217.762 19.0333 218.362 19.3 219.109 19.3ZM230.981 21.2C229.875 21.2 228.921 20.9933 228.121 20.58C227.321 20.1667 226.701 19.58 226.261 18.82C225.835 18.06 225.621 17.16 225.621 16.12C225.621 15.1067 225.828 14.22 226.241 13.46C226.668 12.7 227.248 12.1067 227.981 11.68C228.728 11.24 229.575 11.02 230.521 11.02C231.215 11.02 231.835 11.1333 232.381 11.36C232.941 11.5867 233.415 11.9133 233.801 12.34C234.201 12.7667 234.501 13.2867 234.701 13.9C234.915 14.5 235.021 15.18 235.021 15.94C235.021 16.18 234.935 16.3667 234.761 16.5C234.601 16.62 234.368 16.68 234.061 16.68H227.641V15.24H233.261L232.941 15.54C232.941 14.9267 232.848 14.4133 232.661 14C232.488 13.5867 232.228 13.2733 231.881 13.06C231.548 12.8333 231.128 12.72 230.621 12.72C230.061 12.72 229.581 12.8533 229.181 13.12C228.795 13.3733 228.495 13.74 228.281 14.22C228.081 14.6867 227.981 15.2467 227.981 15.9V16.04C227.981 17.1333 228.235 17.9533 228.741 18.5C229.261 19.0333 230.021 19.3 231.021 19.3C231.368 19.3 231.755 19.26 232.181 19.18C232.621 19.0867 233.035 18.9333 233.421 18.72C233.701 18.56 233.948 18.4933 234.161 18.52C234.375 18.5333 234.541 18.6067 234.661 18.74C234.795 18.8733 234.875 19.04 234.901 19.24C234.928 19.4267 234.888 19.62 234.781 19.82C234.688 20.02 234.521 20.1933 234.281 20.34C233.815 20.6333 233.275 20.8533 232.661 21C232.061 21.1333 231.501 21.2 230.981 21.2ZM238.281 21.16C237.868 21.16 237.548 21.0533 237.321 20.84C237.108 20.6133 237.001 20.2933 237.001 19.88V12.32C237.001 11.9067 237.108 11.5933 237.321 11.38C237.535 11.1667 237.835 11.06 238.221 11.06C238.608 11.06 238.908 11.1667 239.121 11.38C239.335 11.5933 239.441 11.9067 239.441 12.32V13.58H239.241C239.428 12.78 239.795 12.1733 240.341 11.76C240.888 11.3467 241.615 11.1 242.521 11.02C242.801 10.9933 243.021 11.0667 243.181 11.24C243.355 11.4 243.455 11.6533 243.481 12C243.508 12.3333 243.428 12.6067 243.241 12.82C243.068 13.02 242.801 13.14 242.441 13.18L242.001 13.22C241.188 13.3 240.575 13.5533 240.161 13.98C239.748 14.3933 239.541 14.98 239.541 15.74V19.88C239.541 20.2933 239.435 20.6133 239.221 20.84C239.008 21.0533 238.695 21.16 238.281 21.16ZM248.316 21.2C247.742 21.2 247.136 21.14 246.496 21.02C245.856 20.9 245.282 20.6933 244.776 20.4C244.562 20.2667 244.409 20.1133 244.316 19.94C244.236 19.7533 244.202 19.5733 244.216 19.4C244.242 19.2133 244.309 19.0533 244.416 18.92C244.536 18.7867 244.682 18.7 244.856 18.66C245.042 18.62 245.242 18.6533 245.456 18.76C245.989 19.0133 246.489 19.1933 246.956 19.3C247.422 19.3933 247.882 19.44 248.336 19.44C248.976 19.44 249.449 19.3333 249.756 19.12C250.076 18.8933 250.236 18.6 250.236 18.24C250.236 17.9333 250.129 17.7 249.916 17.54C249.716 17.3667 249.409 17.24 248.996 17.16L246.996 16.78C246.169 16.62 245.536 16.32 245.096 15.88C244.669 15.4267 244.456 14.8467 244.456 14.14C244.456 13.5 244.629 12.9467 244.976 12.48C245.336 12.0133 245.829 11.6533 246.456 11.4C247.082 11.1467 247.802 11.02 248.616 11.02C249.202 11.02 249.749 11.0867 250.256 11.22C250.776 11.34 251.276 11.5333 251.756 11.8C251.956 11.9067 252.089 12.0467 252.156 12.22C252.236 12.3933 252.256 12.5733 252.216 12.76C252.176 12.9333 252.096 13.0933 251.976 13.24C251.856 13.3733 251.702 13.46 251.516 13.5C251.342 13.5267 251.142 13.4867 250.916 13.38C250.502 13.1667 250.102 13.0133 249.716 12.92C249.342 12.8267 248.982 12.78 248.636 12.78C247.982 12.78 247.496 12.8933 247.176 13.12C246.869 13.3467 246.716 13.6467 246.716 14.02C246.716 14.3 246.809 14.5333 246.996 14.72C247.182 14.9067 247.469 15.0333 247.856 15.1L249.856 15.48C250.722 15.64 251.376 15.9333 251.816 16.36C252.269 16.7867 252.496 17.36 252.496 18.08C252.496 19.0533 252.116 19.82 251.356 20.38C250.596 20.9267 249.582 21.2 248.316 21.2ZM264.391 21.2C263.378 21.2 262.498 20.9933 261.751 20.58C261.004 20.1667 260.424 19.58 260.011 18.82C259.598 18.0467 259.391 17.14 259.391 16.1C259.391 15.3133 259.504 14.6133 259.731 14C259.971 13.3733 260.311 12.84 260.751 12.4C261.191 11.9467 261.718 11.6067 262.331 11.38C262.944 11.14 263.631 11.02 264.391 11.02C265.404 11.02 266.284 11.2267 267.031 11.64C267.778 12.0533 268.358 12.64 268.771 13.4C269.184 14.16 269.391 15.06 269.391 16.1C269.391 16.8867 269.271 17.5933 269.031 18.22C268.804 18.8467 268.471 19.3867 268.031 19.84C267.591 20.28 267.064 20.62 266.451 20.86C265.838 21.0867 265.151 21.2 264.391 21.2ZM264.391 19.3C264.884 19.3 265.318 19.18 265.691 18.94C266.064 18.7 266.351 18.3467 266.551 17.88C266.764 17.4 266.871 16.8067 266.871 16.1C266.871 15.0333 266.644 14.24 266.191 13.72C265.738 13.1867 265.138 12.92 264.391 12.92C263.898 12.92 263.464 13.04 263.091 13.28C262.718 13.5067 262.424 13.86 262.211 14.34C262.011 14.8067 261.911 15.3933 261.911 16.1C261.911 17.1533 262.138 17.9533 262.591 18.5C263.044 19.0333 263.644 19.3 264.391 19.3ZM272.694 21.16C272.294 21.16 271.988 21.0533 271.774 20.84C271.561 20.6133 271.454 20.2933 271.454 19.88V12.32C271.454 11.9067 271.561 11.5933 271.774 11.38C271.988 11.1667 272.288 11.06 272.674 11.06C273.061 11.06 273.361 11.1667 273.574 11.38C273.788 11.5933 273.894 11.9067 273.894 12.32V13.68L273.674 13.18C273.968 12.4733 274.421 11.94 275.034 11.58C275.661 11.2067 276.368 11.02 277.154 11.02C277.941 11.02 278.588 11.1667 279.094 11.46C279.601 11.7533 279.981 12.2 280.234 12.8C280.488 13.3867 280.614 14.1333 280.614 15.04V19.88C280.614 20.2933 280.508 20.6133 280.294 20.84C280.081 21.0533 279.774 21.16 279.374 21.16C278.974 21.16 278.661 21.0533 278.434 20.84C278.221 20.6133 278.114 20.2933 278.114 19.88V15.16C278.114 14.4 277.968 13.8467 277.674 13.5C277.394 13.1533 276.954 12.98 276.354 12.98C275.621 12.98 275.034 13.2133 274.594 13.68C274.168 14.1333 273.954 14.74 273.954 15.5V19.88C273.954 20.7333 273.534 21.16 272.694 21.16ZM293.063 21.2C292.197 21.2 291.47 21.0533 290.883 20.76C290.31 20.4667 289.883 20.04 289.603 19.48C289.323 18.9067 289.183 18.2 289.183 17.36V13.1H288.143C287.823 13.1 287.577 13.02 287.403 12.86C287.23 12.6867 287.143 12.4533 287.143 12.16C287.143 11.8533 287.23 11.62 287.403 11.46C287.577 11.3 287.823 11.22 288.143 11.22H289.183V9.4C289.183 8.98667 289.29 8.67333 289.503 8.46C289.73 8.24667 290.043 8.14 290.443 8.14C290.843 8.14 291.15 8.24667 291.363 8.46C291.577 8.67333 291.683 8.98667 291.683 9.4V11.22H293.803C294.123 11.22 294.37 11.3 294.543 11.46C294.717 11.62 294.803 11.8533 294.803 12.16C294.803 12.4533 294.717 12.6867 294.543 12.86C294.37 13.02 294.123 13.1 293.803 13.1H291.683V17.22C291.683 17.86 291.823 18.34 292.103 18.66C292.383 18.98 292.837 19.14 293.463 19.14C293.69 19.14 293.89 19.12 294.063 19.08C294.237 19.04 294.39 19.0133 294.523 19C294.683 18.9867 294.817 19.04 294.923 19.16C295.03 19.2667 295.083 19.4933 295.083 19.84C295.083 20.1067 295.037 20.3467 294.943 20.56C294.863 20.76 294.71 20.9 294.483 20.98C294.31 21.0333 294.083 21.08 293.803 21.12C293.523 21.1733 293.277 21.2 293.063 21.2ZM300.981 21.2C299.875 21.2 298.921 20.9933 298.121 20.58C297.321 20.1667 296.701 19.58 296.261 18.82C295.835 18.06 295.621 17.16 295.621 16.12C295.621 15.1067 295.828 14.22 296.241 13.46C296.668 12.7 297.248 12.1067 297.981 11.68C298.728 11.24 299.575 11.02 300.521 11.02C301.215 11.02 301.835 11.1333 302.381 11.36C302.941 11.5867 303.415 11.9133 303.801 12.34C304.201 12.7667 304.501 13.2867 304.701 13.9C304.915 14.5 305.021 15.18 305.021 15.94C305.021 16.18 304.935 16.3667 304.761 16.5C304.601 16.62 304.368 16.68 304.061 16.68H297.641V15.24H303.261L302.941 15.54C302.941 14.9267 302.848 14.4133 302.661 14C302.488 13.5867 302.228 13.2733 301.881 13.06C301.548 12.8333 301.128 12.72 300.621 12.72C300.061 12.72 299.581 12.8533 299.181 13.12C298.795 13.3733 298.495 13.74 298.281 14.22C298.081 14.6867 297.981 15.2467 297.981 15.9V16.04C297.981 17.1333 298.235 17.9533 298.741 18.5C299.261 19.0333 300.021 19.3 301.021 19.3C301.368 19.3 301.755 19.26 302.181 19.18C302.621 19.0867 303.035 18.9333 303.421 18.72C303.701 18.56 303.948 18.4933 304.161 18.52C304.375 18.5333 304.541 18.6067 304.661 18.74C304.795 18.8733 304.875 19.04 304.901 19.24C304.928 19.4267 304.888 19.62 304.781 19.82C304.688 20.02 304.521 20.1933 304.281 20.34C303.815 20.6333 303.275 20.8533 302.661 21C302.061 21.1333 301.501 21.2 300.981 21.2ZM308.241 21.16C307.841 21.16 307.535 21.0533 307.321 20.84C307.108 20.6133 307.001 20.2933 307.001 19.88V12.32C307.001 11.9067 307.108 11.5933 307.321 11.38C307.535 11.1667 307.835 11.06 308.221 11.06C308.608 11.06 308.908 11.1667 309.121 11.38C309.335 11.5933 309.441 11.9067 309.441 12.32V13.68L309.221 13.18C309.515 12.4733 309.968 11.94 310.581 11.58C311.208 11.2067 311.915 11.02 312.701 11.02C313.488 11.02 314.135 11.1667 314.641 11.46C315.148 11.7533 315.528 12.2 315.781 12.8C316.035 13.3867 316.161 14.1333 316.161 15.04V19.88C316.161 20.2933 316.055 20.6133 315.841 20.84C315.628 21.0533 315.321 21.16 314.921 21.16C314.521 21.16 314.208 21.0533 313.981 20.84C313.768 20.6133 313.661 20.2933 313.661 19.88V15.16C313.661 14.4 313.515 13.8467 313.221 13.5C312.941 13.1533 312.501 12.98 311.901 12.98C311.168 12.98 310.581 13.2133 310.141 13.68C309.715 14.1333 309.501 14.74 309.501 15.5V19.88C309.501 20.7333 309.081 21.16 308.241 21.16ZM323.18 21.2C322.314 21.2 321.587 21.0533 321 20.76C320.427 20.4667 320 20.04 319.72 19.48C319.44 18.9067 319.3 18.2 319.3 17.36V13.1H318.26C317.94 13.1 317.694 13.02 317.52 12.86C317.347 12.6867 317.26 12.4533 317.26 12.16C317.26 11.8533 317.347 11.62 317.52 11.46C317.694 11.3 317.94 11.22 318.26 11.22H319.3V9.4C319.3 8.98667 319.407 8.67333 319.62 8.46C319.847 8.24667 320.16 8.14 320.56 8.14C320.96 8.14 321.267 8.24667 321.48 8.46C321.694 8.67333 321.8 8.98667 321.8 9.4V11.22H323.92C324.24 11.22 324.487 11.3 324.66 11.46C324.834 11.62 324.92 11.8533 324.92 12.16C324.92 12.4533 324.834 12.6867 324.66 12.86C324.487 13.02 324.24 13.1 323.92 13.1H321.8V17.22C321.8 17.86 321.94 18.34 322.22 18.66C322.5 18.98 322.954 19.14 323.58 19.14C323.807 19.14 324.007 19.12 324.18 19.08C324.354 19.04 324.507 19.0133 324.64 19C324.8 18.9867 324.934 19.04 325.04 19.16C325.147 19.2667 325.2 19.4933 325.2 19.84C325.2 20.1067 325.154 20.3467 325.06 20.56C324.98 20.76 324.827 20.9 324.6 20.98C324.427 21.0333 324.2 21.08 323.92 21.12C323.64 21.1733 323.394 21.2 323.18 21.2ZM327.87 21.16C327.47 21.16 327.163 21.0533 326.95 20.84C326.737 20.6133 326.63 20.2933 326.63 19.88V8C326.63 7.58667 326.737 7.27333 326.95 7.06C327.163 6.84667 327.47 6.74 327.87 6.74C328.27 6.74 328.577 6.84667 328.79 7.06C329.017 7.27333 329.13 7.58667 329.13 8V13.18H328.85C329.143 12.4733 329.597 11.94 330.21 11.58C330.837 11.2067 331.543 11.02 332.33 11.02C333.117 11.02 333.763 11.1667 334.27 11.46C334.777 11.7533 335.157 12.2 335.41 12.8C335.663 13.3867 335.79 14.1333 335.79 15.04V19.88C335.79 20.2933 335.683 20.6133 335.47 20.84C335.257 21.0533 334.95 21.16 334.55 21.16C334.15 21.16 333.837 21.0533 333.61 20.84C333.397 20.6133 333.29 20.2933 333.29 19.88V15.16C333.29 14.4 333.143 13.8467 332.85 13.5C332.57 13.1533 332.13 12.98 331.53 12.98C330.797 12.98 330.21 13.2133 329.77 13.68C329.343 14.1333 329.13 14.74 329.13 15.5V19.88C329.13 20.7333 328.71 21.16 327.87 21.16ZM341.909 21.2C341.336 21.2 340.729 21.14 340.089 21.02C339.449 20.9 338.876 20.6933 338.369 20.4C338.156 20.2667 338.003 20.1133 337.909 19.94C337.829 19.7533 337.796 19.5733 337.809 19.4C337.836 19.2133 337.903 19.0533 338.009 18.92C338.129 18.7867 338.276 18.7 338.449 18.66C338.636 18.62 338.836 18.6533 339.049 18.76C339.583 19.0133 340.083 19.1933 340.549 19.3C341.016 19.3933 341.476 19.44 341.929 19.44C342.569 19.44 343.043 19.3333 343.349 19.12C343.669 18.8933 343.829 18.6 343.829 18.24C343.829 17.9333 343.723 17.7 343.509 17.54C343.309 17.3667 343.003 17.24 342.589 17.16L340.589 16.78C339.763 16.62 339.129 16.32 338.689 15.88C338.263 15.4267 338.049 14.8467 338.049 14.14C338.049 13.5 338.223 12.9467 338.569 12.48C338.929 12.0133 339.423 11.6533 340.049 11.4C340.676 11.1467 341.396 11.02 342.209 11.02C342.796 11.02 343.343 11.0867 343.849 11.22C344.369 11.34 344.869 11.5333 345.349 11.8C345.549 11.9067 345.683 12.0467 345.749 12.22C345.829 12.3933 345.849 12.5733 345.809 12.76C345.769 12.9333 345.689 13.0933 345.569 13.24C345.449 13.3733 345.296 13.46 345.109 13.5C344.936 13.5267 344.736 13.4867 344.509 13.38C344.096 13.1667 343.696 13.0133 343.309 12.92C342.936 12.8267 342.576 12.78 342.229 12.78C341.576 12.78 341.089 12.8933 340.769 13.12C340.463 13.3467 340.309 13.6467 340.309 14.02C340.309 14.3 340.403 14.5333 340.589 14.72C340.776 14.9067 341.063 15.0333 341.449 15.1L343.449 15.48C344.316 15.64 344.969 15.9333 345.409 16.36C345.863 16.7867 346.089 17.36 346.089 18.08C346.089 19.0533 345.709 19.82 344.949 20.38C344.189 20.9267 343.176 21.2 341.909 21.2ZM354.765 21.16C354.365 21.16 354.058 21.0533 353.845 20.84C353.631 20.6133 353.525 20.2933 353.525 19.88V12.32C353.525 11.9067 353.631 11.5933 353.845 11.38C354.058 11.1667 354.358 11.06 354.745 11.06C355.131 11.06 355.431 11.1667 355.645 11.38C355.858 11.5933 355.965 11.9067 355.965 12.32V13.68L355.745 13.18C356.038 12.4733 356.491 11.94 357.105 11.58C357.731 11.2067 358.438 11.02 359.225 11.02C360.011 11.02 360.658 11.1667 361.165 11.46C361.671 11.7533 362.051 12.2 362.305 12.8C362.558 13.3867 362.685 14.1333 362.685 15.04V19.88C362.685 20.2933 362.578 20.6133 362.365 20.84C362.151 21.0533 361.845 21.16 361.445 21.16C361.045 21.16 360.731 21.0533 360.505 20.84C360.291 20.6133 360.185 20.2933 360.185 19.88V15.16C360.185 14.4 360.038 13.8467 359.745 13.5C359.465 13.1533 359.025 12.98 358.425 12.98C357.691 12.98 357.105 13.2133 356.665 13.68C356.238 14.1333 356.025 14.74 356.025 15.5V19.88C356.025 20.7333 355.605 21.16 354.765 21.16ZM368.764 21.2C367.95 21.2 367.277 21.0533 366.744 20.76C366.21 20.4533 365.81 20 365.544 19.4C365.29 18.8 365.164 18.0533 365.164 17.16V12.32C365.164 11.8933 365.27 11.58 365.484 11.38C365.697 11.1667 366.004 11.06 366.404 11.06C366.804 11.06 367.11 11.1667 367.324 11.38C367.55 11.58 367.664 11.8933 367.664 12.32V17.2C367.664 17.8933 367.804 18.4067 368.084 18.74C368.364 19.0733 368.81 19.24 369.424 19.24C370.09 19.24 370.637 19.0133 371.064 18.56C371.49 18.0933 371.704 17.48 371.704 16.72V12.32C371.704 11.8933 371.81 11.58 372.024 11.38C372.237 11.1667 372.544 11.06 372.944 11.06C373.344 11.06 373.65 11.1667 373.864 11.38C374.09 11.58 374.204 11.8933 374.204 12.32V19.88C374.204 20.7333 373.797 21.16 372.984 21.16C372.597 21.16 372.297 21.0533 372.084 20.84C371.87 20.6133 371.764 20.2933 371.764 19.88V18.36L372.044 18.96C371.764 19.68 371.337 20.2333 370.764 20.62C370.204 21.0067 369.537 21.2 368.764 21.2ZM378.086 21.16C377.686 21.16 377.379 21.0533 377.166 20.84C376.953 20.6133 376.846 20.2933 376.846 19.88V12.32C376.846 11.9067 376.953 11.5933 377.166 11.38C377.379 11.1667 377.679 11.06 378.066 11.06C378.453 11.06 378.753 11.1667 378.966 11.38C379.179 11.5933 379.286 11.9067 379.286 12.32V13.78L379.066 13.18C379.333 12.5133 379.746 11.9867 380.306 11.6C380.866 11.2133 381.533 11.02 382.306 11.02C383.093 11.02 383.739 11.2067 384.246 11.58C384.753 11.9533 385.106 12.5267 385.306 13.3H385.026C385.293 12.5933 385.733 12.04 386.346 11.64C386.959 11.2267 387.666 11.02 388.466 11.02C389.213 11.02 389.826 11.1667 390.306 11.46C390.799 11.7533 391.166 12.2 391.406 12.8C391.646 13.3867 391.766 14.1333 391.766 15.04V19.88C391.766 20.2933 391.653 20.6133 391.426 20.84C391.213 21.0533 390.906 21.16 390.506 21.16C390.106 21.16 389.799 21.0533 389.586 20.84C389.373 20.6133 389.266 20.2933 389.266 19.88V15.14C389.266 14.3933 389.139 13.8467 388.886 13.5C388.646 13.1533 388.233 12.98 387.646 12.98C386.993 12.98 386.479 13.2133 386.106 13.68C385.733 14.1333 385.546 14.7667 385.546 15.58V19.88C385.546 20.2933 385.439 20.6133 385.226 20.84C385.013 21.0533 384.706 21.16 384.306 21.16C383.906 21.16 383.593 21.0533 383.366 20.84C383.153 20.6133 383.046 20.2933 383.046 19.88V15.14C383.046 14.3933 382.919 13.8467 382.666 13.5C382.426 13.1533 382.019 12.98 381.446 12.98C380.793 12.98 380.279 13.2133 379.906 13.68C379.533 14.1333 379.346 14.7667 379.346 15.58V19.88C379.346 20.7333 378.926 21.16 378.086 21.16ZM399.985 21.2C399.158 21.2 398.432 20.9933 397.805 20.58C397.192 20.1667 396.785 19.6133 396.585 18.92L396.805 18.42V19.88C396.805 20.2933 396.698 20.6133 396.485 20.84C396.272 21.0533 395.972 21.16 395.585 21.16C395.185 21.16 394.878 21.0533 394.665 20.84C394.452 20.6133 394.345 20.2933 394.345 19.88V8C394.345 7.58667 394.452 7.27333 394.665 7.06C394.878 6.84667 395.185 6.74 395.585 6.74C395.985 6.74 396.292 6.84667 396.505 7.06C396.732 7.27333 396.845 7.58667 396.845 8V13.2H396.605C396.818 12.5467 397.232 12.02 397.845 11.62C398.458 11.22 399.172 11.02 399.985 11.02C400.852 11.02 401.605 11.2267 402.245 11.64C402.885 12.0533 403.385 12.64 403.745 13.4C404.105 14.1467 404.285 15.0467 404.285 16.1C404.285 17.14 404.105 18.0467 403.745 18.82C403.385 19.58 402.878 20.1667 402.225 20.58C401.585 20.9933 400.838 21.2 399.985 21.2ZM399.285 19.3C399.778 19.3 400.212 19.18 400.585 18.94C400.958 18.7 401.245 18.3467 401.445 17.88C401.658 17.4 401.765 16.8067 401.765 16.1C401.765 15.0333 401.538 14.24 401.085 13.72C400.632 13.1867 400.032 12.92 399.285 12.92C398.792 12.92 398.358 13.04 397.985 13.28C397.612 13.5067 397.318 13.86 397.105 14.34C396.905 14.8067 396.805 15.3933 396.805 16.1C396.805 17.1533 397.032 17.9533 397.485 18.5C397.938 19.0333 398.538 19.3 399.285 19.3ZM411.157 21.2C410.05 21.2 409.097 20.9933 408.297 20.58C407.497 20.1667 406.877 19.58 406.437 18.82C406.01 18.06 405.797 17.16 405.797 16.12C405.797 15.1067 406.004 14.22 406.417 13.46C406.844 12.7 407.424 12.1067 408.157 11.68C408.904 11.24 409.75 11.02 410.697 11.02C411.39 11.02 412.01 11.1333 412.557 11.36C413.117 11.5867 413.59 11.9133 413.977 12.34C414.377 12.7667 414.677 13.2867 414.877 13.9C415.09 14.5 415.197 15.18 415.197 15.94C415.197 16.18 415.11 16.3667 414.937 16.5C414.777 16.62 414.544 16.68 414.237 16.68H407.817V15.24H413.437L413.117 15.54C413.117 14.9267 413.024 14.4133 412.837 14C412.664 13.5867 412.404 13.2733 412.057 13.06C411.724 12.8333 411.304 12.72 410.797 12.72C410.237 12.72 409.757 12.8533 409.357 13.12C408.97 13.3733 408.67 13.74 408.457 14.22C408.257 14.6867 408.157 15.2467 408.157 15.9V16.04C408.157 17.1333 408.41 17.9533 408.917 18.5C409.437 19.0333 410.197 19.3 411.197 19.3C411.544 19.3 411.93 19.26 412.357 19.18C412.797 19.0867 413.21 18.9333 413.597 18.72C413.877 18.56 414.124 18.4933 414.337 18.52C414.55 18.5333 414.717 18.6067 414.837 18.74C414.97 18.8733 415.05 19.04 415.077 19.24C415.104 19.4267 415.064 19.62 414.957 19.82C414.864 20.02 414.697 20.1933 414.457 20.34C413.99 20.6333 413.45 20.8533 412.837 21C412.237 21.1333 411.677 21.2 411.157 21.2ZM418.457 21.16C418.044 21.16 417.724 21.0533 417.497 20.84C417.284 20.6133 417.177 20.2933 417.177 19.88V12.32C417.177 11.9067 417.284 11.5933 417.497 11.38C417.71 11.1667 418.01 11.06 418.397 11.06C418.784 11.06 419.084 11.1667 419.297 11.38C419.51 11.5933 419.617 11.9067 419.617 12.32V13.58H419.417C419.604 12.78 419.97 12.1733 420.517 11.76C421.064 11.3467 421.79 11.1 422.697 11.02C422.977 10.9933 423.197 11.0667 423.357 11.24C423.53 11.4 423.63 11.6533 423.657 12C423.684 12.3333 423.604 12.6067 423.417 12.82C423.244 13.02 422.977 13.14 422.617 13.18L422.177 13.22C421.364 13.3 420.75 13.5533 420.337 13.98C419.924 14.3933 419.717 14.98 419.717 15.74V19.88C419.717 20.2933 419.61 20.6133 419.397 20.84C419.184 21.0533 418.87 21.16 418.457 21.16ZM433.779 21.2C432.672 21.2 431.839 20.8867 431.279 20.26C430.719 19.62 430.439 18.6867 430.439 17.46V8C430.439 7.58667 430.545 7.27333 430.759 7.06C430.972 6.84667 431.279 6.74 431.679 6.74C432.079 6.74 432.385 6.84667 432.599 7.06C432.825 7.27333 432.939 7.58667 432.939 8V17.34C432.939 17.9533 433.065 18.4067 433.319 18.7C433.585 18.9933 433.959 19.14 434.439 19.14C434.545 19.14 434.645 19.14 434.739 19.14C434.832 19.1267 434.925 19.1133 435.019 19.1C435.205 19.0733 435.332 19.1267 435.399 19.26C435.465 19.38 435.499 19.6333 435.499 20.02C435.499 20.3533 435.432 20.6133 435.299 20.8C435.165 20.9867 434.945 21.1 434.639 21.14C434.505 21.1533 434.365 21.1667 434.219 21.18C434.072 21.1933 433.925 21.2 433.779 21.2ZM438.065 21.14C437.665 21.14 437.359 21.02 437.145 20.78C436.932 20.54 436.825 20.2067 436.825 19.78V12.44C436.825 12 436.932 11.6667 437.145 11.44C437.359 11.2 437.665 11.08 438.065 11.08C438.465 11.08 438.772 11.2 438.985 11.44C439.212 11.6667 439.325 12 439.325 12.44V19.78C439.325 20.2067 439.219 20.54 439.005 20.78C438.792 21.02 438.479 21.14 438.065 21.14ZM438.065 9.22C437.599 9.22 437.232 9.10667 436.965 8.88C436.712 8.64 436.585 8.31333 436.585 7.9C436.585 7.47333 436.712 7.14667 436.965 6.92C437.232 6.69333 437.599 6.58 438.065 6.58C438.545 6.58 438.912 6.69333 439.165 6.92C439.419 7.14667 439.545 7.47333 439.545 7.9C439.545 8.31333 439.419 8.64 439.165 8.88C438.912 9.10667 438.545 9.22 438.065 9.22ZM443.163 21.16C442.763 21.16 442.456 21.0533 442.243 20.84C442.03 20.6133 441.923 20.2933 441.923 19.88V12.32C441.923 11.9067 442.03 11.5933 442.243 11.38C442.456 11.1667 442.756 11.06 443.143 11.06C443.53 11.06 443.83 11.1667 444.043 11.38C444.256 11.5933 444.363 11.9067 444.363 12.32V13.68L444.143 13.18C444.436 12.4733 444.89 11.94 445.503 11.58C446.13 11.2067 446.836 11.02 447.623 11.02C448.41 11.02 449.056 11.1667 449.563 11.46C450.07 11.7533 450.45 12.2 450.703 12.8C450.956 13.3867 451.083 14.1333 451.083 15.04V19.88C451.083 20.2933 450.976 20.6133 450.763 20.84C450.55 21.0533 450.243 21.16 449.843 21.16C449.443 21.16 449.13 21.0533 448.903 20.84C448.69 20.6133 448.583 20.2933 448.583 19.88V15.16C448.583 14.4 448.436 13.8467 448.143 13.5C447.863 13.1533 447.423 12.98 446.823 12.98C446.09 12.98 445.503 13.2133 445.063 13.68C444.636 14.1333 444.423 14.74 444.423 15.5V19.88C444.423 20.7333 444.003 21.16 443.163 21.16ZM458.442 21.2C457.336 21.2 456.382 20.9933 455.582 20.58C454.782 20.1667 454.162 19.58 453.722 18.82C453.296 18.06 453.082 17.16 453.082 16.12C453.082 15.1067 453.289 14.22 453.702 13.46C454.129 12.7 454.709 12.1067 455.442 11.68C456.189 11.24 457.036 11.02 457.982 11.02C458.676 11.02 459.296 11.1333 459.842 11.36C460.402 11.5867 460.876 11.9133 461.262 12.34C461.662 12.7667 461.962 13.2867 462.162 13.9C462.376 14.5 462.482 15.18 462.482 15.94C462.482 16.18 462.396 16.3667 462.222 16.5C462.062 16.62 461.829 16.68 461.522 16.68H455.102V15.24H460.722L460.402 15.54C460.402 14.9267 460.309 14.4133 460.122 14C459.949 13.5867 459.689 13.2733 459.342 13.06C459.009 12.8333 458.589 12.72 458.082 12.72C457.522 12.72 457.042 12.8533 456.642 13.12C456.256 13.3733 455.956 13.74 455.742 14.22C455.542 14.6867 455.442 15.2467 455.442 15.9V16.04C455.442 17.1333 455.696 17.9533 456.202 18.5C456.722 19.0333 457.482 19.3 458.482 19.3C458.829 19.3 459.216 19.26 459.642 19.18C460.082 19.0867 460.496 18.9333 460.882 18.72C461.162 18.56 461.409 18.4933 461.622 18.52C461.836 18.5333 462.002 18.6067 462.122 18.74C462.256 18.8733 462.336 19.04 462.362 19.24C462.389 19.4267 462.349 19.62 462.242 19.82C462.149 20.02 461.982 20.1933 461.742 20.34C461.276 20.6333 460.736 20.8533 460.122 21C459.522 21.1333 458.962 21.2 458.442 21.2ZM474.372 21.2C473.505 21.2 472.778 21.0533 472.192 20.76C471.618 20.4667 471.192 20.04 470.912 19.48C470.632 18.9067 470.492 18.2 470.492 17.36V13.1H469.452C469.132 13.1 468.885 13.02 468.712 12.86C468.538 12.6867 468.452 12.4533 468.452 12.16C468.452 11.8533 468.538 11.62 468.712 11.46C468.885 11.3 469.132 11.22 469.452 11.22H470.492V9.4C470.492 8.98667 470.598 8.67333 470.812 8.46C471.038 8.24667 471.352 8.14 471.752 8.14C472.152 8.14 472.458 8.24667 472.672 8.46C472.885 8.67333 472.992 8.98667 472.992 9.4V11.22H475.112C475.432 11.22 475.678 11.3 475.852 11.46C476.025 11.62 476.112 11.8533 476.112 12.16C476.112 12.4533 476.025 12.6867 475.852 12.86C475.678 13.02 475.432 13.1 475.112 13.1H472.992V17.22C472.992 17.86 473.132 18.34 473.412 18.66C473.692 18.98 474.145 19.14 474.772 19.14C474.998 19.14 475.198 19.12 475.372 19.08C475.545 19.04 475.698 19.0133 475.832 19C475.992 18.9867 476.125 19.04 476.232 19.16C476.338 19.2667 476.392 19.4933 476.392 19.84C476.392 20.1067 476.345 20.3467 476.252 20.56C476.172 20.76 476.018 20.9 475.792 20.98C475.618 21.0333 475.392 21.08 475.112 21.12C474.832 21.1733 474.585 21.2 474.372 21.2ZM479.061 21.16C478.661 21.16 478.355 21.0533 478.141 20.84C477.928 20.6133 477.821 20.2933 477.821 19.88V8C477.821 7.58667 477.928 7.27333 478.141 7.06C478.355 6.84667 478.661 6.74 479.061 6.74C479.461 6.74 479.768 6.84667 479.981 7.06C480.208 7.27333 480.321 7.58667 480.321 8V13.18H480.041C480.335 12.4733 480.788 11.94 481.401 11.58C482.028 11.2067 482.735 11.02 483.521 11.02C484.308 11.02 484.955 11.1667 485.461 11.46C485.968 11.7533 486.348 12.2 486.601 12.8C486.855 13.3867 486.981 14.1333 486.981 15.04V19.88C486.981 20.2933 486.875 20.6133 486.661 20.84C486.448 21.0533 486.141 21.16 485.741 21.16C485.341 21.16 485.028 21.0533 484.801 20.84C484.588 20.6133 484.481 20.2933 484.481 19.88V15.16C484.481 14.4 484.335 13.8467 484.041 13.5C483.761 13.1533 483.321 12.98 482.721 12.98C481.988 12.98 481.401 13.2133 480.961 13.68C480.535 14.1333 480.321 14.74 480.321 15.5V19.88C480.321 20.7333 479.901 21.16 479.061 21.16ZM492.741 21.2C492.034 21.2 491.401 21.0667 490.841 20.8C490.294 20.52 489.861 20.1467 489.541 19.68C489.234 19.2133 489.081 18.6867 489.081 18.1C489.081 17.38 489.267 16.8133 489.641 16.4C490.014 15.9733 490.621 15.6667 491.461 15.48C492.301 15.2933 493.427 15.2 494.841 15.2H495.841V16.64H494.861C494.034 16.64 493.374 16.68 492.881 16.76C492.387 16.84 492.034 16.98 491.821 17.18C491.621 17.3667 491.521 17.6333 491.521 17.98C491.521 18.42 491.674 18.78 491.981 19.06C492.287 19.34 492.714 19.48 493.261 19.48C493.701 19.48 494.087 19.38 494.421 19.18C494.767 18.9667 495.041 18.68 495.241 18.32C495.441 17.96 495.541 17.5467 495.541 17.08V14.78C495.541 14.1133 495.394 13.6333 495.101 13.34C494.807 13.0467 494.314 12.9 493.621 12.9C493.234 12.9 492.814 12.9467 492.361 13.04C491.921 13.1333 491.454 13.2933 490.961 13.52C490.707 13.64 490.481 13.6733 490.281 13.62C490.094 13.5667 489.947 13.46 489.841 13.3C489.734 13.1267 489.681 12.94 489.681 12.74C489.681 12.54 489.734 12.3467 489.841 12.16C489.947 11.96 490.127 11.8133 490.381 11.72C490.994 11.4667 491.581 11.2867 492.141 11.18C492.714 11.0733 493.234 11.02 493.701 11.02C494.661 11.02 495.447 11.1667 496.061 11.46C496.687 11.7533 497.154 12.2 497.461 12.8C497.767 13.3867 497.921 14.1467 497.921 15.08V19.88C497.921 20.2933 497.821 20.6133 497.621 20.84C497.421 21.0533 497.134 21.16 496.761 21.16C496.387 21.16 496.094 21.0533 495.881 20.84C495.681 20.6133 495.581 20.2933 495.581 19.88V18.92H495.741C495.647 19.3867 495.461 19.7933 495.181 20.14C494.914 20.4733 494.574 20.7333 494.161 20.92C493.747 21.1067 493.274 21.2 492.741 21.2ZM504.938 21.2C504.072 21.2 503.345 21.0533 502.758 20.76C502.185 20.4667 501.758 20.04 501.478 19.48C501.198 18.9067 501.058 18.2 501.058 17.36V13.1H500.018C499.698 13.1 499.452 13.02 499.278 12.86C499.105 12.6867 499.018 12.4533 499.018 12.16C499.018 11.8533 499.105 11.62 499.278 11.46C499.452 11.3 499.698 11.22 500.018 11.22H501.058V9.4C501.058 8.98667 501.165 8.67333 501.378 8.46C501.605 8.24667 501.918 8.14 502.318 8.14C502.718 8.14 503.025 8.24667 503.238 8.46C503.452 8.67333 503.558 8.98667 503.558 9.4V11.22H505.678C505.998 11.22 506.245 11.3 506.418 11.46C506.592 11.62 506.678 11.8533 506.678 12.16C506.678 12.4533 506.592 12.6867 506.418 12.86C506.245 13.02 505.998 13.1 505.678 13.1H503.558V17.22C503.558 17.86 503.698 18.34 503.978 18.66C504.258 18.98 504.712 19.14 505.338 19.14C505.565 19.14 505.765 19.12 505.938 19.08C506.112 19.04 506.265 19.0133 506.398 19C506.558 18.9867 506.692 19.04 506.798 19.16C506.905 19.2667 506.958 19.4933 506.958 19.84C506.958 20.1067 506.912 20.3467 506.818 20.56C506.738 20.76 506.585 20.9 506.358 20.98C506.185 21.0333 505.958 21.08 505.678 21.12C505.398 21.1733 505.152 21.2 504.938 21.2ZM518.384 21.2C517.277 21.2 516.324 20.9933 515.524 20.58C514.724 20.1667 514.104 19.58 513.664 18.82C513.237 18.06 513.024 17.16 513.024 16.12C513.024 15.1067 513.23 14.22 513.644 13.46C514.07 12.7 514.65 12.1067 515.384 11.68C516.13 11.24 516.977 11.02 517.924 11.02C518.617 11.02 519.237 11.1333 519.784 11.36C520.344 11.5867 520.817 11.9133 521.204 12.34C521.604 12.7667 521.904 13.2867 522.104 13.9C522.317 14.5 522.424 15.18 522.424 15.94C522.424 16.18 522.337 16.3667 522.164 16.5C522.004 16.62 521.77 16.68 521.464 16.68H515.044V15.24H520.664L520.344 15.54C520.344 14.9267 520.25 14.4133 520.064 14C519.89 13.5867 519.63 13.2733 519.284 13.06C518.95 12.8333 518.53 12.72 518.024 12.72C517.464 12.72 516.984 12.8533 516.584 13.12C516.197 13.3733 515.897 13.74 515.684 14.22C515.484 14.6867 515.384 15.2467 515.384 15.9V16.04C515.384 17.1333 515.637 17.9533 516.144 18.5C516.664 19.0333 517.424 19.3 518.424 19.3C518.77 19.3 519.157 19.26 519.584 19.18C520.024 19.0867 520.437 18.9333 520.824 18.72C521.104 18.56 521.35 18.4933 521.564 18.52C521.777 18.5333 521.944 18.6067 522.064 18.74C522.197 18.8733 522.277 19.04 522.304 19.24C522.33 19.4267 522.29 19.62 522.184 19.82C522.09 20.02 521.924 20.1933 521.684 20.34C521.217 20.6333 520.677 20.8533 520.064 21C519.464 21.1333 518.904 21.2 518.384 21.2ZM525.644 21.16C525.244 21.16 524.937 21.0533 524.724 20.84C524.51 20.6133 524.404 20.2933 524.404 19.88V12.32C524.404 11.9067 524.51 11.5933 524.724 11.38C524.937 11.1667 525.237 11.06 525.624 11.06C526.01 11.06 526.31 11.1667 526.524 11.38C526.737 11.5933 526.844 11.9067 526.844 12.32V13.68L526.624 13.18C526.917 12.4733 527.37 11.94 527.984 11.58C528.61 11.2067 529.317 11.02 530.104 11.02C530.89 11.02 531.537 11.1667 532.044 11.46C532.55 11.7533 532.93 12.2 533.184 12.8C533.437 13.3867 533.564 14.1333 533.564 15.04V19.88C533.564 20.2933 533.457 20.6133 533.244 20.84C533.03 21.0533 532.724 21.16 532.324 21.16C531.924 21.16 531.61 21.0533 531.384 20.84C531.17 20.6133 531.064 20.2933 531.064 19.88V15.16C531.064 14.4 530.917 13.8467 530.624 13.5C530.344 13.1533 529.904 12.98 529.304 12.98C528.57 12.98 527.984 13.2133 527.544 13.68C527.117 14.1333 526.904 14.74 526.904 15.5V19.88C526.904 20.7333 526.484 21.16 525.644 21.16ZM540.623 21.2C539.596 21.2 538.703 20.9933 537.943 20.58C537.183 20.1533 536.596 19.5533 536.183 18.78C535.769 18.0067 535.563 17.1 535.563 16.06C535.563 15.2733 535.676 14.5733 535.903 13.96C536.143 13.3333 536.483 12.8067 536.923 12.38C537.363 11.94 537.896 11.6067 538.523 11.38C539.149 11.14 539.849 11.02 540.623 11.02C541.063 11.02 541.536 11.08 542.043 11.2C542.563 11.32 543.049 11.52 543.503 11.8C543.716 11.9333 543.856 12.0933 543.923 12.28C543.989 12.4667 544.003 12.66 543.963 12.86C543.923 13.0467 543.836 13.2133 543.703 13.36C543.583 13.4933 543.429 13.58 543.243 13.62C543.056 13.6467 542.849 13.6 542.623 13.48C542.329 13.3067 542.029 13.18 541.723 13.1C541.416 13.0067 541.123 12.96 540.843 12.96C540.403 12.96 540.016 13.0333 539.683 13.18C539.349 13.3133 539.063 13.5133 538.823 13.78C538.596 14.0333 538.423 14.3533 538.303 14.74C538.183 15.1267 538.123 15.5733 538.123 16.08C538.123 17.0667 538.356 17.8467 538.823 18.42C539.303 18.98 539.976 19.26 540.843 19.26C541.123 19.26 541.409 19.22 541.703 19.14C542.009 19.06 542.316 18.9333 542.623 18.76C542.849 18.64 543.049 18.6 543.223 18.64C543.409 18.68 543.563 18.7733 543.683 18.92C543.803 19.0533 543.876 19.22 543.903 19.42C543.929 19.6067 543.903 19.7933 543.823 19.98C543.756 20.1667 543.623 20.32 543.423 20.44C542.983 20.7067 542.516 20.9 542.023 21.02C541.529 21.14 541.063 21.2 540.623 21.2ZM548.876 21.2C547.77 21.2 546.936 20.8867 546.376 20.26C545.816 19.62 545.536 18.6867 545.536 17.46V8C545.536 7.58667 545.643 7.27333 545.856 7.06C546.07 6.84667 546.376 6.74 546.776 6.74C547.176 6.74 547.483 6.84667 547.696 7.06C547.923 7.27333 548.036 7.58667 548.036 8V17.34C548.036 17.9533 548.163 18.4067 548.416 18.7C548.683 18.9933 549.056 19.14 549.536 19.14C549.643 19.14 549.743 19.14 549.836 19.14C549.93 19.1267 550.023 19.1133 550.116 19.1C550.303 19.0733 550.43 19.1267 550.496 19.26C550.563 19.38 550.596 19.6333 550.596 20.02C550.596 20.3533 550.53 20.6133 550.396 20.8C550.263 20.9867 550.043 21.1 549.736 21.14C549.603 21.1533 549.463 21.1667 549.316 21.18C549.17 21.1933 549.023 21.2 548.876 21.2ZM556.285 21.2C555.272 21.2 554.392 20.9933 553.645 20.58C552.899 20.1667 552.319 19.58 551.905 18.82C551.492 18.0467 551.285 17.14 551.285 16.1C551.285 15.3133 551.399 14.6133 551.625 14C551.865 13.3733 552.205 12.84 552.645 12.4C553.085 11.9467 553.612 11.6067 554.225 11.38C554.839 11.14 555.525 11.02 556.285 11.02C557.299 11.02 558.179 11.2267 558.925 11.64C559.672 12.0533 560.252 12.64 560.665 13.4C561.079 14.16 561.285 15.06 561.285 16.1C561.285 16.8867 561.165 17.5933 560.925 18.22C560.699 18.8467 560.365 19.3867 559.925 19.84C559.485 20.28 558.959 20.62 558.345 20.86C557.732 21.0867 557.045 21.2 556.285 21.2ZM556.285 19.3C556.779 19.3 557.212 19.18 557.585 18.94C557.959 18.7 558.245 18.3467 558.445 17.88C558.659 17.4 558.765 16.8067 558.765 16.1C558.765 15.0333 558.539 14.24 558.085 13.72C557.632 13.1867 557.032 12.92 556.285 12.92C555.792 12.92 555.359 13.04 554.985 13.28C554.612 13.5067 554.319 13.86 554.105 14.34C553.905 14.8067 553.805 15.3933 553.805 16.1C553.805 17.1533 554.032 17.9533 554.485 18.5C554.939 19.0333 555.539 19.3 556.285 19.3ZM566.929 21.2C566.355 21.2 565.749 21.14 565.109 21.02C564.469 20.9 563.895 20.6933 563.389 20.4C563.175 20.2667 563.022 20.1133 562.929 19.94C562.849 19.7533 562.815 19.5733 562.829 19.4C562.855 19.2133 562.922 19.0533 563.029 18.92C563.149 18.7867 563.295 18.7 563.469 18.66C563.655 18.62 563.855 18.6533 564.069 18.76C564.602 19.0133 565.102 19.1933 565.569 19.3C566.035 19.3933 566.495 19.44 566.949 19.44C567.589 19.44 568.062 19.3333 568.369 19.12C568.689 18.8933 568.849 18.6 568.849 18.24C568.849 17.9333 568.742 17.7 568.529 17.54C568.329 17.3667 568.022 17.24 567.609 17.16L565.609 16.78C564.782 16.62 564.149 16.32 563.709 15.88C563.282 15.4267 563.069 14.8467 563.069 14.14C563.069 13.5 563.242 12.9467 563.589 12.48C563.949 12.0133 564.442 11.6533 565.069 11.4C565.695 11.1467 566.415 11.02 567.229 11.02C567.815 11.02 568.362 11.0867 568.869 11.22C569.389 11.34 569.889 11.5333 570.369 11.8C570.569 11.9067 570.702 12.0467 570.769 12.22C570.849 12.3933 570.869 12.5733 570.829 12.76C570.789 12.9333 570.709 13.0933 570.589 13.24C570.469 13.3733 570.315 13.46 570.129 13.5C569.955 13.5267 569.755 13.4867 569.529 13.38C569.115 13.1667 568.715 13.0133 568.329 12.92C567.955 12.8267 567.595 12.78 567.249 12.78C566.595 12.78 566.109 12.8933 565.789 13.12C565.482 13.3467 565.329 13.6467 565.329 14.02C565.329 14.3 565.422 14.5333 565.609 14.72C565.795 14.9067 566.082 15.0333 566.469 15.1L568.469 15.48C569.335 15.64 569.989 15.9333 570.429 16.36C570.882 16.7867 571.109 17.36 571.109 18.08C571.109 19.0533 570.729 19.82 569.969 20.38C569.209 20.9267 568.195 21.2 566.929 21.2ZM577.934 21.2C576.828 21.2 575.874 20.9933 575.074 20.58C574.274 20.1667 573.654 19.58 573.214 18.82C572.788 18.06 572.574 17.16 572.574 16.12C572.574 15.1067 572.781 14.22 573.194 13.46C573.621 12.7 574.201 12.1067 574.934 11.68C575.681 11.24 576.528 11.02 577.474 11.02C578.168 11.02 578.788 11.1333 579.334 11.36C579.894 11.5867 580.368 11.9133 580.754 12.34C581.154 12.7667 581.454 13.2867 581.654 13.9C581.868 14.5 581.974 15.18 581.974 15.94C581.974 16.18 581.888 16.3667 581.714 16.5C581.554 16.62 581.321 16.68 581.014 16.68H574.594V15.24H580.214L579.894 15.54C579.894 14.9267 579.801 14.4133 579.614 14C579.441 13.5867 579.181 13.2733 578.834 13.06C578.501 12.8333 578.081 12.72 577.574 12.72C577.014 12.72 576.534 12.8533 576.134 13.12C575.748 13.3733 575.448 13.74 575.234 14.22C575.034 14.6867 574.934 15.2467 574.934 15.9V16.04C574.934 17.1333 575.188 17.9533 575.694 18.5C576.214 19.0333 576.974 19.3 577.974 19.3C578.321 19.3 578.708 19.26 579.134 19.18C579.574 19.0867 579.988 18.9333 580.374 18.72C580.654 18.56 580.901 18.4933 581.114 18.52C581.328 18.5333 581.494 18.6067 581.614 18.74C581.748 18.8733 581.828 19.04 581.854 19.24C581.881 19.4267 581.841 19.62 581.734 19.82C581.641 20.02 581.474 20.1933 581.234 20.34C580.768 20.6333 580.228 20.8533 579.614 21C579.014 21.1333 578.454 21.2 577.934 21.2Z" fill="#444444"/>
<rect x="588" width="51" height="28" rx="5" fill="#E8F0FE"/>
<path d="M601.191 13.76C602.031 13.9733 602.671 14.38 603.111 14.98C603.565 15.5667 603.791 16.3 603.791 17.18C603.791 18.3933 603.345 19.36 602.451 20.08C601.558 20.8 600.351 21.16 598.831 21.16C597.965 21.16 597.131 21.0267 596.331 20.76C595.531 20.4933 594.851 20.12 594.291 19.64C593.985 19.3733 593.831 19.06 593.831 18.7C593.831 18.4067 593.911 18.16 594.071 17.96C594.245 17.7467 594.445 17.64 594.671 17.64C594.805 17.64 594.925 17.6667 595.031 17.72C595.138 17.76 595.285 17.8333 595.471 17.94C596.031 18.3133 596.565 18.6 597.071 18.8C597.578 19 598.131 19.1 598.731 19.1C599.611 19.1 600.265 18.9267 600.691 18.58C601.118 18.22 601.331 17.68 601.331 16.96C601.331 16.2533 601.105 15.7333 600.651 15.4C600.211 15.0533 599.525 14.88 598.591 14.88H597.451C597.145 14.88 596.905 14.78 596.731 14.58C596.571 14.3667 596.491 14.1267 596.491 13.86C596.491 13.58 596.571 13.34 596.731 13.14C596.905 12.94 597.145 12.84 597.451 12.84H598.251C600.078 12.84 600.991 12.1533 600.991 10.78C600.991 10.14 600.798 9.64667 600.411 9.3C600.025 8.95333 599.491 8.78 598.811 8.78C597.838 8.78 596.798 9.16667 595.691 9.94C595.505 10.0467 595.358 10.1267 595.251 10.18C595.145 10.22 595.025 10.24 594.891 10.24C594.665 10.24 594.465 10.14 594.291 9.94C594.131 9.72667 594.051 9.47333 594.051 9.18C594.051 8.98 594.085 8.81333 594.151 8.68C594.231 8.53333 594.351 8.38667 594.511 8.24C595.071 7.77333 595.738 7.40667 596.511 7.14C597.298 6.86 598.098 6.72 598.911 6.72C600.298 6.72 601.398 7.06 602.211 7.74C603.038 8.42 603.451 9.32667 603.451 10.46C603.438 11.2333 603.231 11.9133 602.831 12.5C602.445 13.0733 601.898 13.4933 601.191 13.76ZM607.503 21.12C607.077 21.12 606.723 20.98 606.443 20.7C606.163 20.4067 606.023 20.0467 606.023 19.62C606.023 19.1933 606.163 18.84 606.443 18.56C606.723 18.2667 607.077 18.12 607.503 18.12C607.93 18.12 608.283 18.2667 608.563 18.56C608.843 18.84 608.983 19.1933 608.983 19.62C608.983 20.0467 608.843 20.4067 608.563 20.7C608.283 20.98 607.93 21.12 607.503 21.12ZM620.484 16.24C620.884 16.24 621.184 16.3267 621.384 16.5C621.584 16.6733 621.684 16.92 621.684 17.24C621.684 17.9067 621.284 18.24 620.484 18.24H619.464V19.82C619.464 20.2333 619.344 20.5533 619.104 20.78C618.878 21.0067 618.578 21.12 618.204 21.12C617.831 21.12 617.524 21.0067 617.284 20.78C617.058 20.5533 616.944 20.2333 616.944 19.82V18.24H611.704C611.344 18.24 611.064 18.14 610.864 17.94C610.664 17.7267 610.564 17.4667 610.564 17.16C610.564 16.84 610.671 16.5333 610.884 16.24L617.064 7.36C617.198 7.17333 617.364 7.03333 617.564 6.94C617.764 6.83333 617.971 6.78 618.184 6.78C618.531 6.78 618.831 6.89333 619.084 7.12C619.338 7.34667 619.464 7.66667 619.464 8.08V16.24H620.484ZM613.224 16.24H616.944V10.86L613.224 16.24ZM632.037 6.9C632.383 6.9 632.65 7 632.837 7.2C633.023 7.38667 633.117 7.63333 633.117 7.94C633.117 8.24667 633.023 8.56667 632.837 8.9L626.457 20.48C626.19 20.9333 625.823 21.16 625.357 21.16C625.037 21.16 624.75 21.0533 624.497 20.84C624.257 20.6133 624.137 20.34 624.137 20.02C624.137 19.7933 624.203 19.5667 624.337 19.34L630.077 8.98H624.037C623.237 8.98 622.837 8.64 622.837 7.96C622.837 7.25333 623.237 6.9 624.037 6.9H632.037Z" fill="#6595DE"/>
<path d="M646.52 21.1C646.066 21.1 645.7 20.96 645.42 20.68C645.153 20.4 645.02 20.04 645.02 19.6C645.02 19.1733 645.153 18.8267 645.42 18.56C645.7 18.28 646.066 18.14 646.52 18.14C646.986 18.14 647.346 18.28 647.6 18.56C647.866 18.8267 648 19.1733 648 19.6C648 20.04 647.866 20.4 647.6 20.68C647.346 20.96 646.986 21.1 646.52 21.1Z" fill="#444444"/>
</svg>
