<svg width="418" height="19" viewBox="0 0 418 19" fill="none" xmlns="http://www.w3.org/2000/svg">
<path d="M7.44695 15.2C5.88695 15.2 4.56695 14.9067 3.48695 14.32C2.42029 13.7333 1.60695 12.9 1.04695 11.82C0.486953 10.74 0.206953 9.46 0.206953 7.98C0.206953 6.86 0.366953 5.85333 0.686953 4.96C1.02029 4.06667 1.49362 3.30667 2.10695 2.68C2.73362 2.04 3.49362 1.55333 4.38695 1.22C5.28029 0.873333 6.29362 0.699999 7.42695 0.699999C8.17362 0.699999 8.92029 0.793333 9.66695 0.979999C10.427 1.15333 11.1403 1.45333 11.807 1.88C12.0336 2.02667 12.1803 2.20667 12.247 2.42C12.327 2.63333 12.3403 2.85333 12.287 3.08C12.2336 3.29333 12.1336 3.48 11.987 3.64C11.8403 3.8 11.6536 3.9 11.427 3.94C11.2136 3.98 10.9736 3.92667 10.707 3.78C10.2003 3.48667 9.68695 3.27333 9.16695 3.14C8.64695 3.00667 8.06695 2.94 7.42695 2.94C6.44029 2.94 5.60695 3.14 4.92695 3.54C4.24695 3.92667 3.73362 4.49333 3.38695 5.24C3.05362 5.98667 2.88695 6.9 2.88695 7.98C2.88695 9.62 3.28029 10.8667 4.06695 11.72C4.85362 12.5733 6.02029 13 7.56695 13C8.10029 13 8.64029 12.9467 9.18695 12.84C9.73362 12.7333 10.267 12.5867 10.787 12.4L10.287 13.54V9.28H8.08695C7.75362 9.28 7.49362 9.19333 7.30695 9.02C7.13362 8.84667 7.04695 8.61333 7.04695 8.32C7.04695 8.01333 7.13362 7.78 7.30695 7.62C7.49362 7.46 7.75362 7.38 8.08695 7.38H11.387C11.7203 7.38 11.9736 7.47333 12.147 7.66C12.3336 7.83333 12.427 8.08667 12.427 8.42V13.28C12.427 13.5733 12.367 13.82 12.247 14.02C12.1403 14.22 11.9603 14.3667 11.707 14.46C11.1203 14.6733 10.447 14.8533 9.68695 15C8.92695 15.1333 8.18029 15.2 7.44695 15.2ZM16.4335 15.16C16.0202 15.16 15.7002 15.0533 15.4735 14.84C15.2602 14.6133 15.1535 14.2933 15.1535 13.88V6.32C15.1535 5.90667 15.2602 5.59333 15.4735 5.38C15.6868 5.16667 15.9868 5.06 16.3735 5.06C16.7602 5.06 17.0602 5.16667 17.2735 5.38C17.4868 5.59333 17.5935 5.90667 17.5935 6.32V7.58H17.3935C17.5802 6.78 17.9468 6.17333 18.4935 5.76C19.0402 5.34667 19.7668 5.1 20.6735 5.02C20.9535 4.99333 21.1735 5.06667 21.3335 5.24C21.5068 5.4 21.6068 5.65333 21.6335 6C21.6602 6.33333 21.5802 6.60667 21.3935 6.82C21.2202 7.02 20.9535 7.14 20.5935 7.18L20.1535 7.22C19.3402 7.3 18.7268 7.55333 18.3135 7.98C17.9002 8.39333 17.6935 8.98 17.6935 9.74V13.88C17.6935 14.2933 17.5868 14.6133 17.3735 14.84C17.1602 15.0533 16.8468 15.16 16.4335 15.16ZM27.6493 15.2C26.5426 15.2 25.5893 14.9933 24.7893 14.58C23.9893 14.1667 23.3693 13.58 22.9293 12.82C22.5026 12.06 22.2893 11.16 22.2893 10.12C22.2893 9.10667 22.496 8.22 22.9093 7.46C23.336 6.7 23.916 6.10667 24.6493 5.68C25.396 5.24 26.2426 5.02 27.1893 5.02C27.8826 5.02 28.5026 5.13333 29.0493 5.36C29.6093 5.58667 30.0826 5.91333 30.4693 6.34C30.8693 6.76667 31.1693 7.28667 31.3693 7.9C31.5826 8.5 31.6893 9.18 31.6893 9.94C31.6893 10.18 31.6026 10.3667 31.4293 10.5C31.2693 10.62 31.036 10.68 30.7293 10.68H24.3093V9.24H29.9293L29.6093 9.54C29.6093 8.92667 29.516 8.41333 29.3293 8C29.156 7.58667 28.896 7.27333 28.5493 7.06C28.216 6.83333 27.796 6.72 27.2893 6.72C26.7293 6.72 26.2493 6.85333 25.8493 7.12C25.4626 7.37333 25.1626 7.74 24.9493 8.22C24.7493 8.68667 24.6493 9.24667 24.6493 9.9V10.04C24.6493 11.1333 24.9026 11.9533 25.4093 12.5C25.9293 13.0333 26.6893 13.3 27.6893 13.3C28.036 13.3 28.4226 13.26 28.8493 13.18C29.2893 13.0867 29.7026 12.9333 30.0893 12.72C30.3693 12.56 30.616 12.4933 30.8293 12.52C31.0426 12.5333 31.2093 12.6067 31.3293 12.74C31.4626 12.8733 31.5426 13.04 31.5693 13.24C31.596 13.4267 31.556 13.62 31.4493 13.82C31.356 14.02 31.1893 14.1933 30.9493 14.34C30.4826 14.6333 29.9426 14.8533 29.3293 15C28.7293 15.1333 28.1693 15.2 27.6493 15.2ZM36.8891 15.2C36.1825 15.2 35.5491 15.0667 34.9891 14.8C34.4425 14.52 34.0091 14.1467 33.6891 13.68C33.3825 13.2133 33.2291 12.6867 33.2291 12.1C33.2291 11.38 33.4158 10.8133 33.7891 10.4C34.1625 9.97333 34.7691 9.66667 35.6091 9.48C36.4491 9.29333 37.5758 9.2 38.9891 9.2H39.9891V10.64H39.0091C38.1825 10.64 37.5225 10.68 37.0291 10.76C36.5358 10.84 36.1825 10.98 35.9691 11.18C35.7691 11.3667 35.6691 11.6333 35.6691 11.98C35.6691 12.42 35.8225 12.78 36.1291 13.06C36.4358 13.34 36.8625 13.48 37.4091 13.48C37.8491 13.48 38.2358 13.38 38.5691 13.18C38.9158 12.9667 39.1891 12.68 39.3891 12.32C39.5891 11.96 39.6891 11.5467 39.6891 11.08V8.78C39.6891 8.11333 39.5425 7.63333 39.2491 7.34C38.9558 7.04667 38.4625 6.9 37.7691 6.9C37.3825 6.9 36.9625 6.94667 36.5091 7.04C36.0691 7.13333 35.6025 7.29333 35.1091 7.52C34.8558 7.64 34.6291 7.67333 34.4291 7.62C34.2425 7.56667 34.0958 7.46 33.9891 7.3C33.8825 7.12667 33.8291 6.94 33.8291 6.74C33.8291 6.54 33.8825 6.34667 33.9891 6.16C34.0958 5.96 34.2758 5.81333 34.5291 5.72C35.1425 5.46667 35.7291 5.28667 36.2891 5.18C36.8625 5.07333 37.3825 5.02 37.8491 5.02C38.8091 5.02 39.5958 5.16667 40.2091 5.46C40.8358 5.75333 41.3025 6.2 41.6091 6.8C41.9158 7.38667 42.0691 8.14667 42.0691 9.08V13.88C42.0691 14.2933 41.9691 14.6133 41.7691 14.84C41.5691 15.0533 41.2825 15.16 40.9091 15.16C40.5358 15.16 40.2425 15.0533 40.0291 14.84C39.8291 14.6133 39.7291 14.2933 39.7291 13.88V12.92H39.8891C39.7958 13.3867 39.6091 13.7933 39.3291 14.14C39.0625 14.4733 38.7225 14.7333 38.3091 14.92C37.8958 15.1067 37.4225 15.2 36.8891 15.2ZM49.0866 15.2C48.22 15.2 47.4933 15.0533 46.9066 14.76C46.3333 14.4667 45.9066 14.04 45.6266 13.48C45.3466 12.9067 45.2066 12.2 45.2066 11.36V7.1H44.1666C43.8466 7.1 43.6 7.02 43.4266 6.86C43.2533 6.68667 43.1666 6.45333 43.1666 6.16C43.1666 5.85333 43.2533 5.62 43.4266 5.46C43.6 5.3 43.8466 5.22 44.1666 5.22H45.2066V3.4C45.2066 2.98667 45.3133 2.67333 45.5266 2.46C45.7533 2.24667 46.0666 2.14 46.4666 2.14C46.8666 2.14 47.1733 2.24667 47.3866 2.46C47.6 2.67333 47.7066 2.98667 47.7066 3.4V5.22H49.8266C50.1466 5.22 50.3933 5.3 50.5666 5.46C50.74 5.62 50.8266 5.85333 50.8266 6.16C50.8266 6.45333 50.74 6.68667 50.5666 6.86C50.3933 7.02 50.1466 7.1 49.8266 7.1H47.7066V11.22C47.7066 11.86 47.8466 12.34 48.1266 12.66C48.4066 12.98 48.86 13.14 49.4866 13.14C49.7133 13.14 49.9133 13.12 50.0866 13.08C50.26 13.04 50.4133 13.0133 50.5466 13C50.7066 12.9867 50.84 13.04 50.9466 13.16C51.0533 13.2667 51.1066 13.4933 51.1066 13.84C51.1066 14.1067 51.06 14.3467 50.9666 14.56C50.8866 14.76 50.7333 14.9 50.5066 14.98C50.3333 15.0333 50.1066 15.08 49.8266 15.12C49.5466 15.1733 49.3 15.2 49.0866 15.2ZM53.5215 10.94C53.2682 10.94 53.0682 10.86 52.9215 10.7C52.7882 10.54 52.7082 10.3133 52.6815 10.02L52.0815 2.38C52.0415 1.88667 52.1482 1.49333 52.4015 1.2C52.6548 0.893332 53.0282 0.739999 53.5215 0.739999C54.0015 0.739999 54.3615 0.893332 54.6015 1.2C54.8548 1.49333 54.9615 1.88667 54.9215 2.38L54.3215 10.02C54.3082 10.3133 54.2282 10.54 54.0815 10.7C53.9482 10.86 53.7615 10.94 53.5215 10.94ZM53.5215 15.1C53.0682 15.1 52.7015 14.96 52.4215 14.68C52.1548 14.4 52.0215 14.04 52.0215 13.6C52.0215 13.1733 52.1548 12.8267 52.4215 12.56C52.7015 12.28 53.0682 12.14 53.5215 12.14C53.9882 12.14 54.3482 12.28 54.6015 12.56C54.8682 12.8267 55.0015 13.1733 55.0015 13.6C55.0015 14.04 54.8682 14.4 54.6015 14.68C54.3482 14.96 53.9882 15.1 53.5215 15.1ZM64.3121 15C63.8721 15 63.5321 14.8867 63.2921 14.66C63.0654 14.42 62.9521 14.08 62.9521 13.64V2.26C62.9521 1.82 63.0654 1.48667 63.2921 1.26C63.5321 1.02 63.8721 0.899999 64.3121 0.899999H68.1921C70.5521 0.899999 72.3721 1.50667 73.6521 2.72C74.9454 3.93333 75.5921 5.67333 75.5921 7.94C75.5921 9.07333 75.4254 10.08 75.0921 10.96C74.7721 11.8267 74.2921 12.56 73.6521 13.16C73.0254 13.76 72.2521 14.22 71.3321 14.54C70.4254 14.8467 69.3788 15 68.1921 15H64.3121ZM65.5121 12.88H68.0321C68.8588 12.88 69.5721 12.78 70.1721 12.58C70.7854 12.3667 71.2921 12.06 71.6921 11.66C72.1054 11.2467 72.4121 10.7333 72.6121 10.12C72.8121 9.49333 72.9121 8.76667 72.9121 7.94C72.9121 6.28667 72.5054 5.05333 71.6921 4.24C70.8788 3.42667 69.6588 3.02 68.0321 3.02H65.5121V12.88ZM79.1865 15.14C78.7865 15.14 78.4798 15.02 78.2665 14.78C78.0532 14.54 77.9465 14.2067 77.9465 13.78V6.44C77.9465 6 78.0532 5.66667 78.2665 5.44C78.4798 5.2 78.7865 5.08 79.1865 5.08C79.5865 5.08 79.8932 5.2 80.1065 5.44C80.3332 5.66667 80.4465 6 80.4465 6.44V13.78C80.4465 14.2067 80.3398 14.54 80.1265 14.78C79.9132 15.02 79.5998 15.14 79.1865 15.14ZM79.1865 3.22C78.7198 3.22 78.3532 3.10667 78.0865 2.88C77.8332 2.64 77.7065 2.31333 77.7065 1.9C77.7065 1.47333 77.8332 1.14667 78.0865 0.919999C78.3532 0.693333 78.7198 0.58 79.1865 0.58C79.6665 0.58 80.0332 0.693333 80.2865 0.919999C80.5398 1.14667 80.6665 1.47333 80.6665 1.9C80.6665 2.31333 80.5398 2.64 80.2865 2.88C80.0332 3.10667 79.6665 3.22 79.1865 3.22ZM87.0041 15.16C86.6708 15.16 86.3775 15.0733 86.1241 14.9C85.8841 14.7267 85.6841 14.46 85.5241 14.1L82.3441 6.72C82.2241 6.42667 82.1775 6.15333 82.2041 5.9C82.2441 5.64667 82.3641 5.44667 82.5641 5.3C82.7775 5.14 83.0641 5.06 83.4241 5.06C83.7308 5.06 83.9775 5.13333 84.1641 5.28C84.3508 5.41333 84.5175 5.67333 84.6641 6.06L87.3641 12.8H86.7641L89.5441 6.04C89.6908 5.66667 89.8575 5.41333 90.0441 5.28C90.2441 5.13333 90.5108 5.06 90.8441 5.06C91.1375 5.06 91.3708 5.14 91.5441 5.3C91.7175 5.44667 91.8241 5.64667 91.8641 5.9C91.9041 6.14 91.8575 6.40667 91.7241 6.7L88.4841 14.1C88.3375 14.46 88.1375 14.7267 87.8841 14.9C87.6441 15.0733 87.3508 15.16 87.0041 15.16ZM94.831 15.14C94.431 15.14 94.1243 15.02 93.911 14.78C93.6977 14.54 93.591 14.2067 93.591 13.78V6.44C93.591 6 93.6977 5.66667 93.911 5.44C94.1243 5.2 94.431 5.08 94.831 5.08C95.231 5.08 95.5377 5.2 95.751 5.44C95.9777 5.66667 96.091 6 96.091 6.44V13.78C96.091 14.2067 95.9843 14.54 95.771 14.78C95.5577 15.02 95.2443 15.14 94.831 15.14ZM94.831 3.22C94.3643 3.22 93.9977 3.10667 93.731 2.88C93.4777 2.64 93.351 2.31333 93.351 1.9C93.351 1.47333 93.4777 1.14667 93.731 0.919999C93.9977 0.693333 94.3643 0.58 94.831 0.58C95.311 0.58 95.6777 0.693333 95.931 0.919999C96.1843 1.14667 96.311 1.47333 96.311 1.9C96.311 2.31333 96.1843 2.64 95.931 2.88C95.6777 3.10667 95.311 3.22 94.831 3.22ZM102.449 15.2C101.595 15.2 100.842 14.9933 100.189 14.58C99.5487 14.1667 99.0487 13.58 98.6887 12.82C98.3287 12.0467 98.1487 11.14 98.1487 10.1C98.1487 9.04667 98.3287 8.14667 98.6887 7.4C99.0487 6.64 99.5487 6.05333 100.189 5.64C100.842 5.22667 101.595 5.02 102.449 5.02C103.262 5.02 103.969 5.22 104.569 5.62C105.182 6.02 105.595 6.54667 105.809 7.2H105.589V2C105.589 1.58667 105.695 1.27333 105.909 1.06C106.122 0.846666 106.429 0.739999 106.829 0.739999C107.229 0.739999 107.535 0.846666 107.749 1.06C107.975 1.27333 108.089 1.58667 108.089 2V13.88C108.089 14.2933 107.982 14.6133 107.769 14.84C107.555 15.0533 107.249 15.16 106.849 15.16C106.449 15.16 106.142 15.0533 105.929 14.84C105.715 14.6133 105.609 14.2933 105.609 13.88V12.32L105.829 12.92C105.629 13.6133 105.222 14.1667 104.609 14.58C103.995 14.9933 103.275 15.2 102.449 15.2ZM103.149 13.3C103.642 13.3 104.075 13.18 104.449 12.94C104.822 12.7 105.109 12.3467 105.309 11.88C105.522 11.4 105.629 10.8067 105.629 10.1C105.629 9.03333 105.402 8.24 104.949 7.72C104.495 7.18667 103.895 6.92 103.149 6.92C102.655 6.92 102.222 7.04 101.849 7.28C101.475 7.50667 101.182 7.86 100.969 8.34C100.769 8.80667 100.669 9.39333 100.669 10.1C100.669 11.1533 100.895 11.9533 101.349 12.5C101.802 13.0333 102.402 13.3 103.149 13.3ZM115.501 15.2C114.394 15.2 113.441 14.9933 112.641 14.58C111.841 14.1667 111.221 13.58 110.781 12.82C110.354 12.06 110.141 11.16 110.141 10.12C110.141 9.10667 110.348 8.22 110.761 7.46C111.188 6.7 111.768 6.10667 112.501 5.68C113.248 5.24 114.094 5.02 115.041 5.02C115.734 5.02 116.354 5.13333 116.901 5.36C117.461 5.58667 117.934 5.91333 118.321 6.34C118.721 6.76667 119.021 7.28667 119.221 7.9C119.434 8.5 119.541 9.18 119.541 9.94C119.541 10.18 119.454 10.3667 119.281 10.5C119.121 10.62 118.888 10.68 118.581 10.68H112.161V9.24H117.781L117.461 9.54C117.461 8.92667 117.368 8.41333 117.181 8C117.008 7.58667 116.748 7.27333 116.401 7.06C116.068 6.83333 115.648 6.72 115.141 6.72C114.581 6.72 114.101 6.85333 113.701 7.12C113.314 7.37333 113.014 7.74 112.801 8.22C112.601 8.68667 112.501 9.24667 112.501 9.9V10.04C112.501 11.1333 112.754 11.9533 113.261 12.5C113.781 13.0333 114.541 13.3 115.541 13.3C115.888 13.3 116.274 13.26 116.701 13.18C117.141 13.0867 117.554 12.9333 117.941 12.72C118.221 12.56 118.468 12.4933 118.681 12.52C118.894 12.5333 119.061 12.6067 119.181 12.74C119.314 12.8733 119.394 13.04 119.421 13.24C119.448 13.4267 119.408 13.62 119.301 13.82C119.208 14.02 119.041 14.1933 118.801 14.34C118.334 14.6333 117.794 14.8533 117.181 15C116.581 15.1333 116.021 15.2 115.501 15.2ZM131.43 15.2C130.564 15.2 129.837 15.0533 129.25 14.76C128.677 14.4667 128.25 14.04 127.97 13.48C127.69 12.9067 127.55 12.2 127.55 11.36V7.1H126.51C126.19 7.1 125.944 7.02 125.77 6.86C125.597 6.68667 125.51 6.45333 125.51 6.16C125.51 5.85333 125.597 5.62 125.77 5.46C125.944 5.3 126.19 5.22 126.51 5.22H127.55V3.4C127.55 2.98667 127.657 2.67333 127.87 2.46C128.097 2.24667 128.41 2.14 128.81 2.14C129.21 2.14 129.517 2.24667 129.73 2.46C129.944 2.67333 130.05 2.98667 130.05 3.4V5.22H132.17C132.49 5.22 132.737 5.3 132.91 5.46C133.084 5.62 133.17 5.85333 133.17 6.16C133.17 6.45333 133.084 6.68667 132.91 6.86C132.737 7.02 132.49 7.1 132.17 7.1H130.05V11.22C130.05 11.86 130.19 12.34 130.47 12.66C130.75 12.98 131.204 13.14 131.83 13.14C132.057 13.14 132.257 13.12 132.43 13.08C132.604 13.04 132.757 13.0133 132.89 13C133.05 12.9867 133.184 13.04 133.29 13.16C133.397 13.2667 133.45 13.4933 133.45 13.84C133.45 14.1067 133.404 14.3467 133.31 14.56C133.23 14.76 133.077 14.9 132.85 14.98C132.677 15.0333 132.45 15.08 132.17 15.12C131.89 15.1733 131.644 15.2 131.43 15.2ZM136.12 15.16C135.72 15.16 135.413 15.0533 135.2 14.84C134.987 14.6133 134.88 14.2933 134.88 13.88V2C134.88 1.58667 134.987 1.27333 135.2 1.06C135.413 0.846666 135.72 0.739999 136.12 0.739999C136.52 0.739999 136.827 0.846666 137.04 1.06C137.267 1.27333 137.38 1.58667 137.38 2V7.18H137.1C137.393 6.47333 137.847 5.94 138.46 5.58C139.087 5.20667 139.793 5.02 140.58 5.02C141.367 5.02 142.013 5.16667 142.52 5.46C143.027 5.75333 143.407 6.2 143.66 6.8C143.913 7.38667 144.04 8.13333 144.04 9.04V13.88C144.04 14.2933 143.933 14.6133 143.72 14.84C143.507 15.0533 143.2 15.16 142.8 15.16C142.4 15.16 142.087 15.0533 141.86 14.84C141.647 14.6133 141.54 14.2933 141.54 13.88V9.16C141.54 8.4 141.393 7.84667 141.1 7.5C140.82 7.15333 140.38 6.98 139.78 6.98C139.047 6.98 138.46 7.21333 138.02 7.68C137.593 8.13333 137.38 8.74 137.38 9.5V13.88C137.38 14.7333 136.96 15.16 136.12 15.16ZM147.819 15.14C147.419 15.14 147.113 15.02 146.899 14.78C146.686 14.54 146.579 14.2067 146.579 13.78V6.44C146.579 6 146.686 5.66667 146.899 5.44C147.113 5.2 147.419 5.08 147.819 5.08C148.219 5.08 148.526 5.2 148.739 5.44C148.966 5.66667 149.079 6 149.079 6.44V13.78C149.079 14.2067 148.973 14.54 148.759 14.78C148.546 15.02 148.233 15.14 147.819 15.14ZM147.819 3.22C147.353 3.22 146.986 3.10667 146.719 2.88C146.466 2.64 146.339 2.31333 146.339 1.9C146.339 1.47333 146.466 1.14667 146.719 0.919999C146.986 0.693333 147.353 0.58 147.819 0.58C148.299 0.58 148.666 0.693333 148.919 0.919999C149.173 1.14667 149.299 1.47333 149.299 1.9C149.299 2.31333 149.173 2.64 148.919 2.88C148.666 3.10667 148.299 3.22 147.819 3.22ZM155.257 15.2C154.684 15.2 154.077 15.14 153.437 15.02C152.797 14.9 152.224 14.6933 151.717 14.4C151.504 14.2667 151.35 14.1133 151.257 13.94C151.177 13.7533 151.144 13.5733 151.157 13.4C151.184 13.2133 151.25 13.0533 151.357 12.92C151.477 12.7867 151.624 12.7 151.797 12.66C151.984 12.62 152.184 12.6533 152.397 12.76C152.93 13.0133 153.43 13.1933 153.897 13.3C154.364 13.3933 154.824 13.44 155.277 13.44C155.917 13.44 156.39 13.3333 156.697 13.12C157.017 12.8933 157.177 12.6 157.177 12.24C157.177 11.9333 157.07 11.7 156.857 11.54C156.657 11.3667 156.35 11.24 155.937 11.16L153.937 10.78C153.11 10.62 152.477 10.32 152.037 9.88C151.61 9.42667 151.397 8.84667 151.397 8.14C151.397 7.5 151.57 6.94667 151.917 6.48C152.277 6.01333 152.77 5.65333 153.397 5.4C154.024 5.14667 154.744 5.02 155.557 5.02C156.144 5.02 156.69 5.08667 157.197 5.22C157.717 5.34 158.217 5.53333 158.697 5.8C158.897 5.90667 159.03 6.04667 159.097 6.22C159.177 6.39333 159.197 6.57333 159.157 6.76C159.117 6.93333 159.037 7.09333 158.917 7.24C158.797 7.37333 158.644 7.46 158.457 7.5C158.284 7.52667 158.084 7.48667 157.857 7.38C157.444 7.16667 157.044 7.01333 156.657 6.92C156.284 6.82667 155.924 6.78 155.577 6.78C154.924 6.78 154.437 6.89333 154.117 7.12C153.81 7.34667 153.657 7.64667 153.657 8.02C153.657 8.3 153.75 8.53333 153.937 8.72C154.124 8.90667 154.41 9.03333 154.797 9.1L156.797 9.48C157.664 9.64 158.317 9.93333 158.757 10.36C159.21 10.7867 159.437 11.36 159.437 12.08C159.437 13.0533 159.057 13.82 158.297 14.38C157.537 14.9267 156.524 15.2 155.257 15.2ZM170.452 15.2C169.879 15.2 169.272 15.14 168.632 15.02C167.992 14.9 167.419 14.6933 166.912 14.4C166.699 14.2667 166.546 14.1133 166.452 13.94C166.372 13.7533 166.339 13.5733 166.352 13.4C166.379 13.2133 166.446 13.0533 166.552 12.92C166.672 12.7867 166.819 12.7 166.992 12.66C167.179 12.62 167.379 12.6533 167.592 12.76C168.126 13.0133 168.626 13.1933 169.092 13.3C169.559 13.3933 170.019 13.44 170.472 13.44C171.112 13.44 171.586 13.3333 171.892 13.12C172.212 12.8933 172.372 12.6 172.372 12.24C172.372 11.9333 172.266 11.7 172.052 11.54C171.852 11.3667 171.546 11.24 171.132 11.16L169.132 10.78C168.306 10.62 167.672 10.32 167.232 9.88C166.806 9.42667 166.592 8.84667 166.592 8.14C166.592 7.5 166.766 6.94667 167.112 6.48C167.472 6.01333 167.966 5.65333 168.592 5.4C169.219 5.14667 169.939 5.02 170.752 5.02C171.339 5.02 171.886 5.08667 172.392 5.22C172.912 5.34 173.412 5.53333 173.892 5.8C174.092 5.90667 174.226 6.04667 174.292 6.22C174.372 6.39333 174.392 6.57333 174.352 6.76C174.312 6.93333 174.232 7.09333 174.112 7.24C173.992 7.37333 173.839 7.46 173.652 7.5C173.479 7.52667 173.279 7.48667 173.052 7.38C172.639 7.16667 172.239 7.01333 171.852 6.92C171.479 6.82667 171.119 6.78 170.772 6.78C170.119 6.78 169.632 6.89333 169.312 7.12C169.006 7.34667 168.852 7.64667 168.852 8.02C168.852 8.3 168.946 8.53333 169.132 8.72C169.319 8.90667 169.606 9.03333 169.992 9.1L171.992 9.48C172.859 9.64 173.512 9.93333 173.952 10.36C174.406 10.7867 174.632 11.36 174.632 12.08C174.632 13.0533 174.252 13.82 173.492 14.38C172.732 14.9267 171.719 15.2 170.452 15.2ZM181.458 15.2C180.351 15.2 179.398 14.9933 178.598 14.58C177.798 14.1667 177.178 13.58 176.738 12.82C176.311 12.06 176.098 11.16 176.098 10.12C176.098 9.10667 176.305 8.22 176.718 7.46C177.145 6.7 177.725 6.10667 178.458 5.68C179.205 5.24 180.051 5.02 180.998 5.02C181.691 5.02 182.311 5.13333 182.858 5.36C183.418 5.58667 183.891 5.91333 184.278 6.34C184.678 6.76667 184.978 7.28667 185.178 7.9C185.391 8.5 185.498 9.18 185.498 9.94C185.498 10.18 185.411 10.3667 185.238 10.5C185.078 10.62 184.845 10.68 184.538 10.68H178.118V9.24H183.738L183.418 9.54C183.418 8.92667 183.325 8.41333 183.138 8C182.965 7.58667 182.705 7.27333 182.358 7.06C182.025 6.83333 181.605 6.72 181.098 6.72C180.538 6.72 180.058 6.85333 179.658 7.12C179.271 7.37333 178.971 7.74 178.758 8.22C178.558 8.68667 178.458 9.24667 178.458 9.9V10.04C178.458 11.1333 178.711 11.9533 179.218 12.5C179.738 13.0333 180.498 13.3 181.498 13.3C181.845 13.3 182.231 13.26 182.658 13.18C183.098 13.0867 183.511 12.9333 183.898 12.72C184.178 12.56 184.425 12.4933 184.638 12.52C184.851 12.5333 185.018 12.6067 185.138 12.74C185.271 12.8733 185.351 13.04 185.378 13.24C185.405 13.4267 185.365 13.62 185.258 13.82C185.165 14.02 184.998 14.1933 184.758 14.34C184.291 14.6333 183.751 14.8533 183.138 15C182.538 15.1333 181.978 15.2 181.458 15.2ZM191.998 15.2C190.971 15.2 190.078 14.9933 189.318 14.58C188.558 14.1533 187.971 13.5533 187.558 12.78C187.144 12.0067 186.938 11.1 186.938 10.06C186.938 9.27333 187.051 8.57333 187.278 7.96C187.518 7.33333 187.858 6.80667 188.298 6.38C188.738 5.94 189.271 5.60667 189.898 5.38C190.524 5.14 191.224 5.02 191.998 5.02C192.438 5.02 192.911 5.08 193.418 5.2C193.938 5.32 194.424 5.52 194.878 5.8C195.091 5.93333 195.231 6.09333 195.298 6.28C195.364 6.46667 195.378 6.66 195.338 6.86C195.298 7.04667 195.211 7.21333 195.078 7.36C194.958 7.49333 194.804 7.58 194.618 7.62C194.431 7.64667 194.224 7.6 193.998 7.48C193.704 7.30667 193.404 7.18 193.098 7.1C192.791 7.00667 192.498 6.96 192.218 6.96C191.778 6.96 191.391 7.03333 191.058 7.18C190.724 7.31333 190.438 7.51333 190.198 7.78C189.971 8.03333 189.798 8.35333 189.678 8.74C189.558 9.12667 189.498 9.57333 189.498 10.08C189.498 11.0667 189.731 11.8467 190.198 12.42C190.678 12.98 191.351 13.26 192.218 13.26C192.498 13.26 192.784 13.22 193.078 13.14C193.384 13.06 193.691 12.9333 193.998 12.76C194.224 12.64 194.424 12.6 194.598 12.64C194.784 12.68 194.938 12.7733 195.058 12.92C195.178 13.0533 195.251 13.22 195.278 13.42C195.304 13.6067 195.278 13.7933 195.198 13.98C195.131 14.1667 194.998 14.32 194.798 14.44C194.358 14.7067 193.891 14.9 193.398 15.02C192.904 15.14 192.438 15.2 191.998 15.2ZM201.43 15.2C200.564 15.2 199.837 15.0533 199.25 14.76C198.677 14.4667 198.25 14.04 197.97 13.48C197.69 12.9067 197.55 12.2 197.55 11.36V7.1H196.51C196.19 7.1 195.944 7.02 195.77 6.86C195.597 6.68667 195.51 6.45333 195.51 6.16C195.51 5.85333 195.597 5.62 195.77 5.46C195.944 5.3 196.19 5.22 196.51 5.22H197.55V3.4C197.55 2.98667 197.657 2.67333 197.87 2.46C198.097 2.24667 198.41 2.14 198.81 2.14C199.21 2.14 199.517 2.24667 199.73 2.46C199.944 2.67333 200.05 2.98667 200.05 3.4V5.22H202.17C202.49 5.22 202.737 5.3 202.91 5.46C203.084 5.62 203.17 5.85333 203.17 6.16C203.17 6.45333 203.084 6.68667 202.91 6.86C202.737 7.02 202.49 7.1 202.17 7.1H200.05V11.22C200.05 11.86 200.19 12.34 200.47 12.66C200.75 12.98 201.204 13.14 201.83 13.14C202.057 13.14 202.257 13.12 202.43 13.08C202.604 13.04 202.757 13.0133 202.89 13C203.05 12.9867 203.184 13.04 203.29 13.16C203.397 13.2667 203.45 13.4933 203.45 13.84C203.45 14.1067 203.404 14.3467 203.31 14.56C203.23 14.76 203.077 14.9 202.85 14.98C202.677 15.0333 202.45 15.08 202.17 15.12C201.89 15.1733 201.644 15.2 201.43 15.2ZM206.12 15.14C205.72 15.14 205.413 15.02 205.2 14.78C204.987 14.54 204.88 14.2067 204.88 13.78V6.44C204.88 6 204.987 5.66667 205.2 5.44C205.413 5.2 205.72 5.08 206.12 5.08C206.52 5.08 206.827 5.2 207.04 5.44C207.267 5.66667 207.38 6 207.38 6.44V13.78C207.38 14.2067 207.273 14.54 207.06 14.78C206.847 15.02 206.533 15.14 206.12 15.14ZM206.12 3.22C205.653 3.22 205.287 3.10667 205.02 2.88C204.767 2.64 204.64 2.31333 204.64 1.9C204.64 1.47333 204.767 1.14667 205.02 0.919999C205.287 0.693333 205.653 0.58 206.12 0.58C206.6 0.58 206.967 0.693333 207.22 0.919999C207.473 1.14667 207.6 1.47333 207.6 1.9C207.6 2.31333 207.473 2.64 207.22 2.88C206.967 3.10667 206.6 3.22 206.12 3.22ZM214.438 15.2C213.424 15.2 212.544 14.9933 211.798 14.58C211.051 14.1667 210.471 13.58 210.058 12.82C209.644 12.0467 209.438 11.14 209.438 10.1C209.438 9.31333 209.551 8.61333 209.778 8C210.018 7.37333 210.358 6.84 210.798 6.4C211.238 5.94667 211.764 5.60667 212.378 5.38C212.991 5.14 213.678 5.02 214.438 5.02C215.451 5.02 216.331 5.22667 217.078 5.64C217.824 6.05333 218.404 6.64 218.818 7.4C219.231 8.16 219.438 9.06 219.438 10.1C219.438 10.8867 219.318 11.5933 219.078 12.22C218.851 12.8467 218.518 13.3867 218.078 13.84C217.638 14.28 217.111 14.62 216.498 14.86C215.884 15.0867 215.198 15.2 214.438 15.2ZM214.438 13.3C214.931 13.3 215.364 13.18 215.738 12.94C216.111 12.7 216.398 12.3467 216.598 11.88C216.811 11.4 216.918 10.8067 216.918 10.1C216.918 9.03333 216.691 8.24 216.238 7.72C215.784 7.18667 215.184 6.92 214.438 6.92C213.944 6.92 213.511 7.04 213.138 7.28C212.764 7.50667 212.471 7.86 212.258 8.34C212.058 8.80667 211.958 9.39333 211.958 10.1C211.958 11.1533 212.184 11.9533 212.638 12.5C213.091 13.0333 213.691 13.3 214.438 13.3ZM222.741 15.16C222.341 15.16 222.035 15.0533 221.821 14.84C221.608 14.6133 221.501 14.2933 221.501 13.88V6.32C221.501 5.90667 221.608 5.59333 221.821 5.38C222.035 5.16667 222.335 5.06 222.721 5.06C223.108 5.06 223.408 5.16667 223.621 5.38C223.835 5.59333 223.941 5.90667 223.941 6.32V7.68L223.721 7.18C224.015 6.47333 224.468 5.94 225.081 5.58C225.708 5.20667 226.415 5.02 227.201 5.02C227.988 5.02 228.635 5.16667 229.141 5.46C229.648 5.75333 230.028 6.2 230.281 6.8C230.535 7.38667 230.661 8.13333 230.661 9.04V13.88C230.661 14.2933 230.555 14.6133 230.341 14.84C230.128 15.0533 229.821 15.16 229.421 15.16C229.021 15.16 228.708 15.0533 228.481 14.84C228.268 14.6133 228.161 14.2933 228.161 13.88V9.16C228.161 8.4 228.015 7.84667 227.721 7.5C227.441 7.15333 227.001 6.98 226.401 6.98C225.668 6.98 225.081 7.21333 224.641 7.68C224.215 8.13333 224.001 8.74 224.001 9.5V13.88C224.001 14.7333 223.581 15.16 222.741 15.16ZM239.87 15.14C239.47 15.14 239.163 15.02 238.95 14.78C238.737 14.54 238.63 14.2067 238.63 13.78V6.44C238.63 6 238.737 5.66667 238.95 5.44C239.163 5.2 239.47 5.08 239.87 5.08C240.27 5.08 240.577 5.2 240.79 5.44C241.017 5.66667 241.13 6 241.13 6.44V13.78C241.13 14.2067 241.023 14.54 240.81 14.78C240.597 15.02 240.283 15.14 239.87 15.14ZM239.87 3.22C239.403 3.22 239.037 3.10667 238.77 2.88C238.517 2.64 238.39 2.31333 238.39 1.9C238.39 1.47333 238.517 1.14667 238.77 0.919999C239.037 0.693333 239.403 0.58 239.87 0.58C240.35 0.58 240.717 0.693333 240.97 0.919999C241.223 1.14667 241.35 1.47333 241.35 1.9C241.35 2.31333 241.223 2.64 240.97 2.88C240.717 3.10667 240.35 3.22 239.87 3.22ZM244.968 15.16C244.568 15.16 244.261 15.0533 244.048 14.84C243.834 14.6133 243.728 14.2933 243.728 13.88V6.32C243.728 5.90667 243.834 5.59333 244.048 5.38C244.261 5.16667 244.561 5.06 244.948 5.06C245.334 5.06 245.634 5.16667 245.848 5.38C246.061 5.59333 246.168 5.90667 246.168 6.32V7.68L245.948 7.18C246.241 6.47333 246.694 5.94 247.308 5.58C247.934 5.20667 248.641 5.02 249.428 5.02C250.214 5.02 250.861 5.16667 251.368 5.46C251.874 5.75333 252.254 6.2 252.508 6.8C252.761 7.38667 252.888 8.13333 252.888 9.04V13.88C252.888 14.2933 252.781 14.6133 252.568 14.84C252.354 15.0533 252.048 15.16 251.648 15.16C251.248 15.16 250.934 15.0533 250.708 14.84C250.494 14.6133 250.388 14.2933 250.388 13.88V9.16C250.388 8.4 250.241 7.84667 249.948 7.5C249.668 7.15333 249.228 6.98 248.628 6.98C247.894 6.98 247.308 7.21333 246.868 7.68C246.441 8.13333 246.228 8.74 246.228 9.5V13.88C246.228 14.7333 245.808 15.16 244.968 15.16ZM259.907 15.2C259.04 15.2 258.314 15.0533 257.727 14.76C257.154 14.4667 256.727 14.04 256.447 13.48C256.167 12.9067 256.027 12.2 256.027 11.36V7.1H254.987C254.667 7.1 254.42 7.02 254.247 6.86C254.074 6.68667 253.987 6.45333 253.987 6.16C253.987 5.85333 254.074 5.62 254.247 5.46C254.42 5.3 254.667 5.22 254.987 5.22H256.027V3.4C256.027 2.98667 256.134 2.67333 256.347 2.46C256.574 2.24667 256.887 2.14 257.287 2.14C257.687 2.14 257.994 2.24667 258.207 2.46C258.42 2.67333 258.527 2.98667 258.527 3.4V5.22H260.647C260.967 5.22 261.214 5.3 261.387 5.46C261.56 5.62 261.647 5.85333 261.647 6.16C261.647 6.45333 261.56 6.68667 261.387 6.86C261.214 7.02 260.967 7.1 260.647 7.1H258.527V11.22C258.527 11.86 258.667 12.34 258.947 12.66C259.227 12.98 259.68 13.14 260.307 13.14C260.534 13.14 260.734 13.12 260.907 13.08C261.08 13.04 261.234 13.0133 261.367 13C261.527 12.9867 261.66 13.04 261.767 13.16C261.874 13.2667 261.927 13.4933 261.927 13.84C261.927 14.1067 261.88 14.3467 261.787 14.56C261.707 14.76 261.554 14.9 261.327 14.98C261.154 15.0333 260.927 15.08 260.647 15.12C260.367 15.1733 260.12 15.2 259.907 15.2ZM267.465 15.2C266.452 15.2 265.572 14.9933 264.825 14.58C264.078 14.1667 263.498 13.58 263.085 12.82C262.672 12.0467 262.465 11.14 262.465 10.1C262.465 9.31333 262.578 8.61333 262.805 8C263.045 7.37333 263.385 6.84 263.825 6.4C264.265 5.94667 264.792 5.60667 265.405 5.38C266.018 5.14 266.705 5.02 267.465 5.02C268.478 5.02 269.358 5.22667 270.105 5.64C270.852 6.05333 271.432 6.64 271.845 7.4C272.258 8.16 272.465 9.06 272.465 10.1C272.465 10.8867 272.345 11.5933 272.105 12.22C271.878 12.8467 271.545 13.3867 271.105 13.84C270.665 14.28 270.138 14.62 269.525 14.86C268.912 15.0867 268.225 15.2 267.465 15.2ZM267.465 13.3C267.958 13.3 268.392 13.18 268.765 12.94C269.138 12.7 269.425 12.3467 269.625 11.88C269.838 11.4 269.945 10.8067 269.945 10.1C269.945 9.03333 269.718 8.24 269.265 7.72C268.812 7.18667 268.212 6.92 267.465 6.92C266.972 6.92 266.538 7.04 266.165 7.28C265.792 7.50667 265.498 7.86 265.285 8.34C265.085 8.80667 264.985 9.39333 264.985 10.1C264.985 11.1533 265.212 11.9533 265.665 12.5C266.118 13.0333 266.718 13.3 267.465 13.3ZM281.778 15C281.432 15 281.158 14.9067 280.958 14.72C280.772 14.52 280.678 14.2533 280.678 13.92C280.678 13.5733 280.772 13.3133 280.958 13.14C281.158 12.9667 281.432 12.88 281.778 12.88H284.018V3.06H285.258L282.318 4.84C282.065 4.98667 281.825 5.04667 281.598 5.02C281.385 4.98 281.198 4.88667 281.038 4.74C280.892 4.58 280.792 4.39333 280.738 4.18C280.685 3.96667 280.698 3.75333 280.778 3.54C280.872 3.31333 281.045 3.12667 281.298 2.98L284.058 1.32C284.325 1.16 284.592 1.02667 284.858 0.919999C285.125 0.799999 285.372 0.739999 285.598 0.739999C285.878 0.739999 286.112 0.819999 286.298 0.979999C286.485 1.12667 286.578 1.37333 286.578 1.72V12.88H288.618C288.965 12.88 289.232 12.9667 289.418 13.14C289.618 13.3133 289.718 13.5733 289.718 13.92C289.718 14.2667 289.618 14.5333 289.418 14.72C289.232 14.9067 288.965 15 288.618 15H281.778ZM296.65 15.2C294.984 15.2 293.71 14.5733 292.83 13.32C291.95 12.0533 291.51 10.2533 291.51 7.92C291.51 6.34667 291.704 5.02667 292.09 3.96C292.49 2.88 293.07 2.06667 293.83 1.52C294.604 0.973333 295.544 0.699999 296.65 0.699999C298.33 0.699999 299.604 1.31333 300.47 2.54C301.35 3.76667 301.79 5.55333 301.79 7.9C301.79 9.46 301.59 10.7867 301.19 11.88C300.804 12.96 300.23 13.7867 299.47 14.36C298.71 14.92 297.77 15.2 296.65 15.2ZM296.65 13.1C297.557 13.1 298.224 12.68 298.65 11.84C299.09 11 299.31 9.68667 299.31 7.9C299.31 6.11333 299.09 4.82 298.65 4.02C298.224 3.20667 297.557 2.8 296.65 2.8C295.757 2.8 295.09 3.20667 294.65 4.02C294.21 4.82 293.99 6.11333 293.99 7.9C293.99 9.68667 294.21 11 294.65 11.84C295.09 12.68 295.757 13.1 296.65 13.1ZM314.192 15.2C313.086 15.2 312.132 14.9933 311.332 14.58C310.532 14.1667 309.912 13.58 309.472 12.82C309.046 12.06 308.832 11.16 308.832 10.12C308.832 9.10667 309.039 8.22 309.452 7.46C309.879 6.7 310.459 6.10667 311.192 5.68C311.939 5.24 312.786 5.02 313.732 5.02C314.426 5.02 315.046 5.13333 315.592 5.36C316.152 5.58667 316.626 5.91333 317.012 6.34C317.412 6.76667 317.712 7.28667 317.912 7.9C318.126 8.5 318.232 9.18 318.232 9.94C318.232 10.18 318.146 10.3667 317.972 10.5C317.812 10.62 317.579 10.68 317.272 10.68H310.852V9.24H316.472L316.152 9.54C316.152 8.92667 316.059 8.41333 315.872 8C315.699 7.58667 315.439 7.27333 315.092 7.06C314.759 6.83333 314.339 6.72 313.832 6.72C313.272 6.72 312.792 6.85333 312.392 7.12C312.006 7.37333 311.706 7.74 311.492 8.22C311.292 8.68667 311.192 9.24667 311.192 9.9V10.04C311.192 11.1333 311.446 11.9533 311.952 12.5C312.472 13.0333 313.232 13.3 314.232 13.3C314.579 13.3 314.966 13.26 315.392 13.18C315.832 13.0867 316.246 12.9333 316.632 12.72C316.912 12.56 317.159 12.4933 317.372 12.52C317.586 12.5333 317.752 12.6067 317.872 12.74C318.006 12.8733 318.086 13.04 318.112 13.24C318.139 13.4267 318.099 13.62 317.992 13.82C317.899 14.02 317.732 14.1933 317.492 14.34C317.026 14.6333 316.486 14.8533 315.872 15C315.272 15.1333 314.712 15.2 314.192 15.2ZM328.352 18.76C327.952 18.76 327.645 18.6533 327.432 18.44C327.219 18.2267 327.112 17.9133 327.112 17.5V13H327.332C327.119 13.6533 326.705 14.1867 326.092 14.6C325.492 15 324.785 15.2 323.972 15.2C323.119 15.2 322.365 14.9933 321.712 14.58C321.072 14.1667 320.572 13.58 320.212 12.82C319.852 12.0467 319.672 11.14 319.672 10.1C319.672 9.04667 319.852 8.14667 320.212 7.4C320.572 6.64 321.072 6.05333 321.712 5.64C322.365 5.22667 323.119 5.02 323.972 5.02C324.799 5.02 325.519 5.22667 326.132 5.64C326.745 6.05333 327.152 6.6 327.352 7.28L327.132 7.88V6.32C327.132 5.90667 327.239 5.59333 327.452 5.38C327.665 5.16667 327.972 5.06 328.372 5.06C328.772 5.06 329.079 5.16667 329.292 5.38C329.505 5.59333 329.612 5.90667 329.612 6.32V17.5C329.612 17.9133 329.499 18.2267 329.272 18.44C329.059 18.6533 328.752 18.76 328.352 18.76ZM324.672 13.3C325.165 13.3 325.599 13.18 325.972 12.94C326.345 12.7 326.632 12.3467 326.832 11.88C327.045 11.4 327.152 10.8067 327.152 10.1C327.152 9.03333 326.925 8.24 326.472 7.72C326.019 7.18667 325.419 6.92 324.672 6.92C324.179 6.92 323.745 7.04 323.372 7.28C322.999 7.50667 322.705 7.86 322.492 8.34C322.292 8.80667 322.192 9.39333 322.192 10.1C322.192 11.1533 322.419 11.9533 322.872 12.5C323.325 13.0333 323.925 13.3 324.672 13.3ZM335.744 15.2C334.931 15.2 334.258 15.0533 333.724 14.76C333.191 14.4533 332.791 14 332.524 13.4C332.271 12.8 332.144 12.0533 332.144 11.16V6.32C332.144 5.89333 332.251 5.58 332.464 5.38C332.678 5.16667 332.984 5.06 333.384 5.06C333.784 5.06 334.091 5.16667 334.304 5.38C334.531 5.58 334.644 5.89333 334.644 6.32V11.2C334.644 11.8933 334.784 12.4067 335.064 12.74C335.344 13.0733 335.791 13.24 336.404 13.24C337.071 13.24 337.618 13.0133 338.044 12.56C338.471 12.0933 338.684 11.48 338.684 10.72V6.32C338.684 5.89333 338.791 5.58 339.004 5.38C339.218 5.16667 339.524 5.06 339.924 5.06C340.324 5.06 340.631 5.16667 340.844 5.38C341.071 5.58 341.184 5.89333 341.184 6.32V13.88C341.184 14.7333 340.778 15.16 339.964 15.16C339.578 15.16 339.278 15.0533 339.064 14.84C338.851 14.6133 338.744 14.2933 338.744 13.88V12.36L339.024 12.96C338.744 13.68 338.318 14.2333 337.744 14.62C337.184 15.0067 336.518 15.2 335.744 15.2ZM347.006 15.2C346.3 15.2 345.666 15.0667 345.106 14.8C344.56 14.52 344.126 14.1467 343.806 13.68C343.5 13.2133 343.346 12.6867 343.346 12.1C343.346 11.38 343.533 10.8133 343.906 10.4C344.28 9.97333 344.886 9.66667 345.726 9.48C346.566 9.29333 347.693 9.2 349.106 9.2H350.106V10.64H349.126C348.3 10.64 347.64 10.68 347.146 10.76C346.653 10.84 346.3 10.98 346.086 11.18C345.886 11.3667 345.786 11.6333 345.786 11.98C345.786 12.42 345.94 12.78 346.246 13.06C346.553 13.34 346.98 13.48 347.526 13.48C347.966 13.48 348.353 13.38 348.686 13.18C349.033 12.9667 349.306 12.68 349.506 12.32C349.706 11.96 349.806 11.5467 349.806 11.08V8.78C349.806 8.11333 349.66 7.63333 349.366 7.34C349.073 7.04667 348.58 6.9 347.886 6.9C347.5 6.9 347.08 6.94667 346.626 7.04C346.186 7.13333 345.72 7.29333 345.226 7.52C344.973 7.64 344.746 7.67333 344.546 7.62C344.36 7.56667 344.213 7.46 344.106 7.3C344 7.12667 343.946 6.94 343.946 6.74C343.946 6.54 344 6.34667 344.106 6.16C344.213 5.96 344.393 5.81333 344.646 5.72C345.26 5.46667 345.846 5.28667 346.406 5.18C346.98 5.07333 347.5 5.02 347.966 5.02C348.926 5.02 349.713 5.16667 350.326 5.46C350.953 5.75333 351.42 6.2 351.726 6.8C352.033 7.38667 352.186 8.14667 352.186 9.08V13.88C352.186 14.2933 352.086 14.6133 351.886 14.84C351.686 15.0533 351.4 15.16 351.026 15.16C350.653 15.16 350.36 15.0533 350.146 14.84C349.946 14.6133 349.846 14.2933 349.846 13.88V12.92H350.006C349.913 13.3867 349.726 13.7933 349.446 14.14C349.18 14.4733 348.84 14.7333 348.426 14.92C348.013 15.1067 347.54 15.2 347.006 15.2ZM358.064 15.2C356.957 15.2 356.124 14.8867 355.564 14.26C355.004 13.62 354.724 12.6867 354.724 11.46V2C354.724 1.58667 354.83 1.27333 355.044 1.06C355.257 0.846666 355.564 0.739999 355.964 0.739999C356.364 0.739999 356.67 0.846666 356.884 1.06C357.11 1.27333 357.224 1.58667 357.224 2V11.34C357.224 11.9533 357.35 12.4067 357.604 12.7C357.87 12.9933 358.244 13.14 358.724 13.14C358.83 13.14 358.93 13.14 359.024 13.14C359.117 13.1267 359.21 13.1133 359.304 13.1C359.49 13.0733 359.617 13.1267 359.684 13.26C359.75 13.38 359.784 13.6333 359.784 14.02C359.784 14.3533 359.717 14.6133 359.584 14.8C359.45 14.9867 359.23 15.1 358.924 15.14C358.79 15.1533 358.65 15.1667 358.504 15.18C358.357 15.1933 358.21 15.2 358.064 15.2ZM367.78 18.76C367.38 18.76 367.074 18.6533 366.86 18.44C366.647 18.2267 366.54 17.9133 366.54 17.5V6.32C366.54 5.90667 366.647 5.59333 366.86 5.38C367.074 5.16667 367.374 5.06 367.76 5.06C368.16 5.06 368.467 5.16667 368.68 5.38C368.894 5.59333 369 5.90667 369 6.32V7.88L368.78 7.28C368.98 6.6 369.387 6.05333 370 5.64C370.627 5.22667 371.354 5.02 372.18 5.02C373.034 5.02 373.78 5.22667 374.42 5.64C375.074 6.05333 375.58 6.64 375.94 7.4C376.3 8.14667 376.48 9.04667 376.48 10.1C376.48 11.14 376.3 12.0467 375.94 12.82C375.58 13.58 375.08 14.1667 374.44 14.58C373.8 14.9933 373.047 15.2 372.18 15.2C371.367 15.2 370.654 15 370.04 14.6C369.427 14.1867 369.014 13.6533 368.8 13H369.04V17.5C369.04 17.9133 368.927 18.2267 368.7 18.44C368.487 18.6533 368.18 18.76 367.78 18.76ZM371.48 13.3C371.974 13.3 372.407 13.18 372.78 12.94C373.154 12.7 373.44 12.3467 373.64 11.88C373.854 11.4 373.96 10.8067 373.96 10.1C373.96 9.03333 373.734 8.24 373.28 7.72C372.827 7.18667 372.227 6.92 371.48 6.92C370.987 6.92 370.554 7.04 370.18 7.28C369.807 7.50667 369.514 7.86 369.3 8.34C369.1 8.80667 369 9.39333 369 10.1C369 11.1533 369.227 11.9533 369.68 12.5C370.134 13.0333 370.734 13.3 371.48 13.3ZM381.752 15.2C381.046 15.2 380.412 15.0667 379.852 14.8C379.306 14.52 378.872 14.1467 378.552 13.68C378.246 13.2133 378.092 12.6867 378.092 12.1C378.092 11.38 378.279 10.8133 378.652 10.4C379.026 9.97333 379.632 9.66667 380.472 9.48C381.312 9.29333 382.439 9.2 383.852 9.2H384.852V10.64H383.872C383.046 10.64 382.386 10.68 381.892 10.76C381.399 10.84 381.046 10.98 380.832 11.18C380.632 11.3667 380.532 11.6333 380.532 11.98C380.532 12.42 380.686 12.78 380.992 13.06C381.299 13.34 381.726 13.48 382.272 13.48C382.712 13.48 383.099 13.38 383.432 13.18C383.779 12.9667 384.052 12.68 384.252 12.32C384.452 11.96 384.552 11.5467 384.552 11.08V8.78C384.552 8.11333 384.406 7.63333 384.112 7.34C383.819 7.04667 383.326 6.9 382.632 6.9C382.246 6.9 381.826 6.94667 381.372 7.04C380.932 7.13333 380.466 7.29333 379.972 7.52C379.719 7.64 379.492 7.67333 379.292 7.62C379.106 7.56667 378.959 7.46 378.852 7.3C378.746 7.12667 378.692 6.94 378.692 6.74C378.692 6.54 378.746 6.34667 378.852 6.16C378.959 5.96 379.139 5.81333 379.392 5.72C380.006 5.46667 380.592 5.28667 381.152 5.18C381.726 5.07333 382.246 5.02 382.712 5.02C383.672 5.02 384.459 5.16667 385.072 5.46C385.699 5.75333 386.166 6.2 386.472 6.8C386.779 7.38667 386.932 8.14667 386.932 9.08V13.88C386.932 14.2933 386.832 14.6133 386.632 14.84C386.432 15.0533 386.146 15.16 385.772 15.16C385.399 15.16 385.106 15.0533 384.892 14.84C384.692 14.6133 384.592 14.2933 384.592 13.88V12.92H384.752C384.659 13.3867 384.472 13.7933 384.192 14.14C383.926 14.4733 383.586 14.7333 383.172 14.92C382.759 15.1067 382.286 15.2 381.752 15.2ZM390.75 15.16C390.337 15.16 390.017 15.0533 389.79 14.84C389.577 14.6133 389.47 14.2933 389.47 13.88V6.32C389.47 5.90667 389.577 5.59333 389.79 5.38C390.003 5.16667 390.303 5.06 390.69 5.06C391.077 5.06 391.377 5.16667 391.59 5.38C391.803 5.59333 391.91 5.90667 391.91 6.32V7.58H391.71C391.897 6.78 392.263 6.17333 392.81 5.76C393.357 5.34667 394.083 5.1 394.99 5.02C395.27 4.99333 395.49 5.06667 395.65 5.24C395.823 5.4 395.923 5.65333 395.95 6C395.977 6.33333 395.897 6.60667 395.71 6.82C395.537 7.02 395.27 7.14 394.91 7.18L394.47 7.22C393.657 7.3 393.043 7.55333 392.63 7.98C392.217 8.39333 392.01 8.98 392.01 9.74V13.88C392.01 14.2933 391.903 14.6133 391.69 14.84C391.477 15.0533 391.163 15.16 390.75 15.16ZM402.348 15.2C401.482 15.2 400.755 15.0533 400.168 14.76C399.595 14.4667 399.168 14.04 398.888 13.48C398.608 12.9067 398.468 12.2 398.468 11.36V7.1H397.428C397.108 7.1 396.862 7.02 396.688 6.86C396.515 6.68667 396.428 6.45333 396.428 6.16C396.428 5.85333 396.515 5.62 396.688 5.46C396.862 5.3 397.108 5.22 397.428 5.22H398.468V3.4C398.468 2.98667 398.575 2.67333 398.788 2.46C399.015 2.24667 399.328 2.14 399.728 2.14C400.128 2.14 400.435 2.24667 400.648 2.46C400.862 2.67333 400.968 2.98667 400.968 3.4V5.22H403.088C403.408 5.22 403.655 5.3 403.828 5.46C404.002 5.62 404.088 5.85333 404.088 6.16C404.088 6.45333 404.002 6.68667 403.828 6.86C403.655 7.02 403.408 7.1 403.088 7.1H400.968V11.22C400.968 11.86 401.108 12.34 401.388 12.66C401.668 12.98 402.122 13.14 402.748 13.14C402.975 13.14 403.175 13.12 403.348 13.08C403.522 13.04 403.675 13.0133 403.808 13C403.968 12.9867 404.102 13.04 404.208 13.16C404.315 13.2667 404.368 13.4933 404.368 13.84C404.368 14.1067 404.322 14.3467 404.228 14.56C404.148 14.76 403.995 14.9 403.768 14.98C403.595 15.0333 403.368 15.08 403.088 15.12C402.808 15.1733 402.562 15.2 402.348 15.2ZM409.124 15.2C408.551 15.2 407.944 15.14 407.304 15.02C406.664 14.9 406.091 14.6933 405.584 14.4C405.371 14.2667 405.217 14.1133 405.124 13.94C405.044 13.7533 405.011 13.5733 405.024 13.4C405.051 13.2133 405.117 13.0533 405.224 12.92C405.344 12.7867 405.491 12.7 405.664 12.66C405.851 12.62 406.051 12.6533 406.264 12.76C406.797 13.0133 407.297 13.1933 407.764 13.3C408.231 13.3933 408.691 13.44 409.144 13.44C409.784 13.44 410.257 13.3333 410.564 13.12C410.884 12.8933 411.044 12.6 411.044 12.24C411.044 11.9333 410.937 11.7 410.724 11.54C410.524 11.3667 410.217 11.24 409.804 11.16L407.804 10.78C406.977 10.62 406.344 10.32 405.904 9.88C405.477 9.42667 405.264 8.84667 405.264 8.14C405.264 7.5 405.437 6.94667 405.784 6.48C406.144 6.01333 406.637 5.65333 407.264 5.4C407.891 5.14667 408.611 5.02 409.424 5.02C410.011 5.02 410.557 5.08667 411.064 5.22C411.584 5.34 412.084 5.53333 412.564 5.8C412.764 5.90667 412.897 6.04667 412.964 6.22C413.044 6.39333 413.064 6.57333 413.024 6.76C412.984 6.93333 412.904 7.09333 412.784 7.24C412.664 7.37333 412.511 7.46 412.324 7.5C412.151 7.52667 411.951 7.48667 411.724 7.38C411.311 7.16667 410.911 7.01333 410.524 6.92C410.151 6.82667 409.791 6.78 409.444 6.78C408.791 6.78 408.304 6.89333 407.984 7.12C407.677 7.34667 407.524 7.64667 407.524 8.02C407.524 8.3 407.617 8.53333 407.804 8.72C407.991 8.90667 408.277 9.03333 408.664 9.1L410.664 9.48C411.531 9.64 412.184 9.93333 412.624 10.36C413.077 10.7867 413.304 11.36 413.304 12.08C413.304 13.0533 412.924 13.82 412.164 14.38C411.404 14.9267 410.391 15.2 409.124 15.2ZM416.412 15.1C415.959 15.1 415.592 14.96 415.312 14.68C415.045 14.4 414.912 14.04 414.912 13.6C414.912 13.1733 415.045 12.8267 415.312 12.56C415.592 12.28 415.959 12.14 416.412 12.14C416.879 12.14 417.239 12.28 417.492 12.56C417.759 12.8267 417.892 13.1733 417.892 13.6C417.892 14.04 417.759 14.4 417.492 14.68C417.239 14.96 416.879 15.1 416.412 15.1Z" fill="#444444"/>
</svg>
