<svg width="447" height="28" viewBox="0 0 447 28" fill="none" xmlns="http://www.w3.org/2000/svg">
<path d="M1.427 21.16C1.014 21.16 0.694003 21.0467 0.467003 20.82C0.254003 20.58 0.147003 20.2533 0.147003 19.84V8.19999C0.147003 7.77332 0.261 7.45332 0.487 7.23999C0.714 7.01332 1.034 6.89999 1.447 6.89999H6.267C7.814 6.89999 9.007 7.27332 9.847 8.01999C10.687 8.75332 11.107 9.78666 11.107 11.12C11.107 11.9867 10.914 12.7333 10.527 13.36C10.154 13.9867 9.607 14.4667 8.887 14.8C8.167 15.1333 7.294 15.3 6.267 15.3L6.447 15H7.107C7.654 15 8.127 15.1333 8.527 15.4C8.941 15.6667 9.301 16.0867 9.607 16.66L11.107 19.44C11.267 19.72 11.341 19.9933 11.327 20.26C11.314 20.5267 11.214 20.7467 11.027 20.92C10.841 21.08 10.567 21.16 10.207 21.16C9.847 21.16 9.554 21.0867 9.327 20.94C9.101 20.78 8.901 20.54 8.727 20.22L6.707 16.5C6.467 16.0467 6.181 15.7467 5.847 15.6C5.527 15.44 5.114 15.36 4.607 15.36H2.707V19.84C2.707 20.2533 2.601 20.58 2.387 20.82C2.174 21.0467 1.854 21.16 1.427 21.16ZM2.707 13.46H5.827C6.747 13.46 7.441 13.2733 7.907 12.9C8.387 12.5133 8.627 11.94 8.627 11.18C8.627 10.4333 8.387 9.87332 7.907 9.49999C7.441 9.11332 6.747 8.91999 5.827 8.91999H2.707V13.46ZM18.184 21.2C17.078 21.2 16.124 20.9933 15.324 20.58C14.524 20.1667 13.904 19.58 13.464 18.82C13.038 18.06 12.824 17.16 12.824 16.12C12.824 15.1067 13.031 14.22 13.444 13.46C13.871 12.7 14.451 12.1067 15.184 11.68C15.931 11.24 16.778 11.02 17.724 11.02C18.418 11.02 19.038 11.1333 19.584 11.36C20.144 11.5867 20.618 11.9133 21.004 12.34C21.404 12.7667 21.704 13.2867 21.904 13.9C22.118 14.5 22.224 15.18 22.224 15.94C22.224 16.18 22.138 16.3667 21.964 16.5C21.804 16.62 21.571 16.68 21.264 16.68H14.844V15.24H20.464L20.144 15.54C20.144 14.9267 20.051 14.4133 19.864 14C19.691 13.5867 19.431 13.2733 19.084 13.06C18.751 12.8333 18.331 12.72 17.824 12.72C17.264 12.72 16.784 12.8533 16.384 13.12C15.998 13.3733 15.698 13.74 15.484 14.22C15.284 14.6867 15.184 15.2467 15.184 15.9V16.04C15.184 17.1333 15.438 17.9533 15.944 18.5C16.464 19.0333 17.224 19.3 18.224 19.3C18.571 19.3 18.958 19.26 19.384 19.18C19.824 19.0867 20.238 18.9333 20.624 18.72C20.904 18.56 21.151 18.4933 21.364 18.52C21.578 18.5333 21.744 18.6067 21.864 18.74C21.998 18.8733 22.078 19.04 22.104 19.24C22.131 19.4267 22.091 19.62 21.984 19.82C21.891 20.02 21.724 20.1933 21.484 20.34C21.018 20.6333 20.478 20.8533 19.864 21C19.264 21.1333 18.704 21.2 18.184 21.2ZM25.444 24.76C25.044 24.76 24.738 24.6533 24.524 24.44C24.311 24.2267 24.204 23.9133 24.204 23.5V12.32C24.204 11.9067 24.311 11.5933 24.524 11.38C24.738 11.1667 25.038 11.06 25.424 11.06C25.824 11.06 26.131 11.1667 26.344 11.38C26.558 11.5933 26.664 11.9067 26.664 12.32V13.88L26.444 13.28C26.644 12.6 27.051 12.0533 27.664 11.64C28.291 11.2267 29.018 11.02 29.844 11.02C30.698 11.02 31.444 11.2267 32.084 11.64C32.738 12.0533 33.244 12.64 33.604 13.4C33.964 14.1467 34.144 15.0467 34.144 16.1C34.144 17.14 33.964 18.0467 33.604 18.82C33.244 19.58 32.744 20.1667 32.104 20.58C31.464 20.9933 30.711 21.2 29.844 21.2C29.031 21.2 28.318 21 27.704 20.6C27.091 20.1867 26.678 19.6533 26.464 19H26.704V23.5C26.704 23.9133 26.591 24.2267 26.364 24.44C26.151 24.6533 25.844 24.76 25.444 24.76ZM29.144 19.3C29.638 19.3 30.071 19.18 30.444 18.94C30.818 18.7 31.104 18.3467 31.304 17.88C31.518 17.4 31.624 16.8067 31.624 16.1C31.624 15.0333 31.398 14.24 30.944 13.72C30.491 13.1867 29.891 12.92 29.144 12.92C28.651 12.92 28.218 13.04 27.844 13.28C27.471 13.5067 27.178 13.86 26.964 14.34C26.764 14.8067 26.664 15.3933 26.664 16.1C26.664 17.1533 26.891 17.9533 27.344 18.5C27.798 19.0333 28.398 19.3 29.144 19.3ZM37.476 21.16C37.063 21.16 36.743 21.0533 36.516 20.84C36.303 20.6133 36.196 20.2933 36.196 19.88V12.32C36.196 11.9067 36.303 11.5933 36.516 11.38C36.73 11.1667 37.03 11.06 37.416 11.06C37.803 11.06 38.103 11.1667 38.316 11.38C38.53 11.5933 38.636 11.9067 38.636 12.32V13.58H38.436C38.623 12.78 38.99 12.1733 39.536 11.76C40.083 11.3467 40.81 11.1 41.716 11.02C41.996 10.9933 42.216 11.0667 42.376 11.24C42.55 11.4 42.65 11.6533 42.676 12C42.703 12.3333 42.623 12.6067 42.436 12.82C42.263 13.02 41.996 13.14 41.636 13.18L41.196 13.22C40.383 13.3 39.77 13.5533 39.356 13.98C38.943 14.3933 38.736 14.98 38.736 15.74V19.88C38.736 20.2933 38.63 20.6133 38.416 20.84C38.203 21.0533 37.89 21.16 37.476 21.16ZM48.692 21.2C47.586 21.2 46.632 20.9933 45.832 20.58C45.032 20.1667 44.412 19.58 43.972 18.82C43.546 18.06 43.332 17.16 43.332 16.12C43.332 15.1067 43.539 14.22 43.952 13.46C44.379 12.7 44.959 12.1067 45.692 11.68C46.439 11.24 47.286 11.02 48.232 11.02C48.926 11.02 49.546 11.1333 50.092 11.36C50.652 11.5867 51.126 11.9133 51.512 12.34C51.912 12.7667 52.212 13.2867 52.412 13.9C52.626 14.5 52.732 15.18 52.732 15.94C52.732 16.18 52.646 16.3667 52.472 16.5C52.312 16.62 52.079 16.68 51.772 16.68H45.352V15.24H50.972L50.652 15.54C50.652 14.9267 50.559 14.4133 50.372 14C50.199 13.5867 49.939 13.2733 49.592 13.06C49.259 12.8333 48.839 12.72 48.332 12.72C47.772 12.72 47.292 12.8533 46.892 13.12C46.506 13.3733 46.206 13.74 45.992 14.22C45.792 14.6867 45.692 15.2467 45.692 15.9V16.04C45.692 17.1333 45.946 17.9533 46.452 18.5C46.972 19.0333 47.732 19.3 48.732 19.3C49.079 19.3 49.466 19.26 49.892 19.18C50.332 19.0867 50.746 18.9333 51.132 18.72C51.412 18.56 51.659 18.4933 51.872 18.52C52.086 18.5333 52.252 18.6067 52.372 18.74C52.506 18.8733 52.586 19.04 52.612 19.24C52.639 19.4267 52.599 19.62 52.492 19.82C52.399 20.02 52.232 20.1933 51.992 20.34C51.526 20.6333 50.986 20.8533 50.372 21C49.772 21.1333 49.212 21.2 48.692 21.2ZM58.292 21.2C57.719 21.2 57.112 21.14 56.472 21.02C55.832 20.9 55.259 20.6933 54.752 20.4C54.539 20.2667 54.385 20.1133 54.292 19.94C54.212 19.7533 54.179 19.5733 54.192 19.4C54.219 19.2133 54.285 19.0533 54.392 18.92C54.512 18.7867 54.659 18.7 54.832 18.66C55.019 18.62 55.219 18.6533 55.432 18.76C55.965 19.0133 56.465 19.1933 56.932 19.3C57.399 19.3933 57.859 19.44 58.312 19.44C58.952 19.44 59.425 19.3333 59.732 19.12C60.052 18.8933 60.212 18.6 60.212 18.24C60.212 17.9333 60.105 17.7 59.892 17.54C59.692 17.3667 59.385 17.24 58.972 17.16L56.972 16.78C56.145 16.62 55.512 16.32 55.072 15.88C54.645 15.4267 54.432 14.8467 54.432 14.14C54.432 13.5 54.605 12.9467 54.952 12.48C55.312 12.0133 55.805 11.6533 56.432 11.4C57.059 11.1467 57.779 11.02 58.592 11.02C59.179 11.02 59.725 11.0867 60.232 11.22C60.752 11.34 61.252 11.5333 61.732 11.8C61.932 11.9067 62.065 12.0467 62.132 12.22C62.212 12.3933 62.232 12.5733 62.192 12.76C62.152 12.9333 62.072 13.0933 61.952 13.24C61.832 13.3733 61.679 13.46 61.492 13.5C61.319 13.5267 61.119 13.4867 60.892 13.38C60.479 13.1667 60.079 13.0133 59.692 12.92C59.319 12.8267 58.959 12.78 58.612 12.78C57.959 12.78 57.472 12.8933 57.152 13.12C56.845 13.3467 56.692 13.6467 56.692 14.02C56.692 14.3 56.785 14.5333 56.972 14.72C57.159 14.9067 57.445 15.0333 57.832 15.1L59.832 15.48C60.699 15.64 61.352 15.9333 61.792 16.36C62.245 16.7867 62.472 17.36 62.472 18.08C62.472 19.0533 62.092 19.82 61.332 20.38C60.572 20.9267 59.559 21.2 58.292 21.2ZM69.298 21.2C68.191 21.2 67.238 20.9933 66.438 20.58C65.638 20.1667 65.018 19.58 64.578 18.82C64.151 18.06 63.938 17.16 63.938 16.12C63.938 15.1067 64.144 14.22 64.558 13.46C64.984 12.7 65.564 12.1067 66.298 11.68C67.044 11.24 67.891 11.02 68.838 11.02C69.531 11.02 70.151 11.1333 70.698 11.36C71.258 11.5867 71.731 11.9133 72.118 12.34C72.518 12.7667 72.818 13.2867 73.018 13.9C73.231 14.5 73.338 15.18 73.338 15.94C73.338 16.18 73.251 16.3667 73.078 16.5C72.918 16.62 72.684 16.68 72.378 16.68H65.958V15.24H71.578L71.258 15.54C71.258 14.9267 71.164 14.4133 70.978 14C70.804 13.5867 70.544 13.2733 70.198 13.06C69.864 12.8333 69.444 12.72 68.938 12.72C68.378 12.72 67.898 12.8533 67.498 13.12C67.111 13.3733 66.811 13.74 66.598 14.22C66.398 14.6867 66.298 15.2467 66.298 15.9V16.04C66.298 17.1333 66.551 17.9533 67.058 18.5C67.578 19.0333 68.338 19.3 69.338 19.3C69.684 19.3 70.071 19.26 70.498 19.18C70.938 19.0867 71.351 18.9333 71.738 18.72C72.018 18.56 72.264 18.4933 72.478 18.52C72.691 18.5333 72.858 18.6067 72.978 18.74C73.111 18.8733 73.191 19.04 73.218 19.24C73.244 19.4267 73.204 19.62 73.098 19.82C73.004 20.02 72.838 20.1933 72.598 20.34C72.131 20.6333 71.591 20.8533 70.978 21C70.378 21.1333 69.818 21.2 69.298 21.2ZM76.558 21.16C76.158 21.16 75.851 21.0533 75.638 20.84C75.424 20.6133 75.318 20.2933 75.318 19.88V12.32C75.318 11.9067 75.424 11.5933 75.638 11.38C75.851 11.1667 76.151 11.06 76.538 11.06C76.924 11.06 77.224 11.1667 77.438 11.38C77.651 11.5933 77.758 11.9067 77.758 12.32V13.68L77.538 13.18C77.831 12.4733 78.284 11.94 78.898 11.58C79.524 11.2067 80.231 11.02 81.018 11.02C81.804 11.02 82.451 11.1667 82.958 11.46C83.464 11.7533 83.844 12.2 84.098 12.8C84.351 13.3867 84.478 14.1333 84.478 15.04V19.88C84.478 20.2933 84.371 20.6133 84.158 20.84C83.944 21.0533 83.638 21.16 83.238 21.16C82.838 21.16 82.524 21.0533 82.298 20.84C82.084 20.6133 81.978 20.2933 81.978 19.88V15.16C81.978 14.4 81.831 13.8467 81.538 13.5C81.258 13.1533 80.818 12.98 80.218 12.98C79.484 12.98 78.898 13.2133 78.458 13.68C78.031 14.1333 77.818 14.74 77.818 15.5V19.88C77.818 20.7333 77.398 21.16 76.558 21.16ZM91.497 21.2C90.63 21.2 89.903 21.0533 89.317 20.76C88.743 20.4667 88.317 20.04 88.037 19.48C87.757 18.9067 87.617 18.2 87.617 17.36V13.1H86.577C86.257 13.1 86.01 13.02 85.837 12.86C85.663 12.6867 85.577 12.4533 85.577 12.16C85.577 11.8533 85.663 11.62 85.837 11.46C86.01 11.3 86.257 11.22 86.577 11.22H87.617V9.39999C87.617 8.98666 87.723 8.67332 87.937 8.45999C88.163 8.24666 88.477 8.13999 88.877 8.13999C89.277 8.13999 89.583 8.24666 89.797 8.45999C90.01 8.67332 90.117 8.98666 90.117 9.39999V11.22H92.237C92.557 11.22 92.803 11.3 92.977 11.46C93.15 11.62 93.237 11.8533 93.237 12.16C93.237 12.4533 93.15 12.6867 92.977 12.86C92.803 13.02 92.557 13.1 92.237 13.1H90.117V17.22C90.117 17.86 90.257 18.34 90.537 18.66C90.817 18.98 91.27 19.14 91.897 19.14C92.123 19.14 92.323 19.12 92.497 19.08C92.67 19.04 92.823 19.0133 92.957 19C93.117 18.9867 93.25 19.04 93.357 19.16C93.463 19.2667 93.517 19.4933 93.517 19.84C93.517 20.1067 93.47 20.3467 93.377 20.56C93.297 20.76 93.143 20.9 92.917 20.98C92.743 21.0333 92.517 21.08 92.237 21.12C91.957 21.1733 91.71 21.2 91.497 21.2Z" fill="#444444"/>
<path d="M144.5 0H103.5C100.739 0 98.5 2.23858 98.5 5V23C98.5 25.7614 100.739 28 103.5 28H144.5C147.261 28 149.5 25.7614 149.5 23V5C149.5 2.23858 147.261 0 144.5 0Z" fill="#E8F0FE"/>
<path d="M109.251 21.2C108.531 21.2 107.785 21.1067 107.011 20.92C106.238 20.7333 105.565 20.4533 104.991 20.08C104.725 19.9067 104.545 19.7067 104.451 19.48C104.358 19.2533 104.331 19.04 104.371 18.84C104.425 18.6267 104.525 18.4467 104.671 18.3C104.831 18.1533 105.025 18.0667 105.251 18.04C105.491 18.0133 105.751 18.0733 106.031 18.22C106.578 18.5133 107.105 18.7267 107.611 18.86C108.118 18.98 108.638 19.04 109.171 19.04C109.758 19.04 110.251 18.96 110.651 18.8C111.051 18.64 111.351 18.4 111.551 18.08C111.765 17.76 111.871 17.3733 111.871 16.92C111.871 16.2533 111.645 15.76 111.191 15.44C110.751 15.1067 110.105 14.94 109.251 14.94H107.971C107.598 14.94 107.311 14.8467 107.111 14.66C106.925 14.4733 106.831 14.2133 106.831 13.88C106.831 13.5467 106.925 13.2867 107.111 13.1C107.311 12.9133 107.598 12.82 107.971 12.82H109.011C109.518 12.82 109.951 12.74 110.311 12.58C110.671 12.4067 110.951 12.1667 111.151 11.86C111.351 11.5533 111.451 11.18 111.451 10.74C111.451 10.1267 111.245 9.66001 110.831 9.34001C110.431 9.02001 109.845 8.86001 109.071 8.86001C108.578 8.86001 108.111 8.92001 107.671 9.04001C107.245 9.14668 106.771 9.35334 106.251 9.66001C106.011 9.80668 105.778 9.86668 105.551 9.84001C105.338 9.81334 105.158 9.72668 105.011 9.58001C104.865 9.43334 104.765 9.26001 104.711 9.06001C104.658 8.84668 104.671 8.63334 104.751 8.42001C104.831 8.19334 104.998 8.00001 105.251 7.84001C105.825 7.46668 106.458 7.18668 107.151 7.00001C107.845 6.80001 108.558 6.70001 109.291 6.70001C110.265 6.70001 111.098 6.85334 111.791 7.16001C112.485 7.45334 113.011 7.88001 113.371 8.44001C113.745 8.98668 113.931 9.65334 113.931 10.44C113.931 11 113.825 11.5133 113.611 11.98C113.398 12.4333 113.098 12.82 112.711 13.14C112.325 13.46 111.858 13.6867 111.311 13.82V13.58C112.271 13.74 113.018 14.14 113.551 14.78C114.085 15.4067 114.351 16.1933 114.351 17.14C114.351 17.9667 114.145 18.6867 113.731 19.3C113.318 19.9133 112.731 20.3867 111.971 20.72C111.211 21.04 110.305 21.2 109.251 21.2ZM118.023 21.1C117.57 21.1 117.203 20.96 116.923 20.68C116.657 20.4 116.523 20.04 116.523 19.6C116.523 19.1733 116.657 18.8267 116.923 18.56C117.203 18.28 117.57 18.14 118.023 18.14C118.49 18.14 118.85 18.28 119.103 18.56C119.37 18.8267 119.503 19.1733 119.503 19.6C119.503 20.04 119.37 20.4 119.103 20.68C118.85 20.96 118.49 21.1 118.023 21.1ZM128.744 21.16C128.344 21.16 128.031 21.0533 127.804 20.84C127.578 20.6133 127.464 20.2933 127.464 19.88V18.32H122.524C122.111 18.32 121.778 18.2333 121.524 18.06C121.284 17.8867 121.164 17.6133 121.164 17.24C121.164 17.0267 121.218 16.7933 121.324 16.54C121.444 16.2867 121.651 15.9533 121.944 15.54L127.424 7.60001C127.611 7.32001 127.818 7.10668 128.044 6.96001C128.271 6.81334 128.531 6.74001 128.824 6.74001C129.171 6.74001 129.458 6.84668 129.684 7.06001C129.911 7.26001 130.024 7.58001 130.024 8.02001V16.2H131.004C131.391 16.2 131.678 16.2933 131.864 16.48C132.064 16.6533 132.164 16.9133 132.164 17.26C132.164 17.6067 132.064 17.8733 131.864 18.06C131.678 18.2333 131.391 18.32 131.004 18.32H130.024V19.88C130.024 20.2933 129.911 20.6133 129.684 20.84C129.458 21.0533 129.144 21.16 128.744 21.16ZM127.464 16.2V9.96001H128.044L123.324 16.88V16.2H127.464ZM135.917 21.16C135.61 21.16 135.357 21.0867 135.157 20.94C134.957 20.7933 134.837 20.6 134.797 20.36C134.757 20.1067 134.817 19.8267 134.977 19.52L141.017 8.16001V9.04001H134.537C134.177 9.04001 133.897 8.94668 133.697 8.76001C133.51 8.57334 133.417 8.31334 133.417 7.98001C133.417 7.63334 133.51 7.36668 133.697 7.18001C133.897 6.99334 134.177 6.90001 134.537 6.90001H142.277C142.637 6.90001 142.93 6.99334 143.157 7.18001C143.383 7.36668 143.497 7.63334 143.497 7.98001C143.497 8.27334 143.457 8.53334 143.377 8.76001C143.297 8.97334 143.19 9.20668 143.057 9.46001L137.377 20.32C137.23 20.6133 137.037 20.8267 136.797 20.96C136.57 21.0933 136.277 21.16 135.917 21.16Z" fill="#6595DE"/>
<path d="M160.383 21.2C159.37 21.2 158.49 20.9933 157.743 20.58C156.996 20.1667 156.416 19.58 156.003 18.82C155.59 18.0467 155.383 17.14 155.383 16.1C155.383 15.3133 155.496 14.6133 155.723 14C155.963 13.3733 156.303 12.84 156.743 12.4C157.183 11.9467 157.71 11.6067 158.323 11.38C158.936 11.14 159.623 11.02 160.383 11.02C161.396 11.02 162.276 11.2267 163.023 11.64C163.77 12.0533 164.35 12.64 164.763 13.4C165.176 14.16 165.383 15.06 165.383 16.1C165.383 16.8867 165.263 17.5933 165.023 18.22C164.796 18.8467 164.463 19.3867 164.023 19.84C163.583 20.28 163.056 20.62 162.443 20.86C161.83 21.0867 161.143 21.2 160.383 21.2ZM160.383 19.3C160.876 19.3 161.31 19.18 161.683 18.94C162.056 18.7 162.343 18.3467 162.543 17.88C162.756 17.4 162.863 16.8067 162.863 16.1C162.863 15.0333 162.636 14.24 162.183 13.72C161.73 13.1867 161.13 12.92 160.383 12.92C159.89 12.92 159.456 13.04 159.083 13.28C158.71 13.5067 158.416 13.86 158.203 14.34C158.003 14.8067 157.903 15.3933 157.903 16.1C157.903 17.1533 158.13 17.9533 158.583 18.5C159.036 19.0333 159.636 19.3 160.383 19.3ZM168.686 21.16C168.286 21.16 167.98 21.0533 167.766 20.84C167.553 20.6133 167.446 20.2933 167.446 19.88V12.32C167.446 11.9067 167.553 11.5933 167.766 11.38C167.98 11.1667 168.28 11.06 168.666 11.06C169.053 11.06 169.353 11.1667 169.566 11.38C169.78 11.5933 169.886 11.9067 169.886 12.32V13.68L169.666 13.18C169.96 12.4733 170.413 11.94 171.026 11.58C171.653 11.2067 172.36 11.02 173.146 11.02C173.933 11.02 174.58 11.1667 175.086 11.46C175.593 11.7533 175.973 12.2 176.226 12.8C176.48 13.3867 176.606 14.1333 176.606 15.04V19.88C176.606 20.2933 176.5 20.6133 176.286 20.84C176.073 21.0533 175.766 21.16 175.366 21.16C174.966 21.16 174.653 21.0533 174.426 20.84C174.213 20.6133 174.106 20.2933 174.106 19.88V15.16C174.106 14.4 173.96 13.8467 173.666 13.5C173.386 13.1533 172.946 12.98 172.346 12.98C171.613 12.98 171.026 13.2133 170.586 13.68C170.16 14.1333 169.946 14.74 169.946 15.5V19.88C169.946 20.7333 169.526 21.16 168.686 21.16ZM189.055 21.2C188.189 21.2 187.462 21.0533 186.875 20.76C186.302 20.4667 185.875 20.04 185.595 19.48C185.315 18.9067 185.175 18.2 185.175 17.36V13.1H184.135C183.815 13.1 183.569 13.02 183.395 12.86C183.222 12.6867 183.135 12.4533 183.135 12.16C183.135 11.8533 183.222 11.62 183.395 11.46C183.569 11.3 183.815 11.22 184.135 11.22H185.175V9.39999C185.175 8.98666 185.282 8.67332 185.495 8.45999C185.722 8.24666 186.035 8.13999 186.435 8.13999C186.835 8.13999 187.142 8.24666 187.355 8.45999C187.569 8.67332 187.675 8.98666 187.675 9.39999V11.22H189.795C190.115 11.22 190.362 11.3 190.535 11.46C190.709 11.62 190.795 11.8533 190.795 12.16C190.795 12.4533 190.709 12.6867 190.535 12.86C190.362 13.02 190.115 13.1 189.795 13.1H187.675V17.22C187.675 17.86 187.815 18.34 188.095 18.66C188.375 18.98 188.829 19.14 189.455 19.14C189.682 19.14 189.882 19.12 190.055 19.08C190.229 19.04 190.382 19.0133 190.515 19C190.675 18.9867 190.809 19.04 190.915 19.16C191.022 19.2667 191.075 19.4933 191.075 19.84C191.075 20.1067 191.029 20.3467 190.935 20.56C190.855 20.76 190.702 20.9 190.475 20.98C190.302 21.0333 190.075 21.08 189.795 21.12C189.515 21.1733 189.269 21.2 189.055 21.2ZM193.745 21.16C193.345 21.16 193.038 21.0533 192.825 20.84C192.612 20.6133 192.505 20.2933 192.505 19.88V7.99999C192.505 7.58666 192.612 7.27332 192.825 7.05999C193.038 6.84666 193.345 6.73999 193.745 6.73999C194.145 6.73999 194.452 6.84666 194.665 7.05999C194.892 7.27332 195.005 7.58666 195.005 7.99999V13.18H194.725C195.018 12.4733 195.472 11.94 196.085 11.58C196.712 11.2067 197.418 11.02 198.205 11.02C198.992 11.02 199.638 11.1667 200.145 11.46C200.652 11.7533 201.032 12.2 201.285 12.8C201.538 13.3867 201.665 14.1333 201.665 15.04V19.88C201.665 20.2933 201.558 20.6133 201.345 20.84C201.132 21.0533 200.825 21.16 200.425 21.16C200.025 21.16 199.712 21.0533 199.485 20.84C199.272 20.6133 199.165 20.2933 199.165 19.88V15.16C199.165 14.4 199.018 13.8467 198.725 13.5C198.445 13.1533 198.005 12.98 197.405 12.98C196.672 12.98 196.085 13.2133 195.645 13.68C195.218 14.1333 195.005 14.74 195.005 15.5V19.88C195.005 20.7333 194.585 21.16 193.745 21.16ZM209.024 21.2C207.918 21.2 206.964 20.9933 206.164 20.58C205.364 20.1667 204.744 19.58 204.304 18.82C203.878 18.06 203.664 17.16 203.664 16.12C203.664 15.1067 203.871 14.22 204.284 13.46C204.711 12.7 205.291 12.1067 206.024 11.68C206.771 11.24 207.618 11.02 208.564 11.02C209.258 11.02 209.878 11.1333 210.424 11.36C210.984 11.5867 211.458 11.9133 211.844 12.34C212.244 12.7667 212.544 13.2867 212.744 13.9C212.958 14.5 213.064 15.18 213.064 15.94C213.064 16.18 212.978 16.3667 212.804 16.5C212.644 16.62 212.411 16.68 212.104 16.68H205.684V15.24H211.304L210.984 15.54C210.984 14.9267 210.891 14.4133 210.704 14C210.531 13.5867 210.271 13.2733 209.924 13.06C209.591 12.8333 209.171 12.72 208.664 12.72C208.104 12.72 207.624 12.8533 207.224 13.12C206.838 13.3733 206.538 13.74 206.324 14.22C206.124 14.6867 206.024 15.2467 206.024 15.9V16.04C206.024 17.1333 206.278 17.9533 206.784 18.5C207.304 19.0333 208.064 19.3 209.064 19.3C209.411 19.3 209.798 19.26 210.224 19.18C210.664 19.0867 211.078 18.9333 211.464 18.72C211.744 18.56 211.991 18.4933 212.204 18.52C212.418 18.5333 212.584 18.6067 212.704 18.74C212.838 18.8733 212.918 19.04 212.944 19.24C212.971 19.4267 212.931 19.62 212.824 19.82C212.731 20.02 212.564 20.1933 212.324 20.34C211.858 20.6333 211.318 20.8533 210.704 21C210.104 21.1333 209.544 21.2 209.024 21.2ZM221.714 21.16C221.314 21.16 221.007 21.0533 220.794 20.84C220.58 20.6133 220.474 20.2933 220.474 19.88V7.99999C220.474 7.58666 220.58 7.27332 220.794 7.05999C221.007 6.84666 221.314 6.73999 221.714 6.73999C222.114 6.73999 222.42 6.84666 222.634 7.05999C222.86 7.27332 222.974 7.58666 222.974 7.99999V13.18H222.694C222.987 12.4733 223.44 11.94 224.054 11.58C224.68 11.2067 225.387 11.02 226.174 11.02C226.96 11.02 227.607 11.1667 228.114 11.46C228.62 11.7533 229 12.2 229.254 12.8C229.507 13.3867 229.634 14.1333 229.634 15.04V19.88C229.634 20.2933 229.527 20.6133 229.314 20.84C229.1 21.0533 228.794 21.16 228.394 21.16C227.994 21.16 227.68 21.0533 227.454 20.84C227.24 20.6133 227.134 20.2933 227.134 19.88V15.16C227.134 14.4 226.987 13.8467 226.694 13.5C226.414 13.1533 225.974 12.98 225.374 12.98C224.64 12.98 224.054 13.2133 223.614 13.68C223.187 14.1333 222.974 14.74 222.974 15.5V19.88C222.974 20.7333 222.554 21.16 221.714 21.16ZM235.713 21.2C234.9 21.2 234.226 21.0533 233.693 20.76C233.16 20.4533 232.76 20 232.493 19.4C232.24 18.8 232.113 18.0533 232.113 17.16V12.32C232.113 11.8933 232.22 11.58 232.433 11.38C232.646 11.1667 232.953 11.06 233.353 11.06C233.753 11.06 234.06 11.1667 234.273 11.38C234.5 11.58 234.613 11.8933 234.613 12.32V17.2C234.613 17.8933 234.753 18.4067 235.033 18.74C235.313 19.0733 235.76 19.24 236.373 19.24C237.04 19.24 237.586 19.0133 238.013 18.56C238.44 18.0933 238.653 17.48 238.653 16.72V12.32C238.653 11.8933 238.76 11.58 238.973 11.38C239.186 11.1667 239.493 11.06 239.893 11.06C240.293 11.06 240.6 11.1667 240.813 11.38C241.04 11.58 241.153 11.8933 241.153 12.32V19.88C241.153 20.7333 240.746 21.16 239.933 21.16C239.546 21.16 239.246 21.0533 239.033 20.84C238.82 20.6133 238.713 20.2933 238.713 19.88V18.36L238.993 18.96C238.713 19.68 238.286 20.2333 237.713 20.62C237.153 21.0067 236.486 21.2 235.713 21.2ZM244.995 21.16C244.595 21.16 244.288 21.0533 244.075 20.84C243.862 20.6133 243.755 20.2933 243.755 19.88V12.32C243.755 11.9067 243.862 11.5933 244.075 11.38C244.288 11.1667 244.588 11.06 244.975 11.06C245.362 11.06 245.662 11.1667 245.875 11.38C246.088 11.5933 246.195 11.9067 246.195 12.32V13.68L245.975 13.18C246.268 12.4733 246.722 11.94 247.335 11.58C247.962 11.2067 248.668 11.02 249.455 11.02C250.242 11.02 250.888 11.1667 251.395 11.46C251.902 11.7533 252.282 12.2 252.535 12.8C252.788 13.3867 252.915 14.1333 252.915 15.04V19.88C252.915 20.2933 252.808 20.6133 252.595 20.84C252.382 21.0533 252.075 21.16 251.675 21.16C251.275 21.16 250.962 21.0533 250.735 20.84C250.522 20.6133 250.415 20.2933 250.415 19.88V15.16C250.415 14.4 250.268 13.8467 249.975 13.5C249.695 13.1533 249.255 12.98 248.655 12.98C247.922 12.98 247.335 13.2133 246.895 13.68C246.468 14.1333 246.255 14.74 246.255 15.5V19.88C246.255 20.7333 245.835 21.16 244.995 21.16ZM259.214 21.2C258.361 21.2 257.608 20.9933 256.954 20.58C256.314 20.1667 255.814 19.58 255.454 18.82C255.094 18.0467 254.914 17.14 254.914 16.1C254.914 15.0467 255.094 14.1467 255.454 13.4C255.814 12.64 256.314 12.0533 256.954 11.64C257.608 11.2267 258.361 11.02 259.214 11.02C260.028 11.02 260.734 11.22 261.334 11.62C261.948 12.02 262.361 12.5467 262.574 13.2H262.354V7.99999C262.354 7.58666 262.461 7.27332 262.674 7.05999C262.888 6.84666 263.194 6.73999 263.594 6.73999C263.994 6.73999 264.301 6.84666 264.514 7.05999C264.741 7.27332 264.854 7.58666 264.854 7.99999V19.88C264.854 20.2933 264.748 20.6133 264.534 20.84C264.321 21.0533 264.014 21.16 263.614 21.16C263.214 21.16 262.908 21.0533 262.694 20.84C262.481 20.6133 262.374 20.2933 262.374 19.88V18.32L262.594 18.92C262.394 19.6133 261.988 20.1667 261.374 20.58C260.761 20.9933 260.041 21.2 259.214 21.2ZM259.914 19.3C260.408 19.3 260.841 19.18 261.214 18.94C261.588 18.7 261.874 18.3467 262.074 17.88C262.288 17.4 262.394 16.8067 262.394 16.1C262.394 15.0333 262.168 14.24 261.714 13.72C261.261 13.1867 260.661 12.92 259.914 12.92C259.421 12.92 258.988 13.04 258.614 13.28C258.241 13.5067 257.948 13.86 257.734 14.34C257.534 14.8067 257.434 15.3933 257.434 16.1C257.434 17.1533 257.661 17.9533 258.114 18.5C258.568 19.0333 259.168 19.3 259.914 19.3ZM268.726 21.16C268.313 21.16 267.993 21.0533 267.766 20.84C267.553 20.6133 267.446 20.2933 267.446 19.88V12.32C267.446 11.9067 267.553 11.5933 267.766 11.38C267.98 11.1667 268.28 11.06 268.666 11.06C269.053 11.06 269.353 11.1667 269.566 11.38C269.78 11.5933 269.886 11.9067 269.886 12.32V13.58H269.686C269.873 12.78 270.24 12.1733 270.786 11.76C271.333 11.3467 272.06 11.1 272.966 11.02C273.246 10.9933 273.466 11.0667 273.626 11.24C273.8 11.4 273.9 11.6533 273.926 12C273.953 12.3333 273.873 12.6067 273.686 12.82C273.513 13.02 273.246 13.14 272.886 13.18L272.446 13.22C271.633 13.3 271.02 13.5533 270.606 13.98C270.193 14.3933 269.986 14.98 269.986 15.74V19.88C269.986 20.2933 269.88 20.6133 269.666 20.84C269.453 21.0533 269.14 21.16 268.726 21.16ZM279.942 21.2C278.836 21.2 277.882 20.9933 277.082 20.58C276.282 20.1667 275.662 19.58 275.222 18.82C274.796 18.06 274.582 17.16 274.582 16.12C274.582 15.1067 274.789 14.22 275.202 13.46C275.629 12.7 276.209 12.1067 276.942 11.68C277.689 11.24 278.536 11.02 279.482 11.02C280.176 11.02 280.796 11.1333 281.342 11.36C281.902 11.5867 282.376 11.9133 282.762 12.34C283.162 12.7667 283.462 13.2867 283.662 13.9C283.876 14.5 283.982 15.18 283.982 15.94C283.982 16.18 283.896 16.3667 283.722 16.5C283.562 16.62 283.329 16.68 283.022 16.68H276.602V15.24H282.222L281.902 15.54C281.902 14.9267 281.809 14.4133 281.622 14C281.449 13.5867 281.189 13.2733 280.842 13.06C280.509 12.8333 280.089 12.72 279.582 12.72C279.022 12.72 278.542 12.8533 278.142 13.12C277.756 13.3733 277.456 13.74 277.242 14.22C277.042 14.6867 276.942 15.2467 276.942 15.9V16.04C276.942 17.1333 277.196 17.9533 277.702 18.5C278.222 19.0333 278.982 19.3 279.982 19.3C280.329 19.3 280.716 19.26 281.142 19.18C281.582 19.0867 281.996 18.9333 282.382 18.72C282.662 18.56 282.909 18.4933 283.122 18.52C283.336 18.5333 283.502 18.6067 283.622 18.74C283.756 18.8733 283.836 19.04 283.862 19.24C283.889 19.4267 283.849 19.62 283.742 19.82C283.649 20.02 283.482 20.1933 283.242 20.34C282.776 20.6333 282.236 20.8533 281.622 21C281.022 21.1333 280.462 21.2 279.942 21.2ZM289.722 21.2C288.869 21.2 288.115 20.9933 287.462 20.58C286.822 20.1667 286.322 19.58 285.962 18.82C285.602 18.0467 285.422 17.14 285.422 16.1C285.422 15.0467 285.602 14.1467 285.962 13.4C286.322 12.64 286.822 12.0533 287.462 11.64C288.115 11.2267 288.869 11.02 289.722 11.02C290.535 11.02 291.242 11.22 291.842 11.62C292.455 12.02 292.869 12.5467 293.082 13.2H292.862V7.99999C292.862 7.58666 292.969 7.27332 293.182 7.05999C293.395 6.84666 293.702 6.73999 294.102 6.73999C294.502 6.73999 294.809 6.84666 295.022 7.05999C295.249 7.27332 295.362 7.58666 295.362 7.99999V19.88C295.362 20.2933 295.255 20.6133 295.042 20.84C294.829 21.0533 294.522 21.16 294.122 21.16C293.722 21.16 293.415 21.0533 293.202 20.84C292.989 20.6133 292.882 20.2933 292.882 19.88V18.32L293.102 18.92C292.902 19.6133 292.495 20.1667 291.882 20.58C291.269 20.9933 290.549 21.2 289.722 21.2ZM290.422 19.3C290.915 19.3 291.349 19.18 291.722 18.94C292.095 18.7 292.382 18.3467 292.582 17.88C292.795 17.4 292.902 16.8067 292.902 16.1C292.902 15.0333 292.675 14.24 292.222 13.72C291.769 13.1867 291.169 12.92 290.422 12.92C289.929 12.92 289.495 13.04 289.122 13.28C288.749 13.5067 288.455 13.86 288.242 14.34C288.042 14.8067 287.942 15.3933 287.942 16.1C287.942 17.1533 288.169 17.9533 288.622 18.5C289.075 19.0333 289.675 19.3 290.422 19.3ZM302.434 21.2C301.568 21.2 300.841 21.0533 300.254 20.76C299.681 20.4667 299.254 20.04 298.974 19.48C298.694 18.9067 298.554 18.2 298.554 17.36V13.1H297.514C297.194 13.1 296.948 13.02 296.774 12.86C296.601 12.6867 296.514 12.4533 296.514 12.16C296.514 11.8533 296.601 11.62 296.774 11.46C296.948 11.3 297.194 11.22 297.514 11.22H298.554V9.39999C298.554 8.98666 298.661 8.67332 298.874 8.45999C299.101 8.24666 299.414 8.13999 299.814 8.13999C300.214 8.13999 300.521 8.24666 300.734 8.45999C300.948 8.67332 301.054 8.98666 301.054 9.39999V11.22H303.174C303.494 11.22 303.741 11.3 303.914 11.46C304.088 11.62 304.174 11.8533 304.174 12.16C304.174 12.4533 304.088 12.6867 303.914 12.86C303.741 13.02 303.494 13.1 303.174 13.1H301.054V17.22C301.054 17.86 301.194 18.34 301.474 18.66C301.754 18.98 302.208 19.14 302.834 19.14C303.061 19.14 303.261 19.12 303.434 19.08C303.608 19.04 303.761 19.0133 303.894 19C304.054 18.9867 304.188 19.04 304.294 19.16C304.401 19.2667 304.454 19.4933 304.454 19.84C304.454 20.1067 304.408 20.3467 304.314 20.56C304.234 20.76 304.081 20.9 303.854 20.98C303.681 21.0333 303.454 21.08 303.174 21.12C302.894 21.1733 302.648 21.2 302.434 21.2ZM307.124 21.16C306.724 21.16 306.417 21.0533 306.204 20.84C305.991 20.6133 305.884 20.2933 305.884 19.88V7.99999C305.884 7.58666 305.991 7.27332 306.204 7.05999C306.417 6.84666 306.724 6.73999 307.124 6.73999C307.524 6.73999 307.831 6.84666 308.044 7.05999C308.271 7.27332 308.384 7.58666 308.384 7.99999V13.18H308.104C308.397 12.4733 308.851 11.94 309.464 11.58C310.091 11.2067 310.797 11.02 311.584 11.02C312.371 11.02 313.017 11.1667 313.524 11.46C314.031 11.7533 314.411 12.2 314.664 12.8C314.917 13.3867 315.044 14.1333 315.044 15.04V19.88C315.044 20.2933 314.937 20.6133 314.724 20.84C314.511 21.0533 314.204 21.16 313.804 21.16C313.404 21.16 313.091 21.0533 312.864 20.84C312.651 20.6133 312.544 20.2933 312.544 19.88V15.16C312.544 14.4 312.397 13.8467 312.104 13.5C311.824 13.1533 311.384 12.98 310.784 12.98C310.051 12.98 309.464 13.2133 309.024 13.68C308.597 14.1333 308.384 14.74 308.384 15.5V19.88C308.384 20.7333 307.964 21.16 307.124 21.16ZM321.163 21.2C320.59 21.2 319.983 21.14 319.343 21.02C318.703 20.9 318.13 20.6933 317.623 20.4C317.41 20.2667 317.257 20.1133 317.163 19.94C317.083 19.7533 317.05 19.5733 317.063 19.4C317.09 19.2133 317.157 19.0533 317.263 18.92C317.383 18.7867 317.53 18.7 317.703 18.66C317.89 18.62 318.09 18.6533 318.303 18.76C318.837 19.0133 319.337 19.1933 319.803 19.3C320.27 19.3933 320.73 19.44 321.183 19.44C321.823 19.44 322.297 19.3333 322.603 19.12C322.923 18.8933 323.083 18.6 323.083 18.24C323.083 17.9333 322.977 17.7 322.763 17.54C322.563 17.3667 322.257 17.24 321.843 17.16L319.843 16.78C319.017 16.62 318.383 16.32 317.943 15.88C317.517 15.4267 317.303 14.8467 317.303 14.14C317.303 13.5 317.477 12.9467 317.823 12.48C318.183 12.0133 318.677 11.6533 319.303 11.4C319.93 11.1467 320.65 11.02 321.463 11.02C322.05 11.02 322.597 11.0867 323.103 11.22C323.623 11.34 324.123 11.5333 324.603 11.8C324.803 11.9067 324.937 12.0467 325.003 12.22C325.083 12.3933 325.103 12.5733 325.063 12.76C325.023 12.9333 324.943 13.0933 324.823 13.24C324.703 13.3733 324.55 13.46 324.363 13.5C324.19 13.5267 323.99 13.4867 323.763 13.38C323.35 13.1667 322.95 13.0133 322.563 12.92C322.19 12.8267 321.83 12.78 321.483 12.78C320.83 12.78 320.343 12.8933 320.023 13.12C319.717 13.3467 319.563 13.6467 319.563 14.02C319.563 14.3 319.657 14.5333 319.843 14.72C320.03 14.9067 320.317 15.0333 320.703 15.1L322.703 15.48C323.57 15.64 324.223 15.9333 324.663 16.36C325.117 16.7867 325.343 17.36 325.343 18.08C325.343 19.0533 324.963 19.82 324.203 20.38C323.443 20.9267 322.43 21.2 321.163 21.2ZM334.019 21.16C333.619 21.16 333.312 21.0533 333.099 20.84C332.885 20.6133 332.779 20.2933 332.779 19.88V12.32C332.779 11.9067 332.885 11.5933 333.099 11.38C333.312 11.1667 333.612 11.06 333.999 11.06C334.385 11.06 334.685 11.1667 334.899 11.38C335.112 11.5933 335.219 11.9067 335.219 12.32V13.68L334.999 13.18C335.292 12.4733 335.745 11.94 336.359 11.58C336.985 11.2067 337.692 11.02 338.479 11.02C339.265 11.02 339.912 11.1667 340.419 11.46C340.925 11.7533 341.305 12.2 341.559 12.8C341.812 13.3867 341.939 14.1333 341.939 15.04V19.88C341.939 20.2933 341.832 20.6133 341.619 20.84C341.405 21.0533 341.099 21.16 340.699 21.16C340.299 21.16 339.985 21.0533 339.759 20.84C339.545 20.6133 339.439 20.2933 339.439 19.88V15.16C339.439 14.4 339.292 13.8467 338.999 13.5C338.719 13.1533 338.279 12.98 337.679 12.98C336.945 12.98 336.359 13.2133 335.919 13.68C335.492 14.1333 335.279 14.74 335.279 15.5V19.88C335.279 20.7333 334.859 21.16 334.019 21.16ZM348.018 21.2C347.204 21.2 346.531 21.0533 345.998 20.76C345.464 20.4533 345.064 20 344.798 19.4C344.544 18.8 344.418 18.0533 344.418 17.16V12.32C344.418 11.8933 344.524 11.58 344.738 11.38C344.951 11.1667 345.258 11.06 345.658 11.06C346.058 11.06 346.364 11.1667 346.578 11.38C346.804 11.58 346.918 11.8933 346.918 12.32V17.2C346.918 17.8933 347.058 18.4067 347.338 18.74C347.618 19.0733 348.064 19.24 348.678 19.24C349.344 19.24 349.891 19.0133 350.318 18.56C350.744 18.0933 350.958 17.48 350.958 16.72V12.32C350.958 11.8933 351.064 11.58 351.278 11.38C351.491 11.1667 351.798 11.06 352.198 11.06C352.598 11.06 352.904 11.1667 353.118 11.38C353.344 11.58 353.458 11.8933 353.458 12.32V19.88C353.458 20.7333 353.051 21.16 352.238 21.16C351.851 21.16 351.551 21.0533 351.338 20.84C351.124 20.6133 351.018 20.2933 351.018 19.88V18.36L351.298 18.96C351.018 19.68 350.591 20.2333 350.018 20.62C349.458 21.0067 348.791 21.2 348.018 21.2ZM357.34 21.16C356.94 21.16 356.633 21.0533 356.42 20.84C356.206 20.6133 356.1 20.2933 356.1 19.88V12.32C356.1 11.9067 356.206 11.5933 356.42 11.38C356.633 11.1667 356.933 11.06 357.32 11.06C357.706 11.06 358.006 11.1667 358.22 11.38C358.433 11.5933 358.54 11.9067 358.54 12.32V13.78L358.32 13.18C358.586 12.5133 359 11.9867 359.56 11.6C360.12 11.2133 360.786 11.02 361.56 11.02C362.346 11.02 362.993 11.2067 363.5 11.58C364.006 11.9533 364.36 12.5267 364.56 13.3H364.28C364.546 12.5933 364.986 12.04 365.6 11.64C366.213 11.2267 366.92 11.02 367.72 11.02C368.466 11.02 369.08 11.1667 369.56 11.46C370.053 11.7533 370.42 12.2 370.66 12.8C370.9 13.3867 371.02 14.1333 371.02 15.04V19.88C371.02 20.2933 370.906 20.6133 370.68 20.84C370.466 21.0533 370.16 21.16 369.76 21.16C369.36 21.16 369.053 21.0533 368.84 20.84C368.626 20.6133 368.52 20.2933 368.52 19.88V15.14C368.52 14.3933 368.393 13.8467 368.14 13.5C367.9 13.1533 367.486 12.98 366.9 12.98C366.246 12.98 365.733 13.2133 365.36 13.68C364.986 14.1333 364.8 14.7667 364.8 15.58V19.88C364.8 20.2933 364.693 20.6133 364.48 20.84C364.266 21.0533 363.96 21.16 363.56 21.16C363.16 21.16 362.846 21.0533 362.62 20.84C362.406 20.6133 362.3 20.2933 362.3 19.88V15.14C362.3 14.3933 362.173 13.8467 361.92 13.5C361.68 13.1533 361.273 12.98 360.7 12.98C360.046 12.98 359.533 13.2133 359.16 13.68C358.786 14.1333 358.6 14.7667 358.6 15.58V19.88C358.6 20.7333 358.18 21.16 357.34 21.16ZM379.239 21.2C378.412 21.2 377.685 20.9933 377.059 20.58C376.445 20.1667 376.039 19.6133 375.839 18.92L376.059 18.42V19.88C376.059 20.2933 375.952 20.6133 375.739 20.84C375.525 21.0533 375.225 21.16 374.839 21.16C374.439 21.16 374.132 21.0533 373.919 20.84C373.705 20.6133 373.599 20.2933 373.599 19.88V7.99999C373.599 7.58666 373.705 7.27332 373.919 7.05999C374.132 6.84666 374.439 6.73999 374.839 6.73999C375.239 6.73999 375.545 6.84666 375.759 7.05999C375.985 7.27332 376.099 7.58666 376.099 7.99999V13.2H375.859C376.072 12.5467 376.485 12.02 377.099 11.62C377.712 11.22 378.425 11.02 379.239 11.02C380.105 11.02 380.859 11.2267 381.499 11.64C382.139 12.0533 382.639 12.64 382.999 13.4C383.359 14.1467 383.539 15.0467 383.539 16.1C383.539 17.14 383.359 18.0467 382.999 18.82C382.639 19.58 382.132 20.1667 381.479 20.58C380.839 20.9933 380.092 21.2 379.239 21.2ZM378.539 19.3C379.032 19.3 379.465 19.18 379.839 18.94C380.212 18.7 380.499 18.3467 380.699 17.88C380.912 17.4 381.019 16.8067 381.019 16.1C381.019 15.0333 380.792 14.24 380.339 13.72C379.885 13.1867 379.285 12.92 378.539 12.92C378.045 12.92 377.612 13.04 377.239 13.28C376.865 13.5067 376.572 13.86 376.359 14.34C376.159 14.8067 376.059 15.3933 376.059 16.1C376.059 17.1533 376.285 17.9533 376.739 18.5C377.192 19.0333 377.792 19.3 378.539 19.3ZM390.411 21.2C389.304 21.2 388.351 20.9933 387.551 20.58C386.751 20.1667 386.131 19.58 385.691 18.82C385.264 18.06 385.051 17.16 385.051 16.12C385.051 15.1067 385.258 14.22 385.671 13.46C386.098 12.7 386.678 12.1067 387.411 11.68C388.158 11.24 389.004 11.02 389.951 11.02C390.644 11.02 391.264 11.1333 391.811 11.36C392.371 11.5867 392.844 11.9133 393.231 12.34C393.631 12.7667 393.931 13.2867 394.131 13.9C394.344 14.5 394.451 15.18 394.451 15.94C394.451 16.18 394.364 16.3667 394.191 16.5C394.031 16.62 393.798 16.68 393.491 16.68H387.071V15.24H392.691L392.371 15.54C392.371 14.9267 392.278 14.4133 392.091 14C391.918 13.5867 391.658 13.2733 391.311 13.06C390.978 12.8333 390.558 12.72 390.051 12.72C389.491 12.72 389.011 12.8533 388.611 13.12C388.224 13.3733 387.924 13.74 387.711 14.22C387.511 14.6867 387.411 15.2467 387.411 15.9V16.04C387.411 17.1333 387.664 17.9533 388.171 18.5C388.691 19.0333 389.451 19.3 390.451 19.3C390.798 19.3 391.184 19.26 391.611 19.18C392.051 19.0867 392.464 18.9333 392.851 18.72C393.131 18.56 393.378 18.4933 393.591 18.52C393.804 18.5333 393.971 18.6067 394.091 18.74C394.224 18.8733 394.304 19.04 394.331 19.24C394.358 19.4267 394.318 19.62 394.211 19.82C394.118 20.02 393.951 20.1933 393.711 20.34C393.244 20.6333 392.704 20.8533 392.091 21C391.491 21.1333 390.931 21.2 390.411 21.2ZM397.711 21.16C397.298 21.16 396.978 21.0533 396.751 20.84C396.538 20.6133 396.431 20.2933 396.431 19.88V12.32C396.431 11.9067 396.538 11.5933 396.751 11.38C396.964 11.1667 397.264 11.06 397.651 11.06C398.038 11.06 398.338 11.1667 398.551 11.38C398.764 11.5933 398.871 11.9067 398.871 12.32V13.58H398.671C398.858 12.78 399.224 12.1733 399.771 11.76C400.318 11.3467 401.044 11.1 401.951 11.02C402.231 10.9933 402.451 11.0667 402.611 11.24C402.784 11.4 402.884 11.6533 402.911 12C402.938 12.3333 402.858 12.6067 402.671 12.82C402.498 13.02 402.231 13.14 401.871 13.18L401.431 13.22C400.618 13.3 400.004 13.5533 399.591 13.98C399.178 14.3933 398.971 14.98 398.971 15.74V19.88C398.971 20.2933 398.864 20.6133 398.651 20.84C398.438 21.0533 398.124 21.16 397.711 21.16ZM413.033 21.2C411.926 21.2 411.093 20.8867 410.533 20.26C409.973 19.62 409.693 18.6867 409.693 17.46V7.99999C409.693 7.58666 409.799 7.27332 410.013 7.05999C410.226 6.84666 410.533 6.73999 410.933 6.73999C411.333 6.73999 411.639 6.84666 411.853 7.05999C412.079 7.27332 412.193 7.58666 412.193 7.99999V17.34C412.193 17.9533 412.319 18.4067 412.573 18.7C412.839 18.9933 413.213 19.14 413.693 19.14C413.799 19.14 413.899 19.14 413.993 19.14C414.086 19.1267 414.179 19.1133 414.273 19.1C414.459 19.0733 414.586 19.1267 414.653 19.26C414.719 19.38 414.753 19.6333 414.753 20.02C414.753 20.3533 414.686 20.6133 414.553 20.8C414.419 20.9867 414.199 21.1 413.893 21.14C413.759 21.1533 413.619 21.1667 413.473 21.18C413.326 21.1933 413.179 21.2 413.033 21.2ZM417.319 21.14C416.919 21.14 416.613 21.02 416.399 20.78C416.186 20.54 416.079 20.2067 416.079 19.78V12.44C416.079 12 416.186 11.6667 416.399 11.44C416.613 11.2 416.919 11.08 417.319 11.08C417.719 11.08 418.026 11.2 418.239 11.44C418.466 11.6667 418.579 12 418.579 12.44V19.78C418.579 20.2067 418.473 20.54 418.259 20.78C418.046 21.02 417.733 21.14 417.319 21.14ZM417.319 9.21999C416.853 9.21999 416.486 9.10666 416.219 8.87999C415.966 8.63999 415.839 8.31332 415.839 7.89999C415.839 7.47332 415.966 7.14666 416.219 6.91999C416.486 6.69332 416.853 6.57999 417.319 6.57999C417.799 6.57999 418.166 6.69332 418.419 6.91999C418.673 7.14666 418.799 7.47332 418.799 7.89999C418.799 8.31332 418.673 8.63999 418.419 8.87999C418.166 9.10666 417.799 9.21999 417.319 9.21999ZM422.417 21.16C422.017 21.16 421.71 21.0533 421.497 20.84C421.284 20.6133 421.177 20.2933 421.177 19.88V12.32C421.177 11.9067 421.284 11.5933 421.497 11.38C421.71 11.1667 422.01 11.06 422.397 11.06C422.784 11.06 423.084 11.1667 423.297 11.38C423.51 11.5933 423.617 11.9067 423.617 12.32V13.68L423.397 13.18C423.69 12.4733 424.144 11.94 424.757 11.58C425.384 11.2067 426.09 11.02 426.877 11.02C427.664 11.02 428.31 11.1667 428.817 11.46C429.324 11.7533 429.704 12.2 429.957 12.8C430.21 13.3867 430.337 14.1333 430.337 15.04V19.88C430.337 20.2933 430.23 20.6133 430.017 20.84C429.804 21.0533 429.497 21.16 429.097 21.16C428.697 21.16 428.384 21.0533 428.157 20.84C427.944 20.6133 427.837 20.2933 427.837 19.88V15.16C427.837 14.4 427.69 13.8467 427.397 13.5C427.117 13.1533 426.677 12.98 426.077 12.98C425.344 12.98 424.757 13.2133 424.317 13.68C423.89 14.1333 423.677 14.74 423.677 15.5V19.88C423.677 20.7333 423.257 21.16 422.417 21.16ZM437.696 21.2C436.59 21.2 435.636 20.9933 434.836 20.58C434.036 20.1667 433.416 19.58 432.976 18.82C432.55 18.06 432.336 17.16 432.336 16.12C432.336 15.1067 432.543 14.22 432.956 13.46C433.383 12.7 433.963 12.1067 434.696 11.68C435.443 11.24 436.29 11.02 437.236 11.02C437.93 11.02 438.55 11.1333 439.096 11.36C439.656 11.5867 440.13 11.9133 440.516 12.34C440.916 12.7667 441.216 13.2867 441.416 13.9C441.63 14.5 441.736 15.18 441.736 15.94C441.736 16.18 441.65 16.3667 441.476 16.5C441.316 16.62 441.083 16.68 440.776 16.68H434.356V15.24H439.976L439.656 15.54C439.656 14.9267 439.563 14.4133 439.376 14C439.203 13.5867 438.943 13.2733 438.596 13.06C438.263 12.8333 437.843 12.72 437.336 12.72C436.776 12.72 436.296 12.8533 435.896 13.12C435.51 13.3733 435.21 13.74 434.996 14.22C434.796 14.6867 434.696 15.2467 434.696 15.9V16.04C434.696 17.1333 434.95 17.9533 435.456 18.5C435.976 19.0333 436.736 19.3 437.736 19.3C438.083 19.3 438.47 19.26 438.896 19.18C439.336 19.0867 439.75 18.9333 440.136 18.72C440.416 18.56 440.663 18.4933 440.876 18.52C441.09 18.5333 441.256 18.6067 441.376 18.74C441.51 18.8733 441.59 19.04 441.616 19.24C441.643 19.4267 441.603 19.62 441.496 19.82C441.403 20.02 441.236 20.1933 440.996 20.34C440.53 20.6333 439.99 20.8533 439.376 21C438.776 21.1333 438.216 21.2 437.696 21.2ZM444.916 21.1C444.463 21.1 444.096 20.96 443.816 20.68C443.549 20.4 443.416 20.04 443.416 19.6C443.416 19.1733 443.549 18.8267 443.816 18.56C444.096 18.28 444.463 18.14 444.916 18.14C445.383 18.14 445.743 18.28 445.996 18.56C446.263 18.8267 446.396 19.1733 446.396 19.6C446.396 20.04 446.263 20.4 445.996 20.68C445.743 20.96 445.383 21.1 444.916 21.1Z" fill="#444444"/>
</svg>
