<svg width="586" height="28" viewBox="0 0 586 28" fill="none" xmlns="http://www.w3.org/2000/svg">
<path d="M4.83766 21.16C4.45099 21.16 4.15099 21.0533 3.93766 20.84C3.73766 20.6267 3.63766 20.32 3.63766 19.92V8.02C3.63766 7.60667 3.73766 7.29333 3.93766 7.08C4.15099 6.85333 4.42432 6.74 4.75766 6.74C5.06432 6.74 5.29099 6.8 5.43766 6.92C5.59766 7.02667 5.78432 7.21333 5.99766 7.48L13.6577 17.42H13.1377V7.96C13.1377 7.57333 13.2377 7.27333 13.4377 7.06C13.651 6.84667 13.951 6.74 14.3377 6.74C14.7243 6.74 15.0177 6.84667 15.2177 7.06C15.4177 7.27333 15.5177 7.57333 15.5177 7.96V19.96C15.5177 20.3333 15.4243 20.6267 15.2377 20.84C15.051 21.0533 14.7977 21.16 14.4777 21.16C14.171 21.16 13.9243 21.1 13.7377 20.98C13.5643 20.86 13.371 20.6667 13.1577 20.4L5.51766 10.46H6.01766V19.92C6.01766 20.32 5.91766 20.6267 5.71766 20.84C5.51766 21.0533 5.22432 21.16 4.83766 21.16ZM22.8186 21.2C21.8053 21.2 20.9253 20.9933 20.1786 20.58C19.4319 20.1667 18.8519 19.58 18.4386 18.82C18.0253 18.0467 17.8186 17.14 17.8186 16.1C17.8186 15.3133 17.9319 14.6133 18.1586 14C18.3986 13.3733 18.7386 12.84 19.1786 12.4C19.6186 11.9467 20.1453 11.6067 20.7586 11.38C21.3719 11.14 22.0586 11.02 22.8186 11.02C23.8319 11.02 24.7119 11.2267 25.4586 11.64C26.2053 12.0533 26.7853 12.64 27.1986 13.4C27.6119 14.16 27.8186 15.06 27.8186 16.1C27.8186 16.8867 27.6986 17.5933 27.4586 18.22C27.2319 18.8467 26.8986 19.3867 26.4586 19.84C26.0186 20.28 25.4919 20.62 24.8786 20.86C24.2653 21.0867 23.5786 21.2 22.8186 21.2ZM22.8186 19.3C23.3119 19.3 23.7453 19.18 24.1186 18.94C24.4919 18.7 24.7786 18.3467 24.9786 17.88C25.1919 17.4 25.2986 16.8067 25.2986 16.1C25.2986 15.0333 25.0719 14.24 24.6186 13.72C24.1653 13.1867 23.5653 12.92 22.8186 12.92C22.3253 12.92 21.8919 13.04 21.5186 13.28C21.1453 13.5067 20.8519 13.86 20.6386 14.34C20.4386 14.8067 20.3386 15.3933 20.3386 16.1C20.3386 17.1533 20.5653 17.9533 21.0186 18.5C21.4719 19.0333 22.0719 19.3 22.8186 19.3ZM34.2644 21.2C33.3977 21.2 32.671 21.0533 32.0844 20.76C31.511 20.4667 31.0844 20.04 30.8044 19.48C30.5244 18.9067 30.3844 18.2 30.3844 17.36V13.1H29.3444C29.0244 13.1 28.7777 13.02 28.6044 12.86C28.431 12.6867 28.3444 12.4533 28.3444 12.16C28.3444 11.8533 28.431 11.62 28.6044 11.46C28.7777 11.3 29.0244 11.22 29.3444 11.22H30.3844V9.4C30.3844 8.98667 30.491 8.67333 30.7044 8.46C30.931 8.24667 31.2444 8.14 31.6444 8.14C32.0444 8.14 32.351 8.24667 32.5644 8.46C32.7777 8.67333 32.8844 8.98667 32.8844 9.4V11.22H35.0044C35.3244 11.22 35.571 11.3 35.7444 11.46C35.9177 11.62 36.0044 11.8533 36.0044 12.16C36.0044 12.4533 35.9177 12.6867 35.7444 12.86C35.571 13.02 35.3244 13.1 35.0044 13.1H32.8844V17.22C32.8844 17.86 33.0244 18.34 33.3044 18.66C33.5844 18.98 34.0377 19.14 34.6644 19.14C34.891 19.14 35.091 19.12 35.2644 19.08C35.4377 19.04 35.591 19.0133 35.7244 19C35.8844 18.9867 36.0177 19.04 36.1244 19.16C36.231 19.2667 36.2844 19.4933 36.2844 19.84C36.2844 20.1067 36.2377 20.3467 36.1444 20.56C36.0644 20.76 35.911 20.9 35.6844 20.98C35.511 21.0333 35.2844 21.08 35.0044 21.12C34.7244 21.1733 34.4777 21.2 34.2644 21.2ZM42.1825 21.2C41.0758 21.2 40.1225 20.9933 39.3225 20.58C38.5225 20.1667 37.9025 19.58 37.4625 18.82C37.0358 18.06 36.8225 17.16 36.8225 16.12C36.8225 15.1067 37.0292 14.22 37.4425 13.46C37.8692 12.7 38.4492 12.1067 39.1825 11.68C39.9292 11.24 40.7758 11.02 41.7225 11.02C42.4158 11.02 43.0358 11.1333 43.5825 11.36C44.1425 11.5867 44.6158 11.9133 45.0025 12.34C45.4025 12.7667 45.7025 13.2867 45.9025 13.9C46.1158 14.5 46.2225 15.18 46.2225 15.94C46.2225 16.18 46.1358 16.3667 45.9625 16.5C45.8025 16.62 45.5692 16.68 45.2625 16.68H38.8425V15.24H44.4625L44.1425 15.54C44.1425 14.9267 44.0492 14.4133 43.8625 14C43.6892 13.5867 43.4292 13.2733 43.0825 13.06C42.7492 12.8333 42.3292 12.72 41.8225 12.72C41.2625 12.72 40.7825 12.8533 40.3825 13.12C39.9958 13.3733 39.6958 13.74 39.4825 14.22C39.2825 14.6867 39.1825 15.2467 39.1825 15.9V16.04C39.1825 17.1333 39.4358 17.9533 39.9425 18.5C40.4625 19.0333 41.2225 19.3 42.2225 19.3C42.5692 19.3 42.9558 19.26 43.3825 19.18C43.8225 19.0867 44.2358 18.9333 44.6225 18.72C44.9025 18.56 45.1492 18.4933 45.3625 18.52C45.5758 18.5333 45.7425 18.6067 45.8625 18.74C45.9958 18.8733 46.0758 19.04 46.1025 19.24C46.1292 19.4267 46.0892 19.62 45.9825 19.82C45.8892 20.02 45.7225 20.1933 45.4825 20.34C45.0158 20.6333 44.4758 20.8533 43.8625 21C43.2625 21.1333 42.7025 21.2 42.1825 21.2Z" fill="#444444"/>
<rect x="52" width="39" height="28" rx="5" fill="#E8F0FE"/>
<path d="M63.5473 21.2C62.3873 21.2 61.394 20.9267 60.5673 20.38C59.754 19.82 59.134 19.02 58.7073 17.98C58.2807 16.94 58.0673 15.68 58.0673 14.2C58.0673 13 58.2007 11.94 58.4673 11.02C58.7473 10.0867 59.1473 9.3 59.6673 8.66C60.1873 8.02 60.8207 7.53333 61.5673 7.2C62.3273 6.86667 63.1807 6.7 64.1273 6.7C64.714 6.7 65.3073 6.79333 65.9073 6.98C66.5207 7.15333 67.094 7.42 67.6273 7.78C67.8407 7.91333 67.9807 8.08667 68.0473 8.3C68.114 8.51333 68.1207 8.72667 68.0673 8.94C68.0273 9.14 67.934 9.32 67.7873 9.48C67.654 9.62667 67.4807 9.72 67.2673 9.76C67.054 9.78667 66.8207 9.72667 66.5673 9.58C66.114 9.31333 65.6873 9.12667 65.2873 9.02C64.8873 8.91333 64.4873 8.86 64.0873 8.86C63.314 8.86 62.6607 9.04 62.1273 9.4C61.594 9.76 61.1873 10.3 60.9073 11.02C60.6407 11.74 60.5073 12.64 60.5073 13.72V15.22H60.2673C60.374 14.54 60.594 13.96 60.9273 13.48C61.274 12.9867 61.714 12.6133 62.2473 12.36C62.7807 12.0933 63.374 11.96 64.0273 11.96C64.8407 11.96 65.5607 12.1533 66.1873 12.54C66.814 12.9267 67.3073 13.46 67.6673 14.14C68.0273 14.82 68.2073 15.6 68.2073 16.48C68.2073 17.3867 68.0073 18.2 67.6073 18.92C67.2207 19.6267 66.674 20.1867 65.9673 20.6C65.274 21 64.4673 21.2 63.5473 21.2ZM63.4073 19.16C63.8873 19.16 64.3073 19.0533 64.6673 18.84C65.0407 18.6267 65.3273 18.3267 65.5273 17.94C65.7273 17.54 65.8273 17.0867 65.8273 16.58C65.8273 16.06 65.7273 15.6067 65.5273 15.22C65.3273 14.8333 65.0407 14.5333 64.6673 14.32C64.3073 14.0933 63.8873 13.98 63.4073 13.98C62.9273 13.98 62.5073 14.0933 62.1473 14.32C61.7873 14.5333 61.5007 14.8333 61.2873 15.22C61.0873 15.6067 60.9873 16.06 60.9873 16.58C60.9873 17.0867 61.0873 17.54 61.2873 17.94C61.5007 18.3267 61.7873 18.6267 62.1473 18.84C62.5073 19.0533 62.9273 19.16 63.4073 19.16ZM71.5195 21.1C71.0662 21.1 70.6995 20.96 70.4195 20.68C70.1529 20.4 70.0195 20.04 70.0195 19.6C70.0195 19.1733 70.1529 18.8267 70.4195 18.56C70.6995 18.28 71.0662 18.14 71.5195 18.14C71.9862 18.14 72.3462 18.28 72.5995 18.56C72.8662 18.8267 72.9995 19.1733 72.9995 19.6C72.9995 20.04 72.8662 20.4 72.5995 20.68C72.3462 20.96 71.9862 21.1 71.5195 21.1ZM77.4205 21.16C77.1138 21.16 76.8605 21.0867 76.6605 20.94C76.4605 20.7933 76.3405 20.6 76.3005 20.36C76.2605 20.1067 76.3205 19.8267 76.4805 19.52L82.5205 8.16V9.04H76.0405C75.6805 9.04 75.4005 8.94667 75.2005 8.76C75.0138 8.57333 74.9205 8.31333 74.9205 7.98C74.9205 7.63333 75.0138 7.36667 75.2005 7.18C75.4005 6.99333 75.6805 6.9 76.0405 6.9H83.7805C84.1405 6.9 84.4338 6.99333 84.6605 7.18C84.8871 7.36667 85.0005 7.63333 85.0005 7.98C85.0005 8.27333 84.9605 8.53333 84.8805 8.76C84.8005 8.97333 84.6938 9.20667 84.5605 9.46L78.8805 20.32C78.7338 20.6133 78.5405 20.8267 78.3005 20.96C78.0738 21.0933 77.7805 21.16 77.4205 21.16Z" fill="#6595DE"/>
<path d="M98.5951 18.12C98.3551 18.2 98.1484 18.2067 97.9751 18.14C97.8017 18.06 97.6684 17.9467 97.5751 17.8C97.4817 17.64 97.4351 17.4667 97.4351 17.28C97.4351 17.0933 97.4884 16.92 97.5951 16.76C97.7151 16.6 97.8884 16.4867 98.1151 16.42L106.755 13.68V14.9L98.1151 12.18C97.8884 12.1133 97.7151 12 97.5951 11.84C97.4884 11.68 97.4351 11.5133 97.4351 11.34C97.4351 11.1533 97.4817 10.9867 97.5751 10.84C97.6684 10.68 97.8017 10.5667 97.9751 10.5C98.1484 10.42 98.3551 10.42 98.5951 10.5L106.615 13.12C106.922 13.2133 107.142 13.36 107.275 13.56C107.422 13.7467 107.495 13.9933 107.495 14.3C107.495 14.5933 107.422 14.84 107.275 15.04C107.142 15.24 106.922 15.3933 106.615 15.5L98.5951 18.12ZM98.3151 21C98.0351 21 97.8151 20.9267 97.6551 20.78C97.4951 20.62 97.4151 20.4 97.4151 20.12C97.4151 19.84 97.4951 19.6267 97.6551 19.48C97.8151 19.32 98.0351 19.24 98.3151 19.24H106.595C106.888 19.24 107.108 19.32 107.255 19.48C107.415 19.6267 107.495 19.84 107.495 20.12C107.495 20.4 107.415 20.62 107.255 20.78C107.108 20.9267 106.888 21 106.595 21H98.3151ZM120.397 21.2C119.237 21.2 118.244 20.9267 117.417 20.38C116.604 19.82 115.984 19.02 115.557 17.98C115.13 16.94 114.917 15.68 114.917 14.2C114.917 13 115.05 11.94 115.317 11.02C115.597 10.0867 115.997 9.3 116.517 8.66C117.037 8.02 117.67 7.53333 118.417 7.2C119.177 6.86667 120.03 6.7 120.977 6.7C121.564 6.7 122.157 6.79333 122.757 6.98C123.37 7.15333 123.944 7.42 124.477 7.78C124.69 7.91333 124.83 8.08667 124.897 8.3C124.964 8.51333 124.97 8.72667 124.917 8.94C124.877 9.14 124.784 9.32 124.637 9.48C124.504 9.62667 124.33 9.72 124.117 9.76C123.904 9.78667 123.67 9.72667 123.417 9.58C122.964 9.31333 122.537 9.12667 122.137 9.02C121.737 8.91333 121.337 8.86 120.937 8.86C120.164 8.86 119.51 9.04 118.977 9.4C118.444 9.76 118.037 10.3 117.757 11.02C117.49 11.74 117.357 12.64 117.357 13.72V15.22H117.117C117.224 14.54 117.444 13.96 117.777 13.48C118.124 12.9867 118.564 12.6133 119.097 12.36C119.63 12.0933 120.224 11.96 120.877 11.96C121.69 11.96 122.41 12.1533 123.037 12.54C123.664 12.9267 124.157 13.46 124.517 14.14C124.877 14.82 125.057 15.6 125.057 16.48C125.057 17.3867 124.857 18.2 124.457 18.92C124.07 19.6267 123.524 20.1867 122.817 20.6C122.124 21 121.317 21.2 120.397 21.2ZM120.257 19.16C120.737 19.16 121.157 19.0533 121.517 18.84C121.89 18.6267 122.177 18.3267 122.377 17.94C122.577 17.54 122.677 17.0867 122.677 16.58C122.677 16.06 122.577 15.6067 122.377 15.22C122.177 14.8333 121.89 14.5333 121.517 14.32C121.157 14.0933 120.737 13.98 120.257 13.98C119.777 13.98 119.357 14.0933 118.997 14.32C118.637 14.5333 118.35 14.8333 118.137 15.22C117.937 15.6067 117.837 16.06 117.837 16.58C117.837 17.0867 117.937 17.54 118.137 17.94C118.35 18.3267 118.637 18.6267 118.997 18.84C119.357 19.0533 119.777 19.16 120.257 19.16ZM128.369 21.1C127.916 21.1 127.549 20.96 127.269 20.68C127.002 20.4 126.869 20.04 126.869 19.6C126.869 19.1733 127.002 18.8267 127.269 18.56C127.549 18.28 127.916 18.14 128.369 18.14C128.836 18.14 129.196 18.28 129.449 18.56C129.716 18.8267 129.849 19.1733 129.849 19.6C129.849 20.04 129.716 20.4 129.449 20.68C129.196 20.96 128.836 21.1 128.369 21.1ZM136.95 21.2C136.243 21.2 135.523 21.1067 134.79 20.92C134.057 20.7333 133.383 20.4467 132.77 20.06C132.517 19.9 132.343 19.7133 132.25 19.5C132.17 19.2733 132.15 19.0533 132.19 18.84C132.243 18.6133 132.343 18.4267 132.49 18.28C132.65 18.12 132.837 18.0267 133.05 18C133.277 17.9733 133.523 18.0333 133.79 18.18C134.283 18.46 134.783 18.6733 135.29 18.82C135.797 18.9667 136.337 19.04 136.91 19.04C137.47 19.04 137.95 18.94 138.35 18.74C138.75 18.54 139.057 18.26 139.27 17.9C139.483 17.54 139.59 17.12 139.59 16.64C139.59 15.8933 139.363 15.2933 138.91 14.84C138.457 14.3733 137.837 14.14 137.05 14.14C136.623 14.14 136.21 14.2133 135.81 14.36C135.41 14.4933 135.017 14.7333 134.63 15.08C134.51 15.1867 134.357 15.2933 134.17 15.4C133.983 15.4933 133.783 15.54 133.57 15.54C133.237 15.54 132.983 15.4533 132.81 15.28C132.637 15.1067 132.55 14.8667 132.55 14.56V8.02C132.55 7.66 132.643 7.38667 132.83 7.2C133.03 7 133.31 6.9 133.67 6.9H140.25C140.61 6.9 140.883 6.99333 141.07 7.18C141.27 7.35333 141.37 7.61333 141.37 7.96C141.37 8.29333 141.27 8.55333 141.07 8.74C140.883 8.92667 140.61 9.02 140.25 9.02H135.05V13.5H134.39C134.737 13.0333 135.197 12.6733 135.77 12.42C136.343 12.1667 136.97 12.04 137.65 12.04C138.543 12.04 139.317 12.2333 139.97 12.62C140.637 12.9933 141.15 13.52 141.51 14.2C141.883 14.8667 142.07 15.6467 142.07 16.54C142.07 17.46 141.863 18.2733 141.45 18.98C141.037 19.6733 140.443 20.22 139.67 20.62C138.91 21.0067 138.003 21.2 136.95 21.2ZM145.322 21.1C144.869 21.1 144.502 20.96 144.222 20.68C143.956 20.4 143.822 20.04 143.822 19.6C143.822 19.1733 143.956 18.8267 144.222 18.56C144.502 18.28 144.869 18.14 145.322 18.14C145.789 18.14 146.149 18.28 146.402 18.56C146.669 18.8267 146.802 19.1733 146.802 19.6C146.802 20.04 146.669 20.4 146.402 20.68C146.149 20.96 145.789 21.1 145.322 21.1ZM156.053 21C155.64 21 155.32 20.8867 155.093 20.66C154.866 20.42 154.753 20.0933 154.753 19.68V8.14C154.753 7.71333 154.86 7.39333 155.073 7.18C155.3 6.95333 155.62 6.84 156.033 6.84C156.446 6.84 156.76 6.95333 156.973 7.18C157.2 7.39333 157.313 7.71333 157.313 8.14V18.82H163.113C163.473 18.82 163.746 18.9133 163.933 19.1C164.133 19.2867 164.233 19.5533 164.233 19.9C164.233 20.2467 164.133 20.52 163.933 20.72C163.746 20.9067 163.473 21 163.113 21H156.053ZM170.466 21.2C169.359 21.2 168.406 20.9933 167.606 20.58C166.806 20.1667 166.186 19.58 165.746 18.82C165.319 18.06 165.106 17.16 165.106 16.12C165.106 15.1067 165.312 14.22 165.726 13.46C166.152 12.7 166.732 12.1067 167.466 11.68C168.212 11.24 169.059 11.02 170.006 11.02C170.699 11.02 171.319 11.1333 171.866 11.36C172.426 11.5867 172.899 11.9133 173.286 12.34C173.686 12.7667 173.986 13.2867 174.186 13.9C174.399 14.5 174.506 15.18 174.506 15.94C174.506 16.18 174.419 16.3667 174.246 16.5C174.086 16.62 173.852 16.68 173.546 16.68H167.126V15.24H172.746L172.426 15.54C172.426 14.9267 172.332 14.4133 172.146 14C171.972 13.5867 171.712 13.2733 171.366 13.06C171.032 12.8333 170.612 12.72 170.106 12.72C169.546 12.72 169.066 12.8533 168.666 13.12C168.279 13.3733 167.979 13.74 167.766 14.22C167.566 14.6867 167.466 15.2467 167.466 15.9V16.04C167.466 17.1333 167.719 17.9533 168.226 18.5C168.746 19.0333 169.506 19.3 170.506 19.3C170.852 19.3 171.239 19.26 171.666 19.18C172.106 19.0867 172.519 18.9333 172.906 18.72C173.186 18.56 173.432 18.4933 173.646 18.52C173.859 18.5333 174.026 18.6067 174.146 18.74C174.279 18.8733 174.359 19.04 174.386 19.24C174.412 19.4267 174.372 19.62 174.266 19.82C174.172 20.02 174.006 20.1933 173.766 20.34C173.299 20.6333 172.759 20.8533 172.146 21C171.546 21.1333 170.986 21.2 170.466 21.2ZM180.926 21.2C180.06 21.2 179.333 21.0533 178.746 20.76C178.173 20.4667 177.746 20.04 177.466 19.48C177.186 18.9067 177.046 18.2 177.046 17.36V13.1H176.006C175.686 13.1 175.44 13.02 175.266 12.86C175.093 12.6867 175.006 12.4533 175.006 12.16C175.006 11.8533 175.093 11.62 175.266 11.46C175.44 11.3 175.686 11.22 176.006 11.22H177.046V9.4C177.046 8.98667 177.153 8.67333 177.366 8.46C177.593 8.24667 177.906 8.14 178.306 8.14C178.706 8.14 179.013 8.24667 179.226 8.46C179.44 8.67333 179.546 8.98667 179.546 9.4V11.22H181.666C181.986 11.22 182.233 11.3 182.406 11.46C182.58 11.62 182.666 11.8533 182.666 12.16C182.666 12.4533 182.58 12.6867 182.406 12.86C182.233 13.02 181.986 13.1 181.666 13.1H179.546V17.22C179.546 17.86 179.686 18.34 179.966 18.66C180.246 18.98 180.7 19.14 181.326 19.14C181.553 19.14 181.753 19.12 181.926 19.08C182.1 19.04 182.253 19.0133 182.386 19C182.546 18.9867 182.68 19.04 182.786 19.16C182.893 19.2667 182.946 19.4933 182.946 19.84C182.946 20.1067 182.9 20.3467 182.806 20.56C182.726 20.76 182.573 20.9 182.346 20.98C182.173 21.0333 181.946 21.08 181.666 21.12C181.386 21.1733 181.14 21.2 180.926 21.2ZM185.642 11.8C185.469 12.0133 185.282 12.1333 185.082 12.16C184.896 12.1867 184.729 12.1533 184.582 12.06C184.436 11.9533 184.356 11.8067 184.342 11.62C184.329 11.42 184.416 11.2067 184.602 10.98C184.869 10.6467 185.049 10.3133 185.142 9.98C185.236 9.64667 185.282 9.35333 185.282 9.1L185.382 9.76C184.916 9.76 184.536 9.62667 184.242 9.36C183.962 9.09333 183.822 8.73333 183.822 8.28C183.822 7.84 183.956 7.48667 184.222 7.22C184.489 6.94 184.849 6.8 185.302 6.8C185.769 6.8 186.136 6.96 186.402 7.28C186.669 7.58667 186.802 8.03333 186.802 8.62C186.802 8.94 186.769 9.27333 186.702 9.62C186.649 9.95333 186.536 10.3067 186.362 10.68C186.202 11.04 185.962 11.4133 185.642 11.8ZM192.097 21.2C191.523 21.2 190.917 21.14 190.277 21.02C189.637 20.9 189.063 20.6933 188.557 20.4C188.343 20.2667 188.19 20.1133 188.097 19.94C188.017 19.7533 187.983 19.5733 187.997 19.4C188.023 19.2133 188.09 19.0533 188.197 18.92C188.317 18.7867 188.463 18.7 188.637 18.66C188.823 18.62 189.023 18.6533 189.237 18.76C189.77 19.0133 190.27 19.1933 190.737 19.3C191.203 19.3933 191.663 19.44 192.117 19.44C192.757 19.44 193.23 19.3333 193.537 19.12C193.857 18.8933 194.017 18.6 194.017 18.24C194.017 17.9333 193.91 17.7 193.697 17.54C193.497 17.3667 193.19 17.24 192.777 17.16L190.777 16.78C189.95 16.62 189.317 16.32 188.877 15.88C188.45 15.4267 188.237 14.8467 188.237 14.14C188.237 13.5 188.41 12.9467 188.757 12.48C189.117 12.0133 189.61 11.6533 190.237 11.4C190.863 11.1467 191.583 11.02 192.397 11.02C192.983 11.02 193.53 11.0867 194.037 11.22C194.557 11.34 195.057 11.5333 195.537 11.8C195.737 11.9067 195.87 12.0467 195.937 12.22C196.017 12.3933 196.037 12.5733 195.997 12.76C195.957 12.9333 195.877 13.0933 195.757 13.24C195.637 13.3733 195.483 13.46 195.297 13.5C195.123 13.5267 194.923 13.4867 194.697 13.38C194.283 13.1667 193.883 13.0133 193.497 12.92C193.123 12.8267 192.763 12.78 192.417 12.78C191.763 12.78 191.277 12.8933 190.957 13.12C190.65 13.3467 190.497 13.6467 190.497 14.02C190.497 14.3 190.59 14.5333 190.777 14.72C190.963 14.9067 191.25 15.0333 191.637 15.1L193.637 15.48C194.503 15.64 195.157 15.9333 195.597 16.36C196.05 16.7867 196.277 17.36 196.277 18.08C196.277 19.0533 195.897 19.82 195.137 20.38C194.377 20.9267 193.363 21.2 192.097 21.2ZM204.992 21.16C204.579 21.16 204.259 21.0533 204.032 20.84C203.819 20.6133 203.712 20.2933 203.712 19.88V12.32C203.712 11.9067 203.819 11.5933 204.032 11.38C204.245 11.1667 204.545 11.06 204.932 11.06C205.319 11.06 205.619 11.1667 205.832 11.38C206.045 11.5933 206.152 11.9067 206.152 12.32V13.58H205.952C206.139 12.78 206.505 12.1733 207.052 11.76C207.599 11.3467 208.325 11.1 209.232 11.02C209.512 10.9933 209.732 11.0667 209.892 11.24C210.065 11.4 210.165 11.6533 210.192 12C210.219 12.3333 210.139 12.6067 209.952 12.82C209.779 13.02 209.512 13.14 209.152 13.18L208.712 13.22C207.899 13.3 207.285 13.5533 206.872 13.98C206.459 14.3933 206.252 14.98 206.252 15.74V19.88C206.252 20.2933 206.145 20.6133 205.932 20.84C205.719 21.0533 205.405 21.16 204.992 21.16ZM215.848 21.2C214.835 21.2 213.955 20.9933 213.208 20.58C212.461 20.1667 211.881 19.58 211.468 18.82C211.055 18.0467 210.848 17.14 210.848 16.1C210.848 15.3133 210.961 14.6133 211.188 14C211.428 13.3733 211.768 12.84 212.208 12.4C212.648 11.9467 213.175 11.6067 213.788 11.38C214.401 11.14 215.088 11.02 215.848 11.02C216.861 11.02 217.741 11.2267 218.488 11.64C219.235 12.0533 219.815 12.64 220.228 13.4C220.641 14.16 220.848 15.06 220.848 16.1C220.848 16.8867 220.728 17.5933 220.488 18.22C220.261 18.8467 219.928 19.3867 219.488 19.84C219.048 20.28 218.521 20.62 217.908 20.86C217.295 21.0867 216.608 21.2 215.848 21.2ZM215.848 19.3C216.341 19.3 216.775 19.18 217.148 18.94C217.521 18.7 217.808 18.3467 218.008 17.88C218.221 17.4 218.328 16.8067 218.328 16.1C218.328 15.0333 218.101 14.24 217.648 13.72C217.195 13.1867 216.595 12.92 215.848 12.92C215.355 12.92 214.921 13.04 214.548 13.28C214.175 13.5067 213.881 13.86 213.668 14.34C213.468 14.8067 213.368 15.3933 213.368 16.1C213.368 17.1533 213.595 17.9533 214.048 18.5C214.501 19.0333 215.101 19.3 215.848 19.3ZM226.451 21.2C225.638 21.2 224.965 21.0533 224.431 20.76C223.898 20.4533 223.498 20 223.231 19.4C222.978 18.8 222.851 18.0533 222.851 17.16V12.32C222.851 11.8933 222.958 11.58 223.171 11.38C223.385 11.1667 223.691 11.06 224.091 11.06C224.491 11.06 224.798 11.1667 225.011 11.38C225.238 11.58 225.351 11.8933 225.351 12.32V17.2C225.351 17.8933 225.491 18.4067 225.771 18.74C226.051 19.0733 226.498 19.24 227.111 19.24C227.778 19.24 228.325 19.0133 228.751 18.56C229.178 18.0933 229.391 17.48 229.391 16.72V12.32C229.391 11.8933 229.498 11.58 229.711 11.38C229.925 11.1667 230.231 11.06 230.631 11.06C231.031 11.06 231.338 11.1667 231.551 11.38C231.778 11.58 231.891 11.8933 231.891 12.32V19.88C231.891 20.7333 231.485 21.16 230.671 21.16C230.285 21.16 229.985 21.0533 229.771 20.84C229.558 20.6133 229.451 20.2933 229.451 19.88V18.36L229.731 18.96C229.451 19.68 229.025 20.2333 228.451 20.62C227.891 21.0067 227.225 21.2 226.451 21.2ZM235.733 21.16C235.333 21.16 235.027 21.0533 234.813 20.84C234.6 20.6133 234.493 20.2933 234.493 19.88V12.32C234.493 11.9067 234.6 11.5933 234.813 11.38C235.027 11.1667 235.327 11.06 235.713 11.06C236.1 11.06 236.4 11.1667 236.613 11.38C236.827 11.5933 236.933 11.9067 236.933 12.32V13.68L236.713 13.18C237.007 12.4733 237.46 11.94 238.073 11.58C238.7 11.2067 239.407 11.02 240.193 11.02C240.98 11.02 241.627 11.1667 242.133 11.46C242.64 11.7533 243.02 12.2 243.273 12.8C243.527 13.3867 243.653 14.1333 243.653 15.04V19.88C243.653 20.2933 243.547 20.6133 243.333 20.84C243.12 21.0533 242.813 21.16 242.413 21.16C242.013 21.16 241.7 21.0533 241.473 20.84C241.26 20.6133 241.153 20.2933 241.153 19.88V15.16C241.153 14.4 241.007 13.8467 240.713 13.5C240.433 13.1533 239.993 12.98 239.393 12.98C238.66 12.98 238.073 13.2133 237.633 13.68C237.207 14.1333 236.993 14.74 236.993 15.5V19.88C236.993 20.7333 236.573 21.16 235.733 21.16ZM249.953 21.2C249.099 21.2 248.346 20.9933 247.693 20.58C247.053 20.1667 246.553 19.58 246.193 18.82C245.833 18.0467 245.653 17.14 245.653 16.1C245.653 15.0467 245.833 14.1467 246.193 13.4C246.553 12.64 247.053 12.0533 247.693 11.64C248.346 11.2267 249.099 11.02 249.953 11.02C250.766 11.02 251.473 11.22 252.073 11.62C252.686 12.02 253.099 12.5467 253.313 13.2H253.093V8C253.093 7.58667 253.199 7.27333 253.413 7.06C253.626 6.84667 253.933 6.74 254.333 6.74C254.733 6.74 255.039 6.84667 255.253 7.06C255.479 7.27333 255.593 7.58667 255.593 8V19.88C255.593 20.2933 255.486 20.6133 255.273 20.84C255.059 21.0533 254.753 21.16 254.353 21.16C253.953 21.16 253.646 21.0533 253.433 20.84C253.219 20.6133 253.113 20.2933 253.113 19.88V18.32L253.333 18.92C253.133 19.6133 252.726 20.1667 252.113 20.58C251.499 20.9933 250.779 21.2 249.953 21.2ZM250.653 19.3C251.146 19.3 251.579 19.18 251.953 18.94C252.326 18.7 252.613 18.3467 252.813 17.88C253.026 17.4 253.133 16.8067 253.133 16.1C253.133 15.0333 252.906 14.24 252.453 13.72C251.999 13.1867 251.399 12.92 250.653 12.92C250.159 12.92 249.726 13.04 249.353 13.28C248.979 13.5067 248.686 13.86 248.473 14.34C248.273 14.8067 248.173 15.3933 248.173 16.1C248.173 17.1533 248.399 17.9533 248.853 18.5C249.306 19.0333 249.906 19.3 250.653 19.3ZM264.854 21.14C264.454 21.14 264.148 21.02 263.934 20.78C263.721 20.54 263.614 20.2067 263.614 19.78V12.44C263.614 12 263.721 11.6667 263.934 11.44C264.148 11.2 264.454 11.08 264.854 11.08C265.254 11.08 265.561 11.2 265.774 11.44C266.001 11.6667 266.114 12 266.114 12.44V19.78C266.114 20.2067 266.008 20.54 265.794 20.78C265.581 21.02 265.268 21.14 264.854 21.14ZM264.854 9.22C264.388 9.22 264.021 9.10667 263.754 8.88C263.501 8.64 263.374 8.31333 263.374 7.9C263.374 7.47333 263.501 7.14667 263.754 6.92C264.021 6.69333 264.388 6.58 264.854 6.58C265.334 6.58 265.701 6.69333 265.954 6.92C266.208 7.14667 266.334 7.47333 266.334 7.9C266.334 8.31333 266.208 8.64 265.954 8.88C265.701 9.10667 265.334 9.22 264.854 9.22ZM273.192 21.2C272.325 21.2 271.599 21.0533 271.012 20.76C270.439 20.4667 270.012 20.04 269.732 19.48C269.452 18.9067 269.312 18.2 269.312 17.36V13.1H268.272C267.952 13.1 267.705 13.02 267.532 12.86C267.359 12.6867 267.272 12.4533 267.272 12.16C267.272 11.8533 267.359 11.62 267.532 11.46C267.705 11.3 267.952 11.22 268.272 11.22H269.312V9.4C269.312 8.98667 269.419 8.67333 269.632 8.46C269.859 8.24667 270.172 8.14 270.572 8.14C270.972 8.14 271.279 8.24667 271.492 8.46C271.705 8.67333 271.812 8.98667 271.812 9.4V11.22H273.932C274.252 11.22 274.499 11.3 274.672 11.46C274.845 11.62 274.932 11.8533 274.932 12.16C274.932 12.4533 274.845 12.6867 274.672 12.86C274.499 13.02 274.252 13.1 273.932 13.1H271.812V17.22C271.812 17.86 271.952 18.34 272.232 18.66C272.512 18.98 272.965 19.14 273.592 19.14C273.819 19.14 274.019 19.12 274.192 19.08C274.365 19.04 274.519 19.0133 274.652 19C274.812 18.9867 274.945 19.04 275.052 19.16C275.159 19.2667 275.212 19.4933 275.212 19.84C275.212 20.1067 275.165 20.3467 275.072 20.56C274.992 20.76 274.839 20.9 274.612 20.98C274.439 21.0333 274.212 21.08 273.932 21.12C273.652 21.1733 273.405 21.2 273.192 21.2ZM285.358 21.2C284.544 21.2 283.871 21.0533 283.338 20.76C282.804 20.4533 282.404 20 282.138 19.4C281.884 18.8 281.758 18.0533 281.758 17.16V12.32C281.758 11.8933 281.864 11.58 282.078 11.38C282.291 11.1667 282.598 11.06 282.998 11.06C283.398 11.06 283.704 11.1667 283.918 11.38C284.144 11.58 284.258 11.8933 284.258 12.32V17.2C284.258 17.8933 284.398 18.4067 284.678 18.74C284.958 19.0733 285.404 19.24 286.018 19.24C286.684 19.24 287.231 19.0133 287.658 18.56C288.084 18.0933 288.298 17.48 288.298 16.72V12.32C288.298 11.8933 288.404 11.58 288.618 11.38C288.831 11.1667 289.138 11.06 289.538 11.06C289.938 11.06 290.244 11.1667 290.458 11.38C290.684 11.58 290.798 11.8933 290.798 12.32V19.88C290.798 20.7333 290.391 21.16 289.578 21.16C289.191 21.16 288.891 21.0533 288.678 20.84C288.464 20.6133 288.358 20.2933 288.358 19.88V18.36L288.638 18.96C288.358 19.68 287.931 20.2333 287.358 20.62C286.798 21.0067 286.131 21.2 285.358 21.2ZM294.64 24.76C294.24 24.76 293.933 24.6533 293.72 24.44C293.506 24.2267 293.4 23.9133 293.4 23.5V12.32C293.4 11.9067 293.506 11.5933 293.72 11.38C293.933 11.1667 294.233 11.06 294.62 11.06C295.02 11.06 295.326 11.1667 295.54 11.38C295.753 11.5933 295.86 11.9067 295.86 12.32V13.88L295.64 13.28C295.84 12.6 296.246 12.0533 296.86 11.64C297.486 11.2267 298.213 11.02 299.04 11.02C299.893 11.02 300.64 11.2267 301.28 11.64C301.933 12.0533 302.44 12.64 302.8 13.4C303.16 14.1467 303.34 15.0467 303.34 16.1C303.34 17.14 303.16 18.0467 302.8 18.82C302.44 19.58 301.94 20.1667 301.3 20.58C300.66 20.9933 299.906 21.2 299.04 21.2C298.226 21.2 297.513 21 296.9 20.6C296.286 20.1867 295.873 19.6533 295.66 19H295.9V23.5C295.9 23.9133 295.786 24.2267 295.56 24.44C295.346 24.6533 295.04 24.76 294.64 24.76ZM298.34 19.3C298.833 19.3 299.266 19.18 299.64 18.94C300.013 18.7 300.3 18.3467 300.5 17.88C300.713 17.4 300.82 16.8067 300.82 16.1C300.82 15.0333 300.593 14.24 300.14 13.72C299.686 13.1867 299.086 12.92 298.34 12.92C297.846 12.92 297.413 13.04 297.04 13.28C296.666 13.5067 296.373 13.86 296.16 14.34C295.96 14.8067 295.86 15.3933 295.86 16.1C295.86 17.1533 296.086 17.9533 296.54 18.5C296.993 19.0333 297.593 19.3 298.34 19.3ZM315.301 21.2C314.435 21.2 313.708 21.0533 313.121 20.76C312.548 20.4667 312.121 20.04 311.841 19.48C311.561 18.9067 311.421 18.2 311.421 17.36V13.1H310.381C310.061 13.1 309.815 13.02 309.641 12.86C309.468 12.6867 309.381 12.4533 309.381 12.16C309.381 11.8533 309.468 11.62 309.641 11.46C309.815 11.3 310.061 11.22 310.381 11.22H311.421V9.4C311.421 8.98667 311.528 8.67333 311.741 8.46C311.968 8.24667 312.281 8.14 312.681 8.14C313.081 8.14 313.388 8.24667 313.601 8.46C313.815 8.67333 313.921 8.98667 313.921 9.4V11.22H316.041C316.361 11.22 316.608 11.3 316.781 11.46C316.955 11.62 317.041 11.8533 317.041 12.16C317.041 12.4533 316.955 12.6867 316.781 12.86C316.608 13.02 316.361 13.1 316.041 13.1H313.921V17.22C313.921 17.86 314.061 18.34 314.341 18.66C314.621 18.98 315.075 19.14 315.701 19.14C315.928 19.14 316.128 19.12 316.301 19.08C316.475 19.04 316.628 19.0133 316.761 19C316.921 18.9867 317.055 19.04 317.161 19.16C317.268 19.2667 317.321 19.4933 317.321 19.84C317.321 20.1067 317.275 20.3467 317.181 20.56C317.101 20.76 316.948 20.9 316.721 20.98C316.548 21.0333 316.321 21.08 316.041 21.12C315.761 21.1733 315.515 21.2 315.301 21.2ZM322.86 21.2C321.846 21.2 320.966 20.9933 320.22 20.58C319.473 20.1667 318.893 19.58 318.48 18.82C318.066 18.0467 317.86 17.14 317.86 16.1C317.86 15.3133 317.973 14.6133 318.2 14C318.44 13.3733 318.78 12.84 319.22 12.4C319.66 11.9467 320.186 11.6067 320.8 11.38C321.413 11.14 322.1 11.02 322.86 11.02C323.873 11.02 324.753 11.2267 325.5 11.64C326.246 12.0533 326.826 12.64 327.24 13.4C327.653 14.16 327.86 15.06 327.86 16.1C327.86 16.8867 327.74 17.5933 327.5 18.22C327.273 18.8467 326.94 19.3867 326.5 19.84C326.06 20.28 325.533 20.62 324.92 20.86C324.306 21.0867 323.62 21.2 322.86 21.2ZM322.86 19.3C323.353 19.3 323.786 19.18 324.16 18.94C324.533 18.7 324.82 18.3467 325.02 17.88C325.233 17.4 325.34 16.8067 325.34 16.1C325.34 15.0333 325.113 14.24 324.66 13.72C324.206 13.1867 323.606 12.92 322.86 12.92C322.366 12.92 321.933 13.04 321.56 13.28C321.186 13.5067 320.893 13.86 320.68 14.34C320.48 14.8067 320.38 15.3933 320.38 16.1C320.38 17.1533 320.606 17.9533 321.06 18.5C321.513 19.0333 322.113 19.3 322.86 19.3ZM339.833 21.2C338.966 21.2 338.239 21.0533 337.653 20.76C337.079 20.4667 336.653 20.04 336.373 19.48C336.093 18.9067 335.953 18.2 335.953 17.36V13.1H334.913C334.593 13.1 334.346 13.02 334.173 12.86C333.999 12.6867 333.913 12.4533 333.913 12.16C333.913 11.8533 333.999 11.62 334.173 11.46C334.346 11.3 334.593 11.22 334.913 11.22H335.953V9.4C335.953 8.98667 336.059 8.67333 336.273 8.46C336.499 8.24667 336.813 8.14 337.213 8.14C337.613 8.14 337.919 8.24667 338.133 8.46C338.346 8.67333 338.453 8.98667 338.453 9.4V11.22H340.573C340.893 11.22 341.139 11.3 341.313 11.46C341.486 11.62 341.573 11.8533 341.573 12.16C341.573 12.4533 341.486 12.6867 341.313 12.86C341.139 13.02 340.893 13.1 340.573 13.1H338.453V17.22C338.453 17.86 338.593 18.34 338.873 18.66C339.153 18.98 339.606 19.14 340.233 19.14C340.459 19.14 340.659 19.12 340.833 19.08C341.006 19.04 341.159 19.0133 341.293 19C341.453 18.9867 341.586 19.04 341.693 19.16C341.799 19.2667 341.853 19.4933 341.853 19.84C341.853 20.1067 341.806 20.3467 341.713 20.56C341.633 20.76 341.479 20.9 341.253 20.98C341.079 21.0333 340.853 21.08 340.573 21.12C340.293 21.1733 340.046 21.2 339.833 21.2ZM344.522 21.16C344.122 21.16 343.816 21.0533 343.602 20.84C343.389 20.6133 343.282 20.2933 343.282 19.88V8C343.282 7.58667 343.389 7.27333 343.602 7.06C343.816 6.84667 344.122 6.74 344.522 6.74C344.922 6.74 345.229 6.84667 345.442 7.06C345.669 7.27333 345.782 7.58667 345.782 8V13.18H345.502C345.796 12.4733 346.249 11.94 346.862 11.58C347.489 11.2067 348.196 11.02 348.982 11.02C349.769 11.02 350.416 11.1667 350.922 11.46C351.429 11.7533 351.809 12.2 352.062 12.8C352.316 13.3867 352.442 14.1333 352.442 15.04V19.88C352.442 20.2933 352.336 20.6133 352.122 20.84C351.909 21.0533 351.602 21.16 351.202 21.16C350.802 21.16 350.489 21.0533 350.262 20.84C350.049 20.6133 349.942 20.2933 349.942 19.88V15.16C349.942 14.4 349.796 13.8467 349.502 13.5C349.222 13.1533 348.782 12.98 348.182 12.98C347.449 12.98 346.862 13.2133 346.422 13.68C345.996 14.1333 345.782 14.74 345.782 15.5V19.88C345.782 20.7333 345.362 21.16 344.522 21.16ZM359.802 21.2C358.695 21.2 357.742 20.9933 356.942 20.58C356.142 20.1667 355.522 19.58 355.082 18.82C354.655 18.06 354.442 17.16 354.442 16.12C354.442 15.1067 354.648 14.22 355.062 13.46C355.488 12.7 356.068 12.1067 356.802 11.68C357.548 11.24 358.395 11.02 359.342 11.02C360.035 11.02 360.655 11.1333 361.202 11.36C361.762 11.5867 362.235 11.9133 362.622 12.34C363.022 12.7667 363.322 13.2867 363.522 13.9C363.735 14.5 363.842 15.18 363.842 15.94C363.842 16.18 363.755 16.3667 363.582 16.5C363.422 16.62 363.188 16.68 362.882 16.68H356.462V15.24H362.082L361.762 15.54C361.762 14.9267 361.668 14.4133 361.482 14C361.308 13.5867 361.048 13.2733 360.702 13.06C360.368 12.8333 359.948 12.72 359.442 12.72C358.882 12.72 358.402 12.8533 358.002 13.12C357.615 13.3733 357.315 13.74 357.102 14.22C356.902 14.6867 356.802 15.2467 356.802 15.9V16.04C356.802 17.1333 357.055 17.9533 357.562 18.5C358.082 19.0333 358.842 19.3 359.842 19.3C360.188 19.3 360.575 19.26 361.002 19.18C361.442 19.0867 361.855 18.9333 362.242 18.72C362.522 18.56 362.768 18.4933 362.982 18.52C363.195 18.5333 363.362 18.6067 363.482 18.74C363.615 18.8733 363.695 19.04 363.722 19.24C363.748 19.4267 363.708 19.62 363.602 19.82C363.508 20.02 363.342 20.1933 363.102 20.34C362.635 20.6333 362.095 20.8533 361.482 21C360.882 21.1333 360.322 21.2 359.802 21.2ZM372.491 21.16C372.091 21.16 371.785 21.0533 371.571 20.84C371.358 20.6133 371.251 20.2933 371.251 19.88V12.32C371.251 11.9067 371.358 11.5933 371.571 11.38C371.785 11.1667 372.085 11.06 372.471 11.06C372.858 11.06 373.158 11.1667 373.371 11.38C373.585 11.5933 373.691 11.9067 373.691 12.32V13.68L373.471 13.18C373.765 12.4733 374.218 11.94 374.831 11.58C375.458 11.2067 376.165 11.02 376.951 11.02C377.738 11.02 378.385 11.1667 378.891 11.46C379.398 11.7533 379.778 12.2 380.031 12.8C380.285 13.3867 380.411 14.1333 380.411 15.04V19.88C380.411 20.2933 380.305 20.6133 380.091 20.84C379.878 21.0533 379.571 21.16 379.171 21.16C378.771 21.16 378.458 21.0533 378.231 20.84C378.018 20.6133 377.911 20.2933 377.911 19.88V15.16C377.911 14.4 377.765 13.8467 377.471 13.5C377.191 13.1533 376.751 12.98 376.151 12.98C375.418 12.98 374.831 13.2133 374.391 13.68C373.965 14.1333 373.751 14.74 373.751 15.5V19.88C373.751 20.7333 373.331 21.16 372.491 21.16ZM387.77 21.2C386.664 21.2 385.71 20.9933 384.91 20.58C384.11 20.1667 383.49 19.58 383.05 18.82C382.624 18.06 382.41 17.16 382.41 16.12C382.41 15.1067 382.617 14.22 383.03 13.46C383.457 12.7 384.037 12.1067 384.77 11.68C385.517 11.24 386.364 11.02 387.31 11.02C388.004 11.02 388.624 11.1333 389.17 11.36C389.73 11.5867 390.204 11.9133 390.59 12.34C390.99 12.7667 391.29 13.2867 391.49 13.9C391.704 14.5 391.81 15.18 391.81 15.94C391.81 16.18 391.724 16.3667 391.55 16.5C391.39 16.62 391.157 16.68 390.85 16.68H384.43V15.24H390.05L389.73 15.54C389.73 14.9267 389.637 14.4133 389.45 14C389.277 13.5867 389.017 13.2733 388.67 13.06C388.337 12.8333 387.917 12.72 387.41 12.72C386.85 12.72 386.37 12.8533 385.97 13.12C385.584 13.3733 385.284 13.74 385.07 14.22C384.87 14.6867 384.77 15.2467 384.77 15.9V16.04C384.77 17.1333 385.024 17.9533 385.53 18.5C386.05 19.0333 386.81 19.3 387.81 19.3C388.157 19.3 388.544 19.26 388.97 19.18C389.41 19.0867 389.824 18.9333 390.21 18.72C390.49 18.56 390.737 18.4933 390.95 18.52C391.164 18.5333 391.33 18.6067 391.45 18.74C391.584 18.8733 391.664 19.04 391.69 19.24C391.717 19.4267 391.677 19.62 391.57 19.82C391.477 20.02 391.31 20.1933 391.07 20.34C390.604 20.6333 390.064 20.8533 389.45 21C388.85 21.1333 388.29 21.2 387.77 21.2ZM397.01 21.2C396.304 21.2 395.67 21.0667 395.11 20.8C394.564 20.52 394.13 20.1467 393.81 19.68C393.504 19.2133 393.35 18.6867 393.35 18.1C393.35 17.38 393.537 16.8133 393.91 16.4C394.284 15.9733 394.89 15.6667 395.73 15.48C396.57 15.2933 397.697 15.2 399.11 15.2H400.11V16.64H399.13C398.304 16.64 397.644 16.68 397.15 16.76C396.657 16.84 396.304 16.98 396.09 17.18C395.89 17.3667 395.79 17.6333 395.79 17.98C395.79 18.42 395.944 18.78 396.25 19.06C396.557 19.34 396.984 19.48 397.53 19.48C397.97 19.48 398.357 19.38 398.69 19.18C399.037 18.9667 399.31 18.68 399.51 18.32C399.71 17.96 399.81 17.5467 399.81 17.08V14.78C399.81 14.1133 399.664 13.6333 399.37 13.34C399.077 13.0467 398.584 12.9 397.89 12.9C397.504 12.9 397.084 12.9467 396.63 13.04C396.19 13.1333 395.724 13.2933 395.23 13.52C394.977 13.64 394.75 13.6733 394.55 13.62C394.364 13.5667 394.217 13.46 394.11 13.3C394.004 13.1267 393.95 12.94 393.95 12.74C393.95 12.54 394.004 12.3467 394.11 12.16C394.217 11.96 394.397 11.8133 394.65 11.72C395.264 11.4667 395.85 11.2867 396.41 11.18C396.984 11.0733 397.504 11.02 397.97 11.02C398.93 11.02 399.717 11.1667 400.33 11.46C400.957 11.7533 401.424 12.2 401.73 12.8C402.037 13.3867 402.19 14.1467 402.19 15.08V19.88C402.19 20.2933 402.09 20.6133 401.89 20.84C401.69 21.0533 401.404 21.16 401.03 21.16C400.657 21.16 400.364 21.0533 400.15 20.84C399.95 20.6133 399.85 20.2933 399.85 19.88V18.92H400.01C399.917 19.3867 399.73 19.7933 399.45 20.14C399.184 20.4733 398.844 20.7333 398.43 20.92C398.017 21.1067 397.544 21.2 397.01 21.2ZM406.008 21.16C405.594 21.16 405.274 21.0533 405.048 20.84C404.834 20.6133 404.728 20.2933 404.728 19.88V12.32C404.728 11.9067 404.834 11.5933 405.048 11.38C405.261 11.1667 405.561 11.06 405.948 11.06C406.334 11.06 406.634 11.1667 406.848 11.38C407.061 11.5933 407.168 11.9067 407.168 12.32V13.58H406.968C407.154 12.78 407.521 12.1733 408.068 11.76C408.614 11.3467 409.341 11.1 410.248 11.02C410.528 10.9933 410.748 11.0667 410.908 11.24C411.081 11.4 411.181 11.6533 411.208 12C411.234 12.3333 411.154 12.6067 410.968 12.82C410.794 13.02 410.528 13.14 410.168 13.18L409.728 13.22C408.914 13.3 408.301 13.5533 407.888 13.98C407.474 14.3933 407.268 14.98 407.268 15.74V19.88C407.268 20.2933 407.161 20.6133 406.948 20.84C406.734 21.0533 406.421 21.16 406.008 21.16ZM417.224 21.2C416.117 21.2 415.164 20.9933 414.364 20.58C413.564 20.1667 412.944 19.58 412.504 18.82C412.077 18.06 411.864 17.16 411.864 16.12C411.864 15.1067 412.07 14.22 412.484 13.46C412.91 12.7 413.49 12.1067 414.224 11.68C414.97 11.24 415.817 11.02 416.764 11.02C417.457 11.02 418.077 11.1333 418.624 11.36C419.184 11.5867 419.657 11.9133 420.044 12.34C420.444 12.7667 420.744 13.2867 420.944 13.9C421.157 14.5 421.264 15.18 421.264 15.94C421.264 16.18 421.177 16.3667 421.004 16.5C420.844 16.62 420.61 16.68 420.304 16.68H413.884V15.24H419.504L419.184 15.54C419.184 14.9267 419.09 14.4133 418.904 14C418.73 13.5867 418.47 13.2733 418.124 13.06C417.79 12.8333 417.37 12.72 416.864 12.72C416.304 12.72 415.824 12.8533 415.424 13.12C415.037 13.3733 414.737 13.74 414.524 14.22C414.324 14.6867 414.224 15.2467 414.224 15.9V16.04C414.224 17.1333 414.477 17.9533 414.984 18.5C415.504 19.0333 416.264 19.3 417.264 19.3C417.61 19.3 417.997 19.26 418.424 19.18C418.864 19.0867 419.277 18.9333 419.664 18.72C419.944 18.56 420.19 18.4933 420.404 18.52C420.617 18.5333 420.784 18.6067 420.904 18.74C421.037 18.8733 421.117 19.04 421.144 19.24C421.17 19.4267 421.13 19.62 421.024 19.82C420.93 20.02 420.764 20.1933 420.524 20.34C420.057 20.6333 419.517 20.8533 418.904 21C418.304 21.1333 417.744 21.2 417.224 21.2ZM426.823 21.2C426.25 21.2 425.643 21.14 425.003 21.02C424.363 20.9 423.79 20.6933 423.283 20.4C423.07 20.2667 422.917 20.1133 422.823 19.94C422.743 19.7533 422.71 19.5733 422.723 19.4C422.75 19.2133 422.817 19.0533 422.923 18.92C423.043 18.7867 423.19 18.7 423.363 18.66C423.55 18.62 423.75 18.6533 423.963 18.76C424.497 19.0133 424.997 19.1933 425.463 19.3C425.93 19.3933 426.39 19.44 426.843 19.44C427.483 19.44 427.957 19.3333 428.263 19.12C428.583 18.8933 428.743 18.6 428.743 18.24C428.743 17.9333 428.637 17.7 428.423 17.54C428.223 17.3667 427.917 17.24 427.503 17.16L425.503 16.78C424.677 16.62 424.043 16.32 423.603 15.88C423.177 15.4267 422.963 14.8467 422.963 14.14C422.963 13.5 423.137 12.9467 423.483 12.48C423.843 12.0133 424.337 11.6533 424.963 11.4C425.59 11.1467 426.31 11.02 427.123 11.02C427.71 11.02 428.257 11.0867 428.763 11.22C429.283 11.34 429.783 11.5333 430.263 11.8C430.463 11.9067 430.597 12.0467 430.663 12.22C430.743 12.3933 430.763 12.5733 430.723 12.76C430.683 12.9333 430.603 13.0933 430.483 13.24C430.363 13.3733 430.21 13.46 430.023 13.5C429.85 13.5267 429.65 13.4867 429.423 13.38C429.01 13.1667 428.61 13.0133 428.223 12.92C427.85 12.8267 427.49 12.78 427.143 12.78C426.49 12.78 426.003 12.8933 425.683 13.12C425.377 13.3467 425.223 13.6467 425.223 14.02C425.223 14.3 425.317 14.5333 425.503 14.72C425.69 14.9067 425.977 15.0333 426.363 15.1L428.363 15.48C429.23 15.64 429.883 15.9333 430.323 16.36C430.777 16.7867 431.003 17.36 431.003 18.08C431.003 19.0533 430.623 19.82 429.863 20.38C429.103 20.9267 428.09 21.2 426.823 21.2ZM437.391 21.2C436.525 21.2 435.798 21.0533 435.211 20.76C434.638 20.4667 434.211 20.04 433.931 19.48C433.651 18.9067 433.511 18.2 433.511 17.36V13.1H432.471C432.151 13.1 431.905 13.02 431.731 12.86C431.558 12.6867 431.471 12.4533 431.471 12.16C431.471 11.8533 431.558 11.62 431.731 11.46C431.905 11.3 432.151 11.22 432.471 11.22H433.511V9.4C433.511 8.98667 433.618 8.67333 433.831 8.46C434.058 8.24667 434.371 8.14 434.771 8.14C435.171 8.14 435.478 8.24667 435.691 8.46C435.905 8.67333 436.011 8.98667 436.011 9.4V11.22H438.131C438.451 11.22 438.698 11.3 438.871 11.46C439.045 11.62 439.131 11.8533 439.131 12.16C439.131 12.4533 439.045 12.6867 438.871 12.86C438.698 13.02 438.451 13.1 438.131 13.1H436.011V17.22C436.011 17.86 436.151 18.34 436.431 18.66C436.711 18.98 437.165 19.14 437.791 19.14C438.018 19.14 438.218 19.12 438.391 19.08C438.565 19.04 438.718 19.0133 438.851 19C439.011 18.9867 439.145 19.04 439.251 19.16C439.358 19.2667 439.411 19.4933 439.411 19.84C439.411 20.1067 439.365 20.3467 439.271 20.56C439.191 20.76 439.038 20.9 438.811 20.98C438.638 21.0333 438.411 21.08 438.131 21.12C437.851 21.1733 437.605 21.2 437.391 21.2ZM449.797 21.16C449.463 21.16 449.177 21.08 448.937 20.92C448.697 20.7467 448.503 20.48 448.357 20.12L445.457 12.72C445.337 12.4 445.297 12.12 445.337 11.88C445.39 11.6267 445.517 11.4267 445.717 11.28C445.917 11.1333 446.183 11.06 446.517 11.06C446.81 11.06 447.05 11.1333 447.237 11.28C447.423 11.4133 447.583 11.6733 447.717 12.06L450.137 18.72H449.677L452.177 11.9C452.283 11.6067 452.423 11.3933 452.597 11.26C452.783 11.1267 453.023 11.06 453.317 11.06C453.61 11.06 453.85 11.1333 454.037 11.28C454.223 11.4133 454.363 11.62 454.457 11.9L456.917 18.72H456.497L458.937 12C459.07 11.64 459.237 11.3933 459.437 11.26C459.65 11.1267 459.883 11.06 460.137 11.06C460.457 11.06 460.703 11.14 460.877 11.3C461.05 11.46 461.15 11.6667 461.177 11.92C461.203 12.16 461.157 12.4267 461.037 12.72L458.157 20.12C458.023 20.4667 457.83 20.7267 457.577 20.9C457.337 21.0733 457.05 21.16 456.717 21.16C456.383 21.16 456.09 21.0733 455.837 20.9C455.597 20.7267 455.41 20.4667 455.277 20.12L452.657 13.18H453.797L451.237 20.1C451.103 20.46 450.917 20.7267 450.677 20.9C450.437 21.0733 450.143 21.16 449.797 21.16ZM464.308 21.16C463.908 21.16 463.601 21.0533 463.388 20.84C463.174 20.6133 463.068 20.2933 463.068 19.88V8C463.068 7.58667 463.174 7.27333 463.388 7.06C463.601 6.84667 463.908 6.74 464.308 6.74C464.708 6.74 465.014 6.84667 465.228 7.06C465.454 7.27333 465.568 7.58667 465.568 8V13.18H465.288C465.581 12.4733 466.034 11.94 466.648 11.58C467.274 11.2067 467.981 11.02 468.768 11.02C469.554 11.02 470.201 11.1667 470.708 11.46C471.214 11.7533 471.594 12.2 471.848 12.8C472.101 13.3867 472.228 14.1333 472.228 15.04V19.88C472.228 20.2933 472.121 20.6133 471.908 20.84C471.694 21.0533 471.388 21.16 470.988 21.16C470.588 21.16 470.274 21.0533 470.048 20.84C469.834 20.6133 469.728 20.2933 469.728 19.88V15.16C469.728 14.4 469.581 13.8467 469.288 13.5C469.008 13.1533 468.568 12.98 467.968 12.98C467.234 12.98 466.648 13.2133 466.208 13.68C465.781 14.1333 465.568 14.74 465.568 15.5V19.88C465.568 20.7333 465.148 21.16 464.308 21.16ZM479.227 21.2C478.213 21.2 477.333 20.9933 476.587 20.58C475.84 20.1667 475.26 19.58 474.847 18.82C474.433 18.0467 474.227 17.14 474.227 16.1C474.227 15.3133 474.34 14.6133 474.567 14C474.807 13.3733 475.147 12.84 475.587 12.4C476.027 11.9467 476.553 11.6067 477.167 11.38C477.78 11.14 478.467 11.02 479.227 11.02C480.24 11.02 481.12 11.2267 481.867 11.64C482.613 12.0533 483.193 12.64 483.607 13.4C484.02 14.16 484.227 15.06 484.227 16.1C484.227 16.8867 484.107 17.5933 483.867 18.22C483.64 18.8467 483.307 19.3867 482.867 19.84C482.427 20.28 481.9 20.62 481.287 20.86C480.673 21.0867 479.987 21.2 479.227 21.2ZM479.227 19.3C479.72 19.3 480.153 19.18 480.527 18.94C480.9 18.7 481.187 18.3467 481.387 17.88C481.6 17.4 481.707 16.8067 481.707 16.1C481.707 15.0333 481.48 14.24 481.027 13.72C480.573 13.1867 479.973 12.92 479.227 12.92C478.733 12.92 478.3 13.04 477.927 13.28C477.553 13.5067 477.26 13.86 477.047 14.34C476.847 14.8067 476.747 15.3933 476.747 16.1C476.747 17.1533 476.973 17.9533 477.427 18.5C477.88 19.0333 478.48 19.3 479.227 19.3ZM489.63 21.2C488.524 21.2 487.69 20.8867 487.13 20.26C486.57 19.62 486.29 18.6867 486.29 17.46V8C486.29 7.58667 486.397 7.27333 486.61 7.06C486.824 6.84667 487.13 6.74 487.53 6.74C487.93 6.74 488.237 6.84667 488.45 7.06C488.677 7.27333 488.79 7.58667 488.79 8V17.34C488.79 17.9533 488.917 18.4067 489.17 18.7C489.437 18.9933 489.81 19.14 490.29 19.14C490.397 19.14 490.497 19.14 490.59 19.14C490.684 19.1267 490.777 19.1133 490.87 19.1C491.057 19.0733 491.184 19.1267 491.25 19.26C491.317 19.38 491.35 19.6333 491.35 20.02C491.35 20.3533 491.284 20.6133 491.15 20.8C491.017 20.9867 490.797 21.1 490.49 21.14C490.357 21.1533 490.217 21.1667 490.07 21.18C489.924 21.1933 489.777 21.2 489.63 21.2ZM497.399 21.2C496.293 21.2 495.339 20.9933 494.539 20.58C493.739 20.1667 493.119 19.58 492.679 18.82C492.253 18.06 492.039 17.16 492.039 16.12C492.039 15.1067 492.246 14.22 492.659 13.46C493.086 12.7 493.666 12.1067 494.399 11.68C495.146 11.24 495.993 11.02 496.939 11.02C497.633 11.02 498.253 11.1333 498.799 11.36C499.359 11.5867 499.833 11.9133 500.219 12.34C500.619 12.7667 500.919 13.2867 501.119 13.9C501.333 14.5 501.439 15.18 501.439 15.94C501.439 16.18 501.353 16.3667 501.179 16.5C501.019 16.62 500.786 16.68 500.479 16.68H494.059V15.24H499.679L499.359 15.54C499.359 14.9267 499.266 14.4133 499.079 14C498.906 13.5867 498.646 13.2733 498.299 13.06C497.966 12.8333 497.546 12.72 497.039 12.72C496.479 12.72 495.999 12.8533 495.599 13.12C495.213 13.3733 494.913 13.74 494.699 14.22C494.499 14.6867 494.399 15.2467 494.399 15.9V16.04C494.399 17.1333 494.653 17.9533 495.159 18.5C495.679 19.0333 496.439 19.3 497.439 19.3C497.786 19.3 498.173 19.26 498.599 19.18C499.039 19.0867 499.453 18.9333 499.839 18.72C500.119 18.56 500.366 18.4933 500.579 18.52C500.793 18.5333 500.959 18.6067 501.079 18.74C501.213 18.8733 501.293 19.04 501.319 19.24C501.346 19.4267 501.306 19.62 501.199 19.82C501.106 20.02 500.939 20.1933 500.699 20.34C500.233 20.6333 499.693 20.8533 499.079 21C498.479 21.1333 497.919 21.2 497.399 21.2ZM510.089 21.16C509.689 21.16 509.382 21.0533 509.169 20.84C508.955 20.6133 508.849 20.2933 508.849 19.88V12.32C508.849 11.9067 508.955 11.5933 509.169 11.38C509.382 11.1667 509.682 11.06 510.069 11.06C510.455 11.06 510.755 11.1667 510.969 11.38C511.182 11.5933 511.289 11.9067 511.289 12.32V13.68L511.069 13.18C511.362 12.4733 511.815 11.94 512.429 11.58C513.055 11.2067 513.762 11.02 514.549 11.02C515.335 11.02 515.982 11.1667 516.489 11.46C516.995 11.7533 517.375 12.2 517.629 12.8C517.882 13.3867 518.009 14.1333 518.009 15.04V19.88C518.009 20.2933 517.902 20.6133 517.689 20.84C517.475 21.0533 517.169 21.16 516.769 21.16C516.369 21.16 516.055 21.0533 515.829 20.84C515.615 20.6133 515.509 20.2933 515.509 19.88V15.16C515.509 14.4 515.362 13.8467 515.069 13.5C514.789 13.1533 514.349 12.98 513.749 12.98C513.015 12.98 512.429 13.2133 511.989 13.68C511.562 14.1333 511.349 14.74 511.349 15.5V19.88C511.349 20.7333 510.929 21.16 510.089 21.16ZM524.088 21.2C523.275 21.2 522.601 21.0533 522.068 20.76C521.535 20.4533 521.135 20 520.868 19.4C520.615 18.8 520.488 18.0533 520.488 17.16V12.32C520.488 11.8933 520.595 11.58 520.808 11.38C521.021 11.1667 521.328 11.06 521.728 11.06C522.128 11.06 522.435 11.1667 522.648 11.38C522.875 11.58 522.988 11.8933 522.988 12.32V17.2C522.988 17.8933 523.128 18.4067 523.408 18.74C523.688 19.0733 524.135 19.24 524.748 19.24C525.415 19.24 525.961 19.0133 526.388 18.56C526.815 18.0933 527.028 17.48 527.028 16.72V12.32C527.028 11.8933 527.135 11.58 527.348 11.38C527.561 11.1667 527.868 11.06 528.268 11.06C528.668 11.06 528.975 11.1667 529.188 11.38C529.415 11.58 529.528 11.8933 529.528 12.32V19.88C529.528 20.7333 529.121 21.16 528.308 21.16C527.921 21.16 527.621 21.0533 527.408 20.84C527.195 20.6133 527.088 20.2933 527.088 19.88V18.36L527.368 18.96C527.088 19.68 526.661 20.2333 526.088 20.62C525.528 21.0067 524.861 21.2 524.088 21.2ZM533.41 21.16C533.01 21.16 532.703 21.0533 532.49 20.84C532.277 20.6133 532.17 20.2933 532.17 19.88V12.32C532.17 11.9067 532.277 11.5933 532.49 11.38C532.703 11.1667 533.003 11.06 533.39 11.06C533.777 11.06 534.077 11.1667 534.29 11.38C534.503 11.5933 534.61 11.9067 534.61 12.32V13.78L534.39 13.18C534.657 12.5133 535.07 11.9867 535.63 11.6C536.19 11.2133 536.857 11.02 537.63 11.02C538.417 11.02 539.063 11.2067 539.57 11.58C540.077 11.9533 540.43 12.5267 540.63 13.3H540.35C540.617 12.5933 541.057 12.04 541.67 11.64C542.283 11.2267 542.99 11.02 543.79 11.02C544.537 11.02 545.15 11.1667 545.63 11.46C546.123 11.7533 546.49 12.2 546.73 12.8C546.97 13.3867 547.09 14.1333 547.09 15.04V19.88C547.09 20.2933 546.977 20.6133 546.75 20.84C546.537 21.0533 546.23 21.16 545.83 21.16C545.43 21.16 545.123 21.0533 544.91 20.84C544.697 20.6133 544.59 20.2933 544.59 19.88V15.14C544.59 14.3933 544.463 13.8467 544.21 13.5C543.97 13.1533 543.557 12.98 542.97 12.98C542.317 12.98 541.803 13.2133 541.43 13.68C541.057 14.1333 540.87 14.7667 540.87 15.58V19.88C540.87 20.2933 540.763 20.6133 540.55 20.84C540.337 21.0533 540.03 21.16 539.63 21.16C539.23 21.16 538.917 21.0533 538.69 20.84C538.477 20.6133 538.37 20.2933 538.37 19.88V15.14C538.37 14.3933 538.243 13.8467 537.99 13.5C537.75 13.1533 537.343 12.98 536.77 12.98C536.117 12.98 535.603 13.2133 535.23 13.68C534.857 14.1333 534.67 14.7667 534.67 15.58V19.88C534.67 20.7333 534.25 21.16 533.41 21.16ZM555.309 21.2C554.482 21.2 553.756 20.9933 553.129 20.58C552.516 20.1667 552.109 19.6133 551.909 18.92L552.129 18.42V19.88C552.129 20.2933 552.022 20.6133 551.809 20.84C551.596 21.0533 551.296 21.16 550.909 21.16C550.509 21.16 550.202 21.0533 549.989 20.84C549.776 20.6133 549.669 20.2933 549.669 19.88V8C549.669 7.58667 549.776 7.27333 549.989 7.06C550.202 6.84667 550.509 6.74 550.909 6.74C551.309 6.74 551.616 6.84667 551.829 7.06C552.056 7.27333 552.169 7.58667 552.169 8V13.2H551.929C552.142 12.5467 552.556 12.02 553.169 11.62C553.782 11.22 554.496 11.02 555.309 11.02C556.176 11.02 556.929 11.2267 557.569 11.64C558.209 12.0533 558.709 12.64 559.069 13.4C559.429 14.1467 559.609 15.0467 559.609 16.1C559.609 17.14 559.429 18.0467 559.069 18.82C558.709 19.58 558.202 20.1667 557.549 20.58C556.909 20.9933 556.162 21.2 555.309 21.2ZM554.609 19.3C555.102 19.3 555.536 19.18 555.909 18.94C556.282 18.7 556.569 18.3467 556.769 17.88C556.982 17.4 557.089 16.8067 557.089 16.1C557.089 15.0333 556.862 14.24 556.409 13.72C555.956 13.1867 555.356 12.92 554.609 12.92C554.116 12.92 553.682 13.04 553.309 13.28C552.936 13.5067 552.642 13.86 552.429 14.34C552.229 14.8067 552.129 15.3933 552.129 16.1C552.129 17.1533 552.356 17.9533 552.809 18.5C553.262 19.0333 553.862 19.3 554.609 19.3ZM566.481 21.2C565.375 21.2 564.421 20.9933 563.621 20.58C562.821 20.1667 562.201 19.58 561.761 18.82C561.335 18.06 561.121 17.16 561.121 16.12C561.121 15.1067 561.328 14.22 561.741 13.46C562.168 12.7 562.748 12.1067 563.481 11.68C564.228 11.24 565.075 11.02 566.021 11.02C566.715 11.02 567.335 11.1333 567.881 11.36C568.441 11.5867 568.915 11.9133 569.301 12.34C569.701 12.7667 570.001 13.2867 570.201 13.9C570.415 14.5 570.521 15.18 570.521 15.94C570.521 16.18 570.435 16.3667 570.261 16.5C570.101 16.62 569.868 16.68 569.561 16.68H563.141V15.24H568.761L568.441 15.54C568.441 14.9267 568.348 14.4133 568.161 14C567.988 13.5867 567.728 13.2733 567.381 13.06C567.048 12.8333 566.628 12.72 566.121 12.72C565.561 12.72 565.081 12.8533 564.681 13.12C564.295 13.3733 563.995 13.74 563.781 14.22C563.581 14.6867 563.481 15.2467 563.481 15.9V16.04C563.481 17.1333 563.735 17.9533 564.241 18.5C564.761 19.0333 565.521 19.3 566.521 19.3C566.868 19.3 567.255 19.26 567.681 19.18C568.121 19.0867 568.535 18.9333 568.921 18.72C569.201 18.56 569.448 18.4933 569.661 18.52C569.875 18.5333 570.041 18.6067 570.161 18.74C570.295 18.8733 570.375 19.04 570.401 19.24C570.428 19.4267 570.388 19.62 570.281 19.82C570.188 20.02 570.021 20.1933 569.781 20.34C569.315 20.6333 568.775 20.8533 568.161 21C567.561 21.1333 567.001 21.2 566.481 21.2ZM573.781 21.16C573.368 21.16 573.048 21.0533 572.821 20.84C572.608 20.6133 572.501 20.2933 572.501 19.88V12.32C572.501 11.9067 572.608 11.5933 572.821 11.38C573.035 11.1667 573.335 11.06 573.721 11.06C574.108 11.06 574.408 11.1667 574.621 11.38C574.835 11.5933 574.941 11.9067 574.941 12.32V13.58H574.741C574.928 12.78 575.295 12.1733 575.841 11.76C576.388 11.3467 577.115 11.1 578.021 11.02C578.301 10.9933 578.521 11.0667 578.681 11.24C578.855 11.4 578.955 11.6533 578.981 12C579.008 12.3333 578.928 12.6067 578.741 12.82C578.568 13.02 578.301 13.14 577.941 13.18L577.501 13.22C576.688 13.3 576.075 13.5533 575.661 13.98C575.248 14.3933 575.041 14.98 575.041 15.74V19.88C575.041 20.2933 574.935 20.6133 574.721 20.84C574.508 21.0533 574.195 21.16 573.781 21.16ZM581.084 21.1C580.631 21.1 580.264 20.96 579.984 20.68C579.717 20.4 579.584 20.04 579.584 19.6C579.584 19.1733 579.717 18.8267 579.984 18.56C580.264 18.28 580.631 18.14 581.084 18.14C581.551 18.14 581.911 18.28 582.164 18.56C582.431 18.8267 582.564 19.1733 582.564 19.6C582.564 20.04 582.431 20.4 582.164 20.68C581.911 20.96 581.551 21.1 581.084 21.1Z" fill="#444444"/>
</svg>
