<svg width="459" height="28" viewBox="0 0 459 28" fill="none" xmlns="http://www.w3.org/2000/svg">
<path d="M45.4274 21.16C45.0141 21.16 44.6941 21.0467 44.4674 20.82C44.2541 20.58 44.1474 20.2533 44.1474 19.84V8.2C44.1474 7.77333 44.2608 7.45333 44.4874 7.24C44.7141 7.01333 45.0341 6.9 45.4474 6.9H50.2674C51.8141 6.9 53.0074 7.27333 53.8474 8.02C54.6874 8.75333 55.1074 9.78667 55.1074 11.12C55.1074 11.9867 54.9141 12.7333 54.5274 13.36C54.1541 13.9867 53.6074 14.4667 52.8874 14.8C52.1674 15.1333 51.2941 15.3 50.2674 15.3L50.4474 15H51.1074C51.6541 15 52.1274 15.1333 52.5274 15.4C52.9408 15.6667 53.3008 16.0867 53.6074 16.66L55.1074 19.44C55.2674 19.72 55.3408 19.9933 55.3274 20.26C55.3141 20.5267 55.2141 20.7467 55.0274 20.92C54.8408 21.08 54.5674 21.16 54.2074 21.16C53.8474 21.16 53.5541 21.0867 53.3274 20.94C53.1008 20.78 52.9008 20.54 52.7274 20.22L50.7074 16.5C50.4674 16.0467 50.1808 15.7467 49.8474 15.6C49.5274 15.44 49.1141 15.36 48.6074 15.36H46.7074V19.84C46.7074 20.2533 46.6008 20.58 46.3874 20.82C46.1741 21.0467 45.8541 21.16 45.4274 21.16ZM46.7074 13.46H49.8274C50.7474 13.46 51.4408 13.2733 51.9074 12.9C52.3874 12.5133 52.6274 11.94 52.6274 11.18C52.6274 10.4333 52.3874 9.87333 51.9074 9.5C51.4408 9.11333 50.7474 8.92 49.8274 8.92H46.7074V13.46ZM62.1845 21.2C61.0778 21.2 60.1245 20.9933 59.3245 20.58C58.5245 20.1667 57.9045 19.58 57.4645 18.82C57.0378 18.06 56.8245 17.16 56.8245 16.12C56.8245 15.1067 57.0311 14.22 57.4445 13.46C57.8711 12.7 58.4511 12.1067 59.1845 11.68C59.9311 11.24 60.7778 11.02 61.7245 11.02C62.4178 11.02 63.0378 11.1333 63.5845 11.36C64.1445 11.5867 64.6178 11.9133 65.0045 12.34C65.4045 12.7667 65.7045 13.2867 65.9045 13.9C66.1178 14.5 66.2245 15.18 66.2245 15.94C66.2245 16.18 66.1378 16.3667 65.9645 16.5C65.8045 16.62 65.5711 16.68 65.2645 16.68H58.8445V15.24H64.4645L64.1445 15.54C64.1445 14.9267 64.0511 14.4133 63.8645 14C63.6911 13.5867 63.4311 13.2733 63.0845 13.06C62.7511 12.8333 62.3311 12.72 61.8245 12.72C61.2645 12.72 60.7845 12.8533 60.3845 13.12C59.9978 13.3733 59.6978 13.74 59.4845 14.22C59.2845 14.6867 59.1845 15.2467 59.1845 15.9V16.04C59.1845 17.1333 59.4378 17.9533 59.9445 18.5C60.4645 19.0333 61.2245 19.3 62.2245 19.3C62.5711 19.3 62.9578 19.26 63.3845 19.18C63.8245 19.0867 64.2378 18.9333 64.6245 18.72C64.9045 18.56 65.1511 18.4933 65.3645 18.52C65.5778 18.5333 65.7445 18.6067 65.8645 18.74C65.9978 18.8733 66.0778 19.04 66.1045 19.24C66.1311 19.4267 66.0911 19.62 65.9845 19.82C65.8911 20.02 65.7245 20.1933 65.4845 20.34C65.0178 20.6333 64.4778 20.8533 63.8645 21C63.2645 21.1333 62.7045 21.2 62.1845 21.2ZM69.4443 24.76C69.0443 24.76 68.7376 24.6533 68.5243 24.44C68.311 24.2267 68.2043 23.9133 68.2043 23.5V12.32C68.2043 11.9067 68.311 11.5933 68.5243 11.38C68.7376 11.1667 69.0376 11.06 69.4243 11.06C69.8243 11.06 70.131 11.1667 70.3443 11.38C70.5576 11.5933 70.6643 11.9067 70.6643 12.32V13.88L70.4443 13.28C70.6443 12.6 71.051 12.0533 71.6643 11.64C72.291 11.2267 73.0176 11.02 73.8443 11.02C74.6976 11.02 75.4443 11.2267 76.0843 11.64C76.7376 12.0533 77.2443 12.64 77.6043 13.4C77.9643 14.1467 78.1443 15.0467 78.1443 16.1C78.1443 17.14 77.9643 18.0467 77.6043 18.82C77.2443 19.58 76.7443 20.1667 76.1043 20.58C75.4643 20.9933 74.711 21.2 73.8443 21.2C73.031 21.2 72.3176 21 71.7043 20.6C71.091 20.1867 70.6776 19.6533 70.4643 19H70.7043V23.5C70.7043 23.9133 70.591 24.2267 70.3643 24.44C70.151 24.6533 69.8443 24.76 69.4443 24.76ZM73.1443 19.3C73.6376 19.3 74.071 19.18 74.4443 18.94C74.8176 18.7 75.1043 18.3467 75.3043 17.88C75.5176 17.4 75.6243 16.8067 75.6243 16.1C75.6243 15.0333 75.3976 14.24 74.9443 13.72C74.491 13.1867 73.891 12.92 73.1443 12.92C72.651 12.92 72.2176 13.04 71.8443 13.28C71.471 13.5067 71.1776 13.86 70.9643 14.34C70.7643 14.8067 70.6643 15.3933 70.6643 16.1C70.6643 17.1533 70.891 17.9533 71.3443 18.5C71.7976 19.0333 72.3976 19.3 73.1443 19.3ZM81.4765 21.16C81.0632 21.16 80.7432 21.0533 80.5165 20.84C80.3032 20.6133 80.1965 20.2933 80.1965 19.88V12.32C80.1965 11.9067 80.3032 11.5933 80.5165 11.38C80.7298 11.1667 81.0298 11.06 81.4165 11.06C81.8032 11.06 82.1032 11.1667 82.3165 11.38C82.5298 11.5933 82.6365 11.9067 82.6365 12.32V13.58H82.4365C82.6232 12.78 82.9898 12.1733 83.5365 11.76C84.0832 11.3467 84.8098 11.1 85.7165 11.02C85.9965 10.9933 86.2165 11.0667 86.3765 11.24C86.5498 11.4 86.6498 11.6533 86.6765 12C86.7032 12.3333 86.6232 12.6067 86.4365 12.82C86.2632 13.02 85.9965 13.14 85.6365 13.18L85.1965 13.22C84.3832 13.3 83.7698 13.5533 83.3565 13.98C82.9432 14.3933 82.7365 14.98 82.7365 15.74V19.88C82.7365 20.2933 82.6298 20.6133 82.4165 20.84C82.2032 21.0533 81.8898 21.16 81.4765 21.16ZM92.6923 21.2C91.5856 21.2 90.6323 20.9933 89.8323 20.58C89.0323 20.1667 88.4123 19.58 87.9723 18.82C87.5456 18.06 87.3323 17.16 87.3323 16.12C87.3323 15.1067 87.5389 14.22 87.9523 13.46C88.3789 12.7 88.9589 12.1067 89.6923 11.68C90.4389 11.24 91.2856 11.02 92.2323 11.02C92.9256 11.02 93.5456 11.1333 94.0923 11.36C94.6523 11.5867 95.1256 11.9133 95.5123 12.34C95.9123 12.7667 96.2123 13.2867 96.4123 13.9C96.6256 14.5 96.7323 15.18 96.7323 15.94C96.7323 16.18 96.6456 16.3667 96.4723 16.5C96.3123 16.62 96.0789 16.68 95.7723 16.68H89.3523V15.24H94.9723L94.6523 15.54C94.6523 14.9267 94.5589 14.4133 94.3723 14C94.1989 13.5867 93.9389 13.2733 93.5923 13.06C93.2589 12.8333 92.8389 12.72 92.3323 12.72C91.7723 12.72 91.2923 12.8533 90.8923 13.12C90.5056 13.3733 90.2056 13.74 89.9923 14.22C89.7923 14.6867 89.6923 15.2467 89.6923 15.9V16.04C89.6923 17.1333 89.9456 17.9533 90.4523 18.5C90.9723 19.0333 91.7323 19.3 92.7323 19.3C93.0789 19.3 93.4656 19.26 93.8923 19.18C94.3323 19.0867 94.7456 18.9333 95.1323 18.72C95.4123 18.56 95.6589 18.4933 95.8723 18.52C96.0856 18.5333 96.2523 18.6067 96.3723 18.74C96.5056 18.8733 96.5856 19.04 96.6123 19.24C96.6389 19.4267 96.5989 19.62 96.4923 19.82C96.3989 20.02 96.2323 20.1933 95.9923 20.34C95.5256 20.6333 94.9856 20.8533 94.3723 21C93.7723 21.1333 93.2123 21.2 92.6923 21.2ZM102.292 21.2C101.719 21.2 101.112 21.14 100.472 21.02C99.8321 20.9 99.2588 20.6933 98.7521 20.4C98.5388 20.2667 98.3854 20.1133 98.2921 19.94C98.2121 19.7533 98.1788 19.5733 98.1921 19.4C98.2188 19.2133 98.2854 19.0533 98.3921 18.92C98.5121 18.7867 98.6588 18.7 98.8321 18.66C99.0188 18.62 99.2188 18.6533 99.4321 18.76C99.9654 19.0133 100.465 19.1933 100.932 19.3C101.399 19.3933 101.859 19.44 102.312 19.44C102.952 19.44 103.425 19.3333 103.732 19.12C104.052 18.8933 104.212 18.6 104.212 18.24C104.212 17.9333 104.105 17.7 103.892 17.54C103.692 17.3667 103.385 17.24 102.972 17.16L100.972 16.78C100.145 16.62 99.5121 16.32 99.0721 15.88C98.6454 15.4267 98.4321 14.8467 98.4321 14.14C98.4321 13.5 98.6054 12.9467 98.9521 12.48C99.3121 12.0133 99.8054 11.6533 100.432 11.4C101.059 11.1467 101.779 11.02 102.592 11.02C103.179 11.02 103.725 11.0867 104.232 11.22C104.752 11.34 105.252 11.5333 105.732 11.8C105.932 11.9067 106.065 12.0467 106.132 12.22C106.212 12.3933 106.232 12.5733 106.192 12.76C106.152 12.9333 106.072 13.0933 105.952 13.24C105.832 13.3733 105.679 13.46 105.492 13.5C105.319 13.5267 105.119 13.4867 104.892 13.38C104.479 13.1667 104.079 13.0133 103.692 12.92C103.319 12.8267 102.959 12.78 102.612 12.78C101.959 12.78 101.472 12.8933 101.152 13.12C100.845 13.3467 100.692 13.6467 100.692 14.02C100.692 14.3 100.785 14.5333 100.972 14.72C101.159 14.9067 101.445 15.0333 101.832 15.1L103.832 15.48C104.699 15.64 105.352 15.9333 105.792 16.36C106.245 16.7867 106.472 17.36 106.472 18.08C106.472 19.0533 106.092 19.82 105.332 20.38C104.572 20.9267 103.559 21.2 102.292 21.2ZM113.298 21.2C112.191 21.2 111.238 20.9933 110.438 20.58C109.638 20.1667 109.018 19.58 108.578 18.82C108.151 18.06 107.938 17.16 107.938 16.12C107.938 15.1067 108.144 14.22 108.558 13.46C108.984 12.7 109.564 12.1067 110.298 11.68C111.044 11.24 111.891 11.02 112.838 11.02C113.531 11.02 114.151 11.1333 114.698 11.36C115.258 11.5867 115.731 11.9133 116.118 12.34C116.518 12.7667 116.818 13.2867 117.018 13.9C117.231 14.5 117.338 15.18 117.338 15.94C117.338 16.18 117.251 16.3667 117.078 16.5C116.918 16.62 116.684 16.68 116.378 16.68H109.958V15.24H115.578L115.258 15.54C115.258 14.9267 115.164 14.4133 114.978 14C114.804 13.5867 114.544 13.2733 114.198 13.06C113.864 12.8333 113.444 12.72 112.938 12.72C112.378 12.72 111.898 12.8533 111.498 13.12C111.111 13.3733 110.811 13.74 110.598 14.22C110.398 14.6867 110.298 15.2467 110.298 15.9V16.04C110.298 17.1333 110.551 17.9533 111.058 18.5C111.578 19.0333 112.338 19.3 113.338 19.3C113.684 19.3 114.071 19.26 114.498 19.18C114.938 19.0867 115.351 18.9333 115.738 18.72C116.018 18.56 116.264 18.4933 116.478 18.52C116.691 18.5333 116.858 18.6067 116.978 18.74C117.111 18.8733 117.191 19.04 117.218 19.24C117.244 19.4267 117.204 19.62 117.098 19.82C117.004 20.02 116.838 20.1933 116.598 20.34C116.131 20.6333 115.591 20.8533 114.978 21C114.378 21.1333 113.818 21.2 113.298 21.2ZM120.558 21.16C120.158 21.16 119.851 21.0533 119.638 20.84C119.424 20.6133 119.318 20.2933 119.318 19.88V12.32C119.318 11.9067 119.424 11.5933 119.638 11.38C119.851 11.1667 120.151 11.06 120.538 11.06C120.924 11.06 121.224 11.1667 121.438 11.38C121.651 11.5933 121.758 11.9067 121.758 12.32V13.68L121.538 13.18C121.831 12.4733 122.284 11.94 122.898 11.58C123.524 11.2067 124.231 11.02 125.018 11.02C125.804 11.02 126.451 11.1667 126.958 11.46C127.464 11.7533 127.844 12.2 128.098 12.8C128.351 13.3867 128.478 14.1333 128.478 15.04V19.88C128.478 20.2933 128.371 20.6133 128.158 20.84C127.944 21.0533 127.638 21.16 127.238 21.16C126.838 21.16 126.524 21.0533 126.298 20.84C126.084 20.6133 125.978 20.2933 125.978 19.88V15.16C125.978 14.4 125.831 13.8467 125.538 13.5C125.258 13.1533 124.818 12.98 124.218 12.98C123.484 12.98 122.898 13.2133 122.458 13.68C122.031 14.1333 121.818 14.74 121.818 15.5V19.88C121.818 20.7333 121.398 21.16 120.558 21.16ZM135.497 21.2C134.63 21.2 133.903 21.0533 133.317 20.76C132.743 20.4667 132.317 20.04 132.037 19.48C131.757 18.9067 131.617 18.2 131.617 17.36V13.1H130.577C130.257 13.1 130.01 13.02 129.837 12.86C129.663 12.6867 129.577 12.4533 129.577 12.16C129.577 11.8533 129.663 11.62 129.837 11.46C130.01 11.3 130.257 11.22 130.577 11.22H131.617V9.4C131.617 8.98667 131.723 8.67333 131.937 8.46C132.163 8.24667 132.477 8.14 132.877 8.14C133.277 8.14 133.583 8.24667 133.797 8.46C134.01 8.67333 134.117 8.98667 134.117 9.4V11.22H136.237C136.557 11.22 136.803 11.3 136.977 11.46C137.15 11.62 137.237 11.8533 137.237 12.16C137.237 12.4533 137.15 12.6867 136.977 12.86C136.803 13.02 136.557 13.1 136.237 13.1H134.117V17.22C134.117 17.86 134.257 18.34 134.537 18.66C134.817 18.98 135.27 19.14 135.897 19.14C136.123 19.14 136.323 19.12 136.497 19.08C136.67 19.04 136.823 19.0133 136.957 19C137.117 18.9867 137.25 19.04 137.357 19.16C137.463 19.2667 137.517 19.4933 137.517 19.84C137.517 20.1067 137.47 20.3467 137.377 20.56C137.297 20.76 137.143 20.9 136.917 20.98C136.743 21.0333 136.517 21.08 136.237 21.12C135.957 21.1733 135.71 21.2 135.497 21.2Z" fill="#444444"/>
<rect x="142.5" width="39" height="28" rx="5" fill="#E8F0FE"/>
<path d="M153.247 21.2C152.527 21.2 151.781 21.1067 151.007 20.92C150.234 20.7333 149.561 20.4533 148.987 20.08C148.721 19.9067 148.541 19.7067 148.447 19.48C148.354 19.2533 148.327 19.04 148.367 18.84C148.421 18.6267 148.521 18.4467 148.667 18.3C148.827 18.1533 149.021 18.0667 149.247 18.04C149.487 18.0133 149.747 18.0733 150.027 18.22C150.574 18.5133 151.101 18.7267 151.607 18.86C152.114 18.98 152.634 19.04 153.167 19.04C153.754 19.04 154.247 18.96 154.647 18.8C155.047 18.64 155.347 18.4 155.547 18.08C155.761 17.76 155.867 17.3733 155.867 16.92C155.867 16.2533 155.641 15.76 155.187 15.44C154.747 15.1067 154.101 14.94 153.247 14.94H151.967C151.594 14.94 151.307 14.8467 151.107 14.66C150.921 14.4733 150.827 14.2133 150.827 13.88C150.827 13.5467 150.921 13.2867 151.107 13.1C151.307 12.9133 151.594 12.82 151.967 12.82H153.007C153.514 12.82 153.947 12.74 154.307 12.58C154.667 12.4067 154.947 12.1667 155.147 11.86C155.347 11.5533 155.447 11.18 155.447 10.74C155.447 10.1267 155.241 9.66 154.827 9.34C154.427 9.02 153.841 8.86 153.067 8.86C152.574 8.86 152.107 8.92 151.667 9.04C151.241 9.14667 150.767 9.35333 150.247 9.66C150.007 9.80667 149.774 9.86667 149.547 9.84C149.334 9.81333 149.154 9.72667 149.007 9.58C148.861 9.43333 148.761 9.26 148.707 9.06C148.654 8.84667 148.667 8.63333 148.747 8.42C148.827 8.19333 148.994 8 149.247 7.84C149.821 7.46667 150.454 7.18667 151.147 7C151.841 6.8 152.554 6.7 153.287 6.7C154.261 6.7 155.094 6.85333 155.787 7.16C156.481 7.45333 157.007 7.88 157.367 8.44C157.741 8.98667 157.927 9.65333 157.927 10.44C157.927 11 157.821 11.5133 157.607 11.98C157.394 12.4333 157.094 12.82 156.707 13.14C156.321 13.46 155.854 13.6867 155.307 13.82V13.58C156.267 13.74 157.014 14.14 157.547 14.78C158.081 15.4067 158.347 16.1933 158.347 17.14C158.347 17.9667 158.141 18.6867 157.727 19.3C157.314 19.9133 156.727 20.3867 155.967 20.72C155.207 21.04 154.301 21.2 153.247 21.2ZM162.02 21.1C161.566 21.1 161.2 20.96 160.92 20.68C160.653 20.4 160.52 20.04 160.52 19.6C160.52 19.1733 160.653 18.8267 160.92 18.56C161.2 18.28 161.566 18.14 162.02 18.14C162.486 18.14 162.846 18.28 163.1 18.56C163.366 18.8267 163.5 19.1733 163.5 19.6C163.5 20.04 163.366 20.4 163.1 20.68C162.846 20.96 162.486 21.1 162.02 21.1ZM172.74 21.16C172.34 21.16 172.027 21.0533 171.8 20.84C171.574 20.6133 171.46 20.2933 171.46 19.88V18.32H166.52C166.107 18.32 165.774 18.2333 165.52 18.06C165.28 17.8867 165.16 17.6133 165.16 17.24C165.16 17.0267 165.214 16.7933 165.32 16.54C165.44 16.2867 165.647 15.9533 165.94 15.54L171.42 7.6C171.607 7.32 171.814 7.10667 172.04 6.96C172.267 6.81333 172.527 6.74 172.82 6.74C173.167 6.74 173.454 6.84667 173.68 7.06C173.907 7.26 174.02 7.58 174.02 8.02V16.2H175C175.387 16.2 175.674 16.2933 175.86 16.48C176.06 16.6533 176.16 16.9133 176.16 17.26C176.16 17.6067 176.06 17.8733 175.86 18.06C175.674 18.2333 175.387 18.32 175 18.32H174.02V19.88C174.02 20.2933 173.907 20.6133 173.68 20.84C173.454 21.0533 173.14 21.16 172.74 21.16ZM171.46 16.2V9.96H172.04L167.32 16.88V16.2H171.46Z" fill="#6595DE"/>
<path d="M192.565 21.2C191.551 21.2 190.671 20.9933 189.925 20.58C189.178 20.1667 188.598 19.58 188.185 18.82C187.771 18.0467 187.565 17.14 187.565 16.1C187.565 15.3133 187.678 14.6133 187.905 14C188.145 13.3733 188.485 12.84 188.925 12.4C189.365 11.9467 189.891 11.6067 190.505 11.38C191.118 11.14 191.805 11.02 192.565 11.02C193.578 11.02 194.458 11.2267 195.205 11.64C195.951 12.0533 196.531 12.64 196.945 13.4C197.358 14.16 197.565 15.06 197.565 16.1C197.565 16.8867 197.445 17.5933 197.205 18.22C196.978 18.8467 196.645 19.3867 196.205 19.84C195.765 20.28 195.238 20.62 194.625 20.86C194.011 21.0867 193.325 21.2 192.565 21.2ZM192.565 19.3C193.058 19.3 193.491 19.18 193.865 18.94C194.238 18.7 194.525 18.3467 194.725 17.88C194.938 17.4 195.045 16.8067 195.045 16.1C195.045 15.0333 194.818 14.24 194.365 13.72C193.911 13.1867 193.311 12.92 192.565 12.92C192.071 12.92 191.638 13.04 191.265 13.28C190.891 13.5067 190.598 13.86 190.385 14.34C190.185 14.8067 190.085 15.3933 190.085 16.1C190.085 17.1533 190.311 17.9533 190.765 18.5C191.218 19.0333 191.818 19.3 192.565 19.3ZM200.868 21.16C200.468 21.16 200.161 21.0533 199.948 20.84C199.735 20.6133 199.628 20.2933 199.628 19.88V12.32C199.628 11.9067 199.735 11.5933 199.948 11.38C200.161 11.1667 200.461 11.06 200.848 11.06C201.235 11.06 201.535 11.1667 201.748 11.38C201.961 11.5933 202.068 11.9067 202.068 12.32V13.68L201.848 13.18C202.141 12.4733 202.595 11.94 203.208 11.58C203.835 11.2067 204.541 11.02 205.328 11.02C206.115 11.02 206.761 11.1667 207.268 11.46C207.775 11.7533 208.155 12.2 208.408 12.8C208.661 13.3867 208.788 14.1333 208.788 15.04V19.88C208.788 20.2933 208.681 20.6133 208.468 20.84C208.255 21.0533 207.948 21.16 207.548 21.16C207.148 21.16 206.835 21.0533 206.608 20.84C206.395 20.6133 206.288 20.2933 206.288 19.88V15.16C206.288 14.4 206.141 13.8467 205.848 13.5C205.568 13.1533 205.128 12.98 204.528 12.98C203.795 12.98 203.208 13.2133 202.768 13.68C202.341 14.1333 202.128 14.74 202.128 15.5V19.88C202.128 20.7333 201.708 21.16 200.868 21.16ZM221.237 21.2C220.37 21.2 219.644 21.0533 219.057 20.76C218.484 20.4667 218.057 20.04 217.777 19.48C217.497 18.9067 217.357 18.2 217.357 17.36V13.1H216.317C215.997 13.1 215.75 13.02 215.577 12.86C215.404 12.6867 215.317 12.4533 215.317 12.16C215.317 11.8533 215.404 11.62 215.577 11.46C215.75 11.3 215.997 11.22 216.317 11.22H217.357V9.4C217.357 8.98667 217.464 8.67333 217.677 8.46C217.904 8.24667 218.217 8.14 218.617 8.14C219.017 8.14 219.324 8.24667 219.537 8.46C219.75 8.67333 219.857 8.98667 219.857 9.4V11.22H221.977C222.297 11.22 222.544 11.3 222.717 11.46C222.89 11.62 222.977 11.8533 222.977 12.16C222.977 12.4533 222.89 12.6867 222.717 12.86C222.544 13.02 222.297 13.1 221.977 13.1H219.857V17.22C219.857 17.86 219.997 18.34 220.277 18.66C220.557 18.98 221.01 19.14 221.637 19.14C221.864 19.14 222.064 19.12 222.237 19.08C222.41 19.04 222.564 19.0133 222.697 19C222.857 18.9867 222.99 19.04 223.097 19.16C223.204 19.2667 223.257 19.4933 223.257 19.84C223.257 20.1067 223.21 20.3467 223.117 20.56C223.037 20.76 222.884 20.9 222.657 20.98C222.484 21.0333 222.257 21.08 221.977 21.12C221.697 21.1733 221.45 21.2 221.237 21.2ZM225.927 21.16C225.527 21.16 225.22 21.0533 225.007 20.84C224.793 20.6133 224.687 20.2933 224.687 19.88V8C224.687 7.58667 224.793 7.27333 225.007 7.06C225.22 6.84667 225.527 6.74 225.927 6.74C226.327 6.74 226.633 6.84667 226.847 7.06C227.073 7.27333 227.187 7.58667 227.187 8V13.18H226.907C227.2 12.4733 227.653 11.94 228.267 11.58C228.893 11.2067 229.6 11.02 230.387 11.02C231.173 11.02 231.82 11.1667 232.327 11.46C232.833 11.7533 233.213 12.2 233.467 12.8C233.72 13.3867 233.847 14.1333 233.847 15.04V19.88C233.847 20.2933 233.74 20.6133 233.527 20.84C233.313 21.0533 233.007 21.16 232.607 21.16C232.207 21.16 231.893 21.0533 231.667 20.84C231.453 20.6133 231.347 20.2933 231.347 19.88V15.16C231.347 14.4 231.2 13.8467 230.907 13.5C230.627 13.1533 230.187 12.98 229.587 12.98C228.853 12.98 228.267 13.2133 227.827 13.68C227.4 14.1333 227.187 14.74 227.187 15.5V19.88C227.187 20.7333 226.767 21.16 225.927 21.16ZM241.206 21.2C240.099 21.2 239.146 20.9933 238.346 20.58C237.546 20.1667 236.926 19.58 236.486 18.82C236.059 18.06 235.846 17.16 235.846 16.12C235.846 15.1067 236.053 14.22 236.466 13.46C236.893 12.7 237.473 12.1067 238.206 11.68C238.953 11.24 239.799 11.02 240.746 11.02C241.439 11.02 242.059 11.1333 242.606 11.36C243.166 11.5867 243.639 11.9133 244.026 12.34C244.426 12.7667 244.726 13.2867 244.926 13.9C245.139 14.5 245.246 15.18 245.246 15.94C245.246 16.18 245.159 16.3667 244.986 16.5C244.826 16.62 244.593 16.68 244.286 16.68H237.866V15.24H243.486L243.166 15.54C243.166 14.9267 243.073 14.4133 242.886 14C242.713 13.5867 242.453 13.2733 242.106 13.06C241.773 12.8333 241.353 12.72 240.846 12.72C240.286 12.72 239.806 12.8533 239.406 13.12C239.019 13.3733 238.719 13.74 238.506 14.22C238.306 14.6867 238.206 15.2467 238.206 15.9V16.04C238.206 17.1333 238.459 17.9533 238.966 18.5C239.486 19.0333 240.246 19.3 241.246 19.3C241.593 19.3 241.979 19.26 242.406 19.18C242.846 19.0867 243.259 18.9333 243.646 18.72C243.926 18.56 244.173 18.4933 244.386 18.52C244.599 18.5333 244.766 18.6067 244.886 18.74C245.019 18.8733 245.099 19.04 245.126 19.24C245.153 19.4267 245.113 19.62 245.006 19.82C244.913 20.02 244.746 20.1933 244.506 20.34C244.039 20.6333 243.499 20.8533 242.886 21C242.286 21.1333 241.726 21.2 241.206 21.2ZM257.135 21.2C256.269 21.2 255.542 21.0533 254.955 20.76C254.382 20.4667 253.955 20.04 253.675 19.48C253.395 18.9067 253.255 18.2 253.255 17.36V13.1H252.215C251.895 13.1 251.649 13.02 251.475 12.86C251.302 12.6867 251.215 12.4533 251.215 12.16C251.215 11.8533 251.302 11.62 251.475 11.46C251.649 11.3 251.895 11.22 252.215 11.22H253.255V9.4C253.255 8.98667 253.362 8.67333 253.575 8.46C253.802 8.24667 254.115 8.14 254.515 8.14C254.915 8.14 255.222 8.24667 255.435 8.46C255.649 8.67333 255.755 8.98667 255.755 9.4V11.22H257.875C258.195 11.22 258.442 11.3 258.615 11.46C258.789 11.62 258.875 11.8533 258.875 12.16C258.875 12.4533 258.789 12.6867 258.615 12.86C258.442 13.02 258.195 13.1 257.875 13.1H255.755V17.22C255.755 17.86 255.895 18.34 256.175 18.66C256.455 18.98 256.909 19.14 257.535 19.14C257.762 19.14 257.962 19.12 258.135 19.08C258.309 19.04 258.462 19.0133 258.595 19C258.755 18.9867 258.889 19.04 258.995 19.16C259.102 19.2667 259.155 19.4933 259.155 19.84C259.155 20.1067 259.109 20.3467 259.015 20.56C258.935 20.76 258.782 20.9 258.555 20.98C258.382 21.0333 258.155 21.08 257.875 21.12C257.595 21.1733 257.349 21.2 257.135 21.2ZM265.054 21.2C263.947 21.2 262.994 20.9933 262.194 20.58C261.394 20.1667 260.774 19.58 260.334 18.82C259.907 18.06 259.694 17.16 259.694 16.12C259.694 15.1067 259.9 14.22 260.314 13.46C260.74 12.7 261.32 12.1067 262.054 11.68C262.8 11.24 263.647 11.02 264.594 11.02C265.287 11.02 265.907 11.1333 266.454 11.36C267.014 11.5867 267.487 11.9133 267.874 12.34C268.274 12.7667 268.574 13.2867 268.774 13.9C268.987 14.5 269.094 15.18 269.094 15.94C269.094 16.18 269.007 16.3667 268.834 16.5C268.674 16.62 268.44 16.68 268.134 16.68H261.714V15.24H267.334L267.014 15.54C267.014 14.9267 266.92 14.4133 266.734 14C266.56 13.5867 266.3 13.2733 265.954 13.06C265.62 12.8333 265.2 12.72 264.694 12.72C264.134 12.72 263.654 12.8533 263.254 13.12C262.867 13.3733 262.567 13.74 262.354 14.22C262.154 14.6867 262.054 15.2467 262.054 15.9V16.04C262.054 17.1333 262.307 17.9533 262.814 18.5C263.334 19.0333 264.094 19.3 265.094 19.3C265.44 19.3 265.827 19.26 266.254 19.18C266.694 19.0867 267.107 18.9333 267.494 18.72C267.774 18.56 268.02 18.4933 268.234 18.52C268.447 18.5333 268.614 18.6067 268.734 18.74C268.867 18.8733 268.947 19.04 268.974 19.24C269 19.4267 268.96 19.62 268.854 19.82C268.76 20.02 268.594 20.1933 268.354 20.34C267.887 20.6333 267.347 20.8533 266.734 21C266.134 21.1333 265.574 21.2 265.054 21.2ZM272.313 21.16C271.913 21.16 271.607 21.0533 271.393 20.84C271.18 20.6133 271.073 20.2933 271.073 19.88V12.32C271.073 11.9067 271.18 11.5933 271.393 11.38C271.607 11.1667 271.907 11.06 272.293 11.06C272.68 11.06 272.98 11.1667 273.193 11.38C273.407 11.5933 273.513 11.9067 273.513 12.32V13.68L273.293 13.18C273.587 12.4733 274.04 11.94 274.653 11.58C275.28 11.2067 275.987 11.02 276.773 11.02C277.56 11.02 278.207 11.1667 278.713 11.46C279.22 11.7533 279.6 12.2 279.853 12.8C280.107 13.3867 280.233 14.1333 280.233 15.04V19.88C280.233 20.2933 280.127 20.6133 279.913 20.84C279.7 21.0533 279.393 21.16 278.993 21.16C278.593 21.16 278.28 21.0533 278.053 20.84C277.84 20.6133 277.733 20.2933 277.733 19.88V15.16C277.733 14.4 277.587 13.8467 277.293 13.5C277.013 13.1533 276.573 12.98 275.973 12.98C275.24 12.98 274.653 13.2133 274.213 13.68C273.787 14.1333 273.573 14.74 273.573 15.5V19.88C273.573 20.7333 273.153 21.16 272.313 21.16ZM287.253 21.2C286.386 21.2 285.659 21.0533 285.073 20.76C284.499 20.4667 284.073 20.04 283.793 19.48C283.513 18.9067 283.373 18.2 283.373 17.36V13.1H282.333C282.013 13.1 281.766 13.02 281.593 12.86C281.419 12.6867 281.333 12.4533 281.333 12.16C281.333 11.8533 281.419 11.62 281.593 11.46C281.766 11.3 282.013 11.22 282.333 11.22H283.373V9.4C283.373 8.98667 283.479 8.67333 283.693 8.46C283.919 8.24667 284.233 8.14 284.633 8.14C285.033 8.14 285.339 8.24667 285.553 8.46C285.766 8.67333 285.873 8.98667 285.873 9.4V11.22H287.993C288.313 11.22 288.559 11.3 288.733 11.46C288.906 11.62 288.993 11.8533 288.993 12.16C288.993 12.4533 288.906 12.6867 288.733 12.86C288.559 13.02 288.313 13.1 287.993 13.1H285.873V17.22C285.873 17.86 286.013 18.34 286.293 18.66C286.573 18.98 287.026 19.14 287.653 19.14C287.879 19.14 288.079 19.12 288.253 19.08C288.426 19.04 288.579 19.0133 288.713 19C288.873 18.9867 289.006 19.04 289.113 19.16C289.219 19.2667 289.273 19.4933 289.273 19.84C289.273 20.1067 289.226 20.3467 289.133 20.56C289.053 20.76 288.899 20.9 288.673 20.98C288.499 21.0333 288.273 21.08 287.993 21.12C287.713 21.1733 287.466 21.2 287.253 21.2ZM291.942 21.16C291.542 21.16 291.236 21.0533 291.022 20.84C290.809 20.6133 290.702 20.2933 290.702 19.88V8C290.702 7.58667 290.809 7.27333 291.022 7.06C291.236 6.84667 291.542 6.74 291.942 6.74C292.342 6.74 292.649 6.84667 292.862 7.06C293.089 7.27333 293.202 7.58667 293.202 8V13.18H292.922C293.216 12.4733 293.669 11.94 294.282 11.58C294.909 11.2067 295.616 11.02 296.402 11.02C297.189 11.02 297.836 11.1667 298.342 11.46C298.849 11.7533 299.229 12.2 299.482 12.8C299.736 13.3867 299.862 14.1333 299.862 15.04V19.88C299.862 20.2933 299.756 20.6133 299.542 20.84C299.329 21.0533 299.022 21.16 298.622 21.16C298.222 21.16 297.909 21.0533 297.682 20.84C297.469 20.6133 297.362 20.2933 297.362 19.88V15.16C297.362 14.4 297.216 13.8467 296.922 13.5C296.642 13.1533 296.202 12.98 295.602 12.98C294.869 12.98 294.282 13.2133 293.842 13.68C293.416 14.1333 293.202 14.74 293.202 15.5V19.88C293.202 20.7333 292.782 21.16 291.942 21.16ZM305.982 21.2C305.408 21.2 304.802 21.14 304.162 21.02C303.522 20.9 302.948 20.6933 302.442 20.4C302.228 20.2667 302.075 20.1133 301.982 19.94C301.902 19.7533 301.868 19.5733 301.882 19.4C301.908 19.2133 301.975 19.0533 302.082 18.92C302.202 18.7867 302.348 18.7 302.522 18.66C302.708 18.62 302.908 18.6533 303.122 18.76C303.655 19.0133 304.155 19.1933 304.622 19.3C305.088 19.3933 305.548 19.44 306.002 19.44C306.642 19.44 307.115 19.3333 307.422 19.12C307.742 18.8933 307.902 18.6 307.902 18.24C307.902 17.9333 307.795 17.7 307.582 17.54C307.382 17.3667 307.075 17.24 306.662 17.16L304.662 16.78C303.835 16.62 303.202 16.32 302.762 15.88C302.335 15.4267 302.122 14.8467 302.122 14.14C302.122 13.5 302.295 12.9467 302.642 12.48C303.002 12.0133 303.495 11.6533 304.122 11.4C304.748 11.1467 305.468 11.02 306.282 11.02C306.868 11.02 307.415 11.0867 307.922 11.22C308.442 11.34 308.942 11.5333 309.422 11.8C309.622 11.9067 309.755 12.0467 309.822 12.22C309.902 12.3933 309.922 12.5733 309.882 12.76C309.842 12.9333 309.762 13.0933 309.642 13.24C309.522 13.3733 309.368 13.46 309.182 13.5C309.008 13.5267 308.808 13.4867 308.582 13.38C308.168 13.1667 307.768 13.0133 307.382 12.92C307.008 12.8267 306.648 12.78 306.302 12.78C305.648 12.78 305.162 12.8933 304.842 13.12C304.535 13.3467 304.382 13.6467 304.382 14.02C304.382 14.3 304.475 14.5333 304.662 14.72C304.848 14.9067 305.135 15.0333 305.522 15.1L307.522 15.48C308.388 15.64 309.042 15.9333 309.482 16.36C309.935 16.7867 310.162 17.36 310.162 18.08C310.162 19.0533 309.782 19.82 309.022 20.38C308.262 20.9267 307.248 21.2 305.982 21.2ZM318.837 21.16C318.437 21.16 318.13 21.0533 317.917 20.84C317.704 20.6133 317.597 20.2933 317.597 19.88V12.32C317.597 11.9067 317.704 11.5933 317.917 11.38C318.13 11.1667 318.43 11.06 318.817 11.06C319.204 11.06 319.504 11.1667 319.717 11.38C319.93 11.5933 320.037 11.9067 320.037 12.32V13.68L319.817 13.18C320.11 12.4733 320.564 11.94 321.177 11.58C321.804 11.2067 322.51 11.02 323.297 11.02C324.084 11.02 324.73 11.1667 325.237 11.46C325.744 11.7533 326.124 12.2 326.377 12.8C326.63 13.3867 326.757 14.1333 326.757 15.04V19.88C326.757 20.2933 326.65 20.6133 326.437 20.84C326.224 21.0533 325.917 21.16 325.517 21.16C325.117 21.16 324.804 21.0533 324.577 20.84C324.364 20.6133 324.257 20.2933 324.257 19.88V15.16C324.257 14.4 324.11 13.8467 323.817 13.5C323.537 13.1533 323.097 12.98 322.497 12.98C321.764 12.98 321.177 13.2133 320.737 13.68C320.31 14.1333 320.097 14.74 320.097 15.5V19.88C320.097 20.7333 319.677 21.16 318.837 21.16ZM332.836 21.2C332.023 21.2 331.349 21.0533 330.816 20.76C330.283 20.4533 329.883 20 329.616 19.4C329.363 18.8 329.236 18.0533 329.236 17.16V12.32C329.236 11.8933 329.343 11.58 329.556 11.38C329.769 11.1667 330.076 11.06 330.476 11.06C330.876 11.06 331.183 11.1667 331.396 11.38C331.623 11.58 331.736 11.8933 331.736 12.32V17.2C331.736 17.8933 331.876 18.4067 332.156 18.74C332.436 19.0733 332.883 19.24 333.496 19.24C334.163 19.24 334.709 19.0133 335.136 18.56C335.563 18.0933 335.776 17.48 335.776 16.72V12.32C335.776 11.8933 335.883 11.58 336.096 11.38C336.309 11.1667 336.616 11.06 337.016 11.06C337.416 11.06 337.723 11.1667 337.936 11.38C338.163 11.58 338.276 11.8933 338.276 12.32V19.88C338.276 20.7333 337.869 21.16 337.056 21.16C336.669 21.16 336.369 21.0533 336.156 20.84C335.943 20.6133 335.836 20.2933 335.836 19.88V18.36L336.116 18.96C335.836 19.68 335.409 20.2333 334.836 20.62C334.276 21.0067 333.609 21.2 332.836 21.2ZM342.158 21.16C341.758 21.16 341.451 21.0533 341.238 20.84C341.025 20.6133 340.918 20.2933 340.918 19.88V12.32C340.918 11.9067 341.025 11.5933 341.238 11.38C341.451 11.1667 341.751 11.06 342.138 11.06C342.525 11.06 342.825 11.1667 343.038 11.38C343.251 11.5933 343.358 11.9067 343.358 12.32V13.78L343.138 13.18C343.405 12.5133 343.818 11.9867 344.378 11.6C344.938 11.2133 345.605 11.02 346.378 11.02C347.165 11.02 347.811 11.2067 348.318 11.58C348.825 11.9533 349.178 12.5267 349.378 13.3H349.098C349.365 12.5933 349.805 12.04 350.418 11.64C351.031 11.2267 351.738 11.02 352.538 11.02C353.285 11.02 353.898 11.1667 354.378 11.46C354.871 11.7533 355.238 12.2 355.478 12.8C355.718 13.3867 355.838 14.1333 355.838 15.04V19.88C355.838 20.2933 355.725 20.6133 355.498 20.84C355.285 21.0533 354.978 21.16 354.578 21.16C354.178 21.16 353.871 21.0533 353.658 20.84C353.445 20.6133 353.338 20.2933 353.338 19.88V15.14C353.338 14.3933 353.211 13.8467 352.958 13.5C352.718 13.1533 352.305 12.98 351.718 12.98C351.065 12.98 350.551 13.2133 350.178 13.68C349.805 14.1333 349.618 14.7667 349.618 15.58V19.88C349.618 20.2933 349.511 20.6133 349.298 20.84C349.085 21.0533 348.778 21.16 348.378 21.16C347.978 21.16 347.665 21.0533 347.438 20.84C347.225 20.6133 347.118 20.2933 347.118 19.88V15.14C347.118 14.3933 346.991 13.8467 346.738 13.5C346.498 13.1533 346.091 12.98 345.518 12.98C344.865 12.98 344.351 13.2133 343.978 13.68C343.605 14.1333 343.418 14.7667 343.418 15.58V19.88C343.418 20.7333 342.998 21.16 342.158 21.16ZM364.057 21.2C363.231 21.2 362.504 20.9933 361.877 20.58C361.264 20.1667 360.857 19.6133 360.657 18.92L360.877 18.42V19.88C360.877 20.2933 360.771 20.6133 360.557 20.84C360.344 21.0533 360.044 21.16 359.657 21.16C359.257 21.16 358.951 21.0533 358.737 20.84C358.524 20.6133 358.417 20.2933 358.417 19.88V8C358.417 7.58667 358.524 7.27333 358.737 7.06C358.951 6.84667 359.257 6.74 359.657 6.74C360.057 6.74 360.364 6.84667 360.577 7.06C360.804 7.27333 360.917 7.58667 360.917 8V13.2H360.677C360.891 12.5467 361.304 12.02 361.917 11.62C362.531 11.22 363.244 11.02 364.057 11.02C364.924 11.02 365.677 11.2267 366.317 11.64C366.957 12.0533 367.457 12.64 367.817 13.4C368.177 14.1467 368.357 15.0467 368.357 16.1C368.357 17.14 368.177 18.0467 367.817 18.82C367.457 19.58 366.951 20.1667 366.297 20.58C365.657 20.9933 364.911 21.2 364.057 21.2ZM363.357 19.3C363.851 19.3 364.284 19.18 364.657 18.94C365.031 18.7 365.317 18.3467 365.517 17.88C365.731 17.4 365.837 16.8067 365.837 16.1C365.837 15.0333 365.611 14.24 365.157 13.72C364.704 13.1867 364.104 12.92 363.357 12.92C362.864 12.92 362.431 13.04 362.057 13.28C361.684 13.5067 361.391 13.86 361.177 14.34C360.977 14.8067 360.877 15.3933 360.877 16.1C360.877 17.1533 361.104 17.9533 361.557 18.5C362.011 19.0333 362.611 19.3 363.357 19.3ZM375.229 21.2C374.123 21.2 373.169 20.9933 372.369 20.58C371.569 20.1667 370.949 19.58 370.509 18.82C370.083 18.06 369.869 17.16 369.869 16.12C369.869 15.1067 370.076 14.22 370.489 13.46C370.916 12.7 371.496 12.1067 372.229 11.68C372.976 11.24 373.823 11.02 374.769 11.02C375.463 11.02 376.083 11.1333 376.629 11.36C377.189 11.5867 377.663 11.9133 378.049 12.34C378.449 12.7667 378.749 13.2867 378.949 13.9C379.163 14.5 379.269 15.18 379.269 15.94C379.269 16.18 379.183 16.3667 379.009 16.5C378.849 16.62 378.616 16.68 378.309 16.68H371.889V15.24H377.509L377.189 15.54C377.189 14.9267 377.096 14.4133 376.909 14C376.736 13.5867 376.476 13.2733 376.129 13.06C375.796 12.8333 375.376 12.72 374.869 12.72C374.309 12.72 373.829 12.8533 373.429 13.12C373.043 13.3733 372.743 13.74 372.529 14.22C372.329 14.6867 372.229 15.2467 372.229 15.9V16.04C372.229 17.1333 372.483 17.9533 372.989 18.5C373.509 19.0333 374.269 19.3 375.269 19.3C375.616 19.3 376.003 19.26 376.429 19.18C376.869 19.0867 377.283 18.9333 377.669 18.72C377.949 18.56 378.196 18.4933 378.409 18.52C378.623 18.5333 378.789 18.6067 378.909 18.74C379.043 18.8733 379.123 19.04 379.149 19.24C379.176 19.4267 379.136 19.62 379.029 19.82C378.936 20.02 378.769 20.1933 378.529 20.34C378.063 20.6333 377.523 20.8533 376.909 21C376.309 21.1333 375.749 21.2 375.229 21.2ZM382.529 21.16C382.116 21.16 381.796 21.0533 381.569 20.84C381.356 20.6133 381.249 20.2933 381.249 19.88V12.32C381.249 11.9067 381.356 11.5933 381.569 11.38C381.783 11.1667 382.083 11.06 382.469 11.06C382.856 11.06 383.156 11.1667 383.369 11.38C383.583 11.5933 383.689 11.9067 383.689 12.32V13.58H383.489C383.676 12.78 384.043 12.1733 384.589 11.76C385.136 11.3467 385.863 11.1 386.769 11.02C387.049 10.9933 387.269 11.0667 387.429 11.24C387.603 11.4 387.703 11.6533 387.729 12C387.756 12.3333 387.676 12.6067 387.489 12.82C387.316 13.02 387.049 13.14 386.689 13.18L386.249 13.22C385.436 13.3 384.823 13.5533 384.409 13.98C383.996 14.3933 383.789 14.98 383.789 15.74V19.88C383.789 20.2933 383.683 20.6133 383.469 20.84C383.256 21.0533 382.943 21.16 382.529 21.16ZM397.851 21.2C396.744 21.2 395.911 20.8867 395.351 20.26C394.791 19.62 394.511 18.6867 394.511 17.46V8C394.511 7.58667 394.618 7.27333 394.831 7.06C395.044 6.84667 395.351 6.74 395.751 6.74C396.151 6.74 396.458 6.84667 396.671 7.06C396.898 7.27333 397.011 7.58667 397.011 8V17.34C397.011 17.9533 397.138 18.4067 397.391 18.7C397.658 18.9933 398.031 19.14 398.511 19.14C398.618 19.14 398.718 19.14 398.811 19.14C398.904 19.1267 398.998 19.1133 399.091 19.1C399.278 19.0733 399.404 19.1267 399.471 19.26C399.538 19.38 399.571 19.6333 399.571 20.02C399.571 20.3533 399.504 20.6133 399.371 20.8C399.238 20.9867 399.018 21.1 398.711 21.14C398.578 21.1533 398.438 21.1667 398.291 21.18C398.144 21.1933 397.998 21.2 397.851 21.2ZM402.138 21.14C401.738 21.14 401.431 21.02 401.218 20.78C401.004 20.54 400.898 20.2067 400.898 19.78V12.44C400.898 12 401.004 11.6667 401.218 11.44C401.431 11.2 401.738 11.08 402.138 11.08C402.538 11.08 402.844 11.2 403.058 11.44C403.284 11.6667 403.398 12 403.398 12.44V19.78C403.398 20.2067 403.291 20.54 403.078 20.78C402.864 21.02 402.551 21.14 402.138 21.14ZM402.138 9.22C401.671 9.22 401.304 9.10667 401.038 8.88C400.784 8.64 400.658 8.31333 400.658 7.9C400.658 7.47333 400.784 7.14667 401.038 6.92C401.304 6.69333 401.671 6.58 402.138 6.58C402.618 6.58 402.984 6.69333 403.238 6.92C403.491 7.14667 403.618 7.47333 403.618 7.9C403.618 8.31333 403.491 8.64 403.238 8.88C402.984 9.10667 402.618 9.22 402.138 9.22ZM407.235 21.16C406.835 21.16 406.529 21.0533 406.315 20.84C406.102 20.6133 405.995 20.2933 405.995 19.88V12.32C405.995 11.9067 406.102 11.5933 406.315 11.38C406.529 11.1667 406.829 11.06 407.215 11.06C407.602 11.06 407.902 11.1667 408.115 11.38C408.329 11.5933 408.435 11.9067 408.435 12.32V13.68L408.215 13.18C408.509 12.4733 408.962 11.94 409.575 11.58C410.202 11.2067 410.909 11.02 411.695 11.02C412.482 11.02 413.129 11.1667 413.635 11.46C414.142 11.7533 414.522 12.2 414.775 12.8C415.029 13.3867 415.155 14.1333 415.155 15.04V19.88C415.155 20.2933 415.049 20.6133 414.835 20.84C414.622 21.0533 414.315 21.16 413.915 21.16C413.515 21.16 413.202 21.0533 412.975 20.84C412.762 20.6133 412.655 20.2933 412.655 19.88V15.16C412.655 14.4 412.509 13.8467 412.215 13.5C411.935 13.1533 411.495 12.98 410.895 12.98C410.162 12.98 409.575 13.2133 409.135 13.68C408.709 14.1333 408.495 14.74 408.495 15.5V19.88C408.495 20.7333 408.075 21.16 407.235 21.16ZM422.515 21.2C421.408 21.2 420.455 20.9933 419.655 20.58C418.855 20.1667 418.235 19.58 417.795 18.82C417.368 18.06 417.155 17.16 417.155 16.12C417.155 15.1067 417.361 14.22 417.775 13.46C418.201 12.7 418.781 12.1067 419.515 11.68C420.261 11.24 421.108 11.02 422.055 11.02C422.748 11.02 423.368 11.1333 423.915 11.36C424.475 11.5867 424.948 11.9133 425.335 12.34C425.735 12.7667 426.035 13.2867 426.235 13.9C426.448 14.5 426.555 15.18 426.555 15.94C426.555 16.18 426.468 16.3667 426.295 16.5C426.135 16.62 425.901 16.68 425.595 16.68H419.175V15.24H424.795L424.475 15.54C424.475 14.9267 424.381 14.4133 424.195 14C424.021 13.5867 423.761 13.2733 423.415 13.06C423.081 12.8333 422.661 12.72 422.155 12.72C421.595 12.72 421.115 12.8533 420.715 13.12C420.328 13.3733 420.028 13.74 419.815 14.22C419.615 14.6867 419.515 15.2467 419.515 15.9V16.04C419.515 17.1333 419.768 17.9533 420.275 18.5C420.795 19.0333 421.555 19.3 422.555 19.3C422.901 19.3 423.288 19.26 423.715 19.18C424.155 19.0867 424.568 18.9333 424.955 18.72C425.235 18.56 425.481 18.4933 425.695 18.52C425.908 18.5333 426.075 18.6067 426.195 18.74C426.328 18.8733 426.408 19.04 426.435 19.24C426.461 19.4267 426.421 19.62 426.315 19.82C426.221 20.02 426.055 20.1933 425.815 20.34C425.348 20.6333 424.808 20.8533 424.195 21C423.595 21.1333 423.035 21.2 422.515 21.2ZM429.734 21.1C429.281 21.1 428.914 20.96 428.634 20.68C428.368 20.4 428.234 20.04 428.234 19.6C428.234 19.1733 428.368 18.8267 428.634 18.56C428.914 18.28 429.281 18.14 429.734 18.14C430.201 18.14 430.561 18.28 430.814 18.56C431.081 18.8267 431.214 19.1733 431.214 19.6C431.214 20.04 431.081 20.4 430.814 20.68C430.561 20.96 430.201 21.1 429.734 21.1Z" fill="#444444"/>
</svg>
