<svg width="564" height="28" viewBox="0 0 564 28" fill="none" xmlns="http://www.w3.org/2000/svg">
<path d="M4.83766 21.16C4.45099 21.16 4.15099 21.0533 3.93766 20.84C3.73766 20.6267 3.63766 20.32 3.63766 19.92V8.02C3.63766 7.60667 3.73766 7.29333 3.93766 7.08C4.15099 6.85333 4.42432 6.74 4.75766 6.74C5.06432 6.74 5.29099 6.8 5.43766 6.92C5.59766 7.02667 5.78432 7.21333 5.99766 7.48L13.6577 17.42H13.1377V7.96C13.1377 7.57333 13.2377 7.27333 13.4377 7.06C13.651 6.84667 13.951 6.74 14.3377 6.74C14.7243 6.74 15.0177 6.84667 15.2177 7.06C15.4177 7.27333 15.5177 7.57333 15.5177 7.96V19.96C15.5177 20.3333 15.4243 20.6267 15.2377 20.84C15.051 21.0533 14.7977 21.16 14.4777 21.16C14.171 21.16 13.9243 21.1 13.7377 20.98C13.5643 20.86 13.371 20.6667 13.1577 20.4L5.51766 10.46H6.01766V19.92C6.01766 20.32 5.91766 20.6267 5.71766 20.84C5.51766 21.0533 5.22432 21.16 4.83766 21.16ZM22.8186 21.2C21.8053 21.2 20.9253 20.9933 20.1786 20.58C19.4319 20.1667 18.8519 19.58 18.4386 18.82C18.0253 18.0467 17.8186 17.14 17.8186 16.1C17.8186 15.3133 17.9319 14.6133 18.1586 14C18.3986 13.3733 18.7386 12.84 19.1786 12.4C19.6186 11.9467 20.1453 11.6067 20.7586 11.38C21.3719 11.14 22.0586 11.02 22.8186 11.02C23.8319 11.02 24.7119 11.2267 25.4586 11.64C26.2053 12.0533 26.7853 12.64 27.1986 13.4C27.6119 14.16 27.8186 15.06 27.8186 16.1C27.8186 16.8867 27.6986 17.5933 27.4586 18.22C27.2319 18.8467 26.8986 19.3867 26.4586 19.84C26.0186 20.28 25.4919 20.62 24.8786 20.86C24.2653 21.0867 23.5786 21.2 22.8186 21.2ZM22.8186 19.3C23.3119 19.3 23.7453 19.18 24.1186 18.94C24.4919 18.7 24.7786 18.3467 24.9786 17.88C25.1919 17.4 25.2986 16.8067 25.2986 16.1C25.2986 15.0333 25.0719 14.24 24.6186 13.72C24.1653 13.1867 23.5653 12.92 22.8186 12.92C22.3253 12.92 21.8919 13.04 21.5186 13.28C21.1453 13.5067 20.8519 13.86 20.6386 14.34C20.4386 14.8067 20.3386 15.3933 20.3386 16.1C20.3386 17.1533 20.5653 17.9533 21.0186 18.5C21.4719 19.0333 22.0719 19.3 22.8186 19.3ZM34.2644 21.2C33.3977 21.2 32.671 21.0533 32.0844 20.76C31.511 20.4667 31.0844 20.04 30.8044 19.48C30.5244 18.9067 30.3844 18.2 30.3844 17.36V13.1H29.3444C29.0244 13.1 28.7777 13.02 28.6044 12.86C28.431 12.6867 28.3444 12.4533 28.3444 12.16C28.3444 11.8533 28.431 11.62 28.6044 11.46C28.7777 11.3 29.0244 11.22 29.3444 11.22H30.3844V9.4C30.3844 8.98667 30.491 8.67333 30.7044 8.46C30.931 8.24667 31.2444 8.14 31.6444 8.14C32.0444 8.14 32.351 8.24667 32.5644 8.46C32.7777 8.67333 32.8844 8.98667 32.8844 9.4V11.22H35.0044C35.3244 11.22 35.571 11.3 35.7444 11.46C35.9177 11.62 36.0044 11.8533 36.0044 12.16C36.0044 12.4533 35.9177 12.6867 35.7444 12.86C35.571 13.02 35.3244 13.1 35.0044 13.1H32.8844V17.22C32.8844 17.86 33.0244 18.34 33.3044 18.66C33.5844 18.98 34.0377 19.14 34.6644 19.14C34.891 19.14 35.091 19.12 35.2644 19.08C35.4377 19.04 35.591 19.0133 35.7244 19C35.8844 18.9867 36.0177 19.04 36.1244 19.16C36.231 19.2667 36.2844 19.4933 36.2844 19.84C36.2844 20.1067 36.2377 20.3467 36.1444 20.56C36.0644 20.76 35.911 20.9 35.6844 20.98C35.511 21.0333 35.2844 21.08 35.0044 21.12C34.7244 21.1733 34.4777 21.2 34.2644 21.2ZM42.1825 21.2C41.0758 21.2 40.1225 20.9933 39.3225 20.58C38.5225 20.1667 37.9025 19.58 37.4625 18.82C37.0358 18.06 36.8225 17.16 36.8225 16.12C36.8225 15.1067 37.0292 14.22 37.4425 13.46C37.8692 12.7 38.4492 12.1067 39.1825 11.68C39.9292 11.24 40.7758 11.02 41.7225 11.02C42.4158 11.02 43.0358 11.1333 43.5825 11.36C44.1425 11.5867 44.6158 11.9133 45.0025 12.34C45.4025 12.7667 45.7025 13.2867 45.9025 13.9C46.1158 14.5 46.2225 15.18 46.2225 15.94C46.2225 16.18 46.1358 16.3667 45.9625 16.5C45.8025 16.62 45.5692 16.68 45.2625 16.68H38.8425V15.24H44.4625L44.1425 15.54C44.1425 14.9267 44.0492 14.4133 43.8625 14C43.6892 13.5867 43.4292 13.2733 43.0825 13.06C42.7492 12.8333 42.3292 12.72 41.8225 12.72C41.2625 12.72 40.7825 12.8533 40.3825 13.12C39.9958 13.3733 39.6958 13.74 39.4825 14.22C39.2825 14.6867 39.1825 15.2467 39.1825 15.9V16.04C39.1825 17.1333 39.4358 17.9533 39.9425 18.5C40.4625 19.0333 41.2225 19.3 42.2225 19.3C42.5692 19.3 42.9558 19.26 43.3825 19.18C43.8225 19.0867 44.2358 18.9333 44.6225 18.72C44.9025 18.56 45.1492 18.4933 45.3625 18.52C45.5758 18.5333 45.7425 18.6067 45.8625 18.74C45.9958 18.8733 46.0758 19.04 46.1025 19.24C46.1292 19.4267 46.0892 19.62 45.9825 19.82C45.8892 20.02 45.7225 20.1933 45.4825 20.34C45.0158 20.6333 44.4758 20.8533 43.8625 21C43.2625 21.1333 42.7025 21.2 42.1825 21.2Z" fill="#444444"/>
<rect x="52" width="51" height="28" rx="5" fill="#E8F0FE"/>
<path d="M63.5513 21.2C62.3913 21.2 61.3979 20.9267 60.5713 20.38C59.7579 19.82 59.1379 19.02 58.7113 17.98C58.2846 16.94 58.0713 15.68 58.0713 14.2C58.0713 13 58.2046 11.94 58.4713 11.02C58.7513 10.0867 59.1513 9.3 59.6712 8.66C60.1913 8.02 60.8246 7.53333 61.5713 7.2C62.3313 6.86667 63.1846 6.7 64.1313 6.7C64.7179 6.7 65.3113 6.79333 65.9113 6.98C66.5246 7.15333 67.0979 7.42 67.6313 7.78C67.8446 7.91333 67.9846 8.08667 68.0512 8.3C68.1179 8.51333 68.1246 8.72667 68.0713 8.94C68.0313 9.14 67.9379 9.32 67.7913 9.48C67.6579 9.62667 67.4846 9.72 67.2713 9.76C67.0579 9.78667 66.8246 9.72667 66.5713 9.58C66.1179 9.31333 65.6913 9.12667 65.2913 9.02C64.8913 8.91333 64.4913 8.86 64.0913 8.86C63.3179 8.86 62.6646 9.04 62.1313 9.4C61.5979 9.76 61.1913 10.3 60.9113 11.02C60.6446 11.74 60.5113 12.64 60.5113 13.72V15.22H60.2713C60.3779 14.54 60.5979 13.96 60.9313 13.48C61.2779 12.9867 61.7179 12.6133 62.2513 12.36C62.7846 12.0933 63.3779 11.96 64.0313 11.96C64.8446 11.96 65.5646 12.1533 66.1913 12.54C66.8179 12.9267 67.3112 13.46 67.6713 14.14C68.0313 14.82 68.2113 15.6 68.2113 16.48C68.2113 17.3867 68.0113 18.2 67.6113 18.92C67.2246 19.6267 66.6779 20.1867 65.9713 20.6C65.2779 21 64.4713 21.2 63.5513 21.2ZM63.4113 19.16C63.8913 19.16 64.3113 19.0533 64.6713 18.84C65.0446 18.6267 65.3313 18.3267 65.5313 17.94C65.7313 17.54 65.8313 17.0867 65.8313 16.58C65.8313 16.06 65.7313 15.6067 65.5313 15.22C65.3313 14.8333 65.0446 14.5333 64.6713 14.32C64.3113 14.0933 63.8913 13.98 63.4113 13.98C62.9313 13.98 62.5113 14.0933 62.1513 14.32C61.7913 14.5333 61.5046 14.8333 61.2913 15.22C61.0913 15.6067 60.9913 16.06 60.9913 16.58C60.9913 17.0867 61.0913 17.54 61.2913 17.94C61.5046 18.3267 61.7913 18.6267 62.1513 18.84C62.5113 19.0533 62.9313 19.16 63.4113 19.16ZM71.5234 21.1C71.0701 21.1 70.7034 20.96 70.4234 20.68C70.1568 20.4 70.0234 20.04 70.0234 19.6C70.0234 19.1733 70.1568 18.8267 70.4234 18.56C70.7034 18.28 71.0701 18.14 71.5234 18.14C71.9901 18.14 72.3501 18.28 72.6034 18.56C72.8701 18.8267 73.0034 19.1733 73.0034 19.6C73.0034 20.04 72.8701 20.4 72.6034 20.68C72.3501 20.96 71.9901 21.1 71.5234 21.1ZM77.4244 21.16C77.1177 21.16 76.8644 21.0867 76.6644 20.94C76.4644 20.7933 76.3444 20.6 76.3044 20.36C76.2644 20.1067 76.3244 19.8267 76.4844 19.52L82.5244 8.16V9.04H76.0444C75.6844 9.04 75.4044 8.94667 75.2044 8.76C75.0177 8.57333 74.9244 8.31333 74.9244 7.98C74.9244 7.63333 75.0177 7.36667 75.2044 7.18C75.4044 6.99333 75.6844 6.9 76.0444 6.9H83.7844C84.1444 6.9 84.4377 6.99333 84.6644 7.18C84.891 7.36667 85.0044 7.63333 85.0044 7.98C85.0044 8.27333 84.9644 8.53333 84.8844 8.76C84.8044 8.97333 84.6977 9.20667 84.5644 9.46L78.8844 20.32C78.7377 20.6133 78.5444 20.8267 78.3044 20.96C78.0777 21.0933 77.7844 21.16 77.4244 21.16ZM88.6366 21C88.2099 21 87.8966 20.9067 87.6966 20.72C87.5099 20.52 87.4166 20.2333 87.4166 19.86C87.4166 19.6333 87.4766 19.4133 87.5966 19.2C87.7166 18.9867 87.8899 18.76 88.1166 18.52L92.1366 14.24C92.7499 13.6 93.1899 13.02 93.4566 12.5C93.7232 11.9667 93.8566 11.4333 93.8566 10.9C93.8566 10.2333 93.6432 9.72667 93.2166 9.38C92.8032 9.03333 92.1966 8.86 91.3966 8.86C90.9432 8.86 90.4899 8.92667 90.0366 9.06C89.5832 9.18 89.1232 9.39333 88.6566 9.7C88.4166 9.86 88.1899 9.92667 87.9766 9.9C87.7766 9.87333 87.5966 9.78667 87.4366 9.64C87.2899 9.49333 87.1899 9.31333 87.1366 9.1C87.0832 8.88667 87.0899 8.67333 87.1566 8.46C87.2366 8.23333 87.3966 8.04 87.6366 7.88C88.2099 7.49333 88.8499 7.2 89.5566 7C90.2766 6.8 90.9966 6.7 91.7166 6.7C92.7299 6.7 93.5832 6.85333 94.2766 7.16C94.9699 7.46667 95.4966 7.91333 95.8566 8.5C96.2166 9.08667 96.3966 9.8 96.3966 10.64C96.3966 11.2 96.3032 11.7467 96.1166 12.28C95.9432 12.8133 95.6699 13.3533 95.2966 13.9C94.9366 14.4467 94.4632 15.0267 93.8766 15.64L90.1166 19.56V18.88H95.9966C96.3566 18.88 96.6299 18.9667 96.8166 19.14C97.0032 19.3133 97.0966 19.5733 97.0966 19.92C97.0966 20.2667 97.0032 20.5333 96.8166 20.72C96.6299 20.9067 96.3566 21 95.9966 21H88.6366Z" fill="#6595DE"/>
<path d="M118.398 19.94L110.398 16.56C109.784 16.3067 109.478 15.8667 109.478 15.24C109.478 14.9333 109.551 14.68 109.698 14.48C109.858 14.2667 110.091 14.0933 110.398 13.96L118.398 10.56C118.624 10.4667 118.824 10.4467 118.997 10.5C119.184 10.5533 119.331 10.6533 119.438 10.8C119.544 10.9467 119.604 11.1133 119.618 11.3C119.631 11.4867 119.591 11.6667 119.498 11.84C119.418 12 119.264 12.1267 119.038 12.22L110.318 15.88V14.64L119.038 18.3C119.264 18.3933 119.418 18.5267 119.498 18.7C119.591 18.86 119.631 19.0333 119.618 19.22C119.604 19.3933 119.544 19.5533 119.438 19.7C119.331 19.8467 119.184 19.9467 118.997 20C118.824 20.0533 118.624 20.0333 118.398 19.94ZM132.379 21.2C131.219 21.2 130.226 20.9267 129.399 20.38C128.586 19.82 127.966 19.02 127.539 17.98C127.113 16.94 126.899 15.68 126.899 14.2C126.899 13 127.033 11.94 127.299 11.02C127.579 10.0867 127.979 9.3 128.499 8.66C129.019 8.02 129.653 7.53333 130.399 7.2C131.159 6.86667 132.013 6.7 132.959 6.7C133.546 6.7 134.139 6.79333 134.739 6.98C135.353 7.15333 135.926 7.42 136.459 7.78C136.673 7.91333 136.813 8.08667 136.879 8.3C136.946 8.51333 136.953 8.72667 136.899 8.94C136.859 9.14 136.766 9.32 136.619 9.48C136.486 9.62667 136.313 9.72 136.099 9.76C135.886 9.78667 135.653 9.72667 135.399 9.58C134.946 9.31333 134.519 9.12667 134.119 9.02C133.719 8.91333 133.319 8.86 132.919 8.86C132.146 8.86 131.493 9.04 130.959 9.4C130.426 9.76 130.019 10.3 129.739 11.02C129.473 11.74 129.339 12.64 129.339 13.72V15.22H129.099C129.206 14.54 129.426 13.96 129.759 13.48C130.106 12.9867 130.546 12.6133 131.079 12.36C131.613 12.0933 132.206 11.96 132.859 11.96C133.673 11.96 134.393 12.1533 135.019 12.54C135.646 12.9267 136.139 13.46 136.499 14.14C136.859 14.82 137.039 15.6 137.039 16.48C137.039 17.3867 136.839 18.2 136.439 18.92C136.053 19.6267 135.506 20.1867 134.799 20.6C134.106 21 133.299 21.2 132.379 21.2ZM132.239 19.16C132.719 19.16 133.139 19.0533 133.499 18.84C133.873 18.6267 134.159 18.3267 134.359 17.94C134.559 17.54 134.659 17.0867 134.659 16.58C134.659 16.06 134.559 15.6067 134.359 15.22C134.159 14.8333 133.873 14.5333 133.499 14.32C133.139 14.0933 132.719 13.98 132.239 13.98C131.759 13.98 131.339 14.0933 130.979 14.32C130.619 14.5333 130.333 14.8333 130.119 15.22C129.919 15.6067 129.819 16.06 129.819 16.58C129.819 17.0867 129.919 17.54 130.119 17.94C130.333 18.3267 130.619 18.6267 130.979 18.84C131.339 19.0533 131.759 19.16 132.239 19.16ZM140.352 21.1C139.898 21.1 139.532 20.96 139.252 20.68C138.985 20.4 138.852 20.04 138.852 19.6C138.852 19.1733 138.985 18.8267 139.252 18.56C139.532 18.28 139.898 18.14 140.352 18.14C140.818 18.14 141.178 18.28 141.432 18.56C141.698 18.8267 141.832 19.1733 141.832 19.6C141.832 20.04 141.698 20.4 141.432 20.68C141.178 20.96 140.818 21.1 140.352 21.1ZM146.253 21.16C145.946 21.16 145.693 21.0867 145.493 20.94C145.293 20.7933 145.173 20.6 145.133 20.36C145.093 20.1067 145.153 19.8267 145.312 19.52L151.353 8.16V9.04H144.873C144.513 9.04 144.233 8.94667 144.033 8.76C143.846 8.57333 143.753 8.31333 143.753 7.98C143.753 7.63333 143.846 7.36667 144.033 7.18C144.233 6.99333 144.513 6.9 144.873 6.9H152.613C152.973 6.9 153.266 6.99333 153.493 7.18C153.719 7.36667 153.832 7.63333 153.832 7.98C153.832 8.27333 153.793 8.53333 153.713 8.76C153.633 8.97333 153.526 9.20667 153.393 9.46L147.713 20.32C147.566 20.6133 147.373 20.8267 147.133 20.96C146.906 21.0933 146.613 21.16 146.253 21.16ZM160.925 21.2C160.218 21.2 159.498 21.1067 158.765 20.92C158.031 20.7333 157.358 20.4467 156.745 20.06C156.491 19.9 156.318 19.7133 156.225 19.5C156.145 19.2733 156.125 19.0533 156.165 18.84C156.218 18.6133 156.318 18.4267 156.465 18.28C156.625 18.12 156.811 18.0267 157.025 18C157.251 17.9733 157.498 18.0333 157.765 18.18C158.258 18.46 158.758 18.6733 159.265 18.82C159.771 18.9667 160.311 19.04 160.885 19.04C161.445 19.04 161.925 18.94 162.325 18.74C162.725 18.54 163.031 18.26 163.245 17.9C163.458 17.54 163.565 17.12 163.565 16.64C163.565 15.8933 163.338 15.2933 162.885 14.84C162.431 14.3733 161.811 14.14 161.025 14.14C160.598 14.14 160.185 14.2133 159.785 14.36C159.385 14.4933 158.991 14.7333 158.605 15.08C158.485 15.1867 158.331 15.2933 158.145 15.4C157.958 15.4933 157.758 15.54 157.545 15.54C157.211 15.54 156.958 15.4533 156.785 15.28C156.611 15.1067 156.525 14.8667 156.525 14.56V8.02C156.525 7.66 156.618 7.38667 156.805 7.2C157.005 7 157.285 6.9 157.645 6.9H164.225C164.585 6.9 164.858 6.99333 165.045 7.18C165.245 7.35333 165.345 7.61333 165.345 7.96C165.345 8.29333 165.245 8.55333 165.045 8.74C164.858 8.92667 164.585 9.02 164.225 9.02H159.025V13.5H158.365C158.711 13.0333 159.171 12.6733 159.745 12.42C160.318 12.1667 160.945 12.04 161.625 12.04C162.518 12.04 163.291 12.2333 163.945 12.62C164.611 12.9933 165.125 13.52 165.485 14.2C165.858 14.8667 166.045 15.6467 166.045 16.54C166.045 17.46 165.838 18.2733 165.425 18.98C165.011 19.6733 164.418 20.22 163.645 20.62C162.885 21.0067 161.978 21.2 160.925 21.2ZM169.297 21.1C168.844 21.1 168.477 20.96 168.197 20.68C167.93 20.4 167.797 20.04 167.797 19.6C167.797 19.1733 167.93 18.8267 168.197 18.56C168.477 18.28 168.844 18.14 169.297 18.14C169.764 18.14 170.124 18.28 170.377 18.56C170.644 18.8267 170.777 19.1733 170.777 19.6C170.777 20.04 170.644 20.4 170.377 20.68C170.124 20.96 169.764 21.1 169.297 21.1ZM180.028 21C179.614 21 179.294 20.8867 179.068 20.66C178.841 20.42 178.728 20.0933 178.728 19.68V8.14C178.728 7.71333 178.834 7.39333 179.048 7.18C179.274 6.95333 179.594 6.84 180.008 6.84C180.421 6.84 180.734 6.95333 180.948 7.18C181.174 7.39333 181.288 7.71333 181.288 8.14V18.82H187.088C187.448 18.82 187.721 18.9133 187.908 19.1C188.108 19.2867 188.207 19.5533 188.207 19.9C188.207 20.2467 188.108 20.52 187.908 20.72C187.721 20.9067 187.448 21 187.088 21H180.028ZM194.44 21.2C193.334 21.2 192.38 20.9933 191.58 20.58C190.78 20.1667 190.16 19.58 189.72 18.82C189.294 18.06 189.08 17.16 189.08 16.12C189.08 15.1067 189.287 14.22 189.7 13.46C190.127 12.7 190.707 12.1067 191.44 11.68C192.187 11.24 193.034 11.02 193.98 11.02C194.674 11.02 195.294 11.1333 195.84 11.36C196.4 11.5867 196.874 11.9133 197.26 12.34C197.66 12.7667 197.96 13.2867 198.16 13.9C198.374 14.5 198.48 15.18 198.48 15.94C198.48 16.18 198.394 16.3667 198.22 16.5C198.06 16.62 197.827 16.68 197.52 16.68H191.1V15.24H196.72L196.4 15.54C196.4 14.9267 196.307 14.4133 196.12 14C195.947 13.5867 195.687 13.2733 195.34 13.06C195.007 12.8333 194.587 12.72 194.08 12.72C193.52 12.72 193.04 12.8533 192.64 13.12C192.254 13.3733 191.954 13.74 191.74 14.22C191.54 14.6867 191.44 15.2467 191.44 15.9V16.04C191.44 17.1333 191.694 17.9533 192.2 18.5C192.72 19.0333 193.48 19.3 194.48 19.3C194.827 19.3 195.214 19.26 195.64 19.18C196.08 19.0867 196.494 18.9333 196.88 18.72C197.16 18.56 197.407 18.4933 197.62 18.52C197.834 18.5333 198 18.6067 198.12 18.74C198.254 18.8733 198.334 19.04 198.36 19.24C198.387 19.4267 198.347 19.62 198.24 19.82C198.147 20.02 197.98 20.1933 197.74 20.34C197.274 20.6333 196.734 20.8533 196.12 21C195.52 21.1333 194.96 21.2 194.44 21.2ZM204.901 21.2C204.034 21.2 203.308 21.0533 202.721 20.76C202.148 20.4667 201.721 20.04 201.441 19.48C201.161 18.9067 201.021 18.2 201.021 17.36V13.1H199.981C199.661 13.1 199.414 13.02 199.241 12.86C199.068 12.6867 198.981 12.4533 198.981 12.16C198.981 11.8533 199.068 11.62 199.241 11.46C199.414 11.3 199.661 11.22 199.981 11.22H201.021V9.4C201.021 8.98667 201.128 8.67333 201.341 8.46C201.568 8.24667 201.881 8.14 202.281 8.14C202.681 8.14 202.988 8.24667 203.201 8.46C203.414 8.67333 203.521 8.98667 203.521 9.4V11.22H205.641C205.961 11.22 206.208 11.3 206.381 11.46C206.554 11.62 206.641 11.8533 206.641 12.16C206.641 12.4533 206.554 12.6867 206.381 12.86C206.208 13.02 205.961 13.1 205.641 13.1H203.521V17.22C203.521 17.86 203.661 18.34 203.941 18.66C204.221 18.98 204.674 19.14 205.301 19.14C205.528 19.14 205.728 19.12 205.901 19.08C206.074 19.04 206.228 19.0133 206.361 19C206.521 18.9867 206.654 19.04 206.761 19.16C206.868 19.2667 206.921 19.4933 206.921 19.84C206.921 20.1067 206.874 20.3467 206.781 20.56C206.701 20.76 206.548 20.9 206.321 20.98C206.148 21.0333 205.921 21.08 205.641 21.12C205.361 21.1733 205.114 21.2 204.901 21.2ZM209.617 11.8C209.444 12.0133 209.257 12.1333 209.057 12.16C208.87 12.1867 208.704 12.1533 208.557 12.06C208.41 11.9533 208.33 11.8067 208.317 11.62C208.304 11.42 208.39 11.2067 208.577 10.98C208.844 10.6467 209.024 10.3133 209.117 9.98C209.21 9.64667 209.257 9.35333 209.257 9.1L209.357 9.76C208.89 9.76 208.51 9.62667 208.217 9.36C207.937 9.09333 207.797 8.73333 207.797 8.28C207.797 7.84 207.93 7.48667 208.197 7.22C208.464 6.94 208.824 6.8 209.277 6.8C209.744 6.8 210.11 6.96 210.377 7.28C210.644 7.58667 210.777 8.03333 210.777 8.62C210.777 8.94 210.744 9.27333 210.677 9.62C210.624 9.95333 210.51 10.3067 210.337 10.68C210.177 11.04 209.937 11.4133 209.617 11.8ZM216.071 21.2C215.498 21.2 214.891 21.14 214.251 21.02C213.611 20.9 213.038 20.6933 212.531 20.4C212.318 20.2667 212.165 20.1133 212.071 19.94C211.991 19.7533 211.958 19.5733 211.971 19.4C211.998 19.2133 212.065 19.0533 212.171 18.92C212.291 18.7867 212.438 18.7 212.611 18.66C212.798 18.62 212.998 18.6533 213.211 18.76C213.745 19.0133 214.245 19.1933 214.711 19.3C215.178 19.3933 215.638 19.44 216.091 19.44C216.731 19.44 217.205 19.3333 217.511 19.12C217.831 18.8933 217.991 18.6 217.991 18.24C217.991 17.9333 217.885 17.7 217.671 17.54C217.471 17.3667 217.165 17.24 216.751 17.16L214.751 16.78C213.925 16.62 213.291 16.32 212.851 15.88C212.425 15.4267 212.211 14.8467 212.211 14.14C212.211 13.5 212.385 12.9467 212.731 12.48C213.091 12.0133 213.585 11.6533 214.211 11.4C214.838 11.1467 215.558 11.02 216.371 11.02C216.958 11.02 217.505 11.0867 218.011 11.22C218.531 11.34 219.031 11.5333 219.511 11.8C219.711 11.9067 219.845 12.0467 219.911 12.22C219.991 12.3933 220.011 12.5733 219.971 12.76C219.931 12.9333 219.851 13.0933 219.731 13.24C219.611 13.3733 219.458 13.46 219.271 13.5C219.098 13.5267 218.898 13.4867 218.671 13.38C218.258 13.1667 217.858 13.0133 217.471 12.92C217.098 12.8267 216.738 12.78 216.391 12.78C215.738 12.78 215.251 12.8933 214.931 13.12C214.625 13.3467 214.471 13.6467 214.471 14.02C214.471 14.3 214.565 14.5333 214.751 14.72C214.938 14.9067 215.225 15.0333 215.611 15.1L217.611 15.48C218.478 15.64 219.131 15.9333 219.571 16.36C220.025 16.7867 220.251 17.36 220.251 18.08C220.251 19.0533 219.871 19.82 219.111 20.38C218.351 20.9267 217.338 21.2 216.071 21.2ZM228.967 21.16C228.553 21.16 228.233 21.0533 228.007 20.84C227.793 20.6133 227.687 20.2933 227.687 19.88V12.32C227.687 11.9067 227.793 11.5933 228.007 11.38C228.22 11.1667 228.52 11.06 228.907 11.06C229.293 11.06 229.593 11.1667 229.807 11.38C230.02 11.5933 230.127 11.9067 230.127 12.32V13.58H229.927C230.113 12.78 230.48 12.1733 231.027 11.76C231.573 11.3467 232.3 11.1 233.207 11.02C233.487 10.9933 233.707 11.0667 233.867 11.24C234.04 11.4 234.14 11.6533 234.167 12C234.193 12.3333 234.113 12.6067 233.927 12.82C233.753 13.02 233.487 13.14 233.127 13.18L232.687 13.22C231.873 13.3 231.26 13.5533 230.847 13.98C230.433 14.3933 230.227 14.98 230.227 15.74V19.88C230.227 20.2933 230.12 20.6133 229.907 20.84C229.693 21.0533 229.38 21.16 228.967 21.16ZM239.823 21.2C238.809 21.2 237.929 20.9933 237.183 20.58C236.436 20.1667 235.856 19.58 235.443 18.82C235.029 18.0467 234.823 17.14 234.823 16.1C234.823 15.3133 234.936 14.6133 235.163 14C235.403 13.3733 235.743 12.84 236.183 12.4C236.623 11.9467 237.149 11.6067 237.763 11.38C238.376 11.14 239.063 11.02 239.823 11.02C240.836 11.02 241.716 11.2267 242.463 11.64C243.209 12.0533 243.789 12.64 244.203 13.4C244.616 14.16 244.823 15.06 244.823 16.1C244.823 16.8867 244.703 17.5933 244.463 18.22C244.236 18.8467 243.903 19.3867 243.463 19.84C243.023 20.28 242.496 20.62 241.883 20.86C241.269 21.0867 240.583 21.2 239.823 21.2ZM239.823 19.3C240.316 19.3 240.749 19.18 241.123 18.94C241.496 18.7 241.783 18.3467 241.983 17.88C242.196 17.4 242.303 16.8067 242.303 16.1C242.303 15.0333 242.076 14.24 241.623 13.72C241.169 13.1867 240.569 12.92 239.823 12.92C239.329 12.92 238.896 13.04 238.523 13.28C238.149 13.5067 237.856 13.86 237.643 14.34C237.443 14.8067 237.343 15.3933 237.343 16.1C237.343 17.1533 237.569 17.9533 238.023 18.5C238.476 19.0333 239.076 19.3 239.823 19.3ZM250.426 21.2C249.613 21.2 248.939 21.0533 248.406 20.76C247.873 20.4533 247.473 20 247.206 19.4C246.953 18.8 246.826 18.0533 246.826 17.16V12.32C246.826 11.8933 246.933 11.58 247.146 11.38C247.359 11.1667 247.666 11.06 248.066 11.06C248.466 11.06 248.773 11.1667 248.986 11.38C249.213 11.58 249.326 11.8933 249.326 12.32V17.2C249.326 17.8933 249.466 18.4067 249.746 18.74C250.026 19.0733 250.473 19.24 251.086 19.24C251.753 19.24 252.299 19.0133 252.726 18.56C253.153 18.0933 253.366 17.48 253.366 16.72V12.32C253.366 11.8933 253.473 11.58 253.686 11.38C253.899 11.1667 254.206 11.06 254.606 11.06C255.006 11.06 255.313 11.1667 255.526 11.38C255.753 11.58 255.866 11.8933 255.866 12.32V19.88C255.866 20.7333 255.459 21.16 254.646 21.16C254.259 21.16 253.959 21.0533 253.746 20.84C253.533 20.6133 253.426 20.2933 253.426 19.88V18.36L253.706 18.96C253.426 19.68 252.999 20.2333 252.426 20.62C251.866 21.0067 251.199 21.2 250.426 21.2ZM259.708 21.16C259.308 21.16 259.001 21.0533 258.788 20.84C258.575 20.6133 258.468 20.2933 258.468 19.88V12.32C258.468 11.9067 258.575 11.5933 258.788 11.38C259.001 11.1667 259.301 11.06 259.688 11.06C260.075 11.06 260.375 11.1667 260.588 11.38C260.801 11.5933 260.908 11.9067 260.908 12.32V13.68L260.688 13.18C260.981 12.4733 261.435 11.94 262.048 11.58C262.675 11.2067 263.381 11.02 264.168 11.02C264.955 11.02 265.601 11.1667 266.108 11.46C266.615 11.7533 266.995 12.2 267.248 12.8C267.501 13.3867 267.628 14.1333 267.628 15.04V19.88C267.628 20.2933 267.521 20.6133 267.308 20.84C267.095 21.0533 266.788 21.16 266.388 21.16C265.988 21.16 265.675 21.0533 265.448 20.84C265.235 20.6133 265.128 20.2933 265.128 19.88V15.16C265.128 14.4 264.981 13.8467 264.688 13.5C264.408 13.1533 263.968 12.98 263.368 12.98C262.635 12.98 262.048 13.2133 261.608 13.68C261.181 14.1333 260.968 14.74 260.968 15.5V19.88C260.968 20.7333 260.548 21.16 259.708 21.16ZM273.927 21.2C273.074 21.2 272.321 20.9933 271.667 20.58C271.027 20.1667 270.527 19.58 270.167 18.82C269.807 18.0467 269.627 17.14 269.627 16.1C269.627 15.0467 269.807 14.1467 270.167 13.4C270.527 12.64 271.027 12.0533 271.667 11.64C272.321 11.2267 273.074 11.02 273.927 11.02C274.741 11.02 275.447 11.22 276.047 11.62C276.661 12.02 277.074 12.5467 277.287 13.2H277.067V8C277.067 7.58667 277.174 7.27333 277.387 7.06C277.601 6.84667 277.907 6.74 278.307 6.74C278.707 6.74 279.014 6.84667 279.227 7.06C279.454 7.27333 279.567 7.58667 279.567 8V19.88C279.567 20.2933 279.461 20.6133 279.247 20.84C279.034 21.0533 278.727 21.16 278.327 21.16C277.927 21.16 277.621 21.0533 277.407 20.84C277.194 20.6133 277.087 20.2933 277.087 19.88V18.32L277.307 18.92C277.107 19.6133 276.701 20.1667 276.087 20.58C275.474 20.9933 274.754 21.2 273.927 21.2ZM274.627 19.3C275.121 19.3 275.554 19.18 275.927 18.94C276.301 18.7 276.587 18.3467 276.787 17.88C277.001 17.4 277.107 16.8067 277.107 16.1C277.107 15.0333 276.881 14.24 276.427 13.72C275.974 13.1867 275.374 12.92 274.627 12.92C274.134 12.92 273.701 13.04 273.327 13.28C272.954 13.5067 272.661 13.86 272.447 14.34C272.247 14.8067 272.147 15.3933 272.147 16.1C272.147 17.1533 272.374 17.9533 272.827 18.5C273.281 19.0333 273.881 19.3 274.627 19.3ZM288.829 21.14C288.429 21.14 288.122 21.02 287.909 20.78C287.696 20.54 287.589 20.2067 287.589 19.78V12.44C287.589 12 287.696 11.6667 287.909 11.44C288.122 11.2 288.429 11.08 288.829 11.08C289.229 11.08 289.536 11.2 289.749 11.44C289.976 11.6667 290.089 12 290.089 12.44V19.78C290.089 20.2067 289.982 20.54 289.769 20.78C289.556 21.02 289.242 21.14 288.829 21.14ZM288.829 9.22C288.362 9.22 287.996 9.10667 287.729 8.88C287.476 8.64 287.349 8.31333 287.349 7.9C287.349 7.47333 287.476 7.14667 287.729 6.92C287.996 6.69333 288.362 6.58 288.829 6.58C289.309 6.58 289.676 6.69333 289.929 6.92C290.182 7.14667 290.309 7.47333 290.309 7.9C290.309 8.31333 290.182 8.64 289.929 8.88C289.676 9.10667 289.309 9.22 288.829 9.22ZM297.167 21.2C296.3 21.2 295.573 21.0533 294.987 20.76C294.413 20.4667 293.987 20.04 293.707 19.48C293.427 18.9067 293.287 18.2 293.287 17.36V13.1H292.247C291.927 13.1 291.68 13.02 291.507 12.86C291.333 12.6867 291.247 12.4533 291.247 12.16C291.247 11.8533 291.333 11.62 291.507 11.46C291.68 11.3 291.927 11.22 292.247 11.22H293.287V9.4C293.287 8.98667 293.393 8.67333 293.607 8.46C293.833 8.24667 294.147 8.14 294.547 8.14C294.947 8.14 295.253 8.24667 295.467 8.46C295.68 8.67333 295.787 8.98667 295.787 9.4V11.22H297.907C298.227 11.22 298.473 11.3 298.647 11.46C298.82 11.62 298.907 11.8533 298.907 12.16C298.907 12.4533 298.82 12.6867 298.647 12.86C298.473 13.02 298.227 13.1 297.907 13.1H295.787V17.22C295.787 17.86 295.927 18.34 296.207 18.66C296.487 18.98 296.94 19.14 297.567 19.14C297.793 19.14 297.993 19.12 298.167 19.08C298.34 19.04 298.493 19.0133 298.627 19C298.787 18.9867 298.92 19.04 299.027 19.16C299.133 19.2667 299.187 19.4933 299.187 19.84C299.187 20.1067 299.14 20.3467 299.047 20.56C298.967 20.76 298.813 20.9 298.587 20.98C298.413 21.0333 298.187 21.08 297.907 21.12C297.627 21.1733 297.38 21.2 297.167 21.2ZM309.552 21.2C308.699 21.2 307.946 20.9933 307.292 20.58C306.652 20.1667 306.152 19.58 305.792 18.82C305.432 18.0467 305.252 17.14 305.252 16.1C305.252 15.0467 305.432 14.1467 305.792 13.4C306.152 12.64 306.652 12.0533 307.292 11.64C307.946 11.2267 308.699 11.02 309.552 11.02C310.366 11.02 311.072 11.22 311.672 11.62C312.286 12.02 312.699 12.5467 312.912 13.2H312.692V8C312.692 7.58667 312.799 7.27333 313.012 7.06C313.226 6.84667 313.532 6.74 313.932 6.74C314.332 6.74 314.639 6.84667 314.852 7.06C315.079 7.27333 315.192 7.58667 315.192 8V19.88C315.192 20.2933 315.086 20.6133 314.872 20.84C314.659 21.0533 314.352 21.16 313.952 21.16C313.552 21.16 313.246 21.0533 313.032 20.84C312.819 20.6133 312.712 20.2933 312.712 19.88V18.32L312.932 18.92C312.732 19.6133 312.326 20.1667 311.712 20.58C311.099 20.9933 310.379 21.2 309.552 21.2ZM310.252 19.3C310.746 19.3 311.179 19.18 311.552 18.94C311.926 18.7 312.212 18.3467 312.412 17.88C312.626 17.4 312.732 16.8067 312.732 16.1C312.732 15.0333 312.506 14.24 312.052 13.72C311.599 13.1867 310.999 12.92 310.252 12.92C309.759 12.92 309.326 13.04 308.952 13.28C308.579 13.5067 308.286 13.86 308.072 14.34C307.872 14.8067 307.772 15.3933 307.772 16.1C307.772 17.1533 307.999 17.9533 308.452 18.5C308.906 19.0333 309.506 19.3 310.252 19.3ZM322.244 21.2C321.231 21.2 320.351 20.9933 319.604 20.58C318.858 20.1667 318.278 19.58 317.864 18.82C317.451 18.0467 317.244 17.14 317.244 16.1C317.244 15.3133 317.358 14.6133 317.584 14C317.824 13.3733 318.164 12.84 318.604 12.4C319.044 11.9467 319.571 11.6067 320.184 11.38C320.798 11.14 321.484 11.02 322.244 11.02C323.258 11.02 324.138 11.2267 324.884 11.64C325.631 12.0533 326.211 12.64 326.624 13.4C327.038 14.16 327.244 15.06 327.244 16.1C327.244 16.8867 327.124 17.5933 326.884 18.22C326.658 18.8467 326.324 19.3867 325.884 19.84C325.444 20.28 324.918 20.62 324.304 20.86C323.691 21.0867 323.004 21.2 322.244 21.2ZM322.244 19.3C322.738 19.3 323.171 19.18 323.544 18.94C323.918 18.7 324.204 18.3467 324.404 17.88C324.618 17.4 324.724 16.8067 324.724 16.1C324.724 15.0333 324.498 14.24 324.044 13.72C323.591 13.1867 322.991 12.92 322.244 12.92C321.751 12.92 321.318 13.04 320.944 13.28C320.571 13.5067 320.278 13.86 320.064 14.34C319.864 14.8067 319.764 15.3933 319.764 16.1C319.764 17.1533 319.991 17.9533 320.444 18.5C320.898 19.0333 321.498 19.3 322.244 19.3ZM332.893 21.16C332.559 21.16 332.273 21.08 332.033 20.92C331.793 20.7467 331.599 20.48 331.453 20.12L328.553 12.72C328.433 12.4 328.393 12.12 328.433 11.88C328.486 11.6267 328.613 11.4267 328.813 11.28C329.013 11.1333 329.279 11.06 329.613 11.06C329.906 11.06 330.146 11.1333 330.333 11.28C330.519 11.4133 330.679 11.6733 330.813 12.06L333.233 18.72H332.773L335.273 11.9C335.379 11.6067 335.519 11.3933 335.693 11.26C335.879 11.1267 336.119 11.06 336.413 11.06C336.706 11.06 336.946 11.1333 337.133 11.28C337.319 11.4133 337.459 11.62 337.553 11.9L340.013 18.72H339.593L342.033 12C342.166 11.64 342.333 11.3933 342.533 11.26C342.746 11.1267 342.979 11.06 343.233 11.06C343.553 11.06 343.799 11.14 343.973 11.3C344.146 11.46 344.246 11.6667 344.273 11.92C344.299 12.16 344.253 12.4267 344.133 12.72L341.253 20.12C341.119 20.4667 340.926 20.7267 340.673 20.9C340.433 21.0733 340.146 21.16 339.813 21.16C339.479 21.16 339.186 21.0733 338.933 20.9C338.693 20.7267 338.506 20.4667 338.372 20.12L335.753 13.18H336.893L334.333 20.1C334.199 20.46 334.013 20.7267 333.773 20.9C333.533 21.0733 333.239 21.16 332.893 21.16ZM347.403 21.16C347.003 21.16 346.697 21.0533 346.483 20.84C346.27 20.6133 346.163 20.2933 346.163 19.88V12.32C346.163 11.9067 346.27 11.5933 346.483 11.38C346.697 11.1667 346.997 11.06 347.383 11.06C347.77 11.06 348.07 11.1667 348.283 11.38C348.497 11.5933 348.603 11.9067 348.603 12.32V13.68L348.383 13.18C348.677 12.4733 349.13 11.94 349.743 11.58C350.37 11.2067 351.077 11.02 351.863 11.02C352.65 11.02 353.297 11.1667 353.803 11.46C354.31 11.7533 354.69 12.2 354.943 12.8C355.197 13.3867 355.323 14.1333 355.323 15.04V19.88C355.323 20.2933 355.217 20.6133 355.003 20.84C354.79 21.0533 354.483 21.16 354.083 21.16C353.683 21.16 353.37 21.0533 353.143 20.84C352.93 20.6133 352.823 20.2933 352.823 19.88V15.16C352.823 14.4 352.677 13.8467 352.383 13.5C352.103 13.1533 351.663 12.98 351.063 12.98C350.33 12.98 349.743 13.2133 349.303 13.68C348.877 14.1333 348.663 14.74 348.663 15.5V19.88C348.663 20.7333 348.243 21.16 347.403 21.16ZM367.772 21.2C366.906 21.2 366.179 21.0533 365.592 20.76C365.019 20.4667 364.592 20.04 364.312 19.48C364.032 18.9067 363.892 18.2 363.892 17.36V13.1H362.852C362.532 13.1 362.286 13.02 362.112 12.86C361.939 12.6867 361.852 12.4533 361.852 12.16C361.852 11.8533 361.939 11.62 362.112 11.46C362.286 11.3 362.532 11.22 362.852 11.22H363.892V9.4C363.892 8.98667 363.999 8.67333 364.212 8.46C364.439 8.24667 364.752 8.14 365.152 8.14C365.552 8.14 365.859 8.24667 366.072 8.46C366.286 8.67333 366.392 8.98667 366.392 9.4V11.22H368.512C368.832 11.22 369.079 11.3 369.252 11.46C369.426 11.62 369.512 11.8533 369.512 12.16C369.512 12.4533 369.426 12.6867 369.252 12.86C369.079 13.02 368.832 13.1 368.512 13.1H366.392V17.22C366.392 17.86 366.532 18.34 366.812 18.66C367.092 18.98 367.546 19.14 368.172 19.14C368.399 19.14 368.599 19.12 368.772 19.08C368.946 19.04 369.099 19.0133 369.232 19C369.392 18.9867 369.526 19.04 369.632 19.16C369.739 19.2667 369.792 19.4933 369.792 19.84C369.792 20.1067 369.746 20.3467 369.652 20.56C369.572 20.76 369.419 20.9 369.192 20.98C369.019 21.0333 368.792 21.08 368.512 21.12C368.232 21.1733 367.986 21.2 367.772 21.2ZM375.33 21.2C374.317 21.2 373.437 20.9933 372.69 20.58C371.944 20.1667 371.364 19.58 370.95 18.82C370.537 18.0467 370.33 17.14 370.33 16.1C370.33 15.3133 370.444 14.6133 370.67 14C370.91 13.3733 371.25 12.84 371.69 12.4C372.13 11.9467 372.657 11.6067 373.27 11.38C373.884 11.14 374.57 11.02 375.33 11.02C376.344 11.02 377.224 11.2267 377.97 11.64C378.717 12.0533 379.297 12.64 379.71 13.4C380.124 14.16 380.33 15.06 380.33 16.1C380.33 16.8867 380.21 17.5933 379.97 18.22C379.744 18.8467 379.41 19.3867 378.97 19.84C378.53 20.28 378.004 20.62 377.39 20.86C376.777 21.0867 376.09 21.2 375.33 21.2ZM375.33 19.3C375.824 19.3 376.257 19.18 376.63 18.94C377.004 18.7 377.29 18.3467 377.49 17.88C377.704 17.4 377.81 16.8067 377.81 16.1C377.81 15.0333 377.584 14.24 377.13 13.72C376.677 13.1867 376.077 12.92 375.33 12.92C374.837 12.92 374.404 13.04 374.03 13.28C373.657 13.5067 373.364 13.86 373.15 14.34C372.95 14.8067 372.85 15.3933 372.85 16.1C372.85 17.1533 373.077 17.9533 373.53 18.5C373.984 19.0333 374.584 19.3 375.33 19.3ZM392.303 21.2C391.437 21.2 390.71 21.0533 390.123 20.76C389.55 20.4667 389.123 20.04 388.843 19.48C388.563 18.9067 388.423 18.2 388.423 17.36V13.1H387.383C387.063 13.1 386.817 13.02 386.643 12.86C386.47 12.6867 386.383 12.4533 386.383 12.16C386.383 11.8533 386.47 11.62 386.643 11.46C386.817 11.3 387.063 11.22 387.383 11.22H388.423V9.4C388.423 8.98667 388.53 8.67333 388.743 8.46C388.97 8.24667 389.283 8.14 389.683 8.14C390.083 8.14 390.39 8.24667 390.603 8.46C390.817 8.67333 390.923 8.98667 390.923 9.4V11.22H393.043C393.363 11.22 393.61 11.3 393.783 11.46C393.957 11.62 394.043 11.8533 394.043 12.16C394.043 12.4533 393.957 12.6867 393.783 12.86C393.61 13.02 393.363 13.1 393.043 13.1H390.923V17.22C390.923 17.86 391.063 18.34 391.343 18.66C391.623 18.98 392.077 19.14 392.703 19.14C392.93 19.14 393.13 19.12 393.303 19.08C393.477 19.04 393.63 19.0133 393.763 19C393.923 18.9867 394.057 19.04 394.163 19.16C394.27 19.2667 394.323 19.4933 394.323 19.84C394.323 20.1067 394.277 20.3467 394.183 20.56C394.103 20.76 393.95 20.9 393.723 20.98C393.55 21.0333 393.323 21.08 393.043 21.12C392.763 21.1733 392.517 21.2 392.303 21.2ZM396.993 21.16C396.593 21.16 396.286 21.0533 396.073 20.84C395.86 20.6133 395.753 20.2933 395.753 19.88V8C395.753 7.58667 395.86 7.27333 396.073 7.06C396.286 6.84667 396.593 6.74 396.993 6.74C397.393 6.74 397.7 6.84667 397.913 7.06C398.14 7.27333 398.253 7.58667 398.253 8V13.18H397.973C398.266 12.4733 398.72 11.94 399.333 11.58C399.96 11.2067 400.666 11.02 401.453 11.02C402.24 11.02 402.886 11.1667 403.393 11.46C403.9 11.7533 404.28 12.2 404.533 12.8C404.786 13.3867 404.913 14.1333 404.913 15.04V19.88C404.913 20.2933 404.806 20.6133 404.593 20.84C404.38 21.0533 404.073 21.16 403.673 21.16C403.273 21.16 402.96 21.0533 402.733 20.84C402.52 20.6133 402.413 20.2933 402.413 19.88V15.16C402.413 14.4 402.266 13.8467 401.973 13.5C401.693 13.1533 401.253 12.98 400.653 12.98C399.92 12.98 399.333 13.2133 398.893 13.68C398.466 14.1333 398.253 14.74 398.253 15.5V19.88C398.253 20.7333 397.833 21.16 396.993 21.16ZM412.272 21.2C411.166 21.2 410.212 20.9933 409.412 20.58C408.612 20.1667 407.992 19.58 407.552 18.82C407.126 18.06 406.912 17.16 406.912 16.12C406.912 15.1067 407.119 14.22 407.532 13.46C407.959 12.7 408.539 12.1067 409.272 11.68C410.019 11.24 410.866 11.02 411.812 11.02C412.506 11.02 413.126 11.1333 413.672 11.36C414.232 11.5867 414.706 11.9133 415.092 12.34C415.492 12.7667 415.792 13.2867 415.992 13.9C416.206 14.5 416.312 15.18 416.312 15.94C416.312 16.18 416.226 16.3667 416.052 16.5C415.892 16.62 415.659 16.68 415.352 16.68H408.932V15.24H414.552L414.232 15.54C414.232 14.9267 414.139 14.4133 413.952 14C413.779 13.5867 413.519 13.2733 413.172 13.06C412.839 12.8333 412.419 12.72 411.912 12.72C411.352 12.72 410.872 12.8533 410.472 13.12C410.086 13.3733 409.786 13.74 409.572 14.22C409.372 14.6867 409.272 15.2467 409.272 15.9V16.04C409.272 17.1333 409.526 17.9533 410.032 18.5C410.552 19.0333 411.312 19.3 412.312 19.3C412.659 19.3 413.046 19.26 413.472 19.18C413.912 19.0867 414.326 18.9333 414.712 18.72C414.992 18.56 415.239 18.4933 415.452 18.52C415.666 18.5333 415.832 18.6067 415.952 18.74C416.086 18.8733 416.166 19.04 416.192 19.24C416.219 19.4267 416.179 19.62 416.072 19.82C415.979 20.02 415.812 20.1933 415.572 20.34C415.106 20.6333 414.566 20.8533 413.952 21C413.352 21.1333 412.792 21.2 412.272 21.2ZM424.962 21.16C424.562 21.16 424.255 21.0533 424.042 20.84C423.829 20.6133 423.722 20.2933 423.722 19.88V12.32C423.722 11.9067 423.829 11.5933 424.042 11.38C424.255 11.1667 424.555 11.06 424.942 11.06C425.329 11.06 425.629 11.1667 425.842 11.38C426.055 11.5933 426.162 11.9067 426.162 12.32V13.68L425.942 13.18C426.235 12.4733 426.689 11.94 427.302 11.58C427.929 11.2067 428.635 11.02 429.422 11.02C430.209 11.02 430.855 11.1667 431.362 11.46C431.869 11.7533 432.249 12.2 432.502 12.8C432.755 13.3867 432.882 14.1333 432.882 15.04V19.88C432.882 20.2933 432.775 20.6133 432.562 20.84C432.349 21.0533 432.042 21.16 431.642 21.16C431.242 21.16 430.929 21.0533 430.702 20.84C430.489 20.6133 430.382 20.2933 430.382 19.88V15.16C430.382 14.4 430.235 13.8467 429.942 13.5C429.662 13.1533 429.222 12.98 428.622 12.98C427.889 12.98 427.302 13.2133 426.862 13.68C426.435 14.1333 426.222 14.74 426.222 15.5V19.88C426.222 20.7333 425.802 21.16 424.962 21.16ZM440.241 21.2C439.134 21.2 438.181 20.9933 437.381 20.58C436.581 20.1667 435.961 19.58 435.521 18.82C435.094 18.06 434.881 17.16 434.881 16.12C434.881 15.1067 435.088 14.22 435.501 13.46C435.928 12.7 436.508 12.1067 437.241 11.68C437.988 11.24 438.834 11.02 439.781 11.02C440.474 11.02 441.094 11.1333 441.641 11.36C442.201 11.5867 442.674 11.9133 443.061 12.34C443.461 12.7667 443.761 13.2867 443.961 13.9C444.174 14.5 444.281 15.18 444.281 15.94C444.281 16.18 444.194 16.3667 444.021 16.5C443.861 16.62 443.628 16.68 443.321 16.68H436.901V15.24H442.521L442.201 15.54C442.201 14.9267 442.108 14.4133 441.921 14C441.748 13.5867 441.488 13.2733 441.141 13.06C440.808 12.8333 440.388 12.72 439.881 12.72C439.321 12.72 438.841 12.8533 438.441 13.12C438.054 13.3733 437.754 13.74 437.541 14.22C437.341 14.6867 437.241 15.2467 437.241 15.9V16.04C437.241 17.1333 437.494 17.9533 438.001 18.5C438.521 19.0333 439.281 19.3 440.281 19.3C440.628 19.3 441.014 19.26 441.441 19.18C441.881 19.0867 442.294 18.9333 442.681 18.72C442.961 18.56 443.208 18.4933 443.421 18.52C443.634 18.5333 443.801 18.6067 443.921 18.74C444.054 18.8733 444.134 19.04 444.161 19.24C444.188 19.4267 444.148 19.62 444.041 19.82C443.948 20.02 443.781 20.1933 443.541 20.34C443.074 20.6333 442.534 20.8533 441.921 21C441.321 21.1333 440.761 21.2 440.241 21.2ZM449.481 21.2C448.774 21.2 448.141 21.0667 447.581 20.8C447.034 20.52 446.601 20.1467 446.281 19.68C445.974 19.2133 445.821 18.6867 445.821 18.1C445.821 17.38 446.008 16.8133 446.381 16.4C446.754 15.9733 447.361 15.6667 448.201 15.48C449.041 15.2933 450.168 15.2 451.581 15.2H452.581V16.64H451.601C450.774 16.64 450.114 16.68 449.621 16.76C449.128 16.84 448.774 16.98 448.561 17.18C448.361 17.3667 448.261 17.6333 448.261 17.98C448.261 18.42 448.414 18.78 448.721 19.06C449.028 19.34 449.454 19.48 450.001 19.48C450.441 19.48 450.828 19.38 451.161 19.18C451.508 18.9667 451.781 18.68 451.981 18.32C452.181 17.96 452.281 17.5467 452.281 17.08V14.78C452.281 14.1133 452.134 13.6333 451.841 13.34C451.548 13.0467 451.054 12.9 450.361 12.9C449.974 12.9 449.554 12.9467 449.101 13.04C448.661 13.1333 448.194 13.2933 447.701 13.52C447.448 13.64 447.221 13.6733 447.021 13.62C446.834 13.5667 446.688 13.46 446.581 13.3C446.474 13.1267 446.421 12.94 446.421 12.74C446.421 12.54 446.474 12.3467 446.581 12.16C446.688 11.96 446.868 11.8133 447.121 11.72C447.734 11.4667 448.321 11.2867 448.881 11.18C449.454 11.0733 449.974 11.02 450.441 11.02C451.401 11.02 452.188 11.1667 452.801 11.46C453.428 11.7533 453.894 12.2 454.201 12.8C454.508 13.3867 454.661 14.1467 454.661 15.08V19.88C454.661 20.2933 454.561 20.6133 454.361 20.84C454.161 21.0533 453.874 21.16 453.501 21.16C453.128 21.16 452.834 21.0533 452.621 20.84C452.421 20.6133 452.321 20.2933 452.321 19.88V18.92H452.481C452.388 19.3867 452.201 19.7933 451.921 20.14C451.654 20.4733 451.314 20.7333 450.901 20.92C450.488 21.1067 450.014 21.2 449.481 21.2ZM458.478 21.16C458.065 21.16 457.745 21.0533 457.518 20.84C457.305 20.6133 457.198 20.2933 457.198 19.88V12.32C457.198 11.9067 457.305 11.5933 457.518 11.38C457.732 11.1667 458.032 11.06 458.418 11.06C458.805 11.06 459.105 11.1667 459.318 11.38C459.532 11.5933 459.638 11.9067 459.638 12.32V13.58H459.438C459.625 12.78 459.992 12.1733 460.538 11.76C461.085 11.3467 461.812 11.1 462.718 11.02C462.998 10.9933 463.218 11.0667 463.378 11.24C463.552 11.4 463.652 11.6533 463.678 12C463.705 12.3333 463.625 12.6067 463.438 12.82C463.265 13.02 462.998 13.14 462.638 13.18L462.198 13.22C461.385 13.3 460.772 13.5533 460.358 13.98C459.945 14.3933 459.738 14.98 459.738 15.74V19.88C459.738 20.2933 459.632 20.6133 459.418 20.84C459.205 21.0533 458.892 21.16 458.478 21.16ZM469.694 21.2C468.588 21.2 467.634 20.9933 466.834 20.58C466.034 20.1667 465.414 19.58 464.974 18.82C464.548 18.06 464.334 17.16 464.334 16.12C464.334 15.1067 464.541 14.22 464.954 13.46C465.381 12.7 465.961 12.1067 466.694 11.68C467.441 11.24 468.288 11.02 469.234 11.02C469.928 11.02 470.548 11.1333 471.094 11.36C471.654 11.5867 472.128 11.9133 472.514 12.34C472.914 12.7667 473.214 13.2867 473.414 13.9C473.628 14.5 473.734 15.18 473.734 15.94C473.734 16.18 473.648 16.3667 473.474 16.5C473.314 16.62 473.081 16.68 472.774 16.68H466.354V15.24H471.974L471.654 15.54C471.654 14.9267 471.561 14.4133 471.374 14C471.201 13.5867 470.941 13.2733 470.594 13.06C470.261 12.8333 469.841 12.72 469.334 12.72C468.774 12.72 468.294 12.8533 467.894 13.12C467.508 13.3733 467.208 13.74 466.994 14.22C466.794 14.6867 466.694 15.2467 466.694 15.9V16.04C466.694 17.1333 466.948 17.9533 467.454 18.5C467.974 19.0333 468.734 19.3 469.734 19.3C470.081 19.3 470.468 19.26 470.894 19.18C471.334 19.0867 471.748 18.9333 472.134 18.72C472.414 18.56 472.661 18.4933 472.874 18.52C473.088 18.5333 473.254 18.6067 473.374 18.74C473.508 18.8733 473.588 19.04 473.614 19.24C473.641 19.4267 473.601 19.62 473.494 19.82C473.401 20.02 473.234 20.1933 472.994 20.34C472.528 20.6333 471.988 20.8533 471.374 21C470.774 21.1333 470.214 21.2 469.694 21.2ZM479.294 21.2C478.721 21.2 478.114 21.14 477.474 21.02C476.834 20.9 476.261 20.6933 475.754 20.4C475.541 20.2667 475.387 20.1133 475.294 19.94C475.214 19.7533 475.181 19.5733 475.194 19.4C475.221 19.2133 475.287 19.0533 475.394 18.92C475.514 18.7867 475.661 18.7 475.834 18.66C476.021 18.62 476.221 18.6533 476.434 18.76C476.967 19.0133 477.467 19.1933 477.934 19.3C478.401 19.3933 478.861 19.44 479.314 19.44C479.954 19.44 480.427 19.3333 480.734 19.12C481.054 18.8933 481.214 18.6 481.214 18.24C481.214 17.9333 481.107 17.7 480.894 17.54C480.694 17.3667 480.387 17.24 479.974 17.16L477.974 16.78C477.147 16.62 476.514 16.32 476.074 15.88C475.647 15.4267 475.434 14.8467 475.434 14.14C475.434 13.5 475.607 12.9467 475.954 12.48C476.314 12.0133 476.807 11.6533 477.434 11.4C478.061 11.1467 478.781 11.02 479.594 11.02C480.181 11.02 480.727 11.0867 481.234 11.22C481.754 11.34 482.254 11.5333 482.734 11.8C482.934 11.9067 483.067 12.0467 483.134 12.22C483.214 12.3933 483.234 12.5733 483.194 12.76C483.154 12.9333 483.074 13.0933 482.954 13.24C482.834 13.3733 482.681 13.46 482.494 13.5C482.321 13.5267 482.121 13.4867 481.894 13.38C481.481 13.1667 481.081 13.0133 480.694 12.92C480.321 12.8267 479.961 12.78 479.614 12.78C478.961 12.78 478.474 12.8933 478.154 13.12C477.847 13.3467 477.694 13.6467 477.694 14.02C477.694 14.3 477.787 14.5333 477.974 14.72C478.161 14.9067 478.447 15.0333 478.834 15.1L480.834 15.48C481.701 15.64 482.354 15.9333 482.794 16.36C483.247 16.7867 483.474 17.36 483.474 18.08C483.474 19.0533 483.094 19.82 482.334 20.38C481.574 20.9267 480.561 21.2 479.294 21.2ZM489.862 21.2C488.995 21.2 488.269 21.0533 487.682 20.76C487.109 20.4667 486.682 20.04 486.402 19.48C486.122 18.9067 485.982 18.2 485.982 17.36V13.1H484.942C484.622 13.1 484.375 13.02 484.202 12.86C484.029 12.6867 483.942 12.4533 483.942 12.16C483.942 11.8533 484.029 11.62 484.202 11.46C484.375 11.3 484.622 11.22 484.942 11.22H485.982V9.4C485.982 8.98667 486.089 8.67333 486.302 8.46C486.529 8.24667 486.842 8.14 487.242 8.14C487.642 8.14 487.949 8.24667 488.162 8.46C488.375 8.67333 488.482 8.98667 488.482 9.4V11.22H490.602C490.922 11.22 491.169 11.3 491.342 11.46C491.515 11.62 491.602 11.8533 491.602 12.16C491.602 12.4533 491.515 12.6867 491.342 12.86C491.169 13.02 490.922 13.1 490.602 13.1H488.482V17.22C488.482 17.86 488.622 18.34 488.902 18.66C489.182 18.98 489.635 19.14 490.262 19.14C490.489 19.14 490.689 19.12 490.862 19.08C491.035 19.04 491.189 19.0133 491.322 19C491.482 18.9867 491.615 19.04 491.722 19.16C491.829 19.2667 491.882 19.4933 491.882 19.84C491.882 20.1067 491.835 20.3467 491.742 20.56C491.662 20.76 491.509 20.9 491.282 20.98C491.109 21.0333 490.882 21.08 490.602 21.12C490.322 21.1733 490.075 21.2 489.862 21.2ZM502.968 21.2C502.101 21.2 501.374 21.0533 500.788 20.76C500.214 20.4667 499.788 20.04 499.508 19.48C499.228 18.9067 499.088 18.2 499.088 17.36V13.1H498.048C497.728 13.1 497.481 13.02 497.308 12.86C497.134 12.6867 497.047 12.4533 497.047 12.16C497.047 11.8533 497.134 11.62 497.308 11.46C497.481 11.3 497.728 11.22 498.048 11.22H499.088V9.4C499.088 8.98667 499.194 8.67333 499.408 8.46C499.634 8.24667 499.948 8.14 500.348 8.14C500.748 8.14 501.054 8.24667 501.268 8.46C501.481 8.67333 501.588 8.98667 501.588 9.4V11.22H503.708C504.028 11.22 504.274 11.3 504.448 11.46C504.621 11.62 504.708 11.8533 504.708 12.16C504.708 12.4533 504.621 12.6867 504.448 12.86C504.274 13.02 504.028 13.1 503.708 13.1H501.588V17.22C501.588 17.86 501.728 18.34 502.008 18.66C502.288 18.98 502.741 19.14 503.368 19.14C503.594 19.14 503.794 19.12 503.968 19.08C504.141 19.04 504.294 19.0133 504.428 19C504.588 18.9867 504.721 19.04 504.828 19.16C504.934 19.2667 504.988 19.4933 504.988 19.84C504.988 20.1067 504.941 20.3467 504.848 20.56C504.768 20.76 504.614 20.9 504.388 20.98C504.214 21.0333 503.988 21.08 503.708 21.12C503.428 21.1733 503.181 21.2 502.968 21.2ZM510.886 21.2C509.779 21.2 508.826 20.9933 508.026 20.58C507.226 20.1667 506.606 19.58 506.166 18.82C505.739 18.06 505.526 17.16 505.526 16.12C505.526 15.1067 505.732 14.22 506.146 13.46C506.572 12.7 507.152 12.1067 507.886 11.68C508.632 11.24 509.479 11.02 510.426 11.02C511.119 11.02 511.739 11.1333 512.286 11.36C512.846 11.5867 513.319 11.9133 513.706 12.34C514.106 12.7667 514.406 13.2867 514.606 13.9C514.819 14.5 514.926 15.18 514.926 15.94C514.926 16.18 514.839 16.3667 514.666 16.5C514.506 16.62 514.272 16.68 513.966 16.68H507.546V15.24H513.166L512.846 15.54C512.846 14.9267 512.752 14.4133 512.566 14C512.392 13.5867 512.132 13.2733 511.786 13.06C511.452 12.8333 511.032 12.72 510.526 12.72C509.966 12.72 509.486 12.8533 509.086 13.12C508.699 13.3733 508.399 13.74 508.186 14.22C507.986 14.6867 507.886 15.2467 507.886 15.9V16.04C507.886 17.1333 508.139 17.9533 508.646 18.5C509.166 19.0333 509.926 19.3 510.926 19.3C511.272 19.3 511.659 19.26 512.086 19.18C512.526 19.0867 512.939 18.9333 513.326 18.72C513.606 18.56 513.852 18.4933 514.066 18.52C514.279 18.5333 514.446 18.6067 514.566 18.74C514.699 18.8733 514.779 19.04 514.806 19.24C514.832 19.4267 514.792 19.62 514.686 19.82C514.592 20.02 514.426 20.1933 514.186 20.34C513.719 20.6333 513.179 20.8533 512.566 21C511.966 21.1333 511.406 21.2 510.886 21.2ZM518.145 21.16C517.745 21.16 517.439 21.0533 517.225 20.84C517.012 20.6133 516.905 20.2933 516.905 19.88V12.32C516.905 11.9067 517.012 11.5933 517.225 11.38C517.439 11.1667 517.739 11.06 518.125 11.06C518.512 11.06 518.812 11.1667 519.025 11.38C519.239 11.5933 519.345 11.9067 519.345 12.32V13.68L519.125 13.18C519.419 12.4733 519.872 11.94 520.485 11.58C521.112 11.2067 521.819 11.02 522.605 11.02C523.392 11.02 524.039 11.1667 524.545 11.46C525.052 11.7533 525.432 12.2 525.685 12.8C525.939 13.3867 526.065 14.1333 526.065 15.04V19.88C526.065 20.2933 525.959 20.6133 525.745 20.84C525.532 21.0533 525.225 21.16 524.825 21.16C524.425 21.16 524.112 21.0533 523.885 20.84C523.672 20.6133 523.565 20.2933 523.565 19.88V15.16C523.565 14.4 523.419 13.8467 523.125 13.5C522.845 13.1533 522.405 12.98 521.805 12.98C521.072 12.98 520.485 13.2133 520.045 13.68C519.619 14.1333 519.405 14.74 519.405 15.5V19.88C519.405 20.7333 518.985 21.16 518.145 21.16ZM533.085 21.2C532.218 21.2 531.491 21.0533 530.905 20.76C530.331 20.4667 529.905 20.04 529.625 19.48C529.345 18.9067 529.205 18.2 529.205 17.36V13.1H528.165C527.845 13.1 527.598 13.02 527.425 12.86C527.251 12.6867 527.165 12.4533 527.165 12.16C527.165 11.8533 527.251 11.62 527.425 11.46C527.598 11.3 527.845 11.22 528.165 11.22H529.205V9.4C529.205 8.98667 529.311 8.67333 529.525 8.46C529.751 8.24667 530.065 8.14 530.465 8.14C530.865 8.14 531.171 8.24667 531.385 8.46C531.598 8.67333 531.705 8.98667 531.705 9.4V11.22H533.825C534.145 11.22 534.391 11.3 534.565 11.46C534.738 11.62 534.825 11.8533 534.825 12.16C534.825 12.4533 534.738 12.6867 534.565 12.86C534.391 13.02 534.145 13.1 533.825 13.1H531.705V17.22C531.705 17.86 531.845 18.34 532.125 18.66C532.405 18.98 532.858 19.14 533.485 19.14C533.711 19.14 533.911 19.12 534.085 19.08C534.258 19.04 534.411 19.0133 534.545 19C534.705 18.9867 534.838 19.04 534.945 19.16C535.051 19.2667 535.105 19.4933 535.105 19.84C535.105 20.1067 535.058 20.3467 534.965 20.56C534.885 20.76 534.731 20.9 534.505 20.98C534.331 21.0333 534.105 21.08 533.825 21.12C533.545 21.1733 533.298 21.2 533.085 21.2ZM537.774 21.16C537.374 21.16 537.068 21.0533 536.854 20.84C536.641 20.6133 536.534 20.2933 536.534 19.88V8C536.534 7.58667 536.641 7.27333 536.854 7.06C537.068 6.84667 537.374 6.74 537.774 6.74C538.174 6.74 538.481 6.84667 538.694 7.06C538.921 7.27333 539.034 7.58667 539.034 8V13.18H538.754C539.048 12.4733 539.501 11.94 540.114 11.58C540.741 11.2067 541.448 11.02 542.234 11.02C543.021 11.02 543.668 11.1667 544.174 11.46C544.681 11.7533 545.061 12.2 545.314 12.8C545.568 13.3867 545.694 14.1333 545.694 15.04V19.88C545.694 20.2933 545.588 20.6133 545.374 20.84C545.161 21.0533 544.854 21.16 544.454 21.16C544.054 21.16 543.741 21.0533 543.514 20.84C543.301 20.6133 543.194 20.2933 543.194 19.88V15.16C543.194 14.4 543.048 13.8467 542.754 13.5C542.474 13.1533 542.034 12.98 541.434 12.98C540.701 12.98 540.114 13.2133 539.674 13.68C539.248 14.1333 539.034 14.74 539.034 15.5V19.88C539.034 20.7333 538.614 21.16 537.774 21.16ZM551.814 21.2C551.24 21.2 550.634 21.14 549.994 21.02C549.354 20.9 548.78 20.6933 548.274 20.4C548.06 20.2667 547.907 20.1133 547.814 19.94C547.734 19.7533 547.7 19.5733 547.714 19.4C547.74 19.2133 547.807 19.0533 547.914 18.92C548.034 18.7867 548.18 18.7 548.354 18.66C548.54 18.62 548.74 18.6533 548.954 18.76C549.487 19.0133 549.987 19.1933 550.454 19.3C550.92 19.3933 551.38 19.44 551.834 19.44C552.474 19.44 552.947 19.3333 553.254 19.12C553.574 18.8933 553.734 18.6 553.734 18.24C553.734 17.9333 553.627 17.7 553.414 17.54C553.214 17.3667 552.907 17.24 552.494 17.16L550.494 16.78C549.667 16.62 549.034 16.32 548.594 15.88C548.167 15.4267 547.954 14.8467 547.954 14.14C547.954 13.5 548.127 12.9467 548.474 12.48C548.834 12.0133 549.327 11.6533 549.954 11.4C550.58 11.1467 551.3 11.02 552.114 11.02C552.7 11.02 553.247 11.0867 553.754 11.22C554.274 11.34 554.774 11.5333 555.254 11.8C555.454 11.9067 555.587 12.0467 555.654 12.22C555.734 12.3933 555.754 12.5733 555.714 12.76C555.674 12.9333 555.594 13.0933 555.474 13.24C555.354 13.3733 555.2 13.46 555.014 13.5C554.84 13.5267 554.64 13.4867 554.414 13.38C554 13.1667 553.6 13.0133 553.214 12.92C552.84 12.8267 552.48 12.78 552.134 12.78C551.48 12.78 550.994 12.8933 550.674 13.12C550.367 13.3467 550.214 13.6467 550.214 14.02C550.214 14.3 550.307 14.5333 550.494 14.72C550.68 14.9067 550.967 15.0333 551.354 15.1L553.354 15.48C554.22 15.64 554.874 15.9333 555.314 16.36C555.767 16.7867 555.994 17.36 555.994 18.08C555.994 19.0533 555.614 19.82 554.854 20.38C554.094 20.9267 553.08 21.2 551.814 21.2ZM559.102 21.1C558.648 21.1 558.282 20.96 558.002 20.68C557.735 20.4 557.602 20.04 557.602 19.6C557.602 19.1733 557.735 18.8267 558.002 18.56C558.282 18.28 558.648 18.14 559.102 18.14C559.568 18.14 559.928 18.28 560.182 18.56C560.448 18.8267 560.582 19.1733 560.582 19.6C560.582 20.04 560.448 20.4 560.182 20.68C559.928 20.96 559.568 21.1 559.102 21.1Z" fill="#444444"/>
</svg>
