<svg width="612" height="28" viewBox="0 0 612 28" fill="none" xmlns="http://www.w3.org/2000/svg">
<path d="M3.83766 21.16C3.45099 21.16 3.15099 21.0533 2.93766 20.84C2.73766 20.6267 2.63766 20.32 2.63766 19.92V8.02C2.63766 7.60667 2.73766 7.29333 2.93766 7.08C3.15099 6.85333 3.42432 6.74 3.75766 6.74C4.06432 6.74 4.29099 6.8 4.43766 6.92C4.59766 7.02667 4.78432 7.21333 4.99766 7.48L12.6577 17.42H12.1377V7.96C12.1377 7.57333 12.2377 7.27333 12.4377 7.06C12.651 6.84667 12.951 6.74 13.3377 6.74C13.7243 6.74 14.0177 6.84667 14.2177 7.06C14.4177 7.27333 14.5177 7.57333 14.5177 7.96V19.96C14.5177 20.3333 14.4243 20.6267 14.2377 20.84C14.051 21.0533 13.7977 21.16 13.4777 21.16C13.171 21.16 12.9243 21.1 12.7377 20.98C12.5643 20.86 12.371 20.6667 12.1577 20.4L4.51766 10.46H5.01766V19.92C5.01766 20.32 4.91766 20.6267 4.71766 20.84C4.51766 21.0533 4.22432 21.16 3.83766 21.16ZM21.8186 21.2C20.8053 21.2 19.9253 20.9933 19.1786 20.58C18.4319 20.1667 17.8519 19.58 17.4386 18.82C17.0253 18.0467 16.8186 17.14 16.8186 16.1C16.8186 15.3133 16.9319 14.6133 17.1586 14C17.3986 13.3733 17.7386 12.84 18.1786 12.4C18.6186 11.9467 19.1453 11.6067 19.7586 11.38C20.3719 11.14 21.0586 11.02 21.8186 11.02C22.8319 11.02 23.7119 11.2267 24.4586 11.64C25.2053 12.0533 25.7853 12.64 26.1986 13.4C26.6119 14.16 26.8186 15.06 26.8186 16.1C26.8186 16.8867 26.6986 17.5933 26.4586 18.22C26.2319 18.8467 25.8986 19.3867 25.4586 19.84C25.0186 20.28 24.4919 20.62 23.8786 20.86C23.2653 21.0867 22.5786 21.2 21.8186 21.2ZM21.8186 19.3C22.3119 19.3 22.7453 19.18 23.1186 18.94C23.4919 18.7 23.7786 18.3467 23.9786 17.88C24.1919 17.4 24.2986 16.8067 24.2986 16.1C24.2986 15.0333 24.0719 14.24 23.6186 13.72C23.1653 13.1867 22.5653 12.92 21.8186 12.92C21.3253 12.92 20.8919 13.04 20.5186 13.28C20.1453 13.5067 19.8519 13.86 19.6386 14.34C19.4386 14.8067 19.3386 15.3933 19.3386 16.1C19.3386 17.1533 19.5653 17.9533 20.0186 18.5C20.4719 19.0333 21.0719 19.3 21.8186 19.3ZM33.2644 21.2C32.3977 21.2 31.671 21.0533 31.0844 20.76C30.511 20.4667 30.0844 20.04 29.8044 19.48C29.5244 18.9067 29.3844 18.2 29.3844 17.36V13.1H28.3444C28.0244 13.1 27.7777 13.02 27.6044 12.86C27.431 12.6867 27.3444 12.4533 27.3444 12.16C27.3444 11.8533 27.431 11.62 27.6044 11.46C27.7777 11.3 28.0244 11.22 28.3444 11.22H29.3844V9.4C29.3844 8.98667 29.491 8.67333 29.7044 8.46C29.931 8.24667 30.2444 8.14 30.6444 8.14C31.0444 8.14 31.351 8.24667 31.5644 8.46C31.7777 8.67333 31.8844 8.98667 31.8844 9.4V11.22H34.0044C34.3244 11.22 34.571 11.3 34.7444 11.46C34.9177 11.62 35.0044 11.8533 35.0044 12.16C35.0044 12.4533 34.9177 12.6867 34.7444 12.86C34.571 13.02 34.3244 13.1 34.0044 13.1H31.8844V17.22C31.8844 17.86 32.0244 18.34 32.3044 18.66C32.5844 18.98 33.0377 19.14 33.6644 19.14C33.891 19.14 34.091 19.12 34.2644 19.08C34.4377 19.04 34.591 19.0133 34.7244 19C34.8844 18.9867 35.0177 19.04 35.1244 19.16C35.231 19.2667 35.2844 19.4933 35.2844 19.84C35.2844 20.1067 35.2377 20.3467 35.1444 20.56C35.0644 20.76 34.911 20.9 34.6844 20.98C34.511 21.0333 34.2844 21.08 34.0044 21.12C33.7244 21.1733 33.4777 21.2 33.2644 21.2ZM41.1825 21.2C40.0758 21.2 39.1225 20.9933 38.3225 20.58C37.5225 20.1667 36.9025 19.58 36.4625 18.82C36.0358 18.06 35.8225 17.16 35.8225 16.12C35.8225 15.1067 36.0292 14.22 36.4425 13.46C36.8692 12.7 37.4492 12.1067 38.1825 11.68C38.9292 11.24 39.7758 11.02 40.7225 11.02C41.4158 11.02 42.0358 11.1333 42.5825 11.36C43.1425 11.5867 43.6158 11.9133 44.0025 12.34C44.4025 12.7667 44.7025 13.2867 44.9025 13.9C45.1158 14.5 45.2225 15.18 45.2225 15.94C45.2225 16.18 45.1358 16.3667 44.9625 16.5C44.8025 16.62 44.5692 16.68 44.2625 16.68H37.8425V15.24H43.4625L43.1425 15.54C43.1425 14.9267 43.0492 14.4133 42.8625 14C42.6892 13.5867 42.4292 13.2733 42.0825 13.06C41.7492 12.8333 41.3292 12.72 40.8225 12.72C40.2625 12.72 39.7825 12.8533 39.3825 13.12C38.9958 13.3733 38.6958 13.74 38.4825 14.22C38.2825 14.6867 38.1825 15.2467 38.1825 15.9V16.04C38.1825 17.1333 38.4358 17.9533 38.9425 18.5C39.4625 19.0333 40.2225 19.3 41.2225 19.3C41.5692 19.3 41.9558 19.26 42.3825 19.18C42.8225 19.0867 43.2358 18.9333 43.6225 18.72C43.9025 18.56 44.1492 18.4933 44.3625 18.52C44.5758 18.5333 44.7425 18.6067 44.8625 18.74C44.9958 18.8733 45.0758 19.04 45.1025 19.24C45.1292 19.4267 45.0892 19.62 44.9825 19.82C44.8892 20.02 44.7225 20.1933 44.4825 20.34C44.0158 20.6333 43.4758 20.8533 42.8625 21C42.2625 21.1333 41.7025 21.2 41.1825 21.2Z" fill="#444444"/>
<rect x="51" width="39" height="28" rx="5" fill="#E8F0FE"/>
<path d="M61.7473 21.2C61.0273 21.2 60.2807 21.1067 59.5073 20.92C58.734 20.7333 58.0607 20.4533 57.4873 20.08C57.2207 19.9067 57.0407 19.7067 56.9473 19.48C56.854 19.2533 56.8273 19.04 56.8673 18.84C56.9207 18.6267 57.0207 18.4467 57.1673 18.3C57.3273 18.1533 57.5207 18.0667 57.7473 18.04C57.9873 18.0133 58.2473 18.0733 58.5273 18.22C59.074 18.5133 59.6007 18.7267 60.1073 18.86C60.614 18.98 61.134 19.04 61.6673 19.04C62.254 19.04 62.7473 18.96 63.1473 18.8C63.5473 18.64 63.8473 18.4 64.0473 18.08C64.2607 17.76 64.3673 17.3733 64.3673 16.92C64.3673 16.2533 64.1407 15.76 63.6873 15.44C63.2473 15.1067 62.6007 14.94 61.7473 14.94H60.4673C60.094 14.94 59.8073 14.8467 59.6073 14.66C59.4207 14.4733 59.3273 14.2133 59.3273 13.88C59.3273 13.5467 59.4207 13.2867 59.6073 13.1C59.8073 12.9133 60.094 12.82 60.4673 12.82H61.5073C62.014 12.82 62.4473 12.74 62.8073 12.58C63.1673 12.4067 63.4473 12.1667 63.6473 11.86C63.8473 11.5533 63.9473 11.18 63.9473 10.74C63.9473 10.1267 63.7407 9.66 63.3273 9.34C62.9273 9.02 62.3407 8.86 61.5673 8.86C61.074 8.86 60.6073 8.92 60.1673 9.04C59.7407 9.14667 59.2673 9.35333 58.7473 9.66C58.5073 9.80667 58.274 9.86667 58.0473 9.84C57.834 9.81333 57.654 9.72667 57.5073 9.58C57.3607 9.43333 57.2607 9.26 57.2073 9.06C57.154 8.84667 57.1673 8.63333 57.2473 8.42C57.3273 8.19333 57.494 8 57.7473 7.84C58.3207 7.46667 58.954 7.18667 59.6473 7C60.3407 6.8 61.054 6.7 61.7873 6.7C62.7607 6.7 63.594 6.85333 64.2873 7.16C64.9807 7.45333 65.5073 7.88 65.8673 8.44C66.2407 8.98667 66.4273 9.65333 66.4273 10.44C66.4273 11 66.3207 11.5133 66.1073 11.98C65.894 12.4333 65.594 12.82 65.2073 13.14C64.8207 13.46 64.354 13.6867 63.8073 13.82V13.58C64.7673 13.74 65.514 14.14 66.0473 14.78C66.5807 15.4067 66.8473 16.1933 66.8473 17.14C66.8473 17.9667 66.6407 18.6867 66.2273 19.3C65.814 19.9133 65.2273 20.3867 64.4673 20.72C63.7073 21.04 62.8007 21.2 61.7473 21.2ZM70.5195 21.1C70.0662 21.1 69.6995 20.96 69.4195 20.68C69.1529 20.4 69.0195 20.04 69.0195 19.6C69.0195 19.1733 69.1529 18.8267 69.4195 18.56C69.6995 18.28 70.0662 18.14 70.5195 18.14C70.9862 18.14 71.3462 18.28 71.5995 18.56C71.8662 18.8267 71.9995 19.1733 71.9995 19.6C71.9995 20.04 71.8662 20.4 71.5995 20.68C71.3462 20.96 70.9862 21.1 70.5195 21.1ZM81.2405 21.16C80.8405 21.16 80.5271 21.0533 80.3005 20.84C80.0738 20.6133 79.9605 20.2933 79.9605 19.88V18.32H75.0205C74.6071 18.32 74.2738 18.2333 74.0205 18.06C73.7805 17.8867 73.6605 17.6133 73.6605 17.24C73.6605 17.0267 73.7138 16.7933 73.8205 16.54C73.9405 16.2867 74.1471 15.9533 74.4405 15.54L79.9205 7.6C80.1071 7.32 80.3138 7.10667 80.5405 6.96C80.7671 6.81333 81.0271 6.74 81.3205 6.74C81.6671 6.74 81.9538 6.84667 82.1805 7.06C82.4071 7.26 82.5205 7.58 82.5205 8.02V16.2H83.5005C83.8871 16.2 84.1738 16.2933 84.3605 16.48C84.5605 16.6533 84.6605 16.9133 84.6605 17.26C84.6605 17.6067 84.5605 17.8733 84.3605 18.06C84.1738 18.2333 83.8871 18.32 83.5005 18.32H82.5205V19.88C82.5205 20.2933 82.4071 20.6133 82.1805 20.84C81.9538 21.0533 81.6405 21.16 81.2405 21.16ZM79.9605 16.2V9.96H80.5405L75.8205 16.88V16.2H79.9605Z" fill="#6595DE"/>
<path d="M105.167 19.94L97.167 16.56C96.5537 16.3067 96.247 15.8667 96.247 15.24C96.247 14.9333 96.3204 14.68 96.467 14.48C96.627 14.2667 96.8604 14.0933 97.167 13.96L105.167 10.56C105.394 10.4667 105.594 10.4467 105.767 10.5C105.954 10.5533 106.1 10.6533 106.207 10.8C106.314 10.9467 106.374 11.1133 106.387 11.3C106.4 11.4867 106.36 11.6667 106.267 11.84C106.187 12 106.034 12.1267 105.807 12.22L97.087 15.88V14.64L105.807 18.3C106.034 18.3933 106.187 18.5267 106.267 18.7C106.36 18.86 106.4 19.0333 106.387 19.22C106.374 19.3933 106.314 19.5533 106.207 19.7C106.1 19.8467 105.954 19.9467 105.767 20C105.594 20.0533 105.394 20.0333 105.167 19.94ZM118.349 21.2C117.629 21.2 116.882 21.1067 116.109 20.92C115.336 20.7333 114.662 20.4533 114.089 20.08C113.822 19.9067 113.642 19.7067 113.549 19.48C113.456 19.2533 113.429 19.04 113.469 18.84C113.522 18.6267 113.622 18.4467 113.769 18.3C113.929 18.1533 114.122 18.0667 114.349 18.04C114.589 18.0133 114.849 18.0733 115.129 18.22C115.676 18.5133 116.202 18.7267 116.709 18.86C117.216 18.98 117.736 19.04 118.269 19.04C118.856 19.04 119.349 18.96 119.749 18.8C120.149 18.64 120.449 18.4 120.649 18.08C120.862 17.76 120.969 17.3733 120.969 16.92C120.969 16.2533 120.742 15.76 120.289 15.44C119.849 15.1067 119.202 14.94 118.349 14.94H117.069C116.696 14.94 116.409 14.8467 116.209 14.66C116.022 14.4733 115.929 14.2133 115.929 13.88C115.929 13.5467 116.022 13.2867 116.209 13.1C116.409 12.9133 116.696 12.82 117.069 12.82H118.109C118.616 12.82 119.049 12.74 119.409 12.58C119.769 12.4067 120.049 12.1667 120.249 11.86C120.449 11.5533 120.549 11.18 120.549 10.74C120.549 10.1267 120.342 9.66 119.929 9.34C119.529 9.02 118.942 8.86 118.169 8.86C117.676 8.86 117.209 8.92 116.769 9.04C116.342 9.14667 115.869 9.35333 115.349 9.66C115.109 9.80667 114.876 9.86667 114.649 9.84C114.436 9.81333 114.256 9.72667 114.109 9.58C113.962 9.43333 113.862 9.26 113.809 9.06C113.756 8.84667 113.769 8.63333 113.849 8.42C113.929 8.19333 114.096 8 114.349 7.84C114.922 7.46667 115.556 7.18667 116.249 7C116.942 6.8 117.656 6.7 118.389 6.7C119.362 6.7 120.196 6.85333 120.889 7.16C121.582 7.45333 122.109 7.88 122.469 8.44C122.842 8.98667 123.029 9.65333 123.029 10.44C123.029 11 122.922 11.5133 122.709 11.98C122.496 12.4333 122.196 12.82 121.809 13.14C121.422 13.46 120.956 13.6867 120.409 13.82V13.58C121.369 13.74 122.116 14.14 122.649 14.78C123.182 15.4067 123.449 16.1933 123.449 17.14C123.449 17.9667 123.242 18.6867 122.829 19.3C122.416 19.9133 121.829 20.3867 121.069 20.72C120.309 21.04 119.402 21.2 118.349 21.2ZM127.121 21.1C126.668 21.1 126.301 20.96 126.021 20.68C125.754 20.4 125.621 20.04 125.621 19.6C125.621 19.1733 125.754 18.8267 126.021 18.56C126.301 18.28 126.668 18.14 127.121 18.14C127.588 18.14 127.948 18.28 128.201 18.56C128.468 18.8267 128.601 19.1733 128.601 19.6C128.601 20.04 128.468 20.4 128.201 20.68C127.948 20.96 127.588 21.1 127.121 21.1ZM135.702 21.2C134.995 21.2 134.275 21.1067 133.542 20.92C132.809 20.7333 132.135 20.4467 131.522 20.06C131.269 19.9 131.095 19.7133 131.002 19.5C130.922 19.2733 130.902 19.0533 130.942 18.84C130.995 18.6133 131.095 18.4267 131.242 18.28C131.402 18.12 131.589 18.0267 131.802 18C132.029 17.9733 132.275 18.0333 132.542 18.18C133.035 18.46 133.535 18.6733 134.042 18.82C134.549 18.9667 135.089 19.04 135.662 19.04C136.222 19.04 136.702 18.94 137.102 18.74C137.502 18.54 137.809 18.26 138.022 17.9C138.235 17.54 138.342 17.12 138.342 16.64C138.342 15.8933 138.115 15.2933 137.662 14.84C137.209 14.3733 136.589 14.14 135.802 14.14C135.375 14.14 134.962 14.2133 134.562 14.36C134.162 14.4933 133.769 14.7333 133.382 15.08C133.262 15.1867 133.109 15.2933 132.922 15.4C132.735 15.4933 132.535 15.54 132.322 15.54C131.989 15.54 131.735 15.4533 131.562 15.28C131.389 15.1067 131.302 14.8667 131.302 14.56V8.02C131.302 7.66 131.395 7.38667 131.582 7.2C131.782 7 132.062 6.9 132.422 6.9H139.002C139.362 6.9 139.635 6.99333 139.822 7.18C140.022 7.35333 140.122 7.61333 140.122 7.96C140.122 8.29333 140.022 8.55333 139.822 8.74C139.635 8.92667 139.362 9.02 139.002 9.02H133.802V13.5H133.142C133.489 13.0333 133.949 12.6733 134.522 12.42C135.095 12.1667 135.722 12.04 136.402 12.04C137.295 12.04 138.069 12.2333 138.722 12.62C139.389 12.9933 139.902 13.52 140.262 14.2C140.635 14.8667 140.822 15.6467 140.822 16.54C140.822 17.46 140.615 18.2733 140.202 18.98C139.789 19.6733 139.195 20.22 138.422 20.62C137.662 21.0067 136.755 21.2 135.702 21.2ZM144.074 21.1C143.621 21.1 143.254 20.96 142.974 20.68C142.708 20.4 142.574 20.04 142.574 19.6C142.574 19.1733 142.708 18.8267 142.974 18.56C143.254 18.28 143.621 18.14 144.074 18.14C144.541 18.14 144.901 18.28 145.154 18.56C145.421 18.8267 145.554 19.1733 145.554 19.6C145.554 20.04 145.421 20.4 145.154 20.68C144.901 20.96 144.541 21.1 144.074 21.1ZM154.805 21C154.392 21 154.072 20.8867 153.845 20.66C153.618 20.42 153.505 20.0933 153.505 19.68V8.14C153.505 7.71333 153.612 7.39333 153.825 7.18C154.052 6.95333 154.372 6.84 154.785 6.84C155.198 6.84 155.512 6.95333 155.725 7.18C155.952 7.39333 156.065 7.71333 156.065 8.14V18.82H161.865C162.225 18.82 162.498 18.9133 162.685 19.1C162.885 19.2867 162.985 19.5533 162.985 19.9C162.985 20.2467 162.885 20.52 162.685 20.72C162.498 20.9067 162.225 21 161.865 21H154.805ZM169.218 21.2C168.111 21.2 167.158 20.9933 166.358 20.58C165.558 20.1667 164.938 19.58 164.498 18.82C164.071 18.06 163.858 17.16 163.858 16.12C163.858 15.1067 164.064 14.22 164.478 13.46C164.904 12.7 165.484 12.1067 166.218 11.68C166.964 11.24 167.811 11.02 168.758 11.02C169.451 11.02 170.071 11.1333 170.618 11.36C171.178 11.5867 171.651 11.9133 172.038 12.34C172.438 12.7667 172.738 13.2867 172.938 13.9C173.151 14.5 173.258 15.18 173.258 15.94C173.258 16.18 173.171 16.3667 172.998 16.5C172.838 16.62 172.604 16.68 172.298 16.68H165.878V15.24H171.498L171.178 15.54C171.178 14.9267 171.084 14.4133 170.898 14C170.724 13.5867 170.464 13.2733 170.118 13.06C169.784 12.8333 169.364 12.72 168.858 12.72C168.298 12.72 167.818 12.8533 167.418 13.12C167.031 13.3733 166.731 13.74 166.518 14.22C166.318 14.6867 166.218 15.2467 166.218 15.9V16.04C166.218 17.1333 166.471 17.9533 166.978 18.5C167.498 19.0333 168.258 19.3 169.258 19.3C169.604 19.3 169.991 19.26 170.418 19.18C170.858 19.0867 171.271 18.9333 171.658 18.72C171.938 18.56 172.184 18.4933 172.398 18.52C172.611 18.5333 172.778 18.6067 172.898 18.74C173.031 18.8733 173.111 19.04 173.138 19.24C173.164 19.4267 173.124 19.62 173.018 19.82C172.924 20.02 172.758 20.1933 172.518 20.34C172.051 20.6333 171.511 20.8533 170.898 21C170.298 21.1333 169.738 21.2 169.218 21.2ZM179.678 21.2C178.812 21.2 178.085 21.0533 177.498 20.76C176.925 20.4667 176.498 20.04 176.218 19.48C175.938 18.9067 175.798 18.2 175.798 17.36V13.1H174.758C174.438 13.1 174.192 13.02 174.018 12.86C173.845 12.6867 173.758 12.4533 173.758 12.16C173.758 11.8533 173.845 11.62 174.018 11.46C174.192 11.3 174.438 11.22 174.758 11.22H175.798V9.4C175.798 8.98667 175.905 8.67333 176.118 8.46C176.345 8.24667 176.658 8.14 177.058 8.14C177.458 8.14 177.765 8.24667 177.978 8.46C178.192 8.67333 178.298 8.98667 178.298 9.4V11.22H180.418C180.738 11.22 180.985 11.3 181.158 11.46C181.332 11.62 181.418 11.8533 181.418 12.16C181.418 12.4533 181.332 12.6867 181.158 12.86C180.985 13.02 180.738 13.1 180.418 13.1H178.298V17.22C178.298 17.86 178.438 18.34 178.718 18.66C178.998 18.98 179.452 19.14 180.078 19.14C180.305 19.14 180.505 19.12 180.678 19.08C180.852 19.04 181.005 19.0133 181.138 19C181.298 18.9867 181.432 19.04 181.538 19.16C181.645 19.2667 181.698 19.4933 181.698 19.84C181.698 20.1067 181.652 20.3467 181.558 20.56C181.478 20.76 181.325 20.9 181.098 20.98C180.925 21.0333 180.698 21.08 180.418 21.12C180.138 21.1733 179.892 21.2 179.678 21.2ZM184.394 11.8C184.221 12.0133 184.034 12.1333 183.834 12.16C183.648 12.1867 183.481 12.1533 183.334 12.06C183.188 11.9533 183.108 11.8067 183.094 11.62C183.081 11.42 183.168 11.2067 183.354 10.98C183.621 10.6467 183.801 10.3133 183.894 9.98C183.988 9.64667 184.034 9.35333 184.034 9.1L184.134 9.76C183.668 9.76 183.288 9.62667 182.994 9.36C182.714 9.09333 182.574 8.73333 182.574 8.28C182.574 7.84 182.708 7.48667 182.974 7.22C183.241 6.94 183.601 6.8 184.054 6.8C184.521 6.8 184.888 6.96 185.154 7.28C185.421 7.58667 185.554 8.03333 185.554 8.62C185.554 8.94 185.521 9.27333 185.454 9.62C185.401 9.95333 185.288 10.3067 185.114 10.68C184.954 11.04 184.714 11.4133 184.394 11.8ZM190.849 21.2C190.275 21.2 189.669 21.14 189.029 21.02C188.389 20.9 187.815 20.6933 187.309 20.4C187.095 20.2667 186.942 20.1133 186.849 19.94C186.769 19.7533 186.735 19.5733 186.749 19.4C186.775 19.2133 186.842 19.0533 186.949 18.92C187.069 18.7867 187.215 18.7 187.389 18.66C187.575 18.62 187.775 18.6533 187.989 18.76C188.522 19.0133 189.022 19.1933 189.489 19.3C189.955 19.3933 190.415 19.44 190.869 19.44C191.509 19.44 191.982 19.3333 192.289 19.12C192.609 18.8933 192.769 18.6 192.769 18.24C192.769 17.9333 192.662 17.7 192.449 17.54C192.249 17.3667 191.942 17.24 191.529 17.16L189.529 16.78C188.702 16.62 188.069 16.32 187.629 15.88C187.202 15.4267 186.989 14.8467 186.989 14.14C186.989 13.5 187.162 12.9467 187.509 12.48C187.869 12.0133 188.362 11.6533 188.989 11.4C189.615 11.1467 190.335 11.02 191.149 11.02C191.735 11.02 192.282 11.0867 192.789 11.22C193.309 11.34 193.809 11.5333 194.289 11.8C194.489 11.9067 194.622 12.0467 194.689 12.22C194.769 12.3933 194.789 12.5733 194.749 12.76C194.709 12.9333 194.629 13.0933 194.509 13.24C194.389 13.3733 194.235 13.46 194.049 13.5C193.875 13.5267 193.675 13.4867 193.449 13.38C193.035 13.1667 192.635 13.0133 192.249 12.92C191.875 12.8267 191.515 12.78 191.169 12.78C190.515 12.78 190.029 12.8933 189.709 13.12C189.402 13.3467 189.249 13.6467 189.249 14.02C189.249 14.3 189.342 14.5333 189.529 14.72C189.715 14.9067 190.002 15.0333 190.389 15.1L192.389 15.48C193.255 15.64 193.909 15.9333 194.349 16.36C194.802 16.7867 195.029 17.36 195.029 18.08C195.029 19.0533 194.649 19.82 193.889 20.38C193.129 20.9267 192.115 21.2 190.849 21.2ZM203.744 21.16C203.331 21.16 203.011 21.0533 202.784 20.84C202.571 20.6133 202.464 20.2933 202.464 19.88V12.32C202.464 11.9067 202.571 11.5933 202.784 11.38C202.997 11.1667 203.297 11.06 203.684 11.06C204.071 11.06 204.371 11.1667 204.584 11.38C204.797 11.5933 204.904 11.9067 204.904 12.32V13.58H204.704C204.891 12.78 205.257 12.1733 205.804 11.76C206.351 11.3467 207.077 11.1 207.984 11.02C208.264 10.9933 208.484 11.0667 208.644 11.24C208.817 11.4 208.917 11.6533 208.944 12C208.971 12.3333 208.891 12.6067 208.704 12.82C208.531 13.02 208.264 13.14 207.904 13.18L207.464 13.22C206.651 13.3 206.037 13.5533 205.624 13.98C205.211 14.3933 205.004 14.98 205.004 15.74V19.88C205.004 20.2933 204.897 20.6133 204.684 20.84C204.471 21.0533 204.157 21.16 203.744 21.16ZM214.6 21.2C213.587 21.2 212.707 20.9933 211.96 20.58C211.213 20.1667 210.633 19.58 210.22 18.82C209.807 18.0467 209.6 17.14 209.6 16.1C209.6 15.3133 209.713 14.6133 209.94 14C210.18 13.3733 210.52 12.84 210.96 12.4C211.4 11.9467 211.927 11.6067 212.54 11.38C213.153 11.14 213.84 11.02 214.6 11.02C215.613 11.02 216.493 11.2267 217.24 11.64C217.987 12.0533 218.567 12.64 218.98 13.4C219.393 14.16 219.6 15.06 219.6 16.1C219.6 16.8867 219.48 17.5933 219.24 18.22C219.013 18.8467 218.68 19.3867 218.24 19.84C217.8 20.28 217.273 20.62 216.66 20.86C216.047 21.0867 215.36 21.2 214.6 21.2ZM214.6 19.3C215.093 19.3 215.527 19.18 215.9 18.94C216.273 18.7 216.56 18.3467 216.76 17.88C216.973 17.4 217.08 16.8067 217.08 16.1C217.08 15.0333 216.853 14.24 216.4 13.72C215.947 13.1867 215.347 12.92 214.6 12.92C214.107 12.92 213.673 13.04 213.3 13.28C212.927 13.5067 212.633 13.86 212.42 14.34C212.22 14.8067 212.12 15.3933 212.12 16.1C212.12 17.1533 212.347 17.9533 212.8 18.5C213.253 19.0333 213.853 19.3 214.6 19.3ZM225.203 21.2C224.39 21.2 223.717 21.0533 223.183 20.76C222.65 20.4533 222.25 20 221.983 19.4C221.73 18.8 221.603 18.0533 221.603 17.16V12.32C221.603 11.8933 221.71 11.58 221.923 11.38C222.137 11.1667 222.443 11.06 222.843 11.06C223.243 11.06 223.55 11.1667 223.763 11.38C223.99 11.58 224.103 11.8933 224.103 12.32V17.2C224.103 17.8933 224.243 18.4067 224.523 18.74C224.803 19.0733 225.25 19.24 225.863 19.24C226.53 19.24 227.077 19.0133 227.503 18.56C227.93 18.0933 228.143 17.48 228.143 16.72V12.32C228.143 11.8933 228.25 11.58 228.463 11.38C228.677 11.1667 228.983 11.06 229.383 11.06C229.783 11.06 230.09 11.1667 230.303 11.38C230.53 11.58 230.643 11.8933 230.643 12.32V19.88C230.643 20.7333 230.237 21.16 229.423 21.16C229.037 21.16 228.737 21.0533 228.523 20.84C228.31 20.6133 228.203 20.2933 228.203 19.88V18.36L228.483 18.96C228.203 19.68 227.777 20.2333 227.203 20.62C226.643 21.0067 225.977 21.2 225.203 21.2ZM234.485 21.16C234.085 21.16 233.779 21.0533 233.565 20.84C233.352 20.6133 233.245 20.2933 233.245 19.88V12.32C233.245 11.9067 233.352 11.5933 233.565 11.38C233.779 11.1667 234.079 11.06 234.465 11.06C234.852 11.06 235.152 11.1667 235.365 11.38C235.579 11.5933 235.685 11.9067 235.685 12.32V13.68L235.465 13.18C235.759 12.4733 236.212 11.94 236.825 11.58C237.452 11.2067 238.159 11.02 238.945 11.02C239.732 11.02 240.379 11.1667 240.885 11.46C241.392 11.7533 241.772 12.2 242.025 12.8C242.279 13.3867 242.405 14.1333 242.405 15.04V19.88C242.405 20.2933 242.299 20.6133 242.085 20.84C241.872 21.0533 241.565 21.16 241.165 21.16C240.765 21.16 240.452 21.0533 240.225 20.84C240.012 20.6133 239.905 20.2933 239.905 19.88V15.16C239.905 14.4 239.759 13.8467 239.465 13.5C239.185 13.1533 238.745 12.98 238.145 12.98C237.412 12.98 236.825 13.2133 236.385 13.68C235.959 14.1333 235.745 14.74 235.745 15.5V19.88C235.745 20.7333 235.325 21.16 234.485 21.16ZM248.705 21.2C247.851 21.2 247.098 20.9933 246.445 20.58C245.805 20.1667 245.305 19.58 244.945 18.82C244.585 18.0467 244.405 17.14 244.405 16.1C244.405 15.0467 244.585 14.1467 244.945 13.4C245.305 12.64 245.805 12.0533 246.445 11.64C247.098 11.2267 247.851 11.02 248.705 11.02C249.518 11.02 250.225 11.22 250.825 11.62C251.438 12.02 251.851 12.5467 252.065 13.2H251.845V8C251.845 7.58667 251.951 7.27333 252.165 7.06C252.378 6.84667 252.685 6.74 253.085 6.74C253.485 6.74 253.791 6.84667 254.005 7.06C254.231 7.27333 254.345 7.58667 254.345 8V19.88C254.345 20.2933 254.238 20.6133 254.025 20.84C253.811 21.0533 253.505 21.16 253.105 21.16C252.705 21.16 252.398 21.0533 252.185 20.84C251.971 20.6133 251.865 20.2933 251.865 19.88V18.32L252.085 18.92C251.885 19.6133 251.478 20.1667 250.865 20.58C250.251 20.9933 249.531 21.2 248.705 21.2ZM249.405 19.3C249.898 19.3 250.331 19.18 250.705 18.94C251.078 18.7 251.365 18.3467 251.565 17.88C251.778 17.4 251.885 16.8067 251.885 16.1C251.885 15.0333 251.658 14.24 251.205 13.72C250.751 13.1867 250.151 12.92 249.405 12.92C248.911 12.92 248.478 13.04 248.105 13.28C247.731 13.5067 247.438 13.86 247.225 14.34C247.025 14.8067 246.925 15.3933 246.925 16.1C246.925 17.1533 247.151 17.9533 247.605 18.5C248.058 19.0333 248.658 19.3 249.405 19.3ZM263.606 21.14C263.206 21.14 262.9 21.02 262.686 20.78C262.473 20.54 262.366 20.2067 262.366 19.78V12.44C262.366 12 262.473 11.6667 262.686 11.44C262.9 11.2 263.206 11.08 263.606 11.08C264.006 11.08 264.313 11.2 264.526 11.44C264.753 11.6667 264.866 12 264.866 12.44V19.78C264.866 20.2067 264.76 20.54 264.546 20.78C264.333 21.02 264.02 21.14 263.606 21.14ZM263.606 9.22C263.14 9.22 262.773 9.10667 262.506 8.88C262.253 8.64 262.126 8.31333 262.126 7.9C262.126 7.47333 262.253 7.14667 262.506 6.92C262.773 6.69333 263.14 6.58 263.606 6.58C264.086 6.58 264.453 6.69333 264.706 6.92C264.96 7.14667 265.086 7.47333 265.086 7.9C265.086 8.31333 264.96 8.64 264.706 8.88C264.453 9.10667 264.086 9.22 263.606 9.22ZM271.944 21.2C271.077 21.2 270.351 21.0533 269.764 20.76C269.191 20.4667 268.764 20.04 268.484 19.48C268.204 18.9067 268.064 18.2 268.064 17.36V13.1H267.024C266.704 13.1 266.457 13.02 266.284 12.86C266.111 12.6867 266.024 12.4533 266.024 12.16C266.024 11.8533 266.111 11.62 266.284 11.46C266.457 11.3 266.704 11.22 267.024 11.22H268.064V9.4C268.064 8.98667 268.171 8.67333 268.384 8.46C268.611 8.24667 268.924 8.14 269.324 8.14C269.724 8.14 270.031 8.24667 270.244 8.46C270.457 8.67333 270.564 8.98667 270.564 9.4V11.22H272.684C273.004 11.22 273.251 11.3 273.424 11.46C273.597 11.62 273.684 11.8533 273.684 12.16C273.684 12.4533 273.597 12.6867 273.424 12.86C273.251 13.02 273.004 13.1 272.684 13.1H270.564V17.22C270.564 17.86 270.704 18.34 270.984 18.66C271.264 18.98 271.717 19.14 272.344 19.14C272.571 19.14 272.771 19.12 272.944 19.08C273.117 19.04 273.271 19.0133 273.404 19C273.564 18.9867 273.697 19.04 273.804 19.16C273.911 19.2667 273.964 19.4933 273.964 19.84C273.964 20.1067 273.917 20.3467 273.824 20.56C273.744 20.76 273.591 20.9 273.364 20.98C273.191 21.0333 272.964 21.08 272.684 21.12C272.404 21.1733 272.157 21.2 271.944 21.2ZM284.33 21.2C283.476 21.2 282.723 20.9933 282.07 20.58C281.43 20.1667 280.93 19.58 280.57 18.82C280.21 18.0467 280.03 17.14 280.03 16.1C280.03 15.0467 280.21 14.1467 280.57 13.4C280.93 12.64 281.43 12.0533 282.07 11.64C282.723 11.2267 283.476 11.02 284.33 11.02C285.143 11.02 285.85 11.22 286.45 11.62C287.063 12.02 287.476 12.5467 287.69 13.2H287.47V8C287.47 7.58667 287.576 7.27333 287.79 7.06C288.003 6.84667 288.31 6.74 288.71 6.74C289.11 6.74 289.416 6.84667 289.63 7.06C289.856 7.27333 289.97 7.58667 289.97 8V19.88C289.97 20.2933 289.863 20.6133 289.65 20.84C289.436 21.0533 289.13 21.16 288.73 21.16C288.33 21.16 288.023 21.0533 287.81 20.84C287.596 20.6133 287.49 20.2933 287.49 19.88V18.32L287.71 18.92C287.51 19.6133 287.103 20.1667 286.49 20.58C285.876 20.9933 285.156 21.2 284.33 21.2ZM285.03 19.3C285.523 19.3 285.956 19.18 286.33 18.94C286.703 18.7 286.99 18.3467 287.19 17.88C287.403 17.4 287.51 16.8067 287.51 16.1C287.51 15.0333 287.283 14.24 286.83 13.72C286.376 13.1867 285.776 12.92 285.03 12.92C284.536 12.92 284.103 13.04 283.73 13.28C283.356 13.5067 283.063 13.86 282.85 14.34C282.65 14.8067 282.55 15.3933 282.55 16.1C282.55 17.1533 282.776 17.9533 283.23 18.5C283.683 19.0333 284.283 19.3 285.03 19.3ZM297.022 21.2C296.008 21.2 295.128 20.9933 294.382 20.58C293.635 20.1667 293.055 19.58 292.642 18.82C292.228 18.0467 292.022 17.14 292.022 16.1C292.022 15.3133 292.135 14.6133 292.362 14C292.602 13.3733 292.942 12.84 293.382 12.4C293.822 11.9467 294.348 11.6067 294.962 11.38C295.575 11.14 296.262 11.02 297.022 11.02C298.035 11.02 298.915 11.2267 299.662 11.64C300.408 12.0533 300.988 12.64 301.402 13.4C301.815 14.16 302.022 15.06 302.022 16.1C302.022 16.8867 301.902 17.5933 301.662 18.22C301.435 18.8467 301.102 19.3867 300.662 19.84C300.222 20.28 299.695 20.62 299.082 20.86C298.468 21.0867 297.782 21.2 297.022 21.2ZM297.022 19.3C297.515 19.3 297.948 19.18 298.322 18.94C298.695 18.7 298.982 18.3467 299.182 17.88C299.395 17.4 299.502 16.8067 299.502 16.1C299.502 15.0333 299.275 14.24 298.822 13.72C298.368 13.1867 297.768 12.92 297.022 12.92C296.528 12.92 296.095 13.04 295.722 13.28C295.348 13.5067 295.055 13.86 294.842 14.34C294.642 14.8067 294.542 15.3933 294.542 16.1C294.542 17.1533 294.768 17.9533 295.222 18.5C295.675 19.0333 296.275 19.3 297.022 19.3ZM307.67 21.16C307.337 21.16 307.05 21.08 306.81 20.92C306.57 20.7467 306.377 20.48 306.23 20.12L303.33 12.72C303.21 12.4 303.17 12.12 303.21 11.88C303.263 11.6267 303.39 11.4267 303.59 11.28C303.79 11.1333 304.057 11.06 304.39 11.06C304.683 11.06 304.923 11.1333 305.11 11.28C305.297 11.4133 305.457 11.6733 305.59 12.06L308.01 18.72H307.55L310.05 11.9C310.157 11.6067 310.297 11.3933 310.47 11.26C310.657 11.1267 310.897 11.06 311.19 11.06C311.483 11.06 311.723 11.1333 311.91 11.28C312.097 11.4133 312.237 11.62 312.33 11.9L314.79 18.72H314.37L316.81 12C316.943 11.64 317.11 11.3933 317.31 11.26C317.523 11.1267 317.757 11.06 318.01 11.06C318.33 11.06 318.577 11.14 318.75 11.3C318.923 11.46 319.023 11.6667 319.05 11.92C319.077 12.16 319.03 12.4267 318.91 12.72L316.03 20.12C315.897 20.4667 315.703 20.7267 315.45 20.9C315.21 21.0733 314.923 21.16 314.59 21.16C314.257 21.16 313.963 21.0733 313.71 20.9C313.47 20.7267 313.283 20.4667 313.15 20.12L310.53 13.18H311.67L309.11 20.1C308.977 20.46 308.79 20.7267 308.55 20.9C308.31 21.0733 308.017 21.16 307.67 21.16ZM322.181 21.16C321.781 21.16 321.474 21.0533 321.261 20.84C321.047 20.6133 320.941 20.2933 320.941 19.88V12.32C320.941 11.9067 321.047 11.5933 321.261 11.38C321.474 11.1667 321.774 11.06 322.161 11.06C322.547 11.06 322.847 11.1667 323.061 11.38C323.274 11.5933 323.381 11.9067 323.381 12.32V13.68L323.161 13.18C323.454 12.4733 323.907 11.94 324.521 11.58C325.147 11.2067 325.854 11.02 326.641 11.02C327.427 11.02 328.074 11.1667 328.581 11.46C329.087 11.7533 329.467 12.2 329.721 12.8C329.974 13.3867 330.101 14.1333 330.101 15.04V19.88C330.101 20.2933 329.994 20.6133 329.781 20.84C329.567 21.0533 329.261 21.16 328.861 21.16C328.461 21.16 328.147 21.0533 327.921 20.84C327.707 20.6133 327.601 20.2933 327.601 19.88V15.16C327.601 14.4 327.454 13.8467 327.161 13.5C326.881 13.1533 326.441 12.98 325.841 12.98C325.107 12.98 324.521 13.2133 324.081 13.68C323.654 14.1333 323.441 14.74 323.441 15.5V19.88C323.441 20.7333 323.021 21.16 322.181 21.16ZM342.55 21.2C341.683 21.2 340.956 21.0533 340.37 20.76C339.796 20.4667 339.37 20.04 339.09 19.48C338.81 18.9067 338.67 18.2 338.67 17.36V13.1H337.63C337.31 13.1 337.063 13.02 336.89 12.86C336.716 12.6867 336.63 12.4533 336.63 12.16C336.63 11.8533 336.716 11.62 336.89 11.46C337.063 11.3 337.31 11.22 337.63 11.22H338.67V9.4C338.67 8.98667 338.776 8.67333 338.99 8.46C339.216 8.24667 339.53 8.14 339.93 8.14C340.33 8.14 340.636 8.24667 340.85 8.46C341.063 8.67333 341.17 8.98667 341.17 9.4V11.22H343.29C343.61 11.22 343.856 11.3 344.03 11.46C344.203 11.62 344.29 11.8533 344.29 12.16C344.29 12.4533 344.203 12.6867 344.03 12.86C343.856 13.02 343.61 13.1 343.29 13.1H341.17V17.22C341.17 17.86 341.31 18.34 341.59 18.66C341.87 18.98 342.323 19.14 342.95 19.14C343.176 19.14 343.376 19.12 343.55 19.08C343.723 19.04 343.876 19.0133 344.01 19C344.17 18.9867 344.303 19.04 344.41 19.16C344.516 19.2667 344.57 19.4933 344.57 19.84C344.57 20.1067 344.523 20.3467 344.43 20.56C344.35 20.76 344.196 20.9 343.97 20.98C343.796 21.0333 343.57 21.08 343.29 21.12C343.01 21.1733 342.763 21.2 342.55 21.2ZM350.108 21.2C349.094 21.2 348.214 20.9933 347.468 20.58C346.721 20.1667 346.141 19.58 345.728 18.82C345.314 18.0467 345.108 17.14 345.108 16.1C345.108 15.3133 345.221 14.6133 345.448 14C345.688 13.3733 346.028 12.84 346.468 12.4C346.908 11.9467 347.434 11.6067 348.048 11.38C348.661 11.14 349.348 11.02 350.108 11.02C351.121 11.02 352.001 11.2267 352.748 11.64C353.494 12.0533 354.074 12.64 354.488 13.4C354.901 14.16 355.108 15.06 355.108 16.1C355.108 16.8867 354.988 17.5933 354.748 18.22C354.521 18.8467 354.188 19.3867 353.748 19.84C353.308 20.28 352.781 20.62 352.168 20.86C351.554 21.0867 350.868 21.2 350.108 21.2ZM350.108 19.3C350.601 19.3 351.034 19.18 351.408 18.94C351.781 18.7 352.068 18.3467 352.268 17.88C352.481 17.4 352.588 16.8067 352.588 16.1C352.588 15.0333 352.361 14.24 351.908 13.72C351.454 13.1867 350.854 12.92 350.108 12.92C349.614 12.92 349.181 13.04 348.808 13.28C348.434 13.5067 348.141 13.86 347.928 14.34C347.728 14.8067 347.628 15.3933 347.628 16.1C347.628 17.1533 347.854 17.9533 348.308 18.5C348.761 19.0333 349.361 19.3 350.108 19.3ZM367.081 21.2C366.214 21.2 365.487 21.0533 364.901 20.76C364.327 20.4667 363.901 20.04 363.621 19.48C363.341 18.9067 363.201 18.2 363.201 17.36V13.1H362.161C361.841 13.1 361.594 13.02 361.421 12.86C361.247 12.6867 361.161 12.4533 361.161 12.16C361.161 11.8533 361.247 11.62 361.421 11.46C361.594 11.3 361.841 11.22 362.161 11.22H363.201V9.4C363.201 8.98667 363.307 8.67333 363.521 8.46C363.747 8.24667 364.061 8.14 364.461 8.14C364.861 8.14 365.167 8.24667 365.381 8.46C365.594 8.67333 365.701 8.98667 365.701 9.4V11.22H367.821C368.141 11.22 368.387 11.3 368.561 11.46C368.734 11.62 368.821 11.8533 368.821 12.16C368.821 12.4533 368.734 12.6867 368.561 12.86C368.387 13.02 368.141 13.1 367.821 13.1H365.701V17.22C365.701 17.86 365.841 18.34 366.121 18.66C366.401 18.98 366.854 19.14 367.481 19.14C367.707 19.14 367.907 19.12 368.081 19.08C368.254 19.04 368.407 19.0133 368.541 19C368.701 18.9867 368.834 19.04 368.941 19.16C369.047 19.2667 369.101 19.4933 369.101 19.84C369.101 20.1067 369.054 20.3467 368.961 20.56C368.881 20.76 368.727 20.9 368.501 20.98C368.327 21.0333 368.101 21.08 367.821 21.12C367.541 21.1733 367.294 21.2 367.081 21.2ZM371.77 21.16C371.37 21.16 371.064 21.0533 370.85 20.84C370.637 20.6133 370.53 20.2933 370.53 19.88V8C370.53 7.58667 370.637 7.27333 370.85 7.06C371.064 6.84667 371.37 6.74 371.77 6.74C372.17 6.74 372.477 6.84667 372.69 7.06C372.917 7.27333 373.03 7.58667 373.03 8V13.18H372.75C373.044 12.4733 373.497 11.94 374.11 11.58C374.737 11.2067 375.444 11.02 376.23 11.02C377.017 11.02 377.664 11.1667 378.17 11.46C378.677 11.7533 379.057 12.2 379.31 12.8C379.564 13.3867 379.69 14.1333 379.69 15.04V19.88C379.69 20.2933 379.584 20.6133 379.37 20.84C379.157 21.0533 378.85 21.16 378.45 21.16C378.05 21.16 377.737 21.0533 377.51 20.84C377.297 20.6133 377.19 20.2933 377.19 19.88V15.16C377.19 14.4 377.044 13.8467 376.75 13.5C376.47 13.1533 376.03 12.98 375.43 12.98C374.697 12.98 374.11 13.2133 373.67 13.68C373.244 14.1333 373.03 14.74 373.03 15.5V19.88C373.03 20.7333 372.61 21.16 371.77 21.16ZM387.05 21.2C385.943 21.2 384.99 20.9933 384.19 20.58C383.39 20.1667 382.77 19.58 382.33 18.82C381.903 18.06 381.69 17.16 381.69 16.12C381.69 15.1067 381.896 14.22 382.31 13.46C382.736 12.7 383.316 12.1067 384.05 11.68C384.796 11.24 385.643 11.02 386.59 11.02C387.283 11.02 387.903 11.1333 388.45 11.36C389.01 11.5867 389.483 11.9133 389.87 12.34C390.27 12.7667 390.57 13.2867 390.77 13.9C390.983 14.5 391.09 15.18 391.09 15.94C391.09 16.18 391.003 16.3667 390.83 16.5C390.67 16.62 390.436 16.68 390.13 16.68H383.71V15.24H389.33L389.01 15.54C389.01 14.9267 388.916 14.4133 388.73 14C388.556 13.5867 388.296 13.2733 387.95 13.06C387.616 12.8333 387.196 12.72 386.69 12.72C386.13 12.72 385.65 12.8533 385.25 13.12C384.863 13.3733 384.563 13.74 384.35 14.22C384.15 14.6867 384.05 15.2467 384.05 15.9V16.04C384.05 17.1333 384.303 17.9533 384.81 18.5C385.33 19.0333 386.09 19.3 387.09 19.3C387.436 19.3 387.823 19.26 388.25 19.18C388.69 19.0867 389.103 18.9333 389.49 18.72C389.77 18.56 390.016 18.4933 390.23 18.52C390.443 18.5333 390.61 18.6067 390.73 18.74C390.863 18.8733 390.943 19.04 390.97 19.24C390.996 19.4267 390.956 19.62 390.85 19.82C390.756 20.02 390.59 20.1933 390.35 20.34C389.883 20.6333 389.343 20.8533 388.73 21C388.13 21.1333 387.57 21.2 387.05 21.2ZM399.739 21.16C399.339 21.16 399.033 21.0533 398.819 20.84C398.606 20.6133 398.499 20.2933 398.499 19.88V12.32C398.499 11.9067 398.606 11.5933 398.819 11.38C399.033 11.1667 399.333 11.06 399.719 11.06C400.106 11.06 400.406 11.1667 400.619 11.38C400.833 11.5933 400.939 11.9067 400.939 12.32V13.68L400.719 13.18C401.013 12.4733 401.466 11.94 402.079 11.58C402.706 11.2067 403.413 11.02 404.199 11.02C404.986 11.02 405.633 11.1667 406.139 11.46C406.646 11.7533 407.026 12.2 407.279 12.8C407.533 13.3867 407.659 14.1333 407.659 15.04V19.88C407.659 20.2933 407.553 20.6133 407.339 20.84C407.126 21.0533 406.819 21.16 406.419 21.16C406.019 21.16 405.706 21.0533 405.479 20.84C405.266 20.6133 405.159 20.2933 405.159 19.88V15.16C405.159 14.4 405.013 13.8467 404.719 13.5C404.439 13.1533 403.999 12.98 403.399 12.98C402.666 12.98 402.079 13.2133 401.639 13.68C401.213 14.1333 400.999 14.74 400.999 15.5V19.88C400.999 20.7333 400.579 21.16 399.739 21.16ZM415.018 21.2C413.912 21.2 412.958 20.9933 412.158 20.58C411.358 20.1667 410.738 19.58 410.298 18.82C409.872 18.06 409.658 17.16 409.658 16.12C409.658 15.1067 409.865 14.22 410.278 13.46C410.705 12.7 411.285 12.1067 412.018 11.68C412.765 11.24 413.612 11.02 414.558 11.02C415.252 11.02 415.872 11.1333 416.418 11.36C416.978 11.5867 417.452 11.9133 417.838 12.34C418.238 12.7667 418.538 13.2867 418.738 13.9C418.952 14.5 419.058 15.18 419.058 15.94C419.058 16.18 418.972 16.3667 418.798 16.5C418.638 16.62 418.405 16.68 418.098 16.68H411.678V15.24H417.298L416.978 15.54C416.978 14.9267 416.885 14.4133 416.698 14C416.525 13.5867 416.265 13.2733 415.918 13.06C415.585 12.8333 415.165 12.72 414.658 12.72C414.098 12.72 413.618 12.8533 413.218 13.12C412.832 13.3733 412.532 13.74 412.318 14.22C412.118 14.6867 412.018 15.2467 412.018 15.9V16.04C412.018 17.1333 412.272 17.9533 412.778 18.5C413.298 19.0333 414.058 19.3 415.058 19.3C415.405 19.3 415.792 19.26 416.218 19.18C416.658 19.0867 417.072 18.9333 417.458 18.72C417.738 18.56 417.985 18.4933 418.198 18.52C418.412 18.5333 418.578 18.6067 418.698 18.74C418.832 18.8733 418.912 19.04 418.938 19.24C418.965 19.4267 418.925 19.62 418.818 19.82C418.725 20.02 418.558 20.1933 418.318 20.34C417.852 20.6333 417.312 20.8533 416.698 21C416.098 21.1333 415.538 21.2 415.018 21.2ZM424.258 21.2C423.552 21.2 422.918 21.0667 422.358 20.8C421.812 20.52 421.378 20.1467 421.058 19.68C420.752 19.2133 420.598 18.6867 420.598 18.1C420.598 17.38 420.785 16.8133 421.158 16.4C421.532 15.9733 422.138 15.6667 422.978 15.48C423.818 15.2933 424.945 15.2 426.358 15.2H427.358V16.64H426.378C425.552 16.64 424.892 16.68 424.398 16.76C423.905 16.84 423.552 16.98 423.338 17.18C423.138 17.3667 423.038 17.6333 423.038 17.98C423.038 18.42 423.192 18.78 423.498 19.06C423.805 19.34 424.232 19.48 424.778 19.48C425.218 19.48 425.605 19.38 425.938 19.18C426.285 18.9667 426.558 18.68 426.758 18.32C426.958 17.96 427.058 17.5467 427.058 17.08V14.78C427.058 14.1133 426.912 13.6333 426.618 13.34C426.325 13.0467 425.832 12.9 425.138 12.9C424.752 12.9 424.332 12.9467 423.878 13.04C423.438 13.1333 422.972 13.2933 422.478 13.52C422.225 13.64 421.998 13.6733 421.798 13.62C421.612 13.5667 421.465 13.46 421.358 13.3C421.252 13.1267 421.198 12.94 421.198 12.74C421.198 12.54 421.252 12.3467 421.358 12.16C421.465 11.96 421.645 11.8133 421.898 11.72C422.512 11.4667 423.098 11.2867 423.658 11.18C424.232 11.0733 424.752 11.02 425.218 11.02C426.178 11.02 426.965 11.1667 427.578 11.46C428.205 11.7533 428.672 12.2 428.978 12.8C429.285 13.3867 429.438 14.1467 429.438 15.08V19.88C429.438 20.2933 429.338 20.6133 429.138 20.84C428.938 21.0533 428.652 21.16 428.278 21.16C427.905 21.16 427.612 21.0533 427.398 20.84C427.198 20.6133 427.098 20.2933 427.098 19.88V18.92H427.258C427.165 19.3867 426.978 19.7933 426.698 20.14C426.432 20.4733 426.092 20.7333 425.678 20.92C425.265 21.1067 424.792 21.2 424.258 21.2ZM433.256 21.16C432.842 21.16 432.522 21.0533 432.296 20.84C432.082 20.6133 431.976 20.2933 431.976 19.88V12.32C431.976 11.9067 432.082 11.5933 432.296 11.38C432.509 11.1667 432.809 11.06 433.196 11.06C433.582 11.06 433.882 11.1667 434.096 11.38C434.309 11.5933 434.416 11.9067 434.416 12.32V13.58H434.216C434.402 12.78 434.769 12.1733 435.316 11.76C435.862 11.3467 436.589 11.1 437.496 11.02C437.776 10.9933 437.996 11.0667 438.156 11.24C438.329 11.4 438.429 11.6533 438.456 12C438.482 12.3333 438.402 12.6067 438.216 12.82C438.042 13.02 437.776 13.14 437.416 13.18L436.976 13.22C436.162 13.3 435.549 13.5533 435.136 13.98C434.722 14.3933 434.516 14.98 434.516 15.74V19.88C434.516 20.2933 434.409 20.6133 434.196 20.84C433.982 21.0533 433.669 21.16 433.256 21.16ZM444.472 21.2C443.365 21.2 442.412 20.9933 441.612 20.58C440.812 20.1667 440.192 19.58 439.752 18.82C439.325 18.06 439.112 17.16 439.112 16.12C439.112 15.1067 439.318 14.22 439.732 13.46C440.158 12.7 440.738 12.1067 441.472 11.68C442.218 11.24 443.065 11.02 444.012 11.02C444.705 11.02 445.325 11.1333 445.872 11.36C446.432 11.5867 446.905 11.9133 447.292 12.34C447.692 12.7667 447.992 13.2867 448.192 13.9C448.405 14.5 448.512 15.18 448.512 15.94C448.512 16.18 448.425 16.3667 448.252 16.5C448.092 16.62 447.858 16.68 447.552 16.68H441.132V15.24H446.752L446.432 15.54C446.432 14.9267 446.338 14.4133 446.152 14C445.978 13.5867 445.718 13.2733 445.372 13.06C445.038 12.8333 444.618 12.72 444.112 12.72C443.552 12.72 443.072 12.8533 442.672 13.12C442.285 13.3733 441.985 13.74 441.772 14.22C441.572 14.6867 441.472 15.2467 441.472 15.9V16.04C441.472 17.1333 441.725 17.9533 442.232 18.5C442.752 19.0333 443.512 19.3 444.512 19.3C444.858 19.3 445.245 19.26 445.672 19.18C446.112 19.0867 446.525 18.9333 446.912 18.72C447.192 18.56 447.438 18.4933 447.652 18.52C447.865 18.5333 448.032 18.6067 448.152 18.74C448.285 18.8733 448.365 19.04 448.392 19.24C448.418 19.4267 448.378 19.62 448.272 19.82C448.178 20.02 448.012 20.1933 447.772 20.34C447.305 20.6333 446.765 20.8533 446.152 21C445.552 21.1333 444.992 21.2 444.472 21.2ZM454.071 21.2C453.498 21.2 452.891 21.14 452.251 21.02C451.611 20.9 451.038 20.6933 450.531 20.4C450.318 20.2667 450.165 20.1133 450.071 19.94C449.991 19.7533 449.958 19.5733 449.971 19.4C449.998 19.2133 450.065 19.0533 450.171 18.92C450.291 18.7867 450.438 18.7 450.611 18.66C450.798 18.62 450.998 18.6533 451.211 18.76C451.745 19.0133 452.245 19.1933 452.711 19.3C453.178 19.3933 453.638 19.44 454.091 19.44C454.731 19.44 455.205 19.3333 455.511 19.12C455.831 18.8933 455.991 18.6 455.991 18.24C455.991 17.9333 455.885 17.7 455.671 17.54C455.471 17.3667 455.165 17.24 454.751 17.16L452.751 16.78C451.925 16.62 451.291 16.32 450.851 15.88C450.425 15.4267 450.211 14.8467 450.211 14.14C450.211 13.5 450.385 12.9467 450.731 12.48C451.091 12.0133 451.585 11.6533 452.211 11.4C452.838 11.1467 453.558 11.02 454.371 11.02C454.958 11.02 455.505 11.0867 456.011 11.22C456.531 11.34 457.031 11.5333 457.511 11.8C457.711 11.9067 457.845 12.0467 457.911 12.22C457.991 12.3933 458.011 12.5733 457.971 12.76C457.931 12.9333 457.851 13.0933 457.731 13.24C457.611 13.3733 457.458 13.46 457.271 13.5C457.098 13.5267 456.898 13.4867 456.671 13.38C456.258 13.1667 455.858 13.0133 455.471 12.92C455.098 12.8267 454.738 12.78 454.391 12.78C453.738 12.78 453.251 12.8933 452.931 13.12C452.625 13.3467 452.471 13.6467 452.471 14.02C452.471 14.3 452.565 14.5333 452.751 14.72C452.938 14.9067 453.225 15.0333 453.611 15.1L455.611 15.48C456.478 15.64 457.131 15.9333 457.571 16.36C458.025 16.7867 458.251 17.36 458.251 18.08C458.251 19.0533 457.871 19.82 457.111 20.38C456.351 20.9267 455.338 21.2 454.071 21.2ZM464.639 21.2C463.773 21.2 463.046 21.0533 462.459 20.76C461.886 20.4667 461.459 20.04 461.179 19.48C460.899 18.9067 460.759 18.2 460.759 17.36V13.1H459.719C459.399 13.1 459.153 13.02 458.979 12.86C458.806 12.6867 458.719 12.4533 458.719 12.16C458.719 11.8533 458.806 11.62 458.979 11.46C459.153 11.3 459.399 11.22 459.719 11.22H460.759V9.4C460.759 8.98667 460.866 8.67333 461.079 8.46C461.306 8.24667 461.619 8.14 462.019 8.14C462.419 8.14 462.726 8.24667 462.939 8.46C463.153 8.67333 463.259 8.98667 463.259 9.4V11.22H465.379C465.699 11.22 465.946 11.3 466.119 11.46C466.293 11.62 466.379 11.8533 466.379 12.16C466.379 12.4533 466.293 12.6867 466.119 12.86C465.946 13.02 465.699 13.1 465.379 13.1H463.259V17.22C463.259 17.86 463.399 18.34 463.679 18.66C463.959 18.98 464.413 19.14 465.039 19.14C465.266 19.14 465.466 19.12 465.639 19.08C465.813 19.04 465.966 19.0133 466.099 19C466.259 18.9867 466.393 19.04 466.499 19.16C466.606 19.2667 466.659 19.4933 466.659 19.84C466.659 20.1067 466.613 20.3467 466.519 20.56C466.439 20.76 466.286 20.9 466.059 20.98C465.886 21.0333 465.659 21.08 465.379 21.12C465.099 21.1733 464.853 21.2 464.639 21.2ZM477.045 21.16C476.712 21.16 476.425 21.08 476.185 20.92C475.945 20.7467 475.752 20.48 475.605 20.12L472.705 12.72C472.585 12.4 472.545 12.12 472.585 11.88C472.638 11.6267 472.765 11.4267 472.965 11.28C473.165 11.1333 473.432 11.06 473.765 11.06C474.058 11.06 474.298 11.1333 474.485 11.28C474.672 11.4133 474.832 11.6733 474.965 12.06L477.385 18.72H476.925L479.425 11.9C479.532 11.6067 479.672 11.3933 479.845 11.26C480.032 11.1267 480.272 11.06 480.565 11.06C480.858 11.06 481.098 11.1333 481.285 11.28C481.472 11.4133 481.612 11.62 481.705 11.9L484.165 18.72H483.745L486.185 12C486.318 11.64 486.485 11.3933 486.685 11.26C486.898 11.1267 487.132 11.06 487.385 11.06C487.705 11.06 487.952 11.14 488.125 11.3C488.298 11.46 488.398 11.6667 488.425 11.92C488.452 12.16 488.405 12.4267 488.285 12.72L485.405 20.12C485.272 20.4667 485.078 20.7267 484.825 20.9C484.585 21.0733 484.298 21.16 483.965 21.16C483.632 21.16 483.338 21.0733 483.085 20.9C482.845 20.7267 482.658 20.4667 482.525 20.12L479.905 13.18H481.045L478.485 20.1C478.352 20.46 478.165 20.7267 477.925 20.9C477.685 21.0733 477.392 21.16 477.045 21.16ZM491.556 21.16C491.156 21.16 490.849 21.0533 490.636 20.84C490.422 20.6133 490.316 20.2933 490.316 19.88V8C490.316 7.58667 490.422 7.27333 490.636 7.06C490.849 6.84667 491.156 6.74 491.556 6.74C491.956 6.74 492.262 6.84667 492.476 7.06C492.702 7.27333 492.816 7.58667 492.816 8V13.18H492.536C492.829 12.4733 493.282 11.94 493.896 11.58C494.522 11.2067 495.229 11.02 496.016 11.02C496.802 11.02 497.449 11.1667 497.956 11.46C498.462 11.7533 498.842 12.2 499.096 12.8C499.349 13.3867 499.476 14.1333 499.476 15.04V19.88C499.476 20.2933 499.369 20.6133 499.156 20.84C498.942 21.0533 498.636 21.16 498.236 21.16C497.836 21.16 497.522 21.0533 497.296 20.84C497.082 20.6133 496.976 20.2933 496.976 19.88V15.16C496.976 14.4 496.829 13.8467 496.536 13.5C496.256 13.1533 495.816 12.98 495.216 12.98C494.482 12.98 493.896 13.2133 493.456 13.68C493.029 14.1333 492.816 14.74 492.816 15.5V19.88C492.816 20.7333 492.396 21.16 491.556 21.16ZM506.475 21.2C505.462 21.2 504.582 20.9933 503.835 20.58C503.088 20.1667 502.508 19.58 502.095 18.82C501.682 18.0467 501.475 17.14 501.475 16.1C501.475 15.3133 501.588 14.6133 501.815 14C502.055 13.3733 502.395 12.84 502.835 12.4C503.275 11.9467 503.802 11.6067 504.415 11.38C505.028 11.14 505.715 11.02 506.475 11.02C507.488 11.02 508.368 11.2267 509.115 11.64C509.862 12.0533 510.442 12.64 510.855 13.4C511.268 14.16 511.475 15.06 511.475 16.1C511.475 16.8867 511.355 17.5933 511.115 18.22C510.888 18.8467 510.555 19.3867 510.115 19.84C509.675 20.28 509.148 20.62 508.535 20.86C507.922 21.0867 507.235 21.2 506.475 21.2ZM506.475 19.3C506.968 19.3 507.402 19.18 507.775 18.94C508.148 18.7 508.435 18.3467 508.635 17.88C508.848 17.4 508.955 16.8067 508.955 16.1C508.955 15.0333 508.728 14.24 508.275 13.72C507.822 13.1867 507.222 12.92 506.475 12.92C505.982 12.92 505.548 13.04 505.175 13.28C504.802 13.5067 504.508 13.86 504.295 14.34C504.095 14.8067 503.995 15.3933 503.995 16.1C503.995 17.1533 504.222 17.9533 504.675 18.5C505.128 19.0333 505.728 19.3 506.475 19.3ZM516.878 21.2C515.772 21.2 514.938 20.8867 514.378 20.26C513.818 19.62 513.538 18.6867 513.538 17.46V8C513.538 7.58667 513.645 7.27333 513.858 7.06C514.072 6.84667 514.378 6.74 514.778 6.74C515.178 6.74 515.485 6.84667 515.698 7.06C515.925 7.27333 516.038 7.58667 516.038 8V17.34C516.038 17.9533 516.165 18.4067 516.418 18.7C516.685 18.9933 517.058 19.14 517.538 19.14C517.645 19.14 517.745 19.14 517.838 19.14C517.932 19.1267 518.025 19.1133 518.118 19.1C518.305 19.0733 518.432 19.1267 518.498 19.26C518.565 19.38 518.598 19.6333 518.598 20.02C518.598 20.3533 518.532 20.6133 518.398 20.8C518.265 20.9867 518.045 21.1 517.738 21.14C517.605 21.1533 517.465 21.1667 517.318 21.18C517.172 21.1933 517.025 21.2 516.878 21.2ZM524.647 21.2C523.541 21.2 522.587 20.9933 521.787 20.58C520.987 20.1667 520.367 19.58 519.927 18.82C519.501 18.06 519.287 17.16 519.287 16.12C519.287 15.1067 519.494 14.22 519.907 13.46C520.334 12.7 520.914 12.1067 521.647 11.68C522.394 11.24 523.241 11.02 524.187 11.02C524.881 11.02 525.501 11.1333 526.047 11.36C526.607 11.5867 527.081 11.9133 527.467 12.34C527.867 12.7667 528.167 13.2867 528.367 13.9C528.581 14.5 528.687 15.18 528.687 15.94C528.687 16.18 528.601 16.3667 528.427 16.5C528.267 16.62 528.034 16.68 527.727 16.68H521.307V15.24H526.927L526.607 15.54C526.607 14.9267 526.514 14.4133 526.327 14C526.154 13.5867 525.894 13.2733 525.547 13.06C525.214 12.8333 524.794 12.72 524.287 12.72C523.727 12.72 523.247 12.8533 522.847 13.12C522.461 13.3733 522.161 13.74 521.947 14.22C521.747 14.6867 521.647 15.2467 521.647 15.9V16.04C521.647 17.1333 521.901 17.9533 522.407 18.5C522.927 19.0333 523.687 19.3 524.687 19.3C525.034 19.3 525.421 19.26 525.847 19.18C526.287 19.0867 526.701 18.9333 527.087 18.72C527.367 18.56 527.614 18.4933 527.827 18.52C528.041 18.5333 528.207 18.6067 528.327 18.74C528.461 18.8733 528.541 19.04 528.567 19.24C528.594 19.4267 528.554 19.62 528.447 19.82C528.354 20.02 528.187 20.1933 527.947 20.34C527.481 20.6333 526.941 20.8533 526.327 21C525.727 21.1333 525.167 21.2 524.647 21.2ZM537.337 21.16C536.937 21.16 536.63 21.0533 536.417 20.84C536.204 20.6133 536.097 20.2933 536.097 19.88V12.32C536.097 11.9067 536.204 11.5933 536.417 11.38C536.63 11.1667 536.93 11.06 537.317 11.06C537.704 11.06 538.004 11.1667 538.217 11.38C538.43 11.5933 538.537 11.9067 538.537 12.32V13.68L538.317 13.18C538.61 12.4733 539.064 11.94 539.677 11.58C540.304 11.2067 541.01 11.02 541.797 11.02C542.584 11.02 543.23 11.1667 543.737 11.46C544.244 11.7533 544.624 12.2 544.877 12.8C545.13 13.3867 545.257 14.1333 545.257 15.04V19.88C545.257 20.2933 545.15 20.6133 544.937 20.84C544.724 21.0533 544.417 21.16 544.017 21.16C543.617 21.16 543.304 21.0533 543.077 20.84C542.864 20.6133 542.757 20.2933 542.757 19.88V15.16C542.757 14.4 542.61 13.8467 542.317 13.5C542.037 13.1533 541.597 12.98 540.997 12.98C540.264 12.98 539.677 13.2133 539.237 13.68C538.81 14.1333 538.597 14.74 538.597 15.5V19.88C538.597 20.7333 538.177 21.16 537.337 21.16ZM551.336 21.2C550.523 21.2 549.849 21.0533 549.316 20.76C548.783 20.4533 548.383 20 548.116 19.4C547.863 18.8 547.736 18.0533 547.736 17.16V12.32C547.736 11.8933 547.843 11.58 548.056 11.38C548.269 11.1667 548.576 11.06 548.976 11.06C549.376 11.06 549.683 11.1667 549.896 11.38C550.123 11.58 550.236 11.8933 550.236 12.32V17.2C550.236 17.8933 550.376 18.4067 550.656 18.74C550.936 19.0733 551.383 19.24 551.996 19.24C552.663 19.24 553.209 19.0133 553.636 18.56C554.063 18.0933 554.276 17.48 554.276 16.72V12.32C554.276 11.8933 554.383 11.58 554.596 11.38C554.809 11.1667 555.116 11.06 555.516 11.06C555.916 11.06 556.223 11.1667 556.436 11.38C556.663 11.58 556.776 11.8933 556.776 12.32V19.88C556.776 20.7333 556.369 21.16 555.556 21.16C555.169 21.16 554.869 21.0533 554.656 20.84C554.443 20.6133 554.336 20.2933 554.336 19.88V18.36L554.616 18.96C554.336 19.68 553.909 20.2333 553.336 20.62C552.776 21.0067 552.109 21.2 551.336 21.2ZM560.658 21.16C560.258 21.16 559.951 21.0533 559.738 20.84C559.525 20.6133 559.418 20.2933 559.418 19.88V12.32C559.418 11.9067 559.525 11.5933 559.738 11.38C559.951 11.1667 560.251 11.06 560.638 11.06C561.025 11.06 561.325 11.1667 561.538 11.38C561.751 11.5933 561.858 11.9067 561.858 12.32V13.78L561.638 13.18C561.905 12.5133 562.318 11.9867 562.878 11.6C563.438 11.2133 564.105 11.02 564.878 11.02C565.665 11.02 566.311 11.2067 566.818 11.58C567.325 11.9533 567.678 12.5267 567.878 13.3H567.598C567.865 12.5933 568.305 12.04 568.918 11.64C569.531 11.2267 570.238 11.02 571.038 11.02C571.785 11.02 572.398 11.1667 572.878 11.46C573.371 11.7533 573.738 12.2 573.978 12.8C574.218 13.3867 574.338 14.1333 574.338 15.04V19.88C574.338 20.2933 574.225 20.6133 573.998 20.84C573.785 21.0533 573.478 21.16 573.078 21.16C572.678 21.16 572.371 21.0533 572.158 20.84C571.945 20.6133 571.838 20.2933 571.838 19.88V15.14C571.838 14.3933 571.711 13.8467 571.458 13.5C571.218 13.1533 570.805 12.98 570.218 12.98C569.565 12.98 569.051 13.2133 568.678 13.68C568.305 14.1333 568.118 14.7667 568.118 15.58V19.88C568.118 20.2933 568.011 20.6133 567.798 20.84C567.585 21.0533 567.278 21.16 566.878 21.16C566.478 21.16 566.165 21.0533 565.938 20.84C565.725 20.6133 565.618 20.2933 565.618 19.88V15.14C565.618 14.3933 565.491 13.8467 565.238 13.5C564.998 13.1533 564.591 12.98 564.018 12.98C563.365 12.98 562.851 13.2133 562.478 13.68C562.105 14.1333 561.918 14.7667 561.918 15.58V19.88C561.918 20.7333 561.498 21.16 560.658 21.16ZM582.557 21.2C581.731 21.2 581.004 20.9933 580.377 20.58C579.764 20.1667 579.357 19.6133 579.157 18.92L579.377 18.42V19.88C579.377 20.2933 579.271 20.6133 579.057 20.84C578.844 21.0533 578.544 21.16 578.157 21.16C577.757 21.16 577.451 21.0533 577.237 20.84C577.024 20.6133 576.917 20.2933 576.917 19.88V8C576.917 7.58667 577.024 7.27333 577.237 7.06C577.451 6.84667 577.757 6.74 578.157 6.74C578.557 6.74 578.864 6.84667 579.077 7.06C579.304 7.27333 579.417 7.58667 579.417 8V13.2H579.177C579.391 12.5467 579.804 12.02 580.417 11.62C581.031 11.22 581.744 11.02 582.557 11.02C583.424 11.02 584.177 11.2267 584.817 11.64C585.457 12.0533 585.957 12.64 586.317 13.4C586.677 14.1467 586.857 15.0467 586.857 16.1C586.857 17.14 586.677 18.0467 586.317 18.82C585.957 19.58 585.451 20.1667 584.797 20.58C584.157 20.9933 583.411 21.2 582.557 21.2ZM581.857 19.3C582.351 19.3 582.784 19.18 583.157 18.94C583.531 18.7 583.817 18.3467 584.017 17.88C584.231 17.4 584.337 16.8067 584.337 16.1C584.337 15.0333 584.111 14.24 583.657 13.72C583.204 13.1867 582.604 12.92 581.857 12.92C581.364 12.92 580.931 13.04 580.557 13.28C580.184 13.5067 579.891 13.86 579.677 14.34C579.477 14.8067 579.377 15.3933 579.377 16.1C579.377 17.1533 579.604 17.9533 580.057 18.5C580.511 19.0333 581.111 19.3 581.857 19.3ZM593.729 21.2C592.623 21.2 591.669 20.9933 590.869 20.58C590.069 20.1667 589.449 19.58 589.009 18.82C588.583 18.06 588.369 17.16 588.369 16.12C588.369 15.1067 588.576 14.22 588.989 13.46C589.416 12.7 589.996 12.1067 590.729 11.68C591.476 11.24 592.323 11.02 593.269 11.02C593.963 11.02 594.583 11.1333 595.129 11.36C595.689 11.5867 596.163 11.9133 596.549 12.34C596.949 12.7667 597.249 13.2867 597.449 13.9C597.663 14.5 597.769 15.18 597.769 15.94C597.769 16.18 597.683 16.3667 597.509 16.5C597.349 16.62 597.116 16.68 596.809 16.68H590.389V15.24H596.009L595.689 15.54C595.689 14.9267 595.596 14.4133 595.409 14C595.236 13.5867 594.976 13.2733 594.629 13.06C594.296 12.8333 593.876 12.72 593.369 12.72C592.809 12.72 592.329 12.8533 591.929 13.12C591.543 13.3733 591.243 13.74 591.029 14.22C590.829 14.6867 590.729 15.2467 590.729 15.9V16.04C590.729 17.1333 590.983 17.9533 591.489 18.5C592.009 19.0333 592.769 19.3 593.769 19.3C594.116 19.3 594.503 19.26 594.929 19.18C595.369 19.0867 595.783 18.9333 596.169 18.72C596.449 18.56 596.696 18.4933 596.909 18.52C597.123 18.5333 597.289 18.6067 597.409 18.74C597.543 18.8733 597.623 19.04 597.649 19.24C597.676 19.4267 597.636 19.62 597.529 19.82C597.436 20.02 597.269 20.1933 597.029 20.34C596.563 20.6333 596.023 20.8533 595.409 21C594.809 21.1333 594.249 21.2 593.729 21.2ZM601.029 21.16C600.616 21.16 600.296 21.0533 600.069 20.84C599.856 20.6133 599.749 20.2933 599.749 19.88V12.32C599.749 11.9067 599.856 11.5933 600.069 11.38C600.283 11.1667 600.583 11.06 600.969 11.06C601.356 11.06 601.656 11.1667 601.869 11.38C602.083 11.5933 602.189 11.9067 602.189 12.32V13.58H601.989C602.176 12.78 602.543 12.1733 603.089 11.76C603.636 11.3467 604.363 11.1 605.269 11.02C605.549 10.9933 605.769 11.0667 605.929 11.24C606.103 11.4 606.203 11.6533 606.229 12C606.256 12.3333 606.176 12.6067 605.989 12.82C605.816 13.02 605.549 13.14 605.189 13.18L604.749 13.22C603.936 13.3 603.323 13.5533 602.909 13.98C602.496 14.3933 602.289 14.98 602.289 15.74V19.88C602.289 20.2933 602.183 20.6133 601.969 20.84C601.756 21.0533 601.443 21.16 601.029 21.16ZM608.332 21.1C607.879 21.1 607.512 20.96 607.232 20.68C606.965 20.4 606.832 20.04 606.832 19.6C606.832 19.1733 606.965 18.8267 607.232 18.56C607.512 18.28 607.879 18.14 608.332 18.14C608.799 18.14 609.159 18.28 609.412 18.56C609.679 18.8267 609.812 19.1733 609.812 19.6C609.812 20.04 609.679 20.4 609.412 20.68C609.159 20.96 608.799 21.1 608.332 21.1Z" fill="#444444"/>
</svg>

