<svg width="626" height="176" viewBox="0 0 626 176" fill="none" xmlns="http://www.w3.org/2000/svg">
<rect x="0.25" y="8.25" width="625.5" height="167.5" rx="7.75" fill="white"/>
<rect x="0.25" y="8.25" width="625.5" height="167.5" rx="7.75" stroke="#1A1A1A" stroke-width="0.5"/>
<rect width="1" height="12" transform="matrix(-4.37114e-08 1 1 4.37114e-08 593 8)" fill="white"/>
<path d="M604.747 8.16515C605.037 8.4868 604.809 9 604.376 9L593.571 9C593.147 9 592.915 8.50428 593.188 8.17887L598.333 2.03846L598.392 1.96718C598.592 1.72489 598.963 1.72489 599.163 1.96718L599.222 2.03846L604.747 8.16515Z" fill="white"/>
<path d="M605 8L599.463 1.86702C599.052 1.41147 598.331 1.43044 597.944 1.907L593 8" stroke="#1A1A1A" stroke-width="0.5" stroke-linecap="square"/>
</svg>
