<svg width="123" height="43" viewBox="0 0 123 43" fill="none" xmlns="http://www.w3.org/2000/svg">
<path d="M23.9105 27.0214C24.0749 27.1873 24.167 27.4114 24.167 27.6449C24.167 27.8784 24.0749 28.1024 23.9105 28.2683L21.2855 30.8933C21.1183 31.055 20.8948 31.1454 20.6621 31.1454C20.4295 31.1454 20.2059 31.055 20.0387 30.8933C19.8744 30.7274 19.7822 30.5034 19.7822 30.2699C19.7822 30.0364 19.8744 29.8123 20.0387 29.6464L21.1762 28.5199H19.8855C18.6317 28.5177 17.3964 28.2169 16.2819 27.6425C15.1673 27.0681 14.2056 26.2366 13.4762 25.2167L8.91523 18.8402C8.34926 18.0475 7.60272 17.401 6.73735 16.954C5.87198 16.5071 4.91264 16.2726 3.93867 16.2699H1.41211C1.18004 16.2699 0.957485 16.1777 0.793391 16.0136C0.629297 15.8495 0.537109 15.6269 0.537109 15.3949C0.537109 15.1628 0.629297 14.9402 0.793391 14.7761C0.957485 14.6121 1.18004 14.5199 1.41211 14.5199H3.93867C5.19252 14.5221 6.42782 14.8228 7.54237 15.3972C8.65691 15.9716 9.61866 16.8031 10.348 17.823L14.909 24.1996C15.475 24.9922 16.2215 25.6387 17.0869 26.0857C17.9522 26.5326 18.9116 26.7672 19.8855 26.7699H21.1762L20.0387 25.6433C19.8991 25.4733 19.8278 25.2575 19.8386 25.0378C19.8494 24.8181 19.9415 24.6103 20.097 24.4548C20.2526 24.2993 20.4604 24.2072 20.68 24.1964C20.8997 24.1856 21.1155 24.2569 21.2855 24.3964L23.9105 27.0214ZM13.5527 19.223C13.6466 19.2902 13.7529 19.3382 13.8655 19.3642C13.9781 19.3902 14.0946 19.3936 14.2085 19.3743C14.3224 19.3549 14.4313 19.3133 14.529 19.2516C14.6267 19.19 14.7113 19.1096 14.7777 19.0152L14.909 18.8402C15.475 18.0475 16.2215 17.401 17.0869 16.954C17.9522 16.5071 18.9116 16.2726 19.8855 16.2699H21.1762L20.0387 17.3964C19.8744 17.5623 19.7822 17.7864 19.7822 18.0199C19.7822 18.2534 19.8744 18.4774 20.0387 18.6433C20.2059 18.805 20.4295 18.8954 20.6621 18.8954C20.8948 18.8954 21.1183 18.805 21.2855 18.6433L23.9105 16.0183C24.0749 15.8524 24.167 15.6284 24.167 15.3949C24.167 15.1614 24.0749 14.9373 23.9105 14.7714L21.2855 12.1464C21.1155 12.0069 20.8997 11.9356 20.68 11.9464C20.4604 11.9572 20.2526 12.0493 20.097 12.2048C19.9415 12.3603 19.8494 12.5681 19.8386 12.7878C19.8278 13.0075 19.8991 13.2233 20.0387 13.3933L21.1762 14.5199H19.8855C18.6317 14.5221 17.3964 14.8228 16.2819 15.3972C15.1673 15.9716 14.2056 16.8031 13.4762 17.823L13.3559 17.998C13.2881 18.0912 13.2393 18.197 13.2125 18.3091C13.1857 18.4212 13.1813 18.5376 13.1996 18.6514C13.2179 18.7653 13.2585 18.8744 13.3191 18.9724C13.3797 19.0705 13.4591 19.1557 13.5527 19.223ZM10.2715 23.8167C10.1776 23.7495 10.0713 23.7015 9.95872 23.6755C9.84616 23.6496 9.72958 23.6461 9.6157 23.6655C9.50181 23.6848 9.39288 23.7265 9.29519 23.7881C9.19749 23.8497 9.11297 23.9301 9.04649 24.0246L8.91523 24.1996C8.34926 24.9922 7.60272 25.6387 6.73735 26.0857C5.87198 26.5326 4.91264 26.7672 3.93867 26.7699H1.41211C1.18004 26.7699 0.957485 26.8621 0.793391 27.0261C0.629297 27.1902 0.537109 27.4128 0.537109 27.6449C0.537109 27.8769 0.629297 28.0995 0.793391 28.2636C0.957485 28.4277 1.18004 28.5199 1.41211 28.5199H3.93867C5.19252 28.5177 6.42782 28.2169 7.54237 27.6425C8.65691 27.0681 9.61866 26.2366 10.348 25.2167L10.4684 25.0417C10.5362 24.9485 10.5849 24.8428 10.6117 24.7306C10.6385 24.6185 10.6429 24.5021 10.6246 24.3883C10.6063 24.2745 10.5657 24.1654 10.5051 24.0673C10.4445 23.9692 10.3651 23.884 10.2715 23.8167Z" fill="white"/>
<path d="M40.7489 29.6395C40.2689 29.6395 39.8849 29.5035 39.5969 29.2315C39.3249 28.9435 39.1889 28.5675 39.1889 28.1035V15.1435H34.8209C33.8609 15.1435 33.3809 14.7195 33.3809 13.8715C33.3809 13.0235 33.8609 12.5995 34.8209 12.5995H46.6529C47.6129 12.5995 48.0929 13.0235 48.0929 13.8715C48.0929 14.7195 47.6129 15.1435 46.6529 15.1435H42.2849V28.1035C42.2849 28.5675 42.1409 28.9435 41.8529 29.2315C41.5809 29.5035 41.2129 29.6395 40.7489 29.6395ZM54.3366 17.5435C54.7526 17.5115 55.0806 17.5995 55.3206 17.8075C55.5606 18.0155 55.6806 18.3275 55.6806 18.7435C55.6806 19.1755 55.5766 19.4955 55.3686 19.7035C55.1606 19.9115 54.7846 20.0475 54.2406 20.1115L53.5206 20.1835C52.5766 20.2795 51.8806 20.5995 51.4326 21.1435C51.0006 21.6875 50.7846 22.3675 50.7846 23.1835V28.2235C50.7846 28.6875 50.6406 29.0475 50.3526 29.3035C50.0646 29.5435 49.7046 29.6635 49.2726 29.6635C48.8406 29.6635 48.4806 29.5435 48.1926 29.3035C47.9206 29.0475 47.7846 28.6875 47.7846 28.2235V18.9355C47.7846 18.4875 47.9206 18.1435 48.1926 17.9035C48.4806 17.6635 48.8326 17.5435 49.2486 17.5435C49.6646 17.5435 50.0006 17.6635 50.2566 17.9035C50.5126 18.1275 50.6406 18.4555 50.6406 18.8875V19.8475C50.9446 19.1435 51.3926 18.5995 51.9846 18.2155C52.5926 17.8315 53.2646 17.6155 54.0006 17.5675L54.3366 17.5435ZM65.8827 18.4075C66.0107 18.1195 66.1787 17.9115 66.3867 17.7835C66.6107 17.6395 66.8507 17.5675 67.1067 17.5675C67.4747 17.5675 67.8027 17.6955 68.0907 17.9515C68.3947 18.1915 68.5467 18.4955 68.5467 18.8635C68.5467 19.0395 68.4987 19.2235 68.4027 19.4155L61.8507 33.1435C61.5787 33.6875 61.1547 33.9595 60.5787 33.9595C60.2107 33.9595 59.8827 33.8395 59.5947 33.5995C59.3227 33.3755 59.1867 33.0875 59.1867 32.7355C59.1867 32.5595 59.2347 32.3595 59.3307 32.1355L60.9627 28.7035L56.4987 19.4155C56.4187 19.2555 56.3787 19.0715 56.3787 18.8635C56.3787 18.4955 56.5307 18.1835 56.8347 17.9275C57.1547 17.6715 57.5147 17.5435 57.9147 17.5435C58.1867 17.5435 58.4347 17.6155 58.6587 17.7595C58.8827 17.8875 59.0587 18.0955 59.1867 18.3835L62.5467 25.7995L65.8827 18.4075ZM83.6631 17.4955C85.0711 17.4955 86.1191 17.8955 86.8071 18.6955C87.4951 19.4955 87.8391 20.7035 87.8391 22.3195V28.2235C87.8391 28.6715 87.7031 29.0235 87.4311 29.2795C87.1751 29.5355 86.8151 29.6635 86.3511 29.6635C85.8871 29.6635 85.5191 29.5355 85.2471 29.2795C84.9751 29.0235 84.8391 28.6715 84.8391 28.2235V22.4875C84.8391 21.5755 84.6631 20.9115 84.3111 20.4955C83.9751 20.0795 83.4391 19.8715 82.7031 19.8715C81.8391 19.8715 81.1431 20.1435 80.6151 20.6875C80.1031 21.2315 79.8471 21.9595 79.8471 22.8715V28.2235C79.8471 28.6715 79.7111 29.0235 79.4391 29.2795C79.1671 29.5355 78.7991 29.6635 78.3351 29.6635C77.8711 29.6635 77.5031 29.5355 77.2311 29.2795C76.9751 29.0235 76.8471 28.6715 76.8471 28.2235V18.9355C76.8471 18.5195 76.9831 18.1835 77.2551 17.9275C77.5271 17.6715 77.8951 17.5435 78.3591 17.5435C78.7751 17.5435 79.1111 17.6715 79.3671 17.9275C79.6391 18.1675 79.7751 18.4875 79.7751 18.8875V19.5355C80.1751 18.8795 80.7111 18.3755 81.3831 18.0235C82.0551 17.6715 82.8151 17.4955 83.6631 17.4955ZM100.174 26.3035C100.446 26.3035 100.662 26.4075 100.822 26.6155C100.998 26.8235 101.086 27.1035 101.086 27.4555C101.086 27.9515 100.79 28.3675 100.198 28.7035C99.6542 29.0075 99.0382 29.2555 98.3502 29.4475C97.6622 29.6235 97.0062 29.7115 96.3822 29.7115C94.4942 29.7115 92.9982 29.1675 91.8942 28.0795C90.7902 26.9915 90.2382 25.5035 90.2382 23.6155C90.2382 22.4155 90.4782 21.3515 90.9582 20.4235C91.4382 19.4955 92.1102 18.7755 92.9742 18.2635C93.8542 17.7515 94.8462 17.4955 95.9502 17.4955C97.0062 17.4955 97.9262 17.7275 98.7102 18.1915C99.4942 18.6555 100.102 19.3115 100.534 20.1595C100.966 21.0075 101.182 22.0075 101.182 23.1595C101.182 23.8475 100.878 24.1915 100.27 24.1915H93.1902C93.2862 25.2955 93.5982 26.1115 94.1262 26.6395C94.6542 27.1515 95.4222 27.4075 96.4302 27.4075C96.9422 27.4075 97.3902 27.3435 97.7742 27.2155C98.1742 27.0875 98.6222 26.9115 99.1182 26.6875C99.5982 26.4315 99.9502 26.3035 100.174 26.3035ZM96.0222 19.6075C95.2062 19.6075 94.5502 19.8635 94.0542 20.3755C93.5742 20.8875 93.2862 21.6235 93.1902 22.5835H98.6142C98.5822 21.6075 98.3422 20.8715 97.8942 20.3755C97.4462 19.8635 96.8222 19.6075 96.0222 19.6075ZM119.313 18.4315C119.425 18.1435 119.585 17.9275 119.793 17.7835C120.017 17.6395 120.257 17.5675 120.513 17.5675C120.881 17.5675 121.209 17.6955 121.497 17.9515C121.801 18.1915 121.953 18.4955 121.953 18.8635C121.953 19.0715 121.913 19.2555 121.833 19.4155L117.873 28.7035C117.745 29.0075 117.545 29.2395 117.273 29.3995C117.017 29.5595 116.729 29.6395 116.409 29.6395C116.105 29.6395 115.817 29.5595 115.545 29.3995C115.289 29.2395 115.097 29.0075 114.969 28.7035L112.113 21.8395L109.353 28.7035C109.225 29.0075 109.025 29.2395 108.753 29.3995C108.497 29.5595 108.209 29.6395 107.889 29.6395C107.585 29.6395 107.297 29.5595 107.025 29.3995C106.753 29.2395 106.553 29.0075 106.425 28.7035L102.489 19.4155C102.409 19.2075 102.369 19.0315 102.369 18.8875C102.369 18.5195 102.529 18.2075 102.849 17.9515C103.169 17.6795 103.521 17.5435 103.905 17.5435C104.177 17.5435 104.425 17.6155 104.649 17.7595C104.873 17.9035 105.041 18.1195 105.153 18.4075L107.985 25.7275L110.889 18.4795C111.017 18.1755 111.201 17.9515 111.441 17.8075C111.681 17.6475 111.945 17.5675 112.233 17.5675C112.521 17.5675 112.785 17.6475 113.025 17.8075C113.265 17.9515 113.449 18.1755 113.577 18.4795L116.505 25.7515L119.313 18.4315Z" fill="white"/>
</svg>
