<svg width="140" height="32" viewBox="0 0 140 32" fill="none" xmlns="http://www.w3.org/2000/svg">
<path d="M43.8663 24.192C43.3703 24.192 42.9863 24.056 42.7143 23.784C42.4583 23.496 42.3303 23.104 42.3303 22.608V9.648H37.6503C37.2343 9.648 36.9063 9.536 36.6663 9.312C36.4423 9.072 36.3303 8.752 36.3303 8.352C36.3303 7.936 36.4423 7.624 36.6663 7.416C36.9063 7.192 37.2343 7.08 37.6503 7.08H50.0823C50.4983 7.08 50.8183 7.192 51.0423 7.416C51.2823 7.624 51.4023 7.936 51.4023 8.352C51.4023 8.752 51.2823 9.072 51.0423 9.312C50.8183 9.536 50.4983 9.648 50.0823 9.648H45.4023V22.608C45.4023 23.104 45.2743 23.496 45.0183 23.784C44.7623 24.056 44.3783 24.192 43.8663 24.192ZM52.5296 24.192C52.0336 24.192 51.6496 24.064 51.3776 23.808C51.1216 23.536 50.9936 23.152 50.9936 22.656V13.584C50.9936 13.088 51.1216 12.712 51.3776 12.456C51.6336 12.2 51.9936 12.072 52.4576 12.072C52.9216 12.072 53.2816 12.2 53.5376 12.456C53.7936 12.712 53.9216 13.088 53.9216 13.584V15.096H53.6816C53.9056 14.136 54.3456 13.408 55.0016 12.912C55.6576 12.416 56.5296 12.12 57.6176 12.024C57.9536 11.992 58.2176 12.08 58.4096 12.288C58.6176 12.48 58.7376 12.784 58.7696 13.2C58.8016 13.6 58.7056 13.928 58.4816 14.184C58.2736 14.424 57.9536 14.568 57.5216 14.616L56.9936 14.664C56.0176 14.76 55.2816 15.064 54.7856 15.576C54.2896 16.072 54.0416 16.776 54.0416 17.688V22.656C54.0416 23.152 53.9136 23.536 53.6576 23.808C53.4016 24.064 53.0256 24.192 52.5296 24.192ZM64.0946 28.512C63.7426 28.512 63.4546 28.416 63.2306 28.224C63.0066 28.048 62.8706 27.808 62.8226 27.504C62.7906 27.2 62.8466 26.88 62.9906 26.544L64.6226 22.92V24.168L60.2546 14.064C60.1106 13.712 60.0626 13.384 60.1106 13.08C60.1586 12.776 60.3026 12.536 60.5426 12.36C60.7986 12.168 61.1426 12.072 61.5746 12.072C61.9426 12.072 62.2386 12.16 62.4626 12.336C62.6866 12.496 62.8866 12.808 63.0626 13.272L66.3026 21.36H65.5826L68.8946 13.248C69.0706 12.8 69.2786 12.496 69.5186 12.336C69.7586 12.16 70.0786 12.072 70.4786 12.072C70.8306 12.072 71.1106 12.168 71.3186 12.36C71.5266 12.536 71.6546 12.776 71.7026 13.08C71.7506 13.368 71.6946 13.688 71.5346 14.04L65.7026 27.36C65.4946 27.808 65.2706 28.112 65.0306 28.272C64.7906 28.432 64.4786 28.512 64.0946 28.512ZM84.131 24.24C83.283 24.24 82.523 24.08 81.851 23.76C81.195 23.424 80.675 22.976 80.291 22.416C79.923 21.856 79.739 21.224 79.739 20.52C79.739 19.656 79.963 18.976 80.411 18.48C80.859 17.968 81.587 17.6 82.595 17.376C83.603 17.152 84.955 17.04 86.651 17.04H87.851V18.768H86.675C85.683 18.768 84.891 18.816 84.299 18.912C83.707 19.008 83.283 19.176 83.027 19.416C82.787 19.64 82.667 19.96 82.667 20.376C82.667 20.904 82.851 21.336 83.219 21.672C83.587 22.008 84.099 22.176 84.755 22.176C85.283 22.176 85.747 22.056 86.147 21.816C86.563 21.56 86.891 21.216 87.131 20.784C87.371 20.352 87.491 19.856 87.491 19.296V16.536C87.491 15.736 87.315 15.16 86.963 14.808C86.611 14.456 86.019 14.28 85.187 14.28C84.723 14.28 84.219 14.336 83.675 14.448C83.147 14.56 82.587 14.752 81.995 15.024C81.691 15.168 81.419 15.208 81.179 15.144C80.955 15.08 80.779 14.952 80.651 14.76C80.523 14.552 80.459 14.328 80.459 14.088C80.459 13.848 80.523 13.616 80.651 13.392C80.779 13.152 80.995 12.976 81.299 12.864C82.035 12.56 82.739 12.344 83.411 12.216C84.099 12.088 84.723 12.024 85.283 12.024C86.435 12.024 87.379 12.2 88.115 12.552C88.867 12.904 89.427 13.44 89.795 14.16C90.163 14.864 90.347 15.776 90.347 16.896V22.656C90.347 23.152 90.227 23.536 89.987 23.808C89.747 24.064 89.403 24.192 88.955 24.192C88.507 24.192 88.155 24.064 87.899 23.808C87.659 23.536 87.539 23.152 87.539 22.656V21.504H87.731C87.619 22.064 87.395 22.552 87.059 22.968C86.739 23.368 86.331 23.68 85.835 23.904C85.339 24.128 84.771 24.24 84.131 24.24ZM98.864 28.56C98 28.56 97.16 28.48 96.344 28.32C95.544 28.16 94.816 27.912 94.16 27.576C93.856 27.416 93.648 27.224 93.536 27C93.44 26.776 93.408 26.544 93.44 26.304C93.488 26.08 93.584 25.88 93.728 25.704C93.888 25.528 94.08 25.408 94.304 25.344C94.528 25.28 94.76 25.312 95 25.44C95.704 25.792 96.368 26.016 96.992 26.112C97.632 26.224 98.176 26.28 98.624 26.28C99.696 26.28 100.496 26.016 101.024 25.488C101.568 24.976 101.84 24.208 101.84 23.184V21.024H102.056C101.816 21.84 101.312 22.496 100.544 22.992C99.792 23.472 98.936 23.712 97.976 23.712C96.92 23.712 96 23.472 95.216 22.992C94.432 22.496 93.824 21.808 93.392 20.928C92.96 20.048 92.744 19.024 92.744 17.856C92.744 16.976 92.864 16.184 93.104 15.48C93.36 14.76 93.712 14.144 94.16 13.632C94.624 13.12 95.176 12.728 95.816 12.456C96.472 12.168 97.192 12.024 97.976 12.024C98.968 12.024 99.832 12.272 100.568 12.768C101.32 13.248 101.808 13.888 102.032 14.688L101.792 15.288V13.584C101.792 13.088 101.92 12.712 102.176 12.456C102.448 12.2 102.816 12.072 103.28 12.072C103.76 12.072 104.128 12.2 104.384 12.456C104.64 12.712 104.768 13.088 104.768 13.584V22.824C104.768 24.728 104.264 26.16 103.256 27.12C102.248 28.08 100.784 28.56 98.864 28.56ZM98.792 21.432C99.416 21.432 99.952 21.288 100.4 21C100.848 20.712 101.192 20.304 101.432 19.776C101.688 19.232 101.816 18.592 101.816 17.856C101.816 16.752 101.544 15.888 101 15.264C100.456 14.624 99.72 14.304 98.792 14.304C98.168 14.304 97.632 14.448 97.184 14.736C96.736 15.024 96.384 15.432 96.128 15.96C95.888 16.488 95.768 17.12 95.768 17.856C95.768 18.96 96.04 19.832 96.584 20.472C97.128 21.112 97.864 21.432 98.792 21.432ZM111.74 24.24C110.892 24.24 110.132 24.08 109.46 23.76C108.804 23.424 108.284 22.976 107.9 22.416C107.532 21.856 107.348 21.224 107.348 20.52C107.348 19.656 107.572 18.976 108.02 18.48C108.468 17.968 109.196 17.6 110.204 17.376C111.212 17.152 112.564 17.04 114.26 17.04H115.46V18.768H114.284C113.292 18.768 112.5 18.816 111.908 18.912C111.316 19.008 110.892 19.176 110.636 19.416C110.396 19.64 110.276 19.96 110.276 20.376C110.276 20.904 110.46 21.336 110.828 21.672C111.196 22.008 111.708 22.176 112.364 22.176C112.892 22.176 113.356 22.056 113.756 21.816C114.172 21.56 114.5 21.216 114.74 20.784C114.98 20.352 115.1 19.856 115.1 19.296V16.536C115.1 15.736 114.924 15.16 114.572 14.808C114.22 14.456 113.628 14.28 112.796 14.28C112.332 14.28 111.828 14.336 111.284 14.448C110.756 14.56 110.196 14.752 109.604 15.024C109.3 15.168 109.028 15.208 108.788 15.144C108.564 15.08 108.388 14.952 108.26 14.76C108.132 14.552 108.068 14.328 108.068 14.088C108.068 13.848 108.132 13.616 108.26 13.392C108.388 13.152 108.604 12.976 108.908 12.864C109.644 12.56 110.348 12.344 111.02 12.216C111.708 12.088 112.332 12.024 112.892 12.024C114.044 12.024 114.988 12.2 115.724 12.552C116.476 12.904 117.036 13.44 117.404 14.16C117.772 14.864 117.956 15.776 117.956 16.896V22.656C117.956 23.152 117.836 23.536 117.596 23.808C117.356 24.064 117.012 24.192 116.564 24.192C116.116 24.192 115.764 24.064 115.508 23.808C115.268 23.536 115.148 23.152 115.148 22.656V21.504H115.34C115.228 22.064 115.004 22.552 114.668 22.968C114.348 23.368 113.94 23.68 113.444 23.904C112.948 24.128 112.38 24.24 111.74 24.24ZM122.489 24.168C122.009 24.168 121.641 24.024 121.385 23.736C121.129 23.448 121.001 23.048 121.001 22.536V13.728C121.001 13.2 121.129 12.8 121.385 12.528C121.641 12.24 122.009 12.096 122.489 12.096C122.969 12.096 123.337 12.24 123.593 12.528C123.865 12.8 124.001 13.2 124.001 13.728V22.536C124.001 23.048 123.873 23.448 123.617 23.736C123.361 24.024 122.985 24.168 122.489 24.168ZM122.489 9.864C121.929 9.864 121.489 9.728 121.169 9.456C120.865 9.168 120.713 8.776 120.713 8.28C120.713 7.768 120.865 7.376 121.169 7.104C121.489 6.832 121.929 6.696 122.489 6.696C123.065 6.696 123.505 6.832 123.809 7.104C124.113 7.376 124.265 7.768 124.265 8.28C124.265 8.776 124.113 9.168 123.809 9.456C123.505 9.728 123.065 9.864 122.489 9.864ZM128.607 24.192C128.127 24.192 127.759 24.064 127.503 23.808C127.247 23.536 127.119 23.152 127.119 22.656V13.584C127.119 13.088 127.247 12.712 127.503 12.456C127.759 12.2 128.119 12.072 128.583 12.072C129.047 12.072 129.407 12.2 129.663 12.456C129.919 12.712 130.047 13.088 130.047 13.584V15.216L129.783 14.616C130.135 13.768 130.679 13.128 131.415 12.696C132.167 12.248 133.015 12.024 133.959 12.024C134.903 12.024 135.679 12.2 136.287 12.552C136.895 12.904 137.351 13.44 137.655 14.16C137.959 14.864 138.111 15.76 138.111 16.848V22.656C138.111 23.152 137.983 23.536 137.727 23.808C137.471 24.064 137.103 24.192 136.623 24.192C136.143 24.192 135.767 24.064 135.495 23.808C135.239 23.536 135.111 23.152 135.111 22.656V16.992C135.111 16.08 134.935 15.416 134.583 15C134.247 14.584 133.719 14.376 132.999 14.376C132.119 14.376 131.415 14.656 130.887 15.216C130.375 15.76 130.119 16.488 130.119 17.4V22.656C130.119 23.68 129.615 24.192 128.607 24.192Z" fill="white"/>
<path d="M21.4219 7V12H16.4219" stroke="white" stroke-width="2" stroke-linecap="round" stroke-linejoin="round"/>
<path d="M21.3719 16.9996C21.1504 19.0054 20.2612 20.8786 18.8471 22.3183C17.433 23.758 15.5761 24.6807 13.5746 24.9382C11.5731 25.1956 9.54309 24.773 7.81067 23.7381C6.07824 22.7031 4.7439 21.116 4.02193 19.2316C3.29997 17.3471 3.23228 15.2747 3.82974 13.3472C4.42719 11.4196 5.65512 9.74881 7.31632 8.60304C8.97752 7.45728 10.9756 6.90305 12.9896 7.02938C15.0037 7.1557 16.9169 7.95525 18.4219 9.29961L21.4219 11.9996" stroke="white" stroke-width="2" stroke-linecap="round" stroke-linejoin="round"/>
</svg>
