<svg width="43" height="15" viewBox="0 0 43 15" fill="none" xmlns="http://www.w3.org/2000/svg">
<path d="M6.696 0.815999H6.728C6.952 0.815999 7.368 1.136 7.816 2.384C8.232 3.408 8.52 4.4 8.904 5.488C9.032 5.936 9.16 6.032 9.416 5.616C10.056 4.624 11.112 3.056 12.072 2.32C12.264 2.128 12.232 2.032 12.232 1.808C12.232 1.68 12.296 1.552 12.552 1.36C12.872 1.104 13.576 0.624 13.896 0.527999C14.152 0.464 14.152 0.527999 14.12 1.04C14.024 2.32 14.568 3.056 15.464 3.28C15.72 3.344 15.752 3.472 15.432 3.664C14.728 4.048 13.704 3.824 13.096 3.28C12.84 3.024 12.552 3.12 12.072 3.6C11.24 4.336 10.216 5.968 9.768 6.736C9.544 7.184 9.448 7.408 9.608 7.92C10.44 10.448 11.176 12.528 12.168 12.528C13.16 12.528 13.992 11.024 14.728 9.488C14.92 9.136 14.984 9.136 15.08 9.456C15.176 9.872 15.08 10.48 14.76 11.088C14.088 12.464 12.296 14.544 10.792 14.544C9.576 14.544 8.616 11.12 8.136 9.776C8.008 9.392 7.816 9.36 7.624 9.68C7.016 10.608 5.832 12.432 4.68 13.552C3.816 14.352 2.984 14.704 2.344 14.704C1.544 14.704 1 14.288 0.968 13.264C0.968 12.848 1.256 12.144 1.576 11.728C1.768 11.408 1.96 11.312 2.024 11.728C2.12 12.368 2.44 12.88 3.176 12.88C4.552 12.88 6.472 10 7.304 8.304C7.432 8.016 7.464 7.76 7.336 7.344C6.92 5.776 6.056 2.992 5.384 2.992C4.712 2.992 3.624 4.4 2.856 5.648C2.632 6 2.568 5.936 2.536 5.68C2.472 5.168 2.664 4.688 2.856 4.368C3.304 3.664 4.456 2.288 5.256 1.616C5.864 1.136 6.376 0.815999 6.696 0.815999ZM36.0438 13.208C35.7878 13.208 35.5958 13.136 35.4678 12.992C35.3398 12.848 35.2758 12.656 35.2758 12.416V7.856H30.7878C30.5477 7.856 30.3558 7.792 30.2118 7.664C30.0838 7.536 30.0198 7.352 30.0198 7.112C30.0198 6.872 30.0838 6.688 30.2118 6.56C30.3558 6.432 30.5477 6.368 30.7878 6.368H35.2758V1.952C35.2758 1.696 35.3398 1.504 35.4678 1.376C35.5958 1.232 35.7878 1.16 36.0438 1.16C36.2998 1.16 36.4918 1.232 36.6198 1.376C36.7478 1.504 36.8118 1.696 36.8118 1.952V6.368H41.2998C41.5398 6.368 41.7238 6.432 41.8518 6.56C41.9958 6.688 42.0677 6.872 42.0677 7.112C42.0677 7.352 41.9958 7.536 41.8518 7.664C41.7238 7.792 41.5398 7.856 41.2998 7.856H36.8118V12.416C36.8118 12.656 36.7478 12.848 36.6198 12.992C36.4918 13.136 36.2998 13.208 36.0438 13.208Z" fill="#212121"/>
</svg>
