<svg width="32" height="21" viewBox="0 0 32 21" fill="none" xmlns="http://www.w3.org/2000/svg">
<path d="M4.91225 0.783999H4.94425C5.61625 0.783999 6.19225 1.616 6.76825 4.304C7.28025 6.448 7.66425 10.352 7.79225 11.792C7.82425 12.176 8.04825 12.176 8.20825 11.92C9.10425 10.48 11.2803 5.648 11.3123 3.184C11.3123 2.928 11.0563 2.576 10.4483 2.48C10.2243 2.416 10.3843 2.192 10.5763 2C11.1843 1.36 12.3043 0.751999 12.7523 0.688C12.9443 0.624 13.1363 0.815999 13.1363 1.232C13.1043 4.336 10.0963 10.544 8.40025 13.552C8.04825 14.16 7.88825 14.384 7.82425 14.832C7.79225 15.12 7.60025 15.344 7.21625 15.536C7.12025 15.6 6.99225 15.728 6.86425 15.92C4.17625 20.24 1.10425 22.832 -0.55975 22.832C-1.10375 22.832 -1.32775 22.64 -1.10375 22.096C-0.91175 21.712 -0.27175 20.496 -0.0157501 20.144C0.11225 19.888 0.24025 19.856 0.40025 20.048C0.72025 20.336 1.20025 20.304 1.58425 20.112C2.83225 19.632 4.59225 17.904 5.93625 15.6C6.09625 15.312 6.09625 14.96 6.09625 14.48C6.12825 11.664 5.39225 7.12 4.56025 4.784C4.20825 3.76 4.01625 3.12 3.56825 3.12C3.05625 3.12 2.03225 4.464 1.42425 5.648C1.26425 6.032 1.16825 5.904 1.13625 5.584C1.13625 5.264 1.23225 4.592 1.48825 4.144C2.12825 3.12 4.04825 0.783999 4.91225 0.783999ZM20.5534 5.456C20.3134 5.456 20.1214 5.392 19.9774 5.264C19.8494 5.136 19.7854 4.952 19.7854 4.712C19.7854 4.472 19.8494 4.288 19.9774 4.16C20.1214 4.032 20.3134 3.968 20.5534 3.968H31.0654C31.3054 3.968 31.4894 4.032 31.6174 4.16C31.7614 4.288 31.8334 4.472 31.8334 4.712C31.8334 4.952 31.7614 5.136 31.6174 5.264C31.4894 5.392 31.3054 5.456 31.0654 5.456H20.5534ZM20.5534 10.232C20.3134 10.232 20.1214 10.168 19.9774 10.04C19.8494 9.912 19.7854 9.728 19.7854 9.488C19.7854 9.248 19.8494 9.072 19.9774 8.96C20.1214 8.832 20.3134 8.768 20.5534 8.768H31.0654C31.3054 8.768 31.4894 8.832 31.6174 8.96C31.7614 9.072 31.8334 9.248 31.8334 9.488C31.8334 9.744 31.7614 9.936 31.6174 10.064C31.4894 10.176 31.3054 10.232 31.0654 10.232H20.5534Z" fill="#212121"/>
</svg>
