<svg width="44" height="31" viewBox="0 0 44 31" fill="none" xmlns="http://www.w3.org/2000/svg">
<rect width="44" height="31" rx="5" fill="#ECECEC"/>
<path d="M13.0663 12.72H13.0863C13.4463 12.72 13.6463 13.42 13.5063 14.52C13.3463 15.64 12.8863 18.06 12.6663 19.3C12.6263 19.52 12.7063 19.6 12.8663 19.48C13.1463 19.32 13.7463 18.82 14.2063 18.28C14.3663 18.06 14.3863 18.14 14.3663 18.32C14.3463 18.52 14.1263 19.02 13.9463 19.22C13.3463 19.86 12.4063 20.62 11.6863 21.08C11.3063 21.34 11.0063 21.48 10.8063 21.48C10.6663 21.48 10.6463 21.38 10.8063 21.16C10.9463 20.96 11.0863 20.6 11.2463 20.06C11.5063 19.14 11.8863 16.84 12.0263 15.78C12.1863 14.54 12.1063 14.02 11.7063 14.02C11.0063 14.02 9.72633 15.28 8.82633 16.7C8.30633 17.46 7.90633 18.56 7.54633 19.92C7.44633 20.28 7.28633 20.56 7.10633 20.76C6.66633 21.2 6.22633 21.34 6.00633 21.38C5.84633 21.4 5.80633 21.34 5.96633 21.12C6.12633 20.9 6.22633 20.58 6.46633 19.44C6.94633 17.18 7.84633 10.92 8.00633 9.08C8.02633 8.68 7.94633 8.58 7.68633 8.62C7.26633 8.68 6.66633 8.78 6.32633 8.8C6.10633 8.8 6.06633 8.76 6.16633 8.66C6.50633 8.36 6.66633 8.26 6.78633 8.24C7.76633 8.02 8.52633 7.8 9.10633 7.38C9.32633 7.22 9.40633 7.18 9.52633 7.18C9.64633 7.18 9.60633 7.42 9.50633 8.06C9.28633 9.52 8.84633 12.46 8.28633 16.1C8.24633 16.36 8.34633 16.42 8.54633 16.16C9.46633 15 10.4463 13.94 11.7063 13.2C12.1663 12.92 12.6663 12.72 13.0663 12.72ZM28.2224 13.08C28.3624 13.06 28.3424 13.2 28.2224 13.38C28.0024 13.8 26.2424 15.84 24.9824 17.12C24.8224 17.26 24.8624 17.38 24.9424 17.5C25.5624 18.22 27.7624 20.5 28.2824 20.94C28.4024 21.04 28.4024 21.1 28.3224 21.14C28.2224 21.2 27.9224 21.24 27.7824 21.24C27.4824 21.24 27.1224 21.08 26.6024 20.6C26.2824 20.32 25.0824 19.24 24.2224 18.32C24.0824 18.16 23.9624 18.16 23.8624 18.26C22.7024 19.52 21.4024 20.66 21.2024 20.8C21.0024 20.94 20.4624 21.16 20.1424 21.22C19.9424 21.24 20.0024 21.06 20.1224 20.96C20.4624 20.68 22.8624 18.26 23.3024 17.7C23.4024 17.58 23.3624 17.44 23.3024 17.38C22.0424 16.04 21.0224 14.82 20.8024 14.44C20.5424 14.04 20.5024 13.82 20.5624 13.6C20.6624 13.36 20.9024 13.08 20.9824 13C21.0624 12.92 21.0824 12.92 21.1424 13.04C21.5024 13.72 23.1224 15.66 24.0024 16.5C24.1024 16.62 24.3024 16.64 24.3424 16.6C25.8624 15.06 26.9224 13.64 27.1024 13.38C27.1624 13.3 27.6424 13.16 28.2224 13.08ZM36.128 8.58C35.748 8.64 35.048 8.72 34.668 8.74C34.468 8.74 34.428 8.72 34.588 8.58C34.988 8.26 35.228 8.12 35.308 8.1C36.588 7.92 37.288 7.64 38.128 7.18C38.328 7.04 38.368 7.18 38.208 7.42C38.108 7.56 37.828 8 37.548 9.48C37.168 11.26 36.448 15.82 36.288 18.2C36.208 19.3 36.228 19.9 36.548 19.9C36.968 19.9 37.668 19.28 38.388 18.24C38.548 18 38.588 18.06 38.588 18.24C38.588 18.42 38.508 18.86 38.368 19.08C37.368 20.44 35.868 21.36 35.328 21.36C34.688 21.36 34.808 19.62 34.968 18.36C35.208 16.68 35.668 13.4 36.108 10.34C36.188 9.9 36.308 8.98 36.348 8.76C36.368 8.6 36.288 8.56 36.128 8.58Z" fill="#646464"/>
</svg>
