<svg width="47" height="31" viewBox="0 0 47 31" fill="none" xmlns="http://www.w3.org/2000/svg">
<rect width="47" height="31" rx="5" fill="#BCDFDF"/>
<path d="M17.6131 14.22V14.24C17.6131 16.02 15.4131 18.84 13.9931 20.56C13.7731 20.8 13.1531 21.36 12.9731 21.36C12.8131 21.36 12.6931 21.14 12.6131 20.88C12.3931 20.3 12.0531 17.92 11.9531 16.52C11.9131 16.04 11.7931 15.9 11.4731 16.4C10.8331 17.28 9.45313 19.3 9.03313 20C8.87313 20.3 8.79313 20.42 8.41313 20.82C8.07313 21.18 7.57313 21.42 7.47313 21.42C7.35313 21.42 7.33313 21.36 7.39313 21.2C7.47313 21.06 7.63313 20.58 7.71313 19.82C7.91313 18.38 7.89313 16.04 7.65313 14.82C7.59313 14.38 7.47313 14.26 7.25313 14.34C6.87313 14.44 6.25313 15.08 5.81313 15.56C5.69313 15.68 5.63313 15.64 5.63313 15.52C5.67313 15.3 5.85313 14.92 5.97313 14.76C6.59313 14.02 8.01313 12.74 8.49313 12.74C8.75313 12.74 8.95313 13.22 9.01313 14.18C9.07313 15.28 9.07313 17 8.97313 18.68C8.95313 18.92 9.07313 18.92 9.23313 18.7C9.79313 17.98 10.7931 16.36 11.3131 15.5C11.5531 15.12 11.6131 15.04 11.7531 14.84C11.8331 14.74 11.9331 14.48 11.9731 14.32C11.9931 14.06 12.0931 14.04 12.2331 13.94C12.4331 13.84 12.7131 13.62 12.9331 13.4C13.0931 13.26 13.2331 13.2 13.3331 13.2C13.4331 13.2 13.4531 13.28 13.2931 13.56C13.1131 13.88 13.0731 14.96 13.1131 15.84C13.1531 17.3 13.4531 18.96 13.7331 19.42C13.8531 19.64 13.9531 19.64 14.1531 19.46C15.2531 18.42 16.5531 16.14 16.5531 14.32C16.5531 13.8 16.3931 13.18 16.2731 12.9C16.1931 12.76 16.2131 12.66 16.4531 12.68C16.9331 12.72 17.6131 13.3 17.6131 14.22ZM31.2556 13.08C31.3956 13.06 31.3756 13.2 31.2556 13.38C31.0356 13.8 29.2756 15.84 28.0156 17.12C27.8556 17.26 27.8956 17.38 27.9756 17.5C28.5956 18.22 30.7956 20.5 31.3156 20.94C31.4356 21.04 31.4356 21.1 31.3556 21.14C31.2556 21.2 30.9556 21.24 30.8156 21.24C30.5156 21.24 30.1556 21.08 29.6356 20.6C29.3156 20.32 28.1156 19.24 27.2556 18.32C27.1156 18.16 26.9956 18.16 26.8956 18.26C25.7356 19.52 24.4356 20.66 24.2356 20.8C24.0356 20.94 23.4956 21.16 23.1756 21.22C22.9756 21.24 23.0356 21.06 23.1556 20.96C23.4956 20.68 25.8956 18.26 26.3356 17.7C26.4356 17.58 26.3956 17.44 26.3356 17.38C25.0756 16.04 24.0556 14.82 23.8356 14.44C23.5756 14.04 23.5356 13.82 23.5956 13.6C23.6956 13.36 23.9356 13.08 24.0156 13C24.0956 12.92 24.1156 12.92 24.1756 13.04C24.5356 13.72 26.1556 15.66 27.0356 16.5C27.1356 16.62 27.3356 16.64 27.3756 16.6C28.8956 15.06 29.9556 13.64 30.1356 13.38C30.1956 13.3 30.6756 13.16 31.2556 13.08ZM39.1613 8.58C38.7813 8.64 38.0813 8.72 37.7013 8.74C37.5013 8.74 37.4613 8.72 37.6213 8.58C38.0213 8.26 38.2613 8.12 38.3413 8.1C39.6213 7.92 40.3213 7.64 41.1613 7.18C41.3613 7.04 41.4013 7.18 41.2413 7.42C41.1413 7.56 40.8613 8 40.5813 9.48C40.2013 11.26 39.4813 15.82 39.3213 18.2C39.2413 19.3 39.2613 19.9 39.5813 19.9C40.0013 19.9 40.7013 19.28 41.4213 18.24C41.5813 18 41.6213 18.06 41.6213 18.24C41.6213 18.42 41.5413 18.86 41.4013 19.08C40.4013 20.44 38.9013 21.36 38.3613 21.36C37.7213 21.36 37.8413 19.62 38.0013 18.36C38.2413 16.68 38.7013 13.4 39.1413 10.34C39.2213 9.9 39.3413 8.98 39.3813 8.76C39.4013 8.6 39.3213 8.56 39.1613 8.58Z" fill="#2D6066"/>
</svg>
