<svg width="51" height="31" viewBox="0 0 51 31" fill="none" xmlns="http://www.w3.org/2000/svg">
<rect width="51" height="31" rx="5" fill="#888888"/>
<path d="M12.6894 12.72H12.7094C13.0694 12.72 13.2694 13.42 13.1294 14.52C12.9694 15.64 12.5094 18.06 12.2894 19.3C12.2494 19.52 12.3294 19.6 12.4894 19.48C12.7694 19.32 13.3694 18.82 13.8294 18.28C13.9894 18.06 14.0094 18.14 13.9894 18.32C13.9694 18.52 13.7494 19.02 13.5694 19.22C12.9694 19.86 12.0294 20.62 11.3094 21.08C10.9294 21.34 10.6294 21.48 10.4294 21.48C10.2894 21.48 10.2694 21.38 10.4294 21.16C10.5694 20.96 10.7094 20.6 10.8694 20.06C11.1294 19.14 11.5094 16.84 11.6494 15.78C11.8094 14.54 11.7294 14.02 11.3294 14.02C10.6294 14.02 9.34938 15.28 8.44938 16.7C7.92938 17.46 7.52938 18.56 7.16938 19.92C7.06938 20.28 6.90938 20.56 6.72938 20.76C6.28938 21.2 5.84938 21.34 5.62938 21.38C5.46938 21.4 5.42938 21.34 5.58938 21.12C5.74938 20.9 5.84938 20.58 6.08938 19.44C6.56938 17.18 7.46938 10.92 7.62938 9.08C7.64938 8.68 7.56938 8.58 7.30938 8.62C6.88938 8.68 6.28938 8.78 5.94938 8.8C5.72938 8.8 5.68938 8.76 5.78938 8.66C6.12938 8.36 6.28938 8.26 6.40938 8.24C7.38938 8.02 8.14938 7.8 8.72938 7.38C8.94938 7.22 9.02938 7.18 9.14938 7.18C9.26938 7.18 9.22938 7.42 9.12938 8.06C8.90938 9.52 8.46938 12.46 7.90938 16.1C7.86938 16.36 7.96938 16.42 8.16938 16.16C9.08938 15 10.0694 13.94 11.3294 13.2C11.7894 12.92 12.2894 12.72 12.6894 12.72ZM27.8455 13.08C27.9855 13.06 27.9655 13.2 27.8455 13.38C27.6255 13.8 25.8655 15.84 24.6055 17.12C24.4455 17.26 24.4855 17.38 24.5655 17.5C25.1855 18.22 27.3855 20.5 27.9055 20.94C28.0255 21.04 28.0255 21.1 27.9455 21.14C27.8455 21.2 27.5455 21.24 27.4055 21.24C27.1055 21.24 26.7455 21.08 26.2255 20.6C25.9055 20.32 24.7055 19.24 23.8455 18.32C23.7055 18.16 23.5855 18.16 23.4855 18.26C22.3255 19.52 21.0255 20.66 20.8255 20.8C20.6255 20.94 20.0855 21.16 19.7655 21.22C19.5655 21.24 19.6255 21.06 19.7455 20.96C20.0855 20.68 22.4855 18.26 22.9255 17.7C23.0255 17.58 22.9855 17.44 22.9255 17.38C21.6655 16.04 20.6455 14.82 20.4255 14.44C20.1655 14.04 20.1255 13.82 20.1855 13.6C20.2855 13.36 20.5255 13.08 20.6055 13C20.6855 12.92 20.7055 12.92 20.7655 13.04C21.1255 13.72 22.7455 15.66 23.6255 16.5C23.7255 16.62 23.9255 16.64 23.9655 16.6C25.4855 15.06 26.5455 13.64 26.7255 13.38C26.7855 13.3 27.2655 13.16 27.8455 13.08ZM45.5311 14.22V14.24C45.5311 16.02 43.3311 18.84 41.9111 20.56C41.6911 20.8 41.0711 21.36 40.8911 21.36C40.7311 21.36 40.6111 21.14 40.5311 20.88C40.3111 20.3 39.9711 17.92 39.8711 16.52C39.8311 16.04 39.7111 15.9 39.3911 16.4C38.7511 17.28 37.3711 19.3 36.9511 20C36.7911 20.3 36.7111 20.42 36.3311 20.82C35.9911 21.18 35.4911 21.42 35.3911 21.42C35.2711 21.42 35.2511 21.36 35.3111 21.2C35.3911 21.06 35.5511 20.58 35.6311 19.82C35.8311 18.38 35.8111 16.04 35.5711 14.82C35.5111 14.38 35.3911 14.26 35.1711 14.34C34.7911 14.44 34.1711 15.08 33.7311 15.56C33.6111 15.68 33.5511 15.64 33.5511 15.52C33.5911 15.3 33.7711 14.92 33.8911 14.76C34.5111 14.02 35.9311 12.74 36.4111 12.74C36.6711 12.74 36.8711 13.22 36.9311 14.18C36.9911 15.28 36.9911 17 36.8911 18.68C36.8711 18.92 36.9911 18.92 37.1511 18.7C37.7111 17.98 38.7111 16.36 39.2311 15.5C39.4711 15.12 39.5311 15.04 39.6711 14.84C39.7511 14.74 39.8511 14.48 39.8911 14.32C39.9111 14.06 40.0111 14.04 40.1511 13.94C40.3511 13.84 40.6311 13.62 40.8511 13.4C41.0111 13.26 41.1511 13.2 41.2511 13.2C41.3511 13.2 41.3711 13.28 41.2111 13.56C41.0311 13.88 40.9911 14.96 41.0311 15.84C41.0711 17.3 41.3711 18.96 41.6511 19.42C41.7711 19.64 41.8711 19.64 42.0711 19.46C43.1711 18.42 44.4711 16.14 44.4711 14.32C44.4711 13.8 44.3111 13.18 44.1911 12.9C44.1111 12.76 44.1311 12.66 44.3711 12.68C44.8511 12.72 45.5311 13.3 45.5311 14.22Z" fill="white"/>
</svg>
