<svg width="20" height="21" viewBox="0 0 20 21" fill="none" xmlns="http://www.w3.org/2000/svg">
<path d="M18.9956 1V6H13.9956" fill="white"/>
<path d="M18.9956 1V6H13.9956" stroke="white" stroke-width="2" stroke-linecap="round" stroke-linejoin="round"/>
<path d="M18.9456 10.9996C18.7241 13.0054 17.8349 14.8786 16.4208 16.3183C15.0067 17.758 13.1498 18.6807 11.1483 18.9382C9.1468 19.1956 7.11682 18.773 5.3844 17.7381C3.65197 16.7031 2.31763 15.116 1.59566 13.2316C0.8737 11.3471 0.806011 9.27471 1.40347 7.34717C2.00092 5.41963 3.22885 3.74881 4.89005 2.60304C6.55126 1.45728 8.54932 0.903052 10.5634 1.02938C12.5774 1.1557 14.4906 1.95525 15.9956 3.29961L18.9956 5.99961" stroke="white" stroke-width="2" stroke-linecap="round" stroke-linejoin="round"/>
</svg>
