<svg width="37" height="52" viewBox="0 0 37 52" fill="none" xmlns="http://www.w3.org/2000/svg">
<path d="M0.5 0H28.5C32.9183 0 36.5 3.58172 36.5 8V44C36.5 48.4183 32.9183 52 28.5 52H0.5V0Z" fill="#1A1A1A"/>
<path fill-rule="evenodd" clip-rule="evenodd" d="M10.8629 21.2487C10.4212 21.6143 10.3765 22.2494 10.7629 22.6672L18.1204 30.6224C18.5861 31.1259 19.4139 31.1259 19.8796 30.6224L27.2371 22.6672C27.6235 22.2494 27.5788 21.6143 27.1371 21.2487C26.6955 20.8831 26.0243 20.9255 25.6379 21.3433L19 28.5204L12.3621 21.3433C11.9757 20.9255 11.3045 20.8831 10.8629 21.2487Z" fill="white"/>
</svg>
