<svg width="182" height="96" viewBox="0 0 182 96" fill="none" xmlns="http://www.w3.org/2000/svg">
<rect x="12.25" y="0.25" width="162.5" height="83.5" rx="7.75" fill="white"/>
<path d="M38.1406 39.7266C38.3438 39.7266 38.5391 39.6875 38.7266 39.6094C39.4766 39.3125 40.2578 38.1797 41.0703 36.2109L36.7109 26.6016H35.6328V25.9922H40.5781V26.6016H39.0547L42.125 33.6797L44.9375 26.6016H43.2031V25.9922H46.8125C46.8125 26.1172 46.8047 26.2188 46.7891 26.2969C46.7422 26.5 46.5547 26.6016 46.2266 26.6016C46.1172 26.6016 46.0156 26.6094 45.9219 26.625C45.7188 26.6719 45.5391 26.9062 45.3828 27.3281L41.8906 36.1172C41.5625 36.9453 41.2188 37.6562 40.8594 38.25C39.9688 39.75 38.8906 40.5 37.625 40.5C37.1875 40.5 36.7891 40.4219 36.4297 40.2656C35.7734 39.9531 35.4453 39.5234 35.4453 38.9766C35.4453 38.8984 35.4531 38.8203 35.4688 38.7422C35.5938 38.2734 35.9141 38.0391 36.4297 38.0391C36.6484 38.0391 36.8359 38.0938 36.9922 38.2031C37.1641 38.3125 37.3438 38.625 37.5312 39.1406C37.6719 39.5312 37.875 39.7266 38.1406 39.7266Z" fill="#FF8F1F"/>
<path d="M55.607 27.768C55.271 27.768 55.007 27.68 54.815 27.504C54.623 27.312 54.527 27.048 54.527 26.712C54.527 26.376 54.623 26.12 54.815 25.944C55.007 25.752 55.271 25.656 55.607 25.656H65.543C65.895 25.656 66.159 25.752 66.335 25.944C66.527 26.12 66.623 26.376 66.623 26.712C66.623 27.048 66.527 27.312 66.335 27.504C66.159 27.68 65.895 27.768 65.543 27.768H55.607ZM55.607 32.544C55.271 32.544 55.007 32.456 54.815 32.28C54.623 32.088 54.527 31.824 54.527 31.488C54.527 31.152 54.623 30.896 54.815 30.72C55.007 30.544 55.271 30.456 55.607 30.456H65.543C65.895 30.456 66.159 30.544 66.335 30.72C66.527 30.896 66.623 31.152 66.623 31.488C66.623 31.84 66.527 32.104 66.335 32.28C66.159 32.456 65.895 32.544 65.543 32.544H55.607ZM123.434 35.232C123.082 35.232 122.81 35.136 122.618 34.944C122.426 34.736 122.33 34.456 122.33 34.104V30.168H118.466C118.13 30.168 117.866 30.08 117.674 29.904C117.482 29.712 117.386 29.448 117.386 29.112C117.386 28.776 117.482 28.52 117.674 28.344C117.866 28.152 118.13 28.056 118.466 28.056H122.33V24.24C122.33 23.888 122.426 23.616 122.618 23.424C122.81 23.232 123.09 23.136 123.458 23.136C123.81 23.136 124.074 23.232 124.25 23.424C124.442 23.616 124.538 23.888 124.538 24.24V28.056H128.402C128.754 28.056 129.018 28.152 129.194 28.344C129.386 28.52 129.482 28.776 129.482 29.112C129.482 29.448 129.386 29.712 129.194 29.904C129.018 30.08 128.754 30.168 128.402 30.168H124.538V34.104C124.538 34.456 124.442 34.736 124.25 34.944C124.074 35.136 123.802 35.232 123.434 35.232ZM140.885 36C140.469 36 140.141 35.888 139.901 35.664C139.677 35.424 139.565 35.104 139.565 34.704C139.565 34.288 139.677 33.976 139.901 33.768C140.141 33.56 140.469 33.456 140.885 33.456H143.573V21.672H145.061L141.533 23.808C141.229 23.984 140.941 24.056 140.669 24.024C140.413 23.976 140.189 23.864 139.997 23.688C139.821 23.496 139.701 23.272 139.637 23.016C139.573 22.76 139.589 22.504 139.685 22.248C139.797 21.976 140.005 21.752 140.309 21.576L143.621 19.584C143.941 19.392 144.261 19.232 144.581 19.104C144.901 18.96 145.197 18.888 145.469 18.888C145.805 18.888 146.085 18.984 146.309 19.176C146.533 19.352 146.645 19.648 146.645 20.064V33.456H149.093C149.509 33.456 149.829 33.56 150.053 33.768C150.293 33.976 150.413 34.288 150.413 34.704C150.413 35.12 150.293 35.44 150.053 35.664C149.829 35.888 149.509 36 149.093 36H140.885ZM26.8064 64.16C26.4197 64.16 26.1197 64.0533 25.9064 63.84C25.7064 63.6267 25.6064 63.32 25.6064 62.92V51.02C25.6064 50.6067 25.7064 50.2933 25.9064 50.08C26.1197 49.8533 26.3931 49.74 26.7264 49.74C27.0331 49.74 27.2597 49.8 27.4064 49.92C27.5664 50.0267 27.7531 50.2133 27.9664 50.48L35.6264 60.42H35.1064V50.96C35.1064 50.5733 35.2064 50.2733 35.4064 50.06C35.6197 49.8467 35.9197 49.74 36.3064 49.74C36.6931 49.74 36.9864 49.8467 37.1864 50.06C37.3864 50.2733 37.4864 50.5733 37.4864 50.96V62.96C37.4864 63.3333 37.3931 63.6267 37.2064 63.84C37.0197 64.0533 36.7664 64.16 36.4464 64.16C36.1397 64.16 35.8931 64.1 35.7064 63.98C35.5331 63.86 35.3397 63.6667 35.1264 63.4L27.4864 53.46H27.9864V62.92C27.9864 63.32 27.8864 63.6267 27.6864 63.84C27.4864 64.0533 27.1931 64.16 26.8064 64.16ZM45.1473 64.2C44.0407 64.2 43.0873 63.9933 42.2873 63.58C41.4873 63.1667 40.8673 62.58 40.4273 61.82C40.0007 61.06 39.7873 60.16 39.7873 59.12C39.7873 58.1067 39.994 57.22 40.4073 56.46C40.834 55.7 41.414 55.1067 42.1473 54.68C42.894 54.24 43.7407 54.02 44.6873 54.02C45.3807 54.02 46.0007 54.1333 46.5473 54.36C47.1073 54.5867 47.5807 54.9133 47.9673 55.34C48.3673 55.7667 48.6673 56.2867 48.8673 56.9C49.0807 57.5 49.1873 58.18 49.1873 58.94C49.1873 59.18 49.1007 59.3667 48.9273 59.5C48.7673 59.62 48.534 59.68 48.2273 59.68H41.8073V58.24H47.4273L47.1073 58.54C47.1073 57.9267 47.014 57.4133 46.8273 57C46.654 56.5867 46.394 56.2733 46.0473 56.06C45.714 55.8333 45.294 55.72 44.7873 55.72C44.2273 55.72 43.7473 55.8533 43.3473 56.12C42.9607 56.3733 42.6607 56.74 42.4473 57.22C42.2473 57.6867 42.1473 58.2467 42.1473 58.9V59.04C42.1473 60.1333 42.4007 60.9533 42.9073 61.5C43.4273 62.0333 44.1873 62.3 45.1873 62.3C45.534 62.3 45.9207 62.26 46.3473 62.18C46.7873 62.0867 47.2007 61.9333 47.5873 61.72C47.8673 61.56 48.114 61.4933 48.3273 61.52C48.5407 61.5333 48.7073 61.6067 48.8273 61.74C48.9607 61.8733 49.0407 62.04 49.0673 62.24C49.094 62.4267 49.054 62.62 48.9473 62.82C48.854 63.02 48.6873 63.1933 48.4473 63.34C47.9807 63.6333 47.4407 63.8533 46.8273 64C46.2273 64.1333 45.6673 64.2 45.1473 64.2ZM55.7272 67.8C55.0072 67.8 54.3072 67.7333 53.6272 67.6C52.9605 67.4667 52.3539 67.26 51.8072 66.98C51.5539 66.8467 51.3805 66.6867 51.2872 66.5C51.2072 66.3133 51.1805 66.12 51.2072 65.92C51.2472 65.7333 51.3272 65.5667 51.4472 65.42C51.5805 65.2733 51.7405 65.1733 51.9272 65.12C52.1139 65.0667 52.3072 65.0933 52.5072 65.2C53.0939 65.4933 53.6472 65.68 54.1672 65.76C54.7005 65.8533 55.1539 65.9 55.5272 65.9C56.4205 65.9 57.0872 65.68 57.5272 65.24C57.9805 64.8133 58.2072 64.1733 58.2072 63.32V61.52H58.3872C58.1872 62.2 57.7672 62.7467 57.1272 63.16C56.5005 63.56 55.7872 63.76 54.9872 63.76C54.1072 63.76 53.3405 63.56 52.6872 63.16C52.0339 62.7467 51.5272 62.1733 51.1672 61.44C50.8072 60.7067 50.6272 59.8533 50.6272 58.88C50.6272 58.1467 50.7272 57.4867 50.9272 56.9C51.1405 56.3 51.4339 55.7867 51.8072 55.36C52.1939 54.9333 52.6539 54.6067 53.1872 54.38C53.7339 54.14 54.3339 54.02 54.9872 54.02C55.8139 54.02 56.5339 54.2267 57.1472 54.64C57.7739 55.04 58.1805 55.5733 58.3672 56.24L58.1672 56.74V55.32C58.1672 54.9067 58.2739 54.5933 58.4872 54.38C58.7139 54.1667 59.0205 54.06 59.4072 54.06C59.8072 54.06 60.1139 54.1667 60.3272 54.38C60.5405 54.5933 60.6472 54.9067 60.6472 55.32V63.02C60.6472 64.6067 60.2272 65.8 59.3872 66.6C58.5472 67.4 57.3272 67.8 55.7272 67.8ZM55.6672 61.86C56.1872 61.86 56.6339 61.74 57.0072 61.5C57.3805 61.26 57.6672 60.92 57.8672 60.48C58.0805 60.0267 58.1872 59.4933 58.1872 58.88C58.1872 57.96 57.9605 57.24 57.5072 56.72C57.0539 56.1867 56.4405 55.92 55.6672 55.92C55.1472 55.92 54.7005 56.04 54.3272 56.28C53.9539 56.52 53.6605 56.86 53.4472 57.3C53.2472 57.74 53.1472 58.2667 53.1472 58.88C53.1472 59.8 53.3739 60.5267 53.8272 61.06C54.2805 61.5933 54.8939 61.86 55.6672 61.86ZM66.4575 64.2C65.7508 64.2 65.1175 64.0667 64.5575 63.8C64.0108 63.52 63.5775 63.1467 63.2575 62.68C62.9508 62.2133 62.7975 61.6867 62.7975 61.1C62.7975 60.38 62.9842 59.8133 63.3575 59.4C63.7308 58.9733 64.3375 58.6667 65.1775 58.48C66.0175 58.2933 67.1442 58.2 68.5575 58.2H69.5575V59.64H68.5775C67.7508 59.64 67.0908 59.68 66.5975 59.76C66.1042 59.84 65.7508 59.98 65.5375 60.18C65.3375 60.3667 65.2375 60.6333 65.2375 60.98C65.2375 61.42 65.3908 61.78 65.6975 62.06C66.0042 62.34 66.4308 62.48 66.9775 62.48C67.4175 62.48 67.8042 62.38 68.1375 62.18C68.4842 61.9667 68.7575 61.68 68.9575 61.32C69.1575 60.96 69.2575 60.5467 69.2575 60.08V57.78C69.2575 57.1133 69.1108 56.6333 68.8175 56.34C68.5242 56.0467 68.0308 55.9 67.3375 55.9C66.9508 55.9 66.5308 55.9467 66.0775 56.04C65.6375 56.1333 65.1708 56.2933 64.6775 56.52C64.4242 56.64 64.1975 56.6733 63.9975 56.62C63.8108 56.5667 63.6642 56.46 63.5575 56.3C63.4508 56.1267 63.3975 55.94 63.3975 55.74C63.3975 55.54 63.4508 55.3467 63.5575 55.16C63.6642 54.96 63.8442 54.8133 64.0975 54.72C64.7108 54.4667 65.2975 54.2867 65.8575 54.18C66.4308 54.0733 66.9508 54.02 67.4175 54.02C68.3775 54.02 69.1642 54.1667 69.7775 54.46C70.4042 54.7533 70.8708 55.2 71.1775 55.8C71.4842 56.3867 71.6375 57.1467 71.6375 58.08V62.88C71.6375 63.2933 71.5375 63.6133 71.3375 63.84C71.1375 64.0533 70.8508 64.16 70.4775 64.16C70.1042 64.16 69.8108 64.0533 69.5975 63.84C69.3975 63.6133 69.2975 63.2933 69.2975 62.88V61.92H69.4575C69.3642 62.3867 69.1775 62.7933 68.8975 63.14C68.6308 63.4733 68.2908 63.7333 67.8775 63.92C67.4642 64.1067 66.9908 64.2 66.4575 64.2ZM78.655 64.2C77.7883 64.2 77.0617 64.0533 76.475 63.76C75.9017 63.4667 75.475 63.04 75.195 62.48C74.915 61.9067 74.775 61.2 74.775 60.36V56.1H73.735C73.415 56.1 73.1683 56.02 72.995 55.86C72.8217 55.6867 72.735 55.4533 72.735 55.16C72.735 54.8533 72.8217 54.62 72.995 54.46C73.1683 54.3 73.415 54.22 73.735 54.22H74.775V52.4C74.775 51.9867 74.8817 51.6733 75.095 51.46C75.3217 51.2467 75.635 51.14 76.035 51.14C76.435 51.14 76.7417 51.2467 76.955 51.46C77.1683 51.6733 77.275 51.9867 77.275 52.4V54.22H79.395C79.715 54.22 79.9617 54.3 80.135 54.46C80.3083 54.62 80.395 54.8533 80.395 55.16C80.395 55.4533 80.3083 55.6867 80.135 55.86C79.9617 56.02 79.715 56.1 79.395 56.1H77.275V60.22C77.275 60.86 77.415 61.34 77.695 61.66C77.975 61.98 78.4283 62.14 79.055 62.14C79.2817 62.14 79.4817 62.12 79.655 62.08C79.8283 62.04 79.9817 62.0133 80.115 62C80.275 61.9867 80.4083 62.04 80.515 62.16C80.6217 62.2667 80.675 62.4933 80.675 62.84C80.675 63.1067 80.6283 63.3467 80.535 63.56C80.455 63.76 80.3017 63.9 80.075 63.98C79.9017 64.0333 79.675 64.08 79.395 64.12C79.115 64.1733 78.8683 64.2 78.655 64.2ZM83.3447 64.14C82.9447 64.14 82.638 64.02 82.4247 63.78C82.2114 63.54 82.1047 63.2067 82.1047 62.78V55.44C82.1047 55 82.2114 54.6667 82.4247 54.44C82.638 54.2 82.9447 54.08 83.3447 54.08C83.7447 54.08 84.0514 54.2 84.2647 54.44C84.4914 54.6667 84.6047 55 84.6047 55.44V62.78C84.6047 63.2067 84.498 63.54 84.2847 63.78C84.0714 64.02 83.758 64.14 83.3447 64.14ZM83.3447 52.22C82.878 52.22 82.5114 52.1067 82.2447 51.88C81.9914 51.64 81.8647 51.3133 81.8647 50.9C81.8647 50.4733 81.9914 50.1467 82.2447 49.92C82.5114 49.6933 82.878 49.58 83.3447 49.58C83.8247 49.58 84.1914 49.6933 84.4447 49.92C84.698 50.1467 84.8247 50.4733 84.8247 50.9C84.8247 51.3133 84.698 51.64 84.4447 51.88C84.1914 52.1067 83.8247 52.22 83.3447 52.22ZM91.1623 64.16C90.829 64.16 90.5357 64.0733 90.2823 63.9C90.0423 63.7267 89.8423 63.46 89.6823 63.1L86.5023 55.72C86.3823 55.4267 86.3357 55.1533 86.3623 54.9C86.4023 54.6467 86.5223 54.4467 86.7223 54.3C86.9357 54.14 87.2223 54.06 87.5823 54.06C87.889 54.06 88.1357 54.1333 88.3223 54.28C88.509 54.4133 88.6757 54.6733 88.8223 55.06L91.5223 61.8H90.9223L93.7023 55.04C93.849 54.6667 94.0157 54.4133 94.2023 54.28C94.4023 54.1333 94.669 54.06 95.0023 54.06C95.2957 54.06 95.529 54.14 95.7023 54.3C95.8757 54.4467 95.9823 54.6467 96.0223 54.9C96.0623 55.14 96.0157 55.4067 95.8823 55.7L92.6423 63.1C92.4957 63.46 92.2957 63.7267 92.0423 63.9C91.8023 64.0733 91.509 64.16 91.1623 64.16ZM102.374 64.2C101.267 64.2 100.314 63.9933 99.5139 63.58C98.7139 63.1667 98.0939 62.58 97.6539 61.82C97.2272 61.06 97.0139 60.16 97.0139 59.12C97.0139 58.1067 97.2206 57.22 97.6339 56.46C98.0606 55.7 98.6406 55.1067 99.3739 54.68C100.121 54.24 100.967 54.02 101.914 54.02C102.607 54.02 103.227 54.1333 103.774 54.36C104.334 54.5867 104.807 54.9133 105.194 55.34C105.594 55.7667 105.894 56.2867 106.094 56.9C106.307 57.5 106.414 58.18 106.414 58.94C106.414 59.18 106.327 59.3667 106.154 59.5C105.994 59.62 105.761 59.68 105.454 59.68H99.0339V58.24H104.654L104.334 58.54C104.334 57.9267 104.241 57.4133 104.054 57C103.881 56.5867 103.621 56.2733 103.274 56.06C102.941 55.8333 102.521 55.72 102.014 55.72C101.454 55.72 100.974 55.8533 100.574 56.12C100.187 56.3733 99.8872 56.74 99.6739 57.22C99.4739 57.6867 99.3739 58.2467 99.3739 58.9V59.04C99.3739 60.1333 99.6272 60.9533 100.134 61.5C100.654 62.0333 101.414 62.3 102.414 62.3C102.761 62.3 103.147 62.26 103.574 62.18C104.014 62.0867 104.427 61.9333 104.814 61.72C105.094 61.56 105.341 61.4933 105.554 61.52C105.767 61.5333 105.934 61.6067 106.054 61.74C106.187 61.8733 106.267 62.04 106.294 62.24C106.321 62.4267 106.281 62.62 106.174 62.82C106.081 63.02 105.914 63.1933 105.674 63.34C105.207 63.6333 104.667 63.8533 104.054 64C103.454 64.1333 102.894 64.2 102.374 64.2ZM117.403 64.2C116.83 64.2 116.223 64.14 115.583 64.02C114.943 63.9 114.37 63.6933 113.863 63.4C113.65 63.2667 113.497 63.1133 113.403 62.94C113.323 62.7533 113.29 62.5733 113.303 62.4C113.33 62.2133 113.397 62.0533 113.503 61.92C113.623 61.7867 113.77 61.7 113.943 61.66C114.13 61.62 114.33 61.6533 114.543 61.76C115.077 62.0133 115.577 62.1933 116.043 62.3C116.51 62.3933 116.97 62.44 117.423 62.44C118.063 62.44 118.537 62.3333 118.843 62.12C119.163 61.8933 119.323 61.6 119.323 61.24C119.323 60.9333 119.217 60.7 119.003 60.54C118.803 60.3667 118.497 60.24 118.083 60.16L116.083 59.78C115.257 59.62 114.623 59.32 114.183 58.88C113.757 58.4267 113.543 57.8467 113.543 57.14C113.543 56.5 113.717 55.9467 114.063 55.48C114.423 55.0133 114.917 54.6533 115.543 54.4C116.17 54.1467 116.89 54.02 117.703 54.02C118.29 54.02 118.837 54.0867 119.343 54.22C119.863 54.34 120.363 54.5333 120.843 54.8C121.043 54.9067 121.177 55.0467 121.243 55.22C121.323 55.3933 121.343 55.5733 121.303 55.76C121.263 55.9333 121.183 56.0933 121.063 56.24C120.943 56.3733 120.79 56.46 120.603 56.5C120.43 56.5267 120.23 56.4867 120.003 56.38C119.59 56.1667 119.19 56.0133 118.803 55.92C118.43 55.8267 118.07 55.78 117.723 55.78C117.07 55.78 116.583 55.8933 116.263 56.12C115.957 56.3467 115.803 56.6467 115.803 57.02C115.803 57.3 115.897 57.5333 116.083 57.72C116.27 57.9067 116.557 58.0333 116.943 58.1L118.943 58.48C119.81 58.64 120.463 58.9333 120.903 59.36C121.357 59.7867 121.583 60.36 121.583 61.08C121.583 62.0533 121.203 62.82 120.443 63.38C119.683 63.9267 118.67 64.2 117.403 64.2ZM126.929 64.2C125.822 64.2 124.989 63.8867 124.429 63.26C123.869 62.62 123.589 61.6867 123.589 60.46V51C123.589 50.5867 123.696 50.2733 123.909 50.06C124.122 49.8467 124.429 49.74 124.829 49.74C125.229 49.74 125.536 49.8467 125.749 50.06C125.976 50.2733 126.089 50.5867 126.089 51V60.34C126.089 60.9533 126.216 61.4067 126.469 61.7C126.736 61.9933 127.109 62.14 127.589 62.14C127.696 62.14 127.796 62.14 127.889 62.14C127.982 62.1267 128.076 62.1133 128.169 62.1C128.356 62.0733 128.482 62.1267 128.549 62.26C128.616 62.38 128.649 62.6333 128.649 63.02C128.649 63.3533 128.582 63.6133 128.449 63.8C128.316 63.9867 128.096 64.1 127.789 64.14C127.656 64.1533 127.516 64.1667 127.369 64.18C127.222 64.1933 127.076 64.2 126.929 64.2ZM134.338 64.2C133.325 64.2 132.445 63.9933 131.698 63.58C130.951 63.1667 130.371 62.58 129.958 61.82C129.545 61.0467 129.338 60.14 129.338 59.1C129.338 58.3133 129.451 57.6133 129.678 57C129.918 56.3733 130.258 55.84 130.698 55.4C131.138 54.9467 131.665 54.6067 132.278 54.38C132.891 54.14 133.578 54.02 134.338 54.02C135.351 54.02 136.231 54.2267 136.978 54.64C137.725 55.0533 138.305 55.64 138.718 56.4C139.131 57.16 139.338 58.06 139.338 59.1C139.338 59.8867 139.218 60.5933 138.978 61.22C138.751 61.8467 138.418 62.3867 137.978 62.84C137.538 63.28 137.011 63.62 136.398 63.86C135.785 64.0867 135.098 64.2 134.338 64.2ZM134.338 62.3C134.831 62.3 135.265 62.18 135.638 61.94C136.011 61.7 136.298 61.3467 136.498 60.88C136.711 60.4 136.818 59.8067 136.818 59.1C136.818 58.0333 136.591 57.24 136.138 56.72C135.685 56.1867 135.085 55.92 134.338 55.92C133.845 55.92 133.411 56.04 133.038 56.28C132.665 56.5067 132.371 56.86 132.158 57.34C131.958 57.8067 131.858 58.3933 131.858 59.1C131.858 60.1533 132.085 60.9533 132.538 61.5C132.991 62.0333 133.591 62.3 134.338 62.3ZM142.642 67.76C142.242 67.76 141.935 67.6533 141.722 67.44C141.508 67.2267 141.402 66.9133 141.402 66.5V55.32C141.402 54.9067 141.508 54.5933 141.722 54.38C141.935 54.1667 142.235 54.06 142.622 54.06C143.022 54.06 143.328 54.1667 143.542 54.38C143.755 54.5933 143.862 54.9067 143.862 55.32V56.88L143.642 56.28C143.842 55.6 144.248 55.0533 144.862 54.64C145.488 54.2267 146.215 54.02 147.042 54.02C147.895 54.02 148.642 54.2267 149.282 54.64C149.935 55.0533 150.442 55.64 150.802 56.4C151.162 57.1467 151.342 58.0467 151.342 59.1C151.342 60.14 151.162 61.0467 150.802 61.82C150.442 62.58 149.942 63.1667 149.302 63.58C148.662 63.9933 147.908 64.2 147.042 64.2C146.228 64.2 145.515 64 144.902 63.6C144.288 63.1867 143.875 62.6533 143.662 62H143.902V66.5C143.902 66.9133 143.788 67.2267 143.562 67.44C143.348 67.6533 143.042 67.76 142.642 67.76ZM146.342 62.3C146.835 62.3 147.268 62.18 147.642 61.94C148.015 61.7 148.302 61.3467 148.502 60.88C148.715 60.4 148.822 59.8067 148.822 59.1C148.822 58.0333 148.595 57.24 148.142 56.72C147.688 56.1867 147.088 55.92 146.342 55.92C145.848 55.92 145.415 56.04 145.042 56.28C144.668 56.5067 144.375 56.86 144.162 57.34C143.962 57.8067 143.862 58.3933 143.862 59.1C143.862 60.1533 144.088 60.9533 144.542 61.5C144.995 62.0333 145.595 62.3 146.342 62.3ZM158.214 64.2C157.107 64.2 156.154 63.9933 155.354 63.58C154.554 63.1667 153.934 62.58 153.494 61.82C153.067 61.06 152.854 60.16 152.854 59.12C152.854 58.1067 153.06 57.22 153.474 56.46C153.9 55.7 154.48 55.1067 155.214 54.68C155.96 54.24 156.807 54.02 157.754 54.02C158.447 54.02 159.067 54.1333 159.614 54.36C160.174 54.5867 160.647 54.9133 161.034 55.34C161.434 55.7667 161.734 56.2867 161.934 56.9C162.147 57.5 162.254 58.18 162.254 58.94C162.254 59.18 162.167 59.3667 161.994 59.5C161.834 59.62 161.6 59.68 161.294 59.68H154.874V58.24H160.494L160.174 58.54C160.174 57.9267 160.08 57.4133 159.894 57C159.72 56.5867 159.46 56.2733 159.114 56.06C158.78 55.8333 158.36 55.72 157.854 55.72C157.294 55.72 156.814 55.8533 156.414 56.12C156.027 56.3733 155.727 56.74 155.514 57.22C155.314 57.6867 155.214 58.2467 155.214 58.9V59.04C155.214 60.1333 155.467 60.9533 155.974 61.5C156.494 62.0333 157.254 62.3 158.254 62.3C158.6 62.3 158.987 62.26 159.414 62.18C159.854 62.0867 160.267 61.9333 160.654 61.72C160.934 61.56 161.18 61.4933 161.394 61.52C161.607 61.5333 161.774 61.6067 161.894 61.74C162.027 61.8733 162.107 62.04 162.134 62.24C162.16 62.4267 162.12 62.62 162.014 62.82C161.92 63.02 161.754 63.1933 161.514 63.34C161.047 63.6333 160.507 63.8533 159.894 64C159.294 64.1333 158.734 64.2 158.214 64.2Z" fill="#646464"/>
<path d="M76.9453 30.768C76.5933 30.768 76.2973 30.656 76.0573 30.432C75.8333 30.192 75.7213 29.904 75.7213 29.568C75.7213 29.216 75.8333 28.928 76.0573 28.704C76.2973 28.48 76.5933 28.368 76.9453 28.368H82.0573C82.3933 28.368 82.6733 28.48 82.8973 28.704C83.1373 28.928 83.2573 29.216 83.2573 29.568C83.2573 29.904 83.1373 30.192 82.8973 30.432C82.6733 30.656 82.3933 30.768 82.0573 30.768H76.9453ZM87.8795 36C87.3675 36 86.9915 35.888 86.7515 35.664C86.5275 35.424 86.4155 35.08 86.4155 34.632C86.4155 34.36 86.4875 34.096 86.6315 33.84C86.7755 33.584 86.9835 33.312 87.2555 33.024L92.0795 27.888C92.8155 27.12 93.3435 26.424 93.6635 25.8C93.9835 25.16 94.1435 24.52 94.1435 23.88C94.1435 23.08 93.8875 22.472 93.3755 22.056C92.8795 21.64 92.1515 21.432 91.1915 21.432C90.6475 21.432 90.1035 21.512 89.5595 21.672C89.0155 21.816 88.4635 22.072 87.9035 22.44C87.6155 22.632 87.3435 22.712 87.0875 22.68C86.8475 22.648 86.6315 22.544 86.4395 22.368C86.2635 22.192 86.1435 21.976 86.0795 21.72C86.0155 21.464 86.0235 21.208 86.1035 20.952C86.1995 20.68 86.3915 20.448 86.6795 20.256C87.3675 19.792 88.1355 19.44 88.9835 19.2C89.8475 18.96 90.7115 18.84 91.5755 18.84C92.7915 18.84 93.8155 19.024 94.6475 19.392C95.4795 19.76 96.1115 20.296 96.5435 21C96.9755 21.704 97.1915 22.56 97.1915 23.568C97.1915 24.24 97.0795 24.896 96.8555 25.536C96.6475 26.176 96.3195 26.824 95.8715 27.48C95.4395 28.136 94.8715 28.832 94.1675 29.568L89.6555 34.272V33.456H96.7115C97.1435 33.456 97.4715 33.56 97.6955 33.768C97.9195 33.976 98.0315 34.288 98.0315 34.704C98.0315 35.12 97.9195 35.44 97.6955 35.664C97.4715 35.888 97.1435 36 96.7115 36H87.8795ZM99.1484 36C99.1484 35.8906 99.1562 35.7891 99.1719 35.6953C99.2031 35.5391 99.3359 35.4453 99.5703 35.4141C100.023 35.3516 100.414 35.1172 100.742 34.7109L103.438 31.2422L100.273 26.5781H99.1719V25.9922H104.164V26.5781H102.711L104.984 29.9531L107.469 26.5781H105.875V25.9922H109.367C109.367 26.1016 109.359 26.2031 109.344 26.2969C109.297 26.4531 109.156 26.5391 108.922 26.5547C108.438 26.6172 108.039 26.8594 107.727 27.2812L105.359 30.5156L108.664 35.4141H109.133C109.211 35.4141 109.289 35.4219 109.367 35.4375C109.602 35.4688 109.719 35.6562 109.719 36H104.914V35.4141H106.297L103.836 31.7812L101.023 35.4141H102.734V36H99.1484Z" fill="#AA5EE0"/>
<rect x="12.25" y="0.25" width="162.5" height="83.5" rx="7.75" stroke="#1A1A1A" stroke-width="0.5"/>
<circle cx="12" cy="84" r="11.5" fill="white" stroke="#1A1A1A"/>
<path d="M12.0156 85.752C11.813 85.752 11.653 85.688 11.5356 85.56C11.429 85.432 11.365 85.2507 11.3436 85.016L10.8636 78.904C10.8316 78.5093 10.917 78.1947 11.1196 77.96C11.3223 77.7147 11.621 77.592 12.0156 77.592C12.3996 77.592 12.6876 77.7147 12.8796 77.96C13.0823 78.1947 13.1676 78.5093 13.1356 78.904L12.6556 85.016C12.645 85.2507 12.581 85.432 12.4636 85.56C12.357 85.688 12.2076 85.752 12.0156 85.752ZM12.0156 89.08C11.653 89.08 11.3596 88.968 11.1356 88.744C10.9223 88.52 10.8156 88.232 10.8156 87.88C10.8156 87.5387 10.9223 87.2613 11.1356 87.048C11.3596 86.824 11.653 86.712 12.0156 86.712C12.389 86.712 12.677 86.824 12.8796 87.048C13.093 87.2613 13.1996 87.5387 13.1996 87.88C13.1996 88.232 13.093 88.52 12.8796 88.744C12.677 88.968 12.389 89.08 12.0156 89.08Z" fill="#1A1A1A"/>
<rect width="1" height="12" transform="matrix(-1 0 0 1 175 8)" fill="white"/>
<path d="M174.835 19.7472C174.513 20.0372 174 19.809 174 19.3758L174 8.5713C174 8.14674 174.496 7.91538 174.821 8.18806L180.962 13.3333L181.033 13.3922C181.275 13.5922 181.275 13.9634 181.033 14.1634L180.962 14.2222L174.835 19.7472Z" fill="white"/>
<path d="M175 20L181.133 14.4632C181.589 14.0519 181.57 13.3312 181.093 12.9444L175 8" stroke="#1A1A1A" stroke-width="0.5" stroke-linecap="square"/>
</svg>
