<svg width="173" height="96" viewBox="0 0 173 96" fill="none" xmlns="http://www.w3.org/2000/svg">
<rect x="7.25" y="0.25" width="153.5" height="83.5" rx="7.75" fill="white"/>
<path d="M33.8438 39.7266C34.0469 39.7266 34.2422 39.6875 34.4297 39.6094C35.1797 39.3125 35.9609 38.1797 36.7734 36.2109L32.4141 26.6016H31.3359V25.9922H36.2812V26.6016H34.7578L37.8281 33.6797L40.6406 26.6016H38.9062V25.9922H42.5156C42.5156 26.1172 42.5078 26.2188 42.4922 26.2969C42.4453 26.5 42.2578 26.6016 41.9297 26.6016C41.8203 26.6016 41.7188 26.6094 41.625 26.625C41.4219 26.6719 41.2422 26.9062 41.0859 27.3281L37.5938 36.1172C37.2656 36.9453 36.9219 37.6562 36.5625 38.25C35.6719 39.75 34.5938 40.5 33.3281 40.5C32.8906 40.5 32.4922 40.4219 32.1328 40.2656C31.4766 39.9531 31.1484 39.5234 31.1484 38.9766C31.1484 38.8984 31.1562 38.8203 31.1719 38.7422C31.2969 38.2734 31.6172 38.0391 32.1328 38.0391C32.3516 38.0391 32.5391 38.0938 32.6953 38.2031C32.8672 38.3125 33.0469 38.625 33.2344 39.1406C33.375 39.5312 33.5781 39.7266 33.8438 39.7266Z" fill="#FF8F1F"/>
<path d="M51.3101 27.768C50.9741 27.768 50.7101 27.68 50.5181 27.504C50.3261 27.312 50.2301 27.048 50.2301 26.712C50.2301 26.376 50.3261 26.12 50.5181 25.944C50.7101 25.752 50.9741 25.656 51.3101 25.656H61.2461C61.5981 25.656 61.8621 25.752 62.0381 25.944C62.2301 26.12 62.3261 26.376 62.3261 26.712C62.3261 27.048 62.2301 27.312 62.0381 27.504C61.8621 27.68 61.5981 27.768 61.2461 27.768H51.3101ZM51.3101 32.544C50.9741 32.544 50.7101 32.456 50.5181 32.28C50.3261 32.088 50.2301 31.824 50.2301 31.488C50.2301 31.152 50.3261 30.896 50.5181 30.72C50.7101 30.544 50.9741 30.456 51.3101 30.456H61.2461C61.5981 30.456 61.8621 30.544 62.0381 30.72C62.2301 30.896 62.3261 31.152 62.3261 31.488C62.3261 31.84 62.2301 32.104 62.0381 32.28C61.8621 32.456 61.5981 32.544 61.2461 32.544H51.3101ZM108.731 35.232C108.379 35.232 108.107 35.136 107.915 34.944C107.723 34.736 107.627 34.456 107.627 34.104V30.168H103.763C103.427 30.168 103.163 30.08 102.971 29.904C102.779 29.712 102.683 29.448 102.683 29.112C102.683 28.776 102.779 28.52 102.971 28.344C103.163 28.152 103.427 28.056 103.763 28.056H107.627V24.24C107.627 23.888 107.723 23.616 107.915 23.424C108.107 23.232 108.387 23.136 108.755 23.136C109.107 23.136 109.371 23.232 109.547 23.424C109.739 23.616 109.835 23.888 109.835 24.24V28.056H113.699C114.051 28.056 114.315 28.152 114.491 28.344C114.683 28.52 114.779 28.776 114.779 29.112C114.779 29.448 114.683 29.712 114.491 29.904C114.315 30.08 114.051 30.168 113.699 30.168H109.835V34.104C109.835 34.456 109.739 34.736 109.547 34.944C109.371 35.136 109.099 35.232 108.731 35.232ZM126.182 36C125.766 36 125.438 35.888 125.198 35.664C124.974 35.424 124.862 35.104 124.862 34.704C124.862 34.288 124.974 33.976 125.198 33.768C125.438 33.56 125.766 33.456 126.182 33.456H128.87V21.672H130.358L126.83 23.808C126.526 23.984 126.238 24.056 125.965 24.024C125.71 23.976 125.486 23.864 125.294 23.688C125.118 23.496 124.998 23.272 124.934 23.016C124.87 22.76 124.886 22.504 124.982 22.248C125.094 21.976 125.302 21.752 125.605 21.576L128.918 19.584C129.238 19.392 129.558 19.232 129.878 19.104C130.198 18.96 130.494 18.888 130.766 18.888C131.102 18.888 131.382 18.984 131.606 19.176C131.83 19.352 131.942 19.648 131.942 20.064V33.456H134.39C134.806 33.456 135.126 33.56 135.35 33.768C135.59 33.976 135.71 34.288 135.71 34.704C135.71 35.12 135.59 35.44 135.35 35.664C135.126 35.888 134.806 36 134.39 36H126.182ZM22.318 64.16C21.9047 64.16 21.5847 64.0467 21.358 63.82C21.1447 63.58 21.038 63.2533 21.038 62.84V51.2C21.038 50.7733 21.1514 50.4533 21.378 50.24C21.6047 50.0133 21.9247 49.9 22.338 49.9H27.158C28.7047 49.9 29.898 50.2867 30.738 51.06C31.578 51.8333 31.998 52.9133 31.998 54.3C31.998 55.6867 31.578 56.7733 30.738 57.56C29.898 58.3333 28.7047 58.72 27.158 58.72H23.598V62.84C23.598 63.2533 23.4914 63.58 23.278 63.82C23.0647 64.0467 22.7447 64.16 22.318 64.16ZM23.598 56.7H26.758C27.6647 56.7 28.3514 56.5 28.818 56.1C29.2847 55.6867 29.518 55.0867 29.518 54.3C29.518 53.5133 29.2847 52.92 28.818 52.52C28.3514 52.12 27.6647 51.92 26.758 51.92H23.598V56.7ZM37.8166 64.2C36.8033 64.2 35.9233 63.9933 35.1766 63.58C34.43 63.1667 33.85 62.58 33.4366 61.82C33.0233 61.0467 32.8166 60.14 32.8166 59.1C32.8166 58.3133 32.93 57.6133 33.1566 57C33.3966 56.3733 33.7366 55.84 34.1766 55.4C34.6166 54.9467 35.1433 54.6067 35.7566 54.38C36.37 54.14 37.0566 54.02 37.8166 54.02C38.83 54.02 39.71 54.2267 40.4566 54.64C41.2033 55.0533 41.7833 55.64 42.1966 56.4C42.61 57.16 42.8166 58.06 42.8166 59.1C42.8166 59.8867 42.6966 60.5933 42.4566 61.22C42.23 61.8467 41.8966 62.3867 41.4566 62.84C41.0166 63.28 40.49 63.62 39.8766 63.86C39.2633 64.0867 38.5766 64.2 37.8166 64.2ZM37.8166 62.3C38.31 62.3 38.7433 62.18 39.1166 61.94C39.49 61.7 39.7766 61.3467 39.9766 60.88C40.19 60.4 40.2966 59.8067 40.2966 59.1C40.2966 58.0333 40.07 57.24 39.6166 56.72C39.1633 56.1867 38.5633 55.92 37.8166 55.92C37.3233 55.92 36.89 56.04 36.5166 56.28C36.1433 56.5067 35.85 56.86 35.6366 57.34C35.4366 57.8067 35.3366 58.3933 35.3366 59.1C35.3366 60.1533 35.5633 60.9533 36.0166 61.5C36.47 62.0333 37.07 62.3 37.8166 62.3ZM48.4601 64.2C47.8867 64.2 47.2801 64.14 46.6401 64.02C46.0001 63.9 45.4267 63.6933 44.9201 63.4C44.7067 63.2667 44.5534 63.1133 44.4601 62.94C44.3801 62.7533 44.3467 62.5733 44.3601 62.4C44.3867 62.2133 44.4534 62.0533 44.5601 61.92C44.6801 61.7867 44.8267 61.7 45.0001 61.66C45.1867 61.62 45.3867 61.6533 45.6001 61.76C46.1334 62.0133 46.6334 62.1933 47.1001 62.3C47.5667 62.3933 48.0267 62.44 48.4801 62.44C49.1201 62.44 49.5934 62.3333 49.9001 62.12C50.2201 61.8933 50.3801 61.6 50.3801 61.24C50.3801 60.9333 50.2734 60.7 50.0601 60.54C49.8601 60.3667 49.5534 60.24 49.1401 60.16L47.1401 59.78C46.3134 59.62 45.6801 59.32 45.2401 58.88C44.8134 58.4267 44.6001 57.8467 44.6001 57.14C44.6001 56.5 44.7734 55.9467 45.1201 55.48C45.4801 55.0133 45.9734 54.6533 46.6001 54.4C47.2267 54.1467 47.9467 54.02 48.7601 54.02C49.3467 54.02 49.8934 54.0867 50.4001 54.22C50.9201 54.34 51.4201 54.5333 51.9001 54.8C52.1001 54.9067 52.2334 55.0467 52.3001 55.22C52.3801 55.3933 52.4001 55.5733 52.3601 55.76C52.3201 55.9333 52.2401 56.0933 52.1201 56.24C52.0001 56.3733 51.8467 56.46 51.6601 56.5C51.4867 56.5267 51.2867 56.4867 51.0601 56.38C50.6467 56.1667 50.2467 56.0133 49.8601 55.92C49.4867 55.8267 49.1267 55.78 48.7801 55.78C48.1267 55.78 47.6401 55.8933 47.3201 56.12C47.0134 56.3467 46.8601 56.6467 46.8601 57.02C46.8601 57.3 46.9534 57.5333 47.1401 57.72C47.3267 57.9067 47.6134 58.0333 48.0001 58.1L50.0001 58.48C50.8667 58.64 51.5201 58.9333 51.9601 59.36C52.4134 59.7867 52.6401 60.36 52.6401 61.08C52.6401 62.0533 52.2601 62.82 51.5001 63.38C50.7401 63.9267 49.7267 64.2 48.4601 64.2ZM55.8857 64.14C55.4857 64.14 55.179 64.02 54.9657 63.78C54.7524 63.54 54.6457 63.2067 54.6457 62.78V55.44C54.6457 55 54.7524 54.6667 54.9657 54.44C55.179 54.2 55.4857 54.08 55.8857 54.08C56.2857 54.08 56.5924 54.2 56.8057 54.44C57.0324 54.6667 57.1457 55 57.1457 55.44V62.78C57.1457 63.2067 57.039 63.54 56.8257 63.78C56.6124 64.02 56.299 64.14 55.8857 64.14ZM55.8857 52.22C55.419 52.22 55.0524 52.1067 54.7857 51.88C54.5324 51.64 54.4057 51.3133 54.4057 50.9C54.4057 50.4733 54.5324 50.1467 54.7857 49.92C55.0524 49.6933 55.419 49.58 55.8857 49.58C56.3657 49.58 56.7324 49.6933 56.9857 49.92C57.239 50.1467 57.3657 50.4733 57.3657 50.9C57.3657 51.3133 57.239 51.64 56.9857 51.88C56.7324 52.1067 56.3657 52.22 55.8857 52.22ZM64.2234 64.2C63.3567 64.2 62.63 64.0533 62.0434 63.76C61.47 63.4667 61.0434 63.04 60.7634 62.48C60.4834 61.9067 60.3434 61.2 60.3434 60.36V56.1H59.3034C58.9834 56.1 58.7367 56.02 58.5634 55.86C58.39 55.6867 58.3034 55.4533 58.3034 55.16C58.3034 54.8533 58.39 54.62 58.5634 54.46C58.7367 54.3 58.9834 54.22 59.3034 54.22H60.3434V52.4C60.3434 51.9867 60.45 51.6733 60.6634 51.46C60.89 51.2467 61.2034 51.14 61.6034 51.14C62.0034 51.14 62.31 51.2467 62.5234 51.46C62.7367 51.6733 62.8434 51.9867 62.8434 52.4V54.22H64.9634C65.2834 54.22 65.53 54.3 65.7034 54.46C65.8767 54.62 65.9634 54.8533 65.9634 55.16C65.9634 55.4533 65.8767 55.6867 65.7034 55.86C65.53 56.02 65.2834 56.1 64.9634 56.1H62.8434V60.22C62.8434 60.86 62.9834 61.34 63.2634 61.66C63.5434 61.98 63.9967 62.14 64.6234 62.14C64.85 62.14 65.05 62.12 65.2234 62.08C65.3967 62.04 65.55 62.0133 65.6834 62C65.8434 61.9867 65.9767 62.04 66.0834 62.16C66.19 62.2667 66.2434 62.4933 66.2434 62.84C66.2434 63.1067 66.1967 63.3467 66.1034 63.56C66.0234 63.76 65.87 63.9 65.6434 63.98C65.47 64.0333 65.2434 64.08 64.9634 64.12C64.6834 64.1733 64.4367 64.2 64.2234 64.2ZM68.913 64.14C68.513 64.14 68.2064 64.02 67.993 63.78C67.7797 63.54 67.673 63.2067 67.673 62.78V55.44C67.673 55 67.7797 54.6667 67.993 54.44C68.2064 54.2 68.513 54.08 68.913 54.08C69.313 54.08 69.6197 54.2 69.833 54.44C70.0597 54.6667 70.173 55 70.173 55.44V62.78C70.173 63.2067 70.0664 63.54 69.853 63.78C69.6397 64.02 69.3264 64.14 68.913 64.14ZM68.913 52.22C68.4464 52.22 68.0797 52.1067 67.813 51.88C67.5597 51.64 67.433 51.3133 67.433 50.9C67.433 50.4733 67.5597 50.1467 67.813 49.92C68.0797 49.6933 68.4464 49.58 68.913 49.58C69.393 49.58 69.7597 49.6933 70.013 49.92C70.2664 50.1467 70.393 50.4733 70.393 50.9C70.393 51.3133 70.2664 51.64 70.013 51.88C69.7597 52.1067 69.393 52.22 68.913 52.22ZM76.7307 64.16C76.3974 64.16 76.104 64.0733 75.8507 63.9C75.6107 63.7267 75.4107 63.46 75.2507 63.1L72.0707 55.72C71.9507 55.4267 71.904 55.1533 71.9307 54.9C71.9707 54.6467 72.0907 54.4467 72.2907 54.3C72.504 54.14 72.7907 54.06 73.1507 54.06C73.4574 54.06 73.704 54.1333 73.8907 54.28C74.0774 54.4133 74.244 54.6733 74.3907 55.06L77.0907 61.8H76.4907L79.2707 55.04C79.4174 54.6667 79.584 54.4133 79.7707 54.28C79.9707 54.1333 80.2374 54.06 80.5707 54.06C80.864 54.06 81.0974 54.14 81.2707 54.3C81.444 54.4467 81.5507 54.6467 81.5907 54.9C81.6307 55.14 81.584 55.4067 81.4507 55.7L78.2107 63.1C78.064 63.46 77.864 63.7267 77.6107 63.9C77.3707 64.0733 77.0774 64.16 76.7307 64.16ZM87.9423 64.2C86.8356 64.2 85.8823 63.9933 85.0823 63.58C84.2823 63.1667 83.6623 62.58 83.2223 61.82C82.7956 61.06 82.5823 60.16 82.5823 59.12C82.5823 58.1067 82.7889 57.22 83.2023 56.46C83.6289 55.7 84.2089 55.1067 84.9423 54.68C85.6889 54.24 86.5356 54.02 87.4823 54.02C88.1756 54.02 88.7956 54.1333 89.3423 54.36C89.9023 54.5867 90.3756 54.9133 90.7623 55.34C91.1623 55.7667 91.4623 56.2867 91.6623 56.9C91.8756 57.5 91.9823 58.18 91.9823 58.94C91.9823 59.18 91.8956 59.3667 91.7223 59.5C91.5623 59.62 91.3289 59.68 91.0223 59.68H84.6023V58.24H90.2223L89.9023 58.54C89.9023 57.9267 89.8089 57.4133 89.6223 57C89.4489 56.5867 89.1889 56.2733 88.8423 56.06C88.5089 55.8333 88.0889 55.72 87.5823 55.72C87.0223 55.72 86.5423 55.8533 86.1423 56.12C85.7556 56.3733 85.4556 56.74 85.2423 57.22C85.0423 57.6867 84.9423 58.2467 84.9423 58.9V59.04C84.9423 60.1333 85.1956 60.9533 85.7023 61.5C86.2223 62.0333 86.9823 62.3 87.9823 62.3C88.3289 62.3 88.7156 62.26 89.1423 62.18C89.5823 62.0867 89.9956 61.9333 90.3823 61.72C90.6623 61.56 90.9089 61.4933 91.1223 61.52C91.3356 61.5333 91.5023 61.6067 91.6223 61.74C91.7556 61.8733 91.8356 62.04 91.8623 62.24C91.8889 62.4267 91.8489 62.62 91.7423 62.82C91.6489 63.02 91.4823 63.1933 91.2423 63.34C90.7756 63.6333 90.2356 63.8533 89.6223 64C89.0223 64.1333 88.4623 64.2 87.9423 64.2ZM102.972 64.2C102.398 64.2 101.792 64.14 101.152 64.02C100.512 63.9 99.9385 63.6933 99.4318 63.4C99.2185 63.2667 99.0651 63.1133 98.9718 62.94C98.8918 62.7533 98.8585 62.5733 98.8718 62.4C98.8985 62.2133 98.9651 62.0533 99.0718 61.92C99.1918 61.7867 99.3385 61.7 99.5118 61.66C99.6985 61.62 99.8985 61.6533 100.112 61.76C100.645 62.0133 101.145 62.1933 101.612 62.3C102.078 62.3933 102.538 62.44 102.992 62.44C103.632 62.44 104.105 62.3333 104.412 62.12C104.732 61.8933 104.892 61.6 104.892 61.24C104.892 60.9333 104.785 60.7 104.572 60.54C104.372 60.3667 104.065 60.24 103.652 60.16L101.652 59.78C100.825 59.62 100.192 59.32 99.7518 58.88C99.3251 58.4267 99.1118 57.8467 99.1118 57.14C99.1118 56.5 99.2851 55.9467 99.6318 55.48C99.9918 55.0133 100.485 54.6533 101.112 54.4C101.738 54.1467 102.458 54.02 103.272 54.02C103.858 54.02 104.405 54.0867 104.912 54.22C105.432 54.34 105.932 54.5333 106.412 54.8C106.612 54.9067 106.745 55.0467 106.812 55.22C106.892 55.3933 106.912 55.5733 106.872 55.76C106.832 55.9333 106.752 56.0933 106.632 56.24C106.512 56.3733 106.358 56.46 106.172 56.5C105.998 56.5267 105.798 56.4867 105.572 56.38C105.158 56.1667 104.758 56.0133 104.372 55.92C103.998 55.8267 103.638 55.78 103.292 55.78C102.638 55.78 102.152 55.8933 101.832 56.12C101.525 56.3467 101.372 56.6467 101.372 57.02C101.372 57.3 101.465 57.5333 101.652 57.72C101.838 57.9067 102.125 58.0333 102.512 58.1L104.512 58.48C105.378 58.64 106.032 58.9333 106.472 59.36C106.925 59.7867 107.152 60.36 107.152 61.08C107.152 62.0533 106.772 62.82 106.012 63.38C105.252 63.9267 104.238 64.2 102.972 64.2ZM112.497 64.2C111.391 64.2 110.557 63.8867 109.997 63.26C109.437 62.62 109.157 61.6867 109.157 60.46V51C109.157 50.5867 109.264 50.2733 109.477 50.06C109.691 49.8467 109.997 49.74 110.397 49.74C110.797 49.74 111.104 49.8467 111.317 50.06C111.544 50.2733 111.657 50.5867 111.657 51V60.34C111.657 60.9533 111.784 61.4067 112.037 61.7C112.304 61.9933 112.677 62.14 113.157 62.14C113.264 62.14 113.364 62.14 113.457 62.14C113.551 62.1267 113.644 62.1133 113.737 62.1C113.924 62.0733 114.051 62.1267 114.117 62.26C114.184 62.38 114.217 62.6333 114.217 63.02C114.217 63.3533 114.151 63.6133 114.017 63.8C113.884 63.9867 113.664 64.1 113.357 64.14C113.224 64.1533 113.084 64.1667 112.937 64.18C112.791 64.1933 112.644 64.2 112.497 64.2ZM119.906 64.2C118.893 64.2 118.013 63.9933 117.266 63.58C116.52 63.1667 115.94 62.58 115.526 61.82C115.113 61.0467 114.906 60.14 114.906 59.1C114.906 58.3133 115.02 57.6133 115.246 57C115.486 56.3733 115.826 55.84 116.266 55.4C116.706 54.9467 117.233 54.6067 117.846 54.38C118.46 54.14 119.146 54.02 119.906 54.02C120.92 54.02 121.8 54.2267 122.546 54.64C123.293 55.0533 123.873 55.64 124.286 56.4C124.7 57.16 124.906 58.06 124.906 59.1C124.906 59.8867 124.786 60.5933 124.546 61.22C124.32 61.8467 123.986 62.3867 123.546 62.84C123.106 63.28 122.58 63.62 121.966 63.86C121.353 64.0867 120.666 64.2 119.906 64.2ZM119.906 62.3C120.4 62.3 120.833 62.18 121.206 61.94C121.58 61.7 121.866 61.3467 122.066 60.88C122.28 60.4 122.386 59.8067 122.386 59.1C122.386 58.0333 122.16 57.24 121.706 56.72C121.253 56.1867 120.653 55.92 119.906 55.92C119.413 55.92 118.98 56.04 118.606 56.28C118.233 56.5067 117.94 56.86 117.726 57.34C117.526 57.8067 117.426 58.3933 117.426 59.1C117.426 60.1533 117.653 60.9533 118.106 61.5C118.56 62.0333 119.16 62.3 119.906 62.3ZM128.21 67.76C127.81 67.76 127.503 67.6533 127.29 67.44C127.077 67.2267 126.97 66.9133 126.97 66.5V55.32C126.97 54.9067 127.077 54.5933 127.29 54.38C127.503 54.1667 127.803 54.06 128.19 54.06C128.59 54.06 128.897 54.1667 129.11 54.38C129.323 54.5933 129.43 54.9067 129.43 55.32V56.88L129.21 56.28C129.41 55.6 129.817 55.0533 130.43 54.64C131.057 54.2267 131.783 54.02 132.61 54.02C133.463 54.02 134.21 54.2267 134.85 54.64C135.503 55.0533 136.01 55.64 136.37 56.4C136.73 57.1467 136.91 58.0467 136.91 59.1C136.91 60.14 136.73 61.0467 136.37 61.82C136.01 62.58 135.51 63.1667 134.87 63.58C134.23 63.9933 133.477 64.2 132.61 64.2C131.797 64.2 131.083 64 130.47 63.6C129.857 63.1867 129.443 62.6533 129.23 62H129.47V66.5C129.47 66.9133 129.357 67.2267 129.13 67.44C128.917 67.6533 128.61 67.76 128.21 67.76ZM131.91 62.3C132.403 62.3 132.837 62.18 133.21 61.94C133.583 61.7 133.87 61.3467 134.07 60.88C134.283 60.4 134.39 59.8067 134.39 59.1C134.39 58.0333 134.163 57.24 133.71 56.72C133.257 56.1867 132.657 55.92 131.91 55.92C131.417 55.92 130.983 56.04 130.61 56.28C130.237 56.5067 129.943 56.86 129.73 57.34C129.53 57.8067 129.43 58.3933 129.43 59.1C129.43 60.1533 129.657 60.9533 130.11 61.5C130.563 62.0333 131.163 62.3 131.91 62.3ZM143.782 64.2C142.675 64.2 141.722 63.9933 140.922 63.58C140.122 63.1667 139.502 62.58 139.062 61.82C138.635 61.06 138.422 60.16 138.422 59.12C138.422 58.1067 138.629 57.22 139.042 56.46C139.469 55.7 140.049 55.1067 140.782 54.68C141.529 54.24 142.375 54.02 143.322 54.02C144.015 54.02 144.635 54.1333 145.182 54.36C145.742 54.5867 146.215 54.9133 146.602 55.34C147.002 55.7667 147.302 56.2867 147.502 56.9C147.715 57.5 147.822 58.18 147.822 58.94C147.822 59.18 147.735 59.3667 147.562 59.5C147.402 59.62 147.169 59.68 146.862 59.68H140.442V58.24H146.062L145.742 58.54C145.742 57.9267 145.649 57.4133 145.462 57C145.289 56.5867 145.029 56.2733 144.682 56.06C144.349 55.8333 143.929 55.72 143.422 55.72C142.862 55.72 142.382 55.8533 141.982 56.12C141.595 56.3733 141.295 56.74 141.082 57.22C140.882 57.6867 140.782 58.2467 140.782 58.9V59.04C140.782 60.1333 141.035 60.9533 141.542 61.5C142.062 62.0333 142.822 62.3 143.822 62.3C144.169 62.3 144.555 62.26 144.982 62.18C145.422 62.0867 145.835 61.9333 146.222 61.72C146.502 61.56 146.749 61.4933 146.962 61.52C147.175 61.5333 147.342 61.6067 147.462 61.74C147.595 61.8733 147.675 62.04 147.702 62.24C147.729 62.4267 147.689 62.62 147.582 62.82C147.489 63.02 147.322 63.1933 147.082 63.34C146.615 63.6333 146.075 63.8533 145.462 64C144.862 64.1333 144.302 64.2 143.782 64.2Z" fill="#646464"/>
<path d="M73.1764 36C72.6644 36 72.2884 35.888 72.0484 35.664C71.8244 35.424 71.7124 35.08 71.7124 34.632C71.7124 34.36 71.7844 34.096 71.9284 33.84C72.0724 33.584 72.2804 33.312 72.5524 33.024L77.3764 27.888C78.1124 27.12 78.6404 26.424 78.9604 25.8C79.2804 25.16 79.4404 24.52 79.4404 23.88C79.4404 23.08 79.1844 22.472 78.6724 22.056C78.1764 21.64 77.4484 21.432 76.4884 21.432C75.9444 21.432 75.4004 21.512 74.8564 21.672C74.3124 21.816 73.7604 22.072 73.2004 22.44C72.9124 22.632 72.6404 22.712 72.3844 22.68C72.1444 22.648 71.9284 22.544 71.7364 22.368C71.5604 22.192 71.4404 21.976 71.3764 21.72C71.3124 21.464 71.3204 21.208 71.4004 20.952C71.4964 20.68 71.6884 20.448 71.9764 20.256C72.6644 19.792 73.4324 19.44 74.2804 19.2C75.1444 18.96 76.0084 18.84 76.8724 18.84C78.0884 18.84 79.1124 19.024 79.9444 19.392C80.7764 19.76 81.4084 20.296 81.8404 21C82.2724 21.704 82.4884 22.56 82.4884 23.568C82.4884 24.24 82.3764 24.896 82.1524 25.536C81.9444 26.176 81.6164 26.824 81.1684 27.48C80.7364 28.136 80.1684 28.832 79.4644 29.568L74.9524 34.272V33.456H82.0084C82.4404 33.456 82.7684 33.56 82.9924 33.768C83.2164 33.976 83.3284 34.288 83.3284 34.704C83.3284 35.12 83.2164 35.44 82.9924 35.664C82.7684 35.888 82.4404 36 82.0084 36H73.1764ZM84.4453 36C84.4453 35.8906 84.4531 35.7891 84.4688 35.6953C84.5 35.5391 84.6328 35.4453 84.8672 35.4141C85.3203 35.3516 85.7109 35.1172 86.0391 34.7109L88.7344 31.2422L85.5703 26.5781H84.4688V25.9922H89.4609V26.5781H88.0078L90.2812 29.9531L92.7656 26.5781H91.1719V25.9922H94.6641C94.6641 26.1016 94.6562 26.2031 94.6406 26.2969C94.5938 26.4531 94.4531 26.5391 94.2188 26.5547C93.7344 26.6172 93.3359 26.8594 93.0234 27.2812L90.6562 30.5156L93.9609 35.4141H94.4297C94.5078 35.4141 94.5859 35.4219 94.6641 35.4375C94.8984 35.4688 95.0156 35.6562 95.0156 36H90.2109V35.4141H91.5938L89.1328 31.7812L86.3203 35.4141H88.0312V36H84.4453Z" fill="#AA5EE0"/>
<rect x="7.25" y="0.25" width="153.5" height="83.5" rx="7.75" stroke="#1A1A1A" stroke-width="0.5"/>
<circle cx="161" cy="84" r="11.5" fill="white" stroke="#1A1A1A"/>
<path d="M161.016 85.752C160.813 85.752 160.653 85.688 160.536 85.56C160.429 85.432 160.365 85.2507 160.344 85.016L159.864 78.904C159.832 78.5093 159.917 78.1947 160.12 77.96C160.322 77.7147 160.621 77.592 161.016 77.592C161.4 77.592 161.688 77.7147 161.88 77.96C162.082 78.1947 162.168 78.5093 162.136 78.904L161.656 85.016C161.645 85.2507 161.581 85.432 161.464 85.56C161.357 85.688 161.208 85.752 161.016 85.752ZM161.016 89.08C160.653 89.08 160.36 88.968 160.136 88.744C159.922 88.52 159.816 88.232 159.816 87.88C159.816 87.5387 159.922 87.2613 160.136 87.048C160.36 86.824 160.653 86.712 161.016 86.712C161.389 86.712 161.677 86.824 161.88 87.048C162.093 87.2613 162.2 87.5387 162.2 87.88C162.2 88.232 162.093 88.52 161.88 88.744C161.677 88.968 161.389 89.08 161.016 89.08Z" fill="#1A1A1A"/>
<rect x="7" y="8" width="1" height="12" fill="white"/>
<path d="M6.66515 19.7472C6.9868 20.0372 7.5 19.809 7.5 19.3758L7.5 8.5713C7.5 8.14674 7.00428 7.91538 6.67887 8.18806L0.538462 13.3333L0.467183 13.3922C0.224893 13.5922 0.224893 13.9634 0.467183 14.1634L0.538462 14.2222L6.66515 19.7472Z" fill="white"/>
<path d="M7 20L0.867016 14.4632C0.411469 14.0519 0.430445 13.3312 0.907 12.9444L7 8" stroke="#1A1A1A" stroke-width="0.5" stroke-linecap="square"/>
</svg>
