<svg width="45" height="44" viewBox="0 0 45 44" fill="none" xmlns="http://www.w3.org/2000/svg">
<circle cx="22.5" cy="22" r="21" fill="#F1EDFF" stroke="#7F5CF4" stroke-width="2"/>
<path d="M16.9895 29.516C16.6721 29.6467 16.3828 29.6747 16.1215 29.6C15.8788 29.5253 15.6828 29.3853 15.5335 29.18C15.3841 28.9747 15.3001 28.7507 15.2815 28.508C15.2628 28.2467 15.3188 28.004 15.4495 27.78C15.5801 27.5373 15.7948 27.3507 16.0935 27.22L28.3015 22.096V23.832L16.0935 18.708C15.7948 18.5773 15.5801 18.4 15.4495 18.176C15.3188 17.9333 15.2628 17.6813 15.2815 17.42C15.3001 17.1587 15.3841 16.9253 15.5335 16.72C15.6828 16.5147 15.8788 16.3747 16.1215 16.3C16.3828 16.2253 16.6721 16.2533 16.9895 16.384L28.1895 21.144C29.0481 21.4987 29.4775 22.096 29.4775 22.936C29.4775 23.3653 29.3655 23.7387 29.1415 24.056C28.9361 24.3547 28.6188 24.5973 28.1895 24.784L16.9895 29.516Z" fill="#7F5CF4"/>
</svg>
