<svg width="557" height="557" viewBox="0 0 557 557" fill="none" xmlns="http://www.w3.org/2000/svg">
<g clip-path="url(#clip0_689_7318)">
<path d="M-23.9941 2.03857H581.006" stroke="#BCD3FF" stroke-linecap="round" stroke-linejoin="round"/>
<path d="M-23.9941 48.0386H581.006" stroke="#BCD3FF" stroke-linecap="round" stroke-linejoin="round"/>
<path d="M-23.9941 94.0386H581.006" stroke="#BCD3FF" stroke-linecap="round" stroke-linejoin="round"/>
<path d="M-23.9941 140.039H581.006" stroke="#BCD3FF" stroke-linecap="round" stroke-linejoin="round"/>
<path d="M-23.9941 186.039H581.006" stroke="#BCD3FF" stroke-linecap="round" stroke-linejoin="round"/>
<path d="M-23.9941 232.039H581.006" stroke="#BCD3FF" stroke-linecap="round" stroke-linejoin="round"/>
<path d="M-23.9941 278.039H581.006" stroke="#BCD3FF" stroke-linecap="round" stroke-linejoin="round"/>
<path d="M-23.9941 324.039H581.006" stroke="#BCD3FF" stroke-linecap="round" stroke-linejoin="round"/>
<path d="M-23.9941 370.039H581.006" stroke="#BCD3FF" stroke-linecap="round" stroke-linejoin="round"/>
<path d="M-23.9941 416.039H581.006" stroke="#BCD3FF" stroke-linecap="round" stroke-linejoin="round"/>
<path d="M-23.9941 462.039H581.006" stroke="#BCD3FF" stroke-linecap="round" stroke-linejoin="round"/>
<path d="M-23.9941 508.039H581.006" stroke="#BCD3FF" stroke-linecap="round" stroke-linejoin="round"/>
<path d="M-23.9941 554.039H581.006" stroke="#BCD3FF" stroke-linecap="round" stroke-linejoin="round"/>
<path d="M554.506 -23.9614L554.506 581.039" stroke="#BCD3FF" stroke-linecap="round" stroke-linejoin="round"/>
<path d="M508.506 -23.9614L508.506 581.039" stroke="#BCD3FF" stroke-linecap="round" stroke-linejoin="round"/>
<path d="M462.506 -23.9614L462.506 581.039" stroke="#BCD3FF" stroke-linecap="round" stroke-linejoin="round"/>
<path d="M416.506 -23.9614L416.506 581.039" stroke="#BCD3FF" stroke-linecap="round" stroke-linejoin="round"/>
<path d="M370.506 -23.9614L370.506 581.039" stroke="#BCD3FF" stroke-linecap="round" stroke-linejoin="round"/>
<path d="M324.506 -23.9614L324.506 581.039" stroke="#BCD3FF" stroke-linecap="round" stroke-linejoin="round"/>
<path d="M278.506 -23.9614L278.506 581.039" stroke="#BCD3FF" stroke-linecap="round" stroke-linejoin="round"/>
<path d="M232.506 -23.9614L232.506 581.039" stroke="#BCD3FF" stroke-linecap="round" stroke-linejoin="round"/>
<path d="M186.506 -23.9614L186.506 581.039" stroke="#BCD3FF" stroke-linecap="round" stroke-linejoin="round"/>
<path d="M140.506 -23.9614L140.506 581.039" stroke="#BCD3FF" stroke-linecap="round" stroke-linejoin="round"/>
<path d="M94.5059 -23.9614L94.5058 581.039" stroke="#BCD3FF" stroke-linecap="round" stroke-linejoin="round"/>
<path d="M48.5059 -23.9614L48.5058 581.039" stroke="#BCD3FF" stroke-linecap="round" stroke-linejoin="round"/>
<path d="M2.50586 -23.9614L2.50583 581.039" stroke="#BCD3FF" stroke-linecap="round" stroke-linejoin="round"/>
</g>
<defs>
<clipPath id="clip0_689_7318">
<rect width="556" height="556" fill="white" transform="translate(0.505859 0.0385742)"/>
</clipPath>
</defs>
</svg>
