<svg width="21" height="21" viewBox="0 0 21 21" fill="none" xmlns="http://www.w3.org/2000/svg">
<path d="M20.5156 20.5155L20.5151 20.516C20.4254 20.606 20.3188 20.6775 20.2014 20.7262C20.0841 20.7749 19.9583 20.8 19.8312 20.8C19.7041 20.8 19.5783 20.7749 19.461 20.7262C19.3436 20.6775 19.237 20.606 19.1473 20.516L19.1471 20.5158L14.5348 15.9034L14.4108 15.7794L14.2717 15.8862C12.5099 17.2382 10.2997 17.8694 8.08965 17.6518C5.87956 17.4342 3.83499 16.384 2.3707 14.7143C0.90641 13.0447 0.132043 10.8805 0.204685 8.66084C0.277327 6.44119 1.19154 4.33229 2.76187 2.76192C4.33219 1.19156 6.44105 0.277329 8.66064 0.204685C10.8802 0.132041 13.0443 0.906425 14.714 2.37075C16.3836 3.83507 17.4338 5.87969 17.6514 8.08983C17.869 10.3 17.2378 12.5101 15.8858 14.272L15.779 14.4112L15.9031 14.5352L20.5197 19.1509C20.5197 19.151 20.5198 19.1511 20.5199 19.1512C20.7 19.3327 20.8008 19.5783 20.8 19.834C20.7992 20.0899 20.697 20.335 20.5156 20.5155ZM8.95444 15.7592H8.95468C10.3004 15.7592 11.6159 15.3602 12.7349 14.6125C13.8538 13.8648 14.7259 12.8021 15.2409 11.5588C15.7559 10.3155 15.8907 8.94734 15.6281 7.62743C15.3656 6.30751 14.7176 5.0951 13.766 4.14349C12.8144 3.19188 11.602 2.54383 10.2821 2.28129C8.96223 2.01874 7.59413 2.15349 6.35083 2.66849C5.10752 3.1835 4.04485 4.05563 3.2972 5.1746C2.54954 6.29357 2.15049 7.60912 2.15049 8.95489L2.15049 8.95512C2.1526 10.759 2.87013 12.4885 4.14566 13.764C5.42119 15.0396 7.15057 15.7571 8.95444 15.7592Z" fill="white" stroke="black" stroke-width="0.4"/>
<path d="M5.52374 9.07576L7.89163 10.8517L12.6274 7.2998" stroke="white" stroke-width="1.5" stroke-linecap="round"/>
</svg>
