<svg width="140" height="28" viewBox="0 0 140 28" fill="none" xmlns="http://www.w3.org/2000/svg">
<path d="M22.2844 18.3041C22.4252 18.4463 22.5042 18.6383 22.5042 18.8385C22.5042 19.0386 22.4252 19.2306 22.2844 19.3728L20.0344 21.6228C19.891 21.7614 19.6994 21.8389 19.5 21.8389C19.3006 21.8389 19.109 21.7614 18.9656 21.6228C18.8248 21.4806 18.7458 21.2886 18.7458 21.0885C18.7458 20.8883 18.8248 20.6963 18.9656 20.5541L19.9406 19.5885H18.8344C17.7596 19.5866 16.7008 19.3288 15.7455 18.8365C14.7902 18.3441 13.9658 17.6314 13.3406 16.7572L9.43125 11.2916C8.94613 10.6122 8.30623 10.058 7.56449 9.6749C6.82274 9.2918 6.00046 9.09078 5.16562 9.08846H3C2.80109 9.08846 2.61032 9.00944 2.46967 8.86879C2.32902 8.72813 2.25 8.53737 2.25 8.33846C2.25 8.13954 2.32902 7.94878 2.46967 7.80813C2.61032 7.66747 2.80109 7.58846 3 7.58846H5.16562C6.24035 7.59035 7.29918 7.84812 8.2545 8.34046C9.20983 8.83279 10.0342 9.54553 10.6594 10.4197L14.5687 15.8853C15.0539 16.5647 15.6938 17.1189 16.4355 17.502C17.1773 17.8851 17.9995 18.0861 18.8344 18.0885H19.9406L18.9656 17.1228C18.846 16.9771 18.7849 16.7921 18.7942 16.6038C18.8034 16.4155 18.8824 16.2374 19.0157 16.1041C19.149 15.9708 19.3271 15.8919 19.5154 15.8826C19.7037 15.8734 19.8887 15.9345 20.0344 16.0541L22.2844 18.3041ZM13.4062 11.6197C13.4867 11.6774 13.5779 11.7185 13.6743 11.7407C13.7708 11.763 13.8707 11.7659 13.9684 11.7494C14.066 11.7328 14.1593 11.6971 14.2431 11.6443C14.3268 11.5914 14.3993 11.5225 14.4562 11.4416L14.5687 11.2916C15.0539 10.6122 15.6938 10.058 16.4355 9.6749C17.1773 9.2918 17.9995 9.09078 18.8344 9.08846H19.9406L18.9656 10.0541C18.8248 10.1963 18.7458 10.3883 18.7458 10.5885C18.7458 10.7886 18.8248 10.9806 18.9656 11.1228C19.109 11.2614 19.3006 11.3389 19.5 11.3389C19.6994 11.3389 19.891 11.2614 20.0344 11.1228L22.2844 8.87283C22.4252 8.73064 22.5042 8.53859 22.5042 8.33846C22.5042 8.13832 22.4252 7.94628 22.2844 7.80408L20.0344 5.55408C19.8887 5.43448 19.7037 5.37337 19.5154 5.38261C19.3271 5.39186 19.149 5.47081 19.0157 5.60411C18.8824 5.73742 18.8034 5.91553 18.7942 6.10382C18.7849 6.29211 18.846 6.47711 18.9656 6.62283L19.9406 7.58846H18.8344C17.7596 7.59035 16.7008 7.84812 15.7455 8.34046C14.7902 8.83279 13.9658 9.54553 13.3406 10.4197L13.2375 10.5697C13.1794 10.6496 13.1376 10.7403 13.1147 10.8364C13.0917 10.9325 13.0879 11.0322 13.1036 11.1298C13.1193 11.2274 13.1541 11.3209 13.206 11.405C13.258 11.489 13.326 11.562 13.4062 11.6197ZM10.5938 15.5572C10.5133 15.4996 10.4221 15.4584 10.3257 15.4362C10.2292 15.4139 10.1293 15.411 10.0316 15.4275C9.93403 15.4441 9.84066 15.4798 9.75692 15.5327C9.67318 15.5855 9.60073 15.6544 9.54375 15.7353L9.43125 15.8853C8.94613 16.5647 8.30623 17.1189 7.56449 17.502C6.82274 17.8851 6.00046 18.0861 5.16562 18.0885H3C2.80109 18.0885 2.61032 18.1675 2.46967 18.3081C2.32902 18.4488 2.25 18.6395 2.25 18.8385C2.25 19.0374 2.32902 19.2281 2.46967 19.3688C2.61032 19.5094 2.80109 19.5885 3 19.5885H5.16562C6.24035 19.5866 7.29918 19.3288 8.2545 18.8365C9.20983 18.3441 10.0342 17.6314 10.6594 16.7572L10.7625 16.6072C10.8206 16.5273 10.8624 16.4366 10.8853 16.3405C10.9083 16.2444 10.9121 16.1447 10.8964 16.0471C10.8807 15.9496 10.8459 15.856 10.794 15.772C10.742 15.6879 10.674 15.6149 10.5938 15.5572Z" fill="#1A1A1A"/>
<g clip-path="url(#clip0_8_124)">
<path d="M43.8663 22.192C43.3703 22.192 42.9863 22.056 42.7143 21.784C42.4583 21.496 42.3303 21.104 42.3303 20.608V7.648H37.6503C37.2343 7.648 36.9063 7.536 36.6663 7.312C36.4423 7.072 36.3303 6.752 36.3303 6.352C36.3303 5.936 36.4423 5.624 36.6663 5.416C36.9063 5.192 37.2343 5.08 37.6503 5.08H50.0823C50.4983 5.08 50.8183 5.192 51.0423 5.416C51.2823 5.624 51.4023 5.936 51.4023 6.352C51.4023 6.752 51.2823 7.072 51.0423 7.312C50.8183 7.536 50.4983 7.648 50.0823 7.648H45.4023V20.608C45.4023 21.104 45.2743 21.496 45.0183 21.784C44.7623 22.056 44.3783 22.192 43.8663 22.192ZM52.5296 22.192C52.0336 22.192 51.6496 22.064 51.3776 21.808C51.1216 21.536 50.9936 21.152 50.9936 20.656V11.584C50.9936 11.088 51.1216 10.712 51.3776 10.456C51.6336 10.2 51.9936 10.072 52.4576 10.072C52.9216 10.072 53.2816 10.2 53.5376 10.456C53.7936 10.712 53.9216 11.088 53.9216 11.584V13.096H53.6816C53.9056 12.136 54.3456 11.408 55.0016 10.912C55.6576 10.416 56.5296 10.12 57.6176 10.024C57.9536 9.992 58.2176 10.08 58.4096 10.288C58.6176 10.48 58.7376 10.784 58.7696 11.2C58.8016 11.6 58.7056 11.928 58.4816 12.184C58.2736 12.424 57.9536 12.568 57.5216 12.616L56.9936 12.664C56.0176 12.76 55.2816 13.064 54.7856 13.576C54.2896 14.072 54.0416 14.776 54.0416 15.688V20.656C54.0416 21.152 53.9136 21.536 53.6576 21.808C53.4016 22.064 53.0256 22.192 52.5296 22.192ZM64.0946 26.512C63.7426 26.512 63.4546 26.416 63.2306 26.224C63.0066 26.048 62.8706 25.808 62.8226 25.504C62.7906 25.2 62.8466 24.88 62.9906 24.544L64.6226 20.92V22.168L60.2546 12.064C60.1106 11.712 60.0626 11.384 60.1106 11.08C60.1586 10.776 60.3026 10.536 60.5426 10.36C60.7986 10.168 61.1426 10.072 61.5746 10.072C61.9426 10.072 62.2386 10.16 62.4626 10.336C62.6866 10.496 62.8866 10.808 63.0626 11.272L66.3026 19.36H65.5826L68.8946 11.248C69.0706 10.8 69.2786 10.496 69.5186 10.336C69.7586 10.16 70.0786 10.072 70.4786 10.072C70.8306 10.072 71.1106 10.168 71.3186 10.36C71.5266 10.536 71.6546 10.776 71.7026 11.08C71.7506 11.368 71.6946 11.688 71.5346 12.04L65.7026 25.36C65.4946 25.808 65.2706 26.112 65.0306 26.272C64.7906 26.432 64.4786 26.512 64.0946 26.512ZM84.131 22.24C83.283 22.24 82.523 22.08 81.851 21.76C81.195 21.424 80.675 20.976 80.291 20.416C79.923 19.856 79.739 19.224 79.739 18.52C79.739 17.656 79.963 16.976 80.411 16.48C80.859 15.968 81.587 15.6 82.595 15.376C83.603 15.152 84.955 15.04 86.651 15.04H87.851V16.768H86.675C85.683 16.768 84.891 16.816 84.299 16.912C83.707 17.008 83.283 17.176 83.027 17.416C82.787 17.64 82.667 17.96 82.667 18.376C82.667 18.904 82.851 19.336 83.219 19.672C83.587 20.008 84.099 20.176 84.755 20.176C85.283 20.176 85.747 20.056 86.147 19.816C86.563 19.56 86.891 19.216 87.131 18.784C87.371 18.352 87.491 17.856 87.491 17.296V14.536C87.491 13.736 87.315 13.16 86.963 12.808C86.611 12.456 86.019 12.28 85.187 12.28C84.723 12.28 84.219 12.336 83.675 12.448C83.147 12.56 82.587 12.752 81.995 13.024C81.691 13.168 81.419 13.208 81.179 13.144C80.955 13.08 80.779 12.952 80.651 12.76C80.523 12.552 80.459 12.328 80.459 12.088C80.459 11.848 80.523 11.616 80.651 11.392C80.779 11.152 80.995 10.976 81.299 10.864C82.035 10.56 82.739 10.344 83.411 10.216C84.099 10.088 84.723 10.024 85.283 10.024C86.435 10.024 87.379 10.2 88.115 10.552C88.867 10.904 89.427 11.44 89.795 12.16C90.163 12.864 90.347 13.776 90.347 14.896V20.656C90.347 21.152 90.227 21.536 89.987 21.808C89.747 22.064 89.403 22.192 88.955 22.192C88.507 22.192 88.155 22.064 87.899 21.808C87.659 21.536 87.539 21.152 87.539 20.656V19.504H87.731C87.619 20.064 87.395 20.552 87.059 20.968C86.739 21.368 86.331 21.68 85.835 21.904C85.339 22.128 84.771 22.24 84.131 22.24ZM98.864 26.56C98 26.56 97.16 26.48 96.344 26.32C95.544 26.16 94.816 25.912 94.16 25.576C93.856 25.416 93.648 25.224 93.536 25C93.44 24.776 93.408 24.544 93.44 24.304C93.488 24.08 93.584 23.88 93.728 23.704C93.888 23.528 94.08 23.408 94.304 23.344C94.528 23.28 94.76 23.312 95 23.44C95.704 23.792 96.368 24.016 96.992 24.112C97.632 24.224 98.176 24.28 98.624 24.28C99.696 24.28 100.496 24.016 101.024 23.488C101.568 22.976 101.84 22.208 101.84 21.184V19.024H102.056C101.816 19.84 101.312 20.496 100.544 20.992C99.792 21.472 98.936 21.712 97.976 21.712C96.92 21.712 96 21.472 95.216 20.992C94.432 20.496 93.824 19.808 93.392 18.928C92.96 18.048 92.744 17.024 92.744 15.856C92.744 14.976 92.864 14.184 93.104 13.48C93.36 12.76 93.712 12.144 94.16 11.632C94.624 11.12 95.176 10.728 95.816 10.456C96.472 10.168 97.192 10.024 97.976 10.024C98.968 10.024 99.832 10.272 100.568 10.768C101.32 11.248 101.808 11.888 102.032 12.688L101.792 13.288V11.584C101.792 11.088 101.92 10.712 102.176 10.456C102.448 10.2 102.816 10.072 103.28 10.072C103.76 10.072 104.128 10.2 104.384 10.456C104.64 10.712 104.768 11.088 104.768 11.584V20.824C104.768 22.728 104.264 24.16 103.256 25.12C102.248 26.08 100.784 26.56 98.864 26.56ZM98.792 19.432C99.416 19.432 99.952 19.288 100.4 19C100.848 18.712 101.192 18.304 101.432 17.776C101.688 17.232 101.816 16.592 101.816 15.856C101.816 14.752 101.544 13.888 101 13.264C100.456 12.624 99.72 12.304 98.792 12.304C98.168 12.304 97.632 12.448 97.184 12.736C96.736 13.024 96.384 13.432 96.128 13.96C95.888 14.488 95.768 15.12 95.768 15.856C95.768 16.96 96.04 17.832 96.584 18.472C97.128 19.112 97.864 19.432 98.792 19.432ZM111.74 22.24C110.892 22.24 110.132 22.08 109.46 21.76C108.804 21.424 108.284 20.976 107.9 20.416C107.532 19.856 107.348 19.224 107.348 18.52C107.348 17.656 107.572 16.976 108.02 16.48C108.468 15.968 109.196 15.6 110.204 15.376C111.212 15.152 112.564 15.04 114.26 15.04H115.46V16.768H114.284C113.292 16.768 112.5 16.816 111.908 16.912C111.316 17.008 110.892 17.176 110.636 17.416C110.396 17.64 110.276 17.96 110.276 18.376C110.276 18.904 110.46 19.336 110.828 19.672C111.196 20.008 111.708 20.176 112.364 20.176C112.892 20.176 113.356 20.056 113.756 19.816C114.172 19.56 114.5 19.216 114.74 18.784C114.98 18.352 115.1 17.856 115.1 17.296V14.536C115.1 13.736 114.924 13.16 114.572 12.808C114.22 12.456 113.628 12.28 112.796 12.28C112.332 12.28 111.828 12.336 111.284 12.448C110.756 12.56 110.196 12.752 109.604 13.024C109.3 13.168 109.028 13.208 108.788 13.144C108.564 13.08 108.388 12.952 108.26 12.76C108.132 12.552 108.068 12.328 108.068 12.088C108.068 11.848 108.132 11.616 108.26 11.392C108.388 11.152 108.604 10.976 108.908 10.864C109.644 10.56 110.348 10.344 111.02 10.216C111.708 10.088 112.332 10.024 112.892 10.024C114.044 10.024 114.988 10.2 115.724 10.552C116.476 10.904 117.036 11.44 117.404 12.16C117.772 12.864 117.956 13.776 117.956 14.896V20.656C117.956 21.152 117.836 21.536 117.596 21.808C117.356 22.064 117.012 22.192 116.564 22.192C116.116 22.192 115.764 22.064 115.508 21.808C115.268 21.536 115.148 21.152 115.148 20.656V19.504H115.34C115.228 20.064 115.004 20.552 114.668 20.968C114.348 21.368 113.94 21.68 113.444 21.904C112.948 22.128 112.38 22.24 111.74 22.24ZM122.489 22.168C122.009 22.168 121.641 22.024 121.385 21.736C121.129 21.448 121.001 21.048 121.001 20.536V11.728C121.001 11.2 121.129 10.8 121.385 10.528C121.641 10.24 122.009 10.096 122.489 10.096C122.969 10.096 123.337 10.24 123.593 10.528C123.865 10.8 124.001 11.2 124.001 11.728V20.536C124.001 21.048 123.873 21.448 123.617 21.736C123.361 22.024 122.985 22.168 122.489 22.168ZM122.489 7.864C121.929 7.864 121.489 7.728 121.169 7.456C120.865 7.168 120.713 6.776 120.713 6.28C120.713 5.768 120.865 5.376 121.169 5.104C121.489 4.832 121.929 4.696 122.489 4.696C123.065 4.696 123.505 4.832 123.809 5.104C124.113 5.376 124.265 5.768 124.265 6.28C124.265 6.776 124.113 7.168 123.809 7.456C123.505 7.728 123.065 7.864 122.489 7.864ZM128.607 22.192C128.127 22.192 127.759 22.064 127.503 21.808C127.247 21.536 127.119 21.152 127.119 20.656V11.584C127.119 11.088 127.247 10.712 127.503 10.456C127.759 10.2 128.119 10.072 128.583 10.072C129.047 10.072 129.407 10.2 129.663 10.456C129.919 10.712 130.047 11.088 130.047 11.584V13.216L129.783 12.616C130.135 11.768 130.679 11.128 131.415 10.696C132.167 10.248 133.015 10.024 133.959 10.024C134.903 10.024 135.679 10.2 136.287 10.552C136.895 10.904 137.351 11.44 137.655 12.16C137.959 12.864 138.111 13.76 138.111 14.848V20.656C138.111 21.152 137.983 21.536 137.727 21.808C137.471 22.064 137.103 22.192 136.623 22.192C136.143 22.192 135.767 22.064 135.495 21.808C135.239 21.536 135.111 21.152 135.111 20.656V14.992C135.111 14.08 134.935 13.416 134.583 13C134.247 12.584 133.719 12.376 132.999 12.376C132.119 12.376 131.415 12.656 130.887 13.216C130.375 13.76 130.119 14.488 130.119 15.4V20.656C130.119 21.68 129.615 22.192 128.607 22.192Z" fill="#212121"/>
</g>
<defs>
<clipPath id="clip0_8_124">
<rect width="104" height="28" fill="white" transform="translate(36)"/>
</clipPath>
</defs>
</svg>
