<svg width="215" height="16" viewBox="0 0 215 16" fill="none" xmlns="http://www.w3.org/2000/svg">
<path d="M1.74 15.4852C1.35333 15.4852 1.05333 15.3785 0.84 15.1652C0.64 14.9519 0.54 14.6452 0.54 14.2452V2.34519C0.54 1.93186 0.64 1.61853 0.84 1.40519C1.05333 1.17853 1.32667 1.06519 1.66 1.06519C1.96667 1.06519 2.19333 1.12519 2.34 1.24519C2.5 1.35186 2.68667 1.53853 2.9 1.80519L10.56 11.7452H10.04V2.2852C10.04 1.89853 10.14 1.59853 10.34 1.38519C10.5533 1.17186 10.8533 1.06519 11.24 1.06519C11.6267 1.06519 11.92 1.17186 12.12 1.38519C12.32 1.59853 12.42 1.89853 12.42 2.2852V14.2852C12.42 14.6585 12.3267 14.9519 12.14 15.1652C11.9533 15.3785 11.7 15.4852 11.38 15.4852C11.0733 15.4852 10.8267 15.4252 10.64 15.3052C10.4667 15.1852 10.2733 14.9919 10.06 14.7252L2.42 4.7852H2.92V14.2452C2.92 14.6452 2.82 14.9519 2.62 15.1652C2.42 15.3785 2.12667 15.4852 1.74 15.4852ZM18.8009 15.5252C17.9876 15.5252 17.3143 15.3785 16.7809 15.0852C16.2476 14.7785 15.8476 14.3252 15.5809 13.7252C15.3276 13.1252 15.2009 12.3785 15.2009 11.4852V6.6452C15.2009 6.21853 15.3076 5.90519 15.5209 5.70519C15.7343 5.49186 16.0409 5.3852 16.4409 5.3852C16.8409 5.3852 17.1476 5.49186 17.3609 5.70519C17.5876 5.90519 17.7009 6.21853 17.7009 6.6452V11.5252C17.7009 12.2185 17.8409 12.7319 18.1209 13.0652C18.4009 13.3985 18.8476 13.5652 19.4609 13.5652C20.1276 13.5652 20.6743 13.3385 21.1009 12.8852C21.5276 12.4185 21.7409 11.8052 21.7409 11.0452V6.6452C21.7409 6.21853 21.8476 5.90519 22.0609 5.70519C22.2743 5.49186 22.5809 5.3852 22.9809 5.3852C23.3809 5.3852 23.6876 5.49186 23.9009 5.70519C24.1276 5.90519 24.2409 6.21853 24.2409 6.6452V14.2052C24.2409 15.0585 23.8343 15.4852 23.0209 15.4852C22.6343 15.4852 22.3343 15.3785 22.1209 15.1652C21.9076 14.9385 21.8009 14.6185 21.8009 14.2052V12.6852L22.0809 13.2852C21.8009 14.0052 21.3743 14.5585 20.8009 14.9452C20.2409 15.3319 19.5743 15.5252 18.8009 15.5252ZM28.123 15.4852C27.723 15.4852 27.4163 15.3785 27.203 15.1652C26.9896 14.9385 26.883 14.6185 26.883 14.2052V6.6452C26.883 6.23186 26.9896 5.91853 27.203 5.70519C27.4163 5.49186 27.7163 5.3852 28.103 5.3852C28.4896 5.3852 28.7896 5.49186 29.003 5.70519C29.2163 5.91853 29.323 6.23186 29.323 6.6452V8.10519L29.103 7.50519C29.3696 6.83853 29.783 6.31186 30.343 5.92519C30.903 5.53853 31.5696 5.3452 32.343 5.3452C33.1296 5.3452 33.7763 5.53186 34.283 5.90519C34.7896 6.27853 35.143 6.85186 35.343 7.62519H35.063C35.3296 6.91853 35.7696 6.36519 36.383 5.96519C36.9963 5.55186 37.703 5.3452 38.503 5.3452C39.2496 5.3452 39.863 5.49186 40.343 5.78519C40.8363 6.07853 41.203 6.52519 41.443 7.12519C41.683 7.71186 41.803 8.45853 41.803 9.3652V14.2052C41.803 14.6185 41.6896 14.9385 41.463 15.1652C41.2496 15.3785 40.943 15.4852 40.543 15.4852C40.143 15.4852 39.8363 15.3785 39.623 15.1652C39.4096 14.9385 39.303 14.6185 39.303 14.2052V9.4652C39.303 8.71853 39.1763 8.17186 38.923 7.82519C38.683 7.47853 38.2696 7.30519 37.683 7.30519C37.0296 7.30519 36.5163 7.53853 36.143 8.00519C35.7696 8.45853 35.583 9.09186 35.583 9.90519V14.2052C35.583 14.6185 35.4763 14.9385 35.263 15.1652C35.0496 15.3785 34.743 15.4852 34.343 15.4852C33.943 15.4852 33.6296 15.3785 33.403 15.1652C33.1896 14.9385 33.083 14.6185 33.083 14.2052V9.4652C33.083 8.71853 32.9563 8.17186 32.703 7.82519C32.463 7.47853 32.0563 7.30519 31.483 7.30519C30.8296 7.30519 30.3163 7.53853 29.943 8.00519C29.5696 8.45853 29.383 9.09186 29.383 9.90519V14.2052C29.383 15.0585 28.963 15.4852 28.123 15.4852ZM50.022 15.5252C49.1954 15.5252 48.4687 15.3185 47.842 14.9052C47.2287 14.4919 46.822 13.9385 46.622 13.2452L46.842 12.7452V14.2052C46.842 14.6185 46.7354 14.9385 46.522 15.1652C46.3087 15.3785 46.0087 15.4852 45.622 15.4852C45.222 15.4852 44.9154 15.3785 44.702 15.1652C44.4887 14.9385 44.382 14.6185 44.382 14.2052V2.32519C44.382 1.91186 44.4887 1.59853 44.702 1.38519C44.9154 1.17186 45.222 1.06519 45.622 1.06519C46.022 1.06519 46.3287 1.17186 46.542 1.38519C46.7687 1.59853 46.882 1.91186 46.882 2.32519V7.5252H46.642C46.8554 6.87186 47.2687 6.3452 47.882 5.9452C48.4954 5.5452 49.2087 5.3452 50.022 5.3452C50.8887 5.3452 51.642 5.55186 52.282 5.96519C52.922 6.37853 53.422 6.9652 53.782 7.72519C54.142 8.47186 54.322 9.37186 54.322 10.4252C54.322 11.4652 54.142 12.3719 53.782 13.1452C53.422 13.9052 52.9154 14.4919 52.262 14.9052C51.622 15.3185 50.8754 15.5252 50.022 15.5252ZM49.322 13.6252C49.8154 13.6252 50.2487 13.5052 50.622 13.2652C50.9954 13.0252 51.282 12.6719 51.482 12.2052C51.6954 11.7252 51.802 11.1319 51.802 10.4252C51.802 9.35853 51.5754 8.56519 51.122 8.04519C50.6687 7.51186 50.0687 7.2452 49.322 7.2452C48.8287 7.2452 48.3954 7.3652 48.022 7.6052C47.6487 7.83186 47.3554 8.1852 47.142 8.6652C46.942 9.13186 46.842 9.71853 46.842 10.4252C46.842 11.4785 47.0687 12.2785 47.522 12.8252C47.9754 13.3585 48.5754 13.6252 49.322 13.6252ZM61.1942 15.5252C60.0876 15.5252 59.1342 15.3185 58.3342 14.9052C57.5342 14.4919 56.9142 13.9052 56.4742 13.1452C56.0476 12.3852 55.8342 11.4852 55.8342 10.4452C55.8342 9.43186 56.0409 8.54519 56.4542 7.7852C56.8809 7.0252 57.4609 6.43186 58.1942 6.00519C58.9409 5.5652 59.7876 5.3452 60.7342 5.3452C61.4276 5.3452 62.0476 5.45853 62.5942 5.68519C63.1542 5.91186 63.6276 6.23853 64.0142 6.66519C64.4142 7.09186 64.7142 7.61186 64.9142 8.22519C65.1276 8.8252 65.2342 9.5052 65.2342 10.2652C65.2342 10.5052 65.1476 10.6919 64.9742 10.8252C64.8142 10.9452 64.5809 11.0052 64.2742 11.0052H57.8542V9.56519H63.4742L63.1542 9.8652C63.1542 9.25186 63.0609 8.73853 62.8742 8.32519C62.7009 7.91186 62.4409 7.59853 62.0942 7.3852C61.7609 7.15853 61.3409 7.04519 60.8342 7.04519C60.2742 7.04519 59.7942 7.17853 59.3942 7.44519C59.0076 7.69853 58.7076 8.06519 58.4942 8.54519C58.2942 9.01186 58.1942 9.57186 58.1942 10.2252V10.3652C58.1942 11.4585 58.4476 12.2785 58.9542 12.8252C59.4742 13.3585 60.2342 13.6252 61.2342 13.6252C61.5809 13.6252 61.9676 13.5852 62.3942 13.5052C62.8342 13.4119 63.2476 13.2585 63.6342 13.0452C63.9142 12.8852 64.1609 12.8185 64.3742 12.8452C64.5876 12.8585 64.7542 12.9319 64.8742 13.0652C65.0076 13.1985 65.0876 13.3652 65.1142 13.5652C65.1409 13.7519 65.1009 13.9452 64.9942 14.1452C64.9009 14.3452 64.7342 14.5185 64.4942 14.6652C64.0276 14.9585 63.4876 15.1785 62.8742 15.3252C62.2742 15.4585 61.7142 15.5252 61.1942 15.5252ZM68.4941 15.4852C68.0807 15.4852 67.7607 15.3785 67.5341 15.1652C67.3207 14.9385 67.2141 14.6185 67.2141 14.2052V6.6452C67.2141 6.23186 67.3207 5.91853 67.5341 5.70519C67.7474 5.49186 68.0474 5.3852 68.4341 5.3852C68.8207 5.3852 69.1207 5.49186 69.3341 5.70519C69.5474 5.91853 69.6541 6.23186 69.6541 6.6452V7.90519H69.4541C69.6407 7.10519 70.0074 6.49853 70.5541 6.0852C71.1007 5.67186 71.8274 5.42519 72.7341 5.3452C73.0141 5.31853 73.2341 5.39186 73.3941 5.56519C73.5674 5.72519 73.6674 5.97853 73.6941 6.32519C73.7207 6.65853 73.6407 6.93186 73.4541 7.1452C73.2807 7.34519 73.0141 7.46519 72.6541 7.50519L72.2141 7.54519C71.4007 7.62519 70.7874 7.87853 70.3741 8.3052C69.9607 8.71853 69.7541 9.30519 69.7541 10.0652V14.2052C69.7541 14.6185 69.6474 14.9385 69.4341 15.1652C69.2207 15.3785 68.9074 15.4852 68.4941 15.4852ZM84.9358 15.5252C83.9224 15.5252 83.0424 15.3185 82.2958 14.9052C81.5491 14.4919 80.9691 13.9052 80.5558 13.1452C80.1424 12.3719 79.9358 11.4652 79.9358 10.4252C79.9358 9.63853 80.0491 8.93853 80.2758 8.32519C80.5158 7.69853 80.8558 7.1652 81.2958 6.7252C81.7358 6.27186 82.2624 5.93186 82.8758 5.70519C83.4891 5.46519 84.1758 5.3452 84.9358 5.3452C85.9491 5.3452 86.8291 5.55186 87.5758 5.96519C88.3224 6.37853 88.9024 6.9652 89.3158 7.72519C89.7291 8.48519 89.9358 9.3852 89.9358 10.4252C89.9358 11.2119 89.8158 11.9185 89.5758 12.5452C89.3491 13.1719 89.0158 13.7119 88.5758 14.1652C88.1358 14.6052 87.6091 14.9452 86.9958 15.1852C86.3824 15.4119 85.6958 15.5252 84.9358 15.5252ZM84.9358 13.6252C85.4291 13.6252 85.8624 13.5052 86.2358 13.2652C86.6091 13.0252 86.8958 12.6719 87.0958 12.2052C87.3091 11.7252 87.4158 11.1319 87.4158 10.4252C87.4158 9.35853 87.1891 8.56519 86.7358 8.04519C86.2824 7.51186 85.6824 7.2452 84.9358 7.2452C84.4424 7.2452 84.0091 7.3652 83.6358 7.6052C83.2624 7.83186 82.9691 8.1852 82.7558 8.6652C82.5558 9.13186 82.4558 9.71853 82.4558 10.4252C82.4558 11.4785 82.6824 12.2785 83.1358 12.8252C83.5891 13.3585 84.1891 13.6252 84.9358 13.6252ZM93.8216 15.4852C93.4216 15.4852 93.1082 15.3785 92.8816 15.1652C92.6682 14.9385 92.5616 14.6185 92.5616 14.2052V7.4252H91.6416C91.3216 7.4252 91.0749 7.3452 90.9016 7.1852C90.7282 7.01186 90.6416 6.77853 90.6416 6.48519C90.6416 6.17853 90.7282 5.94519 90.9016 5.78519C91.0749 5.62519 91.3216 5.54519 91.6416 5.54519H93.2816L92.5616 6.20519V5.5252C92.5616 4.15186 92.9082 3.12519 93.6016 2.44519C94.2949 1.75186 95.2949 1.34519 96.6016 1.22519L97.2816 1.1652C97.5482 1.13853 97.7616 1.18519 97.9216 1.30519C98.0816 1.41186 98.1882 1.55853 98.2416 1.74519C98.2949 1.91853 98.3016 2.09853 98.2616 2.2852C98.2216 2.47186 98.1349 2.63853 98.0016 2.78519C97.8816 2.91853 97.7216 2.99186 97.5216 3.00519L97.2416 3.0252C96.4816 3.07853 95.9282 3.27186 95.5816 3.60519C95.2349 3.93853 95.0616 4.44519 95.0616 5.12519V5.86519L94.7416 5.54519H96.7616C97.0816 5.54519 97.3282 5.62519 97.5016 5.78519C97.6749 5.94519 97.7616 6.17853 97.7616 6.48519C97.7616 6.77853 97.6749 7.01186 97.5016 7.1852C97.3282 7.3452 97.0816 7.4252 96.7616 7.4252H95.0616V14.2052C95.0616 15.0585 94.6482 15.4852 93.8216 15.4852ZM108.156 15.5252C107.343 15.5252 106.67 15.3785 106.136 15.0852C105.603 14.7785 105.203 14.3252 104.936 13.7252C104.683 13.1252 104.556 12.3785 104.556 11.4852V6.6452C104.556 6.21853 104.663 5.90519 104.876 5.70519C105.09 5.49186 105.396 5.3852 105.796 5.3852C106.196 5.3852 106.503 5.49186 106.716 5.70519C106.943 5.90519 107.056 6.21853 107.056 6.6452V11.5252C107.056 12.2185 107.196 12.7319 107.476 13.0652C107.756 13.3985 108.203 13.5652 108.816 13.5652C109.483 13.5652 110.03 13.3385 110.456 12.8852C110.883 12.4185 111.096 11.8052 111.096 11.0452V6.6452C111.096 6.21853 111.203 5.90519 111.416 5.70519C111.63 5.49186 111.936 5.3852 112.336 5.3852C112.736 5.3852 113.043 5.49186 113.256 5.70519C113.483 5.90519 113.596 6.21853 113.596 6.6452V14.2052C113.596 15.0585 113.19 15.4852 112.376 15.4852C111.99 15.4852 111.69 15.3785 111.476 15.1652C111.263 14.9385 111.156 14.6185 111.156 14.2052V12.6852L111.436 13.2852C111.156 14.0052 110.73 14.5585 110.156 14.9452C109.596 15.3319 108.93 15.5252 108.156 15.5252ZM117.438 15.4852C117.038 15.4852 116.732 15.3785 116.518 15.1652C116.305 14.9385 116.198 14.6185 116.198 14.2052V6.6452C116.198 6.23186 116.305 5.91853 116.518 5.70519C116.732 5.49186 117.032 5.3852 117.418 5.3852C117.805 5.3852 118.105 5.49186 118.318 5.70519C118.532 5.91853 118.638 6.23186 118.638 6.6452V8.00519L118.418 7.50519C118.712 6.79853 119.165 6.26519 119.778 5.90519C120.405 5.53186 121.112 5.3452 121.898 5.3452C122.685 5.3452 123.332 5.49186 123.838 5.78519C124.345 6.07853 124.725 6.52519 124.978 7.12519C125.232 7.71186 125.358 8.45853 125.358 9.3652V14.2052C125.358 14.6185 125.252 14.9385 125.038 15.1652C124.825 15.3785 124.518 15.4852 124.118 15.4852C123.718 15.4852 123.405 15.3785 123.178 15.1652C122.965 14.9385 122.858 14.6185 122.858 14.2052V9.48519C122.858 8.7252 122.712 8.17186 122.418 7.82519C122.138 7.47853 121.698 7.30519 121.098 7.30519C120.365 7.30519 119.778 7.53853 119.338 8.00519C118.912 8.45853 118.698 9.0652 118.698 9.8252V14.2052C118.698 15.0585 118.278 15.4852 117.438 15.4852ZM129.138 15.4652C128.738 15.4652 128.431 15.3452 128.218 15.1052C128.004 14.8652 127.898 14.5319 127.898 14.1052V6.76519C127.898 6.32519 128.004 5.99186 128.218 5.7652C128.431 5.52519 128.738 5.40519 129.138 5.40519C129.538 5.40519 129.844 5.52519 130.058 5.7652C130.284 5.99186 130.398 6.32519 130.398 6.76519V14.1052C130.398 14.5319 130.291 14.8652 130.078 15.1052C129.864 15.3452 129.551 15.4652 129.138 15.4652ZM129.138 3.54519C128.671 3.54519 128.304 3.43186 128.038 3.2052C127.784 2.9652 127.658 2.63853 127.658 2.22519C127.658 1.79853 127.784 1.47186 128.038 1.24519C128.304 1.01853 128.671 0.905195 129.138 0.905195C129.618 0.905195 129.984 1.01853 130.238 1.24519C130.491 1.47186 130.618 1.79853 130.618 2.22519C130.618 2.63853 130.491 2.9652 130.238 3.2052C129.984 3.43186 129.618 3.54519 129.138 3.54519ZM137.475 15.5252C136.609 15.5252 135.882 15.3785 135.295 15.0852C134.722 14.7919 134.295 14.3652 134.015 13.8052C133.735 13.2319 133.595 12.5252 133.595 11.6852V7.4252H132.555C132.235 7.4252 131.989 7.3452 131.815 7.1852C131.642 7.01186 131.555 6.77853 131.555 6.48519C131.555 6.17853 131.642 5.94519 131.815 5.78519C131.989 5.62519 132.235 5.54519 132.555 5.54519H133.595V3.72519C133.595 3.31186 133.702 2.99853 133.915 2.78519C134.142 2.57186 134.455 2.4652 134.855 2.4652C135.255 2.4652 135.562 2.57186 135.775 2.78519C135.989 2.99853 136.095 3.31186 136.095 3.72519V5.54519H138.215C138.535 5.54519 138.782 5.62519 138.955 5.78519C139.129 5.94519 139.215 6.17853 139.215 6.48519C139.215 6.77853 139.129 7.01186 138.955 7.1852C138.782 7.3452 138.535 7.4252 138.215 7.4252H136.095V11.5452C136.095 12.1852 136.235 12.6652 136.515 12.9852C136.795 13.3052 137.249 13.4652 137.875 13.4652C138.102 13.4652 138.302 13.4452 138.475 13.4052C138.649 13.3652 138.802 13.3385 138.935 13.3252C139.095 13.3119 139.229 13.3652 139.335 13.4852C139.442 13.5919 139.495 13.8185 139.495 14.1652C139.495 14.4319 139.449 14.6719 139.355 14.8852C139.275 15.0852 139.122 15.2252 138.895 15.3052C138.722 15.3585 138.495 15.4052 138.215 15.4452C137.935 15.4985 137.689 15.5252 137.475 15.5252ZM150.621 15.5252C149.594 15.5252 148.701 15.3185 147.941 14.9052C147.181 14.4785 146.594 13.8785 146.181 13.1052C145.767 12.3319 145.561 11.4252 145.561 10.3852C145.561 9.59853 145.674 8.89853 145.901 8.28519C146.141 7.65853 146.481 7.13186 146.921 6.70519C147.361 6.26519 147.894 5.93186 148.521 5.70519C149.147 5.46519 149.847 5.3452 150.621 5.3452C151.061 5.3452 151.534 5.4052 152.041 5.5252C152.561 5.64519 153.047 5.84519 153.501 6.1252C153.714 6.25853 153.854 6.41853 153.921 6.60519C153.987 6.79186 154.001 6.9852 153.961 7.1852C153.921 7.37186 153.834 7.53853 153.701 7.68519C153.581 7.81853 153.427 7.9052 153.241 7.94519C153.054 7.97186 152.847 7.9252 152.621 7.80519C152.327 7.63186 152.027 7.50519 151.721 7.4252C151.414 7.33186 151.121 7.2852 150.841 7.2852C150.401 7.2852 150.014 7.35853 149.681 7.50519C149.347 7.63853 149.061 7.83853 148.821 8.10519C148.594 8.35853 148.421 8.67853 148.301 9.06519C148.181 9.45186 148.121 9.89853 148.121 10.4052C148.121 11.3919 148.354 12.1719 148.821 12.7452C149.301 13.3052 149.974 13.5852 150.841 13.5852C151.121 13.5852 151.407 13.5452 151.701 13.4652C152.007 13.3852 152.314 13.2585 152.621 13.0852C152.847 12.9652 153.047 12.9252 153.221 12.9652C153.407 13.0052 153.561 13.0985 153.681 13.2452C153.801 13.3785 153.874 13.5452 153.901 13.7452C153.927 13.9319 153.901 14.1185 153.821 14.3052C153.754 14.4919 153.621 14.6452 153.421 14.7652C152.981 15.0319 152.514 15.2252 152.021 15.3452C151.527 15.4652 151.061 15.5252 150.621 15.5252ZM159.074 15.5252C158.261 15.5252 157.588 15.3785 157.054 15.0852C156.521 14.7785 156.121 14.3252 155.854 13.7252C155.601 13.1252 155.474 12.3785 155.474 11.4852V6.6452C155.474 6.21853 155.581 5.90519 155.794 5.70519C156.008 5.49186 156.314 5.3852 156.714 5.3852C157.114 5.3852 157.421 5.49186 157.634 5.70519C157.861 5.90519 157.974 6.21853 157.974 6.6452V11.5252C157.974 12.2185 158.114 12.7319 158.394 13.0652C158.674 13.3985 159.121 13.5652 159.734 13.5652C160.401 13.5652 160.948 13.3385 161.374 12.8852C161.801 12.4185 162.014 11.8052 162.014 11.0452V6.6452C162.014 6.21853 162.121 5.90519 162.334 5.70519C162.548 5.49186 162.854 5.3852 163.254 5.3852C163.654 5.3852 163.961 5.49186 164.174 5.70519C164.401 5.90519 164.514 6.21853 164.514 6.6452V14.2052C164.514 15.0585 164.108 15.4852 163.294 15.4852C162.908 15.4852 162.608 15.3785 162.394 15.1652C162.181 14.9385 162.074 14.6185 162.074 14.2052V12.6852L162.354 13.2852C162.074 14.0052 161.648 14.5585 161.074 14.9452C160.514 15.3319 159.848 15.5252 159.074 15.5252ZM172.756 15.5252C171.93 15.5252 171.203 15.3185 170.576 14.9052C169.963 14.4919 169.556 13.9385 169.356 13.2452L169.576 12.7452V14.2052C169.576 14.6185 169.47 14.9385 169.256 15.1652C169.043 15.3785 168.743 15.4852 168.356 15.4852C167.956 15.4852 167.65 15.3785 167.436 15.1652C167.223 14.9385 167.116 14.6185 167.116 14.2052V2.32519C167.116 1.91186 167.223 1.59853 167.436 1.38519C167.65 1.17186 167.956 1.06519 168.356 1.06519C168.756 1.06519 169.063 1.17186 169.276 1.38519C169.503 1.59853 169.616 1.91186 169.616 2.32519V7.5252H169.376C169.59 6.87186 170.003 6.3452 170.616 5.9452C171.23 5.5452 171.943 5.3452 172.756 5.3452C173.623 5.3452 174.376 5.55186 175.016 5.96519C175.656 6.37853 176.156 6.9652 176.516 7.72519C176.876 8.47186 177.056 9.37186 177.056 10.4252C177.056 11.4652 176.876 12.3719 176.516 13.1452C176.156 13.9052 175.65 14.4919 174.996 14.9052C174.356 15.3185 173.61 15.5252 172.756 15.5252ZM172.056 13.6252C172.55 13.6252 172.983 13.5052 173.356 13.2652C173.73 13.0252 174.016 12.6719 174.216 12.2052C174.43 11.7252 174.536 11.1319 174.536 10.4252C174.536 9.35853 174.31 8.56519 173.856 8.04519C173.403 7.51186 172.803 7.2452 172.056 7.2452C171.563 7.2452 171.13 7.3652 170.756 7.6052C170.383 7.83186 170.09 8.1852 169.876 8.6652C169.676 9.13186 169.576 9.71853 169.576 10.4252C169.576 11.4785 169.803 12.2785 170.256 12.8252C170.71 13.3585 171.31 13.6252 172.056 13.6252ZM183.929 15.5252C182.822 15.5252 181.869 15.3185 181.069 14.9052C180.269 14.4919 179.649 13.9052 179.209 13.1452C178.782 12.3852 178.569 11.4852 178.569 10.4452C178.569 9.43186 178.775 8.54519 179.189 7.7852C179.615 7.0252 180.195 6.43186 180.929 6.00519C181.675 5.5652 182.522 5.3452 183.469 5.3452C184.162 5.3452 184.782 5.45853 185.329 5.68519C185.889 5.91186 186.362 6.23853 186.749 6.66519C187.149 7.09186 187.449 7.61186 187.649 8.22519C187.862 8.8252 187.969 9.5052 187.969 10.2652C187.969 10.5052 187.882 10.6919 187.709 10.8252C187.549 10.9452 187.315 11.0052 187.009 11.0052H180.589V9.56519H186.209L185.889 9.8652C185.889 9.25186 185.795 8.73853 185.609 8.32519C185.435 7.91186 185.175 7.59853 184.829 7.3852C184.495 7.15853 184.075 7.04519 183.569 7.04519C183.009 7.04519 182.529 7.17853 182.129 7.44519C181.742 7.69853 181.442 8.06519 181.229 8.54519C181.029 9.01186 180.929 9.57186 180.929 10.2252V10.3652C180.929 11.4585 181.182 12.2785 181.689 12.8252C182.209 13.3585 182.969 13.6252 183.969 13.6252C184.315 13.6252 184.702 13.5852 185.129 13.5052C185.569 13.4119 185.982 13.2585 186.369 13.0452C186.649 12.8852 186.895 12.8185 187.109 12.8452C187.322 12.8585 187.489 12.9319 187.609 13.0652C187.742 13.1985 187.822 13.3652 187.849 13.5652C187.875 13.7519 187.835 13.9452 187.729 14.1452C187.635 14.3452 187.469 14.5185 187.229 14.6652C186.762 14.9585 186.222 15.1785 185.609 15.3252C185.009 15.4585 184.449 15.5252 183.929 15.5252ZM193.528 15.5252C192.955 15.5252 192.348 15.4652 191.708 15.3452C191.068 15.2252 190.495 15.0185 189.988 14.7252C189.775 14.5919 189.622 14.4385 189.528 14.2652C189.448 14.0785 189.415 13.8985 189.428 13.7252C189.455 13.5385 189.522 13.3785 189.628 13.2452C189.748 13.1119 189.895 13.0252 190.068 12.9852C190.255 12.9452 190.455 12.9785 190.668 13.0852C191.202 13.3385 191.702 13.5185 192.168 13.6252C192.635 13.7185 193.095 13.7652 193.548 13.7652C194.188 13.7652 194.662 13.6585 194.968 13.4452C195.288 13.2185 195.448 12.9252 195.448 12.5652C195.448 12.2585 195.342 12.0252 195.128 11.8652C194.928 11.6919 194.622 11.5652 194.208 11.4852L192.208 11.1052C191.382 10.9452 190.748 10.6452 190.308 10.2052C189.882 9.75186 189.668 9.17186 189.668 8.46519C189.668 7.82519 189.842 7.27186 190.188 6.80519C190.548 6.33853 191.042 5.97853 191.668 5.72519C192.295 5.47186 193.015 5.3452 193.828 5.3452C194.415 5.3452 194.962 5.41186 195.468 5.54519C195.988 5.66519 196.488 5.85853 196.968 6.1252C197.168 6.23186 197.302 6.37186 197.368 6.5452C197.448 6.71853 197.468 6.89853 197.428 7.08519C197.388 7.25853 197.308 7.41853 197.188 7.5652C197.068 7.69853 196.915 7.78519 196.728 7.82519C196.555 7.85186 196.355 7.81186 196.128 7.7052C195.715 7.49186 195.315 7.33853 194.928 7.2452C194.555 7.15186 194.195 7.1052 193.848 7.1052C193.195 7.1052 192.708 7.21853 192.388 7.44519C192.082 7.67186 191.928 7.97186 191.928 8.3452C191.928 8.6252 192.022 8.85853 192.208 9.0452C192.395 9.23186 192.682 9.35853 193.068 9.42519L195.068 9.80519C195.935 9.9652 196.588 10.2585 197.028 10.6852C197.482 11.1119 197.708 11.6852 197.708 12.4052C197.708 13.3785 197.328 14.1452 196.568 14.7052C195.808 15.2519 194.795 15.5252 193.528 15.5252ZM205.704 8.46519C205.424 8.46519 205.204 8.39186 205.044 8.2452C204.884 8.08519 204.804 7.86519 204.804 7.58519C204.804 7.30519 204.884 7.09186 205.044 6.94519C205.204 6.78519 205.424 6.70519 205.704 6.70519H213.984C214.277 6.70519 214.497 6.78519 214.644 6.94519C214.804 7.09186 214.884 7.30519 214.884 7.58519C214.884 7.86519 214.804 8.08519 214.644 8.2452C214.497 8.39186 214.277 8.46519 213.984 8.46519H205.704ZM205.704 12.4452C205.424 12.4452 205.204 12.3719 205.044 12.2252C204.884 12.0652 204.804 11.8452 204.804 11.5652C204.804 11.2852 204.884 11.0719 205.044 10.9252C205.204 10.7785 205.424 10.7052 205.704 10.7052H213.984C214.277 10.7052 214.497 10.7785 214.644 10.9252C214.804 11.0719 214.884 11.2852 214.884 11.5652C214.884 11.8585 214.804 12.0785 214.644 12.2252C214.497 12.3719 214.277 12.4452 213.984 12.4452H205.704Z" fill="#646464"/>
</svg>
