<svg width="274" height="55" viewBox="0 0 274 55" fill="none" xmlns="http://www.w3.org/2000/svg">
<path d="M7.56969 35.16C7.20969 35.16 6.90969 35.08 6.66969 34.92C6.44302 34.7467 6.25635 34.4933 6.10969 34.16L0.889688 22.44C0.743021 22.1067 0.703021 21.8133 0.769688 21.56C0.836354 21.3067 0.976354 21.1067 1.18969 20.96C1.40302 20.8133 1.65635 20.74 1.94969 20.74C2.33635 20.74 2.62302 20.8267 2.80969 21C3.00969 21.16 3.17635 21.4067 3.30969 21.74L8.04969 32.72H7.18969L11.9097 21.72C12.0564 21.4 12.2297 21.16 12.4297 21C12.6297 20.8267 12.9097 20.74 13.2697 20.74C13.563 20.74 13.803 20.8133 13.9897 20.96C14.1897 21.1067 14.3164 21.3067 14.3697 21.56C14.423 21.8133 14.3764 22.1067 14.2297 22.44L9.00969 34.16C8.86302 34.4933 8.67635 34.7467 8.44969 34.92C8.23635 35.08 7.94302 35.16 7.56969 35.16ZM19.1975 35.2C18.1842 35.2 17.3042 34.9933 16.5575 34.58C15.8108 34.1667 15.2308 33.58 14.8175 32.82C14.4042 32.0467 14.1975 31.14 14.1975 30.1C14.1975 29.3133 14.3108 28.6133 14.5375 28C14.7775 27.3733 15.1175 26.84 15.5575 26.4C15.9975 25.9467 16.5242 25.6067 17.1375 25.38C17.7508 25.14 18.4375 25.02 19.1975 25.02C20.2108 25.02 21.0908 25.2267 21.8375 25.64C22.5842 26.0533 23.1642 26.64 23.5775 27.4C23.9908 28.16 24.1975 29.06 24.1975 30.1C24.1975 30.8867 24.0775 31.5933 23.8375 32.22C23.6108 32.8467 23.2775 33.3867 22.8375 33.84C22.3975 34.28 21.8708 34.62 21.2575 34.86C20.6442 35.0867 19.9575 35.2 19.1975 35.2ZM19.1975 33.3C19.6908 33.3 20.1242 33.18 20.4975 32.94C20.8708 32.7 21.1575 32.3467 21.3575 31.88C21.5708 31.4 21.6775 30.8067 21.6775 30.1C21.6775 29.0333 21.4508 28.24 20.9975 27.72C20.5442 27.1867 19.9442 26.92 19.1975 26.92C18.7042 26.92 18.2708 27.04 17.8975 27.28C17.5242 27.5067 17.2308 27.86 17.0175 28.34C16.8175 28.8067 16.7175 29.3933 16.7175 30.1C16.7175 31.1533 16.9442 31.9533 17.3975 32.5C17.8508 33.0333 18.4508 33.3 19.1975 33.3ZM29.6009 35.2C28.4943 35.2 27.6609 34.8867 27.1009 34.26C26.5409 33.62 26.2609 32.6867 26.2609 31.46V22C26.2609 21.5867 26.3676 21.2733 26.5809 21.06C26.7943 20.8467 27.1009 20.74 27.5009 20.74C27.9009 20.74 28.2076 20.8467 28.4209 21.06C28.6476 21.2733 28.7609 21.5867 28.7609 22V31.34C28.7609 31.9533 28.8876 32.4067 29.1409 32.7C29.4076 32.9933 29.7809 33.14 30.2609 33.14C30.3676 33.14 30.4676 33.14 30.5609 33.14C30.6543 33.1267 30.7476 33.1133 30.8409 33.1C31.0276 33.0733 31.1543 33.1267 31.2209 33.26C31.2876 33.38 31.3209 33.6333 31.3209 34.02C31.3209 34.3533 31.2543 34.6133 31.1209 34.8C30.9876 34.9867 30.7676 35.1 30.4609 35.14C30.3276 35.1533 30.1876 35.1667 30.0409 35.18C29.8943 35.1933 29.7476 35.2 29.6009 35.2ZM36.1877 35.2C35.3743 35.2 34.701 35.0533 34.1677 34.76C33.6343 34.4533 33.2343 34 32.9677 33.4C32.7143 32.8 32.5877 32.0533 32.5877 31.16V26.32C32.5877 25.8933 32.6943 25.58 32.9077 25.38C33.121 25.1667 33.4277 25.06 33.8277 25.06C34.2277 25.06 34.5343 25.1667 34.7477 25.38C34.9743 25.58 35.0877 25.8933 35.0877 26.32V31.2C35.0877 31.8933 35.2277 32.4067 35.5077 32.74C35.7877 33.0733 36.2343 33.24 36.8477 33.24C37.5143 33.24 38.061 33.0133 38.4877 32.56C38.9143 32.0933 39.1277 31.48 39.1277 30.72V26.32C39.1277 25.8933 39.2343 25.58 39.4477 25.38C39.661 25.1667 39.9677 25.06 40.3677 25.06C40.7677 25.06 41.0743 25.1667 41.2877 25.38C41.5143 25.58 41.6277 25.8933 41.6277 26.32V33.88C41.6277 34.7333 41.221 35.16 40.4077 35.16C40.021 35.16 39.721 35.0533 39.5077 34.84C39.2943 34.6133 39.1877 34.2933 39.1877 33.88V32.36L39.4677 32.96C39.1877 33.68 38.761 34.2333 38.1877 34.62C37.6277 35.0067 36.961 35.2 36.1877 35.2ZM45.5097 35.16C45.1097 35.16 44.803 35.0533 44.5897 34.84C44.3764 34.6133 44.2697 34.2933 44.2697 33.88V26.32C44.2697 25.9067 44.3764 25.5933 44.5897 25.38C44.803 25.1667 45.103 25.06 45.4897 25.06C45.8764 25.06 46.1764 25.1667 46.3897 25.38C46.603 25.5933 46.7097 25.9067 46.7097 26.32V27.78L46.4897 27.18C46.7564 26.5133 47.1697 25.9867 47.7297 25.6C48.2897 25.2133 48.9564 25.02 49.7297 25.02C50.5164 25.02 51.163 25.2067 51.6697 25.58C52.1764 25.9533 52.5297 26.5267 52.7297 27.3H52.4497C52.7164 26.5933 53.1564 26.04 53.7697 25.64C54.383 25.2267 55.0897 25.02 55.8897 25.02C56.6364 25.02 57.2497 25.1667 57.7297 25.46C58.223 25.7533 58.5897 26.2 58.8297 26.8C59.0697 27.3867 59.1897 28.1333 59.1897 29.04V33.88C59.1897 34.2933 59.0764 34.6133 58.8497 34.84C58.6364 35.0533 58.3297 35.16 57.9297 35.16C57.5297 35.16 57.223 35.0533 57.0097 34.84C56.7964 34.6133 56.6897 34.2933 56.6897 33.88V29.14C56.6897 28.3933 56.563 27.8467 56.3097 27.5C56.0697 27.1533 55.6564 26.98 55.0697 26.98C54.4164 26.98 53.903 27.2133 53.5297 27.68C53.1564 28.1333 52.9697 28.7667 52.9697 29.58V33.88C52.9697 34.2933 52.863 34.6133 52.6497 34.84C52.4364 35.0533 52.1297 35.16 51.7297 35.16C51.3297 35.16 51.0164 35.0533 50.7897 34.84C50.5764 34.6133 50.4697 34.2933 50.4697 33.88V29.14C50.4697 28.3933 50.343 27.8467 50.0897 27.5C49.8497 27.1533 49.443 26.98 48.8697 26.98C48.2164 26.98 47.703 27.2133 47.3297 27.68C46.9564 28.1333 46.7697 28.7667 46.7697 29.58V33.88C46.7697 34.7333 46.3497 35.16 45.5097 35.16ZM66.5888 35.2C65.4821 35.2 64.5288 34.9933 63.7288 34.58C62.9288 34.1667 62.3088 33.58 61.8688 32.82C61.4421 32.06 61.2288 31.16 61.2288 30.12C61.2288 29.1067 61.4354 28.22 61.8488 27.46C62.2754 26.7 62.8554 26.1067 63.5888 25.68C64.3354 25.24 65.1821 25.02 66.1288 25.02C66.8221 25.02 67.4421 25.1333 67.9888 25.36C68.5488 25.5867 69.0221 25.9133 69.4088 26.34C69.8088 26.7667 70.1088 27.2867 70.3088 27.9C70.5221 28.5 70.6288 29.18 70.6288 29.94C70.6288 30.18 70.5421 30.3667 70.3688 30.5C70.2088 30.62 69.9754 30.68 69.6688 30.68H63.2488V29.24H68.8688L68.5488 29.54C68.5488 28.9267 68.4554 28.4133 68.2688 28C68.0954 27.5867 67.8354 27.2733 67.4888 27.06C67.1554 26.8333 66.7354 26.72 66.2288 26.72C65.6688 26.72 65.1888 26.8533 64.7888 27.12C64.4021 27.3733 64.1021 27.74 63.8888 28.22C63.6888 28.6867 63.5888 29.2467 63.5888 29.9V30.04C63.5888 31.1333 63.8421 31.9533 64.3488 32.5C64.8688 33.0333 65.6288 33.3 66.6288 33.3C66.9754 33.3 67.3621 33.26 67.7888 33.18C68.2288 33.0867 68.6421 32.9333 69.0288 32.72C69.3088 32.56 69.5554 32.4933 69.7688 32.52C69.9821 32.5333 70.1488 32.6067 70.2688 32.74C70.4021 32.8733 70.4821 33.04 70.5088 33.24C70.5354 33.4267 70.4954 33.62 70.3888 33.82C70.2954 34.02 70.1288 34.1933 69.8888 34.34C69.4221 34.6333 68.8821 34.8533 68.2688 35C67.6688 35.1333 67.1088 35.2 66.5888 35.2ZM82.4983 35.2C81.4849 35.2 80.6049 34.9933 79.8583 34.58C79.1116 34.1667 78.5316 33.58 78.1183 32.82C77.7049 32.0467 77.4983 31.14 77.4983 30.1C77.4983 29.3133 77.6116 28.6133 77.8383 28C78.0783 27.3733 78.4183 26.84 78.8583 26.4C79.2983 25.9467 79.8249 25.6067 80.4383 25.38C81.0516 25.14 81.7383 25.02 82.4983 25.02C83.5116 25.02 84.3916 25.2267 85.1383 25.64C85.8849 26.0533 86.4649 26.64 86.8783 27.4C87.2916 28.16 87.4983 29.06 87.4983 30.1C87.4983 30.8867 87.3783 31.5933 87.1383 32.22C86.9116 32.8467 86.5783 33.3867 86.1383 33.84C85.6983 34.28 85.1716 34.62 84.5583 34.86C83.9449 35.0867 83.2583 35.2 82.4983 35.2ZM82.4983 33.3C82.9916 33.3 83.4249 33.18 83.7983 32.94C84.1716 32.7 84.4583 32.3467 84.6583 31.88C84.8716 31.4 84.9783 30.8067 84.9783 30.1C84.9783 29.0333 84.7516 28.24 84.2983 27.72C83.8449 27.1867 83.2449 26.92 82.4983 26.92C82.0049 26.92 81.5716 27.04 81.1983 27.28C80.8249 27.5067 80.5316 27.86 80.3183 28.34C80.1183 28.8067 80.0183 29.3933 80.0183 30.1C80.0183 31.1533 80.2449 31.9533 80.6983 32.5C81.1516 33.0333 81.7516 33.3 82.4983 33.3ZM91.3841 35.16C90.9841 35.16 90.6707 35.0533 90.4441 34.84C90.2307 34.6133 90.1241 34.2933 90.1241 33.88V27.1H89.2041C88.8841 27.1 88.6374 27.02 88.4641 26.86C88.2907 26.6867 88.2041 26.4533 88.2041 26.16C88.2041 25.8533 88.2907 25.62 88.4641 25.46C88.6374 25.3 88.8841 25.22 89.2041 25.22H90.8441L90.1241 25.88V25.2C90.1241 23.8267 90.4707 22.8 91.1641 22.12C91.8574 21.4267 92.8574 21.02 94.1641 20.9L94.8441 20.84C95.1107 20.8133 95.3241 20.86 95.4841 20.98C95.6441 21.0867 95.7507 21.2333 95.8041 21.42C95.8574 21.5933 95.8641 21.7733 95.8241 21.96C95.7841 22.1467 95.6974 22.3133 95.5641 22.46C95.4441 22.5933 95.2841 22.6667 95.0841 22.68L94.8041 22.7C94.0441 22.7533 93.4907 22.9467 93.1441 23.28C92.7974 23.6133 92.6241 24.12 92.6241 24.8V25.54L92.3041 25.22H94.3241C94.6441 25.22 94.8907 25.3 95.0641 25.46C95.2374 25.62 95.3241 25.8533 95.3241 26.16C95.3241 26.4533 95.2374 26.6867 95.0641 26.86C94.8907 27.02 94.6441 27.1 94.3241 27.1H92.6241V33.88C92.6241 34.7333 92.2107 35.16 91.3841 35.16ZM105.759 35.2C105.186 35.2 104.579 35.14 103.939 35.02C103.299 34.9 102.726 34.6933 102.219 34.4C102.006 34.2667 101.852 34.1133 101.759 33.94C101.679 33.7533 101.646 33.5733 101.659 33.4C101.686 33.2133 101.752 33.0533 101.859 32.92C101.979 32.7867 102.126 32.7 102.299 32.66C102.486 32.62 102.686 32.6533 102.899 32.76C103.432 33.0133 103.932 33.1933 104.399 33.3C104.866 33.3933 105.326 33.44 105.779 33.44C106.419 33.44 106.892 33.3333 107.199 33.12C107.519 32.8933 107.679 32.6 107.679 32.24C107.679 31.9333 107.572 31.7 107.359 31.54C107.159 31.3667 106.852 31.24 106.439 31.16L104.439 30.78C103.612 30.62 102.979 30.32 102.539 29.88C102.112 29.4267 101.899 28.8467 101.899 28.14C101.899 27.5 102.072 26.9467 102.419 26.48C102.779 26.0133 103.272 25.6533 103.899 25.4C104.526 25.1467 105.246 25.02 106.059 25.02C106.646 25.02 107.192 25.0867 107.699 25.22C108.219 25.34 108.719 25.5333 109.199 25.8C109.399 25.9067 109.532 26.0467 109.599 26.22C109.679 26.3933 109.699 26.5733 109.659 26.76C109.619 26.9333 109.539 27.0933 109.419 27.24C109.299 27.3733 109.146 27.46 108.959 27.5C108.786 27.5267 108.586 27.4867 108.359 27.38C107.946 27.1667 107.546 27.0133 107.159 26.92C106.786 26.8267 106.426 26.78 106.079 26.78C105.426 26.78 104.939 26.8933 104.619 27.12C104.312 27.3467 104.159 27.6467 104.159 28.02C104.159 28.3 104.252 28.5333 104.439 28.72C104.626 28.9067 104.912 29.0333 105.299 29.1L107.299 29.48C108.166 29.64 108.819 29.9333 109.259 30.36C109.712 30.7867 109.939 31.36 109.939 32.08C109.939 33.0533 109.559 33.82 108.799 34.38C108.039 34.9267 107.026 35.2 105.759 35.2ZM113.185 38.76C112.785 38.76 112.478 38.6533 112.265 38.44C112.051 38.2267 111.945 37.9133 111.945 37.5V26.32C111.945 25.9067 112.051 25.5933 112.265 25.38C112.478 25.1667 112.778 25.06 113.165 25.06C113.565 25.06 113.871 25.1667 114.085 25.38C114.298 25.5933 114.405 25.9067 114.405 26.32V27.88L114.185 27.28C114.385 26.6 114.791 26.0533 115.405 25.64C116.031 25.2267 116.758 25.02 117.585 25.02C118.438 25.02 119.185 25.2267 119.825 25.64C120.478 26.0533 120.985 26.64 121.345 27.4C121.705 28.1467 121.885 29.0467 121.885 30.1C121.885 31.14 121.705 32.0467 121.345 32.82C120.985 33.58 120.485 34.1667 119.845 34.58C119.205 34.9933 118.451 35.2 117.585 35.2C116.771 35.2 116.058 35 115.445 34.6C114.831 34.1867 114.418 33.6533 114.205 33H114.445V37.5C114.445 37.9133 114.331 38.2267 114.105 38.44C113.891 38.6533 113.585 38.76 113.185 38.76ZM116.885 33.3C117.378 33.3 117.811 33.18 118.185 32.94C118.558 32.7 118.845 32.3467 119.045 31.88C119.258 31.4 119.365 30.8067 119.365 30.1C119.365 29.0333 119.138 28.24 118.685 27.72C118.231 27.1867 117.631 26.92 116.885 26.92C116.391 26.92 115.958 27.04 115.585 27.28C115.211 27.5067 114.918 27.86 114.705 28.34C114.505 28.8067 114.405 29.3933 114.405 30.1C114.405 31.1533 114.631 31.9533 115.085 32.5C115.538 33.0333 116.138 33.3 116.885 33.3ZM125.177 35.16C124.777 35.16 124.47 35.0533 124.257 34.84C124.043 34.6133 123.937 34.2933 123.937 33.88V22C123.937 21.5867 124.043 21.2733 124.257 21.06C124.47 20.8467 124.777 20.74 125.177 20.74C125.577 20.74 125.883 20.8467 126.097 21.06C126.323 21.2733 126.437 21.5867 126.437 22V27.18H126.157C126.45 26.4733 126.903 25.94 127.517 25.58C128.143 25.2067 128.85 25.02 129.637 25.02C130.423 25.02 131.07 25.1667 131.577 25.46C132.083 25.7533 132.463 26.2 132.717 26.8C132.97 27.3867 133.097 28.1333 133.097 29.04V33.88C133.097 34.2933 132.99 34.6133 132.777 34.84C132.563 35.0533 132.257 35.16 131.857 35.16C131.457 35.16 131.143 35.0533 130.917 34.84C130.703 34.6133 130.597 34.2933 130.597 33.88V29.16C130.597 28.4 130.45 27.8467 130.157 27.5C129.877 27.1533 129.437 26.98 128.837 26.98C128.103 26.98 127.517 27.2133 127.077 27.68C126.65 28.1333 126.437 28.74 126.437 29.5V33.88C126.437 34.7333 126.017 35.16 125.177 35.16ZM140.456 35.2C139.349 35.2 138.396 34.9933 137.596 34.58C136.796 34.1667 136.176 33.58 135.736 32.82C135.309 32.06 135.096 31.16 135.096 30.12C135.096 29.1067 135.303 28.22 135.716 27.46C136.143 26.7 136.723 26.1067 137.456 25.68C138.203 25.24 139.049 25.02 139.996 25.02C140.689 25.02 141.309 25.1333 141.856 25.36C142.416 25.5867 142.889 25.9133 143.276 26.34C143.676 26.7667 143.976 27.2867 144.176 27.9C144.389 28.5 144.496 29.18 144.496 29.94C144.496 30.18 144.409 30.3667 144.236 30.5C144.076 30.62 143.843 30.68 143.536 30.68H137.116V29.24H142.736L142.416 29.54C142.416 28.9267 142.323 28.4133 142.136 28C141.963 27.5867 141.703 27.2733 141.356 27.06C141.023 26.8333 140.603 26.72 140.096 26.72C139.536 26.72 139.056 26.8533 138.656 27.12C138.269 27.3733 137.969 27.74 137.756 28.22C137.556 28.6867 137.456 29.2467 137.456 29.9V30.04C137.456 31.1333 137.709 31.9533 138.216 32.5C138.736 33.0333 139.496 33.3 140.496 33.3C140.843 33.3 141.229 33.26 141.656 33.18C142.096 33.0867 142.509 32.9333 142.896 32.72C143.176 32.56 143.423 32.4933 143.636 32.52C143.849 32.5333 144.016 32.6067 144.136 32.74C144.269 32.8733 144.349 33.04 144.376 33.24C144.403 33.4267 144.363 33.62 144.256 33.82C144.163 34.02 143.996 34.1933 143.756 34.34C143.289 34.6333 142.749 34.8533 142.136 35C141.536 35.1333 140.976 35.2 140.456 35.2ZM147.756 35.16C147.342 35.16 147.022 35.0533 146.796 34.84C146.582 34.6133 146.476 34.2933 146.476 33.88V26.32C146.476 25.9067 146.582 25.5933 146.796 25.38C147.009 25.1667 147.309 25.06 147.696 25.06C148.082 25.06 148.382 25.1667 148.596 25.38C148.809 25.5933 148.916 25.9067 148.916 26.32V27.58H148.716C148.902 26.78 149.269 26.1733 149.816 25.76C150.362 25.3467 151.089 25.1 151.996 25.02C152.276 24.9933 152.496 25.0667 152.656 25.24C152.829 25.4 152.929 25.6533 152.956 26C152.982 26.3333 152.902 26.6067 152.716 26.82C152.542 27.02 152.276 27.14 151.916 27.18L151.476 27.22C150.662 27.3 150.049 27.5533 149.636 27.98C149.222 28.3933 149.016 28.98 149.016 29.74V33.88C149.016 34.2933 148.909 34.6133 148.696 34.84C148.482 35.0533 148.169 35.16 147.756 35.16ZM158.972 35.2C157.865 35.2 156.912 34.9933 156.112 34.58C155.312 34.1667 154.692 33.58 154.252 32.82C153.825 32.06 153.612 31.16 153.612 30.12C153.612 29.1067 153.818 28.22 154.232 27.46C154.658 26.7 155.238 26.1067 155.972 25.68C156.718 25.24 157.565 25.02 158.512 25.02C159.205 25.02 159.825 25.1333 160.372 25.36C160.932 25.5867 161.405 25.9133 161.792 26.34C162.192 26.7667 162.492 27.2867 162.692 27.9C162.905 28.5 163.012 29.18 163.012 29.94C163.012 30.18 162.925 30.3667 162.752 30.5C162.592 30.62 162.358 30.68 162.052 30.68H155.632V29.24H161.252L160.932 29.54C160.932 28.9267 160.838 28.4133 160.652 28C160.478 27.5867 160.218 27.2733 159.872 27.06C159.538 26.8333 159.118 26.72 158.612 26.72C158.052 26.72 157.572 26.8533 157.172 27.12C156.785 27.3733 156.485 27.74 156.272 28.22C156.072 28.6867 155.972 29.2467 155.972 29.9V30.04C155.972 31.1333 156.225 31.9533 156.732 32.5C157.252 33.0333 158.012 33.3 159.012 33.3C159.358 33.3 159.745 33.26 160.172 33.18C160.612 33.0867 161.025 32.9333 161.412 32.72C161.692 32.56 161.938 32.4933 162.152 32.52C162.365 32.5333 162.532 32.6067 162.652 32.74C162.785 32.8733 162.865 33.04 162.892 33.24C162.918 33.4267 162.878 33.62 162.772 33.82C162.678 34.02 162.512 34.1933 162.272 34.34C161.805 34.6333 161.265 34.8533 160.652 35C160.052 35.1333 159.492 35.2 158.972 35.2ZM170.981 28.14C170.701 28.14 170.481 28.0667 170.321 27.92C170.161 27.76 170.081 27.54 170.081 27.26C170.081 26.98 170.161 26.7667 170.321 26.62C170.481 26.46 170.701 26.38 170.981 26.38H179.261C179.554 26.38 179.774 26.46 179.921 26.62C180.081 26.7667 180.161 26.98 180.161 27.26C180.161 27.54 180.081 27.76 179.921 27.92C179.774 28.0667 179.554 28.14 179.261 28.14H170.981ZM170.981 32.12C170.701 32.12 170.481 32.0467 170.321 31.9C170.161 31.74 170.081 31.52 170.081 31.24C170.081 30.96 170.161 30.7467 170.321 30.6C170.481 30.4533 170.701 30.38 170.981 30.38H179.261C179.554 30.38 179.774 30.4533 179.921 30.6C180.081 30.7467 180.161 30.96 180.161 31.24C180.161 31.5333 180.081 31.7533 179.921 31.9C179.774 32.0467 179.554 32.12 179.261 32.12H170.981ZM210.242 35.1C209.948 35.1 209.702 35.02 209.502 34.86C209.315 34.6867 209.215 34.4667 209.202 34.2C209.202 33.9333 209.315 33.6533 209.542 33.36L212.782 29.36V30.54L209.742 26.8C209.502 26.5067 209.388 26.2267 209.402 25.96C209.415 25.6933 209.515 25.48 209.702 25.32C209.902 25.1467 210.148 25.06 210.442 25.06C210.748 25.06 211.002 25.1133 211.202 25.22C211.415 25.3267 211.608 25.4933 211.782 25.72L214.182 28.8H213.302L215.722 25.72C215.908 25.4933 216.102 25.3267 216.302 25.22C216.502 25.1133 216.748 25.06 217.042 25.06C217.348 25.06 217.595 25.1467 217.782 25.32C217.968 25.4933 218.062 25.7133 218.062 25.98C218.075 26.2467 217.962 26.5267 217.722 26.82L214.702 30.52V29.4L217.942 33.36C218.182 33.64 218.295 33.9133 218.282 34.18C218.268 34.4467 218.162 34.6667 217.962 34.84C217.775 35.0133 217.528 35.1 217.222 35.1C216.928 35.1 216.682 35.0467 216.482 34.94C216.282 34.8333 216.088 34.6667 215.902 34.44L213.302 31.16H214.142L211.562 34.44C211.388 34.6533 211.202 34.82 211.002 34.94C210.802 35.0467 210.548 35.1 210.242 35.1ZM226.689 35.16C226.236 35.16 225.916 35.0333 225.729 34.78C225.543 34.5133 225.516 34.1533 225.649 33.7C225.943 32.6733 226.169 31.62 226.329 30.54C226.503 29.4467 226.596 28.3 226.609 27.1H225.569C225.249 27.1 224.996 27.02 224.809 26.86C224.623 26.6867 224.529 26.4533 224.529 26.16C224.529 25.8533 224.616 25.62 224.789 25.46C224.976 25.3 225.249 25.22 225.609 25.22H235.309C235.669 25.22 235.936 25.3 236.109 25.46C236.296 25.62 236.389 25.8533 236.389 26.16C236.389 26.4533 236.296 26.6867 236.109 26.86C235.923 27.02 235.669 27.1 235.349 27.1H234.049V30.96C234.049 31.68 234.189 32.22 234.469 32.58C234.763 32.9267 235.216 33.1 235.829 33.1C235.936 33.1 236.036 33.0933 236.129 33.08C236.236 33.0667 236.316 33.06 236.369 33.06C236.529 33.06 236.656 33.1133 236.749 33.22C236.856 33.3133 236.909 33.5133 236.909 33.82C236.909 34.3267 236.769 34.68 236.489 34.88C236.209 35.0667 235.816 35.16 235.309 35.16C234.429 35.16 233.709 35 233.149 34.68C232.603 34.3467 232.196 33.88 231.929 33.28C231.676 32.6667 231.549 31.9467 231.549 31.12V27.1H229.089C229.076 28.5267 228.989 29.82 228.829 30.98C228.669 32.1267 228.436 33.18 228.129 34.14C228.023 34.5 227.849 34.76 227.609 34.92C227.383 35.08 227.076 35.16 226.689 35.16ZM244.402 35.1C244.109 35.1 243.862 35.02 243.662 34.86C243.475 34.6867 243.375 34.4667 243.362 34.2C243.362 33.9333 243.475 33.6533 243.702 33.36L246.942 29.36V30.54L243.902 26.8C243.662 26.5067 243.549 26.2267 243.562 25.96C243.575 25.6933 243.675 25.48 243.862 25.32C244.062 25.1467 244.309 25.06 244.602 25.06C244.909 25.06 245.162 25.1133 245.362 25.22C245.575 25.3267 245.769 25.4933 245.942 25.72L248.342 28.8H247.462L249.882 25.72C250.069 25.4933 250.262 25.3267 250.462 25.22C250.662 25.1133 250.909 25.06 251.202 25.06C251.509 25.06 251.755 25.1467 251.942 25.32C252.129 25.4933 252.222 25.7133 252.222 25.98C252.235 26.2467 252.122 26.5267 251.882 26.82L248.862 30.52V29.4L252.102 33.36C252.342 33.64 252.455 33.9133 252.442 34.18C252.429 34.4467 252.322 34.6667 252.122 34.84C251.935 35.0133 251.689 35.1 251.382 35.1C251.089 35.1 250.842 35.0467 250.642 34.94C250.442 34.8333 250.249 34.6667 250.062 34.44L247.462 31.16H248.302L245.722 34.44C245.549 34.6533 245.362 34.82 245.162 34.94C244.962 35.0467 244.709 35.1 244.402 35.1ZM261.35 35.16C260.936 35.16 260.616 35.0533 260.39 34.84C260.176 34.6133 260.07 34.2933 260.07 33.88V26.32C260.07 25.9067 260.176 25.5933 260.39 25.38C260.603 25.1667 260.903 25.06 261.29 25.06C261.676 25.06 261.976 25.1667 262.19 25.38C262.403 25.5933 262.51 25.9067 262.51 26.32V27.58H262.31C262.496 26.78 262.863 26.1733 263.41 25.76C263.956 25.3467 264.683 25.1 265.59 25.02C265.87 24.9933 266.09 25.0667 266.25 25.24C266.423 25.4 266.523 25.6533 266.55 26C266.576 26.3333 266.496 26.6067 266.31 26.82C266.136 27.02 265.87 27.14 265.51 27.18L265.07 27.22C264.256 27.3 263.643 27.5533 263.23 27.98C262.816 28.3933 262.61 28.98 262.61 29.74V33.88C262.61 34.2933 262.503 34.6133 262.29 34.84C262.076 35.0533 261.763 35.16 261.35 35.16ZM270.302 29.46C269.782 29.46 269.295 29.4067 268.842 29.3C268.388 29.18 267.988 29.0133 267.642 28.8C267.402 28.6533 267.248 28.4733 267.182 28.26C267.128 28.0467 267.148 27.8467 267.242 27.66C267.335 27.4733 267.482 27.3533 267.682 27.3C267.882 27.2333 268.122 27.2733 268.402 27.42C268.668 27.5533 268.935 27.6533 269.202 27.72C269.482 27.7733 269.768 27.8 270.062 27.8C270.502 27.8 270.848 27.7133 271.102 27.54C271.355 27.3667 271.482 27.1067 271.482 26.76C271.482 26.4533 271.368 26.24 271.142 26.12C270.915 26 270.595 25.94 270.182 25.94H269.302C269.008 25.94 268.782 25.8667 268.622 25.72C268.475 25.5733 268.402 25.3667 268.402 25.1C268.402 24.8333 268.475 24.6267 268.622 24.48C268.782 24.3333 269.008 24.26 269.302 24.26H269.942C270.355 24.26 270.675 24.1933 270.902 24.06C271.128 23.9133 271.242 23.6867 271.242 23.38C271.242 23.1133 271.128 22.9 270.902 22.74C270.688 22.5667 270.368 22.48 269.942 22.48C269.715 22.48 269.482 22.5133 269.242 22.58C269.002 22.6333 268.768 22.7133 268.542 22.82C268.262 22.9667 268.015 23.0133 267.802 22.96C267.588 22.8933 267.435 22.7733 267.342 22.6C267.248 22.4133 267.228 22.22 267.282 22.02C267.335 21.8067 267.482 21.6267 267.722 21.48C268.082 21.2667 268.488 21.1067 268.942 21C269.395 20.88 269.848 20.82 270.302 20.82C271.195 20.82 271.902 21.02 272.422 21.42C272.942 21.82 273.202 22.36 273.202 23.04C273.202 23.5867 273.022 24.0467 272.662 24.42C272.315 24.7933 271.888 25.0333 271.382 25.14V24.9C272.008 24.9533 272.508 25.1667 272.882 25.54C273.255 25.9 273.442 26.3933 273.442 27.02C273.442 27.5267 273.302 27.9667 273.022 28.34C272.755 28.7 272.388 28.98 271.922 29.18C271.455 29.3667 270.915 29.46 270.302 29.46Z" fill="#444444"/>
<path d="M197.62 42.28C198.18 42.3733 198.667 42.5867 199.08 42.92C199.493 43.24 199.813 43.6533 200.04 44.16C200.28 44.6667 200.4 45.2267 200.4 45.84C200.4 46.6667 200.187 47.3867 199.76 48C199.333 48.6133 198.727 49.0867 197.94 49.42C197.167 49.7667 196.253 49.94 195.2 49.94C194.187 49.94 193.287 49.7733 192.5 49.44C191.727 49.12 191.08 48.6467 190.56 48.02L192.08 46.12C192.427 46.5467 192.84 46.88 193.32 47.12C193.813 47.3733 194.413 47.5 195.12 47.5C195.933 47.5 196.553 47.3333 196.98 47C197.407 46.68 197.62 46.1933 197.62 45.54C197.62 44.8467 197.373 44.3133 196.88 43.94C196.387 43.5667 195.64 43.38 194.64 43.38H194.08V41.38H194.7C195.513 41.38 196.147 41.1933 196.6 40.82C197.067 40.4467 197.3 39.98 197.3 39.42C197.3 39.06 197.213 38.76 197.04 38.52C196.867 38.28 196.627 38.1 196.32 37.98C196.027 37.86 195.68 37.8 195.28 37.8C194.68 37.8 194.133 37.94 193.64 38.22C193.147 38.5 192.747 38.8933 192.44 39.4L190.76 37.52C191.04 37.1067 191.42 36.7533 191.9 36.46C192.393 36.1533 192.953 35.9133 193.58 35.74C194.22 35.5667 194.887 35.48 195.58 35.48C196.487 35.48 197.28 35.6267 197.96 35.92C198.653 36.2133 199.193 36.6267 199.58 37.16C199.967 37.6933 200.16 38.3133 200.16 39.02C200.16 39.54 200.053 40.0333 199.84 40.5C199.627 40.9667 199.327 41.36 198.94 41.68C198.567 41.9867 198.127 42.1867 197.62 42.28Z" fill="#444444"/>
<line x1="184" y1="30" x2="206" y2="30" stroke="#444444" stroke-width="2"/>
<path d="M196.24 24.54V21.56H190.4V19.18L197.1 10.58H198.92V19.16H200.68V21.56H198.92V24.54H196.24ZM193.08 19.16H196.54V14.64L193.08 19.16Z" fill="#444444"/>
</svg>
