<svg width="377" height="19" viewBox="0 0 377 19" fill="none" xmlns="http://www.w3.org/2000/svg">
<path d="M7.56969 15.16C7.20969 15.16 6.90969 15.08 6.66969 14.92C6.44302 14.7467 6.25635 14.4933 6.10969 14.16L0.889688 2.44C0.743021 2.10667 0.703021 1.81333 0.769688 1.56C0.836354 1.30667 0.976354 1.10667 1.18969 0.96C1.40302 0.813332 1.65635 0.739999 1.94969 0.739999C2.33635 0.739999 2.62302 0.826666 2.80969 0.999999C3.00969 1.16 3.17635 1.40667 3.30969 1.74L8.04969 12.72H7.18969L11.9097 1.72C12.0564 1.4 12.2297 1.16 12.4297 0.999999C12.6297 0.826666 12.9097 0.739999 13.2697 0.739999C13.563 0.739999 13.803 0.813332 13.9897 0.96C14.1897 1.10667 14.3164 1.30667 14.3697 1.56C14.423 1.81333 14.3764 2.10667 14.2297 2.44L9.00969 14.16C8.86302 14.4933 8.67635 14.7467 8.44969 14.92C8.23635 15.08 7.94302 15.16 7.56969 15.16ZM19.1975 15.2C18.1842 15.2 17.3042 14.9933 16.5575 14.58C15.8108 14.1667 15.2308 13.58 14.8175 12.82C14.4042 12.0467 14.1975 11.14 14.1975 10.1C14.1975 9.31333 14.3108 8.61333 14.5375 8C14.7775 7.37333 15.1175 6.84 15.5575 6.4C15.9975 5.94667 16.5242 5.60667 17.1375 5.38C17.7508 5.14 18.4375 5.02 19.1975 5.02C20.2108 5.02 21.0908 5.22667 21.8375 5.64C22.5842 6.05333 23.1642 6.64 23.5775 7.4C23.9908 8.16 24.1975 9.06 24.1975 10.1C24.1975 10.8867 24.0775 11.5933 23.8375 12.22C23.6108 12.8467 23.2775 13.3867 22.8375 13.84C22.3975 14.28 21.8708 14.62 21.2575 14.86C20.6442 15.0867 19.9575 15.2 19.1975 15.2ZM19.1975 13.3C19.6908 13.3 20.1242 13.18 20.4975 12.94C20.8708 12.7 21.1575 12.3467 21.3575 11.88C21.5708 11.4 21.6775 10.8067 21.6775 10.1C21.6775 9.03333 21.4508 8.24 20.9975 7.72C20.5442 7.18667 19.9442 6.92 19.1975 6.92C18.7042 6.92 18.2708 7.04 17.8975 7.28C17.5242 7.50667 17.2308 7.86 17.0175 8.34C16.8175 8.80667 16.7175 9.39333 16.7175 10.1C16.7175 11.1533 16.9442 11.9533 17.3975 12.5C17.8508 13.0333 18.4508 13.3 19.1975 13.3ZM29.6009 15.2C28.4943 15.2 27.6609 14.8867 27.1009 14.26C26.5409 13.62 26.2609 12.6867 26.2609 11.46V2C26.2609 1.58667 26.3676 1.27333 26.5809 1.06C26.7943 0.846666 27.1009 0.739999 27.5009 0.739999C27.9009 0.739999 28.2076 0.846666 28.4209 1.06C28.6476 1.27333 28.7609 1.58667 28.7609 2V11.34C28.7609 11.9533 28.8876 12.4067 29.1409 12.7C29.4076 12.9933 29.7809 13.14 30.2609 13.14C30.3676 13.14 30.4676 13.14 30.5609 13.14C30.6543 13.1267 30.7476 13.1133 30.8409 13.1C31.0276 13.0733 31.1543 13.1267 31.2209 13.26C31.2876 13.38 31.3209 13.6333 31.3209 14.02C31.3209 14.3533 31.2543 14.6133 31.1209 14.8C30.9876 14.9867 30.7676 15.1 30.4609 15.14C30.3276 15.1533 30.1876 15.1667 30.0409 15.18C29.8943 15.1933 29.7476 15.2 29.6009 15.2ZM36.1877 15.2C35.3743 15.2 34.701 15.0533 34.1677 14.76C33.6343 14.4533 33.2343 14 32.9677 13.4C32.7143 12.8 32.5877 12.0533 32.5877 11.16V6.32C32.5877 5.89333 32.6943 5.58 32.9077 5.38C33.121 5.16667 33.4277 5.06 33.8277 5.06C34.2277 5.06 34.5343 5.16667 34.7477 5.38C34.9743 5.58 35.0877 5.89333 35.0877 6.32V11.2C35.0877 11.8933 35.2277 12.4067 35.5077 12.74C35.7877 13.0733 36.2343 13.24 36.8477 13.24C37.5143 13.24 38.061 13.0133 38.4877 12.56C38.9143 12.0933 39.1277 11.48 39.1277 10.72V6.32C39.1277 5.89333 39.2343 5.58 39.4477 5.38C39.661 5.16667 39.9677 5.06 40.3677 5.06C40.7677 5.06 41.0743 5.16667 41.2877 5.38C41.5143 5.58 41.6277 5.89333 41.6277 6.32V13.88C41.6277 14.7333 41.221 15.16 40.4077 15.16C40.021 15.16 39.721 15.0533 39.5077 14.84C39.2943 14.6133 39.1877 14.2933 39.1877 13.88V12.36L39.4677 12.96C39.1877 13.68 38.761 14.2333 38.1877 14.62C37.6277 15.0067 36.961 15.2 36.1877 15.2ZM45.5097 15.16C45.1097 15.16 44.803 15.0533 44.5897 14.84C44.3764 14.6133 44.2697 14.2933 44.2697 13.88V6.32C44.2697 5.90667 44.3764 5.59333 44.5897 5.38C44.803 5.16667 45.103 5.06 45.4897 5.06C45.8764 5.06 46.1764 5.16667 46.3897 5.38C46.603 5.59333 46.7097 5.90667 46.7097 6.32V7.78L46.4897 7.18C46.7564 6.51333 47.1697 5.98667 47.7297 5.6C48.2897 5.21333 48.9564 5.02 49.7297 5.02C50.5164 5.02 51.163 5.20667 51.6697 5.58C52.1764 5.95333 52.5297 6.52667 52.7297 7.3H52.4497C52.7164 6.59333 53.1564 6.04 53.7697 5.64C54.383 5.22667 55.0897 5.02 55.8897 5.02C56.6364 5.02 57.2497 5.16667 57.7297 5.46C58.223 5.75333 58.5897 6.2 58.8297 6.8C59.0697 7.38667 59.1897 8.13333 59.1897 9.04V13.88C59.1897 14.2933 59.0764 14.6133 58.8497 14.84C58.6364 15.0533 58.3297 15.16 57.9297 15.16C57.5297 15.16 57.223 15.0533 57.0097 14.84C56.7964 14.6133 56.6897 14.2933 56.6897 13.88V9.14C56.6897 8.39333 56.563 7.84667 56.3097 7.5C56.0697 7.15333 55.6564 6.98 55.0697 6.98C54.4164 6.98 53.903 7.21333 53.5297 7.68C53.1564 8.13333 52.9697 8.76667 52.9697 9.58V13.88C52.9697 14.2933 52.863 14.6133 52.6497 14.84C52.4364 15.0533 52.1297 15.16 51.7297 15.16C51.3297 15.16 51.0164 15.0533 50.7897 14.84C50.5764 14.6133 50.4697 14.2933 50.4697 13.88V9.14C50.4697 8.39333 50.343 7.84667 50.0897 7.5C49.8497 7.15333 49.443 6.98 48.8697 6.98C48.2164 6.98 47.703 7.21333 47.3297 7.68C46.9564 8.13333 46.7697 8.76667 46.7697 9.58V13.88C46.7697 14.7333 46.3497 15.16 45.5097 15.16ZM66.5888 15.2C65.4821 15.2 64.5288 14.9933 63.7288 14.58C62.9288 14.1667 62.3088 13.58 61.8688 12.82C61.4421 12.06 61.2288 11.16 61.2288 10.12C61.2288 9.10667 61.4354 8.22 61.8488 7.46C62.2754 6.7 62.8554 6.10667 63.5888 5.68C64.3354 5.24 65.1821 5.02 66.1288 5.02C66.8221 5.02 67.4421 5.13333 67.9888 5.36C68.5488 5.58667 69.0221 5.91333 69.4088 6.34C69.8088 6.76667 70.1088 7.28667 70.3088 7.9C70.5221 8.5 70.6288 9.18 70.6288 9.94C70.6288 10.18 70.5421 10.3667 70.3688 10.5C70.2088 10.62 69.9754 10.68 69.6688 10.68H63.2488V9.24H68.8688L68.5488 9.54C68.5488 8.92667 68.4554 8.41333 68.2688 8C68.0954 7.58667 67.8354 7.27333 67.4888 7.06C67.1554 6.83333 66.7354 6.72 66.2288 6.72C65.6688 6.72 65.1888 6.85333 64.7888 7.12C64.4021 7.37333 64.1021 7.74 63.8888 8.22C63.6888 8.68667 63.5888 9.24667 63.5888 9.9V10.04C63.5888 11.1333 63.8421 11.9533 64.3488 12.5C64.8688 13.0333 65.6288 13.3 66.6288 13.3C66.9754 13.3 67.3621 13.26 67.7888 13.18C68.2288 13.0867 68.6421 12.9333 69.0288 12.72C69.3088 12.56 69.5554 12.4933 69.7688 12.52C69.9821 12.5333 70.1488 12.6067 70.2688 12.74C70.4021 12.8733 70.4821 13.04 70.5088 13.24C70.5354 13.4267 70.4954 13.62 70.3888 13.82C70.2954 14.02 70.1288 14.1933 69.8888 14.34C69.4221 14.6333 68.8821 14.8533 68.2688 15C67.6688 15.1333 67.1088 15.2 66.5888 15.2ZM82.4983 15.2C81.4849 15.2 80.6049 14.9933 79.8583 14.58C79.1116 14.1667 78.5316 13.58 78.1183 12.82C77.7049 12.0467 77.4983 11.14 77.4983 10.1C77.4983 9.31333 77.6116 8.61333 77.8383 8C78.0783 7.37333 78.4183 6.84 78.8583 6.4C79.2983 5.94667 79.8249 5.60667 80.4383 5.38C81.0516 5.14 81.7383 5.02 82.4983 5.02C83.5116 5.02 84.3916 5.22667 85.1383 5.64C85.8849 6.05333 86.4649 6.64 86.8783 7.4C87.2916 8.16 87.4983 9.06 87.4983 10.1C87.4983 10.8867 87.3783 11.5933 87.1383 12.22C86.9116 12.8467 86.5783 13.3867 86.1383 13.84C85.6983 14.28 85.1716 14.62 84.5583 14.86C83.9449 15.0867 83.2583 15.2 82.4983 15.2ZM82.4983 13.3C82.9916 13.3 83.4249 13.18 83.7983 12.94C84.1716 12.7 84.4583 12.3467 84.6583 11.88C84.8716 11.4 84.9783 10.8067 84.9783 10.1C84.9783 9.03333 84.7516 8.24 84.2983 7.72C83.8449 7.18667 83.2449 6.92 82.4983 6.92C82.0049 6.92 81.5716 7.04 81.1983 7.28C80.8249 7.50667 80.5316 7.86 80.3183 8.34C80.1183 8.80667 80.0183 9.39333 80.0183 10.1C80.0183 11.1533 80.2449 11.9533 80.6983 12.5C81.1516 13.0333 81.7516 13.3 82.4983 13.3ZM91.3841 15.16C90.9841 15.16 90.6707 15.0533 90.4441 14.84C90.2307 14.6133 90.1241 14.2933 90.1241 13.88V7.1H89.2041C88.8841 7.1 88.6374 7.02 88.4641 6.86C88.2907 6.68667 88.2041 6.45333 88.2041 6.16C88.2041 5.85333 88.2907 5.62 88.4641 5.46C88.6374 5.3 88.8841 5.22 89.2041 5.22H90.8441L90.1241 5.88V5.2C90.1241 3.82667 90.4707 2.8 91.1641 2.12C91.8574 1.42667 92.8574 1.02 94.1641 0.899999L94.8441 0.84C95.1107 0.813333 95.3241 0.859999 95.4841 0.979999C95.6441 1.08667 95.7507 1.23333 95.8041 1.42C95.8574 1.59333 95.8641 1.77333 95.8241 1.96C95.7841 2.14667 95.6974 2.31333 95.5641 2.46C95.4441 2.59333 95.2841 2.66667 95.0841 2.68L94.8041 2.7C94.0441 2.75333 93.4907 2.94667 93.1441 3.28C92.7974 3.61333 92.6241 4.12 92.6241 4.8V5.54L92.3041 5.22H94.3241C94.6441 5.22 94.8907 5.3 95.0641 5.46C95.2374 5.62 95.3241 5.85333 95.3241 6.16C95.3241 6.45333 95.2374 6.68667 95.0641 6.86C94.8907 7.02 94.6441 7.1 94.3241 7.1H92.6241V13.88C92.6241 14.7333 92.2107 15.16 91.3841 15.16ZM105.759 15.2C105.186 15.2 104.579 15.14 103.939 15.02C103.299 14.9 102.726 14.6933 102.219 14.4C102.006 14.2667 101.852 14.1133 101.759 13.94C101.679 13.7533 101.646 13.5733 101.659 13.4C101.686 13.2133 101.752 13.0533 101.859 12.92C101.979 12.7867 102.126 12.7 102.299 12.66C102.486 12.62 102.686 12.6533 102.899 12.76C103.432 13.0133 103.932 13.1933 104.399 13.3C104.866 13.3933 105.326 13.44 105.779 13.44C106.419 13.44 106.892 13.3333 107.199 13.12C107.519 12.8933 107.679 12.6 107.679 12.24C107.679 11.9333 107.572 11.7 107.359 11.54C107.159 11.3667 106.852 11.24 106.439 11.16L104.439 10.78C103.612 10.62 102.979 10.32 102.539 9.88C102.112 9.42667 101.899 8.84667 101.899 8.14C101.899 7.5 102.072 6.94667 102.419 6.48C102.779 6.01333 103.272 5.65333 103.899 5.4C104.526 5.14667 105.246 5.02 106.059 5.02C106.646 5.02 107.192 5.08667 107.699 5.22C108.219 5.34 108.719 5.53333 109.199 5.8C109.399 5.90667 109.532 6.04667 109.599 6.22C109.679 6.39333 109.699 6.57333 109.659 6.76C109.619 6.93333 109.539 7.09333 109.419 7.24C109.299 7.37333 109.146 7.46 108.959 7.5C108.786 7.52667 108.586 7.48667 108.359 7.38C107.946 7.16667 107.546 7.01333 107.159 6.92C106.786 6.82667 106.426 6.78 106.079 6.78C105.426 6.78 104.939 6.89333 104.619 7.12C104.312 7.34667 104.159 7.64667 104.159 8.02C104.159 8.3 104.252 8.53333 104.439 8.72C104.626 8.90667 104.912 9.03333 105.299 9.1L107.299 9.48C108.166 9.64 108.819 9.93333 109.259 10.36C109.712 10.7867 109.939 11.36 109.939 12.08C109.939 13.0533 109.559 13.82 108.799 14.38C108.039 14.9267 107.026 15.2 105.759 15.2ZM113.185 18.76C112.785 18.76 112.478 18.6533 112.265 18.44C112.051 18.2267 111.945 17.9133 111.945 17.5V6.32C111.945 5.90667 112.051 5.59333 112.265 5.38C112.478 5.16667 112.778 5.06 113.165 5.06C113.565 5.06 113.871 5.16667 114.085 5.38C114.298 5.59333 114.405 5.90667 114.405 6.32V7.88L114.185 7.28C114.385 6.6 114.791 6.05333 115.405 5.64C116.031 5.22667 116.758 5.02 117.585 5.02C118.438 5.02 119.185 5.22667 119.825 5.64C120.478 6.05333 120.985 6.64 121.345 7.4C121.705 8.14667 121.885 9.04667 121.885 10.1C121.885 11.14 121.705 12.0467 121.345 12.82C120.985 13.58 120.485 14.1667 119.845 14.58C119.205 14.9933 118.451 15.2 117.585 15.2C116.771 15.2 116.058 15 115.445 14.6C114.831 14.1867 114.418 13.6533 114.205 13H114.445V17.5C114.445 17.9133 114.331 18.2267 114.105 18.44C113.891 18.6533 113.585 18.76 113.185 18.76ZM116.885 13.3C117.378 13.3 117.811 13.18 118.185 12.94C118.558 12.7 118.845 12.3467 119.045 11.88C119.258 11.4 119.365 10.8067 119.365 10.1C119.365 9.03333 119.138 8.24 118.685 7.72C118.231 7.18667 117.631 6.92 116.885 6.92C116.391 6.92 115.958 7.04 115.585 7.28C115.211 7.50667 114.918 7.86 114.705 8.34C114.505 8.80667 114.405 9.39333 114.405 10.1C114.405 11.1533 114.631 11.9533 115.085 12.5C115.538 13.0333 116.138 13.3 116.885 13.3ZM125.177 15.16C124.777 15.16 124.47 15.0533 124.257 14.84C124.043 14.6133 123.937 14.2933 123.937 13.88V2C123.937 1.58667 124.043 1.27333 124.257 1.06C124.47 0.846666 124.777 0.739999 125.177 0.739999C125.577 0.739999 125.883 0.846666 126.097 1.06C126.323 1.27333 126.437 1.58667 126.437 2V7.18H126.157C126.45 6.47333 126.903 5.94 127.517 5.58C128.143 5.20667 128.85 5.02 129.637 5.02C130.423 5.02 131.07 5.16667 131.577 5.46C132.083 5.75333 132.463 6.2 132.717 6.8C132.97 7.38667 133.097 8.13333 133.097 9.04V13.88C133.097 14.2933 132.99 14.6133 132.777 14.84C132.563 15.0533 132.257 15.16 131.857 15.16C131.457 15.16 131.143 15.0533 130.917 14.84C130.703 14.6133 130.597 14.2933 130.597 13.88V9.16C130.597 8.4 130.45 7.84667 130.157 7.5C129.877 7.15333 129.437 6.98 128.837 6.98C128.103 6.98 127.517 7.21333 127.077 7.68C126.65 8.13333 126.437 8.74 126.437 9.5V13.88C126.437 14.7333 126.017 15.16 125.177 15.16ZM140.456 15.2C139.349 15.2 138.396 14.9933 137.596 14.58C136.796 14.1667 136.176 13.58 135.736 12.82C135.309 12.06 135.096 11.16 135.096 10.12C135.096 9.10667 135.303 8.22 135.716 7.46C136.143 6.7 136.723 6.10667 137.456 5.68C138.203 5.24 139.049 5.02 139.996 5.02C140.689 5.02 141.309 5.13333 141.856 5.36C142.416 5.58667 142.889 5.91333 143.276 6.34C143.676 6.76667 143.976 7.28667 144.176 7.9C144.389 8.5 144.496 9.18 144.496 9.94C144.496 10.18 144.409 10.3667 144.236 10.5C144.076 10.62 143.843 10.68 143.536 10.68H137.116V9.24H142.736L142.416 9.54C142.416 8.92667 142.323 8.41333 142.136 8C141.963 7.58667 141.703 7.27333 141.356 7.06C141.023 6.83333 140.603 6.72 140.096 6.72C139.536 6.72 139.056 6.85333 138.656 7.12C138.269 7.37333 137.969 7.74 137.756 8.22C137.556 8.68667 137.456 9.24667 137.456 9.9V10.04C137.456 11.1333 137.709 11.9533 138.216 12.5C138.736 13.0333 139.496 13.3 140.496 13.3C140.843 13.3 141.229 13.26 141.656 13.18C142.096 13.0867 142.509 12.9333 142.896 12.72C143.176 12.56 143.423 12.4933 143.636 12.52C143.849 12.5333 144.016 12.6067 144.136 12.74C144.269 12.8733 144.349 13.04 144.376 13.24C144.403 13.4267 144.363 13.62 144.256 13.82C144.163 14.02 143.996 14.1933 143.756 14.34C143.289 14.6333 142.749 14.8533 142.136 15C141.536 15.1333 140.976 15.2 140.456 15.2ZM147.756 15.16C147.342 15.16 147.022 15.0533 146.796 14.84C146.582 14.6133 146.476 14.2933 146.476 13.88V6.32C146.476 5.90667 146.582 5.59333 146.796 5.38C147.009 5.16667 147.309 5.06 147.696 5.06C148.082 5.06 148.382 5.16667 148.596 5.38C148.809 5.59333 148.916 5.90667 148.916 6.32V7.58H148.716C148.902 6.78 149.269 6.17333 149.816 5.76C150.362 5.34667 151.089 5.1 151.996 5.02C152.276 4.99333 152.496 5.06667 152.656 5.24C152.829 5.4 152.929 5.65333 152.956 6C152.982 6.33333 152.902 6.60667 152.716 6.82C152.542 7.02 152.276 7.14 151.916 7.18L151.476 7.22C150.662 7.3 150.049 7.55333 149.636 7.98C149.222 8.39333 149.016 8.98 149.016 9.74V13.88C149.016 14.2933 148.909 14.6133 148.696 14.84C148.482 15.0533 148.169 15.16 147.756 15.16ZM158.972 15.2C157.865 15.2 156.912 14.9933 156.112 14.58C155.312 14.1667 154.692 13.58 154.252 12.82C153.825 12.06 153.612 11.16 153.612 10.12C153.612 9.10667 153.818 8.22 154.232 7.46C154.658 6.7 155.238 6.10667 155.972 5.68C156.718 5.24 157.565 5.02 158.512 5.02C159.205 5.02 159.825 5.13333 160.372 5.36C160.932 5.58667 161.405 5.91333 161.792 6.34C162.192 6.76667 162.492 7.28667 162.692 7.9C162.905 8.5 163.012 9.18 163.012 9.94C163.012 10.18 162.925 10.3667 162.752 10.5C162.592 10.62 162.358 10.68 162.052 10.68H155.632V9.24H161.252L160.932 9.54C160.932 8.92667 160.838 8.41333 160.652 8C160.478 7.58667 160.218 7.27333 159.872 7.06C159.538 6.83333 159.118 6.72 158.612 6.72C158.052 6.72 157.572 6.85333 157.172 7.12C156.785 7.37333 156.485 7.74 156.272 8.22C156.072 8.68667 155.972 9.24667 155.972 9.9V10.04C155.972 11.1333 156.225 11.9533 156.732 12.5C157.252 13.0333 158.012 13.3 159.012 13.3C159.358 13.3 159.745 13.26 160.172 13.18C160.612 13.0867 161.025 12.9333 161.412 12.72C161.692 12.56 161.938 12.4933 162.152 12.52C162.365 12.5333 162.532 12.6067 162.652 12.74C162.785 12.8733 162.865 13.04 162.892 13.24C162.918 13.4267 162.878 13.62 162.772 13.82C162.678 14.02 162.512 14.1933 162.272 14.34C161.805 14.6333 161.265 14.8533 160.652 15C160.052 15.1333 159.492 15.2 158.972 15.2ZM170.981 8.14C170.701 8.14 170.481 8.06667 170.321 7.92C170.161 7.76 170.081 7.54 170.081 7.26C170.081 6.98 170.161 6.76667 170.321 6.62C170.481 6.46 170.701 6.38 170.981 6.38H179.261C179.554 6.38 179.774 6.46 179.921 6.62C180.081 6.76667 180.161 6.98 180.161 7.26C180.161 7.54 180.081 7.76 179.921 7.92C179.774 8.06667 179.554 8.14 179.261 8.14H170.981ZM170.981 12.12C170.701 12.12 170.481 12.0467 170.321 11.9C170.161 11.74 170.081 11.52 170.081 11.24C170.081 10.96 170.161 10.7467 170.321 10.6C170.481 10.4533 170.701 10.38 170.981 10.38H179.261C179.554 10.38 179.774 10.4533 179.921 10.6C180.081 10.7467 180.161 10.96 180.161 11.24C180.161 11.5333 180.081 11.7533 179.921 11.9C179.774 12.0467 179.554 12.12 179.261 12.12H170.981ZM194.803 15.16C194.403 15.16 194.09 15.0533 193.863 14.84C193.636 14.6133 193.523 14.2933 193.523 13.88V12.32H188.583C188.17 12.32 187.836 12.2333 187.583 12.06C187.343 11.8867 187.223 11.6133 187.223 11.24C187.223 11.0267 187.276 10.7933 187.383 10.54C187.503 10.2867 187.71 9.95333 188.003 9.54L193.483 1.6C193.67 1.32 193.876 1.10667 194.103 0.96C194.33 0.813332 194.59 0.739999 194.883 0.739999C195.23 0.739999 195.516 0.846666 195.743 1.06C195.97 1.26 196.083 1.58 196.083 2.02V10.2H197.063C197.45 10.2 197.736 10.2933 197.923 10.48C198.123 10.6533 198.223 10.9133 198.223 11.26C198.223 11.6067 198.123 11.8733 197.923 12.06C197.736 12.2333 197.45 12.32 197.063 12.32H196.083V13.88C196.083 14.2933 195.97 14.6133 195.743 14.84C195.516 15.0533 195.203 15.16 194.803 15.16ZM193.523 10.2V3.96H194.103L189.383 10.88V10.2H193.523ZM205.945 15.1C205.652 15.1 205.405 15.02 205.205 14.86C205.018 14.6867 204.918 14.4667 204.905 14.2C204.905 13.9333 205.018 13.6533 205.245 13.36L208.485 9.36V10.54L205.445 6.8C205.205 6.50667 205.092 6.22667 205.105 5.96C205.118 5.69333 205.218 5.48 205.405 5.32C205.605 5.14667 205.852 5.06 206.145 5.06C206.452 5.06 206.705 5.11333 206.905 5.22C207.118 5.32667 207.312 5.49333 207.485 5.72L209.885 8.8H209.005L211.425 5.72C211.612 5.49333 211.805 5.32667 212.005 5.22C212.205 5.11333 212.452 5.06 212.745 5.06C213.052 5.06 213.298 5.14667 213.485 5.32C213.672 5.49333 213.765 5.71333 213.765 5.98C213.778 6.24667 213.665 6.52667 213.425 6.82L210.405 10.52V9.4L213.645 13.36C213.885 13.64 213.998 13.9133 213.985 14.18C213.972 14.4467 213.865 14.6667 213.665 14.84C213.478 15.0133 213.232 15.1 212.925 15.1C212.632 15.1 212.385 15.0467 212.185 14.94C211.985 14.8333 211.792 14.6667 211.605 14.44L209.005 11.16H209.845L207.265 14.44C207.092 14.6533 206.905 14.82 206.705 14.94C206.505 15.0467 206.252 15.1 205.945 15.1ZM224.653 18.26C223.826 16.9533 223.226 15.58 222.853 14.14C222.493 12.6867 222.313 11.22 222.313 9.74C222.313 8.75333 222.393 7.77333 222.553 6.8C222.713 5.82667 222.966 4.87333 223.313 3.94C223.659 2.99333 224.106 2.08667 224.653 1.22C224.799 0.98 224.993 0.833333 225.233 0.779999C225.486 0.713333 225.719 0.726666 225.933 0.819999C226.159 0.913333 226.326 1.08667 226.433 1.34C226.539 1.58 226.526 1.88667 226.393 2.26C226.073 3.11333 225.806 3.95333 225.592 4.78C225.393 5.59333 225.239 6.40667 225.133 7.22C225.039 8.03333 224.993 8.87333 224.993 9.74C224.993 10.6067 225.046 11.4467 225.153 12.26C225.259 13.0733 225.419 13.8867 225.633 14.7C225.846 15.5133 226.099 16.3533 226.393 17.22C226.526 17.5933 226.539 17.9 226.433 18.14C226.326 18.3933 226.159 18.5667 225.933 18.66C225.719 18.7533 225.486 18.7667 225.233 18.7C224.993 18.6467 224.799 18.5 224.653 18.26ZM235.226 15.16C234.866 15.16 234.566 15.08 234.326 14.92C234.099 14.7467 233.913 14.4933 233.766 14.16L228.546 2.44C228.399 2.10667 228.359 1.81333 228.426 1.56C228.493 1.30667 228.633 1.10667 228.846 0.96C229.059 0.813332 229.313 0.739999 229.606 0.739999C229.993 0.739999 230.279 0.826666 230.466 0.999999C230.666 1.16 230.833 1.40667 230.966 1.74L235.706 12.72H234.846L239.566 1.72C239.713 1.4 239.886 1.16 240.086 0.999999C240.286 0.826666 240.566 0.739999 240.926 0.739999C241.219 0.739999 241.459 0.813332 241.646 0.96C241.846 1.10667 241.973 1.30667 242.026 1.56C242.079 1.81333 242.033 2.10667 241.886 2.44L236.666 14.16C236.519 14.4933 236.333 14.7467 236.106 14.92C235.893 15.08 235.599 15.16 235.226 15.16ZM246.854 15.2C245.84 15.2 244.96 14.9933 244.214 14.58C243.467 14.1667 242.887 13.58 242.474 12.82C242.06 12.0467 241.854 11.14 241.854 10.1C241.854 9.31333 241.967 8.61333 242.194 8C242.434 7.37333 242.774 6.84 243.214 6.4C243.654 5.94667 244.18 5.60667 244.794 5.38C245.407 5.14 246.094 5.02 246.854 5.02C247.867 5.02 248.747 5.22667 249.494 5.64C250.24 6.05333 250.82 6.64 251.234 7.4C251.647 8.16 251.854 9.06 251.854 10.1C251.854 10.8867 251.734 11.5933 251.494 12.22C251.267 12.8467 250.934 13.3867 250.494 13.84C250.054 14.28 249.527 14.62 248.914 14.86C248.3 15.0867 247.614 15.2 246.854 15.2ZM246.854 13.3C247.347 13.3 247.78 13.18 248.154 12.94C248.527 12.7 248.814 12.3467 249.014 11.88C249.227 11.4 249.334 10.8067 249.334 10.1C249.334 9.03333 249.107 8.24 248.654 7.72C248.2 7.18667 247.6 6.92 246.854 6.92C246.36 6.92 245.927 7.04 245.554 7.28C245.18 7.50667 244.887 7.86 244.674 8.34C244.474 8.80667 244.374 9.39333 244.374 10.1C244.374 11.1533 244.6 11.9533 245.054 12.5C245.507 13.0333 246.107 13.3 246.854 13.3ZM257.257 15.2C256.151 15.2 255.317 14.8867 254.757 14.26C254.197 13.62 253.917 12.6867 253.917 11.46V2C253.917 1.58667 254.024 1.27333 254.237 1.06C254.451 0.846666 254.757 0.739999 255.157 0.739999C255.557 0.739999 255.864 0.846666 256.077 1.06C256.304 1.27333 256.417 1.58667 256.417 2V11.34C256.417 11.9533 256.544 12.4067 256.797 12.7C257.064 12.9933 257.437 13.14 257.917 13.14C258.024 13.14 258.124 13.14 258.217 13.14C258.311 13.1267 258.404 13.1133 258.497 13.1C258.684 13.0733 258.811 13.1267 258.877 13.26C258.944 13.38 258.977 13.6333 258.977 14.02C258.977 14.3533 258.911 14.6133 258.777 14.8C258.644 14.9867 258.424 15.1 258.117 15.14C257.984 15.1533 257.844 15.1667 257.697 15.18C257.551 15.1933 257.404 15.2 257.257 15.2ZM263.844 15.2C263.031 15.2 262.357 15.0533 261.824 14.76C261.291 14.4533 260.891 14 260.624 13.4C260.371 12.8 260.244 12.0533 260.244 11.16V6.32C260.244 5.89333 260.351 5.58 260.564 5.38C260.777 5.16667 261.084 5.06 261.484 5.06C261.884 5.06 262.191 5.16667 262.404 5.38C262.631 5.58 262.744 5.89333 262.744 6.32V11.2C262.744 11.8933 262.884 12.4067 263.164 12.74C263.444 13.0733 263.891 13.24 264.504 13.24C265.171 13.24 265.717 13.0133 266.144 12.56C266.571 12.0933 266.784 11.48 266.784 10.72V6.32C266.784 5.89333 266.891 5.58 267.104 5.38C267.317 5.16667 267.624 5.06 268.024 5.06C268.424 5.06 268.731 5.16667 268.944 5.38C269.171 5.58 269.284 5.89333 269.284 6.32V13.88C269.284 14.7333 268.877 15.16 268.064 15.16C267.677 15.16 267.377 15.0533 267.164 14.84C266.951 14.6133 266.844 14.2933 266.844 13.88V12.36L267.124 12.96C266.844 13.68 266.417 14.2333 265.844 14.62C265.284 15.0067 264.617 15.2 263.844 15.2ZM273.166 15.16C272.766 15.16 272.459 15.0533 272.246 14.84C272.033 14.6133 271.926 14.2933 271.926 13.88V6.32C271.926 5.90667 272.033 5.59333 272.246 5.38C272.459 5.16667 272.759 5.06 273.146 5.06C273.533 5.06 273.833 5.16667 274.046 5.38C274.259 5.59333 274.366 5.90667 274.366 6.32V7.78L274.146 7.18C274.413 6.51333 274.826 5.98667 275.386 5.6C275.946 5.21333 276.613 5.02 277.386 5.02C278.173 5.02 278.819 5.20667 279.326 5.58C279.833 5.95333 280.186 6.52667 280.386 7.3H280.106C280.373 6.59333 280.813 6.04 281.426 5.64C282.039 5.22667 282.746 5.02 283.546 5.02C284.293 5.02 284.906 5.16667 285.386 5.46C285.879 5.75333 286.246 6.2 286.486 6.8C286.726 7.38667 286.846 8.13333 286.846 9.04V13.88C286.846 14.2933 286.733 14.6133 286.506 14.84C286.293 15.0533 285.986 15.16 285.586 15.16C285.186 15.16 284.879 15.0533 284.666 14.84C284.453 14.6133 284.346 14.2933 284.346 13.88V9.14C284.346 8.39333 284.219 7.84667 283.966 7.5C283.726 7.15333 283.313 6.98 282.726 6.98C282.073 6.98 281.559 7.21333 281.186 7.68C280.813 8.13333 280.626 8.76667 280.626 9.58V13.88C280.626 14.2933 280.519 14.6133 280.306 14.84C280.093 15.0533 279.786 15.16 279.386 15.16C278.986 15.16 278.673 15.0533 278.446 14.84C278.233 14.6133 278.126 14.2933 278.126 13.88V9.14C278.126 8.39333 277.999 7.84667 277.746 7.5C277.506 7.15333 277.099 6.98 276.526 6.98C275.873 6.98 275.359 7.21333 274.986 7.68C274.613 8.13333 274.426 8.76667 274.426 9.58V13.88C274.426 14.7333 274.006 15.16 273.166 15.16ZM294.245 15.2C293.138 15.2 292.185 14.9933 291.385 14.58C290.585 14.1667 289.965 13.58 289.525 12.82C289.098 12.06 288.885 11.16 288.885 10.12C288.885 9.10667 289.092 8.22 289.505 7.46C289.932 6.7 290.512 6.10667 291.245 5.68C291.992 5.24 292.838 5.02 293.785 5.02C294.478 5.02 295.098 5.13333 295.645 5.36C296.205 5.58667 296.678 5.91333 297.065 6.34C297.465 6.76667 297.765 7.28667 297.965 7.9C298.178 8.5 298.285 9.18 298.285 9.94C298.285 10.18 298.198 10.3667 298.025 10.5C297.865 10.62 297.632 10.68 297.325 10.68H290.905V9.24H296.525L296.205 9.54C296.205 8.92667 296.112 8.41333 295.925 8C295.752 7.58667 295.492 7.27333 295.145 7.06C294.812 6.83333 294.392 6.72 293.885 6.72C293.325 6.72 292.845 6.85333 292.445 7.12C292.058 7.37333 291.758 7.74 291.545 8.22C291.345 8.68667 291.245 9.24667 291.245 9.9V10.04C291.245 11.1333 291.498 11.9533 292.005 12.5C292.525 13.0333 293.285 13.3 294.285 13.3C294.632 13.3 295.018 13.26 295.445 13.18C295.885 13.0867 296.298 12.9333 296.685 12.72C296.965 12.56 297.212 12.4933 297.425 12.52C297.638 12.5333 297.805 12.6067 297.925 12.74C298.058 12.8733 298.138 13.04 298.165 13.24C298.192 13.4267 298.152 13.62 298.045 13.82C297.952 14.02 297.785 14.1933 297.545 14.34C297.078 14.6333 296.538 14.8533 295.925 15C295.325 15.1333 294.765 15.2 294.245 15.2ZM310.155 15.2C309.141 15.2 308.261 14.9933 307.515 14.58C306.768 14.1667 306.188 13.58 305.775 12.82C305.361 12.0467 305.155 11.14 305.155 10.1C305.155 9.31333 305.268 8.61333 305.495 8C305.735 7.37333 306.075 6.84 306.515 6.4C306.955 5.94667 307.481 5.60667 308.095 5.38C308.708 5.14 309.395 5.02 310.155 5.02C311.168 5.02 312.048 5.22667 312.795 5.64C313.541 6.05333 314.121 6.64 314.535 7.4C314.948 8.16 315.155 9.06 315.155 10.1C315.155 10.8867 315.035 11.5933 314.795 12.22C314.568 12.8467 314.235 13.3867 313.795 13.84C313.355 14.28 312.828 14.62 312.215 14.86C311.601 15.0867 310.915 15.2 310.155 15.2ZM310.155 13.3C310.648 13.3 311.081 13.18 311.455 12.94C311.828 12.7 312.115 12.3467 312.315 11.88C312.528 11.4 312.635 10.8067 312.635 10.1C312.635 9.03333 312.408 8.24 311.955 7.72C311.501 7.18667 310.901 6.92 310.155 6.92C309.661 6.92 309.228 7.04 308.855 7.28C308.481 7.50667 308.188 7.86 307.975 8.34C307.775 8.80667 307.675 9.39333 307.675 10.1C307.675 11.1533 307.901 11.9533 308.355 12.5C308.808 13.0333 309.408 13.3 310.155 13.3ZM319.04 15.16C318.64 15.16 318.327 15.0533 318.1 14.84C317.887 14.6133 317.78 14.2933 317.78 13.88V7.1H316.86C316.54 7.1 316.294 7.02 316.12 6.86C315.947 6.68667 315.86 6.45333 315.86 6.16C315.86 5.85333 315.947 5.62 316.12 5.46C316.294 5.3 316.54 5.22 316.86 5.22H318.5L317.78 5.88V5.2C317.78 3.82667 318.127 2.8 318.82 2.12C319.514 1.42667 320.514 1.02 321.82 0.899999L322.5 0.84C322.767 0.813333 322.98 0.859999 323.14 0.979999C323.3 1.08667 323.407 1.23333 323.46 1.42C323.514 1.59333 323.52 1.77333 323.48 1.96C323.44 2.14667 323.354 2.31333 323.22 2.46C323.1 2.59333 322.94 2.66667 322.74 2.68L322.46 2.7C321.7 2.75333 321.147 2.94667 320.8 3.28C320.454 3.61333 320.28 4.12 320.28 4.8V5.54L319.96 5.22H321.98C322.3 5.22 322.547 5.3 322.72 5.46C322.894 5.62 322.98 5.85333 322.98 6.16C322.98 6.45333 322.894 6.68667 322.72 6.86C322.547 7.02 322.3 7.1 321.98 7.1H320.28V13.88C320.28 14.7333 319.867 15.16 319.04 15.16ZM334.355 15.2C333.328 15.2 332.435 14.9933 331.675 14.58C330.915 14.1533 330.328 13.5533 329.915 12.78C329.502 12.0067 329.295 11.1 329.295 10.06C329.295 9.27333 329.408 8.57333 329.635 7.96C329.875 7.33333 330.215 6.80667 330.655 6.38C331.095 5.94 331.628 5.60667 332.255 5.38C332.882 5.14 333.582 5.02 334.355 5.02C334.795 5.02 335.268 5.08 335.775 5.2C336.295 5.32 336.782 5.52 337.235 5.8C337.448 5.93333 337.588 6.09333 337.655 6.28C337.722 6.46667 337.735 6.66 337.695 6.86C337.655 7.04667 337.568 7.21333 337.435 7.36C337.315 7.49333 337.162 7.58 336.975 7.62C336.788 7.64667 336.582 7.6 336.355 7.48C336.062 7.30667 335.762 7.18 335.455 7.1C335.148 7.00667 334.855 6.96 334.575 6.96C334.135 6.96 333.748 7.03333 333.415 7.18C333.082 7.31333 332.795 7.51333 332.555 7.78C332.328 8.03333 332.155 8.35333 332.035 8.74C331.915 9.12667 331.855 9.57333 331.855 10.08C331.855 11.0667 332.088 11.8467 332.555 12.42C333.035 12.98 333.708 13.26 334.575 13.26C334.855 13.26 335.142 13.22 335.435 13.14C335.742 13.06 336.048 12.9333 336.355 12.76C336.582 12.64 336.782 12.6 336.955 12.64C337.142 12.68 337.295 12.7733 337.415 12.92C337.535 13.0533 337.608 13.22 337.635 13.42C337.662 13.6067 337.635 13.7933 337.555 13.98C337.488 14.1667 337.355 14.32 337.155 14.44C336.715 14.7067 336.248 14.9 335.755 15.02C335.262 15.14 334.795 15.2 334.355 15.2ZM343.533 15.2C342.52 15.2 341.64 14.9933 340.893 14.58C340.147 14.1667 339.567 13.58 339.153 12.82C338.74 12.0467 338.533 11.14 338.533 10.1C338.533 9.31333 338.647 8.61333 338.873 8C339.113 7.37333 339.453 6.84 339.893 6.4C340.333 5.94667 340.86 5.60667 341.473 5.38C342.087 5.14 342.773 5.02 343.533 5.02C344.547 5.02 345.427 5.22667 346.173 5.64C346.92 6.05333 347.5 6.64 347.913 7.4C348.327 8.16 348.533 9.06 348.533 10.1C348.533 10.8867 348.413 11.5933 348.173 12.22C347.947 12.8467 347.613 13.3867 347.173 13.84C346.733 14.28 346.207 14.62 345.593 14.86C344.98 15.0867 344.293 15.2 343.533 15.2ZM343.533 13.3C344.027 13.3 344.46 13.18 344.833 12.94C345.207 12.7 345.493 12.3467 345.693 11.88C345.907 11.4 346.013 10.8067 346.013 10.1C346.013 9.03333 345.787 8.24 345.333 7.72C344.88 7.18667 344.28 6.92 343.533 6.92C343.04 6.92 342.607 7.04 342.233 7.28C341.86 7.50667 341.567 7.86 341.353 8.34C341.153 8.80667 341.053 9.39333 341.053 10.1C341.053 11.1533 341.28 11.9533 341.733 12.5C342.187 13.0333 342.787 13.3 343.533 13.3ZM351.837 15.16C351.437 15.16 351.13 15.0533 350.917 14.84C350.704 14.6133 350.597 14.2933 350.597 13.88V6.32C350.597 5.90667 350.704 5.59333 350.917 5.38C351.13 5.16667 351.43 5.06 351.817 5.06C352.204 5.06 352.504 5.16667 352.717 5.38C352.93 5.59333 353.037 5.90667 353.037 6.32V7.68L352.817 7.18C353.11 6.47333 353.564 5.94 354.177 5.58C354.804 5.20667 355.51 5.02 356.297 5.02C357.084 5.02 357.73 5.16667 358.237 5.46C358.744 5.75333 359.124 6.2 359.377 6.8C359.63 7.38667 359.757 8.13333 359.757 9.04V13.88C359.757 14.2933 359.65 14.6133 359.437 14.84C359.224 15.0533 358.917 15.16 358.517 15.16C358.117 15.16 357.804 15.0533 357.577 14.84C357.364 14.6133 357.257 14.2933 357.257 13.88V9.16C357.257 8.4 357.11 7.84667 356.817 7.5C356.537 7.15333 356.097 6.98 355.497 6.98C354.764 6.98 354.177 7.21333 353.737 7.68C353.31 8.13333 353.097 8.74 353.097 9.5V13.88C353.097 14.7333 352.677 15.16 351.837 15.16ZM367.116 15.2C366.009 15.2 365.056 14.9933 364.256 14.58C363.456 14.1667 362.836 13.58 362.396 12.82C361.969 12.06 361.756 11.16 361.756 10.12C361.756 9.10667 361.963 8.22 362.376 7.46C362.803 6.7 363.383 6.10667 364.116 5.68C364.863 5.24 365.709 5.02 366.656 5.02C367.349 5.02 367.969 5.13333 368.516 5.36C369.076 5.58667 369.549 5.91333 369.936 6.34C370.336 6.76667 370.636 7.28667 370.836 7.9C371.049 8.5 371.156 9.18 371.156 9.94C371.156 10.18 371.069 10.3667 370.896 10.5C370.736 10.62 370.503 10.68 370.196 10.68H363.776V9.24H369.396L369.076 9.54C369.076 8.92667 368.983 8.41333 368.796 8C368.623 7.58667 368.363 7.27333 368.016 7.06C367.683 6.83333 367.263 6.72 366.756 6.72C366.196 6.72 365.716 6.85333 365.316 7.12C364.929 7.37333 364.629 7.74 364.416 8.22C364.216 8.68667 364.116 9.24667 364.116 9.9V10.04C364.116 11.1333 364.369 11.9533 364.876 12.5C365.396 13.0333 366.156 13.3 367.156 13.3C367.503 13.3 367.889 13.26 368.316 13.18C368.756 13.0867 369.169 12.9333 369.556 12.72C369.836 12.56 370.083 12.4933 370.296 12.52C370.509 12.5333 370.676 12.6067 370.796 12.74C370.929 12.8733 371.009 13.04 371.036 13.24C371.063 13.4267 371.023 13.62 370.916 13.82C370.823 14.02 370.656 14.1933 370.416 14.34C369.949 14.6333 369.409 14.8533 368.796 15C368.196 15.1333 367.636 15.2 367.116 15.2ZM374.461 18.26C374.314 18.5 374.114 18.6467 373.861 18.7C373.621 18.7667 373.387 18.7467 373.161 18.64C372.934 18.5467 372.767 18.38 372.661 18.14C372.567 17.9 372.587 17.5933 372.721 17.22C373.054 16.3533 373.321 15.5133 373.521 14.7C373.721 13.8867 373.867 13.0733 373.961 12.26C374.067 11.4467 374.121 10.6067 374.121 9.74C374.121 8.87333 374.067 8.03333 373.961 7.22C373.854 6.40667 373.694 5.59333 373.481 4.78C373.281 3.96667 373.027 3.12667 372.721 2.26C372.587 1.88667 372.574 1.58 372.681 1.34C372.787 1.08667 372.954 0.913333 373.181 0.819999C373.407 0.726666 373.641 0.713333 373.881 0.779999C374.121 0.833333 374.314 0.98 374.461 1.22C375.274 2.51333 375.867 3.88667 376.241 5.34C376.614 6.79333 376.801 8.26 376.801 9.74C376.801 10.7267 376.714 11.7067 376.541 12.68C376.381 13.6533 376.127 14.6067 375.781 15.54C375.447 16.4867 375.007 17.3933 374.461 18.26Z" fill="#444444"/>
</svg>
