<svg width="44" height="44" viewBox="0 0 44 44" fill="none" xmlns="http://www.w3.org/2000/svg">
<circle cx="21.5627" cy="21.5627" r="21.0627" fill="#7F5CF4" fill-opacity="0.1" stroke="#D9CDFF"/>
<path d="M32.1937 21.5627C32.1937 27.4541 30.96 32.7629 28.9892 36.5806C27.0052 40.4238 24.3533 42.6255 21.5625 42.6255C18.7717 42.6255 16.1198 40.4238 14.1358 36.5806C12.1651 32.7629 10.9313 27.4541 10.9313 21.5627C10.9313 15.6714 12.1651 10.3626 14.1358 6.54494C16.1198 2.70173 18.7717 0.5 21.5625 0.5C24.3533 0.5 27.0052 2.70173 28.9892 6.54494C30.96 10.3626 32.1937 15.6714 32.1937 21.5627Z" stroke="#D9CDFF"/>
<path d="M21.5627 27.8826C15.645 27.8826 10.3076 27.1232 6.46637 25.9083C4.54286 25.2999 3.02259 24.586 1.99394 23.8168C0.956367 23.0409 0.5 22.2737 0.5 21.5625C0.5 20.8513 0.956367 20.0841 1.99394 19.3082C3.02259 18.539 4.54286 17.8251 6.46637 17.2167C10.3076 16.0018 15.645 15.2424 21.5627 15.2424C27.4805 15.2424 32.8179 16.0018 36.6591 17.2167C38.5826 17.8251 40.1029 18.539 41.1315 19.3082C42.1691 20.0841 42.6255 20.8513 42.6255 21.5625C42.6255 22.2737 42.1691 23.0409 41.1315 23.8168C40.1029 24.586 38.5826 25.2999 36.6591 25.9083C32.8179 27.1232 27.4805 27.8826 21.5627 27.8826Z" stroke="#D9CDFF"/>
<path d="M15.7065 21.354C16.6824 21.6019 17.426 22.0743 17.9371 22.7714C18.4638 23.453 18.7272 24.3049 18.7272 25.3273C18.7272 26.7369 18.2082 27.86 17.1704 28.6964C16.1325 29.5329 14.7306 29.9512 12.9648 29.9512C11.9579 29.9512 10.9897 29.7963 10.0603 29.4864C9.1309 29.1766 8.34089 28.7429 7.6903 28.1853C7.33402 27.8755 7.15588 27.5114 7.15588 27.0932C7.15588 26.7524 7.24883 26.4658 7.43471 26.2335C7.63608 25.9856 7.86844 25.8617 8.13177 25.8617C8.28668 25.8617 8.42609 25.8927 8.55001 25.9547C8.67393 26.0011 8.84433 26.0863 9.06119 26.2102C9.71179 26.644 10.3314 26.977 10.92 27.2094C11.5087 27.4417 12.1515 27.5579 12.8486 27.5579C13.8709 27.5579 14.63 27.3565 15.1257 26.9538C15.6213 26.5355 15.8692 25.9082 15.8692 25.0717C15.8692 24.2507 15.6059 23.6466 15.0792 23.2593C14.568 22.8566 13.7702 22.6552 12.6859 22.6552H11.3615C11.0052 22.6552 10.7264 22.539 10.525 22.3067C10.3391 22.0588 10.2462 21.78 10.2462 21.4702C10.2462 21.1449 10.3391 20.8661 10.525 20.6337C10.7264 20.4014 11.0052 20.2852 11.3615 20.2852H12.2909C14.4131 20.2852 15.4742 19.4874 15.4742 17.8919C15.4742 17.1484 15.2496 16.5753 14.8004 16.1725C14.3511 15.7698 13.7315 15.5684 12.9415 15.5684C11.8107 15.5684 10.6025 16.0176 9.31678 16.9161C9.09992 17.04 8.92953 17.1329 8.8056 17.1949C8.68168 17.2413 8.54227 17.2646 8.38736 17.2646C8.12403 17.2646 7.89167 17.1484 7.6903 16.9161C7.50442 16.6682 7.41147 16.3739 7.41147 16.0331C7.41147 15.8007 7.4502 15.6071 7.52765 15.4522C7.62059 15.2818 7.76001 15.1114 7.94589 14.941C8.59648 14.3989 9.371 13.9729 10.2694 13.6631C11.1834 13.3378 12.1128 13.1751 13.0577 13.1751C14.6687 13.1751 15.9466 13.5701 16.8915 14.3601C17.8519 15.1502 18.3321 16.2035 18.3321 17.5202C18.3167 18.4186 18.0766 19.2086 17.6118 19.8902C17.1626 20.5563 16.5275 21.0442 15.7065 21.354Z" fill="#7F5CF4"/>
<path d="M22.9126 29.7653C22.4634 29.7653 22.1071 29.6413 21.8438 29.3935C21.5959 29.1457 21.472 28.7971 21.472 28.3479V14.8016C21.472 14.3524 21.5959 14.0039 21.8438 13.756C22.1071 13.5082 22.4634 13.3843 22.9126 13.3843H27.5132C30.193 13.3843 32.2687 14.1046 33.7403 15.5452C35.2274 16.9703 35.9709 18.9763 35.9709 21.5631C35.9709 24.1655 35.2274 26.187 33.7403 27.6276C32.2687 29.0527 30.193 29.7653 27.5132 29.7653H22.9126ZM27.3273 27.3255C31.0915 27.3255 32.9736 25.4047 32.9736 21.5631C32.9736 17.737 31.0915 15.824 27.3273 15.824H24.4694V27.3255H27.3273Z" fill="#7F5CF4"/>
</svg>
