<svg width="101" height="60" viewBox="0 0 101 60" fill="none" xmlns="http://www.w3.org/2000/svg">
<rect width="101" height="60" rx="10" fill="#1A1A1A"/>
<g clip-path="url(#clip0_380_74766)">
<path d="M39.1009 20.96C39.5489 20.96 39.9009 21.104 40.1569 21.392C40.4289 21.664 40.5649 22.032 40.5649 22.496V36.584C40.5649 37.048 40.4289 37.424 40.1569 37.712C39.8849 38 39.5329 38.144 39.1009 38.144C38.5889 38.144 38.1969 37.96 37.9249 37.592L29.1649 26.192V36.584C29.1649 37.048 29.0369 37.424 28.7809 37.712C28.5249 38 28.1729 38.144 27.7249 38.144C27.2769 38.144 26.9249 38 26.6689 37.712C26.4129 37.424 26.2849 37.048 26.2849 36.584V22.496C26.2849 22.032 26.4209 21.664 26.6929 21.392C26.9649 21.104 27.3249 20.96 27.7729 20.96C28.2689 20.96 28.6529 21.144 28.9249 21.512L37.6609 32.864V22.496C37.6609 22.032 37.7889 21.664 38.0449 21.392C38.3169 21.104 38.6689 20.96 39.1009 20.96ZM53.2386 34.784C53.5106 34.784 53.7266 34.888 53.8866 35.096C54.0626 35.304 54.1506 35.584 54.1506 35.936C54.1506 36.432 53.8546 36.848 53.2626 37.184C52.7186 37.488 52.1026 37.736 51.4146 37.928C50.7266 38.104 50.0706 38.192 49.4466 38.192C47.5586 38.192 46.0626 37.648 44.9586 36.56C43.8546 35.472 43.3026 33.984 43.3026 32.096C43.3026 30.896 43.5426 29.832 44.0226 28.904C44.5026 27.976 45.1746 27.256 46.0386 26.744C46.9186 26.232 47.9106 25.976 49.0146 25.976C50.0706 25.976 50.9906 26.208 51.7746 26.672C52.5586 27.136 53.1666 27.792 53.5986 28.64C54.0306 29.488 54.2466 30.488 54.2466 31.64C54.2466 32.328 53.9426 32.672 53.3346 32.672H46.2546C46.3506 33.776 46.6626 34.592 47.1906 35.12C47.7186 35.632 48.4866 35.888 49.4946 35.888C50.0066 35.888 50.4546 35.824 50.8386 35.696C51.2386 35.568 51.6866 35.392 52.1826 35.168C52.6626 34.912 53.0146 34.784 53.2386 34.784ZM49.0866 28.088C48.2706 28.088 47.6146 28.344 47.1186 28.856C46.6386 29.368 46.3506 30.104 46.2546 31.064H51.6786C51.6466 30.088 51.4066 29.352 50.9586 28.856C50.5106 28.344 49.8866 28.088 49.0866 28.088ZM66.6423 35.792C66.9303 36.08 67.0743 36.408 67.0743 36.776C67.0743 37.128 66.9383 37.448 66.6663 37.736C66.3943 38.008 66.0743 38.144 65.7063 38.144C65.3063 38.144 64.9623 37.976 64.6743 37.64L61.2903 33.896L57.9062 37.64C57.6023 37.96 57.2583 38.12 56.8743 38.12C56.5223 38.12 56.2103 37.984 55.9383 37.712C55.6663 37.44 55.5303 37.128 55.5303 36.776C55.5303 36.408 55.6743 36.08 55.9623 35.792L59.4663 31.976L56.1543 28.376C55.8663 28.088 55.7223 27.76 55.7223 27.392C55.7223 27.024 55.8583 26.712 56.1303 26.456C56.4023 26.184 56.7143 26.048 57.0663 26.048C57.4503 26.048 57.7943 26.208 58.0983 26.528L61.2903 30.032L64.4823 26.528C64.7863 26.208 65.1303 26.048 65.5143 26.048C65.8823 26.048 66.1943 26.184 66.4503 26.456C66.7223 26.712 66.8583 27.024 66.8583 27.392C66.8583 27.76 66.7143 28.088 66.4263 28.376L63.1143 31.976L66.6423 35.792ZM75.3357 35.912C76.1357 35.96 76.5357 36.32 76.5357 36.992C76.5357 37.376 76.3757 37.672 76.0557 37.88C75.7517 38.072 75.3117 38.152 74.7357 38.12L74.0877 38.072C71.3997 37.88 70.0557 36.44 70.0557 33.752V28.52H68.8557C68.4237 28.52 68.0877 28.424 67.8477 28.232C67.6237 28.04 67.5117 27.76 67.5117 27.392C67.5117 27.024 67.6237 26.744 67.8477 26.552C68.0877 26.36 68.4237 26.264 68.8557 26.264H70.0557V24.056C70.0557 23.624 70.1917 23.28 70.4637 23.024C70.7357 22.768 71.1037 22.64 71.5677 22.64C72.0157 22.64 72.3757 22.768 72.6477 23.024C72.9197 23.28 73.0557 23.624 73.0557 24.056V26.264H75.0957C75.5277 26.264 75.8557 26.36 76.0797 26.552C76.3197 26.744 76.4397 27.024 76.4397 27.392C76.4397 27.76 76.3197 28.04 76.0797 28.232C75.8557 28.424 75.5277 28.52 75.0957 28.52H73.0557V33.968C73.0557 35.152 73.5997 35.784 74.6877 35.864L75.3357 35.912Z" fill="white"/>
</g>
<defs>
<clipPath id="clip0_380_74766">
<rect width="53" height="28" fill="white" transform="translate(24 16)"/>
</clipPath>
</defs>
</svg>
