<svg width="365" height="19" viewBox="0 0 365 19" fill="none" xmlns="http://www.w3.org/2000/svg">
<path d="M13.4541 0.799999C13.8274 0.799999 14.1274 0.919999 14.3541 1.16C14.5807 1.38667 14.6941 1.69333 14.6941 2.08V13.92C14.6941 14.2933 14.5874 14.5867 14.3741 14.8C14.1607 15.0133 13.8807 15.12 13.5341 15.12C13.1874 15.12 12.9141 15.0133 12.7141 14.8C12.5141 14.5867 12.4141 14.2933 12.4141 13.92V5.68L9.01406 12.12C8.85406 12.4133 8.68073 12.6333 8.49406 12.78C8.3074 12.9133 8.0874 12.98 7.83406 12.98C7.58073 12.98 7.36073 12.9133 7.17406 12.78C6.9874 12.6467 6.81406 12.4267 6.65406 12.12L3.23406 5.78V13.92C3.23406 14.28 3.1274 14.5733 2.91406 14.8C2.71406 15.0133 2.44073 15.12 2.09406 15.12C1.7474 15.12 1.47406 15.0133 1.27406 14.8C1.07406 14.5867 0.974063 14.2933 0.974063 13.92V2.08C0.974063 1.69333 1.08073 1.38667 1.29406 1.16C1.52073 0.919999 1.82073 0.799999 2.19406 0.799999C2.71406 0.799999 3.12073 1.08667 3.41406 1.66L7.85406 10.12L12.2741 1.66C12.5674 1.08667 12.9607 0.799999 13.4541 0.799999ZM21.9905 15.16C20.9905 15.16 20.1105 14.9533 19.3505 14.54C18.6038 14.1267 18.0238 13.5333 17.6105 12.76C17.1971 11.9867 16.9905 11.0867 16.9905 10.06C16.9905 9.03333 17.1971 8.14 17.6105 7.38C18.0238 6.60667 18.6038 6.01333 19.3505 5.6C20.1105 5.18667 20.9905 4.98 21.9905 4.98C22.9905 4.98 23.8638 5.18667 24.6105 5.6C25.3705 6.01333 25.9505 6.60667 26.3505 7.38C26.7638 8.14 26.9705 9.03333 26.9705 10.06C26.9705 11.0867 26.7638 11.9867 26.3505 12.76C25.9505 13.5333 25.3705 14.1267 24.6105 14.54C23.8638 14.9533 22.9905 15.16 21.9905 15.16ZM21.9705 13.22C22.7838 13.22 23.4038 12.9533 23.8305 12.42C24.2571 11.8867 24.4705 11.1 24.4705 10.06C24.4705 9.03333 24.2571 8.25333 23.8305 7.72C23.4038 7.17333 22.7905 6.9 21.9905 6.9C21.1905 6.9 20.5705 7.17333 20.1305 7.72C19.7038 8.25333 19.4905 9.03333 19.4905 10.06C19.4905 11.1 19.7038 11.8867 20.1305 12.42C20.5571 12.9533 21.1705 13.22 21.9705 13.22ZM35.6981 5.74C35.8048 5.5 35.9448 5.32 36.1181 5.2C36.3048 5.08 36.5048 5.02 36.7181 5.02C37.0248 5.02 37.2981 5.12667 37.5381 5.34C37.7915 5.54 37.9181 5.79333 37.9181 6.1C37.9181 6.26 37.8781 6.42 37.7981 6.58L34.0981 14.32C33.9781 14.5733 33.8048 14.7667 33.5781 14.9C33.3648 15.0333 33.1248 15.1 32.8581 15.1C32.6048 15.1 32.3581 15.0333 32.1181 14.9C31.8915 14.7667 31.7181 14.5733 31.5981 14.32L27.8781 6.58C27.8115 6.44667 27.7781 6.29333 27.7781 6.12C27.7781 5.81333 27.9048 5.55333 28.1581 5.34C28.4248 5.12667 28.7248 5.02 29.0581 5.02C29.5381 5.02 29.8915 5.25333 30.1181 5.72L32.9181 11.9L35.6981 5.74ZM46.9892 12.32C47.2159 12.32 47.3959 12.4067 47.5292 12.58C47.6759 12.7533 47.7492 12.9867 47.7492 13.28C47.7492 13.6933 47.5026 14.04 47.0092 14.32C46.5559 14.5733 46.0426 14.78 45.4692 14.94C44.8959 15.0867 44.3492 15.16 43.8292 15.16C42.2559 15.16 41.0092 14.7067 40.0892 13.8C39.1692 12.8933 38.7092 11.6533 38.7092 10.08C38.7092 9.08 38.9092 8.19333 39.3092 7.42C39.7092 6.64667 40.2692 6.04667 40.9892 5.62C41.7226 5.19333 42.5492 4.98 43.4692 4.98C44.3492 4.98 45.1159 5.17333 45.7692 5.56C46.4226 5.94667 46.9292 6.49333 47.2892 7.2C47.6492 7.90667 47.8292 8.74 47.8292 9.7C47.8292 10.2733 47.5759 10.56 47.0692 10.56H41.1692C41.2492 11.48 41.5092 12.16 41.9492 12.6C42.3892 13.0267 43.0292 13.24 43.8692 13.24C44.2959 13.24 44.6692 13.1867 44.9892 13.08C45.3226 12.9733 45.6959 12.8267 46.1092 12.64C46.5092 12.4267 46.8026 12.32 46.9892 12.32ZM43.5292 6.74C42.8492 6.74 42.3026 6.95333 41.8892 7.38C41.4892 7.80667 41.2492 8.42 41.1692 9.22H45.6892C45.6626 8.40667 45.4626 7.79333 45.0892 7.38C44.7159 6.95333 44.1959 6.74 43.5292 6.74ZM60.3839 13.26C61.0506 13.3 61.3839 13.6 61.3839 14.16C61.3839 14.48 61.2506 14.7267 60.9839 14.9C60.7306 15.06 60.3639 15.1267 59.8839 15.1L59.3439 15.06C57.1039 14.9 55.9839 13.7 55.9839 11.46V7.1H54.9839C54.6239 7.1 54.3439 7.02 54.1439 6.86C53.9572 6.7 53.8639 6.46667 53.8639 6.16C53.8639 5.85333 53.9572 5.62 54.1439 5.46C54.3439 5.3 54.6239 5.22 54.9839 5.22H55.9839V3.38C55.9839 3.02 56.0972 2.73333 56.3239 2.52C56.5506 2.30667 56.8572 2.2 57.2439 2.2C57.6172 2.2 57.9172 2.30667 58.1439 2.52C58.3706 2.73333 58.4839 3.02 58.4839 3.38V5.22H60.1839C60.5439 5.22 60.8172 5.3 61.0039 5.46C61.2039 5.62 61.3039 5.85333 61.3039 6.16C61.3039 6.46667 61.2039 6.7 61.0039 6.86C60.8172 7.02 60.5439 7.1 60.1839 7.1H58.4839V11.64C58.4839 12.6267 58.9372 13.1533 59.8439 13.22L60.3839 13.26ZM68.4067 4.98C70.7001 4.98 71.8467 6.32 71.8467 9V13.92C71.8467 14.2933 71.7334 14.5867 71.5067 14.8C71.2934 15.0133 70.9934 15.12 70.6067 15.12C70.2201 15.12 69.9134 15.0133 69.6867 14.8C69.4601 14.5867 69.3467 14.2933 69.3467 13.92V9C69.3467 8.29333 69.2001 7.78 68.9067 7.46C68.6267 7.12667 68.1801 6.96 67.5667 6.96C66.8467 6.96 66.2667 7.18667 65.8267 7.64C65.4001 8.09333 65.1867 8.7 65.1867 9.46V13.92C65.1867 14.2933 65.0734 14.5867 64.8467 14.8C64.6201 15.0133 64.3134 15.12 63.9267 15.12C63.5401 15.12 63.2334 15.0133 63.0067 14.8C62.7934 14.5867 62.6867 14.2933 62.6867 13.92V1.96C62.6867 1.61333 62.8001 1.33333 63.0267 1.12C63.2667 0.906666 63.5734 0.799999 63.9467 0.799999C64.3201 0.799999 64.6201 0.899999 64.8467 1.1C65.0734 1.3 65.1867 1.57333 65.1867 1.92V6.58C65.5201 6.06 65.9601 5.66667 66.5067 5.4C67.0667 5.12 67.7001 4.98 68.4067 4.98ZM82.1259 12.32C82.3526 12.32 82.5326 12.4067 82.6659 12.58C82.8126 12.7533 82.8859 12.9867 82.8859 13.28C82.8859 13.6933 82.6393 14.04 82.1459 14.32C81.6926 14.5733 81.1793 14.78 80.6059 14.94C80.0326 15.0867 79.4859 15.16 78.9659 15.16C77.3926 15.16 76.1459 14.7067 75.2259 13.8C74.3059 12.8933 73.8459 11.6533 73.8459 10.08C73.8459 9.08 74.0459 8.19333 74.4459 7.42C74.8459 6.64667 75.4059 6.04667 76.1259 5.62C76.8593 5.19333 77.6859 4.98 78.6059 4.98C79.4859 4.98 80.2526 5.17333 80.9059 5.56C81.5593 5.94667 82.0659 6.49333 82.4259 7.2C82.7859 7.90667 82.9659 8.74 82.9659 9.7C82.9659 10.2733 82.7126 10.56 82.2059 10.56H76.3059C76.3859 11.48 76.6459 12.16 77.0859 12.6C77.5259 13.0267 78.1659 13.24 79.0059 13.24C79.4326 13.24 79.8059 13.1867 80.1259 13.08C80.4593 12.9733 80.8326 12.8267 81.2459 12.64C81.6459 12.4267 81.9393 12.32 82.1259 12.32ZM78.6659 6.74C77.9859 6.74 77.4393 6.95333 77.0259 7.38C76.6259 7.80667 76.3859 8.42 76.3059 9.22H80.8259C80.7993 8.40667 80.5993 7.79333 80.2259 7.38C79.8526 6.95333 79.3326 6.74 78.6659 6.74ZM96.0606 4.98C96.9006 4.98 97.6473 5.19333 98.3006 5.62C98.9673 6.04667 99.4806 6.65333 99.8406 7.44C100.214 8.21333 100.401 9.10667 100.401 10.12C100.401 11.1333 100.214 12.02 99.8406 12.78C99.4806 13.54 98.974 14.1267 98.3206 14.54C97.6673 14.9533 96.914 15.16 96.0606 15.16C95.3673 15.16 94.7473 15.0133 94.2006 14.72C93.654 14.4267 93.234 14.02 92.9406 13.5V17.58C92.9406 17.9267 92.8273 18.2 92.6006 18.4C92.374 18.6 92.074 18.7 91.7006 18.7C91.3273 18.7 91.0206 18.5933 90.7806 18.38C90.554 18.1667 90.4406 17.8867 90.4406 17.54V6.2C90.4406 5.84 90.5473 5.55333 90.7606 5.34C90.9873 5.12667 91.2873 5.02 91.6606 5.02C92.034 5.02 92.334 5.12667 92.5606 5.34C92.7873 5.55333 92.9006 5.84 92.9006 6.2V6.7C93.194 6.15333 93.614 5.73333 94.1606 5.44C94.7206 5.13333 95.354 4.98 96.0606 4.98ZM95.4006 13.22C96.1873 13.22 96.8006 12.9533 97.2406 12.42C97.6806 11.8733 97.9006 11.1067 97.9006 10.12C97.9006 9.10667 97.6806 8.32 97.2406 7.76C96.8006 7.2 96.1873 6.92 95.4006 6.92C94.6006 6.92 93.9806 7.19333 93.5406 7.74C93.114 8.28667 92.9006 9.06667 92.9006 10.08C92.9006 11.08 93.114 11.8533 93.5406 12.4C93.9806 12.9467 94.6006 13.22 95.4006 13.22ZM106.912 15.16C105.912 15.16 105.032 14.9533 104.272 14.54C103.526 14.1267 102.946 13.5333 102.532 12.76C102.119 11.9867 101.912 11.0867 101.912 10.06C101.912 9.03333 102.119 8.14 102.532 7.38C102.946 6.60667 103.526 6.01333 104.272 5.6C105.032 5.18667 105.912 4.98 106.912 4.98C107.912 4.98 108.786 5.18667 109.532 5.6C110.292 6.01333 110.872 6.60667 111.272 7.38C111.686 8.14 111.892 9.03333 111.892 10.06C111.892 11.0867 111.686 11.9867 111.272 12.76C110.872 13.5333 110.292 14.1267 109.532 14.54C108.786 14.9533 107.912 15.16 106.912 15.16ZM106.892 13.22C107.706 13.22 108.326 12.9533 108.752 12.42C109.179 11.8867 109.392 11.1 109.392 10.06C109.392 9.03333 109.179 8.25333 108.752 7.72C108.326 7.17333 107.712 6.9 106.912 6.9C106.112 6.9 105.492 7.17333 105.052 7.72C104.626 8.25333 104.412 9.03333 104.412 10.06C104.412 11.1 104.626 11.8867 105.052 12.42C105.479 12.9533 106.092 13.22 106.892 13.22ZM115.196 15.12C114.836 15.12 114.536 15.02 114.296 14.82C114.07 14.6067 113.956 14.3067 113.956 13.92V6.2C113.956 5.81333 114.07 5.52 114.296 5.32C114.536 5.12 114.836 5.02 115.196 5.02C115.556 5.02 115.856 5.12 116.096 5.32C116.336 5.52 116.456 5.81333 116.456 6.2V13.92C116.456 14.3067 116.336 14.6067 116.096 14.82C115.856 15.02 115.556 15.12 115.196 15.12ZM115.196 3.24C114.743 3.24 114.383 3.12 114.116 2.88C113.85 2.62667 113.716 2.3 113.716 1.9C113.716 1.5 113.85 1.18 114.116 0.94C114.383 0.7 114.743 0.58 115.196 0.58C115.636 0.58 115.99 0.7 116.256 0.94C116.536 1.18 116.676 1.5 116.676 1.9C116.676 2.3 116.543 2.62667 116.276 2.88C116.01 3.12 115.65 3.24 115.196 3.24ZM124.714 4.98C125.888 4.98 126.761 5.31333 127.334 5.98C127.908 6.64667 128.194 7.65333 128.194 9V13.92C128.194 14.2933 128.081 14.5867 127.854 14.8C127.641 15.0133 127.341 15.12 126.954 15.12C126.568 15.12 126.261 15.0133 126.034 14.8C125.808 14.5867 125.694 14.2933 125.694 13.92V9.14C125.694 8.38 125.548 7.82667 125.254 7.48C124.974 7.13333 124.528 6.96 123.914 6.96C123.194 6.96 122.614 7.18667 122.174 7.64C121.748 8.09333 121.534 8.7 121.534 9.46V13.92C121.534 14.2933 121.421 14.5867 121.194 14.8C120.968 15.0133 120.661 15.12 120.274 15.12C119.888 15.12 119.581 15.0133 119.354 14.8C119.141 14.5867 119.034 14.2933 119.034 13.92V6.18C119.034 5.83333 119.148 5.55333 119.374 5.34C119.601 5.12667 119.908 5.02 120.294 5.02C120.641 5.02 120.921 5.12667 121.134 5.34C121.361 5.54 121.474 5.80667 121.474 6.14V6.68C121.808 6.13333 122.254 5.71333 122.814 5.42C123.374 5.12667 124.008 4.98 124.714 4.98ZM135.814 13.26C136.48 13.3 136.814 13.6 136.814 14.16C136.814 14.48 136.68 14.7267 136.414 14.9C136.16 15.06 135.794 15.1267 135.314 15.1L134.774 15.06C132.534 14.9 131.414 13.7 131.414 11.46V7.1H130.414C130.054 7.1 129.774 7.02 129.574 6.86C129.387 6.7 129.294 6.46667 129.294 6.16C129.294 5.85333 129.387 5.62 129.574 5.46C129.774 5.3 130.054 5.22 130.414 5.22H131.414V3.38C131.414 3.02 131.527 2.73333 131.754 2.52C131.98 2.30667 132.287 2.2 132.674 2.2C133.047 2.2 133.347 2.30667 133.574 2.52C133.8 2.73333 133.914 3.02 133.914 3.38V5.22H135.614C135.974 5.22 136.247 5.3 136.434 5.46C136.634 5.62 136.734 5.85333 136.734 6.16C136.734 6.46667 136.634 6.7 136.434 6.86C136.247 7.02 135.974 7.1 135.614 7.1H133.914V11.64C133.914 12.6267 134.367 13.1533 135.274 13.22L135.814 13.26ZM145.856 12.32C146.083 12.32 146.263 12.4067 146.396 12.58C146.543 12.7533 146.616 12.9867 146.616 13.28C146.616 13.6933 146.37 14.04 145.876 14.32C145.423 14.5733 144.91 14.78 144.336 14.94C143.763 15.0867 143.216 15.16 142.696 15.16C141.123 15.16 139.876 14.7067 138.956 13.8C138.036 12.8933 137.576 11.6533 137.576 10.08C137.576 9.08 137.776 8.19333 138.176 7.42C138.576 6.64667 139.136 6.04667 139.856 5.62C140.59 5.19333 141.416 4.98 142.336 4.98C143.216 4.98 143.983 5.17333 144.636 5.56C145.29 5.94667 145.796 6.49333 146.156 7.2C146.516 7.90667 146.696 8.74 146.696 9.7C146.696 10.2733 146.443 10.56 145.936 10.56H140.036C140.116 11.48 140.376 12.16 140.816 12.6C141.256 13.0267 141.896 13.24 142.736 13.24C143.163 13.24 143.536 13.1867 143.856 13.08C144.19 12.9733 144.563 12.8267 144.976 12.64C145.376 12.4267 145.67 12.32 145.856 12.32ZM142.396 6.74C141.716 6.74 141.17 6.95333 140.756 7.38C140.356 7.80667 140.116 8.42 140.036 9.22H144.556C144.53 8.40667 144.33 7.79333 143.956 7.38C143.583 6.95333 143.063 6.74 142.396 6.74ZM154.201 5.02C154.548 4.99333 154.821 5.06667 155.021 5.24C155.221 5.41333 155.321 5.67333 155.321 6.02C155.321 6.38 155.235 6.64667 155.061 6.82C154.888 6.99333 154.575 7.10667 154.121 7.16L153.521 7.22C152.735 7.3 152.155 7.56667 151.781 8.02C151.421 8.47333 151.241 9.04 151.241 9.72V13.92C151.241 14.3067 151.121 14.6067 150.881 14.82C150.641 15.02 150.341 15.12 149.981 15.12C149.621 15.12 149.321 15.02 149.081 14.82C148.855 14.6067 148.741 14.3067 148.741 13.92V6.18C148.741 5.80667 148.855 5.52 149.081 5.32C149.321 5.12 149.615 5.02 149.961 5.02C150.308 5.02 150.588 5.12 150.801 5.32C151.015 5.50667 151.121 5.78 151.121 6.14V6.94C151.375 6.35333 151.748 5.9 152.241 5.58C152.748 5.26 153.308 5.08 153.921 5.04L154.201 5.02ZM159.84 15.16C158.387 15.16 157.213 14.8733 156.32 14.3C155.893 14.0467 155.68 13.6867 155.68 13.22C155.68 12.9533 155.753 12.74 155.9 12.58C156.047 12.4067 156.227 12.32 156.44 12.32C156.667 12.32 156.98 12.4267 157.38 12.64C157.807 12.84 158.193 12.9933 158.54 13.1C158.9 13.2067 159.353 13.26 159.9 13.26C160.46 13.26 160.893 13.1667 161.2 12.98C161.52 12.7933 161.68 12.5333 161.68 12.2C161.68 11.9733 161.613 11.7933 161.48 11.66C161.36 11.5267 161.133 11.4067 160.8 11.3C160.48 11.18 159.987 11.0467 159.32 10.9C158.133 10.66 157.28 10.32 156.76 9.88C156.253 9.44 156 8.83333 156 8.06C156 7.47333 156.173 6.94667 156.52 6.48C156.867 6 157.34 5.63333 157.94 5.38C158.553 5.11333 159.247 4.98 160.02 4.98C160.58 4.98 161.12 5.05333 161.64 5.2C162.16 5.33333 162.627 5.53333 163.04 5.8C163.467 6.06667 163.68 6.42 163.68 6.86C163.68 7.12667 163.607 7.35333 163.46 7.54C163.313 7.71333 163.133 7.8 162.92 7.8C162.773 7.8 162.627 7.77333 162.48 7.72C162.347 7.65333 162.173 7.56 161.96 7.44C161.573 7.24 161.24 7.09333 160.96 7C160.68 6.89333 160.333 6.84 159.92 6.84C159.427 6.84 159.033 6.94 158.74 7.14C158.46 7.34 158.32 7.61333 158.32 7.96C158.32 8.29333 158.467 8.54667 158.76 8.72C159.053 8.89333 159.62 9.06667 160.46 9.24C161.353 9.42667 162.053 9.64 162.56 9.88C163.067 10.12 163.427 10.42 163.64 10.78C163.867 11.14 163.98 11.6 163.98 12.16C163.98 13.0667 163.6 13.7933 162.84 14.34C162.093 14.8867 161.093 15.16 159.84 15.16ZM172.677 15.12C172.317 15.12 172.017 15.02 171.777 14.82C171.55 14.6067 171.437 14.3067 171.437 13.92V6.2C171.437 5.81333 171.55 5.52 171.777 5.32C172.017 5.12 172.317 5.02 172.677 5.02C173.037 5.02 173.337 5.12 173.577 5.32C173.817 5.52 173.937 5.81333 173.937 6.2V13.92C173.937 14.3067 173.817 14.6067 173.577 14.82C173.337 15.02 173.037 15.12 172.677 15.12ZM172.677 3.24C172.223 3.24 171.863 3.12 171.597 2.88C171.33 2.62667 171.197 2.3 171.197 1.9C171.197 1.5 171.33 1.18 171.597 0.94C171.863 0.7 172.223 0.58 172.677 0.58C173.117 0.58 173.47 0.7 173.737 0.94C174.017 1.18 174.157 1.5 174.157 1.9C174.157 2.3 174.023 2.62667 173.757 2.88C173.49 3.12 173.13 3.24 172.677 3.24ZM182.195 4.98C183.368 4.98 184.242 5.31333 184.815 5.98C185.388 6.64667 185.675 7.65333 185.675 9V13.92C185.675 14.2933 185.562 14.5867 185.335 14.8C185.122 15.0133 184.822 15.12 184.435 15.12C184.048 15.12 183.742 15.0133 183.515 14.8C183.288 14.5867 183.175 14.2933 183.175 13.92V9.14C183.175 8.38 183.028 7.82667 182.735 7.48C182.455 7.13333 182.008 6.96 181.395 6.96C180.675 6.96 180.095 7.18667 179.655 7.64C179.228 8.09333 179.015 8.7 179.015 9.46V13.92C179.015 14.2933 178.902 14.5867 178.675 14.8C178.448 15.0133 178.142 15.12 177.755 15.12C177.368 15.12 177.062 15.0133 176.835 14.8C176.622 14.5867 176.515 14.2933 176.515 13.92V6.18C176.515 5.83333 176.628 5.55333 176.855 5.34C177.082 5.12667 177.388 5.02 177.775 5.02C178.122 5.02 178.402 5.12667 178.615 5.34C178.842 5.54 178.955 5.80667 178.955 6.14V6.68C179.288 6.13333 179.735 5.71333 180.295 5.42C180.855 5.12667 181.488 4.98 182.195 4.98ZM193.294 13.26C193.961 13.3 194.294 13.6 194.294 14.16C194.294 14.48 194.161 14.7267 193.894 14.9C193.641 15.06 193.274 15.1267 192.794 15.1L192.254 15.06C190.014 14.9 188.894 13.7 188.894 11.46V7.1H187.894C187.534 7.1 187.254 7.02 187.054 6.86C186.867 6.7 186.774 6.46667 186.774 6.16C186.774 5.85333 186.867 5.62 187.054 5.46C187.254 5.3 187.534 5.22 187.894 5.22H188.894V3.38C188.894 3.02 189.007 2.73333 189.234 2.52C189.461 2.30667 189.767 2.2 190.154 2.2C190.527 2.2 190.827 2.30667 191.054 2.52C191.281 2.73333 191.394 3.02 191.394 3.38V5.22H193.094C193.454 5.22 193.727 5.3 193.914 5.46C194.114 5.62 194.214 5.85333 194.214 6.16C194.214 6.46667 194.114 6.7 193.914 6.86C193.727 7.02 193.454 7.1 193.094 7.1H191.394V11.64C191.394 12.6267 191.847 13.1533 192.754 13.22L193.294 13.26ZM200.057 15.16C199.057 15.16 198.177 14.9533 197.417 14.54C196.67 14.1267 196.09 13.5333 195.677 12.76C195.264 11.9867 195.057 11.0867 195.057 10.06C195.057 9.03333 195.264 8.14 195.677 7.38C196.09 6.60667 196.67 6.01333 197.417 5.6C198.177 5.18667 199.057 4.98 200.057 4.98C201.057 4.98 201.93 5.18667 202.677 5.6C203.437 6.01333 204.017 6.60667 204.417 7.38C204.83 8.14 205.037 9.03333 205.037 10.06C205.037 11.0867 204.83 11.9867 204.417 12.76C204.017 13.5333 203.437 14.1267 202.677 14.54C201.93 14.9533 201.057 15.16 200.057 15.16ZM200.037 13.22C200.85 13.22 201.47 12.9533 201.897 12.42C202.324 11.8867 202.537 11.1 202.537 10.06C202.537 9.03333 202.324 8.25333 201.897 7.72C201.47 7.17333 200.857 6.9 200.057 6.9C199.257 6.9 198.637 7.17333 198.197 7.72C197.77 8.25333 197.557 9.03333 197.557 10.06C197.557 11.1 197.77 11.8867 198.197 12.42C198.624 12.9533 199.237 13.22 200.037 13.22ZM217.61 13.26C218.277 13.3 218.61 13.6 218.61 14.16C218.61 14.48 218.477 14.7267 218.21 14.9C217.957 15.06 217.59 15.1267 217.11 15.1L216.57 15.06C214.33 14.9 213.21 13.7 213.21 11.46V7.1H212.21C211.85 7.1 211.57 7.02 211.37 6.86C211.184 6.7 211.09 6.46667 211.09 6.16C211.09 5.85333 211.184 5.62 211.37 5.46C211.57 5.3 211.85 5.22 212.21 5.22H213.21V3.38C213.21 3.02 213.324 2.73333 213.55 2.52C213.777 2.30667 214.084 2.2 214.47 2.2C214.844 2.2 215.144 2.30667 215.37 2.52C215.597 2.73333 215.71 3.02 215.71 3.38V5.22H217.41C217.77 5.22 218.044 5.3 218.23 5.46C218.43 5.62 218.53 5.85333 218.53 6.16C218.53 6.46667 218.43 6.7 218.23 6.86C218.044 7.02 217.77 7.1 217.41 7.1H215.71V11.64C215.71 12.6267 216.164 13.1533 217.07 13.22L217.61 13.26ZM225.633 4.98C227.927 4.98 229.073 6.32 229.073 9V13.92C229.073 14.2933 228.96 14.5867 228.733 14.8C228.52 15.0133 228.22 15.12 227.833 15.12C227.447 15.12 227.14 15.0133 226.913 14.8C226.687 14.5867 226.573 14.2933 226.573 13.92V9C226.573 8.29333 226.427 7.78 226.133 7.46C225.853 7.12667 225.407 6.96 224.793 6.96C224.073 6.96 223.493 7.18667 223.053 7.64C222.627 8.09333 222.413 8.7 222.413 9.46V13.92C222.413 14.2933 222.3 14.5867 222.073 14.8C221.847 15.0133 221.54 15.12 221.153 15.12C220.767 15.12 220.46 15.0133 220.233 14.8C220.02 14.5867 219.913 14.2933 219.913 13.92V1.96C219.913 1.61333 220.027 1.33333 220.253 1.12C220.493 0.906666 220.8 0.799999 221.173 0.799999C221.547 0.799999 221.847 0.899999 222.073 1.1C222.3 1.3 222.413 1.57333 222.413 1.92V6.58C222.747 6.06 223.187 5.66667 223.733 5.4C224.293 5.12 224.927 4.98 225.633 4.98ZM239.353 12.32C239.579 12.32 239.759 12.4067 239.893 12.58C240.039 12.7533 240.113 12.9867 240.113 13.28C240.113 13.6933 239.866 14.04 239.373 14.32C238.919 14.5733 238.406 14.78 237.833 14.94C237.259 15.0867 236.713 15.16 236.192 15.16C234.619 15.16 233.373 14.7067 232.453 13.8C231.533 12.8933 231.073 11.6533 231.073 10.08C231.073 9.08 231.273 8.19333 231.673 7.42C232.073 6.64667 232.633 6.04667 233.353 5.62C234.086 5.19333 234.913 4.98 235.833 4.98C236.713 4.98 237.479 5.17333 238.133 5.56C238.786 5.94667 239.293 6.49333 239.653 7.2C240.013 7.90667 240.193 8.74 240.193 9.7C240.193 10.2733 239.939 10.56 239.433 10.56H233.533C233.613 11.48 233.873 12.16 234.313 12.6C234.753 13.0267 235.393 13.24 236.233 13.24C236.659 13.24 237.033 13.1867 237.353 13.08C237.686 12.9733 238.059 12.8267 238.473 12.64C238.873 12.4267 239.166 12.32 239.353 12.32ZM235.893 6.74C235.213 6.74 234.666 6.95333 234.253 7.38C233.853 7.80667 233.613 8.42 233.533 9.22H238.053C238.026 8.40667 237.826 7.79333 237.453 7.38C237.079 6.95333 236.559 6.74 235.893 6.74ZM259.287 4.98C260.354 4.98 261.167 5.3 261.727 5.94C262.301 6.56667 262.587 7.58667 262.587 9V13.92C262.587 14.3067 262.467 14.6067 262.227 14.82C262.001 15.02 261.701 15.12 261.327 15.12C260.967 15.12 260.667 15.02 260.427 14.82C260.201 14.6067 260.087 14.3067 260.087 13.92V9C260.087 8.26667 259.954 7.74667 259.687 7.44C259.434 7.12 259.041 6.96 258.507 6.96C257.854 6.96 257.334 7.18667 256.947 7.64C256.561 8.08 256.367 8.68667 256.367 9.46V13.92C256.367 14.3067 256.247 14.6067 256.007 14.82C255.781 15.02 255.487 15.12 255.127 15.12C254.767 15.12 254.467 15.02 254.227 14.82C253.987 14.6067 253.867 14.3067 253.867 13.92V9C253.867 8.26667 253.734 7.74667 253.467 7.44C253.214 7.12 252.821 6.96 252.287 6.96C251.634 6.96 251.114 7.18667 250.727 7.64C250.354 8.08 250.167 8.68667 250.167 9.46V13.92C250.167 14.3067 250.047 14.6067 249.807 14.82C249.567 15.02 249.267 15.12 248.907 15.12C248.547 15.12 248.247 15.02 248.007 14.82C247.781 14.6067 247.667 14.3067 247.667 13.92V6.18C247.667 5.80667 247.787 5.52 248.027 5.32C248.267 5.12 248.567 5.02 248.927 5.02C249.274 5.02 249.554 5.12 249.767 5.32C249.994 5.50667 250.107 5.78 250.107 6.14V6.62C250.414 6.08667 250.821 5.68 251.327 5.4C251.847 5.12 252.441 4.98 253.107 4.98C254.574 4.98 255.554 5.59333 256.047 6.82C256.341 6.26 256.774 5.81333 257.347 5.48C257.921 5.14667 258.567 4.98 259.287 4.98ZM269.368 4.98C270.728 4.98 271.735 5.32 272.388 6C273.055 6.66667 273.388 7.68667 273.388 9.06V13.94C273.388 14.3 273.281 14.5867 273.068 14.8C272.855 15 272.561 15.1 272.188 15.1C271.841 15.1 271.555 14.9933 271.328 14.78C271.115 14.5667 271.008 14.2867 271.008 13.94V13.5C270.781 14.02 270.421 14.4267 269.928 14.72C269.448 15.0133 268.888 15.16 268.248 15.16C267.595 15.16 267.001 15.0267 266.468 14.76C265.935 14.4933 265.515 14.1267 265.208 13.66C264.901 13.1933 264.748 12.6733 264.748 12.1C264.748 11.38 264.928 10.8133 265.288 10.4C265.661 9.98667 266.261 9.68667 267.088 9.5C267.915 9.31333 269.055 9.22 270.508 9.22H271.008V8.76C271.008 8.10667 270.868 7.63333 270.588 7.34C270.308 7.03333 269.855 6.88 269.228 6.88C268.841 6.88 268.448 6.94 268.048 7.06C267.648 7.16667 267.175 7.32667 266.628 7.54C266.281 7.71333 266.028 7.8 265.868 7.8C265.628 7.8 265.428 7.71333 265.268 7.54C265.121 7.36667 265.048 7.14 265.048 6.86C265.048 6.63333 265.101 6.44 265.208 6.28C265.328 6.10667 265.521 5.94667 265.788 5.8C266.255 5.54667 266.808 5.34667 267.448 5.2C268.101 5.05333 268.741 4.98 269.368 4.98ZM268.748 13.36C269.415 13.36 269.955 13.14 270.368 12.7C270.795 12.2467 271.008 11.6667 271.008 10.96V10.54H270.648C269.755 10.54 269.061 10.58 268.568 10.66C268.075 10.74 267.721 10.88 267.508 11.08C267.295 11.28 267.188 11.5533 267.188 11.9C267.188 12.3267 267.335 12.68 267.628 12.96C267.935 13.2267 268.308 13.36 268.748 13.36ZM281.389 5.02C281.736 4.99333 282.009 5.06667 282.209 5.24C282.409 5.41333 282.509 5.67333 282.509 6.02C282.509 6.38 282.422 6.64667 282.249 6.82C282.076 6.99333 281.762 7.10667 281.309 7.16L280.709 7.22C279.922 7.3 279.342 7.56667 278.969 8.02C278.609 8.47333 278.429 9.04 278.429 9.72V13.92C278.429 14.3067 278.309 14.6067 278.069 14.82C277.829 15.02 277.529 15.12 277.169 15.12C276.809 15.12 276.509 15.02 276.269 14.82C276.042 14.6067 275.929 14.3067 275.929 13.92V6.18C275.929 5.80667 276.042 5.52 276.269 5.32C276.509 5.12 276.802 5.02 277.149 5.02C277.496 5.02 277.776 5.12 277.989 5.32C278.202 5.50667 278.309 5.78 278.309 6.14V6.94C278.562 6.35333 278.936 5.9 279.429 5.58C279.936 5.26 280.496 5.08 281.109 5.04L281.389 5.02ZM292.285 13.06C292.552 13.3133 292.685 13.6 292.685 13.92C292.685 14.2267 292.572 14.5 292.345 14.74C292.132 14.98 291.878 15.1 291.585 15.1C291.292 15.1 291.018 14.98 290.765 14.74L286.085 10.5V13.92C286.085 14.3067 285.965 14.6 285.725 14.8C285.485 15 285.185 15.1 284.825 15.1C284.465 15.1 284.165 15 283.925 14.8C283.698 14.6 283.585 14.3067 283.585 13.92V1.98C283.585 1.59333 283.698 1.3 283.925 1.1C284.165 0.899999 284.465 0.799999 284.825 0.799999C285.185 0.799999 285.485 0.899999 285.725 1.1C285.965 1.3 286.085 1.59333 286.085 1.98V9.5L290.365 5.4C290.605 5.16 290.878 5.04 291.185 5.04C291.492 5.04 291.758 5.15333 291.985 5.38C292.212 5.60667 292.325 5.87333 292.325 6.18C292.325 6.48667 292.198 6.76667 291.945 7.02L288.805 9.94L292.285 13.06ZM301.911 12.32C302.138 12.32 302.318 12.4067 302.451 12.58C302.598 12.7533 302.671 12.9867 302.671 13.28C302.671 13.6933 302.424 14.04 301.931 14.32C301.478 14.5733 300.964 14.78 300.391 14.94C299.818 15.0867 299.271 15.16 298.751 15.16C297.178 15.16 295.931 14.7067 295.011 13.8C294.091 12.8933 293.631 11.6533 293.631 10.08C293.631 9.08 293.831 8.19333 294.231 7.42C294.631 6.64667 295.191 6.04667 295.911 5.62C296.644 5.19333 297.471 4.98 298.391 4.98C299.271 4.98 300.038 5.17333 300.691 5.56C301.344 5.94667 301.851 6.49333 302.211 7.2C302.571 7.90667 302.751 8.74 302.751 9.7C302.751 10.2733 302.498 10.56 301.991 10.56H296.091C296.171 11.48 296.431 12.16 296.871 12.6C297.311 13.0267 297.951 13.24 298.791 13.24C299.218 13.24 299.591 13.1867 299.911 13.08C300.244 12.9733 300.618 12.8267 301.031 12.64C301.431 12.4267 301.724 12.32 301.911 12.32ZM298.451 6.74C297.771 6.74 297.224 6.95333 296.811 7.38C296.411 7.80667 296.171 8.42 296.091 9.22H300.611C300.584 8.40667 300.384 7.79333 300.011 7.38C299.638 6.95333 299.118 6.74 298.451 6.74ZM312.956 0.799999C313.329 0.799999 313.636 0.906666 313.876 1.12C314.116 1.33333 314.236 1.61333 314.236 1.96V13.92C314.236 14.28 314.123 14.5667 313.896 14.78C313.669 14.9933 313.369 15.1 312.996 15.1C312.623 15.1 312.323 14.9933 312.096 14.78C311.869 14.5667 311.756 14.28 311.756 13.92V13.42C311.463 13.9667 311.036 14.3933 310.476 14.7C309.929 15.0067 309.303 15.16 308.596 15.16C307.756 15.16 307.003 14.9467 306.336 14.52C305.683 14.0933 305.169 13.4933 304.796 12.72C304.436 11.9333 304.256 11.0333 304.256 10.02C304.256 9.00667 304.436 8.12 304.796 7.36C305.169 6.6 305.683 6.01333 306.336 5.6C306.989 5.18667 307.743 4.98 308.596 4.98C309.303 4.98 309.929 5.12667 310.476 5.42C311.023 5.71333 311.443 6.12667 311.736 6.66V1.92C311.736 1.58667 311.843 1.32 312.056 1.12C312.283 0.906666 312.583 0.799999 312.956 0.799999ZM309.256 13.22C310.056 13.22 310.669 12.9467 311.096 12.4C311.536 11.8533 311.756 11.0733 311.756 10.06C311.756 9.04667 311.536 8.27333 311.096 7.74C310.669 7.19333 310.063 6.92 309.276 6.92C308.476 6.92 307.856 7.18667 307.416 7.72C306.976 8.25333 306.756 9.02 306.756 10.02C306.756 11.0333 306.976 11.82 307.416 12.38C307.856 12.94 308.469 13.22 309.256 13.22ZM326.478 4.98C327.838 4.98 328.844 5.32 329.498 6C330.164 6.66667 330.498 7.68667 330.498 9.06V13.94C330.498 14.3 330.391 14.5867 330.178 14.8C329.964 15 329.671 15.1 329.298 15.1C328.951 15.1 328.664 14.9933 328.438 14.78C328.224 14.5667 328.118 14.2867 328.118 13.94V13.5C327.891 14.02 327.531 14.4267 327.038 14.72C326.558 15.0133 325.998 15.16 325.358 15.16C324.704 15.16 324.111 15.0267 323.577 14.76C323.044 14.4933 322.624 14.1267 322.318 13.66C322.011 13.1933 321.858 12.6733 321.858 12.1C321.858 11.38 322.038 10.8133 322.398 10.4C322.771 9.98667 323.371 9.68667 324.198 9.5C325.024 9.31333 326.164 9.22 327.618 9.22H328.118V8.76C328.118 8.10667 327.978 7.63333 327.698 7.34C327.418 7.03333 326.964 6.88 326.338 6.88C325.951 6.88 325.558 6.94 325.158 7.06C324.758 7.16667 324.284 7.32667 323.738 7.54C323.391 7.71333 323.138 7.8 322.978 7.8C322.738 7.8 322.538 7.71333 322.378 7.54C322.231 7.36667 322.158 7.14 322.158 6.86C322.158 6.63333 322.211 6.44 322.318 6.28C322.438 6.10667 322.631 5.94667 322.898 5.8C323.364 5.54667 323.918 5.34667 324.558 5.2C325.211 5.05333 325.851 4.98 326.478 4.98ZM325.858 13.36C326.524 13.36 327.064 13.14 327.478 12.7C327.904 12.2467 328.118 11.6667 328.118 10.96V10.54H327.758C326.864 10.54 326.171 10.58 325.678 10.66C325.184 10.74 324.831 10.88 324.618 11.08C324.404 11.28 324.298 11.5533 324.298 11.9C324.298 12.3267 324.444 12.68 324.738 12.96C325.044 13.2267 325.418 13.36 325.858 13.36ZM338.498 5.02C338.845 4.99333 339.118 5.06667 339.318 5.24C339.518 5.41333 339.618 5.67333 339.618 6.02C339.618 6.38 339.532 6.64667 339.358 6.82C339.185 6.99333 338.872 7.10667 338.418 7.16L337.818 7.22C337.032 7.3 336.452 7.56667 336.078 8.02C335.718 8.47333 335.538 9.04 335.538 9.72V13.92C335.538 14.3067 335.418 14.6067 335.178 14.82C334.938 15.02 334.638 15.12 334.278 15.12C333.918 15.12 333.618 15.02 333.378 14.82C333.152 14.6067 333.038 14.3067 333.038 13.92V6.18C333.038 5.80667 333.152 5.52 333.378 5.32C333.618 5.12 333.912 5.02 334.258 5.02C334.605 5.02 334.885 5.12 335.098 5.32C335.312 5.50667 335.418 5.78 335.418 6.14V6.94C335.672 6.35333 336.045 5.9 336.538 5.58C337.045 5.26 337.605 5.08 338.218 5.04L338.498 5.02ZM348.239 12.32C348.466 12.32 348.646 12.4067 348.779 12.58C348.926 12.7533 348.999 12.9867 348.999 13.28C348.999 13.6933 348.753 14.04 348.259 14.32C347.806 14.5733 347.293 14.78 346.719 14.94C346.146 15.0867 345.599 15.16 345.079 15.16C343.506 15.16 342.259 14.7067 341.339 13.8C340.419 12.8933 339.959 11.6533 339.959 10.08C339.959 9.08 340.159 8.19333 340.559 7.42C340.959 6.64667 341.519 6.04667 342.239 5.62C342.973 5.19333 343.799 4.98 344.719 4.98C345.599 4.98 346.366 5.17333 347.019 5.56C347.673 5.94667 348.179 6.49333 348.539 7.2C348.899 7.90667 349.079 8.74 349.079 9.7C349.079 10.2733 348.826 10.56 348.319 10.56H342.419C342.499 11.48 342.759 12.16 343.199 12.6C343.639 13.0267 344.279 13.24 345.119 13.24C345.546 13.24 345.919 13.1867 346.239 13.08C346.573 12.9733 346.946 12.8267 347.359 12.64C347.759 12.4267 348.053 12.32 348.239 12.32ZM344.779 6.74C344.099 6.74 343.553 6.95333 343.139 7.38C342.739 7.80667 342.499 8.42 342.419 9.22H346.939C346.913 8.40667 346.713 7.79333 346.339 7.38C345.966 6.95333 345.446 6.74 344.779 6.74ZM355.364 4.98C356.724 4.98 357.731 5.32 358.384 6C359.051 6.66667 359.384 7.68667 359.384 9.06V13.94C359.384 14.3 359.278 14.5867 359.064 14.8C358.851 15 358.558 15.1 358.184 15.1C357.838 15.1 357.551 14.9933 357.324 14.78C357.111 14.5667 357.004 14.2867 357.004 13.94V13.5C356.778 14.02 356.418 14.4267 355.924 14.72C355.444 15.0133 354.884 15.16 354.244 15.16C353.591 15.16 352.998 15.0267 352.464 14.76C351.931 14.4933 351.511 14.1267 351.204 13.66C350.898 13.1933 350.744 12.6733 350.744 12.1C350.744 11.38 350.924 10.8133 351.284 10.4C351.658 9.98667 352.258 9.68667 353.084 9.5C353.911 9.31333 355.051 9.22 356.504 9.22H357.004V8.76C357.004 8.10667 356.864 7.63333 356.584 7.34C356.304 7.03333 355.851 6.88 355.224 6.88C354.838 6.88 354.444 6.94 354.044 7.06C353.644 7.16667 353.171 7.32667 352.624 7.54C352.278 7.71333 352.024 7.8 351.864 7.8C351.624 7.8 351.424 7.71333 351.264 7.54C351.118 7.36667 351.044 7.14 351.044 6.86C351.044 6.63333 351.098 6.44 351.204 6.28C351.324 6.10667 351.518 5.94667 351.784 5.8C352.251 5.54667 352.804 5.34667 353.444 5.2C354.098 5.05333 354.738 4.98 355.364 4.98ZM354.744 13.36C355.411 13.36 355.951 13.14 356.364 12.7C356.791 12.2467 357.004 11.6667 357.004 10.96V10.54H356.644C355.751 10.54 355.058 10.58 354.564 10.66C354.071 10.74 353.718 10.88 353.504 11.08C353.291 11.28 353.184 11.5533 353.184 11.9C353.184 12.3267 353.331 12.68 353.624 12.96C353.931 13.2267 354.304 13.36 354.744 13.36ZM363.105 15.12C362.678 15.12 362.325 14.98 362.045 14.7C361.765 14.4067 361.625 14.0467 361.625 13.62C361.625 13.1933 361.765 12.84 362.045 12.56C362.325 12.2667 362.678 12.12 363.105 12.12C363.532 12.12 363.885 12.2667 364.165 12.56C364.445 12.84 364.585 13.1933 364.585 13.62C364.585 14.0467 364.445 14.4067 364.165 14.7C363.885 14.98 363.532 15.12 363.105 15.12Z" fill="#444444"/>
</svg>
