<svg width="448" height="47" viewBox="0 0 448 47" fill="none" xmlns="http://www.w3.org/2000/svg">
<path d="M133.39 15C133.004 15 132.704 14.8933 132.49 14.68C132.277 14.4667 132.17 14.1733 132.17 13.8V2.08C132.17 1.69333 132.284 1.38667 132.51 1.16C132.75 0.919999 133.064 0.799999 133.45 0.799999C133.85 0.799999 134.164 0.919999 134.39 1.16C134.63 1.38667 134.75 1.69333 134.75 2.08V12.88H140.37C141.17 12.88 141.57 13.2333 141.57 13.94C141.57 14.6467 141.17 15 140.37 15H133.39ZM144.284 15.12C143.924 15.12 143.624 15.02 143.384 14.82C143.157 14.6067 143.044 14.3067 143.044 13.92V6.2C143.044 5.81333 143.157 5.52 143.384 5.32C143.624 5.12 143.924 5.02 144.284 5.02C144.644 5.02 144.944 5.12 145.184 5.32C145.424 5.52 145.544 5.81333 145.544 6.2V13.92C145.544 14.3067 145.424 14.6067 145.184 14.82C144.944 15.02 144.644 15.12 144.284 15.12ZM144.284 3.24C143.831 3.24 143.471 3.12 143.204 2.88C142.937 2.62667 142.804 2.3 142.804 1.9C142.804 1.5 142.937 1.18 143.204 0.94C143.471 0.7 143.831 0.58 144.284 0.58C144.724 0.58 145.077 0.7 145.344 0.94C145.624 1.18 145.764 1.5 145.764 1.9C145.764 2.3 145.631 2.62667 145.364 2.88C145.097 3.12 144.737 3.24 144.284 3.24ZM153.802 4.98C154.976 4.98 155.849 5.31333 156.422 5.98C156.996 6.64667 157.282 7.65333 157.282 9V13.92C157.282 14.2933 157.169 14.5867 156.942 14.8C156.729 15.0133 156.429 15.12 156.042 15.12C155.656 15.12 155.349 15.0133 155.122 14.8C154.896 14.5867 154.782 14.2933 154.782 13.92V9.14C154.782 8.38 154.636 7.82667 154.342 7.48C154.062 7.13333 153.616 6.96 153.002 6.96C152.282 6.96 151.702 7.18667 151.262 7.64C150.836 8.09333 150.622 8.7 150.622 9.46V13.92C150.622 14.2933 150.509 14.5867 150.282 14.8C150.056 15.0133 149.749 15.12 149.362 15.12C148.976 15.12 148.669 15.0133 148.442 14.8C148.229 14.5867 148.122 14.2933 148.122 13.92V6.18C148.122 5.83333 148.236 5.55333 148.462 5.34C148.689 5.12667 148.996 5.02 149.382 5.02C149.729 5.02 150.009 5.12667 150.222 5.34C150.449 5.54 150.562 5.80667 150.562 6.14V6.68C150.896 6.13333 151.342 5.71333 151.902 5.42C152.462 5.12667 153.096 4.98 153.802 4.98ZM167.561 12.32C167.788 12.32 167.968 12.4067 168.101 12.58C168.248 12.7533 168.321 12.9867 168.321 13.28C168.321 13.6933 168.075 14.04 167.581 14.32C167.128 14.5733 166.615 14.78 166.041 14.94C165.468 15.0867 164.921 15.16 164.401 15.16C162.828 15.16 161.581 14.7067 160.661 13.8C159.741 12.8933 159.281 11.6533 159.281 10.08C159.281 9.08 159.481 8.19333 159.881 7.42C160.281 6.64667 160.841 6.04667 161.561 5.62C162.295 5.19333 163.121 4.98 164.041 4.98C164.921 4.98 165.688 5.17333 166.341 5.56C166.995 5.94667 167.501 6.49333 167.861 7.2C168.221 7.90667 168.401 8.74 168.401 9.7C168.401 10.2733 168.148 10.56 167.641 10.56H161.741C161.821 11.48 162.081 12.16 162.521 12.6C162.961 13.0267 163.601 13.24 164.441 13.24C164.868 13.24 165.241 13.1867 165.561 13.08C165.895 12.9733 166.268 12.8267 166.681 12.64C167.081 12.4267 167.375 12.32 167.561 12.32ZM164.101 6.74C163.421 6.74 162.875 6.95333 162.461 7.38C162.061 7.80667 161.821 8.42 161.741 9.22H166.261C166.235 8.40667 166.035 7.79333 165.661 7.38C165.288 6.95333 164.768 6.74 164.101 6.74ZM173.986 15.16C172.533 15.16 171.36 14.8733 170.466 14.3C170.04 14.0467 169.826 13.6867 169.826 13.22C169.826 12.9533 169.9 12.74 170.046 12.58C170.193 12.4067 170.373 12.32 170.586 12.32C170.813 12.32 171.126 12.4267 171.526 12.64C171.953 12.84 172.34 12.9933 172.686 13.1C173.046 13.2067 173.5 13.26 174.046 13.26C174.606 13.26 175.04 13.1667 175.346 12.98C175.666 12.7933 175.826 12.5333 175.826 12.2C175.826 11.9733 175.76 11.7933 175.626 11.66C175.506 11.5267 175.28 11.4067 174.946 11.3C174.626 11.18 174.133 11.0467 173.466 10.9C172.28 10.66 171.426 10.32 170.906 9.88C170.4 9.44 170.146 8.83333 170.146 8.06C170.146 7.47333 170.32 6.94667 170.666 6.48C171.013 6 171.486 5.63333 172.086 5.38C172.7 5.11333 173.393 4.98 174.166 4.98C174.726 4.98 175.266 5.05333 175.786 5.2C176.306 5.33333 176.773 5.53333 177.186 5.8C177.613 6.06667 177.826 6.42 177.826 6.86C177.826 7.12667 177.753 7.35333 177.606 7.54C177.46 7.71333 177.28 7.8 177.066 7.8C176.92 7.8 176.773 7.77333 176.626 7.72C176.493 7.65333 176.32 7.56 176.106 7.44C175.72 7.24 175.386 7.09333 175.106 7C174.826 6.89333 174.48 6.84 174.066 6.84C173.573 6.84 173.18 6.94 172.886 7.14C172.606 7.34 172.466 7.61333 172.466 7.96C172.466 8.29333 172.613 8.54667 172.906 8.72C173.2 8.89333 173.766 9.06667 174.606 9.24C175.5 9.42667 176.2 9.64 176.706 9.88C177.213 10.12 177.573 10.42 177.786 10.78C178.013 11.14 178.126 11.6 178.126 12.16C178.126 13.0667 177.746 13.7933 176.986 14.34C176.24 14.8867 175.24 15.16 173.986 15.16ZM189.823 4.98C191.183 4.98 192.19 5.32 192.843 6C193.51 6.66667 193.843 7.68667 193.843 9.06V13.94C193.843 14.3 193.737 14.5867 193.523 14.8C193.31 15 193.017 15.1 192.643 15.1C192.297 15.1 192.01 14.9933 191.783 14.78C191.57 14.5667 191.463 14.2867 191.463 13.94V13.5C191.237 14.02 190.877 14.4267 190.383 14.72C189.903 15.0133 189.343 15.16 188.703 15.16C188.05 15.16 187.457 15.0267 186.923 14.76C186.39 14.4933 185.97 14.1267 185.663 13.66C185.357 13.1933 185.203 12.6733 185.203 12.1C185.203 11.38 185.383 10.8133 185.743 10.4C186.117 9.98667 186.717 9.68667 187.543 9.5C188.37 9.31333 189.51 9.22 190.963 9.22H191.463V8.76C191.463 8.10667 191.323 7.63333 191.043 7.34C190.763 7.03333 190.31 6.88 189.683 6.88C189.297 6.88 188.903 6.94 188.503 7.06C188.103 7.16667 187.63 7.32667 187.083 7.54C186.737 7.71333 186.483 7.8 186.323 7.8C186.083 7.8 185.883 7.71333 185.723 7.54C185.577 7.36667 185.503 7.14 185.503 6.86C185.503 6.63333 185.557 6.44 185.663 6.28C185.783 6.10667 185.977 5.94667 186.243 5.8C186.71 5.54667 187.263 5.34667 187.903 5.2C188.557 5.05333 189.197 4.98 189.823 4.98ZM189.203 13.36C189.87 13.36 190.41 13.14 190.823 12.7C191.25 12.2467 191.463 11.6667 191.463 10.96V10.54H191.103C190.21 10.54 189.517 10.58 189.023 10.66C188.53 10.74 188.177 10.88 187.963 11.08C187.75 11.28 187.643 11.5533 187.643 11.9C187.643 12.3267 187.79 12.68 188.083 12.96C188.39 13.2267 188.763 13.36 189.203 13.36ZM201.844 5.02C202.191 4.99333 202.464 5.06667 202.664 5.24C202.864 5.41333 202.964 5.67333 202.964 6.02C202.964 6.38 202.877 6.64667 202.704 6.82C202.531 6.99333 202.217 7.10667 201.764 7.16L201.164 7.22C200.377 7.3 199.797 7.56667 199.424 8.02C199.064 8.47333 198.884 9.04 198.884 9.72V13.92C198.884 14.3067 198.764 14.6067 198.524 14.82C198.284 15.02 197.984 15.12 197.624 15.12C197.264 15.12 196.964 15.02 196.724 14.82C196.497 14.6067 196.384 14.3067 196.384 13.92V6.18C196.384 5.80667 196.497 5.52 196.724 5.32C196.964 5.12 197.257 5.02 197.604 5.02C197.951 5.02 198.231 5.12 198.444 5.32C198.657 5.50667 198.764 5.78 198.764 6.14V6.94C199.017 6.35333 199.391 5.9 199.884 5.58C200.391 5.26 200.951 5.08 201.564 5.04L201.844 5.02ZM211.585 12.32C211.812 12.32 211.992 12.4067 212.125 12.58C212.272 12.7533 212.345 12.9867 212.345 13.28C212.345 13.6933 212.098 14.04 211.605 14.32C211.152 14.5733 210.638 14.78 210.065 14.94C209.492 15.0867 208.945 15.16 208.425 15.16C206.852 15.16 205.605 14.7067 204.685 13.8C203.765 12.8933 203.305 11.6533 203.305 10.08C203.305 9.08 203.505 8.19333 203.905 7.42C204.305 6.64667 204.865 6.04667 205.585 5.62C206.318 5.19333 207.145 4.98 208.065 4.98C208.945 4.98 209.712 5.17333 210.365 5.56C211.018 5.94667 211.525 6.49333 211.885 7.2C212.245 7.90667 212.425 8.74 212.425 9.7C212.425 10.2733 212.172 10.56 211.665 10.56H205.765C205.845 11.48 206.105 12.16 206.545 12.6C206.985 13.0267 207.625 13.24 208.465 13.24C208.892 13.24 209.265 13.1867 209.585 13.08C209.918 12.9733 210.292 12.8267 210.705 12.64C211.105 12.4267 211.398 12.32 211.585 12.32ZM208.125 6.74C207.445 6.74 206.898 6.95333 206.485 7.38C206.085 7.80667 205.845 8.42 205.765 9.22H210.285C210.258 8.40667 210.058 7.79333 209.685 7.38C209.312 6.95333 208.792 6.74 208.125 6.74ZM224.24 15.16C223.266 15.16 222.406 14.9533 221.66 14.54C220.926 14.1267 220.36 13.54 219.96 12.78C219.56 12.02 219.36 11.1333 219.36 10.12C219.36 9.10667 219.566 8.21333 219.98 7.44C220.406 6.65333 221 6.04667 221.76 5.62C222.52 5.19333 223.393 4.98 224.38 4.98C224.9 4.98 225.42 5.05333 225.94 5.2C226.473 5.34667 226.94 5.54667 227.34 5.8C227.766 6.08 227.98 6.43333 227.98 6.86C227.98 7.15333 227.906 7.39333 227.76 7.58C227.626 7.75333 227.446 7.84 227.22 7.84C227.073 7.84 226.92 7.80667 226.76 7.74C226.6 7.67333 226.44 7.59333 226.28 7.5C225.986 7.32667 225.706 7.19333 225.44 7.1C225.173 6.99333 224.866 6.94 224.52 6.94C223.693 6.94 223.053 7.21333 222.6 7.76C222.16 8.29333 221.94 9.06667 221.94 10.08C221.94 11.08 222.16 11.8533 222.6 12.4C223.053 12.9333 223.693 13.2 224.52 13.2C224.853 13.2 225.146 13.1533 225.4 13.06C225.666 12.9533 225.96 12.8133 226.28 12.64C226.48 12.52 226.653 12.4333 226.8 12.38C226.946 12.3133 227.093 12.28 227.24 12.28C227.453 12.28 227.633 12.3733 227.78 12.56C227.926 12.7467 228 12.98 228 13.26C228 13.4867 227.946 13.6867 227.84 13.86C227.746 14.02 227.586 14.1667 227.36 14.3C226.946 14.5667 226.466 14.78 225.92 14.94C225.373 15.0867 224.813 15.16 224.24 15.16ZM234.125 15.16C233.125 15.16 232.245 14.9533 231.485 14.54C230.739 14.1267 230.159 13.5333 229.745 12.76C229.332 11.9867 229.125 11.0867 229.125 10.06C229.125 9.03333 229.332 8.14 229.745 7.38C230.159 6.60667 230.739 6.01333 231.485 5.6C232.245 5.18667 233.125 4.98 234.125 4.98C235.125 4.98 235.999 5.18667 236.745 5.6C237.505 6.01333 238.085 6.60667 238.485 7.38C238.899 8.14 239.105 9.03333 239.105 10.06C239.105 11.0867 238.899 11.9867 238.485 12.76C238.085 13.5333 237.505 14.1267 236.745 14.54C235.999 14.9533 235.125 15.16 234.125 15.16ZM234.105 13.22C234.919 13.22 235.539 12.9533 235.965 12.42C236.392 11.8867 236.605 11.1 236.605 10.06C236.605 9.03333 236.392 8.25333 235.965 7.72C235.539 7.17333 234.925 6.9 234.125 6.9C233.325 6.9 232.705 7.17333 232.265 7.72C231.839 8.25333 231.625 9.03333 231.625 10.06C231.625 11.1 231.839 11.8867 232.265 12.42C232.692 12.9533 233.305 13.22 234.105 13.22ZM242.409 15.12C242.049 15.12 241.749 15.02 241.509 14.82C241.282 14.6067 241.169 14.3067 241.169 13.92V6.2C241.169 5.81333 241.282 5.52 241.509 5.32C241.749 5.12 242.049 5.02 242.409 5.02C242.769 5.02 243.069 5.12 243.309 5.32C243.549 5.52 243.669 5.81333 243.669 6.2V13.92C243.669 14.3067 243.549 14.6067 243.309 14.82C243.069 15.02 242.769 15.12 242.409 15.12ZM242.409 3.24C241.956 3.24 241.596 3.12 241.329 2.88C241.062 2.62667 240.929 2.3 240.929 1.9C240.929 1.5 241.062 1.18 241.329 0.94C241.596 0.7 241.956 0.58 242.409 0.58C242.849 0.58 243.202 0.7 243.469 0.94C243.749 1.18 243.889 1.5 243.889 1.9C243.889 2.3 243.756 2.62667 243.489 2.88C243.222 3.12 242.862 3.24 242.409 3.24ZM251.927 4.98C253.101 4.98 253.974 5.31333 254.547 5.98C255.121 6.64667 255.407 7.65333 255.407 9V13.92C255.407 14.2933 255.294 14.5867 255.067 14.8C254.854 15.0133 254.554 15.12 254.167 15.12C253.781 15.12 253.474 15.0133 253.247 14.8C253.021 14.5867 252.907 14.2933 252.907 13.92V9.14C252.907 8.38 252.761 7.82667 252.467 7.48C252.187 7.13333 251.741 6.96 251.127 6.96C250.407 6.96 249.827 7.18667 249.387 7.64C248.961 8.09333 248.747 8.7 248.747 9.46V13.92C248.747 14.2933 248.634 14.5867 248.407 14.8C248.181 15.0133 247.874 15.12 247.487 15.12C247.101 15.12 246.794 15.0133 246.567 14.8C246.354 14.5867 246.247 14.2933 246.247 13.92V6.18C246.247 5.83333 246.361 5.55333 246.587 5.34C246.814 5.12667 247.121 5.02 247.507 5.02C247.854 5.02 248.134 5.12667 248.347 5.34C248.574 5.54 248.687 5.80667 248.687 6.14V6.68C249.021 6.13333 249.467 5.71333 250.027 5.42C250.587 5.12667 251.221 4.98 251.927 4.98ZM262.286 15.16C261.313 15.16 260.453 14.9533 259.706 14.54C258.973 14.1267 258.406 13.54 258.006 12.78C257.606 12.02 257.406 11.1333 257.406 10.12C257.406 9.10667 257.613 8.21333 258.026 7.44C258.453 6.65333 259.046 6.04667 259.806 5.62C260.566 5.19333 261.44 4.98 262.426 4.98C262.946 4.98 263.466 5.05333 263.986 5.2C264.52 5.34667 264.986 5.54667 265.386 5.8C265.813 6.08 266.026 6.43333 266.026 6.86C266.026 7.15333 265.953 7.39333 265.806 7.58C265.673 7.75333 265.493 7.84 265.266 7.84C265.12 7.84 264.966 7.80667 264.806 7.74C264.646 7.67333 264.486 7.59333 264.326 7.5C264.033 7.32667 263.753 7.19333 263.486 7.1C263.22 6.99333 262.913 6.94 262.566 6.94C261.74 6.94 261.1 7.21333 260.646 7.76C260.206 8.29333 259.986 9.06667 259.986 10.08C259.986 11.08 260.206 11.8533 260.646 12.4C261.1 12.9333 261.74 13.2 262.566 13.2C262.9 13.2 263.193 13.1533 263.446 13.06C263.713 12.9533 264.006 12.8133 264.326 12.64C264.526 12.52 264.7 12.4333 264.846 12.38C264.993 12.3133 265.14 12.28 265.286 12.28C265.5 12.28 265.68 12.3733 265.826 12.56C265.973 12.7467 266.046 12.98 266.046 13.26C266.046 13.4867 265.993 13.6867 265.886 13.86C265.793 14.02 265.633 14.1667 265.406 14.3C264.993 14.5667 264.513 14.78 263.966 14.94C263.42 15.0867 262.86 15.16 262.286 15.16ZM268.952 15.12C268.592 15.12 268.292 15.02 268.052 14.82C267.825 14.6067 267.712 14.3067 267.712 13.92V6.2C267.712 5.81333 267.825 5.52 268.052 5.32C268.292 5.12 268.592 5.02 268.952 5.02C269.312 5.02 269.612 5.12 269.852 5.32C270.092 5.52 270.212 5.81333 270.212 6.2V13.92C270.212 14.3067 270.092 14.6067 269.852 14.82C269.612 15.02 269.312 15.12 268.952 15.12ZM268.952 3.24C268.499 3.24 268.139 3.12 267.872 2.88C267.605 2.62667 267.472 2.3 267.472 1.9C267.472 1.5 267.605 1.18 267.872 0.94C268.139 0.7 268.499 0.58 268.952 0.58C269.392 0.58 269.745 0.7 270.012 0.94C270.292 1.18 270.432 1.5 270.432 1.9C270.432 2.3 270.299 2.62667 270.032 2.88C269.765 3.12 269.405 3.24 268.952 3.24ZM280.95 0.799999C281.324 0.799999 281.63 0.906666 281.87 1.12C282.11 1.33333 282.23 1.61333 282.23 1.96V13.92C282.23 14.28 282.117 14.5667 281.89 14.78C281.664 14.9933 281.364 15.1 280.99 15.1C280.617 15.1 280.317 14.9933 280.09 14.78C279.864 14.5667 279.75 14.28 279.75 13.92V13.42C279.457 13.9667 279.03 14.3933 278.47 14.7C277.924 15.0067 277.297 15.16 276.59 15.16C275.75 15.16 274.997 14.9467 274.33 14.52C273.677 14.0933 273.164 13.4933 272.79 12.72C272.43 11.9333 272.25 11.0333 272.25 10.02C272.25 9.00667 272.43 8.12 272.79 7.36C273.164 6.6 273.677 6.01333 274.33 5.6C274.984 5.18667 275.737 4.98 276.59 4.98C277.297 4.98 277.924 5.12667 278.47 5.42C279.017 5.71333 279.437 6.12667 279.73 6.66V1.92C279.73 1.58667 279.837 1.32 280.05 1.12C280.277 0.906666 280.577 0.799999 280.95 0.799999ZM277.25 13.22C278.05 13.22 278.664 12.9467 279.09 12.4C279.53 11.8533 279.75 11.0733 279.75 10.06C279.75 9.04667 279.53 8.27333 279.09 7.74C278.664 7.19333 278.057 6.92 277.27 6.92C276.47 6.92 275.85 7.18667 275.41 7.72C274.97 8.25333 274.75 9.02 274.75 10.02C274.75 11.0333 274.97 11.82 275.41 12.38C275.85 12.94 276.464 13.22 277.25 13.22ZM286.042 15.12C285.682 15.12 285.382 15.02 285.142 14.82C284.915 14.6067 284.802 14.3067 284.802 13.92V6.2C284.802 5.81333 284.915 5.52 285.142 5.32C285.382 5.12 285.682 5.02 286.042 5.02C286.402 5.02 286.702 5.12 286.942 5.32C287.182 5.52 287.302 5.81333 287.302 6.2V13.92C287.302 14.3067 287.182 14.6067 286.942 14.82C286.702 15.02 286.402 15.12 286.042 15.12ZM286.042 3.24C285.589 3.24 285.229 3.12 284.962 2.88C284.695 2.62667 284.562 2.3 284.562 1.9C284.562 1.5 284.695 1.18 284.962 0.94C285.229 0.7 285.589 0.58 286.042 0.58C286.482 0.58 286.835 0.7 287.102 0.94C287.382 1.18 287.522 1.5 287.522 1.9C287.522 2.3 287.389 2.62667 287.122 2.88C286.855 3.12 286.495 3.24 286.042 3.24ZM295.56 4.98C296.733 4.98 297.607 5.31333 298.18 5.98C298.753 6.64667 299.04 7.65333 299.04 9V13.92C299.04 14.2933 298.927 14.5867 298.7 14.8C298.487 15.0133 298.187 15.12 297.8 15.12C297.413 15.12 297.107 15.0133 296.88 14.8C296.653 14.5867 296.54 14.2933 296.54 13.92V9.14C296.54 8.38 296.393 7.82667 296.1 7.48C295.82 7.13333 295.373 6.96 294.76 6.96C294.04 6.96 293.46 7.18667 293.02 7.64C292.593 8.09333 292.38 8.7 292.38 9.46V13.92C292.38 14.2933 292.267 14.5867 292.04 14.8C291.813 15.0133 291.507 15.12 291.12 15.12C290.733 15.12 290.427 15.0133 290.2 14.8C289.987 14.5867 289.88 14.2933 289.88 13.92V6.18C289.88 5.83333 289.993 5.55333 290.22 5.34C290.447 5.12667 290.753 5.02 291.14 5.02C291.487 5.02 291.767 5.12667 291.98 5.34C292.207 5.54 292.32 5.80667 292.32 6.14V6.68C292.653 6.13333 293.1 5.71333 293.66 5.42C294.22 5.12667 294.853 4.98 295.56 4.98ZM309.859 5.02C310.233 5.02 310.533 5.12667 310.759 5.34C310.986 5.55333 311.099 5.84 311.099 6.2V14.1C311.099 15.6333 310.673 16.7933 309.819 17.58C308.966 18.3667 307.706 18.76 306.039 18.76C304.586 18.76 303.373 18.4867 302.399 17.94C301.906 17.6467 301.659 17.2933 301.659 16.88C301.659 16.5867 301.726 16.3533 301.859 16.18C302.006 16.0067 302.193 15.92 302.419 15.92C302.539 15.92 302.686 15.9467 302.859 16C303.033 16.0667 303.213 16.14 303.399 16.22C303.879 16.42 304.306 16.5733 304.679 16.68C305.066 16.7867 305.506 16.84 305.999 16.84C307.746 16.84 308.619 15.9867 308.619 14.28V13C308.326 13.5467 307.899 13.9733 307.339 14.28C306.779 14.5733 306.139 14.72 305.419 14.72C304.566 14.72 303.806 14.52 303.139 14.12C302.486 13.7067 301.973 13.1333 301.599 12.4C301.226 11.6667 301.039 10.82 301.039 9.86C301.039 8.9 301.219 8.05333 301.579 7.32C301.953 6.57333 302.473 6 303.139 5.6C303.806 5.18667 304.566 4.98 305.419 4.98C306.139 4.98 306.779 5.13333 307.339 5.44C307.899 5.73333 308.326 6.15333 308.619 6.7V6.18C308.619 5.83333 308.733 5.55333 308.959 5.34C309.186 5.12667 309.486 5.02 309.859 5.02ZM306.079 12.78C306.879 12.78 307.499 12.52 307.939 12C308.393 11.48 308.619 10.7667 308.619 9.86C308.619 8.94 308.393 8.22 307.939 7.7C307.499 7.18 306.879 6.92 306.079 6.92C305.293 6.92 304.673 7.18 304.219 7.7C303.766 8.22 303.539 8.94 303.539 9.86C303.539 10.7667 303.766 11.48 304.219 12C304.673 12.52 305.293 12.78 306.079 12.78ZM314.869 10.92C314.669 10.92 314.495 10.8533 314.349 10.72C314.215 10.5867 314.135 10.3933 314.109 10.14L313.369 2.36L313.349 2.16C313.349 1.74667 313.489 1.42 313.769 1.18C314.062 0.926666 314.429 0.799999 314.869 0.799999C315.335 0.799999 315.715 0.946666 316.009 1.24C316.302 1.52 316.422 1.9 316.369 2.38L315.629 10.14C315.602 10.3933 315.515 10.5867 315.369 10.72C315.235 10.8533 315.069 10.92 314.869 10.92ZM314.869 15.12C314.442 15.12 314.089 14.98 313.809 14.7C313.529 14.4067 313.389 14.0467 313.389 13.62C313.389 13.1933 313.529 12.84 313.809 12.56C314.089 12.2667 314.442 12.12 314.869 12.12C315.295 12.12 315.649 12.2667 315.929 12.56C316.209 12.84 316.349 13.1933 316.349 13.62C316.349 14.0467 316.209 14.4067 315.929 14.7C315.649 14.98 315.295 15.12 314.869 15.12ZM6.87813 43.18C5.50479 43.18 4.31146 42.8867 3.29813 42.3C2.29813 41.7133 1.52479 40.8733 0.978125 39.78C0.431458 38.6867 0.158125 37.4067 0.158125 35.94C0.158125 34.4733 0.424792 33.2 0.958125 32.12C1.50479 31.0267 2.28479 30.1867 3.29813 29.6C4.31146 29.0133 5.50479 28.72 6.87813 28.72C8.25146 28.72 9.43813 29.0133 10.4381 29.6C11.4515 30.1867 12.2248 31.0267 12.7581 32.12C13.3048 33.2 13.5781 34.4733 13.5781 35.94C13.5781 37.4067 13.3048 38.6867 12.7581 39.78C12.2115 40.8733 11.4315 41.7133 10.4181 42.3C9.41813 42.8867 8.23813 43.18 6.87813 43.18ZM6.87813 41.12C8.17146 41.12 9.17813 40.6733 9.89813 39.78C10.6315 38.8867 10.9981 37.6067 10.9981 35.94C10.9981 34.2733 10.6315 33 9.89813 32.12C9.17813 31.2267 8.17146 30.78 6.87813 30.78C5.57146 30.78 4.55146 31.2267 3.81813 32.12C3.09813 33 2.73813 34.2733 2.73813 35.94C2.73813 37.6067 3.09813 38.8867 3.81813 39.78C4.55146 40.6733 5.57146 41.12 6.87813 41.12ZM21.5841 32.98C22.4374 32.98 23.1907 33.1867 23.8441 33.6C24.4974 34.0133 25.0041 34.6 25.3641 35.36C25.7374 36.12 25.9241 37.0067 25.9241 38.02C25.9241 39.0333 25.7374 39.9333 25.3641 40.72C25.0041 41.4933 24.4907 42.0933 23.8241 42.52C23.1707 42.9467 22.4241 43.16 21.5841 43.16C20.8774 43.16 20.2441 43.0067 19.6841 42.7C19.1374 42.3933 18.7174 41.9667 18.4241 41.42V41.92C18.4241 42.28 18.3107 42.5667 18.0841 42.78C17.8574 42.9933 17.5574 43.1 17.1841 43.1C16.8107 43.1 16.5107 42.9933 16.2841 42.78C16.0707 42.5667 15.9641 42.28 15.9641 41.92V29.96C15.9641 29.6133 16.0774 29.3333 16.3041 29.12C16.5441 28.9067 16.8507 28.8 17.2241 28.8C17.5974 28.8 17.8974 28.9 18.1241 29.1C18.3507 29.3 18.4641 29.5733 18.4641 29.92V34.64C18.7574 34.1067 19.1774 33.7 19.7241 33.42C20.2707 33.1267 20.8907 32.98 21.5841 32.98ZM20.9241 41.22C21.7107 41.22 22.3241 40.94 22.7641 40.38C23.2041 39.82 23.4241 39.0333 23.4241 38.02C23.4241 37.02 23.2041 36.2533 22.7641 35.72C22.3374 35.1867 21.7241 34.92 20.9241 34.92C20.1241 34.92 19.5041 35.1933 19.0641 35.74C18.6374 36.2733 18.4241 37.0467 18.4241 38.06C18.4241 39.0733 18.6374 39.8533 19.0641 40.4C19.5041 40.9467 20.1241 41.22 20.9241 41.22ZM31.5158 43.16C30.0624 43.16 28.8891 42.8733 27.9958 42.3C27.5691 42.0467 27.3558 41.6867 27.3558 41.22C27.3558 40.9533 27.4291 40.74 27.5758 40.58C27.7224 40.4067 27.9024 40.32 28.1158 40.32C28.3424 40.32 28.6558 40.4267 29.0558 40.64C29.4824 40.84 29.8691 40.9933 30.2158 41.1C30.5758 41.2067 31.0291 41.26 31.5758 41.26C32.1358 41.26 32.5691 41.1667 32.8758 40.98C33.1958 40.7933 33.3558 40.5333 33.3558 40.2C33.3558 39.9733 33.2891 39.7933 33.1558 39.66C33.0358 39.5267 32.8091 39.4067 32.4758 39.3C32.1558 39.18 31.6624 39.0467 30.9958 38.9C29.8091 38.66 28.9558 38.32 28.4358 37.88C27.9291 37.44 27.6758 36.8333 27.6758 36.06C27.6758 35.4733 27.8491 34.9467 28.1958 34.48C28.5424 34 29.0158 33.6333 29.6158 33.38C30.2291 33.1133 30.9224 32.98 31.6958 32.98C32.2558 32.98 32.7958 33.0533 33.3158 33.2C33.8358 33.3333 34.3024 33.5333 34.7158 33.8C35.1424 34.0667 35.3558 34.42 35.3558 34.86C35.3558 35.1267 35.2824 35.3533 35.1358 35.54C34.9891 35.7133 34.8091 35.8 34.5958 35.8C34.4491 35.8 34.3024 35.7733 34.1558 35.72C34.0224 35.6533 33.8491 35.56 33.6358 35.44C33.2491 35.24 32.9158 35.0933 32.6358 35C32.3558 34.8933 32.0091 34.84 31.5958 34.84C31.1024 34.84 30.7091 34.94 30.4158 35.14C30.1358 35.34 29.9958 35.6133 29.9958 35.96C29.9958 36.2933 30.1424 36.5467 30.4358 36.72C30.7291 36.8933 31.2958 37.0667 32.1358 37.24C33.0291 37.4267 33.7291 37.64 34.2358 37.88C34.7424 38.12 35.1024 38.42 35.3158 38.78C35.5424 39.14 35.6558 39.6 35.6558 40.16C35.6558 41.0667 35.2758 41.7933 34.5158 42.34C33.7691 42.8867 32.7691 43.16 31.5158 43.16ZM45.4228 40.32C45.6495 40.32 45.8295 40.4067 45.9628 40.58C46.1095 40.7533 46.1828 40.9867 46.1828 41.28C46.1828 41.6933 45.9361 42.04 45.4428 42.32C44.9895 42.5733 44.4761 42.78 43.9028 42.94C43.3295 43.0867 42.7828 43.16 42.2628 43.16C40.6895 43.16 39.4428 42.7067 38.5228 41.8C37.6028 40.8933 37.1428 39.6533 37.1428 38.08C37.1428 37.08 37.3428 36.1933 37.7428 35.42C38.1428 34.6467 38.7028 34.0467 39.4228 33.62C40.1561 33.1933 40.9828 32.98 41.9028 32.98C42.7828 32.98 43.5495 33.1733 44.2028 33.56C44.8561 33.9467 45.3628 34.4933 45.7228 35.2C46.0828 35.9067 46.2628 36.74 46.2628 37.7C46.2628 38.2733 46.0095 38.56 45.5028 38.56H39.6028C39.6828 39.48 39.9428 40.16 40.3828 40.6C40.8228 41.0267 41.4628 41.24 42.3028 41.24C42.7295 41.24 43.1028 41.1867 43.4228 41.08C43.7561 40.9733 44.1295 40.8267 44.5428 40.64C44.9428 40.4267 45.2361 40.32 45.4228 40.32ZM41.9628 34.74C41.2828 34.74 40.7361 34.9533 40.3228 35.38C39.9228 35.8067 39.6828 36.42 39.6028 37.22H44.1228C44.0961 36.4067 43.8961 35.7933 43.5228 35.38C43.1495 34.9533 42.6295 34.74 41.9628 34.74ZM53.7678 33.02C54.1145 32.9933 54.3878 33.0667 54.5878 33.24C54.7878 33.4133 54.8878 33.6733 54.8878 34.02C54.8878 34.38 54.8011 34.6467 54.6278 34.82C54.4545 34.9933 54.1411 35.1067 53.6878 35.16L53.0878 35.22C52.3011 35.3 51.7211 35.5667 51.3478 36.02C50.9878 36.4733 50.8078 37.04 50.8078 37.72V41.92C50.8078 42.3067 50.6878 42.6067 50.4478 42.82C50.2078 43.02 49.9078 43.12 49.5478 43.12C49.1878 43.12 48.8878 43.02 48.6478 42.82C48.4211 42.6067 48.3078 42.3067 48.3078 41.92V34.18C48.3078 33.8067 48.4211 33.52 48.6478 33.32C48.8878 33.12 49.1811 33.02 49.5278 33.02C49.8745 33.02 50.1545 33.12 50.3678 33.32C50.5811 33.5067 50.6878 33.78 50.6878 34.14V34.94C50.9411 34.3533 51.3145 33.9 51.8078 33.58C52.3145 33.26 52.8745 33.08 53.4878 33.04L53.7678 33.02ZM63.3895 33.74C63.4962 33.5 63.6362 33.32 63.8095 33.2C63.9962 33.08 64.1962 33.02 64.4095 33.02C64.7162 33.02 64.9895 33.1267 65.2295 33.34C65.4829 33.54 65.6095 33.7933 65.6095 34.1C65.6095 34.26 65.5695 34.42 65.4895 34.58L61.7895 42.32C61.6695 42.5733 61.4962 42.7667 61.2695 42.9C61.0562 43.0333 60.8162 43.1 60.5495 43.1C60.2962 43.1 60.0495 43.0333 59.8095 42.9C59.5829 42.7667 59.4095 42.5733 59.2895 42.32L55.5695 34.58C55.5029 34.4467 55.4695 34.2933 55.4695 34.12C55.4695 33.8133 55.5962 33.5533 55.8495 33.34C56.1162 33.1267 56.4162 33.02 56.7495 33.02C57.2295 33.02 57.5829 33.2533 57.8095 33.72L60.6095 39.9L63.3895 33.74ZM74.6806 40.32C74.9073 40.32 75.0873 40.4067 75.2206 40.58C75.3673 40.7533 75.4406 40.9867 75.4406 41.28C75.4406 41.6933 75.194 42.04 74.7006 42.32C74.2473 42.5733 73.734 42.78 73.1606 42.94C72.5873 43.0867 72.0406 43.16 71.5206 43.16C69.9473 43.16 68.7006 42.7067 67.7806 41.8C66.8606 40.8933 66.4006 39.6533 66.4006 38.08C66.4006 37.08 66.6006 36.1933 67.0006 35.42C67.4006 34.6467 67.9606 34.0467 68.6806 33.62C69.414 33.1933 70.2406 32.98 71.1606 32.98C72.0406 32.98 72.8073 33.1733 73.4606 33.56C74.114 33.9467 74.6206 34.4933 74.9806 35.2C75.3406 35.9067 75.5206 36.74 75.5206 37.7C75.5206 38.2733 75.2673 38.56 74.7606 38.56H68.8606C68.9406 39.48 69.2006 40.16 69.6406 40.6C70.0806 41.0267 70.7206 41.24 71.5606 41.24C71.9873 41.24 72.3606 41.1867 72.6806 41.08C73.014 40.9733 73.3873 40.8267 73.8006 40.64C74.2006 40.4267 74.494 40.32 74.6806 40.32ZM71.2206 34.74C70.5406 34.74 69.994 34.9533 69.5806 35.38C69.1806 35.8067 68.9406 36.42 68.8606 37.22H73.3806C73.354 36.4067 73.154 35.7933 72.7806 35.38C72.4073 34.9533 71.8873 34.74 71.2206 34.74ZM88.0753 41.26C88.742 41.3 89.0753 41.6 89.0753 42.16C89.0753 42.48 88.942 42.7267 88.6753 42.9C88.422 43.06 88.0553 43.1267 87.5753 43.1L87.0353 43.06C84.7953 42.9 83.6753 41.7 83.6753 39.46V35.1H82.6753C82.3153 35.1 82.0353 35.02 81.8353 34.86C81.6486 34.7 81.5553 34.4667 81.5553 34.16C81.5553 33.8533 81.6486 33.62 81.8353 33.46C82.0353 33.3 82.3153 33.22 82.6753 33.22H83.6753V31.38C83.6753 31.02 83.7886 30.7333 84.0153 30.52C84.242 30.3067 84.5486 30.2 84.9353 30.2C85.3086 30.2 85.6086 30.3067 85.8353 30.52C86.062 30.7333 86.1753 31.02 86.1753 31.38V33.22H87.8753C88.2353 33.22 88.5086 33.3 88.6953 33.46C88.8953 33.62 88.9953 33.8533 88.9953 34.16C88.9953 34.4667 88.8953 34.7 88.6953 34.86C88.5086 35.02 88.2353 35.1 87.8753 35.1H86.1753V39.64C86.1753 40.6267 86.6286 41.1533 87.5353 41.22L88.0753 41.26ZM96.0981 32.98C98.3915 32.98 99.5381 34.32 99.5381 37V41.92C99.5381 42.2933 99.4248 42.5867 99.1981 42.8C98.9848 43.0133 98.6848 43.12 98.2981 43.12C97.9115 43.12 97.6048 43.0133 97.3781 42.8C97.1515 42.5867 97.0381 42.2933 97.0381 41.92V37C97.0381 36.2933 96.8915 35.78 96.5981 35.46C96.3181 35.1267 95.8715 34.96 95.2581 34.96C94.5381 34.96 93.9581 35.1867 93.5181 35.64C93.0915 36.0933 92.8781 36.7 92.8781 37.46V41.92C92.8781 42.2933 92.7648 42.5867 92.5381 42.8C92.3115 43.0133 92.0048 43.12 91.6181 43.12C91.2315 43.12 90.9248 43.0133 90.6981 42.8C90.4848 42.5867 90.3781 42.2933 90.3781 41.92V29.96C90.3781 29.6133 90.4915 29.3333 90.7181 29.12C90.9581 28.9067 91.2648 28.8 91.6381 28.8C92.0115 28.8 92.3115 28.9 92.5381 29.1C92.7648 29.3 92.8781 29.5733 92.8781 29.92V34.58C93.2115 34.06 93.6515 33.6667 94.1981 33.4C94.7581 33.12 95.3915 32.98 96.0981 32.98ZM109.817 40.32C110.044 40.32 110.224 40.4067 110.357 40.58C110.504 40.7533 110.577 40.9867 110.577 41.28C110.577 41.6933 110.331 42.04 109.837 42.32C109.384 42.5733 108.871 42.78 108.297 42.94C107.724 43.0867 107.177 43.16 106.657 43.16C105.084 43.16 103.837 42.7067 102.917 41.8C101.997 40.8933 101.537 39.6533 101.537 38.08C101.537 37.08 101.737 36.1933 102.137 35.42C102.537 34.6467 103.097 34.0467 103.817 33.62C104.551 33.1933 105.377 32.98 106.297 32.98C107.177 32.98 107.944 33.1733 108.597 33.56C109.251 33.9467 109.757 34.4933 110.117 35.2C110.477 35.9067 110.657 36.74 110.657 37.7C110.657 38.2733 110.404 38.56 109.897 38.56H103.997C104.077 39.48 104.337 40.16 104.777 40.6C105.217 41.0267 105.857 41.24 106.697 41.24C107.124 41.24 107.497 41.1867 107.817 41.08C108.151 40.9733 108.524 40.8267 108.937 40.64C109.337 40.4267 109.631 40.32 109.817 40.32ZM106.357 34.74C105.677 34.74 105.131 34.9533 104.717 35.38C104.317 35.8067 104.077 36.42 103.997 37.22H108.517C108.491 36.4067 108.291 35.7933 107.917 35.38C107.544 34.9533 107.024 34.74 106.357 34.74ZM113.942 43.12C113.582 43.12 113.282 43.02 113.042 42.82C112.816 42.6067 112.702 42.3067 112.702 41.92V34.2C112.702 33.8133 112.816 33.52 113.042 33.32C113.282 33.12 113.582 33.02 113.942 33.02C114.302 33.02 114.602 33.12 114.842 33.32C115.082 33.52 115.202 33.8133 115.202 34.2V41.92C115.202 42.3067 115.082 42.6067 114.842 42.82C114.602 43.02 114.302 43.12 113.942 43.12ZM113.942 31.24C113.489 31.24 113.129 31.12 112.862 30.88C112.596 30.6267 112.462 30.3 112.462 29.9C112.462 29.5 112.596 29.18 112.862 28.94C113.129 28.7 113.489 28.58 113.942 28.58C114.382 28.58 114.736 28.7 115.002 28.94C115.282 29.18 115.422 29.5 115.422 29.9C115.422 30.3 115.289 30.6267 115.022 30.88C114.756 31.12 114.396 31.24 113.942 31.24ZM123.24 33.02C123.587 32.9933 123.86 33.0667 124.06 33.24C124.26 33.4133 124.36 33.6733 124.36 34.02C124.36 34.38 124.274 34.6467 124.1 34.82C123.927 34.9933 123.614 35.1067 123.16 35.16L122.56 35.22C121.774 35.3 121.194 35.5667 120.82 36.02C120.46 36.4733 120.28 37.04 120.28 37.72V41.92C120.28 42.3067 120.16 42.6067 119.92 42.82C119.68 43.02 119.38 43.12 119.02 43.12C118.66 43.12 118.36 43.02 118.12 42.82C117.894 42.6067 117.78 42.3067 117.78 41.92V34.18C117.78 33.8067 117.894 33.52 118.12 33.32C118.36 33.12 118.654 33.02 119 33.02C119.347 33.02 119.627 33.12 119.84 33.32C120.054 33.5067 120.16 33.78 120.16 34.14V34.94C120.414 34.3533 120.787 33.9 121.28 33.58C121.787 33.26 122.347 33.08 122.96 33.04L123.24 33.02ZM134.406 43.16C132.953 43.16 131.78 42.8733 130.886 42.3C130.46 42.0467 130.246 41.6867 130.246 41.22C130.246 40.9533 130.32 40.74 130.466 40.58C130.613 40.4067 130.793 40.32 131.006 40.32C131.233 40.32 131.546 40.4267 131.946 40.64C132.373 40.84 132.76 40.9933 133.106 41.1C133.466 41.2067 133.92 41.26 134.466 41.26C135.026 41.26 135.46 41.1667 135.766 40.98C136.086 40.7933 136.246 40.5333 136.246 40.2C136.246 39.9733 136.18 39.7933 136.046 39.66C135.926 39.5267 135.7 39.4067 135.366 39.3C135.046 39.18 134.553 39.0467 133.886 38.9C132.7 38.66 131.846 38.32 131.326 37.88C130.82 37.44 130.566 36.8333 130.566 36.06C130.566 35.4733 130.74 34.9467 131.086 34.48C131.433 34 131.906 33.6333 132.506 33.38C133.12 33.1133 133.813 32.98 134.586 32.98C135.146 32.98 135.686 33.0533 136.206 33.2C136.726 33.3333 137.193 33.5333 137.606 33.8C138.033 34.0667 138.246 34.42 138.246 34.86C138.246 35.1267 138.173 35.3533 138.026 35.54C137.88 35.7133 137.7 35.8 137.486 35.8C137.34 35.8 137.193 35.7733 137.046 35.72C136.913 35.6533 136.74 35.56 136.526 35.44C136.14 35.24 135.806 35.0933 135.526 35C135.246 34.8933 134.9 34.84 134.486 34.84C133.993 34.84 133.6 34.94 133.306 35.14C133.026 35.34 132.886 35.6133 132.886 35.96C132.886 36.2933 133.033 36.5467 133.326 36.72C133.62 36.8933 134.186 37.0667 135.026 37.24C135.92 37.4267 136.62 37.64 137.126 37.88C137.633 38.12 137.993 38.42 138.206 38.78C138.433 39.14 138.546 39.6 138.546 40.16C138.546 41.0667 138.166 41.7933 137.406 42.34C136.66 42.8867 135.66 43.16 134.406 43.16ZM141.813 43.12C141.453 43.12 141.153 43.02 140.913 42.82C140.687 42.6067 140.573 42.3067 140.573 41.92V29.98C140.573 29.5933 140.687 29.3 140.913 29.1C141.153 28.9 141.453 28.8 141.813 28.8C142.173 28.8 142.473 28.9 142.713 29.1C142.953 29.3 143.073 29.5933 143.073 29.98V41.92C143.073 42.3067 142.953 42.6067 142.713 42.82C142.473 43.02 142.173 43.12 141.813 43.12ZM150.112 43.16C149.112 43.16 148.232 42.9533 147.472 42.54C146.725 42.1267 146.145 41.5333 145.732 40.76C145.318 39.9867 145.112 39.0867 145.112 38.06C145.112 37.0333 145.318 36.14 145.732 35.38C146.145 34.6067 146.725 34.0133 147.472 33.6C148.232 33.1867 149.112 32.98 150.112 32.98C151.112 32.98 151.985 33.1867 152.732 33.6C153.492 34.0133 154.072 34.6067 154.472 35.38C154.885 36.14 155.092 37.0333 155.092 38.06C155.092 39.0867 154.885 39.9867 154.472 40.76C154.072 41.5333 153.492 42.1267 152.732 42.54C151.985 42.9533 151.112 43.16 150.112 43.16ZM150.092 41.22C150.905 41.22 151.525 40.9533 151.952 40.42C152.378 39.8867 152.592 39.1 152.592 38.06C152.592 37.0333 152.378 36.2533 151.952 35.72C151.525 35.1733 150.912 34.9 150.112 34.9C149.312 34.9 148.692 35.1733 148.252 35.72C147.825 36.2533 147.612 37.0333 147.612 38.06C147.612 39.1 147.825 39.8867 148.252 40.42C148.678 40.9533 149.292 41.22 150.092 41.22ZM162.775 32.98C163.615 32.98 164.362 33.1933 165.015 33.62C165.682 34.0467 166.195 34.6533 166.555 35.44C166.929 36.2133 167.115 37.1067 167.115 38.12C167.115 39.1333 166.929 40.02 166.555 40.78C166.195 41.54 165.689 42.1267 165.035 42.54C164.382 42.9533 163.629 43.16 162.775 43.16C162.082 43.16 161.462 43.0133 160.915 42.72C160.369 42.4267 159.949 42.02 159.655 41.5V45.58C159.655 45.9267 159.542 46.2 159.315 46.4C159.089 46.6 158.789 46.7 158.415 46.7C158.042 46.7 157.735 46.5933 157.495 46.38C157.269 46.1667 157.155 45.8867 157.155 45.54V34.2C157.155 33.84 157.262 33.5533 157.475 33.34C157.702 33.1267 158.002 33.02 158.375 33.02C158.749 33.02 159.049 33.1267 159.275 33.34C159.502 33.5533 159.615 33.84 159.615 34.2V34.7C159.909 34.1533 160.329 33.7333 160.875 33.44C161.435 33.1333 162.069 32.98 162.775 32.98ZM162.115 41.22C162.902 41.22 163.515 40.9533 163.955 40.42C164.395 39.8733 164.615 39.1067 164.615 38.12C164.615 37.1067 164.395 36.32 163.955 35.76C163.515 35.2 162.902 34.92 162.115 34.92C161.315 34.92 160.695 35.1933 160.255 35.74C159.829 36.2867 159.615 37.0667 159.615 38.08C159.615 39.08 159.829 39.8533 160.255 40.4C160.695 40.9467 161.315 41.22 162.115 41.22ZM176.907 40.32C177.134 40.32 177.314 40.4067 177.447 40.58C177.594 40.7533 177.667 40.9867 177.667 41.28C177.667 41.6933 177.421 42.04 176.927 42.32C176.474 42.5733 175.961 42.78 175.387 42.94C174.814 43.0867 174.267 43.16 173.747 43.16C172.174 43.16 170.927 42.7067 170.007 41.8C169.087 40.8933 168.627 39.6533 168.627 38.08C168.627 37.08 168.827 36.1933 169.227 35.42C169.627 34.6467 170.187 34.0467 170.907 33.62C171.641 33.1933 172.467 32.98 173.387 32.98C174.267 32.98 175.034 33.1733 175.687 33.56C176.341 33.9467 176.847 34.4933 177.207 35.2C177.567 35.9067 177.747 36.74 177.747 37.7C177.747 38.2733 177.494 38.56 176.987 38.56H171.087C171.167 39.48 171.427 40.16 171.867 40.6C172.307 41.0267 172.947 41.24 173.787 41.24C174.214 41.24 174.587 41.1867 174.907 41.08C175.241 40.9733 175.614 40.8267 176.027 40.64C176.427 40.4267 176.721 40.32 176.907 40.32ZM173.447 34.74C172.767 34.74 172.221 34.9533 171.807 35.38C171.407 35.8067 171.167 36.42 171.087 37.22H175.607C175.581 36.4067 175.381 35.7933 175.007 35.38C174.634 34.9533 174.114 34.74 173.447 34.74ZM189.462 32.98C190.822 32.98 191.829 33.32 192.482 34C193.149 34.6667 193.482 35.6867 193.482 37.06V41.94C193.482 42.3 193.375 42.5867 193.162 42.8C192.949 43 192.655 43.1 192.282 43.1C191.935 43.1 191.649 42.9933 191.422 42.78C191.209 42.5667 191.102 42.2867 191.102 41.94V41.5C190.875 42.02 190.515 42.4267 190.022 42.72C189.542 43.0133 188.982 43.16 188.342 43.16C187.689 43.16 187.095 43.0267 186.562 42.76C186.029 42.4933 185.609 42.1267 185.302 41.66C184.995 41.1933 184.842 40.6733 184.842 40.1C184.842 39.38 185.022 38.8133 185.382 38.4C185.755 37.9867 186.355 37.6867 187.182 37.5C188.009 37.3133 189.149 37.22 190.602 37.22H191.102V36.76C191.102 36.1067 190.962 35.6333 190.682 35.34C190.402 35.0333 189.949 34.88 189.322 34.88C188.935 34.88 188.542 34.94 188.142 35.06C187.742 35.1667 187.269 35.3267 186.722 35.54C186.375 35.7133 186.122 35.8 185.962 35.8C185.722 35.8 185.522 35.7133 185.362 35.54C185.215 35.3667 185.142 35.14 185.142 34.86C185.142 34.6333 185.195 34.44 185.302 34.28C185.422 34.1067 185.615 33.9467 185.882 33.8C186.349 33.5467 186.902 33.3467 187.542 33.2C188.195 33.0533 188.835 32.98 189.462 32.98ZM188.842 41.36C189.509 41.36 190.049 41.14 190.462 40.7C190.889 40.2467 191.102 39.6667 191.102 38.96V38.54H190.742C189.849 38.54 189.155 38.58 188.662 38.66C188.169 38.74 187.815 38.88 187.602 39.08C187.389 39.28 187.282 39.5533 187.282 39.9C187.282 40.3267 187.429 40.68 187.722 40.96C188.029 41.2267 188.402 41.36 188.842 41.36ZM201.703 32.98C202.876 32.98 203.749 33.3133 204.323 33.98C204.896 34.6467 205.183 35.6533 205.183 37V41.92C205.183 42.2933 205.069 42.5867 204.843 42.8C204.629 43.0133 204.329 43.12 203.943 43.12C203.556 43.12 203.249 43.0133 203.023 42.8C202.796 42.5867 202.683 42.2933 202.683 41.92V37.14C202.683 36.38 202.536 35.8267 202.243 35.48C201.963 35.1333 201.516 34.96 200.903 34.96C200.183 34.96 199.603 35.1867 199.163 35.64C198.736 36.0933 198.523 36.7 198.523 37.46V41.92C198.523 42.2933 198.409 42.5867 198.183 42.8C197.956 43.0133 197.649 43.12 197.263 43.12C196.876 43.12 196.569 43.0133 196.343 42.8C196.129 42.5867 196.023 42.2933 196.023 41.92V34.18C196.023 33.8333 196.136 33.5533 196.363 33.34C196.589 33.1267 196.896 33.02 197.283 33.02C197.629 33.02 197.909 33.1267 198.123 33.34C198.349 33.54 198.463 33.8067 198.463 34.14V34.68C198.796 34.1333 199.243 33.7133 199.803 33.42C200.363 33.1267 200.996 32.98 201.703 32.98ZM215.882 28.8C216.255 28.8 216.562 28.9067 216.802 29.12C217.042 29.3333 217.162 29.6133 217.162 29.96V41.92C217.162 42.28 217.049 42.5667 216.822 42.78C216.595 42.9933 216.295 43.1 215.922 43.1C215.549 43.1 215.249 42.9933 215.022 42.78C214.795 42.5667 214.682 42.28 214.682 41.92V41.42C214.389 41.9667 213.962 42.3933 213.402 42.7C212.855 43.0067 212.229 43.16 211.522 43.16C210.682 43.16 209.929 42.9467 209.262 42.52C208.609 42.0933 208.095 41.4933 207.722 40.72C207.362 39.9333 207.182 39.0333 207.182 38.02C207.182 37.0067 207.362 36.12 207.722 35.36C208.095 34.6 208.609 34.0133 209.262 33.6C209.915 33.1867 210.669 32.98 211.522 32.98C212.229 32.98 212.855 33.1267 213.402 33.42C213.949 33.7133 214.369 34.1267 214.662 34.66V29.92C214.662 29.5867 214.769 29.32 214.982 29.12C215.209 28.9067 215.509 28.8 215.882 28.8ZM212.182 41.22C212.982 41.22 213.595 40.9467 214.022 40.4C214.462 39.8533 214.682 39.0733 214.682 38.06C214.682 37.0467 214.462 36.2733 214.022 35.74C213.595 35.1933 212.989 34.92 212.202 34.92C211.402 34.92 210.782 35.1867 210.342 35.72C209.902 36.2533 209.682 37.02 209.682 38.02C209.682 39.0333 209.902 39.82 210.342 40.38C210.782 40.94 211.395 41.22 212.182 41.22ZM226.403 43.12C226.043 43.12 225.743 43.02 225.503 42.82C225.277 42.6067 225.163 42.3067 225.163 41.92V34.2C225.163 33.8133 225.277 33.52 225.503 33.32C225.743 33.12 226.043 33.02 226.403 33.02C226.763 33.02 227.063 33.12 227.303 33.32C227.543 33.52 227.663 33.8133 227.663 34.2V41.92C227.663 42.3067 227.543 42.6067 227.303 42.82C227.063 43.02 226.763 43.12 226.403 43.12ZM226.403 31.24C225.95 31.24 225.59 31.12 225.323 30.88C225.057 30.6267 224.923 30.3 224.923 29.9C224.923 29.5 225.057 29.18 225.323 28.94C225.59 28.7 225.95 28.58 226.403 28.58C226.843 28.58 227.197 28.7 227.463 28.94C227.743 29.18 227.883 29.5 227.883 29.9C227.883 30.3 227.75 30.6267 227.483 30.88C227.217 31.12 226.857 31.24 226.403 31.24ZM235.921 32.98C237.095 32.98 237.968 33.3133 238.541 33.98C239.115 34.6467 239.401 35.6533 239.401 37V41.92C239.401 42.2933 239.288 42.5867 239.061 42.8C238.848 43.0133 238.548 43.12 238.161 43.12C237.775 43.12 237.468 43.0133 237.241 42.8C237.015 42.5867 236.901 42.2933 236.901 41.92V37.14C236.901 36.38 236.755 35.8267 236.461 35.48C236.181 35.1333 235.735 34.96 235.121 34.96C234.401 34.96 233.821 35.1867 233.381 35.64C232.955 36.0933 232.741 36.7 232.741 37.46V41.92C232.741 42.2933 232.628 42.5867 232.401 42.8C232.175 43.0133 231.868 43.12 231.481 43.12C231.095 43.12 230.788 43.0133 230.561 42.8C230.348 42.5867 230.241 42.2933 230.241 41.92V34.18C230.241 33.8333 230.355 33.5533 230.581 33.34C230.808 33.1267 231.115 33.02 231.501 33.02C231.848 33.02 232.128 33.1267 232.341 33.34C232.568 33.54 232.681 33.8067 232.681 34.14V34.68C233.015 34.1333 233.461 33.7133 234.021 33.42C234.581 33.1267 235.215 32.98 235.921 32.98ZM247.021 41.26C247.687 41.3 248.021 41.6 248.021 42.16C248.021 42.48 247.887 42.7267 247.621 42.9C247.367 43.06 247.001 43.1267 246.521 43.1L245.981 43.06C243.741 42.9 242.621 41.7 242.621 39.46V35.1H241.621C241.261 35.1 240.981 35.02 240.781 34.86C240.594 34.7 240.501 34.4667 240.501 34.16C240.501 33.8533 240.594 33.62 240.781 33.46C240.981 33.3 241.261 33.22 241.621 33.22H242.621V31.38C242.621 31.02 242.734 30.7333 242.961 30.52C243.187 30.3067 243.494 30.2 243.881 30.2C244.254 30.2 244.554 30.3067 244.781 30.52C245.007 30.7333 245.121 31.02 245.121 31.38V33.22H246.821C247.181 33.22 247.454 33.3 247.641 33.46C247.841 33.62 247.941 33.8533 247.941 34.16C247.941 34.4667 247.841 34.7 247.641 34.86C247.454 35.02 247.181 35.1 246.821 35.1H245.121V39.64C245.121 40.6267 245.574 41.1533 246.481 41.22L247.021 41.26ZM257.063 40.32C257.29 40.32 257.47 40.4067 257.603 40.58C257.75 40.7533 257.823 40.9867 257.823 41.28C257.823 41.6933 257.577 42.04 257.083 42.32C256.63 42.5733 256.117 42.78 255.543 42.94C254.97 43.0867 254.423 43.16 253.903 43.16C252.33 43.16 251.083 42.7067 250.163 41.8C249.243 40.8933 248.783 39.6533 248.783 38.08C248.783 37.08 248.983 36.1933 249.383 35.42C249.783 34.6467 250.343 34.0467 251.063 33.62C251.797 33.1933 252.623 32.98 253.543 32.98C254.423 32.98 255.19 33.1733 255.843 33.56C256.497 33.9467 257.003 34.4933 257.363 35.2C257.723 35.9067 257.903 36.74 257.903 37.7C257.903 38.2733 257.65 38.56 257.143 38.56H251.243C251.323 39.48 251.583 40.16 252.023 40.6C252.463 41.0267 253.103 41.24 253.943 41.24C254.37 41.24 254.743 41.1867 255.063 41.08C255.397 40.9733 255.77 40.8267 256.183 40.64C256.583 40.4267 256.877 40.32 257.063 40.32ZM253.603 34.74C252.923 34.74 252.377 34.9533 251.963 35.38C251.563 35.8067 251.323 36.42 251.243 37.22H255.763C255.737 36.4067 255.537 35.7933 255.163 35.38C254.79 34.9533 254.27 34.74 253.603 34.74ZM265.408 33.02C265.755 32.9933 266.028 33.0667 266.228 33.24C266.428 33.4133 266.528 33.6733 266.528 34.02C266.528 34.38 266.442 34.6467 266.268 34.82C266.095 34.9933 265.782 35.1067 265.328 35.16L264.728 35.22C263.942 35.3 263.362 35.5667 262.988 36.02C262.628 36.4733 262.448 37.04 262.448 37.72V41.92C262.448 42.3067 262.328 42.6067 262.088 42.82C261.848 43.02 261.548 43.12 261.188 43.12C260.828 43.12 260.528 43.02 260.288 42.82C260.062 42.6067 259.948 42.3067 259.948 41.92V34.18C259.948 33.8067 260.062 33.52 260.288 33.32C260.528 33.12 260.822 33.02 261.168 33.02C261.515 33.02 261.795 33.12 262.008 33.32C262.222 33.5067 262.328 33.78 262.328 34.14V34.94C262.582 34.3533 262.955 33.9 263.448 33.58C263.955 33.26 264.515 33.08 265.128 33.04L265.408 33.02ZM271.749 43.16C270.776 43.16 269.916 42.9533 269.169 42.54C268.436 42.1267 267.869 41.54 267.469 40.78C267.069 40.02 266.869 39.1333 266.869 38.12C266.869 37.1067 267.076 36.2133 267.489 35.44C267.916 34.6533 268.509 34.0467 269.269 33.62C270.029 33.1933 270.903 32.98 271.889 32.98C272.409 32.98 272.929 33.0533 273.449 33.2C273.983 33.3467 274.449 33.5467 274.849 33.8C275.276 34.08 275.489 34.4333 275.489 34.86C275.489 35.1533 275.416 35.3933 275.269 35.58C275.136 35.7533 274.956 35.84 274.729 35.84C274.583 35.84 274.429 35.8067 274.269 35.74C274.109 35.6733 273.949 35.5933 273.789 35.5C273.496 35.3267 273.216 35.1933 272.949 35.1C272.683 34.9933 272.376 34.94 272.029 34.94C271.203 34.94 270.563 35.2133 270.109 35.76C269.669 36.2933 269.449 37.0667 269.449 38.08C269.449 39.08 269.669 39.8533 270.109 40.4C270.563 40.9333 271.203 41.2 272.029 41.2C272.363 41.2 272.656 41.1533 272.909 41.06C273.176 40.9533 273.469 40.8133 273.789 40.64C273.989 40.52 274.163 40.4333 274.309 40.38C274.456 40.3133 274.603 40.28 274.749 40.28C274.963 40.28 275.143 40.3733 275.289 40.56C275.436 40.7467 275.509 40.98 275.509 41.26C275.509 41.4867 275.456 41.6867 275.349 41.86C275.256 42.02 275.096 42.1667 274.869 42.3C274.456 42.5667 273.976 42.78 273.429 42.94C272.883 43.0867 272.323 43.16 271.749 43.16ZM284.915 40.32C285.142 40.32 285.322 40.4067 285.455 40.58C285.602 40.7533 285.675 40.9867 285.675 41.28C285.675 41.6933 285.428 42.04 284.935 42.32C284.482 42.5733 283.968 42.78 283.395 42.94C282.822 43.0867 282.275 43.16 281.755 43.16C280.182 43.16 278.935 42.7067 278.015 41.8C277.095 40.8933 276.635 39.6533 276.635 38.08C276.635 37.08 276.835 36.1933 277.235 35.42C277.635 34.6467 278.195 34.0467 278.915 33.62C279.648 33.1933 280.475 32.98 281.395 32.98C282.275 32.98 283.042 33.1733 283.695 33.56C284.348 33.9467 284.855 34.4933 285.215 35.2C285.575 35.9067 285.755 36.74 285.755 37.7C285.755 38.2733 285.502 38.56 284.995 38.56H279.095C279.175 39.48 279.435 40.16 279.875 40.6C280.315 41.0267 280.955 41.24 281.795 41.24C282.222 41.24 282.595 41.1867 282.915 41.08C283.248 40.9733 283.622 40.8267 284.035 40.64C284.435 40.4267 284.728 40.32 284.915 40.32ZM281.455 34.74C280.775 34.74 280.228 34.9533 279.815 35.38C279.415 35.8067 279.175 36.42 279.095 37.22H283.615C283.588 36.4067 283.388 35.7933 283.015 35.38C282.642 34.9533 282.122 34.74 281.455 34.74ZM293.42 32.98C294.26 32.98 295.007 33.1933 295.66 33.62C296.327 34.0467 296.84 34.6533 297.2 35.44C297.573 36.2133 297.76 37.1067 297.76 38.12C297.76 39.1333 297.573 40.02 297.2 40.78C296.84 41.54 296.333 42.1267 295.68 42.54C295.027 42.9533 294.273 43.16 293.42 43.16C292.727 43.16 292.107 43.0133 291.56 42.72C291.013 42.4267 290.593 42.02 290.3 41.5V45.58C290.3 45.9267 290.187 46.2 289.96 46.4C289.733 46.6 289.433 46.7 289.06 46.7C288.687 46.7 288.38 46.5933 288.14 46.38C287.913 46.1667 287.8 45.8867 287.8 45.54V34.2C287.8 33.84 287.907 33.5533 288.12 33.34C288.347 33.1267 288.647 33.02 289.02 33.02C289.393 33.02 289.693 33.1267 289.92 33.34C290.147 33.5533 290.26 33.84 290.26 34.2V34.7C290.553 34.1533 290.973 33.7333 291.52 33.44C292.08 33.1333 292.713 32.98 293.42 32.98ZM292.76 41.22C293.547 41.22 294.16 40.9533 294.6 40.42C295.04 39.8733 295.26 39.1067 295.26 38.12C295.26 37.1067 295.04 36.32 294.6 35.76C294.16 35.2 293.547 34.92 292.76 34.92C291.96 34.92 291.34 35.1933 290.9 35.74C290.473 36.2867 290.26 37.0667 290.26 38.08C290.26 39.08 290.473 39.8533 290.9 40.4C291.34 40.9467 291.96 41.22 292.76 41.22ZM304.833 41.26C305.5 41.3 305.833 41.6 305.833 42.16C305.833 42.48 305.7 42.7267 305.433 42.9C305.18 43.06 304.813 43.1267 304.333 43.1L303.793 43.06C301.553 42.9 300.433 41.7 300.433 39.46V35.1H299.433C299.073 35.1 298.793 35.02 298.593 34.86C298.406 34.7 298.313 34.4667 298.313 34.16C298.313 33.8533 298.406 33.62 298.593 33.46C298.793 33.3 299.073 33.22 299.433 33.22H300.433V31.38C300.433 31.02 300.546 30.7333 300.773 30.52C301 30.3067 301.306 30.2 301.693 30.2C302.066 30.2 302.366 30.3067 302.593 30.52C302.82 30.7333 302.933 31.02 302.933 31.38V33.22H304.633C304.993 33.22 305.266 33.3 305.453 33.46C305.653 33.62 305.753 33.8533 305.753 34.16C305.753 34.4667 305.653 34.7 305.453 34.86C305.266 35.02 304.993 35.1 304.633 35.1H302.933V39.64C302.933 40.6267 303.386 41.1533 304.293 41.22L304.833 41.26ZM316.906 43.16C315.932 43.16 315.072 42.9533 314.326 42.54C313.592 42.1267 313.026 41.54 312.626 40.78C312.226 40.02 312.026 39.1333 312.026 38.12C312.026 37.1067 312.232 36.2133 312.646 35.44C313.072 34.6533 313.666 34.0467 314.426 33.62C315.186 33.1933 316.059 32.98 317.046 32.98C317.566 32.98 318.086 33.0533 318.606 33.2C319.139 33.3467 319.606 33.5467 320.006 33.8C320.432 34.08 320.646 34.4333 320.646 34.86C320.646 35.1533 320.572 35.3933 320.426 35.58C320.292 35.7533 320.112 35.84 319.886 35.84C319.739 35.84 319.586 35.8067 319.426 35.74C319.266 35.6733 319.106 35.5933 318.946 35.5C318.652 35.3267 318.372 35.1933 318.106 35.1C317.839 34.9933 317.532 34.94 317.186 34.94C316.359 34.94 315.719 35.2133 315.266 35.76C314.826 36.2933 314.606 37.0667 314.606 38.08C314.606 39.08 314.826 39.8533 315.266 40.4C315.719 40.9333 316.359 41.2 317.186 41.2C317.519 41.2 317.812 41.1533 318.066 41.06C318.332 40.9533 318.626 40.8133 318.946 40.64C319.146 40.52 319.319 40.4333 319.466 40.38C319.612 40.3133 319.759 40.28 319.906 40.28C320.119 40.28 320.299 40.3733 320.446 40.56C320.592 40.7467 320.666 40.98 320.666 41.26C320.666 41.4867 320.612 41.6867 320.506 41.86C320.412 42.02 320.252 42.1667 320.026 42.3C319.612 42.5667 319.132 42.78 318.586 42.94C318.039 43.0867 317.479 43.16 316.906 43.16ZM328.051 32.98C330.345 32.98 331.491 34.32 331.491 37V41.92C331.491 42.2933 331.378 42.5867 331.151 42.8C330.938 43.0133 330.638 43.12 330.251 43.12C329.865 43.12 329.558 43.0133 329.331 42.8C329.105 42.5867 328.991 42.2933 328.991 41.92V37C328.991 36.2933 328.845 35.78 328.551 35.46C328.271 35.1267 327.825 34.96 327.211 34.96C326.491 34.96 325.911 35.1867 325.471 35.64C325.045 36.0933 324.831 36.7 324.831 37.46V41.92C324.831 42.2933 324.718 42.5867 324.491 42.8C324.265 43.0133 323.958 43.12 323.571 43.12C323.185 43.12 322.878 43.0133 322.651 42.8C322.438 42.5867 322.331 42.2933 322.331 41.92V29.96C322.331 29.6133 322.445 29.3333 322.671 29.12C322.911 28.9067 323.218 28.8 323.591 28.8C323.965 28.8 324.265 28.9 324.491 29.1C324.718 29.3 324.831 29.5733 324.831 29.92V34.58C325.165 34.06 325.605 33.6667 326.151 33.4C326.711 33.12 327.345 32.98 328.051 32.98ZM338.27 32.98C339.63 32.98 340.637 33.32 341.29 34C341.957 34.6667 342.29 35.6867 342.29 37.06V41.94C342.29 42.3 342.184 42.5867 341.97 42.8C341.757 43 341.464 43.1 341.09 43.1C340.744 43.1 340.457 42.9933 340.23 42.78C340.017 42.5667 339.91 42.2867 339.91 41.94V41.5C339.684 42.02 339.324 42.4267 338.83 42.72C338.35 43.0133 337.79 43.16 337.15 43.16C336.497 43.16 335.904 43.0267 335.37 42.76C334.837 42.4933 334.417 42.1267 334.11 41.66C333.804 41.1933 333.65 40.6733 333.65 40.1C333.65 39.38 333.83 38.8133 334.19 38.4C334.564 37.9867 335.164 37.6867 335.99 37.5C336.817 37.3133 337.957 37.22 339.41 37.22H339.91V36.76C339.91 36.1067 339.77 35.6333 339.49 35.34C339.21 35.0333 338.757 34.88 338.13 34.88C337.744 34.88 337.35 34.94 336.95 35.06C336.55 35.1667 336.077 35.3267 335.53 35.54C335.184 35.7133 334.93 35.8 334.77 35.8C334.53 35.8 334.33 35.7133 334.17 35.54C334.024 35.3667 333.95 35.14 333.95 34.86C333.95 34.6333 334.004 34.44 334.11 34.28C334.23 34.1067 334.424 33.9467 334.69 33.8C335.157 33.5467 335.71 33.3467 336.35 33.2C337.004 33.0533 337.644 32.98 338.27 32.98ZM337.65 41.36C338.317 41.36 338.857 41.14 339.27 40.7C339.697 40.2467 339.91 39.6667 339.91 38.96V38.54H339.55C338.657 38.54 337.964 38.58 337.47 38.66C336.977 38.74 336.624 38.88 336.41 39.08C336.197 39.28 336.09 39.5533 336.09 39.9C336.09 40.3267 336.237 40.68 336.53 40.96C336.837 41.2267 337.21 41.36 337.65 41.36ZM350.291 33.02C350.638 32.9933 350.911 33.0667 351.111 33.24C351.311 33.4133 351.411 33.6733 351.411 34.02C351.411 34.38 351.325 34.6467 351.151 34.82C350.978 34.9933 350.665 35.1067 350.211 35.16L349.611 35.22C348.825 35.3 348.245 35.5667 347.871 36.02C347.511 36.4733 347.331 37.04 347.331 37.72V41.92C347.331 42.3067 347.211 42.6067 346.971 42.82C346.731 43.02 346.431 43.12 346.071 43.12C345.711 43.12 345.411 43.02 345.171 42.82C344.945 42.6067 344.831 42.3067 344.831 41.92V34.18C344.831 33.8067 344.945 33.52 345.171 33.32C345.411 33.12 345.705 33.02 346.051 33.02C346.398 33.02 346.678 33.12 346.891 33.32C347.105 33.5067 347.211 33.78 347.211 34.14V34.94C347.465 34.3533 347.838 33.9 348.331 33.58C348.838 33.26 349.398 33.08 350.011 33.04L350.291 33.02ZM356.688 32.98C358.048 32.98 359.055 33.32 359.708 34C360.375 34.6667 360.708 35.6867 360.708 37.06V41.94C360.708 42.3 360.602 42.5867 360.388 42.8C360.175 43 359.882 43.1 359.508 43.1C359.162 43.1 358.875 42.9933 358.648 42.78C358.435 42.5667 358.328 42.2867 358.328 41.94V41.5C358.102 42.02 357.742 42.4267 357.248 42.72C356.768 43.0133 356.208 43.16 355.568 43.16C354.915 43.16 354.322 43.0267 353.788 42.76C353.255 42.4933 352.835 42.1267 352.528 41.66C352.222 41.1933 352.068 40.6733 352.068 40.1C352.068 39.38 352.248 38.8133 352.608 38.4C352.982 37.9867 353.582 37.6867 354.408 37.5C355.235 37.3133 356.375 37.22 357.828 37.22H358.328V36.76C358.328 36.1067 358.188 35.6333 357.908 35.34C357.628 35.0333 357.175 34.88 356.548 34.88C356.162 34.88 355.768 34.94 355.368 35.06C354.968 35.1667 354.495 35.3267 353.948 35.54C353.602 35.7133 353.348 35.8 353.188 35.8C352.948 35.8 352.748 35.7133 352.588 35.54C352.442 35.3667 352.368 35.14 352.368 34.86C352.368 34.6333 352.422 34.44 352.528 34.28C352.648 34.1067 352.842 33.9467 353.108 33.8C353.575 33.5467 354.128 33.3467 354.768 33.2C355.422 33.0533 356.062 32.98 356.688 32.98ZM356.068 41.36C356.735 41.36 357.275 41.14 357.688 40.7C358.115 40.2467 358.328 39.6667 358.328 38.96V38.54H357.968C357.075 38.54 356.382 38.58 355.888 38.66C355.395 38.74 355.042 38.88 354.828 39.08C354.615 39.28 354.508 39.5533 354.508 39.9C354.508 40.3267 354.655 40.68 354.948 40.96C355.255 41.2267 355.628 41.36 356.068 41.36ZM367.589 43.16C366.616 43.16 365.756 42.9533 365.009 42.54C364.276 42.1267 363.709 41.54 363.309 40.78C362.909 40.02 362.709 39.1333 362.709 38.12C362.709 37.1067 362.916 36.2133 363.329 35.44C363.756 34.6533 364.349 34.0467 365.109 33.62C365.869 33.1933 366.743 32.98 367.729 32.98C368.249 32.98 368.769 33.0533 369.289 33.2C369.823 33.3467 370.289 33.5467 370.689 33.8C371.116 34.08 371.329 34.4333 371.329 34.86C371.329 35.1533 371.256 35.3933 371.109 35.58C370.976 35.7533 370.796 35.84 370.569 35.84C370.423 35.84 370.269 35.8067 370.109 35.74C369.949 35.6733 369.789 35.5933 369.629 35.5C369.336 35.3267 369.056 35.1933 368.789 35.1C368.523 34.9933 368.216 34.94 367.869 34.94C367.043 34.94 366.403 35.2133 365.949 35.76C365.509 36.2933 365.289 37.0667 365.289 38.08C365.289 39.08 365.509 39.8533 365.949 40.4C366.403 40.9333 367.043 41.2 367.869 41.2C368.203 41.2 368.496 41.1533 368.749 41.06C369.016 40.9533 369.309 40.8133 369.629 40.64C369.829 40.52 370.003 40.4333 370.149 40.38C370.296 40.3133 370.443 40.28 370.589 40.28C370.803 40.28 370.983 40.3733 371.129 40.56C371.276 40.7467 371.349 40.98 371.349 41.26C371.349 41.4867 371.296 41.6867 371.189 41.86C371.096 42.02 370.936 42.1667 370.709 42.3C370.296 42.5667 369.816 42.78 369.269 42.94C368.723 43.0867 368.163 43.16 367.589 43.16ZM378.153 41.26C378.82 41.3 379.153 41.6 379.153 42.16C379.153 42.48 379.02 42.7267 378.753 42.9C378.5 43.06 378.133 43.1267 377.653 43.1L377.113 43.06C374.873 42.9 373.753 41.7 373.753 39.46V35.1H372.753C372.393 35.1 372.113 35.02 371.913 34.86C371.727 34.7 371.633 34.4667 371.633 34.16C371.633 33.8533 371.727 33.62 371.913 33.46C372.113 33.3 372.393 33.22 372.753 33.22H373.753V31.38C373.753 31.02 373.867 30.7333 374.093 30.52C374.32 30.3067 374.627 30.2 375.013 30.2C375.387 30.2 375.687 30.3067 375.913 30.52C376.14 30.7333 376.253 31.02 376.253 31.38V33.22H377.953C378.313 33.22 378.587 33.3 378.773 33.46C378.973 33.62 379.073 33.8533 379.073 34.16C379.073 34.4667 378.973 34.7 378.773 34.86C378.587 35.02 378.313 35.1 377.953 35.1H376.253V39.64C376.253 40.6267 376.707 41.1533 377.613 41.22L378.153 41.26ZM388.196 40.32C388.423 40.32 388.603 40.4067 388.736 40.58C388.883 40.7533 388.956 40.9867 388.956 41.28C388.956 41.6933 388.71 42.04 388.216 42.32C387.763 42.5733 387.25 42.78 386.676 42.94C386.103 43.0867 385.556 43.16 385.036 43.16C383.463 43.16 382.216 42.7067 381.296 41.8C380.376 40.8933 379.916 39.6533 379.916 38.08C379.916 37.08 380.116 36.1933 380.516 35.42C380.916 34.6467 381.476 34.0467 382.196 33.62C382.93 33.1933 383.756 32.98 384.676 32.98C385.556 32.98 386.323 33.1733 386.976 33.56C387.63 33.9467 388.136 34.4933 388.496 35.2C388.856 35.9067 389.036 36.74 389.036 37.7C389.036 38.2733 388.783 38.56 388.276 38.56H382.376C382.456 39.48 382.716 40.16 383.156 40.6C383.596 41.0267 384.236 41.24 385.076 41.24C385.503 41.24 385.876 41.1867 386.196 41.08C386.53 40.9733 386.903 40.8267 387.316 40.64C387.716 40.4267 388.01 40.32 388.196 40.32ZM384.736 34.74C384.056 34.74 383.51 34.9533 383.096 35.38C382.696 35.8067 382.456 36.42 382.376 37.22H386.896C386.87 36.4067 386.67 35.7933 386.296 35.38C385.923 34.9533 385.403 34.74 384.736 34.74ZM396.541 33.02C396.888 32.9933 397.161 33.0667 397.361 33.24C397.561 33.4133 397.661 33.6733 397.661 34.02C397.661 34.38 397.575 34.6467 397.401 34.82C397.228 34.9933 396.915 35.1067 396.461 35.16L395.861 35.22C395.075 35.3 394.495 35.5667 394.121 36.02C393.761 36.4733 393.581 37.04 393.581 37.72V41.92C393.581 42.3067 393.461 42.6067 393.221 42.82C392.981 43.02 392.681 43.12 392.321 43.12C391.961 43.12 391.661 43.02 391.421 42.82C391.195 42.6067 391.081 42.3067 391.081 41.92V34.18C391.081 33.8067 391.195 33.52 391.421 33.32C391.661 33.12 391.955 33.02 392.301 33.02C392.648 33.02 392.928 33.12 393.141 33.32C393.355 33.5067 393.461 33.78 393.461 34.14V34.94C393.715 34.3533 394.088 33.9 394.581 33.58C395.088 33.26 395.648 33.08 396.261 33.04L396.541 33.02ZM399.978 43.12C399.618 43.12 399.318 43.02 399.078 42.82C398.851 42.6067 398.738 42.3067 398.738 41.92V34.2C398.738 33.8133 398.851 33.52 399.078 33.32C399.318 33.12 399.618 33.02 399.978 33.02C400.338 33.02 400.638 33.12 400.878 33.32C401.118 33.52 401.238 33.8133 401.238 34.2V41.92C401.238 42.3067 401.118 42.6067 400.878 42.82C400.638 43.02 400.338 43.12 399.978 43.12ZM399.978 31.24C399.524 31.24 399.164 31.12 398.898 30.88C398.631 30.6267 398.498 30.3 398.498 29.9C398.498 29.5 398.631 29.18 398.898 28.94C399.164 28.7 399.524 28.58 399.978 28.58C400.418 28.58 400.771 28.7 401.038 28.94C401.318 29.18 401.458 29.5 401.458 29.9C401.458 30.3 401.324 30.6267 401.058 30.88C400.791 31.12 400.431 31.24 399.978 31.24ZM407.356 43.16C405.902 43.16 404.729 42.8733 403.836 42.3C403.409 42.0467 403.196 41.6867 403.196 41.22C403.196 40.9533 403.269 40.74 403.416 40.58C403.562 40.4067 403.742 40.32 403.956 40.32C404.182 40.32 404.496 40.4267 404.896 40.64C405.322 40.84 405.709 40.9933 406.056 41.1C406.416 41.2067 406.869 41.26 407.416 41.26C407.976 41.26 408.409 41.1667 408.716 40.98C409.036 40.7933 409.196 40.5333 409.196 40.2C409.196 39.9733 409.129 39.7933 408.996 39.66C408.876 39.5267 408.649 39.4067 408.316 39.3C407.996 39.18 407.502 39.0467 406.836 38.9C405.649 38.66 404.796 38.32 404.276 37.88C403.769 37.44 403.516 36.8333 403.516 36.06C403.516 35.4733 403.689 34.9467 404.036 34.48C404.382 34 404.856 33.6333 405.456 33.38C406.069 33.1133 406.762 32.98 407.536 32.98C408.096 32.98 408.636 33.0533 409.156 33.2C409.676 33.3333 410.142 33.5333 410.556 33.8C410.982 34.0667 411.196 34.42 411.196 34.86C411.196 35.1267 411.122 35.3533 410.976 35.54C410.829 35.7133 410.649 35.8 410.436 35.8C410.289 35.8 410.142 35.7733 409.996 35.72C409.862 35.6533 409.689 35.56 409.476 35.44C409.089 35.24 408.756 35.0933 408.476 35C408.196 34.8933 407.849 34.84 407.436 34.84C406.942 34.84 406.549 34.94 406.256 35.14C405.976 35.34 405.836 35.6133 405.836 35.96C405.836 36.2933 405.982 36.5467 406.276 36.72C406.569 36.8933 407.136 37.0667 407.976 37.24C408.869 37.4267 409.569 37.64 410.076 37.88C410.582 38.12 410.942 38.42 411.156 38.78C411.382 39.14 411.496 39.6 411.496 40.16C411.496 41.0667 411.116 41.7933 410.356 42.34C409.609 42.8867 408.609 43.16 407.356 43.16ZM418.505 41.26C419.172 41.3 419.505 41.6 419.505 42.16C419.505 42.48 419.372 42.7267 419.105 42.9C418.852 43.06 418.485 43.1267 418.005 43.1L417.465 43.06C415.225 42.9 414.105 41.7 414.105 39.46V35.1H413.105C412.745 35.1 412.465 35.02 412.265 34.86C412.078 34.7 411.985 34.4667 411.985 34.16C411.985 33.8533 412.078 33.62 412.265 33.46C412.465 33.3 412.745 33.22 413.105 33.22H414.105V31.38C414.105 31.02 414.218 30.7333 414.445 30.52C414.672 30.3067 414.978 30.2 415.365 30.2C415.738 30.2 416.038 30.3067 416.265 30.52C416.492 30.7333 416.605 31.02 416.605 31.38V33.22H418.305C418.665 33.22 418.938 33.3 419.125 33.46C419.325 33.62 419.425 33.8533 419.425 34.16C419.425 34.4667 419.325 34.7 419.125 34.86C418.938 35.02 418.665 35.1 418.305 35.1H416.605V39.64C416.605 40.6267 417.058 41.1533 417.965 41.22L418.505 41.26ZM422.048 43.12C421.688 43.12 421.388 43.02 421.148 42.82C420.921 42.6067 420.808 42.3067 420.808 41.92V34.2C420.808 33.8133 420.921 33.52 421.148 33.32C421.388 33.12 421.688 33.02 422.048 33.02C422.408 33.02 422.708 33.12 422.948 33.32C423.188 33.52 423.308 33.8133 423.308 34.2V41.92C423.308 42.3067 423.188 42.6067 422.948 42.82C422.708 43.02 422.408 43.12 422.048 43.12ZM422.048 31.24C421.594 31.24 421.234 31.12 420.968 30.88C420.701 30.6267 420.568 30.3 420.568 29.9C420.568 29.5 420.701 29.18 420.968 28.94C421.234 28.7 421.594 28.58 422.048 28.58C422.488 28.58 422.841 28.7 423.108 28.94C423.388 29.18 423.528 29.5 423.528 29.9C423.528 30.3 423.394 30.6267 423.128 30.88C422.861 31.12 422.501 31.24 422.048 31.24ZM430.226 43.16C429.253 43.16 428.393 42.9533 427.646 42.54C426.913 42.1267 426.346 41.54 425.946 40.78C425.546 40.02 425.346 39.1333 425.346 38.12C425.346 37.1067 425.553 36.2133 425.966 35.44C426.393 34.6533 426.986 34.0467 427.746 33.62C428.506 33.1933 429.379 32.98 430.366 32.98C430.886 32.98 431.406 33.0533 431.926 33.2C432.459 33.3467 432.926 33.5467 433.326 33.8C433.753 34.08 433.966 34.4333 433.966 34.86C433.966 35.1533 433.893 35.3933 433.746 35.58C433.613 35.7533 433.433 35.84 433.206 35.84C433.059 35.84 432.906 35.8067 432.746 35.74C432.586 35.6733 432.426 35.5933 432.266 35.5C431.973 35.3267 431.693 35.1933 431.426 35.1C431.159 34.9933 430.853 34.94 430.506 34.94C429.679 34.94 429.039 35.2133 428.586 35.76C428.146 36.2933 427.926 37.0667 427.926 38.08C427.926 39.08 428.146 39.8533 428.586 40.4C429.039 40.9333 429.679 41.2 430.506 41.2C430.839 41.2 431.133 41.1533 431.386 41.06C431.653 40.9533 431.946 40.8133 432.266 40.64C432.466 40.52 432.639 40.4333 432.786 40.38C432.933 40.3133 433.079 40.28 433.226 40.28C433.439 40.28 433.619 40.3733 433.766 40.56C433.913 40.7467 433.986 40.98 433.986 41.26C433.986 41.4867 433.933 41.6867 433.826 41.86C433.733 42.02 433.573 42.1667 433.346 42.3C432.933 42.5667 432.453 42.78 431.906 42.94C431.359 43.0867 430.799 43.16 430.226 43.16ZM439.192 43.16C437.738 43.16 436.565 42.8733 435.672 42.3C435.245 42.0467 435.032 41.6867 435.032 41.22C435.032 40.9533 435.105 40.74 435.252 40.58C435.398 40.4067 435.578 40.32 435.792 40.32C436.018 40.32 436.332 40.4267 436.732 40.64C437.158 40.84 437.545 40.9933 437.892 41.1C438.252 41.2067 438.705 41.26 439.252 41.26C439.812 41.26 440.245 41.1667 440.552 40.98C440.872 40.7933 441.032 40.5333 441.032 40.2C441.032 39.9733 440.965 39.7933 440.832 39.66C440.712 39.5267 440.485 39.4067 440.152 39.3C439.832 39.18 439.338 39.0467 438.672 38.9C437.485 38.66 436.632 38.32 436.112 37.88C435.605 37.44 435.352 36.8333 435.352 36.06C435.352 35.4733 435.525 34.9467 435.872 34.48C436.218 34 436.692 33.6333 437.292 33.38C437.905 33.1133 438.598 32.98 439.372 32.98C439.932 32.98 440.472 33.0533 440.992 33.2C441.512 33.3333 441.978 33.5333 442.392 33.8C442.818 34.0667 443.032 34.42 443.032 34.86C443.032 35.1267 442.958 35.3533 442.812 35.54C442.665 35.7133 442.485 35.8 442.272 35.8C442.125 35.8 441.978 35.7733 441.832 35.72C441.698 35.6533 441.525 35.56 441.312 35.44C440.925 35.24 440.592 35.0933 440.312 35C440.032 34.8933 439.685 34.84 439.272 34.84C438.778 34.84 438.385 34.94 438.092 35.14C437.812 35.34 437.672 35.6133 437.672 35.96C437.672 36.2933 437.818 36.5467 438.112 36.72C438.405 36.8933 438.972 37.0667 439.812 37.24C440.705 37.4267 441.405 37.64 441.912 37.88C442.418 38.12 442.778 38.42 442.992 38.78C443.218 39.14 443.332 39.6 443.332 40.16C443.332 41.0667 442.952 41.7933 442.192 42.34C441.445 42.8867 440.445 43.16 439.192 43.16ZM446.441 43.12C446.014 43.12 445.661 42.98 445.381 42.7C445.101 42.4067 444.961 42.0467 444.961 41.62C444.961 41.1933 445.101 40.84 445.381 40.56C445.661 40.2667 446.014 40.12 446.441 40.12C446.868 40.12 447.221 40.2667 447.501 40.56C447.781 40.84 447.921 41.1933 447.921 41.62C447.921 42.0467 447.781 42.4067 447.501 42.7C447.221 42.98 446.868 43.12 446.441 43.12Z" fill="#444444"/>
</svg>
