<svg width="136" height="60" viewBox="0 0 136 60" fill="none" xmlns="http://www.w3.org/2000/svg">
<rect width="136" height="60" rx="10" fill="#1A1A1A"/>
<g clip-path="url(#clip0_5899_1974)">
<path d="M33.7513 38.24C31.9913 38.24 30.4793 37.888 29.2153 37.184C27.9673 36.464 27.0073 35.456 26.3353 34.16C25.6633 32.848 25.3273 31.304 25.3273 29.528C25.3273 28.2 25.5193 27.008 25.9033 25.952C26.2873 24.88 26.8393 23.968 27.5592 23.216C28.2793 22.448 29.1593 21.864 30.1992 21.464C31.2553 21.048 32.4393 20.84 33.7513 20.84C34.6313 20.84 35.4953 20.952 36.3433 21.176C37.1913 21.4 37.9353 21.72 38.5753 22.136C38.9113 22.344 39.1353 22.6 39.2473 22.904C39.3593 23.192 39.3833 23.48 39.3193 23.768C39.2553 24.04 39.1193 24.272 38.9113 24.464C38.7193 24.656 38.4713 24.768 38.1673 24.8C37.8793 24.816 37.5593 24.712 37.2073 24.488C36.7113 24.168 36.1753 23.936 35.5993 23.792C35.0233 23.648 34.4393 23.576 33.8473 23.576C32.7113 23.576 31.7513 23.808 30.9673 24.272C30.1833 24.736 29.5913 25.408 29.1913 26.288C28.7913 27.168 28.5913 28.248 28.5913 29.528C28.5913 30.792 28.7913 31.872 29.1913 32.768C29.5913 33.664 30.1833 34.344 30.9673 34.808C31.7513 35.272 32.7113 35.504 33.8473 35.504C34.4553 35.504 35.0553 35.432 35.6473 35.288C36.2393 35.128 36.7993 34.888 37.3273 34.568C37.6793 34.36 37.9913 34.272 38.2633 34.304C38.5513 34.32 38.7913 34.416 38.9833 34.592C39.1753 34.768 39.3033 34.992 39.3673 35.264C39.4313 35.52 39.4153 35.792 39.3193 36.08C39.2233 36.352 39.0313 36.592 38.7433 36.8C38.1033 37.264 37.3353 37.624 36.4393 37.88C35.5593 38.12 34.6633 38.24 33.7513 38.24ZM46.412 38.24C45.196 38.24 44.14 37.992 43.244 37.496C42.348 37 41.652 36.296 41.156 35.384C40.66 34.456 40.412 33.368 40.412 32.12C40.412 31.176 40.548 30.336 40.82 29.6C41.108 28.848 41.516 28.208 42.044 27.68C42.572 27.136 43.204 26.728 43.94 26.456C44.676 26.168 45.5 26.024 46.412 26.024C47.628 26.024 48.684 26.272 49.58 26.768C50.476 27.264 51.172 27.968 51.668 28.88C52.164 29.792 52.412 30.872 52.412 32.12C52.412 33.064 52.268 33.912 51.98 34.664C51.708 35.416 51.308 36.064 50.78 36.608C50.252 37.136 49.62 37.544 48.884 37.832C48.148 38.104 47.324 38.24 46.412 38.24ZM46.412 35.96C47.004 35.96 47.524 35.816 47.972 35.528C48.42 35.24 48.764 34.816 49.004 34.256C49.26 33.68 49.388 32.968 49.388 32.12C49.388 30.84 49.116 29.888 48.572 29.264C48.028 28.624 47.308 28.304 46.412 28.304C45.82 28.304 45.3 28.448 44.852 28.736C44.404 29.008 44.052 29.432 43.796 30.008C43.556 30.568 43.436 31.272 43.436 32.12C43.436 33.384 43.708 34.344 44.252 35C44.796 35.64 45.516 35.96 46.412 35.96ZM56.3761 38.192C55.8961 38.192 55.5281 38.064 55.2721 37.808C55.0161 37.536 54.8881 37.152 54.8881 36.656V27.584C54.8881 27.088 55.0161 26.712 55.2721 26.456C55.5281 26.2 55.8881 26.072 56.3521 26.072C56.8161 26.072 57.1761 26.2 57.4321 26.456C57.6881 26.712 57.8161 27.088 57.8161 27.584V29.216L57.5521 28.616C57.9041 27.768 58.4481 27.128 59.1841 26.696C59.9361 26.248 60.7841 26.024 61.7281 26.024C62.6721 26.024 63.4481 26.2 64.0561 26.552C64.6641 26.904 65.1201 27.44 65.4241 28.16C65.7281 28.864 65.8801 29.76 65.8801 30.848V36.656C65.8801 37.152 65.7521 37.536 65.4961 37.808C65.2401 38.064 64.8721 38.192 64.3921 38.192C63.9121 38.192 63.5361 38.064 63.2641 37.808C63.0081 37.536 62.8801 37.152 62.8801 36.656V30.992C62.8801 30.08 62.7041 29.416 62.3521 29C62.0161 28.584 61.4881 28.376 60.7681 28.376C59.8881 28.376 59.1841 28.656 58.6561 29.216C58.1441 29.76 57.8881 30.488 57.8881 31.4V36.656C57.8881 37.68 57.3841 38.192 56.3761 38.192ZM73.562 38.192C73.162 38.192 72.81 38.088 72.506 37.88C72.218 37.672 71.978 37.352 71.786 36.92L67.97 28.064C67.826 27.712 67.77 27.384 67.802 27.08C67.85 26.776 67.994 26.536 68.234 26.36C68.49 26.168 68.834 26.072 69.266 26.072C69.634 26.072 69.93 26.16 70.154 26.336C70.378 26.496 70.578 26.808 70.754 27.272L73.994 35.36H73.274L76.61 27.248C76.786 26.8 76.986 26.496 77.21 26.336C77.45 26.16 77.77 26.072 78.17 26.072C78.522 26.072 78.802 26.168 79.01 26.36C79.218 26.536 79.346 26.776 79.394 27.08C79.442 27.368 79.386 27.688 79.226 28.04L75.338 36.92C75.162 37.352 74.922 37.672 74.618 37.88C74.33 38.088 73.978 38.192 73.562 38.192ZM87.0159 38.24C85.6879 38.24 84.5439 37.992 83.5839 37.496C82.6239 37 81.8799 36.296 81.3519 35.384C80.8399 34.472 80.5839 33.392 80.5839 32.144C80.5839 30.928 80.8319 29.864 81.3279 28.952C81.8399 28.04 82.5359 27.328 83.4159 26.816C84.3119 26.288 85.3279 26.024 86.4639 26.024C87.2959 26.024 88.0399 26.16 88.6959 26.432C89.3679 26.704 89.9359 27.096 90.3999 27.608C90.8799 28.12 91.2399 28.744 91.4799 29.48C91.7359 30.2 91.8639 31.016 91.8639 31.928C91.8639 32.216 91.7599 32.44 91.5519 32.6C91.3599 32.744 91.0799 32.816 90.7119 32.816H83.0079V31.088H89.7519L89.3679 31.448C89.3679 30.712 89.2559 30.096 89.0319 29.6C88.8239 29.104 88.5119 28.728 88.0959 28.472C87.6959 28.2 87.1919 28.064 86.5839 28.064C85.9119 28.064 85.3359 28.224 84.8559 28.544C84.3919 28.848 84.0319 29.288 83.7759 29.864C83.5359 30.424 83.4159 31.096 83.4159 31.88V32.048C83.4159 33.36 83.7199 34.344 84.3279 35C84.9519 35.64 85.8639 35.96 87.0639 35.96C87.4799 35.96 87.9439 35.912 88.4559 35.816C88.9839 35.704 89.4799 35.52 89.9439 35.264C90.2799 35.072 90.5759 34.992 90.8319 35.024C91.0879 35.04 91.2879 35.128 91.4319 35.288C91.5919 35.448 91.6879 35.648 91.7199 35.888C91.7519 36.112 91.7039 36.344 91.5759 36.584C91.4639 36.824 91.2639 37.032 90.9759 37.208C90.4159 37.56 89.7679 37.824 89.0319 38C88.3119 38.16 87.6399 38.24 87.0159 38.24ZM95.7757 38.192C95.2797 38.192 94.8957 38.064 94.6237 37.808C94.3677 37.536 94.2397 37.152 94.2397 36.656V27.584C94.2397 27.088 94.3677 26.712 94.6237 26.456C94.8797 26.2 95.2397 26.072 95.7037 26.072C96.1677 26.072 96.5277 26.2 96.7837 26.456C97.0397 26.712 97.1677 27.088 97.1677 27.584V29.096H96.9277C97.1517 28.136 97.5917 27.408 98.2477 26.912C98.9037 26.416 99.7757 26.12 100.864 26.024C101.2 25.992 101.464 26.08 101.656 26.288C101.864 26.48 101.984 26.784 102.016 27.2C102.048 27.6 101.952 27.928 101.728 28.184C101.52 28.424 101.2 28.568 100.768 28.616L100.24 28.664C99.2637 28.76 98.5277 29.064 98.0317 29.576C97.5357 30.072 97.2877 30.776 97.2877 31.688V36.656C97.2877 37.152 97.1597 37.536 96.9037 37.808C96.6477 38.064 96.2717 38.192 95.7757 38.192ZM109.694 38.24C108.654 38.24 107.782 38.064 107.078 37.712C106.39 37.36 105.878 36.848 105.542 36.176C105.206 35.488 105.038 34.64 105.038 33.632V28.52H103.79C103.406 28.52 103.11 28.424 102.902 28.232C102.694 28.024 102.59 27.744 102.59 27.392C102.59 27.024 102.694 26.744 102.902 26.552C103.11 26.36 103.406 26.264 103.79 26.264H105.038V24.08C105.038 23.584 105.166 23.208 105.422 22.952C105.694 22.696 106.07 22.568 106.55 22.568C107.03 22.568 107.398 22.696 107.654 22.952C107.91 23.208 108.038 23.584 108.038 24.08V26.264H110.582C110.966 26.264 111.262 26.36 111.47 26.552C111.678 26.744 111.782 27.024 111.782 27.392C111.782 27.744 111.678 28.024 111.47 28.232C111.262 28.424 110.966 28.52 110.582 28.52H108.038V33.464C108.038 34.232 108.206 34.808 108.542 35.192C108.878 35.576 109.422 35.768 110.174 35.768C110.446 35.768 110.686 35.744 110.894 35.696C111.102 35.648 111.286 35.616 111.446 35.6C111.638 35.584 111.798 35.648 111.926 35.792C112.054 35.92 112.118 36.192 112.118 36.608C112.118 36.928 112.062 37.216 111.95 37.472C111.854 37.712 111.67 37.88 111.398 37.976C111.19 38.04 110.918 38.096 110.582 38.144C110.246 38.208 109.95 38.24 109.694 38.24Z" fill="white"/>
</g>
<defs>
<clipPath id="clip0_5899_1974">
<rect width="88" height="28" fill="white" transform="translate(24 16)"/>
</clipPath>
</defs>
</svg>
