<svg width="522" height="175" viewBox="0 0 522 175" fill="none" xmlns="http://www.w3.org/2000/svg">
<path d="M87.5 0.999995C98.8593 0.999995 110.107 3.23739 120.602 7.58442C131.097 11.9315 140.632 18.303 148.665 26.3353C156.697 34.3675 163.069 43.9032 167.416 54.3979C171.763 64.8925 174 76.1407 174 87.5L87.5 87.5L87.5 0.999995Z" fill="white" stroke="#888888" stroke-width="2"/>
<path d="M87.5 174C98.8593 174 110.107 171.763 120.602 167.416C131.097 163.069 140.632 156.697 148.665 148.665C156.697 140.632 163.069 131.097 167.416 120.602C171.763 110.107 174 98.8593 174 87.5L87.5 87.5L87.5 174Z" fill="white" stroke="#888888" stroke-width="2"/>
<path d="M87.5 174C76.1407 174 64.8925 171.763 54.3979 167.416C43.9032 163.069 34.3675 156.697 26.3353 148.665C18.303 140.632 11.9314 131.097 7.58442 120.602C3.23739 110.107 0.999999 98.8593 1 87.5L87.5 87.5L87.5 174Z" fill="white" stroke="#888888" stroke-width="2"/>
<path d="M434.5 0.999995C445.859 0.999995 457.107 3.23739 467.602 7.58442C478.097 11.9315 487.632 18.303 495.665 26.3353C503.697 34.3675 510.069 43.9032 514.416 54.3979C518.763 64.8925 521 76.1407 521 87.5L434.5 87.5V0.999995Z" fill="white" stroke="#888888" stroke-width="2"/>
<path d="M434.5 0.999995C423.141 0.999995 411.893 3.23739 401.398 7.58442C390.903 11.9315 381.368 18.303 373.335 26.3353C365.303 34.3675 358.931 43.9032 354.584 54.3979C350.237 64.8925 348 76.1407 348 87.5L434.5 87.5V0.999995Z" fill="white" stroke="#888888" stroke-width="2"/>
<path d="M434.5 174C445.859 174 457.107 171.763 467.602 167.416C478.097 163.069 487.632 156.697 495.665 148.665C503.697 140.632 510.069 131.097 514.416 120.602C518.763 110.107 521 98.8593 521 87.5L434.5 87.5V174Z" fill="#A6F0FF" stroke="#1CB9D9" stroke-width="2"/>
<path d="M434.5 174C423.141 174 411.893 171.763 401.398 167.416C390.903 163.069 381.368 156.697 373.335 148.665C365.303 140.632 358.931 131.097 354.584 120.602C350.237 110.107 348 98.8593 348 87.5L434.5 87.5V174Z" fill="#A6F0FF" stroke="#1CB9D9" stroke-width="2"/>
<path d="M261 99.68C260.573 99.68 260.253 99.56 260.04 99.32C259.827 99.08 259.72 98.76 259.72 98.36V90.76H252.24C251.84 90.76 251.52 90.6533 251.28 90.44C251.067 90.2267 250.96 89.92 250.96 89.52C250.96 89.12 251.067 88.8133 251.28 88.6C251.52 88.3867 251.84 88.28 252.24 88.28H259.72V80.92C259.72 80.4933 259.827 80.1733 260.04 79.96C260.253 79.72 260.573 79.6 261 79.6C261.427 79.6 261.747 79.72 261.96 79.96C262.173 80.1733 262.28 80.4933 262.28 80.92V88.28H269.76C270.16 88.28 270.467 88.3867 270.68 88.6C270.92 88.8133 271.04 89.12 271.04 89.52C271.04 89.92 270.92 90.2267 270.68 90.44C270.467 90.6533 270.16 90.76 269.76 90.76H262.28V98.36C262.28 98.76 262.173 99.08 261.96 99.32C261.747 99.56 261.427 99.68 261 99.68Z" fill="#1A1A1A"/>
<path d="M0.999995 87.5C0.999995 76.1407 3.23738 64.8925 7.58442 54.3979C11.9315 43.9032 18.303 34.3675 26.3353 26.3353C34.3675 18.303 43.9032 11.9315 54.3979 7.58441C64.8925 3.23738 76.1407 0.999995 87.5 0.999995L87.5 87.5L0.999995 87.5Z" fill="#C1F29E" stroke="#6CA621" stroke-width="2"/>
</svg>
