<svg width="522" height="175" viewBox="0 0 522 175" fill="none" xmlns="http://www.w3.org/2000/svg">
<path d="M57.8728 6.23205C44.2035 11.2154 32.012 19.5661 22.4265 30.5115C12.841 41.4569 6.17123 54.6433 3.03436 68.8504C-0.102501 83.0576 0.394906 97.8265 4.48056 111.79C8.5662 125.754 16.1081 138.462 26.4083 148.738L87.5 87.5L57.8728 6.23205Z" fill="white" stroke="#888888" stroke-width="2"/>
<path d="M26.3353 148.665C38.4325 160.762 53.8453 169 70.6247 172.338C87.404 175.676 104.796 173.963 120.602 167.416C136.408 160.869 149.917 149.782 159.422 135.557C168.927 121.332 174 104.608 174 87.5L87.5 87.5L26.3353 148.665Z" fill="white" stroke="#888888" stroke-width="2"/>
<path d="M521 87.5C521 98.8593 518.763 110.107 514.416 120.602C510.069 131.097 503.697 140.632 495.665 148.665C487.632 156.697 478.097 163.069 467.602 167.416C457.107 171.763 445.859 174 434.5 174C423.141 174 411.893 171.763 401.398 167.416C390.903 163.069 381.368 156.697 373.335 148.665C365.303 140.632 358.931 131.097 354.584 120.602C350.237 110.107 348 98.8593 348 87.5L434.5 87.5L521 87.5Z" fill="white" stroke="#888888" stroke-width="2"/>
<path d="M261 99.68C260.573 99.68 260.253 99.56 260.04 99.32C259.827 99.08 259.72 98.76 259.72 98.36V90.76H252.24C251.84 90.76 251.52 90.6533 251.28 90.44C251.067 90.2267 250.96 89.92 250.96 89.52C250.96 89.12 251.067 88.8133 251.28 88.6C251.52 88.3867 251.84 88.28 252.24 88.28H259.72V80.92C259.72 80.4933 259.827 80.1733 260.04 79.96C260.253 79.72 260.573 79.6 261 79.6C261.427 79.6 261.747 79.72 261.96 79.96C262.173 80.1733 262.28 80.4933 262.28 80.92V88.28H269.76C270.16 88.28 270.467 88.3867 270.68 88.6C270.92 88.8133 271.04 89.12 271.04 89.52C271.04 89.92 270.92 90.2267 270.68 90.44C270.467 90.6533 270.16 90.76 269.76 90.76H262.28V98.36C262.28 98.76 262.173 99.08 261.96 99.32C261.747 99.56 261.427 99.68 261 99.68Z" fill="#1A1A1A"/>
<path d="M174 87.5C174 73.62 170.66 59.9438 164.262 47.6265C157.863 35.3091 148.595 24.7124 137.239 16.7311C125.884 8.74976 112.774 3.61836 99.0176 1.77022C85.2612 -0.0779241 71.2621 1.41147 58.2025 6.11261L87.5 87.5L174 87.5Z" fill="#FFD2A6" stroke="#FF8F1F" stroke-width="2"/>
<path d="M521 87.5C521 64.5588 511.887 42.5572 495.665 26.3353C479.443 10.1134 457.441 0.999996 434.5 0.999995C411.559 0.999993 389.557 10.1134 373.335 26.3353C357.113 42.5571 348 64.5588 348 87.5L434.5 87.5L521 87.5Z" fill="#C1F29E" stroke="#85CC29" stroke-width="2"/>
</svg>
