<svg width="394" height="19" viewBox="0 0 394 19" fill="none" xmlns="http://www.w3.org/2000/svg">
<path d="M11.8186 7.38C12.1253 7.38 12.3719 7.47333 12.5586 7.66C12.7453 7.83333 12.8386 8.06667 12.8386 8.36V12.66C12.8386 13.2733 12.7586 13.7067 12.5986 13.96C12.4386 14.2133 12.1119 14.42 11.6186 14.58C11.0853 14.7667 10.4653 14.9133 9.75859 15.02C9.05193 15.1267 8.37193 15.18 7.71859 15.18C6.26526 15.18 5.00526 14.8933 3.93859 14.32C2.87193 13.7467 2.05193 12.92 1.47859 11.84C0.918594 10.7467 0.638594 9.44667 0.638594 7.94C0.638594 6.46 0.918594 5.18 1.47859 4.1C2.05193 3.00667 2.85859 2.17333 3.89859 1.6C4.93859 1.01333 6.16526 0.719999 7.57859 0.719999C9.45859 0.719999 10.9986 1.22667 12.1986 2.24C12.3586 2.38667 12.4719 2.53333 12.5386 2.68C12.6186 2.82667 12.6586 3 12.6586 3.2C12.6586 3.49333 12.5786 3.74 12.4186 3.94C12.2586 4.14 12.0653 4.24 11.8386 4.24C11.6919 4.24 11.5586 4.22 11.4386 4.18C11.3186 4.12667 11.1786 4.04667 11.0186 3.94C10.4319 3.52667 9.88526 3.24 9.37859 3.08C8.87193 2.90667 8.29859 2.82 7.65859 2.82C6.20526 2.82 5.10526 3.25333 4.35859 4.12C3.62526 4.97333 3.25859 6.24667 3.25859 7.94C3.25859 11.4067 4.77859 13.14 7.81859 13.14C8.72526 13.14 9.63193 13.0133 10.5386 12.76V9.22H8.27859C7.95859 9.22 7.70526 9.14 7.51859 8.98C7.34526 8.82 7.25859 8.59333 7.25859 8.3C7.25859 8.00667 7.34526 7.78 7.51859 7.62C7.70526 7.46 7.95859 7.38 8.27859 7.38H11.8186ZM20.9866 5.02C21.3332 4.99333 21.6066 5.06667 21.8066 5.24C22.0066 5.41333 22.1066 5.67333 22.1066 6.02C22.1066 6.38 22.0199 6.64667 21.8466 6.82C21.6732 6.99333 21.3599 7.10667 20.9066 7.16L20.3066 7.22C19.5199 7.3 18.9399 7.56667 18.5666 8.02C18.2066 8.47333 18.0266 9.04 18.0266 9.72V13.92C18.0266 14.3067 17.9066 14.6067 17.6666 14.82C17.4266 15.02 17.1266 15.12 16.7666 15.12C16.4066 15.12 16.1066 15.02 15.8666 14.82C15.6399 14.6067 15.5266 14.3067 15.5266 13.92V6.18C15.5266 5.80667 15.6399 5.52 15.8666 5.32C16.1066 5.12 16.3999 5.02 16.7466 5.02C17.0932 5.02 17.3732 5.12 17.5866 5.32C17.7999 5.50667 17.9066 5.78 17.9066 6.14V6.94C18.1599 6.35333 18.5332 5.9 19.0266 5.58C19.5332 5.26 20.0932 5.08 20.7066 5.04L20.9866 5.02ZM30.7275 12.32C30.9542 12.32 31.1342 12.4067 31.2675 12.58C31.4142 12.7533 31.4875 12.9867 31.4875 13.28C31.4875 13.6933 31.2408 14.04 30.7475 14.32C30.2942 14.5733 29.7808 14.78 29.2075 14.94C28.6342 15.0867 28.0875 15.16 27.5675 15.16C25.9942 15.16 24.7475 14.7067 23.8275 13.8C22.9075 12.8933 22.4475 11.6533 22.4475 10.08C22.4475 9.08 22.6475 8.19333 23.0475 7.42C23.4475 6.64667 24.0075 6.04667 24.7275 5.62C25.4608 5.19333 26.2875 4.98 27.2075 4.98C28.0875 4.98 28.8542 5.17333 29.5075 5.56C30.1608 5.94667 30.6675 6.49333 31.0275 7.2C31.3875 7.90667 31.5675 8.74 31.5675 9.7C31.5675 10.2733 31.3142 10.56 30.8075 10.56H24.9075C24.9875 11.48 25.2475 12.16 25.6875 12.6C26.1275 13.0267 26.7675 13.24 27.6075 13.24C28.0342 13.24 28.4075 13.1867 28.7275 13.08C29.0608 12.9733 29.4342 12.8267 29.8475 12.64C30.2475 12.4267 30.5408 12.32 30.7275 12.32ZM27.2675 6.74C26.5875 6.74 26.0408 6.95333 25.6275 7.38C25.2275 7.80667 24.9875 8.42 24.9075 9.22H29.4275C29.4008 8.40667 29.2008 7.79333 28.8275 7.38C28.4542 6.95333 27.9342 6.74 27.2675 6.74ZM37.8525 4.98C39.2125 4.98 40.2192 5.32 40.8725 6C41.5392 6.66667 41.8725 7.68667 41.8725 9.06V13.94C41.8725 14.3 41.7658 14.5867 41.5525 14.8C41.3392 15 41.0458 15.1 40.6725 15.1C40.3258 15.1 40.0392 14.9933 39.8125 14.78C39.5992 14.5667 39.4925 14.2867 39.4925 13.94V13.5C39.2658 14.02 38.9058 14.4267 38.4125 14.72C37.9325 15.0133 37.3725 15.16 36.7325 15.16C36.0792 15.16 35.4858 15.0267 34.9525 14.76C34.4192 14.4933 33.9992 14.1267 33.6925 13.66C33.3858 13.1933 33.2325 12.6733 33.2325 12.1C33.2325 11.38 33.4125 10.8133 33.7725 10.4C34.1458 9.98667 34.7458 9.68667 35.5725 9.5C36.3992 9.31333 37.5392 9.22 38.9925 9.22H39.4925V8.76C39.4925 8.10667 39.3525 7.63333 39.0725 7.34C38.7925 7.03333 38.3392 6.88 37.7125 6.88C37.3258 6.88 36.9325 6.94 36.5325 7.06C36.1325 7.16667 35.6592 7.32667 35.1125 7.54C34.7658 7.71333 34.5125 7.8 34.3525 7.8C34.1125 7.8 33.9125 7.71333 33.7525 7.54C33.6058 7.36667 33.5325 7.14 33.5325 6.86C33.5325 6.63333 33.5858 6.44 33.6925 6.28C33.8125 6.10667 34.0058 5.94667 34.2725 5.8C34.7392 5.54667 35.2925 5.34667 35.9325 5.2C36.5858 5.05333 37.2258 4.98 37.8525 4.98ZM37.2325 13.36C37.8992 13.36 38.4392 13.14 38.8525 12.7C39.2792 12.2467 39.4925 11.6667 39.4925 10.96V10.54H39.1325C38.2392 10.54 37.5458 10.58 37.0525 10.66C36.5592 10.74 36.2058 10.88 35.9925 11.08C35.7792 11.28 35.6725 11.5533 35.6725 11.9C35.6725 12.3267 35.8192 12.68 36.1125 12.96C36.4192 13.2267 36.7925 13.36 37.2325 13.36ZM49.4933 13.26C50.1599 13.3 50.4933 13.6 50.4933 14.16C50.4933 14.48 50.3599 14.7267 50.0933 14.9C49.8399 15.06 49.4733 15.1267 48.9933 15.1L48.4533 15.06C46.2133 14.9 45.0933 13.7 45.0933 11.46V7.1H44.0933C43.7333 7.1 43.4533 7.02 43.2533 6.86C43.0666 6.7 42.9733 6.46667 42.9733 6.16C42.9733 5.85333 43.0666 5.62 43.2533 5.46C43.4533 5.3 43.7333 5.22 44.0933 5.22H45.0933V3.38C45.0933 3.02 45.2066 2.73333 45.4333 2.52C45.6599 2.30667 45.9666 2.2 46.3533 2.2C46.7266 2.2 47.0266 2.30667 47.2533 2.52C47.4799 2.73333 47.5933 3.02 47.5933 3.38V5.22H49.2933C49.6533 5.22 49.9266 5.3 50.1133 5.46C50.3133 5.62 50.4133 5.85333 50.4133 6.16C50.4133 6.46667 50.3133 6.7 50.1133 6.86C49.9266 7.02 49.6533 7.1 49.2933 7.1H47.5933V11.64C47.5933 12.6267 48.0466 13.1533 48.9533 13.22L49.4933 13.26ZM53.0347 10.92C52.8347 10.92 52.6614 10.8533 52.5147 10.72C52.3814 10.5867 52.3014 10.3933 52.2747 10.14L51.5347 2.36L51.5147 2.16C51.5147 1.74667 51.6547 1.42 51.9347 1.18C52.228 0.926666 52.5947 0.799999 53.0347 0.799999C53.4747 0.799999 53.8347 0.926666 54.1147 1.18C54.408 1.42 54.5547 1.74667 54.5547 2.16L54.5347 2.38L53.7947 10.14C53.768 10.3933 53.6814 10.5867 53.5347 10.72C53.4014 10.8533 53.2347 10.92 53.0347 10.92ZM53.0347 15.12C52.608 15.12 52.2547 14.98 51.9747 14.7C51.6947 14.4067 51.5547 14.0467 51.5547 13.62C51.5547 13.1933 51.6947 12.84 51.9747 12.56C52.2547 12.2667 52.608 12.12 53.0347 12.12C53.4614 12.12 53.8147 12.2667 54.0947 12.56C54.3747 12.84 54.5147 13.1933 54.5147 13.62C54.5147 14.0467 54.3747 14.4067 54.0947 14.7C53.8147 14.98 53.4614 15.12 53.0347 15.12ZM73.1453 0.799999C73.5186 0.799999 73.812 0.919999 74.0253 1.16C74.252 1.38667 74.3653 1.69333 74.3653 2.08V13.82C74.3653 14.2067 74.252 14.52 74.0253 14.76C73.7986 15 73.5053 15.12 73.1453 15.12C72.7186 15.12 72.392 14.9667 72.1653 14.66L64.8653 5.16V13.82C64.8653 14.2067 64.7586 14.52 64.5453 14.76C64.332 15 64.0386 15.12 63.6653 15.12C63.292 15.12 62.9986 15 62.7853 14.76C62.572 14.52 62.4653 14.2067 62.4653 13.82V2.08C62.4653 1.69333 62.5786 1.38667 62.8053 1.16C63.032 0.919999 63.332 0.799999 63.7053 0.799999C64.1186 0.799999 64.4386 0.953333 64.6653 1.26L71.9453 10.72V2.08C71.9453 1.69333 72.052 1.38667 72.2653 1.16C72.492 0.919999 72.7853 0.799999 73.1453 0.799999ZM81.6467 15.16C80.6467 15.16 79.7667 14.9533 79.0067 14.54C78.2601 14.1267 77.6801 13.5333 77.2667 12.76C76.8534 11.9867 76.6467 11.0867 76.6467 10.06C76.6467 9.03333 76.8534 8.14 77.2667 7.38C77.6801 6.60667 78.2601 6.01333 79.0067 5.6C79.7667 5.18667 80.6467 4.98 81.6467 4.98C82.6467 4.98 83.5201 5.18667 84.2667 5.6C85.0267 6.01333 85.6067 6.60667 86.0067 7.38C86.4201 8.14 86.6267 9.03333 86.6267 10.06C86.6267 11.0867 86.4201 11.9867 86.0067 12.76C85.6067 13.5333 85.0267 14.1267 84.2667 14.54C83.5201 14.9533 82.6467 15.16 81.6467 15.16ZM81.6267 13.22C82.4401 13.22 83.0601 12.9533 83.4867 12.42C83.9134 11.8867 84.1267 11.1 84.1267 10.06C84.1267 9.03333 83.9134 8.25333 83.4867 7.72C83.0601 7.17333 82.4467 6.9 81.6467 6.9C80.8467 6.9 80.2267 7.17333 79.7867 7.72C79.3601 8.25333 79.1467 9.03333 79.1467 10.06C79.1467 11.1 79.3601 11.8867 79.7867 12.42C80.2134 12.9533 80.8267 13.22 81.6267 13.22ZM101.754 5.76C101.848 5.52 101.981 5.34 102.154 5.22C102.341 5.1 102.541 5.04 102.754 5.04C103.061 5.04 103.334 5.14667 103.574 5.36C103.828 5.56 103.954 5.81333 103.954 6.12C103.954 6.29333 103.921 6.44667 103.854 6.58L100.554 14.32C100.448 14.5733 100.281 14.7667 100.054 14.9C99.841 15.0333 99.601 15.1 99.3344 15.1C99.081 15.1 98.841 15.0333 98.6144 14.9C98.401 14.7667 98.241 14.5733 98.1344 14.32L95.7544 8.6L93.4544 14.32C93.3477 14.5733 93.181 14.7667 92.9544 14.9C92.741 15.0333 92.501 15.1 92.2344 15.1C91.981 15.1 91.741 15.0333 91.5144 14.9C91.2877 14.7667 91.121 14.5733 91.0144 14.32L87.7344 6.58C87.6677 6.40667 87.6344 6.26 87.6344 6.14C87.6344 5.83333 87.7677 5.57333 88.0344 5.36C88.301 5.13333 88.5944 5.02 88.9144 5.02C89.141 5.02 89.3477 5.08 89.5344 5.2C89.721 5.32 89.861 5.5 89.9544 5.74L92.3144 11.84L94.7344 5.8C94.841 5.54667 94.9944 5.36 95.1944 5.24C95.3944 5.10667 95.6144 5.04 95.8544 5.04C96.0944 5.04 96.3144 5.10667 96.5144 5.24C96.7144 5.36 96.8677 5.54667 96.9744 5.8L99.4144 11.86L101.754 5.76ZM112.333 15.12C111.973 15.12 111.673 15.02 111.433 14.82C111.206 14.6067 111.093 14.3067 111.093 13.92V1.98C111.093 1.59333 111.206 1.3 111.433 1.1C111.673 0.899999 111.973 0.799999 112.333 0.799999C112.693 0.799999 112.993 0.899999 113.233 1.1C113.473 1.3 113.593 1.59333 113.593 1.98V13.92C113.593 14.3067 113.473 14.6067 113.233 14.82C112.993 15.02 112.693 15.12 112.333 15.12ZM123.911 12.32C124.138 12.32 124.318 12.4067 124.451 12.58C124.598 12.7533 124.671 12.9867 124.671 13.28C124.671 13.6933 124.424 14.04 123.931 14.32C123.478 14.5733 122.964 14.78 122.391 14.94C121.818 15.0867 121.271 15.16 120.751 15.16C119.178 15.16 117.931 14.7067 117.011 13.8C116.091 12.8933 115.631 11.6533 115.631 10.08C115.631 9.08 115.831 8.19333 116.231 7.42C116.631 6.64667 117.191 6.04667 117.911 5.62C118.644 5.19333 119.471 4.98 120.391 4.98C121.271 4.98 122.038 5.17333 122.691 5.56C123.344 5.94667 123.851 6.49333 124.211 7.2C124.571 7.90667 124.751 8.74 124.751 9.7C124.751 10.2733 124.498 10.56 123.991 10.56H118.091C118.171 11.48 118.431 12.16 118.871 12.6C119.311 13.0267 119.951 13.24 120.791 13.24C121.218 13.24 121.591 13.1867 121.911 13.08C122.244 12.9733 122.618 12.8267 123.031 12.64C123.431 12.4267 123.724 12.32 123.911 12.32ZM120.451 6.74C119.771 6.74 119.224 6.95333 118.811 7.38C118.411 7.80667 118.171 8.42 118.091 9.22H122.611C122.584 8.40667 122.384 7.79333 122.011 7.38C121.638 6.95333 121.118 6.74 120.451 6.74ZM131.739 13.26C132.406 13.3 132.739 13.6 132.739 14.16C132.739 14.48 132.606 14.7267 132.339 14.9C132.086 15.06 131.719 15.1267 131.239 15.1L130.699 15.06C128.459 14.9 127.339 13.7 127.339 11.46V7.1H126.339C125.979 7.1 125.699 7.02 125.499 6.86C125.313 6.7 125.219 6.46667 125.219 6.16C125.219 5.85333 125.313 5.62 125.499 5.46C125.699 5.3 125.979 5.22 126.339 5.22H127.339V3.38C127.339 3.02 127.453 2.73333 127.679 2.52C127.906 2.30667 128.213 2.2 128.599 2.2C128.973 2.2 129.273 2.30667 129.499 2.52C129.726 2.73333 129.839 3.02 129.839 3.38V5.22H131.539C131.899 5.22 132.173 5.3 132.359 5.46C132.559 5.62 132.659 5.85333 132.659 6.16C132.659 6.46667 132.559 6.7 132.359 6.86C132.173 7.02 131.899 7.1 131.539 7.1H129.839V11.64C129.839 12.6267 130.293 13.1533 131.199 13.22L131.739 13.26ZM135.26 0.799999C135.714 0.799999 136.08 0.966666 136.36 1.3C136.64 1.63333 136.78 2.12 136.78 2.76C136.78 4.01333 136.34 5.11333 135.46 6.06C135.3 6.23333 135.114 6.32 134.9 6.32C134.714 6.32 134.54 6.25333 134.38 6.12C134.234 5.97333 134.16 5.80667 134.16 5.62C134.16 5.46 134.227 5.30667 134.36 5.16C134.76 4.73333 135.02 4.25333 135.14 3.72C134.754 3.68 134.434 3.53333 134.18 3.28C133.94 3.01333 133.82 2.68667 133.82 2.3C133.82 1.87333 133.954 1.52 134.22 1.24C134.5 0.946666 134.847 0.799999 135.26 0.799999ZM142.074 15.16C140.621 15.16 139.448 14.8733 138.554 14.3C138.128 14.0467 137.914 13.6867 137.914 13.22C137.914 12.9533 137.988 12.74 138.134 12.58C138.281 12.4067 138.461 12.32 138.674 12.32C138.901 12.32 139.214 12.4267 139.614 12.64C140.041 12.84 140.428 12.9933 140.774 13.1C141.134 13.2067 141.588 13.26 142.134 13.26C142.694 13.26 143.128 13.1667 143.434 12.98C143.754 12.7933 143.914 12.5333 143.914 12.2C143.914 11.9733 143.848 11.7933 143.714 11.66C143.594 11.5267 143.368 11.4067 143.034 11.3C142.714 11.18 142.221 11.0467 141.554 10.9C140.368 10.66 139.514 10.32 138.994 9.88C138.488 9.44 138.234 8.83333 138.234 8.06C138.234 7.47333 138.408 6.94667 138.754 6.48C139.101 6 139.574 5.63333 140.174 5.38C140.788 5.11333 141.481 4.98 142.254 4.98C142.814 4.98 143.354 5.05333 143.874 5.2C144.394 5.33333 144.861 5.53333 145.274 5.8C145.701 6.06667 145.914 6.42 145.914 6.86C145.914 7.12667 145.841 7.35333 145.694 7.54C145.548 7.71333 145.368 7.8 145.154 7.8C145.008 7.8 144.861 7.77333 144.714 7.72C144.581 7.65333 144.408 7.56 144.194 7.44C143.808 7.24 143.474 7.09333 143.194 7C142.914 6.89333 142.568 6.84 142.154 6.84C141.661 6.84 141.268 6.94 140.974 7.14C140.694 7.34 140.554 7.61333 140.554 7.96C140.554 8.29333 140.701 8.54667 140.994 8.72C141.288 8.89333 141.854 9.06667 142.694 9.24C143.588 9.42667 144.288 9.64 144.794 9.88C145.301 10.12 145.661 10.42 145.874 10.78C146.101 11.14 146.214 11.6 146.214 12.16C146.214 13.0667 145.834 13.7933 145.074 14.34C144.328 14.8867 143.328 15.16 142.074 15.16ZM158.131 15.16C157.131 15.16 156.251 14.9533 155.491 14.54C154.744 14.1267 154.164 13.5333 153.751 12.76C153.338 11.9867 153.131 11.0867 153.131 10.06C153.131 9.03333 153.338 8.14 153.751 7.38C154.164 6.60667 154.744 6.01333 155.491 5.6C156.251 5.18667 157.131 4.98 158.131 4.98C159.131 4.98 160.004 5.18667 160.751 5.6C161.511 6.01333 162.091 6.60667 162.491 7.38C162.904 8.14 163.111 9.03333 163.111 10.06C163.111 11.0867 162.904 11.9867 162.491 12.76C162.091 13.5333 161.511 14.1267 160.751 14.54C160.004 14.9533 159.131 15.16 158.131 15.16ZM158.111 13.22C158.924 13.22 159.544 12.9533 159.971 12.42C160.398 11.8867 160.611 11.1 160.611 10.06C160.611 9.03333 160.398 8.25333 159.971 7.72C159.544 7.17333 158.931 6.9 158.131 6.9C157.331 6.9 156.711 7.17333 156.271 7.72C155.844 8.25333 155.631 9.03333 155.631 10.06C155.631 11.1 155.844 11.8867 156.271 12.42C156.698 12.9533 157.311 13.22 158.111 13.22ZM171.839 5.74C171.945 5.5 172.085 5.32 172.259 5.2C172.445 5.08 172.645 5.02 172.859 5.02C173.165 5.02 173.439 5.12667 173.679 5.34C173.932 5.54 174.059 5.79333 174.059 6.1C174.059 6.26 174.019 6.42 173.939 6.58L170.239 14.32C170.119 14.5733 169.945 14.7667 169.719 14.9C169.505 15.0333 169.265 15.1 168.999 15.1C168.745 15.1 168.499 15.0333 168.259 14.9C168.032 14.7667 167.859 14.5733 167.739 14.32L164.019 6.58C163.952 6.44667 163.919 6.29333 163.919 6.12C163.919 5.81333 164.045 5.55333 164.299 5.34C164.565 5.12667 164.865 5.02 165.199 5.02C165.679 5.02 166.032 5.25333 166.259 5.72L169.059 11.9L171.839 5.74ZM183.13 12.32C183.357 12.32 183.537 12.4067 183.67 12.58C183.817 12.7533 183.89 12.9867 183.89 13.28C183.89 13.6933 183.643 14.04 183.15 14.32C182.697 14.5733 182.183 14.78 181.61 14.94C181.037 15.0867 180.49 15.16 179.97 15.16C178.397 15.16 177.15 14.7067 176.23 13.8C175.31 12.8933 174.85 11.6533 174.85 10.08C174.85 9.08 175.05 8.19333 175.45 7.42C175.85 6.64667 176.41 6.04667 177.13 5.62C177.863 5.19333 178.69 4.98 179.61 4.98C180.49 4.98 181.257 5.17333 181.91 5.56C182.563 5.94667 183.07 6.49333 183.43 7.2C183.79 7.90667 183.97 8.74 183.97 9.7C183.97 10.2733 183.717 10.56 183.21 10.56H177.31C177.39 11.48 177.65 12.16 178.09 12.6C178.53 13.0267 179.17 13.24 180.01 13.24C180.437 13.24 180.81 13.1867 181.13 13.08C181.463 12.9733 181.837 12.8267 182.25 12.64C182.65 12.4267 182.943 12.32 183.13 12.32ZM179.67 6.74C178.99 6.74 178.443 6.95333 178.03 7.38C177.63 7.80667 177.39 8.42 177.31 9.22H181.83C181.803 8.40667 181.603 7.79333 181.23 7.38C180.857 6.95333 180.337 6.74 179.67 6.74ZM191.475 5.02C191.822 4.99333 192.095 5.06667 192.295 5.24C192.495 5.41333 192.595 5.67333 192.595 6.02C192.595 6.38 192.508 6.64667 192.335 6.82C192.162 6.99333 191.848 7.10667 191.395 7.16L190.795 7.22C190.008 7.3 189.428 7.56667 189.055 8.02C188.695 8.47333 188.515 9.04 188.515 9.72V13.92C188.515 14.3067 188.395 14.6067 188.155 14.82C187.915 15.02 187.615 15.12 187.255 15.12C186.895 15.12 186.595 15.02 186.355 14.82C186.128 14.6067 186.015 14.3067 186.015 13.92V6.18C186.015 5.80667 186.128 5.52 186.355 5.32C186.595 5.12 186.888 5.02 187.235 5.02C187.582 5.02 187.862 5.12 188.075 5.32C188.288 5.50667 188.395 5.78 188.395 6.14V6.94C188.648 6.35333 189.022 5.9 189.515 5.58C190.022 5.26 190.582 5.08 191.195 5.04L191.475 5.02ZM194.911 15.12C194.551 15.12 194.251 15.02 194.011 14.82C193.784 14.6067 193.671 14.3067 193.671 13.92V1.98C193.671 1.59333 193.784 1.3 194.011 1.1C194.251 0.899999 194.551 0.799999 194.911 0.799999C195.271 0.799999 195.571 0.899999 195.811 1.1C196.051 1.3 196.171 1.59333 196.171 1.98V13.92C196.171 14.3067 196.051 14.6067 195.811 14.82C195.571 15.02 195.271 15.12 194.911 15.12ZM202.989 4.98C204.349 4.98 205.356 5.32 206.009 6C206.676 6.66667 207.009 7.68667 207.009 9.06V13.94C207.009 14.3 206.903 14.5867 206.689 14.8C206.476 15 206.183 15.1 205.809 15.1C205.463 15.1 205.176 14.9933 204.949 14.78C204.736 14.5667 204.629 14.2867 204.629 13.94V13.5C204.403 14.02 204.043 14.4267 203.549 14.72C203.069 15.0133 202.509 15.16 201.869 15.16C201.216 15.16 200.623 15.0267 200.089 14.76C199.556 14.4933 199.136 14.1267 198.829 13.66C198.523 13.1933 198.369 12.6733 198.369 12.1C198.369 11.38 198.549 10.8133 198.909 10.4C199.283 9.98667 199.883 9.68667 200.709 9.5C201.536 9.31333 202.676 9.22 204.129 9.22H204.629V8.76C204.629 8.10667 204.489 7.63333 204.209 7.34C203.929 7.03333 203.476 6.88 202.849 6.88C202.463 6.88 202.069 6.94 201.669 7.06C201.269 7.16667 200.796 7.32667 200.249 7.54C199.903 7.71333 199.649 7.8 199.489 7.8C199.249 7.8 199.049 7.71333 198.889 7.54C198.743 7.36667 198.669 7.14 198.669 6.86C198.669 6.63333 198.723 6.44 198.829 6.28C198.949 6.10667 199.143 5.94667 199.409 5.8C199.876 5.54667 200.429 5.34667 201.069 5.2C201.723 5.05333 202.363 4.98 202.989 4.98ZM202.369 13.36C203.036 13.36 203.576 13.14 203.989 12.7C204.416 12.2467 204.629 11.6667 204.629 10.96V10.54H204.269C203.376 10.54 202.683 10.58 202.189 10.66C201.696 10.74 201.343 10.88 201.129 11.08C200.916 11.28 200.809 11.5533 200.809 11.9C200.809 12.3267 200.956 12.68 201.249 12.96C201.556 13.2267 201.929 13.36 202.369 13.36ZM215.17 4.98C216.01 4.98 216.757 5.19333 217.41 5.62C218.077 6.04667 218.59 6.65333 218.95 7.44C219.323 8.21333 219.51 9.10667 219.51 10.12C219.51 11.1333 219.323 12.02 218.95 12.78C218.59 13.54 218.083 14.1267 217.43 14.54C216.777 14.9533 216.023 15.16 215.17 15.16C214.477 15.16 213.857 15.0133 213.31 14.72C212.763 14.4267 212.343 14.02 212.05 13.5V17.58C212.05 17.9267 211.937 18.2 211.71 18.4C211.483 18.6 211.183 18.7 210.81 18.7C210.437 18.7 210.13 18.5933 209.89 18.38C209.663 18.1667 209.55 17.8867 209.55 17.54V6.2C209.55 5.84 209.657 5.55333 209.87 5.34C210.097 5.12667 210.397 5.02 210.77 5.02C211.143 5.02 211.443 5.12667 211.67 5.34C211.897 5.55333 212.01 5.84 212.01 6.2V6.7C212.303 6.15333 212.723 5.73333 213.27 5.44C213.83 5.13333 214.463 4.98 215.17 4.98ZM214.51 13.22C215.297 13.22 215.91 12.9533 216.35 12.42C216.79 11.8733 217.01 11.1067 217.01 10.12C217.01 9.10667 216.79 8.32 216.35 7.76C215.91 7.2 215.297 6.92 214.51 6.92C213.71 6.92 213.09 7.19333 212.65 7.74C212.223 8.28667 212.01 9.06667 212.01 10.08C212.01 11.08 212.223 11.8533 212.65 12.4C213.09 12.9467 213.71 13.22 214.51 13.22ZM232.611 4.98C233.465 4.98 234.218 5.18667 234.871 5.6C235.525 6.01333 236.031 6.6 236.391 7.36C236.765 8.12 236.951 9.00667 236.951 10.02C236.951 11.0333 236.765 11.9333 236.391 12.72C236.031 13.4933 235.518 14.0933 234.851 14.52C234.198 14.9467 233.451 15.16 232.611 15.16C231.905 15.16 231.271 15.0067 230.711 14.7C230.165 14.3933 229.745 13.9667 229.451 13.42V13.92C229.451 14.28 229.338 14.5667 229.111 14.78C228.885 14.9933 228.585 15.1 228.211 15.1C227.838 15.1 227.538 14.9933 227.311 14.78C227.098 14.5667 226.991 14.28 226.991 13.92V1.96C226.991 1.61333 227.105 1.33333 227.331 1.12C227.571 0.906666 227.878 0.799999 228.251 0.799999C228.625 0.799999 228.925 0.899999 229.151 1.1C229.378 1.3 229.491 1.57333 229.491 1.92V6.64C229.785 6.10667 230.205 5.7 230.751 5.42C231.298 5.12667 231.918 4.98 232.611 4.98ZM231.951 13.22C232.738 13.22 233.351 12.94 233.791 12.38C234.231 11.82 234.451 11.0333 234.451 10.02C234.451 9.02 234.231 8.25333 233.791 7.72C233.365 7.18667 232.751 6.92 231.951 6.92C231.151 6.92 230.531 7.19333 230.091 7.74C229.665 8.27333 229.451 9.04667 229.451 10.06C229.451 11.0733 229.665 11.8533 230.091 12.4C230.531 12.9467 231.151 13.22 231.951 13.22ZM243.463 15.16C242.463 15.16 241.583 14.9533 240.823 14.54C240.076 14.1267 239.496 13.5333 239.083 12.76C238.67 11.9867 238.463 11.0867 238.463 10.06C238.463 9.03333 238.67 8.14 239.083 7.38C239.496 6.60667 240.076 6.01333 240.823 5.6C241.583 5.18667 242.463 4.98 243.463 4.98C244.463 4.98 245.336 5.18667 246.083 5.6C246.843 6.01333 247.423 6.60667 247.823 7.38C248.236 8.14 248.443 9.03333 248.443 10.06C248.443 11.0867 248.236 11.9867 247.823 12.76C247.423 13.5333 246.843 14.1267 246.083 14.54C245.336 14.9533 244.463 15.16 243.463 15.16ZM243.443 13.22C244.256 13.22 244.876 12.9533 245.303 12.42C245.73 11.8867 245.943 11.1 245.943 10.06C245.943 9.03333 245.73 8.25333 245.303 7.72C244.876 7.17333 244.263 6.9 243.463 6.9C242.663 6.9 242.043 7.17333 241.603 7.72C241.176 8.25333 240.963 9.03333 240.963 10.06C240.963 11.1 241.176 11.8867 241.603 12.42C242.03 12.9533 242.643 13.22 243.443 13.22ZM255.528 13.26C256.195 13.3 256.528 13.6 256.528 14.16C256.528 14.48 256.395 14.7267 256.128 14.9C255.875 15.06 255.508 15.1267 255.028 15.1L254.488 15.06C252.248 14.9 251.128 13.7 251.128 11.46V7.1H250.128C249.768 7.1 249.488 7.02 249.288 6.86C249.102 6.7 249.008 6.46667 249.008 6.16C249.008 5.85333 249.102 5.62 249.288 5.46C249.488 5.3 249.768 5.22 250.128 5.22H251.128V3.38C251.128 3.02 251.242 2.73333 251.468 2.52C251.695 2.30667 252.002 2.2 252.388 2.2C252.762 2.2 253.062 2.30667 253.288 2.52C253.515 2.73333 253.628 3.02 253.628 3.38V5.22H255.328C255.688 5.22 255.962 5.3 256.148 5.46C256.348 5.62 256.448 5.85333 256.448 6.16C256.448 6.46667 256.348 6.7 256.148 6.86C255.962 7.02 255.688 7.1 255.328 7.1H253.628V11.64C253.628 12.6267 254.082 13.1533 254.988 13.22L255.528 13.26ZM263.551 4.98C265.845 4.98 266.991 6.32 266.991 9V13.92C266.991 14.2933 266.878 14.5867 266.651 14.8C266.438 15.0133 266.138 15.12 265.751 15.12C265.365 15.12 265.058 15.0133 264.831 14.8C264.605 14.5867 264.491 14.2933 264.491 13.92V9C264.491 8.29333 264.345 7.78 264.051 7.46C263.771 7.12667 263.325 6.96 262.711 6.96C261.991 6.96 261.411 7.18667 260.971 7.64C260.545 8.09333 260.331 8.7 260.331 9.46V13.92C260.331 14.2933 260.218 14.5867 259.991 14.8C259.765 15.0133 259.458 15.12 259.071 15.12C258.685 15.12 258.378 15.0133 258.151 14.8C257.938 14.5867 257.831 14.2933 257.831 13.92V1.96C257.831 1.61333 257.945 1.33333 258.171 1.12C258.411 0.906666 258.718 0.799999 259.091 0.799999C259.465 0.799999 259.765 0.899999 259.991 1.1C260.218 1.3 260.331 1.57333 260.331 1.92V6.58C260.665 6.06 261.105 5.66667 261.651 5.4C262.211 5.12 262.845 4.98 263.551 4.98ZM280.04 13.26C280.707 13.3 281.04 13.6 281.04 14.16C281.04 14.48 280.907 14.7267 280.64 14.9C280.387 15.06 280.02 15.1267 279.54 15.1L279 15.06C276.76 14.9 275.64 13.7 275.64 11.46V7.1H274.64C274.28 7.1 274 7.02 273.8 6.86C273.613 6.7 273.52 6.46667 273.52 6.16C273.52 5.85333 273.613 5.62 273.8 5.46C274 5.3 274.28 5.22 274.64 5.22H275.64V3.38C275.64 3.02 275.753 2.73333 275.98 2.52C276.207 2.30667 276.513 2.2 276.9 2.2C277.273 2.2 277.573 2.30667 277.8 2.52C278.027 2.73333 278.14 3.02 278.14 3.38V5.22H279.84C280.2 5.22 280.473 5.3 280.66 5.46C280.86 5.62 280.96 5.85333 280.96 6.16C280.96 6.46667 280.86 6.7 280.66 6.86C280.473 7.02 280.2 7.1 279.84 7.1H278.14V11.64C278.14 12.6267 278.593 13.1533 279.5 13.22L280.04 13.26ZM288.063 4.98C290.356 4.98 291.503 6.32 291.503 9V13.92C291.503 14.2933 291.39 14.5867 291.163 14.8C290.95 15.0133 290.65 15.12 290.263 15.12C289.876 15.12 289.57 15.0133 289.343 14.8C289.116 14.5867 289.003 14.2933 289.003 13.92V9C289.003 8.29333 288.856 7.78 288.563 7.46C288.283 7.12667 287.836 6.96 287.223 6.96C286.503 6.96 285.923 7.18667 285.483 7.64C285.056 8.09333 284.843 8.7 284.843 9.46V13.92C284.843 14.2933 284.73 14.5867 284.503 14.8C284.276 15.0133 283.97 15.12 283.583 15.12C283.196 15.12 282.89 15.0133 282.663 14.8C282.45 14.5867 282.343 14.2933 282.343 13.92V1.96C282.343 1.61333 282.456 1.33333 282.683 1.12C282.923 0.906666 283.23 0.799999 283.603 0.799999C283.976 0.799999 284.276 0.899999 284.503 1.1C284.73 1.3 284.843 1.57333 284.843 1.92V6.58C285.176 6.06 285.616 5.66667 286.163 5.4C286.723 5.12 287.356 4.98 288.063 4.98ZM301.782 12.32C302.009 12.32 302.189 12.4067 302.322 12.58C302.469 12.7533 302.542 12.9867 302.542 13.28C302.542 13.6933 302.296 14.04 301.802 14.32C301.349 14.5733 300.836 14.78 300.262 14.94C299.689 15.0867 299.142 15.16 298.622 15.16C297.049 15.16 295.802 14.7067 294.882 13.8C293.962 12.8933 293.502 11.6533 293.502 10.08C293.502 9.08 293.702 8.19333 294.102 7.42C294.502 6.64667 295.062 6.04667 295.782 5.62C296.516 5.19333 297.342 4.98 298.262 4.98C299.142 4.98 299.909 5.17333 300.562 5.56C301.216 5.94667 301.722 6.49333 302.082 7.2C302.442 7.90667 302.622 8.74 302.622 9.7C302.622 10.2733 302.369 10.56 301.862 10.56H295.962C296.042 11.48 296.302 12.16 296.742 12.6C297.182 13.0267 297.822 13.24 298.662 13.24C299.089 13.24 299.462 13.1867 299.782 13.08C300.116 12.9733 300.489 12.8267 300.902 12.64C301.302 12.4267 301.596 12.32 301.782 12.32ZM298.322 6.74C297.642 6.74 297.096 6.95333 296.682 7.38C296.282 7.80667 296.042 8.42 295.962 9.22H300.482C300.456 8.40667 300.256 7.79333 299.882 7.38C299.509 6.95333 298.989 6.74 298.322 6.74ZM315.037 2.76C314.424 2.8 313.977 2.98667 313.697 3.32C313.417 3.65333 313.277 4.13333 313.277 4.76V5.22H314.977C315.724 5.22 316.097 5.53333 316.097 6.16C316.097 6.78667 315.724 7.1 314.977 7.1H313.277V13.92C313.277 14.3067 313.157 14.6 312.917 14.8C312.69 15 312.397 15.1 312.037 15.1C311.677 15.1 311.377 15 311.137 14.8C310.897 14.6 310.777 14.3067 310.777 13.92V7.1H309.777C309.03 7.1 308.657 6.78667 308.657 6.16C308.657 5.53333 309.03 5.22 309.777 5.22H310.777V5.08C310.777 3.82667 311.104 2.84667 311.757 2.14C312.424 1.42 313.357 1.01333 314.557 0.919999L315.077 0.879999C315.61 0.839999 315.984 0.899999 316.197 1.06C316.424 1.20667 316.537 1.44 316.537 1.76C316.537 2.33333 316.21 2.65333 315.557 2.72L315.037 2.76ZM322.725 5.02C323.072 4.99333 323.345 5.06667 323.545 5.24C323.745 5.41333 323.845 5.67333 323.845 6.02C323.845 6.38 323.758 6.64667 323.585 6.82C323.412 6.99333 323.098 7.10667 322.645 7.16L322.045 7.22C321.258 7.3 320.678 7.56667 320.305 8.02C319.945 8.47333 319.765 9.04 319.765 9.72V13.92C319.765 14.3067 319.645 14.6067 319.405 14.82C319.165 15.02 318.865 15.12 318.505 15.12C318.145 15.12 317.845 15.02 317.605 14.82C317.378 14.6067 317.265 14.3067 317.265 13.92V6.18C317.265 5.80667 317.378 5.52 317.605 5.32C317.845 5.12 318.138 5.02 318.485 5.02C318.832 5.02 319.112 5.12 319.325 5.32C319.538 5.50667 319.645 5.78 319.645 6.14V6.94C319.898 6.35333 320.272 5.9 320.765 5.58C321.272 5.26 321.832 5.08 322.445 5.04L322.725 5.02ZM329.122 4.98C330.482 4.98 331.489 5.32 332.142 6C332.809 6.66667 333.142 7.68667 333.142 9.06V13.94C333.142 14.3 333.035 14.5867 332.822 14.8C332.609 15 332.315 15.1 331.942 15.1C331.595 15.1 331.309 14.9933 331.082 14.78C330.869 14.5667 330.762 14.2867 330.762 13.94V13.5C330.535 14.02 330.175 14.4267 329.682 14.72C329.202 15.0133 328.642 15.16 328.002 15.16C327.349 15.16 326.755 15.0267 326.222 14.76C325.689 14.4933 325.269 14.1267 324.962 13.66C324.655 13.1933 324.502 12.6733 324.502 12.1C324.502 11.38 324.682 10.8133 325.042 10.4C325.415 9.98667 326.015 9.68667 326.842 9.5C327.669 9.31333 328.809 9.22 330.262 9.22H330.762V8.76C330.762 8.10667 330.622 7.63333 330.342 7.34C330.062 7.03333 329.609 6.88 328.982 6.88C328.595 6.88 328.202 6.94 327.802 7.06C327.402 7.16667 326.929 7.32667 326.382 7.54C326.035 7.71333 325.782 7.8 325.622 7.8C325.382 7.8 325.182 7.71333 325.022 7.54C324.875 7.36667 324.802 7.14 324.802 6.86C324.802 6.63333 324.855 6.44 324.962 6.28C325.082 6.10667 325.275 5.94667 325.542 5.8C326.009 5.54667 326.562 5.34667 327.202 5.2C327.855 5.05333 328.495 4.98 329.122 4.98ZM328.502 13.36C329.169 13.36 329.709 13.14 330.122 12.7C330.549 12.2467 330.762 11.6667 330.762 10.96V10.54H330.402C329.509 10.54 328.815 10.58 328.322 10.66C327.829 10.74 327.475 10.88 327.262 11.08C327.049 11.28 326.942 11.5533 326.942 11.9C326.942 12.3267 327.089 12.68 327.382 12.96C327.689 13.2267 328.062 13.36 328.502 13.36ZM340.023 15.16C339.049 15.16 338.189 14.9533 337.443 14.54C336.709 14.1267 336.143 13.54 335.743 12.78C335.343 12.02 335.143 11.1333 335.143 10.12C335.143 9.10667 335.349 8.21333 335.763 7.44C336.189 6.65333 336.783 6.04667 337.543 5.62C338.303 5.19333 339.176 4.98 340.163 4.98C340.683 4.98 341.203 5.05333 341.723 5.2C342.256 5.34667 342.723 5.54667 343.123 5.8C343.549 6.08 343.763 6.43333 343.763 6.86C343.763 7.15333 343.689 7.39333 343.543 7.58C343.409 7.75333 343.229 7.84 343.003 7.84C342.856 7.84 342.703 7.80667 342.543 7.74C342.383 7.67333 342.223 7.59333 342.063 7.5C341.769 7.32667 341.489 7.19333 341.223 7.1C340.956 6.99333 340.649 6.94 340.303 6.94C339.476 6.94 338.836 7.21333 338.383 7.76C337.943 8.29333 337.723 9.06667 337.723 10.08C337.723 11.08 337.943 11.8533 338.383 12.4C338.836 12.9333 339.476 13.2 340.303 13.2C340.636 13.2 340.929 13.1533 341.183 13.06C341.449 12.9533 341.743 12.8133 342.063 12.64C342.263 12.52 342.436 12.4333 342.583 12.38C342.729 12.3133 342.876 12.28 343.023 12.28C343.236 12.28 343.416 12.3733 343.563 12.56C343.709 12.7467 343.783 12.98 343.783 13.26C343.783 13.4867 343.729 13.6867 343.623 13.86C343.529 14.02 343.369 14.1667 343.143 14.3C342.729 14.5667 342.249 14.78 341.703 14.94C341.156 15.0867 340.596 15.16 340.023 15.16ZM350.587 13.26C351.254 13.3 351.587 13.6 351.587 14.16C351.587 14.48 351.454 14.7267 351.187 14.9C350.934 15.06 350.567 15.1267 350.087 15.1L349.547 15.06C347.307 14.9 346.187 13.7 346.187 11.46V7.1H345.187C344.827 7.1 344.547 7.02 344.347 6.86C344.16 6.7 344.067 6.46667 344.067 6.16C344.067 5.85333 344.16 5.62 344.347 5.46C344.547 5.3 344.827 5.22 345.187 5.22H346.187V3.38C346.187 3.02 346.3 2.73333 346.527 2.52C346.754 2.30667 347.06 2.2 347.447 2.2C347.82 2.2 348.12 2.30667 348.347 2.52C348.574 2.73333 348.687 3.02 348.687 3.38V5.22H350.387C350.747 5.22 351.02 5.3 351.207 5.46C351.407 5.62 351.507 5.85333 351.507 6.16C351.507 6.46667 351.407 6.7 351.207 6.86C351.02 7.02 350.747 7.1 350.387 7.1H348.687V11.64C348.687 12.6267 349.14 13.1533 350.047 13.22L350.587 13.26ZM354.13 15.12C353.77 15.12 353.47 15.02 353.23 14.82C353.003 14.6067 352.89 14.3067 352.89 13.92V6.2C352.89 5.81333 353.003 5.52 353.23 5.32C353.47 5.12 353.77 5.02 354.13 5.02C354.49 5.02 354.79 5.12 355.03 5.32C355.27 5.52 355.39 5.81333 355.39 6.2V13.92C355.39 14.3067 355.27 14.6067 355.03 14.82C354.79 15.02 354.49 15.12 354.13 15.12ZM354.13 3.24C353.677 3.24 353.317 3.12 353.05 2.88C352.783 2.62667 352.65 2.3 352.65 1.9C352.65 1.5 352.783 1.18 353.05 0.94C353.317 0.7 353.677 0.58 354.13 0.58C354.57 0.58 354.923 0.7 355.19 0.94C355.47 1.18 355.61 1.5 355.61 1.9C355.61 2.3 355.477 2.62667 355.21 2.88C354.943 3.12 354.583 3.24 354.13 3.24ZM362.428 15.16C361.428 15.16 360.548 14.9533 359.788 14.54C359.041 14.1267 358.461 13.5333 358.048 12.76C357.635 11.9867 357.428 11.0867 357.428 10.06C357.428 9.03333 357.635 8.14 358.048 7.38C358.461 6.60667 359.041 6.01333 359.788 5.6C360.548 5.18667 361.428 4.98 362.428 4.98C363.428 4.98 364.301 5.18667 365.048 5.6C365.808 6.01333 366.388 6.60667 366.788 7.38C367.201 8.14 367.408 9.03333 367.408 10.06C367.408 11.0867 367.201 11.9867 366.788 12.76C366.388 13.5333 365.808 14.1267 365.048 14.54C364.301 14.9533 363.428 15.16 362.428 15.16ZM362.408 13.22C363.221 13.22 363.841 12.9533 364.268 12.42C364.695 11.8867 364.908 11.1 364.908 10.06C364.908 9.03333 364.695 8.25333 364.268 7.72C363.841 7.17333 363.228 6.9 362.428 6.9C361.628 6.9 361.008 7.17333 360.568 7.72C360.141 8.25333 359.928 9.03333 359.928 10.06C359.928 11.1 360.141 11.8867 360.568 12.42C360.995 12.9533 361.608 13.22 362.408 13.22ZM375.152 4.98C376.325 4.98 377.199 5.31333 377.772 5.98C378.345 6.64667 378.632 7.65333 378.632 9V13.92C378.632 14.2933 378.519 14.5867 378.292 14.8C378.079 15.0133 377.779 15.12 377.392 15.12C377.005 15.12 376.699 15.0133 376.472 14.8C376.245 14.5867 376.132 14.2933 376.132 13.92V9.14C376.132 8.38 375.985 7.82667 375.692 7.48C375.412 7.13333 374.965 6.96 374.352 6.96C373.632 6.96 373.052 7.18667 372.612 7.64C372.185 8.09333 371.972 8.7 371.972 9.46V13.92C371.972 14.2933 371.859 14.5867 371.632 14.8C371.405 15.0133 371.099 15.12 370.712 15.12C370.325 15.12 370.019 15.0133 369.792 14.8C369.579 14.5867 369.472 14.2933 369.472 13.92V6.18C369.472 5.83333 369.585 5.55333 369.812 5.34C370.039 5.12667 370.345 5.02 370.732 5.02C371.079 5.02 371.359 5.12667 371.572 5.34C371.799 5.54 371.912 5.80667 371.912 6.14V6.68C372.245 6.13333 372.692 5.71333 373.252 5.42C373.812 5.12667 374.445 4.98 375.152 4.98ZM384.711 15.16C383.258 15.16 382.084 14.8733 381.191 14.3C380.764 14.0467 380.551 13.6867 380.551 13.22C380.551 12.9533 380.624 12.74 380.771 12.58C380.918 12.4067 381.098 12.32 381.311 12.32C381.538 12.32 381.851 12.4267 382.251 12.64C382.678 12.84 383.064 12.9933 383.411 13.1C383.771 13.2067 384.224 13.26 384.771 13.26C385.331 13.26 385.764 13.1667 386.071 12.98C386.391 12.7933 386.551 12.5333 386.551 12.2C386.551 11.9733 386.484 11.7933 386.351 11.66C386.231 11.5267 386.004 11.4067 385.671 11.3C385.351 11.18 384.858 11.0467 384.191 10.9C383.004 10.66 382.151 10.32 381.631 9.88C381.124 9.44 380.871 8.83333 380.871 8.06C380.871 7.47333 381.044 6.94667 381.391 6.48C381.738 6 382.211 5.63333 382.811 5.38C383.424 5.11333 384.118 4.98 384.891 4.98C385.451 4.98 385.991 5.05333 386.511 5.2C387.031 5.33333 387.498 5.53333 387.911 5.8C388.338 6.06667 388.551 6.42 388.551 6.86C388.551 7.12667 388.478 7.35333 388.331 7.54C388.184 7.71333 388.004 7.8 387.791 7.8C387.644 7.8 387.498 7.77333 387.351 7.72C387.218 7.65333 387.044 7.56 386.831 7.44C386.444 7.24 386.111 7.09333 385.831 7C385.551 6.89333 385.204 6.84 384.791 6.84C384.298 6.84 383.904 6.94 383.611 7.14C383.331 7.34 383.191 7.61333 383.191 7.96C383.191 8.29333 383.338 8.54667 383.631 8.72C383.924 8.89333 384.491 9.06667 385.331 9.24C386.224 9.42667 386.924 9.64 387.431 9.88C387.938 10.12 388.298 10.42 388.511 10.78C388.738 11.14 388.851 11.6 388.851 12.16C388.851 13.0667 388.471 13.7933 387.711 14.34C386.964 14.8867 385.964 15.16 384.711 15.16ZM391.96 15.12C391.534 15.12 391.18 14.98 390.9 14.7C390.62 14.4067 390.48 14.0467 390.48 13.62C390.48 13.1933 390.62 12.84 390.9 12.56C391.18 12.2667 391.534 12.12 391.96 12.12C392.387 12.12 392.74 12.2667 393.02 12.56C393.3 12.84 393.44 13.1933 393.44 13.62C393.44 14.0467 393.3 14.4067 393.02 14.7C392.74 14.98 392.387 15.12 391.96 15.12Z" fill="#444444"/>
</svg>
