<svg width="588" height="19" viewBox="0 0 588 19" fill="none" xmlns="http://www.w3.org/2000/svg">
<path d="M3.5985 15.16C3.18516 15.16 2.85849 15.0467 2.61849 14.82C2.39183 14.58 2.2785 14.24 2.2785 13.8V2.26C2.2785 1.82 2.39183 1.48667 2.61849 1.26C2.85849 1.02 3.19849 0.899999 3.6385 0.899999H10.6185C10.9652 0.899999 11.2252 0.986666 11.3985 1.16C11.5718 1.33333 11.6585 1.58 11.6585 1.9C11.6585 2.23333 11.5718 2.49333 11.3985 2.68C11.2252 2.85333 10.9652 2.94 10.6185 2.94H4.8385V6.92H10.1985C10.5318 6.92 10.7852 7.00667 10.9585 7.18C11.1452 7.35333 11.2385 7.6 11.2385 7.92C11.2385 8.25333 11.1452 8.51333 10.9585 8.7C10.7852 8.87333 10.5318 8.96 10.1985 8.96H4.8385V13.8C4.8385 14.7067 4.42516 15.16 3.5985 15.16ZM14.3537 15.16C13.9403 15.16 13.6203 15.0533 13.3937 14.84C13.1803 14.6133 13.0737 14.2933 13.0737 13.88V6.32C13.0737 5.90667 13.1803 5.59333 13.3937 5.38C13.607 5.16667 13.907 5.06 14.2937 5.06C14.6803 5.06 14.9803 5.16667 15.1937 5.38C15.407 5.59333 15.5137 5.90667 15.5137 6.32V7.58H15.3137C15.5003 6.78 15.867 6.17333 16.4137 5.76C16.9603 5.34667 17.687 5.1 18.5937 5.02C18.8737 4.99333 19.0937 5.06667 19.2537 5.24C19.427 5.4 19.527 5.65333 19.5537 6C19.5803 6.33333 19.5003 6.60667 19.3137 6.82C19.1403 7.02 18.8737 7.14 18.5137 7.18L18.0737 7.22C17.2603 7.3 16.647 7.55333 16.2337 7.98C15.8203 8.39333 15.6137 8.98 15.6137 9.74V13.88C15.6137 14.2933 15.507 14.6133 15.2937 14.84C15.0803 15.0533 14.767 15.16 14.3537 15.16ZM24.028 15.2C23.3214 15.2 22.688 15.0667 22.128 14.8C21.5814 14.52 21.148 14.1467 20.828 13.68C20.5214 13.2133 20.368 12.6867 20.368 12.1C20.368 11.38 20.5547 10.8133 20.928 10.4C21.3014 9.97333 21.908 9.66667 22.748 9.48C23.588 9.29333 24.7147 9.2 26.128 9.2H27.128V10.64H26.148C25.3214 10.64 24.6614 10.68 24.168 10.76C23.6747 10.84 23.3214 10.98 23.108 11.18C22.908 11.3667 22.808 11.6333 22.808 11.98C22.808 12.42 22.9614 12.78 23.268 13.06C23.5747 13.34 24.0014 13.48 24.548 13.48C24.988 13.48 25.3747 13.38 25.708 13.18C26.0547 12.9667 26.328 12.68 26.528 12.32C26.728 11.96 26.828 11.5467 26.828 11.08V8.78C26.828 8.11333 26.6814 7.63333 26.388 7.34C26.0947 7.04667 25.6014 6.9 24.908 6.9C24.5214 6.9 24.1014 6.94667 23.648 7.04C23.208 7.13333 22.7414 7.29333 22.248 7.52C21.9947 7.64 21.768 7.67333 21.568 7.62C21.3814 7.56667 21.2347 7.46 21.128 7.3C21.0214 7.12667 20.968 6.94 20.968 6.74C20.968 6.54 21.0214 6.34667 21.128 6.16C21.2347 5.96 21.4147 5.81333 21.668 5.72C22.2814 5.46667 22.868 5.28667 23.428 5.18C24.0014 5.07333 24.5214 5.02 24.988 5.02C25.948 5.02 26.7347 5.16667 27.348 5.46C27.9747 5.75333 28.4414 6.2 28.748 6.8C29.0547 7.38667 29.208 8.14667 29.208 9.08V13.88C29.208 14.2933 29.108 14.6133 28.908 14.84C28.708 15.0533 28.4214 15.16 28.048 15.16C27.6747 15.16 27.3814 15.0533 27.168 14.84C26.968 14.6133 26.868 14.2933 26.868 13.88V12.92H27.028C26.9347 13.3867 26.748 13.7933 26.468 14.14C26.2014 14.4733 25.8614 14.7333 25.448 14.92C25.0347 15.1067 24.5614 15.2 24.028 15.2ZM36.2655 15.2C35.2389 15.2 34.3455 14.9933 33.5855 14.58C32.8255 14.1533 32.2389 13.5533 31.8255 12.78C31.4122 12.0067 31.2055 11.1 31.2055 10.06C31.2055 9.27333 31.3189 8.57333 31.5455 7.96C31.7855 7.33333 32.1255 6.80667 32.5655 6.38C33.0055 5.94 33.5389 5.60667 34.1655 5.38C34.7922 5.14 35.4922 5.02 36.2655 5.02C36.7055 5.02 37.1789 5.08 37.6855 5.2C38.2055 5.32 38.6922 5.52 39.1455 5.8C39.3589 5.93333 39.4989 6.09333 39.5655 6.28C39.6322 6.46667 39.6455 6.66 39.6055 6.86C39.5655 7.04667 39.4789 7.21333 39.3455 7.36C39.2255 7.49333 39.0722 7.58 38.8855 7.62C38.6989 7.64667 38.4922 7.6 38.2655 7.48C37.9722 7.30667 37.6722 7.18 37.3655 7.1C37.0589 7.00667 36.7655 6.96 36.4855 6.96C36.0455 6.96 35.6589 7.03333 35.3255 7.18C34.9922 7.31333 34.7055 7.51333 34.4655 7.78C34.2389 8.03333 34.0655 8.35333 33.9455 8.74C33.8255 9.12667 33.7655 9.57333 33.7655 10.08C33.7655 11.0667 33.9989 11.8467 34.4655 12.42C34.9455 12.98 35.6189 13.26 36.4855 13.26C36.7655 13.26 37.0522 13.22 37.3455 13.14C37.6522 13.06 37.9589 12.9333 38.2655 12.76C38.4922 12.64 38.6922 12.6 38.8655 12.64C39.0522 12.68 39.2055 12.7733 39.3255 12.92C39.4455 13.0533 39.5189 13.22 39.5455 13.42C39.5722 13.6067 39.5455 13.7933 39.4655 13.98C39.3989 14.1667 39.2655 14.32 39.0655 14.44C38.6255 14.7067 38.1589 14.9 37.6655 15.02C37.1722 15.14 36.7055 15.2 36.2655 15.2ZM45.6982 15.2C44.8315 15.2 44.1048 15.0533 43.5182 14.76C42.9448 14.4667 42.5182 14.04 42.2382 13.48C41.9582 12.9067 41.8182 12.2 41.8182 11.36V7.1H40.7782C40.4582 7.1 40.2115 7.02 40.0382 6.86C39.8648 6.68667 39.7782 6.45333 39.7782 6.16C39.7782 5.85333 39.8648 5.62 40.0382 5.46C40.2115 5.3 40.4582 5.22 40.7782 5.22H41.8182V3.4C41.8182 2.98667 41.9248 2.67333 42.1382 2.46C42.3648 2.24667 42.6782 2.14 43.0782 2.14C43.4782 2.14 43.7848 2.24667 43.9982 2.46C44.2115 2.67333 44.3182 2.98667 44.3182 3.4V5.22H46.4382C46.7582 5.22 47.0048 5.3 47.1782 5.46C47.3515 5.62 47.4382 5.85333 47.4382 6.16C47.4382 6.45333 47.3515 6.68667 47.1782 6.86C47.0048 7.02 46.7582 7.1 46.4382 7.1H44.3182V11.22C44.3182 11.86 44.4582 12.34 44.7382 12.66C45.0182 12.98 45.4715 13.14 46.0982 13.14C46.3248 13.14 46.5248 13.12 46.6982 13.08C46.8715 13.04 47.0248 13.0133 47.1582 13C47.3182 12.9867 47.4515 13.04 47.5582 13.16C47.6648 13.2667 47.7182 13.4933 47.7182 13.84C47.7182 14.1067 47.6715 14.3467 47.5782 14.56C47.4982 14.76 47.3448 14.9 47.1182 14.98C46.9448 15.0333 46.7182 15.08 46.4382 15.12C46.1582 15.1733 45.9115 15.2 45.6982 15.2ZM50.3879 15.14C49.9879 15.14 49.6812 15.02 49.4679 14.78C49.2545 14.54 49.1479 14.2067 49.1479 13.78V6.44C49.1479 6 49.2545 5.66667 49.4679 5.44C49.6812 5.2 49.9879 5.08 50.3879 5.08C50.7879 5.08 51.0945 5.2 51.3079 5.44C51.5345 5.66667 51.6479 6 51.6479 6.44V13.78C51.6479 14.2067 51.5412 14.54 51.3279 14.78C51.1145 15.02 50.8012 15.14 50.3879 15.14ZM50.3879 3.22C49.9212 3.22 49.5545 3.10667 49.2879 2.88C49.0345 2.64 48.9079 2.31333 48.9079 1.9C48.9079 1.47333 49.0345 1.14667 49.2879 0.919999C49.5545 0.693333 49.9212 0.58 50.3879 0.58C50.8679 0.58 51.2345 0.693333 51.4879 0.919999C51.7412 1.14667 51.8679 1.47333 51.8679 1.9C51.8679 2.31333 51.7412 2.64 51.4879 2.88C51.2345 3.10667 50.8679 3.22 50.3879 3.22ZM58.7055 15.2C57.6922 15.2 56.8122 14.9933 56.0655 14.58C55.3189 14.1667 54.7389 13.58 54.3255 12.82C53.9122 12.0467 53.7055 11.14 53.7055 10.1C53.7055 9.31333 53.8189 8.61333 54.0455 8C54.2855 7.37333 54.6255 6.84 55.0655 6.4C55.5055 5.94667 56.0322 5.60667 56.6455 5.38C57.2589 5.14 57.9455 5.02 58.7055 5.02C59.7189 5.02 60.5989 5.22667 61.3455 5.64C62.0922 6.05333 62.6722 6.64 63.0855 7.4C63.4989 8.16 63.7055 9.06 63.7055 10.1C63.7055 10.8867 63.5855 11.5933 63.3455 12.22C63.1189 12.8467 62.7855 13.3867 62.3455 13.84C61.9055 14.28 61.3789 14.62 60.7655 14.86C60.1522 15.0867 59.4655 15.2 58.7055 15.2ZM58.7055 13.3C59.1989 13.3 59.6322 13.18 60.0055 12.94C60.3789 12.7 60.6655 12.3467 60.8655 11.88C61.0789 11.4 61.1855 10.8067 61.1855 10.1C61.1855 9.03333 60.9589 8.24 60.5055 7.72C60.0522 7.18667 59.4522 6.92 58.7055 6.92C58.2122 6.92 57.7789 7.04 57.4055 7.28C57.0322 7.50667 56.7389 7.86 56.5255 8.34C56.3255 8.80667 56.2255 9.39333 56.2255 10.1C56.2255 11.1533 56.4522 11.9533 56.9055 12.5C57.3589 13.0333 57.9589 13.3 58.7055 13.3ZM67.009 15.16C66.609 15.16 66.3023 15.0533 66.089 14.84C65.8756 14.6133 65.769 14.2933 65.769 13.88V6.32C65.769 5.90667 65.8756 5.59333 66.089 5.38C66.3023 5.16667 66.6023 5.06 66.989 5.06C67.3756 5.06 67.6756 5.16667 67.889 5.38C68.1023 5.59333 68.209 5.90667 68.209 6.32V7.68L67.989 7.18C68.2823 6.47333 68.7356 5.94 69.349 5.58C69.9756 5.20667 70.6823 5.02 71.469 5.02C72.2556 5.02 72.9023 5.16667 73.409 5.46C73.9156 5.75333 74.2956 6.2 74.549 6.8C74.8023 7.38667 74.929 8.13333 74.929 9.04V13.88C74.929 14.2933 74.8223 14.6133 74.609 14.84C74.3956 15.0533 74.089 15.16 73.689 15.16C73.289 15.16 72.9756 15.0533 72.749 14.84C72.5356 14.6133 72.429 14.2933 72.429 13.88V9.16C72.429 8.4 72.2823 7.84667 71.989 7.5C71.709 7.15333 71.269 6.98 70.669 6.98C69.9356 6.98 69.349 7.21333 68.909 7.68C68.4823 8.13333 68.269 8.74 68.269 9.5V13.88C68.269 14.7333 67.849 15.16 67.009 15.16ZM81.0482 15.2C80.4748 15.2 79.8682 15.14 79.2282 15.02C78.5882 14.9 78.0148 14.6933 77.5082 14.4C77.2948 14.2667 77.1415 14.1133 77.0482 13.94C76.9682 13.7533 76.9348 13.5733 76.9482 13.4C76.9748 13.2133 77.0415 13.0533 77.1482 12.92C77.2682 12.7867 77.4148 12.7 77.5882 12.66C77.7748 12.62 77.9748 12.6533 78.1882 12.76C78.7215 13.0133 79.2215 13.1933 79.6882 13.3C80.1548 13.3933 80.6148 13.44 81.0682 13.44C81.7082 13.44 82.1815 13.3333 82.4882 13.12C82.8082 12.8933 82.9682 12.6 82.9682 12.24C82.9682 11.9333 82.8615 11.7 82.6482 11.54C82.4482 11.3667 82.1415 11.24 81.7282 11.16L79.7282 10.78C78.9015 10.62 78.2682 10.32 77.8282 9.88C77.4015 9.42667 77.1882 8.84667 77.1882 8.14C77.1882 7.5 77.3615 6.94667 77.7082 6.48C78.0682 6.01333 78.5615 5.65333 79.1882 5.4C79.8148 5.14667 80.5348 5.02 81.3482 5.02C81.9348 5.02 82.4815 5.08667 82.9882 5.22C83.5082 5.34 84.0082 5.53333 84.4882 5.8C84.6882 5.90667 84.8215 6.04667 84.8882 6.22C84.9682 6.39333 84.9882 6.57333 84.9482 6.76C84.9082 6.93333 84.8282 7.09333 84.7082 7.24C84.5882 7.37333 84.4348 7.46 84.2482 7.5C84.0748 7.52667 83.8748 7.48667 83.6482 7.38C83.2348 7.16667 82.8348 7.01333 82.4482 6.92C82.0748 6.82667 81.7148 6.78 81.3682 6.78C80.7148 6.78 80.2282 6.89333 79.9082 7.12C79.6015 7.34667 79.4482 7.64667 79.4482 8.02C79.4482 8.3 79.5415 8.53333 79.7282 8.72C79.9148 8.90667 80.2015 9.03333 80.5882 9.1L82.5882 9.48C83.4548 9.64 84.1082 9.93333 84.5482 10.36C85.0015 10.7867 85.2282 11.36 85.2282 12.08C85.2282 13.0533 84.8482 13.82 84.0882 14.38C83.3282 14.9267 82.3148 15.2 81.0482 15.2ZM97.1235 15.2C96.1102 15.2 95.2302 14.9933 94.4835 14.58C93.7368 14.1667 93.1568 13.58 92.7435 12.82C92.3302 12.0467 92.1235 11.14 92.1235 10.1C92.1235 9.31333 92.2368 8.61333 92.4635 8C92.7035 7.37333 93.0435 6.84 93.4835 6.4C93.9235 5.94667 94.4502 5.60667 95.0635 5.38C95.6768 5.14 96.3635 5.02 97.1235 5.02C98.1368 5.02 99.0168 5.22667 99.7635 5.64C100.51 6.05333 101.09 6.64 101.503 7.4C101.917 8.16 102.123 9.06 102.123 10.1C102.123 10.8867 102.003 11.5933 101.763 12.22C101.537 12.8467 101.203 13.3867 100.763 13.84C100.323 14.28 99.7968 14.62 99.1835 14.86C98.5702 15.0867 97.8835 15.2 97.1235 15.2ZM97.1235 13.3C97.6168 13.3 98.0502 13.18 98.4235 12.94C98.7968 12.7 99.0835 12.3467 99.2835 11.88C99.4968 11.4 99.6035 10.8067 99.6035 10.1C99.6035 9.03333 99.3768 8.24 98.9235 7.72C98.4702 7.18667 97.8702 6.92 97.1235 6.92C96.6302 6.92 96.1968 7.04 95.8235 7.28C95.4502 7.50667 95.1568 7.86 94.9435 8.34C94.7435 8.80667 94.6435 9.39333 94.6435 10.1C94.6435 11.1533 94.8702 11.9533 95.3235 12.5C95.7768 13.0333 96.3768 13.3 97.1235 13.3ZM106.009 15.16C105.609 15.16 105.296 15.0533 105.069 14.84C104.856 14.6133 104.749 14.2933 104.749 13.88V7.1H103.829C103.509 7.1 103.263 7.02 103.089 6.86C102.916 6.68667 102.829 6.45333 102.829 6.16C102.829 5.85333 102.916 5.62 103.089 5.46C103.263 5.3 103.509 5.22 103.829 5.22H105.469L104.749 5.88V5.2C104.749 3.82667 105.096 2.8 105.789 2.12C106.483 1.42667 107.483 1.02 108.789 0.899999L109.469 0.84C109.736 0.813333 109.949 0.859999 110.109 0.979999C110.269 1.08667 110.376 1.23333 110.429 1.42C110.483 1.59333 110.489 1.77333 110.449 1.96C110.409 2.14667 110.323 2.31333 110.189 2.46C110.069 2.59333 109.909 2.66667 109.709 2.68L109.429 2.7C108.669 2.75333 108.116 2.94667 107.769 3.28C107.423 3.61333 107.249 4.12 107.249 4.8V5.54L106.929 5.22H108.949C109.269 5.22 109.516 5.3 109.689 5.46C109.863 5.62 109.949 5.85333 109.949 6.16C109.949 6.45333 109.863 6.68667 109.689 6.86C109.516 7.02 109.269 7.1 108.949 7.1H107.249V13.88C107.249 14.7333 106.836 15.16 106.009 15.16ZM121.364 18.8C120.644 18.8 119.944 18.7333 119.264 18.6C118.597 18.4667 117.991 18.26 117.444 17.98C117.191 17.8467 117.017 17.6867 116.924 17.5C116.844 17.3133 116.817 17.12 116.844 16.92C116.884 16.7333 116.964 16.5667 117.084 16.42C117.217 16.2733 117.377 16.1733 117.564 16.12C117.751 16.0667 117.944 16.0933 118.144 16.2C118.731 16.4933 119.284 16.68 119.804 16.76C120.337 16.8533 120.791 16.9 121.164 16.9C122.057 16.9 122.724 16.68 123.164 16.24C123.617 15.8133 123.844 15.1733 123.844 14.32V12.52H124.024C123.824 13.2 123.404 13.7467 122.764 14.16C122.137 14.56 121.424 14.76 120.624 14.76C119.744 14.76 118.977 14.56 118.324 14.16C117.671 13.7467 117.164 13.1733 116.804 12.44C116.444 11.7067 116.264 10.8533 116.264 9.88C116.264 9.14667 116.364 8.48667 116.564 7.9C116.777 7.3 117.071 6.78667 117.444 6.36C117.831 5.93333 118.291 5.60667 118.824 5.38C119.371 5.14 119.971 5.02 120.624 5.02C121.451 5.02 122.171 5.22667 122.784 5.64C123.411 6.04 123.817 6.57333 124.004 7.24L123.804 7.74V6.32C123.804 5.90667 123.911 5.59333 124.124 5.38C124.351 5.16667 124.657 5.06 125.044 5.06C125.444 5.06 125.751 5.16667 125.964 5.38C126.177 5.59333 126.284 5.90667 126.284 6.32V14.02C126.284 15.6067 125.864 16.8 125.024 17.6C124.184 18.4 122.964 18.8 121.364 18.8ZM121.304 12.86C121.824 12.86 122.271 12.74 122.644 12.5C123.017 12.26 123.304 11.92 123.504 11.48C123.717 11.0267 123.824 10.4933 123.824 9.88C123.824 8.96 123.597 8.24 123.144 7.72C122.691 7.18667 122.077 6.92 121.304 6.92C120.784 6.92 120.337 7.04 119.964 7.28C119.591 7.52 119.297 7.86 119.084 8.3C118.884 8.74 118.784 9.26667 118.784 9.88C118.784 10.8 119.011 11.5267 119.464 12.06C119.917 12.5933 120.531 12.86 121.304 12.86ZM130.154 15.16C129.741 15.16 129.421 15.0533 129.194 14.84C128.981 14.6133 128.874 14.2933 128.874 13.88V6.32C128.874 5.90667 128.981 5.59333 129.194 5.38C129.408 5.16667 129.708 5.06 130.094 5.06C130.481 5.06 130.781 5.16667 130.994 5.38C131.208 5.59333 131.314 5.90667 131.314 6.32V7.58H131.114C131.301 6.78 131.668 6.17333 132.214 5.76C132.761 5.34667 133.488 5.1 134.394 5.02C134.674 4.99333 134.894 5.06667 135.054 5.24C135.228 5.4 135.328 5.65333 135.354 6C135.381 6.33333 135.301 6.60667 135.114 6.82C134.941 7.02 134.674 7.14 134.314 7.18L133.874 7.22C133.061 7.3 132.448 7.55333 132.034 7.98C131.621 8.39333 131.414 8.98 131.414 9.74V13.88C131.414 14.2933 131.308 14.6133 131.094 14.84C130.881 15.0533 130.568 15.16 130.154 15.16ZM141.37 15.2C140.264 15.2 139.31 14.9933 138.51 14.58C137.71 14.1667 137.09 13.58 136.65 12.82C136.224 12.06 136.01 11.16 136.01 10.12C136.01 9.10667 136.217 8.22 136.63 7.46C137.057 6.7 137.637 6.10667 138.37 5.68C139.117 5.24 139.964 5.02 140.91 5.02C141.604 5.02 142.224 5.13333 142.77 5.36C143.33 5.58667 143.804 5.91333 144.19 6.34C144.59 6.76667 144.89 7.28667 145.09 7.9C145.304 8.5 145.41 9.18 145.41 9.94C145.41 10.18 145.324 10.3667 145.15 10.5C144.99 10.62 144.757 10.68 144.45 10.68H138.03V9.24H143.65L143.33 9.54C143.33 8.92667 143.237 8.41333 143.05 8C142.877 7.58667 142.617 7.27333 142.27 7.06C141.937 6.83333 141.517 6.72 141.01 6.72C140.45 6.72 139.97 6.85333 139.57 7.12C139.184 7.37333 138.884 7.74 138.67 8.22C138.47 8.68667 138.37 9.24667 138.37 9.9V10.04C138.37 11.1333 138.624 11.9533 139.13 12.5C139.65 13.0333 140.41 13.3 141.41 13.3C141.757 13.3 142.144 13.26 142.57 13.18C143.01 13.0867 143.424 12.9333 143.81 12.72C144.09 12.56 144.337 12.4933 144.55 12.52C144.764 12.5333 144.93 12.6067 145.05 12.74C145.184 12.8733 145.264 13.04 145.29 13.24C145.317 13.4267 145.277 13.62 145.17 13.82C145.077 14.02 144.91 14.1933 144.67 14.34C144.204 14.6333 143.664 14.8533 143.05 15C142.45 15.1333 141.89 15.2 141.37 15.2ZM152.21 15.2C151.103 15.2 150.15 14.9933 149.35 14.58C148.55 14.1667 147.93 13.58 147.49 12.82C147.063 12.06 146.85 11.16 146.85 10.12C146.85 9.10667 147.057 8.22 147.47 7.46C147.897 6.7 148.477 6.10667 149.21 5.68C149.957 5.24 150.803 5.02 151.75 5.02C152.443 5.02 153.063 5.13333 153.61 5.36C154.17 5.58667 154.643 5.91333 155.03 6.34C155.43 6.76667 155.73 7.28667 155.93 7.9C156.143 8.5 156.25 9.18 156.25 9.94C156.25 10.18 156.163 10.3667 155.99 10.5C155.83 10.62 155.597 10.68 155.29 10.68H148.87V9.24H154.49L154.17 9.54C154.17 8.92667 154.077 8.41333 153.89 8C153.717 7.58667 153.457 7.27333 153.11 7.06C152.777 6.83333 152.357 6.72 151.85 6.72C151.29 6.72 150.81 6.85333 150.41 7.12C150.023 7.37333 149.723 7.74 149.51 8.22C149.31 8.68667 149.21 9.24667 149.21 9.9V10.04C149.21 11.1333 149.463 11.9533 149.97 12.5C150.49 13.0333 151.25 13.3 152.25 13.3C152.597 13.3 152.983 13.26 153.41 13.18C153.85 13.0867 154.263 12.9333 154.65 12.72C154.93 12.56 155.177 12.4933 155.39 12.52C155.603 12.5333 155.77 12.6067 155.89 12.74C156.023 12.8733 156.103 13.04 156.13 13.24C156.157 13.4267 156.117 13.62 156.01 13.82C155.917 14.02 155.75 14.1933 155.51 14.34C155.043 14.6333 154.503 14.8533 153.89 15C153.29 15.1333 152.73 15.2 152.21 15.2ZM159.47 15.16C159.07 15.16 158.763 15.0533 158.55 14.84C158.337 14.6133 158.23 14.2933 158.23 13.88V6.32C158.23 5.90667 158.337 5.59333 158.55 5.38C158.763 5.16667 159.063 5.06 159.45 5.06C159.837 5.06 160.137 5.16667 160.35 5.38C160.563 5.59333 160.67 5.90667 160.67 6.32V7.68L160.45 7.18C160.743 6.47333 161.197 5.94 161.81 5.58C162.437 5.20667 163.143 5.02 163.93 5.02C164.717 5.02 165.363 5.16667 165.87 5.46C166.377 5.75333 166.757 6.2 167.01 6.8C167.263 7.38667 167.39 8.13333 167.39 9.04V13.88C167.39 14.2933 167.283 14.6133 167.07 14.84C166.857 15.0533 166.55 15.16 166.15 15.16C165.75 15.16 165.437 15.0533 165.21 14.84C164.997 14.6133 164.89 14.2933 164.89 13.88V9.16C164.89 8.4 164.743 7.84667 164.45 7.5C164.17 7.15333 163.73 6.98 163.13 6.98C162.397 6.98 161.81 7.21333 161.37 7.68C160.943 8.13333 160.73 8.74 160.73 9.5V13.88C160.73 14.7333 160.31 15.16 159.47 15.16ZM178.579 15.2C177.872 15.2 177.239 15.0667 176.679 14.8C176.132 14.52 175.699 14.1467 175.379 13.68C175.072 13.2133 174.919 12.6867 174.919 12.1C174.919 11.38 175.105 10.8133 175.479 10.4C175.852 9.97333 176.459 9.66667 177.299 9.48C178.139 9.29333 179.265 9.2 180.679 9.2H181.679V10.64H180.699C179.872 10.64 179.212 10.68 178.719 10.76C178.225 10.84 177.872 10.98 177.659 11.18C177.459 11.3667 177.359 11.6333 177.359 11.98C177.359 12.42 177.512 12.78 177.819 13.06C178.125 13.34 178.552 13.48 179.099 13.48C179.539 13.48 179.925 13.38 180.259 13.18C180.605 12.9667 180.879 12.68 181.079 12.32C181.279 11.96 181.379 11.5467 181.379 11.08V8.78C181.379 8.11333 181.232 7.63333 180.939 7.34C180.645 7.04667 180.152 6.9 179.459 6.9C179.072 6.9 178.652 6.94667 178.199 7.04C177.759 7.13333 177.292 7.29333 176.799 7.52C176.545 7.64 176.319 7.67333 176.119 7.62C175.932 7.56667 175.785 7.46 175.679 7.3C175.572 7.12667 175.519 6.94 175.519 6.74C175.519 6.54 175.572 6.34667 175.679 6.16C175.785 5.96 175.965 5.81333 176.219 5.72C176.832 5.46667 177.419 5.28667 177.979 5.18C178.552 5.07333 179.072 5.02 179.539 5.02C180.499 5.02 181.285 5.16667 181.899 5.46C182.525 5.75333 182.992 6.2 183.299 6.8C183.605 7.38667 183.759 8.14667 183.759 9.08V13.88C183.759 14.2933 183.659 14.6133 183.459 14.84C183.259 15.0533 182.972 15.16 182.599 15.16C182.225 15.16 181.932 15.0533 181.719 14.84C181.519 14.6133 181.419 14.2933 181.419 13.88V12.92H181.579C181.485 13.3867 181.299 13.7933 181.019 14.14C180.752 14.4733 180.412 14.7333 179.999 14.92C179.585 15.1067 179.112 15.2 178.579 15.2ZM187.536 15.16C187.136 15.16 186.83 15.0533 186.616 14.84C186.403 14.6133 186.296 14.2933 186.296 13.88V6.32C186.296 5.90667 186.403 5.59333 186.616 5.38C186.83 5.16667 187.13 5.06 187.516 5.06C187.903 5.06 188.203 5.16667 188.416 5.38C188.63 5.59333 188.736 5.90667 188.736 6.32V7.68L188.516 7.18C188.81 6.47333 189.263 5.94 189.876 5.58C190.503 5.20667 191.21 5.02 191.996 5.02C192.783 5.02 193.43 5.16667 193.936 5.46C194.443 5.75333 194.823 6.2 195.076 6.8C195.33 7.38667 195.456 8.13333 195.456 9.04V13.88C195.456 14.2933 195.35 14.6133 195.136 14.84C194.923 15.0533 194.616 15.16 194.216 15.16C193.816 15.16 193.503 15.0533 193.276 14.84C193.063 14.6133 192.956 14.2933 192.956 13.88V9.16C192.956 8.4 192.81 7.84667 192.516 7.5C192.236 7.15333 191.796 6.98 191.196 6.98C190.463 6.98 189.876 7.21333 189.436 7.68C189.01 8.13333 188.796 8.74 188.796 9.5V13.88C188.796 14.7333 188.376 15.16 187.536 15.16ZM201.756 15.2C200.902 15.2 200.149 14.9933 199.496 14.58C198.856 14.1667 198.356 13.58 197.996 12.82C197.636 12.0467 197.456 11.14 197.456 10.1C197.456 9.04667 197.636 8.14667 197.996 7.4C198.356 6.64 198.856 6.05333 199.496 5.64C200.149 5.22667 200.902 5.02 201.756 5.02C202.569 5.02 203.276 5.22 203.876 5.62C204.489 6.02 204.902 6.54667 205.116 7.2H204.896V2C204.896 1.58667 205.002 1.27333 205.216 1.06C205.429 0.846666 205.736 0.739999 206.136 0.739999C206.536 0.739999 206.842 0.846666 207.056 1.06C207.282 1.27333 207.396 1.58667 207.396 2V13.88C207.396 14.2933 207.289 14.6133 207.076 14.84C206.862 15.0533 206.556 15.16 206.156 15.16C205.756 15.16 205.449 15.0533 205.236 14.84C205.022 14.6133 204.916 14.2933 204.916 13.88V12.32L205.136 12.92C204.936 13.6133 204.529 14.1667 203.916 14.58C203.302 14.9933 202.582 15.2 201.756 15.2ZM202.456 13.3C202.949 13.3 203.382 13.18 203.756 12.94C204.129 12.7 204.416 12.3467 204.616 11.88C204.829 11.4 204.936 10.8067 204.936 10.1C204.936 9.03333 204.709 8.24 204.256 7.72C203.802 7.18667 203.202 6.92 202.456 6.92C201.962 6.92 201.529 7.04 201.156 7.28C200.782 7.50667 200.489 7.86 200.276 8.34C200.076 8.80667 199.976 9.39333 199.976 10.1C199.976 11.1533 200.202 11.9533 200.656 12.5C201.109 13.0333 201.709 13.3 202.456 13.3ZM221.057 15.2C220.231 15.2 219.504 14.9933 218.877 14.58C218.264 14.1667 217.857 13.6133 217.657 12.92L217.877 12.42V13.88C217.877 14.2933 217.771 14.6133 217.557 14.84C217.344 15.0533 217.044 15.16 216.657 15.16C216.257 15.16 215.951 15.0533 215.737 14.84C215.524 14.6133 215.417 14.2933 215.417 13.88V2C215.417 1.58667 215.524 1.27333 215.737 1.06C215.951 0.846666 216.257 0.739999 216.657 0.739999C217.057 0.739999 217.364 0.846666 217.577 1.06C217.804 1.27333 217.917 1.58667 217.917 2V7.2H217.677C217.891 6.54667 218.304 6.02 218.917 5.62C219.531 5.22 220.244 5.02 221.057 5.02C221.924 5.02 222.677 5.22667 223.317 5.64C223.957 6.05333 224.457 6.64 224.817 7.4C225.177 8.14667 225.357 9.04667 225.357 10.1C225.357 11.14 225.177 12.0467 224.817 12.82C224.457 13.58 223.951 14.1667 223.297 14.58C222.657 14.9933 221.911 15.2 221.057 15.2ZM220.357 13.3C220.851 13.3 221.284 13.18 221.657 12.94C222.031 12.7 222.317 12.3467 222.517 11.88C222.731 11.4 222.837 10.8067 222.837 10.1C222.837 9.03333 222.611 8.24 222.157 7.72C221.704 7.18667 221.104 6.92 220.357 6.92C219.864 6.92 219.431 7.04 219.057 7.28C218.684 7.50667 218.391 7.86 218.177 8.34C217.977 8.80667 217.877 9.39333 217.877 10.1C217.877 11.1533 218.104 11.9533 218.557 12.5C219.011 13.0333 219.611 13.3 220.357 13.3ZM230.75 15.2C229.643 15.2 228.81 14.8867 228.25 14.26C227.69 13.62 227.41 12.6867 227.41 11.46V2C227.41 1.58667 227.516 1.27333 227.73 1.06C227.943 0.846666 228.25 0.739999 228.65 0.739999C229.05 0.739999 229.356 0.846666 229.57 1.06C229.796 1.27333 229.91 1.58667 229.91 2V11.34C229.91 11.9533 230.036 12.4067 230.29 12.7C230.556 12.9933 230.93 13.14 231.41 13.14C231.516 13.14 231.616 13.14 231.71 13.14C231.803 13.1267 231.896 13.1133 231.99 13.1C232.176 13.0733 232.303 13.1267 232.37 13.26C232.436 13.38 232.47 13.6333 232.47 14.02C232.47 14.3533 232.403 14.6133 232.27 14.8C232.136 14.9867 231.916 15.1 231.61 15.14C231.476 15.1533 231.336 15.1667 231.19 15.18C231.043 15.1933 230.896 15.2 230.75 15.2ZM237.336 15.2C236.523 15.2 235.85 15.0533 235.316 14.76C234.783 14.4533 234.383 14 234.116 13.4C233.863 12.8 233.736 12.0533 233.736 11.16V6.32C233.736 5.89333 233.843 5.58 234.056 5.38C234.27 5.16667 234.576 5.06 234.976 5.06C235.376 5.06 235.683 5.16667 235.896 5.38C236.123 5.58 236.236 5.89333 236.236 6.32V11.2C236.236 11.8933 236.376 12.4067 236.656 12.74C236.936 13.0733 237.383 13.24 237.996 13.24C238.663 13.24 239.21 13.0133 239.636 12.56C240.063 12.0933 240.276 11.48 240.276 10.72V6.32C240.276 5.89333 240.383 5.58 240.596 5.38C240.81 5.16667 241.116 5.06 241.516 5.06C241.916 5.06 242.223 5.16667 242.436 5.38C242.663 5.58 242.776 5.89333 242.776 6.32V13.88C242.776 14.7333 242.37 15.16 241.556 15.16C241.17 15.16 240.87 15.0533 240.656 14.84C240.443 14.6133 240.336 14.2933 240.336 13.88V12.36L240.616 12.96C240.336 13.68 239.91 14.2333 239.336 14.62C238.776 15.0067 238.11 15.2 237.336 15.2ZM250.198 15.2C249.092 15.2 248.138 14.9933 247.338 14.58C246.538 14.1667 245.918 13.58 245.478 12.82C245.052 12.06 244.838 11.16 244.838 10.12C244.838 9.10667 245.045 8.22 245.458 7.46C245.885 6.7 246.465 6.10667 247.198 5.68C247.945 5.24 248.792 5.02 249.738 5.02C250.432 5.02 251.052 5.13333 251.598 5.36C252.158 5.58667 252.632 5.91333 253.018 6.34C253.418 6.76667 253.718 7.28667 253.918 7.9C254.132 8.5 254.238 9.18 254.238 9.94C254.238 10.18 254.152 10.3667 253.978 10.5C253.818 10.62 253.585 10.68 253.278 10.68H246.858V9.24H252.478L252.158 9.54C252.158 8.92667 252.065 8.41333 251.878 8C251.705 7.58667 251.445 7.27333 251.098 7.06C250.765 6.83333 250.345 6.72 249.838 6.72C249.278 6.72 248.798 6.85333 248.398 7.12C248.012 7.37333 247.712 7.74 247.498 8.22C247.298 8.68667 247.198 9.24667 247.198 9.9V10.04C247.198 11.1333 247.452 11.9533 247.958 12.5C248.478 13.0333 249.238 13.3 250.238 13.3C250.585 13.3 250.972 13.26 251.398 13.18C251.838 13.0867 252.252 12.9333 252.638 12.72C252.918 12.56 253.165 12.4933 253.378 12.52C253.592 12.5333 253.758 12.6067 253.878 12.74C254.012 12.8733 254.092 13.04 254.118 13.24C254.145 13.4267 254.105 13.62 253.998 13.82C253.905 14.02 253.738 14.1933 253.498 14.34C253.032 14.6333 252.492 14.8533 251.878 15C251.278 15.1333 250.718 15.2 250.198 15.2ZM264.988 15.2C263.881 15.2 263.048 14.8867 262.488 14.26C261.928 13.62 261.648 12.6867 261.648 11.46V2C261.648 1.58667 261.755 1.27333 261.968 1.06C262.181 0.846666 262.488 0.739999 262.888 0.739999C263.288 0.739999 263.595 0.846666 263.808 1.06C264.035 1.27333 264.148 1.58667 264.148 2V11.34C264.148 11.9533 264.275 12.4067 264.528 12.7C264.795 12.9933 265.168 13.14 265.648 13.14C265.755 13.14 265.855 13.14 265.948 13.14C266.041 13.1267 266.135 13.1133 266.228 13.1C266.415 13.0733 266.541 13.1267 266.608 13.26C266.675 13.38 266.708 13.6333 266.708 14.02C266.708 14.3533 266.641 14.6133 266.508 14.8C266.375 14.9867 266.155 15.1 265.848 15.14C265.715 15.1533 265.575 15.1667 265.428 15.18C265.281 15.1933 265.135 15.2 264.988 15.2ZM269.275 15.14C268.875 15.14 268.568 15.02 268.355 14.78C268.141 14.54 268.035 14.2067 268.035 13.78V6.44C268.035 6 268.141 5.66667 268.355 5.44C268.568 5.2 268.875 5.08 269.275 5.08C269.675 5.08 269.981 5.2 270.195 5.44C270.421 5.66667 270.535 6 270.535 6.44V13.78C270.535 14.2067 270.428 14.54 270.215 14.78C270.001 15.02 269.688 15.14 269.275 15.14ZM269.275 3.22C268.808 3.22 268.441 3.10667 268.175 2.88C267.921 2.64 267.795 2.31333 267.795 1.9C267.795 1.47333 267.921 1.14667 268.175 0.919999C268.441 0.693333 268.808 0.58 269.275 0.58C269.755 0.58 270.121 0.693333 270.375 0.919999C270.628 1.14667 270.755 1.47333 270.755 1.9C270.755 2.31333 270.628 2.64 270.375 2.88C270.121 3.10667 269.755 3.22 269.275 3.22ZM277.692 18.8C276.972 18.8 276.272 18.7333 275.592 18.6C274.926 18.4667 274.319 18.26 273.772 17.98C273.519 17.8467 273.346 17.6867 273.252 17.5C273.172 17.3133 273.146 17.12 273.172 16.92C273.212 16.7333 273.292 16.5667 273.412 16.42C273.546 16.2733 273.706 16.1733 273.892 16.12C274.079 16.0667 274.272 16.0933 274.472 16.2C275.059 16.4933 275.612 16.68 276.132 16.76C276.666 16.8533 277.119 16.9 277.492 16.9C278.386 16.9 279.052 16.68 279.492 16.24C279.946 15.8133 280.172 15.1733 280.172 14.32V12.52H280.352C280.152 13.2 279.732 13.7467 279.092 14.16C278.466 14.56 277.752 14.76 276.952 14.76C276.072 14.76 275.306 14.56 274.652 14.16C273.999 13.7467 273.492 13.1733 273.132 12.44C272.772 11.7067 272.592 10.8533 272.592 9.88C272.592 9.14667 272.692 8.48667 272.892 7.9C273.106 7.3 273.399 6.78667 273.772 6.36C274.159 5.93333 274.619 5.60667 275.152 5.38C275.699 5.14 276.299 5.02 276.952 5.02C277.779 5.02 278.499 5.22667 279.112 5.64C279.739 6.04 280.146 6.57333 280.332 7.24L280.132 7.74V6.32C280.132 5.90667 280.239 5.59333 280.452 5.38C280.679 5.16667 280.986 5.06 281.372 5.06C281.772 5.06 282.079 5.16667 282.292 5.38C282.506 5.59333 282.612 5.90667 282.612 6.32V14.02C282.612 15.6067 282.192 16.8 281.352 17.6C280.512 18.4 279.292 18.8 277.692 18.8ZM277.632 12.86C278.152 12.86 278.599 12.74 278.972 12.5C279.346 12.26 279.632 11.92 279.832 11.48C280.046 11.0267 280.152 10.4933 280.152 9.88C280.152 8.96 279.926 8.24 279.472 7.72C279.019 7.18667 278.406 6.92 277.632 6.92C277.112 6.92 276.666 7.04 276.292 7.28C275.919 7.52 275.626 7.86 275.412 8.3C275.212 8.74 275.112 9.26667 275.112 9.88C275.112 10.8 275.339 11.5267 275.792 12.06C276.246 12.5933 276.859 12.86 277.632 12.86ZM286.443 15.16C286.043 15.16 285.736 15.0533 285.523 14.84C285.309 14.6133 285.203 14.2933 285.203 13.88V2C285.203 1.58667 285.309 1.27333 285.523 1.06C285.736 0.846666 286.043 0.739999 286.443 0.739999C286.843 0.739999 287.149 0.846666 287.363 1.06C287.589 1.27333 287.703 1.58667 287.703 2V7.18H287.423C287.716 6.47333 288.169 5.94 288.783 5.58C289.409 5.20667 290.116 5.02 290.903 5.02C291.689 5.02 292.336 5.16667 292.843 5.46C293.349 5.75333 293.729 6.2 293.983 6.8C294.236 7.38667 294.363 8.13333 294.363 9.04V13.88C294.363 14.2933 294.256 14.6133 294.043 14.84C293.829 15.0533 293.523 15.16 293.123 15.16C292.723 15.16 292.409 15.0533 292.183 14.84C291.969 14.6133 291.863 14.2933 291.863 13.88V9.16C291.863 8.4 291.716 7.84667 291.423 7.5C291.143 7.15333 290.703 6.98 290.103 6.98C289.369 6.98 288.783 7.21333 288.343 7.68C287.916 8.13333 287.703 8.74 287.703 9.5V13.88C287.703 14.7333 287.283 15.16 286.443 15.16ZM301.382 15.2C300.515 15.2 299.788 15.0533 299.202 14.76C298.628 14.4667 298.202 14.04 297.922 13.48C297.642 12.9067 297.502 12.2 297.502 11.36V7.1H296.462C296.142 7.1 295.895 7.02 295.722 6.86C295.548 6.68667 295.462 6.45333 295.462 6.16C295.462 5.85333 295.548 5.62 295.722 5.46C295.895 5.3 296.142 5.22 296.462 5.22H297.502V3.4C297.502 2.98667 297.608 2.67333 297.822 2.46C298.048 2.24667 298.362 2.14 298.762 2.14C299.162 2.14 299.468 2.24667 299.682 2.46C299.895 2.67333 300.002 2.98667 300.002 3.4V5.22H302.122C302.442 5.22 302.688 5.3 302.862 5.46C303.035 5.62 303.122 5.85333 303.122 6.16C303.122 6.45333 303.035 6.68667 302.862 6.86C302.688 7.02 302.442 7.1 302.122 7.1H300.002V11.22C300.002 11.86 300.142 12.34 300.422 12.66C300.702 12.98 301.155 13.14 301.782 13.14C302.008 13.14 302.208 13.12 302.382 13.08C302.555 13.04 302.708 13.0133 302.842 13C303.002 12.9867 303.135 13.04 303.242 13.16C303.348 13.2667 303.402 13.4933 303.402 13.84C303.402 14.1067 303.355 14.3467 303.262 14.56C303.182 14.76 303.028 14.9 302.802 14.98C302.628 15.0333 302.402 15.08 302.122 15.12C301.842 15.1733 301.595 15.2 301.382 15.2ZM308.158 15.2C307.584 15.2 306.978 15.14 306.338 15.02C305.698 14.9 305.124 14.6933 304.618 14.4C304.404 14.2667 304.251 14.1133 304.158 13.94C304.078 13.7533 304.044 13.5733 304.058 13.4C304.084 13.2133 304.151 13.0533 304.258 12.92C304.378 12.7867 304.524 12.7 304.698 12.66C304.884 12.62 305.084 12.6533 305.298 12.76C305.831 13.0133 306.331 13.1933 306.798 13.3C307.264 13.3933 307.724 13.44 308.178 13.44C308.818 13.44 309.291 13.3333 309.598 13.12C309.918 12.8933 310.078 12.6 310.078 12.24C310.078 11.9333 309.971 11.7 309.758 11.54C309.558 11.3667 309.251 11.24 308.838 11.16L306.838 10.78C306.011 10.62 305.378 10.32 304.938 9.88C304.511 9.42667 304.298 8.84667 304.298 8.14C304.298 7.5 304.471 6.94667 304.818 6.48C305.178 6.01333 305.671 5.65333 306.298 5.4C306.924 5.14667 307.644 5.02 308.458 5.02C309.044 5.02 309.591 5.08667 310.098 5.22C310.618 5.34 311.118 5.53333 311.598 5.8C311.798 5.90667 311.931 6.04667 311.998 6.22C312.078 6.39333 312.098 6.57333 312.058 6.76C312.018 6.93333 311.938 7.09333 311.818 7.24C311.698 7.37333 311.544 7.46 311.358 7.5C311.184 7.52667 310.984 7.48667 310.758 7.38C310.344 7.16667 309.944 7.01333 309.558 6.92C309.184 6.82667 308.824 6.78 308.478 6.78C307.824 6.78 307.338 6.89333 307.018 7.12C306.711 7.34667 306.558 7.64667 306.558 8.02C306.558 8.3 306.651 8.53333 306.838 8.72C307.024 8.90667 307.311 9.03333 307.698 9.1L309.698 9.48C310.564 9.64 311.218 9.93333 311.658 10.36C312.111 10.7867 312.338 11.36 312.338 12.08C312.338 13.0533 311.958 13.82 311.198 14.38C310.438 14.9267 309.424 15.2 308.158 15.2ZM324.233 15.2C323.22 15.2 322.34 14.9933 321.593 14.58C320.846 14.1667 320.266 13.58 319.853 12.82C319.44 12.0467 319.233 11.14 319.233 10.1C319.233 9.31333 319.346 8.61333 319.573 8C319.813 7.37333 320.153 6.84 320.593 6.4C321.033 5.94667 321.56 5.60667 322.173 5.38C322.786 5.14 323.473 5.02 324.233 5.02C325.246 5.02 326.126 5.22667 326.873 5.64C327.62 6.05333 328.2 6.64 328.613 7.4C329.026 8.16 329.233 9.06 329.233 10.1C329.233 10.8867 329.113 11.5933 328.873 12.22C328.646 12.8467 328.313 13.3867 327.873 13.84C327.433 14.28 326.906 14.62 326.293 14.86C325.68 15.0867 324.993 15.2 324.233 15.2ZM324.233 13.3C324.726 13.3 325.16 13.18 325.533 12.94C325.906 12.7 326.193 12.3467 326.393 11.88C326.606 11.4 326.713 10.8067 326.713 10.1C326.713 9.03333 326.486 8.24 326.033 7.72C325.58 7.18667 324.98 6.92 324.233 6.92C323.74 6.92 323.306 7.04 322.933 7.28C322.56 7.50667 322.266 7.86 322.053 8.34C321.853 8.80667 321.753 9.39333 321.753 10.1C321.753 11.1533 321.98 11.9533 322.433 12.5C322.886 13.0333 323.486 13.3 324.233 13.3ZM332.536 15.16C332.136 15.16 331.83 15.0533 331.616 14.84C331.403 14.6133 331.296 14.2933 331.296 13.88V6.32C331.296 5.90667 331.403 5.59333 331.616 5.38C331.83 5.16667 332.13 5.06 332.516 5.06C332.903 5.06 333.203 5.16667 333.416 5.38C333.63 5.59333 333.736 5.90667 333.736 6.32V7.68L333.516 7.18C333.81 6.47333 334.263 5.94 334.876 5.58C335.503 5.20667 336.21 5.02 336.996 5.02C337.783 5.02 338.43 5.16667 338.936 5.46C339.443 5.75333 339.823 6.2 340.076 6.8C340.33 7.38667 340.456 8.13333 340.456 9.04V13.88C340.456 14.2933 340.35 14.6133 340.136 14.84C339.923 15.0533 339.616 15.16 339.216 15.16C338.816 15.16 338.503 15.0533 338.276 14.84C338.063 14.6133 337.956 14.2933 337.956 13.88V9.16C337.956 8.4 337.81 7.84667 337.516 7.5C337.236 7.15333 336.796 6.98 336.196 6.98C335.463 6.98 334.876 7.21333 334.436 7.68C334.01 8.13333 333.796 8.74 333.796 9.5V13.88C333.796 14.7333 333.376 15.16 332.536 15.16ZM352.905 15.2C352.039 15.2 351.312 15.0533 350.725 14.76C350.152 14.4667 349.725 14.04 349.445 13.48C349.165 12.9067 349.025 12.2 349.025 11.36V7.1H347.985C347.665 7.1 347.419 7.02 347.245 6.86C347.072 6.68667 346.985 6.45333 346.985 6.16C346.985 5.85333 347.072 5.62 347.245 5.46C347.419 5.3 347.665 5.22 347.985 5.22H349.025V3.4C349.025 2.98667 349.132 2.67333 349.345 2.46C349.572 2.24667 349.885 2.14 350.285 2.14C350.685 2.14 350.992 2.24667 351.205 2.46C351.419 2.67333 351.525 2.98667 351.525 3.4V5.22H353.645C353.965 5.22 354.212 5.3 354.385 5.46C354.559 5.62 354.645 5.85333 354.645 6.16C354.645 6.45333 354.559 6.68667 354.385 6.86C354.212 7.02 353.965 7.1 353.645 7.1H351.525V11.22C351.525 11.86 351.665 12.34 351.945 12.66C352.225 12.98 352.679 13.14 353.305 13.14C353.532 13.14 353.732 13.12 353.905 13.08C354.079 13.04 354.232 13.0133 354.365 13C354.525 12.9867 354.659 13.04 354.765 13.16C354.872 13.2667 354.925 13.4933 354.925 13.84C354.925 14.1067 354.879 14.3467 354.785 14.56C354.705 14.76 354.552 14.9 354.325 14.98C354.152 15.0333 353.925 15.08 353.645 15.12C353.365 15.1733 353.119 15.2 352.905 15.2ZM357.595 15.16C357.195 15.16 356.888 15.0533 356.675 14.84C356.462 14.6133 356.355 14.2933 356.355 13.88V2C356.355 1.58667 356.462 1.27333 356.675 1.06C356.888 0.846666 357.195 0.739999 357.595 0.739999C357.995 0.739999 358.302 0.846666 358.515 1.06C358.742 1.27333 358.855 1.58667 358.855 2V7.18H358.575C358.868 6.47333 359.322 5.94 359.935 5.58C360.562 5.20667 361.268 5.02 362.055 5.02C362.842 5.02 363.488 5.16667 363.995 5.46C364.502 5.75333 364.882 6.2 365.135 6.8C365.388 7.38667 365.515 8.13333 365.515 9.04V13.88C365.515 14.2933 365.408 14.6133 365.195 14.84C364.982 15.0533 364.675 15.16 364.275 15.16C363.875 15.16 363.562 15.0533 363.335 14.84C363.122 14.6133 363.015 14.2933 363.015 13.88V9.16C363.015 8.4 362.868 7.84667 362.575 7.5C362.295 7.15333 361.855 6.98 361.255 6.98C360.522 6.98 359.935 7.21333 359.495 7.68C359.068 8.13333 358.855 8.74 358.855 9.5V13.88C358.855 14.7333 358.435 15.16 357.595 15.16ZM372.874 15.2C371.767 15.2 370.814 14.9933 370.014 14.58C369.214 14.1667 368.594 13.58 368.154 12.82C367.727 12.06 367.514 11.16 367.514 10.12C367.514 9.10667 367.721 8.22 368.134 7.46C368.561 6.7 369.141 6.10667 369.874 5.68C370.621 5.24 371.467 5.02 372.414 5.02C373.107 5.02 373.727 5.13333 374.274 5.36C374.834 5.58667 375.307 5.91333 375.694 6.34C376.094 6.76667 376.394 7.28667 376.594 7.9C376.807 8.5 376.914 9.18 376.914 9.94C376.914 10.18 376.827 10.3667 376.654 10.5C376.494 10.62 376.261 10.68 375.954 10.68H369.534V9.24H375.154L374.834 9.54C374.834 8.92667 374.741 8.41333 374.554 8C374.381 7.58667 374.121 7.27333 373.774 7.06C373.441 6.83333 373.021 6.72 372.514 6.72C371.954 6.72 371.474 6.85333 371.074 7.12C370.687 7.37333 370.387 7.74 370.174 8.22C369.974 8.68667 369.874 9.24667 369.874 9.9V10.04C369.874 11.1333 370.127 11.9533 370.634 12.5C371.154 13.0333 371.914 13.3 372.914 13.3C373.261 13.3 373.647 13.26 374.074 13.18C374.514 13.0867 374.927 12.9333 375.314 12.72C375.594 12.56 375.841 12.4933 376.054 12.52C376.267 12.5333 376.434 12.6067 376.554 12.74C376.687 12.8733 376.767 13.04 376.794 13.24C376.821 13.4267 376.781 13.62 376.674 13.82C376.581 14.02 376.414 14.1933 376.174 14.34C375.707 14.6333 375.167 14.8533 374.554 15C373.954 15.1333 373.394 15.2 372.874 15.2ZM388.084 15.2C387.23 15.2 386.477 14.9933 385.824 14.58C385.184 14.1667 384.684 13.58 384.324 12.82C383.964 12.0467 383.784 11.14 383.784 10.1C383.784 9.04667 383.964 8.14667 384.324 7.4C384.684 6.64 385.184 6.05333 385.824 5.64C386.477 5.22667 387.23 5.02 388.084 5.02C388.897 5.02 389.604 5.22 390.204 5.62C390.817 6.02 391.23 6.54667 391.444 7.2H391.224V2C391.224 1.58667 391.33 1.27333 391.544 1.06C391.757 0.846666 392.064 0.739999 392.464 0.739999C392.864 0.739999 393.17 0.846666 393.384 1.06C393.61 1.27333 393.724 1.58667 393.724 2V13.88C393.724 14.2933 393.617 14.6133 393.404 14.84C393.19 15.0533 392.884 15.16 392.484 15.16C392.084 15.16 391.777 15.0533 391.564 14.84C391.35 14.6133 391.244 14.2933 391.244 13.88V12.32L391.464 12.92C391.264 13.6133 390.857 14.1667 390.244 14.58C389.63 14.9933 388.91 15.2 388.084 15.2ZM388.784 13.3C389.277 13.3 389.71 13.18 390.084 12.94C390.457 12.7 390.744 12.3467 390.944 11.88C391.157 11.4 391.264 10.8067 391.264 10.1C391.264 9.03333 391.037 8.24 390.584 7.72C390.13 7.18667 389.53 6.92 388.784 6.92C388.29 6.92 387.857 7.04 387.484 7.28C387.11 7.50667 386.817 7.86 386.604 8.34C386.404 8.80667 386.304 9.39333 386.304 10.1C386.304 11.1533 386.53 11.9533 386.984 12.5C387.437 13.0333 388.037 13.3 388.784 13.3ZM399.536 15.2C398.829 15.2 398.196 15.0667 397.636 14.8C397.089 14.52 396.656 14.1467 396.336 13.68C396.029 13.2133 395.876 12.6867 395.876 12.1C395.876 11.38 396.063 10.8133 396.436 10.4C396.809 9.97333 397.416 9.66667 398.256 9.48C399.096 9.29333 400.223 9.2 401.636 9.2H402.636V10.64H401.656C400.829 10.64 400.169 10.68 399.676 10.76C399.183 10.84 398.829 10.98 398.616 11.18C398.416 11.3667 398.316 11.6333 398.316 11.98C398.316 12.42 398.469 12.78 398.776 13.06C399.083 13.34 399.509 13.48 400.056 13.48C400.496 13.48 400.883 13.38 401.216 13.18C401.563 12.9667 401.836 12.68 402.036 12.32C402.236 11.96 402.336 11.5467 402.336 11.08V8.78C402.336 8.11333 402.189 7.63333 401.896 7.34C401.603 7.04667 401.109 6.9 400.416 6.9C400.029 6.9 399.609 6.94667 399.156 7.04C398.716 7.13333 398.249 7.29333 397.756 7.52C397.503 7.64 397.276 7.67333 397.076 7.62C396.889 7.56667 396.743 7.46 396.636 7.3C396.529 7.12667 396.476 6.94 396.476 6.74C396.476 6.54 396.529 6.34667 396.636 6.16C396.743 5.96 396.923 5.81333 397.176 5.72C397.789 5.46667 398.376 5.28667 398.936 5.18C399.509 5.07333 400.029 5.02 400.496 5.02C401.456 5.02 402.243 5.16667 402.856 5.46C403.483 5.75333 403.949 6.2 404.256 6.8C404.563 7.38667 404.716 8.14667 404.716 9.08V13.88C404.716 14.2933 404.616 14.6133 404.416 14.84C404.216 15.0533 403.929 15.16 403.556 15.16C403.183 15.16 402.889 15.0533 402.676 14.84C402.476 14.6133 402.376 14.2933 402.376 13.88V12.92H402.536C402.443 13.3867 402.256 13.7933 401.976 14.14C401.709 14.4733 401.369 14.7333 400.956 14.92C400.543 15.1067 400.069 15.2 399.536 15.2ZM408.493 15.16C408.093 15.16 407.787 15.0533 407.573 14.84C407.36 14.6133 407.253 14.2933 407.253 13.88V6.32C407.253 5.90667 407.36 5.59333 407.573 5.38C407.787 5.16667 408.087 5.06 408.473 5.06C408.86 5.06 409.16 5.16667 409.373 5.38C409.587 5.59333 409.693 5.90667 409.693 6.32V7.68L409.473 7.18C409.767 6.47333 410.22 5.94 410.833 5.58C411.46 5.20667 412.167 5.02 412.953 5.02C413.74 5.02 414.387 5.16667 414.893 5.46C415.4 5.75333 415.78 6.2 416.033 6.8C416.287 7.38667 416.413 8.13333 416.413 9.04V13.88C416.413 14.2933 416.307 14.6133 416.093 14.84C415.88 15.0533 415.573 15.16 415.173 15.16C414.773 15.16 414.46 15.0533 414.233 14.84C414.02 14.6133 413.913 14.2933 413.913 13.88V9.16C413.913 8.4 413.767 7.84667 413.473 7.5C413.193 7.15333 412.753 6.98 412.153 6.98C411.42 6.98 410.833 7.21333 410.393 7.68C409.967 8.13333 409.753 8.74 409.753 9.5V13.88C409.753 14.7333 409.333 15.16 408.493 15.16ZM423.473 15.2C422.446 15.2 421.553 14.9933 420.793 14.58C420.033 14.1533 419.446 13.5533 419.033 12.78C418.619 12.0067 418.413 11.1 418.413 10.06C418.413 9.27333 418.526 8.57333 418.753 7.96C418.993 7.33333 419.333 6.80667 419.773 6.38C420.213 5.94 420.746 5.60667 421.373 5.38C421.999 5.14 422.699 5.02 423.473 5.02C423.913 5.02 424.386 5.08 424.893 5.2C425.413 5.32 425.899 5.52 426.353 5.8C426.566 5.93333 426.706 6.09333 426.773 6.28C426.839 6.46667 426.853 6.66 426.813 6.86C426.773 7.04667 426.686 7.21333 426.553 7.36C426.433 7.49333 426.279 7.58 426.093 7.62C425.906 7.64667 425.699 7.6 425.473 7.48C425.179 7.30667 424.879 7.18 424.573 7.1C424.266 7.00667 423.973 6.96 423.693 6.96C423.253 6.96 422.866 7.03333 422.533 7.18C422.199 7.31333 421.913 7.51333 421.673 7.78C421.446 8.03333 421.273 8.35333 421.153 8.74C421.033 9.12667 420.973 9.57333 420.973 10.08C420.973 11.0667 421.206 11.8467 421.673 12.42C422.153 12.98 422.826 13.26 423.693 13.26C423.973 13.26 424.259 13.22 424.553 13.14C424.859 13.06 425.166 12.9333 425.473 12.76C425.699 12.64 425.899 12.6 426.073 12.64C426.259 12.68 426.413 12.7733 426.533 12.92C426.653 13.0533 426.726 13.22 426.753 13.42C426.779 13.6067 426.753 13.7933 426.673 13.98C426.606 14.1667 426.473 14.32 426.273 14.44C425.833 14.7067 425.366 14.9 424.873 15.02C424.379 15.14 423.913 15.2 423.473 15.2ZM433.011 15.2C431.904 15.2 430.951 14.9933 430.151 14.58C429.351 14.1667 428.731 13.58 428.291 12.82C427.864 12.06 427.651 11.16 427.651 10.12C427.651 9.10667 427.858 8.22 428.271 7.46C428.698 6.7 429.278 6.10667 430.011 5.68C430.758 5.24 431.604 5.02 432.551 5.02C433.244 5.02 433.864 5.13333 434.411 5.36C434.971 5.58667 435.444 5.91333 435.831 6.34C436.231 6.76667 436.531 7.28667 436.731 7.9C436.944 8.5 437.051 9.18 437.051 9.94C437.051 10.18 436.964 10.3667 436.791 10.5C436.631 10.62 436.398 10.68 436.091 10.68H429.671V9.24H435.291L434.971 9.54C434.971 8.92667 434.878 8.41333 434.691 8C434.518 7.58667 434.258 7.27333 433.911 7.06C433.578 6.83333 433.158 6.72 432.651 6.72C432.091 6.72 431.611 6.85333 431.211 7.12C430.824 7.37333 430.524 7.74 430.311 8.22C430.111 8.68667 430.011 9.24667 430.011 9.9V10.04C430.011 11.1333 430.264 11.9533 430.771 12.5C431.291 13.0333 432.051 13.3 433.051 13.3C433.398 13.3 433.784 13.26 434.211 13.18C434.651 13.0867 435.064 12.9333 435.451 12.72C435.731 12.56 435.978 12.4933 436.191 12.52C436.404 12.5333 436.571 12.6067 436.691 12.74C436.824 12.8733 436.904 13.04 436.931 13.24C436.958 13.4267 436.918 13.62 436.811 13.82C436.718 14.02 436.551 14.1933 436.311 14.34C435.844 14.6333 435.304 14.8533 434.691 15C434.091 15.1333 433.531 15.2 433.011 15.2ZM446.38 15.16C445.98 15.16 445.667 15.0533 445.44 14.84C445.227 14.6133 445.12 14.2933 445.12 13.88V7.1H444.2C443.88 7.1 443.634 7.02 443.46 6.86C443.287 6.68667 443.2 6.45333 443.2 6.16C443.2 5.85333 443.287 5.62 443.46 5.46C443.634 5.3 443.88 5.22 444.2 5.22H445.84L445.12 5.88V5.2C445.12 3.82667 445.467 2.8 446.16 2.12C446.854 1.42667 447.854 1.02 449.16 0.899999L449.84 0.84C450.107 0.813333 450.32 0.859999 450.48 0.979999C450.64 1.08667 450.747 1.23333 450.8 1.42C450.854 1.59333 450.86 1.77333 450.82 1.96C450.78 2.14667 450.694 2.31333 450.56 2.46C450.44 2.59333 450.28 2.66667 450.08 2.68L449.8 2.7C449.04 2.75333 448.487 2.94667 448.14 3.28C447.794 3.61333 447.62 4.12 447.62 4.8V5.54L447.3 5.22H449.32C449.64 5.22 449.887 5.3 450.06 5.46C450.234 5.62 450.32 5.85333 450.32 6.16C450.32 6.45333 450.234 6.68667 450.06 6.86C449.887 7.02 449.64 7.1 449.32 7.1H447.62V13.88C447.62 14.7333 447.207 15.16 446.38 15.16ZM455.08 15.2C453.974 15.2 453.14 14.8867 452.58 14.26C452.02 13.62 451.74 12.6867 451.74 11.46V2C451.74 1.58667 451.847 1.27333 452.06 1.06C452.274 0.846666 452.58 0.739999 452.98 0.739999C453.38 0.739999 453.687 0.846666 453.9 1.06C454.127 1.27333 454.24 1.58667 454.24 2V11.34C454.24 11.9533 454.367 12.4067 454.62 12.7C454.887 12.9933 455.26 13.14 455.74 13.14C455.847 13.14 455.947 13.14 456.04 13.14C456.134 13.1267 456.227 13.1133 456.32 13.1C456.507 13.0733 456.634 13.1267 456.7 13.26C456.767 13.38 456.8 13.6333 456.8 14.02C456.8 14.3533 456.734 14.6133 456.6 14.8C456.467 14.9867 456.247 15.1 455.94 15.14C455.807 15.1533 455.667 15.1667 455.52 15.18C455.374 15.1933 455.227 15.2 455.08 15.2ZM462.475 15.2C461.462 15.2 460.582 14.9933 459.835 14.58C459.088 14.1667 458.508 13.58 458.095 12.82C457.682 12.0467 457.475 11.14 457.475 10.1C457.475 9.31333 457.588 8.61333 457.815 8C458.055 7.37333 458.395 6.84 458.835 6.4C459.275 5.94667 459.802 5.60667 460.415 5.38C461.028 5.14 461.715 5.02 462.475 5.02C463.488 5.02 464.368 5.22667 465.115 5.64C465.862 6.05333 466.442 6.64 466.855 7.4C467.268 8.16 467.475 9.06 467.475 10.1C467.475 10.8867 467.355 11.5933 467.115 12.22C466.888 12.8467 466.555 13.3867 466.115 13.84C465.675 14.28 465.148 14.62 464.535 14.86C463.922 15.0867 463.235 15.2 462.475 15.2ZM462.475 13.3C462.968 13.3 463.402 13.18 463.775 12.94C464.148 12.7 464.435 12.3467 464.635 11.88C464.848 11.4 464.955 10.8067 464.955 10.1C464.955 9.03333 464.728 8.24 464.275 7.72C463.822 7.18667 463.222 6.92 462.475 6.92C461.982 6.92 461.548 7.04 461.175 7.28C460.802 7.50667 460.508 7.86 460.295 8.34C460.095 8.80667 459.995 9.39333 459.995 10.1C459.995 11.1533 460.222 11.9533 460.675 12.5C461.128 13.0333 461.728 13.3 462.475 13.3ZM473.998 15.2C472.985 15.2 472.105 14.9933 471.358 14.58C470.612 14.1667 470.032 13.58 469.618 12.82C469.205 12.0467 468.998 11.14 468.998 10.1C468.998 9.31333 469.112 8.61333 469.338 8C469.578 7.37333 469.918 6.84 470.358 6.4C470.798 5.94667 471.325 5.60667 471.938 5.38C472.552 5.14 473.238 5.02 473.998 5.02C475.012 5.02 475.892 5.22667 476.638 5.64C477.385 6.05333 477.965 6.64 478.378 7.4C478.792 8.16 478.998 9.06 478.998 10.1C478.998 10.8867 478.878 11.5933 478.638 12.22C478.412 12.8467 478.078 13.3867 477.638 13.84C477.198 14.28 476.672 14.62 476.058 14.86C475.445 15.0867 474.758 15.2 473.998 15.2ZM473.998 13.3C474.492 13.3 474.925 13.18 475.298 12.94C475.672 12.7 475.958 12.3467 476.158 11.88C476.372 11.4 476.478 10.8067 476.478 10.1C476.478 9.03333 476.252 8.24 475.798 7.72C475.345 7.18667 474.745 6.92 473.998 6.92C473.505 6.92 473.072 7.04 472.698 7.28C472.325 7.50667 472.032 7.86 471.818 8.34C471.618 8.80667 471.518 9.39333 471.518 10.1C471.518 11.1533 471.745 11.9533 472.198 12.5C472.652 13.0333 473.252 13.3 473.998 13.3ZM482.342 15.16C481.929 15.16 481.609 15.0533 481.382 14.84C481.169 14.6133 481.062 14.2933 481.062 13.88V6.32C481.062 5.90667 481.169 5.59333 481.382 5.38C481.595 5.16667 481.895 5.06 482.282 5.06C482.669 5.06 482.969 5.16667 483.182 5.38C483.395 5.59333 483.502 5.90667 483.502 6.32V7.58H483.302C483.489 6.78 483.855 6.17333 484.402 5.76C484.949 5.34667 485.675 5.1 486.582 5.02C486.862 4.99333 487.082 5.06667 487.242 5.24C487.415 5.4 487.515 5.65333 487.542 6C487.569 6.33333 487.489 6.60667 487.302 6.82C487.129 7.02 486.862 7.14 486.502 7.18L486.062 7.22C485.249 7.3 484.635 7.55333 484.222 7.98C483.809 8.39333 483.602 8.98 483.602 9.74V13.88C483.602 14.2933 483.495 14.6133 483.282 14.84C483.069 15.0533 482.755 15.16 482.342 15.16ZM494.884 8.14C494.604 8.14 494.384 8.06667 494.224 7.92C494.064 7.76 493.984 7.54 493.984 7.26C493.984 6.98 494.064 6.76667 494.224 6.62C494.384 6.46 494.604 6.38 494.884 6.38H503.164C503.457 6.38 503.677 6.46 503.824 6.62C503.984 6.76667 504.064 6.98 504.064 7.26C504.064 7.54 503.984 7.76 503.824 7.92C503.677 8.06667 503.457 8.14 503.164 8.14H494.884ZM494.884 12.12C494.604 12.12 494.384 12.0467 494.224 11.9C494.064 11.74 493.984 11.52 493.984 11.24C493.984 10.96 494.064 10.7467 494.224 10.6C494.384 10.4533 494.604 10.38 494.884 10.38H503.164C503.457 10.38 503.677 10.4533 503.824 10.6C503.984 10.7467 504.064 10.96 504.064 11.24C504.064 11.5333 503.984 11.7533 503.824 11.9C503.677 12.0467 503.457 12.12 503.164 12.12H494.884Z" fill="#444444"/>
<path d="M526.066 9.08772H587" stroke="#646464" stroke-linecap="round"/>
</svg>
