<svg width="680" height="101" viewBox="0 0 680 101" fill="none" xmlns="http://www.w3.org/2000/svg">
<path d="M273.48 87.18C272.373 87.18 271.427 86.9133 270.64 86.38C269.867 85.8333 269.28 85.0467 268.88 84.02C268.48 82.9933 268.28 81.7533 268.28 80.3C268.28 79.0733 268.407 77.9933 268.66 77.06C268.913 76.1267 269.287 75.34 269.78 74.7C270.273 74.0467 270.873 73.5533 271.58 73.22C272.287 72.8867 273.087 72.72 273.98 72.72C274.593 72.72 275.22 72.84 275.86 73.08C276.513 73.32 277.087 73.66 277.58 74.1C277.727 74.2067 277.813 74.34 277.84 74.5C277.88 74.6467 277.88 74.7933 277.84 74.94C277.8 75.0733 277.727 75.1867 277.62 75.28C277.527 75.3733 277.407 75.4267 277.26 75.44C277.113 75.44 276.96 75.38 276.8 75.26C276.347 74.8733 275.88 74.6 275.4 74.44C274.92 74.2667 274.433 74.18 273.94 74.18C273.073 74.18 272.333 74.3933 271.72 74.82C271.12 75.2467 270.66 75.8933 270.34 76.76C270.033 77.6133 269.88 78.6867 269.88 79.98V81.84H269.7C269.78 81.08 270 80.4267 270.36 79.88C270.733 79.32 271.207 78.8933 271.78 78.6C272.353 78.3067 273 78.16 273.72 78.16C274.547 78.16 275.28 78.3467 275.92 78.72C276.56 79.0933 277.06 79.62 277.42 80.3C277.78 80.9667 277.96 81.7333 277.96 82.6C277.96 83.48 277.773 84.2667 277.4 84.96C277.027 85.6533 276.5 86.2 275.82 86.6C275.14 86.9867 274.36 87.18 273.48 87.18ZM273.38 85.78C273.967 85.78 274.487 85.6533 274.94 85.4C275.393 85.1333 275.747 84.7667 276 84.3C276.253 83.82 276.38 83.2733 276.38 82.66C276.38 82.0467 276.253 81.5067 276 81.04C275.747 80.5733 275.393 80.2067 274.94 79.94C274.487 79.6733 273.967 79.54 273.38 79.54C272.793 79.54 272.273 79.6733 271.82 79.94C271.367 80.2067 271.013 80.5733 270.76 81.04C270.507 81.5067 270.38 82.0467 270.38 82.66C270.38 83.2733 270.507 83.82 270.76 84.3C271.013 84.7667 271.367 85.1333 271.82 85.4C272.273 85.6533 272.793 85.78 273.38 85.78Z" fill="#1A1A1A"/>
<path d="M232 53L315 53" stroke="#646464" stroke-linecap="round"/>
<path d="M370 53H430" stroke="#646464" stroke-linecap="round"/>
<path d="M234.58 33C234.287 33 234.067 32.9333 233.92 32.8C233.787 32.6533 233.72 32.46 233.72 32.22C233.72 32.0733 233.753 31.9333 233.82 31.8C233.9 31.6533 234.007 31.5067 234.14 31.36L238.62 26.56C239.3 25.8267 239.787 25.1533 240.08 24.54C240.387 23.9133 240.54 23.28 240.54 22.64C240.54 21.84 240.293 21.2333 239.8 20.82C239.32 20.3933 238.613 20.18 237.68 20.18C237.08 20.18 236.513 20.2733 235.98 20.46C235.447 20.6467 234.933 20.9333 234.44 21.32C234.267 21.4533 234.107 21.5133 233.96 21.5C233.827 21.4867 233.707 21.4333 233.6 21.34C233.493 21.2467 233.42 21.1267 233.38 20.98C233.34 20.8333 233.34 20.6867 233.38 20.54C233.433 20.3933 233.54 20.26 233.7 20.14C234.22 19.7133 234.847 19.3733 235.58 19.12C236.313 18.8533 237.06 18.72 237.82 18.72C238.767 18.72 239.567 18.8667 240.22 19.16C240.873 19.4533 241.367 19.8867 241.7 20.46C242.033 21.02 242.2 21.7067 242.2 22.52C242.2 23.08 242.107 23.6333 241.92 24.18C241.747 24.7133 241.473 25.26 241.1 25.82C240.74 26.38 240.267 26.96 239.68 27.56L235.42 32.06V31.6H242.16C242.413 31.6 242.6 31.66 242.72 31.78C242.853 31.8867 242.92 32.0533 242.92 32.28C242.92 32.52 242.853 32.7 242.72 32.82C242.6 32.94 242.413 33 242.16 33H234.58Z" fill="#1A1A1A"/>
<path d="M273 34.34C272.787 34.34 272.627 34.28 272.52 34.16C272.413 34.04 272.36 33.88 272.36 33.68V29.88H268.62C268.42 29.88 268.26 29.8267 268.14 29.72C268.033 29.6133 267.98 29.46 267.98 29.26C267.98 29.06 268.033 28.9067 268.14 28.8C268.26 28.6933 268.42 28.64 268.62 28.64H272.36V24.96C272.36 24.7467 272.413 24.5867 272.52 24.48C272.627 24.36 272.787 24.3 273 24.3C273.213 24.3 273.373 24.36 273.48 24.48C273.587 24.5867 273.64 24.7467 273.64 24.96V28.64H277.38C277.58 28.64 277.733 28.6933 277.84 28.8C277.96 28.9067 278.02 29.06 278.02 29.26C278.02 29.46 277.96 29.6133 277.84 29.72C277.733 29.8267 277.58 29.88 277.38 29.88H273.64V33.68C273.64 33.88 273.587 34.04 273.48 34.16C273.373 34.28 273.213 34.34 273 34.34Z" fill="#1A1A1A"/>
<path d="M329.62 50.88C329.42 50.88 329.26 50.8267 329.14 50.72C329.033 50.6133 328.98 50.46 328.98 50.26C328.98 50.06 329.033 49.9067 329.14 49.8C329.26 49.6933 329.42 49.64 329.62 49.64H338.38C338.58 49.64 338.733 49.6933 338.84 49.8C338.96 49.9067 339.02 50.06 339.02 50.26C339.02 50.46 338.96 50.6133 338.84 50.72C338.733 50.8267 338.58 50.88 338.38 50.88H329.62ZM329.62 54.86C329.42 54.86 329.26 54.8067 329.14 54.7C329.033 54.5933 328.98 54.44 328.98 54.24C328.98 54.04 329.033 53.8933 329.14 53.8C329.26 53.6933 329.42 53.64 329.62 53.64H338.38C338.58 53.64 338.733 53.6933 338.84 53.8C338.96 53.8933 339.02 54.04 339.02 54.24C339.02 54.4533 338.96 54.6133 338.84 54.72C338.733 54.8133 338.58 54.86 338.38 54.86H329.62Z" fill="#1A1A1A"/>
<path d="M308.84 33.18C308.067 33.18 307.287 33.0667 306.5 32.84C305.727 32.6133 305.053 32.28 304.48 31.84C304.307 31.72 304.193 31.5867 304.14 31.44C304.087 31.28 304.073 31.1333 304.1 31C304.14 30.8533 304.213 30.7333 304.32 30.64C304.427 30.5333 304.553 30.4733 304.7 30.46C304.86 30.4467 305.033 30.5 305.22 30.62C305.807 31.0067 306.393 31.2867 306.98 31.46C307.567 31.6333 308.173 31.72 308.8 31.72C309.48 31.72 310.053 31.62 310.52 31.42C310.987 31.22 311.34 30.9267 311.58 30.54C311.82 30.14 311.94 29.6533 311.94 29.08C311.94 28.2533 311.667 27.6267 311.12 27.2C310.573 26.7733 309.78 26.56 308.74 26.56H307.32C307.067 26.56 306.873 26.5 306.74 26.38C306.607 26.2467 306.54 26.0667 306.54 25.84C306.54 25.6267 306.607 25.46 306.74 25.34C306.873 25.2067 307.067 25.14 307.32 25.14H308.6C309.213 25.14 309.733 25.0333 310.16 24.82C310.6 24.6067 310.94 24.3067 311.18 23.92C311.42 23.52 311.54 23.04 311.54 22.48C311.54 21.7333 311.3 21.1667 310.82 20.78C310.34 20.38 309.647 20.18 308.74 20.18C308.14 20.18 307.573 20.2667 307.04 20.44C306.507 20.6133 305.98 20.9067 305.46 21.32C305.3 21.44 305.14 21.5 304.98 21.5C304.833 21.4867 304.707 21.44 304.6 21.36C304.507 21.2667 304.433 21.1467 304.38 21C304.34 20.8533 304.347 20.7067 304.4 20.56C304.453 20.4 304.567 20.2533 304.74 20.12C305.273 19.6667 305.9 19.32 306.62 19.08C307.34 18.84 308.08 18.72 308.84 18.72C309.747 18.72 310.52 18.8667 311.16 19.16C311.813 19.44 312.313 19.8533 312.66 20.4C313.007 20.9333 313.18 21.58 313.18 22.34C313.18 22.9133 313.067 23.44 312.84 23.92C312.627 24.3867 312.32 24.7867 311.92 25.12C311.533 25.4533 311.06 25.6933 310.5 25.84V25.62C311.473 25.78 312.227 26.18 312.76 26.82C313.307 27.4467 313.58 28.24 313.58 29.2C313.58 30.0133 313.387 30.72 313 31.32C312.627 31.9067 312.087 32.3667 311.38 32.7C310.673 33.02 309.827 33.18 308.84 33.18Z" fill="#1A1A1A"/>
</svg>
