<svg width="175" height="174" viewBox="0 0 175 174" fill="none" xmlns="http://www.w3.org/2000/svg">
<path d="M1 87.5C1 72.0239 5.15204 56.8312 13.0232 43.5063C20.8943 30.1813 32.1962 19.212 45.7503 11.7424L87.5 87.5L1 87.5Z" fill="#C1F29E" stroke="#85CC29" stroke-width="2"/>
<path d="M45.6268 11.8106C59.2715 4.26201 74.7031 0.542252 90.2886 1.04496C105.874 1.54767 121.034 6.25415 134.164 14.6664L87.5 87.5L45.6268 11.8106Z" fill="#C1F29E" stroke="#85CC29" stroke-width="2"/>
<path d="M134.47 14.8632C146.507 22.6473 156.422 33.301 163.322 45.8666C170.221 58.4321 173.89 72.5154 173.998 86.8502L87.5 87.5L134.47 14.8632Z" fill="#C1F29E" stroke="#85CC29" stroke-width="2"/>
<path d="M134.47 159.137C146.507 151.353 156.422 140.699 163.322 128.133C170.221 115.568 173.89 101.485 173.998 87.1498L87.5 86.5L134.47 159.137Z" fill="white" stroke="#888888" stroke-width="2"/>
<path d="M1 86.5C1 101.976 5.15204 117.169 13.0232 130.494C20.8943 143.819 32.1962 154.788 45.7503 162.258L87.5 86.5L1 86.5Z" fill="#FFD2A6" stroke="#FF8F1F" stroke-width="2"/>
<path d="M45.6268 162.189C59.2715 169.738 74.7031 173.458 90.2886 172.955C105.874 172.452 121.034 167.746 134.164 159.334L87.5 86.5L45.6268 162.189Z" fill="#FFD2A6" stroke="#FF8F1F" stroke-width="2"/>
</svg>
