<svg width="462" height="19" viewBox="0 0 462 19" fill="none" xmlns="http://www.w3.org/2000/svg">
<path d="M7.33242 15.2C5.86576 15.2 4.60576 14.9067 3.55242 14.32C2.51242 13.72 1.71242 12.88 1.15242 11.8C0.592422 10.7067 0.312422 9.42 0.312422 7.94C0.312422 6.83333 0.472422 5.84 0.792422 4.96C1.11242 4.06667 1.57242 3.30667 2.17242 2.68C2.77242 2.04 3.50576 1.55333 4.37242 1.22C5.25242 0.873333 6.23909 0.699999 7.33242 0.699999C8.06576 0.699999 8.78576 0.793333 9.49242 0.979999C10.1991 1.16667 10.8191 1.43333 11.3524 1.78C11.6324 1.95333 11.8191 2.16667 11.9124 2.42C12.0058 2.66 12.0258 2.9 11.9724 3.14C11.9191 3.36667 11.8058 3.56 11.6324 3.72C11.4724 3.88 11.2658 3.97333 11.0124 4C10.7724 4.01333 10.5058 3.92667 10.2124 3.74C9.79909 3.47333 9.35242 3.28 8.87242 3.16C8.39242 3.04 7.90576 2.98 7.41242 2.98C6.46576 2.98 5.66576 3.17333 5.01242 3.56C4.35909 3.94667 3.86576 4.50667 3.53242 5.24C3.19909 5.97333 3.03242 6.87333 3.03242 7.94C3.03242 8.99333 3.19909 9.89333 3.53242 10.64C3.86576 11.3867 4.35909 11.9533 5.01242 12.34C5.66576 12.7267 6.46576 12.92 7.41242 12.92C7.91909 12.92 8.41909 12.86 8.91242 12.74C9.40576 12.6067 9.87242 12.4067 10.3124 12.14C10.6058 11.9667 10.8658 11.8933 11.0924 11.92C11.3324 11.9333 11.5324 12.0133 11.6924 12.16C11.8524 12.3067 11.9591 12.4933 12.0124 12.72C12.0658 12.9333 12.0524 13.16 11.9724 13.4C11.8924 13.6267 11.7324 13.8267 11.4924 14C10.9591 14.3867 10.3191 14.6867 9.57242 14.9C8.83909 15.1 8.09242 15.2 7.33242 15.2ZM17.883 15.2C16.8697 15.2 15.9897 14.9933 15.243 14.58C14.4964 14.1667 13.9164 13.58 13.503 12.82C13.0897 12.0467 12.883 11.14 12.883 10.1C12.883 9.31333 12.9964 8.61333 13.223 8C13.463 7.37333 13.803 6.84 14.243 6.4C14.683 5.94667 15.2097 5.60667 15.823 5.38C16.4364 5.14 17.123 5.02 17.883 5.02C18.8964 5.02 19.7764 5.22667 20.523 5.64C21.2697 6.05333 21.8497 6.64 22.263 7.4C22.6764 8.16 22.883 9.06 22.883 10.1C22.883 10.8867 22.763 11.5933 22.523 12.22C22.2964 12.8467 21.963 13.3867 21.523 13.84C21.083 14.28 20.5564 14.62 19.943 14.86C19.3297 15.0867 18.643 15.2 17.883 15.2ZM17.883 13.3C18.3764 13.3 18.8097 13.18 19.183 12.94C19.5564 12.7 19.843 12.3467 20.043 11.88C20.2564 11.4 20.363 10.8067 20.363 10.1C20.363 9.03333 20.1364 8.24 19.683 7.72C19.2297 7.18667 18.6297 6.92 17.883 6.92C17.3897 6.92 16.9564 7.04 16.583 7.28C16.2097 7.50667 15.9164 7.86 15.703 8.34C15.503 8.80667 15.403 9.39333 15.403 10.1C15.403 11.1533 15.6297 11.9533 16.083 12.5C16.5364 13.0333 17.1364 13.3 17.883 13.3ZM26.1865 15.16C25.7865 15.16 25.4798 15.0533 25.2665 14.84C25.0532 14.6133 24.9465 14.2933 24.9465 13.88V6.32C24.9465 5.90667 25.0532 5.59333 25.2665 5.38C25.4798 5.16667 25.7798 5.06 26.1665 5.06C26.5532 5.06 26.8532 5.16667 27.0665 5.38C27.2798 5.59333 27.3865 5.90667 27.3865 6.32V7.68L27.1665 7.18C27.4598 6.47333 27.9132 5.94 28.5265 5.58C29.1532 5.20667 29.8598 5.02 30.6465 5.02C31.4332 5.02 32.0798 5.16667 32.5865 5.46C33.0932 5.75333 33.4732 6.2 33.7265 6.8C33.9798 7.38667 34.1065 8.13333 34.1065 9.04V13.88C34.1065 14.2933 33.9998 14.6133 33.7865 14.84C33.5732 15.0533 33.2665 15.16 32.8665 15.16C32.4665 15.16 32.1532 15.0533 31.9265 14.84C31.7132 14.6133 31.6065 14.2933 31.6065 13.88V9.16C31.6065 8.4 31.4598 7.84667 31.1665 7.5C30.8865 7.15333 30.4465 6.98 29.8465 6.98C29.1132 6.98 28.5265 7.21333 28.0865 7.68C27.6598 8.13333 27.4465 8.74 27.4465 9.5V13.88C27.4465 14.7333 27.0265 15.16 26.1865 15.16ZM40.508 15.16C40.1747 15.16 39.8814 15.0733 39.628 14.9C39.388 14.7267 39.188 14.46 39.028 14.1L35.848 6.72C35.728 6.42667 35.6814 6.15333 35.708 5.9C35.748 5.64667 35.868 5.44667 36.068 5.3C36.2814 5.14 36.568 5.06 36.928 5.06C37.2347 5.06 37.4814 5.13333 37.668 5.28C37.8547 5.41333 38.0214 5.67333 38.168 6.06L40.868 12.8H40.268L43.048 6.04C43.1947 5.66667 43.3614 5.41333 43.548 5.28C43.748 5.13333 44.0147 5.06 44.348 5.06C44.6414 5.06 44.8747 5.14 45.048 5.3C45.2214 5.44667 45.328 5.64667 45.368 5.9C45.408 6.14 45.3614 6.40667 45.228 6.7L41.988 14.1C41.8414 14.46 41.6414 14.7267 41.388 14.9C41.148 15.0733 40.8547 15.16 40.508 15.16ZM51.7196 15.2C50.6129 15.2 49.6596 14.9933 48.8596 14.58C48.0596 14.1667 47.4396 13.58 46.9996 12.82C46.5729 12.06 46.3596 11.16 46.3596 10.12C46.3596 9.10667 46.5663 8.22 46.9796 7.46C47.4063 6.7 47.9863 6.10667 48.7196 5.68C49.4663 5.24 50.3129 5.02 51.2596 5.02C51.9529 5.02 52.5729 5.13333 53.1196 5.36C53.6796 5.58667 54.1529 5.91333 54.5396 6.34C54.9396 6.76667 55.2396 7.28667 55.4396 7.9C55.6529 8.5 55.7596 9.18 55.7596 9.94C55.7596 10.18 55.6729 10.3667 55.4996 10.5C55.3396 10.62 55.1063 10.68 54.7996 10.68H48.3796V9.24H53.9996L53.6796 9.54C53.6796 8.92667 53.5863 8.41333 53.3996 8C53.2263 7.58667 52.9663 7.27333 52.6196 7.06C52.2863 6.83333 51.8663 6.72 51.3596 6.72C50.7996 6.72 50.3196 6.85333 49.9196 7.12C49.5329 7.37333 49.2329 7.74 49.0196 8.22C48.8196 8.68667 48.7196 9.24667 48.7196 9.9V10.04C48.7196 11.1333 48.9729 11.9533 49.4796 12.5C49.9996 13.0333 50.7596 13.3 51.7596 13.3C52.1063 13.3 52.4929 13.26 52.9196 13.18C53.3596 13.0867 53.7729 12.9333 54.1596 12.72C54.4396 12.56 54.6863 12.4933 54.8996 12.52C55.1129 12.5333 55.2796 12.6067 55.3996 12.74C55.5329 12.8733 55.6129 13.04 55.6396 13.24C55.6663 13.4267 55.6263 13.62 55.5196 13.82C55.4263 14.02 55.2596 14.1933 55.0196 14.34C54.5529 14.6333 54.0129 14.8533 53.3996 15C52.7996 15.1333 52.2396 15.2 51.7196 15.2ZM59.0195 15.16C58.6061 15.16 58.2861 15.0533 58.0595 14.84C57.8461 14.6133 57.7395 14.2933 57.7395 13.88V6.32C57.7395 5.90667 57.8461 5.59333 58.0595 5.38C58.2728 5.16667 58.5728 5.06 58.9595 5.06C59.3461 5.06 59.6461 5.16667 59.8595 5.38C60.0728 5.59333 60.1795 5.90667 60.1795 6.32V7.58H59.9795C60.1661 6.78 60.5328 6.17333 61.0795 5.76C61.6261 5.34667 62.3528 5.1 63.2595 5.02C63.5395 4.99333 63.7595 5.06667 63.9195 5.24C64.0928 5.4 64.1928 5.65333 64.2195 6C64.2461 6.33333 64.1661 6.60667 63.9795 6.82C63.8061 7.02 63.5395 7.14 63.1795 7.18L62.7395 7.22C61.9261 7.3 61.3128 7.55333 60.8995 7.98C60.4861 8.39333 60.2795 8.98 60.2795 9.74V13.88C60.2795 14.2933 60.1728 14.6133 59.9595 14.84C59.7461 15.0533 59.4328 15.16 59.0195 15.16ZM70.6179 15.2C69.7512 15.2 69.0246 15.0533 68.4379 14.76C67.8646 14.4667 67.4379 14.04 67.1579 13.48C66.8779 12.9067 66.7379 12.2 66.7379 11.36V7.1H65.6979C65.3779 7.1 65.1312 7.02 64.9579 6.86C64.7846 6.68667 64.6979 6.45333 64.6979 6.16C64.6979 5.85333 64.7846 5.62 64.9579 5.46C65.1312 5.3 65.3779 5.22 65.6979 5.22H66.7379V3.4C66.7379 2.98667 66.8446 2.67333 67.0579 2.46C67.2846 2.24667 67.5979 2.14 67.9979 2.14C68.3979 2.14 68.7046 2.24667 68.9179 2.46C69.1312 2.67333 69.2379 2.98667 69.2379 3.4V5.22H71.3579C71.6779 5.22 71.9246 5.3 72.0979 5.46C72.2712 5.62 72.3579 5.85333 72.3579 6.16C72.3579 6.45333 72.2712 6.68667 72.0979 6.86C71.9246 7.02 71.6779 7.1 71.3579 7.1H69.2379V11.22C69.2379 11.86 69.3779 12.34 69.6579 12.66C69.9379 12.98 70.3912 13.14 71.0179 13.14C71.2446 13.14 71.4446 13.12 71.6179 13.08C71.7912 13.04 71.9446 13.0133 72.0779 13C72.2379 12.9867 72.3712 13.04 72.4779 13.16C72.5846 13.2667 72.6379 13.4933 72.6379 13.84C72.6379 14.1067 72.5912 14.3467 72.4979 14.56C72.4179 14.76 72.2646 14.9 72.0379 14.98C71.8646 15.0333 71.6379 15.08 71.3579 15.12C71.0779 15.1733 70.8312 15.2 70.6179 15.2ZM84.8834 15.2C84.0567 15.2 83.33 14.9933 82.7034 14.58C82.09 14.1667 81.6834 13.6133 81.4834 12.92L81.7034 12.42V13.88C81.7034 14.2933 81.5967 14.6133 81.3834 14.84C81.17 15.0533 80.87 15.16 80.4834 15.16C80.0834 15.16 79.7767 15.0533 79.5634 14.84C79.35 14.6133 79.2434 14.2933 79.2434 13.88V2C79.2434 1.58667 79.35 1.27333 79.5634 1.06C79.7767 0.846666 80.0834 0.739999 80.4834 0.739999C80.8834 0.739999 81.19 0.846666 81.4034 1.06C81.63 1.27333 81.7434 1.58667 81.7434 2V7.2H81.5034C81.7167 6.54667 82.13 6.02 82.7434 5.62C83.3567 5.22 84.07 5.02 84.8834 5.02C85.75 5.02 86.5034 5.22667 87.1434 5.64C87.7834 6.05333 88.2834 6.64 88.6434 7.4C89.0034 8.14667 89.1834 9.04667 89.1834 10.1C89.1834 11.14 89.0034 12.0467 88.6434 12.82C88.2834 13.58 87.7767 14.1667 87.1234 14.58C86.4834 14.9933 85.7367 15.2 84.8834 15.2ZM84.1834 13.3C84.6767 13.3 85.11 13.18 85.4834 12.94C85.8567 12.7 86.1434 12.3467 86.3434 11.88C86.5567 11.4 86.6634 10.8067 86.6634 10.1C86.6634 9.03333 86.4367 8.24 85.9834 7.72C85.53 7.18667 84.93 6.92 84.1834 6.92C83.69 6.92 83.2567 7.04 82.8834 7.28C82.51 7.50667 82.2167 7.86 82.0034 8.34C81.8034 8.80667 81.7034 9.39333 81.7034 10.1C81.7034 11.1533 81.93 11.9533 82.3834 12.5C82.8367 13.0333 83.4367 13.3 84.1834 13.3ZM95.6955 15.2C94.6822 15.2 93.8022 14.9933 93.0555 14.58C92.3089 14.1667 91.7289 13.58 91.3155 12.82C90.9022 12.0467 90.6955 11.14 90.6955 10.1C90.6955 9.31333 90.8089 8.61333 91.0355 8C91.2755 7.37333 91.6155 6.84 92.0555 6.4C92.4955 5.94667 93.0222 5.60667 93.6355 5.38C94.2489 5.14 94.9355 5.02 95.6955 5.02C96.7089 5.02 97.5889 5.22667 98.3355 5.64C99.0822 6.05333 99.6622 6.64 100.076 7.4C100.489 8.16 100.696 9.06 100.696 10.1C100.696 10.8867 100.576 11.5933 100.336 12.22C100.109 12.8467 99.7755 13.3867 99.3355 13.84C98.8955 14.28 98.3689 14.62 97.7555 14.86C97.1422 15.0867 96.4555 15.2 95.6955 15.2ZM95.6955 13.3C96.1889 13.3 96.6222 13.18 96.9955 12.94C97.3689 12.7 97.6555 12.3467 97.8555 11.88C98.0689 11.4 98.1755 10.8067 98.1755 10.1C98.1755 9.03333 97.9489 8.24 97.4955 7.72C97.0422 7.18667 96.4422 6.92 95.6955 6.92C95.2022 6.92 94.7689 7.04 94.3955 7.28C94.0222 7.50667 93.7289 7.86 93.5155 8.34C93.3155 8.80667 93.2155 9.39333 93.2155 10.1C93.2155 11.1533 93.4422 11.9533 93.8955 12.5C94.3489 13.0333 94.9489 13.3 95.6955 13.3ZM107.141 15.2C106.275 15.2 105.548 15.0533 104.961 14.76C104.388 14.4667 103.961 14.04 103.681 13.48C103.401 12.9067 103.261 12.2 103.261 11.36V7.1H102.221C101.901 7.1 101.655 7.02 101.481 6.86C101.308 6.68667 101.221 6.45333 101.221 6.16C101.221 5.85333 101.308 5.62 101.481 5.46C101.655 5.3 101.901 5.22 102.221 5.22H103.261V3.4C103.261 2.98667 103.368 2.67333 103.581 2.46C103.808 2.24667 104.121 2.14 104.521 2.14C104.921 2.14 105.228 2.24667 105.441 2.46C105.655 2.67333 105.761 2.98667 105.761 3.4V5.22H107.881C108.201 5.22 108.448 5.3 108.621 5.46C108.795 5.62 108.881 5.85333 108.881 6.16C108.881 6.45333 108.795 6.68667 108.621 6.86C108.448 7.02 108.201 7.1 107.881 7.1H105.761V11.22C105.761 11.86 105.901 12.34 106.181 12.66C106.461 12.98 106.915 13.14 107.541 13.14C107.768 13.14 107.968 13.12 108.141 13.08C108.315 13.04 108.468 13.0133 108.601 13C108.761 12.9867 108.895 13.04 109.001 13.16C109.108 13.2667 109.161 13.4933 109.161 13.84C109.161 14.1067 109.115 14.3467 109.021 14.56C108.941 14.76 108.788 14.9 108.561 14.98C108.388 15.0333 108.161 15.08 107.881 15.12C107.601 15.1733 107.355 15.2 107.141 15.2ZM111.831 15.16C111.431 15.16 111.124 15.0533 110.911 14.84C110.698 14.6133 110.591 14.2933 110.591 13.88V2C110.591 1.58667 110.698 1.27333 110.911 1.06C111.124 0.846666 111.431 0.739999 111.831 0.739999C112.231 0.739999 112.538 0.846666 112.751 1.06C112.978 1.27333 113.091 1.58667 113.091 2V7.18H112.811C113.104 6.47333 113.558 5.94 114.171 5.58C114.798 5.20667 115.504 5.02 116.291 5.02C117.078 5.02 117.724 5.16667 118.231 5.46C118.738 5.75333 119.118 6.2 119.371 6.8C119.624 7.38667 119.751 8.13333 119.751 9.04V13.88C119.751 14.2933 119.644 14.6133 119.431 14.84C119.218 15.0533 118.911 15.16 118.511 15.16C118.111 15.16 117.798 15.0533 117.571 14.84C117.358 14.6133 117.251 14.2933 117.251 13.88V9.16C117.251 8.4 117.104 7.84667 116.811 7.5C116.531 7.15333 116.091 6.98 115.491 6.98C114.758 6.98 114.171 7.21333 113.731 7.68C113.304 8.13333 113.091 8.74 113.091 9.5V13.88C113.091 14.7333 112.671 15.16 111.831 15.16ZM132.2 15.2C131.333 15.2 130.607 15.0533 130.02 14.76C129.447 14.4667 129.02 14.04 128.74 13.48C128.46 12.9067 128.32 12.2 128.32 11.36V7.1H127.28C126.96 7.1 126.713 7.02 126.54 6.86C126.367 6.68667 126.28 6.45333 126.28 6.16C126.28 5.85333 126.367 5.62 126.54 5.46C126.713 5.3 126.96 5.22 127.28 5.22H128.32V3.4C128.32 2.98667 128.427 2.67333 128.64 2.46C128.867 2.24667 129.18 2.14 129.58 2.14C129.98 2.14 130.287 2.24667 130.5 2.46C130.713 2.67333 130.82 2.98667 130.82 3.4V5.22H132.94C133.26 5.22 133.507 5.3 133.68 5.46C133.853 5.62 133.94 5.85333 133.94 6.16C133.94 6.45333 133.853 6.68667 133.68 6.86C133.507 7.02 133.26 7.1 132.94 7.1H130.82V11.22C130.82 11.86 130.96 12.34 131.24 12.66C131.52 12.98 131.973 13.14 132.6 13.14C132.827 13.14 133.027 13.12 133.2 13.08C133.373 13.04 133.527 13.0133 133.66 13C133.82 12.9867 133.953 13.04 134.06 13.16C134.167 13.2667 134.22 13.4933 134.22 13.84C134.22 14.1067 134.173 14.3467 134.08 14.56C134 14.76 133.847 14.9 133.62 14.98C133.447 15.0333 133.22 15.08 132.94 15.12C132.66 15.1733 132.413 15.2 132.2 15.2ZM136.89 15.16C136.49 15.16 136.183 15.0533 135.97 14.84C135.756 14.6133 135.65 14.2933 135.65 13.88V2C135.65 1.58667 135.756 1.27333 135.97 1.06C136.183 0.846666 136.49 0.739999 136.89 0.739999C137.29 0.739999 137.596 0.846666 137.81 1.06C138.036 1.27333 138.15 1.58667 138.15 2V7.18H137.87C138.163 6.47333 138.616 5.94 139.23 5.58C139.856 5.20667 140.563 5.02 141.35 5.02C142.136 5.02 142.783 5.16667 143.29 5.46C143.796 5.75333 144.176 6.2 144.43 6.8C144.683 7.38667 144.81 8.13333 144.81 9.04V13.88C144.81 14.2933 144.703 14.6133 144.49 14.84C144.276 15.0533 143.97 15.16 143.57 15.16C143.17 15.16 142.856 15.0533 142.63 14.84C142.416 14.6133 142.31 14.2933 142.31 13.88V9.16C142.31 8.4 142.163 7.84667 141.87 7.5C141.59 7.15333 141.15 6.98 140.55 6.98C139.816 6.98 139.23 7.21333 138.79 7.68C138.363 8.13333 138.15 8.74 138.15 9.5V13.88C138.15 14.7333 137.73 15.16 136.89 15.16ZM152.169 15.2C151.062 15.2 150.109 14.9933 149.309 14.58C148.509 14.1667 147.889 13.58 147.449 12.82C147.022 12.06 146.809 11.16 146.809 10.12C146.809 9.10667 147.015 8.22 147.429 7.46C147.855 6.7 148.435 6.10667 149.169 5.68C149.915 5.24 150.762 5.02 151.709 5.02C152.402 5.02 153.022 5.13333 153.569 5.36C154.129 5.58667 154.602 5.91333 154.989 6.34C155.389 6.76667 155.689 7.28667 155.889 7.9C156.102 8.5 156.209 9.18 156.209 9.94C156.209 10.18 156.122 10.3667 155.949 10.5C155.789 10.62 155.555 10.68 155.249 10.68H148.829V9.24H154.449L154.129 9.54C154.129 8.92667 154.035 8.41333 153.849 8C153.675 7.58667 153.415 7.27333 153.069 7.06C152.735 6.83333 152.315 6.72 151.809 6.72C151.249 6.72 150.769 6.85333 150.369 7.12C149.982 7.37333 149.682 7.74 149.469 8.22C149.269 8.68667 149.169 9.24667 149.169 9.9V10.04C149.169 11.1333 149.422 11.9533 149.929 12.5C150.449 13.0333 151.209 13.3 152.209 13.3C152.555 13.3 152.942 13.26 153.369 13.18C153.809 13.0867 154.222 12.9333 154.609 12.72C154.889 12.56 155.135 12.4933 155.349 12.52C155.562 12.5333 155.729 12.6067 155.849 12.74C155.982 12.8733 156.062 13.04 156.089 13.24C156.115 13.4267 156.075 13.62 155.969 13.82C155.875 14.02 155.709 14.1933 155.469 14.34C155.002 14.6333 154.462 14.8533 153.849 15C153.249 15.1333 152.689 15.2 152.169 15.2ZM165.538 15.16C165.138 15.16 164.825 15.0533 164.598 14.84C164.385 14.6133 164.278 14.2933 164.278 13.88V7.1H163.358C163.038 7.1 162.792 7.02 162.618 6.86C162.445 6.68667 162.358 6.45333 162.358 6.16C162.358 5.85333 162.445 5.62 162.618 5.46C162.792 5.3 163.038 5.22 163.358 5.22H164.998L164.278 5.88V5.2C164.278 3.82667 164.625 2.8 165.318 2.12C166.012 1.42667 167.012 1.02 168.318 0.899999L168.998 0.84C169.265 0.813333 169.478 0.859999 169.638 0.979999C169.798 1.08667 169.905 1.23333 169.958 1.42C170.012 1.59333 170.018 1.77333 169.978 1.96C169.938 2.14667 169.852 2.31333 169.718 2.46C169.598 2.59333 169.438 2.66667 169.238 2.68L168.958 2.7C168.198 2.75333 167.645 2.94667 167.298 3.28C166.952 3.61333 166.778 4.12 166.778 4.8V5.54L166.458 5.22H168.478C168.798 5.22 169.045 5.3 169.218 5.46C169.392 5.62 169.478 5.85333 169.478 6.16C169.478 6.45333 169.392 6.68667 169.218 6.86C169.045 7.02 168.798 7.1 168.478 7.1H166.778V13.88C166.778 14.7333 166.365 15.16 165.538 15.16ZM172.184 15.16C171.77 15.16 171.45 15.0533 171.224 14.84C171.01 14.6133 170.904 14.2933 170.904 13.88V6.32C170.904 5.90667 171.01 5.59333 171.224 5.38C171.437 5.16667 171.737 5.06 172.124 5.06C172.51 5.06 172.81 5.16667 173.024 5.38C173.237 5.59333 173.344 5.90667 173.344 6.32V7.58H173.144C173.33 6.78 173.697 6.17333 174.244 5.76C174.79 5.34667 175.517 5.1 176.424 5.02C176.704 4.99333 176.924 5.06667 177.084 5.24C177.257 5.4 177.357 5.65333 177.384 6C177.41 6.33333 177.33 6.60667 177.144 6.82C176.97 7.02 176.704 7.14 176.344 7.18L175.904 7.22C175.09 7.3 174.477 7.55333 174.064 7.98C173.65 8.39333 173.444 8.98 173.444 9.74V13.88C173.444 14.2933 173.337 14.6133 173.124 14.84C172.91 15.0533 172.597 15.16 172.184 15.16ZM181.858 15.2C181.151 15.2 180.518 15.0667 179.958 14.8C179.411 14.52 178.978 14.1467 178.658 13.68C178.351 13.2133 178.198 12.6867 178.198 12.1C178.198 11.38 178.385 10.8133 178.758 10.4C179.131 9.97333 179.738 9.66667 180.578 9.48C181.418 9.29333 182.545 9.2 183.958 9.2H184.958V10.64H183.978C183.151 10.64 182.491 10.68 181.998 10.76C181.505 10.84 181.151 10.98 180.938 11.18C180.738 11.3667 180.638 11.6333 180.638 11.98C180.638 12.42 180.791 12.78 181.098 13.06C181.405 13.34 181.831 13.48 182.378 13.48C182.818 13.48 183.205 13.38 183.538 13.18C183.885 12.9667 184.158 12.68 184.358 12.32C184.558 11.96 184.658 11.5467 184.658 11.08V8.78C184.658 8.11333 184.511 7.63333 184.218 7.34C183.925 7.04667 183.431 6.9 182.738 6.9C182.351 6.9 181.931 6.94667 181.478 7.04C181.038 7.13333 180.571 7.29333 180.078 7.52C179.825 7.64 179.598 7.67333 179.398 7.62C179.211 7.56667 179.065 7.46 178.958 7.3C178.851 7.12667 178.798 6.94 178.798 6.74C178.798 6.54 178.851 6.34667 178.958 6.16C179.065 5.96 179.245 5.81333 179.498 5.72C180.111 5.46667 180.698 5.28667 181.258 5.18C181.831 5.07333 182.351 5.02 182.818 5.02C183.778 5.02 184.565 5.16667 185.178 5.46C185.805 5.75333 186.271 6.2 186.578 6.8C186.885 7.38667 187.038 8.14667 187.038 9.08V13.88C187.038 14.2933 186.938 14.6133 186.738 14.84C186.538 15.0533 186.251 15.16 185.878 15.16C185.505 15.16 185.211 15.0533 184.998 14.84C184.798 14.6133 184.698 14.2933 184.698 13.88V12.92H184.858C184.765 13.3867 184.578 13.7933 184.298 14.14C184.031 14.4733 183.691 14.7333 183.278 14.92C182.865 15.1067 182.391 15.2 181.858 15.2ZM194.095 15.2C193.069 15.2 192.175 14.9933 191.415 14.58C190.655 14.1533 190.069 13.5533 189.655 12.78C189.242 12.0067 189.035 11.1 189.035 10.06C189.035 9.27333 189.149 8.57333 189.375 7.96C189.615 7.33333 189.955 6.80667 190.395 6.38C190.835 5.94 191.369 5.60667 191.995 5.38C192.622 5.14 193.322 5.02 194.095 5.02C194.535 5.02 195.009 5.08 195.515 5.2C196.035 5.32 196.522 5.52 196.975 5.8C197.189 5.93333 197.329 6.09333 197.395 6.28C197.462 6.46667 197.475 6.66 197.435 6.86C197.395 7.04667 197.309 7.21333 197.175 7.36C197.055 7.49333 196.902 7.58 196.715 7.62C196.529 7.64667 196.322 7.6 196.095 7.48C195.802 7.30667 195.502 7.18 195.195 7.1C194.889 7.00667 194.595 6.96 194.315 6.96C193.875 6.96 193.489 7.03333 193.155 7.18C192.822 7.31333 192.535 7.51333 192.295 7.78C192.069 8.03333 191.895 8.35333 191.775 8.74C191.655 9.12667 191.595 9.57333 191.595 10.08C191.595 11.0667 191.829 11.8467 192.295 12.42C192.775 12.98 193.449 13.26 194.315 13.26C194.595 13.26 194.882 13.22 195.175 13.14C195.482 13.06 195.789 12.9333 196.095 12.76C196.322 12.64 196.522 12.6 196.695 12.64C196.882 12.68 197.035 12.7733 197.155 12.92C197.275 13.0533 197.349 13.22 197.375 13.42C197.402 13.6067 197.375 13.7933 197.295 13.98C197.229 14.1667 197.095 14.32 196.895 14.44C196.455 14.7067 195.989 14.9 195.495 15.02C195.002 15.14 194.535 15.2 194.095 15.2ZM203.528 15.2C202.661 15.2 201.935 15.0533 201.348 14.76C200.775 14.4667 200.348 14.04 200.068 13.48C199.788 12.9067 199.648 12.2 199.648 11.36V7.1H198.608C198.288 7.1 198.041 7.02 197.868 6.86C197.695 6.68667 197.608 6.45333 197.608 6.16C197.608 5.85333 197.695 5.62 197.868 5.46C198.041 5.3 198.288 5.22 198.608 5.22H199.648V3.4C199.648 2.98667 199.755 2.67333 199.968 2.46C200.195 2.24667 200.508 2.14 200.908 2.14C201.308 2.14 201.615 2.24667 201.828 2.46C202.041 2.67333 202.148 2.98667 202.148 3.4V5.22H204.268C204.588 5.22 204.835 5.3 205.008 5.46C205.181 5.62 205.268 5.85333 205.268 6.16C205.268 6.45333 205.181 6.68667 205.008 6.86C204.835 7.02 204.588 7.1 204.268 7.1H202.148V11.22C202.148 11.86 202.288 12.34 202.568 12.66C202.848 12.98 203.301 13.14 203.928 13.14C204.155 13.14 204.355 13.12 204.528 13.08C204.701 13.04 204.855 13.0133 204.988 13C205.148 12.9867 205.281 13.04 205.388 13.16C205.495 13.2667 205.548 13.4933 205.548 13.84C205.548 14.1067 205.501 14.3467 205.408 14.56C205.328 14.76 205.175 14.9 204.948 14.98C204.775 15.0333 204.548 15.08 204.268 15.12C203.988 15.1733 203.741 15.2 203.528 15.2ZM208.218 15.14C207.818 15.14 207.511 15.02 207.298 14.78C207.084 14.54 206.978 14.2067 206.978 13.78V6.44C206.978 6 207.084 5.66667 207.298 5.44C207.511 5.2 207.818 5.08 208.218 5.08C208.618 5.08 208.924 5.2 209.138 5.44C209.364 5.66667 209.478 6 209.478 6.44V13.78C209.478 14.2067 209.371 14.54 209.158 14.78C208.944 15.02 208.631 15.14 208.218 15.14ZM208.218 3.22C207.751 3.22 207.384 3.10667 207.118 2.88C206.864 2.64 206.738 2.31333 206.738 1.9C206.738 1.47333 206.864 1.14667 207.118 0.919999C207.384 0.693333 207.751 0.58 208.218 0.58C208.698 0.58 209.064 0.693333 209.318 0.919999C209.571 1.14667 209.698 1.47333 209.698 1.9C209.698 2.31333 209.571 2.64 209.318 2.88C209.064 3.10667 208.698 3.22 208.218 3.22ZM216.535 15.2C215.522 15.2 214.642 14.9933 213.895 14.58C213.149 14.1667 212.569 13.58 212.155 12.82C211.742 12.0467 211.535 11.14 211.535 10.1C211.535 9.31333 211.649 8.61333 211.875 8C212.115 7.37333 212.455 6.84 212.895 6.4C213.335 5.94667 213.862 5.60667 214.475 5.38C215.089 5.14 215.775 5.02 216.535 5.02C217.549 5.02 218.429 5.22667 219.175 5.64C219.922 6.05333 220.502 6.64 220.915 7.4C221.329 8.16 221.535 9.06 221.535 10.1C221.535 10.8867 221.415 11.5933 221.175 12.22C220.949 12.8467 220.615 13.3867 220.175 13.84C219.735 14.28 219.209 14.62 218.595 14.86C217.982 15.0867 217.295 15.2 216.535 15.2ZM216.535 13.3C217.029 13.3 217.462 13.18 217.835 12.94C218.209 12.7 218.495 12.3467 218.695 11.88C218.909 11.4 219.015 10.8067 219.015 10.1C219.015 9.03333 218.789 8.24 218.335 7.72C217.882 7.18667 217.282 6.92 216.535 6.92C216.042 6.92 215.609 7.04 215.235 7.28C214.862 7.50667 214.569 7.86 214.355 8.34C214.155 8.80667 214.055 9.39333 214.055 10.1C214.055 11.1533 214.282 11.9533 214.735 12.5C215.189 13.0333 215.789 13.3 216.535 13.3ZM224.839 15.16C224.439 15.16 224.132 15.0533 223.919 14.84C223.705 14.6133 223.599 14.2933 223.599 13.88V6.32C223.599 5.90667 223.705 5.59333 223.919 5.38C224.132 5.16667 224.432 5.06 224.819 5.06C225.205 5.06 225.505 5.16667 225.719 5.38C225.932 5.59333 226.039 5.90667 226.039 6.32V7.68L225.819 7.18C226.112 6.47333 226.565 5.94 227.179 5.58C227.805 5.20667 228.512 5.02 229.299 5.02C230.085 5.02 230.732 5.16667 231.239 5.46C231.745 5.75333 232.125 6.2 232.379 6.8C232.632 7.38667 232.759 8.13333 232.759 9.04V13.88C232.759 14.2933 232.652 14.6133 232.439 14.84C232.225 15.0533 231.919 15.16 231.519 15.16C231.119 15.16 230.805 15.0533 230.579 14.84C230.365 14.6133 230.259 14.2933 230.259 13.88V9.16C230.259 8.4 230.112 7.84667 229.819 7.5C229.539 7.15333 229.099 6.98 228.499 6.98C227.765 6.98 227.179 7.21333 226.739 7.68C226.312 8.13333 226.099 8.74 226.099 9.5V13.88C226.099 14.7333 225.679 15.16 224.839 15.16ZM238.878 15.2C238.305 15.2 237.698 15.14 237.058 15.02C236.418 14.9 235.845 14.6933 235.338 14.4C235.125 14.2667 234.971 14.1133 234.878 13.94C234.798 13.7533 234.765 13.5733 234.778 13.4C234.805 13.2133 234.871 13.0533 234.978 12.92C235.098 12.7867 235.245 12.7 235.418 12.66C235.605 12.62 235.805 12.6533 236.018 12.76C236.551 13.0133 237.051 13.1933 237.518 13.3C237.985 13.3933 238.445 13.44 238.898 13.44C239.538 13.44 240.011 13.3333 240.318 13.12C240.638 12.8933 240.798 12.6 240.798 12.24C240.798 11.9333 240.691 11.7 240.478 11.54C240.278 11.3667 239.971 11.24 239.558 11.16L237.558 10.78C236.731 10.62 236.098 10.32 235.658 9.88C235.231 9.42667 235.018 8.84667 235.018 8.14C235.018 7.5 235.191 6.94667 235.538 6.48C235.898 6.01333 236.391 5.65333 237.018 5.4C237.645 5.14667 238.365 5.02 239.178 5.02C239.765 5.02 240.311 5.08667 240.818 5.22C241.338 5.34 241.838 5.53333 242.318 5.8C242.518 5.90667 242.651 6.04667 242.718 6.22C242.798 6.39333 242.818 6.57333 242.778 6.76C242.738 6.93333 242.658 7.09333 242.538 7.24C242.418 7.37333 242.265 7.46 242.078 7.5C241.905 7.52667 241.705 7.48667 241.478 7.38C241.065 7.16667 240.665 7.01333 240.278 6.92C239.905 6.82667 239.545 6.78 239.198 6.78C238.545 6.78 238.058 6.89333 237.738 7.12C237.431 7.34667 237.278 7.64667 237.278 8.02C237.278 8.3 237.371 8.53333 237.558 8.72C237.745 8.90667 238.031 9.03333 238.418 9.1L240.418 9.48C241.285 9.64 241.938 9.93333 242.378 10.36C242.831 10.7867 243.058 11.36 243.058 12.08C243.058 13.0533 242.678 13.82 241.918 14.38C241.158 14.9267 240.145 15.2 238.878 15.2ZM254.973 15.2C254.107 15.2 253.38 15.0533 252.793 14.76C252.22 14.4667 251.793 14.04 251.513 13.48C251.233 12.9067 251.093 12.2 251.093 11.36V7.1H250.053C249.733 7.1 249.487 7.02 249.313 6.86C249.14 6.68667 249.053 6.45333 249.053 6.16C249.053 5.85333 249.14 5.62 249.313 5.46C249.487 5.3 249.733 5.22 250.053 5.22H251.093V3.4C251.093 2.98667 251.2 2.67333 251.413 2.46C251.64 2.24667 251.953 2.14 252.353 2.14C252.753 2.14 253.06 2.24667 253.273 2.46C253.487 2.67333 253.593 2.98667 253.593 3.4V5.22H255.713C256.033 5.22 256.28 5.3 256.453 5.46C256.627 5.62 256.713 5.85333 256.713 6.16C256.713 6.45333 256.627 6.68667 256.453 6.86C256.28 7.02 256.033 7.1 255.713 7.1H253.593V11.22C253.593 11.86 253.733 12.34 254.013 12.66C254.293 12.98 254.747 13.14 255.373 13.14C255.6 13.14 255.8 13.12 255.973 13.08C256.147 13.04 256.3 13.0133 256.433 13C256.593 12.9867 256.727 13.04 256.833 13.16C256.94 13.2667 256.993 13.4933 256.993 13.84C256.993 14.1067 256.947 14.3467 256.853 14.56C256.773 14.76 256.62 14.9 256.393 14.98C256.22 15.0333 255.993 15.08 255.713 15.12C255.433 15.1733 255.187 15.2 254.973 15.2ZM262.531 15.2C261.518 15.2 260.638 14.9933 259.891 14.58C259.145 14.1667 258.565 13.58 258.151 12.82C257.738 12.0467 257.531 11.14 257.531 10.1C257.531 9.31333 257.645 8.61333 257.871 8C258.111 7.37333 258.451 6.84 258.891 6.4C259.331 5.94667 259.858 5.60667 260.471 5.38C261.085 5.14 261.771 5.02 262.531 5.02C263.545 5.02 264.425 5.22667 265.171 5.64C265.918 6.05333 266.498 6.64 266.911 7.4C267.325 8.16 267.531 9.06 267.531 10.1C267.531 10.8867 267.411 11.5933 267.171 12.22C266.945 12.8467 266.611 13.3867 266.171 13.84C265.731 14.28 265.205 14.62 264.591 14.86C263.978 15.0867 263.291 15.2 262.531 15.2ZM262.531 13.3C263.025 13.3 263.458 13.18 263.831 12.94C264.205 12.7 264.491 12.3467 264.691 11.88C264.905 11.4 265.011 10.8067 265.011 10.1C265.011 9.03333 264.785 8.24 264.331 7.72C263.878 7.18667 263.278 6.92 262.531 6.92C262.038 6.92 261.605 7.04 261.231 7.28C260.858 7.50667 260.565 7.86 260.351 8.34C260.151 8.80667 260.051 9.39333 260.051 10.1C260.051 11.1533 260.278 11.9533 260.731 12.5C261.185 13.0333 261.785 13.3 262.531 13.3ZM279.845 15.2C278.738 15.2 277.785 14.9933 276.985 14.58C276.185 14.1667 275.565 13.58 275.125 12.82C274.698 12.06 274.485 11.16 274.485 10.12C274.485 9.10667 274.691 8.22 275.105 7.46C275.531 6.7 276.111 6.10667 276.845 5.68C277.591 5.24 278.438 5.02 279.385 5.02C280.078 5.02 280.698 5.13333 281.245 5.36C281.805 5.58667 282.278 5.91333 282.665 6.34C283.065 6.76667 283.365 7.28667 283.565 7.9C283.778 8.5 283.885 9.18 283.885 9.94C283.885 10.18 283.798 10.3667 283.625 10.5C283.465 10.62 283.231 10.68 282.925 10.68H276.505V9.24H282.125L281.805 9.54C281.805 8.92667 281.711 8.41333 281.525 8C281.351 7.58667 281.091 7.27333 280.745 7.06C280.411 6.83333 279.991 6.72 279.485 6.72C278.925 6.72 278.445 6.85333 278.045 7.12C277.658 7.37333 277.358 7.74 277.145 8.22C276.945 8.68667 276.845 9.24667 276.845 9.9V10.04C276.845 11.1333 277.098 11.9533 277.605 12.5C278.125 13.0333 278.885 13.3 279.885 13.3C280.231 13.3 280.618 13.26 281.045 13.18C281.485 13.0867 281.898 12.9333 282.285 12.72C282.565 12.56 282.811 12.4933 283.025 12.52C283.238 12.5333 283.405 12.6067 283.525 12.74C283.658 12.8733 283.738 13.04 283.765 13.24C283.791 13.4267 283.751 13.62 283.645 13.82C283.551 14.02 283.385 14.1933 283.145 14.34C282.678 14.6333 282.138 14.8533 281.525 15C280.925 15.1333 280.365 15.2 279.845 15.2ZM294.004 18.76C293.604 18.76 293.298 18.6533 293.084 18.44C292.871 18.2267 292.764 17.9133 292.764 17.5V13H292.984C292.771 13.6533 292.358 14.1867 291.744 14.6C291.144 15 290.438 15.2 289.624 15.2C288.771 15.2 288.018 14.9933 287.364 14.58C286.724 14.1667 286.224 13.58 285.864 12.82C285.504 12.0467 285.324 11.14 285.324 10.1C285.324 9.04667 285.504 8.14667 285.864 7.4C286.224 6.64 286.724 6.05333 287.364 5.64C288.018 5.22667 288.771 5.02 289.624 5.02C290.451 5.02 291.171 5.22667 291.784 5.64C292.398 6.05333 292.804 6.6 293.004 7.28L292.784 7.88V6.32C292.784 5.90667 292.891 5.59333 293.104 5.38C293.318 5.16667 293.624 5.06 294.024 5.06C294.424 5.06 294.731 5.16667 294.944 5.38C295.158 5.59333 295.264 5.90667 295.264 6.32V17.5C295.264 17.9133 295.151 18.2267 294.924 18.44C294.711 18.6533 294.404 18.76 294.004 18.76ZM290.324 13.3C290.818 13.3 291.251 13.18 291.624 12.94C291.998 12.7 292.284 12.3467 292.484 11.88C292.698 11.4 292.804 10.8067 292.804 10.1C292.804 9.03333 292.578 8.24 292.124 7.72C291.671 7.18667 291.071 6.92 290.324 6.92C289.831 6.92 289.398 7.04 289.024 7.28C288.651 7.50667 288.358 7.86 288.144 8.34C287.944 8.80667 287.844 9.39333 287.844 10.1C287.844 11.1533 288.071 11.9533 288.524 12.5C288.978 13.0333 289.578 13.3 290.324 13.3ZM301.397 15.2C300.583 15.2 299.91 15.0533 299.377 14.76C298.843 14.4533 298.443 14 298.177 13.4C297.923 12.8 297.797 12.0533 297.797 11.16V6.32C297.797 5.89333 297.903 5.58 298.117 5.38C298.33 5.16667 298.637 5.06 299.037 5.06C299.437 5.06 299.743 5.16667 299.957 5.38C300.183 5.58 300.297 5.89333 300.297 6.32V11.2C300.297 11.8933 300.437 12.4067 300.717 12.74C300.997 13.0733 301.443 13.24 302.057 13.24C302.723 13.24 303.27 13.0133 303.697 12.56C304.123 12.0933 304.337 11.48 304.337 10.72V6.32C304.337 5.89333 304.443 5.58 304.657 5.38C304.87 5.16667 305.177 5.06 305.577 5.06C305.977 5.06 306.283 5.16667 306.497 5.38C306.723 5.58 306.837 5.89333 306.837 6.32V13.88C306.837 14.7333 306.43 15.16 305.617 15.16C305.23 15.16 304.93 15.0533 304.717 14.84C304.503 14.6133 304.397 14.2933 304.397 13.88V12.36L304.677 12.96C304.397 13.68 303.97 14.2333 303.397 14.62C302.837 15.0067 302.17 15.2 301.397 15.2ZM310.679 15.14C310.279 15.14 309.972 15.02 309.759 14.78C309.545 14.54 309.439 14.2067 309.439 13.78V6.44C309.439 6 309.545 5.66667 309.759 5.44C309.972 5.2 310.279 5.08 310.679 5.08C311.079 5.08 311.385 5.2 311.599 5.44C311.825 5.66667 311.939 6 311.939 6.44V13.78C311.939 14.2067 311.832 14.54 311.619 14.78C311.405 15.02 311.092 15.14 310.679 15.14ZM310.679 3.22C310.212 3.22 309.845 3.10667 309.579 2.88C309.325 2.64 309.199 2.31333 309.199 1.9C309.199 1.47333 309.325 1.14667 309.579 0.919999C309.845 0.693333 310.212 0.58 310.679 0.58C311.159 0.58 311.525 0.693333 311.779 0.919999C312.032 1.14667 312.159 1.47333 312.159 1.9C312.159 2.31333 312.032 2.64 311.779 2.88C311.525 3.10667 311.159 3.22 310.679 3.22ZM318.496 15.16C318.163 15.16 317.87 15.0733 317.616 14.9C317.376 14.7267 317.176 14.46 317.016 14.1L313.836 6.72C313.716 6.42667 313.67 6.15333 313.696 5.9C313.736 5.64667 313.856 5.44667 314.056 5.3C314.27 5.14 314.556 5.06 314.916 5.06C315.223 5.06 315.47 5.13333 315.656 5.28C315.843 5.41333 316.01 5.67333 316.156 6.06L318.856 12.8H318.256L321.036 6.04C321.183 5.66667 321.35 5.41333 321.536 5.28C321.736 5.13333 322.003 5.06 322.336 5.06C322.63 5.06 322.863 5.14 323.036 5.3C323.21 5.44667 323.316 5.64667 323.356 5.9C323.396 6.14 323.35 6.40667 323.216 6.7L319.976 14.1C319.83 14.46 319.63 14.7267 319.376 14.9C319.136 15.0733 318.843 15.16 318.496 15.16ZM328.108 15.2C327.401 15.2 326.768 15.0667 326.208 14.8C325.661 14.52 325.228 14.1467 324.908 13.68C324.601 13.2133 324.448 12.6867 324.448 12.1C324.448 11.38 324.635 10.8133 325.008 10.4C325.381 9.97333 325.988 9.66667 326.828 9.48C327.668 9.29333 328.795 9.2 330.208 9.2H331.208V10.64H330.228C329.401 10.64 328.741 10.68 328.248 10.76C327.755 10.84 327.401 10.98 327.188 11.18C326.988 11.3667 326.888 11.6333 326.888 11.98C326.888 12.42 327.041 12.78 327.348 13.06C327.655 13.34 328.081 13.48 328.628 13.48C329.068 13.48 329.455 13.38 329.788 13.18C330.135 12.9667 330.408 12.68 330.608 12.32C330.808 11.96 330.908 11.5467 330.908 11.08V8.78C330.908 8.11333 330.761 7.63333 330.468 7.34C330.175 7.04667 329.681 6.9 328.988 6.9C328.601 6.9 328.181 6.94667 327.728 7.04C327.288 7.13333 326.821 7.29333 326.328 7.52C326.075 7.64 325.848 7.67333 325.648 7.62C325.461 7.56667 325.315 7.46 325.208 7.3C325.101 7.12667 325.048 6.94 325.048 6.74C325.048 6.54 325.101 6.34667 325.208 6.16C325.315 5.96 325.495 5.81333 325.748 5.72C326.361 5.46667 326.948 5.28667 327.508 5.18C328.081 5.07333 328.601 5.02 329.068 5.02C330.028 5.02 330.815 5.16667 331.428 5.46C332.055 5.75333 332.521 6.2 332.828 6.8C333.135 7.38667 333.288 8.14667 333.288 9.08V13.88C333.288 14.2933 333.188 14.6133 332.988 14.84C332.788 15.0533 332.501 15.16 332.128 15.16C331.755 15.16 331.461 15.0533 331.248 14.84C331.048 14.6133 330.948 14.2933 330.948 13.88V12.92H331.108C331.015 13.3867 330.828 13.7933 330.548 14.14C330.281 14.4733 329.941 14.7333 329.528 14.92C329.115 15.1067 328.641 15.2 328.108 15.2ZM339.165 15.2C338.059 15.2 337.225 14.8867 336.665 14.26C336.105 13.62 335.825 12.6867 335.825 11.46V2C335.825 1.58667 335.932 1.27333 336.145 1.06C336.359 0.846666 336.665 0.739999 337.065 0.739999C337.465 0.739999 337.772 0.846666 337.985 1.06C338.212 1.27333 338.325 1.58667 338.325 2V11.34C338.325 11.9533 338.452 12.4067 338.705 12.7C338.972 12.9933 339.345 13.14 339.825 13.14C339.932 13.14 340.032 13.14 340.125 13.14C340.219 13.1267 340.312 13.1133 340.405 13.1C340.592 13.0733 340.719 13.1267 340.785 13.26C340.852 13.38 340.885 13.6333 340.885 14.02C340.885 14.3533 340.819 14.6133 340.685 14.8C340.552 14.9867 340.332 15.1 340.025 15.14C339.892 15.1533 339.752 15.1667 339.605 15.18C339.459 15.1933 339.312 15.2 339.165 15.2ZM346.934 15.2C345.828 15.2 344.874 14.9933 344.074 14.58C343.274 14.1667 342.654 13.58 342.214 12.82C341.788 12.06 341.574 11.16 341.574 10.12C341.574 9.10667 341.781 8.22 342.194 7.46C342.621 6.7 343.201 6.10667 343.934 5.68C344.681 5.24 345.528 5.02 346.474 5.02C347.168 5.02 347.788 5.13333 348.334 5.36C348.894 5.58667 349.368 5.91333 349.754 6.34C350.154 6.76667 350.454 7.28667 350.654 7.9C350.868 8.5 350.974 9.18 350.974 9.94C350.974 10.18 350.888 10.3667 350.714 10.5C350.554 10.62 350.321 10.68 350.014 10.68H343.594V9.24H349.214L348.894 9.54C348.894 8.92667 348.801 8.41333 348.614 8C348.441 7.58667 348.181 7.27333 347.834 7.06C347.501 6.83333 347.081 6.72 346.574 6.72C346.014 6.72 345.534 6.85333 345.134 7.12C344.748 7.37333 344.448 7.74 344.234 8.22C344.034 8.68667 343.934 9.24667 343.934 9.9V10.04C343.934 11.1333 344.188 11.9533 344.694 12.5C345.214 13.0333 345.974 13.3 346.974 13.3C347.321 13.3 347.708 13.26 348.134 13.18C348.574 13.0867 348.988 12.9333 349.374 12.72C349.654 12.56 349.901 12.4933 350.114 12.52C350.328 12.5333 350.494 12.6067 350.614 12.74C350.748 12.8733 350.828 13.04 350.854 13.24C350.881 13.4267 350.841 13.62 350.734 13.82C350.641 14.02 350.474 14.1933 350.234 14.34C349.768 14.6333 349.228 14.8533 348.614 15C348.014 15.1333 347.454 15.2 346.934 15.2ZM354.194 15.16C353.794 15.16 353.488 15.0533 353.274 14.84C353.061 14.6133 352.954 14.2933 352.954 13.88V6.32C352.954 5.90667 353.061 5.59333 353.274 5.38C353.488 5.16667 353.788 5.06 354.174 5.06C354.561 5.06 354.861 5.16667 355.074 5.38C355.288 5.59333 355.394 5.90667 355.394 6.32V7.68L355.174 7.18C355.468 6.47333 355.921 5.94 356.534 5.58C357.161 5.20667 357.868 5.02 358.654 5.02C359.441 5.02 360.088 5.16667 360.594 5.46C361.101 5.75333 361.481 6.2 361.734 6.8C361.988 7.38667 362.114 8.13333 362.114 9.04V13.88C362.114 14.2933 362.008 14.6133 361.794 14.84C361.581 15.0533 361.274 15.16 360.874 15.16C360.474 15.16 360.161 15.0533 359.934 14.84C359.721 14.6133 359.614 14.2933 359.614 13.88V9.16C359.614 8.4 359.468 7.84667 359.174 7.5C358.894 7.15333 358.454 6.98 357.854 6.98C357.121 6.98 356.534 7.21333 356.094 7.68C355.668 8.13333 355.454 8.74 355.454 9.5V13.88C355.454 14.7333 355.034 15.16 354.194 15.16ZM369.134 15.2C368.267 15.2 367.54 15.0533 366.954 14.76C366.38 14.4667 365.954 14.04 365.674 13.48C365.394 12.9067 365.254 12.2 365.254 11.36V7.1H364.214C363.894 7.1 363.647 7.02 363.474 6.86C363.3 6.68667 363.214 6.45333 363.214 6.16C363.214 5.85333 363.3 5.62 363.474 5.46C363.647 5.3 363.894 5.22 364.214 5.22H365.254V3.4C365.254 2.98667 365.36 2.67333 365.574 2.46C365.8 2.24667 366.114 2.14 366.514 2.14C366.914 2.14 367.22 2.24667 367.434 2.46C367.647 2.67333 367.754 2.98667 367.754 3.4V5.22H369.874C370.194 5.22 370.44 5.3 370.614 5.46C370.787 5.62 370.874 5.85333 370.874 6.16C370.874 6.45333 370.787 6.68667 370.614 6.86C370.44 7.02 370.194 7.1 369.874 7.1H367.754V11.22C367.754 11.86 367.894 12.34 368.174 12.66C368.454 12.98 368.907 13.14 369.534 13.14C369.76 13.14 369.96 13.12 370.134 13.08C370.307 13.04 370.46 13.0133 370.594 13C370.754 12.9867 370.887 13.04 370.994 13.16C371.1 13.2667 371.154 13.4933 371.154 13.84C371.154 14.1067 371.107 14.3467 371.014 14.56C370.934 14.76 370.78 14.9 370.554 14.98C370.38 15.0333 370.154 15.08 369.874 15.12C369.594 15.1733 369.347 15.2 369.134 15.2ZM379.679 15.16C379.279 15.16 378.966 15.0533 378.739 14.84C378.526 14.6133 378.419 14.2933 378.419 13.88V7.1H377.499C377.179 7.1 376.932 7.02 376.759 6.86C376.586 6.68667 376.499 6.45333 376.499 6.16C376.499 5.85333 376.586 5.62 376.759 5.46C376.932 5.3 377.179 5.22 377.499 5.22H379.139L378.419 5.88V5.2C378.419 3.82667 378.766 2.8 379.459 2.12C380.152 1.42667 381.152 1.02 382.459 0.899999L383.139 0.84C383.406 0.813333 383.619 0.859999 383.779 0.979999C383.939 1.08667 384.046 1.23333 384.099 1.42C384.152 1.59333 384.159 1.77333 384.119 1.96C384.079 2.14667 383.992 2.31333 383.859 2.46C383.739 2.59333 383.579 2.66667 383.379 2.68L383.099 2.7C382.339 2.75333 381.786 2.94667 381.439 3.28C381.092 3.61333 380.919 4.12 380.919 4.8V5.54L380.599 5.22H382.619C382.939 5.22 383.186 5.3 383.359 5.46C383.532 5.62 383.619 5.85333 383.619 6.16C383.619 6.45333 383.532 6.68667 383.359 6.86C383.186 7.02 382.939 7.1 382.619 7.1H380.919V13.88C380.919 14.7333 380.506 15.16 379.679 15.16ZM386.324 15.16C385.911 15.16 385.591 15.0533 385.364 14.84C385.151 14.6133 385.044 14.2933 385.044 13.88V6.32C385.044 5.90667 385.151 5.59333 385.364 5.38C385.577 5.16667 385.877 5.06 386.264 5.06C386.651 5.06 386.951 5.16667 387.164 5.38C387.377 5.59333 387.484 5.90667 387.484 6.32V7.58H387.284C387.471 6.78 387.837 6.17333 388.384 5.76C388.931 5.34667 389.657 5.1 390.564 5.02C390.844 4.99333 391.064 5.06667 391.224 5.24C391.397 5.4 391.497 5.65333 391.524 6C391.551 6.33333 391.471 6.60667 391.284 6.82C391.111 7.02 390.844 7.14 390.484 7.18L390.044 7.22C389.231 7.3 388.617 7.55333 388.204 7.98C387.791 8.39333 387.584 8.98 387.584 9.74V13.88C387.584 14.2933 387.477 14.6133 387.264 14.84C387.051 15.0533 386.737 15.16 386.324 15.16ZM395.999 15.2C395.292 15.2 394.659 15.0667 394.099 14.8C393.552 14.52 393.119 14.1467 392.799 13.68C392.492 13.2133 392.339 12.6867 392.339 12.1C392.339 11.38 392.525 10.8133 392.899 10.4C393.272 9.97333 393.879 9.66667 394.719 9.48C395.559 9.29333 396.685 9.2 398.099 9.2H399.099V10.64H398.119C397.292 10.64 396.632 10.68 396.139 10.76C395.645 10.84 395.292 10.98 395.079 11.18C394.879 11.3667 394.779 11.6333 394.779 11.98C394.779 12.42 394.932 12.78 395.239 13.06C395.545 13.34 395.972 13.48 396.519 13.48C396.959 13.48 397.345 13.38 397.679 13.18C398.025 12.9667 398.299 12.68 398.499 12.32C398.699 11.96 398.799 11.5467 398.799 11.08V8.78C398.799 8.11333 398.652 7.63333 398.359 7.34C398.065 7.04667 397.572 6.9 396.879 6.9C396.492 6.9 396.072 6.94667 395.619 7.04C395.179 7.13333 394.712 7.29333 394.219 7.52C393.965 7.64 393.739 7.67333 393.539 7.62C393.352 7.56667 393.205 7.46 393.099 7.3C392.992 7.12667 392.939 6.94 392.939 6.74C392.939 6.54 392.992 6.34667 393.099 6.16C393.205 5.96 393.385 5.81333 393.639 5.72C394.252 5.46667 394.839 5.28667 395.399 5.18C395.972 5.07333 396.492 5.02 396.959 5.02C397.919 5.02 398.705 5.16667 399.319 5.46C399.945 5.75333 400.412 6.2 400.719 6.8C401.025 7.38667 401.179 8.14667 401.179 9.08V13.88C401.179 14.2933 401.079 14.6133 400.879 14.84C400.679 15.0533 400.392 15.16 400.019 15.16C399.645 15.16 399.352 15.0533 399.139 14.84C398.939 14.6133 398.839 14.2933 398.839 13.88V12.92H398.999C398.905 13.3867 398.719 13.7933 398.439 14.14C398.172 14.4733 397.832 14.7333 397.419 14.92C397.005 15.1067 396.532 15.2 395.999 15.2ZM408.236 15.2C407.209 15.2 406.316 14.9933 405.556 14.58C404.796 14.1533 404.209 13.5533 403.796 12.78C403.383 12.0067 403.176 11.1 403.176 10.06C403.176 9.27333 403.289 8.57333 403.516 7.96C403.756 7.33333 404.096 6.80667 404.536 6.38C404.976 5.94 405.509 5.60667 406.136 5.38C406.763 5.14 407.463 5.02 408.236 5.02C408.676 5.02 409.149 5.08 409.656 5.2C410.176 5.32 410.663 5.52 411.116 5.8C411.329 5.93333 411.469 6.09333 411.536 6.28C411.603 6.46667 411.616 6.66 411.576 6.86C411.536 7.04667 411.449 7.21333 411.316 7.36C411.196 7.49333 411.043 7.58 410.856 7.62C410.669 7.64667 410.463 7.6 410.236 7.48C409.943 7.30667 409.643 7.18 409.336 7.1C409.029 7.00667 408.736 6.96 408.456 6.96C408.016 6.96 407.629 7.03333 407.296 7.18C406.963 7.31333 406.676 7.51333 406.436 7.78C406.209 8.03333 406.036 8.35333 405.916 8.74C405.796 9.12667 405.736 9.57333 405.736 10.08C405.736 11.0667 405.969 11.8467 406.436 12.42C406.916 12.98 407.589 13.26 408.456 13.26C408.736 13.26 409.023 13.22 409.316 13.14C409.623 13.06 409.929 12.9333 410.236 12.76C410.463 12.64 410.663 12.6 410.836 12.64C411.023 12.68 411.176 12.7733 411.296 12.92C411.416 13.0533 411.489 13.22 411.516 13.42C411.543 13.6067 411.516 13.7933 411.436 13.98C411.369 14.1667 411.236 14.32 411.036 14.44C410.596 14.7067 410.129 14.9 409.636 15.02C409.143 15.14 408.676 15.2 408.236 15.2ZM417.669 15.2C416.802 15.2 416.075 15.0533 415.489 14.76C414.915 14.4667 414.489 14.04 414.209 13.48C413.929 12.9067 413.789 12.2 413.789 11.36V7.1H412.749C412.429 7.1 412.182 7.02 412.009 6.86C411.835 6.68667 411.749 6.45333 411.749 6.16C411.749 5.85333 411.835 5.62 412.009 5.46C412.182 5.3 412.429 5.22 412.749 5.22H413.789V3.4C413.789 2.98667 413.895 2.67333 414.109 2.46C414.335 2.24667 414.649 2.14 415.049 2.14C415.449 2.14 415.755 2.24667 415.969 2.46C416.182 2.67333 416.289 2.98667 416.289 3.4V5.22H418.409C418.729 5.22 418.975 5.3 419.149 5.46C419.322 5.62 419.409 5.85333 419.409 6.16C419.409 6.45333 419.322 6.68667 419.149 6.86C418.975 7.02 418.729 7.1 418.409 7.1H416.289V11.22C416.289 11.86 416.429 12.34 416.709 12.66C416.989 12.98 417.442 13.14 418.069 13.14C418.295 13.14 418.495 13.12 418.669 13.08C418.842 13.04 418.995 13.0133 419.129 13C419.289 12.9867 419.422 13.04 419.529 13.16C419.635 13.2667 419.689 13.4933 419.689 13.84C419.689 14.1067 419.642 14.3467 419.549 14.56C419.469 14.76 419.315 14.9 419.089 14.98C418.915 15.0333 418.689 15.08 418.409 15.12C418.129 15.1733 417.882 15.2 417.669 15.2ZM422.358 15.14C421.958 15.14 421.652 15.02 421.438 14.78C421.225 14.54 421.118 14.2067 421.118 13.78V6.44C421.118 6 421.225 5.66667 421.438 5.44C421.652 5.2 421.958 5.08 422.358 5.08C422.758 5.08 423.065 5.2 423.278 5.44C423.505 5.66667 423.618 6 423.618 6.44V13.78C423.618 14.2067 423.512 14.54 423.298 14.78C423.085 15.02 422.772 15.14 422.358 15.14ZM422.358 3.22C421.892 3.22 421.525 3.10667 421.258 2.88C421.005 2.64 420.878 2.31333 420.878 1.9C420.878 1.47333 421.005 1.14667 421.258 0.919999C421.525 0.693333 421.892 0.58 422.358 0.58C422.838 0.58 423.205 0.693333 423.458 0.919999C423.712 1.14667 423.838 1.47333 423.838 1.9C423.838 2.31333 423.712 2.64 423.458 2.88C423.205 3.10667 422.838 3.22 422.358 3.22ZM430.676 15.2C429.663 15.2 428.783 14.9933 428.036 14.58C427.289 14.1667 426.709 13.58 426.296 12.82C425.883 12.0467 425.676 11.14 425.676 10.1C425.676 9.31333 425.789 8.61333 426.016 8C426.256 7.37333 426.596 6.84 427.036 6.4C427.476 5.94667 428.003 5.60667 428.616 5.38C429.229 5.14 429.916 5.02 430.676 5.02C431.689 5.02 432.569 5.22667 433.316 5.64C434.063 6.05333 434.643 6.64 435.056 7.4C435.469 8.16 435.676 9.06 435.676 10.1C435.676 10.8867 435.556 11.5933 435.316 12.22C435.089 12.8467 434.756 13.3867 434.316 13.84C433.876 14.28 433.349 14.62 432.736 14.86C432.123 15.0867 431.436 15.2 430.676 15.2ZM430.676 13.3C431.169 13.3 431.603 13.18 431.976 12.94C432.349 12.7 432.636 12.3467 432.836 11.88C433.049 11.4 433.156 10.8067 433.156 10.1C433.156 9.03333 432.929 8.24 432.476 7.72C432.023 7.18667 431.423 6.92 430.676 6.92C430.183 6.92 429.749 7.04 429.376 7.28C429.003 7.50667 428.709 7.86 428.496 8.34C428.296 8.80667 428.196 9.39333 428.196 10.1C428.196 11.1533 428.423 11.9533 428.876 12.5C429.329 13.0333 429.929 13.3 430.676 13.3ZM438.979 15.16C438.579 15.16 438.273 15.0533 438.059 14.84C437.846 14.6133 437.739 14.2933 437.739 13.88V6.32C437.739 5.90667 437.846 5.59333 438.059 5.38C438.273 5.16667 438.573 5.06 438.959 5.06C439.346 5.06 439.646 5.16667 439.859 5.38C440.073 5.59333 440.179 5.90667 440.179 6.32V7.68L439.959 7.18C440.253 6.47333 440.706 5.94 441.319 5.58C441.946 5.20667 442.653 5.02 443.439 5.02C444.226 5.02 444.873 5.16667 445.379 5.46C445.886 5.75333 446.266 6.2 446.519 6.8C446.773 7.38667 446.899 8.13333 446.899 9.04V13.88C446.899 14.2933 446.793 14.6133 446.579 14.84C446.366 15.0533 446.059 15.16 445.659 15.16C445.259 15.16 444.946 15.0533 444.719 14.84C444.506 14.6133 444.399 14.2933 444.399 13.88V9.16C444.399 8.4 444.253 7.84667 443.959 7.5C443.679 7.15333 443.239 6.98 442.639 6.98C441.906 6.98 441.319 7.21333 440.879 7.68C440.453 8.13333 440.239 8.74 440.239 9.5V13.88C440.239 14.7333 439.819 15.16 438.979 15.16ZM453.019 15.2C452.445 15.2 451.839 15.14 451.199 15.02C450.559 14.9 449.985 14.6933 449.479 14.4C449.265 14.2667 449.112 14.1133 449.019 13.94C448.939 13.7533 448.905 13.5733 448.919 13.4C448.945 13.2133 449.012 13.0533 449.119 12.92C449.239 12.7867 449.385 12.7 449.559 12.66C449.745 12.62 449.945 12.6533 450.159 12.76C450.692 13.0133 451.192 13.1933 451.659 13.3C452.125 13.3933 452.585 13.44 453.039 13.44C453.679 13.44 454.152 13.3333 454.459 13.12C454.779 12.8933 454.939 12.6 454.939 12.24C454.939 11.9333 454.832 11.7 454.619 11.54C454.419 11.3667 454.112 11.24 453.699 11.16L451.699 10.78C450.872 10.62 450.239 10.32 449.799 9.88C449.372 9.42667 449.159 8.84667 449.159 8.14C449.159 7.5 449.332 6.94667 449.679 6.48C450.039 6.01333 450.532 5.65333 451.159 5.4C451.785 5.14667 452.505 5.02 453.319 5.02C453.905 5.02 454.452 5.08667 454.959 5.22C455.479 5.34 455.979 5.53333 456.459 5.8C456.659 5.90667 456.792 6.04667 456.859 6.22C456.939 6.39333 456.959 6.57333 456.919 6.76C456.879 6.93333 456.799 7.09333 456.679 7.24C456.559 7.37333 456.405 7.46 456.219 7.5C456.045 7.52667 455.845 7.48667 455.619 7.38C455.205 7.16667 454.805 7.01333 454.419 6.92C454.045 6.82667 453.685 6.78 453.339 6.78C452.685 6.78 452.199 6.89333 451.879 7.12C451.572 7.34667 451.419 7.64667 451.419 8.02C451.419 8.3 451.512 8.53333 451.699 8.72C451.885 8.90667 452.172 9.03333 452.559 9.1L454.559 9.48C455.425 9.64 456.079 9.93333 456.519 10.36C456.972 10.7867 457.199 11.36 457.199 12.08C457.199 13.0533 456.819 13.82 456.059 14.38C455.299 14.9267 454.285 15.2 453.019 15.2ZM460.307 15.1C459.853 15.1 459.487 14.96 459.207 14.68C458.94 14.4 458.807 14.04 458.807 13.6C458.807 13.1733 458.94 12.8267 459.207 12.56C459.487 12.28 459.853 12.14 460.307 12.14C460.773 12.14 461.133 12.28 461.387 12.56C461.653 12.8267 461.787 13.1733 461.787 13.6C461.787 14.04 461.653 14.4 461.387 14.68C461.133 14.96 460.773 15.1 460.307 15.1Z" fill="#444444"/>
</svg>
