<svg width="175" height="174" viewBox="0 0 175 174" fill="none" xmlns="http://www.w3.org/2000/svg">
<path d="M174 86.4999C174 101.976 169.848 117.169 161.977 130.494C154.106 143.819 142.804 154.788 129.25 162.257L87.5 86.4999L174 86.4999Z" fill="white" stroke="#888888" stroke-width="2"/>
<path d="M129.373 162.189C115.728 169.738 100.297 173.458 84.7114 172.955C69.1259 172.452 53.9661 167.746 40.8362 159.333L87.5 86.4999L129.373 162.189Z" fill="white" stroke="#888888" stroke-width="2"/>
<path d="M40.5303 159.137C28.4926 151.353 18.5781 140.699 11.6784 128.133C4.77875 115.568 1.11013 101.484 1.00244 87.1496L87.5 86.4999L40.5303 159.137Z" fill="white" stroke="#888888" stroke-width="2"/>
<path d="M174 87.5C174 72.0239 169.848 56.8312 161.977 43.5063C154.106 30.1813 142.804 19.212 129.25 11.7424L87.5 87.5L174 87.5Z" fill="#FFD2A6" stroke="#FF8F1F" stroke-width="2"/>
<path d="M129.373 11.8106C115.728 4.262 100.297 0.542245 84.7114 1.04495C69.1259 1.54766 53.9661 6.25414 40.8362 14.6664L87.5 87.5L129.373 11.8106Z" fill="#FFD2A6" stroke="#FF8F1F" stroke-width="2"/>
<path d="M40.5303 14.8632C28.4926 22.6473 18.5781 33.301 11.6784 45.8666C4.77874 58.4321 1.11011 72.5154 1.00243 86.8502L87.5 87.5L40.5303 14.8632Z" fill="white" stroke="#888888" stroke-width="2"/>
</svg>
