<svg width="175" height="175" viewBox="0 0 175 175" fill="none" xmlns="http://www.w3.org/2000/svg">
<path d="M87.5001 0.999995C98.8594 0.999995 110.108 3.23738 120.602 7.58442C131.097 11.9314 140.633 18.303 148.665 26.3353C156.697 34.3675 163.069 43.9032 167.416 54.3979C171.763 64.8925 174 76.1407 174 87.5L87.5001 87.5L87.5001 0.999995Z" fill="white" stroke="#888888" stroke-width="2"/>
<path d="M87.5 174C98.8593 174 110.107 171.763 120.602 167.416C131.097 163.069 140.632 156.697 148.665 148.665C156.697 140.633 163.069 131.097 167.416 120.602C171.763 110.108 174 98.8594 174 87.5001L87.5 87.5001L87.5 174Z" fill="white" stroke="#888888" stroke-width="2"/>
<path d="M87.5 174C76.1407 174 64.8925 171.763 54.3979 167.416C43.9032 163.069 34.3675 156.697 26.3353 148.665C18.303 140.632 11.9314 131.097 7.58442 120.602C3.23739 110.107 0.999999 98.8593 1 87.5L87.5 87.5L87.5 174Z" fill="white" stroke="#888888" stroke-width="2"/>
<path d="M0.999995 87.5C0.999995 76.1407 3.23738 64.8925 7.58442 54.3979C11.9314 43.9032 18.303 34.3675 26.3353 26.3353C34.3675 18.303 43.9032 11.9314 54.3979 7.58441C64.8925 3.23738 76.1407 0.999994 87.5 0.999995L87.5 87.5L0.999995 87.5Z" fill="#C1F29E" stroke="#6CA621" stroke-width="2"/>
</svg>
