<svg width="522" height="175" viewBox="0 0 522 175" fill="none" xmlns="http://www.w3.org/2000/svg">
<path d="M174 86.4999C174 101.976 169.848 117.169 161.977 130.494C154.106 143.819 142.804 154.788 129.25 162.257L87.5 86.4999L174 86.4999Z" fill="white" stroke="#888888" stroke-width="2"/>
<path d="M129.373 162.189C115.728 169.738 100.297 173.458 84.7114 172.955C69.1259 172.452 53.9661 167.746 40.8362 159.333L87.5 86.4999L129.373 162.189Z" fill="white" stroke="#888888" stroke-width="2"/>
<path d="M40.5303 159.137C28.4926 151.353 18.5781 140.699 11.6784 128.133C4.77875 115.568 1.11013 101.484 1.00244 87.1496L87.5 86.4999L40.5303 159.137Z" fill="white" stroke="#888888" stroke-width="2"/>
<path d="M174 87.5C174 72.0239 169.848 56.8312 161.977 43.5063C154.106 30.1813 142.804 19.212 129.25 11.7424L87.5 87.5L174 87.5Z" fill="#FFD2A6" stroke="#FF8F1F" stroke-width="2"/>
<path d="M129.373 11.8106C115.728 4.262 100.297 0.542245 84.7114 1.04495C69.1259 1.54766 53.9661 6.25414 40.8362 14.6664L87.5 87.5L129.373 11.8106Z" fill="#FFD2A6" stroke="#FF8F1F" stroke-width="2"/>
<path d="M40.5303 14.8632C28.4926 22.6473 18.5781 33.301 11.6784 45.8666C4.77874 58.4321 1.11011 72.5154 1.00243 86.8502L87.5 87.5L40.5303 14.8632Z" fill="white" stroke="#888888" stroke-width="2"/>
<path d="M348 87.5C348 102.976 352.152 118.169 360.023 131.494C367.894 144.819 379.196 155.788 392.75 163.258L434.5 87.5L348 87.5Z" fill="white" stroke="#888888" stroke-width="2"/>
<path d="M392.627 163.189C406.272 170.738 421.703 174.458 437.289 173.955C452.874 173.452 468.034 168.746 481.164 160.334L434.5 87.5L392.627 163.189Z" fill="white" stroke="#888888" stroke-width="2"/>
<path d="M481.47 160.137C493.507 152.353 503.422 141.699 510.322 129.133C517.221 116.568 520.89 102.485 520.998 88.1498L434.5 87.5L481.47 160.137Z" fill="white" stroke="#888888" stroke-width="2"/>
<path d="M348 88.5C348 73.0239 352.152 57.8312 360.023 44.5063C367.894 31.1813 379.196 20.212 392.75 12.7424L434.5 88.5L348 88.5Z" fill="#C1F29E" stroke="#85CC29" stroke-width="2"/>
<path d="M392.627 12.8106C406.272 5.26201 421.703 1.54225 437.289 2.04496C452.874 2.54767 468.034 7.25415 481.164 15.6664L434.5 88.5L392.627 12.8106Z" fill="#C1F29E" stroke="#85CC29" stroke-width="2"/>
<path d="M481.47 15.8632C493.507 23.6473 503.422 34.301 510.322 46.8666C517.221 59.4321 520.89 73.5154 520.998 87.8502L434.5 88.5L481.47 15.8632Z" fill="#C1F29E" stroke="#85CC29" stroke-width="2"/>
<path d="M261 99.68C260.573 99.68 260.253 99.56 260.04 99.32C259.827 99.08 259.72 98.76 259.72 98.36V90.76H252.24C251.84 90.76 251.52 90.6533 251.28 90.44C251.067 90.2267 250.96 89.92 250.96 89.52C250.96 89.12 251.067 88.8133 251.28 88.6C251.52 88.3867 251.84 88.28 252.24 88.28H259.72V80.92C259.72 80.4933 259.827 80.1733 260.04 79.96C260.253 79.72 260.573 79.6 261 79.6C261.427 79.6 261.747 79.72 261.96 79.96C262.173 80.1733 262.28 80.4933 262.28 80.92V88.28H269.76C270.16 88.28 270.467 88.3867 270.68 88.6C270.92 88.8133 271.04 89.12 271.04 89.52C271.04 89.92 270.92 90.2267 270.68 90.44C270.467 90.6533 270.16 90.76 269.76 90.76H262.28V98.36C262.28 98.76 262.173 99.08 261.96 99.32C261.747 99.56 261.427 99.68 261 99.68Z" fill="#1A1A1A"/>
</svg>
