<svg width="44" height="44" viewBox="0 0 44 44" fill="none" xmlns="http://www.w3.org/2000/svg">
<circle cx="21.5627" cy="21.5627" r="21.0627" fill="#7F5CF4" fill-opacity="0.1" stroke="#D9CDFF"/>
<path d="M32.1936 21.5627C32.1936 27.4541 30.9598 32.7629 28.9891 36.5806C27.0051 40.4238 24.3532 42.6255 21.5624 42.6255C18.7716 42.6255 16.1197 40.4238 14.1357 36.5806C12.1649 32.7629 10.9312 27.4541 10.9312 21.5627C10.9312 15.6714 12.1649 10.3626 14.1357 6.54494C16.1197 2.70173 18.7716 0.5 21.5624 0.5C24.3532 0.5 27.0051 2.70173 28.9891 6.54494C30.9598 10.3626 32.1936 15.6714 32.1936 21.5627Z" stroke="#D9CDFF"/>
<path d="M21.5627 27.8824C15.645 27.8824 10.3076 27.123 6.46637 25.9081C4.54286 25.2997 3.02259 24.5858 1.99394 23.8165C0.956367 23.0407 0.5 22.2735 0.5 21.5623C0.5 20.851 0.956367 20.0839 1.99394 19.308C3.02259 18.5388 4.54286 17.8249 6.46637 17.2165C10.3076 16.0015 15.645 15.2422 21.5627 15.2422C27.4805 15.2422 32.8179 16.0015 36.6591 17.2165C38.5826 17.8249 40.1029 18.5388 41.1315 19.308C42.1691 20.0839 42.6255 20.851 42.6255 21.5623C42.6255 22.2735 42.1691 23.0407 41.1315 23.8165C40.1029 24.5858 38.5826 25.2997 36.6591 25.9081C32.8179 27.123 27.4805 27.8824 21.5627 27.8824Z" stroke="#D9CDFF"/>
<path d="M15.7064 21.3542C16.6823 21.602 17.4258 22.0745 17.937 22.7715C18.4637 23.4531 18.727 24.3051 18.727 25.3274C18.727 26.7371 18.2081 27.8601 17.1703 28.6966C16.1324 29.5331 14.7305 29.9513 12.9646 29.9513C11.9578 29.9513 10.9896 29.7964 10.0602 29.4866C9.13078 29.1768 8.34077 28.7431 7.69018 28.1854C7.3339 27.8756 7.15576 27.5116 7.15576 27.0933C7.15576 26.7526 7.2487 26.466 7.43459 26.2336C7.63596 25.9858 7.86832 25.8619 8.13165 25.8619C8.28656 25.8619 8.42597 25.8928 8.54989 25.9548C8.67381 26.0013 8.84421 26.0865 9.06107 26.2104C9.71166 26.6441 10.3313 26.9772 10.9199 27.2095C11.5085 27.4419 12.1514 27.5581 12.8485 27.5581C13.8708 27.5581 14.6298 27.3567 15.1255 26.9539C15.6212 26.5357 15.8691 25.9083 15.8691 25.0719C15.8691 24.2509 15.6057 23.6467 15.0791 23.2595C14.5679 22.8567 13.7701 22.6554 12.6858 22.6554H11.3614C11.0051 22.6554 10.7263 22.5392 10.5249 22.3068C10.339 22.059 10.2461 21.7802 10.2461 21.4704C10.2461 21.1451 10.339 20.8662 10.5249 20.6339C10.7263 20.4015 11.0051 20.2853 11.3614 20.2853H12.2908C14.413 20.2853 15.4741 19.4876 15.4741 17.8921C15.4741 17.1486 15.2495 16.5754 14.8002 16.1727C14.351 15.7699 13.7314 15.5685 12.9414 15.5685C11.8106 15.5685 10.6024 16.0178 9.31666 16.9162C9.0998 17.0401 8.9294 17.1331 8.80548 17.195C8.68156 17.2415 8.54215 17.2647 8.38724 17.2647C8.12391 17.2647 7.89155 17.1486 7.69018 16.9162C7.50429 16.6684 7.41135 16.374 7.41135 16.0333C7.41135 15.8009 7.45008 15.6073 7.52753 15.4524C7.62047 15.282 7.75988 15.1116 7.94577 14.9412C8.59636 14.399 9.37088 13.973 10.2693 13.6632C11.1832 13.3379 12.1127 13.1753 13.0576 13.1753C14.6686 13.1753 15.9465 13.5703 16.8914 14.3603C17.8518 15.1503 18.332 16.2037 18.332 17.5203C18.3165 18.4188 18.0764 19.2088 17.6117 19.8903C17.1625 20.5564 16.5274 21.0444 15.7064 21.3542Z" fill="#7F5CF4"/>
<path d="M22.9125 29.7654C22.4633 29.7654 22.107 29.6415 21.8436 29.3937C21.5958 29.1458 21.4719 28.7973 21.4719 28.3481V14.8018C21.4719 14.3526 21.5958 14.004 21.8436 13.7562C22.107 13.5083 22.4633 13.3844 22.9125 13.3844H27.5131C30.1929 13.3844 32.2686 14.1047 33.7402 15.5453C35.2273 16.9704 35.9708 18.9764 35.9708 21.5633C35.9708 24.1657 35.2273 26.1872 33.7402 27.6278C32.2686 29.0529 30.1929 29.7654 27.5131 29.7654H22.9125ZM27.3272 27.3257C31.0914 27.3257 32.9734 25.4049 32.9734 21.5633C32.9734 17.7372 31.0914 15.8241 27.3272 15.8241H24.4692V27.3257H27.3272Z" fill="#7F5CF4"/>
</svg>
