<svg width="98" height="28" viewBox="0 0 98 28" fill="none" xmlns="http://www.w3.org/2000/svg">
<path d="M21.4219 5V10H16.4219" stroke="white" stroke-width="2" stroke-linecap="round" stroke-linejoin="round"/>
<path d="M21.3719 14.9996C21.1504 17.0054 20.2612 18.8786 18.8471 20.3183C17.433 21.758 15.5761 22.6807 13.5746 22.9382C11.5731 23.1956 9.54309 22.773 7.81067 21.7381C6.07824 20.7031 4.7439 19.116 4.02193 17.2316C3.29997 15.3471 3.23228 13.2747 3.82974 11.3472C4.42719 9.41963 5.65512 7.74881 7.31632 6.60304C8.97752 5.45728 10.9756 4.90305 12.9896 5.02938C15.0037 5.1557 16.9169 5.95525 18.4219 7.29961L21.4219 9.99961" stroke="white" stroke-width="2" stroke-linecap="round" stroke-linejoin="round"/>
<g clip-path="url(#clip0_1_112)">
<path d="M39.8449 22.192C39.3489 22.192 38.9649 22.056 38.6929 21.784C38.4369 21.496 38.3089 21.104 38.3089 20.608V6.64C38.3089 6.128 38.4449 5.744 38.7169 5.488C38.9889 5.216 39.3729 5.08 39.8689 5.08H45.6529C47.5089 5.08 48.9409 5.528 49.9489 6.424C50.9569 7.304 51.4609 8.544 51.4609 10.144C51.4609 11.184 51.2289 12.08 50.7649 12.832C50.3169 13.584 49.6609 14.16 48.7969 14.56C47.9329 14.96 46.8849 15.16 45.6529 15.16L45.8689 14.8H46.6609C47.3169 14.8 47.8849 14.96 48.3649 15.28C48.8609 15.6 49.2929 16.104 49.6609 16.792L51.4609 20.128C51.6529 20.464 51.7409 20.792 51.7249 21.112C51.7089 21.432 51.5889 21.696 51.3649 21.904C51.1409 22.096 50.8129 22.192 50.3809 22.192C49.9489 22.192 49.5969 22.104 49.3249 21.928C49.0529 21.736 48.8129 21.448 48.6049 21.064L46.1809 16.6C45.8929 16.056 45.5489 15.696 45.1489 15.52C44.7649 15.328 44.2689 15.232 43.6609 15.232H41.3809V20.608C41.3809 21.104 41.2529 21.496 40.9969 21.784C40.7409 22.056 40.3569 22.192 39.8449 22.192ZM41.3809 12.952H45.1249C46.2289 12.952 47.0609 12.728 47.6209 12.28C48.1969 11.816 48.4849 11.128 48.4849 10.216C48.4849 9.32 48.1969 8.648 47.6209 8.2C47.0609 7.736 46.2289 7.504 45.1249 7.504H41.3809V12.952ZM59.9534 22.24C58.6254 22.24 57.4814 21.992 56.5214 21.496C55.5614 21 54.8174 20.296 54.2894 19.384C53.7774 18.472 53.5214 17.392 53.5214 16.144C53.5214 14.928 53.7694 13.864 54.2654 12.952C54.7774 12.04 55.4734 11.328 56.3534 10.816C57.2494 10.288 58.2654 10.024 59.4014 10.024C60.2334 10.024 60.9774 10.16 61.6334 10.432C62.3054 10.704 62.8734 11.096 63.3374 11.608C63.8174 12.12 64.1774 12.744 64.4174 13.48C64.6734 14.2 64.8014 15.016 64.8014 15.928C64.8014 16.216 64.6974 16.44 64.4894 16.6C64.2974 16.744 64.0174 16.816 63.6494 16.816H55.9454V15.088H62.6894L62.3054 15.448C62.3054 14.712 62.1934 14.096 61.9694 13.6C61.7614 13.104 61.4494 12.728 61.0334 12.472C60.6334 12.2 60.1294 12.064 59.5214 12.064C58.8494 12.064 58.2734 12.224 57.7934 12.544C57.3294 12.848 56.9694 13.288 56.7134 13.864C56.4734 14.424 56.3534 15.096 56.3534 15.88V16.048C56.3534 17.36 56.6574 18.344 57.2654 19C57.8894 19.64 58.8014 19.96 60.0014 19.96C60.4174 19.96 60.8814 19.912 61.3934 19.816C61.9214 19.704 62.4174 19.52 62.8814 19.264C63.2174 19.072 63.5134 18.992 63.7694 19.024C64.0254 19.04 64.2254 19.128 64.3694 19.288C64.5294 19.448 64.6254 19.648 64.6574 19.888C64.6894 20.112 64.6414 20.344 64.5134 20.584C64.4014 20.824 64.2014 21.032 63.9134 21.208C63.3534 21.56 62.7054 21.824 61.9694 22C61.2494 22.16 60.5774 22.24 59.9534 22.24ZM72.5063 22.24C71.4663 22.24 70.5943 22.064 69.8903 21.712C69.2023 21.36 68.6903 20.848 68.3543 20.176C68.0183 19.488 67.8503 18.64 67.8503 17.632V12.52H66.6023C66.2183 12.52 65.9223 12.424 65.7143 12.232C65.5063 12.024 65.4023 11.744 65.4023 11.392C65.4023 11.024 65.5063 10.744 65.7143 10.552C65.9223 10.36 66.2183 10.264 66.6023 10.264H67.8503V8.08C67.8503 7.584 67.9783 7.208 68.2343 6.952C68.5063 6.696 68.8823 6.568 69.3623 6.568C69.8423 6.568 70.2103 6.696 70.4663 6.952C70.7223 7.208 70.8503 7.584 70.8503 8.08V10.264H73.3943C73.7783 10.264 74.0743 10.36 74.2823 10.552C74.4903 10.744 74.5943 11.024 74.5943 11.392C74.5943 11.744 74.4903 12.024 74.2823 12.232C74.0743 12.424 73.7783 12.52 73.3943 12.52H70.8503V17.464C70.8503 18.232 71.0183 18.808 71.3543 19.192C71.6903 19.576 72.2343 19.768 72.9863 19.768C73.2583 19.768 73.4983 19.744 73.7063 19.696C73.9143 19.648 74.0983 19.616 74.2583 19.6C74.4503 19.584 74.6103 19.648 74.7383 19.792C74.8663 19.92 74.9303 20.192 74.9303 20.608C74.9303 20.928 74.8743 21.216 74.7623 21.472C74.6663 21.712 74.4823 21.88 74.2103 21.976C74.0023 22.04 73.7303 22.096 73.3943 22.144C73.0583 22.208 72.7623 22.24 72.5063 22.24ZM77.8773 22.192C77.3813 22.192 76.9973 22.064 76.7253 21.808C76.4693 21.536 76.3413 21.152 76.3413 20.656V11.584C76.3413 11.088 76.4693 10.712 76.7253 10.456C76.9813 10.2 77.3413 10.072 77.8053 10.072C78.2693 10.072 78.6293 10.2 78.8853 10.456C79.1413 10.712 79.2693 11.088 79.2693 11.584V13.096H79.0293C79.2533 12.136 79.6933 11.408 80.3493 10.912C81.0053 10.416 81.8773 10.12 82.9653 10.024C83.3013 9.992 83.5653 10.08 83.7573 10.288C83.9653 10.48 84.0853 10.784 84.1173 11.2C84.1493 11.6 84.0533 11.928 83.8293 12.184C83.6213 12.424 83.3013 12.568 82.8693 12.616L82.3413 12.664C81.3653 12.76 80.6293 13.064 80.1333 13.576C79.6373 14.072 79.3893 14.776 79.3893 15.688V20.656C79.3893 21.152 79.2613 21.536 79.0053 21.808C78.7493 22.064 78.3733 22.192 77.8773 22.192ZM89.4423 26.512C89.0903 26.512 88.8023 26.416 88.5783 26.224C88.3543 26.048 88.2183 25.808 88.1703 25.504C88.1383 25.2 88.1943 24.88 88.3383 24.544L89.9703 20.92V22.168L85.6023 12.064C85.4583 11.712 85.4103 11.384 85.4583 11.08C85.5063 10.776 85.6503 10.536 85.8903 10.36C86.1463 10.168 86.4903 10.072 86.9223 10.072C87.2903 10.072 87.5863 10.16 87.8103 10.336C88.0343 10.496 88.2343 10.808 88.4103 11.272L91.6503 19.36H90.9303L94.2423 11.248C94.4183 10.8 94.6263 10.496 94.8663 10.336C95.1063 10.16 95.4263 10.072 95.8263 10.072C96.1783 10.072 96.4583 10.168 96.6663 10.36C96.8743 10.536 97.0023 10.776 97.0503 11.08C97.0983 11.368 97.0423 11.688 96.8823 12.04L91.0503 25.36C90.8423 25.808 90.6183 26.112 90.3783 26.272C90.1383 26.432 89.8263 26.512 89.4423 26.512Z" fill="white"/>
</g>
<defs>
<clipPath id="clip0_1_112">
<rect width="62" height="28" fill="white" transform="translate(36)"/>
</clipPath>
</defs>
</svg>
