<svg width="45" height="44" viewBox="0 0 45 44" fill="none" xmlns="http://www.w3.org/2000/svg">
<circle cx="22.5" cy="22" r="21" fill="#E5FFEC" stroke="#32A66C" stroke-width="2"/>
<path d="M28.0495 29.516L16.8495 24.784C15.9908 24.4293 15.5615 23.8133 15.5615 22.936C15.5615 22.5067 15.6641 22.152 15.8695 21.872C16.0935 21.5733 16.4201 21.3307 16.8495 21.144L28.0495 16.384C28.3668 16.2533 28.6468 16.2253 28.8895 16.3C29.1508 16.3747 29.3561 16.5147 29.5055 16.72C29.6548 16.9253 29.7388 17.1587 29.7575 17.42C29.7761 17.6813 29.7201 17.9333 29.5895 18.176C29.4775 18.4 29.2628 18.5773 28.9455 18.708L16.7375 23.832V22.096L28.9455 27.22C29.2628 27.3507 29.4775 27.5373 29.5895 27.78C29.7201 28.004 29.7761 28.2467 29.7575 28.508C29.7388 28.7507 29.6548 28.9747 29.5055 29.18C29.3561 29.3853 29.1508 29.5253 28.8895 29.6C28.6468 29.6747 28.3668 29.6467 28.0495 29.516Z" fill="#32A66C"/>
</svg>
