<svg width="527" height="19" viewBox="0 0 527 19" fill="none" xmlns="http://www.w3.org/2000/svg">
<path d="M1.78352 15.16C1.46352 15.16 1.20352 15.0867 1.00352 14.94C0.816849 14.7933 0.703516 14.6 0.663516 14.36C0.623516 14.1067 0.670182 13.8267 0.803516 13.52L6.08352 1.82C6.25685 1.43333 6.46352 1.16 6.70352 0.999999C6.95685 0.826666 7.24352 0.739999 7.56352 0.739999C7.87018 0.739999 8.14352 0.826666 8.38352 0.999999C8.63685 1.16 8.85018 1.43333 9.02352 1.82L14.3235 13.52C14.4702 13.8267 14.5235 14.1067 14.4835 14.36C14.4435 14.6133 14.3302 14.8133 14.1435 14.96C13.9568 15.0933 13.7102 15.16 13.4035 15.16C13.0302 15.16 12.7368 15.0733 12.5235 14.9C12.3235 14.7133 12.1435 14.4333 11.9835 14.06L10.6835 11.04L11.7635 11.74H3.32352L4.40352 11.04L3.12352 14.06C2.95018 14.4467 2.77018 14.7267 2.58352 14.9C2.39685 15.0733 2.13018 15.16 1.78352 15.16ZM7.52352 3.68L4.72352 10.34L4.20352 9.7H10.8835L10.3835 10.34L7.56352 3.68H7.52352ZM19.9487 15.2C19.0953 15.2 18.342 14.9933 17.6887 14.58C17.0487 14.1667 16.5487 13.58 16.1887 12.82C15.8287 12.0467 15.6487 11.14 15.6487 10.1C15.6487 9.04667 15.8287 8.14667 16.1887 7.4C16.5487 6.64 17.0487 6.05333 17.6887 5.64C18.342 5.22667 19.0953 5.02 19.9487 5.02C20.762 5.02 21.4687 5.22 22.0687 5.62C22.682 6.02 23.0953 6.54667 23.3087 7.2H23.0887V2C23.0887 1.58667 23.1953 1.27333 23.4087 1.06C23.622 0.846666 23.9287 0.739999 24.3287 0.739999C24.7287 0.739999 25.0353 0.846666 25.2487 1.06C25.4753 1.27333 25.5887 1.58667 25.5887 2V13.88C25.5887 14.2933 25.482 14.6133 25.2687 14.84C25.0553 15.0533 24.7487 15.16 24.3487 15.16C23.9487 15.16 23.642 15.0533 23.4287 14.84C23.2153 14.6133 23.1087 14.2933 23.1087 13.88V12.32L23.3287 12.92C23.1287 13.6133 22.722 14.1667 22.1087 14.58C21.4953 14.9933 20.7753 15.2 19.9487 15.2ZM20.6487 13.3C21.142 13.3 21.5753 13.18 21.9487 12.94C22.322 12.7 22.6087 12.3467 22.8087 11.88C23.022 11.4 23.1287 10.8067 23.1287 10.1C23.1287 9.03333 22.902 8.24 22.4487 7.72C21.9953 7.18667 21.3953 6.92 20.6487 6.92C20.1553 6.92 19.722 7.04 19.3487 7.28C18.9753 7.50667 18.682 7.86 18.4687 8.34C18.2687 8.80667 18.1687 9.39333 18.1687 10.1C18.1687 11.1533 18.3953 11.9533 18.8487 12.5C19.302 13.0333 19.902 13.3 20.6487 13.3ZM26.9809 18.78C26.6875 18.8067 26.4475 18.76 26.2609 18.64C26.0742 18.5333 25.9475 18.3933 25.8809 18.22C25.8009 18.0467 25.7742 17.8667 25.8009 17.68C25.8275 17.4933 25.9075 17.3267 26.0409 17.18C26.1609 17.0467 26.3275 16.9733 26.5409 16.96C27.1409 16.9067 27.5742 16.7333 27.8409 16.44C28.1209 16.16 28.2609 15.7267 28.2609 15.14V6.32C28.2609 5.90667 28.3675 5.59333 28.5809 5.38C28.8075 5.16667 29.1209 5.06 29.5209 5.06C29.9209 5.06 30.2275 5.16667 30.4409 5.38C30.6542 5.59333 30.7609 5.90667 30.7609 6.32V14.92C30.7609 15.7733 30.6209 16.4733 30.3409 17.02C30.0742 17.5667 29.6609 17.98 29.1009 18.26C28.5542 18.54 27.8475 18.7133 26.9809 18.78ZM29.5009 3.22C29.0342 3.22 28.6675 3.10667 28.4009 2.88C28.1475 2.64 28.0209 2.31333 28.0209 1.9C28.0209 1.47333 28.1475 1.14667 28.4009 0.919999C28.6675 0.693333 29.0342 0.58 29.5009 0.58C29.9809 0.58 30.3475 0.693333 30.6009 0.919999C30.8542 1.14667 30.9809 1.47333 30.9809 1.9C30.9809 2.31333 30.8542 2.64 30.6009 2.88C30.3475 3.10667 29.9809 3.22 29.5009 3.22ZM36.8966 15.2C36.0833 15.2 35.41 15.0533 34.8766 14.76C34.3433 14.4533 33.9433 14 33.6766 13.4C33.4233 12.8 33.2966 12.0533 33.2966 11.16V6.32C33.2966 5.89333 33.4033 5.58 33.6166 5.38C33.83 5.16667 34.1366 5.06 34.5366 5.06C34.9366 5.06 35.2433 5.16667 35.4566 5.38C35.6833 5.58 35.7966 5.89333 35.7966 6.32V11.2C35.7966 11.8933 35.9366 12.4067 36.2166 12.74C36.4966 13.0733 36.9433 13.24 37.5566 13.24C38.2233 13.24 38.77 13.0133 39.1966 12.56C39.6233 12.0933 39.8366 11.48 39.8366 10.72V6.32C39.8366 5.89333 39.9433 5.58 40.1566 5.38C40.37 5.16667 40.6766 5.06 41.0766 5.06C41.4766 5.06 41.7833 5.16667 41.9966 5.38C42.2233 5.58 42.3366 5.89333 42.3366 6.32V13.88C42.3366 14.7333 41.93 15.16 41.1166 15.16C40.73 15.16 40.43 15.0533 40.2166 14.84C40.0033 14.6133 39.8966 14.2933 39.8966 13.88V12.36L40.1766 12.96C39.8966 13.68 39.47 14.2333 38.8966 14.62C38.3366 15.0067 37.67 15.2 36.8966 15.2ZM48.5187 15.2C47.9453 15.2 47.3387 15.14 46.6987 15.02C46.0587 14.9 45.4853 14.6933 44.9787 14.4C44.7653 14.2667 44.612 14.1133 44.5187 13.94C44.4387 13.7533 44.4053 13.5733 44.4187 13.4C44.4453 13.2133 44.512 13.0533 44.6187 12.92C44.7387 12.7867 44.8853 12.7 45.0587 12.66C45.2453 12.62 45.4453 12.6533 45.6587 12.76C46.192 13.0133 46.692 13.1933 47.1587 13.3C47.6253 13.3933 48.0853 13.44 48.5387 13.44C49.1787 13.44 49.652 13.3333 49.9587 13.12C50.2787 12.8933 50.4387 12.6 50.4387 12.24C50.4387 11.9333 50.332 11.7 50.1187 11.54C49.9187 11.3667 49.612 11.24 49.1987 11.16L47.1987 10.78C46.372 10.62 45.7387 10.32 45.2987 9.88C44.872 9.42667 44.6587 8.84667 44.6587 8.14C44.6587 7.5 44.832 6.94667 45.1787 6.48C45.5387 6.01333 46.032 5.65333 46.6587 5.4C47.2853 5.14667 48.0053 5.02 48.8187 5.02C49.4053 5.02 49.952 5.08667 50.4587 5.22C50.9787 5.34 51.4787 5.53333 51.9587 5.8C52.1587 5.90667 52.292 6.04667 52.3587 6.22C52.4387 6.39333 52.4587 6.57333 52.4187 6.76C52.3787 6.93333 52.2987 7.09333 52.1787 7.24C52.0587 7.37333 51.9053 7.46 51.7187 7.5C51.5453 7.52667 51.3453 7.48667 51.1187 7.38C50.7053 7.16667 50.3053 7.01333 49.9187 6.92C49.5453 6.82667 49.1853 6.78 48.8387 6.78C48.1853 6.78 47.6987 6.89333 47.3787 7.12C47.072 7.34667 46.9187 7.64667 46.9187 8.02C46.9187 8.3 47.012 8.53333 47.1987 8.72C47.3853 8.90667 47.672 9.03333 48.0587 9.1L50.0587 9.48C50.9253 9.64 51.5787 9.93333 52.0187 10.36C52.472 10.7867 52.6987 11.36 52.6987 12.08C52.6987 13.0533 52.3187 13.82 51.5587 14.38C50.7987 14.9267 49.7853 15.2 48.5187 15.2ZM59.0866 15.2C58.22 15.2 57.4933 15.0533 56.9066 14.76C56.3333 14.4667 55.9066 14.04 55.6266 13.48C55.3466 12.9067 55.2066 12.2 55.2066 11.36V7.1H54.1666C53.8466 7.1 53.6 7.02 53.4266 6.86C53.2533 6.68667 53.1666 6.45333 53.1666 6.16C53.1666 5.85333 53.2533 5.62 53.4266 5.46C53.6 5.3 53.8466 5.22 54.1666 5.22H55.2066V3.4C55.2066 2.98667 55.3133 2.67333 55.5266 2.46C55.7533 2.24667 56.0666 2.14 56.4666 2.14C56.8666 2.14 57.1733 2.24667 57.3866 2.46C57.6 2.67333 57.7066 2.98667 57.7066 3.4V5.22H59.8266C60.1466 5.22 60.3933 5.3 60.5666 5.46C60.74 5.62 60.8266 5.85333 60.8266 6.16C60.8266 6.45333 60.74 6.68667 60.5666 6.86C60.3933 7.02 60.1466 7.1 59.8266 7.1H57.7066V11.22C57.7066 11.86 57.8466 12.34 58.1266 12.66C58.4066 12.98 58.86 13.14 59.4866 13.14C59.7133 13.14 59.9133 13.12 60.0866 13.08C60.26 13.04 60.4133 13.0133 60.5466 13C60.7066 12.9867 60.84 13.04 60.9466 13.16C61.0533 13.2667 61.1066 13.4933 61.1066 13.84C61.1066 14.1067 61.06 14.3467 60.9666 14.56C60.8866 14.76 60.7333 14.9 60.5066 14.98C60.3333 15.0333 60.1066 15.08 59.8266 15.12C59.5466 15.1733 59.3 15.2 59.0866 15.2ZM72.1921 15.2C71.3254 15.2 70.5988 15.0533 70.0121 14.76C69.4388 14.4667 69.0121 14.04 68.7321 13.48C68.4521 12.9067 68.3121 12.2 68.3121 11.36V7.1H67.2721C66.9521 7.1 66.7054 7.02 66.5321 6.86C66.3588 6.68667 66.2721 6.45333 66.2721 6.16C66.2721 5.85333 66.3588 5.62 66.5321 5.46C66.7054 5.3 66.9521 5.22 67.2721 5.22H68.3121V3.4C68.3121 2.98667 68.4188 2.67333 68.6321 2.46C68.8588 2.24667 69.1721 2.14 69.5721 2.14C69.9721 2.14 70.2788 2.24667 70.4921 2.46C70.7054 2.67333 70.8121 2.98667 70.8121 3.4V5.22H72.9321C73.2521 5.22 73.4988 5.3 73.6721 5.46C73.8454 5.62 73.9321 5.85333 73.9321 6.16C73.9321 6.45333 73.8454 6.68667 73.6721 6.86C73.4988 7.02 73.2521 7.1 72.9321 7.1H70.8121V11.22C70.8121 11.86 70.9521 12.34 71.2321 12.66C71.5121 12.98 71.9654 13.14 72.5921 13.14C72.8188 13.14 73.0188 13.12 73.1921 13.08C73.3654 13.04 73.5188 13.0133 73.6521 13C73.8121 12.9867 73.9454 13.04 74.0521 13.16C74.1588 13.2667 74.2121 13.4933 74.2121 13.84C74.2121 14.1067 74.1654 14.3467 74.0721 14.56C73.9921 14.76 73.8388 14.9 73.6121 14.98C73.4388 15.0333 73.2121 15.08 72.9321 15.12C72.6521 15.1733 72.4054 15.2 72.1921 15.2ZM76.8818 15.16C76.4818 15.16 76.1751 15.0533 75.9618 14.84C75.7485 14.6133 75.6418 14.2933 75.6418 13.88V2C75.6418 1.58667 75.7485 1.27333 75.9618 1.06C76.1751 0.846666 76.4818 0.739999 76.8818 0.739999C77.2818 0.739999 77.5885 0.846666 77.8018 1.06C78.0285 1.27333 78.1418 1.58667 78.1418 2V7.18H77.8618C78.1551 6.47333 78.6085 5.94 79.2218 5.58C79.8485 5.20667 80.5551 5.02 81.3418 5.02C82.1285 5.02 82.7751 5.16667 83.2818 5.46C83.7885 5.75333 84.1685 6.2 84.4218 6.8C84.6751 7.38667 84.8018 8.13333 84.8018 9.04V13.88C84.8018 14.2933 84.6951 14.6133 84.4818 14.84C84.2685 15.0533 83.9618 15.16 83.5618 15.16C83.1618 15.16 82.8485 15.0533 82.6218 14.84C82.4085 14.6133 82.3018 14.2933 82.3018 13.88V9.16C82.3018 8.4 82.1551 7.84667 81.8618 7.5C81.5818 7.15333 81.1418 6.98 80.5418 6.98C79.8085 6.98 79.2218 7.21333 78.7818 7.68C78.3551 8.13333 78.1418 8.74 78.1418 9.5V13.88C78.1418 14.7333 77.7218 15.16 76.8818 15.16ZM92.161 15.2C91.0543 15.2 90.101 14.9933 89.301 14.58C88.501 14.1667 87.881 13.58 87.441 12.82C87.0143 12.06 86.801 11.16 86.801 10.12C86.801 9.10667 87.0077 8.22 87.421 7.46C87.8477 6.7 88.4277 6.10667 89.161 5.68C89.9077 5.24 90.7543 5.02 91.701 5.02C92.3943 5.02 93.0143 5.13333 93.561 5.36C94.121 5.58667 94.5943 5.91333 94.981 6.34C95.381 6.76667 95.681 7.28667 95.881 7.9C96.0943 8.5 96.201 9.18 96.201 9.94C96.201 10.18 96.1143 10.3667 95.941 10.5C95.781 10.62 95.5477 10.68 95.241 10.68H88.821V9.24H94.441L94.121 9.54C94.121 8.92667 94.0277 8.41333 93.841 8C93.6677 7.58667 93.4077 7.27333 93.061 7.06C92.7277 6.83333 92.3077 6.72 91.801 6.72C91.241 6.72 90.761 6.85333 90.361 7.12C89.9743 7.37333 89.6743 7.74 89.461 8.22C89.261 8.68667 89.161 9.24667 89.161 9.9V10.04C89.161 11.1333 89.4143 11.9533 89.921 12.5C90.441 13.0333 91.201 13.3 92.201 13.3C92.5477 13.3 92.9343 13.26 93.361 13.18C93.801 13.0867 94.2143 12.9333 94.601 12.72C94.881 12.56 95.1277 12.4933 95.341 12.52C95.5543 12.5333 95.721 12.6067 95.841 12.74C95.9743 12.8733 96.0543 13.04 96.081 13.24C96.1077 13.4267 96.0677 13.62 95.961 13.82C95.8677 14.02 95.701 14.1933 95.461 14.34C94.9943 14.6333 94.4543 14.8533 93.841 15C93.241 15.1333 92.681 15.2 92.161 15.2ZM104.851 18.76C104.451 18.76 104.144 18.6533 103.931 18.44C103.717 18.2267 103.611 17.9133 103.611 17.5V6.32C103.611 5.90667 103.717 5.59333 103.931 5.38C104.144 5.16667 104.444 5.06 104.831 5.06C105.231 5.06 105.537 5.16667 105.751 5.38C105.964 5.59333 106.071 5.90667 106.071 6.32V7.88L105.851 7.28C106.051 6.6 106.457 6.05333 107.071 5.64C107.697 5.22667 108.424 5.02 109.251 5.02C110.104 5.02 110.851 5.22667 111.491 5.64C112.144 6.05333 112.651 6.64 113.011 7.4C113.371 8.14667 113.551 9.04667 113.551 10.1C113.551 11.14 113.371 12.0467 113.011 12.82C112.651 13.58 112.151 14.1667 111.511 14.58C110.871 14.9933 110.117 15.2 109.251 15.2C108.437 15.2 107.724 15 107.111 14.6C106.497 14.1867 106.084 13.6533 105.871 13H106.111V17.5C106.111 17.9133 105.997 18.2267 105.771 18.44C105.557 18.6533 105.251 18.76 104.851 18.76ZM108.551 13.3C109.044 13.3 109.477 13.18 109.851 12.94C110.224 12.7 110.511 12.3467 110.711 11.88C110.924 11.4 111.031 10.8067 111.031 10.1C111.031 9.03333 110.804 8.24 110.351 7.72C109.897 7.18667 109.297 6.92 108.551 6.92C108.057 6.92 107.624 7.04 107.251 7.28C106.877 7.50667 106.584 7.86 106.371 8.34C106.171 8.80667 106.071 9.39333 106.071 10.1C106.071 11.1533 106.297 11.9533 106.751 12.5C107.204 13.0333 107.804 13.3 108.551 13.3ZM120.063 15.2C119.049 15.2 118.169 14.9933 117.423 14.58C116.676 14.1667 116.096 13.58 115.683 12.82C115.269 12.0467 115.063 11.14 115.063 10.1C115.063 9.31333 115.176 8.61333 115.403 8C115.643 7.37333 115.983 6.84 116.423 6.4C116.863 5.94667 117.389 5.60667 118.003 5.38C118.616 5.14 119.303 5.02 120.063 5.02C121.076 5.02 121.956 5.22667 122.703 5.64C123.449 6.05333 124.029 6.64 124.443 7.4C124.856 8.16 125.063 9.06 125.063 10.1C125.063 10.8867 124.943 11.5933 124.703 12.22C124.476 12.8467 124.143 13.3867 123.703 13.84C123.263 14.28 122.736 14.62 122.123 14.86C121.509 15.0867 120.823 15.2 120.063 15.2ZM120.063 13.3C120.556 13.3 120.989 13.18 121.363 12.94C121.736 12.7 122.023 12.3467 122.223 11.88C122.436 11.4 122.543 10.8067 122.543 10.1C122.543 9.03333 122.316 8.24 121.863 7.72C121.409 7.18667 120.809 6.92 120.063 6.92C119.569 6.92 119.136 7.04 118.763 7.28C118.389 7.50667 118.096 7.86 117.883 8.34C117.683 8.80667 117.583 9.39333 117.583 10.1C117.583 11.1533 117.809 11.9533 118.263 12.5C118.716 13.0333 119.316 13.3 120.063 13.3ZM128.366 15.14C127.966 15.14 127.66 15.02 127.446 14.78C127.233 14.54 127.126 14.2067 127.126 13.78V6.44C127.126 6 127.233 5.66667 127.446 5.44C127.66 5.2 127.966 5.08 128.366 5.08C128.766 5.08 129.073 5.2 129.286 5.44C129.513 5.66667 129.626 6 129.626 6.44V13.78C129.626 14.2067 129.52 14.54 129.306 14.78C129.093 15.02 128.78 15.14 128.366 15.14ZM128.366 3.22C127.9 3.22 127.533 3.10667 127.266 2.88C127.013 2.64 126.886 2.31333 126.886 1.9C126.886 1.47333 127.013 1.14667 127.266 0.919999C127.533 0.693333 127.9 0.58 128.366 0.58C128.846 0.58 129.213 0.693333 129.466 0.919999C129.72 1.14667 129.846 1.47333 129.846 1.9C129.846 2.31333 129.72 2.64 129.466 2.88C129.213 3.10667 128.846 3.22 128.366 3.22ZM133.464 15.16C133.064 15.16 132.757 15.0533 132.544 14.84C132.33 14.6133 132.224 14.2933 132.224 13.88V6.32C132.224 5.90667 132.33 5.59333 132.544 5.38C132.757 5.16667 133.057 5.06 133.444 5.06C133.83 5.06 134.13 5.16667 134.344 5.38C134.557 5.59333 134.664 5.90667 134.664 6.32V7.68L134.444 7.18C134.737 6.47333 135.19 5.94 135.804 5.58C136.43 5.20667 137.137 5.02 137.924 5.02C138.71 5.02 139.357 5.16667 139.864 5.46C140.37 5.75333 140.75 6.2 141.004 6.8C141.257 7.38667 141.384 8.13333 141.384 9.04V13.88C141.384 14.2933 141.277 14.6133 141.064 14.84C140.85 15.0533 140.544 15.16 140.144 15.16C139.744 15.16 139.43 15.0533 139.204 14.84C138.99 14.6133 138.884 14.2933 138.884 13.88V9.16C138.884 8.4 138.737 7.84667 138.444 7.5C138.164 7.15333 137.724 6.98 137.124 6.98C136.39 6.98 135.804 7.21333 135.364 7.68C134.937 8.13333 134.724 8.74 134.724 9.5V13.88C134.724 14.7333 134.304 15.16 133.464 15.16ZM148.403 15.2C147.536 15.2 146.81 15.0533 146.223 14.76C145.65 14.4667 145.223 14.04 144.943 13.48C144.663 12.9067 144.523 12.2 144.523 11.36V7.1H143.483C143.163 7.1 142.916 7.02 142.743 6.86C142.57 6.68667 142.483 6.45333 142.483 6.16C142.483 5.85333 142.57 5.62 142.743 5.46C142.916 5.3 143.163 5.22 143.483 5.22H144.523V3.4C144.523 2.98667 144.63 2.67333 144.843 2.46C145.07 2.24667 145.383 2.14 145.783 2.14C146.183 2.14 146.49 2.24667 146.703 2.46C146.916 2.67333 147.023 2.98667 147.023 3.4V5.22H149.143C149.463 5.22 149.71 5.3 149.883 5.46C150.056 5.62 150.143 5.85333 150.143 6.16C150.143 6.45333 150.056 6.68667 149.883 6.86C149.71 7.02 149.463 7.1 149.143 7.1H147.023V11.22C147.023 11.86 147.163 12.34 147.443 12.66C147.723 12.98 148.176 13.14 148.803 13.14C149.03 13.14 149.23 13.12 149.403 13.08C149.576 13.04 149.73 13.0133 149.863 13C150.023 12.9867 150.156 13.04 150.263 13.16C150.37 13.2667 150.423 13.4933 150.423 13.84C150.423 14.1067 150.376 14.3467 150.283 14.56C150.203 14.76 150.05 14.9 149.823 14.98C149.65 15.0333 149.423 15.08 149.143 15.12C148.863 15.1733 148.616 15.2 148.403 15.2ZM156.321 15.2C155.215 15.2 154.261 14.9933 153.461 14.58C152.661 14.1667 152.041 13.58 151.601 12.82C151.175 12.06 150.961 11.16 150.961 10.12C150.961 9.10667 151.168 8.22 151.581 7.46C152.008 6.7 152.588 6.10667 153.321 5.68C154.068 5.24 154.915 5.02 155.861 5.02C156.555 5.02 157.175 5.13333 157.721 5.36C158.281 5.58667 158.755 5.91333 159.141 6.34C159.541 6.76667 159.841 7.28667 160.041 7.9C160.255 8.5 160.361 9.18 160.361 9.94C160.361 10.18 160.275 10.3667 160.101 10.5C159.941 10.62 159.708 10.68 159.401 10.68H152.981V9.24H158.601L158.281 9.54C158.281 8.92667 158.188 8.41333 158.001 8C157.828 7.58667 157.568 7.27333 157.221 7.06C156.888 6.83333 156.468 6.72 155.961 6.72C155.401 6.72 154.921 6.85333 154.521 7.12C154.135 7.37333 153.835 7.74 153.621 8.22C153.421 8.68667 153.321 9.24667 153.321 9.9V10.04C153.321 11.1333 153.575 11.9533 154.081 12.5C154.601 13.0333 155.361 13.3 156.361 13.3C156.708 13.3 157.095 13.26 157.521 13.18C157.961 13.0867 158.375 12.9333 158.761 12.72C159.041 12.56 159.288 12.4933 159.501 12.52C159.715 12.5333 159.881 12.6067 160.001 12.74C160.135 12.8733 160.215 13.04 160.241 13.24C160.268 13.4267 160.228 13.62 160.121 13.82C160.028 14.02 159.861 14.1933 159.621 14.34C159.155 14.6333 158.615 14.8533 158.001 15C157.401 15.1333 156.841 15.2 156.321 15.2ZM163.621 15.16C163.208 15.16 162.888 15.0533 162.661 14.84C162.448 14.6133 162.341 14.2933 162.341 13.88V6.32C162.341 5.90667 162.448 5.59333 162.661 5.38C162.874 5.16667 163.174 5.06 163.561 5.06C163.948 5.06 164.248 5.16667 164.461 5.38C164.674 5.59333 164.781 5.90667 164.781 6.32V7.58H164.581C164.768 6.78 165.134 6.17333 165.681 5.76C166.228 5.34667 166.954 5.1 167.861 5.02C168.141 4.99333 168.361 5.06667 168.521 5.24C168.694 5.4 168.794 5.65333 168.821 6C168.848 6.33333 168.768 6.60667 168.581 6.82C168.408 7.02 168.141 7.14 167.781 7.18L167.341 7.22C166.528 7.3 165.914 7.55333 165.501 7.98C165.088 8.39333 164.881 8.98 164.881 9.74V13.88C164.881 14.2933 164.774 14.6133 164.561 14.84C164.348 15.0533 164.034 15.16 163.621 15.16ZM173.655 15.2C173.082 15.2 172.475 15.14 171.835 15.02C171.195 14.9 170.622 14.6933 170.115 14.4C169.902 14.2667 169.749 14.1133 169.655 13.94C169.575 13.7533 169.542 13.5733 169.555 13.4C169.582 13.2133 169.649 13.0533 169.755 12.92C169.875 12.7867 170.022 12.7 170.195 12.66C170.382 12.62 170.582 12.6533 170.795 12.76C171.329 13.0133 171.829 13.1933 172.295 13.3C172.762 13.3933 173.222 13.44 173.675 13.44C174.315 13.44 174.789 13.3333 175.095 13.12C175.415 12.8933 175.575 12.6 175.575 12.24C175.575 11.9333 175.469 11.7 175.255 11.54C175.055 11.3667 174.749 11.24 174.335 11.16L172.335 10.78C171.509 10.62 170.875 10.32 170.435 9.88C170.009 9.42667 169.795 8.84667 169.795 8.14C169.795 7.5 169.969 6.94667 170.315 6.48C170.675 6.01333 171.169 5.65333 171.795 5.4C172.422 5.14667 173.142 5.02 173.955 5.02C174.542 5.02 175.089 5.08667 175.595 5.22C176.115 5.34 176.615 5.53333 177.095 5.8C177.295 5.90667 177.429 6.04667 177.495 6.22C177.575 6.39333 177.595 6.57333 177.555 6.76C177.515 6.93333 177.435 7.09333 177.315 7.24C177.195 7.37333 177.042 7.46 176.855 7.5C176.682 7.52667 176.482 7.48667 176.255 7.38C175.842 7.16667 175.442 7.01333 175.055 6.92C174.682 6.82667 174.322 6.78 173.975 6.78C173.322 6.78 172.835 6.89333 172.515 7.12C172.209 7.34667 172.055 7.64667 172.055 8.02C172.055 8.3 172.149 8.53333 172.335 8.72C172.522 8.90667 172.809 9.03333 173.195 9.1L175.195 9.48C176.062 9.64 176.715 9.93333 177.155 10.36C177.609 10.7867 177.835 11.36 177.835 12.08C177.835 13.0533 177.455 13.82 176.695 14.38C175.935 14.9267 174.922 15.2 173.655 15.2ZM189.751 15.2C188.884 15.2 188.157 15.0533 187.571 14.76C186.997 14.4667 186.571 14.04 186.291 13.48C186.011 12.9067 185.871 12.2 185.871 11.36V7.1H184.831C184.511 7.1 184.264 7.02 184.091 6.86C183.917 6.68667 183.831 6.45333 183.831 6.16C183.831 5.85333 183.917 5.62 184.091 5.46C184.264 5.3 184.511 5.22 184.831 5.22H185.871V3.4C185.871 2.98667 185.977 2.67333 186.191 2.46C186.417 2.24667 186.731 2.14 187.131 2.14C187.531 2.14 187.837 2.24667 188.051 2.46C188.264 2.67333 188.371 2.98667 188.371 3.4V5.22H190.491C190.811 5.22 191.057 5.3 191.231 5.46C191.404 5.62 191.491 5.85333 191.491 6.16C191.491 6.45333 191.404 6.68667 191.231 6.86C191.057 7.02 190.811 7.1 190.491 7.1H188.371V11.22C188.371 11.86 188.511 12.34 188.791 12.66C189.071 12.98 189.524 13.14 190.151 13.14C190.377 13.14 190.577 13.12 190.751 13.08C190.924 13.04 191.077 13.0133 191.211 13C191.371 12.9867 191.504 13.04 191.611 13.16C191.717 13.2667 191.771 13.4933 191.771 13.84C191.771 14.1067 191.724 14.3467 191.631 14.56C191.551 14.76 191.397 14.9 191.171 14.98C190.997 15.0333 190.771 15.08 190.491 15.12C190.211 15.1733 189.964 15.2 189.751 15.2ZM197.309 15.2C196.295 15.2 195.415 14.9933 194.669 14.58C193.922 14.1667 193.342 13.58 192.929 12.82C192.515 12.0467 192.309 11.14 192.309 10.1C192.309 9.31333 192.422 8.61333 192.649 8C192.889 7.37333 193.229 6.84 193.669 6.4C194.109 5.94667 194.635 5.60667 195.249 5.38C195.862 5.14 196.549 5.02 197.309 5.02C198.322 5.02 199.202 5.22667 199.949 5.64C200.695 6.05333 201.275 6.64 201.689 7.4C202.102 8.16 202.309 9.06 202.309 10.1C202.309 10.8867 202.189 11.5933 201.949 12.22C201.722 12.8467 201.389 13.3867 200.949 13.84C200.509 14.28 199.982 14.62 199.369 14.86C198.755 15.0867 198.069 15.2 197.309 15.2ZM197.309 13.3C197.802 13.3 198.235 13.18 198.609 12.94C198.982 12.7 199.269 12.3467 199.469 11.88C199.682 11.4 199.789 10.8067 199.789 10.1C199.789 9.03333 199.562 8.24 199.109 7.72C198.655 7.18667 198.055 6.92 197.309 6.92C196.815 6.92 196.382 7.04 196.009 7.28C195.635 7.50667 195.342 7.86 195.129 8.34C194.929 8.80667 194.829 9.39333 194.829 10.1C194.829 11.1533 195.055 11.9533 195.509 12.5C195.962 13.0333 196.562 13.3 197.309 13.3ZM214.322 15.2C213.295 15.2 212.402 14.9933 211.642 14.58C210.882 14.1533 210.295 13.5533 209.882 12.78C209.469 12.0067 209.262 11.1 209.262 10.06C209.262 9.27333 209.375 8.57333 209.602 7.96C209.842 7.33333 210.182 6.80667 210.622 6.38C211.062 5.94 211.595 5.60667 212.222 5.38C212.849 5.14 213.549 5.02 214.322 5.02C214.762 5.02 215.235 5.08 215.742 5.2C216.262 5.32 216.749 5.52 217.202 5.8C217.415 5.93333 217.555 6.09333 217.622 6.28C217.689 6.46667 217.702 6.66 217.662 6.86C217.622 7.04667 217.535 7.21333 217.402 7.36C217.282 7.49333 217.129 7.58 216.942 7.62C216.755 7.64667 216.549 7.6 216.322 7.48C216.029 7.30667 215.729 7.18 215.422 7.1C215.115 7.00667 214.822 6.96 214.542 6.96C214.102 6.96 213.715 7.03333 213.382 7.18C213.049 7.31333 212.762 7.51333 212.522 7.78C212.295 8.03333 212.122 8.35333 212.002 8.74C211.882 9.12667 211.822 9.57333 211.822 10.08C211.822 11.0667 212.055 11.8467 212.522 12.42C213.002 12.98 213.675 13.26 214.542 13.26C214.822 13.26 215.109 13.22 215.402 13.14C215.709 13.06 216.015 12.9333 216.322 12.76C216.549 12.64 216.749 12.6 216.922 12.64C217.109 12.68 217.262 12.7733 217.382 12.92C217.502 13.0533 217.575 13.22 217.602 13.42C217.629 13.6067 217.602 13.7933 217.522 13.98C217.455 14.1667 217.322 14.32 217.122 14.44C216.682 14.7067 216.215 14.9 215.722 15.02C215.229 15.14 214.762 15.2 214.322 15.2ZM220.516 15.16C220.102 15.16 219.782 15.0533 219.556 14.84C219.342 14.6133 219.236 14.2933 219.236 13.88V6.32C219.236 5.90667 219.342 5.59333 219.556 5.38C219.769 5.16667 220.069 5.06 220.456 5.06C220.842 5.06 221.142 5.16667 221.356 5.38C221.569 5.59333 221.676 5.90667 221.676 6.32V7.58H221.476C221.662 6.78 222.029 6.17333 222.576 5.76C223.122 5.34667 223.849 5.1 224.756 5.02C225.036 4.99333 225.256 5.06667 225.416 5.24C225.589 5.4 225.689 5.65333 225.716 6C225.742 6.33333 225.662 6.60667 225.476 6.82C225.302 7.02 225.036 7.14 224.676 7.18L224.236 7.22C223.422 7.3 222.809 7.55333 222.396 7.98C221.982 8.39333 221.776 8.98 221.776 9.74V13.88C221.776 14.2933 221.669 14.6133 221.456 14.84C221.242 15.0533 220.929 15.16 220.516 15.16ZM231.731 15.2C230.625 15.2 229.671 14.9933 228.871 14.58C228.071 14.1667 227.451 13.58 227.011 12.82C226.585 12.06 226.371 11.16 226.371 10.12C226.371 9.10667 226.578 8.22 226.991 7.46C227.418 6.7 227.998 6.10667 228.731 5.68C229.478 5.24 230.325 5.02 231.271 5.02C231.965 5.02 232.585 5.13333 233.131 5.36C233.691 5.58667 234.165 5.91333 234.551 6.34C234.951 6.76667 235.251 7.28667 235.451 7.9C235.665 8.5 235.771 9.18 235.771 9.94C235.771 10.18 235.685 10.3667 235.511 10.5C235.351 10.62 235.118 10.68 234.811 10.68H228.391V9.24H234.011L233.691 9.54C233.691 8.92667 233.598 8.41333 233.411 8C233.238 7.58667 232.978 7.27333 232.631 7.06C232.298 6.83333 231.878 6.72 231.371 6.72C230.811 6.72 230.331 6.85333 229.931 7.12C229.545 7.37333 229.245 7.74 229.031 8.22C228.831 8.68667 228.731 9.24667 228.731 9.9V10.04C228.731 11.1333 228.985 11.9533 229.491 12.5C230.011 13.0333 230.771 13.3 231.771 13.3C232.118 13.3 232.505 13.26 232.931 13.18C233.371 13.0867 233.785 12.9333 234.171 12.72C234.451 12.56 234.698 12.4933 234.911 12.52C235.125 12.5333 235.291 12.6067 235.411 12.74C235.545 12.8733 235.625 13.04 235.651 13.24C235.678 13.4267 235.638 13.62 235.531 13.82C235.438 14.02 235.271 14.1933 235.031 14.34C234.565 14.6333 234.025 14.8533 233.411 15C232.811 15.1333 232.251 15.2 231.731 15.2ZM240.971 15.2C240.265 15.2 239.631 15.0667 239.071 14.8C238.525 14.52 238.091 14.1467 237.771 13.68C237.465 13.2133 237.311 12.6867 237.311 12.1C237.311 11.38 237.498 10.8133 237.871 10.4C238.245 9.97333 238.851 9.66667 239.691 9.48C240.531 9.29333 241.658 9.2 243.071 9.2H244.071V10.64H243.091C242.265 10.64 241.605 10.68 241.111 10.76C240.618 10.84 240.265 10.98 240.051 11.18C239.851 11.3667 239.751 11.6333 239.751 11.98C239.751 12.42 239.905 12.78 240.211 13.06C240.518 13.34 240.945 13.48 241.491 13.48C241.931 13.48 242.318 13.38 242.651 13.18C242.998 12.9667 243.271 12.68 243.471 12.32C243.671 11.96 243.771 11.5467 243.771 11.08V8.78C243.771 8.11333 243.625 7.63333 243.331 7.34C243.038 7.04667 242.545 6.9 241.851 6.9C241.465 6.9 241.045 6.94667 240.591 7.04C240.151 7.13333 239.685 7.29333 239.191 7.52C238.938 7.64 238.711 7.67333 238.511 7.62C238.325 7.56667 238.178 7.46 238.071 7.3C237.965 7.12667 237.911 6.94 237.911 6.74C237.911 6.54 237.965 6.34667 238.071 6.16C238.178 5.96 238.358 5.81333 238.611 5.72C239.225 5.46667 239.811 5.28667 240.371 5.18C240.945 5.07333 241.465 5.02 241.931 5.02C242.891 5.02 243.678 5.16667 244.291 5.46C244.918 5.75333 245.385 6.2 245.691 6.8C245.998 7.38667 246.151 8.14667 246.151 9.08V13.88C246.151 14.2933 246.051 14.6133 245.851 14.84C245.651 15.0533 245.365 15.16 244.991 15.16C244.618 15.16 244.325 15.0533 244.111 14.84C243.911 14.6133 243.811 14.2933 243.811 13.88V12.92H243.971C243.878 13.3867 243.691 13.7933 243.411 14.14C243.145 14.4733 242.805 14.7333 242.391 14.92C241.978 15.1067 241.505 15.2 240.971 15.2ZM253.169 15.2C252.302 15.2 251.575 15.0533 250.989 14.76C250.415 14.4667 249.989 14.04 249.709 13.48C249.429 12.9067 249.289 12.2 249.289 11.36V7.1H248.249C247.929 7.1 247.682 7.02 247.509 6.86C247.335 6.68667 247.249 6.45333 247.249 6.16C247.249 5.85333 247.335 5.62 247.509 5.46C247.682 5.3 247.929 5.22 248.249 5.22H249.289V3.4C249.289 2.98667 249.395 2.67333 249.609 2.46C249.835 2.24667 250.149 2.14 250.549 2.14C250.949 2.14 251.255 2.24667 251.469 2.46C251.682 2.67333 251.789 2.98667 251.789 3.4V5.22H253.909C254.229 5.22 254.475 5.3 254.649 5.46C254.822 5.62 254.909 5.85333 254.909 6.16C254.909 6.45333 254.822 6.68667 254.649 6.86C254.475 7.02 254.229 7.1 253.909 7.1H251.789V11.22C251.789 11.86 251.929 12.34 252.209 12.66C252.489 12.98 252.942 13.14 253.569 13.14C253.795 13.14 253.995 13.12 254.169 13.08C254.342 13.04 254.495 13.0133 254.629 13C254.789 12.9867 254.922 13.04 255.029 13.16C255.135 13.2667 255.189 13.4933 255.189 13.84C255.189 14.1067 255.142 14.3467 255.049 14.56C254.969 14.76 254.815 14.9 254.589 14.98C254.415 15.0333 254.189 15.08 253.909 15.12C253.629 15.1733 253.382 15.2 253.169 15.2ZM261.087 15.2C259.98 15.2 259.027 14.9933 258.227 14.58C257.427 14.1667 256.807 13.58 256.367 12.82C255.94 12.06 255.727 11.16 255.727 10.12C255.727 9.10667 255.933 8.22 256.347 7.46C256.773 6.7 257.353 6.10667 258.087 5.68C258.833 5.24 259.68 5.02 260.627 5.02C261.32 5.02 261.94 5.13333 262.487 5.36C263.047 5.58667 263.52 5.91333 263.907 6.34C264.307 6.76667 264.607 7.28667 264.807 7.9C265.02 8.5 265.127 9.18 265.127 9.94C265.127 10.18 265.04 10.3667 264.867 10.5C264.707 10.62 264.473 10.68 264.167 10.68H257.747V9.24H263.367L263.047 9.54C263.047 8.92667 262.953 8.41333 262.767 8C262.593 7.58667 262.333 7.27333 261.987 7.06C261.653 6.83333 261.233 6.72 260.727 6.72C260.167 6.72 259.687 6.85333 259.287 7.12C258.9 7.37333 258.6 7.74 258.387 8.22C258.187 8.68667 258.087 9.24667 258.087 9.9V10.04C258.087 11.1333 258.34 11.9533 258.847 12.5C259.367 13.0333 260.127 13.3 261.127 13.3C261.473 13.3 261.86 13.26 262.287 13.18C262.727 13.0867 263.14 12.9333 263.527 12.72C263.807 12.56 264.053 12.4933 264.267 12.52C264.48 12.5333 264.647 12.6067 264.767 12.74C264.9 12.8733 264.98 13.04 265.007 13.24C265.033 13.4267 264.993 13.62 264.887 13.82C264.793 14.02 264.627 14.1933 264.387 14.34C263.92 14.6333 263.38 14.8533 262.767 15C262.167 15.1333 261.607 15.2 261.087 15.2ZM275.756 15.2C275.05 15.2 274.416 15.0667 273.856 14.8C273.31 14.52 272.876 14.1467 272.556 13.68C272.25 13.2133 272.096 12.6867 272.096 12.1C272.096 11.38 272.283 10.8133 272.656 10.4C273.03 9.97333 273.636 9.66667 274.476 9.48C275.316 9.29333 276.443 9.2 277.856 9.2H278.856V10.64H277.876C277.05 10.64 276.39 10.68 275.896 10.76C275.403 10.84 275.05 10.98 274.836 11.18C274.636 11.3667 274.536 11.6333 274.536 11.98C274.536 12.42 274.69 12.78 274.996 13.06C275.303 13.34 275.73 13.48 276.276 13.48C276.716 13.48 277.103 13.38 277.436 13.18C277.783 12.9667 278.056 12.68 278.256 12.32C278.456 11.96 278.556 11.5467 278.556 11.08V8.78C278.556 8.11333 278.41 7.63333 278.116 7.34C277.823 7.04667 277.33 6.9 276.636 6.9C276.25 6.9 275.83 6.94667 275.376 7.04C274.936 7.13333 274.47 7.29333 273.976 7.52C273.723 7.64 273.496 7.67333 273.296 7.62C273.11 7.56667 272.963 7.46 272.856 7.3C272.75 7.12667 272.696 6.94 272.696 6.74C272.696 6.54 272.75 6.34667 272.856 6.16C272.963 5.96 273.143 5.81333 273.396 5.72C274.01 5.46667 274.596 5.28667 275.156 5.18C275.73 5.07333 276.25 5.02 276.716 5.02C277.676 5.02 278.463 5.16667 279.076 5.46C279.703 5.75333 280.17 6.2 280.476 6.8C280.783 7.38667 280.936 8.14667 280.936 9.08V13.88C280.936 14.2933 280.836 14.6133 280.636 14.84C280.436 15.0533 280.15 15.16 279.776 15.16C279.403 15.16 279.11 15.0533 278.896 14.84C278.696 14.6133 278.596 14.2933 278.596 13.88V12.92H278.756C278.663 13.3867 278.476 13.7933 278.196 14.14C277.93 14.4733 277.59 14.7333 277.176 14.92C276.763 15.1067 276.29 15.2 275.756 15.2ZM292.244 15.2C291.137 15.2 290.304 14.8867 289.744 14.26C289.184 13.62 288.904 12.6867 288.904 11.46V2C288.904 1.58667 289.01 1.27333 289.224 1.06C289.437 0.846666 289.744 0.739999 290.144 0.739999C290.544 0.739999 290.85 0.846666 291.064 1.06C291.29 1.27333 291.404 1.58667 291.404 2V11.34C291.404 11.9533 291.53 12.4067 291.784 12.7C292.05 12.9933 292.424 13.14 292.904 13.14C293.01 13.14 293.11 13.14 293.204 13.14C293.297 13.1267 293.39 13.1133 293.484 13.1C293.67 13.0733 293.797 13.1267 293.864 13.26C293.93 13.38 293.964 13.6333 293.964 14.02C293.964 14.3533 293.897 14.6133 293.764 14.8C293.63 14.9867 293.41 15.1 293.104 15.14C292.97 15.1533 292.83 15.1667 292.684 15.18C292.537 15.1933 292.39 15.2 292.244 15.2ZM296.53 15.14C296.13 15.14 295.824 15.02 295.61 14.78C295.397 14.54 295.29 14.2067 295.29 13.78V6.44C295.29 6 295.397 5.66667 295.61 5.44C295.824 5.2 296.13 5.08 296.53 5.08C296.93 5.08 297.237 5.2 297.45 5.44C297.677 5.66667 297.79 6 297.79 6.44V13.78C297.79 14.2067 297.684 14.54 297.47 14.78C297.257 15.02 296.944 15.14 296.53 15.14ZM296.53 3.22C296.064 3.22 295.697 3.10667 295.43 2.88C295.177 2.64 295.05 2.31333 295.05 1.9C295.05 1.47333 295.177 1.14667 295.43 0.919999C295.697 0.693333 296.064 0.58 296.53 0.58C297.01 0.58 297.377 0.693333 297.63 0.919999C297.884 1.14667 298.01 1.47333 298.01 1.9C298.01 2.31333 297.884 2.64 297.63 2.88C297.377 3.10667 297.01 3.22 296.53 3.22ZM301.628 15.16C301.228 15.16 300.921 15.0533 300.708 14.84C300.495 14.6133 300.388 14.2933 300.388 13.88V6.32C300.388 5.90667 300.495 5.59333 300.708 5.38C300.921 5.16667 301.221 5.06 301.608 5.06C301.995 5.06 302.295 5.16667 302.508 5.38C302.721 5.59333 302.828 5.90667 302.828 6.32V7.68L302.608 7.18C302.901 6.47333 303.355 5.94 303.968 5.58C304.595 5.20667 305.301 5.02 306.088 5.02C306.875 5.02 307.521 5.16667 308.028 5.46C308.535 5.75333 308.915 6.2 309.168 6.8C309.421 7.38667 309.548 8.13333 309.548 9.04V13.88C309.548 14.2933 309.441 14.6133 309.228 14.84C309.015 15.0533 308.708 15.16 308.308 15.16C307.908 15.16 307.595 15.0533 307.368 14.84C307.155 14.6133 307.048 14.2933 307.048 13.88V9.16C307.048 8.4 306.901 7.84667 306.608 7.5C306.328 7.15333 305.888 6.98 305.288 6.98C304.555 6.98 303.968 7.21333 303.528 7.68C303.101 8.13333 302.888 8.74 302.888 9.5V13.88C302.888 14.7333 302.468 15.16 301.628 15.16ZM316.907 15.2C315.8 15.2 314.847 14.9933 314.047 14.58C313.247 14.1667 312.627 13.58 312.187 12.82C311.76 12.06 311.547 11.16 311.547 10.12C311.547 9.10667 311.754 8.22 312.167 7.46C312.594 6.7 313.174 6.10667 313.907 5.68C314.654 5.24 315.5 5.02 316.447 5.02C317.14 5.02 317.76 5.13333 318.307 5.36C318.867 5.58667 319.34 5.91333 319.727 6.34C320.127 6.76667 320.427 7.28667 320.627 7.9C320.84 8.5 320.947 9.18 320.947 9.94C320.947 10.18 320.86 10.3667 320.687 10.5C320.527 10.62 320.294 10.68 319.987 10.68H313.567V9.24H319.187L318.867 9.54C318.867 8.92667 318.774 8.41333 318.587 8C318.414 7.58667 318.154 7.27333 317.807 7.06C317.474 6.83333 317.054 6.72 316.547 6.72C315.987 6.72 315.507 6.85333 315.107 7.12C314.72 7.37333 314.42 7.74 314.207 8.22C314.007 8.68667 313.907 9.24667 313.907 9.9V10.04C313.907 11.1333 314.16 11.9533 314.667 12.5C315.187 13.0333 315.947 13.3 316.947 13.3C317.294 13.3 317.68 13.26 318.107 13.18C318.547 13.0867 318.96 12.9333 319.347 12.72C319.627 12.56 319.874 12.4933 320.087 12.52C320.3 12.5333 320.467 12.6067 320.587 12.74C320.72 12.8733 320.8 13.04 320.827 13.24C320.854 13.4267 320.814 13.62 320.707 13.82C320.614 14.02 320.447 14.1933 320.207 14.34C319.74 14.6333 319.2 14.8533 318.587 15C317.987 15.1333 317.427 15.2 316.907 15.2ZM332.137 15.16C331.803 15.16 331.517 15.08 331.277 14.92C331.037 14.7467 330.843 14.48 330.697 14.12L327.797 6.72C327.677 6.4 327.637 6.12 327.677 5.88C327.73 5.62667 327.857 5.42667 328.057 5.28C328.257 5.13333 328.523 5.06 328.857 5.06C329.15 5.06 329.39 5.13333 329.577 5.28C329.763 5.41333 329.923 5.67333 330.057 6.06L332.477 12.72H332.017L334.517 5.9C334.623 5.60667 334.763 5.39333 334.937 5.26C335.123 5.12667 335.363 5.06 335.657 5.06C335.95 5.06 336.19 5.13333 336.377 5.28C336.563 5.41333 336.703 5.62 336.797 5.9L339.257 12.72H338.837L341.277 6C341.41 5.64 341.577 5.39333 341.777 5.26C341.99 5.12667 342.223 5.06 342.477 5.06C342.797 5.06 343.043 5.14 343.217 5.3C343.39 5.46 343.49 5.66667 343.517 5.92C343.543 6.16 343.497 6.42667 343.377 6.72L340.497 14.12C340.363 14.4667 340.17 14.7267 339.917 14.9C339.677 15.0733 339.39 15.16 339.057 15.16C338.723 15.16 338.43 15.0733 338.177 14.9C337.937 14.7267 337.75 14.4667 337.617 14.12L334.997 7.18H336.137L333.577 14.1C333.443 14.46 333.257 14.7267 333.017 14.9C332.777 15.0733 332.483 15.16 332.137 15.16ZM346.647 15.14C346.247 15.14 345.941 15.02 345.727 14.78C345.514 14.54 345.407 14.2067 345.407 13.78V6.44C345.407 6 345.514 5.66667 345.727 5.44C345.941 5.2 346.247 5.08 346.647 5.08C347.047 5.08 347.354 5.2 347.567 5.44C347.794 5.66667 347.907 6 347.907 6.44V13.78C347.907 14.2067 347.801 14.54 347.587 14.78C347.374 15.02 347.061 15.14 346.647 15.14ZM346.647 3.22C346.181 3.22 345.814 3.10667 345.547 2.88C345.294 2.64 345.167 2.31333 345.167 1.9C345.167 1.47333 345.294 1.14667 345.547 0.919999C345.814 0.693333 346.181 0.58 346.647 0.58C347.127 0.58 347.494 0.693333 347.747 0.919999C348.001 1.14667 348.127 1.47333 348.127 1.9C348.127 2.31333 348.001 2.64 347.747 2.88C347.494 3.10667 347.127 3.22 346.647 3.22ZM354.985 15.2C354.118 15.2 353.392 15.0533 352.805 14.76C352.232 14.4667 351.805 14.04 351.525 13.48C351.245 12.9067 351.105 12.2 351.105 11.36V7.1H350.065C349.745 7.1 349.498 7.02 349.325 6.86C349.152 6.68667 349.065 6.45333 349.065 6.16C349.065 5.85333 349.152 5.62 349.325 5.46C349.498 5.3 349.745 5.22 350.065 5.22H351.105V3.4C351.105 2.98667 351.212 2.67333 351.425 2.46C351.652 2.24667 351.965 2.14 352.365 2.14C352.765 2.14 353.072 2.24667 353.285 2.46C353.498 2.67333 353.605 2.98667 353.605 3.4V5.22H355.725C356.045 5.22 356.292 5.3 356.465 5.46C356.638 5.62 356.725 5.85333 356.725 6.16C356.725 6.45333 356.638 6.68667 356.465 6.86C356.292 7.02 356.045 7.1 355.725 7.1H353.605V11.22C353.605 11.86 353.745 12.34 354.025 12.66C354.305 12.98 354.758 13.14 355.385 13.14C355.612 13.14 355.812 13.12 355.985 13.08C356.158 13.04 356.312 13.0133 356.445 13C356.605 12.9867 356.738 13.04 356.845 13.16C356.952 13.2667 357.005 13.4933 357.005 13.84C357.005 14.1067 356.958 14.3467 356.865 14.56C356.785 14.76 356.632 14.9 356.405 14.98C356.232 15.0333 356.005 15.08 355.725 15.12C355.445 15.1733 355.198 15.2 354.985 15.2ZM359.675 15.16C359.275 15.16 358.968 15.0533 358.755 14.84C358.541 14.6133 358.435 14.2933 358.435 13.88V2C358.435 1.58667 358.541 1.27333 358.755 1.06C358.968 0.846666 359.275 0.739999 359.675 0.739999C360.075 0.739999 360.381 0.846666 360.595 1.06C360.821 1.27333 360.935 1.58667 360.935 2V7.18H360.655C360.948 6.47333 361.401 5.94 362.015 5.58C362.641 5.20667 363.348 5.02 364.135 5.02C364.921 5.02 365.568 5.16667 366.075 5.46C366.581 5.75333 366.961 6.2 367.215 6.8C367.468 7.38667 367.595 8.13333 367.595 9.04V13.88C367.595 14.2933 367.488 14.6133 367.275 14.84C367.061 15.0533 366.755 15.16 366.355 15.16C365.955 15.16 365.641 15.0533 365.415 14.84C365.201 14.6133 365.095 14.2933 365.095 13.88V9.16C365.095 8.4 364.948 7.84667 364.655 7.5C364.375 7.15333 363.935 6.98 363.335 6.98C362.601 6.98 362.015 7.21333 361.575 7.68C361.148 8.13333 360.935 8.74 360.935 9.5V13.88C360.935 14.7333 360.515 15.16 359.675 15.16ZM379.104 15.2C378.29 15.2 377.617 15.0533 377.084 14.76C376.55 14.4533 376.15 14 375.884 13.4C375.63 12.8 375.504 12.0533 375.504 11.16V6.32C375.504 5.89333 375.61 5.58 375.824 5.38C376.037 5.16667 376.344 5.06 376.744 5.06C377.144 5.06 377.45 5.16667 377.664 5.38C377.89 5.58 378.004 5.89333 378.004 6.32V11.2C378.004 11.8933 378.144 12.4067 378.424 12.74C378.704 13.0733 379.15 13.24 379.764 13.24C380.43 13.24 380.977 13.0133 381.404 12.56C381.83 12.0933 382.044 11.48 382.044 10.72V6.32C382.044 5.89333 382.15 5.58 382.364 5.38C382.577 5.16667 382.884 5.06 383.284 5.06C383.684 5.06 383.99 5.16667 384.204 5.38C384.43 5.58 384.544 5.89333 384.544 6.32V13.88C384.544 14.7333 384.137 15.16 383.324 15.16C382.937 15.16 382.637 15.0533 382.424 14.84C382.21 14.6133 382.104 14.2933 382.104 13.88V12.36L382.384 12.96C382.104 13.68 381.677 14.2333 381.104 14.62C380.544 15.0067 379.877 15.2 379.104 15.2ZM388.386 15.16C387.986 15.16 387.679 15.0533 387.466 14.84C387.252 14.6133 387.146 14.2933 387.146 13.88V6.32C387.146 5.90667 387.252 5.59333 387.466 5.38C387.679 5.16667 387.979 5.06 388.366 5.06C388.752 5.06 389.052 5.16667 389.266 5.38C389.479 5.59333 389.586 5.90667 389.586 6.32V7.68L389.366 7.18C389.659 6.47333 390.112 5.94 390.726 5.58C391.352 5.20667 392.059 5.02 392.846 5.02C393.632 5.02 394.279 5.16667 394.786 5.46C395.292 5.75333 395.672 6.2 395.926 6.8C396.179 7.38667 396.306 8.13333 396.306 9.04V13.88C396.306 14.2933 396.199 14.6133 395.986 14.84C395.772 15.0533 395.466 15.16 395.066 15.16C394.666 15.16 394.352 15.0533 394.126 14.84C393.912 14.6133 393.806 14.2933 393.806 13.88V9.16C393.806 8.4 393.659 7.84667 393.366 7.5C393.086 7.15333 392.646 6.98 392.046 6.98C391.312 6.98 390.726 7.21333 390.286 7.68C389.859 8.13333 389.646 8.74 389.646 9.5V13.88C389.646 14.7333 389.226 15.16 388.386 15.16ZM402.605 15.2C401.752 15.2 400.998 14.9933 400.345 14.58C399.705 14.1667 399.205 13.58 398.845 12.82C398.485 12.0467 398.305 11.14 398.305 10.1C398.305 9.04667 398.485 8.14667 398.845 7.4C399.205 6.64 399.705 6.05333 400.345 5.64C400.998 5.22667 401.752 5.02 402.605 5.02C403.418 5.02 404.125 5.22 404.725 5.62C405.338 6.02 405.752 6.54667 405.965 7.2H405.745V2C405.745 1.58667 405.852 1.27333 406.065 1.06C406.278 0.846666 406.585 0.739999 406.985 0.739999C407.385 0.739999 407.692 0.846666 407.905 1.06C408.132 1.27333 408.245 1.58667 408.245 2V13.88C408.245 14.2933 408.138 14.6133 407.925 14.84C407.712 15.0533 407.405 15.16 407.005 15.16C406.605 15.16 406.298 15.0533 406.085 14.84C405.872 14.6133 405.765 14.2933 405.765 13.88V12.32L405.985 12.92C405.785 13.6133 405.378 14.1667 404.765 14.58C404.152 14.9933 403.432 15.2 402.605 15.2ZM403.305 13.3C403.798 13.3 404.232 13.18 404.605 12.94C404.978 12.7 405.265 12.3467 405.465 11.88C405.678 11.4 405.785 10.8067 405.785 10.1C405.785 9.03333 405.558 8.24 405.105 7.72C404.652 7.18667 404.052 6.92 403.305 6.92C402.812 6.92 402.378 7.04 402.005 7.28C401.632 7.50667 401.338 7.86 401.125 8.34C400.925 8.80667 400.825 9.39333 400.825 10.1C400.825 11.1533 401.052 11.9533 401.505 12.5C401.958 13.0333 402.558 13.3 403.305 13.3ZM415.657 15.2C414.55 15.2 413.597 14.9933 412.797 14.58C411.997 14.1667 411.377 13.58 410.937 12.82C410.51 12.06 410.297 11.16 410.297 10.12C410.297 9.10667 410.504 8.22 410.917 7.46C411.344 6.7 411.924 6.10667 412.657 5.68C413.404 5.24 414.25 5.02 415.197 5.02C415.89 5.02 416.51 5.13333 417.057 5.36C417.617 5.58667 418.09 5.91333 418.477 6.34C418.877 6.76667 419.177 7.28667 419.377 7.9C419.59 8.5 419.697 9.18 419.697 9.94C419.697 10.18 419.61 10.3667 419.437 10.5C419.277 10.62 419.044 10.68 418.737 10.68H412.317V9.24H417.937L417.617 9.54C417.617 8.92667 417.524 8.41333 417.337 8C417.164 7.58667 416.904 7.27333 416.557 7.06C416.224 6.83333 415.804 6.72 415.297 6.72C414.737 6.72 414.257 6.85333 413.857 7.12C413.47 7.37333 413.17 7.74 412.957 8.22C412.757 8.68667 412.657 9.24667 412.657 9.9V10.04C412.657 11.1333 412.91 11.9533 413.417 12.5C413.937 13.0333 414.697 13.3 415.697 13.3C416.044 13.3 416.43 13.26 416.857 13.18C417.297 13.0867 417.71 12.9333 418.097 12.72C418.377 12.56 418.624 12.4933 418.837 12.52C419.05 12.5333 419.217 12.6067 419.337 12.74C419.47 12.8733 419.55 13.04 419.577 13.24C419.604 13.4267 419.564 13.62 419.457 13.82C419.364 14.02 419.197 14.1933 418.957 14.34C418.49 14.6333 417.95 14.8533 417.337 15C416.737 15.1333 416.177 15.2 415.657 15.2ZM423.558 15.16C423.158 15.16 422.845 15.0533 422.618 14.84C422.405 14.6133 422.298 14.2933 422.298 13.88V7.1H421.378C421.058 7.1 420.811 7.02 420.638 6.86C420.465 6.68667 420.378 6.45333 420.378 6.16C420.378 5.85333 420.465 5.62 420.638 5.46C420.811 5.3 421.058 5.22 421.378 5.22H423.018L422.298 5.88V5.2C422.298 3.85333 422.638 2.83333 423.318 2.14C423.998 1.44667 424.985 1.03333 426.278 0.899999L426.878 0.84C427.185 0.813333 427.425 0.853333 427.598 0.96C427.785 1.06667 427.905 1.21333 427.958 1.4C428.025 1.57333 428.038 1.76 427.998 1.96C427.958 2.14667 427.878 2.31333 427.758 2.46C427.638 2.59333 427.485 2.66667 427.298 2.68L426.818 2.72C426.111 2.77333 425.598 2.96667 425.278 3.3C424.958 3.63333 424.798 4.13333 424.798 4.8V5.54L424.478 5.22H430.018C430.418 5.22 430.725 5.34 430.938 5.58C431.151 5.80667 431.258 6.13333 431.258 6.56V13.78C431.258 14.2067 431.151 14.54 430.938 14.78C430.738 15.02 430.431 15.14 430.018 15.14C429.618 15.14 429.305 15.02 429.078 14.78C428.865 14.54 428.758 14.2067 428.758 13.78V7.1H424.798V13.88C424.798 14.7333 424.385 15.16 423.558 15.16ZM430.058 3.22C429.605 3.22 429.251 3.10667 428.998 2.88C428.758 2.64 428.638 2.31333 428.638 1.9C428.638 1.47333 428.758 1.14667 428.998 0.919999C429.251 0.693333 429.605 0.58 430.058 0.58C430.525 0.58 430.878 0.693333 431.118 0.919999C431.371 1.14667 431.498 1.47333 431.498 1.9C431.498 2.31333 431.371 2.64 431.118 2.88C430.878 3.10667 430.525 3.22 430.058 3.22ZM435.104 15.16C434.704 15.16 434.398 15.0533 434.184 14.84C433.971 14.6133 433.864 14.2933 433.864 13.88V6.32C433.864 5.90667 433.971 5.59333 434.184 5.38C434.398 5.16667 434.698 5.06 435.084 5.06C435.471 5.06 435.771 5.16667 435.984 5.38C436.198 5.59333 436.304 5.90667 436.304 6.32V7.68L436.084 7.18C436.378 6.47333 436.831 5.94 437.444 5.58C438.071 5.20667 438.778 5.02 439.564 5.02C440.351 5.02 440.998 5.16667 441.504 5.46C442.011 5.75333 442.391 6.2 442.644 6.8C442.898 7.38667 443.024 8.13333 443.024 9.04V13.88C443.024 14.2933 442.918 14.6133 442.704 14.84C442.491 15.0533 442.184 15.16 441.784 15.16C441.384 15.16 441.071 15.0533 440.844 14.84C440.631 14.6133 440.524 14.2933 440.524 13.88V9.16C440.524 8.4 440.378 7.84667 440.084 7.5C439.804 7.15333 439.364 6.98 438.764 6.98C438.031 6.98 437.444 7.21333 437.004 7.68C436.578 8.13333 436.364 8.74 436.364 9.5V13.88C436.364 14.7333 435.944 15.16 435.104 15.16ZM450.384 15.2C449.277 15.2 448.324 14.9933 447.524 14.58C446.724 14.1667 446.104 13.58 445.664 12.82C445.237 12.06 445.024 11.16 445.024 10.12C445.024 9.10667 445.23 8.22 445.644 7.46C446.07 6.7 446.65 6.10667 447.384 5.68C448.13 5.24 448.977 5.02 449.924 5.02C450.617 5.02 451.237 5.13333 451.784 5.36C452.344 5.58667 452.817 5.91333 453.204 6.34C453.604 6.76667 453.904 7.28667 454.104 7.9C454.317 8.5 454.424 9.18 454.424 9.94C454.424 10.18 454.337 10.3667 454.164 10.5C454.004 10.62 453.77 10.68 453.464 10.68H447.044V9.24H452.664L452.344 9.54C452.344 8.92667 452.25 8.41333 452.064 8C451.89 7.58667 451.63 7.27333 451.284 7.06C450.95 6.83333 450.53 6.72 450.024 6.72C449.464 6.72 448.984 6.85333 448.584 7.12C448.197 7.37333 447.897 7.74 447.684 8.22C447.484 8.68667 447.384 9.24667 447.384 9.9V10.04C447.384 11.1333 447.637 11.9533 448.144 12.5C448.664 13.0333 449.424 13.3 450.424 13.3C450.77 13.3 451.157 13.26 451.584 13.18C452.024 13.0867 452.437 12.9333 452.824 12.72C453.104 12.56 453.35 12.4933 453.564 12.52C453.777 12.5333 453.944 12.6067 454.064 12.74C454.197 12.8733 454.277 13.04 454.304 13.24C454.33 13.4267 454.29 13.62 454.184 13.82C454.09 14.02 453.924 14.1933 453.684 14.34C453.217 14.6333 452.677 14.8533 452.064 15C451.464 15.1333 450.904 15.2 450.384 15.2ZM460.164 15.2C459.31 15.2 458.557 14.9933 457.904 14.58C457.264 14.1667 456.764 13.58 456.404 12.82C456.044 12.0467 455.864 11.14 455.864 10.1C455.864 9.04667 456.044 8.14667 456.404 7.4C456.764 6.64 457.264 6.05333 457.904 5.64C458.557 5.22667 459.31 5.02 460.164 5.02C460.977 5.02 461.684 5.22 462.284 5.62C462.897 6.02 463.31 6.54667 463.524 7.2H463.304V2C463.304 1.58667 463.41 1.27333 463.624 1.06C463.837 0.846666 464.144 0.739999 464.544 0.739999C464.944 0.739999 465.25 0.846666 465.464 1.06C465.69 1.27333 465.804 1.58667 465.804 2V13.88C465.804 14.2933 465.697 14.6133 465.484 14.84C465.27 15.0533 464.964 15.16 464.564 15.16C464.164 15.16 463.857 15.0533 463.644 14.84C463.43 14.6133 463.324 14.2933 463.324 13.88V12.32L463.544 12.92C463.344 13.6133 462.937 14.1667 462.324 14.58C461.71 14.9933 460.99 15.2 460.164 15.2ZM460.864 13.3C461.357 13.3 461.79 13.18 462.164 12.94C462.537 12.7 462.824 12.3467 463.024 11.88C463.237 11.4 463.344 10.8067 463.344 10.1C463.344 9.03333 463.117 8.24 462.664 7.72C462.21 7.18667 461.61 6.92 460.864 6.92C460.37 6.92 459.937 7.04 459.564 7.28C459.19 7.50667 458.897 7.86 458.684 8.34C458.484 8.80667 458.384 9.39333 458.384 10.1C458.384 11.1533 458.61 11.9533 459.064 12.5C459.517 13.0333 460.117 13.3 460.864 13.3ZM477.405 15.2C476.832 15.2 476.225 15.14 475.585 15.02C474.945 14.9 474.372 14.6933 473.865 14.4C473.652 14.2667 473.499 14.1133 473.405 13.94C473.325 13.7533 473.292 13.5733 473.305 13.4C473.332 13.2133 473.399 13.0533 473.505 12.92C473.625 12.7867 473.772 12.7 473.945 12.66C474.132 12.62 474.332 12.6533 474.545 12.76C475.079 13.0133 475.579 13.1933 476.045 13.3C476.512 13.3933 476.972 13.44 477.425 13.44C478.065 13.44 478.539 13.3333 478.845 13.12C479.165 12.8933 479.325 12.6 479.325 12.24C479.325 11.9333 479.219 11.7 479.005 11.54C478.805 11.3667 478.499 11.24 478.085 11.16L476.085 10.78C475.259 10.62 474.625 10.32 474.185 9.88C473.759 9.42667 473.545 8.84667 473.545 8.14C473.545 7.5 473.719 6.94667 474.065 6.48C474.425 6.01333 474.919 5.65333 475.545 5.4C476.172 5.14667 476.892 5.02 477.705 5.02C478.292 5.02 478.839 5.08667 479.345 5.22C479.865 5.34 480.365 5.53333 480.845 5.8C481.045 5.90667 481.179 6.04667 481.245 6.22C481.325 6.39333 481.345 6.57333 481.305 6.76C481.265 6.93333 481.185 7.09333 481.065 7.24C480.945 7.37333 480.792 7.46 480.605 7.5C480.432 7.52667 480.232 7.48667 480.005 7.38C479.592 7.16667 479.192 7.01333 478.805 6.92C478.432 6.82667 478.072 6.78 477.725 6.78C477.072 6.78 476.585 6.89333 476.265 7.12C475.959 7.34667 475.805 7.64667 475.805 8.02C475.805 8.3 475.899 8.53333 476.085 8.72C476.272 8.90667 476.559 9.03333 476.945 9.1L478.945 9.48C479.812 9.64 480.465 9.93333 480.905 10.36C481.359 10.7867 481.585 11.36 481.585 12.08C481.585 13.0533 481.205 13.82 480.445 14.38C479.685 14.9267 478.672 15.2 477.405 15.2ZM486.931 15.2C485.824 15.2 484.991 14.8867 484.431 14.26C483.871 13.62 483.591 12.6867 483.591 11.46V2C483.591 1.58667 483.698 1.27333 483.911 1.06C484.124 0.846666 484.431 0.739999 484.831 0.739999C485.231 0.739999 485.538 0.846666 485.751 1.06C485.978 1.27333 486.091 1.58667 486.091 2V11.34C486.091 11.9533 486.218 12.4067 486.471 12.7C486.738 12.9933 487.111 13.14 487.591 13.14C487.698 13.14 487.798 13.14 487.891 13.14C487.984 13.1267 488.078 13.1133 488.171 13.1C488.358 13.0733 488.484 13.1267 488.551 13.26C488.618 13.38 488.651 13.6333 488.651 14.02C488.651 14.3533 488.584 14.6133 488.451 14.8C488.318 14.9867 488.098 15.1 487.791 15.14C487.658 15.1533 487.518 15.1667 487.371 15.18C487.224 15.1933 487.078 15.2 486.931 15.2ZM494.34 15.2C493.327 15.2 492.447 14.9933 491.7 14.58C490.953 14.1667 490.373 13.58 489.96 12.82C489.547 12.0467 489.34 11.14 489.34 10.1C489.34 9.31333 489.453 8.61333 489.68 8C489.92 7.37333 490.26 6.84 490.7 6.4C491.14 5.94667 491.667 5.60667 492.28 5.38C492.893 5.14 493.58 5.02 494.34 5.02C495.353 5.02 496.233 5.22667 496.98 5.64C497.727 6.05333 498.307 6.64 498.72 7.4C499.133 8.16 499.34 9.06 499.34 10.1C499.34 10.8867 499.22 11.5933 498.98 12.22C498.753 12.8467 498.42 13.3867 497.98 13.84C497.54 14.28 497.013 14.62 496.4 14.86C495.787 15.0867 495.1 15.2 494.34 15.2ZM494.34 13.3C494.833 13.3 495.267 13.18 495.64 12.94C496.013 12.7 496.3 12.3467 496.5 11.88C496.713 11.4 496.82 10.8067 496.82 10.1C496.82 9.03333 496.593 8.24 496.14 7.72C495.687 7.18667 495.087 6.92 494.34 6.92C493.847 6.92 493.413 7.04 493.04 7.28C492.667 7.50667 492.373 7.86 492.16 8.34C491.96 8.80667 491.86 9.39333 491.86 10.1C491.86 11.1533 492.087 11.9533 492.54 12.5C492.993 13.0333 493.593 13.3 494.34 13.3ZM502.644 18.76C502.244 18.76 501.937 18.6533 501.724 18.44C501.51 18.2267 501.404 17.9133 501.404 17.5V6.32C501.404 5.90667 501.51 5.59333 501.724 5.38C501.937 5.16667 502.237 5.06 502.624 5.06C503.024 5.06 503.33 5.16667 503.544 5.38C503.757 5.59333 503.864 5.90667 503.864 6.32V7.88L503.644 7.28C503.844 6.6 504.25 6.05333 504.864 5.64C505.49 5.22667 506.217 5.02 507.044 5.02C507.897 5.02 508.644 5.22667 509.284 5.64C509.937 6.05333 510.444 6.64 510.804 7.4C511.164 8.14667 511.344 9.04667 511.344 10.1C511.344 11.14 511.164 12.0467 510.804 12.82C510.444 13.58 509.944 14.1667 509.304 14.58C508.664 14.9933 507.91 15.2 507.044 15.2C506.23 15.2 505.517 15 504.904 14.6C504.29 14.1867 503.877 13.6533 503.664 13H503.904V17.5C503.904 17.9133 503.79 18.2267 503.564 18.44C503.35 18.6533 503.044 18.76 502.644 18.76ZM506.344 13.3C506.837 13.3 507.27 13.18 507.644 12.94C508.017 12.7 508.304 12.3467 508.504 11.88C508.717 11.4 508.824 10.8067 508.824 10.1C508.824 9.03333 508.597 8.24 508.144 7.72C507.69 7.18667 507.09 6.92 506.344 6.92C505.85 6.92 505.417 7.04 505.044 7.28C504.67 7.50667 504.377 7.86 504.164 8.34C503.964 8.80667 503.864 9.39333 503.864 10.1C503.864 11.1533 504.09 11.9533 504.544 12.5C504.997 13.0333 505.597 13.3 506.344 13.3ZM518.216 15.2C517.109 15.2 516.156 14.9933 515.356 14.58C514.556 14.1667 513.936 13.58 513.496 12.82C513.069 12.06 512.856 11.16 512.856 10.12C512.856 9.10667 513.062 8.22 513.476 7.46C513.902 6.7 514.482 6.10667 515.216 5.68C515.962 5.24 516.809 5.02 517.756 5.02C518.449 5.02 519.069 5.13333 519.616 5.36C520.176 5.58667 520.649 5.91333 521.036 6.34C521.436 6.76667 521.736 7.28667 521.936 7.9C522.149 8.5 522.256 9.18 522.256 9.94C522.256 10.18 522.169 10.3667 521.996 10.5C521.836 10.62 521.602 10.68 521.296 10.68H514.876V9.24H520.496L520.176 9.54C520.176 8.92667 520.082 8.41333 519.896 8C519.722 7.58667 519.462 7.27333 519.116 7.06C518.782 6.83333 518.362 6.72 517.856 6.72C517.296 6.72 516.816 6.85333 516.416 7.12C516.029 7.37333 515.729 7.74 515.516 8.22C515.316 8.68667 515.216 9.24667 515.216 9.9V10.04C515.216 11.1333 515.469 11.9533 515.976 12.5C516.496 13.0333 517.256 13.3 518.256 13.3C518.602 13.3 518.989 13.26 519.416 13.18C519.856 13.0867 520.269 12.9333 520.656 12.72C520.936 12.56 521.182 12.4933 521.396 12.52C521.609 12.5333 521.776 12.6067 521.896 12.74C522.029 12.8733 522.109 13.04 522.136 13.24C522.162 13.4267 522.122 13.62 522.016 13.82C521.922 14.02 521.756 14.1933 521.516 14.34C521.049 14.6333 520.509 14.8533 519.896 15C519.296 15.1333 518.736 15.2 518.216 15.2ZM525.436 15.1C524.982 15.1 524.616 14.96 524.336 14.68C524.069 14.4 523.936 14.04 523.936 13.6C523.936 13.1733 524.069 12.8267 524.336 12.56C524.616 12.28 524.982 12.14 525.436 12.14C525.902 12.14 526.262 12.28 526.516 12.56C526.782 12.8267 526.916 13.1733 526.916 13.6C526.916 14.04 526.782 14.4 526.516 14.68C526.262 14.96 525.902 15.1 525.436 15.1Z" fill="#444444"/>
</svg>
