<svg width="501" height="19" viewBox="0 0 501 19" fill="none" xmlns="http://www.w3.org/2000/svg">
<path d="M1.86945 15.16C1.54945 15.16 1.28945 15.0867 1.08945 14.94C0.902786 14.7933 0.789453 14.6 0.749453 14.36C0.709453 14.1067 0.75612 13.8267 0.889453 13.52L6.16945 1.82C6.34279 1.43333 6.54945 1.16 6.78945 0.999999C7.04279 0.826666 7.32945 0.739999 7.64945 0.739999C7.95612 0.739999 8.22945 0.826666 8.46945 0.999999C8.72279 1.16 8.93612 1.43333 9.10945 1.82L14.4095 13.52C14.5561 13.8267 14.6095 14.1067 14.5695 14.36C14.5295 14.6133 14.4161 14.8133 14.2295 14.96C14.0428 15.0933 13.7961 15.16 13.4895 15.16C13.1161 15.16 12.8228 15.0733 12.6095 14.9C12.4095 14.7133 12.2295 14.4333 12.0695 14.06L10.7695 11.04L11.8495 11.74H3.40945L4.48945 11.04L3.20945 14.06C3.03612 14.4467 2.85612 14.7267 2.66945 14.9C2.48279 15.0733 2.21612 15.16 1.86945 15.16ZM7.60945 3.68L4.80945 10.34L4.28945 9.7H10.9695L10.4695 10.34L7.64945 3.68H7.60945ZM19.5859 15.16C19.2525 15.16 18.9659 15.08 18.7259 14.92C18.4859 14.7467 18.2925 14.48 18.1459 14.12L15.2459 6.72C15.1259 6.4 15.0859 6.12 15.1259 5.88C15.1792 5.62667 15.3059 5.42667 15.5059 5.28C15.7059 5.13333 15.9725 5.06 16.3059 5.06C16.5992 5.06 16.8392 5.13333 17.0259 5.28C17.2125 5.41333 17.3725 5.67333 17.5059 6.06L19.9259 12.72H19.4659L21.9659 5.9C22.0725 5.60667 22.2125 5.39333 22.3859 5.26C22.5725 5.12667 22.8125 5.06 23.1059 5.06C23.3992 5.06 23.6392 5.13333 23.8259 5.28C24.0125 5.41333 24.1525 5.62 24.2459 5.9L26.7059 12.72H26.2859L28.7259 6C28.8592 5.64 29.0259 5.39333 29.2259 5.26C29.4392 5.12667 29.6725 5.06 29.9259 5.06C30.2459 5.06 30.4925 5.14 30.6659 5.3C30.8392 5.46 30.9392 5.66667 30.9659 5.92C30.9925 6.16 30.9459 6.42667 30.8259 6.72L27.9459 14.12C27.8125 14.4667 27.6192 14.7267 27.3659 14.9C27.1259 15.0733 26.8392 15.16 26.5059 15.16C26.1725 15.16 25.8792 15.0733 25.6259 14.9C25.3859 14.7267 25.1992 14.4667 25.0659 14.12L22.4459 7.18H23.5859L21.0259 14.1C20.8925 14.46 20.7059 14.7267 20.4659 14.9C20.2259 15.0733 19.9325 15.16 19.5859 15.16ZM37.4813 15.2C36.3747 15.2 35.4213 14.9933 34.6213 14.58C33.8213 14.1667 33.2013 13.58 32.7613 12.82C32.3347 12.06 32.1213 11.16 32.1213 10.12C32.1213 9.10667 32.328 8.22 32.7413 7.46C33.168 6.7 33.748 6.10667 34.4813 5.68C35.228 5.24 36.0747 5.02 37.0213 5.02C37.7147 5.02 38.3347 5.13333 38.8813 5.36C39.4413 5.58667 39.9147 5.91333 40.3013 6.34C40.7013 6.76667 41.0013 7.28667 41.2013 7.9C41.4147 8.5 41.5213 9.18 41.5213 9.94C41.5213 10.18 41.4347 10.3667 41.2613 10.5C41.1013 10.62 40.868 10.68 40.5613 10.68H34.1413V9.24H39.7613L39.4413 9.54C39.4413 8.92667 39.348 8.41333 39.1613 8C38.988 7.58667 38.728 7.27333 38.3813 7.06C38.048 6.83333 37.628 6.72 37.1213 6.72C36.5613 6.72 36.0813 6.85333 35.6813 7.12C35.2947 7.37333 34.9947 7.74 34.7813 8.22C34.5813 8.68667 34.4813 9.24667 34.4813 9.9V10.04C34.4813 11.1333 34.7347 11.9533 35.2413 12.5C35.7613 13.0333 36.5213 13.3 37.5213 13.3C37.868 13.3 38.2547 13.26 38.6813 13.18C39.1213 13.0867 39.5347 12.9333 39.9213 12.72C40.2013 12.56 40.448 12.4933 40.6613 12.52C40.8747 12.5333 41.0413 12.6067 41.1613 12.74C41.2947 12.8733 41.3747 13.04 41.4013 13.24C41.428 13.4267 41.388 13.62 41.2813 13.82C41.188 14.02 41.0213 14.1933 40.7813 14.34C40.3147 14.6333 39.7747 14.8533 39.1613 15C38.5613 15.1333 38.0013 15.2 37.4813 15.2ZM47.0812 15.2C46.5078 15.2 45.9012 15.14 45.2612 15.02C44.6212 14.9 44.0478 14.6933 43.5412 14.4C43.3278 14.2667 43.1745 14.1133 43.0812 13.94C43.0012 13.7533 42.9678 13.5733 42.9812 13.4C43.0078 13.2133 43.0745 13.0533 43.1812 12.92C43.3012 12.7867 43.4478 12.7 43.6212 12.66C43.8078 12.62 44.0078 12.6533 44.2212 12.76C44.7545 13.0133 45.2545 13.1933 45.7212 13.3C46.1878 13.3933 46.6478 13.44 47.1012 13.44C47.7412 13.44 48.2145 13.3333 48.5212 13.12C48.8412 12.8933 49.0012 12.6 49.0012 12.24C49.0012 11.9333 48.8945 11.7 48.6812 11.54C48.4812 11.3667 48.1745 11.24 47.7612 11.16L45.7612 10.78C44.9345 10.62 44.3012 10.32 43.8612 9.88C43.4345 9.42667 43.2212 8.84667 43.2212 8.14C43.2212 7.5 43.3945 6.94667 43.7412 6.48C44.1012 6.01333 44.5945 5.65333 45.2212 5.4C45.8478 5.14667 46.5678 5.02 47.3812 5.02C47.9678 5.02 48.5145 5.08667 49.0212 5.22C49.5412 5.34 50.0412 5.53333 50.5212 5.8C50.7212 5.90667 50.8545 6.04667 50.9212 6.22C51.0012 6.39333 51.0212 6.57333 50.9812 6.76C50.9412 6.93333 50.8612 7.09333 50.7412 7.24C50.6212 7.37333 50.4678 7.46 50.2812 7.5C50.1078 7.52667 49.9078 7.48667 49.6812 7.38C49.2678 7.16667 48.8678 7.01333 48.4812 6.92C48.1078 6.82667 47.7478 6.78 47.4012 6.78C46.7478 6.78 46.2612 6.89333 45.9412 7.12C45.6345 7.34667 45.4812 7.64667 45.4812 8.02C45.4812 8.3 45.5745 8.53333 45.7612 8.72C45.9478 8.90667 46.2345 9.03333 46.6212 9.1L48.6212 9.48C49.4878 9.64 50.1412 9.93333 50.5812 10.36C51.0345 10.7867 51.2612 11.36 51.2612 12.08C51.2612 13.0533 50.8812 13.82 50.1212 14.38C49.3612 14.9267 48.3478 15.2 47.0812 15.2ZM57.7268 15.2C56.7135 15.2 55.8335 14.9933 55.0868 14.58C54.3401 14.1667 53.7601 13.58 53.3468 12.82C52.9335 12.0467 52.7268 11.14 52.7268 10.1C52.7268 9.31333 52.8401 8.61333 53.0668 8C53.3068 7.37333 53.6468 6.84 54.0868 6.4C54.5268 5.94667 55.0535 5.60667 55.6668 5.38C56.2801 5.14 56.9668 5.02 57.7268 5.02C58.7401 5.02 59.6201 5.22667 60.3668 5.64C61.1135 6.05333 61.6935 6.64 62.1068 7.4C62.5201 8.16 62.7268 9.06 62.7268 10.1C62.7268 10.8867 62.6068 11.5933 62.3668 12.22C62.1401 12.8467 61.8068 13.3867 61.3668 13.84C60.9268 14.28 60.4001 14.62 59.7868 14.86C59.1735 15.0867 58.4868 15.2 57.7268 15.2ZM57.7268 13.3C58.2201 13.3 58.6535 13.18 59.0268 12.94C59.4001 12.7 59.6868 12.3467 59.8868 11.88C60.1001 11.4 60.2068 10.8067 60.2068 10.1C60.2068 9.03333 59.9801 8.24 59.5268 7.72C59.0735 7.18667 58.4735 6.92 57.7268 6.92C57.2335 6.92 56.8001 7.04 56.4268 7.28C56.0535 7.50667 55.7601 7.86 55.5468 8.34C55.3468 8.80667 55.2468 9.39333 55.2468 10.1C55.2468 11.1533 55.4735 11.9533 55.9268 12.5C56.3801 13.0333 56.9801 13.3 57.7268 13.3ZM66.0702 15.16C65.6702 15.16 65.3636 15.0533 65.1502 14.84C64.9369 14.6133 64.8302 14.2933 64.8302 13.88V6.32C64.8302 5.90667 64.9369 5.59333 65.1502 5.38C65.3636 5.16667 65.6636 5.06 66.0502 5.06C66.4369 5.06 66.7369 5.16667 66.9502 5.38C67.1636 5.59333 67.2702 5.90667 67.2702 6.32V7.78L67.0502 7.18C67.3169 6.51333 67.7302 5.98667 68.2902 5.6C68.8502 5.21333 69.5169 5.02 70.2902 5.02C71.0769 5.02 71.7236 5.20667 72.2302 5.58C72.7369 5.95333 73.0902 6.52667 73.2902 7.3H73.0102C73.2769 6.59333 73.7169 6.04 74.3302 5.64C74.9436 5.22667 75.6502 5.02 76.4502 5.02C77.1969 5.02 77.8102 5.16667 78.2902 5.46C78.7836 5.75333 79.1502 6.2 79.3902 6.8C79.6302 7.38667 79.7502 8.13333 79.7502 9.04V13.88C79.7502 14.2933 79.6369 14.6133 79.4102 14.84C79.1969 15.0533 78.8902 15.16 78.4902 15.16C78.0902 15.16 77.7836 15.0533 77.5702 14.84C77.3569 14.6133 77.2502 14.2933 77.2502 13.88V9.14C77.2502 8.39333 77.1236 7.84667 76.8702 7.5C76.6302 7.15333 76.2169 6.98 75.6302 6.98C74.9769 6.98 74.4636 7.21333 74.0902 7.68C73.7169 8.13333 73.5302 8.76667 73.5302 9.58V13.88C73.5302 14.2933 73.4236 14.6133 73.2102 14.84C72.9969 15.0533 72.6902 15.16 72.2902 15.16C71.8902 15.16 71.5769 15.0533 71.3502 14.84C71.1369 14.6133 71.0302 14.2933 71.0302 13.88V9.14C71.0302 8.39333 70.9036 7.84667 70.6502 7.5C70.4102 7.15333 70.0036 6.98 69.4302 6.98C68.7769 6.98 68.2636 7.21333 67.8902 7.68C67.5169 8.13333 67.3302 8.76667 67.3302 9.58V13.88C67.3302 14.7333 66.9102 15.16 66.0702 15.16ZM87.1493 15.2C86.0426 15.2 85.0893 14.9933 84.2893 14.58C83.4893 14.1667 82.8693 13.58 82.4293 12.82C82.0026 12.06 81.7893 11.16 81.7893 10.12C81.7893 9.10667 81.996 8.22 82.4093 7.46C82.836 6.7 83.416 6.10667 84.1493 5.68C84.896 5.24 85.7426 5.02 86.6893 5.02C87.3826 5.02 88.0026 5.13333 88.5493 5.36C89.1093 5.58667 89.5826 5.91333 89.9693 6.34C90.3693 6.76667 90.6693 7.28667 90.8693 7.9C91.0826 8.5 91.1893 9.18 91.1893 9.94C91.1893 10.18 91.1026 10.3667 90.9293 10.5C90.7693 10.62 90.536 10.68 90.2293 10.68H83.8093V9.24H89.4293L89.1093 9.54C89.1093 8.92667 89.016 8.41333 88.8293 8C88.656 7.58667 88.396 7.27333 88.0493 7.06C87.716 6.83333 87.296 6.72 86.7893 6.72C86.2293 6.72 85.7493 6.85333 85.3493 7.12C84.9626 7.37333 84.6626 7.74 84.4493 8.22C84.2493 8.68667 84.1493 9.24667 84.1493 9.9V10.04C84.1493 11.1333 84.4026 11.9533 84.9093 12.5C85.4293 13.0333 86.1893 13.3 87.1893 13.3C87.536 13.3 87.9226 13.26 88.3493 13.18C88.7893 13.0867 89.2026 12.9333 89.5893 12.72C89.8693 12.56 90.116 12.4933 90.3293 12.52C90.5426 12.5333 90.7093 12.6067 90.8293 12.74C90.9626 12.8733 91.0426 13.04 91.0693 13.24C91.096 13.4267 91.056 13.62 90.9493 13.82C90.856 14.02 90.6893 14.1933 90.4493 14.34C89.9826 14.6333 89.4426 14.8533 88.8293 15C88.2293 15.1333 87.6693 15.2 87.1493 15.2ZM94.3691 10.94C94.1158 10.94 93.9158 10.86 93.7691 10.7C93.6358 10.54 93.5558 10.3133 93.5291 10.02L92.9291 2.38C92.8891 1.88667 92.9958 1.49333 93.2491 1.2C93.5025 0.893332 93.8758 0.739999 94.3691 0.739999C94.8491 0.739999 95.2091 0.893332 95.4491 1.2C95.7025 1.49333 95.8091 1.88667 95.7691 2.38L95.1691 10.02C95.1558 10.3133 95.0758 10.54 94.9291 10.7C94.7958 10.86 94.6091 10.94 94.3691 10.94ZM94.3691 15.1C93.9158 15.1 93.5491 14.96 93.2691 14.68C93.0025 14.4 92.8691 14.04 92.8691 13.6C92.8691 13.1733 93.0025 12.8267 93.2691 12.56C93.5491 12.28 93.9158 12.14 94.3691 12.14C94.8358 12.14 95.1958 12.28 95.4491 12.56C95.7158 12.8267 95.8491 13.1733 95.8491 13.6C95.8491 14.04 95.7158 14.4 95.4491 14.68C95.1958 14.96 94.8358 15.1 94.3691 15.1ZM108.44 15.16C108.026 15.16 107.706 15.0467 107.48 14.82C107.266 14.58 107.16 14.2467 107.16 13.82V7.74L107.7 9.28L102.88 2.5C102.706 2.26 102.626 2.00667 102.64 1.74C102.666 1.46 102.78 1.22667 102.98 1.04C103.18 0.839999 103.46 0.739999 103.82 0.739999C104.086 0.739999 104.326 0.806666 104.54 0.94C104.766 1.07333 104.98 1.28 105.18 1.56L108.76 6.64H108.2L111.8 1.56C112.013 1.26667 112.22 1.06 112.42 0.94C112.62 0.806666 112.866 0.739999 113.16 0.739999C113.506 0.739999 113.773 0.833332 113.96 1.02C114.16 1.19333 114.26 1.41333 114.26 1.68C114.273 1.94667 114.18 2.22667 113.98 2.52L109.2 9.28L109.72 7.74V13.82C109.72 14.7133 109.293 15.16 108.44 15.16ZM118.723 15.2C117.71 15.2 116.83 14.9933 116.083 14.58C115.336 14.1667 114.756 13.58 114.343 12.82C113.93 12.0467 113.723 11.14 113.723 10.1C113.723 9.31333 113.836 8.61333 114.063 8C114.303 7.37333 114.643 6.84 115.083 6.4C115.523 5.94667 116.05 5.60667 116.663 5.38C117.276 5.14 117.963 5.02 118.723 5.02C119.736 5.02 120.616 5.22667 121.363 5.64C122.11 6.05333 122.69 6.64 123.103 7.4C123.516 8.16 123.723 9.06 123.723 10.1C123.723 10.8867 123.603 11.5933 123.363 12.22C123.136 12.8467 122.803 13.3867 122.363 13.84C121.923 14.28 121.396 14.62 120.783 14.86C120.17 15.0867 119.483 15.2 118.723 15.2ZM118.723 13.3C119.216 13.3 119.65 13.18 120.023 12.94C120.396 12.7 120.683 12.3467 120.883 11.88C121.096 11.4 121.203 10.8067 121.203 10.1C121.203 9.03333 120.976 8.24 120.523 7.72C120.07 7.18667 119.47 6.92 118.723 6.92C118.23 6.92 117.796 7.04 117.423 7.28C117.05 7.50667 116.756 7.86 116.543 8.34C116.343 8.80667 116.243 9.39333 116.243 10.1C116.243 11.1533 116.47 11.9533 116.923 12.5C117.376 13.0333 117.976 13.3 118.723 13.3ZM129.326 15.2C128.513 15.2 127.84 15.0533 127.306 14.76C126.773 14.4533 126.373 14 126.106 13.4C125.853 12.8 125.726 12.0533 125.726 11.16V6.32C125.726 5.89333 125.833 5.58 126.046 5.38C126.26 5.16667 126.566 5.06 126.966 5.06C127.366 5.06 127.673 5.16667 127.886 5.38C128.113 5.58 128.226 5.89333 128.226 6.32V11.2C128.226 11.8933 128.366 12.4067 128.646 12.74C128.926 13.0733 129.373 13.24 129.986 13.24C130.653 13.24 131.2 13.0133 131.626 12.56C132.053 12.0933 132.266 11.48 132.266 10.72V6.32C132.266 5.89333 132.373 5.58 132.586 5.38C132.8 5.16667 133.106 5.06 133.506 5.06C133.906 5.06 134.213 5.16667 134.426 5.38C134.653 5.58 134.766 5.89333 134.766 6.32V13.88C134.766 14.7333 134.36 15.16 133.546 15.16C133.16 15.16 132.86 15.0533 132.646 14.84C132.433 14.6133 132.326 14.2933 132.326 13.88V12.36L132.606 12.96C132.326 13.68 131.9 14.2333 131.326 14.62C130.766 15.0067 130.1 15.2 129.326 15.2ZM144.038 15.16C143.638 15.16 143.331 15.0533 143.118 14.84C142.905 14.6133 142.798 14.2933 142.798 13.88V2C142.798 1.58667 142.905 1.27333 143.118 1.06C143.331 0.846666 143.638 0.739999 144.038 0.739999C144.438 0.739999 144.745 0.846666 144.958 1.06C145.185 1.27333 145.298 1.58667 145.298 2V7.18H145.018C145.311 6.47333 145.765 5.94 146.378 5.58C147.005 5.20667 147.711 5.02 148.498 5.02C149.285 5.02 149.931 5.16667 150.438 5.46C150.945 5.75333 151.325 6.2 151.578 6.8C151.831 7.38667 151.958 8.13333 151.958 9.04V13.88C151.958 14.2933 151.851 14.6133 151.638 14.84C151.425 15.0533 151.118 15.16 150.718 15.16C150.318 15.16 150.005 15.0533 149.778 14.84C149.565 14.6133 149.458 14.2933 149.458 13.88V9.16C149.458 8.4 149.311 7.84667 149.018 7.5C148.738 7.15333 148.298 6.98 147.698 6.98C146.965 6.98 146.378 7.21333 145.938 7.68C145.511 8.13333 145.298 8.74 145.298 9.5V13.88C145.298 14.7333 144.878 15.16 144.038 15.16ZM157.717 15.2C157.011 15.2 156.377 15.0667 155.817 14.8C155.271 14.52 154.837 14.1467 154.517 13.68C154.211 13.2133 154.057 12.6867 154.057 12.1C154.057 11.38 154.244 10.8133 154.617 10.4C154.991 9.97333 155.597 9.66667 156.437 9.48C157.277 9.29333 158.404 9.2 159.817 9.2H160.817V10.64H159.837C159.011 10.64 158.351 10.68 157.857 10.76C157.364 10.84 157.011 10.98 156.797 11.18C156.597 11.3667 156.497 11.6333 156.497 11.98C156.497 12.42 156.651 12.78 156.957 13.06C157.264 13.34 157.691 13.48 158.237 13.48C158.677 13.48 159.064 13.38 159.397 13.18C159.744 12.9667 160.017 12.68 160.217 12.32C160.417 11.96 160.517 11.5467 160.517 11.08V8.78C160.517 8.11333 160.371 7.63333 160.077 7.34C159.784 7.04667 159.291 6.9 158.597 6.9C158.211 6.9 157.791 6.94667 157.337 7.04C156.897 7.13333 156.431 7.29333 155.937 7.52C155.684 7.64 155.457 7.67333 155.257 7.62C155.071 7.56667 154.924 7.46 154.817 7.3C154.711 7.12667 154.657 6.94 154.657 6.74C154.657 6.54 154.711 6.34667 154.817 6.16C154.924 5.96 155.104 5.81333 155.357 5.72C155.971 5.46667 156.557 5.28667 157.117 5.18C157.691 5.07333 158.211 5.02 158.677 5.02C159.637 5.02 160.424 5.16667 161.037 5.46C161.664 5.75333 162.131 6.2 162.437 6.8C162.744 7.38667 162.897 8.14667 162.897 9.08V13.88C162.897 14.2933 162.797 14.6133 162.597 14.84C162.397 15.0533 162.111 15.16 161.737 15.16C161.364 15.16 161.071 15.0533 160.857 14.84C160.657 14.6133 160.557 14.2933 160.557 13.88V12.92H160.717C160.624 13.3867 160.437 13.7933 160.157 14.14C159.891 14.4733 159.551 14.7333 159.137 14.92C158.724 15.1067 158.251 15.2 157.717 15.2ZM169.297 15.16C168.964 15.16 168.67 15.0733 168.417 14.9C168.177 14.7267 167.977 14.46 167.817 14.1L164.637 6.72C164.517 6.42667 164.47 6.15333 164.497 5.9C164.537 5.64667 164.657 5.44667 164.857 5.3C165.07 5.14 165.357 5.06 165.717 5.06C166.024 5.06 166.27 5.13333 166.457 5.28C166.644 5.41333 166.81 5.67333 166.957 6.06L169.657 12.8H169.057L171.837 6.04C171.984 5.66667 172.15 5.41333 172.337 5.28C172.537 5.13333 172.804 5.06 173.137 5.06C173.43 5.06 173.664 5.14 173.837 5.3C174.01 5.44667 174.117 5.64667 174.157 5.9C174.197 6.14 174.15 6.40667 174.017 6.7L170.777 14.1C170.63 14.46 170.43 14.7267 170.177 14.9C169.937 15.0733 169.644 15.16 169.297 15.16ZM180.509 15.2C179.402 15.2 178.449 14.9933 177.649 14.58C176.849 14.1667 176.229 13.58 175.789 12.82C175.362 12.06 175.149 11.16 175.149 10.12C175.149 9.10667 175.355 8.22 175.769 7.46C176.195 6.7 176.775 6.10667 177.509 5.68C178.255 5.24 179.102 5.02 180.049 5.02C180.742 5.02 181.362 5.13333 181.909 5.36C182.469 5.58667 182.942 5.91333 183.329 6.34C183.729 6.76667 184.029 7.28667 184.229 7.9C184.442 8.5 184.549 9.18 184.549 9.94C184.549 10.18 184.462 10.3667 184.289 10.5C184.129 10.62 183.895 10.68 183.589 10.68H177.169V9.24H182.789L182.469 9.54C182.469 8.92667 182.375 8.41333 182.189 8C182.015 7.58667 181.755 7.27333 181.409 7.06C181.075 6.83333 180.655 6.72 180.149 6.72C179.589 6.72 179.109 6.85333 178.709 7.12C178.322 7.37333 178.022 7.74 177.809 8.22C177.609 8.68667 177.509 9.24667 177.509 9.9V10.04C177.509 11.1333 177.762 11.9533 178.269 12.5C178.789 13.0333 179.549 13.3 180.549 13.3C180.895 13.3 181.282 13.26 181.709 13.18C182.149 13.0867 182.562 12.9333 182.949 12.72C183.229 12.56 183.475 12.4933 183.689 12.52C183.902 12.5333 184.069 12.6067 184.189 12.74C184.322 12.8733 184.402 13.04 184.429 13.24C184.455 13.4267 184.415 13.62 184.309 13.82C184.215 14.02 184.049 14.1933 183.809 14.34C183.342 14.6333 182.802 14.8533 182.189 15C181.589 15.1333 181.029 15.2 180.509 15.2ZM196.478 15.2C195.452 15.2 194.558 14.9933 193.798 14.58C193.038 14.1533 192.452 13.5533 192.038 12.78C191.625 12.0067 191.418 11.1 191.418 10.06C191.418 9.27333 191.532 8.57333 191.758 7.96C191.998 7.33333 192.338 6.80667 192.778 6.38C193.218 5.94 193.752 5.60667 194.378 5.38C195.005 5.14 195.705 5.02 196.478 5.02C196.918 5.02 197.392 5.08 197.898 5.2C198.418 5.32 198.905 5.52 199.358 5.8C199.572 5.93333 199.712 6.09333 199.778 6.28C199.845 6.46667 199.858 6.66 199.818 6.86C199.778 7.04667 199.692 7.21333 199.558 7.36C199.438 7.49333 199.285 7.58 199.098 7.62C198.912 7.64667 198.705 7.6 198.478 7.48C198.185 7.30667 197.885 7.18 197.578 7.1C197.272 7.00667 196.978 6.96 196.698 6.96C196.258 6.96 195.872 7.03333 195.538 7.18C195.205 7.31333 194.918 7.51333 194.678 7.78C194.452 8.03333 194.278 8.35333 194.158 8.74C194.038 9.12667 193.978 9.57333 193.978 10.08C193.978 11.0667 194.212 11.8467 194.678 12.42C195.158 12.98 195.832 13.26 196.698 13.26C196.978 13.26 197.265 13.22 197.558 13.14C197.865 13.06 198.172 12.9333 198.478 12.76C198.705 12.64 198.905 12.6 199.078 12.64C199.265 12.68 199.418 12.7733 199.538 12.92C199.658 13.0533 199.732 13.22 199.758 13.42C199.785 13.6067 199.758 13.7933 199.678 13.98C199.612 14.1667 199.478 14.32 199.278 14.44C198.838 14.7067 198.372 14.9 197.878 15.02C197.385 15.14 196.918 15.2 196.478 15.2ZM202.672 15.16C202.258 15.16 201.938 15.0533 201.712 14.84C201.498 14.6133 201.392 14.2933 201.392 13.88V6.32C201.392 5.90667 201.498 5.59333 201.712 5.38C201.925 5.16667 202.225 5.06 202.612 5.06C202.998 5.06 203.298 5.16667 203.512 5.38C203.725 5.59333 203.832 5.90667 203.832 6.32V7.58H203.632C203.818 6.78 204.185 6.17333 204.732 5.76C205.278 5.34667 206.005 5.1 206.912 5.02C207.192 4.99333 207.412 5.06667 207.572 5.24C207.745 5.4 207.845 5.65333 207.872 6C207.898 6.33333 207.818 6.60667 207.632 6.82C207.458 7.02 207.192 7.14 206.832 7.18L206.392 7.22C205.578 7.3 204.965 7.55333 204.552 7.98C204.138 8.39333 203.932 8.98 203.932 9.74V13.88C203.932 14.2933 203.825 14.6133 203.612 14.84C203.398 15.0533 203.085 15.16 202.672 15.16ZM213.888 15.2C212.781 15.2 211.828 14.9933 211.028 14.58C210.228 14.1667 209.608 13.58 209.168 12.82C208.741 12.06 208.528 11.16 208.528 10.12C208.528 9.10667 208.734 8.22 209.148 7.46C209.574 6.7 210.154 6.10667 210.888 5.68C211.634 5.24 212.481 5.02 213.428 5.02C214.121 5.02 214.741 5.13333 215.288 5.36C215.848 5.58667 216.321 5.91333 216.708 6.34C217.108 6.76667 217.408 7.28667 217.608 7.9C217.821 8.5 217.928 9.18 217.928 9.94C217.928 10.18 217.841 10.3667 217.668 10.5C217.508 10.62 217.274 10.68 216.968 10.68H210.548V9.24H216.168L215.848 9.54C215.848 8.92667 215.754 8.41333 215.568 8C215.394 7.58667 215.134 7.27333 214.788 7.06C214.454 6.83333 214.034 6.72 213.528 6.72C212.968 6.72 212.488 6.85333 212.088 7.12C211.701 7.37333 211.401 7.74 211.188 8.22C210.988 8.68667 210.888 9.24667 210.888 9.9V10.04C210.888 11.1333 211.141 11.9533 211.648 12.5C212.168 13.0333 212.928 13.3 213.928 13.3C214.274 13.3 214.661 13.26 215.088 13.18C215.528 13.0867 215.941 12.9333 216.328 12.72C216.608 12.56 216.854 12.4933 217.068 12.52C217.281 12.5333 217.448 12.6067 217.568 12.74C217.701 12.8733 217.781 13.04 217.808 13.24C217.834 13.4267 217.794 13.62 217.688 13.82C217.594 14.02 217.428 14.1933 217.188 14.34C216.721 14.6333 216.181 14.8533 215.568 15C214.968 15.1333 214.408 15.2 213.888 15.2ZM223.127 15.2C222.421 15.2 221.787 15.0667 221.227 14.8C220.681 14.52 220.247 14.1467 219.927 13.68C219.621 13.2133 219.467 12.6867 219.467 12.1C219.467 11.38 219.654 10.8133 220.027 10.4C220.401 9.97333 221.007 9.66667 221.847 9.48C222.687 9.29333 223.814 9.2 225.227 9.2H226.227V10.64H225.247C224.421 10.64 223.761 10.68 223.267 10.76C222.774 10.84 222.421 10.98 222.207 11.18C222.007 11.3667 221.907 11.6333 221.907 11.98C221.907 12.42 222.061 12.78 222.367 13.06C222.674 13.34 223.101 13.48 223.647 13.48C224.087 13.48 224.474 13.38 224.807 13.18C225.154 12.9667 225.427 12.68 225.627 12.32C225.827 11.96 225.927 11.5467 225.927 11.08V8.78C225.927 8.11333 225.781 7.63333 225.487 7.34C225.194 7.04667 224.701 6.9 224.007 6.9C223.621 6.9 223.201 6.94667 222.747 7.04C222.307 7.13333 221.841 7.29333 221.347 7.52C221.094 7.64 220.867 7.67333 220.667 7.62C220.481 7.56667 220.334 7.46 220.227 7.3C220.121 7.12667 220.067 6.94 220.067 6.74C220.067 6.54 220.121 6.34667 220.227 6.16C220.334 5.96 220.514 5.81333 220.767 5.72C221.381 5.46667 221.967 5.28667 222.527 5.18C223.101 5.07333 223.621 5.02 224.087 5.02C225.047 5.02 225.834 5.16667 226.447 5.46C227.074 5.75333 227.541 6.2 227.847 6.8C228.154 7.38667 228.307 8.14667 228.307 9.08V13.88C228.307 14.2933 228.207 14.6133 228.007 14.84C227.807 15.0533 227.521 15.16 227.147 15.16C226.774 15.16 226.481 15.0533 226.267 14.84C226.067 14.6133 225.967 14.2933 225.967 13.88V12.92H226.127C226.034 13.3867 225.847 13.7933 225.567 14.14C225.301 14.4733 224.961 14.7333 224.547 14.92C224.134 15.1067 223.661 15.2 223.127 15.2ZM235.325 15.2C234.458 15.2 233.732 15.0533 233.145 14.76C232.572 14.4667 232.145 14.04 231.865 13.48C231.585 12.9067 231.445 12.2 231.445 11.36V7.1H230.405C230.085 7.1 229.838 7.02 229.665 6.86C229.492 6.68667 229.405 6.45333 229.405 6.16C229.405 5.85333 229.492 5.62 229.665 5.46C229.838 5.3 230.085 5.22 230.405 5.22H231.445V3.4C231.445 2.98667 231.552 2.67333 231.765 2.46C231.992 2.24667 232.305 2.14 232.705 2.14C233.105 2.14 233.412 2.24667 233.625 2.46C233.838 2.67333 233.945 2.98667 233.945 3.4V5.22H236.065C236.385 5.22 236.632 5.3 236.805 5.46C236.978 5.62 237.065 5.85333 237.065 6.16C237.065 6.45333 236.978 6.68667 236.805 6.86C236.632 7.02 236.385 7.1 236.065 7.1H233.945V11.22C233.945 11.86 234.085 12.34 234.365 12.66C234.645 12.98 235.098 13.14 235.725 13.14C235.952 13.14 236.152 13.12 236.325 13.08C236.498 13.04 236.652 13.0133 236.785 13C236.945 12.9867 237.078 13.04 237.185 13.16C237.292 13.2667 237.345 13.4933 237.345 13.84C237.345 14.1067 237.298 14.3467 237.205 14.56C237.125 14.76 236.972 14.9 236.745 14.98C236.572 15.0333 236.345 15.08 236.065 15.12C235.785 15.1733 235.538 15.2 235.325 15.2ZM243.243 15.2C242.136 15.2 241.183 14.9933 240.383 14.58C239.583 14.1667 238.963 13.58 238.523 12.82C238.096 12.06 237.883 11.16 237.883 10.12C237.883 9.10667 238.09 8.22 238.503 7.46C238.93 6.7 239.51 6.10667 240.243 5.68C240.99 5.24 241.836 5.02 242.783 5.02C243.476 5.02 244.096 5.13333 244.643 5.36C245.203 5.58667 245.676 5.91333 246.063 6.34C246.463 6.76667 246.763 7.28667 246.963 7.9C247.176 8.5 247.283 9.18 247.283 9.94C247.283 10.18 247.196 10.3667 247.023 10.5C246.863 10.62 246.63 10.68 246.323 10.68H239.903V9.24H245.523L245.203 9.54C245.203 8.92667 245.11 8.41333 244.923 8C244.75 7.58667 244.49 7.27333 244.143 7.06C243.81 6.83333 243.39 6.72 242.883 6.72C242.323 6.72 241.843 6.85333 241.443 7.12C241.056 7.37333 240.756 7.74 240.543 8.22C240.343 8.68667 240.243 9.24667 240.243 9.9V10.04C240.243 11.1333 240.496 11.9533 241.003 12.5C241.523 13.0333 242.283 13.3 243.283 13.3C243.63 13.3 244.016 13.26 244.443 13.18C244.883 13.0867 245.296 12.9333 245.683 12.72C245.963 12.56 246.21 12.4933 246.423 12.52C246.636 12.5333 246.803 12.6067 246.923 12.74C247.056 12.8733 247.136 13.04 247.163 13.24C247.19 13.4267 247.15 13.62 247.043 13.82C246.95 14.02 246.783 14.1933 246.543 14.34C246.076 14.6333 245.536 14.8533 244.923 15C244.323 15.1333 243.763 15.2 243.243 15.2ZM253.023 15.2C252.17 15.2 251.416 14.9933 250.763 14.58C250.123 14.1667 249.623 13.58 249.263 12.82C248.903 12.0467 248.723 11.14 248.723 10.1C248.723 9.04667 248.903 8.14667 249.263 7.4C249.623 6.64 250.123 6.05333 250.763 5.64C251.416 5.22667 252.17 5.02 253.023 5.02C253.836 5.02 254.543 5.22 255.143 5.62C255.756 6.02 256.17 6.54667 256.383 7.2H256.163V2C256.163 1.58667 256.27 1.27333 256.483 1.06C256.696 0.846666 257.003 0.739999 257.403 0.739999C257.803 0.739999 258.11 0.846666 258.323 1.06C258.55 1.27333 258.663 1.58667 258.663 2V13.88C258.663 14.2933 258.556 14.6133 258.343 14.84C258.13 15.0533 257.823 15.16 257.423 15.16C257.023 15.16 256.716 15.0533 256.503 14.84C256.29 14.6133 256.183 14.2933 256.183 13.88V12.32L256.403 12.92C256.203 13.6133 255.796 14.1667 255.183 14.58C254.57 14.9933 253.85 15.2 253.023 15.2ZM253.723 13.3C254.216 13.3 254.65 13.18 255.023 12.94C255.396 12.7 255.683 12.3467 255.883 11.88C256.096 11.4 256.203 10.8067 256.203 10.1C256.203 9.03333 255.976 8.24 255.523 7.72C255.07 7.18667 254.47 6.92 253.723 6.92C253.23 6.92 252.796 7.04 252.423 7.28C252.05 7.50667 251.756 7.86 251.543 8.34C251.343 8.80667 251.243 9.39333 251.243 10.1C251.243 11.1533 251.47 11.9533 251.923 12.5C252.376 13.0333 252.976 13.3 253.723 13.3ZM269.905 15.2C269.198 15.2 268.565 15.0667 268.005 14.8C267.458 14.52 267.025 14.1467 266.705 13.68C266.398 13.2133 266.245 12.6867 266.245 12.1C266.245 11.38 266.431 10.8133 266.805 10.4C267.178 9.97333 267.785 9.66667 268.625 9.48C269.465 9.29333 270.591 9.2 272.005 9.2H273.005V10.64H272.025C271.198 10.64 270.538 10.68 270.045 10.76C269.551 10.84 269.198 10.98 268.985 11.18C268.785 11.3667 268.685 11.6333 268.685 11.98C268.685 12.42 268.838 12.78 269.145 13.06C269.451 13.34 269.878 13.48 270.425 13.48C270.865 13.48 271.251 13.38 271.585 13.18C271.931 12.9667 272.205 12.68 272.405 12.32C272.605 11.96 272.705 11.5467 272.705 11.08V8.78C272.705 8.11333 272.558 7.63333 272.265 7.34C271.971 7.04667 271.478 6.9 270.785 6.9C270.398 6.9 269.978 6.94667 269.525 7.04C269.085 7.13333 268.618 7.29333 268.125 7.52C267.871 7.64 267.645 7.67333 267.445 7.62C267.258 7.56667 267.111 7.46 267.005 7.3C266.898 7.12667 266.845 6.94 266.845 6.74C266.845 6.54 266.898 6.34667 267.005 6.16C267.111 5.96 267.291 5.81333 267.545 5.72C268.158 5.46667 268.745 5.28667 269.305 5.18C269.878 5.07333 270.398 5.02 270.865 5.02C271.825 5.02 272.611 5.16667 273.225 5.46C273.851 5.75333 274.318 6.2 274.625 6.8C274.931 7.38667 275.085 8.14667 275.085 9.08V13.88C275.085 14.2933 274.985 14.6133 274.785 14.84C274.585 15.0533 274.298 15.16 273.925 15.16C273.551 15.16 273.258 15.0533 273.045 14.84C272.845 14.6133 272.745 14.2933 272.745 13.88V12.92H272.905C272.811 13.3867 272.625 13.7933 272.345 14.14C272.078 14.4733 271.738 14.7333 271.325 14.92C270.911 15.1067 270.438 15.2 269.905 15.2ZM286.392 15.2C285.285 15.2 284.452 14.8867 283.892 14.26C283.332 13.62 283.052 12.6867 283.052 11.46V2C283.052 1.58667 283.159 1.27333 283.372 1.06C283.585 0.846666 283.892 0.739999 284.292 0.739999C284.692 0.739999 284.999 0.846666 285.212 1.06C285.439 1.27333 285.552 1.58667 285.552 2V11.34C285.552 11.9533 285.679 12.4067 285.932 12.7C286.199 12.9933 286.572 13.14 287.052 13.14C287.159 13.14 287.259 13.14 287.352 13.14C287.445 13.1267 287.539 13.1133 287.632 13.1C287.819 13.0733 287.945 13.1267 288.012 13.26C288.079 13.38 288.112 13.6333 288.112 14.02C288.112 14.3533 288.045 14.6133 287.912 14.8C287.779 14.9867 287.559 15.1 287.252 15.14C287.119 15.1533 286.979 15.1667 286.832 15.18C286.685 15.1933 286.539 15.2 286.392 15.2ZM290.679 15.14C290.279 15.14 289.972 15.02 289.759 14.78C289.545 14.54 289.439 14.2067 289.439 13.78V6.44C289.439 6 289.545 5.66667 289.759 5.44C289.972 5.2 290.279 5.08 290.679 5.08C291.079 5.08 291.385 5.2 291.599 5.44C291.825 5.66667 291.939 6 291.939 6.44V13.78C291.939 14.2067 291.832 14.54 291.619 14.78C291.405 15.02 291.092 15.14 290.679 15.14ZM290.679 3.22C290.212 3.22 289.845 3.10667 289.579 2.88C289.325 2.64 289.199 2.31333 289.199 1.9C289.199 1.47333 289.325 1.14667 289.579 0.919999C289.845 0.693333 290.212 0.58 290.679 0.58C291.159 0.58 291.525 0.693333 291.779 0.919999C292.032 1.14667 292.159 1.47333 292.159 1.9C292.159 2.31333 292.032 2.64 291.779 2.88C291.525 3.10667 291.159 3.22 290.679 3.22ZM295.776 15.16C295.376 15.16 295.07 15.0533 294.856 14.84C294.643 14.6133 294.536 14.2933 294.536 13.88V6.32C294.536 5.90667 294.643 5.59333 294.856 5.38C295.07 5.16667 295.37 5.06 295.756 5.06C296.143 5.06 296.443 5.16667 296.656 5.38C296.87 5.59333 296.976 5.90667 296.976 6.32V7.68L296.756 7.18C297.05 6.47333 297.503 5.94 298.116 5.58C298.743 5.20667 299.45 5.02 300.236 5.02C301.023 5.02 301.67 5.16667 302.176 5.46C302.683 5.75333 303.063 6.2 303.316 6.8C303.57 7.38667 303.696 8.13333 303.696 9.04V13.88C303.696 14.2933 303.59 14.6133 303.376 14.84C303.163 15.0533 302.856 15.16 302.456 15.16C302.056 15.16 301.743 15.0533 301.516 14.84C301.303 14.6133 301.196 14.2933 301.196 13.88V9.16C301.196 8.4 301.05 7.84667 300.756 7.5C300.476 7.15333 300.036 6.98 299.436 6.98C298.703 6.98 298.116 7.21333 297.676 7.68C297.25 8.13333 297.036 8.74 297.036 9.5V13.88C297.036 14.7333 296.616 15.16 295.776 15.16ZM311.056 15.2C309.949 15.2 308.996 14.9933 308.196 14.58C307.396 14.1667 306.776 13.58 306.336 12.82C305.909 12.06 305.696 11.16 305.696 10.12C305.696 9.10667 305.902 8.22 306.316 7.46C306.742 6.7 307.322 6.10667 308.056 5.68C308.802 5.24 309.649 5.02 310.596 5.02C311.289 5.02 311.909 5.13333 312.456 5.36C313.016 5.58667 313.489 5.91333 313.876 6.34C314.276 6.76667 314.576 7.28667 314.776 7.9C314.989 8.5 315.096 9.18 315.096 9.94C315.096 10.18 315.009 10.3667 314.836 10.5C314.676 10.62 314.442 10.68 314.136 10.68H307.716V9.24H313.336L313.016 9.54C313.016 8.92667 312.922 8.41333 312.736 8C312.562 7.58667 312.302 7.27333 311.956 7.06C311.622 6.83333 311.202 6.72 310.696 6.72C310.136 6.72 309.656 6.85333 309.256 7.12C308.869 7.37333 308.569 7.74 308.356 8.22C308.156 8.68667 308.056 9.24667 308.056 9.9V10.04C308.056 11.1333 308.309 11.9533 308.816 12.5C309.336 13.0333 310.096 13.3 311.096 13.3C311.442 13.3 311.829 13.26 312.256 13.18C312.696 13.0867 313.109 12.9333 313.496 12.72C313.776 12.56 314.022 12.4933 314.236 12.52C314.449 12.5333 314.616 12.6067 314.736 12.74C314.869 12.8733 314.949 13.04 314.976 13.24C315.002 13.4267 314.962 13.62 314.856 13.82C314.762 14.02 314.596 14.1933 314.356 14.34C313.889 14.6333 313.349 14.8533 312.736 15C312.136 15.1333 311.576 15.2 311.056 15.2ZM326.285 15.16C325.952 15.16 325.665 15.08 325.425 14.92C325.185 14.7467 324.992 14.48 324.845 14.12L321.945 6.72C321.825 6.4 321.785 6.12 321.825 5.88C321.878 5.62667 322.005 5.42667 322.205 5.28C322.405 5.13333 322.672 5.06 323.005 5.06C323.298 5.06 323.538 5.13333 323.725 5.28C323.912 5.41333 324.072 5.67333 324.205 6.06L326.625 12.72H326.165L328.665 5.9C328.772 5.60667 328.912 5.39333 329.085 5.26C329.272 5.12667 329.512 5.06 329.805 5.06C330.098 5.06 330.338 5.13333 330.525 5.28C330.712 5.41333 330.852 5.62 330.945 5.9L333.405 12.72H332.985L335.425 6C335.558 5.64 335.725 5.39333 335.925 5.26C336.138 5.12667 336.372 5.06 336.625 5.06C336.945 5.06 337.192 5.14 337.365 5.3C337.538 5.46 337.638 5.66667 337.665 5.92C337.692 6.16 337.645 6.42667 337.525 6.72L334.645 14.12C334.512 14.4667 334.318 14.7267 334.065 14.9C333.825 15.0733 333.538 15.16 333.205 15.16C332.872 15.16 332.578 15.0733 332.325 14.9C332.085 14.7267 331.898 14.4667 331.765 14.12L329.145 7.18H330.285L327.725 14.1C327.592 14.46 327.405 14.7267 327.165 14.9C326.925 15.0733 326.632 15.16 326.285 15.16ZM340.796 15.14C340.396 15.14 340.089 15.02 339.876 14.78C339.663 14.54 339.556 14.2067 339.556 13.78V6.44C339.556 6 339.663 5.66667 339.876 5.44C340.089 5.2 340.396 5.08 340.796 5.08C341.196 5.08 341.503 5.2 341.716 5.44C341.943 5.66667 342.056 6 342.056 6.44V13.78C342.056 14.2067 341.949 14.54 341.736 14.78C341.523 15.02 341.209 15.14 340.796 15.14ZM340.796 3.22C340.329 3.22 339.963 3.10667 339.696 2.88C339.443 2.64 339.316 2.31333 339.316 1.9C339.316 1.47333 339.443 1.14667 339.696 0.919999C339.963 0.693333 340.329 0.58 340.796 0.58C341.276 0.58 341.643 0.693333 341.896 0.919999C342.149 1.14667 342.276 1.47333 342.276 1.9C342.276 2.31333 342.149 2.64 341.896 2.88C341.643 3.10667 341.276 3.22 340.796 3.22ZM349.134 15.2C348.267 15.2 347.54 15.0533 346.954 14.76C346.38 14.4667 345.954 14.04 345.674 13.48C345.394 12.9067 345.254 12.2 345.254 11.36V7.1H344.214C343.894 7.1 343.647 7.02 343.474 6.86C343.3 6.68667 343.214 6.45333 343.214 6.16C343.214 5.85333 343.3 5.62 343.474 5.46C343.647 5.3 343.894 5.22 344.214 5.22H345.254V3.4C345.254 2.98667 345.36 2.67333 345.574 2.46C345.8 2.24667 346.114 2.14 346.514 2.14C346.914 2.14 347.22 2.24667 347.434 2.46C347.647 2.67333 347.754 2.98667 347.754 3.4V5.22H349.874C350.194 5.22 350.44 5.3 350.614 5.46C350.787 5.62 350.874 5.85333 350.874 6.16C350.874 6.45333 350.787 6.68667 350.614 6.86C350.44 7.02 350.194 7.1 349.874 7.1H347.754V11.22C347.754 11.86 347.894 12.34 348.174 12.66C348.454 12.98 348.907 13.14 349.534 13.14C349.76 13.14 349.96 13.12 350.134 13.08C350.307 13.04 350.46 13.0133 350.594 13C350.754 12.9867 350.887 13.04 350.994 13.16C351.1 13.2667 351.154 13.4933 351.154 13.84C351.154 14.1067 351.107 14.3467 351.014 14.56C350.934 14.76 350.78 14.9 350.554 14.98C350.38 15.0333 350.154 15.08 349.874 15.12C349.594 15.1733 349.347 15.2 349.134 15.2ZM353.823 15.16C353.423 15.16 353.117 15.0533 352.903 14.84C352.69 14.6133 352.583 14.2933 352.583 13.88V2C352.583 1.58667 352.69 1.27333 352.903 1.06C353.117 0.846666 353.423 0.739999 353.823 0.739999C354.223 0.739999 354.53 0.846666 354.743 1.06C354.97 1.27333 355.083 1.58667 355.083 2V7.18H354.803C355.097 6.47333 355.55 5.94 356.163 5.58C356.79 5.20667 357.497 5.02 358.283 5.02C359.07 5.02 359.717 5.16667 360.223 5.46C360.73 5.75333 361.11 6.2 361.363 6.8C361.617 7.38667 361.743 8.13333 361.743 9.04V13.88C361.743 14.2933 361.637 14.6133 361.423 14.84C361.21 15.0533 360.903 15.16 360.503 15.16C360.103 15.16 359.79 15.0533 359.563 14.84C359.35 14.6133 359.243 14.2933 359.243 13.88V9.16C359.243 8.4 359.097 7.84667 358.803 7.5C358.523 7.15333 358.083 6.98 357.483 6.98C356.75 6.98 356.163 7.21333 355.723 7.68C355.297 8.13333 355.083 8.74 355.083 9.5V13.88C355.083 14.7333 354.663 15.16 353.823 15.16ZM370.952 18.76C370.552 18.76 370.245 18.6533 370.032 18.44C369.819 18.2267 369.712 17.9133 369.712 17.5V6.32C369.712 5.90667 369.819 5.59333 370.032 5.38C370.245 5.16667 370.545 5.06 370.932 5.06C371.332 5.06 371.639 5.16667 371.852 5.38C372.065 5.59333 372.172 5.90667 372.172 6.32V7.88L371.952 7.28C372.152 6.6 372.559 6.05333 373.172 5.64C373.799 5.22667 374.525 5.02 375.352 5.02C376.205 5.02 376.952 5.22667 377.592 5.64C378.245 6.05333 378.752 6.64 379.112 7.4C379.472 8.14667 379.652 9.04667 379.652 10.1C379.652 11.14 379.472 12.0467 379.112 12.82C378.752 13.58 378.252 14.1667 377.612 14.58C376.972 14.9933 376.219 15.2 375.352 15.2C374.539 15.2 373.825 15 373.212 14.6C372.599 14.1867 372.185 13.6533 371.972 13H372.212V17.5C372.212 17.9133 372.099 18.2267 371.872 18.44C371.659 18.6533 371.352 18.76 370.952 18.76ZM374.652 13.3C375.145 13.3 375.579 13.18 375.952 12.94C376.325 12.7 376.612 12.3467 376.812 11.88C377.025 11.4 377.132 10.8067 377.132 10.1C377.132 9.03333 376.905 8.24 376.452 7.72C375.999 7.18667 375.399 6.92 374.652 6.92C374.159 6.92 373.725 7.04 373.352 7.28C372.979 7.50667 372.685 7.86 372.472 8.34C372.272 8.80667 372.172 9.39333 372.172 10.1C372.172 11.1533 372.399 11.9533 372.852 12.5C373.305 13.0333 373.905 13.3 374.652 13.3ZM386.164 15.2C385.151 15.2 384.271 14.9933 383.524 14.58C382.778 14.1667 382.198 13.58 381.784 12.82C381.371 12.0467 381.164 11.14 381.164 10.1C381.164 9.31333 381.278 8.61333 381.504 8C381.744 7.37333 382.084 6.84 382.524 6.4C382.964 5.94667 383.491 5.60667 384.104 5.38C384.718 5.14 385.404 5.02 386.164 5.02C387.178 5.02 388.058 5.22667 388.804 5.64C389.551 6.05333 390.131 6.64 390.544 7.4C390.958 8.16 391.164 9.06 391.164 10.1C391.164 10.8867 391.044 11.5933 390.804 12.22C390.578 12.8467 390.244 13.3867 389.804 13.84C389.364 14.28 388.838 14.62 388.224 14.86C387.611 15.0867 386.924 15.2 386.164 15.2ZM386.164 13.3C386.658 13.3 387.091 13.18 387.464 12.94C387.838 12.7 388.124 12.3467 388.324 11.88C388.538 11.4 388.644 10.8067 388.644 10.1C388.644 9.03333 388.418 8.24 387.964 7.72C387.511 7.18667 386.911 6.92 386.164 6.92C385.671 6.92 385.238 7.04 384.864 7.28C384.491 7.50667 384.198 7.86 383.984 8.34C383.784 8.80667 383.684 9.39333 383.684 10.1C383.684 11.1533 383.911 11.9533 384.364 12.5C384.818 13.0333 385.418 13.3 386.164 13.3ZM396.808 15.2C396.234 15.2 395.628 15.14 394.988 15.02C394.348 14.9 393.774 14.6933 393.268 14.4C393.054 14.2667 392.901 14.1133 392.808 13.94C392.728 13.7533 392.694 13.5733 392.708 13.4C392.734 13.2133 392.801 13.0533 392.908 12.92C393.028 12.7867 393.174 12.7 393.348 12.66C393.534 12.62 393.734 12.6533 393.948 12.76C394.481 13.0133 394.981 13.1933 395.448 13.3C395.914 13.3933 396.374 13.44 396.828 13.44C397.468 13.44 397.941 13.3333 398.248 13.12C398.568 12.8933 398.728 12.6 398.728 12.24C398.728 11.9333 398.621 11.7 398.408 11.54C398.208 11.3667 397.901 11.24 397.488 11.16L395.488 10.78C394.661 10.62 394.028 10.32 393.588 9.88C393.161 9.42667 392.948 8.84667 392.948 8.14C392.948 7.5 393.121 6.94667 393.468 6.48C393.828 6.01333 394.321 5.65333 394.948 5.4C395.574 5.14667 396.294 5.02 397.108 5.02C397.694 5.02 398.241 5.08667 398.748 5.22C399.268 5.34 399.768 5.53333 400.248 5.8C400.448 5.90667 400.581 6.04667 400.648 6.22C400.728 6.39333 400.748 6.57333 400.708 6.76C400.668 6.93333 400.588 7.09333 400.468 7.24C400.348 7.37333 400.194 7.46 400.008 7.5C399.834 7.52667 399.634 7.48667 399.408 7.38C398.994 7.16667 398.594 7.01333 398.208 6.92C397.834 6.82667 397.474 6.78 397.128 6.78C396.474 6.78 395.988 6.89333 395.668 7.12C395.361 7.34667 395.208 7.64667 395.208 8.02C395.208 8.3 395.301 8.53333 395.488 8.72C395.674 8.90667 395.961 9.03333 396.348 9.1L398.348 9.48C399.214 9.64 399.868 9.93333 400.308 10.36C400.761 10.7867 400.988 11.36 400.988 12.08C400.988 13.0533 400.608 13.82 399.848 14.38C399.088 14.9267 398.074 15.2 396.808 15.2ZM404.233 15.14C403.833 15.14 403.527 15.02 403.313 14.78C403.1 14.54 402.993 14.2067 402.993 13.78V6.44C402.993 6 403.1 5.66667 403.313 5.44C403.527 5.2 403.833 5.08 404.233 5.08C404.633 5.08 404.94 5.2 405.153 5.44C405.38 5.66667 405.493 6 405.493 6.44V13.78C405.493 14.2067 405.387 14.54 405.173 14.78C404.96 15.02 404.647 15.14 404.233 15.14ZM404.233 3.22C403.767 3.22 403.4 3.10667 403.133 2.88C402.88 2.64 402.753 2.31333 402.753 1.9C402.753 1.47333 402.88 1.14667 403.133 0.919999C403.4 0.693333 403.767 0.58 404.233 0.58C404.713 0.58 405.08 0.693333 405.333 0.919999C405.587 1.14667 405.713 1.47333 405.713 1.9C405.713 2.31333 405.587 2.64 405.333 2.88C405.08 3.10667 404.713 3.22 404.233 3.22ZM412.571 15.2C411.704 15.2 410.978 15.0533 410.391 14.76C409.818 14.4667 409.391 14.04 409.111 13.48C408.831 12.9067 408.691 12.2 408.691 11.36V7.1H407.651C407.331 7.1 407.084 7.02 406.911 6.86C406.738 6.68667 406.651 6.45333 406.651 6.16C406.651 5.85333 406.738 5.62 406.911 5.46C407.084 5.3 407.331 5.22 407.651 5.22H408.691V3.4C408.691 2.98667 408.798 2.67333 409.011 2.46C409.238 2.24667 409.551 2.14 409.951 2.14C410.351 2.14 410.658 2.24667 410.871 2.46C411.084 2.67333 411.191 2.98667 411.191 3.4V5.22H413.311C413.631 5.22 413.878 5.3 414.051 5.46C414.224 5.62 414.311 5.85333 414.311 6.16C414.311 6.45333 414.224 6.68667 414.051 6.86C413.878 7.02 413.631 7.1 413.311 7.1H411.191V11.22C411.191 11.86 411.331 12.34 411.611 12.66C411.891 12.98 412.344 13.14 412.971 13.14C413.198 13.14 413.398 13.12 413.571 13.08C413.744 13.04 413.898 13.0133 414.031 13C414.191 12.9867 414.324 13.04 414.431 13.16C414.538 13.2667 414.591 13.4933 414.591 13.84C414.591 14.1067 414.544 14.3467 414.451 14.56C414.371 14.76 414.218 14.9 413.991 14.98C413.818 15.0333 413.591 15.08 413.311 15.12C413.031 15.1733 412.784 15.2 412.571 15.2ZM417.261 15.14C416.861 15.14 416.554 15.02 416.341 14.78C416.127 14.54 416.021 14.2067 416.021 13.78V6.44C416.021 6 416.127 5.66667 416.341 5.44C416.554 5.2 416.861 5.08 417.261 5.08C417.661 5.08 417.967 5.2 418.181 5.44C418.407 5.66667 418.521 6 418.521 6.44V13.78C418.521 14.2067 418.414 14.54 418.201 14.78C417.987 15.02 417.674 15.14 417.261 15.14ZM417.261 3.22C416.794 3.22 416.427 3.10667 416.161 2.88C415.907 2.64 415.781 2.31333 415.781 1.9C415.781 1.47333 415.907 1.14667 416.161 0.919999C416.427 0.693333 416.794 0.58 417.261 0.58C417.741 0.58 418.107 0.693333 418.361 0.919999C418.614 1.14667 418.741 1.47333 418.741 1.9C418.741 2.31333 418.614 2.64 418.361 2.88C418.107 3.10667 417.741 3.22 417.261 3.22ZM425.078 15.16C424.745 15.16 424.452 15.0733 424.198 14.9C423.958 14.7267 423.758 14.46 423.598 14.1L420.418 6.72C420.298 6.42667 420.252 6.15333 420.278 5.9C420.318 5.64667 420.438 5.44667 420.638 5.3C420.852 5.14 421.138 5.06 421.498 5.06C421.805 5.06 422.052 5.13333 422.238 5.28C422.425 5.41333 422.592 5.67333 422.738 6.06L425.438 12.8H424.838L427.618 6.04C427.765 5.66667 427.932 5.41333 428.118 5.28C428.318 5.13333 428.585 5.06 428.918 5.06C429.212 5.06 429.445 5.14 429.618 5.3C429.792 5.44667 429.898 5.64667 429.938 5.9C429.978 6.14 429.932 6.40667 429.798 6.7L426.558 14.1C426.412 14.46 426.212 14.7267 425.958 14.9C425.718 15.0733 425.425 15.16 425.078 15.16ZM436.29 15.2C435.183 15.2 434.23 14.9933 433.43 14.58C432.63 14.1667 432.01 13.58 431.57 12.82C431.143 12.06 430.93 11.16 430.93 10.12C430.93 9.10667 431.137 8.22 431.55 7.46C431.977 6.7 432.557 6.10667 433.29 5.68C434.037 5.24 434.883 5.02 435.83 5.02C436.523 5.02 437.143 5.13333 437.69 5.36C438.25 5.58667 438.723 5.91333 439.11 6.34C439.51 6.76667 439.81 7.28667 440.01 7.9C440.223 8.5 440.33 9.18 440.33 9.94C440.33 10.18 440.243 10.3667 440.07 10.5C439.91 10.62 439.677 10.68 439.37 10.68H432.95V9.24H438.57L438.25 9.54C438.25 8.92667 438.157 8.41333 437.97 8C437.797 7.58667 437.537 7.27333 437.19 7.06C436.857 6.83333 436.437 6.72 435.93 6.72C435.37 6.72 434.89 6.85333 434.49 7.12C434.103 7.37333 433.803 7.74 433.59 8.22C433.39 8.68667 433.29 9.24667 433.29 9.9V10.04C433.29 11.1333 433.543 11.9533 434.05 12.5C434.57 13.0333 435.33 13.3 436.33 13.3C436.677 13.3 437.063 13.26 437.49 13.18C437.93 13.0867 438.343 12.9333 438.73 12.72C439.01 12.56 439.257 12.4933 439.47 12.52C439.683 12.5333 439.85 12.6067 439.97 12.74C440.103 12.8733 440.183 13.04 440.21 13.24C440.237 13.4267 440.197 13.62 440.09 13.82C439.997 14.02 439.83 14.1933 439.59 14.34C439.123 14.6333 438.583 14.8533 437.97 15C437.37 15.1333 436.81 15.2 436.29 15.2ZM451.319 15.2C450.746 15.2 450.139 15.14 449.499 15.02C448.859 14.9 448.286 14.6933 447.779 14.4C447.566 14.2667 447.413 14.1133 447.319 13.94C447.239 13.7533 447.206 13.5733 447.219 13.4C447.246 13.2133 447.313 13.0533 447.419 12.92C447.539 12.7867 447.686 12.7 447.859 12.66C448.046 12.62 448.246 12.6533 448.459 12.76C448.993 13.0133 449.493 13.1933 449.959 13.3C450.426 13.3933 450.886 13.44 451.339 13.44C451.979 13.44 452.453 13.3333 452.759 13.12C453.079 12.8933 453.239 12.6 453.239 12.24C453.239 11.9333 453.133 11.7 452.919 11.54C452.719 11.3667 452.413 11.24 451.999 11.16L449.999 10.78C449.173 10.62 448.539 10.32 448.099 9.88C447.673 9.42667 447.459 8.84667 447.459 8.14C447.459 7.5 447.633 6.94667 447.979 6.48C448.339 6.01333 448.833 5.65333 449.459 5.4C450.086 5.14667 450.806 5.02 451.619 5.02C452.206 5.02 452.753 5.08667 453.259 5.22C453.779 5.34 454.279 5.53333 454.759 5.8C454.959 5.90667 455.093 6.04667 455.159 6.22C455.239 6.39333 455.259 6.57333 455.219 6.76C455.179 6.93333 455.099 7.09333 454.979 7.24C454.859 7.37333 454.706 7.46 454.519 7.5C454.346 7.52667 454.146 7.48667 453.919 7.38C453.506 7.16667 453.106 7.01333 452.719 6.92C452.346 6.82667 451.986 6.78 451.639 6.78C450.986 6.78 450.499 6.89333 450.179 7.12C449.873 7.34667 449.719 7.64667 449.719 8.02C449.719 8.3 449.813 8.53333 449.999 8.72C450.186 8.90667 450.473 9.03333 450.859 9.1L452.859 9.48C453.726 9.64 454.379 9.93333 454.819 10.36C455.273 10.7867 455.499 11.36 455.499 12.08C455.499 13.0533 455.119 13.82 454.359 14.38C453.599 14.9267 452.586 15.2 451.319 15.2ZM460.845 15.2C459.738 15.2 458.905 14.8867 458.345 14.26C457.785 13.62 457.505 12.6867 457.505 11.46V2C457.505 1.58667 457.612 1.27333 457.825 1.06C458.038 0.846666 458.345 0.739999 458.745 0.739999C459.145 0.739999 459.452 0.846666 459.665 1.06C459.892 1.27333 460.005 1.58667 460.005 2V11.34C460.005 11.9533 460.132 12.4067 460.385 12.7C460.652 12.9933 461.025 13.14 461.505 13.14C461.612 13.14 461.712 13.14 461.805 13.14C461.898 13.1267 461.992 13.1133 462.085 13.1C462.272 13.0733 462.398 13.1267 462.465 13.26C462.532 13.38 462.565 13.6333 462.565 14.02C462.565 14.3533 462.498 14.6133 462.365 14.8C462.232 14.9867 462.012 15.1 461.705 15.14C461.572 15.1533 461.432 15.1667 461.285 15.18C461.138 15.1933 460.992 15.2 460.845 15.2ZM468.254 15.2C467.241 15.2 466.361 14.9933 465.614 14.58C464.867 14.1667 464.287 13.58 463.874 12.82C463.461 12.0467 463.254 11.14 463.254 10.1C463.254 9.31333 463.367 8.61333 463.594 8C463.834 7.37333 464.174 6.84 464.614 6.4C465.054 5.94667 465.581 5.60667 466.194 5.38C466.807 5.14 467.494 5.02 468.254 5.02C469.267 5.02 470.147 5.22667 470.894 5.64C471.641 6.05333 472.221 6.64 472.634 7.4C473.047 8.16 473.254 9.06 473.254 10.1C473.254 10.8867 473.134 11.5933 472.894 12.22C472.667 12.8467 472.334 13.3867 471.894 13.84C471.454 14.28 470.927 14.62 470.314 14.86C469.701 15.0867 469.014 15.2 468.254 15.2ZM468.254 13.3C468.747 13.3 469.181 13.18 469.554 12.94C469.927 12.7 470.214 12.3467 470.414 11.88C470.627 11.4 470.734 10.8067 470.734 10.1C470.734 9.03333 470.507 8.24 470.054 7.72C469.601 7.18667 469.001 6.92 468.254 6.92C467.761 6.92 467.327 7.04 466.954 7.28C466.581 7.50667 466.287 7.86 466.074 8.34C465.874 8.80667 465.774 9.39333 465.774 10.1C465.774 11.1533 466.001 11.9533 466.454 12.5C466.907 13.0333 467.507 13.3 468.254 13.3ZM476.558 18.76C476.158 18.76 475.851 18.6533 475.638 18.44C475.424 18.2267 475.318 17.9133 475.318 17.5V6.32C475.318 5.90667 475.424 5.59333 475.638 5.38C475.851 5.16667 476.151 5.06 476.538 5.06C476.938 5.06 477.244 5.16667 477.458 5.38C477.671 5.59333 477.778 5.90667 477.778 6.32V7.88L477.558 7.28C477.758 6.6 478.164 6.05333 478.778 5.64C479.404 5.22667 480.131 5.02 480.958 5.02C481.811 5.02 482.558 5.22667 483.198 5.64C483.851 6.05333 484.358 6.64 484.718 7.4C485.078 8.14667 485.258 9.04667 485.258 10.1C485.258 11.14 485.078 12.0467 484.718 12.82C484.358 13.58 483.858 14.1667 483.218 14.58C482.578 14.9933 481.824 15.2 480.958 15.2C480.144 15.2 479.431 15 478.818 14.6C478.204 14.1867 477.791 13.6533 477.578 13H477.818V17.5C477.818 17.9133 477.704 18.2267 477.478 18.44C477.264 18.6533 476.958 18.76 476.558 18.76ZM480.258 13.3C480.751 13.3 481.184 13.18 481.558 12.94C481.931 12.7 482.218 12.3467 482.418 11.88C482.631 11.4 482.738 10.8067 482.738 10.1C482.738 9.03333 482.511 8.24 482.058 7.72C481.604 7.18667 481.004 6.92 480.258 6.92C479.764 6.92 479.331 7.04 478.958 7.28C478.584 7.50667 478.291 7.86 478.078 8.34C477.878 8.80667 477.778 9.39333 477.778 10.1C477.778 11.1533 478.004 11.9533 478.458 12.5C478.911 13.0333 479.511 13.3 480.258 13.3ZM492.13 15.2C491.023 15.2 490.07 14.9933 489.27 14.58C488.47 14.1667 487.85 13.58 487.41 12.82C486.983 12.06 486.77 11.16 486.77 10.12C486.77 9.10667 486.976 8.22 487.39 7.46C487.816 6.7 488.396 6.10667 489.13 5.68C489.876 5.24 490.723 5.02 491.67 5.02C492.363 5.02 492.983 5.13333 493.53 5.36C494.09 5.58667 494.563 5.91333 494.95 6.34C495.35 6.76667 495.65 7.28667 495.85 7.9C496.063 8.5 496.17 9.18 496.17 9.94C496.17 10.18 496.083 10.3667 495.91 10.5C495.75 10.62 495.516 10.68 495.21 10.68H488.79V9.24H494.41L494.09 9.54C494.09 8.92667 493.996 8.41333 493.81 8C493.636 7.58667 493.376 7.27333 493.03 7.06C492.696 6.83333 492.276 6.72 491.77 6.72C491.21 6.72 490.73 6.85333 490.33 7.12C489.943 7.37333 489.643 7.74 489.43 8.22C489.23 8.68667 489.13 9.24667 489.13 9.9V10.04C489.13 11.1333 489.383 11.9533 489.89 12.5C490.41 13.0333 491.17 13.3 492.17 13.3C492.516 13.3 492.903 13.26 493.33 13.18C493.77 13.0867 494.183 12.9333 494.57 12.72C494.85 12.56 495.096 12.4933 495.31 12.52C495.523 12.5333 495.69 12.6067 495.81 12.74C495.943 12.8733 496.023 13.04 496.05 13.24C496.076 13.4267 496.036 13.62 495.93 13.82C495.836 14.02 495.67 14.1933 495.43 14.34C494.963 14.6333 494.423 14.8533 493.81 15C493.21 15.1333 492.65 15.2 492.13 15.2ZM499.35 15.1C498.896 15.1 498.53 14.96 498.25 14.68C497.983 14.4 497.85 14.04 497.85 13.6C497.85 13.1733 497.983 12.8267 498.25 12.56C498.53 12.28 498.896 12.14 499.35 12.14C499.816 12.14 500.176 12.28 500.43 12.56C500.696 12.8267 500.83 13.1733 500.83 13.6C500.83 14.04 500.696 14.4 500.43 14.68C500.176 14.96 499.816 15.1 499.35 15.1Z" fill="#444444"/>
</svg>
