<svg width="507" height="19" viewBox="0 0 507 19" fill="none" xmlns="http://www.w3.org/2000/svg">
<path d="M2.06672 15.16C1.74672 15.16 1.48672 15.0867 1.28672 14.94C1.10005 14.7933 0.986719 14.6 0.946719 14.36C0.906719 14.1067 0.953385 13.8267 1.08672 13.52L6.36672 1.82C6.54005 1.43333 6.74672 1.16 6.98672 0.999999C7.24005 0.826666 7.52672 0.739999 7.84672 0.739999C8.15339 0.739999 8.42672 0.826666 8.66672 0.999999C8.92005 1.16 9.13339 1.43333 9.30672 1.82L14.6067 13.52C14.7534 13.8267 14.8067 14.1067 14.7667 14.36C14.7267 14.6133 14.6134 14.8133 14.4267 14.96C14.2401 15.0933 13.9934 15.16 13.6867 15.16C13.3134 15.16 13.0201 15.0733 12.8067 14.9C12.6067 14.7133 12.4267 14.4333 12.2667 14.06L10.9667 11.04L12.0467 11.74H3.60672L4.68672 11.04L3.40672 14.06C3.23339 14.4467 3.05339 14.7267 2.86672 14.9C2.68005 15.0733 2.41339 15.16 2.06672 15.16ZM7.80672 3.68L5.00672 10.34L4.48672 9.7H11.1667L10.6667 10.34L7.84672 3.68H7.80672ZM25.3392 15.2C24.2326 15.2 23.3992 14.8867 22.8392 14.26C22.2792 13.62 21.9992 12.6867 21.9992 11.46V2C21.9992 1.58667 22.1059 1.27333 22.3192 1.06C22.5326 0.846666 22.8392 0.739999 23.2392 0.739999C23.6392 0.739999 23.9459 0.846666 24.1592 1.06C24.3859 1.27333 24.4992 1.58667 24.4992 2V11.34C24.4992 11.9533 24.6259 12.4067 24.8792 12.7C25.1459 12.9933 25.5192 13.14 25.9992 13.14C26.1059 13.14 26.2059 13.14 26.2992 13.14C26.3926 13.1267 26.4859 13.1133 26.5792 13.1C26.7659 13.0733 26.8926 13.1267 26.9592 13.26C27.0259 13.38 27.0592 13.6333 27.0592 14.02C27.0592 14.3533 26.9926 14.6133 26.8592 14.8C26.7259 14.9867 26.5059 15.1 26.1992 15.14C26.0659 15.1533 25.9259 15.1667 25.7792 15.18C25.6326 15.1933 25.4859 15.2 25.3392 15.2ZM29.6259 15.14C29.2259 15.14 28.9193 15.02 28.7059 14.78C28.4926 14.54 28.3859 14.2067 28.3859 13.78V6.44C28.3859 6 28.4926 5.66667 28.7059 5.44C28.9193 5.2 29.2259 5.08 29.6259 5.08C30.0259 5.08 30.3326 5.2 30.5459 5.44C30.7726 5.66667 30.8859 6 30.8859 6.44V13.78C30.8859 14.2067 30.7793 14.54 30.5659 14.78C30.3526 15.02 30.0393 15.14 29.6259 15.14ZM29.6259 3.22C29.1593 3.22 28.7926 3.10667 28.5259 2.88C28.2726 2.64 28.1459 2.31333 28.1459 1.9C28.1459 1.47333 28.2726 1.14667 28.5259 0.919999C28.7926 0.693333 29.1593 0.58 29.6259 0.58C30.1059 0.58 30.4726 0.693333 30.7259 0.919999C30.9793 1.14667 31.1059 1.47333 31.1059 1.9C31.1059 2.31333 30.9793 2.64 30.7259 2.88C30.4726 3.10667 30.1059 3.22 29.6259 3.22ZM34.7236 15.16C34.3236 15.16 34.0169 15.0533 33.8036 14.84C33.5903 14.6133 33.4836 14.2933 33.4836 13.88V6.32C33.4836 5.90667 33.5903 5.59333 33.8036 5.38C34.0169 5.16667 34.3169 5.06 34.7036 5.06C35.0903 5.06 35.3903 5.16667 35.6036 5.38C35.8169 5.59333 35.9236 5.90667 35.9236 6.32V7.68L35.7036 7.18C35.9969 6.47333 36.4503 5.94 37.0636 5.58C37.6903 5.20667 38.3969 5.02 39.1836 5.02C39.9703 5.02 40.6169 5.16667 41.1236 5.46C41.6303 5.75333 42.0103 6.2 42.2636 6.8C42.5169 7.38667 42.6436 8.13333 42.6436 9.04V13.88C42.6436 14.2933 42.5369 14.6133 42.3236 14.84C42.1103 15.0533 41.8036 15.16 41.4036 15.16C41.0036 15.16 40.6903 15.0533 40.4636 14.84C40.2503 14.6133 40.1436 14.2933 40.1436 13.88V9.16C40.1436 8.4 39.9969 7.84667 39.7036 7.5C39.4236 7.15333 38.9836 6.98 38.3836 6.98C37.6503 6.98 37.0636 7.21333 36.6236 7.68C36.1969 8.13333 35.9836 8.74 35.9836 9.5V13.88C35.9836 14.7333 35.5636 15.16 34.7236 15.16ZM50.0028 15.2C48.8961 15.2 47.9428 14.9933 47.1428 14.58C46.3428 14.1667 45.7228 13.58 45.2828 12.82C44.8561 12.06 44.6428 11.16 44.6428 10.12C44.6428 9.10667 44.8495 8.22 45.2628 7.46C45.6895 6.7 46.2695 6.10667 47.0028 5.68C47.7495 5.24 48.5961 5.02 49.5428 5.02C50.2361 5.02 50.8561 5.13333 51.4028 5.36C51.9628 5.58667 52.4361 5.91333 52.8228 6.34C53.2228 6.76667 53.5228 7.28667 53.7228 7.9C53.9361 8.5 54.0428 9.18 54.0428 9.94C54.0428 10.18 53.9561 10.3667 53.7828 10.5C53.6228 10.62 53.3895 10.68 53.0828 10.68H46.6628V9.24H52.2828L51.9628 9.54C51.9628 8.92667 51.8695 8.41333 51.6828 8C51.5095 7.58667 51.2495 7.27333 50.9028 7.06C50.5695 6.83333 50.1495 6.72 49.6428 6.72C49.0828 6.72 48.6028 6.85333 48.2028 7.12C47.8161 7.37333 47.5161 7.74 47.3028 8.22C47.1028 8.68667 47.0028 9.24667 47.0028 9.9V10.04C47.0028 11.1333 47.2561 11.9533 47.7628 12.5C48.2828 13.0333 49.0428 13.3 50.0428 13.3C50.3895 13.3 50.7761 13.26 51.2028 13.18C51.6428 13.0867 52.0561 12.9333 52.4428 12.72C52.7228 12.56 52.9695 12.4933 53.1828 12.52C53.3961 12.5333 53.5628 12.6067 53.6828 12.74C53.8161 12.8733 53.8961 13.04 53.9228 13.24C53.9495 13.4267 53.9095 13.62 53.8028 13.82C53.7095 14.02 53.5428 14.1933 53.3028 14.34C52.8361 14.6333 52.2961 14.8533 51.6828 15C51.0828 15.1333 50.5228 15.2 50.0028 15.2ZM65.2323 15.16C64.899 15.16 64.6123 15.08 64.3723 14.92C64.1323 14.7467 63.939 14.48 63.7923 14.12L60.8923 6.72C60.7723 6.4 60.7323 6.12 60.7723 5.88C60.8257 5.62667 60.9523 5.42667 61.1523 5.28C61.3523 5.13333 61.619 5.06 61.9523 5.06C62.2457 5.06 62.4857 5.13333 62.6723 5.28C62.859 5.41333 63.019 5.67333 63.1523 6.06L65.5723 12.72H65.1123L67.6123 5.9C67.719 5.60667 67.859 5.39333 68.0323 5.26C68.219 5.12667 68.459 5.06 68.7523 5.06C69.0457 5.06 69.2857 5.13333 69.4723 5.28C69.659 5.41333 69.799 5.62 69.8923 5.9L72.3523 12.72H71.9323L74.3723 6C74.5057 5.64 74.6723 5.39333 74.8723 5.26C75.0857 5.12667 75.319 5.06 75.5723 5.06C75.8923 5.06 76.139 5.14 76.3123 5.3C76.4857 5.46 76.5857 5.66667 76.6123 5.92C76.639 6.16 76.5923 6.42667 76.4723 6.72L73.5923 14.12C73.459 14.4667 73.2657 14.7267 73.0123 14.9C72.7723 15.0733 72.4857 15.16 72.1523 15.16C71.819 15.16 71.5257 15.0733 71.2723 14.9C71.0323 14.7267 70.8457 14.4667 70.7123 14.12L68.0923 7.18H69.2323L66.6723 14.1C66.539 14.46 66.3523 14.7267 66.1123 14.9C65.8723 15.0733 65.579 15.16 65.2323 15.16ZM79.7431 15.14C79.3431 15.14 79.0365 15.02 78.8231 14.78C78.6098 14.54 78.5031 14.2067 78.5031 13.78V6.44C78.5031 6 78.6098 5.66667 78.8231 5.44C79.0365 5.2 79.3431 5.08 79.7431 5.08C80.1431 5.08 80.4498 5.2 80.6631 5.44C80.8898 5.66667 81.0031 6 81.0031 6.44V13.78C81.0031 14.2067 80.8965 14.54 80.6831 14.78C80.4698 15.02 80.1565 15.14 79.7431 15.14ZM79.7431 3.22C79.2765 3.22 78.9098 3.10667 78.6431 2.88C78.3898 2.64 78.2631 2.31333 78.2631 1.9C78.2631 1.47333 78.3898 1.14667 78.6431 0.919999C78.9098 0.693333 79.2765 0.58 79.7431 0.58C80.2231 0.58 80.5898 0.693333 80.8431 0.919999C81.0965 1.14667 81.2231 1.47333 81.2231 1.9C81.2231 2.31333 81.0965 2.64 80.8431 2.88C80.5898 3.10667 80.2231 3.22 79.7431 3.22ZM88.0808 15.2C87.2141 15.2 86.4874 15.0533 85.9008 14.76C85.3274 14.4667 84.9008 14.04 84.6208 13.48C84.3408 12.9067 84.2008 12.2 84.2008 11.36V7.1H83.1608C82.8408 7.1 82.5941 7.02 82.4208 6.86C82.2474 6.68667 82.1608 6.45333 82.1608 6.16C82.1608 5.85333 82.2474 5.62 82.4208 5.46C82.5941 5.3 82.8408 5.22 83.1608 5.22H84.2008V3.4C84.2008 2.98667 84.3074 2.67333 84.5208 2.46C84.7474 2.24667 85.0608 2.14 85.4608 2.14C85.8608 2.14 86.1674 2.24667 86.3808 2.46C86.5941 2.67333 86.7008 2.98667 86.7008 3.4V5.22H88.8208C89.1408 5.22 89.3874 5.3 89.5608 5.46C89.7341 5.62 89.8208 5.85333 89.8208 6.16C89.8208 6.45333 89.7341 6.68667 89.5608 6.86C89.3874 7.02 89.1408 7.1 88.8208 7.1H86.7008V11.22C86.7008 11.86 86.8408 12.34 87.1208 12.66C87.4008 12.98 87.8541 13.14 88.4808 13.14C88.7074 13.14 88.9074 13.12 89.0808 13.08C89.2541 13.04 89.4074 13.0133 89.5408 13C89.7008 12.9867 89.8341 13.04 89.9408 13.16C90.0474 13.2667 90.1008 13.4933 90.1008 13.84C90.1008 14.1067 90.0541 14.3467 89.9608 14.56C89.8808 14.76 89.7274 14.9 89.5008 14.98C89.3274 15.0333 89.1008 15.08 88.8208 15.12C88.5408 15.1733 88.2941 15.2 88.0808 15.2ZM92.7705 15.16C92.3705 15.16 92.0638 15.0533 91.8505 14.84C91.6371 14.6133 91.5305 14.2933 91.5305 13.88V2C91.5305 1.58667 91.6371 1.27333 91.8505 1.06C92.0638 0.846666 92.3705 0.739999 92.7705 0.739999C93.1705 0.739999 93.4771 0.846666 93.6905 1.06C93.9171 1.27333 94.0305 1.58667 94.0305 2V7.18H93.7505C94.0438 6.47333 94.4971 5.94 95.1105 5.58C95.7371 5.20667 96.4438 5.02 97.2305 5.02C98.0171 5.02 98.6638 5.16667 99.1705 5.46C99.6771 5.75333 100.057 6.2 100.31 6.8C100.564 7.38667 100.69 8.13333 100.69 9.04V13.88C100.69 14.2933 100.584 14.6133 100.37 14.84C100.157 15.0533 99.8505 15.16 99.4505 15.16C99.0505 15.16 98.7371 15.0533 98.5105 14.84C98.2971 14.6133 98.1905 14.2933 98.1905 13.88V9.16C98.1905 8.4 98.0438 7.84667 97.7505 7.5C97.4705 7.15333 97.0305 6.98 96.4305 6.98C95.6971 6.98 95.1105 7.21333 94.6705 7.68C94.2438 8.13333 94.0305 8.74 94.0305 9.5V13.88C94.0305 14.7333 93.6105 15.16 92.7705 15.16ZM111.879 15.2C111.173 15.2 110.539 15.0667 109.979 14.8C109.433 14.52 108.999 14.1467 108.679 13.68C108.373 13.2133 108.219 12.6867 108.219 12.1C108.219 11.38 108.406 10.8133 108.779 10.4C109.153 9.97333 109.759 9.66667 110.599 9.48C111.439 9.29333 112.566 9.2 113.979 9.2H114.979V10.64H113.999C113.173 10.64 112.513 10.68 112.019 10.76C111.526 10.84 111.173 10.98 110.959 11.18C110.759 11.3667 110.659 11.6333 110.659 11.98C110.659 12.42 110.813 12.78 111.119 13.06C111.426 13.34 111.853 13.48 112.399 13.48C112.839 13.48 113.226 13.38 113.559 13.18C113.906 12.9667 114.179 12.68 114.379 12.32C114.579 11.96 114.679 11.5467 114.679 11.08V8.78C114.679 8.11333 114.533 7.63333 114.239 7.34C113.946 7.04667 113.453 6.9 112.759 6.9C112.373 6.9 111.953 6.94667 111.499 7.04C111.059 7.13333 110.593 7.29333 110.099 7.52C109.846 7.64 109.619 7.67333 109.419 7.62C109.233 7.56667 109.086 7.46 108.979 7.3C108.873 7.12667 108.819 6.94 108.819 6.74C108.819 6.54 108.873 6.34667 108.979 6.16C109.086 5.96 109.266 5.81333 109.519 5.72C110.133 5.46667 110.719 5.28667 111.279 5.18C111.853 5.07333 112.373 5.02 112.839 5.02C113.799 5.02 114.586 5.16667 115.199 5.46C115.826 5.75333 116.293 6.2 116.599 6.8C116.906 7.38667 117.059 8.14667 117.059 9.08V13.88C117.059 14.2933 116.959 14.6133 116.759 14.84C116.559 15.0533 116.273 15.16 115.899 15.16C115.526 15.16 115.233 15.0533 115.019 14.84C114.819 14.6133 114.719 14.2933 114.719 13.88V12.92H114.879C114.786 13.3867 114.599 13.7933 114.319 14.14C114.053 14.4733 113.713 14.7333 113.299 14.92C112.886 15.1067 112.413 15.2 111.879 15.2ZM120.837 15.16C120.437 15.16 120.13 15.0533 119.917 14.84C119.704 14.6133 119.597 14.2933 119.597 13.88V6.32C119.597 5.90667 119.704 5.59333 119.917 5.38C120.13 5.16667 120.43 5.06 120.817 5.06C121.204 5.06 121.504 5.16667 121.717 5.38C121.93 5.59333 122.037 5.90667 122.037 6.32V7.68L121.817 7.18C122.11 6.47333 122.564 5.94 123.177 5.58C123.804 5.20667 124.51 5.02 125.297 5.02C126.084 5.02 126.73 5.16667 127.237 5.46C127.744 5.75333 128.124 6.2 128.377 6.8C128.63 7.38667 128.757 8.13333 128.757 9.04V13.88C128.757 14.2933 128.65 14.6133 128.437 14.84C128.224 15.0533 127.917 15.16 127.517 15.16C127.117 15.16 126.804 15.0533 126.577 14.84C126.364 14.6133 126.257 14.2933 126.257 13.88V9.16C126.257 8.4 126.11 7.84667 125.817 7.5C125.537 7.15333 125.097 6.98 124.497 6.98C123.764 6.98 123.177 7.21333 122.737 7.68C122.31 8.13333 122.097 8.74 122.097 9.5V13.88C122.097 14.7333 121.677 15.16 120.837 15.16ZM140.266 15.2C139.452 15.2 138.779 15.0533 138.246 14.76C137.712 14.4533 137.312 14 137.046 13.4C136.792 12.8 136.666 12.0533 136.666 11.16V6.32C136.666 5.89333 136.772 5.58 136.986 5.38C137.199 5.16667 137.506 5.06 137.906 5.06C138.306 5.06 138.612 5.16667 138.826 5.38C139.052 5.58 139.166 5.89333 139.166 6.32V11.2C139.166 11.8933 139.306 12.4067 139.586 12.74C139.866 13.0733 140.312 13.24 140.926 13.24C141.592 13.24 142.139 13.0133 142.566 12.56C142.992 12.0933 143.206 11.48 143.206 10.72V6.32C143.206 5.89333 143.312 5.58 143.526 5.38C143.739 5.16667 144.046 5.06 144.446 5.06C144.846 5.06 145.152 5.16667 145.366 5.38C145.592 5.58 145.706 5.89333 145.706 6.32V13.88C145.706 14.7333 145.299 15.16 144.486 15.16C144.099 15.16 143.799 15.0533 143.586 14.84C143.372 14.6133 143.266 14.2933 143.266 13.88V12.36L143.546 12.96C143.266 13.68 142.839 14.2333 142.266 14.62C141.706 15.0067 141.039 15.2 140.266 15.2ZM149.548 15.16C149.148 15.16 148.841 15.0533 148.628 14.84C148.414 14.6133 148.308 14.2933 148.308 13.88V6.32C148.308 5.90667 148.414 5.59333 148.628 5.38C148.841 5.16667 149.141 5.06 149.528 5.06C149.914 5.06 150.214 5.16667 150.428 5.38C150.641 5.59333 150.748 5.90667 150.748 6.32V7.68L150.528 7.18C150.821 6.47333 151.274 5.94 151.888 5.58C152.514 5.20667 153.221 5.02 154.008 5.02C154.794 5.02 155.441 5.16667 155.948 5.46C156.454 5.75333 156.834 6.2 157.088 6.8C157.341 7.38667 157.468 8.13333 157.468 9.04V13.88C157.468 14.2933 157.361 14.6133 157.148 14.84C156.934 15.0533 156.628 15.16 156.228 15.16C155.828 15.16 155.514 15.0533 155.288 14.84C155.074 14.6133 154.968 14.2933 154.968 13.88V9.16C154.968 8.4 154.821 7.84667 154.528 7.5C154.248 7.15333 153.808 6.98 153.208 6.98C152.474 6.98 151.888 7.21333 151.448 7.68C151.021 8.13333 150.808 8.74 150.808 9.5V13.88C150.808 14.7333 150.388 15.16 149.548 15.16ZM163.767 15.2C162.914 15.2 162.16 14.9933 161.507 14.58C160.867 14.1667 160.367 13.58 160.007 12.82C159.647 12.0467 159.467 11.14 159.467 10.1C159.467 9.04667 159.647 8.14667 160.007 7.4C160.367 6.64 160.867 6.05333 161.507 5.64C162.16 5.22667 162.914 5.02 163.767 5.02C164.58 5.02 165.287 5.22 165.887 5.62C166.5 6.02 166.914 6.54667 167.127 7.2H166.907V2C166.907 1.58667 167.014 1.27333 167.227 1.06C167.44 0.846666 167.747 0.739999 168.147 0.739999C168.547 0.739999 168.854 0.846666 169.067 1.06C169.294 1.27333 169.407 1.58667 169.407 2V13.88C169.407 14.2933 169.3 14.6133 169.087 14.84C168.874 15.0533 168.567 15.16 168.167 15.16C167.767 15.16 167.46 15.0533 167.247 14.84C167.034 14.6133 166.927 14.2933 166.927 13.88V12.32L167.147 12.92C166.947 13.6133 166.54 14.1667 165.927 14.58C165.314 14.9933 164.594 15.2 163.767 15.2ZM164.467 13.3C164.96 13.3 165.394 13.18 165.767 12.94C166.14 12.7 166.427 12.3467 166.627 11.88C166.84 11.4 166.947 10.8067 166.947 10.1C166.947 9.03333 166.72 8.24 166.267 7.72C165.814 7.18667 165.214 6.92 164.467 6.92C163.974 6.92 163.54 7.04 163.167 7.28C162.794 7.50667 162.5 7.86 162.287 8.34C162.087 8.80667 161.987 9.39333 161.987 10.1C161.987 11.1533 162.214 11.9533 162.667 12.5C163.12 13.0333 163.72 13.3 164.467 13.3ZM176.819 15.2C175.713 15.2 174.759 14.9933 173.959 14.58C173.159 14.1667 172.539 13.58 172.099 12.82C171.673 12.06 171.459 11.16 171.459 10.12C171.459 9.10667 171.666 8.22 172.079 7.46C172.506 6.7 173.086 6.10667 173.819 5.68C174.566 5.24 175.413 5.02 176.359 5.02C177.053 5.02 177.673 5.13333 178.219 5.36C178.779 5.58667 179.253 5.91333 179.639 6.34C180.039 6.76667 180.339 7.28667 180.539 7.9C180.753 8.5 180.859 9.18 180.859 9.94C180.859 10.18 180.773 10.3667 180.599 10.5C180.439 10.62 180.206 10.68 179.899 10.68H173.479V9.24H179.099L178.779 9.54C178.779 8.92667 178.686 8.41333 178.499 8C178.326 7.58667 178.066 7.27333 177.719 7.06C177.386 6.83333 176.966 6.72 176.459 6.72C175.899 6.72 175.419 6.85333 175.019 7.12C174.633 7.37333 174.333 7.74 174.119 8.22C173.919 8.68667 173.819 9.24667 173.819 9.9V10.04C173.819 11.1333 174.073 11.9533 174.579 12.5C175.099 13.0333 175.859 13.3 176.859 13.3C177.206 13.3 177.593 13.26 178.019 13.18C178.459 13.0867 178.873 12.9333 179.259 12.72C179.539 12.56 179.786 12.4933 179.999 12.52C180.213 12.5333 180.379 12.6067 180.499 12.74C180.633 12.8733 180.713 13.04 180.739 13.24C180.766 13.4267 180.726 13.62 180.619 13.82C180.526 14.02 180.359 14.1933 180.119 14.34C179.653 14.6333 179.113 14.8533 178.499 15C177.899 15.1333 177.339 15.2 176.819 15.2ZM184.72 15.16C184.32 15.16 184.007 15.0533 183.78 14.84C183.567 14.6133 183.46 14.2933 183.46 13.88V7.1H182.54C182.22 7.1 181.973 7.02 181.8 6.86C181.627 6.68667 181.54 6.45333 181.54 6.16C181.54 5.85333 181.627 5.62 181.8 5.46C181.973 5.3 182.22 5.22 182.54 5.22H184.18L183.46 5.88V5.2C183.46 3.85333 183.8 2.83333 184.48 2.14C185.16 1.44667 186.147 1.03333 187.44 0.899999L188.04 0.84C188.347 0.813333 188.587 0.853333 188.76 0.96C188.947 1.06667 189.067 1.21333 189.12 1.4C189.187 1.57333 189.2 1.76 189.16 1.96C189.12 2.14667 189.04 2.31333 188.92 2.46C188.8 2.59333 188.647 2.66667 188.46 2.68L187.98 2.72C187.273 2.77333 186.76 2.96667 186.44 3.3C186.12 3.63333 185.96 4.13333 185.96 4.8V5.54L185.64 5.22H191.18C191.58 5.22 191.887 5.34 192.1 5.58C192.313 5.80667 192.42 6.13333 192.42 6.56V13.78C192.42 14.2067 192.313 14.54 192.1 14.78C191.9 15.02 191.593 15.14 191.18 15.14C190.78 15.14 190.467 15.02 190.24 14.78C190.027 14.54 189.92 14.2067 189.92 13.78V7.1H185.96V13.88C185.96 14.7333 185.547 15.16 184.72 15.16ZM191.22 3.22C190.767 3.22 190.413 3.10667 190.16 2.88C189.92 2.64 189.8 2.31333 189.8 1.9C189.8 1.47333 189.92 1.14667 190.16 0.919999C190.413 0.693333 190.767 0.58 191.22 0.58C191.687 0.58 192.04 0.693333 192.28 0.919999C192.533 1.14667 192.66 1.47333 192.66 1.9C192.66 2.31333 192.533 2.64 192.28 2.88C192.04 3.10667 191.687 3.22 191.22 3.22ZM196.267 15.16C195.867 15.16 195.56 15.0533 195.347 14.84C195.133 14.6133 195.027 14.2933 195.027 13.88V6.32C195.027 5.90667 195.133 5.59333 195.347 5.38C195.56 5.16667 195.86 5.06 196.247 5.06C196.633 5.06 196.933 5.16667 197.147 5.38C197.36 5.59333 197.467 5.90667 197.467 6.32V7.68L197.247 7.18C197.54 6.47333 197.993 5.94 198.607 5.58C199.233 5.20667 199.94 5.02 200.727 5.02C201.513 5.02 202.16 5.16667 202.667 5.46C203.173 5.75333 203.553 6.2 203.807 6.8C204.06 7.38667 204.187 8.13333 204.187 9.04V13.88C204.187 14.2933 204.08 14.6133 203.867 14.84C203.653 15.0533 203.347 15.16 202.947 15.16C202.547 15.16 202.233 15.0533 202.007 14.84C201.793 14.6133 201.687 14.2933 201.687 13.88V9.16C201.687 8.4 201.54 7.84667 201.247 7.5C200.967 7.15333 200.527 6.98 199.927 6.98C199.193 6.98 198.607 7.21333 198.167 7.68C197.74 8.13333 197.527 8.74 197.527 9.5V13.88C197.527 14.7333 197.107 15.16 196.267 15.16ZM211.546 15.2C210.439 15.2 209.486 14.9933 208.686 14.58C207.886 14.1667 207.266 13.58 206.826 12.82C206.399 12.06 206.186 11.16 206.186 10.12C206.186 9.10667 206.392 8.22 206.806 7.46C207.232 6.7 207.812 6.10667 208.546 5.68C209.292 5.24 210.139 5.02 211.086 5.02C211.779 5.02 212.399 5.13333 212.946 5.36C213.506 5.58667 213.979 5.91333 214.366 6.34C214.766 6.76667 215.066 7.28667 215.266 7.9C215.479 8.5 215.586 9.18 215.586 9.94C215.586 10.18 215.499 10.3667 215.326 10.5C215.166 10.62 214.932 10.68 214.626 10.68H208.206V9.24H213.826L213.506 9.54C213.506 8.92667 213.412 8.41333 213.226 8C213.052 7.58667 212.792 7.27333 212.446 7.06C212.112 6.83333 211.692 6.72 211.186 6.72C210.626 6.72 210.146 6.85333 209.746 7.12C209.359 7.37333 209.059 7.74 208.846 8.22C208.646 8.68667 208.546 9.24667 208.546 9.9V10.04C208.546 11.1333 208.799 11.9533 209.306 12.5C209.826 13.0333 210.586 13.3 211.586 13.3C211.932 13.3 212.319 13.26 212.746 13.18C213.186 13.0867 213.599 12.9333 213.986 12.72C214.266 12.56 214.512 12.4933 214.726 12.52C214.939 12.5333 215.106 12.6067 215.226 12.74C215.359 12.8733 215.439 13.04 215.466 13.24C215.492 13.4267 215.452 13.62 215.346 13.82C215.252 14.02 215.086 14.1933 214.846 14.34C214.379 14.6333 213.839 14.8533 213.226 15C212.626 15.1333 212.066 15.2 211.546 15.2ZM221.326 15.2C220.472 15.2 219.719 14.9933 219.066 14.58C218.426 14.1667 217.926 13.58 217.566 12.82C217.206 12.0467 217.026 11.14 217.026 10.1C217.026 9.04667 217.206 8.14667 217.566 7.4C217.926 6.64 218.426 6.05333 219.066 5.64C219.719 5.22667 220.472 5.02 221.326 5.02C222.139 5.02 222.846 5.22 223.446 5.62C224.059 6.02 224.472 6.54667 224.686 7.2H224.466V2C224.466 1.58667 224.572 1.27333 224.786 1.06C224.999 0.846666 225.306 0.739999 225.706 0.739999C226.106 0.739999 226.412 0.846666 226.626 1.06C226.852 1.27333 226.966 1.58667 226.966 2V13.88C226.966 14.2933 226.859 14.6133 226.646 14.84C226.432 15.0533 226.126 15.16 225.726 15.16C225.326 15.16 225.019 15.0533 224.806 14.84C224.592 14.6133 224.486 14.2933 224.486 13.88V12.32L224.706 12.92C224.506 13.6133 224.099 14.1667 223.486 14.58C222.872 14.9933 222.152 15.2 221.326 15.2ZM222.026 13.3C222.519 13.3 222.952 13.18 223.326 12.94C223.699 12.7 223.986 12.3467 224.186 11.88C224.399 11.4 224.506 10.8067 224.506 10.1C224.506 9.03333 224.279 8.24 223.826 7.72C223.372 7.18667 222.772 6.92 222.026 6.92C221.532 6.92 221.099 7.04 220.726 7.28C220.352 7.50667 220.059 7.86 219.846 8.34C219.646 8.80667 219.546 9.39333 219.546 10.1C219.546 11.1533 219.772 11.9533 220.226 12.5C220.679 13.0333 221.279 13.3 222.026 13.3ZM238.568 15.2C237.994 15.2 237.388 15.14 236.748 15.02C236.108 14.9 235.534 14.6933 235.028 14.4C234.814 14.2667 234.661 14.1133 234.568 13.94C234.488 13.7533 234.454 13.5733 234.468 13.4C234.494 13.2133 234.561 13.0533 234.668 12.92C234.788 12.7867 234.934 12.7 235.108 12.66C235.294 12.62 235.494 12.6533 235.708 12.76C236.241 13.0133 236.741 13.1933 237.208 13.3C237.674 13.3933 238.134 13.44 238.588 13.44C239.228 13.44 239.701 13.3333 240.008 13.12C240.328 12.8933 240.488 12.6 240.488 12.24C240.488 11.9333 240.381 11.7 240.168 11.54C239.968 11.3667 239.661 11.24 239.248 11.16L237.248 10.78C236.421 10.62 235.788 10.32 235.348 9.88C234.921 9.42667 234.708 8.84667 234.708 8.14C234.708 7.5 234.881 6.94667 235.228 6.48C235.588 6.01333 236.081 5.65333 236.708 5.4C237.334 5.14667 238.054 5.02 238.868 5.02C239.454 5.02 240.001 5.08667 240.508 5.22C241.028 5.34 241.528 5.53333 242.008 5.8C242.208 5.90667 242.341 6.04667 242.408 6.22C242.488 6.39333 242.508 6.57333 242.468 6.76C242.428 6.93333 242.348 7.09333 242.228 7.24C242.108 7.37333 241.954 7.46 241.768 7.5C241.594 7.52667 241.394 7.48667 241.168 7.38C240.754 7.16667 240.354 7.01333 239.968 6.92C239.594 6.82667 239.234 6.78 238.888 6.78C238.234 6.78 237.748 6.89333 237.428 7.12C237.121 7.34667 236.968 7.64667 236.968 8.02C236.968 8.3 237.061 8.53333 237.248 8.72C237.434 8.90667 237.721 9.03333 238.108 9.1L240.108 9.48C240.974 9.64 241.628 9.93333 242.068 10.36C242.521 10.7867 242.748 11.36 242.748 12.08C242.748 13.0533 242.368 13.82 241.608 14.38C240.848 14.9267 239.834 15.2 238.568 15.2ZM248.093 15.2C246.986 15.2 246.153 14.8867 245.593 14.26C245.033 13.62 244.753 12.6867 244.753 11.46V2C244.753 1.58667 244.86 1.27333 245.073 1.06C245.286 0.846666 245.593 0.739999 245.993 0.739999C246.393 0.739999 246.7 0.846666 246.913 1.06C247.14 1.27333 247.253 1.58667 247.253 2V11.34C247.253 11.9533 247.38 12.4067 247.633 12.7C247.9 12.9933 248.273 13.14 248.753 13.14C248.86 13.14 248.96 13.14 249.053 13.14C249.146 13.1267 249.24 13.1133 249.333 13.1C249.52 13.0733 249.646 13.1267 249.713 13.26C249.78 13.38 249.813 13.6333 249.813 14.02C249.813 14.3533 249.746 14.6133 249.613 14.8C249.48 14.9867 249.26 15.1 248.953 15.14C248.82 15.1533 248.68 15.1667 248.533 15.18C248.386 15.1933 248.24 15.2 248.093 15.2ZM255.502 15.2C254.489 15.2 253.609 14.9933 252.862 14.58C252.116 14.1667 251.536 13.58 251.122 12.82C250.709 12.0467 250.502 11.14 250.502 10.1C250.502 9.31333 250.616 8.61333 250.842 8C251.082 7.37333 251.422 6.84 251.862 6.4C252.302 5.94667 252.829 5.60667 253.442 5.38C254.056 5.14 254.742 5.02 255.502 5.02C256.516 5.02 257.396 5.22667 258.142 5.64C258.889 6.05333 259.469 6.64 259.882 7.4C260.296 8.16 260.502 9.06 260.502 10.1C260.502 10.8867 260.382 11.5933 260.142 12.22C259.916 12.8467 259.582 13.3867 259.142 13.84C258.702 14.28 258.176 14.62 257.562 14.86C256.949 15.0867 256.262 15.2 255.502 15.2ZM255.502 13.3C255.996 13.3 256.429 13.18 256.802 12.94C257.176 12.7 257.462 12.3467 257.662 11.88C257.876 11.4 257.982 10.8067 257.982 10.1C257.982 9.03333 257.756 8.24 257.302 7.72C256.849 7.18667 256.249 6.92 255.502 6.92C255.009 6.92 254.576 7.04 254.202 7.28C253.829 7.50667 253.536 7.86 253.322 8.34C253.122 8.80667 253.022 9.39333 253.022 10.1C253.022 11.1533 253.249 11.9533 253.702 12.5C254.156 13.0333 254.756 13.3 255.502 13.3ZM263.806 18.76C263.406 18.76 263.099 18.6533 262.886 18.44C262.672 18.2267 262.566 17.9133 262.566 17.5V6.32C262.566 5.90667 262.672 5.59333 262.886 5.38C263.099 5.16667 263.399 5.06 263.786 5.06C264.186 5.06 264.492 5.16667 264.706 5.38C264.919 5.59333 265.026 5.90667 265.026 6.32V7.88L264.806 7.28C265.006 6.6 265.412 6.05333 266.026 5.64C266.652 5.22667 267.379 5.02 268.206 5.02C269.059 5.02 269.806 5.22667 270.446 5.64C271.099 6.05333 271.606 6.64 271.966 7.4C272.326 8.14667 272.506 9.04667 272.506 10.1C272.506 11.14 272.326 12.0467 271.966 12.82C271.606 13.58 271.106 14.1667 270.466 14.58C269.826 14.9933 269.072 15.2 268.206 15.2C267.392 15.2 266.679 15 266.066 14.6C265.452 14.1867 265.039 13.6533 264.826 13H265.066V17.5C265.066 17.9133 264.952 18.2267 264.726 18.44C264.512 18.6533 264.206 18.76 263.806 18.76ZM267.506 13.3C267.999 13.3 268.432 13.18 268.806 12.94C269.179 12.7 269.466 12.3467 269.666 11.88C269.879 11.4 269.986 10.8067 269.986 10.1C269.986 9.03333 269.759 8.24 269.306 7.72C268.852 7.18667 268.252 6.92 267.506 6.92C267.012 6.92 266.579 7.04 266.206 7.28C265.832 7.50667 265.539 7.86 265.326 8.34C265.126 8.80667 265.026 9.39333 265.026 10.1C265.026 11.1533 265.252 11.9533 265.706 12.5C266.159 13.0333 266.759 13.3 267.506 13.3ZM279.378 15.2C278.271 15.2 277.318 14.9933 276.518 14.58C275.718 14.1667 275.098 13.58 274.658 12.82C274.231 12.06 274.018 11.16 274.018 10.12C274.018 9.10667 274.224 8.22 274.638 7.46C275.064 6.7 275.644 6.10667 276.378 5.68C277.124 5.24 277.971 5.02 278.918 5.02C279.611 5.02 280.231 5.13333 280.778 5.36C281.338 5.58667 281.811 5.91333 282.198 6.34C282.598 6.76667 282.898 7.28667 283.098 7.9C283.311 8.5 283.418 9.18 283.418 9.94C283.418 10.18 283.331 10.3667 283.158 10.5C282.998 10.62 282.764 10.68 282.458 10.68H276.038V9.24H281.658L281.338 9.54C281.338 8.92667 281.244 8.41333 281.058 8C280.884 7.58667 280.624 7.27333 280.278 7.06C279.944 6.83333 279.524 6.72 279.018 6.72C278.458 6.72 277.978 6.85333 277.578 7.12C277.191 7.37333 276.891 7.74 276.678 8.22C276.478 8.68667 276.378 9.24667 276.378 9.9V10.04C276.378 11.1333 276.631 11.9533 277.138 12.5C277.658 13.0333 278.418 13.3 279.418 13.3C279.764 13.3 280.151 13.26 280.578 13.18C281.018 13.0867 281.431 12.9333 281.818 12.72C282.098 12.56 282.344 12.4933 282.558 12.52C282.771 12.5333 282.938 12.6067 283.058 12.74C283.191 12.8733 283.271 13.04 283.298 13.24C283.324 13.4267 283.284 13.62 283.178 13.82C283.084 14.02 282.918 14.1933 282.678 14.34C282.211 14.6333 281.671 14.8533 281.058 15C280.458 15.1333 279.898 15.2 279.378 15.2ZM292.067 15.14C291.667 15.14 291.361 15.02 291.147 14.78C290.934 14.54 290.827 14.2067 290.827 13.78V6.44C290.827 6 290.934 5.66667 291.147 5.44C291.361 5.2 291.667 5.08 292.067 5.08C292.467 5.08 292.774 5.2 292.987 5.44C293.214 5.66667 293.327 6 293.327 6.44V13.78C293.327 14.2067 293.221 14.54 293.007 14.78C292.794 15.02 292.481 15.14 292.067 15.14ZM292.067 3.22C291.601 3.22 291.234 3.10667 290.967 2.88C290.714 2.64 290.587 2.31333 290.587 1.9C290.587 1.47333 290.714 1.14667 290.967 0.919999C291.234 0.693333 291.601 0.58 292.067 0.58C292.547 0.58 292.914 0.693333 293.167 0.919999C293.421 1.14667 293.547 1.47333 293.547 1.9C293.547 2.31333 293.421 2.64 293.167 2.88C292.914 3.10667 292.547 3.22 292.067 3.22ZM299.505 15.2C298.932 15.2 298.325 15.14 297.685 15.02C297.045 14.9 296.472 14.6933 295.965 14.4C295.752 14.2667 295.598 14.1133 295.505 13.94C295.425 13.7533 295.392 13.5733 295.405 13.4C295.432 13.2133 295.498 13.0533 295.605 12.92C295.725 12.7867 295.872 12.7 296.045 12.66C296.232 12.62 296.432 12.6533 296.645 12.76C297.178 13.0133 297.678 13.1933 298.145 13.3C298.612 13.3933 299.072 13.44 299.525 13.44C300.165 13.44 300.638 13.3333 300.945 13.12C301.265 12.8933 301.425 12.6 301.425 12.24C301.425 11.9333 301.318 11.7 301.105 11.54C300.905 11.3667 300.598 11.24 300.185 11.16L298.185 10.78C297.358 10.62 296.725 10.32 296.285 9.88C295.858 9.42667 295.645 8.84667 295.645 8.14C295.645 7.5 295.818 6.94667 296.165 6.48C296.525 6.01333 297.018 5.65333 297.645 5.4C298.272 5.14667 298.992 5.02 299.805 5.02C300.392 5.02 300.938 5.08667 301.445 5.22C301.965 5.34 302.465 5.53333 302.945 5.8C303.145 5.90667 303.278 6.04667 303.345 6.22C303.425 6.39333 303.445 6.57333 303.405 6.76C303.365 6.93333 303.285 7.09333 303.165 7.24C303.045 7.37333 302.892 7.46 302.705 7.5C302.532 7.52667 302.332 7.48667 302.105 7.38C301.692 7.16667 301.292 7.01333 300.905 6.92C300.532 6.82667 300.172 6.78 299.825 6.78C299.172 6.78 298.685 6.89333 298.365 7.12C298.058 7.34667 297.905 7.64667 297.905 8.02C297.905 8.3 297.998 8.53333 298.185 8.72C298.372 8.90667 298.658 9.03333 299.045 9.1L301.045 9.48C301.912 9.64 302.565 9.93333 303.005 10.36C303.458 10.7867 303.685 11.36 303.685 12.08C303.685 13.0533 303.305 13.82 302.545 14.38C301.785 14.9267 300.772 15.2 299.505 15.2ZM312.36 18.76C311.96 18.76 311.654 18.6533 311.44 18.44C311.227 18.2267 311.12 17.9133 311.12 17.5V6.32C311.12 5.90667 311.227 5.59333 311.44 5.38C311.654 5.16667 311.954 5.06 312.34 5.06C312.74 5.06 313.047 5.16667 313.26 5.38C313.474 5.59333 313.58 5.90667 313.58 6.32V7.88L313.36 7.28C313.56 6.6 313.967 6.05333 314.58 5.64C315.207 5.22667 315.934 5.02 316.76 5.02C317.614 5.02 318.36 5.22667 319 5.64C319.654 6.05333 320.16 6.64 320.52 7.4C320.88 8.14667 321.06 9.04667 321.06 10.1C321.06 11.14 320.88 12.0467 320.52 12.82C320.16 13.58 319.66 14.1667 319.02 14.58C318.38 14.9933 317.627 15.2 316.76 15.2C315.947 15.2 315.234 15 314.62 14.6C314.007 14.1867 313.594 13.6533 313.38 13H313.62V17.5C313.62 17.9133 313.507 18.2267 313.28 18.44C313.067 18.6533 312.76 18.76 312.36 18.76ZM316.06 13.3C316.554 13.3 316.987 13.18 317.36 12.94C317.734 12.7 318.02 12.3467 318.22 11.88C318.434 11.4 318.54 10.8067 318.54 10.1C318.54 9.03333 318.314 8.24 317.86 7.72C317.407 7.18667 316.807 6.92 316.06 6.92C315.567 6.92 315.134 7.04 314.76 7.28C314.387 7.50667 314.094 7.86 313.88 8.34C313.68 8.80667 313.58 9.39333 313.58 10.1C313.58 11.1533 313.807 11.9533 314.26 12.5C314.714 13.0333 315.314 13.3 316.06 13.3ZM326.333 15.2C325.626 15.2 324.993 15.0667 324.433 14.8C323.886 14.52 323.453 14.1467 323.132 13.68C322.826 13.2133 322.673 12.6867 322.673 12.1C322.673 11.38 322.859 10.8133 323.233 10.4C323.606 9.97333 324.213 9.66667 325.053 9.48C325.893 9.29333 327.019 9.2 328.433 9.2H329.433V10.64H328.453C327.626 10.64 326.966 10.68 326.473 10.76C325.979 10.84 325.626 10.98 325.413 11.18C325.213 11.3667 325.113 11.6333 325.113 11.98C325.113 12.42 325.266 12.78 325.573 13.06C325.879 13.34 326.306 13.48 326.853 13.48C327.293 13.48 327.679 13.38 328.013 13.18C328.359 12.9667 328.633 12.68 328.833 12.32C329.033 11.96 329.133 11.5467 329.133 11.08V8.78C329.133 8.11333 328.986 7.63333 328.693 7.34C328.399 7.04667 327.906 6.9 327.213 6.9C326.826 6.9 326.406 6.94667 325.953 7.04C325.513 7.13333 325.046 7.29333 324.553 7.52C324.299 7.64 324.073 7.67333 323.873 7.62C323.686 7.56667 323.539 7.46 323.433 7.3C323.326 7.12667 323.273 6.94 323.273 6.74C323.273 6.54 323.326 6.34667 323.433 6.16C323.539 5.96 323.719 5.81333 323.973 5.72C324.586 5.46667 325.173 5.28667 325.733 5.18C326.306 5.07333 326.826 5.02 327.293 5.02C328.253 5.02 329.039 5.16667 329.653 5.46C330.279 5.75333 330.746 6.2 331.053 6.8C331.359 7.38667 331.513 8.14667 331.513 9.08V13.88C331.513 14.2933 331.413 14.6133 331.213 14.84C331.013 15.0533 330.726 15.16 330.353 15.16C329.979 15.16 329.686 15.0533 329.473 14.84C329.273 14.6133 329.173 14.2933 329.173 13.88V12.92H329.333C329.239 13.3867 329.053 13.7933 328.773 14.14C328.506 14.4733 328.166 14.7333 327.753 14.92C327.339 15.1067 326.866 15.2 326.333 15.2ZM335.33 15.16C334.917 15.16 334.597 15.0533 334.37 14.84C334.157 14.6133 334.05 14.2933 334.05 13.88V6.32C334.05 5.90667 334.157 5.59333 334.37 5.38C334.583 5.16667 334.883 5.06 335.27 5.06C335.657 5.06 335.957 5.16667 336.17 5.38C336.383 5.59333 336.49 5.90667 336.49 6.32V7.58H336.29C336.477 6.78 336.843 6.17333 337.39 5.76C337.937 5.34667 338.663 5.1 339.57 5.02C339.85 4.99333 340.07 5.06667 340.23 5.24C340.403 5.4 340.503 5.65333 340.53 6C340.557 6.33333 340.477 6.60667 340.29 6.82C340.117 7.02 339.85 7.14 339.49 7.18L339.05 7.22C338.237 7.3 337.623 7.55333 337.21 7.98C336.797 8.39333 336.59 8.98 336.59 9.74V13.88C336.59 14.2933 336.483 14.6133 336.27 14.84C336.057 15.0533 335.743 15.16 335.33 15.16ZM345.004 15.2C344.298 15.2 343.664 15.0667 343.104 14.8C342.558 14.52 342.124 14.1467 341.804 13.68C341.498 13.2133 341.344 12.6867 341.344 12.1C341.344 11.38 341.531 10.8133 341.904 10.4C342.278 9.97333 342.884 9.66667 343.724 9.48C344.564 9.29333 345.691 9.2 347.104 9.2H348.104V10.64H347.124C346.298 10.64 345.638 10.68 345.144 10.76C344.651 10.84 344.298 10.98 344.084 11.18C343.884 11.3667 343.784 11.6333 343.784 11.98C343.784 12.42 343.938 12.78 344.244 13.06C344.551 13.34 344.978 13.48 345.524 13.48C345.964 13.48 346.351 13.38 346.684 13.18C347.031 12.9667 347.304 12.68 347.504 12.32C347.704 11.96 347.804 11.5467 347.804 11.08V8.78C347.804 8.11333 347.658 7.63333 347.364 7.34C347.071 7.04667 346.578 6.9 345.884 6.9C345.498 6.9 345.078 6.94667 344.624 7.04C344.184 7.13333 343.718 7.29333 343.224 7.52C342.971 7.64 342.744 7.67333 342.544 7.62C342.358 7.56667 342.211 7.46 342.104 7.3C341.998 7.12667 341.944 6.94 341.944 6.74C341.944 6.54 341.998 6.34667 342.104 6.16C342.211 5.96 342.391 5.81333 342.644 5.72C343.258 5.46667 343.844 5.28667 344.404 5.18C344.978 5.07333 345.498 5.02 345.964 5.02C346.924 5.02 347.711 5.16667 348.324 5.46C348.951 5.75333 349.418 6.2 349.724 6.8C350.031 7.38667 350.184 8.14667 350.184 9.08V13.88C350.184 14.2933 350.084 14.6133 349.884 14.84C349.684 15.0533 349.398 15.16 349.024 15.16C348.651 15.16 348.358 15.0533 348.144 14.84C347.944 14.6133 347.844 14.2933 347.844 13.88V12.92H348.004C347.911 13.3867 347.724 13.7933 347.444 14.14C347.178 14.4733 346.838 14.7333 346.424 14.92C346.011 15.1067 345.538 15.2 345.004 15.2ZM356.062 15.2C354.955 15.2 354.122 14.8867 353.562 14.26C353.002 13.62 352.722 12.6867 352.722 11.46V2C352.722 1.58667 352.829 1.27333 353.042 1.06C353.255 0.846666 353.562 0.739999 353.962 0.739999C354.362 0.739999 354.669 0.846666 354.882 1.06C355.109 1.27333 355.222 1.58667 355.222 2V11.34C355.222 11.9533 355.349 12.4067 355.602 12.7C355.869 12.9933 356.242 13.14 356.722 13.14C356.829 13.14 356.929 13.14 357.022 13.14C357.115 13.1267 357.209 13.1133 357.302 13.1C357.489 13.0733 357.615 13.1267 357.682 13.26C357.749 13.38 357.782 13.6333 357.782 14.02C357.782 14.3533 357.715 14.6133 357.582 14.8C357.449 14.9867 357.229 15.1 356.922 15.14C356.789 15.1533 356.649 15.1667 356.502 15.18C356.355 15.1933 356.209 15.2 356.062 15.2ZM362.449 15.2C361.342 15.2 360.509 14.8867 359.949 14.26C359.389 13.62 359.109 12.6867 359.109 11.46V2C359.109 1.58667 359.215 1.27333 359.429 1.06C359.642 0.846666 359.949 0.739999 360.349 0.739999C360.749 0.739999 361.055 0.846666 361.269 1.06C361.495 1.27333 361.609 1.58667 361.609 2V11.34C361.609 11.9533 361.735 12.4067 361.989 12.7C362.255 12.9933 362.629 13.14 363.109 13.14C363.215 13.14 363.315 13.14 363.409 13.14C363.502 13.1267 363.595 13.1133 363.689 13.1C363.875 13.0733 364.002 13.1267 364.069 13.26C364.135 13.38 364.169 13.6333 364.169 14.02C364.169 14.3533 364.102 14.6133 363.969 14.8C363.835 14.9867 363.615 15.1 363.309 15.14C363.175 15.1533 363.035 15.1667 362.889 15.18C362.742 15.1933 362.595 15.2 362.449 15.2ZM370.218 15.2C369.111 15.2 368.158 14.9933 367.358 14.58C366.558 14.1667 365.938 13.58 365.498 12.82C365.071 12.06 364.858 11.16 364.858 10.12C364.858 9.10667 365.064 8.22 365.478 7.46C365.904 6.7 366.484 6.10667 367.218 5.68C367.964 5.24 368.811 5.02 369.758 5.02C370.451 5.02 371.071 5.13333 371.618 5.36C372.178 5.58667 372.651 5.91333 373.038 6.34C373.438 6.76667 373.738 7.28667 373.938 7.9C374.151 8.5 374.258 9.18 374.258 9.94C374.258 10.18 374.171 10.3667 373.998 10.5C373.838 10.62 373.604 10.68 373.298 10.68H366.878V9.24H372.498L372.178 9.54C372.178 8.92667 372.084 8.41333 371.898 8C371.724 7.58667 371.464 7.27333 371.118 7.06C370.784 6.83333 370.364 6.72 369.858 6.72C369.298 6.72 368.818 6.85333 368.418 7.12C368.031 7.37333 367.731 7.74 367.518 8.22C367.318 8.68667 367.218 9.24667 367.218 9.9V10.04C367.218 11.1333 367.471 11.9533 367.978 12.5C368.498 13.0333 369.258 13.3 370.258 13.3C370.604 13.3 370.991 13.26 371.418 13.18C371.858 13.0867 372.271 12.9333 372.658 12.72C372.938 12.56 373.184 12.4933 373.398 12.52C373.611 12.5333 373.778 12.6067 373.898 12.74C374.031 12.8733 374.111 13.04 374.138 13.24C374.164 13.4267 374.124 13.62 374.018 13.82C373.924 14.02 373.758 14.1933 373.518 14.34C373.051 14.6333 372.511 14.8533 371.898 15C371.298 15.1333 370.738 15.2 370.218 15.2ZM379.578 15.2C378.471 15.2 377.638 14.8867 377.078 14.26C376.518 13.62 376.238 12.6867 376.238 11.46V2C376.238 1.58667 376.344 1.27333 376.558 1.06C376.771 0.846666 377.078 0.739999 377.478 0.739999C377.878 0.739999 378.184 0.846666 378.398 1.06C378.624 1.27333 378.738 1.58667 378.738 2V11.34C378.738 11.9533 378.864 12.4067 379.118 12.7C379.384 12.9933 379.758 13.14 380.238 13.14C380.344 13.14 380.444 13.14 380.538 13.14C380.631 13.1267 380.724 13.1133 380.817 13.1C381.004 13.0733 381.131 13.1267 381.198 13.26C381.264 13.38 381.298 13.6333 381.298 14.02C381.298 14.3533 381.231 14.6133 381.098 14.8C380.964 14.9867 380.744 15.1 380.438 15.14C380.304 15.1533 380.164 15.1667 380.018 15.18C379.871 15.1933 379.724 15.2 379.578 15.2ZM392.534 15.2C391.667 15.2 390.941 15.0533 390.354 14.76C389.781 14.4667 389.354 14.04 389.074 13.48C388.794 12.9067 388.654 12.2 388.654 11.36V7.1H387.614C387.294 7.1 387.047 7.02 386.874 6.86C386.701 6.68667 386.614 6.45333 386.614 6.16C386.614 5.85333 386.701 5.62 386.874 5.46C387.047 5.3 387.294 5.22 387.614 5.22H388.654V3.4C388.654 2.98667 388.761 2.67333 388.974 2.46C389.201 2.24667 389.514 2.14 389.914 2.14C390.314 2.14 390.621 2.24667 390.834 2.46C391.047 2.67333 391.154 2.98667 391.154 3.4V5.22H393.274C393.594 5.22 393.841 5.3 394.014 5.46C394.187 5.62 394.274 5.85333 394.274 6.16C394.274 6.45333 394.187 6.68667 394.014 6.86C393.841 7.02 393.594 7.1 393.274 7.1H391.154V11.22C391.154 11.86 391.294 12.34 391.574 12.66C391.854 12.98 392.307 13.14 392.934 13.14C393.161 13.14 393.361 13.12 393.534 13.08C393.707 13.04 393.861 13.0133 393.994 13C394.154 12.9867 394.287 13.04 394.394 13.16C394.501 13.2667 394.554 13.4933 394.554 13.84C394.554 14.1067 394.507 14.3467 394.414 14.56C394.334 14.76 394.181 14.9 393.954 14.98C393.781 15.0333 393.554 15.08 393.274 15.12C392.994 15.1733 392.747 15.2 392.534 15.2ZM400.092 15.2C399.079 15.2 398.199 14.9933 397.452 14.58C396.705 14.1667 396.125 13.58 395.712 12.82C395.299 12.0467 395.092 11.14 395.092 10.1C395.092 9.31333 395.205 8.61333 395.432 8C395.672 7.37333 396.012 6.84 396.452 6.4C396.892 5.94667 397.419 5.60667 398.032 5.38C398.645 5.14 399.332 5.02 400.092 5.02C401.105 5.02 401.985 5.22667 402.732 5.64C403.479 6.05333 404.059 6.64 404.472 7.4C404.885 8.16 405.092 9.06 405.092 10.1C405.092 10.8867 404.972 11.5933 404.732 12.22C404.505 12.8467 404.172 13.3867 403.732 13.84C403.292 14.28 402.765 14.62 402.152 14.86C401.539 15.0867 400.852 15.2 400.092 15.2ZM400.092 13.3C400.585 13.3 401.019 13.18 401.392 12.94C401.765 12.7 402.052 12.3467 402.252 11.88C402.465 11.4 402.572 10.8067 402.572 10.1C402.572 9.03333 402.345 8.24 401.892 7.72C401.439 7.18667 400.839 6.92 400.092 6.92C399.599 6.92 399.165 7.04 398.792 7.28C398.419 7.50667 398.125 7.86 397.912 8.34C397.712 8.80667 397.612 9.39333 397.612 10.1C397.612 11.1533 397.839 11.9533 398.292 12.5C398.745 13.0333 399.345 13.3 400.092 13.3ZM417.065 15.2C416.198 15.2 415.472 15.0533 414.885 14.76C414.312 14.4667 413.885 14.04 413.605 13.48C413.325 12.9067 413.185 12.2 413.185 11.36V7.1H412.145C411.825 7.1 411.578 7.02 411.405 6.86C411.232 6.68667 411.145 6.45333 411.145 6.16C411.145 5.85333 411.232 5.62 411.405 5.46C411.578 5.3 411.825 5.22 412.145 5.22H413.185V3.4C413.185 2.98667 413.292 2.67333 413.505 2.46C413.732 2.24667 414.045 2.14 414.445 2.14C414.845 2.14 415.152 2.24667 415.365 2.46C415.578 2.67333 415.685 2.98667 415.685 3.4V5.22H417.805C418.125 5.22 418.372 5.3 418.545 5.46C418.718 5.62 418.805 5.85333 418.805 6.16C418.805 6.45333 418.718 6.68667 418.545 6.86C418.372 7.02 418.125 7.1 417.805 7.1H415.685V11.22C415.685 11.86 415.825 12.34 416.105 12.66C416.385 12.98 416.838 13.14 417.465 13.14C417.692 13.14 417.892 13.12 418.065 13.08C418.238 13.04 418.392 13.0133 418.525 13C418.685 12.9867 418.818 13.04 418.925 13.16C419.032 13.2667 419.085 13.4933 419.085 13.84C419.085 14.1067 419.038 14.3467 418.945 14.56C418.865 14.76 418.712 14.9 418.485 14.98C418.312 15.0333 418.085 15.08 417.805 15.12C417.525 15.1733 417.278 15.2 417.065 15.2ZM421.755 15.16C421.355 15.16 421.048 15.0533 420.835 14.84C420.622 14.6133 420.515 14.2933 420.515 13.88V2C420.515 1.58667 420.622 1.27333 420.835 1.06C421.048 0.846666 421.355 0.739999 421.755 0.739999C422.155 0.739999 422.462 0.846666 422.675 1.06C422.902 1.27333 423.015 1.58667 423.015 2V7.18H422.735C423.028 6.47333 423.482 5.94 424.095 5.58C424.722 5.20667 425.428 5.02 426.215 5.02C427.002 5.02 427.648 5.16667 428.155 5.46C428.662 5.75333 429.042 6.2 429.295 6.8C429.548 7.38667 429.675 8.13333 429.675 9.04V13.88C429.675 14.2933 429.568 14.6133 429.355 14.84C429.142 15.0533 428.835 15.16 428.435 15.16C428.035 15.16 427.722 15.0533 427.495 14.84C427.282 14.6133 427.175 14.2933 427.175 13.88V9.16C427.175 8.4 427.028 7.84667 426.735 7.5C426.455 7.15333 426.015 6.98 425.415 6.98C424.682 6.98 424.095 7.21333 423.655 7.68C423.228 8.13333 423.015 8.74 423.015 9.5V13.88C423.015 14.7333 422.595 15.16 421.755 15.16ZM437.034 15.2C435.927 15.2 434.974 14.9933 434.174 14.58C433.374 14.1667 432.754 13.58 432.314 12.82C431.887 12.06 431.674 11.16 431.674 10.12C431.674 9.10667 431.881 8.22 432.294 7.46C432.721 6.7 433.301 6.10667 434.034 5.68C434.781 5.24 435.627 5.02 436.574 5.02C437.267 5.02 437.887 5.13333 438.434 5.36C438.994 5.58667 439.467 5.91333 439.854 6.34C440.254 6.76667 440.554 7.28667 440.754 7.9C440.967 8.5 441.074 9.18 441.074 9.94C441.074 10.18 440.987 10.3667 440.814 10.5C440.654 10.62 440.421 10.68 440.114 10.68H433.694V9.24H439.314L438.994 9.54C438.994 8.92667 438.901 8.41333 438.714 8C438.541 7.58667 438.281 7.27333 437.934 7.06C437.601 6.83333 437.181 6.72 436.674 6.72C436.114 6.72 435.634 6.85333 435.234 7.12C434.847 7.37333 434.547 7.74 434.334 8.22C434.134 8.68667 434.034 9.24667 434.034 9.9V10.04C434.034 11.1333 434.287 11.9533 434.794 12.5C435.314 13.0333 436.074 13.3 437.074 13.3C437.421 13.3 437.807 13.26 438.234 13.18C438.674 13.0867 439.087 12.9333 439.474 12.72C439.754 12.56 440.001 12.4933 440.214 12.52C440.427 12.5333 440.594 12.6067 440.714 12.74C440.847 12.8733 440.927 13.04 440.954 13.24C440.981 13.4267 440.941 13.62 440.834 13.82C440.741 14.02 440.574 14.1933 440.334 14.34C439.867 14.6333 439.327 14.8533 438.714 15C438.114 15.1333 437.554 15.2 437.034 15.2ZM450.964 18.76C450.67 18.76 450.43 18.68 450.244 18.52C450.057 18.3733 449.944 18.1733 449.904 17.92C449.877 17.6667 449.924 17.4 450.044 17.12L451.404 14.1V15.14L447.764 6.72C447.644 6.42667 447.604 6.15333 447.644 5.9C447.684 5.64667 447.804 5.44667 448.004 5.3C448.217 5.14 448.504 5.06 448.864 5.06C449.17 5.06 449.417 5.13333 449.604 5.28C449.79 5.41333 449.957 5.67333 450.104 6.06L452.804 12.8H452.204L454.964 6.04C455.11 5.66667 455.284 5.41333 455.484 5.28C455.684 5.13333 455.95 5.06 456.284 5.06C456.577 5.06 456.81 5.14 456.984 5.3C457.157 5.44667 457.264 5.64667 457.304 5.9C457.344 6.14 457.297 6.40667 457.164 6.7L452.304 17.8C452.13 18.1733 451.944 18.4267 451.744 18.56C451.544 18.6933 451.284 18.76 450.964 18.76ZM459.579 10.64C459.286 10.64 459.039 10.5467 458.839 10.36C458.653 10.16 458.559 9.92 458.559 9.64C458.559 9.34667 458.653 9.10667 458.839 8.92C459.039 8.73333 459.286 8.64 459.579 8.64H463.839C464.119 8.64 464.353 8.73333 464.539 8.92C464.739 9.10667 464.839 9.34667 464.839 9.64C464.839 9.92 464.739 10.16 464.539 10.36C464.353 10.5467 464.119 10.64 463.839 10.64H459.579ZM470.551 15.2C469.845 15.2 469.211 15.0667 468.651 14.8C468.105 14.52 467.671 14.1467 467.351 13.68C467.045 13.2133 466.891 12.6867 466.891 12.1C466.891 11.38 467.078 10.8133 467.451 10.4C467.825 9.97333 468.431 9.66667 469.271 9.48C470.111 9.29333 471.238 9.2 472.651 9.2H473.651V10.64H472.671C471.845 10.64 471.185 10.68 470.691 10.76C470.198 10.84 469.845 10.98 469.631 11.18C469.431 11.3667 469.331 11.6333 469.331 11.98C469.331 12.42 469.485 12.78 469.791 13.06C470.098 13.34 470.525 13.48 471.071 13.48C471.511 13.48 471.898 13.38 472.231 13.18C472.578 12.9667 472.851 12.68 473.051 12.32C473.251 11.96 473.351 11.5467 473.351 11.08V8.78C473.351 8.11333 473.205 7.63333 472.911 7.34C472.618 7.04667 472.125 6.9 471.431 6.9C471.045 6.9 470.625 6.94667 470.171 7.04C469.731 7.13333 469.265 7.29333 468.771 7.52C468.518 7.64 468.291 7.67333 468.091 7.62C467.905 7.56667 467.758 7.46 467.651 7.3C467.545 7.12667 467.491 6.94 467.491 6.74C467.491 6.54 467.545 6.34667 467.651 6.16C467.758 5.96 467.938 5.81333 468.191 5.72C468.805 5.46667 469.391 5.28667 469.951 5.18C470.525 5.07333 471.045 5.02 471.511 5.02C472.471 5.02 473.258 5.16667 473.871 5.46C474.498 5.75333 474.965 6.2 475.271 6.8C475.578 7.38667 475.731 8.14667 475.731 9.08V13.88C475.731 14.2933 475.631 14.6133 475.431 14.84C475.231 15.0533 474.945 15.16 474.571 15.16C474.198 15.16 473.905 15.0533 473.691 14.84C473.491 14.6133 473.391 14.2933 473.391 13.88V12.92H473.551C473.458 13.3867 473.271 13.7933 472.991 14.14C472.725 14.4733 472.385 14.7333 471.971 14.92C471.558 15.1067 471.085 15.2 470.551 15.2ZM478.949 15.1C478.655 15.1 478.409 15.02 478.209 14.86C478.022 14.6867 477.922 14.4667 477.909 14.2C477.909 13.9333 478.022 13.6533 478.249 13.36L481.489 9.36V10.54L478.449 6.8C478.209 6.50667 478.095 6.22667 478.109 5.96C478.122 5.69333 478.222 5.48 478.409 5.32C478.609 5.14667 478.855 5.06 479.149 5.06C479.455 5.06 479.709 5.11333 479.909 5.22C480.122 5.32667 480.315 5.49333 480.489 5.72L482.889 8.8H482.009L484.429 5.72C484.615 5.49333 484.809 5.32667 485.009 5.22C485.209 5.11333 485.455 5.06 485.749 5.06C486.055 5.06 486.302 5.14667 486.489 5.32C486.675 5.49333 486.769 5.71333 486.769 5.98C486.782 6.24667 486.669 6.52667 486.429 6.82L483.409 10.52V9.4L486.649 13.36C486.889 13.64 487.002 13.9133 486.989 14.18C486.975 14.4467 486.869 14.6667 486.669 14.84C486.482 15.0133 486.235 15.1 485.929 15.1C485.635 15.1 485.389 15.0467 485.189 14.94C484.989 14.8333 484.795 14.6667 484.609 14.44L482.009 11.16H482.849L480.269 14.44C480.095 14.6533 479.909 14.82 479.709 14.94C479.509 15.0467 479.255 15.1 478.949 15.1ZM490.427 15.14C490.027 15.14 489.72 15.02 489.507 14.78C489.293 14.54 489.187 14.2067 489.187 13.78V6.44C489.187 6 489.293 5.66667 489.507 5.44C489.72 5.2 490.027 5.08 490.427 5.08C490.827 5.08 491.133 5.2 491.347 5.44C491.573 5.66667 491.687 6 491.687 6.44V13.78C491.687 14.2067 491.58 14.54 491.367 14.78C491.153 15.02 490.84 15.14 490.427 15.14ZM490.427 3.22C489.96 3.22 489.593 3.10667 489.327 2.88C489.073 2.64 488.947 2.31333 488.947 1.9C488.947 1.47333 489.073 1.14667 489.327 0.919999C489.593 0.693333 489.96 0.58 490.427 0.58C490.907 0.58 491.273 0.693333 491.527 0.919999C491.78 1.14667 491.907 1.47333 491.907 1.9C491.907 2.31333 491.78 2.64 491.527 2.88C491.273 3.10667 490.907 3.22 490.427 3.22ZM497.864 15.2C497.291 15.2 496.684 15.14 496.044 15.02C495.404 14.9 494.831 14.6933 494.324 14.4C494.111 14.2667 493.958 14.1133 493.864 13.94C493.784 13.7533 493.751 13.5733 493.764 13.4C493.791 13.2133 493.858 13.0533 493.964 12.92C494.084 12.7867 494.231 12.7 494.404 12.66C494.591 12.62 494.791 12.6533 495.004 12.76C495.538 13.0133 496.038 13.1933 496.504 13.3C496.971 13.3933 497.431 13.44 497.884 13.44C498.524 13.44 498.998 13.3333 499.304 13.12C499.624 12.8933 499.784 12.6 499.784 12.24C499.784 11.9333 499.678 11.7 499.464 11.54C499.264 11.3667 498.958 11.24 498.544 11.16L496.544 10.78C495.718 10.62 495.084 10.32 494.644 9.88C494.218 9.42667 494.004 8.84667 494.004 8.14C494.004 7.5 494.178 6.94667 494.524 6.48C494.884 6.01333 495.378 5.65333 496.004 5.4C496.631 5.14667 497.351 5.02 498.164 5.02C498.751 5.02 499.298 5.08667 499.804 5.22C500.324 5.34 500.824 5.53333 501.304 5.8C501.504 5.90667 501.638 6.04667 501.704 6.22C501.784 6.39333 501.804 6.57333 501.764 6.76C501.724 6.93333 501.644 7.09333 501.524 7.24C501.404 7.37333 501.251 7.46 501.064 7.5C500.891 7.52667 500.691 7.48667 500.464 7.38C500.051 7.16667 499.651 7.01333 499.264 6.92C498.891 6.82667 498.531 6.78 498.184 6.78C497.531 6.78 497.044 6.89333 496.724 7.12C496.418 7.34667 496.264 7.64667 496.264 8.02C496.264 8.3 496.358 8.53333 496.544 8.72C496.731 8.90667 497.018 9.03333 497.404 9.1L499.404 9.48C500.271 9.64 500.924 9.93333 501.364 10.36C501.818 10.7867 502.044 11.36 502.044 12.08C502.044 13.0533 501.664 13.82 500.904 14.38C500.144 14.9267 499.131 15.2 497.864 15.2ZM505.152 15.1C504.699 15.1 504.332 14.96 504.052 14.68C503.786 14.4 503.652 14.04 503.652 13.6C503.652 13.1733 503.786 12.8267 504.052 12.56C504.332 12.28 504.699 12.14 505.152 12.14C505.619 12.14 505.979 12.28 506.232 12.56C506.499 12.8267 506.632 13.1733 506.632 13.6C506.632 14.04 506.499 14.4 506.232 14.68C505.979 14.96 505.619 15.1 505.152 15.1Z" fill="#444444"/>
</svg>
