<svg width="477" height="19" viewBox="0 0 477 19" fill="none" xmlns="http://www.w3.org/2000/svg">
<path d="M6.47617 15.2C5.50284 15.2 4.64284 15.0733 3.89617 14.82C3.16284 14.5667 2.54284 14.1933 2.03617 13.7C1.52951 13.1933 1.14951 12.5667 0.896172 11.82C0.642839 11.0733 0.516172 10.2067 0.516172 9.22V2.04C0.516172 1.6 0.622839 1.27333 0.836172 1.06C1.06284 0.846666 1.38284 0.739999 1.79617 0.739999C2.20951 0.739999 2.52284 0.846666 2.73617 1.06C2.96284 1.27333 3.07617 1.6 3.07617 2.04V9.2C3.07617 10.4667 3.36284 11.42 3.93617 12.06C4.52284 12.6867 5.36951 13 6.47617 13C7.58284 13 8.42284 12.6867 8.99617 12.06C9.56951 11.42 9.85617 10.4667 9.85617 9.2V2.04C9.85617 1.6 9.96284 1.27333 10.1762 1.06C10.4028 0.846666 10.7228 0.739999 11.1362 0.739999C11.5362 0.739999 11.8428 0.846666 12.0562 1.06C12.2828 1.27333 12.3962 1.6 12.3962 2.04V9.22C12.3962 10.5267 12.1695 11.6267 11.7162 12.52C11.2762 13.4133 10.6162 14.0867 9.73617 14.54C8.85617 14.98 7.76951 15.2 6.47617 15.2ZM16.3818 15.16C15.9818 15.16 15.6751 15.0533 15.4618 14.84C15.2485 14.6133 15.1418 14.2933 15.1418 13.88V2C15.1418 1.58667 15.2485 1.27333 15.4618 1.06C15.6751 0.846666 15.9818 0.739999 16.3818 0.739999C16.7818 0.739999 17.0885 0.846666 17.3018 1.06C17.5285 1.27333 17.6418 1.58667 17.6418 2V7.18H17.3618C17.6551 6.47333 18.1085 5.94 18.7218 5.58C19.3485 5.20667 20.0551 5.02 20.8418 5.02C21.6285 5.02 22.2751 5.16667 22.7818 5.46C23.2885 5.75333 23.6685 6.2 23.9218 6.8C24.1751 7.38667 24.3018 8.13333 24.3018 9.04V13.88C24.3018 14.2933 24.1951 14.6133 23.9818 14.84C23.7685 15.0533 23.4618 15.16 23.0618 15.16C22.6618 15.16 22.3485 15.0533 22.1218 14.84C21.9085 14.6133 21.8018 14.2933 21.8018 13.88V9.16C21.8018 8.4 21.6551 7.84667 21.3618 7.5C21.0818 7.15333 20.6418 6.98 20.0418 6.98C19.3085 6.98 18.7218 7.21333 18.2818 7.68C17.8551 8.13333 17.6418 8.74 17.6418 9.5V13.88C17.6418 14.7333 17.2218 15.16 16.3818 15.16ZM27.761 10.64C27.4677 10.64 27.221 10.5467 27.021 10.36C26.8343 10.16 26.741 9.92 26.741 9.64C26.741 9.34667 26.8343 9.10667 27.021 8.92C27.221 8.73333 27.4677 8.64 27.761 8.64H32.021C32.301 8.64 32.5343 8.73333 32.721 8.92C32.921 9.10667 33.021 9.34667 33.021 9.64C33.021 9.92 32.921 10.16 32.721 10.36C32.5343 10.5467 32.301 10.64 32.021 10.64H27.761ZM40.2659 15.2C39.2525 15.2 38.3725 14.9933 37.6259 14.58C36.8792 14.1667 36.2992 13.58 35.8859 12.82C35.4725 12.0467 35.2659 11.14 35.2659 10.1C35.2659 9.31333 35.3792 8.61333 35.6059 8C35.8459 7.37333 36.1859 6.84 36.6259 6.4C37.0659 5.94667 37.5925 5.60667 38.2059 5.38C38.8192 5.14 39.5059 5.02 40.2659 5.02C41.2792 5.02 42.1592 5.22667 42.9059 5.64C43.6525 6.05333 44.2325 6.64 44.6459 7.4C45.0592 8.16 45.2659 9.06 45.2659 10.1C45.2659 10.8867 45.1459 11.5933 44.9059 12.22C44.6792 12.8467 44.3459 13.3867 43.9059 13.84C43.4659 14.28 42.9392 14.62 42.3259 14.86C41.7125 15.0867 41.0259 15.2 40.2659 15.2ZM40.2659 13.3C40.7592 13.3 41.1925 13.18 41.5659 12.94C41.9392 12.7 42.2259 12.3467 42.4259 11.88C42.6392 11.4 42.7459 10.8067 42.7459 10.1C42.7459 9.03333 42.5192 8.24 42.0659 7.72C41.6125 7.18667 41.0125 6.92 40.2659 6.92C39.7725 6.92 39.3392 7.04 38.9659 7.28C38.5925 7.50667 38.2992 7.86 38.0859 8.34C37.8859 8.80667 37.7859 9.39333 37.7859 10.1C37.7859 11.1533 38.0125 11.9533 38.4659 12.5C38.9192 13.0333 39.5192 13.3 40.2659 13.3ZM48.5693 15.16C48.1693 15.16 47.8626 15.0533 47.6493 14.84C47.436 14.6133 47.3293 14.2933 47.3293 13.88V2C47.3293 1.58667 47.436 1.27333 47.6493 1.06C47.8626 0.846666 48.1693 0.739999 48.5693 0.739999C48.9693 0.739999 49.276 0.846666 49.4893 1.06C49.716 1.27333 49.8293 1.58667 49.8293 2V7.18H49.5493C49.8426 6.47333 50.296 5.94 50.9093 5.58C51.536 5.20667 52.2426 5.02 53.0293 5.02C53.816 5.02 54.4626 5.16667 54.9693 5.46C55.476 5.75333 55.856 6.2 56.1093 6.8C56.3626 7.38667 56.4893 8.13333 56.4893 9.04V13.88C56.4893 14.2933 56.3826 14.6133 56.1693 14.84C55.956 15.0533 55.6493 15.16 55.2493 15.16C54.8493 15.16 54.536 15.0533 54.3093 14.84C54.096 14.6133 53.9893 14.2933 53.9893 13.88V9.16C53.9893 8.4 53.8426 7.84667 53.5493 7.5C53.2693 7.15333 52.8293 6.98 52.2293 6.98C51.496 6.98 50.9093 7.21333 50.4693 7.68C50.0426 8.13333 49.8293 8.74 49.8293 9.5V13.88C49.8293 14.7333 49.4093 15.16 48.5693 15.16ZM60.2285 10.94C59.9752 10.94 59.7752 10.86 59.6285 10.7C59.4952 10.54 59.4152 10.3133 59.3885 10.02L58.7885 2.38C58.7485 1.88667 58.8552 1.49333 59.1085 1.2C59.3618 0.893332 59.7352 0.739999 60.2285 0.739999C60.7085 0.739999 61.0685 0.893332 61.3085 1.2C61.5618 1.49333 61.6685 1.88667 61.6285 2.38L61.0285 10.02C61.0152 10.3133 60.9352 10.54 60.7885 10.7C60.6552 10.86 60.4685 10.94 60.2285 10.94ZM60.2285 15.1C59.7752 15.1 59.4085 14.96 59.1285 14.68C58.8618 14.4 58.7285 14.04 58.7285 13.6C58.7285 13.1733 58.8618 12.8267 59.1285 12.56C59.4085 12.28 59.7752 12.14 60.2285 12.14C60.6952 12.14 61.0552 12.28 61.3085 12.56C61.5752 12.8267 61.7085 13.1733 61.7085 13.6C61.7085 14.04 61.5752 14.4 61.3085 14.68C61.0552 14.96 60.6952 15.1 60.2285 15.1ZM70.8591 15.16C70.4858 15.16 70.1991 15.0533 69.9991 14.84C69.7991 14.6267 69.6991 14.3333 69.6991 13.96V1.94C69.6991 1.55333 69.8058 1.26 70.0191 1.06C70.2325 0.846666 70.5258 0.739999 70.8991 0.739999C71.2325 0.739999 71.4925 0.806666 71.6791 0.94C71.8791 1.06 72.0591 1.27333 72.2191 1.58L77.1591 10.72H76.5191L81.4591 1.58C81.6191 1.27333 81.7925 1.06 81.9791 0.94C82.1658 0.806666 82.4258 0.739999 82.7591 0.739999C83.1325 0.739999 83.4191 0.846666 83.6191 1.06C83.8191 1.26 83.9191 1.55333 83.9191 1.94V13.96C83.9191 14.3333 83.8191 14.6267 83.6191 14.84C83.4325 15.0533 83.1458 15.16 82.7591 15.16C82.3858 15.16 82.0991 15.0533 81.8991 14.84C81.6991 14.6267 81.5991 14.3333 81.5991 13.96V4.7H82.0391L77.8391 12.36C77.7058 12.5867 77.5658 12.7533 77.4191 12.86C77.2725 12.9667 77.0725 13.02 76.8191 13.02C76.5658 13.02 76.3591 12.9667 76.1991 12.86C76.0391 12.74 75.8991 12.5733 75.7791 12.36L71.5391 4.68H72.0191V13.96C72.0191 14.3333 71.9191 14.6267 71.7191 14.84C71.5325 15.0533 71.2458 15.16 70.8591 15.16ZM90.0024 15.2C89.2958 15.2 88.6624 15.0667 88.1024 14.8C87.5558 14.52 87.1224 14.1467 86.8024 13.68C86.4958 13.2133 86.3424 12.6867 86.3424 12.1C86.3424 11.38 86.5291 10.8133 86.9024 10.4C87.2758 9.97333 87.8824 9.66667 88.7224 9.48C89.5624 9.29333 90.6891 9.2 92.1024 9.2H93.1024V10.64H92.1224C91.2958 10.64 90.6358 10.68 90.1424 10.76C89.6491 10.84 89.2958 10.98 89.0824 11.18C88.8824 11.3667 88.7824 11.6333 88.7824 11.98C88.7824 12.42 88.9358 12.78 89.2424 13.06C89.5491 13.34 89.9758 13.48 90.5224 13.48C90.9624 13.48 91.3491 13.38 91.6824 13.18C92.0291 12.9667 92.3024 12.68 92.5024 12.32C92.7024 11.96 92.8024 11.5467 92.8024 11.08V8.78C92.8024 8.11333 92.6558 7.63333 92.3624 7.34C92.0691 7.04667 91.5758 6.9 90.8824 6.9C90.4958 6.9 90.0758 6.94667 89.6224 7.04C89.1824 7.13333 88.7158 7.29333 88.2224 7.52C87.9691 7.64 87.7424 7.67333 87.5424 7.62C87.3558 7.56667 87.2091 7.46 87.1024 7.3C86.9958 7.12667 86.9424 6.94 86.9424 6.74C86.9424 6.54 86.9958 6.34667 87.1024 6.16C87.2091 5.96 87.3891 5.81333 87.6424 5.72C88.2558 5.46667 88.8424 5.28667 89.4024 5.18C89.9758 5.07333 90.4958 5.02 90.9624 5.02C91.9224 5.02 92.7091 5.16667 93.3224 5.46C93.9491 5.75333 94.4158 6.2 94.7224 6.8C95.0291 7.38667 95.1824 8.14667 95.1824 9.08V13.88C95.1824 14.2933 95.0824 14.6133 94.8824 14.84C94.6824 15.0533 94.3958 15.16 94.0224 15.16C93.6491 15.16 93.3558 15.0533 93.1424 14.84C92.9424 14.6133 92.8424 14.2933 92.8424 13.88V12.92H93.0024C92.9091 13.3867 92.7224 13.7933 92.4424 14.14C92.1758 14.4733 91.8358 14.7333 91.4224 14.92C91.0091 15.1067 90.5358 15.2 90.0024 15.2ZM98.9599 15.16C98.5599 15.16 98.2533 15.0533 98.0399 14.84C97.8266 14.6133 97.7199 14.2933 97.7199 13.88V2C97.7199 1.58667 97.8266 1.27333 98.0399 1.06C98.2533 0.846666 98.5599 0.739999 98.9599 0.739999C99.3599 0.739999 99.6666 0.846666 99.8799 1.06C100.107 1.27333 100.22 1.58667 100.22 2V9.38H100.26L103.56 5.9C103.827 5.63333 104.06 5.42667 104.26 5.28C104.46 5.13333 104.733 5.06 105.08 5.06C105.427 5.06 105.687 5.15333 105.86 5.34C106.047 5.51333 106.14 5.72667 106.14 5.98C106.14 6.23333 106.02 6.48667 105.78 6.74L102.3 10.42V9.38L106.12 13.5C106.36 13.7533 106.467 14.0133 106.44 14.28C106.427 14.5333 106.32 14.7467 106.12 14.92C105.92 15.08 105.667 15.16 105.36 15.16C104.987 15.16 104.687 15.0867 104.46 14.94C104.247 14.7933 104.007 14.5733 103.74 14.28L100.26 10.64H100.22V13.88C100.22 14.7333 99.7999 15.16 98.9599 15.16ZM113.067 15.2C111.961 15.2 111.007 14.9933 110.207 14.58C109.407 14.1667 108.787 13.58 108.347 12.82C107.921 12.06 107.707 11.16 107.707 10.12C107.707 9.10667 107.914 8.22 108.327 7.46C108.754 6.7 109.334 6.10667 110.067 5.68C110.814 5.24 111.661 5.02 112.607 5.02C113.301 5.02 113.921 5.13333 114.467 5.36C115.027 5.58667 115.501 5.91333 115.887 6.34C116.287 6.76667 116.587 7.28667 116.787 7.9C117.001 8.5 117.107 9.18 117.107 9.94C117.107 10.18 117.021 10.3667 116.847 10.5C116.687 10.62 116.454 10.68 116.147 10.68H109.727V9.24H115.347L115.027 9.54C115.027 8.92667 114.934 8.41333 114.747 8C114.574 7.58667 114.314 7.27333 113.967 7.06C113.634 6.83333 113.214 6.72 112.707 6.72C112.147 6.72 111.667 6.85333 111.267 7.12C110.881 7.37333 110.581 7.74 110.367 8.22C110.167 8.68667 110.067 9.24667 110.067 9.9V10.04C110.067 11.1333 110.321 11.9533 110.827 12.5C111.347 13.0333 112.107 13.3 113.107 13.3C113.454 13.3 113.841 13.26 114.267 13.18C114.707 13.0867 115.121 12.9333 115.507 12.72C115.787 12.56 116.034 12.4933 116.247 12.52C116.461 12.5333 116.627 12.6067 116.747 12.74C116.881 12.8733 116.961 13.04 116.987 13.24C117.014 13.4267 116.974 13.62 116.867 13.82C116.774 14.02 116.607 14.1933 116.367 14.34C115.901 14.6333 115.361 14.8533 114.747 15C114.147 15.1333 113.587 15.2 113.067 15.2ZM127.737 15.2C127.03 15.2 126.397 15.0667 125.837 14.8C125.29 14.52 124.857 14.1467 124.537 13.68C124.23 13.2133 124.077 12.6867 124.077 12.1C124.077 11.38 124.263 10.8133 124.637 10.4C125.01 9.97333 125.617 9.66667 126.457 9.48C127.297 9.29333 128.423 9.2 129.837 9.2H130.837V10.64H129.857C129.03 10.64 128.37 10.68 127.877 10.76C127.383 10.84 127.03 10.98 126.817 11.18C126.617 11.3667 126.517 11.6333 126.517 11.98C126.517 12.42 126.67 12.78 126.977 13.06C127.283 13.34 127.71 13.48 128.257 13.48C128.697 13.48 129.083 13.38 129.417 13.18C129.763 12.9667 130.037 12.68 130.237 12.32C130.437 11.96 130.537 11.5467 130.537 11.08V8.78C130.537 8.11333 130.39 7.63333 130.097 7.34C129.803 7.04667 129.31 6.9 128.617 6.9C128.23 6.9 127.81 6.94667 127.357 7.04C126.917 7.13333 126.45 7.29333 125.957 7.52C125.703 7.64 125.477 7.67333 125.277 7.62C125.09 7.56667 124.943 7.46 124.837 7.3C124.73 7.12667 124.677 6.94 124.677 6.74C124.677 6.54 124.73 6.34667 124.837 6.16C124.943 5.96 125.123 5.81333 125.377 5.72C125.99 5.46667 126.577 5.28667 127.137 5.18C127.71 5.07333 128.23 5.02 128.697 5.02C129.657 5.02 130.443 5.16667 131.057 5.46C131.683 5.75333 132.15 6.2 132.457 6.8C132.763 7.38667 132.917 8.14667 132.917 9.08V13.88C132.917 14.2933 132.817 14.6133 132.617 14.84C132.417 15.0533 132.13 15.16 131.757 15.16C131.383 15.16 131.09 15.0533 130.877 14.84C130.677 14.6133 130.577 14.2933 130.577 13.88V12.92H130.737C130.643 13.3867 130.457 13.7933 130.177 14.14C129.91 14.4733 129.57 14.7333 129.157 14.92C128.743 15.1067 128.27 15.2 127.737 15.2ZM144.224 15.2C143.117 15.2 142.284 14.8867 141.724 14.26C141.164 13.62 140.884 12.6867 140.884 11.46V2C140.884 1.58667 140.991 1.27333 141.204 1.06C141.417 0.846666 141.724 0.739999 142.124 0.739999C142.524 0.739999 142.831 0.846666 143.044 1.06C143.271 1.27333 143.384 1.58667 143.384 2V11.34C143.384 11.9533 143.511 12.4067 143.764 12.7C144.031 12.9933 144.404 13.14 144.884 13.14C144.991 13.14 145.091 13.14 145.184 13.14C145.277 13.1267 145.371 13.1133 145.464 13.1C145.651 13.0733 145.777 13.1267 145.844 13.26C145.911 13.38 145.944 13.6333 145.944 14.02C145.944 14.3533 145.877 14.6133 145.744 14.8C145.611 14.9867 145.391 15.1 145.084 15.14C144.951 15.1533 144.811 15.1667 144.664 15.18C144.517 15.1933 144.371 15.2 144.224 15.2ZM148.511 15.14C148.111 15.14 147.804 15.02 147.591 14.78C147.377 14.54 147.271 14.2067 147.271 13.78V6.44C147.271 6 147.377 5.66667 147.591 5.44C147.804 5.2 148.111 5.08 148.511 5.08C148.911 5.08 149.217 5.2 149.431 5.44C149.657 5.66667 149.771 6 149.771 6.44V13.78C149.771 14.2067 149.664 14.54 149.451 14.78C149.237 15.02 148.924 15.14 148.511 15.14ZM148.511 3.22C148.044 3.22 147.677 3.10667 147.411 2.88C147.157 2.64 147.031 2.31333 147.031 1.9C147.031 1.47333 147.157 1.14667 147.411 0.919999C147.677 0.693333 148.044 0.58 148.511 0.58C148.991 0.58 149.357 0.693333 149.611 0.919999C149.864 1.14667 149.991 1.47333 149.991 1.9C149.991 2.31333 149.864 2.64 149.611 2.88C149.357 3.10667 148.991 3.22 148.511 3.22ZM153.608 15.16C153.208 15.16 152.902 15.0533 152.688 14.84C152.475 14.6133 152.368 14.2933 152.368 13.88V6.32C152.368 5.90667 152.475 5.59333 152.688 5.38C152.902 5.16667 153.202 5.06 153.588 5.06C153.975 5.06 154.275 5.16667 154.488 5.38C154.702 5.59333 154.808 5.90667 154.808 6.32V7.68L154.588 7.18C154.882 6.47333 155.335 5.94 155.948 5.58C156.575 5.20667 157.282 5.02 158.068 5.02C158.855 5.02 159.502 5.16667 160.008 5.46C160.515 5.75333 160.895 6.2 161.148 6.8C161.402 7.38667 161.528 8.13333 161.528 9.04V13.88C161.528 14.2933 161.422 14.6133 161.208 14.84C160.995 15.0533 160.688 15.16 160.288 15.16C159.888 15.16 159.575 15.0533 159.348 14.84C159.135 14.6133 159.028 14.2933 159.028 13.88V9.16C159.028 8.4 158.882 7.84667 158.588 7.5C158.308 7.15333 157.868 6.98 157.268 6.98C156.535 6.98 155.948 7.21333 155.508 7.68C155.082 8.13333 154.868 8.74 154.868 9.5V13.88C154.868 14.7333 154.448 15.16 153.608 15.16ZM168.888 15.2C167.781 15.2 166.828 14.9933 166.028 14.58C165.228 14.1667 164.608 13.58 164.168 12.82C163.741 12.06 163.528 11.16 163.528 10.12C163.528 9.10667 163.734 8.22 164.148 7.46C164.574 6.7 165.154 6.10667 165.888 5.68C166.634 5.24 167.481 5.02 168.428 5.02C169.121 5.02 169.741 5.13333 170.288 5.36C170.848 5.58667 171.321 5.91333 171.708 6.34C172.108 6.76667 172.408 7.28667 172.608 7.9C172.821 8.5 172.928 9.18 172.928 9.94C172.928 10.18 172.841 10.3667 172.668 10.5C172.508 10.62 172.274 10.68 171.968 10.68H165.548V9.24H171.168L170.848 9.54C170.848 8.92667 170.754 8.41333 170.568 8C170.394 7.58667 170.134 7.27333 169.788 7.06C169.454 6.83333 169.034 6.72 168.528 6.72C167.968 6.72 167.488 6.85333 167.088 7.12C166.701 7.37333 166.401 7.74 166.188 8.22C165.988 8.68667 165.888 9.24667 165.888 9.9V10.04C165.888 11.1333 166.141 11.9533 166.648 12.5C167.168 13.0333 167.928 13.3 168.928 13.3C169.274 13.3 169.661 13.26 170.088 13.18C170.528 13.0867 170.941 12.9333 171.328 12.72C171.608 12.56 171.854 12.4933 172.068 12.52C172.281 12.5333 172.448 12.6067 172.568 12.74C172.701 12.8733 172.781 13.04 172.808 13.24C172.834 13.4267 172.794 13.62 172.688 13.82C172.594 14.02 172.428 14.1933 172.188 14.34C171.721 14.6333 171.181 14.8533 170.568 15C169.968 15.1333 169.408 15.2 168.888 15.2ZM184.817 15.2C183.95 15.2 183.224 15.0533 182.637 14.76C182.064 14.4667 181.637 14.04 181.357 13.48C181.077 12.9067 180.937 12.2 180.937 11.36V7.1H179.897C179.577 7.1 179.33 7.02 179.157 6.86C178.984 6.68667 178.897 6.45333 178.897 6.16C178.897 5.85333 178.984 5.62 179.157 5.46C179.33 5.3 179.577 5.22 179.897 5.22H180.937V3.4C180.937 2.98667 181.044 2.67333 181.257 2.46C181.484 2.24667 181.797 2.14 182.197 2.14C182.597 2.14 182.904 2.24667 183.117 2.46C183.33 2.67333 183.437 2.98667 183.437 3.4V5.22H185.557C185.877 5.22 186.124 5.3 186.297 5.46C186.47 5.62 186.557 5.85333 186.557 6.16C186.557 6.45333 186.47 6.68667 186.297 6.86C186.124 7.02 185.877 7.1 185.557 7.1H183.437V11.22C183.437 11.86 183.577 12.34 183.857 12.66C184.137 12.98 184.59 13.14 185.217 13.14C185.444 13.14 185.644 13.12 185.817 13.08C185.99 13.04 186.144 13.0133 186.277 13C186.437 12.9867 186.57 13.04 186.677 13.16C186.784 13.2667 186.837 13.4933 186.837 13.84C186.837 14.1067 186.79 14.3467 186.697 14.56C186.617 14.76 186.464 14.9 186.237 14.98C186.064 15.0333 185.837 15.08 185.557 15.12C185.277 15.1733 185.03 15.2 184.817 15.2ZM189.507 15.16C189.107 15.16 188.8 15.0533 188.587 14.84C188.373 14.6133 188.267 14.2933 188.267 13.88V2C188.267 1.58667 188.373 1.27333 188.587 1.06C188.8 0.846666 189.107 0.739999 189.507 0.739999C189.907 0.739999 190.213 0.846666 190.427 1.06C190.653 1.27333 190.767 1.58667 190.767 2V7.18H190.487C190.78 6.47333 191.233 5.94 191.847 5.58C192.473 5.20667 193.18 5.02 193.967 5.02C194.753 5.02 195.4 5.16667 195.907 5.46C196.413 5.75333 196.793 6.2 197.047 6.8C197.3 7.38667 197.427 8.13333 197.427 9.04V13.88C197.427 14.2933 197.32 14.6133 197.107 14.84C196.893 15.0533 196.587 15.16 196.187 15.16C195.787 15.16 195.473 15.0533 195.247 14.84C195.033 14.6133 194.927 14.2933 194.927 13.88V9.16C194.927 8.4 194.78 7.84667 194.487 7.5C194.207 7.15333 193.767 6.98 193.167 6.98C192.433 6.98 191.847 7.21333 191.407 7.68C190.98 8.13333 190.767 8.74 190.767 9.5V13.88C190.767 14.7333 190.347 15.16 189.507 15.16ZM203.186 15.2C202.479 15.2 201.846 15.0667 201.286 14.8C200.739 14.52 200.306 14.1467 199.986 13.68C199.679 13.2133 199.526 12.6867 199.526 12.1C199.526 11.38 199.713 10.8133 200.086 10.4C200.459 9.97333 201.066 9.66667 201.906 9.48C202.746 9.29333 203.873 9.2 205.286 9.2H206.286V10.64H205.306C204.479 10.64 203.819 10.68 203.326 10.76C202.833 10.84 202.479 10.98 202.266 11.18C202.066 11.3667 201.966 11.6333 201.966 11.98C201.966 12.42 202.119 12.78 202.426 13.06C202.733 13.34 203.159 13.48 203.706 13.48C204.146 13.48 204.533 13.38 204.866 13.18C205.213 12.9667 205.486 12.68 205.686 12.32C205.886 11.96 205.986 11.5467 205.986 11.08V8.78C205.986 8.11333 205.839 7.63333 205.546 7.34C205.253 7.04667 204.759 6.9 204.066 6.9C203.679 6.9 203.259 6.94667 202.806 7.04C202.366 7.13333 201.899 7.29333 201.406 7.52C201.153 7.64 200.926 7.67333 200.726 7.62C200.539 7.56667 200.393 7.46 200.286 7.3C200.179 7.12667 200.126 6.94 200.126 6.74C200.126 6.54 200.179 6.34667 200.286 6.16C200.393 5.96 200.573 5.81333 200.826 5.72C201.439 5.46667 202.026 5.28667 202.586 5.18C203.159 5.07333 203.679 5.02 204.146 5.02C205.106 5.02 205.893 5.16667 206.506 5.46C207.133 5.75333 207.599 6.2 207.906 6.8C208.213 7.38667 208.366 8.14667 208.366 9.08V13.88C208.366 14.2933 208.266 14.6133 208.066 14.84C207.866 15.0533 207.579 15.16 207.206 15.16C206.833 15.16 206.539 15.0533 206.326 14.84C206.126 14.6133 206.026 14.2933 206.026 13.88V12.92H206.186C206.093 13.3867 205.906 13.7933 205.626 14.14C205.359 14.4733 205.019 14.7333 204.606 14.92C204.193 15.1067 203.719 15.2 203.186 15.2ZM215.384 15.2C214.517 15.2 213.79 15.0533 213.204 14.76C212.63 14.4667 212.204 14.04 211.924 13.48C211.644 12.9067 211.504 12.2 211.504 11.36V7.1H210.464C210.144 7.1 209.897 7.02 209.724 6.86C209.55 6.68667 209.464 6.45333 209.464 6.16C209.464 5.85333 209.55 5.62 209.724 5.46C209.897 5.3 210.144 5.22 210.464 5.22H211.504V3.4C211.504 2.98667 211.61 2.67333 211.824 2.46C212.05 2.24667 212.364 2.14 212.764 2.14C213.164 2.14 213.47 2.24667 213.684 2.46C213.897 2.67333 214.004 2.98667 214.004 3.4V5.22H216.124C216.444 5.22 216.69 5.3 216.864 5.46C217.037 5.62 217.124 5.85333 217.124 6.16C217.124 6.45333 217.037 6.68667 216.864 6.86C216.69 7.02 216.444 7.1 216.124 7.1H214.004V11.22C214.004 11.86 214.144 12.34 214.424 12.66C214.704 12.98 215.157 13.14 215.784 13.14C216.01 13.14 216.21 13.12 216.384 13.08C216.557 13.04 216.71 13.0133 216.844 13C217.004 12.9867 217.137 13.04 217.244 13.16C217.35 13.2667 217.404 13.4933 217.404 13.84C217.404 14.1067 217.357 14.3467 217.264 14.56C217.184 14.76 217.03 14.9 216.804 14.98C216.63 15.0333 216.404 15.08 216.124 15.12C215.844 15.1733 215.597 15.2 215.384 15.2ZM227.589 15.2C227.016 15.2 226.409 15.14 225.769 15.02C225.129 14.9 224.556 14.6933 224.049 14.4C223.836 14.2667 223.682 14.1133 223.589 13.94C223.509 13.7533 223.476 13.5733 223.489 13.4C223.516 13.2133 223.582 13.0533 223.689 12.92C223.809 12.7867 223.956 12.7 224.129 12.66C224.316 12.62 224.516 12.6533 224.729 12.76C225.262 13.0133 225.762 13.1933 226.229 13.3C226.696 13.3933 227.156 13.44 227.609 13.44C228.249 13.44 228.722 13.3333 229.029 13.12C229.349 12.8933 229.509 12.6 229.509 12.24C229.509 11.9333 229.402 11.7 229.189 11.54C228.989 11.3667 228.682 11.24 228.269 11.16L226.269 10.78C225.442 10.62 224.809 10.32 224.369 9.88C223.942 9.42667 223.729 8.84667 223.729 8.14C223.729 7.5 223.902 6.94667 224.249 6.48C224.609 6.01333 225.102 5.65333 225.729 5.4C226.356 5.14667 227.076 5.02 227.889 5.02C228.476 5.02 229.022 5.08667 229.529 5.22C230.049 5.34 230.549 5.53333 231.029 5.8C231.229 5.90667 231.362 6.04667 231.429 6.22C231.509 6.39333 231.529 6.57333 231.489 6.76C231.449 6.93333 231.369 7.09333 231.249 7.24C231.129 7.37333 230.976 7.46 230.789 7.5C230.616 7.52667 230.416 7.48667 230.189 7.38C229.776 7.16667 229.376 7.01333 228.989 6.92C228.616 6.82667 228.256 6.78 227.909 6.78C227.256 6.78 226.769 6.89333 226.449 7.12C226.142 7.34667 225.989 7.64667 225.989 8.02C225.989 8.3 226.082 8.53333 226.269 8.72C226.456 8.90667 226.742 9.03333 227.129 9.1L229.129 9.48C229.996 9.64 230.649 9.93333 231.089 10.36C231.542 10.7867 231.769 11.36 231.769 12.08C231.769 13.0533 231.389 13.82 230.629 14.38C229.869 14.9267 228.856 15.2 227.589 15.2ZM237.115 15.2C236.008 15.2 235.175 14.8867 234.615 14.26C234.055 13.62 233.775 12.6867 233.775 11.46V2C233.775 1.58667 233.881 1.27333 234.095 1.06C234.308 0.846666 234.615 0.739999 235.015 0.739999C235.415 0.739999 235.721 0.846666 235.935 1.06C236.161 1.27333 236.275 1.58667 236.275 2V11.34C236.275 11.9533 236.401 12.4067 236.655 12.7C236.921 12.9933 237.295 13.14 237.775 13.14C237.881 13.14 237.981 13.14 238.075 13.14C238.168 13.1267 238.261 13.1133 238.355 13.1C238.541 13.0733 238.668 13.1267 238.735 13.26C238.801 13.38 238.835 13.6333 238.835 14.02C238.835 14.3533 238.768 14.6133 238.635 14.8C238.501 14.9867 238.281 15.1 237.975 15.14C237.841 15.1533 237.701 15.1667 237.555 15.18C237.408 15.1933 237.261 15.2 237.115 15.2ZM244.524 15.2C243.51 15.2 242.63 14.9933 241.884 14.58C241.137 14.1667 240.557 13.58 240.144 12.82C239.73 12.0467 239.524 11.14 239.524 10.1C239.524 9.31333 239.637 8.61333 239.864 8C240.104 7.37333 240.444 6.84 240.884 6.4C241.324 5.94667 241.85 5.60667 242.464 5.38C243.077 5.14 243.764 5.02 244.524 5.02C245.537 5.02 246.417 5.22667 247.164 5.64C247.91 6.05333 248.49 6.64 248.904 7.4C249.317 8.16 249.524 9.06 249.524 10.1C249.524 10.8867 249.404 11.5933 249.164 12.22C248.937 12.8467 248.604 13.3867 248.164 13.84C247.724 14.28 247.197 14.62 246.584 14.86C245.97 15.0867 245.284 15.2 244.524 15.2ZM244.524 13.3C245.017 13.3 245.45 13.18 245.824 12.94C246.197 12.7 246.484 12.3467 246.684 11.88C246.897 11.4 247.004 10.8067 247.004 10.1C247.004 9.03333 246.777 8.24 246.324 7.72C245.87 7.18667 245.27 6.92 244.524 6.92C244.03 6.92 243.597 7.04 243.224 7.28C242.85 7.50667 242.557 7.86 242.344 8.34C242.144 8.80667 242.044 9.39333 242.044 10.1C242.044 11.1533 242.27 11.9533 242.724 12.5C243.177 13.0333 243.777 13.3 244.524 13.3ZM252.827 18.76C252.427 18.76 252.12 18.6533 251.907 18.44C251.694 18.2267 251.587 17.9133 251.587 17.5V6.32C251.587 5.90667 251.694 5.59333 251.907 5.38C252.12 5.16667 252.42 5.06 252.807 5.06C253.207 5.06 253.514 5.16667 253.727 5.38C253.94 5.59333 254.047 5.90667 254.047 6.32V7.88L253.827 7.28C254.027 6.6 254.434 6.05333 255.047 5.64C255.674 5.22667 256.4 5.02 257.227 5.02C258.08 5.02 258.827 5.22667 259.467 5.64C260.12 6.05333 260.627 6.64 260.987 7.4C261.347 8.14667 261.527 9.04667 261.527 10.1C261.527 11.14 261.347 12.0467 260.987 12.82C260.627 13.58 260.127 14.1667 259.487 14.58C258.847 14.9933 258.094 15.2 257.227 15.2C256.414 15.2 255.7 15 255.087 14.6C254.474 14.1867 254.06 13.6533 253.847 13H254.087V17.5C254.087 17.9133 253.974 18.2267 253.747 18.44C253.534 18.6533 253.227 18.76 252.827 18.76ZM256.527 13.3C257.02 13.3 257.454 13.18 257.827 12.94C258.2 12.7 258.487 12.3467 258.687 11.88C258.9 11.4 259.007 10.8067 259.007 10.1C259.007 9.03333 258.78 8.24 258.327 7.72C257.874 7.18667 257.274 6.92 256.527 6.92C256.034 6.92 255.6 7.04 255.227 7.28C254.854 7.50667 254.56 7.86 254.347 8.34C254.147 8.80667 254.047 9.39333 254.047 10.1C254.047 11.1533 254.274 11.9533 254.727 12.5C255.18 13.0333 255.78 13.3 256.527 13.3ZM268.399 15.2C267.293 15.2 266.339 14.9933 265.539 14.58C264.739 14.1667 264.119 13.58 263.679 12.82C263.253 12.06 263.039 11.16 263.039 10.12C263.039 9.10667 263.246 8.22 263.659 7.46C264.086 6.7 264.666 6.10667 265.399 5.68C266.146 5.24 266.993 5.02 267.939 5.02C268.633 5.02 269.253 5.13333 269.799 5.36C270.359 5.58667 270.833 5.91333 271.219 6.34C271.619 6.76667 271.919 7.28667 272.119 7.9C272.333 8.5 272.439 9.18 272.439 9.94C272.439 10.18 272.353 10.3667 272.179 10.5C272.019 10.62 271.786 10.68 271.479 10.68H265.059V9.24H270.679L270.359 9.54C270.359 8.92667 270.266 8.41333 270.079 8C269.906 7.58667 269.646 7.27333 269.299 7.06C268.966 6.83333 268.546 6.72 268.039 6.72C267.479 6.72 266.999 6.85333 266.599 7.12C266.213 7.37333 265.913 7.74 265.699 8.22C265.499 8.68667 265.399 9.24667 265.399 9.9V10.04C265.399 11.1333 265.653 11.9533 266.159 12.5C266.679 13.0333 267.439 13.3 268.439 13.3C268.786 13.3 269.173 13.26 269.599 13.18C270.039 13.0867 270.453 12.9333 270.839 12.72C271.119 12.56 271.366 12.4933 271.579 12.52C271.793 12.5333 271.959 12.6067 272.079 12.74C272.213 12.8733 272.293 13.04 272.319 13.24C272.346 13.4267 272.306 13.62 272.199 13.82C272.106 14.02 271.939 14.1933 271.699 14.34C271.233 14.6333 270.693 14.8533 270.079 15C269.479 15.1333 268.919 15.2 268.399 15.2ZM277.999 15.2C277.426 15.2 276.819 15.14 276.179 15.02C275.539 14.9 274.966 14.6933 274.459 14.4C274.246 14.2667 274.092 14.1133 273.999 13.94C273.919 13.7533 273.886 13.5733 273.899 13.4C273.926 13.2133 273.992 13.0533 274.099 12.92C274.219 12.7867 274.366 12.7 274.539 12.66C274.726 12.62 274.926 12.6533 275.139 12.76C275.672 13.0133 276.172 13.1933 276.639 13.3C277.106 13.3933 277.566 13.44 278.019 13.44C278.659 13.44 279.132 13.3333 279.439 13.12C279.759 12.8933 279.919 12.6 279.919 12.24C279.919 11.9333 279.812 11.7 279.599 11.54C279.399 11.3667 279.092 11.24 278.679 11.16L276.679 10.78C275.852 10.62 275.219 10.32 274.779 9.88C274.352 9.42667 274.139 8.84667 274.139 8.14C274.139 7.5 274.312 6.94667 274.659 6.48C275.019 6.01333 275.512 5.65333 276.139 5.4C276.766 5.14667 277.486 5.02 278.299 5.02C278.886 5.02 279.432 5.08667 279.939 5.22C280.459 5.34 280.959 5.53333 281.439 5.8C281.639 5.90667 281.772 6.04667 281.839 6.22C281.919 6.39333 281.939 6.57333 281.899 6.76C281.859 6.93333 281.779 7.09333 281.659 7.24C281.539 7.37333 281.386 7.46 281.199 7.5C281.026 7.52667 280.826 7.48667 280.599 7.38C280.186 7.16667 279.786 7.01333 279.399 6.92C279.026 6.82667 278.666 6.78 278.319 6.78C277.666 6.78 277.179 6.89333 276.859 7.12C276.552 7.34667 276.399 7.64667 276.399 8.02C276.399 8.3 276.492 8.53333 276.679 8.72C276.866 8.90667 277.152 9.03333 277.539 9.1L279.539 9.48C280.406 9.64 281.059 9.93333 281.499 10.36C281.952 10.7867 282.179 11.36 282.179 12.08C282.179 13.0533 281.799 13.82 281.039 14.38C280.279 14.9267 279.266 15.2 277.999 15.2ZM293.154 15.2C292.341 15.2 291.668 15.0533 291.134 14.76C290.601 14.4533 290.201 14 289.934 13.4C289.681 12.8 289.554 12.0533 289.554 11.16V6.32C289.554 5.89333 289.661 5.58 289.874 5.38C290.088 5.16667 290.394 5.06 290.794 5.06C291.194 5.06 291.501 5.16667 291.714 5.38C291.941 5.58 292.054 5.89333 292.054 6.32V11.2C292.054 11.8933 292.194 12.4067 292.474 12.74C292.754 13.0733 293.201 13.24 293.814 13.24C294.481 13.24 295.028 13.0133 295.454 12.56C295.881 12.0933 296.094 11.48 296.094 10.72V6.32C296.094 5.89333 296.201 5.58 296.414 5.38C296.628 5.16667 296.934 5.06 297.334 5.06C297.734 5.06 298.041 5.16667 298.254 5.38C298.481 5.58 298.594 5.89333 298.594 6.32V13.88C298.594 14.7333 298.188 15.16 297.374 15.16C296.988 15.16 296.688 15.0533 296.474 14.84C296.261 14.6133 296.154 14.2933 296.154 13.88V12.36L296.434 12.96C296.154 13.68 295.728 14.2333 295.154 14.62C294.594 15.0067 293.928 15.2 293.154 15.2ZM302.436 18.76C302.036 18.76 301.73 18.6533 301.516 18.44C301.303 18.2267 301.196 17.9133 301.196 17.5V6.32C301.196 5.90667 301.303 5.59333 301.516 5.38C301.73 5.16667 302.03 5.06 302.416 5.06C302.816 5.06 303.123 5.16667 303.336 5.38C303.55 5.59333 303.656 5.90667 303.656 6.32V7.88L303.436 7.28C303.636 6.6 304.043 6.05333 304.656 5.64C305.283 5.22667 306.01 5.02 306.836 5.02C307.69 5.02 308.436 5.22667 309.076 5.64C309.73 6.05333 310.236 6.64 310.596 7.4C310.956 8.14667 311.136 9.04667 311.136 10.1C311.136 11.14 310.956 12.0467 310.596 12.82C310.236 13.58 309.736 14.1667 309.096 14.58C308.456 14.9933 307.703 15.2 306.836 15.2C306.023 15.2 305.31 15 304.696 14.6C304.083 14.1867 303.67 13.6533 303.456 13H303.696V17.5C303.696 17.9133 303.583 18.2267 303.356 18.44C303.143 18.6533 302.836 18.76 302.436 18.76ZM306.136 13.3C306.63 13.3 307.063 13.18 307.436 12.94C307.81 12.7 308.096 12.3467 308.296 11.88C308.51 11.4 308.616 10.8067 308.616 10.1C308.616 9.03333 308.39 8.24 307.936 7.72C307.483 7.18667 306.883 6.92 306.136 6.92C305.643 6.92 305.21 7.04 304.836 7.28C304.463 7.50667 304.17 7.86 303.956 8.34C303.756 8.80667 303.656 9.39333 303.656 10.1C303.656 11.1533 303.883 11.9533 304.336 12.5C304.79 13.0333 305.39 13.3 306.136 13.3ZM320.538 15.16C320.138 15.16 319.825 15.0533 319.598 14.84C319.385 14.6133 319.278 14.2933 319.278 13.88V7.1H318.358C318.038 7.1 317.792 7.02 317.618 6.86C317.445 6.68667 317.358 6.45333 317.358 6.16C317.358 5.85333 317.445 5.62 317.618 5.46C317.792 5.3 318.038 5.22 318.358 5.22H319.998L319.278 5.88V5.2C319.278 3.82667 319.625 2.8 320.318 2.12C321.012 1.42667 322.012 1.02 323.318 0.899999L323.998 0.84C324.265 0.813333 324.478 0.859999 324.638 0.979999C324.798 1.08667 324.905 1.23333 324.958 1.42C325.012 1.59333 325.018 1.77333 324.978 1.96C324.938 2.14667 324.852 2.31333 324.718 2.46C324.598 2.59333 324.438 2.66667 324.238 2.68L323.958 2.7C323.198 2.75333 322.645 2.94667 322.298 3.28C321.952 3.61333 321.778 4.12 321.778 4.8V5.54L321.458 5.22H323.478C323.798 5.22 324.045 5.3 324.218 5.46C324.392 5.62 324.478 5.85333 324.478 6.16C324.478 6.45333 324.392 6.68667 324.218 6.86C324.045 7.02 323.798 7.1 323.478 7.1H321.778V13.88C321.778 14.7333 321.365 15.16 320.538 15.16ZM327.184 15.16C326.77 15.16 326.45 15.0533 326.224 14.84C326.01 14.6133 325.904 14.2933 325.904 13.88V6.32C325.904 5.90667 326.01 5.59333 326.224 5.38C326.437 5.16667 326.737 5.06 327.124 5.06C327.51 5.06 327.81 5.16667 328.024 5.38C328.237 5.59333 328.344 5.90667 328.344 6.32V7.58H328.144C328.33 6.78 328.697 6.17333 329.244 5.76C329.79 5.34667 330.517 5.1 331.424 5.02C331.704 4.99333 331.924 5.06667 332.084 5.24C332.257 5.4 332.357 5.65333 332.384 6C332.41 6.33333 332.33 6.60667 332.144 6.82C331.97 7.02 331.704 7.14 331.344 7.18L330.904 7.22C330.09 7.3 329.477 7.55333 329.064 7.98C328.65 8.39333 328.444 8.98 328.444 9.74V13.88C328.444 14.2933 328.337 14.6133 328.124 14.84C327.91 15.0533 327.597 15.16 327.184 15.16ZM338.039 15.2C337.026 15.2 336.146 14.9933 335.399 14.58C334.653 14.1667 334.073 13.58 333.659 12.82C333.246 12.0467 333.039 11.14 333.039 10.1C333.039 9.31333 333.153 8.61333 333.379 8C333.619 7.37333 333.959 6.84 334.399 6.4C334.839 5.94667 335.366 5.60667 335.979 5.38C336.593 5.14 337.279 5.02 338.039 5.02C339.053 5.02 339.933 5.22667 340.679 5.64C341.426 6.05333 342.006 6.64 342.419 7.4C342.833 8.16 343.039 9.06 343.039 10.1C343.039 10.8867 342.919 11.5933 342.679 12.22C342.453 12.8467 342.119 13.3867 341.679 13.84C341.239 14.28 340.713 14.62 340.099 14.86C339.486 15.0867 338.799 15.2 338.039 15.2ZM338.039 13.3C338.533 13.3 338.966 13.18 339.339 12.94C339.713 12.7 339.999 12.3467 340.199 11.88C340.413 11.4 340.519 10.8067 340.519 10.1C340.519 9.03333 340.293 8.24 339.839 7.72C339.386 7.18667 338.786 6.92 338.039 6.92C337.546 6.92 337.113 7.04 336.739 7.28C336.366 7.50667 336.073 7.86 335.859 8.34C335.659 8.80667 335.559 9.39333 335.559 10.1C335.559 11.1533 335.786 11.9533 336.239 12.5C336.693 13.0333 337.293 13.3 338.039 13.3ZM346.383 15.16C345.983 15.16 345.676 15.0533 345.463 14.84C345.249 14.6133 345.143 14.2933 345.143 13.88V6.32C345.143 5.90667 345.249 5.59333 345.463 5.38C345.676 5.16667 345.976 5.06 346.363 5.06C346.749 5.06 347.049 5.16667 347.263 5.38C347.476 5.59333 347.583 5.90667 347.583 6.32V7.78L347.363 7.18C347.629 6.51333 348.043 5.98667 348.603 5.6C349.163 5.21333 349.829 5.02 350.603 5.02C351.389 5.02 352.036 5.20667 352.543 5.58C353.049 5.95333 353.403 6.52667 353.603 7.3H353.323C353.589 6.59333 354.029 6.04 354.643 5.64C355.256 5.22667 355.963 5.02 356.763 5.02C357.509 5.02 358.123 5.16667 358.603 5.46C359.096 5.75333 359.463 6.2 359.703 6.8C359.943 7.38667 360.063 8.13333 360.063 9.04V13.88C360.063 14.2933 359.949 14.6133 359.723 14.84C359.509 15.0533 359.203 15.16 358.803 15.16C358.403 15.16 358.096 15.0533 357.883 14.84C357.669 14.6133 357.563 14.2933 357.563 13.88V9.14C357.563 8.39333 357.436 7.84667 357.183 7.5C356.943 7.15333 356.529 6.98 355.943 6.98C355.289 6.98 354.776 7.21333 354.403 7.68C354.029 8.13333 353.843 8.76667 353.843 9.58V13.88C353.843 14.2933 353.736 14.6133 353.523 14.84C353.309 15.0533 353.003 15.16 352.603 15.16C352.203 15.16 351.889 15.0533 351.663 14.84C351.449 14.6133 351.343 14.2933 351.343 13.88V9.14C351.343 8.39333 351.216 7.84667 350.963 7.5C350.723 7.15333 350.316 6.98 349.743 6.98C349.089 6.98 348.576 7.21333 348.203 7.68C347.829 8.13333 347.643 8.76667 347.643 9.58V13.88C347.643 14.7333 347.223 15.16 346.383 15.16ZM371.411 15.2C370.305 15.2 369.471 14.8867 368.911 14.26C368.351 13.62 368.071 12.6867 368.071 11.46V2C368.071 1.58667 368.178 1.27333 368.391 1.06C368.605 0.846666 368.911 0.739999 369.311 0.739999C369.711 0.739999 370.018 0.846666 370.231 1.06C370.458 1.27333 370.571 1.58667 370.571 2V11.34C370.571 11.9533 370.698 12.4067 370.951 12.7C371.218 12.9933 371.591 13.14 372.071 13.14C372.178 13.14 372.278 13.14 372.371 13.14C372.465 13.1267 372.558 13.1133 372.651 13.1C372.838 13.0733 372.965 13.1267 373.031 13.26C373.098 13.38 373.131 13.6333 373.131 14.02C373.131 14.3533 373.065 14.6133 372.931 14.8C372.798 14.9867 372.578 15.1 372.271 15.14C372.138 15.1533 371.998 15.1667 371.851 15.18C371.705 15.1933 371.558 15.2 371.411 15.2ZM379.181 15.2C378.074 15.2 377.121 14.9933 376.321 14.58C375.521 14.1667 374.901 13.58 374.461 12.82C374.034 12.06 373.821 11.16 373.821 10.12C373.821 9.10667 374.027 8.22 374.441 7.46C374.867 6.7 375.447 6.10667 376.181 5.68C376.927 5.24 377.774 5.02 378.721 5.02C379.414 5.02 380.034 5.13333 380.581 5.36C381.141 5.58667 381.614 5.91333 382.001 6.34C382.401 6.76667 382.701 7.28667 382.901 7.9C383.114 8.5 383.221 9.18 383.221 9.94C383.221 10.18 383.134 10.3667 382.961 10.5C382.801 10.62 382.567 10.68 382.261 10.68H375.841V9.24H381.461L381.141 9.54C381.141 8.92667 381.047 8.41333 380.861 8C380.687 7.58667 380.427 7.27333 380.081 7.06C379.747 6.83333 379.327 6.72 378.821 6.72C378.261 6.72 377.781 6.85333 377.381 7.12C376.994 7.37333 376.694 7.74 376.481 8.22C376.281 8.68667 376.181 9.24667 376.181 9.9V10.04C376.181 11.1333 376.434 11.9533 376.941 12.5C377.461 13.0333 378.221 13.3 379.221 13.3C379.567 13.3 379.954 13.26 380.381 13.18C380.821 13.0867 381.234 12.9333 381.621 12.72C381.901 12.56 382.147 12.4933 382.361 12.52C382.574 12.5333 382.741 12.6067 382.861 12.74C382.994 12.8733 383.074 13.04 383.101 13.24C383.127 13.4267 383.087 13.62 382.981 13.82C382.887 14.02 382.721 14.1933 382.481 14.34C382.014 14.6333 381.474 14.8533 380.861 15C380.261 15.1333 379.701 15.2 379.181 15.2ZM387.081 15.16C386.681 15.16 386.368 15.0533 386.141 14.84C385.928 14.6133 385.821 14.2933 385.821 13.88V7.1H384.901C384.581 7.1 384.335 7.02 384.161 6.86C383.988 6.68667 383.901 6.45333 383.901 6.16C383.901 5.85333 383.988 5.62 384.161 5.46C384.335 5.3 384.581 5.22 384.901 5.22H386.541L385.821 5.88V5.2C385.821 3.82667 386.168 2.8 386.861 2.12C387.555 1.42667 388.555 1.02 389.861 0.899999L390.541 0.84C390.808 0.813333 391.021 0.859999 391.181 0.979999C391.341 1.08667 391.448 1.23333 391.501 1.42C391.555 1.59333 391.561 1.77333 391.521 1.96C391.481 2.14667 391.395 2.31333 391.261 2.46C391.141 2.59333 390.981 2.66667 390.781 2.68L390.501 2.7C389.741 2.75333 389.188 2.94667 388.841 3.28C388.495 3.61333 388.321 4.12 388.321 4.8V5.54L388.001 5.22H390.021C390.341 5.22 390.588 5.3 390.761 5.46C390.935 5.62 391.021 5.85333 391.021 6.16C391.021 6.45333 390.935 6.68667 390.761 6.86C390.588 7.02 390.341 7.1 390.021 7.1H388.321V13.88C388.321 14.7333 387.908 15.16 387.081 15.16ZM396.38 15.2C395.513 15.2 394.786 15.0533 394.2 14.76C393.626 14.4667 393.2 14.04 392.92 13.48C392.64 12.9067 392.5 12.2 392.5 11.36V7.1H391.46C391.14 7.1 390.893 7.02 390.72 6.86C390.546 6.68667 390.46 6.45333 390.46 6.16C390.46 5.85333 390.546 5.62 390.72 5.46C390.893 5.3 391.14 5.22 391.46 5.22H392.5V3.4C392.5 2.98667 392.606 2.67333 392.82 2.46C393.046 2.24667 393.36 2.14 393.76 2.14C394.16 2.14 394.466 2.24667 394.68 2.46C394.893 2.67333 395 2.98667 395 3.4V5.22H397.12C397.44 5.22 397.686 5.3 397.86 5.46C398.033 5.62 398.12 5.85333 398.12 6.16C398.12 6.45333 398.033 6.68667 397.86 6.86C397.686 7.02 397.44 7.1 397.12 7.1H395V11.22C395 11.86 395.14 12.34 395.42 12.66C395.7 12.98 396.153 13.14 396.78 13.14C397.006 13.14 397.206 13.12 397.38 13.08C397.553 13.04 397.706 13.0133 397.84 13C398 12.9867 398.133 13.04 398.24 13.16C398.346 13.2667 398.4 13.4933 398.4 13.84C398.4 14.1067 398.353 14.3467 398.26 14.56C398.18 14.76 398.026 14.9 397.8 14.98C397.626 15.0333 397.4 15.08 397.12 15.12C396.84 15.1733 396.593 15.2 396.38 15.2ZM409.485 15.2C408.618 15.2 407.892 15.0533 407.305 14.76C406.732 14.4667 406.305 14.04 406.025 13.48C405.745 12.9067 405.605 12.2 405.605 11.36V7.1H404.565C404.245 7.1 403.998 7.02 403.825 6.86C403.652 6.68667 403.565 6.45333 403.565 6.16C403.565 5.85333 403.652 5.62 403.825 5.46C403.998 5.3 404.245 5.22 404.565 5.22H405.605V3.4C405.605 2.98667 405.712 2.67333 405.925 2.46C406.152 2.24667 406.465 2.14 406.865 2.14C407.265 2.14 407.572 2.24667 407.785 2.46C407.998 2.67333 408.105 2.98667 408.105 3.4V5.22H410.225C410.545 5.22 410.792 5.3 410.965 5.46C411.138 5.62 411.225 5.85333 411.225 6.16C411.225 6.45333 411.138 6.68667 410.965 6.86C410.792 7.02 410.545 7.1 410.225 7.1H408.105V11.22C408.105 11.86 408.245 12.34 408.525 12.66C408.805 12.98 409.258 13.14 409.885 13.14C410.112 13.14 410.312 13.12 410.485 13.08C410.658 13.04 410.812 13.0133 410.945 13C411.105 12.9867 411.238 13.04 411.345 13.16C411.452 13.2667 411.505 13.4933 411.505 13.84C411.505 14.1067 411.458 14.3467 411.365 14.56C411.285 14.76 411.132 14.9 410.905 14.98C410.732 15.0333 410.505 15.08 410.225 15.12C409.945 15.1733 409.698 15.2 409.485 15.2ZM417.043 15.2C416.03 15.2 415.15 14.9933 414.403 14.58C413.657 14.1667 413.077 13.58 412.663 12.82C412.25 12.0467 412.043 11.14 412.043 10.1C412.043 9.31333 412.157 8.61333 412.383 8C412.623 7.37333 412.963 6.84 413.403 6.4C413.843 5.94667 414.37 5.60667 414.983 5.38C415.597 5.14 416.283 5.02 417.043 5.02C418.057 5.02 418.937 5.22667 419.683 5.64C420.43 6.05333 421.01 6.64 421.423 7.4C421.837 8.16 422.043 9.06 422.043 10.1C422.043 10.8867 421.923 11.5933 421.683 12.22C421.457 12.8467 421.123 13.3867 420.683 13.84C420.243 14.28 419.717 14.62 419.103 14.86C418.49 15.0867 417.803 15.2 417.043 15.2ZM417.043 13.3C417.537 13.3 417.97 13.18 418.343 12.94C418.717 12.7 419.003 12.3467 419.203 11.88C419.417 11.4 419.523 10.8067 419.523 10.1C419.523 9.03333 419.297 8.24 418.843 7.72C418.39 7.18667 417.79 6.92 417.043 6.92C416.55 6.92 416.117 7.04 415.743 7.28C415.37 7.50667 415.077 7.86 414.863 8.34C414.663 8.80667 414.563 9.39333 414.563 10.1C414.563 11.1533 414.79 11.9533 415.243 12.5C415.697 13.0333 416.297 13.3 417.043 13.3ZM430.816 15.16C430.403 15.16 430.083 15.0533 429.856 14.84C429.643 14.6133 429.536 14.2933 429.536 13.88V6.32C429.536 5.90667 429.643 5.59333 429.856 5.38C430.07 5.16667 430.37 5.06 430.756 5.06C431.143 5.06 431.443 5.16667 431.656 5.38C431.87 5.59333 431.976 5.90667 431.976 6.32V7.58H431.776C431.963 6.78 432.33 6.17333 432.876 5.76C433.423 5.34667 434.15 5.1 435.056 5.02C435.336 4.99333 435.556 5.06667 435.716 5.24C435.89 5.4 435.99 5.65333 436.016 6C436.043 6.33333 435.963 6.60667 435.776 6.82C435.603 7.02 435.336 7.14 434.976 7.18L434.536 7.22C433.723 7.3 433.11 7.55333 432.696 7.98C432.283 8.39333 432.076 8.98 432.076 9.74V13.88C432.076 14.2933 431.97 14.6133 431.756 14.84C431.543 15.0533 431.23 15.16 430.816 15.16ZM438.608 15.14C438.208 15.14 437.902 15.02 437.688 14.78C437.475 14.54 437.368 14.2067 437.368 13.78V6.44C437.368 6 437.475 5.66667 437.688 5.44C437.902 5.2 438.208 5.08 438.608 5.08C439.008 5.08 439.315 5.2 439.528 5.44C439.755 5.66667 439.868 6 439.868 6.44V13.78C439.868 14.2067 439.762 14.54 439.548 14.78C439.335 15.02 439.022 15.14 438.608 15.14ZM438.608 3.22C438.142 3.22 437.775 3.10667 437.508 2.88C437.255 2.64 437.128 2.31333 437.128 1.9C437.128 1.47333 437.255 1.14667 437.508 0.919999C437.775 0.693333 438.142 0.58 438.608 0.58C439.088 0.58 439.455 0.693333 439.708 0.919999C439.962 1.14667 440.088 1.47333 440.088 1.9C440.088 2.31333 439.962 2.64 439.708 2.88C439.455 3.10667 439.088 3.22 438.608 3.22ZM447.026 18.8C446.306 18.8 445.606 18.7333 444.926 18.6C444.259 18.4667 443.653 18.26 443.106 17.98C442.853 17.8467 442.679 17.6867 442.586 17.5C442.506 17.3133 442.479 17.12 442.506 16.92C442.546 16.7333 442.626 16.5667 442.746 16.42C442.879 16.2733 443.039 16.1733 443.226 16.12C443.413 16.0667 443.606 16.0933 443.806 16.2C444.393 16.4933 444.946 16.68 445.466 16.76C445.999 16.8533 446.453 16.9 446.826 16.9C447.719 16.9 448.386 16.68 448.826 16.24C449.279 15.8133 449.506 15.1733 449.506 14.32V12.52H449.686C449.486 13.2 449.066 13.7467 448.426 14.16C447.799 14.56 447.086 14.76 446.286 14.76C445.406 14.76 444.639 14.56 443.986 14.16C443.333 13.7467 442.826 13.1733 442.466 12.44C442.106 11.7067 441.926 10.8533 441.926 9.88C441.926 9.14667 442.026 8.48667 442.226 7.9C442.439 7.3 442.733 6.78667 443.106 6.36C443.493 5.93333 443.953 5.60667 444.486 5.38C445.033 5.14 445.633 5.02 446.286 5.02C447.113 5.02 447.833 5.22667 448.446 5.64C449.073 6.04 449.479 6.57333 449.666 7.24L449.466 7.74V6.32C449.466 5.90667 449.573 5.59333 449.786 5.38C450.013 5.16667 450.319 5.06 450.706 5.06C451.106 5.06 451.413 5.16667 451.626 5.38C451.839 5.59333 451.946 5.90667 451.946 6.32V14.02C451.946 15.6067 451.526 16.8 450.686 17.6C449.846 18.4 448.626 18.8 447.026 18.8ZM446.966 12.86C447.486 12.86 447.933 12.74 448.306 12.5C448.679 12.26 448.966 11.92 449.166 11.48C449.379 11.0267 449.486 10.4933 449.486 9.88C449.486 8.96 449.259 8.24 448.806 7.72C448.353 7.18667 447.739 6.92 446.966 6.92C446.446 6.92 445.999 7.04 445.626 7.28C445.253 7.52 444.959 7.86 444.746 8.3C444.546 8.74 444.446 9.26667 444.446 9.88C444.446 10.8 444.673 11.5267 445.126 12.06C445.579 12.5933 446.193 12.86 446.966 12.86ZM455.776 15.16C455.376 15.16 455.07 15.0533 454.856 14.84C454.643 14.6133 454.536 14.2933 454.536 13.88V2C454.536 1.58667 454.643 1.27333 454.856 1.06C455.07 0.846666 455.376 0.739999 455.776 0.739999C456.176 0.739999 456.483 0.846666 456.696 1.06C456.923 1.27333 457.036 1.58667 457.036 2V7.18H456.756C457.05 6.47333 457.503 5.94 458.116 5.58C458.743 5.20667 459.45 5.02 460.236 5.02C461.023 5.02 461.67 5.16667 462.176 5.46C462.683 5.75333 463.063 6.2 463.316 6.8C463.57 7.38667 463.696 8.13333 463.696 9.04V13.88C463.696 14.2933 463.59 14.6133 463.376 14.84C463.163 15.0533 462.856 15.16 462.456 15.16C462.056 15.16 461.743 15.0533 461.516 14.84C461.303 14.6133 461.196 14.2933 461.196 13.88V9.16C461.196 8.4 461.05 7.84667 460.756 7.5C460.476 7.15333 460.036 6.98 459.436 6.98C458.703 6.98 458.116 7.21333 457.676 7.68C457.25 8.13333 457.036 8.74 457.036 9.5V13.88C457.036 14.7333 456.616 15.16 455.776 15.16ZM470.716 15.2C469.849 15.2 469.122 15.0533 468.536 14.76C467.962 14.4667 467.536 14.04 467.256 13.48C466.976 12.9067 466.836 12.2 466.836 11.36V7.1H465.796C465.476 7.1 465.229 7.02 465.056 6.86C464.882 6.68667 464.796 6.45333 464.796 6.16C464.796 5.85333 464.882 5.62 465.056 5.46C465.229 5.3 465.476 5.22 465.796 5.22H466.836V3.4C466.836 2.98667 466.942 2.67333 467.156 2.46C467.382 2.24667 467.696 2.14 468.096 2.14C468.496 2.14 468.802 2.24667 469.016 2.46C469.229 2.67333 469.336 2.98667 469.336 3.4V5.22H471.456C471.776 5.22 472.022 5.3 472.196 5.46C472.369 5.62 472.456 5.85333 472.456 6.16C472.456 6.45333 472.369 6.68667 472.196 6.86C472.022 7.02 471.776 7.1 471.456 7.1H469.336V11.22C469.336 11.86 469.476 12.34 469.756 12.66C470.036 12.98 470.489 13.14 471.116 13.14C471.342 13.14 471.542 13.12 471.716 13.08C471.889 13.04 472.042 13.0133 472.176 13C472.336 12.9867 472.469 13.04 472.576 13.16C472.682 13.2667 472.736 13.4933 472.736 13.84C472.736 14.1067 472.689 14.3467 472.596 14.56C472.516 14.76 472.362 14.9 472.136 14.98C471.962 15.0333 471.736 15.08 471.456 15.12C471.176 15.1733 470.929 15.2 470.716 15.2ZM475.463 15.1C475.01 15.1 474.643 14.96 474.363 14.68C474.096 14.4 473.963 14.04 473.963 13.6C473.963 13.1733 474.096 12.8267 474.363 12.56C474.643 12.28 475.01 12.14 475.463 12.14C475.93 12.14 476.29 12.28 476.543 12.56C476.81 12.8267 476.943 13.1733 476.943 13.6C476.943 14.04 476.81 14.4 476.543 14.68C476.29 14.96 475.93 15.1 475.463 15.1Z" fill="#444444"/>
</svg>
