<svg width="20" height="19" viewBox="0 0 20 19" fill="none" xmlns="http://www.w3.org/2000/svg">
<path fill-rule="evenodd" clip-rule="evenodd" d="M15.4346 14.833C16.6452 13.5994 17.4 11.9905 17.575 10.271L19.4512 10.4619C19.2328 12.6074 18.291 14.6147 16.7806 16.1539C15.2701 17.6931 13.2809 18.6726 11.1399 18.9314C8.99895 19.1901 6.83366 18.7128 4.99998 17.5777C3.16629 16.4427 1.77335 14.7176 1.05014 12.6859C0.326925 10.6543 0.316474 8.43699 1.02051 6.3986C1.72454 4.36022 3.10115 2.62203 4.92405 1.46976C6.74695 0.317499 8.90765 -0.18026 11.051 0.0583094C13.1943 0.296881 15.1926 1.25758 16.7175 2.78249L19.5 -4.97035e-07V7H12.5L15.384 4.11597C14.1618 2.89377 12.5602 2.12378 10.8423 1.93257C9.12449 1.74136 7.39271 2.14031 5.93168 3.06384C4.47064 3.98737 3.36729 5.38051 2.80302 7.01426C2.23874 8.648 2.24712 10.4251 2.82677 12.0535C3.40642 13.6818 4.52285 15.0645 5.99253 15.9742C7.4622 16.8839 9.19767 17.2666 10.9136 17.0592C12.6296 16.8518 14.2239 16.0667 15.4346 14.833Z" fill="#8C69FF"/>
</svg>
