<svg width="174" height="60" viewBox="0 0 174 60" fill="none" xmlns="http://www.w3.org/2000/svg">
<rect width="174" height="60" rx="10" fill="#1A1A1A"/>
<path d="M46.2844 34.3041C46.4252 34.4463 46.5042 34.6383 46.5042 34.8384C46.5042 35.0386 46.4252 35.2306 46.2844 35.3728L44.0344 37.6228C43.891 37.7614 43.6994 37.8389 43.5 37.8389C43.3006 37.8389 43.109 37.7614 42.9656 37.6228C42.8248 37.4806 42.7458 37.2886 42.7458 37.0884C42.7458 36.8883 42.8248 36.6963 42.9656 36.5541L43.9406 35.5884H42.8344C41.7596 35.5866 40.7008 35.3288 39.7455 34.8364C38.7902 34.3441 37.9658 33.6314 37.3406 32.7572L33.4312 27.2916C32.9461 26.6122 32.3062 26.058 31.5645 25.6749C30.8227 25.2918 30.0005 25.0908 29.1656 25.0884H27C26.8011 25.0884 26.6103 25.0094 26.4697 24.8688C26.329 24.7281 26.25 24.5374 26.25 24.3384C26.25 24.1395 26.329 23.9488 26.4697 23.8081C26.6103 23.6675 26.8011 23.5884 27 23.5884H29.1656C30.2404 23.5903 31.2992 23.8481 32.2545 24.3404C33.2098 24.8328 34.0342 25.5455 34.6594 26.4197L38.5687 31.8853C39.0539 32.5647 39.6938 33.1189 40.4355 33.502C41.1773 33.8851 41.9995 34.0861 42.8344 34.0884H43.9406L42.9656 33.1228C42.846 32.9771 42.7849 32.7921 42.7942 32.6038C42.8034 32.4155 42.8824 32.2374 43.0157 32.1041C43.149 31.9708 43.3271 31.8918 43.5154 31.8826C43.7037 31.8734 43.8887 31.9345 44.0344 32.0541L46.2844 34.3041ZM37.4062 27.6197C37.4867 27.6773 37.5779 27.7185 37.6743 27.7407C37.7708 27.763 37.8707 27.7659 37.9684 27.7494C38.066 27.7328 38.1593 27.6971 38.2431 27.6442C38.3268 27.5914 38.3993 27.5225 38.4562 27.4416L38.5687 27.2916C39.0539 26.6122 39.6938 26.058 40.4355 25.6749C41.1773 25.2918 41.9995 25.0908 42.8344 25.0884H43.9406L42.9656 26.0541C42.8248 26.1963 42.7458 26.3883 42.7458 26.5884C42.7458 26.7886 42.8248 26.9806 42.9656 27.1228C43.109 27.2614 43.3006 27.3389 43.5 27.3389C43.6994 27.3389 43.891 27.2614 44.0344 27.1228L46.2844 24.8728C46.4252 24.7306 46.5042 24.5386 46.5042 24.3384C46.5042 24.1383 46.4252 23.9463 46.2844 23.8041L44.0344 21.5541C43.8887 21.4345 43.7037 21.3734 43.5154 21.3826C43.3271 21.3918 43.149 21.4708 43.0157 21.6041C42.8824 21.7374 42.8034 21.9155 42.7942 22.1038C42.7849 22.2921 42.846 22.4771 42.9656 22.6228L43.9406 23.5884H42.8344C41.7596 23.5903 40.7008 23.8481 39.7455 24.3404C38.7902 24.8328 37.9658 25.5455 37.3406 26.4197L37.2375 26.5697C37.1794 26.6496 37.1376 26.7403 37.1147 26.8364C37.0917 26.9325 37.0879 27.0322 37.1036 27.1298C37.1193 27.2273 37.1541 27.3209 37.206 27.4049C37.258 27.489 37.326 27.562 37.4062 27.6197ZM34.5938 31.5572C34.5133 31.4995 34.4221 31.4584 34.3257 31.4362C34.2292 31.4139 34.1293 31.411 34.0316 31.4275C33.934 31.4441 33.8407 31.4798 33.7569 31.5326C33.6732 31.5855 33.6007 31.6543 33.5438 31.7353L33.4312 31.8853C32.9461 32.5647 32.3062 33.1189 31.5645 33.502C30.8227 33.8851 30.0005 34.0861 29.1656 34.0884H27C26.8011 34.0884 26.6103 34.1675 26.4697 34.3081C26.329 34.4488 26.25 34.6395 26.25 34.8384C26.25 35.0374 26.329 35.2281 26.4697 35.3688C26.6103 35.5094 26.8011 35.5884 27 35.5884H29.1656C30.2404 35.5866 31.2992 35.3288 32.2545 34.8364C33.2098 34.3441 34.0342 33.6314 34.6594 32.7572L34.7625 32.6072C34.8206 32.5273 34.8624 32.4366 34.8853 32.3405C34.9083 32.2444 34.9121 32.1447 34.8964 32.0471C34.8807 31.9495 34.8459 31.856 34.794 31.7719C34.742 31.6879 34.674 31.6149 34.5938 31.5572Z" fill="white"/>
<g clip-path="url(#clip0_3721_1620)">
<path d="M67.6515 38.192C67.1555 38.192 66.7715 38.056 66.4995 37.784C66.2435 37.496 66.1155 37.104 66.1155 36.608V23.648H61.4355C61.0195 23.648 60.6915 23.536 60.4515 23.312C60.2275 23.072 60.1155 22.752 60.1155 22.352C60.1155 21.936 60.2275 21.624 60.4515 21.416C60.6915 21.192 61.0195 21.08 61.4355 21.08H73.8675C74.2835 21.08 74.6035 21.192 74.8275 21.416C75.0675 21.624 75.1875 21.936 75.1875 22.352C75.1875 22.752 75.0675 23.072 74.8275 23.312C74.6035 23.536 74.2835 23.648 73.8675 23.648H69.1875V36.608C69.1875 37.104 69.0595 37.496 68.8035 37.784C68.5475 38.056 68.1635 38.192 67.6515 38.192ZM76.3148 38.192C75.8188 38.192 75.4348 38.064 75.1628 37.808C74.9068 37.536 74.7788 37.152 74.7788 36.656V27.584C74.7788 27.088 74.9068 26.712 75.1628 26.456C75.4188 26.2 75.7788 26.072 76.2428 26.072C76.7068 26.072 77.0668 26.2 77.3228 26.456C77.5788 26.712 77.7068 27.088 77.7068 27.584V29.096H77.4668C77.6908 28.136 78.1308 27.408 78.7868 26.912C79.4428 26.416 80.3148 26.12 81.4028 26.024C81.7388 25.992 82.0028 26.08 82.1948 26.288C82.4028 26.48 82.5228 26.784 82.5548 27.2C82.5868 27.6 82.4908 27.928 82.2668 28.184C82.0588 28.424 81.7388 28.568 81.3068 28.616L80.7788 28.664C79.8028 28.76 79.0668 29.064 78.5708 29.576C78.0748 30.072 77.8268 30.776 77.8268 31.688V36.656C77.8268 37.152 77.6988 37.536 77.4428 37.808C77.1868 38.064 76.8108 38.192 76.3148 38.192ZM87.8798 42.512C87.5278 42.512 87.2398 42.416 87.0158 42.224C86.7918 42.048 86.6558 41.808 86.6078 41.504C86.5758 41.2 86.6318 40.88 86.7758 40.544L88.4078 36.92V38.168L84.0398 28.064C83.8958 27.712 83.8478 27.384 83.8958 27.08C83.9438 26.776 84.0878 26.536 84.3278 26.36C84.5838 26.168 84.9278 26.072 85.3598 26.072C85.7278 26.072 86.0238 26.16 86.2478 26.336C86.4718 26.496 86.6718 26.808 86.8478 27.272L90.0878 35.36H89.3678L92.6798 27.248C92.8558 26.8 93.0638 26.496 93.3038 26.336C93.5438 26.16 93.8638 26.072 94.2638 26.072C94.6158 26.072 94.8958 26.168 95.1038 26.36C95.3118 26.536 95.4398 26.776 95.4878 27.08C95.5358 27.368 95.4798 27.688 95.3198 28.04L89.4878 41.36C89.2798 41.808 89.0558 42.112 88.8158 42.272C88.5758 42.432 88.2638 42.512 87.8798 42.512ZM105.54 38.192C105.06 38.192 104.692 38.064 104.436 37.808C104.18 37.536 104.052 37.152 104.052 36.656V27.584C104.052 27.088 104.18 26.712 104.436 26.456C104.692 26.2 105.052 26.072 105.516 26.072C105.98 26.072 106.34 26.2 106.596 26.456C106.852 26.712 106.98 27.088 106.98 27.584V29.216L106.716 28.616C107.068 27.768 107.612 27.128 108.348 26.696C109.1 26.248 109.948 26.024 110.892 26.024C111.836 26.024 112.612 26.2 113.22 26.552C113.828 26.904 114.284 27.44 114.588 28.16C114.892 28.864 115.044 29.76 115.044 30.848V36.656C115.044 37.152 114.916 37.536 114.66 37.808C114.404 38.064 114.036 38.192 113.556 38.192C113.076 38.192 112.7 38.064 112.428 37.808C112.172 37.536 112.044 37.152 112.044 36.656V30.992C112.044 30.08 111.868 29.416 111.516 29C111.18 28.584 110.652 28.376 109.932 28.376C109.052 28.376 108.348 28.656 107.82 29.216C107.308 29.76 107.052 30.488 107.052 31.4V36.656C107.052 37.68 106.548 38.192 105.54 38.192ZM123.875 38.24C122.547 38.24 121.403 37.992 120.443 37.496C119.483 37 118.739 36.296 118.211 35.384C117.699 34.472 117.443 33.392 117.443 32.144C117.443 30.928 117.691 29.864 118.187 28.952C118.699 28.04 119.395 27.328 120.275 26.816C121.171 26.288 122.187 26.024 123.323 26.024C124.155 26.024 124.899 26.16 125.555 26.432C126.227 26.704 126.795 27.096 127.259 27.608C127.739 28.12 128.099 28.744 128.339 29.48C128.595 30.2 128.723 31.016 128.723 31.928C128.723 32.216 128.619 32.44 128.411 32.6C128.219 32.744 127.939 32.816 127.571 32.816H119.867V31.088H126.611L126.227 31.448C126.227 30.712 126.115 30.096 125.891 29.6C125.683 29.104 125.371 28.728 124.955 28.472C124.555 28.2 124.051 28.064 123.443 28.064C122.771 28.064 122.195 28.224 121.715 28.544C121.251 28.848 120.891 29.288 120.635 29.864C120.395 30.424 120.275 31.096 120.275 31.88V32.048C120.275 33.36 120.579 34.344 121.187 35C121.811 35.64 122.723 35.96 123.923 35.96C124.339 35.96 124.803 35.912 125.315 35.816C125.843 35.704 126.339 35.52 126.803 35.264C127.139 35.072 127.435 34.992 127.691 35.024C127.947 35.04 128.147 35.128 128.291 35.288C128.451 35.448 128.547 35.648 128.579 35.888C128.611 36.112 128.563 36.344 128.435 36.584C128.323 36.824 128.123 37.032 127.835 37.208C127.275 37.56 126.627 37.824 125.891 38C125.171 38.16 124.499 38.24 123.875 38.24ZM135.448 38.192C135.048 38.192 134.704 38.096 134.416 37.904C134.128 37.696 133.896 37.376 133.72 36.944L130.24 28.064C130.096 27.68 130.048 27.344 130.096 27.056C130.16 26.752 130.312 26.512 130.552 26.336C130.792 26.16 131.112 26.072 131.512 26.072C131.864 26.072 132.152 26.16 132.376 26.336C132.6 26.496 132.792 26.808 132.952 27.272L135.856 35.264H135.304L138.304 27.08C138.432 26.728 138.6 26.472 138.808 26.312C139.032 26.152 139.32 26.072 139.672 26.072C140.024 26.072 140.312 26.16 140.536 26.336C140.76 26.496 140.928 26.744 141.04 27.08L143.992 35.264H143.488L146.416 27.2C146.576 26.768 146.776 26.472 147.016 26.312C147.272 26.152 147.552 26.072 147.856 26.072C148.24 26.072 148.536 26.168 148.744 26.36C148.952 26.552 149.072 26.8 149.104 27.104C149.136 27.392 149.08 27.712 148.936 28.064L145.48 36.944C145.32 37.36 145.088 37.672 144.784 37.88C144.496 38.088 144.152 38.192 143.752 38.192C143.352 38.192 143 38.088 142.696 37.88C142.408 37.672 142.184 37.36 142.024 36.944L138.88 28.616H140.248L137.176 36.92C137.016 37.352 136.792 37.672 136.504 37.88C136.216 38.088 135.864 38.192 135.448 38.192Z" fill="white"/>
</g>
<defs>
<clipPath id="clip0_3721_1620">
<rect width="90" height="28" fill="white" transform="translate(60 16)"/>
</clipPath>
</defs>
</svg>
