<svg width="253" height="237" viewBox="0 0 253 237" fill="none" xmlns="http://www.w3.org/2000/svg">
<path d="M48.043 1.48926L48.234 236" stroke="#C882FA" stroke-width="0.5"/>
<path d="M63.5137 1.48877L63.8956 236" stroke="#C882FA" stroke-width="0.5"/>
<path d="M16.4336 1.49023L15.5741 236" stroke="#C882FA" stroke-width="0.5"/>
<path d="M0.767061 1.48915L0.294438 235.999" stroke="#C882FA" stroke-width="0.5"/>
<path d="M32.1907 1.49022L31.4268 236" stroke="#C882FA" stroke-width="0.5"/>
<path d="M79.1753 1.48877L79.5573 236" stroke="#C882FA" stroke-width="0.5"/>
<path d="M94.646 1.43506L94.646 235.876" stroke="#C882FA" stroke-width="0.5"/>
<path d="M110.403 1.48877L110.689 235.999" stroke="#C882FA" stroke-width="0.5"/>
<path d="M126.151 1.48877L126.542 236" stroke="#C882FA" stroke-width="0.5"/>
<path d="M141.821 1.48926L141.63 236" stroke="#C882FA" stroke-width="0.5"/>
<path d="M157.483 1.48877L157.674 236" stroke="#C882FA" stroke-width="0.5"/>
<path d="M173.145 1.48877L173.527 235.755" stroke="#C882FA" stroke-width="0.5"/>
<path d="M188.806 1.48877L188.997 235.999" stroke="#C882FA" stroke-width="0.5"/>
<path d="M204.468 1.48682L205.614 235.999" stroke="#C882FA" stroke-width="0.5"/>
<path d="M220.034 1.48828L220.702 235.755" stroke="#C882FA" stroke-width="0.5"/>
<line y1="-0.25" x2="251.731" y2="-0.25" transform="matrix(1 -0.000195859 0.00011973 1 0.67627 17.6113)" stroke="#C882FA" stroke-width="0.5"/>
<line x1="0.67627" y1="1.23926" x2="252.407" y2="1.23922" stroke="#C882FA" stroke-width="0.5"/>
<line x1="0.67627" y1="37.3926" x2="252.407" y2="37.3925" stroke="#C882FA" stroke-width="0.5"/>
<line y1="-0.25" x2="251.731" y2="-0.25" transform="matrix(0.999998 -0.0019407 0.00118637 0.999999 0.67627 77.7046)" stroke="#C882FA" stroke-width="0.5"/>
<line y1="-0.25" x2="251.731" y2="-0.25" transform="matrix(0.999998 -0.00182673 0.00111669 0.999999 0.67627 58.1631)" stroke="#C882FA" stroke-width="0.5"/>
<line y1="-0.25" x2="251.731" y2="-0.25" transform="matrix(1 -6.01796e-06 3.67882e-06 1 0.294434 118.256)" stroke="#C882FA" stroke-width="0.5"/>
<line x1="0.67627" y1="97.9746" x2="252.025" y2="97.9746" stroke="#C882FA" stroke-width="0.5"/>
<line x1="0.294434" y1="158.068" x2="252.407" y2="158.068" stroke="#C882FA" stroke-width="0.5"/>
<line y1="-0.25" x2="251.731" y2="-0.25" transform="matrix(0.999998 0.00192928 -0.00117938 0.999999 0.294434 137.798)" stroke="#C882FA" stroke-width="0.5"/>
<line y1="-0.25" x2="251.731" y2="-0.25" transform="matrix(1 -1.26083e-05 7.70752e-06 1 0.67627 198.38)" stroke="#C882FA" stroke-width="0.5"/>
<line y1="-0.25" x2="252.113" y2="-0.25" transform="matrix(0.999998 0.00193787 -0.00118464 0.999999 0.294434 218.411)" stroke="#C882FA" stroke-width="0.5"/>
<path d="M0.294434 235.999L252.407 235.999" stroke="#C882FA" stroke-width="0.5"/>
<line y1="-0.25" x2="251.731" y2="-0.25" transform="matrix(0.999998 0.00194081 -0.00118643 0.999999 0.294434 178.349)" stroke="#C882FA" stroke-width="0.5"/>
<path d="M236.077 1L236.078 235.999" stroke="#C882FA" stroke-width="0.5"/>
<path d="M252.216 1L252.407 235.999" stroke="#C882FA" stroke-width="0.5"/>
</svg>
