<svg width="389" height="92" viewBox="0 0 389 92" fill="none" xmlns="http://www.w3.org/2000/svg">
<path d="M6.5957 85.16C6.2357 85.16 5.94237 85.0733 5.7157 84.9C5.50237 84.7267 5.32904 84.4533 5.1957 84.08L1.0157 72.26C0.869036 71.8333 0.895703 71.4733 1.0957 71.18C1.30904 70.8867 1.66237 70.74 2.1557 70.74C2.5157 70.74 2.7957 70.8267 2.9957 71C3.1957 71.16 3.3557 71.42 3.4757 71.78L7.0757 82.46H6.2757L10.0357 71.8C10.169 71.44 10.3357 71.1733 10.5357 71C10.7357 70.8267 10.9957 70.74 11.3157 70.74C11.6357 70.74 11.889 70.8267 12.0757 71C12.2624 71.1733 12.4224 71.4467 12.5557 71.82L16.1957 82.46H15.4957L19.1557 71.78C19.2757 71.4333 19.4357 71.1733 19.6357 71C19.8357 70.8267 20.109 70.74 20.4557 70.74C20.8824 70.74 21.1957 70.8867 21.3957 71.18C21.5957 71.4733 21.6224 71.8333 21.4757 72.26L17.2557 84.1C17.1224 84.46 16.949 84.7267 16.7357 84.9C16.5224 85.0733 16.2357 85.16 15.8757 85.16C15.5157 85.16 15.229 85.0733 15.0157 84.9C14.8024 84.7267 14.629 84.4533 14.4957 84.08L11.0157 74.16H11.4757L7.9557 84.1C7.82237 84.46 7.64904 84.7267 7.4357 84.9C7.2357 85.0733 6.9557 85.16 6.5957 85.16ZM27.2313 85.2C26.1247 85.2 25.1713 84.9933 24.3713 84.58C23.5713 84.1667 22.9513 83.58 22.5113 82.82C22.0847 82.06 21.8713 81.16 21.8713 80.12C21.8713 79.1067 22.078 78.22 22.4913 77.46C22.918 76.7 23.498 76.1067 24.2313 75.68C24.978 75.24 25.8247 75.02 26.7713 75.02C27.4647 75.02 28.0847 75.1333 28.6313 75.36C29.1913 75.5867 29.6647 75.9133 30.0513 76.34C30.4513 76.7667 30.7513 77.2867 30.9513 77.9C31.1647 78.5 31.2713 79.18 31.2713 79.94C31.2713 80.18 31.1847 80.3667 31.0113 80.5C30.8513 80.62 30.618 80.68 30.3113 80.68H23.8913V79.24H29.5113L29.1913 79.54C29.1913 78.9267 29.098 78.4133 28.9113 78C28.738 77.5867 28.478 77.2733 28.1313 77.06C27.798 76.8333 27.378 76.72 26.8713 76.72C26.3113 76.72 25.8313 76.8533 25.4313 77.12C25.0447 77.3733 24.7447 77.74 24.5313 78.22C24.3313 78.6867 24.2313 79.2467 24.2313 79.9V80.04C24.2313 81.1333 24.4847 81.9533 24.9913 82.5C25.5113 83.0333 26.2713 83.3 27.2713 83.3C27.618 83.3 28.0047 83.26 28.4313 83.18C28.8713 83.0867 29.2847 82.9333 29.6713 82.72C29.9513 82.56 30.198 82.4933 30.4113 82.52C30.6247 82.5333 30.7913 82.6067 30.9113 82.74C31.0447 82.8733 31.1247 83.04 31.1513 83.24C31.178 83.4267 31.138 83.62 31.0313 83.82C30.938 84.02 30.7713 84.1933 30.5313 84.34C30.0647 84.6333 29.5247 84.8533 28.9113 85C28.3113 85.1333 27.7513 85.2 27.2313 85.2ZM43.2009 85.2C42.1742 85.2 41.2809 84.9933 40.5209 84.58C39.7609 84.1533 39.1742 83.5533 38.7609 82.78C38.3475 82.0067 38.1409 81.1 38.1409 80.06C38.1409 79.2733 38.2542 78.5733 38.4809 77.96C38.7209 77.3333 39.0609 76.8067 39.5009 76.38C39.9409 75.94 40.4742 75.6067 41.1009 75.38C41.7275 75.14 42.4275 75.02 43.2009 75.02C43.6409 75.02 44.1142 75.08 44.6209 75.2C45.1409 75.32 45.6275 75.52 46.0809 75.8C46.2942 75.9333 46.4342 76.0933 46.5009 76.28C46.5675 76.4667 46.5809 76.66 46.5409 76.86C46.5009 77.0467 46.4142 77.2133 46.2809 77.36C46.1609 77.4933 46.0075 77.58 45.8209 77.62C45.6342 77.6467 45.4275 77.6 45.2009 77.48C44.9075 77.3067 44.6075 77.18 44.3009 77.1C43.9942 77.0067 43.7009 76.96 43.4209 76.96C42.9809 76.96 42.5942 77.0333 42.2609 77.18C41.9275 77.3133 41.6409 77.5133 41.4009 77.78C41.1742 78.0333 41.0009 78.3533 40.8809 78.74C40.7609 79.1267 40.7009 79.5733 40.7009 80.08C40.7009 81.0667 40.9342 81.8467 41.4009 82.42C41.8809 82.98 42.5542 83.26 43.4209 83.26C43.7009 83.26 43.9875 83.22 44.2809 83.14C44.5875 83.06 44.8942 82.9333 45.2009 82.76C45.4275 82.64 45.6275 82.6 45.8009 82.64C45.9875 82.68 46.1409 82.7733 46.2609 82.92C46.3809 83.0533 46.4542 83.22 46.4809 83.42C46.5075 83.6067 46.4809 83.7933 46.4009 83.98C46.3342 84.1667 46.2009 84.32 46.0009 84.44C45.5609 84.7067 45.0942 84.9 44.6009 85.02C44.1075 85.14 43.6409 85.2 43.2009 85.2ZM51.2759 85.2C50.5692 85.2 49.9359 85.0667 49.3759 84.8C48.8292 84.52 48.3959 84.1467 48.0759 83.68C47.7692 83.2133 47.6159 82.6867 47.6159 82.1C47.6159 81.38 47.8025 80.8133 48.1759 80.4C48.5492 79.9733 49.1559 79.6667 49.9959 79.48C50.8359 79.2933 51.9625 79.2 53.3759 79.2H54.3759V80.64H53.3959C52.5692 80.64 51.9092 80.68 51.4159 80.76C50.9225 80.84 50.5692 80.98 50.3559 81.18C50.1559 81.3667 50.0559 81.6333 50.0559 81.98C50.0559 82.42 50.2092 82.78 50.5159 83.06C50.8225 83.34 51.2492 83.48 51.7959 83.48C52.2359 83.48 52.6225 83.38 52.9559 83.18C53.3025 82.9667 53.5759 82.68 53.7759 82.32C53.9759 81.96 54.0759 81.5467 54.0759 81.08V78.78C54.0759 78.1133 53.9292 77.6333 53.6359 77.34C53.3425 77.0467 52.8492 76.9 52.1559 76.9C51.7692 76.9 51.3492 76.9467 50.8959 77.04C50.4559 77.1333 49.9892 77.2933 49.4959 77.52C49.2425 77.64 49.0159 77.6733 48.8159 77.62C48.6292 77.5667 48.4825 77.46 48.3759 77.3C48.2692 77.1267 48.2159 76.94 48.2159 76.74C48.2159 76.54 48.2692 76.3467 48.3759 76.16C48.4825 75.96 48.6625 75.8133 48.9159 75.72C49.5292 75.4667 50.1159 75.2867 50.6759 75.18C51.2492 75.0733 51.7692 75.02 52.2359 75.02C53.1959 75.02 53.9825 75.1667 54.5959 75.46C55.2225 75.7533 55.6892 76.2 55.9959 76.8C56.3025 77.3867 56.4559 78.1467 56.4559 79.08V83.88C56.4559 84.2933 56.3559 84.6133 56.1559 84.84C55.9559 85.0533 55.6692 85.16 55.2959 85.16C54.9225 85.16 54.6292 85.0533 54.4159 84.84C54.2159 84.6133 54.1159 84.2933 54.1159 83.88V82.92H54.2759C54.1825 83.3867 53.9959 83.7933 53.7159 84.14C53.4492 84.4733 53.1092 84.7333 52.6959 84.92C52.2825 85.1067 51.8092 85.2 51.2759 85.2ZM60.2334 85.16C59.8334 85.16 59.5267 85.0533 59.3134 84.84C59.1 84.6133 58.9934 84.2933 58.9934 83.88V76.32C58.9934 75.9067 59.1 75.5933 59.3134 75.38C59.5267 75.1667 59.8267 75.06 60.2134 75.06C60.6 75.06 60.9 75.1667 61.1134 75.38C61.3267 75.5933 61.4334 75.9067 61.4334 76.32V77.68L61.2134 77.18C61.5067 76.4733 61.96 75.94 62.5734 75.58C63.2 75.2067 63.9067 75.02 64.6934 75.02C65.48 75.02 66.1267 75.1667 66.6334 75.46C67.14 75.7533 67.52 76.2 67.7734 76.8C68.0267 77.3867 68.1534 78.1333 68.1534 79.04V83.88C68.1534 84.2933 68.0467 84.6133 67.8334 84.84C67.62 85.0533 67.3134 85.16 66.9134 85.16C66.5134 85.16 66.2 85.0533 65.9734 84.84C65.76 84.6133 65.6534 84.2933 65.6534 83.88V79.16C65.6534 78.4 65.5067 77.8467 65.2134 77.5C64.9334 77.1533 64.4934 76.98 63.8934 76.98C63.16 76.98 62.5734 77.2133 62.1334 77.68C61.7067 78.1333 61.4934 78.74 61.4934 79.5V83.88C61.4934 84.7333 61.0734 85.16 60.2334 85.16ZM79.7023 85.2C79.1289 85.2 78.5223 85.14 77.8823 85.02C77.2423 84.9 76.6689 84.6933 76.1623 84.4C75.9489 84.2667 75.7956 84.1133 75.7023 83.94C75.6223 83.7533 75.5889 83.5733 75.6023 83.4C75.6289 83.2133 75.6956 83.0533 75.8023 82.92C75.9223 82.7867 76.0689 82.7 76.2423 82.66C76.4289 82.62 76.6289 82.6533 76.8423 82.76C77.3756 83.0133 77.8756 83.1933 78.3423 83.3C78.8089 83.3933 79.2689 83.44 79.7223 83.44C80.3623 83.44 80.8356 83.3333 81.1423 83.12C81.4623 82.8933 81.6223 82.6 81.6223 82.24C81.6223 81.9333 81.5156 81.7 81.3023 81.54C81.1023 81.3667 80.7956 81.24 80.3823 81.16L78.3823 80.78C77.5556 80.62 76.9223 80.32 76.4823 79.88C76.0556 79.4267 75.8423 78.8467 75.8423 78.14C75.8423 77.5 76.0156 76.9467 76.3623 76.48C76.7223 76.0133 77.2156 75.6533 77.8423 75.4C78.4689 75.1467 79.1889 75.02 80.0023 75.02C80.5889 75.02 81.1356 75.0867 81.6423 75.22C82.1623 75.34 82.6623 75.5333 83.1423 75.8C83.3423 75.9067 83.4756 76.0467 83.5423 76.22C83.6223 76.3933 83.6423 76.5733 83.6023 76.76C83.5623 76.9333 83.4823 77.0933 83.3623 77.24C83.2423 77.3733 83.0889 77.46 82.9023 77.5C82.7289 77.5267 82.5289 77.4867 82.3023 77.38C81.8889 77.1667 81.4889 77.0133 81.1023 76.92C80.7289 76.8267 80.3689 76.78 80.0223 76.78C79.3689 76.78 78.8823 76.8933 78.5623 77.12C78.2556 77.3467 78.1023 77.6467 78.1023 78.02C78.1023 78.3 78.1956 78.5333 78.3823 78.72C78.5689 78.9067 78.8556 79.0333 79.2423 79.1L81.2423 79.48C82.1089 79.64 82.7623 79.9333 83.2023 80.36C83.6556 80.7867 83.8823 81.36 83.8823 82.08C83.8823 83.0533 83.5023 83.82 82.7423 84.38C81.9823 84.9267 80.9689 85.2 79.7023 85.2ZM89.1079 85.2C88.4012 85.2 87.7679 85.0667 87.2079 84.8C86.6612 84.52 86.2279 84.1467 85.9079 83.68C85.6012 83.2133 85.4479 82.6867 85.4479 82.1C85.4479 81.38 85.6346 80.8133 86.0079 80.4C86.3812 79.9733 86.9879 79.6667 87.8279 79.48C88.6679 79.2933 89.7946 79.2 91.2079 79.2H92.2079V80.64H91.2279C90.4012 80.64 89.7412 80.68 89.2479 80.76C88.7546 80.84 88.4012 80.98 88.1879 81.18C87.9879 81.3667 87.8879 81.6333 87.8879 81.98C87.8879 82.42 88.0412 82.78 88.3479 83.06C88.6546 83.34 89.0812 83.48 89.6279 83.48C90.0679 83.48 90.4546 83.38 90.7879 83.18C91.1346 82.9667 91.4079 82.68 91.6079 82.32C91.8079 81.96 91.9079 81.5467 91.9079 81.08V78.78C91.9079 78.1133 91.7612 77.6333 91.4679 77.34C91.1746 77.0467 90.6812 76.9 89.9879 76.9C89.6012 76.9 89.1812 76.9467 88.7279 77.04C88.2879 77.1333 87.8212 77.2933 87.3279 77.52C87.0746 77.64 86.8479 77.6733 86.6479 77.62C86.4612 77.5667 86.3146 77.46 86.2079 77.3C86.1012 77.1267 86.0479 76.94 86.0479 76.74C86.0479 76.54 86.1012 76.3467 86.2079 76.16C86.3146 75.96 86.4946 75.8133 86.7479 75.72C87.3612 75.4667 87.9479 75.2867 88.5079 75.18C89.0812 75.0733 89.6012 75.02 90.0679 75.02C91.0279 75.02 91.8146 75.1667 92.4279 75.46C93.0546 75.7533 93.5212 76.2 93.8279 76.8C94.1346 77.3867 94.2879 78.1467 94.2879 79.08V83.88C94.2879 84.2933 94.1879 84.6133 93.9879 84.84C93.7879 85.0533 93.5012 85.16 93.1279 85.16C92.7546 85.16 92.4612 85.0533 92.2479 84.84C92.0479 84.6133 91.9479 84.2933 91.9479 83.88V82.92H92.1079C92.0146 83.3867 91.8279 83.7933 91.5479 84.14C91.2812 84.4733 90.9412 84.7333 90.5279 84.92C90.1146 85.1067 89.6412 85.2 89.1079 85.2ZM99.2077 88.76C98.9144 88.76 98.6744 88.68 98.4877 88.52C98.3011 88.3733 98.1877 88.1733 98.1477 87.92C98.1211 87.6667 98.1677 87.4 98.2877 87.12L99.6477 84.1V85.14L96.0077 76.72C95.8877 76.4267 95.8477 76.1533 95.8877 75.9C95.9277 75.6467 96.0477 75.4467 96.2477 75.3C96.4611 75.14 96.7477 75.06 97.1077 75.06C97.4144 75.06 97.6611 75.1333 97.8477 75.28C98.0344 75.4133 98.2011 75.6733 98.3477 76.06L101.048 82.8H100.448L103.208 76.04C103.354 75.6667 103.528 75.4133 103.728 75.28C103.928 75.1333 104.194 75.06 104.528 75.06C104.821 75.06 105.054 75.14 105.228 75.3C105.401 75.4467 105.508 75.6467 105.548 75.9C105.588 76.14 105.541 76.4067 105.408 76.7L100.548 87.8C100.374 88.1733 100.188 88.4267 99.9877 88.56C99.7877 88.6933 99.5277 88.76 99.2077 88.76ZM117.165 85.2C116.298 85.2 115.571 85.0533 114.985 84.76C114.411 84.4667 113.985 84.04 113.705 83.48C113.425 82.9067 113.285 82.2 113.285 81.36V77.1H112.245C111.925 77.1 111.678 77.02 111.505 76.86C111.331 76.6867 111.245 76.4533 111.245 76.16C111.245 75.8533 111.331 75.62 111.505 75.46C111.678 75.3 111.925 75.22 112.245 75.22H113.285V73.4C113.285 72.9867 113.391 72.6733 113.605 72.46C113.831 72.2467 114.145 72.14 114.545 72.14C114.945 72.14 115.251 72.2467 115.465 72.46C115.678 72.6733 115.785 72.9867 115.785 73.4V75.22H117.905C118.225 75.22 118.471 75.3 118.645 75.46C118.818 75.62 118.905 75.8533 118.905 76.16C118.905 76.4533 118.818 76.6867 118.645 76.86C118.471 77.02 118.225 77.1 117.905 77.1H115.785V81.22C115.785 81.86 115.925 82.34 116.205 82.66C116.485 82.98 116.938 83.14 117.565 83.14C117.791 83.14 117.991 83.12 118.165 83.08C118.338 83.04 118.491 83.0133 118.625 83C118.785 82.9867 118.918 83.04 119.025 83.16C119.131 83.2667 119.185 83.4933 119.185 83.84C119.185 84.1067 119.138 84.3467 119.045 84.56C118.965 84.76 118.811 84.9 118.585 84.98C118.411 85.0333 118.185 85.08 117.905 85.12C117.625 85.1733 117.378 85.2 117.165 85.2ZM121.854 85.16C121.454 85.16 121.148 85.0533 120.934 84.84C120.721 84.6133 120.614 84.2933 120.614 83.88V72C120.614 71.5867 120.721 71.2733 120.934 71.06C121.148 70.8467 121.454 70.74 121.854 70.74C122.254 70.74 122.561 70.8467 122.774 71.06C123.001 71.2733 123.114 71.5867 123.114 72V77.18H122.834C123.128 76.4733 123.581 75.94 124.194 75.58C124.821 75.2067 125.528 75.02 126.314 75.02C127.101 75.02 127.748 75.1667 128.254 75.46C128.761 75.7533 129.141 76.2 129.394 76.8C129.648 77.3867 129.774 78.1333 129.774 79.04V83.88C129.774 84.2933 129.668 84.6133 129.454 84.84C129.241 85.0533 128.934 85.16 128.534 85.16C128.134 85.16 127.821 85.0533 127.594 84.84C127.381 84.6133 127.274 84.2933 127.274 83.88V79.16C127.274 78.4 127.128 77.8467 126.834 77.5C126.554 77.1533 126.114 76.98 125.514 76.98C124.781 76.98 124.194 77.2133 123.754 77.68C123.328 78.1333 123.114 78.74 123.114 79.5V83.88C123.114 84.7333 122.694 85.16 121.854 85.16ZM135.534 85.2C134.827 85.2 134.194 85.0667 133.634 84.8C133.087 84.52 132.654 84.1467 132.334 83.68C132.027 83.2133 131.874 82.6867 131.874 82.1C131.874 81.38 132.06 80.8133 132.434 80.4C132.807 79.9733 133.414 79.6667 134.254 79.48C135.094 79.2933 136.22 79.2 137.634 79.2H138.634V80.64H137.654C136.827 80.64 136.167 80.68 135.674 80.76C135.18 80.84 134.827 80.98 134.614 81.18C134.414 81.3667 134.314 81.6333 134.314 81.98C134.314 82.42 134.467 82.78 134.774 83.06C135.08 83.34 135.507 83.48 136.054 83.48C136.494 83.48 136.88 83.38 137.214 83.18C137.56 82.9667 137.834 82.68 138.034 82.32C138.234 81.96 138.334 81.5467 138.334 81.08V78.78C138.334 78.1133 138.187 77.6333 137.894 77.34C137.6 77.0467 137.107 76.9 136.414 76.9C136.027 76.9 135.607 76.9467 135.154 77.04C134.714 77.1333 134.247 77.2933 133.754 77.52C133.5 77.64 133.274 77.6733 133.074 77.62C132.887 77.5667 132.74 77.46 132.634 77.3C132.527 77.1267 132.474 76.94 132.474 76.74C132.474 76.54 132.527 76.3467 132.634 76.16C132.74 75.96 132.92 75.8133 133.174 75.72C133.787 75.4667 134.374 75.2867 134.934 75.18C135.507 75.0733 136.027 75.02 136.494 75.02C137.454 75.02 138.24 75.1667 138.854 75.46C139.48 75.7533 139.947 76.2 140.254 76.8C140.56 77.3867 140.714 78.1467 140.714 79.08V83.88C140.714 84.2933 140.614 84.6133 140.414 84.84C140.214 85.0533 139.927 85.16 139.554 85.16C139.18 85.16 138.887 85.0533 138.674 84.84C138.474 84.6133 138.374 84.2933 138.374 83.88V82.92H138.534C138.44 83.3867 138.254 83.7933 137.974 84.14C137.707 84.4733 137.367 84.7333 136.954 84.92C136.54 85.1067 136.067 85.2 135.534 85.2ZM147.731 85.2C146.865 85.2 146.138 85.0533 145.551 84.76C144.978 84.4667 144.551 84.04 144.271 83.48C143.991 82.9067 143.851 82.2 143.851 81.36V77.1H142.811C142.491 77.1 142.245 77.02 142.071 76.86C141.898 76.6867 141.811 76.4533 141.811 76.16C141.811 75.8533 141.898 75.62 142.071 75.46C142.245 75.3 142.491 75.22 142.811 75.22H143.851V73.4C143.851 72.9867 143.958 72.6733 144.171 72.46C144.398 72.2467 144.711 72.14 145.111 72.14C145.511 72.14 145.818 72.2467 146.031 72.46C146.245 72.6733 146.351 72.9867 146.351 73.4V75.22H148.471C148.791 75.22 149.038 75.3 149.211 75.46C149.385 75.62 149.471 75.8533 149.471 76.16C149.471 76.4533 149.385 76.6867 149.211 76.86C149.038 77.02 148.791 77.1 148.471 77.1H146.351V81.22C146.351 81.86 146.491 82.34 146.771 82.66C147.051 82.98 147.505 83.14 148.131 83.14C148.358 83.14 148.558 83.12 148.731 83.08C148.905 83.04 149.058 83.0133 149.191 83C149.351 82.9867 149.485 83.04 149.591 83.16C149.698 83.2667 149.751 83.4933 149.751 83.84C149.751 84.1067 149.705 84.3467 149.611 84.56C149.531 84.76 149.378 84.9 149.151 84.98C148.978 85.0333 148.751 85.08 148.471 85.12C148.191 85.1733 147.945 85.2 147.731 85.2ZM152.799 87.14C152.625 87.3533 152.439 87.4733 152.239 87.5C152.052 87.54 151.885 87.5067 151.739 87.4C151.592 87.2933 151.512 87.14 151.499 86.94C151.485 86.7533 151.572 86.5467 151.759 86.32C152.025 85.9867 152.205 85.6533 152.299 85.32C152.392 84.9867 152.439 84.6867 152.439 84.42L152.539 85.1C152.072 85.1 151.692 84.9667 151.399 84.7C151.119 84.42 150.979 84.0533 150.979 83.6C150.979 83.1733 151.112 82.8267 151.379 82.56C151.645 82.28 152.005 82.14 152.459 82.14C152.925 82.14 153.292 82.3 153.559 82.62C153.825 82.9267 153.959 83.3733 153.959 83.96C153.959 84.28 153.925 84.6133 153.859 84.96C153.805 85.2933 153.692 85.64 153.519 86C153.359 86.3733 153.119 86.7533 152.799 87.14ZM200.644 85.14C200.244 85.14 199.937 85.02 199.724 84.78C199.51 84.54 199.404 84.2067 199.404 83.78V76.44C199.404 76 199.51 75.6667 199.724 75.44C199.937 75.2 200.244 75.08 200.644 75.08C201.044 75.08 201.35 75.2 201.564 75.44C201.79 75.6667 201.904 76 201.904 76.44V83.78C201.904 84.2067 201.797 84.54 201.584 84.78C201.37 85.02 201.057 85.14 200.644 85.14ZM200.644 73.22C200.177 73.22 199.81 73.1067 199.544 72.88C199.29 72.64 199.164 72.3133 199.164 71.9C199.164 71.4733 199.29 71.1467 199.544 70.92C199.81 70.6933 200.177 70.58 200.644 70.58C201.124 70.58 201.49 70.6933 201.744 70.92C201.997 71.1467 202.124 71.4733 202.124 71.9C202.124 72.3133 201.997 72.64 201.744 72.88C201.49 73.1067 201.124 73.22 200.644 73.22ZM208.081 85.2C207.508 85.2 206.901 85.14 206.261 85.02C205.621 84.9 205.048 84.6933 204.541 84.4C204.328 84.2667 204.175 84.1133 204.081 83.94C204.001 83.7533 203.968 83.5733 203.981 83.4C204.008 83.2133 204.075 83.0533 204.181 82.92C204.301 82.7867 204.448 82.7 204.621 82.66C204.808 82.62 205.008 82.6533 205.221 82.76C205.755 83.0133 206.255 83.1933 206.721 83.3C207.188 83.3933 207.648 83.44 208.101 83.44C208.741 83.44 209.215 83.3333 209.521 83.12C209.841 82.8933 210.001 82.6 210.001 82.24C210.001 81.9333 209.895 81.7 209.681 81.54C209.481 81.3667 209.175 81.24 208.761 81.16L206.761 80.78C205.935 80.62 205.301 80.32 204.861 79.88C204.435 79.4267 204.221 78.8467 204.221 78.14C204.221 77.5 204.395 76.9467 204.741 76.48C205.101 76.0133 205.595 75.6533 206.221 75.4C206.848 75.1467 207.568 75.02 208.381 75.02C208.968 75.02 209.515 75.0867 210.021 75.22C210.541 75.34 211.041 75.5333 211.521 75.8C211.721 75.9067 211.855 76.0467 211.921 76.22C212.001 76.3933 212.021 76.5733 211.981 76.76C211.941 76.9333 211.861 77.0933 211.741 77.24C211.621 77.3733 211.468 77.46 211.281 77.5C211.108 77.5267 210.908 77.4867 210.681 77.38C210.268 77.1667 209.868 77.0133 209.481 76.92C209.108 76.8267 208.748 76.78 208.401 76.78C207.748 76.78 207.261 76.8933 206.941 77.12C206.635 77.3467 206.481 77.6467 206.481 78.02C206.481 78.3 206.575 78.5333 206.761 78.72C206.948 78.9067 207.235 79.0333 207.621 79.1L209.621 79.48C210.488 79.64 211.141 79.9333 211.581 80.36C212.035 80.7867 212.261 81.36 212.261 82.08C212.261 83.0533 211.881 83.82 211.121 84.38C210.361 84.9267 209.348 85.2 208.081 85.2ZM223.276 85.2C222.703 85.2 222.096 85.14 221.456 85.02C220.816 84.9 220.243 84.6933 219.736 84.4C219.523 84.2667 219.37 84.1133 219.276 83.94C219.196 83.7533 219.163 83.5733 219.176 83.4C219.203 83.2133 219.27 83.0533 219.376 82.92C219.496 82.7867 219.643 82.7 219.816 82.66C220.003 82.62 220.203 82.6533 220.416 82.76C220.95 83.0133 221.45 83.1933 221.916 83.3C222.383 83.3933 222.843 83.44 223.296 83.44C223.936 83.44 224.41 83.3333 224.716 83.12C225.036 82.8933 225.196 82.6 225.196 82.24C225.196 81.9333 225.09 81.7 224.876 81.54C224.676 81.3667 224.37 81.24 223.956 81.16L221.956 80.78C221.13 80.62 220.496 80.32 220.056 79.88C219.63 79.4267 219.416 78.8467 219.416 78.14C219.416 77.5 219.59 76.9467 219.936 76.48C220.296 76.0133 220.79 75.6533 221.416 75.4C222.043 75.1467 222.763 75.02 223.576 75.02C224.163 75.02 224.71 75.0867 225.216 75.22C225.736 75.34 226.236 75.5333 226.716 75.8C226.916 75.9067 227.05 76.0467 227.116 76.22C227.196 76.3933 227.216 76.5733 227.176 76.76C227.136 76.9333 227.056 77.0933 226.936 77.24C226.816 77.3733 226.663 77.46 226.476 77.5C226.303 77.5267 226.103 77.4867 225.876 77.38C225.463 77.1667 225.063 77.0133 224.676 76.92C224.303 76.8267 223.943 76.78 223.596 76.78C222.943 76.78 222.456 76.8933 222.136 77.12C221.83 77.3467 221.676 77.6467 221.676 78.02C221.676 78.3 221.77 78.5333 221.956 78.72C222.143 78.9067 222.43 79.0333 222.816 79.1L224.816 79.48C225.683 79.64 226.336 79.9333 226.776 80.36C227.23 80.7867 227.456 81.36 227.456 82.08C227.456 83.0533 227.076 83.82 226.316 84.38C225.556 84.9267 224.543 85.2 223.276 85.2ZM233.002 85.2C232.189 85.2 231.515 85.0533 230.982 84.76C230.449 84.4533 230.049 84 229.782 83.4C229.529 82.8 229.402 82.0533 229.402 81.16V76.32C229.402 75.8933 229.509 75.58 229.722 75.38C229.935 75.1667 230.242 75.06 230.642 75.06C231.042 75.06 231.349 75.1667 231.562 75.38C231.789 75.58 231.902 75.8933 231.902 76.32V81.2C231.902 81.8933 232.042 82.4067 232.322 82.74C232.602 83.0733 233.049 83.24 233.662 83.24C234.329 83.24 234.875 83.0133 235.302 82.56C235.729 82.0933 235.942 81.48 235.942 80.72V76.32C235.942 75.8933 236.049 75.58 236.262 75.38C236.475 75.1667 236.782 75.06 237.182 75.06C237.582 75.06 237.889 75.1667 238.102 75.38C238.329 75.58 238.442 75.8933 238.442 76.32V83.88C238.442 84.7333 238.035 85.16 237.222 85.16C236.835 85.16 236.535 85.0533 236.322 84.84C236.109 84.6133 236.002 84.2933 236.002 83.88V82.36L236.282 82.96C236.002 83.68 235.575 84.2333 235.002 84.62C234.442 85.0067 233.775 85.2 233.002 85.2ZM242.284 88.76C241.884 88.76 241.577 88.6533 241.364 88.44C241.151 88.2267 241.044 87.9133 241.044 87.5V76.32C241.044 75.9067 241.151 75.5933 241.364 75.38C241.577 75.1667 241.877 75.06 242.264 75.06C242.664 75.06 242.971 75.1667 243.184 75.38C243.397 75.5933 243.504 75.9067 243.504 76.32V77.88L243.284 77.28C243.484 76.6 243.891 76.0533 244.504 75.64C245.131 75.2267 245.857 75.02 246.684 75.02C247.537 75.02 248.284 75.2267 248.924 75.64C249.577 76.0533 250.084 76.64 250.444 77.4C250.804 78.1467 250.984 79.0467 250.984 80.1C250.984 81.14 250.804 82.0467 250.444 82.82C250.084 83.58 249.584 84.1667 248.944 84.58C248.304 84.9933 247.551 85.2 246.684 85.2C245.871 85.2 245.157 85 244.544 84.6C243.931 84.1867 243.517 83.6533 243.304 83H243.544V87.5C243.544 87.9133 243.431 88.2267 243.204 88.44C242.991 88.6533 242.684 88.76 242.284 88.76ZM245.984 83.3C246.477 83.3 246.911 83.18 247.284 82.94C247.657 82.7 247.944 82.3467 248.144 81.88C248.357 81.4 248.464 80.8067 248.464 80.1C248.464 79.0333 248.237 78.24 247.784 77.72C247.331 77.1867 246.731 76.92 245.984 76.92C245.491 76.92 245.057 77.04 244.684 77.28C244.311 77.5067 244.017 77.86 243.804 78.34C243.604 78.8067 243.504 79.3933 243.504 80.1C243.504 81.1533 243.731 81.9533 244.184 82.5C244.637 83.0333 245.237 83.3 245.984 83.3ZM254.276 88.76C253.876 88.76 253.57 88.6533 253.356 88.44C253.143 88.2267 253.036 87.9133 253.036 87.5V76.32C253.036 75.9067 253.143 75.5933 253.356 75.38C253.57 75.1667 253.87 75.06 254.256 75.06C254.656 75.06 254.963 75.1667 255.176 75.38C255.39 75.5933 255.496 75.9067 255.496 76.32V77.88L255.276 77.28C255.476 76.6 255.883 76.0533 256.496 75.64C257.123 75.2267 257.85 75.02 258.676 75.02C259.53 75.02 260.276 75.2267 260.916 75.64C261.57 76.0533 262.076 76.64 262.436 77.4C262.796 78.1467 262.976 79.0467 262.976 80.1C262.976 81.14 262.796 82.0467 262.436 82.82C262.076 83.58 261.576 84.1667 260.936 84.58C260.296 84.9933 259.543 85.2 258.676 85.2C257.863 85.2 257.15 85 256.536 84.6C255.923 84.1867 255.51 83.6533 255.296 83H255.536V87.5C255.536 87.9133 255.423 88.2267 255.196 88.44C254.983 88.6533 254.676 88.76 254.276 88.76ZM257.976 83.3C258.47 83.3 258.903 83.18 259.276 82.94C259.65 82.7 259.936 82.3467 260.136 81.88C260.35 81.4 260.456 80.8067 260.456 80.1C260.456 79.0333 260.23 78.24 259.776 77.72C259.323 77.1867 258.723 76.92 257.976 76.92C257.483 76.92 257.05 77.04 256.676 77.28C256.303 77.5067 256.01 77.86 255.796 78.34C255.596 78.8067 255.496 79.3933 255.496 80.1C255.496 81.1533 255.723 81.9533 256.176 82.5C256.63 83.0333 257.23 83.3 257.976 83.3ZM268.369 85.2C267.262 85.2 266.429 84.8867 265.869 84.26C265.309 83.62 265.029 82.6867 265.029 81.46V72C265.029 71.5867 265.135 71.2733 265.349 71.06C265.562 70.8467 265.869 70.74 266.269 70.74C266.669 70.74 266.975 70.8467 267.189 71.06C267.415 71.2733 267.529 71.5867 267.529 72V81.34C267.529 81.9533 267.655 82.4067 267.909 82.7C268.175 82.9933 268.549 83.14 269.029 83.14C269.135 83.14 269.235 83.14 269.329 83.14C269.422 83.1267 269.515 83.1133 269.609 83.1C269.795 83.0733 269.922 83.1267 269.989 83.26C270.055 83.38 270.089 83.6333 270.089 84.02C270.089 84.3533 270.022 84.6133 269.889 84.8C269.755 84.9867 269.535 85.1 269.229 85.14C269.095 85.1533 268.955 85.1667 268.809 85.18C268.662 85.1933 268.515 85.2 268.369 85.2ZM276.138 85.2C275.031 85.2 274.078 84.9933 273.278 84.58C272.478 84.1667 271.858 83.58 271.418 82.82C270.991 82.06 270.778 81.16 270.778 80.12C270.778 79.1067 270.984 78.22 271.398 77.46C271.824 76.7 272.404 76.1067 273.138 75.68C273.884 75.24 274.731 75.02 275.678 75.02C276.371 75.02 276.991 75.1333 277.538 75.36C278.098 75.5867 278.571 75.9133 278.958 76.34C279.358 76.7667 279.658 77.2867 279.858 77.9C280.071 78.5 280.178 79.18 280.178 79.94C280.178 80.18 280.091 80.3667 279.918 80.5C279.758 80.62 279.524 80.68 279.218 80.68H272.798V79.24H278.418L278.098 79.54C278.098 78.9267 278.004 78.4133 277.818 78C277.644 77.5867 277.384 77.2733 277.038 77.06C276.704 76.8333 276.284 76.72 275.778 76.72C275.218 76.72 274.738 76.8533 274.338 77.12C273.951 77.3733 273.651 77.74 273.438 78.22C273.238 78.6867 273.138 79.2467 273.138 79.9V80.04C273.138 81.1333 273.391 81.9533 273.898 82.5C274.418 83.0333 275.178 83.3 276.178 83.3C276.524 83.3 276.911 83.26 277.338 83.18C277.778 83.0867 278.191 82.9333 278.578 82.72C278.858 82.56 279.104 82.4933 279.318 82.52C279.531 82.5333 279.698 82.6067 279.818 82.74C279.951 82.8733 280.031 83.04 280.058 83.24C280.084 83.4267 280.044 83.62 279.938 83.82C279.844 84.02 279.678 84.1933 279.438 84.34C278.971 84.6333 278.431 84.8533 277.818 85C277.218 85.1333 276.658 85.2 276.138 85.2ZM283.437 85.16C283.037 85.16 282.731 85.0533 282.517 84.84C282.304 84.6133 282.197 84.2933 282.197 83.88V76.32C282.197 75.9067 282.304 75.5933 282.517 75.38C282.731 75.1667 283.031 75.06 283.417 75.06C283.804 75.06 284.104 75.1667 284.317 75.38C284.531 75.5933 284.637 75.9067 284.637 76.32V77.78L284.417 77.18C284.684 76.5133 285.097 75.9867 285.657 75.6C286.217 75.2133 286.884 75.02 287.657 75.02C288.444 75.02 289.091 75.2067 289.597 75.58C290.104 75.9533 290.457 76.5267 290.657 77.3H290.377C290.644 76.5933 291.084 76.04 291.697 75.64C292.311 75.2267 293.017 75.02 293.817 75.02C294.564 75.02 295.177 75.1667 295.657 75.46C296.151 75.7533 296.517 76.2 296.757 76.8C296.997 77.3867 297.117 78.1333 297.117 79.04V83.88C297.117 84.2933 297.004 84.6133 296.777 84.84C296.564 85.0533 296.257 85.16 295.857 85.16C295.457 85.16 295.151 85.0533 294.937 84.84C294.724 84.6133 294.617 84.2933 294.617 83.88V79.14C294.617 78.3933 294.491 77.8467 294.237 77.5C293.997 77.1533 293.584 76.98 292.997 76.98C292.344 76.98 291.831 77.2133 291.457 77.68C291.084 78.1333 290.897 78.7667 290.897 79.58V83.88C290.897 84.2933 290.791 84.6133 290.577 84.84C290.364 85.0533 290.057 85.16 289.657 85.16C289.257 85.16 288.944 85.0533 288.717 84.84C288.504 84.6133 288.397 84.2933 288.397 83.88V79.14C288.397 78.3933 288.271 77.8467 288.017 77.5C287.777 77.1533 287.371 76.98 286.797 76.98C286.144 76.98 285.631 77.2133 285.257 77.68C284.884 78.1333 284.697 78.7667 284.697 79.58V83.88C284.697 84.7333 284.277 85.16 283.437 85.16ZM304.516 85.2C303.41 85.2 302.456 84.9933 301.656 84.58C300.856 84.1667 300.236 83.58 299.796 82.82C299.37 82.06 299.156 81.16 299.156 80.12C299.156 79.1067 299.363 78.22 299.776 77.46C300.203 76.7 300.783 76.1067 301.516 75.68C302.263 75.24 303.11 75.02 304.056 75.02C304.75 75.02 305.37 75.1333 305.916 75.36C306.476 75.5867 306.95 75.9133 307.336 76.34C307.736 76.7667 308.036 77.2867 308.236 77.9C308.45 78.5 308.556 79.18 308.556 79.94C308.556 80.18 308.47 80.3667 308.296 80.5C308.136 80.62 307.903 80.68 307.596 80.68H301.176V79.24H306.796L306.476 79.54C306.476 78.9267 306.383 78.4133 306.196 78C306.023 77.5867 305.763 77.2733 305.416 77.06C305.083 76.8333 304.663 76.72 304.156 76.72C303.596 76.72 303.116 76.8533 302.716 77.12C302.33 77.3733 302.03 77.74 301.816 78.22C301.616 78.6867 301.516 79.2467 301.516 79.9V80.04C301.516 81.1333 301.77 81.9533 302.276 82.5C302.796 83.0333 303.556 83.3 304.556 83.3C304.903 83.3 305.29 83.26 305.716 83.18C306.156 83.0867 306.57 82.9333 306.956 82.72C307.236 82.56 307.483 82.4933 307.696 82.52C307.91 82.5333 308.076 82.6067 308.196 82.74C308.33 82.8733 308.41 83.04 308.436 83.24C308.463 83.4267 308.423 83.62 308.316 83.82C308.223 84.02 308.056 84.1933 307.816 84.34C307.35 84.6333 306.81 84.8533 306.196 85C305.596 85.1333 305.036 85.2 304.516 85.2ZM311.776 85.16C311.376 85.16 311.07 85.0533 310.856 84.84C310.643 84.6133 310.536 84.2933 310.536 83.88V76.32C310.536 75.9067 310.643 75.5933 310.856 75.38C311.07 75.1667 311.37 75.06 311.756 75.06C312.143 75.06 312.443 75.1667 312.656 75.38C312.87 75.5933 312.976 75.9067 312.976 76.32V77.68L312.756 77.18C313.05 76.4733 313.503 75.94 314.116 75.58C314.743 75.2067 315.45 75.02 316.236 75.02C317.023 75.02 317.67 75.1667 318.176 75.46C318.683 75.7533 319.063 76.2 319.316 76.8C319.57 77.3867 319.696 78.1333 319.696 79.04V83.88C319.696 84.2933 319.59 84.6133 319.376 84.84C319.163 85.0533 318.856 85.16 318.456 85.16C318.056 85.16 317.743 85.0533 317.516 84.84C317.303 84.6133 317.196 84.2933 317.196 83.88V79.16C317.196 78.4 317.05 77.8467 316.756 77.5C316.476 77.1533 316.036 76.98 315.436 76.98C314.703 76.98 314.116 77.2133 313.676 77.68C313.25 78.1333 313.036 78.74 313.036 79.5V83.88C313.036 84.7333 312.616 85.16 311.776 85.16ZM326.716 85.2C325.849 85.2 325.122 85.0533 324.536 84.76C323.962 84.4667 323.536 84.04 323.256 83.48C322.976 82.9067 322.836 82.2 322.836 81.36V77.1H321.796C321.476 77.1 321.229 77.02 321.056 76.86C320.882 76.6867 320.796 76.4533 320.796 76.16C320.796 75.8533 320.882 75.62 321.056 75.46C321.229 75.3 321.476 75.22 321.796 75.22H322.836V73.4C322.836 72.9867 322.942 72.6733 323.156 72.46C323.382 72.2467 323.696 72.14 324.096 72.14C324.496 72.14 324.802 72.2467 325.016 72.46C325.229 72.6733 325.336 72.9867 325.336 73.4V75.22H327.456C327.776 75.22 328.022 75.3 328.196 75.46C328.369 75.62 328.456 75.8533 328.456 76.16C328.456 76.4533 328.369 76.6867 328.196 76.86C328.022 77.02 327.776 77.1 327.456 77.1H325.336V81.22C325.336 81.86 325.476 82.34 325.756 82.66C326.036 82.98 326.489 83.14 327.116 83.14C327.342 83.14 327.542 83.12 327.716 83.08C327.889 83.04 328.042 83.0133 328.176 83C328.336 82.9867 328.469 83.04 328.576 83.16C328.682 83.2667 328.736 83.4933 328.736 83.84C328.736 84.1067 328.689 84.3467 328.596 84.56C328.516 84.76 328.362 84.9 328.136 84.98C327.962 85.0333 327.736 85.08 327.456 85.12C327.176 85.1733 326.929 85.2 326.716 85.2ZM339.801 85.2C338.788 85.2 337.908 84.9933 337.161 84.58C336.414 84.1667 335.834 83.58 335.421 82.82C335.008 82.0467 334.801 81.14 334.801 80.1C334.801 79.3133 334.914 78.6133 335.141 78C335.381 77.3733 335.721 76.84 336.161 76.4C336.601 75.9467 337.128 75.6067 337.741 75.38C338.354 75.14 339.041 75.02 339.801 75.02C340.814 75.02 341.694 75.2267 342.441 75.64C343.188 76.0533 343.768 76.64 344.181 77.4C344.594 78.16 344.801 79.06 344.801 80.1C344.801 80.8867 344.681 81.5933 344.441 82.22C344.214 82.8467 343.881 83.3867 343.441 83.84C343.001 84.28 342.474 84.62 341.861 84.86C341.248 85.0867 340.561 85.2 339.801 85.2ZM339.801 83.3C340.294 83.3 340.728 83.18 341.101 82.94C341.474 82.7 341.761 82.3467 341.961 81.88C342.174 81.4 342.281 80.8067 342.281 80.1C342.281 79.0333 342.054 78.24 341.601 77.72C341.148 77.1867 340.548 76.92 339.801 76.92C339.308 76.92 338.874 77.04 338.501 77.28C338.128 77.5067 337.834 77.86 337.621 78.34C337.421 78.8067 337.321 79.3933 337.321 80.1C337.321 81.1533 337.548 81.9533 338.001 82.5C338.454 83.0333 339.054 83.3 339.801 83.3ZM348.687 85.16C348.287 85.16 347.973 85.0533 347.747 84.84C347.533 84.6133 347.427 84.2933 347.427 83.88V77.1H346.507C346.187 77.1 345.94 77.02 345.767 76.86C345.593 76.6867 345.507 76.4533 345.507 76.16C345.507 75.8533 345.593 75.62 345.767 75.46C345.94 75.3 346.187 75.22 346.507 75.22H348.147L347.427 75.88V75.2C347.427 73.8267 347.773 72.8 348.467 72.12C349.16 71.4267 350.16 71.02 351.467 70.9L352.147 70.84C352.413 70.8133 352.627 70.86 352.787 70.98C352.947 71.0867 353.053 71.2333 353.107 71.42C353.16 71.5933 353.167 71.7733 353.127 71.96C353.087 72.1467 353 72.3133 352.867 72.46C352.747 72.5933 352.587 72.6667 352.387 72.68L352.107 72.7C351.347 72.7533 350.793 72.9467 350.447 73.28C350.1 73.6133 349.927 74.12 349.927 74.8V75.54L349.607 75.22H351.627C351.947 75.22 352.193 75.3 352.367 75.46C352.54 75.62 352.627 75.8533 352.627 76.16C352.627 76.4533 352.54 76.6867 352.367 76.86C352.193 77.02 351.947 77.1 351.627 77.1H349.927V83.88C349.927 84.7333 349.513 85.16 348.687 85.16ZM386.443 85.1C385.99 85.1 385.623 84.96 385.343 84.68C385.077 84.4 384.943 84.04 384.943 83.6C384.943 83.1733 385.077 82.8267 385.343 82.56C385.623 82.28 385.99 82.14 386.443 82.14C386.91 82.14 387.27 82.28 387.523 82.56C387.79 82.8267 387.923 83.1733 387.923 83.6C387.923 84.04 387.79 84.4 387.523 84.68C387.27 84.96 386.91 85.1 386.443 85.1Z" fill="#646464"/>
<path d="M170.329 83.94L162.329 80.56C161.716 80.3067 161.409 79.8667 161.409 79.24C161.409 78.9333 161.482 78.68 161.629 78.48C161.789 78.2667 162.022 78.0933 162.329 77.96L170.329 74.56C170.556 74.4667 170.756 74.4467 170.929 74.5C171.116 74.5533 171.262 74.6533 171.369 74.8C171.476 74.9467 171.536 75.1133 171.549 75.3C171.562 75.4867 171.522 75.6667 171.429 75.84C171.349 76 171.196 76.1267 170.969 76.22L162.249 79.88V78.64L170.969 82.3C171.196 82.3933 171.349 82.5267 171.429 82.7C171.522 82.86 171.562 83.0333 171.549 83.22C171.536 83.3933 171.476 83.5533 171.369 83.7C171.262 83.8467 171.116 83.9467 170.929 84C170.756 84.0533 170.556 84.0333 170.329 83.94ZM368.142 83.94L360.142 80.56C359.528 80.3067 359.222 79.8667 359.222 79.24C359.222 78.9333 359.295 78.68 359.442 78.48C359.602 78.2667 359.835 78.0933 360.142 77.96L368.142 74.56C368.368 74.4667 368.568 74.4467 368.742 74.5C368.928 74.5533 369.075 74.6533 369.182 74.8C369.288 74.9467 369.348 75.1133 369.362 75.3C369.375 75.4867 369.335 75.6667 369.242 75.84C369.162 76 369.008 76.1267 368.782 76.22L360.062 79.88V78.64L368.782 82.3C369.008 82.3933 369.162 82.5267 369.242 82.7C369.335 82.86 369.375 83.0333 369.362 83.22C369.348 83.3933 369.288 83.5533 369.182 83.7C369.075 83.8467 368.928 83.9467 368.742 84C368.568 84.0533 368.368 84.0333 368.142 83.94Z" fill="white"/>
<path d="M179.471 85.16C179.151 85.16 178.891 85.0867 178.691 84.94C178.504 84.7933 178.391 84.6 178.351 84.36C178.311 84.1067 178.358 83.8267 178.491 83.52L183.771 71.82C183.944 71.4333 184.151 71.16 184.391 71C184.644 70.8267 184.931 70.74 185.251 70.74C185.558 70.74 185.831 70.8267 186.071 71C186.324 71.16 186.538 71.4333 186.711 71.82L192.011 83.52C192.158 83.8267 192.211 84.1067 192.171 84.36C192.131 84.6133 192.018 84.8133 191.831 84.96C191.644 85.0933 191.398 85.16 191.091 85.16C190.718 85.16 190.424 85.0733 190.211 84.9C190.011 84.7133 189.831 84.4333 189.671 84.06L188.371 81.04L189.451 81.74H181.011L182.091 81.04L180.811 84.06C180.638 84.4467 180.458 84.7267 180.271 84.9C180.084 85.0733 179.818 85.16 179.471 85.16ZM185.211 73.68L182.411 80.34L181.891 79.7H188.571L188.071 80.34L185.251 73.68H185.211Z" fill="#2AD3F5"/>
<path d="M373.074 85C372.634 85 372.294 84.8867 372.054 84.66C371.827 84.42 371.714 84.08 371.714 83.64V72.26C371.714 71.82 371.827 71.4867 372.054 71.26C372.294 71.02 372.634 70.9 373.074 70.9H377.874C378.86 70.9 379.7 71.0467 380.394 71.34C381.087 71.6333 381.614 72.0533 381.974 72.6C382.347 73.1467 382.534 73.8 382.534 74.56C382.534 75.4133 382.287 76.1333 381.794 76.72C381.3 77.3067 380.627 77.7 379.774 77.9V77.6C380.76 77.7467 381.527 78.12 382.074 78.72C382.62 79.32 382.894 80.1 382.894 81.06C382.894 82.3133 382.467 83.2867 381.614 83.98C380.774 84.66 379.6 85 378.094 85H373.074ZM374.174 83.06H377.774C378.68 83.06 379.347 82.8867 379.774 82.54C380.2 82.18 380.414 81.6467 380.414 80.94C380.414 80.22 380.2 79.6867 379.774 79.34C379.347 78.9933 378.68 78.82 377.774 78.82H374.174V83.06ZM374.174 76.88H377.434C378.314 76.88 378.967 76.7133 379.394 76.38C379.834 76.0333 380.054 75.5267 380.054 74.86C380.054 74.1933 379.834 73.6933 379.394 73.36C378.967 73.0133 378.314 72.84 377.434 72.84H374.174V76.88Z" fill="#F57A7A"/>
<path d="M175 83.5H164L173.5 72" stroke="#2AD3F5" stroke-width="2" stroke-linecap="round" stroke-linejoin="round"/>
<path d="M369 83.5H358L367.5 72" stroke="#F57A7A" stroke-width="2" stroke-linecap="round" stroke-linejoin="round"/>
<path d="M145 20.5H134L143.5 9" stroke="#2AD3F5" stroke-width="2" stroke-linecap="round" stroke-linejoin="round"/>
<path d="M150.123 21.16C149.803 21.16 149.543 21.0867 149.343 20.94C149.157 20.7933 149.043 20.6 149.003 20.36C148.963 20.1067 149.01 19.8267 149.143 19.52L154.423 7.82C154.597 7.43333 154.803 7.16 155.043 7C155.297 6.82667 155.583 6.74 155.903 6.74C156.21 6.74 156.483 6.82667 156.723 7C156.977 7.16 157.19 7.43333 157.363 7.82L162.663 19.52C162.81 19.8267 162.863 20.1067 162.823 20.36C162.783 20.6133 162.67 20.8133 162.483 20.96C162.297 21.0933 162.05 21.16 161.743 21.16C161.37 21.16 161.077 21.0733 160.863 20.9C160.663 20.7133 160.483 20.4333 160.323 20.06L159.023 17.04L160.103 17.74H151.663L152.743 17.04L151.463 20.06C151.29 20.4467 151.11 20.7267 150.923 20.9C150.737 21.0733 150.47 21.16 150.123 21.16ZM155.863 9.68L153.063 16.34L152.543 15.7H159.223L158.723 16.34L155.903 9.68H155.863Z" fill="#2AD3F5"/>
<path d="M170.616 14.14C170.336 14.14 170.116 14.0667 169.956 13.92C169.796 13.76 169.716 13.54 169.716 13.26C169.716 12.98 169.796 12.7667 169.956 12.62C170.116 12.46 170.336 12.38 170.616 12.38H178.896C179.189 12.38 179.409 12.46 179.556 12.62C179.716 12.7667 179.796 12.98 179.796 13.26C179.796 13.54 179.716 13.76 179.556 13.92C179.409 14.0667 179.189 14.14 178.896 14.14H170.616ZM170.616 18.12C170.336 18.12 170.116 18.0467 169.956 17.9C169.796 17.74 169.716 17.52 169.716 17.24C169.716 16.96 169.796 16.7467 169.956 16.6C170.116 16.4533 170.336 16.38 170.616 16.38H178.896C179.189 16.38 179.409 16.4533 179.556 16.6C179.716 16.7467 179.796 16.96 179.796 17.24C179.796 17.5333 179.716 17.7533 179.556 17.9C179.409 18.0467 179.189 18.12 178.896 18.12H170.616ZM189.298 21C188.951 21 188.678 20.9067 188.478 20.72C188.291 20.52 188.198 20.2533 188.198 19.92C188.198 19.5733 188.291 19.3133 188.478 19.14C188.678 18.9667 188.951 18.88 189.298 18.88H191.538V9.06H192.778L189.838 10.84C189.584 10.9867 189.344 11.0467 189.118 11.02C188.904 10.98 188.718 10.8867 188.558 10.74C188.411 10.58 188.311 10.3933 188.258 10.18C188.204 9.96667 188.218 9.75333 188.298 9.54C188.391 9.31333 188.564 9.12667 188.818 8.98L191.578 7.32C191.844 7.16 192.111 7.02667 192.378 6.92C192.644 6.8 192.891 6.74 193.118 6.74C193.398 6.74 193.631 6.82 193.818 6.98C194.004 7.12667 194.098 7.37333 194.098 7.72V18.88H196.138C196.484 18.88 196.751 18.9667 196.938 19.14C197.138 19.3133 197.238 19.5733 197.238 19.92C197.238 20.2667 197.138 20.5333 196.938 20.72C196.751 20.9067 196.484 21 196.138 21H189.298ZM204.17 21.2C203.077 21.2 202.137 21.0467 201.35 20.74C200.577 20.42 199.977 19.96 199.55 19.36C199.137 18.76 198.93 18.04 198.93 17.2C198.93 16.5333 199.063 15.9467 199.33 15.44C199.61 14.92 199.99 14.5 200.47 14.18C200.95 13.86 201.497 13.66 202.11 13.58V14C201.257 13.8133 200.57 13.4067 200.05 12.78C199.543 12.14 199.29 11.38 199.29 10.5C199.29 9.7 199.49 9.02 199.89 8.46C200.29 7.88667 200.857 7.45333 201.59 7.16C202.323 6.85333 203.183 6.7 204.17 6.7C205.17 6.7 206.037 6.85333 206.77 7.16C207.503 7.45333 208.07 7.88667 208.47 8.46C208.87 9.02 209.07 9.7 209.07 10.5C209.07 11.0867 208.95 11.6267 208.71 12.12C208.483 12.6133 208.157 13.02 207.73 13.34C207.317 13.66 206.83 13.8733 206.27 13.98V13.58C207.203 13.7133 207.957 14.1067 208.53 14.76C209.117 15.4 209.41 16.2133 209.41 17.2C209.41 18.04 209.197 18.76 208.77 19.36C208.357 19.96 207.757 20.42 206.97 20.74C206.197 21.0467 205.263 21.2 204.17 21.2ZM204.17 19.2C205.117 19.2 205.83 19.02 206.31 18.66C206.79 18.2867 207.03 17.74 207.03 17.02C207.03 16.3 206.79 15.76 206.31 15.4C205.83 15.04 205.117 14.86 204.17 14.86C203.237 14.86 202.523 15.04 202.03 15.4C201.55 15.76 201.31 16.3 201.31 17.02C201.31 17.74 201.55 18.2867 202.03 18.66C202.523 19.02 203.237 19.2 204.17 19.2ZM204.17 12.86C204.703 12.86 205.157 12.78 205.53 12.62C205.903 12.4467 206.19 12.2 206.39 11.88C206.59 11.56 206.69 11.1867 206.69 10.76C206.69 10.12 206.463 9.62 206.01 9.26C205.57 8.88667 204.957 8.7 204.17 8.7C203.383 8.7 202.77 8.88667 202.33 9.26C201.89 9.62 201.67 10.12 201.67 10.76C201.67 11.4133 201.89 11.9267 202.33 12.3C202.77 12.6733 203.383 12.86 204.17 12.86ZM216.162 21.2C214.495 21.2 213.222 20.5733 212.342 19.32C211.462 18.0533 211.022 16.2533 211.022 13.92C211.022 12.3467 211.215 11.0267 211.602 9.96C212.002 8.88 212.582 8.06667 213.342 7.52C214.115 6.97333 215.055 6.7 216.162 6.7C217.842 6.7 219.115 7.31333 219.982 8.54C220.862 9.76667 221.302 11.5533 221.302 13.9C221.302 15.46 221.102 16.7867 220.702 17.88C220.315 18.96 219.742 19.7867 218.982 20.36C218.222 20.92 217.282 21.2 216.162 21.2ZM216.162 19.1C217.069 19.1 217.735 18.68 218.162 17.84C218.602 17 218.822 15.6867 218.822 13.9C218.822 12.1133 218.602 10.82 218.162 10.02C217.735 9.20667 217.069 8.8 216.162 8.8C215.269 8.8 214.602 9.20667 214.162 10.02C213.722 10.82 213.502 12.1133 213.502 13.9C213.502 15.6867 213.722 17 214.162 17.84C214.602 18.68 215.269 19.1 216.162 19.1ZM225.954 15.46C224.941 15.46 224.134 15.1 223.534 14.38C222.948 13.6467 222.654 12.5533 222.654 11.1C222.654 10.38 222.728 9.75333 222.874 9.22C223.034 8.67333 223.254 8.22667 223.534 7.88C223.828 7.52 224.174 7.25333 224.574 7.08C224.988 6.89333 225.448 6.8 225.954 6.8C226.981 6.8 227.788 7.16 228.374 7.88C228.961 8.58667 229.254 9.66 229.254 11.1C229.254 11.82 229.174 12.4533 229.014 13C228.868 13.5467 228.648 14.0067 228.354 14.38C228.074 14.74 227.728 15.0133 227.314 15.2C226.914 15.3733 226.461 15.46 225.954 15.46ZM225.954 13.96C226.181 13.96 226.381 13.9067 226.554 13.8C226.728 13.68 226.868 13.5067 226.974 13.28C227.094 13.04 227.181 12.74 227.234 12.38C227.288 12.02 227.314 11.5933 227.314 11.1C227.314 10.1133 227.201 9.4 226.974 8.96C226.761 8.52 226.421 8.3 225.954 8.3C225.728 8.3 225.528 8.35333 225.354 8.46C225.181 8.56667 225.034 8.73333 224.914 8.96C224.808 9.18667 224.728 9.48 224.674 9.84C224.621 10.1867 224.594 10.6067 224.594 11.1C224.594 12.0867 224.708 12.8133 224.934 13.28C225.161 13.7333 225.501 13.96 225.954 13.96ZM235.822 16.4C235.595 16.4 235.402 16.3267 235.242 16.18C235.095 16.0333 235.022 15.8533 235.022 15.64C235.022 15.4267 235.095 15.2533 235.242 15.12C235.402 14.9733 235.595 14.9 235.822 14.9H244.562C244.788 14.9 244.975 14.9733 245.122 15.12C245.268 15.2533 245.342 15.4267 245.342 15.64C245.342 15.8533 245.268 16.0333 245.122 16.18C244.975 16.3267 244.788 16.4 244.562 16.4H235.822Z" fill="#646464"/>
<path d="M257.361 21.16C257.028 21.16 256.768 21.0733 256.581 20.9C256.394 20.7267 256.301 20.5133 256.301 20.26C256.314 19.9933 256.434 19.74 256.661 19.5L260.521 15.48L260.501 16.54L258.041 12.76C257.854 12.4533 257.774 12.1733 257.801 11.92C257.841 11.6667 257.954 11.46 258.141 11.3C258.341 11.14 258.588 11.06 258.881 11.06C259.148 11.06 259.388 11.1267 259.601 11.26C259.828 11.38 260.028 11.5733 260.201 11.84L262.061 14.8H261.381L264.161 11.72C264.374 11.4933 264.574 11.3267 264.761 11.22C264.948 11.1133 265.188 11.06 265.481 11.06C265.828 11.06 266.088 11.1467 266.261 11.32C266.448 11.4933 266.534 11.7067 266.521 11.96C266.521 12.2133 266.408 12.46 266.181 12.7L262.581 16.52V15.4L265.241 19.44C265.441 19.7333 265.521 20.0133 265.481 20.28C265.441 20.5467 265.321 20.76 265.121 20.92C264.921 21.08 264.674 21.16 264.381 21.16C264.128 21.16 263.888 21.0933 263.661 20.96C263.434 20.8267 263.241 20.6333 263.081 20.38L261.021 17.16L261.821 17.18L258.661 20.5C258.448 20.7133 258.248 20.88 258.061 21C257.888 21.1067 257.654 21.16 257.361 21.16ZM270.759 15.46C269.746 15.46 268.939 15.1 268.339 14.38C267.752 13.6467 267.459 12.5533 267.459 11.1C267.459 10.38 267.532 9.75333 267.679 9.22C267.839 8.67333 268.059 8.22667 268.339 7.88C268.632 7.52 268.979 7.25333 269.379 7.08C269.792 6.89333 270.252 6.8 270.759 6.8C271.786 6.8 272.592 7.16 273.179 7.88C273.766 8.58667 274.059 9.66 274.059 11.1C274.059 11.82 273.979 12.4533 273.819 13C273.672 13.5467 273.452 14.0067 273.159 14.38C272.879 14.74 272.532 15.0133 272.119 15.2C271.719 15.3733 271.266 15.46 270.759 15.46ZM270.759 13.96C270.986 13.96 271.186 13.9067 271.359 13.8C271.532 13.68 271.672 13.5067 271.779 13.28C271.899 13.04 271.986 12.74 272.039 12.38C272.092 12.02 272.119 11.5933 272.119 11.1C272.119 10.1133 272.006 9.4 271.779 8.96C271.566 8.52 271.226 8.3 270.759 8.3C270.532 8.3 270.332 8.35333 270.159 8.46C269.986 8.56667 269.839 8.73333 269.719 8.96C269.612 9.18667 269.532 9.48 269.479 9.84C269.426 10.1867 269.399 10.6067 269.399 11.1C269.399 12.0867 269.512 12.8133 269.739 13.28C269.966 13.7333 270.306 13.96 270.759 13.96Z" fill="#F57A7A"/>
<path d="M145 49.5H134L143.5 38" stroke="#2AD3F5" stroke-width="2" stroke-linecap="round" stroke-linejoin="round"/>
<path d="M149.067 50.16C148.747 50.16 148.487 50.0867 148.287 49.94C148.1 49.7933 147.987 49.6 147.947 49.36C147.907 49.1067 147.953 48.8267 148.087 48.52L153.367 36.82C153.54 36.4333 153.747 36.16 153.987 36C154.24 35.8267 154.527 35.74 154.847 35.74C155.153 35.74 155.427 35.8267 155.667 36C155.92 36.16 156.133 36.4333 156.307 36.82L161.607 48.52C161.753 48.8267 161.807 49.1067 161.767 49.36C161.727 49.6133 161.613 49.8133 161.427 49.96C161.24 50.0933 160.993 50.16 160.687 50.16C160.313 50.16 160.02 50.0733 159.807 49.9C159.607 49.7133 159.427 49.4333 159.267 49.06L157.967 46.04L159.047 46.74H150.607L151.687 46.04L150.407 49.06C150.233 49.4467 150.053 49.7267 149.867 49.9C149.68 50.0733 149.413 50.16 149.067 50.16ZM154.807 38.68L152.007 45.34L151.487 44.7H158.167L157.667 45.34L154.847 38.68H154.807Z" fill="#2AD3F5"/>
<path d="M169.559 43.14C169.279 43.14 169.059 43.0667 168.899 42.92C168.739 42.76 168.659 42.54 168.659 42.26C168.659 41.98 168.739 41.7667 168.899 41.62C169.059 41.46 169.279 41.38 169.559 41.38H177.839C178.133 41.38 178.353 41.46 178.499 41.62C178.659 41.7667 178.739 41.98 178.739 42.26C178.739 42.54 178.659 42.76 178.499 42.92C178.353 43.0667 178.133 43.14 177.839 43.14H169.559ZM169.559 47.12C169.279 47.12 169.059 47.0467 168.899 46.9C168.739 46.74 168.659 46.52 168.659 46.24C168.659 45.96 168.739 45.7467 168.899 45.6C169.059 45.4533 169.279 45.38 169.559 45.38H177.839C178.133 45.38 178.353 45.4533 178.499 45.6C178.659 45.7467 178.739 45.96 178.739 46.24C178.739 46.5333 178.659 46.7533 178.499 46.9C178.353 47.0467 178.133 47.12 177.839 47.12H169.559ZM188.241 50C187.894 50 187.621 49.9067 187.421 49.72C187.234 49.52 187.141 49.2533 187.141 48.92C187.141 48.5733 187.234 48.3133 187.421 48.14C187.621 47.9667 187.894 47.88 188.241 47.88H190.481V38.06H191.721L188.781 39.84C188.528 39.9867 188.288 40.0467 188.061 40.02C187.848 39.98 187.661 39.8867 187.501 39.74C187.354 39.58 187.254 39.3933 187.201 39.18C187.148 38.9667 187.161 38.7533 187.241 38.54C187.334 38.3133 187.508 38.1267 187.761 37.98L190.521 36.32C190.788 36.16 191.054 36.0267 191.321 35.92C191.588 35.8 191.834 35.74 192.061 35.74C192.341 35.74 192.574 35.82 192.761 35.98C192.948 36.1267 193.041 36.3733 193.041 36.72V47.88H195.081C195.428 47.88 195.694 47.9667 195.881 48.14C196.081 48.3133 196.181 48.5733 196.181 48.92C196.181 49.2667 196.081 49.5333 195.881 49.72C195.694 49.9067 195.428 50 195.081 50H188.241ZM203.113 50.2C202.02 50.2 201.08 50.0467 200.293 49.74C199.52 49.42 198.92 48.96 198.493 48.36C198.08 47.76 197.873 47.04 197.873 46.2C197.873 45.5333 198.007 44.9467 198.273 44.44C198.553 43.92 198.933 43.5 199.413 43.18C199.893 42.86 200.44 42.66 201.053 42.58V43C200.2 42.8133 199.513 42.4067 198.993 41.78C198.487 41.14 198.233 40.38 198.233 39.5C198.233 38.7 198.433 38.02 198.833 37.46C199.233 36.8867 199.8 36.4533 200.533 36.16C201.267 35.8533 202.127 35.7 203.113 35.7C204.113 35.7 204.98 35.8533 205.713 36.16C206.447 36.4533 207.013 36.8867 207.413 37.46C207.813 38.02 208.013 38.7 208.013 39.5C208.013 40.0867 207.893 40.6267 207.653 41.12C207.427 41.6133 207.1 42.02 206.673 42.34C206.26 42.66 205.773 42.8733 205.213 42.98V42.58C206.147 42.7133 206.9 43.1067 207.473 43.76C208.06 44.4 208.353 45.2133 208.353 46.2C208.353 47.04 208.14 47.76 207.713 48.36C207.3 48.96 206.7 49.42 205.913 49.74C205.14 50.0467 204.207 50.2 203.113 50.2ZM203.113 48.2C204.06 48.2 204.773 48.02 205.253 47.66C205.733 47.2867 205.973 46.74 205.973 46.02C205.973 45.3 205.733 44.76 205.253 44.4C204.773 44.04 204.06 43.86 203.113 43.86C202.18 43.86 201.467 44.04 200.973 44.4C200.493 44.76 200.253 45.3 200.253 46.02C200.253 46.74 200.493 47.2867 200.973 47.66C201.467 48.02 202.18 48.2 203.113 48.2ZM203.113 41.86C203.647 41.86 204.1 41.78 204.473 41.62C204.847 41.4467 205.133 41.2 205.333 40.88C205.533 40.56 205.633 40.1867 205.633 39.76C205.633 39.12 205.407 38.62 204.953 38.26C204.513 37.8867 203.9 37.7 203.113 37.7C202.327 37.7 201.713 37.8867 201.273 38.26C200.833 38.62 200.613 39.12 200.613 39.76C200.613 40.4133 200.833 40.9267 201.273 41.3C201.713 41.6733 202.327 41.86 203.113 41.86ZM215.105 50.2C213.439 50.2 212.165 49.5733 211.285 48.32C210.405 47.0533 209.965 45.2533 209.965 42.92C209.965 41.3467 210.159 40.0267 210.545 38.96C210.945 37.88 211.525 37.0667 212.285 36.52C213.059 35.9733 213.999 35.7 215.105 35.7C216.785 35.7 218.059 36.3133 218.925 37.54C219.805 38.7667 220.245 40.5533 220.245 42.9C220.245 44.46 220.045 45.7867 219.645 46.88C219.259 47.96 218.685 48.7867 217.925 49.36C217.165 49.92 216.225 50.2 215.105 50.2ZM215.105 48.1C216.012 48.1 216.679 47.68 217.105 46.84C217.545 46 217.765 44.6867 217.765 42.9C217.765 41.1133 217.545 39.82 217.105 39.02C216.679 38.2067 216.012 37.8 215.105 37.8C214.212 37.8 213.545 38.2067 213.105 39.02C212.665 39.82 212.445 41.1133 212.445 42.9C212.445 44.6867 212.665 46 213.105 46.84C213.545 47.68 214.212 48.1 215.105 48.1ZM224.898 44.46C223.884 44.46 223.078 44.1 222.478 43.38C221.891 42.6467 221.598 41.5533 221.598 40.1C221.598 39.38 221.671 38.7533 221.818 38.22C221.978 37.6733 222.198 37.2267 222.478 36.88C222.771 36.52 223.118 36.2533 223.518 36.08C223.931 35.8933 224.391 35.8 224.898 35.8C225.924 35.8 226.731 36.16 227.318 36.88C227.904 37.5867 228.198 38.66 228.198 40.1C228.198 40.82 228.118 41.4533 227.958 42C227.811 42.5467 227.591 43.0067 227.298 43.38C227.018 43.74 226.671 44.0133 226.258 44.2C225.858 44.3733 225.404 44.46 224.898 44.46ZM224.898 42.96C225.124 42.96 225.324 42.9067 225.498 42.8C225.671 42.68 225.811 42.5067 225.918 42.28C226.038 42.04 226.124 41.74 226.178 41.38C226.231 41.02 226.258 40.5933 226.258 40.1C226.258 39.1133 226.144 38.4 225.918 37.96C225.704 37.52 225.364 37.3 224.898 37.3C224.671 37.3 224.471 37.3533 224.298 37.46C224.124 37.5667 223.978 37.7333 223.858 37.96C223.751 38.1867 223.671 38.48 223.618 38.84C223.564 39.1867 223.538 39.6067 223.538 40.1C223.538 41.0867 223.651 41.8133 223.878 42.28C224.104 42.7333 224.444 42.96 224.898 42.96ZM240.195 45.4C239.968 45.4 239.775 45.3267 239.615 45.18C239.468 45.0333 239.395 44.8533 239.395 44.64C239.395 44.4267 239.468 44.2533 239.615 44.12C239.775 43.9733 239.968 43.9 240.195 43.9H248.935C249.161 43.9 249.348 43.9733 249.495 44.12C249.641 44.2533 249.715 44.4267 249.715 44.64C249.715 44.8533 249.641 45.0333 249.495 45.18C249.348 45.3267 249.161 45.4 248.935 45.4H240.195Z" fill="#646464"/>
<path d="M268.744 50C268.304 50 267.964 49.8867 267.724 49.66C267.497 49.42 267.384 49.08 267.384 48.64V37.26C267.384 36.82 267.497 36.4867 267.724 36.26C267.964 36.02 268.304 35.9 268.744 35.9H273.544C274.53 35.9 275.37 36.0467 276.064 36.34C276.757 36.6333 277.284 37.0533 277.644 37.6C278.017 38.1467 278.204 38.8 278.204 39.56C278.204 40.4133 277.957 41.1333 277.464 41.72C276.97 42.3067 276.297 42.7 275.444 42.9V42.6C276.43 42.7467 277.197 43.12 277.744 43.72C278.29 44.32 278.564 45.1 278.564 46.06C278.564 47.3133 278.137 48.2867 277.284 48.98C276.444 49.66 275.27 50 273.764 50H268.744ZM269.844 48.06H273.444C274.35 48.06 275.017 47.8867 275.444 47.54C275.87 47.18 276.084 46.6467 276.084 45.94C276.084 45.22 275.87 44.6867 275.444 44.34C275.017 43.9933 274.35 43.82 273.444 43.82H269.844V48.06ZM269.844 41.88H273.104C273.984 41.88 274.637 41.7133 275.064 41.38C275.504 41.0333 275.724 40.5267 275.724 39.86C275.724 39.1933 275.504 38.6933 275.064 38.36C274.637 38.0133 273.984 37.84 273.104 37.84H269.844V41.88Z" fill="#F57A7A"/>
<path d="M265 48.5H254L263.5 37" stroke="#F57A7A" stroke-width="2" stroke-linecap="round" stroke-linejoin="round"/>
</svg>
