<svg width="32" height="32" viewBox="0 0 32 32" fill="none" xmlns="http://www.w3.org/2000/svg">
<g clip-path="url(#clip0_1050_132001)">
<circle cx="16" cy="16" r="15.5" fill="white" stroke="#1A1A1A"/>
<path d="M14.501 23.0004C14.3684 23.0002 14.2412 22.9477 14.147 22.8544L10.293 19.0004H8.5C8.36739 19.0004 8.24021 18.9477 8.14645 18.8539C8.05268 18.7602 8 18.633 8 18.5004V13.5004C8 13.3678 8.05268 13.2406 8.14645 13.1468C8.24021 13.0531 8.36739 13.0004 8.5 13.0004H10.293L14.147 9.14638C14.2167 9.07578 14.3059 9.02757 14.4032 9.00792C14.5005 8.98828 14.6014 8.99808 14.6931 9.03608C14.7848 9.07408 14.863 9.13855 14.9179 9.22126C14.9727 9.30396 15.0017 9.40114 15.001 9.50038V22.5004C15.001 22.633 14.9483 22.7602 14.8546 22.8539C14.7608 22.9477 14.6336 23.0004 14.501 23.0004Z" fill="#1A1A1A"/>
<path d="M22.3934 13.1656C21.9913 12.2665 21.4037 11.4625 20.669 10.8066C20.5714 10.7176 20.4571 10.6488 20.3327 10.6041C20.2084 10.5595 20.0765 10.54 19.9445 10.5467C19.8126 10.5533 19.6833 10.5861 19.5641 10.643C19.4449 10.7 19.3381 10.7799 19.25 10.8784C19.1619 10.9768 19.0942 11.0917 19.0507 11.2164C19.0072 11.3412 18.9889 11.4733 18.9968 11.6052C19.0047 11.737 19.0387 11.866 19.0967 11.9847C19.1547 12.1034 19.2357 12.2094 19.335 12.2966C20.36 13.2136 21.002 14.5436 21.002 16.0236C21.0029 16.7273 20.8548 17.4232 20.5675 18.0656C20.2802 18.7079 19.8601 19.2822 19.335 19.7506C19.2357 19.8378 19.1547 19.9438 19.0967 20.0624C19.0387 20.1811 19.0047 20.3101 18.9968 20.442C18.9889 20.5738 19.0072 20.706 19.0507 20.8307C19.0942 20.9555 19.1619 21.0704 19.25 21.1688C19.3381 21.2672 19.4449 21.3472 19.5641 21.4041C19.6833 21.4611 19.8126 21.4938 19.9445 21.5005C20.0765 21.5072 20.2084 21.4876 20.3327 21.443C20.4571 21.3984 20.5714 21.3296 20.669 21.2406C21.4037 20.5846 21.9913 19.7807 22.3934 18.8816C22.7955 17.9825 23.0029 17.0085 23.002 16.0236C23.0029 15.0387 22.7955 14.0647 22.3934 13.1656Z" fill="#1A1A1A"/>
<path d="M19.654 14.3901C19.4243 13.8765 19.0886 13.4173 18.669 13.0426C18.5714 12.9536 18.4571 12.8848 18.3327 12.8401C18.2084 12.7955 18.0765 12.776 17.9445 12.7827C17.8126 12.7893 17.6833 12.8221 17.5641 12.879C17.4449 12.936 17.3381 13.0159 17.25 13.1144C17.1619 13.2128 17.0942 13.3277 17.0507 13.4524C17.0072 13.5772 16.9889 13.7093 16.9968 13.8412C17.0047 13.973 17.0387 14.102 17.0967 14.2207C17.1547 14.3394 17.2357 14.4454 17.335 14.5326L17.454 14.6476C17.8069 15.0187 18.0031 15.5115 18.002 16.0236C18.002 16.6156 17.745 17.1466 17.335 17.5146L17.247 17.6046C17.0815 17.7968 16.9953 18.0447 17.0058 18.2982C17.0162 18.5516 17.1226 18.7915 17.3033 18.9695C17.4841 19.1474 17.7257 19.25 17.9792 19.2566C18.2328 19.2631 18.4793 19.173 18.669 19.0046C19.0889 18.6297 19.4248 18.1701 19.6545 17.6562C19.8842 17.1423 20.0026 16.5855 20.002 16.0226C20.0023 15.46 19.8837 14.9037 19.654 14.3901Z" fill="#1A1A1A"/>
</g>
<defs>
<clipPath id="clip0_1050_132001">
<rect width="32" height="32" fill="white"/>
</clipPath>
</defs>
</svg>
