<svg width="20" height="21" viewBox="0 0 20 21" fill="none" xmlns="http://www.w3.org/2000/svg">
<path fill-rule="evenodd" clip-rule="evenodd" d="M17.9956 1C17.9956 0.447715 18.4433 0 18.9956 0C19.5479 0 19.9956 0.447715 19.9956 1V5.99576M19.9956 6C19.9956 6.01898 19.9951 6.03783 19.994 6.05655C19.9647 6.58253 19.5289 7 18.9956 7H13.9956C13.4433 7 12.9956 6.55228 12.9956 6C12.9956 5.44772 13.4433 5 13.9956 5H16.3901L15.3294 4.0454L15.3281 4.0442C13.9905 2.84994 12.2905 2.13967 10.5008 2.02742C8.71052 1.91513 6.93446 2.40777 5.45784 3.42623C3.98122 4.44469 2.88972 5.92986 2.35865 7.64323C1.82758 9.3566 1.88775 11.1987 2.52949 12.8738C3.17124 14.5489 4.35732 15.9596 5.89725 16.8796C7.43719 17.7995 9.24161 18.1752 11.0207 17.9463C12.7999 17.7175 14.4505 16.8973 15.7074 15.6176C16.9644 14.3378 17.7548 12.6728 17.9517 10.8898C18.0123 10.3409 18.5064 9.94503 19.0554 10.0056C19.6043 10.0663 20.0002 10.5604 19.9396 11.1094C19.6935 13.3381 18.7055 15.4194 17.1343 17.019C15.5631 18.6187 13.4998 19.6439 11.2759 19.93C9.05201 20.2161 6.79648 19.7465 4.87157 18.5965C2.94665 17.4466 1.46405 15.6832 0.661865 13.5893C-0.140316 11.4955 -0.215527 9.19282 0.448313 7.05111C1.11215 4.9094 2.47652 3.05293 4.3223 1.77986C6.16808 0.506782 8.38816 -0.109023 10.626 0.0313385C12.8638 0.1717 14.9896 1.06008 16.6618 2.55381L16.6646 2.55631L17.9956 3.75424V1" fill="#1A1A1A"/>
</svg>
