<svg width="100" height="200" viewBox="0 0 100 200" fill="none" xmlns="http://www.w3.org/2000/svg">
<path d="M98.4998 100C98.4998 134.129 86.1478 158.817 73.8076 174.978C67.6339 183.063 61.4622 189.015 56.8412 192.94C54.5313 194.902 52.6106 196.356 51.2735 197.316C50.7586 197.686 50.3303 197.982 49.9998 198.206C49.6693 197.982 49.2411 197.686 48.7262 197.316C47.389 196.356 45.4684 194.902 43.1584 192.94C38.5375 189.015 32.3658 183.063 26.1921 174.978C13.8519 158.817 1.5 134.129 1.5 100C1.5 65.8713 13.8519 41.1833 26.1921 25.022C32.3658 16.9366 38.5375 10.9852 43.1584 7.06011C45.4684 5.09803 47.389 3.64379 48.7262 2.68384C49.2411 2.31418 49.6693 2.01791 49.9998 1.79425C50.3303 2.01791 50.7586 2.31419 51.2735 2.68384C52.6106 3.64379 54.5313 5.09803 56.8412 7.06011C61.4622 10.9852 67.6339 16.9366 73.8076 25.022C86.1478 41.1833 98.4998 65.8713 98.4998 100Z" fill="#E7FBFF" stroke="#1CB9D9" stroke-width="3" stroke-linecap="round"/>
</svg>
