<svg version="1.1" xmlns="http://www.w3.org/2000/svg" xmlns:xlink="http://www.w3.org/1999/xlink" width="554" height="330" viewBox="80 0 366 330"><defs><clipPath id="tSzJhVRLzkar"><path fill="none" stroke="none" d=" M 0 0 L 554 0 L 554 330 L 0 330 L 0 0 Z"/></clipPath></defs><g transform="scale(1,1)" clip-path="url(#tSzJhVRLzkar)"><g><rect fill="rgb(255,255,255)" stroke="none" x="0" y="0" width="554" height="330" fill-opacity="1"/><path fill="none" stroke="rgb(0,255,255)" paint-order="fill stroke markers" d=" M 13.5 0.5 L 13.5 330.5 M 13.5 0.5 L 13.5 330.5 M 68.5 0.5 L 68.5 330.5 M 123.5 0.5 L 123.5 330.5 M 178.5 0.5 L 178.5 330.5 M 233.5 0.5 L 233.5 330.5 M 288.5 0.5 L 288.5 330.5 M 343.5 0.5 L 343.5 330.5 M 398.5 0.5 L 398.5 330.5 M 453.5 0.5 L 453.5 330.5 M 508.5 0.5 L 508.5 330.5" stroke-opacity="1" stroke-linecap="round" stroke-linejoin="round" stroke-miterlimit="10"/><path fill="none" stroke="rgb(0,255,255)" paint-order="fill stroke markers" d="" stroke-opacity="0.23529411764705882" stroke-linecap="round" stroke-linejoin="round" stroke-miterlimit="10"/><path fill="none" stroke="rgb(0,255,255)" paint-order="fill stroke markers" d=" M 0.5 46.5 L 554.5 46.5 M 0.5 46.5 L 554.5 46.5 M 0.5 101.5 L 554.5 101.5 M 0.5 156.5 L 554.5 156.5 M 0.5 211.5 L 554.5 211.5 M 0.5 266.5 L 554.5 266.5 M 0.5 321.5 L 554.5 321.5" stroke-opacity="1" stroke-linecap="round" stroke-linejoin="round" stroke-miterlimit="10"/><path fill="none" stroke="rgb(0,255,255)" paint-order="fill stroke markers" d="" stroke-opacity="0.23529411764705882" stroke-linecap="round" stroke-linejoin="round" stroke-miterlimit="10"/><path fill="rgb(0,153,255)" stroke="none" paint-order="stroke fill markers" fill-rule="evenodd" d=" M 233.15999999999985 266.06999999999994 L 288.1599999999998 266.06999999999994 L 288.1599999999998 211.06999999999994 L 233.15999999999985 211.06999999999994 Z" fill-opacity="0.4980392156862745"/><path fill="rgb(42,211,245)" stroke="none" paint-order="stroke fill markers" fill-rule="evenodd" d=" M 233.15999999999985 211.06999999999994 L 233.15999999999985 266.06999999999994 L 288.1599999999998 266.06999999999994 L 288.1599999999998 211.06999999999994 Z" fill-opacity="1"/><path fill="rgb(209,247,255)" stroke="none" paint-order="stroke fill markers" fill-rule="evenodd" d=" M 233.15999999999985 266.06999999999994 L 233.15999999999985 211.06999999999994 L 178.1599999999999 211.06999999999994 L 178.1599999999999 266.06999999999994 Z" fill-opacity="1"/><path fill="rgb(209,247,255)" stroke="none" paint-order="stroke fill markers" fill-rule="evenodd" d=" M 233.15999999999985 101.06999999999994 L 288.1599999999998 101.06999999999994 L 288.1599999999998 46.069999999999936 L 233.15999999999985 46.069999999999936 Z" fill-opacity="1"/><path fill="rgb(209,247,255)" stroke="none" paint-order="stroke fill markers" fill-rule="evenodd" d=" M 288.1599999999998 211.06999999999994 L 288.1599999999998 266.06999999999994 L 343.15999999999974 266.06999999999994 L 343.15999999999974 211.06999999999994 Z" fill-opacity="1"/><path fill="rgb(209,247,255)" stroke="none" paint-order="stroke fill markers" fill-rule="evenodd" d=" M 233.15999999999985 211.06999999999994 L 288.1599999999998 211.06999999999994 L 288.1599999999998 156.06999999999994 L 233.15999999999985 156.06999999999994 Z" fill-opacity="1"/><path fill="rgb(209,247,255)" stroke="none" paint-order="stroke fill markers" fill-rule="evenodd" d=" M 233.15999999999985 156.06999999999994 L 288.1599999999998 156.06999999999994 L 288.1599999999998 101.06999999999994 L 233.15999999999985 101.06999999999994 Z" fill-opacity="1"/><path fill="none" stroke="rgb(42,211,245)" paint-order="fill stroke markers" d=" M 233.15999999999985 211.06999999999994 L 233.15999999999985 266.06999999999994" stroke-opacity="1" stroke-linecap="round" stroke-linejoin="round" stroke-miterlimit="10" stroke-width="0.5"/><path fill="none" stroke="rgb(42,211,245)" paint-order="fill stroke markers" d=" M 233.15999999999985 266.06999999999994 L 288.1599999999998 266.06999999999994" stroke-opacity="1" stroke-linecap="round" stroke-linejoin="round" stroke-miterlimit="10" stroke-width="0.5"/><path fill="none" stroke="rgb(42,211,245)" paint-order="fill stroke markers" d=" M 288.1599999999998 266.06999999999994 L 288.1599999999998 211.06999999999994" stroke-opacity="1" stroke-linecap="round" stroke-linejoin="round" stroke-miterlimit="10" stroke-width="0.5"/><path fill="none" stroke="rgb(42,211,245)" paint-order="fill stroke markers" d=" M 288.1599999999998 211.06999999999994 L 233.15999999999985 211.06999999999994" stroke-opacity="1" stroke-linecap="round" stroke-linejoin="round" stroke-miterlimit="10" stroke-width="0.5"/><path fill="none" stroke="rgb(42,211,245)" paint-order="fill stroke markers" d=" M 233.15999999999985 211.06999999999994 L 233.15999999999985 266.06999999999994" stroke-opacity="1" stroke-linecap="round" stroke-linejoin="round" stroke-miterlimit="10"/><path fill="none" stroke="rgb(42,211,245)" paint-order="fill stroke markers" d=" M 233.15999999999985 266.06999999999994 L 288.1599999999998 266.06999999999994" stroke-opacity="1" stroke-linecap="round" stroke-linejoin="round" stroke-miterlimit="10"/><path fill="none" stroke="rgb(42,211,245)" paint-order="fill stroke markers" d=" M 288.1599999999998 266.06999999999994 L 288.1599999999998 211.06999999999994" stroke-opacity="1" stroke-linecap="round" stroke-linejoin="round" stroke-miterlimit="10"/><path fill="none" stroke="rgb(42,211,245)" paint-order="fill stroke markers" d=" M 288.1599999999998 211.06999999999994 L 233.15999999999985 211.06999999999994" stroke-opacity="1" stroke-linecap="round" stroke-linejoin="round" stroke-miterlimit="10"/><path fill="none" stroke="rgb(42,211,245)" paint-order="fill stroke markers" d=" M 233.15999999999985 211.06999999999994 L 178.1599999999999 211.06999999999994" stroke-opacity="1" stroke-linecap="round" stroke-linejoin="round" stroke-miterlimit="10"/><path fill="none" stroke="rgb(42,211,245)" paint-order="fill stroke markers" d=" M 178.1599999999999 211.06999999999994 L 178.1599999999999 266.06999999999994" stroke-opacity="1" stroke-linecap="round" stroke-linejoin="round" stroke-miterlimit="10"/><path fill="none" stroke="rgb(42,211,245)" paint-order="fill stroke markers" d=" M 178.1599999999999 266.06999999999994 L 233.15999999999985 266.06999999999994" stroke-opacity="1" stroke-linecap="round" stroke-linejoin="round" stroke-miterlimit="10"/><path fill="none" stroke="rgb(42,211,245)" paint-order="fill stroke markers" d=" M 233.15999999999985 101.06999999999994 L 288.1599999999998 101.06999999999994" stroke-opacity="1" stroke-linecap="round" stroke-linejoin="round" stroke-miterlimit="10"/><path fill="none" stroke="rgb(42,211,245)" paint-order="fill stroke markers" d=" M 288.1599999999998 101.06999999999994 L 288.1599999999998 46.069999999999936" stroke-opacity="1" stroke-linecap="round" stroke-linejoin="round" stroke-miterlimit="10"/><path fill="none" stroke="rgb(42,211,245)" paint-order="fill stroke markers" d=" M 288.1599999999998 46.069999999999936 L 233.15999999999985 46.069999999999936" stroke-opacity="1" stroke-linecap="round" stroke-linejoin="round" stroke-miterlimit="10"/><path fill="none" stroke="rgb(42,211,245)" paint-order="fill stroke markers" d=" M 233.15999999999985 46.069999999999936 L 233.15999999999985 101.06999999999994" stroke-opacity="1" stroke-linecap="round" stroke-linejoin="round" stroke-miterlimit="10"/><path fill="none" stroke="rgb(42,211,245)" paint-order="fill stroke markers" d=" M 288.1599999999998 266.06999999999994 L 343.15999999999974 266.06999999999994" stroke-opacity="1" stroke-linecap="round" stroke-linejoin="round" stroke-miterlimit="10"/><path fill="none" stroke="rgb(42,211,245)" paint-order="fill stroke markers" d=" M 343.15999999999974 266.06999999999994 L 343.15999999999974 211.06999999999994" stroke-opacity="1" stroke-linecap="round" stroke-linejoin="round" stroke-miterlimit="10"/><path fill="none" stroke="rgb(42,211,245)" paint-order="fill stroke markers" d=" M 343.15999999999974 211.06999999999994 L 288.1599999999998 211.06999999999994" stroke-opacity="1" stroke-linecap="round" stroke-linejoin="round" stroke-miterlimit="10"/><path fill="none" stroke="rgb(42,211,245)" paint-order="fill stroke markers" d=" M 288.1599999999998 211.06999999999994 L 288.1599999999998 156.06999999999994" stroke-opacity="1" stroke-linecap="round" stroke-linejoin="round" stroke-miterlimit="10"/><path fill="none" stroke="rgb(42,211,245)" paint-order="fill stroke markers" d=" M 288.1599999999998 156.06999999999994 L 233.15999999999985 156.06999999999994" stroke-opacity="1" stroke-linecap="round" stroke-linejoin="round" stroke-miterlimit="10"/><path fill="none" stroke="rgb(42,211,245)" paint-order="fill stroke markers" d=" M 233.15999999999985 156.06999999999994 L 233.15999999999985 211.06999999999994" stroke-opacity="1" stroke-linecap="round" stroke-linejoin="round" stroke-miterlimit="10"/><path fill="none" stroke="rgb(42,211,245)" paint-order="fill stroke markers" d=" M 288.1599999999998 156.06999999999994 L 288.1599999999998 101.06999999999994" stroke-opacity="1" stroke-linecap="round" stroke-linejoin="round" stroke-miterlimit="10"/><path fill="none" stroke="rgb(42,211,245)" paint-order="fill stroke markers" d=" M 233.15999999999985 101.06999999999994 L 233.15999999999985 156.06999999999994" stroke-opacity="1" stroke-linecap="round" stroke-linejoin="round" stroke-miterlimit="10"/></g></g></svg>
