<svg version="1.1" xmlns="http://www.w3.org/2000/svg" xmlns:xlink="http://www.w3.org/1999/xlink" width="554" height="330" viewBox="80 0 366 330"><defs><clipPath id="oyOzQnyBuLBF"><path fill="none" stroke="none" d=" M 0 0 L 554 0 L 554 330 L 0 330 L 0 0 Z"/></clipPath></defs><g transform="scale(1,1)" clip-path="url(#oyOzQnyBuLBF)"><g><rect fill="rgb(255,255,255)" stroke="none" x="0" y="0" width="554" height="330" fill-opacity="1"/><path fill="none" stroke="rgb(0,255,255)" paint-order="fill stroke markers" d=" M 28.5 0.5 L 28.5 330.5 M 28.5 0.5 L 28.5 330.5 M 83.5 0.5 L 83.5 330.5 M 138.5 0.5 L 138.5 330.5 M 193.5 0.5 L 193.5 330.5 M 248.5 0.5 L 248.5 330.5 M 303.5 0.5 L 303.5 330.5 M 358.5 0.5 L 358.5 330.5 M 413.5 0.5 L 413.5 330.5 M 468.5 0.5 L 468.5 330.5 M 523.5 0.5 L 523.5 330.5" stroke-opacity="1" stroke-linecap="round" stroke-linejoin="round" stroke-miterlimit="10"/><path fill="none" stroke="rgb(0,255,255)" paint-order="fill stroke markers" d="" stroke-opacity="0.23529411764705882" stroke-linecap="round" stroke-linejoin="round" stroke-miterlimit="10"/><path fill="none" stroke="rgb(0,255,255)" paint-order="fill stroke markers" d=" M 0.5 42.5 L 554.5 42.5 M 0.5 42.5 L 554.5 42.5 M 0.5 97.5 L 554.5 97.5 M 0.5 152.5 L 554.5 152.5 M 0.5 207.5 L 554.5 207.5 M 0.5 262.5 L 554.5 262.5 M 0.5 317.5 L 554.5 317.5" stroke-opacity="1" stroke-linecap="round" stroke-linejoin="round" stroke-miterlimit="10"/><path fill="none" stroke="rgb(0,255,255)" paint-order="fill stroke markers" d="" stroke-opacity="0.23529411764705882" stroke-linecap="round" stroke-linejoin="round" stroke-miterlimit="10"/><path fill="rgb(0,153,255)" stroke="none" paint-order="stroke fill markers" fill-rule="evenodd" d=" M 248.15999999999988 207.07000000000022 L 303.1599999999998 207.07000000000022 L 303.1599999999998 152.07000000000022 L 248.15999999999988 152.07000000000022 Z" fill-opacity="0.4980392156862745"/><path fill="rgb(42,211,245)" stroke="none" paint-order="stroke fill markers" fill-rule="evenodd" d=" M 248.15999999999988 152.07000000000022 L 248.15999999999988 207.07000000000022 L 303.1599999999998 207.07000000000022 L 303.1599999999998 152.07000000000022 Z" fill-opacity="1"/><path fill="rgb(209,247,255)" stroke="none" paint-order="stroke fill markers" fill-rule="evenodd" d=" M 248.15999999999988 207.07000000000022 L 248.15999999999988 152.07000000000022 L 193.15999999999994 152.07000000000022 L 193.15999999999994 207.07000000000022 Z" fill-opacity="1"/><path fill="rgb(209,247,255)" stroke="none" paint-order="stroke fill markers" fill-rule="evenodd" d=" M 303.1599999999998 207.07000000000022 L 248.15999999999988 207.07000000000022 L 248.15999999999988 262.0700000000002 L 303.1599999999998 262.0700000000002 Z" fill-opacity="1"/><path fill="rgb(209,247,255)" stroke="none" paint-order="stroke fill markers" fill-rule="evenodd" d=" M 303.1599999999998 152.07000000000022 L 303.1599999999998 207.07000000000022 L 358.15999999999974 207.07000000000022 L 358.15999999999974 152.07000000000022 Z" fill-opacity="1"/><path fill="rgb(209,247,255)" stroke="none" paint-order="stroke fill markers" fill-rule="evenodd" d=" M 248.15999999999988 152.07000000000022 L 303.1599999999998 152.07000000000022 L 303.1599999999998 97.07000000000025 L 248.15999999999988 97.07000000000025 Z" fill-opacity="1"/><path fill="rgb(209,247,255)" stroke="none" paint-order="stroke fill markers" fill-rule="evenodd" d=" M 193.15999999999994 207.07000000000022 L 193.15999999999994 152.07000000000022 L 138.16000000000003 152.07000000000022 L 138.16000000000003 207.07000000000022 Z" fill-opacity="1"/><path fill="none" stroke="rgb(42,211,245)" paint-order="fill stroke markers" d=" M 248.15999999999988 152.07000000000022 L 248.15999999999988 207.07000000000022" stroke-opacity="1" stroke-linecap="round" stroke-linejoin="round" stroke-miterlimit="10" stroke-width="0.5"/><path fill="none" stroke="rgb(42,211,245)" paint-order="fill stroke markers" d=" M 248.15999999999988 207.07000000000022 L 303.1599999999998 207.07000000000022" stroke-opacity="1" stroke-linecap="round" stroke-linejoin="round" stroke-miterlimit="10" stroke-width="0.5"/><path fill="none" stroke="rgb(42,211,245)" paint-order="fill stroke markers" d=" M 303.1599999999998 207.07000000000022 L 303.1599999999998 152.07000000000022" stroke-opacity="1" stroke-linecap="round" stroke-linejoin="round" stroke-miterlimit="10" stroke-width="0.5"/><path fill="none" stroke="rgb(42,211,245)" paint-order="fill stroke markers" d=" M 303.1599999999998 152.07000000000022 L 248.15999999999988 152.07000000000022" stroke-opacity="1" stroke-linecap="round" stroke-linejoin="round" stroke-miterlimit="10" stroke-width="0.5"/><path fill="none" stroke="rgb(42,211,245)" paint-order="fill stroke markers" d=" M 248.15999999999988 152.07000000000022 L 248.15999999999988 207.07000000000022" stroke-opacity="1" stroke-linecap="round" stroke-linejoin="round" stroke-miterlimit="10"/><path fill="none" stroke="rgb(42,211,245)" paint-order="fill stroke markers" d=" M 248.15999999999988 207.07000000000022 L 303.1599999999998 207.07000000000022" stroke-opacity="1" stroke-linecap="round" stroke-linejoin="round" stroke-miterlimit="10"/><path fill="none" stroke="rgb(42,211,245)" paint-order="fill stroke markers" d=" M 303.1599999999998 207.07000000000022 L 303.1599999999998 152.07000000000022" stroke-opacity="1" stroke-linecap="round" stroke-linejoin="round" stroke-miterlimit="10"/><path fill="none" stroke="rgb(42,211,245)" paint-order="fill stroke markers" d=" M 303.1599999999998 152.07000000000022 L 248.15999999999988 152.07000000000022" stroke-opacity="1" stroke-linecap="round" stroke-linejoin="round" stroke-miterlimit="10"/><path fill="none" stroke="rgb(42,211,245)" paint-order="fill stroke markers" d=" M 248.15999999999988 152.07000000000022 L 193.15999999999994 152.07000000000022" stroke-opacity="1" stroke-linecap="round" stroke-linejoin="round" stroke-miterlimit="10"/><path fill="none" stroke="rgb(42,211,245)" paint-order="fill stroke markers" d=" M 193.15999999999994 152.07000000000022 L 193.15999999999994 207.07000000000022" stroke-opacity="1" stroke-linecap="round" stroke-linejoin="round" stroke-miterlimit="10"/><path fill="none" stroke="rgb(42,211,245)" paint-order="fill stroke markers" d=" M 193.15999999999994 207.07000000000022 L 248.15999999999988 207.07000000000022" stroke-opacity="1" stroke-linecap="round" stroke-linejoin="round" stroke-miterlimit="10"/><path fill="none" stroke="rgb(42,211,245)" paint-order="fill stroke markers" d=" M 248.15999999999988 207.07000000000022 L 248.15999999999988 262.0700000000002" stroke-opacity="1" stroke-linecap="round" stroke-linejoin="round" stroke-miterlimit="10"/><path fill="none" stroke="rgb(42,211,245)" paint-order="fill stroke markers" d=" M 248.15999999999988 262.0700000000002 L 303.1599999999998 262.0700000000002" stroke-opacity="1" stroke-linecap="round" stroke-linejoin="round" stroke-miterlimit="10"/><path fill="none" stroke="rgb(42,211,245)" paint-order="fill stroke markers" d=" M 303.1599999999998 262.0700000000002 L 303.1599999999998 207.07000000000022" stroke-opacity="1" stroke-linecap="round" stroke-linejoin="round" stroke-miterlimit="10"/><path fill="none" stroke="rgb(42,211,245)" paint-order="fill stroke markers" d=" M 303.1599999999998 207.07000000000022 L 358.15999999999974 207.07000000000022" stroke-opacity="1" stroke-linecap="round" stroke-linejoin="round" stroke-miterlimit="10"/><path fill="none" stroke="rgb(42,211,245)" paint-order="fill stroke markers" d=" M 358.15999999999974 207.07000000000022 L 358.15999999999974 152.07000000000022" stroke-opacity="1" stroke-linecap="round" stroke-linejoin="round" stroke-miterlimit="10"/><path fill="none" stroke="rgb(42,211,245)" paint-order="fill stroke markers" d=" M 358.15999999999974 152.07000000000022 L 303.1599999999998 152.07000000000022" stroke-opacity="1" stroke-linecap="round" stroke-linejoin="round" stroke-miterlimit="10"/><path fill="none" stroke="rgb(42,211,245)" paint-order="fill stroke markers" d=" M 303.1599999999998 152.07000000000022 L 303.1599999999998 97.07000000000025" stroke-opacity="1" stroke-linecap="round" stroke-linejoin="round" stroke-miterlimit="10"/><path fill="none" stroke="rgb(42,211,245)" paint-order="fill stroke markers" d=" M 303.1599999999998 97.07000000000025 L 248.15999999999988 97.07000000000025" stroke-opacity="1" stroke-linecap="round" stroke-linejoin="round" stroke-miterlimit="10"/><path fill="none" stroke="rgb(42,211,245)" paint-order="fill stroke markers" d=" M 248.15999999999988 97.07000000000025 L 248.15999999999988 152.07000000000022" stroke-opacity="1" stroke-linecap="round" stroke-linejoin="round" stroke-miterlimit="10"/><path fill="none" stroke="rgb(42,211,245)" paint-order="fill stroke markers" d=" M 193.15999999999994 152.07000000000022 L 138.16000000000003 152.07000000000022" stroke-opacity="1" stroke-linecap="round" stroke-linejoin="round" stroke-miterlimit="10"/><path fill="none" stroke="rgb(42,211,245)" paint-order="fill stroke markers" d=" M 138.16000000000003 152.07000000000022 L 138.16000000000003 207.07000000000022" stroke-opacity="1" stroke-linecap="round" stroke-linejoin="round" stroke-miterlimit="10"/><path fill="none" stroke="rgb(42,211,245)" paint-order="fill stroke markers" d=" M 138.16000000000003 207.07000000000022 L 193.15999999999994 207.07000000000022" stroke-opacity="1" stroke-linecap="round" stroke-linejoin="round" stroke-miterlimit="10"/></g></g></svg>
