<svg width="23" height="23" viewBox="0 0 23 23" fill="none" xmlns="http://www.w3.org/2000/svg">
<path d="M7.12094 3.94239L4.38317 5.47554L5.91632 2.73777L4.38317 0L7.12094 1.53315L9.85871 0L8.32556 2.73777L9.85871 5.47554L7.12094 3.94239ZM20.2622 14.6744L23 13.1413L21.4668 15.8791L23 18.6168L20.2622 17.0837L17.5245 18.6168L19.0576 15.8791L17.5245 13.1413L20.2622 14.6744ZM23 0L21.4668 2.73777L23 5.47554L20.2622 3.94239L17.5245 5.47554L19.0576 2.73777L17.5245 0L20.2622 1.53315L23 0ZM13.5164 11.8053L16.1884 9.1332L13.8668 6.81157L11.1947 9.48363L13.5164 11.8053ZM14.6443 5.79312L17.2069 8.35567C17.634 8.76086 17.634 9.47268 17.2069 9.89977L4.42697 22.6797C3.99988 23.1068 3.28806 23.1068 2.88287 22.6797L0.320319 20.1171C-0.106773 19.7119 -0.106773 19.0001 0.320319 18.573L13.1002 5.79312C13.5273 5.36603 14.2391 5.36603 14.6443 5.79312Z" fill="white"/>
</svg>
