<svg width="150" height="60" viewBox="0 0 150 60" fill="none" xmlns="http://www.w3.org/2000/svg">
<rect x="0.5" width="149" height="60" rx="10" fill="#1A1A1A"/>
<g clip-path="url(#clip0_2320_5596)">
<path d="M34.6809 38.24C32.9209 38.24 31.4089 37.888 30.1449 37.184C28.8969 36.464 27.9369 35.456 27.2649 34.16C26.5929 32.848 26.2569 31.304 26.2569 29.528C26.2569 28.2 26.4489 27.008 26.8329 25.952C27.2169 24.88 27.7689 23.968 28.4889 23.216C29.2089 22.448 30.0889 21.864 31.1289 21.464C32.1849 21.048 33.3689 20.84 34.6809 20.84C35.5609 20.84 36.4249 20.952 37.2729 21.176C38.1209 21.4 38.8649 21.72 39.5049 22.136C39.8409 22.344 40.0649 22.6 40.1769 22.904C40.2889 23.192 40.3129 23.48 40.2489 23.768C40.1849 24.04 40.0489 24.272 39.8409 24.464C39.6489 24.656 39.4009 24.768 39.0969 24.8C38.8089 24.816 38.4889 24.712 38.1369 24.488C37.6409 24.168 37.1049 23.936 36.5289 23.792C35.9529 23.648 35.3689 23.576 34.7769 23.576C33.6409 23.576 32.6809 23.808 31.8969 24.272C31.1129 24.736 30.5209 25.408 30.1209 26.288C29.7209 27.168 29.5209 28.248 29.5209 29.528C29.5209 30.792 29.7209 31.872 30.1209 32.768C30.5209 33.664 31.1129 34.344 31.8969 34.808C32.6809 35.272 33.6409 35.504 34.7769 35.504C35.3849 35.504 35.9849 35.432 36.5769 35.288C37.1689 35.128 37.7289 34.888 38.2569 34.568C38.6089 34.36 38.9209 34.272 39.1929 34.304C39.4809 34.32 39.7209 34.416 39.9129 34.592C40.1049 34.768 40.2329 34.992 40.2969 35.264C40.3609 35.52 40.3449 35.792 40.2489 36.08C40.1529 36.352 39.9609 36.592 39.6729 36.8C39.0329 37.264 38.2649 37.624 37.3689 37.88C36.4889 38.12 35.5929 38.24 34.6809 38.24ZM47.3417 38.24C46.1257 38.24 45.0697 37.992 44.1737 37.496C43.2777 37 42.5817 36.296 42.0857 35.384C41.5897 34.456 41.3417 33.368 41.3417 32.12C41.3417 31.176 41.4777 30.336 41.7497 29.6C42.0377 28.848 42.4457 28.208 42.9737 27.68C43.5017 27.136 44.1337 26.728 44.8697 26.456C45.6057 26.168 46.4297 26.024 47.3417 26.024C48.5577 26.024 49.6137 26.272 50.5097 26.768C51.4057 27.264 52.1017 27.968 52.5977 28.88C53.0937 29.792 53.3417 30.872 53.3417 32.12C53.3417 33.064 53.1977 33.912 52.9097 34.664C52.6377 35.416 52.2377 36.064 51.7097 36.608C51.1817 37.136 50.5497 37.544 49.8137 37.832C49.0777 38.104 48.2537 38.24 47.3417 38.24ZM47.3417 35.96C47.9337 35.96 48.4537 35.816 48.9017 35.528C49.3497 35.24 49.6937 34.816 49.9337 34.256C50.1897 33.68 50.3177 32.968 50.3177 32.12C50.3177 30.84 50.0457 29.888 49.5017 29.264C48.9577 28.624 48.2377 28.304 47.3417 28.304C46.7497 28.304 46.2297 28.448 45.7817 28.736C45.3337 29.008 44.9817 29.432 44.7257 30.008C44.4857 30.568 44.3657 31.272 44.3657 32.12C44.3657 33.384 44.6377 34.344 45.1817 35C45.7257 35.64 46.4457 35.96 47.3417 35.96ZM57.3538 38.192C56.8738 38.192 56.5058 38.064 56.2498 37.808C55.9938 37.536 55.8658 37.152 55.8658 36.656V27.584C55.8658 27.088 55.9938 26.712 56.2498 26.456C56.5058 26.2 56.8658 26.072 57.3298 26.072C57.7938 26.072 58.1538 26.2 58.4098 26.456C58.6658 26.712 58.7938 27.088 58.7938 27.584V29.336L58.5298 28.616C58.8498 27.816 59.3458 27.184 60.0178 26.72C60.6898 26.256 61.4898 26.024 62.4178 26.024C63.3618 26.024 64.1378 26.248 64.7458 26.696C65.3538 27.144 65.7778 27.832 66.0178 28.76H65.6818C66.0018 27.912 66.5298 27.248 67.2658 26.768C68.0018 26.272 68.8498 26.024 69.8098 26.024C70.7058 26.024 71.4418 26.2 72.0178 26.552C72.6098 26.904 73.0498 27.44 73.3378 28.16C73.6258 28.864 73.7698 29.76 73.7698 30.848V36.656C73.7698 37.152 73.6338 37.536 73.3618 37.808C73.1058 38.064 72.7378 38.192 72.2578 38.192C71.7778 38.192 71.4098 38.064 71.1538 37.808C70.8978 37.536 70.7698 37.152 70.7698 36.656V30.968C70.7698 30.072 70.6178 29.416 70.3138 29C70.0258 28.584 69.5298 28.376 68.8258 28.376C68.0418 28.376 67.4258 28.656 66.9778 29.216C66.5298 29.76 66.3058 30.52 66.3058 31.496V36.656C66.3058 37.152 66.1778 37.536 65.9218 37.808C65.6658 38.064 65.2978 38.192 64.8178 38.192C64.3378 38.192 63.9618 38.064 63.6898 37.808C63.4338 37.536 63.3058 37.152 63.3058 36.656V30.968C63.3058 30.072 63.1538 29.416 62.8498 29C62.5618 28.584 62.0738 28.376 61.3858 28.376C60.6018 28.376 59.9858 28.656 59.5378 29.216C59.0898 29.76 58.8658 30.52 58.8658 31.496V36.656C58.8658 37.68 58.3618 38.192 57.3538 38.192ZM78.3527 42.512C77.8727 42.512 77.5047 42.384 77.2487 42.128C76.9927 41.872 76.8647 41.496 76.8647 41V27.584C76.8647 27.088 76.9927 26.712 77.2487 26.456C77.5047 26.2 77.8647 26.072 78.3287 26.072C78.8087 26.072 79.1767 26.2 79.4327 26.456C79.6887 26.712 79.8167 27.088 79.8167 27.584V29.456L79.5527 28.736C79.7927 27.92 80.2807 27.264 81.0167 26.768C81.7687 26.272 82.6407 26.024 83.6327 26.024C84.6567 26.024 85.5527 26.272 86.3207 26.768C87.1047 27.264 87.7127 27.968 88.1447 28.88C88.5767 29.776 88.7927 30.856 88.7927 32.12C88.7927 33.368 88.5767 34.456 88.1447 35.384C87.7127 36.296 87.1127 37 86.3447 37.496C85.5767 37.992 84.6727 38.24 83.6327 38.24C82.6567 38.24 81.8007 38 81.0647 37.52C80.3287 37.024 79.8327 36.384 79.5767 35.6H79.8647V41C79.8647 41.496 79.7287 41.872 79.4567 42.128C79.2007 42.384 78.8327 42.512 78.3527 42.512ZM82.7927 35.96C83.3847 35.96 83.9047 35.816 84.3527 35.528C84.8007 35.24 85.1447 34.816 85.3847 34.256C85.6407 33.68 85.7687 32.968 85.7687 32.12C85.7687 30.84 85.4967 29.888 84.9527 29.264C84.4087 28.624 83.6887 28.304 82.7927 28.304C82.2007 28.304 81.6807 28.448 81.2327 28.736C80.7847 29.008 80.4327 29.432 80.1767 30.008C79.9367 30.568 79.8167 31.272 79.8167 32.12C79.8167 33.384 80.0887 34.344 80.6327 35C81.1767 35.64 81.8967 35.96 82.7927 35.96ZM95.1193 38.24C94.2713 38.24 93.5113 38.08 92.8393 37.76C92.1833 37.424 91.6633 36.976 91.2793 36.416C90.9113 35.856 90.7273 35.224 90.7273 34.52C90.7273 33.656 90.9513 32.976 91.3993 32.48C91.8473 31.968 92.5753 31.6 93.5833 31.376C94.5913 31.152 95.9433 31.04 97.6393 31.04H98.8393V32.768H97.6633C96.6713 32.768 95.8793 32.816 95.2873 32.912C94.6953 33.008 94.2713 33.176 94.0153 33.416C93.7753 33.64 93.6553 33.96 93.6553 34.376C93.6553 34.904 93.8393 35.336 94.2073 35.672C94.5753 36.008 95.0873 36.176 95.7433 36.176C96.2713 36.176 96.7353 36.056 97.1353 35.816C97.5513 35.56 97.8793 35.216 98.1193 34.784C98.3593 34.352 98.4793 33.856 98.4793 33.296V30.536C98.4793 29.736 98.3033 29.16 97.9513 28.808C97.5993 28.456 97.0073 28.28 96.1753 28.28C95.7113 28.28 95.2073 28.336 94.6633 28.448C94.1353 28.56 93.5753 28.752 92.9833 29.024C92.6793 29.168 92.4073 29.208 92.1673 29.144C91.9433 29.08 91.7673 28.952 91.6393 28.76C91.5113 28.552 91.4473 28.328 91.4473 28.088C91.4473 27.848 91.5113 27.616 91.6393 27.392C91.7673 27.152 91.9833 26.976 92.2873 26.864C93.0233 26.56 93.7273 26.344 94.3993 26.216C95.0873 26.088 95.7113 26.024 96.2713 26.024C97.4233 26.024 98.3673 26.2 99.1033 26.552C99.8553 26.904 100.415 27.44 100.783 28.16C101.151 28.864 101.335 29.776 101.335 30.896V36.656C101.335 37.152 101.215 37.536 100.975 37.808C100.735 38.064 100.391 38.192 99.9433 38.192C99.4953 38.192 99.1433 38.064 98.8873 37.808C98.6473 37.536 98.5273 37.152 98.5273 36.656V35.504H98.7193C98.6073 36.064 98.3833 36.552 98.0473 36.968C97.7273 37.368 97.3193 37.68 96.8233 37.904C96.3273 38.128 95.7593 38.24 95.1193 38.24ZM105.916 38.192C105.42 38.192 105.036 38.064 104.764 37.808C104.508 37.536 104.38 37.152 104.38 36.656V27.584C104.38 27.088 104.508 26.712 104.764 26.456C105.02 26.2 105.38 26.072 105.844 26.072C106.308 26.072 106.668 26.2 106.924 26.456C107.18 26.712 107.308 27.088 107.308 27.584V29.096H107.068C107.292 28.136 107.732 27.408 108.388 26.912C109.044 26.416 109.916 26.12 111.004 26.024C111.34 25.992 111.604 26.08 111.796 26.288C112.004 26.48 112.124 26.784 112.156 27.2C112.188 27.6 112.092 27.928 111.868 28.184C111.66 28.424 111.34 28.568 110.908 28.616L110.38 28.664C109.404 28.76 108.668 29.064 108.172 29.576C107.676 30.072 107.428 30.776 107.428 31.688V36.656C107.428 37.152 107.3 37.536 107.044 37.808C106.788 38.064 106.412 38.192 105.916 38.192ZM119.375 38.24C118.047 38.24 116.903 37.992 115.943 37.496C114.983 37 114.239 36.296 113.711 35.384C113.199 34.472 112.943 33.392 112.943 32.144C112.943 30.928 113.191 29.864 113.687 28.952C114.199 28.04 114.895 27.328 115.775 26.816C116.671 26.288 117.687 26.024 118.823 26.024C119.655 26.024 120.399 26.16 121.055 26.432C121.727 26.704 122.295 27.096 122.759 27.608C123.239 28.12 123.599 28.744 123.839 29.48C124.095 30.2 124.223 31.016 124.223 31.928C124.223 32.216 124.119 32.44 123.911 32.6C123.719 32.744 123.439 32.816 123.071 32.816H115.367V31.088H122.111L121.727 31.448C121.727 30.712 121.615 30.096 121.391 29.6C121.183 29.104 120.871 28.728 120.455 28.472C120.055 28.2 119.551 28.064 118.943 28.064C118.271 28.064 117.695 28.224 117.215 28.544C116.751 28.848 116.391 29.288 116.135 29.864C115.895 30.424 115.775 31.096 115.775 31.88V32.048C115.775 33.36 116.079 34.344 116.687 35C117.311 35.64 118.223 35.96 119.423 35.96C119.839 35.96 120.303 35.912 120.815 35.816C121.343 35.704 121.839 35.52 122.303 35.264C122.639 35.072 122.935 34.992 123.191 35.024C123.447 35.04 123.647 35.128 123.791 35.288C123.951 35.448 124.047 35.648 124.079 35.888C124.111 36.112 124.063 36.344 123.935 36.584C123.823 36.824 123.623 37.032 123.335 37.208C122.775 37.56 122.127 37.824 121.391 38C120.671 38.16 119.999 38.24 119.375 38.24Z" fill="white"/>
</g>
<defs>
<clipPath id="clip0_2320_5596">
<rect width="101" height="28" fill="white" transform="translate(24.5 16)"/>
</clipPath>
</defs>
</svg>
