<svg width="177" height="60" viewBox="0 0 177 60" fill="none" xmlns="http://www.w3.org/2000/svg">
<g opacity="0.2">
<rect x="1" y="1" width="175" height="58" rx="9" fill="white"/>
<path d="M46.2844 34.3042C46.4252 34.4464 46.5042 34.6385 46.5042 34.8386C46.5042 35.0387 46.4252 35.2308 46.2844 35.373L44.0344 37.623C43.891 37.7616 43.6994 37.8391 43.5 37.8391C43.3006 37.8391 43.109 37.7616 42.9656 37.623C42.8248 37.4808 42.7458 37.2887 42.7458 37.0886C42.7458 36.8885 42.8248 36.6964 42.9656 36.5542L43.9406 35.5886H42.8344C41.7596 35.5867 40.7008 35.3289 39.7455 34.8366C38.7902 34.3443 37.9658 33.6315 37.3406 32.7573L33.4312 27.2917C32.9461 26.6123 32.3062 26.0581 31.5645 25.675C30.8227 25.2919 30.0005 25.0909 29.1656 25.0886H27C26.8011 25.0886 26.6103 25.0096 26.4697 24.8689C26.329 24.7283 26.25 24.5375 26.25 24.3386C26.25 24.1397 26.329 23.9489 26.4697 23.8083C26.6103 23.6676 26.8011 23.5886 27 23.5886H29.1656C30.2404 23.5905 31.2992 23.8483 32.2545 24.3406C33.2098 24.8329 34.0342 25.5457 34.6594 26.4198L38.5687 31.8855C39.0539 32.5649 39.6938 33.1191 40.4355 33.5022C41.1773 33.8853 41.9995 34.0863 42.8344 34.0886H43.9406L42.9656 33.123C42.846 32.9772 42.7849 32.7923 42.7942 32.604C42.8034 32.4157 42.8824 32.2376 43.0157 32.1043C43.149 31.971 43.3271 31.892 43.5154 31.8828C43.7037 31.8735 43.8887 31.9346 44.0344 32.0542L46.2844 34.3042ZM37.4062 27.6198C37.4867 27.6775 37.5779 27.7186 37.6743 27.7409C37.7708 27.7631 37.8707 27.7661 37.9684 27.7495C38.066 27.7329 38.1593 27.6972 38.2431 27.6444C38.3268 27.5916 38.3993 27.5227 38.4562 27.4417L38.5687 27.2917C39.0539 26.6123 39.6938 26.0581 40.4355 25.675C41.1773 25.2919 41.9995 25.0909 42.8344 25.0886H43.9406L42.9656 26.0542C42.8248 26.1964 42.7458 26.3885 42.7458 26.5886C42.7458 26.7887 42.8248 26.9808 42.9656 27.123C43.109 27.2616 43.3006 27.3391 43.5 27.3391C43.6994 27.3391 43.891 27.2616 44.0344 27.123L46.2844 24.873C46.4252 24.7308 46.5042 24.5387 46.5042 24.3386C46.5042 24.1385 46.4252 23.9464 46.2844 23.8042L44.0344 21.5542C43.8887 21.4346 43.7037 21.3735 43.5154 21.3828C43.3271 21.392 43.149 21.471 43.0157 21.6043C42.8824 21.7376 42.8034 21.9157 42.7942 22.104C42.7849 22.2922 42.846 22.4772 42.9656 22.623L43.9406 23.5886H42.8344C41.7596 23.5905 40.7008 23.8483 39.7455 24.3406C38.7902 24.8329 37.9658 25.5457 37.3406 26.4198L37.2375 26.5698C37.1794 26.6498 37.1376 26.7404 37.1147 26.8365C37.0917 26.9326 37.0879 27.0324 37.1036 27.1299C37.1193 27.2275 37.1541 27.321 37.206 27.4051C37.258 27.4892 37.326 27.5622 37.4062 27.6198ZM34.5938 31.5573C34.5133 31.4997 34.4221 31.4586 34.3257 31.4363C34.2292 31.4141 34.1293 31.4111 34.0316 31.4277C33.934 31.4442 33.8407 31.48 33.7569 31.5328C33.6732 31.5856 33.6007 31.6545 33.5438 31.7355L33.4312 31.8855C32.9461 32.5649 32.3062 33.1191 31.5645 33.5022C30.8227 33.8853 30.0005 34.0863 29.1656 34.0886H27C26.8011 34.0886 26.6103 34.1676 26.4697 34.3083C26.329 34.4489 26.25 34.6397 26.25 34.8386C26.25 35.0375 26.329 35.2283 26.4697 35.3689C26.6103 35.5096 26.8011 35.5886 27 35.5886H29.1656C30.2404 35.5867 31.2992 35.3289 32.2545 34.8366C33.2098 34.3443 34.0342 33.6315 34.6594 32.7573L34.7625 32.6073C34.8206 32.5274 34.8624 32.4368 34.8853 32.3407C34.9083 32.2446 34.9121 32.1448 34.8964 32.0473C34.8807 31.9497 34.8459 31.8562 34.794 31.7721C34.742 31.688 34.674 31.615 34.5938 31.5573Z" fill="#212121"/>
<g clip-path="url(#clip0_1408_53302)">
<path d="M67.3914 38.12C66.9114 38.12 66.5274 37.984 66.2394 37.712C65.9674 37.424 65.8314 37.048 65.8314 36.584V23.624H61.4634C60.5034 23.624 60.0234 23.2 60.0234 22.352C60.0234 21.504 60.5034 21.08 61.4634 21.08H73.2954C74.2554 21.08 74.7354 21.504 74.7354 22.352C74.7354 23.2 74.2554 23.624 73.2954 23.624H68.9274V36.584C68.9274 37.048 68.7834 37.424 68.4954 37.712C68.2234 37.984 67.8554 38.12 67.3914 38.12ZM80.9792 26.024C81.3952 25.992 81.7232 26.08 81.9632 26.288C82.2032 26.496 82.3232 26.808 82.3232 27.224C82.3232 27.656 82.2192 27.976 82.0112 28.184C81.8032 28.392 81.4272 28.528 80.8832 28.592L80.1632 28.664C79.2192 28.76 78.5232 29.08 78.0752 29.624C77.6432 30.168 77.4272 30.848 77.4272 31.664V36.704C77.4272 37.168 77.2832 37.528 76.9952 37.784C76.7072 38.024 76.3472 38.144 75.9152 38.144C75.4832 38.144 75.1232 38.024 74.8352 37.784C74.5632 37.528 74.4272 37.168 74.4272 36.704V27.416C74.4272 26.968 74.5632 26.624 74.8352 26.384C75.1232 26.144 75.4752 26.024 75.8912 26.024C76.3072 26.024 76.6432 26.144 76.8992 26.384C77.1552 26.608 77.2832 26.936 77.2832 27.368V28.328C77.5872 27.624 78.0352 27.08 78.6272 26.696C79.2352 26.312 79.9072 26.096 80.6432 26.048L80.9792 26.024ZM92.5253 26.888C92.6533 26.6 92.8213 26.392 93.0293 26.264C93.2533 26.12 93.4933 26.048 93.7493 26.048C94.1173 26.048 94.4453 26.176 94.7333 26.432C95.0373 26.672 95.1893 26.976 95.1893 27.344C95.1893 27.52 95.1413 27.704 95.0453 27.896L88.4933 41.624C88.2213 42.168 87.7973 42.44 87.2213 42.44C86.8533 42.44 86.5253 42.32 86.2373 42.08C85.9653 41.856 85.8293 41.568 85.8293 41.216C85.8293 41.04 85.8773 40.84 85.9733 40.616L87.6053 37.184L83.1413 27.896C83.0613 27.736 83.0213 27.552 83.0213 27.344C83.0213 26.976 83.1733 26.664 83.4773 26.408C83.7973 26.152 84.1573 26.024 84.5573 26.024C84.8293 26.024 85.0773 26.096 85.3013 26.24C85.5253 26.368 85.7013 26.576 85.8293 26.864L89.1893 34.28L92.5253 26.888ZM116.57 20.96C117.018 20.96 117.37 21.104 117.626 21.392C117.898 21.664 118.034 22.032 118.034 22.496V36.584C118.034 37.048 117.898 37.424 117.626 37.712C117.354 38 117.002 38.144 116.57 38.144C116.058 38.144 115.666 37.96 115.394 37.592L106.634 26.192V36.584C106.634 37.048 106.506 37.424 106.25 37.712C105.994 38 105.642 38.144 105.194 38.144C104.746 38.144 104.394 38 104.138 37.712C103.882 37.424 103.754 37.048 103.754 36.584V22.496C103.754 22.032 103.89 21.664 104.162 21.392C104.434 21.104 104.794 20.96 105.242 20.96C105.738 20.96 106.122 21.144 106.394 21.512L115.13 32.864V22.496C115.13 22.032 115.258 21.664 115.514 21.392C115.786 21.104 116.138 20.96 116.57 20.96ZM130.707 34.784C130.979 34.784 131.195 34.888 131.355 35.096C131.531 35.304 131.619 35.584 131.619 35.936C131.619 36.432 131.323 36.848 130.731 37.184C130.187 37.488 129.571 37.736 128.883 37.928C128.195 38.104 127.539 38.192 126.915 38.192C125.027 38.192 123.531 37.648 122.427 36.56C121.323 35.472 120.771 33.984 120.771 32.096C120.771 30.896 121.011 29.832 121.491 28.904C121.971 27.976 122.643 27.256 123.507 26.744C124.387 26.232 125.379 25.976 126.483 25.976C127.539 25.976 128.459 26.208 129.243 26.672C130.027 27.136 130.635 27.792 131.067 28.64C131.499 29.488 131.715 30.488 131.715 31.64C131.715 32.328 131.411 32.672 130.803 32.672H123.723C123.819 33.776 124.131 34.592 124.659 35.12C125.187 35.632 125.955 35.888 126.963 35.888C127.475 35.888 127.923 35.824 128.307 35.696C128.707 35.568 129.155 35.392 129.651 35.168C130.131 34.912 130.483 34.784 130.707 34.784ZM126.555 28.088C125.739 28.088 125.083 28.344 124.587 28.856C124.107 29.368 123.819 30.104 123.723 31.064H129.147C129.115 30.088 128.875 29.352 128.427 28.856C127.979 28.344 127.355 28.088 126.555 28.088ZM149.846 26.912C149.958 26.624 150.118 26.408 150.326 26.264C150.55 26.12 150.79 26.048 151.046 26.048C151.414 26.048 151.742 26.176 152.03 26.432C152.334 26.672 152.486 26.976 152.486 27.344C152.486 27.552 152.446 27.736 152.366 27.896L148.406 37.184C148.278 37.488 148.078 37.72 147.806 37.88C147.55 38.04 147.262 38.12 146.942 38.12C146.638 38.12 146.35 38.04 146.078 37.88C145.822 37.72 145.63 37.488 145.502 37.184L142.646 30.32L139.886 37.184C139.758 37.488 139.558 37.72 139.286 37.88C139.03 38.04 138.742 38.12 138.422 38.12C138.118 38.12 137.83 38.04 137.558 37.88C137.286 37.72 137.086 37.488 136.958 37.184L133.022 27.896C132.942 27.688 132.902 27.512 132.902 27.368C132.902 27 133.062 26.688 133.382 26.432C133.702 26.16 134.054 26.024 134.438 26.024C134.71 26.024 134.958 26.096 135.182 26.24C135.406 26.384 135.574 26.6 135.686 26.888L138.518 34.208L141.422 26.96C141.55 26.656 141.734 26.432 141.974 26.288C142.214 26.128 142.478 26.048 142.766 26.048C143.054 26.048 143.318 26.128 143.558 26.288C143.798 26.432 143.982 26.656 144.11 26.96L147.038 34.232L149.846 26.912Z" fill="#212121"/>
</g>
<rect x="1" y="1" width="175" height="58" rx="9" stroke="#1A1A1A" stroke-width="2"/>
</g>
<defs>
<clipPath id="clip0_1408_53302">
<rect width="93" height="28" fill="white" transform="translate(60 16)"/>
</clipPath>
</defs>
</svg>
