<svg width="101" height="28" viewBox="0 0 101 28" fill="none" xmlns="http://www.w3.org/2000/svg">
<path d="M21.9219 5V10H16.9219" stroke="white" stroke-width="2" stroke-linecap="round" stroke-linejoin="round"/>
<path d="M21.8719 14.9996C21.6504 17.0054 20.7612 18.8786 19.3471 20.3183C17.933 21.758 16.0761 22.6807 14.0746 22.9382C12.0731 23.1956 10.0431 22.773 8.31067 21.7381C6.57824 20.7031 5.2439 19.116 4.52193 17.2316C3.79997 15.3471 3.73228 13.2747 4.32974 11.3472C4.92719 9.41963 6.15512 7.74881 7.81632 6.60304C9.47752 5.45728 11.4756 4.90305 13.4896 5.02938C15.5037 5.1557 17.4169 5.95525 18.9219 7.29961L21.9219 9.99961" stroke="white" stroke-width="2" stroke-linecap="round" stroke-linejoin="round"/>
<g clip-path="url(#clip0_1_100)">
<path d="M40.3606 22.192C39.8646 22.192 39.4806 22.056 39.2086 21.784C38.9526 21.496 38.8246 21.104 38.8246 20.608V6.64C38.8246 6.128 38.9606 5.744 39.2326 5.488C39.5046 5.216 39.8886 5.08 40.3846 5.08H46.1686C48.0246 5.08 49.4566 5.528 50.4646 6.424C51.4726 7.304 51.9766 8.544 51.9766 10.144C51.9766 11.184 51.7446 12.08 51.2806 12.832C50.8326 13.584 50.1766 14.16 49.3126 14.56C48.4486 14.96 47.4006 15.16 46.1686 15.16L46.3846 14.8H47.1766C47.8326 14.8 48.4006 14.96 48.8806 15.28C49.3766 15.6 49.8086 16.104 50.1766 16.792L51.9766 20.128C52.1686 20.464 52.2566 20.792 52.2406 21.112C52.2246 21.432 52.1046 21.696 51.8806 21.904C51.6566 22.096 51.3286 22.192 50.8966 22.192C50.4646 22.192 50.1126 22.104 49.8406 21.928C49.5686 21.736 49.3286 21.448 49.1206 21.064L46.6966 16.6C46.4086 16.056 46.0646 15.696 45.6646 15.52C45.2806 15.328 44.7846 15.232 44.1766 15.232H41.8966V20.608C41.8966 21.104 41.7686 21.496 41.5126 21.784C41.2566 22.056 40.8726 22.192 40.3606 22.192ZM41.8966 12.952H45.6406C46.7446 12.952 47.5766 12.728 48.1366 12.28C48.7126 11.816 49.0006 11.128 49.0006 10.216C49.0006 9.32 48.7126 8.648 48.1366 8.2C47.5766 7.736 46.7446 7.504 45.6406 7.504H41.8966V12.952ZM60.469 22.24C59.141 22.24 57.997 21.992 57.037 21.496C56.077 21 55.333 20.296 54.805 19.384C54.293 18.472 54.037 17.392 54.037 16.144C54.037 14.928 54.285 13.864 54.781 12.952C55.293 12.04 55.989 11.328 56.869 10.816C57.765 10.288 58.781 10.024 59.917 10.024C60.749 10.024 61.493 10.16 62.149 10.432C62.821 10.704 63.389 11.096 63.853 11.608C64.333 12.12 64.693 12.744 64.933 13.48C65.189 14.2 65.317 15.016 65.317 15.928C65.317 16.216 65.213 16.44 65.005 16.6C64.813 16.744 64.533 16.816 64.165 16.816H56.461V15.088H63.205L62.821 15.448C62.821 14.712 62.709 14.096 62.485 13.6C62.277 13.104 61.965 12.728 61.549 12.472C61.149 12.2 60.645 12.064 60.037 12.064C59.365 12.064 58.789 12.224 58.309 12.544C57.845 12.848 57.485 13.288 57.229 13.864C56.989 14.424 56.869 15.096 56.869 15.88V16.048C56.869 17.36 57.173 18.344 57.781 19C58.405 19.64 59.317 19.96 60.517 19.96C60.933 19.96 61.397 19.912 61.909 19.816C62.437 19.704 62.933 19.52 63.397 19.264C63.733 19.072 64.029 18.992 64.285 19.024C64.541 19.04 64.741 19.128 64.885 19.288C65.045 19.448 65.141 19.648 65.173 19.888C65.205 20.112 65.157 20.344 65.029 20.584C64.917 20.824 64.717 21.032 64.429 21.208C63.869 21.56 63.221 21.824 62.485 22C61.765 22.16 61.093 22.24 60.469 22.24ZM71.9888 22.24C71.3008 22.24 70.5728 22.168 69.8048 22.024C69.0368 21.88 68.3488 21.632 67.7408 21.28C67.4848 21.12 67.3008 20.936 67.1888 20.728C67.0928 20.504 67.0528 20.288 67.0688 20.08C67.1008 19.856 67.1808 19.664 67.3088 19.504C67.4528 19.344 67.6288 19.24 67.8368 19.192C68.0608 19.144 68.3008 19.184 68.5568 19.312C69.1968 19.616 69.7968 19.832 70.3568 19.96C70.9168 20.072 71.4688 20.128 72.0128 20.128C72.7808 20.128 73.3488 20 73.7168 19.744C74.1008 19.472 74.2928 19.12 74.2928 18.688C74.2928 18.32 74.1648 18.04 73.9088 17.848C73.6688 17.64 73.3008 17.488 72.8048 17.392L70.4048 16.936C69.4128 16.744 68.6528 16.384 68.1248 15.856C67.6128 15.312 67.3568 14.616 67.3568 13.768C67.3568 13 67.5648 12.336 67.9808 11.776C68.4128 11.216 69.0048 10.784 69.7568 10.48C70.5088 10.176 71.3728 10.024 72.3488 10.024C73.0528 10.024 73.7088 10.104 74.3168 10.264C74.9408 10.408 75.5408 10.64 76.1168 10.96C76.3568 11.088 76.5168 11.256 76.5968 11.464C76.6928 11.672 76.7168 11.888 76.6688 12.112C76.6208 12.32 76.5248 12.512 76.3808 12.688C76.2368 12.848 76.0528 12.952 75.8288 13C75.6208 13.032 75.3808 12.984 75.1088 12.856C74.6128 12.6 74.1328 12.416 73.6688 12.304C73.2208 12.192 72.7888 12.136 72.3728 12.136C71.5888 12.136 71.0048 12.272 70.6208 12.544C70.2528 12.816 70.0688 13.176 70.0688 13.624C70.0688 13.96 70.1808 14.24 70.4048 14.464C70.6288 14.688 70.9728 14.84 71.4368 14.92L73.8368 15.376C74.8768 15.568 75.6608 15.92 76.1888 16.432C76.7328 16.944 77.0048 17.632 77.0048 18.496C77.0048 19.664 76.5488 20.584 75.6368 21.256C74.7248 21.912 73.5088 22.24 71.9888 22.24ZM85.1956 22.24C83.8676 22.24 82.7236 21.992 81.7636 21.496C80.8036 21 80.0596 20.296 79.5316 19.384C79.0196 18.472 78.7636 17.392 78.7636 16.144C78.7636 14.928 79.0116 13.864 79.5076 12.952C80.0196 12.04 80.7156 11.328 81.5956 10.816C82.4916 10.288 83.5076 10.024 84.6436 10.024C85.4756 10.024 86.2196 10.16 86.8756 10.432C87.5476 10.704 88.1156 11.096 88.5796 11.608C89.0596 12.12 89.4196 12.744 89.6596 13.48C89.9156 14.2 90.0436 15.016 90.0436 15.928C90.0436 16.216 89.9396 16.44 89.7316 16.6C89.5396 16.744 89.2596 16.816 88.8916 16.816H81.1876V15.088H87.9316L87.5476 15.448C87.5476 14.712 87.4356 14.096 87.2116 13.6C87.0036 13.104 86.6916 12.728 86.2756 12.472C85.8756 12.2 85.3716 12.064 84.7636 12.064C84.0916 12.064 83.5156 12.224 83.0356 12.544C82.5716 12.848 82.2116 13.288 81.9556 13.864C81.7156 14.424 81.5956 15.096 81.5956 15.88V16.048C81.5956 17.36 81.8996 18.344 82.5076 19C83.1316 19.64 84.0436 19.96 85.2436 19.96C85.6596 19.96 86.1236 19.912 86.6356 19.816C87.1636 19.704 87.6596 19.52 88.1236 19.264C88.4596 19.072 88.7556 18.992 89.0116 19.024C89.2676 19.04 89.4676 19.128 89.6116 19.288C89.7716 19.448 89.8676 19.648 89.8996 19.888C89.9316 20.112 89.8836 20.344 89.7556 20.584C89.6436 20.824 89.4436 21.032 89.1556 21.208C88.5956 21.56 87.9476 21.824 87.2116 22C86.4916 22.16 85.8196 22.24 85.1956 22.24ZM97.7485 22.24C96.7085 22.24 95.8365 22.064 95.1325 21.712C94.4445 21.36 93.9325 20.848 93.5965 20.176C93.2605 19.488 93.0925 18.64 93.0925 17.632V12.52H91.8445C91.4605 12.52 91.1645 12.424 90.9565 12.232C90.7485 12.024 90.6445 11.744 90.6445 11.392C90.6445 11.024 90.7485 10.744 90.9565 10.552C91.1645 10.36 91.4605 10.264 91.8445 10.264H93.0925V8.08C93.0925 7.584 93.2205 7.208 93.4765 6.952C93.7485 6.696 94.1245 6.568 94.6045 6.568C95.0845 6.568 95.4525 6.696 95.7085 6.952C95.9645 7.208 96.0925 7.584 96.0925 8.08V10.264H98.6365C99.0205 10.264 99.3165 10.36 99.5245 10.552C99.7325 10.744 99.8365 11.024 99.8365 11.392C99.8365 11.744 99.7325 12.024 99.5245 12.232C99.3165 12.424 99.0205 12.52 98.6365 12.52H96.0925V17.464C96.0925 18.232 96.2605 18.808 96.5965 19.192C96.9325 19.576 97.4765 19.768 98.2285 19.768C98.5005 19.768 98.7405 19.744 98.9485 19.696C99.1565 19.648 99.3405 19.616 99.5005 19.6C99.6925 19.584 99.8525 19.648 99.9805 19.792C100.109 19.92 100.173 20.192 100.173 20.608C100.173 20.928 100.117 21.216 100.005 21.472C99.9085 21.712 99.7245 21.88 99.4525 21.976C99.2445 22.04 98.9725 22.096 98.6365 22.144C98.3005 22.208 98.0045 22.24 97.7485 22.24Z" fill="white"/>
</g>
<defs>
<clipPath id="clip0_1_100">
<rect width="64" height="28" fill="white" transform="translate(36.5)"/>
</clipPath>
</defs>
</svg>
