<svg width="225" height="125" viewBox="0 0 225 125" fill="none" xmlns="http://www.w3.org/2000/svg">
<path d="M223.5 122.451L5.78871 1.49998L223.5 1.5L223.5 122.451Z" fill="#A6F0FF" stroke="#2AD3F5" stroke-width="3"/>
<path d="M137.736 70.4666C136.71 70.4666 135.816 70.2599 135.056 69.8466C134.296 69.4199 133.71 68.8199 133.296 68.0466C132.883 67.2733 132.676 66.3666 132.676 65.3266C132.676 64.5399 132.79 63.8399 133.016 63.2266C133.256 62.5999 133.596 62.0733 134.036 61.6466C134.476 61.2066 135.01 60.8733 135.636 60.6466C136.263 60.4066 136.963 60.2866 137.736 60.2866C138.176 60.2866 138.65 60.3466 139.156 60.4666C139.676 60.5866 140.163 60.7866 140.616 61.0666C140.83 61.1999 140.97 61.3599 141.036 61.5466C141.103 61.7333 141.116 61.9266 141.076 62.1266C141.036 62.3133 140.95 62.4799 140.816 62.6266C140.696 62.7599 140.543 62.8466 140.356 62.8866C140.17 62.9133 139.963 62.8666 139.736 62.7466C139.443 62.5733 139.143 62.4466 138.836 62.3666C138.53 62.2733 138.236 62.2266 137.956 62.2266C137.516 62.2266 137.13 62.2999 136.796 62.4466C136.463 62.5799 136.176 62.7799 135.936 63.0466C135.71 63.2999 135.536 63.6199 135.416 64.0066C135.296 64.3933 135.236 64.8399 135.236 65.3466C135.236 66.3333 135.47 67.1133 135.936 67.6866C136.416 68.2466 137.09 68.5266 137.956 68.5266C138.236 68.5266 138.523 68.4866 138.816 68.4066C139.123 68.3266 139.43 68.1999 139.736 68.0266C139.963 67.9066 140.163 67.8666 140.336 67.9066C140.523 67.9466 140.676 68.0399 140.796 68.1866C140.916 68.3199 140.99 68.4866 141.016 68.6866C141.043 68.8733 141.016 69.0599 140.936 69.2466C140.87 69.4333 140.736 69.5866 140.536 69.7066C140.096 69.9733 139.63 70.1666 139.136 70.2866C138.643 70.4066 138.176 70.4666 137.736 70.4666Z" fill="#1CB9D9"/>
<path d="M118.684 21.4666C117.978 21.4666 117.344 21.3333 116.784 21.0666C116.238 20.7866 115.804 20.4133 115.484 19.9466C115.178 19.4799 115.024 18.9533 115.024 18.3666C115.024 17.6466 115.211 17.0799 115.584 16.6666C115.958 16.2399 116.564 15.9333 117.404 15.7466C118.244 15.5599 119.371 15.4666 120.784 15.4666H121.784V16.9066L120.804 16.9066C119.978 16.9066 119.318 16.9466 118.824 17.0266C118.331 17.1066 117.978 17.2466 117.764 17.4466C117.564 17.6333 117.464 17.8999 117.464 18.2466C117.464 18.6866 117.618 19.0466 117.924 19.3266C118.231 19.6066 118.658 19.7466 119.204 19.7466C119.644 19.7466 120.031 19.6466 120.364 19.4466C120.711 19.2333 120.984 18.9466 121.184 18.5866C121.384 18.2266 121.484 17.8133 121.484 17.3466V15.0466C121.484 14.3799 121.338 13.8999 121.044 13.6066C120.751 13.3133 120.258 13.1666 119.564 13.1666C119.178 13.1666 118.758 13.2133 118.304 13.3066C117.864 13.3999 117.398 13.5599 116.904 13.7866C116.651 13.9066 116.424 13.9399 116.224 13.8866C116.038 13.8333 115.891 13.7266 115.784 13.5666C115.678 13.3933 115.624 13.2066 115.624 13.0066C115.624 12.8066 115.678 12.6133 115.784 12.4266C115.891 12.2266 116.071 12.0799 116.324 11.9866C116.938 11.7333 117.524 11.5533 118.084 11.4466C118.658 11.3399 119.178 11.2866 119.644 11.2866C120.604 11.2866 121.391 11.4333 122.004 11.7266C122.631 12.0199 123.098 12.4666 123.404 13.0666C123.711 13.6533 123.864 14.4133 123.864 15.3466V20.1466C123.864 20.5599 123.764 20.8799 123.564 21.1066C123.364 21.3199 123.078 21.4266 122.704 21.4266C122.331 21.4266 122.038 21.3199 121.824 21.1066C121.624 20.8799 121.524 20.5599 121.524 20.1466V19.1866H121.684C121.591 19.6533 121.404 20.0599 121.124 20.4066C120.858 20.7399 120.518 20.9999 120.104 21.1866C119.691 21.3733 119.218 21.4666 118.684 21.4666Z" fill="#1CB9D9"/>
<path d="M213.577 71.4666C212.75 71.4666 212.024 71.2599 211.397 70.8466C210.784 70.4333 210.377 69.8799 210.177 69.1866L210.397 68.6866V70.1466C210.397 70.5599 210.29 70.8799 210.077 71.1066C209.864 71.3199 209.564 71.4266 209.177 71.4266C208.777 71.4266 208.47 71.3199 208.257 71.1066C208.044 70.8799 207.937 70.5599 207.937 70.1466V58.2666C207.937 57.8533 208.044 57.5399 208.257 57.3266C208.47 57.1133 208.777 57.0066 209.177 57.0066C209.577 57.0066 209.884 57.1133 210.097 57.3266C210.324 57.5399 210.437 57.8533 210.437 58.2666V63.4666H210.197C210.41 62.8133 210.824 62.2866 211.437 61.8866C212.05 61.4866 212.764 61.2866 213.577 61.2866C214.444 61.2866 215.197 61.4933 215.837 61.9066C216.477 62.3199 216.977 62.9066 217.337 63.6666C217.697 64.4133 217.877 65.3133 217.877 66.3666C217.877 67.4066 217.697 68.3133 217.337 69.0866C216.977 69.8466 216.47 70.4333 215.817 70.8466C215.177 71.2599 214.43 71.4666 213.577 71.4666ZM212.877 69.5666C213.37 69.5666 213.804 69.4466 214.177 69.2066C214.55 68.9666 214.837 68.6133 215.037 68.1466C215.25 67.6666 215.357 67.0733 215.357 66.3666C215.357 65.2999 215.13 64.5066 214.677 63.9866C214.224 63.4533 213.624 63.1866 212.877 63.1866C212.384 63.1866 211.95 63.3066 211.577 63.5466C211.204 63.7733 210.91 64.1266 210.697 64.6066C210.497 65.0733 210.397 65.6599 210.397 66.3666C210.397 67.4199 210.624 68.2199 211.077 68.7666C211.53 69.2999 212.13 69.5666 212.877 69.5666Z" fill="#1CB9D9"/>
</svg>
