<svg width="125" height="225" viewBox="0 0 125 225" fill="none" xmlns="http://www.w3.org/2000/svg">
<path d="M2.54927 223.5L123.5 5.78869L123.5 223.5L2.54927 223.5Z" fill="#FFD2A6" stroke="#FF8F1F" stroke-width="3"/>
<path d="M64.4698 145.467C63.4431 145.467 62.5498 145.26 61.7898 144.847C61.0298 144.42 60.4431 143.82 60.0298 143.047C59.6164 142.273 59.4098 141.367 59.4098 140.327C59.4098 139.54 59.5231 138.84 59.7498 138.227C59.9898 137.6 60.3298 137.073 60.7698 136.647C61.2098 136.207 61.7431 135.873 62.3698 135.647C62.9964 135.407 63.6964 135.287 64.4698 135.287C64.9098 135.287 65.3831 135.347 65.8898 135.467C66.4098 135.587 66.8964 135.787 67.3498 136.067C67.5631 136.2 67.7031 136.36 67.7698 136.547C67.8364 136.733 67.8498 136.927 67.8098 137.127C67.7698 137.313 67.6831 137.48 67.5498 137.627C67.4298 137.76 67.2764 137.847 67.0898 137.887C66.9031 137.913 66.6964 137.867 66.4698 137.747C66.1764 137.573 65.8764 137.447 65.5698 137.367C65.2631 137.273 64.9698 137.227 64.6898 137.227C64.2498 137.227 63.8631 137.3 63.5298 137.447C63.1964 137.58 62.9098 137.78 62.6698 138.047C62.4431 138.3 62.2698 138.62 62.1498 139.007C62.0298 139.393 61.9698 139.84 61.9698 140.347C61.9698 141.333 62.2031 142.113 62.6698 142.687C63.1498 143.247 63.8231 143.527 64.6898 143.527C64.9698 143.527 65.2564 143.487 65.5498 143.407C65.8564 143.327 66.1631 143.2 66.4698 143.027C66.6964 142.907 66.8964 142.867 67.0698 142.907C67.2564 142.947 67.4098 143.04 67.5298 143.187C67.6498 143.32 67.7231 143.487 67.7498 143.687C67.7764 143.873 67.7498 144.06 67.6698 144.247C67.6031 144.433 67.4698 144.587 67.2698 144.707C66.8298 144.973 66.3631 145.167 65.8698 145.287C65.3764 145.407 64.9098 145.467 64.4698 145.467Z" fill="#D97A1A"/>
<path d="M111.418 128.467C110.711 128.467 110.078 128.333 109.518 128.067C108.971 127.787 108.538 127.413 108.218 126.947C107.911 126.48 107.758 125.953 107.758 125.367C107.758 124.647 107.944 124.08 108.318 123.667C108.691 123.24 109.298 122.933 110.138 122.747C110.978 122.56 112.104 122.467 113.518 122.467H114.518V123.907H113.538C112.711 123.907 112.051 123.947 111.558 124.027C111.064 124.107 110.711 124.247 110.498 124.447C110.298 124.633 110.198 124.9 110.198 125.247C110.198 125.687 110.351 126.047 110.658 126.327C110.964 126.607 111.391 126.747 111.938 126.747C112.378 126.747 112.764 126.647 113.098 126.447C113.444 126.233 113.718 125.947 113.918 125.587C114.118 125.227 114.218 124.813 114.218 124.347V122.047C114.218 121.38 114.071 120.9 113.778 120.607C113.484 120.313 112.991 120.167 112.298 120.167C111.911 120.167 111.491 120.213 111.038 120.307C110.598 120.4 110.131 120.56 109.638 120.787C109.384 120.907 109.158 120.94 108.958 120.887C108.771 120.833 108.624 120.727 108.518 120.567C108.411 120.393 108.358 120.207 108.358 120.007C108.358 119.807 108.411 119.613 108.518 119.427C108.624 119.227 108.804 119.08 109.058 118.987C109.671 118.733 110.258 118.553 110.818 118.447C111.391 118.34 111.911 118.287 112.378 118.287C113.338 118.287 114.124 118.433 114.738 118.727C115.364 119.02 115.831 119.467 116.138 120.067C116.444 120.653 116.598 121.413 116.598 122.347V127.147C116.598 127.56 116.498 127.88 116.298 128.107C116.098 128.32 115.811 128.427 115.438 128.427C115.064 128.427 114.771 128.32 114.558 128.107C114.358 127.88 114.258 127.56 114.258 127.147V126.187H114.418C114.324 126.653 114.138 127.06 113.858 127.407C113.591 127.74 113.251 128 112.838 128.187C112.424 128.373 111.951 128.467 111.418 128.467Z" fill="#D97A1A"/>
<path d="M63.3105 221.467C62.4838 221.467 61.7571 221.26 61.1305 220.847C60.5171 220.433 60.1105 219.88 59.9105 219.187L60.1305 218.687V220.147C60.1305 220.56 60.0238 220.88 59.8105 221.107C59.5971 221.32 59.2971 221.427 58.9105 221.427C58.5105 221.427 58.2038 221.32 57.9905 221.107C57.7771 220.88 57.6705 220.56 57.6705 220.147V208.267C57.6705 207.853 57.7771 207.54 57.9905 207.327C58.2038 207.113 58.5105 207.007 58.9105 207.007C59.3105 207.007 59.6171 207.113 59.8305 207.327C60.0571 207.54 60.1705 207.853 60.1705 208.267V213.467H59.9305C60.1438 212.813 60.5571 212.287 61.1705 211.887C61.7838 211.487 62.4971 211.287 63.3105 211.287C64.1771 211.287 64.9305 211.493 65.5705 211.907C66.2105 212.32 66.7105 212.907 67.0705 213.667C67.4305 214.413 67.6105 215.313 67.6105 216.367C67.6105 217.407 67.4305 218.313 67.0705 219.087C66.7105 219.847 66.2038 220.433 65.5505 220.847C64.9105 221.26 64.1638 221.467 63.3105 221.467ZM62.6105 219.567C63.1038 219.567 63.5371 219.447 63.9105 219.207C64.2838 218.967 64.5705 218.613 64.7705 218.147C64.9838 217.667 65.0905 217.073 65.0905 216.367C65.0905 215.3 64.8638 214.507 64.4105 213.987C63.9571 213.453 63.3571 213.187 62.6105 213.187C62.1171 213.187 61.6838 213.307 61.3105 213.547C60.9371 213.773 60.6438 214.127 60.4305 214.607C60.2305 215.073 60.1305 215.66 60.1305 216.367C60.1305 217.42 60.3571 218.22 60.8105 218.767C61.2638 219.3 61.8638 219.567 62.6105 219.567Z" fill="#D97A1A"/>
</svg>
