<svg width="41" height="41" viewBox="0 0 41 41" fill="none" xmlns="http://www.w3.org/2000/svg">
<circle cx="20.1667" cy="20.1667" r="20.1667" fill="#F6F6F6"/>
<path fill-rule="evenodd" clip-rule="evenodd" d="M27.4305 12.9128L23.5965 16.7467H33.2066V7.13672L29.2612 11.0821C27.1819 9.02063 24.4664 7.72201 21.5553 7.39797C18.6255 7.07186 15.672 7.75226 13.1802 9.32733C10.6884 10.9024 8.80667 13.2784 7.84431 16.0647C6.88194 18.8511 6.89623 21.8819 7.88482 24.6591C8.8734 27.4362 10.7775 29.7943 13.284 31.3459C15.7905 32.8974 18.7503 33.5499 21.6769 33.1962C24.6034 32.8425 27.3225 31.5036 29.3872 29.3996C31.4519 27.2956 32.7393 24.5517 33.0378 21.619L30.4621 21.3568C30.2232 23.7049 29.1924 25.9017 27.5394 27.5862C25.8863 29.2707 23.7093 30.3427 21.3662 30.6259C19.0231 30.9091 16.6534 30.3867 14.6466 29.1445C12.6398 27.9023 11.1154 26.0143 10.3239 23.7908C9.53238 21.5674 9.52095 19.1408 10.2914 16.9099C11.0619 14.6791 12.5685 12.7768 14.5635 11.5158C16.5585 10.2547 18.9232 9.70997 21.2688 9.97106C23.5959 10.2301 25.7668 11.2669 27.4305 12.9128Z" fill="#1A1A1A"/>
</svg>
