<svg width="98" height="28" viewBox="0 0 98 28" fill="none" xmlns="http://www.w3.org/2000/svg">
<path d="M21.9219 5V10H16.9219" stroke="black" stroke-width="2" stroke-linecap="round" stroke-linejoin="round"/>
<path d="M21.8719 14.9996C21.6504 17.0054 20.7612 18.8786 19.3471 20.3183C17.933 21.758 16.0761 22.6807 14.0746 22.9382C12.0731 23.1956 10.0431 22.773 8.31067 21.7381C6.57824 20.7031 5.2439 19.116 4.52193 17.2316C3.79997 15.3471 3.73228 13.2747 4.32974 11.3472C4.92719 9.41963 6.15512 7.74881 7.81632 6.60304C9.47752 5.45728 11.4756 4.90305 13.4896 5.02938C15.5037 5.1557 17.4169 5.95525 18.9219 7.29961L21.9219 9.99961" stroke="black" stroke-width="2" stroke-linecap="round" stroke-linejoin="round"/>
<path d="M40.4018 21.14C40.1351 21.14 39.9285 21.0667 39.7818 20.92C39.6485 20.76 39.5818 20.5467 39.5818 20.28V7.74C39.5818 7.46 39.6551 7.25333 39.8018 7.12C39.9485 6.97333 40.1551 6.9 40.4218 6.9H45.1618C46.6685 6.9 47.8285 7.25333 48.6418 7.96C49.4551 8.66667 49.8618 9.67333 49.8618 10.98C49.8618 11.8067 49.6751 12.5267 49.3018 13.14C48.9418 13.74 48.4085 14.2 47.7018 14.52C46.9951 14.8267 46.1485 14.98 45.1618 14.98L45.3618 14.72H45.7618C46.2818 14.72 46.7351 14.8533 47.1218 15.12C47.5085 15.3867 47.8618 15.8133 48.1818 16.4L50.1018 19.98C50.2085 20.1667 50.2551 20.3533 50.2418 20.54C50.2418 20.7133 50.1818 20.86 50.0618 20.98C49.9418 21.0867 49.7685 21.14 49.5418 21.14C49.3151 21.14 49.1285 21.0867 48.9818 20.98C48.8351 20.8733 48.7085 20.72 48.6018 20.52L46.4218 16.48C46.1151 15.9067 45.7618 15.5267 45.3618 15.34C44.9618 15.14 44.4351 15.04 43.7818 15.04H41.2218V20.28C41.2218 20.5467 41.1551 20.76 41.0218 20.92C40.8885 21.0667 40.6818 21.14 40.4018 21.14ZM41.2218 13.74H44.9218C46.0151 13.74 46.8418 13.5133 47.4018 13.06C47.9618 12.5933 48.2418 11.9 48.2418 10.98C48.2418 10.0867 47.9618 9.41333 47.4018 8.96C46.8418 8.49333 46.0151 8.26 44.9218 8.26H41.2218V13.74ZM56.5659 21.18C55.6192 21.18 54.7992 20.9733 54.1059 20.56C53.4125 20.1467 52.8725 19.5667 52.4859 18.82C52.1125 18.06 51.9259 17.1667 51.9259 16.14C51.9259 15.3667 52.0325 14.6733 52.2459 14.06C52.4592 13.4333 52.7725 12.9 53.1859 12.46C53.5992 12.02 54.0859 11.6867 54.6459 11.46C55.2192 11.22 55.8592 11.1 56.5659 11.1C57.5125 11.1 58.3325 11.3067 59.0259 11.72C59.7192 12.1333 60.2525 12.72 60.6259 13.48C61.0125 14.2267 61.2059 15.1133 61.2059 16.14C61.2059 16.9133 61.0992 17.6067 60.8859 18.22C60.6725 18.8333 60.3592 19.3667 59.9459 19.82C59.5325 20.26 59.0392 20.6 58.4659 20.84C57.9059 21.0667 57.2725 21.18 56.5659 21.18ZM56.5659 19.88C57.1659 19.88 57.6925 19.7333 58.1459 19.44C58.5992 19.1467 58.9459 18.72 59.1859 18.16C59.4392 17.6 59.5659 16.9267 59.5659 16.14C59.5659 14.9267 59.2925 14 58.7459 13.36C58.2125 12.72 57.4859 12.4 56.5659 12.4C55.9525 12.4 55.4192 12.5467 54.9659 12.84C54.5259 13.12 54.1792 13.54 53.9259 14.1C53.6859 14.6467 53.5659 15.3267 53.5659 16.14C53.5659 17.34 53.8392 18.2667 54.3859 18.92C54.9325 19.56 55.6592 19.88 56.5659 19.88ZM67.4415 21.18C66.6815 21.18 66.0415 21.0467 65.5215 20.78C65.0148 20.5 64.6348 20.1 64.3815 19.58C64.1282 19.0467 64.0015 18.4 64.0015 17.64V12.54H62.6615C62.4348 12.54 62.2615 12.4867 62.1415 12.38C62.0215 12.26 61.9615 12.1 61.9615 11.9C61.9615 11.7 62.0215 11.5467 62.1415 11.44C62.2615 11.3333 62.4348 11.28 62.6615 11.28H64.0015V8.98C64.0015 8.71333 64.0748 8.51333 64.2215 8.38C64.3682 8.23333 64.5682 8.16 64.8215 8.16C65.0748 8.16 65.2682 8.23333 65.4015 8.38C65.5482 8.51333 65.6215 8.71333 65.6215 8.98V11.28H68.1415C68.3682 11.28 68.5415 11.3333 68.6615 11.44C68.7815 11.5467 68.8415 11.7 68.8415 11.9C68.8415 12.1 68.7815 12.26 68.6615 12.38C68.5415 12.4867 68.3682 12.54 68.1415 12.54H65.6215V17.48C65.6215 18.24 65.7815 18.82 66.1015 19.22C66.4215 19.6067 66.9415 19.8 67.6615 19.8C67.9148 19.8 68.1282 19.7733 68.3015 19.72C68.4882 19.6667 68.6415 19.64 68.7615 19.64C68.8815 19.6267 68.9815 19.6667 69.0615 19.76C69.1415 19.8533 69.1815 20.0133 69.1815 20.24C69.1815 20.4 69.1482 20.5467 69.0815 20.68C69.0282 20.8133 68.9282 20.9067 68.7815 20.96C68.6215 21.0133 68.4082 21.06 68.1415 21.1C67.8882 21.1533 67.6548 21.18 67.4415 21.18ZM73.5937 21.18C72.927 21.18 72.327 21.0533 71.7937 20.8C71.2737 20.5333 70.8603 20.1733 70.5537 19.72C70.247 19.2667 70.0937 18.76 70.0937 18.2C70.0937 17.48 70.2737 16.9133 70.6337 16.5C71.007 16.0867 71.6137 15.7933 72.4537 15.62C73.307 15.4467 74.467 15.36 75.9337 15.36H76.8337V16.42H75.9537C74.8737 16.42 74.0203 16.4733 73.3937 16.58C72.7803 16.6733 72.347 16.84 72.0937 17.08C71.8537 17.32 71.7337 17.66 71.7337 18.1C71.7337 18.6467 71.9203 19.0933 72.2937 19.44C72.6803 19.7867 73.2003 19.96 73.8537 19.96C74.387 19.96 74.8537 19.8333 75.2537 19.58C75.667 19.3267 75.987 18.98 76.2137 18.54C76.4537 18.1 76.5737 17.5933 76.5737 17.02V14.74C76.5737 13.9133 76.407 13.32 76.0737 12.96C75.7403 12.5867 75.1937 12.4 74.4337 12.4C73.967 12.4 73.5003 12.46 73.0337 12.58C72.567 12.7 72.0737 12.8933 71.5537 13.16C71.367 13.2533 71.207 13.2867 71.0737 13.26C70.9403 13.22 70.8337 13.1467 70.7537 13.04C70.6737 12.9333 70.627 12.8133 70.6137 12.68C70.6003 12.5333 70.627 12.3933 70.6937 12.26C70.7737 12.1267 70.8937 12.02 71.0537 11.94C71.6403 11.6467 72.2203 11.4333 72.7937 11.3C73.367 11.1667 73.9137 11.1 74.4337 11.1C75.2737 11.1 75.967 11.24 76.5137 11.52C77.0603 11.7867 77.467 12.2 77.7337 12.76C78.0003 13.3067 78.1337 14.0133 78.1337 14.88V20.3C78.1337 20.5667 78.067 20.7733 77.9337 20.92C77.8137 21.0667 77.6337 21.14 77.3937 21.14C77.1403 21.14 76.947 21.0667 76.8137 20.92C76.6803 20.7733 76.6137 20.5667 76.6137 20.3V18.74H76.7937C76.687 19.2467 76.4803 19.68 76.1737 20.04C75.8803 20.4 75.5137 20.68 75.0737 20.88C74.6337 21.08 74.1403 21.18 73.5937 21.18ZM85.0391 21.18C84.2791 21.18 83.6391 21.0467 83.1191 20.78C82.6125 20.5 82.2325 20.1 81.9791 19.58C81.7258 19.0467 81.5991 18.4 81.5991 17.64V12.54H80.2591C80.0325 12.54 79.8591 12.4867 79.7391 12.38C79.6191 12.26 79.5591 12.1 79.5591 11.9C79.5591 11.7 79.6191 11.5467 79.7391 11.44C79.8591 11.3333 80.0325 11.28 80.2591 11.28H81.5991V8.98C81.5991 8.71333 81.6725 8.51333 81.8191 8.38C81.9658 8.23333 82.1658 8.16 82.4191 8.16C82.6725 8.16 82.8658 8.23333 82.9991 8.38C83.1458 8.51333 83.2191 8.71333 83.2191 8.98V11.28H85.7391C85.9658 11.28 86.1391 11.3333 86.2591 11.44C86.3791 11.5467 86.4391 11.7 86.4391 11.9C86.4391 12.1 86.3791 12.26 86.2591 12.38C86.1391 12.4867 85.9658 12.54 85.7391 12.54H83.2191V17.48C83.2191 18.24 83.3791 18.82 83.6991 19.22C84.0191 19.6067 84.5391 19.8 85.2591 19.8C85.5125 19.8 85.7258 19.7733 85.8991 19.72C86.0858 19.6667 86.2391 19.64 86.3591 19.64C86.4791 19.6267 86.5791 19.6667 86.6591 19.76C86.7391 19.8533 86.7791 20.0133 86.7791 20.24C86.7791 20.4 86.7458 20.5467 86.6791 20.68C86.6258 20.8133 86.5258 20.9067 86.3791 20.96C86.2191 21.0133 86.0058 21.06 85.7391 21.1C85.4858 21.1533 85.2525 21.18 85.0391 21.18ZM92.4137 21.18C91.387 21.18 90.5003 20.98 89.7537 20.58C89.0203 20.1667 88.447 19.5867 88.0337 18.84C87.6337 18.0933 87.4337 17.2 87.4337 16.16C87.4337 15.1467 87.6337 14.2667 88.0337 13.52C88.4337 12.76 88.9803 12.1667 89.6737 11.74C90.3803 11.3133 91.1937 11.1 92.1137 11.1C92.767 11.1 93.3537 11.2133 93.8737 11.44C94.3937 11.6533 94.8337 11.9667 95.1937 12.38C95.567 12.7933 95.847 13.2933 96.0337 13.88C96.2337 14.4667 96.3337 15.1267 96.3337 15.86C96.3337 16.0733 96.2737 16.2333 96.1537 16.34C96.0337 16.4333 95.8603 16.48 95.6337 16.48H88.6737V15.42H95.2537L94.9337 15.68C94.9337 14.96 94.827 14.3533 94.6137 13.86C94.4003 13.3533 94.087 12.9667 93.6737 12.7C93.2737 12.4333 92.767 12.3 92.1537 12.3C91.4737 12.3 90.8937 12.46 90.4137 12.78C89.947 13.0867 89.5937 13.52 89.3537 14.08C89.1137 14.6267 88.9937 15.2667 88.9937 16V16.12C88.9937 17.3467 89.287 18.28 89.8737 18.92C90.4737 19.56 91.3203 19.88 92.4137 19.88C92.867 19.88 93.3137 19.82 93.7537 19.7C94.207 19.58 94.647 19.38 95.0737 19.1C95.2603 18.98 95.427 18.9267 95.5737 18.94C95.7337 18.94 95.8603 18.9867 95.9537 19.08C96.047 19.16 96.107 19.2667 96.1337 19.4C96.1737 19.52 96.1603 19.6533 96.0937 19.8C96.0403 19.9467 95.927 20.0733 95.7537 20.18C95.3137 20.5 94.7937 20.7467 94.1937 20.92C93.5937 21.0933 93.0003 21.18 92.4137 21.18Z" fill="#212121"/>
</svg>
