<svg width="85" height="28" viewBox="0 0 85 28" fill="none" xmlns="http://www.w3.org/2000/svg">
<path d="M10.8333 4.66667L13.5 2M13.5 2L16.1667 4.66667M13.5 2V26M13.5 26L10.8333 23.3333M13.5 26L16.1667 23.3333M4.16667 16.6667L1.5 14M1.5 14L4.16667 11.3333M1.5 14H25.5M25.5 14L22.8333 16.6667M25.5 14L22.8333 11.3333" stroke="black" stroke-width="1.5" stroke-linecap="round" stroke-linejoin="round"/>
<path d="M45.2121 21.18C44.5854 21.18 43.9721 21.1267 43.3721 21.02C42.7721 20.9133 42.2121 20.76 41.6921 20.56C41.1854 20.36 40.7254 20.1067 40.3121 19.8C40.1521 19.68 40.0388 19.5467 39.9721 19.4C39.9188 19.24 39.9054 19.0867 39.9321 18.94C39.9721 18.78 40.0388 18.6467 40.1321 18.54C40.2388 18.4333 40.3654 18.3733 40.5121 18.36C40.6588 18.3467 40.8188 18.3933 40.9921 18.5C41.5921 18.9267 42.2321 19.24 42.9121 19.44C43.5921 19.6267 44.3588 19.72 45.2121 19.72C46.4121 19.72 47.2988 19.5 47.8721 19.06C48.4588 18.6067 48.7521 18.0133 48.7521 17.28C48.7521 16.68 48.5388 16.2133 48.1121 15.88C47.6988 15.5333 46.9988 15.26 46.0121 15.06L43.9321 14.64C42.6788 14.3733 41.7388 13.94 41.1121 13.34C40.4988 12.7267 40.1921 11.9133 40.1921 10.9C40.1921 10.2733 40.3188 9.70667 40.5721 9.2C40.8254 8.68 41.1788 8.24 41.6321 7.88C42.0854 7.50667 42.6254 7.22 43.2521 7.02C43.8788 6.82 44.5721 6.72 45.3321 6.72C46.1721 6.72 46.9521 6.84 47.6721 7.08C48.4054 7.30667 49.0654 7.65333 49.6521 8.12C49.7988 8.24 49.8988 8.38 49.9521 8.54C50.0054 8.68667 50.0121 8.83333 49.9721 8.98C49.9321 9.11333 49.8588 9.22667 49.7521 9.32C49.6588 9.41333 49.5321 9.46667 49.3721 9.48C49.2254 9.49333 49.0588 9.44 48.8721 9.32C48.3388 8.92 47.7854 8.63333 47.2121 8.46C46.6388 8.27333 46.0054 8.18 45.3121 8.18C44.6054 8.18 43.9921 8.28667 43.4721 8.5C42.9654 8.71333 42.5654 9.02667 42.2721 9.44C41.9921 9.84 41.8521 10.3067 41.8521 10.84C41.8521 11.48 42.0454 11.9867 42.4321 12.36C42.8321 12.7333 43.4788 13.0067 44.3721 13.18L46.4521 13.62C47.7988 13.9 48.7921 14.3267 49.4321 14.9C50.0854 15.46 50.4121 16.2267 50.4121 17.2C50.4121 17.7867 50.2921 18.3267 50.0521 18.82C49.8121 19.3133 49.4654 19.74 49.0121 20.1C48.5588 20.4467 48.0121 20.7133 47.3721 20.9C46.7321 21.0867 46.0121 21.18 45.2121 21.18ZM55.6968 21.18C54.7368 21.18 54.0035 20.8867 53.4968 20.3C52.9901 19.7133 52.7368 18.8733 52.7368 17.78V7.58C52.7368 7.31333 52.8035 7.11333 52.9368 6.98C53.0701 6.83333 53.2701 6.76 53.5368 6.76C53.7901 6.76 53.9901 6.83333 54.1368 6.98C54.2835 7.11333 54.3568 7.31333 54.3568 7.58V17.66C54.3568 18.38 54.4968 18.92 54.7768 19.28C55.0701 19.6267 55.4968 19.8 56.0568 19.8C56.1768 19.8 56.2835 19.7933 56.3768 19.78C56.4701 19.7667 56.5635 19.76 56.6568 19.76C56.8035 19.7467 56.9035 19.78 56.9568 19.86C57.0235 19.94 57.0568 20.1 57.0568 20.34C57.0568 20.58 57.0035 20.76 56.8968 20.88C56.7901 21 56.6168 21.08 56.3768 21.12C56.2701 21.1333 56.1568 21.1467 56.0368 21.16C55.9168 21.1733 55.8035 21.18 55.6968 21.18ZM59.4548 21.1C59.1881 21.1 58.9881 21.0267 58.8548 20.88C58.7214 20.72 58.6548 20.5 58.6548 20.22V12.04C58.6548 11.76 58.7214 11.5467 58.8548 11.4C58.9881 11.2533 59.1881 11.18 59.4548 11.18C59.7081 11.18 59.9081 11.2533 60.0548 11.4C60.2014 11.5467 60.2748 11.76 60.2748 12.04V20.22C60.2748 20.5 60.2014 20.72 60.0548 20.88C59.9214 21.0267 59.7214 21.1 59.4548 21.1ZM59.4548 8.94C59.1214 8.94 58.8614 8.85333 58.6748 8.68C58.4881 8.49333 58.3948 8.24667 58.3948 7.94C58.3948 7.62 58.4881 7.38 58.6748 7.22C58.8614 7.04667 59.1214 6.96 59.4548 6.96C59.8014 6.96 60.0614 7.04667 60.2348 7.22C60.4214 7.38 60.5148 7.62 60.5148 7.94C60.5148 8.24667 60.4214 8.49333 60.2348 8.68C60.0614 8.85333 59.8014 8.94 59.4548 8.94ZM67.0032 21.18C66.1365 21.18 65.3765 20.9733 64.7232 20.56C64.0832 20.1467 63.5832 19.5667 63.2232 18.82C62.8765 18.06 62.7032 17.1667 62.7032 16.14C62.7032 15.1 62.8765 14.2067 63.2232 13.46C63.5832 12.7 64.0832 12.12 64.7232 11.72C65.3765 11.3067 66.1365 11.1 67.0032 11.1C67.8832 11.1 68.6365 11.32 69.2632 11.76C69.8899 12.2 70.3099 12.7933 70.5232 13.54H70.3032V7.58C70.3032 7.31333 70.3699 7.11333 70.5032 6.98C70.6499 6.83333 70.8565 6.76 71.1232 6.76C71.3765 6.76 71.5699 6.83333 71.7032 6.98C71.8499 7.11333 71.9232 7.31333 71.9232 7.58V20.3C71.9232 20.5667 71.8565 20.7733 71.7232 20.92C71.5899 21.0667 71.3899 21.14 71.1232 21.14C70.8699 21.14 70.6699 21.0667 70.5232 20.92C70.3899 20.7733 70.3232 20.5667 70.3232 20.3V18.4L70.5432 18.68C70.3299 19.44 69.9032 20.0467 69.2632 20.5C68.6365 20.9533 67.8832 21.18 67.0032 21.18ZM67.3432 19.88C67.9432 19.88 68.4699 19.7333 68.9232 19.44C69.3765 19.1467 69.7232 18.72 69.9632 18.16C70.2165 17.6 70.3432 16.9267 70.3432 16.14C70.3432 14.9267 70.0699 14 69.5232 13.36C68.9899 12.72 68.2632 12.4 67.3432 12.4C66.7299 12.4 66.1965 12.5467 65.7432 12.84C65.3032 13.12 64.9565 13.54 64.7032 14.1C64.4632 14.6467 64.3432 15.3267 64.3432 16.14C64.3432 17.34 64.6165 18.2667 65.1632 18.92C65.7099 19.56 66.4365 19.88 67.3432 19.88ZM79.3434 21.18C78.3167 21.18 77.43 20.98 76.6834 20.58C75.95 20.1667 75.3767 19.5867 74.9634 18.84C74.5634 18.0933 74.3634 17.2 74.3634 16.16C74.3634 15.1467 74.5634 14.2667 74.9634 13.52C75.3634 12.76 75.91 12.1667 76.6034 11.74C77.31 11.3133 78.1234 11.1 79.0434 11.1C79.6967 11.1 80.2834 11.2133 80.8034 11.44C81.3234 11.6533 81.7634 11.9667 82.1234 12.38C82.4967 12.7933 82.7767 13.2933 82.9634 13.88C83.1634 14.4667 83.2634 15.1267 83.2634 15.86C83.2634 16.0733 83.2034 16.2333 83.0834 16.34C82.9634 16.4333 82.79 16.48 82.5634 16.48H75.6034V15.42H82.1834L81.8634 15.68C81.8634 14.96 81.7567 14.3533 81.5434 13.86C81.33 13.3533 81.0167 12.9667 80.6034 12.7C80.2034 12.4333 79.6967 12.3 79.0834 12.3C78.4034 12.3 77.8234 12.46 77.3434 12.78C76.8767 13.0867 76.5234 13.52 76.2834 14.08C76.0434 14.6267 75.9234 15.2667 75.9234 16V16.12C75.9234 17.3467 76.2167 18.28 76.8034 18.92C77.4034 19.56 78.25 19.88 79.3434 19.88C79.7967 19.88 80.2434 19.82 80.6834 19.7C81.1367 19.58 81.5767 19.38 82.0034 19.1C82.19 18.98 82.3567 18.9267 82.5034 18.94C82.6634 18.94 82.79 18.9867 82.8834 19.08C82.9767 19.16 83.0367 19.2667 83.0634 19.4C83.1034 19.52 83.09 19.6533 83.0234 19.8C82.97 19.9467 82.8567 20.0733 82.6834 20.18C82.2434 20.5 81.7234 20.7467 81.1234 20.92C80.5234 21.0933 79.93 21.18 79.3434 21.18Z" fill="#212121"/>
</svg>
