<svg width="389" height="126" viewBox="0 0 389 126" fill="none" xmlns="http://www.w3.org/2000/svg">
<path d="M6.67308 119.58C6.31308 119.58 6.01975 119.493 5.79308 119.32C5.57975 119.147 5.40641 118.873 5.27308 118.5L1.09308 106.68C0.946408 106.253 0.973078 105.893 1.17308 105.6C1.38641 105.307 1.73974 105.16 2.23308 105.16C2.59308 105.16 2.87308 105.247 3.07308 105.42C3.27308 105.58 3.43308 105.84 3.55308 106.2L7.15308 116.88H6.35308L10.1131 106.22C10.2464 105.86 10.4131 105.593 10.6131 105.42C10.8131 105.247 11.0731 105.16 11.3931 105.16C11.7131 105.16 11.9664 105.247 12.1531 105.42C12.3397 105.593 12.4997 105.867 12.6331 106.24L16.2731 116.88H15.5731L19.2331 106.2C19.3531 105.853 19.5131 105.593 19.7131 105.42C19.9131 105.247 20.1864 105.16 20.5331 105.16C20.9597 105.16 21.2731 105.307 21.4731 105.6C21.6731 105.893 21.6997 106.253 21.5531 106.68L17.3331 118.52C17.1997 118.88 17.0264 119.147 16.8131 119.32C16.5997 119.493 16.3131 119.58 15.9531 119.58C15.5931 119.58 15.3064 119.493 15.0931 119.32C14.8797 119.147 14.7064 118.873 14.5731 118.5L11.0931 108.58H11.5531L8.03308 118.52C7.89975 118.88 7.72641 119.147 7.51308 119.32C7.31308 119.493 7.03308 119.58 6.67308 119.58ZM27.3087 119.62C26.202 119.62 25.2487 119.413 24.4487 119C23.6487 118.587 23.0287 118 22.5887 117.24C22.162 116.48 21.9487 115.58 21.9487 114.54C21.9487 113.527 22.1554 112.64 22.5687 111.88C22.9954 111.12 23.5754 110.527 24.3087 110.1C25.0554 109.66 25.902 109.44 26.8487 109.44C27.542 109.44 28.162 109.553 28.7087 109.78C29.2687 110.007 29.742 110.333 30.1287 110.76C30.5287 111.187 30.8287 111.707 31.0287 112.32C31.242 112.92 31.3487 113.6 31.3487 114.36C31.3487 114.6 31.262 114.787 31.0887 114.92C30.9287 115.04 30.6954 115.1 30.3887 115.1H23.9687V113.66H29.5887L29.2687 113.96C29.2687 113.347 29.1754 112.833 28.9887 112.42C28.8154 112.007 28.5554 111.693 28.2087 111.48C27.8754 111.253 27.4554 111.14 26.9487 111.14C26.3887 111.14 25.9087 111.273 25.5087 111.54C25.122 111.793 24.822 112.16 24.6087 112.64C24.4087 113.107 24.3087 113.667 24.3087 114.32V114.46C24.3087 115.553 24.562 116.373 25.0687 116.92C25.5887 117.453 26.3487 117.72 27.3487 117.72C27.6954 117.72 28.082 117.68 28.5087 117.6C28.9487 117.507 29.362 117.353 29.7487 117.14C30.0287 116.98 30.2754 116.913 30.4887 116.94C30.702 116.953 30.8687 117.027 30.9887 117.16C31.122 117.293 31.202 117.46 31.2287 117.66C31.2554 117.847 31.2154 118.04 31.1087 118.24C31.0154 118.44 30.8487 118.613 30.6087 118.76C30.142 119.053 29.602 119.273 28.9887 119.42C28.3887 119.553 27.8287 119.62 27.3087 119.62ZM43.2782 119.62C42.2516 119.62 41.3582 119.413 40.5982 119C39.8382 118.573 39.2516 117.973 38.8382 117.2C38.4249 116.427 38.2182 115.52 38.2182 114.48C38.2182 113.693 38.3316 112.993 38.5582 112.38C38.7982 111.753 39.1382 111.227 39.5782 110.8C40.0182 110.36 40.5516 110.027 41.1782 109.8C41.8049 109.56 42.5049 109.44 43.2782 109.44C43.7182 109.44 44.1916 109.5 44.6982 109.62C45.2182 109.74 45.7049 109.94 46.1582 110.22C46.3716 110.353 46.5116 110.513 46.5782 110.7C46.6449 110.887 46.6582 111.08 46.6182 111.28C46.5782 111.467 46.4916 111.633 46.3582 111.78C46.2382 111.913 46.0849 112 45.8982 112.04C45.7116 112.067 45.5049 112.02 45.2782 111.9C44.9849 111.727 44.6849 111.6 44.3782 111.52C44.0716 111.427 43.7782 111.38 43.4982 111.38C43.0582 111.38 42.6716 111.453 42.3382 111.6C42.0049 111.733 41.7182 111.933 41.4782 112.2C41.2516 112.453 41.0782 112.773 40.9582 113.16C40.8382 113.547 40.7782 113.993 40.7782 114.5C40.7782 115.487 41.0116 116.267 41.4782 116.84C41.9582 117.4 42.6316 117.68 43.4982 117.68C43.7782 117.68 44.0649 117.64 44.3582 117.56C44.6649 117.48 44.9716 117.353 45.2782 117.18C45.5049 117.06 45.7049 117.02 45.8782 117.06C46.0649 117.1 46.2182 117.193 46.3382 117.34C46.4582 117.473 46.5316 117.64 46.5582 117.84C46.5849 118.027 46.5582 118.213 46.4782 118.4C46.4116 118.587 46.2782 118.74 46.0782 118.86C45.6382 119.127 45.1716 119.32 44.6782 119.44C44.1849 119.56 43.7182 119.62 43.2782 119.62ZM51.3532 119.62C50.6466 119.62 50.0132 119.487 49.4532 119.22C48.9066 118.94 48.4732 118.567 48.1532 118.1C47.8466 117.633 47.6932 117.107 47.6932 116.52C47.6932 115.8 47.8799 115.233 48.2532 114.82C48.6266 114.393 49.2332 114.087 50.0732 113.9C50.9132 113.713 52.0399 113.62 53.4532 113.62H54.4532V115.06H53.4732C52.6466 115.06 51.9866 115.1 51.4932 115.18C50.9999 115.26 50.6466 115.4 50.4332 115.6C50.2332 115.787 50.1332 116.053 50.1332 116.4C50.1332 116.84 50.2866 117.2 50.5932 117.48C50.8999 117.76 51.3266 117.9 51.8732 117.9C52.3132 117.9 52.6999 117.8 53.0332 117.6C53.3799 117.387 53.6532 117.1 53.8532 116.74C54.0532 116.38 54.1532 115.967 54.1532 115.5V113.2C54.1532 112.533 54.0066 112.053 53.7132 111.76C53.4199 111.467 52.9266 111.32 52.2332 111.32C51.8466 111.32 51.4266 111.367 50.9732 111.46C50.5332 111.553 50.0666 111.713 49.5732 111.94C49.3199 112.06 49.0932 112.093 48.8932 112.04C48.7066 111.987 48.5599 111.88 48.4532 111.72C48.3466 111.547 48.2932 111.36 48.2932 111.16C48.2932 110.96 48.3466 110.767 48.4532 110.58C48.5599 110.38 48.7399 110.233 48.9932 110.14C49.6066 109.887 50.1932 109.707 50.7532 109.6C51.3266 109.493 51.8466 109.44 52.3132 109.44C53.2732 109.44 54.0599 109.587 54.6732 109.88C55.2999 110.173 55.7666 110.62 56.0732 111.22C56.3799 111.807 56.5332 112.567 56.5332 113.5V118.3C56.5332 118.713 56.4332 119.033 56.2332 119.26C56.0332 119.473 55.7466 119.58 55.3732 119.58C54.9999 119.58 54.7066 119.473 54.4932 119.26C54.2932 119.033 54.1932 118.713 54.1932 118.3V117.34H54.3532C54.2599 117.807 54.0732 118.213 53.7932 118.56C53.5266 118.893 53.1866 119.153 52.7732 119.34C52.3599 119.527 51.8866 119.62 51.3532 119.62ZM60.3107 119.58C59.9107 119.58 59.6041 119.473 59.3907 119.26C59.1774 119.033 59.0707 118.713 59.0707 118.3V110.74C59.0707 110.327 59.1774 110.013 59.3907 109.8C59.6041 109.587 59.9041 109.48 60.2907 109.48C60.6774 109.48 60.9774 109.587 61.1907 109.8C61.4041 110.013 61.5107 110.327 61.5107 110.74V112.1L61.2907 111.6C61.5841 110.893 62.0374 110.36 62.6507 110C63.2774 109.627 63.9841 109.44 64.7707 109.44C65.5574 109.44 66.2041 109.587 66.7107 109.88C67.2174 110.173 67.5974 110.62 67.8507 111.22C68.1041 111.807 68.2307 112.553 68.2307 113.46V118.3C68.2307 118.713 68.1241 119.033 67.9107 119.26C67.6974 119.473 67.3907 119.58 66.9907 119.58C66.5907 119.58 66.2774 119.473 66.0507 119.26C65.8374 119.033 65.7307 118.713 65.7307 118.3V113.58C65.7307 112.82 65.5841 112.267 65.2907 111.92C65.0107 111.573 64.5707 111.4 63.9707 111.4C63.2374 111.4 62.6507 111.633 62.2107 112.1C61.7841 112.553 61.5707 113.16 61.5707 113.92V118.3C61.5707 119.153 61.1507 119.58 60.3107 119.58ZM79.7796 119.62C79.2063 119.62 78.5996 119.56 77.9596 119.44C77.3196 119.32 76.7463 119.113 76.2396 118.82C76.0263 118.687 75.873 118.533 75.7796 118.36C75.6996 118.173 75.6663 117.993 75.6796 117.82C75.7063 117.633 75.773 117.473 75.8796 117.34C75.9996 117.207 76.1463 117.12 76.3196 117.08C76.5063 117.04 76.7063 117.073 76.9196 117.18C77.453 117.433 77.953 117.613 78.4196 117.72C78.8863 117.813 79.3463 117.86 79.7996 117.86C80.4396 117.86 80.913 117.753 81.2196 117.54C81.5396 117.313 81.6996 117.02 81.6996 116.66C81.6996 116.353 81.593 116.12 81.3796 115.96C81.1796 115.787 80.873 115.66 80.4596 115.58L78.4596 115.2C77.633 115.04 76.9996 114.74 76.5596 114.3C76.133 113.847 75.9196 113.267 75.9196 112.56C75.9196 111.92 76.093 111.367 76.4396 110.9C76.7996 110.433 77.293 110.073 77.9196 109.82C78.5463 109.567 79.2663 109.44 80.0796 109.44C80.6663 109.44 81.213 109.507 81.7196 109.64C82.2396 109.76 82.7396 109.953 83.2196 110.22C83.4196 110.327 83.553 110.467 83.6196 110.64C83.6996 110.813 83.7196 110.993 83.6796 111.18C83.6396 111.353 83.5596 111.513 83.4396 111.66C83.3196 111.793 83.1663 111.88 82.9796 111.92C82.8063 111.947 82.6063 111.907 82.3796 111.8C81.9663 111.587 81.5663 111.433 81.1796 111.34C80.8063 111.247 80.4463 111.2 80.0996 111.2C79.4463 111.2 78.9596 111.313 78.6396 111.54C78.333 111.767 78.1796 112.067 78.1796 112.44C78.1796 112.72 78.273 112.953 78.4596 113.14C78.6463 113.327 78.933 113.453 79.3196 113.52L81.3196 113.9C82.1863 114.06 82.8396 114.353 83.2796 114.78C83.733 115.207 83.9596 115.78 83.9596 116.5C83.9596 117.473 83.5796 118.24 82.8196 118.8C82.0596 119.347 81.0463 119.62 79.7796 119.62ZM89.1853 119.62C88.4786 119.62 87.8453 119.487 87.2853 119.22C86.7386 118.94 86.3053 118.567 85.9853 118.1C85.6786 117.633 85.5253 117.107 85.5253 116.52C85.5253 115.8 85.7119 115.233 86.0853 114.82C86.4586 114.393 87.0653 114.087 87.9053 113.9C88.7453 113.713 89.8719 113.62 91.2853 113.62H92.2853V115.06H91.3053C90.4786 115.06 89.8186 115.1 89.3253 115.18C88.8319 115.26 88.4786 115.4 88.2653 115.6C88.0653 115.787 87.9653 116.053 87.9653 116.4C87.9653 116.84 88.1186 117.2 88.4253 117.48C88.7319 117.76 89.1586 117.9 89.7053 117.9C90.1453 117.9 90.5319 117.8 90.8653 117.6C91.2119 117.387 91.4853 117.1 91.6853 116.74C91.8853 116.38 91.9853 115.967 91.9853 115.5V113.2C91.9853 112.533 91.8386 112.053 91.5453 111.76C91.2519 111.467 90.7586 111.32 90.0653 111.32C89.6786 111.32 89.2586 111.367 88.8053 111.46C88.3653 111.553 87.8986 111.713 87.4053 111.94C87.1519 112.06 86.9253 112.093 86.7253 112.04C86.5386 111.987 86.3919 111.88 86.2853 111.72C86.1786 111.547 86.1253 111.36 86.1253 111.16C86.1253 110.96 86.1786 110.767 86.2853 110.58C86.3919 110.38 86.5719 110.233 86.8253 110.14C87.4386 109.887 88.0253 109.707 88.5853 109.6C89.1586 109.493 89.6786 109.44 90.1453 109.44C91.1053 109.44 91.8919 109.587 92.5053 109.88C93.1319 110.173 93.5986 110.62 93.9053 111.22C94.2119 111.807 94.3653 112.567 94.3653 113.5V118.3C94.3653 118.713 94.2653 119.033 94.0653 119.26C93.8653 119.473 93.5786 119.58 93.2053 119.58C92.8319 119.58 92.5386 119.473 92.3253 119.26C92.1253 119.033 92.0253 118.713 92.0253 118.3V117.34H92.1853C92.0919 117.807 91.9053 118.213 91.6253 118.56C91.3586 118.893 91.0186 119.153 90.6053 119.34C90.1919 119.527 89.7186 119.62 89.1853 119.62ZM99.2851 123.18C98.9918 123.18 98.7518 123.1 98.5651 122.94C98.3784 122.793 98.2651 122.593 98.2251 122.34C98.1984 122.087 98.2451 121.82 98.3651 121.54L99.7251 118.52V119.56L96.0851 111.14C95.9651 110.847 95.9251 110.573 95.9651 110.32C96.0051 110.067 96.1251 109.867 96.3251 109.72C96.5384 109.56 96.8251 109.48 97.1851 109.48C97.4918 109.48 97.7384 109.553 97.9251 109.7C98.1118 109.833 98.2784 110.093 98.4251 110.48L101.125 117.22H100.525L103.285 110.46C103.432 110.087 103.605 109.833 103.805 109.7C104.005 109.553 104.272 109.48 104.605 109.48C104.898 109.48 105.132 109.56 105.305 109.72C105.478 109.867 105.585 110.067 105.625 110.32C105.665 110.56 105.618 110.827 105.485 111.12L100.625 122.22C100.452 122.593 100.265 122.847 100.065 122.98C99.865 123.113 99.6051 123.18 99.2851 123.18ZM117.242 119.62C116.375 119.62 115.649 119.473 115.062 119.18C114.489 118.887 114.062 118.46 113.782 117.9C113.502 117.327 113.362 116.62 113.362 115.78V111.52H112.322C112.002 111.52 111.755 111.44 111.582 111.28C111.409 111.107 111.322 110.873 111.322 110.58C111.322 110.273 111.409 110.04 111.582 109.88C111.755 109.72 112.002 109.64 112.322 109.64H113.362V107.82C113.362 107.407 113.469 107.093 113.682 106.88C113.909 106.667 114.222 106.56 114.622 106.56C115.022 106.56 115.329 106.667 115.542 106.88C115.755 107.093 115.862 107.407 115.862 107.82V109.64H117.982C118.302 109.64 118.549 109.72 118.722 109.88C118.895 110.04 118.982 110.273 118.982 110.58C118.982 110.873 118.895 111.107 118.722 111.28C118.549 111.44 118.302 111.52 117.982 111.52H115.862V115.64C115.862 116.28 116.002 116.76 116.282 117.08C116.562 117.4 117.015 117.56 117.642 117.56C117.869 117.56 118.069 117.54 118.242 117.5C118.415 117.46 118.569 117.433 118.702 117.42C118.862 117.407 118.995 117.46 119.102 117.58C119.209 117.687 119.262 117.913 119.262 118.26C119.262 118.527 119.215 118.767 119.122 118.98C119.042 119.18 118.889 119.32 118.662 119.4C118.489 119.453 118.262 119.5 117.982 119.54C117.702 119.593 117.455 119.62 117.242 119.62ZM121.932 119.58C121.532 119.58 121.225 119.473 121.012 119.26C120.798 119.033 120.692 118.713 120.692 118.3V106.42C120.692 106.007 120.798 105.693 121.012 105.48C121.225 105.267 121.532 105.16 121.932 105.16C122.332 105.16 122.638 105.267 122.852 105.48C123.078 105.693 123.192 106.007 123.192 106.42V111.6H122.912C123.205 110.893 123.658 110.36 124.272 110C124.898 109.627 125.605 109.44 126.392 109.44C127.178 109.44 127.825 109.587 128.332 109.88C128.838 110.173 129.218 110.62 129.472 111.22C129.725 111.807 129.852 112.553 129.852 113.46V118.3C129.852 118.713 129.745 119.033 129.532 119.26C129.318 119.473 129.012 119.58 128.612 119.58C128.212 119.58 127.898 119.473 127.672 119.26C127.458 119.033 127.352 118.713 127.352 118.3V113.58C127.352 112.82 127.205 112.267 126.912 111.92C126.632 111.573 126.192 111.4 125.592 111.4C124.858 111.4 124.272 111.633 123.832 112.1C123.405 112.553 123.192 113.16 123.192 113.92V118.3C123.192 119.153 122.772 119.58 121.932 119.58ZM135.611 119.62C134.904 119.62 134.271 119.487 133.711 119.22C133.164 118.94 132.731 118.567 132.411 118.1C132.104 117.633 131.951 117.107 131.951 116.52C131.951 115.8 132.138 115.233 132.511 114.82C132.884 114.393 133.491 114.087 134.331 113.9C135.171 113.713 136.298 113.62 137.711 113.62H138.711V115.06H137.731C136.904 115.06 136.244 115.1 135.751 115.18C135.258 115.26 134.904 115.4 134.691 115.6C134.491 115.787 134.391 116.053 134.391 116.4C134.391 116.84 134.544 117.2 134.851 117.48C135.158 117.76 135.584 117.9 136.131 117.9C136.571 117.9 136.958 117.8 137.291 117.6C137.638 117.387 137.911 117.1 138.111 116.74C138.311 116.38 138.411 115.967 138.411 115.5V113.2C138.411 112.533 138.264 112.053 137.971 111.76C137.678 111.467 137.184 111.32 136.491 111.32C136.104 111.32 135.684 111.367 135.231 111.46C134.791 111.553 134.324 111.713 133.831 111.94C133.578 112.06 133.351 112.093 133.151 112.04C132.964 111.987 132.818 111.88 132.711 111.72C132.604 111.547 132.551 111.36 132.551 111.16C132.551 110.96 132.604 110.767 132.711 110.58C132.818 110.38 132.998 110.233 133.251 110.14C133.864 109.887 134.451 109.707 135.011 109.6C135.584 109.493 136.104 109.44 136.571 109.44C137.531 109.44 138.318 109.587 138.931 109.88C139.558 110.173 140.024 110.62 140.331 111.22C140.638 111.807 140.791 112.567 140.791 113.5V118.3C140.791 118.713 140.691 119.033 140.491 119.26C140.291 119.473 140.004 119.58 139.631 119.58C139.258 119.58 138.964 119.473 138.751 119.26C138.551 119.033 138.451 118.713 138.451 118.3V117.34H138.611C138.518 117.807 138.331 118.213 138.051 118.56C137.784 118.893 137.444 119.153 137.031 119.34C136.618 119.527 136.144 119.62 135.611 119.62ZM147.809 119.62C146.942 119.62 146.215 119.473 145.629 119.18C145.055 118.887 144.629 118.46 144.349 117.9C144.069 117.327 143.929 116.62 143.929 115.78V111.52H142.889C142.569 111.52 142.322 111.44 142.149 111.28C141.975 111.107 141.889 110.873 141.889 110.58C141.889 110.273 141.975 110.04 142.149 109.88C142.322 109.72 142.569 109.64 142.889 109.64H143.929V107.82C143.929 107.407 144.035 107.093 144.249 106.88C144.475 106.667 144.789 106.56 145.189 106.56C145.589 106.56 145.895 106.667 146.109 106.88C146.322 107.093 146.429 107.407 146.429 107.82V109.64H148.549C148.869 109.64 149.115 109.72 149.289 109.88C149.462 110.04 149.549 110.273 149.549 110.58C149.549 110.873 149.462 111.107 149.289 111.28C149.115 111.44 148.869 111.52 148.549 111.52H146.429V115.64C146.429 116.28 146.569 116.76 146.849 117.08C147.129 117.4 147.582 117.56 148.209 117.56C148.435 117.56 148.635 117.54 148.809 117.5C148.982 117.46 149.135 117.433 149.269 117.42C149.429 117.407 149.562 117.46 149.669 117.58C149.775 117.687 149.829 117.913 149.829 118.26C149.829 118.527 149.782 118.767 149.689 118.98C149.609 119.18 149.455 119.32 149.229 119.4C149.055 119.453 148.829 119.5 148.549 119.54C148.269 119.593 148.022 119.62 147.809 119.62ZM152.876 121.56C152.703 121.773 152.516 121.893 152.316 121.92C152.129 121.96 151.963 121.927 151.816 121.82C151.669 121.713 151.589 121.56 151.576 121.36C151.563 121.173 151.649 120.967 151.836 120.74C152.103 120.407 152.283 120.073 152.376 119.74C152.469 119.407 152.516 119.107 152.516 118.84L152.616 119.52C152.149 119.52 151.769 119.387 151.476 119.12C151.196 118.84 151.056 118.473 151.056 118.02C151.056 117.593 151.189 117.247 151.456 116.98C151.723 116.7 152.083 116.56 152.536 116.56C153.003 116.56 153.369 116.72 153.636 117.04C153.903 117.347 154.036 117.793 154.036 118.38C154.036 118.7 154.003 119.033 153.936 119.38C153.883 119.713 153.769 120.06 153.596 120.42C153.436 120.793 153.196 121.173 152.876 121.56ZM195.291 119.56C194.891 119.56 194.585 119.44 194.371 119.2C194.158 118.96 194.051 118.627 194.051 118.2V110.86C194.051 110.42 194.158 110.087 194.371 109.86C194.585 109.62 194.891 109.5 195.291 109.5C195.691 109.5 195.998 109.62 196.211 109.86C196.438 110.087 196.551 110.42 196.551 110.86V118.2C196.551 118.627 196.445 118.96 196.231 119.2C196.018 119.44 195.705 119.56 195.291 119.56ZM195.291 107.64C194.825 107.64 194.458 107.527 194.191 107.3C193.938 107.06 193.811 106.733 193.811 106.32C193.811 105.893 193.938 105.567 194.191 105.34C194.458 105.113 194.825 105 195.291 105C195.771 105 196.138 105.113 196.391 105.34C196.645 105.567 196.771 105.893 196.771 106.32C196.771 106.733 196.645 107.06 196.391 107.3C196.138 107.527 195.771 107.64 195.291 107.64ZM202.729 119.62C202.156 119.62 201.549 119.56 200.909 119.44C200.269 119.32 199.696 119.113 199.189 118.82C198.976 118.687 198.822 118.533 198.729 118.36C198.649 118.173 198.616 117.993 198.629 117.82C198.656 117.633 198.722 117.473 198.829 117.34C198.949 117.207 199.096 117.12 199.269 117.08C199.456 117.04 199.656 117.073 199.869 117.18C200.402 117.433 200.902 117.613 201.369 117.72C201.836 117.813 202.296 117.86 202.749 117.86C203.389 117.86 203.862 117.753 204.169 117.54C204.489 117.313 204.649 117.02 204.649 116.66C204.649 116.353 204.542 116.12 204.329 115.96C204.129 115.787 203.822 115.66 203.409 115.58L201.409 115.2C200.582 115.04 199.949 114.74 199.509 114.3C199.082 113.847 198.869 113.267 198.869 112.56C198.869 111.92 199.042 111.367 199.389 110.9C199.749 110.433 200.242 110.073 200.869 109.82C201.496 109.567 202.216 109.44 203.029 109.44C203.616 109.44 204.162 109.507 204.669 109.64C205.189 109.76 205.689 109.953 206.169 110.22C206.369 110.327 206.502 110.467 206.569 110.64C206.649 110.813 206.669 110.993 206.629 111.18C206.589 111.353 206.509 111.513 206.389 111.66C206.269 111.793 206.116 111.88 205.929 111.92C205.756 111.947 205.556 111.907 205.329 111.8C204.916 111.587 204.516 111.433 204.129 111.34C203.756 111.247 203.396 111.2 203.049 111.2C202.396 111.2 201.909 111.313 201.589 111.54C201.282 111.767 201.129 112.067 201.129 112.44C201.129 112.72 201.222 112.953 201.409 113.14C201.596 113.327 201.882 113.453 202.269 113.52L204.269 113.9C205.136 114.06 205.789 114.353 206.229 114.78C206.682 115.207 206.909 115.78 206.909 116.5C206.909 117.473 206.529 118.24 205.769 118.8C205.009 119.347 203.996 119.62 202.729 119.62ZM218.864 119.62C217.838 119.62 216.944 119.413 216.184 119C215.424 118.573 214.838 117.973 214.424 117.2C214.011 116.427 213.804 115.52 213.804 114.48C213.804 113.693 213.918 112.993 214.144 112.38C214.384 111.753 214.724 111.227 215.164 110.8C215.604 110.36 216.138 110.027 216.764 109.8C217.391 109.56 218.091 109.44 218.864 109.44C219.304 109.44 219.778 109.5 220.284 109.62C220.804 109.74 221.291 109.94 221.744 110.22C221.958 110.353 222.098 110.513 222.164 110.7C222.231 110.887 222.244 111.08 222.204 111.28C222.164 111.467 222.078 111.633 221.944 111.78C221.824 111.913 221.671 112 221.484 112.04C221.298 112.067 221.091 112.02 220.864 111.9C220.571 111.727 220.271 111.6 219.964 111.52C219.658 111.427 219.364 111.38 219.084 111.38C218.644 111.38 218.258 111.453 217.924 111.6C217.591 111.733 217.304 111.933 217.064 112.2C216.838 112.453 216.664 112.773 216.544 113.16C216.424 113.547 216.364 113.993 216.364 114.5C216.364 115.487 216.598 116.267 217.064 116.84C217.544 117.4 218.218 117.68 219.084 117.68C219.364 117.68 219.651 117.64 219.944 117.56C220.251 117.48 220.558 117.353 220.864 117.18C221.091 117.06 221.291 117.02 221.464 117.06C221.651 117.1 221.804 117.193 221.924 117.34C222.044 117.473 222.118 117.64 222.144 117.84C222.171 118.027 222.144 118.213 222.064 118.4C221.998 118.587 221.864 118.74 221.664 118.86C221.224 119.127 220.758 119.32 220.264 119.44C219.771 119.56 219.304 119.62 218.864 119.62ZM228.042 119.62C227.029 119.62 226.149 119.413 225.402 119C224.656 118.587 224.076 118 223.662 117.24C223.249 116.467 223.042 115.56 223.042 114.52C223.042 113.733 223.156 113.033 223.382 112.42C223.622 111.793 223.962 111.26 224.402 110.82C224.842 110.367 225.369 110.027 225.982 109.8C226.596 109.56 227.282 109.44 228.042 109.44C229.056 109.44 229.936 109.647 230.682 110.06C231.429 110.473 232.009 111.06 232.422 111.82C232.836 112.58 233.042 113.48 233.042 114.52C233.042 115.307 232.922 116.013 232.682 116.64C232.456 117.267 232.122 117.807 231.682 118.26C231.242 118.7 230.716 119.04 230.102 119.28C229.489 119.507 228.802 119.62 228.042 119.62ZM228.042 117.72C228.536 117.72 228.969 117.6 229.342 117.36C229.716 117.12 230.002 116.767 230.202 116.3C230.416 115.82 230.522 115.227 230.522 114.52C230.522 113.453 230.296 112.66 229.842 112.14C229.389 111.607 228.789 111.34 228.042 111.34C227.549 111.34 227.116 111.46 226.742 111.7C226.369 111.927 226.076 112.28 225.862 112.76C225.662 113.227 225.562 113.813 225.562 114.52C225.562 115.573 225.789 116.373 226.242 116.92C226.696 117.453 227.296 117.72 228.042 117.72ZM236.386 119.58C235.986 119.58 235.679 119.473 235.466 119.26C235.253 119.033 235.146 118.713 235.146 118.3V110.74C235.146 110.327 235.253 110.013 235.466 109.8C235.679 109.587 235.979 109.48 236.366 109.48C236.753 109.48 237.053 109.587 237.266 109.8C237.479 110.013 237.586 110.327 237.586 110.74V112.2L237.366 111.6C237.633 110.933 238.046 110.407 238.606 110.02C239.166 109.633 239.833 109.44 240.606 109.44C241.393 109.44 242.039 109.627 242.546 110C243.053 110.373 243.406 110.947 243.606 111.72H243.326C243.593 111.013 244.033 110.46 244.646 110.06C245.259 109.647 245.966 109.44 246.766 109.44C247.513 109.44 248.126 109.587 248.606 109.88C249.099 110.173 249.466 110.62 249.706 111.22C249.946 111.807 250.066 112.553 250.066 113.46V118.3C250.066 118.713 249.953 119.033 249.726 119.26C249.513 119.473 249.206 119.58 248.806 119.58C248.406 119.58 248.099 119.473 247.886 119.26C247.673 119.033 247.566 118.713 247.566 118.3V113.56C247.566 112.813 247.439 112.267 247.186 111.92C246.946 111.573 246.533 111.4 245.946 111.4C245.293 111.4 244.779 111.633 244.406 112.1C244.033 112.553 243.846 113.187 243.846 114V118.3C243.846 118.713 243.739 119.033 243.526 119.26C243.313 119.473 243.006 119.58 242.606 119.58C242.206 119.58 241.893 119.473 241.666 119.26C241.453 119.033 241.346 118.713 241.346 118.3V113.56C241.346 112.813 241.219 112.267 240.966 111.92C240.726 111.573 240.319 111.4 239.746 111.4C239.093 111.4 238.579 111.633 238.206 112.1C237.833 112.553 237.646 113.187 237.646 114V118.3C237.646 119.153 237.226 119.58 236.386 119.58ZM253.885 123.18C253.485 123.18 253.178 123.073 252.965 122.86C252.752 122.647 252.645 122.333 252.645 121.92V110.74C252.645 110.327 252.752 110.013 252.965 109.8C253.178 109.587 253.478 109.48 253.865 109.48C254.265 109.48 254.572 109.587 254.785 109.8C254.998 110.013 255.105 110.327 255.105 110.74V112.3L254.885 111.7C255.085 111.02 255.492 110.473 256.105 110.06C256.732 109.647 257.458 109.44 258.285 109.44C259.138 109.44 259.885 109.647 260.525 110.06C261.178 110.473 261.685 111.06 262.045 111.82C262.405 112.567 262.585 113.467 262.585 114.52C262.585 115.56 262.405 116.467 262.045 117.24C261.685 118 261.185 118.587 260.545 119C259.905 119.413 259.152 119.62 258.285 119.62C257.472 119.62 256.758 119.42 256.145 119.02C255.532 118.607 255.118 118.073 254.905 117.42H255.145V121.92C255.145 122.333 255.032 122.647 254.805 122.86C254.592 123.073 254.285 123.18 253.885 123.18ZM257.585 117.72C258.078 117.72 258.512 117.6 258.885 117.36C259.258 117.12 259.545 116.767 259.745 116.3C259.958 115.82 260.065 115.227 260.065 114.52C260.065 113.453 259.838 112.66 259.385 112.14C258.932 111.607 258.332 111.34 257.585 111.34C257.092 111.34 256.658 111.46 256.285 111.7C255.912 111.927 255.618 112.28 255.405 112.76C255.205 113.227 255.105 113.813 255.105 114.52C255.105 115.573 255.332 116.373 255.785 116.92C256.238 117.453 256.838 117.72 257.585 117.72ZM267.977 119.62C266.87 119.62 266.037 119.307 265.477 118.68C264.917 118.04 264.637 117.107 264.637 115.88V106.42C264.637 106.007 264.744 105.693 264.957 105.48C265.17 105.267 265.477 105.16 265.877 105.16C266.277 105.16 266.584 105.267 266.797 105.48C267.024 105.693 267.137 106.007 267.137 106.42V115.76C267.137 116.373 267.264 116.827 267.517 117.12C267.784 117.413 268.157 117.56 268.637 117.56C268.744 117.56 268.844 117.56 268.937 117.56C269.03 117.547 269.124 117.533 269.217 117.52C269.404 117.493 269.53 117.547 269.597 117.68C269.664 117.8 269.697 118.053 269.697 118.44C269.697 118.773 269.63 119.033 269.497 119.22C269.364 119.407 269.144 119.52 268.837 119.56C268.704 119.573 268.564 119.587 268.417 119.6C268.27 119.613 268.124 119.62 267.977 119.62ZM275.746 119.62C274.64 119.62 273.686 119.413 272.886 119C272.086 118.587 271.466 118 271.026 117.24C270.6 116.48 270.386 115.58 270.386 114.54C270.386 113.527 270.593 112.64 271.006 111.88C271.433 111.12 272.013 110.527 272.746 110.1C273.493 109.66 274.34 109.44 275.286 109.44C275.98 109.44 276.6 109.553 277.146 109.78C277.706 110.007 278.18 110.333 278.566 110.76C278.966 111.187 279.266 111.707 279.466 112.32C279.68 112.92 279.786 113.6 279.786 114.36C279.786 114.6 279.7 114.787 279.526 114.92C279.366 115.04 279.133 115.1 278.826 115.1H272.406V113.66H278.026L277.706 113.96C277.706 113.347 277.613 112.833 277.426 112.42C277.253 112.007 276.993 111.693 276.646 111.48C276.313 111.253 275.893 111.14 275.386 111.14C274.826 111.14 274.346 111.273 273.946 111.54C273.56 111.793 273.26 112.16 273.046 112.64C272.846 113.107 272.746 113.667 272.746 114.32V114.46C272.746 115.553 273 116.373 273.506 116.92C274.026 117.453 274.786 117.72 275.786 117.72C276.133 117.72 276.52 117.68 276.946 117.6C277.386 117.507 277.8 117.353 278.186 117.14C278.466 116.98 278.713 116.913 278.926 116.94C279.14 116.953 279.306 117.027 279.426 117.16C279.56 117.293 279.64 117.46 279.666 117.66C279.693 117.847 279.653 118.04 279.546 118.24C279.453 118.44 279.286 118.613 279.046 118.76C278.58 119.053 278.04 119.273 277.426 119.42C276.826 119.553 276.266 119.62 275.746 119.62ZM283.046 119.58C282.646 119.58 282.339 119.473 282.126 119.26C281.913 119.033 281.806 118.713 281.806 118.3V110.74C281.806 110.327 281.913 110.013 282.126 109.8C282.339 109.587 282.639 109.48 283.026 109.48C283.413 109.48 283.713 109.587 283.926 109.8C284.139 110.013 284.246 110.327 284.246 110.74V112.2L284.026 111.6C284.293 110.933 284.706 110.407 285.266 110.02C285.826 109.633 286.493 109.44 287.266 109.44C288.053 109.44 288.699 109.627 289.206 110C289.713 110.373 290.066 110.947 290.266 111.72H289.986C290.253 111.013 290.693 110.46 291.306 110.06C291.919 109.647 292.626 109.44 293.426 109.44C294.173 109.44 294.786 109.587 295.266 109.88C295.759 110.173 296.126 110.62 296.366 111.22C296.606 111.807 296.726 112.553 296.726 113.46V118.3C296.726 118.713 296.613 119.033 296.386 119.26C296.173 119.473 295.866 119.58 295.466 119.58C295.066 119.58 294.759 119.473 294.546 119.26C294.333 119.033 294.226 118.713 294.226 118.3V113.56C294.226 112.813 294.099 112.267 293.846 111.92C293.606 111.573 293.193 111.4 292.606 111.4C291.953 111.4 291.439 111.633 291.066 112.1C290.693 112.553 290.506 113.187 290.506 114V118.3C290.506 118.713 290.399 119.033 290.186 119.26C289.973 119.473 289.666 119.58 289.266 119.58C288.866 119.58 288.553 119.473 288.326 119.26C288.113 119.033 288.006 118.713 288.006 118.3V113.56C288.006 112.813 287.879 112.267 287.626 111.92C287.386 111.573 286.979 111.4 286.406 111.4C285.753 111.4 285.239 111.633 284.866 112.1C284.493 112.553 284.306 113.187 284.306 114V118.3C284.306 119.153 283.886 119.58 283.046 119.58ZM304.125 119.62C303.018 119.62 302.065 119.413 301.265 119C300.465 118.587 299.845 118 299.405 117.24C298.978 116.48 298.765 115.58 298.765 114.54C298.765 113.527 298.972 112.64 299.385 111.88C299.812 111.12 300.392 110.527 301.125 110.1C301.872 109.66 302.718 109.44 303.665 109.44C304.358 109.44 304.978 109.553 305.525 109.78C306.085 110.007 306.558 110.333 306.945 110.76C307.345 111.187 307.645 111.707 307.845 112.32C308.058 112.92 308.165 113.6 308.165 114.36C308.165 114.6 308.078 114.787 307.905 114.92C307.745 115.04 307.512 115.1 307.205 115.1H300.785V113.66H306.405L306.085 113.96C306.085 113.347 305.992 112.833 305.805 112.42C305.632 112.007 305.372 111.693 305.025 111.48C304.692 111.253 304.272 111.14 303.765 111.14C303.205 111.14 302.725 111.273 302.325 111.54C301.938 111.793 301.638 112.16 301.425 112.64C301.225 113.107 301.125 113.667 301.125 114.32V114.46C301.125 115.553 301.378 116.373 301.885 116.92C302.405 117.453 303.165 117.72 304.165 117.72C304.512 117.72 304.898 117.68 305.325 117.6C305.765 117.507 306.178 117.353 306.565 117.14C306.845 116.98 307.092 116.913 307.305 116.94C307.518 116.953 307.685 117.027 307.805 117.16C307.938 117.293 308.018 117.46 308.045 117.66C308.072 117.847 308.032 118.04 307.925 118.24C307.832 118.44 307.665 118.613 307.425 118.76C306.958 119.053 306.418 119.273 305.805 119.42C305.205 119.553 304.645 119.62 304.125 119.62ZM311.385 119.58C310.985 119.58 310.678 119.473 310.465 119.26C310.252 119.033 310.145 118.713 310.145 118.3V110.74C310.145 110.327 310.252 110.013 310.465 109.8C310.678 109.587 310.978 109.48 311.365 109.48C311.752 109.48 312.052 109.587 312.265 109.8C312.478 110.013 312.585 110.327 312.585 110.74V112.1L312.365 111.6C312.658 110.893 313.112 110.36 313.725 110C314.352 109.627 315.058 109.44 315.845 109.44C316.632 109.44 317.278 109.587 317.785 109.88C318.292 110.173 318.672 110.62 318.925 111.22C319.178 111.807 319.305 112.553 319.305 113.46V118.3C319.305 118.713 319.198 119.033 318.985 119.26C318.772 119.473 318.465 119.58 318.065 119.58C317.665 119.58 317.352 119.473 317.125 119.26C316.912 119.033 316.805 118.713 316.805 118.3V113.58C316.805 112.82 316.658 112.267 316.365 111.92C316.085 111.573 315.645 111.4 315.045 111.4C314.312 111.4 313.725 111.633 313.285 112.1C312.858 112.553 312.645 113.16 312.645 113.92V118.3C312.645 119.153 312.225 119.58 311.385 119.58ZM326.324 119.62C325.458 119.62 324.731 119.473 324.144 119.18C323.571 118.887 323.144 118.46 322.864 117.9C322.584 117.327 322.444 116.62 322.444 115.78V111.52H321.404C321.084 111.52 320.838 111.44 320.664 111.28C320.491 111.107 320.404 110.873 320.404 110.58C320.404 110.273 320.491 110.04 320.664 109.88C320.838 109.72 321.084 109.64 321.404 109.64H322.444V107.82C322.444 107.407 322.551 107.093 322.764 106.88C322.991 106.667 323.304 106.56 323.704 106.56C324.104 106.56 324.411 106.667 324.624 106.88C324.838 107.093 324.944 107.407 324.944 107.82V109.64H327.064C327.384 109.64 327.631 109.72 327.804 109.88C327.978 110.04 328.064 110.273 328.064 110.58C328.064 110.873 327.978 111.107 327.804 111.28C327.631 111.44 327.384 111.52 327.064 111.52H324.944V115.64C324.944 116.28 325.084 116.76 325.364 117.08C325.644 117.4 326.098 117.56 326.724 117.56C326.951 117.56 327.151 117.54 327.324 117.5C327.498 117.46 327.651 117.433 327.784 117.42C327.944 117.407 328.078 117.46 328.184 117.58C328.291 117.687 328.344 117.913 328.344 118.26C328.344 118.527 328.298 118.767 328.204 118.98C328.124 119.18 327.971 119.32 327.744 119.4C327.571 119.453 327.344 119.5 327.064 119.54C326.784 119.593 326.538 119.62 326.324 119.62ZM339.41 119.62C338.396 119.62 337.516 119.413 336.77 119C336.023 118.587 335.443 118 335.03 117.24C334.616 116.467 334.41 115.56 334.41 114.52C334.41 113.733 334.523 113.033 334.75 112.42C334.99 111.793 335.33 111.26 335.77 110.82C336.21 110.367 336.736 110.027 337.35 109.8C337.963 109.56 338.65 109.44 339.41 109.44C340.423 109.44 341.303 109.647 342.05 110.06C342.796 110.473 343.376 111.06 343.79 111.82C344.203 112.58 344.41 113.48 344.41 114.52C344.41 115.307 344.29 116.013 344.05 116.64C343.823 117.267 343.49 117.807 343.05 118.26C342.61 118.7 342.083 119.04 341.47 119.28C340.856 119.507 340.17 119.62 339.41 119.62ZM339.41 117.72C339.903 117.72 340.336 117.6 340.71 117.36C341.083 117.12 341.37 116.767 341.57 116.3C341.783 115.82 341.89 115.227 341.89 114.52C341.89 113.453 341.663 112.66 341.21 112.14C340.756 111.607 340.156 111.34 339.41 111.34C338.916 111.34 338.483 111.46 338.11 111.7C337.736 111.927 337.443 112.28 337.23 112.76C337.03 113.227 336.93 113.813 336.93 114.52C336.93 115.573 337.156 116.373 337.61 116.92C338.063 117.453 338.663 117.72 339.41 117.72ZM348.295 119.58C347.895 119.58 347.582 119.473 347.355 119.26C347.142 119.033 347.035 118.713 347.035 118.3V111.52H346.115C345.795 111.52 345.549 111.44 345.375 111.28C345.202 111.107 345.115 110.873 345.115 110.58C345.115 110.273 345.202 110.04 345.375 109.88C345.549 109.72 345.795 109.64 346.115 109.64H347.755L347.035 110.3V109.62C347.035 108.247 347.382 107.22 348.075 106.54C348.769 105.847 349.769 105.44 351.075 105.32L351.755 105.26C352.022 105.233 352.235 105.28 352.395 105.4C352.555 105.507 352.662 105.653 352.715 105.84C352.769 106.013 352.775 106.193 352.735 106.38C352.695 106.567 352.609 106.733 352.475 106.88C352.355 107.013 352.195 107.087 351.995 107.1L351.715 107.12C350.955 107.173 350.402 107.367 350.055 107.7C349.709 108.033 349.535 108.54 349.535 109.22V109.96L349.215 109.64H351.235C351.555 109.64 351.802 109.72 351.975 109.88C352.149 110.04 352.235 110.273 352.235 110.58C352.235 110.873 352.149 111.107 351.975 111.28C351.802 111.44 351.555 111.52 351.235 111.52H349.535V118.3C349.535 119.153 349.122 119.58 348.295 119.58ZM386.052 119.52C385.599 119.52 385.232 119.38 384.952 119.1C384.685 118.82 384.552 118.46 384.552 118.02C384.552 117.593 384.685 117.247 384.952 116.98C385.232 116.7 385.599 116.56 386.052 116.56C386.519 116.56 386.879 116.7 387.132 116.98C387.399 117.247 387.532 117.593 387.532 118.02C387.532 118.46 387.399 118.82 387.132 119.1C386.879 119.38 386.519 119.52 386.052 119.52Z" fill="#646464"/>
<path d="M177.276 119.42C176.956 119.42 176.696 119.347 176.496 119.2C176.309 119.053 176.196 118.86 176.156 118.62C176.116 118.367 176.162 118.087 176.296 117.78L181.576 106.08C181.749 105.693 181.956 105.42 182.196 105.26C182.449 105.087 182.736 105 183.056 105C183.362 105 183.636 105.087 183.876 105.26C184.129 105.42 184.342 105.693 184.516 106.08L189.816 117.78C189.962 118.087 190.016 118.367 189.976 118.62C189.936 118.873 189.822 119.073 189.636 119.22C189.449 119.353 189.202 119.42 188.896 119.42C188.522 119.42 188.229 119.333 188.016 119.16C187.816 118.973 187.636 118.693 187.476 118.32L186.176 115.3L187.256 116H178.816L179.896 115.3L178.616 118.32C178.442 118.707 178.262 118.987 178.076 119.16C177.889 119.333 177.622 119.42 177.276 119.42ZM183.016 107.94L180.216 114.6L179.696 113.96H186.376L185.876 114.6L183.056 107.94H183.016Z" fill="#2AD3F5"/>
<path d="M372.839 119.1C372.399 119.1 372.059 118.987 371.819 118.76C371.593 118.52 371.479 118.18 371.479 117.74V106.36C371.479 105.92 371.593 105.587 371.819 105.36C372.059 105.12 372.399 105 372.839 105H377.639C378.626 105 379.466 105.147 380.159 105.44C380.853 105.733 381.379 106.153 381.739 106.7C382.113 107.247 382.299 107.9 382.299 108.66C382.299 109.513 382.053 110.233 381.559 110.82C381.066 111.407 380.393 111.8 379.539 112V111.7C380.526 111.847 381.293 112.22 381.839 112.82C382.386 113.42 382.659 114.2 382.659 115.16C382.659 116.413 382.233 117.387 381.379 118.08C380.539 118.76 379.366 119.1 377.859 119.1H372.839ZM373.939 117.16H377.539C378.446 117.16 379.113 116.987 379.539 116.64C379.966 116.28 380.179 115.747 380.179 115.04C380.179 114.32 379.966 113.787 379.539 113.44C379.113 113.093 378.446 112.92 377.539 112.92H373.939V117.16ZM373.939 110.98H377.199C378.079 110.98 378.733 110.813 379.159 110.48C379.599 110.133 379.819 109.627 379.819 108.96C379.819 108.293 379.599 107.793 379.159 107.46C378.733 107.113 378.079 106.94 377.199 106.94H373.939V110.98Z" fill="#F57A7A"/>
<path d="M174 118.76H163L172.5 107.26" stroke="#2AD3F5" stroke-width="2" stroke-linecap="round" stroke-linejoin="round"/>
<path d="M369 118.6H358L367.5 107.1" stroke="#F57A7A" stroke-width="2" stroke-linecap="round" stroke-linejoin="round"/>
<path d="M130 19.5H119L128.5 8" stroke="#2AD3F5" stroke-width="2" stroke-linecap="round" stroke-linejoin="round"/>
<path d="M136.149 21.16C135.829 21.16 135.569 21.0867 135.369 20.94C135.182 20.7933 135.069 20.6 135.029 20.36C134.989 20.1067 135.035 19.8267 135.169 19.52L140.449 7.82C140.622 7.43333 140.829 7.16 141.069 7C141.322 6.82667 141.609 6.74 141.929 6.74C142.235 6.74 142.509 6.82667 142.749 7C143.002 7.16 143.215 7.43333 143.389 7.82L148.689 19.52C148.835 19.8267 148.889 20.1067 148.849 20.36C148.809 20.6133 148.695 20.8133 148.509 20.96C148.322 21.0933 148.075 21.16 147.769 21.16C147.395 21.16 147.102 21.0733 146.889 20.9C146.689 20.7133 146.509 20.4333 146.349 20.06L145.049 17.04L146.129 17.74H137.689L138.769 17.04L137.489 20.06C137.315 20.4467 137.135 20.7267 136.949 20.9C136.762 21.0733 136.495 21.16 136.149 21.16ZM141.889 9.68L139.089 16.34L138.569 15.7H145.249L144.749 16.34L141.929 9.68H141.889Z" fill="#2AD3F5"/>
<path d="M156.641 14.14C156.361 14.14 156.141 14.0667 155.981 13.92C155.821 13.76 155.741 13.54 155.741 13.26C155.741 12.98 155.821 12.7667 155.981 12.62C156.141 12.46 156.361 12.38 156.641 12.38H164.921C165.215 12.38 165.435 12.46 165.581 12.62C165.741 12.7667 165.821 12.98 165.821 13.26C165.821 13.54 165.741 13.76 165.581 13.92C165.435 14.0667 165.215 14.14 164.921 14.14H156.641ZM156.641 18.12C156.361 18.12 156.141 18.0467 155.981 17.9C155.821 17.74 155.741 17.52 155.741 17.24C155.741 16.96 155.821 16.7467 155.981 16.6C156.141 16.4533 156.361 16.38 156.641 16.38H164.921C165.215 16.38 165.435 16.4533 165.581 16.6C165.741 16.7467 165.821 16.96 165.821 17.24C165.821 17.5333 165.741 17.7533 165.581 17.9C165.435 18.0467 165.215 18.12 164.921 18.12H156.641ZM177.103 21.2C176.53 21.2 175.936 21.1133 175.323 20.94C174.71 20.7533 174.136 20.48 173.603 20.12C173.39 19.9867 173.25 19.8133 173.183 19.6C173.116 19.3867 173.103 19.18 173.143 18.98C173.196 18.7667 173.29 18.5867 173.423 18.44C173.57 18.28 173.75 18.1867 173.963 18.16C174.176 18.12 174.41 18.1733 174.663 18.32C175.116 18.5867 175.543 18.7733 175.943 18.88C176.343 18.9867 176.743 19.04 177.143 19.04C177.916 19.04 178.57 18.86 179.103 18.5C179.636 18.14 180.036 17.6 180.303 16.88C180.583 16.1467 180.723 15.2467 180.723 14.18V12.68H180.963C180.87 13.3467 180.65 13.9267 180.303 14.42C179.956 14.9133 179.516 15.2933 178.983 15.56C178.45 15.8133 177.856 15.94 177.203 15.94C176.403 15.94 175.683 15.7467 175.043 15.36C174.416 14.9733 173.923 14.44 173.563 13.76C173.203 13.0667 173.023 12.2867 173.023 11.42C173.023 10.5 173.216 9.68667 173.603 8.98C174.003 8.27333 174.556 7.72 175.263 7.32C175.97 6.90667 176.776 6.7 177.683 6.7C178.856 6.7 179.85 6.97333 180.663 7.52C181.476 8.06667 182.096 8.86667 182.523 9.92C182.95 10.96 183.163 12.22 183.163 13.7C183.163 14.9 183.023 15.9667 182.743 16.9C182.476 17.82 182.083 18.6 181.563 19.24C181.043 19.88 180.403 20.3667 179.643 20.7C178.896 21.0333 178.05 21.2 177.103 21.2ZM177.843 13.9C178.323 13.9 178.743 13.7933 179.103 13.58C179.476 13.3533 179.763 13.0467 179.963 12.66C180.163 12.26 180.263 11.8067 180.263 11.3C180.263 10.78 180.163 10.3267 179.963 9.94C179.763 9.55333 179.476 9.25333 179.103 9.04C178.743 8.82667 178.323 8.72 177.843 8.72C177.363 8.72 176.943 8.82667 176.583 9.04C176.223 9.25333 175.936 9.55333 175.723 9.94C175.523 10.3267 175.423 10.78 175.423 11.3C175.423 11.8067 175.523 12.26 175.723 12.66C175.936 13.0467 176.223 13.3533 176.583 13.58C176.943 13.7933 177.363 13.9 177.843 13.9ZM190.195 21.2C188.529 21.2 187.255 20.5733 186.375 19.32C185.495 18.0533 185.055 16.2533 185.055 13.92C185.055 12.3467 185.249 11.0267 185.635 9.96C186.035 8.88 186.615 8.06667 187.375 7.52C188.149 6.97333 189.089 6.7 190.195 6.7C191.875 6.7 193.149 7.31333 194.015 8.54C194.895 9.76667 195.335 11.5533 195.335 13.9C195.335 15.46 195.135 16.7867 194.735 17.88C194.349 18.96 193.775 19.7867 193.015 20.36C192.255 20.92 191.315 21.2 190.195 21.2ZM190.195 19.1C191.102 19.1 191.769 18.68 192.195 17.84C192.635 17 192.855 15.6867 192.855 13.9C192.855 12.1133 192.635 10.82 192.195 10.02C191.769 9.20667 191.102 8.8 190.195 8.8C189.302 8.8 188.635 9.20667 188.195 10.02C187.755 10.82 187.535 12.1133 187.535 13.9C187.535 15.6867 187.755 17 188.195 17.84C188.635 18.68 189.302 19.1 190.195 19.1ZM199.988 15.46C198.974 15.46 198.168 15.1 197.568 14.38C196.981 13.6467 196.688 12.5533 196.688 11.1C196.688 10.38 196.761 9.75333 196.908 9.22C197.068 8.67333 197.288 8.22667 197.568 7.88C197.861 7.52 198.208 7.25333 198.608 7.08C199.021 6.89333 199.481 6.8 199.988 6.8C201.014 6.8 201.821 7.16 202.408 7.88C202.994 8.58667 203.288 9.66 203.288 11.1C203.288 11.82 203.208 12.4533 203.048 13C202.901 13.5467 202.681 14.0067 202.388 14.38C202.108 14.74 201.761 15.0133 201.348 15.2C200.948 15.3733 200.494 15.46 199.988 15.46ZM199.988 13.96C200.214 13.96 200.414 13.9067 200.588 13.8C200.761 13.68 200.901 13.5067 201.008 13.28C201.128 13.04 201.214 12.74 201.268 12.38C201.321 12.02 201.348 11.5933 201.348 11.1C201.348 10.1133 201.234 9.4 201.008 8.96C200.794 8.52 200.454 8.3 199.988 8.3C199.761 8.3 199.561 8.35333 199.388 8.46C199.214 8.56667 199.068 8.73333 198.948 8.96C198.841 9.18667 198.761 9.48 198.708 9.84C198.654 10.1867 198.628 10.6067 198.628 11.1C198.628 12.0867 198.741 12.8133 198.968 13.28C199.194 13.7333 199.534 13.96 199.988 13.96ZM209.855 16.4C209.628 16.4 209.435 16.3267 209.275 16.18C209.128 16.0333 209.055 15.8533 209.055 15.64C209.055 15.4267 209.128 15.2533 209.275 15.12C209.435 14.9733 209.628 14.9 209.855 14.9H218.595C218.822 14.9 219.008 14.9733 219.155 15.12C219.302 15.2533 219.375 15.4267 219.375 15.64C219.375 15.8533 219.302 16.0333 219.155 16.18C219.008 16.3267 218.822 16.4 218.595 16.4H209.855Z" fill="#646464"/>
<path d="M225.917 12.5457L229.513 11.9789C230.165 12.9172 230.626 13.95 230.894 15.0773C231.567 14.1641 232.074 13.525 232.418 13.1597C232.878 12.6685 233.256 12.3505 233.551 12.2056C233.854 12.0545 234.173 11.9789 234.509 11.9789C234.887 11.9789 235.176 12.0733 235.375 12.2623C235.581 12.4512 235.684 12.7062 235.684 13.0274C235.684 13.3298 235.581 13.5785 235.375 13.7737C235.176 13.9626 234.925 14.0571 234.623 14.0571C234.403 14.0571 234.149 14.0224 233.86 13.9532C233.579 13.8776 233.383 13.8398 233.273 13.8398C232.985 13.8398 232.71 13.9343 232.449 14.1232C232.092 14.3814 231.652 14.9325 231.13 15.7762C231.714 17.6656 232.181 18.818 232.531 19.2336C232.738 19.4792 232.947 19.602 233.16 19.602C233.338 19.602 233.493 19.5611 233.623 19.4792C233.822 19.347 234.128 19.0164 234.541 18.4874L234.911 18.6858C234.307 19.5799 233.716 20.2097 233.14 20.575C232.7 20.8584 232.267 21 231.841 21C231.401 21 231.034 20.9119 230.738 20.7355C230.45 20.5529 230.193 20.2601 229.966 19.857C229.739 19.4477 229.471 18.7959 229.162 17.9017C228.358 18.84 227.726 19.5264 227.266 19.9609C226.813 20.3892 226.435 20.6694 226.133 20.8017C225.83 20.9339 225.508 21 225.165 21C224.807 21 224.525 20.9056 224.32 20.7167C224.107 20.5278 224 20.2821 224 19.9799C224 19.6587 224.114 19.3942 224.341 19.1863C224.567 18.9786 224.856 18.8747 225.206 18.8747C225.392 18.8747 225.6 18.9251 225.835 19.0258C226.178 19.1769 226.426 19.2525 226.576 19.2525C226.776 19.2525 226.954 19.2147 227.112 19.1391C227.318 19.0447 227.579 18.84 227.895 18.5251C228.087 18.3299 228.441 17.9142 228.957 17.2782C228.297 15.0364 227.781 13.695 227.411 13.2541C227.177 12.9708 226.882 12.8291 226.525 12.8291C226.339 12.8291 226.112 12.8542 225.844 12.9046L225.917 12.5457ZM239.518 15.3767C238.449 15.3767 237.598 15.0285 236.965 14.3321C236.346 13.6228 236.037 12.5651 236.037 11.1594C236.037 10.4629 236.114 9.85673 236.269 9.34085C236.438 8.81206 236.67 8.38001 236.965 8.04468C237.274 7.69645 237.64 7.4385 238.062 7.27084C238.498 7.09028 238.984 7 239.518 7C240.601 7 241.452 7.34822 242.072 8.04468C242.69 8.72823 243 9.76645 243 11.1594C243 11.8558 242.916 12.4684 242.747 12.9972C242.592 13.526 242.36 13.971 242.05 14.3321C241.755 14.6803 241.389 14.9447 240.953 15.1253C240.531 15.2929 240.052 15.3767 239.518 15.3767ZM239.518 13.9258C239.757 13.9258 239.968 13.8743 240.151 13.771C240.334 13.655 240.482 13.4873 240.595 13.2681C240.721 13.0359 240.812 12.7457 240.869 12.3975C240.925 12.0493 240.953 11.6365 240.953 11.1594C240.953 10.2049 240.833 9.51496 240.595 9.08935C240.369 8.66374 240.01 8.45094 239.518 8.45094C239.279 8.45094 239.068 8.50252 238.885 8.6057C238.702 8.70889 238.548 8.87009 238.421 9.08935C238.308 9.30861 238.224 9.59234 238.168 9.94057C238.111 10.2759 238.084 10.6822 238.084 11.1594C238.084 12.1138 238.203 12.8166 238.442 13.2681C238.681 13.7065 239.039 13.9258 239.518 13.9258Z" fill="#F57A7A"/>
<path d="M130 71.5H119L128.5 60" stroke="#2AD3F5" stroke-width="2" stroke-linecap="round" stroke-linejoin="round"/>
<path d="M237 71.5H226L235.5 60" stroke="#F57A7A" stroke-width="2" stroke-linecap="round" stroke-linejoin="round"/>
<path d="M134.764 73.16C134.444 73.16 134.184 73.0867 133.984 72.94C133.797 72.7933 133.684 72.6 133.644 72.36C133.604 72.1067 133.651 71.8267 133.784 71.52L139.064 59.82C139.237 59.4333 139.444 59.16 139.684 59C139.937 58.8267 140.224 58.74 140.544 58.74C140.851 58.74 141.124 58.8267 141.364 59C141.617 59.16 141.831 59.4333 142.004 59.82L147.304 71.52C147.451 71.8267 147.504 72.1067 147.464 72.36C147.424 72.6133 147.311 72.8133 147.124 72.96C146.937 73.0933 146.691 73.16 146.384 73.16C146.011 73.16 145.717 73.0733 145.504 72.9C145.304 72.7133 145.124 72.4333 144.964 72.06L143.664 69.04L144.744 69.74H136.304L137.384 69.04L136.104 72.06C135.931 72.4467 135.751 72.7267 135.564 72.9C135.377 73.0733 135.111 73.16 134.764 73.16ZM140.504 61.68L137.704 68.34L137.184 67.7H143.864L143.364 68.34L140.544 61.68H140.504Z" fill="#2AD3F5"/>
<path d="M155.256 66.14C154.976 66.14 154.756 66.0667 154.596 65.92C154.436 65.76 154.356 65.54 154.356 65.26C154.356 64.98 154.436 64.7667 154.596 64.62C154.756 64.46 154.976 64.38 155.256 64.38H163.536C163.83 64.38 164.05 64.46 164.196 64.62C164.356 64.7667 164.436 64.98 164.436 65.26C164.436 65.54 164.356 65.76 164.196 65.92C164.05 66.0667 163.83 66.14 163.536 66.14H155.256ZM155.256 70.12C154.976 70.12 154.756 70.0467 154.596 69.9C154.436 69.74 154.356 69.52 154.356 69.24C154.356 68.96 154.436 68.7467 154.596 68.6C154.756 68.4533 154.976 68.38 155.256 68.38H163.536C163.83 68.38 164.05 68.4533 164.196 68.6C164.356 68.7467 164.436 68.96 164.436 69.24C164.436 69.5333 164.356 69.7533 164.196 69.9C164.05 70.0467 163.83 70.12 163.536 70.12H155.256ZM175.718 73.2C175.145 73.2 174.552 73.1133 173.938 72.94C173.325 72.7533 172.752 72.48 172.218 72.12C172.005 71.9867 171.865 71.8133 171.798 71.6C171.732 71.3867 171.718 71.18 171.758 70.98C171.812 70.7667 171.905 70.5867 172.038 70.44C172.185 70.28 172.365 70.1867 172.578 70.16C172.792 70.12 173.025 70.1733 173.278 70.32C173.732 70.5867 174.158 70.7733 174.558 70.88C174.958 70.9867 175.358 71.04 175.758 71.04C176.532 71.04 177.185 70.86 177.718 70.5C178.252 70.14 178.652 69.6 178.918 68.88C179.198 68.1467 179.338 67.2467 179.338 66.18V64.68H179.578C179.485 65.3467 179.265 65.9267 178.918 66.42C178.572 66.9133 178.132 67.2933 177.598 67.56C177.065 67.8133 176.472 67.94 175.818 67.94C175.018 67.94 174.298 67.7467 173.658 67.36C173.032 66.9733 172.538 66.44 172.178 65.76C171.818 65.0667 171.638 64.2867 171.638 63.42C171.638 62.5 171.832 61.6867 172.218 60.98C172.618 60.2733 173.172 59.72 173.878 59.32C174.585 58.9067 175.392 58.7 176.298 58.7C177.472 58.7 178.465 58.9733 179.278 59.52C180.092 60.0667 180.712 60.8667 181.138 61.92C181.565 62.96 181.778 64.22 181.778 65.7C181.778 66.9 181.638 67.9667 181.358 68.9C181.092 69.82 180.698 70.6 180.178 71.24C179.658 71.88 179.018 72.3667 178.258 72.7C177.512 73.0333 176.665 73.2 175.718 73.2ZM176.458 65.9C176.938 65.9 177.358 65.7933 177.718 65.58C178.092 65.3533 178.378 65.0467 178.578 64.66C178.778 64.26 178.878 63.8067 178.878 63.3C178.878 62.78 178.778 62.3267 178.578 61.94C178.378 61.5533 178.092 61.2533 177.718 61.04C177.358 60.8267 176.938 60.72 176.458 60.72C175.978 60.72 175.558 60.8267 175.198 61.04C174.838 61.2533 174.552 61.5533 174.338 61.94C174.138 62.3267 174.038 62.78 174.038 63.3C174.038 63.8067 174.138 64.26 174.338 64.66C174.552 65.0467 174.838 65.3533 175.198 65.58C175.558 65.7933 175.978 65.9 176.458 65.9ZM188.811 73.2C187.144 73.2 185.871 72.5733 184.991 71.32C184.111 70.0533 183.671 68.2533 183.671 65.92C183.671 64.3467 183.864 63.0267 184.251 61.96C184.651 60.88 185.231 60.0667 185.991 59.52C186.764 58.9733 187.704 58.7 188.811 58.7C190.491 58.7 191.764 59.3133 192.631 60.54C193.511 61.7667 193.951 63.5533 193.951 65.9C193.951 67.46 193.751 68.7867 193.351 69.88C192.964 70.96 192.391 71.7867 191.631 72.36C190.871 72.92 189.931 73.2 188.811 73.2ZM188.811 71.1C189.717 71.1 190.384 70.68 190.811 69.84C191.251 69 191.471 67.6867 191.471 65.9C191.471 64.1133 191.251 62.82 190.811 62.02C190.384 61.2067 189.717 60.8 188.811 60.8C187.917 60.8 187.251 61.2067 186.811 62.02C186.371 62.82 186.151 64.1133 186.151 65.9C186.151 67.6867 186.371 69 186.811 69.84C187.251 70.68 187.917 71.1 188.811 71.1ZM198.603 67.46C197.589 67.46 196.783 67.1 196.183 66.38C195.596 65.6467 195.303 64.5533 195.303 63.1C195.303 62.38 195.376 61.7533 195.523 61.22C195.683 60.6733 195.903 60.2267 196.183 59.88C196.476 59.52 196.823 59.2533 197.223 59.08C197.636 58.8933 198.096 58.8 198.603 58.8C199.629 58.8 200.436 59.16 201.023 59.88C201.609 60.5867 201.903 61.66 201.903 63.1C201.903 63.82 201.823 64.4533 201.663 65C201.516 65.5467 201.296 66.0067 201.003 66.38C200.723 66.74 200.376 67.0133 199.963 67.2C199.563 67.3733 199.109 67.46 198.603 67.46ZM198.603 65.96C198.829 65.96 199.029 65.9067 199.203 65.8C199.376 65.68 199.516 65.5067 199.623 65.28C199.743 65.04 199.829 64.74 199.883 64.38C199.936 64.02 199.963 63.5933 199.963 63.1C199.963 62.1133 199.849 61.4 199.623 60.96C199.409 60.52 199.069 60.3 198.603 60.3C198.376 60.3 198.176 60.3533 198.003 60.46C197.829 60.5667 197.683 60.7333 197.563 60.96C197.456 61.1867 197.376 61.48 197.323 61.84C197.269 62.1867 197.243 62.6067 197.243 63.1C197.243 64.0867 197.356 64.8133 197.583 65.28C197.809 65.7333 198.149 65.96 198.603 65.96ZM208.47 68.4C208.243 68.4 208.05 68.3267 207.89 68.18C207.743 68.0333 207.67 67.8533 207.67 67.64C207.67 67.4267 207.743 67.2533 207.89 67.12C208.05 66.9733 208.243 66.9 208.47 66.9H217.21C217.437 66.9 217.623 66.9733 217.77 67.12C217.917 67.2533 217.99 67.4267 217.99 67.64C217.99 67.8533 217.917 68.0333 217.77 68.18C217.623 68.3267 217.437 68.4 217.21 68.4H208.47Z" fill="#646464"/>
<path d="M242.449 73C242.009 73 241.669 72.8867 241.429 72.66C241.202 72.42 241.089 72.08 241.089 71.64V60.26C241.089 59.82 241.202 59.4867 241.429 59.26C241.669 59.02 242.009 58.9 242.449 58.9H247.249C248.235 58.9 249.075 59.0467 249.769 59.34C250.462 59.6333 250.989 60.0533 251.349 60.6C251.722 61.1467 251.909 61.8 251.909 62.56C251.909 63.4133 251.662 64.1333 251.169 64.72C250.675 65.3067 250.002 65.7 249.149 65.9V65.6C250.135 65.7467 250.902 66.12 251.449 66.72C251.995 67.32 252.269 68.1 252.269 69.06C252.269 70.3133 251.842 71.2867 250.989 71.98C250.149 72.66 248.975 73 247.469 73H242.449ZM243.549 71.06H247.149C248.055 71.06 248.722 70.8867 249.149 70.54C249.575 70.18 249.789 69.6467 249.789 68.94C249.789 68.22 249.575 67.6867 249.149 67.34C248.722 66.9933 248.055 66.82 247.149 66.82H243.549V71.06ZM243.549 64.88H246.809C247.689 64.88 248.342 64.7133 248.769 64.38C249.209 64.0333 249.429 63.5267 249.429 62.86C249.429 62.1933 249.209 61.6933 248.769 61.36C248.342 61.0133 247.689 60.84 246.809 60.84H243.549V64.88ZM257.118 67.46C256.105 67.46 255.298 67.1 254.698 66.38C254.112 65.6467 253.818 64.5533 253.818 63.1C253.818 62.38 253.892 61.7533 254.038 61.22C254.198 60.6733 254.418 60.2267 254.698 59.88C254.992 59.52 255.338 59.2533 255.738 59.08C256.152 58.8933 256.612 58.8 257.118 58.8C258.145 58.8 258.952 59.16 259.538 59.88C260.125 60.5867 260.418 61.66 260.418 63.1C260.418 63.82 260.338 64.4533 260.178 65C260.032 65.5467 259.812 66.0067 259.518 66.38C259.238 66.74 258.892 67.0133 258.478 67.2C258.078 67.3733 257.625 67.46 257.118 67.46ZM257.118 65.96C257.345 65.96 257.545 65.9067 257.718 65.8C257.892 65.68 258.032 65.5067 258.138 65.28C258.258 65.04 258.345 64.74 258.398 64.38C258.452 64.02 258.478 63.5933 258.478 63.1C258.478 62.1133 258.365 61.4 258.138 60.96C257.925 60.52 257.585 60.3 257.118 60.3C256.892 60.3 256.692 60.3533 256.518 60.46C256.345 60.5667 256.198 60.7333 256.078 60.96C255.972 61.1867 255.892 61.48 255.838 61.84C255.785 62.1867 255.758 62.6067 255.758 63.1C255.758 64.0867 255.872 64.8133 256.098 65.28C256.325 65.7333 256.665 65.96 257.118 65.96Z" fill="#F57A7A"/>
</svg>
