<svg width="190" height="67" viewBox="0 0 190 67" fill="none" xmlns="http://www.w3.org/2000/svg">
<rect x="0.25" y="7.25" width="177.5" height="47.5" rx="7.75" fill="white"/>
<path d="M18.4986 36.144C17.3892 36.144 16.4399 35.9093 15.6506 35.44C14.8612 34.9707 14.2532 34.304 13.8266 33.44C13.4106 32.576 13.2026 31.5467 13.2026 30.352C13.2026 29.456 13.3199 28.656 13.5546 27.952C13.7999 27.2373 14.1466 26.6347 14.5946 26.144C15.0532 25.6427 15.6132 25.2587 16.2746 24.992C16.9359 24.7147 17.6772 24.576 18.4986 24.576C19.1599 24.576 19.7892 24.672 20.3866 24.864C20.9839 25.0453 21.5012 25.3173 21.9386 25.68C22.0772 25.7867 22.1679 25.9093 22.2106 26.048C22.2639 26.176 22.2692 26.304 22.2266 26.432C22.1946 26.5493 22.1306 26.6507 22.0346 26.736C21.9492 26.8107 21.8426 26.848 21.7146 26.848C21.5866 26.848 21.4426 26.7947 21.2826 26.688C20.8986 26.3787 20.4772 26.1493 20.0186 26C19.5599 25.8507 19.0639 25.776 18.5306 25.776C17.6879 25.776 16.9732 25.9573 16.3866 26.32C15.7999 26.672 15.3572 27.1893 15.0586 27.872C14.7599 28.5547 14.6106 29.3813 14.6106 30.352C14.6106 31.3227 14.7599 32.1547 15.0586 32.848C15.3572 33.5307 15.7999 34.0533 16.3866 34.416C16.9732 34.768 17.6879 34.944 18.5306 34.944C19.0532 34.944 19.5492 34.8693 20.0186 34.72C20.4879 34.56 20.9199 34.3253 21.3146 34.016C21.4746 33.9093 21.6186 33.8613 21.7466 33.872C21.8746 33.872 21.9812 33.9093 22.0666 33.984C22.1519 34.0587 22.2106 34.1547 22.2426 34.272C22.2852 34.3893 22.2852 34.512 22.2426 34.64C22.2106 34.768 22.1306 34.88 22.0026 34.976C21.5546 35.36 21.0266 35.6533 20.4186 35.856C19.8212 36.048 19.1812 36.144 18.4986 36.144ZM24.8482 36.112C24.6349 36.112 24.4749 36.0533 24.3682 35.936C24.2615 35.8187 24.2082 35.6533 24.2082 35.44V25.264C24.2082 25.0507 24.2615 24.8907 24.3682 24.784C24.4749 24.6667 24.6349 24.608 24.8482 24.608C25.0509 24.608 25.2109 24.6667 25.3282 24.784C25.4455 24.8907 25.5042 25.0507 25.5042 25.264V29.952H25.2962C25.5202 29.3333 25.8829 28.8693 26.3842 28.56C26.8962 28.24 27.4829 28.08 28.1442 28.08C28.7629 28.08 29.2749 28.192 29.6802 28.416C30.0962 28.64 30.4055 28.9813 30.6082 29.44C30.8109 29.888 30.9122 30.4587 30.9122 31.152V35.44C30.9122 35.6533 30.8535 35.8187 30.7362 35.936C30.6295 36.0533 30.4749 36.112 30.2722 36.112C30.0589 36.112 29.8935 36.0533 29.7762 35.936C29.6695 35.8187 29.6162 35.6533 29.6162 35.44V31.232C29.6162 30.5067 29.4722 29.9787 29.1842 29.648C28.9069 29.3067 28.4589 29.136 27.8402 29.136C27.1255 29.136 26.5549 29.36 26.1282 29.808C25.7122 30.2453 25.5042 30.832 25.5042 31.568V35.44C25.5042 35.888 25.2855 36.112 24.8482 36.112ZM35.7499 36.144C35.2166 36.144 34.7366 36.0427 34.3099 35.84C33.8939 35.6267 33.5633 35.3387 33.3179 34.976C33.0726 34.6133 32.9499 34.208 32.9499 33.76C32.9499 33.184 33.0939 32.7307 33.3819 32.4C33.6806 32.0693 34.1659 31.8347 34.8379 31.696C35.5206 31.5573 36.4486 31.488 37.6219 31.488H38.3419V32.336H37.6379C36.7739 32.336 36.0913 32.3787 35.5899 32.464C35.0993 32.5387 34.7526 32.672 34.5499 32.864C34.3579 33.056 34.2619 33.328 34.2619 33.68C34.2619 34.1173 34.4113 34.4747 34.7099 34.752C35.0193 35.0293 35.4353 35.168 35.9579 35.168C36.3846 35.168 36.7579 35.0667 37.0779 34.864C37.4086 34.6613 37.6646 34.384 37.8459 34.032C38.0379 33.68 38.1339 33.2747 38.1339 32.816V30.992C38.1339 30.3307 38.0006 29.856 37.7339 29.568C37.4673 29.2693 37.0299 29.12 36.4219 29.12C36.0486 29.12 35.6753 29.168 35.3019 29.264C34.9286 29.36 34.5339 29.5147 34.1179 29.728C33.9686 29.8027 33.8406 29.8293 33.7339 29.808C33.6273 29.776 33.5419 29.7173 33.4779 29.632C33.4139 29.5467 33.3766 29.4507 33.3659 29.344C33.3553 29.2267 33.3766 29.1147 33.4299 29.008C33.4939 28.9013 33.5899 28.816 33.7179 28.752C34.1873 28.5173 34.6513 28.3467 35.1099 28.24C35.5686 28.1333 36.0059 28.08 36.4219 28.08C37.0939 28.08 37.6486 28.192 38.0859 28.416C38.5233 28.6293 38.8486 28.96 39.0619 29.408C39.2753 29.8453 39.3819 30.4107 39.3819 31.104V35.44C39.3819 35.6533 39.3286 35.8187 39.2219 35.936C39.1259 36.0533 38.9819 36.112 38.7899 36.112C38.5873 36.112 38.4326 36.0533 38.3259 35.936C38.2193 35.8187 38.1659 35.6533 38.1659 35.44V34.192H38.3099C38.2246 34.5973 38.0593 34.944 37.8139 35.232C37.5793 35.52 37.2859 35.744 36.9339 35.904C36.5819 36.064 36.1873 36.144 35.7499 36.144ZM42.4263 36.112C42.213 36.112 42.053 36.0533 41.9463 35.936C41.8396 35.8187 41.7863 35.6533 41.7863 35.44V28.768C41.7863 28.5547 41.8396 28.3947 41.9463 28.288C42.053 28.1707 42.2076 28.112 42.4103 28.112C42.613 28.112 42.7676 28.1707 42.8743 28.288C42.9916 28.3947 43.0503 28.5547 43.0503 28.768V30.144L42.8743 29.952C43.0983 29.3333 43.461 28.8693 43.9623 28.56C44.4743 28.24 45.061 28.08 45.7223 28.08C46.341 28.08 46.853 28.192 47.2583 28.416C47.6743 28.64 47.9836 28.9813 48.1863 29.44C48.389 29.888 48.4903 30.4587 48.4903 31.152V35.44C48.4903 35.6533 48.4316 35.8187 48.3143 35.936C48.2076 36.0533 48.053 36.112 47.8503 36.112C47.637 36.112 47.4716 36.0533 47.3543 35.936C47.2476 35.8187 47.1943 35.6533 47.1943 35.44V31.232C47.1943 30.5067 47.0503 29.9787 46.7623 29.648C46.485 29.3067 46.037 29.136 45.4183 29.136C44.7036 29.136 44.133 29.36 43.7063 29.808C43.2903 30.2453 43.0823 30.832 43.0823 31.568V35.44C43.0823 35.888 42.8636 36.112 42.4263 36.112ZM54.3201 39.024C53.7547 39.024 53.2001 38.9547 52.6561 38.816C52.1227 38.688 51.6374 38.48 51.2001 38.192C51.0721 38.1173 50.9867 38.0267 50.9441 37.92C50.9121 37.8133 50.9067 37.7067 50.9281 37.6C50.9494 37.504 50.9974 37.4133 51.0721 37.328C51.1467 37.2533 51.2321 37.2053 51.3281 37.184C51.4347 37.1627 51.5414 37.1787 51.6481 37.232C52.1174 37.52 52.5654 37.7173 52.9921 37.824C53.4187 37.9307 53.8401 37.984 54.2561 37.984C55.0134 37.984 55.5841 37.7813 55.9681 37.376C56.3627 36.9707 56.5601 36.384 56.5601 35.616V33.808H56.7201C56.5601 34.4267 56.2187 34.9173 55.6961 35.28C55.1841 35.6427 54.5814 35.824 53.8881 35.824C53.1734 35.824 52.5547 35.664 52.0321 35.344C51.5094 35.0133 51.1041 34.5547 50.8161 33.968C50.5387 33.3813 50.4001 32.704 50.4001 31.936C50.4001 31.36 50.4801 30.8373 50.6401 30.368C50.8001 29.888 51.0294 29.4827 51.3281 29.152C51.6374 28.8107 52.0054 28.5493 52.4321 28.368C52.8694 28.176 53.3547 28.08 53.8881 28.08C54.5921 28.08 55.2001 28.2613 55.7121 28.624C56.2241 28.976 56.5547 29.456 56.7041 30.064L56.5441 30.256V28.768C56.5441 28.5547 56.5974 28.3947 56.7041 28.288C56.8214 28.1707 56.9814 28.112 57.1841 28.112C57.3974 28.112 57.5574 28.1707 57.6641 28.288C57.7707 28.3947 57.8241 28.5547 57.8241 28.768V35.44C57.8241 36.624 57.5254 37.5147 56.9281 38.112C56.3414 38.72 55.4721 39.024 54.3201 39.024ZM54.1281 34.768C54.6294 34.768 55.0614 34.656 55.4241 34.432C55.7867 34.1973 56.0641 33.8667 56.2561 33.44C56.4587 33.0133 56.5601 32.512 56.5601 31.936C56.5601 31.072 56.3414 30.3893 55.9041 29.888C55.4667 29.376 54.8747 29.12 54.1281 29.12C53.6374 29.12 53.2107 29.2373 52.8481 29.472C52.4854 29.696 52.2027 30.0213 52.0001 30.448C51.8081 30.864 51.7121 31.36 51.7121 31.936C51.7121 32.8 51.9307 33.488 52.3681 34C52.8054 34.512 53.3921 34.768 54.1281 34.768ZM60.8951 36.08C60.6817 36.08 60.5217 36.0213 60.4151 35.904C60.3084 35.776 60.2551 35.6 60.2551 35.376V28.832C60.2551 28.608 60.3084 28.4373 60.4151 28.32C60.5217 28.2027 60.6817 28.144 60.8951 28.144C61.0977 28.144 61.2577 28.2027 61.3751 28.32C61.4924 28.4373 61.5511 28.608 61.5511 28.832V35.376C61.5511 35.6 61.4924 35.776 61.3751 35.904C61.2684 36.0213 61.1084 36.08 60.8951 36.08ZM60.8951 26.352C60.6284 26.352 60.4204 26.2827 60.2711 26.144C60.1217 25.9947 60.0471 25.7973 60.0471 25.552C60.0471 25.296 60.1217 25.104 60.2711 24.976C60.4204 24.8373 60.6284 24.768 60.8951 24.768C61.1724 24.768 61.3804 24.8373 61.5191 24.976C61.6684 25.104 61.7431 25.296 61.7431 25.552C61.7431 25.7973 61.6684 25.9947 61.5191 26.144C61.3804 26.2827 61.1724 26.352 60.8951 26.352ZM64.6138 36.112C64.4005 36.112 64.2405 36.0533 64.1338 35.936C64.0271 35.8187 63.9738 35.6533 63.9738 35.44V28.768C63.9738 28.5547 64.0271 28.3947 64.1338 28.288C64.2405 28.1707 64.3951 28.112 64.5978 28.112C64.8005 28.112 64.9551 28.1707 65.0618 28.288C65.1791 28.3947 65.2378 28.5547 65.2378 28.768V30.144L65.0618 29.952C65.2858 29.3333 65.6485 28.8693 66.1498 28.56C66.6618 28.24 67.2485 28.08 67.9098 28.08C68.5285 28.08 69.0405 28.192 69.4458 28.416C69.8618 28.64 70.1711 28.9813 70.3738 29.44C70.5765 29.888 70.6778 30.4587 70.6778 31.152V35.44C70.6778 35.6533 70.6191 35.8187 70.5018 35.936C70.3951 36.0533 70.2405 36.112 70.0378 36.112C69.8245 36.112 69.6591 36.0533 69.5418 35.936C69.4351 35.8187 69.3818 35.6533 69.3818 35.44V31.232C69.3818 30.5067 69.2378 29.9787 68.9498 29.648C68.6725 29.3067 68.2245 29.136 67.6058 29.136C66.8911 29.136 66.3205 29.36 65.8938 29.808C65.4778 30.2453 65.2698 30.832 65.2698 31.568V35.44C65.2698 35.888 65.0511 36.112 64.6138 36.112ZM76.5076 39.024C75.9422 39.024 75.3876 38.9547 74.8436 38.816C74.3102 38.688 73.8249 38.48 73.3876 38.192C73.2596 38.1173 73.1742 38.0267 73.1316 37.92C73.0996 37.8133 73.0942 37.7067 73.1156 37.6C73.1369 37.504 73.1849 37.4133 73.2596 37.328C73.3342 37.2533 73.4196 37.2053 73.5156 37.184C73.6222 37.1627 73.7289 37.1787 73.8356 37.232C74.3049 37.52 74.7529 37.7173 75.1796 37.824C75.6062 37.9307 76.0276 37.984 76.4436 37.984C77.2009 37.984 77.7716 37.7813 78.1556 37.376C78.5502 36.9707 78.7476 36.384 78.7476 35.616V33.808H78.9076C78.7476 34.4267 78.4062 34.9173 77.8836 35.28C77.3716 35.6427 76.7689 35.824 76.0756 35.824C75.3609 35.824 74.7422 35.664 74.2196 35.344C73.6969 35.0133 73.2916 34.5547 73.0036 33.968C72.7262 33.3813 72.5876 32.704 72.5876 31.936C72.5876 31.36 72.6676 30.8373 72.8276 30.368C72.9876 29.888 73.2169 29.4827 73.5156 29.152C73.8249 28.8107 74.1929 28.5493 74.6196 28.368C75.0569 28.176 75.5422 28.08 76.0756 28.08C76.7796 28.08 77.3876 28.2613 77.8996 28.624C78.4116 28.976 78.7422 29.456 78.8916 30.064L78.7316 30.256V28.768C78.7316 28.5547 78.7849 28.3947 78.8916 28.288C79.0089 28.1707 79.1689 28.112 79.3716 28.112C79.5849 28.112 79.7449 28.1707 79.8516 28.288C79.9582 28.3947 80.0116 28.5547 80.0116 28.768V35.44C80.0116 36.624 79.7129 37.5147 79.1156 38.112C78.5289 38.72 77.6596 39.024 76.5076 39.024ZM76.3156 34.768C76.8169 34.768 77.2489 34.656 77.6116 34.432C77.9742 34.1973 78.2516 33.8667 78.4436 33.44C78.6462 33.0133 78.7476 32.512 78.7476 31.936C78.7476 31.072 78.5289 30.3893 78.0916 29.888C77.6542 29.376 77.0622 29.12 76.3156 29.12C75.8249 29.12 75.3982 29.2373 75.0356 29.472C74.6729 29.696 74.3902 30.0213 74.1876 30.448C73.9956 30.864 73.8996 31.36 73.8996 31.936C73.8996 32.8 74.1182 33.488 74.5556 34C74.9929 34.512 75.5796 34.768 76.3156 34.768ZM89.6876 36.144C89.0796 36.144 88.5676 36.0373 88.1516 35.824C87.7462 35.6 87.4422 35.28 87.2396 34.864C87.0369 34.4373 86.9356 33.92 86.9356 33.312V29.232H85.8636C85.6822 29.232 85.5436 29.1893 85.4476 29.104C85.3516 29.008 85.3036 28.88 85.3036 28.72C85.3036 28.56 85.3516 28.4373 85.4476 28.352C85.5436 28.2667 85.6822 28.224 85.8636 28.224H86.9356V26.384C86.9356 26.1707 86.9942 26.0107 87.1116 25.904C87.2289 25.7867 87.3889 25.728 87.5916 25.728C87.7942 25.728 87.9489 25.7867 88.0556 25.904C88.1729 26.0107 88.2316 26.1707 88.2316 26.384V28.224H90.2476C90.4289 28.224 90.5676 28.2667 90.6636 28.352C90.7596 28.4373 90.8076 28.56 90.8076 28.72C90.8076 28.88 90.7596 29.008 90.6636 29.104C90.5676 29.1893 90.4289 29.232 90.2476 29.232H88.2316V33.184C88.2316 33.792 88.3596 34.256 88.6156 34.576C88.8716 34.8853 89.2876 35.04 89.8636 35.04C90.0662 35.04 90.2369 35.0187 90.3756 34.976C90.5249 34.9333 90.6476 34.912 90.7436 34.912C90.8396 34.9013 90.9196 34.9333 90.9836 35.008C91.0476 35.0827 91.0796 35.2107 91.0796 35.392C91.0796 35.52 91.0529 35.6373 90.9996 35.744C90.9569 35.8507 90.8769 35.9253 90.7596 35.968C90.6316 36.0107 90.4609 36.048 90.2476 36.08C90.0449 36.1227 89.8582 36.144 89.6876 36.144ZM95.3152 36.144C94.5579 36.144 93.9019 35.9787 93.3472 35.648C92.7925 35.3173 92.3605 34.8533 92.0512 34.256C91.7525 33.648 91.6032 32.9333 91.6032 32.112C91.6032 31.4933 91.6885 30.9387 91.8592 30.448C92.0299 29.9467 92.2805 29.52 92.6112 29.168C92.9419 28.816 93.3312 28.5493 93.7792 28.368C94.2379 28.176 94.7499 28.08 95.3152 28.08C96.0725 28.08 96.7285 28.2453 97.2832 28.576C97.8379 28.9067 98.2645 29.376 98.5632 29.984C98.8725 30.5813 99.0272 31.2907 99.0272 32.112C99.0272 32.7307 98.9419 33.2853 98.7712 33.776C98.6005 34.2667 98.3499 34.6933 98.0192 35.056C97.6885 35.408 97.2939 35.68 96.8352 35.872C96.3872 36.0533 95.8805 36.144 95.3152 36.144ZM95.3152 35.104C95.7952 35.104 96.2165 34.9867 96.5792 34.752C96.9419 34.5173 97.2192 34.176 97.4112 33.728C97.6139 33.28 97.7152 32.7413 97.7152 32.112C97.7152 31.1413 97.4965 30.4 97.0592 29.888C96.6325 29.376 96.0512 29.12 95.3152 29.12C94.8245 29.12 94.3979 29.2373 94.0352 29.472C93.6832 29.696 93.4059 30.032 93.2032 30.48C93.0112 30.9173 92.9152 31.4613 92.9152 32.112C92.9152 33.072 93.1339 33.8133 93.5712 34.336C94.0085 34.848 94.5899 35.104 95.3152 35.104ZM107.547 36.144C107.013 36.144 106.533 36.0427 106.107 35.84C105.691 35.6267 105.36 35.3387 105.115 34.976C104.869 34.6133 104.747 34.208 104.747 33.76C104.747 33.184 104.891 32.7307 105.179 32.4C105.477 32.0693 105.963 31.8347 106.635 31.696C107.317 31.5573 108.245 31.488 109.419 31.488H110.139V32.336H109.435C108.571 32.336 107.888 32.3787 107.387 32.464C106.896 32.5387 106.549 32.672 106.347 32.864C106.155 33.056 106.059 33.328 106.059 33.68C106.059 34.1173 106.208 34.4747 106.507 34.752C106.816 35.0293 107.232 35.168 107.755 35.168C108.181 35.168 108.555 35.0667 108.875 34.864C109.205 34.6613 109.461 34.384 109.643 34.032C109.835 33.68 109.931 33.2747 109.931 32.816V30.992C109.931 30.3307 109.797 29.856 109.531 29.568C109.264 29.2693 108.827 29.12 108.219 29.12C107.845 29.12 107.472 29.168 107.099 29.264C106.725 29.36 106.331 29.5147 105.915 29.728C105.765 29.8027 105.637 29.8293 105.531 29.808C105.424 29.776 105.339 29.7173 105.275 29.632C105.211 29.5467 105.173 29.4507 105.163 29.344C105.152 29.2267 105.173 29.1147 105.227 29.008C105.291 28.9013 105.387 28.816 105.515 28.752C105.984 28.5173 106.448 28.3467 106.907 28.24C107.365 28.1333 107.803 28.08 108.219 28.08C108.891 28.08 109.445 28.192 109.883 28.416C110.32 28.6293 110.645 28.96 110.859 29.408C111.072 29.8453 111.179 30.4107 111.179 31.104V35.44C111.179 35.6533 111.125 35.8187 111.019 35.936C110.923 36.0533 110.779 36.112 110.587 36.112C110.384 36.112 110.229 36.0533 110.123 35.936C110.016 35.8187 109.963 35.6533 109.963 35.44V34.192H110.107C110.021 34.5973 109.856 34.944 109.611 35.232C109.376 35.52 109.083 35.744 108.731 35.904C108.379 36.064 107.984 36.144 107.547 36.144ZM116.543 36.144C115.85 36.144 115.242 35.9787 114.719 35.648C114.207 35.3173 113.807 34.8533 113.519 34.256C113.242 33.648 113.103 32.9333 113.103 32.112C113.103 31.28 113.242 30.5653 113.519 29.968C113.807 29.36 114.207 28.896 114.719 28.576C115.242 28.2453 115.85 28.08 116.543 28.08C117.247 28.08 117.85 28.256 118.351 28.608C118.853 28.96 119.189 29.4347 119.359 30.032H119.183V25.264C119.183 25.0507 119.237 24.8907 119.343 24.784C119.461 24.6667 119.626 24.608 119.839 24.608C120.042 24.608 120.197 24.6667 120.303 24.784C120.421 24.8907 120.479 25.0507 120.479 25.264V35.44C120.479 35.6533 120.426 35.8187 120.319 35.936C120.213 36.0533 120.053 36.112 119.839 36.112C119.637 36.112 119.477 36.0533 119.359 35.936C119.253 35.8187 119.199 35.6533 119.199 35.44V33.92L119.375 34.144C119.205 34.752 118.863 35.2373 118.351 35.6C117.85 35.9627 117.247 36.144 116.543 36.144ZM116.815 35.104C117.295 35.104 117.717 34.9867 118.079 34.752C118.442 34.5173 118.719 34.176 118.911 33.728C119.114 33.28 119.215 32.7413 119.215 32.112C119.215 31.1413 118.997 30.4 118.559 29.888C118.133 29.376 117.551 29.12 116.815 29.12C116.325 29.12 115.898 29.2373 115.535 29.472C115.183 29.696 114.906 30.032 114.703 30.48C114.511 30.9173 114.415 31.4613 114.415 32.112C114.415 33.072 114.634 33.8133 115.071 34.336C115.509 34.848 116.09 35.104 116.815 35.104ZM125.871 36.144C125.178 36.144 124.57 35.9787 124.047 35.648C123.535 35.3173 123.135 34.8533 122.847 34.256C122.57 33.648 122.431 32.9333 122.431 32.112C122.431 31.28 122.57 30.5653 122.847 29.968C123.135 29.36 123.535 28.896 124.047 28.576C124.57 28.2453 125.178 28.08 125.871 28.08C126.575 28.08 127.178 28.256 127.679 28.608C128.181 28.96 128.517 29.4347 128.687 30.032H128.511V25.264C128.511 25.0507 128.565 24.8907 128.671 24.784C128.789 24.6667 128.954 24.608 129.167 24.608C129.37 24.608 129.525 24.6667 129.631 24.784C129.749 24.8907 129.807 25.0507 129.807 25.264V35.44C129.807 35.6533 129.754 35.8187 129.647 35.936C129.541 36.0533 129.381 36.112 129.167 36.112C128.965 36.112 128.805 36.0533 128.687 35.936C128.581 35.8187 128.527 35.6533 128.527 35.44V33.92L128.703 34.144C128.533 34.752 128.191 35.2373 127.679 35.6C127.178 35.9627 126.575 36.144 125.871 36.144ZM126.143 35.104C126.623 35.104 127.045 34.9867 127.407 34.752C127.77 34.5173 128.047 34.176 128.239 33.728C128.442 33.28 128.543 32.7413 128.543 32.112C128.543 31.1413 128.325 30.4 127.887 29.888C127.461 29.376 126.879 29.12 126.143 29.12C125.653 29.12 125.226 29.2373 124.863 29.472C124.511 29.696 124.234 30.032 124.031 30.48C123.839 30.9173 123.743 31.4613 123.743 32.112C123.743 33.072 123.962 33.8133 124.399 34.336C124.837 34.848 125.418 35.104 126.143 35.104ZM132.879 36.08C132.666 36.08 132.506 36.0213 132.399 35.904C132.293 35.776 132.239 35.6 132.239 35.376V28.832C132.239 28.608 132.293 28.4373 132.399 28.32C132.506 28.2027 132.666 28.144 132.879 28.144C133.082 28.144 133.242 28.2027 133.359 28.32C133.477 28.4373 133.535 28.608 133.535 28.832V35.376C133.535 35.6 133.477 35.776 133.359 35.904C133.253 36.0213 133.093 36.08 132.879 36.08ZM132.879 26.352C132.613 26.352 132.405 26.2827 132.255 26.144C132.106 25.9947 132.031 25.7973 132.031 25.552C132.031 25.296 132.106 25.104 132.255 24.976C132.405 24.8373 132.613 24.768 132.879 24.768C133.157 24.768 133.365 24.8373 133.503 24.976C133.653 25.104 133.727 25.296 133.727 25.552C133.727 25.7973 133.653 25.9947 133.503 26.144C133.365 26.2827 133.157 26.352 132.879 26.352ZM139.078 36.144C138.47 36.144 137.958 36.0373 137.542 35.824C137.137 35.6 136.833 35.28 136.63 34.864C136.428 34.4373 136.326 33.92 136.326 33.312V29.232H135.254C135.073 29.232 134.934 29.1893 134.838 29.104C134.742 29.008 134.694 28.88 134.694 28.72C134.694 28.56 134.742 28.4373 134.838 28.352C134.934 28.2667 135.073 28.224 135.254 28.224H136.326V26.384C136.326 26.1707 136.385 26.0107 136.502 25.904C136.62 25.7867 136.78 25.728 136.982 25.728C137.185 25.728 137.34 25.7867 137.446 25.904C137.564 26.0107 137.622 26.1707 137.622 26.384V28.224H139.638C139.82 28.224 139.958 28.2667 140.054 28.352C140.15 28.4373 140.198 28.56 140.198 28.72C140.198 28.88 140.15 29.008 140.054 29.104C139.958 29.1893 139.82 29.232 139.638 29.232H137.622V33.184C137.622 33.792 137.75 34.256 138.006 34.576C138.262 34.8853 138.678 35.04 139.254 35.04C139.457 35.04 139.628 35.0187 139.766 34.976C139.916 34.9333 140.038 34.912 140.134 34.912C140.23 34.9013 140.31 34.9333 140.374 35.008C140.438 35.0827 140.47 35.2107 140.47 35.392C140.47 35.52 140.444 35.6373 140.39 35.744C140.348 35.8507 140.268 35.9253 140.15 35.968C140.022 36.0107 139.852 36.048 139.638 36.08C139.436 36.1227 139.249 36.144 139.078 36.144ZM142.286 36.08C142.072 36.08 141.912 36.0213 141.806 35.904C141.699 35.776 141.646 35.6 141.646 35.376V28.832C141.646 28.608 141.699 28.4373 141.806 28.32C141.912 28.2027 142.072 28.144 142.286 28.144C142.488 28.144 142.648 28.2027 142.766 28.32C142.883 28.4373 142.942 28.608 142.942 28.832V35.376C142.942 35.6 142.883 35.776 142.766 35.904C142.659 36.0213 142.499 36.08 142.286 36.08ZM142.286 26.352C142.019 26.352 141.811 26.2827 141.662 26.144C141.512 25.9947 141.438 25.7973 141.438 25.552C141.438 25.296 141.512 25.104 141.662 24.976C141.811 24.8373 142.019 24.768 142.286 24.768C142.563 24.768 142.771 24.8373 142.91 24.976C143.059 25.104 143.134 25.296 143.134 25.552C143.134 25.7973 143.059 25.9947 142.91 26.144C142.771 26.2827 142.563 26.352 142.286 26.352ZM148.596 36.144C147.839 36.144 147.183 35.9787 146.628 35.648C146.074 35.3173 145.642 34.8533 145.332 34.256C145.034 33.648 144.884 32.9333 144.884 32.112C144.884 31.4933 144.97 30.9387 145.14 30.448C145.311 29.9467 145.562 29.52 145.892 29.168C146.223 28.816 146.612 28.5493 147.06 28.368C147.519 28.176 148.031 28.08 148.596 28.08C149.354 28.08 150.01 28.2453 150.564 28.576C151.119 28.9067 151.546 29.376 151.844 29.984C152.154 30.5813 152.308 31.2907 152.308 32.112C152.308 32.7307 152.223 33.2853 152.052 33.776C151.882 34.2667 151.631 34.6933 151.3 35.056C150.97 35.408 150.575 35.68 150.116 35.872C149.668 36.0533 149.162 36.144 148.596 36.144ZM148.596 35.104C149.076 35.104 149.498 34.9867 149.86 34.752C150.223 34.5173 150.5 34.176 150.692 33.728C150.895 33.28 150.996 32.7413 150.996 32.112C150.996 31.1413 150.778 30.4 150.34 29.888C149.914 29.376 149.332 29.12 148.596 29.12C148.106 29.12 147.679 29.2373 147.316 29.472C146.964 29.696 146.687 30.032 146.484 30.48C146.292 30.9173 146.196 31.4613 146.196 32.112C146.196 33.072 146.415 33.8133 146.852 34.336C147.29 34.848 147.871 35.104 148.596 35.104ZM154.895 36.112C154.682 36.112 154.522 36.0533 154.415 35.936C154.308 35.8187 154.255 35.6533 154.255 35.44V28.768C154.255 28.5547 154.308 28.3947 154.415 28.288C154.522 28.1707 154.676 28.112 154.879 28.112C155.082 28.112 155.236 28.1707 155.343 28.288C155.46 28.3947 155.519 28.5547 155.519 28.768V30.144L155.343 29.952C155.567 29.3333 155.93 28.8693 156.431 28.56C156.943 28.24 157.53 28.08 158.191 28.08C158.81 28.08 159.322 28.192 159.727 28.416C160.143 28.64 160.452 28.9813 160.655 29.44C160.858 29.888 160.959 30.4587 160.959 31.152V35.44C160.959 35.6533 160.9 35.8187 160.783 35.936C160.676 36.0533 160.522 36.112 160.319 36.112C160.106 36.112 159.94 36.0533 159.823 35.936C159.716 35.8187 159.663 35.6533 159.663 35.44V31.232C159.663 30.5067 159.519 29.9787 159.231 29.648C158.954 29.3067 158.506 29.136 157.887 29.136C157.172 29.136 156.602 29.36 156.175 29.808C155.759 30.2453 155.551 30.832 155.551 31.568V35.44C155.551 35.888 155.332 36.112 154.895 36.112ZM163.973 36.064C163.706 36.064 163.493 35.984 163.333 35.824C163.173 35.6533 163.093 35.44 163.093 35.184C163.093 34.928 163.173 34.72 163.333 34.56C163.493 34.3893 163.706 34.304 163.973 34.304C164.239 34.304 164.447 34.3893 164.597 34.56C164.757 34.72 164.837 34.928 164.837 35.184C164.837 35.44 164.757 35.6533 164.597 35.824C164.447 35.984 164.239 36.064 163.973 36.064Z" fill="#444444"/>
<rect x="0.25" y="7.25" width="177.5" height="47.5" rx="7.75" stroke="#1A1A1A" stroke-width="0.5"/>
<circle cx="178" cy="55" r="11.5" fill="white" stroke="#1A1A1A"/>
<path d="M178.016 56.752C177.813 56.752 177.653 56.688 177.536 56.56C177.429 56.432 177.365 56.2507 177.344 56.016L176.864 49.904C176.832 49.5093 176.917 49.1947 177.12 48.96C177.322 48.7147 177.621 48.592 178.016 48.592C178.4 48.592 178.688 48.7147 178.88 48.96C179.082 49.1947 179.168 49.5093 179.136 49.904L178.656 56.016C178.645 56.2507 178.581 56.432 178.464 56.56C178.357 56.688 178.208 56.752 178.016 56.752ZM178.016 60.08C177.653 60.08 177.36 59.968 177.136 59.744C176.922 59.52 176.816 59.232 176.816 58.88C176.816 58.5387 176.922 58.2613 177.136 58.048C177.36 57.824 177.653 57.712 178.016 57.712C178.389 57.712 178.677 57.824 178.88 58.048C179.093 58.2613 179.2 58.5387 179.2 58.88C179.2 59.232 179.093 59.52 178.88 59.744C178.677 59.968 178.389 60.08 178.016 60.08Z" fill="#1A1A1A"/>
<rect width="1" height="12" transform="matrix(0 1 1 0 24 7)" fill="white"/>
<path d="M35.4972 6.91515C35.7872 7.2368 35.559 7.75 35.1258 7.75L24.3213 7.75C23.8967 7.75 23.6654 7.25428 23.9381 6.92887L29.0833 0.788462L29.1422 0.717183C29.3422 0.474893 29.7134 0.474893 29.9134 0.717183L29.9722 0.788462L35.4972 6.91515Z" fill="white"/>
<path d="M36 7L30.4632 0.867016C30.0519 0.411469 29.3312 0.430445 28.9444 0.907L24 7" stroke="#1A1A1A" stroke-width="0.5" stroke-linecap="square"/>
</svg>
