<svg width="22" height="17" viewBox="0 0 22 17" fill="none" xmlns="http://www.w3.org/2000/svg">
<path d="M11 0.5C16 0.5 20.27 3.61 22 8C20.27 12.39 16 15.5 11 15.5C10.64 15.5 10.28 15.5 9.92 15.45C9.97145 15.1359 9.9982 14.8183 10 14.5C10 13.94 9.92 13.38 9.76 12.84C10.17 12.94 10.58 13 11 13C13.76 13 16 10.76 16 8C16 5.24 13.76 3 11 3C8.24 3 6 5.24 6 8C6 8.29 6.03 8.59 6.08 8.88C5.42 8.63 4.71 8.5 4 8.5C2.83 8.5 1.69 8.84 0.709999 9.5C0.439999 9 0.200001 8.5 0 8C1.73 3.61 6 0.5 11 0.5ZM11 5C12.66 5 14 6.34 14 8C14 9.66 12.66 11 11 11C9.34 11 8 9.66 8 8C8 6.34 9.34 5 11 5ZM5 11V13H1V15H5V17L8 14L5 11Z" fill="white"/>
</svg>
