<svg width="181" height="28" viewBox="0 0 181 28" fill="none" xmlns="http://www.w3.org/2000/svg">
<path d="M1.74 21.16C1.36667 21.16 1.08 21.0533 0.88 20.84C0.68 20.6267 0.58 20.3333 0.58 19.96V7.94C0.58 7.55333 0.686667 7.26 0.9 7.06C1.11333 6.84667 1.40667 6.74 1.78 6.74C2.11333 6.74 2.37333 6.80667 2.56 6.94C2.76 7.06 2.94 7.27333 3.1 7.58L8.04 16.72H7.4L12.34 7.58C12.5 7.27333 12.6733 7.06 12.86 6.94C13.0467 6.80667 13.3067 6.74 13.64 6.74C14.0133 6.74 14.3 6.84667 14.5 7.06C14.7 7.26 14.8 7.55333 14.8 7.94V19.96C14.8 20.3333 14.7 20.6267 14.5 20.84C14.3133 21.0533 14.0267 21.16 13.64 21.16C13.2667 21.16 12.98 21.0533 12.78 20.84C12.58 20.6267 12.48 20.3333 12.48 19.96V10.7H12.92L8.72 18.36C8.58667 18.5867 8.44667 18.7533 8.3 18.86C8.15333 18.9667 7.95333 19.02 7.7 19.02C7.44667 19.02 7.24 18.9667 7.08 18.86C6.92 18.74 6.78 18.5733 6.66 18.36L2.42 10.68H2.9V19.96C2.9 20.3333 2.8 20.6267 2.6 20.84C2.41333 21.0533 2.12667 21.16 1.74 21.16ZM21.2033 21.2C20.3899 21.2 19.7166 21.0533 19.1833 20.76C18.6499 20.4533 18.2499 20 17.9833 19.4C17.7299 18.8 17.6033 18.0533 17.6033 17.16V12.32C17.6033 11.8933 17.7099 11.58 17.9233 11.38C18.1366 11.1667 18.4433 11.06 18.8433 11.06C19.2433 11.06 19.5499 11.1667 19.7633 11.38C19.9899 11.58 20.1033 11.8933 20.1033 12.32V17.2C20.1033 17.8933 20.2433 18.4067 20.5233 18.74C20.8033 19.0733 21.2499 19.24 21.8633 19.24C22.5299 19.24 23.0766 19.0133 23.5033 18.56C23.9299 18.0933 24.1433 17.48 24.1433 16.72V12.32C24.1433 11.8933 24.2499 11.58 24.4633 11.38C24.6766 11.1667 24.9833 11.06 25.3833 11.06C25.7833 11.06 26.0899 11.1667 26.3033 11.38C26.5299 11.58 26.6433 11.8933 26.6433 12.32V19.88C26.6433 20.7333 26.2366 21.16 25.4233 21.16C25.0366 21.16 24.7366 21.0533 24.5233 20.84C24.3099 20.6133 24.2033 20.2933 24.2033 19.88V18.36L24.4833 18.96C24.2033 19.68 23.7766 20.2333 23.2033 20.62C22.6433 21.0067 21.9766 21.2 21.2033 21.2ZM32.5853 21.2C31.4786 21.2 30.6453 20.8867 30.0853 20.26C29.5253 19.62 29.2453 18.6867 29.2453 17.46V8C29.2453 7.58667 29.352 7.27333 29.5653 7.06C29.7786 6.84667 30.0853 6.74 30.4853 6.74C30.8853 6.74 31.192 6.84667 31.4053 7.06C31.632 7.27333 31.7453 7.58667 31.7453 8V17.34C31.7453 17.9533 31.872 18.4067 32.1253 18.7C32.392 18.9933 32.7653 19.14 33.2453 19.14C33.352 19.14 33.452 19.14 33.5453 19.14C33.6386 19.1267 33.732 19.1133 33.8253 19.1C34.012 19.0733 34.1386 19.1267 34.2053 19.26C34.272 19.38 34.3053 19.6333 34.3053 20.02C34.3053 20.3533 34.2386 20.6133 34.1053 20.8C33.972 20.9867 33.752 21.1 33.4453 21.14C33.312 21.1533 33.172 21.1667 33.0253 21.18C32.8786 21.1933 32.732 21.2 32.5853 21.2ZM39.8581 21.2C38.9915 21.2 38.2648 21.0533 37.6781 20.76C37.1048 20.4667 36.6781 20.04 36.3981 19.48C36.1181 18.9067 35.9781 18.2 35.9781 17.36V13.1H34.9381C34.6181 13.1 34.3715 13.02 34.1981 12.86C34.0248 12.6867 33.9381 12.4533 33.9381 12.16C33.9381 11.8533 34.0248 11.62 34.1981 11.46C34.3715 11.3 34.6181 11.22 34.9381 11.22H35.9781V9.4C35.9781 8.98667 36.0848 8.67333 36.2981 8.46C36.5248 8.24667 36.8381 8.14 37.2381 8.14C37.6381 8.14 37.9448 8.24667 38.1581 8.46C38.3715 8.67333 38.4781 8.98667 38.4781 9.4V11.22H40.5981C40.9181 11.22 41.1648 11.3 41.3381 11.46C41.5115 11.62 41.5981 11.8533 41.5981 12.16C41.5981 12.4533 41.5115 12.6867 41.3381 12.86C41.1648 13.02 40.9181 13.1 40.5981 13.1H38.4781V17.22C38.4781 17.86 38.6181 18.34 38.8981 18.66C39.1781 18.98 39.6315 19.14 40.2581 19.14C40.4848 19.14 40.6848 19.12 40.8581 19.08C41.0315 19.04 41.1848 19.0133 41.3181 19C41.4781 18.9867 41.6115 19.04 41.7181 19.16C41.8248 19.2667 41.8781 19.4933 41.8781 19.84C41.8781 20.1067 41.8315 20.3467 41.7381 20.56C41.6581 20.76 41.5048 20.9 41.2781 20.98C41.1048 21.0333 40.8781 21.08 40.5981 21.12C40.3181 21.1733 40.0715 21.2 39.8581 21.2ZM44.5478 21.14C44.1478 21.14 43.8411 21.02 43.6278 20.78C43.4145 20.54 43.3078 20.2067 43.3078 19.78V12.44C43.3078 12 43.4145 11.6667 43.6278 11.44C43.8411 11.2 44.1478 11.08 44.5478 11.08C44.9478 11.08 45.2545 11.2 45.4678 11.44C45.6945 11.6667 45.8078 12 45.8078 12.44V19.78C45.8078 20.2067 45.7011 20.54 45.4878 20.78C45.2745 21.02 44.9611 21.14 44.5478 21.14ZM44.5478 9.22C44.0811 9.22 43.7145 9.10667 43.4478 8.88C43.1945 8.64 43.0678 8.31333 43.0678 7.9C43.0678 7.47333 43.1945 7.14667 43.4478 6.92C43.7145 6.69333 44.0811 6.58 44.5478 6.58C45.0278 6.58 45.3945 6.69333 45.6478 6.92C45.9011 7.14667 46.0278 7.47333 46.0278 7.9C46.0278 8.31333 45.9011 8.64 45.6478 8.88C45.3945 9.10667 45.0278 9.22 44.5478 9.22ZM49.6455 24.76C49.2455 24.76 48.9388 24.6533 48.7255 24.44C48.5121 24.2267 48.4055 23.9133 48.4055 23.5V12.32C48.4055 11.9067 48.5121 11.5933 48.7255 11.38C48.9388 11.1667 49.2388 11.06 49.6255 11.06C50.0255 11.06 50.3321 11.1667 50.5455 11.38C50.7588 11.5933 50.8655 11.9067 50.8655 12.32V13.88L50.6455 13.28C50.8455 12.6 51.2521 12.0533 51.8655 11.64C52.4921 11.2267 53.2188 11.02 54.0455 11.02C54.8988 11.02 55.6455 11.2267 56.2855 11.64C56.9388 12.0533 57.4455 12.64 57.8055 13.4C58.1655 14.1467 58.3455 15.0467 58.3455 16.1C58.3455 17.14 58.1655 18.0467 57.8055 18.82C57.4455 19.58 56.9455 20.1667 56.3055 20.58C55.6655 20.9933 54.9121 21.2 54.0455 21.2C53.2321 21.2 52.5188 21 51.9055 20.6C51.2921 20.1867 50.8788 19.6533 50.6655 19H50.9055V23.5C50.9055 23.9133 50.7921 24.2267 50.5655 24.44C50.3521 24.6533 50.0455 24.76 49.6455 24.76ZM53.3455 19.3C53.8388 19.3 54.2721 19.18 54.6455 18.94C55.0188 18.7 55.3055 18.3467 55.5055 17.88C55.7188 17.4 55.8255 16.8067 55.8255 16.1C55.8255 15.0333 55.5988 14.24 55.1455 13.72C54.6921 13.1867 54.0921 12.92 53.3455 12.92C52.8521 12.92 52.4188 13.04 52.0455 13.28C51.6721 13.5067 51.3788 13.86 51.1655 14.34C50.9655 14.8067 50.8655 15.3933 50.8655 16.1C50.8655 17.1533 51.0921 17.9533 51.5455 18.5C51.9988 19.0333 52.5988 19.3 53.3455 19.3ZM63.7377 21.2C62.631 21.2 61.7977 20.8867 61.2377 20.26C60.6777 19.62 60.3977 18.6867 60.3977 17.46V8C60.3977 7.58667 60.5043 7.27333 60.7177 7.06C60.931 6.84667 61.2377 6.74 61.6377 6.74C62.0377 6.74 62.3443 6.84667 62.5577 7.06C62.7843 7.27333 62.8977 7.58667 62.8977 8V17.34C62.8977 17.9533 63.0243 18.4067 63.2777 18.7C63.5443 18.9933 63.9177 19.14 64.3977 19.14C64.5043 19.14 64.6043 19.14 64.6977 19.14C64.791 19.1267 64.8843 19.1133 64.9777 19.1C65.1643 19.0733 65.291 19.1267 65.3577 19.26C65.4243 19.38 65.4577 19.6333 65.4577 20.02C65.4577 20.3533 65.391 20.6133 65.2577 20.8C65.1243 20.9867 64.9043 21.1 64.5977 21.14C64.4643 21.1533 64.3243 21.1667 64.1777 21.18C64.031 21.1933 63.8843 21.2 63.7377 21.2ZM69.0105 24.76C68.7171 24.76 68.4771 24.68 68.2905 24.52C68.1038 24.3733 67.9905 24.1733 67.9505 23.92C67.9238 23.6667 67.9705 23.4 68.0905 23.12L69.4505 20.1V21.14L65.8105 12.72C65.6905 12.4267 65.6505 12.1533 65.6905 11.9C65.7305 11.6467 65.8505 11.4467 66.0505 11.3C66.2638 11.14 66.5505 11.06 66.9105 11.06C67.2171 11.06 67.4638 11.1333 67.6505 11.28C67.8371 11.4133 68.0038 11.6733 68.1505 12.06L70.8505 18.8H70.2505L73.0105 12.04C73.1571 11.6667 73.3305 11.4133 73.5305 11.28C73.7305 11.1333 73.9971 11.06 74.3305 11.06C74.6238 11.06 74.8571 11.14 75.0305 11.3C75.2038 11.4467 75.3105 11.6467 75.3505 11.9C75.3905 12.14 75.3438 12.4067 75.2105 12.7L70.3505 23.8C70.1771 24.1733 69.9905 24.4267 69.7905 24.56C69.5905 24.6933 69.3305 24.76 69.0105 24.76Z" fill="#444444"/>
<rect x="81" width="72" height="28" rx="5" fill="#FAF2FF"/>
<path d="M91.1323 21.2C90.2789 21.2 89.5256 20.9933 88.8723 20.58C88.2323 20.1667 87.7323 19.58 87.3723 18.82C87.0123 18.0467 86.8323 17.14 86.8323 16.1C86.8323 15.0467 87.0123 14.1467 87.3723 13.4C87.7323 12.64 88.2323 12.0533 88.8723 11.64C89.5256 11.2267 90.2789 11.02 91.1323 11.02C91.9456 11.02 92.6523 11.22 93.2523 11.62C93.8656 12.02 94.2789 12.5467 94.4923 13.2H94.2723V8C94.2723 7.58667 94.3789 7.27333 94.5923 7.06C94.8056 6.84667 95.1123 6.74 95.5123 6.74C95.9123 6.74 96.2189 6.84667 96.4323 7.06C96.6589 7.27333 96.7723 7.58667 96.7723 8V19.88C96.7723 20.2933 96.6656 20.6133 96.4523 20.84C96.2389 21.0533 95.9323 21.16 95.5323 21.16C95.1323 21.16 94.8256 21.0533 94.6123 20.84C94.3989 20.6133 94.2923 20.2933 94.2923 19.88V18.32L94.5123 18.92C94.3123 19.6133 93.9056 20.1667 93.2923 20.58C92.6789 20.9933 91.9589 21.2 91.1323 21.2ZM91.8323 19.3C92.3256 19.3 92.7589 19.18 93.1323 18.94C93.5056 18.7 93.7923 18.3467 93.9923 17.88C94.2056 17.4 94.3123 16.8067 94.3123 16.1C94.3123 15.0333 94.0856 14.24 93.6323 13.72C93.1789 13.1867 92.5789 12.92 91.8323 12.92C91.3389 12.92 90.9056 13.04 90.5323 13.28C90.1589 13.5067 89.8656 13.86 89.6523 14.34C89.4523 14.8067 89.3523 15.3933 89.3523 16.1C89.3523 17.1533 89.5789 17.9533 90.0323 18.5C90.4856 19.0333 91.0856 19.3 91.8323 19.3ZM100.604 21.14C100.204 21.14 99.8978 21.02 99.6845 20.78C99.4711 20.54 99.3645 20.2067 99.3645 19.78V12.44C99.3645 12 99.4711 11.6667 99.6845 11.44C99.8978 11.2 100.204 11.08 100.604 11.08C101.004 11.08 101.311 11.2 101.524 11.44C101.751 11.6667 101.864 12 101.864 12.44V19.78C101.864 20.2067 101.758 20.54 101.544 20.78C101.331 21.02 101.018 21.14 100.604 21.14ZM100.604 9.22C100.138 9.22 99.7711 9.10667 99.5045 8.88C99.2511 8.64 99.1245 8.31333 99.1245 7.9C99.1245 7.47333 99.2511 7.14667 99.5045 6.92C99.7711 6.69333 100.138 6.58 100.604 6.58C101.084 6.58 101.451 6.69333 101.704 6.92C101.958 7.14667 102.084 7.47333 102.084 7.9C102.084 8.31333 101.958 8.64 101.704 8.88C101.451 9.10667 101.084 9.22 100.604 9.22ZM108.422 21.16C108.089 21.16 107.795 21.0733 107.542 20.9C107.302 20.7267 107.102 20.46 106.942 20.1L103.762 12.72C103.642 12.4267 103.595 12.1533 103.622 11.9C103.662 11.6467 103.782 11.4467 103.982 11.3C104.195 11.14 104.482 11.06 104.842 11.06C105.149 11.06 105.395 11.1333 105.582 11.28C105.769 11.4133 105.935 11.6733 106.082 12.06L108.782 18.8H108.182L110.962 12.04C111.109 11.6667 111.275 11.4133 111.462 11.28C111.662 11.1333 111.929 11.06 112.262 11.06C112.555 11.06 112.789 11.14 112.962 11.3C113.135 11.4467 113.242 11.6467 113.282 11.9C113.322 12.14 113.275 12.4067 113.142 12.7L109.902 20.1C109.755 20.46 109.555 20.7267 109.302 20.9C109.062 21.0733 108.769 21.16 108.422 21.16ZM116.249 21.14C115.849 21.14 115.542 21.02 115.329 20.78C115.116 20.54 115.009 20.2067 115.009 19.78V12.44C115.009 12 115.116 11.6667 115.329 11.44C115.542 11.2 115.849 11.08 116.249 11.08C116.649 11.08 116.956 11.2 117.169 11.44C117.396 11.6667 117.509 12 117.509 12.44V19.78C117.509 20.2067 117.402 20.54 117.189 20.78C116.976 21.02 116.662 21.14 116.249 21.14ZM116.249 9.22C115.782 9.22 115.416 9.10667 115.149 8.88C114.896 8.64 114.769 8.31333 114.769 7.9C114.769 7.47333 114.896 7.14667 115.149 6.92C115.416 6.69333 115.782 6.58 116.249 6.58C116.729 6.58 117.096 6.69333 117.349 6.92C117.602 7.14667 117.729 7.47333 117.729 7.9C117.729 8.31333 117.602 8.64 117.349 8.88C117.096 9.10667 116.729 9.22 116.249 9.22ZM123.687 21.2C123.113 21.2 122.507 21.14 121.867 21.02C121.227 20.9 120.653 20.6933 120.147 20.4C119.933 20.2667 119.78 20.1133 119.687 19.94C119.607 19.7533 119.573 19.5733 119.587 19.4C119.613 19.2133 119.68 19.0533 119.787 18.92C119.907 18.7867 120.053 18.7 120.227 18.66C120.413 18.62 120.613 18.6533 120.827 18.76C121.36 19.0133 121.86 19.1933 122.327 19.3C122.793 19.3933 123.253 19.44 123.707 19.44C124.347 19.44 124.82 19.3333 125.127 19.12C125.447 18.8933 125.607 18.6 125.607 18.24C125.607 17.9333 125.5 17.7 125.287 17.54C125.087 17.3667 124.78 17.24 124.367 17.16L122.367 16.78C121.54 16.62 120.907 16.32 120.467 15.88C120.04 15.4267 119.827 14.8467 119.827 14.14C119.827 13.5 120 12.9467 120.347 12.48C120.707 12.0133 121.2 11.6533 121.827 11.4C122.453 11.1467 123.173 11.02 123.987 11.02C124.573 11.02 125.12 11.0867 125.627 11.22C126.147 11.34 126.647 11.5333 127.127 11.8C127.327 11.9067 127.46 12.0467 127.527 12.22C127.607 12.3933 127.627 12.5733 127.587 12.76C127.547 12.9333 127.467 13.0933 127.347 13.24C127.227 13.3733 127.073 13.46 126.887 13.5C126.713 13.5267 126.513 13.4867 126.287 13.38C125.873 13.1667 125.473 13.0133 125.087 12.92C124.713 12.8267 124.353 12.78 124.007 12.78C123.353 12.78 122.867 12.8933 122.547 13.12C122.24 13.3467 122.087 13.6467 122.087 14.02C122.087 14.3 122.18 14.5333 122.367 14.72C122.553 14.9067 122.84 15.0333 123.227 15.1L125.227 15.48C126.093 15.64 126.747 15.9333 127.187 16.36C127.64 16.7867 127.867 17.36 127.867 18.08C127.867 19.0533 127.487 19.82 126.727 20.38C125.967 20.9267 124.953 21.2 123.687 21.2ZM134.332 21.2C133.319 21.2 132.439 20.9933 131.692 20.58C130.946 20.1667 130.366 19.58 129.952 18.82C129.539 18.0467 129.332 17.14 129.332 16.1C129.332 15.3133 129.446 14.6133 129.672 14C129.912 13.3733 130.252 12.84 130.692 12.4C131.132 11.9467 131.659 11.6067 132.272 11.38C132.886 11.14 133.572 11.02 134.332 11.02C135.346 11.02 136.226 11.2267 136.972 11.64C137.719 12.0533 138.299 12.64 138.712 13.4C139.126 14.16 139.332 15.06 139.332 16.1C139.332 16.8867 139.212 17.5933 138.972 18.22C138.746 18.8467 138.412 19.3867 137.972 19.84C137.532 20.28 137.006 20.62 136.392 20.86C135.779 21.0867 135.092 21.2 134.332 21.2ZM134.332 19.3C134.826 19.3 135.259 19.18 135.632 18.94C136.006 18.7 136.292 18.3467 136.492 17.88C136.706 17.4 136.812 16.8067 136.812 16.1C136.812 15.0333 136.586 14.24 136.132 13.72C135.679 13.1867 135.079 12.92 134.332 12.92C133.839 12.92 133.406 13.04 133.032 13.28C132.659 13.5067 132.366 13.86 132.152 14.34C131.952 14.8067 131.852 15.3933 131.852 16.1C131.852 17.1533 132.079 17.9533 132.532 18.5C132.986 19.0333 133.586 19.3 134.332 19.3ZM142.676 21.16C142.262 21.16 141.942 21.0533 141.716 20.84C141.502 20.6133 141.396 20.2933 141.396 19.88V12.32C141.396 11.9067 141.502 11.5933 141.716 11.38C141.929 11.1667 142.229 11.06 142.616 11.06C143.002 11.06 143.302 11.1667 143.516 11.38C143.729 11.5933 143.836 11.9067 143.836 12.32V13.58H143.636C143.822 12.78 144.189 12.1733 144.736 11.76C145.282 11.3467 146.009 11.1 146.916 11.02C147.196 10.9933 147.416 11.0667 147.576 11.24C147.749 11.4 147.849 11.6533 147.876 12C147.902 12.3333 147.822 12.6067 147.636 12.82C147.462 13.02 147.196 13.14 146.836 13.18L146.396 13.22C145.582 13.3 144.969 13.5533 144.556 13.98C144.142 14.3933 143.936 14.98 143.936 15.74V19.88C143.936 20.2933 143.829 20.6133 143.616 20.84C143.402 21.0533 143.089 21.16 142.676 21.16Z" fill="#AA5EE0"/>
<path d="M165.616 21.2C164.789 21.2 164.062 20.9933 163.436 20.58C162.822 20.1667 162.416 19.6133 162.216 18.92L162.436 18.42V19.88C162.436 20.2933 162.329 20.6133 162.116 20.84C161.902 21.0533 161.602 21.16 161.216 21.16C160.816 21.16 160.509 21.0533 160.296 20.84C160.082 20.6133 159.976 20.2933 159.976 19.88V8C159.976 7.58667 160.082 7.27333 160.296 7.06C160.509 6.84667 160.816 6.74 161.216 6.74C161.616 6.74 161.922 6.84667 162.136 7.06C162.362 7.27333 162.476 7.58667 162.476 8V13.2H162.236C162.449 12.5467 162.862 12.02 163.476 11.62C164.089 11.22 164.802 11.02 165.616 11.02C166.482 11.02 167.236 11.2267 167.876 11.64C168.516 12.0533 169.016 12.64 169.376 13.4C169.736 14.1467 169.916 15.0467 169.916 16.1C169.916 17.14 169.736 18.0467 169.376 18.82C169.016 19.58 168.509 20.1667 167.856 20.58C167.216 20.9933 166.469 21.2 165.616 21.2ZM164.916 19.3C165.409 19.3 165.842 19.18 166.216 18.94C166.589 18.7 166.876 18.3467 167.076 17.88C167.289 17.4 167.396 16.8067 167.396 16.1C167.396 15.0333 167.169 14.24 166.716 13.72C166.262 13.1867 165.662 12.92 164.916 12.92C164.422 12.92 163.989 13.04 163.616 13.28C163.242 13.5067 162.949 13.86 162.736 14.34C162.536 14.8067 162.436 15.3933 162.436 16.1C162.436 17.1533 162.662 17.9533 163.116 18.5C163.569 19.0333 164.169 19.3 164.916 19.3ZM174.253 24.76C173.959 24.76 173.719 24.68 173.533 24.52C173.346 24.3733 173.233 24.1733 173.193 23.92C173.166 23.6667 173.213 23.4 173.333 23.12L174.693 20.1V21.14L171.053 12.72C170.933 12.4267 170.893 12.1533 170.933 11.9C170.973 11.6467 171.093 11.4467 171.293 11.3C171.506 11.14 171.793 11.06 172.153 11.06C172.459 11.06 172.706 11.1333 172.893 11.28C173.079 11.4133 173.246 11.6733 173.393 12.06L176.093 18.8H175.493L178.253 12.04C178.399 11.6667 178.573 11.4133 178.773 11.28C178.973 11.1333 179.239 11.06 179.573 11.06C179.866 11.06 180.099 11.14 180.273 11.3C180.446 11.4467 180.553 11.6467 180.593 11.9C180.633 12.14 180.586 12.4067 180.453 12.7L175.593 23.8C175.419 24.1733 175.233 24.4267 175.033 24.56C174.833 24.6933 174.573 24.76 174.253 24.76Z" fill="#444444"/>
</svg>
