<svg width="675" height="28" viewBox="0 0 675 28" fill="none" xmlns="http://www.w3.org/2000/svg">
<path d="M1.32984 21.16C0.943177 21.16 0.643177 21.0533 0.429844 20.84C0.229844 20.6267 0.129844 20.32 0.129844 19.92V8.02C0.129844 7.60667 0.229844 7.29333 0.429844 7.08C0.643177 6.85333 0.91651 6.74 1.24984 6.74C1.55651 6.74 1.78318 6.8 1.92984 6.92C2.08984 7.02667 2.27651 7.21333 2.48984 7.48L10.1498 17.42H9.62984V7.96C9.62984 7.57333 9.72984 7.27333 9.92984 7.06C10.1432 6.84667 10.4432 6.74 10.8298 6.74C11.2165 6.74 11.5098 6.84667 11.7098 7.06C11.9098 7.27333 12.0098 7.57333 12.0098 7.96V19.96C12.0098 20.3333 11.9165 20.6267 11.7298 20.84C11.5432 21.0533 11.2898 21.16 10.9698 21.16C10.6632 21.16 10.4165 21.1 10.2298 20.98C10.0565 20.86 9.86318 20.6667 9.64984 20.4L2.00984 10.46H2.50984V19.92C2.50984 20.32 2.40984 20.6267 2.20984 20.84C2.00984 21.0533 1.71651 21.16 1.32984 21.16ZM19.3108 21.2C18.2974 21.2 17.4174 20.9933 16.6708 20.58C15.9241 20.1667 15.3441 19.58 14.9308 18.82C14.5174 18.0467 14.3108 17.14 14.3108 16.1C14.3108 15.3133 14.4241 14.6133 14.6508 14C14.8908 13.3733 15.2308 12.84 15.6708 12.4C16.1108 11.9467 16.6374 11.6067 17.2508 11.38C17.8641 11.14 18.5508 11.02 19.3108 11.02C20.3241 11.02 21.2041 11.2267 21.9508 11.64C22.6974 12.0533 23.2774 12.64 23.6908 13.4C24.1041 14.16 24.3108 15.06 24.3108 16.1C24.3108 16.8867 24.1908 17.5933 23.9508 18.22C23.7241 18.8467 23.3908 19.3867 22.9508 19.84C22.5108 20.28 21.9841 20.62 21.3708 20.86C20.7574 21.0867 20.0708 21.2 19.3108 21.2ZM19.3108 19.3C19.8041 19.3 20.2374 19.18 20.6108 18.94C20.9841 18.7 21.2708 18.3467 21.4708 17.88C21.6841 17.4 21.7908 16.8067 21.7908 16.1C21.7908 15.0333 21.5641 14.24 21.1108 13.72C20.6574 13.1867 20.0574 12.92 19.3108 12.92C18.8174 12.92 18.3841 13.04 18.0108 13.28C17.6374 13.5067 17.3441 13.86 17.1308 14.34C16.9308 14.8067 16.8308 15.3933 16.8308 16.1C16.8308 17.1533 17.0574 17.9533 17.5108 18.5C17.9641 19.0333 18.5641 19.3 19.3108 19.3ZM29.9589 21.16C29.6256 21.16 29.3389 21.08 29.0989 20.92C28.8589 20.7467 28.6656 20.48 28.5189 20.12L25.6189 12.72C25.4989 12.4 25.4589 12.12 25.4989 11.88C25.5522 11.6267 25.6789 11.4267 25.8789 11.28C26.0789 11.1333 26.3456 11.06 26.6789 11.06C26.9722 11.06 27.2122 11.1333 27.3989 11.28C27.5856 11.4133 27.7456 11.6733 27.8789 12.06L30.2989 18.72H29.8389L32.3389 11.9C32.4456 11.6067 32.5856 11.3933 32.7589 11.26C32.9456 11.1267 33.1856 11.06 33.4789 11.06C33.7722 11.06 34.0122 11.1333 34.1989 11.28C34.3856 11.4133 34.5256 11.62 34.6189 11.9L37.0789 18.72H36.6589L39.0989 12C39.2322 11.64 39.3989 11.3933 39.5989 11.26C39.8122 11.1267 40.0456 11.06 40.2989 11.06C40.6189 11.06 40.8656 11.14 41.0389 11.3C41.2122 11.46 41.3122 11.6667 41.3389 11.92C41.3656 12.16 41.3189 12.4267 41.1989 12.72L38.3189 20.12C38.1856 20.4667 37.9922 20.7267 37.7389 20.9C37.4989 21.0733 37.2122 21.16 36.8789 21.16C36.5456 21.16 36.2522 21.0733 35.9989 20.9C35.7589 20.7267 35.5722 20.4667 35.4389 20.12L32.8189 13.18H33.9589L31.3989 20.1C31.2656 20.46 31.0789 20.7267 30.8389 20.9C30.5989 21.0733 30.3056 21.16 29.9589 21.16ZM53.1394 21.2C52.2727 21.2 51.546 21.0533 50.9594 20.76C50.386 20.4667 49.9594 20.04 49.6794 19.48C49.3994 18.9067 49.2594 18.2 49.2594 17.36V13.1H48.2194C47.8994 13.1 47.6527 13.02 47.4794 12.86C47.306 12.6867 47.2194 12.4533 47.2194 12.16C47.2194 11.8533 47.306 11.62 47.4794 11.46C47.6527 11.3 47.8994 11.22 48.2194 11.22H49.2594V9.4C49.2594 8.98667 49.366 8.67333 49.5794 8.46C49.806 8.24667 50.1194 8.14 50.5194 8.14C50.9194 8.14 51.226 8.24667 51.4394 8.46C51.6527 8.67333 51.7594 8.98667 51.7594 9.4V11.22H53.8794C54.1994 11.22 54.446 11.3 54.6194 11.46C54.7927 11.62 54.8794 11.8533 54.8794 12.16C54.8794 12.4533 54.7927 12.6867 54.6194 12.86C54.446 13.02 54.1994 13.1 53.8794 13.1H51.7594V17.22C51.7594 17.86 51.8994 18.34 52.1794 18.66C52.4594 18.98 52.9127 19.14 53.5394 19.14C53.766 19.14 53.966 19.12 54.1394 19.08C54.3127 19.04 54.466 19.0133 54.5994 19C54.7594 18.9867 54.8927 19.04 54.9994 19.16C55.106 19.2667 55.1594 19.4933 55.1594 19.84C55.1594 20.1067 55.1127 20.3467 55.0194 20.56C54.9394 20.76 54.786 20.9 54.5594 20.98C54.386 21.0333 54.1594 21.08 53.8794 21.12C53.5994 21.1733 53.3527 21.2 53.1394 21.2ZM57.8291 21.16C57.4291 21.16 57.1224 21.0533 56.9091 20.84C56.6957 20.6133 56.5891 20.2933 56.5891 19.88V8C56.5891 7.58667 56.6957 7.27333 56.9091 7.06C57.1224 6.84667 57.4291 6.74 57.8291 6.74C58.2291 6.74 58.5357 6.84667 58.7491 7.06C58.9757 7.27333 59.0891 7.58667 59.0891 8V13.18H58.8091C59.1024 12.4733 59.5557 11.94 60.1691 11.58C60.7957 11.2067 61.5024 11.02 62.2891 11.02C63.0757 11.02 63.7224 11.1667 64.2291 11.46C64.7357 11.7533 65.1157 12.2 65.3691 12.8C65.6224 13.3867 65.7491 14.1333 65.7491 15.04V19.88C65.7491 20.2933 65.6424 20.6133 65.4291 20.84C65.2157 21.0533 64.9091 21.16 64.5091 21.16C64.1091 21.16 63.7957 21.0533 63.5691 20.84C63.3557 20.6133 63.2491 20.2933 63.2491 19.88V15.16C63.2491 14.4 63.1024 13.8467 62.8091 13.5C62.5291 13.1533 62.0891 12.98 61.4891 12.98C60.7557 12.98 60.1691 13.2133 59.7291 13.68C59.3024 14.1333 59.0891 14.74 59.0891 15.5V19.88C59.0891 20.7333 58.6691 21.16 57.8291 21.16ZM71.5083 21.2C70.8016 21.2 70.1683 21.0667 69.6083 20.8C69.0616 20.52 68.6283 20.1467 68.3083 19.68C68.0016 19.2133 67.8483 18.6867 67.8483 18.1C67.8483 17.38 68.0349 16.8133 68.4083 16.4C68.7816 15.9733 69.3883 15.6667 70.2283 15.48C71.0683 15.2933 72.1949 15.2 73.6083 15.2H74.6083V16.64H73.6283C72.8016 16.64 72.1416 16.68 71.6483 16.76C71.1549 16.84 70.8016 16.98 70.5883 17.18C70.3883 17.3667 70.2883 17.6333 70.2883 17.98C70.2883 18.42 70.4416 18.78 70.7483 19.06C71.0549 19.34 71.4816 19.48 72.0283 19.48C72.4683 19.48 72.8549 19.38 73.1883 19.18C73.5349 18.9667 73.8083 18.68 74.0083 18.32C74.2083 17.96 74.3083 17.5467 74.3083 17.08V14.78C74.3083 14.1133 74.1616 13.6333 73.8683 13.34C73.5749 13.0467 73.0816 12.9 72.3883 12.9C72.0016 12.9 71.5816 12.9467 71.1283 13.04C70.6883 13.1333 70.2216 13.2933 69.7283 13.52C69.4749 13.64 69.2483 13.6733 69.0483 13.62C68.8616 13.5667 68.7149 13.46 68.6083 13.3C68.5016 13.1267 68.4483 12.94 68.4483 12.74C68.4483 12.54 68.5016 12.3467 68.6083 12.16C68.7149 11.96 68.8949 11.8133 69.1483 11.72C69.7616 11.4667 70.3483 11.2867 70.9083 11.18C71.4816 11.0733 72.0016 11.02 72.4683 11.02C73.4283 11.02 74.2149 11.1667 74.8283 11.46C75.4549 11.7533 75.9216 12.2 76.2283 12.8C76.5349 13.3867 76.6883 14.1467 76.6883 15.08V19.88C76.6883 20.2933 76.5883 20.6133 76.3883 20.84C76.1883 21.0533 75.9016 21.16 75.5283 21.16C75.1549 21.16 74.8616 21.0533 74.6483 20.84C74.4483 20.6133 74.3483 20.2933 74.3483 19.88V18.92H74.5083C74.4149 19.3867 74.2283 19.7933 73.9483 20.14C73.6816 20.4733 73.3416 20.7333 72.9283 20.92C72.5149 21.1067 72.0416 21.2 71.5083 21.2ZM83.7058 21.2C82.8391 21.2 82.1124 21.0533 81.5258 20.76C80.9524 20.4667 80.5258 20.04 80.2458 19.48C79.9658 18.9067 79.8258 18.2 79.8258 17.36V13.1H78.7858C78.4658 13.1 78.2191 13.02 78.0458 12.86C77.8724 12.6867 77.7858 12.4533 77.7858 12.16C77.7858 11.8533 77.8724 11.62 78.0458 11.46C78.2191 11.3 78.4658 11.22 78.7858 11.22H79.8258V9.4C79.8258 8.98667 79.9324 8.67333 80.1458 8.46C80.3724 8.24667 80.6858 8.14 81.0858 8.14C81.4858 8.14 81.7924 8.24667 82.0058 8.46C82.2191 8.67333 82.3258 8.98667 82.3258 9.4V11.22H84.4458C84.7658 11.22 85.0124 11.3 85.1858 11.46C85.3591 11.62 85.4458 11.8533 85.4458 12.16C85.4458 12.4533 85.3591 12.6867 85.1858 12.86C85.0124 13.02 84.7658 13.1 84.4458 13.1H82.3258V17.22C82.3258 17.86 82.4658 18.34 82.7458 18.66C83.0258 18.98 83.4791 19.14 84.1058 19.14C84.3324 19.14 84.5324 19.12 84.7058 19.08C84.8791 19.04 85.0324 19.0133 85.1658 19C85.3258 18.9867 85.4591 19.04 85.5658 19.16C85.6724 19.2667 85.7258 19.4933 85.7258 19.84C85.7258 20.1067 85.6791 20.3467 85.5858 20.56C85.5058 20.76 85.3524 20.9 85.1258 20.98C84.9524 21.0333 84.7258 21.08 84.4458 21.12C84.1658 21.1733 83.9191 21.2 83.7058 21.2ZM96.8113 21.2C95.9446 21.2 95.2179 21.0533 94.6313 20.76C94.0579 20.4667 93.6313 20.04 93.3513 19.48C93.0713 18.9067 92.9313 18.2 92.9313 17.36V13.1H91.8913C91.5713 13.1 91.3246 13.02 91.1513 12.86C90.9779 12.6867 90.8912 12.4533 90.8912 12.16C90.8912 11.8533 90.9779 11.62 91.1513 11.46C91.3246 11.3 91.5713 11.22 91.8913 11.22H92.9313V9.4C92.9313 8.98667 93.0379 8.67333 93.2513 8.46C93.4779 8.24667 93.7913 8.14 94.1913 8.14C94.5913 8.14 94.8979 8.24667 95.1113 8.46C95.3246 8.67333 95.4313 8.98667 95.4313 9.4V11.22H97.5513C97.8713 11.22 98.1179 11.3 98.2913 11.46C98.4646 11.62 98.5513 11.8533 98.5513 12.16C98.5513 12.4533 98.4646 12.6867 98.2913 12.86C98.1179 13.02 97.8713 13.1 97.5513 13.1H95.4313V17.22C95.4313 17.86 95.5713 18.34 95.8513 18.66C96.1313 18.98 96.5846 19.14 97.2113 19.14C97.4379 19.14 97.6379 19.12 97.8113 19.08C97.9846 19.04 98.1379 19.0133 98.2713 19C98.4313 18.9867 98.5646 19.04 98.6713 19.16C98.7779 19.2667 98.8313 19.4933 98.8313 19.84C98.8313 20.1067 98.7846 20.3467 98.6913 20.56C98.6113 20.76 98.4579 20.9 98.2313 20.98C98.0579 21.0333 97.8313 21.08 97.5513 21.12C97.2713 21.1733 97.0246 21.2 96.8113 21.2ZM101.501 21.16C101.101 21.16 100.794 21.0533 100.581 20.84C100.368 20.6133 100.261 20.2933 100.261 19.88V8C100.261 7.58667 100.368 7.27333 100.581 7.06C100.794 6.84667 101.101 6.74 101.501 6.74C101.901 6.74 102.208 6.84667 102.421 7.06C102.648 7.27333 102.761 7.58667 102.761 8V13.18H102.481C102.774 12.4733 103.228 11.94 103.841 11.58C104.468 11.2067 105.174 11.02 105.961 11.02C106.748 11.02 107.394 11.1667 107.901 11.46C108.408 11.7533 108.788 12.2 109.041 12.8C109.294 13.3867 109.421 14.1333 109.421 15.04V19.88C109.421 20.2933 109.314 20.6133 109.101 20.84C108.888 21.0533 108.581 21.16 108.181 21.16C107.781 21.16 107.468 21.0533 107.241 20.84C107.028 20.6133 106.921 20.2933 106.921 19.88V15.16C106.921 14.4 106.774 13.8467 106.481 13.5C106.201 13.1533 105.761 12.98 105.161 12.98C104.428 12.98 103.841 13.2133 103.401 13.68C102.974 14.1333 102.761 14.74 102.761 15.5V19.88C102.761 20.7333 102.341 21.16 101.501 21.16ZM116.78 21.2C115.673 21.2 114.72 20.9933 113.92 20.58C113.12 20.1667 112.5 19.58 112.06 18.82C111.633 18.06 111.42 17.16 111.42 16.12C111.42 15.1067 111.627 14.22 112.04 13.46C112.467 12.7 113.047 12.1067 113.78 11.68C114.527 11.24 115.373 11.02 116.32 11.02C117.013 11.02 117.633 11.1333 118.18 11.36C118.74 11.5867 119.213 11.9133 119.6 12.34C120 12.7667 120.3 13.2867 120.5 13.9C120.713 14.5 120.82 15.18 120.82 15.94C120.82 16.18 120.733 16.3667 120.56 16.5C120.4 16.62 120.167 16.68 119.86 16.68H113.44V15.24H119.06L118.74 15.54C118.74 14.9267 118.647 14.4133 118.46 14C118.287 13.5867 118.027 13.2733 117.68 13.06C117.347 12.8333 116.927 12.72 116.42 12.72C115.86 12.72 115.38 12.8533 114.98 13.12C114.593 13.3733 114.293 13.74 114.08 14.22C113.88 14.6867 113.78 15.2467 113.78 15.9V16.04C113.78 17.1333 114.033 17.9533 114.54 18.5C115.06 19.0333 115.82 19.3 116.82 19.3C117.167 19.3 117.553 19.26 117.98 19.18C118.42 19.0867 118.833 18.9333 119.22 18.72C119.5 18.56 119.747 18.4933 119.96 18.52C120.173 18.5333 120.34 18.6067 120.46 18.74C120.593 18.8733 120.673 19.04 120.7 19.24C120.727 19.4267 120.687 19.62 120.58 19.82C120.487 20.02 120.32 20.1933 120.08 20.34C119.613 20.6333 119.073 20.8533 118.46 21C117.86 21.1333 117.3 21.2 116.78 21.2Z" fill="#444444"/>
<rect x="126.5" width="72" height="28" rx="5" fill="#FAF2FF"/>
<path d="M136.632 21.2C135.779 21.2 135.026 20.9933 134.372 20.58C133.732 20.1667 133.232 19.58 132.872 18.82C132.512 18.0467 132.332 17.14 132.332 16.1C132.332 15.0467 132.512 14.1467 132.872 13.4C133.232 12.64 133.732 12.0533 134.372 11.64C135.026 11.2267 135.779 11.02 136.632 11.02C137.446 11.02 138.152 11.22 138.752 11.62C139.366 12.02 139.779 12.5467 139.992 13.2H139.772V8C139.772 7.58667 139.879 7.27333 140.092 7.06C140.306 6.84667 140.612 6.74 141.012 6.74C141.412 6.74 141.719 6.84667 141.932 7.06C142.159 7.27333 142.272 7.58667 142.272 8V19.88C142.272 20.2933 142.166 20.6133 141.952 20.84C141.739 21.0533 141.432 21.16 141.032 21.16C140.632 21.16 140.326 21.0533 140.112 20.84C139.899 20.6133 139.792 20.2933 139.792 19.88V18.32L140.012 18.92C139.812 19.6133 139.406 20.1667 138.792 20.58C138.179 20.9933 137.459 21.2 136.632 21.2ZM137.332 19.3C137.826 19.3 138.259 19.18 138.632 18.94C139.006 18.7 139.292 18.3467 139.492 17.88C139.706 17.4 139.812 16.8067 139.812 16.1C139.812 15.0333 139.586 14.24 139.132 13.72C138.679 13.1867 138.079 12.92 137.332 12.92C136.839 12.92 136.406 13.04 136.032 13.28C135.659 13.5067 135.366 13.86 135.152 14.34C134.952 14.8067 134.852 15.3933 134.852 16.1C134.852 17.1533 135.079 17.9533 135.532 18.5C135.986 19.0333 136.586 19.3 137.332 19.3ZM146.104 21.14C145.704 21.14 145.398 21.02 145.184 20.78C144.971 20.54 144.864 20.2067 144.864 19.78V12.44C144.864 12 144.971 11.6667 145.184 11.44C145.398 11.2 145.704 11.08 146.104 11.08C146.504 11.08 146.811 11.2 147.024 11.44C147.251 11.6667 147.364 12 147.364 12.44V19.78C147.364 20.2067 147.258 20.54 147.044 20.78C146.831 21.02 146.518 21.14 146.104 21.14ZM146.104 9.22C145.638 9.22 145.271 9.10667 145.004 8.88C144.751 8.64 144.624 8.31333 144.624 7.9C144.624 7.47333 144.751 7.14667 145.004 6.92C145.271 6.69333 145.638 6.58 146.104 6.58C146.584 6.58 146.951 6.69333 147.204 6.92C147.458 7.14667 147.584 7.47333 147.584 7.9C147.584 8.31333 147.458 8.64 147.204 8.88C146.951 9.10667 146.584 9.22 146.104 9.22ZM153.922 21.16C153.589 21.16 153.295 21.0733 153.042 20.9C152.802 20.7267 152.602 20.46 152.442 20.1L149.262 12.72C149.142 12.4267 149.095 12.1533 149.122 11.9C149.162 11.6467 149.282 11.4467 149.482 11.3C149.695 11.14 149.982 11.06 150.342 11.06C150.649 11.06 150.895 11.1333 151.082 11.28C151.269 11.4133 151.435 11.6733 151.582 12.06L154.282 18.8H153.682L156.462 12.04C156.609 11.6667 156.775 11.4133 156.962 11.28C157.162 11.1333 157.429 11.06 157.762 11.06C158.055 11.06 158.289 11.14 158.462 11.3C158.635 11.4467 158.742 11.6467 158.782 11.9C158.822 12.14 158.775 12.4067 158.642 12.7L155.402 20.1C155.255 20.46 155.055 20.7267 154.802 20.9C154.562 21.0733 154.269 21.16 153.922 21.16ZM161.749 21.14C161.349 21.14 161.042 21.02 160.829 20.78C160.616 20.54 160.509 20.2067 160.509 19.78V12.44C160.509 12 160.616 11.6667 160.829 11.44C161.042 11.2 161.349 11.08 161.749 11.08C162.149 11.08 162.456 11.2 162.669 11.44C162.896 11.6667 163.009 12 163.009 12.44V19.78C163.009 20.2067 162.902 20.54 162.689 20.78C162.476 21.02 162.162 21.14 161.749 21.14ZM161.749 9.22C161.282 9.22 160.916 9.10667 160.649 8.88C160.396 8.64 160.269 8.31333 160.269 7.9C160.269 7.47333 160.396 7.14667 160.649 6.92C160.916 6.69333 161.282 6.58 161.749 6.58C162.229 6.58 162.596 6.69333 162.849 6.92C163.102 7.14667 163.229 7.47333 163.229 7.9C163.229 8.31333 163.102 8.64 162.849 8.88C162.596 9.10667 162.229 9.22 161.749 9.22ZM169.187 21.2C168.613 21.2 168.007 21.14 167.367 21.02C166.727 20.9 166.153 20.6933 165.647 20.4C165.433 20.2667 165.28 20.1133 165.187 19.94C165.107 19.7533 165.073 19.5733 165.087 19.4C165.113 19.2133 165.18 19.0533 165.287 18.92C165.407 18.7867 165.553 18.7 165.727 18.66C165.913 18.62 166.113 18.6533 166.327 18.76C166.86 19.0133 167.36 19.1933 167.827 19.3C168.293 19.3933 168.753 19.44 169.207 19.44C169.847 19.44 170.32 19.3333 170.627 19.12C170.947 18.8933 171.107 18.6 171.107 18.24C171.107 17.9333 171 17.7 170.787 17.54C170.587 17.3667 170.28 17.24 169.867 17.16L167.867 16.78C167.04 16.62 166.407 16.32 165.967 15.88C165.54 15.4267 165.327 14.8467 165.327 14.14C165.327 13.5 165.5 12.9467 165.847 12.48C166.207 12.0133 166.7 11.6533 167.327 11.4C167.953 11.1467 168.673 11.02 169.487 11.02C170.073 11.02 170.62 11.0867 171.127 11.22C171.647 11.34 172.147 11.5333 172.627 11.8C172.827 11.9067 172.96 12.0467 173.027 12.22C173.107 12.3933 173.127 12.5733 173.087 12.76C173.047 12.9333 172.967 13.0933 172.847 13.24C172.727 13.3733 172.573 13.46 172.387 13.5C172.213 13.5267 172.013 13.4867 171.787 13.38C171.373 13.1667 170.973 13.0133 170.587 12.92C170.213 12.8267 169.853 12.78 169.507 12.78C168.853 12.78 168.367 12.8933 168.047 13.12C167.74 13.3467 167.587 13.6467 167.587 14.02C167.587 14.3 167.68 14.5333 167.867 14.72C168.053 14.9067 168.34 15.0333 168.727 15.1L170.727 15.48C171.593 15.64 172.247 15.9333 172.687 16.36C173.14 16.7867 173.367 17.36 173.367 18.08C173.367 19.0533 172.987 19.82 172.227 20.38C171.467 20.9267 170.453 21.2 169.187 21.2ZM179.832 21.2C178.819 21.2 177.939 20.9933 177.192 20.58C176.446 20.1667 175.866 19.58 175.452 18.82C175.039 18.0467 174.832 17.14 174.832 16.1C174.832 15.3133 174.946 14.6133 175.172 14C175.412 13.3733 175.752 12.84 176.192 12.4C176.632 11.9467 177.159 11.6067 177.772 11.38C178.386 11.14 179.072 11.02 179.832 11.02C180.846 11.02 181.726 11.2267 182.472 11.64C183.219 12.0533 183.799 12.64 184.212 13.4C184.626 14.16 184.832 15.06 184.832 16.1C184.832 16.8867 184.712 17.5933 184.472 18.22C184.246 18.8467 183.912 19.3867 183.472 19.84C183.032 20.28 182.506 20.62 181.892 20.86C181.279 21.0867 180.592 21.2 179.832 21.2ZM179.832 19.3C180.326 19.3 180.759 19.18 181.132 18.94C181.506 18.7 181.792 18.3467 181.992 17.88C182.206 17.4 182.312 16.8067 182.312 16.1C182.312 15.0333 182.086 14.24 181.632 13.72C181.179 13.1867 180.579 12.92 179.832 12.92C179.339 12.92 178.906 13.04 178.532 13.28C178.159 13.5067 177.866 13.86 177.652 14.34C177.452 14.8067 177.352 15.3933 177.352 16.1C177.352 17.1533 177.579 17.9533 178.032 18.5C178.486 19.0333 179.086 19.3 179.832 19.3ZM188.176 21.16C187.762 21.16 187.442 21.0533 187.216 20.84C187.002 20.6133 186.896 20.2933 186.896 19.88V12.32C186.896 11.9067 187.002 11.5933 187.216 11.38C187.429 11.1667 187.729 11.06 188.116 11.06C188.502 11.06 188.802 11.1667 189.016 11.38C189.229 11.5933 189.336 11.9067 189.336 12.32V13.58H189.136C189.322 12.78 189.689 12.1733 190.236 11.76C190.782 11.3467 191.509 11.1 192.416 11.02C192.696 10.9933 192.916 11.0667 193.076 11.24C193.249 11.4 193.349 11.6533 193.376 12C193.402 12.3333 193.322 12.6067 193.136 12.82C192.962 13.02 192.696 13.14 192.336 13.18L191.896 13.22C191.082 13.3 190.469 13.5533 190.056 13.98C189.642 14.3933 189.436 14.98 189.436 15.74V19.88C189.436 20.2933 189.329 20.6133 189.116 20.84C188.902 21.0533 188.589 21.16 188.176 21.16Z" fill="#AA5EE0"/>
<path d="M206.829 21.14C206.429 21.14 206.122 21.02 205.909 20.78C205.696 20.54 205.589 20.2067 205.589 19.78V12.44C205.589 12 205.696 11.6667 205.909 11.44C206.122 11.2 206.429 11.08 206.829 11.08C207.229 11.08 207.536 11.2 207.749 11.44C207.976 11.6667 208.089 12 208.089 12.44V19.78C208.089 20.2067 207.982 20.54 207.769 20.78C207.556 21.02 207.242 21.14 206.829 21.14ZM206.829 9.22C206.362 9.22 205.996 9.10667 205.729 8.88C205.476 8.64 205.349 8.31333 205.349 7.9C205.349 7.47333 205.476 7.14667 205.729 6.92C205.996 6.69333 206.362 6.58 206.829 6.58C207.309 6.58 207.676 6.69333 207.929 6.92C208.182 7.14667 208.309 7.47333 208.309 7.9C208.309 8.31333 208.182 8.64 207.929 8.88C207.676 9.10667 207.309 9.22 206.829 9.22ZM214.267 21.2C213.693 21.2 213.087 21.14 212.447 21.02C211.807 20.9 211.233 20.6933 210.727 20.4C210.513 20.2667 210.36 20.1133 210.267 19.94C210.187 19.7533 210.153 19.5733 210.167 19.4C210.193 19.2133 210.26 19.0533 210.367 18.92C210.487 18.7867 210.633 18.7 210.807 18.66C210.993 18.62 211.193 18.6533 211.407 18.76C211.94 19.0133 212.44 19.1933 212.907 19.3C213.373 19.3933 213.833 19.44 214.287 19.44C214.927 19.44 215.4 19.3333 215.707 19.12C216.027 18.8933 216.187 18.6 216.187 18.24C216.187 17.9333 216.08 17.7 215.867 17.54C215.667 17.3667 215.36 17.24 214.947 17.16L212.947 16.78C212.12 16.62 211.487 16.32 211.047 15.88C210.62 15.4267 210.407 14.8467 210.407 14.14C210.407 13.5 210.58 12.9467 210.927 12.48C211.287 12.0133 211.78 11.6533 212.407 11.4C213.033 11.1467 213.753 11.02 214.567 11.02C215.153 11.02 215.7 11.0867 216.207 11.22C216.727 11.34 217.227 11.5333 217.707 11.8C217.907 11.9067 218.04 12.0467 218.107 12.22C218.187 12.3933 218.207 12.5733 218.167 12.76C218.127 12.9333 218.047 13.0933 217.927 13.24C217.807 13.3733 217.653 13.46 217.467 13.5C217.293 13.5267 217.093 13.4867 216.867 13.38C216.453 13.1667 216.053 13.0133 215.667 12.92C215.293 12.8267 214.933 12.78 214.587 12.78C213.933 12.78 213.447 12.8933 213.127 13.12C212.82 13.3467 212.667 13.6467 212.667 14.02C212.667 14.3 212.76 14.5333 212.947 14.72C213.133 14.9067 213.42 15.0333 213.807 15.1L215.807 15.48C216.673 15.64 217.327 15.9333 217.767 16.36C218.22 16.7867 218.447 17.36 218.447 18.08C218.447 19.0533 218.067 19.82 217.307 20.38C216.547 20.9267 215.533 21.2 214.267 21.2ZM229.102 21.2C228.395 21.2 227.762 21.0667 227.202 20.8C226.655 20.52 226.222 20.1467 225.902 19.68C225.595 19.2133 225.442 18.6867 225.442 18.1C225.442 17.38 225.629 16.8133 226.002 16.4C226.375 15.9733 226.982 15.6667 227.822 15.48C228.662 15.2933 229.789 15.2 231.202 15.2H232.202V16.64H231.222C230.395 16.64 229.735 16.68 229.242 16.76C228.749 16.84 228.395 16.98 228.182 17.18C227.982 17.3667 227.882 17.6333 227.882 17.98C227.882 18.42 228.035 18.78 228.342 19.06C228.649 19.34 229.075 19.48 229.622 19.48C230.062 19.48 230.449 19.38 230.782 19.18C231.129 18.9667 231.402 18.68 231.602 18.32C231.802 17.96 231.902 17.5467 231.902 17.08V14.78C231.902 14.1133 231.755 13.6333 231.462 13.34C231.169 13.0467 230.675 12.9 229.982 12.9C229.595 12.9 229.175 12.9467 228.722 13.04C228.282 13.1333 227.815 13.2933 227.322 13.52C227.069 13.64 226.842 13.6733 226.642 13.62C226.455 13.5667 226.309 13.46 226.202 13.3C226.095 13.1267 226.042 12.94 226.042 12.74C226.042 12.54 226.095 12.3467 226.202 12.16C226.309 11.96 226.489 11.8133 226.742 11.72C227.355 11.4667 227.942 11.2867 228.502 11.18C229.075 11.0733 229.595 11.02 230.062 11.02C231.022 11.02 231.809 11.1667 232.422 11.46C233.049 11.7533 233.515 12.2 233.822 12.8C234.129 13.3867 234.282 14.1467 234.282 15.08V19.88C234.282 20.2933 234.182 20.6133 233.982 20.84C233.782 21.0533 233.495 21.16 233.122 21.16C232.749 21.16 232.455 21.0533 232.242 20.84C232.042 20.6133 231.942 20.2933 231.942 19.88V18.92H232.102C232.009 19.3867 231.822 19.7933 231.542 20.14C231.275 20.4733 230.935 20.7333 230.522 20.92C230.109 21.1067 229.635 21.2 229.102 21.2ZM246.029 21.16C245.696 21.16 245.409 21.08 245.169 20.92C244.929 20.7467 244.736 20.48 244.589 20.12L241.689 12.72C241.569 12.4 241.529 12.12 241.569 11.88C241.623 11.6267 241.749 11.4267 241.949 11.28C242.149 11.1333 242.416 11.06 242.749 11.06C243.043 11.06 243.283 11.1333 243.469 11.28C243.656 11.4133 243.816 11.6733 243.949 12.06L246.369 18.72H245.909L248.409 11.9C248.516 11.6067 248.656 11.3933 248.829 11.26C249.016 11.1267 249.256 11.06 249.549 11.06C249.843 11.06 250.083 11.1333 250.269 11.28C250.456 11.4133 250.596 11.62 250.689 11.9L253.149 18.72H252.729L255.169 12C255.303 11.64 255.469 11.3933 255.669 11.26C255.883 11.1267 256.116 11.06 256.369 11.06C256.689 11.06 256.936 11.14 257.109 11.3C257.283 11.46 257.383 11.6667 257.409 11.92C257.436 12.16 257.389 12.4267 257.269 12.72L254.389 20.12C254.256 20.4667 254.063 20.7267 253.809 20.9C253.569 21.0733 253.283 21.16 252.949 21.16C252.616 21.16 252.323 21.0733 252.069 20.9C251.829 20.7267 251.643 20.4667 251.509 20.12L248.889 13.18H250.029L247.469 20.1C247.336 20.46 247.149 20.7267 246.909 20.9C246.669 21.0733 246.376 21.16 246.029 21.16ZM260.54 21.16C260.14 21.16 259.833 21.0533 259.62 20.84C259.407 20.6133 259.3 20.2933 259.3 19.88V8C259.3 7.58667 259.407 7.27333 259.62 7.06C259.833 6.84667 260.14 6.74 260.54 6.74C260.94 6.74 261.247 6.84667 261.46 7.06C261.687 7.27333 261.8 7.58667 261.8 8V13.18H261.52C261.813 12.4733 262.267 11.94 262.88 11.58C263.507 11.2067 264.213 11.02 265 11.02C265.787 11.02 266.433 11.1667 266.94 11.46C267.447 11.7533 267.827 12.2 268.08 12.8C268.333 13.3867 268.46 14.1333 268.46 15.04V19.88C268.46 20.2933 268.353 20.6133 268.14 20.84C267.927 21.0533 267.62 21.16 267.22 21.16C266.82 21.16 266.507 21.0533 266.28 20.84C266.067 20.6133 265.96 20.2933 265.96 19.88V15.16C265.96 14.4 265.813 13.8467 265.52 13.5C265.24 13.1533 264.8 12.98 264.2 12.98C263.467 12.98 262.88 13.2133 262.44 13.68C262.013 14.1333 261.8 14.74 261.8 15.5V19.88C261.8 20.7333 261.38 21.16 260.54 21.16ZM275.459 21.2C274.446 21.2 273.566 20.9933 272.819 20.58C272.073 20.1667 271.493 19.58 271.079 18.82C270.666 18.0467 270.459 17.14 270.459 16.1C270.459 15.3133 270.573 14.6133 270.799 14C271.039 13.3733 271.379 12.84 271.819 12.4C272.259 11.9467 272.786 11.6067 273.399 11.38C274.013 11.14 274.699 11.02 275.459 11.02C276.473 11.02 277.353 11.2267 278.099 11.64C278.846 12.0533 279.426 12.64 279.839 13.4C280.253 14.16 280.459 15.06 280.459 16.1C280.459 16.8867 280.339 17.5933 280.099 18.22C279.873 18.8467 279.539 19.3867 279.099 19.84C278.659 20.28 278.133 20.62 277.519 20.86C276.906 21.0867 276.219 21.2 275.459 21.2ZM275.459 19.3C275.953 19.3 276.386 19.18 276.759 18.94C277.133 18.7 277.419 18.3467 277.619 17.88C277.833 17.4 277.939 16.8067 277.939 16.1C277.939 15.0333 277.713 14.24 277.259 13.72C276.806 13.1867 276.206 12.92 275.459 12.92C274.966 12.92 274.533 13.04 274.159 13.28C273.786 13.5067 273.493 13.86 273.279 14.34C273.079 14.8067 272.979 15.3933 272.979 16.1C272.979 17.1533 273.206 17.9533 273.659 18.5C274.113 19.0333 274.713 19.3 275.459 19.3ZM285.863 21.2C284.756 21.2 283.923 20.8867 283.363 20.26C282.803 19.62 282.523 18.6867 282.523 17.46V8C282.523 7.58667 282.629 7.27333 282.843 7.06C283.056 6.84667 283.363 6.74 283.763 6.74C284.163 6.74 284.469 6.84667 284.683 7.06C284.909 7.27333 285.023 7.58667 285.023 8V17.34C285.023 17.9533 285.149 18.4067 285.403 18.7C285.669 18.9933 286.043 19.14 286.523 19.14C286.629 19.14 286.729 19.14 286.823 19.14C286.916 19.1267 287.009 19.1133 287.103 19.1C287.289 19.0733 287.416 19.1267 287.483 19.26C287.549 19.38 287.583 19.6333 287.583 20.02C287.583 20.3533 287.516 20.6133 287.383 20.8C287.249 20.9867 287.029 21.1 286.723 21.14C286.589 21.1533 286.449 21.1667 286.303 21.18C286.156 21.1933 286.009 21.2 285.863 21.2ZM293.632 21.2C292.525 21.2 291.572 20.9933 290.772 20.58C289.972 20.1667 289.352 19.58 288.912 18.82C288.485 18.06 288.272 17.16 288.272 16.12C288.272 15.1067 288.478 14.22 288.892 13.46C289.318 12.7 289.898 12.1067 290.632 11.68C291.378 11.24 292.225 11.02 293.172 11.02C293.865 11.02 294.485 11.1333 295.032 11.36C295.592 11.5867 296.065 11.9133 296.452 12.34C296.852 12.7667 297.152 13.2867 297.352 13.9C297.565 14.5 297.672 15.18 297.672 15.94C297.672 16.18 297.585 16.3667 297.412 16.5C297.252 16.62 297.018 16.68 296.712 16.68H290.292V15.24H295.912L295.592 15.54C295.592 14.9267 295.498 14.4133 295.312 14C295.138 13.5867 294.878 13.2733 294.532 13.06C294.198 12.8333 293.778 12.72 293.272 12.72C292.712 12.72 292.232 12.8533 291.832 13.12C291.445 13.3733 291.145 13.74 290.932 14.22C290.732 14.6867 290.632 15.2467 290.632 15.9V16.04C290.632 17.1333 290.885 17.9533 291.392 18.5C291.912 19.0333 292.672 19.3 293.672 19.3C294.018 19.3 294.405 19.26 294.832 19.18C295.272 19.0867 295.685 18.9333 296.072 18.72C296.352 18.56 296.598 18.4933 296.812 18.52C297.025 18.5333 297.192 18.6067 297.312 18.74C297.445 18.8733 297.525 19.04 297.552 19.24C297.578 19.4267 297.538 19.62 297.432 19.82C297.338 20.02 297.172 20.1933 296.932 20.34C296.465 20.6333 295.925 20.8533 295.312 21C294.712 21.1333 294.152 21.2 293.632 21.2ZM306.321 21.16C305.921 21.16 305.615 21.0533 305.401 20.84C305.188 20.6133 305.081 20.2933 305.081 19.88V12.32C305.081 11.9067 305.188 11.5933 305.401 11.38C305.615 11.1667 305.915 11.06 306.301 11.06C306.688 11.06 306.988 11.1667 307.201 11.38C307.415 11.5933 307.521 11.9067 307.521 12.32V13.68L307.301 13.18C307.595 12.4733 308.048 11.94 308.661 11.58C309.288 11.2067 309.995 11.02 310.781 11.02C311.568 11.02 312.215 11.1667 312.721 11.46C313.228 11.7533 313.608 12.2 313.861 12.8C314.115 13.3867 314.241 14.1333 314.241 15.04V19.88C314.241 20.2933 314.135 20.6133 313.921 20.84C313.708 21.0533 313.401 21.16 313.001 21.16C312.601 21.16 312.288 21.0533 312.061 20.84C311.848 20.6133 311.741 20.2933 311.741 19.88V15.16C311.741 14.4 311.595 13.8467 311.301 13.5C311.021 13.1533 310.581 12.98 309.981 12.98C309.248 12.98 308.661 13.2133 308.221 13.68C307.795 14.1333 307.581 14.74 307.581 15.5V19.88C307.581 20.7333 307.161 21.16 306.321 21.16ZM320.32 21.2C319.507 21.2 318.834 21.0533 318.3 20.76C317.767 20.4533 317.367 20 317.1 19.4C316.847 18.8 316.72 18.0533 316.72 17.16V12.32C316.72 11.8933 316.827 11.58 317.04 11.38C317.254 11.1667 317.56 11.06 317.96 11.06C318.36 11.06 318.667 11.1667 318.88 11.38C319.107 11.58 319.22 11.8933 319.22 12.32V17.2C319.22 17.8933 319.36 18.4067 319.64 18.74C319.92 19.0733 320.367 19.24 320.98 19.24C321.647 19.24 322.194 19.0133 322.62 18.56C323.047 18.0933 323.26 17.48 323.26 16.72V12.32C323.26 11.8933 323.367 11.58 323.58 11.38C323.794 11.1667 324.1 11.06 324.5 11.06C324.9 11.06 325.207 11.1667 325.42 11.38C325.647 11.58 325.76 11.8933 325.76 12.32V19.88C325.76 20.7333 325.354 21.16 324.54 21.16C324.154 21.16 323.854 21.0533 323.64 20.84C323.427 20.6133 323.32 20.2933 323.32 19.88V18.36L323.6 18.96C323.32 19.68 322.894 20.2333 322.32 20.62C321.76 21.0067 321.094 21.2 320.32 21.2ZM329.643 21.16C329.243 21.16 328.936 21.0533 328.723 20.84C328.509 20.6133 328.403 20.2933 328.403 19.88V12.32C328.403 11.9067 328.509 11.5933 328.723 11.38C328.936 11.1667 329.236 11.06 329.623 11.06C330.009 11.06 330.309 11.1667 330.523 11.38C330.736 11.5933 330.843 11.9067 330.843 12.32V13.78L330.623 13.18C330.889 12.5133 331.303 11.9867 331.863 11.6C332.423 11.2133 333.089 11.02 333.863 11.02C334.649 11.02 335.296 11.2067 335.803 11.58C336.309 11.9533 336.663 12.5267 336.863 13.3H336.583C336.849 12.5933 337.289 12.04 337.903 11.64C338.516 11.2267 339.223 11.02 340.023 11.02C340.769 11.02 341.383 11.1667 341.863 11.46C342.356 11.7533 342.723 12.2 342.963 12.8C343.203 13.3867 343.323 14.1333 343.323 15.04V19.88C343.323 20.2933 343.209 20.6133 342.983 20.84C342.769 21.0533 342.463 21.16 342.063 21.16C341.663 21.16 341.356 21.0533 341.143 20.84C340.929 20.6133 340.823 20.2933 340.823 19.88V15.14C340.823 14.3933 340.696 13.8467 340.443 13.5C340.203 13.1533 339.789 12.98 339.203 12.98C338.549 12.98 338.036 13.2133 337.663 13.68C337.289 14.1333 337.103 14.7667 337.103 15.58V19.88C337.103 20.2933 336.996 20.6133 336.783 20.84C336.569 21.0533 336.263 21.16 335.863 21.16C335.463 21.16 335.149 21.0533 334.923 20.84C334.709 20.6133 334.603 20.2933 334.603 19.88V15.14C334.603 14.3933 334.476 13.8467 334.223 13.5C333.983 13.1533 333.576 12.98 333.003 12.98C332.349 12.98 331.836 13.2133 331.463 13.68C331.089 14.1333 330.903 14.7667 330.903 15.58V19.88C330.903 20.7333 330.483 21.16 329.643 21.16ZM351.542 21.2C350.715 21.2 349.988 20.9933 349.362 20.58C348.748 20.1667 348.342 19.6133 348.142 18.92L348.362 18.42V19.88C348.362 20.2933 348.255 20.6133 348.042 20.84C347.828 21.0533 347.528 21.16 347.142 21.16C346.742 21.16 346.435 21.0533 346.222 20.84C346.008 20.6133 345.902 20.2933 345.902 19.88V8C345.902 7.58667 346.008 7.27333 346.222 7.06C346.435 6.84667 346.742 6.74 347.142 6.74C347.542 6.74 347.848 6.84667 348.062 7.06C348.288 7.27333 348.402 7.58667 348.402 8V13.2H348.162C348.375 12.5467 348.788 12.02 349.402 11.62C350.015 11.22 350.728 11.02 351.542 11.02C352.408 11.02 353.162 11.2267 353.802 11.64C354.442 12.0533 354.942 12.64 355.302 13.4C355.662 14.1467 355.842 15.0467 355.842 16.1C355.842 17.14 355.662 18.0467 355.302 18.82C354.942 19.58 354.435 20.1667 353.782 20.58C353.142 20.9933 352.395 21.2 351.542 21.2ZM350.842 19.3C351.335 19.3 351.768 19.18 352.142 18.94C352.515 18.7 352.802 18.3467 353.002 17.88C353.215 17.4 353.322 16.8067 353.322 16.1C353.322 15.0333 353.095 14.24 352.642 13.72C352.188 13.1867 351.588 12.92 350.842 12.92C350.348 12.92 349.915 13.04 349.542 13.28C349.168 13.5067 348.875 13.86 348.662 14.34C348.462 14.8067 348.362 15.3933 348.362 16.1C348.362 17.1533 348.588 17.9533 349.042 18.5C349.495 19.0333 350.095 19.3 350.842 19.3ZM362.714 21.2C361.607 21.2 360.654 20.9933 359.854 20.58C359.054 20.1667 358.434 19.58 357.994 18.82C357.567 18.06 357.354 17.16 357.354 16.12C357.354 15.1067 357.56 14.22 357.974 13.46C358.4 12.7 358.98 12.1067 359.714 11.68C360.46 11.24 361.307 11.02 362.254 11.02C362.947 11.02 363.567 11.1333 364.114 11.36C364.674 11.5867 365.147 11.9133 365.534 12.34C365.934 12.7667 366.234 13.2867 366.434 13.9C366.647 14.5 366.754 15.18 366.754 15.94C366.754 16.18 366.667 16.3667 366.494 16.5C366.334 16.62 366.1 16.68 365.794 16.68H359.374V15.24H364.994L364.674 15.54C364.674 14.9267 364.58 14.4133 364.394 14C364.22 13.5867 363.96 13.2733 363.614 13.06C363.28 12.8333 362.86 12.72 362.354 12.72C361.794 12.72 361.314 12.8533 360.914 13.12C360.527 13.3733 360.227 13.74 360.014 14.22C359.814 14.6867 359.714 15.2467 359.714 15.9V16.04C359.714 17.1333 359.967 17.9533 360.474 18.5C360.994 19.0333 361.754 19.3 362.754 19.3C363.1 19.3 363.487 19.26 363.914 19.18C364.354 19.0867 364.767 18.9333 365.154 18.72C365.434 18.56 365.68 18.4933 365.894 18.52C366.107 18.5333 366.274 18.6067 366.394 18.74C366.527 18.8733 366.607 19.04 366.634 19.24C366.66 19.4267 366.62 19.62 366.514 19.82C366.42 20.02 366.254 20.1933 366.014 20.34C365.547 20.6333 365.007 20.8533 364.394 21C363.794 21.1333 363.234 21.2 362.714 21.2ZM370.014 21.16C369.6 21.16 369.28 21.0533 369.054 20.84C368.84 20.6133 368.734 20.2933 368.734 19.88V12.32C368.734 11.9067 368.84 11.5933 369.054 11.38C369.267 11.1667 369.567 11.06 369.954 11.06C370.34 11.06 370.64 11.1667 370.854 11.38C371.067 11.5933 371.174 11.9067 371.174 12.32V13.58H370.974C371.16 12.78 371.527 12.1733 372.074 11.76C372.62 11.3467 373.347 11.1 374.254 11.02C374.534 10.9933 374.754 11.0667 374.914 11.24C375.087 11.4 375.187 11.6533 375.214 12C375.24 12.3333 375.16 12.6067 374.974 12.82C374.8 13.02 374.534 13.14 374.174 13.18L373.734 13.22C372.92 13.3 372.307 13.5533 371.894 13.98C371.48 14.3933 371.274 14.98 371.274 15.74V19.88C371.274 20.2933 371.167 20.6133 370.954 20.84C370.74 21.0533 370.427 21.16 370.014 21.16ZM377.636 23.14C377.463 23.3533 377.276 23.4733 377.076 23.5C376.89 23.54 376.723 23.5067 376.576 23.4C376.43 23.2933 376.35 23.14 376.336 22.94C376.323 22.7533 376.41 22.5467 376.596 22.32C376.863 21.9867 377.043 21.6533 377.136 21.32C377.23 20.9867 377.276 20.6867 377.276 20.42L377.376 21.1C376.91 21.1 376.53 20.9667 376.236 20.7C375.956 20.42 375.816 20.0533 375.816 19.6C375.816 19.1733 375.95 18.8267 376.216 18.56C376.483 18.28 376.843 18.14 377.296 18.14C377.763 18.14 378.13 18.3 378.396 18.62C378.663 18.9267 378.796 19.3733 378.796 19.96C378.796 20.28 378.763 20.6133 378.696 20.96C378.643 21.2933 378.53 21.64 378.356 22C378.196 22.3733 377.956 22.7533 377.636 23.14ZM389.847 21.2C388.74 21.2 387.907 20.8867 387.347 20.26C386.787 19.62 386.507 18.6867 386.507 17.46V8C386.507 7.58667 386.614 7.27333 386.827 7.06C387.04 6.84667 387.347 6.74 387.747 6.74C388.147 6.74 388.454 6.84667 388.667 7.06C388.894 7.27333 389.007 7.58667 389.007 8V17.34C389.007 17.9533 389.134 18.4067 389.387 18.7C389.654 18.9933 390.027 19.14 390.507 19.14C390.614 19.14 390.714 19.14 390.807 19.14C390.9 19.1267 390.994 19.1133 391.087 19.1C391.274 19.0733 391.4 19.1267 391.467 19.26C391.534 19.38 391.567 19.6333 391.567 20.02C391.567 20.3533 391.5 20.6133 391.367 20.8C391.234 20.9867 391.014 21.1 390.707 21.14C390.574 21.1533 390.434 21.1667 390.287 21.18C390.14 21.1933 389.994 21.2 389.847 21.2ZM397.616 21.2C396.509 21.2 395.556 20.9933 394.756 20.58C393.956 20.1667 393.336 19.58 392.896 18.82C392.469 18.06 392.256 17.16 392.256 16.12C392.256 15.1067 392.463 14.22 392.876 13.46C393.303 12.7 393.883 12.1067 394.616 11.68C395.363 11.24 396.209 11.02 397.156 11.02C397.849 11.02 398.469 11.1333 399.016 11.36C399.576 11.5867 400.049 11.9133 400.436 12.34C400.836 12.7667 401.136 13.2867 401.336 13.9C401.549 14.5 401.656 15.18 401.656 15.94C401.656 16.18 401.569 16.3667 401.396 16.5C401.236 16.62 401.003 16.68 400.696 16.68H394.276V15.24H399.896L399.576 15.54C399.576 14.9267 399.483 14.4133 399.296 14C399.123 13.5867 398.863 13.2733 398.516 13.06C398.183 12.8333 397.763 12.72 397.256 12.72C396.696 12.72 396.216 12.8533 395.816 13.12C395.429 13.3733 395.129 13.74 394.916 14.22C394.716 14.6867 394.616 15.2467 394.616 15.9V16.04C394.616 17.1333 394.869 17.9533 395.376 18.5C395.896 19.0333 396.656 19.3 397.656 19.3C398.003 19.3 398.389 19.26 398.816 19.18C399.256 19.0867 399.669 18.9333 400.056 18.72C400.336 18.56 400.583 18.4933 400.796 18.52C401.009 18.5333 401.176 18.6067 401.296 18.74C401.429 18.8733 401.509 19.04 401.536 19.24C401.563 19.4267 401.523 19.62 401.416 19.82C401.323 20.02 401.156 20.1933 400.916 20.34C400.449 20.6333 399.909 20.8533 399.296 21C398.696 21.1333 398.136 21.2 397.616 21.2ZM408.077 21.2C407.21 21.2 406.484 21.0533 405.897 20.76C405.324 20.4667 404.897 20.04 404.617 19.48C404.337 18.9067 404.197 18.2 404.197 17.36V13.1H403.157C402.837 13.1 402.59 13.02 402.417 12.86C402.244 12.6867 402.157 12.4533 402.157 12.16C402.157 11.8533 402.244 11.62 402.417 11.46C402.59 11.3 402.837 11.22 403.157 11.22H404.197V9.4C404.197 8.98667 404.304 8.67333 404.517 8.46C404.744 8.24667 405.057 8.14 405.457 8.14C405.857 8.14 406.164 8.24667 406.377 8.46C406.59 8.67333 406.697 8.98667 406.697 9.4V11.22H408.817C409.137 11.22 409.384 11.3 409.557 11.46C409.73 11.62 409.817 11.8533 409.817 12.16C409.817 12.4533 409.73 12.6867 409.557 12.86C409.384 13.02 409.137 13.1 408.817 13.1H406.697V17.22C406.697 17.86 406.837 18.34 407.117 18.66C407.397 18.98 407.85 19.14 408.477 19.14C408.704 19.14 408.904 19.12 409.077 19.08C409.25 19.04 409.404 19.0133 409.537 19C409.697 18.9867 409.83 19.04 409.937 19.16C410.044 19.2667 410.097 19.4933 410.097 19.84C410.097 20.1067 410.05 20.3467 409.957 20.56C409.877 20.76 409.724 20.9 409.497 20.98C409.324 21.0333 409.097 21.08 408.817 21.12C408.537 21.1733 408.29 21.2 408.077 21.2ZM412.793 11.8C412.619 12.0133 412.433 12.1333 412.233 12.16C412.046 12.1867 411.879 12.1533 411.733 12.06C411.586 11.9533 411.506 11.8067 411.493 11.62C411.479 11.42 411.566 11.2067 411.753 10.98C412.019 10.6467 412.199 10.3133 412.293 9.98C412.386 9.64667 412.433 9.35333 412.433 9.1L412.533 9.76C412.066 9.76 411.686 9.62667 411.393 9.36C411.113 9.09333 410.973 8.73333 410.973 8.28C410.973 7.84 411.106 7.48667 411.373 7.22C411.639 6.94 411.999 6.8 412.453 6.8C412.919 6.8 413.286 6.96 413.553 7.28C413.819 7.58667 413.953 8.03333 413.953 8.62C413.953 8.94 413.919 9.27333 413.853 9.62C413.799 9.95333 413.686 10.3067 413.513 10.68C413.353 11.04 413.113 11.4133 412.793 11.8ZM419.247 21.2C418.674 21.2 418.067 21.14 417.427 21.02C416.787 20.9 416.214 20.6933 415.707 20.4C415.494 20.2667 415.341 20.1133 415.247 19.94C415.167 19.7533 415.134 19.5733 415.147 19.4C415.174 19.2133 415.241 19.0533 415.347 18.92C415.467 18.7867 415.614 18.7 415.787 18.66C415.974 18.62 416.174 18.6533 416.387 18.76C416.921 19.0133 417.421 19.1933 417.887 19.3C418.354 19.3933 418.814 19.44 419.267 19.44C419.907 19.44 420.381 19.3333 420.687 19.12C421.007 18.8933 421.167 18.6 421.167 18.24C421.167 17.9333 421.061 17.7 420.847 17.54C420.647 17.3667 420.341 17.24 419.927 17.16L417.927 16.78C417.101 16.62 416.467 16.32 416.027 15.88C415.601 15.4267 415.387 14.8467 415.387 14.14C415.387 13.5 415.561 12.9467 415.907 12.48C416.267 12.0133 416.761 11.6533 417.387 11.4C418.014 11.1467 418.734 11.02 419.547 11.02C420.134 11.02 420.681 11.0867 421.187 11.22C421.707 11.34 422.207 11.5333 422.687 11.8C422.887 11.9067 423.021 12.0467 423.087 12.22C423.167 12.3933 423.187 12.5733 423.147 12.76C423.107 12.9333 423.027 13.0933 422.907 13.24C422.787 13.3733 422.634 13.46 422.447 13.5C422.274 13.5267 422.074 13.4867 421.847 13.38C421.434 13.1667 421.034 13.0133 420.647 12.92C420.274 12.8267 419.914 12.78 419.567 12.78C418.914 12.78 418.427 12.8933 418.107 13.12C417.801 13.3467 417.647 13.6467 417.647 14.02C417.647 14.3 417.741 14.5333 417.927 14.72C418.114 14.9067 418.401 15.0333 418.787 15.1L420.787 15.48C421.654 15.64 422.307 15.9333 422.747 16.36C423.201 16.7867 423.427 17.36 423.427 18.08C423.427 19.0533 423.047 19.82 422.287 20.38C421.527 20.9267 420.514 21.2 419.247 21.2ZM434.403 21.2C433.589 21.2 432.916 21.0533 432.383 20.76C431.849 20.4533 431.449 20 431.183 19.4C430.929 18.8 430.803 18.0533 430.803 17.16V12.32C430.803 11.8933 430.909 11.58 431.123 11.38C431.336 11.1667 431.643 11.06 432.043 11.06C432.443 11.06 432.749 11.1667 432.963 11.38C433.189 11.58 433.303 11.8933 433.303 12.32V17.2C433.303 17.8933 433.443 18.4067 433.723 18.74C434.003 19.0733 434.449 19.24 435.063 19.24C435.729 19.24 436.276 19.0133 436.703 18.56C437.129 18.0933 437.343 17.48 437.343 16.72V12.32C437.343 11.8933 437.449 11.58 437.663 11.38C437.876 11.1667 438.183 11.06 438.583 11.06C438.983 11.06 439.289 11.1667 439.503 11.38C439.729 11.58 439.842 11.8933 439.842 12.32V19.88C439.842 20.7333 439.436 21.16 438.623 21.16C438.236 21.16 437.936 21.0533 437.723 20.84C437.509 20.6133 437.403 20.2933 437.403 19.88V18.36L437.683 18.96C437.403 19.68 436.976 20.2333 436.403 20.62C435.843 21.0067 435.176 21.2 434.403 21.2ZM446.025 21.2C445.451 21.2 444.845 21.14 444.205 21.02C443.565 20.9 442.991 20.6933 442.485 20.4C442.271 20.2667 442.118 20.1133 442.025 19.94C441.945 19.7533 441.911 19.5733 441.925 19.4C441.951 19.2133 442.018 19.0533 442.125 18.92C442.245 18.7867 442.391 18.7 442.565 18.66C442.751 18.62 442.951 18.6533 443.165 18.76C443.698 19.0133 444.198 19.1933 444.665 19.3C445.131 19.3933 445.591 19.44 446.045 19.44C446.685 19.44 447.158 19.3333 447.465 19.12C447.785 18.8933 447.945 18.6 447.945 18.24C447.945 17.9333 447.838 17.7 447.625 17.54C447.425 17.3667 447.118 17.24 446.705 17.16L444.705 16.78C443.878 16.62 443.245 16.32 442.805 15.88C442.378 15.4267 442.165 14.8467 442.165 14.14C442.165 13.5 442.338 12.9467 442.685 12.48C443.045 12.0133 443.538 11.6533 444.165 11.4C444.791 11.1467 445.511 11.02 446.325 11.02C446.911 11.02 447.458 11.0867 447.965 11.22C448.485 11.34 448.985 11.5333 449.465 11.8C449.665 11.9067 449.798 12.0467 449.865 12.22C449.945 12.3933 449.965 12.5733 449.925 12.76C449.885 12.9333 449.805 13.0933 449.685 13.24C449.565 13.3733 449.411 13.46 449.225 13.5C449.051 13.5267 448.851 13.4867 448.625 13.38C448.211 13.1667 447.811 13.0133 447.425 12.92C447.051 12.8267 446.691 12.78 446.345 12.78C445.691 12.78 445.205 12.8933 444.885 13.12C444.578 13.3467 444.425 13.6467 444.425 14.02C444.425 14.3 444.518 14.5333 444.705 14.72C444.891 14.9067 445.178 15.0333 445.565 15.1L447.565 15.48C448.431 15.64 449.085 15.9333 449.525 16.36C449.978 16.7867 450.205 17.36 450.205 18.08C450.205 19.0533 449.825 19.82 449.065 20.38C448.305 20.9267 447.291 21.2 446.025 21.2ZM457.03 21.2C455.923 21.2 454.97 20.9933 454.17 20.58C453.37 20.1667 452.75 19.58 452.31 18.82C451.883 18.06 451.67 17.16 451.67 16.12C451.67 15.1067 451.877 14.22 452.29 13.46C452.717 12.7 453.297 12.1067 454.03 11.68C454.777 11.24 455.623 11.02 456.57 11.02C457.263 11.02 457.883 11.1333 458.43 11.36C458.99 11.5867 459.463 11.9133 459.85 12.34C460.25 12.7667 460.55 13.2867 460.75 13.9C460.963 14.5 461.07 15.18 461.07 15.94C461.07 16.18 460.983 16.3667 460.81 16.5C460.65 16.62 460.417 16.68 460.11 16.68H453.69V15.24H459.31L458.99 15.54C458.99 14.9267 458.897 14.4133 458.71 14C458.537 13.5867 458.277 13.2733 457.93 13.06C457.597 12.8333 457.177 12.72 456.67 12.72C456.11 12.72 455.63 12.8533 455.23 13.12C454.843 13.3733 454.543 13.74 454.33 14.22C454.13 14.6867 454.03 15.2467 454.03 15.9V16.04C454.03 17.1333 454.283 17.9533 454.79 18.5C455.31 19.0333 456.07 19.3 457.07 19.3C457.417 19.3 457.803 19.26 458.23 19.18C458.67 19.0867 459.083 18.9333 459.47 18.72C459.75 18.56 459.997 18.4933 460.21 18.52C460.423 18.5333 460.59 18.6067 460.71 18.74C460.843 18.8733 460.923 19.04 460.95 19.24C460.977 19.4267 460.937 19.62 460.83 19.82C460.737 20.02 460.57 20.1933 460.33 20.34C459.863 20.6333 459.323 20.8533 458.71 21C458.11 21.1333 457.55 21.2 457.03 21.2ZM471.82 21.2C470.713 21.2 469.88 20.8867 469.32 20.26C468.76 19.62 468.48 18.6867 468.48 17.46V8C468.48 7.58667 468.586 7.27333 468.8 7.06C469.013 6.84667 469.32 6.74 469.72 6.74C470.12 6.74 470.426 6.84667 470.64 7.06C470.866 7.27333 470.98 7.58667 470.98 8V17.34C470.98 17.9533 471.106 18.4067 471.36 18.7C471.626 18.9933 472 19.14 472.48 19.14C472.586 19.14 472.686 19.14 472.78 19.14C472.873 19.1267 472.966 19.1133 473.06 19.1C473.246 19.0733 473.373 19.1267 473.44 19.26C473.506 19.38 473.54 19.6333 473.54 20.02C473.54 20.3533 473.473 20.6133 473.34 20.8C473.206 20.9867 472.986 21.1 472.68 21.14C472.546 21.1533 472.406 21.1667 472.26 21.18C472.113 21.1933 471.966 21.2 471.82 21.2ZM479.229 21.2C478.215 21.2 477.335 20.9933 476.589 20.58C475.842 20.1667 475.262 19.58 474.849 18.82C474.435 18.0467 474.229 17.14 474.229 16.1C474.229 15.3133 474.342 14.6133 474.569 14C474.809 13.3733 475.149 12.84 475.589 12.4C476.029 11.9467 476.555 11.6067 477.169 11.38C477.782 11.14 478.469 11.02 479.229 11.02C480.242 11.02 481.122 11.2267 481.869 11.64C482.615 12.0533 483.195 12.64 483.609 13.4C484.022 14.16 484.229 15.06 484.229 16.1C484.229 16.8867 484.109 17.5933 483.869 18.22C483.642 18.8467 483.309 19.3867 482.869 19.84C482.429 20.28 481.902 20.62 481.289 20.86C480.675 21.0867 479.989 21.2 479.229 21.2ZM479.229 19.3C479.722 19.3 480.155 19.18 480.529 18.94C480.902 18.7 481.189 18.3467 481.389 17.88C481.602 17.4 481.709 16.8067 481.709 16.1C481.709 15.0333 481.482 14.24 481.029 13.72C480.575 13.1867 479.975 12.92 479.229 12.92C478.735 12.92 478.302 13.04 477.929 13.28C477.555 13.5067 477.262 13.86 477.049 14.34C476.849 14.8067 476.749 15.3933 476.749 16.1C476.749 17.1533 476.975 17.9533 477.429 18.5C477.882 19.0333 478.482 19.3 479.229 19.3ZM487.532 21.16C487.132 21.16 486.826 21.0533 486.612 20.84C486.399 20.6133 486.292 20.2933 486.292 19.88V12.32C486.292 11.9067 486.399 11.5933 486.612 11.38C486.826 11.1667 487.126 11.06 487.512 11.06C487.899 11.06 488.199 11.1667 488.412 11.38C488.626 11.5933 488.732 11.9067 488.732 12.32V13.68L488.512 13.18C488.806 12.4733 489.259 11.94 489.872 11.58C490.499 11.2067 491.206 11.02 491.992 11.02C492.779 11.02 493.426 11.1667 493.932 11.46C494.439 11.7533 494.819 12.2 495.072 12.8C495.326 13.3867 495.452 14.1333 495.452 15.04V19.88C495.452 20.2933 495.346 20.6133 495.132 20.84C494.919 21.0533 494.612 21.16 494.212 21.16C493.812 21.16 493.499 21.0533 493.272 20.84C493.059 20.6133 492.952 20.2933 492.952 19.88V15.16C492.952 14.4 492.806 13.8467 492.512 13.5C492.232 13.1533 491.792 12.98 491.192 12.98C490.459 12.98 489.872 13.2133 489.432 13.68C489.006 14.1333 488.792 14.74 488.792 15.5V19.88C488.792 20.7333 488.372 21.16 487.532 21.16ZM502.551 24.8C501.831 24.8 501.131 24.7333 500.451 24.6C499.785 24.4667 499.178 24.26 498.631 23.98C498.378 23.8467 498.205 23.6867 498.111 23.5C498.031 23.3133 498.005 23.12 498.031 22.92C498.071 22.7333 498.151 22.5667 498.271 22.42C498.405 22.2733 498.565 22.1733 498.751 22.12C498.938 22.0667 499.131 22.0933 499.331 22.2C499.918 22.4933 500.471 22.68 500.991 22.76C501.525 22.8533 501.978 22.9 502.351 22.9C503.245 22.9 503.911 22.68 504.351 22.24C504.805 21.8133 505.031 21.1733 505.031 20.32V18.52H505.211C505.011 19.2 504.591 19.7467 503.951 20.16C503.325 20.56 502.611 20.76 501.811 20.76C500.931 20.76 500.165 20.56 499.511 20.16C498.858 19.7467 498.351 19.1733 497.991 18.44C497.631 17.7067 497.451 16.8533 497.451 15.88C497.451 15.1467 497.551 14.4867 497.751 13.9C497.965 13.3 498.258 12.7867 498.631 12.36C499.018 11.9333 499.478 11.6067 500.011 11.38C500.558 11.14 501.158 11.02 501.811 11.02C502.638 11.02 503.358 11.2267 503.971 11.64C504.598 12.04 505.005 12.5733 505.191 13.24L504.991 13.74V12.32C504.991 11.9067 505.098 11.5933 505.311 11.38C505.538 11.1667 505.845 11.06 506.231 11.06C506.631 11.06 506.938 11.1667 507.151 11.38C507.365 11.5933 507.471 11.9067 507.471 12.32V20.02C507.471 21.6067 507.051 22.8 506.211 23.6C505.371 24.4 504.151 24.8 502.551 24.8ZM502.491 18.86C503.011 18.86 503.458 18.74 503.831 18.5C504.205 18.26 504.491 17.92 504.691 17.48C504.905 17.0267 505.011 16.4933 505.011 15.88C505.011 14.96 504.785 14.24 504.331 13.72C503.878 13.1867 503.265 12.92 502.491 12.92C501.971 12.92 501.525 13.04 501.151 13.28C500.778 13.52 500.485 13.86 500.271 14.3C500.071 14.74 499.971 15.2667 499.971 15.88C499.971 16.8 500.198 17.5267 500.651 18.06C501.105 18.5933 501.718 18.86 502.491 18.86ZM519.251 21.2C518.398 21.2 517.645 20.9933 516.991 20.58C516.351 20.1667 515.851 19.58 515.491 18.82C515.131 18.0467 514.951 17.14 514.951 16.1C514.951 15.0467 515.131 14.1467 515.491 13.4C515.851 12.64 516.351 12.0533 516.991 11.64C517.645 11.2267 518.398 11.02 519.251 11.02C520.065 11.02 520.771 11.22 521.371 11.62C521.985 12.02 522.398 12.5467 522.611 13.2H522.391V8C522.391 7.58667 522.498 7.27333 522.711 7.06C522.925 6.84667 523.231 6.74 523.631 6.74C524.031 6.74 524.338 6.84667 524.551 7.06C524.778 7.27333 524.891 7.58667 524.891 8V19.88C524.891 20.2933 524.785 20.6133 524.571 20.84C524.358 21.0533 524.051 21.16 523.651 21.16C523.251 21.16 522.945 21.0533 522.731 20.84C522.518 20.6133 522.411 20.2933 522.411 19.88V18.32L522.631 18.92C522.431 19.6133 522.025 20.1667 521.411 20.58C520.798 20.9933 520.078 21.2 519.251 21.2ZM519.951 19.3C520.445 19.3 520.878 19.18 521.251 18.94C521.625 18.7 521.911 18.3467 522.111 17.88C522.325 17.4 522.431 16.8067 522.431 16.1C522.431 15.0333 522.205 14.24 521.751 13.72C521.298 13.1867 520.698 12.92 519.951 12.92C519.458 12.92 519.025 13.04 518.651 13.28C518.278 13.5067 517.985 13.86 517.771 14.34C517.571 14.8067 517.471 15.3933 517.471 16.1C517.471 17.1533 517.698 17.9533 518.151 18.5C518.605 19.0333 519.205 19.3 519.951 19.3ZM528.724 21.14C528.324 21.14 528.017 21.02 527.804 20.78C527.59 20.54 527.484 20.2067 527.484 19.78V12.44C527.484 12 527.59 11.6667 527.804 11.44C528.017 11.2 528.324 11.08 528.724 11.08C529.124 11.08 529.43 11.2 529.644 11.44C529.87 11.6667 529.984 12 529.984 12.44V19.78C529.984 20.2067 529.877 20.54 529.664 20.78C529.45 21.02 529.137 21.14 528.724 21.14ZM528.724 9.22C528.257 9.22 527.89 9.10667 527.624 8.88C527.37 8.64 527.244 8.31333 527.244 7.9C527.244 7.47333 527.37 7.14667 527.624 6.92C527.89 6.69333 528.257 6.58 528.724 6.58C529.204 6.58 529.57 6.69333 529.824 6.92C530.077 7.14667 530.204 7.47333 530.204 7.9C530.204 8.31333 530.077 8.64 529.824 8.88C529.57 9.10667 529.204 9.22 528.724 9.22ZM536.541 21.16C536.208 21.16 535.915 21.0733 535.661 20.9C535.421 20.7267 535.221 20.46 535.061 20.1L531.881 12.72C531.761 12.4267 531.715 12.1533 531.741 11.9C531.781 11.6467 531.901 11.4467 532.101 11.3C532.315 11.14 532.601 11.06 532.961 11.06C533.268 11.06 533.515 11.1333 533.701 11.28C533.888 11.4133 534.055 11.6733 534.201 12.06L536.901 18.8H536.301L539.081 12.04C539.228 11.6667 539.395 11.4133 539.581 11.28C539.781 11.1333 540.048 11.06 540.381 11.06C540.675 11.06 540.908 11.14 541.081 11.3C541.255 11.4467 541.361 11.6467 541.401 11.9C541.441 12.14 541.395 12.4067 541.261 12.7L538.021 20.1C537.875 20.46 537.675 20.7267 537.421 20.9C537.181 21.0733 536.888 21.16 536.541 21.16ZM544.368 21.14C543.968 21.14 543.661 21.02 543.448 20.78C543.235 20.54 543.128 20.2067 543.128 19.78V12.44C543.128 12 543.235 11.6667 543.448 11.44C543.661 11.2 543.968 11.08 544.368 11.08C544.768 11.08 545.075 11.2 545.288 11.44C545.515 11.6667 545.628 12 545.628 12.44V19.78C545.628 20.2067 545.521 20.54 545.308 20.78C545.095 21.02 544.781 21.14 544.368 21.14ZM544.368 9.22C543.901 9.22 543.535 9.10667 543.268 8.88C543.015 8.64 542.888 8.31333 542.888 7.9C542.888 7.47333 543.015 7.14667 543.268 6.92C543.535 6.69333 543.901 6.58 544.368 6.58C544.848 6.58 545.215 6.69333 545.468 6.92C545.721 7.14667 545.848 7.47333 545.848 7.9C545.848 8.31333 545.721 8.64 545.468 8.88C545.215 9.10667 544.848 9.22 544.368 9.22ZM551.806 21.2C551.232 21.2 550.626 21.14 549.986 21.02C549.346 20.9 548.772 20.6933 548.266 20.4C548.052 20.2667 547.899 20.1133 547.806 19.94C547.726 19.7533 547.692 19.5733 547.706 19.4C547.732 19.2133 547.799 19.0533 547.906 18.92C548.026 18.7867 548.172 18.7 548.346 18.66C548.532 18.62 548.732 18.6533 548.946 18.76C549.479 19.0133 549.979 19.1933 550.446 19.3C550.912 19.3933 551.372 19.44 551.826 19.44C552.466 19.44 552.939 19.3333 553.246 19.12C553.566 18.8933 553.726 18.6 553.726 18.24C553.726 17.9333 553.619 17.7 553.406 17.54C553.206 17.3667 552.899 17.24 552.486 17.16L550.486 16.78C549.659 16.62 549.026 16.32 548.586 15.88C548.159 15.4267 547.946 14.8467 547.946 14.14C547.946 13.5 548.119 12.9467 548.466 12.48C548.826 12.0133 549.319 11.6533 549.946 11.4C550.572 11.1467 551.292 11.02 552.106 11.02C552.692 11.02 553.239 11.0867 553.746 11.22C554.266 11.34 554.766 11.5333 555.246 11.8C555.446 11.9067 555.579 12.0467 555.646 12.22C555.726 12.3933 555.746 12.5733 555.706 12.76C555.666 12.9333 555.586 13.0933 555.466 13.24C555.346 13.3733 555.192 13.46 555.006 13.5C554.832 13.5267 554.632 13.4867 554.406 13.38C553.992 13.1667 553.592 13.0133 553.206 12.92C552.832 12.8267 552.472 12.78 552.126 12.78C551.472 12.78 550.986 12.8933 550.666 13.12C550.359 13.3467 550.206 13.6467 550.206 14.02C550.206 14.3 550.299 14.5333 550.486 14.72C550.672 14.9067 550.959 15.0333 551.346 15.1L553.346 15.48C554.212 15.64 554.866 15.9333 555.306 16.36C555.759 16.7867 555.986 17.36 555.986 18.08C555.986 19.0533 555.606 19.82 554.846 20.38C554.086 20.9267 553.072 21.2 551.806 21.2ZM559.231 21.14C558.831 21.14 558.525 21.02 558.311 20.78C558.098 20.54 557.991 20.2067 557.991 19.78V12.44C557.991 12 558.098 11.6667 558.311 11.44C558.525 11.2 558.831 11.08 559.231 11.08C559.631 11.08 559.938 11.2 560.151 11.44C560.378 11.6667 560.491 12 560.491 12.44V19.78C560.491 20.2067 560.385 20.54 560.171 20.78C559.958 21.02 559.645 21.14 559.231 21.14ZM559.231 9.22C558.765 9.22 558.398 9.10667 558.131 8.88C557.878 8.64 557.751 8.31333 557.751 7.9C557.751 7.47333 557.878 7.14667 558.131 6.92C558.398 6.69333 558.765 6.58 559.231 6.58C559.711 6.58 560.078 6.69333 560.331 6.92C560.585 7.14667 560.711 7.47333 560.711 7.9C560.711 8.31333 560.585 8.64 560.331 8.88C560.078 9.10667 559.711 9.22 559.231 9.22ZM567.549 21.2C566.536 21.2 565.656 20.9933 564.909 20.58C564.162 20.1667 563.582 19.58 563.169 18.82C562.756 18.0467 562.549 17.14 562.549 16.1C562.549 15.3133 562.662 14.6133 562.889 14C563.129 13.3733 563.469 12.84 563.909 12.4C564.349 11.9467 564.876 11.6067 565.489 11.38C566.102 11.14 566.789 11.02 567.549 11.02C568.562 11.02 569.442 11.2267 570.189 11.64C570.936 12.0533 571.516 12.64 571.929 13.4C572.342 14.16 572.549 15.06 572.549 16.1C572.549 16.8867 572.429 17.5933 572.189 18.22C571.962 18.8467 571.629 19.3867 571.189 19.84C570.749 20.28 570.222 20.62 569.609 20.86C568.996 21.0867 568.309 21.2 567.549 21.2ZM567.549 19.3C568.042 19.3 568.476 19.18 568.849 18.94C569.222 18.7 569.509 18.3467 569.709 17.88C569.922 17.4 570.029 16.8067 570.029 16.1C570.029 15.0333 569.802 14.24 569.349 13.72C568.896 13.1867 568.296 12.92 567.549 12.92C567.056 12.92 566.622 13.04 566.249 13.28C565.876 13.5067 565.582 13.86 565.369 14.34C565.169 14.8067 565.069 15.3933 565.069 16.1C565.069 17.1533 565.296 17.9533 565.749 18.5C566.202 19.0333 566.802 19.3 567.549 19.3ZM575.853 21.16C575.453 21.16 575.146 21.0533 574.933 20.84C574.719 20.6133 574.613 20.2933 574.613 19.88V12.32C574.613 11.9067 574.719 11.5933 574.933 11.38C575.146 11.1667 575.446 11.06 575.833 11.06C576.219 11.06 576.519 11.1667 576.733 11.38C576.946 11.5933 577.053 11.9067 577.053 12.32V13.68L576.833 13.18C577.126 12.4733 577.579 11.94 578.193 11.58C578.819 11.2067 579.526 11.02 580.313 11.02C581.099 11.02 581.746 11.1667 582.253 11.46C582.759 11.7533 583.139 12.2 583.393 12.8C583.646 13.3867 583.773 14.1333 583.773 15.04V19.88C583.773 20.2933 583.666 20.6133 583.453 20.84C583.239 21.0533 582.933 21.16 582.533 21.16C582.133 21.16 581.819 21.0533 581.593 20.84C581.379 20.6133 581.273 20.2933 581.273 19.88V15.16C581.273 14.4 581.126 13.8467 580.833 13.5C580.553 13.1533 580.113 12.98 579.513 12.98C578.779 12.98 578.193 13.2133 577.753 13.68C577.326 14.1333 577.113 14.74 577.113 15.5V19.88C577.113 20.7333 576.693 21.16 575.853 21.16ZM596.221 21.2C595.355 21.2 594.628 21.0533 594.041 20.76C593.468 20.4667 593.041 20.04 592.761 19.48C592.481 18.9067 592.341 18.2 592.341 17.36V13.1H591.301C590.981 13.1 590.735 13.02 590.561 12.86C590.388 12.6867 590.301 12.4533 590.301 12.16C590.301 11.8533 590.388 11.62 590.561 11.46C590.735 11.3 590.981 11.22 591.301 11.22H592.341V9.4C592.341 8.98667 592.448 8.67333 592.661 8.46C592.888 8.24667 593.201 8.14 593.601 8.14C594.001 8.14 594.308 8.24667 594.521 8.46C594.735 8.67333 594.841 8.98667 594.841 9.4V11.22H596.961C597.281 11.22 597.528 11.3 597.701 11.46C597.875 11.62 597.961 11.8533 597.961 12.16C597.961 12.4533 597.875 12.6867 597.701 12.86C597.528 13.02 597.281 13.1 596.961 13.1H594.841V17.22C594.841 17.86 594.981 18.34 595.261 18.66C595.541 18.98 595.995 19.14 596.621 19.14C596.848 19.14 597.048 19.12 597.221 19.08C597.395 19.04 597.548 19.0133 597.681 19C597.841 18.9867 597.975 19.04 598.081 19.16C598.188 19.2667 598.241 19.4933 598.241 19.84C598.241 20.1067 598.195 20.3467 598.101 20.56C598.021 20.76 597.868 20.9 597.641 20.98C597.468 21.0333 597.241 21.08 596.961 21.12C596.681 21.1733 596.435 21.2 596.221 21.2ZM603.78 21.2C602.766 21.2 601.886 20.9933 601.14 20.58C600.393 20.1667 599.813 19.58 599.4 18.82C598.986 18.0467 598.78 17.14 598.78 16.1C598.78 15.3133 598.893 14.6133 599.12 14C599.36 13.3733 599.7 12.84 600.14 12.4C600.58 11.9467 601.106 11.6067 601.72 11.38C602.333 11.14 603.02 11.02 603.78 11.02C604.793 11.02 605.673 11.2267 606.42 11.64C607.166 12.0533 607.746 12.64 608.16 13.4C608.573 14.16 608.78 15.06 608.78 16.1C608.78 16.8867 608.66 17.5933 608.42 18.22C608.193 18.8467 607.86 19.3867 607.42 19.84C606.98 20.28 606.453 20.62 605.84 20.86C605.226 21.0867 604.54 21.2 603.78 21.2ZM603.78 19.3C604.273 19.3 604.706 19.18 605.08 18.94C605.453 18.7 605.74 18.3467 605.94 17.88C606.153 17.4 606.26 16.8067 606.26 16.1C606.26 15.0333 606.033 14.24 605.58 13.72C605.126 13.1867 604.526 12.92 603.78 12.92C603.286 12.92 602.853 13.04 602.48 13.28C602.106 13.5067 601.813 13.86 601.6 14.34C601.4 14.8067 601.3 15.3933 601.3 16.1C601.3 17.1533 601.526 17.9533 601.98 18.5C602.433 19.0333 603.033 19.3 603.78 19.3ZM620.033 21.2C619.179 21.2 618.426 20.9933 617.773 20.58C617.133 20.1667 616.633 19.58 616.273 18.82C615.913 18.0467 615.733 17.14 615.733 16.1C615.733 15.0467 615.913 14.1467 616.273 13.4C616.633 12.64 617.133 12.0533 617.773 11.64C618.426 11.2267 619.179 11.02 620.033 11.02C620.846 11.02 621.553 11.22 622.153 11.62C622.766 12.02 623.179 12.5467 623.393 13.2H623.173V8C623.173 7.58667 623.279 7.27333 623.493 7.06C623.706 6.84667 624.013 6.74 624.413 6.74C624.813 6.74 625.119 6.84667 625.333 7.06C625.559 7.27333 625.673 7.58667 625.673 8V19.88C625.673 20.2933 625.566 20.6133 625.353 20.84C625.139 21.0533 624.833 21.16 624.433 21.16C624.033 21.16 623.726 21.0533 623.513 20.84C623.299 20.6133 623.193 20.2933 623.193 19.88V18.32L623.413 18.92C623.213 19.6133 622.806 20.1667 622.193 20.58C621.579 20.9933 620.859 21.2 620.033 21.2ZM620.733 19.3C621.226 19.3 621.659 19.18 622.033 18.94C622.406 18.7 622.693 18.3467 622.893 17.88C623.106 17.4 623.213 16.8067 623.213 16.1C623.213 15.0333 622.986 14.24 622.533 13.72C622.079 13.1867 621.479 12.92 620.733 12.92C620.239 12.92 619.806 13.04 619.433 13.28C619.059 13.5067 618.766 13.86 618.553 14.34C618.353 14.8067 618.253 15.3933 618.253 16.1C618.253 17.1533 618.479 17.9533 618.933 18.5C619.386 19.0333 619.986 19.3 620.733 19.3ZM629.505 21.14C629.105 21.14 628.798 21.02 628.585 20.78C628.372 20.54 628.265 20.2067 628.265 19.78V12.44C628.265 12 628.372 11.6667 628.585 11.44C628.798 11.2 629.105 11.08 629.505 11.08C629.905 11.08 630.212 11.2 630.425 11.44C630.652 11.6667 630.765 12 630.765 12.44V19.78C630.765 20.2067 630.658 20.54 630.445 20.78C630.232 21.02 629.918 21.14 629.505 21.14ZM629.505 9.22C629.038 9.22 628.672 9.10667 628.405 8.88C628.152 8.64 628.025 8.31333 628.025 7.9C628.025 7.47333 628.152 7.14667 628.405 6.92C628.672 6.69333 629.038 6.58 629.505 6.58C629.985 6.58 630.352 6.69333 630.605 6.92C630.858 7.14667 630.985 7.47333 630.985 7.9C630.985 8.31333 630.858 8.64 630.605 8.88C630.352 9.10667 629.985 9.22 629.505 9.22ZM637.323 21.16C636.989 21.16 636.696 21.0733 636.443 20.9C636.203 20.7267 636.003 20.46 635.843 20.1L632.663 12.72C632.543 12.4267 632.496 12.1533 632.523 11.9C632.563 11.6467 632.683 11.4467 632.883 11.3C633.096 11.14 633.383 11.06 633.743 11.06C634.049 11.06 634.296 11.1333 634.483 11.28C634.669 11.4133 634.836 11.6733 634.983 12.06L637.683 18.8H637.083L639.863 12.04C640.009 11.6667 640.176 11.4133 640.363 11.28C640.563 11.1333 640.829 11.06 641.163 11.06C641.456 11.06 641.689 11.14 641.863 11.3C642.036 11.4467 642.143 11.6467 642.183 11.9C642.223 12.14 642.176 12.4067 642.043 12.7L638.803 20.1C638.656 20.46 638.456 20.7267 638.203 20.9C637.963 21.0733 637.669 21.16 637.323 21.16ZM645.149 21.14C644.749 21.14 644.443 21.02 644.229 20.78C644.016 20.54 643.909 20.2067 643.909 19.78V12.44C643.909 12 644.016 11.6667 644.229 11.44C644.443 11.2 644.749 11.08 645.149 11.08C645.549 11.08 645.856 11.2 646.069 11.44C646.296 11.6667 646.409 12 646.409 12.44V19.78C646.409 20.2067 646.303 20.54 646.089 20.78C645.876 21.02 645.563 21.14 645.149 21.14ZM645.149 9.22C644.683 9.22 644.316 9.10667 644.049 8.88C643.796 8.64 643.669 8.31333 643.669 7.9C643.669 7.47333 643.796 7.14667 644.049 6.92C644.316 6.69333 644.683 6.58 645.149 6.58C645.629 6.58 645.996 6.69333 646.249 6.92C646.503 7.14667 646.629 7.47333 646.629 7.9C646.629 8.31333 646.503 8.64 646.249 8.88C645.996 9.10667 645.629 9.22 645.149 9.22ZM652.767 21.2C651.914 21.2 651.16 20.9933 650.507 20.58C649.867 20.1667 649.367 19.58 649.007 18.82C648.647 18.0467 648.467 17.14 648.467 16.1C648.467 15.0467 648.647 14.1467 649.007 13.4C649.367 12.64 649.867 12.0533 650.507 11.64C651.16 11.2267 651.914 11.02 652.767 11.02C653.58 11.02 654.287 11.22 654.887 11.62C655.5 12.02 655.914 12.5467 656.127 13.2H655.907V8C655.907 7.58667 656.014 7.27333 656.227 7.06C656.44 6.84667 656.747 6.74 657.147 6.74C657.547 6.74 657.854 6.84667 658.067 7.06C658.294 7.27333 658.407 7.58667 658.407 8V19.88C658.407 20.2933 658.3 20.6133 658.087 20.84C657.874 21.0533 657.567 21.16 657.167 21.16C656.767 21.16 656.46 21.0533 656.247 20.84C656.034 20.6133 655.927 20.2933 655.927 19.88V18.32L656.147 18.92C655.947 19.6133 655.54 20.1667 654.927 20.58C654.314 20.9933 653.594 21.2 652.767 21.2ZM653.467 19.3C653.96 19.3 654.394 19.18 654.767 18.94C655.14 18.7 655.427 18.3467 655.627 17.88C655.84 17.4 655.947 16.8067 655.947 16.1C655.947 15.0333 655.72 14.24 655.267 13.72C654.814 13.1867 654.214 12.92 653.467 12.92C652.974 12.92 652.54 13.04 652.167 13.28C651.794 13.5067 651.5 13.86 651.287 14.34C651.087 14.8067 650.987 15.3933 650.987 16.1C650.987 17.1533 651.214 17.9533 651.667 18.5C652.12 19.0333 652.72 19.3 653.467 19.3ZM665.819 21.2C664.713 21.2 663.759 20.9933 662.959 20.58C662.159 20.1667 661.539 19.58 661.099 18.82C660.673 18.06 660.459 17.16 660.459 16.12C660.459 15.1067 660.666 14.22 661.079 13.46C661.506 12.7 662.086 12.1067 662.819 11.68C663.566 11.24 664.413 11.02 665.359 11.02C666.053 11.02 666.673 11.1333 667.219 11.36C667.779 11.5867 668.253 11.9133 668.639 12.34C669.039 12.7667 669.339 13.2867 669.539 13.9C669.753 14.5 669.859 15.18 669.859 15.94C669.859 16.18 669.773 16.3667 669.599 16.5C669.439 16.62 669.206 16.68 668.899 16.68H662.479V15.24H668.099L667.779 15.54C667.779 14.9267 667.686 14.4133 667.499 14C667.326 13.5867 667.066 13.2733 666.719 13.06C666.386 12.8333 665.966 12.72 665.459 12.72C664.899 12.72 664.419 12.8533 664.019 13.12C663.633 13.3733 663.333 13.74 663.119 14.22C662.919 14.6867 662.819 15.2467 662.819 15.9V16.04C662.819 17.1333 663.073 17.9533 663.579 18.5C664.099 19.0333 664.859 19.3 665.859 19.3C666.206 19.3 666.593 19.26 667.019 19.18C667.459 19.0867 667.873 18.9333 668.259 18.72C668.539 18.56 668.786 18.4933 668.999 18.52C669.213 18.5333 669.379 18.6067 669.499 18.74C669.633 18.8733 669.713 19.04 669.739 19.24C669.766 19.4267 669.726 19.62 669.619 19.82C669.526 20.02 669.359 20.1933 669.119 20.34C668.653 20.6333 668.113 20.8533 667.499 21C666.899 21.1333 666.339 21.2 665.819 21.2ZM673.039 21.1C672.586 21.1 672.219 20.96 671.939 20.68C671.672 20.4 671.539 20.04 671.539 19.6C671.539 19.1733 671.672 18.8267 671.939 18.56C672.219 18.28 672.586 18.14 673.039 18.14C673.506 18.14 673.866 18.28 674.119 18.56C674.386 18.8267 674.519 19.1733 674.519 19.6C674.519 20.04 674.386 20.4 674.119 20.68C673.866 20.96 673.506 21.1 673.039 21.1Z" fill="#444444"/>
</svg>
