<svg width="36" height="52" viewBox="0 0 36 52" fill="none" xmlns="http://www.w3.org/2000/svg">
<path d="M0 0H28C32.4183 0 36 3.58172 36 8V44C36 48.4183 32.4183 52 28 52H0V0Z" fill="#1A1A1A"/>
<path fill-rule="evenodd" clip-rule="evenodd" d="M10.3629 21.2487C9.92124 21.6143 9.87649 22.2494 10.2629 22.6672L17.6204 30.6224C18.0861 31.1259 18.9139 31.1259 19.3796 30.6224L26.7371 22.6672C27.1235 22.2494 27.0788 21.6143 26.6371 21.2487C26.1955 20.8831 25.5243 20.9255 25.1379 21.3433L18.5 28.5204L11.8621 21.3433C11.4757 20.9255 10.8045 20.8831 10.3629 21.2487Z" fill="white"/>
</svg>
