<svg width="99" height="28" viewBox="0 0 99 28" fill="none" xmlns="http://www.w3.org/2000/svg">
<path d="M21.9219 5V10H16.9219" stroke="white" stroke-width="2" stroke-linecap="round" stroke-linejoin="round"/>
<path d="M21.8719 14.9996C21.6504 17.0054 20.7612 18.8786 19.3471 20.3183C17.933 21.758 16.0761 22.6807 14.0746 22.9382C12.0731 23.1956 10.0431 22.773 8.31067 21.7381C6.57824 20.7031 5.2439 19.116 4.52193 17.2316C3.79997 15.3471 3.73228 13.2747 4.32974 11.3472C4.92719 9.41963 6.15512 7.74881 7.81632 6.60304C9.47752 5.45728 11.4756 4.90305 13.4896 5.02938C15.5037 5.1557 17.4169 5.95525 18.9219 7.29961L21.9219 9.99961" stroke="white" stroke-width="2" stroke-linecap="round" stroke-linejoin="round"/>
<g clip-path="url(#clip0_1_30)">
<path d="M40.3449 22.192C39.8489 22.192 39.4649 22.056 39.1929 21.784C38.9369 21.496 38.8089 21.104 38.8089 20.608V6.64C38.8089 6.128 38.9449 5.744 39.2169 5.488C39.4889 5.216 39.8729 5.08 40.3689 5.08H46.1529C48.0089 5.08 49.4409 5.528 50.4489 6.424C51.4569 7.304 51.9609 8.544 51.9609 10.144C51.9609 11.184 51.7289 12.08 51.2649 12.832C50.8169 13.584 50.1609 14.16 49.2969 14.56C48.4329 14.96 47.3849 15.16 46.1529 15.16L46.3689 14.8H47.1609C47.8169 14.8 48.3849 14.96 48.8649 15.28C49.3609 15.6 49.7929 16.104 50.1609 16.792L51.9609 20.128C52.1529 20.464 52.2409 20.792 52.2249 21.112C52.2089 21.432 52.0889 21.696 51.8649 21.904C51.6409 22.096 51.3129 22.192 50.8809 22.192C50.4489 22.192 50.0969 22.104 49.8249 21.928C49.5529 21.736 49.3129 21.448 49.1049 21.064L46.6809 16.6C46.3929 16.056 46.0489 15.696 45.6489 15.52C45.2649 15.328 44.7689 15.232 44.1609 15.232H41.8809V20.608C41.8809 21.104 41.7529 21.496 41.4969 21.784C41.2409 22.056 40.8569 22.192 40.3449 22.192ZM41.8809 12.952H45.6249C46.7289 12.952 47.5609 12.728 48.1209 12.28C48.6969 11.816 48.9849 11.128 48.9849 10.216C48.9849 9.32 48.6969 8.648 48.1209 8.2C47.5609 7.736 46.7289 7.504 45.6249 7.504H41.8809V12.952ZM60.4534 22.24C59.1254 22.24 57.9814 21.992 57.0214 21.496C56.0614 21 55.3174 20.296 54.7894 19.384C54.2774 18.472 54.0214 17.392 54.0214 16.144C54.0214 14.928 54.2694 13.864 54.7654 12.952C55.2774 12.04 55.9734 11.328 56.8534 10.816C57.7494 10.288 58.7654 10.024 59.9014 10.024C60.7334 10.024 61.4774 10.16 62.1334 10.432C62.8054 10.704 63.3734 11.096 63.8374 11.608C64.3174 12.12 64.6774 12.744 64.9174 13.48C65.1734 14.2 65.3014 15.016 65.3014 15.928C65.3014 16.216 65.1974 16.44 64.9894 16.6C64.7974 16.744 64.5174 16.816 64.1494 16.816H56.4454V15.088H63.1894L62.8054 15.448C62.8054 14.712 62.6934 14.096 62.4694 13.6C62.2614 13.104 61.9494 12.728 61.5334 12.472C61.1334 12.2 60.6294 12.064 60.0214 12.064C59.3494 12.064 58.7734 12.224 58.2934 12.544C57.8294 12.848 57.4694 13.288 57.2134 13.864C56.9734 14.424 56.8534 15.096 56.8534 15.88V16.048C56.8534 17.36 57.1574 18.344 57.7654 19C58.3894 19.64 59.3014 19.96 60.5014 19.96C60.9174 19.96 61.3814 19.912 61.8934 19.816C62.4214 19.704 62.9174 19.52 63.3814 19.264C63.7174 19.072 64.0134 18.992 64.2694 19.024C64.5254 19.04 64.7254 19.128 64.8694 19.288C65.0294 19.448 65.1254 19.648 65.1574 19.888C65.1894 20.112 65.1414 20.344 65.0134 20.584C64.9014 20.824 64.7014 21.032 64.4134 21.208C63.8534 21.56 63.2054 21.824 62.4694 22C61.7494 22.16 61.0774 22.24 60.4534 22.24ZM73.0063 22.24C71.9663 22.24 71.0943 22.064 70.3903 21.712C69.7023 21.36 69.1903 20.848 68.8543 20.176C68.5183 19.488 68.3503 18.64 68.3503 17.632V12.52H67.1023C66.7183 12.52 66.4223 12.424 66.2143 12.232C66.0063 12.024 65.9023 11.744 65.9023 11.392C65.9023 11.024 66.0063 10.744 66.2143 10.552C66.4223 10.36 66.7183 10.264 67.1023 10.264H68.3503V8.08C68.3503 7.584 68.4783 7.208 68.7343 6.952C69.0063 6.696 69.3823 6.568 69.8623 6.568C70.3423 6.568 70.7103 6.696 70.9663 6.952C71.2223 7.208 71.3503 7.584 71.3503 8.08V10.264H73.8943C74.2783 10.264 74.5743 10.36 74.7823 10.552C74.9903 10.744 75.0943 11.024 75.0943 11.392C75.0943 11.744 74.9903 12.024 74.7823 12.232C74.5743 12.424 74.2783 12.52 73.8943 12.52H71.3503V17.464C71.3503 18.232 71.5183 18.808 71.8543 19.192C72.1903 19.576 72.7343 19.768 73.4863 19.768C73.7583 19.768 73.9983 19.744 74.2063 19.696C74.4143 19.648 74.5983 19.616 74.7583 19.6C74.9503 19.584 75.1103 19.648 75.2383 19.792C75.3663 19.92 75.4303 20.192 75.4303 20.608C75.4303 20.928 75.3743 21.216 75.2623 21.472C75.1663 21.712 74.9823 21.88 74.7103 21.976C74.5023 22.04 74.2303 22.096 73.8943 22.144C73.5583 22.208 73.2623 22.24 73.0063 22.24ZM78.3773 22.192C77.8813 22.192 77.4973 22.064 77.2253 21.808C76.9693 21.536 76.8413 21.152 76.8413 20.656V11.584C76.8413 11.088 76.9693 10.712 77.2253 10.456C77.4813 10.2 77.8413 10.072 78.3053 10.072C78.7693 10.072 79.1293 10.2 79.3853 10.456C79.6413 10.712 79.7693 11.088 79.7693 11.584V13.096H79.5293C79.7533 12.136 80.1933 11.408 80.8493 10.912C81.5053 10.416 82.3773 10.12 83.4653 10.024C83.8013 9.992 84.0653 10.08 84.2573 10.288C84.4653 10.48 84.5853 10.784 84.6173 11.2C84.6493 11.6 84.5533 11.928 84.3293 12.184C84.1213 12.424 83.8013 12.568 83.3693 12.616L82.8413 12.664C81.8653 12.76 81.1293 13.064 80.6333 13.576C80.1373 14.072 79.8893 14.776 79.8893 15.688V20.656C79.8893 21.152 79.7613 21.536 79.5053 21.808C79.2493 22.064 78.8733 22.192 78.3773 22.192ZM89.9423 26.512C89.5903 26.512 89.3023 26.416 89.0783 26.224C88.8543 26.048 88.7183 25.808 88.6703 25.504C88.6383 25.2 88.6943 24.88 88.8383 24.544L90.4703 20.92V22.168L86.1023 12.064C85.9583 11.712 85.9103 11.384 85.9583 11.08C86.0063 10.776 86.1503 10.536 86.3903 10.36C86.6463 10.168 86.9903 10.072 87.4223 10.072C87.7903 10.072 88.0863 10.16 88.3103 10.336C88.5343 10.496 88.7343 10.808 88.9103 11.272L92.1503 19.36H91.4303L94.7423 11.248C94.9183 10.8 95.1263 10.496 95.3663 10.336C95.6063 10.16 95.9263 10.072 96.3263 10.072C96.6783 10.072 96.9583 10.168 97.1663 10.36C97.3743 10.536 97.5023 10.776 97.5503 11.08C97.5983 11.368 97.5423 11.688 97.3823 12.04L91.5503 25.36C91.3423 25.808 91.1183 26.112 90.8783 26.272C90.6383 26.432 90.3263 26.512 89.9423 26.512Z" fill="white"/>
</g>
<defs>
<clipPath id="clip0_1_30">
<rect width="62" height="28" fill="white" transform="translate(36.5)"/>
</clipPath>
</defs>
</svg>
