<svg width="22" height="12" viewBox="0 0 22 12" fill="none" xmlns="http://www.w3.org/2000/svg">
<path d="M6.00781 11.24C4.35448 11.24 3.06115 10.7067 2.12781 9.64C1.19448 8.57333 0.727813 7.24 0.727813 5.64C0.727813 4.57333 0.941146 3.61333 1.36781 2.76C1.79448 1.90667 2.39448 1.24 3.16781 0.759999C3.96781 0.279999 4.91448 0.039999 6.00781 0.039999C6.86115 0.039999 7.75448 0.279999 8.68781 0.759999C9.62115 1.24 10.3945 2.05333 11.0078 3.2C11.6478 2.05333 12.4211 1.24 13.3278 0.759999C14.2611 0.279999 15.1545 0.039999 16.0078 0.039999C17.6611 0.039999 18.9545 0.586666 19.8878 1.68C20.8211 2.74667 21.2878 4.06667 21.2878 5.64C21.2878 6.70667 21.0745 7.66667 20.6478 8.52C20.2211 9.37333 19.6078 10.04 18.8078 10.52C18.0345 11 17.1011 11.24 16.0078 11.24C15.1545 11.24 14.2611 11 13.3278 10.52C12.4211 10.0133 11.6478 9.2 11.0078 8.08C10.3945 9.2 9.62115 10.0133 8.68781 10.52C7.75448 11 6.86115 11.24 6.00781 11.24ZM6.08781 8.96C6.51448 8.96 6.95448 8.88 7.40781 8.72C7.88781 8.53333 8.35448 8.2 8.80781 7.72C9.28781 7.24 9.71448 6.53333 10.0878 5.6C9.71448 4.66667 9.28781 3.97333 8.80781 3.52C8.35448 3.04 7.88781 2.72 7.40781 2.56C6.95448 2.4 6.51448 2.32 6.08781 2.32C5.15448 2.32 4.43448 2.64 3.92781 3.28C3.42115 3.92 3.16781 4.70667 3.16781 5.64C3.16781 6.57333 3.42115 7.36 3.92781 8C4.43448 8.64 5.15448 8.96 6.08781 8.96ZM15.9278 8.96C16.8345 8.96 17.5411 8.64 18.0478 8C18.5811 7.33333 18.8478 6.54667 18.8478 5.64C18.8478 4.70667 18.5811 3.92 18.0478 3.28C17.5411 2.64 16.8345 2.32 15.9278 2.32C15.5011 2.32 15.0478 2.4 14.5678 2.56C14.1145 2.72 13.6611 3.04 13.2078 3.52C12.7545 3.97333 12.3278 4.66667 11.9278 5.6C12.3278 6.53333 12.7545 7.24 13.2078 7.72C13.6611 8.2 14.1145 8.53333 14.5678 8.72C15.0478 8.88 15.5011 8.96 15.9278 8.96Z" fill="#444444"/>
</svg>
