<svg width="138" height="28" viewBox="0 0 138 28" fill="none" xmlns="http://www.w3.org/2000/svg">
<path d="M12 6.5C17 6.5 21.27 9.61 23 14C21.27 18.39 17 21.5 12 21.5C11.64 21.5 11.28 21.5 10.92 21.45C10.9715 21.1359 10.9982 20.8183 11 20.5C11 19.94 10.92 19.38 10.76 18.84C11.17 18.94 11.58 19 12 19C14.76 19 17 16.76 17 14C17 11.24 14.76 9 12 9C9.24 9 7 11.24 7 14C7 14.29 7.03 14.59 7.08 14.88C6.42 14.63 5.71 14.5 5 14.5C3.83 14.5 2.69 14.84 1.71 15.5C1.44 15 1.2 14.5 1 14C2.73 9.61 7 6.5 12 6.5ZM12 11C13.66 11 15 12.34 15 14C15 15.66 13.66 17 12 17C10.34 17 9 15.66 9 14C9 12.34 10.34 11 12 11ZM6 17V19H2V21H6V23L9 20L6 17Z" fill="white"/>
<g clip-path="url(#clip0_8_242)">
<path d="M45.025 22.192C44.593 22.192 44.233 22.096 43.945 21.904C43.673 21.696 43.449 21.392 43.273 20.992L37.009 6.928C36.833 6.528 36.785 6.176 36.865 5.872C36.945 5.568 37.113 5.328 37.369 5.152C37.625 4.976 37.929 4.888 38.281 4.888C38.745 4.888 39.089 4.992 39.313 5.2C39.553 5.392 39.753 5.688 39.913 6.088L45.601 19.264H44.569L50.233 6.064C50.409 5.68 50.617 5.392 50.857 5.2C51.097 4.992 51.433 4.888 51.865 4.888C52.217 4.888 52.505 4.976 52.729 5.152C52.969 5.328 53.121 5.568 53.185 5.872C53.249 6.176 53.193 6.528 53.017 6.928L46.753 20.992C46.577 21.392 46.353 21.696 46.081 21.904C45.825 22.096 45.473 22.192 45.025 22.192ZM57.8097 22.168C57.3297 22.168 56.9617 22.024 56.7057 21.736C56.4497 21.448 56.3217 21.048 56.3217 20.536V11.728C56.3217 11.2 56.4497 10.8 56.7057 10.528C56.9617 10.24 57.3297 10.096 57.8097 10.096C58.2897 10.096 58.6577 10.24 58.9137 10.528C59.1857 10.8 59.3217 11.2 59.3217 11.728V20.536C59.3217 21.048 59.1937 21.448 58.9377 21.736C58.6817 22.024 58.3057 22.168 57.8097 22.168ZM57.8097 7.864C57.2497 7.864 56.8097 7.728 56.4897 7.456C56.1857 7.168 56.0337 6.776 56.0337 6.28C56.0337 5.768 56.1857 5.376 56.4897 5.104C56.8097 4.832 57.2497 4.696 57.8097 4.696C58.3857 4.696 58.8257 4.832 59.1297 5.104C59.4337 5.376 59.5857 5.768 59.5857 6.28C59.5857 6.776 59.4337 7.168 59.1297 7.456C58.8257 7.728 58.3857 7.864 57.8097 7.864ZM66.7349 22.24C66.0469 22.24 65.3189 22.168 64.5509 22.024C63.7829 21.88 63.0949 21.632 62.4869 21.28C62.2309 21.12 62.0469 20.936 61.9349 20.728C61.8389 20.504 61.7989 20.288 61.8149 20.08C61.8469 19.856 61.9269 19.664 62.0549 19.504C62.1989 19.344 62.3749 19.24 62.5829 19.192C62.8069 19.144 63.0469 19.184 63.3029 19.312C63.9429 19.616 64.5429 19.832 65.1029 19.96C65.6629 20.072 66.2149 20.128 66.7589 20.128C67.5269 20.128 68.0949 20 68.4629 19.744C68.8469 19.472 69.0389 19.12 69.0389 18.688C69.0389 18.32 68.9109 18.04 68.6549 17.848C68.4149 17.64 68.0469 17.488 67.5509 17.392L65.1509 16.936C64.1589 16.744 63.3989 16.384 62.8709 15.856C62.3589 15.312 62.1029 14.616 62.1029 13.768C62.1029 13 62.3109 12.336 62.7269 11.776C63.1589 11.216 63.7509 10.784 64.5029 10.48C65.2549 10.176 66.1189 10.024 67.0949 10.024C67.7989 10.024 68.4549 10.104 69.0629 10.264C69.6869 10.408 70.2869 10.64 70.8629 10.96C71.1029 11.088 71.2629 11.256 71.3429 11.464C71.4389 11.672 71.4629 11.888 71.4149 12.112C71.3669 12.32 71.2709 12.512 71.1269 12.688C70.9829 12.848 70.7989 12.952 70.5749 13C70.3669 13.032 70.1269 12.984 69.8549 12.856C69.3589 12.6 68.8789 12.416 68.4149 12.304C67.9669 12.192 67.5349 12.136 67.1189 12.136C66.3349 12.136 65.7509 12.272 65.3669 12.544C64.9989 12.816 64.8149 13.176 64.8149 13.624C64.8149 13.96 64.9269 14.24 65.1509 14.464C65.3749 14.688 65.7189 14.84 66.1829 14.92L68.5829 15.376C69.6229 15.568 70.4069 15.92 70.9349 16.432C71.4789 16.944 71.7509 17.632 71.7509 18.496C71.7509 19.664 71.2949 20.584 70.3829 21.256C69.4709 21.912 68.2549 22.24 66.7349 22.24ZM78.4057 22.24C77.4297 22.24 76.6217 22.064 75.9817 21.712C75.3417 21.344 74.8617 20.8 74.5417 20.08C74.2377 19.36 74.0857 18.464 74.0857 17.392V11.584C74.0857 11.072 74.2137 10.696 74.4697 10.456C74.7257 10.2 75.0937 10.072 75.5737 10.072C76.0537 10.072 76.4217 10.2 76.6777 10.456C76.9497 10.696 77.0857 11.072 77.0857 11.584V17.44C77.0857 18.272 77.2537 18.888 77.5897 19.288C77.9257 19.688 78.4617 19.888 79.1977 19.888C79.9977 19.888 80.6537 19.616 81.1657 19.072C81.6777 18.512 81.9337 17.776 81.9337 16.864V11.584C81.9337 11.072 82.0617 10.696 82.3177 10.456C82.5737 10.2 82.9417 10.072 83.4217 10.072C83.9017 10.072 84.2697 10.2 84.5257 10.456C84.7977 10.696 84.9337 11.072 84.9337 11.584V20.656C84.9337 21.68 84.4457 22.192 83.4697 22.192C83.0057 22.192 82.6457 22.064 82.3897 21.808C82.1337 21.536 82.0057 21.152 82.0057 20.656V18.832L82.3417 19.552C82.0057 20.416 81.4937 21.08 80.8057 21.544C80.1337 22.008 79.3337 22.24 78.4057 22.24ZM91.9201 22.24C91.0721 22.24 90.3121 22.08 89.6401 21.76C88.9841 21.424 88.4641 20.976 88.0801 20.416C87.7121 19.856 87.5281 19.224 87.5281 18.52C87.5281 17.656 87.7521 16.976 88.2001 16.48C88.6481 15.968 89.3761 15.6 90.3841 15.376C91.3921 15.152 92.7441 15.04 94.4401 15.04H95.6401V16.768H94.4641C93.4721 16.768 92.6801 16.816 92.0881 16.912C91.4961 17.008 91.0721 17.176 90.8161 17.416C90.5761 17.64 90.4561 17.96 90.4561 18.376C90.4561 18.904 90.6401 19.336 91.0081 19.672C91.3761 20.008 91.8881 20.176 92.5441 20.176C93.0721 20.176 93.5361 20.056 93.9361 19.816C94.3521 19.56 94.6801 19.216 94.9201 18.784C95.1601 18.352 95.2801 17.856 95.2801 17.296V14.536C95.2801 13.736 95.1041 13.16 94.7521 12.808C94.4001 12.456 93.8081 12.28 92.9761 12.28C92.5121 12.28 92.0081 12.336 91.4641 12.448C90.9361 12.56 90.3761 12.752 89.7841 13.024C89.4801 13.168 89.2081 13.208 88.9681 13.144C88.7441 13.08 88.5681 12.952 88.4401 12.76C88.3121 12.552 88.2481 12.328 88.2481 12.088C88.2481 11.848 88.3121 11.616 88.4401 11.392C88.5681 11.152 88.7841 10.976 89.0881 10.864C89.8241 10.56 90.5281 10.344 91.2001 10.216C91.8881 10.088 92.5121 10.024 93.0721 10.024C94.2241 10.024 95.1681 10.2 95.9041 10.552C96.6561 10.904 97.2161 11.44 97.5841 12.16C97.9521 12.864 98.1361 13.776 98.1361 14.896V20.656C98.1361 21.152 98.0161 21.536 97.7761 21.808C97.5361 22.064 97.1921 22.192 96.7441 22.192C96.2961 22.192 95.9441 22.064 95.6881 21.808C95.4481 21.536 95.3281 21.152 95.3281 20.656V19.504H95.5201C95.4081 20.064 95.1841 20.552 94.8481 20.968C94.5281 21.368 94.1201 21.68 93.6241 21.904C93.1281 22.128 92.5601 22.24 91.9201 22.24ZM105.189 22.24C103.861 22.24 102.861 21.864 102.189 21.112C101.517 20.344 101.181 19.224 101.181 17.752V6.4C101.181 5.904 101.309 5.528 101.565 5.272C101.821 5.016 102.189 4.888 102.669 4.888C103.149 4.888 103.517 5.016 103.773 5.272C104.045 5.528 104.181 5.904 104.181 6.4V17.608C104.181 18.344 104.333 18.888 104.637 19.24C104.957 19.592 105.405 19.768 105.981 19.768C106.109 19.768 106.229 19.768 106.341 19.768C106.453 19.752 106.565 19.736 106.677 19.72C106.901 19.688 107.053 19.752 107.133 19.912C107.213 20.056 107.253 20.36 107.253 20.824C107.253 21.224 107.173 21.536 107.013 21.76C106.853 21.984 106.589 22.12 106.221 22.168C106.061 22.184 105.893 22.2 105.717 22.216C105.541 22.232 105.365 22.24 105.189 22.24ZM110.333 22.168C109.853 22.168 109.485 22.024 109.229 21.736C108.973 21.448 108.845 21.048 108.845 20.536V11.728C108.845 11.2 108.973 10.8 109.229 10.528C109.485 10.24 109.853 10.096 110.333 10.096C110.813 10.096 111.181 10.24 111.437 10.528C111.709 10.8 111.845 11.2 111.845 11.728V20.536C111.845 21.048 111.717 21.448 111.461 21.736C111.205 22.024 110.829 22.168 110.333 22.168ZM110.333 7.864C109.773 7.864 109.333 7.728 109.013 7.456C108.709 7.168 108.557 6.776 108.557 6.28C108.557 5.768 108.709 5.376 109.013 5.104C109.333 4.832 109.773 4.696 110.333 4.696C110.909 4.696 111.349 4.832 111.653 5.104C111.957 5.376 112.109 5.768 112.109 6.28C112.109 6.776 111.957 7.168 111.653 7.456C111.349 7.728 110.909 7.864 110.333 7.864ZM115.682 22C115.378 22 115.122 21.928 114.914 21.784C114.722 21.624 114.594 21.424 114.53 21.184C114.466 20.944 114.466 20.688 114.53 20.416C114.61 20.128 114.762 19.856 114.986 19.6L121.202 11.8V12.52H115.538C115.17 12.52 114.882 12.424 114.674 12.232C114.482 12.024 114.386 11.744 114.386 11.392C114.386 11.024 114.482 10.744 114.674 10.552C114.882 10.36 115.17 10.264 115.538 10.264H122.642C122.994 10.264 123.282 10.344 123.506 10.504C123.73 10.648 123.874 10.84 123.938 11.08C124.018 11.32 124.026 11.576 123.962 11.848C123.898 12.12 123.754 12.376 123.53 12.616L117.194 20.536V19.744H123.194C123.962 19.744 124.346 20.12 124.346 20.872C124.346 21.224 124.242 21.504 124.034 21.712C123.842 21.904 123.562 22 123.194 22H115.682ZM131.879 22.24C130.551 22.24 129.407 21.992 128.447 21.496C127.487 21 126.743 20.296 126.215 19.384C125.703 18.472 125.447 17.392 125.447 16.144C125.447 14.928 125.695 13.864 126.191 12.952C126.703 12.04 127.399 11.328 128.279 10.816C129.175 10.288 130.191 10.024 131.327 10.024C132.159 10.024 132.903 10.16 133.559 10.432C134.231 10.704 134.799 11.096 135.263 11.608C135.743 12.12 136.103 12.744 136.343 13.48C136.599 14.2 136.727 15.016 136.727 15.928C136.727 16.216 136.623 16.44 136.415 16.6C136.223 16.744 135.943 16.816 135.575 16.816H127.871V15.088H134.615L134.231 15.448C134.231 14.712 134.119 14.096 133.895 13.6C133.687 13.104 133.375 12.728 132.959 12.472C132.559 12.2 132.055 12.064 131.447 12.064C130.775 12.064 130.199 12.224 129.719 12.544C129.255 12.848 128.895 13.288 128.639 13.864C128.399 14.424 128.279 15.096 128.279 15.88V16.048C128.279 17.36 128.583 18.344 129.191 19C129.815 19.64 130.727 19.96 131.927 19.96C132.343 19.96 132.807 19.912 133.319 19.816C133.847 19.704 134.343 19.52 134.807 19.264C135.143 19.072 135.439 18.992 135.695 19.024C135.951 19.04 136.151 19.128 136.295 19.288C136.455 19.448 136.551 19.648 136.583 19.888C136.615 20.112 136.567 20.344 136.439 20.584C136.327 20.824 136.127 21.032 135.839 21.208C135.279 21.56 134.631 21.824 133.895 22C133.175 22.16 132.503 22.24 131.879 22.24Z" fill="white"/>
</g>
<defs>
<clipPath id="clip0_8_242">
<rect width="102" height="28" fill="white" transform="translate(36)"/>
</clipPath>
</defs>
</svg>
