<svg width="16" height="187" viewBox="0 0 16 187" fill="none" xmlns="http://www.w3.org/2000/svg">
<path d="M8.70711 0.292893C8.31658 -0.0976311 7.68342 -0.0976311 7.29289 0.292893L0.928932 6.65685C0.538408 7.04738 0.538408 7.68054 0.928932 8.07107C1.31946 8.46159 1.95262 8.46159 2.34315 8.07107L8 2.41421L13.6569 8.07107C14.0474 8.46159 14.6805 8.46159 15.0711 8.07107C15.4616 7.68054 15.4616 7.04738 15.0711 6.65685L8.70711 0.292893ZM7 1L7 86L9 86L9 1L7 1Z" fill="#C882FA"/>
<path d="M6.61491 186.695C7.00161 187.089 7.63475 187.095 8.02905 186.709L14.4546 180.407C14.8489 180.02 14.8551 179.387 14.4684 178.993C14.0817 178.598 13.4485 178.592 13.0542 178.979L7.34261 184.58L1.74105 178.869C1.35434 178.475 0.721209 178.468 0.326905 178.855C-0.0674 179.242 -0.0735588 179.875 0.313148 180.269L6.61491 186.695ZM8.32881 186.004L8.99995 117.01L7.00005 116.99L6.3289 185.985L8.32881 186.004Z" fill="#C882FA"/>
<path d="M4.54 106.16C4.14 106.16 3.83333 106.053 3.62 105.84C3.40667 105.613 3.3 105.293 3.3 104.88V93C3.3 92.5867 3.40667 92.2733 3.62 92.06C3.83333 91.8467 4.14 91.74 4.54 91.74C4.94 91.74 5.24667 91.8467 5.46 92.06C5.68667 92.2733 5.8 92.5867 5.8 93V98.18H5.52C5.81333 97.4733 6.26667 96.94 6.88 96.58C7.50667 96.2067 8.21333 96.02 9 96.02C9.78667 96.02 10.4333 96.1667 10.94 96.46C11.4467 96.7533 11.8267 97.2 12.08 97.8C12.3333 98.3867 12.46 99.1333 12.46 100.04V104.88C12.46 105.293 12.3533 105.613 12.14 105.84C11.9267 106.053 11.62 106.16 11.22 106.16C10.82 106.16 10.5067 106.053 10.28 105.84C10.0667 105.613 9.96 105.293 9.96 104.88V100.16C9.96 99.4 9.81333 98.8467 9.52 98.5C9.24 98.1533 8.8 97.98 8.2 97.98C7.46667 97.98 6.88 98.2133 6.44 98.68C6.01333 99.1333 5.8 99.74 5.8 100.5V104.88C5.8 105.733 5.38 106.16 4.54 106.16Z" fill="#C882FA"/>
</svg>
