<svg width="612" height="382" viewBox="0 0 612 382" fill="none" xmlns="http://www.w3.org/2000/svg">
<path d="M316.5 36.5H611.5V377C611.5 379.485 609.485 381.5 607 381.5H321C318.515 381.5 316.5 379.485 316.5 377V36.5Z" fill="#FAF2FF" stroke="#C882FA"/>
<path d="M0.5 36.5H295.5V377C295.5 379.485 293.485 381.5 291 381.5H5C2.51472 381.5 0.5 379.485 0.5 377V36.5Z" fill="#FAF2FF" stroke="#C882FA"/>
<path d="M5 0.5H291C293.485 0.5 295.5 2.51472 295.5 5V35.5H0.5V5C0.5 2.51472 2.51472 0.5 5 0.5Z" stroke="#C882FA"/>
<path d="M321 0.5H607C609.485 0.5 611.5 2.51472 611.5 5V35.5H316.5V5C316.5 2.51472 318.515 0.5 321 0.5Z" stroke="#C882FA"/>
<path d="M98.2666 28.912C97.2746 27.344 96.5546 25.696 96.1066 23.968C95.6746 22.224 95.4586 20.464 95.4586 18.688C95.4586 17.504 95.5546 16.328 95.7466 15.16C95.9386 13.992 96.2426 12.848 96.6586 11.728C97.0746 10.592 97.6106 9.504 98.2666 8.464C98.4426 8.176 98.6746 8 98.9626 7.936C99.2666 7.856 99.5466 7.872 99.8026 7.984C100.075 8.096 100.275 8.304 100.403 8.608C100.531 8.896 100.515 9.264 100.355 9.712C99.9706 10.736 99.6506 11.744 99.3946 12.736C99.1546 13.712 98.9706 14.688 98.8426 15.664C98.7306 16.64 98.6746 17.648 98.6746 18.688C98.6746 19.728 98.7386 20.736 98.8666 21.712C98.9946 22.688 99.1866 23.664 99.4426 24.64C99.6986 25.616 100.003 26.624 100.355 27.664C100.515 28.112 100.531 28.48 100.403 28.768C100.275 29.072 100.075 29.28 99.8026 29.392C99.5466 29.504 99.2666 29.52 98.9626 29.44C98.6746 29.376 98.4426 29.2 98.2666 28.912ZM124.997 23.128C124.741 23.384 124.469 23.504 124.181 23.488C123.909 23.472 123.677 23.368 123.485 23.176C123.293 22.968 123.189 22.728 123.173 22.456C123.157 22.168 123.277 21.896 123.533 21.64L127.013 18.16L123.461 14.608C123.253 14.4 123.133 14.184 123.101 13.96C123.085 13.72 123.125 13.512 123.221 13.336C123.333 13.144 123.485 12.992 123.677 12.88C123.869 12.768 124.077 12.728 124.301 12.76C124.541 12.792 124.765 12.912 124.973 13.12L128.501 16.648L132.029 13.12C132.285 12.864 132.557 12.744 132.845 12.76C133.133 12.776 133.373 12.888 133.565 13.096C133.773 13.288 133.885 13.52 133.901 13.792C133.933 14.064 133.813 14.336 133.541 14.608L129.989 18.16L133.469 21.64C133.677 21.848 133.797 22.064 133.829 22.288C133.861 22.512 133.821 22.72 133.709 22.912C133.597 23.104 133.445 23.256 133.253 23.368C133.077 23.464 132.877 23.504 132.653 23.488C132.429 23.456 132.213 23.336 132.005 23.128L128.501 19.624L124.997 23.128ZM159.982 28.912C159.806 29.2 159.566 29.376 159.262 29.44C158.974 29.52 158.694 29.496 158.422 29.368C158.15 29.256 157.95 29.056 157.822 28.768C157.71 28.48 157.734 28.112 157.894 27.664C158.294 26.624 158.614 25.616 158.854 24.64C159.094 23.664 159.27 22.688 159.382 21.712C159.51 20.736 159.574 19.728 159.574 18.688C159.574 17.648 159.51 16.64 159.382 15.664C159.254 14.688 159.062 13.712 158.806 12.736C158.566 11.76 158.262 10.752 157.894 9.712C157.734 9.264 157.718 8.896 157.846 8.608C157.974 8.304 158.174 8.096 158.446 7.984C158.718 7.872 158.998 7.856 159.286 7.936C159.574 8 159.806 8.176 159.982 8.464C160.958 10.016 161.67 11.664 162.118 13.408C162.566 15.152 162.79 16.912 162.79 18.688C162.79 19.872 162.686 21.048 162.478 22.216C162.286 23.384 161.982 24.528 161.566 25.648C161.166 26.784 160.638 27.872 159.982 28.912ZM175.411 23.128C175.155 23.384 174.883 23.504 174.595 23.488C174.323 23.472 174.091 23.368 173.899 23.176C173.707 22.968 173.603 22.728 173.587 22.456C173.571 22.168 173.691 21.896 173.947 21.64L177.427 18.16L173.875 14.608C173.667 14.4 173.547 14.184 173.515 13.96C173.499 13.72 173.539 13.512 173.635 13.336C173.747 13.144 173.899 12.992 174.091 12.88C174.283 12.768 174.491 12.728 174.715 12.76C174.955 12.792 175.179 12.912 175.387 13.12L178.915 16.648L182.443 13.12C182.699 12.864 182.971 12.744 183.259 12.76C183.547 12.776 183.787 12.888 183.979 13.096C184.187 13.288 184.299 13.52 184.315 13.792C184.347 14.064 184.227 14.336 183.955 14.608L180.403 18.16L183.883 21.64C184.091 21.848 184.211 22.064 184.243 22.288C184.275 22.512 184.235 22.72 184.123 22.912C184.011 23.104 183.859 23.256 183.667 23.368C183.491 23.464 183.291 23.504 183.067 23.488C182.843 23.456 182.627 23.336 182.419 23.128L178.915 19.624L175.411 23.128Z" fill="#646464"/>
<path d="M107.084 25.24C106.236 25.24 105.476 25.08 104.804 24.76C104.148 24.424 103.628 23.976 103.244 23.416C102.876 22.856 102.692 22.224 102.692 21.52C102.692 20.656 102.916 19.976 103.364 19.48C103.812 18.968 104.54 18.6 105.548 18.376C106.556 18.152 107.908 18.04 109.604 18.04H110.804V19.768H109.628C108.636 19.768 107.844 19.816 107.252 19.912C106.66 20.008 106.236 20.176 105.98 20.416C105.74 20.64 105.62 20.96 105.62 21.376C105.62 21.904 105.804 22.336 106.172 22.672C106.54 23.008 107.052 23.176 107.708 23.176C108.236 23.176 108.7 23.056 109.1 22.816C109.516 22.56 109.844 22.216 110.084 21.784C110.324 21.352 110.444 20.856 110.444 20.296V17.536C110.444 16.736 110.268 16.16 109.916 15.808C109.564 15.456 108.972 15.28 108.14 15.28C107.676 15.28 107.172 15.336 106.628 15.448C106.1 15.56 105.54 15.752 104.948 16.024C104.644 16.168 104.372 16.208 104.132 16.144C103.908 16.08 103.732 15.952 103.604 15.76C103.476 15.552 103.412 15.328 103.412 15.088C103.412 14.848 103.476 14.616 103.604 14.392C103.732 14.152 103.948 13.976 104.252 13.864C104.988 13.56 105.692 13.344 106.364 13.216C107.052 13.088 107.676 13.024 108.236 13.024C109.388 13.024 110.332 13.2 111.068 13.552C111.82 13.904 112.38 14.44 112.748 15.16C113.116 15.864 113.3 16.776 113.3 17.896V23.656C113.3 24.152 113.18 24.536 112.94 24.808C112.7 25.064 112.356 25.192 111.908 25.192C111.46 25.192 111.108 25.064 110.852 24.808C110.612 24.536 110.492 24.152 110.492 23.656V22.504H110.684C110.572 23.064 110.348 23.552 110.012 23.968C109.692 24.368 109.284 24.68 108.788 24.904C108.292 25.128 107.724 25.24 107.084 25.24Z" fill="#D97A1A"/>
<path d="M150.535 25.24C149.543 25.24 148.671 24.992 147.919 24.496C147.183 24 146.695 23.336 146.455 22.504L146.719 21.904V23.656C146.719 24.152 146.591 24.536 146.335 24.808C146.079 25.064 145.719 25.192 145.255 25.192C144.775 25.192 144.407 25.064 144.151 24.808C143.895 24.536 143.767 24.152 143.767 23.656V9.4C143.767 8.904 143.895 8.528 144.151 8.272C144.407 8.016 144.775 7.888 145.255 7.888C145.735 7.888 146.103 8.016 146.359 8.272C146.631 8.528 146.767 8.904 146.767 9.4V15.64H146.479C146.735 14.856 147.231 14.224 147.967 13.744C148.703 13.264 149.559 13.024 150.535 13.024C151.575 13.024 152.479 13.272 153.247 13.768C154.015 14.264 154.615 14.968 155.047 15.88C155.479 16.776 155.695 17.856 155.695 19.12C155.695 20.368 155.479 21.456 155.047 22.384C154.615 23.296 154.007 24 153.223 24.496C152.455 24.992 151.559 25.24 150.535 25.24ZM149.695 22.96C150.287 22.96 150.807 22.816 151.255 22.528C151.703 22.24 152.047 21.816 152.287 21.256C152.543 20.68 152.671 19.968 152.671 19.12C152.671 17.84 152.399 16.888 151.855 16.264C151.311 15.624 150.591 15.304 149.695 15.304C149.103 15.304 148.583 15.448 148.135 15.736C147.687 16.008 147.335 16.432 147.079 17.008C146.839 17.568 146.719 18.272 146.719 19.12C146.719 20.384 146.991 21.344 147.535 22C148.079 22.64 148.799 22.96 149.695 22.96Z" fill="#1CB9D9"/>
<path d="M199.605 25.24C198.373 25.24 197.301 24.992 196.389 24.496C195.477 23.984 194.773 23.264 194.277 22.336C193.781 21.408 193.533 20.32 193.533 19.072C193.533 18.128 193.669 17.288 193.941 16.552C194.229 15.8 194.637 15.168 195.165 14.656C195.693 14.128 196.333 13.728 197.085 13.456C197.837 13.168 198.677 13.024 199.605 13.024C200.133 13.024 200.701 13.096 201.309 13.24C201.933 13.384 202.517 13.624 203.061 13.96C203.317 14.12 203.485 14.312 203.565 14.536C203.645 14.76 203.661 14.992 203.613 15.232C203.565 15.456 203.461 15.656 203.301 15.832C203.157 15.992 202.973 16.096 202.749 16.144C202.525 16.176 202.277 16.12 202.005 15.976C201.653 15.768 201.293 15.616 200.925 15.52C200.557 15.408 200.205 15.352 199.869 15.352C199.341 15.352 198.877 15.44 198.477 15.616C198.077 15.776 197.733 16.016 197.445 16.336C197.173 16.64 196.965 17.024 196.821 17.488C196.677 17.952 196.605 18.488 196.605 19.096C196.605 20.28 196.885 21.216 197.445 21.904C198.021 22.576 198.829 22.912 199.869 22.912C200.205 22.912 200.549 22.864 200.901 22.768C201.269 22.672 201.637 22.52 202.005 22.312C202.277 22.168 202.517 22.12 202.725 22.168C202.949 22.216 203.133 22.328 203.277 22.504C203.421 22.664 203.509 22.864 203.541 23.104C203.573 23.328 203.541 23.552 203.445 23.776C203.365 24 203.205 24.184 202.965 24.328C202.437 24.648 201.877 24.88 201.285 25.024C200.693 25.168 200.133 25.24 199.605 25.24Z" fill="#AA5EE0"/>
<path d="M414.483 24.24C413.635 24.24 412.875 24.08 412.203 23.76C411.547 23.424 411.027 22.976 410.643 22.416C410.275 21.856 410.091 21.224 410.091 20.52C410.091 19.656 410.315 18.976 410.763 18.48C411.211 17.968 411.939 17.6 412.947 17.376C413.955 17.152 415.307 17.04 417.003 17.04H418.203V18.768H417.027C416.035 18.768 415.243 18.816 414.651 18.912C414.059 19.008 413.635 19.176 413.379 19.416C413.139 19.64 413.019 19.96 413.019 20.376C413.019 20.904 413.203 21.336 413.571 21.672C413.939 22.008 414.451 22.176 415.107 22.176C415.635 22.176 416.099 22.056 416.499 21.816C416.915 21.56 417.243 21.216 417.483 20.784C417.723 20.352 417.843 19.856 417.843 19.296V16.536C417.843 15.736 417.667 15.16 417.315 14.808C416.963 14.456 416.371 14.28 415.539 14.28C415.075 14.28 414.571 14.336 414.027 14.448C413.499 14.56 412.939 14.752 412.347 15.024C412.043 15.168 411.771 15.208 411.531 15.144C411.307 15.08 411.131 14.952 411.003 14.76C410.875 14.552 410.811 14.328 410.811 14.088C410.811 13.848 410.875 13.616 411.003 13.392C411.131 13.152 411.347 12.976 411.651 12.864C412.387 12.56 413.091 12.344 413.763 12.216C414.451 12.088 415.075 12.024 415.635 12.024C416.787 12.024 417.731 12.2 418.467 12.552C419.219 12.904 419.779 13.44 420.147 14.16C420.515 14.864 420.699 15.776 420.699 16.896V22.656C420.699 23.152 420.579 23.536 420.339 23.808C420.099 24.064 419.755 24.192 419.307 24.192C418.859 24.192 418.507 24.064 418.251 23.808C418.011 23.536 417.891 23.152 417.891 22.656V21.504H418.083C417.971 22.064 417.747 22.552 417.411 22.968C417.091 23.368 416.683 23.68 416.187 23.904C415.691 24.128 415.123 24.24 414.483 24.24Z" fill="#D97A1A"/>
<path d="M432.395 22.128C432.139 22.384 431.867 22.504 431.579 22.488C431.307 22.472 431.075 22.368 430.883 22.176C430.691 21.968 430.587 21.728 430.571 21.456C430.555 21.168 430.675 20.896 430.931 20.64L434.411 17.16L430.859 13.608C430.651 13.4 430.531 13.184 430.499 12.96C430.483 12.72 430.523 12.512 430.619 12.336C430.731 12.144 430.883 11.992 431.075 11.88C431.267 11.768 431.475 11.728 431.699 11.76C431.939 11.792 432.163 11.912 432.371 12.12L435.899 15.648L439.427 12.12C439.683 11.864 439.955 11.744 440.243 11.76C440.531 11.776 440.771 11.888 440.963 12.096C441.171 12.288 441.283 12.52 441.299 12.792C441.331 13.064 441.211 13.336 440.939 13.608L437.387 17.16L440.867 20.64C441.075 20.848 441.195 21.064 441.227 21.288C441.259 21.512 441.219 21.72 441.107 21.912C440.995 22.104 440.843 22.256 440.651 22.368C440.475 22.464 440.275 22.504 440.051 22.488C439.827 22.456 439.611 22.336 439.403 22.128L435.899 18.624L432.395 22.128ZM454.813 27.912C453.821 26.344 453.101 24.696 452.653 22.968C452.221 21.224 452.005 19.464 452.005 17.688C452.005 16.504 452.101 15.328 452.293 14.16C452.485 12.992 452.789 11.848 453.205 10.728C453.621 9.592 454.157 8.504 454.813 7.464C454.989 7.176 455.221 7 455.509 6.936C455.813 6.856 456.093 6.872 456.349 6.984C456.621 7.096 456.821 7.304 456.949 7.608C457.077 7.896 457.061 8.264 456.901 8.712C456.517 9.736 456.197 10.744 455.941 11.736C455.701 12.712 455.517 13.688 455.389 14.664C455.277 15.64 455.221 16.648 455.221 17.688C455.221 18.728 455.285 19.736 455.413 20.712C455.541 21.688 455.733 22.664 455.989 23.64C456.245 24.616 456.549 25.624 456.901 26.664C457.061 27.112 457.077 27.48 456.949 27.768C456.821 28.072 456.621 28.28 456.349 28.392C456.093 28.504 455.813 28.52 455.509 28.44C455.221 28.376 454.989 28.2 454.813 27.912ZM482.809 22.128C482.553 22.384 482.281 22.504 481.993 22.488C481.721 22.472 481.489 22.368 481.297 22.176C481.105 21.968 481.001 21.728 480.985 21.456C480.969 21.168 481.089 20.896 481.345 20.64L484.825 17.16L481.273 13.608C481.065 13.4 480.945 13.184 480.913 12.96C480.897 12.72 480.937 12.512 481.033 12.336C481.145 12.144 481.297 11.992 481.489 11.88C481.681 11.768 481.889 11.728 482.113 11.76C482.353 11.792 482.577 11.912 482.785 12.12L486.313 15.648L489.841 12.12C490.097 11.864 490.369 11.744 490.657 11.76C490.945 11.776 491.185 11.888 491.377 12.096C491.585 12.288 491.697 12.52 491.713 12.792C491.745 13.064 491.625 13.336 491.353 13.608L487.801 17.16L491.281 20.64C491.489 20.848 491.609 21.064 491.641 21.288C491.673 21.512 491.633 21.72 491.521 21.912C491.409 22.104 491.257 22.256 491.065 22.368C490.889 22.464 490.689 22.504 490.465 22.488C490.241 22.456 490.025 22.336 489.817 22.128L486.313 18.624L482.809 22.128ZM514.724 27.912C514.548 28.2 514.308 28.376 514.004 28.44C513.716 28.52 513.436 28.496 513.164 28.368C512.892 28.256 512.692 28.056 512.564 27.768C512.452 27.48 512.476 27.112 512.636 26.664C513.036 25.624 513.356 24.616 513.596 23.64C513.836 22.664 514.012 21.688 514.124 20.712C514.252 19.736 514.316 18.728 514.316 17.688C514.316 16.648 514.252 15.64 514.124 14.664C513.996 13.688 513.804 12.712 513.548 11.736C513.308 10.76 513.004 9.752 512.636 8.712C512.476 8.264 512.46 7.896 512.588 7.608C512.716 7.304 512.916 7.096 513.188 6.984C513.46 6.872 513.74 6.856 514.028 6.936C514.316 7 514.548 7.176 514.724 7.464C515.7 9.016 516.412 10.664 516.86 12.408C517.308 14.152 517.532 15.912 517.532 17.688C517.532 18.872 517.428 20.048 517.22 21.216C517.028 22.384 516.724 23.528 516.308 24.648C515.908 25.784 515.38 26.872 514.724 27.912Z" fill="#646464"/>
<path d="M466.535 24.24C465.543 24.24 464.671 23.992 463.919 23.496C463.183 23 462.695 22.336 462.455 21.504L462.719 20.904V22.656C462.719 23.152 462.591 23.536 462.335 23.808C462.079 24.064 461.719 24.192 461.255 24.192C460.775 24.192 460.407 24.064 460.151 23.808C459.895 23.536 459.767 23.152 459.767 22.656V8.4C459.767 7.904 459.895 7.528 460.151 7.272C460.407 7.016 460.775 6.888 461.255 6.888C461.735 6.888 462.103 7.016 462.359 7.272C462.631 7.528 462.767 7.904 462.767 8.4V14.64H462.479C462.735 13.856 463.231 13.224 463.967 12.744C464.703 12.264 465.559 12.024 466.535 12.024C467.575 12.024 468.479 12.272 469.247 12.768C470.015 13.264 470.615 13.968 471.047 14.88C471.479 15.776 471.695 16.856 471.695 18.12C471.695 19.368 471.479 20.456 471.047 21.384C470.615 22.296 470.007 23 469.223 23.496C468.455 23.992 467.559 24.24 466.535 24.24ZM465.695 21.96C466.287 21.96 466.807 21.816 467.255 21.528C467.703 21.24 468.047 20.816 468.287 20.256C468.543 19.68 468.671 18.968 468.671 18.12C468.671 16.84 468.399 15.888 467.855 15.264C467.311 14.624 466.591 14.304 465.695 14.304C465.103 14.304 464.583 14.448 464.135 14.736C463.687 15.008 463.335 15.432 463.079 16.008C462.839 16.568 462.719 17.272 462.719 18.12C462.719 19.384 462.991 20.344 463.535 21C464.079 21.64 464.799 21.96 465.695 21.96Z" fill="#1CB9D9"/>
<path d="M507.004 24.24C505.772 24.24 504.7 23.992 503.788 23.496C502.876 22.984 502.172 22.264 501.676 21.336C501.18 20.408 500.932 19.32 500.932 18.072C500.932 17.128 501.068 16.288 501.34 15.552C501.628 14.8 502.036 14.168 502.564 13.656C503.092 13.128 503.732 12.728 504.484 12.456C505.236 12.168 506.076 12.024 507.004 12.024C507.532 12.024 508.1 12.096 508.708 12.24C509.332 12.384 509.916 12.624 510.46 12.96C510.716 13.12 510.884 13.312 510.964 13.536C511.044 13.76 511.06 13.992 511.012 14.232C510.964 14.456 510.86 14.656 510.7 14.832C510.556 14.992 510.372 15.096 510.148 15.144C509.924 15.176 509.676 15.12 509.404 14.976C509.052 14.768 508.692 14.616 508.324 14.52C507.956 14.408 507.604 14.352 507.268 14.352C506.74 14.352 506.276 14.44 505.876 14.616C505.476 14.776 505.132 15.016 504.844 15.336C504.572 15.64 504.364 16.024 504.22 16.488C504.076 16.952 504.004 17.488 504.004 18.096C504.004 19.28 504.284 20.216 504.844 20.904C505.42 21.576 506.228 21.912 507.268 21.912C507.604 21.912 507.948 21.864 508.3 21.768C508.668 21.672 509.036 21.52 509.404 21.312C509.676 21.168 509.916 21.12 510.124 21.168C510.348 21.216 510.532 21.328 510.676 21.504C510.82 21.664 510.908 21.864 510.94 22.104C510.972 22.328 510.94 22.552 510.844 22.776C510.764 23 510.604 23.184 510.364 23.328C509.836 23.648 509.276 23.88 508.684 24.024C508.092 24.168 507.532 24.24 507.004 24.24Z" fill="#AA5EE0"/>
</svg>
