<svg width="664" height="94" viewBox="0 0 664 94" fill="none" xmlns="http://www.w3.org/2000/svg">
<path d="M0.93934 45.9393C0.353553 46.5251 0.353553 47.4749 0.93934 48.0607L10.4853 57.6066C11.0711 58.1924 12.0208 58.1924 12.6066 57.6066C13.1924 57.0208 13.1924 56.0711 12.6066 55.4853L4.12132 47L12.6066 38.5147C13.1924 37.9289 13.1924 36.9792 12.6066 36.3934C12.0208 35.8076 11.0711 35.8076 10.4853 36.3934L0.93934 45.9393ZM663.061 48.0607C663.646 47.4749 663.646 46.5252 663.061 45.9394L653.515 36.3935C652.929 35.8077 651.979 35.8077 651.393 36.3935C650.808 36.9792 650.808 37.929 651.393 38.5148L659.879 47.0001L651.393 55.4853C650.808 56.0711 650.808 57.0209 651.393 57.6067C651.979 58.1924 652.929 58.1924 653.515 57.6067L663.061 48.0607ZM2 48.5L662 48.5001L662 45.5001L2 45.5L2 48.5Z" fill="#888888"/>
<path d="M27.0039 87.2C25.3372 87.2 24.0639 86.5733 23.1839 85.32C22.3039 84.0533 21.8639 82.2533 21.8639 79.92C21.8639 78.3467 22.0572 77.0267 22.4439 75.96C22.8439 74.88 23.4239 74.0667 24.1839 73.52C24.9572 72.9733 25.8972 72.7 27.0039 72.7C28.6839 72.7 29.9572 73.3133 30.8239 74.54C31.7039 75.7667 32.1439 77.5533 32.1439 79.9C32.1439 81.46 31.9439 82.7867 31.5439 83.88C31.1572 84.96 30.5839 85.7867 29.8239 86.36C29.0639 86.92 28.1239 87.2 27.0039 87.2ZM27.0039 85.1C27.9106 85.1 28.5772 84.68 29.0039 83.84C29.4439 83 29.6639 81.6867 29.6639 79.9C29.6639 78.1133 29.4439 76.82 29.0039 76.02C28.5772 75.2067 27.9106 74.8 27.0039 74.8C26.1106 74.8 25.4439 75.2067 25.0039 76.02C24.5639 76.82 24.3439 78.1133 24.3439 79.9C24.3439 81.6867 24.5639 83 25.0039 83.84C25.4439 84.68 26.1106 85.1 27.0039 85.1Z" fill="#888888"/>
<path d="M633.124 87C632.777 87 632.504 86.9067 632.304 86.72C632.117 86.52 632.024 86.2533 632.024 85.92C632.024 85.5733 632.117 85.3133 632.304 85.14C632.504 84.9667 632.777 84.88 633.124 84.88H635.364V75.06H636.604L633.664 76.84C633.411 76.9867 633.171 77.0467 632.944 77.02C632.731 76.98 632.544 76.8867 632.384 76.74C632.237 76.58 632.137 76.3933 632.084 76.18C632.031 75.9667 632.044 75.7533 632.124 75.54C632.217 75.3133 632.391 75.1267 632.644 74.98L635.404 73.32C635.671 73.16 635.937 73.0267 636.204 72.92C636.471 72.8 636.717 72.74 636.944 72.74C637.224 72.74 637.457 72.82 637.644 72.98C637.831 73.1267 637.924 73.3733 637.924 73.72V84.88H639.964C640.311 84.88 640.577 84.9667 640.764 85.14C640.964 85.3133 641.064 85.5733 641.064 85.92C641.064 86.2667 640.964 86.5333 640.764 86.72C640.577 86.9067 640.311 87 639.964 87H633.124Z" fill="#888888"/>
</svg>
