<svg width="476" height="215" viewBox="0 0 476 215" fill="none" xmlns="http://www.w3.org/2000/svg">
<rect x="20.25" y="0.25" width="53.5" height="47.5" rx="7.75" fill="white"/>
<path d="M34.0636 29.112C33.8503 29.112 33.685 29.0533 33.5676 28.936C33.461 28.808 33.4076 28.6373 33.4076 28.424V18.392C33.4076 18.168 33.4663 18.0027 33.5836 17.896C33.701 17.7787 33.8663 17.72 34.0796 17.72H37.8716C39.077 17.72 40.005 18.0187 40.6556 18.616C41.3063 19.2027 41.6316 20.0347 41.6316 21.112C41.6316 22.1787 41.3063 23.0107 40.6556 23.608C40.005 24.2053 39.077 24.504 37.8716 24.504H34.7196V28.424C34.7196 28.6373 34.6663 28.808 34.5596 28.936C34.453 29.0533 34.2876 29.112 34.0636 29.112ZM34.7196 23.4H37.7116C38.5756 23.4 39.2263 23.208 39.6636 22.824C40.1116 22.4293 40.3356 21.8587 40.3356 21.112C40.3356 20.3547 40.1116 19.784 39.6636 19.4C39.2263 19.0053 38.5756 18.808 37.7116 18.808H34.7196V23.4ZM45.414 29.144C44.8807 29.144 44.4007 29.0427 43.974 28.84C43.558 28.6267 43.2273 28.3387 42.982 27.976C42.7367 27.6133 42.614 27.208 42.614 26.76C42.614 26.184 42.758 25.7307 43.046 25.4C43.3447 25.0693 43.83 24.8347 44.502 24.696C45.1847 24.5573 46.1127 24.488 47.286 24.488H48.006V25.336H47.302C46.438 25.336 45.7553 25.3787 45.254 25.464C44.7633 25.5387 44.4167 25.672 44.214 25.864C44.022 26.056 43.926 26.328 43.926 26.68C43.926 27.1173 44.0753 27.4747 44.374 27.752C44.6833 28.0293 45.0993 28.168 45.622 28.168C46.0487 28.168 46.422 28.0667 46.742 27.864C47.0727 27.6613 47.3287 27.384 47.51 27.032C47.702 26.68 47.798 26.2747 47.798 25.816V23.992C47.798 23.3307 47.6647 22.856 47.398 22.568C47.1313 22.2693 46.694 22.12 46.086 22.12C45.7127 22.12 45.3393 22.168 44.966 22.264C44.5927 22.36 44.198 22.5147 43.782 22.728C43.6327 22.8027 43.5047 22.8293 43.398 22.808C43.2913 22.776 43.206 22.7173 43.142 22.632C43.078 22.5467 43.0407 22.4507 43.03 22.344C43.0193 22.2267 43.0407 22.1147 43.094 22.008C43.158 21.9013 43.254 21.816 43.382 21.752C43.8513 21.5173 44.3153 21.3467 44.774 21.24C45.2327 21.1333 45.67 21.08 46.086 21.08C46.758 21.08 47.3127 21.192 47.75 21.416C48.1873 21.6293 48.5127 21.96 48.726 22.408C48.9393 22.8453 49.046 23.4107 49.046 24.104V28.44C49.046 28.6533 48.9927 28.8187 48.886 28.936C48.79 29.0533 48.646 29.112 48.454 29.112C48.2513 29.112 48.0967 29.0533 47.99 28.936C47.8833 28.8187 47.83 28.6533 47.83 28.44V27.192H47.974C47.8887 27.5973 47.7233 27.944 47.478 28.232C47.2433 28.52 46.95 28.744 46.598 28.904C46.246 29.064 45.8513 29.144 45.414 29.144ZM52.1064 29.112C51.893 29.112 51.7277 29.0533 51.6104 28.936C51.5037 28.8187 51.4504 28.6533 51.4504 28.44V21.768C51.4504 21.5547 51.5037 21.3947 51.6104 21.288C51.717 21.1707 51.8717 21.112 52.0744 21.112C52.277 21.112 52.4317 21.1707 52.5384 21.288C52.6557 21.3947 52.7144 21.5547 52.7144 21.768V23.064H52.5544C52.725 22.4347 53.0504 21.9493 53.5304 21.608C54.0104 21.2667 54.6024 21.0853 55.3064 21.064C55.4664 21.0533 55.5944 21.0907 55.6904 21.176C55.7864 21.2507 55.8397 21.384 55.8504 21.576C55.861 21.7573 55.8184 21.9013 55.7224 22.008C55.6264 22.1147 55.477 22.1787 55.2744 22.2L55.0184 22.232C54.293 22.296 53.733 22.5307 53.3384 22.936C52.9544 23.3307 52.7624 23.8747 52.7624 24.568V28.44C52.7624 28.6533 52.7037 28.8187 52.5864 28.936C52.4797 29.0533 52.3197 29.112 52.1064 29.112ZM60.7266 29.144C60.1186 29.144 59.6066 29.0373 59.1906 28.824C58.7853 28.6 58.4813 28.28 58.2786 27.864C58.076 27.4373 57.9746 26.92 57.9746 26.312V22.232H56.9026C56.7213 22.232 56.5826 22.1893 56.4866 22.104C56.3906 22.008 56.3426 21.88 56.3426 21.72C56.3426 21.56 56.3906 21.4373 56.4866 21.352C56.5826 21.2667 56.7213 21.224 56.9026 21.224H57.9746V19.384C57.9746 19.1707 58.0333 19.0107 58.1506 18.904C58.268 18.7867 58.428 18.728 58.6306 18.728C58.8333 18.728 58.988 18.7867 59.0946 18.904C59.212 19.0107 59.2706 19.1707 59.2706 19.384V21.224H61.2866C61.468 21.224 61.6066 21.2667 61.7026 21.352C61.7986 21.4373 61.8466 21.56 61.8466 21.72C61.8466 21.88 61.7986 22.008 61.7026 22.104C61.6066 22.1893 61.468 22.232 61.2866 22.232H59.2706V26.184C59.2706 26.792 59.3986 27.256 59.6546 27.576C59.9106 27.8853 60.3266 28.04 60.9026 28.04C61.1053 28.04 61.276 28.0187 61.4146 27.976C61.564 27.9333 61.6866 27.912 61.7826 27.912C61.8786 27.9013 61.9586 27.9333 62.0226 28.008C62.0866 28.0827 62.1186 28.2107 62.1186 28.392C62.1186 28.52 62.092 28.6373 62.0386 28.744C61.996 28.8507 61.916 28.9253 61.7986 28.968C61.6706 29.0107 61.5 29.048 61.2866 29.08C61.084 29.1227 60.8973 29.144 60.7266 29.144Z" fill="#444444"/>
<rect x="20.25" y="0.25" width="53.5" height="47.5" rx="7.75" stroke="#1A1A1A" stroke-width="0.5"/>
<path d="M78.5 26C78.5 28.3163 76.75 30.2238 74.5 30.4725L74.5 26L74.5 21.5275C76.75 21.7762 78.5 23.6837 78.5 26Z" fill="#2C2C2C" stroke="#2C2C2C"/>
<path d="M98.8324 26L99.0975 25.5761L98.9759 25.5H98.8324V26ZM150.112 58.4872C150.381 58.4252 150.549 58.1568 150.487 57.8877L149.477 53.5027C149.415 53.2336 149.146 53.0657 148.877 53.1277C148.608 53.1897 148.44 53.4582 148.502 53.7272L149.4 57.6251L145.503 58.5234C145.234 58.5854 145.066 58.8538 145.128 59.1229C145.19 59.392 145.458 59.5599 145.727 59.4978L150.112 58.4872ZM79 26.5H98.8324V25.5H79V26.5ZM98.5673 26.4239L149.735 58.4239L150.265 57.5761L99.0975 25.5761L98.5673 26.4239Z" fill="#2C2C2C"/>
<rect x="0.25" y="167.25" width="73.5" height="47.5" rx="7.75" fill="white"/>
<path d="M17.4377 196.112C17.2457 196.112 17.091 196.064 16.9737 195.968C16.8564 195.861 16.7604 195.707 16.6857 195.504L13.1497 185.408C13.075 185.184 13.091 184.997 13.1977 184.848C13.315 184.688 13.4964 184.608 13.7417 184.608C13.923 184.608 14.067 184.656 14.1737 184.752C14.2804 184.837 14.371 184.976 14.4457 185.168L17.7577 194.88H17.1977L20.5737 185.216C20.6484 185.013 20.739 184.864 20.8457 184.768C20.9524 184.661 21.0964 184.608 21.2777 184.608C21.4484 184.608 21.5817 184.661 21.6777 184.768C21.7844 184.864 21.875 185.013 21.9497 185.216L25.2777 194.88H24.7817L28.1257 185.168C28.179 184.987 28.259 184.848 28.3657 184.752C28.483 184.656 28.6324 184.608 28.8137 184.608C29.0377 184.608 29.203 184.683 29.3097 184.832C29.4164 184.981 29.427 185.173 29.3417 185.408L25.7897 195.504C25.715 195.707 25.619 195.861 25.5017 195.968C25.395 196.064 25.2404 196.112 25.0377 196.112C24.8457 196.112 24.691 196.064 24.5737 195.968C24.467 195.861 24.371 195.707 24.2857 195.504L21.0697 186.24H21.4217L18.1737 195.504C18.099 195.707 18.0084 195.861 17.9017 195.968C17.795 196.064 17.6404 196.112 17.4377 196.112ZM32.2701 196.112C32.0567 196.112 31.8967 196.053 31.7901 195.936C31.6834 195.819 31.6301 195.653 31.6301 195.44V185.264C31.6301 185.051 31.6834 184.891 31.7901 184.784C31.8967 184.667 32.0567 184.608 32.2701 184.608C32.4727 184.608 32.6327 184.667 32.7501 184.784C32.8674 184.891 32.9261 185.051 32.9261 185.264V189.952H32.7181C32.9421 189.333 33.3047 188.869 33.8061 188.56C34.3181 188.24 34.9047 188.08 35.5661 188.08C36.1847 188.08 36.6967 188.192 37.1021 188.416C37.5181 188.64 37.8274 188.981 38.0301 189.44C38.2327 189.888 38.3341 190.459 38.3341 191.152V195.44C38.3341 195.653 38.2754 195.819 38.1581 195.936C38.0514 196.053 37.8967 196.112 37.6941 196.112C37.4807 196.112 37.3154 196.053 37.1981 195.936C37.0914 195.819 37.0381 195.653 37.0381 195.44V191.232C37.0381 190.507 36.8941 189.979 36.6061 189.648C36.3287 189.307 35.8807 189.136 35.2621 189.136C34.5474 189.136 33.9767 189.36 33.5501 189.808C33.1341 190.245 32.9261 190.832 32.9261 191.568V195.44C32.9261 195.888 32.7074 196.112 32.2701 196.112ZM43.9558 196.144C43.1985 196.144 42.5425 195.979 41.9878 195.648C41.4331 195.317 41.0011 194.853 40.6918 194.256C40.3931 193.648 40.2438 192.933 40.2438 192.112C40.2438 191.493 40.3291 190.939 40.4998 190.448C40.6705 189.947 40.9211 189.52 41.2518 189.168C41.5825 188.816 41.9718 188.549 42.4198 188.368C42.8785 188.176 43.3905 188.08 43.9558 188.08C44.7131 188.08 45.3691 188.245 45.9238 188.576C46.4785 188.907 46.9051 189.376 47.2038 189.984C47.5131 190.581 47.6678 191.291 47.6678 192.112C47.6678 192.731 47.5825 193.285 47.4118 193.776C47.2411 194.267 46.9905 194.693 46.6598 195.056C46.3291 195.408 45.9345 195.68 45.4758 195.872C45.0278 196.053 44.5211 196.144 43.9558 196.144ZM43.9558 195.104C44.4358 195.104 44.8571 194.987 45.2198 194.752C45.5825 194.517 45.8598 194.176 46.0518 193.728C46.2545 193.28 46.3558 192.741 46.3558 192.112C46.3558 191.141 46.1371 190.4 45.6998 189.888C45.2731 189.376 44.6918 189.12 43.9558 189.12C43.4651 189.12 43.0385 189.237 42.6758 189.472C42.3238 189.696 42.0465 190.032 41.8438 190.48C41.6518 190.917 41.5558 191.461 41.5558 192.112C41.5558 193.072 41.7745 193.813 42.2118 194.336C42.6491 194.848 43.2305 195.104 43.9558 195.104ZM51.9824 196.144C51.2144 196.144 50.6278 195.909 50.2224 195.44C49.8171 194.971 49.6144 194.299 49.6144 193.424V185.264C49.6144 185.051 49.6678 184.891 49.7744 184.784C49.8811 184.667 50.0411 184.608 50.2544 184.608C50.4571 184.608 50.6171 184.667 50.7344 184.784C50.8518 184.891 50.9104 185.051 50.9104 185.264V193.328C50.9104 193.904 51.0224 194.336 51.2464 194.624C51.4811 194.901 51.8224 195.04 52.2704 195.04C52.3664 195.04 52.4518 195.035 52.5264 195.024C52.6011 195.013 52.6758 195.008 52.7504 195.008C52.8678 194.997 52.9478 195.024 52.9904 195.088C53.0438 195.152 53.0704 195.28 53.0704 195.472C53.0704 195.664 53.0278 195.808 52.9424 195.904C52.8571 196 52.7184 196.064 52.5264 196.096C52.4411 196.107 52.3504 196.117 52.2544 196.128C52.1584 196.139 52.0678 196.144 51.9824 196.144ZM57.7747 196.144C56.9534 196.144 56.244 195.984 55.6467 195.664C55.06 195.333 54.6014 194.869 54.2707 194.272C53.9507 193.675 53.7907 192.96 53.7907 192.128C53.7907 191.317 53.9507 190.613 54.2707 190.016C54.5907 189.408 55.028 188.933 55.5827 188.592C56.148 188.251 56.7987 188.08 57.5347 188.08C58.0574 188.08 58.5267 188.171 58.9427 188.352C59.3587 188.523 59.7107 188.773 59.9987 189.104C60.2974 189.435 60.5214 189.835 60.6707 190.304C60.8307 190.773 60.9107 191.301 60.9107 191.888C60.9107 192.059 60.8627 192.187 60.7667 192.272C60.6707 192.347 60.532 192.384 60.3507 192.384H54.7827V191.536H60.0467L59.7907 191.744C59.7907 191.168 59.7054 190.683 59.5347 190.288C59.364 189.883 59.1134 189.573 58.7827 189.36C58.4627 189.147 58.0574 189.04 57.5667 189.04C57.0227 189.04 56.5587 189.168 56.1747 189.424C55.8014 189.669 55.5187 190.016 55.3267 190.464C55.1347 190.901 55.0387 191.413 55.0387 192V192.096C55.0387 193.077 55.2734 193.824 55.7427 194.336C56.2227 194.848 56.9 195.104 57.7747 195.104C58.1374 195.104 58.4947 195.056 58.8467 194.96C59.2094 194.864 59.5614 194.704 59.9027 194.48C60.052 194.384 60.1854 194.341 60.3027 194.352C60.4307 194.352 60.532 194.389 60.6067 194.464C60.6814 194.528 60.7294 194.613 60.7507 194.72C60.7827 194.816 60.772 194.923 60.7187 195.04C60.676 195.157 60.5854 195.259 60.4467 195.344C60.0947 195.6 59.6787 195.797 59.1987 195.936C58.7187 196.075 58.244 196.144 57.7747 196.144Z" fill="#444444"/>
<rect x="0.25" y="167.25" width="73.5" height="47.5" rx="7.75" stroke="#1A1A1A" stroke-width="0.5"/>
<path d="M78.5 191C78.5 193.316 76.75 195.224 74.5 195.473L74.5 191L74.5 186.527C76.75 186.776 78.5 188.684 78.5 191Z" fill="#2C2C2C" stroke="#2C2C2C"/>
<path d="M98.8324 191L99.1007 191.422L98.9779 191.5H98.8324V191ZM124.109 174.512C124.378 174.572 124.548 174.839 124.488 175.109L123.51 179.501C123.45 179.771 123.183 179.94 122.913 179.88C122.644 179.82 122.474 179.553 122.534 179.284L123.403 175.379L119.499 174.51C119.229 174.45 119.06 174.183 119.12 173.913C119.18 173.644 119.447 173.474 119.716 173.534L124.109 174.512ZM79 190.5H98.8324V191.5H79V190.5ZM98.5642 190.578L123.732 174.578L124.268 175.422L99.1007 191.422L98.5642 190.578Z" fill="#2C2C2C"/>
<rect x="397.25" y="0.25" width="78.5" height="47.5" rx="7.75" fill="white"/>
<path d="M411.353 29.112C411.139 29.112 410.974 29.0533 410.857 28.936C410.75 28.808 410.697 28.6373 410.697 28.424V18.392C410.697 18.168 410.755 18.0027 410.873 17.896C410.99 17.7787 411.155 17.72 411.369 17.72H415.161C416.366 17.72 417.294 18.0187 417.945 18.616C418.595 19.2027 418.921 20.0347 418.921 21.112C418.921 22.1787 418.595 23.0107 417.945 23.608C417.294 24.2053 416.366 24.504 415.161 24.504H412.009V28.424C412.009 28.6373 411.955 28.808 411.849 28.936C411.742 29.0533 411.577 29.112 411.353 29.112ZM412.009 23.4H415.001C415.865 23.4 416.515 23.208 416.953 22.824C417.401 22.4293 417.625 21.8587 417.625 21.112C417.625 20.3547 417.401 19.784 416.953 19.4C416.515 19.0053 415.865 18.808 415.001 18.808H412.009V23.4ZM423.806 29.144C422.985 29.144 422.275 28.984 421.678 28.664C421.091 28.3333 420.633 27.8693 420.302 27.272C419.982 26.6747 419.822 25.96 419.822 25.128C419.822 24.3173 419.982 23.6133 420.302 23.016C420.622 22.408 421.059 21.9333 421.614 21.592C422.179 21.2507 422.83 21.08 423.566 21.08C424.089 21.08 424.558 21.1707 424.974 21.352C425.39 21.5227 425.742 21.7733 426.03 22.104C426.329 22.4347 426.553 22.8347 426.702 23.304C426.862 23.7733 426.942 24.3013 426.942 24.888C426.942 25.0587 426.894 25.1867 426.798 25.272C426.702 25.3467 426.563 25.384 426.382 25.384H420.814V24.536H426.078L425.822 24.744C425.822 24.168 425.737 23.6827 425.566 23.288C425.395 22.8827 425.145 22.5733 424.814 22.36C424.494 22.1467 424.089 22.04 423.598 22.04C423.054 22.04 422.59 22.168 422.206 22.424C421.833 22.6693 421.55 23.016 421.358 23.464C421.166 23.9013 421.07 24.4133 421.07 25V25.096C421.07 26.0773 421.305 26.824 421.774 27.336C422.254 27.848 422.931 28.104 423.806 28.104C424.169 28.104 424.526 28.056 424.878 27.96C425.241 27.864 425.593 27.704 425.934 27.48C426.083 27.384 426.217 27.3413 426.334 27.352C426.462 27.352 426.563 27.3893 426.638 27.464C426.713 27.528 426.761 27.6133 426.782 27.72C426.814 27.816 426.803 27.9227 426.75 28.04C426.707 28.1573 426.617 28.2587 426.478 28.344C426.126 28.6 425.71 28.7973 425.23 28.936C424.75 29.0747 424.275 29.144 423.806 29.144ZM429.474 29.112C429.26 29.112 429.095 29.0533 428.978 28.936C428.871 28.8187 428.818 28.6533 428.818 28.44V21.768C428.818 21.5547 428.871 21.3947 428.978 21.288C429.084 21.1707 429.239 21.112 429.442 21.112C429.644 21.112 429.799 21.1707 429.906 21.288C430.023 21.3947 430.082 21.5547 430.082 21.768V23.064H429.922C430.092 22.4347 430.418 21.9493 430.898 21.608C431.378 21.2667 431.97 21.0853 432.674 21.064C432.834 21.0533 432.962 21.0907 433.058 21.176C433.154 21.2507 433.207 21.384 433.218 21.576C433.228 21.7573 433.186 21.9013 433.09 22.008C432.994 22.1147 432.844 22.1787 432.642 22.2L432.386 22.232C431.66 22.296 431.1 22.5307 430.706 22.936C430.322 23.3307 430.13 23.8747 430.13 24.568V28.44C430.13 28.6533 430.071 28.8187 429.954 28.936C429.847 29.0533 429.687 29.112 429.474 29.112ZM437.754 29.144C436.976 29.144 436.304 28.9733 435.738 28.632C435.173 28.2907 434.736 27.816 434.426 27.208C434.128 26.5893 433.978 25.8747 433.978 25.064C433.978 24.4453 434.064 23.8907 434.234 23.4C434.405 22.9093 434.656 22.4933 434.986 22.152C435.317 21.8 435.712 21.5333 436.17 21.352C436.64 21.1707 437.168 21.08 437.754 21.08C438.138 21.08 438.538 21.1387 438.954 21.256C439.37 21.3733 439.749 21.576 440.09 21.864C440.197 21.9387 440.266 22.0293 440.298 22.136C440.33 22.2427 440.33 22.3493 440.298 22.456C440.266 22.552 440.213 22.6373 440.138 22.712C440.064 22.776 439.968 22.8133 439.85 22.824C439.744 22.8347 439.632 22.7973 439.514 22.712C439.237 22.4987 438.954 22.3493 438.666 22.264C438.378 22.1787 438.101 22.136 437.834 22.136C437.418 22.136 437.056 22.2053 436.746 22.344C436.437 22.472 436.176 22.6587 435.962 22.904C435.749 23.1493 435.584 23.4533 435.466 23.816C435.36 24.1787 435.306 24.6 435.306 25.08C435.306 26.008 435.525 26.744 435.962 27.288C436.4 27.8213 437.024 28.088 437.834 28.088C438.101 28.088 438.373 28.0453 438.65 27.96C438.938 27.8747 439.226 27.7253 439.514 27.512C439.632 27.4267 439.744 27.3893 439.85 27.4C439.957 27.4107 440.048 27.4533 440.122 27.528C440.197 27.592 440.245 27.6773 440.266 27.784C440.298 27.8907 440.298 27.9973 440.266 28.104C440.234 28.2 440.165 28.2853 440.058 28.36C439.717 28.6373 439.344 28.84 438.938 28.968C438.533 29.0853 438.138 29.144 437.754 29.144ZM445.212 29.144C444.391 29.144 443.682 28.984 443.084 28.664C442.498 28.3333 442.039 27.8693 441.708 27.272C441.388 26.6747 441.228 25.96 441.228 25.128C441.228 24.3173 441.388 23.6133 441.708 23.016C442.028 22.408 442.466 21.9333 443.02 21.592C443.586 21.2507 444.236 21.08 444.972 21.08C445.495 21.08 445.964 21.1707 446.38 21.352C446.796 21.5227 447.148 21.7733 447.436 22.104C447.735 22.4347 447.959 22.8347 448.108 23.304C448.268 23.7733 448.348 24.3013 448.348 24.888C448.348 25.0587 448.3 25.1867 448.204 25.272C448.108 25.3467 447.97 25.384 447.788 25.384H442.22V24.536H447.484L447.228 24.744C447.228 24.168 447.143 23.6827 446.972 23.288C446.802 22.8827 446.551 22.5733 446.22 22.36C445.9 22.1467 445.495 22.04 445.004 22.04C444.46 22.04 443.996 22.168 443.612 22.424C443.239 22.6693 442.956 23.016 442.764 23.464C442.572 23.9013 442.476 24.4133 442.476 25V25.096C442.476 26.0773 442.711 26.824 443.18 27.336C443.66 27.848 444.338 28.104 445.212 28.104C445.575 28.104 445.932 28.056 446.284 27.96C446.647 27.864 446.999 27.704 447.34 27.48C447.49 27.384 447.623 27.3413 447.74 27.352C447.868 27.352 447.97 27.3893 448.044 27.464C448.119 27.528 448.167 27.6133 448.188 27.72C448.22 27.816 448.21 27.9227 448.156 28.04C448.114 28.1573 448.023 28.2587 447.884 28.344C447.532 28.6 447.116 28.7973 446.636 28.936C446.156 29.0747 445.682 29.144 445.212 29.144ZM450.864 29.112C450.651 29.112 450.491 29.0533 450.384 28.936C450.277 28.8187 450.224 28.6533 450.224 28.44V21.768C450.224 21.5547 450.277 21.3947 450.384 21.288C450.491 21.1707 450.645 21.112 450.848 21.112C451.051 21.112 451.205 21.1707 451.312 21.288C451.429 21.3947 451.488 21.5547 451.488 21.768V23.144L451.312 22.952C451.536 22.3333 451.899 21.8693 452.4 21.56C452.912 21.24 453.499 21.08 454.16 21.08C454.779 21.08 455.291 21.192 455.696 21.416C456.112 21.64 456.421 21.9813 456.624 22.44C456.827 22.888 456.928 23.4587 456.928 24.152V28.44C456.928 28.6533 456.869 28.8187 456.752 28.936C456.645 29.0533 456.491 29.112 456.288 29.112C456.075 29.112 455.909 29.0533 455.792 28.936C455.685 28.8187 455.632 28.6533 455.632 28.44V24.232C455.632 23.5067 455.488 22.9787 455.2 22.648C454.923 22.3067 454.475 22.136 453.856 22.136C453.141 22.136 452.571 22.36 452.144 22.808C451.728 23.2453 451.52 23.832 451.52 24.568V28.44C451.52 28.888 451.301 29.112 450.864 29.112ZM462.438 29.144C461.83 29.144 461.318 29.0373 460.902 28.824C460.496 28.6 460.192 28.28 459.99 27.864C459.787 27.4373 459.686 26.92 459.686 26.312V22.232H458.614C458.432 22.232 458.294 22.1893 458.198 22.104C458.102 22.008 458.054 21.88 458.054 21.72C458.054 21.56 458.102 21.4373 458.198 21.352C458.294 21.2667 458.432 21.224 458.614 21.224H459.686V19.384C459.686 19.1707 459.744 19.0107 459.862 18.904C459.979 18.7867 460.139 18.728 460.342 18.728C460.544 18.728 460.699 18.7867 460.806 18.904C460.923 19.0107 460.982 19.1707 460.982 19.384V21.224H462.998C463.179 21.224 463.318 21.2667 463.414 21.352C463.51 21.4373 463.558 21.56 463.558 21.72C463.558 21.88 463.51 22.008 463.414 22.104C463.318 22.1893 463.179 22.232 462.998 22.232H460.982V26.184C460.982 26.792 461.11 27.256 461.366 27.576C461.622 27.8853 462.038 28.04 462.614 28.04C462.816 28.04 462.987 28.0187 463.126 27.976C463.275 27.9333 463.398 27.912 463.494 27.912C463.59 27.9013 463.67 27.9333 463.734 28.008C463.798 28.0827 463.83 28.2107 463.83 28.392C463.83 28.52 463.803 28.6373 463.75 28.744C463.707 28.8507 463.627 28.9253 463.51 28.968C463.382 29.0107 463.211 29.048 462.998 29.08C462.795 29.1227 462.608 29.144 462.438 29.144Z" fill="#444444"/>
<rect x="397.25" y="0.25" width="78.5" height="47.5" rx="7.75" stroke="#1A1A1A" stroke-width="0.5"/>
<path d="M392.5 26C392.5 28.3163 394.25 30.2238 396.5 30.4725L396.5 26L396.5 21.5275C394.25 21.7762 392.5 23.6837 392.5 26Z" fill="#2C2C2C" stroke="#2C2C2C"/>
<path d="M372.168 26L371.899 25.578L372.022 25.5H372.168V26ZM346.891 42.488C346.622 42.428 346.452 42.1609 346.512 41.8913L347.49 37.4989C347.55 37.2294 347.817 37.0595 348.087 37.1195C348.356 37.1796 348.526 37.4467 348.466 37.7163L347.597 41.6206L351.501 42.4901C351.771 42.5501 351.94 42.8173 351.88 43.0868C351.82 43.3564 351.553 43.5262 351.284 43.4662L346.891 42.488ZM392 26.5H372.168V25.5H392V26.5ZM372.436 26.422L347.268 42.422L346.732 41.578L371.899 25.578L372.436 26.422Z" fill="#2C2C2C"/>
</svg>
