<svg width="405" height="16" viewBox="0 0 405 16" fill="none" xmlns="http://www.w3.org/2000/svg">
<path d="M1.29289 7.29291C0.902368 7.68344 0.902368 8.3166 1.29289 8.70713L7.65685 15.0711C8.04738 15.4616 8.68054 15.4616 9.07107 15.0711C9.46159 14.6806 9.46159 14.0474 9.07107 13.6569L3.41421 8.00002L9.07107 2.34316C9.46159 1.95264 9.46159 1.31947 9.07107 0.92895C8.68054 0.538426 8.04738 0.538426 7.65685 0.92895L1.29289 7.29291ZM404.207 8.70711C404.598 8.31658 404.598 7.68342 404.207 7.29289L397.843 0.928933C397.453 0.538408 396.819 0.538408 396.429 0.928933C396.038 1.31946 396.038 1.95262 396.429 2.34315L402.086 8L396.429 13.6569C396.038 14.0474 396.038 14.6805 396.429 15.0711C396.819 15.4616 397.453 15.4616 397.843 15.0711L404.207 8.70711ZM2 9.00002L403.5 9L403.5 7L2 7.00002L2 9.00002Z" fill="#1CB9D9"/>
<path d="M404 1V15" stroke="#1CB9D9"/>
<path d="M1 1.00002V15" stroke="#1CB9D9"/>
</svg>
