<svg width="404" height="16" viewBox="0 0 404 16" fill="none" xmlns="http://www.w3.org/2000/svg">
<path d="M1.2929 7.29289C0.902377 7.68341 0.902377 8.31658 1.2929 8.7071L7.65686 15.0711C8.04739 15.4616 8.68055 15.4616 9.07108 15.0711C9.4616 14.6805 9.4616 14.0474 9.07108 13.6568L3.41422 7.99999L9.07108 2.34314C9.4616 1.95261 9.4616 1.31945 9.07108 0.928926C8.68055 0.538401 8.04739 0.538401 7.65686 0.928926L1.2929 7.29289ZM403.207 8.70711C403.598 8.31658 403.598 7.68342 403.207 7.29289L396.843 0.928931C396.453 0.538407 395.819 0.538407 395.429 0.928931C395.038 1.31946 395.038 1.95262 395.429 2.34315L401.086 8L395.429 13.6569C395.038 14.0474 395.038 14.6805 395.429 15.0711C395.819 15.4616 396.453 15.4616 396.843 15.0711L403.207 8.70711ZM2.00001 8.99999L402.5 9L402.5 7L2.00001 6.99999L2.00001 8.99999Z" fill="#D97A1A"/>
<path d="M403 1V15" stroke="#D97A1A"/>
<path d="M1 1V15" stroke="#D97A1A"/>
</svg>
