<svg width="27" height="28" viewBox="0 0 27 28" fill="none" xmlns="http://www.w3.org/2000/svg">
<path d="M3.56102 21.14C3.30768 21.14 3.11435 21.0733 2.98102 20.94C2.84768 20.7933 2.78102 20.5867 2.78102 20.32V7.6C2.78102 7.33333 2.84768 7.12667 2.98102 6.98C3.11435 6.83333 3.28768 6.76 3.50102 6.76C3.71435 6.76 3.86768 6.8 3.96102 6.88C4.06768 6.94667 4.18768 7.07333 4.32102 7.26L13.041 18.88H12.561V7.56C12.561 7.30667 12.6277 7.11333 12.761 6.98C12.8943 6.83333 13.0877 6.76 13.341 6.76C13.581 6.76 13.761 6.83333 13.881 6.98C14.0143 7.11333 14.081 7.30667 14.081 7.56V20.34C14.081 20.5933 14.021 20.7933 13.901 20.94C13.7943 21.0733 13.6343 21.14 13.421 21.14C13.221 21.14 13.061 21.1 12.941 21.02C12.821 20.94 12.6943 20.8133 12.561 20.64L3.86102 9.02H4.32102V20.32C4.32102 20.5867 4.25435 20.7933 4.12102 20.94C3.98768 21.0733 3.80102 21.14 3.56102 21.14ZM21.4057 21.18C20.459 21.18 19.639 20.9733 18.9457 20.56C18.2524 20.1467 17.7124 19.5667 17.3257 18.82C16.9524 18.06 16.7657 17.1667 16.7657 16.14C16.7657 15.3667 16.8724 14.6733 17.0857 14.06C17.299 13.4333 17.6124 12.9 18.0257 12.46C18.439 12.02 18.9257 11.6867 19.4857 11.46C20.059 11.22 20.699 11.1 21.4057 11.1C22.3524 11.1 23.1724 11.3067 23.8657 11.72C24.559 12.1333 25.0924 12.72 25.4657 13.48C25.8524 14.2267 26.0457 15.1133 26.0457 16.14C26.0457 16.9133 25.939 17.6067 25.7257 18.22C25.5124 18.8333 25.199 19.3667 24.7857 19.82C24.3724 20.26 23.879 20.6 23.3057 20.84C22.7457 21.0667 22.1124 21.18 21.4057 21.18ZM21.4057 19.88C22.0057 19.88 22.5324 19.7333 22.9857 19.44C23.439 19.1467 23.7857 18.72 24.0257 18.16C24.279 17.6 24.4057 16.9267 24.4057 16.14C24.4057 14.9267 24.1324 14 23.5857 13.36C23.0524 12.72 22.3257 12.4 21.4057 12.4C20.7924 12.4 20.259 12.5467 19.8057 12.84C19.3657 13.12 19.019 13.54 18.7657 14.1C18.5257 14.6467 18.4057 15.3267 18.4057 16.14C18.4057 17.34 18.679 18.2667 19.2257 18.92C19.7724 19.56 20.499 19.88 21.4057 19.88Z" fill="#212121"/>
</svg>
