<svg width="32" height="28" viewBox="0 0 32 28" fill="none" xmlns="http://www.w3.org/2000/svg">
<path d="M7.15727 21.14C6.8906 21.14 6.68393 21.0667 6.53727 20.92C6.40393 20.76 6.33727 20.54 6.33727 20.26V13.7L6.69727 14.84L1.67727 7.92C1.55727 7.74667 1.49727 7.57333 1.49727 7.4C1.5106 7.21333 1.58393 7.06 1.71727 6.94C1.8506 6.82 2.02393 6.76 2.23727 6.76C2.42393 6.76 2.5906 6.80667 2.73727 6.9C2.88393 6.98 3.01727 7.11333 3.13727 7.3L7.39727 13.18H6.97727L11.2373 7.3C11.3839 7.1 11.5239 6.96 11.6573 6.88C11.7906 6.8 11.9506 6.76 12.1373 6.76C12.3506 6.76 12.5173 6.82 12.6373 6.94C12.7573 7.04667 12.8173 7.19333 12.8173 7.38C12.8306 7.55333 12.7706 7.74 12.6373 7.94L7.63727 14.84L7.97727 13.7V20.26C7.97727 20.8467 7.70393 21.14 7.15727 21.14ZM17.4293 21.18C16.4026 21.18 15.516 20.98 14.7693 20.58C14.036 20.1667 13.4626 19.5867 13.0493 18.84C12.6493 18.0933 12.4493 17.2 12.4493 16.16C12.4493 15.1467 12.6493 14.2667 13.0493 13.52C13.4493 12.76 13.996 12.1667 14.6893 11.74C15.396 11.3133 16.2093 11.1 17.1293 11.1C17.7826 11.1 18.3693 11.2133 18.8893 11.44C19.4093 11.6533 19.8493 11.9667 20.2093 12.38C20.5826 12.7933 20.8626 13.2933 21.0493 13.88C21.2493 14.4667 21.3493 15.1267 21.3493 15.86C21.3493 16.0733 21.2893 16.2333 21.1693 16.34C21.0493 16.4333 20.876 16.48 20.6493 16.48H13.6893V15.42H20.2693L19.9493 15.68C19.9493 14.96 19.8426 14.3533 19.6293 13.86C19.416 13.3533 19.1026 12.9667 18.6893 12.7C18.2893 12.4333 17.7826 12.3 17.1693 12.3C16.4893 12.3 15.9093 12.46 15.4293 12.78C14.9626 13.0867 14.6093 13.52 14.3693 14.08C14.1293 14.6267 14.0093 15.2667 14.0093 16V16.12C14.0093 17.3467 14.3026 18.28 14.8893 18.92C15.4893 19.56 16.336 19.88 17.4293 19.88C17.8826 19.88 18.3293 19.82 18.7693 19.7C19.2226 19.58 19.6626 19.38 20.0893 19.1C20.276 18.98 20.4426 18.9267 20.5893 18.94C20.7493 18.94 20.876 18.9867 20.9693 19.08C21.0626 19.16 21.1226 19.2667 21.1493 19.4C21.1893 19.52 21.176 19.6533 21.1093 19.8C21.056 19.9467 20.9426 20.0733 20.7693 20.18C20.3293 20.5 19.8093 20.7467 19.2093 20.92C18.6093 21.0933 18.016 21.18 17.4293 21.18ZM26.9738 21.18C26.3738 21.18 25.7672 21.1067 25.1538 20.96C24.5538 20.8133 23.9938 20.56 23.4738 20.2C23.3405 20.1067 23.2472 20 23.1938 19.88C23.1405 19.7467 23.1205 19.62 23.1338 19.5C23.1605 19.3667 23.2138 19.2533 23.2938 19.16C23.3872 19.0667 23.4938 19.0133 23.6138 19C23.7472 18.9733 23.8938 19 24.0538 19.08C24.5738 19.4 25.0738 19.6267 25.5538 19.76C26.0472 19.88 26.5338 19.94 27.0138 19.94C27.7738 19.94 28.3472 19.8 28.7338 19.52C29.1205 19.24 29.3138 18.86 29.3138 18.38C29.3138 18.0067 29.1872 17.7133 28.9338 17.5C28.6805 17.2733 28.2805 17.1 27.7338 16.98L25.9138 16.58C25.0738 16.4067 24.4472 16.1067 24.0338 15.68C23.6338 15.2533 23.4338 14.7 23.4338 14.02C23.4338 13.42 23.5872 12.9067 23.8938 12.48C24.2138 12.04 24.6605 11.7 25.2338 11.46C25.8072 11.22 26.4738 11.1 27.2338 11.1C27.8205 11.1 28.3738 11.18 28.8938 11.34C29.4272 11.4867 29.9072 11.7267 30.3338 12.06C30.4672 12.1533 30.5538 12.2667 30.5938 12.4C30.6472 12.52 30.6538 12.6467 30.6138 12.78C30.5872 12.9 30.5272 13.0067 30.4338 13.1C30.3405 13.18 30.2272 13.2267 30.0938 13.24C29.9605 13.2533 29.8205 13.2133 29.6738 13.12C29.2738 12.8533 28.8672 12.66 28.4538 12.54C28.0405 12.4067 27.6338 12.34 27.2338 12.34C26.4872 12.34 25.9205 12.4867 25.5338 12.78C25.1472 13.0733 24.9538 13.46 24.9538 13.94C24.9538 14.3133 25.0738 14.62 25.3138 14.86C25.5538 15.1 25.9272 15.2733 26.4338 15.38L28.2538 15.76C29.1205 15.9467 29.7672 16.2467 30.1938 16.66C30.6338 17.06 30.8538 17.6067 30.8538 18.3C30.8538 19.18 30.5005 19.88 29.7938 20.4C29.0872 20.92 28.1472 21.18 26.9738 21.18Z" fill="#212121"/>
</svg>
