<svg width="561" height="84" viewBox="0 0 561 84" fill="none" xmlns="http://www.w3.org/2000/svg">
<path d="M2.0843 15.16C1.7643 15.16 1.5043 15.0867 1.3043 14.94C1.11763 14.7933 1.0043 14.6 0.964297 14.36C0.924297 14.1067 0.970964 13.8267 1.1043 13.52L6.3843 1.82C6.55763 1.43333 6.7643 1.16 7.0043 0.999999C7.25763 0.826666 7.5443 0.739999 7.8643 0.739999C8.17096 0.739999 8.4443 0.826666 8.6843 0.999999C8.93763 1.16 9.15096 1.43333 9.3243 1.82L14.6243 13.52C14.771 13.8267 14.8243 14.1067 14.7843 14.36C14.7443 14.6133 14.631 14.8133 14.4443 14.96C14.2576 15.0933 14.011 15.16 13.7043 15.16C13.331 15.16 13.0376 15.0733 12.8243 14.9C12.6243 14.7133 12.4443 14.4333 12.2843 14.06L10.9843 11.04L12.0643 11.74H3.6243L4.7043 11.04L3.4243 14.06C3.25096 14.4467 3.07096 14.7267 2.8843 14.9C2.69763 15.0733 2.43096 15.16 2.0843 15.16ZM7.8243 3.68L5.0243 10.34L4.5043 9.7H11.1843L10.6843 10.34L7.8643 3.68H7.8243ZM23.2568 18.76C22.8568 18.76 22.5501 18.6533 22.3368 18.44C22.1235 18.2267 22.0168 17.9133 22.0168 17.5V6.32C22.0168 5.90667 22.1235 5.59333 22.3368 5.38C22.5501 5.16667 22.8501 5.06 23.2368 5.06C23.6368 5.06 23.9435 5.16667 24.1568 5.38C24.3701 5.59333 24.4768 5.90667 24.4768 6.32V7.88L24.2568 7.28C24.4568 6.6 24.8635 6.05333 25.4768 5.64C26.1035 5.22667 26.8301 5.02 27.6568 5.02C28.5101 5.02 29.2568 5.22667 29.8968 5.64C30.5501 6.05333 31.0568 6.64 31.4168 7.4C31.7768 8.14667 31.9568 9.04667 31.9568 10.1C31.9568 11.14 31.7768 12.0467 31.4168 12.82C31.0568 13.58 30.5568 14.1667 29.9168 14.58C29.2768 14.9933 28.5235 15.2 27.6568 15.2C26.8435 15.2 26.1301 15 25.5168 14.6C24.9035 14.1867 24.4901 13.6533 24.2768 13H24.5168V17.5C24.5168 17.9133 24.4035 18.2267 24.1768 18.44C23.9635 18.6533 23.6568 18.76 23.2568 18.76ZM26.9568 13.3C27.4501 13.3 27.8835 13.18 28.2568 12.94C28.6301 12.7 28.9168 12.3467 29.1168 11.88C29.3301 11.4 29.4368 10.8067 29.4368 10.1C29.4368 9.03333 29.2101 8.24 28.7568 7.72C28.3035 7.18667 27.7035 6.92 26.9568 6.92C26.4635 6.92 26.0301 7.04 25.6568 7.28C25.2835 7.50667 24.9901 7.86 24.7768 8.34C24.5768 8.80667 24.4768 9.39333 24.4768 10.1C24.4768 11.1533 24.7035 11.9533 25.1568 12.5C25.6101 13.0333 26.2101 13.3 26.9568 13.3ZM38.469 15.2C37.4557 15.2 36.5757 14.9933 35.829 14.58C35.0823 14.1667 34.5023 13.58 34.089 12.82C33.6757 12.0467 33.469 11.14 33.469 10.1C33.469 9.31333 33.5823 8.61333 33.809 8C34.049 7.37333 34.389 6.84 34.829 6.4C35.269 5.94667 35.7957 5.60667 36.409 5.38C37.0223 5.14 37.709 5.02 38.469 5.02C39.4823 5.02 40.3623 5.22667 41.109 5.64C41.8557 6.05333 42.4357 6.64 42.849 7.4C43.2623 8.16 43.469 9.06 43.469 10.1C43.469 10.8867 43.349 11.5933 43.109 12.22C42.8823 12.8467 42.549 13.3867 42.109 13.84C41.669 14.28 41.1423 14.62 40.529 14.86C39.9157 15.0867 39.229 15.2 38.469 15.2ZM38.469 13.3C38.9623 13.3 39.3957 13.18 39.769 12.94C40.1423 12.7 40.429 12.3467 40.629 11.88C40.8423 11.4 40.949 10.8067 40.949 10.1C40.949 9.03333 40.7223 8.24 40.269 7.72C39.8157 7.18667 39.2157 6.92 38.469 6.92C37.9757 6.92 37.5423 7.04 37.169 7.28C36.7957 7.50667 36.5023 7.86 36.289 8.34C36.089 8.80667 35.989 9.39333 35.989 10.1C35.989 11.1533 36.2157 11.9533 36.669 12.5C37.1223 13.0333 37.7223 13.3 38.469 13.3ZM49.1124 15.2C48.5391 15.2 47.9324 15.14 47.2924 15.02C46.6524 14.9 46.0791 14.6933 45.5724 14.4C45.3591 14.2667 45.2058 14.1133 45.1124 13.94C45.0324 13.7533 44.9991 13.5733 45.0124 13.4C45.0391 13.2133 45.1058 13.0533 45.2124 12.92C45.3324 12.7867 45.4791 12.7 45.6524 12.66C45.8391 12.62 46.0391 12.6533 46.2524 12.76C46.7858 13.0133 47.2858 13.1933 47.7524 13.3C48.2191 13.3933 48.6791 13.44 49.1324 13.44C49.7724 13.44 50.2458 13.3333 50.5524 13.12C50.8724 12.8933 51.0324 12.6 51.0324 12.24C51.0324 11.9333 50.9258 11.7 50.7124 11.54C50.5124 11.3667 50.2058 11.24 49.7924 11.16L47.7924 10.78C46.9658 10.62 46.3324 10.32 45.8924 9.88C45.4658 9.42667 45.2524 8.84667 45.2524 8.14C45.2524 7.5 45.4258 6.94667 45.7724 6.48C46.1324 6.01333 46.6258 5.65333 47.2524 5.4C47.8791 5.14667 48.5991 5.02 49.4124 5.02C49.9991 5.02 50.5458 5.08667 51.0524 5.22C51.5724 5.34 52.0724 5.53333 52.5524 5.8C52.7524 5.90667 52.8858 6.04667 52.9524 6.22C53.0324 6.39333 53.0524 6.57333 53.0124 6.76C52.9724 6.93333 52.8924 7.09333 52.7724 7.24C52.6524 7.37333 52.4991 7.46 52.3124 7.5C52.1391 7.52667 51.9391 7.48667 51.7124 7.38C51.2991 7.16667 50.8991 7.01333 50.5124 6.92C50.1391 6.82667 49.7791 6.78 49.4324 6.78C48.7791 6.78 48.2924 6.89333 47.9724 7.12C47.6658 7.34667 47.5124 7.64667 47.5124 8.02C47.5124 8.3 47.6058 8.53333 47.7924 8.72C47.9791 8.90667 48.2658 9.03333 48.6524 9.1L50.6524 9.48C51.5191 9.64 52.1724 9.93333 52.6124 10.36C53.0658 10.7867 53.2924 11.36 53.2924 12.08C53.2924 13.0533 52.9124 13.82 52.1524 14.38C51.3924 14.9267 50.3791 15.2 49.1124 15.2ZM56.538 15.14C56.138 15.14 55.8314 15.02 55.618 14.78C55.4047 14.54 55.298 14.2067 55.298 13.78V6.44C55.298 6 55.4047 5.66667 55.618 5.44C55.8314 5.2 56.138 5.08 56.538 5.08C56.938 5.08 57.2447 5.2 57.458 5.44C57.6847 5.66667 57.798 6 57.798 6.44V13.78C57.798 14.2067 57.6914 14.54 57.478 14.78C57.2647 15.02 56.9514 15.14 56.538 15.14ZM56.538 3.22C56.0714 3.22 55.7047 3.10667 55.438 2.88C55.1847 2.64 55.058 2.31333 55.058 1.9C55.058 1.47333 55.1847 1.14667 55.438 0.919999C55.7047 0.693333 56.0714 0.58 56.538 0.58C57.018 0.58 57.3847 0.693333 57.638 0.919999C57.8914 1.14667 58.018 1.47333 58.018 1.9C58.018 2.31333 57.8914 2.64 57.638 2.88C57.3847 3.10667 57.018 3.22 56.538 3.22ZM64.8757 15.2C64.009 15.2 63.2824 15.0533 62.6957 14.76C62.1224 14.4667 61.6957 14.04 61.4157 13.48C61.1357 12.9067 60.9957 12.2 60.9957 11.36V7.1H59.9557C59.6357 7.1 59.389 7.02 59.2157 6.86C59.0424 6.68667 58.9557 6.45333 58.9557 6.16C58.9557 5.85333 59.0424 5.62 59.2157 5.46C59.389 5.3 59.6357 5.22 59.9557 5.22H60.9957V3.4C60.9957 2.98667 61.1024 2.67333 61.3157 2.46C61.5424 2.24667 61.8557 2.14 62.2557 2.14C62.6557 2.14 62.9624 2.24667 63.1757 2.46C63.389 2.67333 63.4957 2.98667 63.4957 3.4V5.22H65.6157C65.9357 5.22 66.1824 5.3 66.3557 5.46C66.529 5.62 66.6157 5.85333 66.6157 6.16C66.6157 6.45333 66.529 6.68667 66.3557 6.86C66.1824 7.02 65.9357 7.1 65.6157 7.1H63.4957V11.22C63.4957 11.86 63.6357 12.34 63.9157 12.66C64.1957 12.98 64.649 13.14 65.2757 13.14C65.5024 13.14 65.7024 13.12 65.8757 13.08C66.049 13.04 66.2024 13.0133 66.3357 13C66.4957 12.9867 66.629 13.04 66.7357 13.16C66.8424 13.2667 66.8957 13.4933 66.8957 13.84C66.8957 14.1067 66.849 14.3467 66.7557 14.56C66.6757 14.76 66.5224 14.9 66.2957 14.98C66.1224 15.0333 65.8957 15.08 65.6157 15.12C65.3357 15.1733 65.089 15.2 64.8757 15.2ZM69.5654 15.14C69.1654 15.14 68.8587 15.02 68.6454 14.78C68.4321 14.54 68.3254 14.2067 68.3254 13.78V6.44C68.3254 6 68.4321 5.66667 68.6454 5.44C68.8587 5.2 69.1654 5.08 69.5654 5.08C69.9654 5.08 70.2721 5.2 70.4854 5.44C70.7121 5.66667 70.8254 6 70.8254 6.44V13.78C70.8254 14.2067 70.7187 14.54 70.5054 14.78C70.2921 15.02 69.9787 15.14 69.5654 15.14ZM69.5654 3.22C69.0987 3.22 68.7321 3.10667 68.4654 2.88C68.2121 2.64 68.0854 2.31333 68.0854 1.9C68.0854 1.47333 68.2121 1.14667 68.4654 0.919999C68.7321 0.693333 69.0987 0.58 69.5654 0.58C70.0454 0.58 70.4121 0.693333 70.6654 0.919999C70.9187 1.14667 71.0454 1.47333 71.0454 1.9C71.0454 2.31333 70.9187 2.64 70.6654 2.88C70.4121 3.10667 70.0454 3.22 69.5654 3.22ZM77.383 15.16C77.0497 15.16 76.7564 15.0733 76.503 14.9C76.263 14.7267 76.063 14.46 75.903 14.1L72.723 6.72C72.603 6.42667 72.5564 6.15333 72.583 5.9C72.623 5.64667 72.743 5.44667 72.943 5.3C73.1564 5.14 73.443 5.06 73.803 5.06C74.1097 5.06 74.3564 5.13333 74.543 5.28C74.7297 5.41333 74.8964 5.67333 75.043 6.06L77.743 12.8H77.143L79.923 6.04C80.0697 5.66667 80.2364 5.41333 80.423 5.28C80.623 5.13333 80.8897 5.06 81.223 5.06C81.5164 5.06 81.7497 5.14 81.923 5.3C82.0964 5.44667 82.203 5.64667 82.243 5.9C82.283 6.14 82.2364 6.40667 82.103 6.7L78.863 14.1C78.7164 14.46 78.5164 14.7267 78.263 14.9C78.023 15.0733 77.7297 15.16 77.383 15.16ZM88.5946 15.2C87.4879 15.2 86.5346 14.9933 85.7346 14.58C84.9346 14.1667 84.3146 13.58 83.8746 12.82C83.4479 12.06 83.2346 11.16 83.2346 10.12C83.2346 9.10667 83.4413 8.22 83.8546 7.46C84.2813 6.7 84.8613 6.10667 85.5946 5.68C86.3413 5.24 87.1879 5.02 88.1346 5.02C88.8279 5.02 89.4479 5.13333 89.9946 5.36C90.5546 5.58667 91.0279 5.91333 91.4146 6.34C91.8146 6.76667 92.1146 7.28667 92.3146 7.9C92.5279 8.5 92.6346 9.18 92.6346 9.94C92.6346 10.18 92.5479 10.3667 92.3746 10.5C92.2146 10.62 91.9813 10.68 91.6746 10.68H85.2546V9.24H90.8746L90.5546 9.54C90.5546 8.92667 90.4613 8.41333 90.2746 8C90.1013 7.58667 89.8413 7.27333 89.4946 7.06C89.1613 6.83333 88.7413 6.72 88.2346 6.72C87.6746 6.72 87.1946 6.85333 86.7946 7.12C86.4079 7.37333 86.1079 7.74 85.8946 8.22C85.6946 8.68667 85.5946 9.24667 85.5946 9.9V10.04C85.5946 11.1333 85.8479 11.9533 86.3546 12.5C86.8746 13.0333 87.6346 13.3 88.6346 13.3C88.9813 13.3 89.3679 13.26 89.7946 13.18C90.2346 13.0867 90.6479 12.9333 91.0346 12.72C91.3146 12.56 91.5613 12.4933 91.7746 12.52C91.9879 12.5333 92.1546 12.6067 92.2746 12.74C92.4079 12.8733 92.4879 13.04 92.5146 13.24C92.5413 13.4267 92.5013 13.62 92.3946 13.82C92.3013 14.02 92.1346 14.1933 91.8946 14.34C91.4279 14.6333 90.8879 14.8533 90.2746 15C89.6746 15.1333 89.1146 15.2 88.5946 15.2ZM103.624 15.2C103.051 15.2 102.444 15.14 101.804 15.02C101.164 14.9 100.591 14.6933 100.084 14.4C99.8708 14.2667 99.7175 14.1133 99.6241 13.94C99.5441 13.7533 99.5108 13.5733 99.5241 13.4C99.5508 13.2133 99.6175 13.0533 99.7241 12.92C99.8441 12.7867 99.9908 12.7 100.164 12.66C100.351 12.62 100.551 12.6533 100.764 12.76C101.297 13.0133 101.797 13.1933 102.264 13.3C102.731 13.3933 103.191 13.44 103.644 13.44C104.284 13.44 104.757 13.3333 105.064 13.12C105.384 12.8933 105.544 12.6 105.544 12.24C105.544 11.9333 105.437 11.7 105.224 11.54C105.024 11.3667 104.717 11.24 104.304 11.16L102.304 10.78C101.477 10.62 100.844 10.32 100.404 9.88C99.9775 9.42667 99.7641 8.84667 99.7641 8.14C99.7641 7.5 99.9375 6.94667 100.284 6.48C100.644 6.01333 101.137 5.65333 101.764 5.4C102.391 5.14667 103.111 5.02 103.924 5.02C104.511 5.02 105.057 5.08667 105.564 5.22C106.084 5.34 106.584 5.53333 107.064 5.8C107.264 5.90667 107.397 6.04667 107.464 6.22C107.544 6.39333 107.564 6.57333 107.524 6.76C107.484 6.93333 107.404 7.09333 107.284 7.24C107.164 7.37333 107.011 7.46 106.824 7.5C106.651 7.52667 106.451 7.48667 106.224 7.38C105.811 7.16667 105.411 7.01333 105.024 6.92C104.651 6.82667 104.291 6.78 103.944 6.78C103.291 6.78 102.804 6.89333 102.484 7.12C102.177 7.34667 102.024 7.64667 102.024 8.02C102.024 8.3 102.117 8.53333 102.304 8.72C102.491 8.90667 102.777 9.03333 103.164 9.1L105.164 9.48C106.031 9.64 106.684 9.93333 107.124 10.36C107.577 10.7867 107.804 11.36 107.804 12.08C107.804 13.0533 107.424 13.82 106.664 14.38C105.904 14.9267 104.891 15.2 103.624 15.2ZM113.15 15.2C112.043 15.2 111.21 14.8867 110.65 14.26C110.09 13.62 109.81 12.6867 109.81 11.46V2C109.81 1.58667 109.916 1.27333 110.13 1.06C110.343 0.846666 110.65 0.739999 111.05 0.739999C111.45 0.739999 111.756 0.846666 111.97 1.06C112.196 1.27333 112.31 1.58667 112.31 2V11.34C112.31 11.9533 112.436 12.4067 112.69 12.7C112.956 12.9933 113.33 13.14 113.81 13.14C113.916 13.14 114.016 13.14 114.11 13.14C114.203 13.1267 114.296 13.1133 114.39 13.1C114.576 13.0733 114.703 13.1267 114.77 13.26C114.836 13.38 114.87 13.6333 114.87 14.02C114.87 14.3533 114.803 14.6133 114.67 14.8C114.536 14.9867 114.316 15.1 114.01 15.14C113.876 15.1533 113.736 15.1667 113.59 15.18C113.443 15.1933 113.296 15.2 113.15 15.2ZM120.559 15.2C119.545 15.2 118.665 14.9933 117.919 14.58C117.172 14.1667 116.592 13.58 116.179 12.82C115.765 12.0467 115.559 11.14 115.559 10.1C115.559 9.31333 115.672 8.61333 115.899 8C116.139 7.37333 116.479 6.84 116.919 6.4C117.359 5.94667 117.885 5.60667 118.499 5.38C119.112 5.14 119.799 5.02 120.559 5.02C121.572 5.02 122.452 5.22667 123.199 5.64C123.945 6.05333 124.525 6.64 124.939 7.4C125.352 8.16 125.559 9.06 125.559 10.1C125.559 10.8867 125.439 11.5933 125.199 12.22C124.972 12.8467 124.639 13.3867 124.199 13.84C123.759 14.28 123.232 14.62 122.619 14.86C122.005 15.0867 121.319 15.2 120.559 15.2ZM120.559 13.3C121.052 13.3 121.485 13.18 121.859 12.94C122.232 12.7 122.519 12.3467 122.719 11.88C122.932 11.4 123.039 10.8067 123.039 10.1C123.039 9.03333 122.812 8.24 122.359 7.72C121.905 7.18667 121.305 6.92 120.559 6.92C120.065 6.92 119.632 7.04 119.259 7.28C118.885 7.50667 118.592 7.86 118.379 8.34C118.179 8.80667 118.079 9.39333 118.079 10.1C118.079 11.1533 118.305 11.9533 118.759 12.5C119.212 13.0333 119.812 13.3 120.559 13.3ZM128.862 18.76C128.462 18.76 128.156 18.6533 127.942 18.44C127.729 18.2267 127.622 17.9133 127.622 17.5V6.32C127.622 5.90667 127.729 5.59333 127.942 5.38C128.156 5.16667 128.456 5.06 128.842 5.06C129.242 5.06 129.549 5.16667 129.762 5.38C129.976 5.59333 130.082 5.90667 130.082 6.32V7.88L129.862 7.28C130.062 6.6 130.469 6.05333 131.082 5.64C131.709 5.22667 132.436 5.02 133.262 5.02C134.116 5.02 134.862 5.22667 135.502 5.64C136.156 6.05333 136.662 6.64 137.022 7.4C137.382 8.14667 137.562 9.04667 137.562 10.1C137.562 11.14 137.382 12.0467 137.022 12.82C136.662 13.58 136.162 14.1667 135.522 14.58C134.882 14.9933 134.129 15.2 133.262 15.2C132.449 15.2 131.736 15 131.122 14.6C130.509 14.1867 130.096 13.6533 129.882 13H130.122V17.5C130.122 17.9133 130.009 18.2267 129.782 18.44C129.569 18.6533 129.262 18.76 128.862 18.76ZM132.562 13.3C133.056 13.3 133.489 13.18 133.862 12.94C134.236 12.7 134.522 12.3467 134.722 11.88C134.936 11.4 135.042 10.8067 135.042 10.1C135.042 9.03333 134.816 8.24 134.362 7.72C133.909 7.18667 133.309 6.92 132.562 6.92C132.069 6.92 131.636 7.04 131.262 7.28C130.889 7.50667 130.596 7.86 130.382 8.34C130.182 8.80667 130.082 9.39333 130.082 10.1C130.082 11.1533 130.309 11.9533 130.762 12.5C131.216 13.0333 131.816 13.3 132.562 13.3ZM144.434 15.2C143.328 15.2 142.374 14.9933 141.574 14.58C140.774 14.1667 140.154 13.58 139.714 12.82C139.288 12.06 139.074 11.16 139.074 10.12C139.074 9.10667 139.281 8.22 139.694 7.46C140.121 6.7 140.701 6.10667 141.434 5.68C142.181 5.24 143.028 5.02 143.974 5.02C144.668 5.02 145.288 5.13333 145.834 5.36C146.394 5.58667 146.868 5.91333 147.254 6.34C147.654 6.76667 147.954 7.28667 148.154 7.9C148.368 8.5 148.474 9.18 148.474 9.94C148.474 10.18 148.388 10.3667 148.214 10.5C148.054 10.62 147.821 10.68 147.514 10.68H141.094V9.24H146.714L146.394 9.54C146.394 8.92667 146.301 8.41333 146.114 8C145.941 7.58667 145.681 7.27333 145.334 7.06C145.001 6.83333 144.581 6.72 144.074 6.72C143.514 6.72 143.034 6.85333 142.634 7.12C142.248 7.37333 141.948 7.74 141.734 8.22C141.534 8.68667 141.434 9.24667 141.434 9.9V10.04C141.434 11.1333 141.688 11.9533 142.194 12.5C142.714 13.0333 143.474 13.3 144.474 13.3C144.821 13.3 145.208 13.26 145.634 13.18C146.074 13.0867 146.488 12.9333 146.874 12.72C147.154 12.56 147.401 12.4933 147.614 12.52C147.828 12.5333 147.994 12.6067 148.114 12.74C148.248 12.8733 148.328 13.04 148.354 13.24C148.381 13.4267 148.341 13.62 148.234 13.82C148.141 14.02 147.974 14.1933 147.734 14.34C147.268 14.6333 146.728 14.8533 146.114 15C145.514 15.1333 144.954 15.2 144.434 15.2ZM157.164 15.16C156.764 15.16 156.457 15.0533 156.244 14.84C156.031 14.6133 155.924 14.2933 155.924 13.88V6.32C155.924 5.90667 156.031 5.59333 156.244 5.38C156.457 5.16667 156.757 5.06 157.144 5.06C157.531 5.06 157.831 5.16667 158.044 5.38C158.257 5.59333 158.364 5.90667 158.364 6.32V7.78L158.144 7.18C158.411 6.51333 158.824 5.98667 159.384 5.6C159.944 5.21333 160.611 5.02 161.384 5.02C162.171 5.02 162.817 5.20667 163.324 5.58C163.831 5.95333 164.184 6.52667 164.384 7.3H164.104C164.371 6.59333 164.811 6.04 165.424 5.64C166.037 5.22667 166.744 5.02 167.544 5.02C168.291 5.02 168.904 5.16667 169.384 5.46C169.877 5.75333 170.244 6.2 170.484 6.8C170.724 7.38667 170.844 8.13333 170.844 9.04V13.88C170.844 14.2933 170.731 14.6133 170.504 14.84C170.291 15.0533 169.984 15.16 169.584 15.16C169.184 15.16 168.877 15.0533 168.664 14.84C168.451 14.6133 168.344 14.2933 168.344 13.88V9.14C168.344 8.39333 168.217 7.84667 167.964 7.5C167.724 7.15333 167.311 6.98 166.724 6.98C166.071 6.98 165.557 7.21333 165.184 7.68C164.811 8.13333 164.624 8.76667 164.624 9.58V13.88C164.624 14.2933 164.517 14.6133 164.304 14.84C164.091 15.0533 163.784 15.16 163.384 15.16C162.984 15.16 162.671 15.0533 162.444 14.84C162.231 14.6133 162.124 14.2933 162.124 13.88V9.14C162.124 8.39333 161.997 7.84667 161.744 7.5C161.504 7.15333 161.097 6.98 160.524 6.98C159.871 6.98 159.357 7.21333 158.984 7.68C158.611 8.13333 158.424 8.76667 158.424 9.58V13.88C158.424 14.7333 158.004 15.16 157.164 15.16ZM177.883 15.2C176.87 15.2 175.99 14.9933 175.243 14.58C174.496 14.1667 173.916 13.58 173.503 12.82C173.09 12.0467 172.883 11.14 172.883 10.1C172.883 9.31333 172.996 8.61333 173.223 8C173.463 7.37333 173.803 6.84 174.243 6.4C174.683 5.94667 175.21 5.60667 175.823 5.38C176.436 5.14 177.123 5.02 177.883 5.02C178.896 5.02 179.776 5.22667 180.523 5.64C181.27 6.05333 181.85 6.64 182.263 7.4C182.676 8.16 182.883 9.06 182.883 10.1C182.883 10.8867 182.763 11.5933 182.523 12.22C182.296 12.8467 181.963 13.3867 181.523 13.84C181.083 14.28 180.556 14.62 179.943 14.86C179.33 15.0867 178.643 15.2 177.883 15.2ZM177.883 13.3C178.376 13.3 178.81 13.18 179.183 12.94C179.556 12.7 179.843 12.3467 180.043 11.88C180.256 11.4 180.363 10.8067 180.363 10.1C180.363 9.03333 180.136 8.24 179.683 7.72C179.23 7.18667 178.63 6.92 177.883 6.92C177.39 6.92 176.956 7.04 176.583 7.28C176.21 7.50667 175.916 7.86 175.703 8.34C175.503 8.80667 175.403 9.39333 175.403 10.1C175.403 11.1533 175.63 11.9533 176.083 12.5C176.536 13.0333 177.136 13.3 177.883 13.3ZM188.711 15.16C188.378 15.16 188.085 15.0733 187.831 14.9C187.591 14.7267 187.391 14.46 187.231 14.1L184.051 6.72C183.931 6.42667 183.885 6.15333 183.911 5.9C183.951 5.64667 184.071 5.44667 184.271 5.3C184.485 5.14 184.771 5.06 185.131 5.06C185.438 5.06 185.685 5.13333 185.871 5.28C186.058 5.41333 186.225 5.67333 186.371 6.06L189.071 12.8H188.471L191.251 6.04C191.398 5.66667 191.565 5.41333 191.751 5.28C191.951 5.13333 192.218 5.06 192.551 5.06C192.845 5.06 193.078 5.14 193.251 5.3C193.425 5.44667 193.531 5.64667 193.571 5.9C193.611 6.14 193.565 6.40667 193.431 6.7L190.191 14.1C190.045 14.46 189.845 14.7267 189.591 14.9C189.351 15.0733 189.058 15.16 188.711 15.16ZM199.923 15.2C198.816 15.2 197.863 14.9933 197.063 14.58C196.263 14.1667 195.643 13.58 195.203 12.82C194.776 12.06 194.563 11.16 194.563 10.12C194.563 9.10667 194.769 8.22 195.183 7.46C195.609 6.7 196.189 6.10667 196.923 5.68C197.669 5.24 198.516 5.02 199.463 5.02C200.156 5.02 200.776 5.13333 201.323 5.36C201.883 5.58667 202.356 5.91333 202.743 6.34C203.143 6.76667 203.443 7.28667 203.643 7.9C203.856 8.5 203.963 9.18 203.963 9.94C203.963 10.18 203.876 10.3667 203.703 10.5C203.543 10.62 203.309 10.68 203.003 10.68H196.583V9.24H202.203L201.883 9.54C201.883 8.92667 201.789 8.41333 201.603 8C201.429 7.58667 201.169 7.27333 200.823 7.06C200.489 6.83333 200.069 6.72 199.563 6.72C199.003 6.72 198.523 6.85333 198.123 7.12C197.736 7.37333 197.436 7.74 197.223 8.22C197.023 8.68667 196.923 9.24667 196.923 9.9V10.04C196.923 11.1333 197.176 11.9533 197.683 12.5C198.203 13.0333 198.963 13.3 199.963 13.3C200.309 13.3 200.696 13.26 201.123 13.18C201.563 13.0867 201.976 12.9333 202.363 12.72C202.643 12.56 202.889 12.4933 203.103 12.52C203.316 12.5333 203.483 12.6067 203.603 12.74C203.736 12.8733 203.816 13.04 203.843 13.24C203.869 13.4267 203.829 13.62 203.723 13.82C203.629 14.02 203.463 14.1933 203.223 14.34C202.756 14.6333 202.216 14.8533 201.603 15C201.003 15.1333 200.443 15.2 199.923 15.2ZM209.523 15.2C208.949 15.2 208.343 15.14 207.703 15.02C207.063 14.9 206.489 14.6933 205.983 14.4C205.769 14.2667 205.616 14.1133 205.523 13.94C205.443 13.7533 205.409 13.5733 205.423 13.4C205.449 13.2133 205.516 13.0533 205.623 12.92C205.743 12.7867 205.889 12.7 206.063 12.66C206.249 12.62 206.449 12.6533 206.663 12.76C207.196 13.0133 207.696 13.1933 208.163 13.3C208.629 13.3933 209.089 13.44 209.543 13.44C210.183 13.44 210.656 13.3333 210.963 13.12C211.283 12.8933 211.443 12.6 211.443 12.24C211.443 11.9333 211.336 11.7 211.123 11.54C210.923 11.3667 210.616 11.24 210.203 11.16L208.203 10.78C207.376 10.62 206.743 10.32 206.303 9.88C205.876 9.42667 205.663 8.84667 205.663 8.14C205.663 7.5 205.836 6.94667 206.183 6.48C206.543 6.01333 207.036 5.65333 207.663 5.4C208.289 5.14667 209.009 5.02 209.823 5.02C210.409 5.02 210.956 5.08667 211.463 5.22C211.983 5.34 212.483 5.53333 212.963 5.8C213.163 5.90667 213.296 6.04667 213.363 6.22C213.443 6.39333 213.463 6.57333 213.423 6.76C213.383 6.93333 213.303 7.09333 213.183 7.24C213.063 7.37333 212.909 7.46 212.723 7.5C212.549 7.52667 212.349 7.48667 212.123 7.38C211.709 7.16667 211.309 7.01333 210.923 6.92C210.549 6.82667 210.189 6.78 209.843 6.78C209.189 6.78 208.703 6.89333 208.383 7.12C208.076 7.34667 207.923 7.64667 207.923 8.02C207.923 8.3 208.016 8.53333 208.203 8.72C208.389 8.90667 208.676 9.03333 209.063 9.1L211.063 9.48C211.929 9.64 212.583 9.93333 213.023 10.36C213.476 10.7867 213.703 11.36 213.703 12.08C213.703 13.0533 213.323 13.82 212.563 14.38C211.803 14.9267 210.789 15.2 209.523 15.2ZM224.678 15.2C223.865 15.2 223.191 15.0533 222.658 14.76C222.125 14.4533 221.725 14 221.458 13.4C221.205 12.8 221.078 12.0533 221.078 11.16V6.32C221.078 5.89333 221.185 5.58 221.398 5.38C221.611 5.16667 221.918 5.06 222.318 5.06C222.718 5.06 223.025 5.16667 223.238 5.38C223.465 5.58 223.578 5.89333 223.578 6.32V11.2C223.578 11.8933 223.718 12.4067 223.998 12.74C224.278 13.0733 224.725 13.24 225.338 13.24C226.005 13.24 226.551 13.0133 226.978 12.56C227.405 12.0933 227.618 11.48 227.618 10.72V6.32C227.618 5.89333 227.725 5.58 227.938 5.38C228.151 5.16667 228.458 5.06 228.858 5.06C229.258 5.06 229.565 5.16667 229.778 5.38C230.005 5.58 230.118 5.89333 230.118 6.32V13.88C230.118 14.7333 229.711 15.16 228.898 15.16C228.511 15.16 228.211 15.0533 227.998 14.84C227.785 14.6133 227.678 14.2933 227.678 13.88V12.36L227.958 12.96C227.678 13.68 227.251 14.2333 226.678 14.62C226.118 15.0067 225.451 15.2 224.678 15.2ZM233.96 18.76C233.56 18.76 233.253 18.6533 233.04 18.44C232.827 18.2267 232.72 17.9133 232.72 17.5V6.32C232.72 5.90667 232.827 5.59333 233.04 5.38C233.253 5.16667 233.553 5.06 233.94 5.06C234.34 5.06 234.647 5.16667 234.86 5.38C235.073 5.59333 235.18 5.90667 235.18 6.32V7.88L234.96 7.28C235.16 6.6 235.567 6.05333 236.18 5.64C236.807 5.22667 237.533 5.02 238.36 5.02C239.213 5.02 239.96 5.22667 240.6 5.64C241.253 6.05333 241.76 6.64 242.12 7.4C242.48 8.14667 242.66 9.04667 242.66 10.1C242.66 11.14 242.48 12.0467 242.12 12.82C241.76 13.58 241.26 14.1667 240.62 14.58C239.98 14.9933 239.227 15.2 238.36 15.2C237.547 15.2 236.833 15 236.22 14.6C235.607 14.1867 235.193 13.6533 234.98 13H235.22V17.5C235.22 17.9133 235.107 18.2267 234.88 18.44C234.667 18.6533 234.36 18.76 233.96 18.76ZM237.66 13.3C238.153 13.3 238.587 13.18 238.96 12.94C239.333 12.7 239.62 12.3467 239.82 11.88C240.033 11.4 240.14 10.8067 240.14 10.1C240.14 9.03333 239.913 8.24 239.46 7.72C239.007 7.18667 238.407 6.92 237.66 6.92C237.167 6.92 236.733 7.04 236.36 7.28C235.987 7.50667 235.693 7.86 235.48 8.34C235.28 8.80667 235.18 9.39333 235.18 10.1C235.18 11.1533 235.407 11.9533 235.86 12.5C236.313 13.0333 236.913 13.3 237.66 13.3ZM248.297 15.16C247.963 15.16 247.677 15.08 247.437 14.92C247.197 14.7467 247.003 14.48 246.857 14.12L243.957 6.72C243.837 6.4 243.797 6.12 243.837 5.88C243.89 5.62667 244.017 5.42667 244.217 5.28C244.417 5.13333 244.683 5.06 245.017 5.06C245.31 5.06 245.55 5.13333 245.737 5.28C245.923 5.41333 246.083 5.67333 246.217 6.06L248.637 12.72H248.177L250.677 5.9C250.783 5.60667 250.923 5.39333 251.097 5.26C251.283 5.12667 251.523 5.06 251.817 5.06C252.11 5.06 252.35 5.13333 252.537 5.28C252.723 5.41333 252.863 5.62 252.957 5.9L255.417 12.72H254.997L257.437 6C257.57 5.64 257.737 5.39333 257.937 5.26C258.15 5.12667 258.383 5.06 258.637 5.06C258.957 5.06 259.203 5.14 259.377 5.3C259.55 5.46 259.65 5.66667 259.677 5.92C259.703 6.16 259.657 6.42667 259.537 6.72L256.657 14.12C256.523 14.4667 256.33 14.7267 256.077 14.9C255.837 15.0733 255.55 15.16 255.217 15.16C254.883 15.16 254.59 15.0733 254.337 14.9C254.097 14.7267 253.91 14.4667 253.777 14.12L251.157 7.18H252.297L249.737 14.1C249.603 14.46 249.417 14.7267 249.177 14.9C248.937 15.0733 248.643 15.16 248.297 15.16ZM264.592 15.2C263.886 15.2 263.252 15.0667 262.692 14.8C262.146 14.52 261.712 14.1467 261.392 13.68C261.086 13.2133 260.932 12.6867 260.932 12.1C260.932 11.38 261.119 10.8133 261.492 10.4C261.866 9.97333 262.472 9.66667 263.312 9.48C264.152 9.29333 265.279 9.2 266.692 9.2H267.692V10.64H266.712C265.886 10.64 265.226 10.68 264.732 10.76C264.239 10.84 263.886 10.98 263.672 11.18C263.472 11.3667 263.372 11.6333 263.372 11.98C263.372 12.42 263.526 12.78 263.832 13.06C264.139 13.34 264.566 13.48 265.112 13.48C265.552 13.48 265.939 13.38 266.272 13.18C266.619 12.9667 266.892 12.68 267.092 12.32C267.292 11.96 267.392 11.5467 267.392 11.08V8.78C267.392 8.11333 267.246 7.63333 266.952 7.34C266.659 7.04667 266.166 6.9 265.472 6.9C265.086 6.9 264.666 6.94667 264.212 7.04C263.772 7.13333 263.306 7.29333 262.812 7.52C262.559 7.64 262.332 7.67333 262.132 7.62C261.946 7.56667 261.799 7.46 261.692 7.3C261.586 7.12667 261.532 6.94 261.532 6.74C261.532 6.54 261.586 6.34667 261.692 6.16C261.799 5.96 261.979 5.81333 262.232 5.72C262.846 5.46667 263.432 5.28667 263.992 5.18C264.566 5.07333 265.086 5.02 265.552 5.02C266.512 5.02 267.299 5.16667 267.912 5.46C268.539 5.75333 269.006 6.2 269.312 6.8C269.619 7.38667 269.772 8.14667 269.772 9.08V13.88C269.772 14.2933 269.672 14.6133 269.472 14.84C269.272 15.0533 268.986 15.16 268.612 15.16C268.239 15.16 267.946 15.0533 267.732 14.84C267.532 14.6133 267.432 14.2933 267.432 13.88V12.92H267.592C267.499 13.3867 267.312 13.7933 267.032 14.14C266.766 14.4733 266.426 14.7333 266.012 14.92C265.599 15.1067 265.126 15.2 264.592 15.2ZM273.59 15.16C273.176 15.16 272.856 15.0533 272.63 14.84C272.416 14.6133 272.31 14.2933 272.31 13.88V6.32C272.31 5.90667 272.416 5.59333 272.63 5.38C272.843 5.16667 273.143 5.06 273.53 5.06C273.916 5.06 274.216 5.16667 274.43 5.38C274.643 5.59333 274.75 5.90667 274.75 6.32V7.58H274.55C274.736 6.78 275.103 6.17333 275.65 5.76C276.196 5.34667 276.923 5.1 277.83 5.02C278.11 4.99333 278.33 5.06667 278.49 5.24C278.663 5.4 278.763 5.65333 278.79 6C278.816 6.33333 278.736 6.60667 278.55 6.82C278.376 7.02 278.11 7.14 277.75 7.18L277.31 7.22C276.496 7.3 275.883 7.55333 275.47 7.98C275.056 8.39333 274.85 8.98 274.85 9.74V13.88C274.85 14.2933 274.743 14.6133 274.53 14.84C274.316 15.0533 274.003 15.16 273.59 15.16ZM283.746 15.2C282.892 15.2 282.139 14.9933 281.486 14.58C280.846 14.1667 280.346 13.58 279.986 12.82C279.626 12.0467 279.446 11.14 279.446 10.1C279.446 9.04667 279.626 8.14667 279.986 7.4C280.346 6.64 280.846 6.05333 281.486 5.64C282.139 5.22667 282.892 5.02 283.746 5.02C284.559 5.02 285.266 5.22 285.866 5.62C286.479 6.02 286.892 6.54667 287.106 7.2H286.886V2C286.886 1.58667 286.992 1.27333 287.206 1.06C287.419 0.846666 287.726 0.739999 288.126 0.739999C288.526 0.739999 288.832 0.846666 289.046 1.06C289.272 1.27333 289.386 1.58667 289.386 2V13.88C289.386 14.2933 289.279 14.6133 289.066 14.84C288.852 15.0533 288.546 15.16 288.146 15.16C287.746 15.16 287.439 15.0533 287.226 14.84C287.012 14.6133 286.906 14.2933 286.906 13.88V12.32L287.126 12.92C286.926 13.6133 286.519 14.1667 285.906 14.58C285.292 14.9933 284.572 15.2 283.746 15.2ZM284.446 13.3C284.939 13.3 285.372 13.18 285.746 12.94C286.119 12.7 286.406 12.3467 286.606 11.88C286.819 11.4 286.926 10.8067 286.926 10.1C286.926 9.03333 286.699 8.24 286.246 7.72C285.792 7.18667 285.192 6.92 284.446 6.92C283.952 6.92 283.519 7.04 283.146 7.28C282.772 7.50667 282.479 7.86 282.266 8.34C282.066 8.80667 281.966 9.39333 281.966 10.1C281.966 11.1533 282.192 11.9533 282.646 12.5C283.099 13.0333 283.699 13.3 284.446 13.3ZM301.867 15.2C300.854 15.2 299.974 14.9933 299.227 14.58C298.481 14.1667 297.901 13.58 297.487 12.82C297.074 12.0467 296.867 11.14 296.867 10.1C296.867 9.31333 296.981 8.61333 297.207 8C297.447 7.37333 297.787 6.84 298.227 6.4C298.667 5.94667 299.194 5.60667 299.807 5.38C300.421 5.14 301.107 5.02 301.867 5.02C302.881 5.02 303.761 5.22667 304.507 5.64C305.254 6.05333 305.834 6.64 306.247 7.4C306.661 8.16 306.867 9.06 306.867 10.1C306.867 10.8867 306.747 11.5933 306.507 12.22C306.281 12.8467 305.947 13.3867 305.507 13.84C305.067 14.28 304.541 14.62 303.927 14.86C303.314 15.0867 302.627 15.2 301.867 15.2ZM301.867 13.3C302.361 13.3 302.794 13.18 303.167 12.94C303.541 12.7 303.827 12.3467 304.027 11.88C304.241 11.4 304.347 10.8067 304.347 10.1C304.347 9.03333 304.121 8.24 303.667 7.72C303.214 7.18667 302.614 6.92 301.867 6.92C301.374 6.92 300.941 7.04 300.567 7.28C300.194 7.50667 299.901 7.86 299.687 8.34C299.487 8.80667 299.387 9.39333 299.387 10.1C299.387 11.1533 299.614 11.9533 300.067 12.5C300.521 13.0333 301.121 13.3 301.867 13.3ZM310.171 15.16C309.771 15.16 309.464 15.0533 309.251 14.84C309.038 14.6133 308.931 14.2933 308.931 13.88V6.32C308.931 5.90667 309.038 5.59333 309.251 5.38C309.464 5.16667 309.764 5.06 310.151 5.06C310.538 5.06 310.838 5.16667 311.051 5.38C311.264 5.59333 311.371 5.90667 311.371 6.32V7.68L311.151 7.18C311.444 6.47333 311.898 5.94 312.511 5.58C313.138 5.20667 313.844 5.02 314.631 5.02C315.418 5.02 316.064 5.16667 316.571 5.46C317.078 5.75333 317.458 6.2 317.711 6.8C317.964 7.38667 318.091 8.13333 318.091 9.04V13.88C318.091 14.2933 317.984 14.6133 317.771 14.84C317.558 15.0533 317.251 15.16 316.851 15.16C316.451 15.16 316.138 15.0533 315.911 14.84C315.698 14.6133 315.591 14.2933 315.591 13.88V9.16C315.591 8.4 315.444 7.84667 315.151 7.5C314.871 7.15333 314.431 6.98 313.831 6.98C313.098 6.98 312.511 7.21333 312.071 7.68C311.644 8.13333 311.431 8.74 311.431 9.5V13.88C311.431 14.7333 311.011 15.16 310.171 15.16ZM329.28 15.2C328.573 15.2 327.94 15.0667 327.38 14.8C326.833 14.52 326.4 14.1467 326.08 13.68C325.773 13.2133 325.62 12.6867 325.62 12.1C325.62 11.38 325.806 10.8133 326.18 10.4C326.553 9.97333 327.16 9.66667 328 9.48C328.84 9.29333 329.966 9.2 331.38 9.2H332.38V10.64H331.4C330.573 10.64 329.913 10.68 329.42 10.76C328.926 10.84 328.573 10.98 328.36 11.18C328.16 11.3667 328.06 11.6333 328.06 11.98C328.06 12.42 328.213 12.78 328.52 13.06C328.826 13.34 329.253 13.48 329.8 13.48C330.24 13.48 330.626 13.38 330.96 13.18C331.306 12.9667 331.58 12.68 331.78 12.32C331.98 11.96 332.08 11.5467 332.08 11.08V8.78C332.08 8.11333 331.933 7.63333 331.64 7.34C331.346 7.04667 330.853 6.9 330.16 6.9C329.773 6.9 329.353 6.94667 328.9 7.04C328.46 7.13333 327.993 7.29333 327.5 7.52C327.246 7.64 327.02 7.67333 326.82 7.62C326.633 7.56667 326.486 7.46 326.38 7.3C326.273 7.12667 326.22 6.94 326.22 6.74C326.22 6.54 326.273 6.34667 326.38 6.16C326.486 5.96 326.666 5.81333 326.92 5.72C327.533 5.46667 328.12 5.28667 328.68 5.18C329.253 5.07333 329.773 5.02 330.24 5.02C331.2 5.02 331.986 5.16667 332.6 5.46C333.226 5.75333 333.693 6.2 334 6.8C334.306 7.38667 334.46 8.14667 334.46 9.08V13.88C334.46 14.2933 334.36 14.6133 334.16 14.84C333.96 15.0533 333.673 15.16 333.3 15.16C332.926 15.16 332.633 15.0533 332.42 14.84C332.22 14.6133 332.12 14.2933 332.12 13.88V12.92H332.28C332.186 13.3867 332 13.7933 331.72 14.14C331.453 14.4733 331.113 14.7333 330.7 14.92C330.286 15.1067 329.813 15.2 329.28 15.2ZM346.987 18.8C346.267 18.8 345.567 18.7333 344.887 18.6C344.22 18.4667 343.614 18.26 343.067 17.98C342.814 17.8467 342.64 17.6867 342.547 17.5C342.467 17.3133 342.44 17.12 342.467 16.92C342.507 16.7333 342.587 16.5667 342.707 16.42C342.84 16.2733 343 16.1733 343.187 16.12C343.374 16.0667 343.567 16.0933 343.767 16.2C344.354 16.4933 344.907 16.68 345.427 16.76C345.96 16.8533 346.414 16.9 346.787 16.9C347.68 16.9 348.347 16.68 348.787 16.24C349.24 15.8133 349.467 15.1733 349.467 14.32V12.52H349.647C349.447 13.2 349.027 13.7467 348.387 14.16C347.76 14.56 347.047 14.76 346.247 14.76C345.367 14.76 344.6 14.56 343.947 14.16C343.294 13.7467 342.787 13.1733 342.427 12.44C342.067 11.7067 341.887 10.8533 341.887 9.88C341.887 9.14667 341.987 8.48667 342.187 7.9C342.4 7.3 342.694 6.78667 343.067 6.36C343.454 5.93333 343.914 5.60667 344.447 5.38C344.994 5.14 345.594 5.02 346.247 5.02C347.074 5.02 347.794 5.22667 348.407 5.64C349.034 6.04 349.44 6.57333 349.627 7.24L349.427 7.74V6.32C349.427 5.90667 349.534 5.59333 349.747 5.38C349.974 5.16667 350.28 5.06 350.667 5.06C351.067 5.06 351.374 5.16667 351.587 5.38C351.8 5.59333 351.907 5.90667 351.907 6.32V14.02C351.907 15.6067 351.487 16.8 350.647 17.6C349.807 18.4 348.587 18.8 346.987 18.8ZM346.927 12.86C347.447 12.86 347.894 12.74 348.267 12.5C348.64 12.26 348.927 11.92 349.127 11.48C349.34 11.0267 349.447 10.4933 349.447 9.88C349.447 8.96 349.22 8.24 348.767 7.72C348.314 7.18667 347.7 6.92 346.927 6.92C346.407 6.92 345.96 7.04 345.587 7.28C345.214 7.52 344.92 7.86 344.707 8.3C344.507 8.74 344.407 9.26667 344.407 9.88C344.407 10.8 344.634 11.5267 345.087 12.06C345.54 12.5933 346.154 12.86 346.927 12.86ZM355.777 15.16C355.364 15.16 355.044 15.0533 354.817 14.84C354.604 14.6133 354.497 14.2933 354.497 13.88V6.32C354.497 5.90667 354.604 5.59333 354.817 5.38C355.031 5.16667 355.331 5.06 355.717 5.06C356.104 5.06 356.404 5.16667 356.617 5.38C356.831 5.59333 356.937 5.90667 356.937 6.32V7.58H356.737C356.924 6.78 357.291 6.17333 357.837 5.76C358.384 5.34667 359.111 5.1 360.017 5.02C360.297 4.99333 360.517 5.06667 360.677 5.24C360.851 5.4 360.951 5.65333 360.977 6C361.004 6.33333 360.924 6.60667 360.737 6.82C360.564 7.02 360.297 7.14 359.937 7.18L359.497 7.22C358.684 7.3 358.071 7.55333 357.657 7.98C357.244 8.39333 357.037 8.98 357.037 9.74V13.88C357.037 14.2933 356.931 14.6133 356.717 14.84C356.504 15.0533 356.191 15.16 355.777 15.16ZM365.452 15.2C364.745 15.2 364.112 15.0667 363.552 14.8C363.005 14.52 362.572 14.1467 362.252 13.68C361.945 13.2133 361.792 12.6867 361.792 12.1C361.792 11.38 361.978 10.8133 362.352 10.4C362.725 9.97333 363.332 9.66667 364.172 9.48C365.012 9.29333 366.138 9.2 367.552 9.2H368.552V10.64H367.572C366.745 10.64 366.085 10.68 365.592 10.76C365.098 10.84 364.745 10.98 364.532 11.18C364.332 11.3667 364.232 11.6333 364.232 11.98C364.232 12.42 364.385 12.78 364.692 13.06C364.998 13.34 365.425 13.48 365.972 13.48C366.412 13.48 366.798 13.38 367.132 13.18C367.478 12.9667 367.752 12.68 367.952 12.32C368.152 11.96 368.252 11.5467 368.252 11.08V8.78C368.252 8.11333 368.105 7.63333 367.812 7.34C367.518 7.04667 367.025 6.9 366.332 6.9C365.945 6.9 365.525 6.94667 365.072 7.04C364.632 7.13333 364.165 7.29333 363.672 7.52C363.418 7.64 363.192 7.67333 362.992 7.62C362.805 7.56667 362.658 7.46 362.552 7.3C362.445 7.12667 362.392 6.94 362.392 6.74C362.392 6.54 362.445 6.34667 362.552 6.16C362.658 5.96 362.838 5.81333 363.092 5.72C363.705 5.46667 364.292 5.28667 364.852 5.18C365.425 5.07333 365.945 5.02 366.412 5.02C367.372 5.02 368.158 5.16667 368.772 5.46C369.398 5.75333 369.865 6.2 370.172 6.8C370.478 7.38667 370.632 8.14667 370.632 9.08V13.88C370.632 14.2933 370.532 14.6133 370.332 14.84C370.132 15.0533 369.845 15.16 369.472 15.16C369.098 15.16 368.805 15.0533 368.592 14.84C368.392 14.6133 368.292 14.2933 368.292 13.88V12.92H368.452C368.358 13.3867 368.172 13.7933 367.892 14.14C367.625 14.4733 367.285 14.7333 366.872 14.92C366.458 15.1067 365.985 15.2 365.452 15.2ZM374.409 18.76C374.009 18.76 373.702 18.6533 373.489 18.44C373.276 18.2267 373.169 17.9133 373.169 17.5V6.32C373.169 5.90667 373.276 5.59333 373.489 5.38C373.702 5.16667 374.002 5.06 374.389 5.06C374.789 5.06 375.096 5.16667 375.309 5.38C375.522 5.59333 375.629 5.90667 375.629 6.32V7.88L375.409 7.28C375.609 6.6 376.016 6.05333 376.629 5.64C377.256 5.22667 377.982 5.02 378.809 5.02C379.662 5.02 380.409 5.22667 381.049 5.64C381.702 6.05333 382.209 6.64 382.569 7.4C382.929 8.14667 383.109 9.04667 383.109 10.1C383.109 11.14 382.929 12.0467 382.569 12.82C382.209 13.58 381.709 14.1667 381.069 14.58C380.429 14.9933 379.676 15.2 378.809 15.2C377.996 15.2 377.282 15 376.669 14.6C376.056 14.1867 375.642 13.6533 375.429 13H375.669V17.5C375.669 17.9133 375.556 18.2267 375.329 18.44C375.116 18.6533 374.809 18.76 374.409 18.76ZM378.109 13.3C378.602 13.3 379.036 13.18 379.409 12.94C379.782 12.7 380.069 12.3467 380.269 11.88C380.482 11.4 380.589 10.8067 380.589 10.1C380.589 9.03333 380.362 8.24 379.909 7.72C379.456 7.18667 378.856 6.92 378.109 6.92C377.616 6.92 377.182 7.04 376.809 7.28C376.436 7.50667 376.142 7.86 375.929 8.34C375.729 8.80667 375.629 9.39333 375.629 10.1C375.629 11.1533 375.856 11.9533 376.309 12.5C376.762 13.0333 377.362 13.3 378.109 13.3ZM386.401 15.16C386.001 15.16 385.695 15.0533 385.481 14.84C385.268 14.6133 385.161 14.2933 385.161 13.88V2C385.161 1.58667 385.268 1.27333 385.481 1.06C385.695 0.846666 386.001 0.739999 386.401 0.739999C386.801 0.739999 387.108 0.846666 387.321 1.06C387.548 1.27333 387.661 1.58667 387.661 2V7.18H387.381C387.675 6.47333 388.128 5.94 388.741 5.58C389.368 5.20667 390.075 5.02 390.861 5.02C391.648 5.02 392.295 5.16667 392.801 5.46C393.308 5.75333 393.688 6.2 393.941 6.8C394.195 7.38667 394.321 8.13333 394.321 9.04V13.88C394.321 14.2933 394.215 14.6133 394.001 14.84C393.788 15.0533 393.481 15.16 393.081 15.16C392.681 15.16 392.368 15.0533 392.141 14.84C391.928 14.6133 391.821 14.2933 391.821 13.88V9.16C391.821 8.4 391.675 7.84667 391.381 7.5C391.101 7.15333 390.661 6.98 390.061 6.98C389.328 6.98 388.741 7.21333 388.301 7.68C387.875 8.13333 387.661 8.74 387.661 9.5V13.88C387.661 14.7333 387.241 15.16 386.401 15.16ZM404.21 15.16C403.81 15.16 403.497 15.0533 403.27 14.84C403.057 14.6133 402.95 14.2933 402.95 13.88V7.1H402.03C401.71 7.1 401.464 7.02 401.29 6.86C401.117 6.68667 401.03 6.45333 401.03 6.16C401.03 5.85333 401.117 5.62 401.29 5.46C401.464 5.3 401.71 5.22 402.03 5.22H403.67L402.95 5.88V5.2C402.95 3.82667 403.297 2.8 403.99 2.12C404.684 1.42667 405.684 1.02 406.99 0.899999L407.67 0.84C407.937 0.813333 408.15 0.859999 408.31 0.979999C408.47 1.08667 408.577 1.23333 408.63 1.42C408.684 1.59333 408.69 1.77333 408.65 1.96C408.61 2.14667 408.524 2.31333 408.39 2.46C408.27 2.59333 408.11 2.66667 407.91 2.68L407.63 2.7C406.87 2.75333 406.317 2.94667 405.97 3.28C405.624 3.61333 405.45 4.12 405.45 4.8V5.54L405.13 5.22H407.15C407.47 5.22 407.717 5.3 407.89 5.46C408.064 5.62 408.15 5.85333 408.15 6.16C408.15 6.45333 408.064 6.68667 407.89 6.86C407.717 7.02 407.47 7.1 407.15 7.1H405.45V13.88C405.45 14.7333 405.037 15.16 404.21 15.16ZM410.855 15.16C410.442 15.16 410.122 15.0533 409.895 14.84C409.682 14.6133 409.575 14.2933 409.575 13.88V6.32C409.575 5.90667 409.682 5.59333 409.895 5.38C410.109 5.16667 410.409 5.06 410.795 5.06C411.182 5.06 411.482 5.16667 411.695 5.38C411.909 5.59333 412.015 5.90667 412.015 6.32V7.58H411.815C412.002 6.78 412.369 6.17333 412.915 5.76C413.462 5.34667 414.189 5.1 415.095 5.02C415.375 4.99333 415.595 5.06667 415.755 5.24C415.929 5.4 416.029 5.65333 416.055 6C416.082 6.33333 416.002 6.60667 415.815 6.82C415.642 7.02 415.375 7.14 415.015 7.18L414.575 7.22C413.762 7.3 413.149 7.55333 412.735 7.98C412.322 8.39333 412.115 8.98 412.115 9.74V13.88C412.115 14.2933 412.009 14.6133 411.795 14.84C411.582 15.0533 411.269 15.16 410.855 15.16ZM421.711 15.2C420.698 15.2 419.818 14.9933 419.071 14.58C418.325 14.1667 417.745 13.58 417.331 12.82C416.918 12.0467 416.711 11.14 416.711 10.1C416.711 9.31333 416.825 8.61333 417.051 8C417.291 7.37333 417.631 6.84 418.071 6.4C418.511 5.94667 419.038 5.60667 419.651 5.38C420.265 5.14 420.951 5.02 421.711 5.02C422.725 5.02 423.605 5.22667 424.351 5.64C425.098 6.05333 425.678 6.64 426.091 7.4C426.505 8.16 426.711 9.06 426.711 10.1C426.711 10.8867 426.591 11.5933 426.351 12.22C426.125 12.8467 425.791 13.3867 425.351 13.84C424.911 14.28 424.385 14.62 423.771 14.86C423.158 15.0867 422.471 15.2 421.711 15.2ZM421.711 13.3C422.205 13.3 422.638 13.18 423.011 12.94C423.385 12.7 423.671 12.3467 423.871 11.88C424.085 11.4 424.191 10.8067 424.191 10.1C424.191 9.03333 423.965 8.24 423.511 7.72C423.058 7.18667 422.458 6.92 421.711 6.92C421.218 6.92 420.785 7.04 420.411 7.28C420.038 7.50667 419.745 7.86 419.531 8.34C419.331 8.80667 419.231 9.39333 419.231 10.1C419.231 11.1533 419.458 11.9533 419.911 12.5C420.365 13.0333 420.965 13.3 421.711 13.3ZM430.055 15.16C429.655 15.16 429.348 15.0533 429.135 14.84C428.921 14.6133 428.815 14.2933 428.815 13.88V6.32C428.815 5.90667 428.921 5.59333 429.135 5.38C429.348 5.16667 429.648 5.06 430.035 5.06C430.421 5.06 430.721 5.16667 430.935 5.38C431.148 5.59333 431.255 5.90667 431.255 6.32V7.78L431.035 7.18C431.301 6.51333 431.715 5.98667 432.275 5.6C432.835 5.21333 433.501 5.02 434.275 5.02C435.061 5.02 435.708 5.20667 436.215 5.58C436.721 5.95333 437.075 6.52667 437.275 7.3H436.995C437.261 6.59333 437.701 6.04 438.315 5.64C438.928 5.22667 439.635 5.02 440.435 5.02C441.181 5.02 441.795 5.16667 442.275 5.46C442.768 5.75333 443.135 6.2 443.375 6.8C443.615 7.38667 443.735 8.13333 443.735 9.04V13.88C443.735 14.2933 443.621 14.6133 443.395 14.84C443.181 15.0533 442.875 15.16 442.475 15.16C442.075 15.16 441.768 15.0533 441.555 14.84C441.341 14.6133 441.235 14.2933 441.235 13.88V9.14C441.235 8.39333 441.108 7.84667 440.855 7.5C440.615 7.15333 440.201 6.98 439.615 6.98C438.961 6.98 438.448 7.21333 438.075 7.68C437.701 8.13333 437.515 8.76667 437.515 9.58V13.88C437.515 14.2933 437.408 14.6133 437.195 14.84C436.981 15.0533 436.675 15.16 436.275 15.16C435.875 15.16 435.561 15.0533 435.335 14.84C435.121 14.6133 435.015 14.2933 435.015 13.88V9.14C435.015 8.39333 434.888 7.84667 434.635 7.5C434.395 7.15333 433.988 6.98 433.415 6.98C432.761 6.98 432.248 7.21333 431.875 7.68C431.501 8.13333 431.315 8.76667 431.315 9.58V13.88C431.315 14.7333 430.895 15.16 430.055 15.16ZM455.083 15.2C453.977 15.2 453.143 14.8867 452.583 14.26C452.023 13.62 451.743 12.6867 451.743 11.46V2C451.743 1.58667 451.85 1.27333 452.063 1.06C452.277 0.846666 452.583 0.739999 452.983 0.739999C453.383 0.739999 453.69 0.846666 453.903 1.06C454.13 1.27333 454.243 1.58667 454.243 2V11.34C454.243 11.9533 454.37 12.4067 454.623 12.7C454.89 12.9933 455.263 13.14 455.743 13.14C455.85 13.14 455.95 13.14 456.043 13.14C456.137 13.1267 456.23 13.1133 456.323 13.1C456.51 13.0733 456.637 13.1267 456.703 13.26C456.77 13.38 456.803 13.6333 456.803 14.02C456.803 14.3533 456.737 14.6133 456.603 14.8C456.47 14.9867 456.25 15.1 455.943 15.14C455.81 15.1533 455.67 15.1667 455.523 15.18C455.377 15.1933 455.23 15.2 455.083 15.2ZM462.852 15.2C461.746 15.2 460.792 14.9933 459.992 14.58C459.192 14.1667 458.572 13.58 458.132 12.82C457.706 12.06 457.492 11.16 457.492 10.12C457.492 9.10667 457.699 8.22 458.112 7.46C458.539 6.7 459.119 6.10667 459.852 5.68C460.599 5.24 461.446 5.02 462.392 5.02C463.086 5.02 463.706 5.13333 464.252 5.36C464.812 5.58667 465.286 5.91333 465.672 6.34C466.072 6.76667 466.372 7.28667 466.572 7.9C466.786 8.5 466.892 9.18 466.892 9.94C466.892 10.18 466.806 10.3667 466.632 10.5C466.472 10.62 466.239 10.68 465.932 10.68H459.512V9.24H465.132L464.812 9.54C464.812 8.92667 464.719 8.41333 464.532 8C464.359 7.58667 464.099 7.27333 463.752 7.06C463.419 6.83333 462.999 6.72 462.492 6.72C461.932 6.72 461.452 6.85333 461.052 7.12C460.666 7.37333 460.366 7.74 460.152 8.22C459.952 8.68667 459.852 9.24667 459.852 9.9V10.04C459.852 11.1333 460.106 11.9533 460.612 12.5C461.132 13.0333 461.892 13.3 462.892 13.3C463.239 13.3 463.626 13.26 464.052 13.18C464.492 13.0867 464.906 12.9333 465.292 12.72C465.572 12.56 465.819 12.4933 466.032 12.52C466.246 12.5333 466.412 12.6067 466.532 12.74C466.666 12.8733 466.746 13.04 466.772 13.24C466.799 13.4267 466.759 13.62 466.652 13.82C466.559 14.02 466.392 14.1933 466.152 14.34C465.686 14.6333 465.146 14.8533 464.532 15C463.932 15.1333 463.372 15.2 462.852 15.2ZM470.753 15.16C470.353 15.16 470.04 15.0533 469.813 14.84C469.6 14.6133 469.493 14.2933 469.493 13.88V7.1H468.573C468.253 7.1 468.007 7.02 467.833 6.86C467.66 6.68667 467.573 6.45333 467.573 6.16C467.573 5.85333 467.66 5.62 467.833 5.46C468.007 5.3 468.253 5.22 468.573 5.22H470.213L469.493 5.88V5.2C469.493 3.82667 469.84 2.8 470.533 2.12C471.227 1.42667 472.227 1.02 473.533 0.899999L474.213 0.84C474.48 0.813333 474.693 0.859999 474.853 0.979999C475.013 1.08667 475.12 1.23333 475.173 1.42C475.227 1.59333 475.233 1.77333 475.193 1.96C475.153 2.14667 475.067 2.31333 474.933 2.46C474.813 2.59333 474.653 2.66667 474.453 2.68L474.173 2.7C473.413 2.75333 472.86 2.94667 472.513 3.28C472.167 3.61333 471.993 4.12 471.993 4.8V5.54L471.673 5.22H473.693C474.013 5.22 474.26 5.3 474.433 5.46C474.607 5.62 474.693 5.85333 474.693 6.16C474.693 6.45333 474.607 6.68667 474.433 6.86C474.26 7.02 474.013 7.1 473.693 7.1H471.993V13.88C471.993 14.7333 471.58 15.16 470.753 15.16ZM480.051 15.2C479.185 15.2 478.458 15.0533 477.871 14.76C477.298 14.4667 476.871 14.04 476.591 13.48C476.311 12.9067 476.171 12.2 476.171 11.36V7.1H475.131C474.811 7.1 474.565 7.02 474.391 6.86C474.218 6.68667 474.131 6.45333 474.131 6.16C474.131 5.85333 474.218 5.62 474.391 5.46C474.565 5.3 474.811 5.22 475.131 5.22H476.171V3.4C476.171 2.98667 476.278 2.67333 476.491 2.46C476.718 2.24667 477.031 2.14 477.431 2.14C477.831 2.14 478.138 2.24667 478.351 2.46C478.565 2.67333 478.671 2.98667 478.671 3.4V5.22H480.791C481.111 5.22 481.358 5.3 481.531 5.46C481.705 5.62 481.791 5.85333 481.791 6.16C481.791 6.45333 481.705 6.68667 481.531 6.86C481.358 7.02 481.111 7.1 480.791 7.1H478.671V11.22C478.671 11.86 478.811 12.34 479.091 12.66C479.371 12.98 479.825 13.14 480.451 13.14C480.678 13.14 480.878 13.12 481.051 13.08C481.225 13.04 481.378 13.0133 481.511 13C481.671 12.9867 481.805 13.04 481.911 13.16C482.018 13.2667 482.071 13.4933 482.071 13.84C482.071 14.1067 482.025 14.3467 481.931 14.56C481.851 14.76 481.698 14.9 481.471 14.98C481.298 15.0333 481.071 15.08 480.791 15.12C480.511 15.1733 480.265 15.2 480.051 15.2ZM493.157 15.2C492.29 15.2 491.564 15.0533 490.977 14.76C490.404 14.4667 489.977 14.04 489.697 13.48C489.417 12.9067 489.277 12.2 489.277 11.36V7.1H488.237C487.917 7.1 487.67 7.02 487.497 6.86C487.324 6.68667 487.237 6.45333 487.237 6.16C487.237 5.85333 487.324 5.62 487.497 5.46C487.67 5.3 487.917 5.22 488.237 5.22H489.277V3.4C489.277 2.98667 489.384 2.67333 489.597 2.46C489.824 2.24667 490.137 2.14 490.537 2.14C490.937 2.14 491.244 2.24667 491.457 2.46C491.67 2.67333 491.777 2.98667 491.777 3.4V5.22H493.897C494.217 5.22 494.464 5.3 494.637 5.46C494.81 5.62 494.897 5.85333 494.897 6.16C494.897 6.45333 494.81 6.68667 494.637 6.86C494.464 7.02 494.217 7.1 493.897 7.1H491.777V11.22C491.777 11.86 491.917 12.34 492.197 12.66C492.477 12.98 492.93 13.14 493.557 13.14C493.784 13.14 493.984 13.12 494.157 13.08C494.33 13.04 494.484 13.0133 494.617 13C494.777 12.9867 494.91 13.04 495.017 13.16C495.124 13.2667 495.177 13.4933 495.177 13.84C495.177 14.1067 495.13 14.3467 495.037 14.56C494.957 14.76 494.804 14.9 494.577 14.98C494.404 15.0333 494.177 15.08 493.897 15.12C493.617 15.1733 493.37 15.2 493.157 15.2ZM500.715 15.2C499.702 15.2 498.822 14.9933 498.075 14.58C497.328 14.1667 496.748 13.58 496.335 12.82C495.922 12.0467 495.715 11.14 495.715 10.1C495.715 9.31333 495.828 8.61333 496.055 8C496.295 7.37333 496.635 6.84 497.075 6.4C497.515 5.94667 498.042 5.60667 498.655 5.38C499.268 5.14 499.955 5.02 500.715 5.02C501.728 5.02 502.608 5.22667 503.355 5.64C504.102 6.05333 504.682 6.64 505.095 7.4C505.508 8.16 505.715 9.06 505.715 10.1C505.715 10.8867 505.595 11.5933 505.355 12.22C505.128 12.8467 504.795 13.3867 504.355 13.84C503.915 14.28 503.388 14.62 502.775 14.86C502.162 15.0867 501.475 15.2 500.715 15.2ZM500.715 13.3C501.208 13.3 501.642 13.18 502.015 12.94C502.388 12.7 502.675 12.3467 502.875 11.88C503.088 11.4 503.195 10.8067 503.195 10.1C503.195 9.03333 502.968 8.24 502.515 7.72C502.062 7.18667 501.462 6.92 500.715 6.92C500.222 6.92 499.788 7.04 499.415 7.28C499.042 7.50667 498.748 7.86 498.535 8.34C498.335 8.80667 498.235 9.39333 498.235 10.1C498.235 11.1533 498.462 11.9533 498.915 12.5C499.368 13.0333 499.968 13.3 500.715 13.3ZM514.488 15.16C514.075 15.16 513.755 15.0533 513.528 14.84C513.315 14.6133 513.208 14.2933 513.208 13.88V6.32C513.208 5.90667 513.315 5.59333 513.528 5.38C513.742 5.16667 514.042 5.06 514.428 5.06C514.815 5.06 515.115 5.16667 515.328 5.38C515.542 5.59333 515.648 5.90667 515.648 6.32V7.58H515.448C515.635 6.78 516.002 6.17333 516.548 5.76C517.095 5.34667 517.822 5.1 518.728 5.02C519.008 4.99333 519.228 5.06667 519.388 5.24C519.562 5.4 519.662 5.65333 519.688 6C519.715 6.33333 519.635 6.60667 519.448 6.82C519.275 7.02 519.008 7.14 518.648 7.18L518.208 7.22C517.395 7.3 516.782 7.55333 516.368 7.98C515.955 8.39333 515.748 8.98 515.748 9.74V13.88C515.748 14.2933 515.642 14.6133 515.428 14.84C515.215 15.0533 514.902 15.16 514.488 15.16ZM522.28 15.14C521.88 15.14 521.574 15.02 521.36 14.78C521.147 14.54 521.04 14.2067 521.04 13.78V6.44C521.04 6 521.147 5.66667 521.36 5.44C521.574 5.2 521.88 5.08 522.28 5.08C522.68 5.08 522.987 5.2 523.2 5.44C523.427 5.66667 523.54 6 523.54 6.44V13.78C523.54 14.2067 523.434 14.54 523.22 14.78C523.007 15.02 522.694 15.14 522.28 15.14ZM522.28 3.22C521.814 3.22 521.447 3.10667 521.18 2.88C520.927 2.64 520.8 2.31333 520.8 1.9C520.8 1.47333 520.927 1.14667 521.18 0.919999C521.447 0.693333 521.814 0.58 522.28 0.58C522.76 0.58 523.127 0.693333 523.38 0.919999C523.634 1.14667 523.76 1.47333 523.76 1.9C523.76 2.31333 523.634 2.64 523.38 2.88C523.127 3.10667 522.76 3.22 522.28 3.22ZM530.698 18.8C529.978 18.8 529.278 18.7333 528.598 18.6C527.931 18.4667 527.325 18.26 526.778 17.98C526.525 17.8467 526.351 17.6867 526.258 17.5C526.178 17.3133 526.151 17.12 526.178 16.92C526.218 16.7333 526.298 16.5667 526.418 16.42C526.551 16.2733 526.711 16.1733 526.898 16.12C527.085 16.0667 527.278 16.0933 527.478 16.2C528.065 16.4933 528.618 16.68 529.138 16.76C529.671 16.8533 530.125 16.9 530.498 16.9C531.391 16.9 532.058 16.68 532.498 16.24C532.951 15.8133 533.178 15.1733 533.178 14.32V12.52H533.358C533.158 13.2 532.738 13.7467 532.098 14.16C531.471 14.56 530.758 14.76 529.958 14.76C529.078 14.76 528.311 14.56 527.658 14.16C527.005 13.7467 526.498 13.1733 526.138 12.44C525.778 11.7067 525.598 10.8533 525.598 9.88C525.598 9.14667 525.698 8.48667 525.898 7.9C526.111 7.3 526.405 6.78667 526.778 6.36C527.165 5.93333 527.625 5.60667 528.158 5.38C528.705 5.14 529.305 5.02 529.958 5.02C530.785 5.02 531.505 5.22667 532.118 5.64C532.745 6.04 533.151 6.57333 533.338 7.24L533.138 7.74V6.32C533.138 5.90667 533.245 5.59333 533.458 5.38C533.685 5.16667 533.991 5.06 534.378 5.06C534.778 5.06 535.085 5.16667 535.298 5.38C535.511 5.59333 535.618 5.90667 535.618 6.32V14.02C535.618 15.6067 535.198 16.8 534.358 17.6C533.518 18.4 532.298 18.8 530.698 18.8ZM530.638 12.86C531.158 12.86 531.605 12.74 531.978 12.5C532.351 12.26 532.638 11.92 532.838 11.48C533.051 11.0267 533.158 10.4933 533.158 9.88C533.158 8.96 532.931 8.24 532.478 7.72C532.025 7.18667 531.411 6.92 530.638 6.92C530.118 6.92 529.671 7.04 529.298 7.28C528.925 7.52 528.631 7.86 528.418 8.3C528.218 8.74 528.118 9.26667 528.118 9.88C528.118 10.8 528.345 11.5267 528.798 12.06C529.251 12.5933 529.865 12.86 530.638 12.86ZM539.448 15.16C539.048 15.16 538.742 15.0533 538.528 14.84C538.315 14.6133 538.208 14.2933 538.208 13.88V2C538.208 1.58667 538.315 1.27333 538.528 1.06C538.742 0.846666 539.048 0.739999 539.448 0.739999C539.848 0.739999 540.155 0.846666 540.368 1.06C540.595 1.27333 540.708 1.58667 540.708 2V7.18H540.428C540.722 6.47333 541.175 5.94 541.788 5.58C542.415 5.20667 543.122 5.02 543.908 5.02C544.695 5.02 545.342 5.16667 545.848 5.46C546.355 5.75333 546.735 6.2 546.988 6.8C547.242 7.38667 547.368 8.13333 547.368 9.04V13.88C547.368 14.2933 547.262 14.6133 547.048 14.84C546.835 15.0533 546.528 15.16 546.128 15.16C545.728 15.16 545.415 15.0533 545.188 14.84C544.975 14.6133 544.868 14.2933 544.868 13.88V9.16C544.868 8.4 544.722 7.84667 544.428 7.5C544.148 7.15333 543.708 6.98 543.108 6.98C542.375 6.98 541.788 7.21333 541.348 7.68C540.922 8.13333 540.708 8.74 540.708 9.5V13.88C540.708 14.7333 540.288 15.16 539.448 15.16ZM554.387 15.2C553.521 15.2 552.794 15.0533 552.207 14.76C551.634 14.4667 551.207 14.04 550.927 13.48C550.647 12.9067 550.507 12.2 550.507 11.36V7.1H549.467C549.147 7.1 548.901 7.02 548.727 6.86C548.554 6.68667 548.467 6.45333 548.467 6.16C548.467 5.85333 548.554 5.62 548.727 5.46C548.901 5.3 549.147 5.22 549.467 5.22H550.507V3.4C550.507 2.98667 550.614 2.67333 550.827 2.46C551.054 2.24667 551.367 2.14 551.767 2.14C552.167 2.14 552.474 2.24667 552.687 2.46C552.901 2.67333 553.007 2.98667 553.007 3.4V5.22H555.127C555.447 5.22 555.694 5.3 555.867 5.46C556.041 5.62 556.127 5.85333 556.127 6.16C556.127 6.45333 556.041 6.68667 555.867 6.86C555.694 7.02 555.447 7.1 555.127 7.1H553.007V11.22C553.007 11.86 553.147 12.34 553.427 12.66C553.707 12.98 554.161 13.14 554.787 13.14C555.014 13.14 555.214 13.12 555.387 13.08C555.561 13.04 555.714 13.0133 555.847 13C556.007 12.9867 556.141 13.04 556.247 13.16C556.354 13.2667 556.407 13.4933 556.407 13.84C556.407 14.1067 556.361 14.3467 556.267 14.56C556.187 14.76 556.034 14.9 555.807 14.98C555.634 15.0333 555.407 15.08 555.127 15.12C554.847 15.1733 554.601 15.2 554.387 15.2ZM559.135 15.1C558.681 15.1 558.315 14.96 558.035 14.68C557.768 14.4 557.635 14.04 557.635 13.6C557.635 13.1733 557.768 12.8267 558.035 12.56C558.315 12.28 558.681 12.14 559.135 12.14C559.601 12.14 559.961 12.28 560.215 12.56C560.481 12.8267 560.615 13.1733 560.615 13.6C560.615 14.04 560.481 14.4 560.215 14.68C559.961 14.96 559.601 15.1 559.135 15.1Z" fill="#444444"/>
<path d="M153.843 60.2C153.257 60.2 152.67 60.1533 152.083 60.06C151.497 59.98 150.943 59.8533 150.423 59.68C149.903 59.4933 149.437 59.2667 149.023 59C148.783 58.84 148.617 58.6467 148.523 58.42C148.43 58.1933 148.397 57.9733 148.423 57.76C148.463 57.5333 148.55 57.34 148.683 57.18C148.83 57.0067 149.01 56.9 149.223 56.86C149.437 56.82 149.67 56.88 149.923 57.04C150.51 57.3867 151.13 57.64 151.783 57.8C152.437 57.96 153.123 58.04 153.843 58.04C154.897 58.04 155.663 57.8667 156.143 57.52C156.623 57.16 156.863 56.7 156.863 56.14C156.863 55.6733 156.69 55.3067 156.343 55.04C156.01 54.7733 155.43 54.5533 154.603 54.38L152.403 53.92C151.137 53.6533 150.19 53.2067 149.563 52.58C148.95 51.94 148.643 51.1 148.643 50.06C148.643 49.4067 148.777 48.8133 149.043 48.28C149.31 47.7467 149.683 47.2867 150.163 46.9C150.657 46.5133 151.237 46.22 151.903 46.02C152.583 45.8067 153.33 45.7 154.143 45.7C154.943 45.7 155.703 45.8 156.423 46C157.143 46.2 157.79 46.4933 158.363 46.88C158.577 47.0267 158.717 47.2067 158.783 47.42C158.863 47.6333 158.883 47.8467 158.843 48.06C158.803 48.26 158.71 48.4333 158.563 48.58C158.417 48.7267 158.23 48.8133 158.003 48.84C157.79 48.8667 157.543 48.8 157.263 48.64C156.77 48.36 156.27 48.16 155.763 48.04C155.257 47.92 154.71 47.86 154.123 47.86C153.51 47.86 152.983 47.9467 152.543 48.12C152.103 48.2933 151.763 48.54 151.523 48.86C151.297 49.1667 151.183 49.5333 151.183 49.96C151.183 50.44 151.343 50.8267 151.663 51.12C151.983 51.4 152.53 51.62 153.303 51.78L155.483 52.24C156.803 52.52 157.783 52.96 158.423 53.56C159.077 54.16 159.403 54.96 159.403 55.96C159.403 56.6 159.27 57.18 159.003 57.7C158.75 58.22 158.377 58.6667 157.883 59.04C157.403 59.4133 156.823 59.7 156.143 59.9C155.463 60.1 154.697 60.2 153.843 60.2ZM164.701 60.2C163.594 60.2 162.761 59.8867 162.201 59.26C161.641 58.62 161.361 57.6867 161.361 56.46V47C161.361 46.5867 161.467 46.2733 161.681 46.06C161.894 45.8467 162.201 45.74 162.601 45.74C163.001 45.74 163.307 45.8467 163.521 46.06C163.747 46.2733 163.861 46.5867 163.861 47V56.34C163.861 56.9533 163.987 57.4067 164.241 57.7C164.507 57.9933 164.881 58.14 165.361 58.14C165.467 58.14 165.567 58.14 165.661 58.14C165.754 58.1267 165.847 58.1133 165.941 58.1C166.127 58.0733 166.254 58.1267 166.321 58.26C166.387 58.38 166.421 58.6333 166.421 59.02C166.421 59.3533 166.354 59.6133 166.221 59.8C166.087 59.9867 165.867 60.1 165.561 60.14C165.427 60.1533 165.287 60.1667 165.141 60.18C164.994 60.1933 164.847 60.2 164.701 60.2ZM172.11 60.2C171.096 60.2 170.216 59.9933 169.47 59.58C168.723 59.1667 168.143 58.58 167.73 57.82C167.316 57.0467 167.11 56.14 167.11 55.1C167.11 54.3133 167.223 53.6133 167.45 53C167.69 52.3733 168.03 51.84 168.47 51.4C168.91 50.9467 169.436 50.6067 170.05 50.38C170.663 50.14 171.35 50.02 172.11 50.02C173.123 50.02 174.003 50.2267 174.75 50.64C175.496 51.0533 176.076 51.64 176.49 52.4C176.903 53.16 177.11 54.06 177.11 55.1C177.11 55.8867 176.99 56.5933 176.75 57.22C176.523 57.8467 176.19 58.3867 175.75 58.84C175.31 59.28 174.783 59.62 174.17 59.86C173.556 60.0867 172.87 60.2 172.11 60.2ZM172.11 58.3C172.603 58.3 173.036 58.18 173.41 57.94C173.783 57.7 174.07 57.3467 174.27 56.88C174.483 56.4 174.59 55.8067 174.59 55.1C174.59 54.0333 174.363 53.24 173.91 52.72C173.456 52.1867 172.856 51.92 172.11 51.92C171.616 51.92 171.183 52.04 170.81 52.28C170.436 52.5067 170.143 52.86 169.93 53.34C169.73 53.8067 169.63 54.3933 169.63 55.1C169.63 56.1533 169.856 56.9533 170.31 57.5C170.763 58.0333 171.363 58.3 172.11 58.3ZM180.413 63.76C180.013 63.76 179.706 63.6533 179.493 63.44C179.28 63.2267 179.173 62.9133 179.173 62.5V51.32C179.173 50.9067 179.28 50.5933 179.493 50.38C179.706 50.1667 180.006 50.06 180.393 50.06C180.793 50.06 181.1 50.1667 181.313 50.38C181.526 50.5933 181.633 50.9067 181.633 51.32V52.88L181.413 52.28C181.613 51.6 182.02 51.0533 182.633 50.64C183.26 50.2267 183.986 50.02 184.813 50.02C185.666 50.02 186.413 50.2267 187.053 50.64C187.706 51.0533 188.213 51.64 188.573 52.4C188.933 53.1467 189.113 54.0467 189.113 55.1C189.113 56.14 188.933 57.0467 188.573 57.82C188.213 58.58 187.713 59.1667 187.073 59.58C186.433 59.9933 185.68 60.2 184.813 60.2C184 60.2 183.286 60 182.673 59.6C182.06 59.1867 181.646 58.6533 181.433 58H181.673V62.5C181.673 62.9133 181.56 63.2267 181.333 63.44C181.12 63.6533 180.813 63.76 180.413 63.76ZM184.113 58.3C184.606 58.3 185.04 58.18 185.413 57.94C185.786 57.7 186.073 57.3467 186.273 56.88C186.486 56.4 186.593 55.8067 186.593 55.1C186.593 54.0333 186.366 53.24 185.913 52.72C185.46 52.1867 184.86 51.92 184.113 51.92C183.62 51.92 183.186 52.04 182.813 52.28C182.44 52.5067 182.146 52.86 181.933 53.34C181.733 53.8067 181.633 54.3933 181.633 55.1C181.633 56.1533 181.86 56.9533 182.313 57.5C182.766 58.0333 183.366 58.3 184.113 58.3ZM195.985 60.2C194.879 60.2 193.925 59.9933 193.125 59.58C192.325 59.1667 191.705 58.58 191.265 57.82C190.839 57.06 190.625 56.16 190.625 55.12C190.625 54.1067 190.832 53.22 191.245 52.46C191.672 51.7 192.252 51.1067 192.985 50.68C193.732 50.24 194.579 50.02 195.525 50.02C196.219 50.02 196.839 50.1333 197.385 50.36C197.945 50.5867 198.419 50.9133 198.805 51.34C199.205 51.7667 199.505 52.2867 199.705 52.9C199.919 53.5 200.025 54.18 200.025 54.94C200.025 55.18 199.939 55.3667 199.765 55.5C199.605 55.62 199.372 55.68 199.065 55.68H192.645V54.24H198.265L197.945 54.54C197.945 53.9267 197.852 53.4133 197.665 53C197.492 52.5867 197.232 52.2733 196.885 52.06C196.552 51.8333 196.132 51.72 195.625 51.72C195.065 51.72 194.585 51.8533 194.185 52.12C193.799 52.3733 193.499 52.74 193.285 53.22C193.085 53.6867 192.985 54.2467 192.985 54.9V55.04C192.985 56.1333 193.239 56.9533 193.745 57.5C194.265 58.0333 195.025 58.3 196.025 58.3C196.372 58.3 196.759 58.26 197.185 58.18C197.625 58.0867 198.039 57.9333 198.425 57.72C198.705 57.56 198.952 57.4933 199.165 57.52C199.379 57.5333 199.545 57.6067 199.665 57.74C199.799 57.8733 199.879 58.04 199.905 58.24C199.932 58.4267 199.892 58.62 199.785 58.82C199.692 59.02 199.525 59.1933 199.285 59.34C198.819 59.6333 198.279 59.8533 197.665 60C197.065 60.1333 196.505 60.2 195.985 60.2ZM213.424 53.14C213.144 53.14 212.924 53.0667 212.764 52.92C212.604 52.76 212.524 52.54 212.524 52.26C212.524 51.98 212.604 51.7667 212.764 51.62C212.924 51.46 213.144 51.38 213.424 51.38H221.704C221.998 51.38 222.218 51.46 222.364 51.62C222.524 51.7667 222.604 51.98 222.604 52.26C222.604 52.54 222.524 52.76 222.364 52.92C222.218 53.0667 221.998 53.14 221.704 53.14H213.424ZM213.424 57.12C213.144 57.12 212.924 57.0467 212.764 56.9C212.604 56.74 212.524 56.52 212.524 56.24C212.524 55.96 212.604 55.7467 212.764 55.6C212.924 55.4533 213.144 55.38 213.424 55.38H221.704C221.998 55.38 222.218 55.4533 222.364 55.6C222.524 55.7467 222.604 55.96 222.604 56.24C222.604 56.5333 222.524 56.7533 222.364 56.9C222.218 57.0467 221.998 57.12 221.704 57.12H213.424Z" fill="#1A1A1A"/>
<path d="M316.364 53.14C316.084 53.14 315.864 53.0667 315.704 52.92C315.544 52.76 315.464 52.54 315.464 52.26C315.464 51.98 315.544 51.7667 315.704 51.62C315.864 51.46 316.084 51.38 316.364 51.38H324.644C324.937 51.38 325.157 51.46 325.304 51.62C325.464 51.7667 325.544 51.98 325.544 52.26C325.544 52.54 325.464 52.76 325.304 52.92C325.157 53.0667 324.937 53.14 324.644 53.14H316.364ZM316.364 57.12C316.084 57.12 315.864 57.0467 315.704 56.9C315.544 56.74 315.464 56.52 315.464 56.24C315.464 55.96 315.544 55.7467 315.704 55.6C315.864 55.4533 316.084 55.38 316.364 55.38H324.644C324.937 55.38 325.157 55.4533 325.304 55.6C325.464 55.7467 325.544 55.96 325.544 56.24C325.544 56.5333 325.464 56.7533 325.304 56.9C325.157 57.0467 324.937 57.12 324.644 57.12H316.364Z" fill="#1A1A1A"/>
<path d="M369.864 53.14C369.584 53.14 369.364 53.0667 369.204 52.92C369.044 52.76 368.964 52.54 368.964 52.26C368.964 51.98 369.044 51.7667 369.204 51.62C369.364 51.46 369.584 51.38 369.864 51.38H378.144C378.437 51.38 378.657 51.46 378.804 51.62C378.964 51.7667 379.044 51.98 379.044 52.26C379.044 52.54 378.964 52.76 378.804 52.92C378.657 53.0667 378.437 53.14 378.144 53.14H369.864ZM369.864 57.12C369.584 57.12 369.364 57.0467 369.204 56.9C369.044 56.74 368.964 56.52 368.964 56.24C368.964 55.96 369.044 55.7467 369.204 55.6C369.364 55.4533 369.584 55.38 369.864 55.38H378.144C378.437 55.38 378.657 55.4533 378.804 55.6C378.964 55.7467 379.044 55.96 379.044 56.24C379.044 56.5333 378.964 56.7533 378.804 56.9C378.657 57.0467 378.437 57.12 378.144 57.12H369.864Z" fill="#1A1A1A"/>
<path d="M235.41 50.26C234.584 48.9533 233.984 47.58 233.61 46.14C233.25 44.6867 233.07 43.22 233.07 41.74C233.07 40.7533 233.15 39.7733 233.31 38.8C233.47 37.8267 233.724 36.8733 234.07 35.94C234.417 34.9933 234.864 34.0867 235.41 33.22C235.557 32.98 235.75 32.8333 235.99 32.78C236.244 32.7133 236.477 32.7267 236.69 32.82C236.917 32.9133 237.084 33.0867 237.19 33.34C237.297 33.58 237.284 33.8867 237.15 34.26C236.83 35.1133 236.564 35.9533 236.35 36.78C236.15 37.5933 235.997 38.4067 235.89 39.22C235.797 40.0333 235.75 40.8733 235.75 41.74C235.75 42.6067 235.804 43.4467 235.91 44.26C236.017 45.0733 236.177 45.8867 236.39 46.7C236.604 47.5133 236.857 48.3533 237.15 49.22C237.284 49.5933 237.297 49.9 237.19 50.14C237.084 50.3933 236.917 50.5667 236.69 50.66C236.477 50.7533 236.244 50.7667 235.99 50.7C235.75 50.6467 235.557 50.5 235.41 50.26ZM243.958 47.2C243.238 47.2 242.492 47.1067 241.718 46.92C240.945 46.7333 240.272 46.4533 239.698 46.08C239.432 45.9067 239.252 45.7067 239.158 45.48C239.065 45.2533 239.038 45.04 239.078 44.84C239.132 44.6267 239.232 44.4467 239.378 44.3C239.538 44.1533 239.732 44.0667 239.958 44.04C240.198 44.0133 240.458 44.0733 240.738 44.22C241.285 44.5133 241.812 44.7267 242.318 44.86C242.825 44.98 243.345 45.04 243.878 45.04C244.465 45.04 244.958 44.96 245.358 44.8C245.758 44.64 246.058 44.4 246.258 44.08C246.472 43.76 246.578 43.3733 246.578 42.92C246.578 42.2533 246.352 41.76 245.898 41.44C245.458 41.1067 244.812 40.94 243.958 40.94H242.678C242.305 40.94 242.018 40.8467 241.818 40.66C241.632 40.4733 241.538 40.2133 241.538 39.88C241.538 39.5467 241.632 39.2867 241.818 39.1C242.018 38.9133 242.305 38.82 242.678 38.82H243.718C244.225 38.82 244.658 38.74 245.018 38.58C245.378 38.4067 245.658 38.1667 245.858 37.86C246.058 37.5533 246.158 37.18 246.158 36.74C246.158 36.1267 245.952 35.66 245.538 35.34C245.138 35.02 244.552 34.86 243.778 34.86C243.285 34.86 242.818 34.92 242.378 35.04C241.952 35.1467 241.478 35.3533 240.958 35.66C240.718 35.8067 240.485 35.8667 240.258 35.84C240.045 35.8133 239.865 35.7267 239.718 35.58C239.572 35.4333 239.472 35.26 239.418 35.06C239.365 34.8467 239.378 34.6333 239.458 34.42C239.538 34.1933 239.705 34 239.958 33.84C240.532 33.4667 241.165 33.1867 241.858 33C242.552 32.8 243.265 32.7 243.998 32.7C244.972 32.7 245.805 32.8533 246.498 33.16C247.192 33.4533 247.718 33.88 248.078 34.44C248.452 34.9867 248.638 35.6533 248.638 36.44C248.638 37 248.532 37.5133 248.318 37.98C248.105 38.4333 247.805 38.82 247.418 39.14C247.032 39.46 246.565 39.6867 246.018 39.82V39.58C246.978 39.74 247.725 40.14 248.258 40.78C248.792 41.4067 249.058 42.1933 249.058 43.14C249.058 43.9667 248.852 44.6867 248.438 45.3C248.025 45.9133 247.438 46.3867 246.678 46.72C245.918 47.04 245.012 47.2 243.958 47.2ZM257.88 42.64C257.587 42.64 257.34 42.5467 257.14 42.36C256.953 42.16 256.86 41.92 256.86 41.64C256.86 41.3467 256.953 41.1067 257.14 40.92C257.34 40.7333 257.587 40.64 257.88 40.64H262.14C262.42 40.64 262.653 40.7333 262.84 40.92C263.04 41.1067 263.14 41.3467 263.14 41.64C263.14 41.92 263.04 42.16 262.84 42.36C262.653 42.5467 262.42 42.64 262.14 42.64H257.88ZM274.102 50.26C273.275 48.9533 272.675 47.58 272.302 46.14C271.942 44.6867 271.762 43.22 271.762 41.74C271.762 40.7533 271.842 39.7733 272.002 38.8C272.162 37.8267 272.415 36.8733 272.762 35.94C273.108 34.9933 273.555 34.0867 274.102 33.22C274.248 32.98 274.442 32.8333 274.682 32.78C274.935 32.7133 275.168 32.7267 275.382 32.82C275.608 32.9133 275.775 33.0867 275.882 33.34C275.988 33.58 275.975 33.8867 275.842 34.26C275.522 35.1133 275.255 35.9533 275.042 36.78C274.842 37.5933 274.688 38.4067 274.582 39.22C274.488 40.0333 274.442 40.8733 274.442 41.74C274.442 42.6067 274.495 43.4467 274.602 44.26C274.708 45.0733 274.868 45.8867 275.082 46.7C275.295 47.5133 275.548 48.3533 275.842 49.22C275.975 49.5933 275.988 49.9 275.882 50.14C275.775 50.3933 275.608 50.5667 275.382 50.66C275.168 50.7533 274.935 50.7667 274.682 50.7C274.442 50.6467 274.248 50.5 274.102 50.26ZM279.15 42.64C278.856 42.64 278.61 42.5467 278.41 42.36C278.223 42.16 278.13 41.92 278.13 41.64C278.13 41.3467 278.223 41.1067 278.41 40.92C278.61 40.7333 278.856 40.64 279.15 40.64H283.41C283.69 40.64 283.923 40.7333 284.11 40.92C284.31 41.1067 284.41 41.3467 284.41 41.64C284.41 41.92 284.31 42.16 284.11 42.36C283.923 42.5467 283.69 42.64 283.41 42.64H279.15ZM291.322 47.2C290.602 47.2 289.855 47.1067 289.082 46.92C288.308 46.7333 287.635 46.4533 287.062 46.08C286.795 45.9067 286.615 45.7067 286.522 45.48C286.428 45.2533 286.402 45.04 286.442 44.84C286.495 44.6267 286.595 44.4467 286.742 44.3C286.902 44.1533 287.095 44.0667 287.322 44.04C287.562 44.0133 287.822 44.0733 288.102 44.22C288.648 44.5133 289.175 44.7267 289.682 44.86C290.188 44.98 290.708 45.04 291.242 45.04C291.828 45.04 292.322 44.96 292.722 44.8C293.122 44.64 293.422 44.4 293.622 44.08C293.835 43.76 293.942 43.3733 293.942 42.92C293.942 42.2533 293.715 41.76 293.262 41.44C292.822 41.1067 292.175 40.94 291.322 40.94H290.042C289.668 40.94 289.382 40.8467 289.182 40.66C288.995 40.4733 288.902 40.2133 288.902 39.88C288.902 39.5467 288.995 39.2867 289.182 39.1C289.382 38.9133 289.668 38.82 290.042 38.82H291.082C291.588 38.82 292.022 38.74 292.382 38.58C292.742 38.4067 293.022 38.1667 293.222 37.86C293.422 37.5533 293.522 37.18 293.522 36.74C293.522 36.1267 293.315 35.66 292.902 35.34C292.502 35.02 291.915 34.86 291.142 34.86C290.648 34.86 290.182 34.92 289.742 35.04C289.315 35.1467 288.842 35.3533 288.322 35.66C288.082 35.8067 287.848 35.8667 287.622 35.84C287.408 35.8133 287.228 35.7267 287.082 35.58C286.935 35.4333 286.835 35.26 286.782 35.06C286.728 34.8467 286.742 34.6333 286.822 34.42C286.902 34.1933 287.068 34 287.322 33.84C287.895 33.4667 288.528 33.1867 289.222 33C289.915 32.8 290.628 32.7 291.362 32.7C292.335 32.7 293.168 32.8533 293.862 33.16C294.555 33.4533 295.082 33.88 295.442 34.44C295.815 34.9867 296.002 35.6533 296.002 36.44C296.002 37 295.895 37.5133 295.682 37.98C295.468 38.4333 295.168 38.82 294.782 39.14C294.395 39.46 293.928 39.6867 293.382 39.82V39.58C294.342 39.74 295.088 40.14 295.622 40.78C296.155 41.4067 296.422 42.1933 296.422 43.14C296.422 43.9667 296.215 44.6867 295.802 45.3C295.388 45.9133 294.802 46.3867 294.042 46.72C293.282 47.04 292.375 47.2 291.322 47.2ZM300.414 50.26C300.267 50.5 300.067 50.6467 299.814 50.7C299.574 50.7667 299.34 50.7467 299.114 50.64C298.887 50.5467 298.72 50.38 298.614 50.14C298.52 49.9 298.54 49.5933 298.674 49.22C299.007 48.3533 299.274 47.5133 299.474 46.7C299.674 45.8867 299.82 45.0733 299.914 44.26C300.02 43.4467 300.074 42.6067 300.074 41.74C300.074 40.8733 300.02 40.0333 299.914 39.22C299.807 38.4067 299.647 37.5933 299.434 36.78C299.234 35.9667 298.98 35.1267 298.674 34.26C298.54 33.8867 298.527 33.58 298.634 33.34C298.74 33.0867 298.907 32.9133 299.134 32.82C299.36 32.7267 299.594 32.7133 299.834 32.78C300.074 32.8333 300.267 32.98 300.414 33.22C301.227 34.5133 301.82 35.8867 302.194 37.34C302.567 38.7933 302.754 40.26 302.754 41.74C302.754 42.7267 302.667 43.7067 302.494 44.68C302.334 45.6533 302.08 46.6067 301.734 47.54C301.4 48.4867 300.96 49.3933 300.414 50.26ZM307.582 50.26C307.435 50.5 307.235 50.6467 306.982 50.7C306.742 50.7667 306.508 50.7467 306.282 50.64C306.055 50.5467 305.888 50.38 305.782 50.14C305.688 49.9 305.708 49.5933 305.842 49.22C306.175 48.3533 306.442 47.5133 306.642 46.7C306.842 45.8867 306.988 45.0733 307.082 44.26C307.188 43.4467 307.242 42.6067 307.242 41.74C307.242 40.8733 307.188 40.0333 307.082 39.22C306.975 38.4067 306.815 37.5933 306.602 36.78C306.402 35.9667 306.148 35.1267 305.842 34.26C305.708 33.8867 305.695 33.58 305.802 33.34C305.908 33.0867 306.075 32.9133 306.302 32.82C306.528 32.7267 306.762 32.7133 307.002 32.78C307.242 32.8333 307.435 32.98 307.582 33.22C308.395 34.5133 308.988 35.8867 309.362 37.34C309.735 38.7933 309.922 40.26 309.922 41.74C309.922 42.7267 309.835 43.7067 309.662 44.68C309.502 45.6533 309.248 46.6067 308.902 47.54C308.568 48.4867 308.128 49.3933 307.582 50.26Z" fill="#C882FA"/>
<path d="M235.41 80.26C234.584 78.9533 233.984 77.58 233.61 76.14C233.25 74.6867 233.07 73.22 233.07 71.74C233.07 70.7533 233.15 69.7733 233.31 68.8C233.47 67.8267 233.724 66.8733 234.07 65.94C234.417 64.9933 234.864 64.0867 235.41 63.22C235.557 62.98 235.75 62.8333 235.99 62.78C236.244 62.7133 236.477 62.7267 236.69 62.82C236.917 62.9133 237.084 63.0867 237.19 63.34C237.297 63.58 237.284 63.8867 237.15 64.26C236.83 65.1133 236.564 65.9533 236.35 66.78C236.15 67.5933 235.997 68.4067 235.89 69.22C235.797 70.0333 235.75 70.8733 235.75 71.74C235.75 72.6067 235.804 73.4467 235.91 74.26C236.017 75.0733 236.177 75.8867 236.39 76.7C236.604 77.5133 236.857 78.3533 237.15 79.22C237.284 79.5933 237.297 79.9 237.19 80.14C237.084 80.3933 236.917 80.5667 236.69 80.66C236.477 80.7533 236.244 80.7667 235.99 80.7C235.75 80.6467 235.557 80.5 235.41 80.26ZM246.498 77.16C246.098 77.16 245.785 77.0533 245.558 76.84C245.332 76.6133 245.218 76.2933 245.218 75.88V74.32H240.278C239.865 74.32 239.532 74.2333 239.278 74.06C239.038 73.8867 238.918 73.6133 238.918 73.24C238.918 73.0267 238.972 72.7933 239.078 72.54C239.198 72.2867 239.405 71.9533 239.698 71.54L245.178 63.6C245.365 63.32 245.572 63.1067 245.798 62.96C246.025 62.8133 246.285 62.74 246.578 62.74C246.925 62.74 247.212 62.8467 247.438 63.06C247.665 63.26 247.778 63.58 247.778 64.02V72.2H248.758C249.145 72.2 249.432 72.2933 249.618 72.48C249.818 72.6533 249.918 72.9133 249.918 73.26C249.918 73.6067 249.818 73.8733 249.618 74.06C249.432 74.2333 249.145 74.32 248.758 74.32H247.778V75.88C247.778 76.2933 247.665 76.6133 247.438 76.84C247.212 77.0533 246.898 77.16 246.498 77.16ZM245.218 72.2V65.96H245.798L241.078 72.88V72.2H245.218ZM257.88 72.64C257.587 72.64 257.34 72.5467 257.14 72.36C256.953 72.16 256.86 71.92 256.86 71.64C256.86 71.3467 256.953 71.1067 257.14 70.92C257.34 70.7333 257.587 70.64 257.88 70.64H262.14C262.42 70.64 262.653 70.7333 262.84 70.92C263.04 71.1067 263.14 71.3467 263.14 71.64C263.14 71.92 263.04 72.16 262.84 72.36C262.653 72.5467 262.42 72.64 262.14 72.64H257.88ZM274.102 80.26C273.275 78.9533 272.675 77.58 272.302 76.14C271.942 74.6867 271.762 73.22 271.762 71.74C271.762 70.7533 271.842 69.7733 272.002 68.8C272.162 67.8267 272.415 66.8733 272.762 65.94C273.108 64.9933 273.555 64.0867 274.102 63.22C274.248 62.98 274.442 62.8333 274.682 62.78C274.935 62.7133 275.168 62.7267 275.382 62.82C275.608 62.9133 275.775 63.0867 275.882 63.34C275.988 63.58 275.975 63.8867 275.842 64.26C275.522 65.1133 275.255 65.9533 275.042 66.78C274.842 67.5933 274.688 68.4067 274.582 69.22C274.488 70.0333 274.442 70.8733 274.442 71.74C274.442 72.6067 274.495 73.4467 274.602 74.26C274.708 75.0733 274.868 75.8867 275.082 76.7C275.295 77.5133 275.548 78.3533 275.842 79.22C275.975 79.5933 275.988 79.9 275.882 80.14C275.775 80.3933 275.608 80.5667 275.382 80.66C275.168 80.7533 274.935 80.7667 274.682 80.7C274.442 80.6467 274.248 80.5 274.102 80.26ZM279.15 72.64C278.856 72.64 278.61 72.5467 278.41 72.36C278.223 72.16 278.13 71.92 278.13 71.64C278.13 71.3467 278.223 71.1067 278.41 70.92C278.61 70.7333 278.856 70.64 279.15 70.64H283.41C283.69 70.64 283.923 70.7333 284.11 70.92C284.31 71.1067 284.41 71.3467 284.41 71.64C284.41 71.92 284.31 72.16 284.11 72.36C283.923 72.5467 283.69 72.64 283.41 72.64H279.15ZM293.862 77.16C293.462 77.16 293.148 77.0533 292.922 76.84C292.695 76.6133 292.582 76.2933 292.582 75.88V74.32H287.642C287.228 74.32 286.895 74.2333 286.642 74.06C286.402 73.8867 286.282 73.6133 286.282 73.24C286.282 73.0267 286.335 72.7933 286.442 72.54C286.562 72.2867 286.768 71.9533 287.062 71.54L292.542 63.6C292.728 63.32 292.935 63.1067 293.162 62.96C293.388 62.8133 293.648 62.74 293.942 62.74C294.288 62.74 294.575 62.8467 294.802 63.06C295.028 63.26 295.142 63.58 295.142 64.02V72.2H296.122C296.508 72.2 296.795 72.2933 296.982 72.48C297.182 72.6533 297.282 72.9133 297.282 73.26C297.282 73.6067 297.182 73.8733 296.982 74.06C296.795 74.2333 296.508 74.32 296.122 74.32H295.142V75.88C295.142 76.2933 295.028 76.6133 294.802 76.84C294.575 77.0533 294.262 77.16 293.862 77.16ZM292.582 72.2V65.96H293.162L288.442 72.88V72.2H292.582ZM300.414 80.26C300.267 80.5 300.067 80.6467 299.814 80.7C299.574 80.7667 299.34 80.7467 299.114 80.64C298.887 80.5467 298.72 80.38 298.614 80.14C298.52 79.9 298.54 79.5933 298.674 79.22C299.007 78.3533 299.274 77.5133 299.474 76.7C299.674 75.8867 299.82 75.0733 299.914 74.26C300.02 73.4467 300.074 72.6067 300.074 71.74C300.074 70.8733 300.02 70.0333 299.914 69.22C299.807 68.4067 299.647 67.5933 299.434 66.78C299.234 65.9667 298.98 65.1267 298.674 64.26C298.54 63.8867 298.527 63.58 298.634 63.34C298.74 63.0867 298.907 62.9133 299.134 62.82C299.36 62.7267 299.594 62.7133 299.834 62.78C300.074 62.8333 300.267 62.98 300.414 63.22C301.227 64.5133 301.82 65.8867 302.194 67.34C302.567 68.7933 302.754 70.26 302.754 71.74C302.754 72.7267 302.667 73.7067 302.494 74.68C302.334 75.6533 302.08 76.6067 301.734 77.54C301.4 78.4867 300.96 79.3933 300.414 80.26ZM307.582 80.26C307.435 80.5 307.235 80.6467 306.982 80.7C306.742 80.7667 306.508 80.7467 306.282 80.64C306.055 80.5467 305.888 80.38 305.782 80.14C305.688 79.9 305.708 79.5933 305.842 79.22C306.175 78.3533 306.442 77.5133 306.642 76.7C306.842 75.8867 306.988 75.0733 307.082 74.26C307.188 73.4467 307.242 72.6067 307.242 71.74C307.242 70.8733 307.188 70.0333 307.082 69.22C306.975 68.4067 306.815 67.5933 306.602 66.78C306.402 65.9667 306.148 65.1267 305.842 64.26C305.708 63.8867 305.695 63.58 305.802 63.34C305.908 63.0867 306.075 62.9133 306.302 62.82C306.528 62.7267 306.762 62.7133 307.002 62.78C307.242 62.8333 307.435 62.98 307.582 63.22C308.395 64.5133 308.988 65.8867 309.362 67.34C309.735 68.7933 309.922 70.26 309.922 71.74C309.922 72.7267 309.835 73.7067 309.662 74.68C309.502 75.6533 309.248 76.6067 308.902 77.54C308.568 78.4867 308.128 79.3933 307.582 80.26Z" fill="#FF8F1F"/>
<path d="M236 55L308 55" stroke="#1A1A1A" stroke-width="2"/>
<path d="M347.524 47.2C346.364 47.2 345.371 46.9267 344.544 46.38C343.731 45.82 343.111 45.02 342.684 43.98C342.257 42.94 342.044 41.68 342.044 40.2C342.044 39 342.177 37.94 342.444 37.02C342.724 36.0867 343.124 35.3 343.644 34.66C344.164 34.02 344.797 33.5333 345.544 33.2C346.304 32.8667 347.157 32.7 348.104 32.7C348.691 32.7 349.284 32.7933 349.884 32.98C350.497 33.1533 351.071 33.42 351.604 33.78C351.817 33.9133 351.957 34.0867 352.024 34.3C352.091 34.5133 352.097 34.7267 352.044 34.94C352.004 35.14 351.911 35.32 351.764 35.48C351.631 35.6267 351.457 35.72 351.244 35.76C351.031 35.7867 350.797 35.7267 350.544 35.58C350.091 35.3133 349.664 35.1267 349.264 35.02C348.864 34.9133 348.464 34.86 348.064 34.86C347.291 34.86 346.637 35.04 346.104 35.4C345.571 35.76 345.164 36.3 344.884 37.02C344.617 37.74 344.484 38.64 344.484 39.72V41.22H344.244C344.351 40.54 344.571 39.96 344.904 39.48C345.251 38.9867 345.691 38.6133 346.224 38.36C346.757 38.0933 347.351 37.96 348.004 37.96C348.817 37.96 349.537 38.1533 350.164 38.54C350.791 38.9267 351.284 39.46 351.644 40.14C352.004 40.82 352.184 41.6 352.184 42.48C352.184 43.3867 351.984 44.2 351.584 44.92C351.197 45.6267 350.651 46.1867 349.944 46.6C349.251 47 348.444 47.2 347.524 47.2ZM347.384 45.16C347.864 45.16 348.284 45.0533 348.644 44.84C349.017 44.6267 349.304 44.3267 349.504 43.94C349.704 43.54 349.804 43.0867 349.804 42.58C349.804 42.06 349.704 41.6067 349.504 41.22C349.304 40.8333 349.017 40.5333 348.644 40.32C348.284 40.0933 347.864 39.98 347.384 39.98C346.904 39.98 346.484 40.0933 346.124 40.32C345.764 40.5333 345.477 40.8333 345.264 41.22C345.064 41.6067 344.964 42.06 344.964 42.58C344.964 43.0867 345.064 43.54 345.264 43.94C345.477 44.3267 345.764 44.6267 346.124 44.84C346.484 45.0533 346.904 45.16 347.384 45.16Z" fill="#C882FA"/>
<path d="M402.664 39.76C403.504 39.9733 404.144 40.38 404.584 40.98C405.037 41.5667 405.264 42.3 405.264 43.18C405.264 44.3933 404.817 45.36 403.924 46.08C403.031 46.8 401.824 47.16 400.304 47.16C399.437 47.16 398.604 47.0267 397.804 46.76C397.004 46.4933 396.324 46.12 395.764 45.64C395.457 45.3733 395.304 45.06 395.304 44.7C395.304 44.4067 395.384 44.16 395.544 43.96C395.717 43.7467 395.917 43.64 396.144 43.64C396.277 43.64 396.397 43.6667 396.504 43.72C396.611 43.76 396.757 43.8333 396.944 43.94C397.504 44.3133 398.037 44.6 398.544 44.8C399.051 45 399.604 45.1 400.204 45.1C401.084 45.1 401.737 44.9267 402.164 44.58C402.591 44.22 402.804 43.68 402.804 42.96C402.804 42.2533 402.577 41.7333 402.124 41.4C401.684 41.0533 400.997 40.88 400.064 40.88H398.924C398.617 40.88 398.377 40.78 398.204 40.58C398.044 40.3667 397.964 40.1267 397.964 39.86C397.964 39.58 398.044 39.34 398.204 39.14C398.377 38.94 398.617 38.84 398.924 38.84H399.724C401.551 38.84 402.464 38.1533 402.464 36.78C402.464 36.14 402.271 35.6467 401.884 35.3C401.497 34.9533 400.964 34.78 400.284 34.78C399.311 34.78 398.271 35.1667 397.164 35.94C396.977 36.0467 396.831 36.1267 396.724 36.18C396.617 36.22 396.497 36.24 396.364 36.24C396.137 36.24 395.937 36.14 395.764 35.94C395.604 35.7267 395.524 35.4733 395.524 35.18C395.524 34.98 395.557 34.8133 395.624 34.68C395.704 34.5333 395.824 34.3867 395.984 34.24C396.544 33.7733 397.211 33.4067 397.984 33.14C398.771 32.86 399.571 32.72 400.384 32.72C401.771 32.72 402.871 33.06 403.684 33.74C404.511 34.42 404.924 35.3267 404.924 36.46C404.911 37.2333 404.704 37.9133 404.304 38.5C403.917 39.0733 403.371 39.4933 402.664 39.76Z" fill="#1A1A1A"/>
<path d="M347.004 77.2C345.911 77.2 344.971 77.0467 344.184 76.74C343.411 76.42 342.811 75.96 342.384 75.36C341.971 74.76 341.764 74.04 341.764 73.2C341.764 72.5333 341.897 71.9467 342.164 71.44C342.444 70.92 342.824 70.5 343.304 70.18C343.784 69.86 344.331 69.66 344.944 69.58V70C344.091 69.8133 343.404 69.4067 342.884 68.78C342.377 68.14 342.124 67.38 342.124 66.5C342.124 65.7 342.324 65.02 342.724 64.46C343.124 63.8867 343.691 63.4533 344.424 63.16C345.157 62.8533 346.017 62.7 347.004 62.7C348.004 62.7 348.871 62.8533 349.604 63.16C350.337 63.4533 350.904 63.8867 351.304 64.46C351.704 65.02 351.904 65.7 351.904 66.5C351.904 67.0867 351.784 67.6267 351.544 68.12C351.317 68.6133 350.991 69.02 350.564 69.34C350.151 69.66 349.664 69.8733 349.104 69.98V69.58C350.037 69.7133 350.791 70.1067 351.364 70.76C351.951 71.4 352.244 72.2133 352.244 73.2C352.244 74.04 352.031 74.76 351.604 75.36C351.191 75.96 350.591 76.42 349.804 76.74C349.031 77.0467 348.097 77.2 347.004 77.2ZM347.004 75.2C347.951 75.2 348.664 75.02 349.144 74.66C349.624 74.2867 349.864 73.74 349.864 73.02C349.864 72.3 349.624 71.76 349.144 71.4C348.664 71.04 347.951 70.86 347.004 70.86C346.071 70.86 345.357 71.04 344.864 71.4C344.384 71.76 344.144 72.3 344.144 73.02C344.144 73.74 344.384 74.2867 344.864 74.66C345.357 75.02 346.071 75.2 347.004 75.2ZM347.004 68.86C347.537 68.86 347.991 68.78 348.364 68.62C348.737 68.4467 349.024 68.2 349.224 67.88C349.424 67.56 349.524 67.1867 349.524 66.76C349.524 66.12 349.297 65.62 348.844 65.26C348.404 64.8867 347.791 64.7 347.004 64.7C346.217 64.7 345.604 64.8867 345.164 65.26C344.724 65.62 344.504 66.12 344.504 66.76C344.504 67.4133 344.724 67.9267 345.164 68.3C345.604 68.6733 346.217 68.86 347.004 68.86Z" fill="#FF8F1F"/>
<path d="M405.004 72.24C405.404 72.24 405.704 72.3267 405.904 72.5C406.104 72.6733 406.204 72.92 406.204 73.24C406.204 73.9067 405.804 74.24 405.004 74.24H403.984V75.82C403.984 76.2333 403.864 76.5533 403.624 76.78C403.397 77.0067 403.097 77.12 402.724 77.12C402.351 77.12 402.044 77.0067 401.804 76.78C401.577 76.5533 401.464 76.2333 401.464 75.82V74.24H396.224C395.864 74.24 395.584 74.14 395.384 73.94C395.184 73.7267 395.084 73.4667 395.084 73.16C395.084 72.84 395.191 72.5333 395.404 72.24L401.584 63.36C401.717 63.1733 401.884 63.0333 402.084 62.94C402.284 62.8333 402.491 62.78 402.704 62.78C403.051 62.78 403.351 62.8933 403.604 63.12C403.857 63.3467 403.984 63.6667 403.984 64.08V72.24H405.004ZM397.744 72.24H401.464V66.86L397.744 72.24Z" fill="#1A1A1A"/>
<path d="M333 55L361 55" stroke="#1A1A1A" stroke-width="2"/>
<path d="M386.5 55L414.5 55" stroke="#1A1A1A" stroke-width="2"/>
</svg>
