<svg width="291" height="81" viewBox="0 0 291 81" fill="none" xmlns="http://www.w3.org/2000/svg">
<path d="M14.675 13.46C14.755 13.6333 14.795 13.8067 14.795 13.98C14.795 14.2867 14.6683 14.5467 14.415 14.76C14.175 14.9733 13.895 15.08 13.575 15.08C13.3617 15.08 13.1617 15.0267 12.975 14.92C12.7883 14.8 12.6417 14.62 12.535 14.38L11.335 11.7H4.295L3.095 14.38C2.98833 14.62 2.84167 14.8 2.655 14.92C2.46833 15.0267 2.26167 15.08 2.035 15.08C1.72833 15.08 1.44833 14.9733 1.195 14.76C0.941667 14.5467 0.815 14.2867 0.815 13.98C0.815 13.8067 0.855 13.6333 0.935 13.46L6.455 1.6C6.575 1.33333 6.755 1.13333 6.995 0.999999C7.24833 0.853333 7.515 0.779999 7.795 0.779999C8.075 0.779999 8.335 0.853333 8.575 0.999999C8.82833 1.13333 9.015 1.33333 9.135 1.6L14.675 13.46ZM5.175 9.7H10.455L7.815 3.76L5.175 9.7ZM29.2284 13.12C29.9751 13.12 30.3484 13.4333 30.3484 14.06C30.3484 14.3533 30.2551 14.5867 30.0684 14.76C29.8818 14.92 29.6018 15 29.2284 15H22.5484C22.2151 15 21.9418 14.8933 21.7284 14.68C21.5151 14.4667 21.4084 14.2133 21.4084 13.92C21.4084 13.6133 21.5284 13.32 21.7684 13.04L26.9084 7.1H22.4484C22.0751 7.1 21.7951 7.02 21.6084 6.86C21.4218 6.7 21.3284 6.46667 21.3284 6.16C21.3284 5.85333 21.4218 5.62 21.6084 5.46C21.7951 5.3 22.0751 5.22 22.4484 5.22H28.9084C29.2551 5.22 29.5284 5.32667 29.7284 5.54C29.9418 5.74 30.0484 5.99333 30.0484 6.3C30.0484 6.62 29.9351 6.91333 29.7084 7.18L24.5484 13.12H29.2284ZM39.6298 12.32C39.8565 12.32 40.0365 12.4067 40.1698 12.58C40.3165 12.7533 40.3898 12.9867 40.3898 13.28C40.3898 13.6933 40.1432 14.04 39.6498 14.32C39.1965 14.5733 38.6832 14.78 38.1098 14.94C37.5365 15.0867 36.9898 15.16 36.4698 15.16C34.8965 15.16 33.6498 14.7067 32.7298 13.8C31.8098 12.8933 31.3498 11.6533 31.3498 10.08C31.3498 9.08 31.5498 8.19333 31.9498 7.42C32.3498 6.64667 32.9098 6.04667 33.6298 5.62C34.3632 5.19333 35.1898 4.98 36.1098 4.98C36.9898 4.98 37.7565 5.17333 38.4098 5.56C39.0632 5.94667 39.5698 6.49333 39.9298 7.2C40.2898 7.90667 40.4698 8.74 40.4698 9.7C40.4698 10.2733 40.2165 10.56 39.7098 10.56H33.8098C33.8898 11.48 34.1498 12.16 34.5898 12.6C35.0298 13.0267 35.6698 13.24 36.5098 13.24C36.9365 13.24 37.3098 13.1867 37.6298 13.08C37.9632 12.9733 38.3365 12.8267 38.7498 12.64C39.1498 12.4267 39.4432 12.32 39.6298 12.32ZM36.1698 6.74C35.4898 6.74 34.9432 6.95333 34.5298 7.38C34.1298 7.80667 33.8898 8.42 33.8098 9.22H38.3298C38.3032 8.40667 38.1032 7.79333 37.7298 7.38C37.3565 6.95333 36.8365 6.74 36.1698 6.74ZM47.9748 5.02C48.3215 4.99333 48.5948 5.06667 48.7948 5.24C48.9948 5.41333 49.0948 5.67333 49.0948 6.02C49.0948 6.38 49.0082 6.64667 48.8348 6.82C48.6615 6.99333 48.3482 7.10667 47.8948 7.16L47.2948 7.22C46.5082 7.3 45.9282 7.56667 45.5548 8.02C45.1948 8.47333 45.0148 9.04 45.0148 9.72V13.92C45.0148 14.3067 44.8948 14.6067 44.6548 14.82C44.4148 15.02 44.1148 15.12 43.7548 15.12C43.3948 15.12 43.0948 15.02 42.8548 14.82C42.6282 14.6067 42.5148 14.3067 42.5148 13.92V6.18C42.5148 5.80667 42.6282 5.52 42.8548 5.32C43.0948 5.12 43.3882 5.02 43.7348 5.02C44.0815 5.02 44.3615 5.12 44.5748 5.32C44.7882 5.50667 44.8948 5.78 44.8948 6.14V6.94C45.1482 6.35333 45.5215 5.9 46.0148 5.58C46.5215 5.26 47.0815 5.08 47.6948 5.04L47.9748 5.02ZM54.4358 15.16C53.4358 15.16 52.5558 14.9533 51.7958 14.54C51.0491 14.1267 50.4691 13.5333 50.0558 12.76C49.6424 11.9867 49.4358 11.0867 49.4358 10.06C49.4358 9.03333 49.6424 8.14 50.0558 7.38C50.4691 6.60667 51.0491 6.01333 51.7958 5.6C52.5558 5.18667 53.4358 4.98 54.4358 4.98C55.4358 4.98 56.3091 5.18667 57.0558 5.6C57.8158 6.01333 58.3958 6.60667 58.7958 7.38C59.2091 8.14 59.4158 9.03333 59.4158 10.06C59.4158 11.0867 59.2091 11.9867 58.7958 12.76C58.3958 13.5333 57.8158 14.1267 57.0558 14.54C56.3091 14.9533 55.4358 15.16 54.4358 15.16ZM54.4158 13.22C55.2291 13.22 55.8491 12.9533 56.2758 12.42C56.7024 11.8867 56.9158 11.1 56.9158 10.06C56.9158 9.03333 56.7024 8.25333 56.2758 7.72C55.8491 7.17333 55.2358 6.9 54.4358 6.9C53.6358 6.9 53.0158 7.17333 52.5758 7.72C52.1491 8.25333 51.9358 9.03333 51.9358 10.06C51.9358 11.1 52.1491 11.8867 52.5758 12.42C53.0024 12.9533 53.6158 13.22 54.4158 13.22ZM70.4494 15.16C68.996 15.16 67.8227 14.8733 66.9294 14.3C66.5027 14.0467 66.2894 13.6867 66.2894 13.22C66.2894 12.9533 66.3627 12.74 66.5094 12.58C66.656 12.4067 66.836 12.32 67.0494 12.32C67.276 12.32 67.5894 12.4267 67.9894 12.64C68.416 12.84 68.8027 12.9933 69.1494 13.1C69.5094 13.2067 69.9627 13.26 70.5094 13.26C71.0694 13.26 71.5027 13.1667 71.8094 12.98C72.1294 12.7933 72.2894 12.5333 72.2894 12.2C72.2894 11.9733 72.2227 11.7933 72.0894 11.66C71.9694 11.5267 71.7427 11.4067 71.4094 11.3C71.0894 11.18 70.596 11.0467 69.9294 10.9C68.7427 10.66 67.8894 10.32 67.3694 9.88C66.8627 9.44 66.6094 8.83333 66.6094 8.06C66.6094 7.47333 66.7827 6.94667 67.1294 6.48C67.476 6 67.9494 5.63333 68.5494 5.38C69.1627 5.11333 69.856 4.98 70.6294 4.98C71.1894 4.98 71.7294 5.05333 72.2494 5.2C72.7694 5.33333 73.236 5.53333 73.6494 5.8C74.076 6.06667 74.2894 6.42 74.2894 6.86C74.2894 7.12667 74.216 7.35333 74.0694 7.54C73.9227 7.71333 73.7427 7.8 73.5294 7.8C73.3827 7.8 73.236 7.77333 73.0894 7.72C72.956 7.65333 72.7827 7.56 72.5694 7.44C72.1827 7.24 71.8494 7.09333 71.5694 7C71.2894 6.89333 70.9427 6.84 70.5294 6.84C70.036 6.84 69.6427 6.94 69.3494 7.14C69.0694 7.34 68.9294 7.61333 68.9294 7.96C68.9294 8.29333 69.076 8.54667 69.3694 8.72C69.6627 8.89333 70.2294 9.06667 71.0694 9.24C71.9627 9.42667 72.6627 9.64 73.1694 9.88C73.676 10.12 74.036 10.42 74.2494 10.78C74.476 11.14 74.5894 11.6 74.5894 12.16C74.5894 13.0667 74.2094 13.7933 73.4494 14.34C72.7027 14.8867 71.7027 15.16 70.4494 15.16ZM77.8564 15.12C77.4964 15.12 77.1964 15.02 76.9564 14.82C76.7297 14.6067 76.6164 14.3067 76.6164 13.92V1.98C76.6164 1.59333 76.7297 1.3 76.9564 1.1C77.1964 0.899999 77.4964 0.799999 77.8564 0.799999C78.2164 0.799999 78.5164 0.899999 78.7564 1.1C78.9964 1.3 79.1164 1.59333 79.1164 1.98V13.92C79.1164 14.3067 78.9964 14.6067 78.7564 14.82C78.5164 15.02 78.2164 15.12 77.8564 15.12ZM86.1545 15.16C85.1545 15.16 84.2745 14.9533 83.5145 14.54C82.7679 14.1267 82.1879 13.5333 81.7745 12.76C81.3612 11.9867 81.1545 11.0867 81.1545 10.06C81.1545 9.03333 81.3612 8.14 81.7745 7.38C82.1879 6.60667 82.7679 6.01333 83.5145 5.6C84.2745 5.18667 85.1545 4.98 86.1545 4.98C87.1545 4.98 88.0279 5.18667 88.7745 5.6C89.5345 6.01333 90.1145 6.60667 90.5145 7.38C90.9279 8.14 91.1345 9.03333 91.1345 10.06C91.1345 11.0867 90.9279 11.9867 90.5145 12.76C90.1145 13.5333 89.5345 14.1267 88.7745 14.54C88.0279 14.9533 87.1545 15.16 86.1545 15.16ZM86.1345 13.22C86.9479 13.22 87.5679 12.9533 87.9945 12.42C88.4212 11.8867 88.6345 11.1 88.6345 10.06C88.6345 9.03333 88.4212 8.25333 87.9945 7.72C87.5679 7.17333 86.9545 6.9 86.1545 6.9C85.3545 6.9 84.7345 7.17333 84.2945 7.72C83.8679 8.25333 83.6545 9.03333 83.6545 10.06C83.6545 11.1 83.8679 11.8867 84.2945 12.42C84.7212 12.9533 85.3345 13.22 86.1345 13.22ZM98.8184 4.98C99.6584 4.98 100.405 5.19333 101.058 5.62C101.725 6.04667 102.238 6.65333 102.598 7.44C102.972 8.21333 103.158 9.10667 103.158 10.12C103.158 11.1333 102.972 12.02 102.598 12.78C102.238 13.54 101.732 14.1267 101.078 14.54C100.425 14.9533 99.6718 15.16 98.8184 15.16C98.1251 15.16 97.5051 15.0133 96.9584 14.72C96.4118 14.4267 95.9918 14.02 95.6984 13.5V17.58C95.6984 17.9267 95.5851 18.2 95.3584 18.4C95.1318 18.6 94.8318 18.7 94.4584 18.7C94.0851 18.7 93.7784 18.5933 93.5384 18.38C93.3118 18.1667 93.1984 17.8867 93.1984 17.54V6.2C93.1984 5.84 93.3051 5.55333 93.5184 5.34C93.7451 5.12667 94.0451 5.02 94.4184 5.02C94.7918 5.02 95.0918 5.12667 95.3184 5.34C95.5451 5.55333 95.6584 5.84 95.6584 6.2V6.7C95.9518 6.15333 96.3718 5.73333 96.9184 5.44C97.4784 5.13333 98.1118 4.98 98.8184 4.98ZM98.1584 13.22C98.9451 13.22 99.5584 12.9533 99.9984 12.42C100.438 11.8733 100.658 11.1067 100.658 10.12C100.658 9.10667 100.438 8.32 99.9984 7.76C99.5584 7.2 98.9451 6.92 98.1584 6.92C97.3584 6.92 96.7384 7.19333 96.2984 7.74C95.8718 8.28667 95.6584 9.06667 95.6584 10.08C95.6584 11.08 95.8718 11.8533 96.2984 12.4C96.7384 12.9467 97.3584 13.22 98.1584 13.22ZM112.95 12.32C113.177 12.32 113.357 12.4067 113.49 12.58C113.637 12.7533 113.71 12.9867 113.71 13.28C113.71 13.6933 113.463 14.04 112.97 14.32C112.517 14.5733 112.003 14.78 111.43 14.94C110.857 15.0867 110.31 15.16 109.79 15.16C108.217 15.16 106.97 14.7067 106.05 13.8C105.13 12.8933 104.67 11.6533 104.67 10.08C104.67 9.08 104.87 8.19333 105.27 7.42C105.67 6.64667 106.23 6.04667 106.95 5.62C107.683 5.19333 108.51 4.98 109.43 4.98C110.31 4.98 111.077 5.17333 111.73 5.56C112.383 5.94667 112.89 6.49333 113.25 7.2C113.61 7.90667 113.79 8.74 113.79 9.7C113.79 10.2733 113.537 10.56 113.03 10.56H107.13C107.21 11.48 107.47 12.16 107.91 12.6C108.35 13.0267 108.99 13.24 109.83 13.24C110.257 13.24 110.63 13.1867 110.95 13.08C111.283 12.9733 111.657 12.8267 112.07 12.64C112.47 12.4267 112.763 12.32 112.95 12.32ZM109.49 6.74C108.81 6.74 108.263 6.95333 107.85 7.38C107.45 7.80667 107.21 8.42 107.13 9.22H111.65C111.623 8.40667 111.423 7.79333 111.05 7.38C110.677 6.95333 110.157 6.74 109.49 6.74ZM122.505 15.12C122.145 15.12 121.845 15.02 121.605 14.82C121.378 14.6067 121.265 14.3067 121.265 13.92V6.2C121.265 5.81333 121.378 5.52 121.605 5.32C121.845 5.12 122.145 5.02 122.505 5.02C122.865 5.02 123.165 5.12 123.405 5.32C123.645 5.52 123.765 5.81333 123.765 6.2V13.92C123.765 14.3067 123.645 14.6067 123.405 14.82C123.165 15.02 122.865 15.12 122.505 15.12ZM122.505 3.24C122.052 3.24 121.692 3.12 121.425 2.88C121.158 2.62667 121.025 2.3 121.025 1.9C121.025 1.5 121.158 1.18 121.425 0.94C121.692 0.7 122.052 0.58 122.505 0.58C122.945 0.58 123.298 0.7 123.565 0.94C123.845 1.18 123.985 1.5 123.985 1.9C123.985 2.3 123.852 2.62667 123.585 2.88C123.318 3.12 122.958 3.24 122.505 3.24ZM129.883 15.16C128.43 15.16 127.256 14.8733 126.363 14.3C125.936 14.0467 125.723 13.6867 125.723 13.22C125.723 12.9533 125.796 12.74 125.943 12.58C126.09 12.4067 126.27 12.32 126.483 12.32C126.71 12.32 127.023 12.4267 127.423 12.64C127.85 12.84 128.236 12.9933 128.583 13.1C128.943 13.2067 129.396 13.26 129.943 13.26C130.503 13.26 130.936 13.1667 131.243 12.98C131.563 12.7933 131.723 12.5333 131.723 12.2C131.723 11.9733 131.656 11.7933 131.523 11.66C131.403 11.5267 131.176 11.4067 130.843 11.3C130.523 11.18 130.03 11.0467 129.363 10.9C128.176 10.66 127.323 10.32 126.803 9.88C126.296 9.44 126.043 8.83333 126.043 8.06C126.043 7.47333 126.216 6.94667 126.563 6.48C126.91 6 127.383 5.63333 127.983 5.38C128.596 5.11333 129.29 4.98 130.063 4.98C130.623 4.98 131.163 5.05333 131.683 5.2C132.203 5.33333 132.67 5.53333 133.083 5.8C133.51 6.06667 133.723 6.42 133.723 6.86C133.723 7.12667 133.65 7.35333 133.503 7.54C133.356 7.71333 133.176 7.8 132.963 7.8C132.816 7.8 132.67 7.77333 132.523 7.72C132.39 7.65333 132.216 7.56 132.003 7.44C131.616 7.24 131.283 7.09333 131.003 7C130.723 6.89333 130.376 6.84 129.963 6.84C129.47 6.84 129.076 6.94 128.783 7.14C128.503 7.34 128.363 7.61333 128.363 7.96C128.363 8.29333 128.51 8.54667 128.803 8.72C129.096 8.89333 129.663 9.06667 130.503 9.24C131.396 9.42667 132.096 9.64 132.603 9.88C133.11 10.12 133.47 10.42 133.683 10.78C133.91 11.14 134.023 11.6 134.023 12.16C134.023 13.0667 133.643 13.7933 132.883 14.34C132.136 14.8867 131.136 15.16 129.883 15.16ZM145.72 4.98C147.08 4.98 148.086 5.32 148.74 6C149.406 6.66667 149.74 7.68667 149.74 9.06V13.94C149.74 14.3 149.633 14.5867 149.42 14.8C149.206 15 148.913 15.1 148.54 15.1C148.193 15.1 147.906 14.9933 147.68 14.78C147.466 14.5667 147.36 14.2867 147.36 13.94V13.5C147.133 14.02 146.773 14.4267 146.28 14.72C145.8 15.0133 145.24 15.16 144.6 15.16C143.946 15.16 143.353 15.0267 142.82 14.76C142.286 14.4933 141.866 14.1267 141.56 13.66C141.253 13.1933 141.1 12.6733 141.1 12.1C141.1 11.38 141.28 10.8133 141.64 10.4C142.013 9.98667 142.613 9.68667 143.44 9.5C144.266 9.31333 145.406 9.22 146.86 9.22H147.36V8.76C147.36 8.10667 147.22 7.63333 146.94 7.34C146.66 7.03333 146.206 6.88 145.58 6.88C145.193 6.88 144.8 6.94 144.4 7.06C144 7.16667 143.526 7.32667 142.98 7.54C142.633 7.71333 142.38 7.8 142.22 7.8C141.98 7.8 141.78 7.71333 141.62 7.54C141.473 7.36667 141.4 7.14 141.4 6.86C141.4 6.63333 141.453 6.44 141.56 6.28C141.68 6.10667 141.873 5.94667 142.14 5.8C142.606 5.54667 143.16 5.34667 143.8 5.2C144.453 5.05333 145.093 4.98 145.72 4.98ZM145.1 13.36C145.766 13.36 146.306 13.14 146.72 12.7C147.146 12.2467 147.36 11.6667 147.36 10.96V10.54H147C146.106 10.54 145.413 10.58 144.92 10.66C144.426 10.74 144.073 10.88 143.86 11.08C143.646 11.28 143.54 11.5533 143.54 11.9C143.54 12.3267 143.686 12.68 143.98 12.96C144.286 13.2267 144.66 13.36 145.1 13.36ZM163.43 4.98C165.723 4.98 166.87 6.32 166.87 9V13.92C166.87 14.2933 166.757 14.5867 166.53 14.8C166.317 15.0133 166.017 15.12 165.63 15.12C165.243 15.12 164.937 15.0133 164.71 14.8C164.483 14.5867 164.37 14.2933 164.37 13.92V9C164.37 8.29333 164.223 7.78 163.93 7.46C163.65 7.12667 163.203 6.96 162.59 6.96C161.87 6.96 161.29 7.18667 160.85 7.64C160.423 8.09333 160.21 8.7 160.21 9.46V13.92C160.21 14.2933 160.097 14.5867 159.87 14.8C159.643 15.0133 159.337 15.12 158.95 15.12C158.563 15.12 158.257 15.0133 158.03 14.8C157.817 14.5867 157.71 14.2933 157.71 13.92V1.96C157.71 1.61333 157.823 1.33333 158.05 1.12C158.29 0.906666 158.597 0.799999 158.97 0.799999C159.343 0.799999 159.643 0.899999 159.87 1.1C160.097 1.3 160.21 1.57333 160.21 1.92V6.58C160.543 6.06 160.983 5.66667 161.53 5.4C162.09 5.12 162.723 4.98 163.43 4.98ZM173.869 15.16C172.869 15.16 171.989 14.9533 171.229 14.54C170.483 14.1267 169.903 13.5333 169.489 12.76C169.076 11.9867 168.869 11.0867 168.869 10.06C168.869 9.03333 169.076 8.14 169.489 7.38C169.903 6.60667 170.483 6.01333 171.229 5.6C171.989 5.18667 172.869 4.98 173.869 4.98C174.869 4.98 175.743 5.18667 176.489 5.6C177.249 6.01333 177.829 6.60667 178.229 7.38C178.643 8.14 178.849 9.03333 178.849 10.06C178.849 11.0867 178.643 11.9867 178.229 12.76C177.829 13.5333 177.249 14.1267 176.489 14.54C175.743 14.9533 174.869 15.16 173.869 15.16ZM173.849 13.22C174.663 13.22 175.283 12.9533 175.709 12.42C176.136 11.8867 176.349 11.1 176.349 10.06C176.349 9.03333 176.136 8.25333 175.709 7.72C175.283 7.17333 174.669 6.9 173.869 6.9C173.069 6.9 172.449 7.17333 172.009 7.72C171.583 8.25333 171.369 9.03333 171.369 10.06C171.369 11.1 171.583 11.8867 172.009 12.42C172.436 12.9533 173.049 13.22 173.849 13.22ZM186.373 5.02C186.72 4.99333 186.993 5.06667 187.193 5.24C187.393 5.41333 187.493 5.67333 187.493 6.02C187.493 6.38 187.407 6.64667 187.233 6.82C187.06 6.99333 186.747 7.10667 186.293 7.16L185.693 7.22C184.907 7.3 184.327 7.56667 183.953 8.02C183.593 8.47333 183.413 9.04 183.413 9.72V13.92C183.413 14.3067 183.293 14.6067 183.053 14.82C182.813 15.02 182.513 15.12 182.153 15.12C181.793 15.12 181.493 15.02 181.253 14.82C181.027 14.6067 180.913 14.3067 180.913 13.92V6.18C180.913 5.80667 181.027 5.52 181.253 5.32C181.493 5.12 181.787 5.02 182.133 5.02C182.48 5.02 182.76 5.12 182.973 5.32C183.187 5.50667 183.293 5.78 183.293 6.14V6.94C183.547 6.35333 183.92 5.9 184.413 5.58C184.92 5.26 185.48 5.08 186.093 5.04L186.373 5.02ZM189.81 15.12C189.45 15.12 189.15 15.02 188.91 14.82C188.683 14.6067 188.57 14.3067 188.57 13.92V6.2C188.57 5.81333 188.683 5.52 188.91 5.32C189.15 5.12 189.45 5.02 189.81 5.02C190.17 5.02 190.47 5.12 190.71 5.32C190.95 5.52 191.07 5.81333 191.07 6.2V13.92C191.07 14.3067 190.95 14.6067 190.71 14.82C190.47 15.02 190.17 15.12 189.81 15.12ZM189.81 3.24C189.356 3.24 188.996 3.12 188.73 2.88C188.463 2.62667 188.33 2.3 188.33 1.9C188.33 1.5 188.463 1.18 188.73 0.94C188.996 0.7 189.356 0.58 189.81 0.58C190.25 0.58 190.603 0.7 190.87 0.94C191.15 1.18 191.29 1.5 191.29 1.9C191.29 2.3 191.156 2.62667 190.89 2.88C190.623 3.12 190.263 3.24 189.81 3.24ZM200.928 13.12C201.674 13.12 202.048 13.4333 202.048 14.06C202.048 14.3533 201.954 14.5867 201.768 14.76C201.581 14.92 201.301 15 200.928 15H194.248C193.914 15 193.641 14.8933 193.428 14.68C193.214 14.4667 193.108 14.2133 193.108 13.92C193.108 13.6133 193.228 13.32 193.468 13.04L198.608 7.1H194.148C193.774 7.1 193.494 7.02 193.308 6.86C193.121 6.7 193.028 6.46667 193.028 6.16C193.028 5.85333 193.121 5.62 193.308 5.46C193.494 5.3 193.774 5.22 194.148 5.22H200.608C200.954 5.22 201.228 5.32667 201.428 5.54C201.641 5.74 201.748 5.99333 201.748 6.3C201.748 6.62 201.634 6.91333 201.408 7.18L196.248 13.12H200.928ZM208.049 15.16C207.049 15.16 206.169 14.9533 205.409 14.54C204.662 14.1267 204.082 13.5333 203.669 12.76C203.256 11.9867 203.049 11.0867 203.049 10.06C203.049 9.03333 203.256 8.14 203.669 7.38C204.082 6.60667 204.662 6.01333 205.409 5.6C206.169 5.18667 207.049 4.98 208.049 4.98C209.049 4.98 209.922 5.18667 210.669 5.6C211.429 6.01333 212.009 6.60667 212.409 7.38C212.822 8.14 213.029 9.03333 213.029 10.06C213.029 11.0867 212.822 11.9867 212.409 12.76C212.009 13.5333 211.429 14.1267 210.669 14.54C209.922 14.9533 209.049 15.16 208.049 15.16ZM208.029 13.22C208.842 13.22 209.462 12.9533 209.889 12.42C210.316 11.8867 210.529 11.1 210.529 10.06C210.529 9.03333 210.316 8.25333 209.889 7.72C209.462 7.17333 208.849 6.9 208.049 6.9C207.249 6.9 206.629 7.17333 206.189 7.72C205.762 8.25333 205.549 9.03333 205.549 10.06C205.549 11.1 205.762 11.8867 206.189 12.42C206.616 12.9533 207.229 13.22 208.029 13.22ZM220.773 4.98C221.946 4.98 222.82 5.31333 223.393 5.98C223.966 6.64667 224.253 7.65333 224.253 9V13.92C224.253 14.2933 224.14 14.5867 223.913 14.8C223.7 15.0133 223.4 15.12 223.013 15.12C222.626 15.12 222.32 15.0133 222.093 14.8C221.866 14.5867 221.753 14.2933 221.753 13.92V9.14C221.753 8.38 221.606 7.82667 221.313 7.48C221.033 7.13333 220.586 6.96 219.973 6.96C219.253 6.96 218.673 7.18667 218.233 7.64C217.806 8.09333 217.593 8.7 217.593 9.46V13.92C217.593 14.2933 217.48 14.5867 217.253 14.8C217.026 15.0133 216.72 15.12 216.333 15.12C215.946 15.12 215.64 15.0133 215.413 14.8C215.2 14.5867 215.093 14.2933 215.093 13.92V6.18C215.093 5.83333 215.206 5.55333 215.433 5.34C215.66 5.12667 215.966 5.02 216.353 5.02C216.7 5.02 216.98 5.12667 217.193 5.34C217.42 5.54 217.533 5.80667 217.533 6.14V6.68C217.866 6.13333 218.313 5.71333 218.873 5.42C219.433 5.12667 220.066 4.98 220.773 4.98ZM231.872 13.26C232.539 13.3 232.872 13.6 232.872 14.16C232.872 14.48 232.739 14.7267 232.472 14.9C232.219 15.06 231.852 15.1267 231.372 15.1L230.832 15.06C228.592 14.9 227.472 13.7 227.472 11.46V7.1H226.472C226.112 7.1 225.832 7.02 225.632 6.86C225.446 6.7 225.352 6.46667 225.352 6.16C225.352 5.85333 225.446 5.62 225.632 5.46C225.832 5.3 226.112 5.22 226.472 5.22H227.472V3.38C227.472 3.02 227.586 2.73333 227.812 2.52C228.039 2.30667 228.346 2.2 228.732 2.2C229.106 2.2 229.406 2.30667 229.632 2.52C229.859 2.73333 229.972 3.02 229.972 3.38V5.22H231.672C232.032 5.22 232.306 5.3 232.492 5.46C232.692 5.62 232.792 5.85333 232.792 6.16C232.792 6.46667 232.692 6.7 232.492 6.86C232.306 7.02 232.032 7.1 231.672 7.1H229.972V11.64C229.972 12.6267 230.426 13.1533 231.332 13.22L231.872 13.26ZM238.415 4.98C239.775 4.98 240.782 5.32 241.435 6C242.102 6.66667 242.435 7.68667 242.435 9.06V13.94C242.435 14.3 242.328 14.5867 242.115 14.8C241.902 15 241.608 15.1 241.235 15.1C240.888 15.1 240.602 14.9933 240.375 14.78C240.162 14.5667 240.055 14.2867 240.055 13.94V13.5C239.828 14.02 239.468 14.4267 238.975 14.72C238.495 15.0133 237.935 15.16 237.295 15.16C236.642 15.16 236.048 15.0267 235.515 14.76C234.982 14.4933 234.562 14.1267 234.255 13.66C233.948 13.1933 233.795 12.6733 233.795 12.1C233.795 11.38 233.975 10.8133 234.335 10.4C234.708 9.98667 235.308 9.68667 236.135 9.5C236.962 9.31333 238.102 9.22 239.555 9.22H240.055V8.76C240.055 8.10667 239.915 7.63333 239.635 7.34C239.355 7.03333 238.902 6.88 238.275 6.88C237.888 6.88 237.495 6.94 237.095 7.06C236.695 7.16667 236.222 7.32667 235.675 7.54C235.328 7.71333 235.075 7.8 234.915 7.8C234.675 7.8 234.475 7.71333 234.315 7.54C234.168 7.36667 234.095 7.14 234.095 6.86C234.095 6.63333 234.148 6.44 234.255 6.28C234.375 6.10667 234.568 5.94667 234.835 5.8C235.302 5.54667 235.855 5.34667 236.495 5.2C237.148 5.05333 237.788 4.98 238.415 4.98ZM237.795 13.36C238.462 13.36 239.002 13.14 239.415 12.7C239.842 12.2467 240.055 11.6667 240.055 10.96V10.54H239.695C238.802 10.54 238.108 10.58 237.615 10.66C237.122 10.74 236.768 10.88 236.555 11.08C236.342 11.28 236.235 11.5533 236.235 11.9C236.235 12.3267 236.382 12.68 236.675 12.96C236.982 13.2267 237.355 13.36 237.795 13.36ZM246.216 15.12C245.856 15.12 245.556 15.02 245.316 14.82C245.089 14.6067 244.976 14.3067 244.976 13.92V1.98C244.976 1.59333 245.089 1.3 245.316 1.1C245.556 0.899999 245.856 0.799999 246.216 0.799999C246.576 0.799999 246.876 0.899999 247.116 1.1C247.356 1.3 247.476 1.59333 247.476 1.98V13.92C247.476 14.3067 247.356 14.6067 247.116 14.82C246.876 15.02 246.576 15.12 246.216 15.12ZM256.724 15.12C256.364 15.12 256.064 15.02 255.824 14.82C255.597 14.6067 255.484 14.3067 255.484 13.92V1.98C255.484 1.59333 255.597 1.3 255.824 1.1C256.064 0.899999 256.364 0.799999 256.724 0.799999C257.084 0.799999 257.384 0.899999 257.624 1.1C257.864 1.3 257.984 1.59333 257.984 1.98V13.92C257.984 14.3067 257.864 14.6067 257.624 14.82C257.384 15.02 257.084 15.12 256.724 15.12ZM261.802 15.12C261.442 15.12 261.142 15.02 260.902 14.82C260.675 14.6067 260.562 14.3067 260.562 13.92V6.2C260.562 5.81333 260.675 5.52 260.902 5.32C261.142 5.12 261.442 5.02 261.802 5.02C262.162 5.02 262.462 5.12 262.702 5.32C262.942 5.52 263.062 5.81333 263.062 6.2V13.92C263.062 14.3067 262.942 14.6067 262.702 14.82C262.462 15.02 262.162 15.12 261.802 15.12ZM261.802 3.24C261.348 3.24 260.988 3.12 260.722 2.88C260.455 2.62667 260.322 2.3 260.322 1.9C260.322 1.5 260.455 1.18 260.722 0.94C260.988 0.7 261.348 0.58 261.802 0.58C262.242 0.58 262.595 0.7 262.862 0.94C263.142 1.18 263.282 1.5 263.282 1.9C263.282 2.3 263.148 2.62667 262.882 2.88C262.615 3.12 262.255 3.24 261.802 3.24ZM271.32 4.98C272.493 4.98 273.367 5.31333 273.94 5.98C274.513 6.64667 274.8 7.65333 274.8 9V13.92C274.8 14.2933 274.687 14.5867 274.46 14.8C274.247 15.0133 273.947 15.12 273.56 15.12C273.173 15.12 272.867 15.0133 272.64 14.8C272.413 14.5867 272.3 14.2933 272.3 13.92V9.14C272.3 8.38 272.153 7.82667 271.86 7.48C271.58 7.13333 271.133 6.96 270.52 6.96C269.8 6.96 269.22 7.18667 268.78 7.64C268.353 8.09333 268.14 8.7 268.14 9.46V13.92C268.14 14.2933 268.027 14.5867 267.8 14.8C267.573 15.0133 267.267 15.12 266.88 15.12C266.493 15.12 266.187 15.0133 265.96 14.8C265.747 14.5867 265.64 14.2933 265.64 13.92V6.18C265.64 5.83333 265.753 5.55333 265.98 5.34C266.207 5.12667 266.513 5.02 266.9 5.02C267.247 5.02 267.527 5.12667 267.74 5.34C267.967 5.54 268.08 5.80667 268.08 6.14V6.68C268.413 6.13333 268.86 5.71333 269.42 5.42C269.98 5.12667 270.613 4.98 271.32 4.98ZM285.079 12.32C285.306 12.32 285.486 12.4067 285.619 12.58C285.766 12.7533 285.839 12.9867 285.839 13.28C285.839 13.6933 285.592 14.04 285.099 14.32C284.646 14.5733 284.132 14.78 283.559 14.94C282.986 15.0867 282.439 15.16 281.919 15.16C280.346 15.16 279.099 14.7067 278.179 13.8C277.259 12.8933 276.799 11.6533 276.799 10.08C276.799 9.08 276.999 8.19333 277.399 7.42C277.799 6.64667 278.359 6.04667 279.079 5.62C279.812 5.19333 280.639 4.98 281.559 4.98C282.439 4.98 283.206 5.17333 283.859 5.56C284.512 5.94667 285.019 6.49333 285.379 7.2C285.739 7.90667 285.919 8.74 285.919 9.7C285.919 10.2733 285.666 10.56 285.159 10.56H279.259C279.339 11.48 279.599 12.16 280.039 12.6C280.479 13.0267 281.119 13.24 281.959 13.24C282.386 13.24 282.759 13.1867 283.079 13.08C283.412 12.9733 283.786 12.8267 284.199 12.64C284.599 12.4267 284.892 12.32 285.079 12.32ZM281.619 6.74C280.939 6.74 280.392 6.95333 279.979 7.38C279.579 7.80667 279.339 8.42 279.259 9.22H283.779C283.752 8.40667 283.552 7.79333 283.179 7.38C282.806 6.95333 282.286 6.74 281.619 6.74ZM289.144 15.12C288.717 15.12 288.364 14.98 288.084 14.7C287.804 14.4067 287.664 14.0467 287.664 13.62C287.664 13.1933 287.804 12.84 288.084 12.56C288.364 12.2667 288.717 12.12 289.144 12.12C289.571 12.12 289.924 12.2667 290.204 12.56C290.484 12.84 290.624 13.1933 290.624 13.62C290.624 14.0467 290.484 14.4067 290.204 14.7C289.924 14.98 289.571 15.12 289.144 15.12Z" fill="#444444"/>
<path d="M25.8434 60.2C25.2567 60.2 24.67 60.1533 24.0834 60.06C23.4967 59.98 22.9434 59.8533 22.4234 59.68C21.9034 59.4933 21.4367 59.2667 21.0234 59C20.7834 58.84 20.6167 58.6467 20.5234 58.42C20.43 58.1933 20.3967 57.9733 20.4234 57.76C20.4634 57.5333 20.55 57.34 20.6834 57.18C20.83 57.0067 21.01 56.9 21.2234 56.86C21.4367 56.82 21.67 56.88 21.9234 57.04C22.51 57.3867 23.13 57.64 23.7834 57.8C24.4367 57.96 25.1234 58.04 25.8434 58.04C26.8967 58.04 27.6634 57.8667 28.1434 57.52C28.6234 57.16 28.8634 56.7 28.8634 56.14C28.8634 55.6733 28.69 55.3067 28.3434 55.04C28.01 54.7733 27.43 54.5533 26.6034 54.38L24.4034 53.92C23.1367 53.6533 22.19 53.2067 21.5634 52.58C20.95 51.94 20.6434 51.1 20.6434 50.06C20.6434 49.4067 20.7767 48.8133 21.0434 48.28C21.31 47.7467 21.6834 47.2867 22.1634 46.9C22.6567 46.5133 23.2367 46.22 23.9034 46.02C24.5834 45.8067 25.33 45.7 26.1434 45.7C26.9434 45.7 27.7034 45.8 28.4234 46C29.1434 46.2 29.79 46.4933 30.3634 46.88C30.5767 47.0267 30.7167 47.2067 30.7834 47.42C30.8634 47.6333 30.8834 47.8467 30.8434 48.06C30.8034 48.26 30.71 48.4333 30.5634 48.58C30.4167 48.7267 30.23 48.8133 30.0034 48.84C29.79 48.8667 29.5434 48.8 29.2634 48.64C28.77 48.36 28.27 48.16 27.7634 48.04C27.2567 47.92 26.71 47.86 26.1234 47.86C25.51 47.86 24.9834 47.9467 24.5434 48.12C24.1034 48.2933 23.7634 48.54 23.5234 48.86C23.2967 49.1667 23.1834 49.5333 23.1834 49.96C23.1834 50.44 23.3434 50.8267 23.6634 51.12C23.9834 51.4 24.53 51.62 25.3034 51.78L27.4834 52.24C28.8034 52.52 29.7834 52.96 30.4234 53.56C31.0767 54.16 31.4034 54.96 31.4034 55.96C31.4034 56.6 31.27 57.18 31.0034 57.7C30.75 58.22 30.3767 58.6667 29.8834 59.04C29.4034 59.4133 28.8234 59.7 28.1434 59.9C27.4634 60.1 26.6967 60.2 25.8434 60.2ZM36.7005 60.2C35.5939 60.2 34.7605 59.8867 34.2005 59.26C33.6405 58.62 33.3605 57.6867 33.3605 56.46V47C33.3605 46.5867 33.4672 46.2733 33.6805 46.06C33.8939 45.8467 34.2005 45.74 34.6005 45.74C35.0005 45.74 35.3072 45.8467 35.5205 46.06C35.7472 46.2733 35.8605 46.5867 35.8605 47V56.34C35.8605 56.9533 35.9872 57.4067 36.2405 57.7C36.5072 57.9933 36.8805 58.14 37.3605 58.14C37.4672 58.14 37.5672 58.14 37.6605 58.14C37.7539 58.1267 37.8472 58.1133 37.9405 58.1C38.1272 58.0733 38.2539 58.1267 38.3205 58.26C38.3872 58.38 38.4205 58.6333 38.4205 59.02C38.4205 59.3533 38.3539 59.6133 38.2205 59.8C38.0872 59.9867 37.8672 60.1 37.5605 60.14C37.4272 60.1533 37.2872 60.1667 37.1405 60.18C36.9939 60.1933 36.8472 60.2 36.7005 60.2ZM44.1096 60.2C43.0963 60.2 42.2163 59.9933 41.4696 59.58C40.7229 59.1667 40.1429 58.58 39.7296 57.82C39.3163 57.0467 39.1096 56.14 39.1096 55.1C39.1096 54.3133 39.2229 53.6133 39.4496 53C39.6896 52.3733 40.0296 51.84 40.4696 51.4C40.9096 50.9467 41.4363 50.6067 42.0496 50.38C42.6629 50.14 43.3496 50.02 44.1096 50.02C45.1229 50.02 46.0029 50.2267 46.7496 50.64C47.4963 51.0533 48.0763 51.64 48.4896 52.4C48.9029 53.16 49.1096 54.06 49.1096 55.1C49.1096 55.8867 48.9896 56.5933 48.7496 57.22C48.5229 57.8467 48.1896 58.3867 47.7496 58.84C47.3096 59.28 46.7829 59.62 46.1696 59.86C45.5563 60.0867 44.8696 60.2 44.1096 60.2ZM44.1096 58.3C44.6029 58.3 45.0363 58.18 45.4096 57.94C45.7829 57.7 46.0696 57.3467 46.2696 56.88C46.4829 56.4 46.5896 55.8067 46.5896 55.1C46.5896 54.0333 46.3629 53.24 45.9096 52.72C45.4563 52.1867 44.8563 51.92 44.1096 51.92C43.6163 51.92 43.1829 52.04 42.8096 52.28C42.4363 52.5067 42.1429 52.86 41.9296 53.34C41.7296 53.8067 41.6296 54.3933 41.6296 55.1C41.6296 56.1533 41.8563 56.9533 42.3096 57.5C42.7629 58.0333 43.3629 58.3 44.1096 58.3ZM52.413 63.76C52.013 63.76 51.7064 63.6533 51.493 63.44C51.2797 63.2267 51.173 62.9133 51.173 62.5V51.32C51.173 50.9067 51.2797 50.5933 51.493 50.38C51.7064 50.1667 52.0064 50.06 52.393 50.06C52.793 50.06 53.0997 50.1667 53.313 50.38C53.5264 50.5933 53.633 50.9067 53.633 51.32V52.88L53.413 52.28C53.613 51.6 54.0197 51.0533 54.633 50.64C55.2597 50.2267 55.9864 50.02 56.813 50.02C57.6664 50.02 58.413 50.2267 59.053 50.64C59.7064 51.0533 60.213 51.64 60.573 52.4C60.933 53.1467 61.113 54.0467 61.113 55.1C61.113 56.14 60.933 57.0467 60.573 57.82C60.213 58.58 59.713 59.1667 59.073 59.58C58.433 59.9933 57.6797 60.2 56.813 60.2C55.9997 60.2 55.2864 60 54.673 59.6C54.0597 59.1867 53.6464 58.6533 53.433 58H53.673V62.5C53.673 62.9133 53.5597 63.2267 53.333 63.44C53.1197 63.6533 52.813 63.76 52.413 63.76ZM56.113 58.3C56.6064 58.3 57.0397 58.18 57.413 57.94C57.7864 57.7 58.073 57.3467 58.273 56.88C58.4864 56.4 58.593 55.8067 58.593 55.1C58.593 54.0333 58.3664 53.24 57.913 52.72C57.4597 52.1867 56.8597 51.92 56.113 51.92C55.6197 51.92 55.1864 52.04 54.813 52.28C54.4397 52.5067 54.1464 52.86 53.933 53.34C53.733 53.8067 53.633 54.3933 53.633 55.1C53.633 56.1533 53.8597 56.9533 54.313 57.5C54.7664 58.0333 55.3664 58.3 56.113 58.3ZM67.9852 60.2C66.8786 60.2 65.9252 59.9933 65.1252 59.58C64.3252 59.1667 63.7052 58.58 63.2652 57.82C62.8386 57.06 62.6252 56.16 62.6252 55.12C62.6252 54.1067 62.8319 53.22 63.2452 52.46C63.6719 51.7 64.2519 51.1067 64.9852 50.68C65.7319 50.24 66.5786 50.02 67.5252 50.02C68.2186 50.02 68.8386 50.1333 69.3852 50.36C69.9452 50.5867 70.4186 50.9133 70.8052 51.34C71.2052 51.7667 71.5052 52.2867 71.7052 52.9C71.9186 53.5 72.0252 54.18 72.0252 54.94C72.0252 55.18 71.9386 55.3667 71.7652 55.5C71.6052 55.62 71.3719 55.68 71.0652 55.68H64.6452V54.24H70.2652L69.9452 54.54C69.9452 53.9267 69.8519 53.4133 69.6652 53C69.4919 52.5867 69.2319 52.2733 68.8852 52.06C68.5519 51.8333 68.1319 51.72 67.6252 51.72C67.0652 51.72 66.5852 51.8533 66.1852 52.12C65.7986 52.3733 65.4986 52.74 65.2852 53.22C65.0852 53.6867 64.9852 54.2467 64.9852 54.9V55.04C64.9852 56.1333 65.2386 56.9533 65.7452 57.5C66.2652 58.0333 67.0252 58.3 68.0252 58.3C68.3719 58.3 68.7586 58.26 69.1852 58.18C69.6252 58.0867 70.0386 57.9333 70.4252 57.72C70.7052 57.56 70.9519 57.4933 71.1652 57.52C71.3786 57.5333 71.5452 57.6067 71.6652 57.74C71.7986 57.8733 71.8786 58.04 71.9052 58.24C71.9319 58.4267 71.8919 58.62 71.7852 58.82C71.6919 59.02 71.5252 59.1933 71.2852 59.34C70.8186 59.6333 70.2786 59.8533 69.6652 60C69.0652 60.1333 68.5052 60.2 67.9852 60.2ZM85.4245 53.14C85.1445 53.14 84.9245 53.0667 84.7645 52.92C84.6045 52.76 84.5245 52.54 84.5245 52.26C84.5245 51.98 84.6045 51.7667 84.7645 51.62C84.9245 51.46 85.1445 51.38 85.4245 51.38H93.7045C93.9978 51.38 94.2178 51.46 94.3645 51.62C94.5245 51.7667 94.6045 51.98 94.6045 52.26C94.6045 52.54 94.5245 52.76 94.3645 52.92C94.2178 53.0667 93.9978 53.14 93.7045 53.14H85.4245ZM85.4245 57.12C85.1445 57.12 84.9245 57.0467 84.7645 56.9C84.6045 56.74 84.5245 56.52 84.5245 56.24C84.5245 55.96 84.6045 55.7467 84.7645 55.6C84.9245 55.4533 85.1445 55.38 85.4245 55.38H93.7045C93.9978 55.38 94.2178 55.4533 94.3645 55.6C94.5245 55.7467 94.6045 55.96 94.6045 56.24C94.6045 56.5333 94.5245 56.7533 94.3645 56.9C94.2178 57.0467 93.9978 57.12 93.7045 57.12H85.4245Z" fill="#1A1A1A"/>
<path d="M188.364 53.14C188.084 53.14 187.864 53.0667 187.704 52.92C187.544 52.76 187.464 52.54 187.464 52.26C187.464 51.98 187.544 51.7667 187.704 51.62C187.864 51.46 188.084 51.38 188.364 51.38H196.644C196.937 51.38 197.157 51.46 197.304 51.62C197.464 51.7667 197.544 51.98 197.544 52.26C197.544 52.54 197.464 52.76 197.304 52.92C197.157 53.0667 196.937 53.14 196.644 53.14H188.364ZM188.364 57.12C188.084 57.12 187.864 57.0467 187.704 56.9C187.544 56.74 187.464 56.52 187.464 56.24C187.464 55.96 187.544 55.7467 187.704 55.6C187.864 55.4533 188.084 55.38 188.364 55.38H196.644C196.937 55.38 197.157 55.4533 197.304 55.6C197.464 55.7467 197.544 55.96 197.544 56.24C197.544 56.5333 197.464 56.7533 197.304 56.9C197.157 57.0467 196.937 57.12 196.644 57.12H188.364Z" fill="#1A1A1A"/>
<path d="M241.364 53.14C241.084 53.14 240.864 53.0667 240.704 52.92C240.544 52.76 240.464 52.54 240.464 52.26C240.464 51.98 240.544 51.7667 240.704 51.62C240.864 51.46 241.084 51.38 241.364 51.38H249.644C249.937 51.38 250.157 51.46 250.304 51.62C250.464 51.7667 250.544 51.98 250.544 52.26C250.544 52.54 250.464 52.76 250.304 52.92C250.157 53.0667 249.937 53.14 249.644 53.14H241.364ZM241.364 57.12C241.084 57.12 240.864 57.0467 240.704 56.9C240.544 56.74 240.464 56.52 240.464 56.24C240.464 55.96 240.544 55.7467 240.704 55.6C240.864 55.4533 241.084 55.38 241.364 55.38H249.644C249.937 55.38 250.157 55.4533 250.304 55.6C250.464 55.7467 250.544 55.96 250.544 56.24C250.544 56.5333 250.464 56.7533 250.304 56.9C250.157 57.0467 249.937 57.12 249.644 57.12H241.364Z" fill="#1A1A1A"/>
<path d="M119.414 50.26C118.588 48.9533 117.988 47.58 117.614 46.14C117.254 44.6867 117.074 43.22 117.074 41.74C117.074 40.7533 117.154 39.7733 117.314 38.8C117.474 37.8267 117.728 36.8733 118.074 35.94C118.421 34.9933 118.868 34.0867 119.414 33.22C119.561 32.98 119.754 32.8333 119.994 32.78C120.248 32.7133 120.481 32.7267 120.694 32.82C120.921 32.9133 121.088 33.0867 121.194 33.34C121.301 33.58 121.288 33.8867 121.154 34.26C120.834 35.1133 120.568 35.9533 120.354 36.78C120.154 37.5933 120.001 38.4067 119.894 39.22C119.801 40.0333 119.754 40.8733 119.754 41.74C119.754 42.6067 119.808 43.4467 119.914 44.26C120.021 45.0733 120.181 45.8867 120.394 46.7C120.608 47.5133 120.861 48.3533 121.154 49.22C121.288 49.5933 121.301 49.9 121.194 50.14C121.088 50.3933 120.921 50.5667 120.694 50.66C120.481 50.7533 120.248 50.7667 119.994 50.7C119.754 50.6467 119.561 50.5 119.414 50.26ZM128.242 47.2C126.576 47.2 125.302 46.5733 124.422 45.32C123.542 44.0533 123.102 42.2533 123.102 39.92C123.102 38.3467 123.296 37.0267 123.682 35.96C124.082 34.88 124.662 34.0667 125.422 33.52C126.196 32.9733 127.136 32.7 128.242 32.7C129.922 32.7 131.196 33.3133 132.062 34.54C132.942 35.7667 133.382 37.5533 133.382 39.9C133.382 41.46 133.182 42.7867 132.782 43.88C132.396 44.96 131.822 45.7867 131.062 46.36C130.302 46.92 129.362 47.2 128.242 47.2ZM128.242 45.1C129.149 45.1 129.816 44.68 130.242 43.84C130.682 43 130.902 41.6867 130.902 39.9C130.902 38.1133 130.682 36.82 130.242 36.02C129.816 35.2067 129.149 34.8 128.242 34.8C127.349 34.8 126.682 35.2067 126.242 36.02C125.802 36.82 125.582 38.1133 125.582 39.9C125.582 41.6867 125.802 43 126.242 43.84C126.682 44.68 127.349 45.1 128.242 45.1ZM141.884 42.64C141.591 42.64 141.344 42.5467 141.144 42.36C140.957 42.16 140.864 41.92 140.864 41.64C140.864 41.3467 140.957 41.1067 141.144 40.92C141.344 40.7333 141.591 40.64 141.884 40.64H146.144C146.424 40.64 146.657 40.7333 146.844 40.92C147.044 41.1067 147.144 41.3467 147.144 41.64C147.144 41.92 147.044 42.16 146.844 42.36C146.657 42.5467 146.424 42.64 146.144 42.64H141.884ZM159.766 47.2C158.099 47.2 156.826 46.5733 155.946 45.32C155.066 44.0533 154.626 42.2533 154.626 39.92C154.626 38.3467 154.819 37.0267 155.206 35.96C155.606 34.88 156.186 34.0667 156.946 33.52C157.719 32.9733 158.659 32.7 159.766 32.7C161.446 32.7 162.719 33.3133 163.586 34.54C164.466 35.7667 164.906 37.5533 164.906 39.9C164.906 41.46 164.706 42.7867 164.306 43.88C163.919 44.96 163.346 45.7867 162.586 46.36C161.826 46.92 160.886 47.2 159.766 47.2ZM159.766 45.1C160.672 45.1 161.339 44.68 161.766 43.84C162.206 43 162.426 41.6867 162.426 39.9C162.426 38.1133 162.206 36.82 161.766 36.02C161.339 35.2067 160.672 34.8 159.766 34.8C158.872 34.8 158.206 35.2067 157.766 36.02C157.326 36.82 157.106 38.1133 157.106 39.9C157.106 41.6867 157.326 43 157.766 43.84C158.206 44.68 158.872 45.1 159.766 45.1ZM168.578 50.26C168.431 50.5 168.231 50.6467 167.978 50.7C167.738 50.7667 167.504 50.7467 167.278 50.64C167.051 50.5467 166.884 50.38 166.778 50.14C166.684 49.9 166.704 49.5933 166.838 49.22C167.171 48.3533 167.438 47.5133 167.638 46.7C167.838 45.8867 167.984 45.0733 168.078 44.26C168.184 43.4467 168.238 42.6067 168.238 41.74C168.238 40.8733 168.184 40.0333 168.078 39.22C167.971 38.4067 167.811 37.5933 167.598 36.78C167.398 35.9667 167.144 35.1267 166.838 34.26C166.704 33.8867 166.691 33.58 166.798 33.34C166.904 33.0867 167.071 32.9133 167.298 32.82C167.524 32.7267 167.758 32.7133 167.998 32.78C168.238 32.8333 168.431 32.98 168.578 33.22C169.391 34.5133 169.984 35.8867 170.358 37.34C170.731 38.7933 170.918 40.26 170.918 41.74C170.918 42.7267 170.831 43.7067 170.658 44.68C170.498 45.6533 170.244 46.6067 169.898 47.54C169.564 48.4867 169.124 49.3933 168.578 50.26Z" fill="#C882FA"/>
<path d="M268 61.2C266.333 61.2 265.06 60.5733 264.18 59.32C263.3 58.0533 262.86 56.2533 262.86 53.92C262.86 52.3467 263.053 51.0267 263.44 49.96C263.84 48.88 264.42 48.0667 265.18 47.52C265.953 46.9733 266.893 46.7 268 46.7C269.68 46.7 270.953 47.3133 271.82 48.54C272.7 49.7667 273.14 51.5533 273.14 53.9C273.14 55.46 272.94 56.7867 272.54 57.88C272.153 58.96 271.58 59.7867 270.82 60.36C270.06 60.92 269.12 61.2 268 61.2ZM268 59.1C268.907 59.1 269.573 58.68 270 57.84C270.44 57 270.66 55.6867 270.66 53.9C270.66 52.1133 270.44 50.82 270 50.02C269.573 49.2067 268.907 48.8 268 48.8C267.107 48.8 266.44 49.2067 266 50.02C265.56 50.82 265.34 52.1133 265.34 53.9C265.34 55.6867 265.56 57 266 57.84C266.44 58.68 267.107 59.1 268 59.1Z" fill="#1A1A1A"/>
<path d="M107.41 80.26C106.584 78.9533 105.984 77.58 105.61 76.14C105.25 74.6867 105.07 73.22 105.07 71.74C105.07 70.7533 105.15 69.7733 105.31 68.8C105.47 67.8267 105.724 66.8733 106.07 65.94C106.417 64.9933 106.864 64.0867 107.41 63.22C107.557 62.98 107.75 62.8333 107.99 62.78C108.244 62.7133 108.477 62.7267 108.69 62.82C108.917 62.9133 109.084 63.0867 109.19 63.34C109.297 63.58 109.284 63.8867 109.15 64.26C108.83 65.1133 108.564 65.9533 108.35 66.78C108.15 67.5933 107.997 68.4067 107.89 69.22C107.797 70.0333 107.75 70.8733 107.75 71.74C107.75 72.6067 107.804 73.4467 107.91 74.26C108.017 75.0733 108.177 75.8867 108.39 76.7C108.604 77.5133 108.857 78.3533 109.15 79.22C109.284 79.5933 109.297 79.9 109.19 80.14C109.084 80.3933 108.917 80.5667 108.69 80.66C108.477 80.7533 108.244 80.7667 107.99 80.7C107.75 80.6467 107.557 80.5 107.41 80.26ZM116.358 77.2C115.652 77.2 114.932 77.1067 114.198 76.92C113.465 76.7333 112.792 76.4467 112.178 76.06C111.925 75.9 111.752 75.7133 111.658 75.5C111.578 75.2733 111.558 75.0533 111.598 74.84C111.652 74.6133 111.752 74.4267 111.898 74.28C112.058 74.12 112.245 74.0267 112.458 74C112.685 73.9733 112.932 74.0333 113.198 74.18C113.692 74.46 114.192 74.6733 114.698 74.82C115.205 74.9667 115.745 75.04 116.318 75.04C116.878 75.04 117.358 74.94 117.758 74.74C118.158 74.54 118.465 74.26 118.678 73.9C118.892 73.54 118.998 73.12 118.998 72.64C118.998 71.8933 118.772 71.2933 118.318 70.84C117.865 70.3733 117.245 70.14 116.458 70.14C116.032 70.14 115.618 70.2133 115.218 70.36C114.818 70.4933 114.425 70.7333 114.038 71.08C113.918 71.1867 113.765 71.2933 113.578 71.4C113.392 71.4933 113.192 71.54 112.978 71.54C112.645 71.54 112.392 71.4533 112.218 71.28C112.045 71.1067 111.958 70.8667 111.958 70.56V64.02C111.958 63.66 112.052 63.3867 112.238 63.2C112.438 63 112.718 62.9 113.078 62.9H119.658C120.018 62.9 120.292 62.9933 120.478 63.18C120.678 63.3533 120.778 63.6133 120.778 63.96C120.778 64.2933 120.678 64.5533 120.478 64.74C120.292 64.9267 120.018 65.02 119.658 65.02H114.458V69.5H113.798C114.145 69.0333 114.605 68.6733 115.178 68.42C115.752 68.1667 116.378 68.04 117.058 68.04C117.952 68.04 118.725 68.2333 119.378 68.62C120.045 68.9933 120.558 69.52 120.918 70.2C121.292 70.8667 121.478 71.6467 121.478 72.54C121.478 73.46 121.272 74.2733 120.858 74.98C120.445 75.6733 119.852 76.22 119.078 76.62C118.318 77.0067 117.412 77.2 116.358 77.2ZM129.88 72.64C129.587 72.64 129.34 72.5467 129.14 72.36C128.953 72.16 128.86 71.92 128.86 71.64C128.86 71.3467 128.953 71.1067 129.14 70.92C129.34 70.7333 129.587 70.64 129.88 70.64H134.14C134.42 70.64 134.653 70.7333 134.84 70.92C135.04 71.1067 135.14 71.3467 135.14 71.64C135.14 71.92 135.04 72.16 134.84 72.36C134.653 72.5467 134.42 72.64 134.14 72.64H129.88ZM146.102 80.26C145.275 78.9533 144.675 77.58 144.302 76.14C143.942 74.6867 143.762 73.22 143.762 71.74C143.762 70.7533 143.842 69.7733 144.002 68.8C144.162 67.8267 144.415 66.8733 144.762 65.94C145.108 64.9933 145.555 64.0867 146.102 63.22C146.248 62.98 146.442 62.8333 146.682 62.78C146.935 62.7133 147.168 62.7267 147.382 62.82C147.608 62.9133 147.775 63.0867 147.882 63.34C147.988 63.58 147.975 63.8867 147.842 64.26C147.522 65.1133 147.255 65.9533 147.042 66.78C146.842 67.5933 146.688 68.4067 146.582 69.22C146.488 70.0333 146.442 70.8733 146.442 71.74C146.442 72.6067 146.495 73.4467 146.602 74.26C146.708 75.0733 146.868 75.8867 147.082 76.7C147.295 77.5133 147.548 78.3533 147.842 79.22C147.975 79.5933 147.988 79.9 147.882 80.14C147.775 80.3933 147.608 80.5667 147.382 80.66C147.168 80.7533 146.935 80.7667 146.682 80.7C146.442 80.6467 146.248 80.5 146.102 80.26ZM151.15 72.64C150.856 72.64 150.61 72.5467 150.41 72.36C150.223 72.16 150.13 71.92 150.13 71.64C150.13 71.3467 150.223 71.1067 150.41 70.92C150.61 70.7333 150.856 70.64 151.15 70.64H155.41C155.69 70.64 155.923 70.7333 156.11 70.92C156.31 71.1067 156.41 71.3467 156.41 71.64C156.41 71.92 156.31 72.16 156.11 72.36C155.923 72.5467 155.69 72.64 155.41 72.64H151.15ZM163.722 77.2C163.015 77.2 162.295 77.1067 161.562 76.92C160.828 76.7333 160.155 76.4467 159.542 76.06C159.288 75.9 159.115 75.7133 159.022 75.5C158.942 75.2733 158.922 75.0533 158.962 74.84C159.015 74.6133 159.115 74.4267 159.262 74.28C159.422 74.12 159.608 74.0267 159.822 74C160.048 73.9733 160.295 74.0333 160.562 74.18C161.055 74.46 161.555 74.6733 162.062 74.82C162.568 74.9667 163.108 75.04 163.682 75.04C164.242 75.04 164.722 74.94 165.122 74.74C165.522 74.54 165.828 74.26 166.042 73.9C166.255 73.54 166.362 73.12 166.362 72.64C166.362 71.8933 166.135 71.2933 165.682 70.84C165.228 70.3733 164.608 70.14 163.822 70.14C163.395 70.14 162.982 70.2133 162.582 70.36C162.182 70.4933 161.788 70.7333 161.402 71.08C161.282 71.1867 161.128 71.2933 160.942 71.4C160.755 71.4933 160.555 71.54 160.342 71.54C160.008 71.54 159.755 71.4533 159.582 71.28C159.408 71.1067 159.322 70.8667 159.322 70.56V64.02C159.322 63.66 159.415 63.3867 159.602 63.2C159.802 63 160.082 62.9 160.442 62.9H167.022C167.382 62.9 167.655 62.9933 167.842 63.18C168.042 63.3533 168.142 63.6133 168.142 63.96C168.142 64.2933 168.042 64.5533 167.842 64.74C167.655 64.9267 167.382 65.02 167.022 65.02H161.822V69.5H161.162C161.508 69.0333 161.968 68.6733 162.542 68.42C163.115 68.1667 163.742 68.04 164.422 68.04C165.315 68.04 166.088 68.2333 166.742 68.62C167.408 68.9933 167.922 69.52 168.282 70.2C168.655 70.8667 168.842 71.6467 168.842 72.54C168.842 73.46 168.635 74.2733 168.222 74.98C167.808 75.6733 167.215 76.22 166.442 76.62C165.682 77.0067 164.775 77.2 163.722 77.2ZM172.414 80.26C172.267 80.5 172.067 80.6467 171.814 80.7C171.574 80.7667 171.34 80.7467 171.114 80.64C170.887 80.5467 170.72 80.38 170.614 80.14C170.52 79.9 170.54 79.5933 170.674 79.22C171.007 78.3533 171.274 77.5133 171.474 76.7C171.674 75.8867 171.82 75.0733 171.914 74.26C172.02 73.4467 172.074 72.6067 172.074 71.74C172.074 70.8733 172.02 70.0333 171.914 69.22C171.807 68.4067 171.647 67.5933 171.434 66.78C171.234 65.9667 170.98 65.1267 170.674 64.26C170.54 63.8867 170.527 63.58 170.634 63.34C170.74 63.0867 170.907 62.9133 171.134 62.82C171.36 62.7267 171.594 62.7133 171.834 62.78C172.074 62.8333 172.267 62.98 172.414 63.22C173.227 64.5133 173.82 65.8867 174.194 67.34C174.567 68.7933 174.754 70.26 174.754 71.74C174.754 72.7267 174.667 73.7067 174.494 74.68C174.334 75.6533 174.08 76.6067 173.734 77.54C173.4 78.4867 172.96 79.3933 172.414 80.26ZM179.582 80.26C179.435 80.5 179.235 80.6467 178.982 80.7C178.742 80.7667 178.508 80.7467 178.282 80.64C178.055 80.5467 177.888 80.38 177.782 80.14C177.688 79.9 177.708 79.5933 177.842 79.22C178.175 78.3533 178.442 77.5133 178.642 76.7C178.842 75.8867 178.988 75.0733 179.082 74.26C179.188 73.4467 179.242 72.6067 179.242 71.74C179.242 70.8733 179.188 70.0333 179.082 69.22C178.975 68.4067 178.815 67.5933 178.602 66.78C178.402 65.9667 178.148 65.1267 177.842 64.26C177.708 63.8867 177.695 63.58 177.802 63.34C177.908 63.0867 178.075 62.9133 178.302 62.82C178.528 62.7267 178.762 62.7133 179.002 62.78C179.242 62.8333 179.435 62.98 179.582 63.22C180.395 64.5133 180.988 65.8867 181.362 67.34C181.735 68.7933 181.922 70.26 181.922 71.74C181.922 72.7267 181.835 73.7067 181.662 74.68C181.502 75.6533 181.248 76.6067 180.902 77.54C180.568 78.4867 180.128 79.3933 179.582 80.26Z" fill="#FF8F1F"/>
<path d="M108 55L180 55" stroke="#1A1A1A" stroke-width="2"/>
<path d="M219.004 47.2C217.337 47.2 216.064 46.5733 215.184 45.32C214.304 44.0533 213.864 42.2533 213.864 39.92C213.864 38.3467 214.057 37.0267 214.444 35.96C214.844 34.88 215.424 34.0667 216.184 33.52C216.957 32.9733 217.897 32.7 219.004 32.7C220.684 32.7 221.957 33.3133 222.824 34.54C223.704 35.7667 224.144 37.5533 224.144 39.9C224.144 41.46 223.944 42.7867 223.544 43.88C223.157 44.96 222.584 45.7867 221.824 46.36C221.064 46.92 220.124 47.2 219.004 47.2ZM219.004 45.1C219.911 45.1 220.577 44.68 221.004 43.84C221.444 43 221.664 41.6867 221.664 39.9C221.664 38.1133 221.444 36.82 221.004 36.02C220.577 35.2067 219.911 34.8 219.004 34.8C218.111 34.8 217.444 35.2067 217.004 36.02C216.564 36.82 216.344 38.1133 216.344 39.9C216.344 41.6867 216.564 43 217.004 43.84C217.444 44.68 218.111 45.1 219.004 45.1Z" fill="#C882FA"/>
<path d="M210.128 77C209.781 77 209.508 76.9067 209.308 76.72C209.121 76.52 209.028 76.2533 209.028 75.92C209.028 75.5733 209.121 75.3133 209.308 75.14C209.508 74.9667 209.781 74.88 210.128 74.88H212.368V65.06H213.608L210.668 66.84C210.414 66.9867 210.174 67.0467 209.948 67.02C209.734 66.98 209.548 66.8867 209.388 66.74C209.241 66.58 209.141 66.3933 209.088 66.18C209.034 65.9667 209.048 65.7533 209.128 65.54C209.221 65.3133 209.394 65.1267 209.648 64.98L212.408 63.32C212.674 63.16 212.941 63.0267 213.208 62.92C213.474 62.8 213.721 62.74 213.948 62.74C214.228 62.74 214.461 62.82 214.648 62.98C214.834 63.1267 214.928 63.3733 214.928 63.72V74.88H216.968C217.314 74.88 217.581 74.9667 217.768 75.14C217.968 75.3133 218.068 75.5733 218.068 75.92C218.068 76.2667 217.968 76.5333 217.768 76.72C217.581 76.9067 217.314 77 216.968 77H210.128ZM225 77.2C223.333 77.2 222.06 76.5733 221.18 75.32C220.3 74.0533 219.86 72.2533 219.86 69.92C219.86 68.3467 220.053 67.0267 220.44 65.96C220.84 64.88 221.42 64.0667 222.18 63.52C222.953 62.9733 223.893 62.7 225 62.7C226.68 62.7 227.953 63.3133 228.82 64.54C229.7 65.7667 230.14 67.5533 230.14 69.9C230.14 71.46 229.94 72.7867 229.54 73.88C229.153 74.96 228.58 75.7867 227.82 76.36C227.06 76.92 226.12 77.2 225 77.2ZM225 75.1C225.907 75.1 226.573 74.68 227 73.84C227.44 73 227.66 71.6867 227.66 69.9C227.66 68.1133 227.44 66.82 227 66.02C226.573 65.2067 225.907 64.8 225 64.8C224.107 64.8 223.44 65.2067 223 66.02C222.56 66.82 222.34 68.1133 222.34 69.9C222.34 71.6867 222.56 73 223 73.84C223.44 74.68 224.107 75.1 225 75.1Z" fill="#FF8F1F"/>
<path d="M205 55L233 55" stroke="#1A1A1A" stroke-width="2"/>
</svg>
