<svg width="295" height="84" viewBox="0 0 295 84" fill="none" xmlns="http://www.w3.org/2000/svg">
<path d="M1.8675 15.16C1.5475 15.16 1.2875 15.0867 1.0875 14.94C0.900833 14.7933 0.7875 14.6 0.7475 14.36C0.7075 14.1067 0.754167 13.8267 0.8875 13.52L6.1675 1.82C6.34083 1.43333 6.5475 1.16 6.7875 0.999999C7.04083 0.826666 7.3275 0.739999 7.6475 0.739999C7.95417 0.739999 8.2275 0.826666 8.4675 0.999999C8.72083 1.16 8.93417 1.43333 9.1075 1.82L14.4075 13.52C14.5542 13.8267 14.6075 14.1067 14.5675 14.36C14.5275 14.6133 14.4142 14.8133 14.2275 14.96C14.0408 15.0933 13.7942 15.16 13.4875 15.16C13.1142 15.16 12.8208 15.0733 12.6075 14.9C12.4075 14.7133 12.2275 14.4333 12.0675 14.06L10.7675 11.04L11.8475 11.74H3.4075L4.4875 11.04L3.2075 14.06C3.03417 14.4467 2.85417 14.7267 2.6675 14.9C2.48083 15.0733 2.21417 15.16 1.8675 15.16ZM7.6075 3.68L4.8075 10.34L4.2875 9.7H10.9675L10.4675 10.34L7.6475 3.68H7.6075ZM22.4 15C22.1467 15 21.9333 14.94 21.76 14.82C21.6 14.6867 21.4933 14.52 21.44 14.32C21.3867 14.12 21.3867 13.9067 21.44 13.68C21.5067 13.44 21.6333 13.2133 21.82 13L27 6.5V7.1H22.28C21.9733 7.1 21.7333 7.02 21.56 6.86C21.4 6.68667 21.32 6.45333 21.32 6.16C21.32 5.85333 21.4 5.62 21.56 5.46C21.7333 5.3 21.9733 5.22 22.28 5.22H28.2C28.4933 5.22 28.7333 5.28667 28.92 5.42C29.1067 5.54 29.2267 5.7 29.28 5.9C29.3467 6.1 29.3533 6.31333 29.3 6.54C29.2467 6.76667 29.1267 6.98 28.94 7.18L23.66 13.78V13.12H28.66C29.3 13.12 29.62 13.4333 29.62 14.06C29.62 14.3533 29.5333 14.5867 29.36 14.76C29.2 14.92 28.9667 15 28.66 15H22.4ZM35.8973 15.2C34.7907 15.2 33.8373 14.9933 33.0373 14.58C32.2373 14.1667 31.6173 13.58 31.1773 12.82C30.7507 12.06 30.5373 11.16 30.5373 10.12C30.5373 9.10667 30.744 8.22 31.1573 7.46C31.584 6.7 32.164 6.10667 32.8973 5.68C33.644 5.24 34.4907 5.02 35.4373 5.02C36.1307 5.02 36.7507 5.13333 37.2973 5.36C37.8573 5.58667 38.3307 5.91333 38.7173 6.34C39.1173 6.76667 39.4173 7.28667 39.6173 7.9C39.8307 8.5 39.9373 9.18 39.9373 9.94C39.9373 10.18 39.8507 10.3667 39.6773 10.5C39.5173 10.62 39.284 10.68 38.9773 10.68H32.5573V9.24H38.1773L37.8573 9.54C37.8573 8.92667 37.764 8.41333 37.5773 8C37.404 7.58667 37.144 7.27333 36.7973 7.06C36.464 6.83333 36.044 6.72 35.5373 6.72C34.9773 6.72 34.4973 6.85333 34.0973 7.12C33.7107 7.37333 33.4107 7.74 33.1973 8.22C32.9973 8.68667 32.8973 9.24667 32.8973 9.9V10.04C32.8973 11.1333 33.1507 11.9533 33.6573 12.5C34.1773 13.0333 34.9373 13.3 35.9373 13.3C36.284 13.3 36.6707 13.26 37.0973 13.18C37.5373 13.0867 37.9507 12.9333 38.3373 12.72C38.6173 12.56 38.864 12.4933 39.0773 12.52C39.2907 12.5333 39.4573 12.6067 39.5773 12.74C39.7107 12.8733 39.7907 13.04 39.8173 13.24C39.844 13.4267 39.804 13.62 39.6973 13.82C39.604 14.02 39.4373 14.1933 39.1973 14.34C38.7307 14.6333 38.1907 14.8533 37.5773 15C36.9773 15.1333 36.4173 15.2 35.8973 15.2ZM43.1972 15.16C42.7839 15.16 42.4639 15.0533 42.2372 14.84C42.0239 14.6133 41.9172 14.2933 41.9172 13.88V6.32C41.9172 5.90667 42.0239 5.59333 42.2372 5.38C42.4505 5.16667 42.7505 5.06 43.1372 5.06C43.5239 5.06 43.8239 5.16667 44.0372 5.38C44.2505 5.59333 44.3572 5.90667 44.3572 6.32V7.58H44.1572C44.3439 6.78 44.7105 6.17333 45.2572 5.76C45.8039 5.34667 46.5305 5.1 47.4372 5.02C47.7172 4.99333 47.9372 5.06667 48.0972 5.24C48.2705 5.4 48.3705 5.65333 48.3972 6C48.4239 6.33333 48.3439 6.60667 48.1572 6.82C47.9839 7.02 47.7172 7.14 47.3572 7.18L46.9172 7.22C46.1039 7.3 45.4905 7.55333 45.0772 7.98C44.6639 8.39333 44.4572 8.98 44.4572 9.74V13.88C44.4572 14.2933 44.3505 14.6133 44.1372 14.84C43.9239 15.0533 43.6105 15.16 43.1972 15.16ZM54.053 15.2C53.0396 15.2 52.1596 14.9933 51.413 14.58C50.6663 14.1667 50.0863 13.58 49.673 12.82C49.2596 12.0467 49.053 11.14 49.053 10.1C49.053 9.31333 49.1663 8.61333 49.393 8C49.633 7.37333 49.973 6.84 50.413 6.4C50.853 5.94667 51.3796 5.60667 51.993 5.38C52.6063 5.14 53.293 5.02 54.053 5.02C55.0663 5.02 55.9463 5.22667 56.693 5.64C57.4396 6.05333 58.0196 6.64 58.433 7.4C58.8463 8.16 59.053 9.06 59.053 10.1C59.053 10.8867 58.933 11.5933 58.693 12.22C58.4663 12.8467 58.133 13.3867 57.693 13.84C57.253 14.28 56.7263 14.62 56.113 14.86C55.4996 15.0867 54.813 15.2 54.053 15.2ZM54.053 13.3C54.5463 13.3 54.9796 13.18 55.353 12.94C55.7263 12.7 56.013 12.3467 56.213 11.88C56.4263 11.4 56.533 10.8067 56.533 10.1C56.533 9.03333 56.3063 8.24 55.853 7.72C55.3996 7.18667 54.7996 6.92 54.053 6.92C53.5596 6.92 53.1263 7.04 52.753 7.28C52.3796 7.50667 52.0863 7.86 51.873 8.34C51.673 8.80667 51.573 9.39333 51.573 10.1C51.573 11.1533 51.7996 11.9533 52.253 12.5C52.7063 13.0333 53.3063 13.3 54.053 13.3ZM70.1261 15.2C69.5528 15.2 68.9461 15.14 68.3061 15.02C67.6661 14.9 67.0928 14.6933 66.5861 14.4C66.3728 14.2667 66.2194 14.1133 66.1261 13.94C66.0461 13.7533 66.0128 13.5733 66.0261 13.4C66.0528 13.2133 66.1194 13.0533 66.2261 12.92C66.3461 12.7867 66.4928 12.7 66.6661 12.66C66.8528 12.62 67.0528 12.6533 67.2661 12.76C67.7994 13.0133 68.2994 13.1933 68.7661 13.3C69.2328 13.3933 69.6928 13.44 70.1461 13.44C70.7861 13.44 71.2594 13.3333 71.5661 13.12C71.8861 12.8933 72.0461 12.6 72.0461 12.24C72.0461 11.9333 71.9394 11.7 71.7261 11.54C71.5261 11.3667 71.2194 11.24 70.8061 11.16L68.8061 10.78C67.9794 10.62 67.3461 10.32 66.9061 9.88C66.4794 9.42667 66.2661 8.84667 66.2661 8.14C66.2661 7.5 66.4394 6.94667 66.7861 6.48C67.1461 6.01333 67.6394 5.65333 68.2661 5.4C68.8928 5.14667 69.6128 5.02 70.4261 5.02C71.0128 5.02 71.5594 5.08667 72.0661 5.22C72.5861 5.34 73.0861 5.53333 73.5661 5.8C73.7661 5.90667 73.8994 6.04667 73.9661 6.22C74.0461 6.39333 74.0661 6.57333 74.0261 6.76C73.9861 6.93333 73.9061 7.09333 73.7861 7.24C73.6661 7.37333 73.5128 7.46 73.3261 7.5C73.1528 7.52667 72.9528 7.48667 72.7261 7.38C72.3128 7.16667 71.9128 7.01333 71.5261 6.92C71.1528 6.82667 70.7928 6.78 70.4461 6.78C69.7928 6.78 69.3061 6.89333 68.9861 7.12C68.6794 7.34667 68.5261 7.64667 68.5261 8.02C68.5261 8.3 68.6194 8.53333 68.8061 8.72C68.9928 8.90667 69.2794 9.03333 69.6661 9.1L71.6661 9.48C72.5328 9.64 73.1861 9.93333 73.6261 10.36C74.0794 10.7867 74.3061 11.36 74.3061 12.08C74.3061 13.0533 73.9261 13.82 73.1661 14.38C72.4061 14.9267 71.3928 15.2 70.1261 15.2ZM79.6517 15.2C78.5451 15.2 77.7117 14.8867 77.1517 14.26C76.5917 13.62 76.3117 12.6867 76.3117 11.46V2C76.3117 1.58667 76.4184 1.27333 76.6317 1.06C76.8451 0.846666 77.1517 0.739999 77.5517 0.739999C77.9517 0.739999 78.2584 0.846666 78.4717 1.06C78.6984 1.27333 78.8117 1.58667 78.8117 2V11.34C78.8117 11.9533 78.9384 12.4067 79.1917 12.7C79.4584 12.9933 79.8317 13.14 80.3117 13.14C80.4184 13.14 80.5184 13.14 80.6117 13.14C80.7051 13.1267 80.7984 13.1133 80.8917 13.1C81.0784 13.0733 81.2051 13.1267 81.2717 13.26C81.3384 13.38 81.3717 13.6333 81.3717 14.02C81.3717 14.3533 81.3051 14.6133 81.1717 14.8C81.0384 14.9867 80.8184 15.1 80.5117 15.14C80.3784 15.1533 80.2384 15.1667 80.0917 15.18C79.9451 15.1933 79.7984 15.2 79.6517 15.2ZM87.0608 15.2C86.0474 15.2 85.1674 14.9933 84.4208 14.58C83.6741 14.1667 83.0941 13.58 82.6808 12.82C82.2674 12.0467 82.0608 11.14 82.0608 10.1C82.0608 9.31333 82.1741 8.61333 82.4008 8C82.6408 7.37333 82.9808 6.84 83.4208 6.4C83.8608 5.94667 84.3874 5.60667 85.0008 5.38C85.6141 5.14 86.3008 5.02 87.0608 5.02C88.0741 5.02 88.9541 5.22667 89.7008 5.64C90.4474 6.05333 91.0274 6.64 91.4408 7.4C91.8541 8.16 92.0608 9.06 92.0608 10.1C92.0608 10.8867 91.9408 11.5933 91.7008 12.22C91.4741 12.8467 91.1408 13.3867 90.7008 13.84C90.2608 14.28 89.7341 14.62 89.1208 14.86C88.5074 15.0867 87.8208 15.2 87.0608 15.2ZM87.0608 13.3C87.5541 13.3 87.9874 13.18 88.3608 12.94C88.7341 12.7 89.0208 12.3467 89.2208 11.88C89.4341 11.4 89.5408 10.8067 89.5408 10.1C89.5408 9.03333 89.3141 8.24 88.8608 7.72C88.4074 7.18667 87.8074 6.92 87.0608 6.92C86.5674 6.92 86.1341 7.04 85.7608 7.28C85.3874 7.50667 85.0941 7.86 84.8808 8.34C84.6808 8.80667 84.5808 9.39333 84.5808 10.1C84.5808 11.1533 84.8074 11.9533 85.2608 12.5C85.7141 13.0333 86.3141 13.3 87.0608 13.3ZM95.3642 18.76C94.9642 18.76 94.6576 18.6533 94.4442 18.44C94.2309 18.2267 94.1242 17.9133 94.1242 17.5V6.32C94.1242 5.90667 94.2309 5.59333 94.4442 5.38C94.6576 5.16667 94.9576 5.06 95.3442 5.06C95.7442 5.06 96.0509 5.16667 96.2642 5.38C96.4776 5.59333 96.5842 5.90667 96.5842 6.32V7.88L96.3642 7.28C96.5642 6.6 96.9709 6.05333 97.5842 5.64C98.2109 5.22667 98.9376 5.02 99.7642 5.02C100.618 5.02 101.364 5.22667 102.004 5.64C102.658 6.05333 103.164 6.64 103.524 7.4C103.884 8.14667 104.064 9.04667 104.064 10.1C104.064 11.14 103.884 12.0467 103.524 12.82C103.164 13.58 102.664 14.1667 102.024 14.58C101.384 14.9933 100.631 15.2 99.7642 15.2C98.9509 15.2 98.2376 15 97.6242 14.6C97.0109 14.1867 96.5976 13.6533 96.3842 13H96.6242V17.5C96.6242 17.9133 96.5109 18.2267 96.2842 18.44C96.0709 18.6533 95.7642 18.76 95.3642 18.76ZM99.0642 13.3C99.5576 13.3 99.9909 13.18 100.364 12.94C100.738 12.7 101.024 12.3467 101.224 11.88C101.438 11.4 101.544 10.8067 101.544 10.1C101.544 9.03333 101.318 8.24 100.864 7.72C100.411 7.18667 99.8109 6.92 99.0642 6.92C98.5709 6.92 98.1376 7.04 97.7642 7.28C97.3909 7.50667 97.0976 7.86 96.8842 8.34C96.6842 8.80667 96.5842 9.39333 96.5842 10.1C96.5842 11.1533 96.8109 11.9533 97.2642 12.5C97.7176 13.0333 98.3176 13.3 99.0642 13.3ZM110.936 15.2C109.83 15.2 108.876 14.9933 108.076 14.58C107.276 14.1667 106.656 13.58 106.216 12.82C105.79 12.06 105.576 11.16 105.576 10.12C105.576 9.10667 105.783 8.22 106.196 7.46C106.623 6.7 107.203 6.10667 107.936 5.68C108.683 5.24 109.53 5.02 110.476 5.02C111.17 5.02 111.79 5.13333 112.336 5.36C112.896 5.58667 113.37 5.91333 113.756 6.34C114.156 6.76667 114.456 7.28667 114.656 7.9C114.87 8.5 114.976 9.18 114.976 9.94C114.976 10.18 114.89 10.3667 114.716 10.5C114.556 10.62 114.323 10.68 114.016 10.68H107.596V9.24H113.216L112.896 9.54C112.896 8.92667 112.803 8.41333 112.616 8C112.443 7.58667 112.183 7.27333 111.836 7.06C111.503 6.83333 111.083 6.72 110.576 6.72C110.016 6.72 109.536 6.85333 109.136 7.12C108.75 7.37333 108.45 7.74 108.236 8.22C108.036 8.68667 107.936 9.24667 107.936 9.9V10.04C107.936 11.1333 108.19 11.9533 108.696 12.5C109.216 13.0333 109.976 13.3 110.976 13.3C111.323 13.3 111.71 13.26 112.136 13.18C112.576 13.0867 112.99 12.9333 113.376 12.72C113.656 12.56 113.903 12.4933 114.116 12.52C114.33 12.5333 114.496 12.6067 114.616 12.74C114.75 12.8733 114.83 13.04 114.856 13.24C114.883 13.4267 114.843 13.62 114.736 13.82C114.643 14.02 114.476 14.1933 114.236 14.34C113.77 14.6333 113.23 14.8533 112.616 15C112.016 15.1333 111.456 15.2 110.936 15.2ZM123.626 15.14C123.226 15.14 122.919 15.02 122.706 14.78C122.493 14.54 122.386 14.2067 122.386 13.78V6.44C122.386 6 122.493 5.66667 122.706 5.44C122.919 5.2 123.226 5.08 123.626 5.08C124.026 5.08 124.333 5.2 124.546 5.44C124.773 5.66667 124.886 6 124.886 6.44V13.78C124.886 14.2067 124.779 14.54 124.566 14.78C124.353 15.02 124.039 15.14 123.626 15.14ZM123.626 3.22C123.159 3.22 122.793 3.10667 122.526 2.88C122.273 2.64 122.146 2.31333 122.146 1.9C122.146 1.47333 122.273 1.14667 122.526 0.919999C122.793 0.693333 123.159 0.58 123.626 0.58C124.106 0.58 124.473 0.693333 124.726 0.919999C124.979 1.14667 125.106 1.47333 125.106 1.9C125.106 2.31333 124.979 2.64 124.726 2.88C124.473 3.10667 124.106 3.22 123.626 3.22ZM131.064 15.2C130.49 15.2 129.884 15.14 129.244 15.02C128.604 14.9 128.03 14.6933 127.524 14.4C127.31 14.2667 127.157 14.1133 127.064 13.94C126.984 13.7533 126.95 13.5733 126.964 13.4C126.99 13.2133 127.057 13.0533 127.164 12.92C127.284 12.7867 127.43 12.7 127.604 12.66C127.79 12.62 127.99 12.6533 128.204 12.76C128.737 13.0133 129.237 13.1933 129.704 13.3C130.17 13.3933 130.63 13.44 131.084 13.44C131.724 13.44 132.197 13.3333 132.504 13.12C132.824 12.8933 132.984 12.6 132.984 12.24C132.984 11.9333 132.877 11.7 132.664 11.54C132.464 11.3667 132.157 11.24 131.744 11.16L129.744 10.78C128.917 10.62 128.284 10.32 127.844 9.88C127.417 9.42667 127.204 8.84667 127.204 8.14C127.204 7.5 127.377 6.94667 127.724 6.48C128.084 6.01333 128.577 5.65333 129.204 5.4C129.83 5.14667 130.55 5.02 131.364 5.02C131.95 5.02 132.497 5.08667 133.004 5.22C133.524 5.34 134.024 5.53333 134.504 5.8C134.704 5.90667 134.837 6.04667 134.904 6.22C134.984 6.39333 135.004 6.57333 134.964 6.76C134.924 6.93333 134.844 7.09333 134.724 7.24C134.604 7.37333 134.45 7.46 134.264 7.5C134.09 7.52667 133.89 7.48667 133.664 7.38C133.25 7.16667 132.85 7.01333 132.464 6.92C132.09 6.82667 131.73 6.78 131.384 6.78C130.73 6.78 130.244 6.89333 129.924 7.12C129.617 7.34667 129.464 7.64667 129.464 8.02C129.464 8.3 129.557 8.53333 129.744 8.72C129.93 8.90667 130.217 9.03333 130.604 9.1L132.604 9.48C133.47 9.64 134.124 9.93333 134.564 10.36C135.017 10.7867 135.244 11.36 135.244 12.08C135.244 13.0533 134.864 13.82 134.104 14.38C133.344 14.9267 132.33 15.2 131.064 15.2ZM145.899 15.2C145.192 15.2 144.559 15.0667 143.999 14.8C143.452 14.52 143.019 14.1467 142.699 13.68C142.392 13.2133 142.239 12.6867 142.239 12.1C142.239 11.38 142.426 10.8133 142.799 10.4C143.172 9.97333 143.779 9.66667 144.619 9.48C145.459 9.29333 146.586 9.2 147.999 9.2H148.999V10.64H148.019C147.192 10.64 146.532 10.68 146.039 10.76C145.546 10.84 145.192 10.98 144.979 11.18C144.779 11.3667 144.679 11.6333 144.679 11.98C144.679 12.42 144.832 12.78 145.139 13.06C145.446 13.34 145.872 13.48 146.419 13.48C146.859 13.48 147.246 13.38 147.579 13.18C147.926 12.9667 148.199 12.68 148.399 12.32C148.599 11.96 148.699 11.5467 148.699 11.08V8.78C148.699 8.11333 148.552 7.63333 148.259 7.34C147.966 7.04667 147.472 6.9 146.779 6.9C146.392 6.9 145.972 6.94667 145.519 7.04C145.079 7.13333 144.612 7.29333 144.119 7.52C143.866 7.64 143.639 7.67333 143.439 7.62C143.252 7.56667 143.106 7.46 142.999 7.3C142.892 7.12667 142.839 6.94 142.839 6.74C142.839 6.54 142.892 6.34667 142.999 6.16C143.106 5.96 143.286 5.81333 143.539 5.72C144.152 5.46667 144.739 5.28667 145.299 5.18C145.872 5.07333 146.392 5.02 146.859 5.02C147.819 5.02 148.606 5.16667 149.219 5.46C149.846 5.75333 150.312 6.2 150.619 6.8C150.926 7.38667 151.079 8.14667 151.079 9.08V13.88C151.079 14.2933 150.979 14.6133 150.779 14.84C150.579 15.0533 150.292 15.16 149.919 15.16C149.546 15.16 149.252 15.0533 149.039 14.84C148.839 14.6133 148.739 14.2933 148.739 13.88V12.92H148.899C148.806 13.3867 148.619 13.7933 148.339 14.14C148.072 14.4733 147.732 14.7333 147.319 14.92C146.906 15.1067 146.432 15.2 145.899 15.2ZM160.286 15.16C159.886 15.16 159.579 15.0533 159.366 14.84C159.153 14.6133 159.046 14.2933 159.046 13.88V2C159.046 1.58667 159.153 1.27333 159.366 1.06C159.579 0.846666 159.886 0.739999 160.286 0.739999C160.686 0.739999 160.993 0.846666 161.206 1.06C161.433 1.27333 161.546 1.58667 161.546 2V7.18H161.266C161.559 6.47333 162.013 5.94 162.626 5.58C163.253 5.20667 163.959 5.02 164.746 5.02C165.533 5.02 166.179 5.16667 166.686 5.46C167.193 5.75333 167.573 6.2 167.826 6.8C168.079 7.38667 168.206 8.13333 168.206 9.04V13.88C168.206 14.2933 168.099 14.6133 167.886 14.84C167.673 15.0533 167.366 15.16 166.966 15.16C166.566 15.16 166.253 15.0533 166.026 14.84C165.813 14.6133 165.706 14.2933 165.706 13.88V9.16C165.706 8.4 165.559 7.84667 165.266 7.5C164.986 7.15333 164.546 6.98 163.946 6.98C163.213 6.98 162.626 7.21333 162.186 7.68C161.759 8.13333 161.546 8.74 161.546 9.5V13.88C161.546 14.7333 161.126 15.16 160.286 15.16ZM175.205 15.2C174.192 15.2 173.312 14.9933 172.565 14.58C171.819 14.1667 171.239 13.58 170.825 12.82C170.412 12.0467 170.205 11.14 170.205 10.1C170.205 9.31333 170.319 8.61333 170.545 8C170.785 7.37333 171.125 6.84 171.565 6.4C172.005 5.94667 172.532 5.60667 173.145 5.38C173.759 5.14 174.445 5.02 175.205 5.02C176.219 5.02 177.099 5.22667 177.845 5.64C178.592 6.05333 179.172 6.64 179.585 7.4C179.999 8.16 180.205 9.06 180.205 10.1C180.205 10.8867 180.085 11.5933 179.845 12.22C179.619 12.8467 179.285 13.3867 178.845 13.84C178.405 14.28 177.879 14.62 177.265 14.86C176.652 15.0867 175.965 15.2 175.205 15.2ZM175.205 13.3C175.699 13.3 176.132 13.18 176.505 12.94C176.879 12.7 177.165 12.3467 177.365 11.88C177.579 11.4 177.685 10.8067 177.685 10.1C177.685 9.03333 177.459 8.24 177.005 7.72C176.552 7.18667 175.952 6.92 175.205 6.92C174.712 6.92 174.279 7.04 173.905 7.28C173.532 7.50667 173.239 7.86 173.025 8.34C172.825 8.80667 172.725 9.39333 172.725 10.1C172.725 11.1533 172.952 11.9533 173.405 12.5C173.859 13.0333 174.459 13.3 175.205 13.3ZM183.549 15.16C183.135 15.16 182.815 15.0533 182.589 14.84C182.375 14.6133 182.269 14.2933 182.269 13.88V6.32C182.269 5.90667 182.375 5.59333 182.589 5.38C182.802 5.16667 183.102 5.06 183.489 5.06C183.875 5.06 184.175 5.16667 184.389 5.38C184.602 5.59333 184.709 5.90667 184.709 6.32V7.58H184.509C184.695 6.78 185.062 6.17333 185.609 5.76C186.155 5.34667 186.882 5.1 187.789 5.02C188.069 4.99333 188.289 5.06667 188.449 5.24C188.622 5.4 188.722 5.65333 188.749 6C188.775 6.33333 188.695 6.60667 188.509 6.82C188.335 7.02 188.069 7.14 187.709 7.18L187.269 7.22C186.455 7.3 185.842 7.55333 185.429 7.98C185.015 8.39333 184.809 8.98 184.809 9.74V13.88C184.809 14.2933 184.702 14.6133 184.489 14.84C184.275 15.0533 183.962 15.16 183.549 15.16ZM191.341 15.14C190.941 15.14 190.634 15.02 190.421 14.78C190.207 14.54 190.101 14.2067 190.101 13.78V6.44C190.101 6 190.207 5.66667 190.421 5.44C190.634 5.2 190.941 5.08 191.341 5.08C191.741 5.08 192.047 5.2 192.261 5.44C192.487 5.66667 192.601 6 192.601 6.44V13.78C192.601 14.2067 192.494 14.54 192.281 14.78C192.067 15.02 191.754 15.14 191.341 15.14ZM191.341 3.22C190.874 3.22 190.507 3.10667 190.241 2.88C189.987 2.64 189.861 2.31333 189.861 1.9C189.861 1.47333 189.987 1.14667 190.241 0.919999C190.507 0.693333 190.874 0.58 191.341 0.58C191.821 0.58 192.187 0.693333 192.441 0.919999C192.694 1.14667 192.821 1.47333 192.821 1.9C192.821 2.31333 192.694 2.64 192.441 2.88C192.187 3.10667 191.821 3.22 191.341 3.22ZM195.798 15C195.545 15 195.332 14.94 195.158 14.82C194.998 14.6867 194.892 14.52 194.838 14.32C194.785 14.12 194.785 13.9067 194.838 13.68C194.905 13.44 195.032 13.2133 195.218 13L200.398 6.5V7.1H195.678C195.372 7.1 195.132 7.02 194.958 6.86C194.798 6.68667 194.718 6.45333 194.718 6.16C194.718 5.85333 194.798 5.62 194.958 5.46C195.132 5.3 195.372 5.22 195.678 5.22H201.598C201.892 5.22 202.132 5.28667 202.318 5.42C202.505 5.54 202.625 5.7 202.678 5.9C202.745 6.1 202.752 6.31333 202.698 6.54C202.645 6.76667 202.525 6.98 202.338 7.18L197.058 13.78V13.12H202.058C202.698 13.12 203.018 13.4333 203.018 14.06C203.018 14.3533 202.932 14.5867 202.758 14.76C202.598 14.92 202.365 15 202.058 15H195.798ZM208.936 15.2C207.922 15.2 207.042 14.9933 206.296 14.58C205.549 14.1667 204.969 13.58 204.556 12.82C204.142 12.0467 203.936 11.14 203.936 10.1C203.936 9.31333 204.049 8.61333 204.276 8C204.516 7.37333 204.856 6.84 205.296 6.4C205.736 5.94667 206.262 5.60667 206.876 5.38C207.489 5.14 208.176 5.02 208.936 5.02C209.949 5.02 210.829 5.22667 211.576 5.64C212.322 6.05333 212.902 6.64 213.316 7.4C213.729 8.16 213.936 9.06 213.936 10.1C213.936 10.8867 213.816 11.5933 213.576 12.22C213.349 12.8467 213.016 13.3867 212.576 13.84C212.136 14.28 211.609 14.62 210.996 14.86C210.382 15.0867 209.696 15.2 208.936 15.2ZM208.936 13.3C209.429 13.3 209.862 13.18 210.236 12.94C210.609 12.7 210.896 12.3467 211.096 11.88C211.309 11.4 211.416 10.8067 211.416 10.1C211.416 9.03333 211.189 8.24 210.736 7.72C210.282 7.18667 209.682 6.92 208.936 6.92C208.442 6.92 208.009 7.04 207.636 7.28C207.262 7.50667 206.969 7.86 206.756 8.34C206.556 8.80667 206.456 9.39333 206.456 10.1C206.456 11.1533 206.682 11.9533 207.136 12.5C207.589 13.0333 208.189 13.3 208.936 13.3ZM217.239 15.16C216.839 15.16 216.533 15.0533 216.319 14.84C216.106 14.6133 215.999 14.2933 215.999 13.88V6.32C215.999 5.90667 216.106 5.59333 216.319 5.38C216.533 5.16667 216.833 5.06 217.219 5.06C217.606 5.06 217.906 5.16667 218.119 5.38C218.333 5.59333 218.439 5.90667 218.439 6.32V7.68L218.219 7.18C218.513 6.47333 218.966 5.94 219.579 5.58C220.206 5.20667 220.913 5.02 221.699 5.02C222.486 5.02 223.133 5.16667 223.639 5.46C224.146 5.75333 224.526 6.2 224.779 6.8C225.033 7.38667 225.159 8.13333 225.159 9.04V13.88C225.159 14.2933 225.053 14.6133 224.839 14.84C224.626 15.0533 224.319 15.16 223.919 15.16C223.519 15.16 223.206 15.0533 222.979 14.84C222.766 14.6133 222.659 14.2933 222.659 13.88V9.16C222.659 8.4 222.513 7.84667 222.219 7.5C221.939 7.15333 221.499 6.98 220.899 6.98C220.166 6.98 219.579 7.21333 219.139 7.68C218.713 8.13333 218.499 8.74 218.499 9.5V13.88C218.499 14.7333 218.079 15.16 217.239 15.16ZM232.178 15.2C231.312 15.2 230.585 15.0533 229.998 14.76C229.425 14.4667 228.998 14.04 228.718 13.48C228.438 12.9067 228.298 12.2 228.298 11.36V7.1H227.258C226.938 7.1 226.692 7.02 226.518 6.86C226.345 6.68667 226.258 6.45333 226.258 6.16C226.258 5.85333 226.345 5.62 226.518 5.46C226.692 5.3 226.938 5.22 227.258 5.22H228.298V3.4C228.298 2.98667 228.405 2.67333 228.618 2.46C228.845 2.24667 229.158 2.14 229.558 2.14C229.958 2.14 230.265 2.24667 230.478 2.46C230.692 2.67333 230.798 2.98667 230.798 3.4V5.22H232.918C233.238 5.22 233.485 5.3 233.658 5.46C233.832 5.62 233.918 5.85333 233.918 6.16C233.918 6.45333 233.832 6.68667 233.658 6.86C233.485 7.02 233.238 7.1 232.918 7.1H230.798V11.22C230.798 11.86 230.938 12.34 231.218 12.66C231.498 12.98 231.952 13.14 232.578 13.14C232.805 13.14 233.005 13.12 233.178 13.08C233.352 13.04 233.505 13.0133 233.638 13C233.798 12.9867 233.932 13.04 234.038 13.16C234.145 13.2667 234.198 13.4933 234.198 13.84C234.198 14.1067 234.152 14.3467 234.058 14.56C233.978 14.76 233.825 14.9 233.598 14.98C233.425 15.0333 233.198 15.08 232.918 15.12C232.638 15.1733 232.392 15.2 232.178 15.2ZM238.594 15.2C237.888 15.2 237.254 15.0667 236.694 14.8C236.148 14.52 235.714 14.1467 235.394 13.68C235.088 13.2133 234.934 12.6867 234.934 12.1C234.934 11.38 235.121 10.8133 235.494 10.4C235.868 9.97333 236.474 9.66667 237.314 9.48C238.154 9.29333 239.281 9.2 240.694 9.2H241.694V10.64H240.714C239.888 10.64 239.228 10.68 238.734 10.76C238.241 10.84 237.888 10.98 237.674 11.18C237.474 11.3667 237.374 11.6333 237.374 11.98C237.374 12.42 237.528 12.78 237.834 13.06C238.141 13.34 238.568 13.48 239.114 13.48C239.554 13.48 239.941 13.38 240.274 13.18C240.621 12.9667 240.894 12.68 241.094 12.32C241.294 11.96 241.394 11.5467 241.394 11.08V8.78C241.394 8.11333 241.248 7.63333 240.954 7.34C240.661 7.04667 240.168 6.9 239.474 6.9C239.088 6.9 238.668 6.94667 238.214 7.04C237.774 7.13333 237.308 7.29333 236.814 7.52C236.561 7.64 236.334 7.67333 236.134 7.62C235.948 7.56667 235.801 7.46 235.694 7.3C235.588 7.12667 235.534 6.94 235.534 6.74C235.534 6.54 235.588 6.34667 235.694 6.16C235.801 5.96 235.981 5.81333 236.234 5.72C236.848 5.46667 237.434 5.28667 237.994 5.18C238.568 5.07333 239.088 5.02 239.554 5.02C240.514 5.02 241.301 5.16667 241.914 5.46C242.541 5.75333 243.008 6.2 243.314 6.8C243.621 7.38667 243.774 8.14667 243.774 9.08V13.88C243.774 14.2933 243.674 14.6133 243.474 14.84C243.274 15.0533 242.988 15.16 242.614 15.16C242.241 15.16 241.948 15.0533 241.734 14.84C241.534 14.6133 241.434 14.2933 241.434 13.88V12.92H241.594C241.501 13.3867 241.314 13.7933 241.034 14.14C240.768 14.4733 240.428 14.7333 240.014 14.92C239.601 15.1067 239.128 15.2 238.594 15.2ZM249.652 15.2C248.545 15.2 247.712 14.8867 247.152 14.26C246.592 13.62 246.312 12.6867 246.312 11.46V2C246.312 1.58667 246.418 1.27333 246.632 1.06C246.845 0.846666 247.152 0.739999 247.552 0.739999C247.952 0.739999 248.258 0.846666 248.472 1.06C248.698 1.27333 248.812 1.58667 248.812 2V11.34C248.812 11.9533 248.938 12.4067 249.192 12.7C249.458 12.9933 249.832 13.14 250.312 13.14C250.418 13.14 250.518 13.14 250.612 13.14C250.705 13.1267 250.798 13.1133 250.892 13.1C251.078 13.0733 251.205 13.1267 251.272 13.26C251.338 13.38 251.372 13.6333 251.372 14.02C251.372 14.3533 251.305 14.6133 251.172 14.8C251.038 14.9867 250.818 15.1 250.512 15.14C250.378 15.1533 250.238 15.1667 250.092 15.18C249.945 15.1933 249.798 15.2 249.652 15.2ZM261.468 15.2C260.361 15.2 259.528 14.8867 258.968 14.26C258.408 13.62 258.128 12.6867 258.128 11.46V2C258.128 1.58667 258.235 1.27333 258.448 1.06C258.661 0.846666 258.968 0.739999 259.368 0.739999C259.768 0.739999 260.075 0.846666 260.288 1.06C260.515 1.27333 260.628 1.58667 260.628 2V11.34C260.628 11.9533 260.755 12.4067 261.008 12.7C261.275 12.9933 261.648 13.14 262.128 13.14C262.235 13.14 262.335 13.14 262.428 13.14C262.521 13.1267 262.615 13.1133 262.708 13.1C262.895 13.0733 263.021 13.1267 263.088 13.26C263.155 13.38 263.188 13.6333 263.188 14.02C263.188 14.3533 263.121 14.6133 262.988 14.8C262.855 14.9867 262.635 15.1 262.328 15.14C262.195 15.1533 262.055 15.1667 261.908 15.18C261.761 15.1933 261.615 15.2 261.468 15.2ZM265.755 15.14C265.355 15.14 265.048 15.02 264.835 14.78C264.622 14.54 264.515 14.2067 264.515 13.78V6.44C264.515 6 264.622 5.66667 264.835 5.44C265.048 5.2 265.355 5.08 265.755 5.08C266.155 5.08 266.462 5.2 266.675 5.44C266.902 5.66667 267.015 6 267.015 6.44V13.78C267.015 14.2067 266.908 14.54 266.695 14.78C266.482 15.02 266.168 15.14 265.755 15.14ZM265.755 3.22C265.288 3.22 264.922 3.10667 264.655 2.88C264.402 2.64 264.275 2.31333 264.275 1.9C264.275 1.47333 264.402 1.14667 264.655 0.919999C264.922 0.693333 265.288 0.58 265.755 0.58C266.235 0.58 266.602 0.693333 266.855 0.919999C267.108 1.14667 267.235 1.47333 267.235 1.9C267.235 2.31333 267.108 2.64 266.855 2.88C266.602 3.10667 266.235 3.22 265.755 3.22ZM270.853 15.16C270.453 15.16 270.146 15.0533 269.933 14.84C269.719 14.6133 269.613 14.2933 269.613 13.88V6.32C269.613 5.90667 269.719 5.59333 269.933 5.38C270.146 5.16667 270.446 5.06 270.833 5.06C271.219 5.06 271.519 5.16667 271.733 5.38C271.946 5.59333 272.053 5.90667 272.053 6.32V7.68L271.833 7.18C272.126 6.47333 272.579 5.94 273.193 5.58C273.819 5.20667 274.526 5.02 275.313 5.02C276.099 5.02 276.746 5.16667 277.253 5.46C277.759 5.75333 278.139 6.2 278.393 6.8C278.646 7.38667 278.773 8.13333 278.773 9.04V13.88C278.773 14.2933 278.666 14.6133 278.453 14.84C278.239 15.0533 277.933 15.16 277.533 15.16C277.133 15.16 276.819 15.0533 276.593 14.84C276.379 14.6133 276.273 14.2933 276.273 13.88V9.16C276.273 8.4 276.126 7.84667 275.833 7.5C275.553 7.15333 275.113 6.98 274.513 6.98C273.779 6.98 273.193 7.21333 272.753 7.68C272.326 8.13333 272.113 8.74 272.113 9.5V13.88C272.113 14.7333 271.693 15.16 270.853 15.16ZM286.132 15.2C285.025 15.2 284.072 14.9933 283.272 14.58C282.472 14.1667 281.852 13.58 281.412 12.82C280.985 12.06 280.772 11.16 280.772 10.12C280.772 9.10667 280.978 8.22 281.392 7.46C281.818 6.7 282.398 6.10667 283.132 5.68C283.878 5.24 284.725 5.02 285.672 5.02C286.365 5.02 286.985 5.13333 287.532 5.36C288.092 5.58667 288.565 5.91333 288.952 6.34C289.352 6.76667 289.652 7.28667 289.852 7.9C290.065 8.5 290.172 9.18 290.172 9.94C290.172 10.18 290.085 10.3667 289.912 10.5C289.752 10.62 289.518 10.68 289.212 10.68H282.792V9.24H288.412L288.092 9.54C288.092 8.92667 287.998 8.41333 287.812 8C287.638 7.58667 287.378 7.27333 287.032 7.06C286.698 6.83333 286.278 6.72 285.772 6.72C285.212 6.72 284.732 6.85333 284.332 7.12C283.945 7.37333 283.645 7.74 283.432 8.22C283.232 8.68667 283.132 9.24667 283.132 9.9V10.04C283.132 11.1333 283.385 11.9533 283.892 12.5C284.412 13.0333 285.172 13.3 286.172 13.3C286.518 13.3 286.905 13.26 287.332 13.18C287.772 13.0867 288.185 12.9333 288.572 12.72C288.852 12.56 289.098 12.4933 289.312 12.52C289.525 12.5333 289.692 12.6067 289.812 12.74C289.945 12.8733 290.025 13.04 290.052 13.24C290.078 13.4267 290.038 13.62 289.932 13.82C289.838 14.02 289.672 14.1933 289.432 14.34C288.965 14.6333 288.425 14.8533 287.812 15C287.212 15.1333 286.652 15.2 286.132 15.2ZM293.352 15.1C292.898 15.1 292.532 14.96 292.252 14.68C291.985 14.4 291.852 14.04 291.852 13.6C291.852 13.1733 291.985 12.8267 292.252 12.56C292.532 12.28 292.898 12.14 293.352 12.14C293.818 12.14 294.178 12.28 294.432 12.56C294.698 12.8267 294.832 13.1733 294.832 13.6C294.832 14.04 294.698 14.4 294.432 14.68C294.178 14.96 293.818 15.1 293.352 15.1Z" fill="#444444"/>
<path d="M21.8434 60.2C21.2567 60.2 20.67 60.1533 20.0834 60.06C19.4967 59.98 18.9434 59.8533 18.4234 59.68C17.9034 59.4933 17.4367 59.2667 17.0234 59C16.7834 58.84 16.6167 58.6467 16.5234 58.42C16.43 58.1933 16.3967 57.9733 16.4234 57.76C16.4634 57.5333 16.55 57.34 16.6834 57.18C16.83 57.0067 17.01 56.9 17.2234 56.86C17.4367 56.82 17.67 56.88 17.9234 57.04C18.51 57.3867 19.13 57.64 19.7834 57.8C20.4367 57.96 21.1234 58.04 21.8434 58.04C22.8967 58.04 23.6634 57.8667 24.1434 57.52C24.6234 57.16 24.8634 56.7 24.8634 56.14C24.8634 55.6733 24.69 55.3067 24.3434 55.04C24.01 54.7733 23.43 54.5533 22.6034 54.38L20.4034 53.92C19.1367 53.6533 18.19 53.2067 17.5634 52.58C16.95 51.94 16.6434 51.1 16.6434 50.06C16.6434 49.4067 16.7767 48.8133 17.0434 48.28C17.31 47.7467 17.6834 47.2867 18.1634 46.9C18.6567 46.5133 19.2367 46.22 19.9034 46.02C20.5834 45.8067 21.33 45.7 22.1434 45.7C22.9434 45.7 23.7034 45.8 24.4234 46C25.1434 46.2 25.79 46.4933 26.3634 46.88C26.5767 47.0267 26.7167 47.2067 26.7834 47.42C26.8634 47.6333 26.8834 47.8467 26.8434 48.06C26.8034 48.26 26.71 48.4333 26.5634 48.58C26.4167 48.7267 26.23 48.8133 26.0034 48.84C25.79 48.8667 25.5434 48.8 25.2634 48.64C24.77 48.36 24.27 48.16 23.7634 48.04C23.2567 47.92 22.71 47.86 22.1234 47.86C21.51 47.86 20.9834 47.9467 20.5434 48.12C20.1034 48.2933 19.7634 48.54 19.5234 48.86C19.2967 49.1667 19.1834 49.5333 19.1834 49.96C19.1834 50.44 19.3434 50.8267 19.6634 51.12C19.9834 51.4 20.53 51.62 21.3034 51.78L23.4834 52.24C24.8034 52.52 25.7834 52.96 26.4234 53.56C27.0767 54.16 27.4034 54.96 27.4034 55.96C27.4034 56.6 27.27 57.18 27.0034 57.7C26.75 58.22 26.3767 58.6667 25.8834 59.04C25.4034 59.4133 24.8234 59.7 24.1434 59.9C23.4634 60.1 22.6967 60.2 21.8434 60.2ZM32.7005 60.2C31.5939 60.2 30.7605 59.8867 30.2005 59.26C29.6405 58.62 29.3605 57.6867 29.3605 56.46V47C29.3605 46.5867 29.4672 46.2733 29.6805 46.06C29.8939 45.8467 30.2005 45.74 30.6005 45.74C31.0005 45.74 31.3072 45.8467 31.5205 46.06C31.7472 46.2733 31.8605 46.5867 31.8605 47V56.34C31.8605 56.9533 31.9872 57.4067 32.2405 57.7C32.5072 57.9933 32.8805 58.14 33.3605 58.14C33.4672 58.14 33.5672 58.14 33.6605 58.14C33.7539 58.1267 33.8472 58.1133 33.9405 58.1C34.1272 58.0733 34.2539 58.1267 34.3205 58.26C34.3872 58.38 34.4205 58.6333 34.4205 59.02C34.4205 59.3533 34.3539 59.6133 34.2205 59.8C34.0872 59.9867 33.8672 60.1 33.5605 60.14C33.4272 60.1533 33.2872 60.1667 33.1405 60.18C32.9939 60.1933 32.8472 60.2 32.7005 60.2ZM40.1096 60.2C39.0963 60.2 38.2163 59.9933 37.4696 59.58C36.7229 59.1667 36.1429 58.58 35.7296 57.82C35.3163 57.0467 35.1096 56.14 35.1096 55.1C35.1096 54.3133 35.2229 53.6133 35.4496 53C35.6896 52.3733 36.0296 51.84 36.4696 51.4C36.9096 50.9467 37.4363 50.6067 38.0496 50.38C38.6629 50.14 39.3496 50.02 40.1096 50.02C41.1229 50.02 42.0029 50.2267 42.7496 50.64C43.4963 51.0533 44.0763 51.64 44.4896 52.4C44.9029 53.16 45.1096 54.06 45.1096 55.1C45.1096 55.8867 44.9896 56.5933 44.7496 57.22C44.5229 57.8467 44.1896 58.3867 43.7496 58.84C43.3096 59.28 42.7829 59.62 42.1696 59.86C41.5563 60.0867 40.8696 60.2 40.1096 60.2ZM40.1096 58.3C40.6029 58.3 41.0363 58.18 41.4096 57.94C41.7829 57.7 42.0696 57.3467 42.2696 56.88C42.4829 56.4 42.5896 55.8067 42.5896 55.1C42.5896 54.0333 42.3629 53.24 41.9096 52.72C41.4563 52.1867 40.8563 51.92 40.1096 51.92C39.6163 51.92 39.1829 52.04 38.8096 52.28C38.4363 52.5067 38.1429 52.86 37.9296 53.34C37.7296 53.8067 37.6296 54.3933 37.6296 55.1C37.6296 56.1533 37.8563 56.9533 38.3096 57.5C38.7629 58.0333 39.3629 58.3 40.1096 58.3ZM48.413 63.76C48.013 63.76 47.7064 63.6533 47.493 63.44C47.2797 63.2267 47.173 62.9133 47.173 62.5V51.32C47.173 50.9067 47.2797 50.5933 47.493 50.38C47.7064 50.1667 48.0064 50.06 48.393 50.06C48.793 50.06 49.0997 50.1667 49.313 50.38C49.5264 50.5933 49.633 50.9067 49.633 51.32V52.88L49.413 52.28C49.613 51.6 50.0197 51.0533 50.633 50.64C51.2597 50.2267 51.9864 50.02 52.813 50.02C53.6664 50.02 54.413 50.2267 55.053 50.64C55.7064 51.0533 56.213 51.64 56.573 52.4C56.933 53.1467 57.113 54.0467 57.113 55.1C57.113 56.14 56.933 57.0467 56.573 57.82C56.213 58.58 55.713 59.1667 55.073 59.58C54.433 59.9933 53.6797 60.2 52.813 60.2C51.9997 60.2 51.2864 60 50.673 59.6C50.0597 59.1867 49.6464 58.6533 49.433 58H49.673V62.5C49.673 62.9133 49.5597 63.2267 49.333 63.44C49.1197 63.6533 48.813 63.76 48.413 63.76ZM52.113 58.3C52.6064 58.3 53.0397 58.18 53.413 57.94C53.7864 57.7 54.073 57.3467 54.273 56.88C54.4864 56.4 54.593 55.8067 54.593 55.1C54.593 54.0333 54.3664 53.24 53.913 52.72C53.4597 52.1867 52.8597 51.92 52.113 51.92C51.6197 51.92 51.1864 52.04 50.813 52.28C50.4397 52.5067 50.1464 52.86 49.933 53.34C49.733 53.8067 49.633 54.3933 49.633 55.1C49.633 56.1533 49.8597 56.9533 50.313 57.5C50.7664 58.0333 51.3664 58.3 52.113 58.3ZM63.9852 60.2C62.8786 60.2 61.9252 59.9933 61.1252 59.58C60.3252 59.1667 59.7052 58.58 59.2652 57.82C58.8386 57.06 58.6252 56.16 58.6252 55.12C58.6252 54.1067 58.8319 53.22 59.2452 52.46C59.6719 51.7 60.2519 51.1067 60.9852 50.68C61.7319 50.24 62.5786 50.02 63.5252 50.02C64.2186 50.02 64.8386 50.1333 65.3852 50.36C65.9452 50.5867 66.4186 50.9133 66.8052 51.34C67.2052 51.7667 67.5052 52.2867 67.7052 52.9C67.9186 53.5 68.0252 54.18 68.0252 54.94C68.0252 55.18 67.9386 55.3667 67.7652 55.5C67.6052 55.62 67.3719 55.68 67.0652 55.68H60.6452V54.24H66.2652L65.9452 54.54C65.9452 53.9267 65.8519 53.4133 65.6652 53C65.4919 52.5867 65.2319 52.2733 64.8852 52.06C64.5519 51.8333 64.1319 51.72 63.6252 51.72C63.0652 51.72 62.5852 51.8533 62.1852 52.12C61.7986 52.3733 61.4986 52.74 61.2852 53.22C61.0852 53.6867 60.9852 54.2467 60.9852 54.9V55.04C60.9852 56.1333 61.2386 56.9533 61.7452 57.5C62.2652 58.0333 63.0252 58.3 64.0252 58.3C64.3719 58.3 64.7586 58.26 65.1852 58.18C65.6252 58.0867 66.0386 57.9333 66.4252 57.72C66.7052 57.56 66.9519 57.4933 67.1652 57.52C67.3786 57.5333 67.5452 57.6067 67.6652 57.74C67.7986 57.8733 67.8786 58.04 67.9052 58.24C67.9319 58.4267 67.8919 58.62 67.7852 58.82C67.6919 59.02 67.5252 59.1933 67.2852 59.34C66.8186 59.6333 66.2786 59.8533 65.6652 60C65.0652 60.1333 64.5052 60.2 63.9852 60.2ZM81.4245 53.14C81.1445 53.14 80.9245 53.0667 80.7645 52.92C80.6045 52.76 80.5245 52.54 80.5245 52.26C80.5245 51.98 80.6045 51.7667 80.7645 51.62C80.9245 51.46 81.1445 51.38 81.4245 51.38H89.7045C89.9978 51.38 90.2178 51.46 90.3645 51.62C90.5245 51.7667 90.6045 51.98 90.6045 52.26C90.6045 52.54 90.5245 52.76 90.3645 52.92C90.2178 53.0667 89.9978 53.14 89.7045 53.14H81.4245ZM81.4245 57.12C81.1445 57.12 80.9245 57.0467 80.7645 56.9C80.6045 56.74 80.5245 56.52 80.5245 56.24C80.5245 55.96 80.6045 55.7467 80.7645 55.6C80.9245 55.4533 81.1445 55.38 81.4245 55.38H89.7045C89.9978 55.38 90.2178 55.4533 90.3645 55.6C90.5245 55.7467 90.6045 55.96 90.6045 56.24C90.6045 56.5333 90.5245 56.7533 90.3645 56.9C90.2178 57.0467 89.9978 57.12 89.7045 57.12H81.4245Z" fill="#1A1A1A"/>
<path d="M196.364 53.14C196.084 53.14 195.864 53.0667 195.704 52.92C195.544 52.76 195.464 52.54 195.464 52.26C195.464 51.98 195.544 51.7667 195.704 51.62C195.864 51.46 196.084 51.38 196.364 51.38H204.644C204.937 51.38 205.157 51.46 205.304 51.62C205.464 51.7667 205.544 51.98 205.544 52.26C205.544 52.54 205.464 52.76 205.304 52.92C205.157 53.0667 204.937 53.14 204.644 53.14H196.364ZM196.364 57.12C196.084 57.12 195.864 57.0467 195.704 56.9C195.544 56.74 195.464 56.52 195.464 56.24C195.464 55.96 195.544 55.7467 195.704 55.6C195.864 55.4533 196.084 55.38 196.364 55.38H204.644C204.937 55.38 205.157 55.4533 205.304 55.6C205.464 55.7467 205.544 55.96 205.544 56.24C205.544 56.5333 205.464 56.7533 205.304 56.9C205.157 57.0467 204.937 57.12 204.644 57.12H196.364Z" fill="#1A1A1A"/>
<path d="M249.364 53.14C249.084 53.14 248.864 53.0667 248.704 52.92C248.544 52.76 248.464 52.54 248.464 52.26C248.464 51.98 248.544 51.7667 248.704 51.62C248.864 51.46 249.084 51.38 249.364 51.38H257.644C257.937 51.38 258.157 51.46 258.304 51.62C258.464 51.7667 258.544 51.98 258.544 52.26C258.544 52.54 258.464 52.76 258.304 52.92C258.157 53.0667 257.937 53.14 257.644 53.14H249.364ZM249.364 57.12C249.084 57.12 248.864 57.0467 248.704 56.9C248.544 56.74 248.464 56.52 248.464 56.24C248.464 55.96 248.544 55.7467 248.704 55.6C248.864 55.4533 249.084 55.38 249.364 55.38H257.644C257.937 55.38 258.157 55.4533 258.304 55.6C258.464 55.7467 258.544 55.96 258.544 56.24C258.544 56.5333 258.464 56.7533 258.304 56.9C258.157 57.0467 257.937 57.12 257.644 57.12H249.364Z" fill="#1A1A1A"/>
<path d="M104.574 50.26C103.748 48.9533 103.148 47.58 102.774 46.14C102.414 44.6867 102.234 43.22 102.234 41.74C102.234 40.7533 102.314 39.7733 102.474 38.8C102.634 37.8267 102.888 36.8733 103.234 35.94C103.581 34.9933 104.028 34.0867 104.574 33.22C104.721 32.98 104.914 32.8333 105.154 32.78C105.408 32.7133 105.641 32.7267 105.854 32.82C106.081 32.9133 106.248 33.0867 106.354 33.34C106.461 33.58 106.448 33.8867 106.314 34.26C105.994 35.1133 105.728 35.9533 105.514 36.78C105.314 37.5933 105.161 38.4067 105.054 39.22C104.961 40.0333 104.914 40.8733 104.914 41.74C104.914 42.6067 104.968 43.4467 105.074 44.26C105.181 45.0733 105.341 45.8867 105.554 46.7C105.768 47.5133 106.021 48.3533 106.314 49.22C106.448 49.5933 106.461 49.9 106.354 50.14C106.248 50.3933 106.081 50.5667 105.854 50.66C105.641 50.7533 105.408 50.7667 105.154 50.7C104.914 50.6467 104.721 50.5 104.574 50.26ZM109.622 42.64C109.329 42.64 109.082 42.5467 108.882 42.36C108.696 42.16 108.602 41.92 108.602 41.64C108.602 41.3467 108.696 41.1067 108.882 40.92C109.082 40.7333 109.329 40.64 109.622 40.64H113.882C114.162 40.64 114.396 40.7333 114.582 40.92C114.782 41.1067 114.882 41.3467 114.882 41.64C114.882 41.92 114.782 42.16 114.582 42.36C114.396 42.5467 114.162 42.64 113.882 42.64H109.622ZM118.734 47C118.308 47 117.994 46.9067 117.794 46.72C117.608 46.52 117.514 46.2333 117.514 45.86C117.514 45.6333 117.574 45.4133 117.694 45.2C117.814 44.9867 117.988 44.76 118.214 44.52L122.234 40.24C122.848 39.6 123.288 39.02 123.554 38.5C123.821 37.9667 123.954 37.4333 123.954 36.9C123.954 36.2333 123.741 35.7267 123.314 35.38C122.901 35.0333 122.294 34.86 121.494 34.86C121.041 34.86 120.588 34.9267 120.134 35.06C119.681 35.18 119.221 35.3933 118.754 35.7C118.514 35.86 118.288 35.9267 118.074 35.9C117.874 35.8733 117.694 35.7867 117.534 35.64C117.388 35.4933 117.288 35.3133 117.234 35.1C117.181 34.8867 117.188 34.6733 117.254 34.46C117.334 34.2333 117.494 34.04 117.734 33.88C118.308 33.4933 118.948 33.2 119.654 33C120.374 32.8 121.094 32.7 121.814 32.7C122.828 32.7 123.681 32.8533 124.374 33.16C125.068 33.4667 125.594 33.9133 125.954 34.5C126.314 35.0867 126.494 35.8 126.494 36.64C126.494 37.2 126.401 37.7467 126.214 38.28C126.041 38.8133 125.768 39.3533 125.394 39.9C125.034 40.4467 124.561 41.0267 123.974 41.64L120.214 45.56V44.88H126.094C126.454 44.88 126.728 44.9667 126.914 45.14C127.101 45.3133 127.194 45.5733 127.194 45.92C127.194 46.2667 127.101 46.5333 126.914 46.72C126.728 46.9067 126.454 47 126.094 47H118.734ZM135.716 42.64C135.423 42.64 135.176 42.5467 134.976 42.36C134.789 42.16 134.696 41.92 134.696 41.64C134.696 41.3467 134.789 41.1067 134.976 40.92C135.176 40.7333 135.423 40.64 135.716 40.64H139.976C140.256 40.64 140.489 40.7333 140.676 40.92C140.876 41.1067 140.976 41.3467 140.976 41.64C140.976 41.92 140.876 42.16 140.676 42.36C140.489 42.5467 140.256 42.64 139.976 42.64H135.716ZM151.938 50.26C151.111 48.9533 150.511 47.58 150.138 46.14C149.778 44.6867 149.598 43.22 149.598 41.74C149.598 40.7533 149.678 39.7733 149.838 38.8C149.998 37.8267 150.251 36.8733 150.598 35.94C150.944 34.9933 151.391 34.0867 151.938 33.22C152.084 32.98 152.278 32.8333 152.518 32.78C152.771 32.7133 153.004 32.7267 153.218 32.82C153.444 32.9133 153.611 33.0867 153.718 33.34C153.824 33.58 153.811 33.8867 153.678 34.26C153.358 35.1133 153.091 35.9533 152.878 36.78C152.678 37.5933 152.524 38.4067 152.418 39.22C152.324 40.0333 152.278 40.8733 152.278 41.74C152.278 42.6067 152.331 43.4467 152.438 44.26C152.544 45.0733 152.704 45.8867 152.918 46.7C153.131 47.5133 153.384 48.3533 153.678 49.22C153.811 49.5933 153.824 49.9 153.718 50.14C153.611 50.3933 153.444 50.5667 153.218 50.66C153.004 50.7533 152.771 50.7667 152.518 50.7C152.278 50.6467 152.084 50.5 151.938 50.26ZM156.986 42.64C156.692 42.64 156.446 42.5467 156.246 42.36C156.059 42.16 155.966 41.92 155.966 41.64C155.966 41.3467 156.059 41.1067 156.246 40.92C156.446 40.7333 156.692 40.64 156.986 40.64H161.246C161.526 40.64 161.759 40.7333 161.946 40.92C162.146 41.1067 162.246 41.3467 162.246 41.64C162.246 41.92 162.146 42.16 161.946 42.36C161.759 42.5467 161.526 42.64 161.246 42.64H156.986ZM166.098 47C165.671 47 165.358 46.9067 165.158 46.72C164.971 46.52 164.878 46.2333 164.878 45.86C164.878 45.6333 164.938 45.4133 165.058 45.2C165.178 44.9867 165.351 44.76 165.578 44.52L169.598 40.24C170.211 39.6 170.651 39.02 170.918 38.5C171.184 37.9667 171.318 37.4333 171.318 36.9C171.318 36.2333 171.104 35.7267 170.678 35.38C170.264 35.0333 169.658 34.86 168.858 34.86C168.404 34.86 167.951 34.9267 167.498 35.06C167.044 35.18 166.584 35.3933 166.118 35.7C165.878 35.86 165.651 35.9267 165.438 35.9C165.238 35.8733 165.058 35.7867 164.898 35.64C164.751 35.4933 164.651 35.3133 164.598 35.1C164.544 34.8867 164.551 34.6733 164.618 34.46C164.698 34.2333 164.858 34.04 165.098 33.88C165.671 33.4933 166.311 33.2 167.018 33C167.738 32.8 168.458 32.7 169.178 32.7C170.191 32.7 171.044 32.8533 171.738 33.16C172.431 33.4667 172.958 33.9133 173.318 34.5C173.678 35.0867 173.858 35.8 173.858 36.64C173.858 37.2 173.764 37.7467 173.578 38.28C173.404 38.8133 173.131 39.3533 172.758 39.9C172.398 40.4467 171.924 41.0267 171.338 41.64L167.578 45.56V44.88H173.458C173.818 44.88 174.091 44.9667 174.278 45.14C174.464 45.3133 174.558 45.5733 174.558 45.92C174.558 46.2667 174.464 46.5333 174.278 46.72C174.091 46.9067 173.818 47 173.458 47H166.098ZM178.25 50.26C178.103 50.5 177.903 50.6467 177.65 50.7C177.41 50.7667 177.176 50.7467 176.95 50.64C176.723 50.5467 176.556 50.38 176.45 50.14C176.356 49.9 176.376 49.5933 176.51 49.22C176.843 48.3533 177.11 47.5133 177.31 46.7C177.51 45.8867 177.656 45.0733 177.75 44.26C177.856 43.4467 177.91 42.6067 177.91 41.74C177.91 40.8733 177.856 40.0333 177.75 39.22C177.643 38.4067 177.483 37.5933 177.27 36.78C177.07 35.9667 176.816 35.1267 176.51 34.26C176.376 33.8867 176.363 33.58 176.47 33.34C176.576 33.0867 176.743 32.9133 176.97 32.82C177.196 32.7267 177.43 32.7133 177.67 32.78C177.91 32.8333 178.103 32.98 178.25 33.22C179.063 34.5133 179.656 35.8867 180.03 37.34C180.403 38.7933 180.59 40.26 180.59 41.74C180.59 42.7267 180.503 43.7067 180.33 44.68C180.17 45.6533 179.916 46.6067 179.57 47.54C179.236 48.4867 178.796 49.3933 178.25 50.26ZM185.418 50.26C185.271 50.5 185.071 50.6467 184.818 50.7C184.578 50.7667 184.344 50.7467 184.118 50.64C183.891 50.5467 183.724 50.38 183.618 50.14C183.524 49.9 183.544 49.5933 183.678 49.22C184.011 48.3533 184.278 47.5133 184.478 46.7C184.678 45.8867 184.824 45.0733 184.918 44.26C185.024 43.4467 185.078 42.6067 185.078 41.74C185.078 40.8733 185.024 40.0333 184.918 39.22C184.811 38.4067 184.651 37.5933 184.438 36.78C184.238 35.9667 183.984 35.1267 183.678 34.26C183.544 33.8867 183.531 33.58 183.638 33.34C183.744 33.0867 183.911 32.9133 184.138 32.82C184.364 32.7267 184.598 32.7133 184.838 32.78C185.078 32.8333 185.271 32.98 185.418 33.22C186.231 34.5133 186.824 35.8867 187.198 37.34C187.571 38.7933 187.758 40.26 187.758 41.74C187.758 42.7267 187.671 43.7067 187.498 44.68C187.338 45.6533 187.084 46.6067 186.738 47.54C186.404 48.4867 185.964 49.3933 185.418 50.26Z" fill="#C882FA"/>
<path d="M276 61.2C274.333 61.2 273.06 60.5733 272.18 59.32C271.3 58.0533 270.86 56.2533 270.86 53.92C270.86 52.3467 271.053 51.0267 271.44 49.96C271.84 48.88 272.42 48.0667 273.18 47.52C273.953 46.9733 274.893 46.7 276 46.7C277.68 46.7 278.953 47.3133 279.82 48.54C280.7 49.7667 281.14 51.5533 281.14 53.9C281.14 55.46 280.94 56.7867 280.54 57.88C280.153 58.96 279.58 59.7867 278.82 60.36C278.06 60.92 277.12 61.2 276 61.2ZM276 59.1C276.907 59.1 277.573 58.68 278 57.84C278.44 57 278.66 55.6867 278.66 53.9C278.66 52.1133 278.44 50.82 278 50.02C277.573 49.2067 276.907 48.8 276 48.8C275.107 48.8 274.44 49.2067 274 50.02C273.56 50.82 273.34 52.1133 273.34 53.9C273.34 55.6867 273.56 57 274 57.84C274.44 58.68 275.107 59.1 276 59.1Z" fill="#1A1A1A"/>
<path d="M109.41 80.26C108.584 78.9533 107.984 77.58 107.61 76.14C107.25 74.6867 107.07 73.22 107.07 71.74C107.07 70.7533 107.15 69.7733 107.31 68.8C107.47 67.8267 107.724 66.8733 108.07 65.94C108.417 64.9933 108.864 64.0867 109.41 63.22C109.557 62.98 109.75 62.8333 109.99 62.78C110.244 62.7133 110.477 62.7267 110.69 62.82C110.917 62.9133 111.084 63.0867 111.19 63.34C111.297 63.58 111.284 63.8867 111.15 64.26C110.83 65.1133 110.564 65.9533 110.35 66.78C110.15 67.5933 109.997 68.4067 109.89 69.22C109.797 70.0333 109.75 70.8733 109.75 71.74C109.75 72.6067 109.804 73.4467 109.91 74.26C110.017 75.0733 110.177 75.8867 110.39 76.7C110.604 77.5133 110.857 78.3533 111.15 79.22C111.284 79.5933 111.297 79.9 111.19 80.14C111.084 80.3933 110.917 80.5667 110.69 80.66C110.477 80.7533 110.244 80.7667 109.99 80.7C109.75 80.6467 109.557 80.5 109.41 80.26ZM118.358 77.2C117.652 77.2 116.932 77.1067 116.198 76.92C115.465 76.7333 114.792 76.4467 114.178 76.06C113.925 75.9 113.752 75.7133 113.658 75.5C113.578 75.2733 113.558 75.0533 113.598 74.84C113.652 74.6133 113.752 74.4267 113.898 74.28C114.058 74.12 114.245 74.0267 114.458 74C114.685 73.9733 114.932 74.0333 115.198 74.18C115.692 74.46 116.192 74.6733 116.698 74.82C117.205 74.9667 117.745 75.04 118.318 75.04C118.878 75.04 119.358 74.94 119.758 74.74C120.158 74.54 120.465 74.26 120.678 73.9C120.892 73.54 120.998 73.12 120.998 72.64C120.998 71.8933 120.772 71.2933 120.318 70.84C119.865 70.3733 119.245 70.14 118.458 70.14C118.032 70.14 117.618 70.2133 117.218 70.36C116.818 70.4933 116.425 70.7333 116.038 71.08C115.918 71.1867 115.765 71.2933 115.578 71.4C115.392 71.4933 115.192 71.54 114.978 71.54C114.645 71.54 114.392 71.4533 114.218 71.28C114.045 71.1067 113.958 70.8667 113.958 70.56V64.02C113.958 63.66 114.052 63.3867 114.238 63.2C114.438 63 114.718 62.9 115.078 62.9H121.658C122.018 62.9 122.292 62.9933 122.478 63.18C122.678 63.3533 122.778 63.6133 122.778 63.96C122.778 64.2933 122.678 64.5533 122.478 64.74C122.292 64.9267 122.018 65.02 121.658 65.02H116.458V69.5H115.798C116.145 69.0333 116.605 68.6733 117.178 68.42C117.752 68.1667 118.378 68.04 119.058 68.04C119.952 68.04 120.725 68.2333 121.378 68.62C122.045 68.9933 122.558 69.52 122.918 70.2C123.292 70.8667 123.478 71.6467 123.478 72.54C123.478 73.46 123.272 74.2733 122.858 74.98C122.445 75.6733 121.852 76.22 121.078 76.62C120.318 77.0067 119.412 77.2 118.358 77.2ZM131.88 72.64C131.587 72.64 131.34 72.5467 131.14 72.36C130.953 72.16 130.86 71.92 130.86 71.64C130.86 71.3467 130.953 71.1067 131.14 70.92C131.34 70.7333 131.587 70.64 131.88 70.64H136.14C136.42 70.64 136.653 70.7333 136.84 70.92C137.04 71.1067 137.14 71.3467 137.14 71.64C137.14 71.92 137.04 72.16 136.84 72.36C136.653 72.5467 136.42 72.64 136.14 72.64H131.88ZM148.102 80.26C147.275 78.9533 146.675 77.58 146.302 76.14C145.942 74.6867 145.762 73.22 145.762 71.74C145.762 70.7533 145.842 69.7733 146.002 68.8C146.162 67.8267 146.415 66.8733 146.762 65.94C147.108 64.9933 147.555 64.0867 148.102 63.22C148.248 62.98 148.442 62.8333 148.682 62.78C148.935 62.7133 149.168 62.7267 149.382 62.82C149.608 62.9133 149.775 63.0867 149.882 63.34C149.988 63.58 149.975 63.8867 149.842 64.26C149.522 65.1133 149.255 65.9533 149.042 66.78C148.842 67.5933 148.688 68.4067 148.582 69.22C148.488 70.0333 148.442 70.8733 148.442 71.74C148.442 72.6067 148.495 73.4467 148.602 74.26C148.708 75.0733 148.868 75.8867 149.082 76.7C149.295 77.5133 149.548 78.3533 149.842 79.22C149.975 79.5933 149.988 79.9 149.882 80.14C149.775 80.3933 149.608 80.5667 149.382 80.66C149.168 80.7533 148.935 80.7667 148.682 80.7C148.442 80.6467 148.248 80.5 148.102 80.26ZM153.15 72.64C152.856 72.64 152.61 72.5467 152.41 72.36C152.223 72.16 152.13 71.92 152.13 71.64C152.13 71.3467 152.223 71.1067 152.41 70.92C152.61 70.7333 152.856 70.64 153.15 70.64H157.41C157.69 70.64 157.923 70.7333 158.11 70.92C158.31 71.1067 158.41 71.3467 158.41 71.64C158.41 71.92 158.31 72.16 158.11 72.36C157.923 72.5467 157.69 72.64 157.41 72.64H153.15ZM165.722 77.2C165.015 77.2 164.295 77.1067 163.562 76.92C162.828 76.7333 162.155 76.4467 161.542 76.06C161.288 75.9 161.115 75.7133 161.022 75.5C160.942 75.2733 160.922 75.0533 160.962 74.84C161.015 74.6133 161.115 74.4267 161.262 74.28C161.422 74.12 161.608 74.0267 161.822 74C162.048 73.9733 162.295 74.0333 162.562 74.18C163.055 74.46 163.555 74.6733 164.062 74.82C164.568 74.9667 165.108 75.04 165.682 75.04C166.242 75.04 166.722 74.94 167.122 74.74C167.522 74.54 167.828 74.26 168.042 73.9C168.255 73.54 168.362 73.12 168.362 72.64C168.362 71.8933 168.135 71.2933 167.682 70.84C167.228 70.3733 166.608 70.14 165.822 70.14C165.395 70.14 164.982 70.2133 164.582 70.36C164.182 70.4933 163.788 70.7333 163.402 71.08C163.282 71.1867 163.128 71.2933 162.942 71.4C162.755 71.4933 162.555 71.54 162.342 71.54C162.008 71.54 161.755 71.4533 161.582 71.28C161.408 71.1067 161.322 70.8667 161.322 70.56V64.02C161.322 63.66 161.415 63.3867 161.602 63.2C161.802 63 162.082 62.9 162.442 62.9H169.022C169.382 62.9 169.655 62.9933 169.842 63.18C170.042 63.3533 170.142 63.6133 170.142 63.96C170.142 64.2933 170.042 64.5533 169.842 64.74C169.655 64.9267 169.382 65.02 169.022 65.02H163.822V69.5H163.162C163.508 69.0333 163.968 68.6733 164.542 68.42C165.115 68.1667 165.742 68.04 166.422 68.04C167.315 68.04 168.088 68.2333 168.742 68.62C169.408 68.9933 169.922 69.52 170.282 70.2C170.655 70.8667 170.842 71.6467 170.842 72.54C170.842 73.46 170.635 74.2733 170.222 74.98C169.808 75.6733 169.215 76.22 168.442 76.62C167.682 77.0067 166.775 77.2 165.722 77.2ZM174.414 80.26C174.267 80.5 174.067 80.6467 173.814 80.7C173.574 80.7667 173.34 80.7467 173.114 80.64C172.887 80.5467 172.72 80.38 172.614 80.14C172.52 79.9 172.54 79.5933 172.674 79.22C173.007 78.3533 173.274 77.5133 173.474 76.7C173.674 75.8867 173.82 75.0733 173.914 74.26C174.02 73.4467 174.074 72.6067 174.074 71.74C174.074 70.8733 174.02 70.0333 173.914 69.22C173.807 68.4067 173.647 67.5933 173.434 66.78C173.234 65.9667 172.98 65.1267 172.674 64.26C172.54 63.8867 172.527 63.58 172.634 63.34C172.74 63.0867 172.907 62.9133 173.134 62.82C173.36 62.7267 173.594 62.7133 173.834 62.78C174.074 62.8333 174.267 62.98 174.414 63.22C175.227 64.5133 175.82 65.8867 176.194 67.34C176.567 68.7933 176.754 70.26 176.754 71.74C176.754 72.7267 176.667 73.7067 176.494 74.68C176.334 75.6533 176.08 76.6067 175.734 77.54C175.4 78.4867 174.96 79.3933 174.414 80.26ZM181.582 80.26C181.435 80.5 181.235 80.6467 180.982 80.7C180.742 80.7667 180.508 80.7467 180.282 80.64C180.055 80.5467 179.888 80.38 179.782 80.14C179.688 79.9 179.708 79.5933 179.842 79.22C180.175 78.3533 180.442 77.5133 180.642 76.7C180.842 75.8867 180.988 75.0733 181.082 74.26C181.188 73.4467 181.242 72.6067 181.242 71.74C181.242 70.8733 181.188 70.0333 181.082 69.22C180.975 68.4067 180.815 67.5933 180.602 66.78C180.402 65.9667 180.148 65.1267 179.842 64.26C179.708 63.8867 179.695 63.58 179.802 63.34C179.908 63.0867 180.075 62.9133 180.302 62.82C180.528 62.7267 180.762 62.7133 181.002 62.78C181.242 62.8333 181.435 62.98 181.582 63.22C182.395 64.5133 182.988 65.8867 183.362 67.34C183.735 68.7933 183.922 70.26 183.922 71.74C183.922 72.7267 183.835 73.7067 183.662 74.68C183.502 75.6533 183.248 76.6067 182.902 77.54C182.568 78.4867 182.128 79.3933 181.582 80.26Z" fill="#FF8F1F"/>
<path d="M101 55L190 55" stroke="#1A1A1A" stroke-width="2"/>
<path d="M227.004 47.2C225.337 47.2 224.064 46.5733 223.184 45.32C222.304 44.0533 221.864 42.2533 221.864 39.92C221.864 38.3467 222.057 37.0267 222.444 35.96C222.844 34.88 223.424 34.0667 224.184 33.52C224.957 32.9733 225.897 32.7 227.004 32.7C228.684 32.7 229.957 33.3133 230.824 34.54C231.704 35.7667 232.144 37.5533 232.144 39.9C232.144 41.46 231.944 42.7867 231.544 43.88C231.157 44.96 230.584 45.7867 229.824 46.36C229.064 46.92 228.124 47.2 227.004 47.2ZM227.004 45.1C227.911 45.1 228.577 44.68 229.004 43.84C229.444 43 229.664 41.6867 229.664 39.9C229.664 38.1133 229.444 36.82 229.004 36.02C228.577 35.2067 227.911 34.8 227.004 34.8C226.111 34.8 225.444 35.2067 225.004 36.02C224.564 36.82 224.344 38.1133 224.344 39.9C224.344 41.6867 224.564 43 225.004 43.84C225.444 44.68 226.111 45.1 227.004 45.1Z" fill="#C882FA"/>
<path d="M218.128 77C217.781 77 217.508 76.9067 217.308 76.72C217.121 76.52 217.028 76.2533 217.028 75.92C217.028 75.5733 217.121 75.3133 217.308 75.14C217.508 74.9667 217.781 74.88 218.128 74.88H220.368V65.06H221.608L218.668 66.84C218.414 66.9867 218.174 67.0467 217.948 67.02C217.734 66.98 217.548 66.8867 217.388 66.74C217.241 66.58 217.141 66.3933 217.088 66.18C217.034 65.9667 217.048 65.7533 217.128 65.54C217.221 65.3133 217.394 65.1267 217.648 64.98L220.408 63.32C220.674 63.16 220.941 63.0267 221.208 62.92C221.474 62.8 221.721 62.74 221.948 62.74C222.228 62.74 222.461 62.82 222.648 62.98C222.834 63.1267 222.928 63.3733 222.928 63.72V74.88H224.968C225.314 74.88 225.581 74.9667 225.768 75.14C225.968 75.3133 226.068 75.5733 226.068 75.92C226.068 76.2667 225.968 76.5333 225.768 76.72C225.581 76.9067 225.314 77 224.968 77H218.128ZM233 77.2C231.333 77.2 230.06 76.5733 229.18 75.32C228.3 74.0533 227.86 72.2533 227.86 69.92C227.86 68.3467 228.053 67.0267 228.44 65.96C228.84 64.88 229.42 64.0667 230.18 63.52C230.953 62.9733 231.893 62.7 233 62.7C234.68 62.7 235.953 63.3133 236.82 64.54C237.7 65.7667 238.14 67.5533 238.14 69.9C238.14 71.46 237.94 72.7867 237.54 73.88C237.153 74.96 236.58 75.7867 235.82 76.36C235.06 76.92 234.12 77.2 233 77.2ZM233 75.1C233.907 75.1 234.573 74.68 235 73.84C235.44 73 235.66 71.6867 235.66 69.9C235.66 68.1133 235.44 66.82 235 66.02C234.573 65.2067 233.907 64.8 233 64.8C232.107 64.8 231.44 65.2067 231 66.02C230.56 66.82 230.34 68.1133 230.34 69.9C230.34 71.6867 230.56 73 231 73.84C231.44 74.68 232.107 75.1 233 75.1Z" fill="#FF8F1F"/>
<path d="M213 55L241 55" stroke="#1A1A1A" stroke-width="2"/>
</svg>
