<svg width="565" height="19" viewBox="0 0 565 19" fill="none" xmlns="http://www.w3.org/2000/svg">
<path d="M2.01398 15.16C1.69398 15.16 1.43398 15.0867 1.23398 14.94C1.04732 14.7933 0.933984 14.6 0.893984 14.36C0.853984 14.1067 0.900651 13.8267 1.03398 13.52L6.31398 1.82C6.48732 1.43333 6.69398 1.16 6.93398 0.999999C7.18732 0.826666 7.47398 0.739999 7.79398 0.739999C8.10065 0.739999 8.37398 0.826666 8.61399 0.999999C8.86732 1.16 9.08065 1.43333 9.25398 1.82L14.554 13.52C14.7007 13.8267 14.754 14.1067 14.714 14.36C14.674 14.6133 14.5607 14.8133 14.374 14.96C14.1873 15.0933 13.9407 15.16 13.634 15.16C13.2607 15.16 12.9673 15.0733 12.754 14.9C12.554 14.7133 12.374 14.4333 12.214 14.06L10.914 11.04L11.994 11.74H3.55398L4.63398 11.04L3.35398 14.06C3.18065 14.4467 3.00065 14.7267 2.81398 14.9C2.62732 15.0733 2.36065 15.16 2.01398 15.16ZM7.75398 3.68L4.95398 10.34L4.43398 9.7H11.114L10.614 10.34L7.79398 3.68H7.75398ZM20.1791 15.2C19.3258 15.2 18.5725 14.9933 17.9191 14.58C17.2791 14.1667 16.7791 13.58 16.4191 12.82C16.0591 12.0467 15.8791 11.14 15.8791 10.1C15.8791 9.04667 16.0591 8.14667 16.4191 7.4C16.7791 6.64 17.2791 6.05333 17.9191 5.64C18.5725 5.22667 19.3258 5.02 20.1791 5.02C20.9925 5.02 21.6991 5.22 22.2991 5.62C22.9125 6.02 23.3258 6.54667 23.5391 7.2H23.3191V2C23.3191 1.58667 23.4258 1.27333 23.6391 1.06C23.8525 0.846666 24.1591 0.739999 24.5591 0.739999C24.9591 0.739999 25.2658 0.846666 25.4791 1.06C25.7058 1.27333 25.8191 1.58667 25.8191 2V13.88C25.8191 14.2933 25.7125 14.6133 25.4991 14.84C25.2858 15.0533 24.9791 15.16 24.5791 15.16C24.1791 15.16 23.8725 15.0533 23.6591 14.84C23.4458 14.6133 23.3391 14.2933 23.3391 13.88V12.32L23.5591 12.92C23.3591 13.6133 22.9525 14.1667 22.3391 14.58C21.7258 14.9933 21.0058 15.2 20.1791 15.2ZM20.8791 13.3C21.3725 13.3 21.8058 13.18 22.1791 12.94C22.5525 12.7 22.8391 12.3467 23.0391 11.88C23.2525 11.4 23.3591 10.8067 23.3591 10.1C23.3591 9.03333 23.1325 8.24 22.6791 7.72C22.2258 7.18667 21.6258 6.92 20.8791 6.92C20.3858 6.92 19.9525 7.04 19.5791 7.28C19.2058 7.50667 18.9125 7.86 18.6991 8.34C18.4991 8.80667 18.3991 9.39333 18.3991 10.1C18.3991 11.1533 18.6258 11.9533 19.0791 12.5C19.5325 13.0333 20.1325 13.3 20.8791 13.3ZM27.2113 18.78C26.918 18.8067 26.678 18.76 26.4913 18.64C26.3047 18.5333 26.178 18.3933 26.1113 18.22C26.0313 18.0467 26.0047 17.8667 26.0313 17.68C26.058 17.4933 26.138 17.3267 26.2713 17.18C26.3913 17.0467 26.558 16.9733 26.7713 16.96C27.3713 16.9067 27.8047 16.7333 28.0713 16.44C28.3513 16.16 28.4913 15.7267 28.4913 15.14V6.32C28.4913 5.90667 28.598 5.59333 28.8113 5.38C29.038 5.16667 29.3513 5.06 29.7513 5.06C30.1513 5.06 30.458 5.16667 30.6713 5.38C30.8847 5.59333 30.9913 5.90667 30.9913 6.32V14.92C30.9913 15.7733 30.8513 16.4733 30.5713 17.02C30.3047 17.5667 29.8913 17.98 29.3313 18.26C28.7847 18.54 28.078 18.7133 27.2113 18.78ZM29.7313 3.22C29.2647 3.22 28.898 3.10667 28.6313 2.88C28.378 2.64 28.2513 2.31333 28.2513 1.9C28.2513 1.47333 28.378 1.14667 28.6313 0.919999C28.898 0.693333 29.2647 0.58 29.7313 0.58C30.2113 0.58 30.578 0.693333 30.8313 0.919999C31.0847 1.14667 31.2113 1.47333 31.2113 1.9C31.2113 2.31333 31.0847 2.64 30.8313 2.88C30.578 3.10667 30.2113 3.22 29.7313 3.22ZM37.1271 15.2C36.3138 15.2 35.6404 15.0533 35.1071 14.76C34.5738 14.4533 34.1738 14 33.9071 13.4C33.6538 12.8 33.5271 12.0533 33.5271 11.16V6.32C33.5271 5.89333 33.6338 5.58 33.8471 5.38C34.0604 5.16667 34.3671 5.06 34.7671 5.06C35.1671 5.06 35.4738 5.16667 35.6871 5.38C35.9138 5.58 36.0271 5.89333 36.0271 6.32V11.2C36.0271 11.8933 36.1671 12.4067 36.4471 12.74C36.7271 13.0733 37.1738 13.24 37.7871 13.24C38.4538 13.24 39.0004 13.0133 39.4271 12.56C39.8538 12.0933 40.0671 11.48 40.0671 10.72V6.32C40.0671 5.89333 40.1738 5.58 40.3871 5.38C40.6004 5.16667 40.9071 5.06 41.3071 5.06C41.7071 5.06 42.0138 5.16667 42.2271 5.38C42.4538 5.58 42.5671 5.89333 42.5671 6.32V13.88C42.5671 14.7333 42.1604 15.16 41.3471 15.16C40.9604 15.16 40.6604 15.0533 40.4471 14.84C40.2338 14.6133 40.1271 14.2933 40.1271 13.88V12.36L40.4071 12.96C40.1271 13.68 39.7004 14.2333 39.1271 14.62C38.5671 15.0067 37.9004 15.2 37.1271 15.2ZM48.7491 15.2C48.1758 15.2 47.5691 15.14 46.9291 15.02C46.2891 14.9 45.7158 14.6933 45.2091 14.4C44.9958 14.2667 44.8425 14.1133 44.7491 13.94C44.6691 13.7533 44.6358 13.5733 44.6491 13.4C44.6758 13.2133 44.7425 13.0533 44.8491 12.92C44.9691 12.7867 45.1158 12.7 45.2891 12.66C45.4758 12.62 45.6758 12.6533 45.8891 12.76C46.4225 13.0133 46.9225 13.1933 47.3891 13.3C47.8558 13.3933 48.3158 13.44 48.7691 13.44C49.4091 13.44 49.8825 13.3333 50.1891 13.12C50.5091 12.8933 50.6691 12.6 50.6691 12.24C50.6691 11.9333 50.5625 11.7 50.3491 11.54C50.1491 11.3667 49.8425 11.24 49.4291 11.16L47.4291 10.78C46.6025 10.62 45.9691 10.32 45.5291 9.88C45.1025 9.42667 44.8891 8.84667 44.8891 8.14C44.8891 7.5 45.0625 6.94667 45.4091 6.48C45.7691 6.01333 46.2625 5.65333 46.8891 5.4C47.5158 5.14667 48.2358 5.02 49.0491 5.02C49.6358 5.02 50.1825 5.08667 50.6891 5.22C51.2091 5.34 51.7091 5.53333 52.1891 5.8C52.3891 5.90667 52.5225 6.04667 52.5891 6.22C52.6691 6.39333 52.6891 6.57333 52.6491 6.76C52.6091 6.93333 52.5291 7.09333 52.4091 7.24C52.2891 7.37333 52.1358 7.46 51.9491 7.5C51.7758 7.52667 51.5758 7.48667 51.3491 7.38C50.9358 7.16667 50.5358 7.01333 50.1491 6.92C49.7758 6.82667 49.4158 6.78 49.0691 6.78C48.4158 6.78 47.9291 6.89333 47.6091 7.12C47.3025 7.34667 47.1491 7.64667 47.1491 8.02C47.1491 8.3 47.2425 8.53333 47.4291 8.72C47.6158 8.90667 47.9025 9.03333 48.2891 9.1L50.2891 9.48C51.1558 9.64 51.8091 9.93333 52.2491 10.36C52.7025 10.7867 52.9291 11.36 52.9291 12.08C52.9291 13.0533 52.5491 13.82 51.7891 14.38C51.0291 14.9267 50.0158 15.2 48.7491 15.2ZM59.3171 15.2C58.4504 15.2 57.7238 15.0533 57.1371 14.76C56.5638 14.4667 56.1371 14.04 55.8571 13.48C55.5771 12.9067 55.4371 12.2 55.4371 11.36V7.1H54.3971C54.0771 7.1 53.8304 7.02 53.6571 6.86C53.4838 6.68667 53.3971 6.45333 53.3971 6.16C53.3971 5.85333 53.4838 5.62 53.6571 5.46C53.8304 5.3 54.0771 5.22 54.3971 5.22H55.4371V3.4C55.4371 2.98667 55.5438 2.67333 55.7571 2.46C55.9838 2.24667 56.2971 2.14 56.6971 2.14C57.0971 2.14 57.4038 2.24667 57.6171 2.46C57.8304 2.67333 57.9371 2.98667 57.9371 3.4V5.22H60.0571C60.3771 5.22 60.6238 5.3 60.7971 5.46C60.9704 5.62 61.0571 5.85333 61.0571 6.16C61.0571 6.45333 60.9704 6.68667 60.7971 6.86C60.6238 7.02 60.3771 7.1 60.0571 7.1H57.9371V11.22C57.9371 11.86 58.0771 12.34 58.3571 12.66C58.6371 12.98 59.0904 13.14 59.7171 13.14C59.9438 13.14 60.1438 13.12 60.3171 13.08C60.4904 13.04 60.6438 13.0133 60.7771 13C60.9371 12.9867 61.0704 13.04 61.1771 13.16C61.2838 13.2667 61.3371 13.4933 61.3371 13.84C61.3371 14.1067 61.2904 14.3467 61.1971 14.56C61.1171 14.76 60.9638 14.9 60.7371 14.98C60.5638 15.0333 60.3371 15.08 60.0571 15.12C59.7771 15.1733 59.5304 15.2 59.3171 15.2ZM72.4226 15.2C71.5559 15.2 70.8292 15.0533 70.2426 14.76C69.6692 14.4667 69.2426 14.04 68.9626 13.48C68.6826 12.9067 68.5426 12.2 68.5426 11.36V7.1H67.5026C67.1826 7.1 66.9359 7.02 66.7626 6.86C66.5892 6.68667 66.5026 6.45333 66.5026 6.16C66.5026 5.85333 66.5892 5.62 66.7626 5.46C66.9359 5.3 67.1826 5.22 67.5026 5.22H68.5426V3.4C68.5426 2.98667 68.6492 2.67333 68.8626 2.46C69.0892 2.24667 69.4026 2.14 69.8026 2.14C70.2026 2.14 70.5092 2.24667 70.7226 2.46C70.9359 2.67333 71.0426 2.98667 71.0426 3.4V5.22H73.1626C73.4826 5.22 73.7292 5.3 73.9026 5.46C74.0759 5.62 74.1626 5.85333 74.1626 6.16C74.1626 6.45333 74.0759 6.68667 73.9026 6.86C73.7292 7.02 73.4826 7.1 73.1626 7.1H71.0426V11.22C71.0426 11.86 71.1826 12.34 71.4626 12.66C71.7426 12.98 72.1959 13.14 72.8226 13.14C73.0492 13.14 73.2492 13.12 73.4226 13.08C73.5959 13.04 73.7492 13.0133 73.8826 13C74.0426 12.9867 74.1759 13.04 74.2826 13.16C74.3892 13.2667 74.4426 13.4933 74.4426 13.84C74.4426 14.1067 74.3959 14.3467 74.3026 14.56C74.2226 14.76 74.0692 14.9 73.8426 14.98C73.6692 15.0333 73.4426 15.08 73.1626 15.12C72.8826 15.1733 72.6359 15.2 72.4226 15.2ZM77.1123 15.16C76.7123 15.16 76.4056 15.0533 76.1923 14.84C75.9789 14.6133 75.8723 14.2933 75.8723 13.88V2C75.8723 1.58667 75.9789 1.27333 76.1923 1.06C76.4056 0.846666 76.7123 0.739999 77.1123 0.739999C77.5123 0.739999 77.8189 0.846666 78.0323 1.06C78.2589 1.27333 78.3723 1.58667 78.3723 2V7.18H78.0923C78.3856 6.47333 78.8389 5.94 79.4523 5.58C80.0789 5.20667 80.7856 5.02 81.5723 5.02C82.3589 5.02 83.0056 5.16667 83.5123 5.46C84.0189 5.75333 84.3989 6.2 84.6523 6.8C84.9056 7.38667 85.0323 8.13333 85.0323 9.04V13.88C85.0323 14.2933 84.9256 14.6133 84.7123 14.84C84.4989 15.0533 84.1923 15.16 83.7923 15.16C83.3923 15.16 83.0789 15.0533 82.8523 14.84C82.6389 14.6133 82.5323 14.2933 82.5323 13.88V9.16C82.5323 8.4 82.3856 7.84667 82.0923 7.5C81.8123 7.15333 81.3723 6.98 80.7723 6.98C80.0389 6.98 79.4523 7.21333 79.0123 7.68C78.5856 8.13333 78.3723 8.74 78.3723 9.5V13.88C78.3723 14.7333 77.9523 15.16 77.1123 15.16ZM92.3915 15.2C91.2848 15.2 90.3315 14.9933 89.5315 14.58C88.7315 14.1667 88.1115 13.58 87.6715 12.82C87.2448 12.06 87.0315 11.16 87.0315 10.12C87.0315 9.10667 87.2382 8.22 87.6515 7.46C88.0782 6.7 88.6582 6.10667 89.3915 5.68C90.1382 5.24 90.9848 5.02 91.9315 5.02C92.6248 5.02 93.2448 5.13333 93.7915 5.36C94.3515 5.58667 94.8248 5.91333 95.2115 6.34C95.6115 6.76667 95.9115 7.28667 96.1115 7.9C96.3248 8.5 96.4315 9.18 96.4315 9.94C96.4315 10.18 96.3448 10.3667 96.1715 10.5C96.0115 10.62 95.7782 10.68 95.4715 10.68H89.0515V9.24H94.6715L94.3515 9.54C94.3515 8.92667 94.2582 8.41333 94.0715 8C93.8982 7.58667 93.6382 7.27333 93.2915 7.06C92.9582 6.83333 92.5382 6.72 92.0315 6.72C91.4715 6.72 90.9915 6.85333 90.5915 7.12C90.2048 7.37333 89.9048 7.74 89.6915 8.22C89.4915 8.68667 89.3915 9.24667 89.3915 9.9V10.04C89.3915 11.1333 89.6448 11.9533 90.1515 12.5C90.6715 13.0333 91.4315 13.3 92.4315 13.3C92.7782 13.3 93.1648 13.26 93.5915 13.18C94.0315 13.0867 94.4448 12.9333 94.8315 12.72C95.1115 12.56 95.3582 12.4933 95.5715 12.52C95.7848 12.5333 95.9515 12.6067 96.0715 12.74C96.2048 12.8733 96.2848 13.04 96.3115 13.24C96.3382 13.4267 96.2982 13.62 96.1915 13.82C96.0982 14.02 95.9315 14.1933 95.6915 14.34C95.2248 14.6333 94.6848 14.8533 94.0715 15C93.4715 15.1333 92.9115 15.2 92.3915 15.2ZM105.081 18.76C104.681 18.76 104.374 18.6533 104.161 18.44C103.948 18.2267 103.841 17.9133 103.841 17.5V6.32C103.841 5.90667 103.948 5.59333 104.161 5.38C104.374 5.16667 104.674 5.06 105.061 5.06C105.461 5.06 105.768 5.16667 105.981 5.38C106.194 5.59333 106.301 5.90667 106.301 6.32V7.88L106.081 7.28C106.281 6.6 106.688 6.05333 107.301 5.64C107.928 5.22667 108.654 5.02 109.481 5.02C110.334 5.02 111.081 5.22667 111.721 5.64C112.374 6.05333 112.881 6.64 113.241 7.4C113.601 8.14667 113.781 9.04667 113.781 10.1C113.781 11.14 113.601 12.0467 113.241 12.82C112.881 13.58 112.381 14.1667 111.741 14.58C111.101 14.9933 110.348 15.2 109.481 15.2C108.668 15.2 107.954 15 107.341 14.6C106.728 14.1867 106.314 13.6533 106.101 13H106.341V17.5C106.341 17.9133 106.228 18.2267 106.001 18.44C105.788 18.6533 105.481 18.76 105.081 18.76ZM108.781 13.3C109.274 13.3 109.708 13.18 110.081 12.94C110.454 12.7 110.741 12.3467 110.941 11.88C111.154 11.4 111.261 10.8067 111.261 10.1C111.261 9.03333 111.034 8.24 110.581 7.72C110.128 7.18667 109.528 6.92 108.781 6.92C108.288 6.92 107.854 7.04 107.481 7.28C107.108 7.50667 106.814 7.86 106.601 8.34C106.401 8.80667 106.301 9.39333 106.301 10.1C106.301 11.1533 106.528 11.9533 106.981 12.5C107.434 13.0333 108.034 13.3 108.781 13.3ZM120.293 15.2C119.28 15.2 118.4 14.9933 117.653 14.58C116.907 14.1667 116.327 13.58 115.913 12.82C115.5 12.0467 115.293 11.14 115.293 10.1C115.293 9.31333 115.407 8.61333 115.633 8C115.873 7.37333 116.213 6.84 116.653 6.4C117.093 5.94667 117.62 5.60667 118.233 5.38C118.847 5.14 119.533 5.02 120.293 5.02C121.307 5.02 122.187 5.22667 122.933 5.64C123.68 6.05333 124.26 6.64 124.673 7.4C125.087 8.16 125.293 9.06 125.293 10.1C125.293 10.8867 125.173 11.5933 124.933 12.22C124.707 12.8467 124.373 13.3867 123.933 13.84C123.493 14.28 122.967 14.62 122.353 14.86C121.74 15.0867 121.053 15.2 120.293 15.2ZM120.293 13.3C120.787 13.3 121.22 13.18 121.593 12.94C121.967 12.7 122.253 12.3467 122.453 11.88C122.667 11.4 122.773 10.8067 122.773 10.1C122.773 9.03333 122.547 8.24 122.093 7.72C121.64 7.18667 121.04 6.92 120.293 6.92C119.8 6.92 119.367 7.04 118.993 7.28C118.62 7.50667 118.327 7.86 118.113 8.34C117.913 8.80667 117.813 9.39333 117.813 10.1C117.813 11.1533 118.04 11.9533 118.493 12.5C118.947 13.0333 119.547 13.3 120.293 13.3ZM128.597 15.14C128.197 15.14 127.89 15.02 127.677 14.78C127.463 14.54 127.357 14.2067 127.357 13.78V6.44C127.357 6 127.463 5.66667 127.677 5.44C127.89 5.2 128.197 5.08 128.597 5.08C128.997 5.08 129.303 5.2 129.517 5.44C129.743 5.66667 129.857 6 129.857 6.44V13.78C129.857 14.2067 129.75 14.54 129.537 14.78C129.323 15.02 129.01 15.14 128.597 15.14ZM128.597 3.22C128.13 3.22 127.763 3.10667 127.497 2.88C127.243 2.64 127.117 2.31333 127.117 1.9C127.117 1.47333 127.243 1.14667 127.497 0.919999C127.763 0.693333 128.13 0.58 128.597 0.58C129.077 0.58 129.443 0.693333 129.697 0.919999C129.95 1.14667 130.077 1.47333 130.077 1.9C130.077 2.31333 129.95 2.64 129.697 2.88C129.443 3.10667 129.077 3.22 128.597 3.22ZM133.694 15.16C133.294 15.16 132.988 15.0533 132.774 14.84C132.561 14.6133 132.454 14.2933 132.454 13.88V6.32C132.454 5.90667 132.561 5.59333 132.774 5.38C132.988 5.16667 133.288 5.06 133.674 5.06C134.061 5.06 134.361 5.16667 134.574 5.38C134.788 5.59333 134.894 5.90667 134.894 6.32V7.68L134.674 7.18C134.968 6.47333 135.421 5.94 136.034 5.58C136.661 5.20667 137.368 5.02 138.154 5.02C138.941 5.02 139.588 5.16667 140.094 5.46C140.601 5.75333 140.981 6.2 141.234 6.8C141.488 7.38667 141.614 8.13333 141.614 9.04V13.88C141.614 14.2933 141.508 14.6133 141.294 14.84C141.081 15.0533 140.774 15.16 140.374 15.16C139.974 15.16 139.661 15.0533 139.434 14.84C139.221 14.6133 139.114 14.2933 139.114 13.88V9.16C139.114 8.4 138.968 7.84667 138.674 7.5C138.394 7.15333 137.954 6.98 137.354 6.98C136.621 6.98 136.034 7.21333 135.594 7.68C135.168 8.13333 134.954 8.74 134.954 9.5V13.88C134.954 14.7333 134.534 15.16 133.694 15.16ZM148.634 15.2C147.767 15.2 147.04 15.0533 146.454 14.76C145.88 14.4667 145.454 14.04 145.174 13.48C144.894 12.9067 144.754 12.2 144.754 11.36V7.1H143.714C143.394 7.1 143.147 7.02 142.974 6.86C142.8 6.68667 142.714 6.45333 142.714 6.16C142.714 5.85333 142.8 5.62 142.974 5.46C143.147 5.3 143.394 5.22 143.714 5.22H144.754V3.4C144.754 2.98667 144.86 2.67333 145.074 2.46C145.3 2.24667 145.614 2.14 146.014 2.14C146.414 2.14 146.72 2.24667 146.934 2.46C147.147 2.67333 147.254 2.98667 147.254 3.4V5.22H149.374C149.694 5.22 149.94 5.3 150.114 5.46C150.287 5.62 150.374 5.85333 150.374 6.16C150.374 6.45333 150.287 6.68667 150.114 6.86C149.94 7.02 149.694 7.1 149.374 7.1H147.254V11.22C147.254 11.86 147.394 12.34 147.674 12.66C147.954 12.98 148.407 13.14 149.034 13.14C149.26 13.14 149.46 13.12 149.634 13.08C149.807 13.04 149.96 13.0133 150.094 13C150.254 12.9867 150.387 13.04 150.494 13.16C150.6 13.2667 150.654 13.4933 150.654 13.84C150.654 14.1067 150.607 14.3467 150.514 14.56C150.434 14.76 150.28 14.9 150.054 14.98C149.88 15.0333 149.654 15.08 149.374 15.12C149.094 15.1733 148.847 15.2 148.634 15.2ZM156.552 15.2C155.445 15.2 154.492 14.9933 153.692 14.58C152.892 14.1667 152.272 13.58 151.832 12.82C151.405 12.06 151.192 11.16 151.192 10.12C151.192 9.10667 151.398 8.22 151.812 7.46C152.238 6.7 152.818 6.10667 153.552 5.68C154.298 5.24 155.145 5.02 156.092 5.02C156.785 5.02 157.405 5.13333 157.952 5.36C158.512 5.58667 158.985 5.91333 159.372 6.34C159.772 6.76667 160.072 7.28667 160.272 7.9C160.485 8.5 160.592 9.18 160.592 9.94C160.592 10.18 160.505 10.3667 160.332 10.5C160.172 10.62 159.938 10.68 159.632 10.68H153.212V9.24H158.832L158.512 9.54C158.512 8.92667 158.418 8.41333 158.232 8C158.058 7.58667 157.798 7.27333 157.452 7.06C157.118 6.83333 156.698 6.72 156.192 6.72C155.632 6.72 155.152 6.85333 154.752 7.12C154.365 7.37333 154.065 7.74 153.852 8.22C153.652 8.68667 153.552 9.24667 153.552 9.9V10.04C153.552 11.1333 153.805 11.9533 154.312 12.5C154.832 13.0333 155.592 13.3 156.592 13.3C156.938 13.3 157.325 13.26 157.752 13.18C158.192 13.0867 158.605 12.9333 158.992 12.72C159.272 12.56 159.518 12.4933 159.732 12.52C159.945 12.5333 160.112 12.6067 160.232 12.74C160.365 12.8733 160.445 13.04 160.472 13.24C160.498 13.4267 160.458 13.62 160.352 13.82C160.258 14.02 160.092 14.1933 159.852 14.34C159.385 14.6333 158.845 14.8533 158.232 15C157.632 15.1333 157.072 15.2 156.552 15.2ZM163.851 15.16C163.438 15.16 163.118 15.0533 162.891 14.84C162.678 14.6133 162.571 14.2933 162.571 13.88V6.32C162.571 5.90667 162.678 5.59333 162.891 5.38C163.105 5.16667 163.405 5.06 163.791 5.06C164.178 5.06 164.478 5.16667 164.691 5.38C164.905 5.59333 165.011 5.90667 165.011 6.32V7.58H164.811C164.998 6.78 165.365 6.17333 165.911 5.76C166.458 5.34667 167.185 5.1 168.091 5.02C168.371 4.99333 168.591 5.06667 168.751 5.24C168.925 5.4 169.025 5.65333 169.051 6C169.078 6.33333 168.998 6.60667 168.811 6.82C168.638 7.02 168.371 7.14 168.011 7.18L167.571 7.22C166.758 7.3 166.145 7.55333 165.731 7.98C165.318 8.39333 165.111 8.98 165.111 9.74V13.88C165.111 14.2933 165.005 14.6133 164.791 14.84C164.578 15.0533 164.265 15.16 163.851 15.16ZM173.886 15.2C173.313 15.2 172.706 15.14 172.066 15.02C171.426 14.9 170.853 14.6933 170.346 14.4C170.133 14.2667 169.979 14.1133 169.886 13.94C169.806 13.7533 169.773 13.5733 169.786 13.4C169.813 13.2133 169.879 13.0533 169.986 12.92C170.106 12.7867 170.253 12.7 170.426 12.66C170.613 12.62 170.813 12.6533 171.026 12.76C171.559 13.0133 172.059 13.1933 172.526 13.3C172.993 13.3933 173.453 13.44 173.906 13.44C174.546 13.44 175.019 13.3333 175.326 13.12C175.646 12.8933 175.806 12.6 175.806 12.24C175.806 11.9333 175.699 11.7 175.486 11.54C175.286 11.3667 174.979 11.24 174.566 11.16L172.566 10.78C171.739 10.62 171.106 10.32 170.666 9.88C170.239 9.42667 170.026 8.84667 170.026 8.14C170.026 7.5 170.199 6.94667 170.546 6.48C170.906 6.01333 171.399 5.65333 172.026 5.4C172.653 5.14667 173.373 5.02 174.186 5.02C174.773 5.02 175.319 5.08667 175.826 5.22C176.346 5.34 176.846 5.53333 177.326 5.8C177.526 5.90667 177.659 6.04667 177.726 6.22C177.806 6.39333 177.826 6.57333 177.786 6.76C177.746 6.93333 177.666 7.09333 177.546 7.24C177.426 7.37333 177.273 7.46 177.086 7.5C176.913 7.52667 176.713 7.48667 176.486 7.38C176.073 7.16667 175.673 7.01333 175.286 6.92C174.913 6.82667 174.553 6.78 174.206 6.78C173.553 6.78 173.066 6.89333 172.746 7.12C172.439 7.34667 172.286 7.64667 172.286 8.02C172.286 8.3 172.379 8.53333 172.566 8.72C172.753 8.90667 173.039 9.03333 173.426 9.1L175.426 9.48C176.293 9.64 176.946 9.93333 177.386 10.36C177.839 10.7867 178.066 11.36 178.066 12.08C178.066 13.0533 177.686 13.82 176.926 14.38C176.166 14.9267 175.153 15.2 173.886 15.2ZM189.981 15.2C189.115 15.2 188.388 15.0533 187.801 14.76C187.228 14.4667 186.801 14.04 186.521 13.48C186.241 12.9067 186.101 12.2 186.101 11.36V7.1H185.061C184.741 7.1 184.495 7.02 184.321 6.86C184.148 6.68667 184.061 6.45333 184.061 6.16C184.061 5.85333 184.148 5.62 184.321 5.46C184.495 5.3 184.741 5.22 185.061 5.22H186.101V3.4C186.101 2.98667 186.208 2.67333 186.421 2.46C186.648 2.24667 186.961 2.14 187.361 2.14C187.761 2.14 188.068 2.24667 188.281 2.46C188.495 2.67333 188.601 2.98667 188.601 3.4V5.22H190.721C191.041 5.22 191.288 5.3 191.461 5.46C191.635 5.62 191.721 5.85333 191.721 6.16C191.721 6.45333 191.635 6.68667 191.461 6.86C191.288 7.02 191.041 7.1 190.721 7.1H188.601V11.22C188.601 11.86 188.741 12.34 189.021 12.66C189.301 12.98 189.755 13.14 190.381 13.14C190.608 13.14 190.808 13.12 190.981 13.08C191.155 13.04 191.308 13.0133 191.441 13C191.601 12.9867 191.735 13.04 191.841 13.16C191.948 13.2667 192.001 13.4933 192.001 13.84C192.001 14.1067 191.955 14.3467 191.861 14.56C191.781 14.76 191.628 14.9 191.401 14.98C191.228 15.0333 191.001 15.08 190.721 15.12C190.441 15.1733 190.195 15.2 189.981 15.2ZM197.539 15.2C196.526 15.2 195.646 14.9933 194.899 14.58C194.153 14.1667 193.573 13.58 193.159 12.82C192.746 12.0467 192.539 11.14 192.539 10.1C192.539 9.31333 192.653 8.61333 192.879 8C193.119 7.37333 193.459 6.84 193.899 6.4C194.339 5.94667 194.866 5.60667 195.479 5.38C196.093 5.14 196.779 5.02 197.539 5.02C198.553 5.02 199.433 5.22667 200.179 5.64C200.926 6.05333 201.506 6.64 201.919 7.4C202.333 8.16 202.539 9.06 202.539 10.1C202.539 10.8867 202.419 11.5933 202.179 12.22C201.953 12.8467 201.619 13.3867 201.179 13.84C200.739 14.28 200.213 14.62 199.599 14.86C198.986 15.0867 198.299 15.2 197.539 15.2ZM197.539 13.3C198.033 13.3 198.466 13.18 198.839 12.94C199.213 12.7 199.499 12.3467 199.699 11.88C199.913 11.4 200.019 10.8067 200.019 10.1C200.019 9.03333 199.793 8.24 199.339 7.72C198.886 7.18667 198.286 6.92 197.539 6.92C197.046 6.92 196.613 7.04 196.239 7.28C195.866 7.50667 195.573 7.86 195.359 8.34C195.159 8.80667 195.059 9.39333 195.059 10.1C195.059 11.1533 195.286 11.9533 195.739 12.5C196.193 13.0333 196.793 13.3 197.539 13.3ZM213.612 15.2C213.039 15.2 212.432 15.14 211.792 15.02C211.152 14.9 210.579 14.6933 210.072 14.4C209.859 14.2667 209.706 14.1133 209.612 13.94C209.532 13.7533 209.499 13.5733 209.512 13.4C209.539 13.2133 209.606 13.0533 209.712 12.92C209.832 12.7867 209.979 12.7 210.152 12.66C210.339 12.62 210.539 12.6533 210.752 12.76C211.286 13.0133 211.786 13.1933 212.252 13.3C212.719 13.3933 213.179 13.44 213.632 13.44C214.272 13.44 214.746 13.3333 215.052 13.12C215.372 12.8933 215.532 12.6 215.532 12.24C215.532 11.9333 215.426 11.7 215.212 11.54C215.012 11.3667 214.706 11.24 214.292 11.16L212.292 10.78C211.466 10.62 210.832 10.32 210.392 9.88C209.966 9.42667 209.752 8.84667 209.752 8.14C209.752 7.5 209.926 6.94667 210.272 6.48C210.632 6.01333 211.126 5.65333 211.752 5.4C212.379 5.14667 213.099 5.02 213.912 5.02C214.499 5.02 215.046 5.08667 215.552 5.22C216.072 5.34 216.572 5.53333 217.052 5.8C217.252 5.90667 217.386 6.04667 217.452 6.22C217.532 6.39333 217.552 6.57333 217.512 6.76C217.472 6.93333 217.392 7.09333 217.272 7.24C217.152 7.37333 216.999 7.46 216.812 7.5C216.639 7.52667 216.439 7.48667 216.212 7.38C215.799 7.16667 215.399 7.01333 215.012 6.92C214.639 6.82667 214.279 6.78 213.932 6.78C213.279 6.78 212.792 6.89333 212.472 7.12C212.166 7.34667 212.012 7.64667 212.012 8.02C212.012 8.3 212.106 8.53333 212.292 8.72C212.479 8.90667 212.766 9.03333 213.152 9.1L215.152 9.48C216.019 9.64 216.672 9.93333 217.112 10.36C217.566 10.7867 217.792 11.36 217.792 12.08C217.792 13.0533 217.412 13.82 216.652 14.38C215.892 14.9267 214.879 15.2 213.612 15.2ZM224.618 15.2C223.511 15.2 222.558 14.9933 221.758 14.58C220.958 14.1667 220.338 13.58 219.898 12.82C219.471 12.06 219.258 11.16 219.258 10.12C219.258 9.10667 219.465 8.22 219.878 7.46C220.305 6.7 220.885 6.10667 221.618 5.68C222.365 5.24 223.211 5.02 224.158 5.02C224.851 5.02 225.471 5.13333 226.018 5.36C226.578 5.58667 227.051 5.91333 227.438 6.34C227.838 6.76667 228.138 7.28667 228.338 7.9C228.551 8.5 228.658 9.18 228.658 9.94C228.658 10.18 228.571 10.3667 228.398 10.5C228.238 10.62 228.005 10.68 227.698 10.68H221.278V9.24H226.898L226.578 9.54C226.578 8.92667 226.485 8.41333 226.298 8C226.125 7.58667 225.865 7.27333 225.518 7.06C225.185 6.83333 224.765 6.72 224.258 6.72C223.698 6.72 223.218 6.85333 222.818 7.12C222.431 7.37333 222.131 7.74 221.918 8.22C221.718 8.68667 221.618 9.24667 221.618 9.9V10.04C221.618 11.1333 221.871 11.9533 222.378 12.5C222.898 13.0333 223.658 13.3 224.658 13.3C225.005 13.3 225.391 13.26 225.818 13.18C226.258 13.0867 226.671 12.9333 227.058 12.72C227.338 12.56 227.585 12.4933 227.798 12.52C228.011 12.5333 228.178 12.6067 228.298 12.74C228.431 12.8733 228.511 13.04 228.538 13.24C228.565 13.4267 228.525 13.62 228.418 13.82C228.325 14.02 228.158 14.1933 227.918 14.34C227.451 14.6333 226.911 14.8533 226.298 15C225.698 15.1333 225.138 15.2 224.618 15.2ZM235.079 15.2C234.212 15.2 233.485 15.0533 232.899 14.76C232.325 14.4667 231.899 14.04 231.619 13.48C231.339 12.9067 231.199 12.2 231.199 11.36V7.1H230.159C229.839 7.1 229.592 7.02 229.419 6.86C229.245 6.68667 229.159 6.45333 229.159 6.16C229.159 5.85333 229.245 5.62 229.419 5.46C229.592 5.3 229.839 5.22 230.159 5.22H231.199V3.4C231.199 2.98667 231.305 2.67333 231.519 2.46C231.745 2.24667 232.059 2.14 232.459 2.14C232.859 2.14 233.165 2.24667 233.379 2.46C233.592 2.67333 233.699 2.98667 233.699 3.4V5.22H235.819C236.139 5.22 236.385 5.3 236.559 5.46C236.732 5.62 236.819 5.85333 236.819 6.16C236.819 6.45333 236.732 6.68667 236.559 6.86C236.385 7.02 236.139 7.1 235.819 7.1H233.699V11.22C233.699 11.86 233.839 12.34 234.119 12.66C234.399 12.98 234.852 13.14 235.479 13.14C235.705 13.14 235.905 13.12 236.079 13.08C236.252 13.04 236.405 13.0133 236.539 13C236.699 12.9867 236.832 13.04 236.939 13.16C237.045 13.2667 237.099 13.4933 237.099 13.84C237.099 14.1067 237.052 14.3467 236.959 14.56C236.879 14.76 236.725 14.9 236.499 14.98C236.325 15.0333 236.099 15.08 235.819 15.12C235.539 15.1733 235.292 15.2 235.079 15.2ZM246.924 15.2C246.218 15.2 245.584 15.0667 245.024 14.8C244.478 14.52 244.044 14.1467 243.724 13.68C243.418 13.2133 243.264 12.6867 243.264 12.1C243.264 11.38 243.451 10.8133 243.824 10.4C244.198 9.97333 244.804 9.66667 245.644 9.48C246.484 9.29333 247.611 9.2 249.024 9.2H250.024V10.64H249.044C248.218 10.64 247.558 10.68 247.064 10.76C246.571 10.84 246.218 10.98 246.004 11.18C245.804 11.3667 245.704 11.6333 245.704 11.98C245.704 12.42 245.858 12.78 246.164 13.06C246.471 13.34 246.898 13.48 247.444 13.48C247.884 13.48 248.271 13.38 248.604 13.18C248.951 12.9667 249.224 12.68 249.424 12.32C249.624 11.96 249.724 11.5467 249.724 11.08V8.78C249.724 8.11333 249.578 7.63333 249.284 7.34C248.991 7.04667 248.498 6.9 247.804 6.9C247.418 6.9 246.998 6.94667 246.544 7.04C246.104 7.13333 245.638 7.29333 245.144 7.52C244.891 7.64 244.664 7.67333 244.464 7.62C244.278 7.56667 244.131 7.46 244.024 7.3C243.918 7.12667 243.864 6.94 243.864 6.74C243.864 6.54 243.918 6.34667 244.024 6.16C244.131 5.96 244.311 5.81333 244.564 5.72C245.178 5.46667 245.764 5.28667 246.324 5.18C246.898 5.07333 247.418 5.02 247.884 5.02C248.844 5.02 249.631 5.16667 250.244 5.46C250.871 5.75333 251.338 6.2 251.644 6.8C251.951 7.38667 252.104 8.14667 252.104 9.08V13.88C252.104 14.2933 252.004 14.6133 251.804 14.84C251.604 15.0533 251.318 15.16 250.944 15.16C250.571 15.16 250.278 15.0533 250.064 14.84C249.864 14.6133 249.764 14.2933 249.764 13.88V12.92H249.924C249.831 13.3867 249.644 13.7933 249.364 14.14C249.098 14.4733 248.758 14.7333 248.344 14.92C247.931 15.1067 247.458 15.2 246.924 15.2ZM263.411 15.2C262.305 15.2 261.471 14.8867 260.911 14.26C260.351 13.62 260.071 12.6867 260.071 11.46V2C260.071 1.58667 260.178 1.27333 260.391 1.06C260.605 0.846666 260.911 0.739999 261.311 0.739999C261.711 0.739999 262.018 0.846666 262.231 1.06C262.458 1.27333 262.571 1.58667 262.571 2V11.34C262.571 11.9533 262.698 12.4067 262.951 12.7C263.218 12.9933 263.591 13.14 264.071 13.14C264.178 13.14 264.278 13.14 264.371 13.14C264.465 13.1267 264.558 13.1133 264.651 13.1C264.838 13.0733 264.965 13.1267 265.031 13.26C265.098 13.38 265.131 13.6333 265.131 14.02C265.131 14.3533 265.065 14.6133 264.931 14.8C264.798 14.9867 264.578 15.1 264.271 15.14C264.138 15.1533 263.998 15.1667 263.851 15.18C263.705 15.1933 263.558 15.2 263.411 15.2ZM267.698 15.14C267.298 15.14 266.992 15.02 266.778 14.78C266.565 14.54 266.458 14.2067 266.458 13.78V6.44C266.458 6 266.565 5.66667 266.778 5.44C266.992 5.2 267.298 5.08 267.698 5.08C268.098 5.08 268.405 5.2 268.618 5.44C268.845 5.66667 268.958 6 268.958 6.44V13.78C268.958 14.2067 268.852 14.54 268.638 14.78C268.425 15.02 268.112 15.14 267.698 15.14ZM267.698 3.22C267.232 3.22 266.865 3.10667 266.598 2.88C266.345 2.64 266.218 2.31333 266.218 1.9C266.218 1.47333 266.345 1.14667 266.598 0.919999C266.865 0.693333 267.232 0.58 267.698 0.58C268.178 0.58 268.545 0.693333 268.798 0.919999C269.052 1.14667 269.178 1.47333 269.178 1.9C269.178 2.31333 269.052 2.64 268.798 2.88C268.545 3.10667 268.178 3.22 267.698 3.22ZM272.796 15.16C272.396 15.16 272.089 15.0533 271.876 14.84C271.663 14.6133 271.556 14.2933 271.556 13.88V6.32C271.556 5.90667 271.663 5.59333 271.876 5.38C272.089 5.16667 272.389 5.06 272.776 5.06C273.163 5.06 273.463 5.16667 273.676 5.38C273.889 5.59333 273.996 5.90667 273.996 6.32V7.68L273.776 7.18C274.069 6.47333 274.523 5.94 275.136 5.58C275.763 5.20667 276.469 5.02 277.256 5.02C278.043 5.02 278.689 5.16667 279.196 5.46C279.703 5.75333 280.083 6.2 280.336 6.8C280.589 7.38667 280.716 8.13333 280.716 9.04V13.88C280.716 14.2933 280.609 14.6133 280.396 14.84C280.183 15.0533 279.876 15.16 279.476 15.16C279.076 15.16 278.763 15.0533 278.536 14.84C278.323 14.6133 278.216 14.2933 278.216 13.88V9.16C278.216 8.4 278.069 7.84667 277.776 7.5C277.496 7.15333 277.056 6.98 276.456 6.98C275.723 6.98 275.136 7.21333 274.696 7.68C274.269 8.13333 274.056 8.74 274.056 9.5V13.88C274.056 14.7333 273.636 15.16 272.796 15.16ZM288.075 15.2C286.968 15.2 286.015 14.9933 285.215 14.58C284.415 14.1667 283.795 13.58 283.355 12.82C282.928 12.06 282.715 11.16 282.715 10.12C282.715 9.10667 282.922 8.22 283.335 7.46C283.762 6.7 284.342 6.10667 285.075 5.68C285.822 5.24 286.668 5.02 287.615 5.02C288.308 5.02 288.928 5.13333 289.475 5.36C290.035 5.58667 290.508 5.91333 290.895 6.34C291.295 6.76667 291.595 7.28667 291.795 7.9C292.008 8.5 292.115 9.18 292.115 9.94C292.115 10.18 292.028 10.3667 291.855 10.5C291.695 10.62 291.462 10.68 291.155 10.68H284.735V9.24H290.355L290.035 9.54C290.035 8.92667 289.942 8.41333 289.755 8C289.582 7.58667 289.322 7.27333 288.975 7.06C288.642 6.83333 288.222 6.72 287.715 6.72C287.155 6.72 286.675 6.85333 286.275 7.12C285.888 7.37333 285.588 7.74 285.375 8.22C285.175 8.68667 285.075 9.24667 285.075 9.9V10.04C285.075 11.1333 285.328 11.9533 285.835 12.5C286.355 13.0333 287.115 13.3 288.115 13.3C288.462 13.3 288.848 13.26 289.275 13.18C289.715 13.0867 290.128 12.9333 290.515 12.72C290.795 12.56 291.042 12.4933 291.255 12.52C291.468 12.5333 291.635 12.6067 291.755 12.74C291.888 12.8733 291.968 13.04 291.995 13.24C292.022 13.4267 291.982 13.62 291.875 13.82C291.782 14.02 291.615 14.1933 291.375 14.34C290.908 14.6333 290.368 14.8533 289.755 15C289.155 15.1333 288.595 15.2 288.075 15.2ZM304.005 15.2C303.138 15.2 302.411 15.0533 301.825 14.76C301.251 14.4667 300.825 14.04 300.545 13.48C300.265 12.9067 300.125 12.2 300.125 11.36V7.1H299.085C298.765 7.1 298.518 7.02 298.345 6.86C298.171 6.68667 298.085 6.45333 298.085 6.16C298.085 5.85333 298.171 5.62 298.345 5.46C298.518 5.3 298.765 5.22 299.085 5.22H300.125V3.4C300.125 2.98667 300.231 2.67333 300.445 2.46C300.671 2.24667 300.985 2.14 301.385 2.14C301.785 2.14 302.091 2.24667 302.305 2.46C302.518 2.67333 302.625 2.98667 302.625 3.4V5.22H304.745C305.065 5.22 305.311 5.3 305.485 5.46C305.658 5.62 305.745 5.85333 305.745 6.16C305.745 6.45333 305.658 6.68667 305.485 6.86C305.311 7.02 305.065 7.1 304.745 7.1H302.625V11.22C302.625 11.86 302.765 12.34 303.045 12.66C303.325 12.98 303.778 13.14 304.405 13.14C304.631 13.14 304.831 13.12 305.005 13.08C305.178 13.04 305.331 13.0133 305.465 13C305.625 12.9867 305.758 13.04 305.865 13.16C305.971 13.2667 306.025 13.4933 306.025 13.84C306.025 14.1067 305.978 14.3467 305.885 14.56C305.805 14.76 305.651 14.9 305.425 14.98C305.251 15.0333 305.025 15.08 304.745 15.12C304.465 15.1733 304.218 15.2 304.005 15.2ZM308.694 15.16C308.294 15.16 307.988 15.0533 307.774 14.84C307.561 14.6133 307.454 14.2933 307.454 13.88V2C307.454 1.58667 307.561 1.27333 307.774 1.06C307.988 0.846666 308.294 0.739999 308.694 0.739999C309.094 0.739999 309.401 0.846666 309.614 1.06C309.841 1.27333 309.954 1.58667 309.954 2V7.18H309.674C309.968 6.47333 310.421 5.94 311.034 5.58C311.661 5.20667 312.368 5.02 313.154 5.02C313.941 5.02 314.588 5.16667 315.094 5.46C315.601 5.75333 315.981 6.2 316.234 6.8C316.488 7.38667 316.614 8.13333 316.614 9.04V13.88C316.614 14.2933 316.508 14.6133 316.294 14.84C316.081 15.0533 315.774 15.16 315.374 15.16C314.974 15.16 314.661 15.0533 314.434 14.84C314.221 14.6133 314.114 14.2933 314.114 13.88V9.16C314.114 8.4 313.968 7.84667 313.674 7.5C313.394 7.15333 312.954 6.98 312.354 6.98C311.621 6.98 311.034 7.21333 310.594 7.68C310.168 8.13333 309.954 8.74 309.954 9.5V13.88C309.954 14.7333 309.534 15.16 308.694 15.16ZM322.374 15.2C321.667 15.2 321.034 15.0667 320.474 14.8C319.927 14.52 319.494 14.1467 319.174 13.68C318.867 13.2133 318.714 12.6867 318.714 12.1C318.714 11.38 318.9 10.8133 319.274 10.4C319.647 9.97333 320.254 9.66667 321.094 9.48C321.934 9.29333 323.06 9.2 324.474 9.2H325.474V10.64H324.494C323.667 10.64 323.007 10.68 322.514 10.76C322.02 10.84 321.667 10.98 321.454 11.18C321.254 11.3667 321.154 11.6333 321.154 11.98C321.154 12.42 321.307 12.78 321.614 13.06C321.92 13.34 322.347 13.48 322.894 13.48C323.334 13.48 323.72 13.38 324.054 13.18C324.4 12.9667 324.674 12.68 324.874 12.32C325.074 11.96 325.174 11.5467 325.174 11.08V8.78C325.174 8.11333 325.027 7.63333 324.734 7.34C324.44 7.04667 323.947 6.9 323.254 6.9C322.867 6.9 322.447 6.94667 321.994 7.04C321.554 7.13333 321.087 7.29333 320.594 7.52C320.34 7.64 320.114 7.67333 319.914 7.62C319.727 7.56667 319.58 7.46 319.474 7.3C319.367 7.12667 319.314 6.94 319.314 6.74C319.314 6.54 319.367 6.34667 319.474 6.16C319.58 5.96 319.76 5.81333 320.014 5.72C320.627 5.46667 321.214 5.28667 321.774 5.18C322.347 5.07333 322.867 5.02 323.334 5.02C324.294 5.02 325.08 5.16667 325.694 5.46C326.32 5.75333 326.787 6.2 327.094 6.8C327.4 7.38667 327.554 8.14667 327.554 9.08V13.88C327.554 14.2933 327.454 14.6133 327.254 14.84C327.054 15.0533 326.767 15.16 326.394 15.16C326.02 15.16 325.727 15.0533 325.514 14.84C325.314 14.6133 325.214 14.2933 325.214 13.88V12.92H325.374C325.28 13.3867 325.094 13.7933 324.814 14.14C324.547 14.4733 324.207 14.7333 323.794 14.92C323.38 15.1067 322.907 15.2 322.374 15.2ZM334.571 15.2C333.704 15.2 332.978 15.0533 332.391 14.76C331.818 14.4667 331.391 14.04 331.111 13.48C330.831 12.9067 330.691 12.2 330.691 11.36V7.1H329.651C329.331 7.1 329.084 7.02 328.911 6.86C328.738 6.68667 328.651 6.45333 328.651 6.16C328.651 5.85333 328.738 5.62 328.911 5.46C329.084 5.3 329.331 5.22 329.651 5.22H330.691V3.4C330.691 2.98667 330.798 2.67333 331.011 2.46C331.238 2.24667 331.551 2.14 331.951 2.14C332.351 2.14 332.658 2.24667 332.871 2.46C333.084 2.67333 333.191 2.98667 333.191 3.4V5.22H335.311C335.631 5.22 335.878 5.3 336.051 5.46C336.224 5.62 336.311 5.85333 336.311 6.16C336.311 6.45333 336.224 6.68667 336.051 6.86C335.878 7.02 335.631 7.1 335.311 7.1H333.191V11.22C333.191 11.86 333.331 12.34 333.611 12.66C333.891 12.98 334.344 13.14 334.971 13.14C335.198 13.14 335.398 13.12 335.571 13.08C335.744 13.04 335.898 13.0133 336.031 13C336.191 12.9867 336.324 13.04 336.431 13.16C336.538 13.2667 336.591 13.4933 336.591 13.84C336.591 14.1067 336.544 14.3467 336.451 14.56C336.371 14.76 336.218 14.9 335.991 14.98C335.818 15.0333 335.591 15.08 335.311 15.12C335.031 15.1733 334.784 15.2 334.571 15.2ZM347.656 15.2C346.643 15.2 345.763 14.9933 345.016 14.58C344.27 14.1667 343.69 13.58 343.276 12.82C342.863 12.0467 342.656 11.14 342.656 10.1C342.656 9.31333 342.77 8.61333 342.996 8C343.236 7.37333 343.576 6.84 344.016 6.4C344.456 5.94667 344.983 5.60667 345.596 5.38C346.21 5.14 346.896 5.02 347.656 5.02C348.67 5.02 349.55 5.22667 350.296 5.64C351.043 6.05333 351.623 6.64 352.036 7.4C352.45 8.16 352.656 9.06 352.656 10.1C352.656 10.8867 352.536 11.5933 352.296 12.22C352.07 12.8467 351.736 13.3867 351.296 13.84C350.856 14.28 350.33 14.62 349.716 14.86C349.103 15.0867 348.416 15.2 347.656 15.2ZM347.656 13.3C348.15 13.3 348.583 13.18 348.956 12.94C349.33 12.7 349.616 12.3467 349.816 11.88C350.03 11.4 350.136 10.8067 350.136 10.1C350.136 9.03333 349.91 8.24 349.456 7.72C349.003 7.18667 348.403 6.92 347.656 6.92C347.163 6.92 346.73 7.04 346.356 7.28C345.983 7.50667 345.69 7.86 345.476 8.34C345.276 8.80667 345.176 9.39333 345.176 10.1C345.176 11.1533 345.403 11.9533 345.856 12.5C346.31 13.0333 346.91 13.3 347.656 13.3ZM358.485 15.16C358.151 15.16 357.858 15.0733 357.605 14.9C357.365 14.7267 357.165 14.46 357.005 14.1L353.825 6.72C353.705 6.42667 353.658 6.15333 353.685 5.9C353.725 5.64667 353.845 5.44667 354.045 5.3C354.258 5.14 354.545 5.06 354.905 5.06C355.211 5.06 355.458 5.13333 355.645 5.28C355.831 5.41333 355.998 5.67333 356.145 6.06L358.845 12.8H358.245L361.025 6.04C361.171 5.66667 361.338 5.41333 361.525 5.28C361.725 5.13333 361.991 5.06 362.325 5.06C362.618 5.06 362.851 5.14 363.025 5.3C363.198 5.44667 363.305 5.64667 363.345 5.9C363.385 6.14 363.338 6.40667 363.205 6.7L359.965 14.1C359.818 14.46 359.618 14.7267 359.365 14.9C359.125 15.0733 358.831 15.16 358.485 15.16ZM369.696 15.2C368.59 15.2 367.636 14.9933 366.836 14.58C366.036 14.1667 365.416 13.58 364.976 12.82C364.55 12.06 364.336 11.16 364.336 10.12C364.336 9.10667 364.543 8.22 364.956 7.46C365.383 6.7 365.963 6.10667 366.696 5.68C367.443 5.24 368.29 5.02 369.236 5.02C369.93 5.02 370.55 5.13333 371.096 5.36C371.656 5.58667 372.13 5.91333 372.516 6.34C372.916 6.76667 373.216 7.28667 373.416 7.9C373.63 8.5 373.736 9.18 373.736 9.94C373.736 10.18 373.65 10.3667 373.476 10.5C373.316 10.62 373.083 10.68 372.776 10.68H366.356V9.24H371.976L371.656 9.54C371.656 8.92667 371.563 8.41333 371.376 8C371.203 7.58667 370.943 7.27333 370.596 7.06C370.263 6.83333 369.843 6.72 369.336 6.72C368.776 6.72 368.296 6.85333 367.896 7.12C367.51 7.37333 367.21 7.74 366.996 8.22C366.796 8.68667 366.696 9.24667 366.696 9.9V10.04C366.696 11.1333 366.95 11.9533 367.456 12.5C367.976 13.0333 368.736 13.3 369.736 13.3C370.083 13.3 370.47 13.26 370.896 13.18C371.336 13.0867 371.75 12.9333 372.136 12.72C372.416 12.56 372.663 12.4933 372.876 12.52C373.09 12.5333 373.256 12.6067 373.376 12.74C373.51 12.8733 373.59 13.04 373.616 13.24C373.643 13.4267 373.603 13.62 373.496 13.82C373.403 14.02 373.236 14.1933 372.996 14.34C372.53 14.6333 371.99 14.8533 371.376 15C370.776 15.1333 370.216 15.2 369.696 15.2ZM376.996 15.16C376.583 15.16 376.263 15.0533 376.036 14.84C375.823 14.6133 375.716 14.2933 375.716 13.88V6.32C375.716 5.90667 375.823 5.59333 376.036 5.38C376.249 5.16667 376.549 5.06 376.936 5.06C377.323 5.06 377.623 5.16667 377.836 5.38C378.049 5.59333 378.156 5.90667 378.156 6.32V7.58H377.956C378.143 6.78 378.509 6.17333 379.056 5.76C379.603 5.34667 380.329 5.1 381.236 5.02C381.516 4.99333 381.736 5.06667 381.896 5.24C382.069 5.4 382.169 5.65333 382.196 6C382.223 6.33333 382.143 6.60667 381.956 6.82C381.783 7.02 381.516 7.14 381.156 7.18L380.716 7.22C379.903 7.3 379.289 7.55333 378.876 7.98C378.463 8.39333 378.256 8.98 378.256 9.74V13.88C378.256 14.2933 378.149 14.6133 377.936 14.84C377.723 15.0533 377.409 15.16 376.996 15.16ZM386.888 15.2C385.781 15.2 384.948 14.8867 384.388 14.26C383.828 13.62 383.548 12.6867 383.548 11.46V2C383.548 1.58667 383.655 1.27333 383.868 1.06C384.081 0.846666 384.388 0.739999 384.788 0.739999C385.188 0.739999 385.495 0.846666 385.708 1.06C385.935 1.27333 386.048 1.58667 386.048 2V11.34C386.048 11.9533 386.175 12.4067 386.428 12.7C386.695 12.9933 387.068 13.14 387.548 13.14C387.655 13.14 387.755 13.14 387.848 13.14C387.941 13.1267 388.035 13.1133 388.128 13.1C388.315 13.0733 388.441 13.1267 388.508 13.26C388.575 13.38 388.608 13.6333 388.608 14.02C388.608 14.3533 388.541 14.6133 388.408 14.8C388.275 14.9867 388.055 15.1 387.748 15.14C387.615 15.1533 387.475 15.1667 387.328 15.18C387.181 15.1933 387.035 15.2 386.888 15.2ZM393.155 15.2C392.448 15.2 391.815 15.0667 391.255 14.8C390.708 14.52 390.275 14.1467 389.955 13.68C389.648 13.2133 389.495 12.6867 389.495 12.1C389.495 11.38 389.681 10.8133 390.055 10.4C390.428 9.97333 391.035 9.66667 391.875 9.48C392.715 9.29333 393.841 9.2 395.255 9.2H396.255V10.64H395.275C394.448 10.64 393.788 10.68 393.295 10.76C392.801 10.84 392.448 10.98 392.235 11.18C392.035 11.3667 391.935 11.6333 391.935 11.98C391.935 12.42 392.088 12.78 392.395 13.06C392.701 13.34 393.128 13.48 393.675 13.48C394.115 13.48 394.501 13.38 394.835 13.18C395.181 12.9667 395.455 12.68 395.655 12.32C395.855 11.96 395.955 11.5467 395.955 11.08V8.78C395.955 8.11333 395.808 7.63333 395.515 7.34C395.221 7.04667 394.728 6.9 394.035 6.9C393.648 6.9 393.228 6.94667 392.775 7.04C392.335 7.13333 391.868 7.29333 391.375 7.52C391.121 7.64 390.895 7.67333 390.695 7.62C390.508 7.56667 390.361 7.46 390.255 7.3C390.148 7.12667 390.095 6.94 390.095 6.74C390.095 6.54 390.148 6.34667 390.255 6.16C390.361 5.96 390.541 5.81333 390.795 5.72C391.408 5.46667 391.995 5.28667 392.555 5.18C393.128 5.07333 393.648 5.02 394.115 5.02C395.075 5.02 395.861 5.16667 396.475 5.46C397.101 5.75333 397.568 6.2 397.875 6.8C398.181 7.38667 398.335 8.14667 398.335 9.08V13.88C398.335 14.2933 398.235 14.6133 398.035 14.84C397.835 15.0533 397.548 15.16 397.175 15.16C396.801 15.16 396.508 15.0533 396.295 14.84C396.095 14.6133 395.995 14.2933 395.995 13.88V12.92H396.155C396.061 13.3867 395.875 13.7933 395.595 14.14C395.328 14.4733 394.988 14.7333 394.575 14.92C394.161 15.1067 393.688 15.2 393.155 15.2ZM402.112 18.76C401.712 18.76 401.406 18.6533 401.192 18.44C400.979 18.2267 400.872 17.9133 400.872 17.5V6.32C400.872 5.90667 400.979 5.59333 401.192 5.38C401.406 5.16667 401.706 5.06 402.092 5.06C402.492 5.06 402.799 5.16667 403.012 5.38C403.226 5.59333 403.332 5.90667 403.332 6.32V7.88L403.112 7.28C403.312 6.6 403.719 6.05333 404.332 5.64C404.959 5.22667 405.686 5.02 406.512 5.02C407.366 5.02 408.112 5.22667 408.752 5.64C409.406 6.05333 409.912 6.64 410.272 7.4C410.632 8.14667 410.812 9.04667 410.812 10.1C410.812 11.14 410.632 12.0467 410.272 12.82C409.912 13.58 409.412 14.1667 408.772 14.58C408.132 14.9933 407.379 15.2 406.512 15.2C405.699 15.2 404.986 15 404.372 14.6C403.759 14.1867 403.346 13.6533 403.132 13H403.372V17.5C403.372 17.9133 403.259 18.2267 403.032 18.44C402.819 18.6533 402.512 18.76 402.112 18.76ZM405.812 13.3C406.306 13.3 406.739 13.18 407.112 12.94C407.486 12.7 407.772 12.3467 407.972 11.88C408.186 11.4 408.292 10.8067 408.292 10.1C408.292 9.03333 408.066 8.24 407.612 7.72C407.159 7.18667 406.559 6.92 405.812 6.92C405.319 6.92 404.886 7.04 404.512 7.28C404.139 7.50667 403.846 7.86 403.632 8.34C403.432 8.80667 403.332 9.39333 403.332 10.1C403.332 11.1533 403.559 11.9533 404.012 12.5C404.466 13.0333 405.066 13.3 405.812 13.3ZM416.444 15.2C415.871 15.2 415.264 15.14 414.624 15.02C413.984 14.9 413.411 14.6933 412.904 14.4C412.691 14.2667 412.538 14.1133 412.444 13.94C412.364 13.7533 412.331 13.5733 412.344 13.4C412.371 13.2133 412.438 13.0533 412.544 12.92C412.664 12.7867 412.811 12.7 412.984 12.66C413.171 12.62 413.371 12.6533 413.584 12.76C414.118 13.0133 414.618 13.1933 415.084 13.3C415.551 13.3933 416.011 13.44 416.464 13.44C417.104 13.44 417.578 13.3333 417.884 13.12C418.204 12.8933 418.364 12.6 418.364 12.24C418.364 11.9333 418.258 11.7 418.044 11.54C417.844 11.3667 417.538 11.24 417.124 11.16L415.124 10.78C414.298 10.62 413.664 10.32 413.224 9.88C412.798 9.42667 412.584 8.84667 412.584 8.14C412.584 7.5 412.758 6.94667 413.104 6.48C413.464 6.01333 413.958 5.65333 414.584 5.4C415.211 5.14667 415.931 5.02 416.744 5.02C417.331 5.02 417.878 5.08667 418.384 5.22C418.904 5.34 419.404 5.53333 419.884 5.8C420.084 5.90667 420.218 6.04667 420.284 6.22C420.364 6.39333 420.384 6.57333 420.344 6.76C420.304 6.93333 420.224 7.09333 420.104 7.24C419.984 7.37333 419.831 7.46 419.644 7.5C419.471 7.52667 419.271 7.48667 419.044 7.38C418.631 7.16667 418.231 7.01333 417.844 6.92C417.471 6.82667 417.111 6.78 416.764 6.78C416.111 6.78 415.624 6.89333 415.304 7.12C414.998 7.34667 414.844 7.64667 414.844 8.02C414.844 8.3 414.938 8.53333 415.124 8.72C415.311 8.90667 415.598 9.03333 415.984 9.1L417.984 9.48C418.851 9.64 419.504 9.93333 419.944 10.36C420.398 10.7867 420.624 11.36 420.624 12.08C420.624 13.0533 420.244 13.82 419.484 14.38C418.724 14.9267 417.711 15.2 416.444 15.2ZM431.84 15.16C431.506 15.16 431.22 15.08 430.98 14.92C430.74 14.7467 430.546 14.48 430.4 14.12L427.5 6.72C427.38 6.4 427.34 6.12 427.38 5.88C427.433 5.62667 427.56 5.42667 427.76 5.28C427.96 5.13333 428.226 5.06 428.56 5.06C428.853 5.06 429.093 5.13333 429.28 5.28C429.466 5.41333 429.626 5.67333 429.76 6.06L432.18 12.72H431.72L434.22 5.9C434.326 5.60667 434.466 5.39333 434.64 5.26C434.826 5.12667 435.066 5.06 435.36 5.06C435.653 5.06 435.893 5.13333 436.08 5.28C436.266 5.41333 436.406 5.62 436.5 5.9L438.96 12.72H438.54L440.98 6C441.113 5.64 441.28 5.39333 441.48 5.26C441.693 5.12667 441.926 5.06 442.18 5.06C442.5 5.06 442.746 5.14 442.92 5.3C443.093 5.46 443.193 5.66667 443.22 5.92C443.246 6.16 443.2 6.42667 443.08 6.72L440.2 14.12C440.066 14.4667 439.873 14.7267 439.62 14.9C439.38 15.0733 439.093 15.16 438.76 15.16C438.426 15.16 438.133 15.0733 437.88 14.9C437.64 14.7267 437.453 14.4667 437.32 14.12L434.7 7.18H435.84L433.28 14.1C433.146 14.46 432.96 14.7267 432.72 14.9C432.48 15.0733 432.186 15.16 431.84 15.16ZM446.351 15.14C445.951 15.14 445.644 15.02 445.431 14.78C445.217 14.54 445.111 14.2067 445.111 13.78V6.44C445.111 6 445.217 5.66667 445.431 5.44C445.644 5.2 445.951 5.08 446.351 5.08C446.751 5.08 447.057 5.2 447.271 5.44C447.497 5.66667 447.611 6 447.611 6.44V13.78C447.611 14.2067 447.504 14.54 447.291 14.78C447.077 15.02 446.764 15.14 446.351 15.14ZM446.351 3.22C445.884 3.22 445.517 3.10667 445.251 2.88C444.997 2.64 444.871 2.31333 444.871 1.9C444.871 1.47333 444.997 1.14667 445.251 0.919999C445.517 0.693333 445.884 0.58 446.351 0.58C446.831 0.58 447.197 0.693333 447.451 0.919999C447.704 1.14667 447.831 1.47333 447.831 1.9C447.831 2.31333 447.704 2.64 447.451 2.88C447.197 3.10667 446.831 3.22 446.351 3.22ZM454.688 15.2C453.822 15.2 453.095 15.0533 452.508 14.76C451.935 14.4667 451.508 14.04 451.228 13.48C450.948 12.9067 450.808 12.2 450.808 11.36V7.1H449.768C449.448 7.1 449.202 7.02 449.028 6.86C448.855 6.68667 448.768 6.45333 448.768 6.16C448.768 5.85333 448.855 5.62 449.028 5.46C449.202 5.3 449.448 5.22 449.768 5.22H450.808V3.4C450.808 2.98667 450.915 2.67333 451.128 2.46C451.355 2.24667 451.668 2.14 452.068 2.14C452.468 2.14 452.775 2.24667 452.988 2.46C453.202 2.67333 453.308 2.98667 453.308 3.4V5.22H455.428C455.748 5.22 455.995 5.3 456.168 5.46C456.342 5.62 456.428 5.85333 456.428 6.16C456.428 6.45333 456.342 6.68667 456.168 6.86C455.995 7.02 455.748 7.1 455.428 7.1H453.308V11.22C453.308 11.86 453.448 12.34 453.728 12.66C454.008 12.98 454.462 13.14 455.088 13.14C455.315 13.14 455.515 13.12 455.688 13.08C455.862 13.04 456.015 13.0133 456.148 13C456.308 12.9867 456.442 13.04 456.548 13.16C456.655 13.2667 456.708 13.4933 456.708 13.84C456.708 14.1067 456.662 14.3467 456.568 14.56C456.488 14.76 456.335 14.9 456.108 14.98C455.935 15.0333 455.708 15.08 455.428 15.12C455.148 15.1733 454.902 15.2 454.688 15.2ZM459.378 15.16C458.978 15.16 458.671 15.0533 458.458 14.84C458.245 14.6133 458.138 14.2933 458.138 13.88V2C458.138 1.58667 458.245 1.27333 458.458 1.06C458.671 0.846666 458.978 0.739999 459.378 0.739999C459.778 0.739999 460.085 0.846666 460.298 1.06C460.525 1.27333 460.638 1.58667 460.638 2V7.18H460.358C460.651 6.47333 461.105 5.94 461.718 5.58C462.345 5.20667 463.051 5.02 463.838 5.02C464.625 5.02 465.271 5.16667 465.778 5.46C466.285 5.75333 466.665 6.2 466.918 6.8C467.171 7.38667 467.298 8.13333 467.298 9.04V13.88C467.298 14.2933 467.191 14.6133 466.978 14.84C466.765 15.0533 466.458 15.16 466.058 15.16C465.658 15.16 465.345 15.0533 465.118 14.84C464.905 14.6133 464.798 14.2933 464.798 13.88V9.16C464.798 8.4 464.651 7.84667 464.358 7.5C464.078 7.15333 463.638 6.98 463.038 6.98C462.305 6.98 461.718 7.21333 461.278 7.68C460.851 8.13333 460.638 8.74 460.638 9.5V13.88C460.638 14.7333 460.218 15.16 459.378 15.16ZM479.747 15.2C478.88 15.2 478.153 15.0533 477.567 14.76C476.993 14.4667 476.567 14.04 476.287 13.48C476.007 12.9067 475.867 12.2 475.867 11.36V7.1H474.827C474.507 7.1 474.26 7.02 474.087 6.86C473.913 6.68667 473.827 6.45333 473.827 6.16C473.827 5.85333 473.913 5.62 474.087 5.46C474.26 5.3 474.507 5.22 474.827 5.22H475.867V3.4C475.867 2.98667 475.973 2.67333 476.187 2.46C476.413 2.24667 476.727 2.14 477.127 2.14C477.527 2.14 477.833 2.24667 478.047 2.46C478.26 2.67333 478.367 2.98667 478.367 3.4V5.22H480.487C480.807 5.22 481.053 5.3 481.227 5.46C481.4 5.62 481.487 5.85333 481.487 6.16C481.487 6.45333 481.4 6.68667 481.227 6.86C481.053 7.02 480.807 7.1 480.487 7.1H478.367V11.22C478.367 11.86 478.507 12.34 478.787 12.66C479.067 12.98 479.52 13.14 480.147 13.14C480.373 13.14 480.573 13.12 480.747 13.08C480.92 13.04 481.073 13.0133 481.207 13C481.367 12.9867 481.5 13.04 481.607 13.16C481.713 13.2667 481.767 13.4933 481.767 13.84C481.767 14.1067 481.72 14.3467 481.627 14.56C481.547 14.76 481.393 14.9 481.167 14.98C480.993 15.0333 480.767 15.08 480.487 15.12C480.207 15.1733 479.96 15.2 479.747 15.2ZM484.436 15.16C484.036 15.16 483.73 15.0533 483.516 14.84C483.303 14.6133 483.196 14.2933 483.196 13.88V2C483.196 1.58667 483.303 1.27333 483.516 1.06C483.73 0.846666 484.036 0.739999 484.436 0.739999C484.836 0.739999 485.143 0.846666 485.356 1.06C485.583 1.27333 485.696 1.58667 485.696 2V7.18H485.416C485.71 6.47333 486.163 5.94 486.776 5.58C487.403 5.20667 488.11 5.02 488.896 5.02C489.683 5.02 490.33 5.16667 490.836 5.46C491.343 5.75333 491.723 6.2 491.976 6.8C492.23 7.38667 492.356 8.13333 492.356 9.04V13.88C492.356 14.2933 492.25 14.6133 492.036 14.84C491.823 15.0533 491.516 15.16 491.116 15.16C490.716 15.16 490.403 15.0533 490.176 14.84C489.963 14.6133 489.856 14.2933 489.856 13.88V9.16C489.856 8.4 489.71 7.84667 489.416 7.5C489.136 7.15333 488.696 6.98 488.096 6.98C487.363 6.98 486.776 7.21333 486.336 7.68C485.91 8.13333 485.696 8.74 485.696 9.5V13.88C485.696 14.7333 485.276 15.16 484.436 15.16ZM499.716 15.2C498.609 15.2 497.656 14.9933 496.856 14.58C496.056 14.1667 495.436 13.58 494.996 12.82C494.569 12.06 494.356 11.16 494.356 10.12C494.356 9.10667 494.562 8.22 494.976 7.46C495.402 6.7 495.982 6.10667 496.716 5.68C497.462 5.24 498.309 5.02 499.256 5.02C499.949 5.02 500.569 5.13333 501.116 5.36C501.676 5.58667 502.149 5.91333 502.536 6.34C502.936 6.76667 503.236 7.28667 503.436 7.9C503.649 8.5 503.756 9.18 503.756 9.94C503.756 10.18 503.669 10.3667 503.496 10.5C503.336 10.62 503.102 10.68 502.796 10.68H496.376V9.24H501.996L501.676 9.54C501.676 8.92667 501.582 8.41333 501.396 8C501.222 7.58667 500.962 7.27333 500.616 7.06C500.282 6.83333 499.862 6.72 499.356 6.72C498.796 6.72 498.316 6.85333 497.916 7.12C497.529 7.37333 497.229 7.74 497.016 8.22C496.816 8.68667 496.716 9.24667 496.716 9.9V10.04C496.716 11.1333 496.969 11.9533 497.476 12.5C497.996 13.0333 498.756 13.3 499.756 13.3C500.102 13.3 500.489 13.26 500.916 13.18C501.356 13.0867 501.769 12.9333 502.156 12.72C502.436 12.56 502.682 12.4933 502.896 12.52C503.109 12.5333 503.276 12.6067 503.396 12.74C503.529 12.8733 503.609 13.04 503.636 13.24C503.662 13.4267 503.622 13.62 503.516 13.82C503.422 14.02 503.256 14.1933 503.016 14.34C502.549 14.6333 502.009 14.8533 501.396 15C500.796 15.1333 500.236 15.2 499.716 15.2ZM511.845 15.1C511.552 15.1 511.305 15.02 511.105 14.86C510.919 14.6867 510.819 14.4667 510.805 14.2C510.805 13.9333 510.919 13.6533 511.145 13.36L514.385 9.36V10.54L511.345 6.8C511.105 6.50667 510.992 6.22667 511.005 5.96C511.019 5.69333 511.119 5.48 511.305 5.32C511.505 5.14667 511.752 5.06 512.045 5.06C512.352 5.06 512.605 5.11333 512.805 5.22C513.019 5.32667 513.212 5.49333 513.385 5.72L515.785 8.8H514.905L517.325 5.72C517.512 5.49333 517.705 5.32667 517.905 5.22C518.105 5.11333 518.352 5.06 518.645 5.06C518.952 5.06 519.199 5.14667 519.385 5.32C519.572 5.49333 519.665 5.71333 519.665 5.98C519.679 6.24667 519.565 6.52667 519.325 6.82L516.305 10.52V9.4L519.545 13.36C519.785 13.64 519.899 13.9133 519.885 14.18C519.872 14.4467 519.765 14.6667 519.565 14.84C519.379 15.0133 519.132 15.1 518.825 15.1C518.532 15.1 518.285 15.0467 518.085 14.94C517.885 14.8333 517.692 14.6667 517.505 14.44L514.905 11.16H515.745L513.165 14.44C512.992 14.6533 512.805 14.82 512.605 14.94C512.405 15.0467 512.152 15.1 511.845 15.1ZM522.495 10.64C522.202 10.64 521.955 10.5467 521.755 10.36C521.569 10.16 521.475 9.92 521.475 9.64C521.475 9.34667 521.569 9.10667 521.755 8.92C521.955 8.73333 522.202 8.64 522.495 8.64H526.755C527.035 8.64 527.269 8.73333 527.455 8.92C527.655 9.10667 527.755 9.34667 527.755 9.64C527.755 9.92 527.655 10.16 527.455 10.36C527.269 10.5467 527.035 10.64 526.755 10.64H522.495ZM533.467 15.2C532.761 15.2 532.127 15.0667 531.567 14.8C531.021 14.52 530.587 14.1467 530.267 13.68C529.961 13.2133 529.807 12.6867 529.807 12.1C529.807 11.38 529.994 10.8133 530.367 10.4C530.741 9.97333 531.347 9.66667 532.187 9.48C533.027 9.29333 534.154 9.2 535.567 9.2H536.567V10.64H535.587C534.761 10.64 534.101 10.68 533.607 10.76C533.114 10.84 532.761 10.98 532.547 11.18C532.347 11.3667 532.247 11.6333 532.247 11.98C532.247 12.42 532.401 12.78 532.707 13.06C533.014 13.34 533.441 13.48 533.987 13.48C534.427 13.48 534.814 13.38 535.147 13.18C535.494 12.9667 535.767 12.68 535.967 12.32C536.167 11.96 536.267 11.5467 536.267 11.08V8.78C536.267 8.11333 536.121 7.63333 535.827 7.34C535.534 7.04667 535.041 6.9 534.347 6.9C533.961 6.9 533.541 6.94667 533.087 7.04C532.647 7.13333 532.181 7.29333 531.687 7.52C531.434 7.64 531.207 7.67333 531.007 7.62C530.821 7.56667 530.674 7.46 530.567 7.3C530.461 7.12667 530.407 6.94 530.407 6.74C530.407 6.54 530.461 6.34667 530.567 6.16C530.674 5.96 530.854 5.81333 531.107 5.72C531.721 5.46667 532.307 5.28667 532.867 5.18C533.441 5.07333 533.961 5.02 534.427 5.02C535.387 5.02 536.174 5.16667 536.787 5.46C537.414 5.75333 537.881 6.2 538.187 6.8C538.494 7.38667 538.647 8.14667 538.647 9.08V13.88C538.647 14.2933 538.547 14.6133 538.347 14.84C538.147 15.0533 537.861 15.16 537.487 15.16C537.114 15.16 536.821 15.0533 536.607 14.84C536.407 14.6133 536.307 14.2933 536.307 13.88V12.92H536.467C536.374 13.3867 536.187 13.7933 535.907 14.14C535.641 14.4733 535.301 14.7333 534.887 14.92C534.474 15.1067 534.001 15.2 533.467 15.2ZM541.865 15.1C541.571 15.1 541.325 15.02 541.125 14.86C540.938 14.6867 540.838 14.4667 540.825 14.2C540.825 13.9333 540.938 13.6533 541.165 13.36L544.405 9.36V10.54L541.365 6.8C541.125 6.50667 541.011 6.22667 541.025 5.96C541.038 5.69333 541.138 5.48 541.325 5.32C541.525 5.14667 541.771 5.06 542.065 5.06C542.371 5.06 542.625 5.11333 542.825 5.22C543.038 5.32667 543.231 5.49333 543.405 5.72L545.805 8.8H544.925L547.345 5.72C547.531 5.49333 547.725 5.32667 547.925 5.22C548.125 5.11333 548.371 5.06 548.665 5.06C548.971 5.06 549.218 5.14667 549.405 5.32C549.591 5.49333 549.685 5.71333 549.685 5.98C549.698 6.24667 549.585 6.52667 549.345 6.82L546.325 10.52V9.4L549.565 13.36C549.805 13.64 549.918 13.9133 549.905 14.18C549.891 14.4467 549.785 14.6667 549.585 14.84C549.398 15.0133 549.151 15.1 548.845 15.1C548.551 15.1 548.305 15.0467 548.105 14.94C547.905 14.8333 547.711 14.6667 547.525 14.44L544.925 11.16H545.765L543.185 14.44C543.011 14.6533 542.825 14.82 542.625 14.94C542.425 15.0467 542.171 15.1 541.865 15.1ZM553.343 15.14C552.943 15.14 552.636 15.02 552.423 14.78C552.209 14.54 552.103 14.2067 552.103 13.78V6.44C552.103 6 552.209 5.66667 552.423 5.44C552.636 5.2 552.943 5.08 553.343 5.08C553.743 5.08 554.049 5.2 554.263 5.44C554.489 5.66667 554.603 6 554.603 6.44V13.78C554.603 14.2067 554.496 14.54 554.283 14.78C554.069 15.02 553.756 15.14 553.343 15.14ZM553.343 3.22C552.876 3.22 552.509 3.10667 552.243 2.88C551.989 2.64 551.863 2.31333 551.863 1.9C551.863 1.47333 551.989 1.14667 552.243 0.919999C552.509 0.693333 552.876 0.58 553.343 0.58C553.823 0.58 554.189 0.693333 554.443 0.919999C554.696 1.14667 554.823 1.47333 554.823 1.9C554.823 2.31333 554.696 2.64 554.443 2.88C554.189 3.10667 553.823 3.22 553.343 3.22ZM560.78 15.2C560.207 15.2 559.6 15.14 558.96 15.02C558.32 14.9 557.747 14.6933 557.24 14.4C557.027 14.2667 556.874 14.1133 556.78 13.94C556.7 13.7533 556.667 13.5733 556.68 13.4C556.707 13.2133 556.774 13.0533 556.88 12.92C557 12.7867 557.147 12.7 557.32 12.66C557.507 12.62 557.707 12.6533 557.92 12.76C558.454 13.0133 558.954 13.1933 559.42 13.3C559.887 13.3933 560.347 13.44 560.8 13.44C561.44 13.44 561.914 13.3333 562.22 13.12C562.54 12.8933 562.7 12.6 562.7 12.24C562.7 11.9333 562.594 11.7 562.38 11.54C562.18 11.3667 561.874 11.24 561.46 11.16L559.46 10.78C558.634 10.62 558 10.32 557.56 9.88C557.134 9.42667 556.92 8.84667 556.92 8.14C556.92 7.5 557.094 6.94667 557.44 6.48C557.8 6.01333 558.294 5.65333 558.92 5.4C559.547 5.14667 560.267 5.02 561.08 5.02C561.667 5.02 562.214 5.08667 562.72 5.22C563.24 5.34 563.74 5.53333 564.22 5.8C564.42 5.90667 564.554 6.04667 564.62 6.22C564.7 6.39333 564.72 6.57333 564.68 6.76C564.64 6.93333 564.56 7.09333 564.44 7.24C564.32 7.37333 564.167 7.46 563.98 7.5C563.807 7.52667 563.607 7.48667 563.38 7.38C562.967 7.16667 562.567 7.01333 562.18 6.92C561.807 6.82667 561.447 6.78 561.1 6.78C560.447 6.78 559.96 6.89333 559.64 7.12C559.334 7.34667 559.18 7.64667 559.18 8.02C559.18 8.3 559.274 8.53333 559.46 8.72C559.647 8.90667 559.934 9.03333 560.32 9.1L562.32 9.48C563.187 9.64 563.84 9.93333 564.28 10.36C564.734 10.7867 564.96 11.36 564.96 12.08C564.96 13.0533 564.58 13.82 563.82 14.38C563.06 14.9267 562.047 15.2 560.78 15.2Z" fill="#444444"/>
</svg>
