<svg width="478" height="19" viewBox="0 0 478 19" fill="none" xmlns="http://www.w3.org/2000/svg">
<path d="M1.93195 15.16C1.61195 15.16 1.35195 15.0867 1.15195 14.94C0.965286 14.7933 0.851953 14.6 0.811953 14.36C0.771953 14.1067 0.81862 13.8267 0.951953 13.52L6.23195 1.82C6.40529 1.43333 6.61195 1.16 6.85195 0.999999C7.10529 0.826666 7.39195 0.739999 7.71195 0.739999C8.01862 0.739999 8.29195 0.826666 8.53195 0.999999C8.78529 1.16 8.99862 1.43333 9.17195 1.82L14.472 13.52C14.6186 13.8267 14.672 14.1067 14.632 14.36C14.592 14.6133 14.4786 14.8133 14.292 14.96C14.1053 15.0933 13.8586 15.16 13.552 15.16C13.1786 15.16 12.8853 15.0733 12.672 14.9C12.472 14.7133 12.292 14.4333 12.132 14.06L10.832 11.04L11.912 11.74H3.47195L4.55195 11.04L3.27195 14.06C3.09862 14.4467 2.91862 14.7267 2.73195 14.9C2.54529 15.0733 2.27862 15.16 1.93195 15.16ZM7.67195 3.68L4.87195 10.34L4.35195 9.7H11.032L10.532 10.34L7.71195 3.68H7.67195ZM20.0971 15.2C19.2438 15.2 18.4904 14.9933 17.8371 14.58C17.1971 14.1667 16.6971 13.58 16.3371 12.82C15.9771 12.0467 15.7971 11.14 15.7971 10.1C15.7971 9.04667 15.9771 8.14667 16.3371 7.4C16.6971 6.64 17.1971 6.05333 17.8371 5.64C18.4904 5.22667 19.2438 5.02 20.0971 5.02C20.9104 5.02 21.6171 5.22 22.2171 5.62C22.8304 6.02 23.2438 6.54667 23.4571 7.2H23.2371V2C23.2371 1.58667 23.3438 1.27333 23.5571 1.06C23.7704 0.846666 24.0771 0.739999 24.4771 0.739999C24.8771 0.739999 25.1838 0.846666 25.3971 1.06C25.6238 1.27333 25.7371 1.58667 25.7371 2V13.88C25.7371 14.2933 25.6304 14.6133 25.4171 14.84C25.2038 15.0533 24.8971 15.16 24.4971 15.16C24.0971 15.16 23.7904 15.0533 23.5771 14.84C23.3638 14.6133 23.2571 14.2933 23.2571 13.88V12.32L23.4771 12.92C23.2771 13.6133 22.8704 14.1667 22.2571 14.58C21.6438 14.9933 20.9238 15.2 20.0971 15.2ZM20.7971 13.3C21.2904 13.3 21.7238 13.18 22.0971 12.94C22.4704 12.7 22.7571 12.3467 22.9571 11.88C23.1704 11.4 23.2771 10.8067 23.2771 10.1C23.2771 9.03333 23.0504 8.24 22.5971 7.72C22.1438 7.18667 21.5438 6.92 20.7971 6.92C20.3038 6.92 19.8704 7.04 19.4971 7.28C19.1238 7.50667 18.8304 7.86 18.6171 8.34C18.4171 8.80667 18.3171 9.39333 18.3171 10.1C18.3171 11.1533 18.5438 11.9533 18.9971 12.5C19.4504 13.0333 20.0504 13.3 20.7971 13.3ZM27.1293 18.78C26.836 18.8067 26.596 18.76 26.4093 18.64C26.2226 18.5333 26.096 18.3933 26.0293 18.22C25.9493 18.0467 25.9226 17.8667 25.9493 17.68C25.976 17.4933 26.056 17.3267 26.1893 17.18C26.3093 17.0467 26.476 16.9733 26.6893 16.96C27.2893 16.9067 27.7226 16.7333 27.9893 16.44C28.2693 16.16 28.4093 15.7267 28.4093 15.14V6.32C28.4093 5.90667 28.516 5.59333 28.7293 5.38C28.956 5.16667 29.2693 5.06 29.6693 5.06C30.0693 5.06 30.376 5.16667 30.5893 5.38C30.8026 5.59333 30.9093 5.90667 30.9093 6.32V14.92C30.9093 15.7733 30.7693 16.4733 30.4893 17.02C30.2226 17.5667 29.8093 17.98 29.2493 18.26C28.7026 18.54 27.996 18.7133 27.1293 18.78ZM29.6493 3.22C29.1826 3.22 28.816 3.10667 28.5493 2.88C28.296 2.64 28.1693 2.31333 28.1693 1.9C28.1693 1.47333 28.296 1.14667 28.5493 0.919999C28.816 0.693333 29.1826 0.58 29.6493 0.58C30.1293 0.58 30.496 0.693333 30.7493 0.919999C31.0026 1.14667 31.1293 1.47333 31.1293 1.9C31.1293 2.31333 31.0026 2.64 30.7493 2.88C30.496 3.10667 30.1293 3.22 29.6493 3.22ZM37.0451 15.2C36.2317 15.2 35.5584 15.0533 35.0251 14.76C34.4917 14.4533 34.0917 14 33.8251 13.4C33.5717 12.8 33.4451 12.0533 33.4451 11.16V6.32C33.4451 5.89333 33.5517 5.58 33.7651 5.38C33.9784 5.16667 34.2851 5.06 34.6851 5.06C35.0851 5.06 35.3917 5.16667 35.6051 5.38C35.8317 5.58 35.9451 5.89333 35.9451 6.32V11.2C35.9451 11.8933 36.0851 12.4067 36.3651 12.74C36.6451 13.0733 37.0917 13.24 37.7051 13.24C38.3717 13.24 38.9184 13.0133 39.3451 12.56C39.7717 12.0933 39.9851 11.48 39.9851 10.72V6.32C39.9851 5.89333 40.0917 5.58 40.3051 5.38C40.5184 5.16667 40.8251 5.06 41.2251 5.06C41.6251 5.06 41.9317 5.16667 42.1451 5.38C42.3717 5.58 42.4851 5.89333 42.4851 6.32V13.88C42.4851 14.7333 42.0784 15.16 41.2651 15.16C40.8784 15.16 40.5784 15.0533 40.3651 14.84C40.1517 14.6133 40.0451 14.2933 40.0451 13.88V12.36L40.3251 12.96C40.0451 13.68 39.6184 14.2333 39.0451 14.62C38.4851 15.0067 37.8184 15.2 37.0451 15.2ZM48.6671 15.2C48.0938 15.2 47.4871 15.14 46.8471 15.02C46.2071 14.9 45.6338 14.6933 45.1271 14.4C44.9138 14.2667 44.7604 14.1133 44.6671 13.94C44.5871 13.7533 44.5538 13.5733 44.5671 13.4C44.5938 13.2133 44.6604 13.0533 44.7671 12.92C44.8871 12.7867 45.0338 12.7 45.2071 12.66C45.3938 12.62 45.5938 12.6533 45.8071 12.76C46.3404 13.0133 46.8404 13.1933 47.3071 13.3C47.7738 13.3933 48.2338 13.44 48.6871 13.44C49.3271 13.44 49.8004 13.3333 50.1071 13.12C50.4271 12.8933 50.5871 12.6 50.5871 12.24C50.5871 11.9333 50.4804 11.7 50.2671 11.54C50.0671 11.3667 49.7604 11.24 49.3471 11.16L47.3471 10.78C46.5204 10.62 45.8871 10.32 45.4471 9.88C45.0204 9.42667 44.8071 8.84667 44.8071 8.14C44.8071 7.5 44.9804 6.94667 45.3271 6.48C45.6871 6.01333 46.1804 5.65333 46.8071 5.4C47.4338 5.14667 48.1538 5.02 48.9671 5.02C49.5538 5.02 50.1004 5.08667 50.6071 5.22C51.1271 5.34 51.6271 5.53333 52.1071 5.8C52.3071 5.90667 52.4404 6.04667 52.5071 6.22C52.5871 6.39333 52.6071 6.57333 52.5671 6.76C52.5271 6.93333 52.4471 7.09333 52.3271 7.24C52.2071 7.37333 52.0538 7.46 51.8671 7.5C51.6938 7.52667 51.4938 7.48667 51.2671 7.38C50.8538 7.16667 50.4538 7.01333 50.0671 6.92C49.6938 6.82667 49.3338 6.78 48.9871 6.78C48.3338 6.78 47.8471 6.89333 47.5271 7.12C47.2204 7.34667 47.0671 7.64667 47.0671 8.02C47.0671 8.3 47.1604 8.53333 47.3471 8.72C47.5338 8.90667 47.8204 9.03333 48.2071 9.1L50.2071 9.48C51.0738 9.64 51.7271 9.93333 52.1671 10.36C52.6204 10.7867 52.8471 11.36 52.8471 12.08C52.8471 13.0533 52.4671 13.82 51.7071 14.38C50.9471 14.9267 49.9338 15.2 48.6671 15.2ZM59.2351 15.2C58.3684 15.2 57.6417 15.0533 57.0551 14.76C56.4817 14.4667 56.0551 14.04 55.7751 13.48C55.4951 12.9067 55.3551 12.2 55.3551 11.36V7.1H54.3151C53.9951 7.1 53.7484 7.02 53.5751 6.86C53.4017 6.68667 53.3151 6.45333 53.3151 6.16C53.3151 5.85333 53.4017 5.62 53.5751 5.46C53.7484 5.3 53.9951 5.22 54.3151 5.22H55.3551V3.4C55.3551 2.98667 55.4617 2.67333 55.6751 2.46C55.9017 2.24667 56.2151 2.14 56.6151 2.14C57.0151 2.14 57.3217 2.24667 57.5351 2.46C57.7484 2.67333 57.8551 2.98667 57.8551 3.4V5.22H59.9751C60.2951 5.22 60.5417 5.3 60.7151 5.46C60.8884 5.62 60.9751 5.85333 60.9751 6.16C60.9751 6.45333 60.8884 6.68667 60.7151 6.86C60.5417 7.02 60.2951 7.1 59.9751 7.1H57.8551V11.22C57.8551 11.86 57.9951 12.34 58.2751 12.66C58.5551 12.98 59.0084 13.14 59.6351 13.14C59.8617 13.14 60.0617 13.12 60.2351 13.08C60.4084 13.04 60.5617 13.0133 60.6951 13C60.8551 12.9867 60.9884 13.04 61.0951 13.16C61.2017 13.2667 61.2551 13.4933 61.2551 13.84C61.2551 14.1067 61.2084 14.3467 61.1151 14.56C61.0351 14.76 60.8817 14.9 60.6551 14.98C60.4817 15.0333 60.2551 15.08 59.9751 15.12C59.6951 15.1733 59.4484 15.2 59.2351 15.2ZM72.3405 15.2C71.4739 15.2 70.7472 15.0533 70.1605 14.76C69.5872 14.4667 69.1605 14.04 68.8805 13.48C68.6005 12.9067 68.4605 12.2 68.4605 11.36V7.1H67.4205C67.1005 7.1 66.8539 7.02 66.6805 6.86C66.5072 6.68667 66.4205 6.45333 66.4205 6.16C66.4205 5.85333 66.5072 5.62 66.6805 5.46C66.8539 5.3 67.1005 5.22 67.4205 5.22H68.4605V3.4C68.4605 2.98667 68.5672 2.67333 68.7805 2.46C69.0072 2.24667 69.3205 2.14 69.7205 2.14C70.1205 2.14 70.4272 2.24667 70.6405 2.46C70.8539 2.67333 70.9605 2.98667 70.9605 3.4V5.22H73.0805C73.4005 5.22 73.6472 5.3 73.8205 5.46C73.9939 5.62 74.0805 5.85333 74.0805 6.16C74.0805 6.45333 73.9939 6.68667 73.8205 6.86C73.6472 7.02 73.4005 7.1 73.0805 7.1H70.9605V11.22C70.9605 11.86 71.1005 12.34 71.3805 12.66C71.6605 12.98 72.1139 13.14 72.7405 13.14C72.9672 13.14 73.1672 13.12 73.3405 13.08C73.5139 13.04 73.6672 13.0133 73.8005 13C73.9605 12.9867 74.0939 13.04 74.2005 13.16C74.3072 13.2667 74.3605 13.4933 74.3605 13.84C74.3605 14.1067 74.3139 14.3467 74.2205 14.56C74.1405 14.76 73.9872 14.9 73.7605 14.98C73.5872 15.0333 73.3605 15.08 73.0805 15.12C72.8005 15.1733 72.5539 15.2 72.3405 15.2ZM77.0302 15.16C76.6302 15.16 76.3236 15.0533 76.1102 14.84C75.8969 14.6133 75.7902 14.2933 75.7902 13.88V2C75.7902 1.58667 75.8969 1.27333 76.1102 1.06C76.3236 0.846666 76.6302 0.739999 77.0302 0.739999C77.4302 0.739999 77.7369 0.846666 77.9502 1.06C78.1769 1.27333 78.2902 1.58667 78.2902 2V7.18H78.0102C78.3036 6.47333 78.7569 5.94 79.3702 5.58C79.9969 5.20667 80.7036 5.02 81.4902 5.02C82.2769 5.02 82.9236 5.16667 83.4302 5.46C83.9369 5.75333 84.3169 6.2 84.5702 6.8C84.8236 7.38667 84.9502 8.13333 84.9502 9.04V13.88C84.9502 14.2933 84.8436 14.6133 84.6302 14.84C84.4169 15.0533 84.1102 15.16 83.7102 15.16C83.3102 15.16 82.9969 15.0533 82.7702 14.84C82.5569 14.6133 82.4502 14.2933 82.4502 13.88V9.16C82.4502 8.4 82.3036 7.84667 82.0102 7.5C81.7302 7.15333 81.2902 6.98 80.6902 6.98C79.9569 6.98 79.3702 7.21333 78.9302 7.68C78.5036 8.13333 78.2902 8.74 78.2902 9.5V13.88C78.2902 14.7333 77.8702 15.16 77.0302 15.16ZM92.3095 15.2C91.2028 15.2 90.2495 14.9933 89.4495 14.58C88.6495 14.1667 88.0295 13.58 87.5895 12.82C87.1628 12.06 86.9495 11.16 86.9495 10.12C86.9495 9.10667 87.1561 8.22 87.5695 7.46C87.9961 6.7 88.5761 6.10667 89.3095 5.68C90.0561 5.24 90.9028 5.02 91.8495 5.02C92.5428 5.02 93.1628 5.13333 93.7095 5.36C94.2695 5.58667 94.7428 5.91333 95.1295 6.34C95.5295 6.76667 95.8295 7.28667 96.0295 7.9C96.2428 8.5 96.3495 9.18 96.3495 9.94C96.3495 10.18 96.2628 10.3667 96.0895 10.5C95.9295 10.62 95.6961 10.68 95.3895 10.68H88.9695V9.24H94.5895L94.2695 9.54C94.2695 8.92667 94.1761 8.41333 93.9895 8C93.8161 7.58667 93.5561 7.27333 93.2095 7.06C92.8761 6.83333 92.4561 6.72 91.9495 6.72C91.3895 6.72 90.9095 6.85333 90.5095 7.12C90.1228 7.37333 89.8228 7.74 89.6095 8.22C89.4095 8.68667 89.3095 9.24667 89.3095 9.9V10.04C89.3095 11.1333 89.5628 11.9533 90.0695 12.5C90.5895 13.0333 91.3495 13.3 92.3495 13.3C92.6961 13.3 93.0828 13.26 93.5095 13.18C93.9495 13.0867 94.3628 12.9333 94.7495 12.72C95.0295 12.56 95.2761 12.4933 95.4895 12.52C95.7028 12.5333 95.8695 12.6067 95.9895 12.74C96.1228 12.8733 96.2028 13.04 96.2295 13.24C96.2561 13.4267 96.2161 13.62 96.1095 13.82C96.0161 14.02 95.8495 14.1933 95.6095 14.34C95.1428 14.6333 94.6028 14.8533 93.9895 15C93.3895 15.1333 92.8295 15.2 92.3095 15.2ZM104.999 18.76C104.599 18.76 104.292 18.6533 104.079 18.44C103.866 18.2267 103.759 17.9133 103.759 17.5V6.32C103.759 5.90667 103.866 5.59333 104.079 5.38C104.292 5.16667 104.592 5.06 104.979 5.06C105.379 5.06 105.686 5.16667 105.899 5.38C106.112 5.59333 106.219 5.90667 106.219 6.32V7.88L105.999 7.28C106.199 6.6 106.606 6.05333 107.219 5.64C107.846 5.22667 108.572 5.02 109.399 5.02C110.252 5.02 110.999 5.22667 111.639 5.64C112.292 6.05333 112.799 6.64 113.159 7.4C113.519 8.14667 113.699 9.04667 113.699 10.1C113.699 11.14 113.519 12.0467 113.159 12.82C112.799 13.58 112.299 14.1667 111.659 14.58C111.019 14.9933 110.266 15.2 109.399 15.2C108.586 15.2 107.872 15 107.259 14.6C106.646 14.1867 106.232 13.6533 106.019 13H106.259V17.5C106.259 17.9133 106.146 18.2267 105.919 18.44C105.706 18.6533 105.399 18.76 104.999 18.76ZM108.699 13.3C109.192 13.3 109.626 13.18 109.999 12.94C110.372 12.7 110.659 12.3467 110.859 11.88C111.072 11.4 111.179 10.8067 111.179 10.1C111.179 9.03333 110.952 8.24 110.499 7.72C110.046 7.18667 109.446 6.92 108.699 6.92C108.206 6.92 107.772 7.04 107.399 7.28C107.026 7.50667 106.732 7.86 106.519 8.34C106.319 8.80667 106.219 9.39333 106.219 10.1C106.219 11.1533 106.446 11.9533 106.899 12.5C107.352 13.0333 107.952 13.3 108.699 13.3ZM120.211 15.2C119.198 15.2 118.318 14.9933 117.571 14.58C116.825 14.1667 116.245 13.58 115.831 12.82C115.418 12.0467 115.211 11.14 115.211 10.1C115.211 9.31333 115.325 8.61333 115.551 8C115.791 7.37333 116.131 6.84 116.571 6.4C117.011 5.94667 117.538 5.60667 118.151 5.38C118.765 5.14 119.451 5.02 120.211 5.02C121.225 5.02 122.105 5.22667 122.851 5.64C123.598 6.05333 124.178 6.64 124.591 7.4C125.005 8.16 125.211 9.06 125.211 10.1C125.211 10.8867 125.091 11.5933 124.851 12.22C124.625 12.8467 124.291 13.3867 123.851 13.84C123.411 14.28 122.885 14.62 122.271 14.86C121.658 15.0867 120.971 15.2 120.211 15.2ZM120.211 13.3C120.705 13.3 121.138 13.18 121.511 12.94C121.885 12.7 122.171 12.3467 122.371 11.88C122.585 11.4 122.691 10.8067 122.691 10.1C122.691 9.03333 122.465 8.24 122.011 7.72C121.558 7.18667 120.958 6.92 120.211 6.92C119.718 6.92 119.285 7.04 118.911 7.28C118.538 7.50667 118.245 7.86 118.031 8.34C117.831 8.80667 117.731 9.39333 117.731 10.1C117.731 11.1533 117.958 11.9533 118.411 12.5C118.865 13.0333 119.465 13.3 120.211 13.3ZM128.515 15.14C128.115 15.14 127.808 15.02 127.595 14.78C127.381 14.54 127.275 14.2067 127.275 13.78V6.44C127.275 6 127.381 5.66667 127.595 5.44C127.808 5.2 128.115 5.08 128.515 5.08C128.915 5.08 129.221 5.2 129.435 5.44C129.661 5.66667 129.775 6 129.775 6.44V13.78C129.775 14.2067 129.668 14.54 129.455 14.78C129.241 15.02 128.928 15.14 128.515 15.14ZM128.515 3.22C128.048 3.22 127.681 3.10667 127.415 2.88C127.161 2.64 127.035 2.31333 127.035 1.9C127.035 1.47333 127.161 1.14667 127.415 0.919999C127.681 0.693333 128.048 0.58 128.515 0.58C128.995 0.58 129.361 0.693333 129.615 0.919999C129.868 1.14667 129.995 1.47333 129.995 1.9C129.995 2.31333 129.868 2.64 129.615 2.88C129.361 3.10667 128.995 3.22 128.515 3.22ZM133.612 15.16C133.212 15.16 132.906 15.0533 132.692 14.84C132.479 14.6133 132.372 14.2933 132.372 13.88V6.32C132.372 5.90667 132.479 5.59333 132.692 5.38C132.906 5.16667 133.206 5.06 133.592 5.06C133.979 5.06 134.279 5.16667 134.492 5.38C134.706 5.59333 134.812 5.90667 134.812 6.32V7.68L134.592 7.18C134.886 6.47333 135.339 5.94 135.952 5.58C136.579 5.20667 137.286 5.02 138.072 5.02C138.859 5.02 139.506 5.16667 140.012 5.46C140.519 5.75333 140.899 6.2 141.152 6.8C141.406 7.38667 141.532 8.13333 141.532 9.04V13.88C141.532 14.2933 141.426 14.6133 141.212 14.84C140.999 15.0533 140.692 15.16 140.292 15.16C139.892 15.16 139.579 15.0533 139.352 14.84C139.139 14.6133 139.032 14.2933 139.032 13.88V9.16C139.032 8.4 138.886 7.84667 138.592 7.5C138.312 7.15333 137.872 6.98 137.272 6.98C136.539 6.98 135.952 7.21333 135.512 7.68C135.086 8.13333 134.872 8.74 134.872 9.5V13.88C134.872 14.7333 134.452 15.16 133.612 15.16ZM148.551 15.2C147.685 15.2 146.958 15.0533 146.371 14.76C145.798 14.4667 145.371 14.04 145.091 13.48C144.811 12.9067 144.671 12.2 144.671 11.36V7.1H143.631C143.311 7.1 143.065 7.02 142.891 6.86C142.718 6.68667 142.631 6.45333 142.631 6.16C142.631 5.85333 142.718 5.62 142.891 5.46C143.065 5.3 143.311 5.22 143.631 5.22H144.671V3.4C144.671 2.98667 144.778 2.67333 144.991 2.46C145.218 2.24667 145.531 2.14 145.931 2.14C146.331 2.14 146.638 2.24667 146.851 2.46C147.065 2.67333 147.171 2.98667 147.171 3.4V5.22H149.291C149.611 5.22 149.858 5.3 150.031 5.46C150.205 5.62 150.291 5.85333 150.291 6.16C150.291 6.45333 150.205 6.68667 150.031 6.86C149.858 7.02 149.611 7.1 149.291 7.1H147.171V11.22C147.171 11.86 147.311 12.34 147.591 12.66C147.871 12.98 148.325 13.14 148.951 13.14C149.178 13.14 149.378 13.12 149.551 13.08C149.725 13.04 149.878 13.0133 150.011 13C150.171 12.9867 150.305 13.04 150.411 13.16C150.518 13.2667 150.571 13.4933 150.571 13.84C150.571 14.1067 150.525 14.3467 150.431 14.56C150.351 14.76 150.198 14.9 149.971 14.98C149.798 15.0333 149.571 15.08 149.291 15.12C149.011 15.1733 148.765 15.2 148.551 15.2ZM156.47 15.2C155.363 15.2 154.41 14.9933 153.61 14.58C152.81 14.1667 152.19 13.58 151.75 12.82C151.323 12.06 151.11 11.16 151.11 10.12C151.11 9.10667 151.316 8.22 151.73 7.46C152.156 6.7 152.736 6.10667 153.47 5.68C154.216 5.24 155.063 5.02 156.01 5.02C156.703 5.02 157.323 5.13333 157.87 5.36C158.43 5.58667 158.903 5.91333 159.29 6.34C159.69 6.76667 159.99 7.28667 160.19 7.9C160.403 8.5 160.51 9.18 160.51 9.94C160.51 10.18 160.423 10.3667 160.25 10.5C160.09 10.62 159.856 10.68 159.55 10.68H153.13V9.24H158.75L158.43 9.54C158.43 8.92667 158.336 8.41333 158.15 8C157.976 7.58667 157.716 7.27333 157.37 7.06C157.036 6.83333 156.616 6.72 156.11 6.72C155.55 6.72 155.07 6.85333 154.67 7.12C154.283 7.37333 153.983 7.74 153.77 8.22C153.57 8.68667 153.47 9.24667 153.47 9.9V10.04C153.47 11.1333 153.723 11.9533 154.23 12.5C154.75 13.0333 155.51 13.3 156.51 13.3C156.856 13.3 157.243 13.26 157.67 13.18C158.11 13.0867 158.523 12.9333 158.91 12.72C159.19 12.56 159.436 12.4933 159.65 12.52C159.863 12.5333 160.03 12.6067 160.15 12.74C160.283 12.8733 160.363 13.04 160.39 13.24C160.416 13.4267 160.376 13.62 160.27 13.82C160.176 14.02 160.01 14.1933 159.77 14.34C159.303 14.6333 158.763 14.8533 158.15 15C157.55 15.1333 156.99 15.2 156.47 15.2ZM163.769 15.16C163.356 15.16 163.036 15.0533 162.809 14.84C162.596 14.6133 162.489 14.2933 162.489 13.88V6.32C162.489 5.90667 162.596 5.59333 162.809 5.38C163.023 5.16667 163.323 5.06 163.709 5.06C164.096 5.06 164.396 5.16667 164.609 5.38C164.823 5.59333 164.929 5.90667 164.929 6.32V7.58H164.729C164.916 6.78 165.283 6.17333 165.829 5.76C166.376 5.34667 167.103 5.1 168.009 5.02C168.289 4.99333 168.509 5.06667 168.669 5.24C168.843 5.4 168.943 5.65333 168.969 6C168.996 6.33333 168.916 6.60667 168.729 6.82C168.556 7.02 168.289 7.14 167.929 7.18L167.489 7.22C166.676 7.3 166.063 7.55333 165.649 7.98C165.236 8.39333 165.029 8.98 165.029 9.74V13.88C165.029 14.2933 164.923 14.6133 164.709 14.84C164.496 15.0533 164.183 15.16 163.769 15.16ZM173.804 15.2C173.23 15.2 172.624 15.14 171.984 15.02C171.344 14.9 170.77 14.6933 170.264 14.4C170.05 14.2667 169.897 14.1133 169.804 13.94C169.724 13.7533 169.69 13.5733 169.704 13.4C169.73 13.2133 169.797 13.0533 169.904 12.92C170.024 12.7867 170.17 12.7 170.344 12.66C170.53 12.62 170.73 12.6533 170.944 12.76C171.477 13.0133 171.977 13.1933 172.444 13.3C172.91 13.3933 173.37 13.44 173.824 13.44C174.464 13.44 174.937 13.3333 175.244 13.12C175.564 12.8933 175.724 12.6 175.724 12.24C175.724 11.9333 175.617 11.7 175.404 11.54C175.204 11.3667 174.897 11.24 174.484 11.16L172.484 10.78C171.657 10.62 171.024 10.32 170.584 9.88C170.157 9.42667 169.944 8.84667 169.944 8.14C169.944 7.5 170.117 6.94667 170.464 6.48C170.824 6.01333 171.317 5.65333 171.944 5.4C172.57 5.14667 173.29 5.02 174.104 5.02C174.69 5.02 175.237 5.08667 175.744 5.22C176.264 5.34 176.764 5.53333 177.244 5.8C177.444 5.90667 177.577 6.04667 177.644 6.22C177.724 6.39333 177.744 6.57333 177.704 6.76C177.664 6.93333 177.584 7.09333 177.464 7.24C177.344 7.37333 177.19 7.46 177.004 7.5C176.83 7.52667 176.63 7.48667 176.404 7.38C175.99 7.16667 175.59 7.01333 175.204 6.92C174.83 6.82667 174.47 6.78 174.124 6.78C173.47 6.78 172.984 6.89333 172.664 7.12C172.357 7.34667 172.204 7.64667 172.204 8.02C172.204 8.3 172.297 8.53333 172.484 8.72C172.67 8.90667 172.957 9.03333 173.344 9.1L175.344 9.48C176.21 9.64 176.864 9.93333 177.304 10.36C177.757 10.7867 177.984 11.36 177.984 12.08C177.984 13.0533 177.604 13.82 176.844 14.38C176.084 14.9267 175.07 15.2 173.804 15.2ZM189.899 15.2C189.032 15.2 188.306 15.0533 187.719 14.76C187.146 14.4667 186.719 14.04 186.439 13.48C186.159 12.9067 186.019 12.2 186.019 11.36V7.1H184.979C184.659 7.1 184.412 7.02 184.239 6.86C184.066 6.68667 183.979 6.45333 183.979 6.16C183.979 5.85333 184.066 5.62 184.239 5.46C184.412 5.3 184.659 5.22 184.979 5.22H186.019V3.4C186.019 2.98667 186.126 2.67333 186.339 2.46C186.566 2.24667 186.879 2.14 187.279 2.14C187.679 2.14 187.986 2.24667 188.199 2.46C188.412 2.67333 188.519 2.98667 188.519 3.4V5.22H190.639C190.959 5.22 191.206 5.3 191.379 5.46C191.552 5.62 191.639 5.85333 191.639 6.16C191.639 6.45333 191.552 6.68667 191.379 6.86C191.206 7.02 190.959 7.1 190.639 7.1H188.519V11.22C188.519 11.86 188.659 12.34 188.939 12.66C189.219 12.98 189.672 13.14 190.299 13.14C190.526 13.14 190.726 13.12 190.899 13.08C191.072 13.04 191.226 13.0133 191.359 13C191.519 12.9867 191.652 13.04 191.759 13.16C191.866 13.2667 191.919 13.4933 191.919 13.84C191.919 14.1067 191.872 14.3467 191.779 14.56C191.699 14.76 191.546 14.9 191.319 14.98C191.146 15.0333 190.919 15.08 190.639 15.12C190.359 15.1733 190.112 15.2 189.899 15.2ZM197.457 15.2C196.444 15.2 195.564 14.9933 194.817 14.58C194.071 14.1667 193.491 13.58 193.077 12.82C192.664 12.0467 192.457 11.14 192.457 10.1C192.457 9.31333 192.571 8.61333 192.797 8C193.037 7.37333 193.377 6.84 193.817 6.4C194.257 5.94667 194.784 5.60667 195.397 5.38C196.011 5.14 196.697 5.02 197.457 5.02C198.471 5.02 199.351 5.22667 200.097 5.64C200.844 6.05333 201.424 6.64 201.837 7.4C202.251 8.16 202.457 9.06 202.457 10.1C202.457 10.8867 202.337 11.5933 202.097 12.22C201.871 12.8467 201.537 13.3867 201.097 13.84C200.657 14.28 200.131 14.62 199.517 14.86C198.904 15.0867 198.217 15.2 197.457 15.2ZM197.457 13.3C197.951 13.3 198.384 13.18 198.757 12.94C199.131 12.7 199.417 12.3467 199.617 11.88C199.831 11.4 199.937 10.8067 199.937 10.1C199.937 9.03333 199.711 8.24 199.257 7.72C198.804 7.18667 198.204 6.92 197.457 6.92C196.964 6.92 196.531 7.04 196.157 7.28C195.784 7.50667 195.491 7.86 195.277 8.34C195.077 8.80667 194.977 9.39333 194.977 10.1C194.977 11.1533 195.204 11.9533 195.657 12.5C196.111 13.0333 196.711 13.3 197.457 13.3ZM213.53 15.2C212.957 15.2 212.35 15.14 211.71 15.02C211.07 14.9 210.497 14.6933 209.99 14.4C209.777 14.2667 209.624 14.1133 209.53 13.94C209.45 13.7533 209.417 13.5733 209.43 13.4C209.457 13.2133 209.524 13.0533 209.63 12.92C209.75 12.7867 209.897 12.7 210.07 12.66C210.257 12.62 210.457 12.6533 210.67 12.76C211.204 13.0133 211.704 13.1933 212.17 13.3C212.637 13.3933 213.097 13.44 213.55 13.44C214.19 13.44 214.664 13.3333 214.97 13.12C215.29 12.8933 215.45 12.6 215.45 12.24C215.45 11.9333 215.344 11.7 215.13 11.54C214.93 11.3667 214.624 11.24 214.21 11.16L212.21 10.78C211.384 10.62 210.75 10.32 210.31 9.88C209.884 9.42667 209.67 8.84667 209.67 8.14C209.67 7.5 209.844 6.94667 210.19 6.48C210.55 6.01333 211.044 5.65333 211.67 5.4C212.297 5.14667 213.017 5.02 213.83 5.02C214.417 5.02 214.964 5.08667 215.47 5.22C215.99 5.34 216.49 5.53333 216.97 5.8C217.17 5.90667 217.304 6.04667 217.37 6.22C217.45 6.39333 217.47 6.57333 217.43 6.76C217.39 6.93333 217.31 7.09333 217.19 7.24C217.07 7.37333 216.917 7.46 216.73 7.5C216.557 7.52667 216.357 7.48667 216.13 7.38C215.717 7.16667 215.317 7.01333 214.93 6.92C214.557 6.82667 214.197 6.78 213.85 6.78C213.197 6.78 212.71 6.89333 212.39 7.12C212.084 7.34667 211.93 7.64667 211.93 8.02C211.93 8.3 212.024 8.53333 212.21 8.72C212.397 8.90667 212.684 9.03333 213.07 9.1L215.07 9.48C215.937 9.64 216.59 9.93333 217.03 10.36C217.484 10.7867 217.71 11.36 217.71 12.08C217.71 13.0533 217.33 13.82 216.57 14.38C215.81 14.9267 214.797 15.2 213.53 15.2ZM224.536 15.2C223.429 15.2 222.476 14.9933 221.676 14.58C220.876 14.1667 220.256 13.58 219.816 12.82C219.389 12.06 219.176 11.16 219.176 10.12C219.176 9.10667 219.383 8.22 219.796 7.46C220.223 6.7 220.803 6.10667 221.536 5.68C222.283 5.24 223.129 5.02 224.076 5.02C224.769 5.02 225.389 5.13333 225.936 5.36C226.496 5.58667 226.969 5.91333 227.356 6.34C227.756 6.76667 228.056 7.28667 228.256 7.9C228.469 8.5 228.576 9.18 228.576 9.94C228.576 10.18 228.489 10.3667 228.316 10.5C228.156 10.62 227.923 10.68 227.616 10.68H221.196V9.24H226.816L226.496 9.54C226.496 8.92667 226.403 8.41333 226.216 8C226.043 7.58667 225.783 7.27333 225.436 7.06C225.103 6.83333 224.683 6.72 224.176 6.72C223.616 6.72 223.136 6.85333 222.736 7.12C222.349 7.37333 222.049 7.74 221.836 8.22C221.636 8.68667 221.536 9.24667 221.536 9.9V10.04C221.536 11.1333 221.789 11.9533 222.296 12.5C222.816 13.0333 223.576 13.3 224.576 13.3C224.923 13.3 225.309 13.26 225.736 13.18C226.176 13.0867 226.589 12.9333 226.976 12.72C227.256 12.56 227.503 12.4933 227.716 12.52C227.929 12.5333 228.096 12.6067 228.216 12.74C228.349 12.8733 228.429 13.04 228.456 13.24C228.483 13.4267 228.443 13.62 228.336 13.82C228.243 14.02 228.076 14.1933 227.836 14.34C227.369 14.6333 226.829 14.8533 226.216 15C225.616 15.1333 225.056 15.2 224.536 15.2ZM234.997 15.2C234.13 15.2 233.403 15.0533 232.817 14.76C232.243 14.4667 231.817 14.04 231.537 13.48C231.257 12.9067 231.117 12.2 231.117 11.36V7.1H230.077C229.757 7.1 229.51 7.02 229.337 6.86C229.163 6.68667 229.077 6.45333 229.077 6.16C229.077 5.85333 229.163 5.62 229.337 5.46C229.51 5.3 229.757 5.22 230.077 5.22H231.117V3.4C231.117 2.98667 231.223 2.67333 231.437 2.46C231.663 2.24667 231.977 2.14 232.377 2.14C232.777 2.14 233.083 2.24667 233.297 2.46C233.51 2.67333 233.617 2.98667 233.617 3.4V5.22H235.737C236.057 5.22 236.303 5.3 236.477 5.46C236.65 5.62 236.737 5.85333 236.737 6.16C236.737 6.45333 236.65 6.68667 236.477 6.86C236.303 7.02 236.057 7.1 235.737 7.1H233.617V11.22C233.617 11.86 233.757 12.34 234.037 12.66C234.317 12.98 234.77 13.14 235.397 13.14C235.623 13.14 235.823 13.12 235.997 13.08C236.17 13.04 236.323 13.0133 236.457 13C236.617 12.9867 236.75 13.04 236.857 13.16C236.963 13.2667 237.017 13.4933 237.017 13.84C237.017 14.1067 236.97 14.3467 236.877 14.56C236.797 14.76 236.643 14.9 236.417 14.98C236.243 15.0333 236.017 15.08 235.737 15.12C235.457 15.1733 235.21 15.2 234.997 15.2ZM246.842 15.2C246.136 15.2 245.502 15.0667 244.942 14.8C244.396 14.52 243.962 14.1467 243.642 13.68C243.336 13.2133 243.182 12.6867 243.182 12.1C243.182 11.38 243.369 10.8133 243.742 10.4C244.116 9.97333 244.722 9.66667 245.562 9.48C246.402 9.29333 247.529 9.2 248.942 9.2H249.942V10.64H248.962C248.136 10.64 247.476 10.68 246.982 10.76C246.489 10.84 246.136 10.98 245.922 11.18C245.722 11.3667 245.622 11.6333 245.622 11.98C245.622 12.42 245.776 12.78 246.082 13.06C246.389 13.34 246.816 13.48 247.362 13.48C247.802 13.48 248.189 13.38 248.522 13.18C248.869 12.9667 249.142 12.68 249.342 12.32C249.542 11.96 249.642 11.5467 249.642 11.08V8.78C249.642 8.11333 249.496 7.63333 249.202 7.34C248.909 7.04667 248.416 6.9 247.722 6.9C247.336 6.9 246.916 6.94667 246.462 7.04C246.022 7.13333 245.556 7.29333 245.062 7.52C244.809 7.64 244.582 7.67333 244.382 7.62C244.196 7.56667 244.049 7.46 243.942 7.3C243.836 7.12667 243.782 6.94 243.782 6.74C243.782 6.54 243.836 6.34667 243.942 6.16C244.049 5.96 244.229 5.81333 244.482 5.72C245.096 5.46667 245.682 5.28667 246.242 5.18C246.816 5.07333 247.336 5.02 247.802 5.02C248.762 5.02 249.549 5.16667 250.162 5.46C250.789 5.75333 251.256 6.2 251.562 6.8C251.869 7.38667 252.022 8.14667 252.022 9.08V13.88C252.022 14.2933 251.922 14.6133 251.722 14.84C251.522 15.0533 251.236 15.16 250.862 15.16C250.489 15.16 250.196 15.0533 249.982 14.84C249.782 14.6133 249.682 14.2933 249.682 13.88V12.92H249.842C249.749 13.3867 249.562 13.7933 249.282 14.14C249.016 14.4733 248.676 14.7333 248.262 14.92C247.849 15.1067 247.376 15.2 246.842 15.2ZM263.329 15.2C262.223 15.2 261.389 14.8867 260.829 14.26C260.269 13.62 259.989 12.6867 259.989 11.46V2C259.989 1.58667 260.096 1.27333 260.309 1.06C260.523 0.846666 260.829 0.739999 261.229 0.739999C261.629 0.739999 261.936 0.846666 262.149 1.06C262.376 1.27333 262.489 1.58667 262.489 2V11.34C262.489 11.9533 262.616 12.4067 262.869 12.7C263.136 12.9933 263.509 13.14 263.989 13.14C264.096 13.14 264.196 13.14 264.289 13.14C264.383 13.1267 264.476 13.1133 264.569 13.1C264.756 13.0733 264.883 13.1267 264.949 13.26C265.016 13.38 265.049 13.6333 265.049 14.02C265.049 14.3533 264.983 14.6133 264.849 14.8C264.716 14.9867 264.496 15.1 264.189 15.14C264.056 15.1533 263.916 15.1667 263.769 15.18C263.623 15.1933 263.476 15.2 263.329 15.2ZM267.616 15.14C267.216 15.14 266.91 15.02 266.696 14.78C266.483 14.54 266.376 14.2067 266.376 13.78V6.44C266.376 6 266.483 5.66667 266.696 5.44C266.91 5.2 267.216 5.08 267.616 5.08C268.016 5.08 268.323 5.2 268.536 5.44C268.763 5.66667 268.876 6 268.876 6.44V13.78C268.876 14.2067 268.77 14.54 268.556 14.78C268.343 15.02 268.03 15.14 267.616 15.14ZM267.616 3.22C267.15 3.22 266.783 3.10667 266.516 2.88C266.263 2.64 266.136 2.31333 266.136 1.9C266.136 1.47333 266.263 1.14667 266.516 0.919999C266.783 0.693333 267.15 0.58 267.616 0.58C268.096 0.58 268.463 0.693333 268.716 0.919999C268.97 1.14667 269.096 1.47333 269.096 1.9C269.096 2.31333 268.97 2.64 268.716 2.88C268.463 3.10667 268.096 3.22 267.616 3.22ZM272.714 15.16C272.314 15.16 272.007 15.0533 271.794 14.84C271.58 14.6133 271.474 14.2933 271.474 13.88V6.32C271.474 5.90667 271.58 5.59333 271.794 5.38C272.007 5.16667 272.307 5.06 272.694 5.06C273.08 5.06 273.38 5.16667 273.594 5.38C273.807 5.59333 273.914 5.90667 273.914 6.32V7.68L273.694 7.18C273.987 6.47333 274.44 5.94 275.054 5.58C275.68 5.20667 276.387 5.02 277.174 5.02C277.96 5.02 278.607 5.16667 279.114 5.46C279.62 5.75333 280 6.2 280.254 6.8C280.507 7.38667 280.634 8.13333 280.634 9.04V13.88C280.634 14.2933 280.527 14.6133 280.314 14.84C280.1 15.0533 279.794 15.16 279.394 15.16C278.994 15.16 278.68 15.0533 278.454 14.84C278.24 14.6133 278.134 14.2933 278.134 13.88V9.16C278.134 8.4 277.987 7.84667 277.694 7.5C277.414 7.15333 276.974 6.98 276.374 6.98C275.64 6.98 275.054 7.21333 274.614 7.68C274.187 8.13333 273.974 8.74 273.974 9.5V13.88C273.974 14.7333 273.554 15.16 272.714 15.16ZM287.993 15.2C286.886 15.2 285.933 14.9933 285.133 14.58C284.333 14.1667 283.713 13.58 283.273 12.82C282.846 12.06 282.633 11.16 282.633 10.12C282.633 9.10667 282.84 8.22 283.253 7.46C283.68 6.7 284.26 6.10667 284.993 5.68C285.74 5.24 286.586 5.02 287.533 5.02C288.226 5.02 288.846 5.13333 289.393 5.36C289.953 5.58667 290.426 5.91333 290.813 6.34C291.213 6.76667 291.513 7.28667 291.713 7.9C291.926 8.5 292.033 9.18 292.033 9.94C292.033 10.18 291.946 10.3667 291.773 10.5C291.613 10.62 291.38 10.68 291.073 10.68H284.653V9.24H290.273L289.953 9.54C289.953 8.92667 289.86 8.41333 289.673 8C289.5 7.58667 289.24 7.27333 288.893 7.06C288.56 6.83333 288.14 6.72 287.633 6.72C287.073 6.72 286.593 6.85333 286.193 7.12C285.806 7.37333 285.506 7.74 285.293 8.22C285.093 8.68667 284.993 9.24667 284.993 9.9V10.04C284.993 11.1333 285.246 11.9533 285.753 12.5C286.273 13.0333 287.033 13.3 288.033 13.3C288.38 13.3 288.766 13.26 289.193 13.18C289.633 13.0867 290.046 12.9333 290.433 12.72C290.713 12.56 290.96 12.4933 291.173 12.52C291.386 12.5333 291.553 12.6067 291.673 12.74C291.806 12.8733 291.886 13.04 291.913 13.24C291.94 13.4267 291.9 13.62 291.793 13.82C291.7 14.02 291.533 14.1933 291.293 14.34C290.826 14.6333 290.286 14.8533 289.673 15C289.073 15.1333 288.513 15.2 287.993 15.2ZM303.223 15.16C302.889 15.16 302.603 15.08 302.363 14.92C302.123 14.7467 301.929 14.48 301.783 14.12L298.883 6.72C298.763 6.4 298.723 6.12 298.763 5.88C298.816 5.62667 298.943 5.42667 299.143 5.28C299.343 5.13333 299.609 5.06 299.943 5.06C300.236 5.06 300.476 5.13333 300.663 5.28C300.849 5.41333 301.009 5.67333 301.143 6.06L303.563 12.72H303.103L305.603 5.9C305.709 5.60667 305.849 5.39333 306.023 5.26C306.209 5.12667 306.449 5.06 306.743 5.06C307.036 5.06 307.276 5.13333 307.463 5.28C307.649 5.41333 307.789 5.62 307.883 5.9L310.343 12.72H309.923L312.363 6C312.496 5.64 312.663 5.39333 312.863 5.26C313.076 5.12667 313.309 5.06 313.563 5.06C313.883 5.06 314.129 5.14 314.303 5.3C314.476 5.46 314.576 5.66667 314.603 5.92C314.629 6.16 314.583 6.42667 314.463 6.72L311.583 14.12C311.449 14.4667 311.256 14.7267 311.003 14.9C310.763 15.0733 310.476 15.16 310.143 15.16C309.809 15.16 309.516 15.0733 309.263 14.9C309.023 14.7267 308.836 14.4667 308.703 14.12L306.083 7.18H307.223L304.663 14.1C304.529 14.46 304.343 14.7267 304.103 14.9C303.863 15.0733 303.569 15.16 303.223 15.16ZM317.733 15.14C317.333 15.14 317.027 15.02 316.813 14.78C316.6 14.54 316.493 14.2067 316.493 13.78V6.44C316.493 6 316.6 5.66667 316.813 5.44C317.027 5.2 317.333 5.08 317.733 5.08C318.133 5.08 318.44 5.2 318.653 5.44C318.88 5.66667 318.993 6 318.993 6.44V13.78C318.993 14.2067 318.887 14.54 318.673 14.78C318.46 15.02 318.147 15.14 317.733 15.14ZM317.733 3.22C317.267 3.22 316.9 3.10667 316.633 2.88C316.38 2.64 316.253 2.31333 316.253 1.9C316.253 1.47333 316.38 1.14667 316.633 0.919999C316.9 0.693333 317.267 0.58 317.733 0.58C318.213 0.58 318.58 0.693333 318.833 0.919999C319.087 1.14667 319.213 1.47333 319.213 1.9C319.213 2.31333 319.087 2.64 318.833 2.88C318.58 3.10667 318.213 3.22 317.733 3.22ZM326.071 15.2C325.204 15.2 324.478 15.0533 323.891 14.76C323.318 14.4667 322.891 14.04 322.611 13.48C322.331 12.9067 322.191 12.2 322.191 11.36V7.1H321.151C320.831 7.1 320.584 7.02 320.411 6.86C320.238 6.68667 320.151 6.45333 320.151 6.16C320.151 5.85333 320.238 5.62 320.411 5.46C320.584 5.3 320.831 5.22 321.151 5.22H322.191V3.4C322.191 2.98667 322.298 2.67333 322.511 2.46C322.738 2.24667 323.051 2.14 323.451 2.14C323.851 2.14 324.158 2.24667 324.371 2.46C324.584 2.67333 324.691 2.98667 324.691 3.4V5.22H326.811C327.131 5.22 327.378 5.3 327.551 5.46C327.724 5.62 327.811 5.85333 327.811 6.16C327.811 6.45333 327.724 6.68667 327.551 6.86C327.378 7.02 327.131 7.1 326.811 7.1H324.691V11.22C324.691 11.86 324.831 12.34 325.111 12.66C325.391 12.98 325.844 13.14 326.471 13.14C326.698 13.14 326.898 13.12 327.071 13.08C327.244 13.04 327.398 13.0133 327.531 13C327.691 12.9867 327.824 13.04 327.931 13.16C328.038 13.2667 328.091 13.4933 328.091 13.84C328.091 14.1067 328.044 14.3467 327.951 14.56C327.871 14.76 327.718 14.9 327.491 14.98C327.318 15.0333 327.091 15.08 326.811 15.12C326.531 15.1733 326.284 15.2 326.071 15.2ZM330.761 15.16C330.361 15.16 330.054 15.0533 329.841 14.84C329.627 14.6133 329.521 14.2933 329.521 13.88V2C329.521 1.58667 329.627 1.27333 329.841 1.06C330.054 0.846666 330.361 0.739999 330.761 0.739999C331.161 0.739999 331.467 0.846666 331.681 1.06C331.907 1.27333 332.021 1.58667 332.021 2V7.18H331.741C332.034 6.47333 332.487 5.94 333.101 5.58C333.727 5.20667 334.434 5.02 335.221 5.02C336.007 5.02 336.654 5.16667 337.161 5.46C337.667 5.75333 338.047 6.2 338.301 6.8C338.554 7.38667 338.681 8.13333 338.681 9.04V13.88C338.681 14.2933 338.574 14.6133 338.361 14.84C338.147 15.0533 337.841 15.16 337.441 15.16C337.041 15.16 336.727 15.0533 336.501 14.84C336.287 14.6133 336.181 14.2933 336.181 13.88V9.16C336.181 8.4 336.034 7.84667 335.741 7.5C335.461 7.15333 335.021 6.98 334.421 6.98C333.687 6.98 333.101 7.21333 332.661 7.68C332.234 8.13333 332.021 8.74 332.021 9.5V13.88C332.021 14.7333 331.601 15.16 330.761 15.16ZM347.89 18.76C347.49 18.76 347.183 18.6533 346.97 18.44C346.756 18.2267 346.65 17.9133 346.65 17.5V6.32C346.65 5.90667 346.756 5.59333 346.97 5.38C347.183 5.16667 347.483 5.06 347.87 5.06C348.27 5.06 348.576 5.16667 348.79 5.38C349.003 5.59333 349.11 5.90667 349.11 6.32V7.88L348.89 7.28C349.09 6.6 349.496 6.05333 350.11 5.64C350.736 5.22667 351.463 5.02 352.29 5.02C353.143 5.02 353.89 5.22667 354.53 5.64C355.183 6.05333 355.69 6.64 356.05 7.4C356.41 8.14667 356.59 9.04667 356.59 10.1C356.59 11.14 356.41 12.0467 356.05 12.82C355.69 13.58 355.19 14.1667 354.55 14.58C353.91 14.9933 353.156 15.2 352.29 15.2C351.476 15.2 350.763 15 350.15 14.6C349.536 14.1867 349.123 13.6533 348.91 13H349.15V17.5C349.15 17.9133 349.036 18.2267 348.81 18.44C348.596 18.6533 348.29 18.76 347.89 18.76ZM351.59 13.3C352.083 13.3 352.516 13.18 352.89 12.94C353.263 12.7 353.55 12.3467 353.75 11.88C353.963 11.4 354.07 10.8067 354.07 10.1C354.07 9.03333 353.843 8.24 353.39 7.72C352.936 7.18667 352.336 6.92 351.59 6.92C351.096 6.92 350.663 7.04 350.29 7.28C349.916 7.50667 349.623 7.86 349.41 8.34C349.21 8.80667 349.11 9.39333 349.11 10.1C349.11 11.1533 349.336 11.9533 349.79 12.5C350.243 13.0333 350.843 13.3 351.59 13.3ZM363.102 15.2C362.088 15.2 361.208 14.9933 360.462 14.58C359.715 14.1667 359.135 13.58 358.722 12.82C358.308 12.0467 358.102 11.14 358.102 10.1C358.102 9.31333 358.215 8.61333 358.442 8C358.682 7.37333 359.022 6.84 359.462 6.4C359.902 5.94667 360.428 5.60667 361.042 5.38C361.655 5.14 362.342 5.02 363.102 5.02C364.115 5.02 364.995 5.22667 365.742 5.64C366.488 6.05333 367.068 6.64 367.482 7.4C367.895 8.16 368.102 9.06 368.102 10.1C368.102 10.8867 367.982 11.5933 367.742 12.22C367.515 12.8467 367.182 13.3867 366.742 13.84C366.302 14.28 365.775 14.62 365.162 14.86C364.548 15.0867 363.862 15.2 363.102 15.2ZM363.102 13.3C363.595 13.3 364.028 13.18 364.402 12.94C364.775 12.7 365.062 12.3467 365.262 11.88C365.475 11.4 365.582 10.8067 365.582 10.1C365.582 9.03333 365.355 8.24 364.902 7.72C364.448 7.18667 363.848 6.92 363.102 6.92C362.608 6.92 362.175 7.04 361.802 7.28C361.428 7.50667 361.135 7.86 360.922 8.34C360.722 8.80667 360.622 9.39333 360.622 10.1C360.622 11.1533 360.848 11.9533 361.302 12.5C361.755 13.0333 362.355 13.3 363.102 13.3ZM373.745 15.2C373.172 15.2 372.565 15.14 371.925 15.02C371.285 14.9 370.712 14.6933 370.205 14.4C369.992 14.2667 369.839 14.1133 369.745 13.94C369.665 13.7533 369.632 13.5733 369.645 13.4C369.672 13.2133 369.739 13.0533 369.845 12.92C369.965 12.7867 370.112 12.7 370.285 12.66C370.472 12.62 370.672 12.6533 370.885 12.76C371.419 13.0133 371.919 13.1933 372.385 13.3C372.852 13.3933 373.312 13.44 373.765 13.44C374.405 13.44 374.879 13.3333 375.185 13.12C375.505 12.8933 375.665 12.6 375.665 12.24C375.665 11.9333 375.559 11.7 375.345 11.54C375.145 11.3667 374.839 11.24 374.425 11.16L372.425 10.78C371.599 10.62 370.965 10.32 370.525 9.88C370.099 9.42667 369.885 8.84667 369.885 8.14C369.885 7.5 370.059 6.94667 370.405 6.48C370.765 6.01333 371.259 5.65333 371.885 5.4C372.512 5.14667 373.232 5.02 374.045 5.02C374.632 5.02 375.179 5.08667 375.685 5.22C376.205 5.34 376.705 5.53333 377.185 5.8C377.385 5.90667 377.519 6.04667 377.585 6.22C377.665 6.39333 377.685 6.57333 377.645 6.76C377.605 6.93333 377.525 7.09333 377.405 7.24C377.285 7.37333 377.132 7.46 376.945 7.5C376.772 7.52667 376.572 7.48667 376.345 7.38C375.932 7.16667 375.532 7.01333 375.145 6.92C374.772 6.82667 374.412 6.78 374.065 6.78C373.412 6.78 372.925 6.89333 372.605 7.12C372.299 7.34667 372.145 7.64667 372.145 8.02C372.145 8.3 372.239 8.53333 372.425 8.72C372.612 8.90667 372.899 9.03333 373.285 9.1L375.285 9.48C376.152 9.64 376.805 9.93333 377.245 10.36C377.699 10.7867 377.925 11.36 377.925 12.08C377.925 13.0533 377.545 13.82 376.785 14.38C376.025 14.9267 375.012 15.2 373.745 15.2ZM381.171 15.14C380.771 15.14 380.464 15.02 380.251 14.78C380.038 14.54 379.931 14.2067 379.931 13.78V6.44C379.931 6 380.038 5.66667 380.251 5.44C380.464 5.2 380.771 5.08 381.171 5.08C381.571 5.08 381.878 5.2 382.091 5.44C382.318 5.66667 382.431 6 382.431 6.44V13.78C382.431 14.2067 382.324 14.54 382.111 14.78C381.898 15.02 381.584 15.14 381.171 15.14ZM381.171 3.22C380.704 3.22 380.338 3.10667 380.071 2.88C379.818 2.64 379.691 2.31333 379.691 1.9C379.691 1.47333 379.818 1.14667 380.071 0.919999C380.338 0.693333 380.704 0.58 381.171 0.58C381.651 0.58 382.018 0.693333 382.271 0.919999C382.524 1.14667 382.651 1.47333 382.651 1.9C382.651 2.31333 382.524 2.64 382.271 2.88C382.018 3.10667 381.651 3.22 381.171 3.22ZM389.509 15.2C388.642 15.2 387.915 15.0533 387.329 14.76C386.755 14.4667 386.329 14.04 386.049 13.48C385.769 12.9067 385.629 12.2 385.629 11.36V7.1H384.589C384.269 7.1 384.022 7.02 383.849 6.86C383.675 6.68667 383.589 6.45333 383.589 6.16C383.589 5.85333 383.675 5.62 383.849 5.46C384.022 5.3 384.269 5.22 384.589 5.22H385.629V3.4C385.629 2.98667 385.735 2.67333 385.949 2.46C386.175 2.24667 386.489 2.14 386.889 2.14C387.289 2.14 387.595 2.24667 387.809 2.46C388.022 2.67333 388.129 2.98667 388.129 3.4V5.22H390.249C390.569 5.22 390.815 5.3 390.989 5.46C391.162 5.62 391.249 5.85333 391.249 6.16C391.249 6.45333 391.162 6.68667 390.989 6.86C390.815 7.02 390.569 7.1 390.249 7.1H388.129V11.22C388.129 11.86 388.269 12.34 388.549 12.66C388.829 12.98 389.282 13.14 389.909 13.14C390.135 13.14 390.335 13.12 390.509 13.08C390.682 13.04 390.835 13.0133 390.969 13C391.129 12.9867 391.262 13.04 391.369 13.16C391.475 13.2667 391.529 13.4933 391.529 13.84C391.529 14.1067 391.482 14.3467 391.389 14.56C391.309 14.76 391.155 14.9 390.929 14.98C390.755 15.0333 390.529 15.08 390.249 15.12C389.969 15.1733 389.722 15.2 389.509 15.2ZM394.198 15.14C393.798 15.14 393.492 15.02 393.278 14.78C393.065 14.54 392.958 14.2067 392.958 13.78V6.44C392.958 6 393.065 5.66667 393.278 5.44C393.492 5.2 393.798 5.08 394.198 5.08C394.598 5.08 394.905 5.2 395.118 5.44C395.345 5.66667 395.458 6 395.458 6.44V13.78C395.458 14.2067 395.352 14.54 395.138 14.78C394.925 15.02 394.612 15.14 394.198 15.14ZM394.198 3.22C393.732 3.22 393.365 3.10667 393.098 2.88C392.845 2.64 392.718 2.31333 392.718 1.9C392.718 1.47333 392.845 1.14667 393.098 0.919999C393.365 0.693333 393.732 0.58 394.198 0.58C394.678 0.58 395.045 0.693333 395.298 0.919999C395.552 1.14667 395.678 1.47333 395.678 1.9C395.678 2.31333 395.552 2.64 395.298 2.88C395.045 3.10667 394.678 3.22 394.198 3.22ZM402.016 15.16C401.683 15.16 401.389 15.0733 401.136 14.9C400.896 14.7267 400.696 14.46 400.536 14.1L397.356 6.72C397.236 6.42667 397.189 6.15333 397.216 5.9C397.256 5.64667 397.376 5.44667 397.576 5.3C397.789 5.14 398.076 5.06 398.436 5.06C398.743 5.06 398.989 5.13333 399.176 5.28C399.363 5.41333 399.529 5.67333 399.676 6.06L402.376 12.8H401.776L404.556 6.04C404.703 5.66667 404.869 5.41333 405.056 5.28C405.256 5.13333 405.523 5.06 405.856 5.06C406.149 5.06 406.383 5.14 406.556 5.3C406.729 5.44667 406.836 5.64667 406.876 5.9C406.916 6.14 406.869 6.40667 406.736 6.7L403.496 14.1C403.349 14.46 403.149 14.7267 402.896 14.9C402.656 15.0733 402.363 15.16 402.016 15.16ZM413.227 15.2C412.121 15.2 411.167 14.9933 410.367 14.58C409.567 14.1667 408.947 13.58 408.507 12.82C408.081 12.06 407.867 11.16 407.867 10.12C407.867 9.10667 408.074 8.22 408.487 7.46C408.914 6.7 409.494 6.10667 410.227 5.68C410.974 5.24 411.821 5.02 412.767 5.02C413.461 5.02 414.081 5.13333 414.627 5.36C415.187 5.58667 415.661 5.91333 416.047 6.34C416.447 6.76667 416.747 7.28667 416.947 7.9C417.161 8.5 417.267 9.18 417.267 9.94C417.267 10.18 417.181 10.3667 417.007 10.5C416.847 10.62 416.614 10.68 416.307 10.68H409.887V9.24H415.507L415.187 9.54C415.187 8.92667 415.094 8.41333 414.907 8C414.734 7.58667 414.474 7.27333 414.127 7.06C413.794 6.83333 413.374 6.72 412.867 6.72C412.307 6.72 411.827 6.85333 411.427 7.12C411.041 7.37333 410.741 7.74 410.527 8.22C410.327 8.68667 410.227 9.24667 410.227 9.9V10.04C410.227 11.1333 410.481 11.9533 410.987 12.5C411.507 13.0333 412.267 13.3 413.267 13.3C413.614 13.3 414.001 13.26 414.427 13.18C414.867 13.0867 415.281 12.9333 415.667 12.72C415.947 12.56 416.194 12.4933 416.407 12.52C416.621 12.5333 416.787 12.6067 416.907 12.74C417.041 12.8733 417.121 13.04 417.147 13.24C417.174 13.4267 417.134 13.62 417.027 13.82C416.934 14.02 416.767 14.1933 416.527 14.34C416.061 14.6333 415.521 14.8533 414.907 15C414.307 15.1333 413.747 15.2 413.227 15.2ZM428.257 15.2C427.684 15.2 427.077 15.14 426.437 15.02C425.797 14.9 425.224 14.6933 424.717 14.4C424.504 14.2667 424.35 14.1133 424.257 13.94C424.177 13.7533 424.144 13.5733 424.157 13.4C424.184 13.2133 424.25 13.0533 424.357 12.92C424.477 12.7867 424.624 12.7 424.797 12.66C424.984 12.62 425.184 12.6533 425.397 12.76C425.93 13.0133 426.43 13.1933 426.897 13.3C427.364 13.3933 427.824 13.44 428.277 13.44C428.917 13.44 429.39 13.3333 429.697 13.12C430.017 12.8933 430.177 12.6 430.177 12.24C430.177 11.9333 430.07 11.7 429.857 11.54C429.657 11.3667 429.35 11.24 428.937 11.16L426.937 10.78C426.11 10.62 425.477 10.32 425.037 9.88C424.61 9.42667 424.397 8.84667 424.397 8.14C424.397 7.5 424.57 6.94667 424.917 6.48C425.277 6.01333 425.77 5.65333 426.397 5.4C427.024 5.14667 427.744 5.02 428.557 5.02C429.144 5.02 429.69 5.08667 430.197 5.22C430.717 5.34 431.217 5.53333 431.697 5.8C431.897 5.90667 432.03 6.04667 432.097 6.22C432.177 6.39333 432.197 6.57333 432.157 6.76C432.117 6.93333 432.037 7.09333 431.917 7.24C431.797 7.37333 431.644 7.46 431.457 7.5C431.284 7.52667 431.084 7.48667 430.857 7.38C430.444 7.16667 430.044 7.01333 429.657 6.92C429.284 6.82667 428.924 6.78 428.577 6.78C427.924 6.78 427.437 6.89333 427.117 7.12C426.81 7.34667 426.657 7.64667 426.657 8.02C426.657 8.3 426.75 8.53333 426.937 8.72C427.124 8.90667 427.41 9.03333 427.797 9.1L429.797 9.48C430.664 9.64 431.317 9.93333 431.757 10.36C432.21 10.7867 432.437 11.36 432.437 12.08C432.437 13.0533 432.057 13.82 431.297 14.38C430.537 14.9267 429.524 15.2 428.257 15.2ZM437.783 15.2C436.676 15.2 435.843 14.8867 435.283 14.26C434.723 13.62 434.443 12.6867 434.443 11.46V2C434.443 1.58667 434.549 1.27333 434.763 1.06C434.976 0.846666 435.283 0.739999 435.683 0.739999C436.083 0.739999 436.389 0.846666 436.603 1.06C436.829 1.27333 436.943 1.58667 436.943 2V11.34C436.943 11.9533 437.069 12.4067 437.323 12.7C437.589 12.9933 437.963 13.14 438.443 13.14C438.549 13.14 438.649 13.14 438.743 13.14C438.836 13.1267 438.929 13.1133 439.023 13.1C439.209 13.0733 439.336 13.1267 439.403 13.26C439.469 13.38 439.503 13.6333 439.503 14.02C439.503 14.3533 439.436 14.6133 439.303 14.8C439.169 14.9867 438.949 15.1 438.643 15.14C438.509 15.1533 438.369 15.1667 438.223 15.18C438.076 15.1933 437.929 15.2 437.783 15.2ZM445.192 15.2C444.178 15.2 443.298 14.9933 442.552 14.58C441.805 14.1667 441.225 13.58 440.812 12.82C440.398 12.0467 440.192 11.14 440.192 10.1C440.192 9.31333 440.305 8.61333 440.532 8C440.772 7.37333 441.112 6.84 441.552 6.4C441.992 5.94667 442.518 5.60667 443.132 5.38C443.745 5.14 444.432 5.02 445.192 5.02C446.205 5.02 447.085 5.22667 447.832 5.64C448.578 6.05333 449.158 6.64 449.572 7.4C449.985 8.16 450.192 9.06 450.192 10.1C450.192 10.8867 450.072 11.5933 449.832 12.22C449.605 12.8467 449.272 13.3867 448.832 13.84C448.392 14.28 447.865 14.62 447.252 14.86C446.638 15.0867 445.952 15.2 445.192 15.2ZM445.192 13.3C445.685 13.3 446.118 13.18 446.492 12.94C446.865 12.7 447.152 12.3467 447.352 11.88C447.565 11.4 447.672 10.8067 447.672 10.1C447.672 9.03333 447.445 8.24 446.992 7.72C446.538 7.18667 445.938 6.92 445.192 6.92C444.698 6.92 444.265 7.04 443.892 7.28C443.518 7.50667 443.225 7.86 443.012 8.34C442.812 8.80667 442.712 9.39333 442.712 10.1C442.712 11.1533 442.938 11.9533 443.392 12.5C443.845 13.0333 444.445 13.3 445.192 13.3ZM453.495 18.76C453.095 18.76 452.788 18.6533 452.575 18.44C452.362 18.2267 452.255 17.9133 452.255 17.5V6.32C452.255 5.90667 452.362 5.59333 452.575 5.38C452.788 5.16667 453.088 5.06 453.475 5.06C453.875 5.06 454.182 5.16667 454.395 5.38C454.608 5.59333 454.715 5.90667 454.715 6.32V7.88L454.495 7.28C454.695 6.6 455.102 6.05333 455.715 5.64C456.342 5.22667 457.068 5.02 457.895 5.02C458.748 5.02 459.495 5.22667 460.135 5.64C460.788 6.05333 461.295 6.64 461.655 7.4C462.015 8.14667 462.195 9.04667 462.195 10.1C462.195 11.14 462.015 12.0467 461.655 12.82C461.295 13.58 460.795 14.1667 460.155 14.58C459.515 14.9933 458.762 15.2 457.895 15.2C457.082 15.2 456.368 15 455.755 14.6C455.142 14.1867 454.728 13.6533 454.515 13H454.755V17.5C454.755 17.9133 454.642 18.2267 454.415 18.44C454.202 18.6533 453.895 18.76 453.495 18.76ZM457.195 13.3C457.688 13.3 458.122 13.18 458.495 12.94C458.868 12.7 459.155 12.3467 459.355 11.88C459.568 11.4 459.675 10.8067 459.675 10.1C459.675 9.03333 459.448 8.24 458.995 7.72C458.542 7.18667 457.942 6.92 457.195 6.92C456.702 6.92 456.268 7.04 455.895 7.28C455.522 7.50667 455.228 7.86 455.015 8.34C454.815 8.80667 454.715 9.39333 454.715 10.1C454.715 11.1533 454.942 11.9533 455.395 12.5C455.848 13.0333 456.448 13.3 457.195 13.3ZM469.067 15.2C467.961 15.2 467.007 14.9933 466.207 14.58C465.407 14.1667 464.787 13.58 464.347 12.82C463.921 12.06 463.707 11.16 463.707 10.12C463.707 9.10667 463.914 8.22 464.327 7.46C464.754 6.7 465.334 6.10667 466.067 5.68C466.814 5.24 467.661 5.02 468.607 5.02C469.301 5.02 469.921 5.13333 470.467 5.36C471.027 5.58667 471.501 5.91333 471.887 6.34C472.287 6.76667 472.587 7.28667 472.787 7.9C473.001 8.5 473.107 9.18 473.107 9.94C473.107 10.18 473.021 10.3667 472.847 10.5C472.687 10.62 472.454 10.68 472.147 10.68H465.727V9.24H471.347L471.027 9.54C471.027 8.92667 470.934 8.41333 470.747 8C470.574 7.58667 470.314 7.27333 469.967 7.06C469.634 6.83333 469.214 6.72 468.707 6.72C468.147 6.72 467.667 6.85333 467.267 7.12C466.881 7.37333 466.581 7.74 466.367 8.22C466.167 8.68667 466.067 9.24667 466.067 9.9V10.04C466.067 11.1333 466.321 11.9533 466.827 12.5C467.347 13.0333 468.107 13.3 469.107 13.3C469.454 13.3 469.841 13.26 470.267 13.18C470.707 13.0867 471.121 12.9333 471.507 12.72C471.787 12.56 472.034 12.4933 472.247 12.52C472.461 12.5333 472.627 12.6067 472.747 12.74C472.881 12.8733 472.961 13.04 472.987 13.24C473.014 13.4267 472.974 13.62 472.867 13.82C472.774 14.02 472.607 14.1933 472.367 14.34C471.901 14.6333 471.361 14.8533 470.747 15C470.147 15.1333 469.587 15.2 469.067 15.2ZM476.287 15.1C475.834 15.1 475.467 14.96 475.187 14.68C474.92 14.4 474.787 14.04 474.787 13.6C474.787 13.1733 474.92 12.8267 475.187 12.56C475.467 12.28 475.834 12.14 476.287 12.14C476.754 12.14 477.114 12.28 477.367 12.56C477.634 12.8267 477.767 13.1733 477.767 13.6C477.767 14.04 477.634 14.4 477.367 14.68C477.114 14.96 476.754 15.1 476.287 15.1Z" fill="#444444"/>
</svg>
