<svg width="485" height="19" viewBox="0 0 485 19" fill="none" xmlns="http://www.w3.org/2000/svg">
<path d="M1.84797 15.16C1.52797 15.16 1.26797 15.0867 1.06797 14.94C0.881302 14.7933 0.767969 14.6 0.727969 14.36C0.687969 14.1067 0.734635 13.8267 0.867969 13.52L6.14797 1.82C6.3213 1.43333 6.52797 1.16 6.76797 0.999999C7.0213 0.826666 7.30797 0.739999 7.62797 0.739999C7.93464 0.739999 8.20797 0.826666 8.44797 0.999999C8.7013 1.16 8.91464 1.43333 9.08797 1.82L14.388 13.52C14.5346 13.8267 14.588 14.1067 14.548 14.36C14.508 14.6133 14.3946 14.8133 14.208 14.96C14.0213 15.0933 13.7746 15.16 13.468 15.16C13.0946 15.16 12.8013 15.0733 12.588 14.9C12.388 14.7133 12.208 14.4333 12.048 14.06L10.748 11.04L11.828 11.74H3.38797L4.46797 11.04L3.18797 14.06C3.01464 14.4467 2.83464 14.7267 2.64797 14.9C2.4613 15.0733 2.19464 15.16 1.84797 15.16ZM7.58797 3.68L4.78797 10.34L4.26797 9.7H10.948L10.448 10.34L7.62797 3.68H7.58797ZM20.0131 15.2C19.1598 15.2 18.4065 14.9933 17.7531 14.58C17.1131 14.1667 16.6131 13.58 16.2531 12.82C15.8931 12.0467 15.7131 11.14 15.7131 10.1C15.7131 9.04667 15.8931 8.14667 16.2531 7.4C16.6131 6.64 17.1131 6.05333 17.7531 5.64C18.4065 5.22667 19.1598 5.02 20.0131 5.02C20.8265 5.02 21.5331 5.22 22.1331 5.62C22.7465 6.02 23.1598 6.54667 23.3731 7.2H23.1531V2C23.1531 1.58667 23.2598 1.27333 23.4731 1.06C23.6865 0.846666 23.9931 0.739999 24.3931 0.739999C24.7931 0.739999 25.0998 0.846666 25.3131 1.06C25.5398 1.27333 25.6531 1.58667 25.6531 2V13.88C25.6531 14.2933 25.5465 14.6133 25.3331 14.84C25.1198 15.0533 24.8131 15.16 24.4131 15.16C24.0131 15.16 23.7065 15.0533 23.4931 14.84C23.2798 14.6133 23.1731 14.2933 23.1731 13.88V12.32L23.3931 12.92C23.1931 13.6133 22.7865 14.1667 22.1731 14.58C21.5598 14.9933 20.8398 15.2 20.0131 15.2ZM20.7131 13.3C21.2065 13.3 21.6398 13.18 22.0131 12.94C22.3865 12.7 22.6731 12.3467 22.8731 11.88C23.0865 11.4 23.1931 10.8067 23.1931 10.1C23.1931 9.03333 22.9665 8.24 22.5131 7.72C22.0598 7.18667 21.4598 6.92 20.7131 6.92C20.2198 6.92 19.7865 7.04 19.4131 7.28C19.0398 7.50667 18.7465 7.86 18.5331 8.34C18.3331 8.80667 18.2331 9.39333 18.2331 10.1C18.2331 11.1533 18.4598 11.9533 18.9131 12.5C19.3665 13.0333 19.9665 13.3 20.7131 13.3ZM27.0453 18.78C26.752 18.8067 26.512 18.76 26.3253 18.64C26.1386 18.5333 26.012 18.3933 25.9453 18.22C25.8653 18.0467 25.8386 17.8667 25.8653 17.68C25.892 17.4933 25.972 17.3267 26.1053 17.18C26.2253 17.0467 26.392 16.9733 26.6053 16.96C27.2053 16.9067 27.6386 16.7333 27.9053 16.44C28.1853 16.16 28.3253 15.7267 28.3253 15.14V6.32C28.3253 5.90667 28.432 5.59333 28.6453 5.38C28.872 5.16667 29.1853 5.06 29.5853 5.06C29.9853 5.06 30.292 5.16667 30.5053 5.38C30.7186 5.59333 30.8253 5.90667 30.8253 6.32V14.92C30.8253 15.7733 30.6853 16.4733 30.4053 17.02C30.1386 17.5667 29.7253 17.98 29.1653 18.26C28.6186 18.54 27.912 18.7133 27.0453 18.78ZM29.5653 3.22C29.0986 3.22 28.732 3.10667 28.4653 2.88C28.212 2.64 28.0853 2.31333 28.0853 1.9C28.0853 1.47333 28.212 1.14667 28.4653 0.919999C28.732 0.693333 29.0986 0.58 29.5653 0.58C30.0453 0.58 30.412 0.693333 30.6653 0.919999C30.9186 1.14667 31.0453 1.47333 31.0453 1.9C31.0453 2.31333 30.9186 2.64 30.6653 2.88C30.412 3.10667 30.0453 3.22 29.5653 3.22ZM36.9611 15.2C36.1478 15.2 35.4744 15.0533 34.9411 14.76C34.4078 14.4533 34.0078 14 33.7411 13.4C33.4878 12.8 33.3611 12.0533 33.3611 11.16V6.32C33.3611 5.89333 33.4678 5.58 33.6811 5.38C33.8944 5.16667 34.2011 5.06 34.6011 5.06C35.0011 5.06 35.3078 5.16667 35.5211 5.38C35.7478 5.58 35.8611 5.89333 35.8611 6.32V11.2C35.8611 11.8933 36.0011 12.4067 36.2811 12.74C36.5611 13.0733 37.0078 13.24 37.6211 13.24C38.2878 13.24 38.8344 13.0133 39.2611 12.56C39.6878 12.0933 39.9011 11.48 39.9011 10.72V6.32C39.9011 5.89333 40.0078 5.58 40.2211 5.38C40.4344 5.16667 40.7411 5.06 41.1411 5.06C41.5411 5.06 41.8478 5.16667 42.0611 5.38C42.2878 5.58 42.4011 5.89333 42.4011 6.32V13.88C42.4011 14.7333 41.9944 15.16 41.1811 15.16C40.7944 15.16 40.4944 15.0533 40.2811 14.84C40.0678 14.6133 39.9611 14.2933 39.9611 13.88V12.36L40.2411 12.96C39.9611 13.68 39.5344 14.2333 38.9611 14.62C38.4011 15.0067 37.7344 15.2 36.9611 15.2ZM48.5831 15.2C48.0098 15.2 47.4031 15.14 46.7631 15.02C46.1231 14.9 45.5498 14.6933 45.0431 14.4C44.8298 14.2667 44.6765 14.1133 44.5831 13.94C44.5031 13.7533 44.4698 13.5733 44.4831 13.4C44.5098 13.2133 44.5765 13.0533 44.6831 12.92C44.8031 12.7867 44.9498 12.7 45.1231 12.66C45.3098 12.62 45.5098 12.6533 45.7231 12.76C46.2565 13.0133 46.7565 13.1933 47.2231 13.3C47.6898 13.3933 48.1498 13.44 48.6031 13.44C49.2431 13.44 49.7165 13.3333 50.0231 13.12C50.3431 12.8933 50.5031 12.6 50.5031 12.24C50.5031 11.9333 50.3965 11.7 50.1831 11.54C49.9831 11.3667 49.6765 11.24 49.2631 11.16L47.2631 10.78C46.4365 10.62 45.8031 10.32 45.3631 9.88C44.9365 9.42667 44.7231 8.84667 44.7231 8.14C44.7231 7.5 44.8965 6.94667 45.2431 6.48C45.6031 6.01333 46.0965 5.65333 46.7231 5.4C47.3498 5.14667 48.0698 5.02 48.8831 5.02C49.4698 5.02 50.0165 5.08667 50.5231 5.22C51.0431 5.34 51.5431 5.53333 52.0231 5.8C52.2231 5.90667 52.3565 6.04667 52.4231 6.22C52.5031 6.39333 52.5231 6.57333 52.4831 6.76C52.4431 6.93333 52.3631 7.09333 52.2431 7.24C52.1231 7.37333 51.9698 7.46 51.7831 7.5C51.6098 7.52667 51.4098 7.48667 51.1831 7.38C50.7698 7.16667 50.3698 7.01333 49.9831 6.92C49.6098 6.82667 49.2498 6.78 48.9031 6.78C48.2498 6.78 47.7631 6.89333 47.4431 7.12C47.1365 7.34667 46.9831 7.64667 46.9831 8.02C46.9831 8.3 47.0765 8.53333 47.2631 8.72C47.4498 8.90667 47.7365 9.03333 48.1231 9.1L50.1231 9.48C50.9898 9.64 51.6431 9.93333 52.0831 10.36C52.5365 10.7867 52.7631 11.36 52.7631 12.08C52.7631 13.0533 52.3831 13.82 51.6231 14.38C50.8631 14.9267 49.8498 15.2 48.5831 15.2ZM59.1511 15.2C58.2844 15.2 57.5578 15.0533 56.9711 14.76C56.3978 14.4667 55.9711 14.04 55.6911 13.48C55.4111 12.9067 55.2711 12.2 55.2711 11.36V7.1H54.2311C53.9111 7.1 53.6644 7.02 53.4911 6.86C53.3178 6.68667 53.2311 6.45333 53.2311 6.16C53.2311 5.85333 53.3178 5.62 53.4911 5.46C53.6644 5.3 53.9111 5.22 54.2311 5.22H55.2711V3.4C55.2711 2.98667 55.3778 2.67333 55.5911 2.46C55.8178 2.24667 56.1311 2.14 56.5311 2.14C56.9311 2.14 57.2378 2.24667 57.4511 2.46C57.6644 2.67333 57.7711 2.98667 57.7711 3.4V5.22H59.8911C60.2111 5.22 60.4578 5.3 60.6311 5.46C60.8044 5.62 60.8911 5.85333 60.8911 6.16C60.8911 6.45333 60.8044 6.68667 60.6311 6.86C60.4578 7.02 60.2111 7.1 59.8911 7.1H57.7711V11.22C57.7711 11.86 57.9111 12.34 58.1911 12.66C58.4711 12.98 58.9244 13.14 59.5511 13.14C59.7778 13.14 59.9778 13.12 60.1511 13.08C60.3244 13.04 60.4778 13.0133 60.6111 13C60.7711 12.9867 60.9044 13.04 61.0111 13.16C61.1178 13.2667 61.1711 13.4933 61.1711 13.84C61.1711 14.1067 61.1244 14.3467 61.0311 14.56C60.9511 14.76 60.7978 14.9 60.5711 14.98C60.3978 15.0333 60.1711 15.08 59.8911 15.12C59.6111 15.1733 59.3644 15.2 59.1511 15.2ZM72.2566 15.2C71.3899 15.2 70.6632 15.0533 70.0766 14.76C69.5032 14.4667 69.0766 14.04 68.7966 13.48C68.5166 12.9067 68.3766 12.2 68.3766 11.36V7.1H67.3366C67.0166 7.1 66.7699 7.02 66.5966 6.86C66.4232 6.68667 66.3366 6.45333 66.3366 6.16C66.3366 5.85333 66.4232 5.62 66.5966 5.46C66.7699 5.3 67.0166 5.22 67.3366 5.22H68.3766V3.4C68.3766 2.98667 68.4832 2.67333 68.6966 2.46C68.9232 2.24667 69.2366 2.14 69.6366 2.14C70.0366 2.14 70.3432 2.24667 70.5566 2.46C70.7699 2.67333 70.8766 2.98667 70.8766 3.4V5.22H72.9966C73.3166 5.22 73.5632 5.3 73.7366 5.46C73.9099 5.62 73.9966 5.85333 73.9966 6.16C73.9966 6.45333 73.9099 6.68667 73.7366 6.86C73.5632 7.02 73.3166 7.1 72.9966 7.1H70.8766V11.22C70.8766 11.86 71.0166 12.34 71.2966 12.66C71.5766 12.98 72.0299 13.14 72.6566 13.14C72.8832 13.14 73.0832 13.12 73.2566 13.08C73.4299 13.04 73.5832 13.0133 73.7166 13C73.8766 12.9867 74.0099 13.04 74.1166 13.16C74.2232 13.2667 74.2766 13.4933 74.2766 13.84C74.2766 14.1067 74.2299 14.3467 74.1366 14.56C74.0566 14.76 73.9032 14.9 73.6766 14.98C73.5032 15.0333 73.2766 15.08 72.9966 15.12C72.7166 15.1733 72.4699 15.2 72.2566 15.2ZM76.9463 15.16C76.5463 15.16 76.2396 15.0533 76.0263 14.84C75.8129 14.6133 75.7063 14.2933 75.7063 13.88V2C75.7063 1.58667 75.8129 1.27333 76.0263 1.06C76.2396 0.846666 76.5463 0.739999 76.9463 0.739999C77.3463 0.739999 77.6529 0.846666 77.8663 1.06C78.0929 1.27333 78.2063 1.58667 78.2063 2V7.18H77.9263C78.2196 6.47333 78.6729 5.94 79.2863 5.58C79.9129 5.20667 80.6196 5.02 81.4063 5.02C82.1929 5.02 82.8396 5.16667 83.3463 5.46C83.8529 5.75333 84.2329 6.2 84.4863 6.8C84.7396 7.38667 84.8663 8.13333 84.8663 9.04V13.88C84.8663 14.2933 84.7596 14.6133 84.5463 14.84C84.3329 15.0533 84.0263 15.16 83.6263 15.16C83.2263 15.16 82.9129 15.0533 82.6863 14.84C82.4729 14.6133 82.3663 14.2933 82.3663 13.88V9.16C82.3663 8.4 82.2196 7.84667 81.9263 7.5C81.6463 7.15333 81.2063 6.98 80.6063 6.98C79.8729 6.98 79.2863 7.21333 78.8463 7.68C78.4196 8.13333 78.2063 8.74 78.2063 9.5V13.88C78.2063 14.7333 77.7863 15.16 76.9463 15.16ZM92.2255 15.2C91.1188 15.2 90.1655 14.9933 89.3655 14.58C88.5655 14.1667 87.9455 13.58 87.5055 12.82C87.0788 12.06 86.8655 11.16 86.8655 10.12C86.8655 9.10667 87.0721 8.22 87.4855 7.46C87.9121 6.7 88.4921 6.10667 89.2255 5.68C89.9721 5.24 90.8188 5.02 91.7655 5.02C92.4588 5.02 93.0788 5.13333 93.6255 5.36C94.1855 5.58667 94.6588 5.91333 95.0455 6.34C95.4455 6.76667 95.7455 7.28667 95.9455 7.9C96.1588 8.5 96.2655 9.18 96.2655 9.94C96.2655 10.18 96.1788 10.3667 96.0055 10.5C95.8455 10.62 95.6121 10.68 95.3055 10.68H88.8855V9.24H94.5055L94.1855 9.54C94.1855 8.92667 94.0921 8.41333 93.9055 8C93.7321 7.58667 93.4721 7.27333 93.1255 7.06C92.7921 6.83333 92.3721 6.72 91.8655 6.72C91.3055 6.72 90.8255 6.85333 90.4255 7.12C90.0388 7.37333 89.7388 7.74 89.5255 8.22C89.3255 8.68667 89.2255 9.24667 89.2255 9.9V10.04C89.2255 11.1333 89.4788 11.9533 89.9855 12.5C90.5055 13.0333 91.2655 13.3 92.2655 13.3C92.6121 13.3 92.9988 13.26 93.4255 13.18C93.8655 13.0867 94.2788 12.9333 94.6655 12.72C94.9455 12.56 95.1921 12.4933 95.4055 12.52C95.6188 12.5333 95.7855 12.6067 95.9055 12.74C96.0388 12.8733 96.1188 13.04 96.1455 13.24C96.1721 13.4267 96.1321 13.62 96.0255 13.82C95.9321 14.02 95.7655 14.1933 95.5255 14.34C95.0588 14.6333 94.5188 14.8533 93.9055 15C93.3055 15.1333 92.7455 15.2 92.2255 15.2ZM104.915 18.76C104.515 18.76 104.208 18.6533 103.995 18.44C103.782 18.2267 103.675 17.9133 103.675 17.5V6.32C103.675 5.90667 103.782 5.59333 103.995 5.38C104.208 5.16667 104.508 5.06 104.895 5.06C105.295 5.06 105.602 5.16667 105.815 5.38C106.028 5.59333 106.135 5.90667 106.135 6.32V7.88L105.915 7.28C106.115 6.6 106.522 6.05333 107.135 5.64C107.762 5.22667 108.488 5.02 109.315 5.02C110.168 5.02 110.915 5.22667 111.555 5.64C112.208 6.05333 112.715 6.64 113.075 7.4C113.435 8.14667 113.615 9.04667 113.615 10.1C113.615 11.14 113.435 12.0467 113.075 12.82C112.715 13.58 112.215 14.1667 111.575 14.58C110.935 14.9933 110.182 15.2 109.315 15.2C108.502 15.2 107.788 15 107.175 14.6C106.562 14.1867 106.148 13.6533 105.935 13H106.175V17.5C106.175 17.9133 106.062 18.2267 105.835 18.44C105.622 18.6533 105.315 18.76 104.915 18.76ZM108.615 13.3C109.108 13.3 109.542 13.18 109.915 12.94C110.288 12.7 110.575 12.3467 110.775 11.88C110.988 11.4 111.095 10.8067 111.095 10.1C111.095 9.03333 110.868 8.24 110.415 7.72C109.962 7.18667 109.362 6.92 108.615 6.92C108.122 6.92 107.688 7.04 107.315 7.28C106.942 7.50667 106.648 7.86 106.435 8.34C106.235 8.80667 106.135 9.39333 106.135 10.1C106.135 11.1533 106.362 11.9533 106.815 12.5C107.268 13.0333 107.868 13.3 108.615 13.3ZM120.127 15.2C119.114 15.2 118.234 14.9933 117.487 14.58C116.741 14.1667 116.161 13.58 115.747 12.82C115.334 12.0467 115.127 11.14 115.127 10.1C115.127 9.31333 115.241 8.61333 115.467 8C115.707 7.37333 116.047 6.84 116.487 6.4C116.927 5.94667 117.454 5.60667 118.067 5.38C118.681 5.14 119.367 5.02 120.127 5.02C121.141 5.02 122.021 5.22667 122.767 5.64C123.514 6.05333 124.094 6.64 124.507 7.4C124.921 8.16 125.127 9.06 125.127 10.1C125.127 10.8867 125.007 11.5933 124.767 12.22C124.541 12.8467 124.207 13.3867 123.767 13.84C123.327 14.28 122.801 14.62 122.187 14.86C121.574 15.0867 120.887 15.2 120.127 15.2ZM120.127 13.3C120.621 13.3 121.054 13.18 121.427 12.94C121.801 12.7 122.087 12.3467 122.287 11.88C122.501 11.4 122.607 10.8067 122.607 10.1C122.607 9.03333 122.381 8.24 121.927 7.72C121.474 7.18667 120.874 6.92 120.127 6.92C119.634 6.92 119.201 7.04 118.827 7.28C118.454 7.50667 118.161 7.86 117.947 8.34C117.747 8.80667 117.647 9.39333 117.647 10.1C117.647 11.1533 117.874 11.9533 118.327 12.5C118.781 13.0333 119.381 13.3 120.127 13.3ZM128.431 15.14C128.031 15.14 127.724 15.02 127.511 14.78C127.297 14.54 127.191 14.2067 127.191 13.78V6.44C127.191 6 127.297 5.66667 127.511 5.44C127.724 5.2 128.031 5.08 128.431 5.08C128.831 5.08 129.137 5.2 129.351 5.44C129.577 5.66667 129.691 6 129.691 6.44V13.78C129.691 14.2067 129.584 14.54 129.371 14.78C129.157 15.02 128.844 15.14 128.431 15.14ZM128.431 3.22C127.964 3.22 127.597 3.10667 127.331 2.88C127.077 2.64 126.951 2.31333 126.951 1.9C126.951 1.47333 127.077 1.14667 127.331 0.919999C127.597 0.693333 127.964 0.58 128.431 0.58C128.911 0.58 129.277 0.693333 129.531 0.919999C129.784 1.14667 129.911 1.47333 129.911 1.9C129.911 2.31333 129.784 2.64 129.531 2.88C129.277 3.10667 128.911 3.22 128.431 3.22ZM133.528 15.16C133.128 15.16 132.822 15.0533 132.608 14.84C132.395 14.6133 132.288 14.2933 132.288 13.88V6.32C132.288 5.90667 132.395 5.59333 132.608 5.38C132.822 5.16667 133.122 5.06 133.508 5.06C133.895 5.06 134.195 5.16667 134.408 5.38C134.622 5.59333 134.728 5.90667 134.728 6.32V7.68L134.508 7.18C134.802 6.47333 135.255 5.94 135.868 5.58C136.495 5.20667 137.202 5.02 137.988 5.02C138.775 5.02 139.422 5.16667 139.928 5.46C140.435 5.75333 140.815 6.2 141.068 6.8C141.322 7.38667 141.448 8.13333 141.448 9.04V13.88C141.448 14.2933 141.342 14.6133 141.128 14.84C140.915 15.0533 140.608 15.16 140.208 15.16C139.808 15.16 139.495 15.0533 139.268 14.84C139.055 14.6133 138.948 14.2933 138.948 13.88V9.16C138.948 8.4 138.802 7.84667 138.508 7.5C138.228 7.15333 137.788 6.98 137.188 6.98C136.455 6.98 135.868 7.21333 135.428 7.68C135.002 8.13333 134.788 8.74 134.788 9.5V13.88C134.788 14.7333 134.368 15.16 133.528 15.16ZM148.468 15.2C147.601 15.2 146.874 15.0533 146.288 14.76C145.714 14.4667 145.288 14.04 145.008 13.48C144.728 12.9067 144.588 12.2 144.588 11.36V7.1H143.548C143.228 7.1 142.981 7.02 142.808 6.86C142.634 6.68667 142.547 6.45333 142.547 6.16C142.547 5.85333 142.634 5.62 142.808 5.46C142.981 5.3 143.228 5.22 143.548 5.22H144.588V3.4C144.588 2.98667 144.694 2.67333 144.908 2.46C145.134 2.24667 145.448 2.14 145.848 2.14C146.248 2.14 146.554 2.24667 146.768 2.46C146.981 2.67333 147.088 2.98667 147.088 3.4V5.22H149.208C149.528 5.22 149.774 5.3 149.948 5.46C150.121 5.62 150.208 5.85333 150.208 6.16C150.208 6.45333 150.121 6.68667 149.948 6.86C149.774 7.02 149.528 7.1 149.208 7.1H147.088V11.22C147.088 11.86 147.228 12.34 147.508 12.66C147.788 12.98 148.241 13.14 148.868 13.14C149.094 13.14 149.294 13.12 149.468 13.08C149.641 13.04 149.794 13.0133 149.928 13C150.088 12.9867 150.221 13.04 150.328 13.16C150.434 13.2667 150.488 13.4933 150.488 13.84C150.488 14.1067 150.441 14.3467 150.348 14.56C150.268 14.76 150.114 14.9 149.888 14.98C149.714 15.0333 149.488 15.08 149.208 15.12C148.928 15.1733 148.681 15.2 148.468 15.2ZM156.386 15.2C155.279 15.2 154.326 14.9933 153.526 14.58C152.726 14.1667 152.106 13.58 151.666 12.82C151.239 12.06 151.026 11.16 151.026 10.12C151.026 9.10667 151.232 8.22 151.646 7.46C152.072 6.7 152.652 6.10667 153.386 5.68C154.132 5.24 154.979 5.02 155.926 5.02C156.619 5.02 157.239 5.13333 157.786 5.36C158.346 5.58667 158.819 5.91333 159.206 6.34C159.606 6.76667 159.906 7.28667 160.106 7.9C160.319 8.5 160.426 9.18 160.426 9.94C160.426 10.18 160.339 10.3667 160.166 10.5C160.006 10.62 159.772 10.68 159.466 10.68H153.046V9.24H158.666L158.346 9.54C158.346 8.92667 158.252 8.41333 158.066 8C157.892 7.58667 157.632 7.27333 157.286 7.06C156.952 6.83333 156.532 6.72 156.026 6.72C155.466 6.72 154.986 6.85333 154.586 7.12C154.199 7.37333 153.899 7.74 153.686 8.22C153.486 8.68667 153.386 9.24667 153.386 9.9V10.04C153.386 11.1333 153.639 11.9533 154.146 12.5C154.666 13.0333 155.426 13.3 156.426 13.3C156.772 13.3 157.159 13.26 157.586 13.18C158.026 13.0867 158.439 12.9333 158.826 12.72C159.106 12.56 159.352 12.4933 159.566 12.52C159.779 12.5333 159.946 12.6067 160.066 12.74C160.199 12.8733 160.279 13.04 160.306 13.24C160.332 13.4267 160.292 13.62 160.186 13.82C160.092 14.02 159.926 14.1933 159.686 14.34C159.219 14.6333 158.679 14.8533 158.066 15C157.466 15.1333 156.906 15.2 156.386 15.2ZM163.685 15.16C163.272 15.16 162.952 15.0533 162.725 14.84C162.512 14.6133 162.405 14.2933 162.405 13.88V6.32C162.405 5.90667 162.512 5.59333 162.725 5.38C162.939 5.16667 163.239 5.06 163.625 5.06C164.012 5.06 164.312 5.16667 164.525 5.38C164.739 5.59333 164.845 5.90667 164.845 6.32V7.58H164.645C164.832 6.78 165.199 6.17333 165.745 5.76C166.292 5.34667 167.019 5.1 167.925 5.02C168.205 4.99333 168.425 5.06667 168.585 5.24C168.759 5.4 168.859 5.65333 168.885 6C168.912 6.33333 168.832 6.60667 168.645 6.82C168.472 7.02 168.205 7.14 167.845 7.18L167.405 7.22C166.592 7.3 165.979 7.55333 165.565 7.98C165.152 8.39333 164.945 8.98 164.945 9.74V13.88C164.945 14.2933 164.839 14.6133 164.625 14.84C164.412 15.0533 164.099 15.16 163.685 15.16ZM173.72 15.2C173.147 15.2 172.54 15.14 171.9 15.02C171.26 14.9 170.687 14.6933 170.18 14.4C169.967 14.2667 169.813 14.1133 169.72 13.94C169.64 13.7533 169.607 13.5733 169.62 13.4C169.647 13.2133 169.713 13.0533 169.82 12.92C169.94 12.7867 170.087 12.7 170.26 12.66C170.447 12.62 170.647 12.6533 170.86 12.76C171.393 13.0133 171.893 13.1933 172.36 13.3C172.827 13.3933 173.287 13.44 173.74 13.44C174.38 13.44 174.853 13.3333 175.16 13.12C175.48 12.8933 175.64 12.6 175.64 12.24C175.64 11.9333 175.533 11.7 175.32 11.54C175.12 11.3667 174.813 11.24 174.4 11.16L172.4 10.78C171.573 10.62 170.94 10.32 170.5 9.88C170.073 9.42667 169.86 8.84667 169.86 8.14C169.86 7.5 170.033 6.94667 170.38 6.48C170.74 6.01333 171.233 5.65333 171.86 5.4C172.487 5.14667 173.207 5.02 174.02 5.02C174.607 5.02 175.153 5.08667 175.66 5.22C176.18 5.34 176.68 5.53333 177.16 5.8C177.36 5.90667 177.493 6.04667 177.56 6.22C177.64 6.39333 177.66 6.57333 177.62 6.76C177.58 6.93333 177.5 7.09333 177.38 7.24C177.26 7.37333 177.107 7.46 176.92 7.5C176.747 7.52667 176.547 7.48667 176.32 7.38C175.907 7.16667 175.507 7.01333 175.12 6.92C174.747 6.82667 174.387 6.78 174.04 6.78C173.387 6.78 172.9 6.89333 172.58 7.12C172.273 7.34667 172.12 7.64667 172.12 8.02C172.12 8.3 172.213 8.53333 172.4 8.72C172.587 8.90667 172.873 9.03333 173.26 9.1L175.26 9.48C176.127 9.64 176.78 9.93333 177.22 10.36C177.673 10.7867 177.9 11.36 177.9 12.08C177.9 13.0533 177.52 13.82 176.76 14.38C176 14.9267 174.987 15.2 173.72 15.2ZM189.815 15.2C188.948 15.2 188.222 15.0533 187.635 14.76C187.062 14.4667 186.635 14.04 186.355 13.48C186.075 12.9067 185.935 12.2 185.935 11.36V7.1H184.895C184.575 7.1 184.328 7.02 184.155 6.86C183.982 6.68667 183.895 6.45333 183.895 6.16C183.895 5.85333 183.982 5.62 184.155 5.46C184.328 5.3 184.575 5.22 184.895 5.22H185.935V3.4C185.935 2.98667 186.042 2.67333 186.255 2.46C186.482 2.24667 186.795 2.14 187.195 2.14C187.595 2.14 187.902 2.24667 188.115 2.46C188.328 2.67333 188.435 2.98667 188.435 3.4V5.22H190.555C190.875 5.22 191.122 5.3 191.295 5.46C191.468 5.62 191.555 5.85333 191.555 6.16C191.555 6.45333 191.468 6.68667 191.295 6.86C191.122 7.02 190.875 7.1 190.555 7.1H188.435V11.22C188.435 11.86 188.575 12.34 188.855 12.66C189.135 12.98 189.588 13.14 190.215 13.14C190.442 13.14 190.642 13.12 190.815 13.08C190.988 13.04 191.142 13.0133 191.275 13C191.435 12.9867 191.568 13.04 191.675 13.16C191.782 13.2667 191.835 13.4933 191.835 13.84C191.835 14.1067 191.788 14.3467 191.695 14.56C191.615 14.76 191.462 14.9 191.235 14.98C191.062 15.0333 190.835 15.08 190.555 15.12C190.275 15.1733 190.028 15.2 189.815 15.2ZM197.373 15.2C196.36 15.2 195.48 14.9933 194.733 14.58C193.987 14.1667 193.407 13.58 192.993 12.82C192.58 12.0467 192.373 11.14 192.373 10.1C192.373 9.31333 192.487 8.61333 192.713 8C192.953 7.37333 193.293 6.84 193.733 6.4C194.173 5.94667 194.7 5.60667 195.313 5.38C195.927 5.14 196.613 5.02 197.373 5.02C198.387 5.02 199.267 5.22667 200.013 5.64C200.76 6.05333 201.34 6.64 201.753 7.4C202.167 8.16 202.373 9.06 202.373 10.1C202.373 10.8867 202.253 11.5933 202.013 12.22C201.787 12.8467 201.453 13.3867 201.013 13.84C200.573 14.28 200.047 14.62 199.433 14.86C198.82 15.0867 198.133 15.2 197.373 15.2ZM197.373 13.3C197.867 13.3 198.3 13.18 198.673 12.94C199.047 12.7 199.333 12.3467 199.533 11.88C199.747 11.4 199.853 10.8067 199.853 10.1C199.853 9.03333 199.627 8.24 199.173 7.72C198.72 7.18667 198.12 6.92 197.373 6.92C196.88 6.92 196.447 7.04 196.073 7.28C195.7 7.50667 195.407 7.86 195.193 8.34C194.993 8.80667 194.893 9.39333 194.893 10.1C194.893 11.1533 195.12 11.9533 195.573 12.5C196.027 13.0333 196.627 13.3 197.373 13.3ZM213.446 15.2C212.873 15.2 212.266 15.14 211.626 15.02C210.986 14.9 210.413 14.6933 209.906 14.4C209.693 14.2667 209.54 14.1133 209.446 13.94C209.366 13.7533 209.333 13.5733 209.346 13.4C209.373 13.2133 209.44 13.0533 209.546 12.92C209.666 12.7867 209.813 12.7 209.986 12.66C210.173 12.62 210.373 12.6533 210.586 12.76C211.12 13.0133 211.62 13.1933 212.086 13.3C212.553 13.3933 213.013 13.44 213.466 13.44C214.106 13.44 214.58 13.3333 214.886 13.12C215.206 12.8933 215.366 12.6 215.366 12.24C215.366 11.9333 215.26 11.7 215.046 11.54C214.846 11.3667 214.54 11.24 214.126 11.16L212.126 10.78C211.3 10.62 210.666 10.32 210.226 9.88C209.8 9.42667 209.586 8.84667 209.586 8.14C209.586 7.5 209.76 6.94667 210.106 6.48C210.466 6.01333 210.96 5.65333 211.586 5.4C212.213 5.14667 212.933 5.02 213.746 5.02C214.333 5.02 214.88 5.08667 215.386 5.22C215.906 5.34 216.406 5.53333 216.886 5.8C217.086 5.90667 217.22 6.04667 217.286 6.22C217.366 6.39333 217.386 6.57333 217.346 6.76C217.306 6.93333 217.226 7.09333 217.106 7.24C216.986 7.37333 216.833 7.46 216.646 7.5C216.473 7.52667 216.273 7.48667 216.046 7.38C215.633 7.16667 215.233 7.01333 214.846 6.92C214.473 6.82667 214.113 6.78 213.766 6.78C213.113 6.78 212.626 6.89333 212.306 7.12C212 7.34667 211.846 7.64667 211.846 8.02C211.846 8.3 211.94 8.53333 212.126 8.72C212.313 8.90667 212.6 9.03333 212.986 9.1L214.986 9.48C215.853 9.64 216.506 9.93333 216.946 10.36C217.4 10.7867 217.626 11.36 217.626 12.08C217.626 13.0533 217.246 13.82 216.486 14.38C215.726 14.9267 214.713 15.2 213.446 15.2ZM224.452 15.2C223.345 15.2 222.392 14.9933 221.592 14.58C220.792 14.1667 220.172 13.58 219.732 12.82C219.305 12.06 219.092 11.16 219.092 10.12C219.092 9.10667 219.299 8.22 219.712 7.46C220.139 6.7 220.719 6.10667 221.452 5.68C222.199 5.24 223.045 5.02 223.992 5.02C224.685 5.02 225.305 5.13333 225.852 5.36C226.412 5.58667 226.885 5.91333 227.272 6.34C227.672 6.76667 227.972 7.28667 228.172 7.9C228.385 8.5 228.492 9.18 228.492 9.94C228.492 10.18 228.405 10.3667 228.232 10.5C228.072 10.62 227.839 10.68 227.532 10.68H221.112V9.24H226.732L226.412 9.54C226.412 8.92667 226.319 8.41333 226.132 8C225.959 7.58667 225.699 7.27333 225.352 7.06C225.019 6.83333 224.599 6.72 224.092 6.72C223.532 6.72 223.052 6.85333 222.652 7.12C222.265 7.37333 221.965 7.74 221.752 8.22C221.552 8.68667 221.452 9.24667 221.452 9.9V10.04C221.452 11.1333 221.705 11.9533 222.212 12.5C222.732 13.0333 223.492 13.3 224.492 13.3C224.839 13.3 225.225 13.26 225.652 13.18C226.092 13.0867 226.505 12.9333 226.892 12.72C227.172 12.56 227.419 12.4933 227.632 12.52C227.845 12.5333 228.012 12.6067 228.132 12.74C228.265 12.8733 228.345 13.04 228.372 13.24C228.399 13.4267 228.359 13.62 228.252 13.82C228.159 14.02 227.992 14.1933 227.752 14.34C227.285 14.6333 226.745 14.8533 226.132 15C225.532 15.1333 224.972 15.2 224.452 15.2ZM234.913 15.2C234.046 15.2 233.319 15.0533 232.733 14.76C232.159 14.4667 231.733 14.04 231.453 13.48C231.173 12.9067 231.033 12.2 231.033 11.36V7.1H229.993C229.673 7.1 229.426 7.02 229.253 6.86C229.079 6.68667 228.993 6.45333 228.993 6.16C228.993 5.85333 229.079 5.62 229.253 5.46C229.426 5.3 229.673 5.22 229.993 5.22H231.033V3.4C231.033 2.98667 231.139 2.67333 231.353 2.46C231.579 2.24667 231.893 2.14 232.293 2.14C232.693 2.14 232.999 2.24667 233.213 2.46C233.426 2.67333 233.533 2.98667 233.533 3.4V5.22H235.653C235.973 5.22 236.219 5.3 236.393 5.46C236.566 5.62 236.653 5.85333 236.653 6.16C236.653 6.45333 236.566 6.68667 236.393 6.86C236.219 7.02 235.973 7.1 235.653 7.1H233.533V11.22C233.533 11.86 233.673 12.34 233.953 12.66C234.233 12.98 234.686 13.14 235.313 13.14C235.539 13.14 235.739 13.12 235.913 13.08C236.086 13.04 236.239 13.0133 236.373 13C236.533 12.9867 236.666 13.04 236.773 13.16C236.879 13.2667 236.933 13.4933 236.933 13.84C236.933 14.1067 236.886 14.3467 236.793 14.56C236.713 14.76 236.559 14.9 236.333 14.98C236.159 15.0333 235.933 15.08 235.653 15.12C235.373 15.1733 235.126 15.2 234.913 15.2ZM246.758 15.2C246.052 15.2 245.418 15.0667 244.858 14.8C244.312 14.52 243.878 14.1467 243.558 13.68C243.252 13.2133 243.098 12.6867 243.098 12.1C243.098 11.38 243.285 10.8133 243.658 10.4C244.032 9.97333 244.638 9.66667 245.478 9.48C246.318 9.29333 247.445 9.2 248.858 9.2H249.858V10.64H248.878C248.052 10.64 247.392 10.68 246.898 10.76C246.405 10.84 246.052 10.98 245.838 11.18C245.638 11.3667 245.538 11.6333 245.538 11.98C245.538 12.42 245.692 12.78 245.998 13.06C246.305 13.34 246.732 13.48 247.278 13.48C247.718 13.48 248.105 13.38 248.438 13.18C248.785 12.9667 249.058 12.68 249.258 12.32C249.458 11.96 249.558 11.5467 249.558 11.08V8.78C249.558 8.11333 249.412 7.63333 249.118 7.34C248.825 7.04667 248.332 6.9 247.638 6.9C247.252 6.9 246.832 6.94667 246.378 7.04C245.938 7.13333 245.472 7.29333 244.978 7.52C244.725 7.64 244.498 7.67333 244.298 7.62C244.112 7.56667 243.965 7.46 243.858 7.3C243.752 7.12667 243.698 6.94 243.698 6.74C243.698 6.54 243.752 6.34667 243.858 6.16C243.965 5.96 244.145 5.81333 244.398 5.72C245.012 5.46667 245.598 5.28667 246.158 5.18C246.732 5.07333 247.252 5.02 247.718 5.02C248.678 5.02 249.465 5.16667 250.078 5.46C250.705 5.75333 251.172 6.2 251.478 6.8C251.785 7.38667 251.938 8.14667 251.938 9.08V13.88C251.938 14.2933 251.838 14.6133 251.638 14.84C251.438 15.0533 251.152 15.16 250.778 15.16C250.405 15.16 250.112 15.0533 249.898 14.84C249.698 14.6133 249.598 14.2933 249.598 13.88V12.92H249.758C249.665 13.3867 249.478 13.7933 249.198 14.14C248.932 14.4733 248.592 14.7333 248.178 14.92C247.765 15.1067 247.292 15.2 246.758 15.2ZM263.245 15.2C262.139 15.2 261.305 14.8867 260.745 14.26C260.185 13.62 259.905 12.6867 259.905 11.46V2C259.905 1.58667 260.012 1.27333 260.225 1.06C260.439 0.846666 260.745 0.739999 261.145 0.739999C261.545 0.739999 261.852 0.846666 262.065 1.06C262.292 1.27333 262.405 1.58667 262.405 2V11.34C262.405 11.9533 262.532 12.4067 262.785 12.7C263.052 12.9933 263.425 13.14 263.905 13.14C264.012 13.14 264.112 13.14 264.205 13.14C264.299 13.1267 264.392 13.1133 264.485 13.1C264.672 13.0733 264.799 13.1267 264.865 13.26C264.932 13.38 264.965 13.6333 264.965 14.02C264.965 14.3533 264.899 14.6133 264.765 14.8C264.632 14.9867 264.412 15.1 264.105 15.14C263.972 15.1533 263.832 15.1667 263.685 15.18C263.539 15.1933 263.392 15.2 263.245 15.2ZM267.532 15.14C267.132 15.14 266.826 15.02 266.612 14.78C266.399 14.54 266.292 14.2067 266.292 13.78V6.44C266.292 6 266.399 5.66667 266.612 5.44C266.826 5.2 267.132 5.08 267.532 5.08C267.932 5.08 268.239 5.2 268.452 5.44C268.679 5.66667 268.792 6 268.792 6.44V13.78C268.792 14.2067 268.686 14.54 268.472 14.78C268.259 15.02 267.946 15.14 267.532 15.14ZM267.532 3.22C267.066 3.22 266.699 3.10667 266.432 2.88C266.179 2.64 266.052 2.31333 266.052 1.9C266.052 1.47333 266.179 1.14667 266.432 0.919999C266.699 0.693333 267.066 0.58 267.532 0.58C268.012 0.58 268.379 0.693333 268.632 0.919999C268.886 1.14667 269.012 1.47333 269.012 1.9C269.012 2.31333 268.886 2.64 268.632 2.88C268.379 3.10667 268.012 3.22 267.532 3.22ZM272.63 15.16C272.23 15.16 271.923 15.0533 271.71 14.84C271.497 14.6133 271.39 14.2933 271.39 13.88V6.32C271.39 5.90667 271.497 5.59333 271.71 5.38C271.923 5.16667 272.223 5.06 272.61 5.06C272.997 5.06 273.297 5.16667 273.51 5.38C273.723 5.59333 273.83 5.90667 273.83 6.32V7.68L273.61 7.18C273.903 6.47333 274.357 5.94 274.97 5.58C275.597 5.20667 276.303 5.02 277.09 5.02C277.877 5.02 278.523 5.16667 279.03 5.46C279.537 5.75333 279.917 6.2 280.17 6.8C280.423 7.38667 280.55 8.13333 280.55 9.04V13.88C280.55 14.2933 280.443 14.6133 280.23 14.84C280.017 15.0533 279.71 15.16 279.31 15.16C278.91 15.16 278.597 15.0533 278.37 14.84C278.157 14.6133 278.05 14.2933 278.05 13.88V9.16C278.05 8.4 277.903 7.84667 277.61 7.5C277.33 7.15333 276.89 6.98 276.29 6.98C275.557 6.98 274.97 7.21333 274.53 7.68C274.103 8.13333 273.89 8.74 273.89 9.5V13.88C273.89 14.7333 273.47 15.16 272.63 15.16ZM287.909 15.2C286.802 15.2 285.849 14.9933 285.049 14.58C284.249 14.1667 283.629 13.58 283.189 12.82C282.762 12.06 282.549 11.16 282.549 10.12C282.549 9.10667 282.756 8.22 283.169 7.46C283.596 6.7 284.176 6.10667 284.909 5.68C285.656 5.24 286.502 5.02 287.449 5.02C288.142 5.02 288.762 5.13333 289.309 5.36C289.869 5.58667 290.342 5.91333 290.729 6.34C291.129 6.76667 291.429 7.28667 291.629 7.9C291.842 8.5 291.949 9.18 291.949 9.94C291.949 10.18 291.862 10.3667 291.689 10.5C291.529 10.62 291.296 10.68 290.989 10.68H284.569V9.24H290.189L289.869 9.54C289.869 8.92667 289.776 8.41333 289.589 8C289.416 7.58667 289.156 7.27333 288.809 7.06C288.476 6.83333 288.056 6.72 287.549 6.72C286.989 6.72 286.509 6.85333 286.109 7.12C285.722 7.37333 285.422 7.74 285.209 8.22C285.009 8.68667 284.909 9.24667 284.909 9.9V10.04C284.909 11.1333 285.162 11.9533 285.669 12.5C286.189 13.0333 286.949 13.3 287.949 13.3C288.296 13.3 288.682 13.26 289.109 13.18C289.549 13.0867 289.962 12.9333 290.349 12.72C290.629 12.56 290.876 12.4933 291.089 12.52C291.302 12.5333 291.469 12.6067 291.589 12.74C291.722 12.8733 291.802 13.04 291.829 13.24C291.856 13.4267 291.816 13.62 291.709 13.82C291.616 14.02 291.449 14.1933 291.209 14.34C290.742 14.6333 290.202 14.8533 289.589 15C288.989 15.1333 288.429 15.2 287.909 15.2ZM303.139 15.16C302.805 15.16 302.519 15.08 302.279 14.92C302.039 14.7467 301.845 14.48 301.699 14.12L298.799 6.72C298.679 6.4 298.639 6.12 298.679 5.88C298.732 5.62667 298.859 5.42667 299.059 5.28C299.259 5.13333 299.525 5.06 299.859 5.06C300.152 5.06 300.392 5.13333 300.579 5.28C300.765 5.41333 300.925 5.67333 301.059 6.06L303.479 12.72H303.019L305.519 5.9C305.625 5.60667 305.765 5.39333 305.939 5.26C306.125 5.12667 306.365 5.06 306.659 5.06C306.952 5.06 307.192 5.13333 307.379 5.28C307.565 5.41333 307.705 5.62 307.799 5.9L310.259 12.72H309.839L312.279 6C312.412 5.64 312.579 5.39333 312.779 5.26C312.992 5.12667 313.225 5.06 313.479 5.06C313.799 5.06 314.045 5.14 314.219 5.3C314.392 5.46 314.492 5.66667 314.519 5.92C314.545 6.16 314.499 6.42667 314.379 6.72L311.499 14.12C311.365 14.4667 311.172 14.7267 310.919 14.9C310.679 15.0733 310.392 15.16 310.059 15.16C309.725 15.16 309.432 15.0733 309.179 14.9C308.939 14.7267 308.752 14.4667 308.619 14.12L305.999 7.18H307.139L304.579 14.1C304.445 14.46 304.259 14.7267 304.019 14.9C303.779 15.0733 303.485 15.16 303.139 15.16ZM317.649 15.14C317.249 15.14 316.943 15.02 316.729 14.78C316.516 14.54 316.409 14.2067 316.409 13.78V6.44C316.409 6 316.516 5.66667 316.729 5.44C316.943 5.2 317.249 5.08 317.649 5.08C318.049 5.08 318.356 5.2 318.569 5.44C318.796 5.66667 318.909 6 318.909 6.44V13.78C318.909 14.2067 318.803 14.54 318.589 14.78C318.376 15.02 318.063 15.14 317.649 15.14ZM317.649 3.22C317.183 3.22 316.816 3.10667 316.549 2.88C316.296 2.64 316.169 2.31333 316.169 1.9C316.169 1.47333 316.296 1.14667 316.549 0.919999C316.816 0.693333 317.183 0.58 317.649 0.58C318.129 0.58 318.496 0.693333 318.749 0.919999C319.003 1.14667 319.129 1.47333 319.129 1.9C319.129 2.31333 319.003 2.64 318.749 2.88C318.496 3.10667 318.129 3.22 317.649 3.22ZM325.987 15.2C325.12 15.2 324.394 15.0533 323.807 14.76C323.234 14.4667 322.807 14.04 322.527 13.48C322.247 12.9067 322.107 12.2 322.107 11.36V7.1H321.067C320.747 7.1 320.5 7.02 320.327 6.86C320.154 6.68667 320.067 6.45333 320.067 6.16C320.067 5.85333 320.154 5.62 320.327 5.46C320.5 5.3 320.747 5.22 321.067 5.22H322.107V3.4C322.107 2.98667 322.214 2.67333 322.427 2.46C322.654 2.24667 322.967 2.14 323.367 2.14C323.767 2.14 324.074 2.24667 324.287 2.46C324.5 2.67333 324.607 2.98667 324.607 3.4V5.22H326.727C327.047 5.22 327.294 5.3 327.467 5.46C327.64 5.62 327.727 5.85333 327.727 6.16C327.727 6.45333 327.64 6.68667 327.467 6.86C327.294 7.02 327.047 7.1 326.727 7.1H324.607V11.22C324.607 11.86 324.747 12.34 325.027 12.66C325.307 12.98 325.76 13.14 326.387 13.14C326.614 13.14 326.814 13.12 326.987 13.08C327.16 13.04 327.314 13.0133 327.447 13C327.607 12.9867 327.74 13.04 327.847 13.16C327.954 13.2667 328.007 13.4933 328.007 13.84C328.007 14.1067 327.96 14.3467 327.867 14.56C327.787 14.76 327.634 14.9 327.407 14.98C327.234 15.0333 327.007 15.08 326.727 15.12C326.447 15.1733 326.2 15.2 325.987 15.2ZM330.677 15.16C330.277 15.16 329.97 15.0533 329.757 14.84C329.543 14.6133 329.437 14.2933 329.437 13.88V2C329.437 1.58667 329.543 1.27333 329.757 1.06C329.97 0.846666 330.277 0.739999 330.677 0.739999C331.077 0.739999 331.383 0.846666 331.597 1.06C331.823 1.27333 331.937 1.58667 331.937 2V7.18H331.657C331.95 6.47333 332.403 5.94 333.017 5.58C333.643 5.20667 334.35 5.02 335.137 5.02C335.923 5.02 336.57 5.16667 337.077 5.46C337.583 5.75333 337.963 6.2 338.217 6.8C338.47 7.38667 338.597 8.13333 338.597 9.04V13.88C338.597 14.2933 338.49 14.6133 338.277 14.84C338.063 15.0533 337.757 15.16 337.357 15.16C336.957 15.16 336.643 15.0533 336.417 14.84C336.203 14.6133 336.097 14.2933 336.097 13.88V9.16C336.097 8.4 335.95 7.84667 335.657 7.5C335.377 7.15333 334.937 6.98 334.337 6.98C333.603 6.98 333.017 7.21333 332.577 7.68C332.15 8.13333 331.937 8.74 331.937 9.5V13.88C331.937 14.7333 331.517 15.16 330.677 15.16ZM347.806 15.16C347.406 15.16 347.099 15.0533 346.886 14.84C346.672 14.6133 346.566 14.2933 346.566 13.88V6.32C346.566 5.90667 346.672 5.59333 346.886 5.38C347.099 5.16667 347.399 5.06 347.786 5.06C348.172 5.06 348.472 5.16667 348.686 5.38C348.899 5.59333 349.006 5.90667 349.006 6.32V7.68L348.786 7.18C349.079 6.47333 349.532 5.94 350.146 5.58C350.772 5.20667 351.479 5.02 352.266 5.02C353.052 5.02 353.699 5.16667 354.206 5.46C354.712 5.75333 355.092 6.2 355.346 6.8C355.599 7.38667 355.726 8.13333 355.726 9.04V13.88C355.726 14.2933 355.619 14.6133 355.406 14.84C355.192 15.0533 354.886 15.16 354.486 15.16C354.086 15.16 353.772 15.0533 353.546 14.84C353.332 14.6133 353.226 14.2933 353.226 13.88V9.16C353.226 8.4 353.079 7.84667 352.786 7.5C352.506 7.15333 352.066 6.98 351.466 6.98C350.732 6.98 350.146 7.21333 349.706 7.68C349.279 8.13333 349.066 8.74 349.066 9.5V13.88C349.066 14.7333 348.646 15.16 347.806 15.16ZM363.085 15.2C361.978 15.2 361.025 14.9933 360.225 14.58C359.425 14.1667 358.805 13.58 358.365 12.82C357.938 12.06 357.725 11.16 357.725 10.12C357.725 9.10667 357.932 8.22 358.345 7.46C358.772 6.7 359.352 6.10667 360.085 5.68C360.832 5.24 361.678 5.02 362.625 5.02C363.318 5.02 363.938 5.13333 364.485 5.36C365.045 5.58667 365.518 5.91333 365.905 6.34C366.305 6.76667 366.605 7.28667 366.805 7.9C367.018 8.5 367.125 9.18 367.125 9.94C367.125 10.18 367.038 10.3667 366.865 10.5C366.705 10.62 366.472 10.68 366.165 10.68H359.745V9.24H365.365L365.045 9.54C365.045 8.92667 364.952 8.41333 364.765 8C364.592 7.58667 364.332 7.27333 363.985 7.06C363.652 6.83333 363.232 6.72 362.725 6.72C362.165 6.72 361.685 6.85333 361.285 7.12C360.898 7.37333 360.598 7.74 360.385 8.22C360.185 8.68667 360.085 9.24667 360.085 9.9V10.04C360.085 11.1333 360.338 11.9533 360.845 12.5C361.365 13.0333 362.125 13.3 363.125 13.3C363.472 13.3 363.858 13.26 364.285 13.18C364.725 13.0867 365.138 12.9333 365.525 12.72C365.805 12.56 366.052 12.4933 366.265 12.52C366.478 12.5333 366.645 12.6067 366.765 12.74C366.898 12.8733 366.978 13.04 367.005 13.24C367.032 13.4267 366.992 13.62 366.885 13.82C366.792 14.02 366.625 14.1933 366.385 14.34C365.918 14.6333 365.378 14.8533 364.765 15C364.165 15.1333 363.605 15.2 363.085 15.2ZM373.665 18.8C372.945 18.8 372.245 18.7333 371.565 18.6C370.898 18.4667 370.291 18.26 369.745 17.98C369.491 17.8467 369.318 17.6867 369.225 17.5C369.145 17.3133 369.118 17.12 369.145 16.92C369.185 16.7333 369.265 16.5667 369.385 16.42C369.518 16.2733 369.678 16.1733 369.865 16.12C370.051 16.0667 370.245 16.0933 370.445 16.2C371.031 16.4933 371.585 16.68 372.105 16.76C372.638 16.8533 373.091 16.9 373.465 16.9C374.358 16.9 375.025 16.68 375.465 16.24C375.918 15.8133 376.145 15.1733 376.145 14.32V12.52H376.325C376.125 13.2 375.705 13.7467 375.065 14.16C374.438 14.56 373.725 14.76 372.925 14.76C372.045 14.76 371.278 14.56 370.625 14.16C369.971 13.7467 369.465 13.1733 369.105 12.44C368.745 11.7067 368.565 10.8533 368.565 9.88C368.565 9.14667 368.665 8.48667 368.865 7.9C369.078 7.3 369.371 6.78667 369.745 6.36C370.131 5.93333 370.591 5.60667 371.125 5.38C371.671 5.14 372.271 5.02 372.925 5.02C373.751 5.02 374.471 5.22667 375.085 5.64C375.711 6.04 376.118 6.57333 376.305 7.24L376.105 7.74V6.32C376.105 5.90667 376.211 5.59333 376.425 5.38C376.651 5.16667 376.958 5.06 377.345 5.06C377.745 5.06 378.051 5.16667 378.265 5.38C378.478 5.59333 378.585 5.90667 378.585 6.32V14.02C378.585 15.6067 378.165 16.8 377.325 17.6C376.485 18.4 375.265 18.8 373.665 18.8ZM373.605 12.86C374.125 12.86 374.571 12.74 374.945 12.5C375.318 12.26 375.605 11.92 375.805 11.48C376.018 11.0267 376.125 10.4933 376.125 9.88C376.125 8.96 375.898 8.24 375.445 7.72C374.991 7.18667 374.378 6.92 373.605 6.92C373.085 6.92 372.638 7.04 372.265 7.28C371.891 7.52 371.598 7.86 371.385 8.3C371.185 8.74 371.085 9.26667 371.085 9.88C371.085 10.8 371.311 11.5267 371.765 12.06C372.218 12.5933 372.831 12.86 373.605 12.86ZM384.395 15.2C383.688 15.2 383.055 15.0667 382.495 14.8C381.948 14.52 381.515 14.1467 381.195 13.68C380.888 13.2133 380.735 12.6867 380.735 12.1C380.735 11.38 380.922 10.8133 381.295 10.4C381.668 9.97333 382.275 9.66667 383.115 9.48C383.955 9.29333 385.082 9.2 386.495 9.2H387.495V10.64H386.515C385.688 10.64 385.028 10.68 384.535 10.76C384.042 10.84 383.688 10.98 383.475 11.18C383.275 11.3667 383.175 11.6333 383.175 11.98C383.175 12.42 383.328 12.78 383.635 13.06C383.942 13.34 384.368 13.48 384.915 13.48C385.355 13.48 385.742 13.38 386.075 13.18C386.422 12.9667 386.695 12.68 386.895 12.32C387.095 11.96 387.195 11.5467 387.195 11.08V8.78C387.195 8.11333 387.048 7.63333 386.755 7.34C386.462 7.04667 385.968 6.9 385.275 6.9C384.888 6.9 384.468 6.94667 384.015 7.04C383.575 7.13333 383.108 7.29333 382.615 7.52C382.362 7.64 382.135 7.67333 381.935 7.62C381.748 7.56667 381.602 7.46 381.495 7.3C381.388 7.12667 381.335 6.94 381.335 6.74C381.335 6.54 381.388 6.34667 381.495 6.16C381.602 5.96 381.782 5.81333 382.035 5.72C382.648 5.46667 383.235 5.28667 383.795 5.18C384.368 5.07333 384.888 5.02 385.355 5.02C386.315 5.02 387.102 5.16667 387.715 5.46C388.342 5.75333 388.808 6.2 389.115 6.8C389.422 7.38667 389.575 8.14667 389.575 9.08V13.88C389.575 14.2933 389.475 14.6133 389.275 14.84C389.075 15.0533 388.788 15.16 388.415 15.16C388.042 15.16 387.748 15.0533 387.535 14.84C387.335 14.6133 387.235 14.2933 387.235 13.88V12.92H387.395C387.302 13.3867 387.115 13.7933 386.835 14.14C386.568 14.4733 386.228 14.7333 385.815 14.92C385.402 15.1067 384.928 15.2 384.395 15.2ZM396.593 15.2C395.726 15.2 394.999 15.0533 394.413 14.76C393.839 14.4667 393.413 14.04 393.133 13.48C392.853 12.9067 392.713 12.2 392.713 11.36V7.1H391.673C391.353 7.1 391.106 7.02 390.933 6.86C390.759 6.68667 390.672 6.45333 390.672 6.16C390.672 5.85333 390.759 5.62 390.933 5.46C391.106 5.3 391.353 5.22 391.673 5.22H392.713V3.4C392.713 2.98667 392.819 2.67333 393.033 2.46C393.259 2.24667 393.573 2.14 393.973 2.14C394.373 2.14 394.679 2.24667 394.893 2.46C395.106 2.67333 395.213 2.98667 395.213 3.4V5.22H397.333C397.653 5.22 397.899 5.3 398.073 5.46C398.246 5.62 398.333 5.85333 398.333 6.16C398.333 6.45333 398.246 6.68667 398.073 6.86C397.899 7.02 397.653 7.1 397.333 7.1H395.213V11.22C395.213 11.86 395.353 12.34 395.633 12.66C395.913 12.98 396.366 13.14 396.993 13.14C397.219 13.14 397.419 13.12 397.593 13.08C397.766 13.04 397.919 13.0133 398.053 13C398.213 12.9867 398.346 13.04 398.453 13.16C398.559 13.2667 398.613 13.4933 398.613 13.84C398.613 14.1067 398.566 14.3467 398.473 14.56C398.393 14.76 398.239 14.9 398.013 14.98C397.839 15.0333 397.613 15.08 397.333 15.12C397.053 15.1733 396.806 15.2 396.593 15.2ZM401.282 15.14C400.882 15.14 400.576 15.02 400.362 14.78C400.149 14.54 400.042 14.2067 400.042 13.78V6.44C400.042 6 400.149 5.66667 400.362 5.44C400.576 5.2 400.882 5.08 401.282 5.08C401.682 5.08 401.989 5.2 402.202 5.44C402.429 5.66667 402.542 6 402.542 6.44V13.78C402.542 14.2067 402.436 14.54 402.222 14.78C402.009 15.02 401.696 15.14 401.282 15.14ZM401.282 3.22C400.816 3.22 400.449 3.10667 400.182 2.88C399.929 2.64 399.802 2.31333 399.802 1.9C399.802 1.47333 399.929 1.14667 400.182 0.919999C400.449 0.693333 400.816 0.58 401.282 0.58C401.762 0.58 402.129 0.693333 402.382 0.919999C402.636 1.14667 402.762 1.47333 402.762 1.9C402.762 2.31333 402.636 2.64 402.382 2.88C402.129 3.10667 401.762 3.22 401.282 3.22ZM409.1 15.16C408.767 15.16 408.473 15.0733 408.22 14.9C407.98 14.7267 407.78 14.46 407.62 14.1L404.44 6.72C404.32 6.42667 404.273 6.15333 404.3 5.9C404.34 5.64667 404.46 5.44667 404.66 5.3C404.873 5.14 405.16 5.06 405.52 5.06C405.827 5.06 406.073 5.13333 406.26 5.28C406.447 5.41333 406.613 5.67333 406.76 6.06L409.46 12.8H408.86L411.64 6.04C411.787 5.66667 411.953 5.41333 412.14 5.28C412.34 5.13333 412.607 5.06 412.94 5.06C413.233 5.06 413.467 5.14 413.64 5.3C413.813 5.44667 413.92 5.64667 413.96 5.9C414 6.14 413.953 6.40667 413.82 6.7L410.58 14.1C410.433 14.46 410.233 14.7267 409.98 14.9C409.74 15.0733 409.447 15.16 409.1 15.16ZM420.311 15.2C419.205 15.2 418.251 14.9933 417.451 14.58C416.651 14.1667 416.031 13.58 415.591 12.82C415.165 12.06 414.951 11.16 414.951 10.12C414.951 9.10667 415.158 8.22 415.571 7.46C415.998 6.7 416.578 6.10667 417.311 5.68C418.058 5.24 418.905 5.02 419.851 5.02C420.545 5.02 421.165 5.13333 421.711 5.36C422.271 5.58667 422.745 5.91333 423.131 6.34C423.531 6.76667 423.831 7.28667 424.031 7.9C424.245 8.5 424.351 9.18 424.351 9.94C424.351 10.18 424.265 10.3667 424.091 10.5C423.931 10.62 423.698 10.68 423.391 10.68H416.971V9.24H422.591L422.271 9.54C422.271 8.92667 422.178 8.41333 421.991 8C421.818 7.58667 421.558 7.27333 421.211 7.06C420.878 6.83333 420.458 6.72 419.951 6.72C419.391 6.72 418.911 6.85333 418.511 7.12C418.125 7.37333 417.825 7.74 417.611 8.22C417.411 8.68667 417.311 9.24667 417.311 9.9V10.04C417.311 11.1333 417.565 11.9533 418.071 12.5C418.591 13.0333 419.351 13.3 420.351 13.3C420.698 13.3 421.085 13.26 421.511 13.18C421.951 13.0867 422.365 12.9333 422.751 12.72C423.031 12.56 423.278 12.4933 423.491 12.52C423.705 12.5333 423.871 12.6067 423.991 12.74C424.125 12.8733 424.205 13.04 424.231 13.24C424.258 13.4267 424.218 13.62 424.111 13.82C424.018 14.02 423.851 14.1933 423.611 14.34C423.145 14.6333 422.605 14.8533 421.991 15C421.391 15.1333 420.831 15.2 420.311 15.2ZM435.341 15.2C434.768 15.2 434.161 15.14 433.521 15.02C432.881 14.9 432.308 14.6933 431.801 14.4C431.588 14.2667 431.434 14.1133 431.341 13.94C431.261 13.7533 431.228 13.5733 431.241 13.4C431.268 13.2133 431.334 13.0533 431.441 12.92C431.561 12.7867 431.708 12.7 431.881 12.66C432.068 12.62 432.268 12.6533 432.481 12.76C433.014 13.0133 433.514 13.1933 433.981 13.3C434.448 13.3933 434.908 13.44 435.361 13.44C436.001 13.44 436.474 13.3333 436.781 13.12C437.101 12.8933 437.261 12.6 437.261 12.24C437.261 11.9333 437.154 11.7 436.941 11.54C436.741 11.3667 436.434 11.24 436.021 11.16L434.021 10.78C433.194 10.62 432.561 10.32 432.121 9.88C431.694 9.42667 431.481 8.84667 431.481 8.14C431.481 7.5 431.654 6.94667 432.001 6.48C432.361 6.01333 432.854 5.65333 433.481 5.4C434.108 5.14667 434.828 5.02 435.641 5.02C436.228 5.02 436.774 5.08667 437.281 5.22C437.801 5.34 438.301 5.53333 438.781 5.8C438.981 5.90667 439.114 6.04667 439.181 6.22C439.261 6.39333 439.281 6.57333 439.241 6.76C439.201 6.93333 439.121 7.09333 439.001 7.24C438.881 7.37333 438.728 7.46 438.541 7.5C438.368 7.52667 438.168 7.48667 437.941 7.38C437.528 7.16667 437.128 7.01333 436.741 6.92C436.368 6.82667 436.008 6.78 435.661 6.78C435.008 6.78 434.521 6.89333 434.201 7.12C433.894 7.34667 433.741 7.64667 433.741 8.02C433.741 8.3 433.834 8.53333 434.021 8.72C434.208 8.90667 434.494 9.03333 434.881 9.1L436.881 9.48C437.748 9.64 438.401 9.93333 438.841 10.36C439.294 10.7867 439.521 11.36 439.521 12.08C439.521 13.0533 439.141 13.82 438.381 14.38C437.621 14.9267 436.608 15.2 435.341 15.2ZM444.867 15.2C443.76 15.2 442.927 14.8867 442.367 14.26C441.807 13.62 441.527 12.6867 441.527 11.46V2C441.527 1.58667 441.633 1.27333 441.847 1.06C442.06 0.846666 442.367 0.739999 442.767 0.739999C443.167 0.739999 443.473 0.846666 443.687 1.06C443.913 1.27333 444.027 1.58667 444.027 2V11.34C444.027 11.9533 444.153 12.4067 444.407 12.7C444.673 12.9933 445.047 13.14 445.527 13.14C445.633 13.14 445.733 13.14 445.827 13.14C445.92 13.1267 446.013 13.1133 446.107 13.1C446.293 13.0733 446.42 13.1267 446.487 13.26C446.553 13.38 446.587 13.6333 446.587 14.02C446.587 14.3533 446.52 14.6133 446.387 14.8C446.253 14.9867 446.033 15.1 445.727 15.14C445.593 15.1533 445.453 15.1667 445.307 15.18C445.16 15.1933 445.013 15.2 444.867 15.2ZM452.276 15.2C451.262 15.2 450.382 14.9933 449.636 14.58C448.889 14.1667 448.309 13.58 447.896 12.82C447.482 12.0467 447.276 11.14 447.276 10.1C447.276 9.31333 447.389 8.61333 447.616 8C447.856 7.37333 448.196 6.84 448.636 6.4C449.076 5.94667 449.602 5.60667 450.216 5.38C450.829 5.14 451.516 5.02 452.276 5.02C453.289 5.02 454.169 5.22667 454.916 5.64C455.662 6.05333 456.242 6.64 456.656 7.4C457.069 8.16 457.276 9.06 457.276 10.1C457.276 10.8867 457.156 11.5933 456.916 12.22C456.689 12.8467 456.356 13.3867 455.916 13.84C455.476 14.28 454.949 14.62 454.336 14.86C453.722 15.0867 453.036 15.2 452.276 15.2ZM452.276 13.3C452.769 13.3 453.202 13.18 453.576 12.94C453.949 12.7 454.236 12.3467 454.436 11.88C454.649 11.4 454.756 10.8067 454.756 10.1C454.756 9.03333 454.529 8.24 454.076 7.72C453.622 7.18667 453.022 6.92 452.276 6.92C451.782 6.92 451.349 7.04 450.976 7.28C450.602 7.50667 450.309 7.86 450.096 8.34C449.896 8.80667 449.796 9.39333 449.796 10.1C449.796 11.1533 450.022 11.9533 450.476 12.5C450.929 13.0333 451.529 13.3 452.276 13.3ZM460.579 18.76C460.179 18.76 459.872 18.6533 459.659 18.44C459.446 18.2267 459.339 17.9133 459.339 17.5V6.32C459.339 5.90667 459.446 5.59333 459.659 5.38C459.872 5.16667 460.172 5.06 460.559 5.06C460.959 5.06 461.266 5.16667 461.479 5.38C461.692 5.59333 461.799 5.90667 461.799 6.32V7.88L461.579 7.28C461.779 6.6 462.186 6.05333 462.799 5.64C463.426 5.22667 464.152 5.02 464.979 5.02C465.832 5.02 466.579 5.22667 467.219 5.64C467.872 6.05333 468.379 6.64 468.739 7.4C469.099 8.14667 469.279 9.04667 469.279 10.1C469.279 11.14 469.099 12.0467 468.739 12.82C468.379 13.58 467.879 14.1667 467.239 14.58C466.599 14.9933 465.846 15.2 464.979 15.2C464.166 15.2 463.452 15 462.839 14.6C462.226 14.1867 461.812 13.6533 461.599 13H461.839V17.5C461.839 17.9133 461.726 18.2267 461.499 18.44C461.286 18.6533 460.979 18.76 460.579 18.76ZM464.279 13.3C464.772 13.3 465.206 13.18 465.579 12.94C465.952 12.7 466.239 12.3467 466.439 11.88C466.652 11.4 466.759 10.8067 466.759 10.1C466.759 9.03333 466.532 8.24 466.079 7.72C465.626 7.18667 465.026 6.92 464.279 6.92C463.786 6.92 463.352 7.04 462.979 7.28C462.606 7.50667 462.312 7.86 462.099 8.34C461.899 8.80667 461.799 9.39333 461.799 10.1C461.799 11.1533 462.026 11.9533 462.479 12.5C462.932 13.0333 463.532 13.3 464.279 13.3ZM476.151 15.2C475.045 15.2 474.091 14.9933 473.291 14.58C472.491 14.1667 471.871 13.58 471.431 12.82C471.005 12.06 470.791 11.16 470.791 10.12C470.791 9.10667 470.998 8.22 471.411 7.46C471.838 6.7 472.418 6.10667 473.151 5.68C473.898 5.24 474.745 5.02 475.691 5.02C476.385 5.02 477.005 5.13333 477.551 5.36C478.111 5.58667 478.585 5.91333 478.971 6.34C479.371 6.76667 479.671 7.28667 479.871 7.9C480.085 8.5 480.191 9.18 480.191 9.94C480.191 10.18 480.105 10.3667 479.931 10.5C479.771 10.62 479.538 10.68 479.231 10.68H472.811V9.24H478.431L478.111 9.54C478.111 8.92667 478.018 8.41333 477.831 8C477.658 7.58667 477.398 7.27333 477.051 7.06C476.718 6.83333 476.298 6.72 475.791 6.72C475.231 6.72 474.751 6.85333 474.351 7.12C473.965 7.37333 473.665 7.74 473.451 8.22C473.251 8.68667 473.151 9.24667 473.151 9.9V10.04C473.151 11.1333 473.405 11.9533 473.911 12.5C474.431 13.0333 475.191 13.3 476.191 13.3C476.538 13.3 476.925 13.26 477.351 13.18C477.791 13.0867 478.205 12.9333 478.591 12.72C478.871 12.56 479.118 12.4933 479.331 12.52C479.545 12.5333 479.711 12.6067 479.831 12.74C479.965 12.8733 480.045 13.04 480.071 13.24C480.098 13.4267 480.058 13.62 479.951 13.82C479.858 14.02 479.691 14.1933 479.451 14.34C478.985 14.6333 478.445 14.8533 477.831 15C477.231 15.1333 476.671 15.2 476.151 15.2ZM483.371 15.1C482.918 15.1 482.551 14.96 482.271 14.68C482.004 14.4 481.871 14.04 481.871 13.6C481.871 13.1733 482.004 12.8267 482.271 12.56C482.551 12.28 482.918 12.14 483.371 12.14C483.838 12.14 484.198 12.28 484.451 12.56C484.718 12.8267 484.851 13.1733 484.851 13.6C484.851 14.04 484.718 14.4 484.451 14.68C484.198 14.96 483.838 15.1 483.371 15.1Z" fill="#444444"/>
</svg>
