<svg width="214" height="60" viewBox="0 0 214 60" fill="none" xmlns="http://www.w3.org/2000/svg">
<rect x="0.5" width="213" height="60" rx="10" fill="#1A1A1A"/>
<path d="M36.5 22.5C41.5 22.5 45.77 25.61 47.5 30C45.77 34.39 41.5 37.5 36.5 37.5C36.14 37.5 35.78 37.5 35.42 37.45C35.4714 37.1359 35.4982 36.8183 35.5 36.5C35.5 35.94 35.42 35.38 35.26 34.84C35.67 34.94 36.08 35 36.5 35C39.26 35 41.5 32.76 41.5 30C41.5 27.24 39.26 25 36.5 25C33.74 25 31.5 27.24 31.5 30C31.5 30.29 31.53 30.59 31.58 30.88C30.92 30.63 30.21 30.5 29.5 30.5C28.33 30.5 27.19 30.84 26.21 31.5C25.94 31 25.7 30.5 25.5 30C27.23 25.61 31.5 22.5 36.5 22.5ZM36.5 27C38.16 27 39.5 28.34 39.5 30C39.5 31.66 38.16 33 36.5 33C34.84 33 33.5 31.66 33.5 30C33.5 28.34 34.84 27 36.5 27ZM30.5 33V35H26.5V37H30.5V39L33.5 36L30.5 33Z" fill="white"/>
<g clip-path="url(#clip0_408_78381)">
<path d="M69.5016 38.192C69.0696 38.192 68.7096 38.096 68.4216 37.904C68.1496 37.696 67.9256 37.392 67.7496 36.992L61.4856 22.928C61.3096 22.528 61.2616 22.176 61.3416 21.872C61.4216 21.568 61.5896 21.328 61.8456 21.152C62.1016 20.976 62.4056 20.888 62.7576 20.888C63.2216 20.888 63.5656 20.992 63.7896 21.2C64.0296 21.392 64.2296 21.688 64.3896 22.088L70.0776 35.264H69.0456L74.7096 22.064C74.8856 21.68 75.0936 21.392 75.3336 21.2C75.5736 20.992 75.9096 20.888 76.3416 20.888C76.6936 20.888 76.9816 20.976 77.2056 21.152C77.4456 21.328 77.5976 21.568 77.6616 21.872C77.7256 22.176 77.6696 22.528 77.4936 22.928L71.2296 36.992C71.0536 37.392 70.8296 37.696 70.5576 37.904C70.3016 38.096 69.9496 38.192 69.5016 38.192ZM82.2863 38.168C81.8063 38.168 81.4383 38.024 81.1823 37.736C80.9263 37.448 80.7983 37.048 80.7983 36.536V27.728C80.7983 27.2 80.9263 26.8 81.1823 26.528C81.4383 26.24 81.8063 26.096 82.2863 26.096C82.7663 26.096 83.1343 26.24 83.3903 26.528C83.6623 26.8 83.7983 27.2 83.7983 27.728V36.536C83.7983 37.048 83.6703 37.448 83.4143 37.736C83.1583 38.024 82.7823 38.168 82.2863 38.168ZM82.2863 23.864C81.7263 23.864 81.2863 23.728 80.9663 23.456C80.6623 23.168 80.5103 22.776 80.5103 22.28C80.5103 21.768 80.6623 21.376 80.9663 21.104C81.2863 20.832 81.7263 20.696 82.2863 20.696C82.8623 20.696 83.3023 20.832 83.6063 21.104C83.9103 21.376 84.0623 21.768 84.0623 22.28C84.0623 22.776 83.9103 23.168 83.6063 23.456C83.3023 23.728 82.8623 23.864 82.2863 23.864ZM92.6995 38.24C91.3715 38.24 90.2275 37.992 89.2675 37.496C88.3075 37 87.5635 36.296 87.0355 35.384C86.5235 34.472 86.2675 33.392 86.2675 32.144C86.2675 30.928 86.5155 29.864 87.0115 28.952C87.5235 28.04 88.2195 27.328 89.0995 26.816C89.9955 26.288 91.0115 26.024 92.1475 26.024C92.9795 26.024 93.7235 26.16 94.3795 26.432C95.0515 26.704 95.6195 27.096 96.0835 27.608C96.5635 28.12 96.9235 28.744 97.1635 29.48C97.4195 30.2 97.5475 31.016 97.5475 31.928C97.5475 32.216 97.4435 32.44 97.2355 32.6C97.0435 32.744 96.7635 32.816 96.3955 32.816H88.6915V31.088H95.4355L95.0515 31.448C95.0515 30.712 94.9395 30.096 94.7155 29.6C94.5075 29.104 94.1955 28.728 93.7795 28.472C93.3795 28.2 92.8755 28.064 92.2675 28.064C91.5955 28.064 91.0195 28.224 90.5395 28.544C90.0755 28.848 89.7155 29.288 89.4595 29.864C89.2195 30.424 89.0995 31.096 89.0995 31.88V32.048C89.0995 33.36 89.4035 34.344 90.0115 35C90.6355 35.64 91.5475 35.96 92.7475 35.96C93.1635 35.96 93.6275 35.912 94.1395 35.816C94.6675 35.704 95.1635 35.52 95.6275 35.264C95.9635 35.072 96.2595 34.992 96.5155 35.024C96.7715 35.04 96.9715 35.128 97.1155 35.288C97.2755 35.448 97.3715 35.648 97.4035 35.888C97.4355 36.112 97.3875 36.344 97.2595 36.584C97.1475 36.824 96.9475 37.032 96.6595 37.208C96.0995 37.56 95.4515 37.824 94.7155 38C93.9955 38.16 93.3235 38.24 92.6995 38.24ZM104.272 38.192C103.872 38.192 103.528 38.096 103.24 37.904C102.952 37.696 102.72 37.376 102.544 36.944L99.0638 28.064C98.9198 27.68 98.8718 27.344 98.9198 27.056C98.9838 26.752 99.1358 26.512 99.3758 26.336C99.6158 26.16 99.9358 26.072 100.336 26.072C100.688 26.072 100.976 26.16 101.2 26.336C101.424 26.496 101.616 26.808 101.776 27.272L104.68 35.264H104.128L107.128 27.08C107.256 26.728 107.424 26.472 107.632 26.312C107.856 26.152 108.144 26.072 108.496 26.072C108.848 26.072 109.136 26.16 109.36 26.336C109.584 26.496 109.752 26.744 109.864 27.08L112.816 35.264H112.312L115.24 27.2C115.4 26.768 115.6 26.472 115.84 26.312C116.096 26.152 116.376 26.072 116.68 26.072C117.064 26.072 117.36 26.168 117.568 26.36C117.776 26.552 117.896 26.8 117.928 27.104C117.96 27.392 117.904 27.712 117.76 28.064L114.304 36.944C114.144 37.36 113.912 37.672 113.608 37.88C113.32 38.088 112.976 38.192 112.576 38.192C112.176 38.192 111.824 38.088 111.52 37.88C111.232 37.672 111.008 37.36 110.848 36.944L107.704 28.616H109.072L106 36.92C105.84 37.352 105.616 37.672 105.328 37.88C105.04 38.088 104.688 38.192 104.272 38.192ZM132.832 38.24C132.128 38.24 131.424 38.184 130.72 38.072C130.016 37.976 129.352 37.824 128.728 37.616C128.104 37.392 127.544 37.12 127.048 36.8C126.76 36.608 126.56 36.376 126.448 36.104C126.336 35.832 126.296 35.568 126.328 35.312C126.376 35.04 126.48 34.808 126.64 34.616C126.816 34.408 127.032 34.28 127.288 34.232C127.544 34.184 127.824 34.256 128.128 34.448C128.832 34.864 129.576 35.168 130.36 35.36C131.144 35.552 131.968 35.648 132.832 35.648C134.096 35.648 135.016 35.44 135.592 35.024C136.168 34.592 136.456 34.04 136.456 33.368C136.456 32.808 136.248 32.368 135.832 32.048C135.432 31.728 134.736 31.464 133.744 31.256L131.104 30.704C129.584 30.384 128.448 29.848 127.696 29.096C126.96 28.328 126.592 27.32 126.592 26.072C126.592 25.288 126.752 24.576 127.072 23.936C127.392 23.296 127.84 22.744 128.416 22.28C129.008 21.816 129.704 21.464 130.504 21.224C131.32 20.968 132.216 20.84 133.192 20.84C134.152 20.84 135.064 20.96 135.928 21.2C136.792 21.44 137.568 21.792 138.256 22.256C138.512 22.432 138.68 22.648 138.76 22.904C138.856 23.16 138.88 23.416 138.832 23.672C138.784 23.912 138.672 24.12 138.496 24.296C138.32 24.472 138.096 24.576 137.824 24.608C137.568 24.64 137.272 24.56 136.936 24.368C136.344 24.032 135.744 23.792 135.136 23.648C134.528 23.504 133.872 23.432 133.168 23.432C132.432 23.432 131.8 23.536 131.272 23.744C130.744 23.952 130.336 24.248 130.048 24.632C129.776 25 129.64 25.44 129.64 25.952C129.64 26.528 129.832 26.992 130.216 27.344C130.6 27.68 131.256 27.944 132.184 28.136L134.8 28.688C136.384 29.024 137.56 29.552 138.328 30.272C139.112 30.992 139.504 31.952 139.504 33.152C139.504 33.92 139.344 34.616 139.024 35.24C138.72 35.864 138.272 36.4 137.68 36.848C137.104 37.296 136.408 37.64 135.592 37.88C134.776 38.12 133.856 38.24 132.832 38.24ZM145.861 38.24C144.533 38.24 143.533 37.864 142.861 37.112C142.189 36.344 141.853 35.224 141.853 33.752V22.4C141.853 21.904 141.981 21.528 142.237 21.272C142.493 21.016 142.861 20.888 143.341 20.888C143.821 20.888 144.189 21.016 144.445 21.272C144.717 21.528 144.853 21.904 144.853 22.4V33.608C144.853 34.344 145.005 34.888 145.309 35.24C145.629 35.592 146.077 35.768 146.653 35.768C146.781 35.768 146.901 35.768 147.013 35.768C147.125 35.752 147.237 35.736 147.349 35.72C147.573 35.688 147.725 35.752 147.805 35.912C147.885 36.056 147.925 36.36 147.925 36.824C147.925 37.224 147.845 37.536 147.685 37.76C147.525 37.984 147.261 38.12 146.893 38.168C146.733 38.184 146.565 38.2 146.389 38.216C146.213 38.232 146.037 38.24 145.861 38.24ZM154.752 38.24C153.536 38.24 152.48 37.992 151.584 37.496C150.688 37 149.992 36.296 149.496 35.384C149 34.456 148.752 33.368 148.752 32.12C148.752 31.176 148.888 30.336 149.16 29.6C149.448 28.848 149.856 28.208 150.384 27.68C150.912 27.136 151.544 26.728 152.28 26.456C153.016 26.168 153.84 26.024 154.752 26.024C155.968 26.024 157.024 26.272 157.92 26.768C158.816 27.264 159.512 27.968 160.008 28.88C160.504 29.792 160.752 30.872 160.752 32.12C160.752 33.064 160.608 33.912 160.32 34.664C160.048 35.416 159.648 36.064 159.12 36.608C158.592 37.136 157.96 37.544 157.224 37.832C156.488 38.104 155.664 38.24 154.752 38.24ZM154.752 35.96C155.344 35.96 155.864 35.816 156.312 35.528C156.76 35.24 157.104 34.816 157.344 34.256C157.6 33.68 157.728 32.968 157.728 32.12C157.728 30.84 157.456 29.888 156.912 29.264C156.368 28.624 155.648 28.304 154.752 28.304C154.16 28.304 153.64 28.448 153.192 28.736C152.744 29.008 152.392 29.432 152.136 30.008C151.896 30.568 151.776 31.272 151.776 32.12C151.776 33.384 152.048 34.344 152.592 35C153.136 35.64 153.856 35.96 154.752 35.96ZM164.716 42.512C164.236 42.512 163.868 42.384 163.612 42.128C163.356 41.872 163.228 41.496 163.228 41V27.584C163.228 27.088 163.356 26.712 163.612 26.456C163.868 26.2 164.228 26.072 164.692 26.072C165.172 26.072 165.54 26.2 165.796 26.456C166.052 26.712 166.18 27.088 166.18 27.584V29.456L165.916 28.736C166.156 27.92 166.644 27.264 167.38 26.768C168.132 26.272 169.004 26.024 169.996 26.024C171.02 26.024 171.916 26.272 172.684 26.768C173.468 27.264 174.076 27.968 174.508 28.88C174.94 29.776 175.156 30.856 175.156 32.12C175.156 33.368 174.94 34.456 174.508 35.384C174.076 36.296 173.476 37 172.708 37.496C171.94 37.992 171.036 38.24 169.996 38.24C169.02 38.24 168.164 38 167.428 37.52C166.692 37.024 166.196 36.384 165.94 35.6H166.228V41C166.228 41.496 166.092 41.872 165.82 42.128C165.564 42.384 165.196 42.512 164.716 42.512ZM169.156 35.96C169.748 35.96 170.268 35.816 170.716 35.528C171.164 35.24 171.508 34.816 171.748 34.256C172.004 33.68 172.132 32.968 172.132 32.12C172.132 30.84 171.86 29.888 171.316 29.264C170.772 28.624 170.052 28.304 169.156 28.304C168.564 28.304 168.044 28.448 167.596 28.736C167.148 29.008 166.796 29.432 166.54 30.008C166.3 30.568 166.18 31.272 166.18 32.12C166.18 33.384 166.452 34.344 166.996 35C167.54 35.64 168.26 35.96 169.156 35.96ZM183.403 38.24C182.075 38.24 180.931 37.992 179.971 37.496C179.011 37 178.267 36.296 177.739 35.384C177.227 34.472 176.971 33.392 176.971 32.144C176.971 30.928 177.219 29.864 177.715 28.952C178.227 28.04 178.923 27.328 179.803 26.816C180.699 26.288 181.715 26.024 182.851 26.024C183.683 26.024 184.427 26.16 185.083 26.432C185.755 26.704 186.323 27.096 186.787 27.608C187.267 28.12 187.627 28.744 187.867 29.48C188.123 30.2 188.251 31.016 188.251 31.928C188.251 32.216 188.147 32.44 187.939 32.6C187.747 32.744 187.467 32.816 187.099 32.816H179.395V31.088H186.139L185.755 31.448C185.755 30.712 185.643 30.096 185.419 29.6C185.211 29.104 184.899 28.728 184.483 28.472C184.083 28.2 183.579 28.064 182.971 28.064C182.299 28.064 181.723 28.224 181.243 28.544C180.779 28.848 180.419 29.288 180.163 29.864C179.923 30.424 179.803 31.096 179.803 31.88V32.048C179.803 33.36 180.107 34.344 180.715 35C181.339 35.64 182.251 35.96 183.451 35.96C183.867 35.96 184.331 35.912 184.843 35.816C185.371 35.704 185.867 35.52 186.331 35.264C186.667 35.072 186.963 34.992 187.219 35.024C187.475 35.04 187.675 35.128 187.819 35.288C187.979 35.448 188.075 35.648 188.107 35.888C188.139 36.112 188.091 36.344 187.963 36.584C187.851 36.824 187.651 37.032 187.363 37.208C186.803 37.56 186.155 37.824 185.419 38C184.699 38.16 184.027 38.24 183.403 38.24Z" fill="white"/>
</g>
<defs>
<clipPath id="clip0_408_78381">
<rect width="129" height="28" fill="white" transform="translate(60.5 16)"/>
</clipPath>
</defs>
</svg>
