<svg width="268" height="43" viewBox="0 0 268 43" fill="none" xmlns="http://www.w3.org/2000/svg">
<path d="M5.816 24.112C5.61333 24.112 5.45333 24.0533 5.336 23.936C5.21867 23.808 5.16 23.6373 5.16 23.424V13.856H1.56C1.368 13.856 1.21867 13.8027 1.112 13.696C1.00533 13.5893 0.952 13.4507 0.952 13.28C0.952 13.0987 1.00533 12.96 1.112 12.864C1.21867 12.768 1.368 12.72 1.56 12.72H10.088C10.28 12.72 10.4293 12.768 10.536 12.864C10.6427 12.96 10.696 13.0987 10.696 13.28C10.696 13.4613 10.6427 13.6053 10.536 13.712C10.4293 13.808 10.28 13.856 10.088 13.856H6.488V23.424C6.488 23.6373 6.42933 23.808 6.312 23.936C6.20533 24.0533 6.04 24.112 5.816 24.112ZM13.8543 24.144C13.0969 24.144 12.4409 23.9787 11.8863 23.648C11.3316 23.3173 10.8996 22.8533 10.5903 22.256C10.2916 21.648 10.1423 20.9333 10.1423 20.112C10.1423 19.4933 10.2276 18.9387 10.3983 18.448C10.5689 17.9467 10.8196 17.52 11.1503 17.168C11.4809 16.816 11.8703 16.5493 12.3183 16.368C12.7769 16.176 13.2889 16.08 13.8543 16.08C14.6116 16.08 15.2676 16.2453 15.8223 16.576C16.3769 16.9067 16.8036 17.376 17.1023 17.984C17.4116 18.5813 17.5663 19.2907 17.5663 20.112C17.5663 20.7307 17.4809 21.2853 17.3103 21.776C17.1396 22.2667 16.8889 22.6933 16.5583 23.056C16.2276 23.408 15.8329 23.68 15.3743 23.872C14.9263 24.0533 14.4196 24.144 13.8543 24.144ZM13.8543 23.104C14.3343 23.104 14.7556 22.9867 15.1183 22.752C15.4809 22.5173 15.7583 22.176 15.9503 21.728C16.1529 21.28 16.2543 20.7413 16.2543 20.112C16.2543 19.1413 16.0356 18.4 15.5983 17.888C15.1716 17.376 14.5903 17.12 13.8543 17.12C13.3636 17.12 12.9369 17.2373 12.5743 17.472C12.2223 17.696 11.9449 18.032 11.7423 18.48C11.5503 18.9173 11.4543 19.4613 11.4543 20.112C11.4543 21.072 11.6729 21.8133 12.1103 22.336C12.5476 22.848 13.1289 23.104 13.8543 23.104ZM22.5548 24.144C21.9468 24.144 21.4348 24.0373 21.0188 23.824C20.6134 23.6 20.3094 23.28 20.1068 22.864C19.9041 22.4373 19.8028 21.92 19.8028 21.312V17.232H18.7308C18.5494 17.232 18.4108 17.1893 18.3148 17.104C18.2188 17.008 18.1707 16.88 18.1707 16.72C18.1707 16.56 18.2188 16.4373 18.3148 16.352C18.4108 16.2667 18.5494 16.224 18.7308 16.224H19.8028V14.384C19.8028 14.1707 19.8614 14.0107 19.9788 13.904C20.0961 13.7867 20.2561 13.728 20.4588 13.728C20.6614 13.728 20.8161 13.7867 20.9228 13.904C21.0401 14.0107 21.0988 14.1707 21.0988 14.384V16.224H23.1148C23.2961 16.224 23.4348 16.2667 23.5308 16.352C23.6268 16.4373 23.6748 16.56 23.6748 16.72C23.6748 16.88 23.6268 17.008 23.5308 17.104C23.4348 17.1893 23.2961 17.232 23.1148 17.232H21.0988V21.184C21.0988 21.792 21.2268 22.256 21.4828 22.576C21.7388 22.8853 22.1548 23.04 22.7308 23.04C22.9334 23.04 23.1041 23.0187 23.2428 22.976C23.3921 22.9333 23.5148 22.912 23.6108 22.912C23.7068 22.9013 23.7868 22.9333 23.8508 23.008C23.9148 23.0827 23.9468 23.2107 23.9468 23.392C23.9468 23.52 23.9201 23.6373 23.8668 23.744C23.8241 23.8507 23.7441 23.9253 23.6268 23.968C23.4988 24.0107 23.3281 24.048 23.1148 24.08C22.9121 24.1227 22.7254 24.144 22.5548 24.144ZM27.4765 24.144C26.9432 24.144 26.4632 24.0427 26.0365 23.84C25.6205 23.6267 25.2898 23.3387 25.0445 22.976C24.7992 22.6133 24.6765 22.208 24.6765 21.76C24.6765 21.184 24.8205 20.7307 25.1085 20.4C25.4072 20.0693 25.8925 19.8347 26.5645 19.696C27.2472 19.5573 28.1752 19.488 29.3485 19.488H30.0685V20.336H29.3645C28.5005 20.336 27.8178 20.3787 27.3165 20.464C26.8258 20.5387 26.4792 20.672 26.2765 20.864C26.0845 21.056 25.9885 21.328 25.9885 21.68C25.9885 22.1173 26.1378 22.4747 26.4365 22.752C26.7458 23.0293 27.1618 23.168 27.6845 23.168C28.1112 23.168 28.4845 23.0667 28.8045 22.864C29.1352 22.6613 29.3912 22.384 29.5725 22.032C29.7645 21.68 29.8605 21.2747 29.8605 20.816V18.992C29.8605 18.3307 29.7272 17.856 29.4605 17.568C29.1938 17.2693 28.7565 17.12 28.1485 17.12C27.7752 17.12 27.4018 17.168 27.0285 17.264C26.6552 17.36 26.2605 17.5147 25.8445 17.728C25.6952 17.8027 25.5672 17.8293 25.4605 17.808C25.3538 17.776 25.2685 17.7173 25.2045 17.632C25.1405 17.5467 25.1032 17.4507 25.0925 17.344C25.0818 17.2267 25.1032 17.1147 25.1565 17.008C25.2205 16.9013 25.3165 16.816 25.4445 16.752C25.9138 16.5173 26.3778 16.3467 26.8365 16.24C27.2952 16.1333 27.7325 16.08 28.1485 16.08C28.8205 16.08 29.3752 16.192 29.8125 16.416C30.2498 16.6293 30.5752 16.96 30.7885 17.408C31.0018 17.8453 31.1085 18.4107 31.1085 19.104V23.44C31.1085 23.6533 31.0552 23.8187 30.9485 23.936C30.8525 24.0533 30.7085 24.112 30.5165 24.112C30.3138 24.112 30.1592 24.0533 30.0525 23.936C29.9458 23.8187 29.8925 23.6533 29.8925 23.44V22.192H30.0365C29.9512 22.5973 29.7858 22.944 29.5405 23.232C29.3058 23.52 29.0125 23.744 28.6605 23.904C28.3085 24.064 27.9138 24.144 27.4765 24.144ZM35.8809 24.144C35.1129 24.144 34.5262 23.9093 34.1209 23.44C33.7155 22.9707 33.5129 22.2987 33.5129 21.424V13.264C33.5129 13.0507 33.5662 12.8907 33.6729 12.784C33.7795 12.6667 33.9395 12.608 34.1529 12.608C34.3555 12.608 34.5155 12.6667 34.6329 12.784C34.7502 12.8907 34.8089 13.0507 34.8089 13.264V21.328C34.8089 21.904 34.9209 22.336 35.1449 22.624C35.3795 22.9013 35.7209 23.04 36.1689 23.04C36.2649 23.04 36.3502 23.0347 36.4249 23.024C36.4995 23.0133 36.5742 23.008 36.6489 23.008C36.7662 22.9973 36.8462 23.024 36.8889 23.088C36.9422 23.152 36.9689 23.28 36.9689 23.472C36.9689 23.664 36.9262 23.808 36.8409 23.904C36.7555 24 36.6169 24.064 36.4249 24.096C36.3395 24.1067 36.2489 24.1173 36.1529 24.128C36.0569 24.1387 35.9662 24.144 35.8809 24.144ZM44.9963 24.144C44.5163 24.144 44.0309 24.0853 43.5403 23.968C43.0603 23.8507 42.6123 23.648 42.1963 23.36C42.0896 23.2853 42.0149 23.2 41.9723 23.104C41.9296 22.9973 41.9136 22.896 41.9243 22.8C41.9456 22.6933 41.9883 22.6027 42.0523 22.528C42.1269 22.4533 42.2123 22.4107 42.3083 22.4C42.4149 22.3787 42.5323 22.4 42.6603 22.464C43.0763 22.72 43.4763 22.9013 43.8603 23.008C44.2549 23.104 44.6443 23.152 45.0283 23.152C45.6363 23.152 46.0949 23.04 46.4043 22.816C46.7136 22.592 46.8683 22.288 46.8683 21.904C46.8683 21.6053 46.7669 21.3707 46.5643 21.2C46.3616 21.0187 46.0416 20.88 45.6043 20.784L44.1483 20.464C43.4763 20.3253 42.9749 20.0853 42.6443 19.744C42.3243 19.4027 42.1643 18.96 42.1643 18.416C42.1643 17.936 42.2869 17.5253 42.5323 17.184C42.7883 16.832 43.1456 16.56 43.6043 16.368C44.0629 16.176 44.5963 16.08 45.2043 16.08C45.6736 16.08 46.1163 16.144 46.5323 16.272C46.9589 16.3893 47.3429 16.5813 47.6843 16.848C47.7909 16.9227 47.8603 17.0133 47.8923 17.12C47.9349 17.216 47.9403 17.3173 47.9083 17.424C47.8869 17.52 47.8389 17.6053 47.7643 17.68C47.6896 17.744 47.5989 17.7813 47.4923 17.792C47.3856 17.8027 47.2736 17.7707 47.1563 17.696C46.8363 17.4827 46.5109 17.328 46.1803 17.232C45.8496 17.1253 45.5243 17.072 45.2043 17.072C44.6069 17.072 44.1536 17.1893 43.8443 17.424C43.5349 17.6587 43.3803 17.968 43.3803 18.352C43.3803 18.6507 43.4763 18.896 43.6683 19.088C43.8603 19.28 44.1589 19.4187 44.5643 19.504L46.0203 19.808C46.7136 19.9573 47.2309 20.1973 47.5723 20.528C47.9243 20.848 48.1003 21.2853 48.1003 21.84C48.1003 22.544 47.8176 23.104 47.2523 23.52C46.6869 23.936 45.9349 24.144 44.9963 24.144ZM52.8274 24.144C52.198 24.144 51.6754 24.032 51.2594 23.808C50.854 23.5733 50.5447 23.2267 50.3314 22.768C50.1287 22.3093 50.0274 21.7387 50.0274 21.056V16.768C50.0274 16.544 50.0807 16.3787 50.1874 16.272C50.3047 16.1653 50.4647 16.112 50.6674 16.112C50.8807 16.112 51.0407 16.1653 51.1474 16.272C51.2647 16.3787 51.3234 16.544 51.3234 16.768V21.04C51.3234 21.7227 51.462 22.2347 51.7394 22.576C52.0274 22.9067 52.4754 23.072 53.0834 23.072C53.7447 23.072 54.2834 22.848 54.6994 22.4C55.1154 21.952 55.3234 21.3653 55.3234 20.64V16.768C55.3234 16.544 55.3767 16.3787 55.4834 16.272C55.6007 16.1653 55.766 16.112 55.9794 16.112C56.182 16.112 56.3367 16.1653 56.4434 16.272C56.5607 16.3787 56.6194 16.544 56.6194 16.768V23.44C56.6194 23.888 56.4114 24.112 55.9954 24.112C55.7927 24.112 55.6327 24.0533 55.5154 23.936C55.4087 23.8187 55.3554 23.6533 55.3554 23.44V21.984L55.5634 22.208C55.35 22.8373 54.998 23.3173 54.5074 23.648C54.0274 23.9787 53.4674 24.144 52.8274 24.144ZM59.7001 24.112C59.4868 24.112 59.3215 24.0533 59.2041 23.936C59.0975 23.8187 59.0441 23.6533 59.0441 23.44V16.768C59.0441 16.5547 59.0975 16.3947 59.2041 16.288C59.3108 16.1707 59.4655 16.112 59.6681 16.112C59.8708 16.112 60.0255 16.1707 60.1321 16.288C60.2495 16.3947 60.3081 16.5547 60.3081 16.768V18.064H60.1481C60.3188 17.4347 60.6441 16.9493 61.1241 16.608C61.6041 16.2667 62.1961 16.0853 62.9001 16.064C63.0601 16.0533 63.1881 16.0907 63.2841 16.176C63.3801 16.2507 63.4335 16.384 63.4441 16.576C63.4548 16.7573 63.4121 16.9013 63.3161 17.008C63.2201 17.1147 63.0708 17.1787 62.8681 17.2L62.6121 17.232C61.8868 17.296 61.3268 17.5307 60.9321 17.936C60.5481 18.3307 60.3561 18.8747 60.3561 19.568V23.44C60.3561 23.6533 60.2975 23.8187 60.1801 23.936C60.0735 24.0533 59.9135 24.112 59.7001 24.112ZM66.2564 24.112C66.0537 24.112 65.8937 24.0533 65.7764 23.936C65.6697 23.8187 65.6164 23.6533 65.6164 23.44V17.232H64.5924C64.4217 17.232 64.283 17.1893 64.1764 17.104C64.0804 17.008 64.0324 16.88 64.0324 16.72C64.0324 16.56 64.0804 16.4373 64.1764 16.352C64.283 16.2667 64.4217 16.224 64.5924 16.224H65.9684L65.6164 16.56V15.952C65.6164 14.9387 65.8617 14.1653 66.3524 13.632C66.8537 13.0987 67.5844 12.7893 68.5444 12.704L69.0084 12.656C69.1577 12.6453 69.275 12.672 69.3604 12.736C69.4564 12.8 69.515 12.88 69.5364 12.976C69.5684 13.072 69.5737 13.1733 69.5524 13.28C69.531 13.376 69.483 13.4613 69.4084 13.536C69.3337 13.6107 69.243 13.6533 69.1364 13.664L68.7684 13.696C68.1177 13.7493 67.643 13.9467 67.3444 14.288C67.0564 14.6293 66.9124 15.1307 66.9124 15.792V16.464L66.7204 16.224H68.6404C68.8217 16.224 68.9604 16.2667 69.0564 16.352C69.1524 16.4373 69.2004 16.56 69.2004 16.72C69.2004 16.88 69.1524 17.008 69.0564 17.104C68.9604 17.1893 68.8217 17.232 68.6404 17.232H66.9124V23.44C66.9124 23.888 66.6937 24.112 66.2564 24.112ZM72.8984 24.144C72.365 24.144 71.885 24.0427 71.4584 23.84C71.0424 23.6267 70.7117 23.3387 70.4664 22.976C70.221 22.6133 70.0984 22.208 70.0984 21.76C70.0984 21.184 70.2424 20.7307 70.5304 20.4C70.829 20.0693 71.3144 19.8347 71.9864 19.696C72.669 19.5573 73.597 19.488 74.7704 19.488H75.4904V20.336H74.7864C73.9224 20.336 73.2397 20.3787 72.7384 20.464C72.2477 20.5387 71.901 20.672 71.6984 20.864C71.5064 21.056 71.4104 21.328 71.4104 21.68C71.4104 22.1173 71.5597 22.4747 71.8584 22.752C72.1677 23.0293 72.5837 23.168 73.1064 23.168C73.533 23.168 73.9064 23.0667 74.2264 22.864C74.557 22.6613 74.813 22.384 74.9944 22.032C75.1864 21.68 75.2824 21.2747 75.2824 20.816V18.992C75.2824 18.3307 75.149 17.856 74.8824 17.568C74.6157 17.2693 74.1784 17.12 73.5704 17.12C73.197 17.12 72.8237 17.168 72.4504 17.264C72.077 17.36 71.6824 17.5147 71.2664 17.728C71.117 17.8027 70.989 17.8293 70.8824 17.808C70.7757 17.776 70.6904 17.7173 70.6264 17.632C70.5624 17.5467 70.525 17.4507 70.5144 17.344C70.5037 17.2267 70.525 17.1147 70.5784 17.008C70.6424 16.9013 70.7384 16.816 70.8664 16.752C71.3357 16.5173 71.7997 16.3467 72.2584 16.24C72.717 16.1333 73.1544 16.08 73.5704 16.08C74.2424 16.08 74.797 16.192 75.2344 16.416C75.6717 16.6293 75.997 16.96 76.2104 17.408C76.4237 17.8453 76.5304 18.4107 76.5304 19.104V23.44C76.5304 23.6533 76.477 23.8187 76.3704 23.936C76.2744 24.0533 76.1304 24.112 75.9384 24.112C75.7357 24.112 75.581 24.0533 75.4744 23.936C75.3677 23.8187 75.3144 23.6533 75.3144 23.44V22.192H75.4584C75.373 22.5973 75.2077 22.944 74.9624 23.232C74.7277 23.52 74.4344 23.744 74.0824 23.904C73.7304 24.064 73.3357 24.144 72.8984 24.144ZM82.2308 24.144C81.4521 24.144 80.7801 23.9733 80.2148 23.632C79.6494 23.2907 79.2121 22.816 78.9028 22.208C78.6041 21.5893 78.4548 20.8747 78.4548 20.064C78.4548 19.4453 78.5401 18.8907 78.7108 18.4C78.8814 17.9093 79.1321 17.4933 79.4628 17.152C79.7934 16.8 80.1881 16.5333 80.6468 16.352C81.1161 16.1707 81.6441 16.08 82.2308 16.08C82.6148 16.08 83.0148 16.1387 83.4308 16.256C83.8468 16.3733 84.2254 16.576 84.5668 16.864C84.6734 16.9387 84.7428 17.0293 84.7748 17.136C84.8068 17.2427 84.8068 17.3493 84.7748 17.456C84.7428 17.552 84.6894 17.6373 84.6148 17.712C84.5401 17.776 84.4441 17.8133 84.3268 17.824C84.2201 17.8347 84.1081 17.7973 83.9908 17.712C83.7134 17.4987 83.4308 17.3493 83.1428 17.264C82.8548 17.1787 82.5774 17.136 82.3108 17.136C81.8948 17.136 81.5321 17.2053 81.2228 17.344C80.9134 17.472 80.6521 17.6587 80.4388 17.904C80.2254 18.1493 80.0601 18.4533 79.9428 18.816C79.8361 19.1787 79.7828 19.6 79.7828 20.08C79.7828 21.008 80.0014 21.744 80.4388 22.288C80.8761 22.8213 81.5001 23.088 82.3108 23.088C82.5774 23.088 82.8494 23.0453 83.1268 22.96C83.4148 22.8747 83.7028 22.7253 83.9908 22.512C84.1081 22.4267 84.2201 22.3893 84.3268 22.4C84.4334 22.4107 84.5241 22.4533 84.5988 22.528C84.6734 22.592 84.7214 22.6773 84.7428 22.784C84.7748 22.8907 84.7748 22.9973 84.7428 23.104C84.7108 23.2 84.6414 23.2853 84.5348 23.36C84.1934 23.6373 83.8201 23.84 83.4148 23.968C83.0094 24.0853 82.6148 24.144 82.2308 24.144ZM89.6888 24.144C88.8674 24.144 88.1581 23.984 87.5608 23.664C86.9741 23.3333 86.5154 22.8693 86.1848 22.272C85.8648 21.6747 85.7048 20.96 85.7048 20.128C85.7048 19.3173 85.8648 18.6133 86.1848 18.016C86.5048 17.408 86.9421 16.9333 87.4968 16.592C88.0621 16.2507 88.7128 16.08 89.4488 16.08C89.9714 16.08 90.4408 16.1707 90.8568 16.352C91.2728 16.5227 91.6248 16.7733 91.9128 17.104C92.2114 17.4347 92.4354 17.8347 92.5848 18.304C92.7448 18.7733 92.8248 19.3013 92.8248 19.888C92.8248 20.0587 92.7768 20.1867 92.6808 20.272C92.5848 20.3467 92.4461 20.384 92.2648 20.384H86.6968V19.536H91.9608L91.7048 19.744C91.7048 19.168 91.6194 18.6827 91.4488 18.288C91.2781 17.8827 91.0274 17.5733 90.6968 17.36C90.3768 17.1467 89.9714 17.04 89.4808 17.04C88.9368 17.04 88.4728 17.168 88.0888 17.424C87.7154 17.6693 87.4328 18.016 87.2408 18.464C87.0488 18.9013 86.9528 19.4133 86.9528 20V20.096C86.9528 21.0773 87.1874 21.824 87.6568 22.336C88.1368 22.848 88.8141 23.104 89.6888 23.104C90.0514 23.104 90.4088 23.056 90.7608 22.96C91.1234 22.864 91.4754 22.704 91.8168 22.48C91.9661 22.384 92.0994 22.3413 92.2168 22.352C92.3448 22.352 92.4461 22.3893 92.5208 22.464C92.5954 22.528 92.6434 22.6133 92.6648 22.72C92.6968 22.816 92.6861 22.9227 92.6328 23.04C92.5901 23.1573 92.4994 23.2587 92.3608 23.344C92.0088 23.6 91.5928 23.7973 91.1128 23.936C90.6328 24.0747 90.1581 24.144 89.6888 24.144ZM101.273 24.144C100.74 24.144 100.26 24.0427 99.8334 23.84C99.4174 23.6267 99.0867 23.3387 98.8414 22.976C98.596 22.6133 98.4734 22.208 98.4734 21.76C98.4734 21.184 98.6174 20.7307 98.9054 20.4C99.204 20.0693 99.6894 19.8347 100.361 19.696C101.044 19.5573 101.972 19.488 103.145 19.488H103.865V20.336H103.161C102.297 20.336 101.615 20.3787 101.113 20.464C100.623 20.5387 100.276 20.672 100.073 20.864C99.8814 21.056 99.7854 21.328 99.7854 21.68C99.7854 22.1173 99.9347 22.4747 100.233 22.752C100.543 23.0293 100.959 23.168 101.481 23.168C101.908 23.168 102.281 23.0667 102.601 22.864C102.932 22.6613 103.188 22.384 103.369 22.032C103.561 21.68 103.657 21.2747 103.657 20.816V18.992C103.657 18.3307 103.524 17.856 103.257 17.568C102.991 17.2693 102.553 17.12 101.945 17.12C101.572 17.12 101.199 17.168 100.825 17.264C100.452 17.36 100.057 17.5147 99.6414 17.728C99.492 17.8027 99.364 17.8293 99.2574 17.808C99.1507 17.776 99.0654 17.7173 99.0014 17.632C98.9374 17.5467 98.9 17.4507 98.8894 17.344C98.8787 17.2267 98.9 17.1147 98.9534 17.008C99.0174 16.9013 99.1134 16.816 99.2414 16.752C99.7107 16.5173 100.175 16.3467 100.633 16.24C101.092 16.1333 101.529 16.08 101.945 16.08C102.617 16.08 103.172 16.192 103.609 16.416C104.047 16.6293 104.372 16.96 104.585 17.408C104.799 17.8453 104.905 18.4107 104.905 19.104V23.44C104.905 23.6533 104.852 23.8187 104.745 23.936C104.649 24.0533 104.505 24.112 104.313 24.112C104.111 24.112 103.956 24.0533 103.849 23.936C103.743 23.8187 103.689 23.6533 103.689 23.44V22.192H103.833C103.748 22.5973 103.583 22.944 103.337 23.232C103.103 23.52 102.809 23.744 102.457 23.904C102.105 24.064 101.711 24.144 101.273 24.144ZM107.966 24.112C107.752 24.112 107.587 24.0533 107.47 23.936C107.363 23.8187 107.31 23.6533 107.31 23.44V16.768C107.31 16.5547 107.363 16.3947 107.47 16.288C107.576 16.1707 107.731 16.112 107.934 16.112C108.136 16.112 108.291 16.1707 108.398 16.288C108.515 16.3947 108.574 16.5547 108.574 16.768V18.064H108.414C108.584 17.4347 108.91 16.9493 109.39 16.608C109.87 16.2667 110.462 16.0853 111.166 16.064C111.326 16.0533 111.454 16.0907 111.55 16.176C111.646 16.2507 111.699 16.384 111.71 16.576C111.72 16.7573 111.678 16.9013 111.582 17.008C111.486 17.1147 111.336 17.1787 111.134 17.2L110.878 17.232C110.152 17.296 109.592 17.5307 109.198 17.936C108.814 18.3307 108.622 18.8747 108.622 19.568V23.44C108.622 23.6533 108.563 23.8187 108.446 23.936C108.339 24.0533 108.179 24.112 107.966 24.112ZM116.454 24.144C115.633 24.144 114.924 23.984 114.326 23.664C113.74 23.3333 113.281 22.8693 112.95 22.272C112.63 21.6747 112.47 20.96 112.47 20.128C112.47 19.3173 112.63 18.6133 112.95 18.016C113.27 17.408 113.708 16.9333 114.262 16.592C114.828 16.2507 115.478 16.08 116.214 16.08C116.737 16.08 117.206 16.1707 117.622 16.352C118.038 16.5227 118.39 16.7733 118.678 17.104C118.977 17.4347 119.201 17.8347 119.35 18.304C119.51 18.7733 119.59 19.3013 119.59 19.888C119.59 20.0587 119.542 20.1867 119.446 20.272C119.35 20.3467 119.212 20.384 119.03 20.384H113.462V19.536H118.726L118.47 19.744C118.47 19.168 118.385 18.6827 118.214 18.288C118.044 17.8827 117.793 17.5733 117.462 17.36C117.142 17.1467 116.737 17.04 116.246 17.04C115.702 17.04 115.238 17.168 114.854 17.424C114.481 17.6693 114.198 18.016 114.006 18.464C113.814 18.9013 113.718 19.4133 113.718 20V20.096C113.718 21.0773 113.953 21.824 114.422 22.336C114.902 22.848 115.58 23.104 116.454 23.104C116.817 23.104 117.174 23.056 117.526 22.96C117.889 22.864 118.241 22.704 118.582 22.48C118.732 22.384 118.865 22.3413 118.982 22.352C119.11 22.352 119.212 22.3893 119.286 22.464C119.361 22.528 119.409 22.6133 119.43 22.72C119.462 22.816 119.452 22.9227 119.398 23.04C119.356 23.1573 119.265 23.2587 119.126 23.344C118.774 23.6 118.358 23.7973 117.878 23.936C117.398 24.0747 116.924 24.144 116.454 24.144ZM123.914 24.144C123.381 24.144 122.901 24.0427 122.474 23.84C122.058 23.6267 121.727 23.3387 121.482 22.976C121.237 22.6133 121.114 22.208 121.114 21.76C121.114 21.184 121.258 20.7307 121.546 20.4C121.845 20.0693 122.33 19.8347 123.002 19.696C123.685 19.5573 124.613 19.488 125.786 19.488H126.506V20.336H125.802C124.938 20.336 124.255 20.3787 123.754 20.464C123.263 20.5387 122.917 20.672 122.714 20.864C122.522 21.056 122.426 21.328 122.426 21.68C122.426 22.1173 122.575 22.4747 122.874 22.752C123.183 23.0293 123.599 23.168 124.122 23.168C124.549 23.168 124.922 23.0667 125.242 22.864C125.573 22.6613 125.829 22.384 126.01 22.032C126.202 21.68 126.298 21.2747 126.298 20.816V18.992C126.298 18.3307 126.165 17.856 125.898 17.568C125.631 17.2693 125.194 17.12 124.586 17.12C124.213 17.12 123.839 17.168 123.466 17.264C123.093 17.36 122.698 17.5147 122.282 17.728C122.133 17.8027 122.005 17.8293 121.898 17.808C121.791 17.776 121.706 17.7173 121.642 17.632C121.578 17.5467 121.541 17.4507 121.53 17.344C121.519 17.2267 121.541 17.1147 121.594 17.008C121.658 16.9013 121.754 16.816 121.882 16.752C122.351 16.5173 122.815 16.3467 123.274 16.24C123.733 16.1333 124.17 16.08 124.586 16.08C125.258 16.08 125.813 16.192 126.25 16.416C126.687 16.6293 127.013 16.96 127.226 17.408C127.439 17.8453 127.546 18.4107 127.546 19.104V23.44C127.546 23.6533 127.493 23.8187 127.386 23.936C127.29 24.0533 127.146 24.112 126.954 24.112C126.751 24.112 126.597 24.0533 126.49 23.936C126.383 23.8187 126.33 23.6533 126.33 23.44V22.192H126.474C126.389 22.5973 126.223 22.944 125.978 23.232C125.743 23.52 125.45 23.744 125.098 23.904C124.746 24.064 124.351 24.144 123.914 24.144ZM134.155 18.304C133.995 18.304 133.867 18.2613 133.771 18.176C133.686 18.0907 133.643 17.968 133.643 17.808C133.643 17.648 133.686 17.5253 133.771 17.44C133.867 17.3547 133.995 17.312 134.155 17.312H141.163C141.323 17.312 141.446 17.3547 141.531 17.44C141.627 17.5253 141.675 17.648 141.675 17.808C141.675 17.968 141.627 18.0907 141.531 18.176C141.446 18.2613 141.323 18.304 141.163 18.304H134.155ZM134.155 21.488C133.995 21.488 133.867 21.4453 133.771 21.36C133.686 21.2747 133.643 21.152 133.643 20.992C133.643 20.832 133.686 20.7147 133.771 20.64C133.867 20.5547 133.995 20.512 134.155 20.512H141.163C141.323 20.512 141.446 20.5547 141.531 20.64C141.627 20.7147 141.675 20.832 141.675 20.992C141.675 21.1627 141.627 21.2907 141.531 21.376C141.446 21.4507 141.323 21.488 141.163 21.488H134.155Z" fill="#646464"/>
<path d="M179.173 25.112C178.96 25.112 178.794 25.0533 178.677 24.936C178.57 24.808 178.517 24.6373 178.517 24.424V14.392C178.517 14.168 178.576 14.0027 178.693 13.896C178.81 13.7787 178.976 13.72 179.189 13.72H182.981C184.186 13.72 185.114 14.0187 185.765 14.616C186.416 15.2027 186.741 16.0347 186.741 17.112C186.741 18.1787 186.416 19.0107 185.765 19.608C185.114 20.2053 184.186 20.504 182.981 20.504H179.829V24.424C179.829 24.6373 179.776 24.808 179.669 24.936C179.562 25.0533 179.397 25.112 179.173 25.112ZM179.829 19.4H182.821C183.685 19.4 184.336 19.208 184.773 18.824C185.221 18.4293 185.445 17.8587 185.445 17.112C185.445 16.3547 185.221 15.784 184.773 15.4C184.336 15.0053 183.685 14.808 182.821 14.808H179.829V19.4Z" fill="#444444"/>
<path d="M193.248 25.096C193.109 25.096 192.987 25.0533 192.88 24.968C192.773 24.8827 192.715 24.7707 192.704 24.632C192.704 24.4827 192.773 24.328 192.912 24.168L195.712 20.648V21.32L193.088 18.04C192.949 17.8693 192.88 17.7147 192.88 17.576C192.891 17.4373 192.949 17.3253 193.056 17.24C193.163 17.1547 193.285 17.112 193.424 17.112C193.584 17.112 193.717 17.144 193.824 17.208C193.941 17.2613 194.048 17.352 194.144 17.48L196.432 20.376H195.984L198.288 17.48C198.384 17.352 198.485 17.2613 198.592 17.208C198.699 17.144 198.832 17.112 198.992 17.112C199.141 17.112 199.264 17.1547 199.36 17.24C199.467 17.3253 199.52 17.4427 199.52 17.592C199.531 17.7307 199.467 17.8853 199.328 18.056L196.72 21.288V20.696L199.52 24.168C199.648 24.328 199.707 24.4827 199.696 24.632C199.696 24.7707 199.643 24.8827 199.536 24.968C199.429 25.0533 199.301 25.096 199.152 25.096C199.003 25.096 198.869 25.064 198.752 25C198.645 24.9467 198.539 24.856 198.432 24.728L195.968 21.624H196.432L193.968 24.728C193.872 24.8453 193.765 24.936 193.648 25C193.541 25.064 193.408 25.096 193.248 25.096ZM212.24 25.144C211.472 25.144 210.886 24.9093 210.48 24.44C210.075 23.9707 209.872 23.2987 209.872 22.424V14.264C209.872 14.0507 209.926 13.8907 210.032 13.784C210.139 13.6667 210.299 13.608 210.512 13.608C210.715 13.608 210.875 13.6667 210.992 13.784C211.11 13.8907 211.168 14.0507 211.168 14.264V22.328C211.168 22.904 211.28 23.336 211.504 23.624C211.739 23.9013 212.08 24.04 212.528 24.04C212.624 24.04 212.71 24.0347 212.784 24.024C212.859 24.0133 212.934 24.008 213.008 24.008C213.126 23.9973 213.206 24.024 213.248 24.088C213.302 24.152 213.328 24.28 213.328 24.472C213.328 24.664 213.286 24.808 213.2 24.904C213.115 25 212.976 25.064 212.784 25.096C212.699 25.1067 212.608 25.1173 212.512 25.128C212.416 25.1387 212.326 25.144 212.24 25.144Z" fill="#444444"/>
<path d="M154.48 17C154.288 17 154.139 16.952 154.032 16.856C153.925 16.7493 153.872 16.6053 153.872 16.424C153.872 16.2427 153.925 16.1093 154.032 16.024C154.139 15.928 154.288 15.88 154.48 15.88H156.56V6.808H157.248L154.928 8.344C154.789 8.41867 154.656 8.45067 154.528 8.44C154.411 8.42933 154.309 8.38667 154.224 8.312C154.149 8.22667 154.096 8.13067 154.064 8.024C154.032 7.90667 154.037 7.78933 154.08 7.672C154.123 7.544 154.213 7.43733 154.352 7.352L156.56 5.896C156.699 5.81067 156.832 5.74133 156.96 5.688C157.088 5.63467 157.216 5.608 157.344 5.608C157.493 5.608 157.616 5.656 157.712 5.752C157.819 5.83733 157.872 5.976 157.872 6.168V15.88H159.792C159.984 15.88 160.133 15.928 160.24 16.024C160.347 16.1093 160.4 16.2427 160.4 16.424C160.4 16.616 160.347 16.76 160.24 16.856C160.133 16.952 159.984 17 159.792 17H154.48Z" fill="#444444"/>
<path d="M154.064 36C153.829 36 153.653 35.9467 153.536 35.84C153.429 35.7227 153.376 35.568 153.376 35.376C153.376 35.2587 153.403 35.1467 153.456 35.04C153.52 34.9227 153.605 34.8053 153.712 34.688L157.296 30.848C157.84 30.2613 158.229 29.7227 158.464 29.232C158.709 28.7307 158.832 28.224 158.832 27.712C158.832 27.072 158.635 26.5867 158.24 26.256C157.856 25.9147 157.291 25.744 156.544 25.744C156.064 25.744 155.611 25.8187 155.184 25.968C154.757 26.1173 154.347 26.3467 153.952 26.656C153.813 26.7627 153.685 26.8107 153.568 26.8C153.461 26.7893 153.365 26.7467 153.28 26.672C153.195 26.5973 153.136 26.5013 153.104 26.384C153.072 26.2667 153.072 26.1493 153.104 26.032C153.147 25.9147 153.232 25.808 153.36 25.712C153.776 25.3707 154.277 25.0987 154.864 24.896C155.451 24.6827 156.048 24.576 156.656 24.576C157.413 24.576 158.053 24.6933 158.576 24.928C159.099 25.1627 159.493 25.5093 159.76 25.968C160.027 26.416 160.16 26.9653 160.16 27.616C160.16 28.064 160.085 28.5067 159.936 28.944C159.797 29.3707 159.579 29.808 159.28 30.256C158.992 30.704 158.613 31.168 158.144 31.648L154.736 35.248V34.88H160.128C160.331 34.88 160.48 34.928 160.576 35.024C160.683 35.1093 160.736 35.2427 160.736 35.424C160.736 35.616 160.683 35.76 160.576 35.856C160.48 35.952 160.331 36 160.128 36H154.064Z" fill="#444444"/>
<line x1="152" y1="20.5" x2="162" y2="20.5" stroke="#444444"/>
<path d="M171.316 28.097C170.531 26.8557 169.961 25.551 169.606 24.183C169.264 22.8023 169.093 21.409 169.093 20.003C169.093 19.0657 169.169 18.1347 169.321 17.21C169.473 16.2853 169.714 15.3797 170.043 14.493C170.373 13.5937 170.797 12.7323 171.316 11.909C171.456 11.681 171.639 11.5417 171.867 11.491C172.108 11.4277 172.33 11.4403 172.532 11.529C172.748 11.6177 172.906 11.7823 173.007 12.023C173.109 12.251 173.096 12.5423 172.969 12.897C172.665 13.7077 172.412 14.5057 172.209 15.291C172.019 16.0637 171.874 16.8363 171.772 17.609C171.684 18.3817 171.639 19.1797 171.639 20.003C171.639 20.8263 171.69 21.6243 171.791 22.397C171.893 23.1697 172.045 23.9423 172.247 24.715C172.45 25.4877 172.691 26.2857 172.969 27.109C173.096 27.4637 173.109 27.755 173.007 27.983C172.906 28.2237 172.748 28.3883 172.532 28.477C172.33 28.5657 172.108 28.5783 171.867 28.515C171.639 28.4643 171.456 28.325 171.316 28.097Z" fill="#646464"/>
<path d="M234.003 24.472C233.832 24.472 233.704 24.424 233.619 24.328C233.534 24.232 233.491 24.104 233.491 23.944V20.904H230.499C230.339 20.904 230.211 20.8613 230.115 20.776C230.03 20.6907 229.987 20.568 229.987 20.408C229.987 20.248 230.03 20.1253 230.115 20.04C230.211 19.9547 230.339 19.912 230.499 19.912H233.491V16.968C233.491 16.7973 233.534 16.6693 233.619 16.584C233.704 16.488 233.832 16.44 234.003 16.44C234.174 16.44 234.302 16.488 234.387 16.584C234.472 16.6693 234.515 16.7973 234.515 16.968V19.912H237.507C237.667 19.912 237.79 19.9547 237.875 20.04C237.971 20.1253 238.019 20.248 238.019 20.408C238.019 20.568 237.971 20.6907 237.875 20.776C237.79 20.8613 237.667 20.904 237.507 20.904H234.515V23.944C234.515 24.104 234.472 24.232 234.387 24.328C234.302 24.424 234.174 24.472 234.003 24.472Z" fill="#646464"/>
<path d="M247.112 27C246.877 27 246.696 26.9413 246.568 26.824C246.451 26.696 246.392 26.5147 246.392 26.28V16.44C246.392 16.2053 246.451 16.0293 246.568 15.912C246.696 15.784 246.877 15.72 247.112 15.72H250.904C251.683 15.72 252.339 15.8373 252.872 16.072C253.416 16.296 253.832 16.6267 254.12 17.064C254.408 17.5013 254.552 18.0347 254.552 18.664C254.552 19.368 254.344 19.9547 253.928 20.424C253.523 20.8933 252.968 21.2027 252.264 21.352V21.128C253.064 21.224 253.688 21.512 254.136 21.992C254.595 22.472 254.824 23.1067 254.824 23.896C254.824 24.8987 254.499 25.6667 253.848 26.2C253.197 26.7333 252.28 27 251.096 27H247.112ZM247.672 25.944H250.968C251.821 25.944 252.461 25.7733 252.888 25.432C253.315 25.0907 253.528 24.5733 253.528 23.88C253.528 23.176 253.315 22.6587 252.888 22.328C252.461 21.9867 251.821 21.816 250.968 21.816H247.672V25.944ZM247.672 20.76H250.712C251.544 20.76 252.173 20.5893 252.6 20.248C253.037 19.9067 253.256 19.416 253.256 18.776C253.256 18.1147 253.037 17.6187 252.6 17.288C252.173 16.9467 251.544 16.776 250.712 16.776H247.672V20.76Z" fill="#646464"/>
<path d="M219.98 12.9645C220.759 14.2093 221.324 15.5165 221.672 16.8861C222.008 18.2682 222.173 19.6623 222.167 21.0683C222.162 22.0056 222.082 22.9363 221.926 23.8603C221.77 24.7842 221.525 25.6888 221.192 26.574C220.859 27.4719 220.431 28.3313 219.908 29.1524C219.767 29.3797 219.583 29.5183 219.355 29.5679C219.114 29.6302 218.892 29.6165 218.69 29.527C218.475 29.4373 218.317 29.272 218.217 29.0309C218.117 28.8024 218.131 28.5111 218.259 28.157C218.567 27.3477 218.824 26.5509 219.03 25.7664C219.223 24.9946 219.372 24.2226 219.477 23.4504C219.569 22.6781 219.617 21.8803 219.621 21.057C219.624 20.2337 219.577 19.4355 219.479 18.6624C219.381 17.8892 219.233 17.1159 219.034 16.3424C218.834 15.5688 218.597 14.7697 218.322 13.9452C218.197 13.5899 218.186 13.2986 218.288 13.071C218.39 12.8308 218.55 12.6668 218.765 12.5791C218.968 12.4914 219.19 12.4797 219.43 12.5441C219.658 12.5958 219.841 12.7359 219.98 12.9645Z" fill="#646464"/>
</svg>
