<svg width="341" height="13" viewBox="0 0 341 13" fill="none" xmlns="http://www.w3.org/2000/svg">
<path d="M5.816 12.112C5.61333 12.112 5.45333 12.0533 5.336 11.936C5.21867 11.808 5.16 11.6373 5.16 11.424V1.856H1.56C1.368 1.856 1.21867 1.80267 1.112 1.696C1.00533 1.58933 0.952 1.45067 0.952 1.28C0.952 1.09867 1.00533 0.959999 1.112 0.863999C1.21867 0.767999 1.368 0.719999 1.56 0.719999H10.088C10.28 0.719999 10.4293 0.767999 10.536 0.863999C10.6427 0.959999 10.696 1.09867 10.696 1.28C10.696 1.46133 10.6427 1.60533 10.536 1.712C10.4293 1.808 10.28 1.856 10.088 1.856H6.488V11.424C6.488 11.6373 6.42933 11.808 6.312 11.936C6.20533 12.0533 6.04 12.112 5.816 12.112ZM13.8543 12.144C13.0969 12.144 12.4409 11.9787 11.8863 11.648C11.3316 11.3173 10.8996 10.8533 10.5903 10.256C10.2916 9.648 10.1423 8.93333 10.1423 8.112C10.1423 7.49333 10.2276 6.93867 10.3983 6.448C10.5689 5.94667 10.8196 5.52 11.1503 5.168C11.4809 4.816 11.8703 4.54933 12.3183 4.368C12.7769 4.176 13.2889 4.08 13.8543 4.08C14.6116 4.08 15.2676 4.24533 15.8223 4.576C16.3769 4.90667 16.8036 5.376 17.1023 5.984C17.4116 6.58133 17.5663 7.29067 17.5663 8.112C17.5663 8.73067 17.4809 9.28533 17.3103 9.776C17.1396 10.2667 16.8889 10.6933 16.5583 11.056C16.2276 11.408 15.8329 11.68 15.3743 11.872C14.9263 12.0533 14.4196 12.144 13.8543 12.144ZM13.8543 11.104C14.3343 11.104 14.7556 10.9867 15.1183 10.752C15.4809 10.5173 15.7583 10.176 15.9503 9.728C16.1529 9.28 16.2543 8.74133 16.2543 8.112C16.2543 7.14133 16.0356 6.4 15.5983 5.888C15.1716 5.376 14.5903 5.12 13.8543 5.12C13.3636 5.12 12.9369 5.23733 12.5743 5.472C12.2223 5.696 11.9449 6.032 11.7423 6.48C11.5503 6.91733 11.4543 7.46133 11.4543 8.112C11.4543 9.072 11.6729 9.81333 12.1103 10.336C12.5476 10.848 13.1289 11.104 13.8543 11.104ZM22.5548 12.144C21.9468 12.144 21.4348 12.0373 21.0188 11.824C20.6134 11.6 20.3094 11.28 20.1068 10.864C19.9041 10.4373 19.8028 9.92 19.8028 9.312V5.232H18.7308C18.5494 5.232 18.4108 5.18933 18.3148 5.104C18.2188 5.008 18.1707 4.88 18.1707 4.72C18.1707 4.56 18.2188 4.43733 18.3148 4.352C18.4108 4.26667 18.5494 4.224 18.7308 4.224H19.8028V2.384C19.8028 2.17067 19.8614 2.01067 19.9788 1.904C20.0961 1.78667 20.2561 1.728 20.4588 1.728C20.6614 1.728 20.8161 1.78667 20.9228 1.904C21.0401 2.01067 21.0988 2.17067 21.0988 2.384V4.224H23.1148C23.2961 4.224 23.4348 4.26667 23.5308 4.352C23.6268 4.43733 23.6748 4.56 23.6748 4.72C23.6748 4.88 23.6268 5.008 23.5308 5.104C23.4348 5.18933 23.2961 5.232 23.1148 5.232H21.0988V9.184C21.0988 9.792 21.2268 10.256 21.4828 10.576C21.7388 10.8853 22.1548 11.04 22.7308 11.04C22.9334 11.04 23.1041 11.0187 23.2428 10.976C23.3921 10.9333 23.5148 10.912 23.6108 10.912C23.7068 10.9013 23.7868 10.9333 23.8508 11.008C23.9148 11.0827 23.9468 11.2107 23.9468 11.392C23.9468 11.52 23.9201 11.6373 23.8668 11.744C23.8241 11.8507 23.7441 11.9253 23.6268 11.968C23.4988 12.0107 23.3281 12.048 23.1148 12.08C22.9121 12.1227 22.7254 12.144 22.5548 12.144ZM27.4765 12.144C26.9432 12.144 26.4632 12.0427 26.0365 11.84C25.6205 11.6267 25.2898 11.3387 25.0445 10.976C24.7992 10.6133 24.6765 10.208 24.6765 9.76C24.6765 9.184 24.8205 8.73067 25.1085 8.4C25.4072 8.06933 25.8925 7.83467 26.5645 7.696C27.2472 7.55733 28.1752 7.488 29.3485 7.488H30.0685V8.336H29.3645C28.5005 8.336 27.8178 8.37867 27.3165 8.464C26.8258 8.53867 26.4792 8.672 26.2765 8.864C26.0845 9.056 25.9885 9.328 25.9885 9.68C25.9885 10.1173 26.1378 10.4747 26.4365 10.752C26.7458 11.0293 27.1618 11.168 27.6845 11.168C28.1112 11.168 28.4845 11.0667 28.8045 10.864C29.1352 10.6613 29.3912 10.384 29.5725 10.032C29.7645 9.68 29.8605 9.27467 29.8605 8.816V6.992C29.8605 6.33067 29.7272 5.856 29.4605 5.568C29.1938 5.26933 28.7565 5.12 28.1485 5.12C27.7752 5.12 27.4018 5.168 27.0285 5.264C26.6552 5.36 26.2605 5.51467 25.8445 5.728C25.6952 5.80267 25.5672 5.82933 25.4605 5.808C25.3538 5.776 25.2685 5.71733 25.2045 5.632C25.1405 5.54667 25.1032 5.45067 25.0925 5.344C25.0818 5.22667 25.1032 5.11467 25.1565 5.008C25.2205 4.90133 25.3165 4.816 25.4445 4.752C25.9138 4.51733 26.3778 4.34667 26.8365 4.24C27.2952 4.13333 27.7325 4.08 28.1485 4.08C28.8205 4.08 29.3752 4.192 29.8125 4.416C30.2498 4.62933 30.5752 4.96 30.7885 5.408C31.0018 5.84533 31.1085 6.41067 31.1085 7.104V11.44C31.1085 11.6533 31.0552 11.8187 30.9485 11.936C30.8525 12.0533 30.7085 12.112 30.5165 12.112C30.3138 12.112 30.1592 12.0533 30.0525 11.936C29.9458 11.8187 29.8925 11.6533 29.8925 11.44V10.192H30.0365C29.9512 10.5973 29.7858 10.944 29.5405 11.232C29.3058 11.52 29.0125 11.744 28.6605 11.904C28.3085 12.064 27.9138 12.144 27.4765 12.144ZM35.8809 12.144C35.1129 12.144 34.5262 11.9093 34.1209 11.44C33.7155 10.9707 33.5129 10.2987 33.5129 9.424V1.264C33.5129 1.05067 33.5662 0.890666 33.6729 0.783999C33.7795 0.666666 33.9395 0.608 34.1529 0.608C34.3555 0.608 34.5155 0.666666 34.6329 0.783999C34.7502 0.890666 34.8089 1.05067 34.8089 1.264V9.328C34.8089 9.904 34.9209 10.336 35.1449 10.624C35.3795 10.9013 35.7209 11.04 36.1689 11.04C36.2649 11.04 36.3502 11.0347 36.4249 11.024C36.4995 11.0133 36.5742 11.008 36.6489 11.008C36.7662 10.9973 36.8462 11.024 36.8889 11.088C36.9422 11.152 36.9689 11.28 36.9689 11.472C36.9689 11.664 36.9262 11.808 36.8409 11.904C36.7555 12 36.6169 12.064 36.4249 12.096C36.3395 12.1067 36.2489 12.1173 36.1529 12.128C36.0569 12.1387 35.9662 12.144 35.8809 12.144ZM44.9963 12.144C44.5163 12.144 44.0309 12.0853 43.5403 11.968C43.0603 11.8507 42.6123 11.648 42.1963 11.36C42.0896 11.2853 42.0149 11.2 41.9723 11.104C41.9296 10.9973 41.9136 10.896 41.9243 10.8C41.9456 10.6933 41.9883 10.6027 42.0523 10.528C42.1269 10.4533 42.2123 10.4107 42.3083 10.4C42.4149 10.3787 42.5323 10.4 42.6603 10.464C43.0763 10.72 43.4763 10.9013 43.8603 11.008C44.2549 11.104 44.6443 11.152 45.0283 11.152C45.6363 11.152 46.0949 11.04 46.4043 10.816C46.7136 10.592 46.8683 10.288 46.8683 9.904C46.8683 9.60533 46.7669 9.37067 46.5643 9.2C46.3616 9.01867 46.0416 8.88 45.6043 8.784L44.1483 8.464C43.4763 8.32533 42.9749 8.08533 42.6443 7.744C42.3243 7.40267 42.1643 6.96 42.1643 6.416C42.1643 5.936 42.2869 5.52533 42.5323 5.184C42.7883 4.832 43.1456 4.56 43.6043 4.368C44.0629 4.176 44.5963 4.08 45.2043 4.08C45.6736 4.08 46.1163 4.144 46.5323 4.272C46.9589 4.38933 47.3429 4.58133 47.6843 4.848C47.7909 4.92267 47.8603 5.01333 47.8923 5.12C47.9349 5.216 47.9403 5.31733 47.9083 5.424C47.8869 5.52 47.8389 5.60533 47.7643 5.68C47.6896 5.744 47.5989 5.78133 47.4923 5.792C47.3856 5.80267 47.2736 5.77067 47.1563 5.696C46.8363 5.48267 46.5109 5.328 46.1803 5.232C45.8496 5.12533 45.5243 5.072 45.2043 5.072C44.6069 5.072 44.1536 5.18933 43.8443 5.424C43.5349 5.65867 43.3803 5.968 43.3803 6.352C43.3803 6.65067 43.4763 6.896 43.6683 7.088C43.8603 7.28 44.1589 7.41867 44.5643 7.504L46.0203 7.808C46.7136 7.95733 47.2309 8.19733 47.5723 8.528C47.9243 8.848 48.1003 9.28533 48.1003 9.84C48.1003 10.544 47.8176 11.104 47.2523 11.52C46.6869 11.936 45.9349 12.144 44.9963 12.144ZM52.8274 12.144C52.198 12.144 51.6754 12.032 51.2594 11.808C50.854 11.5733 50.5447 11.2267 50.3314 10.768C50.1287 10.3093 50.0274 9.73867 50.0274 9.056V4.768C50.0274 4.544 50.0807 4.37867 50.1874 4.272C50.3047 4.16533 50.4647 4.112 50.6674 4.112C50.8807 4.112 51.0407 4.16533 51.1474 4.272C51.2647 4.37867 51.3234 4.544 51.3234 4.768V9.04C51.3234 9.72267 51.462 10.2347 51.7394 10.576C52.0274 10.9067 52.4754 11.072 53.0834 11.072C53.7447 11.072 54.2834 10.848 54.6994 10.4C55.1154 9.952 55.3234 9.36533 55.3234 8.64V4.768C55.3234 4.544 55.3767 4.37867 55.4834 4.272C55.6007 4.16533 55.766 4.112 55.9794 4.112C56.182 4.112 56.3367 4.16533 56.4434 4.272C56.5607 4.37867 56.6194 4.544 56.6194 4.768V11.44C56.6194 11.888 56.4114 12.112 55.9954 12.112C55.7927 12.112 55.6327 12.0533 55.5154 11.936C55.4087 11.8187 55.3554 11.6533 55.3554 11.44V9.984L55.5634 10.208C55.35 10.8373 54.998 11.3173 54.5074 11.648C54.0274 11.9787 53.4674 12.144 52.8274 12.144ZM59.7001 12.112C59.4868 12.112 59.3215 12.0533 59.2041 11.936C59.0975 11.8187 59.0441 11.6533 59.0441 11.44V4.768C59.0441 4.55467 59.0975 4.39467 59.2041 4.288C59.3108 4.17067 59.4655 4.112 59.6681 4.112C59.8708 4.112 60.0255 4.17067 60.1321 4.288C60.2495 4.39467 60.3081 4.55467 60.3081 4.768V6.064H60.1481C60.3188 5.43467 60.6441 4.94933 61.1241 4.608C61.6041 4.26667 62.1961 4.08533 62.9001 4.064C63.0601 4.05333 63.1881 4.09067 63.2841 4.176C63.3801 4.25067 63.4335 4.384 63.4441 4.576C63.4548 4.75733 63.4121 4.90133 63.3161 5.008C63.2201 5.11467 63.0708 5.17867 62.8681 5.2L62.6121 5.232C61.8868 5.296 61.3268 5.53067 60.9321 5.936C60.5481 6.33067 60.3561 6.87467 60.3561 7.568V11.44C60.3561 11.6533 60.2975 11.8187 60.1801 11.936C60.0735 12.0533 59.9135 12.112 59.7001 12.112ZM66.2564 12.112C66.0537 12.112 65.8937 12.0533 65.7764 11.936C65.6697 11.8187 65.6164 11.6533 65.6164 11.44V5.232H64.5924C64.4217 5.232 64.283 5.18933 64.1764 5.104C64.0804 5.008 64.0324 4.88 64.0324 4.72C64.0324 4.56 64.0804 4.43733 64.1764 4.352C64.283 4.26667 64.4217 4.224 64.5924 4.224H65.9684L65.6164 4.56V3.952C65.6164 2.93867 65.8617 2.16533 66.3524 1.632C66.8537 1.09867 67.5844 0.789333 68.5444 0.704L69.0084 0.655999C69.1577 0.645333 69.275 0.671999 69.3604 0.735999C69.4564 0.8 69.515 0.88 69.5364 0.976C69.5684 1.072 69.5737 1.17333 69.5524 1.28C69.531 1.376 69.483 1.46133 69.4084 1.536C69.3337 1.61067 69.243 1.65333 69.1364 1.664L68.7684 1.696C68.1177 1.74933 67.643 1.94667 67.3444 2.288C67.0564 2.62933 66.9124 3.13067 66.9124 3.792V4.464L66.7204 4.224H68.6404C68.8217 4.224 68.9604 4.26667 69.0564 4.352C69.1524 4.43733 69.2004 4.56 69.2004 4.72C69.2004 4.88 69.1524 5.008 69.0564 5.104C68.9604 5.18933 68.8217 5.232 68.6404 5.232H66.9124V11.44C66.9124 11.888 66.6937 12.112 66.2564 12.112ZM72.8984 12.144C72.365 12.144 71.885 12.0427 71.4584 11.84C71.0424 11.6267 70.7117 11.3387 70.4664 10.976C70.221 10.6133 70.0984 10.208 70.0984 9.76C70.0984 9.184 70.2424 8.73067 70.5304 8.4C70.829 8.06933 71.3144 7.83467 71.9864 7.696C72.669 7.55733 73.597 7.488 74.7704 7.488H75.4904V8.336H74.7864C73.9224 8.336 73.2397 8.37867 72.7384 8.464C72.2477 8.53867 71.901 8.672 71.6984 8.864C71.5064 9.056 71.4104 9.328 71.4104 9.68C71.4104 10.1173 71.5597 10.4747 71.8584 10.752C72.1677 11.0293 72.5837 11.168 73.1064 11.168C73.533 11.168 73.9064 11.0667 74.2264 10.864C74.557 10.6613 74.813 10.384 74.9944 10.032C75.1864 9.68 75.2824 9.27467 75.2824 8.816V6.992C75.2824 6.33067 75.149 5.856 74.8824 5.568C74.6157 5.26933 74.1784 5.12 73.5704 5.12C73.197 5.12 72.8237 5.168 72.4504 5.264C72.077 5.36 71.6824 5.51467 71.2664 5.728C71.117 5.80267 70.989 5.82933 70.8824 5.808C70.7757 5.776 70.6904 5.71733 70.6264 5.632C70.5624 5.54667 70.525 5.45067 70.5144 5.344C70.5037 5.22667 70.525 5.11467 70.5784 5.008C70.6424 4.90133 70.7384 4.816 70.8664 4.752C71.3357 4.51733 71.7997 4.34667 72.2584 4.24C72.717 4.13333 73.1544 4.08 73.5704 4.08C74.2424 4.08 74.797 4.192 75.2344 4.416C75.6717 4.62933 75.997 4.96 76.2104 5.408C76.4237 5.84533 76.5304 6.41067 76.5304 7.104V11.44C76.5304 11.6533 76.477 11.8187 76.3704 11.936C76.2744 12.0533 76.1304 12.112 75.9384 12.112C75.7357 12.112 75.581 12.0533 75.4744 11.936C75.3677 11.8187 75.3144 11.6533 75.3144 11.44V10.192H75.4584C75.373 10.5973 75.2077 10.944 74.9624 11.232C74.7277 11.52 74.4344 11.744 74.0824 11.904C73.7304 12.064 73.3357 12.144 72.8984 12.144ZM82.2308 12.144C81.4521 12.144 80.7801 11.9733 80.2148 11.632C79.6494 11.2907 79.2121 10.816 78.9028 10.208C78.6041 9.58933 78.4548 8.87467 78.4548 8.064C78.4548 7.44533 78.5401 6.89067 78.7108 6.4C78.8814 5.90933 79.1321 5.49333 79.4628 5.152C79.7934 4.8 80.1881 4.53333 80.6468 4.352C81.1161 4.17067 81.6441 4.08 82.2308 4.08C82.6148 4.08 83.0148 4.13867 83.4308 4.256C83.8468 4.37333 84.2254 4.576 84.5668 4.864C84.6734 4.93867 84.7428 5.02933 84.7748 5.136C84.8068 5.24267 84.8068 5.34933 84.7748 5.456C84.7428 5.552 84.6894 5.63733 84.6148 5.712C84.5401 5.776 84.4441 5.81333 84.3268 5.824C84.2201 5.83467 84.1081 5.79733 83.9908 5.712C83.7134 5.49867 83.4308 5.34933 83.1428 5.264C82.8548 5.17867 82.5774 5.136 82.3108 5.136C81.8948 5.136 81.5321 5.20533 81.2228 5.344C80.9134 5.472 80.6521 5.65867 80.4388 5.904C80.2254 6.14933 80.0601 6.45333 79.9428 6.816C79.8361 7.17867 79.7828 7.6 79.7828 8.08C79.7828 9.008 80.0014 9.744 80.4388 10.288C80.8761 10.8213 81.5001 11.088 82.3108 11.088C82.5774 11.088 82.8494 11.0453 83.1268 10.96C83.4148 10.8747 83.7028 10.7253 83.9908 10.512C84.1081 10.4267 84.2201 10.3893 84.3268 10.4C84.4334 10.4107 84.5241 10.4533 84.5988 10.528C84.6734 10.592 84.7214 10.6773 84.7428 10.784C84.7748 10.8907 84.7748 10.9973 84.7428 11.104C84.7108 11.2 84.6414 11.2853 84.5348 11.36C84.1934 11.6373 83.8201 11.84 83.4148 11.968C83.0094 12.0853 82.6148 12.144 82.2308 12.144ZM89.6888 12.144C88.8674 12.144 88.1581 11.984 87.5608 11.664C86.9741 11.3333 86.5154 10.8693 86.1848 10.272C85.8648 9.67467 85.7048 8.96 85.7048 8.128C85.7048 7.31733 85.8648 6.61333 86.1848 6.016C86.5048 5.408 86.9421 4.93333 87.4968 4.592C88.0621 4.25067 88.7128 4.08 89.4488 4.08C89.9714 4.08 90.4408 4.17067 90.8568 4.352C91.2728 4.52267 91.6248 4.77333 91.9128 5.104C92.2114 5.43467 92.4354 5.83467 92.5848 6.304C92.7448 6.77333 92.8248 7.30133 92.8248 7.888C92.8248 8.05867 92.7768 8.18667 92.6808 8.272C92.5848 8.34667 92.4461 8.384 92.2648 8.384H86.6968V7.536H91.9608L91.7048 7.744C91.7048 7.168 91.6194 6.68267 91.4488 6.288C91.2781 5.88267 91.0274 5.57333 90.6968 5.36C90.3768 5.14667 89.9714 5.04 89.4808 5.04C88.9368 5.04 88.4728 5.168 88.0888 5.424C87.7154 5.66933 87.4328 6.016 87.2408 6.464C87.0488 6.90133 86.9528 7.41333 86.9528 8V8.096C86.9528 9.07733 87.1874 9.824 87.6568 10.336C88.1368 10.848 88.8141 11.104 89.6888 11.104C90.0514 11.104 90.4088 11.056 90.7608 10.96C91.1234 10.864 91.4754 10.704 91.8168 10.48C91.9661 10.384 92.0994 10.3413 92.2168 10.352C92.3448 10.352 92.4461 10.3893 92.5208 10.464C92.5954 10.528 92.6434 10.6133 92.6648 10.72C92.6968 10.816 92.6861 10.9227 92.6328 11.04C92.5901 11.1573 92.4994 11.2587 92.3608 11.344C92.0088 11.6 91.5928 11.7973 91.1128 11.936C90.6328 12.0747 90.1581 12.144 89.6888 12.144ZM101.273 12.144C100.74 12.144 100.26 12.0427 99.8334 11.84C99.4174 11.6267 99.0867 11.3387 98.8414 10.976C98.596 10.6133 98.4734 10.208 98.4734 9.76C98.4734 9.184 98.6174 8.73067 98.9054 8.4C99.204 8.06933 99.6894 7.83467 100.361 7.696C101.044 7.55733 101.972 7.488 103.145 7.488H103.865V8.336H103.161C102.297 8.336 101.615 8.37867 101.113 8.464C100.623 8.53867 100.276 8.672 100.073 8.864C99.8814 9.056 99.7854 9.328 99.7854 9.68C99.7854 10.1173 99.9347 10.4747 100.233 10.752C100.543 11.0293 100.959 11.168 101.481 11.168C101.908 11.168 102.281 11.0667 102.601 10.864C102.932 10.6613 103.188 10.384 103.369 10.032C103.561 9.68 103.657 9.27467 103.657 8.816V6.992C103.657 6.33067 103.524 5.856 103.257 5.568C102.991 5.26933 102.553 5.12 101.945 5.12C101.572 5.12 101.199 5.168 100.825 5.264C100.452 5.36 100.057 5.51467 99.6414 5.728C99.492 5.80267 99.364 5.82933 99.2574 5.808C99.1507 5.776 99.0654 5.71733 99.0014 5.632C98.9374 5.54667 98.9 5.45067 98.8894 5.344C98.8787 5.22667 98.9 5.11467 98.9534 5.008C99.0174 4.90133 99.1134 4.816 99.2414 4.752C99.7107 4.51733 100.175 4.34667 100.633 4.24C101.092 4.13333 101.529 4.08 101.945 4.08C102.617 4.08 103.172 4.192 103.609 4.416C104.047 4.62933 104.372 4.96 104.585 5.408C104.799 5.84533 104.905 6.41067 104.905 7.104V11.44C104.905 11.6533 104.852 11.8187 104.745 11.936C104.649 12.0533 104.505 12.112 104.313 12.112C104.111 12.112 103.956 12.0533 103.849 11.936C103.743 11.8187 103.689 11.6533 103.689 11.44V10.192H103.833C103.748 10.5973 103.583 10.944 103.337 11.232C103.103 11.52 102.809 11.744 102.457 11.904C102.105 12.064 101.711 12.144 101.273 12.144ZM107.966 12.112C107.752 12.112 107.587 12.0533 107.47 11.936C107.363 11.8187 107.31 11.6533 107.31 11.44V4.768C107.31 4.55467 107.363 4.39467 107.47 4.288C107.576 4.17067 107.731 4.112 107.934 4.112C108.136 4.112 108.291 4.17067 108.398 4.288C108.515 4.39467 108.574 4.55467 108.574 4.768V6.064H108.414C108.584 5.43467 108.91 4.94933 109.39 4.608C109.87 4.26667 110.462 4.08533 111.166 4.064C111.326 4.05333 111.454 4.09067 111.55 4.176C111.646 4.25067 111.699 4.384 111.71 4.576C111.72 4.75733 111.678 4.90133 111.582 5.008C111.486 5.11467 111.336 5.17867 111.134 5.2L110.878 5.232C110.152 5.296 109.592 5.53067 109.198 5.936C108.814 6.33067 108.622 6.87467 108.622 7.568V11.44C108.622 11.6533 108.563 11.8187 108.446 11.936C108.339 12.0533 108.179 12.112 107.966 12.112ZM116.454 12.144C115.633 12.144 114.924 11.984 114.326 11.664C113.74 11.3333 113.281 10.8693 112.95 10.272C112.63 9.67467 112.47 8.96 112.47 8.128C112.47 7.31733 112.63 6.61333 112.95 6.016C113.27 5.408 113.708 4.93333 114.262 4.592C114.828 4.25067 115.478 4.08 116.214 4.08C116.737 4.08 117.206 4.17067 117.622 4.352C118.038 4.52267 118.39 4.77333 118.678 5.104C118.977 5.43467 119.201 5.83467 119.35 6.304C119.51 6.77333 119.59 7.30133 119.59 7.888C119.59 8.05867 119.542 8.18667 119.446 8.272C119.35 8.34667 119.212 8.384 119.03 8.384H113.462V7.536H118.726L118.47 7.744C118.47 7.168 118.385 6.68267 118.214 6.288C118.044 5.88267 117.793 5.57333 117.462 5.36C117.142 5.14667 116.737 5.04 116.246 5.04C115.702 5.04 115.238 5.168 114.854 5.424C114.481 5.66933 114.198 6.016 114.006 6.464C113.814 6.90133 113.718 7.41333 113.718 8V8.096C113.718 9.07733 113.953 9.824 114.422 10.336C114.902 10.848 115.58 11.104 116.454 11.104C116.817 11.104 117.174 11.056 117.526 10.96C117.889 10.864 118.241 10.704 118.582 10.48C118.732 10.384 118.865 10.3413 118.982 10.352C119.11 10.352 119.212 10.3893 119.286 10.464C119.361 10.528 119.409 10.6133 119.43 10.72C119.462 10.816 119.452 10.9227 119.398 11.04C119.356 11.1573 119.265 11.2587 119.126 11.344C118.774 11.6 118.358 11.7973 117.878 11.936C117.398 12.0747 116.924 12.144 116.454 12.144ZM123.914 12.144C123.381 12.144 122.901 12.0427 122.474 11.84C122.058 11.6267 121.727 11.3387 121.482 10.976C121.237 10.6133 121.114 10.208 121.114 9.76C121.114 9.184 121.258 8.73067 121.546 8.4C121.845 8.06933 122.33 7.83467 123.002 7.696C123.685 7.55733 124.613 7.488 125.786 7.488H126.506V8.336H125.802C124.938 8.336 124.255 8.37867 123.754 8.464C123.263 8.53867 122.917 8.672 122.714 8.864C122.522 9.056 122.426 9.328 122.426 9.68C122.426 10.1173 122.575 10.4747 122.874 10.752C123.183 11.0293 123.599 11.168 124.122 11.168C124.549 11.168 124.922 11.0667 125.242 10.864C125.573 10.6613 125.829 10.384 126.01 10.032C126.202 9.68 126.298 9.27467 126.298 8.816V6.992C126.298 6.33067 126.165 5.856 125.898 5.568C125.631 5.26933 125.194 5.12 124.586 5.12C124.213 5.12 123.839 5.168 123.466 5.264C123.093 5.36 122.698 5.51467 122.282 5.728C122.133 5.80267 122.005 5.82933 121.898 5.808C121.791 5.776 121.706 5.71733 121.642 5.632C121.578 5.54667 121.541 5.45067 121.53 5.344C121.519 5.22667 121.541 5.11467 121.594 5.008C121.658 4.90133 121.754 4.816 121.882 4.752C122.351 4.51733 122.815 4.34667 123.274 4.24C123.733 4.13333 124.17 4.08 124.586 4.08C125.258 4.08 125.813 4.192 126.25 4.416C126.687 4.62933 127.013 4.96 127.226 5.408C127.439 5.84533 127.546 6.41067 127.546 7.104V11.44C127.546 11.6533 127.493 11.8187 127.386 11.936C127.29 12.0533 127.146 12.112 126.954 12.112C126.751 12.112 126.597 12.0533 126.49 11.936C126.383 11.8187 126.33 11.6533 126.33 11.44V10.192H126.474C126.389 10.5973 126.223 10.944 125.978 11.232C125.743 11.52 125.45 11.744 125.098 11.904C124.746 12.064 124.351 12.144 123.914 12.144ZM134.155 6.304C133.995 6.304 133.867 6.26133 133.771 6.176C133.686 6.09067 133.643 5.968 133.643 5.808C133.643 5.648 133.686 5.52533 133.771 5.44C133.867 5.35467 133.995 5.312 134.155 5.312H141.163C141.323 5.312 141.446 5.35467 141.531 5.44C141.627 5.52533 141.675 5.648 141.675 5.808C141.675 5.968 141.627 6.09067 141.531 6.176C141.446 6.26133 141.323 6.304 141.163 6.304H134.155ZM134.155 9.488C133.995 9.488 133.867 9.44533 133.771 9.36C133.686 9.27467 133.643 9.152 133.643 8.992C133.643 8.832 133.686 8.71467 133.771 8.64C133.867 8.55467 133.995 8.512 134.155 8.512H141.163C141.323 8.512 141.446 8.55467 141.531 8.64C141.627 8.71467 141.675 8.832 141.675 8.992C141.675 9.16267 141.627 9.29067 141.531 9.376C141.446 9.45067 141.323 9.488 141.163 9.488H134.155ZM151.618 12.144C151.117 12.144 150.626 12.1013 150.146 12.016C149.666 11.9307 149.218 11.808 148.802 11.648C148.397 11.488 148.029 11.2853 147.698 11.04C147.57 10.944 147.479 10.8373 147.426 10.72C147.383 10.592 147.373 10.4693 147.394 10.352C147.426 10.224 147.479 10.1173 147.554 10.032C147.639 9.94667 147.741 9.89867 147.858 9.888C147.975 9.87733 148.103 9.91467 148.242 10C148.722 10.3413 149.234 10.592 149.778 10.752C150.322 10.9013 150.935 10.976 151.618 10.976C152.578 10.976 153.287 10.8 153.746 10.448C154.215 10.0853 154.45 9.61067 154.45 9.024C154.45 8.544 154.279 8.17067 153.938 7.904C153.607 7.62667 153.047 7.408 152.258 7.248L150.594 6.912C149.591 6.69867 148.839 6.352 148.338 5.872C147.847 5.38133 147.602 4.73067 147.602 3.92C147.602 3.41867 147.703 2.96533 147.906 2.56C148.109 2.144 148.391 1.792 148.754 1.504C149.117 1.20533 149.549 0.976 150.05 0.815999C150.551 0.655999 151.106 0.575999 151.714 0.575999C152.386 0.575999 153.01 0.671999 153.586 0.863999C154.173 1.04533 154.701 1.32267 155.17 1.696C155.287 1.792 155.367 1.904 155.41 2.032C155.453 2.14933 155.458 2.26667 155.426 2.384C155.394 2.49067 155.335 2.58133 155.25 2.656C155.175 2.73067 155.074 2.77333 154.946 2.784C154.829 2.79467 154.695 2.752 154.546 2.656C154.119 2.336 153.677 2.10667 153.218 1.968C152.759 1.81867 152.253 1.744 151.698 1.744C151.133 1.744 150.642 1.82933 150.226 2C149.821 2.17067 149.501 2.42133 149.266 2.752C149.042 3.072 148.93 3.44533 148.93 3.872C148.93 4.384 149.085 4.78933 149.394 5.088C149.714 5.38667 150.231 5.60533 150.946 5.744L152.61 6.096C153.687 6.32 154.482 6.66133 154.994 7.12C155.517 7.568 155.778 8.18133 155.778 8.96C155.778 9.42933 155.682 9.86133 155.49 10.256C155.298 10.6507 155.021 10.992 154.658 11.28C154.295 11.5573 153.858 11.7707 153.346 11.92C152.834 12.0693 152.258 12.144 151.618 12.144ZM160.39 12.144C159.761 12.144 159.238 12.032 158.822 11.808C158.417 11.5733 158.107 11.2267 157.894 10.768C157.691 10.3093 157.59 9.73867 157.59 9.056V4.768C157.59 4.544 157.643 4.37867 157.75 4.272C157.867 4.16533 158.027 4.112 158.23 4.112C158.443 4.112 158.603 4.16533 158.71 4.272C158.827 4.37867 158.886 4.544 158.886 4.768V9.04C158.886 9.72267 159.025 10.2347 159.302 10.576C159.59 10.9067 160.038 11.072 160.646 11.072C161.307 11.072 161.846 10.848 162.262 10.4C162.678 9.952 162.886 9.36533 162.886 8.64V4.768C162.886 4.544 162.939 4.37867 163.046 4.272C163.163 4.16533 163.329 4.112 163.542 4.112C163.745 4.112 163.899 4.16533 164.006 4.272C164.123 4.37867 164.182 4.544 164.182 4.768V11.44C164.182 11.888 163.974 12.112 163.558 12.112C163.355 12.112 163.195 12.0533 163.078 11.936C162.971 11.8187 162.918 11.6533 162.918 11.44V9.984L163.126 10.208C162.913 10.8373 162.561 11.3173 162.07 11.648C161.59 11.9787 161.03 12.144 160.39 12.144ZM167.279 12.112C167.065 12.112 166.905 12.0533 166.799 11.936C166.692 11.8187 166.639 11.6533 166.639 11.44V4.768C166.639 4.55467 166.692 4.39467 166.799 4.288C166.905 4.17067 167.06 4.112 167.263 4.112C167.465 4.112 167.62 4.17067 167.727 4.288C167.844 4.39467 167.903 4.55467 167.903 4.768V6.176L167.727 5.952C167.929 5.35467 168.255 4.896 168.703 4.576C169.161 4.24533 169.705 4.08 170.335 4.08C170.996 4.08 171.529 4.24 171.935 4.56C172.351 4.86933 172.628 5.35467 172.767 6.016H172.527C172.719 5.41867 173.06 4.94933 173.551 4.608C174.052 4.256 174.633 4.08 175.295 4.08C175.881 4.08 176.361 4.192 176.735 4.416C177.119 4.64 177.407 4.98133 177.599 5.44C177.791 5.888 177.887 6.45867 177.887 7.152V11.44C177.887 11.6533 177.828 11.8187 177.711 11.936C177.604 12.0533 177.444 12.112 177.231 12.112C177.028 12.112 176.868 12.0533 176.751 11.936C176.644 11.8187 176.591 11.6533 176.591 11.44V7.216C176.591 6.50133 176.468 5.97867 176.223 5.648C175.977 5.30667 175.561 5.136 174.975 5.136C174.335 5.136 173.828 5.36 173.455 5.808C173.092 6.24533 172.911 6.84267 172.911 7.6V11.44C172.911 11.6533 172.852 11.8187 172.735 11.936C172.628 12.0533 172.468 12.112 172.255 12.112C172.052 12.112 171.892 12.0533 171.775 11.936C171.668 11.8187 171.615 11.6533 171.615 11.44V7.216C171.615 6.50133 171.487 5.97867 171.231 5.648C170.985 5.30667 170.575 5.136 169.999 5.136C169.359 5.136 168.852 5.36 168.479 5.808C168.116 6.24533 167.935 6.84267 167.935 7.6V11.44C167.935 11.888 167.716 12.112 167.279 12.112ZM187.667 12.144C186.909 12.144 186.253 11.9787 185.699 11.648C185.144 11.3173 184.712 10.8533 184.403 10.256C184.104 9.648 183.955 8.93333 183.955 8.112C183.955 7.49333 184.04 6.93867 184.211 6.448C184.381 5.94667 184.632 5.52 184.963 5.168C185.293 4.816 185.683 4.54933 186.131 4.368C186.589 4.176 187.101 4.08 187.667 4.08C188.424 4.08 189.08 4.24533 189.635 4.576C190.189 4.90667 190.616 5.376 190.915 5.984C191.224 6.58133 191.379 7.29067 191.379 8.112C191.379 8.73067 191.293 9.28533 191.123 9.776C190.952 10.2667 190.701 10.6933 190.371 11.056C190.04 11.408 189.645 11.68 189.187 11.872C188.739 12.0533 188.232 12.144 187.667 12.144ZM187.667 11.104C188.147 11.104 188.568 10.9867 188.931 10.752C189.293 10.5173 189.571 10.176 189.763 9.728C189.965 9.28 190.067 8.74133 190.067 8.112C190.067 7.14133 189.848 6.4 189.411 5.888C188.984 5.376 188.403 5.12 187.667 5.12C187.176 5.12 186.749 5.23733 186.387 5.472C186.035 5.696 185.757 6.032 185.555 6.48C185.363 6.91733 185.267 7.46133 185.267 8.112C185.267 9.072 185.485 9.81333 185.923 10.336C186.36 10.848 186.941 11.104 187.667 11.104ZM194.303 12.112C194.101 12.112 193.941 12.0533 193.823 11.936C193.717 11.8187 193.663 11.6533 193.663 11.44V5.232H192.639C192.469 5.232 192.33 5.18933 192.223 5.104C192.127 5.008 192.079 4.88 192.079 4.72C192.079 4.56 192.127 4.43733 192.223 4.352C192.33 4.26667 192.469 4.224 192.639 4.224H194.015L193.663 4.56V3.952C193.663 2.93867 193.909 2.16533 194.399 1.632C194.901 1.09867 195.631 0.789333 196.591 0.704L197.055 0.655999C197.205 0.645333 197.322 0.671999 197.407 0.735999C197.503 0.8 197.562 0.88 197.583 0.976C197.615 1.072 197.621 1.17333 197.599 1.28C197.578 1.376 197.53 1.46133 197.455 1.536C197.381 1.61067 197.29 1.65333 197.183 1.664L196.815 1.696C196.165 1.74933 195.69 1.94667 195.391 2.288C195.103 2.62933 194.959 3.13067 194.959 3.792V4.464L194.767 4.224H196.687C196.869 4.224 197.007 4.26667 197.103 4.352C197.199 4.43733 197.247 4.56 197.247 4.72C197.247 4.88 197.199 5.008 197.103 5.104C197.007 5.18933 196.869 5.232 196.687 5.232H194.959V11.44C194.959 11.888 194.741 12.112 194.303 12.112ZM205.148 12.144C204.615 12.144 204.135 12.0427 203.708 11.84C203.292 11.6267 202.962 11.3387 202.716 10.976C202.471 10.6133 202.348 10.208 202.348 9.76C202.348 9.184 202.492 8.73067 202.78 8.4C203.079 8.06933 203.564 7.83467 204.236 7.696C204.919 7.55733 205.847 7.488 207.02 7.488H207.74V8.336H207.036C206.172 8.336 205.49 8.37867 204.988 8.464C204.498 8.53867 204.151 8.672 203.948 8.864C203.756 9.056 203.66 9.328 203.66 9.68C203.66 10.1173 203.81 10.4747 204.108 10.752C204.418 11.0293 204.834 11.168 205.356 11.168C205.783 11.168 206.156 11.0667 206.476 10.864C206.807 10.6613 207.063 10.384 207.244 10.032C207.436 9.68 207.532 9.27467 207.532 8.816V6.992C207.532 6.33067 207.399 5.856 207.132 5.568C206.866 5.26933 206.428 5.12 205.82 5.12C205.447 5.12 205.074 5.168 204.7 5.264C204.327 5.36 203.932 5.51467 203.516 5.728C203.367 5.80267 203.239 5.82933 203.132 5.808C203.026 5.776 202.94 5.71733 202.876 5.632C202.812 5.54667 202.775 5.45067 202.764 5.344C202.754 5.22667 202.775 5.11467 202.828 5.008C202.892 4.90133 202.988 4.816 203.116 4.752C203.586 4.51733 204.05 4.34667 204.508 4.24C204.967 4.13333 205.404 4.08 205.82 4.08C206.492 4.08 207.047 4.192 207.484 4.416C207.922 4.62933 208.247 4.96 208.46 5.408C208.674 5.84533 208.78 6.41067 208.78 7.104V11.44C208.78 11.6533 208.727 11.8187 208.62 11.936C208.524 12.0533 208.38 12.112 208.188 12.112C207.986 12.112 207.831 12.0533 207.724 11.936C207.618 11.8187 207.564 11.6533 207.564 11.44V10.192H207.708C207.623 10.5973 207.458 10.944 207.212 11.232C206.978 11.52 206.684 11.744 206.332 11.904C205.98 12.064 205.586 12.144 205.148 12.144ZM211.841 12.112C211.627 12.112 211.462 12.0533 211.345 11.936C211.238 11.8187 211.185 11.6533 211.185 11.44V4.768C211.185 4.55467 211.238 4.39467 211.345 4.288C211.451 4.17067 211.606 4.112 211.809 4.112C212.011 4.112 212.166 4.17067 212.273 4.288C212.39 4.39467 212.449 4.55467 212.449 4.768V6.064H212.289C212.459 5.43467 212.785 4.94933 213.265 4.608C213.745 4.26667 214.337 4.08533 215.041 4.064C215.201 4.05333 215.329 4.09067 215.425 4.176C215.521 4.25067 215.574 4.384 215.585 4.576C215.595 4.75733 215.553 4.90133 215.457 5.008C215.361 5.11467 215.211 5.17867 215.009 5.2L214.753 5.232C214.027 5.296 213.467 5.53067 213.073 5.936C212.689 6.33067 212.497 6.87467 212.497 7.568V11.44C212.497 11.6533 212.438 11.8187 212.321 11.936C212.214 12.0533 212.054 12.112 211.841 12.112ZM220.329 12.144C219.508 12.144 218.799 11.984 218.201 11.664C217.615 11.3333 217.156 10.8693 216.825 10.272C216.505 9.67467 216.345 8.96 216.345 8.128C216.345 7.31733 216.505 6.61333 216.825 6.016C217.145 5.408 217.583 4.93333 218.137 4.592C218.703 4.25067 219.353 4.08 220.089 4.08C220.612 4.08 221.081 4.17067 221.497 4.352C221.913 4.52267 222.265 4.77333 222.553 5.104C222.852 5.43467 223.076 5.83467 223.225 6.304C223.385 6.77333 223.465 7.30133 223.465 7.888C223.465 8.05867 223.417 8.18667 223.321 8.272C223.225 8.34667 223.087 8.384 222.905 8.384H217.337V7.536H222.601L222.345 7.744C222.345 7.168 222.26 6.68267 222.089 6.288C221.919 5.88267 221.668 5.57333 221.337 5.36C221.017 5.14667 220.612 5.04 220.121 5.04C219.577 5.04 219.113 5.168 218.729 5.424C218.356 5.66933 218.073 6.016 217.881 6.464C217.689 6.90133 217.593 7.41333 217.593 8V8.096C217.593 9.07733 217.828 9.824 218.297 10.336C218.777 10.848 219.455 11.104 220.329 11.104C220.692 11.104 221.049 11.056 221.401 10.96C221.764 10.864 222.116 10.704 222.457 10.48C222.607 10.384 222.74 10.3413 222.857 10.352C222.985 10.352 223.087 10.3893 223.161 10.464C223.236 10.528 223.284 10.6133 223.305 10.72C223.337 10.816 223.327 10.9227 223.273 11.04C223.231 11.1573 223.14 11.2587 223.001 11.344C222.649 11.6 222.233 11.7973 221.753 11.936C221.273 12.0747 220.799 12.144 220.329 12.144ZM227.789 12.144C227.256 12.144 226.776 12.0427 226.349 11.84C225.933 11.6267 225.602 11.3387 225.357 10.976C225.112 10.6133 224.989 10.208 224.989 9.76C224.989 9.184 225.133 8.73067 225.421 8.4C225.72 8.06933 226.205 7.83467 226.877 7.696C227.56 7.55733 228.488 7.488 229.661 7.488H230.381V8.336H229.677C228.813 8.336 228.13 8.37867 227.629 8.464C227.138 8.53867 226.792 8.672 226.589 8.864C226.397 9.056 226.301 9.328 226.301 9.68C226.301 10.1173 226.45 10.4747 226.749 10.752C227.058 11.0293 227.474 11.168 227.997 11.168C228.424 11.168 228.797 11.0667 229.117 10.864C229.448 10.6613 229.704 10.384 229.885 10.032C230.077 9.68 230.173 9.27467 230.173 8.816V6.992C230.173 6.33067 230.04 5.856 229.773 5.568C229.506 5.26933 229.069 5.12 228.461 5.12C228.088 5.12 227.714 5.168 227.341 5.264C226.968 5.36 226.573 5.51467 226.157 5.728C226.008 5.80267 225.88 5.82933 225.773 5.808C225.666 5.776 225.581 5.71733 225.517 5.632C225.453 5.54667 225.416 5.45067 225.405 5.344C225.394 5.22667 225.416 5.11467 225.469 5.008C225.533 4.90133 225.629 4.816 225.757 4.752C226.226 4.51733 226.69 4.34667 227.149 4.24C227.608 4.13333 228.045 4.08 228.461 4.08C229.133 4.08 229.688 4.192 230.125 4.416C230.562 4.62933 230.888 4.96 231.101 5.408C231.314 5.84533 231.421 6.41067 231.421 7.104V11.44C231.421 11.6533 231.368 11.8187 231.261 11.936C231.165 12.0533 231.021 12.112 230.829 12.112C230.626 12.112 230.472 12.0533 230.365 11.936C230.258 11.8187 230.205 11.6533 230.205 11.44V10.192H230.349C230.264 10.5973 230.098 10.944 229.853 11.232C229.618 11.52 229.325 11.744 228.973 11.904C228.621 12.064 228.226 12.144 227.789 12.144ZM241.182 12.144C240.425 12.144 239.769 11.9787 239.214 11.648C238.66 11.3173 238.228 10.8533 237.918 10.256C237.62 9.648 237.47 8.93333 237.47 8.112C237.47 7.49333 237.556 6.93867 237.726 6.448C237.897 5.94667 238.148 5.52 238.478 5.168C238.809 4.816 239.198 4.54933 239.646 4.368C240.105 4.176 240.617 4.08 241.182 4.08C241.94 4.08 242.596 4.24533 243.15 4.576C243.705 4.90667 244.132 5.376 244.43 5.984C244.74 6.58133 244.894 7.29067 244.894 8.112C244.894 8.73067 244.809 9.28533 244.638 9.776C244.468 10.2667 244.217 10.6933 243.886 11.056C243.556 11.408 243.161 11.68 242.702 11.872C242.254 12.0533 241.748 12.144 241.182 12.144ZM241.182 11.104C241.662 11.104 242.084 10.9867 242.446 10.752C242.809 10.5173 243.086 10.176 243.278 9.728C243.481 9.28 243.582 8.74133 243.582 8.112C243.582 7.14133 243.364 6.4 242.926 5.888C242.5 5.376 241.918 5.12 241.182 5.12C240.692 5.12 240.265 5.23733 239.902 5.472C239.55 5.696 239.273 6.032 239.07 6.48C238.878 6.91733 238.782 7.46133 238.782 8.112C238.782 9.072 239.001 9.81333 239.438 10.336C239.876 10.848 240.457 11.104 241.182 11.104ZM247.819 12.112C247.616 12.112 247.456 12.0533 247.339 11.936C247.232 11.8187 247.179 11.6533 247.179 11.44V5.232H246.155C245.984 5.232 245.846 5.18933 245.739 5.104C245.643 5.008 245.595 4.88 245.595 4.72C245.595 4.56 245.643 4.43733 245.739 4.352C245.846 4.26667 245.984 4.224 246.155 4.224H247.531L247.179 4.56V3.952C247.179 2.93867 247.424 2.16533 247.915 1.632C248.416 1.09867 249.147 0.789333 250.107 0.704L250.571 0.655999C250.72 0.645333 250.838 0.671999 250.923 0.735999C251.019 0.8 251.078 0.88 251.099 0.976C251.131 1.072 251.136 1.17333 251.115 1.28C251.094 1.376 251.046 1.46133 250.971 1.536C250.896 1.61067 250.806 1.65333 250.699 1.664L250.331 1.696C249.68 1.74933 249.206 1.94667 248.907 2.288C248.619 2.62933 248.475 3.13067 248.475 3.792V4.464L248.283 4.224H250.203C250.384 4.224 250.523 4.26667 250.619 4.352C250.715 4.43733 250.763 4.56 250.763 4.72C250.763 4.88 250.715 5.008 250.619 5.104C250.523 5.18933 250.384 5.232 250.203 5.232H248.475V11.44C248.475 11.888 248.256 12.112 247.819 12.112ZM258.664 12.144C258.131 12.144 257.651 12.0427 257.224 11.84C256.808 11.6267 256.477 11.3387 256.232 10.976C255.987 10.6133 255.864 10.208 255.864 9.76C255.864 9.184 256.008 8.73067 256.296 8.4C256.595 8.06933 257.08 7.83467 257.752 7.696C258.435 7.55733 259.363 7.488 260.536 7.488H261.256V8.336H260.552C259.688 8.336 259.005 8.37867 258.504 8.464C258.013 8.53867 257.667 8.672 257.464 8.864C257.272 9.056 257.176 9.328 257.176 9.68C257.176 10.1173 257.325 10.4747 257.624 10.752C257.933 11.0293 258.349 11.168 258.872 11.168C259.299 11.168 259.672 11.0667 259.992 10.864C260.323 10.6613 260.579 10.384 260.76 10.032C260.952 9.68 261.048 9.27467 261.048 8.816V6.992C261.048 6.33067 260.915 5.856 260.648 5.568C260.381 5.26933 259.944 5.12 259.336 5.12C258.963 5.12 258.589 5.168 258.216 5.264C257.843 5.36 257.448 5.51467 257.032 5.728C256.883 5.80267 256.755 5.82933 256.648 5.808C256.541 5.776 256.456 5.71733 256.392 5.632C256.328 5.54667 256.291 5.45067 256.28 5.344C256.269 5.22667 256.291 5.11467 256.344 5.008C256.408 4.90133 256.504 4.816 256.632 4.752C257.101 4.51733 257.565 4.34667 258.024 4.24C258.483 4.13333 258.92 4.08 259.336 4.08C260.008 4.08 260.563 4.192 261 4.416C261.437 4.62933 261.763 4.96 261.976 5.408C262.189 5.84533 262.296 6.41067 262.296 7.104V11.44C262.296 11.6533 262.243 11.8187 262.136 11.936C262.04 12.0533 261.896 12.112 261.704 12.112C261.501 12.112 261.347 12.0533 261.24 11.936C261.133 11.8187 261.08 11.6533 261.08 11.44V10.192H261.224C261.139 10.5973 260.973 10.944 260.728 11.232C260.493 11.52 260.2 11.744 259.848 11.904C259.496 12.064 259.101 12.144 258.664 12.144ZM267.068 12.144C266.3 12.144 265.714 11.9093 265.308 11.44C264.903 10.9707 264.7 10.2987 264.7 9.424V1.264C264.7 1.05067 264.754 0.890666 264.86 0.783999C264.967 0.666666 265.127 0.608 265.34 0.608C265.543 0.608 265.703 0.666666 265.82 0.783999C265.938 0.890666 265.996 1.05067 265.996 1.264V9.328C265.996 9.904 266.108 10.336 266.332 10.624C266.567 10.9013 266.908 11.04 267.356 11.04C267.452 11.04 267.538 11.0347 267.612 11.024C267.687 11.0133 267.762 11.008 267.836 11.008C267.954 10.9973 268.034 11.024 268.076 11.088C268.13 11.152 268.156 11.28 268.156 11.472C268.156 11.664 268.114 11.808 268.028 11.904C267.943 12 267.804 12.064 267.612 12.096C267.527 12.1067 267.436 12.1173 267.34 12.128C267.244 12.1387 267.154 12.144 267.068 12.144ZM271.803 12.144C271.035 12.144 270.448 11.9093 270.043 11.44C269.637 10.9707 269.435 10.2987 269.435 9.424V1.264C269.435 1.05067 269.488 0.890666 269.595 0.783999C269.701 0.666666 269.861 0.608 270.075 0.608C270.277 0.608 270.437 0.666666 270.555 0.783999C270.672 0.890666 270.731 1.05067 270.731 1.264V9.328C270.731 9.904 270.843 10.336 271.067 10.624C271.301 10.9013 271.643 11.04 272.091 11.04C272.187 11.04 272.272 11.0347 272.347 11.024C272.421 11.0133 272.496 11.008 272.571 11.008C272.688 10.9973 272.768 11.024 272.811 11.088C272.864 11.152 272.891 11.28 272.891 11.472C272.891 11.664 272.848 11.808 272.763 11.904C272.677 12 272.539 12.064 272.347 12.096C272.261 12.1067 272.171 12.1173 272.075 12.128C271.979 12.1387 271.888 12.144 271.803 12.144ZM281.414 12.144C280.806 12.144 280.294 12.0373 279.878 11.824C279.473 11.6 279.169 11.28 278.966 10.864C278.763 10.4373 278.662 9.92 278.662 9.312V5.232H277.59C277.409 5.232 277.27 5.18933 277.174 5.104C277.078 5.008 277.03 4.88 277.03 4.72C277.03 4.56 277.078 4.43733 277.174 4.352C277.27 4.26667 277.409 4.224 277.59 4.224H278.662V2.384C278.662 2.17067 278.721 2.01067 278.838 1.904C278.955 1.78667 279.115 1.728 279.318 1.728C279.521 1.728 279.675 1.78667 279.782 1.904C279.899 2.01067 279.958 2.17067 279.958 2.384V4.224H281.974C282.155 4.224 282.294 4.26667 282.39 4.352C282.486 4.43733 282.534 4.56 282.534 4.72C282.534 4.88 282.486 5.008 282.39 5.104C282.294 5.18933 282.155 5.232 281.974 5.232H279.958V9.184C279.958 9.792 280.086 10.256 280.342 10.576C280.598 10.8853 281.014 11.04 281.59 11.04C281.793 11.04 281.963 11.0187 282.102 10.976C282.251 10.9333 282.374 10.912 282.47 10.912C282.566 10.9013 282.646 10.9333 282.71 11.008C282.774 11.0827 282.806 11.2107 282.806 11.392C282.806 11.52 282.779 11.6373 282.726 11.744C282.683 11.8507 282.603 11.9253 282.486 11.968C282.358 12.0107 282.187 12.048 281.974 12.08C281.771 12.1227 281.585 12.144 281.414 12.144ZM284.622 12.112C284.408 12.112 284.248 12.0533 284.142 11.936C284.035 11.8187 283.982 11.6533 283.982 11.44V1.264C283.982 1.05067 284.035 0.890666 284.142 0.783999C284.248 0.666666 284.408 0.608 284.622 0.608C284.824 0.608 284.984 0.666666 285.102 0.783999C285.219 0.890666 285.278 1.05067 285.278 1.264V5.952H285.07C285.294 5.33333 285.656 4.86933 286.158 4.56C286.67 4.24 287.256 4.08 287.918 4.08C288.536 4.08 289.048 4.192 289.454 4.416C289.87 4.64 290.179 4.98133 290.382 5.44C290.584 5.888 290.686 6.45867 290.686 7.152V11.44C290.686 11.6533 290.627 11.8187 290.51 11.936C290.403 12.0533 290.248 12.112 290.046 12.112C289.832 12.112 289.667 12.0533 289.55 11.936C289.443 11.8187 289.39 11.6533 289.39 11.44V7.232C289.39 6.50667 289.246 5.97867 288.958 5.648C288.68 5.30667 288.232 5.136 287.614 5.136C286.899 5.136 286.328 5.36 285.902 5.808C285.486 6.24533 285.278 6.832 285.278 7.568V11.44C285.278 11.888 285.059 12.112 284.622 12.112ZM296.579 12.144C295.758 12.144 295.049 11.984 294.451 11.664C293.865 11.3333 293.406 10.8693 293.075 10.272C292.755 9.67467 292.595 8.96 292.595 8.128C292.595 7.31733 292.755 6.61333 293.075 6.016C293.395 5.408 293.833 4.93333 294.387 4.592C294.953 4.25067 295.603 4.08 296.339 4.08C296.862 4.08 297.331 4.17067 297.747 4.352C298.163 4.52267 298.515 4.77333 298.803 5.104C299.102 5.43467 299.326 5.83467 299.475 6.304C299.635 6.77333 299.715 7.30133 299.715 7.888C299.715 8.05867 299.667 8.18667 299.571 8.272C299.475 8.34667 299.337 8.384 299.155 8.384H293.587V7.536H298.851L298.595 7.744C298.595 7.168 298.51 6.68267 298.339 6.288C298.169 5.88267 297.918 5.57333 297.587 5.36C297.267 5.14667 296.862 5.04 296.371 5.04C295.827 5.04 295.363 5.168 294.979 5.424C294.606 5.66933 294.323 6.016 294.131 6.464C293.939 6.90133 293.843 7.41333 293.843 8V8.096C293.843 9.07733 294.078 9.824 294.547 10.336C295.027 10.848 295.705 11.104 296.579 11.104C296.942 11.104 297.299 11.056 297.651 10.96C298.014 10.864 298.366 10.704 298.707 10.48C298.857 10.384 298.99 10.3413 299.107 10.352C299.235 10.352 299.337 10.3893 299.411 10.464C299.486 10.528 299.534 10.6133 299.555 10.72C299.587 10.816 299.577 10.9227 299.523 11.04C299.481 11.1573 299.39 11.2587 299.251 11.344C298.899 11.6 298.483 11.7973 298.003 11.936C297.523 12.0747 297.049 12.144 296.579 12.144ZM306.772 12.112C306.569 12.112 306.409 12.0533 306.292 11.936C306.185 11.8187 306.132 11.6533 306.132 11.44V5.232H305.108C304.937 5.232 304.799 5.18933 304.692 5.104C304.596 5.008 304.548 4.88 304.548 4.72C304.548 4.56 304.596 4.43733 304.692 4.352C304.799 4.26667 304.937 4.224 305.108 4.224H306.484L306.132 4.56V3.952C306.132 2.93867 306.377 2.16533 306.868 1.632C307.369 1.09867 308.1 0.789333 309.06 0.704L309.524 0.655999C309.673 0.645333 309.791 0.671999 309.876 0.735999C309.972 0.8 310.031 0.88 310.052 0.976C310.084 1.072 310.089 1.17333 310.068 1.28C310.047 1.376 309.999 1.46133 309.924 1.536C309.849 1.61067 309.759 1.65333 309.652 1.664L309.284 1.696C308.633 1.74933 308.159 1.94667 307.86 2.288C307.572 2.62933 307.428 3.13067 307.428 3.792V4.464L307.236 4.224H309.156C309.337 4.224 309.476 4.26667 309.572 4.352C309.668 4.43733 309.716 4.56 309.716 4.72C309.716 4.88 309.668 5.008 309.572 5.104C309.476 5.18933 309.337 5.232 309.156 5.232H307.428V11.44C307.428 11.888 307.209 12.112 306.772 12.112ZM313.414 12.144C312.881 12.144 312.401 12.0427 311.974 11.84C311.558 11.6267 311.227 11.3387 310.982 10.976C310.737 10.6133 310.614 10.208 310.614 9.76C310.614 9.184 310.758 8.73067 311.046 8.4C311.345 8.06933 311.83 7.83467 312.502 7.696C313.185 7.55733 314.113 7.488 315.286 7.488H316.006V8.336H315.302C314.438 8.336 313.755 8.37867 313.254 8.464C312.763 8.53867 312.417 8.672 312.214 8.864C312.022 9.056 311.926 9.328 311.926 9.68C311.926 10.1173 312.075 10.4747 312.374 10.752C312.683 11.0293 313.099 11.168 313.622 11.168C314.049 11.168 314.422 11.0667 314.742 10.864C315.073 10.6613 315.329 10.384 315.51 10.032C315.702 9.68 315.798 9.27467 315.798 8.816V6.992C315.798 6.33067 315.665 5.856 315.398 5.568C315.131 5.26933 314.694 5.12 314.086 5.12C313.713 5.12 313.339 5.168 312.966 5.264C312.593 5.36 312.198 5.51467 311.782 5.728C311.633 5.80267 311.505 5.82933 311.398 5.808C311.291 5.776 311.206 5.71733 311.142 5.632C311.078 5.54667 311.041 5.45067 311.03 5.344C311.019 5.22667 311.041 5.11467 311.094 5.008C311.158 4.90133 311.254 4.816 311.382 4.752C311.851 4.51733 312.315 4.34667 312.774 4.24C313.233 4.13333 313.67 4.08 314.086 4.08C314.758 4.08 315.313 4.192 315.75 4.416C316.187 4.62933 316.513 4.96 316.726 5.408C316.939 5.84533 317.046 6.41067 317.046 7.104V11.44C317.046 11.6533 316.993 11.8187 316.886 11.936C316.79 12.0533 316.646 12.112 316.454 12.112C316.251 12.112 316.097 12.0533 315.99 11.936C315.883 11.8187 315.83 11.6533 315.83 11.44V10.192H315.974C315.889 10.5973 315.723 10.944 315.478 11.232C315.243 11.52 314.95 11.744 314.598 11.904C314.246 12.064 313.851 12.144 313.414 12.144ZM322.746 12.144C321.968 12.144 321.296 11.9733 320.73 11.632C320.165 11.2907 319.728 10.816 319.418 10.208C319.12 9.58933 318.97 8.87467 318.97 8.064C318.97 7.44533 319.056 6.89067 319.226 6.4C319.397 5.90933 319.648 5.49333 319.978 5.152C320.309 4.8 320.704 4.53333 321.162 4.352C321.632 4.17067 322.16 4.08 322.746 4.08C323.13 4.08 323.53 4.13867 323.946 4.256C324.362 4.37333 324.741 4.576 325.082 4.864C325.189 4.93867 325.258 5.02933 325.29 5.136C325.322 5.24267 325.322 5.34933 325.29 5.456C325.258 5.552 325.205 5.63733 325.13 5.712C325.056 5.776 324.96 5.81333 324.842 5.824C324.736 5.83467 324.624 5.79733 324.506 5.712C324.229 5.49867 323.946 5.34933 323.658 5.264C323.37 5.17867 323.093 5.136 322.826 5.136C322.41 5.136 322.048 5.20533 321.738 5.344C321.429 5.472 321.168 5.65867 320.954 5.904C320.741 6.14933 320.576 6.45333 320.458 6.816C320.352 7.17867 320.298 7.6 320.298 8.08C320.298 9.008 320.517 9.744 320.954 10.288C321.392 10.8213 322.016 11.088 322.826 11.088C323.093 11.088 323.365 11.0453 323.642 10.96C323.93 10.8747 324.218 10.7253 324.506 10.512C324.624 10.4267 324.736 10.3893 324.842 10.4C324.949 10.4107 325.04 10.4533 325.114 10.528C325.189 10.592 325.237 10.6773 325.258 10.784C325.29 10.8907 325.29 10.9973 325.258 11.104C325.226 11.2 325.157 11.2853 325.05 11.36C324.709 11.6373 324.336 11.84 323.93 11.968C323.525 12.0853 323.13 12.144 322.746 12.144ZM330.204 12.144C329.383 12.144 328.674 11.984 328.076 11.664C327.49 11.3333 327.031 10.8693 326.7 10.272C326.38 9.67467 326.22 8.96 326.22 8.128C326.22 7.31733 326.38 6.61333 326.7 6.016C327.02 5.408 327.458 4.93333 328.012 4.592C328.578 4.25067 329.228 4.08 329.964 4.08C330.487 4.08 330.956 4.17067 331.372 4.352C331.788 4.52267 332.14 4.77333 332.428 5.104C332.727 5.43467 332.951 5.83467 333.1 6.304C333.26 6.77333 333.34 7.30133 333.34 7.888C333.34 8.05867 333.292 8.18667 333.196 8.272C333.1 8.34667 332.962 8.384 332.78 8.384H327.212V7.536H332.476L332.22 7.744C332.22 7.168 332.135 6.68267 331.964 6.288C331.794 5.88267 331.543 5.57333 331.212 5.36C330.892 5.14667 330.487 5.04 329.996 5.04C329.452 5.04 328.988 5.168 328.604 5.424C328.231 5.66933 327.948 6.016 327.756 6.464C327.564 6.90133 327.468 7.41333 327.468 8V8.096C327.468 9.07733 327.703 9.824 328.172 10.336C328.652 10.848 329.33 11.104 330.204 11.104C330.567 11.104 330.924 11.056 331.276 10.96C331.639 10.864 331.991 10.704 332.332 10.48C332.482 10.384 332.615 10.3413 332.732 10.352C332.86 10.352 332.962 10.3893 333.036 10.464C333.111 10.528 333.159 10.6133 333.18 10.72C333.212 10.816 333.202 10.9227 333.148 11.04C333.106 11.1573 333.015 11.2587 332.876 11.344C332.524 11.6 332.108 11.7973 331.628 11.936C331.148 12.0747 330.674 12.144 330.204 12.144ZM337.84 12.144C337.36 12.144 336.875 12.0853 336.384 11.968C335.904 11.8507 335.456 11.648 335.04 11.36C334.933 11.2853 334.859 11.2 334.816 11.104C334.773 10.9973 334.757 10.896 334.768 10.8C334.789 10.6933 334.832 10.6027 334.896 10.528C334.971 10.4533 335.056 10.4107 335.152 10.4C335.259 10.3787 335.376 10.4 335.504 10.464C335.92 10.72 336.32 10.9013 336.704 11.008C337.099 11.104 337.488 11.152 337.872 11.152C338.48 11.152 338.939 11.04 339.248 10.816C339.557 10.592 339.712 10.288 339.712 9.904C339.712 9.60533 339.611 9.37067 339.408 9.2C339.205 9.01867 338.885 8.88 338.448 8.784L336.992 8.464C336.32 8.32533 335.819 8.08533 335.488 7.744C335.168 7.40267 335.008 6.96 335.008 6.416C335.008 5.936 335.131 5.52533 335.376 5.184C335.632 4.832 335.989 4.56 336.448 4.368C336.907 4.176 337.44 4.08 338.048 4.08C338.517 4.08 338.96 4.144 339.376 4.272C339.803 4.38933 340.187 4.58133 340.528 4.848C340.635 4.92267 340.704 5.01333 340.736 5.12C340.779 5.216 340.784 5.31733 340.752 5.424C340.731 5.52 340.683 5.60533 340.608 5.68C340.533 5.744 340.443 5.78133 340.336 5.792C340.229 5.80267 340.117 5.77067 340 5.696C339.68 5.48267 339.355 5.328 339.024 5.232C338.693 5.12533 338.368 5.072 338.048 5.072C337.451 5.072 336.997 5.18933 336.688 5.424C336.379 5.65867 336.224 5.968 336.224 6.352C336.224 6.65067 336.32 6.896 336.512 7.088C336.704 7.28 337.003 7.41867 337.408 7.504L338.864 7.808C339.557 7.95733 340.075 8.19733 340.416 8.528C340.768 8.848 340.944 9.28533 340.944 9.84C340.944 10.544 340.661 11.104 340.096 11.52C339.531 11.936 338.779 12.144 337.84 12.144Z" fill="#646464"/>
</svg>
