<svg width="32" height="32" viewBox="0 0 32 32" fill="none" xmlns="http://www.w3.org/2000/svg">
<g clip-path="url(#clip0_1050_132011)">
<circle cx="16" cy="16" r="15.5" fill="#1A1A1A" stroke="#1A1A1A"/>
<path d="M23.001 17.6744V19.0004H21.675L20.001 17.3264L18.327 19.0004H17.001V17.6744L18.675 16.0004L17.001 14.3264V13.0004H18.327L20.001 14.6744L21.675 13.0004H23.001V14.3264L21.327 16.0004L23.001 17.6744ZM14.501 23.0004C14.3684 23.0002 14.2412 22.9477 14.147 22.8544L10.293 19.0004H8.5C8.36739 19.0004 8.24021 18.9477 8.14645 18.8539C8.05268 18.7602 8 18.633 8 18.5004V13.5004C8 13.3678 8.05268 13.2406 8.14645 13.1468C8.24021 13.0531 8.36739 13.0004 8.5 13.0004H10.293L14.147 9.14638C14.2167 9.07578 14.3059 9.02757 14.4032 9.00792C14.5005 8.98828 14.6014 8.99808 14.6931 9.03608C14.7848 9.07408 14.863 9.13855 14.9179 9.22126C14.9727 9.30396 15.0017 9.40114 15.001 9.50038V22.5004C15.001 22.633 14.9483 22.7602 14.8546 22.8539C14.7608 22.9477 14.6336 23.0004 14.501 23.0004Z" fill="white"/>
</g>
<defs>
<clipPath id="clip0_1050_132011">
<rect width="32" height="32" fill="white"/>
</clipPath>
</defs>
</svg>
