<svg width="100" height="32" viewBox="0 0 100 32" fill="none" xmlns="http://www.w3.org/2000/svg">
<path d="M21.4219 7V12H16.4219" stroke="#1A1A1A" stroke-width="2" stroke-linecap="round" stroke-linejoin="round"/>
<path d="M21.3719 16.9996C21.1504 19.0054 20.2612 20.8786 18.8471 22.3183C17.433 23.758 15.5761 24.6807 13.5746 24.9382C11.5731 25.1956 9.54309 24.773 7.81067 23.7381C6.07824 22.7031 4.7439 21.116 4.02193 19.2316C3.29997 17.3471 3.23228 15.2747 3.82974 13.3472C4.42719 11.4196 5.65512 9.74881 7.31632 8.60304C8.97752 7.45728 10.9756 6.90305 12.9896 7.02938C15.0037 7.1557 16.9169 7.95525 18.4219 9.29961L21.4219 11.9996" stroke="#1A1A1A" stroke-width="2" stroke-linecap="round" stroke-linejoin="round"/>
<path d="M39.8606 24.192C39.3646 24.192 38.9806 24.056 38.7086 23.784C38.4526 23.496 38.3246 23.104 38.3246 22.608V8.64C38.3246 8.128 38.4606 7.744 38.7326 7.488C39.0046 7.216 39.3886 7.08 39.8846 7.08H45.6686C47.5246 7.08 48.9566 7.528 49.9646 8.424C50.9726 9.304 51.4766 10.544 51.4766 12.144C51.4766 13.184 51.2446 14.08 50.7806 14.832C50.3326 15.584 49.6766 16.16 48.8126 16.56C47.9486 16.96 46.9006 17.16 45.6686 17.16L45.8846 16.8H46.6766C47.3326 16.8 47.9006 16.96 48.3806 17.28C48.8766 17.6 49.3086 18.104 49.6766 18.792L51.4766 22.128C51.6686 22.464 51.7566 22.792 51.7406 23.112C51.7246 23.432 51.6046 23.696 51.3806 23.904C51.1566 24.096 50.8286 24.192 50.3966 24.192C49.9646 24.192 49.6126 24.104 49.3406 23.928C49.0686 23.736 48.8286 23.448 48.6206 23.064L46.1966 18.6C45.9086 18.056 45.5646 17.696 45.1646 17.52C44.7806 17.328 44.2846 17.232 43.6766 17.232H41.3966V22.608C41.3966 23.104 41.2686 23.496 41.0126 23.784C40.7566 24.056 40.3726 24.192 39.8606 24.192ZM41.3966 14.952H45.1406C46.2446 14.952 47.0766 14.728 47.6366 14.28C48.2126 13.816 48.5006 13.128 48.5006 12.216C48.5006 11.32 48.2126 10.648 47.6366 10.2C47.0766 9.736 46.2446 9.504 45.1406 9.504H41.3966V14.952ZM59.969 24.24C58.641 24.24 57.497 23.992 56.537 23.496C55.577 23 54.833 22.296 54.305 21.384C53.793 20.472 53.537 19.392 53.537 18.144C53.537 16.928 53.785 15.864 54.281 14.952C54.793 14.04 55.489 13.328 56.369 12.816C57.265 12.288 58.281 12.024 59.417 12.024C60.249 12.024 60.993 12.16 61.649 12.432C62.321 12.704 62.889 13.096 63.353 13.608C63.833 14.12 64.193 14.744 64.433 15.48C64.689 16.2 64.817 17.016 64.817 17.928C64.817 18.216 64.713 18.44 64.505 18.6C64.313 18.744 64.033 18.816 63.665 18.816H55.961V17.088H62.705L62.321 17.448C62.321 16.712 62.209 16.096 61.985 15.6C61.777 15.104 61.465 14.728 61.049 14.472C60.649 14.2 60.145 14.064 59.537 14.064C58.865 14.064 58.289 14.224 57.809 14.544C57.345 14.848 56.985 15.288 56.729 15.864C56.489 16.424 56.369 17.096 56.369 17.88V18.048C56.369 19.36 56.673 20.344 57.281 21C57.905 21.64 58.817 21.96 60.017 21.96C60.433 21.96 60.897 21.912 61.409 21.816C61.937 21.704 62.433 21.52 62.897 21.264C63.233 21.072 63.529 20.992 63.785 21.024C64.041 21.04 64.241 21.128 64.385 21.288C64.545 21.448 64.641 21.648 64.673 21.888C64.705 22.112 64.657 22.344 64.529 22.584C64.417 22.824 64.217 23.032 63.929 23.208C63.369 23.56 62.721 23.824 61.985 24C61.265 24.16 60.593 24.24 59.969 24.24ZM71.4888 24.24C70.8008 24.24 70.0728 24.168 69.3048 24.024C68.5368 23.88 67.8488 23.632 67.2408 23.28C66.9848 23.12 66.8008 22.936 66.6888 22.728C66.5928 22.504 66.5528 22.288 66.5688 22.08C66.6008 21.856 66.6808 21.664 66.8088 21.504C66.9528 21.344 67.1288 21.24 67.3368 21.192C67.5608 21.144 67.8008 21.184 68.0568 21.312C68.6968 21.616 69.2968 21.832 69.8568 21.96C70.4168 22.072 70.9688 22.128 71.5128 22.128C72.2808 22.128 72.8488 22 73.2168 21.744C73.6008 21.472 73.7928 21.12 73.7928 20.688C73.7928 20.32 73.6648 20.04 73.4088 19.848C73.1688 19.64 72.8008 19.488 72.3048 19.392L69.9048 18.936C68.9128 18.744 68.1528 18.384 67.6248 17.856C67.1128 17.312 66.8568 16.616 66.8568 15.768C66.8568 15 67.0648 14.336 67.4808 13.776C67.9128 13.216 68.5048 12.784 69.2568 12.48C70.0088 12.176 70.8728 12.024 71.8488 12.024C72.5528 12.024 73.2088 12.104 73.8168 12.264C74.4408 12.408 75.0408 12.64 75.6168 12.96C75.8568 13.088 76.0168 13.256 76.0968 13.464C76.1928 13.672 76.2168 13.888 76.1688 14.112C76.1208 14.32 76.0248 14.512 75.8808 14.688C75.7368 14.848 75.5528 14.952 75.3288 15C75.1208 15.032 74.8808 14.984 74.6088 14.856C74.1128 14.6 73.6328 14.416 73.1688 14.304C72.7208 14.192 72.2888 14.136 71.8728 14.136C71.0888 14.136 70.5048 14.272 70.1208 14.544C69.7528 14.816 69.5688 15.176 69.5688 15.624C69.5688 15.96 69.6808 16.24 69.9048 16.464C70.1288 16.688 70.4728 16.84 70.9368 16.92L73.3368 17.376C74.3768 17.568 75.1608 17.92 75.6888 18.432C76.2328 18.944 76.5048 19.632 76.5048 20.496C76.5048 21.664 76.0488 22.584 75.1368 23.256C74.2248 23.912 73.0088 24.24 71.4888 24.24ZM84.6956 24.24C83.3676 24.24 82.2236 23.992 81.2636 23.496C80.3036 23 79.5596 22.296 79.0316 21.384C78.5196 20.472 78.2636 19.392 78.2636 18.144C78.2636 16.928 78.5116 15.864 79.0076 14.952C79.5196 14.04 80.2156 13.328 81.0956 12.816C81.9916 12.288 83.0076 12.024 84.1436 12.024C84.9756 12.024 85.7196 12.16 86.3756 12.432C87.0476 12.704 87.6156 13.096 88.0796 13.608C88.5596 14.12 88.9196 14.744 89.1596 15.48C89.4156 16.2 89.5436 17.016 89.5436 17.928C89.5436 18.216 89.4396 18.44 89.2316 18.6C89.0396 18.744 88.7596 18.816 88.3916 18.816H80.6876V17.088H87.4316L87.0476 17.448C87.0476 16.712 86.9356 16.096 86.7116 15.6C86.5036 15.104 86.1916 14.728 85.7756 14.472C85.3756 14.2 84.8716 14.064 84.2636 14.064C83.5916 14.064 83.0156 14.224 82.5356 14.544C82.0716 14.848 81.7116 15.288 81.4556 15.864C81.2156 16.424 81.0956 17.096 81.0956 17.88V18.048C81.0956 19.36 81.3996 20.344 82.0076 21C82.6316 21.64 83.5436 21.96 84.7436 21.96C85.1596 21.96 85.6236 21.912 86.1356 21.816C86.6636 21.704 87.1596 21.52 87.6236 21.264C87.9596 21.072 88.2556 20.992 88.5116 21.024C88.7676 21.04 88.9676 21.128 89.1116 21.288C89.2716 21.448 89.3676 21.648 89.3996 21.888C89.4316 22.112 89.3836 22.344 89.2556 22.584C89.1436 22.824 88.9436 23.032 88.6556 23.208C88.0956 23.56 87.4476 23.824 86.7116 24C85.9916 24.16 85.3196 24.24 84.6956 24.24ZM97.2485 24.24C96.2085 24.24 95.3365 24.064 94.6325 23.712C93.9445 23.36 93.4325 22.848 93.0965 22.176C92.7605 21.488 92.5925 20.64 92.5925 19.632V14.52H91.3445C90.9605 14.52 90.6645 14.424 90.4565 14.232C90.2485 14.024 90.1445 13.744 90.1445 13.392C90.1445 13.024 90.2485 12.744 90.4565 12.552C90.6645 12.36 90.9605 12.264 91.3445 12.264H92.5925V10.08C92.5925 9.584 92.7205 9.208 92.9765 8.952C93.2485 8.696 93.6245 8.568 94.1045 8.568C94.5845 8.568 94.9525 8.696 95.2085 8.952C95.4645 9.208 95.5925 9.584 95.5925 10.08V12.264H98.1365C98.5205 12.264 98.8165 12.36 99.0245 12.552C99.2325 12.744 99.3365 13.024 99.3365 13.392C99.3365 13.744 99.2325 14.024 99.0245 14.232C98.8165 14.424 98.5205 14.52 98.1365 14.52H95.5925V19.464C95.5925 20.232 95.7605 20.808 96.0965 21.192C96.4325 21.576 96.9765 21.768 97.7285 21.768C98.0005 21.768 98.2405 21.744 98.4485 21.696C98.6565 21.648 98.8405 21.616 99.0005 21.6C99.1925 21.584 99.3525 21.648 99.4805 21.792C99.6085 21.92 99.6725 22.192 99.6725 22.608C99.6725 22.928 99.6165 23.216 99.5045 23.472C99.4085 23.712 99.2245 23.88 98.9525 23.976C98.7445 24.04 98.4725 24.096 98.1365 24.144C97.8005 24.208 97.5045 24.24 97.2485 24.24Z" fill="#212121"/>
</svg>
