<svg width="100" height="100" viewBox="0 0 100 100" fill="none" xmlns="http://www.w3.org/2000/svg">
<path d="M81.8886 19.3792C81.8886 19.3792 81.915 19.7448 81.923 20.4116L81.9261 20.6761C81.9267 20.7696 81.9312 20.8626 81.9214 20.9811C81.901 21.2284 81.8805 21.4757 81.8599 21.7229C81.8353 21.9888 81.8123 22.288 81.7779 22.587C81.7425 22.8806 81.7087 23.1962 81.6623 23.5261C81.4445 25.1212 81.1131 26.6988 80.6705 28.2468C80.1609 30.0452 79.4441 32.046 78.4568 34.1534C77.473 36.2622 76.2041 38.4649 74.6472 40.6683C74.4584 40.9493 74.2509 41.2163 74.0468 41.4907L73.7375 41.9024L73.5816 42.1095L73.5425 42.1614C73.6654 42.0483 73.3529 42.3448 73.3795 42.322L73.3632 42.3436L73.2982 42.4302C72.9533 42.8942 72.5896 43.3481 72.23 43.8157L72.1961 43.8595L72.1482 43.9134L72.0517 44.0216L71.858 44.2384L71.4627 44.6686L70.6574 45.5335L70.4539 45.7499L70.2627 45.9458C70.135 46.0773 70.0058 46.2073 69.875 46.3356L69.0861 47.1149C66.9519 49.1823 64.5281 51.1077 61.8955 52.8175C59.2261 54.5459 56.3972 56.0144 53.4474 57.2026C50.4956 58.3952 47.4378 59.3062 44.3146 59.9237C41.2271 60.5304 38.1361 60.8341 35.1521 60.8493C32.1675 60.8657 29.2927 60.6003 26.6214 60.1239C25.2845 59.897 24.0005 59.5872 22.773 59.2686C21.5486 58.92 20.3785 58.569 19.2796 58.1515L18.4644 57.8538C18.1964 57.755 17.9361 57.6366 17.6775 57.5308C17.1607 57.3159 16.6599 57.0997 16.1759 56.8829C15.6937 56.6593 15.23 56.4265 14.7822 56.2003L14.122 55.8659C13.9058 55.7563 13.6986 55.6306 13.4925 55.5165C12.6716 55.0481 11.9119 54.6138 11.2371 54.1532C10.5595 53.7009 9.94274 53.2927 9.41012 52.8749L8.65621 52.2897L8.00465 51.7593C7.60719 51.419 7.27945 51.1147 7.015 50.8692C6.48668 50.3782 6.21969 50.0977 6.21969 50.0977C3.73473 47.4866 3.83707 43.3556 6.4482 40.8706C7.49495 39.8712 8.84536 39.2499 10.2853 39.1052L11.0681 39.0261C11.0681 39.0261 11.3963 38.9929 11.9838 38.9651C12.2773 38.9515 12.6377 38.9329 13.049 38.9286L13.7199 38.8893L14.4656 38.8608C14.983 38.8559 15.5634 38.8054 16.1744 38.7856C16.7834 38.7731 17.4468 38.711 18.1334 38.6835C18.8211 38.653 19.5527 38.5768 20.3009 38.5419C21.0593 38.4601 21.8349 38.4253 22.6423 38.3308L23.25 38.2704L23.5558 38.2454L23.8654 38.2071L24.4896 38.1308L25.1187 38.0669C25.5423 38.005 25.9697 37.9448 26.3998 37.8962L26.7232 37.8563L27.049 37.8024L27.7037 37.7069C29.4566 37.4413 31.2627 37.1194 33.0937 36.7265C36.7562 35.9456 40.5191 34.8827 44.1898 33.5212C46.0228 32.8392 47.831 32.0924 49.6109 31.2819C51.3865 30.4782 53.1154 29.6085 54.7996 28.7141L55.4228 28.3698C55.5263 28.3122 55.6306 28.2558 55.7367 28.2015L55.8949 28.1192L56.03 28.0462L56.5697 27.7579L56.8418 27.6159L56.9804 27.5477L57.0498 27.5138L57.0847 27.4966L57.131 27.4663C57.6257 27.145 58.107 26.8184 58.5972 26.5116L58.6886 26.4538L58.7115 26.4393C58.7511 26.4044 58.4513 26.6888 58.5869 26.5632L58.6236 26.5405L58.7705 26.4503L59.0638 26.2706L59.6474 25.912C61.19 24.9503 62.6705 23.9835 64.0414 23.0257C65.3255 22.1306 66.5924 21.211 67.8414 20.2675C68.9951 19.402 70.0125 18.5977 70.8736 17.9204C71.0851 17.7491 71.2955 17.5901 71.4896 17.437C71.681 17.2878 71.8576 17.1602 72.0252 17.0327L72.4921 16.6809C72.565 16.6331 72.6406 16.564 72.7111 16.5042L72.9119 16.3321C73.4183 15.8983 73.7105 15.6768 73.7105 15.6768C75.9584 13.9731 79.1617 14.4143 80.8654 16.6622C81.4644 17.4486 81.8201 18.3931 81.8886 19.3792Z" fill="#DA9931"/>
<path d="M8.50262 44.8841C7.70301 46.7099 6.99501 46.9515 5.11688 46.129C3.23856 45.3066 2.93602 44.6224 3.73544 42.7966C4.53485 40.9708 9.30223 43.0583 8.50262 44.8841Z" fill="#B28E7F"/>
<path d="M86.018 21.7249C86.018 21.7249 86.1055 22.1292 86.2206 22.8732L86.2661 23.1683C86.2817 23.2728 86.3014 23.3759 86.3094 23.5099L86.3586 24.3485C86.3733 24.6495 86.3954 24.9874 86.4043 25.3271C86.4114 25.6607 86.4239 26.0187 86.4245 26.3948C86.4348 28.2119 86.3152 30.0274 86.0666 31.8275C85.7831 33.9181 85.3002 36.2677 84.5321 38.7794C83.768 41.2921 82.7002 43.9554 81.311 46.6648C81.1446 47.0087 80.9553 47.3401 80.7707 47.6792L80.4907 48.1886L80.3495 48.4446L80.3139 48.5089C80.4332 48.363 80.1311 48.7441 80.1571 48.7142L80.1424 48.7409L80.0836 48.848C79.7721 49.4214 79.4377 49.9864 79.1102 50.5661L79.0793 50.6202L79.0344 50.688L78.9438 50.8241L78.7618 51.0972L78.3885 51.6407L77.6262 52.7351L77.4332 53.0093L77.2506 53.2585C77.1293 53.4255 77.0051 53.5907 76.8795 53.7556L76.1219 54.7517C74.0659 57.4011 71.6635 59.9378 68.9936 62.2669C66.2857 64.6227 63.358 66.7132 60.2508 68.5099C57.142 70.3116 53.87 71.8158 50.4784 73.0025C47.1248 74.171 43.7192 75.0019 40.3871 75.4933C37.0547 75.9862 33.8002 76.1464 30.7395 76.0388C29.2096 75.9976 27.7256 75.8558 26.3032 75.6948C24.8797 75.4999 23.5162 75.2937 22.2221 75.0019L21.2639 74.7989C20.9489 74.7312 20.6391 74.6403 20.3332 74.563C19.7374 74.4094 19.1438 74.2476 18.5524 74.0778C17.978 73.9046 17.4229 73.7183 16.8864 73.5366L16.0955 73.2679C15.8366 73.1798 15.585 73.0722 15.3366 72.9776C14.8576 72.7908 14.381 72.5981 13.9067 72.3997C13.4479 72.2198 13.0149 72.0077 12.5996 71.8128C11.7705 71.4152 11.0164 71.0569 10.3549 70.6747C9.76618 70.3451 9.18309 70.0054 8.6059 69.656C8.18593 69.3822 7.77045 69.1016 7.35961 68.8144C6.69125 68.3495 6.34828 68.0786 6.34828 68.0786C3.15648 65.556 2.6141 60.9235 5.13676 57.7318C6.14752 56.4487 7.55766 55.5398 9.14359 55.1491L10.0057 54.9362C10.0057 54.9362 10.367 54.8468 11.0192 54.7226C11.345 54.6609 11.7446 54.5833 12.2047 54.5079C12.669 54.414 13.1961 54.3132 13.7758 54.2114C14.3532 54.1237 14.9938 53.9749 15.6733 53.8558C16.3518 53.745 17.0832 53.5702 17.8461 53.4302C18.6098 53.2868 19.4153 53.0855 20.2457 52.9275C20.668 52.8227 21.0919 52.7244 21.5172 52.6325C21.9475 52.5421 22.3852 52.4271 22.8286 52.3193L23.4979 52.1552L23.8356 52.0786L24.1754 51.9866L24.8606 51.8021L25.5534 51.6308L26.252 51.4273C26.6055 51.3314 26.9591 51.2357 27.3127 51.1402L27.6682 51.0282C27.9057 50.9544 28.145 50.8878 28.3846 50.8173C30.301 50.2419 32.268 49.595 34.2514 48.8648C38.22 47.4101 42.2555 45.6241 46.1407 43.5191C48.0805 42.4657 49.9822 41.3436 51.8422 40.155C53.6985 38.9747 55.4922 37.728 57.2319 36.4608L57.8737 35.9769C57.9802 35.8956 58.0882 35.8163 58.1975 35.7388L58.3612 35.6218L58.5006 35.5187L59.0579 35.1107L59.3393 34.9087L59.4834 34.8105L59.5557 34.7614L59.592 34.7366L59.6389 34.6954C60.1407 34.2577 60.6266 33.8163 61.1254 33.3954L61.2184 33.3161L61.2416 33.2964C61.2805 33.2511 60.9907 33.6163 61.1219 33.4546L61.1594 33.4235L61.3092 33.2995L61.6084 33.0521L62.2036 32.5587C63.7743 31.2388 65.275 29.9234 66.6545 28.6351C67.947 27.4307 69.2164 26.2018 70.4621 24.9491C71.6137 23.7985 72.6227 22.7384 73.4772 21.8444C73.6862 21.6194 73.8959 21.4083 74.0887 21.2064C74.2789 21.0091 74.4559 20.8388 74.6229 20.6694L75.0887 20.2021C75.1623 20.137 75.236 20.0478 75.3051 19.9696L75.5022 19.7454C75.9993 19.1802 76.2905 18.8862 76.2905 18.8862C78.5313 16.6251 82.1809 16.6089 84.442 18.8497C85.2363 19.634 85.7841 20.6334 86.018 21.7249Z" fill="#EBAA39"/>
<path d="M8.07041 61.8909C7.46729 64.0581 1.8085 62.4833 2.41162 60.3161C3.01475 58.1489 3.76748 57.7663 5.99717 58.3868C8.22686 59.0073 8.67354 59.7235 8.07041 61.8909Z" fill="#A07562"/>
<path d="M82.7844 3.80843C82.5584 3.74643 82.3221 3.73127 82.09 3.7639C81.8491 3.55735 81.579 3.38743 81.2885 3.25961C80.1213 2.74847 78.8525 3.87699 78.2068 4.58441C76.242 6.73656 80.6637 9.55961 77.5217 14.758C77.0789 15.4905 77.4564 17.377 78.1322 17.6729C78.8945 18.0067 79.7928 17.7635 80.4604 17.1162C80.4412 17.1627 80.4232 17.2086 80.4033 17.2555C80.025 18.1444 80.7469 20.1922 81.549 20.4155C82.7402 20.7469 84.0373 19.9256 84.5641 18.5202C86.0449 14.5676 87.627 5.15609 82.7844 3.80843Z" fill="#8E6049"/>
<path d="M93.0335 18.8518C93.0335 18.8518 93.2346 19.1992 93.5667 19.8545L93.6983 20.1145C93.7444 20.207 93.7934 20.2947 93.8432 20.4234L94.1522 21.218C94.2604 21.5035 94.3868 21.8236 94.5018 22.1463C94.6128 22.4627 94.7358 22.8002 94.8548 23.1592C95.4348 24.8914 95.8969 26.661 96.2378 28.4557C96.6385 30.5398 96.9409 32.9338 97.0352 35.574C97.1337 38.2139 97.0026 41.0955 96.5932 44.1273C96.5503 44.5086 96.4827 44.8863 96.4215 45.2693L96.3272 45.8455L96.2794 46.1354L96.2673 46.208C96.3282 46.0193 96.1774 46.5064 96.1913 46.4666L96.1862 46.4965L96.1661 46.6162C96.0614 47.2564 95.9344 47.8977 95.8178 48.5496L95.8067 48.6107L95.7872 48.6904L95.7477 48.8504L95.668 49.1713C95.612 49.3856 95.556 49.5998 95.4999 49.8141L95.1518 51.1107L95.0628 51.4359L94.9747 51.7332C94.9162 51.9323 94.8556 52.1309 94.7928 52.3287L94.4165 53.5266C93.3682 56.7219 91.9827 59.9365 90.2768 63.0477C88.5453 66.1935 86.5239 69.1709 84.2387 71.9408C81.9477 74.7289 79.3889 77.2939 76.6704 79.5686C73.9522 81.8441 71.0737 83.8293 68.1456 85.4752C65.218 87.1232 62.2497 88.44 59.3682 89.4451C57.9325 89.9592 56.5038 90.3646 55.126 90.7326C53.7348 91.0686 52.3962 91.3746 51.0909 91.5777L50.1292 91.7402C49.8126 91.793 49.4928 91.8225 49.1813 91.8633C48.5571 91.9412 47.9481 92.0098 47.3553 92.0687C46.7602 92.1195 46.1784 92.152 45.6157 92.1824L44.7856 92.2264C44.5137 92.241 44.2417 92.2348 43.9772 92.2394C42.9161 92.2439 41.9333 92.2492 41.0188 92.1822C40.1063 92.1246 39.2774 92.0775 38.5254 91.9738L37.4643 91.8344L36.5335 91.692C35.9561 91.5885 35.467 91.482 35.0725 91.3961C34.2835 91.224 33.8669 91.1084 33.8669 91.1084C29.9878 90.0324 27.7155 86.0154 28.7915 82.1365C29.2583 80.4443 30.3223 78.9784 31.7866 78.0102L32.5061 77.5348C32.5061 77.5348 32.8116 77.3328 33.3766 76.9988C33.659 76.832 34.0049 76.6258 34.4092 76.4049L35.051 76.0135L35.7731 75.5914C36.2825 75.3127 36.8292 74.9545 37.4235 74.6092C38.02 74.2721 38.643 73.8557 39.3087 73.4592C39.9737 73.0594 40.6571 72.5896 41.3799 72.1492C42.087 71.6574 42.837 71.201 43.5852 70.6658L44.1544 70.274L44.4436 70.0814L44.7292 69.8736L45.3055 69.4555L45.8934 69.0455L46.4753 68.6035L47.0676 68.1689L47.3659 67.9504L47.6587 67.7168L48.2534 67.2586C49.8401 66.0219 51.4444 64.6918 53.0268 63.2711C54.609 61.8506 56.1762 60.3482 57.6885 58.7629C59.2016 57.1785 60.6583 55.5119 62.0487 53.7949C64.8217 50.3535 67.3081 46.6924 69.4421 43.0281L69.8327 42.3391C69.8973 42.2244 69.9631 42.1102 70.0319 41.9975L70.1337 41.8277L70.2174 41.6807L70.5538 41.0986L70.7253 40.8092L70.8147 40.6656L70.8596 40.5939L70.8821 40.5578L70.9087 40.5018C71.1954 39.9047 71.4678 39.3105 71.7575 38.7301L71.8112 38.6211L71.8247 38.5939C71.8448 38.5352 71.6999 39.0031 71.7661 38.7951L71.7874 38.7525L71.8727 38.5824L72.0436 38.2432L72.3827 37.5682C73.2696 35.7711 74.0881 34.0133 74.8047 32.3334C75.4744 30.7686 76.1129 29.1906 76.72 27.6004C77.2821 26.1436 77.7506 24.8262 78.1483 23.7176C78.2432 23.4406 78.3436 23.1762 78.4333 22.9264C78.5221 22.6828 78.6087 22.473 78.688 22.2652L78.9112 21.6916C78.9499 21.6109 78.9794 21.4998 79.009 21.4027L79.0934 21.1238C79.3063 20.4207 79.444 20.0436 79.444 20.0436C80.871 16.1369 85.1948 14.127 89.1012 15.5539C90.8227 16.1822 92.1803 17.3816 93.0335 18.8518Z" fill="#FAC761"/>
<path d="M91.6974 37.8217C91.6974 37.8217 91.8187 38.3848 91.9414 39.3588C91.9574 39.4807 91.9748 39.609 91.9884 39.7432L92.0111 39.9493L92.0218 40.1793C92.0381 40.4938 92.04 40.8338 92.0492 41.201C92.0537 41.5657 92.055 41.9633 92.0449 42.3698L91.9619 43.6274C91.9058 44.5094 91.7535 45.4461 91.5822 46.443C91.5443 46.694 91.4847 46.9412 91.4269 47.1928L91.2451 47.9559C91.1177 48.4696 90.9941 48.9991 90.8179 49.5182C90.6504 50.0507 90.4761 50.5811 90.2953 51.1092C90.0953 51.6371 89.8771 52.1655 89.6588 52.6995C89.5437 52.9635 89.4425 53.2364 89.3134 53.4955L88.933 54.2795L88.5431 55.0631C88.4164 55.3268 88.2732 55.5809 88.1263 55.8332C87.8381 56.3398 87.545 56.8437 87.2472 57.3448C86.9343 57.8298 86.6149 58.3106 86.2892 58.7871C85.9761 59.2674 85.6283 59.717 85.2857 60.1608C84.9386 60.6012 84.6099 61.0463 84.25 61.4545C83.5322 62.2727 82.8375 63.0584 82.1115 63.7401L81.5822 64.2493C81.407 64.4147 81.239 64.5815 81.0591 64.7321C80.7007 65.034 80.3644 65.3325 80.0259 65.6034C79.3675 66.1623 78.7156 66.6202 78.1386 67.0209C77.8482 67.2194 77.5808 67.4079 77.3246 67.5715C77.086 67.7177 76.8454 67.8604 76.6027 67.9996C76.264 68.1971 75.9206 68.3863 75.5728 68.5672C75.3314 68.6922 75.1998 68.7545 75.1998 68.7545C74.8983 68.8972 74.5595 68.9411 74.2317 68.8798C73.9039 68.8186 73.6038 68.6553 73.3742 68.4134C73.1446 68.1715 72.9973 67.8633 72.9533 67.5327C72.9093 67.2021 72.9708 66.8661 73.1291 66.5725L73.1564 66.5227L73.3486 66.1711C73.4765 65.9454 73.665 65.6168 73.916 65.2159C74.039 65.0127 74.1804 64.7944 74.3338 64.5575C74.4771 64.3108 74.6394 64.0528 74.8097 63.7756C75.1517 63.2229 75.5566 62.6239 75.963 61.9481C76.1666 61.6104 76.3949 61.2752 76.6211 60.9211C76.8418 60.5627 77.064 60.1901 77.3011 59.8157C77.7863 59.0747 78.2492 58.2659 78.7587 57.4582C78.8906 57.2592 79.0086 57.0491 79.1293 56.8389L79.5009 56.21L79.8834 55.5793C80.0132 55.3692 80.1269 55.1485 80.2523 54.9338C80.4945 54.4993 80.7523 54.0704 81.0029 53.6356C81.2396 53.1925 81.4813 52.7521 81.7277 52.3143C81.9832 51.8803 82.197 51.427 82.4349 50.987C82.6677 50.5448 82.9148 50.1108 83.124 49.6645C83.3434 49.2266 83.5666 48.7906 83.7937 48.3567C83.9949 47.9229 84.2023 47.4921 84.4158 47.0643C84.6349 46.6438 84.8162 46.2186 85.0093 45.8057L85.2988 45.1932C85.3981 44.9959 85.4908 44.7954 85.5767 44.592C85.7457 44.2022 85.9194 43.8145 86.0978 43.4289C86.2859 43.0563 86.4259 42.685 86.5779 42.3307L87.0302 41.3118C87.1744 40.992 87.2859 40.693 87.4134 40.4073C87.541 40.1231 87.6537 39.8534 87.772 39.6041L87.8576 39.42L87.9312 39.2262C87.9781 39.0998 88.0273 38.9799 88.0734 38.8661C88.4369 37.9539 88.6957 37.4393 88.6957 37.4393C88.8868 37.0592 89.2211 36.7705 89.625 36.6369C90.029 36.5032 90.4694 36.5355 90.8496 36.7266C91.2984 36.9516 91.5968 37.367 91.6974 37.8217Z" fill="#FFDF95"/>
<path d="M33.226 84.7172C33.4504 86.9557 32.8877 87.5851 30.585 87.816C28.2822 88.0469 27.6059 87.5416 27.3815 85.3031C27.1571 83.0646 27.7198 82.4351 30.0225 82.2043C32.3252 81.9734 33.0016 82.4787 33.226 84.7172Z" fill="#8E6049"/>
<path d="M86.6464 19.4069C87.8767 19.2836 88.7875 18.0477 88.7681 16.5467C88.714 12.3262 91.9601 5.77248 87.4849 3.48341C82.1871 0.773453 78.022 4.4963 77.7785 5.54943C77.0375 8.75392 82.6904 9.27091 84.4734 18.2352C84.6621 19.1824 85.8179 19.4899 86.6464 19.4069Z" fill="#966C5A"/>
<path d="M86.0176 9.85102C84.5939 12.1598 86.0191 19.47 86.6465 19.4071C87.8768 19.2836 91.1539 1.52133 86.0176 9.85102Z" fill="#18937E"/>
</svg>
