<svg width="155" height="336" viewBox="0 0 155 336" fill="none" xmlns="http://www.w3.org/2000/svg">
<path d="M92.4871 192.373H63.1445L69.2131 25.3711H86.4185L92.4871 192.373Z" fill="#A753B5"/>
<path d="M92.4871 11.665H63.1445L69.2131 25.3708H86.4185L92.4871 11.665Z" fill="#A753B5"/>
<g style="mix-blend-mode:multiply" opacity="0.3">
<path d="M92.4871 11.665H63.1445L69.2131 25.3708H86.4185L92.4871 11.665Z" fill="#A753B5"/>
</g>
<path d="M153.67 329.793C136.927 329.251 131.933 318.68 128.75 312.136C128.56 311.749 127.932 311.177 127.245 310.888L28.18 311.029C27.7501 311.341 27.6509 311.749 27.4442 312.128C24.1453 318.108 18.1842 323.91 2.467 329.385C2.21896 329.474 1.97919 329.623 1.78076 329.816H153.851C153.794 329.808 153.736 329.793 153.67 329.793Z" fill="#A753B5"/>
<path d="M1.48304 329.816C1.13579 330.151 0.904297 330.604 0.904297 331.027V334.363C0.904297 335.031 1.50784 335.574 2.25195 335.574H153.372C154.116 335.574 154.72 335.031 154.72 334.363V331.027C154.72 330.411 154.207 329.913 153.554 329.816H1.48304Z" fill="#9D9D9C"/>
<path d="M1.48304 329.816C1.13579 330.151 0.904297 330.604 0.904297 331.027V334.363C0.904297 335.031 1.50784 335.574 2.25195 335.574H153.372C154.116 335.574 154.72 335.031 154.72 334.363V331.027C154.72 330.411 154.207 329.913 153.554 329.816H1.48304Z" fill="#E3CCED"/>
<path d="M126.658 310.584C120.78 308.4 95.9266 298.022 87.7745 275.811H67.8737C59.7134 298.022 34.8602 308.4 28.99 310.584C28.7337 310.68 28.4526 310.836 28.1963 311.029H127.468C127.212 310.836 126.931 310.68 126.675 310.584H126.658Z" fill="#A753B5"/>
<path d="M96.5635 266.576H59.0605C59.0605 270.469 62.5744 273.886 67.8658 275.81H87.7583C93.0414 273.886 96.5635 270.469 96.5635 266.576Z" fill="#A753B5"/>
<path d="M92.4871 192.373H63.1445C63.1445 195.419 64.5501 198.093 68.684 199.601H86.9477C91.0816 198.093 92.4871 195.419 92.4871 192.373Z" fill="#A753B5"/>
<g style="mix-blend-mode:multiply" opacity="0.3">
<path d="M96.5635 266.576H59.0605C59.0605 270.469 62.5744 273.886 67.8658 275.81H87.7583C93.0414 273.886 96.5635 270.469 96.5635 266.576Z" fill="#A753B5"/>
</g>
<path d="M89.4615 254.921H66.1792C61.7228 257.157 59.598 262.446 59.0688 266.584H96.5718C96.051 262.446 93.9179 257.164 89.4615 254.921Z" fill="#A753B5"/>
<path d="M77.82 0.425781C70.4616 0.425781 63.1445 6.04178 63.1445 11.6652H92.4954C91.9001 4.42236 85.1784 0.425781 77.82 0.425781Z" fill="#E3CCED"/>
<path d="M52.2559 229.73C52.2559 239.655 65.6746 240.829 66.1789 254.921H89.4612C89.9655 240.829 103.384 239.655 103.384 229.73H52.2559Z" fill="#E3CCED"/>
<path d="M88.2045 201.547H67.4356C66.6915 201.547 66.0714 202.089 66.0136 202.758C64.8147 215.891 52.2559 220.096 52.2559 229.731H103.384C103.384 220.096 90.8254 215.884 89.6266 202.758C89.5687 202.089 88.9486 201.547 88.2045 201.547Z" fill="#9D9D9C"/>
<path d="M88.2044 201.546H67.4355L68.684 199.593H86.9477L88.2044 201.546Z" fill="#A753B5"/>
<g style="mix-blend-mode:multiply" opacity="0.3">
<path d="M88.2044 201.546H67.4355L68.684 199.593H86.9477L88.2044 201.546Z" fill="#A753B5"/>
</g>
<path d="M88.2045 201.547H67.4356C66.6915 201.547 66.0714 202.089 66.0136 202.758C64.8147 215.891 52.2559 220.096 52.2559 229.731H103.384C103.384 220.096 90.8254 215.884 89.6266 202.758C89.5687 202.089 88.9486 201.547 88.2045 201.547Z" fill="#E3CCED"/>
<g style="mix-blend-mode:multiply" opacity="0.3">
<path d="M84.7323 42.2779L69.6186 46.5419C69.2466 46.6459 68.8414 46.7574 68.4198 46.8688L68.2627 51.1551C68.7422 51.0288 69.197 50.9025 69.6186 50.7911L84.7323 46.5271C85.4598 46.3191 86.2866 46.0739 87.1713 45.8065L87.0142 41.6094C86.1874 41.8545 85.4185 42.0848 84.7323 42.2854V42.2779Z" fill="#A753B5"/>
</g>
<g style="mix-blend-mode:multiply" opacity="0.3">
<path d="M77.8199 39.1296C80.5916 39.1296 82.8385 37.1108 82.8385 34.6205C82.8385 32.1301 80.5916 30.1113 77.8199 30.1113C75.0482 30.1113 72.8013 32.1301 72.8013 34.6205C72.8013 37.1108 75.0482 39.1296 77.8199 39.1296Z" fill="#A753B5"/>
</g>
<path d="M77.82 38.5569C80.2401 38.5569 82.2019 36.7942 82.2019 34.6198C82.2019 32.4453 80.2401 30.6826 77.82 30.6826C75.3999 30.6826 73.438 32.4453 73.438 34.6198C73.438 36.7942 75.3999 38.5569 77.82 38.5569Z" fill="#A753B5"/>
<g style="mix-blend-mode:multiply" opacity="0.3">
<path d="M153.669 327.794C136.927 327.252 131.933 316.681 128.75 310.137C128.56 309.75 127.931 309.178 127.245 308.889L28.1795 309.03C27.7496 309.342 27.6504 309.75 27.4437 310.129C24.1448 316.109 18.1837 321.911 2.46651 327.386C2.21847 327.475 1.9787 327.624 1.78027 327.817H153.851C153.793 327.809 153.735 327.794 153.669 327.794Z" fill="#A753B5"/>
</g>
<g style="mix-blend-mode:multiply" opacity="0.3">
<path d="M89.461 252.922H66.1787C61.7223 255.158 59.5975 260.447 59.0684 264.585H96.5714C96.0505 260.447 93.9174 255.165 89.461 252.922Z" fill="#A753B5"/>
</g>
<g style="mix-blend-mode:multiply" opacity="0.3">
<path d="M52.2559 227.731C52.2559 237.656 65.6746 238.83 66.1789 252.922H89.4612C89.9655 238.83 103.384 237.656 103.384 227.731H52.2559Z" fill="#A753B5"/>
</g>
</svg>
