<svg width="100" height="100" viewBox="0 0 100 100" fill="none" xmlns="http://www.w3.org/2000/svg">
<path d="M50.2811 42.2579C38.0857 41.8204 28.0076 49.7657 25.6326 65.6485C23.242 81.625 30.9139 97.1954 50.0545 96.8438C70.3983 96.4766 76.6717 79.9297 73.9764 64.6094C70.8983 47.2032 60.7186 42.6407 50.2811 42.2579Z" fill="#D39E1E"/>
<path d="M60.1639 56.4296C58.4529 56.3828 54.7655 60.0546 54.0311 60.875C52.5467 62.539 53.6404 64.1875 55.3514 63.3593C56.9998 62.5625 59.5545 60.7968 60.1951 60.789C60.8826 60.7812 62.867 62.0937 63.7029 62.7265C66.1092 64.5234 67.4451 62.6406 65.9686 60.8359C65.1404 59.8281 62.1248 56.4843 60.1639 56.4296ZM39.7811 56.4765C37.8279 56.375 33.4686 60.8203 33.2342 61.0703C31.992 62.4296 33.1483 64 34.8045 63.2968C35.7576 62.8906 38.7733 60.875 39.4998 60.8984C40.0389 60.914 41.2108 61.789 42.8983 62.8906C45.6639 64.6875 47.1873 62.8281 45.3592 60.8437C43.5154 58.8437 41.4764 56.5625 39.7811 56.4765ZM31.3201 67.3906C30.1873 67.3125 27.8748 69.4218 27.2264 70.1406C26.5779 70.8593 26.0545 71.4921 26.5467 72.25C26.8826 72.7656 27.9373 72.789 28.7342 72.3359C29.7576 71.7578 30.8123 71.1875 31.2108 71.2031C31.8592 71.2343 34.4295 73.5078 35.2264 74.1875C37.3045 75.9453 38.6248 73.5859 37.4764 72.2265C36.2498 70.7734 33.4139 67.539 31.3201 67.3906ZM50.1014 67.5781C47.9295 67.5468 43.8826 71.8671 43.2654 72.5859C41.7733 74.3281 42.9061 76.6484 45.2264 75.0234C45.9217 74.5312 48.8436 72.0234 49.8983 72.1015C50.5701 72.1562 52.8592 73.9531 54.4295 75.0546C56.5233 76.5312 57.9373 74.8281 56.492 72.8906C55.8436 72.0156 52.4998 67.6093 50.1014 67.5781ZM68.242 67.0859C66.9842 67.0156 62.7576 71.4609 62.0389 72.3984C60.7967 74.0234 62.1561 75.5703 64.0623 74.2187C65.4139 73.2578 68.2186 71.1406 68.5076 71.125C68.9217 71.0937 70.0311 71.9296 70.8826 72.4218C71.7967 72.9531 72.8436 72.9062 73.1639 72.3046C73.6014 71.4921 72.9529 70.6953 72.2889 70.0781C71.1795 69.0312 69.3358 67.1484 68.242 67.0859ZM59.7654 79.6171C57.4998 79.6562 54.242 83.5078 53.6483 84.5C52.5154 86.4062 54.2576 87.2031 55.2342 86.7187C56.7108 85.9765 58.3045 84.25 59.8826 83.9609C60.5623 83.8359 62.7654 85.5781 63.3436 85.9375C66.2186 87.7343 67.2576 85.3046 65.3592 83.4218C63.992 82.0703 61.3983 79.5859 59.7654 79.6171ZM40.4373 79.5468C38.8436 79.4687 35.0311 82.9296 34.0779 83.8515C32.7967 85.1015 33.7264 87.1796 35.7576 86.1953C37.5311 85.3359 39.6561 84.0234 40.2498 84.0546C40.9998 84.0937 42.617 85.3515 43.5779 86.0078C46.4373 87.9765 47.6717 85.8125 45.8904 83.75C44.617 82.289 42.1561 79.6328 40.4373 79.5468Z" fill="#CA7C27"/>
<path d="M19.9454 18.5001C19.2345 17.5861 23.1486 15.4767 27.2736 15.3595C32.4532 15.2111 37.2032 16.5861 37.2032 16.5861C37.2032 16.5861 37.6329 13.1798 34.8986 9.36732C33.0236 6.75013 32.172 5.45326 32.2267 4.52357C32.2814 3.58607 36.3439 3.01576 41.7579 5.42982C46.2814 7.44544 49.797 11.2892 49.797 11.2892C49.797 11.2892 52.6564 7.28919 56.422 5.35951C60.797 3.12513 66.1564 2.74232 66.6251 3.62513C66.9845 4.29701 65.2814 6.26576 64.1642 8.79701C62.4064 12.7658 62.5079 16.0392 62.5079 16.0392C62.5079 16.0392 66.1486 13.3829 70.0548 12.6017C72.0392 12.2033 77.8907 11.8439 77.5001 13.2736C77.4376 13.5001 67.4376 20.5236 67.4376 20.5236L65.9454 27.8283C65.9454 27.8283 71.2501 24.797 75.9767 25.3517C78.422 25.6408 78.0157 26.4064 78.0157 26.4064L66.672 32.8439L64.9845 38.4142C64.9845 38.4142 68.1642 37.6173 71.2579 37.5783C72.7501 37.5626 75.1954 37.9533 75.3126 38.7111C75.4689 39.6876 68.4767 43.1408 68.4767 43.1408L49.6564 50.7658L31.7892 44.297C31.7892 44.297 23.7657 43.0314 23.7657 42.1564C23.7657 41.2736 25.3673 40.5861 27.7736 40.2111C30.5548 39.7736 33.4142 39.9298 33.4142 39.9298L25.1564 34.4533C25.1564 34.4533 20.0782 33.9767 19.6407 32.9845C19.2032 31.9923 21.922 30.1798 23.5861 29.6954C27.797 28.4611 32.5939 29.4454 32.5939 29.4454L29.8829 22.1876C29.8673 22.1642 20.7189 19.4923 19.9454 18.5001Z" fill="#2F7C31"/>
<path d="M42.4688 26.2421C42.8907 26.4531 43.9844 23.8593 45.336 22.1952C47.3047 19.7656 49.8672 17.9452 50.3125 17.9452C50.7422 17.9452 52.75 19.4687 54.4922 21.5546C56.6016 24.0859 57.5469 26.2031 57.7579 26.3046C58.5391 26.6874 61.0704 22.2265 65.9454 18.4609C70.1563 15.2031 77.1485 12.289 77.5157 13.2734C77.6329 13.5937 74.0469 15.9531 70.6094 20.7343C66.836 25.9765 67.2032 31.6249 67.2032 31.6249C67.2032 31.6249 71.5235 28.5234 72.9141 27.8046C74.0782 27.2031 78.4922 25.5078 77.9922 26.4531C77.6329 27.1249 73.4141 31.3281 70.9922 33.6327C67.1797 37.2421 66.0547 42.6249 66.4219 42.9296C66.8438 43.2812 69.6797 41.1796 71.3907 40.2187C73.0157 39.3046 75.3125 38.5624 75.2969 38.7187C75.1954 39.8671 71.0547 42.8515 68.1407 45.4687C65.9844 47.3984 61.8125 52.9062 49.9297 52.7109C40.1094 52.5546 34.3672 47.414 30.7891 45.4921C28.3204 44.164 23.7266 42.6796 23.7813 42.2265C23.8125 41.9765 25.9688 41.8046 27.4219 41.9843C31.4375 42.4687 34.0157 43.6796 34.2891 43.3281C34.5704 42.9687 30.7344 38.1093 24.1094 35.1562C20.9141 33.7265 19.5157 33.3593 19.5782 32.7187C19.6016 32.4374 21.6016 32.0702 24.1485 31.9843C28.6641 31.8359 32.961 33.4296 33.3594 33.4765C34.2969 33.5937 30.5079 27.0234 28.3594 24.4609C24.9532 20.3906 19.6407 19.3046 19.8594 18.2812C19.9766 17.7265 26.1641 17.6484 31.2422 19.5546C36.5313 21.5234 41.5547 25.789 42.4688 26.2421Z" fill="#344D05"/>
<path d="M50.2968 29.8751C49.8202 29.9376 47.9374 30.9532 45.4608 33.5548C42.5311 36.6251 41.4999 39.9454 42.1796 40.5079C43.0936 41.2579 44.3671 39.8282 46.1171 38.5939C48.1796 37.1407 49.8515 36.3517 50.2108 36.3517C50.5702 36.3517 52.1796 37.3673 53.5311 38.3907C55.2108 39.672 56.664 41.0548 57.4061 40.586C58.6561 39.8126 56.9218 35.7657 54.9686 33.5548C52.8905 31.1954 50.7108 29.8204 50.2968 29.8751Z" fill="#2F7C31"/>
</svg>
