<svg width="133" height="181" viewBox="0 0 133 181" fill="none" xmlns="http://www.w3.org/2000/svg">
<path d="M60.7159 0.817225C44.4448 46.9561 28.1736 93.0949 11.9108 139.241C11.8033 139.561 11.4147 139.739 11.0674 139.642C10.7119 139.546 10.5135 139.197 10.621 138.885C27.2146 92.2258 43.2211 47.0007 59.8147 0.341797C59.9801 0.453225 60.1703 0.557227 60.3769 0.668656C60.4927 0.728084 60.6084 0.780089 60.7159 0.824661V0.817225Z" fill="#A753B5"/>
<g style="mix-blend-mode:multiply" opacity="0.3">
<path d="M62.4522 0.951172L45.8338 139.145C45.7925 139.479 45.4618 139.717 45.0897 139.687C44.7177 139.65 44.4531 139.353 44.4862 139.019C50.5383 90.3392 55.3667 49.846 61.4105 1.1666L62.4522 0.951172Z" fill="#A753B5"/>
</g>
<path d="M110.422 180.541H22.3858C21.6417 180.541 20.7075 179.88 20.3023 179.057L2.30322 142.63H130.496L112.497 179.057C112.092 179.88 111.158 180.541 110.414 180.541H110.422Z" fill="#A753B5"/>
<path d="M130.496 142.63H2.3033C1.22848 142.63 0.360352 141.493 0.360352 140.086C0.360352 138.678 1.22848 137.541 2.3033 137.541H130.496C131.571 137.541 132.439 138.678 132.439 140.086C132.439 141.493 131.571 142.63 130.496 142.63Z" fill="#E3CCED"/>
<g style="mix-blend-mode:multiply" opacity="0.3">
<path d="M2.30322 139.716L4.7009 144.556L127.694 145.39L130.496 139.716H2.30322Z" fill="#A753B5"/>
</g>
<path d="M62.9316 0.0527344L116.888 138.908C117.012 139.22 116.83 139.569 116.474 139.68C116.127 139.792 115.738 139.628 115.614 139.309C97.7559 93.0287 79.9386 46.8676 62.0718 0.587592C62.1958 0.491021 62.3364 0.580165 62.4686 0.461308C62.6175 0.327594 62.8076 0.17902 62.9234 0.0527344H62.9316Z" fill="#A753B5"/>
</svg>
