<svg width="95" height="104" viewBox="0 0 95 104" fill="none" xmlns="http://www.w3.org/2000/svg">
<path d="M87.6536 31.5172C101.03 54.6857 93.6788 83.9765 71.2309 96.9384C48.783 109.897 21.2574 104.244 7.87769 81.0698C-7.25817 54.8492 0.338519 25.9885 22.7865 13.0296C45.2344 0.0706778 77.0564 13.1628 87.6536 31.5172Z" fill="#83B066"/>
<path d="M63.6613 16.433C72.7446 19.4607 81.8279 28.5441 87.8835 37.6274C90.4147 41.4242 90.0908 37.3912 86.9933 30.5182C75.8329 12.7027 44.8194 0.310052 22.7863 13.0297C13.9607 18.0918 7.11481 25.9998 3.36914 35.4595C5.55217 32.9979 7.70795 31.5719 9.16128 31.5719C12.1891 31.5719 3.42061 41.4999 12.1891 64.8774C21.2724 89.0996 21.2724 76.9885 21.2724 76.9885C21.2724 76.9885 15.2168 49.7385 18.2446 40.6552C21.2724 31.5719 24.3002 25.5163 27.3279 28.5441C30.3557 31.5719 42.4668 55.7941 48.5224 70.933C55.3621 88.0308 54.5779 67.9052 45.4946 46.7107C36.8927 26.6426 36.4113 22.4885 39.4391 22.4885C42.4668 22.4885 49.9303 26.9212 60.6335 37.6274C66.6891 43.683 69.7168 52.7663 72.7446 55.7941C75.7724 58.8219 75.7724 52.7663 72.7446 43.683C70.604 37.2611 63.6613 25.5163 54.5779 19.4607C47.0206 14.4225 54.5779 13.4052 63.6613 16.433Z" fill="#5B8940"/>
<path d="M27.1282 17.5167C26.4323 17.9183 25.6054 18.0272 24.8293 17.8194C24.0532 17.6116 23.3913 17.1041 22.9892 16.4085C19.6465 10.6133 19.1742 3.37997 19.156 3.07416C19.1457 2.29465 19.4358 1.54106 19.9662 0.969726C20.4966 0.398391 21.2266 0.053158 22.0047 0.00564436C22.7828 -0.0418693 23.5494 0.211983 24.1454 0.714541C24.7413 1.2171 25.121 1.92979 25.2055 2.70477C25.2086 2.76836 25.6203 8.84208 28.2363 13.3777C28.6372 14.0738 28.7456 14.9004 28.5378 15.6763C28.3301 16.4521 27.8232 17.114 27.1282 17.5167Z" fill="#498126"/>
<path d="M27.2101 90.7132C24.3004 89.0993 21.9811 84.7303 19.9162 80.9486C17.8512 77.1669 20.7519 77.0851 22.5988 80.4671C24.6607 84.2488 26.2442 85.3479 28.3092 89.1296C30.3741 92.9113 28.8966 91.6487 27.2101 90.7132ZM56.1042 91.8425C53.4579 85.6083 53.6456 82.5866 50.9994 76.3585C48.3531 70.1243 48.7316 64.0808 51.3748 70.312C54.0211 76.5462 56.6674 82.7804 56.4827 85.7991C56.2889 88.8238 56.1042 91.8425 56.1042 91.8425ZM72.7449 55.7938C75.7726 64.8771 72.7449 61.8493 75.7726 70.9327C78.8004 80.016 78.8004 86.0716 78.8004 70.9327C78.8004 61.3588 75.7726 52.766 72.7449 49.7382C67.9579 44.9513 72.7449 55.7938 72.7449 55.7938Z" fill="#5B8940"/>
</svg>
