<svg width="465" height="361" viewBox="0 0 465 361" fill="none" xmlns="http://www.w3.org/2000/svg">
<path d="M416.461 23.92C415.021 21.4 414.301 18.6733 414.301 15.74C414.301 12.7667 415.021 10.0333 416.461 7.54C416.621 7.28667 416.801 7.1 417.001 6.98C417.215 6.84667 417.428 6.78 417.641 6.78C417.868 6.78 418.055 6.85333 418.201 7C418.361 7.13333 418.441 7.32 418.441 7.56C418.441 7.74667 418.408 7.91333 418.341 8.06C417.355 10.4867 416.861 13.0467 416.861 15.74C416.861 17.0867 416.981 18.3867 417.221 19.64C417.461 20.88 417.835 22.1267 418.341 23.38C418.408 23.5267 418.441 23.6933 418.441 23.88C418.441 24.12 418.361 24.3067 418.201 24.44C418.055 24.5867 417.868 24.66 417.641 24.66C417.428 24.66 417.215 24.6 417.001 24.48C416.788 24.36 416.608 24.1733 416.461 23.92ZM433.745 18.12C434.198 18.12 434.565 18.2867 434.845 18.62C435.125 18.9533 435.265 19.44 435.265 20.08C435.265 21.3467 434.825 22.44 433.945 23.36C433.771 23.5333 433.585 23.62 433.385 23.62C433.185 23.62 433.011 23.5533 432.865 23.42C432.718 23.2867 432.645 23.1267 432.645 22.94C432.645 22.78 432.711 22.6267 432.845 22.48C433.245 22.0533 433.505 21.5733 433.625 21.04C433.238 21 432.918 20.8533 432.665 20.6C432.425 20.3333 432.305 20.0067 432.305 19.62C432.305 19.1933 432.438 18.84 432.705 18.56C432.985 18.2667 433.331 18.12 433.745 18.12ZM456.548 23.92C456.401 24.1733 456.221 24.36 456.008 24.48C455.794 24.6 455.581 24.66 455.368 24.66C455.141 24.66 454.948 24.5867 454.788 24.44C454.641 24.3067 454.568 24.12 454.568 23.88C454.568 23.6933 454.601 23.5267 454.668 23.38C455.174 22.1267 455.548 20.88 455.788 19.64C456.028 18.3867 456.148 17.0867 456.148 15.74C456.148 13.0467 455.654 10.4867 454.668 8.06C454.601 7.91333 454.568 7.74667 454.568 7.56C454.568 7.32 454.641 7.13333 454.788 7C454.948 6.85333 455.141 6.78 455.368 6.78C455.581 6.78 455.788 6.84667 455.988 6.98C456.201 7.1 456.388 7.28667 456.548 7.54C457.988 10.0333 458.708 12.7667 458.708 15.74C458.708 18.6733 457.988 21.4 456.548 23.92Z" fill="#1A1A1A"/>
<path d="M426.053 11.98C426.933 11.98 427.706 12.1733 428.373 12.56C429.053 12.9333 429.579 13.46 429.953 14.14C430.326 14.82 430.513 15.6 430.513 16.48C430.513 17.4 430.299 18.2133 429.872 18.92C429.459 19.6267 428.866 20.18 428.093 20.58C427.333 20.9667 426.453 21.16 425.453 21.16C424.626 21.16 423.813 21.0267 423.013 20.76C422.226 20.48 421.553 20.1067 420.993 19.64C420.686 19.3733 420.533 19.06 420.533 18.7C420.533 18.4067 420.613 18.16 420.773 17.96C420.946 17.7467 421.146 17.64 421.373 17.64C421.506 17.64 421.633 17.6667 421.753 17.72C421.873 17.76 422.013 17.8333 422.173 17.94C422.706 18.3133 423.226 18.6 423.733 18.8C424.239 19 424.779 19.1 425.353 19.1C426.233 19.1 426.906 18.88 427.373 18.44C427.839 18 428.073 17.3733 428.073 16.56C428.073 15.7733 427.833 15.1533 427.353 14.7C426.886 14.2333 426.239 14 425.413 14C424.893 14 424.426 14.0733 424.013 14.22C423.613 14.3667 423.199 14.6133 422.773 14.96C422.519 15.1333 422.259 15.22 421.993 15.22C421.726 15.22 421.499 15.14 421.313 14.98C421.126 14.82 421.033 14.6067 421.033 14.34V8.1C421.033 7.72667 421.139 7.43333 421.353 7.22C421.566 7.00667 421.866 6.9 422.252 6.9H428.913C429.713 6.9 430.113 7.23333 430.113 7.9C430.113 8.56667 429.713 8.9 428.913 8.9H423.553V12.7C424.233 12.22 425.066 11.98 426.053 11.98Z" fill="#FF8F1F"/>
<path d="M448.435 11.98C449.315 11.98 450.089 12.1733 450.755 12.56C451.435 12.9333 451.962 13.46 452.335 14.14C452.709 14.82 452.895 15.6 452.895 16.48C452.895 17.4 452.682 18.2133 452.255 18.92C451.842 19.6267 451.249 20.18 450.475 20.58C449.715 20.9667 448.835 21.16 447.835 21.16C447.009 21.16 446.195 21.0267 445.395 20.76C444.609 20.48 443.935 20.1067 443.375 19.64C443.069 19.3733 442.915 19.06 442.915 18.7C442.915 18.4067 442.995 18.16 443.155 17.96C443.329 17.7467 443.529 17.64 443.755 17.64C443.889 17.64 444.015 17.6667 444.135 17.72C444.255 17.76 444.395 17.8333 444.555 17.94C445.089 18.3133 445.609 18.6 446.115 18.8C446.622 19 447.162 19.1 447.735 19.1C448.615 19.1 449.289 18.88 449.755 18.44C450.222 18 450.455 17.3733 450.455 16.56C450.455 15.7733 450.215 15.1533 449.735 14.7C449.269 14.2333 448.622 14 447.795 14C447.275 14 446.809 14.0733 446.395 14.22C445.995 14.3667 445.582 14.6133 445.155 14.96C444.902 15.1333 444.642 15.22 444.375 15.22C444.109 15.22 443.882 15.14 443.695 14.98C443.509 14.82 443.415 14.6067 443.415 14.34V8.1C443.415 7.72667 443.522 7.43333 443.735 7.22C443.949 7.00667 444.249 6.9 444.635 6.9H451.295C452.095 6.9 452.495 7.23333 452.495 7.9C452.495 8.56667 452.095 8.9 451.295 8.9H445.935V12.7C446.615 12.22 447.449 11.98 448.435 11.98Z" fill="#AA5EE0"/>
<path d="M411.625 355.392C410.185 352.872 409.465 350.146 409.465 347.212C409.465 344.239 410.185 341.506 411.625 339.012C411.785 338.759 411.965 338.572 412.165 338.452C412.379 338.319 412.592 338.252 412.805 338.252C413.032 338.252 413.219 338.326 413.365 338.472C413.525 338.606 413.605 338.792 413.605 339.032C413.605 339.219 413.572 339.386 413.505 339.532C412.519 341.959 412.025 344.519 412.025 347.212C412.025 348.559 412.145 349.859 412.385 351.112C412.625 352.352 412.999 353.599 413.505 354.852C413.572 354.999 413.605 355.166 413.605 355.352C413.605 355.592 413.525 355.779 413.365 355.912C413.219 356.059 413.032 356.132 412.805 356.132C412.592 356.132 412.379 356.072 412.165 355.952C411.952 355.832 411.772 355.646 411.625 355.392ZM428.909 349.592C429.362 349.592 429.729 349.759 430.009 350.092C430.289 350.426 430.429 350.912 430.429 351.552C430.429 352.819 429.989 353.912 429.109 354.832C428.935 355.006 428.749 355.092 428.549 355.092C428.349 355.092 428.175 355.026 428.029 354.892C427.882 354.759 427.809 354.599 427.809 354.412C427.809 354.252 427.875 354.099 428.009 353.952C428.409 353.526 428.669 353.046 428.789 352.512C428.402 352.472 428.082 352.326 427.829 352.072C427.589 351.806 427.469 351.479 427.469 351.092C427.469 350.666 427.602 350.312 427.869 350.032C428.149 349.739 428.495 349.592 428.909 349.592ZM460.383 355.392C460.237 355.646 460.057 355.832 459.843 355.952C459.63 356.072 459.417 356.132 459.203 356.132C458.977 356.132 458.783 356.059 458.623 355.912C458.477 355.779 458.403 355.592 458.403 355.352C458.403 355.166 458.437 354.999 458.503 354.852C459.01 353.599 459.383 352.352 459.623 351.112C459.863 349.859 459.983 348.559 459.983 347.212C459.983 344.519 459.49 341.959 458.503 339.532C458.437 339.386 458.403 339.219 458.403 339.032C458.403 338.792 458.477 338.606 458.623 338.472C458.783 338.326 458.977 338.252 459.203 338.252C459.417 338.252 459.623 338.319 459.823 338.452C460.037 338.572 460.223 338.759 460.383 339.012C461.823 341.506 462.543 344.239 462.543 347.212C462.543 350.146 461.823 352.872 460.383 355.392Z" fill="#1A1A1A"/>
<path d="M421.217 343.452C422.097 343.452 422.87 343.646 423.537 344.032C424.217 344.406 424.743 344.932 425.117 345.612C425.49 346.292 425.677 347.072 425.677 347.952C425.677 348.872 425.463 349.686 425.037 350.392C424.623 351.099 424.03 351.652 423.257 352.052C422.497 352.439 421.617 352.632 420.617 352.632C419.79 352.632 418.977 352.499 418.177 352.232C417.39 351.952 416.717 351.579 416.157 351.112C415.85 350.846 415.697 350.532 415.697 350.172C415.697 349.879 415.777 349.632 415.937 349.432C416.11 349.219 416.31 349.112 416.537 349.112C416.67 349.112 416.797 349.139 416.917 349.192C417.037 349.232 417.177 349.306 417.337 349.412C417.87 349.786 418.39 350.072 418.897 350.272C419.403 350.472 419.943 350.572 420.517 350.572C421.397 350.572 422.07 350.352 422.537 349.912C423.003 349.472 423.237 348.846 423.237 348.032C423.237 347.246 422.997 346.626 422.517 346.172C422.05 345.706 421.403 345.472 420.577 345.472C420.057 345.472 419.59 345.546 419.177 345.692C418.777 345.839 418.363 346.086 417.937 346.432C417.683 346.606 417.423 346.692 417.157 346.692C416.89 346.692 416.663 346.612 416.477 346.452C416.29 346.292 416.197 346.079 416.197 345.812V339.572C416.197 339.199 416.303 338.906 416.517 338.692C416.73 338.479 417.03 338.372 417.417 338.372H424.077C424.877 338.372 425.277 338.706 425.277 339.372C425.277 340.039 424.877 340.372 424.077 340.372H418.717V344.172C419.397 343.692 420.23 343.452 421.217 343.452Z" fill="#FF8F1F"/>
<path d="M439.139 348.112C438.753 348.112 438.459 348.026 438.259 347.852C438.073 347.679 437.979 347.439 437.979 347.132C437.979 346.826 438.073 346.586 438.259 346.412C438.459 346.226 438.753 346.132 439.139 346.132H443.259C443.646 346.132 443.933 346.226 444.119 346.412C444.319 346.586 444.419 346.826 444.419 347.132C444.419 347.439 444.319 347.679 444.119 347.852C443.933 348.026 443.646 348.112 443.259 348.112H439.139ZM452.271 343.452C453.151 343.452 453.925 343.646 454.591 344.032C455.271 344.406 455.798 344.932 456.171 345.612C456.545 346.292 456.731 347.072 456.731 347.952C456.731 348.872 456.518 349.686 456.091 350.392C455.678 351.099 455.085 351.652 454.311 352.052C453.551 352.439 452.671 352.632 451.671 352.632C450.845 352.632 450.031 352.499 449.231 352.232C448.445 351.952 447.771 351.579 447.211 351.112C446.905 350.846 446.751 350.532 446.751 350.172C446.751 349.879 446.831 349.632 446.991 349.432C447.165 349.219 447.365 349.112 447.591 349.112C447.725 349.112 447.851 349.139 447.971 349.192C448.091 349.232 448.231 349.306 448.391 349.412C448.925 349.786 449.445 350.072 449.951 350.272C450.458 350.472 450.998 350.572 451.571 350.572C452.451 350.572 453.125 350.352 453.591 349.912C454.058 349.472 454.291 348.846 454.291 348.032C454.291 347.246 454.051 346.626 453.571 346.172C453.105 345.706 452.458 345.472 451.631 345.472C451.111 345.472 450.645 345.546 450.231 345.692C449.831 345.839 449.418 346.086 448.991 346.432C448.738 346.606 448.478 346.692 448.211 346.692C447.945 346.692 447.718 346.612 447.531 346.452C447.345 346.292 447.251 346.079 447.251 345.812V339.572C447.251 339.199 447.358 338.906 447.571 338.692C447.785 338.479 448.085 338.372 448.471 338.372H455.131C455.931 338.372 456.331 338.706 456.331 339.372C456.331 340.039 455.931 340.372 455.131 340.372H449.771V344.172C450.451 343.692 451.285 343.452 452.271 343.452Z" fill="#AA5EE0"/>
<path d="M4.28938 356.392C2.84938 353.872 2.12938 351.146 2.12938 348.212C2.12938 345.239 2.84938 342.506 4.28938 340.012C4.44938 339.759 4.62938 339.572 4.82938 339.452C5.04271 339.319 5.25604 339.252 5.46938 339.252C5.69604 339.252 5.88271 339.326 6.02938 339.472C6.18938 339.606 6.26938 339.792 6.26938 340.032C6.26938 340.219 6.23604 340.386 6.16938 340.532C5.18271 342.959 4.68938 345.519 4.68938 348.212C4.68938 349.559 4.80938 350.859 5.04938 352.112C5.28938 353.352 5.66271 354.599 6.16938 355.852C6.23604 355.999 6.26938 356.166 6.26938 356.352C6.26938 356.592 6.18938 356.779 6.02938 356.912C5.88271 357.059 5.69604 357.132 5.46938 357.132C5.25604 357.132 5.04271 357.072 4.82938 356.952C4.61604 356.832 4.43604 356.646 4.28938 356.392ZM30.2447 350.592C30.698 350.592 31.0647 350.759 31.3447 351.092C31.6247 351.426 31.7647 351.912 31.7647 352.552C31.7647 353.819 31.3247 354.912 30.4447 355.832C30.2714 356.006 30.0847 356.092 29.8847 356.092C29.6847 356.092 29.5114 356.026 29.3647 355.892C29.218 355.759 29.1447 355.599 29.1447 355.412C29.1447 355.252 29.2114 355.099 29.3447 354.952C29.7447 354.526 30.0047 354.046 30.1247 353.512C29.738 353.472 29.418 353.326 29.1647 353.072C28.9247 352.806 28.8047 352.479 28.8047 352.092C28.8047 351.666 28.938 351.312 29.2047 351.032C29.4847 350.739 29.8314 350.592 30.2447 350.592ZM61.7194 356.392C61.5727 356.646 61.3927 356.832 61.1794 356.952C60.966 357.072 60.7527 357.132 60.5394 357.132C60.3127 357.132 60.1194 357.059 59.9594 356.912C59.8127 356.779 59.7394 356.592 59.7394 356.352C59.7394 356.166 59.7727 355.999 59.8394 355.852C60.346 354.599 60.7194 353.352 60.9594 352.112C61.1994 350.859 61.3194 349.559 61.3194 348.212C61.3194 345.519 60.826 342.959 59.8394 340.532C59.7727 340.386 59.7394 340.219 59.7394 340.032C59.7394 339.792 59.8127 339.606 59.9594 339.472C60.1194 339.326 60.3127 339.252 60.5394 339.252C60.7527 339.252 60.9594 339.319 61.1594 339.452C61.3727 339.572 61.5594 339.759 61.7194 340.012C63.1594 342.506 63.8794 345.239 63.8794 348.212C63.8794 351.146 63.1594 353.872 61.7194 356.392Z" fill="#1A1A1A"/>
<path d="M9.42063 349.112C9.03396 349.112 8.74063 349.026 8.54063 348.852C8.35396 348.679 8.26063 348.439 8.26063 348.132C8.26063 347.826 8.35396 347.586 8.54063 347.412C8.74063 347.226 9.03396 347.132 9.42063 347.132H13.5406C13.9273 347.132 14.214 347.226 14.4006 347.412C14.6006 347.586 14.7006 347.826 14.7006 348.132C14.7006 348.439 14.6006 348.679 14.4006 348.852C14.214 349.026 13.9273 349.112 13.5406 349.112H9.42063ZM22.5525 344.452C23.4325 344.452 24.2058 344.646 24.8725 345.032C25.5525 345.406 26.0792 345.932 26.4525 346.612C26.8258 347.292 27.0125 348.072 27.0125 348.952C27.0125 349.872 26.7992 350.686 26.3725 351.392C25.9592 352.099 25.3658 352.652 24.5925 353.052C23.8325 353.439 22.9525 353.632 21.9525 353.632C21.1258 353.632 20.3125 353.499 19.5125 353.232C18.7258 352.952 18.0525 352.579 17.4925 352.112C17.1858 351.846 17.0325 351.532 17.0325 351.172C17.0325 350.879 17.1125 350.632 17.2725 350.432C17.4458 350.219 17.6458 350.112 17.8725 350.112C18.0058 350.112 18.1325 350.139 18.2525 350.192C18.3725 350.232 18.5125 350.306 18.6725 350.412C19.2058 350.786 19.7258 351.072 20.2325 351.272C20.7392 351.472 21.2792 351.572 21.8525 351.572C22.7325 351.572 23.4058 351.352 23.8725 350.912C24.3392 350.472 24.5725 349.846 24.5725 349.032C24.5725 348.246 24.3325 347.626 23.8525 347.172C23.3858 346.706 22.7392 346.472 21.9125 346.472C21.3925 346.472 20.9258 346.546 20.5125 346.692C20.1125 346.839 19.6992 347.086 19.2725 347.432C19.0192 347.606 18.7592 347.692 18.4925 347.692C18.2258 347.692 17.9992 347.612 17.8125 347.452C17.6258 347.292 17.5325 347.079 17.5325 346.812V340.572C17.5325 340.199 17.6392 339.906 17.8525 339.692C18.0658 339.479 18.3658 339.372 18.7525 339.372H25.4125C26.2125 339.372 26.6125 339.706 26.6125 340.372C26.6125 341.039 26.2125 341.372 25.4125 341.372H20.0525V345.172C20.7325 344.692 21.5658 344.452 22.5525 344.452Z" fill="#FF8F1F"/>
<path d="M40.4753 349.112C40.0886 349.112 39.7953 349.026 39.5953 348.852C39.4086 348.679 39.3153 348.439 39.3153 348.132C39.3153 347.826 39.4086 347.586 39.5953 347.412C39.7953 347.226 40.0886 347.132 40.4753 347.132H44.5953C44.982 347.132 45.2686 347.226 45.4553 347.412C45.6553 347.586 45.7553 347.826 45.7553 348.132C45.7553 348.439 45.6553 348.679 45.4553 348.852C45.2686 349.026 44.982 349.112 44.5953 349.112H40.4753ZM53.6072 344.452C54.4872 344.452 55.2605 344.646 55.9272 345.032C56.6072 345.406 57.1339 345.932 57.5072 346.612C57.8805 347.292 58.0672 348.072 58.0672 348.952C58.0672 349.872 57.8539 350.686 57.4272 351.392C57.0139 352.099 56.4205 352.652 55.6472 353.052C54.8872 353.439 54.0072 353.632 53.0072 353.632C52.1805 353.632 51.3672 353.499 50.5672 353.232C49.7805 352.952 49.1072 352.579 48.5472 352.112C48.2405 351.846 48.0872 351.532 48.0872 351.172C48.0872 350.879 48.1672 350.632 48.3272 350.432C48.5005 350.219 48.7005 350.112 48.9272 350.112C49.0605 350.112 49.1872 350.139 49.3072 350.192C49.4272 350.232 49.5672 350.306 49.7272 350.412C50.2605 350.786 50.7805 351.072 51.2872 351.272C51.7939 351.472 52.3339 351.572 52.9072 351.572C53.7872 351.572 54.4605 351.352 54.9272 350.912C55.3939 350.472 55.6272 349.846 55.6272 349.032C55.6272 348.246 55.3872 347.626 54.9072 347.172C54.4405 346.706 53.7939 346.472 52.9672 346.472C52.4472 346.472 51.9805 346.546 51.5672 346.692C51.1672 346.839 50.7539 347.086 50.3272 347.432C50.0739 347.606 49.8139 347.692 49.5472 347.692C49.2805 347.692 49.0539 347.612 48.8672 347.452C48.6805 347.292 48.5872 347.079 48.5872 346.812V340.572C48.5872 340.199 48.6939 339.906 48.9072 339.692C49.1205 339.479 49.4205 339.372 49.8072 339.372H56.4672C57.2672 339.372 57.6672 339.706 57.6672 340.372C57.6672 341.039 57.2672 341.372 56.4672 341.372H51.1072V345.172C51.7872 344.692 52.6205 344.452 53.6072 344.452Z" fill="#AA5EE0"/>
<path d="M12.6253 24.92C11.1853 22.4 10.4653 19.6733 10.4653 16.74C10.4653 13.7667 11.1853 11.0333 12.6253 8.54C12.7853 8.28667 12.9653 8.1 13.1653 7.98C13.3786 7.84667 13.592 7.78 13.8053 7.78C14.032 7.78 14.2186 7.85333 14.3653 8C14.5253 8.13333 14.6053 8.32 14.6053 8.56C14.6053 8.74667 14.572 8.91333 14.5053 9.06C13.5186 11.4867 13.0253 14.0467 13.0253 16.74C13.0253 18.0867 13.1453 19.3867 13.3853 20.64C13.6253 21.88 13.9986 23.1267 14.5053 24.38C14.572 24.5267 14.6053 24.6933 14.6053 24.88C14.6053 25.12 14.5253 25.3067 14.3653 25.44C14.2186 25.5867 14.032 25.66 13.8053 25.66C13.592 25.66 13.3786 25.6 13.1653 25.48C12.952 25.36 12.772 25.1733 12.6253 24.92ZM38.5806 19.12C39.034 19.12 39.4006 19.2867 39.6806 19.62C39.9606 19.9533 40.1006 20.44 40.1006 21.08C40.1006 22.3467 39.6606 23.44 38.7806 24.36C38.6073 24.5333 38.4206 24.62 38.2206 24.62C38.0206 24.62 37.8473 24.5533 37.7006 24.42C37.554 24.2867 37.4806 24.1267 37.4806 23.94C37.4806 23.78 37.5473 23.6267 37.6806 23.48C38.0806 23.0533 38.3406 22.5733 38.4606 22.04C38.074 22 37.754 21.8533 37.5006 21.6C37.2606 21.3333 37.1406 21.0067 37.1406 20.62C37.1406 20.1933 37.274 19.84 37.5406 19.56C37.8206 19.2667 38.1673 19.12 38.5806 19.12ZM61.3834 24.92C61.2368 25.1733 61.0568 25.36 60.8434 25.48C60.6301 25.6 60.4168 25.66 60.2034 25.66C59.9768 25.66 59.7834 25.5867 59.6234 25.44C59.4768 25.3067 59.4034 25.12 59.4034 24.88C59.4034 24.6933 59.4368 24.5267 59.5034 24.38C60.0101 23.1267 60.3834 21.88 60.6234 20.64C60.8634 19.3867 60.9834 18.0867 60.9834 16.74C60.9834 14.0467 60.4901 11.4867 59.5034 9.06C59.4368 8.91333 59.4034 8.74667 59.4034 8.56C59.4034 8.32 59.4768 8.13333 59.6234 8C59.7834 7.85333 59.9768 7.78 60.2034 7.78C60.4168 7.78 60.6234 7.84667 60.8234 7.98C61.0368 8.1 61.2234 8.28667 61.3834 8.54C62.8234 11.0333 63.5434 13.7667 63.5434 16.74C63.5434 19.6733 62.8234 22.4 61.3834 24.92Z" fill="#1A1A1A"/>
<path d="M17.7566 17.64C17.3699 17.64 17.0766 17.5533 16.8766 17.38C16.6899 17.2067 16.5966 16.9667 16.5966 16.66C16.5966 16.3533 16.6899 16.1133 16.8766 15.94C17.0766 15.7533 17.3699 15.66 17.7566 15.66H21.8766C22.2632 15.66 22.5499 15.7533 22.7366 15.94C22.9366 16.1133 23.0366 16.3533 23.0366 16.66C23.0366 16.9667 22.9366 17.2067 22.7366 17.38C22.5499 17.5533 22.2632 17.64 21.8766 17.64H17.7566ZM30.8884 12.98C31.7684 12.98 32.5418 13.1733 33.2084 13.56C33.8884 13.9333 34.4151 14.46 34.7884 15.14C35.1618 15.82 35.3484 16.6 35.3484 17.48C35.3484 18.4 35.1351 19.2133 34.7084 19.92C34.2951 20.6267 33.7018 21.18 32.9284 21.58C32.1684 21.9667 31.2884 22.16 30.2884 22.16C29.4618 22.16 28.6484 22.0267 27.8484 21.76C27.0618 21.48 26.3884 21.1067 25.8284 20.64C25.5218 20.3733 25.3684 20.06 25.3684 19.7C25.3684 19.4067 25.4484 19.16 25.6084 18.96C25.7818 18.7467 25.9818 18.64 26.2084 18.64C26.3418 18.64 26.4684 18.6667 26.5884 18.72C26.7084 18.76 26.8484 18.8333 27.0084 18.94C27.5418 19.3133 28.0618 19.6 28.5684 19.8C29.0751 20 29.6151 20.1 30.1884 20.1C31.0684 20.1 31.7418 19.88 32.2084 19.44C32.6751 19 32.9084 18.3733 32.9084 17.56C32.9084 16.7733 32.6684 16.1533 32.1884 15.7C31.7218 15.2333 31.0751 15 30.2484 15C29.7284 15 29.2618 15.0733 28.8484 15.22C28.4484 15.3667 28.0351 15.6133 27.6084 15.96C27.3551 16.1333 27.0951 16.22 26.8284 16.22C26.5618 16.22 26.3351 16.14 26.1484 15.98C25.9618 15.82 25.8684 15.6067 25.8684 15.34V9.1C25.8684 8.72667 25.9751 8.43333 26.1884 8.22C26.4018 8.00667 26.7018 7.9 27.0884 7.9H33.7484C34.5484 7.9 34.9484 8.23333 34.9484 8.9C34.9484 9.56667 34.5484 9.9 33.7484 9.9H28.3884V13.7C29.0684 13.22 29.9018 12.98 30.8884 12.98Z" fill="#FF8F1F"/>
<path d="M53.2713 12.98C54.1513 12.98 54.9246 13.1733 55.5913 13.56C56.2713 13.9333 56.7979 14.46 57.1713 15.14C57.5446 15.82 57.7313 16.6 57.7313 17.48C57.7313 18.4 57.5179 19.2133 57.0912 19.92C56.6779 20.6267 56.0846 21.18 55.3113 21.58C54.5513 21.9667 53.6713 22.16 52.6713 22.16C51.8446 22.16 51.0313 22.0267 50.2313 21.76C49.4446 21.48 48.7713 21.1067 48.2113 20.64C47.9046 20.3733 47.7513 20.06 47.7513 19.7C47.7513 19.4067 47.8313 19.16 47.9913 18.96C48.1646 18.7467 48.3646 18.64 48.5913 18.64C48.7246 18.64 48.8513 18.6667 48.9713 18.72C49.0913 18.76 49.2313 18.8333 49.3913 18.94C49.9246 19.3133 50.4446 19.6 50.9513 19.8C51.4579 20 51.9979 20.1 52.5713 20.1C53.4513 20.1 54.1246 19.88 54.5913 19.44C55.0579 19 55.2913 18.3733 55.2913 17.56C55.2913 16.7733 55.0513 16.1533 54.5713 15.7C54.1046 15.2333 53.4579 15 52.6313 15C52.1113 15 51.6446 15.0733 51.2313 15.22C50.8313 15.3667 50.4179 15.6133 49.9913 15.96C49.7379 16.1333 49.4779 16.22 49.2113 16.22C48.9446 16.22 48.7179 16.14 48.5313 15.98C48.3446 15.82 48.2513 15.6067 48.2513 15.34V9.1C48.2513 8.72667 48.3579 8.43333 48.5713 8.22C48.7846 8.00667 49.0846 7.9 49.4712 7.9H56.1313C56.9313 7.9 57.3313 8.23333 57.3313 8.9C57.3313 9.56667 56.9313 9.9 56.1313 9.9H50.7713V13.7C51.4513 13.22 52.2846 12.98 53.2713 12.98Z" fill="#AA5EE0"/>
</svg>
