<svg width="397" height="297" viewBox="0 0 397 297" fill="none" xmlns="http://www.w3.org/2000/svg">
<path d="M343.485 24.26C342.658 22.9533 342.058 21.58 341.685 20.14C341.325 18.6867 341.145 17.22 341.145 15.74C341.145 14.7533 341.225 13.7733 341.385 12.8C341.545 11.8267 341.798 10.8733 342.145 9.94C342.491 8.99333 342.938 8.08667 343.485 7.22C343.631 6.98 343.825 6.83333 344.065 6.78C344.318 6.71333 344.551 6.72667 344.765 6.82C344.991 6.91333 345.158 7.08667 345.265 7.34C345.371 7.58 345.358 7.88667 345.225 8.26C344.905 9.11333 344.638 9.95333 344.425 10.78C344.225 11.5933 344.071 12.4067 343.965 13.22C343.871 14.0333 343.825 14.8733 343.825 15.74C343.825 16.6067 343.878 17.4467 343.985 18.26C344.091 19.0733 344.251 19.8867 344.465 20.7C344.678 21.5133 344.931 22.3533 345.225 23.22C345.358 23.5933 345.371 23.9 345.265 24.14C345.158 24.3933 344.991 24.5667 344.765 24.66C344.551 24.7533 344.318 24.7667 344.065 24.7C343.825 24.6467 343.631 24.5 343.485 24.26ZM361.125 23.14C360.951 23.3533 360.765 23.4733 360.565 23.5C360.378 23.54 360.211 23.5067 360.065 23.4C359.918 23.2933 359.838 23.14 359.825 22.94C359.811 22.7533 359.898 22.5467 360.085 22.32C360.351 21.9867 360.531 21.6533 360.625 21.32C360.718 20.9867 360.765 20.6867 360.765 20.42L360.865 21.1C360.398 21.1 360.018 20.9667 359.725 20.7C359.445 20.42 359.305 20.0533 359.305 19.6C359.305 19.1733 359.438 18.8267 359.705 18.56C359.971 18.28 360.331 18.14 360.785 18.14C361.251 18.14 361.618 18.3 361.885 18.62C362.151 18.9267 362.285 19.3733 362.285 19.96C362.285 20.28 362.251 20.6133 362.185 20.96C362.131 21.2933 362.018 21.64 361.845 22C361.685 22.3733 361.445 22.7533 361.125 23.14ZM383.508 24.26C383.361 24.5 383.161 24.6467 382.908 24.7C382.668 24.7667 382.434 24.7467 382.208 24.64C381.981 24.5467 381.814 24.38 381.708 24.14C381.614 23.9 381.634 23.5933 381.768 23.22C382.101 22.3533 382.368 21.5133 382.568 20.7C382.768 19.8867 382.914 19.0733 383.008 18.26C383.114 17.4467 383.168 16.6067 383.168 15.74C383.168 14.8733 383.114 14.0333 383.008 13.22C382.901 12.4067 382.741 11.5933 382.528 10.78C382.328 9.96667 382.074 9.12667 381.768 8.26C381.634 7.88667 381.621 7.58 381.728 7.34C381.834 7.08667 382.001 6.91333 382.228 6.82C382.454 6.72667 382.688 6.71333 382.928 6.78C383.168 6.83333 383.361 6.98 383.508 7.22C384.321 8.51333 384.914 9.88667 385.288 11.34C385.661 12.7933 385.848 14.26 385.848 15.74C385.848 16.7267 385.761 17.7067 385.588 18.68C385.428 19.6533 385.174 20.6067 384.828 21.54C384.494 22.4867 384.054 23.3933 383.508 24.26Z" fill="#1A1A1A"/>
<path d="M354.573 21.16C354.173 21.16 353.859 21.0533 353.633 20.84C353.406 20.6133 353.293 20.2933 353.293 19.88V18.32H348.353C347.939 18.32 347.606 18.2333 347.353 18.06C347.113 17.8867 346.993 17.6133 346.993 17.24C346.993 17.0267 347.046 16.7933 347.153 16.54C347.273 16.2867 347.479 15.9533 347.773 15.54L353.253 7.6C353.439 7.32 353.646 7.10667 353.873 6.96C354.099 6.81333 354.359 6.74 354.653 6.74C354.999 6.74 355.286 6.84667 355.513 7.06C355.739 7.26 355.853 7.58 355.853 8.02V16.2H356.833C357.219 16.2 357.506 16.2933 357.693 16.48C357.893 16.6533 357.993 16.9133 357.993 17.26C357.993 17.6067 357.893 17.8733 357.693 18.06C357.506 18.2333 357.219 18.32 356.833 18.32H355.853V19.88C355.853 20.2933 355.739 20.6133 355.513 20.84C355.286 21.0533 354.973 21.16 354.573 21.16ZM353.293 16.2V9.96H353.873L349.153 16.88V16.2H353.293Z" fill="#FF8F1F"/>
<path d="M376.955 21.16C376.555 21.16 376.242 21.0533 376.015 20.84C375.789 20.6133 375.675 20.2933 375.675 19.88V18.32H370.735C370.322 18.32 369.989 18.2333 369.735 18.06C369.495 17.8867 369.375 17.6133 369.375 17.24C369.375 17.0267 369.429 16.7933 369.535 16.54C369.655 16.2867 369.862 15.9533 370.155 15.54L375.635 7.6C375.822 7.32 376.029 7.10667 376.255 6.96C376.482 6.81333 376.742 6.74 377.035 6.74C377.382 6.74 377.669 6.84667 377.895 7.06C378.122 7.26 378.235 7.58 378.235 8.02V16.2H379.215C379.602 16.2 379.889 16.2933 380.075 16.48C380.275 16.6533 380.375 16.9133 380.375 17.26C380.375 17.6067 380.275 17.8733 380.075 18.06C379.889 18.2333 379.602 18.32 379.215 18.32H378.235V19.88C378.235 20.2933 378.122 20.6133 377.895 20.84C377.669 21.0533 377.355 21.16 376.955 21.16ZM375.675 16.2V9.96H376.255L371.535 16.88V16.2H375.675Z" fill="#AA5EE0"/>
<path d="M343.649 292.26C342.822 290.953 342.222 289.58 341.849 288.14C341.489 286.687 341.309 285.22 341.309 283.74C341.309 282.753 341.389 281.773 341.549 280.8C341.709 279.827 341.962 278.873 342.309 277.94C342.655 276.993 343.102 276.087 343.649 275.22C343.795 274.98 343.989 274.833 344.229 274.78C344.482 274.713 344.715 274.727 344.929 274.82C345.155 274.913 345.322 275.087 345.429 275.34C345.535 275.58 345.522 275.887 345.389 276.26C345.069 277.113 344.802 277.953 344.589 278.78C344.389 279.593 344.235 280.407 344.129 281.22C344.035 282.033 343.989 282.873 343.989 283.74C343.989 284.607 344.042 285.447 344.149 286.26C344.255 287.073 344.415 287.887 344.629 288.7C344.842 289.513 345.095 290.353 345.389 291.22C345.522 291.593 345.535 291.9 345.429 292.14C345.322 292.393 345.155 292.567 344.929 292.66C344.715 292.753 344.482 292.767 344.229 292.7C343.989 292.647 343.795 292.5 343.649 292.26ZM361.289 291.14C361.115 291.353 360.929 291.473 360.729 291.5C360.542 291.54 360.375 291.507 360.229 291.4C360.082 291.293 360.002 291.14 359.989 290.94C359.975 290.753 360.062 290.547 360.249 290.32C360.515 289.987 360.695 289.653 360.789 289.32C360.882 288.987 360.929 288.687 360.929 288.42L361.029 289.1C360.562 289.1 360.182 288.967 359.889 288.7C359.609 288.42 359.469 288.053 359.469 287.6C359.469 287.173 359.602 286.827 359.869 286.56C360.135 286.28 360.495 286.14 360.949 286.14C361.415 286.14 361.782 286.3 362.049 286.62C362.315 286.927 362.449 287.373 362.449 287.96C362.449 288.28 362.415 288.613 362.349 288.96C362.295 289.293 362.182 289.64 362.009 290C361.849 290.373 361.609 290.753 361.289 291.14ZM392.343 292.26C392.197 292.5 391.997 292.647 391.743 292.7C391.503 292.767 391.27 292.747 391.043 292.64C390.817 292.547 390.65 292.38 390.543 292.14C390.45 291.9 390.47 291.593 390.603 291.22C390.937 290.353 391.203 289.513 391.403 288.7C391.603 287.887 391.75 287.073 391.843 286.26C391.95 285.447 392.003 284.607 392.003 283.74C392.003 282.873 391.95 282.033 391.843 281.22C391.737 280.407 391.577 279.593 391.363 278.78C391.163 277.967 390.91 277.127 390.603 276.26C390.47 275.887 390.457 275.58 390.563 275.34C390.67 275.087 390.837 274.913 391.063 274.82C391.29 274.727 391.523 274.713 391.763 274.78C392.003 274.833 392.197 274.98 392.343 275.22C393.157 276.513 393.75 277.887 394.123 279.34C394.497 280.793 394.683 282.26 394.683 283.74C394.683 284.727 394.597 285.707 394.423 286.68C394.263 287.653 394.01 288.607 393.663 289.54C393.33 290.487 392.89 291.393 392.343 292.26Z" fill="#1A1A1A"/>
<path d="M354.737 289.16C354.337 289.16 354.023 289.053 353.797 288.84C353.57 288.613 353.457 288.293 353.457 287.88V286.32H348.517C348.103 286.32 347.77 286.233 347.517 286.06C347.277 285.887 347.157 285.613 347.157 285.24C347.157 285.027 347.21 284.793 347.317 284.54C347.437 284.287 347.643 283.953 347.937 283.54L353.417 275.6C353.603 275.32 353.81 275.107 354.037 274.96C354.263 274.813 354.523 274.74 354.817 274.74C355.163 274.74 355.45 274.847 355.677 275.06C355.903 275.26 356.017 275.58 356.017 276.02V284.2H356.997C357.383 284.2 357.67 284.293 357.857 284.48C358.057 284.653 358.157 284.913 358.157 285.26C358.157 285.607 358.057 285.873 357.857 286.06C357.67 286.233 357.383 286.32 356.997 286.32H356.017V287.88C356.017 288.293 355.903 288.613 355.677 288.84C355.45 289.053 355.137 289.16 354.737 289.16ZM353.457 284.2V277.96H354.037L349.317 284.88V284.2H353.457Z" fill="#FF8F1F"/>
<path d="M371.079 284.64C370.786 284.64 370.539 284.547 370.339 284.36C370.153 284.16 370.059 283.92 370.059 283.64C370.059 283.347 370.153 283.107 370.339 282.92C370.539 282.733 370.786 282.64 371.079 282.64H375.339C375.619 282.64 375.853 282.733 376.039 282.92C376.239 283.107 376.339 283.347 376.339 283.64C376.339 283.92 376.239 284.16 376.039 284.36C375.853 284.547 375.619 284.64 375.339 284.64H371.079ZM385.791 289.16C385.391 289.16 385.078 289.053 384.851 288.84C384.625 288.613 384.511 288.293 384.511 287.88V286.32H379.571C379.158 286.32 378.825 286.233 378.571 286.06C378.331 285.887 378.211 285.613 378.211 285.24C378.211 285.027 378.265 284.793 378.371 284.54C378.491 284.287 378.698 283.953 378.991 283.54L384.471 275.6C384.658 275.32 384.865 275.107 385.091 274.96C385.318 274.813 385.578 274.74 385.871 274.74C386.218 274.74 386.505 274.847 386.731 275.06C386.958 275.26 387.071 275.58 387.071 276.02V284.2H388.051C388.438 284.2 388.725 284.293 388.911 284.48C389.111 284.653 389.211 284.913 389.211 285.26C389.211 285.607 389.111 285.873 388.911 286.06C388.725 286.233 388.438 286.32 388.051 286.32H387.071V287.88C387.071 288.293 386.958 288.613 386.731 288.84C386.505 289.053 386.191 289.16 385.791 289.16ZM384.511 284.2V277.96H385.091L380.371 284.88V284.2H384.511Z" fill="#AA5EE0"/>
<path d="M7.47672 292.26C6.65005 290.953 6.05005 289.58 5.67672 288.14C5.31672 286.687 5.13672 285.22 5.13672 283.74C5.13672 282.753 5.21672 281.773 5.37672 280.8C5.53672 279.827 5.79005 278.873 6.13672 277.94C6.48339 276.993 6.93005 276.087 7.47672 275.22C7.62339 274.98 7.81672 274.833 8.05672 274.78C8.31005 274.713 8.54339 274.727 8.75672 274.82C8.98339 274.913 9.15005 275.087 9.25672 275.34C9.36339 275.58 9.35005 275.887 9.21672 276.26C8.89672 277.113 8.63005 277.953 8.41672 278.78C8.21672 279.593 8.06339 280.407 7.95672 281.22C7.86339 282.033 7.81672 282.873 7.81672 283.74C7.81672 284.607 7.87005 285.447 7.97672 286.26C8.08339 287.073 8.24339 287.887 8.45672 288.7C8.67005 289.513 8.92339 290.353 9.21672 291.22C9.35005 291.593 9.36339 291.9 9.25672 292.14C9.15005 292.393 8.98339 292.567 8.75672 292.66C8.54339 292.753 8.31005 292.767 8.05672 292.7C7.81672 292.647 7.62339 292.5 7.47672 292.26ZM33.7888 291.14C33.6154 291.353 33.4288 291.473 33.2288 291.5C33.0421 291.54 32.8754 291.507 32.7288 291.4C32.5821 291.293 32.5021 291.14 32.4888 290.94C32.4754 290.753 32.5621 290.547 32.7488 290.32C33.0154 289.987 33.1954 289.653 33.2888 289.32C33.3821 288.987 33.4288 288.687 33.4288 288.42L33.5288 289.1C33.0621 289.1 32.6821 288.967 32.3888 288.7C32.1088 288.42 31.9688 288.053 31.9688 287.6C31.9688 287.173 32.1021 286.827 32.3688 286.56C32.6354 286.28 32.9954 286.14 33.4488 286.14C33.9154 286.14 34.2821 286.3 34.5488 286.62C34.8154 286.927 34.9488 287.373 34.9488 287.96C34.9488 288.28 34.9154 288.613 34.8488 288.96C34.7954 289.293 34.6821 289.64 34.5088 290C34.3488 290.373 34.1088 290.753 33.7888 291.14ZM58.5153 292.26C58.3686 292.5 58.1686 292.647 57.9153 292.7C57.6753 292.767 57.442 292.747 57.2153 292.64C56.9886 292.547 56.822 292.38 56.7153 292.14C56.622 291.9 56.642 291.593 56.7753 291.22C57.1086 290.353 57.3753 289.513 57.5753 288.7C57.7753 287.887 57.922 287.073 58.0153 286.26C58.122 285.447 58.1753 284.607 58.1753 283.74C58.1753 282.873 58.122 282.033 58.0153 281.22C57.9086 280.407 57.7486 279.593 57.5353 278.78C57.3353 277.967 57.082 277.127 56.7753 276.26C56.642 275.887 56.6286 275.58 56.7353 275.34C56.842 275.087 57.0086 274.913 57.2353 274.82C57.462 274.727 57.6953 274.713 57.9353 274.78C58.1753 274.833 58.3686 274.98 58.5153 275.22C59.3286 276.513 59.922 277.887 60.2953 279.34C60.6686 280.793 60.8553 282.26 60.8553 283.74C60.8553 284.727 60.7686 285.707 60.5953 286.68C60.4353 287.653 60.182 288.607 59.8353 289.54C59.502 290.487 59.062 291.393 58.5153 292.26Z" fill="#1A1A1A"/>
<path d="M12.5247 284.64C12.2314 284.64 11.9847 284.547 11.7847 284.36C11.598 284.16 11.5047 283.92 11.5047 283.64C11.5047 283.347 11.598 283.107 11.7847 282.92C11.9847 282.733 12.2314 282.64 12.5247 282.64H16.7847C17.0647 282.64 17.298 282.733 17.4847 282.92C17.6847 283.107 17.7847 283.347 17.7847 283.64C17.7847 283.92 17.6847 284.16 17.4847 284.36C17.298 284.547 17.0647 284.64 16.7847 284.64H12.5247ZM27.2366 289.16C26.8366 289.16 26.5232 289.053 26.2966 288.84C26.0699 288.613 25.9566 288.293 25.9566 287.88V286.32H21.0166C20.6032 286.32 20.2699 286.233 20.0166 286.06C19.7766 285.887 19.6566 285.613 19.6566 285.24C19.6566 285.027 19.7099 284.793 19.8166 284.54C19.9366 284.287 20.1432 283.953 20.4366 283.54L25.9166 275.6C26.1032 275.32 26.3099 275.107 26.5366 274.96C26.7632 274.813 27.0232 274.74 27.3166 274.74C27.6632 274.74 27.9499 274.847 28.1766 275.06C28.4032 275.26 28.5166 275.58 28.5166 276.02V284.2H29.4966C29.8832 284.2 30.1699 284.293 30.3566 284.48C30.5566 284.653 30.6566 284.913 30.6566 285.26C30.6566 285.607 30.5566 285.873 30.3566 286.06C30.1699 286.233 29.8832 286.32 29.4966 286.32H28.5166V287.88C28.5166 288.293 28.4032 288.613 28.1766 288.84C27.9499 289.053 27.6366 289.16 27.2366 289.16ZM25.9566 284.2V277.96H26.5366L21.8166 284.88V284.2H25.9566Z" fill="#FF8F1F"/>
<path d="M37.2513 284.64C36.9579 284.64 36.7113 284.547 36.5113 284.36C36.3246 284.16 36.2313 283.92 36.2313 283.64C36.2313 283.347 36.3246 283.107 36.5113 282.92C36.7113 282.733 36.9579 282.64 37.2513 282.64H41.5113C41.7913 282.64 42.0246 282.733 42.2113 282.92C42.4113 283.107 42.5113 283.347 42.5113 283.64C42.5113 283.92 42.4113 284.16 42.2113 284.36C42.0246 284.547 41.7913 284.64 41.5113 284.64H37.2513ZM51.9631 289.16C51.5631 289.16 51.2498 289.053 51.0231 288.84C50.7965 288.613 50.6831 288.293 50.6831 287.88V286.32H45.7431C45.3298 286.32 44.9965 286.233 44.7431 286.06C44.5031 285.887 44.3831 285.613 44.3831 285.24C44.3831 285.027 44.4365 284.793 44.5431 284.54C44.6631 284.287 44.8698 283.953 45.1631 283.54L50.6431 275.6C50.8298 275.32 51.0365 275.107 51.2631 274.96C51.4898 274.813 51.7498 274.74 52.0431 274.74C52.3898 274.74 52.6765 274.847 52.9031 275.06C53.1298 275.26 53.2431 275.58 53.2431 276.02V284.2H54.2231C54.6098 284.2 54.8965 284.293 55.0831 284.48C55.2831 284.653 55.3831 284.913 55.3831 285.26C55.3831 285.607 55.2831 285.873 55.0831 286.06C54.8965 286.233 54.6098 286.32 54.2231 286.32H53.2431V287.88C53.2431 288.293 53.1298 288.613 52.9031 288.84C52.6765 289.053 52.3631 289.16 51.9631 289.16ZM50.6831 284.2V277.96H51.2631L46.5431 284.88V284.2H50.6831Z" fill="#AA5EE0"/>
<path d="M12.6486 24.26C11.8219 22.9533 11.2219 21.58 10.8486 20.14C10.4886 18.6867 10.3086 17.22 10.3086 15.74C10.3086 14.7533 10.3886 13.7733 10.5486 12.8C10.7086 11.8267 10.9619 10.8733 11.3086 9.94C11.6553 8.99333 12.1019 8.08667 12.6486 7.22C12.7953 6.98 12.9886 6.83333 13.2286 6.78C13.4819 6.71333 13.7153 6.72667 13.9286 6.82C14.1553 6.91333 14.3219 7.08667 14.4286 7.34C14.5353 7.58 14.5219 7.88667 14.3886 8.26C14.0686 9.11333 13.8019 9.95333 13.5886 10.78C13.3886 11.5933 13.2353 12.4067 13.1286 13.22C13.0353 14.0333 12.9886 14.8733 12.9886 15.74C12.9886 16.6067 13.0419 17.4467 13.1486 18.26C13.2553 19.0733 13.4153 19.8867 13.6286 20.7C13.8419 21.5133 14.0953 22.3533 14.3886 23.22C14.5219 23.5933 14.5353 23.9 14.4286 24.14C14.3219 24.3933 14.1553 24.5667 13.9286 24.66C13.7153 24.7533 13.4819 24.7667 13.2286 24.7C12.9886 24.6467 12.7953 24.5 12.6486 24.26ZM38.9606 23.14C38.7873 23.3533 38.6006 23.4733 38.4006 23.5C38.214 23.54 38.0473 23.5067 37.9006 23.4C37.754 23.2933 37.674 23.14 37.6606 22.94C37.6473 22.7533 37.734 22.5467 37.9206 22.32C38.1873 21.9867 38.3673 21.6533 38.4606 21.32C38.554 20.9867 38.6006 20.6867 38.6006 20.42L38.7006 21.1C38.234 21.1 37.854 20.9667 37.5606 20.7C37.2806 20.42 37.1406 20.0533 37.1406 19.6C37.1406 19.1733 37.274 18.8267 37.5406 18.56C37.8073 18.28 38.1673 18.14 38.6206 18.14C39.0873 18.14 39.454 18.3 39.7206 18.62C39.9873 18.9267 40.1206 19.3733 40.1206 19.96C40.1206 20.28 40.0873 20.6133 40.0206 20.96C39.9673 21.2933 39.854 21.64 39.6806 22C39.5206 22.3733 39.2806 22.7533 38.9606 23.14ZM61.3434 24.26C61.1968 24.5 60.9968 24.6467 60.7434 24.7C60.5034 24.7667 60.2701 24.7467 60.0434 24.64C59.8168 24.5467 59.6501 24.38 59.5434 24.14C59.4501 23.9 59.4701 23.5933 59.6034 23.22C59.9368 22.3533 60.2034 21.5133 60.4034 20.7C60.6034 19.8867 60.7501 19.0733 60.8434 18.26C60.9501 17.4467 61.0034 16.6067 61.0034 15.74C61.0034 14.8733 60.9501 14.0333 60.8434 13.22C60.7368 12.4067 60.5768 11.5933 60.3634 10.78C60.1634 9.96667 59.9101 9.12667 59.6034 8.26C59.4701 7.88667 59.4568 7.58 59.5634 7.34C59.6701 7.08667 59.8368 6.91333 60.0634 6.82C60.2901 6.72667 60.5234 6.71333 60.7634 6.78C61.0034 6.83333 61.1968 6.98 61.3434 7.22C62.1568 8.51333 62.7501 9.88667 63.1234 11.34C63.4968 12.7933 63.6834 14.26 63.6834 15.74C63.6834 16.7267 63.5968 17.7067 63.4234 18.68C63.2634 19.6533 63.0101 20.6067 62.6634 21.54C62.3301 22.4867 61.8901 23.3933 61.3434 24.26Z" fill="#1A1A1A"/>
<path d="M17.6966 16.64C17.4032 16.64 17.1566 16.5467 16.9566 16.36C16.7699 16.16 16.6766 15.92 16.6766 15.64C16.6766 15.3467 16.7699 15.1067 16.9566 14.92C17.1566 14.7333 17.4032 14.64 17.6966 14.64H21.9566C22.2366 14.64 22.4699 14.7333 22.6566 14.92C22.8566 15.1067 22.9566 15.3467 22.9566 15.64C22.9566 15.92 22.8566 16.16 22.6566 16.36C22.4699 16.5467 22.2366 16.64 21.9566 16.64H17.6966ZM32.4084 21.16C32.0084 21.16 31.6951 21.0533 31.4684 20.84C31.2418 20.6133 31.1284 20.2933 31.1284 19.88V18.32H26.1884C25.7751 18.32 25.4418 18.2333 25.1884 18.06C24.9484 17.8867 24.8284 17.6133 24.8284 17.24C24.8284 17.0267 24.8818 16.7933 24.9884 16.54C25.1084 16.2867 25.3151 15.9533 25.6084 15.54L31.0884 7.6C31.2751 7.32 31.4818 7.10667 31.7084 6.96C31.9351 6.81333 32.1951 6.74 32.4884 6.74C32.8351 6.74 33.1218 6.84667 33.3484 7.06C33.5751 7.26 33.6884 7.58 33.6884 8.02V16.2H34.6684C35.0551 16.2 35.3418 16.2933 35.5284 16.48C35.7284 16.6533 35.8284 16.9133 35.8284 17.26C35.8284 17.6067 35.7284 17.8733 35.5284 18.06C35.3418 18.2333 35.0551 18.32 34.6684 18.32H33.6884V19.88C33.6884 20.2933 33.5751 20.6133 33.3484 20.84C33.1218 21.0533 32.8084 21.16 32.4084 21.16ZM31.1284 16.2V9.96H31.7084L26.9884 16.88V16.2H31.1284Z" fill="#FF8F1F"/>
<path d="M54.7913 21.16C54.3913 21.16 54.0779 21.0533 53.8513 20.84C53.6246 20.6133 53.5113 20.2933 53.5113 19.88V18.32H48.5713C48.1579 18.32 47.8246 18.2333 47.5713 18.06C47.3313 17.8867 47.2113 17.6133 47.2113 17.24C47.2113 17.0267 47.2646 16.7933 47.3713 16.54C47.4913 16.2867 47.6979 15.9533 47.9913 15.54L53.4713 7.6C53.6579 7.32 53.8646 7.10667 54.0913 6.96C54.3179 6.81333 54.5779 6.74 54.8713 6.74C55.2179 6.74 55.5046 6.84667 55.7313 7.06C55.9579 7.26 56.0713 7.58 56.0713 8.02V16.2H57.0513C57.4379 16.2 57.7246 16.2933 57.9113 16.48C58.1113 16.6533 58.2113 16.9133 58.2113 17.26C58.2113 17.6067 58.1113 17.8733 57.9113 18.06C57.7246 18.2333 57.4379 18.32 57.0513 18.32H56.0713V19.88C56.0713 20.2933 55.9579 20.6133 55.7313 20.84C55.5046 21.0533 55.1913 21.16 54.7913 21.16ZM53.5113 16.2V9.96H54.0913L49.3713 16.88V16.2H53.5113Z" fill="#AA5EE0"/>
</svg>
