<svg width="204" height="100" viewBox="0 0 204 100" fill="none" xmlns="http://www.w3.org/2000/svg">
<path d="M150.485 24.26C149.658 22.9533 149.058 21.58 148.685 20.14C148.325 18.6867 148.145 17.22 148.145 15.74C148.145 14.7533 148.225 13.7733 148.385 12.8C148.545 11.8267 148.798 10.8733 149.145 9.94C149.491 8.99333 149.938 8.08667 150.485 7.22C150.631 6.98 150.825 6.83333 151.065 6.78C151.318 6.71333 151.551 6.72667 151.765 6.82C151.991 6.91333 152.158 7.08667 152.265 7.34C152.371 7.58 152.358 7.88667 152.225 8.26C151.905 9.11333 151.638 9.95333 151.425 10.78C151.225 11.5933 151.071 12.4067 150.965 13.22C150.871 14.0333 150.825 14.8733 150.825 15.74C150.825 16.6067 150.878 17.4467 150.985 18.26C151.091 19.0733 151.251 19.8867 151.465 20.7C151.678 21.5133 151.931 22.3533 152.225 23.22C152.358 23.5933 152.371 23.9 152.265 24.14C152.158 24.3933 151.991 24.5667 151.765 24.66C151.551 24.7533 151.318 24.7667 151.065 24.7C150.825 24.6467 150.631 24.5 150.485 24.26ZM168.125 23.14C167.951 23.3533 167.765 23.4733 167.565 23.5C167.378 23.54 167.211 23.5067 167.065 23.4C166.918 23.2933 166.838 23.14 166.825 22.94C166.811 22.7533 166.898 22.5467 167.085 22.32C167.351 21.9867 167.531 21.6533 167.625 21.32C167.718 20.9867 167.765 20.6867 167.765 20.42L167.865 21.1C167.398 21.1 167.018 20.9667 166.725 20.7C166.445 20.42 166.305 20.0533 166.305 19.6C166.305 19.1733 166.438 18.8267 166.705 18.56C166.971 18.28 167.331 18.14 167.785 18.14C168.251 18.14 168.618 18.3 168.885 18.62C169.151 18.9267 169.285 19.3733 169.285 19.96C169.285 20.28 169.251 20.6133 169.185 20.96C169.131 21.2933 169.018 21.64 168.845 22C168.685 22.3733 168.445 22.7533 168.125 23.14ZM190.508 24.26C190.361 24.5 190.161 24.6467 189.908 24.7C189.668 24.7667 189.434 24.7467 189.208 24.64C188.981 24.5467 188.814 24.38 188.708 24.14C188.614 23.9 188.634 23.5933 188.768 23.22C189.101 22.3533 189.368 21.5133 189.568 20.7C189.768 19.8867 189.914 19.0733 190.008 18.26C190.114 17.4467 190.168 16.6067 190.168 15.74C190.168 14.8733 190.114 14.0333 190.008 13.22C189.901 12.4067 189.741 11.5933 189.528 10.78C189.328 9.96667 189.074 9.12667 188.768 8.26C188.634 7.88667 188.621 7.58 188.728 7.34C188.834 7.08667 189.001 6.91333 189.228 6.82C189.454 6.72667 189.688 6.71333 189.928 6.78C190.168 6.83333 190.361 6.98 190.508 7.22C191.321 8.51333 191.914 9.88667 192.288 11.34C192.661 12.7933 192.848 14.26 192.848 15.74C192.848 16.7267 192.761 17.7067 192.588 18.68C192.428 19.6533 192.174 20.6067 191.828 21.54C191.494 22.4867 191.054 23.3933 190.508 24.26Z" fill="#1A1A1A"/>
<path d="M156.433 21C156.086 21 155.813 20.9067 155.613 20.72C155.426 20.52 155.333 20.2533 155.333 19.92C155.333 19.5733 155.426 19.3133 155.613 19.14C155.813 18.9667 156.086 18.88 156.433 18.88H158.673V9.06H159.913L156.973 10.84C156.719 10.9867 156.479 11.0467 156.252 11.02C156.039 10.98 155.853 10.8867 155.693 10.74C155.546 10.58 155.446 10.3933 155.393 10.18C155.339 9.96667 155.353 9.75333 155.433 9.54C155.526 9.31333 155.699 9.12667 155.952 8.98L158.713 7.32C158.979 7.16 159.246 7.02667 159.513 6.92C159.779 6.8 160.026 6.74 160.253 6.74C160.533 6.74 160.766 6.82 160.953 6.98C161.139 7.12667 161.233 7.37333 161.233 7.72V18.88H163.273C163.619 18.88 163.886 18.9667 164.073 19.14C164.273 19.3133 164.373 19.5733 164.373 19.92C164.373 20.2667 164.273 20.5333 164.073 20.72C163.886 20.9067 163.619 21 163.273 21H156.433Z" fill="#FF8F1F"/>
<path d="M178.815 21C178.469 21 178.195 20.9067 177.995 20.72C177.809 20.52 177.715 20.2533 177.715 19.92C177.715 19.5733 177.809 19.3133 177.995 19.14C178.195 18.9667 178.469 18.88 178.815 18.88H181.055V9.06H182.295L179.355 10.84C179.102 10.9867 178.862 11.0467 178.635 11.02C178.422 10.98 178.235 10.8867 178.075 10.74C177.929 10.58 177.829 10.3933 177.775 10.18C177.722 9.96667 177.735 9.75333 177.815 9.54C177.909 9.31333 178.082 9.12667 178.335 8.98L181.095 7.32C181.362 7.16 181.629 7.02667 181.895 6.92C182.162 6.8 182.409 6.74 182.635 6.74C182.915 6.74 183.149 6.82 183.335 6.98C183.522 7.12667 183.615 7.37333 183.615 7.72V18.88H185.655C186.002 18.88 186.269 18.9667 186.455 19.14C186.655 19.3133 186.755 19.5733 186.755 19.92C186.755 20.2667 186.655 20.5333 186.455 20.72C186.269 20.9067 186.002 21 185.655 21H178.815Z" fill="#AA5EE0"/>
<path d="M150.649 95.26C149.822 93.9533 149.222 92.58 148.849 91.14C148.489 89.6867 148.309 88.22 148.309 86.74C148.309 85.7533 148.389 84.7733 148.549 83.8C148.709 82.8267 148.962 81.8733 149.309 80.94C149.655 79.9933 150.102 79.0867 150.649 78.22C150.795 77.98 150.989 77.8333 151.229 77.78C151.482 77.7133 151.715 77.7267 151.929 77.82C152.155 77.9133 152.322 78.0867 152.429 78.34C152.535 78.58 152.522 78.8867 152.389 79.26C152.069 80.1133 151.802 80.9533 151.589 81.78C151.389 82.5933 151.235 83.4067 151.129 84.22C151.035 85.0333 150.989 85.8733 150.989 86.74C150.989 87.6067 151.042 88.4467 151.149 89.26C151.255 90.0733 151.415 90.8867 151.629 91.7C151.842 92.5133 152.095 93.3533 152.389 94.22C152.522 94.5933 152.535 94.9 152.429 95.14C152.322 95.3933 152.155 95.5667 151.929 95.66C151.715 95.7533 151.482 95.7667 151.229 95.7C150.989 95.6467 150.795 95.5 150.649 95.26ZM168.289 94.14C168.115 94.3533 167.929 94.4733 167.729 94.5C167.542 94.54 167.375 94.5067 167.229 94.4C167.082 94.2933 167.002 94.14 166.989 93.94C166.975 93.7533 167.062 93.5467 167.249 93.32C167.515 92.9867 167.695 92.6533 167.789 92.32C167.882 91.9867 167.929 91.6867 167.929 91.42L168.029 92.1C167.562 92.1 167.182 91.9667 166.889 91.7C166.609 91.42 166.469 91.0533 166.469 90.6C166.469 90.1733 166.602 89.8267 166.869 89.56C167.135 89.28 167.495 89.14 167.949 89.14C168.415 89.14 168.782 89.3 169.049 89.62C169.315 89.9267 169.449 90.3733 169.449 90.96C169.449 91.28 169.415 91.6133 169.349 91.96C169.295 92.2933 169.182 92.64 169.009 93C168.849 93.3733 168.609 93.7533 168.289 94.14ZM199.343 95.26C199.197 95.5 198.997 95.6467 198.743 95.7C198.503 95.7667 198.27 95.7467 198.043 95.64C197.817 95.5467 197.65 95.38 197.543 95.14C197.45 94.9 197.47 94.5933 197.603 94.22C197.937 93.3533 198.203 92.5133 198.403 91.7C198.603 90.8867 198.75 90.0733 198.843 89.26C198.95 88.4467 199.003 87.6067 199.003 86.74C199.003 85.8733 198.95 85.0333 198.843 84.22C198.737 83.4067 198.577 82.5933 198.363 81.78C198.163 80.9667 197.91 80.1267 197.603 79.26C197.47 78.8867 197.457 78.58 197.563 78.34C197.67 78.0867 197.837 77.9133 198.063 77.82C198.29 77.7267 198.523 77.7133 198.763 77.78C199.003 77.8333 199.197 77.98 199.343 78.22C200.157 79.5133 200.75 80.8867 201.123 82.34C201.497 83.7933 201.683 85.26 201.683 86.74C201.683 87.7267 201.597 88.7067 201.423 89.68C201.263 90.6533 201.01 91.6067 200.663 92.54C200.33 93.4867 199.89 94.3933 199.343 95.26Z" fill="#1A1A1A"/>
<path d="M156.597 92C156.25 92 155.977 91.9067 155.777 91.72C155.59 91.52 155.497 91.2533 155.497 90.92C155.497 90.5733 155.59 90.3133 155.777 90.14C155.977 89.9667 156.25 89.88 156.597 89.88H158.837V80.06H160.077L157.137 81.84C156.883 81.9867 156.643 82.0467 156.417 82.02C156.203 81.98 156.017 81.8867 155.857 81.74C155.71 81.58 155.61 81.3933 155.557 81.18C155.503 80.9667 155.517 80.7533 155.597 80.54C155.69 80.3133 155.863 80.1267 156.117 79.98L158.877 78.32C159.143 78.16 159.41 78.0267 159.677 77.92C159.943 77.8 160.19 77.74 160.417 77.74C160.697 77.74 160.93 77.82 161.117 77.98C161.303 78.1267 161.397 78.3733 161.397 78.72V89.88H163.437C163.783 89.88 164.05 89.9667 164.237 90.14C164.437 90.3133 164.537 90.5733 164.537 90.92C164.537 91.2667 164.437 91.5333 164.237 91.72C164.05 91.9067 163.783 92 163.437 92H156.597Z" fill="#FF8F1F"/>
<path d="M178.079 87.64C177.786 87.64 177.539 87.5467 177.339 87.36C177.153 87.16 177.059 86.92 177.059 86.64C177.059 86.3467 177.153 86.1067 177.339 85.92C177.539 85.7333 177.786 85.64 178.079 85.64H182.339C182.619 85.64 182.853 85.7333 183.039 85.92C183.239 86.1067 183.339 86.3467 183.339 86.64C183.339 86.92 183.239 87.16 183.039 87.36C182.853 87.5467 182.619 87.64 182.339 87.64H178.079ZM187.651 92C187.305 92 187.031 91.9067 186.831 91.72C186.645 91.52 186.551 91.2533 186.551 90.92C186.551 90.5733 186.645 90.3133 186.831 90.14C187.031 89.9667 187.305 89.88 187.651 89.88H189.891V80.06H191.131L188.191 81.84C187.938 81.9867 187.698 82.0467 187.471 82.02C187.258 81.98 187.071 81.8867 186.911 81.74C186.765 81.58 186.665 81.3933 186.611 81.18C186.558 80.9667 186.571 80.7533 186.651 80.54C186.745 80.3133 186.918 80.1267 187.171 79.98L189.931 78.32C190.198 78.16 190.465 78.0267 190.731 77.92C190.998 77.8 191.245 77.74 191.471 77.74C191.751 77.74 191.985 77.82 192.171 77.98C192.358 78.1267 192.451 78.3733 192.451 78.72V89.88H194.491C194.838 89.88 195.105 89.9667 195.291 90.14C195.491 90.3133 195.591 90.5733 195.591 90.92C195.591 91.2667 195.491 91.5333 195.291 91.72C195.105 91.9067 194.838 92 194.491 92H187.651Z" fill="#AA5EE0"/>
<path d="M7.47672 95.26C6.65005 93.9533 6.05005 92.58 5.67672 91.14C5.31672 89.6867 5.13672 88.22 5.13672 86.74C5.13672 85.7533 5.21672 84.7733 5.37672 83.8C5.53672 82.8267 5.79005 81.8733 6.13672 80.94C6.48339 79.9933 6.93005 79.0867 7.47672 78.22C7.62339 77.98 7.81672 77.8333 8.05672 77.78C8.31005 77.7133 8.54339 77.7267 8.75672 77.82C8.98339 77.9133 9.15005 78.0867 9.25672 78.34C9.36339 78.58 9.35005 78.8867 9.21672 79.26C8.89672 80.1133 8.63005 80.9533 8.41672 81.78C8.21672 82.5933 8.06339 83.4067 7.95672 84.22C7.86339 85.0333 7.81672 85.8733 7.81672 86.74C7.81672 87.6067 7.87005 88.4467 7.97672 89.26C8.08339 90.0733 8.24339 90.8867 8.45672 91.7C8.67005 92.5133 8.92339 93.3533 9.21672 94.22C9.35005 94.5933 9.36339 94.9 9.25672 95.14C9.15005 95.3933 8.98339 95.5667 8.75672 95.66C8.54339 95.7533 8.31005 95.7667 8.05672 95.7C7.81672 95.6467 7.62339 95.5 7.47672 95.26ZM33.7888 94.14C33.6154 94.3533 33.4288 94.4733 33.2288 94.5C33.0421 94.54 32.8754 94.5067 32.7288 94.4C32.5821 94.2933 32.5021 94.14 32.4888 93.94C32.4754 93.7533 32.5621 93.5467 32.7488 93.32C33.0154 92.9867 33.1954 92.6533 33.2888 92.32C33.3821 91.9867 33.4288 91.6867 33.4288 91.42L33.5288 92.1C33.0621 92.1 32.6821 91.9667 32.3888 91.7C32.1088 91.42 31.9688 91.0533 31.9688 90.6C31.9688 90.1733 32.1021 89.8267 32.3688 89.56C32.6354 89.28 32.9954 89.14 33.4488 89.14C33.9154 89.14 34.2821 89.3 34.5488 89.62C34.8154 89.9267 34.9488 90.3733 34.9488 90.96C34.9488 91.28 34.9154 91.6133 34.8488 91.96C34.7954 92.2933 34.6821 92.64 34.5088 93C34.3488 93.3733 34.1088 93.7533 33.7888 94.14ZM58.5153 95.26C58.3686 95.5 58.1686 95.6467 57.9153 95.7C57.6753 95.7667 57.442 95.7467 57.2153 95.64C56.9886 95.5467 56.822 95.38 56.7153 95.14C56.622 94.9 56.642 94.5933 56.7753 94.22C57.1086 93.3533 57.3753 92.5133 57.5753 91.7C57.7753 90.8867 57.922 90.0733 58.0153 89.26C58.122 88.4467 58.1753 87.6067 58.1753 86.74C58.1753 85.8733 58.122 85.0333 58.0153 84.22C57.9086 83.4067 57.7486 82.5933 57.5353 81.78C57.3353 80.9667 57.082 80.1267 56.7753 79.26C56.642 78.8867 56.6286 78.58 56.7353 78.34C56.842 78.0867 57.0086 77.9133 57.2353 77.82C57.462 77.7267 57.6953 77.7133 57.9353 77.78C58.1753 77.8333 58.3686 77.98 58.5153 78.22C59.3286 79.5133 59.922 80.8867 60.2953 82.34C60.6686 83.7933 60.8553 85.26 60.8553 86.74C60.8553 87.7267 60.7686 88.7067 60.5953 89.68C60.4353 90.6533 60.182 91.6067 59.8353 92.54C59.502 93.4867 59.062 94.3933 58.5153 95.26Z" fill="#1A1A1A"/>
<path d="M12.5247 87.64C12.2314 87.64 11.9847 87.5467 11.7847 87.36C11.598 87.16 11.5047 86.92 11.5047 86.64C11.5047 86.3467 11.598 86.1067 11.7847 85.92C11.9847 85.7333 12.2314 85.64 12.5247 85.64H16.7847C17.0647 85.64 17.298 85.7333 17.4847 85.92C17.6847 86.1067 17.7847 86.3467 17.7847 86.64C17.7847 86.92 17.6847 87.16 17.4847 87.36C17.298 87.5467 17.0647 87.64 16.7847 87.64H12.5247ZM22.0966 92C21.7499 92 21.4766 91.9067 21.2766 91.72C21.0899 91.52 20.9966 91.2533 20.9966 90.92C20.9966 90.5733 21.0899 90.3133 21.2766 90.14C21.4766 89.9667 21.7499 89.88 22.0966 89.88H24.3366V80.06H25.5766L22.6366 81.84C22.3832 81.9867 22.1432 82.0467 21.9166 82.02C21.7032 81.98 21.5166 81.8867 21.3566 81.74C21.2099 81.58 21.1099 81.3933 21.0566 81.18C21.0032 80.9667 21.0166 80.7533 21.0966 80.54C21.1899 80.3133 21.3632 80.1267 21.6166 79.98L24.3766 78.32C24.6432 78.16 24.9099 78.0267 25.1766 77.92C25.4432 77.8 25.6899 77.74 25.9166 77.74C26.1966 77.74 26.4299 77.82 26.6166 77.98C26.8032 78.1267 26.8966 78.3733 26.8966 78.72V89.88H28.9366C29.2832 89.88 29.5499 89.9667 29.7366 90.14C29.9366 90.3133 30.0366 90.5733 30.0366 90.92C30.0366 91.2667 29.9366 91.5333 29.7366 91.72C29.5499 91.9067 29.2832 92 28.9366 92H22.0966Z" fill="#FF8F1F"/>
<path d="M37.2513 87.64C36.9579 87.64 36.7113 87.5467 36.5113 87.36C36.3246 87.16 36.2313 86.92 36.2313 86.64C36.2313 86.3467 36.3246 86.1067 36.5113 85.92C36.7113 85.7333 36.9579 85.64 37.2513 85.64H41.5113C41.7913 85.64 42.0246 85.7333 42.2113 85.92C42.4113 86.1067 42.5113 86.3467 42.5113 86.64C42.5113 86.92 42.4113 87.16 42.2113 87.36C42.0246 87.5467 41.7913 87.64 41.5113 87.64H37.2513ZM46.8231 92C46.4765 92 46.2031 91.9067 46.0031 91.72C45.8165 91.52 45.7231 91.2533 45.7231 90.92C45.7231 90.5733 45.8165 90.3133 46.0031 90.14C46.2031 89.9667 46.4765 89.88 46.8231 89.88H49.0631V80.06H50.3031L47.3631 81.84C47.1098 81.9867 46.8698 82.0467 46.6431 82.02C46.4298 81.98 46.2431 81.8867 46.0831 81.74C45.9365 81.58 45.8365 81.3933 45.7831 81.18C45.7298 80.9667 45.7431 80.7533 45.8231 80.54C45.9165 80.3133 46.0898 80.1267 46.3431 79.98L49.1031 78.32C49.3698 78.16 49.6365 78.0267 49.9031 77.92C50.1698 77.8 50.4165 77.74 50.6431 77.74C50.9231 77.74 51.1565 77.82 51.3431 77.98C51.5298 78.1267 51.6231 78.3733 51.6231 78.72V89.88H53.6631C54.0098 89.88 54.2765 89.9667 54.4631 90.14C54.6631 90.3133 54.7631 90.5733 54.7631 90.92C54.7631 91.2667 54.6631 91.5333 54.4631 91.72C54.2765 91.9067 54.0098 92 53.6631 92H46.8231Z" fill="#AA5EE0"/>
<path d="M11.6486 24.26C10.8219 22.9533 10.2219 21.58 9.84859 20.14C9.48859 18.6867 9.30859 17.22 9.30859 15.74C9.30859 14.7533 9.38859 13.7733 9.54859 12.8C9.70859 11.8267 9.96193 10.8733 10.3086 9.94C10.6553 8.99333 11.1019 8.08667 11.6486 7.22C11.7953 6.98 11.9886 6.83333 12.2286 6.78C12.4819 6.71333 12.7153 6.72667 12.9286 6.82C13.1553 6.91333 13.3219 7.08667 13.4286 7.34C13.5353 7.58 13.5219 7.88667 13.3886 8.26C13.0686 9.11333 12.8019 9.95333 12.5886 10.78C12.3886 11.5933 12.2353 12.4067 12.1286 13.22C12.0353 14.0333 11.9886 14.8733 11.9886 15.74C11.9886 16.6067 12.0419 17.4467 12.1486 18.26C12.2553 19.0733 12.4153 19.8867 12.6286 20.7C12.8419 21.5133 13.0953 22.3533 13.3886 23.22C13.5219 23.5933 13.5353 23.9 13.4286 24.14C13.3219 24.3933 13.1553 24.5667 12.9286 24.66C12.7153 24.7533 12.4819 24.7667 12.2286 24.7C11.9886 24.6467 11.7953 24.5 11.6486 24.26ZM37.9606 23.14C37.7873 23.3533 37.6006 23.4733 37.4006 23.5C37.214 23.54 37.0473 23.5067 36.9006 23.4C36.754 23.2933 36.674 23.14 36.6606 22.94C36.6473 22.7533 36.734 22.5467 36.9206 22.32C37.1873 21.9867 37.3673 21.6533 37.4606 21.32C37.554 20.9867 37.6006 20.6867 37.6006 20.42L37.7006 21.1C37.234 21.1 36.854 20.9667 36.5606 20.7C36.2806 20.42 36.1406 20.0533 36.1406 19.6C36.1406 19.1733 36.274 18.8267 36.5406 18.56C36.8073 18.28 37.1673 18.14 37.6206 18.14C38.0873 18.14 38.454 18.3 38.7206 18.62C38.9873 18.9267 39.1206 19.3733 39.1206 19.96C39.1206 20.28 39.0873 20.6133 39.0206 20.96C38.9673 21.2933 38.854 21.64 38.6806 22C38.5206 22.3733 38.2806 22.7533 37.9606 23.14ZM60.3434 24.26C60.1968 24.5 59.9968 24.6467 59.7434 24.7C59.5034 24.7667 59.2701 24.7467 59.0434 24.64C58.8168 24.5467 58.6501 24.38 58.5434 24.14C58.4501 23.9 58.4701 23.5933 58.6034 23.22C58.9368 22.3533 59.2034 21.5133 59.4034 20.7C59.6034 19.8867 59.7501 19.0733 59.8434 18.26C59.9501 17.4467 60.0034 16.6067 60.0034 15.74C60.0034 14.8733 59.9501 14.0333 59.8434 13.22C59.7368 12.4067 59.5768 11.5933 59.3634 10.78C59.1634 9.96667 58.9101 9.12667 58.6034 8.26C58.4701 7.88667 58.4568 7.58 58.5634 7.34C58.6701 7.08667 58.8368 6.91333 59.0634 6.82C59.2901 6.72667 59.5234 6.71333 59.7634 6.78C60.0034 6.83333 60.1968 6.98 60.3434 7.22C61.1568 8.51333 61.7501 9.88667 62.1234 11.34C62.4968 12.7933 62.6834 14.26 62.6834 15.74C62.6834 16.7267 62.5968 17.7067 62.4234 18.68C62.2634 19.6533 62.0101 20.6067 61.6634 21.54C61.3301 22.4867 60.8901 23.3933 60.3434 24.26Z" fill="#1A1A1A"/>
<path d="M16.6966 16.64C16.4032 16.64 16.1566 16.5467 15.9566 16.36C15.7699 16.16 15.6766 15.92 15.6766 15.64C15.6766 15.3467 15.7699 15.1067 15.9566 14.92C16.1566 14.7333 16.4032 14.64 16.6966 14.64H20.9566C21.2366 14.64 21.4699 14.7333 21.6566 14.92C21.8566 15.1067 21.9566 15.3467 21.9566 15.64C21.9566 15.92 21.8566 16.16 21.6566 16.36C21.4699 16.5467 21.2366 16.64 20.9566 16.64H16.6966ZM26.2684 21C25.9218 21 25.6484 20.9067 25.4484 20.72C25.2618 20.52 25.1684 20.2533 25.1684 19.92C25.1684 19.5733 25.2618 19.3133 25.4484 19.14C25.6484 18.9667 25.9218 18.88 26.2684 18.88H28.5084V9.06H29.7484L26.8084 10.84C26.5551 10.9867 26.3151 11.0467 26.0884 11.02C25.8751 10.98 25.6884 10.8867 25.5284 10.74C25.3818 10.58 25.2818 10.3933 25.2284 10.18C25.1751 9.96667 25.1884 9.75333 25.2684 9.54C25.3618 9.31333 25.5351 9.12667 25.7884 8.98L28.5484 7.32C28.8151 7.16 29.0818 7.02667 29.3484 6.92C29.6151 6.8 29.8618 6.74 30.0884 6.74C30.3684 6.74 30.6018 6.82 30.7884 6.98C30.9751 7.12667 31.0684 7.37333 31.0684 7.72V18.88H33.1084C33.4551 18.88 33.7218 18.9667 33.9084 19.14C34.1084 19.3133 34.2084 19.5733 34.2084 19.92C34.2084 20.2667 34.1084 20.5333 33.9084 20.72C33.7218 20.9067 33.4551 21 33.1084 21H26.2684Z" fill="#FF8F1F"/>
<path d="M48.6513 21C48.3046 21 48.0313 20.9067 47.8313 20.72C47.6446 20.52 47.5513 20.2533 47.5513 19.92C47.5513 19.5733 47.6446 19.3133 47.8313 19.14C48.0313 18.9667 48.3046 18.88 48.6513 18.88H50.8913V9.06H52.1313L49.1913 10.84C48.9379 10.9867 48.6979 11.0467 48.4712 11.02C48.2579 10.98 48.0713 10.8867 47.9113 10.74C47.7646 10.58 47.6646 10.3933 47.6113 10.18C47.5579 9.96667 47.5713 9.75333 47.6513 9.54C47.7446 9.31333 47.9179 9.12667 48.1712 8.98L50.9313 7.32C51.1979 7.16 51.4646 7.02667 51.7313 6.92C51.9979 6.8 52.2446 6.74 52.4713 6.74C52.7513 6.74 52.9846 6.82 53.1713 6.98C53.3579 7.12667 53.4513 7.37333 53.4513 7.72V18.88H55.4913C55.8379 18.88 56.1046 18.9667 56.2913 19.14C56.4913 19.3133 56.5913 19.5733 56.5913 19.92C56.5913 20.2667 56.4913 20.5333 56.2913 20.72C56.1046 20.9067 55.8379 21 55.4913 21H48.6513Z" fill="#AA5EE0"/>
</svg>
