<svg width="254" height="91" viewBox="0 0 254 91" fill="none" xmlns="http://www.w3.org/2000/svg">
<rect x="0.25" y="7.25" width="241.5" height="71.5" rx="7.75" fill="white"/>
<rect x="0.25" y="7.25" width="241.5" height="71.5" rx="7.75" stroke="#1A1A1A" stroke-width="0.5"/>
<path d="M18.6079 36.144C17.4986 36.144 16.5493 35.9093 15.7599 35.44C14.9706 34.9707 14.3626 34.304 13.9359 33.44C13.5199 32.576 13.3119 31.5467 13.3119 30.352C13.3119 29.456 13.4293 28.656 13.6639 27.952C13.9093 27.2373 14.2559 26.6347 14.7039 26.144C15.1626 25.6427 15.7226 25.2587 16.3839 24.992C17.0453 24.7147 17.7866 24.576 18.6079 24.576C19.2693 24.576 19.8986 24.672 20.4959 24.864C21.0933 25.0453 21.6106 25.3173 22.0479 25.68C22.1866 25.7867 22.2773 25.9093 22.3199 26.048C22.3733 26.176 22.3786 26.304 22.3359 26.432C22.3039 26.5493 22.2399 26.6507 22.1439 26.736C22.0586 26.8107 21.9519 26.848 21.8239 26.848C21.6959 26.848 21.5519 26.7947 21.3919 26.688C21.0079 26.3787 20.5866 26.1493 20.1279 26C19.6693 25.8507 19.1733 25.776 18.6399 25.776C17.7973 25.776 17.0826 25.9573 16.4959 26.32C15.9093 26.672 15.4666 27.1893 15.1679 27.872C14.8693 28.5547 14.7199 29.3813 14.7199 30.352C14.7199 31.3227 14.8693 32.1547 15.1679 32.848C15.4666 33.5307 15.9093 34.0533 16.4959 34.416C17.0826 34.768 17.7973 34.944 18.6399 34.944C19.1626 34.944 19.6586 34.8693 20.1279 34.72C20.5973 34.56 21.0293 34.3253 21.4239 34.016C21.5839 33.9093 21.7279 33.8613 21.8559 33.872C21.9839 33.872 22.0906 33.9093 22.1759 33.984C22.2613 34.0587 22.3199 34.1547 22.3519 34.272C22.3946 34.3893 22.3946 34.512 22.3519 34.64C22.3199 34.768 22.2399 34.88 22.1119 34.976C21.6639 35.36 21.1359 35.6533 20.5279 35.856C19.9306 36.048 19.2906 36.144 18.6079 36.144ZM26.9871 36.144C26.2297 36.144 25.5737 35.9787 25.0191 35.648C24.4644 35.3173 24.0324 34.8533 23.7231 34.256C23.4244 33.648 23.2751 32.9333 23.2751 32.112C23.2751 31.4933 23.3604 30.9387 23.5311 30.448C23.7017 29.9467 23.9524 29.52 24.2831 29.168C24.6137 28.816 25.0031 28.5493 25.4511 28.368C25.9097 28.176 26.4217 28.08 26.9871 28.08C27.7444 28.08 28.4004 28.2453 28.9551 28.576C29.5097 28.9067 29.9364 29.376 30.2351 29.984C30.5444 30.5813 30.6991 31.2907 30.6991 32.112C30.6991 32.7307 30.6137 33.2853 30.4431 33.776C30.2724 34.2667 30.0217 34.6933 29.6911 35.056C29.3604 35.408 28.9657 35.68 28.5071 35.872C28.0591 36.0533 27.5524 36.144 26.9871 36.144ZM26.9871 35.104C27.4671 35.104 27.8884 34.9867 28.2511 34.752C28.6137 34.5173 28.8911 34.176 29.0831 33.728C29.2857 33.28 29.3871 32.7413 29.3871 32.112C29.3871 31.1413 29.1684 30.4 28.7311 29.888C28.3044 29.376 27.7231 29.12 26.9871 29.12C26.4964 29.12 26.0697 29.2373 25.7071 29.472C25.3551 29.696 25.0777 30.032 24.8751 30.48C24.6831 30.9173 24.5871 31.4613 24.5871 32.112C24.5871 33.072 24.8057 33.8133 25.2431 34.336C25.6804 34.848 26.2617 35.104 26.9871 35.104ZM33.3177 36.112C33.1044 36.112 32.9444 36.0533 32.8377 35.936C32.731 35.8187 32.6777 35.6533 32.6777 35.44V28.768C32.6777 28.5547 32.731 28.3947 32.8377 28.288C32.9444 28.1707 33.099 28.112 33.3017 28.112C33.5044 28.112 33.659 28.1707 33.7657 28.288C33.883 28.3947 33.9417 28.5547 33.9417 28.768V30.176L33.7657 29.952C33.9684 29.3547 34.2937 28.896 34.7417 28.576C35.2004 28.2453 35.7444 28.08 36.3737 28.08C37.035 28.08 37.5684 28.24 37.9737 28.56C38.3897 28.8693 38.667 29.3547 38.8057 30.016H38.5657C38.7577 29.4187 39.099 28.9493 39.5897 28.608C40.091 28.256 40.6724 28.08 41.3337 28.08C41.9204 28.08 42.4004 28.192 42.7737 28.416C43.1577 28.64 43.4457 28.9813 43.6377 29.44C43.8297 29.888 43.9257 30.4587 43.9257 31.152V35.44C43.9257 35.6533 43.867 35.8187 43.7497 35.936C43.643 36.0533 43.483 36.112 43.2697 36.112C43.067 36.112 42.907 36.0533 42.7897 35.936C42.683 35.8187 42.6297 35.6533 42.6297 35.44V31.216C42.6297 30.5013 42.507 29.9787 42.2617 29.648C42.0164 29.3067 41.6004 29.136 41.0137 29.136C40.3737 29.136 39.867 29.36 39.4937 29.808C39.131 30.2453 38.9497 30.8427 38.9497 31.6V35.44C38.9497 35.6533 38.891 35.8187 38.7737 35.936C38.667 36.0533 38.507 36.112 38.2937 36.112C38.091 36.112 37.931 36.0533 37.8137 35.936C37.707 35.8187 37.6537 35.6533 37.6537 35.44V31.216C37.6537 30.5013 37.5257 29.9787 37.2697 29.648C37.0244 29.3067 36.6137 29.136 36.0377 29.136C35.3977 29.136 34.891 29.36 34.5177 29.808C34.155 30.2453 33.9737 30.8427 33.9737 31.6V35.44C33.9737 35.888 33.755 36.112 33.3177 36.112ZM46.9888 38.992C46.7755 38.992 46.6155 38.9333 46.5088 38.816C46.4021 38.7093 46.3488 38.5493 46.3488 38.336V28.768C46.3488 28.5547 46.4021 28.3947 46.5088 28.288C46.6155 28.1707 46.7701 28.112 46.9728 28.112C47.1861 28.112 47.3461 28.1707 47.4528 28.288C47.5701 28.3947 47.6288 28.5547 47.6288 28.768V30.288L47.4528 30.064C47.6235 29.456 47.9595 28.976 48.4608 28.624C48.9728 28.2613 49.5808 28.08 50.2848 28.08C50.9781 28.08 51.5808 28.2453 52.0928 28.576C52.6155 28.896 53.0155 29.36 53.2928 29.968C53.5808 30.5653 53.7248 31.28 53.7248 32.112C53.7248 32.9333 53.5808 33.648 53.2928 34.256C53.0155 34.8533 52.6208 35.3173 52.1088 35.648C51.5968 35.9787 50.9888 36.144 50.2848 36.144C49.5808 36.144 48.9781 35.968 48.4768 35.616C47.9755 35.2533 47.6341 34.7733 47.4528 34.176H47.6448V38.336C47.6448 38.5493 47.5861 38.7093 47.4688 38.816C47.3515 38.9333 47.1915 38.992 46.9888 38.992ZM50.0128 35.104C50.5035 35.104 50.9248 34.9867 51.2768 34.752C51.6395 34.5173 51.9168 34.176 52.1088 33.728C52.3115 33.28 52.4128 32.7413 52.4128 32.112C52.4128 31.1413 52.1941 30.4 51.7568 29.888C51.3301 29.376 50.7488 29.12 50.0128 29.12C49.5328 29.12 49.1115 29.2373 48.7488 29.472C48.3861 29.696 48.1035 30.032 47.9008 30.48C47.7088 30.9173 47.6128 31.4613 47.6128 32.112C47.6128 33.072 47.8315 33.8133 48.2688 34.336C48.7061 34.848 49.2875 35.104 50.0128 35.104ZM58.1249 36.144C57.5916 36.144 57.1116 36.0427 56.6849 35.84C56.2689 35.6267 55.9383 35.3387 55.6929 34.976C55.4476 34.6133 55.3249 34.208 55.3249 33.76C55.3249 33.184 55.4689 32.7307 55.7569 32.4C56.0556 32.0693 56.5409 31.8347 57.2129 31.696C57.8956 31.5573 58.8236 31.488 59.9969 31.488H60.7169V32.336H60.0129C59.1489 32.336 58.4663 32.3787 57.9649 32.464C57.4743 32.5387 57.1276 32.672 56.9249 32.864C56.7329 33.056 56.6369 33.328 56.6369 33.68C56.6369 34.1173 56.7863 34.4747 57.0849 34.752C57.3943 35.0293 57.8103 35.168 58.3329 35.168C58.7596 35.168 59.1329 35.0667 59.4529 34.864C59.7836 34.6613 60.0396 34.384 60.2209 34.032C60.4129 33.68 60.5089 33.2747 60.5089 32.816V30.992C60.5089 30.3307 60.3756 29.856 60.1089 29.568C59.8423 29.2693 59.4049 29.12 58.7969 29.12C58.4236 29.12 58.0503 29.168 57.6769 29.264C57.3036 29.36 56.9089 29.5147 56.4929 29.728C56.3436 29.8027 56.2156 29.8293 56.1089 29.808C56.0023 29.776 55.9169 29.7173 55.8529 29.632C55.7889 29.5467 55.7516 29.4507 55.7409 29.344C55.7303 29.2267 55.7516 29.1147 55.8049 29.008C55.8689 28.9013 55.9649 28.816 56.0929 28.752C56.5623 28.5173 57.0263 28.3467 57.4849 28.24C57.9436 28.1333 58.3809 28.08 58.7969 28.08C59.4689 28.08 60.0236 28.192 60.4609 28.416C60.8983 28.6293 61.2236 28.96 61.4369 29.408C61.6503 29.8453 61.7569 30.4107 61.7569 31.104V35.44C61.7569 35.6533 61.7036 35.8187 61.5969 35.936C61.5009 36.0533 61.3569 36.112 61.1649 36.112C60.9623 36.112 60.8076 36.0533 60.7009 35.936C60.5943 35.8187 60.5409 35.6533 60.5409 35.44V34.192H60.6849C60.5996 34.5973 60.4343 34.944 60.1889 35.232C59.9543 35.52 59.6609 35.744 59.3089 35.904C58.9569 36.064 58.5623 36.144 58.1249 36.144ZM64.8173 36.112C64.604 36.112 64.4386 36.0533 64.3213 35.936C64.2146 35.8187 64.1613 35.6533 64.1613 35.44V28.768C64.1613 28.5547 64.2146 28.3947 64.3213 28.288C64.428 28.1707 64.5826 28.112 64.7853 28.112C64.988 28.112 65.1426 28.1707 65.2493 28.288C65.3666 28.3947 65.4253 28.5547 65.4253 28.768V30.064H65.2653C65.436 29.4347 65.7613 28.9493 66.2413 28.608C66.7213 28.2667 67.3133 28.0853 68.0173 28.064C68.1773 28.0533 68.3053 28.0907 68.4013 28.176C68.4973 28.2507 68.5506 28.384 68.5613 28.576C68.572 28.7573 68.5293 28.9013 68.4333 29.008C68.3373 29.1147 68.188 29.1787 67.9853 29.2L67.7293 29.232C67.004 29.296 66.444 29.5307 66.0493 29.936C65.6653 30.3307 65.4733 30.8747 65.4733 31.568V35.44C65.4733 35.6533 65.4146 35.8187 65.2973 35.936C65.1906 36.0533 65.0306 36.112 64.8173 36.112ZM73.3059 36.144C72.4846 36.144 71.7753 35.984 71.1779 35.664C70.5913 35.3333 70.1326 34.8693 69.8019 34.272C69.4819 33.6747 69.3219 32.96 69.3219 32.128C69.3219 31.3173 69.4819 30.6133 69.8019 30.016C70.1219 29.408 70.5593 28.9333 71.1139 28.592C71.6793 28.2507 72.3299 28.08 73.0659 28.08C73.5886 28.08 74.0579 28.1707 74.4739 28.352C74.8899 28.5227 75.2419 28.7733 75.5299 29.104C75.8286 29.4347 76.0526 29.8347 76.2019 30.304C76.3619 30.7733 76.4419 31.3013 76.4419 31.888C76.4419 32.0587 76.3939 32.1867 76.2979 32.272C76.2019 32.3467 76.0633 32.384 75.8819 32.384H70.3139V31.536H75.5779L75.3219 31.744C75.3219 31.168 75.2366 30.6827 75.0659 30.288C74.8953 29.8827 74.6446 29.5733 74.3139 29.36C73.9939 29.1467 73.5886 29.04 73.0979 29.04C72.5539 29.04 72.0899 29.168 71.7059 29.424C71.3326 29.6693 71.0499 30.016 70.8579 30.464C70.6659 30.9013 70.5699 31.4133 70.5699 32V32.096C70.5699 33.0773 70.8046 33.824 71.2739 34.336C71.7539 34.848 72.4313 35.104 73.3059 35.104C73.6686 35.104 74.0259 35.056 74.3779 34.96C74.7406 34.864 75.0926 34.704 75.4339 34.48C75.5833 34.384 75.7166 34.3413 75.8339 34.352C75.9619 34.352 76.0633 34.3893 76.1379 34.464C76.2126 34.528 76.2606 34.6133 76.2819 34.72C76.3139 34.816 76.3033 34.9227 76.2499 35.04C76.2073 35.1573 76.1166 35.2587 75.9779 35.344C75.6259 35.6 75.2099 35.7973 74.7299 35.936C74.2499 36.0747 73.7753 36.144 73.3059 36.144ZM85.5626 36.144C84.9546 36.144 84.4426 36.0373 84.0266 35.824C83.6212 35.6 83.3172 35.28 83.1146 34.864C82.9119 34.4373 82.8106 33.92 82.8106 33.312V29.232H81.7386C81.5572 29.232 81.4186 29.1893 81.3226 29.104C81.2266 29.008 81.1786 28.88 81.1786 28.72C81.1786 28.56 81.2266 28.4373 81.3226 28.352C81.4186 28.2667 81.5572 28.224 81.7386 28.224H82.8106V26.384C82.8106 26.1707 82.8692 26.0107 82.9866 25.904C83.1039 25.7867 83.2639 25.728 83.4666 25.728C83.6692 25.728 83.8239 25.7867 83.9306 25.904C84.0479 26.0107 84.1066 26.1707 84.1066 26.384V28.224H86.1226C86.3039 28.224 86.4426 28.2667 86.5386 28.352C86.6346 28.4373 86.6826 28.56 86.6826 28.72C86.6826 28.88 86.6346 29.008 86.5386 29.104C86.4426 29.1893 86.3039 29.232 86.1226 29.232H84.1066V33.184C84.1066 33.792 84.2346 34.256 84.4906 34.576C84.7466 34.8853 85.1626 35.04 85.7386 35.04C85.9412 35.04 86.1119 35.0187 86.2506 34.976C86.3999 34.9333 86.5226 34.912 86.6186 34.912C86.7146 34.9013 86.7946 34.9333 86.8586 35.008C86.9226 35.0827 86.9546 35.2107 86.9546 35.392C86.9546 35.52 86.9279 35.6373 86.8746 35.744C86.8319 35.8507 86.7519 35.9253 86.6346 35.968C86.5066 36.0107 86.3359 36.048 86.1226 36.08C85.9199 36.1227 85.7332 36.144 85.5626 36.144ZM88.7701 36.112C88.5567 36.112 88.3967 36.0533 88.2901 35.936C88.1834 35.8187 88.1301 35.6533 88.1301 35.44V25.264C88.1301 25.0507 88.1834 24.8907 88.2901 24.784C88.3967 24.6667 88.5567 24.608 88.7701 24.608C88.9727 24.608 89.1327 24.6667 89.2501 24.784C89.3674 24.8907 89.4261 25.0507 89.4261 25.264V29.952H89.2181C89.4421 29.3333 89.8047 28.8693 90.3061 28.56C90.8181 28.24 91.4047 28.08 92.0661 28.08C92.6847 28.08 93.1967 28.192 93.6021 28.416C94.0181 28.64 94.3274 28.9813 94.5301 29.44C94.7327 29.888 94.8341 30.4587 94.8341 31.152V35.44C94.8341 35.6533 94.7754 35.8187 94.6581 35.936C94.5514 36.0533 94.3967 36.112 94.1941 36.112C93.9807 36.112 93.8154 36.0533 93.6981 35.936C93.5914 35.8187 93.5381 35.6533 93.5381 35.44V31.232C93.5381 30.5067 93.3941 29.9787 93.1061 29.648C92.8287 29.3067 92.3807 29.136 91.7621 29.136C91.0474 29.136 90.4767 29.36 90.0501 29.808C89.6341 30.2453 89.4261 30.832 89.4261 31.568V35.44C89.4261 35.888 89.2074 36.112 88.7701 36.112ZM100.728 36.144C99.9065 36.144 99.1971 35.984 98.5998 35.664C98.0131 35.3333 97.5545 34.8693 97.2238 34.272C96.9038 33.6747 96.7438 32.96 96.7438 32.128C96.7438 31.3173 96.9038 30.6133 97.2238 30.016C97.5438 29.408 97.9811 28.9333 98.5358 28.592C99.1011 28.2507 99.7518 28.08 100.488 28.08C101.01 28.08 101.48 28.1707 101.896 28.352C102.312 28.5227 102.664 28.7733 102.952 29.104C103.25 29.4347 103.474 29.8347 103.624 30.304C103.784 30.7733 103.864 31.3013 103.864 31.888C103.864 32.0587 103.816 32.1867 103.72 32.272C103.624 32.3467 103.485 32.384 103.304 32.384H97.7358V31.536H103L102.744 31.744C102.744 31.168 102.658 30.6827 102.488 30.288C102.317 29.8827 102.066 29.5733 101.736 29.36C101.416 29.1467 101.01 29.04 100.52 29.04C99.9758 29.04 99.5118 29.168 99.1278 29.424C98.7545 29.6693 98.4718 30.016 98.2798 30.464C98.0878 30.9013 97.9918 31.4133 97.9918 32V32.096C97.9918 33.0773 98.2265 33.824 98.6958 34.336C99.1758 34.848 99.8531 35.104 100.728 35.104C101.09 35.104 101.448 35.056 101.8 34.96C102.162 34.864 102.514 34.704 102.856 34.48C103.005 34.384 103.138 34.3413 103.256 34.352C103.384 34.352 103.485 34.3893 103.56 34.464C103.634 34.528 103.682 34.6133 103.704 34.72C103.736 34.816 103.725 34.9227 103.672 35.04C103.629 35.1573 103.538 35.2587 103.4 35.344C103.048 35.6 102.632 35.7973 102.152 35.936C101.672 36.0747 101.197 36.144 100.728 36.144ZM113.16 36.144C112.382 36.144 111.71 35.9733 111.144 35.632C110.579 35.2907 110.142 34.816 109.832 34.208C109.534 33.5893 109.384 32.8747 109.384 32.064C109.384 31.4453 109.47 30.8907 109.64 30.4C109.811 29.9093 110.062 29.4933 110.392 29.152C110.723 28.8 111.118 28.5333 111.576 28.352C112.046 28.1707 112.574 28.08 113.16 28.08C113.544 28.08 113.944 28.1387 114.36 28.256C114.776 28.3733 115.155 28.576 115.496 28.864C115.603 28.9387 115.672 29.0293 115.704 29.136C115.736 29.2427 115.736 29.3493 115.704 29.456C115.672 29.552 115.619 29.6373 115.544 29.712C115.47 29.776 115.374 29.8133 115.256 29.824C115.15 29.8347 115.038 29.7973 114.92 29.712C114.643 29.4987 114.36 29.3493 114.072 29.264C113.784 29.1787 113.507 29.136 113.24 29.136C112.824 29.136 112.462 29.2053 112.152 29.344C111.843 29.472 111.582 29.6587 111.368 29.904C111.155 30.1493 110.99 30.4533 110.872 30.816C110.766 31.1787 110.712 31.6 110.712 32.08C110.712 33.008 110.931 33.744 111.368 34.288C111.806 34.8213 112.43 35.088 113.24 35.088C113.507 35.088 113.779 35.0453 114.056 34.96C114.344 34.8747 114.632 34.7253 114.92 34.512C115.038 34.4267 115.15 34.3893 115.256 34.4C115.363 34.4107 115.454 34.4533 115.528 34.528C115.603 34.592 115.651 34.6773 115.672 34.784C115.704 34.8907 115.704 34.9973 115.672 35.104C115.64 35.2 115.571 35.2853 115.464 35.36C115.123 35.6373 114.75 35.84 114.344 35.968C113.939 36.0853 113.544 36.144 113.16 36.144ZM120.346 36.144C119.589 36.144 118.933 35.9787 118.378 35.648C117.824 35.3173 117.392 34.8533 117.082 34.256C116.784 33.648 116.634 32.9333 116.634 32.112C116.634 31.4933 116.72 30.9387 116.89 30.448C117.061 29.9467 117.312 29.52 117.642 29.168C117.973 28.816 118.362 28.5493 118.81 28.368C119.269 28.176 119.781 28.08 120.346 28.08C121.104 28.08 121.76 28.2453 122.314 28.576C122.869 28.9067 123.296 29.376 123.594 29.984C123.904 30.5813 124.058 31.2907 124.058 32.112C124.058 32.7307 123.973 33.2853 123.802 33.776C123.632 34.2667 123.381 34.6933 123.05 35.056C122.72 35.408 122.325 35.68 121.866 35.872C121.418 36.0533 120.912 36.144 120.346 36.144ZM120.346 35.104C120.826 35.104 121.248 34.9867 121.61 34.752C121.973 34.5173 122.25 34.176 122.442 33.728C122.645 33.28 122.746 32.7413 122.746 32.112C122.746 31.1413 122.528 30.4 122.09 29.888C121.664 29.376 121.082 29.12 120.346 29.12C119.856 29.12 119.429 29.2373 119.066 29.472C118.714 29.696 118.437 30.032 118.234 30.48C118.042 30.9173 117.946 31.4613 117.946 32.112C117.946 33.072 118.165 33.8133 118.602 34.336C119.04 34.848 119.621 35.104 120.346 35.104ZM129.237 36.144C128.48 36.144 127.824 35.9787 127.269 35.648C126.714 35.3173 126.282 34.8533 125.973 34.256C125.674 33.648 125.525 32.9333 125.525 32.112C125.525 31.4933 125.61 30.9387 125.781 30.448C125.952 29.9467 126.202 29.52 126.533 29.168C126.864 28.816 127.253 28.5493 127.701 28.368C128.16 28.176 128.672 28.08 129.237 28.08C129.994 28.08 130.65 28.2453 131.205 28.576C131.76 28.9067 132.186 29.376 132.485 29.984C132.794 30.5813 132.949 31.2907 132.949 32.112C132.949 32.7307 132.864 33.2853 132.693 33.776C132.522 34.2667 132.272 34.6933 131.941 35.056C131.61 35.408 131.216 35.68 130.757 35.872C130.309 36.0533 129.802 36.144 129.237 36.144ZM129.237 35.104C129.717 35.104 130.138 34.9867 130.501 34.752C130.864 34.5173 131.141 34.176 131.333 33.728C131.536 33.28 131.637 32.7413 131.637 32.112C131.637 31.1413 131.418 30.4 130.981 29.888C130.554 29.376 129.973 29.12 129.237 29.12C128.746 29.12 128.32 29.2373 127.957 29.472C127.605 29.696 127.328 30.032 127.125 30.48C126.933 30.9173 126.837 31.4613 126.837 32.112C126.837 33.072 127.056 33.8133 127.493 34.336C127.93 34.848 128.512 35.104 129.237 35.104ZM135.552 36.112C135.338 36.112 135.173 36.0533 135.056 35.936C134.949 35.8187 134.896 35.6533 134.896 35.44V28.768C134.896 28.5547 134.949 28.3947 135.056 28.288C135.162 28.1707 135.317 28.112 135.52 28.112C135.722 28.112 135.877 28.1707 135.984 28.288C136.101 28.3947 136.16 28.5547 136.16 28.768V30.064H136C136.17 29.4347 136.496 28.9493 136.976 28.608C137.456 28.2667 138.048 28.0853 138.752 28.064C138.912 28.0533 139.04 28.0907 139.136 28.176C139.232 28.2507 139.285 28.384 139.296 28.576C139.306 28.7573 139.264 28.9013 139.168 29.008C139.072 29.1147 138.922 29.1787 138.72 29.2L138.464 29.232C137.738 29.296 137.178 29.5307 136.784 29.936C136.4 30.3307 136.208 30.8747 136.208 31.568V35.44C136.208 35.6533 136.149 35.8187 136.032 35.936C135.925 36.0533 135.765 36.112 135.552 36.112ZM143.496 36.144C142.803 36.144 142.195 35.9787 141.672 35.648C141.16 35.3173 140.76 34.8533 140.472 34.256C140.195 33.648 140.056 32.9333 140.056 32.112C140.056 31.28 140.195 30.5653 140.472 29.968C140.76 29.36 141.16 28.896 141.672 28.576C142.195 28.2453 142.803 28.08 143.496 28.08C144.2 28.08 144.803 28.256 145.304 28.608C145.806 28.96 146.142 29.4347 146.312 30.032H146.136V25.264C146.136 25.0507 146.19 24.8907 146.296 24.784C146.414 24.6667 146.579 24.608 146.792 24.608C146.995 24.608 147.15 24.6667 147.256 24.784C147.374 24.8907 147.432 25.0507 147.432 25.264V35.44C147.432 35.6533 147.379 35.8187 147.272 35.936C147.166 36.0533 147.006 36.112 146.792 36.112C146.59 36.112 146.43 36.0533 146.312 35.936C146.206 35.8187 146.152 35.6533 146.152 35.44V33.92L146.328 34.144C146.158 34.752 145.816 35.2373 145.304 35.6C144.803 35.9627 144.2 36.144 143.496 36.144ZM143.768 35.104C144.248 35.104 144.67 34.9867 145.032 34.752C145.395 34.5173 145.672 34.176 145.864 33.728C146.067 33.28 146.168 32.7413 146.168 32.112C146.168 31.1413 145.95 30.4 145.512 29.888C145.086 29.376 144.504 29.12 143.768 29.12C143.278 29.12 142.851 29.2373 142.488 29.472C142.136 29.696 141.859 30.032 141.656 30.48C141.464 30.9173 141.368 31.4613 141.368 32.112C141.368 33.072 141.587 33.8133 142.024 34.336C142.462 34.848 143.043 35.104 143.768 35.104ZM150.504 36.08C150.291 36.08 150.131 36.0213 150.024 35.904C149.918 35.776 149.864 35.6 149.864 35.376V28.832C149.864 28.608 149.918 28.4373 150.024 28.32C150.131 28.2027 150.291 28.144 150.504 28.144C150.707 28.144 150.867 28.2027 150.984 28.32C151.102 28.4373 151.16 28.608 151.16 28.832V35.376C151.16 35.6 151.102 35.776 150.984 35.904C150.878 36.0213 150.718 36.08 150.504 36.08ZM150.504 26.352C150.238 26.352 150.03 26.2827 149.88 26.144C149.731 25.9947 149.656 25.7973 149.656 25.552C149.656 25.296 149.731 25.104 149.88 24.976C150.03 24.8373 150.238 24.768 150.504 24.768C150.782 24.768 150.99 24.8373 151.128 24.976C151.278 25.104 151.352 25.296 151.352 25.552C151.352 25.7973 151.278 25.9947 151.128 26.144C150.99 26.2827 150.782 26.352 150.504 26.352ZM154.223 36.112C154.01 36.112 153.85 36.0533 153.743 35.936C153.637 35.8187 153.583 35.6533 153.583 35.44V28.768C153.583 28.5547 153.637 28.3947 153.743 28.288C153.85 28.1707 154.005 28.112 154.207 28.112C154.41 28.112 154.565 28.1707 154.671 28.288C154.789 28.3947 154.847 28.5547 154.847 28.768V30.144L154.671 29.952C154.895 29.3333 155.258 28.8693 155.759 28.56C156.271 28.24 156.858 28.08 157.519 28.08C158.138 28.08 158.65 28.192 159.055 28.416C159.471 28.64 159.781 28.9813 159.983 29.44C160.186 29.888 160.287 30.4587 160.287 31.152V35.44C160.287 35.6533 160.229 35.8187 160.111 35.936C160.005 36.0533 159.85 36.112 159.647 36.112C159.434 36.112 159.269 36.0533 159.151 35.936C159.045 35.8187 158.991 35.6533 158.991 35.44V31.232C158.991 30.5067 158.847 29.9787 158.559 29.648C158.282 29.3067 157.834 29.136 157.215 29.136C156.501 29.136 155.93 29.36 155.503 29.808C155.087 30.2453 154.879 30.832 154.879 31.568V35.44C154.879 35.888 154.661 36.112 154.223 36.112ZM165.125 36.144C164.592 36.144 164.112 36.0427 163.685 35.84C163.269 35.6267 162.938 35.3387 162.693 34.976C162.448 34.6133 162.325 34.208 162.325 33.76C162.325 33.184 162.469 32.7307 162.757 32.4C163.056 32.0693 163.541 31.8347 164.213 31.696C164.896 31.5573 165.824 31.488 166.997 31.488H167.717V32.336H167.013C166.149 32.336 165.466 32.3787 164.965 32.464C164.474 32.5387 164.128 32.672 163.925 32.864C163.733 33.056 163.637 33.328 163.637 33.68C163.637 34.1173 163.786 34.4747 164.085 34.752C164.394 35.0293 164.81 35.168 165.333 35.168C165.76 35.168 166.133 35.0667 166.453 34.864C166.784 34.6613 167.04 34.384 167.221 34.032C167.413 33.68 167.509 33.2747 167.509 32.816V30.992C167.509 30.3307 167.376 29.856 167.109 29.568C166.842 29.2693 166.405 29.12 165.797 29.12C165.424 29.12 165.05 29.168 164.677 29.264C164.304 29.36 163.909 29.5147 163.493 29.728C163.344 29.8027 163.216 29.8293 163.109 29.808C163.002 29.776 162.917 29.7173 162.853 29.632C162.789 29.5467 162.752 29.4507 162.741 29.344C162.73 29.2267 162.752 29.1147 162.805 29.008C162.869 28.9013 162.965 28.816 163.093 28.752C163.562 28.5173 164.026 28.3467 164.485 28.24C164.944 28.1333 165.381 28.08 165.797 28.08C166.469 28.08 167.024 28.192 167.461 28.416C167.898 28.6293 168.224 28.96 168.437 29.408C168.65 29.8453 168.757 30.4107 168.757 31.104V35.44C168.757 35.6533 168.704 35.8187 168.597 35.936C168.501 36.0533 168.357 36.112 168.165 36.112C167.962 36.112 167.808 36.0533 167.701 35.936C167.594 35.8187 167.541 35.6533 167.541 35.44V34.192H167.685C167.6 34.5973 167.434 34.944 167.189 35.232C166.954 35.52 166.661 35.744 166.309 35.904C165.957 36.064 165.562 36.144 165.125 36.144ZM174.281 36.144C173.673 36.144 173.161 36.0373 172.745 35.824C172.34 35.6 172.036 35.28 171.833 34.864C171.631 34.4373 171.529 33.92 171.529 33.312V29.232H170.457C170.276 29.232 170.137 29.1893 170.041 29.104C169.945 29.008 169.897 28.88 169.897 28.72C169.897 28.56 169.945 28.4373 170.041 28.352C170.137 28.2667 170.276 28.224 170.457 28.224H171.529V26.384C171.529 26.1707 171.588 26.0107 171.705 25.904C171.823 25.7867 171.983 25.728 172.185 25.728C172.388 25.728 172.543 25.7867 172.649 25.904C172.767 26.0107 172.825 26.1707 172.825 26.384V28.224H174.841C175.023 28.224 175.161 28.2667 175.257 28.352C175.353 28.4373 175.401 28.56 175.401 28.72C175.401 28.88 175.353 29.008 175.257 29.104C175.161 29.1893 175.023 29.232 174.841 29.232H172.825V33.184C172.825 33.792 172.953 34.256 173.209 34.576C173.465 34.8853 173.881 35.04 174.457 35.04C174.66 35.04 174.831 35.0187 174.969 34.976C175.119 34.9333 175.241 34.912 175.337 34.912C175.433 34.9013 175.513 34.9333 175.577 35.008C175.641 35.0827 175.673 35.2107 175.673 35.392C175.673 35.52 175.647 35.6373 175.593 35.744C175.551 35.8507 175.471 35.9253 175.353 35.968C175.225 36.0107 175.055 36.048 174.841 36.08C174.639 36.1227 174.452 36.144 174.281 36.144ZM180.181 36.144C179.36 36.144 178.65 35.984 178.053 35.664C177.466 35.3333 177.008 34.8693 176.677 34.272C176.357 33.6747 176.197 32.96 176.197 32.128C176.197 31.3173 176.357 30.6133 176.677 30.016C176.997 29.408 177.434 28.9333 177.989 28.592C178.554 28.2507 179.205 28.08 179.941 28.08C180.464 28.08 180.933 28.1707 181.349 28.352C181.765 28.5227 182.117 28.7733 182.405 29.104C182.704 29.4347 182.928 29.8347 183.077 30.304C183.237 30.7733 183.317 31.3013 183.317 31.888C183.317 32.0587 183.269 32.1867 183.173 32.272C183.077 32.3467 182.938 32.384 182.757 32.384H177.189V31.536H182.453L182.197 31.744C182.197 31.168 182.112 30.6827 181.941 30.288C181.77 29.8827 181.52 29.5733 181.189 29.36C180.869 29.1467 180.464 29.04 179.973 29.04C179.429 29.04 178.965 29.168 178.581 29.424C178.208 29.6693 177.925 30.016 177.733 30.464C177.541 30.9013 177.445 31.4133 177.445 32V32.096C177.445 33.0773 177.68 33.824 178.149 34.336C178.629 34.848 179.306 35.104 180.181 35.104C180.544 35.104 180.901 35.056 181.253 34.96C181.616 34.864 181.968 34.704 182.309 34.48C182.458 34.384 182.592 34.3413 182.709 34.352C182.837 34.352 182.938 34.3893 183.013 34.464C183.088 34.528 183.136 34.6133 183.157 34.72C183.189 34.816 183.178 34.9227 183.125 35.04C183.082 35.1573 182.992 35.2587 182.853 35.344C182.501 35.6 182.085 35.7973 181.605 35.936C181.125 36.0747 180.65 36.144 180.181 36.144ZM192.55 36.144C191.792 36.144 191.136 35.9787 190.582 35.648C190.027 35.3173 189.595 34.8533 189.286 34.256C188.987 33.648 188.838 32.9333 188.838 32.112C188.838 31.4933 188.923 30.9387 189.094 30.448C189.264 29.9467 189.515 29.52 189.846 29.168C190.176 28.816 190.566 28.5493 191.014 28.368C191.472 28.176 191.984 28.08 192.55 28.08C193.307 28.08 193.963 28.2453 194.518 28.576C195.072 28.9067 195.499 29.376 195.798 29.984C196.107 30.5813 196.262 31.2907 196.262 32.112C196.262 32.7307 196.176 33.2853 196.006 33.776C195.835 34.2667 195.584 34.6933 195.254 35.056C194.923 35.408 194.528 35.68 194.07 35.872C193.622 36.0533 193.115 36.144 192.55 36.144ZM192.55 35.104C193.03 35.104 193.451 34.9867 193.814 34.752C194.176 34.5173 194.454 34.176 194.646 33.728C194.848 33.28 194.95 32.7413 194.95 32.112C194.95 31.1413 194.731 30.4 194.294 29.888C193.867 29.376 193.286 29.12 192.55 29.12C192.059 29.12 191.632 29.2373 191.27 29.472C190.918 29.696 190.64 30.032 190.438 30.48C190.246 30.9173 190.15 31.4613 190.15 32.112C190.15 33.072 190.368 33.8133 190.806 34.336C191.243 34.848 191.824 35.104 192.55 35.104ZM199.186 36.112C198.983 36.112 198.823 36.0533 198.706 35.936C198.599 35.8187 198.546 35.6533 198.546 35.44V29.232H197.522C197.351 29.232 197.213 29.1893 197.106 29.104C197.01 29.008 196.962 28.88 196.962 28.72C196.962 28.56 197.01 28.4373 197.106 28.352C197.213 28.2667 197.351 28.224 197.522 28.224H198.898L198.546 28.56V27.952C198.546 26.9387 198.791 26.1653 199.282 25.632C199.783 25.0987 200.514 24.7893 201.474 24.704L201.938 24.656C202.087 24.6453 202.205 24.672 202.29 24.736C202.386 24.8 202.445 24.88 202.466 24.976C202.498 25.072 202.503 25.1733 202.482 25.28C202.461 25.376 202.413 25.4613 202.338 25.536C202.263 25.6107 202.173 25.6533 202.066 25.664L201.698 25.696C201.047 25.7493 200.573 25.9467 200.274 26.288C199.986 26.6293 199.842 27.1307 199.842 27.792V28.464L199.65 28.224H201.57C201.751 28.224 201.89 28.2667 201.986 28.352C202.082 28.4373 202.13 28.56 202.13 28.72C202.13 28.88 202.082 29.008 201.986 29.104C201.89 29.1893 201.751 29.232 201.57 29.232H199.842V35.44C199.842 35.888 199.623 36.112 199.186 36.112ZM210.703 36.144C210.095 36.144 209.583 36.0373 209.167 35.824C208.762 35.6 208.458 35.28 208.255 34.864C208.053 34.4373 207.951 33.92 207.951 33.312V29.232H206.879C206.698 29.232 206.559 29.1893 206.463 29.104C206.367 29.008 206.319 28.88 206.319 28.72C206.319 28.56 206.367 28.4373 206.463 28.352C206.559 28.2667 206.698 28.224 206.879 28.224H207.951V26.384C207.951 26.1707 208.01 26.0107 208.127 25.904C208.245 25.7867 208.405 25.728 208.607 25.728C208.81 25.728 208.965 25.7867 209.071 25.904C209.189 26.0107 209.247 26.1707 209.247 26.384V28.224H211.263C211.445 28.224 211.583 28.2667 211.679 28.352C211.775 28.4373 211.823 28.56 211.823 28.72C211.823 28.88 211.775 29.008 211.679 29.104C211.583 29.1893 211.445 29.232 211.263 29.232H209.247V33.184C209.247 33.792 209.375 34.256 209.631 34.576C209.887 34.8853 210.303 35.04 210.879 35.04C211.082 35.04 211.253 35.0187 211.391 34.976C211.541 34.9333 211.663 34.912 211.759 34.912C211.855 34.9013 211.935 34.9333 211.999 35.008C212.063 35.0827 212.095 35.2107 212.095 35.392C212.095 35.52 212.069 35.6373 212.015 35.744C211.973 35.8507 211.893 35.9253 211.775 35.968C211.647 36.0107 211.477 36.048 211.263 36.08C211.061 36.1227 210.874 36.144 210.703 36.144ZM213.911 36.112C213.697 36.112 213.537 36.0533 213.431 35.936C213.324 35.8187 213.271 35.6533 213.271 35.44V25.264C213.271 25.0507 213.324 24.8907 213.431 24.784C213.537 24.6667 213.697 24.608 213.911 24.608C214.113 24.608 214.273 24.6667 214.391 24.784C214.508 24.8907 214.567 25.0507 214.567 25.264V29.952H214.359C214.583 29.3333 214.945 28.8693 215.447 28.56C215.959 28.24 216.545 28.08 217.207 28.08C217.825 28.08 218.337 28.192 218.743 28.416C219.159 28.64 219.468 28.9813 219.671 29.44C219.873 29.888 219.975 30.4587 219.975 31.152V35.44C219.975 35.6533 219.916 35.8187 219.799 35.936C219.692 36.0533 219.537 36.112 219.335 36.112C219.121 36.112 218.956 36.0533 218.839 35.936C218.732 35.8187 218.679 35.6533 218.679 35.44V31.232C218.679 30.5067 218.535 29.9787 218.247 29.648C217.969 29.3067 217.521 29.136 216.903 29.136C216.188 29.136 215.617 29.36 215.191 29.808C214.775 30.2453 214.567 30.832 214.567 31.568V35.44C214.567 35.888 214.348 36.112 213.911 36.112ZM225.868 36.144C225.047 36.144 224.338 35.984 223.74 35.664C223.154 35.3333 222.695 34.8693 222.364 34.272C222.044 33.6747 221.884 32.96 221.884 32.128C221.884 31.3173 222.044 30.6133 222.364 30.016C222.684 29.408 223.122 28.9333 223.676 28.592C224.242 28.2507 224.892 28.08 225.628 28.08C226.151 28.08 226.62 28.1707 227.036 28.352C227.452 28.5227 227.804 28.7733 228.092 29.104C228.391 29.4347 228.615 29.8347 228.764 30.304C228.924 30.7733 229.004 31.3013 229.004 31.888C229.004 32.0587 228.956 32.1867 228.86 32.272C228.764 32.3467 228.626 32.384 228.444 32.384H222.876V31.536H228.14L227.884 31.744C227.884 31.168 227.799 30.6827 227.628 30.288C227.458 29.8827 227.207 29.5733 226.876 29.36C226.556 29.1467 226.151 29.04 225.66 29.04C225.116 29.04 224.652 29.168 224.268 29.424C223.895 29.6693 223.612 30.016 223.42 30.464C223.228 30.9013 223.132 31.4133 223.132 32V32.096C223.132 33.0773 223.367 33.824 223.836 34.336C224.316 34.848 224.994 35.104 225.868 35.104C226.231 35.104 226.588 35.056 226.94 34.96C227.303 34.864 227.655 34.704 227.996 34.48C228.146 34.384 228.279 34.3413 228.396 34.352C228.524 34.352 228.626 34.3893 228.7 34.464C228.775 34.528 228.823 34.6133 228.844 34.72C228.876 34.816 228.866 34.9227 228.812 35.04C228.77 35.1573 228.679 35.2587 228.54 35.344C228.188 35.6 227.772 35.7973 227.292 35.936C226.812 36.0747 226.338 36.144 225.868 36.144ZM42.5511 60.144C41.7724 60.144 41.1004 59.9733 40.5351 59.632C39.9697 59.2907 39.5324 58.816 39.2231 58.208C38.9244 57.5893 38.7751 56.8747 38.7751 56.064C38.7751 55.4453 38.8604 54.8907 39.0311 54.4C39.2017 53.9093 39.4524 53.4933 39.7831 53.152C40.1137 52.8 40.5084 52.5333 40.9671 52.352C41.4364 52.1707 41.9644 52.08 42.5511 52.08C42.9351 52.08 43.3351 52.1387 43.7511 52.256C44.1671 52.3733 44.5457 52.576 44.8871 52.864C44.9937 52.9387 45.0631 53.0293 45.0951 53.136C45.1271 53.2427 45.1271 53.3493 45.0951 53.456C45.0631 53.552 45.0097 53.6373 44.9351 53.712C44.8604 53.776 44.7644 53.8133 44.6471 53.824C44.5404 53.8347 44.4284 53.7973 44.3111 53.712C44.0337 53.4987 43.7511 53.3493 43.4631 53.264C43.1751 53.1787 42.8977 53.136 42.6311 53.136C42.2151 53.136 41.8524 53.2053 41.5431 53.344C41.2337 53.472 40.9724 53.6587 40.7591 53.904C40.5457 54.1493 40.3804 54.4533 40.2631 54.816C40.1564 55.1787 40.1031 55.6 40.1031 56.08C40.1031 57.008 40.3217 57.744 40.7591 58.288C41.1964 58.8213 41.8204 59.088 42.6311 59.088C42.8977 59.088 43.1697 59.0453 43.4471 58.96C43.7351 58.8747 44.0231 58.7253 44.3111 58.512C44.4284 58.4267 44.5404 58.3893 44.6471 58.4C44.7537 58.4107 44.8444 58.4533 44.9191 58.528C44.9937 58.592 45.0417 58.6773 45.0631 58.784C45.0951 58.8907 45.0951 58.9973 45.0631 59.104C45.0311 59.2 44.9617 59.2853 44.8551 59.36C44.5137 59.6373 44.1404 59.84 43.7351 59.968C43.3297 60.0853 42.9351 60.144 42.5511 60.144ZM49.7371 60.144C48.9797 60.144 48.3237 59.9787 47.7691 59.648C47.2144 59.3173 46.7824 58.8533 46.4731 58.256C46.1744 57.648 46.0251 56.9333 46.0251 56.112C46.0251 55.4933 46.1104 54.9387 46.2811 54.448C46.4517 53.9467 46.7024 53.52 47.0331 53.168C47.3637 52.816 47.7531 52.5493 48.2011 52.368C48.6597 52.176 49.1717 52.08 49.7371 52.08C50.4944 52.08 51.1504 52.2453 51.7051 52.576C52.2597 52.9067 52.6864 53.376 52.9851 53.984C53.2944 54.5813 53.4491 55.2907 53.4491 56.112C53.4491 56.7307 53.3637 57.2853 53.1931 57.776C53.0224 58.2667 52.7717 58.6933 52.4411 59.056C52.1104 59.408 51.7157 59.68 51.2571 59.872C50.8091 60.0533 50.3024 60.144 49.7371 60.144ZM49.7371 59.104C50.2171 59.104 50.6384 58.9867 51.0011 58.752C51.3637 58.5173 51.6411 58.176 51.8331 57.728C52.0357 57.28 52.1371 56.7413 52.1371 56.112C52.1371 55.1413 51.9184 54.4 51.4811 53.888C51.0544 53.376 50.4731 53.12 49.7371 53.12C49.2464 53.12 48.8197 53.2373 48.4571 53.472C48.1051 53.696 47.8277 54.032 47.6251 54.48C47.4331 54.9173 47.3371 55.4613 47.3371 56.112C47.3371 57.072 47.5557 57.8133 47.9931 58.336C48.4304 58.848 49.0117 59.104 49.7371 59.104ZM56.0517 60.112C55.8384 60.112 55.673 60.0533 55.5557 59.936C55.449 59.8187 55.3957 59.6533 55.3957 59.44V52.768C55.3957 52.5547 55.449 52.3947 55.5557 52.288C55.6624 52.1707 55.817 52.112 56.0197 52.112C56.2224 52.112 56.377 52.1707 56.4837 52.288C56.601 52.3947 56.6597 52.5547 56.6597 52.768V54.064H56.4997C56.6704 53.4347 56.9957 52.9493 57.4757 52.608C57.9557 52.2667 58.5477 52.0853 59.2517 52.064C59.4117 52.0533 59.5397 52.0907 59.6357 52.176C59.7317 52.2507 59.785 52.384 59.7957 52.576C59.8064 52.7573 59.7637 52.9013 59.6677 53.008C59.5717 53.1147 59.4224 53.1787 59.2197 53.2L58.9637 53.232C58.2384 53.296 57.6784 53.5307 57.2837 53.936C56.8997 54.3307 56.7077 54.8747 56.7077 55.568V59.44C56.7077 59.6533 56.649 59.8187 56.5317 59.936C56.425 60.0533 56.265 60.112 56.0517 60.112ZM61.7861 60.112C61.5727 60.112 61.4074 60.0533 61.2901 59.936C61.1834 59.8187 61.1301 59.6533 61.1301 59.44V52.768C61.1301 52.5547 61.1834 52.3947 61.2901 52.288C61.3967 52.1707 61.5514 52.112 61.7541 52.112C61.9567 52.112 62.1114 52.1707 62.2181 52.288C62.3354 52.3947 62.3941 52.5547 62.3941 52.768V54.064H62.2341C62.4047 53.4347 62.7301 52.9493 63.2101 52.608C63.6901 52.2667 64.2821 52.0853 64.9861 52.064C65.1461 52.0533 65.2741 52.0907 65.3701 52.176C65.4661 52.2507 65.5194 52.384 65.5301 52.576C65.5407 52.7573 65.4981 52.9013 65.4021 53.008C65.3061 53.1147 65.1567 53.1787 64.9541 53.2L64.6981 53.232C63.9727 53.296 63.4127 53.5307 63.0181 53.936C62.6341 54.3307 62.4421 54.8747 62.4421 55.568V59.44C62.4421 59.6533 62.3834 59.8187 62.2661 59.936C62.1594 60.0533 61.9994 60.112 61.7861 60.112ZM70.2747 60.144C69.4534 60.144 68.744 59.984 68.1467 59.664C67.56 59.3333 67.1014 58.8693 66.7707 58.272C66.4507 57.6747 66.2907 56.96 66.2907 56.128C66.2907 55.3173 66.4507 54.6133 66.7707 54.016C67.0907 53.408 67.528 52.9333 68.0827 52.592C68.648 52.2507 69.2987 52.08 70.0347 52.08C70.5574 52.08 71.0267 52.1707 71.4427 52.352C71.8587 52.5227 72.2107 52.7733 72.4987 53.104C72.7974 53.4347 73.0214 53.8347 73.1707 54.304C73.3307 54.7733 73.4107 55.3013 73.4107 55.888C73.4107 56.0587 73.3627 56.1867 73.2667 56.272C73.1707 56.3467 73.032 56.384 72.8507 56.384H67.2827V55.536H72.5467L72.2907 55.744C72.2907 55.168 72.2054 54.6827 72.0347 54.288C71.864 53.8827 71.6134 53.5733 71.2827 53.36C70.9627 53.1467 70.5574 53.04 70.0667 53.04C69.5227 53.04 69.0587 53.168 68.6747 53.424C68.3014 53.6693 68.0187 54.016 67.8267 54.464C67.6347 54.9013 67.5387 55.4133 67.5387 56V56.096C67.5387 57.0773 67.7734 57.824 68.2427 58.336C68.7227 58.848 69.4 59.104 70.2747 59.104C70.6374 59.104 70.9947 59.056 71.3467 58.96C71.7094 58.864 72.0614 58.704 72.4027 58.48C72.552 58.384 72.6854 58.3413 72.8027 58.352C72.9307 58.352 73.032 58.3893 73.1067 58.464C73.1814 58.528 73.2294 58.6133 73.2507 58.72C73.2827 58.816 73.272 58.9227 73.2187 59.04C73.176 59.1573 73.0854 59.2587 72.9467 59.344C72.5947 59.6 72.1787 59.7973 71.6987 59.936C71.2187 60.0747 70.744 60.144 70.2747 60.144ZM77.9103 60.144C77.4303 60.144 76.945 60.0853 76.4543 59.968C75.9743 59.8507 75.5263 59.648 75.1103 59.36C75.0036 59.2853 74.929 59.2 74.8863 59.104C74.8436 58.9973 74.8276 58.896 74.8383 58.8C74.8596 58.6933 74.9023 58.6027 74.9663 58.528C75.041 58.4533 75.1263 58.4107 75.2223 58.4C75.329 58.3787 75.4463 58.4 75.5743 58.464C75.9903 58.72 76.3903 58.9013 76.7743 59.008C77.169 59.104 77.5583 59.152 77.9423 59.152C78.5503 59.152 79.009 59.04 79.3183 58.816C79.6276 58.592 79.7823 58.288 79.7823 57.904C79.7823 57.6053 79.681 57.3707 79.4783 57.2C79.2756 57.0187 78.9556 56.88 78.5183 56.784L77.0623 56.464C76.3903 56.3253 75.889 56.0853 75.5583 55.744C75.2383 55.4027 75.0783 54.96 75.0783 54.416C75.0783 53.936 75.201 53.5253 75.4463 53.184C75.7023 52.832 76.0596 52.56 76.5183 52.368C76.977 52.176 77.5103 52.08 78.1183 52.08C78.5876 52.08 79.0303 52.144 79.4463 52.272C79.873 52.3893 80.257 52.5813 80.5983 52.848C80.705 52.9227 80.7743 53.0133 80.8063 53.12C80.849 53.216 80.8543 53.3173 80.8223 53.424C80.801 53.52 80.753 53.6053 80.6783 53.68C80.6036 53.744 80.513 53.7813 80.4063 53.792C80.2996 53.8027 80.1876 53.7707 80.0703 53.696C79.7503 53.4827 79.425 53.328 79.0943 53.232C78.7636 53.1253 78.4383 53.072 78.1183 53.072C77.521 53.072 77.0676 53.1893 76.7583 53.424C76.449 53.6587 76.2943 53.968 76.2943 54.352C76.2943 54.6507 76.3903 54.896 76.5823 55.088C76.7743 55.28 77.073 55.4187 77.4783 55.504L78.9343 55.808C79.6276 55.9573 80.145 56.1973 80.4863 56.528C80.8383 56.848 81.0143 57.2853 81.0143 57.84C81.0143 58.544 80.7316 59.104 80.1663 59.52C79.601 59.936 78.849 60.144 77.9103 60.144ZM83.6294 62.992C83.4161 62.992 83.2561 62.9333 83.1494 62.816C83.0428 62.7093 82.9894 62.5493 82.9894 62.336V52.768C82.9894 52.5547 83.0428 52.3947 83.1494 52.288C83.2561 52.1707 83.4108 52.112 83.6134 52.112C83.8268 52.112 83.9868 52.1707 84.0934 52.288C84.2108 52.3947 84.2694 52.5547 84.2694 52.768V54.288L84.0934 54.064C84.2641 53.456 84.6001 52.976 85.1014 52.624C85.6134 52.2613 86.2214 52.08 86.9254 52.08C87.6188 52.08 88.2214 52.2453 88.7334 52.576C89.2561 52.896 89.6561 53.36 89.9334 53.968C90.2214 54.5653 90.3654 55.28 90.3654 56.112C90.3654 56.9333 90.2214 57.648 89.9334 58.256C89.6561 58.8533 89.2614 59.3173 88.7494 59.648C88.2374 59.9787 87.6294 60.144 86.9254 60.144C86.2214 60.144 85.6188 59.968 85.1174 59.616C84.6161 59.2533 84.2748 58.7733 84.0934 58.176H84.2854V62.336C84.2854 62.5493 84.2268 62.7093 84.1094 62.816C83.9921 62.9333 83.8321 62.992 83.6294 62.992ZM86.6534 59.104C87.1441 59.104 87.5654 58.9867 87.9174 58.752C88.2801 58.5173 88.5574 58.176 88.7494 57.728C88.9521 57.28 89.0534 56.7413 89.0534 56.112C89.0534 55.1413 88.8348 54.4 88.3974 53.888C87.9708 53.376 87.3894 53.12 86.6534 53.12C86.1734 53.12 85.7521 53.2373 85.3894 53.472C85.0268 53.696 84.7441 54.032 84.5414 54.48C84.3494 54.9173 84.2534 55.4613 84.2534 56.112C84.2534 57.072 84.4721 57.8133 84.9094 58.336C85.3468 58.848 85.9281 59.104 86.6534 59.104ZM95.5496 60.144C94.7922 60.144 94.1362 59.9787 93.5816 59.648C93.0269 59.3173 92.5949 58.8533 92.2856 58.256C91.9869 57.648 91.8376 56.9333 91.8376 56.112C91.8376 55.4933 91.9229 54.9387 92.0936 54.448C92.2642 53.9467 92.5149 53.52 92.8456 53.168C93.1762 52.816 93.5656 52.5493 94.0136 52.368C94.4722 52.176 94.9842 52.08 95.5496 52.08C96.3069 52.08 96.9629 52.2453 97.5176 52.576C98.0722 52.9067 98.4989 53.376 98.7976 53.984C99.1069 54.5813 99.2616 55.2907 99.2616 56.112C99.2616 56.7307 99.1762 57.2853 99.0056 57.776C98.8349 58.2667 98.5842 58.6933 98.2536 59.056C97.9229 59.408 97.5282 59.68 97.0696 59.872C96.6216 60.0533 96.1149 60.144 95.5496 60.144ZM95.5496 59.104C96.0296 59.104 96.4509 58.9867 96.8136 58.752C97.1762 58.5173 97.4536 58.176 97.6456 57.728C97.8482 57.28 97.9496 56.7413 97.9496 56.112C97.9496 55.1413 97.7309 54.4 97.2936 53.888C96.8669 53.376 96.2856 53.12 95.5496 53.12C95.0589 53.12 94.6322 53.2373 94.2696 53.472C93.9176 53.696 93.6402 54.032 93.4376 54.48C93.2456 54.9173 93.1496 55.4613 93.1496 56.112C93.1496 57.072 93.3682 57.8133 93.8056 58.336C94.2429 58.848 94.8242 59.104 95.5496 59.104ZM101.848 60.112C101.635 60.112 101.475 60.0533 101.368 59.936C101.262 59.8187 101.208 59.6533 101.208 59.44V52.768C101.208 52.5547 101.262 52.3947 101.368 52.288C101.475 52.1707 101.63 52.112 101.832 52.112C102.035 52.112 102.19 52.1707 102.296 52.288C102.414 52.3947 102.472 52.5547 102.472 52.768V54.144L102.296 53.952C102.52 53.3333 102.883 52.8693 103.384 52.56C103.896 52.24 104.483 52.08 105.144 52.08C105.763 52.08 106.275 52.192 106.68 52.416C107.096 52.64 107.406 52.9813 107.608 53.44C107.811 53.888 107.912 54.4587 107.912 55.152V59.44C107.912 59.6533 107.854 59.8187 107.736 59.936C107.63 60.0533 107.475 60.112 107.272 60.112C107.059 60.112 106.894 60.0533 106.776 59.936C106.67 59.8187 106.616 59.6533 106.616 59.44V55.232C106.616 54.5067 106.472 53.9787 106.184 53.648C105.907 53.3067 105.459 53.136 104.84 53.136C104.126 53.136 103.555 53.36 103.128 53.808C102.712 54.2453 102.504 54.832 102.504 55.568V59.44C102.504 59.888 102.286 60.112 101.848 60.112ZM113.262 60.144C112.569 60.144 111.961 59.9787 111.438 59.648C110.926 59.3173 110.526 58.8533 110.238 58.256C109.961 57.648 109.822 56.9333 109.822 56.112C109.822 55.28 109.961 54.5653 110.238 53.968C110.526 53.36 110.926 52.896 111.438 52.576C111.961 52.2453 112.569 52.08 113.262 52.08C113.966 52.08 114.569 52.256 115.07 52.608C115.571 52.96 115.907 53.4347 116.078 54.032H115.902V49.264C115.902 49.0507 115.955 48.8907 116.062 48.784C116.179 48.6667 116.345 48.608 116.558 48.608C116.761 48.608 116.915 48.6667 117.022 48.784C117.139 48.8907 117.198 49.0507 117.198 49.264V59.44C117.198 59.6533 117.145 59.8187 117.038 59.936C116.931 60.0533 116.771 60.112 116.558 60.112C116.355 60.112 116.195 60.0533 116.078 59.936C115.971 59.8187 115.918 59.6533 115.918 59.44V57.92L116.094 58.144C115.923 58.752 115.582 59.2373 115.07 59.6C114.569 59.9627 113.966 60.144 113.262 60.144ZM113.534 59.104C114.014 59.104 114.435 58.9867 114.798 58.752C115.161 58.5173 115.438 58.176 115.63 57.728C115.833 57.28 115.934 56.7413 115.934 56.112C115.934 55.1413 115.715 54.4 115.278 53.888C114.851 53.376 114.27 53.12 113.534 53.12C113.043 53.12 112.617 53.2373 112.254 53.472C111.902 53.696 111.625 54.032 111.422 54.48C111.23 54.9173 111.134 55.4613 111.134 56.112C111.134 57.072 111.353 57.8133 111.79 58.336C112.227 58.848 112.809 59.104 113.534 59.104ZM120.27 60.08C120.057 60.08 119.897 60.0213 119.79 59.904C119.683 59.776 119.63 59.6 119.63 59.376V52.832C119.63 52.608 119.683 52.4373 119.79 52.32C119.897 52.2027 120.057 52.144 120.27 52.144C120.473 52.144 120.633 52.2027 120.75 52.32C120.867 52.4373 120.926 52.608 120.926 52.832V59.376C120.926 59.6 120.867 59.776 120.75 59.904C120.643 60.0213 120.483 60.08 120.27 60.08ZM120.27 50.352C120.003 50.352 119.795 50.2827 119.646 50.144C119.497 49.9947 119.422 49.7973 119.422 49.552C119.422 49.296 119.497 49.104 119.646 48.976C119.795 48.8373 120.003 48.768 120.27 48.768C120.547 48.768 120.755 48.8373 120.894 48.976C121.043 49.104 121.118 49.296 121.118 49.552C121.118 49.7973 121.043 49.9947 120.894 50.144C120.755 50.2827 120.547 50.352 120.27 50.352ZM123.989 60.112C123.775 60.112 123.615 60.0533 123.509 59.936C123.402 59.8187 123.349 59.6533 123.349 59.44V52.768C123.349 52.5547 123.402 52.3947 123.509 52.288C123.615 52.1707 123.77 52.112 123.973 52.112C124.175 52.112 124.33 52.1707 124.437 52.288C124.554 52.3947 124.613 52.5547 124.613 52.768V54.144L124.437 53.952C124.661 53.3333 125.023 52.8693 125.525 52.56C126.037 52.24 126.623 52.08 127.285 52.08C127.903 52.08 128.415 52.192 128.821 52.416C129.237 52.64 129.546 52.9813 129.749 53.44C129.951 53.888 130.053 54.4587 130.053 55.152V59.44C130.053 59.6533 129.994 59.8187 129.877 59.936C129.77 60.0533 129.615 60.112 129.413 60.112C129.199 60.112 129.034 60.0533 128.917 59.936C128.81 59.8187 128.757 59.6533 128.757 59.44V55.232C128.757 54.5067 128.613 53.9787 128.325 53.648C128.047 53.3067 127.599 53.136 126.981 53.136C126.266 53.136 125.695 53.36 125.269 53.808C124.853 54.2453 124.645 54.832 124.645 55.568V59.44C124.645 59.888 124.426 60.112 123.989 60.112ZM135.883 63.024C135.317 63.024 134.763 62.9547 134.219 62.816C133.685 62.688 133.2 62.48 132.763 62.192C132.635 62.1173 132.549 62.0267 132.507 61.92C132.475 61.8133 132.469 61.7067 132.491 61.6C132.512 61.504 132.56 61.4133 132.635 61.328C132.709 61.2533 132.795 61.2053 132.891 61.184C132.997 61.1627 133.104 61.1787 133.211 61.232C133.68 61.52 134.128 61.7173 134.555 61.824C134.981 61.9307 135.403 61.984 135.819 61.984C136.576 61.984 137.147 61.7813 137.531 61.376C137.925 60.9707 138.123 60.384 138.123 59.616V57.808H138.283C138.123 58.4267 137.781 58.9173 137.259 59.28C136.747 59.6427 136.144 59.824 135.451 59.824C134.736 59.824 134.117 59.664 133.595 59.344C133.072 59.0133 132.667 58.5547 132.379 57.968C132.101 57.3813 131.963 56.704 131.963 55.936C131.963 55.36 132.043 54.8373 132.203 54.368C132.363 53.888 132.592 53.4827 132.891 53.152C133.2 52.8107 133.568 52.5493 133.995 52.368C134.432 52.176 134.917 52.08 135.451 52.08C136.155 52.08 136.763 52.2613 137.275 52.624C137.787 52.976 138.117 53.456 138.267 54.064L138.107 54.256V52.768C138.107 52.5547 138.16 52.3947 138.267 52.288C138.384 52.1707 138.544 52.112 138.747 52.112C138.96 52.112 139.12 52.1707 139.227 52.288C139.333 52.3947 139.387 52.5547 139.387 52.768V59.44C139.387 60.624 139.088 61.5147 138.491 62.112C137.904 62.72 137.035 63.024 135.883 63.024ZM135.691 58.768C136.192 58.768 136.624 58.656 136.987 58.432C137.349 58.1973 137.627 57.8667 137.819 57.44C138.021 57.0133 138.123 56.512 138.123 55.936C138.123 55.072 137.904 54.3893 137.467 53.888C137.029 53.376 136.437 53.12 135.691 53.12C135.2 53.12 134.773 53.2373 134.411 53.472C134.048 53.696 133.765 54.0213 133.563 54.448C133.371 54.864 133.275 55.36 133.275 55.936C133.275 56.8 133.493 57.488 133.931 58C134.368 58.512 134.955 58.768 135.691 58.768ZM148.839 60.112C148.657 60.112 148.497 60.064 148.359 59.968C148.22 59.8613 148.103 59.7013 148.007 59.488L145.239 53.024C145.164 52.864 145.137 52.7147 145.159 52.576C145.18 52.4373 145.244 52.3253 145.351 52.24C145.457 52.1547 145.607 52.112 145.799 52.112C145.969 52.112 146.103 52.1493 146.199 52.224C146.295 52.2987 146.38 52.432 146.455 52.624L149.079 59.04H148.647L151.319 52.624C151.393 52.432 151.479 52.2987 151.575 52.224C151.671 52.1493 151.809 52.112 151.991 52.112C152.161 52.112 152.289 52.1547 152.375 52.24C152.471 52.3253 152.524 52.4373 152.535 52.576C152.556 52.704 152.535 52.848 152.471 53.008L149.671 59.488C149.596 59.7013 149.484 59.8613 149.335 59.968C149.196 60.064 149.031 60.112 148.839 60.112ZM157.572 60.144C156.75 60.144 156.041 59.984 155.444 59.664C154.857 59.3333 154.398 58.8693 154.068 58.272C153.748 57.6747 153.588 56.96 153.588 56.128C153.588 55.3173 153.748 54.6133 154.068 54.016C154.388 53.408 154.825 52.9333 155.38 52.592C155.945 52.2507 156.596 52.08 157.332 52.08C157.854 52.08 158.324 52.1707 158.74 52.352C159.156 52.5227 159.508 52.7733 159.796 53.104C160.094 53.4347 160.318 53.8347 160.468 54.304C160.628 54.7733 160.708 55.3013 160.708 55.888C160.708 56.0587 160.66 56.1867 160.564 56.272C160.468 56.3467 160.329 56.384 160.148 56.384H154.58V55.536H159.844L159.588 55.744C159.588 55.168 159.502 54.6827 159.332 54.288C159.161 53.8827 158.91 53.5733 158.58 53.36C158.26 53.1467 157.854 53.04 157.364 53.04C156.82 53.04 156.356 53.168 155.972 53.424C155.598 53.6693 155.316 54.016 155.124 54.464C154.932 54.9013 154.836 55.4133 154.836 56V56.096C154.836 57.0773 155.07 57.824 155.54 58.336C156.02 58.848 156.697 59.104 157.572 59.104C157.934 59.104 158.292 59.056 158.644 58.96C159.006 58.864 159.358 58.704 159.7 58.48C159.849 58.384 159.982 58.3413 160.1 58.352C160.228 58.352 160.329 58.3893 160.404 58.464C160.478 58.528 160.526 58.6133 160.548 58.72C160.58 58.816 160.569 58.9227 160.516 59.04C160.473 59.1573 160.382 59.2587 160.244 59.344C159.892 59.6 159.476 59.7973 158.996 59.936C158.516 60.0747 158.041 60.144 157.572 60.144ZM163.239 60.112C163.026 60.112 162.861 60.0533 162.743 59.936C162.637 59.8187 162.583 59.6533 162.583 59.44V52.768C162.583 52.5547 162.637 52.3947 162.743 52.288C162.85 52.1707 163.005 52.112 163.207 52.112C163.41 52.112 163.565 52.1707 163.671 52.288C163.789 52.3947 163.847 52.5547 163.847 52.768V54.064H163.687C163.858 53.4347 164.183 52.9493 164.663 52.608C165.143 52.2667 165.735 52.0853 166.439 52.064C166.599 52.0533 166.727 52.0907 166.823 52.176C166.919 52.2507 166.973 52.384 166.983 52.576C166.994 52.7573 166.951 52.9013 166.855 53.008C166.759 53.1147 166.61 53.1787 166.407 53.2L166.151 53.232C165.426 53.296 164.866 53.5307 164.471 53.936C164.087 54.3307 163.895 54.8747 163.895 55.568V59.44C163.895 59.6533 163.837 59.8187 163.719 59.936C163.613 60.0533 163.453 60.112 163.239 60.112ZM171.859 60.144C171.251 60.144 170.739 60.0373 170.323 59.824C169.918 59.6 169.614 59.28 169.411 58.864C169.209 58.4373 169.107 57.92 169.107 57.312V53.232H168.035C167.854 53.232 167.715 53.1893 167.619 53.104C167.523 53.008 167.475 52.88 167.475 52.72C167.475 52.56 167.523 52.4373 167.619 52.352C167.715 52.2667 167.854 52.224 168.035 52.224H169.107V50.384C169.107 50.1707 169.166 50.0107 169.283 49.904C169.401 49.7867 169.561 49.728 169.763 49.728C169.966 49.728 170.121 49.7867 170.227 49.904C170.345 50.0107 170.403 50.1707 170.403 50.384V52.224H172.419C172.601 52.224 172.739 52.2667 172.835 52.352C172.931 52.4373 172.979 52.56 172.979 52.72C172.979 52.88 172.931 53.008 172.835 53.104C172.739 53.1893 172.601 53.232 172.419 53.232H170.403V57.184C170.403 57.792 170.531 58.256 170.787 58.576C171.043 58.8853 171.459 59.04 172.035 59.04C172.238 59.04 172.409 59.0187 172.547 58.976C172.697 58.9333 172.819 58.912 172.915 58.912C173.011 58.9013 173.091 58.9333 173.155 59.008C173.219 59.0827 173.251 59.2107 173.251 59.392C173.251 59.52 173.225 59.6373 173.171 59.744C173.129 59.8507 173.049 59.9253 172.931 59.968C172.803 60.0107 172.633 60.048 172.419 60.08C172.217 60.1227 172.03 60.144 171.859 60.144ZM175.067 60.08C174.854 60.08 174.694 60.0213 174.587 59.904C174.48 59.776 174.427 59.6 174.427 59.376V52.832C174.427 52.608 174.48 52.4373 174.587 52.32C174.694 52.2027 174.854 52.144 175.067 52.144C175.27 52.144 175.43 52.2027 175.547 52.32C175.664 52.4373 175.723 52.608 175.723 52.832V59.376C175.723 59.6 175.664 59.776 175.547 59.904C175.44 60.0213 175.28 60.08 175.067 60.08ZM175.067 50.352C174.8 50.352 174.592 50.2827 174.443 50.144C174.294 49.9947 174.219 49.7973 174.219 49.552C174.219 49.296 174.294 49.104 174.443 48.976C174.592 48.8373 174.8 48.768 175.067 48.768C175.344 48.768 175.552 48.8373 175.691 48.976C175.84 49.104 175.915 49.296 175.915 49.552C175.915 49.7973 175.84 49.9947 175.691 50.144C175.552 50.2827 175.344 50.352 175.067 50.352ZM181.442 60.144C180.663 60.144 179.991 59.9733 179.426 59.632C178.86 59.2907 178.423 58.816 178.114 58.208C177.815 57.5893 177.666 56.8747 177.666 56.064C177.666 55.4453 177.751 54.8907 177.922 54.4C178.092 53.9093 178.343 53.4933 178.674 53.152C179.004 52.8 179.399 52.5333 179.858 52.352C180.327 52.1707 180.855 52.08 181.442 52.08C181.826 52.08 182.226 52.1387 182.642 52.256C183.058 52.3733 183.436 52.576 183.778 52.864C183.884 52.9387 183.954 53.0293 183.986 53.136C184.018 53.2427 184.018 53.3493 183.986 53.456C183.954 53.552 183.9 53.6373 183.826 53.712C183.751 53.776 183.655 53.8133 183.538 53.824C183.431 53.8347 183.319 53.7973 183.202 53.712C182.924 53.4987 182.642 53.3493 182.354 53.264C182.066 53.1787 181.788 53.136 181.522 53.136C181.106 53.136 180.743 53.2053 180.434 53.344C180.124 53.472 179.863 53.6587 179.65 53.904C179.436 54.1493 179.271 54.4533 179.154 54.816C179.047 55.1787 178.994 55.6 178.994 56.08C178.994 57.008 179.212 57.744 179.65 58.288C180.087 58.8213 180.711 59.088 181.522 59.088C181.788 59.088 182.06 59.0453 182.338 58.96C182.626 58.8747 182.914 58.7253 183.202 58.512C183.319 58.4267 183.431 58.3893 183.538 58.4C183.644 58.4107 183.735 58.4533 183.81 58.528C183.884 58.592 183.932 58.6773 183.954 58.784C183.986 58.8907 183.986 58.9973 183.954 59.104C183.922 59.2 183.852 59.2853 183.746 59.36C183.404 59.6373 183.031 59.84 182.626 59.968C182.22 60.0853 181.826 60.144 181.442 60.144ZM188.9 60.144C188.078 60.144 187.369 59.984 186.772 59.664C186.185 59.3333 185.726 58.8693 185.396 58.272C185.076 57.6747 184.916 56.96 184.916 56.128C184.916 55.3173 185.076 54.6133 185.396 54.016C185.716 53.408 186.153 52.9333 186.708 52.592C187.273 52.2507 187.924 52.08 188.66 52.08C189.182 52.08 189.652 52.1707 190.068 52.352C190.484 52.5227 190.836 52.7733 191.124 53.104C191.422 53.4347 191.646 53.8347 191.796 54.304C191.956 54.7733 192.036 55.3013 192.036 55.888C192.036 56.0587 191.988 56.1867 191.892 56.272C191.796 56.3467 191.657 56.384 191.476 56.384H185.908V55.536H191.172L190.916 55.744C190.916 55.168 190.83 54.6827 190.66 54.288C190.489 53.8827 190.238 53.5733 189.908 53.36C189.588 53.1467 189.182 53.04 188.692 53.04C188.148 53.04 187.684 53.168 187.3 53.424C186.926 53.6693 186.644 54.016 186.452 54.464C186.26 54.9013 186.164 55.4133 186.164 56V56.096C186.164 57.0773 186.398 57.824 186.868 58.336C187.348 58.848 188.025 59.104 188.9 59.104C189.262 59.104 189.62 59.056 189.972 58.96C190.334 58.864 190.686 58.704 191.028 58.48C191.177 58.384 191.31 58.3413 191.428 58.352C191.556 58.352 191.657 58.3893 191.732 58.464C191.806 58.528 191.854 58.6133 191.876 58.72C191.908 58.816 191.897 58.9227 191.844 59.04C191.801 59.1573 191.71 59.2587 191.572 59.344C191.22 59.6 190.804 59.7973 190.324 59.936C189.844 60.0747 189.369 60.144 188.9 60.144ZM196.535 60.144C196.055 60.144 195.57 60.0853 195.079 59.968C194.599 59.8507 194.151 59.648 193.735 59.36C193.629 59.2853 193.554 59.2 193.511 59.104C193.469 58.9973 193.453 58.896 193.463 58.8C193.485 58.6933 193.527 58.6027 193.591 58.528C193.666 58.4533 193.751 58.4107 193.847 58.4C193.954 58.3787 194.071 58.4 194.199 58.464C194.615 58.72 195.015 58.9013 195.399 59.008C195.794 59.104 196.183 59.152 196.567 59.152C197.175 59.152 197.634 59.04 197.943 58.816C198.253 58.592 198.407 58.288 198.407 57.904C198.407 57.6053 198.306 57.3707 198.103 57.2C197.901 57.0187 197.581 56.88 197.143 56.784L195.687 56.464C195.015 56.3253 194.514 56.0853 194.183 55.744C193.863 55.4027 193.703 54.96 193.703 54.416C193.703 53.936 193.826 53.5253 194.071 53.184C194.327 52.832 194.685 52.56 195.143 52.368C195.602 52.176 196.135 52.08 196.743 52.08C197.213 52.08 197.655 52.144 198.071 52.272C198.498 52.3893 198.882 52.5813 199.223 52.848C199.33 52.9227 199.399 53.0133 199.431 53.12C199.474 53.216 199.479 53.3173 199.447 53.424C199.426 53.52 199.378 53.6053 199.303 53.68C199.229 53.744 199.138 53.7813 199.031 53.792C198.925 53.8027 198.813 53.7707 198.695 53.696C198.375 53.4827 198.05 53.328 197.719 53.232C197.389 53.1253 197.063 53.072 196.743 53.072C196.146 53.072 195.693 53.1893 195.383 53.424C195.074 53.6587 194.919 53.968 194.919 54.352C194.919 54.6507 195.015 54.896 195.207 55.088C195.399 55.28 195.698 55.4187 196.103 55.504L197.559 55.808C198.253 55.9573 198.77 56.1973 199.111 56.528C199.463 56.848 199.639 57.2853 199.639 57.84C199.639 58.544 199.357 59.104 198.791 59.52C198.226 59.936 197.474 60.144 196.535 60.144ZM202.16 60.064C201.894 60.064 201.68 59.984 201.52 59.824C201.36 59.6533 201.28 59.44 201.28 59.184C201.28 58.928 201.36 58.72 201.52 58.56C201.68 58.3893 201.894 58.304 202.16 58.304C202.427 58.304 202.635 58.3893 202.784 58.56C202.944 58.72 203.024 58.928 203.024 59.184C203.024 59.44 202.944 59.6533 202.784 59.824C202.635 59.984 202.427 60.064 202.16 60.064Z" fill="#444444"/>
<circle cx="242" cy="79" r="11.5" fill="white" stroke="#1A1A1A"/>
<path d="M242.016 80.752C241.813 80.752 241.653 80.688 241.536 80.56C241.429 80.432 241.365 80.2507 241.344 80.016L240.864 73.904C240.832 73.5093 240.917 73.1947 241.12 72.96C241.322 72.7147 241.621 72.592 242.016 72.592C242.4 72.592 242.688 72.7147 242.88 72.96C243.082 73.1947 243.168 73.5093 243.136 73.904L242.656 80.016C242.645 80.2507 242.581 80.432 242.464 80.56C242.357 80.688 242.208 80.752 242.016 80.752ZM242.016 84.08C241.653 84.08 241.36 83.968 241.136 83.744C240.922 83.52 240.816 83.232 240.816 82.88C240.816 82.5387 240.922 82.2613 241.136 82.048C241.36 81.824 241.653 81.712 242.016 81.712C242.389 81.712 242.677 81.824 242.88 82.048C243.093 82.2613 243.2 82.5387 243.2 82.88C243.2 83.232 243.093 83.52 242.88 83.744C242.677 83.968 242.389 84.08 242.016 84.08Z" fill="#1A1A1A"/>
<rect width="1" height="12" transform="matrix(0 1 1 0 24 7)" fill="white"/>
<path d="M35.4972 6.91515C35.7872 7.2368 35.559 7.75 35.1258 7.75L24.3213 7.75C23.8967 7.75 23.6654 7.25428 23.9381 6.92887L29.0833 0.788462L29.1422 0.717183C29.3422 0.474893 29.7134 0.474893 29.9134 0.717183L29.9722 0.788462L35.4972 6.91515Z" fill="white"/>
<path d="M36 7L30.4632 0.867016C30.0519 0.411469 29.3312 0.430445 28.9444 0.907L24 7" stroke="#1A1A1A" stroke-width="0.5" stroke-linecap="square"/>
</svg>
