<svg width="334" height="229" viewBox="0 0 334 229" fill="none" xmlns="http://www.w3.org/2000/svg">
<path d="M285.461 23.92C284.021 21.4 283.301 18.6733 283.301 15.74C283.301 12.7667 284.021 10.0333 285.461 7.54C285.621 7.28667 285.801 7.1 286.001 6.98C286.215 6.84667 286.428 6.78 286.641 6.78C286.868 6.78 287.055 6.85333 287.201 7C287.361 7.13333 287.441 7.32 287.441 7.56C287.441 7.74667 287.408 7.91333 287.341 8.06C286.355 10.4867 285.861 13.0467 285.861 15.74C285.861 17.0867 285.981 18.3867 286.221 19.64C286.461 20.88 286.835 22.1267 287.341 23.38C287.408 23.5267 287.441 23.6933 287.441 23.88C287.441 24.12 287.361 24.3067 287.201 24.44C287.055 24.5867 286.868 24.66 286.641 24.66C286.428 24.66 286.215 24.6 286.001 24.48C285.788 24.36 285.608 24.1733 285.461 23.92ZM302.745 18.12C303.198 18.12 303.565 18.2867 303.845 18.62C304.125 18.9533 304.265 19.44 304.265 20.08C304.265 21.3467 303.825 22.44 302.945 23.36C302.771 23.5333 302.585 23.62 302.385 23.62C302.185 23.62 302.011 23.5533 301.865 23.42C301.718 23.2867 301.645 23.1267 301.645 22.94C301.645 22.78 301.711 22.6267 301.845 22.48C302.245 22.0533 302.505 21.5733 302.625 21.04C302.238 21 301.918 20.8533 301.665 20.6C301.425 20.3333 301.305 20.0067 301.305 19.62C301.305 19.1933 301.438 18.84 301.705 18.56C301.985 18.2667 302.331 18.12 302.745 18.12ZM325.548 23.92C325.401 24.1733 325.221 24.36 325.008 24.48C324.794 24.6 324.581 24.66 324.368 24.66C324.141 24.66 323.948 24.5867 323.788 24.44C323.641 24.3067 323.568 24.12 323.568 23.88C323.568 23.6933 323.601 23.5267 323.668 23.38C324.174 22.1267 324.548 20.88 324.788 19.64C325.028 18.3867 325.148 17.0867 325.148 15.74C325.148 13.0467 324.654 10.4867 323.668 8.06C323.601 7.91333 323.568 7.74667 323.568 7.56C323.568 7.32 323.641 7.13333 323.788 7C323.948 6.85333 324.141 6.78 324.368 6.78C324.581 6.78 324.788 6.84667 324.988 6.98C325.201 7.1 325.388 7.28667 325.548 7.54C326.988 10.0333 327.708 12.7667 327.708 15.74C327.708 18.6733 326.988 21.4 325.548 23.92Z" fill="#1A1A1A"/>
<path d="M296.473 13.76C297.313 13.9733 297.953 14.38 298.393 14.98C298.846 15.5667 299.073 16.3 299.073 17.18C299.073 18.3933 298.626 19.36 297.733 20.08C296.839 20.8 295.633 21.16 294.113 21.16C293.246 21.16 292.413 21.0267 291.613 20.76C290.813 20.4933 290.133 20.12 289.573 19.64C289.266 19.3733 289.113 19.06 289.113 18.7C289.113 18.4067 289.193 18.16 289.353 17.96C289.526 17.7467 289.726 17.64 289.953 17.64C290.086 17.64 290.206 17.6667 290.313 17.72C290.419 17.76 290.566 17.8333 290.753 17.94C291.313 18.3133 291.846 18.6 292.353 18.8C292.859 19 293.413 19.1 294.013 19.1C294.893 19.1 295.546 18.9267 295.973 18.58C296.399 18.22 296.613 17.68 296.613 16.96C296.613 16.2533 296.386 15.7333 295.933 15.4C295.493 15.0533 294.806 14.88 293.873 14.88H292.733C292.426 14.88 292.186 14.78 292.013 14.58C291.853 14.3667 291.773 14.1267 291.773 13.86C291.773 13.58 291.853 13.34 292.013 13.14C292.186 12.94 292.426 12.84 292.733 12.84H293.533C295.359 12.84 296.273 12.1533 296.273 10.78C296.273 10.14 296.079 9.64667 295.693 9.3C295.306 8.95333 294.773 8.78 294.093 8.78C293.119 8.78 292.079 9.16667 290.973 9.94C290.786 10.0467 290.639 10.1267 290.533 10.18C290.426 10.22 290.306 10.24 290.173 10.24C289.946 10.24 289.746 10.14 289.573 9.94C289.413 9.72667 289.333 9.47333 289.333 9.18C289.333 8.98 289.366 8.81333 289.433 8.68C289.513 8.53333 289.633 8.38667 289.793 8.24C290.353 7.77333 291.019 7.40667 291.793 7.14C292.579 6.86 293.379 6.72 294.192 6.72C295.579 6.72 296.679 7.06 297.493 7.74C298.319 8.42 298.733 9.32667 298.733 10.46C298.719 11.2333 298.513 11.9133 298.113 12.5C297.726 13.0733 297.179 13.4933 296.473 13.76Z" fill="#FF8F1F"/>
<path d="M318.855 13.76C319.695 13.9733 320.335 14.38 320.775 14.98C321.229 15.5667 321.455 16.3 321.455 17.18C321.455 18.3933 321.009 19.36 320.115 20.08C319.222 20.8 318.015 21.16 316.495 21.16C315.629 21.16 314.795 21.0267 313.995 20.76C313.195 20.4933 312.515 20.12 311.955 19.64C311.649 19.3733 311.495 19.06 311.495 18.7C311.495 18.4067 311.575 18.16 311.735 17.96C311.909 17.7467 312.109 17.64 312.335 17.64C312.469 17.64 312.589 17.6667 312.695 17.72C312.802 17.76 312.949 17.8333 313.135 17.94C313.695 18.3133 314.229 18.6 314.735 18.8C315.242 19 315.795 19.1 316.395 19.1C317.275 19.1 317.929 18.9267 318.355 18.58C318.782 18.22 318.995 17.68 318.995 16.96C318.995 16.2533 318.769 15.7333 318.315 15.4C317.875 15.0533 317.189 14.88 316.255 14.88H315.115C314.809 14.88 314.569 14.78 314.395 14.58C314.235 14.3667 314.155 14.1267 314.155 13.86C314.155 13.58 314.235 13.34 314.395 13.14C314.569 12.94 314.809 12.84 315.115 12.84H315.915C317.742 12.84 318.655 12.1533 318.655 10.78C318.655 10.14 318.462 9.64667 318.075 9.3C317.689 8.95333 317.155 8.78 316.475 8.78C315.502 8.78 314.462 9.16667 313.355 9.94C313.169 10.0467 313.022 10.1267 312.915 10.18C312.809 10.22 312.689 10.24 312.555 10.24C312.329 10.24 312.129 10.14 311.955 9.94C311.795 9.72667 311.715 9.47333 311.715 9.18C311.715 8.98 311.749 8.81333 311.815 8.68C311.895 8.53333 312.015 8.38667 312.175 8.24C312.735 7.77333 313.402 7.40667 314.175 7.14C314.962 6.86 315.762 6.72 316.575 6.72C317.962 6.72 319.062 7.06 319.875 7.74C320.702 8.42 321.115 9.32667 321.115 10.46C321.102 11.2333 320.895 11.9133 320.495 12.5C320.109 13.0733 319.562 13.4933 318.855 13.76Z" fill="#AA5EE0"/>
<path d="M280.625 224.392C279.185 221.872 278.465 219.146 278.465 216.212C278.465 213.239 279.185 210.506 280.625 208.012C280.785 207.759 280.965 207.572 281.165 207.452C281.379 207.319 281.592 207.252 281.805 207.252C282.032 207.252 282.219 207.326 282.365 207.472C282.525 207.606 282.605 207.792 282.605 208.032C282.605 208.219 282.572 208.386 282.505 208.532C281.519 210.959 281.025 213.519 281.025 216.212C281.025 217.559 281.145 218.859 281.385 220.112C281.625 221.352 281.999 222.599 282.505 223.852C282.572 223.999 282.605 224.166 282.605 224.352C282.605 224.592 282.525 224.779 282.365 224.912C282.219 225.059 282.032 225.132 281.805 225.132C281.592 225.132 281.379 225.072 281.165 224.952C280.952 224.832 280.772 224.646 280.625 224.392ZM297.909 218.592C298.362 218.592 298.729 218.759 299.009 219.092C299.289 219.426 299.429 219.912 299.429 220.552C299.429 221.819 298.989 222.912 298.109 223.832C297.935 224.006 297.749 224.092 297.549 224.092C297.349 224.092 297.175 224.026 297.029 223.892C296.882 223.759 296.809 223.599 296.809 223.412C296.809 223.252 296.875 223.099 297.009 222.952C297.409 222.526 297.669 222.046 297.789 221.512C297.402 221.472 297.082 221.326 296.829 221.072C296.589 220.806 296.469 220.479 296.469 220.092C296.469 219.666 296.602 219.312 296.869 219.032C297.149 218.739 297.495 218.592 297.909 218.592ZM329.383 224.392C329.237 224.646 329.057 224.832 328.843 224.952C328.63 225.072 328.417 225.132 328.203 225.132C327.977 225.132 327.783 225.059 327.623 224.912C327.477 224.779 327.403 224.592 327.403 224.352C327.403 224.166 327.437 223.999 327.503 223.852C328.01 222.599 328.383 221.352 328.623 220.112C328.863 218.859 328.983 217.559 328.983 216.212C328.983 213.519 328.49 210.959 327.503 208.532C327.437 208.386 327.403 208.219 327.403 208.032C327.403 207.792 327.477 207.606 327.623 207.472C327.783 207.326 327.977 207.252 328.203 207.252C328.417 207.252 328.623 207.319 328.823 207.452C329.037 207.572 329.223 207.759 329.383 208.012C330.823 210.506 331.543 213.239 331.543 216.212C331.543 219.146 330.823 221.872 329.383 224.392Z" fill="#1A1A1A"/>
<path d="M291.637 214.232C292.477 214.446 293.117 214.852 293.557 215.452C294.01 216.039 294.237 216.772 294.237 217.652C294.237 218.866 293.79 219.832 292.897 220.552C292.003 221.272 290.797 221.632 289.277 221.632C288.41 221.632 287.577 221.499 286.777 221.232C285.977 220.966 285.297 220.592 284.737 220.112C284.43 219.846 284.277 219.532 284.277 219.172C284.277 218.879 284.357 218.632 284.517 218.432C284.69 218.219 284.89 218.112 285.117 218.112C285.25 218.112 285.37 218.139 285.477 218.192C285.583 218.232 285.73 218.306 285.917 218.412C286.477 218.786 287.01 219.072 287.517 219.272C288.023 219.472 288.577 219.572 289.177 219.572C290.057 219.572 290.71 219.399 291.137 219.052C291.563 218.692 291.777 218.152 291.777 217.432C291.777 216.726 291.55 216.206 291.097 215.872C290.657 215.526 289.97 215.352 289.037 215.352H287.897C287.59 215.352 287.35 215.252 287.177 215.052C287.017 214.839 286.937 214.599 286.937 214.332C286.937 214.052 287.017 213.812 287.177 213.612C287.35 213.412 287.59 213.312 287.897 213.312H288.697C290.523 213.312 291.437 212.626 291.437 211.252C291.437 210.612 291.243 210.119 290.857 209.772C290.47 209.426 289.937 209.252 289.257 209.252C288.283 209.252 287.243 209.639 286.137 210.412C285.95 210.519 285.803 210.599 285.697 210.652C285.59 210.692 285.47 210.712 285.337 210.712C285.11 210.712 284.91 210.612 284.737 210.412C284.577 210.199 284.497 209.946 284.497 209.652C284.497 209.452 284.53 209.286 284.597 209.152C284.677 209.006 284.797 208.859 284.957 208.712C285.517 208.246 286.183 207.879 286.957 207.612C287.743 207.332 288.543 207.192 289.357 207.192C290.743 207.192 291.843 207.532 292.657 208.212C293.483 208.892 293.897 209.799 293.897 210.932C293.883 211.706 293.677 212.386 293.277 212.972C292.89 213.546 292.343 213.966 291.637 214.232Z" fill="#FF8F1F"/>
<path d="M308.139 217.112C307.753 217.112 307.459 217.026 307.259 216.852C307.073 216.679 306.979 216.439 306.979 216.132C306.979 215.826 307.073 215.586 307.259 215.412C307.459 215.226 307.753 215.132 308.139 215.132H312.259C312.646 215.132 312.933 215.226 313.119 215.412C313.319 215.586 313.419 215.826 313.419 216.132C313.419 216.439 313.319 216.679 313.119 216.852C312.933 217.026 312.646 217.112 312.259 217.112H308.139ZM322.691 214.232C323.531 214.446 324.171 214.852 324.611 215.452C325.065 216.039 325.291 216.772 325.291 217.652C325.291 218.866 324.845 219.832 323.951 220.552C323.058 221.272 321.851 221.632 320.331 221.632C319.465 221.632 318.631 221.499 317.831 221.232C317.031 220.966 316.351 220.592 315.791 220.112C315.485 219.846 315.331 219.532 315.331 219.172C315.331 218.879 315.411 218.632 315.571 218.432C315.745 218.219 315.945 218.112 316.171 218.112C316.305 218.112 316.425 218.139 316.531 218.192C316.638 218.232 316.785 218.306 316.971 218.412C317.531 218.786 318.065 219.072 318.571 219.272C319.078 219.472 319.631 219.572 320.231 219.572C321.111 219.572 321.765 219.399 322.191 219.052C322.618 218.692 322.831 218.152 322.831 217.432C322.831 216.726 322.605 216.206 322.151 215.872C321.711 215.526 321.025 215.352 320.091 215.352H318.951C318.645 215.352 318.405 215.252 318.231 215.052C318.071 214.839 317.991 214.599 317.991 214.332C317.991 214.052 318.071 213.812 318.231 213.612C318.405 213.412 318.645 213.312 318.951 213.312H319.751C321.578 213.312 322.491 212.626 322.491 211.252C322.491 210.612 322.298 210.119 321.911 209.772C321.525 209.426 320.991 209.252 320.311 209.252C319.338 209.252 318.298 209.639 317.191 210.412C317.005 210.519 316.858 210.599 316.751 210.652C316.645 210.692 316.525 210.712 316.391 210.712C316.165 210.712 315.965 210.612 315.791 210.412C315.631 210.199 315.551 209.946 315.551 209.652C315.551 209.452 315.585 209.286 315.651 209.152C315.731 209.006 315.851 208.859 316.011 208.712C316.571 208.246 317.238 207.879 318.011 207.612C318.798 207.332 319.598 207.192 320.411 207.192C321.798 207.192 322.898 207.532 323.711 208.212C324.538 208.892 324.951 209.799 324.951 210.932C324.938 211.706 324.731 212.386 324.331 212.972C323.945 213.546 323.398 213.966 322.691 214.232Z" fill="#AA5EE0"/>
<path d="M4.28938 224.392C2.84938 221.872 2.12938 219.146 2.12938 216.212C2.12938 213.239 2.84938 210.506 4.28938 208.012C4.44938 207.759 4.62938 207.572 4.82938 207.452C5.04271 207.319 5.25604 207.252 5.46938 207.252C5.69604 207.252 5.88271 207.326 6.02938 207.472C6.18938 207.606 6.26938 207.792 6.26938 208.032C6.26938 208.219 6.23604 208.386 6.16938 208.532C5.18271 210.959 4.68938 213.519 4.68938 216.212C4.68938 217.559 4.80938 218.859 5.04938 220.112C5.28938 221.352 5.66271 222.599 6.16938 223.852C6.23604 223.999 6.26938 224.166 6.26938 224.352C6.26938 224.592 6.18938 224.779 6.02938 224.912C5.88271 225.059 5.69604 225.132 5.46938 225.132C5.25604 225.132 5.04271 225.072 4.82938 224.952C4.61604 224.832 4.43604 224.646 4.28938 224.392ZM30.2447 218.592C30.698 218.592 31.0647 218.759 31.3447 219.092C31.6247 219.426 31.7647 219.912 31.7647 220.552C31.7647 221.819 31.3247 222.912 30.4447 223.832C30.2714 224.006 30.0847 224.092 29.8847 224.092C29.6847 224.092 29.5114 224.026 29.3647 223.892C29.218 223.759 29.1447 223.599 29.1447 223.412C29.1447 223.252 29.2114 223.099 29.3447 222.952C29.7447 222.526 30.0047 222.046 30.1247 221.512C29.738 221.472 29.418 221.326 29.1647 221.072C28.9247 220.806 28.8047 220.479 28.8047 220.092C28.8047 219.666 28.938 219.312 29.2047 219.032C29.4847 218.739 29.8314 218.592 30.2447 218.592ZM61.7194 224.392C61.5727 224.646 61.3927 224.832 61.1794 224.952C60.966 225.072 60.7527 225.132 60.5394 225.132C60.3127 225.132 60.1194 225.059 59.9594 224.912C59.8127 224.779 59.7394 224.592 59.7394 224.352C59.7394 224.166 59.7727 223.999 59.8394 223.852C60.346 222.599 60.7194 221.352 60.9594 220.112C61.1994 218.859 61.3194 217.559 61.3194 216.212C61.3194 213.519 60.826 210.959 59.8394 208.532C59.7727 208.386 59.7394 208.219 59.7394 208.032C59.7394 207.792 59.8127 207.606 59.9594 207.472C60.1194 207.326 60.3127 207.252 60.5394 207.252C60.7527 207.252 60.9594 207.319 61.1594 207.452C61.3727 207.572 61.5594 207.759 61.7194 208.012C63.1594 210.506 63.8794 213.239 63.8794 216.212C63.8794 219.146 63.1594 221.872 61.7194 224.392Z" fill="#1A1A1A"/>
<path d="M9.42063 217.112C9.03396 217.112 8.74063 217.026 8.54063 216.852C8.35396 216.679 8.26063 216.439 8.26063 216.132C8.26063 215.826 8.35396 215.586 8.54063 215.412C8.74063 215.226 9.03396 215.132 9.42063 215.132H13.5406C13.9273 215.132 14.214 215.226 14.4006 215.412C14.6006 215.586 14.7006 215.826 14.7006 216.132C14.7006 216.439 14.6006 216.679 14.4006 216.852C14.214 217.026 13.9273 217.112 13.5406 217.112H9.42063ZM23.9725 214.232C24.8125 214.446 25.4525 214.852 25.8925 215.452C26.3458 216.039 26.5725 216.772 26.5725 217.652C26.5725 218.866 26.1258 219.832 25.2325 220.552C24.3392 221.272 23.1325 221.632 21.6125 221.632C20.7458 221.632 19.9125 221.499 19.1125 221.232C18.3125 220.966 17.6325 220.592 17.0725 220.112C16.7658 219.846 16.6125 219.532 16.6125 219.172C16.6125 218.879 16.6925 218.632 16.8525 218.432C17.0258 218.219 17.2258 218.112 17.4525 218.112C17.5858 218.112 17.7058 218.139 17.8125 218.192C17.9192 218.232 18.0658 218.306 18.2525 218.412C18.8125 218.786 19.3458 219.072 19.8525 219.272C20.3592 219.472 20.9125 219.572 21.5125 219.572C22.3925 219.572 23.0458 219.399 23.4725 219.052C23.8992 218.692 24.1125 218.152 24.1125 217.432C24.1125 216.726 23.8858 216.206 23.4325 215.872C22.9925 215.526 22.3058 215.352 21.3725 215.352H20.2325C19.9258 215.352 19.6858 215.252 19.5125 215.052C19.3525 214.839 19.2725 214.599 19.2725 214.332C19.2725 214.052 19.3525 213.812 19.5125 213.612C19.6858 213.412 19.9258 213.312 20.2325 213.312H21.0325C22.8592 213.312 23.7725 212.626 23.7725 211.252C23.7725 210.612 23.5792 210.119 23.1925 209.772C22.8058 209.426 22.2725 209.252 21.5925 209.252C20.6192 209.252 19.5792 209.639 18.4725 210.412C18.2858 210.519 18.1392 210.599 18.0325 210.652C17.9258 210.692 17.8058 210.712 17.6725 210.712C17.4458 210.712 17.2458 210.612 17.0725 210.412C16.9125 210.199 16.8325 209.946 16.8325 209.652C16.8325 209.452 16.8658 209.286 16.9325 209.152C17.0125 209.006 17.1325 208.859 17.2925 208.712C17.8525 208.246 18.5192 207.879 19.2925 207.612C20.0792 207.332 20.8792 207.192 21.6925 207.192C23.0792 207.192 24.1792 207.532 24.9925 208.212C25.8192 208.892 26.2325 209.799 26.2325 210.932C26.2192 211.706 26.0125 212.386 25.6125 212.972C25.2258 213.546 24.6792 213.966 23.9725 214.232Z" fill="#FF8F1F"/>
<path d="M40.4753 217.112C40.0886 217.112 39.7953 217.026 39.5953 216.852C39.4086 216.679 39.3153 216.439 39.3153 216.132C39.3153 215.826 39.4086 215.586 39.5953 215.412C39.7953 215.226 40.0886 215.132 40.4753 215.132H44.5953C44.982 215.132 45.2686 215.226 45.4553 215.412C45.6553 215.586 45.7553 215.826 45.7553 216.132C45.7553 216.439 45.6553 216.679 45.4553 216.852C45.2686 217.026 44.982 217.112 44.5953 217.112H40.4753ZM55.0272 214.232C55.8672 214.446 56.5072 214.852 56.9472 215.452C57.4005 216.039 57.6272 216.772 57.6272 217.652C57.6272 218.866 57.1805 219.832 56.2872 220.552C55.3939 221.272 54.1872 221.632 52.6672 221.632C51.8005 221.632 50.9672 221.499 50.1672 221.232C49.3672 220.966 48.6872 220.592 48.1272 220.112C47.8205 219.846 47.6672 219.532 47.6672 219.172C47.6672 218.879 47.7472 218.632 47.9072 218.432C48.0805 218.219 48.2805 218.112 48.5072 218.112C48.6405 218.112 48.7605 218.139 48.8672 218.192C48.9739 218.232 49.1205 218.306 49.3072 218.412C49.8672 218.786 50.4005 219.072 50.9072 219.272C51.4139 219.472 51.9672 219.572 52.5672 219.572C53.4472 219.572 54.1005 219.399 54.5272 219.052C54.9539 218.692 55.1672 218.152 55.1672 217.432C55.1672 216.726 54.9405 216.206 54.4872 215.872C54.0472 215.526 53.3605 215.352 52.4272 215.352H51.2872C50.9805 215.352 50.7405 215.252 50.5672 215.052C50.4072 214.839 50.3272 214.599 50.3272 214.332C50.3272 214.052 50.4072 213.812 50.5672 213.612C50.7405 213.412 50.9805 213.312 51.2872 213.312H52.0872C53.9139 213.312 54.8272 212.626 54.8272 211.252C54.8272 210.612 54.6339 210.119 54.2472 209.772C53.8605 209.426 53.3272 209.252 52.6472 209.252C51.6739 209.252 50.6339 209.639 49.5272 210.412C49.3405 210.519 49.1939 210.599 49.0872 210.652C48.9805 210.692 48.8605 210.712 48.7272 210.712C48.5005 210.712 48.3005 210.612 48.1272 210.412C47.9672 210.199 47.8872 209.946 47.8872 209.652C47.8872 209.452 47.9205 209.286 47.9872 209.152C48.0672 209.006 48.1872 208.859 48.3472 208.712C48.9072 208.246 49.5739 207.879 50.3472 207.612C51.1339 207.332 51.9339 207.192 52.7472 207.192C54.1339 207.192 55.2339 207.532 56.0472 208.212C56.8739 208.892 57.2872 209.799 57.2872 210.932C57.2739 211.706 57.0672 212.386 56.6672 212.972C56.2805 213.546 55.7339 213.966 55.0272 214.232Z" fill="#AA5EE0"/>
<path d="M12.6253 24.92C11.1853 22.4 10.4653 19.6733 10.4653 16.74C10.4653 13.7667 11.1853 11.0333 12.6253 8.54C12.7853 8.28667 12.9653 8.1 13.1653 7.98C13.3786 7.84667 13.592 7.78 13.8053 7.78C14.032 7.78 14.2186 7.85333 14.3653 8C14.5253 8.13333 14.6053 8.32 14.6053 8.56C14.6053 8.74667 14.572 8.91333 14.5053 9.06C13.5186 11.4867 13.0253 14.0467 13.0253 16.74C13.0253 18.0867 13.1453 19.3867 13.3853 20.64C13.6253 21.88 13.9986 23.1267 14.5053 24.38C14.572 24.5267 14.6053 24.6933 14.6053 24.88C14.6053 25.12 14.5253 25.3067 14.3653 25.44C14.2186 25.5867 14.032 25.66 13.8053 25.66C13.592 25.66 13.3786 25.6 13.1653 25.48C12.952 25.36 12.772 25.1733 12.6253 24.92ZM38.5806 19.12C39.034 19.12 39.4006 19.2867 39.6806 19.62C39.9606 19.9533 40.1006 20.44 40.1006 21.08C40.1006 22.3467 39.6606 23.44 38.7806 24.36C38.6073 24.5333 38.4206 24.62 38.2206 24.62C38.0206 24.62 37.8473 24.5533 37.7006 24.42C37.554 24.2867 37.4806 24.1267 37.4806 23.94C37.4806 23.78 37.5473 23.6267 37.6806 23.48C38.0806 23.0533 38.3406 22.5733 38.4606 22.04C38.074 22 37.754 21.8533 37.5006 21.6C37.2606 21.3333 37.1406 21.0067 37.1406 20.62C37.1406 20.1933 37.274 19.84 37.5406 19.56C37.8206 19.2667 38.1673 19.12 38.5806 19.12ZM61.3834 24.92C61.2368 25.1733 61.0568 25.36 60.8434 25.48C60.6301 25.6 60.4168 25.66 60.2034 25.66C59.9768 25.66 59.7834 25.5867 59.6234 25.44C59.4768 25.3067 59.4034 25.12 59.4034 24.88C59.4034 24.6933 59.4368 24.5267 59.5034 24.38C60.0101 23.1267 60.3834 21.88 60.6234 20.64C60.8634 19.3867 60.9834 18.0867 60.9834 16.74C60.9834 14.0467 60.4901 11.4867 59.5034 9.06C59.4368 8.91333 59.4034 8.74667 59.4034 8.56C59.4034 8.32 59.4768 8.13333 59.6234 8C59.7834 7.85333 59.9768 7.78 60.2034 7.78C60.4168 7.78 60.6234 7.84667 60.8234 7.98C61.0368 8.1 61.2234 8.28667 61.3834 8.54C62.8234 11.0333 63.5434 13.7667 63.5434 16.74C63.5434 19.6733 62.8234 22.4 61.3834 24.92Z" fill="#1A1A1A"/>
<path d="M17.7566 17.64C17.3699 17.64 17.0766 17.5533 16.8766 17.38C16.6899 17.2067 16.5966 16.9667 16.5966 16.66C16.5966 16.3533 16.6899 16.1133 16.8766 15.94C17.0766 15.7533 17.3699 15.66 17.7566 15.66H21.8766C22.2632 15.66 22.5499 15.7533 22.7366 15.94C22.9366 16.1133 23.0366 16.3533 23.0366 16.66C23.0366 16.9667 22.9366 17.2067 22.7366 17.38C22.5499 17.5533 22.2632 17.64 21.8766 17.64H17.7566ZM32.3084 14.76C33.1484 14.9733 33.7884 15.38 34.2284 15.98C34.6818 16.5667 34.9084 17.3 34.9084 18.18C34.9084 19.3933 34.4618 20.36 33.5684 21.08C32.6751 21.8 31.4684 22.16 29.9484 22.16C29.0818 22.16 28.2484 22.0267 27.4484 21.76C26.6484 21.4933 25.9684 21.12 25.4084 20.64C25.1018 20.3733 24.9484 20.06 24.9484 19.7C24.9484 19.4067 25.0284 19.16 25.1884 18.96C25.3618 18.7467 25.5618 18.64 25.7884 18.64C25.9218 18.64 26.0418 18.6667 26.1484 18.72C26.2551 18.76 26.4018 18.8333 26.5884 18.94C27.1484 19.3133 27.6818 19.6 28.1884 19.8C28.6951 20 29.2484 20.1 29.8484 20.1C30.7284 20.1 31.3818 19.9267 31.8084 19.58C32.2351 19.22 32.4484 18.68 32.4484 17.96C32.4484 17.2533 32.2218 16.7333 31.7684 16.4C31.3284 16.0533 30.6418 15.88 29.7084 15.88H28.5684C28.2618 15.88 28.0218 15.78 27.8484 15.58C27.6884 15.3667 27.6084 15.1267 27.6084 14.86C27.6084 14.58 27.6884 14.34 27.8484 14.14C28.0218 13.94 28.2618 13.84 28.5684 13.84H29.3684C31.1951 13.84 32.1084 13.1533 32.1084 11.78C32.1084 11.14 31.9151 10.6467 31.5284 10.3C31.1418 9.95333 30.6084 9.78 29.9284 9.78C28.9551 9.78 27.9151 10.1667 26.8084 10.94C26.6218 11.0467 26.4751 11.1267 26.3684 11.18C26.2618 11.22 26.1418 11.24 26.0084 11.24C25.7818 11.24 25.5818 11.14 25.4084 10.94C25.2484 10.7267 25.1684 10.4733 25.1684 10.18C25.1684 9.98 25.2018 9.81333 25.2684 9.68C25.3484 9.53333 25.4684 9.38667 25.6284 9.24C26.1884 8.77333 26.8551 8.40667 27.6284 8.14C28.4151 7.86 29.2151 7.72 30.0284 7.72C31.4151 7.72 32.5151 8.06 33.3284 8.74C34.1551 9.42 34.5684 10.3267 34.5684 11.46C34.5551 12.2333 34.3484 12.9133 33.9484 13.5C33.5618 14.0733 33.0151 14.4933 32.3084 14.76Z" fill="#FF8F1F"/>
<path d="M54.6913 14.76C55.5313 14.9733 56.1713 15.38 56.6113 15.98C57.0646 16.5667 57.2913 17.3 57.2913 18.18C57.2913 19.3933 56.8446 20.36 55.9513 21.08C55.0579 21.8 53.8513 22.16 52.3313 22.16C51.4646 22.16 50.6313 22.0267 49.8313 21.76C49.0313 21.4933 48.3513 21.12 47.7913 20.64C47.4846 20.3733 47.3313 20.06 47.3313 19.7C47.3313 19.4067 47.4113 19.16 47.5713 18.96C47.7446 18.7467 47.9446 18.64 48.1713 18.64C48.3046 18.64 48.4246 18.6667 48.5313 18.72C48.6379 18.76 48.7846 18.8333 48.9713 18.94C49.5313 19.3133 50.0646 19.6 50.5713 19.8C51.0779 20 51.6313 20.1 52.2313 20.1C53.1113 20.1 53.7646 19.9267 54.1913 19.58C54.6179 19.22 54.8313 18.68 54.8313 17.96C54.8313 17.2533 54.6046 16.7333 54.1513 16.4C53.7113 16.0533 53.0246 15.88 52.0913 15.88H50.9513C50.6446 15.88 50.4046 15.78 50.2313 15.58C50.0713 15.3667 49.9913 15.1267 49.9913 14.86C49.9913 14.58 50.0713 14.34 50.2313 14.14C50.4046 13.94 50.6446 13.84 50.9513 13.84H51.7513C53.5779 13.84 54.4913 13.1533 54.4913 11.78C54.4913 11.14 54.2979 10.6467 53.9113 10.3C53.5246 9.95333 52.9913 9.78 52.3113 9.78C51.3379 9.78 50.2979 10.1667 49.1913 10.94C49.0046 11.0467 48.8579 11.1267 48.7513 11.18C48.6446 11.22 48.5246 11.24 48.3913 11.24C48.1646 11.24 47.9646 11.14 47.7913 10.94C47.6313 10.7267 47.5513 10.4733 47.5513 10.18C47.5513 9.98 47.5846 9.81333 47.6513 9.68C47.7313 9.53333 47.8513 9.38667 48.0113 9.24C48.5713 8.77333 49.2379 8.40667 50.0113 8.14C50.7979 7.86 51.5979 7.72 52.4112 7.72C53.7979 7.72 54.8979 8.06 55.7113 8.74C56.5379 9.42 56.9513 10.3267 56.9513 11.46C56.9379 12.2333 56.7313 12.9133 56.3313 13.5C55.9446 14.0733 55.3979 14.4933 54.6913 14.76Z" fill="#AA5EE0"/>
</svg>
