<svg width="268" height="166" viewBox="0 0 268 166" fill="none" xmlns="http://www.w3.org/2000/svg">
<path d="M214.485 24.26C213.658 22.9533 213.058 21.58 212.685 20.14C212.325 18.6867 212.145 17.22 212.145 15.74C212.145 14.7533 212.225 13.7733 212.385 12.8C212.545 11.8267 212.798 10.8733 213.145 9.94C213.491 8.99333 213.938 8.08667 214.485 7.22C214.631 6.98 214.825 6.83333 215.065 6.78C215.318 6.71333 215.551 6.72667 215.765 6.82C215.991 6.91333 216.158 7.08667 216.265 7.34C216.371 7.58 216.358 7.88667 216.225 8.26C215.905 9.11333 215.638 9.95333 215.425 10.78C215.225 11.5933 215.071 12.4067 214.965 13.22C214.871 14.0333 214.825 14.8733 214.825 15.74C214.825 16.6067 214.878 17.4467 214.985 18.26C215.091 19.0733 215.251 19.8867 215.465 20.7C215.678 21.5133 215.931 22.3533 216.225 23.22C216.358 23.5933 216.371 23.9 216.265 24.14C216.158 24.3933 215.991 24.5667 215.765 24.66C215.551 24.7533 215.318 24.7667 215.065 24.7C214.825 24.6467 214.631 24.5 214.485 24.26ZM232.125 23.14C231.951 23.3533 231.765 23.4733 231.565 23.5C231.378 23.54 231.211 23.5067 231.065 23.4C230.918 23.2933 230.838 23.14 230.825 22.94C230.811 22.7533 230.898 22.5467 231.085 22.32C231.351 21.9867 231.531 21.6533 231.625 21.32C231.718 20.9867 231.765 20.6867 231.765 20.42L231.865 21.1C231.398 21.1 231.018 20.9667 230.725 20.7C230.445 20.42 230.305 20.0533 230.305 19.6C230.305 19.1733 230.438 18.8267 230.705 18.56C230.971 18.28 231.331 18.14 231.785 18.14C232.251 18.14 232.618 18.3 232.885 18.62C233.151 18.9267 233.285 19.3733 233.285 19.96C233.285 20.28 233.251 20.6133 233.185 20.96C233.131 21.2933 233.018 21.64 232.845 22C232.685 22.3733 232.445 22.7533 232.125 23.14ZM254.508 24.26C254.361 24.5 254.161 24.6467 253.908 24.7C253.668 24.7667 253.434 24.7467 253.208 24.64C252.981 24.5467 252.814 24.38 252.708 24.14C252.614 23.9 252.634 23.5933 252.768 23.22C253.101 22.3533 253.368 21.5133 253.568 20.7C253.768 19.8867 253.914 19.0733 254.008 18.26C254.114 17.4467 254.168 16.6067 254.168 15.74C254.168 14.8733 254.114 14.0333 254.008 13.22C253.901 12.4067 253.741 11.5933 253.528 10.78C253.328 9.96667 253.074 9.12667 252.768 8.26C252.634 7.88667 252.621 7.58 252.728 7.34C252.834 7.08667 253.001 6.91333 253.228 6.82C253.454 6.72667 253.688 6.71333 253.928 6.78C254.168 6.83333 254.361 6.98 254.508 7.22C255.321 8.51333 255.914 9.88667 256.288 11.34C256.661 12.7933 256.848 14.26 256.848 15.74C256.848 16.7267 256.761 17.7067 256.588 18.68C256.428 19.6533 256.174 20.6067 255.828 21.54C255.494 22.4867 255.054 23.3933 254.508 24.26Z" fill="#1A1A1A"/>
<path d="M219.973 21C219.546 21 219.233 20.9067 219.033 20.72C218.846 20.52 218.753 20.2333 218.753 19.86C218.753 19.6333 218.813 19.4133 218.933 19.2C219.053 18.9867 219.226 18.76 219.453 18.52L223.473 14.24C224.086 13.6 224.526 13.02 224.793 12.5C225.059 11.9667 225.193 11.4333 225.193 10.9C225.193 10.2333 224.979 9.72667 224.553 9.38C224.139 9.03333 223.533 8.86 222.733 8.86C222.279 8.86 221.826 8.92667 221.373 9.06C220.919 9.18 220.459 9.39333 219.993 9.7C219.753 9.86 219.526 9.92667 219.313 9.9C219.113 9.87333 218.933 9.78667 218.773 9.64C218.626 9.49333 218.526 9.31333 218.473 9.1C218.419 8.88667 218.426 8.67333 218.493 8.46C218.573 8.23333 218.733 8.04 218.973 7.88C219.546 7.49333 220.186 7.2 220.893 7C221.613 6.8 222.333 6.7 223.053 6.7C224.066 6.7 224.919 6.85333 225.613 7.16C226.306 7.46667 226.833 7.91333 227.193 8.5C227.553 9.08667 227.733 9.8 227.733 10.64C227.733 11.2 227.639 11.7467 227.453 12.28C227.279 12.8133 227.006 13.3533 226.633 13.9C226.273 14.4467 225.799 15.0267 225.213 15.64L221.453 19.56V18.88H227.333C227.693 18.88 227.966 18.9667 228.153 19.14C228.339 19.3133 228.433 19.5733 228.433 19.92C228.433 20.2667 228.339 20.5333 228.153 20.72C227.966 20.9067 227.693 21 227.333 21H219.973Z" fill="#FF8F1F"/>
<path d="M242.355 21C241.929 21 241.615 20.9067 241.415 20.72C241.229 20.52 241.135 20.2333 241.135 19.86C241.135 19.6333 241.195 19.4133 241.315 19.2C241.435 18.9867 241.609 18.76 241.835 18.52L245.855 14.24C246.469 13.6 246.909 13.02 247.175 12.5C247.442 11.9667 247.575 11.4333 247.575 10.9C247.575 10.2333 247.362 9.72667 246.935 9.38C246.522 9.03333 245.915 8.86 245.115 8.86C244.662 8.86 244.209 8.92667 243.755 9.06C243.302 9.18 242.842 9.39333 242.375 9.7C242.135 9.86 241.909 9.92667 241.695 9.9C241.495 9.87333 241.315 9.78667 241.155 9.64C241.009 9.49333 240.909 9.31333 240.855 9.1C240.802 8.88667 240.809 8.67333 240.875 8.46C240.955 8.23333 241.115 8.04 241.355 7.88C241.929 7.49333 242.569 7.2 243.275 7C243.995 6.8 244.715 6.7 245.435 6.7C246.449 6.7 247.302 6.85333 247.995 7.16C248.689 7.46667 249.215 7.91333 249.575 8.5C249.935 9.08667 250.115 9.8 250.115 10.64C250.115 11.2 250.022 11.7467 249.835 12.28C249.662 12.8133 249.389 13.3533 249.015 13.9C248.655 14.4467 248.182 15.0267 247.595 15.64L243.835 19.56V18.88H249.715C250.075 18.88 250.349 18.9667 250.535 19.14C250.722 19.3133 250.815 19.5733 250.815 19.92C250.815 20.2667 250.722 20.5333 250.535 20.72C250.349 20.9067 250.075 21 249.715 21H242.355Z" fill="#AA5EE0"/>
<path d="M214.649 161.26C213.822 159.953 213.222 158.58 212.849 157.14C212.489 155.687 212.309 154.22 212.309 152.74C212.309 151.753 212.389 150.773 212.549 149.8C212.709 148.827 212.962 147.873 213.309 146.94C213.655 145.993 214.102 145.087 214.649 144.22C214.795 143.98 214.989 143.833 215.229 143.78C215.482 143.713 215.715 143.727 215.929 143.82C216.155 143.913 216.322 144.087 216.429 144.34C216.535 144.58 216.522 144.887 216.389 145.26C216.069 146.113 215.802 146.953 215.589 147.78C215.389 148.593 215.235 149.407 215.129 150.22C215.035 151.033 214.989 151.873 214.989 152.74C214.989 153.607 215.042 154.447 215.149 155.26C215.255 156.073 215.415 156.887 215.629 157.7C215.842 158.513 216.095 159.353 216.389 160.22C216.522 160.593 216.535 160.9 216.429 161.14C216.322 161.393 216.155 161.567 215.929 161.66C215.715 161.753 215.482 161.767 215.229 161.7C214.989 161.647 214.795 161.5 214.649 161.26ZM232.289 160.14C232.115 160.353 231.929 160.473 231.729 160.5C231.542 160.54 231.375 160.507 231.229 160.4C231.082 160.293 231.002 160.14 230.989 159.94C230.975 159.753 231.062 159.547 231.249 159.32C231.515 158.987 231.695 158.653 231.789 158.32C231.882 157.987 231.929 157.687 231.929 157.42L232.029 158.1C231.562 158.1 231.182 157.967 230.889 157.7C230.609 157.42 230.469 157.053 230.469 156.6C230.469 156.173 230.602 155.827 230.869 155.56C231.135 155.28 231.495 155.14 231.949 155.14C232.415 155.14 232.782 155.3 233.049 155.62C233.315 155.927 233.449 156.373 233.449 156.96C233.449 157.28 233.415 157.613 233.349 157.96C233.295 158.293 233.182 158.64 233.009 159C232.849 159.373 232.609 159.753 232.289 160.14ZM263.343 161.26C263.197 161.5 262.997 161.647 262.743 161.7C262.503 161.767 262.27 161.747 262.043 161.64C261.817 161.547 261.65 161.38 261.543 161.14C261.45 160.9 261.47 160.593 261.603 160.22C261.937 159.353 262.203 158.513 262.403 157.7C262.603 156.887 262.75 156.073 262.843 155.26C262.95 154.447 263.003 153.607 263.003 152.74C263.003 151.873 262.95 151.033 262.843 150.22C262.737 149.407 262.577 148.593 262.363 147.78C262.163 146.967 261.91 146.127 261.603 145.26C261.47 144.887 261.457 144.58 261.563 144.34C261.67 144.087 261.837 143.913 262.063 143.82C262.29 143.727 262.523 143.713 262.763 143.78C263.003 143.833 263.197 143.98 263.343 144.22C264.157 145.513 264.75 146.887 265.123 148.34C265.497 149.793 265.683 151.26 265.683 152.74C265.683 153.727 265.597 154.707 265.423 155.68C265.263 156.653 265.01 157.607 264.663 158.54C264.33 159.487 263.89 160.393 263.343 161.26Z" fill="#1A1A1A"/>
<path d="M220.137 158C219.71 158 219.397 157.907 219.197 157.72C219.01 157.52 218.917 157.233 218.917 156.86C218.917 156.633 218.977 156.413 219.097 156.2C219.217 155.987 219.39 155.76 219.617 155.52L223.637 151.24C224.25 150.6 224.69 150.02 224.957 149.5C225.223 148.967 225.357 148.433 225.357 147.9C225.357 147.233 225.143 146.727 224.717 146.38C224.303 146.033 223.697 145.86 222.897 145.86C222.443 145.86 221.99 145.927 221.537 146.06C221.083 146.18 220.623 146.393 220.157 146.7C219.917 146.86 219.69 146.927 219.477 146.9C219.277 146.873 219.097 146.787 218.937 146.64C218.79 146.493 218.69 146.313 218.637 146.1C218.583 145.887 218.59 145.673 218.657 145.46C218.737 145.233 218.897 145.04 219.137 144.88C219.71 144.493 220.35 144.2 221.057 144C221.777 143.8 222.497 143.7 223.217 143.7C224.23 143.7 225.083 143.853 225.777 144.16C226.47 144.467 226.997 144.913 227.357 145.5C227.717 146.087 227.897 146.8 227.897 147.64C227.897 148.2 227.803 148.747 227.617 149.28C227.443 149.813 227.17 150.353 226.797 150.9C226.437 151.447 225.963 152.027 225.377 152.64L221.617 156.56V155.88H227.497C227.857 155.88 228.13 155.967 228.317 156.14C228.503 156.313 228.597 156.573 228.597 156.92C228.597 157.267 228.503 157.533 228.317 157.72C228.13 157.907 227.857 158 227.497 158H220.137Z" fill="#FF8F1F"/>
<path d="M242.079 153.64C241.786 153.64 241.539 153.547 241.339 153.36C241.153 153.16 241.059 152.92 241.059 152.64C241.059 152.347 241.153 152.107 241.339 151.92C241.539 151.733 241.786 151.64 242.079 151.64H246.339C246.619 151.64 246.853 151.733 247.039 151.92C247.239 152.107 247.339 152.347 247.339 152.64C247.339 152.92 247.239 153.16 247.039 153.36C246.853 153.547 246.619 153.64 246.339 153.64H242.079ZM251.191 158C250.765 158 250.451 157.907 250.251 157.72C250.065 157.52 249.971 157.233 249.971 156.86C249.971 156.633 250.031 156.413 250.151 156.2C250.271 155.987 250.445 155.76 250.671 155.52L254.691 151.24C255.305 150.6 255.745 150.02 256.011 149.5C256.278 148.967 256.411 148.433 256.411 147.9C256.411 147.233 256.198 146.727 255.771 146.38C255.358 146.033 254.751 145.86 253.951 145.86C253.498 145.86 253.045 145.927 252.591 146.06C252.138 146.18 251.678 146.393 251.211 146.7C250.971 146.86 250.745 146.927 250.531 146.9C250.331 146.873 250.151 146.787 249.991 146.64C249.845 146.493 249.745 146.313 249.691 146.1C249.638 145.887 249.645 145.673 249.711 145.46C249.791 145.233 249.951 145.04 250.191 144.88C250.765 144.493 251.405 144.2 252.111 144C252.831 143.8 253.551 143.7 254.271 143.7C255.285 143.7 256.138 143.853 256.831 144.16C257.525 144.467 258.051 144.913 258.411 145.5C258.771 146.087 258.951 146.8 258.951 147.64C258.951 148.2 258.858 148.747 258.671 149.28C258.498 149.813 258.225 150.353 257.851 150.9C257.491 151.447 257.018 152.027 256.431 152.64L252.671 156.56V155.88H258.551C258.911 155.88 259.185 155.967 259.371 156.14C259.558 156.313 259.651 156.573 259.651 156.92C259.651 157.267 259.558 157.533 259.371 157.72C259.185 157.907 258.911 158 258.551 158H251.191Z" fill="#AA5EE0"/>
<path d="M7.47672 161.26C6.65005 159.953 6.05005 158.58 5.67672 157.14C5.31672 155.687 5.13672 154.22 5.13672 152.74C5.13672 151.753 5.21672 150.773 5.37672 149.8C5.53672 148.827 5.79005 147.873 6.13672 146.94C6.48339 145.993 6.93005 145.087 7.47672 144.22C7.62339 143.98 7.81672 143.833 8.05672 143.78C8.31005 143.713 8.54339 143.727 8.75672 143.82C8.98339 143.913 9.15005 144.087 9.25672 144.34C9.36339 144.58 9.35005 144.887 9.21672 145.26C8.89672 146.113 8.63005 146.953 8.41672 147.78C8.21672 148.593 8.06339 149.407 7.95672 150.22C7.86339 151.033 7.81672 151.873 7.81672 152.74C7.81672 153.607 7.87005 154.447 7.97672 155.26C8.08339 156.073 8.24339 156.887 8.45672 157.7C8.67005 158.513 8.92339 159.353 9.21672 160.22C9.35005 160.593 9.36339 160.9 9.25672 161.14C9.15005 161.393 8.98339 161.567 8.75672 161.66C8.54339 161.753 8.31005 161.767 8.05672 161.7C7.81672 161.647 7.62339 161.5 7.47672 161.26ZM33.7888 160.14C33.6154 160.353 33.4288 160.473 33.2288 160.5C33.0421 160.54 32.8754 160.507 32.7288 160.4C32.5821 160.293 32.5021 160.14 32.4888 159.94C32.4754 159.753 32.5621 159.547 32.7488 159.32C33.0154 158.987 33.1954 158.653 33.2888 158.32C33.3821 157.987 33.4288 157.687 33.4288 157.42L33.5288 158.1C33.0621 158.1 32.6821 157.967 32.3888 157.7C32.1088 157.42 31.9688 157.053 31.9688 156.6C31.9688 156.173 32.1021 155.827 32.3688 155.56C32.6354 155.28 32.9954 155.14 33.4488 155.14C33.9154 155.14 34.2821 155.3 34.5488 155.62C34.8154 155.927 34.9488 156.373 34.9488 156.96C34.9488 157.28 34.9154 157.613 34.8488 157.96C34.7954 158.293 34.6821 158.64 34.5088 159C34.3488 159.373 34.1088 159.753 33.7888 160.14ZM58.5153 161.26C58.3686 161.5 58.1686 161.647 57.9153 161.7C57.6753 161.767 57.442 161.747 57.2153 161.64C56.9886 161.547 56.822 161.38 56.7153 161.14C56.622 160.9 56.642 160.593 56.7753 160.22C57.1086 159.353 57.3753 158.513 57.5753 157.7C57.7753 156.887 57.922 156.073 58.0153 155.26C58.122 154.447 58.1753 153.607 58.1753 152.74C58.1753 151.873 58.122 151.033 58.0153 150.22C57.9086 149.407 57.7486 148.593 57.5353 147.78C57.3353 146.967 57.082 146.127 56.7753 145.26C56.642 144.887 56.6286 144.58 56.7353 144.34C56.842 144.087 57.0086 143.913 57.2353 143.82C57.462 143.727 57.6953 143.713 57.9353 143.78C58.1753 143.833 58.3686 143.98 58.5153 144.22C59.3286 145.513 59.922 146.887 60.2953 148.34C60.6686 149.793 60.8553 151.26 60.8553 152.74C60.8553 153.727 60.7686 154.707 60.5953 155.68C60.4353 156.653 60.182 157.607 59.8353 158.54C59.502 159.487 59.062 160.393 58.5153 161.26Z" fill="#1A1A1A"/>
<path d="M12.5247 153.64C12.2314 153.64 11.9847 153.547 11.7847 153.36C11.598 153.16 11.5047 152.92 11.5047 152.64C11.5047 152.347 11.598 152.107 11.7847 151.92C11.9847 151.733 12.2314 151.64 12.5247 151.64H16.7847C17.0647 151.64 17.298 151.733 17.4847 151.92C17.6847 152.107 17.7847 152.347 17.7847 152.64C17.7847 152.92 17.6847 153.16 17.4847 153.36C17.298 153.547 17.0647 153.64 16.7847 153.64H12.5247ZM21.6366 158C21.2099 158 20.8966 157.907 20.6966 157.72C20.5099 157.52 20.4166 157.233 20.4166 156.86C20.4166 156.633 20.4766 156.413 20.5966 156.2C20.7166 155.987 20.8899 155.76 21.1166 155.52L25.1366 151.24C25.7499 150.6 26.1899 150.02 26.4566 149.5C26.7232 148.967 26.8566 148.433 26.8566 147.9C26.8566 147.233 26.6432 146.727 26.2166 146.38C25.8032 146.033 25.1966 145.86 24.3966 145.86C23.9432 145.86 23.4899 145.927 23.0366 146.06C22.5832 146.18 22.1232 146.393 21.6566 146.7C21.4166 146.86 21.1899 146.927 20.9766 146.9C20.7766 146.873 20.5966 146.787 20.4366 146.64C20.2899 146.493 20.1899 146.313 20.1366 146.1C20.0832 145.887 20.0899 145.673 20.1566 145.46C20.2366 145.233 20.3966 145.04 20.6366 144.88C21.2099 144.493 21.8499 144.2 22.5566 144C23.2766 143.8 23.9966 143.7 24.7166 143.7C25.7299 143.7 26.5832 143.853 27.2766 144.16C27.9699 144.467 28.4966 144.913 28.8566 145.5C29.2166 146.087 29.3966 146.8 29.3966 147.64C29.3966 148.2 29.3032 148.747 29.1166 149.28C28.9432 149.813 28.6699 150.353 28.2966 150.9C27.9366 151.447 27.4632 152.027 26.8766 152.64L23.1166 156.56V155.88H28.9966C29.3566 155.88 29.6299 155.967 29.8166 156.14C30.0032 156.313 30.0966 156.573 30.0966 156.92C30.0966 157.267 30.0032 157.533 29.8166 157.72C29.6299 157.907 29.3566 158 28.9966 158H21.6366Z" fill="#FF8F1F"/>
<path d="M37.2513 153.64C36.9579 153.64 36.7113 153.547 36.5113 153.36C36.3246 153.16 36.2313 152.92 36.2313 152.64C36.2313 152.347 36.3246 152.107 36.5113 151.92C36.7113 151.733 36.9579 151.64 37.2513 151.64H41.5113C41.7913 151.64 42.0246 151.733 42.2113 151.92C42.4113 152.107 42.5113 152.347 42.5113 152.64C42.5113 152.92 42.4113 153.16 42.2113 153.36C42.0246 153.547 41.7913 153.64 41.5113 153.64H37.2513ZM46.3631 158C45.9365 158 45.6231 157.907 45.4231 157.72C45.2365 157.52 45.1431 157.233 45.1431 156.86C45.1431 156.633 45.2031 156.413 45.3231 156.2C45.4431 155.987 45.6165 155.76 45.8431 155.52L49.8631 151.24C50.4765 150.6 50.9165 150.02 51.1831 149.5C51.4498 148.967 51.5831 148.433 51.5831 147.9C51.5831 147.233 51.3698 146.727 50.9431 146.38C50.5298 146.033 49.9231 145.86 49.1231 145.86C48.6698 145.86 48.2165 145.927 47.7631 146.06C47.3098 146.18 46.8498 146.393 46.3831 146.7C46.1431 146.86 45.9165 146.927 45.7031 146.9C45.5031 146.873 45.3231 146.787 45.1631 146.64C45.0165 146.493 44.9165 146.313 44.8631 146.1C44.8098 145.887 44.8165 145.673 44.8831 145.46C44.9631 145.233 45.1231 145.04 45.3631 144.88C45.9365 144.493 46.5765 144.2 47.2831 144C48.0031 143.8 48.7231 143.7 49.4431 143.7C50.4565 143.7 51.3098 143.853 52.0031 144.16C52.6965 144.467 53.2231 144.913 53.5831 145.5C53.9431 146.087 54.1231 146.8 54.1231 147.64C54.1231 148.2 54.0298 148.747 53.8431 149.28C53.6698 149.813 53.3965 150.353 53.0231 150.9C52.6631 151.447 52.1898 152.027 51.6031 152.64L47.8431 156.56V155.88H53.7231C54.0831 155.88 54.3565 155.967 54.5431 156.14C54.7298 156.313 54.8231 156.573 54.8231 156.92C54.8231 157.267 54.7298 157.533 54.5431 157.72C54.3565 157.907 54.0831 158 53.7231 158H46.3631Z" fill="#AA5EE0"/>
<path d="M10.6486 24.26C9.82193 22.9533 9.22193 21.58 8.84859 20.14C8.48859 18.6867 8.30859 17.22 8.30859 15.74C8.30859 14.7533 8.38859 13.7733 8.54859 12.8C8.70859 11.8267 8.96193 10.8733 9.30859 9.94C9.65526 8.99333 10.1019 8.08667 10.6486 7.22C10.7953 6.98 10.9886 6.83333 11.2286 6.78C11.4819 6.71333 11.7153 6.72667 11.9286 6.82C12.1553 6.91333 12.3219 7.08667 12.4286 7.34C12.5353 7.58 12.5219 7.88667 12.3886 8.26C12.0686 9.11333 11.8019 9.95333 11.5886 10.78C11.3886 11.5933 11.2353 12.4067 11.1286 13.22C11.0353 14.0333 10.9886 14.8733 10.9886 15.74C10.9886 16.6067 11.0419 17.4467 11.1486 18.26C11.2553 19.0733 11.4153 19.8867 11.6286 20.7C11.8419 21.5133 12.0953 22.3533 12.3886 23.22C12.5219 23.5933 12.5353 23.9 12.4286 24.14C12.3219 24.3933 12.1553 24.5667 11.9286 24.66C11.7153 24.7533 11.4819 24.7667 11.2286 24.7C10.9886 24.6467 10.7953 24.5 10.6486 24.26ZM36.9606 23.14C36.7873 23.3533 36.6006 23.4733 36.4006 23.5C36.214 23.54 36.0473 23.5067 35.9006 23.4C35.754 23.2933 35.674 23.14 35.6606 22.94C35.6473 22.7533 35.734 22.5467 35.9206 22.32C36.1873 21.9867 36.3673 21.6533 36.4606 21.32C36.554 20.9867 36.6006 20.6867 36.6006 20.42L36.7006 21.1C36.234 21.1 35.854 20.9667 35.5606 20.7C35.2806 20.42 35.1406 20.0533 35.1406 19.6C35.1406 19.1733 35.274 18.8267 35.5406 18.56C35.8073 18.28 36.1673 18.14 36.6206 18.14C37.0873 18.14 37.454 18.3 37.7206 18.62C37.9873 18.9267 38.1206 19.3733 38.1206 19.96C38.1206 20.28 38.0873 20.6133 38.0206 20.96C37.9673 21.2933 37.854 21.64 37.6806 22C37.5206 22.3733 37.2806 22.7533 36.9606 23.14ZM59.3434 24.26C59.1968 24.5 58.9968 24.6467 58.7434 24.7C58.5034 24.7667 58.2701 24.7467 58.0434 24.64C57.8168 24.5467 57.6501 24.38 57.5434 24.14C57.4501 23.9 57.4701 23.5933 57.6034 23.22C57.9368 22.3533 58.2034 21.5133 58.4034 20.7C58.6034 19.8867 58.7501 19.0733 58.8434 18.26C58.9501 17.4467 59.0034 16.6067 59.0034 15.74C59.0034 14.8733 58.9501 14.0333 58.8434 13.22C58.7368 12.4067 58.5768 11.5933 58.3634 10.78C58.1634 9.96667 57.9101 9.12667 57.6034 8.26C57.4701 7.88667 57.4568 7.58 57.5634 7.34C57.6701 7.08667 57.8368 6.91333 58.0634 6.82C58.2901 6.72667 58.5234 6.71333 58.7634 6.78C59.0034 6.83333 59.1968 6.98 59.3434 7.22C60.1568 8.51333 60.7501 9.88667 61.1234 11.34C61.4968 12.7933 61.6834 14.26 61.6834 15.74C61.6834 16.7267 61.5968 17.7067 61.4234 18.68C61.2634 19.6533 61.0101 20.6067 60.6634 21.54C60.3301 22.4867 59.8901 23.3933 59.3434 24.26Z" fill="#1A1A1A"/>
<path d="M15.6966 16.64C15.4032 16.64 15.1566 16.5467 14.9566 16.36C14.7699 16.16 14.6766 15.92 14.6766 15.64C14.6766 15.3467 14.7699 15.1067 14.9566 14.92C15.1566 14.7333 15.4032 14.64 15.6966 14.64H19.9566C20.2366 14.64 20.4699 14.7333 20.6566 14.92C20.8566 15.1067 20.9566 15.3467 20.9566 15.64C20.9566 15.92 20.8566 16.16 20.6566 16.36C20.4699 16.5467 20.2366 16.64 19.9566 16.64H15.6966ZM24.8084 21C24.3818 21 24.0684 20.9067 23.8684 20.72C23.6818 20.52 23.5884 20.2333 23.5884 19.86C23.5884 19.6333 23.6484 19.4133 23.7684 19.2C23.8884 18.9867 24.0618 18.76 24.2884 18.52L28.3084 14.24C28.9218 13.6 29.3618 13.02 29.6284 12.5C29.8951 11.9667 30.0284 11.4333 30.0284 10.9C30.0284 10.2333 29.8151 9.72667 29.3884 9.38C28.9751 9.03333 28.3684 8.86 27.5684 8.86C27.1151 8.86 26.6618 8.92667 26.2084 9.06C25.7551 9.18 25.2951 9.39333 24.8284 9.7C24.5884 9.86 24.3618 9.92667 24.1484 9.9C23.9484 9.87333 23.7684 9.78667 23.6084 9.64C23.4618 9.49333 23.3618 9.31333 23.3084 9.1C23.2551 8.88667 23.2618 8.67333 23.3284 8.46C23.4084 8.23333 23.5684 8.04 23.8084 7.88C24.3818 7.49333 25.0218 7.2 25.7284 7C26.4484 6.8 27.1684 6.7 27.8884 6.7C28.9018 6.7 29.7551 6.85333 30.4484 7.16C31.1418 7.46667 31.6684 7.91333 32.0284 8.5C32.3884 9.08667 32.5684 9.8 32.5684 10.64C32.5684 11.2 32.4751 11.7467 32.2884 12.28C32.1151 12.8133 31.8418 13.3533 31.4684 13.9C31.1084 14.4467 30.6351 15.0267 30.0484 15.64L26.2884 19.56V18.88H32.1684C32.5284 18.88 32.8018 18.9667 32.9884 19.14C33.1751 19.3133 33.2684 19.5733 33.2684 19.92C33.2684 20.2667 33.1751 20.5333 32.9884 20.72C32.8018 20.9067 32.5284 21 32.1684 21H24.8084Z" fill="#FF8F1F"/>
<path d="M47.1913 21C46.7646 21 46.4513 20.9067 46.2513 20.72C46.0646 20.52 45.9713 20.2333 45.9713 19.86C45.9713 19.6333 46.0313 19.4133 46.1513 19.2C46.2713 18.9867 46.4446 18.76 46.6713 18.52L50.6913 14.24C51.3046 13.6 51.7446 13.02 52.0113 12.5C52.2779 11.9667 52.4113 11.4333 52.4113 10.9C52.4113 10.2333 52.1979 9.72667 51.7713 9.38C51.3579 9.03333 50.7513 8.86 49.9513 8.86C49.4979 8.86 49.0446 8.92667 48.5913 9.06C48.1379 9.18 47.6779 9.39333 47.2113 9.7C46.9713 9.86 46.7446 9.92667 46.5313 9.9C46.3313 9.87333 46.1513 9.78667 45.9913 9.64C45.8446 9.49333 45.7446 9.31333 45.6913 9.1C45.6379 8.88667 45.6446 8.67333 45.7113 8.46C45.7913 8.23333 45.9513 8.04 46.1913 7.88C46.7646 7.49333 47.4046 7.2 48.1113 7C48.8313 6.8 49.5513 6.7 50.2713 6.7C51.2846 6.7 52.1379 6.85333 52.8313 7.16C53.5246 7.46667 54.0513 7.91333 54.4113 8.5C54.7713 9.08667 54.9513 9.8 54.9513 10.64C54.9513 11.2 54.8579 11.7467 54.6713 12.28C54.4979 12.8133 54.2246 13.3533 53.8513 13.9C53.4913 14.4467 53.0179 15.0267 52.4313 15.64L48.6713 19.56V18.88H54.5513C54.9113 18.88 55.1846 18.9667 55.3713 19.14C55.5579 19.3133 55.6513 19.5733 55.6513 19.92C55.6513 20.2667 55.5579 20.5333 55.3713 20.72C55.1846 20.9067 54.9113 21 54.5513 21H47.1913Z" fill="#AA5EE0"/>
</svg>


