<svg width="680" height="28" viewBox="0 0 680 28" fill="none" xmlns="http://www.w3.org/2000/svg">
<path d="M8.16758 21.2C7.58091 21.2 6.99425 21.1533 6.40758 21.06C5.82091 20.98 5.26758 20.8533 4.74758 20.68C4.22758 20.4933 3.76091 20.2667 3.34758 20C3.10758 19.84 2.94091 19.6467 2.84758 19.42C2.75424 19.1933 2.72091 18.9733 2.74758 18.76C2.78758 18.5333 2.87424 18.34 3.00758 18.18C3.15424 18.0067 3.33424 17.9 3.54758 17.86C3.76091 17.82 3.99424 17.88 4.24758 18.04C4.83424 18.3867 5.45425 18.64 6.10758 18.8C6.76091 18.96 7.44758 19.04 8.16758 19.04C9.22091 19.04 9.98758 18.8667 10.4676 18.52C10.9476 18.16 11.1876 17.7 11.1876 17.14C11.1876 16.6733 11.0142 16.3067 10.6676 16.04C10.3342 15.7733 9.75425 15.5533 8.92758 15.38L6.72758 14.92C5.46091 14.6533 4.51424 14.2067 3.88758 13.58C3.27424 12.94 2.96758 12.1 2.96758 11.06C2.96758 10.4067 3.10091 9.81333 3.36758 9.28C3.63424 8.74667 4.00758 8.28667 4.48758 7.9C4.98091 7.51333 5.56091 7.22 6.22758 7.02C6.90758 6.80667 7.65425 6.7 8.46758 6.7C9.26758 6.7 10.0276 6.8 10.7476 7C11.4676 7.2 12.1142 7.49333 12.6876 7.88C12.9009 8.02667 13.0409 8.20667 13.1076 8.42C13.1876 8.63333 13.2076 8.84667 13.1676 9.06C13.1276 9.26 13.0342 9.43333 12.8876 9.58C12.7409 9.72667 12.5542 9.81333 12.3276 9.84C12.1142 9.86667 11.8676 9.8 11.5876 9.64C11.0942 9.36 10.5942 9.16 10.0876 9.04C9.58091 8.92 9.03425 8.86 8.44758 8.86C7.83425 8.86 7.30758 8.94667 6.86758 9.12C6.42758 9.29333 6.08758 9.54 5.84758 9.86C5.62091 10.1667 5.50758 10.5333 5.50758 10.96C5.50758 11.44 5.66758 11.8267 5.98758 12.12C6.30758 12.4 6.85425 12.62 7.62758 12.78L9.80758 13.24C11.1276 13.52 12.1076 13.96 12.7476 14.56C13.4009 15.16 13.7276 15.96 13.7276 16.96C13.7276 17.6 13.5942 18.18 13.3276 18.7C13.0742 19.22 12.7009 19.6667 12.2076 20.04C11.7276 20.4133 11.1476 20.7 10.4676 20.9C9.78758 21.1 9.02091 21.2 8.16758 21.2ZM20.5048 21.2C19.3981 21.2 18.4448 20.9933 17.6448 20.58C16.8448 20.1667 16.2248 19.58 15.7848 18.82C15.3581 18.06 15.1448 17.16 15.1448 16.12C15.1448 15.1067 15.3514 14.22 15.7648 13.46C16.1914 12.7 16.7714 12.1067 17.5048 11.68C18.2514 11.24 19.0981 11.02 20.0448 11.02C20.7381 11.02 21.3581 11.1333 21.9048 11.36C22.4648 11.5867 22.9381 11.9133 23.3248 12.34C23.7248 12.7667 24.0248 13.2867 24.2248 13.9C24.4381 14.5 24.5448 15.18 24.5448 15.94C24.5448 16.18 24.4581 16.3667 24.2848 16.5C24.1248 16.62 23.8914 16.68 23.5848 16.68H17.1648V15.24H22.7848L22.4648 15.54C22.4648 14.9267 22.3714 14.4133 22.1848 14C22.0114 13.5867 21.7514 13.2733 21.4048 13.06C21.0714 12.8333 20.6514 12.72 20.1448 12.72C19.5848 12.72 19.1048 12.8533 18.7048 13.12C18.3181 13.3733 18.0181 13.74 17.8048 14.22C17.6048 14.6867 17.5048 15.2467 17.5048 15.9V16.04C17.5048 17.1333 17.7581 17.9533 18.2648 18.5C18.7848 19.0333 19.5448 19.3 20.5448 19.3C20.8914 19.3 21.2781 19.26 21.7048 19.18C22.1448 19.0867 22.5581 18.9333 22.9448 18.72C23.2248 18.56 23.4714 18.4933 23.6848 18.52C23.8981 18.5333 24.0648 18.6067 24.1848 18.74C24.3181 18.8733 24.3981 19.04 24.4248 19.24C24.4514 19.4267 24.4114 19.62 24.3048 19.82C24.2114 20.02 24.0448 20.1933 23.8048 20.34C23.3381 20.6333 22.7981 20.8533 22.1848 21C21.5848 21.1333 21.0248 21.2 20.5048 21.2ZM30.9655 21.2C30.0989 21.2 29.3722 21.0533 28.7855 20.76C28.2122 20.4667 27.7855 20.04 27.5055 19.48C27.2255 18.9067 27.0855 18.2 27.0855 17.36V13.1H26.0455C25.7255 13.1 25.4789 13.02 25.3055 12.86C25.1322 12.6867 25.0455 12.4533 25.0455 12.16C25.0455 11.8533 25.1322 11.62 25.3055 11.46C25.4789 11.3 25.7255 11.22 26.0455 11.22H27.0855V9.4C27.0855 8.98667 27.1922 8.67333 27.4055 8.46C27.6322 8.24667 27.9455 8.14 28.3455 8.14C28.7455 8.14 29.0522 8.24667 29.2655 8.46C29.4789 8.67333 29.5855 8.98667 29.5855 9.4V11.22H31.7055C32.0255 11.22 32.2722 11.3 32.4455 11.46C32.6189 11.62 32.7055 11.8533 32.7055 12.16C32.7055 12.4533 32.6189 12.6867 32.4455 12.86C32.2722 13.02 32.0255 13.1 31.7055 13.1H29.5855V17.22C29.5855 17.86 29.7255 18.34 30.0055 18.66C30.2855 18.98 30.7389 19.14 31.3655 19.14C31.5922 19.14 31.7922 19.12 31.9655 19.08C32.1389 19.04 32.2922 19.0133 32.4255 19C32.5855 18.9867 32.7189 19.04 32.8255 19.16C32.9322 19.2667 32.9855 19.4933 32.9855 19.84C32.9855 20.1067 32.9389 20.3467 32.8455 20.56C32.7655 20.76 32.6122 20.9 32.3855 20.98C32.2122 21.0333 31.9855 21.08 31.7055 21.12C31.4255 21.1733 31.1789 21.2 30.9655 21.2ZM44.071 21.2C43.2043 21.2 42.4777 21.0533 41.891 20.76C41.3177 20.4667 40.891 20.04 40.611 19.48C40.331 18.9067 40.191 18.2 40.191 17.36V13.1H39.151C38.831 13.1 38.5843 13.02 38.411 12.86C38.2377 12.6867 38.151 12.4533 38.151 12.16C38.151 11.8533 38.2377 11.62 38.411 11.46C38.5843 11.3 38.831 11.22 39.151 11.22H40.191V9.4C40.191 8.98667 40.2977 8.67333 40.511 8.46C40.7377 8.24667 41.051 8.14 41.451 8.14C41.851 8.14 42.1577 8.24667 42.371 8.46C42.5843 8.67333 42.691 8.98667 42.691 9.4V11.22H44.811C45.131 11.22 45.3777 11.3 45.551 11.46C45.7243 11.62 45.811 11.8533 45.811 12.16C45.811 12.4533 45.7243 12.6867 45.551 12.86C45.3777 13.02 45.131 13.1 44.811 13.1H42.691V17.22C42.691 17.86 42.831 18.34 43.111 18.66C43.391 18.98 43.8443 19.14 44.471 19.14C44.6977 19.14 44.8977 19.12 45.071 19.08C45.2443 19.04 45.3977 19.0133 45.531 19C45.691 18.9867 45.8243 19.04 45.931 19.16C46.0377 19.2667 46.091 19.4933 46.091 19.84C46.091 20.1067 46.0443 20.3467 45.951 20.56C45.871 20.76 45.7177 20.9 45.491 20.98C45.3177 21.0333 45.091 21.08 44.811 21.12C44.531 21.1733 44.2843 21.2 44.071 21.2ZM48.7607 21.16C48.3607 21.16 48.054 21.0533 47.8407 20.84C47.6274 20.6133 47.5207 20.2933 47.5207 19.88V8C47.5207 7.58667 47.6274 7.27333 47.8407 7.06C48.054 6.84667 48.3607 6.74 48.7607 6.74C49.1607 6.74 49.4674 6.84667 49.6807 7.06C49.9074 7.27333 50.0207 7.58667 50.0207 8V13.18H49.7407C50.034 12.4733 50.4874 11.94 51.1007 11.58C51.7274 11.2067 52.434 11.02 53.2207 11.02C54.0074 11.02 54.654 11.1667 55.1607 11.46C55.6674 11.7533 56.0474 12.2 56.3007 12.8C56.554 13.3867 56.6807 14.1333 56.6807 15.04V19.88C56.6807 20.2933 56.574 20.6133 56.3607 20.84C56.1474 21.0533 55.8407 21.16 55.4407 21.16C55.0407 21.16 54.7274 21.0533 54.5007 20.84C54.2874 20.6133 54.1807 20.2933 54.1807 19.88V15.16C54.1807 14.4 54.034 13.8467 53.7407 13.5C53.4607 13.1533 53.0207 12.98 52.4207 12.98C51.6874 12.98 51.1007 13.2133 50.6607 13.68C50.234 14.1333 50.0207 14.74 50.0207 15.5V19.88C50.0207 20.7333 49.6007 21.16 48.7607 21.16ZM64.0399 21.2C62.9333 21.2 61.9799 20.9933 61.1799 20.58C60.3799 20.1667 59.7599 19.58 59.3199 18.82C58.8933 18.06 58.6799 17.16 58.6799 16.12C58.6799 15.1067 58.8866 14.22 59.2999 13.46C59.7266 12.7 60.3066 12.1067 61.0399 11.68C61.7866 11.24 62.6333 11.02 63.5799 11.02C64.2733 11.02 64.8933 11.1333 65.4399 11.36C65.9999 11.5867 66.4733 11.9133 66.8599 12.34C67.2599 12.7667 67.5599 13.2867 67.7599 13.9C67.9733 14.5 68.0799 15.18 68.0799 15.94C68.0799 16.18 67.9933 16.3667 67.8199 16.5C67.6599 16.62 67.4266 16.68 67.1199 16.68H60.6999V15.24H66.3199L65.9999 15.54C65.9999 14.9267 65.9066 14.4133 65.7199 14C65.5466 13.5867 65.2866 13.2733 64.9399 13.06C64.6066 12.8333 64.1866 12.72 63.6799 12.72C63.1199 12.72 62.6399 12.8533 62.2399 13.12C61.8533 13.3733 61.5533 13.74 61.3399 14.22C61.1399 14.6867 61.0399 15.2467 61.0399 15.9V16.04C61.0399 17.1333 61.2933 17.9533 61.7999 18.5C62.3199 19.0333 63.0799 19.3 64.0799 19.3C64.4266 19.3 64.8133 19.26 65.2399 19.18C65.6799 19.0867 66.0933 18.9333 66.4799 18.72C66.7599 18.56 67.0066 18.4933 67.2199 18.52C67.4333 18.5333 67.5999 18.6067 67.7199 18.74C67.8533 18.8733 67.9333 19.04 67.9599 19.24C67.9866 19.4267 67.9466 19.62 67.8399 19.82C67.7466 20.02 67.5799 20.1933 67.3399 20.34C66.8733 20.6333 66.3333 20.8533 65.7199 21C65.1199 21.1333 64.5599 21.2 64.0399 21.2ZM79.4495 21.16C79.1161 21.16 78.8228 21.0733 78.5695 20.9C78.3295 20.7267 78.1295 20.46 77.9695 20.1L74.7895 12.72C74.6695 12.4267 74.6228 12.1533 74.6495 11.9C74.6895 11.6467 74.8095 11.4467 75.0095 11.3C75.2228 11.14 75.5095 11.06 75.8695 11.06C76.1761 11.06 76.4228 11.1333 76.6095 11.28C76.7961 11.4133 76.9628 11.6733 77.1095 12.06L79.8095 18.8H79.2095L81.9895 12.04C82.1361 11.6667 82.3028 11.4133 82.4895 11.28C82.6895 11.1333 82.9561 11.06 83.2895 11.06C83.5828 11.06 83.8161 11.14 83.9895 11.3C84.1628 11.4467 84.2695 11.6467 84.3095 11.9C84.3495 12.14 84.3028 12.4067 84.1695 12.7L80.9295 20.1C80.7828 20.46 80.5828 20.7267 80.3295 20.9C80.0895 21.0733 79.7961 21.16 79.4495 21.16ZM89.061 21.2C88.3543 21.2 87.721 21.0667 87.161 20.8C86.6143 20.52 86.181 20.1467 85.861 19.68C85.5543 19.2133 85.401 18.6867 85.401 18.1C85.401 17.38 85.5877 16.8133 85.961 16.4C86.3343 15.9733 86.941 15.6667 87.781 15.48C88.621 15.2933 89.7477 15.2 91.161 15.2H92.161V16.64H91.181C90.3543 16.64 89.6943 16.68 89.201 16.76C88.7077 16.84 88.3543 16.98 88.141 17.18C87.941 17.3667 87.841 17.6333 87.841 17.98C87.841 18.42 87.9943 18.78 88.301 19.06C88.6077 19.34 89.0343 19.48 89.581 19.48C90.021 19.48 90.4077 19.38 90.741 19.18C91.0877 18.9667 91.361 18.68 91.561 18.32C91.761 17.96 91.861 17.5467 91.861 17.08V14.78C91.861 14.1133 91.7143 13.6333 91.421 13.34C91.1277 13.0467 90.6343 12.9 89.941 12.9C89.5543 12.9 89.1343 12.9467 88.681 13.04C88.241 13.1333 87.7743 13.2933 87.281 13.52C87.0277 13.64 86.801 13.6733 86.601 13.62C86.4143 13.5667 86.2677 13.46 86.161 13.3C86.0543 13.1267 86.001 12.94 86.001 12.74C86.001 12.54 86.0543 12.3467 86.161 12.16C86.2677 11.96 86.4477 11.8133 86.701 11.72C87.3143 11.4667 87.901 11.2867 88.461 11.18C89.0343 11.0733 89.5543 11.02 90.021 11.02C90.981 11.02 91.7677 11.1667 92.381 11.46C93.0077 11.7533 93.4743 12.2 93.781 12.8C94.0877 13.3867 94.241 14.1467 94.241 15.08V19.88C94.241 20.2933 94.141 20.6133 93.941 20.84C93.741 21.0533 93.4543 21.16 93.081 21.16C92.7077 21.16 92.4143 21.0533 92.201 20.84C92.001 20.6133 91.901 20.2933 91.901 19.88V18.92H92.061C91.9677 19.3867 91.781 19.7933 91.501 20.14C91.2343 20.4733 90.8943 20.7333 90.481 20.92C90.0677 21.1067 89.5943 21.2 89.061 21.2ZM100.119 21.2C99.0118 21.2 98.1785 20.8867 97.6185 20.26C97.0585 19.62 96.7785 18.6867 96.7785 17.46V8C96.7785 7.58667 96.8852 7.27333 97.0985 7.06C97.3118 6.84667 97.6185 6.74 98.0185 6.74C98.4185 6.74 98.7252 6.84667 98.9385 7.06C99.1652 7.27333 99.2785 7.58667 99.2785 8V17.34C99.2785 17.9533 99.4052 18.4067 99.6585 18.7C99.9252 18.9933 100.299 19.14 100.779 19.14C100.885 19.14 100.985 19.14 101.079 19.14C101.172 19.1267 101.265 19.1133 101.359 19.1C101.545 19.0733 101.672 19.1267 101.739 19.26C101.805 19.38 101.839 19.6333 101.839 20.02C101.839 20.3533 101.772 20.6133 101.639 20.8C101.505 20.9867 101.285 21.1 100.979 21.14C100.845 21.1533 100.705 21.1667 100.559 21.18C100.412 21.1933 100.265 21.2 100.119 21.2ZM106.705 21.2C105.892 21.2 105.219 21.0533 104.685 20.76C104.152 20.4533 103.752 20 103.485 19.4C103.232 18.8 103.105 18.0533 103.105 17.16V12.32C103.105 11.8933 103.212 11.58 103.425 11.38C103.639 11.1667 103.945 11.06 104.345 11.06C104.745 11.06 105.052 11.1667 105.265 11.38C105.492 11.58 105.605 11.8933 105.605 12.32V17.2C105.605 17.8933 105.745 18.4067 106.025 18.74C106.305 19.0733 106.752 19.24 107.365 19.24C108.032 19.24 108.579 19.0133 109.005 18.56C109.432 18.0933 109.645 17.48 109.645 16.72V12.32C109.645 11.8933 109.752 11.58 109.965 11.38C110.179 11.1667 110.485 11.06 110.885 11.06C111.285 11.06 111.592 11.1667 111.805 11.38C112.032 11.58 112.145 11.8933 112.145 12.32V19.88C112.145 20.7333 111.739 21.16 110.925 21.16C110.539 21.16 110.239 21.0533 110.025 20.84C109.812 20.6133 109.705 20.2933 109.705 19.88V18.36L109.985 18.96C109.705 19.68 109.279 20.2333 108.705 20.62C108.145 21.0067 107.479 21.2 106.705 21.2ZM119.567 21.2C118.461 21.2 117.507 20.9933 116.707 20.58C115.907 20.1667 115.287 19.58 114.847 18.82C114.421 18.06 114.207 17.16 114.207 16.12C114.207 15.1067 114.414 14.22 114.827 13.46C115.254 12.7 115.834 12.1067 116.567 11.68C117.314 11.24 118.161 11.02 119.107 11.02C119.801 11.02 120.421 11.1333 120.967 11.36C121.527 11.5867 122.001 11.9133 122.387 12.34C122.787 12.7667 123.087 13.2867 123.287 13.9C123.501 14.5 123.607 15.18 123.607 15.94C123.607 16.18 123.521 16.3667 123.347 16.5C123.187 16.62 122.954 16.68 122.647 16.68H116.227V15.24H121.847L121.527 15.54C121.527 14.9267 121.434 14.4133 121.247 14C121.074 13.5867 120.814 13.2733 120.467 13.06C120.134 12.8333 119.714 12.72 119.207 12.72C118.647 12.72 118.167 12.8533 117.767 13.12C117.381 13.3733 117.081 13.74 116.867 14.22C116.667 14.6867 116.567 15.2467 116.567 15.9V16.04C116.567 17.1333 116.821 17.9533 117.327 18.5C117.847 19.0333 118.607 19.3 119.607 19.3C119.954 19.3 120.341 19.26 120.767 19.18C121.207 19.0867 121.621 18.9333 122.007 18.72C122.287 18.56 122.534 18.4933 122.747 18.52C122.961 18.5333 123.127 18.6067 123.247 18.74C123.381 18.8733 123.461 19.04 123.487 19.24C123.514 19.4267 123.474 19.62 123.367 19.82C123.274 20.02 123.107 20.1933 122.867 20.34C122.401 20.6333 121.861 20.8533 121.247 21C120.647 21.1333 120.087 21.2 119.567 21.2ZM129.167 21.2C128.594 21.2 127.987 21.14 127.347 21.02C126.707 20.9 126.134 20.6933 125.627 20.4C125.414 20.2667 125.26 20.1133 125.167 19.94C125.087 19.7533 125.054 19.5733 125.067 19.4C125.094 19.2133 125.16 19.0533 125.267 18.92C125.387 18.7867 125.534 18.7 125.707 18.66C125.894 18.62 126.094 18.6533 126.307 18.76C126.84 19.0133 127.34 19.1933 127.807 19.3C128.274 19.3933 128.734 19.44 129.187 19.44C129.827 19.44 130.3 19.3333 130.607 19.12C130.927 18.8933 131.087 18.6 131.087 18.24C131.087 17.9333 130.98 17.7 130.767 17.54C130.567 17.3667 130.26 17.24 129.847 17.16L127.847 16.78C127.02 16.62 126.387 16.32 125.947 15.88C125.52 15.4267 125.307 14.8467 125.307 14.14C125.307 13.5 125.48 12.9467 125.827 12.48C126.187 12.0133 126.68 11.6533 127.307 11.4C127.934 11.1467 128.654 11.02 129.467 11.02C130.054 11.02 130.6 11.0867 131.107 11.22C131.627 11.34 132.127 11.5333 132.607 11.8C132.807 11.9067 132.94 12.0467 133.007 12.22C133.087 12.3933 133.107 12.5733 133.067 12.76C133.027 12.9333 132.947 13.0933 132.827 13.24C132.707 13.3733 132.554 13.46 132.367 13.5C132.194 13.5267 131.994 13.4867 131.767 13.38C131.354 13.1667 130.954 13.0133 130.567 12.92C130.194 12.8267 129.834 12.78 129.487 12.78C128.834 12.78 128.347 12.8933 128.027 13.12C127.72 13.3467 127.567 13.6467 127.567 14.02C127.567 14.3 127.66 14.5333 127.847 14.72C128.034 14.9067 128.32 15.0333 128.707 15.1L130.707 15.48C131.574 15.64 132.227 15.9333 132.667 16.36C133.12 16.7867 133.347 17.36 133.347 18.08C133.347 19.0533 132.967 19.82 132.207 20.38C131.447 20.9267 130.434 21.2 129.167 21.2ZM145.242 21.2C144.229 21.2 143.349 20.9933 142.602 20.58C141.856 20.1667 141.276 19.58 140.862 18.82C140.449 18.0467 140.242 17.14 140.242 16.1C140.242 15.3133 140.356 14.6133 140.582 14C140.822 13.3733 141.162 12.84 141.602 12.4C142.042 11.9467 142.569 11.6067 143.182 11.38C143.796 11.14 144.482 11.02 145.242 11.02C146.256 11.02 147.136 11.2267 147.882 11.64C148.629 12.0533 149.209 12.64 149.622 13.4C150.036 14.16 150.242 15.06 150.242 16.1C150.242 16.8867 150.122 17.5933 149.882 18.22C149.656 18.8467 149.322 19.3867 148.882 19.84C148.442 20.28 147.916 20.62 147.302 20.86C146.689 21.0867 146.002 21.2 145.242 21.2ZM145.242 19.3C145.736 19.3 146.169 19.18 146.542 18.94C146.916 18.7 147.202 18.3467 147.402 17.88C147.616 17.4 147.722 16.8067 147.722 16.1C147.722 15.0333 147.496 14.24 147.042 13.72C146.589 13.1867 145.989 12.92 145.242 12.92C144.749 12.92 144.316 13.04 143.942 13.28C143.569 13.5067 143.276 13.86 143.062 14.34C142.862 14.8067 142.762 15.3933 142.762 16.1C142.762 17.1533 142.989 17.9533 143.442 18.5C143.896 19.0333 144.496 19.3 145.242 19.3ZM154.128 21.16C153.728 21.16 153.415 21.0533 153.188 20.84C152.975 20.6133 152.868 20.2933 152.868 19.88V13.1H151.948C151.628 13.1 151.382 13.02 151.208 12.86C151.035 12.6867 150.948 12.4533 150.948 12.16C150.948 11.8533 151.035 11.62 151.208 11.46C151.382 11.3 151.628 11.22 151.948 11.22H153.588L152.868 11.88V11.2C152.868 9.82667 153.215 8.8 153.908 8.12C154.602 7.42667 155.602 7.02 156.908 6.9L157.588 6.84C157.855 6.81333 158.068 6.86 158.228 6.98C158.388 7.08667 158.495 7.23333 158.548 7.42C158.602 7.59333 158.608 7.77333 158.568 7.96C158.528 8.14667 158.442 8.31333 158.308 8.46C158.188 8.59333 158.028 8.66667 157.828 8.68L157.548 8.7C156.788 8.75333 156.235 8.94667 155.888 9.28C155.542 9.61333 155.368 10.12 155.368 10.8V11.54L155.048 11.22H157.068C157.388 11.22 157.635 11.3 157.808 11.46C157.982 11.62 158.068 11.8533 158.068 12.16C158.068 12.4533 157.982 12.6867 157.808 12.86C157.635 13.02 157.388 13.1 157.068 13.1H155.368V19.88C155.368 20.7333 154.955 21.16 154.128 21.16ZM168.503 21.2C167.93 21.2 167.323 21.14 166.683 21.02C166.043 20.9 165.47 20.6933 164.963 20.4C164.75 20.2667 164.596 20.1133 164.503 19.94C164.423 19.7533 164.39 19.5733 164.403 19.4C164.43 19.2133 164.496 19.0533 164.603 18.92C164.723 18.7867 164.87 18.7 165.043 18.66C165.23 18.62 165.43 18.6533 165.643 18.76C166.176 19.0133 166.676 19.1933 167.143 19.3C167.61 19.3933 168.07 19.44 168.523 19.44C169.163 19.44 169.636 19.3333 169.943 19.12C170.263 18.8933 170.423 18.6 170.423 18.24C170.423 17.9333 170.316 17.7 170.103 17.54C169.903 17.3667 169.596 17.24 169.183 17.16L167.183 16.78C166.356 16.62 165.723 16.32 165.283 15.88C164.856 15.4267 164.643 14.8467 164.643 14.14C164.643 13.5 164.816 12.9467 165.163 12.48C165.523 12.0133 166.016 11.6533 166.643 11.4C167.27 11.1467 167.99 11.02 168.803 11.02C169.39 11.02 169.936 11.0867 170.443 11.22C170.963 11.34 171.463 11.5333 171.943 11.8C172.143 11.9067 172.276 12.0467 172.343 12.22C172.423 12.3933 172.443 12.5733 172.403 12.76C172.363 12.9333 172.283 13.0933 172.163 13.24C172.043 13.3733 171.89 13.46 171.703 13.5C171.53 13.5267 171.33 13.4867 171.103 13.38C170.69 13.1667 170.29 13.0133 169.903 12.92C169.53 12.8267 169.17 12.78 168.823 12.78C168.17 12.78 167.683 12.8933 167.363 13.12C167.056 13.3467 166.903 13.6467 166.903 14.02C166.903 14.3 166.996 14.5333 167.183 14.72C167.37 14.9067 167.656 15.0333 168.043 15.1L170.043 15.48C170.91 15.64 171.563 15.9333 172.003 16.36C172.456 16.7867 172.683 17.36 172.683 18.08C172.683 19.0533 172.303 19.82 171.543 20.38C170.783 20.9267 169.77 21.2 168.503 21.2ZM178.029 21.2C176.922 21.2 176.089 20.8867 175.529 20.26C174.969 19.62 174.689 18.6867 174.689 17.46V8C174.689 7.58667 174.795 7.27333 175.009 7.06C175.222 6.84667 175.529 6.74 175.929 6.74C176.329 6.74 176.635 6.84667 176.849 7.06C177.075 7.27333 177.189 7.58667 177.189 8V17.34C177.189 17.9533 177.315 18.4067 177.569 18.7C177.835 18.9933 178.209 19.14 178.689 19.14C178.795 19.14 178.895 19.14 178.989 19.14C179.082 19.1267 179.175 19.1133 179.269 19.1C179.455 19.0733 179.582 19.1267 179.649 19.26C179.715 19.38 179.749 19.6333 179.749 20.02C179.749 20.3533 179.682 20.6133 179.549 20.8C179.415 20.9867 179.195 21.1 178.889 21.14C178.755 21.1533 178.615 21.1667 178.469 21.18C178.322 21.1933 178.175 21.2 178.029 21.2ZM185.438 21.2C184.424 21.2 183.544 20.9933 182.798 20.58C182.051 20.1667 181.471 19.58 181.058 18.82C180.644 18.0467 180.438 17.14 180.438 16.1C180.438 15.3133 180.551 14.6133 180.778 14C181.018 13.3733 181.358 12.84 181.798 12.4C182.238 11.9467 182.764 11.6067 183.378 11.38C183.991 11.14 184.678 11.02 185.438 11.02C186.451 11.02 187.331 11.2267 188.078 11.64C188.824 12.0533 189.404 12.64 189.818 13.4C190.231 14.16 190.438 15.06 190.438 16.1C190.438 16.8867 190.318 17.5933 190.078 18.22C189.851 18.8467 189.518 19.3867 189.078 19.84C188.638 20.28 188.111 20.62 187.498 20.86C186.884 21.0867 186.198 21.2 185.438 21.2ZM185.438 19.3C185.931 19.3 186.364 19.18 186.738 18.94C187.111 18.7 187.398 18.3467 187.598 17.88C187.811 17.4 187.918 16.8067 187.918 16.1C187.918 15.0333 187.691 14.24 187.238 13.72C186.784 13.1867 186.184 12.92 185.438 12.92C184.944 12.92 184.511 13.04 184.138 13.28C183.764 13.5067 183.471 13.86 183.258 14.34C183.058 14.8067 182.958 15.3933 182.958 16.1C182.958 17.1533 183.184 17.9533 183.638 18.5C184.091 19.0333 184.691 19.3 185.438 19.3ZM193.741 24.76C193.341 24.76 193.035 24.6533 192.821 24.44C192.608 24.2267 192.501 23.9133 192.501 23.5V12.32C192.501 11.9067 192.608 11.5933 192.821 11.38C193.035 11.1667 193.335 11.06 193.721 11.06C194.121 11.06 194.428 11.1667 194.641 11.38C194.855 11.5933 194.961 11.9067 194.961 12.32V13.88L194.741 13.28C194.941 12.6 195.348 12.0533 195.961 11.64C196.588 11.2267 197.315 11.02 198.141 11.02C198.995 11.02 199.741 11.2267 200.381 11.64C201.035 12.0533 201.541 12.64 201.901 13.4C202.261 14.1467 202.441 15.0467 202.441 16.1C202.441 17.14 202.261 18.0467 201.901 18.82C201.541 19.58 201.041 20.1667 200.401 20.58C199.761 20.9933 199.008 21.2 198.141 21.2C197.328 21.2 196.615 21 196.001 20.6C195.388 20.1867 194.975 19.6533 194.761 19H195.001V23.5C195.001 23.9133 194.888 24.2267 194.661 24.44C194.448 24.6533 194.141 24.76 193.741 24.76ZM197.441 19.3C197.935 19.3 198.368 19.18 198.741 18.94C199.115 18.7 199.401 18.3467 199.601 17.88C199.815 17.4 199.921 16.8067 199.921 16.1C199.921 15.0333 199.695 14.24 199.241 13.72C198.788 13.1867 198.188 12.92 197.441 12.92C196.948 12.92 196.515 13.04 196.141 13.28C195.768 13.5067 195.475 13.86 195.261 14.34C195.061 14.8067 194.961 15.3933 194.961 16.1C194.961 17.1533 195.188 17.9533 195.641 18.5C196.095 19.0333 196.695 19.3 197.441 19.3ZM209.313 21.2C208.207 21.2 207.253 20.9933 206.453 20.58C205.653 20.1667 205.033 19.58 204.593 18.82C204.167 18.06 203.953 17.16 203.953 16.12C203.953 15.1067 204.16 14.22 204.573 13.46C205 12.7 205.58 12.1067 206.313 11.68C207.06 11.24 207.907 11.02 208.853 11.02C209.547 11.02 210.167 11.1333 210.713 11.36C211.273 11.5867 211.747 11.9133 212.133 12.34C212.533 12.7667 212.833 13.2867 213.033 13.9C213.247 14.5 213.353 15.18 213.353 15.94C213.353 16.18 213.267 16.3667 213.093 16.5C212.933 16.62 212.7 16.68 212.393 16.68H205.973V15.24H211.593L211.273 15.54C211.273 14.9267 211.18 14.4133 210.993 14C210.82 13.5867 210.56 13.2733 210.213 13.06C209.88 12.8333 209.46 12.72 208.953 12.72C208.393 12.72 207.913 12.8533 207.513 13.12C207.127 13.3733 206.827 13.74 206.613 14.22C206.413 14.6867 206.313 15.2467 206.313 15.9V16.04C206.313 17.1333 206.567 17.9533 207.073 18.5C207.593 19.0333 208.353 19.3 209.353 19.3C209.7 19.3 210.087 19.26 210.513 19.18C210.953 19.0867 211.367 18.9333 211.753 18.72C212.033 18.56 212.28 18.4933 212.493 18.52C212.707 18.5333 212.873 18.6067 212.993 18.74C213.127 18.8733 213.207 19.04 213.233 19.24C213.26 19.4267 213.22 19.62 213.113 19.82C213.02 20.02 212.853 20.1933 212.613 20.34C212.147 20.6333 211.607 20.8533 210.993 21C210.393 21.1333 209.833 21.2 209.313 21.2ZM223.983 21.2C223.276 21.2 222.643 21.0667 222.083 20.8C221.536 20.52 221.103 20.1467 220.783 19.68C220.476 19.2133 220.323 18.6867 220.323 18.1C220.323 17.38 220.51 16.8133 220.883 16.4C221.256 15.9733 221.863 15.6667 222.703 15.48C223.543 15.2933 224.67 15.2 226.083 15.2H227.083V16.64H226.103C225.276 16.64 224.616 16.68 224.123 16.76C223.63 16.84 223.276 16.98 223.063 17.18C222.863 17.3667 222.763 17.6333 222.763 17.98C222.763 18.42 222.916 18.78 223.223 19.06C223.53 19.34 223.956 19.48 224.503 19.48C224.943 19.48 225.33 19.38 225.663 19.18C226.01 18.9667 226.283 18.68 226.483 18.32C226.683 17.96 226.783 17.5467 226.783 17.08V14.78C226.783 14.1133 226.636 13.6333 226.343 13.34C226.05 13.0467 225.556 12.9 224.863 12.9C224.476 12.9 224.056 12.9467 223.603 13.04C223.163 13.1333 222.696 13.2933 222.203 13.52C221.95 13.64 221.723 13.6733 221.523 13.62C221.336 13.5667 221.19 13.46 221.083 13.3C220.976 13.1267 220.923 12.94 220.923 12.74C220.923 12.54 220.976 12.3467 221.083 12.16C221.19 11.96 221.37 11.8133 221.623 11.72C222.236 11.4667 222.823 11.2867 223.383 11.18C223.956 11.0733 224.476 11.02 224.943 11.02C225.903 11.02 226.69 11.1667 227.303 11.46C227.93 11.7533 228.396 12.2 228.703 12.8C229.01 13.3867 229.163 14.1467 229.163 15.08V19.88C229.163 20.2933 229.063 20.6133 228.863 20.84C228.663 21.0533 228.376 21.16 228.003 21.16C227.63 21.16 227.336 21.0533 227.123 20.84C226.923 20.6133 226.823 20.2933 226.823 19.88V18.92H226.983C226.89 19.3867 226.703 19.7933 226.423 20.14C226.156 20.4733 225.816 20.7333 225.403 20.92C224.99 21.1067 224.516 21.2 223.983 21.2ZM232.94 21.16C232.54 21.16 232.234 21.0533 232.02 20.84C231.807 20.6133 231.7 20.2933 231.7 19.88V12.32C231.7 11.9067 231.807 11.5933 232.02 11.38C232.234 11.1667 232.534 11.06 232.92 11.06C233.307 11.06 233.607 11.1667 233.82 11.38C234.034 11.5933 234.14 11.9067 234.14 12.32V13.68L233.92 13.18C234.214 12.4733 234.667 11.94 235.28 11.58C235.907 11.2067 236.614 11.02 237.4 11.02C238.187 11.02 238.834 11.1667 239.34 11.46C239.847 11.7533 240.227 12.2 240.48 12.8C240.734 13.3867 240.86 14.1333 240.86 15.04V19.88C240.86 20.2933 240.754 20.6133 240.54 20.84C240.327 21.0533 240.02 21.16 239.62 21.16C239.22 21.16 238.907 21.0533 238.68 20.84C238.467 20.6133 238.36 20.2933 238.36 19.88V15.16C238.36 14.4 238.214 13.8467 237.92 13.5C237.64 13.1533 237.2 12.98 236.6 12.98C235.867 12.98 235.28 13.2133 234.84 13.68C234.414 14.1333 234.2 14.74 234.2 15.5V19.88C234.2 20.7333 233.78 21.16 232.94 21.16ZM247.16 21.2C246.306 21.2 245.553 20.9933 244.9 20.58C244.26 20.1667 243.76 19.58 243.4 18.82C243.04 18.0467 242.86 17.14 242.86 16.1C242.86 15.0467 243.04 14.1467 243.4 13.4C243.76 12.64 244.26 12.0533 244.9 11.64C245.553 11.2267 246.306 11.02 247.16 11.02C247.973 11.02 248.68 11.22 249.28 11.62C249.893 12.02 250.306 12.5467 250.52 13.2H250.3V8C250.3 7.58667 250.406 7.27333 250.62 7.06C250.833 6.84667 251.14 6.74 251.54 6.74C251.94 6.74 252.246 6.84667 252.46 7.06C252.686 7.27333 252.8 7.58667 252.8 8V19.88C252.8 20.2933 252.693 20.6133 252.48 20.84C252.266 21.0533 251.96 21.16 251.56 21.16C251.16 21.16 250.853 21.0533 250.64 20.84C250.426 20.6133 250.32 20.2933 250.32 19.88V18.32L250.54 18.92C250.34 19.6133 249.933 20.1667 249.32 20.58C248.706 20.9933 247.986 21.2 247.16 21.2ZM247.86 19.3C248.353 19.3 248.786 19.18 249.16 18.94C249.533 18.7 249.82 18.3467 250.02 17.88C250.233 17.4 250.34 16.8067 250.34 16.1C250.34 15.0333 250.113 14.24 249.66 13.72C249.206 13.1867 248.606 12.92 247.86 12.92C247.366 12.92 246.933 13.04 246.56 13.28C246.186 13.5067 245.893 13.86 245.68 14.34C245.48 14.8067 245.38 15.3933 245.38 16.1C245.38 17.1533 245.606 17.9533 246.06 18.5C246.513 19.0333 247.113 19.3 247.86 19.3ZM263.301 24.76C263.008 24.76 262.768 24.68 262.581 24.52C262.395 24.3733 262.281 24.1733 262.241 23.92C262.215 23.6667 262.261 23.4 262.381 23.12L263.741 20.1V21.14L260.101 12.72C259.981 12.4267 259.941 12.1533 259.981 11.9C260.021 11.6467 260.141 11.4467 260.341 11.3C260.555 11.14 260.841 11.06 261.201 11.06C261.508 11.06 261.755 11.1333 261.941 11.28C262.128 11.4133 262.295 11.6733 262.441 12.06L265.141 18.8H264.541L267.301 12.04C267.448 11.6667 267.621 11.4133 267.821 11.28C268.021 11.1333 268.288 11.06 268.621 11.06C268.915 11.06 269.148 11.14 269.321 11.3C269.495 11.4467 269.601 11.6467 269.641 11.9C269.681 12.14 269.635 12.4067 269.501 12.7L264.641 23.8C264.468 24.1733 264.281 24.4267 264.081 24.56C263.881 24.6933 263.621 24.76 263.301 24.76ZM271.917 16.64C271.624 16.64 271.377 16.5467 271.177 16.36C270.991 16.16 270.897 15.92 270.897 15.64C270.897 15.3467 270.991 15.1067 271.177 14.92C271.377 14.7333 271.624 14.64 271.917 14.64H276.177C276.457 14.64 276.691 14.7333 276.877 14.92C277.077 15.1067 277.177 15.3467 277.177 15.64C277.177 15.92 277.077 16.16 276.877 16.36C276.691 16.5467 276.457 16.64 276.177 16.64H271.917ZM280.909 21.14C280.509 21.14 280.202 21.02 279.989 20.78C279.776 20.54 279.669 20.2067 279.669 19.78V12.44C279.669 12 279.776 11.6667 279.989 11.44C280.202 11.2 280.509 11.08 280.909 11.08C281.309 11.08 281.616 11.2 281.829 11.44C282.056 11.6667 282.169 12 282.169 12.44V19.78C282.169 20.2067 282.062 20.54 281.849 20.78C281.636 21.02 281.322 21.14 280.909 21.14ZM280.909 9.22C280.442 9.22 280.076 9.10667 279.809 8.88C279.556 8.64 279.429 8.31333 279.429 7.9C279.429 7.47333 279.556 7.14667 279.809 6.92C280.076 6.69333 280.442 6.58 280.909 6.58C281.389 6.58 281.756 6.69333 282.009 6.92C282.262 7.14667 282.389 7.47333 282.389 7.9C282.389 8.31333 282.262 8.64 282.009 8.88C281.756 9.10667 281.389 9.22 280.909 9.22ZM286.007 21.16C285.607 21.16 285.3 21.0533 285.087 20.84C284.873 20.6133 284.767 20.2933 284.767 19.88V12.32C284.767 11.9067 284.873 11.5933 285.087 11.38C285.3 11.1667 285.6 11.06 285.987 11.06C286.373 11.06 286.673 11.1667 286.887 11.38C287.1 11.5933 287.207 11.9067 287.207 12.32V13.68L286.987 13.18C287.28 12.4733 287.733 11.94 288.347 11.58C288.973 11.2067 289.68 11.02 290.467 11.02C291.253 11.02 291.9 11.1667 292.407 11.46C292.913 11.7533 293.293 12.2 293.547 12.8C293.8 13.3867 293.927 14.1333 293.927 15.04V19.88C293.927 20.2933 293.82 20.6133 293.607 20.84C293.393 21.0533 293.087 21.16 292.687 21.16C292.287 21.16 291.973 21.0533 291.747 20.84C291.533 20.6133 291.427 20.2933 291.427 19.88V15.16C291.427 14.4 291.28 13.8467 290.987 13.5C290.707 13.1533 290.267 12.98 289.667 12.98C288.933 12.98 288.347 13.2133 287.907 13.68C287.48 14.1333 287.267 14.74 287.267 15.5V19.88C287.267 20.7333 286.847 21.16 286.007 21.16ZM300.946 21.2C300.079 21.2 299.353 21.0533 298.766 20.76C298.193 20.4667 297.766 20.04 297.486 19.48C297.206 18.9067 297.066 18.2 297.066 17.36V13.1H296.026C295.706 13.1 295.459 13.02 295.286 12.86C295.113 12.6867 295.026 12.4533 295.026 12.16C295.026 11.8533 295.113 11.62 295.286 11.46C295.459 11.3 295.706 11.22 296.026 11.22H297.066V9.4C297.066 8.98667 297.173 8.67333 297.386 8.46C297.613 8.24667 297.926 8.14 298.326 8.14C298.726 8.14 299.033 8.24667 299.246 8.46C299.459 8.67333 299.566 8.98667 299.566 9.4V11.22H301.686C302.006 11.22 302.253 11.3 302.426 11.46C302.599 11.62 302.686 11.8533 302.686 12.16C302.686 12.4533 302.599 12.6867 302.426 12.86C302.253 13.02 302.006 13.1 301.686 13.1H299.566V17.22C299.566 17.86 299.706 18.34 299.986 18.66C300.266 18.98 300.719 19.14 301.346 19.14C301.573 19.14 301.773 19.12 301.946 19.08C302.119 19.04 302.273 19.0133 302.406 19C302.566 18.9867 302.699 19.04 302.806 19.16C302.913 19.2667 302.966 19.4933 302.966 19.84C302.966 20.1067 302.919 20.3467 302.826 20.56C302.746 20.76 302.593 20.9 302.366 20.98C302.193 21.0333 301.966 21.08 301.686 21.12C301.406 21.1733 301.159 21.2 300.946 21.2ZM308.864 21.2C307.757 21.2 306.804 20.9933 306.004 20.58C305.204 20.1667 304.584 19.58 304.144 18.82C303.717 18.06 303.504 17.16 303.504 16.12C303.504 15.1067 303.711 14.22 304.124 13.46C304.551 12.7 305.131 12.1067 305.864 11.68C306.611 11.24 307.457 11.02 308.404 11.02C309.097 11.02 309.717 11.1333 310.264 11.36C310.824 11.5867 311.297 11.9133 311.684 12.34C312.084 12.7667 312.384 13.2867 312.584 13.9C312.797 14.5 312.904 15.18 312.904 15.94C312.904 16.18 312.817 16.3667 312.644 16.5C312.484 16.62 312.251 16.68 311.944 16.68H305.524V15.24H311.144L310.824 15.54C310.824 14.9267 310.731 14.4133 310.544 14C310.371 13.5867 310.111 13.2733 309.764 13.06C309.431 12.8333 309.011 12.72 308.504 12.72C307.944 12.72 307.464 12.8533 307.064 13.12C306.677 13.3733 306.377 13.74 306.164 14.22C305.964 14.6867 305.864 15.2467 305.864 15.9V16.04C305.864 17.1333 306.117 17.9533 306.624 18.5C307.144 19.0333 307.904 19.3 308.904 19.3C309.251 19.3 309.637 19.26 310.064 19.18C310.504 19.0867 310.917 18.9333 311.304 18.72C311.584 18.56 311.831 18.4933 312.044 18.52C312.257 18.5333 312.424 18.6067 312.544 18.74C312.677 18.8733 312.757 19.04 312.784 19.24C312.811 19.4267 312.771 19.62 312.664 19.82C312.571 20.02 312.404 20.1933 312.164 20.34C311.697 20.6333 311.157 20.8533 310.544 21C309.944 21.1333 309.384 21.2 308.864 21.2ZM316.164 21.16C315.751 21.16 315.431 21.0533 315.204 20.84C314.991 20.6133 314.884 20.2933 314.884 19.88V12.32C314.884 11.9067 314.991 11.5933 315.204 11.38C315.417 11.1667 315.717 11.06 316.104 11.06C316.491 11.06 316.791 11.1667 317.004 11.38C317.217 11.5933 317.324 11.9067 317.324 12.32V13.58H317.124C317.311 12.78 317.677 12.1733 318.224 11.76C318.771 11.3467 319.497 11.1 320.404 11.02C320.684 10.9933 320.904 11.0667 321.064 11.24C321.237 11.4 321.337 11.6533 321.364 12C321.391 12.3333 321.311 12.6067 321.124 12.82C320.951 13.02 320.684 13.14 320.324 13.18L319.884 13.22C319.071 13.3 318.457 13.5533 318.044 13.98C317.631 14.3933 317.424 14.98 317.424 15.74V19.88C317.424 20.2933 317.317 20.6133 317.104 20.84C316.891 21.0533 316.577 21.16 316.164 21.16ZM327.08 21.2C326.053 21.2 325.16 20.9933 324.4 20.58C323.64 20.1533 323.053 19.5533 322.64 18.78C322.226 18.0067 322.02 17.1 322.02 16.06C322.02 15.2733 322.133 14.5733 322.36 13.96C322.6 13.3333 322.94 12.8067 323.38 12.38C323.82 11.94 324.353 11.6067 324.98 11.38C325.606 11.14 326.306 11.02 327.08 11.02C327.52 11.02 327.993 11.08 328.5 11.2C329.02 11.32 329.506 11.52 329.96 11.8C330.173 11.9333 330.313 12.0933 330.38 12.28C330.446 12.4667 330.46 12.66 330.42 12.86C330.38 13.0467 330.293 13.2133 330.16 13.36C330.04 13.4933 329.886 13.58 329.7 13.62C329.513 13.6467 329.306 13.6 329.08 13.48C328.786 13.3067 328.486 13.18 328.18 13.1C327.873 13.0067 327.58 12.96 327.3 12.96C326.86 12.96 326.473 13.0333 326.14 13.18C325.806 13.3133 325.52 13.5133 325.28 13.78C325.053 14.0333 324.88 14.3533 324.76 14.74C324.64 15.1267 324.58 15.5733 324.58 16.08C324.58 17.0667 324.813 17.8467 325.28 18.42C325.76 18.98 326.433 19.26 327.3 19.26C327.58 19.26 327.866 19.22 328.16 19.14C328.466 19.06 328.773 18.9333 329.08 18.76C329.306 18.64 329.506 18.6 329.68 18.64C329.866 18.68 330.02 18.7733 330.14 18.92C330.26 19.0533 330.333 19.22 330.36 19.42C330.386 19.6067 330.36 19.7933 330.28 19.98C330.213 20.1667 330.08 20.32 329.88 20.44C329.44 20.7067 328.973 20.9 328.48 21.02C327.986 21.14 327.52 21.2 327.08 21.2ZM336.618 21.2C335.511 21.2 334.558 20.9933 333.758 20.58C332.958 20.1667 332.338 19.58 331.898 18.82C331.471 18.06 331.258 17.16 331.258 16.12C331.258 15.1067 331.465 14.22 331.878 13.46C332.305 12.7 332.885 12.1067 333.618 11.68C334.365 11.24 335.211 11.02 336.158 11.02C336.851 11.02 337.471 11.1333 338.018 11.36C338.578 11.5867 339.051 11.9133 339.438 12.34C339.838 12.7667 340.138 13.2867 340.338 13.9C340.551 14.5 340.658 15.18 340.658 15.94C340.658 16.18 340.571 16.3667 340.398 16.5C340.238 16.62 340.005 16.68 339.698 16.68H333.278V15.24H338.898L338.578 15.54C338.578 14.9267 338.485 14.4133 338.298 14C338.125 13.5867 337.865 13.2733 337.518 13.06C337.185 12.8333 336.765 12.72 336.258 12.72C335.698 12.72 335.218 12.8533 334.818 13.12C334.431 13.3733 334.131 13.74 333.918 14.22C333.718 14.6867 333.618 15.2467 333.618 15.9V16.04C333.618 17.1333 333.871 17.9533 334.378 18.5C334.898 19.0333 335.658 19.3 336.658 19.3C337.005 19.3 337.391 19.26 337.818 19.18C338.258 19.0867 338.671 18.9333 339.058 18.72C339.338 18.56 339.585 18.4933 339.798 18.52C340.011 18.5333 340.178 18.6067 340.298 18.74C340.431 18.8733 340.511 19.04 340.538 19.24C340.565 19.4267 340.525 19.62 340.418 19.82C340.325 20.02 340.158 20.1933 339.918 20.34C339.451 20.6333 338.911 20.8533 338.298 21C337.698 21.1333 337.138 21.2 336.618 21.2ZM343.878 24.76C343.478 24.76 343.171 24.6533 342.958 24.44C342.745 24.2267 342.638 23.9133 342.638 23.5V12.32C342.638 11.9067 342.745 11.5933 342.958 11.38C343.171 11.1667 343.471 11.06 343.858 11.06C344.258 11.06 344.565 11.1667 344.778 11.38C344.991 11.5933 345.098 11.9067 345.098 12.32V13.88L344.878 13.28C345.078 12.6 345.485 12.0533 346.098 11.64C346.725 11.2267 347.451 11.02 348.278 11.02C349.131 11.02 349.878 11.2267 350.518 11.64C351.171 12.0533 351.678 12.64 352.038 13.4C352.398 14.1467 352.578 15.0467 352.578 16.1C352.578 17.14 352.398 18.0467 352.038 18.82C351.678 19.58 351.178 20.1667 350.538 20.58C349.898 20.9933 349.145 21.2 348.278 21.2C347.465 21.2 346.751 21 346.138 20.6C345.525 20.1867 345.111 19.6533 344.898 19H345.138V23.5C345.138 23.9133 345.025 24.2267 344.798 24.44C344.585 24.6533 344.278 24.76 343.878 24.76ZM347.578 19.3C348.071 19.3 348.505 19.18 348.878 18.94C349.251 18.7 349.538 18.3467 349.738 17.88C349.951 17.4 350.058 16.8067 350.058 16.1C350.058 15.0333 349.831 14.24 349.378 13.72C348.925 13.1867 348.325 12.92 347.578 12.92C347.085 12.92 346.651 13.04 346.278 13.28C345.905 13.5067 345.611 13.86 345.398 14.34C345.198 14.8067 345.098 15.3933 345.098 16.1C345.098 17.1533 345.325 17.9533 345.778 18.5C346.231 19.0333 346.831 19.3 347.578 19.3ZM359.012 21.2C358.146 21.2 357.419 21.0533 356.832 20.76C356.259 20.4667 355.832 20.04 355.552 19.48C355.272 18.9067 355.132 18.2 355.132 17.36V13.1H354.092C353.772 13.1 353.526 13.02 353.352 12.86C353.179 12.6867 353.092 12.4533 353.092 12.16C353.092 11.8533 353.179 11.62 353.352 11.46C353.526 11.3 353.772 11.22 354.092 11.22H355.132V9.4C355.132 8.98667 355.239 8.67333 355.452 8.46C355.679 8.24667 355.992 8.14 356.392 8.14C356.792 8.14 357.099 8.24667 357.312 8.46C357.526 8.67333 357.632 8.98667 357.632 9.4V11.22H359.752C360.072 11.22 360.319 11.3 360.492 11.46C360.666 11.62 360.752 11.8533 360.752 12.16C360.752 12.4533 360.666 12.6867 360.492 12.86C360.319 13.02 360.072 13.1 359.752 13.1H357.632V17.22C357.632 17.86 357.772 18.34 358.052 18.66C358.332 18.98 358.786 19.14 359.412 19.14C359.639 19.14 359.839 19.12 360.012 19.08C360.186 19.04 360.339 19.0133 360.472 19C360.632 18.9867 360.766 19.04 360.872 19.16C360.979 19.2667 361.032 19.4933 361.032 19.84C361.032 20.1067 360.986 20.3467 360.892 20.56C360.812 20.76 360.659 20.9 360.432 20.98C360.259 21.0333 360.032 21.08 359.752 21.12C359.472 21.1733 359.226 21.2 359.012 21.2ZM372.118 21.2C371.251 21.2 370.525 21.0533 369.938 20.76C369.365 20.4667 368.938 20.04 368.658 19.48C368.378 18.9067 368.238 18.2 368.238 17.36V13.1H367.198C366.878 13.1 366.631 13.02 366.458 12.86C366.285 12.6867 366.198 12.4533 366.198 12.16C366.198 11.8533 366.285 11.62 366.458 11.46C366.631 11.3 366.878 11.22 367.198 11.22H368.238V9.4C368.238 8.98667 368.345 8.67333 368.558 8.46C368.785 8.24667 369.098 8.14 369.498 8.14C369.898 8.14 370.205 8.24667 370.418 8.46C370.631 8.67333 370.738 8.98667 370.738 9.4V11.22H372.858C373.178 11.22 373.425 11.3 373.598 11.46C373.771 11.62 373.858 11.8533 373.858 12.16C373.858 12.4533 373.771 12.6867 373.598 12.86C373.425 13.02 373.178 13.1 372.858 13.1H370.738V17.22C370.738 17.86 370.878 18.34 371.158 18.66C371.438 18.98 371.891 19.14 372.518 19.14C372.745 19.14 372.945 19.12 373.118 19.08C373.291 19.04 373.445 19.0133 373.578 19C373.738 18.9867 373.871 19.04 373.978 19.16C374.085 19.2667 374.138 19.4933 374.138 19.84C374.138 20.1067 374.091 20.3467 373.998 20.56C373.918 20.76 373.765 20.9 373.538 20.98C373.365 21.0333 373.138 21.08 372.858 21.12C372.578 21.1733 372.331 21.2 372.118 21.2ZM379.676 21.2C378.663 21.2 377.783 20.9933 377.036 20.58C376.289 20.1667 375.709 19.58 375.296 18.82C374.883 18.0467 374.676 17.14 374.676 16.1C374.676 15.3133 374.789 14.6133 375.016 14C375.256 13.3733 375.596 12.84 376.036 12.4C376.476 11.9467 377.003 11.6067 377.616 11.38C378.229 11.14 378.916 11.02 379.676 11.02C380.689 11.02 381.569 11.2267 382.316 11.64C383.063 12.0533 383.643 12.64 384.056 13.4C384.469 14.16 384.676 15.06 384.676 16.1C384.676 16.8867 384.556 17.5933 384.316 18.22C384.089 18.8467 383.756 19.3867 383.316 19.84C382.876 20.28 382.349 20.62 381.736 20.86C381.123 21.0867 380.436 21.2 379.676 21.2ZM379.676 19.3C380.169 19.3 380.603 19.18 380.976 18.94C381.349 18.7 381.636 18.3467 381.836 17.88C382.049 17.4 382.156 16.8067 382.156 16.1C382.156 15.0333 381.929 14.24 381.476 13.72C381.023 13.1867 380.423 12.92 379.676 12.92C379.183 12.92 378.749 13.04 378.376 13.28C378.003 13.5067 377.709 13.86 377.496 14.34C377.296 14.8067 377.196 15.3933 377.196 16.1C377.196 17.1533 377.423 17.9533 377.876 18.5C378.329 19.0333 378.929 19.3 379.676 19.3ZM395.749 21.2C395.176 21.2 394.569 21.14 393.929 21.02C393.289 20.9 392.716 20.6933 392.209 20.4C391.996 20.2667 391.842 20.1133 391.749 19.94C391.669 19.7533 391.636 19.5733 391.649 19.4C391.676 19.2133 391.742 19.0533 391.849 18.92C391.969 18.7867 392.116 18.7 392.289 18.66C392.476 18.62 392.676 18.6533 392.889 18.76C393.422 19.0133 393.922 19.1933 394.389 19.3C394.856 19.3933 395.316 19.44 395.769 19.44C396.409 19.44 396.882 19.3333 397.189 19.12C397.509 18.8933 397.669 18.6 397.669 18.24C397.669 17.9333 397.562 17.7 397.349 17.54C397.149 17.3667 396.842 17.24 396.429 17.16L394.429 16.78C393.602 16.62 392.969 16.32 392.529 15.88C392.102 15.4267 391.889 14.8467 391.889 14.14C391.889 13.5 392.062 12.9467 392.409 12.48C392.769 12.0133 393.262 11.6533 393.889 11.4C394.516 11.1467 395.236 11.02 396.049 11.02C396.636 11.02 397.182 11.0867 397.689 11.22C398.209 11.34 398.709 11.5333 399.189 11.8C399.389 11.9067 399.522 12.0467 399.589 12.22C399.669 12.3933 399.689 12.5733 399.649 12.76C399.609 12.9333 399.529 13.0933 399.409 13.24C399.289 13.3733 399.136 13.46 398.949 13.5C398.776 13.5267 398.576 13.4867 398.349 13.38C397.936 13.1667 397.536 13.0133 397.149 12.92C396.776 12.8267 396.416 12.78 396.069 12.78C395.416 12.78 394.929 12.8933 394.609 13.12C394.302 13.3467 394.149 13.6467 394.149 14.02C394.149 14.3 394.242 14.5333 394.429 14.72C394.616 14.9067 394.902 15.0333 395.289 15.1L397.289 15.48C398.156 15.64 398.809 15.9333 399.249 16.36C399.702 16.7867 399.929 17.36 399.929 18.08C399.929 19.0533 399.549 19.82 398.789 20.38C398.029 20.9267 397.016 21.2 395.749 21.2ZM406.755 21.2C405.648 21.2 404.695 20.9933 403.895 20.58C403.095 20.1667 402.475 19.58 402.035 18.82C401.608 18.06 401.395 17.16 401.395 16.12C401.395 15.1067 401.601 14.22 402.015 13.46C402.441 12.7 403.021 12.1067 403.755 11.68C404.501 11.24 405.348 11.02 406.295 11.02C406.988 11.02 407.608 11.1333 408.155 11.36C408.715 11.5867 409.188 11.9133 409.575 12.34C409.975 12.7667 410.275 13.2867 410.475 13.9C410.688 14.5 410.795 15.18 410.795 15.94C410.795 16.18 410.708 16.3667 410.535 16.5C410.375 16.62 410.141 16.68 409.835 16.68H403.415V15.24H409.035L408.715 15.54C408.715 14.9267 408.621 14.4133 408.435 14C408.261 13.5867 408.001 13.2733 407.655 13.06C407.321 12.8333 406.901 12.72 406.395 12.72C405.835 12.72 405.355 12.8533 404.955 13.12C404.568 13.3733 404.268 13.74 404.055 14.22C403.855 14.6867 403.755 15.2467 403.755 15.9V16.04C403.755 17.1333 404.008 17.9533 404.515 18.5C405.035 19.0333 405.795 19.3 406.795 19.3C407.141 19.3 407.528 19.26 407.955 19.18C408.395 19.0867 408.808 18.9333 409.195 18.72C409.475 18.56 409.721 18.4933 409.935 18.52C410.148 18.5333 410.315 18.6067 410.435 18.74C410.568 18.8733 410.648 19.04 410.675 19.24C410.701 19.4267 410.661 19.62 410.555 19.82C410.461 20.02 410.295 20.1933 410.055 20.34C409.588 20.6333 409.048 20.8533 408.435 21C407.835 21.1333 407.275 21.2 406.755 21.2ZM417.595 21.2C416.488 21.2 415.535 20.9933 414.735 20.58C413.935 20.1667 413.315 19.58 412.875 18.82C412.448 18.06 412.235 17.16 412.235 16.12C412.235 15.1067 412.441 14.22 412.855 13.46C413.281 12.7 413.861 12.1067 414.595 11.68C415.341 11.24 416.188 11.02 417.135 11.02C417.828 11.02 418.448 11.1333 418.995 11.36C419.555 11.5867 420.028 11.9133 420.415 12.34C420.815 12.7667 421.115 13.2867 421.315 13.9C421.528 14.5 421.635 15.18 421.635 15.94C421.635 16.18 421.548 16.3667 421.375 16.5C421.215 16.62 420.981 16.68 420.675 16.68H414.255V15.24H419.875L419.555 15.54C419.555 14.9267 419.461 14.4133 419.275 14C419.101 13.5867 418.841 13.2733 418.495 13.06C418.161 12.8333 417.741 12.72 417.235 12.72C416.675 12.72 416.195 12.8533 415.795 13.12C415.408 13.3733 415.108 13.74 414.895 14.22C414.695 14.6867 414.595 15.2467 414.595 15.9V16.04C414.595 17.1333 414.848 17.9533 415.355 18.5C415.875 19.0333 416.635 19.3 417.635 19.3C417.981 19.3 418.368 19.26 418.795 19.18C419.235 19.0867 419.648 18.9333 420.035 18.72C420.315 18.56 420.561 18.4933 420.775 18.52C420.988 18.5333 421.155 18.6067 421.275 18.74C421.408 18.8733 421.488 19.04 421.515 19.24C421.541 19.4267 421.501 19.62 421.395 19.82C421.301 20.02 421.135 20.1933 420.895 20.34C420.428 20.6333 419.888 20.8533 419.275 21C418.675 21.1333 418.115 21.2 417.595 21.2ZM433.524 21.2C432.657 21.2 431.931 21.0533 431.344 20.76C430.771 20.4667 430.344 20.04 430.064 19.48C429.784 18.9067 429.644 18.2 429.644 17.36V13.1H428.604C428.284 13.1 428.037 13.02 427.864 12.86C427.691 12.6867 427.604 12.4533 427.604 12.16C427.604 11.8533 427.691 11.62 427.864 11.46C428.037 11.3 428.284 11.22 428.604 11.22H429.644V9.4C429.644 8.98667 429.751 8.67333 429.964 8.46C430.191 8.24667 430.504 8.14 430.904 8.14C431.304 8.14 431.611 8.24667 431.824 8.46C432.037 8.67333 432.144 8.98667 432.144 9.4V11.22H434.264C434.584 11.22 434.831 11.3 435.004 11.46C435.177 11.62 435.264 11.8533 435.264 12.16C435.264 12.4533 435.177 12.6867 435.004 12.86C434.831 13.02 434.584 13.1 434.264 13.1H432.144V17.22C432.144 17.86 432.284 18.34 432.564 18.66C432.844 18.98 433.297 19.14 433.924 19.14C434.151 19.14 434.351 19.12 434.524 19.08C434.697 19.04 434.851 19.0133 434.984 19C435.144 18.9867 435.277 19.04 435.384 19.16C435.491 19.2667 435.544 19.4933 435.544 19.84C435.544 20.1067 435.497 20.3467 435.404 20.56C435.324 20.76 435.171 20.9 434.944 20.98C434.771 21.0333 434.544 21.08 434.264 21.12C433.984 21.1733 433.737 21.2 433.524 21.2ZM438.214 21.16C437.814 21.16 437.507 21.0533 437.294 20.84C437.08 20.6133 436.974 20.2933 436.974 19.88V8C436.974 7.58667 437.08 7.27333 437.294 7.06C437.507 6.84667 437.814 6.74 438.214 6.74C438.614 6.74 438.92 6.84667 439.134 7.06C439.36 7.27333 439.474 7.58667 439.474 8V13.18H439.194C439.487 12.4733 439.94 11.94 440.554 11.58C441.18 11.2067 441.887 11.02 442.674 11.02C443.46 11.02 444.107 11.1667 444.614 11.46C445.12 11.7533 445.5 12.2 445.754 12.8C446.007 13.3867 446.134 14.1333 446.134 15.04V19.88C446.134 20.2933 446.027 20.6133 445.814 20.84C445.6 21.0533 445.294 21.16 444.894 21.16C444.494 21.16 444.18 21.0533 443.954 20.84C443.74 20.6133 443.634 20.2933 443.634 19.88V15.16C443.634 14.4 443.487 13.8467 443.194 13.5C442.914 13.1533 442.474 12.98 441.874 12.98C441.14 12.98 440.554 13.2133 440.114 13.68C439.687 14.1333 439.474 14.74 439.474 15.5V19.88C439.474 20.7333 439.054 21.16 438.214 21.16ZM453.493 21.2C452.386 21.2 451.433 20.9933 450.633 20.58C449.833 20.1667 449.213 19.58 448.773 18.82C448.346 18.06 448.133 17.16 448.133 16.12C448.133 15.1067 448.34 14.22 448.753 13.46C449.18 12.7 449.76 12.1067 450.493 11.68C451.24 11.24 452.086 11.02 453.033 11.02C453.726 11.02 454.346 11.1333 454.893 11.36C455.453 11.5867 455.926 11.9133 456.313 12.34C456.713 12.7667 457.013 13.2867 457.213 13.9C457.426 14.5 457.533 15.18 457.533 15.94C457.533 16.18 457.446 16.3667 457.273 16.5C457.113 16.62 456.88 16.68 456.573 16.68H450.153V15.24H455.773L455.453 15.54C455.453 14.9267 455.36 14.4133 455.173 14C455 13.5867 454.74 13.2733 454.393 13.06C454.06 12.8333 453.64 12.72 453.133 12.72C452.573 12.72 452.093 12.8533 451.693 13.12C451.306 13.3733 451.006 13.74 450.793 14.22C450.593 14.6867 450.493 15.2467 450.493 15.9V16.04C450.493 17.1333 450.746 17.9533 451.253 18.5C451.773 19.0333 452.533 19.3 453.533 19.3C453.88 19.3 454.266 19.26 454.693 19.18C455.133 19.0867 455.546 18.9333 455.933 18.72C456.213 18.56 456.46 18.4933 456.673 18.52C456.886 18.5333 457.053 18.6067 457.173 18.74C457.306 18.8733 457.386 19.04 457.413 19.24C457.44 19.4267 457.4 19.62 457.293 19.82C457.2 20.02 457.033 20.1933 456.793 20.34C456.326 20.6333 455.786 20.8533 455.173 21C454.573 21.1333 454.013 21.2 453.493 21.2ZM466.223 21.16C465.809 21.16 465.489 21.0533 465.263 20.84C465.049 20.6133 464.943 20.2933 464.943 19.88V12.32C464.943 11.9067 465.049 11.5933 465.263 11.38C465.476 11.1667 465.776 11.06 466.163 11.06C466.549 11.06 466.849 11.1667 467.063 11.38C467.276 11.5933 467.383 11.9067 467.383 12.32V13.58H467.183C467.369 12.78 467.736 12.1733 468.283 11.76C468.829 11.3467 469.556 11.1 470.463 11.02C470.743 10.9933 470.963 11.0667 471.123 11.24C471.296 11.4 471.396 11.6533 471.423 12C471.449 12.3333 471.369 12.6067 471.183 12.82C471.009 13.02 470.743 13.14 470.383 13.18L469.943 13.22C469.129 13.3 468.516 13.5533 468.103 13.98C467.689 14.3933 467.483 14.98 467.483 15.74V19.88C467.483 20.2933 467.376 20.6133 467.163 20.84C466.949 21.0533 466.636 21.16 466.223 21.16ZM474.015 21.14C473.615 21.14 473.308 21.02 473.095 20.78C472.881 20.54 472.775 20.2067 472.775 19.78V12.44C472.775 12 472.881 11.6667 473.095 11.44C473.308 11.2 473.615 11.08 474.015 11.08C474.415 11.08 474.721 11.2 474.935 11.44C475.161 11.6667 475.275 12 475.275 12.44V19.78C475.275 20.2067 475.168 20.54 474.955 20.78C474.741 21.02 474.428 21.14 474.015 21.14ZM474.015 9.22C473.548 9.22 473.181 9.10667 472.915 8.88C472.661 8.64 472.535 8.31333 472.535 7.9C472.535 7.47333 472.661 7.14667 472.915 6.92C473.181 6.69333 473.548 6.58 474.015 6.58C474.495 6.58 474.861 6.69333 475.115 6.92C475.368 7.14667 475.495 7.47333 475.495 7.9C475.495 8.31333 475.368 8.64 475.115 8.88C474.861 9.10667 474.495 9.22 474.015 9.22ZM481.452 21.2C480.879 21.2 480.272 21.14 479.632 21.02C478.992 20.9 478.419 20.6933 477.912 20.4C477.699 20.2667 477.546 20.1133 477.452 19.94C477.372 19.7533 477.339 19.5733 477.352 19.4C477.379 19.2133 477.446 19.0533 477.552 18.92C477.672 18.7867 477.819 18.7 477.992 18.66C478.179 18.62 478.379 18.6533 478.592 18.76C479.126 19.0133 479.626 19.1933 480.092 19.3C480.559 19.3933 481.019 19.44 481.472 19.44C482.112 19.44 482.586 19.3333 482.892 19.12C483.212 18.8933 483.372 18.6 483.372 18.24C483.372 17.9333 483.266 17.7 483.052 17.54C482.852 17.3667 482.546 17.24 482.132 17.16L480.132 16.78C479.306 16.62 478.672 16.32 478.232 15.88C477.806 15.4267 477.592 14.8467 477.592 14.14C477.592 13.5 477.766 12.9467 478.112 12.48C478.472 12.0133 478.966 11.6533 479.592 11.4C480.219 11.1467 480.939 11.02 481.752 11.02C482.339 11.02 482.886 11.0867 483.392 11.22C483.912 11.34 484.412 11.5333 484.892 11.8C485.092 11.9067 485.226 12.0467 485.292 12.22C485.372 12.3933 485.392 12.5733 485.352 12.76C485.312 12.9333 485.232 13.0933 485.112 13.24C484.992 13.3733 484.839 13.46 484.652 13.5C484.479 13.5267 484.279 13.4867 484.052 13.38C483.639 13.1667 483.239 13.0133 482.852 12.92C482.479 12.8267 482.119 12.78 481.772 12.78C481.119 12.78 480.632 12.8933 480.312 13.12C480.006 13.3467 479.852 13.6467 479.852 14.02C479.852 14.3 479.946 14.5333 480.132 14.72C480.319 14.9067 480.606 15.0333 480.992 15.1L482.992 15.48C483.859 15.64 484.512 15.9333 484.952 16.36C485.406 16.7867 485.632 17.36 485.632 18.08C485.632 19.0533 485.252 19.82 484.492 20.38C483.732 20.9267 482.719 21.2 481.452 21.2ZM492.458 21.2C491.351 21.2 490.398 20.9933 489.598 20.58C488.798 20.1667 488.178 19.58 487.738 18.82C487.311 18.06 487.098 17.16 487.098 16.12C487.098 15.1067 487.305 14.22 487.718 13.46C488.145 12.7 488.725 12.1067 489.458 11.68C490.205 11.24 491.051 11.02 491.998 11.02C492.691 11.02 493.311 11.1333 493.858 11.36C494.418 11.5867 494.891 11.9133 495.278 12.34C495.678 12.7667 495.978 13.2867 496.178 13.9C496.391 14.5 496.498 15.18 496.498 15.94C496.498 16.18 496.411 16.3667 496.238 16.5C496.078 16.62 495.845 16.68 495.538 16.68H489.118V15.24H494.738L494.418 15.54C494.418 14.9267 494.325 14.4133 494.138 14C493.965 13.5867 493.705 13.2733 493.358 13.06C493.025 12.8333 492.605 12.72 492.098 12.72C491.538 12.72 491.058 12.8533 490.658 13.12C490.271 13.3733 489.971 13.74 489.758 14.22C489.558 14.6867 489.458 15.2467 489.458 15.9V16.04C489.458 17.1333 489.711 17.9533 490.218 18.5C490.738 19.0333 491.498 19.3 492.498 19.3C492.845 19.3 493.231 19.26 493.658 19.18C494.098 19.0867 494.511 18.9333 494.898 18.72C495.178 18.56 495.425 18.4933 495.638 18.52C495.851 18.5333 496.018 18.6067 496.138 18.74C496.271 18.8733 496.351 19.04 496.378 19.24C496.405 19.4267 496.365 19.62 496.258 19.82C496.165 20.02 495.998 20.1933 495.758 20.34C495.291 20.6333 494.751 20.8533 494.138 21C493.538 21.1333 492.978 21.2 492.458 21.2ZM507.127 21.2C506.421 21.2 505.787 21.0667 505.227 20.8C504.681 20.52 504.247 20.1467 503.927 19.68C503.621 19.2133 503.467 18.6867 503.467 18.1C503.467 17.38 503.654 16.8133 504.027 16.4C504.401 15.9733 505.007 15.6667 505.847 15.48C506.687 15.2933 507.814 15.2 509.227 15.2H510.227V16.64H509.247C508.421 16.64 507.761 16.68 507.267 16.76C506.774 16.84 506.421 16.98 506.207 17.18C506.007 17.3667 505.907 17.6333 505.907 17.98C505.907 18.42 506.061 18.78 506.367 19.06C506.674 19.34 507.101 19.48 507.647 19.48C508.087 19.48 508.474 19.38 508.807 19.18C509.154 18.9667 509.427 18.68 509.627 18.32C509.827 17.96 509.927 17.5467 509.927 17.08V14.78C509.927 14.1133 509.781 13.6333 509.487 13.34C509.194 13.0467 508.701 12.9 508.007 12.9C507.621 12.9 507.201 12.9467 506.747 13.04C506.307 13.1333 505.841 13.2933 505.347 13.52C505.094 13.64 504.867 13.6733 504.667 13.62C504.481 13.5667 504.334 13.46 504.227 13.3C504.121 13.1267 504.067 12.94 504.067 12.74C504.067 12.54 504.121 12.3467 504.227 12.16C504.334 11.96 504.514 11.8133 504.767 11.72C505.381 11.4667 505.967 11.2867 506.527 11.18C507.101 11.0733 507.621 11.02 508.087 11.02C509.047 11.02 509.834 11.1667 510.447 11.46C511.074 11.7533 511.541 12.2 511.847 12.8C512.154 13.3867 512.307 14.1467 512.307 15.08V19.88C512.307 20.2933 512.207 20.6133 512.007 20.84C511.807 21.0533 511.521 21.16 511.147 21.16C510.774 21.16 510.481 21.0533 510.267 20.84C510.067 20.6133 509.967 20.2933 509.967 19.88V18.92H510.127C510.034 19.3867 509.847 19.7933 509.567 20.14C509.301 20.4733 508.961 20.7333 508.547 20.92C508.134 21.1067 507.661 21.2 507.127 21.2ZM516.085 21.16C515.685 21.16 515.378 21.0533 515.165 20.84C514.952 20.6133 514.845 20.2933 514.845 19.88V12.32C514.845 11.9067 514.952 11.5933 515.165 11.38C515.378 11.1667 515.678 11.06 516.065 11.06C516.452 11.06 516.752 11.1667 516.965 11.38C517.178 11.5933 517.285 11.9067 517.285 12.32V13.68L517.065 13.18C517.358 12.4733 517.812 11.94 518.425 11.58C519.052 11.2067 519.758 11.02 520.545 11.02C521.332 11.02 521.978 11.1667 522.485 11.46C522.992 11.7533 523.372 12.2 523.625 12.8C523.878 13.3867 524.005 14.1333 524.005 15.04V19.88C524.005 20.2933 523.898 20.6133 523.685 20.84C523.472 21.0533 523.165 21.16 522.765 21.16C522.365 21.16 522.052 21.0533 521.825 20.84C521.612 20.6133 521.505 20.2933 521.505 19.88V15.16C521.505 14.4 521.358 13.8467 521.065 13.5C520.785 13.1533 520.345 12.98 519.745 12.98C519.012 12.98 518.425 13.2133 517.985 13.68C517.558 14.1333 517.345 14.74 517.345 15.5V19.88C517.345 20.7333 516.925 21.16 516.085 21.16ZM530.304 21.2C529.451 21.2 528.697 20.9933 528.044 20.58C527.404 20.1667 526.904 19.58 526.544 18.82C526.184 18.0467 526.004 17.14 526.004 16.1C526.004 15.0467 526.184 14.1467 526.544 13.4C526.904 12.64 527.404 12.0533 528.044 11.64C528.697 11.2267 529.451 11.02 530.304 11.02C531.117 11.02 531.824 11.22 532.424 11.62C533.037 12.02 533.451 12.5467 533.664 13.2H533.444V8C533.444 7.58667 533.551 7.27333 533.764 7.06C533.977 6.84667 534.284 6.74 534.684 6.74C535.084 6.74 535.391 6.84667 535.604 7.06C535.831 7.27333 535.944 7.58667 535.944 8V19.88C535.944 20.2933 535.837 20.6133 535.624 20.84C535.411 21.0533 535.104 21.16 534.704 21.16C534.304 21.16 533.997 21.0533 533.784 20.84C533.571 20.6133 533.464 20.2933 533.464 19.88V18.32L533.684 18.92C533.484 19.6133 533.077 20.1667 532.464 20.58C531.851 20.9933 531.131 21.2 530.304 21.2ZM531.004 19.3C531.497 19.3 531.931 19.18 532.304 18.94C532.677 18.7 532.964 18.3467 533.164 17.88C533.377 17.4 533.484 16.8067 533.484 16.1C533.484 15.0333 533.257 14.24 532.804 13.72C532.351 13.1867 531.751 12.92 531.004 12.92C530.511 12.92 530.077 13.04 529.704 13.28C529.331 13.5067 529.037 13.86 528.824 14.34C528.624 14.8067 528.524 15.3933 528.524 16.1C528.524 17.1533 528.751 17.9533 529.204 18.5C529.657 19.0333 530.257 19.3 531.004 19.3ZM545.246 21.16C544.833 21.16 544.513 21.0533 544.286 20.84C544.073 20.6133 543.966 20.2933 543.966 19.88V12.32C543.966 11.9067 544.073 11.5933 544.286 11.38C544.499 11.1667 544.799 11.06 545.186 11.06C545.573 11.06 545.873 11.1667 546.086 11.38C546.299 11.5933 546.406 11.9067 546.406 12.32V13.58H546.206C546.393 12.78 546.759 12.1733 547.306 11.76C547.853 11.3467 548.579 11.1 549.486 11.02C549.766 10.9933 549.986 11.0667 550.146 11.24C550.319 11.4 550.419 11.6533 550.446 12C550.473 12.3333 550.393 12.6067 550.206 12.82C550.033 13.02 549.766 13.14 549.406 13.18L548.966 13.22C548.153 13.3 547.539 13.5533 547.126 13.98C546.713 14.3933 546.506 14.98 546.506 15.74V19.88C546.506 20.2933 546.399 20.6133 546.186 20.84C545.973 21.0533 545.659 21.16 545.246 21.16ZM555.338 21.2C554.525 21.2 553.851 21.0533 553.318 20.76C552.785 20.4533 552.385 20 552.118 19.4C551.865 18.8 551.738 18.0533 551.738 17.16V12.32C551.738 11.8933 551.845 11.58 552.058 11.38C552.271 11.1667 552.578 11.06 552.978 11.06C553.378 11.06 553.685 11.1667 553.898 11.38C554.125 11.58 554.238 11.8933 554.238 12.32V17.2C554.238 17.8933 554.378 18.4067 554.658 18.74C554.938 19.0733 555.385 19.24 555.998 19.24C556.665 19.24 557.211 19.0133 557.638 18.56C558.065 18.0933 558.278 17.48 558.278 16.72V12.32C558.278 11.8933 558.385 11.58 558.598 11.38C558.811 11.1667 559.118 11.06 559.518 11.06C559.918 11.06 560.225 11.1667 560.438 11.38C560.665 11.58 560.778 11.8933 560.778 12.32V19.88C560.778 20.7333 560.371 21.16 559.558 21.16C559.171 21.16 558.871 21.0533 558.658 20.84C558.445 20.6133 558.338 20.2933 558.338 19.88V18.36L558.618 18.96C558.338 19.68 557.911 20.2333 557.338 20.62C556.778 21.0067 556.111 21.2 555.338 21.2ZM564.62 21.16C564.22 21.16 563.913 21.0533 563.7 20.84C563.487 20.6133 563.38 20.2933 563.38 19.88V12.32C563.38 11.9067 563.487 11.5933 563.7 11.38C563.913 11.1667 564.213 11.06 564.6 11.06C564.987 11.06 565.287 11.1667 565.5 11.38C565.713 11.5933 565.82 11.9067 565.82 12.32V13.68L565.6 13.18C565.893 12.4733 566.347 11.94 566.96 11.58C567.587 11.2067 568.293 11.02 569.08 11.02C569.867 11.02 570.513 11.1667 571.02 11.46C571.527 11.7533 571.907 12.2 572.16 12.8C572.413 13.3867 572.54 14.1333 572.54 15.04V19.88C572.54 20.2933 572.433 20.6133 572.22 20.84C572.007 21.0533 571.7 21.16 571.3 21.16C570.9 21.16 570.587 21.0533 570.36 20.84C570.147 20.6133 570.04 20.2933 570.04 19.88V15.16C570.04 14.4 569.893 13.8467 569.6 13.5C569.32 13.1533 568.88 12.98 568.28 12.98C567.547 12.98 566.96 13.2133 566.52 13.68C566.093 14.1333 565.88 14.74 565.88 15.5V19.88C565.88 20.7333 565.46 21.16 564.62 21.16ZM584.969 21.2C583.956 21.2 583.076 20.9933 582.329 20.58C581.582 20.1667 581.002 19.58 580.589 18.82C580.176 18.0467 579.969 17.14 579.969 16.1C579.969 15.3133 580.082 14.6133 580.309 14C580.549 13.3733 580.889 12.84 581.329 12.4C581.769 11.9467 582.296 11.6067 582.909 11.38C583.522 11.14 584.209 11.02 584.969 11.02C585.982 11.02 586.862 11.2267 587.609 11.64C588.356 12.0533 588.936 12.64 589.349 13.4C589.762 14.16 589.969 15.06 589.969 16.1C589.969 16.8867 589.849 17.5933 589.609 18.22C589.382 18.8467 589.049 19.3867 588.609 19.84C588.169 20.28 587.642 20.62 587.029 20.86C586.416 21.0867 585.729 21.2 584.969 21.2ZM584.969 19.3C585.462 19.3 585.896 19.18 586.269 18.94C586.642 18.7 586.929 18.3467 587.129 17.88C587.342 17.4 587.449 16.8067 587.449 16.1C587.449 15.0333 587.222 14.24 586.769 13.72C586.316 13.1867 585.716 12.92 584.969 12.92C584.476 12.92 584.042 13.04 583.669 13.28C583.296 13.5067 583.002 13.86 582.789 14.34C582.589 14.8067 582.489 15.3933 582.489 16.1C582.489 17.1533 582.716 17.9533 583.169 18.5C583.622 19.0333 584.222 19.3 584.969 19.3ZM593.855 21.16C593.455 21.16 593.141 21.0533 592.915 20.84C592.701 20.6133 592.595 20.2933 592.595 19.88V13.1H591.675C591.355 13.1 591.108 13.02 590.935 12.86C590.761 12.6867 590.675 12.4533 590.675 12.16C590.675 11.8533 590.761 11.62 590.935 11.46C591.108 11.3 591.355 11.22 591.675 11.22H593.315L592.595 11.88V11.2C592.595 9.82667 592.941 8.8 593.635 8.12C594.328 7.42667 595.328 7.02 596.635 6.9L597.315 6.84C597.581 6.81333 597.795 6.86 597.955 6.98C598.115 7.08667 598.221 7.23333 598.275 7.42C598.328 7.59333 598.335 7.77333 598.295 7.96C598.255 8.14667 598.168 8.31333 598.035 8.46C597.915 8.59333 597.755 8.66667 597.555 8.68L597.275 8.7C596.515 8.75333 595.961 8.94667 595.615 9.28C595.268 9.61333 595.095 10.12 595.095 10.8V11.54L594.775 11.22H596.795C597.115 11.22 597.361 11.3 597.535 11.46C597.708 11.62 597.795 11.8533 597.795 12.16C597.795 12.4533 597.708 12.6867 597.535 12.86C597.361 13.02 597.115 13.1 596.795 13.1H595.095V19.88C595.095 20.7333 594.681 21.16 593.855 21.16ZM609.13 21.2C608.263 21.2 607.536 21.0533 606.95 20.76C606.376 20.4667 605.95 20.04 605.67 19.48C605.39 18.9067 605.25 18.2 605.25 17.36V13.1H604.21C603.89 13.1 603.643 13.02 603.47 12.86C603.296 12.6867 603.21 12.4533 603.21 12.16C603.21 11.8533 603.296 11.62 603.47 11.46C603.643 11.3 603.89 11.22 604.21 11.22H605.25V9.4C605.25 8.98667 605.356 8.67333 605.57 8.46C605.796 8.24667 606.11 8.14 606.51 8.14C606.91 8.14 607.216 8.24667 607.43 8.46C607.643 8.67333 607.75 8.98667 607.75 9.4V11.22H609.87C610.19 11.22 610.436 11.3 610.61 11.46C610.783 11.62 610.87 11.8533 610.87 12.16C610.87 12.4533 610.783 12.6867 610.61 12.86C610.436 13.02 610.19 13.1 609.87 13.1H607.75V17.22C607.75 17.86 607.89 18.34 608.17 18.66C608.45 18.98 608.903 19.14 609.53 19.14C609.756 19.14 609.956 19.12 610.13 19.08C610.303 19.04 610.456 19.0133 610.59 19C610.75 18.9867 610.883 19.04 610.99 19.16C611.096 19.2667 611.15 19.4933 611.15 19.84C611.15 20.1067 611.103 20.3467 611.01 20.56C610.93 20.76 610.776 20.9 610.55 20.98C610.376 21.0333 610.15 21.08 609.87 21.12C609.59 21.1733 609.343 21.2 609.13 21.2ZM613.819 21.16C613.419 21.16 613.113 21.0533 612.899 20.84C612.686 20.6133 612.579 20.2933 612.579 19.88V8C612.579 7.58667 612.686 7.27333 612.899 7.06C613.113 6.84667 613.419 6.74 613.819 6.74C614.219 6.74 614.526 6.84667 614.739 7.06C614.966 7.27333 615.079 7.58667 615.079 8V13.18H614.799C615.093 12.4733 615.546 11.94 616.159 11.58C616.786 11.2067 617.493 11.02 618.279 11.02C619.066 11.02 619.713 11.1667 620.219 11.46C620.726 11.7533 621.106 12.2 621.359 12.8C621.613 13.3867 621.739 14.1333 621.739 15.04V19.88C621.739 20.2933 621.633 20.6133 621.419 20.84C621.206 21.0533 620.899 21.16 620.499 21.16C620.099 21.16 619.786 21.0533 619.559 20.84C619.346 20.6133 619.239 20.2933 619.239 19.88V15.16C619.239 14.4 619.093 13.8467 618.799 13.5C618.519 13.1533 618.079 12.98 617.479 12.98C616.746 12.98 616.159 13.2133 615.719 13.68C615.293 14.1333 615.079 14.74 615.079 15.5V19.88C615.079 20.7333 614.659 21.16 613.819 21.16ZM629.099 21.2C627.992 21.2 627.039 20.9933 626.239 20.58C625.439 20.1667 624.819 19.58 624.379 18.82C623.952 18.06 623.739 17.16 623.739 16.12C623.739 15.1067 623.945 14.22 624.359 13.46C624.785 12.7 625.365 12.1067 626.099 11.68C626.845 11.24 627.692 11.02 628.639 11.02C629.332 11.02 629.952 11.1333 630.499 11.36C631.059 11.5867 631.532 11.9133 631.919 12.34C632.319 12.7667 632.619 13.2867 632.819 13.9C633.032 14.5 633.139 15.18 633.139 15.94C633.139 16.18 633.052 16.3667 632.879 16.5C632.719 16.62 632.485 16.68 632.179 16.68H625.759V15.24H631.379L631.059 15.54C631.059 14.9267 630.965 14.4133 630.779 14C630.605 13.5867 630.345 13.2733 629.999 13.06C629.665 12.8333 629.245 12.72 628.739 12.72C628.179 12.72 627.699 12.8533 627.299 13.12C626.912 13.3733 626.612 13.74 626.399 14.22C626.199 14.6867 626.099 15.2467 626.099 15.9V16.04C626.099 17.1333 626.352 17.9533 626.859 18.5C627.379 19.0333 628.139 19.3 629.139 19.3C629.485 19.3 629.872 19.26 630.299 19.18C630.739 19.0867 631.152 18.9333 631.539 18.72C631.819 18.56 632.065 18.4933 632.279 18.52C632.492 18.5333 632.659 18.6067 632.779 18.74C632.912 18.8733 632.992 19.04 633.019 19.24C633.045 19.4267 633.005 19.62 632.899 19.82C632.805 20.02 632.639 20.1933 632.399 20.34C631.932 20.6333 631.392 20.8533 630.779 21C630.179 21.1333 629.619 21.2 629.099 21.2ZM643.888 21.2C642.781 21.2 641.948 20.8867 641.388 20.26C640.828 19.62 640.548 18.6867 640.548 17.46V8C640.548 7.58667 640.655 7.27333 640.868 7.06C641.081 6.84667 641.388 6.74 641.788 6.74C642.188 6.74 642.495 6.84667 642.708 7.06C642.935 7.27333 643.048 7.58667 643.048 8V17.34C643.048 17.9533 643.175 18.4067 643.428 18.7C643.695 18.9933 644.068 19.14 644.548 19.14C644.655 19.14 644.755 19.14 644.848 19.14C644.941 19.1267 645.035 19.1133 645.128 19.1C645.315 19.0733 645.441 19.1267 645.508 19.26C645.575 19.38 645.608 19.6333 645.608 20.02C645.608 20.3533 645.541 20.6133 645.408 20.8C645.275 20.9867 645.055 21.1 644.748 21.14C644.615 21.1533 644.475 21.1667 644.328 21.18C644.181 21.1933 644.035 21.2 643.888 21.2ZM648.175 21.14C647.775 21.14 647.468 21.02 647.255 20.78C647.041 20.54 646.935 20.2067 646.935 19.78V12.44C646.935 12 647.041 11.6667 647.255 11.44C647.468 11.2 647.775 11.08 648.175 11.08C648.575 11.08 648.881 11.2 649.095 11.44C649.321 11.6667 649.435 12 649.435 12.44V19.78C649.435 20.2067 649.328 20.54 649.115 20.78C648.901 21.02 648.588 21.14 648.175 21.14ZM648.175 9.22C647.708 9.22 647.341 9.10667 647.075 8.88C646.821 8.64 646.695 8.31333 646.695 7.9C646.695 7.47333 646.821 7.14667 647.075 6.92C647.341 6.69333 647.708 6.58 648.175 6.58C648.655 6.58 649.021 6.69333 649.275 6.92C649.528 7.14667 649.655 7.47333 649.655 7.9C649.655 8.31333 649.528 8.64 649.275 8.88C649.021 9.10667 648.655 9.22 648.175 9.22ZM653.272 21.16C652.872 21.16 652.566 21.0533 652.352 20.84C652.139 20.6133 652.032 20.2933 652.032 19.88V12.32C652.032 11.9067 652.139 11.5933 652.352 11.38C652.566 11.1667 652.866 11.06 653.252 11.06C653.639 11.06 653.939 11.1667 654.152 11.38C654.366 11.5933 654.472 11.9067 654.472 12.32V13.68L654.252 13.18C654.546 12.4733 654.999 11.94 655.612 11.58C656.239 11.2067 656.946 11.02 657.732 11.02C658.519 11.02 659.166 11.1667 659.672 11.46C660.179 11.7533 660.559 12.2 660.812 12.8C661.066 13.3867 661.192 14.1333 661.192 15.04V19.88C661.192 20.2933 661.086 20.6133 660.872 20.84C660.659 21.0533 660.352 21.16 659.952 21.16C659.552 21.16 659.239 21.0533 659.012 20.84C658.799 20.6133 658.692 20.2933 658.692 19.88V15.16C658.692 14.4 658.546 13.8467 658.252 13.5C657.972 13.1533 657.532 12.98 656.932 12.98C656.199 12.98 655.612 13.2133 655.172 13.68C654.746 14.1333 654.532 14.74 654.532 15.5V19.88C654.532 20.7333 654.112 21.16 653.272 21.16ZM668.552 21.2C667.445 21.2 666.492 20.9933 665.692 20.58C664.892 20.1667 664.272 19.58 663.832 18.82C663.405 18.06 663.192 17.16 663.192 16.12C663.192 15.1067 663.398 14.22 663.812 13.46C664.238 12.7 664.818 12.1067 665.552 11.68C666.298 11.24 667.145 11.02 668.092 11.02C668.785 11.02 669.405 11.1333 669.952 11.36C670.512 11.5867 670.985 11.9133 671.372 12.34C671.772 12.7667 672.072 13.2867 672.272 13.9C672.485 14.5 672.592 15.18 672.592 15.94C672.592 16.18 672.505 16.3667 672.332 16.5C672.172 16.62 671.938 16.68 671.632 16.68H665.212V15.24H670.832L670.512 15.54C670.512 14.9267 670.418 14.4133 670.232 14C670.058 13.5867 669.798 13.2733 669.452 13.06C669.118 12.8333 668.698 12.72 668.192 12.72C667.632 12.72 667.152 12.8533 666.752 13.12C666.365 13.3733 666.065 13.74 665.852 14.22C665.652 14.6867 665.552 15.2467 665.552 15.9V16.04C665.552 17.1333 665.805 17.9533 666.312 18.5C666.832 19.0333 667.592 19.3 668.592 19.3C668.938 19.3 669.325 19.26 669.752 19.18C670.192 19.0867 670.605 18.9333 670.992 18.72C671.272 18.56 671.518 18.4933 671.732 18.52C671.945 18.5333 672.112 18.6067 672.232 18.74C672.365 18.8733 672.445 19.04 672.472 19.24C672.498 19.4267 672.458 19.62 672.352 19.82C672.258 20.02 672.092 20.1933 671.852 20.34C671.385 20.6333 670.845 20.8533 670.232 21C669.632 21.1333 669.072 21.2 668.552 21.2ZM675.771 21.1C675.318 21.1 674.951 20.96 674.671 20.68C674.405 20.4 674.271 20.04 674.271 19.6C674.271 19.1733 674.405 18.8267 674.671 18.56C674.951 18.28 675.318 18.14 675.771 18.14C676.238 18.14 676.598 18.28 676.851 18.56C677.118 18.8267 677.251 19.1733 677.251 19.6C677.251 20.04 677.118 20.4 676.851 20.68C676.598 20.96 676.238 21.1 675.771 21.1Z" fill="#444444"/>
</svg>
