<svg width="186" height="60" viewBox="0 0 186 60" fill="none" xmlns="http://www.w3.org/2000/svg">
<rect width="186" height="60" rx="10" fill="#1A1A1A"/>
<path d="M36 22.5C41 22.5 45.27 25.61 47 30C45.27 34.39 41 37.5 36 37.5C35.64 37.5 35.28 37.5 34.92 37.45C34.9714 37.1359 34.9982 36.8183 35 36.5C35 35.94 34.92 35.38 34.76 34.84C35.17 34.94 35.58 35 36 35C38.76 35 41 32.76 41 30C41 27.24 38.76 25 36 25C33.24 25 31 27.24 31 30C31 30.29 31.03 30.59 31.08 30.88C30.42 30.63 29.71 30.5 29 30.5C27.83 30.5 26.69 30.84 25.71 31.5C25.44 31 25.2 30.5 25 30C26.73 25.61 31 22.5 36 22.5ZM36 27C37.66 27 39 28.34 39 30C39 31.66 37.66 33 36 33C34.34 33 33 31.66 33 30C33 28.34 34.34 27 36 27ZM30 33V35H26V37H30V39L33 36L30 33Z" fill="white"/>
<g clip-path="url(#clip0_5695_436)">
<path d="M69.025 38.192C68.593 38.192 68.233 38.096 67.945 37.904C67.673 37.696 67.449 37.392 67.273 36.992L61.009 22.928C60.833 22.528 60.785 22.176 60.865 21.872C60.945 21.568 61.113 21.328 61.369 21.152C61.625 20.976 61.929 20.888 62.281 20.888C62.745 20.888 63.089 20.992 63.313 21.2C63.553 21.392 63.753 21.688 63.913 22.088L69.601 35.264H68.569L74.233 22.064C74.409 21.68 74.617 21.392 74.857 21.2C75.097 20.992 75.433 20.888 75.865 20.888C76.217 20.888 76.505 20.976 76.729 21.152C76.969 21.328 77.121 21.568 77.185 21.872C77.249 22.176 77.193 22.528 77.017 22.928L70.753 36.992C70.577 37.392 70.353 37.696 70.081 37.904C69.825 38.096 69.473 38.192 69.025 38.192ZM81.8097 38.168C81.3297 38.168 80.9617 38.024 80.7057 37.736C80.4497 37.448 80.3217 37.048 80.3217 36.536V27.728C80.3217 27.2 80.4497 26.8 80.7057 26.528C80.9617 26.24 81.3297 26.096 81.8097 26.096C82.2897 26.096 82.6577 26.24 82.9137 26.528C83.1857 26.8 83.3217 27.2 83.3217 27.728V36.536C83.3217 37.048 83.1937 37.448 82.9377 37.736C82.6817 38.024 82.3057 38.168 81.8097 38.168ZM81.8097 23.864C81.2497 23.864 80.8097 23.728 80.4897 23.456C80.1857 23.168 80.0337 22.776 80.0337 22.28C80.0337 21.768 80.1857 21.376 80.4897 21.104C80.8097 20.832 81.2497 20.696 81.8097 20.696C82.3857 20.696 82.8257 20.832 83.1297 21.104C83.4337 21.376 83.5857 21.768 83.5857 22.28C83.5857 22.776 83.4337 23.168 83.1297 23.456C82.8257 23.728 82.3857 23.864 81.8097 23.864ZM90.7349 38.24C90.0469 38.24 89.3189 38.168 88.5509 38.024C87.7829 37.88 87.0949 37.632 86.4869 37.28C86.2309 37.12 86.0469 36.936 85.9349 36.728C85.8389 36.504 85.7989 36.288 85.8149 36.08C85.8469 35.856 85.9269 35.664 86.0549 35.504C86.1989 35.344 86.3749 35.24 86.5829 35.192C86.8069 35.144 87.0469 35.184 87.3029 35.312C87.9429 35.616 88.5429 35.832 89.1029 35.96C89.6629 36.072 90.2149 36.128 90.7589 36.128C91.5269 36.128 92.0949 36 92.4629 35.744C92.8469 35.472 93.0389 35.12 93.0389 34.688C93.0389 34.32 92.9109 34.04 92.6549 33.848C92.4149 33.64 92.0469 33.488 91.5509 33.392L89.1509 32.936C88.1589 32.744 87.3989 32.384 86.8709 31.856C86.3589 31.312 86.1029 30.616 86.1029 29.768C86.1029 29 86.3109 28.336 86.7269 27.776C87.1589 27.216 87.7509 26.784 88.5029 26.48C89.2549 26.176 90.1189 26.024 91.0949 26.024C91.7989 26.024 92.4549 26.104 93.0629 26.264C93.6869 26.408 94.2869 26.64 94.8629 26.96C95.1029 27.088 95.2629 27.256 95.3429 27.464C95.4389 27.672 95.4629 27.888 95.4149 28.112C95.3669 28.32 95.2709 28.512 95.1269 28.688C94.9829 28.848 94.7989 28.952 94.5749 29C94.3669 29.032 94.1269 28.984 93.8549 28.856C93.3589 28.6 92.8789 28.416 92.4149 28.304C91.9669 28.192 91.5349 28.136 91.1189 28.136C90.3349 28.136 89.7509 28.272 89.3669 28.544C88.9989 28.816 88.8149 29.176 88.8149 29.624C88.8149 29.96 88.9269 30.24 89.1509 30.464C89.3749 30.688 89.7189 30.84 90.1829 30.92L92.5829 31.376C93.6229 31.568 94.4069 31.92 94.9349 32.432C95.4789 32.944 95.7509 33.632 95.7509 34.496C95.7509 35.664 95.2949 36.584 94.3829 37.256C93.4709 37.912 92.2549 38.24 90.7349 38.24ZM102.406 38.24C101.43 38.24 100.622 38.064 99.9817 37.712C99.3417 37.344 98.8617 36.8 98.5417 36.08C98.2377 35.36 98.0857 34.464 98.0857 33.392V27.584C98.0857 27.072 98.2137 26.696 98.4697 26.456C98.7257 26.2 99.0937 26.072 99.5737 26.072C100.054 26.072 100.422 26.2 100.678 26.456C100.95 26.696 101.086 27.072 101.086 27.584V33.44C101.086 34.272 101.254 34.888 101.59 35.288C101.926 35.688 102.462 35.888 103.198 35.888C103.998 35.888 104.654 35.616 105.166 35.072C105.678 34.512 105.934 33.776 105.934 32.864V27.584C105.934 27.072 106.062 26.696 106.318 26.456C106.574 26.2 106.942 26.072 107.422 26.072C107.902 26.072 108.27 26.2 108.526 26.456C108.798 26.696 108.934 27.072 108.934 27.584V36.656C108.934 37.68 108.446 38.192 107.47 38.192C107.006 38.192 106.646 38.064 106.39 37.808C106.134 37.536 106.006 37.152 106.006 36.656V34.832L106.342 35.552C106.006 36.416 105.494 37.08 104.806 37.544C104.134 38.008 103.334 38.24 102.406 38.24ZM115.92 38.24C115.072 38.24 114.312 38.08 113.64 37.76C112.984 37.424 112.464 36.976 112.08 36.416C111.712 35.856 111.528 35.224 111.528 34.52C111.528 33.656 111.752 32.976 112.2 32.48C112.648 31.968 113.376 31.6 114.384 31.376C115.392 31.152 116.744 31.04 118.44 31.04H119.64V32.768H118.464C117.472 32.768 116.68 32.816 116.088 32.912C115.496 33.008 115.072 33.176 114.816 33.416C114.576 33.64 114.456 33.96 114.456 34.376C114.456 34.904 114.64 35.336 115.008 35.672C115.376 36.008 115.888 36.176 116.544 36.176C117.072 36.176 117.536 36.056 117.936 35.816C118.352 35.56 118.68 35.216 118.92 34.784C119.16 34.352 119.28 33.856 119.28 33.296V30.536C119.28 29.736 119.104 29.16 118.752 28.808C118.4 28.456 117.808 28.28 116.976 28.28C116.512 28.28 116.008 28.336 115.464 28.448C114.936 28.56 114.376 28.752 113.784 29.024C113.48 29.168 113.208 29.208 112.968 29.144C112.744 29.08 112.568 28.952 112.44 28.76C112.312 28.552 112.248 28.328 112.248 28.088C112.248 27.848 112.312 27.616 112.44 27.392C112.568 27.152 112.784 26.976 113.088 26.864C113.824 26.56 114.528 26.344 115.2 26.216C115.888 26.088 116.512 26.024 117.072 26.024C118.224 26.024 119.168 26.2 119.904 26.552C120.656 26.904 121.216 27.44 121.584 28.16C121.952 28.864 122.136 29.776 122.136 30.896V36.656C122.136 37.152 122.016 37.536 121.776 37.808C121.536 38.064 121.192 38.192 120.744 38.192C120.296 38.192 119.944 38.064 119.688 37.808C119.448 37.536 119.328 37.152 119.328 36.656V35.504H119.52C119.408 36.064 119.184 36.552 118.848 36.968C118.528 37.368 118.12 37.68 117.624 37.904C117.128 38.128 116.56 38.24 115.92 38.24ZM129.189 38.24C127.861 38.24 126.861 37.864 126.189 37.112C125.517 36.344 125.181 35.224 125.181 33.752V22.4C125.181 21.904 125.309 21.528 125.565 21.272C125.821 21.016 126.189 20.888 126.669 20.888C127.149 20.888 127.517 21.016 127.773 21.272C128.045 21.528 128.181 21.904 128.181 22.4V33.608C128.181 34.344 128.333 34.888 128.637 35.24C128.957 35.592 129.405 35.768 129.981 35.768C130.109 35.768 130.229 35.768 130.341 35.768C130.453 35.752 130.565 35.736 130.677 35.72C130.901 35.688 131.053 35.752 131.133 35.912C131.213 36.056 131.253 36.36 131.253 36.824C131.253 37.224 131.173 37.536 131.013 37.76C130.853 37.984 130.589 38.12 130.221 38.168C130.061 38.184 129.893 38.2 129.717 38.216C129.541 38.232 129.365 38.24 129.189 38.24ZM134.333 38.168C133.853 38.168 133.485 38.024 133.229 37.736C132.973 37.448 132.845 37.048 132.845 36.536V27.728C132.845 27.2 132.973 26.8 133.229 26.528C133.485 26.24 133.853 26.096 134.333 26.096C134.813 26.096 135.181 26.24 135.437 26.528C135.709 26.8 135.845 27.2 135.845 27.728V36.536C135.845 37.048 135.717 37.448 135.461 37.736C135.205 38.024 134.829 38.168 134.333 38.168ZM134.333 23.864C133.773 23.864 133.333 23.728 133.013 23.456C132.709 23.168 132.557 22.776 132.557 22.28C132.557 21.768 132.709 21.376 133.013 21.104C133.333 20.832 133.773 20.696 134.333 20.696C134.909 20.696 135.349 20.832 135.653 21.104C135.957 21.376 136.109 21.768 136.109 22.28C136.109 22.776 135.957 23.168 135.653 23.456C135.349 23.728 134.909 23.864 134.333 23.864ZM139.682 38C139.378 38 139.122 37.928 138.914 37.784C138.722 37.624 138.594 37.424 138.53 37.184C138.466 36.944 138.466 36.688 138.53 36.416C138.61 36.128 138.762 35.856 138.986 35.6L145.202 27.8V28.52H139.538C139.17 28.52 138.882 28.424 138.674 28.232C138.482 28.024 138.386 27.744 138.386 27.392C138.386 27.024 138.482 26.744 138.674 26.552C138.882 26.36 139.17 26.264 139.538 26.264H146.642C146.994 26.264 147.282 26.344 147.506 26.504C147.73 26.648 147.874 26.84 147.938 27.08C148.018 27.32 148.026 27.576 147.962 27.848C147.898 28.12 147.754 28.376 147.53 28.616L141.194 36.536V35.744H147.194C147.962 35.744 148.346 36.12 148.346 36.872C148.346 37.224 148.242 37.504 148.034 37.712C147.842 37.904 147.562 38 147.194 38H139.682ZM155.879 38.24C154.551 38.24 153.407 37.992 152.447 37.496C151.487 37 150.743 36.296 150.215 35.384C149.703 34.472 149.447 33.392 149.447 32.144C149.447 30.928 149.695 29.864 150.191 28.952C150.703 28.04 151.399 27.328 152.279 26.816C153.175 26.288 154.191 26.024 155.327 26.024C156.159 26.024 156.903 26.16 157.559 26.432C158.231 26.704 158.799 27.096 159.263 27.608C159.743 28.12 160.103 28.744 160.343 29.48C160.599 30.2 160.727 31.016 160.727 31.928C160.727 32.216 160.623 32.44 160.415 32.6C160.223 32.744 159.943 32.816 159.575 32.816H151.871V31.088H158.615L158.231 31.448C158.231 30.712 158.119 30.096 157.895 29.6C157.687 29.104 157.375 28.728 156.959 28.472C156.559 28.2 156.055 28.064 155.447 28.064C154.775 28.064 154.199 28.224 153.719 28.544C153.255 28.848 152.895 29.288 152.639 29.864C152.399 30.424 152.279 31.096 152.279 31.88V32.048C152.279 33.36 152.583 34.344 153.191 35C153.815 35.64 154.727 35.96 155.927 35.96C156.343 35.96 156.807 35.912 157.319 35.816C157.847 35.704 158.343 35.52 158.807 35.264C159.143 35.072 159.439 34.992 159.695 35.024C159.951 35.04 160.151 35.128 160.295 35.288C160.455 35.448 160.551 35.648 160.583 35.888C160.615 36.112 160.567 36.344 160.439 36.584C160.327 36.824 160.127 37.032 159.839 37.208C159.279 37.56 158.631 37.824 157.895 38C157.175 38.16 156.503 38.24 155.879 38.24Z" fill="white"/>
</g>
<defs>
<clipPath id="clip0_5695_436">
<rect width="102" height="28" fill="white" transform="translate(60 16)"/>
</clipPath>
</defs>
</svg>
