<svg width="203" height="254" viewBox="0 0 203 254" fill="none" xmlns="http://www.w3.org/2000/svg">
<path d="M76.0742 252C145.11 252 201.074 196.036 201.074 127C201.074 57.9644 145.11 2 76.0742 2C47.9007 2 21.9042 11.3206 1.00003 27.0466C1.04897 27.0155 1.074 27 1.074 27C1.074 27 51.074 57.9644 51.074 127C51.074 196.036 1.074 227 1.074 227C1.074 227 1.04895 226.984 1 226.953C21.9042 242.679 47.9007 252 76.0742 252Z" fill="#FFE9D4"/>
<path d="M1.074 27C1.074 27 1.04897 27.0155 1.00003 27.0466C21.9042 11.3206 47.9007 2 76.0742 2C145.11 2 201.074 57.9644 201.074 127C201.074 196.036 145.11 252 76.0742 252C47.9007 252 21.9042 242.679 1 226.953C1.04895 226.984 1.074 227 1.074 227" stroke="#D97A1A" stroke-width="3" stroke-linecap="round"/>
</svg>
