<svg width="91" height="32" viewBox="0 0 91 32" fill="none" xmlns="http://www.w3.org/2000/svg">
<path d="M24.7144 8.18086L20.8196 4.28606C20.7292 4.19553 20.6218 4.12371 20.5036 4.07471C20.3854 4.02571 20.2587 4.00049 20.1307 4.00049C20.0028 4.00049 19.8761 4.02571 19.7578 4.07471C19.6396 4.12371 19.5323 4.19553 19.4418 4.28606L7.75744 15.9704C7.66704 16.0609 7.59537 16.1684 7.5465 16.2866C7.49763 16.4048 7.47253 16.5314 7.47263 16.6593V20.5541C7.47263 20.8124 7.57522 21.06 7.75782 21.2426C7.94042 21.4252 8.18809 21.5278 8.44633 21.5278H12.3411C12.469 21.5279 12.5957 21.5028 12.7139 21.454C12.8321 21.4051 12.9395 21.3334 13.03 21.243L24.7144 9.55864C24.8049 9.46821 24.8768 9.36082 24.9258 9.24262C24.9748 9.12441 25 8.99771 25 8.86975C25 8.74179 24.9748 8.61509 24.9258 8.49688C24.8768 8.37867 24.8049 8.27129 24.7144 8.18086ZM11.9383 19.5804H9.42003V17.0622L17.2096 9.27262L19.7278 11.7908L11.9383 19.5804ZM21.1044 10.4143L18.5862 7.89605L20.1307 6.35152L22.6489 8.86975L21.1044 10.4143ZM24.0255 15.6856V26.3963C24.0255 26.9128 23.8203 27.4081 23.4551 27.7733C23.0899 28.1386 22.5946 28.3437 22.0781 28.3437H2.60414C2.08765 28.3437 1.59233 28.1386 1.22712 27.7733C0.86191 27.4081 0.656738 26.9128 0.656738 26.3963V6.92235C0.656738 6.40587 0.86191 5.91054 1.22712 5.54533C1.59233 5.18012 2.08765 4.97495 2.60414 4.97495H13.3148C13.5731 4.97495 13.8207 5.07754 14.0033 5.26014C14.1859 5.44275 14.2885 5.69041 14.2885 5.94865C14.2885 6.20689 14.1859 6.45456 14.0033 6.63716C13.8207 6.81976 13.5731 6.92235 13.3148 6.92235H2.60414V26.3963H22.0781V15.6856C22.0781 15.4274 22.1807 15.1797 22.3633 14.9971C22.5459 14.8145 22.7936 14.7119 23.0518 14.7119C23.3101 14.7119 23.5577 14.8145 23.7403 14.9971C23.9229 15.1797 24.0255 15.4274 24.0255 15.6856Z" fill="white"/>
<path d="M40.4052 24.192C39.9412 24.192 39.5812 24.064 39.3252 23.808C39.0852 23.552 38.9652 23.184 38.9652 22.704V8.424C38.9652 7.928 39.0852 7.552 39.3252 7.296C39.5812 7.024 39.9092 6.888 40.3092 6.888C40.6772 6.888 40.9492 6.96 41.1252 7.104C41.3172 7.232 41.5412 7.456 41.7972 7.776L50.9892 19.704H50.3652V8.352C50.3652 7.888 50.4852 7.528 50.7252 7.272C50.9812 7.016 51.3412 6.888 51.8052 6.888C52.2692 6.888 52.6212 7.016 52.8612 7.272C53.1012 7.528 53.2212 7.888 53.2212 8.352V22.752C53.2212 23.2 53.1092 23.552 52.8852 23.808C52.6612 24.064 52.3572 24.192 51.9732 24.192C51.6052 24.192 51.3092 24.12 51.0852 23.976C50.8772 23.832 50.6452 23.6 50.3892 23.28L41.2212 11.352H41.8212V22.704C41.8212 23.184 41.7012 23.552 41.4612 23.808C41.2212 24.064 40.8692 24.192 40.4052 24.192ZM61.9823 24.24C60.7663 24.24 59.7103 23.992 58.8143 23.496C57.9183 23 57.2223 22.296 56.7263 21.384C56.2303 20.456 55.9823 19.368 55.9823 18.12C55.9823 17.176 56.1183 16.336 56.3903 15.6C56.6783 14.848 57.0863 14.208 57.6143 13.68C58.1423 13.136 58.7743 12.728 59.5103 12.456C60.2463 12.168 61.0703 12.024 61.9823 12.024C63.1983 12.024 64.2543 12.272 65.1503 12.768C66.0463 13.264 66.7423 13.968 67.2383 14.88C67.7343 15.792 67.9823 16.872 67.9823 18.12C67.9823 19.064 67.8383 19.912 67.5503 20.664C67.2783 21.416 66.8783 22.064 66.3503 22.608C65.8223 23.136 65.1903 23.544 64.4543 23.832C63.7183 24.104 62.8943 24.24 61.9823 24.24ZM61.9823 21.96C62.5743 21.96 63.0943 21.816 63.5423 21.528C63.9903 21.24 64.3343 20.816 64.5743 20.256C64.8303 19.68 64.9583 18.968 64.9583 18.12C64.9583 16.84 64.6863 15.888 64.1423 15.264C63.5983 14.624 62.8783 14.304 61.9823 14.304C61.3903 14.304 60.8703 14.448 60.4223 14.736C59.9743 15.008 59.6223 15.432 59.3663 16.008C59.1263 16.568 59.0063 17.272 59.0063 18.12C59.0063 19.384 59.2783 20.344 59.8223 21C60.3663 21.64 61.0863 21.96 61.9823 21.96ZM75.7173 24.24C74.6773 24.24 73.8053 24.064 73.1013 23.712C72.4133 23.36 71.9013 22.848 71.5653 22.176C71.2293 21.488 71.0613 20.64 71.0613 19.632V14.52H69.8133C69.4293 14.52 69.1333 14.424 68.9253 14.232C68.7172 14.024 68.6132 13.744 68.6132 13.392C68.6132 13.024 68.7172 12.744 68.9253 12.552C69.1333 12.36 69.4293 12.264 69.8133 12.264H71.0613V10.08C71.0613 9.584 71.1893 9.208 71.4453 8.952C71.7173 8.696 72.0933 8.568 72.5733 8.568C73.0533 8.568 73.4213 8.696 73.6773 8.952C73.9333 9.208 74.0613 9.584 74.0613 10.08V12.264H76.6053C76.9893 12.264 77.2853 12.36 77.4933 12.552C77.7013 12.744 77.8053 13.024 77.8053 13.392C77.8053 13.744 77.7013 14.024 77.4933 14.232C77.2853 14.424 76.9893 14.52 76.6053 14.52H74.0613V19.464C74.0613 20.232 74.2293 20.808 74.5653 21.192C74.9013 21.576 75.4453 21.768 76.1973 21.768C76.4693 21.768 76.7093 21.744 76.9173 21.696C77.1253 21.648 77.3093 21.616 77.4693 21.6C77.6613 21.584 77.8213 21.648 77.9493 21.792C78.0773 21.92 78.1413 22.192 78.1413 22.608C78.1413 22.928 78.0853 23.216 77.9733 23.472C77.8773 23.712 77.6933 23.88 77.4213 23.976C77.2133 24.04 76.9413 24.096 76.6053 24.144C76.2693 24.208 75.9733 24.24 75.7173 24.24ZM85.219 24.24C83.891 24.24 82.747 23.992 81.787 23.496C80.827 23 80.083 22.296 79.555 21.384C79.043 20.472 78.787 19.392 78.787 18.144C78.787 16.928 79.035 15.864 79.531 14.952C80.043 14.04 80.739 13.328 81.619 12.816C82.515 12.288 83.531 12.024 84.667 12.024C85.499 12.024 86.243 12.16 86.899 12.432C87.571 12.704 88.139 13.096 88.603 13.608C89.083 14.12 89.443 14.744 89.683 15.48C89.939 16.2 90.067 17.016 90.067 17.928C90.067 18.216 89.963 18.44 89.755 18.6C89.563 18.744 89.283 18.816 88.915 18.816H81.211V17.088H87.955L87.571 17.448C87.571 16.712 87.459 16.096 87.235 15.6C87.027 15.104 86.715 14.728 86.299 14.472C85.899 14.2 85.395 14.064 84.787 14.064C84.115 14.064 83.539 14.224 83.059 14.544C82.595 14.848 82.235 15.288 81.979 15.864C81.739 16.424 81.619 17.096 81.619 17.88V18.048C81.619 19.36 81.923 20.344 82.531 21C83.155 21.64 84.067 21.96 85.267 21.96C85.683 21.96 86.147 21.912 86.659 21.816C87.187 21.704 87.683 21.52 88.147 21.264C88.483 21.072 88.779 20.992 89.035 21.024C89.291 21.04 89.491 21.128 89.635 21.288C89.795 21.448 89.891 21.648 89.923 21.888C89.955 22.112 89.907 22.344 89.779 22.584C89.667 22.824 89.467 23.032 89.179 23.208C88.619 23.56 87.971 23.824 87.235 24C86.515 24.16 85.843 24.24 85.219 24.24Z" fill="white"/>
</svg>
