<svg width="46" height="46" viewBox="0 0 46 46" fill="none" xmlns="http://www.w3.org/2000/svg">
<g opacity="0.5">
<circle cx="23" cy="23" r="15.5" fill="#F6F6F6" stroke="#B3B1B1"/>
<path d="M22.7971 26.12C22.6585 26.12 22.5518 26.0773 22.4771 25.992C22.4025 25.896 22.3651 25.768 22.3651 25.608C22.3651 25.2347 22.4078 24.888 22.4931 24.568C22.5891 24.2373 22.7331 23.9013 22.9251 23.56C23.1278 23.2187 23.3998 22.8507 23.7411 22.456C24.0078 22.136 24.2211 21.8533 24.3811 21.608C24.5411 21.3627 24.6531 21.128 24.7171 20.904C24.7918 20.6693 24.8291 20.4347 24.8291 20.2C24.8291 19.752 24.6691 19.4 24.3491 19.144C24.0291 18.8773 23.5865 18.744 23.0211 18.744C22.5305 18.744 22.0771 18.8187 21.6611 18.968C21.2558 19.1067 20.8611 19.32 20.4771 19.608C20.3171 19.7147 20.1678 19.768 20.0291 19.768C19.9011 19.768 19.7945 19.7307 19.7091 19.656C19.6238 19.5813 19.5651 19.4853 19.5331 19.368C19.5118 19.2507 19.5278 19.128 19.5811 19C19.6451 18.872 19.7518 18.7547 19.9011 18.648C20.3171 18.3173 20.8078 18.056 21.3731 17.864C21.9385 17.672 22.5091 17.576 23.0851 17.576C23.6931 17.576 24.2265 17.6827 24.6851 17.896C25.1545 18.0987 25.5171 18.392 25.7731 18.776C26.0291 19.1493 26.1571 19.592 26.1571 20.104C26.1571 20.4347 26.1091 20.7547 26.0131 21.064C25.9171 21.3627 25.7625 21.6667 25.5491 21.976C25.3465 22.2853 25.0585 22.6373 24.6851 23.032C24.3545 23.3733 24.0878 23.6933 23.8851 23.992C23.6825 24.28 23.5278 24.5627 23.4211 24.84C23.3251 25.1067 23.2611 25.3893 23.2291 25.688C23.2185 25.816 23.1758 25.9227 23.1011 26.008C23.0265 26.0827 22.9251 26.12 22.7971 26.12ZM22.7811 29.064C22.5145 29.064 22.2958 28.984 22.1251 28.824C21.9651 28.6533 21.8851 28.44 21.8851 28.184C21.8851 27.928 21.9651 27.72 22.1251 27.56C22.2958 27.3893 22.5145 27.304 22.7811 27.304C23.0478 27.304 23.2558 27.3893 23.4051 27.56C23.5651 27.72 23.6451 27.928 23.6451 28.184C23.6451 28.44 23.5651 28.6533 23.4051 28.824C23.2558 28.984 23.0478 29.064 22.7811 29.064Z" fill="#B3B1B1"/>
</g>
</svg>
