<svg width="192" height="24" viewBox="0 0 192 24" fill="none" xmlns="http://www.w3.org/2000/svg">
<rect width="191" height="24" transform="translate(0.5)" fill="white"/>
<path d="M15.9591 17.128C15.6285 17.128 15.3725 17.0373 15.1911 16.856C15.0205 16.664 14.9351 16.4027 14.9351 16.072V6.76C14.9351 6.41867 15.0258 6.16267 15.2071 5.992C15.3885 5.81067 15.6445 5.72 15.9751 5.72H19.8311C21.0685 5.72 22.0231 6.02933 22.6951 6.648C23.3671 7.26667 23.7031 8.13067 23.7031 9.24C23.7031 10.3493 23.3671 11.2187 22.6951 11.848C22.0231 12.4667 21.0685 12.776 19.8311 12.776H16.9831V16.072C16.9831 16.4027 16.8978 16.664 16.7271 16.856C16.5565 17.0373 16.3005 17.128 15.9591 17.128ZM16.9831 11.16H19.5111C20.2365 11.16 20.7858 11 21.1591 10.68C21.5325 10.3493 21.7191 9.86933 21.7191 9.24C21.7191 8.61067 21.5325 8.136 21.1591 7.816C20.7858 7.496 20.2365 7.336 19.5111 7.336H16.9831V11.16ZM27.8526 17.16C26.9673 17.16 26.3006 16.9093 25.8526 16.408C25.4046 15.896 25.1806 15.1493 25.1806 14.168V6.6C25.1806 6.26933 25.266 6.01867 25.4366 5.848C25.6073 5.67733 25.8526 5.592 26.1726 5.592C26.4926 5.592 26.738 5.67733 26.9086 5.848C27.09 6.01867 27.1806 6.26933 27.1806 6.6V14.072C27.1806 14.5627 27.282 14.9253 27.4846 15.16C27.698 15.3947 27.9966 15.512 28.3806 15.512C28.466 15.512 28.546 15.512 28.6206 15.512C28.6953 15.5013 28.77 15.4907 28.8446 15.48C28.994 15.4587 29.0953 15.5013 29.1486 15.608C29.202 15.704 29.2286 15.9067 29.2286 16.216C29.2286 16.4827 29.1753 16.6907 29.0686 16.84C28.962 16.9893 28.786 17.08 28.5406 17.112C28.434 17.1227 28.322 17.1333 28.2046 17.144C28.0873 17.1547 27.97 17.16 27.8526 17.16ZM32.866 17.16C32.3007 17.16 31.794 17.0533 31.346 16.84C30.9087 16.616 30.562 16.3173 30.306 15.944C30.0607 15.5707 29.938 15.1493 29.938 14.68C29.938 14.104 30.0873 13.6507 30.386 13.32C30.6847 12.9787 31.17 12.7333 31.842 12.584C32.514 12.4347 33.4153 12.36 34.546 12.36H35.346V13.512H34.562C33.9007 13.512 33.3727 13.544 32.978 13.608C32.5833 13.672 32.3007 13.784 32.13 13.944C31.97 14.0933 31.89 14.3067 31.89 14.584C31.89 14.936 32.0127 15.224 32.258 15.448C32.5033 15.672 32.8447 15.784 33.282 15.784C33.634 15.784 33.9433 15.704 34.21 15.544C34.4873 15.3733 34.706 15.144 34.866 14.856C35.026 14.568 35.106 14.2373 35.106 13.864V12.024C35.106 11.4907 34.9887 11.1067 34.754 10.872C34.5193 10.6373 34.1247 10.52 33.57 10.52C33.2607 10.52 32.9247 10.5573 32.562 10.632C32.21 10.7067 31.8367 10.8347 31.442 11.016C31.2393 11.112 31.058 11.1387 30.898 11.096C30.7487 11.0533 30.6313 10.968 30.546 10.84C30.4607 10.7013 30.418 10.552 30.418 10.392C30.418 10.232 30.4607 10.0773 30.546 9.928C30.6313 9.768 30.7753 9.65067 30.978 9.576C31.4687 9.37333 31.938 9.22933 32.386 9.144C32.8447 9.05867 33.2607 9.016 33.634 9.016C34.402 9.016 35.0313 9.13333 35.522 9.368C36.0233 9.60267 36.3967 9.96 36.642 10.44C36.8873 10.9093 37.01 11.5173 37.01 12.264V16.104C37.01 16.4347 36.93 16.6907 36.77 16.872C36.61 17.0427 36.3807 17.128 36.082 17.128C35.7833 17.128 35.5487 17.0427 35.378 16.872C35.218 16.6907 35.138 16.4347 35.138 16.104V15.336H35.266C35.1913 15.7093 35.042 16.0347 34.818 16.312C34.6047 16.5787 34.3327 16.7867 34.002 16.936C33.6713 17.0853 33.2927 17.16 32.866 17.16ZM40.032 17.128C39.712 17.128 39.4667 17.0427 39.296 16.872C39.1253 16.6907 39.04 16.4347 39.04 16.104V10.056C39.04 9.72533 39.1253 9.47467 39.296 9.304C39.4667 9.13333 39.7067 9.048 40.016 9.048C40.3253 9.048 40.5653 9.13333 40.736 9.304C40.9067 9.47467 40.992 9.72533 40.992 10.056V11.144L40.816 10.744C41.0507 10.1787 41.4133 9.752 41.904 9.464C42.4053 9.16533 42.9707 9.016 43.6 9.016C44.2293 9.016 44.7467 9.13333 45.152 9.368C45.5573 9.60267 45.8613 9.96 46.064 10.44C46.2667 10.9093 46.368 11.5067 46.368 12.232V16.104C46.368 16.4347 46.2827 16.6907 46.112 16.872C45.9413 17.0427 45.696 17.128 45.376 17.128C45.056 17.128 44.8053 17.0427 44.624 16.872C44.4533 16.6907 44.368 16.4347 44.368 16.104V12.328C44.368 11.72 44.2507 11.2773 44.016 11C43.792 10.7227 43.44 10.584 42.96 10.584C42.3733 10.584 41.904 10.7707 41.552 11.144C41.2107 11.5067 41.04 11.992 41.04 12.6V16.104C41.04 16.7867 40.704 17.128 40.032 17.128ZM52.2554 17.16C51.37 17.16 50.6074 16.9947 49.9674 16.664C49.3274 16.3333 48.8314 15.864 48.4794 15.256C48.138 14.648 47.9674 13.928 47.9674 13.096C47.9674 12.2853 48.1327 11.576 48.4634 10.968C48.8047 10.36 49.2687 9.88533 49.8554 9.544C50.4527 9.192 51.13 9.016 51.8874 9.016C52.442 9.016 52.938 9.10667 53.3754 9.288C53.8234 9.46933 54.202 9.73067 54.5114 10.072C54.8314 10.4133 55.0714 10.8293 55.2314 11.32C55.402 11.8 55.4874 12.344 55.4874 12.952C55.4874 13.144 55.418 13.2933 55.2794 13.4C55.1514 13.496 54.9647 13.544 54.7194 13.544H49.5834V12.392H54.0794L53.8234 12.632C53.8234 12.1413 53.7487 11.7307 53.5994 11.4C53.4607 11.0693 53.2527 10.8187 52.9754 10.648C52.7087 10.4667 52.3727 10.376 51.9674 10.376C51.5194 10.376 51.1354 10.4827 50.8154 10.696C50.506 10.8987 50.266 11.192 50.0954 11.576C49.9354 11.9493 49.8554 12.3973 49.8554 12.92V13.032C49.8554 13.9067 50.058 14.5627 50.4634 15C50.8794 15.4267 51.4874 15.64 52.2874 15.64C52.5647 15.64 52.874 15.608 53.2154 15.544C53.5674 15.4693 53.898 15.3467 54.2074 15.176C54.4314 15.048 54.6287 14.9947 54.7994 15.016C54.97 15.0267 55.1034 15.0853 55.1994 15.192C55.306 15.2987 55.37 15.432 55.3914 15.592C55.4127 15.7413 55.3807 15.896 55.2954 16.056C55.2207 16.216 55.0874 16.3547 54.8954 16.472C54.522 16.7067 54.09 16.8827 53.5994 17C53.1194 17.1067 52.6714 17.16 52.2554 17.16ZM64.983 17.16C64.1723 17.16 63.4683 16.9947 62.871 16.664C62.2737 16.3333 61.8097 15.864 61.479 15.256C61.1483 14.6373 60.983 13.912 60.983 13.08C60.983 12.4507 61.0737 11.8907 61.255 11.4C61.447 10.8987 61.719 10.472 62.071 10.12C62.423 9.75733 62.8443 9.48533 63.335 9.304C63.8257 9.112 64.375 9.016 64.983 9.016C65.7937 9.016 66.4977 9.18133 67.095 9.512C67.6923 9.84267 68.1563 10.312 68.487 10.92C68.8177 11.528 68.983 12.248 68.983 13.08C68.983 13.7093 68.887 14.2747 68.695 14.776C68.5137 15.2773 68.247 15.7093 67.895 16.072C67.543 16.424 67.1217 16.696 66.631 16.888C66.1403 17.0693 65.591 17.16 64.983 17.16ZM64.983 15.64C65.3777 15.64 65.7243 15.544 66.023 15.352C66.3217 15.16 66.551 14.8773 66.711 14.504C66.8817 14.12 66.967 13.6453 66.967 13.08C66.967 12.2267 66.7857 11.592 66.423 11.176C66.0603 10.7493 65.5803 10.536 64.983 10.536C64.5883 10.536 64.2417 10.632 63.943 10.824C63.6443 11.0053 63.4097 11.288 63.239 11.672C63.079 12.0453 62.999 12.5147 62.999 13.08C62.999 13.9227 63.1803 14.5627 63.543 15C63.9057 15.4267 64.3857 15.64 64.983 15.64ZM72.0916 17.128C71.7716 17.128 71.521 17.0427 71.3396 16.872C71.169 16.6907 71.0836 16.4347 71.0836 16.104V10.68H70.3476C70.0916 10.68 69.8943 10.616 69.7556 10.488C69.617 10.3493 69.5476 10.1627 69.5476 9.928C69.5476 9.68267 69.617 9.496 69.7556 9.368C69.8943 9.24 70.0916 9.176 70.3476 9.176H71.6596L71.0836 9.704V9.16C71.0836 8.06133 71.361 7.24 71.9156 6.696C72.4703 6.14133 73.2703 5.816 74.3156 5.72L74.8596 5.672C75.073 5.65067 75.2436 5.688 75.3716 5.784C75.4996 5.86933 75.585 5.98667 75.6276 6.136C75.6703 6.27467 75.6756 6.41867 75.6436 6.568C75.6116 6.71733 75.5423 6.85067 75.4356 6.968C75.3396 7.07467 75.2116 7.13333 75.0516 7.144L74.8276 7.16C74.2196 7.20267 73.777 7.35733 73.4996 7.624C73.2223 7.89067 73.0836 8.296 73.0836 8.84V9.432L72.8276 9.176H74.4436C74.6996 9.176 74.897 9.24 75.0356 9.368C75.1743 9.496 75.2436 9.68267 75.2436 9.928C75.2436 10.1627 75.1743 10.3493 75.0356 10.488C74.897 10.616 74.6996 10.68 74.4436 10.68H73.0836V16.104C73.0836 16.7867 72.753 17.128 72.0916 17.128ZM84.3435 17.16C83.5222 17.16 82.8075 16.9947 82.1995 16.664C81.5915 16.3227 81.1222 15.8427 80.7915 15.224C80.4608 14.6053 80.2955 13.88 80.2955 13.048C80.2955 12.4187 80.3862 11.8587 80.5675 11.368C80.7595 10.8667 81.0315 10.4453 81.3835 10.104C81.7355 9.752 82.1622 9.48533 82.6635 9.304C83.1648 9.112 83.7248 9.016 84.3435 9.016C84.6955 9.016 85.0742 9.064 85.4795 9.16C85.8955 9.256 86.2848 9.416 86.6475 9.64C86.8182 9.74667 86.9302 9.87467 86.9835 10.024C87.0368 10.1733 87.0475 10.328 87.0155 10.488C86.9835 10.6373 86.9142 10.7707 86.8075 10.888C86.7115 10.9947 86.5888 11.064 86.4395 11.096C86.2902 11.1173 86.1248 11.08 85.9435 10.984C85.7088 10.8453 85.4688 10.744 85.2235 10.68C84.9782 10.6053 84.7435 10.568 84.5195 10.568C84.1675 10.568 83.8582 10.6267 83.5915 10.744C83.3248 10.8507 83.0955 11.0107 82.9035 11.224C82.7222 11.4267 82.5835 11.6827 82.4875 11.992C82.3915 12.3013 82.3435 12.6587 82.3435 13.064C82.3435 13.8533 82.5302 14.4773 82.9035 14.936C83.2875 15.384 83.8262 15.608 84.5195 15.608C84.7435 15.608 84.9728 15.576 85.2075 15.512C85.4528 15.448 85.6982 15.3467 85.9435 15.208C86.1248 15.112 86.2848 15.08 86.4235 15.112C86.5728 15.144 86.6955 15.2187 86.7915 15.336C86.8875 15.4427 86.9462 15.576 86.9675 15.736C86.9888 15.8853 86.9675 16.0347 86.9035 16.184C86.8502 16.3333 86.7435 16.456 86.5835 16.552C86.2315 16.7653 85.8582 16.92 85.4635 17.016C85.0688 17.112 84.6955 17.16 84.3435 17.16ZM89.2984 17.128C88.9677 17.128 88.7117 17.0427 88.5304 16.872C88.3597 16.6907 88.2744 16.4347 88.2744 16.104V10.056C88.2744 9.72533 88.3597 9.47467 88.5304 9.304C88.701 9.13333 88.941 9.048 89.2504 9.048C89.5597 9.048 89.7997 9.13333 89.9704 9.304C90.141 9.47467 90.2264 9.72533 90.2264 10.056V11.064H90.0664C90.2157 10.424 90.509 9.93867 90.9464 9.608C91.3837 9.27733 91.965 9.08 92.6904 9.016C92.9144 8.99467 93.0904 9.05333 93.2184 9.192C93.357 9.32 93.437 9.52267 93.4584 9.8C93.4797 10.0667 93.4157 10.2853 93.2664 10.456C93.1277 10.616 92.9144 10.712 92.6264 10.744L92.2744 10.776C91.6237 10.84 91.133 11.0427 90.8024 11.384C90.4717 11.7147 90.3064 12.184 90.3064 12.792V16.104C90.3064 16.4347 90.221 16.6907 90.0504 16.872C89.8797 17.0427 89.629 17.128 89.2984 17.128ZM97.983 17.16C97.1723 17.16 96.4683 16.9947 95.871 16.664C95.2737 16.3333 94.8097 15.864 94.479 15.256C94.1483 14.6373 93.983 13.912 93.983 13.08C93.983 12.4507 94.0737 11.8907 94.255 11.4C94.447 10.8987 94.719 10.472 95.071 10.12C95.423 9.75733 95.8443 9.48533 96.335 9.304C96.8257 9.112 97.375 9.016 97.983 9.016C98.7937 9.016 99.4977 9.18133 100.095 9.512C100.692 9.84267 101.156 10.312 101.487 10.92C101.818 11.528 101.983 12.248 101.983 13.08C101.983 13.7093 101.887 14.2747 101.695 14.776C101.514 15.2773 101.247 15.7093 100.895 16.072C100.543 16.424 100.122 16.696 99.631 16.888C99.1403 17.0693 98.591 17.16 97.983 17.16ZM97.983 15.64C98.3777 15.64 98.7243 15.544 99.023 15.352C99.3217 15.16 99.551 14.8773 99.711 14.504C99.8817 14.12 99.967 13.6453 99.967 13.08C99.967 12.2267 99.7857 11.592 99.423 11.176C99.0603 10.7493 98.5803 10.536 97.983 10.536C97.5883 10.536 97.2417 10.632 96.943 10.824C96.6443 11.0053 96.4097 11.288 96.239 11.672C96.079 12.0453 95.999 12.5147 95.999 13.08C95.999 13.9227 96.1803 14.5627 96.543 15C96.9057 15.4267 97.3857 15.64 97.983 15.64ZM106.498 17.16C106.039 17.16 105.554 17.112 105.042 17.016C104.53 16.92 104.071 16.7547 103.666 16.52C103.495 16.4133 103.372 16.2907 103.298 16.152C103.234 16.0027 103.207 15.8587 103.218 15.72C103.239 15.5707 103.292 15.4427 103.378 15.336C103.474 15.2293 103.591 15.16 103.73 15.128C103.879 15.096 104.039 15.1227 104.21 15.208C104.636 15.4107 105.036 15.5547 105.41 15.64C105.783 15.7147 106.151 15.752 106.514 15.752C107.026 15.752 107.404 15.6667 107.65 15.496C107.906 15.3147 108.034 15.08 108.034 14.792C108.034 14.5467 107.948 14.36 107.778 14.232C107.618 14.0933 107.372 13.992 107.042 13.928L105.442 13.624C104.78 13.496 104.274 13.256 103.922 12.904C103.58 12.5413 103.41 12.0773 103.41 11.512C103.41 11 103.548 10.5573 103.826 10.184C104.114 9.81067 104.508 9.52267 105.01 9.32C105.511 9.11733 106.087 9.016 106.738 9.016C107.207 9.016 107.644 9.06933 108.05 9.176C108.466 9.272 108.866 9.42667 109.25 9.64C109.41 9.72533 109.516 9.83733 109.57 9.976C109.634 10.1147 109.65 10.2587 109.618 10.408C109.586 10.5467 109.522 10.6747 109.426 10.792C109.33 10.8987 109.207 10.968 109.058 11C108.919 11.0213 108.759 10.9893 108.578 10.904C108.247 10.7333 107.927 10.6107 107.618 10.536C107.319 10.4613 107.031 10.424 106.754 10.424C106.231 10.424 105.842 10.5147 105.586 10.696C105.34 10.8773 105.218 11.1173 105.218 11.416C105.218 11.64 105.292 11.8267 105.442 11.976C105.591 12.1253 105.82 12.2267 106.13 12.28L107.73 12.584C108.423 12.712 108.946 12.9467 109.298 13.288C109.66 13.6293 109.842 14.088 109.842 14.664C109.842 15.4427 109.538 16.056 108.93 16.504C108.322 16.9413 107.511 17.16 106.498 17.16ZM114.31 17.16C113.852 17.16 113.366 17.112 112.854 17.016C112.342 16.92 111.884 16.7547 111.478 16.52C111.308 16.4133 111.185 16.2907 111.11 16.152C111.046 16.0027 111.02 15.8587 111.03 15.72C111.052 15.5707 111.105 15.4427 111.19 15.336C111.286 15.2293 111.404 15.16 111.542 15.128C111.692 15.096 111.852 15.1227 112.022 15.208C112.449 15.4107 112.849 15.5547 113.222 15.64C113.596 15.7147 113.964 15.752 114.326 15.752C114.838 15.752 115.217 15.6667 115.462 15.496C115.718 15.3147 115.846 15.08 115.846 14.792C115.846 14.5467 115.761 14.36 115.59 14.232C115.43 14.0933 115.185 13.992 114.854 13.928L113.254 13.624C112.593 13.496 112.086 13.256 111.734 12.904C111.393 12.5413 111.222 12.0773 111.222 11.512C111.222 11 111.361 10.5573 111.638 10.184C111.926 9.81067 112.321 9.52267 112.822 9.32C113.324 9.11733 113.9 9.016 114.55 9.016C115.02 9.016 115.457 9.06933 115.862 9.176C116.278 9.272 116.678 9.42667 117.062 9.64C117.222 9.72533 117.329 9.83733 117.382 9.976C117.446 10.1147 117.462 10.2587 117.43 10.408C117.398 10.5467 117.334 10.6747 117.238 10.792C117.142 10.8987 117.02 10.968 116.87 11C116.732 11.0213 116.572 10.9893 116.39 10.904C116.06 10.7333 115.74 10.6107 115.43 10.536C115.132 10.4613 114.844 10.424 114.566 10.424C114.044 10.424 113.654 10.5147 113.398 10.696C113.153 10.8773 113.03 11.1173 113.03 11.416C113.03 11.64 113.105 11.8267 113.254 11.976C113.404 12.1253 113.633 12.2267 113.942 12.28L115.542 12.584C116.236 12.712 116.758 12.9467 117.11 13.288C117.473 13.6293 117.654 14.088 117.654 14.664C117.654 15.4427 117.35 16.056 116.742 16.504C116.134 16.9413 115.324 17.16 114.31 17.16ZM119.995 13.512C119.76 13.512 119.563 13.4373 119.403 13.288C119.253 13.128 119.179 12.936 119.179 12.712C119.179 12.4773 119.253 12.2853 119.403 12.136C119.563 11.9867 119.76 11.912 119.995 11.912H123.403C123.627 11.912 123.813 11.9867 123.963 12.136C124.123 12.2853 124.203 12.4773 124.203 12.712C124.203 12.936 124.123 13.128 123.963 13.288C123.813 13.4373 123.627 13.512 123.403 13.512H119.995ZM129.138 17.16C128.68 17.16 128.194 17.112 127.682 17.016C127.17 16.92 126.712 16.7547 126.306 16.52C126.136 16.4133 126.013 16.2907 125.938 16.152C125.874 16.0027 125.848 15.8587 125.858 15.72C125.88 15.5707 125.933 15.4427 126.018 15.336C126.114 15.2293 126.232 15.16 126.37 15.128C126.52 15.096 126.68 15.1227 126.85 15.208C127.277 15.4107 127.677 15.5547 128.05 15.64C128.424 15.7147 128.792 15.752 129.154 15.752C129.666 15.752 130.045 15.6667 130.29 15.496C130.546 15.3147 130.674 15.08 130.674 14.792C130.674 14.5467 130.589 14.36 130.418 14.232C130.258 14.0933 130.013 13.992 129.682 13.928L128.082 13.624C127.421 13.496 126.914 13.256 126.562 12.904C126.221 12.5413 126.05 12.0773 126.05 11.512C126.05 11 126.189 10.5573 126.466 10.184C126.754 9.81067 127.149 9.52267 127.65 9.32C128.152 9.11733 128.728 9.016 129.378 9.016C129.848 9.016 130.285 9.06933 130.69 9.176C131.106 9.272 131.506 9.42667 131.89 9.64C132.05 9.72533 132.157 9.83733 132.21 9.976C132.274 10.1147 132.29 10.2587 132.258 10.408C132.226 10.5467 132.162 10.6747 132.066 10.792C131.97 10.8987 131.848 10.968 131.698 11C131.56 11.0213 131.4 10.9893 131.218 10.904C130.888 10.7333 130.568 10.6107 130.258 10.536C129.96 10.4613 129.672 10.424 129.394 10.424C128.872 10.424 128.482 10.5147 128.226 10.696C127.981 10.8773 127.858 11.1173 127.858 11.416C127.858 11.64 127.933 11.8267 128.082 11.976C128.232 12.1253 128.461 12.2267 128.77 12.28L130.37 12.584C131.064 12.712 131.586 12.9467 131.938 13.288C132.301 13.6293 132.482 14.088 132.482 14.664C132.482 15.4427 132.178 16.056 131.57 16.504C130.962 16.9413 130.152 17.16 129.138 17.16ZM137.943 17.16C137.058 17.16 136.295 16.9947 135.655 16.664C135.015 16.3333 134.519 15.864 134.167 15.256C133.826 14.648 133.655 13.928 133.655 13.096C133.655 12.2853 133.82 11.576 134.151 10.968C134.492 10.36 134.956 9.88533 135.543 9.544C136.14 9.192 136.818 9.016 137.575 9.016C138.13 9.016 138.626 9.10667 139.063 9.288C139.511 9.46933 139.89 9.73067 140.199 10.072C140.519 10.4133 140.759 10.8293 140.919 11.32C141.09 11.8 141.175 12.344 141.175 12.952C141.175 13.144 141.106 13.2933 140.967 13.4C140.839 13.496 140.652 13.544 140.407 13.544H135.271V12.392H139.767L139.511 12.632C139.511 12.1413 139.436 11.7307 139.287 11.4C139.148 11.0693 138.94 10.8187 138.663 10.648C138.396 10.4667 138.06 10.376 137.655 10.376C137.207 10.376 136.823 10.4827 136.503 10.696C136.194 10.8987 135.954 11.192 135.783 11.576C135.623 11.9493 135.543 12.3973 135.543 12.92V13.032C135.543 13.9067 135.746 14.5627 136.151 15C136.567 15.4267 137.175 15.64 137.975 15.64C138.252 15.64 138.562 15.608 138.903 15.544C139.255 15.4693 139.586 15.3467 139.895 15.176C140.119 15.048 140.316 14.9947 140.487 15.016C140.658 15.0267 140.791 15.0853 140.887 15.192C140.994 15.2987 141.058 15.432 141.079 15.592C141.1 15.7413 141.068 15.896 140.983 16.056C140.908 16.216 140.775 16.3547 140.583 16.472C140.21 16.7067 139.778 16.8827 139.287 17C138.807 17.1067 138.359 17.16 137.943 17.16ZM146.375 17.16C145.553 17.16 144.839 16.9947 144.231 16.664C143.623 16.3227 143.153 15.8427 142.823 15.224C142.492 14.6053 142.327 13.88 142.327 13.048C142.327 12.4187 142.417 11.8587 142.599 11.368C142.791 10.8667 143.063 10.4453 143.415 10.104C143.767 9.752 144.193 9.48533 144.695 9.304C145.196 9.112 145.756 9.016 146.375 9.016C146.727 9.016 147.105 9.064 147.511 9.16C147.927 9.256 148.316 9.416 148.679 9.64C148.849 9.74667 148.961 9.87467 149.015 10.024C149.068 10.1733 149.079 10.328 149.047 10.488C149.015 10.6373 148.945 10.7707 148.839 10.888C148.743 10.9947 148.62 11.064 148.471 11.096C148.321 11.1173 148.156 11.08 147.975 10.984C147.74 10.8453 147.5 10.744 147.255 10.68C147.009 10.6053 146.775 10.568 146.551 10.568C146.199 10.568 145.889 10.6267 145.623 10.744C145.356 10.8507 145.127 11.0107 144.935 11.224C144.753 11.4267 144.615 11.6827 144.519 11.992C144.423 12.3013 144.375 12.6587 144.375 13.064C144.375 13.8533 144.561 14.4773 144.935 14.936C145.319 15.384 145.857 15.608 146.551 15.608C146.775 15.608 147.004 15.576 147.239 15.512C147.484 15.448 147.729 15.3467 147.975 15.208C148.156 15.112 148.316 15.08 148.455 15.112C148.604 15.144 148.727 15.2187 148.823 15.336C148.919 15.4427 148.977 15.576 148.999 15.736C149.02 15.8853 148.999 16.0347 148.935 16.184C148.881 16.3333 148.775 16.456 148.615 16.552C148.263 16.7653 147.889 16.92 147.495 17.016C147.1 17.112 146.727 17.16 146.375 17.16ZM153.921 17.16C153.228 17.16 152.646 17.0427 152.177 16.808C151.718 16.5733 151.377 16.232 151.153 15.784C150.929 15.3253 150.817 14.76 150.817 14.088V10.68H149.985C149.729 10.68 149.532 10.616 149.393 10.488C149.254 10.3493 149.185 10.1627 149.185 9.928C149.185 9.68267 149.254 9.496 149.393 9.368C149.532 9.24 149.729 9.176 149.985 9.176H150.817V7.72C150.817 7.38933 150.902 7.13867 151.073 6.968C151.254 6.79733 151.505 6.712 151.825 6.712C152.145 6.712 152.39 6.79733 152.561 6.968C152.732 7.13867 152.817 7.38933 152.817 7.72V9.176H154.513C154.769 9.176 154.966 9.24 155.105 9.368C155.244 9.496 155.313 9.68267 155.313 9.928C155.313 10.1627 155.244 10.3493 155.105 10.488C154.966 10.616 154.769 10.68 154.513 10.68H152.817V13.976C152.817 14.488 152.929 14.872 153.153 15.128C153.377 15.384 153.74 15.512 154.241 15.512C154.422 15.512 154.582 15.496 154.721 15.464C154.86 15.432 154.982 15.4107 155.089 15.4C155.217 15.3893 155.324 15.432 155.409 15.528C155.494 15.6133 155.537 15.7947 155.537 16.072C155.537 16.2853 155.5 16.4773 155.425 16.648C155.361 16.808 155.238 16.92 155.057 16.984C154.918 17.0267 154.737 17.064 154.513 17.096C154.289 17.1387 154.092 17.16 153.921 17.16ZM157.673 17.112C157.353 17.112 157.107 17.016 156.937 16.824C156.766 16.632 156.681 16.3653 156.681 16.024V10.152C156.681 9.8 156.766 9.53333 156.937 9.352C157.107 9.16 157.353 9.064 157.673 9.064C157.993 9.064 158.238 9.16 158.409 9.352C158.59 9.53333 158.681 9.8 158.681 10.152V16.024C158.681 16.3653 158.595 16.632 158.425 16.824C158.254 17.016 158.003 17.112 157.673 17.112ZM157.673 7.576C157.299 7.576 157.006 7.48533 156.793 7.304C156.59 7.112 156.489 6.85067 156.489 6.52C156.489 6.17867 156.59 5.91733 156.793 5.736C157.006 5.55467 157.299 5.464 157.673 5.464C158.057 5.464 158.35 5.55467 158.553 5.736C158.755 5.91733 158.857 6.17867 158.857 6.52C158.857 6.85067 158.755 7.112 158.553 7.304C158.35 7.48533 158.057 7.576 157.673 7.576ZM164.327 17.16C163.516 17.16 162.812 16.9947 162.215 16.664C161.617 16.3333 161.153 15.864 160.823 15.256C160.492 14.6373 160.327 13.912 160.327 13.08C160.327 12.4507 160.417 11.8907 160.599 11.4C160.791 10.8987 161.063 10.472 161.415 10.12C161.767 9.75733 162.188 9.48533 162.679 9.304C163.169 9.112 163.719 9.016 164.327 9.016C165.137 9.016 165.841 9.18133 166.439 9.512C167.036 9.84267 167.5 10.312 167.831 10.92C168.161 11.528 168.327 12.248 168.327 13.08C168.327 13.7093 168.231 14.2747 168.039 14.776C167.857 15.2773 167.591 15.7093 167.239 16.072C166.887 16.424 166.465 16.696 165.975 16.888C165.484 17.0693 164.935 17.16 164.327 17.16ZM164.327 15.64C164.721 15.64 165.068 15.544 165.367 15.352C165.665 15.16 165.895 14.8773 166.055 14.504C166.225 14.12 166.311 13.6453 166.311 13.08C166.311 12.2267 166.129 11.592 165.767 11.176C165.404 10.7493 164.924 10.536 164.327 10.536C163.932 10.536 163.585 10.632 163.287 10.824C162.988 11.0053 162.753 11.288 162.583 11.672C162.423 12.0453 162.343 12.5147 162.343 13.08C162.343 13.9227 162.524 14.5627 162.887 15C163.249 15.4267 163.729 15.64 164.327 15.64ZM170.97 17.128C170.65 17.128 170.404 17.0427 170.234 16.872C170.063 16.6907 169.978 16.4347 169.978 16.104V10.056C169.978 9.72533 170.063 9.47467 170.234 9.304C170.404 9.13333 170.644 9.048 170.954 9.048C171.263 9.048 171.503 9.13333 171.674 9.304C171.844 9.47467 171.93 9.72533 171.93 10.056V11.144L171.754 10.744C171.988 10.1787 172.351 9.752 172.842 9.464C173.343 9.16533 173.908 9.016 174.538 9.016C175.167 9.016 175.684 9.13333 176.09 9.368C176.495 9.60267 176.799 9.96 177.002 10.44C177.204 10.9093 177.306 11.5067 177.306 12.232V16.104C177.306 16.4347 177.22 16.6907 177.05 16.872C176.879 17.0427 176.634 17.128 176.314 17.128C175.994 17.128 175.743 17.0427 175.562 16.872C175.391 16.6907 175.306 16.4347 175.306 16.104V12.328C175.306 11.72 175.188 11.2773 174.954 11C174.73 10.7227 174.378 10.584 173.898 10.584C173.311 10.584 172.842 10.7707 172.49 11.144C172.148 11.5067 171.978 11.992 171.978 12.6V16.104C171.978 16.7867 171.642 17.128 170.97 17.128Z" fill="#1A1A1A"/>
</svg>
