<svg width="530" height="28" viewBox="0 0 530 28" fill="none" xmlns="http://www.w3.org/2000/svg">
<path d="M1.3532 21.16C0.93987 21.16 0.61987 21.0467 0.393203 20.82C0.17987 20.58 0.0732033 20.2533 0.0732033 19.84V8.2C0.0732033 7.77333 0.186537 7.45333 0.413203 7.24C0.63987 7.01333 0.95987 6.9 1.3732 6.9H6.1932C7.73987 6.9 8.9332 7.27333 9.7732 8.02C10.6132 8.75333 11.0332 9.78667 11.0332 11.12C11.0332 11.9867 10.8399 12.7333 10.4532 13.36C10.0799 13.9867 9.5332 14.4667 8.8132 14.8C8.0932 15.1333 7.21987 15.3 6.1932 15.3L6.3732 15H7.0332C7.57987 15 8.0532 15.1333 8.4532 15.4C8.86654 15.6667 9.22654 16.0867 9.5332 16.66L11.0332 19.44C11.1932 19.72 11.2665 19.9933 11.2532 20.26C11.2399 20.5267 11.1399 20.7467 10.9532 20.92C10.7665 21.08 10.4932 21.16 10.1332 21.16C9.7732 21.16 9.47987 21.0867 9.2532 20.94C9.02654 20.78 8.82654 20.54 8.6532 20.22L6.6332 16.5C6.3932 16.0467 6.10654 15.7467 5.7732 15.6C5.4532 15.44 5.03987 15.36 4.5332 15.36H2.6332V19.84C2.6332 20.2533 2.52654 20.58 2.3132 20.82C2.09987 21.0467 1.77987 21.16 1.3532 21.16ZM2.6332 13.46H5.7532C6.6732 13.46 7.36654 13.2733 7.8332 12.9C8.3132 12.5133 8.5532 11.94 8.5532 11.18C8.5532 10.4333 8.3132 9.87333 7.8332 9.5C7.36654 9.11333 6.6732 8.92 5.7532 8.92H2.6332V13.46ZM18.1102 21.2C17.0036 21.2 16.0502 20.9933 15.2502 20.58C14.4502 20.1667 13.8302 19.58 13.3902 18.82C12.9636 18.06 12.7502 17.16 12.7502 16.12C12.7502 15.1067 12.9569 14.22 13.3702 13.46C13.7969 12.7 14.3769 12.1067 15.1102 11.68C15.8569 11.24 16.7036 11.02 17.6502 11.02C18.3436 11.02 18.9636 11.1333 19.5102 11.36C20.0702 11.5867 20.5436 11.9133 20.9302 12.34C21.3302 12.7667 21.6302 13.2867 21.8302 13.9C22.0436 14.5 22.1502 15.18 22.1502 15.94C22.1502 16.18 22.0636 16.3667 21.8902 16.5C21.7302 16.62 21.4969 16.68 21.1902 16.68H14.7702V15.24H20.3902L20.0702 15.54C20.0702 14.9267 19.9769 14.4133 19.7902 14C19.6169 13.5867 19.3569 13.2733 19.0102 13.06C18.6769 12.8333 18.2569 12.72 17.7502 12.72C17.1902 12.72 16.7102 12.8533 16.3102 13.12C15.9236 13.3733 15.6236 13.74 15.4102 14.22C15.2102 14.6867 15.1102 15.2467 15.1102 15.9V16.04C15.1102 17.1333 15.3636 17.9533 15.8702 18.5C16.3902 19.0333 17.1502 19.3 18.1502 19.3C18.4969 19.3 18.8836 19.26 19.3102 19.18C19.7502 19.0867 20.1636 18.9333 20.5502 18.72C20.8302 18.56 21.0769 18.4933 21.2902 18.52C21.5036 18.5333 21.6702 18.6067 21.7902 18.74C21.9236 18.8733 22.0036 19.04 22.0302 19.24C22.0569 19.4267 22.0169 19.62 21.9102 19.82C21.8169 20.02 21.6502 20.1933 21.4102 20.34C20.9436 20.6333 20.4036 20.8533 19.7902 21C19.1902 21.1333 18.6302 21.2 18.1102 21.2ZM28.6501 21.2C27.6234 21.2 26.7301 20.9933 25.9701 20.58C25.2101 20.1533 24.6234 19.5533 24.2101 18.78C23.7967 18.0067 23.5901 17.1 23.5901 16.06C23.5901 15.2733 23.7034 14.5733 23.9301 13.96C24.1701 13.3333 24.5101 12.8067 24.9501 12.38C25.3901 11.94 25.9234 11.6067 26.5501 11.38C27.1767 11.14 27.8767 11.02 28.6501 11.02C29.0901 11.02 29.5634 11.08 30.0701 11.2C30.5901 11.32 31.0767 11.52 31.5301 11.8C31.7434 11.9333 31.8834 12.0933 31.9501 12.28C32.0167 12.4667 32.0301 12.66 31.9901 12.86C31.9501 13.0467 31.8634 13.2133 31.7301 13.36C31.6101 13.4933 31.4567 13.58 31.2701 13.62C31.0834 13.6467 30.8767 13.6 30.6501 13.48C30.3567 13.3067 30.0567 13.18 29.7501 13.1C29.4434 13.0067 29.1501 12.96 28.8701 12.96C28.4301 12.96 28.0434 13.0333 27.7101 13.18C27.3767 13.3133 27.0901 13.5133 26.8501 13.78C26.6234 14.0333 26.4501 14.3533 26.3301 14.74C26.2101 15.1267 26.1501 15.5733 26.1501 16.08C26.1501 17.0667 26.3834 17.8467 26.8501 18.42C27.3301 18.98 28.0034 19.26 28.8701 19.26C29.1501 19.26 29.4367 19.22 29.7301 19.14C30.0367 19.06 30.3434 18.9333 30.6501 18.76C30.8767 18.64 31.0767 18.6 31.2501 18.64C31.4367 18.68 31.5901 18.7733 31.7101 18.92C31.8301 19.0533 31.9034 19.22 31.9301 19.42C31.9567 19.6067 31.9301 19.7933 31.8501 19.98C31.7834 20.1667 31.6501 20.32 31.4501 20.44C31.0101 20.7067 30.5434 20.9 30.0501 21.02C29.5567 21.14 29.0901 21.2 28.6501 21.2ZM38.0827 21.2C37.2161 21.2 36.4894 21.0533 35.9027 20.76C35.3294 20.4667 34.9027 20.04 34.6227 19.48C34.3427 18.9067 34.2027 18.2 34.2027 17.36V13.1H33.1627C32.8427 13.1 32.5961 13.02 32.4227 12.86C32.2494 12.6867 32.1627 12.4533 32.1627 12.16C32.1627 11.8533 32.2494 11.62 32.4227 11.46C32.5961 11.3 32.8427 11.22 33.1627 11.22H34.2027V9.4C34.2027 8.98667 34.3094 8.67333 34.5227 8.46C34.7494 8.24667 35.0627 8.14 35.4627 8.14C35.8627 8.14 36.1694 8.24667 36.3827 8.46C36.5961 8.67333 36.7027 8.98667 36.7027 9.4V11.22H38.8227C39.1427 11.22 39.3894 11.3 39.5627 11.46C39.7361 11.62 39.8227 11.8533 39.8227 12.16C39.8227 12.4533 39.7361 12.6867 39.5627 12.86C39.3894 13.02 39.1427 13.1 38.8227 13.1H36.7027V17.22C36.7027 17.86 36.8427 18.34 37.1227 18.66C37.4027 18.98 37.8561 19.14 38.4827 19.14C38.7094 19.14 38.9094 19.12 39.0827 19.08C39.2561 19.04 39.4094 19.0133 39.5427 19C39.7027 18.9867 39.8361 19.04 39.9427 19.16C40.0494 19.2667 40.1027 19.4933 40.1027 19.84C40.1027 20.1067 40.0561 20.3467 39.9627 20.56C39.8827 20.76 39.7294 20.9 39.5027 20.98C39.3294 21.0333 39.1027 21.08 38.8227 21.12C38.5427 21.1733 38.2961 21.2 38.0827 21.2ZM44.4985 21.2C43.7918 21.2 43.1585 21.0667 42.5985 20.8C42.0518 20.52 41.6185 20.1467 41.2985 19.68C40.9918 19.2133 40.8385 18.6867 40.8385 18.1C40.8385 17.38 41.0252 16.8133 41.3985 16.4C41.7718 15.9733 42.3785 15.6667 43.2185 15.48C44.0585 15.2933 45.1852 15.2 46.5985 15.2H47.5985V16.64H46.6185C45.7918 16.64 45.1318 16.68 44.6385 16.76C44.1452 16.84 43.7918 16.98 43.5785 17.18C43.3785 17.3667 43.2785 17.6333 43.2785 17.98C43.2785 18.42 43.4318 18.78 43.7385 19.06C44.0452 19.34 44.4718 19.48 45.0185 19.48C45.4585 19.48 45.8452 19.38 46.1785 19.18C46.5252 18.9667 46.7985 18.68 46.9985 18.32C47.1985 17.96 47.2985 17.5467 47.2985 17.08V14.78C47.2985 14.1133 47.1518 13.6333 46.8585 13.34C46.5652 13.0467 46.0718 12.9 45.3785 12.9C44.9918 12.9 44.5718 12.9467 44.1185 13.04C43.6785 13.1333 43.2118 13.2933 42.7185 13.52C42.4652 13.64 42.2385 13.6733 42.0385 13.62C41.8518 13.5667 41.7052 13.46 41.5985 13.3C41.4918 13.1267 41.4385 12.94 41.4385 12.74C41.4385 12.54 41.4918 12.3467 41.5985 12.16C41.7052 11.96 41.8852 11.8133 42.1385 11.72C42.7518 11.4667 43.3385 11.2867 43.8985 11.18C44.4718 11.0733 44.9918 11.02 45.4585 11.02C46.4185 11.02 47.2052 11.1667 47.8185 11.46C48.4452 11.7533 48.9118 12.2 49.2185 12.8C49.5252 13.3867 49.6785 14.1467 49.6785 15.08V19.88C49.6785 20.2933 49.5785 20.6133 49.3785 20.84C49.1785 21.0533 48.8918 21.16 48.5185 21.16C48.1452 21.16 47.8518 21.0533 47.6385 20.84C47.4385 20.6133 47.3385 20.2933 47.3385 19.88V18.92H47.4985C47.4052 19.3867 47.2185 19.7933 46.9385 20.14C46.6718 20.4733 46.3318 20.7333 45.9185 20.92C45.5052 21.1067 45.0318 21.2 44.4985 21.2ZM53.456 21.16C53.056 21.16 52.7493 21.0533 52.536 20.84C52.3227 20.6133 52.216 20.2933 52.216 19.88V12.32C52.216 11.9067 52.3227 11.5933 52.536 11.38C52.7493 11.1667 53.0493 11.06 53.436 11.06C53.8227 11.06 54.1227 11.1667 54.336 11.38C54.5493 11.5933 54.656 11.9067 54.656 12.32V13.68L54.436 13.18C54.7293 12.4733 55.1827 11.94 55.796 11.58C56.4227 11.2067 57.1293 11.02 57.916 11.02C58.7027 11.02 59.3493 11.1667 59.856 11.46C60.3627 11.7533 60.7427 12.2 60.996 12.8C61.2493 13.3867 61.376 14.1333 61.376 15.04V19.88C61.376 20.2933 61.2693 20.6133 61.056 20.84C60.8427 21.0533 60.536 21.16 60.136 21.16C59.736 21.16 59.4227 21.0533 59.196 20.84C58.9827 20.6133 58.876 20.2933 58.876 19.88V15.16C58.876 14.4 58.7293 13.8467 58.436 13.5C58.156 13.1533 57.716 12.98 57.116 12.98C56.3827 12.98 55.796 13.2133 55.356 13.68C54.9293 14.1333 54.716 14.74 54.716 15.5V19.88C54.716 20.7333 54.296 21.16 53.456 21.16ZM68.4752 24.8C67.7552 24.8 67.0552 24.7333 66.3752 24.6C65.7086 24.4667 65.1019 24.26 64.5552 23.98C64.3019 23.8467 64.1286 23.6867 64.0352 23.5C63.9552 23.3133 63.9286 23.12 63.9552 22.92C63.9952 22.7333 64.0752 22.5667 64.1952 22.42C64.3286 22.2733 64.4886 22.1733 64.6752 22.12C64.8619 22.0667 65.0552 22.0933 65.2552 22.2C65.8419 22.4933 66.3952 22.68 66.9152 22.76C67.4486 22.8533 67.9019 22.9 68.2752 22.9C69.1686 22.9 69.8352 22.68 70.2752 22.24C70.7286 21.8133 70.9552 21.1733 70.9552 20.32V18.52H71.1352C70.9352 19.2 70.5152 19.7467 69.8752 20.16C69.2486 20.56 68.5352 20.76 67.7352 20.76C66.8552 20.76 66.0886 20.56 65.4352 20.16C64.7819 19.7467 64.2752 19.1733 63.9152 18.44C63.5552 17.7067 63.3752 16.8533 63.3752 15.88C63.3752 15.1467 63.4752 14.4867 63.6752 13.9C63.8886 13.3 64.1819 12.7867 64.5552 12.36C64.9419 11.9333 65.4019 11.6067 65.9352 11.38C66.4819 11.14 67.0819 11.02 67.7352 11.02C68.5619 11.02 69.2819 11.2267 69.8952 11.64C70.5219 12.04 70.9286 12.5733 71.1152 13.24L70.9152 13.74V12.32C70.9152 11.9067 71.0219 11.5933 71.2352 11.38C71.4619 11.1667 71.7686 11.06 72.1552 11.06C72.5552 11.06 72.8619 11.1667 73.0752 11.38C73.2886 11.5933 73.3952 11.9067 73.3952 12.32V20.02C73.3952 21.6067 72.9752 22.8 72.1352 23.6C71.2952 24.4 70.0752 24.8 68.4752 24.8ZM68.4152 18.86C68.9352 18.86 69.3819 18.74 69.7552 18.5C70.1286 18.26 70.4152 17.92 70.6152 17.48C70.8286 17.0267 70.9352 16.4933 70.9352 15.88C70.9352 14.96 70.7086 14.24 70.2552 13.72C69.8019 13.1867 69.1886 12.92 68.4152 12.92C67.8952 12.92 67.4486 13.04 67.0752 13.28C66.7019 13.52 66.4086 13.86 66.1952 14.3C65.9952 14.74 65.8952 15.2667 65.8952 15.88C65.8952 16.8 66.1219 17.5267 66.5752 18.06C67.0286 18.5933 67.6419 18.86 68.4152 18.86ZM79.5255 21.2C78.7122 21.2 78.0389 21.0533 77.5055 20.76C76.9722 20.4533 76.5722 20 76.3055 19.4C76.0522 18.8 75.9255 18.0533 75.9255 17.16V12.32C75.9255 11.8933 76.0322 11.58 76.2455 11.38C76.4589 11.1667 76.7655 11.06 77.1655 11.06C77.5655 11.06 77.8722 11.1667 78.0855 11.38C78.3122 11.58 78.4255 11.8933 78.4255 12.32V17.2C78.4255 17.8933 78.5655 18.4067 78.8455 18.74C79.1255 19.0733 79.5722 19.24 80.1855 19.24C80.8522 19.24 81.3989 19.0133 81.8255 18.56C82.2522 18.0933 82.4655 17.48 82.4655 16.72V12.32C82.4655 11.8933 82.5722 11.58 82.7855 11.38C82.9989 11.1667 83.3055 11.06 83.7055 11.06C84.1055 11.06 84.4122 11.1667 84.6255 11.38C84.8522 11.58 84.9655 11.8933 84.9655 12.32V19.88C84.9655 20.7333 84.5589 21.16 83.7455 21.16C83.3589 21.16 83.0589 21.0533 82.8455 20.84C82.6322 20.6133 82.5255 20.2933 82.5255 19.88V18.36L82.8055 18.96C82.5255 19.68 82.0989 20.2333 81.5255 20.62C80.9655 21.0067 80.2989 21.2 79.5255 21.2ZM90.9076 21.2C89.8009 21.2 88.9676 20.8867 88.4076 20.26C87.8476 19.62 87.5676 18.6867 87.5676 17.46V8C87.5676 7.58667 87.6742 7.27333 87.8876 7.06C88.1009 6.84667 88.4076 6.74 88.8076 6.74C89.2076 6.74 89.5142 6.84667 89.7276 7.06C89.9542 7.27333 90.0676 7.58667 90.0676 8V17.34C90.0676 17.9533 90.1942 18.4067 90.4476 18.7C90.7142 18.9933 91.0876 19.14 91.5676 19.14C91.6742 19.14 91.7742 19.14 91.8676 19.14C91.9609 19.1267 92.0542 19.1133 92.1476 19.1C92.3342 19.0733 92.4609 19.1267 92.5276 19.26C92.5942 19.38 92.6276 19.6333 92.6276 20.02C92.6276 20.3533 92.5609 20.6133 92.4276 20.8C92.2942 20.9867 92.0742 21.1 91.7676 21.14C91.6342 21.1533 91.4942 21.1667 91.3476 21.18C91.2009 21.1933 91.0542 21.2 90.9076 21.2ZM97.1743 21.2C96.4676 21.2 95.8343 21.0667 95.2743 20.8C94.7276 20.52 94.2943 20.1467 93.9743 19.68C93.6676 19.2133 93.5143 18.6867 93.5143 18.1C93.5143 17.38 93.701 16.8133 94.0743 16.4C94.4476 15.9733 95.0543 15.6667 95.8943 15.48C96.7343 15.2933 97.861 15.2 99.2743 15.2H100.274V16.64H99.2943C98.4676 16.64 97.8076 16.68 97.3143 16.76C96.821 16.84 96.4676 16.98 96.2543 17.18C96.0543 17.3667 95.9543 17.6333 95.9543 17.98C95.9543 18.42 96.1076 18.78 96.4143 19.06C96.721 19.34 97.1476 19.48 97.6943 19.48C98.1343 19.48 98.521 19.38 98.8543 19.18C99.201 18.9667 99.4743 18.68 99.6743 18.32C99.8743 17.96 99.9743 17.5467 99.9743 17.08V14.78C99.9743 14.1133 99.8276 13.6333 99.5343 13.34C99.241 13.0467 98.7476 12.9 98.0543 12.9C97.6676 12.9 97.2476 12.9467 96.7943 13.04C96.3543 13.1333 95.8876 13.2933 95.3943 13.52C95.141 13.64 94.9143 13.6733 94.7143 13.62C94.5276 13.5667 94.381 13.46 94.2743 13.3C94.1676 13.1267 94.1143 12.94 94.1143 12.74C94.1143 12.54 94.1676 12.3467 94.2743 12.16C94.381 11.96 94.561 11.8133 94.8143 11.72C95.4276 11.4667 96.0143 11.2867 96.5743 11.18C97.1476 11.0733 97.6676 11.02 98.1343 11.02C99.0943 11.02 99.881 11.1667 100.494 11.46C101.121 11.7533 101.588 12.2 101.894 12.8C102.201 13.3867 102.354 14.1467 102.354 15.08V19.88C102.354 20.2933 102.254 20.6133 102.054 20.84C101.854 21.0533 101.568 21.16 101.194 21.16C100.821 21.16 100.528 21.0533 100.314 20.84C100.114 20.6133 100.014 20.2933 100.014 19.88V18.92H100.174C100.081 19.3867 99.8943 19.7933 99.6143 20.14C99.3476 20.4733 99.0076 20.7333 98.5943 20.92C98.181 21.1067 97.7076 21.2 97.1743 21.2ZM106.172 21.16C105.758 21.16 105.438 21.0533 105.212 20.84C104.998 20.6133 104.892 20.2933 104.892 19.88V12.32C104.892 11.9067 104.998 11.5933 105.212 11.38C105.425 11.1667 105.725 11.06 106.112 11.06C106.498 11.06 106.798 11.1667 107.012 11.38C107.225 11.5933 107.332 11.9067 107.332 12.32V13.58H107.132C107.318 12.78 107.685 12.1733 108.232 11.76C108.778 11.3467 109.505 11.1 110.412 11.02C110.692 10.9933 110.912 11.0667 111.072 11.24C111.245 11.4 111.345 11.6533 111.372 12C111.398 12.3333 111.318 12.6067 111.132 12.82C110.958 13.02 110.692 13.14 110.332 13.18L109.892 13.22C109.078 13.3 108.465 13.5533 108.052 13.98C107.638 14.3933 107.432 14.98 107.432 15.74V19.88C107.432 20.2933 107.325 20.6133 107.112 20.84C106.898 21.0533 106.585 21.16 106.172 21.16ZM119.394 24.76C118.994 24.76 118.687 24.6533 118.474 24.44C118.26 24.2267 118.154 23.9133 118.154 23.5V12.32C118.154 11.9067 118.26 11.5933 118.474 11.38C118.687 11.1667 118.987 11.06 119.374 11.06C119.774 11.06 120.08 11.1667 120.294 11.38C120.507 11.5933 120.614 11.9067 120.614 12.32V13.88L120.394 13.28C120.594 12.6 121 12.0533 121.614 11.64C122.24 11.2267 122.967 11.02 123.794 11.02C124.647 11.02 125.394 11.2267 126.034 11.64C126.687 12.0533 127.194 12.64 127.554 13.4C127.914 14.1467 128.094 15.0467 128.094 16.1C128.094 17.14 127.914 18.0467 127.554 18.82C127.194 19.58 126.694 20.1667 126.054 20.58C125.414 20.9933 124.66 21.2 123.794 21.2C122.98 21.2 122.267 21 121.654 20.6C121.04 20.1867 120.627 19.6533 120.414 19H120.654V23.5C120.654 23.9133 120.54 24.2267 120.314 24.44C120.1 24.6533 119.794 24.76 119.394 24.76ZM123.094 19.3C123.587 19.3 124.02 19.18 124.394 18.94C124.767 18.7 125.054 18.3467 125.254 17.88C125.467 17.4 125.574 16.8067 125.574 16.1C125.574 15.0333 125.347 14.24 124.894 13.72C124.44 13.1867 123.84 12.92 123.094 12.92C122.6 12.92 122.167 13.04 121.794 13.28C121.42 13.5067 121.127 13.86 120.914 14.34C120.714 14.8067 120.614 15.3933 120.614 16.1C120.614 17.1533 120.84 17.9533 121.294 18.5C121.747 19.0333 122.347 19.3 123.094 19.3ZM131.426 21.16C131.012 21.16 130.692 21.0533 130.466 20.84C130.252 20.6133 130.146 20.2933 130.146 19.88V12.32C130.146 11.9067 130.252 11.5933 130.466 11.38C130.679 11.1667 130.979 11.06 131.366 11.06C131.752 11.06 132.052 11.1667 132.266 11.38C132.479 11.5933 132.586 11.9067 132.586 12.32V13.58H132.386C132.572 12.78 132.939 12.1733 133.486 11.76C134.032 11.3467 134.759 11.1 135.666 11.02C135.946 10.9933 136.166 11.0667 136.326 11.24C136.499 11.4 136.599 11.6533 136.626 12C136.652 12.3333 136.572 12.6067 136.386 12.82C136.212 13.02 135.946 13.14 135.586 13.18L135.146 13.22C134.332 13.3 133.719 13.5533 133.306 13.98C132.892 14.3933 132.686 14.98 132.686 15.74V19.88C132.686 20.2933 132.579 20.6133 132.366 20.84C132.152 21.0533 131.839 21.16 131.426 21.16ZM139.218 21.14C138.818 21.14 138.511 21.02 138.298 20.78C138.084 20.54 137.978 20.2067 137.978 19.78V12.44C137.978 12 138.084 11.6667 138.298 11.44C138.511 11.2 138.818 11.08 139.218 11.08C139.618 11.08 139.924 11.2 140.138 11.44C140.364 11.6667 140.478 12 140.478 12.44V19.78C140.478 20.2067 140.371 20.54 140.158 20.78C139.944 21.02 139.631 21.14 139.218 21.14ZM139.218 9.22C138.751 9.22 138.384 9.10667 138.118 8.88C137.864 8.64 137.738 8.31333 137.738 7.9C137.738 7.47333 137.864 7.14667 138.118 6.92C138.384 6.69333 138.751 6.58 139.218 6.58C139.698 6.58 140.064 6.69333 140.318 6.92C140.571 7.14667 140.698 7.47333 140.698 7.9C140.698 8.31333 140.571 8.64 140.318 8.88C140.064 9.10667 139.698 9.22 139.218 9.22ZM146.655 21.2C146.082 21.2 145.475 21.14 144.835 21.02C144.195 20.9 143.622 20.6933 143.115 20.4C142.902 20.2667 142.749 20.1133 142.655 19.94C142.575 19.7533 142.542 19.5733 142.555 19.4C142.582 19.2133 142.649 19.0533 142.755 18.92C142.875 18.7867 143.022 18.7 143.195 18.66C143.382 18.62 143.582 18.6533 143.795 18.76C144.329 19.0133 144.829 19.1933 145.295 19.3C145.762 19.3933 146.222 19.44 146.675 19.44C147.315 19.44 147.789 19.3333 148.095 19.12C148.415 18.8933 148.575 18.6 148.575 18.24C148.575 17.9333 148.469 17.7 148.255 17.54C148.055 17.3667 147.749 17.24 147.335 17.16L145.335 16.78C144.509 16.62 143.875 16.32 143.435 15.88C143.009 15.4267 142.795 14.8467 142.795 14.14C142.795 13.5 142.969 12.9467 143.315 12.48C143.675 12.0133 144.169 11.6533 144.795 11.4C145.422 11.1467 146.142 11.02 146.955 11.02C147.542 11.02 148.089 11.0867 148.595 11.22C149.115 11.34 149.615 11.5333 150.095 11.8C150.295 11.9067 150.429 12.0467 150.495 12.22C150.575 12.3933 150.595 12.5733 150.555 12.76C150.515 12.9333 150.435 13.0933 150.315 13.24C150.195 13.3733 150.042 13.46 149.855 13.5C149.682 13.5267 149.482 13.4867 149.255 13.38C148.842 13.1667 148.442 13.0133 148.055 12.92C147.682 12.8267 147.322 12.78 146.975 12.78C146.322 12.78 145.835 12.8933 145.515 13.12C145.209 13.3467 145.055 13.6467 145.055 14.02C145.055 14.3 145.149 14.5333 145.335 14.72C145.522 14.9067 145.809 15.0333 146.195 15.1L148.195 15.48C149.062 15.64 149.715 15.9333 150.155 16.36C150.609 16.7867 150.835 17.36 150.835 18.08C150.835 19.0533 150.455 19.82 149.695 20.38C148.935 20.9267 147.922 21.2 146.655 21.2ZM154.121 21.16C153.721 21.16 153.414 21.0533 153.201 20.84C152.988 20.6133 152.881 20.2933 152.881 19.88V12.32C152.881 11.9067 152.988 11.5933 153.201 11.38C153.414 11.1667 153.714 11.06 154.101 11.06C154.488 11.06 154.788 11.1667 155.001 11.38C155.214 11.5933 155.321 11.9067 155.321 12.32V13.78L155.101 13.18C155.368 12.5133 155.781 11.9867 156.341 11.6C156.901 11.2133 157.568 11.02 158.341 11.02C159.128 11.02 159.774 11.2067 160.281 11.58C160.788 11.9533 161.141 12.5267 161.341 13.3H161.061C161.328 12.5933 161.768 12.04 162.381 11.64C162.994 11.2267 163.701 11.02 164.501 11.02C165.248 11.02 165.861 11.1667 166.341 11.46C166.834 11.7533 167.201 12.2 167.441 12.8C167.681 13.3867 167.801 14.1333 167.801 15.04V19.88C167.801 20.2933 167.688 20.6133 167.461 20.84C167.248 21.0533 166.941 21.16 166.541 21.16C166.141 21.16 165.834 21.0533 165.621 20.84C165.408 20.6133 165.301 20.2933 165.301 19.88V15.14C165.301 14.3933 165.174 13.8467 164.921 13.5C164.681 13.1533 164.268 12.98 163.681 12.98C163.028 12.98 162.514 13.2133 162.141 13.68C161.768 14.1333 161.581 14.7667 161.581 15.58V19.88C161.581 20.2933 161.474 20.6133 161.261 20.84C161.048 21.0533 160.741 21.16 160.341 21.16C159.941 21.16 159.628 21.0533 159.401 20.84C159.188 20.6133 159.081 20.2933 159.081 19.88V15.14C159.081 14.3933 158.954 13.8467 158.701 13.5C158.461 13.1533 158.054 12.98 157.481 12.98C156.828 12.98 156.314 13.2133 155.941 13.68C155.568 14.1333 155.381 14.7667 155.381 15.58V19.88C155.381 20.7333 154.961 21.16 154.121 21.16ZM171.52 12.86C171.28 12.86 171.067 12.7733 170.88 12.6C170.707 12.4267 170.607 12.1933 170.58 11.9L170.2 8.2C170.16 7.78667 170.267 7.44 170.52 7.16C170.773 6.88 171.107 6.74 171.52 6.74C171.787 6.74 172.02 6.80667 172.22 6.94C172.433 7.06 172.593 7.23333 172.7 7.46C172.807 7.67333 172.847 7.92 172.82 8.2L172.44 11.9C172.413 12.1933 172.313 12.4267 172.14 12.6C171.98 12.7733 171.773 12.86 171.52 12.86ZM178.823 21.2C178.25 21.2 177.643 21.14 177.003 21.02C176.363 20.9 175.79 20.6933 175.283 20.4C175.07 20.2667 174.917 20.1133 174.823 19.94C174.743 19.7533 174.71 19.5733 174.723 19.4C174.75 19.2133 174.817 19.0533 174.923 18.92C175.043 18.7867 175.19 18.7 175.363 18.66C175.55 18.62 175.75 18.6533 175.963 18.76C176.497 19.0133 176.997 19.1933 177.463 19.3C177.93 19.3933 178.39 19.44 178.843 19.44C179.483 19.44 179.957 19.3333 180.263 19.12C180.583 18.8933 180.743 18.6 180.743 18.24C180.743 17.9333 180.637 17.7 180.423 17.54C180.223 17.3667 179.917 17.24 179.503 17.16L177.503 16.78C176.677 16.62 176.043 16.32 175.603 15.88C175.177 15.4267 174.963 14.8467 174.963 14.14C174.963 13.5 175.137 12.9467 175.483 12.48C175.843 12.0133 176.337 11.6533 176.963 11.4C177.59 11.1467 178.31 11.02 179.123 11.02C179.71 11.02 180.257 11.0867 180.763 11.22C181.283 11.34 181.783 11.5333 182.263 11.8C182.463 11.9067 182.597 12.0467 182.663 12.22C182.743 12.3933 182.763 12.5733 182.723 12.76C182.683 12.9333 182.603 13.0933 182.483 13.24C182.363 13.3733 182.21 13.46 182.023 13.5C181.85 13.5267 181.65 13.4867 181.423 13.38C181.01 13.1667 180.61 13.0133 180.223 12.92C179.85 12.8267 179.49 12.78 179.143 12.78C178.49 12.78 178.003 12.8933 177.683 13.12C177.377 13.3467 177.223 13.6467 177.223 14.02C177.223 14.3 177.317 14.5333 177.503 14.72C177.69 14.9067 177.977 15.0333 178.363 15.1L180.363 15.48C181.23 15.64 181.883 15.9333 182.323 16.36C182.777 16.7867 183.003 17.36 183.003 18.08C183.003 19.0533 182.623 19.82 181.863 20.38C181.103 20.9267 180.09 21.2 178.823 21.2ZM194.399 21.16C194.065 21.16 193.772 21.0733 193.519 20.9C193.279 20.7267 193.079 20.46 192.919 20.1L189.739 12.72C189.619 12.4267 189.572 12.1533 189.599 11.9C189.639 11.6467 189.759 11.4467 189.959 11.3C190.172 11.14 190.459 11.06 190.819 11.06C191.125 11.06 191.372 11.1333 191.559 11.28C191.745 11.4133 191.912 11.6733 192.059 12.06L194.759 18.8H194.159L196.939 12.04C197.085 11.6667 197.252 11.4133 197.439 11.28C197.639 11.1333 197.905 11.06 198.239 11.06C198.532 11.06 198.765 11.14 198.939 11.3C199.112 11.4467 199.219 11.6467 199.259 11.9C199.299 12.14 199.252 12.4067 199.119 12.7L195.879 20.1C195.732 20.46 195.532 20.7267 195.279 20.9C195.039 21.0733 194.745 21.16 194.399 21.16ZM205.61 21.2C204.504 21.2 203.55 20.9933 202.75 20.58C201.95 20.1667 201.33 19.58 200.89 18.82C200.464 18.06 200.25 17.16 200.25 16.12C200.25 15.1067 200.457 14.22 200.87 13.46C201.297 12.7 201.877 12.1067 202.61 11.68C203.357 11.24 204.204 11.02 205.15 11.02C205.844 11.02 206.464 11.1333 207.01 11.36C207.57 11.5867 208.044 11.9133 208.43 12.34C208.83 12.7667 209.13 13.2867 209.33 13.9C209.544 14.5 209.65 15.18 209.65 15.94C209.65 16.18 209.564 16.3667 209.39 16.5C209.23 16.62 208.997 16.68 208.69 16.68H202.27V15.24H207.89L207.57 15.54C207.57 14.9267 207.477 14.4133 207.29 14C207.117 13.5867 206.857 13.2733 206.51 13.06C206.177 12.8333 205.757 12.72 205.25 12.72C204.69 12.72 204.21 12.8533 203.81 13.12C203.424 13.3733 203.124 13.74 202.91 14.22C202.71 14.6867 202.61 15.2467 202.61 15.9V16.04C202.61 17.1333 202.864 17.9533 203.37 18.5C203.89 19.0333 204.65 19.3 205.65 19.3C205.997 19.3 206.384 19.26 206.81 19.18C207.25 19.0867 207.664 18.9333 208.05 18.72C208.33 18.56 208.577 18.4933 208.79 18.52C209.004 18.5333 209.17 18.6067 209.29 18.74C209.424 18.8733 209.504 19.04 209.53 19.24C209.557 19.4267 209.517 19.62 209.41 19.82C209.317 20.02 209.15 20.1933 208.91 20.34C208.444 20.6333 207.904 20.8533 207.29 21C206.69 21.1333 206.13 21.2 205.61 21.2ZM212.91 21.16C212.497 21.16 212.177 21.0533 211.95 20.84C211.737 20.6133 211.63 20.2933 211.63 19.88V12.32C211.63 11.9067 211.737 11.5933 211.95 11.38C212.163 11.1667 212.463 11.06 212.85 11.06C213.237 11.06 213.537 11.1667 213.75 11.38C213.963 11.5933 214.07 11.9067 214.07 12.32V13.58H213.87C214.057 12.78 214.423 12.1733 214.97 11.76C215.517 11.3467 216.243 11.1 217.15 11.02C217.43 10.9933 217.65 11.0667 217.81 11.24C217.983 11.4 218.083 11.6533 218.11 12C218.137 12.3333 218.057 12.6067 217.87 12.82C217.697 13.02 217.43 13.14 217.07 13.18L216.63 13.22C215.817 13.3 215.203 13.5533 214.79 13.98C214.377 14.3933 214.17 14.98 214.17 15.74V19.88C214.17 20.2933 214.063 20.6133 213.85 20.84C213.637 21.0533 213.323 21.16 212.91 21.16ZM224.509 21.2C223.642 21.2 222.915 21.0533 222.329 20.76C221.755 20.4667 221.329 20.04 221.049 19.48C220.769 18.9067 220.629 18.2 220.629 17.36V13.1H219.589C219.269 13.1 219.022 13.02 218.849 12.86C218.675 12.6867 218.589 12.4533 218.589 12.16C218.589 11.8533 218.675 11.62 218.849 11.46C219.022 11.3 219.269 11.22 219.589 11.22H220.629V9.4C220.629 8.98667 220.735 8.67333 220.949 8.46C221.175 8.24667 221.489 8.14 221.889 8.14C222.289 8.14 222.595 8.24667 222.809 8.46C223.022 8.67333 223.129 8.98667 223.129 9.4V11.22H225.249C225.569 11.22 225.815 11.3 225.989 11.46C226.162 11.62 226.249 11.8533 226.249 12.16C226.249 12.4533 226.162 12.6867 225.989 12.86C225.815 13.02 225.569 13.1 225.249 13.1H223.129V17.22C223.129 17.86 223.269 18.34 223.549 18.66C223.829 18.98 224.282 19.14 224.909 19.14C225.135 19.14 225.335 19.12 225.509 19.08C225.682 19.04 225.835 19.0133 225.969 19C226.129 18.9867 226.262 19.04 226.369 19.16C226.475 19.2667 226.529 19.4933 226.529 19.84C226.529 20.1067 226.482 20.3467 226.389 20.56C226.309 20.76 226.155 20.9 225.929 20.98C225.755 21.0333 225.529 21.08 225.249 21.12C224.969 21.1733 224.722 21.2 224.509 21.2ZM229.198 21.14C228.798 21.14 228.492 21.02 228.278 20.78C228.065 20.54 227.958 20.2067 227.958 19.78V12.44C227.958 12 228.065 11.6667 228.278 11.44C228.492 11.2 228.798 11.08 229.198 11.08C229.598 11.08 229.905 11.2 230.118 11.44C230.345 11.6667 230.458 12 230.458 12.44V19.78C230.458 20.2067 230.352 20.54 230.138 20.78C229.925 21.02 229.612 21.14 229.198 21.14ZM229.198 9.22C228.732 9.22 228.365 9.10667 228.098 8.88C227.845 8.64 227.718 8.31333 227.718 7.9C227.718 7.47333 227.845 7.14667 228.098 6.92C228.365 6.69333 228.732 6.58 229.198 6.58C229.678 6.58 230.045 6.69333 230.298 6.92C230.552 7.14667 230.678 7.47333 230.678 7.9C230.678 8.31333 230.552 8.64 230.298 8.88C230.045 9.10667 229.678 9.22 229.198 9.22ZM237.576 21.2C236.549 21.2 235.656 20.9933 234.896 20.58C234.136 20.1533 233.549 19.5533 233.136 18.78C232.723 18.0067 232.516 17.1 232.516 16.06C232.516 15.2733 232.629 14.5733 232.856 13.96C233.096 13.3333 233.436 12.8067 233.876 12.38C234.316 11.94 234.849 11.6067 235.476 11.38C236.103 11.14 236.803 11.02 237.576 11.02C238.016 11.02 238.489 11.08 238.996 11.2C239.516 11.32 240.003 11.52 240.456 11.8C240.669 11.9333 240.809 12.0933 240.876 12.28C240.943 12.4667 240.956 12.66 240.916 12.86C240.876 13.0467 240.789 13.2133 240.656 13.36C240.536 13.4933 240.383 13.58 240.196 13.62C240.009 13.6467 239.803 13.6 239.576 13.48C239.283 13.3067 238.983 13.18 238.676 13.1C238.369 13.0067 238.076 12.96 237.796 12.96C237.356 12.96 236.969 13.0333 236.636 13.18C236.303 13.3133 236.016 13.5133 235.776 13.78C235.549 14.0333 235.376 14.3533 235.256 14.74C235.136 15.1267 235.076 15.5733 235.076 16.08C235.076 17.0667 235.309 17.8467 235.776 18.42C236.256 18.98 236.929 19.26 237.796 19.26C238.076 19.26 238.363 19.22 238.656 19.14C238.963 19.06 239.269 18.9333 239.576 18.76C239.803 18.64 240.003 18.6 240.176 18.64C240.363 18.68 240.516 18.7733 240.636 18.92C240.756 19.0533 240.829 19.22 240.856 19.42C240.883 19.6067 240.856 19.7933 240.776 19.98C240.709 20.1667 240.576 20.32 240.376 20.44C239.936 20.7067 239.469 20.9 238.976 21.02C238.483 21.14 238.016 21.2 237.576 21.2ZM245.651 21.2C244.944 21.2 244.311 21.0667 243.751 20.8C243.204 20.52 242.771 20.1467 242.451 19.68C242.144 19.2133 241.991 18.6867 241.991 18.1C241.991 17.38 242.178 16.8133 242.551 16.4C242.924 15.9733 243.531 15.6667 244.371 15.48C245.211 15.2933 246.338 15.2 247.751 15.2H248.751V16.64H247.771C246.944 16.64 246.284 16.68 245.791 16.76C245.298 16.84 244.944 16.98 244.731 17.18C244.531 17.3667 244.431 17.6333 244.431 17.98C244.431 18.42 244.584 18.78 244.891 19.06C245.198 19.34 245.624 19.48 246.171 19.48C246.611 19.48 246.998 19.38 247.331 19.18C247.678 18.9667 247.951 18.68 248.151 18.32C248.351 17.96 248.451 17.5467 248.451 17.08V14.78C248.451 14.1133 248.304 13.6333 248.011 13.34C247.718 13.0467 247.224 12.9 246.531 12.9C246.144 12.9 245.724 12.9467 245.271 13.04C244.831 13.1333 244.364 13.2933 243.871 13.52C243.618 13.64 243.391 13.6733 243.191 13.62C243.004 13.5667 242.858 13.46 242.751 13.3C242.644 13.1267 242.591 12.94 242.591 12.74C242.591 12.54 242.644 12.3467 242.751 12.16C242.858 11.96 243.038 11.8133 243.291 11.72C243.904 11.4667 244.491 11.2867 245.051 11.18C245.624 11.0733 246.144 11.02 246.611 11.02C247.571 11.02 248.358 11.1667 248.971 11.46C249.598 11.7533 250.064 12.2 250.371 12.8C250.678 13.3867 250.831 14.1467 250.831 15.08V19.88C250.831 20.2933 250.731 20.6133 250.531 20.84C250.331 21.0533 250.044 21.16 249.671 21.16C249.298 21.16 249.004 21.0533 248.791 20.84C248.591 20.6133 248.491 20.2933 248.491 19.88V18.92H248.651C248.558 19.3867 248.371 19.7933 248.091 20.14C247.824 20.4733 247.484 20.7333 247.071 20.92C246.658 21.1067 246.184 21.2 245.651 21.2ZM256.708 21.2C255.602 21.2 254.768 20.8867 254.208 20.26C253.648 19.62 253.368 18.6867 253.368 17.46V8C253.368 7.58667 253.475 7.27333 253.688 7.06C253.902 6.84667 254.208 6.74 254.608 6.74C255.008 6.74 255.315 6.84667 255.528 7.06C255.755 7.27333 255.868 7.58667 255.868 8V17.34C255.868 17.9533 255.995 18.4067 256.248 18.7C256.515 18.9933 256.888 19.14 257.368 19.14C257.475 19.14 257.575 19.14 257.668 19.14C257.762 19.1267 257.855 19.1133 257.948 19.1C258.135 19.0733 258.262 19.1267 258.328 19.26C258.395 19.38 258.428 19.6333 258.428 20.02C258.428 20.3533 258.362 20.6133 258.228 20.8C258.095 20.9867 257.875 21.1 257.568 21.14C257.435 21.1533 257.295 21.1667 257.148 21.18C257.002 21.1933 256.855 21.2 256.708 21.2ZM269.705 21.2C268.678 21.2 267.785 20.9933 267.025 20.58C266.265 20.1533 265.678 19.5533 265.265 18.78C264.851 18.0067 264.645 17.1 264.645 16.06C264.645 15.2733 264.758 14.5733 264.985 13.96C265.225 13.3333 265.565 12.8067 266.005 12.38C266.445 11.94 266.978 11.6067 267.605 11.38C268.231 11.14 268.931 11.02 269.705 11.02C270.145 11.02 270.618 11.08 271.125 11.2C271.645 11.32 272.131 11.52 272.585 11.8C272.798 11.9333 272.938 12.0933 273.005 12.28C273.071 12.4667 273.085 12.66 273.045 12.86C273.005 13.0467 272.918 13.2133 272.785 13.36C272.665 13.4933 272.511 13.58 272.325 13.62C272.138 13.6467 271.931 13.6 271.705 13.48C271.411 13.3067 271.111 13.18 270.805 13.1C270.498 13.0067 270.205 12.96 269.925 12.96C269.485 12.96 269.098 13.0333 268.765 13.18C268.431 13.3133 268.145 13.5133 267.905 13.78C267.678 14.0333 267.505 14.3533 267.385 14.74C267.265 15.1267 267.205 15.5733 267.205 16.08C267.205 17.0667 267.438 17.8467 267.905 18.42C268.385 18.98 269.058 19.26 269.925 19.26C270.205 19.26 270.491 19.22 270.785 19.14C271.091 19.06 271.398 18.9333 271.705 18.76C271.931 18.64 272.131 18.6 272.305 18.64C272.491 18.68 272.645 18.7733 272.765 18.92C272.885 19.0533 272.958 19.22 272.985 19.42C273.011 19.6067 272.985 19.7933 272.905 19.98C272.838 20.1667 272.705 20.32 272.505 20.44C272.065 20.7067 271.598 20.9 271.105 21.02C270.611 21.14 270.145 21.2 269.705 21.2ZM275.898 21.16C275.485 21.16 275.165 21.0533 274.938 20.84C274.725 20.6133 274.618 20.2933 274.618 19.88V12.32C274.618 11.9067 274.725 11.5933 274.938 11.38C275.152 11.1667 275.452 11.06 275.838 11.06C276.225 11.06 276.525 11.1667 276.738 11.38C276.952 11.5933 277.058 11.9067 277.058 12.32V13.58H276.858C277.045 12.78 277.412 12.1733 277.958 11.76C278.505 11.3467 279.232 11.1 280.138 11.02C280.418 10.9933 280.638 11.0667 280.798 11.24C280.972 11.4 281.072 11.6533 281.098 12C281.125 12.3333 281.045 12.6067 280.858 12.82C280.685 13.02 280.418 13.14 280.058 13.18L279.618 13.22C278.805 13.3 278.192 13.5533 277.778 13.98C277.365 14.3933 277.158 14.98 277.158 15.74V19.88C277.158 20.2933 277.052 20.6133 276.838 20.84C276.625 21.0533 276.312 21.16 275.898 21.16ZM286.754 21.2C285.741 21.2 284.861 20.9933 284.114 20.58C283.367 20.1667 282.787 19.58 282.374 18.82C281.961 18.0467 281.754 17.14 281.754 16.1C281.754 15.3133 281.867 14.6133 282.094 14C282.334 13.3733 282.674 12.84 283.114 12.4C283.554 11.9467 284.081 11.6067 284.694 11.38C285.307 11.14 285.994 11.02 286.754 11.02C287.767 11.02 288.647 11.2267 289.394 11.64C290.141 12.0533 290.721 12.64 291.134 13.4C291.547 14.16 291.754 15.06 291.754 16.1C291.754 16.8867 291.634 17.5933 291.394 18.22C291.167 18.8467 290.834 19.3867 290.394 19.84C289.954 20.28 289.427 20.62 288.814 20.86C288.201 21.0867 287.514 21.2 286.754 21.2ZM286.754 19.3C287.247 19.3 287.681 19.18 288.054 18.94C288.427 18.7 288.714 18.3467 288.914 17.88C289.127 17.4 289.234 16.8067 289.234 16.1C289.234 15.0333 289.007 14.24 288.554 13.72C288.101 13.1867 287.501 12.92 286.754 12.92C286.261 12.92 285.827 13.04 285.454 13.28C285.081 13.5067 284.787 13.86 284.574 14.34C284.374 14.8067 284.274 15.3933 284.274 16.1C284.274 17.1533 284.501 17.9533 284.954 18.5C285.407 19.0333 286.007 19.3 286.754 19.3ZM297.398 21.2C296.824 21.2 296.218 21.14 295.578 21.02C294.938 20.9 294.364 20.6933 293.858 20.4C293.644 20.2667 293.491 20.1133 293.398 19.94C293.318 19.7533 293.284 19.5733 293.298 19.4C293.324 19.2133 293.391 19.0533 293.498 18.92C293.618 18.7867 293.764 18.7 293.938 18.66C294.124 18.62 294.324 18.6533 294.538 18.76C295.071 19.0133 295.571 19.1933 296.038 19.3C296.504 19.3933 296.964 19.44 297.418 19.44C298.058 19.44 298.531 19.3333 298.838 19.12C299.158 18.8933 299.318 18.6 299.318 18.24C299.318 17.9333 299.211 17.7 298.998 17.54C298.798 17.3667 298.491 17.24 298.078 17.16L296.078 16.78C295.251 16.62 294.618 16.32 294.178 15.88C293.751 15.4267 293.538 14.8467 293.538 14.14C293.538 13.5 293.711 12.9467 294.058 12.48C294.418 12.0133 294.911 11.6533 295.538 11.4C296.164 11.1467 296.884 11.02 297.698 11.02C298.284 11.02 298.831 11.0867 299.338 11.22C299.858 11.34 300.358 11.5333 300.838 11.8C301.038 11.9067 301.171 12.0467 301.238 12.22C301.318 12.3933 301.338 12.5733 301.298 12.76C301.258 12.9333 301.178 13.0933 301.058 13.24C300.938 13.3733 300.784 13.46 300.598 13.5C300.424 13.5267 300.224 13.4867 299.998 13.38C299.584 13.1667 299.184 13.0133 298.798 12.92C298.424 12.8267 298.064 12.78 297.718 12.78C297.064 12.78 296.578 12.8933 296.258 13.12C295.951 13.3467 295.798 13.6467 295.798 14.02C295.798 14.3 295.891 14.5333 296.078 14.72C296.264 14.9067 296.551 15.0333 296.938 15.1L298.938 15.48C299.804 15.64 300.458 15.9333 300.898 16.36C301.351 16.7867 301.578 17.36 301.578 18.08C301.578 19.0533 301.198 19.82 300.438 20.38C299.678 20.9267 298.664 21.2 297.398 21.2ZM307.163 21.2C306.59 21.2 305.983 21.14 305.343 21.02C304.703 20.9 304.13 20.6933 303.623 20.4C303.41 20.2667 303.257 20.1133 303.163 19.94C303.083 19.7533 303.05 19.5733 303.063 19.4C303.09 19.2133 303.157 19.0533 303.263 18.92C303.383 18.7867 303.53 18.7 303.703 18.66C303.89 18.62 304.09 18.6533 304.303 18.76C304.837 19.0133 305.337 19.1933 305.803 19.3C306.27 19.3933 306.73 19.44 307.183 19.44C307.823 19.44 308.297 19.3333 308.603 19.12C308.923 18.8933 309.083 18.6 309.083 18.24C309.083 17.9333 308.977 17.7 308.763 17.54C308.563 17.3667 308.257 17.24 307.843 17.16L305.843 16.78C305.017 16.62 304.383 16.32 303.943 15.88C303.517 15.4267 303.303 14.8467 303.303 14.14C303.303 13.5 303.477 12.9467 303.823 12.48C304.183 12.0133 304.677 11.6533 305.303 11.4C305.93 11.1467 306.65 11.02 307.463 11.02C308.05 11.02 308.597 11.0867 309.103 11.22C309.623 11.34 310.123 11.5333 310.603 11.8C310.803 11.9067 310.937 12.0467 311.003 12.22C311.083 12.3933 311.103 12.5733 311.063 12.76C311.023 12.9333 310.943 13.0933 310.823 13.24C310.703 13.3733 310.55 13.46 310.363 13.5C310.19 13.5267 309.99 13.4867 309.763 13.38C309.35 13.1667 308.95 13.0133 308.563 12.92C308.19 12.8267 307.83 12.78 307.483 12.78C306.83 12.78 306.343 12.8933 306.023 13.12C305.717 13.3467 305.563 13.6467 305.563 14.02C305.563 14.3 305.657 14.5333 305.843 14.72C306.03 14.9067 306.317 15.0333 306.703 15.1L308.703 15.48C309.57 15.64 310.223 15.9333 310.663 16.36C311.117 16.7867 311.343 17.36 311.343 18.08C311.343 19.0533 310.963 19.82 310.203 20.38C309.443 20.9267 308.43 21.2 307.163 21.2ZM322.359 21.2C321.785 21.2 321.179 21.14 320.539 21.02C319.899 20.9 319.325 20.6933 318.819 20.4C318.605 20.2667 318.452 20.1133 318.359 19.94C318.279 19.7533 318.245 19.5733 318.259 19.4C318.285 19.2133 318.352 19.0533 318.459 18.92C318.579 18.7867 318.725 18.7 318.899 18.66C319.085 18.62 319.285 18.6533 319.499 18.76C320.032 19.0133 320.532 19.1933 320.999 19.3C321.465 19.3933 321.925 19.44 322.379 19.44C323.019 19.44 323.492 19.3333 323.799 19.12C324.119 18.8933 324.279 18.6 324.279 18.24C324.279 17.9333 324.172 17.7 323.959 17.54C323.759 17.3667 323.452 17.24 323.039 17.16L321.039 16.78C320.212 16.62 319.579 16.32 319.139 15.88C318.712 15.4267 318.499 14.8467 318.499 14.14C318.499 13.5 318.672 12.9467 319.019 12.48C319.379 12.0133 319.872 11.6533 320.499 11.4C321.125 11.1467 321.845 11.02 322.659 11.02C323.245 11.02 323.792 11.0867 324.299 11.22C324.819 11.34 325.319 11.5333 325.799 11.8C325.999 11.9067 326.132 12.0467 326.199 12.22C326.279 12.3933 326.299 12.5733 326.259 12.76C326.219 12.9333 326.139 13.0933 326.019 13.24C325.899 13.3733 325.745 13.46 325.559 13.5C325.385 13.5267 325.185 13.4867 324.959 13.38C324.545 13.1667 324.145 13.0133 323.759 12.92C323.385 12.8267 323.025 12.78 322.679 12.78C322.025 12.78 321.539 12.8933 321.219 13.12C320.912 13.3467 320.759 13.6467 320.759 14.02C320.759 14.3 320.852 14.5333 321.039 14.72C321.225 14.9067 321.512 15.0333 321.899 15.1L323.899 15.48C324.765 15.64 325.419 15.9333 325.859 16.36C326.312 16.7867 326.539 17.36 326.539 18.08C326.539 19.0533 326.159 19.82 325.399 20.38C324.639 20.9267 323.625 21.2 322.359 21.2ZM333.364 21.2C332.257 21.2 331.304 20.9933 330.504 20.58C329.704 20.1667 329.084 19.58 328.644 18.82C328.217 18.06 328.004 17.16 328.004 16.12C328.004 15.1067 328.211 14.22 328.624 13.46C329.051 12.7 329.631 12.1067 330.364 11.68C331.111 11.24 331.957 11.02 332.904 11.02C333.597 11.02 334.217 11.1333 334.764 11.36C335.324 11.5867 335.797 11.9133 336.184 12.34C336.584 12.7667 336.884 13.2867 337.084 13.9C337.297 14.5 337.404 15.18 337.404 15.94C337.404 16.18 337.317 16.3667 337.144 16.5C336.984 16.62 336.751 16.68 336.444 16.68H330.024V15.24H335.644L335.324 15.54C335.324 14.9267 335.231 14.4133 335.044 14C334.871 13.5867 334.611 13.2733 334.264 13.06C333.931 12.8333 333.511 12.72 333.004 12.72C332.444 12.72 331.964 12.8533 331.564 13.12C331.177 13.3733 330.877 13.74 330.664 14.22C330.464 14.6867 330.364 15.2467 330.364 15.9V16.04C330.364 17.1333 330.617 17.9533 331.124 18.5C331.644 19.0333 332.404 19.3 333.404 19.3C333.751 19.3 334.137 19.26 334.564 19.18C335.004 19.0867 335.417 18.9333 335.804 18.72C336.084 18.56 336.331 18.4933 336.544 18.52C336.757 18.5333 336.924 18.6067 337.044 18.74C337.177 18.8733 337.257 19.04 337.284 19.24C337.311 19.4267 337.271 19.62 337.164 19.82C337.071 20.02 336.904 20.1933 336.664 20.34C336.197 20.6333 335.657 20.8533 335.044 21C334.444 21.1333 333.884 21.2 333.364 21.2ZM343.904 21.2C342.877 21.2 341.984 20.9933 341.224 20.58C340.464 20.1533 339.877 19.5533 339.464 18.78C339.051 18.0067 338.844 17.1 338.844 16.06C338.844 15.2733 338.957 14.5733 339.184 13.96C339.424 13.3333 339.764 12.8067 340.204 12.38C340.644 11.94 341.177 11.6067 341.804 11.38C342.431 11.14 343.131 11.02 343.904 11.02C344.344 11.02 344.817 11.08 345.324 11.2C345.844 11.32 346.331 11.52 346.784 11.8C346.997 11.9333 347.137 12.0933 347.204 12.28C347.271 12.4667 347.284 12.66 347.244 12.86C347.204 13.0467 347.117 13.2133 346.984 13.36C346.864 13.4933 346.711 13.58 346.524 13.62C346.337 13.6467 346.131 13.6 345.904 13.48C345.611 13.3067 345.311 13.18 345.004 13.1C344.697 13.0067 344.404 12.96 344.124 12.96C343.684 12.96 343.297 13.0333 342.964 13.18C342.631 13.3133 342.344 13.5133 342.104 13.78C341.877 14.0333 341.704 14.3533 341.584 14.74C341.464 15.1267 341.404 15.5733 341.404 16.08C341.404 17.0667 341.637 17.8467 342.104 18.42C342.584 18.98 343.257 19.26 344.124 19.26C344.404 19.26 344.691 19.22 344.984 19.14C345.291 19.06 345.597 18.9333 345.904 18.76C346.131 18.64 346.331 18.6 346.504 18.64C346.691 18.68 346.844 18.7733 346.964 18.92C347.084 19.0533 347.157 19.22 347.184 19.42C347.211 19.6067 347.184 19.7933 347.104 19.98C347.037 20.1667 346.904 20.32 346.704 20.44C346.264 20.7067 345.797 20.9 345.304 21.02C344.811 21.14 344.344 21.2 343.904 21.2ZM353.337 21.2C352.47 21.2 351.743 21.0533 351.157 20.76C350.583 20.4667 350.157 20.04 349.877 19.48C349.597 18.9067 349.457 18.2 349.457 17.36V13.1H348.417C348.097 13.1 347.85 13.02 347.677 12.86C347.503 12.6867 347.417 12.4533 347.417 12.16C347.417 11.8533 347.503 11.62 347.677 11.46C347.85 11.3 348.097 11.22 348.417 11.22H349.457V9.4C349.457 8.98667 349.563 8.67333 349.777 8.46C350.003 8.24667 350.317 8.14 350.717 8.14C351.117 8.14 351.423 8.24667 351.637 8.46C351.85 8.67333 351.957 8.98667 351.957 9.4V11.22H354.077C354.397 11.22 354.643 11.3 354.817 11.46C354.99 11.62 355.077 11.8533 355.077 12.16C355.077 12.4533 354.99 12.6867 354.817 12.86C354.643 13.02 354.397 13.1 354.077 13.1H351.957V17.22C351.957 17.86 352.097 18.34 352.377 18.66C352.657 18.98 353.11 19.14 353.737 19.14C353.963 19.14 354.163 19.12 354.337 19.08C354.51 19.04 354.663 19.0133 354.797 19C354.957 18.9867 355.09 19.04 355.197 19.16C355.303 19.2667 355.357 19.4933 355.357 19.84C355.357 20.1067 355.31 20.3467 355.217 20.56C355.137 20.76 354.983 20.9 354.757 20.98C354.583 21.0333 354.357 21.08 354.077 21.12C353.797 21.1733 353.55 21.2 353.337 21.2ZM358.026 21.14C357.626 21.14 357.32 21.02 357.106 20.78C356.893 20.54 356.786 20.2067 356.786 19.78V12.44C356.786 12 356.893 11.6667 357.106 11.44C357.32 11.2 357.626 11.08 358.026 11.08C358.426 11.08 358.733 11.2 358.946 11.44C359.173 11.6667 359.286 12 359.286 12.44V19.78C359.286 20.2067 359.18 20.54 358.966 20.78C358.753 21.02 358.44 21.14 358.026 21.14ZM358.026 9.22C357.56 9.22 357.193 9.10667 356.926 8.88C356.673 8.64 356.546 8.31333 356.546 7.9C356.546 7.47333 356.673 7.14667 356.926 6.92C357.193 6.69333 357.56 6.58 358.026 6.58C358.506 6.58 358.873 6.69333 359.126 6.92C359.38 7.14667 359.506 7.47333 359.506 7.9C359.506 8.31333 359.38 8.64 359.126 8.88C358.873 9.10667 358.506 9.22 358.026 9.22ZM366.344 21.2C365.331 21.2 364.451 20.9933 363.704 20.58C362.957 20.1667 362.377 19.58 361.964 18.82C361.551 18.0467 361.344 17.14 361.344 16.1C361.344 15.3133 361.457 14.6133 361.684 14C361.924 13.3733 362.264 12.84 362.704 12.4C363.144 11.9467 363.671 11.6067 364.284 11.38C364.897 11.14 365.584 11.02 366.344 11.02C367.357 11.02 368.237 11.2267 368.984 11.64C369.731 12.0533 370.311 12.64 370.724 13.4C371.137 14.16 371.344 15.06 371.344 16.1C371.344 16.8867 371.224 17.5933 370.984 18.22C370.757 18.8467 370.424 19.3867 369.984 19.84C369.544 20.28 369.017 20.62 368.404 20.86C367.791 21.0867 367.104 21.2 366.344 21.2ZM366.344 19.3C366.837 19.3 367.271 19.18 367.644 18.94C368.017 18.7 368.304 18.3467 368.504 17.88C368.717 17.4 368.824 16.8067 368.824 16.1C368.824 15.0333 368.597 14.24 368.144 13.72C367.691 13.1867 367.091 12.92 366.344 12.92C365.851 12.92 365.417 13.04 365.044 13.28C364.671 13.5067 364.377 13.86 364.164 14.34C363.964 14.8067 363.864 15.3933 363.864 16.1C363.864 17.1533 364.091 17.9533 364.544 18.5C364.997 19.0333 365.597 19.3 366.344 19.3ZM374.647 21.16C374.247 21.16 373.941 21.0533 373.727 20.84C373.514 20.6133 373.407 20.2933 373.407 19.88V12.32C373.407 11.9067 373.514 11.5933 373.727 11.38C373.941 11.1667 374.241 11.06 374.627 11.06C375.014 11.06 375.314 11.1667 375.527 11.38C375.741 11.5933 375.847 11.9067 375.847 12.32V13.68L375.627 13.18C375.921 12.4733 376.374 11.94 376.987 11.58C377.614 11.2067 378.321 11.02 379.107 11.02C379.894 11.02 380.541 11.1667 381.047 11.46C381.554 11.7533 381.934 12.2 382.187 12.8C382.441 13.3867 382.567 14.1333 382.567 15.04V19.88C382.567 20.2933 382.461 20.6133 382.247 20.84C382.034 21.0533 381.727 21.16 381.327 21.16C380.927 21.16 380.614 21.0533 380.387 20.84C380.174 20.6133 380.067 20.2933 380.067 19.88V15.16C380.067 14.4 379.921 13.8467 379.627 13.5C379.347 13.1533 378.907 12.98 378.307 12.98C377.574 12.98 376.987 13.2133 376.547 13.68C376.121 14.1333 375.907 14.74 375.907 15.5V19.88C375.907 20.7333 375.487 21.16 374.647 21.16ZM391.776 21.14C391.376 21.14 391.07 21.02 390.856 20.78C390.643 20.54 390.536 20.2067 390.536 19.78V12.44C390.536 12 390.643 11.6667 390.856 11.44C391.07 11.2 391.376 11.08 391.776 11.08C392.176 11.08 392.483 11.2 392.696 11.44C392.923 11.6667 393.036 12 393.036 12.44V19.78C393.036 20.2067 392.93 20.54 392.716 20.78C392.503 21.02 392.19 21.14 391.776 21.14ZM391.776 9.22C391.31 9.22 390.943 9.10667 390.676 8.88C390.423 8.64 390.296 8.31333 390.296 7.9C390.296 7.47333 390.423 7.14667 390.676 6.92C390.943 6.69333 391.31 6.58 391.776 6.58C392.256 6.58 392.623 6.69333 392.876 6.92C393.13 7.14667 393.256 7.47333 393.256 7.9C393.256 8.31333 393.13 8.64 392.876 8.88C392.623 9.10667 392.256 9.22 391.776 9.22ZM399.214 21.2C398.641 21.2 398.034 21.14 397.394 21.02C396.754 20.9 396.181 20.6933 395.674 20.4C395.461 20.2667 395.307 20.1133 395.214 19.94C395.134 19.7533 395.101 19.5733 395.114 19.4C395.141 19.2133 395.207 19.0533 395.314 18.92C395.434 18.7867 395.581 18.7 395.754 18.66C395.941 18.62 396.141 18.6533 396.354 18.76C396.887 19.0133 397.387 19.1933 397.854 19.3C398.321 19.3933 398.781 19.44 399.234 19.44C399.874 19.44 400.347 19.3333 400.654 19.12C400.974 18.8933 401.134 18.6 401.134 18.24C401.134 17.9333 401.027 17.7 400.814 17.54C400.614 17.3667 400.307 17.24 399.894 17.16L397.894 16.78C397.067 16.62 396.434 16.32 395.994 15.88C395.567 15.4267 395.354 14.8467 395.354 14.14C395.354 13.5 395.527 12.9467 395.874 12.48C396.234 12.0133 396.727 11.6533 397.354 11.4C397.981 11.1467 398.701 11.02 399.514 11.02C400.101 11.02 400.647 11.0867 401.154 11.22C401.674 11.34 402.174 11.5333 402.654 11.8C402.854 11.9067 402.987 12.0467 403.054 12.22C403.134 12.3933 403.154 12.5733 403.114 12.76C403.074 12.9333 402.994 13.0933 402.874 13.24C402.754 13.3733 402.601 13.46 402.414 13.5C402.241 13.5267 402.041 13.4867 401.814 13.38C401.401 13.1667 401.001 13.0133 400.614 12.92C400.241 12.8267 399.881 12.78 399.534 12.78C398.881 12.78 398.394 12.8933 398.074 13.12C397.767 13.3467 397.614 13.6467 397.614 14.02C397.614 14.3 397.707 14.5333 397.894 14.72C398.081 14.9067 398.367 15.0333 398.754 15.1L400.754 15.48C401.621 15.64 402.274 15.9333 402.714 16.36C403.167 16.7867 403.394 17.36 403.394 18.08C403.394 19.0533 403.014 19.82 402.254 20.38C401.494 20.9267 400.481 21.2 399.214 21.2ZM414.049 21.2C413.343 21.2 412.709 21.0667 412.149 20.8C411.603 20.52 411.169 20.1467 410.849 19.68C410.543 19.2133 410.389 18.6867 410.389 18.1C410.389 17.38 410.576 16.8133 410.949 16.4C411.323 15.9733 411.929 15.6667 412.769 15.48C413.609 15.2933 414.736 15.2 416.149 15.2H417.149V16.64H416.169C415.343 16.64 414.683 16.68 414.189 16.76C413.696 16.84 413.343 16.98 413.129 17.18C412.929 17.3667 412.829 17.6333 412.829 17.98C412.829 18.42 412.983 18.78 413.289 19.06C413.596 19.34 414.023 19.48 414.569 19.48C415.009 19.48 415.396 19.38 415.729 19.18C416.076 18.9667 416.349 18.68 416.549 18.32C416.749 17.96 416.849 17.5467 416.849 17.08V14.78C416.849 14.1133 416.703 13.6333 416.409 13.34C416.116 13.0467 415.623 12.9 414.929 12.9C414.543 12.9 414.123 12.9467 413.669 13.04C413.229 13.1333 412.763 13.2933 412.269 13.52C412.016 13.64 411.789 13.6733 411.589 13.62C411.403 13.5667 411.256 13.46 411.149 13.3C411.043 13.1267 410.989 12.94 410.989 12.74C410.989 12.54 411.043 12.3467 411.149 12.16C411.256 11.96 411.436 11.8133 411.689 11.72C412.303 11.4667 412.889 11.2867 413.449 11.18C414.023 11.0733 414.543 11.02 415.009 11.02C415.969 11.02 416.756 11.1667 417.369 11.46C417.996 11.7533 418.463 12.2 418.769 12.8C419.076 13.3867 419.229 14.1467 419.229 15.08V19.88C419.229 20.2933 419.129 20.6133 418.929 20.84C418.729 21.0533 418.443 21.16 418.069 21.16C417.696 21.16 417.403 21.0533 417.189 20.84C416.989 20.6133 416.889 20.2933 416.889 19.88V18.92H417.049C416.956 19.3867 416.769 19.7933 416.489 20.14C416.223 20.4733 415.883 20.7333 415.469 20.92C415.056 21.1067 414.583 21.2 414.049 21.2Z" fill="#444444"/>
<rect x="426.5" width="103" height="28" rx="5" fill="#FFF2E5"/>
<path d="M434.35 21.16C433.936 21.16 433.616 21.0533 433.39 20.84C433.176 20.6133 433.07 20.2933 433.07 19.88V12.32C433.07 11.9067 433.176 11.5933 433.39 11.38C433.603 11.1667 433.903 11.06 434.29 11.06C434.676 11.06 434.976 11.1667 435.19 11.38C435.403 11.5933 435.51 11.9067 435.51 12.32V13.58H435.31C435.496 12.78 435.863 12.1733 436.41 11.76C436.956 11.3467 437.683 11.1 438.59 11.02C438.87 10.9933 439.09 11.0667 439.25 11.24C439.423 11.4 439.523 11.6533 439.55 12C439.576 12.3333 439.496 12.6067 439.31 12.82C439.136 13.02 438.87 13.14 438.51 13.18L438.07 13.22C437.256 13.3 436.643 13.5533 436.23 13.98C435.816 14.3933 435.61 14.98 435.61 15.74V19.88C435.61 20.2933 435.503 20.6133 435.29 20.84C435.076 21.0533 434.763 21.16 434.35 21.16ZM445.565 21.2C444.459 21.2 443.505 20.9933 442.705 20.58C441.905 20.1667 441.285 19.58 440.845 18.82C440.419 18.06 440.205 17.16 440.205 16.12C440.205 15.1067 440.412 14.22 440.825 13.46C441.252 12.7 441.832 12.1067 442.565 11.68C443.312 11.24 444.159 11.02 445.105 11.02C445.799 11.02 446.419 11.1333 446.965 11.36C447.525 11.5867 447.999 11.9133 448.385 12.34C448.785 12.7667 449.085 13.2867 449.285 13.9C449.499 14.5 449.605 15.18 449.605 15.94C449.605 16.18 449.519 16.3667 449.345 16.5C449.185 16.62 448.952 16.68 448.645 16.68H442.225V15.24H447.845L447.525 15.54C447.525 14.9267 447.432 14.4133 447.245 14C447.072 13.5867 446.812 13.2733 446.465 13.06C446.132 12.8333 445.712 12.72 445.205 12.72C444.645 12.72 444.165 12.8533 443.765 13.12C443.379 13.3733 443.079 13.74 442.865 14.22C442.665 14.6867 442.565 15.2467 442.565 15.9V16.04C442.565 17.1333 442.819 17.9533 443.325 18.5C443.845 19.0333 444.605 19.3 445.605 19.3C445.952 19.3 446.339 19.26 446.765 19.18C447.205 19.0867 447.619 18.9333 448.005 18.72C448.285 18.56 448.532 18.4933 448.745 18.52C448.959 18.5333 449.125 18.6067 449.245 18.74C449.379 18.8733 449.459 19.04 449.485 19.24C449.512 19.4267 449.472 19.62 449.365 19.82C449.272 20.02 449.105 20.1933 448.865 20.34C448.399 20.6333 447.859 20.8533 447.245 21C446.645 21.1333 446.085 21.2 445.565 21.2ZM456.105 21.2C455.078 21.2 454.185 20.9933 453.425 20.58C452.665 20.1533 452.078 19.5533 451.665 18.78C451.252 18.0067 451.045 17.1 451.045 16.06C451.045 15.2733 451.158 14.5733 451.385 13.96C451.625 13.3333 451.965 12.8067 452.405 12.38C452.845 11.94 453.378 11.6067 454.005 11.38C454.632 11.14 455.332 11.02 456.105 11.02C456.545 11.02 457.018 11.08 457.525 11.2C458.045 11.32 458.532 11.52 458.985 11.8C459.198 11.9333 459.338 12.0933 459.405 12.28C459.472 12.4667 459.485 12.66 459.445 12.86C459.405 13.0467 459.318 13.2133 459.185 13.36C459.065 13.4933 458.912 13.58 458.725 13.62C458.538 13.6467 458.332 13.6 458.105 13.48C457.812 13.3067 457.512 13.18 457.205 13.1C456.898 13.0067 456.605 12.96 456.325 12.96C455.885 12.96 455.498 13.0333 455.165 13.18C454.832 13.3133 454.545 13.5133 454.305 13.78C454.078 14.0333 453.905 14.3533 453.785 14.74C453.665 15.1267 453.605 15.5733 453.605 16.08C453.605 17.0667 453.838 17.8467 454.305 18.42C454.785 18.98 455.458 19.26 456.325 19.26C456.605 19.26 456.892 19.22 457.185 19.14C457.492 19.06 457.798 18.9333 458.105 18.76C458.332 18.64 458.532 18.6 458.705 18.64C458.892 18.68 459.045 18.7733 459.165 18.92C459.285 19.0533 459.358 19.22 459.385 19.42C459.412 19.6067 459.385 19.7933 459.305 19.98C459.238 20.1667 459.105 20.32 458.905 20.44C458.465 20.7067 457.998 20.9 457.505 21.02C457.012 21.14 456.545 21.2 456.105 21.2ZM465.538 21.2C464.671 21.2 463.944 21.0533 463.358 20.76C462.784 20.4667 462.358 20.04 462.078 19.48C461.798 18.9067 461.658 18.2 461.658 17.36V13.1H460.618C460.298 13.1 460.051 13.02 459.878 12.86C459.704 12.6867 459.618 12.4533 459.618 12.16C459.618 11.8533 459.704 11.62 459.878 11.46C460.051 11.3 460.298 11.22 460.618 11.22H461.658V9.4C461.658 8.98667 461.764 8.67333 461.978 8.46C462.204 8.24667 462.518 8.14 462.918 8.14C463.318 8.14 463.624 8.24667 463.838 8.46C464.051 8.67333 464.158 8.98667 464.158 9.4V11.22H466.278C466.598 11.22 466.844 11.3 467.018 11.46C467.191 11.62 467.278 11.8533 467.278 12.16C467.278 12.4533 467.191 12.6867 467.018 12.86C466.844 13.02 466.598 13.1 466.278 13.1H464.158V17.22C464.158 17.86 464.298 18.34 464.578 18.66C464.858 18.98 465.311 19.14 465.938 19.14C466.164 19.14 466.364 19.12 466.538 19.08C466.711 19.04 466.864 19.0133 466.998 19C467.158 18.9867 467.291 19.04 467.398 19.16C467.504 19.2667 467.558 19.4933 467.558 19.84C467.558 20.1067 467.511 20.3467 467.418 20.56C467.338 20.76 467.184 20.9 466.958 20.98C466.784 21.0333 466.558 21.08 466.278 21.12C465.998 21.1733 465.751 21.2 465.538 21.2ZM471.954 21.2C471.247 21.2 470.614 21.0667 470.054 20.8C469.507 20.52 469.074 20.1467 468.754 19.68C468.447 19.2133 468.294 18.6867 468.294 18.1C468.294 17.38 468.48 16.8133 468.854 16.4C469.227 15.9733 469.834 15.6667 470.674 15.48C471.514 15.2933 472.64 15.2 474.054 15.2H475.054V16.64H474.074C473.247 16.64 472.587 16.68 472.094 16.76C471.6 16.84 471.247 16.98 471.034 17.18C470.834 17.3667 470.734 17.6333 470.734 17.98C470.734 18.42 470.887 18.78 471.194 19.06C471.5 19.34 471.927 19.48 472.474 19.48C472.914 19.48 473.3 19.38 473.634 19.18C473.98 18.9667 474.254 18.68 474.454 18.32C474.654 17.96 474.754 17.5467 474.754 17.08V14.78C474.754 14.1133 474.607 13.6333 474.314 13.34C474.02 13.0467 473.527 12.9 472.834 12.9C472.447 12.9 472.027 12.9467 471.574 13.04C471.134 13.1333 470.667 13.2933 470.174 13.52C469.92 13.64 469.694 13.6733 469.494 13.62C469.307 13.5667 469.16 13.46 469.054 13.3C468.947 13.1267 468.894 12.94 468.894 12.74C468.894 12.54 468.947 12.3467 469.054 12.16C469.16 11.96 469.34 11.8133 469.594 11.72C470.207 11.4667 470.794 11.2867 471.354 11.18C471.927 11.0733 472.447 11.02 472.914 11.02C473.874 11.02 474.66 11.1667 475.274 11.46C475.9 11.7533 476.367 12.2 476.674 12.8C476.98 13.3867 477.134 14.1467 477.134 15.08V19.88C477.134 20.2933 477.034 20.6133 476.834 20.84C476.634 21.0533 476.347 21.16 475.974 21.16C475.6 21.16 475.307 21.0533 475.094 20.84C474.894 20.6133 474.794 20.2933 474.794 19.88V18.92H474.954C474.86 19.3867 474.674 19.7933 474.394 20.14C474.127 20.4733 473.787 20.7333 473.374 20.92C472.96 21.1067 472.487 21.2 471.954 21.2ZM480.911 21.16C480.511 21.16 480.204 21.0533 479.991 20.84C479.778 20.6133 479.671 20.2933 479.671 19.88V12.32C479.671 11.9067 479.778 11.5933 479.991 11.38C480.204 11.1667 480.504 11.06 480.891 11.06C481.278 11.06 481.578 11.1667 481.791 11.38C482.004 11.5933 482.111 11.9067 482.111 12.32V13.68L481.891 13.18C482.184 12.4733 482.638 11.94 483.251 11.58C483.878 11.2067 484.584 11.02 485.371 11.02C486.158 11.02 486.804 11.1667 487.311 11.46C487.818 11.7533 488.198 12.2 488.451 12.8C488.704 13.3867 488.831 14.1333 488.831 15.04V19.88C488.831 20.2933 488.724 20.6133 488.511 20.84C488.298 21.0533 487.991 21.16 487.591 21.16C487.191 21.16 486.878 21.0533 486.651 20.84C486.438 20.6133 486.331 20.2933 486.331 19.88V15.16C486.331 14.4 486.184 13.8467 485.891 13.5C485.611 13.1533 485.171 12.98 484.571 12.98C483.838 12.98 483.251 13.2133 482.811 13.68C482.384 14.1333 482.171 14.74 482.171 15.5V19.88C482.171 20.7333 481.751 21.16 480.911 21.16ZM495.93 24.8C495.21 24.8 494.51 24.7333 493.83 24.6C493.164 24.4667 492.557 24.26 492.01 23.98C491.757 23.8467 491.584 23.6867 491.49 23.5C491.41 23.3133 491.384 23.12 491.41 22.92C491.45 22.7333 491.53 22.5667 491.65 22.42C491.784 22.2733 491.944 22.1733 492.13 22.12C492.317 22.0667 492.51 22.0933 492.71 22.2C493.297 22.4933 493.85 22.68 494.37 22.76C494.904 22.8533 495.357 22.9 495.73 22.9C496.624 22.9 497.29 22.68 497.73 22.24C498.184 21.8133 498.41 21.1733 498.41 20.32V18.52H498.59C498.39 19.2 497.97 19.7467 497.33 20.16C496.704 20.56 495.99 20.76 495.19 20.76C494.31 20.76 493.544 20.56 492.89 20.16C492.237 19.7467 491.73 19.1733 491.37 18.44C491.01 17.7067 490.83 16.8533 490.83 15.88C490.83 15.1467 490.93 14.4867 491.13 13.9C491.344 13.3 491.637 12.7867 492.01 12.36C492.397 11.9333 492.857 11.6067 493.39 11.38C493.937 11.14 494.537 11.02 495.19 11.02C496.017 11.02 496.737 11.2267 497.35 11.64C497.977 12.04 498.384 12.5733 498.57 13.24L498.37 13.74V12.32C498.37 11.9067 498.477 11.5933 498.69 11.38C498.917 11.1667 499.224 11.06 499.61 11.06C500.01 11.06 500.317 11.1667 500.53 11.38C500.744 11.5933 500.85 11.9067 500.85 12.32V20.02C500.85 21.6067 500.43 22.8 499.59 23.6C498.75 24.4 497.53 24.8 495.93 24.8ZM495.87 18.86C496.39 18.86 496.837 18.74 497.21 18.5C497.584 18.26 497.87 17.92 498.07 17.48C498.284 17.0267 498.39 16.4933 498.39 15.88C498.39 14.96 498.164 14.24 497.71 13.72C497.257 13.1867 496.644 12.92 495.87 12.92C495.35 12.92 494.904 13.04 494.53 13.28C494.157 13.52 493.864 13.86 493.65 14.3C493.45 14.74 493.35 15.2667 493.35 15.88C493.35 16.8 493.577 17.5267 494.03 18.06C494.484 18.5933 495.097 18.86 495.87 18.86ZM506.781 21.2C505.674 21.2 504.841 20.8867 504.281 20.26C503.721 19.62 503.441 18.6867 503.441 17.46V8C503.441 7.58667 503.547 7.27333 503.761 7.06C503.974 6.84667 504.281 6.74 504.681 6.74C505.081 6.74 505.387 6.84667 505.601 7.06C505.827 7.27333 505.941 7.58667 505.941 8V17.34C505.941 17.9533 506.067 18.4067 506.321 18.7C506.587 18.9933 506.961 19.14 507.441 19.14C507.547 19.14 507.647 19.14 507.741 19.14C507.834 19.1267 507.927 19.1133 508.021 19.1C508.207 19.0733 508.334 19.1267 508.401 19.26C508.467 19.38 508.501 19.6333 508.501 20.02C508.501 20.3533 508.434 20.6133 508.301 20.8C508.167 20.9867 507.947 21.1 507.641 21.14C507.507 21.1533 507.367 21.1667 507.221 21.18C507.074 21.1933 506.927 21.2 506.781 21.2ZM514.55 21.2C513.443 21.2 512.49 20.9933 511.69 20.58C510.89 20.1667 510.27 19.58 509.83 18.82C509.403 18.06 509.19 17.16 509.19 16.12C509.19 15.1067 509.396 14.22 509.81 13.46C510.236 12.7 510.816 12.1067 511.55 11.68C512.296 11.24 513.143 11.02 514.09 11.02C514.783 11.02 515.403 11.1333 515.95 11.36C516.51 11.5867 516.983 11.9133 517.37 12.34C517.77 12.7667 518.07 13.2867 518.27 13.9C518.483 14.5 518.59 15.18 518.59 15.94C518.59 16.18 518.503 16.3667 518.33 16.5C518.17 16.62 517.936 16.68 517.63 16.68H511.21V15.24H516.83L516.51 15.54C516.51 14.9267 516.416 14.4133 516.23 14C516.056 13.5867 515.796 13.2733 515.45 13.06C515.116 12.8333 514.696 12.72 514.19 12.72C513.63 12.72 513.15 12.8533 512.75 13.12C512.363 13.3733 512.063 13.74 511.85 14.22C511.65 14.6867 511.55 15.2467 511.55 15.9V16.04C511.55 17.1333 511.803 17.9533 512.31 18.5C512.83 19.0333 513.59 19.3 514.59 19.3C514.936 19.3 515.323 19.26 515.75 19.18C516.19 19.0867 516.603 18.9333 516.99 18.72C517.27 18.56 517.516 18.4933 517.73 18.52C517.943 18.5333 518.11 18.6067 518.23 18.74C518.363 18.8733 518.443 19.04 518.47 19.24C518.496 19.4267 518.456 19.62 518.35 19.82C518.256 20.02 518.09 20.1933 517.85 20.34C517.383 20.6333 516.843 20.8533 516.23 21C515.63 21.1333 515.07 21.2 514.55 21.2Z" fill="#D97A1A"/>
<path d="M521.77 21.1C521.316 21.1 520.95 20.96 520.67 20.68C520.403 20.4 520.27 20.04 520.27 19.6C520.27 19.1733 520.403 18.8267 520.67 18.56C520.95 18.28 521.316 18.14 521.77 18.14C522.236 18.14 522.596 18.28 522.85 18.56C523.116 18.8267 523.25 19.1733 523.25 19.6C523.25 20.04 523.116 20.4 522.85 20.68C522.596 20.96 522.236 21.1 521.77 21.1Z" fill="#1A1A1A"/>
</svg>
