<svg width="430" height="19" viewBox="0 0 430 19" fill="none" xmlns="http://www.w3.org/2000/svg">
<path d="M6.32188 15.2C5.73521 15.2 5.14854 15.1533 4.56188 15.06C3.97521 14.98 3.42188 14.8533 2.90188 14.68C2.38188 14.4933 1.91521 14.2667 1.50188 14C1.26188 13.84 1.09521 13.6467 1.00188 13.42C0.908542 13.1933 0.875208 12.9733 0.901875 12.76C0.941875 12.5333 1.02854 12.34 1.16188 12.18C1.30854 12.0067 1.48854 11.9 1.70188 11.86C1.91521 11.82 2.14854 11.88 2.40188 12.04C2.98854 12.3867 3.60854 12.64 4.26188 12.8C4.91521 12.96 5.60188 13.04 6.32188 13.04C7.37521 13.04 8.14188 12.8667 8.62188 12.52C9.10188 12.16 9.34188 11.7 9.34188 11.14C9.34188 10.6733 9.16854 10.3067 8.82188 10.04C8.48854 9.77333 7.90854 9.55333 7.08188 9.38L4.88188 8.92C3.61521 8.65333 2.66854 8.20667 2.04188 7.58C1.42854 6.94 1.12188 6.1 1.12188 5.06C1.12188 4.40667 1.25521 3.81333 1.52188 3.28C1.78854 2.74667 2.16188 2.28667 2.64188 1.9C3.13521 1.51333 3.71521 1.22 4.38188 1.02C5.06188 0.806666 5.80854 0.699999 6.62188 0.699999C7.42188 0.699999 8.18188 0.799999 8.90188 0.999999C9.62188 1.2 10.2685 1.49333 10.8419 1.88C11.0552 2.02667 11.1952 2.20667 11.2619 2.42C11.3419 2.63333 11.3619 2.84667 11.3219 3.06C11.2819 3.26 11.1885 3.43333 11.0419 3.58C10.8952 3.72667 10.7085 3.81333 10.4819 3.84C10.2685 3.86667 10.0219 3.8 9.74188 3.64C9.24854 3.36 8.74854 3.16 8.24188 3.04C7.73521 2.92 7.18854 2.86 6.60188 2.86C5.98854 2.86 5.46188 2.94667 5.02188 3.12C4.58188 3.29333 4.24188 3.54 4.00188 3.86C3.77521 4.16667 3.66188 4.53333 3.66188 4.96C3.66188 5.44 3.82188 5.82667 4.14188 6.12C4.46188 6.4 5.00854 6.62 5.78188 6.78L7.96188 7.24C9.28188 7.52 10.2619 7.96 10.9019 8.56C11.5552 9.16 11.8819 9.96 11.8819 10.96C11.8819 11.6 11.7485 12.18 11.4819 12.7C11.2285 13.22 10.8552 13.6667 10.3619 14.04C9.88188 14.4133 9.30188 14.7 8.62188 14.9C7.94188 15.1 7.17521 15.2 6.32188 15.2ZM18.6591 15.2C17.5524 15.2 16.5991 14.9933 15.7991 14.58C14.9991 14.1667 14.3791 13.58 13.9391 12.82C13.5124 12.06 13.2991 11.16 13.2991 10.12C13.2991 9.10667 13.5057 8.22 13.9191 7.46C14.3457 6.7 14.9257 6.10667 15.6591 5.68C16.4057 5.24 17.2524 5.02 18.1991 5.02C18.8924 5.02 19.5124 5.13333 20.0591 5.36C20.6191 5.58667 21.0924 5.91333 21.4791 6.34C21.8791 6.76667 22.1791 7.28667 22.3791 7.9C22.5924 8.5 22.6991 9.18 22.6991 9.94C22.6991 10.18 22.6124 10.3667 22.4391 10.5C22.2791 10.62 22.0457 10.68 21.7391 10.68H15.3191V9.24H20.9391L20.6191 9.54C20.6191 8.92667 20.5257 8.41333 20.3391 8C20.1657 7.58667 19.9057 7.27333 19.5591 7.06C19.2257 6.83333 18.8057 6.72 18.2991 6.72C17.7391 6.72 17.2591 6.85333 16.8591 7.12C16.4724 7.37333 16.1724 7.74 15.9591 8.22C15.7591 8.68667 15.6591 9.24667 15.6591 9.9V10.04C15.6591 11.1333 15.9124 11.9533 16.4191 12.5C16.9391 13.0333 17.6991 13.3 18.6991 13.3C19.0457 13.3 19.4324 13.26 19.8591 13.18C20.2991 13.0867 20.7124 12.9333 21.0991 12.72C21.3791 12.56 21.6257 12.4933 21.8391 12.52C22.0524 12.5333 22.2191 12.6067 22.3391 12.74C22.4724 12.8733 22.5524 13.04 22.5791 13.24C22.6057 13.4267 22.5657 13.62 22.4591 13.82C22.3657 14.02 22.1991 14.1933 21.9591 14.34C21.4924 14.6333 20.9524 14.8533 20.3391 15C19.7391 15.1333 19.1791 15.2 18.6591 15.2ZM28.0189 15.2C26.9122 15.2 26.0789 14.8867 25.5189 14.26C24.9589 13.62 24.6789 12.6867 24.6789 11.46V2C24.6789 1.58667 24.7856 1.27333 24.9989 1.06C25.2122 0.846666 25.5189 0.739999 25.9189 0.739999C26.3189 0.739999 26.6256 0.846666 26.8389 1.06C27.0656 1.27333 27.1789 1.58667 27.1789 2V11.34C27.1789 11.9533 27.3056 12.4067 27.5589 12.7C27.8256 12.9933 28.1989 13.14 28.6789 13.14C28.7856 13.14 28.8856 13.14 28.9789 13.14C29.0722 13.1267 29.1656 13.1133 29.2589 13.1C29.4456 13.0733 29.5722 13.1267 29.6389 13.26C29.7056 13.38 29.7389 13.6333 29.7389 14.02C29.7389 14.3533 29.6722 14.6133 29.5389 14.8C29.4056 14.9867 29.1856 15.1 28.8789 15.14C28.7456 15.1533 28.6056 15.1667 28.4589 15.18C28.3122 15.1933 28.1656 15.2 28.0189 15.2ZM35.788 15.2C34.6813 15.2 33.728 14.9933 32.928 14.58C32.128 14.1667 31.508 13.58 31.068 12.82C30.6413 12.06 30.428 11.16 30.428 10.12C30.428 9.10667 30.6346 8.22 31.048 7.46C31.4746 6.7 32.0546 6.10667 32.788 5.68C33.5346 5.24 34.3813 5.02 35.328 5.02C36.0213 5.02 36.6413 5.13333 37.188 5.36C37.748 5.58667 38.2213 5.91333 38.608 6.34C39.008 6.76667 39.308 7.28667 39.508 7.9C39.7213 8.5 39.828 9.18 39.828 9.94C39.828 10.18 39.7413 10.3667 39.568 10.5C39.408 10.62 39.1746 10.68 38.868 10.68H32.448V9.24H38.068L37.748 9.54C37.748 8.92667 37.6546 8.41333 37.468 8C37.2946 7.58667 37.0346 7.27333 36.688 7.06C36.3546 6.83333 35.9346 6.72 35.428 6.72C34.868 6.72 34.388 6.85333 33.988 7.12C33.6013 7.37333 33.3013 7.74 33.088 8.22C32.888 8.68667 32.788 9.24667 32.788 9.9V10.04C32.788 11.1333 33.0413 11.9533 33.548 12.5C34.068 13.0333 34.828 13.3 35.828 13.3C36.1746 13.3 36.5613 13.26 36.988 13.18C37.428 13.0867 37.8413 12.9333 38.228 12.72C38.508 12.56 38.7546 12.4933 38.968 12.52C39.1813 12.5333 39.348 12.6067 39.468 12.74C39.6013 12.8733 39.6813 13.04 39.708 13.24C39.7346 13.4267 39.6946 13.62 39.588 13.82C39.4946 14.02 39.328 14.1933 39.088 14.34C38.6213 14.6333 38.0813 14.8533 37.468 15C36.868 15.1333 36.308 15.2 35.788 15.2ZM46.3278 15.2C45.3011 15.2 44.4078 14.9933 43.6478 14.58C42.8878 14.1533 42.3011 13.5533 41.8878 12.78C41.4745 12.0067 41.2678 11.1 41.2678 10.06C41.2678 9.27333 41.3811 8.57333 41.6078 7.96C41.8478 7.33333 42.1878 6.80667 42.6278 6.38C43.0678 5.94 43.6011 5.60667 44.2278 5.38C44.8545 5.14 45.5545 5.02 46.3278 5.02C46.7678 5.02 47.2411 5.08 47.7478 5.2C48.2678 5.32 48.7545 5.52 49.2078 5.8C49.4211 5.93333 49.5611 6.09333 49.6278 6.28C49.6945 6.46667 49.7078 6.66 49.6678 6.86C49.6278 7.04667 49.5411 7.21333 49.4078 7.36C49.2878 7.49333 49.1345 7.58 48.9478 7.62C48.7611 7.64667 48.5545 7.6 48.3278 7.48C48.0345 7.30667 47.7345 7.18 47.4278 7.1C47.1211 7.00667 46.8278 6.96 46.5478 6.96C46.1078 6.96 45.7211 7.03333 45.3878 7.18C45.0545 7.31333 44.7678 7.51333 44.5278 7.78C44.3011 8.03333 44.1278 8.35333 44.0078 8.74C43.8878 9.12667 43.8278 9.57333 43.8278 10.08C43.8278 11.0667 44.0611 11.8467 44.5278 12.42C45.0078 12.98 45.6811 13.26 46.5478 13.26C46.8278 13.26 47.1145 13.22 47.4078 13.14C47.7145 13.06 48.0211 12.9333 48.3278 12.76C48.5545 12.64 48.7545 12.6 48.9278 12.64C49.1145 12.68 49.2678 12.7733 49.3878 12.92C49.5078 13.0533 49.5811 13.22 49.6078 13.42C49.6345 13.6067 49.6078 13.7933 49.5278 13.98C49.4611 14.1667 49.3278 14.32 49.1278 14.44C48.6878 14.7067 48.2211 14.9 47.7278 15.02C47.2345 15.14 46.7678 15.2 46.3278 15.2ZM55.7605 15.2C54.8938 15.2 54.1671 15.0533 53.5805 14.76C53.0071 14.4667 52.5805 14.04 52.3005 13.48C52.0205 12.9067 51.8805 12.2 51.8805 11.36V7.1H50.8405C50.5205 7.1 50.2738 7.02 50.1005 6.86C49.9271 6.68667 49.8405 6.45333 49.8405 6.16C49.8405 5.85333 49.9271 5.62 50.1005 5.46C50.2738 5.3 50.5205 5.22 50.8405 5.22H51.8805V3.4C51.8805 2.98667 51.9871 2.67333 52.2005 2.46C52.4271 2.24667 52.7405 2.14 53.1405 2.14C53.5405 2.14 53.8471 2.24667 54.0605 2.46C54.2738 2.67333 54.3805 2.98667 54.3805 3.4V5.22H56.5005C56.8205 5.22 57.0671 5.3 57.2405 5.46C57.4138 5.62 57.5005 5.85333 57.5005 6.16C57.5005 6.45333 57.4138 6.68667 57.2405 6.86C57.0671 7.02 56.8205 7.1 56.5005 7.1H54.3805V11.22C54.3805 11.86 54.5205 12.34 54.8005 12.66C55.0805 12.98 55.5338 13.14 56.1605 13.14C56.3871 13.14 56.5871 13.12 56.7605 13.08C56.9338 13.04 57.0871 13.0133 57.2205 13C57.3805 12.9867 57.5138 13.04 57.6205 13.16C57.7271 13.2667 57.7805 13.4933 57.7805 13.84C57.7805 14.1067 57.7338 14.3467 57.6405 14.56C57.5605 14.76 57.4071 14.9 57.1805 14.98C57.0071 15.0333 56.7805 15.08 56.5005 15.12C56.2205 15.1733 55.9738 15.2 55.7605 15.2ZM67.6059 15.2C66.8993 15.2 66.2659 15.0667 65.7059 14.8C65.1593 14.52 64.7259 14.1467 64.4059 13.68C64.0993 13.2133 63.9459 12.6867 63.9459 12.1C63.9459 11.38 64.1326 10.8133 64.5059 10.4C64.8793 9.97333 65.4859 9.66667 66.3259 9.48C67.1659 9.29333 68.2926 9.2 69.7059 9.2H70.7059V10.64H69.7259C68.8993 10.64 68.2393 10.68 67.7459 10.76C67.2526 10.84 66.8993 10.98 66.6859 11.18C66.4859 11.3667 66.3859 11.6333 66.3859 11.98C66.3859 12.42 66.5393 12.78 66.8459 13.06C67.1526 13.34 67.5793 13.48 68.1259 13.48C68.5659 13.48 68.9526 13.38 69.2859 13.18C69.6326 12.9667 69.9059 12.68 70.1059 12.32C70.3059 11.96 70.4059 11.5467 70.4059 11.08V8.78C70.4059 8.11333 70.2593 7.63333 69.9659 7.34C69.6726 7.04667 69.1793 6.9 68.4859 6.9C68.0993 6.9 67.6793 6.94667 67.2259 7.04C66.7859 7.13333 66.3193 7.29333 65.8259 7.52C65.5726 7.64 65.3459 7.67333 65.1459 7.62C64.9593 7.56667 64.8126 7.46 64.7059 7.3C64.5993 7.12667 64.5459 6.94 64.5459 6.74C64.5459 6.54 64.5993 6.34667 64.7059 6.16C64.8126 5.96 64.9926 5.81333 65.2459 5.72C65.8593 5.46667 66.4459 5.28667 67.0059 5.18C67.5793 5.07333 68.0993 5.02 68.5659 5.02C69.5259 5.02 70.3126 5.16667 70.9259 5.46C71.5526 5.75333 72.0193 6.2 72.3259 6.8C72.6326 7.38667 72.7859 8.14667 72.7859 9.08V13.88C72.7859 14.2933 72.6859 14.6133 72.4859 14.84C72.2859 15.0533 71.9993 15.16 71.6259 15.16C71.2526 15.16 70.9593 15.0533 70.7459 14.84C70.5459 14.6133 70.4459 14.2933 70.4459 13.88V12.92H70.6059C70.5126 13.3867 70.3259 13.7933 70.0459 14.14C69.7793 14.4733 69.4393 14.7333 69.0259 14.92C68.6126 15.1067 68.1393 15.2 67.6059 15.2ZM81.9931 18.76C81.5931 18.76 81.2865 18.6533 81.0731 18.44C80.8598 18.2267 80.7531 17.9133 80.7531 17.5V6.32C80.7531 5.90667 80.8598 5.59333 81.0731 5.38C81.2865 5.16667 81.5865 5.06 81.9731 5.06C82.3731 5.06 82.6798 5.16667 82.8931 5.38C83.1065 5.59333 83.2131 5.90667 83.2131 6.32V7.88L82.9931 7.28C83.1931 6.6 83.5998 6.05333 84.2131 5.64C84.8398 5.22667 85.5665 5.02 86.3931 5.02C87.2465 5.02 87.9931 5.22667 88.6331 5.64C89.2865 6.05333 89.7931 6.64 90.1531 7.4C90.5131 8.14667 90.6931 9.04667 90.6931 10.1C90.6931 11.14 90.5131 12.0467 90.1531 12.82C89.7931 13.58 89.2931 14.1667 88.6531 14.58C88.0131 14.9933 87.2598 15.2 86.3931 15.2C85.5798 15.2 84.8665 15 84.2531 14.6C83.6398 14.1867 83.2265 13.6533 83.0131 13H83.2531V17.5C83.2531 17.9133 83.1398 18.2267 82.9131 18.44C82.6998 18.6533 82.3931 18.76 81.9931 18.76ZM85.6931 13.3C86.1865 13.3 86.6198 13.18 86.9931 12.94C87.3665 12.7 87.6531 12.3467 87.8531 11.88C88.0665 11.4 88.1731 10.8067 88.1731 10.1C88.1731 9.03333 87.9465 8.24 87.4931 7.72C87.0398 7.18667 86.4398 6.92 85.6931 6.92C85.1998 6.92 84.7665 7.04 84.3931 7.28C84.0198 7.50667 83.7265 7.86 83.5131 8.34C83.3131 8.80667 83.2131 9.39333 83.2131 10.1C83.2131 11.1533 83.4398 11.9533 83.8931 12.5C84.3465 13.0333 84.9465 13.3 85.6931 13.3ZM96.0853 15.2C94.9786 15.2 94.1453 14.8867 93.5853 14.26C93.0253 13.62 92.7453 12.6867 92.7453 11.46V2C92.7453 1.58667 92.852 1.27333 93.0653 1.06C93.2786 0.846666 93.5853 0.739999 93.9853 0.739999C94.3853 0.739999 94.692 0.846666 94.9053 1.06C95.132 1.27333 95.2453 1.58667 95.2453 2V11.34C95.2453 11.9533 95.372 12.4067 95.6253 12.7C95.892 12.9933 96.2653 13.14 96.7453 13.14C96.852 13.14 96.952 13.14 97.0453 13.14C97.1386 13.1267 97.232 13.1133 97.3253 13.1C97.512 13.0733 97.6386 13.1267 97.7053 13.26C97.772 13.38 97.8053 13.6333 97.8053 14.02C97.8053 14.3533 97.7386 14.6133 97.6053 14.8C97.472 14.9867 97.252 15.1 96.9453 15.14C96.812 15.1533 96.672 15.1667 96.5253 15.18C96.3786 15.1933 96.232 15.2 96.0853 15.2ZM102.352 15.2C101.645 15.2 101.012 15.0667 100.452 14.8C99.9054 14.52 99.472 14.1467 99.152 13.68C98.8454 13.2133 98.692 12.6867 98.692 12.1C98.692 11.38 98.8787 10.8133 99.252 10.4C99.6254 9.97333 100.232 9.66667 101.072 9.48C101.912 9.29333 103.039 9.2 104.452 9.2H105.452V10.64H104.472C103.645 10.64 102.985 10.68 102.492 10.76C101.999 10.84 101.645 10.98 101.432 11.18C101.232 11.3667 101.132 11.6333 101.132 11.98C101.132 12.42 101.285 12.78 101.592 13.06C101.899 13.34 102.325 13.48 102.872 13.48C103.312 13.48 103.699 13.38 104.032 13.18C104.379 12.9667 104.652 12.68 104.852 12.32C105.052 11.96 105.152 11.5467 105.152 11.08V8.78C105.152 8.11333 105.005 7.63333 104.712 7.34C104.419 7.04667 103.925 6.9 103.232 6.9C102.845 6.9 102.425 6.94667 101.972 7.04C101.532 7.13333 101.065 7.29333 100.572 7.52C100.319 7.64 100.092 7.67333 99.892 7.62C99.7054 7.56667 99.5587 7.46 99.452 7.3C99.3454 7.12667 99.292 6.94 99.292 6.74C99.292 6.54 99.3454 6.34667 99.452 6.16C99.5587 5.96 99.7387 5.81333 99.992 5.72C100.605 5.46667 101.192 5.28667 101.752 5.18C102.325 5.07333 102.845 5.02 103.312 5.02C104.272 5.02 105.059 5.16667 105.672 5.46C106.299 5.75333 106.765 6.2 107.072 6.8C107.379 7.38667 107.532 8.14667 107.532 9.08V13.88C107.532 14.2933 107.432 14.6133 107.232 14.84C107.032 15.0533 106.745 15.16 106.372 15.16C105.999 15.16 105.705 15.0533 105.492 14.84C105.292 14.6133 105.192 14.2933 105.192 13.88V12.92H105.352C105.259 13.3867 105.072 13.7933 104.792 14.14C104.525 14.4733 104.185 14.7333 103.772 14.92C103.359 15.1067 102.885 15.2 102.352 15.2ZM111.31 15.16C110.91 15.16 110.603 15.0533 110.39 14.84C110.176 14.6133 110.07 14.2933 110.07 13.88V6.32C110.07 5.90667 110.176 5.59333 110.39 5.38C110.603 5.16667 110.903 5.06 111.29 5.06C111.676 5.06 111.976 5.16667 112.19 5.38C112.403 5.59333 112.51 5.90667 112.51 6.32V7.68L112.29 7.18C112.583 6.47333 113.036 5.94 113.65 5.58C114.276 5.20667 114.983 5.02 115.77 5.02C116.556 5.02 117.203 5.16667 117.71 5.46C118.216 5.75333 118.596 6.2 118.85 6.8C119.103 7.38667 119.23 8.13333 119.23 9.04V13.88C119.23 14.2933 119.123 14.6133 118.91 14.84C118.696 15.0533 118.39 15.16 117.99 15.16C117.59 15.16 117.276 15.0533 117.05 14.84C116.836 14.6133 116.73 14.2933 116.73 13.88V9.16C116.73 8.4 116.583 7.84667 116.29 7.5C116.01 7.15333 115.57 6.98 114.97 6.98C114.236 6.98 113.65 7.21333 113.21 7.68C112.783 8.13333 112.57 8.74 112.57 9.5V13.88C112.57 14.7333 112.15 15.16 111.31 15.16ZM126.589 15.2C125.482 15.2 124.529 14.9933 123.729 14.58C122.929 14.1667 122.309 13.58 121.869 12.82C121.442 12.06 121.229 11.16 121.229 10.12C121.229 9.10667 121.435 8.22 121.849 7.46C122.275 6.7 122.855 6.10667 123.589 5.68C124.335 5.24 125.182 5.02 126.129 5.02C126.822 5.02 127.442 5.13333 127.989 5.36C128.549 5.58667 129.022 5.91333 129.409 6.34C129.809 6.76667 130.109 7.28667 130.309 7.9C130.522 8.5 130.629 9.18 130.629 9.94C130.629 10.18 130.542 10.3667 130.369 10.5C130.209 10.62 129.975 10.68 129.669 10.68H123.249V9.24H128.869L128.549 9.54C128.549 8.92667 128.455 8.41333 128.269 8C128.095 7.58667 127.835 7.27333 127.489 7.06C127.155 6.83333 126.735 6.72 126.229 6.72C125.669 6.72 125.189 6.85333 124.789 7.12C124.402 7.37333 124.102 7.74 123.889 8.22C123.689 8.68667 123.589 9.24667 123.589 9.9V10.04C123.589 11.1333 123.842 11.9533 124.349 12.5C124.869 13.0333 125.629 13.3 126.629 13.3C126.975 13.3 127.362 13.26 127.789 13.18C128.229 13.0867 128.642 12.9333 129.029 12.72C129.309 12.56 129.555 12.4933 129.769 12.52C129.982 12.5333 130.149 12.6067 130.269 12.74C130.402 12.8733 130.482 13.04 130.509 13.24C130.535 13.4267 130.495 13.62 130.389 13.82C130.295 14.02 130.129 14.1933 129.889 14.34C129.422 14.6333 128.882 14.8533 128.269 15C127.669 15.1333 127.109 15.2 126.589 15.2ZM139.958 15.16C139.558 15.16 139.245 15.0533 139.018 14.84C138.805 14.6133 138.698 14.2933 138.698 13.88V7.1H137.778C137.458 7.1 137.212 7.02 137.038 6.86C136.865 6.68667 136.778 6.45333 136.778 6.16C136.778 5.85333 136.865 5.62 137.038 5.46C137.212 5.3 137.458 5.22 137.778 5.22H139.418L138.698 5.88V5.2C138.698 3.82667 139.045 2.8 139.738 2.12C140.432 1.42667 141.432 1.02 142.738 0.899999L143.418 0.84C143.685 0.813333 143.898 0.859999 144.058 0.979999C144.218 1.08667 144.325 1.23333 144.378 1.42C144.432 1.59333 144.438 1.77333 144.398 1.96C144.358 2.14667 144.272 2.31333 144.138 2.46C144.018 2.59333 143.858 2.66667 143.658 2.68L143.378 2.7C142.618 2.75333 142.065 2.94667 141.718 3.28C141.372 3.61333 141.198 4.12 141.198 4.8V5.54L140.878 5.22H142.898C143.218 5.22 143.465 5.3 143.638 5.46C143.812 5.62 143.898 5.85333 143.898 6.16C143.898 6.45333 143.812 6.68667 143.638 6.86C143.465 7.02 143.218 7.1 142.898 7.1H141.198V13.88C141.198 14.7333 140.785 15.16 139.958 15.16ZM149.53 15.2C148.516 15.2 147.636 14.9933 146.89 14.58C146.143 14.1667 145.563 13.58 145.15 12.82C144.736 12.0467 144.53 11.14 144.53 10.1C144.53 9.31333 144.643 8.61333 144.87 8C145.11 7.37333 145.45 6.84 145.89 6.4C146.33 5.94667 146.856 5.60667 147.47 5.38C148.083 5.14 148.77 5.02 149.53 5.02C150.543 5.02 151.423 5.22667 152.17 5.64C152.916 6.05333 153.496 6.64 153.91 7.4C154.323 8.16 154.53 9.06 154.53 10.1C154.53 10.8867 154.41 11.5933 154.17 12.22C153.943 12.8467 153.61 13.3867 153.17 13.84C152.73 14.28 152.203 14.62 151.59 14.86C150.976 15.0867 150.29 15.2 149.53 15.2ZM149.53 13.3C150.023 13.3 150.456 13.18 150.83 12.94C151.203 12.7 151.49 12.3467 151.69 11.88C151.903 11.4 152.01 10.8067 152.01 10.1C152.01 9.03333 151.783 8.24 151.33 7.72C150.876 7.18667 150.276 6.92 149.53 6.92C149.036 6.92 148.603 7.04 148.23 7.28C147.856 7.50667 147.563 7.86 147.35 8.34C147.15 8.80667 147.05 9.39333 147.05 10.1C147.05 11.1533 147.276 11.9533 147.73 12.5C148.183 13.0333 148.783 13.3 149.53 13.3ZM157.873 15.16C157.46 15.16 157.14 15.0533 156.913 14.84C156.7 14.6133 156.593 14.2933 156.593 13.88V6.32C156.593 5.90667 156.7 5.59333 156.913 5.38C157.126 5.16667 157.426 5.06 157.813 5.06C158.2 5.06 158.5 5.16667 158.713 5.38C158.926 5.59333 159.033 5.90667 159.033 6.32V7.58H158.833C159.02 6.78 159.386 6.17333 159.933 5.76C160.48 5.34667 161.206 5.1 162.113 5.02C162.393 4.99333 162.613 5.06667 162.773 5.24C162.946 5.4 163.046 5.65333 163.073 6C163.1 6.33333 163.02 6.60667 162.833 6.82C162.66 7.02 162.393 7.14 162.033 7.18L161.593 7.22C160.78 7.3 160.166 7.55333 159.753 7.98C159.34 8.39333 159.133 8.98 159.133 9.74V13.88C159.133 14.2933 159.026 14.6133 158.813 14.84C158.6 15.0533 158.286 15.16 157.873 15.16ZM174.315 15.2C173.301 15.2 172.421 14.9933 171.675 14.58C170.928 14.1667 170.348 13.58 169.935 12.82C169.521 12.0467 169.315 11.14 169.315 10.1C169.315 9.31333 169.428 8.61333 169.655 8C169.895 7.37333 170.235 6.84 170.675 6.4C171.115 5.94667 171.641 5.60667 172.255 5.38C172.868 5.14 173.555 5.02 174.315 5.02C175.328 5.02 176.208 5.22667 176.955 5.64C177.701 6.05333 178.281 6.64 178.695 7.4C179.108 8.16 179.315 9.06 179.315 10.1C179.315 10.8867 179.195 11.5933 178.955 12.22C178.728 12.8467 178.395 13.3867 177.955 13.84C177.515 14.28 176.988 14.62 176.375 14.86C175.761 15.0867 175.075 15.2 174.315 15.2ZM174.315 13.3C174.808 13.3 175.241 13.18 175.615 12.94C175.988 12.7 176.275 12.3467 176.475 11.88C176.688 11.4 176.795 10.8067 176.795 10.1C176.795 9.03333 176.568 8.24 176.115 7.72C175.661 7.18667 175.061 6.92 174.315 6.92C173.821 6.92 173.388 7.04 173.015 7.28C172.641 7.50667 172.348 7.86 172.135 8.34C171.935 8.80667 171.835 9.39333 171.835 10.1C171.835 11.1533 172.061 11.9533 172.515 12.5C172.968 13.0333 173.568 13.3 174.315 13.3ZM187.018 15.2C186.191 15.2 185.465 14.9933 184.838 14.58C184.225 14.1667 183.818 13.6133 183.618 12.92L183.838 12.42V13.88C183.838 14.2933 183.731 14.6133 183.518 14.84C183.305 15.0533 183.005 15.16 182.618 15.16C182.218 15.16 181.911 15.0533 181.698 14.84C181.485 14.6133 181.378 14.2933 181.378 13.88V2C181.378 1.58667 181.485 1.27333 181.698 1.06C181.911 0.846666 182.218 0.739999 182.618 0.739999C183.018 0.739999 183.325 0.846666 183.538 1.06C183.765 1.27333 183.878 1.58667 183.878 2V7.2H183.638C183.851 6.54667 184.265 6.02 184.878 5.62C185.491 5.22 186.205 5.02 187.018 5.02C187.885 5.02 188.638 5.22667 189.278 5.64C189.918 6.05333 190.418 6.64 190.778 7.4C191.138 8.14667 191.318 9.04667 191.318 10.1C191.318 11.14 191.138 12.0467 190.778 12.82C190.418 13.58 189.911 14.1667 189.258 14.58C188.618 14.9933 187.871 15.2 187.018 15.2ZM186.318 13.3C186.811 13.3 187.245 13.18 187.618 12.94C187.991 12.7 188.278 12.3467 188.478 11.88C188.691 11.4 188.798 10.8067 188.798 10.1C188.798 9.03333 188.571 8.24 188.118 7.72C187.665 7.18667 187.065 6.92 186.318 6.92C185.825 6.92 185.391 7.04 185.018 7.28C184.645 7.50667 184.351 7.86 184.138 8.34C183.938 8.80667 183.838 9.39333 183.838 10.1C183.838 11.1533 184.065 11.9533 184.518 12.5C184.971 13.0333 185.571 13.3 186.318 13.3ZM196.95 15.2C196.377 15.2 195.77 15.14 195.13 15.02C194.49 14.9 193.917 14.6933 193.41 14.4C193.197 14.2667 193.044 14.1133 192.95 13.94C192.87 13.7533 192.837 13.5733 192.85 13.4C192.877 13.2133 192.944 13.0533 193.05 12.92C193.17 12.7867 193.317 12.7 193.49 12.66C193.677 12.62 193.877 12.6533 194.09 12.76C194.624 13.0133 195.124 13.1933 195.59 13.3C196.057 13.3933 196.517 13.44 196.97 13.44C197.61 13.44 198.084 13.3333 198.39 13.12C198.71 12.8933 198.87 12.6 198.87 12.24C198.87 11.9333 198.764 11.7 198.55 11.54C198.35 11.3667 198.044 11.24 197.63 11.16L195.63 10.78C194.804 10.62 194.17 10.32 193.73 9.88C193.304 9.42667 193.09 8.84667 193.09 8.14C193.09 7.5 193.264 6.94667 193.61 6.48C193.97 6.01333 194.464 5.65333 195.09 5.4C195.717 5.14667 196.437 5.02 197.25 5.02C197.837 5.02 198.384 5.08667 198.89 5.22C199.41 5.34 199.91 5.53333 200.39 5.8C200.59 5.90667 200.724 6.04667 200.79 6.22C200.87 6.39333 200.89 6.57333 200.85 6.76C200.81 6.93333 200.73 7.09333 200.61 7.24C200.49 7.37333 200.337 7.46 200.15 7.5C199.977 7.52667 199.777 7.48667 199.55 7.38C199.137 7.16667 198.737 7.01333 198.35 6.92C197.977 6.82667 197.617 6.78 197.27 6.78C196.617 6.78 196.13 6.89333 195.81 7.12C195.504 7.34667 195.35 7.64667 195.35 8.02C195.35 8.3 195.444 8.53333 195.63 8.72C195.817 8.90667 196.104 9.03333 196.49 9.1L198.49 9.48C199.357 9.64 200.01 9.93333 200.45 10.36C200.904 10.7867 201.13 11.36 201.13 12.08C201.13 13.0533 200.75 13.82 199.99 14.38C199.23 14.9267 198.217 15.2 196.95 15.2ZM207.956 15.2C206.849 15.2 205.896 14.9933 205.096 14.58C204.296 14.1667 203.676 13.58 203.236 12.82C202.809 12.06 202.596 11.16 202.596 10.12C202.596 9.10667 202.803 8.22 203.216 7.46C203.643 6.7 204.223 6.10667 204.956 5.68C205.703 5.24 206.549 5.02 207.496 5.02C208.189 5.02 208.809 5.13333 209.356 5.36C209.916 5.58667 210.389 5.91333 210.776 6.34C211.176 6.76667 211.476 7.28667 211.676 7.9C211.889 8.5 211.996 9.18 211.996 9.94C211.996 10.18 211.909 10.3667 211.736 10.5C211.576 10.62 211.343 10.68 211.036 10.68H204.616V9.24H210.236L209.916 9.54C209.916 8.92667 209.823 8.41333 209.636 8C209.463 7.58667 209.203 7.27333 208.856 7.06C208.523 6.83333 208.103 6.72 207.596 6.72C207.036 6.72 206.556 6.85333 206.156 7.12C205.769 7.37333 205.469 7.74 205.256 8.22C205.056 8.68667 204.956 9.24667 204.956 9.9V10.04C204.956 11.1333 205.209 11.9533 205.716 12.5C206.236 13.0333 206.996 13.3 207.996 13.3C208.343 13.3 208.729 13.26 209.156 13.18C209.596 13.0867 210.009 12.9333 210.396 12.72C210.676 12.56 210.923 12.4933 211.136 12.52C211.349 12.5333 211.516 12.6067 211.636 12.74C211.769 12.8733 211.849 13.04 211.876 13.24C211.903 13.4267 211.863 13.62 211.756 13.82C211.663 14.02 211.496 14.1933 211.256 14.34C210.789 14.6333 210.249 14.8533 209.636 15C209.036 15.1333 208.476 15.2 207.956 15.2ZM215.256 15.16C214.842 15.16 214.522 15.0533 214.296 14.84C214.082 14.6133 213.976 14.2933 213.976 13.88V6.32C213.976 5.90667 214.082 5.59333 214.296 5.38C214.509 5.16667 214.809 5.06 215.196 5.06C215.582 5.06 215.882 5.16667 216.096 5.38C216.309 5.59333 216.416 5.90667 216.416 6.32V7.58H216.216C216.402 6.78 216.769 6.17333 217.316 5.76C217.862 5.34667 218.589 5.1 219.496 5.02C219.776 4.99333 219.996 5.06667 220.156 5.24C220.329 5.4 220.429 5.65333 220.456 6C220.482 6.33333 220.402 6.60667 220.216 6.82C220.042 7.02 219.776 7.14 219.416 7.18L218.976 7.22C218.162 7.3 217.549 7.55333 217.136 7.98C216.722 8.39333 216.516 8.98 216.516 9.74V13.88C216.516 14.2933 216.409 14.6133 216.196 14.84C215.982 15.0533 215.669 15.16 215.256 15.16ZM226.373 15.16C226.04 15.16 225.747 15.0733 225.493 14.9C225.253 14.7267 225.053 14.46 224.893 14.1L221.713 6.72C221.593 6.42667 221.547 6.15333 221.573 5.9C221.613 5.64667 221.733 5.44667 221.933 5.3C222.147 5.14 222.433 5.06 222.793 5.06C223.1 5.06 223.347 5.13333 223.533 5.28C223.72 5.41333 223.887 5.67333 224.033 6.06L226.733 12.8H226.133L228.913 6.04C229.06 5.66667 229.227 5.41333 229.413 5.28C229.613 5.13333 229.88 5.06 230.213 5.06C230.507 5.06 230.74 5.14 230.913 5.3C231.087 5.44667 231.193 5.64667 231.233 5.9C231.273 6.14 231.227 6.40667 231.093 6.7L227.853 14.1C227.707 14.46 227.507 14.7267 227.253 14.9C227.013 15.0733 226.72 15.16 226.373 15.16ZM234.2 15.14C233.8 15.14 233.493 15.02 233.28 14.78C233.067 14.54 232.96 14.2067 232.96 13.78V6.44C232.96 6 233.067 5.66667 233.28 5.44C233.493 5.2 233.8 5.08 234.2 5.08C234.6 5.08 234.907 5.2 235.12 5.44C235.347 5.66667 235.46 6 235.46 6.44V13.78C235.46 14.2067 235.353 14.54 235.14 14.78C234.927 15.02 234.613 15.14 234.2 15.14ZM234.2 3.22C233.733 3.22 233.367 3.10667 233.1 2.88C232.847 2.64 232.72 2.31333 232.72 1.9C232.72 1.47333 232.847 1.14667 233.1 0.919999C233.367 0.693333 233.733 0.58 234.2 0.58C234.68 0.58 235.047 0.693333 235.3 0.919999C235.553 1.14667 235.68 1.47333 235.68 1.9C235.68 2.31333 235.553 2.64 235.3 2.88C235.047 3.10667 234.68 3.22 234.2 3.22ZM239.298 15.16C238.898 15.16 238.591 15.0533 238.378 14.84C238.164 14.6133 238.058 14.2933 238.058 13.88V6.32C238.058 5.90667 238.164 5.59333 238.378 5.38C238.591 5.16667 238.891 5.06 239.278 5.06C239.664 5.06 239.964 5.16667 240.178 5.38C240.391 5.59333 240.498 5.90667 240.498 6.32V7.68L240.278 7.18C240.571 6.47333 241.024 5.94 241.638 5.58C242.264 5.20667 242.971 5.02 243.758 5.02C244.544 5.02 245.191 5.16667 245.698 5.46C246.204 5.75333 246.584 6.2 246.838 6.8C247.091 7.38667 247.218 8.13333 247.218 9.04V13.88C247.218 14.2933 247.111 14.6133 246.898 14.84C246.684 15.0533 246.378 15.16 245.978 15.16C245.578 15.16 245.264 15.0533 245.038 14.84C244.824 14.6133 244.718 14.2933 244.718 13.88V9.16C244.718 8.4 244.571 7.84667 244.278 7.5C243.998 7.15333 243.558 6.98 242.958 6.98C242.224 6.98 241.638 7.21333 241.198 7.68C240.771 8.13333 240.558 8.74 240.558 9.5V13.88C240.558 14.7333 240.138 15.16 239.298 15.16ZM254.317 18.8C253.597 18.8 252.897 18.7333 252.217 18.6C251.55 18.4667 250.944 18.26 250.397 17.98C250.144 17.8467 249.97 17.6867 249.877 17.5C249.797 17.3133 249.77 17.12 249.797 16.92C249.837 16.7333 249.917 16.5667 250.037 16.42C250.17 16.2733 250.33 16.1733 250.517 16.12C250.704 16.0667 250.897 16.0933 251.097 16.2C251.684 16.4933 252.237 16.68 252.757 16.76C253.29 16.8533 253.744 16.9 254.117 16.9C255.01 16.9 255.677 16.68 256.117 16.24C256.57 15.8133 256.797 15.1733 256.797 14.32V12.52H256.977C256.777 13.2 256.357 13.7467 255.717 14.16C255.09 14.56 254.377 14.76 253.577 14.76C252.697 14.76 251.93 14.56 251.277 14.16C250.624 13.7467 250.117 13.1733 249.757 12.44C249.397 11.7067 249.217 10.8533 249.217 9.88C249.217 9.14667 249.317 8.48667 249.517 7.9C249.73 7.3 250.024 6.78667 250.397 6.36C250.784 5.93333 251.244 5.60667 251.777 5.38C252.324 5.14 252.924 5.02 253.577 5.02C254.404 5.02 255.124 5.22667 255.737 5.64C256.364 6.04 256.77 6.57333 256.957 7.24L256.757 7.74V6.32C256.757 5.90667 256.864 5.59333 257.077 5.38C257.304 5.16667 257.61 5.06 257.997 5.06C258.397 5.06 258.704 5.16667 258.917 5.38C259.13 5.59333 259.237 5.90667 259.237 6.32V14.02C259.237 15.6067 258.817 16.8 257.977 17.6C257.137 18.4 255.917 18.8 254.317 18.8ZM254.257 12.86C254.777 12.86 255.224 12.74 255.597 12.5C255.97 12.26 256.257 11.92 256.457 11.48C256.67 11.0267 256.777 10.4933 256.777 9.88C256.777 8.96 256.55 8.24 256.097 7.72C255.644 7.18667 255.03 6.92 254.257 6.92C253.737 6.92 253.29 7.04 252.917 7.28C252.544 7.52 252.25 7.86 252.037 8.3C251.837 8.74 251.737 9.26667 251.737 9.88C251.737 10.8 251.964 11.5267 252.417 12.06C252.87 12.5933 253.484 12.86 254.257 12.86ZM271.737 15.2C270.87 15.2 270.144 15.0533 269.557 14.76C268.984 14.4667 268.557 14.04 268.277 13.48C267.997 12.9067 267.857 12.2 267.857 11.36V7.1H266.817C266.497 7.1 266.25 7.02 266.077 6.86C265.904 6.68667 265.817 6.45333 265.817 6.16C265.817 5.85333 265.904 5.62 266.077 5.46C266.25 5.3 266.497 5.22 266.817 5.22H267.857V3.4C267.857 2.98667 267.964 2.67333 268.177 2.46C268.404 2.24667 268.717 2.14 269.117 2.14C269.517 2.14 269.824 2.24667 270.037 2.46C270.25 2.67333 270.357 2.98667 270.357 3.4V5.22H272.477C272.797 5.22 273.044 5.3 273.217 5.46C273.39 5.62 273.477 5.85333 273.477 6.16C273.477 6.45333 273.39 6.68667 273.217 6.86C273.044 7.02 272.797 7.1 272.477 7.1H270.357V11.22C270.357 11.86 270.497 12.34 270.777 12.66C271.057 12.98 271.51 13.14 272.137 13.14C272.364 13.14 272.564 13.12 272.737 13.08C272.91 13.04 273.064 13.0133 273.197 13C273.357 12.9867 273.49 13.04 273.597 13.16C273.704 13.2667 273.757 13.4933 273.757 13.84C273.757 14.1067 273.71 14.3467 273.617 14.56C273.537 14.76 273.384 14.9 273.157 14.98C272.984 15.0333 272.757 15.08 272.477 15.12C272.197 15.1733 271.95 15.2 271.737 15.2ZM276.427 15.16C276.027 15.16 275.72 15.0533 275.507 14.84C275.293 14.6133 275.187 14.2933 275.187 13.88V2C275.187 1.58667 275.293 1.27333 275.507 1.06C275.72 0.846666 276.027 0.739999 276.427 0.739999C276.827 0.739999 277.133 0.846666 277.347 1.06C277.573 1.27333 277.687 1.58667 277.687 2V7.18H277.407C277.7 6.47333 278.153 5.94 278.767 5.58C279.393 5.20667 280.1 5.02 280.887 5.02C281.673 5.02 282.32 5.16667 282.827 5.46C283.333 5.75333 283.713 6.2 283.967 6.8C284.22 7.38667 284.347 8.13333 284.347 9.04V13.88C284.347 14.2933 284.24 14.6133 284.027 14.84C283.813 15.0533 283.507 15.16 283.107 15.16C282.707 15.16 282.393 15.0533 282.167 14.84C281.953 14.6133 281.847 14.2933 281.847 13.88V9.16C281.847 8.4 281.7 7.84667 281.407 7.5C281.127 7.15333 280.687 6.98 280.087 6.98C279.353 6.98 278.767 7.21333 278.327 7.68C277.9 8.13333 277.687 8.74 277.687 9.5V13.88C277.687 14.7333 277.267 15.16 276.427 15.16ZM291.706 15.2C290.599 15.2 289.646 14.9933 288.846 14.58C288.046 14.1667 287.426 13.58 286.986 12.82C286.559 12.06 286.346 11.16 286.346 10.12C286.346 9.10667 286.553 8.22 286.966 7.46C287.393 6.7 287.973 6.10667 288.706 5.68C289.453 5.24 290.299 5.02 291.246 5.02C291.939 5.02 292.559 5.13333 293.106 5.36C293.666 5.58667 294.139 5.91333 294.526 6.34C294.926 6.76667 295.226 7.28667 295.426 7.9C295.639 8.5 295.746 9.18 295.746 9.94C295.746 10.18 295.659 10.3667 295.486 10.5C295.326 10.62 295.093 10.68 294.786 10.68H288.366V9.24H293.986L293.666 9.54C293.666 8.92667 293.573 8.41333 293.386 8C293.213 7.58667 292.953 7.27333 292.606 7.06C292.273 6.83333 291.853 6.72 291.346 6.72C290.786 6.72 290.306 6.85333 289.906 7.12C289.519 7.37333 289.219 7.74 289.006 8.22C288.806 8.68667 288.706 9.24667 288.706 9.9V10.04C288.706 11.1333 288.959 11.9533 289.466 12.5C289.986 13.0333 290.746 13.3 291.746 13.3C292.093 13.3 292.479 13.26 292.906 13.18C293.346 13.0867 293.759 12.9333 294.146 12.72C294.426 12.56 294.673 12.4933 294.886 12.52C295.099 12.5333 295.266 12.6067 295.386 12.74C295.519 12.8733 295.599 13.04 295.626 13.24C295.653 13.4267 295.613 13.62 295.506 13.82C295.413 14.02 295.246 14.1933 295.006 14.34C294.539 14.6333 293.999 14.8533 293.386 15C292.786 15.1333 292.226 15.2 291.706 15.2ZM307.675 15.2C306.649 15.2 305.755 14.9933 304.995 14.58C304.235 14.1533 303.649 13.5533 303.235 12.78C302.822 12.0067 302.615 11.1 302.615 10.06C302.615 9.27333 302.729 8.57333 302.955 7.96C303.195 7.33333 303.535 6.80667 303.975 6.38C304.415 5.94 304.949 5.60667 305.575 5.38C306.202 5.14 306.902 5.02 307.675 5.02C308.115 5.02 308.589 5.08 309.095 5.2C309.615 5.32 310.102 5.52 310.555 5.8C310.769 5.93333 310.909 6.09333 310.975 6.28C311.042 6.46667 311.055 6.66 311.015 6.86C310.975 7.04667 310.889 7.21333 310.755 7.36C310.635 7.49333 310.482 7.58 310.295 7.62C310.109 7.64667 309.902 7.6 309.675 7.48C309.382 7.30667 309.082 7.18 308.775 7.1C308.469 7.00667 308.175 6.96 307.895 6.96C307.455 6.96 307.069 7.03333 306.735 7.18C306.402 7.31333 306.115 7.51333 305.875 7.78C305.649 8.03333 305.475 8.35333 305.355 8.74C305.235 9.12667 305.175 9.57333 305.175 10.08C305.175 11.0667 305.409 11.8467 305.875 12.42C306.355 12.98 307.029 13.26 307.895 13.26C308.175 13.26 308.462 13.22 308.755 13.14C309.062 13.06 309.369 12.9333 309.675 12.76C309.902 12.64 310.102 12.6 310.275 12.64C310.462 12.68 310.615 12.7733 310.735 12.92C310.855 13.0533 310.929 13.22 310.955 13.42C310.982 13.6067 310.955 13.7933 310.875 13.98C310.809 14.1667 310.675 14.32 310.475 14.44C310.035 14.7067 309.569 14.9 309.075 15.02C308.582 15.14 308.115 15.2 307.675 15.2ZM313.869 15.16C313.456 15.16 313.136 15.0533 312.909 14.84C312.696 14.6133 312.589 14.2933 312.589 13.88V6.32C312.589 5.90667 312.696 5.59333 312.909 5.38C313.122 5.16667 313.422 5.06 313.809 5.06C314.196 5.06 314.496 5.16667 314.709 5.38C314.922 5.59333 315.029 5.90667 315.029 6.32V7.58H314.829C315.016 6.78 315.382 6.17333 315.929 5.76C316.476 5.34667 317.202 5.1 318.109 5.02C318.389 4.99333 318.609 5.06667 318.769 5.24C318.942 5.4 319.042 5.65333 319.069 6C319.096 6.33333 319.016 6.60667 318.829 6.82C318.656 7.02 318.389 7.14 318.029 7.18L317.589 7.22C316.776 7.3 316.162 7.55333 315.749 7.98C315.336 8.39333 315.129 8.98 315.129 9.74V13.88C315.129 14.2933 315.022 14.6133 314.809 14.84C314.596 15.0533 314.282 15.16 313.869 15.16ZM324.725 15.2C323.712 15.2 322.832 14.9933 322.085 14.58C321.338 14.1667 320.758 13.58 320.345 12.82C319.932 12.0467 319.725 11.14 319.725 10.1C319.725 9.31333 319.838 8.61333 320.065 8C320.305 7.37333 320.645 6.84 321.085 6.4C321.525 5.94667 322.052 5.60667 322.665 5.38C323.278 5.14 323.965 5.02 324.725 5.02C325.738 5.02 326.618 5.22667 327.365 5.64C328.112 6.05333 328.692 6.64 329.105 7.4C329.518 8.16 329.725 9.06 329.725 10.1C329.725 10.8867 329.605 11.5933 329.365 12.22C329.138 12.8467 328.805 13.3867 328.365 13.84C327.925 14.28 327.398 14.62 326.785 14.86C326.172 15.0867 325.485 15.2 324.725 15.2ZM324.725 13.3C325.218 13.3 325.652 13.18 326.025 12.94C326.398 12.7 326.685 12.3467 326.885 11.88C327.098 11.4 327.205 10.8067 327.205 10.1C327.205 9.03333 326.978 8.24 326.525 7.72C326.072 7.18667 325.472 6.92 324.725 6.92C324.232 6.92 323.798 7.04 323.425 7.28C323.052 7.50667 322.758 7.86 322.545 8.34C322.345 8.80667 322.245 9.39333 322.245 10.1C322.245 11.1533 322.472 11.9533 322.925 12.5C323.378 13.0333 323.978 13.3 324.725 13.3ZM335.368 15.2C334.795 15.2 334.188 15.14 333.548 15.02C332.908 14.9 332.335 14.6933 331.828 14.4C331.615 14.2667 331.462 14.1133 331.368 13.94C331.288 13.7533 331.255 13.5733 331.268 13.4C331.295 13.2133 331.362 13.0533 331.468 12.92C331.588 12.7867 331.735 12.7 331.908 12.66C332.095 12.62 332.295 12.6533 332.508 12.76C333.042 13.0133 333.542 13.1933 334.008 13.3C334.475 13.3933 334.935 13.44 335.388 13.44C336.028 13.44 336.502 13.3333 336.808 13.12C337.128 12.8933 337.288 12.6 337.288 12.24C337.288 11.9333 337.182 11.7 336.968 11.54C336.768 11.3667 336.462 11.24 336.048 11.16L334.048 10.78C333.222 10.62 332.588 10.32 332.148 9.88C331.722 9.42667 331.508 8.84667 331.508 8.14C331.508 7.5 331.682 6.94667 332.028 6.48C332.388 6.01333 332.882 5.65333 333.508 5.4C334.135 5.14667 334.855 5.02 335.668 5.02C336.255 5.02 336.802 5.08667 337.308 5.22C337.828 5.34 338.328 5.53333 338.808 5.8C339.008 5.90667 339.142 6.04667 339.208 6.22C339.288 6.39333 339.308 6.57333 339.268 6.76C339.228 6.93333 339.148 7.09333 339.028 7.24C338.908 7.37333 338.755 7.46 338.568 7.5C338.395 7.52667 338.195 7.48667 337.968 7.38C337.555 7.16667 337.155 7.01333 336.768 6.92C336.395 6.82667 336.035 6.78 335.688 6.78C335.035 6.78 334.548 6.89333 334.228 7.12C333.922 7.34667 333.768 7.64667 333.768 8.02C333.768 8.3 333.862 8.53333 334.048 8.72C334.235 8.90667 334.522 9.03333 334.908 9.1L336.908 9.48C337.775 9.64 338.428 9.93333 338.868 10.36C339.322 10.7867 339.548 11.36 339.548 12.08C339.548 13.0533 339.168 13.82 338.408 14.38C337.648 14.9267 336.635 15.2 335.368 15.2ZM345.134 15.2C344.561 15.2 343.954 15.14 343.314 15.02C342.674 14.9 342.101 14.6933 341.594 14.4C341.381 14.2667 341.227 14.1133 341.134 13.94C341.054 13.7533 341.021 13.5733 341.034 13.4C341.061 13.2133 341.127 13.0533 341.234 12.92C341.354 12.7867 341.501 12.7 341.674 12.66C341.861 12.62 342.061 12.6533 342.274 12.76C342.807 13.0133 343.307 13.1933 343.774 13.3C344.241 13.3933 344.701 13.44 345.154 13.44C345.794 13.44 346.267 13.3333 346.574 13.12C346.894 12.8933 347.054 12.6 347.054 12.24C347.054 11.9333 346.947 11.7 346.734 11.54C346.534 11.3667 346.227 11.24 345.814 11.16L343.814 10.78C342.987 10.62 342.354 10.32 341.914 9.88C341.487 9.42667 341.274 8.84667 341.274 8.14C341.274 7.5 341.447 6.94667 341.794 6.48C342.154 6.01333 342.647 5.65333 343.274 5.4C343.901 5.14667 344.621 5.02 345.434 5.02C346.021 5.02 346.567 5.08667 347.074 5.22C347.594 5.34 348.094 5.53333 348.574 5.8C348.774 5.90667 348.907 6.04667 348.974 6.22C349.054 6.39333 349.074 6.57333 349.034 6.76C348.994 6.93333 348.914 7.09333 348.794 7.24C348.674 7.37333 348.521 7.46 348.334 7.5C348.161 7.52667 347.961 7.48667 347.734 7.38C347.321 7.16667 346.921 7.01333 346.534 6.92C346.161 6.82667 345.801 6.78 345.454 6.78C344.801 6.78 344.314 6.89333 343.994 7.12C343.687 7.34667 343.534 7.64667 343.534 8.02C343.534 8.3 343.627 8.53333 343.814 8.72C344.001 8.90667 344.287 9.03333 344.674 9.1L346.674 9.48C347.541 9.64 348.194 9.93333 348.634 10.36C349.087 10.7867 349.314 11.36 349.314 12.08C349.314 13.0533 348.934 13.82 348.174 14.38C347.414 14.9267 346.401 15.2 345.134 15.2ZM352.24 10.64C351.946 10.64 351.7 10.5467 351.5 10.36C351.313 10.16 351.22 9.92 351.22 9.64C351.22 9.34667 351.313 9.10667 351.5 8.92C351.7 8.73333 351.946 8.64 352.24 8.64H356.5C356.78 8.64 357.013 8.73333 357.2 8.92C357.4 9.10667 357.5 9.34667 357.5 9.64C357.5 9.92 357.4 10.16 357.2 10.36C357.013 10.5467 356.78 10.64 356.5 10.64H352.24ZM363.669 15.2C363.096 15.2 362.489 15.14 361.849 15.02C361.209 14.9 360.636 14.6933 360.129 14.4C359.916 14.2667 359.762 14.1133 359.669 13.94C359.589 13.7533 359.556 13.5733 359.569 13.4C359.596 13.2133 359.662 13.0533 359.769 12.92C359.889 12.7867 360.036 12.7 360.209 12.66C360.396 12.62 360.596 12.6533 360.809 12.76C361.342 13.0133 361.842 13.1933 362.309 13.3C362.776 13.3933 363.236 13.44 363.689 13.44C364.329 13.44 364.802 13.3333 365.109 13.12C365.429 12.8933 365.589 12.6 365.589 12.24C365.589 11.9333 365.482 11.7 365.269 11.54C365.069 11.3667 364.762 11.24 364.349 11.16L362.349 10.78C361.522 10.62 360.889 10.32 360.449 9.88C360.022 9.42667 359.809 8.84667 359.809 8.14C359.809 7.5 359.982 6.94667 360.329 6.48C360.689 6.01333 361.182 5.65333 361.809 5.4C362.436 5.14667 363.156 5.02 363.969 5.02C364.556 5.02 365.102 5.08667 365.609 5.22C366.129 5.34 366.629 5.53333 367.109 5.8C367.309 5.90667 367.442 6.04667 367.509 6.22C367.589 6.39333 367.609 6.57333 367.569 6.76C367.529 6.93333 367.449 7.09333 367.329 7.24C367.209 7.37333 367.056 7.46 366.869 7.5C366.696 7.52667 366.496 7.48667 366.269 7.38C365.856 7.16667 365.456 7.01333 365.069 6.92C364.696 6.82667 364.336 6.78 363.989 6.78C363.336 6.78 362.849 6.89333 362.529 7.12C362.222 7.34667 362.069 7.64667 362.069 8.02C362.069 8.3 362.162 8.53333 362.349 8.72C362.536 8.90667 362.822 9.03333 363.209 9.1L365.209 9.48C366.076 9.64 366.729 9.93333 367.169 10.36C367.622 10.7867 367.849 11.36 367.849 12.08C367.849 13.0533 367.469 13.82 366.709 14.38C365.949 14.9267 364.936 15.2 363.669 15.2ZM374.675 15.2C373.568 15.2 372.615 14.9933 371.815 14.58C371.015 14.1667 370.395 13.58 369.955 12.82C369.528 12.06 369.315 11.16 369.315 10.12C369.315 9.10667 369.521 8.22 369.935 7.46C370.361 6.7 370.941 6.10667 371.675 5.68C372.421 5.24 373.268 5.02 374.215 5.02C374.908 5.02 375.528 5.13333 376.075 5.36C376.635 5.58667 377.108 5.91333 377.495 6.34C377.895 6.76667 378.195 7.28667 378.395 7.9C378.608 8.5 378.715 9.18 378.715 9.94C378.715 10.18 378.628 10.3667 378.455 10.5C378.295 10.62 378.061 10.68 377.755 10.68H371.335V9.24H376.955L376.635 9.54C376.635 8.92667 376.541 8.41333 376.355 8C376.181 7.58667 375.921 7.27333 375.575 7.06C375.241 6.83333 374.821 6.72 374.315 6.72C373.755 6.72 373.275 6.85333 372.875 7.12C372.488 7.37333 372.188 7.74 371.975 8.22C371.775 8.68667 371.675 9.24667 371.675 9.9V10.04C371.675 11.1333 371.928 11.9533 372.435 12.5C372.955 13.0333 373.715 13.3 374.715 13.3C375.061 13.3 375.448 13.26 375.875 13.18C376.315 13.0867 376.728 12.9333 377.115 12.72C377.395 12.56 377.641 12.4933 377.855 12.52C378.068 12.5333 378.235 12.6067 378.355 12.74C378.488 12.8733 378.568 13.04 378.595 13.24C378.621 13.4267 378.581 13.62 378.475 13.82C378.381 14.02 378.215 14.1933 377.975 14.34C377.508 14.6333 376.968 14.8533 376.355 15C375.755 15.1333 375.195 15.2 374.675 15.2ZM385.215 15.2C384.188 15.2 383.295 14.9933 382.535 14.58C381.775 14.1533 381.188 13.5533 380.775 12.78C380.361 12.0067 380.155 11.1 380.155 10.06C380.155 9.27333 380.268 8.57333 380.495 7.96C380.735 7.33333 381.075 6.80667 381.515 6.38C381.955 5.94 382.488 5.60667 383.115 5.38C383.741 5.14 384.441 5.02 385.215 5.02C385.655 5.02 386.128 5.08 386.635 5.2C387.155 5.32 387.641 5.52 388.095 5.8C388.308 5.93333 388.448 6.09333 388.515 6.28C388.581 6.46667 388.595 6.66 388.555 6.86C388.515 7.04667 388.428 7.21333 388.295 7.36C388.175 7.49333 388.021 7.58 387.835 7.62C387.648 7.64667 387.441 7.6 387.215 7.48C386.921 7.30667 386.621 7.18 386.315 7.1C386.008 7.00667 385.715 6.96 385.435 6.96C384.995 6.96 384.608 7.03333 384.275 7.18C383.941 7.31333 383.655 7.51333 383.415 7.78C383.188 8.03333 383.015 8.35333 382.895 8.74C382.775 9.12667 382.715 9.57333 382.715 10.08C382.715 11.0667 382.948 11.8467 383.415 12.42C383.895 12.98 384.568 13.26 385.435 13.26C385.715 13.26 386.001 13.22 386.295 13.14C386.601 13.06 386.908 12.9333 387.215 12.76C387.441 12.64 387.641 12.6 387.815 12.64C388.001 12.68 388.155 12.7733 388.275 12.92C388.395 13.0533 388.468 13.22 388.495 13.42C388.521 13.6067 388.495 13.7933 388.415 13.98C388.348 14.1667 388.215 14.32 388.015 14.44C387.575 14.7067 387.108 14.9 386.615 15.02C386.121 15.14 385.655 15.2 385.215 15.2ZM394.647 15.2C393.781 15.2 393.054 15.0533 392.467 14.76C391.894 14.4667 391.467 14.04 391.187 13.48C390.907 12.9067 390.767 12.2 390.767 11.36V7.1H389.727C389.407 7.1 389.161 7.02 388.987 6.86C388.814 6.68667 388.727 6.45333 388.727 6.16C388.727 5.85333 388.814 5.62 388.987 5.46C389.161 5.3 389.407 5.22 389.727 5.22H390.767V3.4C390.767 2.98667 390.874 2.67333 391.087 2.46C391.314 2.24667 391.627 2.14 392.027 2.14C392.427 2.14 392.734 2.24667 392.947 2.46C393.161 2.67333 393.267 2.98667 393.267 3.4V5.22H395.387C395.707 5.22 395.954 5.3 396.127 5.46C396.301 5.62 396.387 5.85333 396.387 6.16C396.387 6.45333 396.301 6.68667 396.127 6.86C395.954 7.02 395.707 7.1 395.387 7.1H393.267V11.22C393.267 11.86 393.407 12.34 393.687 12.66C393.967 12.98 394.421 13.14 395.047 13.14C395.274 13.14 395.474 13.12 395.647 13.08C395.821 13.04 395.974 13.0133 396.107 13C396.267 12.9867 396.401 13.04 396.507 13.16C396.614 13.2667 396.667 13.4933 396.667 13.84C396.667 14.1067 396.621 14.3467 396.527 14.56C396.447 14.76 396.294 14.9 396.067 14.98C395.894 15.0333 395.667 15.08 395.387 15.12C395.107 15.1733 394.861 15.2 394.647 15.2ZM399.337 15.14C398.937 15.14 398.63 15.02 398.417 14.78C398.204 14.54 398.097 14.2067 398.097 13.78V6.44C398.097 6 398.204 5.66667 398.417 5.44C398.63 5.2 398.937 5.08 399.337 5.08C399.737 5.08 400.044 5.2 400.257 5.44C400.484 5.66667 400.597 6 400.597 6.44V13.78C400.597 14.2067 400.49 14.54 400.277 14.78C400.064 15.02 399.75 15.14 399.337 15.14ZM399.337 3.22C398.87 3.22 398.504 3.10667 398.237 2.88C397.984 2.64 397.857 2.31333 397.857 1.9C397.857 1.47333 397.984 1.14667 398.237 0.919999C398.504 0.693333 398.87 0.58 399.337 0.58C399.817 0.58 400.184 0.693333 400.437 0.919999C400.69 1.14667 400.817 1.47333 400.817 1.9C400.817 2.31333 400.69 2.64 400.437 2.88C400.184 3.10667 399.817 3.22 399.337 3.22ZM407.655 15.2C406.641 15.2 405.761 14.9933 405.015 14.58C404.268 14.1667 403.688 13.58 403.275 12.82C402.861 12.0467 402.655 11.14 402.655 10.1C402.655 9.31333 402.768 8.61333 402.995 8C403.235 7.37333 403.575 6.84 404.015 6.4C404.455 5.94667 404.981 5.60667 405.595 5.38C406.208 5.14 406.895 5.02 407.655 5.02C408.668 5.02 409.548 5.22667 410.295 5.64C411.041 6.05333 411.621 6.64 412.035 7.4C412.448 8.16 412.655 9.06 412.655 10.1C412.655 10.8867 412.535 11.5933 412.295 12.22C412.068 12.8467 411.735 13.3867 411.295 13.84C410.855 14.28 410.328 14.62 409.715 14.86C409.101 15.0867 408.415 15.2 407.655 15.2ZM407.655 13.3C408.148 13.3 408.581 13.18 408.955 12.94C409.328 12.7 409.615 12.3467 409.815 11.88C410.028 11.4 410.135 10.8067 410.135 10.1C410.135 9.03333 409.908 8.24 409.455 7.72C409.001 7.18667 408.401 6.92 407.655 6.92C407.161 6.92 406.728 7.04 406.355 7.28C405.981 7.50667 405.688 7.86 405.475 8.34C405.275 8.80667 405.175 9.39333 405.175 10.1C405.175 11.1533 405.401 11.9533 405.855 12.5C406.308 13.0333 406.908 13.3 407.655 13.3ZM415.958 15.16C415.558 15.16 415.251 15.0533 415.038 14.84C414.825 14.6133 414.718 14.2933 414.718 13.88V6.32C414.718 5.90667 414.825 5.59333 415.038 5.38C415.251 5.16667 415.551 5.06 415.938 5.06C416.325 5.06 416.625 5.16667 416.838 5.38C417.051 5.59333 417.158 5.90667 417.158 6.32V7.68L416.938 7.18C417.231 6.47333 417.685 5.94 418.298 5.58C418.925 5.20667 419.631 5.02 420.418 5.02C421.205 5.02 421.851 5.16667 422.358 5.46C422.865 5.75333 423.245 6.2 423.498 6.8C423.751 7.38667 423.878 8.13333 423.878 9.04V13.88C423.878 14.2933 423.771 14.6133 423.558 14.84C423.345 15.0533 423.038 15.16 422.638 15.16C422.238 15.16 421.925 15.0533 421.698 14.84C421.485 14.6133 421.378 14.2933 421.378 13.88V9.16C421.378 8.4 421.231 7.84667 420.938 7.5C420.658 7.15333 420.218 6.98 419.618 6.98C418.885 6.98 418.298 7.21333 417.858 7.68C417.431 8.13333 417.218 8.74 417.218 9.5V13.88C417.218 14.7333 416.798 15.16 415.958 15.16ZM427.617 15.1C427.164 15.1 426.797 14.96 426.517 14.68C426.251 14.4 426.117 14.04 426.117 13.6C426.117 13.1733 426.251 12.8267 426.517 12.56C426.797 12.28 427.164 12.14 427.617 12.14C428.084 12.14 428.444 12.28 428.697 12.56C428.964 12.8267 429.097 13.1733 429.097 13.6C429.097 14.04 428.964 14.4 428.697 14.68C428.444 14.96 428.084 15.1 427.617 15.1Z" fill="#444444"/>
</svg>
