<svg width="555" height="28" viewBox="0 0 555 28" fill="none" xmlns="http://www.w3.org/2000/svg">
<path d="M2.18523 21.16C1.7719 21.16 1.4519 21.0467 1.22523 20.82C1.0119 20.58 0.905235 20.2533 0.905235 19.84V8.2C0.905235 7.77333 1.01857 7.45333 1.24523 7.24C1.4719 7.01333 1.7919 6.9 2.20523 6.9H7.02523C8.5719 6.9 9.76523 7.27333 10.6052 8.02C11.4452 8.75333 11.8652 9.78667 11.8652 11.12C11.8652 11.9867 11.6719 12.7333 11.2852 13.36C10.9119 13.9867 10.3652 14.4667 9.64523 14.8C8.92523 15.1333 8.0519 15.3 7.02523 15.3L7.20523 15H7.86523C8.4119 15 8.88523 15.1333 9.28523 15.4C9.69857 15.6667 10.0586 16.0867 10.3652 16.66L11.8652 19.44C12.0252 19.72 12.0986 19.9933 12.0852 20.26C12.0719 20.5267 11.9719 20.7467 11.7852 20.92C11.5986 21.08 11.3252 21.16 10.9652 21.16C10.6052 21.16 10.3119 21.0867 10.0852 20.94C9.85857 20.78 9.65857 20.54 9.48524 20.22L7.46523 16.5C7.22523 16.0467 6.93857 15.7467 6.60523 15.6C6.28523 15.44 5.8719 15.36 5.36523 15.36H3.46523V19.84C3.46523 20.2533 3.35857 20.58 3.14523 20.82C2.9319 21.0467 2.6119 21.16 2.18523 21.16ZM3.46523 13.46H6.58523C7.50523 13.46 8.19857 13.2733 8.66524 12.9C9.14524 12.5133 9.38524 11.94 9.38524 11.18C9.38524 10.4333 9.14524 9.87333 8.66524 9.5C8.19857 9.11333 7.50523 8.92 6.58523 8.92H3.46523V13.46ZM18.9423 21.2C17.8356 21.2 16.8823 20.9933 16.0823 20.58C15.2823 20.1667 14.6623 19.58 14.2223 18.82C13.7956 18.06 13.5823 17.16 13.5823 16.12C13.5823 15.1067 13.7889 14.22 14.2023 13.46C14.6289 12.7 15.2089 12.1067 15.9423 11.68C16.6889 11.24 17.5356 11.02 18.4823 11.02C19.1756 11.02 19.7956 11.1333 20.3423 11.36C20.9023 11.5867 21.3756 11.9133 21.7623 12.34C22.1623 12.7667 22.4623 13.2867 22.6623 13.9C22.8756 14.5 22.9823 15.18 22.9823 15.94C22.9823 16.18 22.8956 16.3667 22.7223 16.5C22.5623 16.62 22.3289 16.68 22.0223 16.68H15.6023V15.24H21.2223L20.9023 15.54C20.9023 14.9267 20.8089 14.4133 20.6223 14C20.4489 13.5867 20.1889 13.2733 19.8423 13.06C19.5089 12.8333 19.0889 12.72 18.5823 12.72C18.0223 12.72 17.5423 12.8533 17.1423 13.12C16.7556 13.3733 16.4556 13.74 16.2423 14.22C16.0423 14.6867 15.9423 15.2467 15.9423 15.9V16.04C15.9423 17.1333 16.1956 17.9533 16.7023 18.5C17.2223 19.0333 17.9823 19.3 18.9823 19.3C19.3289 19.3 19.7156 19.26 20.1423 19.18C20.5823 19.0867 20.9956 18.9333 21.3823 18.72C21.6623 18.56 21.9089 18.4933 22.1223 18.52C22.3356 18.5333 22.5023 18.6067 22.6223 18.74C22.7556 18.8733 22.8356 19.04 22.8623 19.24C22.8889 19.4267 22.8489 19.62 22.7423 19.82C22.6489 20.02 22.4823 20.1933 22.2423 20.34C21.7756 20.6333 21.2356 20.8533 20.6223 21C20.0223 21.1333 19.4623 21.2 18.9423 21.2ZM29.4821 21.2C28.4554 21.2 27.5621 20.9933 26.8021 20.58C26.0421 20.1533 25.4554 19.5533 25.0421 18.78C24.6288 18.0067 24.4221 17.1 24.4221 16.06C24.4221 15.2733 24.5354 14.5733 24.7621 13.96C25.0021 13.3333 25.3421 12.8067 25.7821 12.38C26.2221 11.94 26.7554 11.6067 27.3821 11.38C28.0088 11.14 28.7088 11.02 29.4821 11.02C29.9221 11.02 30.3954 11.08 30.9021 11.2C31.4221 11.32 31.9088 11.52 32.3621 11.8C32.5754 11.9333 32.7154 12.0933 32.7821 12.28C32.8488 12.4667 32.8621 12.66 32.8221 12.86C32.7821 13.0467 32.6954 13.2133 32.5621 13.36C32.4421 13.4933 32.2888 13.58 32.1021 13.62C31.9154 13.6467 31.7088 13.6 31.4821 13.48C31.1888 13.3067 30.8888 13.18 30.5821 13.1C30.2754 13.0067 29.9821 12.96 29.7021 12.96C29.2621 12.96 28.8754 13.0333 28.5421 13.18C28.2088 13.3133 27.9221 13.5133 27.6821 13.78C27.4554 14.0333 27.2821 14.3533 27.1621 14.74C27.0421 15.1267 26.9821 15.5733 26.9821 16.08C26.9821 17.0667 27.2154 17.8467 27.6821 18.42C28.1621 18.98 28.8354 19.26 29.7021 19.26C29.9821 19.26 30.2688 19.22 30.5621 19.14C30.8688 19.06 31.1754 18.9333 31.4821 18.76C31.7088 18.64 31.9088 18.6 32.0821 18.64C32.2688 18.68 32.4221 18.7733 32.5421 18.92C32.6621 19.0533 32.7354 19.22 32.7621 19.42C32.7888 19.6067 32.7621 19.7933 32.6821 19.98C32.6154 20.1667 32.4821 20.32 32.2821 20.44C31.8421 20.7067 31.3754 20.9 30.8821 21.02C30.3888 21.14 29.9221 21.2 29.4821 21.2ZM38.9148 21.2C38.0481 21.2 37.3214 21.0533 36.7348 20.76C36.1614 20.4667 35.7348 20.04 35.4548 19.48C35.1748 18.9067 35.0348 18.2 35.0348 17.36V13.1H33.9948C33.6748 13.1 33.4281 13.02 33.2548 12.86C33.0814 12.6867 32.9948 12.4533 32.9948 12.16C32.9948 11.8533 33.0814 11.62 33.2548 11.46C33.4281 11.3 33.6748 11.22 33.9948 11.22H35.0348V9.4C35.0348 8.98667 35.1414 8.67333 35.3548 8.46C35.5814 8.24667 35.8948 8.14 36.2948 8.14C36.6948 8.14 37.0014 8.24667 37.2148 8.46C37.4281 8.67333 37.5348 8.98667 37.5348 9.4V11.22H39.6548C39.9748 11.22 40.2214 11.3 40.3948 11.46C40.5681 11.62 40.6548 11.8533 40.6548 12.16C40.6548 12.4533 40.5681 12.6867 40.3948 12.86C40.2214 13.02 39.9748 13.1 39.6548 13.1H37.5348V17.22C37.5348 17.86 37.6748 18.34 37.9548 18.66C38.2348 18.98 38.6881 19.14 39.3148 19.14C39.5414 19.14 39.7414 19.12 39.9148 19.08C40.0881 19.04 40.2414 19.0133 40.3748 19C40.5348 18.9867 40.6681 19.04 40.7748 19.16C40.8814 19.2667 40.9348 19.4933 40.9348 19.84C40.9348 20.1067 40.8881 20.3467 40.7948 20.56C40.7148 20.76 40.5614 20.9 40.3348 20.98C40.1614 21.0333 39.9348 21.08 39.6548 21.12C39.3748 21.1733 39.1281 21.2 38.9148 21.2ZM45.3305 21.2C44.6239 21.2 43.9905 21.0667 43.4305 20.8C42.8839 20.52 42.4505 20.1467 42.1305 19.68C41.8239 19.2133 41.6705 18.6867 41.6705 18.1C41.6705 17.38 41.8572 16.8133 42.2305 16.4C42.6039 15.9733 43.2105 15.6667 44.0505 15.48C44.8905 15.2933 46.0172 15.2 47.4305 15.2H48.4305V16.64H47.4505C46.6239 16.64 45.9639 16.68 45.4705 16.76C44.9772 16.84 44.6239 16.98 44.4105 17.18C44.2105 17.3667 44.1105 17.6333 44.1105 17.98C44.1105 18.42 44.2639 18.78 44.5705 19.06C44.8772 19.34 45.3039 19.48 45.8505 19.48C46.2905 19.48 46.6772 19.38 47.0105 19.18C47.3572 18.9667 47.6305 18.68 47.8305 18.32C48.0305 17.96 48.1305 17.5467 48.1305 17.08V14.78C48.1305 14.1133 47.9839 13.6333 47.6905 13.34C47.3972 13.0467 46.9039 12.9 46.2105 12.9C45.8239 12.9 45.4039 12.9467 44.9505 13.04C44.5105 13.1333 44.0439 13.2933 43.5505 13.52C43.2972 13.64 43.0705 13.6733 42.8705 13.62C42.6839 13.5667 42.5372 13.46 42.4305 13.3C42.3239 13.1267 42.2705 12.94 42.2705 12.74C42.2705 12.54 42.3239 12.3467 42.4305 12.16C42.5372 11.96 42.7172 11.8133 42.9705 11.72C43.5839 11.4667 44.1705 11.2867 44.7305 11.18C45.3039 11.0733 45.8239 11.02 46.2905 11.02C47.2505 11.02 48.0372 11.1667 48.6505 11.46C49.2772 11.7533 49.7439 12.2 50.0505 12.8C50.3572 13.3867 50.5105 14.1467 50.5105 15.08V19.88C50.5105 20.2933 50.4105 20.6133 50.2105 20.84C50.0105 21.0533 49.7239 21.16 49.3505 21.16C48.9772 21.16 48.6839 21.0533 48.4705 20.84C48.2705 20.6133 48.1705 20.2933 48.1705 19.88V18.92H48.3305C48.2372 19.3867 48.0505 19.7933 47.7705 20.14C47.5039 20.4733 47.1639 20.7333 46.7505 20.92C46.3372 21.1067 45.8639 21.2 45.3305 21.2ZM54.288 21.16C53.888 21.16 53.5814 21.0533 53.368 20.84C53.1547 20.6133 53.048 20.2933 53.048 19.88V12.32C53.048 11.9067 53.1547 11.5933 53.368 11.38C53.5814 11.1667 53.8814 11.06 54.268 11.06C54.6547 11.06 54.9547 11.1667 55.168 11.38C55.3814 11.5933 55.488 11.9067 55.488 12.32V13.68L55.268 13.18C55.5614 12.4733 56.0147 11.94 56.628 11.58C57.2547 11.2067 57.9614 11.02 58.748 11.02C59.5347 11.02 60.1814 11.1667 60.688 11.46C61.1947 11.7533 61.5747 12.2 61.828 12.8C62.0814 13.3867 62.208 14.1333 62.208 15.04V19.88C62.208 20.2933 62.1014 20.6133 61.888 20.84C61.6747 21.0533 61.368 21.16 60.968 21.16C60.568 21.16 60.2547 21.0533 60.028 20.84C59.8147 20.6133 59.708 20.2933 59.708 19.88V15.16C59.708 14.4 59.5614 13.8467 59.268 13.5C58.988 13.1533 58.548 12.98 57.948 12.98C57.2147 12.98 56.628 13.2133 56.188 13.68C55.7614 14.1333 55.548 14.74 55.548 15.5V19.88C55.548 20.7333 55.128 21.16 54.288 21.16ZM69.3073 24.8C68.5873 24.8 67.8873 24.7333 67.2073 24.6C66.5406 24.4667 65.9339 24.26 65.3873 23.98C65.1339 23.8467 64.9606 23.6867 64.8673 23.5C64.7873 23.3133 64.7606 23.12 64.7873 22.92C64.8273 22.7333 64.9073 22.5667 65.0273 22.42C65.1606 22.2733 65.3206 22.1733 65.5073 22.12C65.6939 22.0667 65.8873 22.0933 66.0873 22.2C66.6739 22.4933 67.2273 22.68 67.7473 22.76C68.2806 22.8533 68.7339 22.9 69.1073 22.9C70.0006 22.9 70.6673 22.68 71.1073 22.24C71.5606 21.8133 71.7873 21.1733 71.7873 20.32V18.52H71.9673C71.7673 19.2 71.3473 19.7467 70.7073 20.16C70.0806 20.56 69.3673 20.76 68.5673 20.76C67.6873 20.76 66.9206 20.56 66.2673 20.16C65.6139 19.7467 65.1073 19.1733 64.7473 18.44C64.3873 17.7067 64.2073 16.8533 64.2073 15.88C64.2073 15.1467 64.3073 14.4867 64.5073 13.9C64.7206 13.3 65.0139 12.7867 65.3873 12.36C65.7739 11.9333 66.2339 11.6067 66.7673 11.38C67.3139 11.14 67.9139 11.02 68.5673 11.02C69.3939 11.02 70.1139 11.2267 70.7273 11.64C71.3539 12.04 71.7606 12.5733 71.9473 13.24L71.7473 13.74V12.32C71.7473 11.9067 71.8539 11.5933 72.0673 11.38C72.2939 11.1667 72.6006 11.06 72.9873 11.06C73.3873 11.06 73.6939 11.1667 73.9073 11.38C74.1206 11.5933 74.2273 11.9067 74.2273 12.32V20.02C74.2273 21.6067 73.8073 22.8 72.9673 23.6C72.1273 24.4 70.9073 24.8 69.3073 24.8ZM69.2473 18.86C69.7673 18.86 70.2139 18.74 70.5873 18.5C70.9606 18.26 71.2473 17.92 71.4473 17.48C71.6606 17.0267 71.7673 16.4933 71.7673 15.88C71.7673 14.96 71.5406 14.24 71.0873 13.72C70.6339 13.1867 70.0206 12.92 69.2473 12.92C68.7273 12.92 68.2806 13.04 67.9073 13.28C67.5339 13.52 67.2406 13.86 67.0273 14.3C66.8273 14.74 66.7273 15.2667 66.7273 15.88C66.7273 16.8 66.9539 17.5267 67.4073 18.06C67.8606 18.5933 68.4739 18.86 69.2473 18.86ZM80.3576 21.2C79.5442 21.2 78.8709 21.0533 78.3376 20.76C77.8042 20.4533 77.4042 20 77.1376 19.4C76.8842 18.8 76.7576 18.0533 76.7576 17.16V12.32C76.7576 11.8933 76.8642 11.58 77.0776 11.38C77.2909 11.1667 77.5976 11.06 77.9976 11.06C78.3976 11.06 78.7042 11.1667 78.9176 11.38C79.1442 11.58 79.2576 11.8933 79.2576 12.32V17.2C79.2576 17.8933 79.3976 18.4067 79.6776 18.74C79.9576 19.0733 80.4042 19.24 81.0176 19.24C81.6842 19.24 82.2309 19.0133 82.6576 18.56C83.0842 18.0933 83.2976 17.48 83.2976 16.72V12.32C83.2976 11.8933 83.4042 11.58 83.6176 11.38C83.8309 11.1667 84.1376 11.06 84.5376 11.06C84.9376 11.06 85.2442 11.1667 85.4576 11.38C85.6842 11.58 85.7976 11.8933 85.7976 12.32V19.88C85.7976 20.7333 85.3909 21.16 84.5776 21.16C84.1909 21.16 83.8909 21.0533 83.6776 20.84C83.4642 20.6133 83.3576 20.2933 83.3576 19.88V18.36L83.6376 18.96C83.3576 19.68 82.9309 20.2333 82.3576 20.62C81.7976 21.0067 81.1309 21.2 80.3576 21.2ZM91.7396 21.2C90.6329 21.2 89.7996 20.8867 89.2396 20.26C88.6796 19.62 88.3996 18.6867 88.3996 17.46V8C88.3996 7.58667 88.5063 7.27333 88.7196 7.06C88.9329 6.84667 89.2396 6.74 89.6396 6.74C90.0396 6.74 90.3463 6.84667 90.5596 7.06C90.7863 7.27333 90.8996 7.58667 90.8996 8V17.34C90.8996 17.9533 91.0263 18.4067 91.2796 18.7C91.5463 18.9933 91.9196 19.14 92.3996 19.14C92.5063 19.14 92.6063 19.14 92.6996 19.14C92.7929 19.1267 92.8863 19.1133 92.9796 19.1C93.1663 19.0733 93.2929 19.1267 93.3596 19.26C93.4263 19.38 93.4596 19.6333 93.4596 20.02C93.4596 20.3533 93.3929 20.6133 93.2596 20.8C93.1263 20.9867 92.9063 21.1 92.5996 21.14C92.4663 21.1533 92.3263 21.1667 92.1796 21.18C92.0329 21.1933 91.8863 21.2 91.7396 21.2ZM98.0063 21.2C97.2997 21.2 96.6663 21.0667 96.1063 20.8C95.5597 20.52 95.1263 20.1467 94.8063 19.68C94.4997 19.2133 94.3463 18.6867 94.3463 18.1C94.3463 17.38 94.533 16.8133 94.9063 16.4C95.2797 15.9733 95.8863 15.6667 96.7263 15.48C97.5663 15.2933 98.693 15.2 100.106 15.2H101.106V16.64H100.126C99.2997 16.64 98.6397 16.68 98.1463 16.76C97.653 16.84 97.2997 16.98 97.0863 17.18C96.8863 17.3667 96.7863 17.6333 96.7863 17.98C96.7863 18.42 96.9397 18.78 97.2463 19.06C97.553 19.34 97.9797 19.48 98.5263 19.48C98.9663 19.48 99.353 19.38 99.6863 19.18C100.033 18.9667 100.306 18.68 100.506 18.32C100.706 17.96 100.806 17.5467 100.806 17.08V14.78C100.806 14.1133 100.66 13.6333 100.366 13.34C100.073 13.0467 99.5797 12.9 98.8863 12.9C98.4997 12.9 98.0797 12.9467 97.6263 13.04C97.1863 13.1333 96.7197 13.2933 96.2263 13.52C95.973 13.64 95.7463 13.6733 95.5463 13.62C95.3597 13.5667 95.213 13.46 95.1063 13.3C94.9997 13.1267 94.9463 12.94 94.9463 12.74C94.9463 12.54 94.9997 12.3467 95.1063 12.16C95.213 11.96 95.393 11.8133 95.6463 11.72C96.2597 11.4667 96.8463 11.2867 97.4063 11.18C97.9797 11.0733 98.4997 11.02 98.9663 11.02C99.9263 11.02 100.713 11.1667 101.326 11.46C101.953 11.7533 102.42 12.2 102.726 12.8C103.033 13.3867 103.186 14.1467 103.186 15.08V19.88C103.186 20.2933 103.086 20.6133 102.886 20.84C102.686 21.0533 102.4 21.16 102.026 21.16C101.653 21.16 101.36 21.0533 101.146 20.84C100.946 20.6133 100.846 20.2933 100.846 19.88V18.92H101.006C100.913 19.3867 100.726 19.7933 100.446 20.14C100.18 20.4733 99.8397 20.7333 99.4263 20.92C99.013 21.1067 98.5397 21.2 98.0063 21.2ZM107.004 21.16C106.59 21.16 106.27 21.0533 106.044 20.84C105.83 20.6133 105.724 20.2933 105.724 19.88V12.32C105.724 11.9067 105.83 11.5933 106.044 11.38C106.257 11.1667 106.557 11.06 106.944 11.06C107.33 11.06 107.63 11.1667 107.844 11.38C108.057 11.5933 108.164 11.9067 108.164 12.32V13.58H107.964C108.15 12.78 108.517 12.1733 109.064 11.76C109.61 11.3467 110.337 11.1 111.244 11.02C111.524 10.9933 111.744 11.0667 111.904 11.24C112.077 11.4 112.177 11.6533 112.204 12C112.23 12.3333 112.15 12.6067 111.964 12.82C111.79 13.02 111.524 13.14 111.164 13.18L110.724 13.22C109.91 13.3 109.297 13.5533 108.884 13.98C108.47 14.3933 108.264 14.98 108.264 15.74V19.88C108.264 20.2933 108.157 20.6133 107.944 20.84C107.73 21.0533 107.417 21.16 107.004 21.16ZM120.226 24.76C119.826 24.76 119.519 24.6533 119.306 24.44C119.092 24.2267 118.986 23.9133 118.986 23.5V12.32C118.986 11.9067 119.092 11.5933 119.306 11.38C119.519 11.1667 119.819 11.06 120.206 11.06C120.606 11.06 120.912 11.1667 121.126 11.38C121.339 11.5933 121.446 11.9067 121.446 12.32V13.88L121.226 13.28C121.426 12.6 121.832 12.0533 122.446 11.64C123.072 11.2267 123.799 11.02 124.626 11.02C125.479 11.02 126.226 11.2267 126.866 11.64C127.519 12.0533 128.026 12.64 128.386 13.4C128.746 14.1467 128.926 15.0467 128.926 16.1C128.926 17.14 128.746 18.0467 128.386 18.82C128.026 19.58 127.526 20.1667 126.886 20.58C126.246 20.9933 125.492 21.2 124.626 21.2C123.812 21.2 123.099 21 122.486 20.6C121.872 20.1867 121.459 19.6533 121.246 19H121.486V23.5C121.486 23.9133 121.372 24.2267 121.146 24.44C120.932 24.6533 120.626 24.76 120.226 24.76ZM123.926 19.3C124.419 19.3 124.852 19.18 125.226 18.94C125.599 18.7 125.886 18.3467 126.086 17.88C126.299 17.4 126.406 16.8067 126.406 16.1C126.406 15.0333 126.179 14.24 125.726 13.72C125.272 13.1867 124.672 12.92 123.926 12.92C123.432 12.92 122.999 13.04 122.626 13.28C122.252 13.5067 121.959 13.86 121.746 14.34C121.546 14.8067 121.446 15.3933 121.446 16.1C121.446 17.1533 121.672 17.9533 122.126 18.5C122.579 19.0333 123.179 19.3 123.926 19.3ZM132.258 21.16C131.844 21.16 131.524 21.0533 131.298 20.84C131.084 20.6133 130.978 20.2933 130.978 19.88V12.32C130.978 11.9067 131.084 11.5933 131.298 11.38C131.511 11.1667 131.811 11.06 132.198 11.06C132.584 11.06 132.884 11.1667 133.098 11.38C133.311 11.5933 133.418 11.9067 133.418 12.32V13.58H133.218C133.404 12.78 133.771 12.1733 134.318 11.76C134.864 11.3467 135.591 11.1 136.498 11.02C136.778 10.9933 136.998 11.0667 137.158 11.24C137.331 11.4 137.431 11.6533 137.458 12C137.484 12.3333 137.404 12.6067 137.218 12.82C137.044 13.02 136.778 13.14 136.418 13.18L135.978 13.22C135.164 13.3 134.551 13.5533 134.138 13.98C133.724 14.3933 133.518 14.98 133.518 15.74V19.88C133.518 20.2933 133.411 20.6133 133.198 20.84C132.984 21.0533 132.671 21.16 132.258 21.16ZM140.05 21.14C139.65 21.14 139.343 21.02 139.13 20.78C138.916 20.54 138.81 20.2067 138.81 19.78V12.44C138.81 12 138.916 11.6667 139.13 11.44C139.343 11.2 139.65 11.08 140.05 11.08C140.45 11.08 140.756 11.2 140.97 11.44C141.196 11.6667 141.31 12 141.31 12.44V19.78C141.31 20.2067 141.203 20.54 140.99 20.78C140.776 21.02 140.463 21.14 140.05 21.14ZM140.05 9.22C139.583 9.22 139.216 9.10667 138.95 8.88C138.696 8.64 138.57 8.31333 138.57 7.9C138.57 7.47333 138.696 7.14667 138.95 6.92C139.216 6.69333 139.583 6.58 140.05 6.58C140.53 6.58 140.896 6.69333 141.15 6.92C141.403 7.14667 141.53 7.47333 141.53 7.9C141.53 8.31333 141.403 8.64 141.15 8.88C140.896 9.10667 140.53 9.22 140.05 9.22ZM147.487 21.2C146.914 21.2 146.307 21.14 145.667 21.02C145.027 20.9 144.454 20.6933 143.947 20.4C143.734 20.2667 143.581 20.1133 143.487 19.94C143.407 19.7533 143.374 19.5733 143.387 19.4C143.414 19.2133 143.481 19.0533 143.587 18.92C143.707 18.7867 143.854 18.7 144.027 18.66C144.214 18.62 144.414 18.6533 144.627 18.76C145.161 19.0133 145.661 19.1933 146.127 19.3C146.594 19.3933 147.054 19.44 147.507 19.44C148.147 19.44 148.621 19.3333 148.927 19.12C149.247 18.8933 149.407 18.6 149.407 18.24C149.407 17.9333 149.301 17.7 149.087 17.54C148.887 17.3667 148.581 17.24 148.167 17.16L146.167 16.78C145.341 16.62 144.707 16.32 144.267 15.88C143.841 15.4267 143.627 14.8467 143.627 14.14C143.627 13.5 143.801 12.9467 144.147 12.48C144.507 12.0133 145.001 11.6533 145.627 11.4C146.254 11.1467 146.974 11.02 147.787 11.02C148.374 11.02 148.921 11.0867 149.427 11.22C149.947 11.34 150.447 11.5333 150.927 11.8C151.127 11.9067 151.261 12.0467 151.327 12.22C151.407 12.3933 151.427 12.5733 151.387 12.76C151.347 12.9333 151.267 13.0933 151.147 13.24C151.027 13.3733 150.874 13.46 150.687 13.5C150.514 13.5267 150.314 13.4867 150.087 13.38C149.674 13.1667 149.274 13.0133 148.887 12.92C148.514 12.8267 148.154 12.78 147.807 12.78C147.154 12.78 146.667 12.8933 146.347 13.12C146.041 13.3467 145.887 13.6467 145.887 14.02C145.887 14.3 145.981 14.5333 146.167 14.72C146.354 14.9067 146.641 15.0333 147.027 15.1L149.027 15.48C149.894 15.64 150.547 15.9333 150.987 16.36C151.441 16.7867 151.667 17.36 151.667 18.08C151.667 19.0533 151.287 19.82 150.527 20.38C149.767 20.9267 148.754 21.2 147.487 21.2ZM154.953 21.16C154.553 21.16 154.246 21.0533 154.033 20.84C153.82 20.6133 153.713 20.2933 153.713 19.88V12.32C153.713 11.9067 153.82 11.5933 154.033 11.38C154.246 11.1667 154.546 11.06 154.933 11.06C155.32 11.06 155.62 11.1667 155.833 11.38C156.046 11.5933 156.153 11.9067 156.153 12.32V13.78L155.933 13.18C156.2 12.5133 156.613 11.9867 157.173 11.6C157.733 11.2133 158.4 11.02 159.173 11.02C159.96 11.02 160.606 11.2067 161.113 11.58C161.62 11.9533 161.973 12.5267 162.173 13.3H161.893C162.16 12.5933 162.6 12.04 163.213 11.64C163.826 11.2267 164.533 11.02 165.333 11.02C166.08 11.02 166.693 11.1667 167.173 11.46C167.666 11.7533 168.033 12.2 168.273 12.8C168.513 13.3867 168.633 14.1333 168.633 15.04V19.88C168.633 20.2933 168.52 20.6133 168.293 20.84C168.08 21.0533 167.773 21.16 167.373 21.16C166.973 21.16 166.666 21.0533 166.453 20.84C166.24 20.6133 166.133 20.2933 166.133 19.88V15.14C166.133 14.3933 166.006 13.8467 165.753 13.5C165.513 13.1533 165.1 12.98 164.513 12.98C163.86 12.98 163.346 13.2133 162.973 13.68C162.6 14.1333 162.413 14.7667 162.413 15.58V19.88C162.413 20.2933 162.306 20.6133 162.093 20.84C161.88 21.0533 161.573 21.16 161.173 21.16C160.773 21.16 160.46 21.0533 160.233 20.84C160.02 20.6133 159.913 20.2933 159.913 19.88V15.14C159.913 14.3933 159.786 13.8467 159.533 13.5C159.293 13.1533 158.886 12.98 158.313 12.98C157.66 12.98 157.146 13.2133 156.773 13.68C156.4 14.1333 156.213 14.7667 156.213 15.58V19.88C156.213 20.7333 155.793 21.16 154.953 21.16ZM172.352 12.86C172.112 12.86 171.899 12.7733 171.712 12.6C171.539 12.4267 171.439 12.1933 171.412 11.9L171.032 8.2C170.992 7.78667 171.099 7.44 171.352 7.16C171.605 6.88 171.939 6.74 172.352 6.74C172.619 6.74 172.852 6.80667 173.052 6.94C173.265 7.06 173.425 7.23333 173.532 7.46C173.639 7.67333 173.679 7.92 173.652 8.2L173.272 11.9C173.245 12.1933 173.145 12.4267 172.972 12.6C172.812 12.7733 172.605 12.86 172.352 12.86ZM179.655 21.2C179.082 21.2 178.475 21.14 177.835 21.02C177.195 20.9 176.622 20.6933 176.115 20.4C175.902 20.2667 175.749 20.1133 175.655 19.94C175.575 19.7533 175.542 19.5733 175.555 19.4C175.582 19.2133 175.649 19.0533 175.755 18.92C175.875 18.7867 176.022 18.7 176.195 18.66C176.382 18.62 176.582 18.6533 176.795 18.76C177.329 19.0133 177.829 19.1933 178.295 19.3C178.762 19.3933 179.222 19.44 179.675 19.44C180.315 19.44 180.789 19.3333 181.095 19.12C181.415 18.8933 181.575 18.6 181.575 18.24C181.575 17.9333 181.469 17.7 181.255 17.54C181.055 17.3667 180.749 17.24 180.335 17.16L178.335 16.78C177.509 16.62 176.875 16.32 176.435 15.88C176.009 15.4267 175.795 14.8467 175.795 14.14C175.795 13.5 175.969 12.9467 176.315 12.48C176.675 12.0133 177.169 11.6533 177.795 11.4C178.422 11.1467 179.142 11.02 179.955 11.02C180.542 11.02 181.089 11.0867 181.595 11.22C182.115 11.34 182.615 11.5333 183.095 11.8C183.295 11.9067 183.429 12.0467 183.495 12.22C183.575 12.3933 183.595 12.5733 183.555 12.76C183.515 12.9333 183.435 13.0933 183.315 13.24C183.195 13.3733 183.042 13.46 182.855 13.5C182.682 13.5267 182.482 13.4867 182.255 13.38C181.842 13.1667 181.442 13.0133 181.055 12.92C180.682 12.8267 180.322 12.78 179.975 12.78C179.322 12.78 178.835 12.8933 178.515 13.12C178.209 13.3467 178.055 13.6467 178.055 14.02C178.055 14.3 178.149 14.5333 178.335 14.72C178.522 14.9067 178.809 15.0333 179.195 15.1L181.195 15.48C182.062 15.64 182.715 15.9333 183.155 16.36C183.609 16.7867 183.835 17.36 183.835 18.08C183.835 19.0533 183.455 19.82 182.695 20.38C181.935 20.9267 180.922 21.2 179.655 21.2ZM192.511 21.16C192.111 21.16 191.804 21.0533 191.591 20.84C191.377 20.6133 191.271 20.2933 191.271 19.88V8C191.271 7.58667 191.377 7.27333 191.591 7.06C191.804 6.84667 192.111 6.74 192.511 6.74C192.911 6.74 193.217 6.84667 193.431 7.06C193.657 7.27333 193.771 7.58667 193.771 8V13.18H193.491C193.784 12.4733 194.237 11.94 194.851 11.58C195.477 11.2067 196.184 11.02 196.971 11.02C197.757 11.02 198.404 11.1667 198.911 11.46C199.417 11.7533 199.797 12.2 200.051 12.8C200.304 13.3867 200.431 14.1333 200.431 15.04V19.88C200.431 20.2933 200.324 20.6133 200.111 20.84C199.897 21.0533 199.591 21.16 199.191 21.16C198.791 21.16 198.477 21.0533 198.251 20.84C198.037 20.6133 197.931 20.2933 197.931 19.88V15.16C197.931 14.4 197.784 13.8467 197.491 13.5C197.211 13.1533 196.771 12.98 196.171 12.98C195.437 12.98 194.851 13.2133 194.411 13.68C193.984 14.1333 193.771 14.74 193.771 15.5V19.88C193.771 20.7333 193.351 21.16 192.511 21.16ZM207.43 21.2C206.417 21.2 205.537 20.9933 204.79 20.58C204.043 20.1667 203.463 19.58 203.05 18.82C202.637 18.0467 202.43 17.14 202.43 16.1C202.43 15.3133 202.543 14.6133 202.77 14C203.01 13.3733 203.35 12.84 203.79 12.4C204.23 11.9467 204.757 11.6067 205.37 11.38C205.983 11.14 206.67 11.02 207.43 11.02C208.443 11.02 209.323 11.2267 210.07 11.64C210.817 12.0533 211.397 12.64 211.81 13.4C212.223 14.16 212.43 15.06 212.43 16.1C212.43 16.8867 212.31 17.5933 212.07 18.22C211.843 18.8467 211.51 19.3867 211.07 19.84C210.63 20.28 210.103 20.62 209.49 20.86C208.877 21.0867 208.19 21.2 207.43 21.2ZM207.43 19.3C207.923 19.3 208.357 19.18 208.73 18.94C209.103 18.7 209.39 18.3467 209.59 17.88C209.803 17.4 209.91 16.8067 209.91 16.1C209.91 15.0333 209.683 14.24 209.23 13.72C208.777 13.1867 208.177 12.92 207.43 12.92C206.937 12.92 206.503 13.04 206.13 13.28C205.757 13.5067 205.463 13.86 205.25 14.34C205.05 14.8067 204.95 15.3933 204.95 16.1C204.95 17.1533 205.177 17.9533 205.63 18.5C206.083 19.0333 206.683 19.3 207.43 19.3ZM215.773 21.16C215.36 21.16 215.04 21.0533 214.813 20.84C214.6 20.6133 214.493 20.2933 214.493 19.88V12.32C214.493 11.9067 214.6 11.5933 214.813 11.38C215.027 11.1667 215.327 11.06 215.713 11.06C216.1 11.06 216.4 11.1667 216.613 11.38C216.827 11.5933 216.933 11.9067 216.933 12.32V13.58H216.733C216.92 12.78 217.287 12.1733 217.833 11.76C218.38 11.3467 219.107 11.1 220.013 11.02C220.293 10.9933 220.513 11.0667 220.673 11.24C220.847 11.4 220.947 11.6533 220.973 12C221 12.3333 220.92 12.6067 220.733 12.82C220.56 13.02 220.293 13.14 219.933 13.18L219.493 13.22C218.68 13.3 218.067 13.5533 217.653 13.98C217.24 14.3933 217.033 14.98 217.033 15.74V19.88C217.033 20.2933 216.927 20.6133 216.713 20.84C216.5 21.0533 216.187 21.16 215.773 21.16ZM223.565 21.14C223.165 21.14 222.859 21.02 222.645 20.78C222.432 20.54 222.325 20.2067 222.325 19.78V12.44C222.325 12 222.432 11.6667 222.645 11.44C222.859 11.2 223.165 11.08 223.565 11.08C223.965 11.08 224.272 11.2 224.485 11.44C224.712 11.6667 224.825 12 224.825 12.44V19.78C224.825 20.2067 224.719 20.54 224.505 20.78C224.292 21.02 223.979 21.14 223.565 21.14ZM223.565 9.22C223.099 9.22 222.732 9.10667 222.465 8.88C222.212 8.64 222.085 8.31333 222.085 7.9C222.085 7.47333 222.212 7.14667 222.465 6.92C222.732 6.69333 223.099 6.58 223.565 6.58C224.045 6.58 224.412 6.69333 224.665 6.92C224.919 7.14667 225.045 7.47333 225.045 7.9C225.045 8.31333 224.919 8.64 224.665 8.88C224.412 9.10667 224.045 9.22 223.565 9.22ZM228.023 21C227.77 21 227.556 20.94 227.383 20.82C227.223 20.6867 227.116 20.52 227.063 20.32C227.01 20.12 227.01 19.9067 227.063 19.68C227.13 19.44 227.256 19.2133 227.443 19L232.623 12.5V13.1H227.903C227.596 13.1 227.356 13.02 227.183 12.86C227.023 12.6867 226.943 12.4533 226.943 12.16C226.943 11.8533 227.023 11.62 227.183 11.46C227.356 11.3 227.596 11.22 227.903 11.22H233.823C234.116 11.22 234.356 11.2867 234.543 11.42C234.73 11.54 234.85 11.7 234.903 11.9C234.97 12.1 234.976 12.3133 234.923 12.54C234.87 12.7667 234.75 12.98 234.563 13.18L229.283 19.78V19.12H234.283C234.923 19.12 235.243 19.4333 235.243 20.06C235.243 20.3533 235.156 20.5867 234.983 20.76C234.823 20.92 234.59 21 234.283 21H228.023ZM241.16 21.2C240.147 21.2 239.267 20.9933 238.52 20.58C237.774 20.1667 237.194 19.58 236.78 18.82C236.367 18.0467 236.16 17.14 236.16 16.1C236.16 15.3133 236.274 14.6133 236.5 14C236.74 13.3733 237.08 12.84 237.52 12.4C237.96 11.9467 238.487 11.6067 239.1 11.38C239.714 11.14 240.4 11.02 241.16 11.02C242.174 11.02 243.054 11.2267 243.8 11.64C244.547 12.0533 245.127 12.64 245.54 13.4C245.954 14.16 246.16 15.06 246.16 16.1C246.16 16.8867 246.04 17.5933 245.8 18.22C245.574 18.8467 245.24 19.3867 244.8 19.84C244.36 20.28 243.834 20.62 243.22 20.86C242.607 21.0867 241.92 21.2 241.16 21.2ZM241.16 19.3C241.654 19.3 242.087 19.18 242.46 18.94C242.834 18.7 243.12 18.3467 243.32 17.88C243.534 17.4 243.64 16.8067 243.64 16.1C243.64 15.0333 243.414 14.24 242.96 13.72C242.507 13.1867 241.907 12.92 241.16 12.92C240.667 12.92 240.234 13.04 239.86 13.28C239.487 13.5067 239.194 13.86 238.98 14.34C238.78 14.8067 238.68 15.3933 238.68 16.1C238.68 17.1533 238.907 17.9533 239.36 18.5C239.814 19.0333 240.414 19.3 241.16 19.3ZM249.464 21.16C249.064 21.16 248.757 21.0533 248.544 20.84C248.33 20.6133 248.224 20.2933 248.224 19.88V12.32C248.224 11.9067 248.33 11.5933 248.544 11.38C248.757 11.1667 249.057 11.06 249.444 11.06C249.83 11.06 250.13 11.1667 250.344 11.38C250.557 11.5933 250.664 11.9067 250.664 12.32V13.68L250.444 13.18C250.737 12.4733 251.19 11.94 251.804 11.58C252.43 11.2067 253.137 11.02 253.924 11.02C254.71 11.02 255.357 11.1667 255.864 11.46C256.37 11.7533 256.75 12.2 257.004 12.8C257.257 13.3867 257.384 14.1333 257.384 15.04V19.88C257.384 20.2933 257.277 20.6133 257.064 20.84C256.85 21.0533 256.544 21.16 256.144 21.16C255.744 21.16 255.43 21.0533 255.204 20.84C254.99 20.6133 254.884 20.2933 254.884 19.88V15.16C254.884 14.4 254.737 13.8467 254.444 13.5C254.164 13.1533 253.724 12.98 253.124 12.98C252.39 12.98 251.804 13.2133 251.364 13.68C250.937 14.1333 250.724 14.74 250.724 15.5V19.88C250.724 20.7333 250.304 21.16 249.464 21.16ZM264.403 21.2C263.536 21.2 262.81 21.0533 262.223 20.76C261.65 20.4667 261.223 20.04 260.943 19.48C260.663 18.9067 260.523 18.2 260.523 17.36V13.1H259.483C259.163 13.1 258.916 13.02 258.743 12.86C258.57 12.6867 258.483 12.4533 258.483 12.16C258.483 11.8533 258.57 11.62 258.743 11.46C258.916 11.3 259.163 11.22 259.483 11.22H260.523V9.4C260.523 8.98667 260.63 8.67333 260.843 8.46C261.07 8.24667 261.383 8.14 261.783 8.14C262.183 8.14 262.49 8.24667 262.703 8.46C262.916 8.67333 263.023 8.98667 263.023 9.4V11.22H265.143C265.463 11.22 265.71 11.3 265.883 11.46C266.056 11.62 266.143 11.8533 266.143 12.16C266.143 12.4533 266.056 12.6867 265.883 12.86C265.71 13.02 265.463 13.1 265.143 13.1H263.023V17.22C263.023 17.86 263.163 18.34 263.443 18.66C263.723 18.98 264.176 19.14 264.803 19.14C265.03 19.14 265.23 19.12 265.403 19.08C265.576 19.04 265.73 19.0133 265.863 19C266.023 18.9867 266.156 19.04 266.263 19.16C266.37 19.2667 266.423 19.4933 266.423 19.84C266.423 20.1067 266.376 20.3467 266.283 20.56C266.203 20.76 266.05 20.9 265.823 20.98C265.65 21.0333 265.423 21.08 265.143 21.12C264.863 21.1733 264.616 21.2 264.403 21.2ZM270.819 21.2C270.112 21.2 269.479 21.0667 268.919 20.8C268.372 20.52 267.939 20.1467 267.619 19.68C267.312 19.2133 267.159 18.6867 267.159 18.1C267.159 17.38 267.345 16.8133 267.719 16.4C268.092 15.9733 268.699 15.6667 269.539 15.48C270.379 15.2933 271.505 15.2 272.919 15.2H273.919V16.64H272.939C272.112 16.64 271.452 16.68 270.959 16.76C270.465 16.84 270.112 16.98 269.899 17.18C269.699 17.3667 269.599 17.6333 269.599 17.98C269.599 18.42 269.752 18.78 270.059 19.06C270.365 19.34 270.792 19.48 271.339 19.48C271.779 19.48 272.165 19.38 272.499 19.18C272.845 18.9667 273.119 18.68 273.319 18.32C273.519 17.96 273.619 17.5467 273.619 17.08V14.78C273.619 14.1133 273.472 13.6333 273.179 13.34C272.885 13.0467 272.392 12.9 271.699 12.9C271.312 12.9 270.892 12.9467 270.439 13.04C269.999 13.1333 269.532 13.2933 269.039 13.52C268.785 13.64 268.559 13.6733 268.359 13.62C268.172 13.5667 268.025 13.46 267.919 13.3C267.812 13.1267 267.759 12.94 267.759 12.74C267.759 12.54 267.812 12.3467 267.919 12.16C268.025 11.96 268.205 11.8133 268.459 11.72C269.072 11.4667 269.659 11.2867 270.219 11.18C270.792 11.0733 271.312 11.02 271.779 11.02C272.739 11.02 273.525 11.1667 274.139 11.46C274.765 11.7533 275.232 12.2 275.539 12.8C275.845 13.3867 275.999 14.1467 275.999 15.08V19.88C275.999 20.2933 275.899 20.6133 275.699 20.84C275.499 21.0533 275.212 21.16 274.839 21.16C274.465 21.16 274.172 21.0533 273.959 20.84C273.759 20.6133 273.659 20.2933 273.659 19.88V18.92H273.819C273.725 19.3867 273.539 19.7933 273.259 20.14C272.992 20.4733 272.652 20.7333 272.239 20.92C271.825 21.1067 271.352 21.2 270.819 21.2ZM281.876 21.2C280.77 21.2 279.936 20.8867 279.376 20.26C278.816 19.62 278.536 18.6867 278.536 17.46V8C278.536 7.58667 278.643 7.27333 278.856 7.06C279.07 6.84667 279.376 6.74 279.776 6.74C280.176 6.74 280.483 6.84667 280.696 7.06C280.923 7.27333 281.036 7.58667 281.036 8V17.34C281.036 17.9533 281.163 18.4067 281.416 18.7C281.683 18.9933 282.056 19.14 282.536 19.14C282.643 19.14 282.743 19.14 282.836 19.14C282.93 19.1267 283.023 19.1133 283.116 19.1C283.303 19.0733 283.43 19.1267 283.496 19.26C283.563 19.38 283.596 19.6333 283.596 20.02C283.596 20.3533 283.53 20.6133 283.396 20.8C283.263 20.9867 283.043 21.1 282.736 21.14C282.603 21.1533 282.463 21.1667 282.316 21.18C282.17 21.1933 282.023 21.2 281.876 21.2ZM294.873 21.2C293.846 21.2 292.953 20.9933 292.193 20.58C291.433 20.1533 290.846 19.5533 290.433 18.78C290.019 18.0067 289.813 17.1 289.813 16.06C289.813 15.2733 289.926 14.5733 290.153 13.96C290.393 13.3333 290.733 12.8067 291.173 12.38C291.613 11.94 292.146 11.6067 292.773 11.38C293.399 11.14 294.099 11.02 294.873 11.02C295.313 11.02 295.786 11.08 296.293 11.2C296.813 11.32 297.299 11.52 297.753 11.8C297.966 11.9333 298.106 12.0933 298.173 12.28C298.239 12.4667 298.253 12.66 298.213 12.86C298.173 13.0467 298.086 13.2133 297.953 13.36C297.833 13.4933 297.679 13.58 297.493 13.62C297.306 13.6467 297.099 13.6 296.873 13.48C296.579 13.3067 296.279 13.18 295.973 13.1C295.666 13.0067 295.373 12.96 295.093 12.96C294.653 12.96 294.266 13.0333 293.933 13.18C293.599 13.3133 293.313 13.5133 293.073 13.78C292.846 14.0333 292.673 14.3533 292.553 14.74C292.433 15.1267 292.373 15.5733 292.373 16.08C292.373 17.0667 292.606 17.8467 293.073 18.42C293.553 18.98 294.226 19.26 295.093 19.26C295.373 19.26 295.659 19.22 295.953 19.14C296.259 19.06 296.566 18.9333 296.873 18.76C297.099 18.64 297.299 18.6 297.473 18.64C297.659 18.68 297.813 18.7733 297.933 18.92C298.053 19.0533 298.126 19.22 298.153 19.42C298.179 19.6067 298.153 19.7933 298.073 19.98C298.006 20.1667 297.873 20.32 297.673 20.44C297.233 20.7067 296.766 20.9 296.273 21.02C295.779 21.14 295.313 21.2 294.873 21.2ZM301.066 21.16C300.653 21.16 300.333 21.0533 300.106 20.84C299.893 20.6133 299.786 20.2933 299.786 19.88V12.32C299.786 11.9067 299.893 11.5933 300.106 11.38C300.32 11.1667 300.62 11.06 301.006 11.06C301.393 11.06 301.693 11.1667 301.906 11.38C302.12 11.5933 302.226 11.9067 302.226 12.32V13.58H302.026C302.213 12.78 302.58 12.1733 303.126 11.76C303.673 11.3467 304.4 11.1 305.306 11.02C305.586 10.9933 305.806 11.0667 305.966 11.24C306.14 11.4 306.24 11.6533 306.266 12C306.293 12.3333 306.213 12.6067 306.026 12.82C305.853 13.02 305.586 13.14 305.226 13.18L304.786 13.22C303.973 13.3 303.36 13.5533 302.946 13.98C302.533 14.3933 302.326 14.98 302.326 15.74V19.88C302.326 20.2933 302.22 20.6133 302.006 20.84C301.793 21.0533 301.48 21.16 301.066 21.16ZM311.922 21.2C310.909 21.2 310.029 20.9933 309.282 20.58C308.535 20.1667 307.955 19.58 307.542 18.82C307.129 18.0467 306.922 17.14 306.922 16.1C306.922 15.3133 307.035 14.6133 307.262 14C307.502 13.3733 307.842 12.84 308.282 12.4C308.722 11.9467 309.249 11.6067 309.862 11.38C310.475 11.14 311.162 11.02 311.922 11.02C312.935 11.02 313.815 11.2267 314.562 11.64C315.309 12.0533 315.889 12.64 316.302 13.4C316.715 14.16 316.922 15.06 316.922 16.1C316.922 16.8867 316.802 17.5933 316.562 18.22C316.335 18.8467 316.002 19.3867 315.562 19.84C315.122 20.28 314.595 20.62 313.982 20.86C313.369 21.0867 312.682 21.2 311.922 21.2ZM311.922 19.3C312.415 19.3 312.849 19.18 313.222 18.94C313.595 18.7 313.882 18.3467 314.082 17.88C314.295 17.4 314.402 16.8067 314.402 16.1C314.402 15.0333 314.175 14.24 313.722 13.72C313.269 13.1867 312.669 12.92 311.922 12.92C311.429 12.92 310.995 13.04 310.622 13.28C310.249 13.5067 309.955 13.86 309.742 14.34C309.542 14.8067 309.442 15.3933 309.442 16.1C309.442 17.1533 309.669 17.9533 310.122 18.5C310.575 19.0333 311.175 19.3 311.922 19.3ZM322.566 21.2C321.992 21.2 321.386 21.14 320.746 21.02C320.106 20.9 319.532 20.6933 319.026 20.4C318.812 20.2667 318.659 20.1133 318.566 19.94C318.486 19.7533 318.452 19.5733 318.466 19.4C318.492 19.2133 318.559 19.0533 318.666 18.92C318.786 18.7867 318.932 18.7 319.106 18.66C319.292 18.62 319.492 18.6533 319.706 18.76C320.239 19.0133 320.739 19.1933 321.206 19.3C321.672 19.3933 322.132 19.44 322.586 19.44C323.226 19.44 323.699 19.3333 324.006 19.12C324.326 18.8933 324.486 18.6 324.486 18.24C324.486 17.9333 324.379 17.7 324.166 17.54C323.966 17.3667 323.659 17.24 323.246 17.16L321.246 16.78C320.419 16.62 319.786 16.32 319.346 15.88C318.919 15.4267 318.706 14.8467 318.706 14.14C318.706 13.5 318.879 12.9467 319.226 12.48C319.586 12.0133 320.079 11.6533 320.706 11.4C321.332 11.1467 322.052 11.02 322.866 11.02C323.452 11.02 323.999 11.0867 324.506 11.22C325.026 11.34 325.526 11.5333 326.006 11.8C326.206 11.9067 326.339 12.0467 326.406 12.22C326.486 12.3933 326.506 12.5733 326.466 12.76C326.426 12.9333 326.346 13.0933 326.226 13.24C326.106 13.3733 325.952 13.46 325.766 13.5C325.592 13.5267 325.392 13.4867 325.166 13.38C324.752 13.1667 324.352 13.0133 323.966 12.92C323.592 12.8267 323.232 12.78 322.886 12.78C322.232 12.78 321.746 12.8933 321.426 13.12C321.119 13.3467 320.966 13.6467 320.966 14.02C320.966 14.3 321.059 14.5333 321.246 14.72C321.432 14.9067 321.719 15.0333 322.106 15.1L324.106 15.48C324.972 15.64 325.626 15.9333 326.066 16.36C326.519 16.7867 326.746 17.36 326.746 18.08C326.746 19.0533 326.366 19.82 325.606 20.38C324.846 20.9267 323.832 21.2 322.566 21.2ZM332.331 21.2C331.758 21.2 331.151 21.14 330.511 21.02C329.871 20.9 329.298 20.6933 328.791 20.4C328.578 20.2667 328.425 20.1133 328.331 19.94C328.251 19.7533 328.218 19.5733 328.231 19.4C328.258 19.2133 328.325 19.0533 328.431 18.92C328.551 18.7867 328.698 18.7 328.871 18.66C329.058 18.62 329.258 18.6533 329.471 18.76C330.005 19.0133 330.505 19.1933 330.971 19.3C331.438 19.3933 331.898 19.44 332.351 19.44C332.991 19.44 333.465 19.3333 333.771 19.12C334.091 18.8933 334.251 18.6 334.251 18.24C334.251 17.9333 334.145 17.7 333.931 17.54C333.731 17.3667 333.425 17.24 333.011 17.16L331.011 16.78C330.185 16.62 329.551 16.32 329.111 15.88C328.685 15.4267 328.471 14.8467 328.471 14.14C328.471 13.5 328.645 12.9467 328.991 12.48C329.351 12.0133 329.845 11.6533 330.471 11.4C331.098 11.1467 331.818 11.02 332.631 11.02C333.218 11.02 333.765 11.0867 334.271 11.22C334.791 11.34 335.291 11.5333 335.771 11.8C335.971 11.9067 336.105 12.0467 336.171 12.22C336.251 12.3933 336.271 12.5733 336.231 12.76C336.191 12.9333 336.111 13.0933 335.991 13.24C335.871 13.3733 335.718 13.46 335.531 13.5C335.358 13.5267 335.158 13.4867 334.931 13.38C334.518 13.1667 334.118 13.0133 333.731 12.92C333.358 12.8267 332.998 12.78 332.651 12.78C331.998 12.78 331.511 12.8933 331.191 13.12C330.885 13.3467 330.731 13.6467 330.731 14.02C330.731 14.3 330.825 14.5333 331.011 14.72C331.198 14.9067 331.485 15.0333 331.871 15.1L333.871 15.48C334.738 15.64 335.391 15.9333 335.831 16.36C336.285 16.7867 336.511 17.36 336.511 18.08C336.511 19.0533 336.131 19.82 335.371 20.38C334.611 20.9267 333.598 21.2 332.331 21.2ZM347.526 21.2C346.953 21.2 346.346 21.14 345.706 21.02C345.066 20.9 344.493 20.6933 343.986 20.4C343.773 20.2667 343.62 20.1133 343.526 19.94C343.446 19.7533 343.413 19.5733 343.426 19.4C343.453 19.2133 343.52 19.0533 343.626 18.92C343.746 18.7867 343.893 18.7 344.066 18.66C344.253 18.62 344.453 18.6533 344.666 18.76C345.2 19.0133 345.7 19.1933 346.166 19.3C346.633 19.3933 347.093 19.44 347.546 19.44C348.186 19.44 348.66 19.3333 348.966 19.12C349.286 18.8933 349.446 18.6 349.446 18.24C349.446 17.9333 349.34 17.7 349.126 17.54C348.926 17.3667 348.62 17.24 348.206 17.16L346.206 16.78C345.38 16.62 344.746 16.32 344.306 15.88C343.88 15.4267 343.666 14.8467 343.666 14.14C343.666 13.5 343.84 12.9467 344.186 12.48C344.546 12.0133 345.04 11.6533 345.666 11.4C346.293 11.1467 347.013 11.02 347.826 11.02C348.413 11.02 348.96 11.0867 349.466 11.22C349.986 11.34 350.486 11.5333 350.966 11.8C351.166 11.9067 351.3 12.0467 351.366 12.22C351.446 12.3933 351.466 12.5733 351.426 12.76C351.386 12.9333 351.306 13.0933 351.186 13.24C351.066 13.3733 350.913 13.46 350.726 13.5C350.553 13.5267 350.353 13.4867 350.126 13.38C349.713 13.1667 349.313 13.0133 348.926 12.92C348.553 12.8267 348.193 12.78 347.846 12.78C347.193 12.78 346.706 12.8933 346.386 13.12C346.08 13.3467 345.926 13.6467 345.926 14.02C345.926 14.3 346.02 14.5333 346.206 14.72C346.393 14.9067 346.68 15.0333 347.066 15.1L349.066 15.48C349.933 15.64 350.586 15.9333 351.026 16.36C351.48 16.7867 351.706 17.36 351.706 18.08C351.706 19.0533 351.326 19.82 350.566 20.38C349.806 20.9267 348.793 21.2 347.526 21.2ZM358.532 21.2C357.425 21.2 356.472 20.9933 355.672 20.58C354.872 20.1667 354.252 19.58 353.812 18.82C353.385 18.06 353.172 17.16 353.172 16.12C353.172 15.1067 353.379 14.22 353.792 13.46C354.219 12.7 354.799 12.1067 355.532 11.68C356.279 11.24 357.125 11.02 358.072 11.02C358.765 11.02 359.385 11.1333 359.932 11.36C360.492 11.5867 360.965 11.9133 361.352 12.34C361.752 12.7667 362.052 13.2867 362.252 13.9C362.465 14.5 362.572 15.18 362.572 15.94C362.572 16.18 362.485 16.3667 362.312 16.5C362.152 16.62 361.919 16.68 361.612 16.68H355.192V15.24H360.812L360.492 15.54C360.492 14.9267 360.399 14.4133 360.212 14C360.039 13.5867 359.779 13.2733 359.432 13.06C359.099 12.8333 358.679 12.72 358.172 12.72C357.612 12.72 357.132 12.8533 356.732 13.12C356.345 13.3733 356.045 13.74 355.832 14.22C355.632 14.6867 355.532 15.2467 355.532 15.9V16.04C355.532 17.1333 355.785 17.9533 356.292 18.5C356.812 19.0333 357.572 19.3 358.572 19.3C358.919 19.3 359.305 19.26 359.732 19.18C360.172 19.0867 360.585 18.9333 360.972 18.72C361.252 18.56 361.499 18.4933 361.712 18.52C361.925 18.5333 362.092 18.6067 362.212 18.74C362.345 18.8733 362.425 19.04 362.452 19.24C362.479 19.4267 362.439 19.62 362.332 19.82C362.239 20.02 362.072 20.1933 361.832 20.34C361.365 20.6333 360.825 20.8533 360.212 21C359.612 21.1333 359.052 21.2 358.532 21.2ZM369.072 21.2C368.045 21.2 367.152 20.9933 366.392 20.58C365.632 20.1533 365.045 19.5533 364.632 18.78C364.219 18.0067 364.012 17.1 364.012 16.06C364.012 15.2733 364.125 14.5733 364.352 13.96C364.592 13.3333 364.932 12.8067 365.372 12.38C365.812 11.94 366.345 11.6067 366.972 11.38C367.599 11.14 368.299 11.02 369.072 11.02C369.512 11.02 369.985 11.08 370.492 11.2C371.012 11.32 371.499 11.52 371.952 11.8C372.165 11.9333 372.305 12.0933 372.372 12.28C372.439 12.4667 372.452 12.66 372.412 12.86C372.372 13.0467 372.285 13.2133 372.152 13.36C372.032 13.4933 371.879 13.58 371.692 13.62C371.505 13.6467 371.299 13.6 371.072 13.48C370.779 13.3067 370.479 13.18 370.172 13.1C369.865 13.0067 369.572 12.96 369.292 12.96C368.852 12.96 368.465 13.0333 368.132 13.18C367.799 13.3133 367.512 13.5133 367.272 13.78C367.045 14.0333 366.872 14.3533 366.752 14.74C366.632 15.1267 366.572 15.5733 366.572 16.08C366.572 17.0667 366.805 17.8467 367.272 18.42C367.752 18.98 368.425 19.26 369.292 19.26C369.572 19.26 369.859 19.22 370.152 19.14C370.459 19.06 370.765 18.9333 371.072 18.76C371.299 18.64 371.499 18.6 371.672 18.64C371.859 18.68 372.012 18.7733 372.132 18.92C372.252 19.0533 372.325 19.22 372.352 19.42C372.379 19.6067 372.352 19.7933 372.272 19.98C372.205 20.1667 372.072 20.32 371.872 20.44C371.432 20.7067 370.965 20.9 370.472 21.02C369.979 21.14 369.512 21.2 369.072 21.2ZM378.505 21.2C377.638 21.2 376.911 21.0533 376.325 20.76C375.751 20.4667 375.325 20.04 375.045 19.48C374.765 18.9067 374.625 18.2 374.625 17.36V13.1H373.585C373.265 13.1 373.018 13.02 372.845 12.86C372.671 12.6867 372.585 12.4533 372.585 12.16C372.585 11.8533 372.671 11.62 372.845 11.46C373.018 11.3 373.265 11.22 373.585 11.22H374.625V9.4C374.625 8.98667 374.731 8.67333 374.945 8.46C375.171 8.24667 375.485 8.14 375.885 8.14C376.285 8.14 376.591 8.24667 376.805 8.46C377.018 8.67333 377.125 8.98667 377.125 9.4V11.22H379.245C379.565 11.22 379.811 11.3 379.985 11.46C380.158 11.62 380.245 11.8533 380.245 12.16C380.245 12.4533 380.158 12.6867 379.985 12.86C379.811 13.02 379.565 13.1 379.245 13.1H377.125V17.22C377.125 17.86 377.265 18.34 377.545 18.66C377.825 18.98 378.278 19.14 378.905 19.14C379.131 19.14 379.331 19.12 379.505 19.08C379.678 19.04 379.831 19.0133 379.965 19C380.125 18.9867 380.258 19.04 380.365 19.16C380.471 19.2667 380.525 19.4933 380.525 19.84C380.525 20.1067 380.478 20.3467 380.385 20.56C380.305 20.76 380.151 20.9 379.925 20.98C379.751 21.0333 379.525 21.08 379.245 21.12C378.965 21.1733 378.718 21.2 378.505 21.2ZM383.194 21.14C382.794 21.14 382.488 21.02 382.274 20.78C382.061 20.54 381.954 20.2067 381.954 19.78V12.44C381.954 12 382.061 11.6667 382.274 11.44C382.488 11.2 382.794 11.08 383.194 11.08C383.594 11.08 383.901 11.2 384.114 11.44C384.341 11.6667 384.454 12 384.454 12.44V19.78C384.454 20.2067 384.348 20.54 384.134 20.78C383.921 21.02 383.608 21.14 383.194 21.14ZM383.194 9.22C382.728 9.22 382.361 9.10667 382.094 8.88C381.841 8.64 381.714 8.31333 381.714 7.9C381.714 7.47333 381.841 7.14667 382.094 6.92C382.361 6.69333 382.728 6.58 383.194 6.58C383.674 6.58 384.041 6.69333 384.294 6.92C384.548 7.14667 384.674 7.47333 384.674 7.9C384.674 8.31333 384.548 8.64 384.294 8.88C384.041 9.10667 383.674 9.22 383.194 9.22ZM391.512 21.2C390.499 21.2 389.619 20.9933 388.872 20.58C388.125 20.1667 387.545 19.58 387.132 18.82C386.719 18.0467 386.512 17.14 386.512 16.1C386.512 15.3133 386.625 14.6133 386.852 14C387.092 13.3733 387.432 12.84 387.872 12.4C388.312 11.9467 388.839 11.6067 389.452 11.38C390.065 11.14 390.752 11.02 391.512 11.02C392.525 11.02 393.405 11.2267 394.152 11.64C394.899 12.0533 395.479 12.64 395.892 13.4C396.305 14.16 396.512 15.06 396.512 16.1C396.512 16.8867 396.392 17.5933 396.152 18.22C395.925 18.8467 395.592 19.3867 395.152 19.84C394.712 20.28 394.185 20.62 393.572 20.86C392.959 21.0867 392.272 21.2 391.512 21.2ZM391.512 19.3C392.005 19.3 392.439 19.18 392.812 18.94C393.185 18.7 393.472 18.3467 393.672 17.88C393.885 17.4 393.992 16.8067 393.992 16.1C393.992 15.0333 393.765 14.24 393.312 13.72C392.859 13.1867 392.259 12.92 391.512 12.92C391.019 12.92 390.585 13.04 390.212 13.28C389.839 13.5067 389.545 13.86 389.332 14.34C389.132 14.8067 389.032 15.3933 389.032 16.1C389.032 17.1533 389.259 17.9533 389.712 18.5C390.165 19.0333 390.765 19.3 391.512 19.3ZM399.815 21.16C399.415 21.16 399.109 21.0533 398.895 20.84C398.682 20.6133 398.575 20.2933 398.575 19.88V12.32C398.575 11.9067 398.682 11.5933 398.895 11.38C399.109 11.1667 399.409 11.06 399.795 11.06C400.182 11.06 400.482 11.1667 400.695 11.38C400.909 11.5933 401.015 11.9067 401.015 12.32V13.68L400.795 13.18C401.089 12.4733 401.542 11.94 402.155 11.58C402.782 11.2067 403.489 11.02 404.275 11.02C405.062 11.02 405.709 11.1667 406.215 11.46C406.722 11.7533 407.102 12.2 407.355 12.8C407.609 13.3867 407.735 14.1333 407.735 15.04V19.88C407.735 20.2933 407.629 20.6133 407.415 20.84C407.202 21.0533 406.895 21.16 406.495 21.16C406.095 21.16 405.782 21.0533 405.555 20.84C405.342 20.6133 405.235 20.2933 405.235 19.88V15.16C405.235 14.4 405.089 13.8467 404.795 13.5C404.515 13.1533 404.075 12.98 403.475 12.98C402.742 12.98 402.155 13.2133 401.715 13.68C401.289 14.1333 401.075 14.74 401.075 15.5V19.88C401.075 20.7333 400.655 21.16 399.815 21.16ZM416.944 21.14C416.544 21.14 416.238 21.02 416.024 20.78C415.811 20.54 415.704 20.2067 415.704 19.78V12.44C415.704 12 415.811 11.6667 416.024 11.44C416.238 11.2 416.544 11.08 416.944 11.08C417.344 11.08 417.651 11.2 417.864 11.44C418.091 11.6667 418.204 12 418.204 12.44V19.78C418.204 20.2067 418.098 20.54 417.884 20.78C417.671 21.02 417.358 21.14 416.944 21.14ZM416.944 9.22C416.478 9.22 416.111 9.10667 415.844 8.88C415.591 8.64 415.464 8.31333 415.464 7.9C415.464 7.47333 415.591 7.14667 415.844 6.92C416.111 6.69333 416.478 6.58 416.944 6.58C417.424 6.58 417.791 6.69333 418.044 6.92C418.298 7.14667 418.424 7.47333 418.424 7.9C418.424 8.31333 418.298 8.64 418.044 8.88C417.791 9.10667 417.424 9.22 416.944 9.22ZM424.382 21.2C423.809 21.2 423.202 21.14 422.562 21.02C421.922 20.9 421.349 20.6933 420.842 20.4C420.629 20.2667 420.475 20.1133 420.382 19.94C420.302 19.7533 420.269 19.5733 420.282 19.4C420.309 19.2133 420.375 19.0533 420.482 18.92C420.602 18.7867 420.749 18.7 420.922 18.66C421.109 18.62 421.309 18.6533 421.522 18.76C422.055 19.0133 422.555 19.1933 423.022 19.3C423.489 19.3933 423.949 19.44 424.402 19.44C425.042 19.44 425.515 19.3333 425.822 19.12C426.142 18.8933 426.302 18.6 426.302 18.24C426.302 17.9333 426.195 17.7 425.982 17.54C425.782 17.3667 425.475 17.24 425.062 17.16L423.062 16.78C422.235 16.62 421.602 16.32 421.162 15.88C420.735 15.4267 420.522 14.8467 420.522 14.14C420.522 13.5 420.695 12.9467 421.042 12.48C421.402 12.0133 421.895 11.6533 422.522 11.4C423.149 11.1467 423.869 11.02 424.682 11.02C425.269 11.02 425.815 11.0867 426.322 11.22C426.842 11.34 427.342 11.5333 427.822 11.8C428.022 11.9067 428.155 12.0467 428.222 12.22C428.302 12.3933 428.322 12.5733 428.282 12.76C428.242 12.9333 428.162 13.0933 428.042 13.24C427.922 13.3733 427.769 13.46 427.582 13.5C427.409 13.5267 427.209 13.4867 426.982 13.38C426.569 13.1667 426.169 13.0133 425.782 12.92C425.409 12.8267 425.049 12.78 424.702 12.78C424.049 12.78 423.562 12.8933 423.242 13.12C422.935 13.3467 422.782 13.6467 422.782 14.02C422.782 14.3 422.875 14.5333 423.062 14.72C423.249 14.9067 423.535 15.0333 423.922 15.1L425.922 15.48C426.789 15.64 427.442 15.9333 427.882 16.36C428.335 16.7867 428.562 17.36 428.562 18.08C428.562 19.0533 428.182 19.82 427.422 20.38C426.662 20.9267 425.649 21.2 424.382 21.2ZM439.217 21.2C438.511 21.2 437.877 21.0667 437.317 20.8C436.771 20.52 436.337 20.1467 436.017 19.68C435.711 19.2133 435.557 18.6867 435.557 18.1C435.557 17.38 435.744 16.8133 436.117 16.4C436.491 15.9733 437.097 15.6667 437.937 15.48C438.777 15.2933 439.904 15.2 441.317 15.2H442.317V16.64H441.337C440.511 16.64 439.851 16.68 439.357 16.76C438.864 16.84 438.511 16.98 438.297 17.18C438.097 17.3667 437.997 17.6333 437.997 17.98C437.997 18.42 438.151 18.78 438.457 19.06C438.764 19.34 439.191 19.48 439.737 19.48C440.177 19.48 440.564 19.38 440.897 19.18C441.244 18.9667 441.517 18.68 441.717 18.32C441.917 17.96 442.017 17.5467 442.017 17.08V14.78C442.017 14.1133 441.871 13.6333 441.577 13.34C441.284 13.0467 440.791 12.9 440.097 12.9C439.711 12.9 439.291 12.9467 438.837 13.04C438.397 13.1333 437.931 13.2933 437.437 13.52C437.184 13.64 436.957 13.6733 436.757 13.62C436.571 13.5667 436.424 13.46 436.317 13.3C436.211 13.1267 436.157 12.94 436.157 12.74C436.157 12.54 436.211 12.3467 436.317 12.16C436.424 11.96 436.604 11.8133 436.857 11.72C437.471 11.4667 438.057 11.2867 438.617 11.18C439.191 11.0733 439.711 11.02 440.177 11.02C441.137 11.02 441.924 11.1667 442.537 11.46C443.164 11.7533 443.631 12.2 443.937 12.8C444.244 13.3867 444.397 14.1467 444.397 15.08V19.88C444.397 20.2933 444.297 20.6133 444.097 20.84C443.897 21.0533 443.611 21.16 443.237 21.16C442.864 21.16 442.571 21.0533 442.357 20.84C442.157 20.6133 442.057 20.2933 442.057 19.88V18.92H442.217C442.124 19.3867 441.937 19.7933 441.657 20.14C441.391 20.4733 441.051 20.7333 440.637 20.92C440.224 21.1067 439.751 21.2 439.217 21.2Z" fill="#444444"/>
<rect x="452" width="103" height="28" rx="5" fill="#FFF2E5"/>
<path d="M459.85 21.16C459.436 21.16 459.116 21.0533 458.89 20.84C458.676 20.6133 458.57 20.2933 458.57 19.88V12.32C458.57 11.9067 458.676 11.5933 458.89 11.38C459.103 11.1667 459.403 11.06 459.79 11.06C460.176 11.06 460.476 11.1667 460.69 11.38C460.903 11.5933 461.01 11.9067 461.01 12.32V13.58H460.81C460.996 12.78 461.363 12.1733 461.91 11.76C462.456 11.3467 463.183 11.1 464.09 11.02C464.37 10.9933 464.59 11.0667 464.75 11.24C464.923 11.4 465.023 11.6533 465.05 12C465.076 12.3333 464.996 12.6067 464.81 12.82C464.636 13.02 464.37 13.14 464.01 13.18L463.57 13.22C462.756 13.3 462.143 13.5533 461.73 13.98C461.316 14.3933 461.11 14.98 461.11 15.74V19.88C461.11 20.2933 461.003 20.6133 460.79 20.84C460.576 21.0533 460.263 21.16 459.85 21.16ZM471.065 21.2C469.959 21.2 469.005 20.9933 468.205 20.58C467.405 20.1667 466.785 19.58 466.345 18.82C465.919 18.06 465.705 17.16 465.705 16.12C465.705 15.1067 465.912 14.22 466.325 13.46C466.752 12.7 467.332 12.1067 468.065 11.68C468.812 11.24 469.659 11.02 470.605 11.02C471.299 11.02 471.919 11.1333 472.465 11.36C473.025 11.5867 473.499 11.9133 473.885 12.34C474.285 12.7667 474.585 13.2867 474.785 13.9C474.999 14.5 475.105 15.18 475.105 15.94C475.105 16.18 475.019 16.3667 474.845 16.5C474.685 16.62 474.452 16.68 474.145 16.68H467.725V15.24H473.345L473.025 15.54C473.025 14.9267 472.932 14.4133 472.745 14C472.572 13.5867 472.312 13.2733 471.965 13.06C471.632 12.8333 471.212 12.72 470.705 12.72C470.145 12.72 469.665 12.8533 469.265 13.12C468.879 13.3733 468.579 13.74 468.365 14.22C468.165 14.6867 468.065 15.2467 468.065 15.9V16.04C468.065 17.1333 468.319 17.9533 468.825 18.5C469.345 19.0333 470.105 19.3 471.105 19.3C471.452 19.3 471.839 19.26 472.265 19.18C472.705 19.0867 473.119 18.9333 473.505 18.72C473.785 18.56 474.032 18.4933 474.245 18.52C474.459 18.5333 474.625 18.6067 474.745 18.74C474.879 18.8733 474.959 19.04 474.985 19.24C475.012 19.4267 474.972 19.62 474.865 19.82C474.772 20.02 474.605 20.1933 474.365 20.34C473.899 20.6333 473.359 20.8533 472.745 21C472.145 21.1333 471.585 21.2 471.065 21.2ZM481.605 21.2C480.578 21.2 479.685 20.9933 478.925 20.58C478.165 20.1533 477.578 19.5533 477.165 18.78C476.752 18.0067 476.545 17.1 476.545 16.06C476.545 15.2733 476.658 14.5733 476.885 13.96C477.125 13.3333 477.465 12.8067 477.905 12.38C478.345 11.94 478.878 11.6067 479.505 11.38C480.132 11.14 480.832 11.02 481.605 11.02C482.045 11.02 482.518 11.08 483.025 11.2C483.545 11.32 484.032 11.52 484.485 11.8C484.698 11.9333 484.838 12.0933 484.905 12.28C484.972 12.4667 484.985 12.66 484.945 12.86C484.905 13.0467 484.818 13.2133 484.685 13.36C484.565 13.4933 484.412 13.58 484.225 13.62C484.038 13.6467 483.832 13.6 483.605 13.48C483.312 13.3067 483.012 13.18 482.705 13.1C482.398 13.0067 482.105 12.96 481.825 12.96C481.385 12.96 480.998 13.0333 480.665 13.18C480.332 13.3133 480.045 13.5133 479.805 13.78C479.578 14.0333 479.405 14.3533 479.285 14.74C479.165 15.1267 479.105 15.5733 479.105 16.08C479.105 17.0667 479.338 17.8467 479.805 18.42C480.285 18.98 480.958 19.26 481.825 19.26C482.105 19.26 482.392 19.22 482.685 19.14C482.992 19.06 483.298 18.9333 483.605 18.76C483.832 18.64 484.032 18.6 484.205 18.64C484.392 18.68 484.545 18.7733 484.665 18.92C484.785 19.0533 484.858 19.22 484.885 19.42C484.912 19.6067 484.885 19.7933 484.805 19.98C484.738 20.1667 484.605 20.32 484.405 20.44C483.965 20.7067 483.498 20.9 483.005 21.02C482.512 21.14 482.045 21.2 481.605 21.2ZM491.038 21.2C490.171 21.2 489.444 21.0533 488.858 20.76C488.284 20.4667 487.858 20.04 487.578 19.48C487.298 18.9067 487.158 18.2 487.158 17.36V13.1H486.118C485.798 13.1 485.551 13.02 485.378 12.86C485.204 12.6867 485.118 12.4533 485.118 12.16C485.118 11.8533 485.204 11.62 485.378 11.46C485.551 11.3 485.798 11.22 486.118 11.22H487.158V9.4C487.158 8.98667 487.264 8.67333 487.478 8.46C487.704 8.24667 488.018 8.14 488.418 8.14C488.818 8.14 489.124 8.24667 489.338 8.46C489.551 8.67333 489.658 8.98667 489.658 9.4V11.22H491.778C492.098 11.22 492.344 11.3 492.518 11.46C492.691 11.62 492.778 11.8533 492.778 12.16C492.778 12.4533 492.691 12.6867 492.518 12.86C492.344 13.02 492.098 13.1 491.778 13.1H489.658V17.22C489.658 17.86 489.798 18.34 490.078 18.66C490.358 18.98 490.811 19.14 491.438 19.14C491.664 19.14 491.864 19.12 492.038 19.08C492.211 19.04 492.364 19.0133 492.498 19C492.658 18.9867 492.791 19.04 492.898 19.16C493.004 19.2667 493.058 19.4933 493.058 19.84C493.058 20.1067 493.011 20.3467 492.918 20.56C492.838 20.76 492.684 20.9 492.458 20.98C492.284 21.0333 492.058 21.08 491.778 21.12C491.498 21.1733 491.251 21.2 491.038 21.2ZM497.454 21.2C496.747 21.2 496.114 21.0667 495.554 20.8C495.007 20.52 494.574 20.1467 494.254 19.68C493.947 19.2133 493.794 18.6867 493.794 18.1C493.794 17.38 493.98 16.8133 494.354 16.4C494.727 15.9733 495.334 15.6667 496.174 15.48C497.014 15.2933 498.14 15.2 499.554 15.2H500.554V16.64H499.574C498.747 16.64 498.087 16.68 497.594 16.76C497.1 16.84 496.747 16.98 496.534 17.18C496.334 17.3667 496.234 17.6333 496.234 17.98C496.234 18.42 496.387 18.78 496.694 19.06C497 19.34 497.427 19.48 497.974 19.48C498.414 19.48 498.8 19.38 499.134 19.18C499.48 18.9667 499.754 18.68 499.954 18.32C500.154 17.96 500.254 17.5467 500.254 17.08V14.78C500.254 14.1133 500.107 13.6333 499.814 13.34C499.52 13.0467 499.027 12.9 498.334 12.9C497.947 12.9 497.527 12.9467 497.074 13.04C496.634 13.1333 496.167 13.2933 495.674 13.52C495.42 13.64 495.194 13.6733 494.994 13.62C494.807 13.5667 494.66 13.46 494.554 13.3C494.447 13.1267 494.394 12.94 494.394 12.74C494.394 12.54 494.447 12.3467 494.554 12.16C494.66 11.96 494.84 11.8133 495.094 11.72C495.707 11.4667 496.294 11.2867 496.854 11.18C497.427 11.0733 497.947 11.02 498.414 11.02C499.374 11.02 500.16 11.1667 500.774 11.46C501.4 11.7533 501.867 12.2 502.174 12.8C502.48 13.3867 502.634 14.1467 502.634 15.08V19.88C502.634 20.2933 502.534 20.6133 502.334 20.84C502.134 21.0533 501.847 21.16 501.474 21.16C501.1 21.16 500.807 21.0533 500.594 20.84C500.394 20.6133 500.294 20.2933 500.294 19.88V18.92H500.454C500.36 19.3867 500.174 19.7933 499.894 20.14C499.627 20.4733 499.287 20.7333 498.874 20.92C498.46 21.1067 497.987 21.2 497.454 21.2ZM506.411 21.16C506.011 21.16 505.704 21.0533 505.491 20.84C505.278 20.6133 505.171 20.2933 505.171 19.88V12.32C505.171 11.9067 505.278 11.5933 505.491 11.38C505.704 11.1667 506.004 11.06 506.391 11.06C506.778 11.06 507.078 11.1667 507.291 11.38C507.504 11.5933 507.611 11.9067 507.611 12.32V13.68L507.391 13.18C507.684 12.4733 508.138 11.94 508.751 11.58C509.378 11.2067 510.084 11.02 510.871 11.02C511.658 11.02 512.304 11.1667 512.811 11.46C513.318 11.7533 513.698 12.2 513.951 12.8C514.204 13.3867 514.331 14.1333 514.331 15.04V19.88C514.331 20.2933 514.224 20.6133 514.011 20.84C513.798 21.0533 513.491 21.16 513.091 21.16C512.691 21.16 512.378 21.0533 512.151 20.84C511.938 20.6133 511.831 20.2933 511.831 19.88V15.16C511.831 14.4 511.684 13.8467 511.391 13.5C511.111 13.1533 510.671 12.98 510.071 12.98C509.338 12.98 508.751 13.2133 508.311 13.68C507.884 14.1333 507.671 14.74 507.671 15.5V19.88C507.671 20.7333 507.251 21.16 506.411 21.16ZM521.43 24.8C520.71 24.8 520.01 24.7333 519.33 24.6C518.664 24.4667 518.057 24.26 517.51 23.98C517.257 23.8467 517.084 23.6867 516.99 23.5C516.91 23.3133 516.884 23.12 516.91 22.92C516.95 22.7333 517.03 22.5667 517.15 22.42C517.284 22.2733 517.444 22.1733 517.63 22.12C517.817 22.0667 518.01 22.0933 518.21 22.2C518.797 22.4933 519.35 22.68 519.87 22.76C520.404 22.8533 520.857 22.9 521.23 22.9C522.124 22.9 522.79 22.68 523.23 22.24C523.684 21.8133 523.91 21.1733 523.91 20.32V18.52H524.09C523.89 19.2 523.47 19.7467 522.83 20.16C522.204 20.56 521.49 20.76 520.69 20.76C519.81 20.76 519.044 20.56 518.39 20.16C517.737 19.7467 517.23 19.1733 516.87 18.44C516.51 17.7067 516.33 16.8533 516.33 15.88C516.33 15.1467 516.43 14.4867 516.63 13.9C516.844 13.3 517.137 12.7867 517.51 12.36C517.897 11.9333 518.357 11.6067 518.89 11.38C519.437 11.14 520.037 11.02 520.69 11.02C521.517 11.02 522.237 11.2267 522.85 11.64C523.477 12.04 523.884 12.5733 524.07 13.24L523.87 13.74V12.32C523.87 11.9067 523.977 11.5933 524.19 11.38C524.417 11.1667 524.724 11.06 525.11 11.06C525.51 11.06 525.817 11.1667 526.03 11.38C526.244 11.5933 526.35 11.9067 526.35 12.32V20.02C526.35 21.6067 525.93 22.8 525.09 23.6C524.25 24.4 523.03 24.8 521.43 24.8ZM521.37 18.86C521.89 18.86 522.337 18.74 522.71 18.5C523.084 18.26 523.37 17.92 523.57 17.48C523.784 17.0267 523.89 16.4933 523.89 15.88C523.89 14.96 523.664 14.24 523.21 13.72C522.757 13.1867 522.144 12.92 521.37 12.92C520.85 12.92 520.404 13.04 520.03 13.28C519.657 13.52 519.364 13.86 519.15 14.3C518.95 14.74 518.85 15.2667 518.85 15.88C518.85 16.8 519.077 17.5267 519.53 18.06C519.984 18.5933 520.597 18.86 521.37 18.86ZM532.281 21.2C531.174 21.2 530.341 20.8867 529.781 20.26C529.221 19.62 528.941 18.6867 528.941 17.46V8C528.941 7.58667 529.047 7.27333 529.261 7.06C529.474 6.84667 529.781 6.74 530.181 6.74C530.581 6.74 530.887 6.84667 531.101 7.06C531.327 7.27333 531.441 7.58667 531.441 8V17.34C531.441 17.9533 531.567 18.4067 531.821 18.7C532.087 18.9933 532.461 19.14 532.941 19.14C533.047 19.14 533.147 19.14 533.241 19.14C533.334 19.1267 533.427 19.1133 533.521 19.1C533.707 19.0733 533.834 19.1267 533.901 19.26C533.967 19.38 534.001 19.6333 534.001 20.02C534.001 20.3533 533.934 20.6133 533.801 20.8C533.667 20.9867 533.447 21.1 533.141 21.14C533.007 21.1533 532.867 21.1667 532.721 21.18C532.574 21.1933 532.427 21.2 532.281 21.2ZM540.05 21.2C538.943 21.2 537.99 20.9933 537.19 20.58C536.39 20.1667 535.77 19.58 535.33 18.82C534.903 18.06 534.69 17.16 534.69 16.12C534.69 15.1067 534.896 14.22 535.31 13.46C535.736 12.7 536.316 12.1067 537.05 11.68C537.796 11.24 538.643 11.02 539.59 11.02C540.283 11.02 540.903 11.1333 541.45 11.36C542.01 11.5867 542.483 11.9133 542.87 12.34C543.27 12.7667 543.57 13.2867 543.77 13.9C543.983 14.5 544.09 15.18 544.09 15.94C544.09 16.18 544.003 16.3667 543.83 16.5C543.67 16.62 543.436 16.68 543.13 16.68H536.71V15.24H542.33L542.01 15.54C542.01 14.9267 541.916 14.4133 541.73 14C541.556 13.5867 541.296 13.2733 540.95 13.06C540.616 12.8333 540.196 12.72 539.69 12.72C539.13 12.72 538.65 12.8533 538.25 13.12C537.863 13.3733 537.563 13.74 537.35 14.22C537.15 14.6867 537.05 15.2467 537.05 15.9V16.04C537.05 17.1333 537.303 17.9533 537.81 18.5C538.33 19.0333 539.09 19.3 540.09 19.3C540.436 19.3 540.823 19.26 541.25 19.18C541.69 19.0867 542.103 18.9333 542.49 18.72C542.77 18.56 543.016 18.4933 543.23 18.52C543.443 18.5333 543.61 18.6067 543.73 18.74C543.863 18.8733 543.943 19.04 543.97 19.24C543.996 19.4267 543.956 19.62 543.85 19.82C543.756 20.02 543.59 20.1933 543.35 20.34C542.883 20.6333 542.343 20.8533 541.73 21C541.13 21.1333 540.57 21.2 540.05 21.2Z" fill="#D97A1A"/>
<path d="M547.27 21.1C546.816 21.1 546.45 20.96 546.17 20.68C545.903 20.4 545.77 20.04 545.77 19.6C545.77 19.1733 545.903 18.8267 546.17 18.56C546.45 18.28 546.816 18.14 547.27 18.14C547.736 18.14 548.096 18.28 548.35 18.56C548.616 18.8267 548.75 19.1733 548.75 19.6C548.75 20.04 548.616 20.4 548.35 20.68C548.096 20.96 547.736 21.1 547.27 21.1Z" fill="#1A1A1A"/>
</svg>
