<svg width="204" height="254" viewBox="0 0 204 254" fill="none" xmlns="http://www.w3.org/2000/svg">
<path d="M202.076 226.952C181.172 242.679 155.174 252 127 252C57.9644 252 2 196.036 2 127C2 57.9644 57.9644 2 127 2C155.174 2 181.172 11.3212 202.076 27.0481C202.026 27.016 202 27 202 27C202 27 152 57.9644 152 127C152 196.036 202 227 202 227C202 227 202.026 226.984 202.076 226.952Z" fill="white"/>
<path d="M202 27C202 27 202.026 27.016 202.076 27.0481C181.172 11.3212 155.174 2 127 2C57.9644 2 2 57.9644 2 127C2 196.036 57.9644 252 127 252C155.174 252 181.172 242.679 202.076 226.952C202.026 226.984 202 227 202 227" stroke="#646464" stroke-width="3" stroke-linecap="round" stroke-dasharray="16 16"/>
</svg>
