<svg width="204" height="254" viewBox="0 0 204 254" fill="none" xmlns="http://www.w3.org/2000/svg">
<path d="M77 252C146.036 252 202 196.036 202 127C202 57.9644 146.036 2 77 2C48.8265 2 22.83 11.3207 1.92581 27.0466C1.97478 27.0155 1.99983 27 1.99983 27C1.99983 27 51.9998 57.9644 51.9998 127C51.9998 196.036 1.99983 227 1.99983 227C1.99983 227 1.97476 226.984 1.92578 226.953C22.83 242.679 48.8265 252 77 252Z" fill="white"/>
<path d="M1.99983 27C1.99983 27 1.97478 27.0155 1.92581 27.0466C22.83 11.3207 48.8265 2 77 2C146.036 2 202 57.9644 202 127C202 196.036 146.036 252 77 252C48.8265 252 22.83 242.679 1.92578 226.953C1.97476 226.984 1.99983 227 1.99983 227" stroke="#646464" stroke-width="3" stroke-linecap="round" stroke-dasharray="16 16"/>
</svg>
