<svg width="173" height="83" viewBox="0 0 173 83" fill="none" xmlns="http://www.w3.org/2000/svg">
<rect x="-0.25" y="0.25" width="172.5" height="44.5" rx="7.75" transform="matrix(-1 0 0 1 172.5 38)" fill="white"/>
<path d="M17.4716 65.66C17.0022 65.66 16.5329 65.6227 16.0636 65.548C15.5942 65.484 15.1516 65.3827 14.7356 65.244C14.3196 65.0947 13.9462 64.9133 13.6156 64.7C13.4236 64.572 13.2902 64.4173 13.2156 64.236C13.1409 64.0547 13.1142 63.8787 13.1356 63.708C13.1676 63.5267 13.2369 63.372 13.3436 63.244C13.4609 63.1053 13.6049 63.02 13.7756 62.988C13.9462 62.956 14.1329 63.004 14.3356 63.132C14.8049 63.4093 15.3009 63.612 15.8236 63.74C16.3462 63.868 16.8956 63.932 17.4716 63.932C18.3142 63.932 18.9276 63.7933 19.3116 63.516C19.6956 63.228 19.8876 62.86 19.8876 62.412C19.8876 62.0387 19.7489 61.7453 19.4716 61.532C19.2049 61.3187 18.7409 61.1427 18.0796 61.004L16.3196 60.636C15.3062 60.4227 14.5489 60.0653 14.0476 59.564C13.5569 59.052 13.3116 58.38 13.3116 57.548C13.3116 57.0253 13.4182 56.5507 13.6316 56.124C13.8449 55.6973 14.1436 55.3293 14.5276 55.02C14.9222 54.7107 15.3862 54.476 15.9196 54.316C16.4636 54.1453 17.0609 54.06 17.7116 54.06C18.3516 54.06 18.9596 54.14 19.5356 54.3C20.1116 54.46 20.6289 54.6947 21.0876 55.004C21.2582 55.1213 21.3702 55.2653 21.4236 55.436C21.4876 55.6067 21.5036 55.7773 21.4716 55.948C21.4396 56.108 21.3649 56.2467 21.2476 56.364C21.1302 56.4813 20.9809 56.5507 20.7996 56.572C20.6289 56.5933 20.4316 56.54 20.2076 56.412C19.8129 56.188 19.4129 56.028 19.0076 55.932C18.6022 55.836 18.1649 55.788 17.6956 55.788C17.2049 55.788 16.7836 55.8573 16.4316 55.996C16.0796 56.1347 15.8076 56.332 15.6156 56.588C15.4342 56.8333 15.3436 57.1267 15.3436 57.468C15.3436 57.852 15.4716 58.1613 15.7276 58.396C15.9836 58.62 16.4209 58.796 17.0396 58.924L18.7836 59.292C19.8396 59.516 20.6236 59.868 21.1356 60.348C21.6582 60.828 21.9196 61.468 21.9196 62.268C21.9196 62.78 21.8129 63.244 21.5996 63.66C21.3969 64.076 21.0982 64.4333 20.7036 64.732C20.3196 65.0307 19.8556 65.26 19.3116 65.42C18.7676 65.58 18.1542 65.66 17.4716 65.66ZM24.4773 65.628C24.1573 65.628 23.912 65.5427 23.7413 65.372C23.5706 65.1907 23.4853 64.9347 23.4853 64.604V55.1C23.4853 54.7693 23.5706 54.5187 23.7413 54.348C23.912 54.1773 24.1573 54.092 24.4773 54.092C24.7973 54.092 25.0426 54.1773 25.2133 54.348C25.3946 54.5187 25.4853 54.7693 25.4853 55.1V59.244H25.2613C25.496 58.6787 25.8586 58.252 26.3493 57.964C26.8506 57.6653 27.416 57.516 28.0453 57.516C28.6746 57.516 29.192 57.6333 29.5973 57.868C30.0026 58.1027 30.3066 58.46 30.5093 58.94C30.712 59.4093 30.8133 60.0067 30.8133 60.732V64.604C30.8133 64.9347 30.728 65.1907 30.5573 65.372C30.3866 65.5427 30.1413 65.628 29.8213 65.628C29.5013 65.628 29.2506 65.5427 29.0693 65.372C28.8986 65.1907 28.8133 64.9347 28.8133 64.604V60.828C28.8133 60.22 28.696 59.7773 28.4613 59.5C28.2373 59.2227 27.8853 59.084 27.4053 59.084C26.8186 59.084 26.3493 59.2707 25.9973 59.644C25.656 60.0067 25.4853 60.492 25.4853 61.1V64.604C25.4853 65.2867 25.1493 65.628 24.4773 65.628ZM35.4207 65.66C34.8554 65.66 34.3487 65.5533 33.9007 65.34C33.4634 65.116 33.1167 64.8173 32.8607 64.444C32.6154 64.0707 32.4927 63.6493 32.4927 63.18C32.4927 62.604 32.642 62.1507 32.9407 61.82C33.2394 61.4787 33.7247 61.2333 34.3967 61.084C35.0687 60.9347 35.97 60.86 37.1007 60.86H37.9007V62.012H37.1167C36.4554 62.012 35.9274 62.044 35.5327 62.108C35.138 62.172 34.8554 62.284 34.6847 62.444C34.5247 62.5933 34.4447 62.8067 34.4447 63.084C34.4447 63.436 34.5674 63.724 34.8127 63.948C35.058 64.172 35.3994 64.284 35.8367 64.284C36.1887 64.284 36.498 64.204 36.7647 64.044C37.042 63.8733 37.2607 63.644 37.4207 63.356C37.5807 63.068 37.6607 62.7373 37.6607 62.364V60.524C37.6607 59.9907 37.5434 59.6067 37.3087 59.372C37.074 59.1373 36.6794 59.02 36.1247 59.02C35.8154 59.02 35.4794 59.0573 35.1167 59.132C34.7647 59.2067 34.3914 59.3347 33.9967 59.516C33.794 59.612 33.6127 59.6387 33.4527 59.596C33.3034 59.5533 33.186 59.468 33.1007 59.34C33.0154 59.2013 32.9727 59.052 32.9727 58.892C32.9727 58.732 33.0154 58.5773 33.1007 58.428C33.186 58.268 33.33 58.1507 33.5327 58.076C34.0234 57.8733 34.4927 57.7293 34.9407 57.644C35.3994 57.5587 35.8154 57.516 36.1887 57.516C36.9567 57.516 37.586 57.6333 38.0767 57.868C38.578 58.1027 38.9514 58.46 39.1967 58.94C39.442 59.4093 39.5647 60.0173 39.5647 60.764V64.604C39.5647 64.9347 39.4847 65.1907 39.3247 65.372C39.1647 65.5427 38.9354 65.628 38.6367 65.628C38.338 65.628 38.1034 65.5427 37.9327 65.372C37.7727 65.1907 37.6927 64.9347 37.6927 64.604V63.836H37.8207C37.746 64.2093 37.5967 64.5347 37.3727 64.812C37.1594 65.0787 36.8874 65.2867 36.5567 65.436C36.226 65.5853 35.8474 65.66 35.4207 65.66ZM42.5867 68.508C42.2667 68.508 42.0214 68.4227 41.8507 68.252C41.68 68.0813 41.5947 67.8307 41.5947 67.5V58.556C41.5947 58.2253 41.68 57.9747 41.8507 57.804C42.0214 57.6333 42.2614 57.548 42.5707 57.548C42.8907 57.548 43.136 57.6333 43.3067 57.804C43.4774 57.9747 43.5627 58.2253 43.5627 58.556V59.804L43.3867 59.324C43.5467 58.78 43.872 58.3427 44.3627 58.012C44.864 57.6813 45.4454 57.516 46.1067 57.516C46.7894 57.516 47.3867 57.6813 47.8987 58.012C48.4214 58.3427 48.8267 58.812 49.1147 59.42C49.4027 60.0173 49.5467 60.7373 49.5467 61.58C49.5467 62.412 49.4027 63.1373 49.1147 63.756C48.8267 64.364 48.4267 64.8333 47.9147 65.164C47.4027 65.4947 46.8 65.66 46.1067 65.66C45.456 65.66 44.8854 65.5 44.3947 65.18C43.904 64.8493 43.5734 64.4227 43.4027 63.9H43.5947V67.5C43.5947 67.8307 43.504 68.0813 43.3227 68.252C43.152 68.4227 42.9067 68.508 42.5867 68.508ZM45.5467 64.14C45.9414 64.14 46.288 64.044 46.5867 63.852C46.8854 63.66 47.1147 63.3773 47.2747 63.004C47.4454 62.62 47.5307 62.1453 47.5307 61.58C47.5307 60.7267 47.3494 60.092 46.9867 59.676C46.624 59.2493 46.144 59.036 45.5467 59.036C45.152 59.036 44.8054 59.132 44.5067 59.324C44.208 59.5053 43.9734 59.788 43.8027 60.172C43.6427 60.5453 43.5627 61.0147 43.5627 61.58C43.5627 62.4227 43.744 63.0627 44.1067 63.5C44.4694 63.9267 44.9494 64.14 45.5467 64.14ZM55.0444 65.66C54.1591 65.66 53.3964 65.4947 52.7564 65.164C52.1164 64.8333 51.6204 64.364 51.2684 63.756C50.9271 63.148 50.7564 62.428 50.7564 61.596C50.7564 60.7853 50.9218 60.076 51.2524 59.468C51.5938 58.86 52.0578 58.3853 52.6444 58.044C53.2418 57.692 53.9191 57.516 54.6764 57.516C55.2311 57.516 55.7271 57.6067 56.1644 57.788C56.6124 57.9693 56.9911 58.2307 57.3004 58.572C57.6204 58.9133 57.8604 59.3293 58.0204 59.82C58.1911 60.3 58.2764 60.844 58.2764 61.452C58.2764 61.644 58.2071 61.7933 58.0684 61.9C57.9404 61.996 57.7538 62.044 57.5084 62.044H52.3724V60.892H56.8684L56.6124 61.132C56.6124 60.6413 56.5378 60.2307 56.3884 59.9C56.2498 59.5693 56.0418 59.3187 55.7644 59.148C55.4978 58.9667 55.1618 58.876 54.7564 58.876C54.3084 58.876 53.9244 58.9827 53.6044 59.196C53.2951 59.3987 53.0551 59.692 52.8844 60.076C52.7244 60.4493 52.6444 60.8973 52.6444 61.42V61.532C52.6444 62.4067 52.8471 63.0627 53.2524 63.5C53.6684 63.9267 54.2764 64.14 55.0764 64.14C55.3538 64.14 55.6631 64.108 56.0044 64.044C56.3564 63.9693 56.6871 63.8467 56.9964 63.676C57.2204 63.548 57.4178 63.4947 57.5884 63.516C57.7591 63.5267 57.8924 63.5853 57.9884 63.692C58.0951 63.7987 58.1591 63.932 58.1804 64.092C58.2018 64.2413 58.1698 64.396 58.0844 64.556C58.0098 64.716 57.8764 64.8547 57.6844 64.972C57.3111 65.2067 56.8791 65.3827 56.3884 65.5C55.9084 65.6067 55.4604 65.66 55.0444 65.66ZM62.7243 65.66C62.2656 65.66 61.7803 65.612 61.2683 65.516C60.7563 65.42 60.2976 65.2547 59.8923 65.02C59.7216 64.9133 59.599 64.7907 59.5243 64.652C59.4603 64.5027 59.4336 64.3587 59.4443 64.22C59.4656 64.0707 59.519 63.9427 59.6043 63.836C59.7003 63.7293 59.8176 63.66 59.9563 63.628C60.1056 63.596 60.2656 63.6227 60.4363 63.708C60.863 63.9107 61.263 64.0547 61.6363 64.14C62.0096 64.2147 62.3776 64.252 62.7403 64.252C63.2523 64.252 63.631 64.1667 63.8763 63.996C64.1323 63.8147 64.2603 63.58 64.2603 63.292C64.2603 63.0467 64.175 62.86 64.0043 62.732C63.8443 62.5933 63.599 62.492 63.2683 62.428L61.6683 62.124C61.007 61.996 60.5003 61.756 60.1483 61.404C59.807 61.0413 59.6363 60.5773 59.6363 60.012C59.6363 59.5 59.775 59.0573 60.0523 58.684C60.3403 58.3107 60.735 58.0227 61.2363 57.82C61.7376 57.6173 62.3136 57.516 62.9643 57.516C63.4336 57.516 63.871 57.5693 64.2763 57.676C64.6923 57.772 65.0923 57.9267 65.4763 58.14C65.6363 58.2253 65.743 58.3373 65.7963 58.476C65.8603 58.6147 65.8763 58.7587 65.8443 58.908C65.8123 59.0467 65.7483 59.1747 65.6523 59.292C65.5563 59.3987 65.4336 59.468 65.2843 59.5C65.1456 59.5213 64.9856 59.4893 64.8043 59.404C64.4736 59.2333 64.1536 59.1107 63.8443 59.036C63.5456 58.9613 63.2576 58.924 62.9803 58.924C62.4576 58.924 62.0683 59.0147 61.8123 59.196C61.567 59.3773 61.4443 59.6173 61.4443 59.916C61.4443 60.14 61.519 60.3267 61.6683 60.476C61.8176 60.6253 62.047 60.7267 62.3563 60.78L63.9563 61.084C64.6496 61.212 65.1723 61.4467 65.5243 61.788C65.887 62.1293 66.0683 62.588 66.0683 63.164C66.0683 63.9427 65.7643 64.556 65.1563 65.004C64.5483 65.4413 63.7376 65.66 62.7243 65.66ZM75.0406 65.628C74.7739 65.628 74.5446 65.564 74.3526 65.436C74.1606 65.2973 74.0059 65.084 73.8886 64.796L71.5686 58.876C71.4726 58.62 71.4406 58.396 71.4726 58.204C71.5152 58.0013 71.6166 57.8413 71.7766 57.724C71.9366 57.6067 72.1499 57.548 72.4166 57.548C72.6512 57.548 72.8432 57.6067 72.9926 57.724C73.1419 57.8307 73.2699 58.0387 73.3766 58.348L75.3126 63.676H74.9446L76.9446 58.22C77.0299 57.9853 77.1419 57.8147 77.2806 57.708C77.4299 57.6013 77.6219 57.548 77.8566 57.548C78.0912 57.548 78.2832 57.6067 78.4326 57.724C78.5819 57.8307 78.6939 57.996 78.7686 58.22L80.7366 63.676H80.4006L82.3526 58.3C82.4592 58.012 82.5926 57.8147 82.7526 57.708C82.9232 57.6013 83.1099 57.548 83.3126 57.548C83.5686 57.548 83.7659 57.612 83.9046 57.74C84.0432 57.868 84.1232 58.0333 84.1446 58.236C84.1659 58.428 84.1286 58.6413 84.0326 58.876L81.7286 64.796C81.6219 65.0733 81.4672 65.2813 81.2646 65.42C81.0726 65.5587 80.8432 65.628 80.5766 65.628C80.3099 65.628 80.0752 65.5587 79.8726 65.42C79.6806 65.2813 79.5312 65.0733 79.4246 64.796L77.3286 59.244H78.2406L76.1926 64.78C76.0859 65.068 75.9366 65.2813 75.7446 65.42C75.5526 65.5587 75.3179 65.628 75.0406 65.628ZM86.6492 65.612C86.3292 65.612 86.0839 65.516 85.9132 65.324C85.7425 65.132 85.6572 64.8653 85.6572 64.524V58.652C85.6572 58.3 85.7425 58.0333 85.9132 57.852C86.0839 57.66 86.3292 57.564 86.6492 57.564C86.9692 57.564 87.2145 57.66 87.3852 57.852C87.5665 58.0333 87.6572 58.3 87.6572 58.652V64.524C87.6572 64.8653 87.5719 65.132 87.4012 65.324C87.2305 65.516 86.9799 65.612 86.6492 65.612ZM86.6492 56.076C86.2759 56.076 85.9825 55.9853 85.7692 55.804C85.5665 55.612 85.4652 55.3507 85.4652 55.02C85.4652 54.6787 85.5665 54.4173 85.7692 54.236C85.9825 54.0547 86.2759 53.964 86.6492 53.964C87.0332 53.964 87.3265 54.0547 87.5292 54.236C87.7319 54.4173 87.8332 54.6787 87.8332 55.02C87.8332 55.3507 87.7319 55.612 87.5292 55.804C87.3265 55.9853 87.0332 56.076 86.6492 56.076ZM93.3193 65.66C92.626 65.66 92.0446 65.5427 91.5753 65.308C91.1166 65.0733 90.7753 64.732 90.5513 64.284C90.3273 63.8253 90.2153 63.26 90.2153 62.588V59.18H89.3833C89.1273 59.18 88.93 59.116 88.7913 58.988C88.6526 58.8493 88.5833 58.6627 88.5833 58.428C88.5833 58.1827 88.6526 57.996 88.7913 57.868C88.93 57.74 89.1273 57.676 89.3833 57.676H90.2153V56.22C90.2153 55.8893 90.3006 55.6387 90.4713 55.468C90.6526 55.2973 90.9033 55.212 91.2233 55.212C91.5433 55.212 91.7886 55.2973 91.9593 55.468C92.13 55.6387 92.2153 55.8893 92.2153 56.22V57.676H93.9113C94.1673 57.676 94.3646 57.74 94.5033 57.868C94.642 57.996 94.7113 58.1827 94.7113 58.428C94.7113 58.6627 94.642 58.8493 94.5033 58.988C94.3646 59.116 94.1673 59.18 93.9113 59.18H92.2153V62.476C92.2153 62.988 92.3273 63.372 92.5513 63.628C92.7753 63.884 93.138 64.012 93.6393 64.012C93.8206 64.012 93.9806 63.996 94.1193 63.964C94.258 63.932 94.3806 63.9107 94.4873 63.9C94.6153 63.8893 94.722 63.932 94.8073 64.028C94.8926 64.1133 94.9353 64.2947 94.9353 64.572C94.9353 64.7853 94.898 64.9773 94.8233 65.148C94.7593 65.308 94.6366 65.42 94.4553 65.484C94.3166 65.5267 94.1353 65.564 93.9113 65.596C93.6873 65.6387 93.49 65.66 93.3193 65.66ZM97.0711 65.628C96.7511 65.628 96.5057 65.5427 96.3351 65.372C96.1644 65.1907 96.0791 64.9347 96.0791 64.604V55.1C96.0791 54.7693 96.1644 54.5187 96.3351 54.348C96.5057 54.1773 96.7511 54.092 97.0711 54.092C97.3911 54.092 97.6364 54.1773 97.8071 54.348C97.9884 54.5187 98.0791 54.7693 98.0791 55.1V59.244H97.8551C98.0897 58.6787 98.4524 58.252 98.9431 57.964C99.4444 57.6653 100.01 57.516 100.639 57.516C101.268 57.516 101.786 57.6333 102.191 57.868C102.596 58.1027 102.9 58.46 103.103 58.94C103.306 59.4093 103.407 60.0067 103.407 60.732V64.604C103.407 64.9347 103.322 65.1907 103.151 65.372C102.98 65.5427 102.735 65.628 102.415 65.628C102.095 65.628 101.844 65.5427 101.663 65.372C101.492 65.1907 101.407 64.9347 101.407 64.604V60.828C101.407 60.22 101.29 59.7773 101.055 59.5C100.831 59.2227 100.479 59.084 99.9991 59.084C99.4124 59.084 98.9431 59.2707 98.5911 59.644C98.2497 60.0067 98.0791 60.492 98.0791 61.1V64.604C98.0791 65.2867 97.7431 65.628 97.0711 65.628ZM115.35 65.628C115.03 65.628 114.78 65.5427 114.598 65.372C114.417 65.1907 114.326 64.9347 114.326 64.604V63.356H110.374C110.044 63.356 109.777 63.2867 109.574 63.148C109.382 63.0093 109.286 62.7907 109.286 62.492C109.286 62.3213 109.329 62.1347 109.414 61.932C109.51 61.7293 109.676 61.4627 109.91 61.132L114.294 54.78C114.444 54.556 114.609 54.3853 114.79 54.268C114.972 54.1507 115.18 54.092 115.414 54.092C115.692 54.092 115.921 54.1773 116.102 54.348C116.284 54.508 116.374 54.764 116.374 55.116V61.66H117.158C117.468 61.66 117.697 61.7347 117.846 61.884C118.006 62.0227 118.086 62.2307 118.086 62.508C118.086 62.7853 118.006 62.9987 117.846 63.148C117.697 63.2867 117.468 63.356 117.158 63.356H116.374V64.604C116.374 64.9347 116.284 65.1907 116.102 65.372C115.921 65.5427 115.67 65.628 115.35 65.628ZM114.326 61.66V56.668H114.79L111.014 62.204V61.66H114.326ZM126.584 65.66C126.125 65.66 125.64 65.612 125.128 65.516C124.616 65.42 124.157 65.2547 123.752 65.02C123.581 64.9133 123.458 64.7907 123.384 64.652C123.32 64.5027 123.293 64.3587 123.304 64.22C123.325 64.0707 123.378 63.9427 123.464 63.836C123.56 63.7293 123.677 63.66 123.816 63.628C123.965 63.596 124.125 63.6227 124.296 63.708C124.722 63.9107 125.122 64.0547 125.496 64.14C125.869 64.2147 126.237 64.252 126.6 64.252C127.112 64.252 127.49 64.1667 127.736 63.996C127.992 63.8147 128.12 63.58 128.12 63.292C128.12 63.0467 128.034 62.86 127.864 62.732C127.704 62.5933 127.458 62.492 127.128 62.428L125.528 62.124C124.866 61.996 124.36 61.756 124.008 61.404C123.666 61.0413 123.496 60.5773 123.496 60.012C123.496 59.5 123.634 59.0573 123.912 58.684C124.2 58.3107 124.594 58.0227 125.096 57.82C125.597 57.6173 126.173 57.516 126.824 57.516C127.293 57.516 127.73 57.5693 128.136 57.676C128.552 57.772 128.952 57.9267 129.336 58.14C129.496 58.2253 129.602 58.3373 129.656 58.476C129.72 58.6147 129.736 58.7587 129.704 58.908C129.672 59.0467 129.608 59.1747 129.512 59.292C129.416 59.3987 129.293 59.468 129.144 59.5C129.005 59.5213 128.845 59.4893 128.664 59.404C128.333 59.2333 128.013 59.1107 127.704 59.036C127.405 58.9613 127.117 58.924 126.84 58.924C126.317 58.924 125.928 59.0147 125.672 59.196C125.426 59.3773 125.304 59.6173 125.304 59.916C125.304 60.14 125.378 60.3267 125.528 60.476C125.677 60.6253 125.906 60.7267 126.216 60.78L127.816 61.084C128.509 61.212 129.032 61.4467 129.384 61.788C129.746 62.1293 129.928 62.588 129.928 63.164C129.928 63.9427 129.624 64.556 129.016 65.004C128.408 65.4413 127.597 65.66 126.584 65.66ZM132.524 65.612C132.204 65.612 131.959 65.516 131.788 65.324C131.618 65.132 131.532 64.8653 131.532 64.524V58.652C131.532 58.3 131.618 58.0333 131.788 57.852C131.959 57.66 132.204 57.564 132.524 57.564C132.844 57.564 133.09 57.66 133.26 57.852C133.442 58.0333 133.532 58.3 133.532 58.652V64.524C133.532 64.8653 133.447 65.132 133.276 65.324C133.106 65.516 132.855 65.612 132.524 65.612ZM132.524 56.076C132.151 56.076 131.858 55.9853 131.644 55.804C131.442 55.612 131.34 55.3507 131.34 55.02C131.34 54.6787 131.442 54.4173 131.644 54.236C131.858 54.0547 132.151 53.964 132.524 53.964C132.908 53.964 133.202 54.0547 133.404 54.236C133.607 54.4173 133.708 54.6787 133.708 55.02C133.708 55.3507 133.607 55.612 133.404 55.804C133.202 55.9853 132.908 56.076 132.524 56.076ZM138.618 65.66C137.936 65.66 137.333 65.4947 136.81 65.164C136.298 64.8333 135.898 64.364 135.61 63.756C135.322 63.1373 135.178 62.412 135.178 61.58C135.178 60.7373 135.322 60.0173 135.61 59.42C135.898 58.812 136.298 58.3427 136.81 58.012C137.333 57.6813 137.936 57.516 138.618 57.516C139.269 57.516 139.834 57.676 140.314 57.996C140.805 58.316 141.136 58.7373 141.306 59.26H141.13V55.1C141.13 54.7693 141.216 54.5187 141.386 54.348C141.557 54.1773 141.802 54.092 142.122 54.092C142.442 54.092 142.688 54.1773 142.858 54.348C143.04 54.5187 143.13 54.7693 143.13 55.1V64.604C143.13 64.9347 143.045 65.1907 142.874 65.372C142.704 65.5427 142.458 65.628 142.138 65.628C141.818 65.628 141.573 65.5427 141.402 65.372C141.232 65.1907 141.146 64.9347 141.146 64.604V63.356L141.322 63.836C141.162 64.3907 140.837 64.8333 140.346 65.164C139.856 65.4947 139.28 65.66 138.618 65.66ZM139.178 64.14C139.573 64.14 139.92 64.044 140.218 63.852C140.517 63.66 140.746 63.3773 140.906 63.004C141.077 62.62 141.162 62.1453 141.162 61.58C141.162 60.7267 140.981 60.092 140.618 59.676C140.256 59.2493 139.776 59.036 139.178 59.036C138.784 59.036 138.437 59.132 138.138 59.324C137.84 59.5053 137.605 59.788 137.434 60.172C137.274 60.5453 137.194 61.0147 137.194 61.58C137.194 62.4227 137.376 63.0627 137.738 63.5C138.101 63.9267 138.581 64.14 139.178 64.14ZM149.06 65.66C148.175 65.66 147.412 65.4947 146.772 65.164C146.132 64.8333 145.636 64.364 145.284 63.756C144.943 63.148 144.772 62.428 144.772 61.596C144.772 60.7853 144.937 60.076 145.268 59.468C145.609 58.86 146.073 58.3853 146.66 58.044C147.257 57.692 147.935 57.516 148.692 57.516C149.247 57.516 149.743 57.6067 150.18 57.788C150.628 57.9693 151.007 58.2307 151.316 58.572C151.636 58.9133 151.876 59.3293 152.036 59.82C152.207 60.3 152.292 60.844 152.292 61.452C152.292 61.644 152.223 61.7933 152.084 61.9C151.956 61.996 151.769 62.044 151.524 62.044H146.388V60.892H150.884L150.628 61.132C150.628 60.6413 150.553 60.2307 150.404 59.9C150.265 59.5693 150.057 59.3187 149.78 59.148C149.513 58.9667 149.177 58.876 148.772 58.876C148.324 58.876 147.94 58.9827 147.62 59.196C147.311 59.3987 147.071 59.692 146.9 60.076C146.74 60.4493 146.66 60.8973 146.66 61.42V61.532C146.66 62.4067 146.863 63.0627 147.268 63.5C147.684 63.9267 148.292 64.14 149.092 64.14C149.369 64.14 149.679 64.108 150.02 64.044C150.372 63.9693 150.703 63.8467 151.012 63.676C151.236 63.548 151.433 63.4947 151.604 63.516C151.775 63.5267 151.908 63.5853 152.004 63.692C152.111 63.7987 152.175 63.932 152.196 64.092C152.217 64.2413 152.185 64.396 152.1 64.556C152.025 64.716 151.892 64.8547 151.7 64.972C151.327 65.2067 150.895 65.3827 150.404 65.5C149.924 65.6067 149.476 65.66 149.06 65.66ZM156.74 65.66C156.281 65.66 155.796 65.612 155.284 65.516C154.772 65.42 154.313 65.2547 153.908 65.02C153.737 64.9133 153.615 64.7907 153.54 64.652C153.476 64.5027 153.449 64.3587 153.46 64.22C153.481 64.0707 153.535 63.9427 153.62 63.836C153.716 63.7293 153.833 63.66 153.972 63.628C154.121 63.596 154.281 63.6227 154.452 63.708C154.879 63.9107 155.279 64.0547 155.652 64.14C156.025 64.2147 156.393 64.252 156.756 64.252C157.268 64.252 157.647 64.1667 157.892 63.996C158.148 63.8147 158.276 63.58 158.276 63.292C158.276 63.0467 158.191 62.86 158.02 62.732C157.86 62.5933 157.615 62.492 157.284 62.428L155.684 62.124C155.023 61.996 154.516 61.756 154.164 61.404C153.823 61.0413 153.652 60.5773 153.652 60.012C153.652 59.5 153.791 59.0573 154.068 58.684C154.356 58.3107 154.751 58.0227 155.252 57.82C155.753 57.6173 156.329 57.516 156.98 57.516C157.449 57.516 157.887 57.5693 158.292 57.676C158.708 57.772 159.108 57.9267 159.492 58.14C159.652 58.2253 159.759 58.3373 159.812 58.476C159.876 58.6147 159.892 58.7587 159.86 58.908C159.828 59.0467 159.764 59.1747 159.668 59.292C159.572 59.3987 159.449 59.468 159.3 59.5C159.161 59.5213 159.001 59.4893 158.82 59.404C158.489 59.2333 158.169 59.1107 157.86 59.036C157.561 58.9613 157.273 58.924 156.996 58.924C156.473 58.924 156.084 59.0147 155.828 59.196C155.583 59.3773 155.46 59.6173 155.46 59.916C155.46 60.14 155.535 60.3267 155.684 60.476C155.833 60.6253 156.063 60.7267 156.372 60.78L157.972 61.084C158.665 61.212 159.188 61.4467 159.54 61.788C159.903 62.1293 160.084 62.588 160.084 63.164C160.084 63.9427 159.78 64.556 159.172 65.004C158.564 65.4413 157.753 65.66 156.74 65.66Z" fill="#1A1A1A"/>
<rect x="-0.25" y="0.25" width="172.5" height="44.5" rx="7.75" transform="matrix(-1 0 0 1 172.5 38)" stroke="#1A1A1A" stroke-width="0.5"/>
<path d="M83.9697 38C83.9697 35.6427 85.7673 33.7317 87.9848 33.7317C90.2024 33.7317 92 35.6427 92 38H87.9848H83.9697Z" fill="#2C2C2C"/>
<path d="M87.9849 25.7789L88.1957 25.3255L88.4849 25.46L88.4849 25.7789L87.9849 25.7789ZM38.5304 3.17151C38.4356 2.91212 38.5691 2.62506 38.8285 2.53034L43.0555 0.986768C43.3149 0.892046 43.6019 1.02554 43.6967 1.28493C43.7914 1.54431 43.6579 1.83138 43.3985 1.9261L39.6412 3.29816L41.0132 7.05548C41.108 7.31487 40.9745 7.60193 40.7151 7.69665C40.4557 7.79137 40.1686 7.65788 40.0739 7.39849L38.5304 3.17151ZM87.4849 38L87.4849 25.7789L88.4849 25.7789L88.4849 38L87.4849 38ZM87.774 26.2323L38.7892 3.45338L39.2108 2.54662L88.1957 25.3255L87.774 26.2323Z" fill="#2C2C2C"/>
</svg>
