<svg width="272" height="184" viewBox="0 0 272 184" fill="none" xmlns="http://www.w3.org/2000/svg">
<path d="M58.0716 3H161.477L272 184H0L58.0716 3Z" fill="#F4E5FF" fill-opacity="0.65"/>
<line x1="59" y1="1.5" x2="160" y2="1.5" stroke="#C882FA" stroke-width="3"/>
<line x1="-1.31134e-07" y1="181.5" x2="272" y2="181.5" stroke="#EACCFF" stroke-width="3"/>
<path d="M59.5303 2.46967C59.2374 2.17678 58.7626 2.17678 58.4697 2.46967L53.6967 7.24264C53.4038 7.53553 53.4038 8.01041 53.6967 8.3033C53.9896 8.59619 54.4645 8.59619 54.7574 8.3033L59 4.06066L63.2426 8.3033C63.5355 8.59619 64.0104 8.59619 64.3033 8.3033C64.5962 8.01041 64.5962 7.53553 64.3033 7.24264L59.5303 2.46967ZM58.25 3L58.25 5.05556L59.75 5.05556L59.75 3L58.25 3ZM58.25 9.16667L58.25 13.2778L59.75 13.2778L59.75 9.16667L58.25 9.16667ZM58.25 17.3889L58.25 21.5L59.75 21.5L59.75 17.3889L58.25 17.3889ZM58.25 25.6111L58.25 29.7222L59.75 29.7222L59.75 25.6111L58.25 25.6111ZM58.25 33.8333L58.25 37.9444L59.75 37.9444L59.75 33.8333L58.25 33.8333ZM58.25 42.0556L58.25 46.1667L59.75 46.1667L59.75 42.0556L58.25 42.0556ZM58.25 50.2778L58.25 54.3889L59.75 54.3889L59.75 50.2778L58.25 50.2778ZM58.25 58.5L58.25 62.6111L59.75 62.6111L59.75 58.5L58.25 58.5ZM58.25 66.7222L58.25 70.8333L59.75 70.8333L59.75 66.7222L58.25 66.7222ZM58.25 74.9444L58.25 77L59.75 77L59.75 74.9444L58.25 74.9444Z" fill="#C882FA"/>
<path d="M58.4697 183.53C58.7626 183.823 59.2374 183.823 59.5303 183.53L64.3033 178.757C64.5962 178.464 64.5962 177.99 64.3033 177.697C64.0104 177.404 63.5355 177.404 63.2426 177.697L59 181.939L54.7574 177.697C54.4645 177.404 53.9896 177.404 53.6967 177.697C53.4038 177.99 53.4038 178.464 53.6967 178.757L58.4697 183.53ZM59.75 183L59.75 181.05L58.25 181.05L58.25 183L59.75 183ZM59.75 177.15L59.75 173.25L58.25 173.25L58.25 177.15L59.75 177.15ZM59.75 169.35L59.75 165.45L58.25 165.45L58.25 169.35L59.75 169.35ZM59.75 161.55L59.75 157.65L58.25 157.65L58.25 161.55L59.75 161.55ZM59.75 153.75L59.75 149.85L58.25 149.85L58.25 153.75L59.75 153.75ZM59.75 145.95L59.75 142.05L58.25 142.05L58.25 145.95L59.75 145.95ZM59.75 138.15L59.75 134.25L58.25 134.25L58.25 138.15L59.75 138.15ZM59.75 130.35L59.75 126.45L58.25 126.45L58.25 130.35L59.75 130.35ZM59.75 122.55L59.75 118.65L58.25 118.65L58.25 122.55L59.75 122.55ZM59.75 114.75L59.75 110.85L58.25 110.85L58.25 114.75L59.75 114.75ZM59.75 106.95L59.75 105L58.25 105L58.25 106.95L59.75 106.95Z" fill="#C882FA"/>
<path d="M55.54 98.16C55.14 98.16 54.8333 98.0533 54.62 97.84C54.4067 97.6133 54.3 97.2933 54.3 96.88V85C54.3 84.5867 54.4067 84.2733 54.62 84.06C54.8333 83.8467 55.14 83.74 55.54 83.74C55.94 83.74 56.2467 83.8467 56.46 84.06C56.6867 84.2733 56.8 84.5867 56.8 85V90.18H56.52C56.8133 89.4733 57.2667 88.94 57.88 88.58C58.5067 88.2067 59.2133 88.02 60 88.02C60.7867 88.02 61.4333 88.1667 61.94 88.46C62.4467 88.7533 62.8267 89.2 63.08 89.8C63.3333 90.3867 63.46 91.1333 63.46 92.04V96.88C63.46 97.2933 63.3533 97.6133 63.14 97.84C62.9267 98.0533 62.62 98.16 62.22 98.16C61.82 98.16 61.5067 98.0533 61.28 97.84C61.0667 97.6133 60.96 97.2933 60.96 96.88V92.16C60.96 91.4 60.8133 90.8467 60.52 90.5C60.24 90.1533 59.8 89.98 59.2 89.98C58.4667 89.98 57.88 90.2133 57.44 90.68C57.0133 91.1333 56.8 91.74 56.8 92.5V96.88C56.8 97.7333 56.38 98.16 55.54 98.16Z" fill="#C882FA"/>
</svg>
