<svg width="80" height="80" viewBox="0 0 80 80" fill="none" xmlns="http://www.w3.org/2000/svg">
<g clip-path="url(#clip0_1198_18346)">
<mask id="mask0_1198_18346" style="mask-type:alpha" maskUnits="userSpaceOnUse" x="0" y="0" width="80" height="80">
<circle cx="40" cy="40" r="40" fill="#D9D9D9"/>
</mask>
<g mask="url(#mask0_1198_18346)">
<circle cx="40" cy="40" r="40" fill="white"/>
<path d="M8.24489 42.5954C9.34239 38.5125 11.2333 34.6858 13.8097 31.3338C16.3861 27.9817 19.5975 25.1699 23.2606 23.059C26.9236 20.948 30.9666 19.5793 35.1586 19.0308C39.3507 18.4823 43.6097 18.7649 47.6925 19.8624C51.7754 20.9599 55.6021 22.8508 58.9541 25.4272C62.3062 28.0036 65.118 31.215 67.2289 34.8781C69.3399 38.5411 70.7087 42.5841 71.2571 46.7761C71.8056 50.9682 68.3264 85.9847 67.2289 90.0676L68.2791 95.437C69.8049 103.238 63.6377 110.464 55.8928 108.676C27.3588 102.087 2.39958 79.5313 8.24489 42.5954Z" fill="#81B3FF"/>
<path d="M38.809 46.0077C42.5454 47.306 44.0189 46.0937 46.1308 45.3011C47.2437 44.8834 48.502 45.5707 48.3372 46.7479C48.125 48.2646 46.9161 49.9895 43.7778 50.9808C37.9656 52.8166 32.7458 43.9009 38.809 46.0077Z" fill="#4473B9"/>
<path d="M45.8222 34.9261C45.9273 38.2988 48.7467 40.9477 52.1195 40.8426C55.4922 40.7375 58.1412 37.9181 58.036 34.5454C57.9309 31.1726 55.1115 28.5237 51.7388 28.6288C48.366 28.7339 45.7171 31.5533 45.8222 34.9261Z" fill="white"/>
<path fill-rule="evenodd" clip-rule="evenodd" d="M52.0936 40.0137C49.1787 40.1045 46.742 37.8152 46.6512 34.9002C46.5603 31.9853 48.8497 29.5486 51.7646 29.4578C54.6796 29.3669 57.1162 31.6563 57.2071 34.5712C57.2979 37.4862 55.0086 39.9228 52.0936 40.0137ZM52.1195 40.8426C48.7467 40.9477 45.9273 38.2988 45.8222 34.9261C45.7171 31.5533 48.366 28.7339 51.7388 28.6288C55.1115 28.5237 57.9309 31.1726 58.036 34.5454C58.1412 37.9181 55.4922 40.7375 52.1195 40.8426Z" fill="#4473B9"/>
<circle r="3" transform="matrix(-0.999515 0.0311521 0.0311521 0.999515 52.0949 34.592)" fill="black"/>
<path d="M22.4013 34.9261C22.5064 38.2988 25.3258 40.9477 28.6986 40.8426C32.0713 40.7375 34.7203 37.9181 34.6151 34.5454C34.51 31.1726 31.6906 28.5237 28.3179 28.6288C24.9451 28.7339 22.2962 31.5533 22.4013 34.9261Z" fill="white"/>
<path fill-rule="evenodd" clip-rule="evenodd" d="M28.6727 40.0137C25.7578 40.1045 23.3211 37.8152 23.2303 34.9002C23.1394 31.9853 25.4288 29.5486 28.3437 29.4578C31.2587 29.3669 33.6953 31.6563 33.7862 34.5712C33.877 37.4862 31.5877 39.9228 28.6727 40.0137ZM28.6986 40.8426C25.3258 40.9477 22.5064 38.2988 22.4013 34.9261C22.2962 31.5533 24.9451 28.7339 28.3179 28.6288C31.6906 28.5237 34.51 31.1726 34.6151 34.5454C34.7203 37.9181 32.0713 40.7375 28.6986 40.8426Z" fill="#4473B9"/>
<circle r="3" transform="matrix(-0.999515 0.0311521 0.0311521 0.999515 28.0949 34.592)" fill="black"/>
<circle r="7" transform="matrix(-0.965718 -0.259593 -0.259593 0.965718 59.4228 22.9429)" fill="#81B3FF"/>
<circle r="7" transform="matrix(-0.965718 -0.259593 -0.259593 0.965718 18.4228 22.9429)" fill="#81B3FF"/>
</g>
</g>
<defs>
<clipPath id="clip0_1198_18346">
<rect width="80" height="80" rx="40" fill="white"/>
</clipPath>
</defs>
</svg>
