<svg width="445" height="55" viewBox="0 0 445 55" fill="none" xmlns="http://www.w3.org/2000/svg">
<path opacity="0.5" d="M142.449 54.8877H0.570312V0.887695H173.861C187.561 24.9777 170.162 54.8877 142.449 54.8877Z" fill="#FFF6DB"/>
<path d="M65.5777 35.784C64.6044 35.784 63.7444 35.6573 62.9977 35.404C62.2644 35.1507 61.6444 34.7773 61.1377 34.284C60.6311 33.7773 60.2511 33.1507 59.9977 32.404C59.7444 31.6573 59.6177 30.7907 59.6177 29.804V22.624C59.6177 22.184 59.7244 21.8573 59.9377 21.644C60.1644 21.4307 60.4844 21.324 60.8977 21.324C61.3111 21.324 61.6244 21.4307 61.8377 21.644C62.0644 21.8573 62.1777 22.184 62.1777 22.624V29.784C62.1777 31.0507 62.4644 32.004 63.0377 32.644C63.6244 33.2707 64.4711 33.584 65.5777 33.584C66.6844 33.584 67.5244 33.2707 68.0977 32.644C68.6711 32.004 68.9577 31.0507 68.9577 29.784V22.624C68.9577 22.184 69.0644 21.8573 69.2777 21.644C69.5044 21.4307 69.8244 21.324 70.2377 21.324C70.6377 21.324 70.9444 21.4307 71.1577 21.644C71.3844 21.8573 71.4977 22.184 71.4977 22.624V29.804C71.4977 31.1107 71.2711 32.2107 70.8177 33.104C70.3777 33.9973 69.7177 34.6707 68.8377 35.124C67.9577 35.564 66.8711 35.784 65.5777 35.784ZM75.4834 35.744C75.0834 35.744 74.7767 35.6373 74.5634 35.424C74.35 35.1973 74.2434 34.8773 74.2434 34.464V22.584C74.2434 22.1707 74.35 21.8573 74.5634 21.644C74.7767 21.4307 75.0834 21.324 75.4834 21.324C75.8834 21.324 76.19 21.4307 76.4034 21.644C76.63 21.8573 76.7434 22.1707 76.7434 22.584V27.764H76.4634C76.7567 27.0573 77.21 26.524 77.8234 26.164C78.45 25.7907 79.1567 25.604 79.9434 25.604C80.73 25.604 81.3767 25.7507 81.8834 26.044C82.39 26.3373 82.77 26.784 83.0234 27.384C83.2767 27.9707 83.4034 28.7173 83.4034 29.624V34.464C83.4034 34.8773 83.2967 35.1973 83.0834 35.424C82.87 35.6373 82.5634 35.744 82.1634 35.744C81.7634 35.744 81.45 35.6373 81.2234 35.424C81.01 35.1973 80.9034 34.8773 80.9034 34.464V29.744C80.9034 28.984 80.7567 28.4307 80.4634 28.084C80.1834 27.7373 79.7434 27.564 79.1434 27.564C78.41 27.564 77.8234 27.7973 77.3834 28.264C76.9567 28.7173 76.7434 29.324 76.7434 30.084V34.464C76.7434 35.3173 76.3234 35.744 75.4834 35.744ZM86.8626 31.224C86.5692 31.224 86.3226 31.1307 86.1226 30.944C85.9359 30.744 85.8426 30.504 85.8426 30.224C85.8426 29.9307 85.9359 29.6907 86.1226 29.504C86.3226 29.3173 86.5692 29.224 86.8626 29.224H91.1226C91.4026 29.224 91.6359 29.3173 91.8226 29.504C92.0226 29.6907 92.1226 29.9307 92.1226 30.224C92.1226 30.504 92.0226 30.744 91.8226 30.944C91.6359 31.1307 91.4026 31.224 91.1226 31.224H86.8626ZM99.3674 35.784C98.3541 35.784 97.4741 35.5773 96.7274 35.164C95.9808 34.7507 95.4008 34.164 94.9874 33.404C94.5741 32.6307 94.3674 31.724 94.3674 30.684C94.3674 29.8973 94.4808 29.1973 94.7074 28.584C94.9474 27.9573 95.2874 27.424 95.7274 26.984C96.1674 26.5307 96.6941 26.1907 97.3074 25.964C97.9208 25.724 98.6074 25.604 99.3674 25.604C100.381 25.604 101.261 25.8107 102.007 26.224C102.754 26.6373 103.334 27.224 103.747 27.984C104.161 28.744 104.367 29.644 104.367 30.684C104.367 31.4707 104.247 32.1773 104.007 32.804C103.781 33.4307 103.447 33.9707 103.007 34.424C102.567 34.864 102.041 35.204 101.427 35.444C100.814 35.6707 100.127 35.784 99.3674 35.784ZM99.3674 33.884C99.8608 33.884 100.294 33.764 100.667 33.524C101.041 33.284 101.327 32.9307 101.527 32.464C101.741 31.984 101.847 31.3907 101.847 30.684C101.847 29.6173 101.621 28.824 101.167 28.304C100.714 27.7707 100.114 27.504 99.3674 27.504C98.8741 27.504 98.4408 27.624 98.0674 27.864C97.6941 28.0907 97.4008 28.444 97.1874 28.924C96.9874 29.3907 96.8874 29.9773 96.8874 30.684C96.8874 31.7373 97.1141 32.5373 97.5674 33.084C98.0208 33.6173 98.6208 33.884 99.3674 33.884ZM107.671 35.744C107.271 35.744 106.964 35.6373 106.751 35.424C106.538 35.1973 106.431 34.8773 106.431 34.464V22.584C106.431 22.1707 106.538 21.8573 106.751 21.644C106.964 21.4307 107.271 21.324 107.671 21.324C108.071 21.324 108.378 21.4307 108.591 21.644C108.818 21.8573 108.931 22.1707 108.931 22.584V27.764H108.651C108.944 27.0573 109.398 26.524 110.011 26.164C110.638 25.7907 111.344 25.604 112.131 25.604C112.918 25.604 113.564 25.7507 114.071 26.044C114.578 26.3373 114.958 26.784 115.211 27.384C115.464 27.9707 115.591 28.7173 115.591 29.624V34.464C115.591 34.8773 115.484 35.1973 115.271 35.424C115.058 35.6373 114.751 35.744 114.351 35.744C113.951 35.744 113.638 35.6373 113.411 35.424C113.198 35.1973 113.091 34.8773 113.091 34.464V29.744C113.091 28.984 112.944 28.4307 112.651 28.084C112.371 27.7373 111.931 27.564 111.331 27.564C110.598 27.564 110.011 27.7973 109.571 28.264C109.144 28.7173 108.931 29.324 108.931 30.084V34.464C108.931 35.3173 108.511 35.744 107.671 35.744ZM119.33 31.524C119.077 31.524 118.877 31.444 118.73 31.284C118.597 31.124 118.517 30.8973 118.49 30.604L117.89 22.964C117.85 22.4707 117.957 22.0773 118.21 21.784C118.463 21.4773 118.837 21.324 119.33 21.324C119.81 21.324 120.17 21.4773 120.41 21.784C120.663 22.0773 120.77 22.4707 120.73 22.964L120.13 30.604C120.117 30.8973 120.037 31.124 119.89 31.284C119.757 31.444 119.57 31.524 119.33 31.524ZM119.33 35.684C118.877 35.684 118.51 35.544 118.23 35.264C117.963 34.984 117.83 34.624 117.83 34.184C117.83 33.7573 117.963 33.4107 118.23 33.144C118.51 32.864 118.877 32.724 119.33 32.724C119.797 32.724 120.157 32.864 120.41 33.144C120.677 33.4107 120.81 33.7573 120.81 34.184C120.81 34.624 120.677 34.984 120.41 35.264C120.157 35.544 119.797 35.684 119.33 35.684Z" fill="#333333"/>
<g clip-path="url(#clip0_13107_111372)">
<path d="M34.1783 16.9926L43.6668 33.3863H24.6899L34.1783 16.9926ZM22.5099 32.1263C21.5397 33.8022 22.7493 35.9065 24.6899 35.9065H43.6668C45.6073 35.9065 46.817 33.8022 45.8467 32.1263L36.3583 15.7325C35.388 14.0566 32.9686 14.0566 31.9984 15.7325L22.5099 32.1263ZM32.9182 23.3056V25.8258C32.9182 26.5189 33.4853 27.0859 34.1783 27.0859C34.8714 27.0859 35.4384 26.5189 35.4384 25.8258V23.3056C35.4384 22.6126 34.8714 22.0456 34.1783 22.0456C33.4853 22.0456 32.9182 22.6126 32.9182 23.3056ZM32.9182 29.6061H35.4384V32.1263H32.9182V29.6061Z" fill="#F0A000"/>
</g>
<defs>
<clipPath id="clip0_13107_111372">
<rect width="24" height="24" fill="white" transform="translate(22.1777 13.1914)"/>
</clipPath>
</defs>
</svg>
