<svg width="219" height="46" viewBox="0 0 219 46" fill="none" xmlns="http://www.w3.org/2000/svg">
<path d="M11.0484 6.44428C12.5244 2.5645 16.2438 0 20.3949 0H197.311C201.359 0 205.008 2.44075 206.554 6.1824L217.293 32.1824C220.012 38.7655 215.173 46 208.05 46H10.5036C3.50128 46 -1.33275 38.9889 1.15707 32.4443L11.0484 6.44428Z" fill="#7F5CF4"/>
<path d="M28.4097 28.16C27.2364 28.16 26.2284 27.9253 25.3857 27.456C24.5537 26.976 23.9137 26.304 23.4657 25.44C23.0177 24.5653 22.7937 23.536 22.7937 22.352C22.7937 21.4667 22.9217 20.672 23.1777 19.968C23.4337 19.2533 23.8017 18.6453 24.2817 18.144C24.7617 17.632 25.3484 17.2427 26.0417 16.976C26.7457 16.6987 27.535 16.56 28.4097 16.56C28.9964 16.56 29.5724 16.6347 30.1377 16.784C30.703 16.9333 31.199 17.1467 31.6257 17.424C31.8497 17.5627 31.999 17.7333 32.0737 17.936C32.1484 18.128 32.1644 18.32 32.1217 18.512C32.079 18.6933 31.9884 18.848 31.8497 18.976C31.7217 19.104 31.5564 19.1787 31.3537 19.2C31.1617 19.2107 30.9484 19.1413 30.7137 18.992C30.383 18.7787 30.0257 18.624 29.6417 18.528C29.2577 18.432 28.8684 18.384 28.4737 18.384C27.7164 18.384 27.0764 18.5387 26.5537 18.848C26.031 19.1573 25.6364 19.6053 25.3697 20.192C25.103 20.7787 24.9697 21.4987 24.9697 22.352C24.9697 23.1947 25.103 23.9147 25.3697 24.512C25.6364 25.1093 26.031 25.5627 26.5537 25.872C27.0764 26.1813 27.7164 26.336 28.4737 26.336C28.879 26.336 29.279 26.288 29.6737 26.192C30.0684 26.0853 30.4417 25.9253 30.7937 25.712C31.0284 25.5733 31.2364 25.5147 31.4177 25.536C31.6097 25.5467 31.7697 25.6107 31.8977 25.728C32.0257 25.8453 32.111 25.9947 32.1537 26.176C32.1964 26.3467 32.1857 26.528 32.1217 26.72C32.0577 26.9013 31.9297 27.0613 31.7377 27.2C31.311 27.5093 30.799 27.7493 30.2017 27.92C29.615 28.08 29.0177 28.16 28.4097 28.16ZM36.8502 28.16C36.0395 28.16 35.3355 27.9947 34.7382 27.664C34.1409 27.3333 33.6769 26.864 33.3462 26.256C33.0155 25.6373 32.8502 24.912 32.8502 24.08C32.8502 23.4507 32.9409 22.8907 33.1222 22.4C33.3142 21.8987 33.5862 21.472 33.9382 21.12C34.2902 20.7573 34.7115 20.4853 35.2022 20.304C35.6929 20.112 36.2422 20.016 36.8502 20.016C37.6609 20.016 38.3649 20.1813 38.9622 20.512C39.5595 20.8427 40.0235 21.312 40.3542 21.92C40.6849 22.528 40.8502 23.248 40.8502 24.08C40.8502 24.7093 40.7542 25.2747 40.5622 25.776C40.3809 26.2773 40.1142 26.7093 39.7622 27.072C39.4102 27.424 38.9889 27.696 38.4982 27.888C38.0075 28.0693 37.4582 28.16 36.8502 28.16ZM36.8502 26.64C37.2449 26.64 37.5915 26.544 37.8902 26.352C38.1889 26.16 38.4182 25.8773 38.5782 25.504C38.7489 25.12 38.8342 24.6453 38.8342 24.08C38.8342 23.2267 38.6529 22.592 38.2902 22.176C37.9275 21.7493 37.4475 21.536 36.8502 21.536C36.4555 21.536 36.1089 21.632 35.8102 21.824C35.5115 22.0053 35.2769 22.288 35.1062 22.672C34.9462 23.0453 34.8662 23.5147 34.8662 24.08C34.8662 24.9227 35.0475 25.5627 35.4102 26C35.7729 26.4267 36.2529 26.64 36.8502 26.64ZM43.4929 28.128C43.1729 28.128 42.9276 28.0427 42.7569 27.872C42.5863 27.6907 42.5009 27.4347 42.5009 27.104V21.056C42.5009 20.7253 42.5863 20.4747 42.7569 20.304C42.9276 20.1333 43.1676 20.048 43.4769 20.048C43.7863 20.048 44.0263 20.1333 44.1969 20.304C44.3676 20.4747 44.4529 20.7253 44.4529 21.056V22.144L44.2769 21.744C44.5116 21.1787 44.8743 20.752 45.3649 20.464C45.8663 20.1653 46.4316 20.016 47.0609 20.016C47.6903 20.016 48.2076 20.1333 48.6129 20.368C49.0183 20.6027 49.3223 20.96 49.5249 21.44C49.7276 21.9093 49.8289 22.5067 49.8289 23.232V27.104C49.8289 27.4347 49.7436 27.6907 49.5729 27.872C49.4023 28.0427 49.1569 28.128 48.8369 28.128C48.5169 28.128 48.2663 28.0427 48.0849 27.872C47.9143 27.6907 47.8289 27.4347 47.8289 27.104V23.328C47.8289 22.72 47.7116 22.2773 47.4769 22C47.2529 21.7227 46.9009 21.584 46.4209 21.584C45.8343 21.584 45.3649 21.7707 45.0129 22.144C44.6716 22.5067 44.5009 22.992 44.5009 23.6V27.104C44.5009 27.7867 44.1649 28.128 43.4929 28.128ZM55.7163 28.16C54.831 28.16 54.0683 27.9947 53.4283 27.664C52.7883 27.3333 52.2923 26.864 51.9403 26.256C51.599 25.648 51.4283 24.928 51.4283 24.096C51.4283 23.2853 51.5936 22.576 51.9243 21.968C52.2656 21.36 52.7296 20.8853 53.3163 20.544C53.9136 20.192 54.591 20.016 55.3483 20.016C55.903 20.016 56.399 20.1067 56.8363 20.288C57.2843 20.4693 57.663 20.7307 57.9723 21.072C58.2923 21.4133 58.5323 21.8293 58.6923 22.32C58.863 22.8 58.9483 23.344 58.9483 23.952C58.9483 24.144 58.879 24.2933 58.7403 24.4C58.6123 24.496 58.4256 24.544 58.1803 24.544H53.0443V23.392H57.5403L57.2843 23.632C57.2843 23.1413 57.2096 22.7307 57.0603 22.4C56.9216 22.0693 56.7136 21.8187 56.4363 21.648C56.1696 21.4667 55.8336 21.376 55.4283 21.376C54.9803 21.376 54.5963 21.4827 54.2763 21.696C53.967 21.8987 53.727 22.192 53.5563 22.576C53.3963 22.9493 53.3163 23.3973 53.3163 23.92V24.032C53.3163 24.9067 53.519 25.5627 53.9243 26C54.3403 26.4267 54.9483 26.64 55.7483 26.64C56.0256 26.64 56.335 26.608 56.6763 26.544C57.0283 26.4693 57.359 26.3467 57.6683 26.176C57.8923 26.048 58.0896 25.9947 58.2603 26.016C58.431 26.0267 58.5643 26.0853 58.6603 26.192C58.767 26.2987 58.831 26.432 58.8523 26.592C58.8736 26.7413 58.8416 26.896 58.7563 27.056C58.6816 27.216 58.5483 27.3547 58.3563 27.472C57.983 27.7067 57.551 27.8827 57.0603 28C56.5803 28.1067 56.1323 28.16 55.7163 28.16ZM63.3962 28.16C62.9375 28.16 62.4522 28.112 61.9402 28.016C61.4282 27.92 60.9695 27.7547 60.5642 27.52C60.3935 27.4133 60.2709 27.2907 60.1962 27.152C60.1322 27.0027 60.1055 26.8587 60.1162 26.72C60.1375 26.5707 60.1909 26.4427 60.2762 26.336C60.3722 26.2293 60.4895 26.16 60.6282 26.128C60.7775 26.096 60.9375 26.1227 61.1082 26.208C61.5349 26.4107 61.9349 26.5547 62.3082 26.64C62.6815 26.7147 63.0495 26.752 63.4122 26.752C63.9242 26.752 64.3029 26.6667 64.5482 26.496C64.8042 26.3147 64.9322 26.08 64.9322 25.792C64.9322 25.5467 64.8469 25.36 64.6762 25.232C64.5162 25.0933 64.2709 24.992 63.9402 24.928L62.3402 24.624C61.6789 24.496 61.1722 24.256 60.8202 23.904C60.4789 23.5413 60.3082 23.0773 60.3082 22.512C60.3082 22 60.4469 21.5573 60.7242 21.184C61.0122 20.8107 61.4069 20.5227 61.9082 20.32C62.4095 20.1173 62.9855 20.016 63.6362 20.016C64.1055 20.016 64.5429 20.0693 64.9482 20.176C65.3642 20.272 65.7642 20.4267 66.1482 20.64C66.3082 20.7253 66.4149 20.8373 66.4682 20.976C66.5322 21.1147 66.5482 21.2587 66.5162 21.408C66.4842 21.5467 66.4202 21.6747 66.3242 21.792C66.2282 21.8987 66.1055 21.968 65.9562 22C65.8175 22.0213 65.6575 21.9893 65.4762 21.904C65.1455 21.7333 64.8255 21.6107 64.5162 21.536C64.2175 21.4613 63.9295 21.424 63.6522 21.424C63.1295 21.424 62.7402 21.5147 62.4842 21.696C62.2389 21.8773 62.1162 22.1173 62.1162 22.416C62.1162 22.64 62.1909 22.8267 62.3402 22.976C62.4895 23.1253 62.7189 23.2267 63.0282 23.28L64.6282 23.584C65.3215 23.712 65.8442 23.9467 66.1962 24.288C66.5589 24.6293 66.7402 25.088 66.7402 25.664C66.7402 26.4427 66.4362 27.056 65.8282 27.504C65.2202 27.9413 64.4095 28.16 63.3962 28.16ZM73.6804 31.008C73.3604 31.008 73.1151 30.9227 72.9444 30.752C72.7738 30.5813 72.6884 30.3307 72.6884 30V21.056C72.6884 20.7253 72.7738 20.4747 72.9444 20.304C73.1151 20.1333 73.3551 20.048 73.6644 20.048C73.9844 20.048 74.2298 20.1333 74.4004 20.304C74.5711 20.4747 74.6564 20.7253 74.6564 21.056V22.304L74.4804 21.824C74.6404 21.28 74.9658 20.8427 75.4564 20.512C75.9578 20.1813 76.5391 20.016 77.2004 20.016C77.8831 20.016 78.4804 20.1813 78.9924 20.512C79.5151 20.8427 79.9204 21.312 80.2084 21.92C80.4964 22.5173 80.6404 23.2373 80.6404 24.08C80.6404 24.912 80.4964 25.6373 80.2084 26.256C79.9204 26.864 79.5204 27.3333 79.0084 27.664C78.4964 27.9947 77.8938 28.16 77.2004 28.16C76.5498 28.16 75.9791 28 75.4884 27.68C74.9978 27.3493 74.6671 26.9227 74.4964 26.4H74.6884V30C74.6884 30.3307 74.5978 30.5813 74.4164 30.752C74.2458 30.9227 74.0004 31.008 73.6804 31.008ZM76.6404 26.64C77.0351 26.64 77.3818 26.544 77.6804 26.352C77.9791 26.16 78.2084 25.8773 78.3684 25.504C78.5391 25.12 78.6244 24.6453 78.6244 24.08C78.6244 23.2267 78.4431 22.592 78.0804 22.176C77.7178 21.7493 77.2378 21.536 76.6404 21.536C76.2458 21.536 75.8991 21.632 75.6004 21.824C75.3018 22.0053 75.0671 22.288 74.8964 22.672C74.7364 23.0453 74.6564 23.5147 74.6564 24.08C74.6564 24.9227 74.8378 25.5627 75.2004 26C75.5631 26.4267 76.0431 26.64 76.6404 26.64ZM85.8502 28.16C85.0395 28.16 84.3355 27.9947 83.7382 27.664C83.1409 27.3333 82.6769 26.864 82.3462 26.256C82.0155 25.6373 81.8502 24.912 81.8502 24.08C81.8502 23.4507 81.9409 22.8907 82.1222 22.4C82.3142 21.8987 82.5862 21.472 82.9382 21.12C83.2902 20.7573 83.7115 20.4853 84.2022 20.304C84.6929 20.112 85.2422 20.016 85.8502 20.016C86.6609 20.016 87.3649 20.1813 87.9622 20.512C88.5595 20.8427 89.0235 21.312 89.3542 21.92C89.6849 22.528 89.8502 23.248 89.8502 24.08C89.8502 24.7093 89.7542 25.2747 89.5622 25.776C89.3809 26.2773 89.1142 26.7093 88.7622 27.072C88.4102 27.424 87.9889 27.696 87.4982 27.888C87.0075 28.0693 86.4582 28.16 85.8502 28.16ZM85.8502 26.64C86.2449 26.64 86.5915 26.544 86.8902 26.352C87.1889 26.16 87.4182 25.8773 87.5782 25.504C87.7489 25.12 87.8342 24.6453 87.8342 24.08C87.8342 23.2267 87.6529 22.592 87.2902 22.176C86.9275 21.7493 86.4475 21.536 85.8502 21.536C85.4555 21.536 85.1089 21.632 84.8102 21.824C84.5115 22.0053 84.2769 22.288 84.1062 22.672C83.9462 23.0453 83.8662 23.5147 83.8662 24.08C83.8662 24.9227 84.0475 25.5627 84.4102 26C84.7729 26.4267 85.2529 26.64 85.8502 26.64ZM94.3329 28.16C93.6823 28.16 93.1436 28.0427 92.7169 27.808C92.2903 27.5627 91.9703 27.2 91.7569 26.72C91.5543 26.24 91.4529 25.6427 91.4529 24.928V21.056C91.4529 20.7147 91.5383 20.464 91.7089 20.304C91.8796 20.1333 92.1249 20.048 92.4449 20.048C92.7649 20.048 93.0103 20.1333 93.1809 20.304C93.3623 20.464 93.4529 20.7147 93.4529 21.056V24.96C93.4529 25.5147 93.5649 25.9253 93.7889 26.192C94.0129 26.4587 94.3703 26.592 94.8609 26.592C95.3943 26.592 95.8316 26.4107 96.1729 26.048C96.5143 25.6747 96.6849 25.184 96.6849 24.576V21.056C96.6849 20.7147 96.7703 20.464 96.9409 20.304C97.1116 20.1333 97.3569 20.048 97.6769 20.048C97.9969 20.048 98.2423 20.1333 98.4129 20.304C98.5943 20.464 98.6849 20.7147 98.6849 21.056V27.104C98.6849 27.7867 98.3596 28.128 97.7089 28.128C97.3996 28.128 97.1596 28.0427 96.9889 27.872C96.8183 27.6907 96.7329 27.4347 96.7329 27.104V25.888L96.9569 26.368C96.7329 26.944 96.3916 27.3867 95.9329 27.696C95.4849 28.0053 94.9516 28.16 94.3329 28.16ZM101.791 28.128C101.46 28.128 101.204 28.0427 101.023 27.872C100.852 27.6907 100.767 27.4347 100.767 27.104V21.056C100.767 20.7253 100.852 20.4747 101.023 20.304C101.193 20.1333 101.433 20.048 101.743 20.048C102.052 20.048 102.292 20.1333 102.463 20.304C102.633 20.4747 102.719 20.7253 102.719 21.056V22.064H102.559C102.708 21.424 103.001 20.9387 103.439 20.608C103.876 20.2773 104.457 20.08 105.183 20.016C105.407 19.9947 105.583 20.0533 105.711 20.192C105.849 20.32 105.929 20.5227 105.951 20.8C105.972 21.0667 105.908 21.2853 105.759 21.456C105.62 21.616 105.407 21.712 105.119 21.744L104.767 21.776C104.116 21.84 103.625 22.0427 103.295 22.384C102.964 22.7147 102.799 23.184 102.799 23.792V27.104C102.799 27.4347 102.713 27.6907 102.543 27.872C102.372 28.0427 102.121 28.128 101.791 28.128ZM110.763 28.16C109.878 28.16 109.115 27.9947 108.475 27.664C107.835 27.3333 107.339 26.864 106.987 26.256C106.646 25.648 106.475 24.928 106.475 24.096C106.475 23.2853 106.641 22.576 106.971 21.968C107.313 21.36 107.777 20.8853 108.363 20.544C108.961 20.192 109.638 20.016 110.395 20.016C110.95 20.016 111.446 20.1067 111.883 20.288C112.331 20.4693 112.71 20.7307 113.019 21.072C113.339 21.4133 113.579 21.8293 113.739 22.32C113.91 22.8 113.995 23.344 113.995 23.952C113.995 24.144 113.926 24.2933 113.787 24.4C113.659 24.496 113.473 24.544 113.227 24.544H108.091V23.392H112.587L112.331 23.632C112.331 23.1413 112.257 22.7307 112.107 22.4C111.969 22.0693 111.761 21.8187 111.483 21.648C111.217 21.4667 110.881 21.376 110.475 21.376C110.027 21.376 109.643 21.4827 109.323 21.696C109.014 21.8987 108.774 22.192 108.603 22.576C108.443 22.9493 108.363 23.3973 108.363 23.92V24.032C108.363 24.9067 108.566 25.5627 108.971 26C109.387 26.4267 109.995 26.64 110.795 26.64C111.073 26.64 111.382 26.608 111.723 26.544C112.075 26.4693 112.406 26.3467 112.715 26.176C112.939 26.048 113.137 25.9947 113.307 26.016C113.478 26.0267 113.611 26.0853 113.707 26.192C113.814 26.2987 113.878 26.432 113.899 26.592C113.921 26.7413 113.889 26.896 113.803 27.056C113.729 27.216 113.595 27.3547 113.403 27.472C113.03 27.7067 112.598 27.8827 112.107 28C111.627 28.1067 111.179 28.16 110.763 28.16ZM118.587 28.16C117.904 28.16 117.302 27.9947 116.779 27.664C116.267 27.3333 115.867 26.864 115.579 26.256C115.291 25.6373 115.147 24.912 115.147 24.08C115.147 23.2373 115.291 22.5173 115.579 21.92C115.867 21.312 116.267 20.8427 116.779 20.512C117.302 20.1813 117.904 20.016 118.587 20.016C119.238 20.016 119.803 20.176 120.283 20.496C120.774 20.816 121.104 21.2373 121.275 21.76H121.099V17.6C121.099 17.2693 121.184 17.0187 121.355 16.848C121.526 16.6773 121.771 16.592 122.091 16.592C122.411 16.592 122.656 16.6773 122.827 16.848C123.008 17.0187 123.099 17.2693 123.099 17.6V27.104C123.099 27.4347 123.014 27.6907 122.843 27.872C122.672 28.0427 122.427 28.128 122.107 28.128C121.787 28.128 121.542 28.0427 121.371 27.872C121.2 27.6907 121.115 27.4347 121.115 27.104V25.856L121.291 26.336C121.131 26.8907 120.806 27.3333 120.315 27.664C119.824 27.9947 119.248 28.16 118.587 28.16ZM119.147 26.64C119.542 26.64 119.888 26.544 120.187 26.352C120.486 26.16 120.715 25.8773 120.875 25.504C121.046 25.12 121.131 24.6453 121.131 24.08C121.131 23.2267 120.95 22.592 120.587 22.176C120.224 21.7493 119.744 21.536 119.147 21.536C118.752 21.536 118.406 21.632 118.107 21.824C117.808 22.0053 117.574 22.288 117.403 22.672C117.243 23.0453 117.163 23.5147 117.163 24.08C117.163 24.9227 117.344 25.5627 117.707 26C118.07 26.4267 118.55 26.64 119.147 26.64ZM129.965 22.512C129.741 22.512 129.565 22.4533 129.437 22.336C129.309 22.208 129.245 22.032 129.245 21.808C129.245 21.584 129.309 21.4133 129.437 21.296C129.565 21.168 129.741 21.104 129.965 21.104H136.589C136.823 21.104 136.999 21.168 137.117 21.296C137.245 21.4133 137.309 21.584 137.309 21.808C137.309 22.032 137.245 22.208 137.117 22.336C136.999 22.4533 136.823 22.512 136.589 22.512H129.965ZM129.965 25.696C129.741 25.696 129.565 25.6373 129.437 25.52C129.309 25.392 129.245 25.216 129.245 24.992C129.245 24.768 129.309 24.5973 129.437 24.48C129.565 24.3627 129.741 24.304 129.965 24.304H136.589C136.823 24.304 136.999 24.3627 137.117 24.48C137.245 24.5973 137.309 24.768 137.309 24.992C137.309 25.2267 137.245 25.4027 137.117 25.52C136.999 25.6373 136.823 25.696 136.589 25.696H129.965Z" fill="white"/>
<rect x="154" y="10" width="44" height="28" rx="5" fill="#F6F6F6"/>
</svg>
