<svg width="390" height="19" viewBox="0 0 390 19" fill="none" xmlns="http://www.w3.org/2000/svg">
<path d="M5.72 15.2C5 15.2 4.25333 15.1067 3.48 14.92C2.70667 14.7333 2.03333 14.4533 1.46 14.08C1.19333 13.9067 1.01333 13.7067 0.92 13.48C0.826667 13.2533 0.8 13.04 0.84 12.84C0.893333 12.6267 0.993333 12.4467 1.14 12.3C1.3 12.1533 1.49333 12.0667 1.72 12.04C1.96 12.0133 2.22 12.0733 2.5 12.22C3.04667 12.5133 3.57333 12.7267 4.08 12.86C4.58667 12.98 5.10667 13.04 5.64 13.04C6.22667 13.04 6.72 12.96 7.12 12.8C7.52 12.64 7.82 12.4 8.02 12.08C8.23333 11.76 8.34 11.3733 8.34 10.92C8.34 10.2533 8.11333 9.76 7.66 9.44C7.22 9.10667 6.57333 8.94 5.72 8.94H4.44C4.06667 8.94 3.78 8.84667 3.58 8.66C3.39333 8.47333 3.3 8.21333 3.3 7.88C3.3 7.54667 3.39333 7.28667 3.58 7.1C3.78 6.91333 4.06667 6.82 4.44 6.82H5.48C5.98667 6.82 6.42 6.74 6.78 6.58C7.14 6.40667 7.42 6.16667 7.62 5.86C7.82 5.55333 7.92 5.18 7.92 4.74C7.92 4.12667 7.71333 3.66 7.3 3.34C6.9 3.02 6.31333 2.86 5.54 2.86C5.04667 2.86 4.58 2.92 4.14 3.04C3.71333 3.14667 3.24 3.35333 2.72 3.66C2.48 3.80667 2.24667 3.86667 2.02 3.84C1.80667 3.81333 1.62667 3.72667 1.48 3.58C1.33333 3.43333 1.23333 3.26 1.18 3.06C1.12667 2.84667 1.14 2.63333 1.22 2.42C1.3 2.19333 1.46667 2 1.72 1.84C2.29333 1.46667 2.92667 1.18667 3.62 0.999999C4.31333 0.799999 5.02667 0.699999 5.76 0.699999C6.73333 0.699999 7.56667 0.853333 8.26 1.16C8.95333 1.45333 9.48 1.88 9.84 2.44C10.2133 2.98667 10.4 3.65333 10.4 4.44C10.4 5 10.2933 5.51333 10.08 5.98C9.86667 6.43333 9.56667 6.82 9.18 7.14C8.79333 7.46 8.32667 7.68667 7.78 7.82V7.58C8.74 7.74 9.48667 8.14 10.02 8.78C10.5533 9.40667 10.82 10.1933 10.82 11.14C10.82 11.9667 10.6133 12.6867 10.2 13.3C9.78667 13.9133 9.2 14.3867 8.44 14.72C7.68 15.04 6.77333 15.2 5.72 15.2ZM19.4019 15.1C19.1085 15.1 18.8619 15.02 18.6619 14.86C18.4752 14.6867 18.3752 14.4667 18.3619 14.2C18.3619 13.9333 18.4752 13.6533 18.7019 13.36L21.9419 9.36V10.54L18.9019 6.8C18.6619 6.50667 18.5485 6.22667 18.5619 5.96C18.5752 5.69333 18.6752 5.48 18.8619 5.32C19.0619 5.14667 19.3085 5.06 19.6019 5.06C19.9085 5.06 20.1619 5.11333 20.3619 5.22C20.5752 5.32667 20.7685 5.49333 20.9419 5.72L23.3419 8.8H22.4619L24.8819 5.72C25.0685 5.49333 25.2619 5.32667 25.4619 5.22C25.6619 5.11333 25.9085 5.06 26.2019 5.06C26.5085 5.06 26.7552 5.14667 26.9419 5.32C27.1285 5.49333 27.2219 5.71333 27.2219 5.98C27.2352 6.24667 27.1219 6.52667 26.8819 6.82L23.8619 10.52V9.4L27.1019 13.36C27.3419 13.64 27.4552 13.9133 27.4419 14.18C27.4285 14.4467 27.3219 14.6667 27.1219 14.84C26.9352 15.0133 26.6885 15.1 26.3819 15.1C26.0885 15.1 25.8419 15.0467 25.6419 14.94C25.4419 14.8333 25.2485 14.6667 25.0619 14.44L22.4619 11.16H23.3019L20.7219 14.44C20.5485 14.6533 20.3619 14.82 20.1619 14.94C19.9619 15.0467 19.7085 15.1 19.4019 15.1ZM38.1095 18.26C37.2829 16.9533 36.6829 15.58 36.3095 14.14C35.9495 12.6867 35.7695 11.22 35.7695 9.74C35.7695 8.75333 35.8495 7.77333 36.0095 6.8C36.1695 5.82667 36.4229 4.87333 36.7695 3.94C37.1162 2.99333 37.5629 2.08667 38.1095 1.22C38.2562 0.98 38.4495 0.833333 38.6895 0.779999C38.9429 0.713333 39.1762 0.726666 39.3895 0.819999C39.6162 0.913333 39.7829 1.08667 39.8895 1.34C39.9962 1.58 39.9829 1.88667 39.8495 2.26C39.5295 3.11333 39.2629 3.95333 39.0495 4.78C38.8495 5.59333 38.6962 6.40667 38.5895 7.22C38.4962 8.03333 38.4495 8.87333 38.4495 9.74C38.4495 10.6067 38.5029 11.4467 38.6095 12.26C38.7162 13.0733 38.8762 13.8867 39.0895 14.7C39.3029 15.5133 39.5562 16.3533 39.8495 17.22C39.9829 17.5933 39.9962 17.9 39.8895 18.14C39.7829 18.3933 39.6162 18.5667 39.3895 18.66C39.1762 18.7533 38.9429 18.7667 38.6895 18.7C38.4495 18.6467 38.2562 18.5 38.1095 18.26ZM48.683 15.16C48.323 15.16 48.023 15.08 47.783 14.92C47.5563 14.7467 47.3696 14.4933 47.223 14.16L42.003 2.44C41.8563 2.10667 41.8163 1.81333 41.883 1.56C41.9496 1.30667 42.0896 1.10667 42.303 0.96C42.5163 0.813332 42.7696 0.739999 43.063 0.739999C43.4496 0.739999 43.7363 0.826666 43.923 0.999999C44.123 1.16 44.2896 1.40667 44.423 1.74L49.163 12.72H48.303L53.023 1.72C53.1696 1.4 53.343 1.16 53.543 0.999999C53.743 0.826666 54.023 0.739999 54.383 0.739999C54.6763 0.739999 54.9163 0.813332 55.103 0.96C55.303 1.10667 55.4296 1.30667 55.483 1.56C55.5363 1.81333 55.4896 2.10667 55.343 2.44L50.123 14.16C49.9763 14.4933 49.7896 14.7467 49.563 14.92C49.3496 15.08 49.0563 15.16 48.683 15.16ZM60.3108 15.2C59.2974 15.2 58.4174 14.9933 57.6708 14.58C56.9241 14.1667 56.3441 13.58 55.9308 12.82C55.5174 12.0467 55.3108 11.14 55.3108 10.1C55.3108 9.31333 55.4241 8.61333 55.6508 8C55.8908 7.37333 56.2308 6.84 56.6708 6.4C57.1108 5.94667 57.6374 5.60667 58.2508 5.38C58.8641 5.14 59.5508 5.02 60.3108 5.02C61.3241 5.02 62.2041 5.22667 62.9508 5.64C63.6974 6.05333 64.2774 6.64 64.6908 7.4C65.1041 8.16 65.3108 9.06 65.3108 10.1C65.3108 10.8867 65.1908 11.5933 64.9508 12.22C64.7241 12.8467 64.3908 13.3867 63.9508 13.84C63.5108 14.28 62.9841 14.62 62.3708 14.86C61.7574 15.0867 61.0708 15.2 60.3108 15.2ZM60.3108 13.3C60.8041 13.3 61.2374 13.18 61.6108 12.94C61.9841 12.7 62.2708 12.3467 62.4708 11.88C62.6841 11.4 62.7908 10.8067 62.7908 10.1C62.7908 9.03333 62.5641 8.24 62.1108 7.72C61.6574 7.18667 61.0574 6.92 60.3108 6.92C59.8174 6.92 59.3841 7.04 59.0108 7.28C58.6374 7.50667 58.3441 7.86 58.1308 8.34C57.9308 8.80667 57.8308 9.39333 57.8308 10.1C57.8308 11.1533 58.0574 11.9533 58.5108 12.5C58.9641 13.0333 59.5641 13.3 60.3108 13.3ZM70.7142 15.2C69.6076 15.2 68.7742 14.8867 68.2142 14.26C67.6542 13.62 67.3742 12.6867 67.3742 11.46V2C67.3742 1.58667 67.4809 1.27333 67.6942 1.06C67.9076 0.846666 68.2142 0.739999 68.6142 0.739999C69.0142 0.739999 69.3209 0.846666 69.5342 1.06C69.7609 1.27333 69.8742 1.58667 69.8742 2V11.34C69.8742 11.9533 70.0009 12.4067 70.2542 12.7C70.5209 12.9933 70.8942 13.14 71.3742 13.14C71.4809 13.14 71.5809 13.14 71.6742 13.14C71.7676 13.1267 71.8609 13.1133 71.9542 13.1C72.1409 13.0733 72.2676 13.1267 72.3342 13.26C72.4009 13.38 72.4342 13.6333 72.4342 14.02C72.4342 14.3533 72.3676 14.6133 72.2342 14.8C72.1009 14.9867 71.8809 15.1 71.5742 15.14C71.4409 15.1533 71.3009 15.1667 71.1542 15.18C71.0076 15.1933 70.8609 15.2 70.7142 15.2ZM77.3009 15.2C76.4876 15.2 75.8143 15.0533 75.2809 14.76C74.7476 14.4533 74.3476 14 74.0809 13.4C73.8276 12.8 73.7009 12.0533 73.7009 11.16V6.32C73.7009 5.89333 73.8076 5.58 74.0209 5.38C74.2343 5.16667 74.5409 5.06 74.9409 5.06C75.3409 5.06 75.6476 5.16667 75.8609 5.38C76.0876 5.58 76.2009 5.89333 76.2009 6.32V11.2C76.2009 11.8933 76.3409 12.4067 76.6209 12.74C76.9009 13.0733 77.3476 13.24 77.9609 13.24C78.6276 13.24 79.1743 13.0133 79.6009 12.56C80.0276 12.0933 80.2409 11.48 80.2409 10.72V6.32C80.2409 5.89333 80.3476 5.58 80.5609 5.38C80.7743 5.16667 81.0809 5.06 81.4809 5.06C81.8809 5.06 82.1876 5.16667 82.4009 5.38C82.6276 5.58 82.7409 5.89333 82.7409 6.32V13.88C82.7409 14.7333 82.3343 15.16 81.5209 15.16C81.1343 15.16 80.8343 15.0533 80.6209 14.84C80.4076 14.6133 80.3009 14.2933 80.3009 13.88V12.36L80.5809 12.96C80.3009 13.68 79.8743 14.2333 79.3009 14.62C78.7409 15.0067 78.0743 15.2 77.3009 15.2ZM86.623 15.16C86.223 15.16 85.9163 15.0533 85.703 14.84C85.4896 14.6133 85.383 14.2933 85.383 13.88V6.32C85.383 5.90667 85.4896 5.59333 85.703 5.38C85.9163 5.16667 86.2163 5.06 86.603 5.06C86.9896 5.06 87.2896 5.16667 87.503 5.38C87.7163 5.59333 87.823 5.90667 87.823 6.32V7.78L87.603 7.18C87.8696 6.51333 88.283 5.98667 88.843 5.6C89.403 5.21333 90.0696 5.02 90.843 5.02C91.6296 5.02 92.2763 5.20667 92.783 5.58C93.2896 5.95333 93.643 6.52667 93.843 7.3H93.563C93.8296 6.59333 94.2696 6.04 94.883 5.64C95.4963 5.22667 96.203 5.02 97.003 5.02C97.7496 5.02 98.363 5.16667 98.843 5.46C99.3363 5.75333 99.703 6.2 99.943 6.8C100.183 7.38667 100.303 8.13333 100.303 9.04V13.88C100.303 14.2933 100.19 14.6133 99.963 14.84C99.7496 15.0533 99.443 15.16 99.043 15.16C98.643 15.16 98.3363 15.0533 98.123 14.84C97.9096 14.6133 97.803 14.2933 97.803 13.88V9.14C97.803 8.39333 97.6763 7.84667 97.423 7.5C97.183 7.15333 96.7696 6.98 96.183 6.98C95.5296 6.98 95.0163 7.21333 94.643 7.68C94.2696 8.13333 94.083 8.76667 94.083 9.58V13.88C94.083 14.2933 93.9763 14.6133 93.763 14.84C93.5496 15.0533 93.243 15.16 92.843 15.16C92.443 15.16 92.1296 15.0533 91.903 14.84C91.6896 14.6133 91.583 14.2933 91.583 13.88V9.14C91.583 8.39333 91.4563 7.84667 91.203 7.5C90.963 7.15333 90.5563 6.98 89.983 6.98C89.3296 6.98 88.8163 7.21333 88.443 7.68C88.0696 8.13333 87.883 8.76667 87.883 9.58V13.88C87.883 14.7333 87.463 15.16 86.623 15.16ZM107.702 15.2C106.595 15.2 105.642 14.9933 104.842 14.58C104.042 14.1667 103.422 13.58 102.982 12.82C102.555 12.06 102.342 11.16 102.342 10.12C102.342 9.10667 102.549 8.22 102.962 7.46C103.389 6.7 103.969 6.10667 104.702 5.68C105.449 5.24 106.295 5.02 107.242 5.02C107.935 5.02 108.555 5.13333 109.102 5.36C109.662 5.58667 110.135 5.91333 110.522 6.34C110.922 6.76667 111.222 7.28667 111.422 7.9C111.635 8.5 111.742 9.18 111.742 9.94C111.742 10.18 111.655 10.3667 111.482 10.5C111.322 10.62 111.089 10.68 110.782 10.68H104.362V9.24H109.982L109.662 9.54C109.662 8.92667 109.569 8.41333 109.382 8C109.209 7.58667 108.949 7.27333 108.602 7.06C108.269 6.83333 107.849 6.72 107.342 6.72C106.782 6.72 106.302 6.85333 105.902 7.12C105.515 7.37333 105.215 7.74 105.002 8.22C104.802 8.68667 104.702 9.24667 104.702 9.9V10.04C104.702 11.1333 104.955 11.9533 105.462 12.5C105.982 13.0333 106.742 13.3 107.742 13.3C108.089 13.3 108.475 13.26 108.902 13.18C109.342 13.0867 109.755 12.9333 110.142 12.72C110.422 12.56 110.669 12.4933 110.882 12.52C111.095 12.5333 111.262 12.6067 111.382 12.74C111.515 12.8733 111.595 13.04 111.622 13.24C111.649 13.4267 111.609 13.62 111.502 13.82C111.409 14.02 111.242 14.1933 111.002 14.34C110.535 14.6333 109.995 14.8533 109.382 15C108.782 15.1333 108.222 15.2 107.702 15.2ZM123.612 15.2C122.598 15.2 121.718 14.9933 120.972 14.58C120.225 14.1667 119.645 13.58 119.232 12.82C118.818 12.0467 118.612 11.14 118.612 10.1C118.612 9.31333 118.725 8.61333 118.952 8C119.192 7.37333 119.532 6.84 119.972 6.4C120.412 5.94667 120.938 5.60667 121.552 5.38C122.165 5.14 122.852 5.02 123.612 5.02C124.625 5.02 125.505 5.22667 126.252 5.64C126.998 6.05333 127.578 6.64 127.992 7.4C128.405 8.16 128.612 9.06 128.612 10.1C128.612 10.8867 128.492 11.5933 128.252 12.22C128.025 12.8467 127.692 13.3867 127.252 13.84C126.812 14.28 126.285 14.62 125.672 14.86C125.058 15.0867 124.372 15.2 123.612 15.2ZM123.612 13.3C124.105 13.3 124.538 13.18 124.912 12.94C125.285 12.7 125.572 12.3467 125.772 11.88C125.985 11.4 126.092 10.8067 126.092 10.1C126.092 9.03333 125.865 8.24 125.412 7.72C124.958 7.18667 124.358 6.92 123.612 6.92C123.118 6.92 122.685 7.04 122.312 7.28C121.938 7.50667 121.645 7.86 121.432 8.34C121.232 8.80667 121.132 9.39333 121.132 10.1C121.132 11.1533 121.358 11.9533 121.812 12.5C122.265 13.0333 122.865 13.3 123.612 13.3ZM132.497 15.16C132.097 15.16 131.784 15.0533 131.557 14.84C131.344 14.6133 131.237 14.2933 131.237 13.88V7.1H130.317C129.997 7.1 129.751 7.02 129.577 6.86C129.404 6.68667 129.317 6.45333 129.317 6.16C129.317 5.85333 129.404 5.62 129.577 5.46C129.751 5.3 129.997 5.22 130.317 5.22H131.957L131.237 5.88V5.2C131.237 3.82667 131.584 2.8 132.277 2.12C132.971 1.42667 133.971 1.02 135.277 0.899999L135.957 0.84C136.224 0.813333 136.437 0.859999 136.597 0.979999C136.757 1.08667 136.864 1.23333 136.917 1.42C136.971 1.59333 136.977 1.77333 136.937 1.96C136.897 2.14667 136.811 2.31333 136.677 2.46C136.557 2.59333 136.397 2.66667 136.197 2.68L135.917 2.7C135.157 2.75333 134.604 2.94667 134.257 3.28C133.911 3.61333 133.737 4.12 133.737 4.8V5.54L133.417 5.22H135.437C135.757 5.22 136.004 5.3 136.177 5.46C136.351 5.62 136.437 5.85333 136.437 6.16C136.437 6.45333 136.351 6.68667 136.177 6.86C136.004 7.02 135.757 7.1 135.437 7.1H133.737V13.88C133.737 14.7333 133.324 15.16 132.497 15.16ZM147.812 15.2C146.786 15.2 145.892 14.9933 145.132 14.58C144.372 14.1533 143.786 13.5533 143.372 12.78C142.959 12.0067 142.752 11.1 142.752 10.06C142.752 9.27333 142.866 8.57333 143.092 7.96C143.332 7.33333 143.672 6.80667 144.112 6.38C144.552 5.94 145.086 5.60667 145.712 5.38C146.339 5.14 147.039 5.02 147.812 5.02C148.252 5.02 148.726 5.08 149.232 5.2C149.752 5.32 150.239 5.52 150.692 5.8C150.906 5.93333 151.046 6.09333 151.112 6.28C151.179 6.46667 151.192 6.66 151.152 6.86C151.112 7.04667 151.026 7.21333 150.892 7.36C150.772 7.49333 150.619 7.58 150.432 7.62C150.246 7.64667 150.039 7.6 149.812 7.48C149.519 7.30667 149.219 7.18 148.912 7.1C148.606 7.00667 148.312 6.96 148.032 6.96C147.592 6.96 147.206 7.03333 146.872 7.18C146.539 7.31333 146.252 7.51333 146.012 7.78C145.786 8.03333 145.612 8.35333 145.492 8.74C145.372 9.12667 145.312 9.57333 145.312 10.08C145.312 11.0667 145.546 11.8467 146.012 12.42C146.492 12.98 147.166 13.26 148.032 13.26C148.312 13.26 148.599 13.22 148.892 13.14C149.199 13.06 149.506 12.9333 149.812 12.76C150.039 12.64 150.239 12.6 150.412 12.64C150.599 12.68 150.752 12.7733 150.872 12.92C150.992 13.0533 151.066 13.22 151.092 13.42C151.119 13.6067 151.092 13.7933 151.012 13.98C150.946 14.1667 150.812 14.32 150.612 14.44C150.172 14.7067 149.706 14.9 149.212 15.02C148.719 15.14 148.252 15.2 147.812 15.2ZM156.99 15.2C155.977 15.2 155.097 14.9933 154.35 14.58C153.604 14.1667 153.024 13.58 152.61 12.82C152.197 12.0467 151.99 11.14 151.99 10.1C151.99 9.31333 152.104 8.61333 152.33 8C152.57 7.37333 152.91 6.84 153.35 6.4C153.79 5.94667 154.317 5.60667 154.93 5.38C155.544 5.14 156.23 5.02 156.99 5.02C158.004 5.02 158.884 5.22667 159.63 5.64C160.377 6.05333 160.957 6.64 161.37 7.4C161.784 8.16 161.99 9.06 161.99 10.1C161.99 10.8867 161.87 11.5933 161.63 12.22C161.404 12.8467 161.07 13.3867 160.63 13.84C160.19 14.28 159.664 14.62 159.05 14.86C158.437 15.0867 157.75 15.2 156.99 15.2ZM156.99 13.3C157.484 13.3 157.917 13.18 158.29 12.94C158.664 12.7 158.95 12.3467 159.15 11.88C159.364 11.4 159.47 10.8067 159.47 10.1C159.47 9.03333 159.244 8.24 158.79 7.72C158.337 7.18667 157.737 6.92 156.99 6.92C156.497 6.92 156.064 7.04 155.69 7.28C155.317 7.50667 155.024 7.86 154.81 8.34C154.61 8.80667 154.51 9.39333 154.51 10.1C154.51 11.1533 154.737 11.9533 155.19 12.5C155.644 13.0333 156.244 13.3 156.99 13.3ZM165.294 15.16C164.894 15.16 164.587 15.0533 164.374 14.84C164.161 14.6133 164.054 14.2933 164.054 13.88V6.32C164.054 5.90667 164.161 5.59333 164.374 5.38C164.587 5.16667 164.887 5.06 165.274 5.06C165.661 5.06 165.961 5.16667 166.174 5.38C166.387 5.59333 166.494 5.90667 166.494 6.32V7.68L166.274 7.18C166.567 6.47333 167.021 5.94 167.634 5.58C168.261 5.20667 168.967 5.02 169.754 5.02C170.541 5.02 171.187 5.16667 171.694 5.46C172.201 5.75333 172.581 6.2 172.834 6.8C173.087 7.38667 173.214 8.13333 173.214 9.04V13.88C173.214 14.2933 173.107 14.6133 172.894 14.84C172.681 15.0533 172.374 15.16 171.974 15.16C171.574 15.16 171.261 15.0533 171.034 14.84C170.821 14.6133 170.714 14.2933 170.714 13.88V9.16C170.714 8.4 170.567 7.84667 170.274 7.5C169.994 7.15333 169.554 6.98 168.954 6.98C168.221 6.98 167.634 7.21333 167.194 7.68C166.767 8.13333 166.554 8.74 166.554 9.5V13.88C166.554 14.7333 166.134 15.16 165.294 15.16ZM180.573 15.2C179.466 15.2 178.513 14.9933 177.713 14.58C176.913 14.1667 176.293 13.58 175.853 12.82C175.426 12.06 175.213 11.16 175.213 10.12C175.213 9.10667 175.42 8.22 175.833 7.46C176.26 6.7 176.84 6.10667 177.573 5.68C178.32 5.24 179.166 5.02 180.113 5.02C180.806 5.02 181.426 5.13333 181.973 5.36C182.533 5.58667 183.006 5.91333 183.393 6.34C183.793 6.76667 184.093 7.28667 184.293 7.9C184.506 8.5 184.613 9.18 184.613 9.94C184.613 10.18 184.526 10.3667 184.353 10.5C184.193 10.62 183.96 10.68 183.653 10.68H177.233V9.24H182.853L182.533 9.54C182.533 8.92667 182.44 8.41333 182.253 8C182.08 7.58667 181.82 7.27333 181.473 7.06C181.14 6.83333 180.72 6.72 180.213 6.72C179.653 6.72 179.173 6.85333 178.773 7.12C178.386 7.37333 178.086 7.74 177.873 8.22C177.673 8.68667 177.573 9.24667 177.573 9.9V10.04C177.573 11.1333 177.826 11.9533 178.333 12.5C178.853 13.0333 179.613 13.3 180.613 13.3C180.96 13.3 181.346 13.26 181.773 13.18C182.213 13.0867 182.626 12.9333 183.013 12.72C183.293 12.56 183.54 12.4933 183.753 12.52C183.966 12.5333 184.133 12.6067 184.253 12.74C184.386 12.8733 184.466 13.04 184.493 13.24C184.52 13.4267 184.48 13.62 184.373 13.82C184.28 14.02 184.113 14.1933 183.873 14.34C183.406 14.6333 182.866 14.8533 182.253 15C181.653 15.1333 181.093 15.2 180.573 15.2ZM187.918 18.26C187.771 18.5 187.571 18.6467 187.318 18.7C187.078 18.7667 186.844 18.7467 186.618 18.64C186.391 18.5467 186.224 18.38 186.118 18.14C186.024 17.9 186.044 17.5933 186.178 17.22C186.511 16.3533 186.778 15.5133 186.978 14.7C187.178 13.8867 187.324 13.0733 187.418 12.26C187.524 11.4467 187.578 10.6067 187.578 9.74C187.578 8.87333 187.524 8.03333 187.418 7.22C187.311 6.40667 187.151 5.59333 186.938 4.78C186.738 3.96667 186.484 3.12667 186.178 2.26C186.044 1.88667 186.031 1.58 186.138 1.34C186.244 1.08667 186.411 0.913333 186.638 0.819999C186.864 0.726666 187.098 0.713333 187.338 0.779999C187.578 0.833333 187.771 0.98 187.918 1.22C188.731 2.51333 189.324 3.88667 189.698 5.34C190.071 6.79333 190.258 8.26 190.258 9.74C190.258 10.7267 190.171 11.7067 189.998 12.68C189.838 13.6533 189.584 14.6067 189.238 15.54C188.904 16.4867 188.464 17.3933 187.918 18.26ZM199.555 8.14C199.275 8.14 199.055 8.06667 198.895 7.92C198.735 7.76 198.655 7.54 198.655 7.26C198.655 6.98 198.735 6.76667 198.895 6.62C199.055 6.46 199.275 6.38 199.555 6.38H207.835C208.129 6.38 208.349 6.46 208.495 6.62C208.655 6.76667 208.735 6.98 208.735 7.26C208.735 7.54 208.655 7.76 208.495 7.92C208.349 8.06667 208.129 8.14 207.835 8.14H199.555ZM199.555 12.12C199.275 12.12 199.055 12.0467 198.895 11.9C198.735 11.74 198.655 11.52 198.655 11.24C198.655 10.96 198.735 10.7467 198.895 10.6C199.055 10.4533 199.275 10.38 199.555 10.38H207.835C208.129 10.38 208.349 10.4533 208.495 10.6C208.655 10.7467 208.735 10.96 208.735 11.24C208.735 11.5333 208.655 11.7533 208.495 11.9C208.349 12.0467 208.129 12.12 207.835 12.12H199.555ZM222.257 15.16C221.897 15.16 221.597 15.08 221.357 14.92C221.131 14.7467 220.944 14.4933 220.797 14.16L215.577 2.44C215.431 2.10667 215.391 1.81333 215.457 1.56C215.524 1.30667 215.664 1.10667 215.877 0.96C216.091 0.813332 216.344 0.739999 216.637 0.739999C217.024 0.739999 217.311 0.826666 217.497 0.999999C217.697 1.16 217.864 1.40667 217.997 1.74L222.737 12.72H221.877L226.597 1.72C226.744 1.4 226.917 1.16 227.117 0.999999C227.317 0.826666 227.597 0.739999 227.957 0.739999C228.251 0.739999 228.491 0.813332 228.677 0.96C228.877 1.10667 229.004 1.30667 229.057 1.56C229.111 1.81333 229.064 2.10667 228.917 2.44L223.697 14.16C223.551 14.4933 223.364 14.7467 223.137 14.92C222.924 15.08 222.631 15.16 222.257 15.16ZM233.885 15.2C232.872 15.2 231.992 14.9933 231.245 14.58C230.498 14.1667 229.918 13.58 229.505 12.82C229.092 12.0467 228.885 11.14 228.885 10.1C228.885 9.31333 228.998 8.61333 229.225 8C229.465 7.37333 229.805 6.84 230.245 6.4C230.685 5.94667 231.212 5.60667 231.825 5.38C232.438 5.14 233.125 5.02 233.885 5.02C234.898 5.02 235.778 5.22667 236.525 5.64C237.272 6.05333 237.852 6.64 238.265 7.4C238.678 8.16 238.885 9.06 238.885 10.1C238.885 10.8867 238.765 11.5933 238.525 12.22C238.298 12.8467 237.965 13.3867 237.525 13.84C237.085 14.28 236.558 14.62 235.945 14.86C235.332 15.0867 234.645 15.2 233.885 15.2ZM233.885 13.3C234.378 13.3 234.812 13.18 235.185 12.94C235.558 12.7 235.845 12.3467 236.045 11.88C236.258 11.4 236.365 10.8067 236.365 10.1C236.365 9.03333 236.138 8.24 235.685 7.72C235.232 7.18667 234.632 6.92 233.885 6.92C233.392 6.92 232.958 7.04 232.585 7.28C232.212 7.50667 231.918 7.86 231.705 8.34C231.505 8.80667 231.405 9.39333 231.405 10.1C231.405 11.1533 231.632 11.9533 232.085 12.5C232.538 13.0333 233.138 13.3 233.885 13.3ZM244.288 15.2C243.182 15.2 242.348 14.8867 241.788 14.26C241.228 13.62 240.948 12.6867 240.948 11.46V2C240.948 1.58667 241.055 1.27333 241.268 1.06C241.482 0.846666 241.788 0.739999 242.188 0.739999C242.588 0.739999 242.895 0.846666 243.108 1.06C243.335 1.27333 243.448 1.58667 243.448 2V11.34C243.448 11.9533 243.575 12.4067 243.828 12.7C244.095 12.9933 244.468 13.14 244.948 13.14C245.055 13.14 245.155 13.14 245.248 13.14C245.342 13.1267 245.435 13.1133 245.528 13.1C245.715 13.0733 245.842 13.1267 245.908 13.26C245.975 13.38 246.008 13.6333 246.008 14.02C246.008 14.3533 245.942 14.6133 245.808 14.8C245.675 14.9867 245.455 15.1 245.148 15.14C245.015 15.1533 244.875 15.1667 244.728 15.18C244.582 15.1933 244.435 15.2 244.288 15.2ZM250.875 15.2C250.062 15.2 249.388 15.0533 248.855 14.76C248.322 14.4533 247.922 14 247.655 13.4C247.402 12.8 247.275 12.0533 247.275 11.16V6.32C247.275 5.89333 247.382 5.58 247.595 5.38C247.808 5.16667 248.115 5.06 248.515 5.06C248.915 5.06 249.222 5.16667 249.435 5.38C249.662 5.58 249.775 5.89333 249.775 6.32V11.2C249.775 11.8933 249.915 12.4067 250.195 12.74C250.475 13.0733 250.922 13.24 251.535 13.24C252.202 13.24 252.748 13.0133 253.175 12.56C253.602 12.0933 253.815 11.48 253.815 10.72V6.32C253.815 5.89333 253.922 5.58 254.135 5.38C254.348 5.16667 254.655 5.06 255.055 5.06C255.455 5.06 255.762 5.16667 255.975 5.38C256.202 5.58 256.315 5.89333 256.315 6.32V13.88C256.315 14.7333 255.908 15.16 255.095 15.16C254.708 15.16 254.408 15.0533 254.195 14.84C253.982 14.6133 253.875 14.2933 253.875 13.88V12.36L254.155 12.96C253.875 13.68 253.448 14.2333 252.875 14.62C252.315 15.0067 251.648 15.2 250.875 15.2ZM260.197 15.16C259.797 15.16 259.491 15.0533 259.277 14.84C259.064 14.6133 258.957 14.2933 258.957 13.88V6.32C258.957 5.90667 259.064 5.59333 259.277 5.38C259.491 5.16667 259.791 5.06 260.177 5.06C260.564 5.06 260.864 5.16667 261.077 5.38C261.291 5.59333 261.397 5.90667 261.397 6.32V7.78L261.177 7.18C261.444 6.51333 261.857 5.98667 262.417 5.6C262.977 5.21333 263.644 5.02 264.417 5.02C265.204 5.02 265.851 5.20667 266.357 5.58C266.864 5.95333 267.217 6.52667 267.417 7.3H267.137C267.404 6.59333 267.844 6.04 268.457 5.64C269.071 5.22667 269.777 5.02 270.577 5.02C271.324 5.02 271.937 5.16667 272.417 5.46C272.911 5.75333 273.277 6.2 273.517 6.8C273.757 7.38667 273.877 8.13333 273.877 9.04V13.88C273.877 14.2933 273.764 14.6133 273.537 14.84C273.324 15.0533 273.017 15.16 272.617 15.16C272.217 15.16 271.911 15.0533 271.697 14.84C271.484 14.6133 271.377 14.2933 271.377 13.88V9.14C271.377 8.39333 271.251 7.84667 270.997 7.5C270.757 7.15333 270.344 6.98 269.757 6.98C269.104 6.98 268.591 7.21333 268.217 7.68C267.844 8.13333 267.657 8.76667 267.657 9.58V13.88C267.657 14.2933 267.551 14.6133 267.337 14.84C267.124 15.0533 266.817 15.16 266.417 15.16C266.017 15.16 265.704 15.0533 265.477 14.84C265.264 14.6133 265.157 14.2933 265.157 13.88V9.14C265.157 8.39333 265.031 7.84667 264.777 7.5C264.537 7.15333 264.131 6.98 263.557 6.98C262.904 6.98 262.391 7.21333 262.017 7.68C261.644 8.13333 261.457 8.76667 261.457 9.58V13.88C261.457 14.7333 261.037 15.16 260.197 15.16ZM281.276 15.2C280.17 15.2 279.216 14.9933 278.416 14.58C277.616 14.1667 276.996 13.58 276.556 12.82C276.13 12.06 275.916 11.16 275.916 10.12C275.916 9.10667 276.123 8.22 276.536 7.46C276.963 6.7 277.543 6.10667 278.276 5.68C279.023 5.24 279.87 5.02 280.816 5.02C281.51 5.02 282.13 5.13333 282.676 5.36C283.236 5.58667 283.71 5.91333 284.096 6.34C284.496 6.76667 284.796 7.28667 284.996 7.9C285.21 8.5 285.316 9.18 285.316 9.94C285.316 10.18 285.23 10.3667 285.056 10.5C284.896 10.62 284.663 10.68 284.356 10.68H277.936V9.24H283.556L283.236 9.54C283.236 8.92667 283.143 8.41333 282.956 8C282.783 7.58667 282.523 7.27333 282.176 7.06C281.843 6.83333 281.423 6.72 280.916 6.72C280.356 6.72 279.876 6.85333 279.476 7.12C279.09 7.37333 278.79 7.74 278.576 8.22C278.376 8.68667 278.276 9.24667 278.276 9.9V10.04C278.276 11.1333 278.53 11.9533 279.036 12.5C279.556 13.0333 280.316 13.3 281.316 13.3C281.663 13.3 282.05 13.26 282.476 13.18C282.916 13.0867 283.33 12.9333 283.716 12.72C283.996 12.56 284.243 12.4933 284.456 12.52C284.67 12.5333 284.836 12.6067 284.956 12.74C285.09 12.8733 285.17 13.04 285.196 13.24C285.223 13.4267 285.183 13.62 285.076 13.82C284.983 14.02 284.816 14.1933 284.576 14.34C284.11 14.6333 283.57 14.8533 282.956 15C282.356 15.1333 281.796 15.2 281.276 15.2ZM297.186 15.2C296.172 15.2 295.292 14.9933 294.546 14.58C293.799 14.1667 293.219 13.58 292.806 12.82C292.392 12.0467 292.186 11.14 292.186 10.1C292.186 9.31333 292.299 8.61333 292.526 8C292.766 7.37333 293.106 6.84 293.546 6.4C293.986 5.94667 294.512 5.60667 295.126 5.38C295.739 5.14 296.426 5.02 297.186 5.02C298.199 5.02 299.079 5.22667 299.826 5.64C300.572 6.05333 301.152 6.64 301.566 7.4C301.979 8.16 302.186 9.06 302.186 10.1C302.186 10.8867 302.066 11.5933 301.826 12.22C301.599 12.8467 301.266 13.3867 300.826 13.84C300.386 14.28 299.859 14.62 299.246 14.86C298.632 15.0867 297.946 15.2 297.186 15.2ZM297.186 13.3C297.679 13.3 298.112 13.18 298.486 12.94C298.859 12.7 299.146 12.3467 299.346 11.88C299.559 11.4 299.666 10.8067 299.666 10.1C299.666 9.03333 299.439 8.24 298.986 7.72C298.532 7.18667 297.932 6.92 297.186 6.92C296.692 6.92 296.259 7.04 295.886 7.28C295.512 7.50667 295.219 7.86 295.006 8.34C294.806 8.80667 294.706 9.39333 294.706 10.1C294.706 11.1533 294.932 11.9533 295.386 12.5C295.839 13.0333 296.439 13.3 297.186 13.3ZM306.072 15.16C305.672 15.16 305.358 15.0533 305.132 14.84C304.918 14.6133 304.812 14.2933 304.812 13.88V7.1H303.892C303.572 7.1 303.325 7.02 303.152 6.86C302.978 6.68667 302.892 6.45333 302.892 6.16C302.892 5.85333 302.978 5.62 303.152 5.46C303.325 5.3 303.572 5.22 303.892 5.22H305.532L304.812 5.88V5.2C304.812 3.82667 305.158 2.8 305.852 2.12C306.545 1.42667 307.545 1.02 308.852 0.899999L309.532 0.84C309.798 0.813333 310.012 0.859999 310.172 0.979999C310.332 1.08667 310.438 1.23333 310.492 1.42C310.545 1.59333 310.552 1.77333 310.512 1.96C310.472 2.14667 310.385 2.31333 310.252 2.46C310.132 2.59333 309.972 2.66667 309.772 2.68L309.492 2.7C308.732 2.75333 308.178 2.94667 307.832 3.28C307.485 3.61333 307.312 4.12 307.312 4.8V5.54L306.992 5.22H309.012C309.332 5.22 309.578 5.3 309.752 5.46C309.925 5.62 310.012 5.85333 310.012 6.16C310.012 6.45333 309.925 6.68667 309.752 6.86C309.578 7.02 309.332 7.1 309.012 7.1H307.312V13.88C307.312 14.7333 306.898 15.16 306.072 15.16ZM321.386 15.2C320.36 15.2 319.466 14.9933 318.706 14.58C317.946 14.1533 317.36 13.5533 316.946 12.78C316.533 12.0067 316.326 11.1 316.326 10.06C316.326 9.27333 316.44 8.57333 316.666 7.96C316.906 7.33333 317.246 6.80667 317.686 6.38C318.126 5.94 318.66 5.60667 319.286 5.38C319.913 5.14 320.613 5.02 321.386 5.02C321.826 5.02 322.3 5.08 322.806 5.2C323.326 5.32 323.813 5.52 324.266 5.8C324.48 5.93333 324.62 6.09333 324.686 6.28C324.753 6.46667 324.766 6.66 324.726 6.86C324.686 7.04667 324.6 7.21333 324.466 7.36C324.346 7.49333 324.193 7.58 324.006 7.62C323.82 7.64667 323.613 7.6 323.386 7.48C323.093 7.30667 322.793 7.18 322.486 7.1C322.18 7.00667 321.886 6.96 321.606 6.96C321.166 6.96 320.78 7.03333 320.446 7.18C320.113 7.31333 319.826 7.51333 319.586 7.78C319.36 8.03333 319.186 8.35333 319.066 8.74C318.946 9.12667 318.886 9.57333 318.886 10.08C318.886 11.0667 319.12 11.8467 319.586 12.42C320.066 12.98 320.74 13.26 321.606 13.26C321.886 13.26 322.173 13.22 322.466 13.14C322.773 13.06 323.08 12.9333 323.386 12.76C323.613 12.64 323.813 12.6 323.986 12.64C324.173 12.68 324.326 12.7733 324.446 12.92C324.566 13.0533 324.64 13.22 324.666 13.42C324.693 13.6067 324.666 13.7933 324.586 13.98C324.52 14.1667 324.386 14.32 324.186 14.44C323.746 14.7067 323.28 14.9 322.786 15.02C322.293 15.14 321.826 15.2 321.386 15.2ZM328.936 18.76C328.643 18.76 328.403 18.68 328.216 18.52C328.03 18.3733 327.916 18.1733 327.876 17.92C327.85 17.6667 327.896 17.4 328.016 17.12L329.376 14.1V15.14L325.736 6.72C325.616 6.42667 325.576 6.15333 325.616 5.9C325.656 5.64667 325.776 5.44667 325.976 5.3C326.19 5.14 326.476 5.06 326.836 5.06C327.143 5.06 327.39 5.13333 327.576 5.28C327.763 5.41333 327.93 5.67333 328.076 6.06L330.776 12.8H330.176L332.936 6.04C333.083 5.66667 333.256 5.41333 333.456 5.28C333.656 5.13333 333.923 5.06 334.256 5.06C334.55 5.06 334.783 5.14 334.956 5.3C335.13 5.44667 335.236 5.64667 335.276 5.9C335.316 6.14 335.27 6.40667 335.136 6.7L330.276 17.8C330.103 18.1733 329.916 18.4267 329.716 18.56C329.516 18.6933 329.256 18.76 328.936 18.76ZM340.324 15.2C339.217 15.2 338.384 14.8867 337.824 14.26C337.264 13.62 336.984 12.6867 336.984 11.46V2C336.984 1.58667 337.09 1.27333 337.304 1.06C337.517 0.846666 337.824 0.739999 338.224 0.739999C338.624 0.739999 338.93 0.846666 339.144 1.06C339.37 1.27333 339.484 1.58667 339.484 2V11.34C339.484 11.9533 339.61 12.4067 339.864 12.7C340.13 12.9933 340.504 13.14 340.984 13.14C341.09 13.14 341.19 13.14 341.284 13.14C341.377 13.1267 341.47 13.1133 341.564 13.1C341.75 13.0733 341.877 13.1267 341.944 13.26C342.01 13.38 342.044 13.6333 342.044 14.02C342.044 14.3533 341.977 14.6133 341.844 14.8C341.71 14.9867 341.49 15.1 341.184 15.14C341.05 15.1533 340.91 15.1667 340.764 15.18C340.617 15.1933 340.47 15.2 340.324 15.2ZM344.61 15.14C344.21 15.14 343.904 15.02 343.69 14.78C343.477 14.54 343.37 14.2067 343.37 13.78V6.44C343.37 6 343.477 5.66667 343.69 5.44C343.904 5.2 344.21 5.08 344.61 5.08C345.01 5.08 345.317 5.2 345.53 5.44C345.757 5.66667 345.87 6 345.87 6.44V13.78C345.87 14.2067 345.764 14.54 345.55 14.78C345.337 15.02 345.024 15.14 344.61 15.14ZM344.61 3.22C344.144 3.22 343.777 3.10667 343.51 2.88C343.257 2.64 343.13 2.31333 343.13 1.9C343.13 1.47333 343.257 1.14667 343.51 0.919999C343.777 0.693333 344.144 0.58 344.61 0.58C345.09 0.58 345.457 0.693333 345.71 0.919999C345.964 1.14667 346.09 1.47333 346.09 1.9C346.09 2.31333 345.964 2.64 345.71 2.88C345.457 3.10667 345.09 3.22 344.61 3.22ZM349.708 15.16C349.308 15.16 349.001 15.0533 348.788 14.84C348.575 14.6133 348.468 14.2933 348.468 13.88V6.32C348.468 5.90667 348.575 5.59333 348.788 5.38C349.001 5.16667 349.301 5.06 349.688 5.06C350.075 5.06 350.375 5.16667 350.588 5.38C350.801 5.59333 350.908 5.90667 350.908 6.32V7.68L350.688 7.18C350.981 6.47333 351.435 5.94 352.048 5.58C352.675 5.20667 353.381 5.02 354.168 5.02C354.955 5.02 355.601 5.16667 356.108 5.46C356.615 5.75333 356.995 6.2 357.248 6.8C357.501 7.38667 357.628 8.13333 357.628 9.04V13.88C357.628 14.2933 357.521 14.6133 357.308 14.84C357.095 15.0533 356.788 15.16 356.388 15.16C355.988 15.16 355.675 15.0533 355.448 14.84C355.235 14.6133 355.128 14.2933 355.128 13.88V9.16C355.128 8.4 354.981 7.84667 354.688 7.5C354.408 7.15333 353.968 6.98 353.368 6.98C352.635 6.98 352.048 7.21333 351.608 7.68C351.181 8.13333 350.968 8.74 350.968 9.5V13.88C350.968 14.7333 350.548 15.16 349.708 15.16ZM363.927 15.2C363.074 15.2 362.321 14.9933 361.667 14.58C361.027 14.1667 360.527 13.58 360.167 12.82C359.807 12.0467 359.627 11.14 359.627 10.1C359.627 9.04667 359.807 8.14667 360.167 7.4C360.527 6.64 361.027 6.05333 361.667 5.64C362.321 5.22667 363.074 5.02 363.927 5.02C364.741 5.02 365.447 5.22 366.047 5.62C366.661 6.02 367.074 6.54667 367.287 7.2H367.067V2C367.067 1.58667 367.174 1.27333 367.387 1.06C367.601 0.846666 367.907 0.739999 368.307 0.739999C368.707 0.739999 369.014 0.846666 369.227 1.06C369.454 1.27333 369.567 1.58667 369.567 2V13.88C369.567 14.2933 369.461 14.6133 369.247 14.84C369.034 15.0533 368.727 15.16 368.327 15.16C367.927 15.16 367.621 15.0533 367.407 14.84C367.194 14.6133 367.087 14.2933 367.087 13.88V12.32L367.307 12.92C367.107 13.6133 366.701 14.1667 366.087 14.58C365.474 14.9933 364.754 15.2 363.927 15.2ZM364.627 13.3C365.121 13.3 365.554 13.18 365.927 12.94C366.301 12.7 366.587 12.3467 366.787 11.88C367.001 11.4 367.107 10.8067 367.107 10.1C367.107 9.03333 366.881 8.24 366.427 7.72C365.974 7.18667 365.374 6.92 364.627 6.92C364.134 6.92 363.701 7.04 363.327 7.28C362.954 7.50667 362.661 7.86 362.447 8.34C362.247 8.80667 362.147 9.39333 362.147 10.1C362.147 11.1533 362.374 11.9533 362.827 12.5C363.281 13.0333 363.881 13.3 364.627 13.3ZM376.979 15.2C375.873 15.2 374.919 14.9933 374.119 14.58C373.319 14.1667 372.699 13.58 372.259 12.82C371.833 12.06 371.619 11.16 371.619 10.12C371.619 9.10667 371.826 8.22 372.239 7.46C372.666 6.7 373.246 6.10667 373.979 5.68C374.726 5.24 375.573 5.02 376.519 5.02C377.213 5.02 377.833 5.13333 378.379 5.36C378.939 5.58667 379.413 5.91333 379.799 6.34C380.199 6.76667 380.499 7.28667 380.699 7.9C380.913 8.5 381.019 9.18 381.019 9.94C381.019 10.18 380.933 10.3667 380.759 10.5C380.599 10.62 380.366 10.68 380.059 10.68H373.639V9.24H379.259L378.939 9.54C378.939 8.92667 378.846 8.41333 378.659 8C378.486 7.58667 378.226 7.27333 377.879 7.06C377.546 6.83333 377.126 6.72 376.619 6.72C376.059 6.72 375.579 6.85333 375.179 7.12C374.793 7.37333 374.493 7.74 374.279 8.22C374.079 8.68667 373.979 9.24667 373.979 9.9V10.04C373.979 11.1333 374.233 11.9533 374.739 12.5C375.259 13.0333 376.019 13.3 377.019 13.3C377.366 13.3 377.753 13.26 378.179 13.18C378.619 13.0867 379.033 12.9333 379.419 12.72C379.699 12.56 379.946 12.4933 380.159 12.52C380.373 12.5333 380.539 12.6067 380.659 12.74C380.793 12.8733 380.873 13.04 380.899 13.24C380.926 13.4267 380.886 13.62 380.779 13.82C380.686 14.02 380.519 14.1933 380.279 14.34C379.813 14.6333 379.273 14.8533 378.659 15C378.059 15.1333 377.499 15.2 376.979 15.2ZM384.279 15.16C383.866 15.16 383.546 15.0533 383.319 14.84C383.106 14.6133 382.999 14.2933 382.999 13.88V6.32C382.999 5.90667 383.106 5.59333 383.319 5.38C383.533 5.16667 383.833 5.06 384.219 5.06C384.606 5.06 384.906 5.16667 385.119 5.38C385.333 5.59333 385.439 5.90667 385.439 6.32V7.58H385.239C385.426 6.78 385.793 6.17333 386.339 5.76C386.886 5.34667 387.613 5.1 388.519 5.02C388.799 4.99333 389.019 5.06667 389.179 5.24C389.353 5.4 389.453 5.65333 389.479 6C389.506 6.33333 389.426 6.60667 389.239 6.82C389.066 7.02 388.799 7.14 388.439 7.18L387.999 7.22C387.186 7.3 386.573 7.55333 386.159 7.98C385.746 8.39333 385.539 8.98 385.539 9.74V13.88C385.539 14.2933 385.433 14.6133 385.219 14.84C385.006 15.0533 384.693 15.16 384.279 15.16Z" fill="#646464"/>
</svg>
