<svg width="680" height="427" viewBox="0 0 680 427" fill="none" xmlns="http://www.w3.org/2000/svg">
<g clip-path="url(#clip0_1638_1079)">
<rect x="135" y="398" width="136" height="28" rx="5" fill="#444444"/>
<path d="M143.124 419.12C142.738 419.12 142.424 419 142.184 418.76C141.958 418.52 141.844 418.207 141.844 417.82V406.12C141.844 405.733 141.951 405.433 142.164 405.22C142.391 405.007 142.698 404.9 143.084 404.9H150.104C150.918 404.9 151.324 405.247 151.324 405.94C151.324 406.62 150.918 406.96 150.104 406.96H144.384V410.8H149.704C150.518 410.8 150.924 411.147 150.924 411.84C150.924 412.52 150.518 412.86 149.704 412.86H144.384V417.82C144.384 418.207 144.271 418.52 144.044 418.76C143.818 419 143.511 419.12 143.124 419.12ZM154.192 419.12C153.832 419.12 153.532 419.02 153.292 418.82C153.066 418.607 152.952 418.307 152.952 417.92V410.2C152.952 409.813 153.066 409.52 153.292 409.32C153.532 409.12 153.832 409.02 154.192 409.02C154.552 409.02 154.852 409.12 155.092 409.32C155.332 409.52 155.452 409.813 155.452 410.2V417.92C155.452 418.307 155.332 418.607 155.092 418.82C154.852 419.02 154.552 419.12 154.192 419.12ZM154.192 407.24C153.739 407.24 153.379 407.12 153.112 406.88C152.846 406.627 152.712 406.3 152.712 405.9C152.712 405.5 152.846 405.18 153.112 404.94C153.379 404.7 153.739 404.58 154.192 404.58C154.632 404.58 154.986 404.7 155.252 404.94C155.532 405.18 155.672 405.5 155.672 405.9C155.672 406.3 155.539 406.627 155.272 406.88C155.006 407.12 154.646 407.24 154.192 407.24ZM163.49 409.02C163.837 408.993 164.11 409.067 164.31 409.24C164.51 409.413 164.61 409.673 164.61 410.02C164.61 410.38 164.524 410.647 164.35 410.82C164.177 410.993 163.864 411.107 163.41 411.16L162.81 411.22C162.024 411.3 161.444 411.567 161.07 412.02C160.71 412.473 160.53 413.04 160.53 413.72V417.92C160.53 418.307 160.41 418.607 160.17 418.82C159.93 419.02 159.63 419.12 159.27 419.12C158.91 419.12 158.61 419.02 158.37 418.82C158.144 418.607 158.03 418.307 158.03 417.92V410.18C158.03 409.807 158.144 409.52 158.37 409.32C158.61 409.12 158.904 409.02 159.25 409.02C159.597 409.02 159.877 409.12 160.09 409.32C160.304 409.507 160.41 409.78 160.41 410.14V410.94C160.664 410.353 161.037 409.9 161.53 409.58C162.037 409.26 162.597 409.08 163.21 409.04L163.49 409.02ZM169.129 419.16C167.676 419.16 166.502 418.873 165.609 418.3C165.182 418.047 164.969 417.687 164.969 417.22C164.969 416.953 165.042 416.74 165.189 416.58C165.336 416.407 165.516 416.32 165.729 416.32C165.956 416.32 166.269 416.427 166.669 416.64C167.096 416.84 167.482 416.993 167.829 417.1C168.189 417.207 168.642 417.26 169.189 417.26C169.749 417.26 170.182 417.167 170.489 416.98C170.809 416.793 170.969 416.533 170.969 416.2C170.969 415.973 170.902 415.793 170.769 415.66C170.649 415.527 170.422 415.407 170.089 415.3C169.769 415.18 169.276 415.047 168.609 414.9C167.422 414.66 166.569 414.32 166.049 413.88C165.542 413.44 165.289 412.833 165.289 412.06C165.289 411.473 165.462 410.947 165.809 410.48C166.156 410 166.629 409.633 167.229 409.38C167.842 409.113 168.536 408.98 169.309 408.98C169.869 408.98 170.409 409.053 170.929 409.2C171.449 409.333 171.916 409.533 172.329 409.8C172.756 410.067 172.969 410.42 172.969 410.86C172.969 411.127 172.896 411.353 172.749 411.54C172.602 411.713 172.422 411.8 172.209 411.8C172.062 411.8 171.916 411.773 171.769 411.72C171.636 411.653 171.462 411.56 171.249 411.44C170.862 411.24 170.529 411.093 170.249 411C169.969 410.893 169.622 410.84 169.209 410.84C168.716 410.84 168.322 410.94 168.029 411.14C167.749 411.34 167.609 411.613 167.609 411.96C167.609 412.293 167.756 412.547 168.049 412.72C168.342 412.893 168.909 413.067 169.749 413.24C170.642 413.427 171.342 413.64 171.849 413.88C172.356 414.12 172.716 414.42 172.929 414.78C173.156 415.14 173.269 415.6 173.269 416.16C173.269 417.067 172.889 417.793 172.129 418.34C171.382 418.887 170.382 419.16 169.129 419.16ZM180.278 417.26C180.945 417.3 181.278 417.6 181.278 418.16C181.278 418.48 181.145 418.727 180.878 418.9C180.625 419.06 180.258 419.127 179.778 419.1L179.238 419.06C176.998 418.9 175.878 417.7 175.878 415.46V411.1H174.878C174.518 411.1 174.238 411.02 174.038 410.86C173.852 410.7 173.758 410.467 173.758 410.16C173.758 409.853 173.852 409.62 174.038 409.46C174.238 409.3 174.518 409.22 174.878 409.22H175.878V407.38C175.878 407.02 175.992 406.733 176.218 406.52C176.445 406.307 176.752 406.2 177.138 406.2C177.512 406.2 177.812 406.307 178.038 406.52C178.265 406.733 178.378 407.02 178.378 407.38V409.22H180.078C180.438 409.22 180.712 409.3 180.898 409.46C181.098 409.62 181.198 409.853 181.198 410.16C181.198 410.467 181.098 410.7 180.898 410.86C180.712 411.02 180.438 411.1 180.078 411.1H178.378V415.64C178.378 416.627 178.832 417.153 179.738 417.22L180.278 417.26ZM195.751 416.32C195.978 416.32 196.158 416.407 196.291 416.58C196.438 416.753 196.511 416.987 196.511 417.28C196.511 417.693 196.264 418.04 195.771 418.32C195.318 418.573 194.804 418.78 194.231 418.94C193.658 419.087 193.111 419.16 192.591 419.16C191.018 419.16 189.771 418.707 188.851 417.8C187.931 416.893 187.471 415.653 187.471 414.08C187.471 413.08 187.671 412.193 188.071 411.42C188.471 410.647 189.031 410.047 189.751 409.62C190.484 409.193 191.311 408.98 192.231 408.98C193.111 408.98 193.878 409.173 194.531 409.56C195.184 409.947 195.691 410.493 196.051 411.2C196.411 411.907 196.591 412.74 196.591 413.7C196.591 414.273 196.338 414.56 195.831 414.56H189.931C190.011 415.48 190.271 416.16 190.711 416.6C191.151 417.027 191.791 417.24 192.631 417.24C193.058 417.24 193.431 417.187 193.751 417.08C194.084 416.973 194.458 416.827 194.871 416.64C195.271 416.427 195.564 416.32 195.751 416.32ZM192.291 410.74C191.611 410.74 191.064 410.953 190.651 411.38C190.251 411.807 190.011 412.42 189.931 413.22H194.451C194.424 412.407 194.224 411.793 193.851 411.38C193.478 410.953 192.958 410.74 192.291 410.74ZM202.176 419.16C200.723 419.16 199.549 418.873 198.656 418.3C198.229 418.047 198.016 417.687 198.016 417.22C198.016 416.953 198.089 416.74 198.236 416.58C198.383 416.407 198.563 416.32 198.776 416.32C199.003 416.32 199.316 416.427 199.716 416.64C200.143 416.84 200.529 416.993 200.876 417.1C201.236 417.207 201.689 417.26 202.236 417.26C202.796 417.26 203.229 417.167 203.536 416.98C203.856 416.793 204.016 416.533 204.016 416.2C204.016 415.973 203.949 415.793 203.816 415.66C203.696 415.527 203.469 415.407 203.136 415.3C202.816 415.18 202.323 415.047 201.656 414.9C200.469 414.66 199.616 414.32 199.096 413.88C198.589 413.44 198.336 412.833 198.336 412.06C198.336 411.473 198.509 410.947 198.856 410.48C199.203 410 199.676 409.633 200.276 409.38C200.889 409.113 201.583 408.98 202.356 408.98C202.916 408.98 203.456 409.053 203.976 409.2C204.496 409.333 204.963 409.533 205.376 409.8C205.803 410.067 206.016 410.42 206.016 410.86C206.016 411.127 205.943 411.353 205.796 411.54C205.649 411.713 205.469 411.8 205.256 411.8C205.109 411.8 204.963 411.773 204.816 411.72C204.683 411.653 204.509 411.56 204.296 411.44C203.909 411.24 203.576 411.093 203.296 411C203.016 410.893 202.669 410.84 202.256 410.84C201.763 410.84 201.369 410.94 201.076 411.14C200.796 411.34 200.656 411.613 200.656 411.96C200.656 412.293 200.803 412.547 201.096 412.72C201.389 412.893 201.956 413.067 202.796 413.24C203.689 413.427 204.389 413.64 204.896 413.88C205.403 414.12 205.763 414.42 205.976 414.78C206.203 415.14 206.316 415.6 206.316 416.16C206.316 417.067 205.936 417.793 205.176 418.34C204.429 418.887 203.429 419.16 202.176 419.16ZM213.325 417.26C213.992 417.3 214.325 417.6 214.325 418.16C214.325 418.48 214.192 418.727 213.925 418.9C213.672 419.06 213.305 419.127 212.825 419.1L212.285 419.06C210.045 418.9 208.925 417.7 208.925 415.46V411.1H207.925C207.565 411.1 207.285 411.02 207.085 410.86C206.899 410.7 206.805 410.467 206.805 410.16C206.805 409.853 206.899 409.62 207.085 409.46C207.285 409.3 207.565 409.22 207.925 409.22H208.925V407.38C208.925 407.02 209.039 406.733 209.265 406.52C209.492 406.307 209.799 406.2 210.185 406.2C210.559 406.2 210.859 406.307 211.085 406.52C211.312 406.733 211.425 407.02 211.425 407.38V409.22H213.125C213.485 409.22 213.759 409.3 213.945 409.46C214.145 409.62 214.245 409.853 214.245 410.16C214.245 410.467 214.145 410.7 213.945 410.86C213.759 411.02 213.485 411.1 213.125 411.1H211.425V415.64C211.425 416.627 211.879 417.153 212.785 417.22L213.325 417.26ZM216.868 419.12C216.508 419.12 216.208 419.02 215.968 418.82C215.741 418.607 215.628 418.307 215.628 417.92V410.2C215.628 409.813 215.741 409.52 215.968 409.32C216.208 409.12 216.508 409.02 216.868 409.02C217.228 409.02 217.528 409.12 217.768 409.32C218.008 409.52 218.128 409.813 218.128 410.2V417.92C218.128 418.307 218.008 418.607 217.768 418.82C217.528 419.02 217.228 419.12 216.868 419.12ZM216.868 407.24C216.415 407.24 216.055 407.12 215.788 406.88C215.521 406.627 215.388 406.3 215.388 405.9C215.388 405.5 215.521 405.18 215.788 404.94C216.055 404.7 216.415 404.58 216.868 404.58C217.308 404.58 217.661 404.7 217.928 404.94C218.208 405.18 218.348 405.5 218.348 405.9C218.348 406.3 218.215 406.627 217.948 406.88C217.681 407.12 217.321 407.24 216.868 407.24ZM232.326 408.98C233.393 408.98 234.206 409.3 234.766 409.94C235.34 410.567 235.626 411.587 235.626 413V417.92C235.626 418.307 235.506 418.607 235.266 418.82C235.04 419.02 234.74 419.12 234.366 419.12C234.006 419.12 233.706 419.02 233.466 418.82C233.24 418.607 233.126 418.307 233.126 417.92V413C233.126 412.267 232.993 411.747 232.726 411.44C232.473 411.12 232.08 410.96 231.546 410.96C230.893 410.96 230.373 411.187 229.986 411.64C229.6 412.08 229.406 412.687 229.406 413.46V417.92C229.406 418.307 229.286 418.607 229.046 418.82C228.82 419.02 228.526 419.12 228.166 419.12C227.806 419.12 227.506 419.02 227.266 418.82C227.026 418.607 226.906 418.307 226.906 417.92V413C226.906 412.267 226.773 411.747 226.506 411.44C226.253 411.12 225.86 410.96 225.326 410.96C224.673 410.96 224.153 411.187 223.766 411.64C223.393 412.08 223.206 412.687 223.206 413.46V417.92C223.206 418.307 223.086 418.607 222.846 418.82C222.606 419.02 222.306 419.12 221.946 419.12C221.586 419.12 221.286 419.02 221.046 418.82C220.82 418.607 220.706 418.307 220.706 417.92V410.18C220.706 409.807 220.826 409.52 221.066 409.32C221.306 409.12 221.606 409.02 221.966 409.02C222.313 409.02 222.593 409.12 222.806 409.32C223.033 409.507 223.146 409.78 223.146 410.14V410.62C223.453 410.087 223.86 409.68 224.366 409.4C224.886 409.12 225.48 408.98 226.146 408.98C227.613 408.98 228.593 409.593 229.086 410.82C229.38 410.26 229.813 409.813 230.386 409.48C230.96 409.147 231.606 408.98 232.326 408.98ZM242.407 408.98C243.767 408.98 244.774 409.32 245.427 410C246.094 410.667 246.427 411.687 246.427 413.06V417.94C246.427 418.3 246.321 418.587 246.107 418.8C245.894 419 245.601 419.1 245.227 419.1C244.881 419.1 244.594 418.993 244.367 418.78C244.154 418.567 244.047 418.287 244.047 417.94V417.5C243.821 418.02 243.461 418.427 242.967 418.72C242.487 419.013 241.927 419.16 241.287 419.16C240.634 419.16 240.041 419.027 239.507 418.76C238.974 418.493 238.554 418.127 238.247 417.66C237.941 417.193 237.787 416.673 237.787 416.1C237.787 415.38 237.967 414.813 238.327 414.4C238.701 413.987 239.301 413.687 240.127 413.5C240.954 413.313 242.094 413.22 243.547 413.22H244.047V412.76C244.047 412.107 243.907 411.633 243.627 411.34C243.347 411.033 242.894 410.88 242.267 410.88C241.881 410.88 241.487 410.94 241.087 411.06C240.687 411.167 240.214 411.327 239.667 411.54C239.321 411.713 239.067 411.8 238.907 411.8C238.667 411.8 238.467 411.713 238.307 411.54C238.161 411.367 238.087 411.14 238.087 410.86C238.087 410.633 238.141 410.44 238.247 410.28C238.367 410.107 238.561 409.947 238.827 409.8C239.294 409.547 239.847 409.347 240.487 409.2C241.141 409.053 241.781 408.98 242.407 408.98ZM241.787 417.36C242.454 417.36 242.994 417.14 243.407 416.7C243.834 416.247 244.047 415.667 244.047 414.96V414.54H243.687C242.794 414.54 242.101 414.58 241.607 414.66C241.114 414.74 240.761 414.88 240.547 415.08C240.334 415.28 240.227 415.553 240.227 415.9C240.227 416.327 240.374 416.68 240.667 416.96C240.974 417.227 241.347 417.36 241.787 417.36ZM254.048 417.26C254.715 417.3 255.048 417.6 255.048 418.16C255.048 418.48 254.915 418.727 254.648 418.9C254.395 419.06 254.028 419.127 253.548 419.1L253.008 419.06C250.768 418.9 249.648 417.7 249.648 415.46V411.1H248.648C248.288 411.1 248.008 411.02 247.808 410.86C247.621 410.7 247.528 410.467 247.528 410.16C247.528 409.853 247.621 409.62 247.808 409.46C248.008 409.3 248.288 409.22 248.648 409.22H249.648V407.38C249.648 407.02 249.761 406.733 249.988 406.52C250.215 406.307 250.521 406.2 250.908 406.2C251.281 406.2 251.581 406.307 251.808 406.52C252.035 406.733 252.148 407.02 252.148 407.38V409.22H253.848C254.208 409.22 254.481 409.3 254.668 409.46C254.868 409.62 254.968 409.853 254.968 410.16C254.968 410.467 254.868 410.7 254.668 410.86C254.481 411.02 254.208 411.1 253.848 411.1H252.148V415.64C252.148 416.627 252.601 417.153 253.508 417.22L254.048 417.26ZM264.091 416.32C264.317 416.32 264.497 416.407 264.631 416.58C264.777 416.753 264.851 416.987 264.851 417.28C264.851 417.693 264.604 418.04 264.111 418.32C263.657 418.573 263.144 418.78 262.571 418.94C261.997 419.087 261.451 419.16 260.931 419.16C259.357 419.16 258.111 418.707 257.191 417.8C256.271 416.893 255.811 415.653 255.811 414.08C255.811 413.08 256.011 412.193 256.411 411.42C256.811 410.647 257.371 410.047 258.091 409.62C258.824 409.193 259.651 408.98 260.571 408.98C261.451 408.98 262.217 409.173 262.871 409.56C263.524 409.947 264.031 410.493 264.391 411.2C264.751 411.907 264.931 412.74 264.931 413.7C264.931 414.273 264.677 414.56 264.171 414.56H258.271C258.351 415.48 258.611 416.16 259.051 416.6C259.491 417.027 260.131 417.24 260.971 417.24C261.397 417.24 261.771 417.187 262.091 417.08C262.424 416.973 262.797 416.827 263.211 416.64C263.611 416.427 263.904 416.32 264.091 416.32ZM260.631 410.74C259.951 410.74 259.404 410.953 258.991 411.38C258.591 411.807 258.351 412.42 258.271 413.22H262.791C262.764 412.407 262.564 411.793 262.191 411.38C261.817 410.953 261.297 410.74 260.631 410.74Z" fill="white"/>
<rect x="69" y="305" width="164" height="28" rx="5" transform="rotate(-90 69 305)" fill="#444444"/>
<path d="M75.8 287.665C75.8 287.292 75.92 286.999 76.16 286.785C76.3867 286.559 76.6933 286.445 77.08 286.445H88.82C89.2067 286.445 89.52 286.559 89.76 286.785C90 287.012 90.12 287.305 90.12 287.665C90.12 288.092 89.9667 288.419 89.66 288.645L80.16 295.945H88.82C89.2067 295.945 89.52 296.052 89.76 296.265C90 296.479 90.12 296.772 90.12 297.145C90.12 297.519 90 297.812 89.76 298.025C89.52 298.239 89.2067 298.345 88.82 298.345H77.08C76.6933 298.345 76.3867 298.232 76.16 298.005C75.92 297.779 75.8 297.479 75.8 297.105C75.8 296.692 75.9533 296.372 76.26 296.145L85.72 288.865H77.08C76.6933 288.865 76.3867 288.759 76.16 288.545C75.92 288.319 75.8 288.025 75.8 287.665ZM80.02 275.904C80.02 275.517 80.1267 275.21 80.34 274.984C80.5533 274.757 80.84 274.644 81.2 274.644H88.96C89.3067 274.644 89.5867 274.764 89.8 275.004C90.0133 275.23 90.12 275.53 90.12 275.904C90.12 276.264 90.02 276.55 89.82 276.764C89.62 276.977 89.3467 277.084 89 277.084H88.5C89.0333 277.39 89.4467 277.804 89.74 278.324C90.02 278.844 90.16 279.43 90.16 280.084C90.16 282.484 88.8133 283.684 86.12 283.684H81.2C80.84 283.684 80.5533 283.57 80.34 283.344C80.1267 283.117 80.02 282.817 80.02 282.444C80.02 282.057 80.1267 281.75 80.34 281.524C80.5533 281.297 80.84 281.184 81.2 281.184H86.14C86.8333 281.184 87.3467 281.044 87.68 280.764C88.0133 280.484 88.18 280.044 88.18 279.444C88.18 278.75 87.9533 278.197 87.5 277.784C87.0333 277.357 86.42 277.144 85.66 277.144H81.2C80.84 277.144 80.5533 277.03 80.34 276.804C80.1267 276.577 80.02 276.277 80.02 275.904ZM79.98 260.422C79.98 259.355 80.3 258.542 80.94 257.982C81.5667 257.408 82.5867 257.122 84 257.122H88.92C89.3067 257.122 89.6067 257.242 89.82 257.482C90.02 257.708 90.12 258.008 90.12 258.382C90.12 258.742 90.02 259.042 89.82 259.282C89.6067 259.508 89.3067 259.622 88.92 259.622H84C83.2667 259.622 82.7467 259.755 82.44 260.022C82.12 260.275 81.96 260.668 81.96 261.202C81.96 261.855 82.1867 262.375 82.64 262.762C83.08 263.148 83.6867 263.342 84.46 263.342H88.92C89.3067 263.342 89.6067 263.462 89.82 263.702C90.02 263.928 90.12 264.222 90.12 264.582C90.12 264.942 90.02 265.242 89.82 265.482C89.6067 265.722 89.3067 265.842 88.92 265.842H84C83.2667 265.842 82.7467 265.975 82.44 266.242C82.12 266.495 81.96 266.888 81.96 267.422C81.96 268.075 82.1867 268.595 82.64 268.982C83.08 269.355 83.6867 269.542 84.46 269.542H88.92C89.3067 269.542 89.6067 269.662 89.82 269.902C90.02 270.142 90.12 270.442 90.12 270.802C90.12 271.162 90.02 271.462 89.82 271.702C89.6067 271.928 89.3067 272.042 88.92 272.042H81.18C80.8067 272.042 80.52 271.922 80.32 271.682C80.12 271.442 80.02 271.142 80.02 270.782C80.02 270.435 80.12 270.155 80.32 269.942C80.5067 269.715 80.78 269.602 81.14 269.602H81.62C81.0867 269.295 80.68 268.888 80.4 268.382C80.12 267.862 79.98 267.268 79.98 266.602C79.98 265.135 80.5933 264.155 81.82 263.662C81.26 263.368 80.8133 262.935 80.48 262.362C80.1467 261.788 79.98 261.142 79.98 260.422ZM79.98 248.961C79.98 248.108 80.1867 247.354 80.6 246.701C81.0133 246.048 81.6 245.541 82.36 245.181C83.12 244.808 84.0067 244.621 85.02 244.621C86.0333 244.621 86.9333 244.808 87.72 245.181C88.4933 245.541 89.0933 246.054 89.52 246.721C89.9467 247.374 90.16 248.121 90.16 248.961C90.16 249.668 90.0067 250.301 89.7 250.861C89.3933 251.408 88.9667 251.828 88.42 252.121H88.92C89.28 252.121 89.5667 252.234 89.78 252.461C89.9933 252.688 90.1 252.988 90.1 253.361C90.1 253.734 89.9933 254.034 89.78 254.261C89.5667 254.474 89.28 254.581 88.92 254.581H76.96C76.6133 254.581 76.3333 254.468 76.12 254.241C75.9067 254.001 75.8 253.694 75.8 253.321C75.8 252.948 75.9 252.648 76.1 252.421C76.3 252.194 76.5733 252.081 76.92 252.081H81.64C81.1067 251.788 80.7 251.368 80.42 250.821C80.1267 250.274 79.98 249.654 79.98 248.961ZM88.22 249.621C88.22 248.834 87.94 248.221 87.38 247.781C86.82 247.341 86.0333 247.121 85.02 247.121C84.02 247.121 83.2533 247.341 82.72 247.781C82.1867 248.208 81.92 248.821 81.92 249.621C81.92 250.421 82.1933 251.041 82.74 251.481C83.2733 251.908 84.0467 252.121 85.06 252.121C86.0733 252.121 86.8533 251.908 87.4 251.481C87.9467 251.041 88.22 250.421 88.22 249.621ZM87.32 234.829C87.32 234.602 87.4067 234.422 87.58 234.289C87.7533 234.142 87.9867 234.069 88.28 234.069C88.6933 234.069 89.04 234.316 89.32 234.809C89.5733 235.262 89.78 235.776 89.94 236.349C90.0867 236.922 90.16 237.469 90.16 237.989C90.16 239.562 89.7067 240.809 88.8 241.729C87.8933 242.649 86.6533 243.109 85.08 243.109C84.08 243.109 83.1933 242.909 82.42 242.509C81.6467 242.109 81.0467 241.549 80.62 240.829C80.1933 240.096 79.98 239.269 79.98 238.349C79.98 237.469 80.1733 236.702 80.56 236.049C80.9467 235.396 81.4933 234.889 82.2 234.529C82.9067 234.169 83.74 233.989 84.7 233.989C85.2733 233.989 85.56 234.242 85.56 234.749V240.649C86.48 240.569 87.16 240.309 87.6 239.869C88.0267 239.429 88.24 238.789 88.24 237.949C88.24 237.522 88.1867 237.149 88.08 236.829C87.9733 236.496 87.8267 236.122 87.64 235.709C87.4267 235.309 87.32 235.016 87.32 234.829ZM81.74 238.289C81.74 238.969 81.9533 239.516 82.38 239.929C82.8067 240.329 83.42 240.569 84.22 240.649V236.129C83.4067 236.156 82.7933 236.356 82.38 236.729C81.9533 237.102 81.74 237.622 81.74 238.289ZM80.02 226.484C79.9933 226.137 80.0667 225.864 80.24 225.664C80.4133 225.464 80.6733 225.364 81.02 225.364C81.38 225.364 81.6467 225.451 81.82 225.624C81.9933 225.797 82.1067 226.111 82.16 226.564L82.22 227.164C82.3 227.951 82.5667 228.531 83.02 228.904C83.4733 229.264 84.04 229.444 84.72 229.444H88.92C89.3067 229.444 89.6067 229.564 89.82 229.804C90.02 230.044 90.12 230.344 90.12 230.704C90.12 231.064 90.02 231.364 89.82 231.604C89.6067 231.831 89.3067 231.944 88.92 231.944H81.18C80.8067 231.944 80.52 231.831 80.32 231.604C80.12 231.364 80.02 231.071 80.02 230.724C80.02 230.377 80.12 230.097 80.32 229.884C80.5067 229.671 80.78 229.564 81.14 229.564H81.94C81.3533 229.311 80.9 228.937 80.58 228.444C80.26 227.937 80.08 227.377 80.04 226.764L80.02 226.484ZM90.16 214.398C90.16 215.398 89.9533 216.278 89.54 217.038C89.1267 217.785 88.5333 218.365 87.76 218.778C86.9867 219.192 86.0867 219.398 85.06 219.398C84.0333 219.398 83.14 219.192 82.38 218.778C81.6067 218.365 81.0133 217.785 80.6 217.038C80.1867 216.278 79.98 215.398 79.98 214.398C79.98 213.398 80.1867 212.525 80.6 211.778C81.0133 211.018 81.6067 210.438 82.38 210.038C83.14 209.625 84.0333 209.418 85.06 209.418C86.0867 209.418 86.9867 209.625 87.76 210.038C88.5333 210.438 89.1267 211.018 89.54 211.778C89.9533 212.525 90.16 213.398 90.16 214.398ZM88.22 214.418C88.22 213.605 87.9533 212.985 87.42 212.558C86.8867 212.132 86.1 211.918 85.06 211.918C84.0333 211.918 83.2533 212.132 82.72 212.558C82.1733 212.985 81.9 213.598 81.9 214.398C81.9 215.198 82.1733 215.818 82.72 216.258C83.2533 216.685 84.0333 216.898 85.06 216.898C86.1 216.898 86.8867 216.685 87.42 216.258C87.9533 215.832 88.22 215.218 88.22 214.418ZM77.76 202.473C77.8 203.086 77.9867 203.533 78.32 203.813C78.6533 204.093 79.1333 204.233 79.76 204.233H80.22V202.533C80.22 201.786 80.5333 201.413 81.16 201.413C81.7867 201.413 82.1 201.786 82.1 202.533V204.233H88.92C89.3067 204.233 89.6 204.353 89.8 204.593C90 204.82 90.1 205.113 90.1 205.473C90.1 205.833 90 206.133 89.8 206.373C89.6 206.613 89.3067 206.733 88.92 206.733H82.1V207.733C82.1 208.48 81.7867 208.853 81.16 208.853C80.5333 208.853 80.22 208.48 80.22 207.733V206.733H80.08C78.8267 206.733 77.8467 206.406 77.14 205.753C76.42 205.086 76.0133 204.153 75.92 202.953L75.88 202.433C75.84 201.9 75.9 201.526 76.06 201.313C76.2067 201.086 76.44 200.973 76.76 200.973C77.3333 200.973 77.6533 201.3 77.72 201.953L77.76 202.473ZM90.16 190.475C90.16 191.449 89.9533 192.309 89.54 193.055C89.1267 193.789 88.54 194.355 87.78 194.755C87.02 195.155 86.1333 195.355 85.12 195.355C84.1067 195.355 83.2133 195.149 82.44 194.735C81.6533 194.309 81.0467 193.715 80.62 192.955C80.1933 192.195 79.98 191.322 79.98 190.335C79.98 189.815 80.0533 189.295 80.2 188.775C80.3467 188.242 80.5467 187.775 80.8 187.375C81.08 186.949 81.4333 186.735 81.86 186.735C82.1533 186.735 82.3933 186.809 82.58 186.955C82.7533 187.089 82.84 187.269 82.84 187.495C82.84 187.642 82.8067 187.795 82.74 187.955C82.6733 188.115 82.5933 188.275 82.5 188.435C82.3267 188.729 82.1933 189.009 82.1 189.275C81.9933 189.542 81.94 189.849 81.94 190.195C81.94 191.022 82.2133 191.662 82.76 192.115C83.2933 192.555 84.0667 192.775 85.08 192.775C86.08 192.775 86.8533 192.555 87.4 192.115C87.9333 191.662 88.2 191.022 88.2 190.195C88.2 189.862 88.1533 189.569 88.06 189.315C87.9533 189.049 87.8133 188.755 87.64 188.435C87.52 188.235 87.4333 188.062 87.38 187.915C87.3133 187.769 87.28 187.622 87.28 187.475C87.28 187.262 87.3733 187.082 87.56 186.935C87.7467 186.789 87.98 186.715 88.26 186.715C88.4867 186.715 88.6867 186.769 88.86 186.875C89.02 186.969 89.1667 187.129 89.3 187.355C89.5667 187.769 89.78 188.249 89.94 188.795C90.0867 189.342 90.16 189.902 90.16 190.475ZM90.12 183.81C90.12 184.17 90.02 184.47 89.82 184.71C89.6067 184.936 89.3067 185.05 88.92 185.05H76.98C76.5933 185.05 76.3 184.936 76.1 184.71C75.9 184.47 75.8 184.17 75.8 183.81C75.8 183.45 75.9 183.15 76.1 182.91C76.3 182.67 76.5933 182.55 76.98 182.55H88.92C89.3067 182.55 89.6067 182.67 89.82 182.91C90.02 183.15 90.12 183.45 90.12 183.81ZM90.12 178.731C90.12 179.091 90.02 179.391 89.82 179.631C89.6067 179.858 89.3067 179.971 88.92 179.971H81.2C80.8133 179.971 80.52 179.858 80.32 179.631C80.12 179.391 80.02 179.091 80.02 178.731C80.02 178.371 80.12 178.071 80.32 177.831C80.52 177.591 80.8133 177.471 81.2 177.471H88.92C89.3067 177.471 89.6067 177.591 89.82 177.831C90.02 178.071 90.12 178.371 90.12 178.731ZM78.24 178.731C78.24 179.185 78.12 179.545 77.88 179.811C77.6267 180.078 77.3 180.211 76.9 180.211C76.5 180.211 76.18 180.078 75.94 179.811C75.7 179.545 75.58 179.185 75.58 178.731C75.58 178.291 75.7 177.938 75.94 177.671C76.18 177.391 76.5 177.251 76.9 177.251C77.3 177.251 77.6267 177.385 77.88 177.651C78.12 177.918 78.24 178.278 78.24 178.731ZM90.16 170.553C90.16 171.527 89.9533 172.387 89.54 173.133C89.1267 173.867 88.54 174.433 87.78 174.833C87.02 175.233 86.1333 175.433 85.12 175.433C84.1067 175.433 83.2133 175.227 82.44 174.813C81.6533 174.387 81.0467 173.793 80.62 173.033C80.1933 172.273 79.98 171.4 79.98 170.413C79.98 169.893 80.0533 169.373 80.2 168.853C80.3467 168.32 80.5467 167.853 80.8 167.453C81.08 167.027 81.4333 166.813 81.86 166.813C82.1533 166.813 82.3933 166.887 82.58 167.033C82.7533 167.167 82.84 167.347 82.84 167.573C82.84 167.72 82.8067 167.873 82.74 168.033C82.6733 168.193 82.5933 168.353 82.5 168.513C82.3267 168.807 82.1933 169.087 82.1 169.353C81.9933 169.62 81.94 169.927 81.94 170.273C81.94 171.1 82.2133 171.74 82.76 172.193C83.2933 172.633 84.0667 172.853 85.08 172.853C86.08 172.853 86.8533 172.633 87.4 172.193C87.9333 171.74 88.2 171.1 88.2 170.273C88.2 169.94 88.1533 169.647 88.06 169.393C87.9533 169.127 87.8133 168.833 87.64 168.513C87.52 168.313 87.4333 168.14 87.38 167.993C87.3133 167.847 87.28 167.7 87.28 167.553C87.28 167.34 87.3733 167.16 87.56 167.013C87.7467 166.867 87.98 166.793 88.26 166.793C88.4867 166.793 88.6867 166.847 88.86 166.953C89.02 167.047 89.1667 167.207 89.3 167.433C89.5667 167.847 89.78 168.327 89.94 168.873C90.0867 169.42 90.16 169.98 90.16 170.553ZM88.06 156.428C88.3133 156.161 88.6 156.028 88.92 156.028C89.2267 156.028 89.5 156.141 89.74 156.368C89.98 156.581 90.1 156.834 90.1 157.128C90.1 157.421 89.98 157.694 89.74 157.948L85.5 162.628H88.92C89.3067 162.628 89.6 162.748 89.8 162.988C90 163.228 90.1 163.528 90.1 163.888C90.1 164.248 90 164.548 89.8 164.788C89.6 165.014 89.3067 165.128 88.92 165.128H76.98C76.5933 165.128 76.3 165.014 76.1 164.788C75.9 164.548 75.8 164.248 75.8 163.888C75.8 163.528 75.9 163.228 76.1 162.988C76.3 162.748 76.5933 162.628 76.98 162.628H84.5L80.4 158.348C80.16 158.108 80.04 157.834 80.04 157.528C80.04 157.221 80.1533 156.954 80.38 156.728C80.6067 156.501 80.8733 156.388 81.18 156.388C81.4867 156.388 81.7667 156.514 82.02 156.768L84.94 159.908L88.06 156.428ZM90.16 151.002C90.16 152.455 89.8733 153.628 89.3 154.522C89.0467 154.948 88.6867 155.162 88.22 155.162C87.9533 155.162 87.74 155.088 87.58 154.942C87.4067 154.795 87.32 154.615 87.32 154.402C87.32 154.175 87.4267 153.862 87.64 153.462C87.84 153.035 87.9933 152.648 88.1 152.302C88.2067 151.942 88.26 151.488 88.26 150.942C88.26 150.382 88.1667 149.948 87.98 149.642C87.7933 149.322 87.5333 149.162 87.2 149.162C86.9733 149.162 86.7933 149.228 86.66 149.362C86.5267 149.482 86.4067 149.708 86.3 150.042C86.18 150.362 86.0467 150.855 85.9 151.522C85.66 152.708 85.32 153.562 84.88 154.082C84.44 154.588 83.8333 154.842 83.06 154.842C82.4733 154.842 81.9467 154.668 81.48 154.322C81 153.975 80.6333 153.502 80.38 152.902C80.1133 152.288 79.98 151.595 79.98 150.822C79.98 150.262 80.0533 149.722 80.2 149.202C80.3333 148.682 80.5333 148.215 80.8 147.802C81.0667 147.375 81.42 147.162 81.86 147.162C82.1267 147.162 82.3533 147.235 82.54 147.382C82.7133 147.528 82.8 147.708 82.8 147.922C82.8 148.068 82.7733 148.215 82.72 148.362C82.6533 148.495 82.56 148.668 82.44 148.882C82.24 149.268 82.0933 149.602 82 149.882C81.8933 150.162 81.84 150.508 81.84 150.922C81.84 151.415 81.94 151.808 82.14 152.102C82.34 152.382 82.6133 152.522 82.96 152.522C83.2933 152.522 83.5467 152.375 83.72 152.082C83.8933 151.788 84.0667 151.222 84.24 150.382C84.4267 149.488 84.64 148.788 84.88 148.282C85.12 147.775 85.42 147.415 85.78 147.202C86.14 146.975 86.6 146.862 87.16 146.862C88.0667 146.862 88.7933 147.242 89.34 148.002C89.8867 148.748 90.16 149.748 90.16 151.002Z" fill="white"/>
<rect x="291" y="398" width="167" height="28" rx="5" fill="#444444"/>
<path d="M308.941 417.38C309.101 417.62 309.181 417.853 309.181 418.08C309.181 418.387 309.054 418.64 308.801 418.84C308.561 419.04 308.274 419.14 307.941 419.14C307.727 419.14 307.521 419.093 307.321 419C307.134 418.893 306.974 418.74 306.841 418.54L304.181 414.5C303.914 414.073 303.627 413.773 303.321 413.6C303.027 413.427 302.641 413.34 302.161 413.34H300.201V417.82C300.201 418.22 300.087 418.54 299.861 418.78C299.634 419.007 299.327 419.12 298.941 419.12C298.554 419.12 298.241 419.007 298.001 418.78C297.774 418.54 297.661 418.22 297.661 417.82V406.12C297.661 405.733 297.767 405.433 297.981 405.22C298.207 405.007 298.514 404.9 298.901 404.9H303.901C305.501 404.9 306.714 405.26 307.541 405.98C308.381 406.687 308.801 407.713 308.801 409.06C308.801 410.153 308.487 411.053 307.861 411.76C307.247 412.453 306.374 412.9 305.241 413.1C305.627 413.193 305.967 413.36 306.261 413.6C306.554 413.84 306.841 414.173 307.121 414.6L308.941 417.38ZM303.541 411.36C304.514 411.36 305.227 411.18 305.681 410.82C306.134 410.447 306.361 409.88 306.361 409.12C306.361 408.347 306.134 407.787 305.681 407.44C305.227 407.08 304.514 406.9 303.541 406.9H300.181V411.36H303.541ZM319.087 416.32C319.314 416.32 319.494 416.407 319.627 416.58C319.774 416.753 319.847 416.987 319.847 417.28C319.847 417.693 319.6 418.04 319.107 418.32C318.654 418.573 318.14 418.78 317.567 418.94C316.994 419.087 316.447 419.16 315.927 419.16C314.354 419.16 313.107 418.707 312.187 417.8C311.267 416.893 310.807 415.653 310.807 414.08C310.807 413.08 311.007 412.193 311.407 411.42C311.807 410.647 312.367 410.047 313.087 409.62C313.82 409.193 314.647 408.98 315.567 408.98C316.447 408.98 317.214 409.173 317.867 409.56C318.52 409.947 319.027 410.493 319.387 411.2C319.747 411.907 319.927 412.74 319.927 413.7C319.927 414.273 319.674 414.56 319.167 414.56H313.267C313.347 415.48 313.607 416.16 314.047 416.6C314.487 417.027 315.127 417.24 315.967 417.24C316.394 417.24 316.767 417.187 317.087 417.08C317.42 416.973 317.794 416.827 318.207 416.64C318.607 416.427 318.9 416.32 319.087 416.32ZM315.627 410.74C314.947 410.74 314.4 410.953 313.987 411.38C313.587 411.807 313.347 412.42 313.267 413.22H317.787C317.76 412.407 317.56 411.793 317.187 411.38C316.814 410.953 316.294 410.74 315.627 410.74ZM328.636 409.74C328.742 409.5 328.882 409.32 329.056 409.2C329.242 409.08 329.442 409.02 329.656 409.02C329.962 409.02 330.236 409.127 330.476 409.34C330.729 409.54 330.856 409.793 330.856 410.1C330.856 410.26 330.816 410.42 330.736 410.58L327.036 418.32C326.916 418.573 326.742 418.767 326.516 418.9C326.302 419.033 326.062 419.1 325.796 419.1C325.542 419.1 325.296 419.033 325.056 418.9C324.829 418.767 324.656 418.573 324.536 418.32L320.816 410.58C320.749 410.447 320.716 410.293 320.716 410.12C320.716 409.813 320.842 409.553 321.096 409.34C321.362 409.127 321.662 409.02 321.996 409.02C322.476 409.02 322.829 409.253 323.056 409.72L325.856 415.9L328.636 409.74ZM333.583 419.12C333.223 419.12 332.923 419.02 332.683 418.82C332.456 418.607 332.343 418.307 332.343 417.92V410.2C332.343 409.813 332.456 409.52 332.683 409.32C332.923 409.12 333.223 409.02 333.583 409.02C333.943 409.02 334.243 409.12 334.483 409.32C334.723 409.52 334.843 409.813 334.843 410.2V417.92C334.843 418.307 334.723 418.607 334.483 418.82C334.243 419.02 333.943 419.12 333.583 419.12ZM333.583 407.24C333.13 407.24 332.77 407.12 332.503 406.88C332.236 406.627 332.103 406.3 332.103 405.9C332.103 405.5 332.236 405.18 332.503 404.94C332.77 404.7 333.13 404.58 333.583 404.58C334.023 404.58 334.376 404.7 334.643 404.94C334.923 405.18 335.063 405.5 335.063 405.9C335.063 406.3 334.93 406.627 334.663 406.88C334.396 407.12 334.036 407.24 333.583 407.24ZM340.961 419.16C339.508 419.16 338.334 418.873 337.441 418.3C337.014 418.047 336.801 417.687 336.801 417.22C336.801 416.953 336.874 416.74 337.021 416.58C337.168 416.407 337.348 416.32 337.561 416.32C337.788 416.32 338.101 416.427 338.501 416.64C338.928 416.84 339.314 416.993 339.661 417.1C340.021 417.207 340.474 417.26 341.021 417.26C341.581 417.26 342.014 417.167 342.321 416.98C342.641 416.793 342.801 416.533 342.801 416.2C342.801 415.973 342.734 415.793 342.601 415.66C342.481 415.527 342.254 415.407 341.921 415.3C341.601 415.18 341.108 415.047 340.441 414.9C339.254 414.66 338.401 414.32 337.881 413.88C337.374 413.44 337.121 412.833 337.121 412.06C337.121 411.473 337.294 410.947 337.641 410.48C337.988 410 338.461 409.633 339.061 409.38C339.674 409.113 340.368 408.98 341.141 408.98C341.701 408.98 342.241 409.053 342.761 409.2C343.281 409.333 343.748 409.533 344.161 409.8C344.588 410.067 344.801 410.42 344.801 410.86C344.801 411.127 344.728 411.353 344.581 411.54C344.434 411.713 344.254 411.8 344.041 411.8C343.894 411.8 343.748 411.773 343.601 411.72C343.468 411.653 343.294 411.56 343.081 411.44C342.694 411.24 342.361 411.093 342.081 411C341.801 410.893 341.454 410.84 341.041 410.84C340.548 410.84 340.154 410.94 339.861 411.14C339.581 411.34 339.441 411.613 339.441 411.96C339.441 412.293 339.588 412.547 339.881 412.72C340.174 412.893 340.741 413.067 341.581 413.24C342.474 413.427 343.174 413.64 343.681 413.88C344.188 414.12 344.548 414.42 344.761 414.78C344.988 415.14 345.101 415.6 345.101 416.16C345.101 417.067 344.721 417.793 343.961 418.34C343.214 418.887 342.214 419.16 340.961 419.16ZM354.868 416.32C355.095 416.32 355.275 416.407 355.408 416.58C355.555 416.753 355.628 416.987 355.628 417.28C355.628 417.693 355.381 418.04 354.888 418.32C354.435 418.573 353.921 418.78 353.348 418.94C352.775 419.087 352.228 419.16 351.708 419.16C350.135 419.16 348.888 418.707 347.968 417.8C347.048 416.893 346.588 415.653 346.588 414.08C346.588 413.08 346.788 412.193 347.188 411.42C347.588 410.647 348.148 410.047 348.868 409.62C349.601 409.193 350.428 408.98 351.348 408.98C352.228 408.98 352.995 409.173 353.648 409.56C354.301 409.947 354.808 410.493 355.168 411.2C355.528 411.907 355.708 412.74 355.708 413.7C355.708 414.273 355.455 414.56 354.948 414.56H349.048C349.128 415.48 349.388 416.16 349.828 416.6C350.268 417.027 350.908 417.24 351.748 417.24C352.175 417.24 352.548 417.187 352.868 417.08C353.201 416.973 353.575 416.827 353.988 416.64C354.388 416.427 354.681 416.32 354.868 416.32ZM351.408 410.74C350.728 410.74 350.181 410.953 349.768 411.38C349.368 411.807 349.128 412.42 349.048 413.22H353.568C353.541 412.407 353.341 411.793 352.968 411.38C352.595 410.953 352.075 410.74 351.408 410.74ZM365.913 404.8C366.286 404.8 366.593 404.907 366.833 405.12C367.073 405.333 367.193 405.613 367.193 405.96V417.92C367.193 418.28 367.08 418.567 366.853 418.78C366.626 418.993 366.326 419.1 365.953 419.1C365.58 419.1 365.28 418.993 365.053 418.78C364.826 418.567 364.713 418.28 364.713 417.92V417.42C364.42 417.967 363.993 418.393 363.433 418.7C362.886 419.007 362.26 419.16 361.553 419.16C360.713 419.16 359.96 418.947 359.293 418.52C358.64 418.093 358.126 417.493 357.753 416.72C357.393 415.933 357.213 415.033 357.213 414.02C357.213 413.007 357.393 412.12 357.753 411.36C358.126 410.6 358.64 410.013 359.293 409.6C359.946 409.187 360.7 408.98 361.553 408.98C362.26 408.98 362.886 409.127 363.433 409.42C363.98 409.713 364.4 410.127 364.693 410.66V405.92C364.693 405.587 364.8 405.32 365.013 405.12C365.24 404.907 365.54 404.8 365.913 404.8ZM362.213 417.22C363.013 417.22 363.626 416.947 364.053 416.4C364.493 415.853 364.713 415.073 364.713 414.06C364.713 413.047 364.493 412.273 364.053 411.74C363.626 411.193 363.02 410.92 362.233 410.92C361.433 410.92 360.813 411.187 360.373 411.72C359.933 412.253 359.713 413.02 359.713 414.02C359.713 415.033 359.933 415.82 360.373 416.38C360.813 416.94 361.426 417.22 362.213 417.22ZM382.935 416.32C383.161 416.32 383.341 416.407 383.475 416.58C383.621 416.753 383.695 416.987 383.695 417.28C383.695 417.693 383.448 418.04 382.955 418.32C382.501 418.573 381.988 418.78 381.415 418.94C380.841 419.087 380.295 419.16 379.775 419.16C378.201 419.16 376.955 418.707 376.035 417.8C375.115 416.893 374.655 415.653 374.655 414.08C374.655 413.08 374.855 412.193 375.255 411.42C375.655 410.647 376.215 410.047 376.935 409.62C377.668 409.193 378.495 408.98 379.415 408.98C380.295 408.98 381.061 409.173 381.715 409.56C382.368 409.947 382.875 410.493 383.235 411.2C383.595 411.907 383.775 412.74 383.775 413.7C383.775 414.273 383.521 414.56 383.015 414.56H377.115C377.195 415.48 377.455 416.16 377.895 416.6C378.335 417.027 378.975 417.24 379.815 417.24C380.241 417.24 380.615 417.187 380.935 417.08C381.268 416.973 381.641 416.827 382.055 416.64C382.455 416.427 382.748 416.32 382.935 416.32ZM379.475 410.74C378.795 410.74 378.248 410.953 377.835 411.38C377.435 411.807 377.195 412.42 377.115 413.22H381.635C381.608 412.407 381.408 411.793 381.035 411.38C380.661 410.953 380.141 410.74 379.475 410.74ZM389.36 419.16C387.906 419.16 386.733 418.873 385.84 418.3C385.413 418.047 385.2 417.687 385.2 417.22C385.2 416.953 385.273 416.74 385.42 416.58C385.566 416.407 385.746 416.32 385.96 416.32C386.186 416.32 386.5 416.427 386.9 416.64C387.326 416.84 387.713 416.993 388.06 417.1C388.42 417.207 388.873 417.26 389.42 417.26C389.98 417.26 390.413 417.167 390.72 416.98C391.04 416.793 391.2 416.533 391.2 416.2C391.2 415.973 391.133 415.793 391 415.66C390.88 415.527 390.653 415.407 390.32 415.3C390 415.18 389.506 415.047 388.84 414.9C387.653 414.66 386.8 414.32 386.28 413.88C385.773 413.44 385.52 412.833 385.52 412.06C385.52 411.473 385.693 410.947 386.04 410.48C386.386 410 386.86 409.633 387.46 409.38C388.073 409.113 388.766 408.98 389.54 408.98C390.1 408.98 390.64 409.053 391.16 409.2C391.68 409.333 392.146 409.533 392.56 409.8C392.986 410.067 393.2 410.42 393.2 410.86C393.2 411.127 393.126 411.353 392.98 411.54C392.833 411.713 392.653 411.8 392.44 411.8C392.293 411.8 392.146 411.773 392 411.72C391.866 411.653 391.693 411.56 391.48 411.44C391.093 411.24 390.76 411.093 390.48 411C390.2 410.893 389.853 410.84 389.44 410.84C388.946 410.84 388.553 410.94 388.26 411.14C387.98 411.34 387.84 411.613 387.84 411.96C387.84 412.293 387.986 412.547 388.28 412.72C388.573 412.893 389.14 413.067 389.98 413.24C390.873 413.427 391.573 413.64 392.08 413.88C392.586 414.12 392.946 414.42 393.16 414.78C393.386 415.14 393.5 415.6 393.5 416.16C393.5 417.067 393.12 417.793 392.36 418.34C391.613 418.887 390.613 419.16 389.36 419.16ZM400.509 417.26C401.176 417.3 401.509 417.6 401.509 418.16C401.509 418.48 401.376 418.727 401.109 418.9C400.856 419.06 400.489 419.127 400.009 419.1L399.469 419.06C397.229 418.9 396.109 417.7 396.109 415.46V411.1H395.109C394.749 411.1 394.469 411.02 394.269 410.86C394.082 410.7 393.989 410.467 393.989 410.16C393.989 409.853 394.082 409.62 394.269 409.46C394.469 409.3 394.749 409.22 395.109 409.22H396.109V407.38C396.109 407.02 396.222 406.733 396.449 406.52C396.676 406.307 396.982 406.2 397.369 406.2C397.742 406.2 398.042 406.307 398.269 406.52C398.496 406.733 398.609 407.02 398.609 407.38V409.22H400.309C400.669 409.22 400.942 409.3 401.129 409.46C401.329 409.62 401.429 409.853 401.429 410.16C401.429 410.467 401.329 410.7 401.129 410.86C400.942 411.02 400.669 411.1 400.309 411.1H398.609V415.64C398.609 416.627 399.062 417.153 399.969 417.22L400.509 417.26ZM404.052 419.12C403.692 419.12 403.392 419.02 403.152 418.82C402.925 418.607 402.812 418.307 402.812 417.92V410.2C402.812 409.813 402.925 409.52 403.152 409.32C403.392 409.12 403.692 409.02 404.052 409.02C404.412 409.02 404.712 409.12 404.952 409.32C405.192 409.52 405.312 409.813 405.312 410.2V417.92C405.312 418.307 405.192 418.607 404.952 418.82C404.712 419.02 404.412 419.12 404.052 419.12ZM404.052 407.24C403.598 407.24 403.238 407.12 402.972 406.88C402.705 406.627 402.572 406.3 402.572 405.9C402.572 405.5 402.705 405.18 402.972 404.94C403.238 404.7 403.598 404.58 404.052 404.58C404.492 404.58 404.845 404.7 405.112 404.94C405.392 405.18 405.532 405.5 405.532 405.9C405.532 406.3 405.398 406.627 405.132 406.88C404.865 407.12 404.505 407.24 404.052 407.24ZM419.51 408.98C420.577 408.98 421.39 409.3 421.95 409.94C422.523 410.567 422.81 411.587 422.81 413V417.92C422.81 418.307 422.69 418.607 422.45 418.82C422.223 419.02 421.923 419.12 421.55 419.12C421.19 419.12 420.89 419.02 420.65 418.82C420.423 418.607 420.31 418.307 420.31 417.92V413C420.31 412.267 420.177 411.747 419.91 411.44C419.657 411.12 419.263 410.96 418.73 410.96C418.077 410.96 417.557 411.187 417.17 411.64C416.783 412.08 416.59 412.687 416.59 413.46V417.92C416.59 418.307 416.47 418.607 416.23 418.82C416.003 419.02 415.71 419.12 415.35 419.12C414.99 419.12 414.69 419.02 414.45 418.82C414.21 418.607 414.09 418.307 414.09 417.92V413C414.09 412.267 413.957 411.747 413.69 411.44C413.437 411.12 413.043 410.96 412.51 410.96C411.857 410.96 411.337 411.187 410.95 411.64C410.577 412.08 410.39 412.687 410.39 413.46V417.92C410.39 418.307 410.27 418.607 410.03 418.82C409.79 419.02 409.49 419.12 409.13 419.12C408.77 419.12 408.47 419.02 408.23 418.82C408.003 418.607 407.89 418.307 407.89 417.92V410.18C407.89 409.807 408.01 409.52 408.25 409.32C408.49 409.12 408.79 409.02 409.15 409.02C409.497 409.02 409.777 409.12 409.99 409.32C410.217 409.507 410.33 409.78 410.33 410.14V410.62C410.637 410.087 411.043 409.68 411.55 409.4C412.07 409.12 412.663 408.98 413.33 408.98C414.797 408.98 415.777 409.593 416.27 410.82C416.563 410.26 416.997 409.813 417.57 409.48C418.143 409.147 418.79 408.98 419.51 408.98ZM429.591 408.98C430.951 408.98 431.957 409.32 432.611 410C433.277 410.667 433.611 411.687 433.611 413.06V417.94C433.611 418.3 433.504 418.587 433.291 418.8C433.077 419 432.784 419.1 432.411 419.1C432.064 419.1 431.777 418.993 431.551 418.78C431.337 418.567 431.231 418.287 431.231 417.94V417.5C431.004 418.02 430.644 418.427 430.151 418.72C429.671 419.013 429.111 419.16 428.471 419.16C427.817 419.16 427.224 419.027 426.691 418.76C426.157 418.493 425.737 418.127 425.431 417.66C425.124 417.193 424.971 416.673 424.971 416.1C424.971 415.38 425.151 414.813 425.511 414.4C425.884 413.987 426.484 413.687 427.311 413.5C428.137 413.313 429.277 413.22 430.731 413.22H431.231V412.76C431.231 412.107 431.091 411.633 430.811 411.34C430.531 411.033 430.077 410.88 429.451 410.88C429.064 410.88 428.671 410.94 428.271 411.06C427.871 411.167 427.397 411.327 426.851 411.54C426.504 411.713 426.251 411.8 426.091 411.8C425.851 411.8 425.651 411.713 425.491 411.54C425.344 411.367 425.271 411.14 425.271 410.86C425.271 410.633 425.324 410.44 425.431 410.28C425.551 410.107 425.744 409.947 426.011 409.8C426.477 409.547 427.031 409.347 427.671 409.2C428.324 409.053 428.964 408.98 429.591 408.98ZM428.971 417.36C429.637 417.36 430.177 417.14 430.591 416.7C431.017 416.247 431.231 415.667 431.231 414.96V414.54H430.871C429.977 414.54 429.284 414.58 428.791 414.66C428.297 414.74 427.944 414.88 427.731 415.08C427.517 415.28 427.411 415.553 427.411 415.9C427.411 416.327 427.557 416.68 427.851 416.96C428.157 417.227 428.531 417.36 428.971 417.36ZM441.232 417.26C441.898 417.3 442.232 417.6 442.232 418.16C442.232 418.48 442.098 418.727 441.832 418.9C441.578 419.06 441.212 419.127 440.732 419.1L440.192 419.06C437.952 418.9 436.832 417.7 436.832 415.46V411.1H435.832C435.472 411.1 435.192 411.02 434.992 410.86C434.805 410.7 434.712 410.467 434.712 410.16C434.712 409.853 434.805 409.62 434.992 409.46C435.192 409.3 435.472 409.22 435.832 409.22H436.832V407.38C436.832 407.02 436.945 406.733 437.172 406.52C437.398 406.307 437.705 406.2 438.092 406.2C438.465 406.2 438.765 406.307 438.992 406.52C439.218 406.733 439.332 407.02 439.332 407.38V409.22H441.032C441.392 409.22 441.665 409.3 441.852 409.46C442.052 409.62 442.152 409.853 442.152 410.16C442.152 410.467 442.052 410.7 441.852 410.86C441.665 411.02 441.392 411.1 441.032 411.1H439.332V415.64C439.332 416.627 439.785 417.153 440.692 417.22L441.232 417.26ZM451.274 416.32C451.501 416.32 451.681 416.407 451.814 416.58C451.961 416.753 452.034 416.987 452.034 417.28C452.034 417.693 451.788 418.04 451.294 418.32C450.841 418.573 450.328 418.78 449.754 418.94C449.181 419.087 448.634 419.16 448.114 419.16C446.541 419.16 445.294 418.707 444.374 417.8C443.454 416.893 442.994 415.653 442.994 414.08C442.994 413.08 443.194 412.193 443.594 411.42C443.994 410.647 444.554 410.047 445.274 409.62C446.008 409.193 446.834 408.98 447.754 408.98C448.634 408.98 449.401 409.173 450.054 409.56C450.708 409.947 451.214 410.493 451.574 411.2C451.934 411.907 452.114 412.74 452.114 413.7C452.114 414.273 451.861 414.56 451.354 414.56H445.454C445.534 415.48 445.794 416.16 446.234 416.6C446.674 417.027 447.314 417.24 448.154 417.24C448.581 417.24 448.954 417.187 449.274 417.08C449.608 416.973 449.981 416.827 450.394 416.64C450.794 416.427 451.088 416.32 451.274 416.32ZM447.814 410.74C447.134 410.74 446.588 410.953 446.174 411.38C445.774 411.807 445.534 412.42 445.454 413.22H449.974C449.948 412.407 449.748 411.793 449.374 411.38C449.001 410.953 448.481 410.74 447.814 410.74Z" fill="white"/>
<rect x="478" y="398" width="125" height="28" rx="5" fill="#444444"/>
<path d="M497.339 417.46C497.419 417.633 497.459 417.807 497.459 417.98C497.459 418.287 497.332 418.547 497.079 418.76C496.839 418.973 496.559 419.08 496.239 419.08C496.026 419.08 495.826 419.027 495.639 418.92C495.452 418.8 495.306 418.62 495.199 418.38L493.999 415.7H486.959L485.759 418.38C485.652 418.62 485.506 418.8 485.319 418.92C485.132 419.027 484.926 419.08 484.699 419.08C484.392 419.08 484.112 418.973 483.859 418.76C483.606 418.547 483.479 418.287 483.479 417.98C483.479 417.807 483.519 417.633 483.599 417.46L489.119 405.6C489.239 405.333 489.419 405.133 489.659 405C489.912 404.853 490.179 404.78 490.459 404.78C490.739 404.78 490.999 404.853 491.239 405C491.492 405.133 491.679 405.333 491.799 405.6L497.339 417.46ZM493.119 413.7L490.479 407.76L487.839 413.7H493.119ZM503.523 419.16C502.549 419.16 501.689 418.953 500.943 418.54C500.209 418.127 499.643 417.54 499.243 416.78C498.843 416.02 498.643 415.133 498.643 414.12C498.643 413.107 498.849 412.213 499.263 411.44C499.689 410.653 500.283 410.047 501.043 409.62C501.803 409.193 502.676 408.98 503.663 408.98C504.183 408.98 504.703 409.053 505.223 409.2C505.756 409.347 506.223 409.547 506.623 409.8C507.049 410.08 507.263 410.433 507.263 410.86C507.263 411.153 507.189 411.393 507.043 411.58C506.909 411.753 506.729 411.84 506.503 411.84C506.356 411.84 506.203 411.807 506.043 411.74C505.883 411.673 505.723 411.593 505.563 411.5C505.269 411.327 504.989 411.193 504.723 411.1C504.456 410.993 504.149 410.94 503.803 410.94C502.976 410.94 502.336 411.213 501.883 411.76C501.443 412.293 501.223 413.067 501.223 414.08C501.223 415.08 501.443 415.853 501.883 416.4C502.336 416.933 502.976 417.2 503.803 417.2C504.136 417.2 504.429 417.153 504.683 417.06C504.949 416.953 505.243 416.813 505.563 416.64C505.763 416.52 505.936 416.433 506.083 416.38C506.229 416.313 506.376 416.28 506.523 416.28C506.736 416.28 506.916 416.373 507.063 416.56C507.209 416.747 507.283 416.98 507.283 417.26C507.283 417.487 507.229 417.687 507.123 417.86C507.029 418.02 506.869 418.167 506.643 418.3C506.229 418.567 505.749 418.78 505.203 418.94C504.656 419.087 504.096 419.16 503.523 419.16ZM514.087 417.26C514.754 417.3 515.087 417.6 515.087 418.16C515.087 418.48 514.954 418.727 514.687 418.9C514.434 419.06 514.067 419.127 513.587 419.1L513.047 419.06C510.807 418.9 509.687 417.7 509.687 415.46V411.1H508.687C508.327 411.1 508.047 411.02 507.847 410.86C507.66 410.7 507.567 410.467 507.567 410.16C507.567 409.853 507.66 409.62 507.847 409.46C508.047 409.3 508.327 409.22 508.687 409.22H509.687V407.38C509.687 407.02 509.8 406.733 510.027 406.52C510.254 406.307 510.56 406.2 510.947 406.2C511.32 406.2 511.62 406.307 511.847 406.52C512.074 406.733 512.187 407.02 512.187 407.38V409.22H513.887C514.247 409.22 514.52 409.3 514.707 409.46C514.907 409.62 515.007 409.853 515.007 410.16C515.007 410.467 514.907 410.7 514.707 410.86C514.52 411.02 514.247 411.1 513.887 411.1H512.187V415.64C512.187 416.627 512.64 417.153 513.547 417.22L514.087 417.26ZM524.11 409.02C524.497 409.02 524.803 409.127 525.03 409.34C525.257 409.553 525.37 409.84 525.37 410.2V417.96C525.37 418.307 525.25 418.587 525.01 418.8C524.783 419.013 524.483 419.12 524.11 419.12C523.75 419.12 523.463 419.02 523.25 418.82C523.037 418.62 522.93 418.347 522.93 418V417.5C522.623 418.033 522.21 418.447 521.69 418.74C521.17 419.02 520.583 419.16 519.93 419.16C517.53 419.16 516.33 417.813 516.33 415.12V410.2C516.33 409.84 516.443 409.553 516.67 409.34C516.897 409.127 517.197 409.02 517.57 409.02C517.957 409.02 518.263 409.127 518.49 409.34C518.717 409.553 518.83 409.84 518.83 410.2V415.14C518.83 415.833 518.97 416.347 519.25 416.68C519.53 417.013 519.97 417.18 520.57 417.18C521.263 417.18 521.817 416.953 522.23 416.5C522.657 416.033 522.87 415.42 522.87 414.66V410.2C522.87 409.84 522.983 409.553 523.21 409.34C523.437 409.127 523.737 409.02 524.11 409.02ZM532.212 408.98C533.572 408.98 534.579 409.32 535.232 410C535.899 410.667 536.232 411.687 536.232 413.06V417.94C536.232 418.3 536.125 418.587 535.912 418.8C535.699 419 535.405 419.1 535.032 419.1C534.685 419.1 534.399 418.993 534.172 418.78C533.959 418.567 533.852 418.287 533.852 417.94V417.5C533.625 418.02 533.265 418.427 532.772 418.72C532.292 419.013 531.732 419.16 531.092 419.16C530.439 419.16 529.845 419.027 529.312 418.76C528.779 418.493 528.359 418.127 528.052 417.66C527.745 417.193 527.592 416.673 527.592 416.1C527.592 415.38 527.772 414.813 528.132 414.4C528.505 413.987 529.105 413.687 529.932 413.5C530.759 413.313 531.899 413.22 533.352 413.22H533.852V412.76C533.852 412.107 533.712 411.633 533.432 411.34C533.152 411.033 532.699 410.88 532.072 410.88C531.685 410.88 531.292 410.94 530.892 411.06C530.492 411.167 530.019 411.327 529.472 411.54C529.125 411.713 528.872 411.8 528.712 411.8C528.472 411.8 528.272 411.713 528.112 411.54C527.965 411.367 527.892 411.14 527.892 410.86C527.892 410.633 527.945 410.44 528.052 410.28C528.172 410.107 528.365 409.947 528.632 409.8C529.099 409.547 529.652 409.347 530.292 409.2C530.945 409.053 531.585 408.98 532.212 408.98ZM531.592 417.36C532.259 417.36 532.799 417.14 533.212 416.7C533.639 416.247 533.852 415.667 533.852 414.96V414.54H533.492C532.599 414.54 531.905 414.58 531.412 414.66C530.919 414.74 530.565 414.88 530.352 415.08C530.139 415.28 530.032 415.553 530.032 415.9C530.032 416.327 530.179 416.68 530.472 416.96C530.779 417.227 531.152 417.36 531.592 417.36ZM540.013 419.12C539.653 419.12 539.353 419.02 539.113 418.82C538.886 418.607 538.773 418.307 538.773 417.92V405.98C538.773 405.593 538.886 405.3 539.113 405.1C539.353 404.9 539.653 404.8 540.013 404.8C540.373 404.8 540.673 404.9 540.913 405.1C541.153 405.3 541.273 405.593 541.273 405.98V417.92C541.273 418.307 541.153 418.607 540.913 418.82C540.673 419.02 540.373 419.12 540.013 419.12ZM553.62 419.16C552.647 419.16 551.787 418.953 551.04 418.54C550.307 418.127 549.74 417.54 549.34 416.78C548.94 416.02 548.74 415.133 548.74 414.12C548.74 413.107 548.947 412.213 549.36 411.44C549.787 410.653 550.38 410.047 551.14 409.62C551.9 409.193 552.774 408.98 553.76 408.98C554.28 408.98 554.8 409.053 555.32 409.2C555.854 409.347 556.32 409.547 556.72 409.8C557.147 410.08 557.36 410.433 557.36 410.86C557.36 411.153 557.287 411.393 557.14 411.58C557.007 411.753 556.827 411.84 556.6 411.84C556.454 411.84 556.3 411.807 556.14 411.74C555.98 411.673 555.82 411.593 555.66 411.5C555.367 411.327 555.087 411.193 554.82 411.1C554.554 410.993 554.247 410.94 553.9 410.94C553.074 410.94 552.434 411.213 551.98 411.76C551.54 412.293 551.32 413.067 551.32 414.08C551.32 415.08 551.54 415.853 551.98 416.4C552.434 416.933 553.074 417.2 553.9 417.2C554.234 417.2 554.527 417.153 554.78 417.06C555.047 416.953 555.34 416.813 555.66 416.64C555.86 416.52 556.034 416.433 556.18 416.38C556.327 416.313 556.474 416.28 556.62 416.28C556.834 416.28 557.014 416.373 557.16 416.56C557.307 416.747 557.38 416.98 557.38 417.26C557.38 417.487 557.327 417.687 557.22 417.86C557.127 418.02 556.967 418.167 556.74 418.3C556.327 418.567 555.847 418.78 555.3 418.94C554.754 419.087 554.194 419.16 553.62 419.16ZM560.286 419.12C559.926 419.12 559.626 419.02 559.386 418.82C559.159 418.607 559.046 418.307 559.046 417.92V405.98C559.046 405.593 559.159 405.3 559.386 405.1C559.626 404.9 559.926 404.8 560.286 404.8C560.646 404.8 560.946 404.9 561.186 405.1C561.426 405.3 561.546 405.593 561.546 405.98V417.92C561.546 418.307 561.426 418.607 561.186 418.82C560.946 419.02 560.646 419.12 560.286 419.12ZM565.364 419.12C565.004 419.12 564.704 419.02 564.464 418.82C564.238 418.607 564.124 418.307 564.124 417.92V410.2C564.124 409.813 564.238 409.52 564.464 409.32C564.704 409.12 565.004 409.02 565.364 409.02C565.724 409.02 566.024 409.12 566.264 409.32C566.504 409.52 566.624 409.813 566.624 410.2V417.92C566.624 418.307 566.504 418.607 566.264 418.82C566.024 419.02 565.724 419.12 565.364 419.12ZM565.364 407.24C564.911 407.24 564.551 407.12 564.284 406.88C564.018 406.627 563.884 406.3 563.884 405.9C563.884 405.5 564.018 405.18 564.284 404.94C564.551 404.7 564.911 404.58 565.364 404.58C565.804 404.58 566.158 404.7 566.424 404.94C566.704 405.18 566.844 405.5 566.844 405.9C566.844 406.3 566.711 406.627 566.444 406.88C566.178 407.12 565.818 407.24 565.364 407.24ZM573.542 419.16C572.569 419.16 571.709 418.953 570.962 418.54C570.229 418.127 569.662 417.54 569.262 416.78C568.862 416.02 568.662 415.133 568.662 414.12C568.662 413.107 568.869 412.213 569.282 411.44C569.709 410.653 570.302 410.047 571.062 409.62C571.822 409.193 572.696 408.98 573.682 408.98C574.202 408.98 574.722 409.053 575.242 409.2C575.776 409.347 576.242 409.547 576.642 409.8C577.069 410.08 577.282 410.433 577.282 410.86C577.282 411.153 577.209 411.393 577.062 411.58C576.929 411.753 576.749 411.84 576.522 411.84C576.376 411.84 576.222 411.807 576.062 411.74C575.902 411.673 575.742 411.593 575.582 411.5C575.289 411.327 575.009 411.193 574.742 411.1C574.476 410.993 574.169 410.94 573.822 410.94C572.996 410.94 572.356 411.213 571.902 411.76C571.462 412.293 571.242 413.067 571.242 414.08C571.242 415.08 571.462 415.853 571.902 416.4C572.356 416.933 572.996 417.2 573.822 417.2C574.156 417.2 574.449 417.153 574.702 417.06C574.969 416.953 575.262 416.813 575.582 416.64C575.782 416.52 575.956 416.433 576.102 416.38C576.249 416.313 576.396 416.28 576.542 416.28C576.756 416.28 576.936 416.373 577.082 416.56C577.229 416.747 577.302 416.98 577.302 417.26C577.302 417.487 577.249 417.687 577.142 417.86C577.049 418.02 576.889 418.167 576.662 418.3C576.249 418.567 575.769 418.78 575.222 418.94C574.676 419.087 574.116 419.16 573.542 419.16ZM587.668 417.06C587.935 417.313 588.068 417.6 588.068 417.92C588.068 418.227 587.955 418.5 587.728 418.74C587.515 418.98 587.261 419.1 586.968 419.1C586.675 419.1 586.401 418.98 586.148 418.74L581.468 414.5V417.92C581.468 418.307 581.348 418.6 581.108 418.8C580.868 419 580.568 419.1 580.208 419.1C579.848 419.1 579.548 419 579.308 418.8C579.081 418.6 578.968 418.307 578.968 417.92V405.98C578.968 405.593 579.081 405.3 579.308 405.1C579.548 404.9 579.848 404.8 580.208 404.8C580.568 404.8 580.868 404.9 581.108 405.1C581.348 405.3 581.468 405.593 581.468 405.98V413.5L585.748 409.4C585.988 409.16 586.261 409.04 586.568 409.04C586.875 409.04 587.141 409.153 587.368 409.38C587.595 409.607 587.708 409.873 587.708 410.18C587.708 410.487 587.581 410.767 587.328 411.02L584.188 413.94L587.668 417.06ZM593.094 419.16C591.641 419.16 590.467 418.873 589.574 418.3C589.147 418.047 588.934 417.687 588.934 417.22C588.934 416.953 589.007 416.74 589.154 416.58C589.301 416.407 589.481 416.32 589.694 416.32C589.921 416.32 590.234 416.427 590.634 416.64C591.061 416.84 591.447 416.993 591.794 417.1C592.154 417.207 592.607 417.26 593.154 417.26C593.714 417.26 594.147 417.167 594.454 416.98C594.774 416.793 594.934 416.533 594.934 416.2C594.934 415.973 594.867 415.793 594.734 415.66C594.614 415.527 594.387 415.407 594.054 415.3C593.734 415.18 593.241 415.047 592.574 414.9C591.387 414.66 590.534 414.32 590.014 413.88C589.507 413.44 589.254 412.833 589.254 412.06C589.254 411.473 589.427 410.947 589.774 410.48C590.121 410 590.594 409.633 591.194 409.38C591.807 409.113 592.501 408.98 593.274 408.98C593.834 408.98 594.374 409.053 594.894 409.2C595.414 409.333 595.881 409.533 596.294 409.8C596.721 410.067 596.934 410.42 596.934 410.86C596.934 411.127 596.861 411.353 596.714 411.54C596.567 411.713 596.387 411.8 596.174 411.8C596.027 411.8 595.881 411.773 595.734 411.72C595.601 411.653 595.427 411.56 595.214 411.44C594.827 411.24 594.494 411.093 594.214 411C593.934 410.893 593.587 410.84 593.174 410.84C592.681 410.84 592.287 410.94 591.994 411.14C591.714 411.34 591.574 411.613 591.574 411.96C591.574 412.293 591.721 412.547 592.014 412.72C592.307 412.893 592.874 413.067 593.714 413.24C594.607 413.427 595.307 413.64 595.814 413.88C596.321 414.12 596.681 414.42 596.894 414.78C597.121 415.14 597.234 415.6 597.234 416.16C597.234 417.067 596.854 417.793 596.094 418.34C595.347 418.887 594.347 419.16 593.094 419.16Z" fill="white"/>
<path d="M107.207 57.2929C106.817 56.9024 106.183 56.9024 105.793 57.2929L99.4289 63.6569C99.0384 64.0474 99.0384 64.6805 99.4289 65.0711C99.8195 65.4616 100.453 65.4616 100.843 65.0711L106.5 59.4142L112.157 65.0711C112.547 65.4616 113.181 65.4616 113.571 65.0711C113.962 64.6805 113.962 64.0474 113.571 63.6569L107.207 57.2929ZM105.5 58L105.5 387L107.5 387L107.5 58L105.5 58Z" fill="black"/>
<path d="M657.707 388.207C658.098 387.817 658.098 387.183 657.707 386.793L651.343 380.429C650.953 380.038 650.319 380.038 649.929 380.429C649.538 380.819 649.538 381.453 649.929 381.843L655.586 387.5L649.929 393.157C649.538 393.547 649.538 394.181 649.929 394.571C650.319 394.962 650.953 394.962 651.343 394.571L657.707 388.207ZM657 386.5L106 386.5V388.5L657 388.5V386.5Z" fill="black"/>
</g>
<defs>
<clipPath id="clip0_1638_1079">
<rect width="680" height="427" fill="white"/>
</clipPath>
</defs>
</svg>
