<svg width="289" height="96" viewBox="0 0 289 96" fill="none" xmlns="http://www.w3.org/2000/svg">
<g clip-path="url(#clip0_1648_1717)">
<g clip-path="url(#clip1_1648_1717)">
<rect width="212" height="48" fill="#FAF2FF"/>
<rect width="212" height="48" stroke="#646464"/>
<path d="M30.3157 31.16C29.9024 31.16 29.5824 31.0467 29.3557 30.82C29.1424 30.58 29.0357 30.2533 29.0357 29.84V19.04H25.1357C24.789 19.04 24.5157 18.9467 24.3157 18.76C24.129 18.56 24.0357 18.2933 24.0357 17.96C24.0357 17.6133 24.129 17.3533 24.3157 17.18C24.5157 16.9933 24.789 16.9 25.1357 16.9H35.4957C35.8424 16.9 36.109 16.9933 36.2957 17.18C36.4957 17.3533 36.5957 17.6133 36.5957 17.96C36.5957 18.2933 36.4957 18.56 36.2957 18.76C36.109 18.9467 35.8424 19.04 35.4957 19.04H31.5957V29.84C31.5957 30.2533 31.489 30.58 31.2757 30.82C31.0624 31.0467 30.7424 31.16 30.3157 31.16ZM40.1513 31.14C39.7513 31.14 39.4447 31.02 39.2313 30.78C39.018 30.54 38.9113 30.2067 38.9113 29.78V22.44C38.9113 22 39.018 21.6667 39.2313 21.44C39.4447 21.2 39.7513 21.08 40.1513 21.08C40.5513 21.08 40.858 21.2 41.0713 21.44C41.298 21.6667 41.4113 22 41.4113 22.44V29.78C41.4113 30.2067 41.3047 30.54 41.0913 30.78C40.878 31.02 40.5647 31.14 40.1513 31.14ZM40.1513 19.22C39.6847 19.22 39.318 19.1067 39.0513 18.88C38.798 18.64 38.6713 18.3133 38.6713 17.9C38.6713 17.4733 38.798 17.1467 39.0513 16.92C39.318 16.6933 39.6847 16.58 40.1513 16.58C40.6313 16.58 40.998 16.6933 41.2513 16.92C41.5047 17.1467 41.6313 17.4733 41.6313 17.9C41.6313 18.3133 41.5047 18.64 41.2513 18.88C40.998 19.1067 40.6313 19.22 40.1513 19.22ZM45.289 31.16C44.889 31.16 44.5823 31.0533 44.369 30.84C44.1557 30.6133 44.049 30.2933 44.049 29.88V22.32C44.049 21.9067 44.1557 21.5933 44.369 21.38C44.5823 21.1667 44.8823 21.06 45.269 21.06C45.6557 21.06 45.9557 21.1667 46.169 21.38C46.3823 21.5933 46.489 21.9067 46.489 22.32V23.78L46.269 23.18C46.5357 22.5133 46.949 21.9867 47.509 21.6C48.069 21.2133 48.7357 21.02 49.509 21.02C50.2957 21.02 50.9423 21.2067 51.449 21.58C51.9557 21.9533 52.309 22.5267 52.509 23.3H52.229C52.4957 22.5933 52.9357 22.04 53.549 21.64C54.1623 21.2267 54.869 21.02 55.669 21.02C56.4157 21.02 57.029 21.1667 57.509 21.46C58.0023 21.7533 58.369 22.2 58.609 22.8C58.849 23.3867 58.969 24.1333 58.969 25.04V29.88C58.969 30.2933 58.8557 30.6133 58.629 30.84C58.4157 31.0533 58.109 31.16 57.709 31.16C57.309 31.16 57.0023 31.0533 56.789 30.84C56.5757 30.6133 56.469 30.2933 56.469 29.88V25.14C56.469 24.3933 56.3423 23.8467 56.089 23.5C55.849 23.1533 55.4357 22.98 54.849 22.98C54.1957 22.98 53.6823 23.2133 53.309 23.68C52.9357 24.1333 52.749 24.7667 52.749 25.58V29.88C52.749 30.2933 52.6423 30.6133 52.429 30.84C52.2157 31.0533 51.909 31.16 51.509 31.16C51.109 31.16 50.7957 31.0533 50.569 30.84C50.3557 30.6133 50.249 30.2933 50.249 29.88V25.14C50.249 24.3933 50.1223 23.8467 49.869 23.5C49.629 23.1533 49.2223 22.98 48.649 22.98C47.9957 22.98 47.4823 23.2133 47.109 23.68C46.7357 24.1333 46.549 24.7667 46.549 25.58V29.88C46.549 30.7333 46.129 31.16 45.289 31.16ZM66.368 31.2C65.2614 31.2 64.308 30.9933 63.508 30.58C62.708 30.1667 62.088 29.58 61.648 28.82C61.2214 28.06 61.008 27.16 61.008 26.12C61.008 25.1067 61.2147 24.22 61.628 23.46C62.0547 22.7 62.6347 22.1067 63.368 21.68C64.1147 21.24 64.9614 21.02 65.908 21.02C66.6014 21.02 67.2214 21.1333 67.768 21.36C68.328 21.5867 68.8014 21.9133 69.188 22.34C69.588 22.7667 69.888 23.2867 70.088 23.9C70.3014 24.5 70.408 25.18 70.408 25.94C70.408 26.18 70.3214 26.3667 70.148 26.5C69.988 26.62 69.7547 26.68 69.448 26.68H63.028V25.24H68.648L68.328 25.54C68.328 24.9267 68.2347 24.4133 68.048 24C67.8747 23.5867 67.6147 23.2733 67.268 23.06C66.9347 22.8333 66.5147 22.72 66.008 22.72C65.448 22.72 64.968 22.8533 64.568 23.12C64.1814 23.3733 63.8814 23.74 63.668 24.22C63.468 24.6867 63.368 25.2467 63.368 25.9V26.04C63.368 27.1333 63.6214 27.9533 64.128 28.5C64.648 29.0333 65.408 29.3 66.408 29.3C66.7547 29.3 67.1414 29.26 67.568 29.18C68.008 29.0867 68.4214 28.9333 68.808 28.72C69.088 28.56 69.3347 28.4933 69.548 28.52C69.7614 28.5333 69.928 28.6067 70.048 28.74C70.1814 28.8733 70.2614 29.04 70.288 29.24C70.3147 29.4267 70.2747 29.62 70.168 29.82C70.0747 30.02 69.908 30.1933 69.668 30.34C69.2014 30.6333 68.6614 30.8533 68.048 31C67.448 31.1333 66.888 31.2 66.368 31.2ZM80.8576 34.26C80.0309 32.9533 79.4309 31.58 79.0576 30.14C78.6976 28.6867 78.5176 27.22 78.5176 25.74C78.5176 24.7533 78.5976 23.7733 78.7576 22.8C78.9176 21.8267 79.1709 20.8733 79.5176 19.94C79.8642 18.9933 80.3109 18.0867 80.8576 17.22C81.0042 16.98 81.1976 16.8333 81.4376 16.78C81.6909 16.7133 81.9242 16.7267 82.1376 16.82C82.3642 16.9133 82.5309 17.0867 82.6376 17.34C82.7442 17.58 82.7309 17.8867 82.5976 18.26C82.2776 19.1133 82.0109 19.9533 81.7976 20.78C81.5976 21.5933 81.4442 22.4067 81.3376 23.22C81.2442 24.0333 81.1976 24.8733 81.1976 25.74C81.1976 26.6067 81.2509 27.4467 81.3576 28.26C81.4642 29.0733 81.6242 29.8867 81.8376 30.7C82.0509 31.5133 82.3042 32.3533 82.5976 33.22C82.7309 33.5933 82.7442 33.9 82.6376 34.14C82.5309 34.3933 82.3642 34.5667 82.1376 34.66C81.9242 34.7533 81.6909 34.7667 81.4376 34.7C81.1976 34.6467 81.0042 34.5 80.8576 34.26ZM86.2255 31.14C85.8255 31.14 85.5189 31.02 85.3055 30.78C85.0922 30.54 84.9855 30.2067 84.9855 29.78V22.44C84.9855 22 85.0922 21.6667 85.3055 21.44C85.5189 21.2 85.8255 21.08 86.2255 21.08C86.6255 21.08 86.9322 21.2 87.1455 21.44C87.3722 21.6667 87.4855 22 87.4855 22.44V29.78C87.4855 30.2067 87.3789 30.54 87.1655 30.78C86.9522 31.02 86.6389 31.14 86.2255 31.14ZM86.2255 19.22C85.7589 19.22 85.3922 19.1067 85.1255 18.88C84.8722 18.64 84.7455 18.3133 84.7455 17.9C84.7455 17.4733 84.8722 17.1467 85.1255 16.92C85.3922 16.6933 85.7589 16.58 86.2255 16.58C86.7055 16.58 87.0722 16.6933 87.3255 16.92C87.5789 17.1467 87.7055 17.4733 87.7055 17.9C87.7055 18.3133 87.5789 18.64 87.3255 18.88C87.0722 19.1067 86.7055 19.22 86.2255 19.22ZM91.3232 31.16C90.9232 31.16 90.6165 31.0533 90.4032 30.84C90.1899 30.6133 90.0832 30.2933 90.0832 29.88V22.32C90.0832 21.9067 90.1899 21.5933 90.4032 21.38C90.6165 21.1667 90.9165 21.06 91.3032 21.06C91.6899 21.06 91.9899 21.1667 92.2032 21.38C92.4165 21.5933 92.5232 21.9067 92.5232 22.32V23.68L92.3032 23.18C92.5965 22.4733 93.0499 21.94 93.6632 21.58C94.2899 21.2067 94.9965 21.02 95.7832 21.02C96.5699 21.02 97.2165 21.1667 97.7232 21.46C98.2299 21.7533 98.6099 22.2 98.8632 22.8C99.1165 23.3867 99.2432 24.1333 99.2432 25.04V29.88C99.2432 30.2933 99.1365 30.6133 98.9232 30.84C98.7099 31.0533 98.4032 31.16 98.0032 31.16C97.6032 31.16 97.2899 31.0533 97.0632 30.84C96.8499 30.6133 96.7432 30.2933 96.7432 29.88V25.16C96.7432 24.4 96.5965 23.8467 96.3032 23.5C96.0232 23.1533 95.5832 22.98 94.9832 22.98C94.2499 22.98 93.6632 23.2133 93.2232 23.68C92.7965 24.1333 92.5832 24.74 92.5832 25.5V29.88C92.5832 30.7333 92.1632 31.16 91.3232 31.16ZM110.792 31.2C110.219 31.2 109.612 31.14 108.972 31.02C108.332 30.9 107.759 30.6933 107.252 30.4C107.039 30.2667 106.885 30.1133 106.792 29.94C106.712 29.7533 106.679 29.5733 106.692 29.4C106.719 29.2133 106.785 29.0533 106.892 28.92C107.012 28.7867 107.159 28.7 107.332 28.66C107.519 28.62 107.719 28.6533 107.932 28.76C108.465 29.0133 108.965 29.1933 109.432 29.3C109.899 29.3933 110.359 29.44 110.812 29.44C111.452 29.44 111.925 29.3333 112.232 29.12C112.552 28.8933 112.712 28.6 112.712 28.24C112.712 27.9333 112.605 27.7 112.392 27.54C112.192 27.3667 111.885 27.24 111.472 27.16L109.472 26.78C108.645 26.62 108.012 26.32 107.572 25.88C107.145 25.4267 106.932 24.8467 106.932 24.14C106.932 23.5 107.105 22.9467 107.452 22.48C107.812 22.0133 108.305 21.6533 108.932 21.4C109.559 21.1467 110.279 21.02 111.092 21.02C111.679 21.02 112.225 21.0867 112.732 21.22C113.252 21.34 113.752 21.5333 114.232 21.8C114.432 21.9067 114.565 22.0467 114.632 22.22C114.712 22.3933 114.732 22.5733 114.692 22.76C114.652 22.9333 114.572 23.0933 114.452 23.24C114.332 23.3733 114.179 23.46 113.992 23.5C113.819 23.5267 113.619 23.4867 113.392 23.38C112.979 23.1667 112.579 23.0133 112.192 22.92C111.819 22.8267 111.459 22.78 111.112 22.78C110.459 22.78 109.972 22.8933 109.652 23.12C109.345 23.3467 109.192 23.6467 109.192 24.02C109.192 24.3 109.285 24.5333 109.472 24.72C109.659 24.9067 109.945 25.0333 110.332 25.1L112.332 25.48C113.199 25.64 113.852 25.9333 114.292 26.36C114.745 26.7867 114.972 27.36 114.972 28.08C114.972 29.0533 114.592 29.82 113.832 30.38C113.072 30.9267 112.059 31.2 110.792 31.2ZM121.798 31.2C120.691 31.2 119.738 30.9933 118.938 30.58C118.138 30.1667 117.518 29.58 117.078 28.82C116.651 28.06 116.438 27.16 116.438 26.12C116.438 25.1067 116.644 24.22 117.058 23.46C117.484 22.7 118.064 22.1067 118.798 21.68C119.544 21.24 120.391 21.02 121.338 21.02C122.031 21.02 122.651 21.1333 123.198 21.36C123.758 21.5867 124.231 21.9133 124.618 22.34C125.018 22.7667 125.318 23.2867 125.518 23.9C125.731 24.5 125.838 25.18 125.838 25.94C125.838 26.18 125.751 26.3667 125.578 26.5C125.418 26.62 125.184 26.68 124.878 26.68H118.458V25.24H124.078L123.758 25.54C123.758 24.9267 123.664 24.4133 123.478 24C123.304 23.5867 123.044 23.2733 122.698 23.06C122.364 22.8333 121.944 22.72 121.438 22.72C120.878 22.72 120.398 22.8533 119.998 23.12C119.611 23.3733 119.311 23.74 119.098 24.22C118.898 24.6867 118.798 25.2467 118.798 25.9V26.04C118.798 27.1333 119.051 27.9533 119.558 28.5C120.078 29.0333 120.838 29.3 121.838 29.3C122.184 29.3 122.571 29.26 122.998 29.18C123.438 29.0867 123.851 28.9333 124.238 28.72C124.518 28.56 124.764 28.4933 124.978 28.52C125.191 28.5333 125.358 28.6067 125.478 28.74C125.611 28.8733 125.691 29.04 125.718 29.24C125.744 29.4267 125.704 29.62 125.598 29.82C125.504 30.02 125.338 30.1933 125.098 30.34C124.631 30.6333 124.091 30.8533 123.478 31C122.878 31.1333 122.318 31.2 121.798 31.2ZM132.338 31.2C131.311 31.2 130.418 30.9933 129.658 30.58C128.898 30.1533 128.311 29.5533 127.898 28.78C127.484 28.0067 127.278 27.1 127.278 26.06C127.278 25.2733 127.391 24.5733 127.618 23.96C127.858 23.3333 128.198 22.8067 128.638 22.38C129.078 21.94 129.611 21.6067 130.238 21.38C130.864 21.14 131.564 21.02 132.338 21.02C132.778 21.02 133.251 21.08 133.758 21.2C134.278 21.32 134.764 21.52 135.218 21.8C135.431 21.9333 135.571 22.0933 135.638 22.28C135.704 22.4667 135.718 22.66 135.678 22.86C135.638 23.0467 135.551 23.2133 135.418 23.36C135.298 23.4933 135.144 23.58 134.958 23.62C134.771 23.6467 134.564 23.6 134.338 23.48C134.044 23.3067 133.744 23.18 133.438 23.1C133.131 23.0067 132.838 22.96 132.558 22.96C132.118 22.96 131.731 23.0333 131.398 23.18C131.064 23.3133 130.778 23.5133 130.538 23.78C130.311 24.0333 130.138 24.3533 130.018 24.74C129.898 25.1267 129.838 25.5733 129.838 26.08C129.838 27.0667 130.071 27.8467 130.538 28.42C131.018 28.98 131.691 29.26 132.558 29.26C132.838 29.26 133.124 29.22 133.418 29.14C133.724 29.06 134.031 28.9333 134.338 28.76C134.564 28.64 134.764 28.6 134.938 28.64C135.124 28.68 135.278 28.7733 135.398 28.92C135.518 29.0533 135.591 29.22 135.618 29.42C135.644 29.6067 135.618 29.7933 135.538 29.98C135.471 30.1667 135.338 30.32 135.138 30.44C134.698 30.7067 134.231 30.9 133.738 31.02C133.244 31.14 132.778 31.2 132.338 31.2ZM141.516 31.2C140.503 31.2 139.623 30.9933 138.876 30.58C138.129 30.1667 137.549 29.58 137.136 28.82C136.723 28.0467 136.516 27.14 136.516 26.1C136.516 25.3133 136.629 24.6133 136.856 24C137.096 23.3733 137.436 22.84 137.876 22.4C138.316 21.9467 138.843 21.6067 139.456 21.38C140.069 21.14 140.756 21.02 141.516 21.02C142.529 21.02 143.409 21.2267 144.156 21.64C144.903 22.0533 145.483 22.64 145.896 23.4C146.309 24.16 146.516 25.06 146.516 26.1C146.516 26.8867 146.396 27.5933 146.156 28.22C145.929 28.8467 145.596 29.3867 145.156 29.84C144.716 30.28 144.189 30.62 143.576 30.86C142.963 31.0867 142.276 31.2 141.516 31.2ZM141.516 29.3C142.009 29.3 142.443 29.18 142.816 28.94C143.189 28.7 143.476 28.3467 143.676 27.88C143.889 27.4 143.996 26.8067 143.996 26.1C143.996 25.0333 143.769 24.24 143.316 23.72C142.863 23.1867 142.263 22.92 141.516 22.92C141.023 22.92 140.589 23.04 140.216 23.28C139.843 23.5067 139.549 23.86 139.336 24.34C139.136 24.8067 139.036 25.3933 139.036 26.1C139.036 27.1533 139.263 27.9533 139.716 28.5C140.169 29.0333 140.769 29.3 141.516 29.3ZM149.819 31.16C149.419 31.16 149.113 31.0533 148.899 30.84C148.686 30.6133 148.579 30.2933 148.579 29.88V22.32C148.579 21.9067 148.686 21.5933 148.899 21.38C149.113 21.1667 149.413 21.06 149.799 21.06C150.186 21.06 150.486 21.1667 150.699 21.38C150.913 21.5933 151.019 21.9067 151.019 22.32V23.68L150.799 23.18C151.093 22.4733 151.546 21.94 152.159 21.58C152.786 21.2067 153.493 21.02 154.279 21.02C155.066 21.02 155.713 21.1667 156.219 21.46C156.726 21.7533 157.106 22.2 157.359 22.8C157.613 23.3867 157.739 24.1333 157.739 25.04V29.88C157.739 30.2933 157.633 30.6133 157.419 30.84C157.206 31.0533 156.899 31.16 156.499 31.16C156.099 31.16 155.786 31.0533 155.559 30.84C155.346 30.6133 155.239 30.2933 155.239 29.88V25.16C155.239 24.4 155.093 23.8467 154.799 23.5C154.519 23.1533 154.079 22.98 153.479 22.98C152.746 22.98 152.159 23.2133 151.719 23.68C151.293 24.1333 151.079 24.74 151.079 25.5V29.88C151.079 30.7333 150.659 31.16 149.819 31.16ZM164.039 31.2C163.185 31.2 162.432 30.9933 161.779 30.58C161.139 30.1667 160.639 29.58 160.279 28.82C159.919 28.0467 159.739 27.14 159.739 26.1C159.739 25.0467 159.919 24.1467 160.279 23.4C160.639 22.64 161.139 22.0533 161.779 21.64C162.432 21.2267 163.185 21.02 164.039 21.02C164.852 21.02 165.559 21.22 166.159 21.62C166.772 22.02 167.185 22.5467 167.399 23.2H167.179V18C167.179 17.5867 167.285 17.2733 167.499 17.06C167.712 16.8467 168.019 16.74 168.419 16.74C168.819 16.74 169.125 16.8467 169.339 17.06C169.565 17.2733 169.679 17.5867 169.679 18V29.88C169.679 30.2933 169.572 30.6133 169.359 30.84C169.145 31.0533 168.839 31.16 168.439 31.16C168.039 31.16 167.732 31.0533 167.519 30.84C167.305 30.6133 167.199 30.2933 167.199 29.88V28.32L167.419 28.92C167.219 29.6133 166.812 30.1667 166.199 30.58C165.585 30.9933 164.865 31.2 164.039 31.2ZM164.739 29.3C165.232 29.3 165.665 29.18 166.039 28.94C166.412 28.7 166.699 28.3467 166.899 27.88C167.112 27.4 167.219 26.8067 167.219 26.1C167.219 25.0333 166.992 24.24 166.539 23.72C166.085 23.1867 165.485 22.92 164.739 22.92C164.245 22.92 163.812 23.04 163.439 23.28C163.065 23.5067 162.772 23.86 162.559 24.34C162.359 24.8067 162.259 25.3933 162.259 26.1C162.259 27.1533 162.485 27.9533 162.939 28.5C163.392 29.0333 163.992 29.3 164.739 29.3ZM175.851 31.2C175.277 31.2 174.671 31.14 174.031 31.02C173.391 30.9 172.817 30.6933 172.311 30.4C172.097 30.2667 171.944 30.1133 171.851 29.94C171.771 29.7533 171.737 29.5733 171.751 29.4C171.777 29.2133 171.844 29.0533 171.951 28.92C172.071 28.7867 172.217 28.7 172.391 28.66C172.577 28.62 172.777 28.6533 172.991 28.76C173.524 29.0133 174.024 29.1933 174.491 29.3C174.957 29.3933 175.417 29.44 175.871 29.44C176.511 29.44 176.984 29.3333 177.291 29.12C177.611 28.8933 177.771 28.6 177.771 28.24C177.771 27.9333 177.664 27.7 177.451 27.54C177.251 27.3667 176.944 27.24 176.531 27.16L174.531 26.78C173.704 26.62 173.071 26.32 172.631 25.88C172.204 25.4267 171.991 24.8467 171.991 24.14C171.991 23.5 172.164 22.9467 172.511 22.48C172.871 22.0133 173.364 21.6533 173.991 21.4C174.617 21.1467 175.337 21.02 176.151 21.02C176.737 21.02 177.284 21.0867 177.791 21.22C178.311 21.34 178.811 21.5333 179.291 21.8C179.491 21.9067 179.624 22.0467 179.691 22.22C179.771 22.3933 179.791 22.5733 179.751 22.76C179.711 22.9333 179.631 23.0933 179.511 23.24C179.391 23.3733 179.237 23.46 179.051 23.5C178.877 23.5267 178.677 23.4867 178.451 23.38C178.037 23.1667 177.637 23.0133 177.251 22.92C176.877 22.8267 176.517 22.78 176.171 22.78C175.517 22.78 175.031 22.8933 174.711 23.12C174.404 23.3467 174.251 23.6467 174.251 24.02C174.251 24.3 174.344 24.5333 174.531 24.72C174.717 24.9067 175.004 25.0333 175.391 25.1L177.391 25.48C178.257 25.64 178.911 25.9333 179.351 26.36C179.804 26.7867 180.031 27.36 180.031 28.08C180.031 29.0533 179.651 29.82 178.891 30.38C178.131 30.9267 177.117 31.2 175.851 31.2ZM183.556 34.26C183.41 34.5 183.21 34.6467 182.956 34.7C182.716 34.7667 182.483 34.7467 182.256 34.64C182.03 34.5467 181.863 34.38 181.756 34.14C181.663 33.9 181.683 33.5933 181.816 33.22C182.15 32.3533 182.416 31.5133 182.616 30.7C182.816 29.8867 182.963 29.0733 183.056 28.26C183.163 27.4467 183.216 26.6067 183.216 25.74C183.216 24.8733 183.163 24.0333 183.056 23.22C182.95 22.4067 182.79 21.5933 182.576 20.78C182.376 19.9667 182.123 19.1267 181.816 18.26C181.683 17.8867 181.67 17.58 181.776 17.34C181.883 17.0867 182.05 16.9133 182.276 16.82C182.503 16.7267 182.736 16.7133 182.976 16.78C183.216 16.8333 183.41 16.98 183.556 17.22C184.37 18.5133 184.963 19.8867 185.336 21.34C185.71 22.7933 185.896 24.26 185.896 25.74C185.896 26.7267 185.81 27.7067 185.636 28.68C185.476 29.6533 185.223 30.6067 184.876 31.54C184.543 32.4867 184.103 33.3933 183.556 34.26Z" fill="#646464"/>
<rect y="48" width="212" height="48" fill="#FAF2FF"/>
<rect y="48" width="212" height="48" stroke="#646464"/>
<path d="M86.6781 79.2C85.2115 79.2 83.9515 78.9067 82.8981 78.32C81.8581 77.72 81.0581 76.88 80.4981 75.8C79.9381 74.7067 79.6581 73.42 79.6581 71.94C79.6581 70.8333 79.8181 69.84 80.1381 68.96C80.4581 68.0667 80.9181 67.3067 81.5181 66.68C82.1181 66.04 82.8515 65.5533 83.7181 65.22C84.5981 64.8733 85.5848 64.7 86.6781 64.7C87.4115 64.7 88.1315 64.7933 88.8381 64.98C89.5448 65.1667 90.1648 65.4333 90.6981 65.78C90.9781 65.9533 91.1648 66.1667 91.2581 66.42C91.3515 66.66 91.3715 66.9 91.3181 67.14C91.2648 67.3667 91.1515 67.56 90.9781 67.72C90.8181 67.88 90.6115 67.9733 90.3581 68C90.1181 68.0133 89.8515 67.9267 89.5581 67.74C89.1448 67.4733 88.6981 67.28 88.2181 67.16C87.7381 67.04 87.2515 66.98 86.7581 66.98C85.8115 66.98 85.0115 67.1733 84.3581 67.56C83.7048 67.9467 83.2115 68.5067 82.8781 69.24C82.5448 69.9733 82.3781 70.8733 82.3781 71.94C82.3781 72.9933 82.5448 73.8933 82.8781 74.64C83.2115 75.3867 83.7048 75.9533 84.3581 76.34C85.0115 76.7267 85.8115 76.92 86.7581 76.92C87.2648 76.92 87.7648 76.86 88.2581 76.74C88.7515 76.6067 89.2181 76.4067 89.6581 76.14C89.9515 75.9667 90.2115 75.8933 90.4381 75.92C90.6781 75.9333 90.8781 76.0133 91.0381 76.16C91.1981 76.3067 91.3048 76.4933 91.3581 76.72C91.4115 76.9333 91.3981 77.16 91.3181 77.4C91.2381 77.6267 91.0781 77.8267 90.8381 78C90.3048 78.3867 89.6648 78.6867 88.9181 78.9C88.1848 79.1 87.4381 79.2 86.6781 79.2ZM96.8119 79.2C95.7052 79.2 94.8719 78.8867 94.3119 78.26C93.7519 77.62 93.4719 76.6867 93.4719 75.46V66C93.4719 65.5867 93.5785 65.2733 93.7919 65.06C94.0052 64.8467 94.3119 64.74 94.7119 64.74C95.1119 64.74 95.4185 64.8467 95.6319 65.06C95.8585 65.2733 95.9719 65.5867 95.9719 66V75.34C95.9719 75.9533 96.0985 76.4067 96.3519 76.7C96.6185 76.9933 96.9919 77.14 97.4719 77.14C97.5785 77.14 97.6785 77.14 97.7719 77.14C97.8652 77.1267 97.9585 77.1133 98.0519 77.1C98.2385 77.0733 98.3652 77.1267 98.4319 77.26C98.4985 77.38 98.5319 77.6333 98.5319 78.02C98.5319 78.3533 98.4652 78.6133 98.3319 78.8C98.1985 78.9867 97.9785 79.1 97.6719 79.14C97.5385 79.1533 97.3985 79.1667 97.2519 79.18C97.1052 79.1933 96.9585 79.2 96.8119 79.2ZM101.099 79.14C100.699 79.14 100.392 79.02 100.179 78.78C99.9653 78.54 99.8586 78.2067 99.8586 77.78V70.44C99.8586 70 99.9653 69.6667 100.179 69.44C100.392 69.2 100.699 69.08 101.099 69.08C101.499 69.08 101.805 69.2 102.019 69.44C102.245 69.6667 102.359 70 102.359 70.44V77.78C102.359 78.2067 102.252 78.54 102.039 78.78C101.825 79.02 101.512 79.14 101.099 79.14ZM101.099 67.22C100.632 67.22 100.265 67.1067 99.9986 66.88C99.7453 66.64 99.6186 66.3133 99.6186 65.9C99.6186 65.4733 99.7453 65.1467 99.9986 64.92C100.265 64.6933 100.632 64.58 101.099 64.58C101.579 64.58 101.945 64.6933 102.199 64.92C102.452 65.1467 102.579 65.4733 102.579 65.9C102.579 66.3133 102.452 66.64 102.199 66.88C101.945 67.1067 101.579 67.22 101.099 67.22ZM109.476 79.2C108.45 79.2 107.556 78.9933 106.796 78.58C106.036 78.1533 105.45 77.5533 105.036 76.78C104.623 76.0067 104.416 75.1 104.416 74.06C104.416 73.2733 104.53 72.5733 104.756 71.96C104.996 71.3333 105.336 70.8067 105.776 70.38C106.216 69.94 106.75 69.6067 107.376 69.38C108.003 69.14 108.703 69.02 109.476 69.02C109.916 69.02 110.39 69.08 110.896 69.2C111.416 69.32 111.903 69.52 112.356 69.8C112.57 69.9333 112.71 70.0933 112.776 70.28C112.843 70.4667 112.856 70.66 112.816 70.86C112.776 71.0467 112.69 71.2133 112.556 71.36C112.436 71.4933 112.283 71.58 112.096 71.62C111.91 71.6467 111.703 71.6 111.476 71.48C111.183 71.3067 110.883 71.18 110.576 71.1C110.27 71.0067 109.976 70.96 109.696 70.96C109.256 70.96 108.87 71.0333 108.536 71.18C108.203 71.3133 107.916 71.5133 107.676 71.78C107.45 72.0333 107.276 72.3533 107.156 72.74C107.036 73.1267 106.976 73.5733 106.976 74.08C106.976 75.0667 107.21 75.8467 107.676 76.42C108.156 76.98 108.83 77.26 109.696 77.26C109.976 77.26 110.263 77.22 110.556 77.14C110.863 77.06 111.17 76.9333 111.476 76.76C111.703 76.64 111.903 76.6 112.076 76.64C112.263 76.68 112.416 76.7733 112.536 76.92C112.656 77.0533 112.73 77.22 112.756 77.42C112.783 77.6067 112.756 77.7933 112.676 77.98C112.61 78.1667 112.476 78.32 112.276 78.44C111.836 78.7067 111.37 78.9 110.876 79.02C110.383 79.14 109.916 79.2 109.476 79.2ZM115.63 79.16C115.23 79.16 114.923 79.0533 114.71 78.84C114.497 78.6133 114.39 78.2933 114.39 77.88V66C114.39 65.5867 114.497 65.2733 114.71 65.06C114.923 64.8467 115.23 64.74 115.63 64.74C116.03 64.74 116.337 64.8467 116.55 65.06C116.777 65.2733 116.89 65.5867 116.89 66V73.38H116.93L120.23 69.9C120.497 69.6333 120.73 69.4267 120.93 69.28C121.13 69.1333 121.403 69.06 121.75 69.06C122.097 69.06 122.357 69.1533 122.53 69.34C122.717 69.5133 122.81 69.7267 122.81 69.98C122.81 70.2333 122.69 70.4867 122.45 70.74L118.97 74.42V73.38L122.79 77.5C123.03 77.7533 123.137 78.0133 123.11 78.28C123.097 78.5333 122.99 78.7467 122.79 78.92C122.59 79.08 122.337 79.16 122.03 79.16C121.657 79.16 121.357 79.0867 121.13 78.94C120.917 78.7933 120.677 78.5733 120.41 78.28L116.93 74.64H116.89V77.88C116.89 78.7333 116.47 79.16 115.63 79.16ZM128.536 79.2C127.963 79.2 127.356 79.14 126.716 79.02C126.076 78.9 125.503 78.6933 124.996 78.4C124.783 78.2667 124.63 78.1133 124.536 77.94C124.456 77.7533 124.423 77.5733 124.436 77.4C124.463 77.2133 124.53 77.0533 124.636 76.92C124.756 76.7867 124.903 76.7 125.076 76.66C125.263 76.62 125.463 76.6533 125.676 76.76C126.21 77.0133 126.71 77.1933 127.176 77.3C127.643 77.3933 128.103 77.44 128.556 77.44C129.196 77.44 129.67 77.3333 129.976 77.12C130.296 76.8933 130.456 76.6 130.456 76.24C130.456 75.9333 130.35 75.7 130.136 75.54C129.936 75.3667 129.63 75.24 129.216 75.16L127.216 74.78C126.39 74.62 125.756 74.32 125.316 73.88C124.89 73.4267 124.676 72.8467 124.676 72.14C124.676 71.5 124.85 70.9467 125.196 70.48C125.556 70.0133 126.05 69.6533 126.676 69.4C127.303 69.1467 128.023 69.02 128.836 69.02C129.423 69.02 129.97 69.0867 130.476 69.22C130.996 69.34 131.496 69.5333 131.976 69.8C132.176 69.9067 132.31 70.0467 132.376 70.22C132.456 70.3933 132.476 70.5733 132.436 70.76C132.396 70.9333 132.316 71.0933 132.196 71.24C132.076 71.3733 131.923 71.46 131.736 71.5C131.563 71.5267 131.363 71.4867 131.136 71.38C130.723 71.1667 130.323 71.0133 129.936 70.92C129.563 70.8267 129.203 70.78 128.856 70.78C128.203 70.78 127.716 70.8933 127.396 71.12C127.09 71.3467 126.936 71.6467 126.936 72.02C126.936 72.3 127.03 72.5333 127.216 72.72C127.403 72.9067 127.69 73.0333 128.076 73.1L130.076 73.48C130.943 73.64 131.596 73.9333 132.036 74.36C132.49 74.7867 132.716 75.36 132.716 76.08C132.716 77.0533 132.336 77.82 131.576 78.38C130.816 78.9267 129.803 79.2 128.536 79.2Z" fill="#646464"/>
</g>
<g clip-path="url(#clip2_1648_1717)">
<rect x="212" width="80" height="48" fill="#E7FBFF"/>
<rect x="212" width="80" height="48" stroke="#646464"/>
<path d="M251.844 31.18C251.071 31.18 250.291 31.0667 249.504 30.84C248.731 30.6133 248.057 30.28 247.484 29.84C247.311 29.72 247.197 29.5867 247.144 29.44C247.091 29.28 247.077 29.1333 247.104 29C247.144 28.8533 247.217 28.7333 247.324 28.64C247.431 28.5333 247.557 28.4733 247.704 28.46C247.864 28.4467 248.037 28.5 248.224 28.62C248.811 29.0067 249.397 29.2867 249.984 29.46C250.571 29.6333 251.177 29.72 251.804 29.72C252.484 29.72 253.057 29.62 253.524 29.42C253.991 29.22 254.344 28.9267 254.584 28.54C254.824 28.14 254.944 27.6533 254.944 27.08C254.944 26.2533 254.671 25.6267 254.124 25.2C253.577 24.7733 252.784 24.56 251.744 24.56H250.324C250.071 24.56 249.877 24.5 249.744 24.38C249.611 24.2467 249.544 24.0667 249.544 23.84C249.544 23.6267 249.611 23.46 249.744 23.34C249.877 23.2067 250.071 23.14 250.324 23.14H251.604C252.217 23.14 252.737 23.0333 253.164 22.82C253.604 22.6067 253.944 22.3067 254.184 21.92C254.424 21.52 254.544 21.04 254.544 20.48C254.544 19.7333 254.304 19.1667 253.824 18.78C253.344 18.38 252.651 18.18 251.744 18.18C251.144 18.18 250.577 18.2667 250.044 18.44C249.511 18.6133 248.984 18.9067 248.464 19.32C248.304 19.44 248.144 19.5 247.984 19.5C247.837 19.4867 247.711 19.44 247.604 19.36C247.511 19.2667 247.437 19.1467 247.384 19C247.344 18.8533 247.351 18.7067 247.404 18.56C247.457 18.4 247.571 18.2533 247.744 18.12C248.277 17.6667 248.904 17.32 249.624 17.08C250.344 16.84 251.084 16.72 251.844 16.72C252.751 16.72 253.524 16.8667 254.164 17.16C254.817 17.44 255.317 17.8533 255.664 18.4C256.011 18.9333 256.184 19.58 256.184 20.34C256.184 20.9133 256.071 21.44 255.844 21.92C255.631 22.3867 255.324 22.7867 254.924 23.12C254.537 23.4533 254.064 23.6933 253.504 23.84V23.62C254.477 23.78 255.231 24.18 255.764 24.82C256.311 25.4467 256.584 26.24 256.584 27.2C256.584 28.0133 256.391 28.72 256.004 29.32C255.631 29.9067 255.091 30.3667 254.384 30.7C253.677 31.02 252.831 31.18 251.844 31.18Z" fill="#1A1A1A"/>
<rect x="212" y="48" width="80" height="48" fill="#E7FBFF"/>
<rect x="212" y="48" width="80" height="48" stroke="#646464"/>
</g>
</g>
<rect x="0.5" y="0.5" width="288" height="95" rx="7.5" stroke="#646464"/>
<defs>
<clipPath id="clip0_1648_1717">
<rect width="289" height="96" rx="8" fill="white"/>
</clipPath>
<clipPath id="clip1_1648_1717">
<rect width="212" height="96" fill="white"/>
</clipPath>
<clipPath id="clip2_1648_1717">
<rect width="80" height="96" fill="white" transform="translate(212)"/>
</clipPath>
</defs>
</svg>
