<svg width="103" height="113" viewBox="0 0 103 113" fill="none" xmlns="http://www.w3.org/2000/svg">
<path opacity="0.9" d="M1.23224 85.9916L46.0502 111.536L101.55 79.2573L56.9645 53.7134L1.23224 85.9916Z" fill="#FFCCDB"/>
<path opacity="0.9" d="M23.5251 46.7468L45.818 59.5188L79.2573 40.477L56.9644 28.1694L23.5251 46.7468Z" fill="#FFCCDB"/>
<path opacity="0.6" d="M1.2323 85.9915V59.7509L56.5001 27.4727L56.7323 53.7132L1.2323 85.9915Z" fill="#F4E5FF"/>
<path opacity="0.6" d="M56.9645 27.0083L101.318 53.4811V79.4895L56.9645 53.4811V27.0083Z" fill="#F4E5FF"/>
<path d="M56.7323 53.481L101.55 79.0249" stroke="#888888" stroke-dasharray="2 2"/>
<path d="M1.23228 85.7595L57.1967 53.249" stroke="#888888" stroke-dasharray="2 2"/>
<path opacity="0.6" d="M56.9644 1L79.0251 14.2364V40.7092L56.9644 27.4728V1Z" fill="#F4E5FF"/>
<path opacity="0.6" d="M23.5251 47.4434V21.2029L56.9644 1.46436V27.4727L23.5251 47.4434Z" fill="#F4E5FF"/>
<path d="M56.9644 1.46436V53.4811" stroke="#888888" stroke-dasharray="2 2"/>
<path opacity="0.6" d="M45.818 112V85.7592L101.086 53.481L101.318 79.7215L45.818 112Z" fill="#F4E5FF"/>
<path opacity="0.6" d="M45.818 60.4478V34.2072L79.2573 14.4688V40.4771L45.818 60.4478Z" fill="#F4E5FF"/>
<path opacity="0.6" d="M1.23224 59.519L45.5858 85.9918V112L1.23224 85.9918V59.519Z" fill="#F4E5FF"/>
<path d="M45.818 85.5273V112" stroke="#888888"/>
<path d="M101.55 53.481V79.4893" stroke="#888888"/>
<path d="M79.2573 14.0044V40.4772" stroke="#888888"/>
<path d="M45.818 33.5103V59.983" stroke="#888888"/>
<path d="M1.23224 59.519L1.23224 85.9918" stroke="#888888"/>
<path d="M56.9644 1.23214L79.2573 14.2363" stroke="#888888"/>
<path d="M79.2573 40.4768L101.55 53.481" stroke="#888888"/>
<path d="M1.23222 59.9834L45.818 85.5273" stroke="#888888"/>
<path d="M1 85.9917L45.818 111.536" stroke="#888888"/>
<path d="M45.818 111.768L101.782 79.2573" stroke="#888888"/>
<path d="M45.818 85.7595L101.782 53.249" stroke="#888888"/>
<path d="M45.818 59.9833L79.2573 40.4771" stroke="#888888"/>
<path d="M45.818 33.975L79.2573 14.4688" stroke="#888888"/>
<path d="M23.5251 20.9706L56.9644 1.46436" stroke="#888888"/>
<path d="M1.2322 59.751L23.5251 46.979" stroke="#888888"/>
<path d="M23.5251 46.9789L56.9644 27.4727" stroke="#888888" stroke-dasharray="2 2"/>
<path opacity="0.6" d="M23.5251 20.5063L45.5858 33.7428V60.2156L23.5251 46.9792V20.5063Z" fill="#F4E5FF"/>
<path d="M23.5251 20.7385L45.818 33.7427" stroke="#888888"/>
<path d="M23.5251 20.9707V47.4435" stroke="#888888"/>
<path d="M23.5251 46.9792L45.818 59.9834" stroke="#888888"/>
</svg>
