<svg width="106" height="74" viewBox="0 0 106 74" fill="none" xmlns="http://www.w3.org/2000/svg">
<path opacity="0.9" d="M1.43066 49.447L42.9876 73.1323L84.3292 49.0164L43.2029 25.3311L1.43066 49.447Z" fill="#FFCCDB"/>
<path opacity="0.9" d="M63.4431 61.3985L84.1139 73.3479L105 61.3985L84.1139 49.0166L63.4431 61.3985Z" fill="#FFCCDB"/>
<path opacity="0.6" d="M1.21533 24.6855L42.3416 49.2321V73.3481L1.21533 49.2321V24.6855Z" fill="#F4E5FF"/>
<path opacity="0.6" d="M43.6335 1L104.785 37.1739V61.0745L43.6335 25.5466V1Z" fill="#F4E5FF"/>
<path d="M42.5569 48.8013V73.3478" stroke="#888888"/>
<path d="M1.21533 24.6855L1.21533 49.2321" stroke="#888888"/>
<path opacity="0.6" d="M63.4431 36.7432L83.8986 49.0165V73.563L63.4431 61.2897V36.7432Z" fill="#F4E5FF"/>
<path d="M84.1139 48.8013V73.3478" stroke="#888888"/>
<path d="M63.4431 37.1738V61.7204" stroke="#888888"/>
<path d="M63.4431 36.9586L84.1139 49.0166" stroke="#888888"/>
<path d="M63.4431 61.2897L84.1139 73.3477" stroke="#888888"/>
<path d="M0.999951 49.2322L42.5569 72.9175" stroke="#888888"/>
<path d="M104.785 36.9204V61.2896" stroke="#888888"/>
<path d="M84.1139 48.8008V73.3473" stroke="#888888"/>
<path d="M84.1139 73.3475L105 61.0742" stroke="#888888"/>
<path d="M84.1139 49.2318L105 36.9585" stroke="#888888"/>
<path opacity="0.6" d="M1.43066 49.4473V25.1541L43.4116 1.46875V25.1541L1.43066 49.4473Z" fill="#F4E5FF"/>
<path d="M43.4115 1V25.3692" stroke="#888888"/>
<path d="M1.43066 49.447L43.8489 25.1538" stroke="#888888" stroke-dasharray="2 2"/>
<path d="M1.21526 24.9006L43.6335 1.21533" stroke="#888888"/>
<path opacity="0.6" d="M42.7722 73.6012V49.2699L63.443 37.2119V60.8972L42.7722 73.6012Z" fill="#F4E5FF"/>
<path d="M63.4431 36.7432V61.1124" stroke="#888888"/>
<path d="M42.7722 48.6235V73.1701" stroke="#888888"/>
<path d="M42.7723 73.1703L63.6584 60.897" stroke="#888888"/>
<path d="M42.7723 49.0545L63.6584 36.7812" stroke="#888888"/>
<path d="M43.4183 1.21522L104.569 36.9585" stroke="#888888"/>
<path d="M43.4183 25.3314L104.569 61.0747" stroke="#888888" stroke-dasharray="2 2"/>
<path opacity="0.6" d="M84.5 72.8334V49.5L104.5 37.5V61L84.5 72.8334Z" fill="#F4E5FF"/>
<path d="M1.21527 25.116L42.5569 48.8013" stroke="#888888"/>
</svg>
