<svg width="113" height="90" viewBox="0 0 113 90" fill="none" xmlns="http://www.w3.org/2000/svg">
<path opacity="0.9" d="M1.83459 53.9473L61.0902 88.7913L111.374 59.7894L51.0752 24.7368L1.83459 53.9473Z" fill="#FFCCDB"/>
<path opacity="0.6" d="M71.5225 1.36816L91.344 13.261V37.0467L71.5225 25.1539V1.36816Z" fill="#F4E5FF"/>
<path opacity="0.6" d="M1 42.2632L60.8816 77.3158V88.7914L1 53.7387V42.2632Z" fill="#F4E5FF"/>
<path d="M41.4775 42.2632V66.0489" stroke="#888888"/>
<path d="M21.4474 30.9961V54.3645" stroke="#888888"/>
<path d="M71.5225 1.36804L91.5526 13.0522" stroke="#888888"/>
<path d="M91.5526 36.4213L112 48.1055" stroke="#888888"/>
<path d="M0.999986 53.9474L61.0902 89" stroke="#888888"/>
<path opacity="0.6" d="M51.9098 13.4697L111.791 48.5224V59.9979L51.9098 24.9453V13.4697Z" fill="#F4E5FF"/>
<path d="M51.0752 24.7364L111.165 59.7891" stroke="#888888" stroke-dasharray="2 2"/>
<path opacity="0.6" d="M1 54.1556V42.4714L51.9098 13.0522L51.4925 24.5278L1 54.1556Z" fill="#F4E5FF"/>
<path d="M0.999952 53.9475L51.4924 24.5283" stroke="#888888" stroke-dasharray="2 2"/>
<path d="M51.4924 13.0522L91.5526 36.4207" stroke="#888888" stroke-dasharray="2 2"/>
<path d="M51.4924 13.0522V24.7365" stroke="#888888" stroke-dasharray="2 2"/>
<path opacity="0.6" d="M61.0902 88.9999V77.3157L112 47.8965V59.998L61.0902 88.9999Z" fill="#F4E5FF"/>
<path d="M61.0902 77.3159V89.0001" stroke="#888888"/>
<path d="M1 42.2632L1 53.9474" stroke="#888888"/>
<path d="M112 47.8965V59.998" stroke="#888888"/>
<path d="M61.0903 88.9996L111.791 59.7891" stroke="#888888"/>
<path d="M61.0903 77.316L111.791 48.1055" stroke="#888888"/>
<path d="M0.99992 42.2628L51.701 13.0522" stroke="#888888"/>
<path d="M21.4474 30.5788L71.7312 1.15967" stroke="#888888"/>
<path opacity="0.6" d="M21.6561 53.7385L21.4474 30.5787L71.5226 1.36816L71.7313 24.9452L21.6561 53.7385Z" fill="#F4E5FF"/>
<path d="M21.4475 30.3701V54.1558" stroke="#888888"/>
<path d="M71.5226 1.57715V24.9456" stroke="#888888"/>
<path d="M21.4474 53.9473L71.7313 24.7368" stroke="#888888"/>
<path d="M21.4474 30.5787L71.7313 1.36816" stroke="#888888"/>
<path opacity="0.9" d="M21.6559 53.9477L41.2687 65.6319L91.3439 36.4214L71.5225 24.9458L21.6559 53.9477Z" fill="#FFCCDB"/>
<path opacity="0.6" d="M41.4775 65.8402V42.2631L91.1354 13.2612L91.3441 36.8383L41.4775 65.8402Z" fill="#F4E5FF"/>
<path d="M41.4775 42.0542V65.8399" stroke="#888888"/>
<path d="M91.5527 13.2612V36.6297" stroke="#888888"/>
<path d="M41.4775 65.6314L91.7613 36.4209" stroke="#888888"/>
<path d="M41.4775 42.2628L91.7613 13.0522" stroke="#888888"/>
<path opacity="0.6" d="M21.6559 30.9961L41 42.4998V65.4998L21.6559 54.0994V30.9961Z" fill="#F4E5FF"/>
<path d="M21.4474 30.787L41.4775 42.4712" stroke="#888888"/>
<path d="M0.999986 42.2633L61.0902 77.3159" stroke="#888888"/>
</svg>
