<svg width="293" height="362" viewBox="0 0 293 362" fill="none" xmlns="http://www.w3.org/2000/svg">
<rect x="0.5" y="0.5" width="292" height="361" rx="4.5" fill="#F9F9F9" stroke="#C7C7C7" stroke-dasharray="5 5"/>
<path d="M44.4992 170.18C43.8726 170.18 43.2592 170.127 42.6592 170.02C42.0592 169.913 41.4992 169.76 40.9792 169.56C40.4726 169.36 40.0126 169.107 39.5992 168.8C39.4392 168.68 39.3259 168.547 39.2592 168.4C39.2059 168.24 39.1926 168.087 39.2192 167.94C39.2592 167.78 39.3259 167.647 39.4192 167.54C39.5259 167.433 39.6526 167.373 39.7992 167.36C39.9459 167.347 40.1059 167.393 40.2792 167.5C40.8792 167.927 41.5192 168.24 42.1992 168.44C42.8792 168.627 43.6459 168.72 44.4992 168.72C45.6992 168.72 46.5859 168.5 47.1592 168.06C47.7459 167.607 48.0392 167.013 48.0392 166.28C48.0392 165.68 47.8259 165.213 47.3992 164.88C46.9859 164.533 46.2859 164.26 45.2992 164.06L43.2192 163.64C41.9659 163.373 41.0259 162.94 40.3992 162.34C39.7859 161.727 39.4792 160.913 39.4792 159.9C39.4792 159.273 39.6059 158.707 39.8592 158.2C40.1126 157.68 40.4659 157.24 40.9192 156.88C41.3726 156.507 41.9126 156.22 42.5392 156.02C43.1659 155.82 43.8592 155.72 44.6192 155.72C45.4592 155.72 46.2392 155.84 46.9592 156.08C47.6926 156.307 48.3526 156.653 48.9392 157.12C49.0859 157.24 49.1859 157.38 49.2392 157.54C49.2926 157.687 49.2992 157.833 49.2592 157.98C49.2192 158.113 49.1459 158.227 49.0392 158.32C48.9459 158.413 48.8192 158.467 48.6592 158.48C48.5126 158.493 48.3459 158.44 48.1592 158.32C47.6259 157.92 47.0726 157.633 46.4992 157.46C45.9259 157.273 45.2926 157.18 44.5992 157.18C43.8926 157.18 43.2792 157.287 42.7592 157.5C42.2526 157.713 41.8526 158.027 41.5592 158.44C41.2792 158.84 41.1392 159.307 41.1392 159.84C41.1392 160.48 41.3326 160.987 41.7192 161.36C42.1192 161.733 42.7659 162.007 43.6592 162.18L45.7392 162.62C47.0859 162.9 48.0792 163.327 48.7192 163.9C49.3726 164.46 49.6992 165.227 49.6992 166.2C49.6992 166.787 49.5792 167.327 49.3392 167.82C49.0992 168.313 48.7526 168.74 48.2992 169.1C47.8459 169.447 47.2992 169.713 46.6592 169.9C46.0192 170.087 45.2992 170.18 44.4992 170.18ZM56.4039 170.18C55.3772 170.18 54.4906 169.98 53.7439 169.58C53.0106 169.167 52.4372 168.587 52.0239 167.84C51.6239 167.093 51.4239 166.2 51.4239 165.16C51.4239 164.147 51.6239 163.267 52.0239 162.52C52.4239 161.76 52.9706 161.167 53.6639 160.74C54.3706 160.313 55.1839 160.1 56.1039 160.1C56.7572 160.1 57.3439 160.213 57.8639 160.44C58.3839 160.653 58.8239 160.967 59.1839 161.38C59.5572 161.793 59.8372 162.293 60.0239 162.88C60.2239 163.467 60.3239 164.127 60.3239 164.86C60.3239 165.073 60.2639 165.233 60.1439 165.34C60.0239 165.433 59.8506 165.48 59.6239 165.48H52.6639V164.42H59.2439L58.9239 164.68C58.9239 163.96 58.8172 163.353 58.6039 162.86C58.3906 162.353 58.0772 161.967 57.6639 161.7C57.2639 161.433 56.7572 161.3 56.1439 161.3C55.4639 161.3 54.8839 161.46 54.4039 161.78C53.9372 162.087 53.5839 162.52 53.3439 163.08C53.1039 163.627 52.9839 164.267 52.9839 165V165.12C52.9839 166.347 53.2772 167.28 53.8639 167.92C54.4639 168.56 55.3106 168.88 56.4039 168.88C56.8572 168.88 57.3039 168.82 57.7439 168.7C58.1972 168.58 58.6372 168.38 59.0639 168.1C59.2506 167.98 59.4172 167.927 59.5639 167.94C59.7239 167.94 59.8506 167.987 59.9439 168.08C60.0372 168.16 60.0972 168.267 60.1239 168.4C60.1639 168.52 60.1506 168.653 60.0839 168.8C60.0306 168.947 59.9172 169.073 59.7439 169.18C59.3039 169.5 58.7839 169.747 58.1839 169.92C57.5839 170.093 56.9906 170.18 56.4039 170.18ZM65.6284 170.18C64.6684 170.18 63.9351 169.887 63.4284 169.3C62.9218 168.713 62.6684 167.873 62.6684 166.78V156.58C62.6684 156.313 62.7351 156.113 62.8684 155.98C63.0018 155.833 63.2018 155.76 63.4684 155.76C63.7218 155.76 63.9218 155.833 64.0684 155.98C64.2151 156.113 64.2884 156.313 64.2884 156.58V166.66C64.2884 167.38 64.4284 167.92 64.7084 168.28C65.0018 168.627 65.4284 168.8 65.9884 168.8C66.1084 168.8 66.2151 168.793 66.3084 168.78C66.4018 168.767 66.4951 168.76 66.5884 168.76C66.7351 168.747 66.8351 168.78 66.8884 168.86C66.9551 168.94 66.9884 169.1 66.9884 169.34C66.9884 169.58 66.9351 169.76 66.8284 169.88C66.7218 170 66.5484 170.08 66.3084 170.12C66.2018 170.133 66.0884 170.147 65.9684 170.16C65.8484 170.173 65.7351 170.18 65.6284 170.18ZM72.8688 170.18C71.8421 170.18 70.9554 169.98 70.2088 169.58C69.4754 169.167 68.9021 168.587 68.4888 167.84C68.0888 167.093 67.8888 166.2 67.8888 165.16C67.8888 164.147 68.0888 163.267 68.4888 162.52C68.8888 161.76 69.4354 161.167 70.1288 160.74C70.8354 160.313 71.6488 160.1 72.5688 160.1C73.2221 160.1 73.8088 160.213 74.3288 160.44C74.8488 160.653 75.2888 160.967 75.6488 161.38C76.0221 161.793 76.3021 162.293 76.4888 162.88C76.6888 163.467 76.7888 164.127 76.7888 164.86C76.7888 165.073 76.7288 165.233 76.6088 165.34C76.4888 165.433 76.3154 165.48 76.0888 165.48H69.1288V164.42H75.7088L75.3888 164.68C75.3888 163.96 75.2821 163.353 75.0688 162.86C74.8554 162.353 74.5421 161.967 74.1288 161.7C73.7288 161.433 73.2221 161.3 72.6088 161.3C71.9288 161.3 71.3488 161.46 70.8688 161.78C70.4021 162.087 70.0488 162.52 69.8088 163.08C69.5688 163.627 69.4488 164.267 69.4488 165V165.12C69.4488 166.347 69.7421 167.28 70.3288 167.92C70.9288 168.56 71.7754 168.88 72.8688 168.88C73.3221 168.88 73.7688 168.82 74.2088 168.7C74.6621 168.58 75.1021 168.38 75.5288 168.1C75.7154 167.98 75.8821 167.927 76.0288 167.94C76.1888 167.94 76.3154 167.987 76.4088 168.08C76.5021 168.16 76.5621 168.267 76.5888 168.4C76.6288 168.52 76.6154 168.653 76.5488 168.8C76.4954 168.947 76.3821 169.073 76.2088 169.18C75.7688 169.5 75.2488 169.747 74.6488 169.92C74.0488 170.093 73.4554 170.18 72.8688 170.18ZM83.2533 170.18C82.2799 170.18 81.4399 169.967 80.7333 169.54C80.0266 169.113 79.4799 168.52 79.0933 167.76C78.7199 166.987 78.5333 166.093 78.5333 165.08C78.5333 164.307 78.6399 163.613 78.8533 163C79.0666 162.387 79.3799 161.867 79.7933 161.44C80.2066 161 80.6999 160.667 81.2733 160.44C81.8599 160.213 82.5199 160.1 83.2533 160.1C83.7333 160.1 84.2333 160.173 84.7533 160.32C85.2733 160.467 85.7466 160.72 86.1733 161.08C86.3066 161.173 86.3933 161.287 86.4333 161.42C86.4733 161.553 86.4733 161.687 86.4333 161.82C86.3933 161.94 86.3266 162.047 86.2333 162.14C86.1399 162.22 86.0199 162.267 85.8733 162.28C85.7399 162.293 85.5999 162.247 85.4533 162.14C85.1066 161.873 84.7533 161.687 84.3933 161.58C84.0333 161.473 83.6866 161.42 83.3533 161.42C82.8333 161.42 82.3799 161.507 81.9933 161.68C81.6066 161.84 81.2799 162.073 81.0133 162.38C80.7466 162.687 80.5399 163.067 80.3933 163.52C80.2599 163.973 80.1933 164.5 80.1933 165.1C80.1933 166.26 80.4666 167.18 81.0133 167.86C81.5599 168.527 82.3399 168.86 83.3533 168.86C83.6866 168.86 84.0266 168.807 84.3733 168.7C84.7333 168.593 85.0933 168.407 85.4533 168.14C85.5999 168.033 85.7399 167.987 85.8733 168C86.0066 168.013 86.1199 168.067 86.2133 168.16C86.3066 168.24 86.3666 168.347 86.3933 168.48C86.4333 168.613 86.4333 168.747 86.3933 168.88C86.3533 169 86.2666 169.107 86.1333 169.2C85.7066 169.547 85.2399 169.8 84.7333 169.96C84.2266 170.107 83.7333 170.18 83.2533 170.18ZM92.2911 170.18C91.5311 170.18 90.8911 170.047 90.3711 169.78C89.8644 169.5 89.4844 169.1 89.2311 168.58C88.9778 168.047 88.8511 167.4 88.8511 166.64V161.54H87.5111C87.2844 161.54 87.1111 161.487 86.9911 161.38C86.8711 161.26 86.8111 161.1 86.8111 160.9C86.8111 160.7 86.8711 160.547 86.9911 160.44C87.1111 160.333 87.2844 160.28 87.5111 160.28H88.8511V157.98C88.8511 157.713 88.9244 157.513 89.0711 157.38C89.2178 157.233 89.4178 157.16 89.6711 157.16C89.9244 157.16 90.1178 157.233 90.2511 157.38C90.3978 157.513 90.4711 157.713 90.4711 157.98V160.28H92.9911C93.2178 160.28 93.3911 160.333 93.5111 160.44C93.6311 160.547 93.6911 160.7 93.6911 160.9C93.6911 161.1 93.6311 161.26 93.5111 161.38C93.3911 161.487 93.2178 161.54 92.9911 161.54H90.4711V166.48C90.4711 167.24 90.6311 167.82 90.9511 168.22C91.2711 168.607 91.7911 168.8 92.5111 168.8C92.7644 168.8 92.9778 168.773 93.1511 168.72C93.3378 168.667 93.4911 168.64 93.6111 168.64C93.7311 168.627 93.8311 168.667 93.9111 168.76C93.9911 168.853 94.0311 169.013 94.0311 169.24C94.0311 169.4 93.9978 169.547 93.9311 169.68C93.8778 169.813 93.7778 169.907 93.6311 169.96C93.4711 170.013 93.2578 170.06 92.9911 170.1C92.7378 170.153 92.5044 170.18 92.2911 170.18ZM103.6 170.18C102.933 170.18 102.333 170.053 101.8 169.8C101.28 169.533 100.866 169.173 100.56 168.72C100.253 168.267 100.1 167.76 100.1 167.2C100.1 166.48 100.28 165.913 100.64 165.5C101.013 165.087 101.62 164.793 102.46 164.62C103.313 164.447 104.473 164.36 105.94 164.36H106.84V165.42H105.96C104.88 165.42 104.026 165.473 103.4 165.58C102.786 165.673 102.353 165.84 102.1 166.08C101.86 166.32 101.74 166.66 101.74 167.1C101.74 167.647 101.926 168.093 102.3 168.44C102.686 168.787 103.206 168.96 103.86 168.96C104.393 168.96 104.86 168.833 105.26 168.58C105.673 168.327 105.993 167.98 106.22 167.54C106.46 167.1 106.58 166.593 106.58 166.02V163.74C106.58 162.913 106.413 162.32 106.08 161.96C105.746 161.587 105.2 161.4 104.44 161.4C103.973 161.4 103.506 161.46 103.04 161.58C102.573 161.7 102.08 161.893 101.56 162.16C101.373 162.253 101.213 162.287 101.08 162.26C100.946 162.22 100.84 162.147 100.76 162.04C100.68 161.933 100.633 161.813 100.62 161.68C100.606 161.533 100.633 161.393 100.7 161.26C100.78 161.127 100.9 161.02 101.06 160.94C101.646 160.647 102.226 160.433 102.8 160.3C103.373 160.167 103.92 160.1 104.44 160.1C105.28 160.1 105.973 160.24 106.52 160.52C107.066 160.787 107.473 161.2 107.74 161.76C108.006 162.307 108.14 163.013 108.14 163.88V169.3C108.14 169.567 108.073 169.773 107.94 169.92C107.82 170.067 107.64 170.14 107.4 170.14C107.146 170.14 106.953 170.067 106.82 169.92C106.686 169.773 106.62 169.567 106.62 169.3V167.74H106.8C106.693 168.247 106.486 168.68 106.18 169.04C105.886 169.4 105.52 169.68 105.08 169.88C104.64 170.08 104.146 170.18 103.6 170.18ZM120.421 170.18C119.448 170.18 118.608 169.967 117.901 169.54C117.195 169.113 116.648 168.52 116.261 167.76C115.888 166.987 115.701 166.093 115.701 165.08C115.701 164.307 115.808 163.613 116.021 163C116.235 162.387 116.548 161.867 116.961 161.44C117.375 161 117.868 160.667 118.441 160.44C119.028 160.213 119.688 160.1 120.421 160.1C120.901 160.1 121.401 160.173 121.921 160.32C122.441 160.467 122.915 160.72 123.341 161.08C123.475 161.173 123.561 161.287 123.601 161.42C123.641 161.553 123.641 161.687 123.601 161.82C123.561 161.94 123.495 162.047 123.401 162.14C123.308 162.22 123.188 162.267 123.041 162.28C122.908 162.293 122.768 162.247 122.621 162.14C122.275 161.873 121.921 161.687 121.561 161.58C121.201 161.473 120.855 161.42 120.521 161.42C120.001 161.42 119.548 161.507 119.161 161.68C118.775 161.84 118.448 162.073 118.181 162.38C117.915 162.687 117.708 163.067 117.561 163.52C117.428 163.973 117.361 164.5 117.361 165.1C117.361 166.26 117.635 167.18 118.181 167.86C118.728 168.527 119.508 168.86 120.521 168.86C120.855 168.86 121.195 168.807 121.541 168.7C121.901 168.593 122.261 168.407 122.621 168.14C122.768 168.033 122.908 167.987 123.041 168C123.175 168.013 123.288 168.067 123.381 168.16C123.475 168.24 123.535 168.347 123.561 168.48C123.601 168.613 123.601 168.747 123.561 168.88C123.521 169 123.435 169.107 123.301 169.2C122.875 169.547 122.408 169.8 121.901 169.96C121.395 170.107 120.901 170.18 120.421 170.18ZM129.404 170.18C128.457 170.18 127.637 169.973 126.944 169.56C126.25 169.147 125.71 168.567 125.324 167.82C124.95 167.06 124.764 166.167 124.764 165.14C124.764 164.367 124.87 163.673 125.084 163.06C125.297 162.433 125.61 161.9 126.024 161.46C126.437 161.02 126.924 160.687 127.484 160.46C128.057 160.22 128.697 160.1 129.404 160.1C130.35 160.1 131.17 160.307 131.864 160.72C132.557 161.133 133.09 161.72 133.464 162.48C133.85 163.227 134.044 164.113 134.044 165.14C134.044 165.913 133.937 166.607 133.724 167.22C133.51 167.833 133.197 168.367 132.784 168.82C132.37 169.26 131.877 169.6 131.304 169.84C130.744 170.067 130.11 170.18 129.404 170.18ZM129.404 168.88C130.004 168.88 130.53 168.733 130.984 168.44C131.437 168.147 131.784 167.72 132.024 167.16C132.277 166.6 132.404 165.927 132.404 165.14C132.404 163.927 132.13 163 131.584 162.36C131.05 161.72 130.324 161.4 129.404 161.4C128.79 161.4 128.257 161.547 127.804 161.84C127.364 162.12 127.017 162.54 126.764 163.1C126.524 163.647 126.404 164.327 126.404 165.14C126.404 166.34 126.677 167.267 127.224 167.92C127.77 168.56 128.497 168.88 129.404 168.88ZM137.317 170.14C137.05 170.14 136.85 170.067 136.717 169.92C136.584 169.773 136.517 169.567 136.517 169.3V160.96C136.517 160.693 136.584 160.493 136.717 160.36C136.85 160.213 137.044 160.14 137.297 160.14C137.55 160.14 137.744 160.213 137.877 160.36C138.024 160.493 138.097 160.693 138.097 160.96V162.72L137.877 162.44C138.13 161.693 138.537 161.12 139.097 160.72C139.67 160.307 140.35 160.1 141.137 160.1C141.964 160.1 142.63 160.3 143.137 160.7C143.657 161.087 144.004 161.693 144.177 162.52H143.877C144.117 161.773 144.544 161.187 145.157 160.76C145.784 160.32 146.51 160.1 147.337 160.1C148.07 160.1 148.67 160.24 149.137 160.52C149.617 160.8 149.977 161.227 150.217 161.8C150.457 162.36 150.577 163.073 150.577 163.94V169.3C150.577 169.567 150.504 169.773 150.357 169.92C150.224 170.067 150.024 170.14 149.757 170.14C149.504 170.14 149.304 170.067 149.157 169.92C149.024 169.773 148.957 169.567 148.957 169.3V164.02C148.957 163.127 148.804 162.473 148.497 162.06C148.19 161.633 147.67 161.42 146.937 161.42C146.137 161.42 145.504 161.7 145.037 162.26C144.584 162.807 144.357 163.553 144.357 164.5V169.3C144.357 169.567 144.284 169.773 144.137 169.92C144.004 170.067 143.804 170.14 143.537 170.14C143.284 170.14 143.084 170.067 142.937 169.92C142.804 169.773 142.737 169.567 142.737 169.3V164.02C142.737 163.127 142.577 162.473 142.257 162.06C141.95 161.633 141.437 161.42 140.717 161.42C139.917 161.42 139.284 161.7 138.817 162.26C138.364 162.807 138.137 163.553 138.137 164.5V169.3C138.137 169.86 137.864 170.14 137.317 170.14ZM154.406 173.74C154.139 173.74 153.939 173.667 153.806 173.52C153.673 173.387 153.606 173.187 153.606 172.92V160.96C153.606 160.693 153.673 160.493 153.806 160.36C153.939 160.213 154.133 160.14 154.386 160.14C154.653 160.14 154.853 160.213 154.986 160.36C155.133 160.493 155.206 160.693 155.206 160.96V162.86L154.986 162.58C155.199 161.82 155.619 161.22 156.246 160.78C156.886 160.327 157.646 160.1 158.526 160.1C159.393 160.1 160.146 160.307 160.786 160.72C161.439 161.12 161.939 161.7 162.286 162.46C162.646 163.207 162.826 164.1 162.826 165.14C162.826 166.167 162.646 167.06 162.286 167.82C161.939 168.567 161.446 169.147 160.806 169.56C160.166 169.973 159.406 170.18 158.526 170.18C157.646 170.18 156.893 169.96 156.266 169.52C155.639 169.067 155.213 168.467 154.986 167.72H155.226V172.92C155.226 173.187 155.153 173.387 155.006 173.52C154.859 173.667 154.659 173.74 154.406 173.74ZM158.186 168.88C158.799 168.88 159.326 168.733 159.766 168.44C160.219 168.147 160.566 167.72 160.806 167.16C161.059 166.6 161.186 165.927 161.186 165.14C161.186 163.927 160.913 163 160.366 162.36C159.833 161.72 159.106 161.4 158.186 161.4C157.586 161.4 157.059 161.547 156.606 161.84C156.153 162.12 155.799 162.54 155.546 163.1C155.306 163.647 155.186 164.327 155.186 165.14C155.186 166.34 155.459 167.267 156.006 167.92C156.553 168.56 157.279 168.88 158.186 168.88ZM169.306 170.18C168.359 170.18 167.539 169.973 166.846 169.56C166.153 169.147 165.613 168.567 165.226 167.82C164.853 167.06 164.666 166.167 164.666 165.14C164.666 164.367 164.773 163.673 164.986 163.06C165.199 162.433 165.513 161.9 165.926 161.46C166.339 161.02 166.826 160.687 167.386 160.46C167.959 160.22 168.599 160.1 169.306 160.1C170.253 160.1 171.073 160.307 171.766 160.72C172.459 161.133 172.993 161.72 173.366 162.48C173.753 163.227 173.946 164.113 173.946 165.14C173.946 165.913 173.839 166.607 173.626 167.22C173.413 167.833 173.099 168.367 172.686 168.82C172.273 169.26 171.779 169.6 171.206 169.84C170.646 170.067 170.013 170.18 169.306 170.18ZM169.306 168.88C169.906 168.88 170.433 168.733 170.886 168.44C171.339 168.147 171.686 167.72 171.926 167.16C172.179 166.6 172.306 165.927 172.306 165.14C172.306 163.927 172.033 163 171.486 162.36C170.953 161.72 170.226 161.4 169.306 161.4C168.693 161.4 168.159 161.547 167.706 161.84C167.266 162.12 166.919 162.54 166.666 163.1C166.426 163.647 166.306 164.327 166.306 165.14C166.306 166.34 166.579 167.267 167.126 167.92C167.673 168.56 168.399 168.88 169.306 168.88ZM179.659 170.18C179.059 170.18 178.453 170.107 177.839 169.96C177.239 169.813 176.679 169.56 176.159 169.2C176.026 169.107 175.933 169 175.879 168.88C175.826 168.747 175.806 168.62 175.819 168.5C175.846 168.367 175.899 168.253 175.979 168.16C176.073 168.067 176.179 168.013 176.299 168C176.433 167.973 176.579 168 176.739 168.08C177.259 168.4 177.759 168.627 178.239 168.76C178.733 168.88 179.219 168.94 179.699 168.94C180.459 168.94 181.033 168.8 181.419 168.52C181.806 168.24 181.999 167.86 181.999 167.38C181.999 167.007 181.873 166.713 181.619 166.5C181.366 166.273 180.966 166.1 180.419 165.98L178.599 165.58C177.759 165.407 177.133 165.107 176.719 164.68C176.319 164.253 176.119 163.7 176.119 163.02C176.119 162.42 176.273 161.907 176.579 161.48C176.899 161.04 177.346 160.7 177.919 160.46C178.493 160.22 179.159 160.1 179.919 160.1C180.506 160.1 181.059 160.18 181.579 160.34C182.113 160.487 182.593 160.727 183.019 161.06C183.153 161.153 183.239 161.267 183.279 161.4C183.333 161.52 183.339 161.647 183.299 161.78C183.273 161.9 183.213 162.007 183.119 162.1C183.026 162.18 182.913 162.227 182.779 162.24C182.646 162.253 182.506 162.213 182.359 162.12C181.959 161.853 181.553 161.66 181.139 161.54C180.726 161.407 180.319 161.34 179.919 161.34C179.173 161.34 178.606 161.487 178.219 161.78C177.833 162.073 177.639 162.46 177.639 162.94C177.639 163.313 177.759 163.62 177.999 163.86C178.239 164.1 178.613 164.273 179.119 164.38L180.939 164.76C181.806 164.947 182.453 165.247 182.879 165.66C183.319 166.06 183.539 166.607 183.539 167.3C183.539 168.18 183.186 168.88 182.479 169.4C181.773 169.92 180.833 170.18 179.659 170.18ZM186.808 170.1C186.542 170.1 186.342 170.027 186.208 169.88C186.075 169.72 186.008 169.5 186.008 169.22V161.04C186.008 160.76 186.075 160.547 186.208 160.4C186.342 160.253 186.542 160.18 186.808 160.18C187.062 160.18 187.262 160.253 187.408 160.4C187.555 160.547 187.628 160.76 187.628 161.04V169.22C187.628 169.5 187.555 169.72 187.408 169.88C187.275 170.027 187.075 170.1 186.808 170.1ZM186.808 157.94C186.475 157.94 186.215 157.853 186.028 157.68C185.842 157.493 185.748 157.247 185.748 156.94C185.748 156.62 185.842 156.38 186.028 156.22C186.215 156.047 186.475 155.96 186.808 155.96C187.155 155.96 187.415 156.047 187.588 156.22C187.775 156.38 187.868 156.62 187.868 156.94C187.868 157.247 187.775 157.493 187.588 157.68C187.415 157.853 187.155 157.94 186.808 157.94ZM194.557 170.18C193.797 170.18 193.157 170.047 192.637 169.78C192.13 169.5 191.75 169.1 191.497 168.58C191.243 168.047 191.117 167.4 191.117 166.64V161.54H189.777C189.55 161.54 189.377 161.487 189.257 161.38C189.137 161.26 189.077 161.1 189.077 160.9C189.077 160.7 189.137 160.547 189.257 160.44C189.377 160.333 189.55 160.28 189.777 160.28H191.117V157.98C191.117 157.713 191.19 157.513 191.337 157.38C191.483 157.233 191.683 157.16 191.937 157.16C192.19 157.16 192.383 157.233 192.517 157.38C192.663 157.513 192.737 157.713 192.737 157.98V160.28H195.257C195.483 160.28 195.657 160.333 195.777 160.44C195.897 160.547 195.957 160.7 195.957 160.9C195.957 161.1 195.897 161.26 195.777 161.38C195.657 161.487 195.483 161.54 195.257 161.54H192.737V166.48C192.737 167.24 192.897 167.82 193.217 168.22C193.537 168.607 194.057 168.8 194.777 168.8C195.03 168.8 195.243 168.773 195.417 168.72C195.603 168.667 195.757 168.64 195.877 168.64C195.997 168.627 196.097 168.667 196.177 168.76C196.257 168.853 196.297 169.013 196.297 169.24C196.297 169.4 196.263 169.547 196.197 169.68C196.143 169.813 196.043 169.907 195.897 169.96C195.737 170.013 195.523 170.06 195.257 170.1C195.003 170.153 194.77 170.18 194.557 170.18ZM201.931 170.18C200.905 170.18 200.018 169.98 199.271 169.58C198.538 169.167 197.965 168.587 197.551 167.84C197.151 167.093 196.951 166.2 196.951 165.16C196.951 164.147 197.151 163.267 197.551 162.52C197.951 161.76 198.498 161.167 199.191 160.74C199.898 160.313 200.711 160.1 201.631 160.1C202.285 160.1 202.871 160.213 203.391 160.44C203.911 160.653 204.351 160.967 204.711 161.38C205.085 161.793 205.365 162.293 205.551 162.88C205.751 163.467 205.851 164.127 205.851 164.86C205.851 165.073 205.791 165.233 205.671 165.34C205.551 165.433 205.378 165.48 205.151 165.48H198.191V164.42H204.771L204.451 164.68C204.451 163.96 204.345 163.353 204.131 162.86C203.918 162.353 203.605 161.967 203.191 161.7C202.791 161.433 202.285 161.3 201.671 161.3C200.991 161.3 200.411 161.46 199.931 161.78C199.465 162.087 199.111 162.52 198.871 163.08C198.631 163.627 198.511 164.267 198.511 165V165.12C198.511 166.347 198.805 167.28 199.391 167.92C199.991 168.56 200.838 168.88 201.931 168.88C202.385 168.88 202.831 168.82 203.271 168.7C203.725 168.58 204.165 168.38 204.591 168.1C204.778 167.98 204.945 167.927 205.091 167.94C205.251 167.94 205.378 167.987 205.471 168.08C205.565 168.16 205.625 168.267 205.651 168.4C205.691 168.52 205.678 168.653 205.611 168.8C205.558 168.947 205.445 169.073 205.271 169.18C204.831 169.5 204.311 169.747 203.711 169.92C203.111 170.093 202.518 170.18 201.931 170.18ZM216.632 170.18C216.032 170.18 215.425 170.107 214.812 169.96C214.212 169.813 213.652 169.56 213.132 169.2C212.999 169.107 212.905 169 212.852 168.88C212.799 168.747 212.779 168.62 212.792 168.5C212.819 168.367 212.872 168.253 212.952 168.16C213.045 168.067 213.152 168.013 213.272 168C213.405 167.973 213.552 168 213.712 168.08C214.232 168.4 214.732 168.627 215.212 168.76C215.705 168.88 216.192 168.94 216.672 168.94C217.432 168.94 218.005 168.8 218.392 168.52C218.779 168.24 218.972 167.86 218.972 167.38C218.972 167.007 218.845 166.713 218.592 166.5C218.339 166.273 217.939 166.1 217.392 165.98L215.572 165.58C214.732 165.407 214.105 165.107 213.692 164.68C213.292 164.253 213.092 163.7 213.092 163.02C213.092 162.42 213.245 161.907 213.552 161.48C213.872 161.04 214.319 160.7 214.892 160.46C215.465 160.22 216.132 160.1 216.892 160.1C217.479 160.1 218.032 160.18 218.552 160.34C219.085 160.487 219.565 160.727 219.992 161.06C220.125 161.153 220.212 161.267 220.252 161.4C220.305 161.52 220.312 161.647 220.272 161.78C220.245 161.9 220.185 162.007 220.092 162.1C219.999 162.18 219.885 162.227 219.752 162.24C219.619 162.253 219.479 162.213 219.332 162.12C218.932 161.853 218.525 161.66 218.112 161.54C217.699 161.407 217.292 161.34 216.892 161.34C216.145 161.34 215.579 161.487 215.192 161.78C214.805 162.073 214.612 162.46 214.612 162.94C214.612 163.313 214.732 163.62 214.972 163.86C215.212 164.1 215.585 164.273 216.092 164.38L217.912 164.76C218.779 164.947 219.425 165.247 219.852 165.66C220.292 166.06 220.512 166.607 220.512 167.3C220.512 168.18 220.159 168.88 219.452 169.4C218.745 169.92 217.805 170.18 216.632 170.18ZM227.021 170.18C226.074 170.18 225.254 169.973 224.561 169.56C223.868 169.147 223.328 168.567 222.941 167.82C222.568 167.06 222.381 166.167 222.381 165.14C222.381 164.367 222.488 163.673 222.701 163.06C222.914 162.433 223.228 161.9 223.641 161.46C224.054 161.02 224.541 160.687 225.101 160.46C225.674 160.22 226.314 160.1 227.021 160.1C227.968 160.1 228.788 160.307 229.481 160.72C230.174 161.133 230.708 161.72 231.081 162.48C231.468 163.227 231.661 164.113 231.661 165.14C231.661 165.913 231.554 166.607 231.341 167.22C231.128 167.833 230.814 168.367 230.401 168.82C229.988 169.26 229.494 169.6 228.921 169.84C228.361 170.067 227.728 170.18 227.021 170.18ZM227.021 168.88C227.621 168.88 228.148 168.733 228.601 168.44C229.054 168.147 229.401 167.72 229.641 167.16C229.894 166.6 230.021 165.927 230.021 165.14C230.021 163.927 229.748 163 229.201 162.36C228.668 161.72 227.941 161.4 227.021 161.4C226.408 161.4 225.874 161.547 225.421 161.84C224.981 162.12 224.634 162.54 224.381 163.1C224.141 163.647 224.021 164.327 224.021 165.14C224.021 166.34 224.294 167.267 224.841 167.92C225.388 168.56 226.114 168.88 227.021 168.88ZM237.054 170.18C236.094 170.18 235.361 169.887 234.854 169.3C234.348 168.713 234.094 167.873 234.094 166.78V156.58C234.094 156.313 234.161 156.113 234.294 155.98C234.428 155.833 234.628 155.76 234.894 155.76C235.148 155.76 235.348 155.833 235.494 155.98C235.641 156.113 235.714 156.313 235.714 156.58V166.66C235.714 167.38 235.854 167.92 236.134 168.28C236.428 168.627 236.854 168.8 237.414 168.8C237.534 168.8 237.641 168.793 237.734 168.78C237.828 168.767 237.921 168.76 238.014 168.76C238.161 168.747 238.261 168.78 238.314 168.86C238.381 168.94 238.414 169.1 238.414 169.34C238.414 169.58 238.361 169.76 238.254 169.88C238.148 170 237.974 170.08 237.734 170.12C237.628 170.133 237.514 170.147 237.394 170.16C237.274 170.173 237.161 170.18 237.054 170.18ZM240.812 170.1C240.546 170.1 240.346 170.027 240.212 169.88C240.079 169.72 240.012 169.5 240.012 169.22V161.04C240.012 160.76 240.079 160.547 240.212 160.4C240.346 160.253 240.546 160.18 240.812 160.18C241.066 160.18 241.266 160.253 241.412 160.4C241.559 160.547 241.632 160.76 241.632 161.04V169.22C241.632 169.5 241.559 169.72 241.412 169.88C241.279 170.027 241.079 170.1 240.812 170.1ZM240.812 157.94C240.479 157.94 240.219 157.853 240.032 157.68C239.846 157.493 239.752 157.247 239.752 156.94C239.752 156.62 239.846 156.38 240.032 156.22C240.219 156.047 240.479 155.96 240.812 155.96C241.159 155.96 241.419 156.047 241.592 156.22C241.779 156.38 241.872 156.62 241.872 156.94C241.872 157.247 241.779 157.493 241.592 157.68C241.419 157.853 241.159 157.94 240.812 157.94ZM248.361 170.18C247.494 170.18 246.734 169.973 246.081 169.56C245.441 169.147 244.941 168.567 244.581 167.82C244.234 167.06 244.061 166.167 244.061 165.14C244.061 164.1 244.234 163.207 244.581 162.46C244.941 161.7 245.441 161.12 246.081 160.72C246.734 160.307 247.494 160.1 248.361 160.1C249.241 160.1 249.994 160.32 250.621 160.76C251.247 161.2 251.667 161.793 251.881 162.54H251.661V156.58C251.661 156.313 251.727 156.113 251.861 155.98C252.007 155.833 252.214 155.76 252.481 155.76C252.734 155.76 252.927 155.833 253.061 155.98C253.207 156.113 253.281 156.313 253.281 156.58V169.3C253.281 169.567 253.214 169.773 253.081 169.92C252.947 170.067 252.747 170.14 252.481 170.14C252.227 170.14 252.027 170.067 251.881 169.92C251.747 169.773 251.681 169.567 251.681 169.3V167.4L251.901 167.68C251.687 168.44 251.261 169.047 250.621 169.5C249.994 169.953 249.241 170.18 248.361 170.18ZM248.701 168.88C249.301 168.88 249.827 168.733 250.281 168.44C250.734 168.147 251.081 167.72 251.321 167.16C251.574 166.6 251.701 165.927 251.701 165.14C251.701 163.927 251.427 163 250.881 162.36C250.347 161.72 249.621 161.4 248.701 161.4C248.087 161.4 247.554 161.547 247.101 161.84C246.661 162.12 246.314 162.54 246.061 163.1C245.821 163.647 245.701 164.327 245.701 165.14C245.701 166.34 245.974 167.267 246.521 167.92C247.067 168.56 247.794 168.88 248.701 168.88ZM97.8263 198.14C97.573 198.14 97.373 198.067 97.2263 197.92C97.093 197.773 97.0263 197.567 97.0263 197.3V189.54H95.7463C95.533 189.54 95.3597 189.487 95.2263 189.38C95.1063 189.26 95.0463 189.1 95.0463 188.9C95.0463 188.7 95.1063 188.547 95.2263 188.44C95.3597 188.333 95.533 188.28 95.7463 188.28H97.4663L97.0263 188.7V187.94C97.0263 186.673 97.333 185.707 97.9463 185.04C98.573 184.373 99.4863 183.987 100.686 183.88L101.266 183.82C101.453 183.807 101.6 183.84 101.706 183.92C101.826 184 101.9 184.1 101.926 184.22C101.966 184.34 101.973 184.467 101.946 184.6C101.92 184.72 101.86 184.827 101.766 184.92C101.673 185.013 101.56 185.067 101.426 185.08L100.966 185.12C100.153 185.187 99.5597 185.433 99.1863 185.86C98.8263 186.287 98.6463 186.913 98.6463 187.74V188.58L98.4063 188.28H100.806C101.033 188.28 101.206 188.333 101.326 188.44C101.446 188.547 101.506 188.7 101.506 188.9C101.506 189.1 101.446 189.26 101.326 189.38C101.206 189.487 101.033 189.54 100.806 189.54H98.6463V197.3C98.6463 197.86 98.373 198.14 97.8263 198.14ZM103.986 198.14C103.72 198.14 103.513 198.067 103.366 197.92C103.233 197.773 103.166 197.567 103.166 197.3V188.96C103.166 188.693 103.233 188.493 103.366 188.36C103.5 188.213 103.693 188.14 103.946 188.14C104.2 188.14 104.393 188.213 104.526 188.36C104.673 188.493 104.746 188.693 104.746 188.96V190.58H104.546C104.76 189.793 105.166 189.187 105.766 188.76C106.366 188.333 107.106 188.107 107.986 188.08C108.186 188.067 108.346 188.113 108.466 188.22C108.586 188.313 108.653 188.48 108.666 188.72C108.68 188.947 108.626 189.127 108.506 189.26C108.386 189.393 108.2 189.473 107.946 189.5L107.626 189.54C106.72 189.62 106.02 189.913 105.526 190.42C105.046 190.913 104.806 191.593 104.806 192.46V197.3C104.806 197.567 104.733 197.773 104.586 197.92C104.453 198.067 104.253 198.14 103.986 198.14ZM114.257 198.18C113.311 198.18 112.491 197.973 111.797 197.56C111.104 197.147 110.564 196.567 110.177 195.82C109.804 195.06 109.617 194.167 109.617 193.14C109.617 192.367 109.724 191.673 109.937 191.06C110.151 190.433 110.464 189.9 110.877 189.46C111.291 189.02 111.777 188.687 112.337 188.46C112.911 188.22 113.551 188.1 114.257 188.1C115.204 188.1 116.024 188.307 116.717 188.72C117.411 189.133 117.944 189.72 118.317 190.48C118.704 191.227 118.897 192.113 118.897 193.14C118.897 193.913 118.791 194.607 118.577 195.22C118.364 195.833 118.051 196.367 117.637 196.82C117.224 197.26 116.731 197.6 116.157 197.84C115.597 198.067 114.964 198.18 114.257 198.18ZM114.257 196.88C114.857 196.88 115.384 196.733 115.837 196.44C116.291 196.147 116.637 195.72 116.877 195.16C117.131 194.6 117.257 193.927 117.257 193.14C117.257 191.927 116.984 191 116.437 190.36C115.904 189.72 115.177 189.4 114.257 189.4C113.644 189.4 113.111 189.547 112.657 189.84C112.217 190.12 111.871 190.54 111.617 191.1C111.377 191.647 111.257 192.327 111.257 193.14C111.257 194.34 111.531 195.267 112.077 195.92C112.624 196.56 113.351 196.88 114.257 196.88ZM122.171 198.14C121.904 198.14 121.704 198.067 121.571 197.92C121.437 197.773 121.371 197.567 121.371 197.3V188.96C121.371 188.693 121.437 188.493 121.571 188.36C121.704 188.213 121.897 188.14 122.151 188.14C122.404 188.14 122.597 188.213 122.731 188.36C122.877 188.493 122.951 188.693 122.951 188.96V190.72L122.731 190.44C122.984 189.693 123.391 189.12 123.951 188.72C124.524 188.307 125.204 188.1 125.991 188.1C126.817 188.1 127.484 188.3 127.991 188.7C128.511 189.087 128.857 189.693 129.031 190.52H128.731C128.971 189.773 129.397 189.187 130.011 188.76C130.637 188.32 131.364 188.1 132.191 188.1C132.924 188.1 133.524 188.24 133.991 188.52C134.471 188.8 134.831 189.227 135.071 189.8C135.311 190.36 135.431 191.073 135.431 191.94V197.3C135.431 197.567 135.357 197.773 135.211 197.92C135.077 198.067 134.877 198.14 134.611 198.14C134.357 198.14 134.157 198.067 134.011 197.92C133.877 197.773 133.811 197.567 133.811 197.3V192.02C133.811 191.127 133.657 190.473 133.351 190.06C133.044 189.633 132.524 189.42 131.791 189.42C130.991 189.42 130.357 189.7 129.891 190.26C129.437 190.807 129.211 191.553 129.211 192.5V197.3C129.211 197.567 129.137 197.773 128.991 197.92C128.857 198.067 128.657 198.14 128.391 198.14C128.137 198.14 127.937 198.067 127.791 197.92C127.657 197.773 127.591 197.567 127.591 197.3V192.02C127.591 191.127 127.431 190.473 127.111 190.06C126.804 189.633 126.291 189.42 125.571 189.42C124.771 189.42 124.137 189.7 123.671 190.26C123.217 190.807 122.991 191.553 122.991 192.5V197.3C122.991 197.86 122.717 198.14 122.171 198.14ZM148.536 198.18C147.656 198.18 146.896 197.953 146.256 197.5C145.629 197.047 145.209 196.44 144.996 195.68L145.216 195.46V197.3C145.216 197.567 145.142 197.773 144.996 197.92C144.862 198.067 144.669 198.14 144.416 198.14C144.149 198.14 143.949 198.067 143.816 197.92C143.682 197.773 143.616 197.567 143.616 197.3V184.58C143.616 184.313 143.682 184.113 143.816 183.98C143.949 183.833 144.149 183.76 144.416 183.76C144.669 183.76 144.869 183.833 145.016 183.98C145.162 184.113 145.236 184.313 145.236 184.58V190.54H144.996C145.222 189.793 145.649 189.2 146.276 188.76C146.902 188.32 147.656 188.1 148.536 188.1C149.416 188.1 150.176 188.307 150.816 188.72C151.456 189.12 151.949 189.7 152.296 190.46C152.656 191.207 152.836 192.1 152.836 193.14C152.836 194.167 152.656 195.06 152.296 195.82C151.949 196.567 151.449 197.147 150.796 197.56C150.156 197.973 149.402 198.18 148.536 198.18ZM148.196 196.88C148.809 196.88 149.336 196.733 149.776 196.44C150.229 196.147 150.576 195.72 150.816 195.16C151.069 194.6 151.196 193.927 151.196 193.14C151.196 191.927 150.922 191 150.376 190.36C149.842 189.72 149.116 189.4 148.196 189.4C147.596 189.4 147.069 189.547 146.616 189.84C146.162 190.12 145.809 190.54 145.556 191.1C145.316 191.647 145.196 192.327 145.196 193.14C145.196 194.34 145.469 195.267 146.016 195.92C146.562 196.56 147.289 196.88 148.196 196.88ZM159.656 198.18C158.629 198.18 157.743 197.98 156.996 197.58C156.263 197.167 155.689 196.587 155.276 195.84C154.876 195.093 154.676 194.2 154.676 193.16C154.676 192.147 154.876 191.267 155.276 190.52C155.676 189.76 156.223 189.167 156.916 188.74C157.623 188.313 158.436 188.1 159.356 188.1C160.009 188.1 160.596 188.213 161.116 188.44C161.636 188.653 162.076 188.967 162.436 189.38C162.809 189.793 163.089 190.293 163.276 190.88C163.476 191.467 163.576 192.127 163.576 192.86C163.576 193.073 163.516 193.233 163.396 193.34C163.276 193.433 163.103 193.48 162.876 193.48H155.916V192.42H162.496L162.176 192.68C162.176 191.96 162.069 191.353 161.856 190.86C161.643 190.353 161.329 189.967 160.916 189.7C160.516 189.433 160.009 189.3 159.396 189.3C158.716 189.3 158.136 189.46 157.656 189.78C157.189 190.087 156.836 190.52 156.596 191.08C156.356 191.627 156.236 192.267 156.236 193V193.12C156.236 194.347 156.529 195.28 157.116 195.92C157.716 196.56 158.563 196.88 159.656 196.88C160.109 196.88 160.556 196.82 160.996 196.7C161.449 196.58 161.889 196.38 162.316 196.1C162.503 195.98 162.669 195.927 162.816 195.94C162.976 195.94 163.103 195.987 163.196 196.08C163.289 196.16 163.349 196.267 163.376 196.4C163.416 196.52 163.403 196.653 163.336 196.8C163.283 196.947 163.169 197.073 162.996 197.18C162.556 197.5 162.036 197.747 161.436 197.92C160.836 198.093 160.243 198.18 159.656 198.18ZM168.88 198.18C167.92 198.18 167.187 197.887 166.68 197.3C166.174 196.713 165.92 195.873 165.92 194.78V184.58C165.92 184.313 165.987 184.113 166.12 183.98C166.254 183.833 166.454 183.76 166.72 183.76C166.974 183.76 167.174 183.833 167.32 183.98C167.467 184.113 167.54 184.313 167.54 184.58V194.66C167.54 195.38 167.68 195.92 167.96 196.28C168.254 196.627 168.68 196.8 169.24 196.8C169.36 196.8 169.467 196.793 169.56 196.78C169.654 196.767 169.747 196.76 169.84 196.76C169.987 196.747 170.087 196.78 170.14 196.86C170.207 196.94 170.24 197.1 170.24 197.34C170.24 197.58 170.187 197.76 170.08 197.88C169.974 198 169.8 198.08 169.56 198.12C169.454 198.133 169.34 198.147 169.22 198.16C169.1 198.173 168.987 198.18 168.88 198.18ZM175.781 198.18C174.834 198.18 174.014 197.973 173.321 197.56C172.627 197.147 172.087 196.567 171.701 195.82C171.327 195.06 171.141 194.167 171.141 193.14C171.141 192.367 171.247 191.673 171.461 191.06C171.674 190.433 171.987 189.9 172.401 189.46C172.814 189.02 173.301 188.687 173.861 188.46C174.434 188.22 175.074 188.1 175.781 188.1C176.727 188.1 177.547 188.307 178.241 188.72C178.934 189.133 179.467 189.72 179.841 190.48C180.227 191.227 180.421 192.113 180.421 193.14C180.421 193.913 180.314 194.607 180.101 195.22C179.887 195.833 179.574 196.367 179.161 196.82C178.747 197.26 178.254 197.6 177.681 197.84C177.121 198.067 176.487 198.18 175.781 198.18ZM175.781 196.88C176.381 196.88 176.907 196.733 177.361 196.44C177.814 196.147 178.161 195.72 178.401 195.16C178.654 194.6 178.781 193.927 178.781 193.14C178.781 191.927 178.507 191 177.961 190.36C177.427 189.72 176.701 189.4 175.781 189.4C175.167 189.4 174.634 189.547 174.181 189.84C173.741 190.12 173.394 190.54 173.141 191.1C172.901 191.647 172.781 192.327 172.781 193.14C172.781 194.34 173.054 195.267 173.601 195.92C174.147 196.56 174.874 196.88 175.781 196.88ZM186.077 198.14C185.851 198.14 185.651 198.08 185.477 197.96C185.304 197.84 185.164 197.647 185.057 197.38L182.077 189.28C181.997 189.053 181.971 188.853 181.997 188.68C182.037 188.507 182.124 188.373 182.257 188.28C182.391 188.187 182.557 188.14 182.757 188.14C182.957 188.14 183.117 188.187 183.237 188.28C183.371 188.373 183.477 188.547 183.557 188.8L186.357 196.8H185.877L188.757 188.8C188.851 188.56 188.964 188.393 189.097 188.3C189.244 188.193 189.431 188.14 189.657 188.14C189.871 188.14 190.051 188.193 190.197 188.3C190.344 188.407 190.457 188.573 190.537 188.8L193.357 196.8H192.897L195.737 188.76C195.831 188.52 195.944 188.36 196.077 188.28C196.211 188.187 196.371 188.14 196.557 188.14C196.771 188.14 196.931 188.193 197.037 188.3C197.157 188.407 197.224 188.547 197.237 188.72C197.251 188.893 197.217 189.08 197.137 189.28L194.157 197.38C194.064 197.633 193.924 197.827 193.737 197.96C193.564 198.08 193.364 198.14 193.137 198.14C192.911 198.14 192.711 198.08 192.537 197.96C192.364 197.827 192.231 197.633 192.137 197.38L189.177 189.26H190.037L187.097 197.38C187.004 197.633 186.871 197.827 186.697 197.96C186.524 198.08 186.317 198.14 186.077 198.14Z" fill="#888888"/>
</svg>
