<svg width="159" height="19" viewBox="0 0 159 19" fill="none" xmlns="http://www.w3.org/2000/svg">
<path d="M6.4 15.2C5.42667 15.2 4.56667 15.0733 3.82 14.82C3.08667 14.5667 2.46667 14.1933 1.96 13.7C1.45333 13.1933 1.07333 12.5667 0.82 11.82C0.566667 11.0733 0.44 10.2067 0.44 9.22V2.04C0.44 1.6 0.546667 1.27333 0.76 1.06C0.986667 0.846666 1.30667 0.739999 1.72 0.739999C2.13333 0.739999 2.44667 0.846666 2.66 1.06C2.88667 1.27333 3 1.6 3 2.04V9.2C3 10.4667 3.28667 11.42 3.86 12.06C4.44667 12.6867 5.29333 13 6.4 13C7.50667 13 8.34667 12.6867 8.92 12.06C9.49333 11.42 9.78 10.4667 9.78 9.2V2.04C9.78 1.6 9.88667 1.27333 10.1 1.06C10.3267 0.846666 10.6467 0.739999 11.06 0.739999C11.46 0.739999 11.7667 0.846666 11.98 1.06C12.2067 1.27333 12.32 1.6 12.32 2.04V9.22C12.32 10.5267 12.0933 11.6267 11.64 12.52C11.2 13.4133 10.54 14.0867 9.66 14.54C8.78 14.98 7.69333 15.2 6.4 15.2ZM16.3056 15.16C15.9056 15.16 15.599 15.0533 15.3856 14.84C15.1723 14.6133 15.0656 14.2933 15.0656 13.88V2C15.0656 1.58667 15.1723 1.27333 15.3856 1.06C15.599 0.846666 15.9056 0.739999 16.3056 0.739999C16.7056 0.739999 17.0123 0.846666 17.2256 1.06C17.4523 1.27333 17.5656 1.58667 17.5656 2V7.18H17.2856C17.579 6.47333 18.0323 5.94 18.6456 5.58C19.2723 5.20667 19.979 5.02 20.7656 5.02C21.5523 5.02 22.199 5.16667 22.7056 5.46C23.2123 5.75333 23.5923 6.2 23.8456 6.8C24.099 7.38667 24.2256 8.13333 24.2256 9.04V13.88C24.2256 14.2933 24.119 14.6133 23.9056 14.84C23.6923 15.0533 23.3856 15.16 22.9856 15.16C22.5856 15.16 22.2723 15.0533 22.0456 14.84C21.8323 14.6133 21.7256 14.2933 21.7256 13.88V9.16C21.7256 8.4 21.579 7.84667 21.2856 7.5C21.0056 7.15333 20.5656 6.98 19.9656 6.98C19.2323 6.98 18.6456 7.21333 18.2056 7.68C17.779 8.13333 17.5656 8.74 17.5656 9.5V13.88C17.5656 14.7333 17.1456 15.16 16.3056 15.16ZM27.6848 10.64C27.3915 10.64 27.1448 10.5467 26.9448 10.36C26.7582 10.16 26.6648 9.92 26.6648 9.64C26.6648 9.34667 26.7582 9.10667 26.9448 8.92C27.1448 8.73333 27.3915 8.64 27.6848 8.64H31.9448C32.2248 8.64 32.4582 8.73333 32.6448 8.92C32.8448 9.10667 32.9448 9.34667 32.9448 9.64C32.9448 9.92 32.8448 10.16 32.6448 10.36C32.4582 10.5467 32.2248 10.64 31.9448 10.64H27.6848ZM40.1897 15.2C39.1764 15.2 38.2964 14.9933 37.5497 14.58C36.803 14.1667 36.223 13.58 35.8097 12.82C35.3964 12.0467 35.1897 11.14 35.1897 10.1C35.1897 9.31333 35.303 8.61333 35.5297 8C35.7697 7.37333 36.1097 6.84 36.5497 6.4C36.9897 5.94667 37.5164 5.60667 38.1297 5.38C38.743 5.14 39.4297 5.02 40.1897 5.02C41.203 5.02 42.083 5.22667 42.8297 5.64C43.5764 6.05333 44.1564 6.64 44.5697 7.4C44.983 8.16 45.1897 9.06 45.1897 10.1C45.1897 10.8867 45.0697 11.5933 44.8297 12.22C44.603 12.8467 44.2697 13.3867 43.8297 13.84C43.3897 14.28 42.863 14.62 42.2497 14.86C41.6364 15.0867 40.9497 15.2 40.1897 15.2ZM40.1897 13.3C40.683 13.3 41.1164 13.18 41.4897 12.94C41.863 12.7 42.1497 12.3467 42.3497 11.88C42.563 11.4 42.6697 10.8067 42.6697 10.1C42.6697 9.03333 42.443 8.24 41.9897 7.72C41.5364 7.18667 40.9364 6.92 40.1897 6.92C39.6964 6.92 39.263 7.04 38.8897 7.28C38.5164 7.50667 38.223 7.86 38.0097 8.34C37.8097 8.80667 37.7097 9.39333 37.7097 10.1C37.7097 11.1533 37.9364 11.9533 38.3897 12.5C38.843 13.0333 39.443 13.3 40.1897 13.3ZM48.4931 15.16C48.0931 15.16 47.7865 15.0533 47.5731 14.84C47.3598 14.6133 47.2531 14.2933 47.2531 13.88V2C47.2531 1.58667 47.3598 1.27333 47.5731 1.06C47.7865 0.846666 48.0931 0.739999 48.4931 0.739999C48.8931 0.739999 49.1998 0.846666 49.4131 1.06C49.6398 1.27333 49.7531 1.58667 49.7531 2V7.18H49.4731C49.7665 6.47333 50.2198 5.94 50.8331 5.58C51.4598 5.20667 52.1665 5.02 52.9531 5.02C53.7398 5.02 54.3865 5.16667 54.8931 5.46C55.3998 5.75333 55.7798 6.2 56.0331 6.8C56.2865 7.38667 56.4131 8.13333 56.4131 9.04V13.88C56.4131 14.2933 56.3065 14.6133 56.0931 14.84C55.8798 15.0533 55.5731 15.16 55.1731 15.16C54.7731 15.16 54.4598 15.0533 54.2331 14.84C54.0198 14.6133 53.9131 14.2933 53.9131 13.88V9.16C53.9131 8.4 53.7665 7.84667 53.4731 7.5C53.1931 7.15333 52.7531 6.98 52.1531 6.98C51.4198 6.98 50.8331 7.21333 50.3931 7.68C49.9665 8.13333 49.7531 8.74 49.7531 9.5V13.88C49.7531 14.7333 49.3331 15.16 48.4931 15.16ZM60.1523 10.94C59.899 10.94 59.699 10.86 59.5523 10.7C59.419 10.54 59.339 10.3133 59.3123 10.02L58.7123 2.38C58.6723 1.88667 58.779 1.49333 59.0323 1.2C59.2857 0.893332 59.659 0.739999 60.1523 0.739999C60.6323 0.739999 60.9923 0.893332 61.2323 1.2C61.4857 1.49333 61.5923 1.88667 61.5523 2.38L60.9523 10.02C60.939 10.3133 60.859 10.54 60.7123 10.7C60.579 10.86 60.3923 10.94 60.1523 10.94ZM60.1523 15.1C59.699 15.1 59.3323 14.96 59.0523 14.68C58.7857 14.4 58.6523 14.04 58.6523 13.6C58.6523 13.1733 58.7857 12.8267 59.0523 12.56C59.3323 12.28 59.699 12.14 60.1523 12.14C60.619 12.14 60.979 12.28 61.2323 12.56C61.499 12.8267 61.6323 13.1733 61.6323 13.6C61.6323 14.04 61.499 14.4 61.2323 14.68C60.979 14.96 60.619 15.1 60.1523 15.1ZM74.263 15.16C73.8496 15.16 73.5296 15.0467 73.303 14.82C73.0896 14.58 72.983 14.2533 72.983 13.84V3.04H69.083C68.7363 3.04 68.463 2.94667 68.263 2.76C68.0763 2.56 67.983 2.29333 67.983 1.96C67.983 1.61333 68.0763 1.35333 68.263 1.18C68.463 0.993332 68.7363 0.899999 69.083 0.899999H79.443C79.7896 0.899999 80.0563 0.993332 80.243 1.18C80.443 1.35333 80.543 1.61333 80.543 1.96C80.543 2.29333 80.443 2.56 80.243 2.76C80.0563 2.94667 79.7896 3.04 79.443 3.04H75.543V13.84C75.543 14.2533 75.4363 14.58 75.223 14.82C75.0096 15.0467 74.6896 15.16 74.263 15.16ZM81.4823 15.16C81.069 15.16 80.749 15.0533 80.5223 14.84C80.309 14.6133 80.2023 14.2933 80.2023 13.88V6.32C80.2023 5.90667 80.309 5.59333 80.5223 5.38C80.7357 5.16667 81.0357 5.06 81.4223 5.06C81.809 5.06 82.109 5.16667 82.3223 5.38C82.5357 5.59333 82.6423 5.90667 82.6423 6.32V7.58H82.4423C82.629 6.78 82.9957 6.17333 83.5423 5.76C84.089 5.34667 84.8157 5.1 85.7223 5.02C86.0023 4.99333 86.2223 5.06667 86.3823 5.24C86.5557 5.4 86.6557 5.65333 86.6823 6C86.709 6.33333 86.629 6.60667 86.4423 6.82C86.269 7.02 86.0023 7.14 85.6423 7.18L85.2023 7.22C84.389 7.3 83.7757 7.55333 83.3623 7.98C82.949 8.39333 82.7423 8.98 82.7423 9.74V13.88C82.7423 14.2933 82.6357 14.6133 82.4223 14.84C82.209 15.0533 81.8957 15.16 81.4823 15.16ZM91.1198 18.76C90.8265 18.76 90.5865 18.68 90.3998 18.52C90.2132 18.3733 90.0998 18.1733 90.0598 17.92C90.0332 17.6667 90.0798 17.4 90.1998 17.12L91.5598 14.1V15.14L87.9198 6.72C87.7998 6.42667 87.7598 6.15333 87.7998 5.9C87.8398 5.64667 87.9598 5.44667 88.1598 5.3C88.3732 5.14 88.6598 5.06 89.0198 5.06C89.3265 5.06 89.5732 5.13333 89.7598 5.28C89.9465 5.41333 90.1132 5.67333 90.2598 6.06L92.9598 12.8H92.3598L95.1198 6.04C95.2665 5.66667 95.4398 5.41333 95.6398 5.28C95.8398 5.13333 96.1065 5.06 96.4398 5.06C96.7332 5.06 96.9665 5.14 97.1398 5.3C97.3132 5.44667 97.4198 5.64667 97.4598 5.9C97.4998 6.14 97.4532 6.40667 97.3198 6.7L92.4598 17.8C92.2865 18.1733 92.0998 18.4267 91.8998 18.56C91.6998 18.6933 91.4398 18.76 91.1198 18.76ZM107.817 15.2C107.11 15.2 106.477 15.0667 105.917 14.8C105.37 14.52 104.937 14.1467 104.617 13.68C104.31 13.2133 104.157 12.6867 104.157 12.1C104.157 11.38 104.344 10.8133 104.717 10.4C105.09 9.97333 105.697 9.66667 106.537 9.48C107.377 9.29333 108.504 9.2 109.917 9.2H110.917V10.64H109.937C109.11 10.64 108.45 10.68 107.957 10.76C107.464 10.84 107.11 10.98 106.897 11.18C106.697 11.3667 106.597 11.6333 106.597 11.98C106.597 12.42 106.75 12.78 107.057 13.06C107.364 13.34 107.79 13.48 108.337 13.48C108.777 13.48 109.164 13.38 109.497 13.18C109.844 12.9667 110.117 12.68 110.317 12.32C110.517 11.96 110.617 11.5467 110.617 11.08V8.78C110.617 8.11333 110.47 7.63333 110.177 7.34C109.884 7.04667 109.39 6.9 108.697 6.9C108.31 6.9 107.89 6.94667 107.437 7.04C106.997 7.13333 106.53 7.29333 106.037 7.52C105.784 7.64 105.557 7.67333 105.357 7.62C105.17 7.56667 105.024 7.46 104.917 7.3C104.81 7.12667 104.757 6.94 104.757 6.74C104.757 6.54 104.81 6.34667 104.917 6.16C105.024 5.96 105.204 5.81333 105.457 5.72C106.07 5.46667 106.657 5.28667 107.217 5.18C107.79 5.07333 108.31 5.02 108.777 5.02C109.737 5.02 110.524 5.16667 111.137 5.46C111.764 5.75333 112.23 6.2 112.537 6.8C112.844 7.38667 112.997 8.14667 112.997 9.08V13.88C112.997 14.2933 112.897 14.6133 112.697 14.84C112.497 15.0533 112.21 15.16 111.837 15.16C111.464 15.16 111.17 15.0533 110.957 14.84C110.757 14.6133 110.657 14.2933 110.657 13.88V12.92H110.817C110.724 13.3867 110.537 13.7933 110.257 14.14C109.99 14.4733 109.65 14.7333 109.237 14.92C108.824 15.1067 108.35 15.2 107.817 15.2ZM120.094 18.8C119.374 18.8 118.674 18.7333 117.994 18.6C117.328 18.4667 116.721 18.26 116.174 17.98C115.921 17.8467 115.748 17.6867 115.654 17.5C115.574 17.3133 115.548 17.12 115.574 16.92C115.614 16.7333 115.694 16.5667 115.814 16.42C115.948 16.2733 116.108 16.1733 116.294 16.12C116.481 16.0667 116.674 16.0933 116.874 16.2C117.461 16.4933 118.014 16.68 118.534 16.76C119.068 16.8533 119.521 16.9 119.894 16.9C120.788 16.9 121.454 16.68 121.894 16.24C122.348 15.8133 122.574 15.1733 122.574 14.32V12.52H122.754C122.554 13.2 122.134 13.7467 121.494 14.16C120.868 14.56 120.154 14.76 119.354 14.76C118.474 14.76 117.708 14.56 117.054 14.16C116.401 13.7467 115.894 13.1733 115.534 12.44C115.174 11.7067 114.994 10.8533 114.994 9.88C114.994 9.14667 115.094 8.48667 115.294 7.9C115.508 7.3 115.801 6.78667 116.174 6.36C116.561 5.93333 117.021 5.60667 117.554 5.38C118.101 5.14 118.701 5.02 119.354 5.02C120.181 5.02 120.901 5.22667 121.514 5.64C122.141 6.04 122.548 6.57333 122.734 7.24L122.534 7.74V6.32C122.534 5.90667 122.641 5.59333 122.854 5.38C123.081 5.16667 123.388 5.06 123.774 5.06C124.174 5.06 124.481 5.16667 124.694 5.38C124.908 5.59333 125.014 5.90667 125.014 6.32V14.02C125.014 15.6067 124.594 16.8 123.754 17.6C122.914 18.4 121.694 18.8 120.094 18.8ZM120.034 12.86C120.554 12.86 121.001 12.74 121.374 12.5C121.748 12.26 122.034 11.92 122.234 11.48C122.448 11.0267 122.554 10.4933 122.554 9.88C122.554 8.96 122.328 8.24 121.874 7.72C121.421 7.18667 120.808 6.92 120.034 6.92C119.514 6.92 119.068 7.04 118.694 7.28C118.321 7.52 118.028 7.86 117.814 8.3C117.614 8.74 117.514 9.26667 117.514 9.88C117.514 10.8 117.741 11.5267 118.194 12.06C118.648 12.5933 119.261 12.86 120.034 12.86ZM130.825 15.2C130.118 15.2 129.485 15.0667 128.925 14.8C128.378 14.52 127.945 14.1467 127.625 13.68C127.318 13.2133 127.165 12.6867 127.165 12.1C127.165 11.38 127.351 10.8133 127.725 10.4C128.098 9.97333 128.705 9.66667 129.545 9.48C130.385 9.29333 131.511 9.2 132.925 9.2H133.925V10.64H132.945C132.118 10.64 131.458 10.68 130.965 10.76C130.471 10.84 130.118 10.98 129.905 11.18C129.705 11.3667 129.605 11.6333 129.605 11.98C129.605 12.42 129.758 12.78 130.065 13.06C130.371 13.34 130.798 13.48 131.345 13.48C131.785 13.48 132.171 13.38 132.505 13.18C132.851 12.9667 133.125 12.68 133.325 12.32C133.525 11.96 133.625 11.5467 133.625 11.08V8.78C133.625 8.11333 133.478 7.63333 133.185 7.34C132.891 7.04667 132.398 6.9 131.705 6.9C131.318 6.9 130.898 6.94667 130.445 7.04C130.005 7.13333 129.538 7.29333 129.045 7.52C128.791 7.64 128.565 7.67333 128.365 7.62C128.178 7.56667 128.031 7.46 127.925 7.3C127.818 7.12667 127.765 6.94 127.765 6.74C127.765 6.54 127.818 6.34667 127.925 6.16C128.031 5.96 128.211 5.81333 128.465 5.72C129.078 5.46667 129.665 5.28667 130.225 5.18C130.798 5.07333 131.318 5.02 131.785 5.02C132.745 5.02 133.531 5.16667 134.145 5.46C134.771 5.75333 135.238 6.2 135.545 6.8C135.851 7.38667 136.005 8.14667 136.005 9.08V13.88C136.005 14.2933 135.905 14.6133 135.705 14.84C135.505 15.0533 135.218 15.16 134.845 15.16C134.471 15.16 134.178 15.0533 133.965 14.84C133.765 14.6133 133.665 14.2933 133.665 13.88V12.92H133.825C133.731 13.3867 133.545 13.7933 133.265 14.14C132.998 14.4733 132.658 14.7333 132.245 14.92C131.831 15.1067 131.358 15.2 130.825 15.2ZM139.782 15.14C139.382 15.14 139.076 15.02 138.862 14.78C138.649 14.54 138.542 14.2067 138.542 13.78V6.44C138.542 6 138.649 5.66667 138.862 5.44C139.076 5.2 139.382 5.08 139.782 5.08C140.182 5.08 140.489 5.2 140.702 5.44C140.929 5.66667 141.042 6 141.042 6.44V13.78C141.042 14.2067 140.936 14.54 140.722 14.78C140.509 15.02 140.196 15.14 139.782 15.14ZM139.782 3.22C139.316 3.22 138.949 3.10667 138.682 2.88C138.429 2.64 138.302 2.31333 138.302 1.9C138.302 1.47333 138.429 1.14667 138.682 0.919999C138.949 0.693333 139.316 0.58 139.782 0.58C140.262 0.58 140.629 0.693333 140.882 0.919999C141.136 1.14667 141.262 1.47333 141.262 1.9C141.262 2.31333 141.136 2.64 140.882 2.88C140.629 3.10667 140.262 3.22 139.782 3.22ZM144.88 15.16C144.48 15.16 144.173 15.0533 143.96 14.84C143.747 14.6133 143.64 14.2933 143.64 13.88V6.32C143.64 5.90667 143.747 5.59333 143.96 5.38C144.173 5.16667 144.473 5.06 144.86 5.06C145.247 5.06 145.547 5.16667 145.76 5.38C145.973 5.59333 146.08 5.90667 146.08 6.32V7.68L145.86 7.18C146.153 6.47333 146.607 5.94 147.22 5.58C147.847 5.20667 148.553 5.02 149.34 5.02C150.127 5.02 150.773 5.16667 151.28 5.46C151.787 5.75333 152.167 6.2 152.42 6.8C152.673 7.38667 152.8 8.13333 152.8 9.04V13.88C152.8 14.2933 152.693 14.6133 152.48 14.84C152.267 15.0533 151.96 15.16 151.56 15.16C151.16 15.16 150.847 15.0533 150.62 14.84C150.407 14.6133 150.3 14.2933 150.3 13.88V9.16C150.3 8.4 150.153 7.84667 149.86 7.5C149.58 7.15333 149.14 6.98 148.54 6.98C147.807 6.98 147.22 7.21333 146.78 7.68C146.353 8.13333 146.14 8.74 146.14 9.5V13.88C146.14 14.7333 145.72 15.16 144.88 15.16ZM156.539 10.94C156.286 10.94 156.086 10.86 155.939 10.7C155.806 10.54 155.726 10.3133 155.699 10.02L155.099 2.38C155.059 1.88667 155.166 1.49333 155.419 1.2C155.672 0.893332 156.046 0.739999 156.539 0.739999C157.019 0.739999 157.379 0.893332 157.619 1.2C157.872 1.49333 157.979 1.88667 157.939 2.38L157.339 10.02C157.326 10.3133 157.246 10.54 157.099 10.7C156.966 10.86 156.779 10.94 156.539 10.94ZM156.539 15.1C156.086 15.1 155.719 14.96 155.439 14.68C155.172 14.4 155.039 14.04 155.039 13.6C155.039 13.1733 155.172 12.8267 155.439 12.56C155.719 12.28 156.086 12.14 156.539 12.14C157.006 12.14 157.366 12.28 157.619 12.56C157.886 12.8267 158.019 13.1733 158.019 13.6C158.019 14.04 157.886 14.4 157.619 14.68C157.366 14.96 157.006 15.1 156.539 15.1Z" fill="#444444"/>
</svg>
