<svg width="106" height="60" viewBox="0 0 106 60" fill="none" xmlns="http://www.w3.org/2000/svg">
<rect x="0.5" width="105" height="60" rx="10" fill="#1A1A1A"/>
<g clip-path="url(#clip0_2599_12047)">
<path d="M32.3558 38.24C31.6518 38.24 30.9478 38.184 30.2438 38.072C29.5398 37.976 28.8758 37.824 28.2518 37.616C27.6278 37.392 27.0678 37.12 26.5718 36.8C26.2838 36.608 26.0838 36.376 25.9718 36.104C25.8598 35.832 25.8198 35.568 25.8518 35.312C25.8998 35.04 26.0038 34.808 26.1638 34.616C26.3398 34.408 26.5558 34.28 26.8118 34.232C27.0678 34.184 27.3478 34.256 27.6518 34.448C28.3558 34.864 29.0998 35.168 29.8838 35.36C30.6678 35.552 31.4918 35.648 32.3558 35.648C33.6198 35.648 34.5398 35.44 35.1158 35.024C35.6918 34.592 35.9798 34.04 35.9798 33.368C35.9798 32.808 35.7718 32.368 35.3558 32.048C34.9558 31.728 34.2598 31.464 33.2678 31.256L30.6278 30.704C29.1078 30.384 27.9718 29.848 27.2198 29.096C26.4838 28.328 26.1158 27.32 26.1158 26.072C26.1158 25.288 26.2758 24.576 26.5958 23.936C26.9158 23.296 27.3638 22.744 27.9398 22.28C28.5318 21.816 29.2278 21.464 30.0278 21.224C30.8438 20.968 31.7398 20.84 32.7158 20.84C33.6758 20.84 34.5878 20.96 35.4518 21.2C36.3158 21.44 37.0918 21.792 37.7798 22.256C38.0358 22.432 38.2038 22.648 38.2838 22.904C38.3798 23.16 38.4038 23.416 38.3558 23.672C38.3078 23.912 38.1958 24.12 38.0198 24.296C37.8438 24.472 37.6198 24.576 37.3478 24.608C37.0918 24.64 36.7958 24.56 36.4598 24.368C35.8678 24.032 35.2678 23.792 34.6598 23.648C34.0518 23.504 33.3958 23.432 32.6918 23.432C31.9558 23.432 31.3238 23.536 30.7958 23.744C30.2678 23.952 29.8598 24.248 29.5718 24.632C29.2998 25 29.1638 25.44 29.1638 25.952C29.1638 26.528 29.3558 26.992 29.7398 27.344C30.1238 27.68 30.7798 27.944 31.7078 28.136L34.3238 28.688C35.9078 29.024 37.0838 29.552 37.8518 30.272C38.6358 30.992 39.0278 31.952 39.0278 33.152C39.0278 33.92 38.8678 34.616 38.5478 35.24C38.2438 35.864 37.7958 36.4 37.2038 36.848C36.6278 37.296 35.9318 37.64 35.1158 37.88C34.2998 38.12 33.3798 38.24 32.3558 38.24ZM46.6352 38.24C45.5952 38.24 44.7232 38.064 44.0192 37.712C43.3312 37.36 42.8192 36.848 42.4832 36.176C42.1472 35.488 41.9792 34.64 41.9792 33.632V28.52H40.7312C40.3472 28.52 40.0512 28.424 39.8432 28.232C39.6352 28.024 39.5312 27.744 39.5312 27.392C39.5312 27.024 39.6352 26.744 39.8432 26.552C40.0512 26.36 40.3472 26.264 40.7312 26.264H41.9792V24.08C41.9792 23.584 42.1072 23.208 42.3632 22.952C42.6352 22.696 43.0112 22.568 43.4912 22.568C43.9712 22.568 44.3392 22.696 44.5952 22.952C44.8512 23.208 44.9792 23.584 44.9792 24.08V26.264H47.5232C47.9072 26.264 48.2032 26.36 48.4112 26.552C48.6192 26.744 48.7232 27.024 48.7232 27.392C48.7232 27.744 48.6192 28.024 48.4112 28.232C48.2032 28.424 47.9072 28.52 47.5232 28.52H44.9792V33.464C44.9792 34.232 45.1472 34.808 45.4832 35.192C45.8192 35.576 46.3632 35.768 47.1152 35.768C47.3872 35.768 47.6272 35.744 47.8352 35.696C48.0432 35.648 48.2272 35.616 48.3872 35.6C48.5792 35.584 48.7392 35.648 48.8672 35.792C48.9952 35.92 49.0592 36.192 49.0592 36.608C49.0592 36.928 49.0032 37.216 48.8912 37.472C48.7952 37.712 48.6112 37.88 48.3392 37.976C48.1312 38.04 47.8592 38.096 47.5232 38.144C47.1872 38.208 46.8912 38.24 46.6352 38.24ZM54.3342 38.24C53.4862 38.24 52.7262 38.08 52.0542 37.76C51.3982 37.424 50.8782 36.976 50.4942 36.416C50.1262 35.856 49.9422 35.224 49.9422 34.52C49.9422 33.656 50.1662 32.976 50.6142 32.48C51.0622 31.968 51.7902 31.6 52.7982 31.376C53.8062 31.152 55.1582 31.04 56.8542 31.04H58.0542V32.768H56.8782C55.8862 32.768 55.0942 32.816 54.5022 32.912C53.9102 33.008 53.4862 33.176 53.2302 33.416C52.9902 33.64 52.8702 33.96 52.8702 34.376C52.8702 34.904 53.0542 35.336 53.4222 35.672C53.7902 36.008 54.3022 36.176 54.9582 36.176C55.4862 36.176 55.9502 36.056 56.3502 35.816C56.7662 35.56 57.0942 35.216 57.3342 34.784C57.5742 34.352 57.6942 33.856 57.6942 33.296V30.536C57.6942 29.736 57.5182 29.16 57.1662 28.808C56.8142 28.456 56.2222 28.28 55.3902 28.28C54.9262 28.28 54.4222 28.336 53.8782 28.448C53.3502 28.56 52.7902 28.752 52.1982 29.024C51.8942 29.168 51.6222 29.208 51.3822 29.144C51.1582 29.08 50.9822 28.952 50.8542 28.76C50.7262 28.552 50.6622 28.328 50.6622 28.088C50.6622 27.848 50.7262 27.616 50.8542 27.392C50.9822 27.152 51.1982 26.976 51.5022 26.864C52.2382 26.56 52.9422 26.344 53.6142 26.216C54.3022 26.088 54.9262 26.024 55.4862 26.024C56.6382 26.024 57.5822 26.2 58.3182 26.552C59.0702 26.904 59.6302 27.44 59.9982 28.16C60.3662 28.864 60.5502 29.776 60.5502 30.896V36.656C60.5502 37.152 60.4302 37.536 60.1902 37.808C59.9502 38.064 59.6062 38.192 59.1582 38.192C58.7102 38.192 58.3582 38.064 58.1022 37.808C57.8622 37.536 57.7422 37.152 57.7422 36.656V35.504H57.9342C57.8222 36.064 57.5982 36.552 57.2622 36.968C56.9422 37.368 56.5342 37.68 56.0382 37.904C55.5422 38.128 54.9742 38.24 54.3342 38.24ZM65.1312 38.192C64.6352 38.192 64.2512 38.064 63.9792 37.808C63.7232 37.536 63.5952 37.152 63.5952 36.656V27.584C63.5952 27.088 63.7232 26.712 63.9792 26.456C64.2352 26.2 64.5952 26.072 65.0592 26.072C65.5232 26.072 65.8832 26.2 66.1392 26.456C66.3952 26.712 66.5232 27.088 66.5232 27.584V29.096H66.2832C66.5072 28.136 66.9472 27.408 67.6032 26.912C68.2592 26.416 69.1312 26.12 70.2192 26.024C70.5552 25.992 70.8192 26.08 71.0112 26.288C71.2192 26.48 71.3392 26.784 71.3712 27.2C71.4032 27.6 71.3072 27.928 71.0832 28.184C70.8752 28.424 70.5552 28.568 70.1232 28.616L69.5952 28.664C68.6192 28.76 67.8832 29.064 67.3872 29.576C66.8912 30.072 66.6432 30.776 66.6432 31.688V36.656C66.6432 37.152 66.5152 37.536 66.2592 37.808C66.0032 38.064 65.6272 38.192 65.1312 38.192ZM79.0493 38.24C78.0093 38.24 77.1373 38.064 76.4333 37.712C75.7453 37.36 75.2333 36.848 74.8973 36.176C74.5613 35.488 74.3933 34.64 74.3933 33.632V28.52H73.1453C72.7613 28.52 72.4653 28.424 72.2573 28.232C72.0493 28.024 71.9453 27.744 71.9453 27.392C71.9453 27.024 72.0493 26.744 72.2573 26.552C72.4653 26.36 72.7613 26.264 73.1453 26.264H74.3933V24.08C74.3933 23.584 74.5213 23.208 74.7773 22.952C75.0493 22.696 75.4253 22.568 75.9053 22.568C76.3853 22.568 76.7533 22.696 77.0093 22.952C77.2653 23.208 77.3933 23.584 77.3933 24.08V26.264H79.9373C80.3213 26.264 80.6173 26.36 80.8253 26.552C81.0333 26.744 81.1373 27.024 81.1373 27.392C81.1373 27.744 81.0333 28.024 80.8253 28.232C80.6173 28.424 80.3213 28.52 79.9373 28.52H77.3933V33.464C77.3933 34.232 77.5613 34.808 77.8973 35.192C78.2333 35.576 78.7773 35.768 79.5293 35.768C79.8013 35.768 80.0413 35.744 80.2493 35.696C80.4573 35.648 80.6413 35.616 80.8013 35.6C80.9933 35.584 81.1533 35.648 81.2813 35.792C81.4093 35.92 81.4733 36.192 81.4733 36.608C81.4733 36.928 81.4173 37.216 81.3053 37.472C81.2093 37.712 81.0253 37.88 80.7533 37.976C80.5453 38.04 80.2733 38.096 79.9373 38.144C79.6013 38.208 79.3053 38.24 79.0493 38.24Z" fill="white"/>
</g>
<defs>
<clipPath id="clip0_2599_12047">
<rect width="57" height="28" fill="white" transform="translate(24.5 16)"/>
</clipPath>
</defs>
</svg>
