<svg width="438" height="33" viewBox="0 0 438 33" fill="none" xmlns="http://www.w3.org/2000/svg">
<path d="M1.83648 23.14C1.62315 23.14 1.44982 23.0933 1.31648 23C1.19648 22.8933 1.12315 22.76 1.09648 22.6C1.08315 22.4267 1.12315 22.2333 1.21648 22.02L6.71648 9.5C6.83648 9.23333 6.97648 9.04667 7.13648 8.94C7.30982 8.82 7.49648 8.76 7.69648 8.76C7.89648 8.76 8.07648 8.82 8.23648 8.94C8.40982 9.04667 8.54982 9.23333 8.65648 9.5L14.1765 22.02C14.2832 22.2333 14.3232 22.4267 14.2965 22.6C14.2832 22.7733 14.2165 22.9067 14.0965 23C13.9765 23.0933 13.8098 23.14 13.5965 23.14C13.3565 23.14 13.1632 23.08 13.0165 22.96C12.8698 22.8267 12.7498 22.64 12.6565 22.4L11.1765 18.98L11.9765 19.4H3.37648L4.19648 18.98L2.73648 22.4C2.61648 22.6533 2.48982 22.84 2.35648 22.96C2.22315 23.08 2.04982 23.14 1.83648 23.14ZM7.67648 10.82L4.45648 18.4L3.97648 18.02H11.3765L10.9365 18.4L7.71648 10.82H7.67648ZM17.3068 23.14C17.0401 23.14 16.8335 23.0667 16.6868 22.92C16.5535 22.7733 16.4868 22.5667 16.4868 22.3V13.96C16.4868 13.6933 16.5535 13.4933 16.6868 13.36C16.8201 13.2133 17.0135 13.14 17.2668 13.14C17.5201 13.14 17.7135 13.2133 17.8468 13.36C17.9935 13.4933 18.0668 13.6933 18.0668 13.96V15.58H17.8668C18.0801 14.7933 18.4868 14.1867 19.0868 13.76C19.6868 13.3333 20.4268 13.1067 21.3068 13.08C21.5068 13.0667 21.6668 13.1133 21.7868 13.22C21.9068 13.3133 21.9735 13.48 21.9868 13.72C22.0001 13.9467 21.9468 14.1267 21.8268 14.26C21.7068 14.3933 21.5201 14.4733 21.2668 14.5L20.9468 14.54C20.0401 14.62 19.3401 14.9133 18.8468 15.42C18.3668 15.9133 18.1268 16.5933 18.1268 17.46V22.3C18.1268 22.5667 18.0535 22.7733 17.9068 22.92C17.7735 23.0667 17.5735 23.14 17.3068 23.14ZM27.9176 23.18C26.8909 23.18 26.0042 22.98 25.2576 22.58C24.5242 22.1667 23.9509 21.5867 23.5376 20.84C23.1376 20.0933 22.9376 19.2 22.9376 18.16C22.9376 17.1467 23.1376 16.2667 23.5376 15.52C23.9376 14.76 24.4842 14.1667 25.1776 13.74C25.8842 13.3133 26.6976 13.1 27.6176 13.1C28.2709 13.1 28.8576 13.2133 29.3776 13.44C29.8976 13.6533 30.3376 13.9667 30.6976 14.38C31.0709 14.7933 31.3509 15.2933 31.5376 15.88C31.7376 16.4667 31.8376 17.1267 31.8376 17.86C31.8376 18.0733 31.7776 18.2333 31.6576 18.34C31.5376 18.4333 31.3642 18.48 31.1376 18.48H24.1776V17.42H30.7576L30.4376 17.68C30.4376 16.96 30.3309 16.3533 30.1176 15.86C29.9042 15.3533 29.5909 14.9667 29.1776 14.7C28.7776 14.4333 28.2709 14.3 27.6576 14.3C26.9776 14.3 26.3976 14.46 25.9176 14.78C25.4509 15.0867 25.0976 15.52 24.8576 16.08C24.6176 16.6267 24.4976 17.2667 24.4976 18V18.12C24.4976 19.3467 24.7909 20.28 25.3776 20.92C25.9776 21.56 26.8242 21.88 27.9176 21.88C28.3709 21.88 28.8176 21.82 29.2576 21.7C29.7109 21.58 30.1509 21.38 30.5776 21.1C30.7642 20.98 30.9309 20.9267 31.0776 20.94C31.2376 20.94 31.3642 20.9867 31.4576 21.08C31.5509 21.16 31.6109 21.2667 31.6376 21.4C31.6776 21.52 31.6642 21.6533 31.5976 21.8C31.5442 21.9467 31.4309 22.0733 31.2576 22.18C30.8176 22.5 30.2976 22.7467 29.6976 22.92C29.0976 23.0933 28.5042 23.18 27.9176 23.18ZM37.2421 23.18C36.5754 23.18 35.9754 23.0533 35.4421 22.8C34.9221 22.5333 34.5088 22.1733 34.2021 21.72C33.8954 21.2667 33.7421 20.76 33.7421 20.2C33.7421 19.48 33.9221 18.9133 34.2821 18.5C34.6554 18.0867 35.2621 17.7933 36.1021 17.62C36.9554 17.4467 38.1154 17.36 39.5821 17.36H40.4821V18.42H39.6021C38.5221 18.42 37.6688 18.4733 37.0421 18.58C36.4288 18.6733 35.9954 18.84 35.7421 19.08C35.5021 19.32 35.3821 19.66 35.3821 20.1C35.3821 20.6467 35.5688 21.0933 35.9421 21.44C36.3288 21.7867 36.8488 21.96 37.5021 21.96C38.0354 21.96 38.5021 21.8333 38.9021 21.58C39.3154 21.3267 39.6354 20.98 39.8621 20.54C40.1021 20.1 40.2221 19.5933 40.2221 19.02V16.74C40.2221 15.9133 40.0554 15.32 39.7221 14.96C39.3888 14.5867 38.8421 14.4 38.0821 14.4C37.6154 14.4 37.1488 14.46 36.6821 14.58C36.2154 14.7 35.7221 14.8933 35.2021 15.16C35.0154 15.2533 34.8554 15.2867 34.7221 15.26C34.5888 15.22 34.4821 15.1467 34.4021 15.04C34.3221 14.9333 34.2754 14.8133 34.2621 14.68C34.2488 14.5333 34.2754 14.3933 34.3421 14.26C34.4221 14.1267 34.5421 14.02 34.7021 13.94C35.2888 13.6467 35.8688 13.4333 36.4421 13.3C37.0154 13.1667 37.5621 13.1 38.0821 13.1C38.9221 13.1 39.6154 13.24 40.1621 13.52C40.7088 13.7867 41.1154 14.2 41.3821 14.76C41.6488 15.3067 41.7821 16.0133 41.7821 16.88V22.3C41.7821 22.5667 41.7154 22.7733 41.5821 22.92C41.4621 23.0667 41.2821 23.14 41.0421 23.14C40.7888 23.14 40.5954 23.0667 40.4621 22.92C40.3288 22.7733 40.2621 22.5667 40.2621 22.3V20.74H40.4421C40.3354 21.2467 40.1288 21.68 39.8221 22.04C39.5288 22.4 39.1621 22.68 38.7221 22.88C38.2821 23.08 37.7888 23.18 37.2421 23.18ZM53.9838 23.18C53.0372 23.18 52.2172 22.9733 51.5238 22.56C50.8305 22.1467 50.2905 21.5667 49.9038 20.82C49.5305 20.06 49.3438 19.1667 49.3438 18.14C49.3438 17.3667 49.4505 16.6733 49.6638 16.06C49.8772 15.4333 50.1905 14.9 50.6038 14.46C51.0172 14.02 51.5038 13.6867 52.0638 13.46C52.6372 13.22 53.2772 13.1 53.9838 13.1C54.9305 13.1 55.7505 13.3067 56.4438 13.72C57.1372 14.1333 57.6705 14.72 58.0438 15.48C58.4305 16.2267 58.6238 17.1133 58.6238 18.14C58.6238 18.9133 58.5172 19.6067 58.3038 20.22C58.0905 20.8333 57.7772 21.3667 57.3638 21.82C56.9505 22.26 56.4572 22.6 55.8838 22.84C55.3238 23.0667 54.6905 23.18 53.9838 23.18ZM53.9838 21.88C54.5838 21.88 55.1105 21.7333 55.5638 21.44C56.0172 21.1467 56.3638 20.72 56.6038 20.16C56.8572 19.6 56.9838 18.9267 56.9838 18.14C56.9838 16.9267 56.7105 16 56.1638 15.36C55.6305 14.72 54.9038 14.4 53.9838 14.4C53.3705 14.4 52.8372 14.5467 52.3838 14.84C51.9438 15.12 51.5972 15.54 51.3438 16.1C51.1038 16.6467 50.9838 17.3267 50.9838 18.14C50.9838 19.34 51.2572 20.2667 51.8038 20.92C52.3505 21.56 53.0772 21.88 53.9838 21.88ZM62.2795 23.14C62.0261 23.14 61.8261 23.0667 61.6795 22.92C61.5461 22.7733 61.4795 22.5667 61.4795 22.3V14.54H60.1995C59.9861 14.54 59.8128 14.4867 59.6795 14.38C59.5595 14.26 59.4995 14.1 59.4995 13.9C59.4995 13.7 59.5595 13.5467 59.6795 13.44C59.8128 13.3333 59.9861 13.28 60.1995 13.28H61.9195L61.4795 13.7V12.94C61.4795 11.6733 61.7861 10.7067 62.3995 10.04C63.0261 9.37333 63.9395 8.98667 65.1395 8.88L65.7195 8.82C65.9061 8.80667 66.0528 8.84 66.1595 8.92C66.2795 9 66.3528 9.1 66.3795 9.22C66.4195 9.34 66.4261 9.46667 66.3995 9.6C66.3728 9.72 66.3128 9.82667 66.2195 9.92C66.1261 10.0133 66.0128 10.0667 65.8795 10.08L65.4195 10.12C64.6061 10.1867 64.0128 10.4333 63.6395 10.86C63.2795 11.2867 63.0995 11.9133 63.0995 12.74V13.58L62.8595 13.28H65.2595C65.4861 13.28 65.6595 13.3333 65.7795 13.44C65.8995 13.5467 65.9595 13.7 65.9595 13.9C65.9595 14.1 65.8995 14.26 65.7795 14.38C65.6595 14.4867 65.4861 14.54 65.2595 14.54H63.0995V22.3C63.0995 22.86 62.8261 23.14 62.2795 23.14ZM75.4559 26.38C74.7092 25.0067 74.1625 23.6 73.8159 22.16C73.4692 20.7067 73.2959 19.2333 73.2959 17.74C73.2959 16.74 73.3692 15.7533 73.5159 14.78C73.6759 13.8067 73.9159 12.8467 74.2359 11.9C74.5559 10.9533 74.9625 10.02 75.4559 9.1C75.5492 8.92667 75.6759 8.82 75.8359 8.78C76.0092 8.74 76.1692 8.75333 76.3159 8.82C76.4759 8.87333 76.5892 8.98667 76.6559 9.16C76.7225 9.32 76.7092 9.52667 76.6159 9.78C76.2692 10.66 75.9759 11.54 75.7359 12.42C75.4959 13.3 75.3159 14.18 75.1959 15.06C75.0759 15.94 75.0159 16.8333 75.0159 17.74C75.0159 18.6467 75.0759 19.54 75.1959 20.42C75.3292 21.3 75.5159 22.1733 75.7559 23.04C75.9959 23.92 76.2825 24.8067 76.6159 25.7C76.7225 25.9533 76.7359 26.16 76.6559 26.32C76.5892 26.4933 76.4759 26.6067 76.3159 26.66C76.1692 26.7267 76.0092 26.74 75.8359 26.7C75.6759 26.66 75.5492 26.5533 75.4559 26.38Z" fill="#444444"/>
<path d="M433.344 25.92C433.198 26.1733 433.018 26.36 432.804 26.48C432.591 26.6 432.378 26.66 432.164 26.66C431.938 26.66 431.744 26.5867 431.584 26.44C431.438 26.3067 431.364 26.12 431.364 25.88C431.364 25.6933 431.398 25.5267 431.464 25.38C431.971 24.1267 432.344 22.88 432.584 21.64C432.824 20.3867 432.944 19.0867 432.944 17.74C432.944 15.0467 432.451 12.4867 431.464 10.06C431.398 9.91333 431.364 9.74667 431.364 9.56C431.364 9.32 431.438 9.13333 431.584 9C431.744 8.85333 431.938 8.78 432.164 8.78C432.378 8.78 432.584 8.84667 432.784 8.98C432.998 9.1 433.184 9.28667 433.344 9.54C434.784 12.0333 435.504 14.7667 435.504 17.74C435.504 20.6733 434.784 23.4 433.344 25.92Z" fill="#444444"/>
<circle cx="103.5" cy="16.5" r="15.5" fill="#F6F6F6" stroke="#444444"/>
<path d="M101.183 22.5C100.991 22.5 100.842 22.452 100.735 22.356C100.628 22.2493 100.575 22.1053 100.575 21.924C100.575 21.7427 100.628 21.6093 100.735 21.524C100.842 21.428 100.991 21.38 101.183 21.38H103.263V12.308H103.951L101.631 13.844C101.492 13.9187 101.359 13.9507 101.231 13.94C101.114 13.9293 101.012 13.8867 100.927 13.812C100.852 13.7267 100.799 13.6307 100.767 13.524C100.735 13.4067 100.74 13.2893 100.783 13.172C100.826 13.044 100.916 12.9373 101.055 12.852L103.263 11.396C103.402 11.3107 103.535 11.2413 103.663 11.188C103.791 11.1347 103.919 11.108 104.047 11.108C104.196 11.108 104.319 11.156 104.415 11.252C104.522 11.3373 104.575 11.476 104.575 11.668V21.38H106.495C106.687 21.38 106.836 21.428 106.943 21.524C107.05 21.6093 107.103 21.7427 107.103 21.924C107.103 22.116 107.05 22.26 106.943 22.356C106.836 22.452 106.687 22.5 106.495 22.5H101.183Z" fill="#444444"/>
<path d="M138.004 16.9C138.257 16.9 138.464 16.9867 138.624 17.16C138.797 17.32 138.884 17.5267 138.884 17.78C138.884 18.0333 138.797 18.2467 138.624 18.42C138.464 18.58 138.257 18.66 138.004 18.66H134.884V21.76C134.884 22.0133 134.797 22.2267 134.624 22.4C134.464 22.5733 134.257 22.66 134.004 22.66C133.751 22.66 133.537 22.5733 133.364 22.4C133.204 22.2267 133.124 22.0133 133.124 21.76V18.66H130.004C129.751 18.66 129.537 18.58 129.364 18.42C129.204 18.2467 129.124 18.0333 129.124 17.78C129.124 17.5267 129.204 17.32 129.364 17.16C129.537 16.9867 129.751 16.9 130.004 16.9H133.124V13.78C133.124 13.5267 133.204 13.32 133.364 13.16C133.537 12.9867 133.751 12.9 134.004 12.9C134.257 12.9 134.464 12.9867 134.624 13.16C134.797 13.32 134.884 13.5267 134.884 13.78V16.9H138.004Z" fill="#444444"/>
<circle cx="164.5" cy="16.5" r="15.5" fill="#F6F6F6" stroke="#444444"/>
<path d="M161.767 22.5C161.532 22.5 161.356 22.4467 161.239 22.34C161.132 22.2227 161.079 22.068 161.079 21.876C161.079 21.7587 161.106 21.6467 161.159 21.54C161.223 21.4227 161.308 21.3053 161.415 21.188L164.999 17.348C165.543 16.7613 165.932 16.2227 166.167 15.732C166.412 15.2307 166.535 14.724 166.535 14.212C166.535 13.572 166.338 13.0867 165.943 12.756C165.559 12.4147 164.994 12.244 164.247 12.244C163.767 12.244 163.314 12.3187 162.887 12.468C162.46 12.6173 162.05 12.8467 161.655 13.156C161.516 13.2627 161.388 13.3107 161.271 13.3C161.164 13.2893 161.068 13.2467 160.983 13.172C160.898 13.0973 160.839 13.0013 160.807 12.884C160.775 12.7667 160.775 12.6493 160.807 12.532C160.85 12.4147 160.935 12.308 161.063 12.212C161.479 11.8707 161.98 11.5987 162.567 11.396C163.154 11.1827 163.751 11.076 164.359 11.076C165.116 11.076 165.756 11.1933 166.279 11.428C166.802 11.6627 167.196 12.0093 167.463 12.468C167.73 12.916 167.863 13.4653 167.863 14.116C167.863 14.564 167.788 15.0067 167.639 15.444C167.5 15.8707 167.282 16.308 166.983 16.756C166.695 17.204 166.316 17.668 165.847 18.148L162.439 21.748V21.38H167.831C168.034 21.38 168.183 21.428 168.279 21.524C168.386 21.6093 168.439 21.7427 168.439 21.924C168.439 22.116 168.386 22.26 168.279 22.356C168.183 22.452 168.034 22.5 167.831 22.5H161.767Z" fill="#444444"/>
<path d="M199.004 16.9C199.257 16.9 199.464 16.9867 199.624 17.16C199.797 17.32 199.884 17.5267 199.884 17.78C199.884 18.0333 199.797 18.2467 199.624 18.42C199.464 18.58 199.257 18.66 199.004 18.66H195.884V21.76C195.884 22.0133 195.797 22.2267 195.624 22.4C195.464 22.5733 195.257 22.66 195.004 22.66C194.751 22.66 194.537 22.5733 194.364 22.4C194.204 22.2267 194.124 22.0133 194.124 21.76V18.66H191.004C190.751 18.66 190.537 18.58 190.364 18.42C190.204 18.2467 190.124 18.0333 190.124 17.78C190.124 17.5267 190.204 17.32 190.364 17.16C190.537 16.9867 190.751 16.9 191.004 16.9H194.124V13.78C194.124 13.5267 194.204 13.32 194.364 13.16C194.537 12.9867 194.751 12.9 195.004 12.9C195.257 12.9 195.464 12.9867 195.624 13.16C195.797 13.32 195.884 13.5267 195.884 13.78V16.9H199.004Z" fill="#444444"/>
<circle cx="225.5" cy="16.5" r="15.5" fill="#F6F6F6" stroke="#444444"/>
<path d="M225.375 22.644C224.756 22.644 224.132 22.5533 223.503 22.372C222.884 22.1907 222.346 21.924 221.887 21.572C221.748 21.476 221.658 21.3693 221.615 21.252C221.572 21.124 221.562 21.0067 221.583 20.9C221.615 20.7827 221.674 20.6867 221.759 20.612C221.844 20.5267 221.946 20.4787 222.063 20.468C222.191 20.4573 222.33 20.5 222.479 20.596C222.948 20.9053 223.418 21.1293 223.887 21.268C224.356 21.4067 224.842 21.476 225.343 21.476C225.887 21.476 226.346 21.396 226.719 21.236C227.092 21.076 227.375 20.8413 227.567 20.532C227.759 20.212 227.855 19.8227 227.855 19.364C227.855 18.7027 227.636 18.2013 227.199 17.86C226.762 17.5187 226.127 17.348 225.295 17.348H224.159C223.956 17.348 223.802 17.3 223.695 17.204C223.588 17.0973 223.535 16.9533 223.535 16.772C223.535 16.6013 223.588 16.468 223.695 16.372C223.802 16.2653 223.956 16.212 224.159 16.212H225.183C225.674 16.212 226.09 16.1267 226.431 15.956C226.783 15.7853 227.055 15.5453 227.247 15.236C227.439 14.916 227.535 14.532 227.535 14.084C227.535 13.4867 227.343 13.0333 226.959 12.724C226.575 12.404 226.02 12.244 225.295 12.244C224.815 12.244 224.362 12.3133 223.935 12.452C223.508 12.5907 223.087 12.8253 222.671 13.156C222.543 13.252 222.415 13.3 222.287 13.3C222.17 13.2893 222.068 13.252 221.983 13.188C221.908 13.1133 221.85 13.0173 221.807 12.9C221.775 12.7827 221.78 12.6653 221.823 12.548C221.866 12.42 221.956 12.3027 222.095 12.196C222.522 11.8333 223.023 11.556 223.599 11.364C224.175 11.172 224.767 11.076 225.375 11.076C226.1 11.076 226.719 11.1933 227.231 11.428C227.754 11.652 228.154 11.9827 228.431 12.42C228.708 12.8467 228.847 13.364 228.847 13.972C228.847 14.4307 228.756 14.852 228.575 15.236C228.404 15.6093 228.159 15.9293 227.839 16.196C227.53 16.4627 227.151 16.6547 226.703 16.772V16.596C227.482 16.724 228.084 17.044 228.511 17.556C228.948 18.0573 229.167 18.692 229.167 19.46C229.167 20.1107 229.012 20.676 228.703 21.156C228.404 21.6253 227.972 21.9933 227.407 22.26C226.842 22.516 226.164 22.644 225.375 22.644Z" fill="#444444"/>
<path d="M260.004 16.9C260.257 16.9 260.464 16.9867 260.624 17.16C260.797 17.32 260.884 17.5267 260.884 17.78C260.884 18.0333 260.797 18.2467 260.624 18.42C260.464 18.58 260.257 18.66 260.004 18.66H256.884V21.76C256.884 22.0133 256.797 22.2267 256.624 22.4C256.464 22.5733 256.257 22.66 256.004 22.66C255.751 22.66 255.537 22.5733 255.364 22.4C255.204 22.2267 255.124 22.0133 255.124 21.76V18.66H252.004C251.751 18.66 251.537 18.58 251.364 18.42C251.204 18.2467 251.124 18.0333 251.124 17.78C251.124 17.5267 251.204 17.32 251.364 17.16C251.537 16.9867 251.751 16.9 252.004 16.9H255.124V13.78C255.124 13.5267 255.204 13.32 255.364 13.16C255.537 12.9867 255.751 12.9 256.004 12.9C256.257 12.9 256.464 12.9867 256.624 13.16C256.797 13.32 256.884 13.5267 256.884 13.78V16.9H260.004Z" fill="#444444"/>
<circle cx="286.5" cy="16.5" r="15.5" fill="#F6F6F6" stroke="#444444"/>
<path d="M288.391 22.612C288.188 22.612 288.028 22.5533 287.911 22.436C287.794 22.3187 287.735 22.1533 287.735 21.94V20.084H283.143C282.93 20.084 282.759 20.036 282.631 19.94C282.514 19.8333 282.455 19.684 282.455 19.492C282.455 19.3747 282.482 19.2573 282.535 19.14C282.588 19.012 282.684 18.852 282.823 18.66L287.703 11.556C287.799 11.4067 287.906 11.2947 288.023 11.22C288.14 11.1453 288.279 11.108 288.439 11.108C288.61 11.108 288.754 11.1613 288.871 11.268C288.999 11.3747 289.063 11.5453 289.063 11.78V18.964H290.231C290.434 18.964 290.588 19.012 290.695 19.108C290.802 19.204 290.855 19.3427 290.855 19.524C290.855 19.7053 290.802 19.844 290.695 19.94C290.588 20.036 290.434 20.084 290.231 20.084H289.063V21.94C289.063 22.1533 289.004 22.3187 288.887 22.436C288.77 22.5533 288.604 22.612 288.391 22.612ZM287.735 18.964V12.756H288.119L283.639 19.316V18.964H287.735Z" fill="#444444"/>
<path d="M321.004 16.9C321.257 16.9 321.464 16.9867 321.624 17.16C321.797 17.32 321.884 17.5267 321.884 17.78C321.884 18.0333 321.797 18.2467 321.624 18.42C321.464 18.58 321.257 18.66 321.004 18.66H317.884V21.76C317.884 22.0133 317.797 22.2267 317.624 22.4C317.464 22.5733 317.257 22.66 317.004 22.66C316.751 22.66 316.537 22.5733 316.364 22.4C316.204 22.2267 316.124 22.0133 316.124 21.76V18.66H313.004C312.751 18.66 312.537 18.58 312.364 18.42C312.204 18.2467 312.124 18.0333 312.124 17.78C312.124 17.5267 312.204 17.32 312.364 17.16C312.537 16.9867 312.751 16.9 313.004 16.9H316.124V13.78C316.124 13.5267 316.204 13.32 316.364 13.16C316.537 12.9867 316.751 12.9 317.004 12.9C317.257 12.9 317.464 12.9867 317.624 13.16C317.797 13.32 317.884 13.5267 317.884 13.78V16.9H321.004Z" fill="#444444"/>
<circle cx="347.5" cy="16.5" r="15.5" fill="#F6F6F6" stroke="#444444"/>
<path d="M347.743 22.644C347.135 22.644 346.527 22.5533 345.919 22.372C345.322 22.1907 344.778 21.908 344.287 21.524C344.159 21.4387 344.074 21.3373 344.031 21.22C343.988 21.1027 343.983 20.9853 344.015 20.868C344.047 20.7507 344.106 20.6547 344.191 20.58C344.276 20.4947 344.378 20.4467 344.495 20.436C344.623 20.4253 344.756 20.468 344.895 20.564C345.332 20.8733 345.786 21.1027 346.255 21.252C346.724 21.4013 347.215 21.476 347.727 21.476C348.25 21.476 348.698 21.38 349.071 21.188C349.455 20.9853 349.743 20.708 349.935 20.356C350.138 19.9933 350.239 19.572 350.239 19.092C350.239 18.356 350.026 17.7533 349.599 17.284C349.172 16.8147 348.586 16.58 347.839 16.58C347.38 16.58 346.959 16.6653 346.575 16.836C346.191 17.0067 345.839 17.2787 345.519 17.652C345.444 17.7373 345.354 17.812 345.247 17.876C345.151 17.9293 345.039 17.956 344.911 17.956C344.73 17.956 344.586 17.908 344.479 17.812C344.383 17.7053 344.335 17.5667 344.335 17.396V11.828C344.335 11.6253 344.388 11.476 344.495 11.38C344.602 11.2733 344.751 11.22 344.943 11.22H350.383C350.586 11.22 350.735 11.268 350.831 11.364C350.938 11.46 350.991 11.5987 350.991 11.78C350.991 11.9613 350.938 12.1 350.831 12.196C350.735 12.292 350.586 12.34 350.383 12.34H345.631V16.836H345.279C345.556 16.388 345.94 16.0467 346.431 15.812C346.922 15.5667 347.471 15.444 348.079 15.444C348.794 15.444 349.407 15.5933 349.919 15.892C350.442 16.1907 350.842 16.612 351.119 17.156C351.407 17.6893 351.551 18.3133 351.551 19.028C351.551 19.732 351.396 20.356 351.087 20.9C350.778 21.444 350.34 21.8707 349.775 22.18C349.21 22.4893 348.532 22.644 347.743 22.644Z" fill="#444444"/>
<path d="M382.004 16.9C382.257 16.9 382.464 16.9867 382.624 17.16C382.797 17.32 382.884 17.5267 382.884 17.78C382.884 18.0333 382.797 18.2467 382.624 18.42C382.464 18.58 382.257 18.66 382.004 18.66H378.884V21.76C378.884 22.0133 378.797 22.2267 378.624 22.4C378.464 22.5733 378.257 22.66 378.004 22.66C377.751 22.66 377.537 22.5733 377.364 22.4C377.204 22.2267 377.124 22.0133 377.124 21.76V18.66H374.004C373.751 18.66 373.537 18.58 373.364 18.42C373.204 18.2467 373.124 18.0333 373.124 17.78C373.124 17.5267 373.204 17.32 373.364 17.16C373.537 16.9867 373.751 16.9 374.004 16.9H377.124V13.78C377.124 13.5267 377.204 13.32 377.364 13.16C377.537 12.9867 377.751 12.9 378.004 12.9C378.257 12.9 378.464 12.9867 378.624 13.16C378.797 13.32 378.884 13.5267 378.884 13.78V16.9H382.004Z" fill="#444444"/>
<circle cx="408.5" cy="16.5" r="15.5" fill="#F6F6F6" stroke="#444444"/>
<path d="M408.887 22.644C408.002 22.644 407.244 22.4307 406.615 22.004C405.996 21.5667 405.527 20.9373 405.207 20.116C404.887 19.2947 404.727 18.3027 404.727 17.14C404.727 16.1587 404.828 15.2947 405.031 14.548C405.234 13.8013 405.532 13.172 405.927 12.66C406.322 12.1373 406.802 11.7427 407.367 11.476C407.932 11.2093 408.572 11.076 409.287 11.076C409.778 11.076 410.279 11.172 410.791 11.364C411.314 11.556 411.772 11.828 412.167 12.18C412.284 12.2653 412.354 12.372 412.375 12.5C412.407 12.6173 412.407 12.7347 412.375 12.852C412.343 12.9587 412.284 13.0493 412.199 13.124C412.124 13.1987 412.028 13.2413 411.911 13.252C411.794 13.252 411.671 13.204 411.543 13.108C411.18 12.7987 410.807 12.58 410.423 12.452C410.039 12.3133 409.65 12.244 409.255 12.244C408.562 12.244 407.97 12.4147 407.479 12.756C406.999 13.0973 406.631 13.6147 406.375 14.308C406.13 14.9907 406.007 15.8493 406.007 16.884V18.372H405.863C405.927 17.764 406.103 17.2413 406.391 16.804C406.69 16.356 407.068 16.0147 407.527 15.78C407.986 15.5453 408.503 15.428 409.079 15.428C409.74 15.428 410.327 15.5773 410.839 15.876C411.351 16.1747 411.751 16.596 412.039 17.14C412.327 17.6733 412.471 18.2867 412.471 18.98C412.471 19.684 412.322 20.3133 412.023 20.868C411.724 21.4227 411.303 21.86 410.759 22.18C410.215 22.4893 409.591 22.644 408.887 22.644ZM408.807 21.524C409.276 21.524 409.692 21.4227 410.055 21.22C410.418 21.0067 410.7 20.7133 410.903 20.34C411.106 19.956 411.207 19.5187 411.207 19.028C411.207 18.5373 411.106 18.1053 410.903 17.732C410.7 17.3587 410.418 17.0653 410.055 16.852C409.692 16.6387 409.276 16.532 408.807 16.532C408.338 16.532 407.922 16.6387 407.559 16.852C407.196 17.0653 406.914 17.3587 406.711 17.732C406.508 18.1053 406.407 18.5373 406.407 19.028C406.407 19.5187 406.508 19.956 406.711 20.34C406.914 20.7133 407.196 21.0067 407.559 21.22C407.922 21.4227 408.338 21.524 408.807 21.524Z" fill="#444444"/>
</svg>
