<svg width="658" height="38" viewBox="0 0 658 38" fill="none" xmlns="http://www.w3.org/2000/svg">
<rect width="177" height="38" rx="4" fill="#F4E5FF"/>
<path d="M11.4778 26.16C11.0645 26.16 10.7445 26.0467 10.5178 25.82C10.3045 25.58 10.1978 25.2533 10.1978 24.84V14.04H6.29781C5.95115 14.04 5.67781 13.9467 5.47781 13.76C5.29115 13.56 5.19781 13.2933 5.19781 12.96C5.19781 12.6133 5.29115 12.3533 5.47781 12.18C5.67781 11.9933 5.95115 11.9 6.29781 11.9H16.6578C17.0045 11.9 17.2711 11.9933 17.4578 12.18C17.6578 12.3533 17.7578 12.6133 17.7578 12.96C17.7578 13.2933 17.6578 13.56 17.4578 13.76C17.2711 13.9467 17.0045 14.04 16.6578 14.04H12.7578V24.84C12.7578 25.2533 12.6511 25.58 12.4378 25.82C12.2245 26.0467 11.9045 26.16 11.4778 26.16ZM21.8772 26.2C20.8639 26.2 19.9839 25.9933 19.2372 25.58C18.4905 25.1667 17.9105 24.58 17.4972 23.82C17.0839 23.0467 16.8772 22.14 16.8772 21.1C16.8772 20.3133 16.9905 19.6133 17.2172 19C17.4572 18.3733 17.7972 17.84 18.2372 17.4C18.6772 16.9467 19.2039 16.6067 19.8172 16.38C20.4305 16.14 21.1172 16.02 21.8772 16.02C22.8905 16.02 23.7705 16.2267 24.5172 16.64C25.2639 17.0533 25.8439 17.64 26.2572 18.4C26.6705 19.16 26.8772 20.06 26.8772 21.1C26.8772 21.8867 26.7572 22.5933 26.5172 23.22C26.2905 23.8467 25.9572 24.3867 25.5172 24.84C25.0772 25.28 24.5505 25.62 23.9372 25.86C23.3239 26.0867 22.6372 26.2 21.8772 26.2ZM21.8772 24.3C22.3705 24.3 22.8039 24.18 23.1772 23.94C23.5505 23.7 23.8372 23.3467 24.0372 22.88C24.2505 22.4 24.3572 21.8067 24.3572 21.1C24.3572 20.0333 24.1305 19.24 23.6772 18.72C23.2239 18.1867 22.6239 17.92 21.8772 17.92C21.3839 17.92 20.9505 18.04 20.5772 18.28C20.2039 18.5067 19.9105 18.86 19.6972 19.34C19.4972 19.8067 19.3972 20.3933 19.3972 21.1C19.3972 22.1533 19.6239 22.9533 20.0772 23.5C20.5305 24.0333 21.1305 24.3 21.8772 24.3ZM33.323 26.2C32.4563 26.2 31.7296 26.0533 31.143 25.76C30.5696 25.4667 30.143 25.04 29.863 24.48C29.583 23.9067 29.443 23.2 29.443 22.36V18.1H28.403C28.083 18.1 27.8363 18.02 27.663 17.86C27.4896 17.6867 27.403 17.4533 27.403 17.16C27.403 16.8533 27.4896 16.62 27.663 16.46C27.8363 16.3 28.083 16.22 28.403 16.22H29.443V14.4C29.443 13.9867 29.5496 13.6733 29.763 13.46C29.9896 13.2467 30.303 13.14 30.703 13.14C31.103 13.14 31.4096 13.2467 31.623 13.46C31.8363 13.6733 31.943 13.9867 31.943 14.4V16.22H34.063C34.383 16.22 34.6296 16.3 34.803 16.46C34.9763 16.62 35.063 16.8533 35.063 17.16C35.063 17.4533 34.9763 17.6867 34.803 17.86C34.6296 18.02 34.383 18.1 34.063 18.1H31.943V22.22C31.943 22.86 32.083 23.34 32.363 23.66C32.643 23.98 33.0963 24.14 33.723 24.14C33.9496 24.14 34.1496 24.12 34.323 24.08C34.4963 24.04 34.6496 24.0133 34.783 24C34.943 23.9867 35.0763 24.04 35.183 24.16C35.2896 24.2667 35.343 24.4933 35.343 24.84C35.343 25.1067 35.2963 25.3467 35.203 25.56C35.123 25.76 34.9696 25.9 34.743 25.98C34.5696 26.0333 34.343 26.08 34.063 26.12C33.783 26.1733 33.5363 26.2 33.323 26.2ZM39.7388 26.2C39.0321 26.2 38.3988 26.0667 37.8388 25.8C37.2921 25.52 36.8588 25.1467 36.5387 24.68C36.2321 24.2133 36.0788 23.6867 36.0788 23.1C36.0788 22.38 36.2654 21.8133 36.6388 21.4C37.0121 20.9733 37.6188 20.6667 38.4588 20.48C39.2988 20.2933 40.4254 20.2 41.8388 20.2H42.8388V21.64H41.8588C41.0321 21.64 40.3721 21.68 39.8788 21.76C39.3854 21.84 39.0321 21.98 38.8188 22.18C38.6188 22.3667 38.5188 22.6333 38.5188 22.98C38.5188 23.42 38.6721 23.78 38.9788 24.06C39.2854 24.34 39.7121 24.48 40.2588 24.48C40.6988 24.48 41.0854 24.38 41.4188 24.18C41.7654 23.9667 42.0388 23.68 42.2388 23.32C42.4388 22.96 42.5388 22.5467 42.5388 22.08V19.78C42.5388 19.1133 42.3921 18.6333 42.0988 18.34C41.8054 18.0467 41.3121 17.9 40.6188 17.9C40.2321 17.9 39.8121 17.9467 39.3588 18.04C38.9188 18.1333 38.4521 18.2933 37.9588 18.52C37.7054 18.64 37.4788 18.6733 37.2788 18.62C37.0921 18.5667 36.9454 18.46 36.8388 18.3C36.7321 18.1267 36.6788 17.94 36.6788 17.74C36.6788 17.54 36.7321 17.3467 36.8388 17.16C36.9454 16.96 37.1254 16.8133 37.3788 16.72C37.9921 16.4667 38.5788 16.2867 39.1388 16.18C39.7121 16.0733 40.2321 16.02 40.6988 16.02C41.6588 16.02 42.4454 16.1667 43.0588 16.46C43.6854 16.7533 44.1521 17.2 44.4588 17.8C44.7654 18.3867 44.9188 19.1467 44.9188 20.08V24.88C44.9188 25.2933 44.8188 25.6133 44.6188 25.84C44.4188 26.0533 44.1321 26.16 43.7588 26.16C43.3854 26.16 43.0921 26.0533 42.8788 25.84C42.6788 25.6133 42.5788 25.2933 42.5788 24.88V23.92H42.7388C42.6454 24.3867 42.4588 24.7933 42.1788 25.14C41.9121 25.4733 41.5721 25.7333 41.1588 25.92C40.7454 26.1067 40.2721 26.2 39.7388 26.2ZM50.7963 26.2C49.6896 26.2 48.8563 25.8867 48.2963 25.26C47.7363 24.62 47.4563 23.6867 47.4563 22.46V13C47.4563 12.5867 47.5629 12.2733 47.7763 12.06C47.9896 11.8467 48.2963 11.74 48.6963 11.74C49.0963 11.74 49.4029 11.8467 49.6163 12.06C49.8429 12.2733 49.9563 12.5867 49.9563 13V22.34C49.9563 22.9533 50.0829 23.4067 50.3363 23.7C50.6029 23.9933 50.9763 24.14 51.4563 24.14C51.5629 24.14 51.6629 24.14 51.7563 24.14C51.8496 24.1267 51.9429 24.1133 52.0362 24.1C52.2229 24.0733 52.3496 24.1267 52.4163 24.26C52.4829 24.38 52.5163 24.6333 52.5163 25.02C52.5163 25.3533 52.4496 25.6133 52.3163 25.8C52.1829 25.9867 51.9629 26.1 51.6563 26.14C51.5229 26.1533 51.3829 26.1667 51.2363 26.18C51.0896 26.1933 50.9429 26.2 50.7963 26.2ZM62.8527 26.2C62.2793 26.2 61.6727 26.14 61.0327 26.02C60.3927 25.9 59.8193 25.6933 59.3127 25.4C59.0993 25.2667 58.946 25.1133 58.8527 24.94C58.7727 24.7533 58.7393 24.5733 58.7527 24.4C58.7793 24.2133 58.846 24.0533 58.9527 23.92C59.0727 23.7867 59.2193 23.7 59.3927 23.66C59.5793 23.62 59.7793 23.6533 59.9927 23.76C60.526 24.0133 61.026 24.1933 61.4927 24.3C61.9593 24.3933 62.4193 24.44 62.8727 24.44C63.5127 24.44 63.986 24.3333 64.2927 24.12C64.6127 23.8933 64.7727 23.6 64.7727 23.24C64.7727 22.9333 64.666 22.7 64.4527 22.54C64.2527 22.3667 63.946 22.24 63.5327 22.16L61.5327 21.78C60.706 21.62 60.0727 21.32 59.6327 20.88C59.206 20.4267 58.9927 19.8467 58.9927 19.14C58.9927 18.5 59.166 17.9467 59.5127 17.48C59.8727 17.0133 60.366 16.6533 60.9927 16.4C61.6193 16.1467 62.3393 16.02 63.1527 16.02C63.7393 16.02 64.286 16.0867 64.7927 16.22C65.3127 16.34 65.8127 16.5333 66.2927 16.8C66.4927 16.9067 66.626 17.0467 66.6927 17.22C66.7727 17.3933 66.7927 17.5733 66.7527 17.76C66.7127 17.9333 66.6327 18.0933 66.5127 18.24C66.3927 18.3733 66.2393 18.46 66.0527 18.5C65.8793 18.5267 65.6793 18.4867 65.4527 18.38C65.0393 18.1667 64.6393 18.0133 64.2527 17.92C63.8793 17.8267 63.5193 17.78 63.1727 17.78C62.5193 17.78 62.0327 17.8933 61.7127 18.12C61.406 18.3467 61.2527 18.6467 61.2527 19.02C61.2527 19.3 61.346 19.5333 61.5327 19.72C61.7193 19.9067 62.006 20.0333 62.3927 20.1L64.3927 20.48C65.2593 20.64 65.9127 20.9333 66.3527 21.36C66.806 21.7867 67.0327 22.36 67.0327 23.08C67.0327 24.0533 66.6527 24.82 65.8927 25.38C65.1327 25.9267 64.1193 26.2 62.8527 26.2ZM72.5783 26.2C71.7649 26.2 71.0916 26.0533 70.5583 25.76C70.0249 25.4533 69.6249 25 69.3583 24.4C69.1049 23.8 68.9783 23.0533 68.9783 22.16V17.32C68.9783 16.8933 69.0849 16.58 69.2983 16.38C69.5116 16.1667 69.8183 16.06 70.2183 16.06C70.6183 16.06 70.9249 16.1667 71.1383 16.38C71.3649 16.58 71.4783 16.8933 71.4783 17.32V22.2C71.4783 22.8933 71.6183 23.4067 71.8983 23.74C72.1783 24.0733 72.6249 24.24 73.2383 24.24C73.9049 24.24 74.4516 24.0133 74.8783 23.56C75.3049 23.0933 75.5183 22.48 75.5183 21.72V17.32C75.5183 16.8933 75.6249 16.58 75.8383 16.38C76.0516 16.1667 76.3583 16.06 76.7583 16.06C77.1583 16.06 77.4649 16.1667 77.6783 16.38C77.9049 16.58 78.0183 16.8933 78.0183 17.32V24.88C78.0183 25.7333 77.6116 26.16 76.7983 26.16C76.4116 26.16 76.1116 26.0533 75.8983 25.84C75.6849 25.6133 75.5783 25.2933 75.5783 24.88V23.36L75.8583 23.96C75.5783 24.68 75.1516 25.2333 74.5783 25.62C74.0183 26.0067 73.3516 26.2 72.5783 26.2ZM81.9003 26.16C81.487 26.16 81.167 26.0533 80.9403 25.84C80.727 25.6133 80.6203 25.2933 80.6203 24.88V17.32C80.6203 16.9067 80.727 16.5933 80.9403 16.38C81.1536 16.1667 81.4536 16.06 81.8403 16.06C82.227 16.06 82.527 16.1667 82.7403 16.38C82.9536 16.5933 83.0603 16.9067 83.0603 17.32V18.58H82.8603C83.047 17.78 83.4136 17.1733 83.9603 16.76C84.507 16.3467 85.2336 16.1 86.1403 16.02C86.4203 15.9933 86.6403 16.0667 86.8003 16.24C86.9736 16.4 87.0736 16.6533 87.1003 17C87.127 17.3333 87.047 17.6067 86.8603 17.82C86.687 18.02 86.4203 18.14 86.0603 18.18L85.6203 18.22C84.807 18.3 84.1936 18.5533 83.7803 18.98C83.367 19.3933 83.1603 19.98 83.1603 20.74V24.88C83.1603 25.2933 83.0536 25.6133 82.8403 25.84C82.627 26.0533 82.3136 26.16 81.9003 26.16ZM90.9388 26.16C90.5388 26.16 90.2254 26.0533 89.9988 25.84C89.7854 25.6133 89.6788 25.2933 89.6788 24.88V18.1H88.7588C88.4388 18.1 88.1921 18.02 88.0188 17.86C87.8454 17.6867 87.7588 17.4533 87.7588 17.16C87.7588 16.8533 87.8454 16.62 88.0188 16.46C88.1921 16.3 88.4388 16.22 88.7588 16.22H90.3988L89.6788 16.88V16.2C89.6788 14.8267 90.0254 13.8 90.7188 13.12C91.4121 12.4267 92.4121 12.02 93.7188 11.9L94.3988 11.84C94.6654 11.8133 94.8788 11.86 95.0388 11.98C95.1988 12.0867 95.3054 12.2333 95.3588 12.42C95.4121 12.5933 95.4188 12.7733 95.3788 12.96C95.3388 13.1467 95.2521 13.3133 95.1188 13.46C94.9988 13.5933 94.8388 13.6667 94.6388 13.68L94.3588 13.7C93.5988 13.7533 93.0454 13.9467 92.6988 14.28C92.3521 14.6133 92.1788 15.12 92.1788 15.8V16.54L91.8588 16.22H93.8788C94.1988 16.22 94.4454 16.3 94.6188 16.46C94.7921 16.62 94.8788 16.8533 94.8788 17.16C94.8788 17.4533 94.7921 17.6867 94.6188 17.86C94.4454 18.02 94.1988 18.1 93.8788 18.1H92.1788V24.88C92.1788 25.7333 91.7654 26.16 90.9388 26.16ZM99.4263 26.2C98.7196 26.2 98.0863 26.0667 97.5263 25.8C96.9796 25.52 96.5463 25.1467 96.2262 24.68C95.9196 24.2133 95.7663 23.6867 95.7663 23.1C95.7663 22.38 95.9529 21.8133 96.3263 21.4C96.6996 20.9733 97.3063 20.6667 98.1463 20.48C98.9863 20.2933 100.113 20.2 101.526 20.2H102.526V21.64H101.546C100.72 21.64 100.06 21.68 99.5663 21.76C99.0729 21.84 98.7196 21.98 98.5063 22.18C98.3063 22.3667 98.2063 22.6333 98.2063 22.98C98.2063 23.42 98.3596 23.78 98.6663 24.06C98.9729 24.34 99.3996 24.48 99.9463 24.48C100.386 24.48 100.773 24.38 101.106 24.18C101.453 23.9667 101.726 23.68 101.926 23.32C102.126 22.96 102.226 22.5467 102.226 22.08V19.78C102.226 19.1133 102.08 18.6333 101.786 18.34C101.493 18.0467 101 17.9 100.306 17.9C99.9196 17.9 99.4996 17.9467 99.0463 18.04C98.6063 18.1333 98.1396 18.2933 97.6463 18.52C97.3929 18.64 97.1663 18.6733 96.9663 18.62C96.7796 18.5667 96.6329 18.46 96.5263 18.3C96.4196 18.1267 96.3663 17.94 96.3663 17.74C96.3663 17.54 96.4196 17.3467 96.5263 17.16C96.6329 16.96 96.8129 16.8133 97.0663 16.72C97.6796 16.4667 98.2663 16.2867 98.8263 16.18C99.3996 16.0733 99.9196 16.02 100.386 16.02C101.346 16.02 102.133 16.1667 102.746 16.46C103.373 16.7533 103.84 17.2 104.146 17.8C104.453 18.3867 104.606 19.1467 104.606 20.08V24.88C104.606 25.2933 104.506 25.6133 104.306 25.84C104.106 26.0533 103.82 26.16 103.446 26.16C103.073 26.16 102.78 26.0533 102.566 25.84C102.366 25.6133 102.266 25.2933 102.266 24.88V23.92H102.426C102.333 24.3867 102.146 24.7933 101.866 25.14C101.6 25.4733 101.26 25.7333 100.846 25.92C100.433 26.1067 99.9596 26.2 99.4263 26.2ZM111.664 26.2C110.637 26.2 109.744 25.9933 108.984 25.58C108.224 25.1533 107.637 24.5533 107.224 23.78C106.81 23.0067 106.604 22.1 106.604 21.06C106.604 20.2733 106.717 19.5733 106.944 18.96C107.184 18.3333 107.524 17.8067 107.964 17.38C108.404 16.94 108.937 16.6067 109.564 16.38C110.19 16.14 110.89 16.02 111.664 16.02C112.104 16.02 112.577 16.08 113.084 16.2C113.604 16.32 114.09 16.52 114.544 16.8C114.757 16.9333 114.897 17.0933 114.964 17.28C115.03 17.4667 115.044 17.66 115.004 17.86C114.964 18.0467 114.877 18.2133 114.744 18.36C114.624 18.4933 114.47 18.58 114.284 18.62C114.097 18.6467 113.89 18.6 113.664 18.48C113.37 18.3067 113.07 18.18 112.764 18.1C112.457 18.0067 112.164 17.96 111.884 17.96C111.444 17.96 111.057 18.0333 110.724 18.18C110.39 18.3133 110.104 18.5133 109.864 18.78C109.637 19.0333 109.464 19.3533 109.344 19.74C109.224 20.1267 109.164 20.5733 109.164 21.08C109.164 22.0667 109.397 22.8467 109.864 23.42C110.344 23.98 111.017 24.26 111.884 24.26C112.164 24.26 112.45 24.22 112.744 24.14C113.05 24.06 113.357 23.9333 113.664 23.76C113.89 23.64 114.09 23.6 114.264 23.64C114.45 23.68 114.604 23.7733 114.724 23.92C114.844 24.0533 114.917 24.22 114.944 24.42C114.97 24.6067 114.944 24.7933 114.864 24.98C114.797 25.1667 114.664 25.32 114.464 25.44C114.024 25.7067 113.557 25.9 113.064 26.02C112.57 26.14 112.104 26.2 111.664 26.2ZM121.202 26.2C120.095 26.2 119.142 25.9933 118.342 25.58C117.542 25.1667 116.922 24.58 116.482 23.82C116.055 23.06 115.842 22.16 115.842 21.12C115.842 20.1067 116.049 19.22 116.462 18.46C116.889 17.7 117.469 17.1067 118.202 16.68C118.949 16.24 119.795 16.02 120.742 16.02C121.435 16.02 122.055 16.1333 122.602 16.36C123.162 16.5867 123.635 16.9133 124.022 17.34C124.422 17.7667 124.722 18.2867 124.922 18.9C125.135 19.5 125.242 20.18 125.242 20.94C125.242 21.18 125.155 21.3667 124.982 21.5C124.822 21.62 124.589 21.68 124.282 21.68H117.862V20.24H123.482L123.162 20.54C123.162 19.9267 123.069 19.4133 122.882 19C122.709 18.5867 122.449 18.2733 122.102 18.06C121.769 17.8333 121.349 17.72 120.842 17.72C120.282 17.72 119.802 17.8533 119.402 18.12C119.015 18.3733 118.715 18.74 118.502 19.22C118.302 19.6867 118.202 20.2467 118.202 20.9V21.04C118.202 22.1333 118.455 22.9533 118.962 23.5C119.482 24.0333 120.242 24.3 121.242 24.3C121.589 24.3 121.975 24.26 122.402 24.18C122.842 24.0867 123.255 23.9333 123.642 23.72C123.922 23.56 124.169 23.4933 124.382 23.52C124.595 23.5333 124.762 23.6067 124.882 23.74C125.015 23.8733 125.095 24.04 125.122 24.24C125.149 24.4267 125.109 24.62 125.002 24.82C124.909 25.02 124.742 25.1933 124.502 25.34C124.035 25.6333 123.495 25.8533 122.882 26C122.282 26.1333 121.722 26.2 121.202 26.2ZM135.872 26.2C135.165 26.2 134.532 26.0667 133.972 25.8C133.425 25.52 132.992 25.1467 132.672 24.68C132.365 24.2133 132.212 23.6867 132.212 23.1C132.212 22.38 132.398 21.8133 132.772 21.4C133.145 20.9733 133.752 20.6667 134.592 20.48C135.432 20.2933 136.558 20.2 137.972 20.2H138.972V21.64H137.992C137.165 21.64 136.505 21.68 136.012 21.76C135.518 21.84 135.165 21.98 134.952 22.18C134.752 22.3667 134.652 22.6333 134.652 22.98C134.652 23.42 134.805 23.78 135.112 24.06C135.418 24.34 135.845 24.48 136.392 24.48C136.832 24.48 137.218 24.38 137.552 24.18C137.898 23.9667 138.172 23.68 138.372 23.32C138.572 22.96 138.672 22.5467 138.672 22.08V19.78C138.672 19.1133 138.525 18.6333 138.232 18.34C137.938 18.0467 137.445 17.9 136.752 17.9C136.365 17.9 135.945 17.9467 135.492 18.04C135.052 18.1333 134.585 18.2933 134.092 18.52C133.838 18.64 133.612 18.6733 133.412 18.62C133.225 18.5667 133.078 18.46 132.972 18.3C132.865 18.1267 132.812 17.94 132.812 17.74C132.812 17.54 132.865 17.3467 132.972 17.16C133.078 16.96 133.258 16.8133 133.512 16.72C134.125 16.4667 134.712 16.2867 135.272 16.18C135.845 16.0733 136.365 16.02 136.832 16.02C137.792 16.02 138.578 16.1667 139.192 16.46C139.818 16.7533 140.285 17.2 140.592 17.8C140.898 18.3867 141.052 19.1467 141.052 20.08V24.88C141.052 25.2933 140.952 25.6133 140.752 25.84C140.552 26.0533 140.265 26.16 139.892 26.16C139.518 26.16 139.225 26.0533 139.012 25.84C138.812 25.6133 138.712 25.2933 138.712 24.88V23.92H138.872C138.778 24.3867 138.592 24.7933 138.312 25.14C138.045 25.4733 137.705 25.7333 137.292 25.92C136.878 26.1067 136.405 26.2 135.872 26.2ZM144.869 26.16C144.456 26.16 144.136 26.0533 143.909 25.84C143.696 25.6133 143.589 25.2933 143.589 24.88V17.32C143.589 16.9067 143.696 16.5933 143.909 16.38C144.122 16.1667 144.422 16.06 144.809 16.06C145.196 16.06 145.496 16.1667 145.709 16.38C145.922 16.5933 146.029 16.9067 146.029 17.32V18.58H145.829C146.016 17.78 146.382 17.1733 146.929 16.76C147.476 16.3467 148.202 16.1 149.109 16.02C149.389 15.9933 149.609 16.0667 149.769 16.24C149.942 16.4 150.042 16.6533 150.069 17C150.096 17.3333 150.016 17.6067 149.829 17.82C149.656 18.02 149.389 18.14 149.029 18.18L148.589 18.22C147.776 18.3 147.162 18.5533 146.749 18.98C146.336 19.3933 146.129 19.98 146.129 20.74V24.88C146.129 25.2933 146.022 25.6133 145.809 25.84C145.596 26.0533 145.282 26.16 144.869 26.16ZM156.085 26.2C154.978 26.2 154.025 25.9933 153.225 25.58C152.425 25.1667 151.805 24.58 151.365 23.82C150.938 23.06 150.725 22.16 150.725 21.12C150.725 20.1067 150.932 19.22 151.345 18.46C151.772 17.7 152.352 17.1067 153.085 16.68C153.832 16.24 154.678 16.02 155.625 16.02C156.318 16.02 156.938 16.1333 157.485 16.36C158.045 16.5867 158.518 16.9133 158.905 17.34C159.305 17.7667 159.605 18.2867 159.805 18.9C160.018 19.5 160.125 20.18 160.125 20.94C160.125 21.18 160.038 21.3667 159.865 21.5C159.705 21.62 159.472 21.68 159.165 21.68H152.745V20.24H158.365L158.045 20.54C158.045 19.9267 157.952 19.4133 157.765 19C157.592 18.5867 157.332 18.2733 156.985 18.06C156.652 17.8333 156.232 17.72 155.725 17.72C155.165 17.72 154.685 17.8533 154.285 18.12C153.898 18.3733 153.598 18.74 153.385 19.22C153.185 19.6867 153.085 20.2467 153.085 20.9V21.04C153.085 22.1333 153.338 22.9533 153.845 23.5C154.365 24.0333 155.125 24.3 156.125 24.3C156.472 24.3 156.858 24.26 157.285 24.18C157.725 24.0867 158.138 23.9333 158.525 23.72C158.805 23.56 159.052 23.4933 159.265 23.52C159.478 23.5333 159.645 23.6067 159.765 23.74C159.898 23.8733 159.978 24.04 160.005 24.24C160.032 24.4267 159.992 24.62 159.885 24.82C159.792 25.02 159.625 25.1933 159.385 25.34C158.918 25.6333 158.378 25.8533 157.765 26C157.165 26.1333 156.605 26.2 156.085 26.2ZM165.325 26.2C164.618 26.2 163.985 26.0667 163.425 25.8C162.878 25.52 162.445 25.1467 162.125 24.68C161.818 24.2133 161.665 23.6867 161.665 23.1C161.665 22.38 161.851 21.8133 162.225 21.4C162.598 20.9733 163.205 20.6667 164.045 20.48C164.885 20.2933 166.011 20.2 167.425 20.2H168.425V21.64H167.445C166.618 21.64 165.958 21.68 165.465 21.76C164.971 21.84 164.618 21.98 164.405 22.18C164.205 22.3667 164.105 22.6333 164.105 22.98C164.105 23.42 164.258 23.78 164.565 24.06C164.871 24.34 165.298 24.48 165.845 24.48C166.285 24.48 166.671 24.38 167.005 24.18C167.351 23.9667 167.625 23.68 167.825 23.32C168.025 22.96 168.125 22.5467 168.125 22.08V19.78C168.125 19.1133 167.978 18.6333 167.685 18.34C167.391 18.0467 166.898 17.9 166.205 17.9C165.818 17.9 165.398 17.9467 164.945 18.04C164.505 18.1333 164.038 18.2933 163.545 18.52C163.291 18.64 163.065 18.6733 162.865 18.62C162.678 18.5667 162.531 18.46 162.425 18.3C162.318 18.1267 162.265 17.94 162.265 17.74C162.265 17.54 162.318 17.3467 162.425 17.16C162.531 16.96 162.711 16.8133 162.965 16.72C163.578 16.4667 164.165 16.2867 164.725 16.18C165.298 16.0733 165.818 16.02 166.285 16.02C167.245 16.02 168.031 16.1667 168.645 16.46C169.271 16.7533 169.738 17.2 170.045 17.8C170.351 18.3867 170.505 19.1467 170.505 20.08V24.88C170.505 25.2933 170.405 25.6133 170.205 25.84C170.005 26.0533 169.718 26.16 169.345 26.16C168.971 26.16 168.678 26.0533 168.465 25.84C168.265 25.6133 168.165 25.2933 168.165 24.88V23.92H168.325C168.231 24.3867 168.045 24.7933 167.765 25.14C167.498 25.4733 167.158 25.7333 166.745 25.92C166.331 26.1067 165.858 26.2 165.325 26.2Z" fill="#AA5EE0"/>
<path d="M180.624 18.88C180.424 18.88 180.264 18.8267 180.144 18.72C180.037 18.6133 179.984 18.46 179.984 18.26C179.984 18.06 180.037 17.9067 180.144 17.8C180.264 17.6933 180.424 17.64 180.624 17.64H189.384C189.584 17.64 189.737 17.6933 189.844 17.8C189.964 17.9067 190.024 18.06 190.024 18.26C190.024 18.46 189.964 18.6133 189.844 18.72C189.737 18.8267 189.584 18.88 189.384 18.88H180.624ZM180.624 22.86C180.424 22.86 180.264 22.8067 180.144 22.7C180.037 22.5933 179.984 22.44 179.984 22.24C179.984 22.04 180.037 21.8933 180.144 21.8C180.264 21.6933 180.424 21.64 180.624 21.64H189.384C189.584 21.64 189.737 21.6933 189.844 21.8C189.964 21.8933 190.024 22.04 190.024 22.24C190.024 22.4533 189.964 22.6133 189.844 22.72C189.737 22.8133 189.584 22.86 189.384 22.86H180.624Z" fill="#444444"/>
<path d="M267.004 19.4C267.257 19.4 267.464 19.4867 267.624 19.66C267.797 19.82 267.884 20.0267 267.884 20.28C267.884 20.5333 267.797 20.7467 267.624 20.92C267.464 21.08 267.257 21.16 267.004 21.16H263.884V24.26C263.884 24.5133 263.797 24.7267 263.624 24.9C263.464 25.0733 263.257 25.16 263.004 25.16C262.751 25.16 262.537 25.0733 262.364 24.9C262.204 24.7267 262.124 24.5133 262.124 24.26V21.16H259.004C258.751 21.16 258.537 21.08 258.364 20.92C258.204 20.7467 258.124 20.5333 258.124 20.28C258.124 20.0267 258.204 19.82 258.364 19.66C258.537 19.4867 258.751 19.4 259.004 19.4H262.124V16.28C262.124 16.0267 262.204 15.82 262.364 15.66C262.537 15.4867 262.751 15.4 263.004 15.4C263.257 15.4 263.464 15.4867 263.624 15.66C263.797 15.82 263.884 16.0267 263.884 16.28V19.4H267.004Z" fill="#444444"/>
<path d="M349.004 19.4C349.257 19.4 349.464 19.4867 349.624 19.66C349.797 19.82 349.884 20.0267 349.884 20.28C349.884 20.5333 349.797 20.7467 349.624 20.92C349.464 21.08 349.257 21.16 349.004 21.16H345.884V24.26C345.884 24.5133 345.797 24.7267 345.624 24.9C345.464 25.0733 345.257 25.16 345.004 25.16C344.751 25.16 344.537 25.0733 344.364 24.9C344.204 24.7267 344.124 24.5133 344.124 24.26V21.16H341.004C340.751 21.16 340.537 21.08 340.364 20.92C340.204 20.7467 340.124 20.5333 340.124 20.28C340.124 20.0267 340.204 19.82 340.364 19.66C340.537 19.4867 340.751 19.4 341.004 19.4H344.124V16.28C344.124 16.0267 344.204 15.82 344.364 15.66C344.537 15.4867 344.751 15.4 345.004 15.4C345.257 15.4 345.464 15.4867 345.624 15.66C345.797 15.82 345.884 16.0267 345.884 16.28V19.4H349.004Z" fill="#444444"/>
<path d="M431.004 19.4C431.257 19.4 431.464 19.4867 431.624 19.66C431.797 19.82 431.884 20.0267 431.884 20.28C431.884 20.5333 431.797 20.7467 431.624 20.92C431.464 21.08 431.257 21.16 431.004 21.16H427.884V24.26C427.884 24.5133 427.797 24.7267 427.624 24.9C427.464 25.0733 427.257 25.16 427.004 25.16C426.751 25.16 426.537 25.0733 426.364 24.9C426.204 24.7267 426.124 24.5133 426.124 24.26V21.16H423.004C422.751 21.16 422.537 21.08 422.364 20.92C422.204 20.7467 422.124 20.5333 422.124 20.28C422.124 20.0267 422.204 19.82 422.364 19.66C422.537 19.4867 422.751 19.4 423.004 19.4H426.124V16.28C426.124 16.0267 426.204 15.82 426.364 15.66C426.537 15.4867 426.751 15.4 427.004 15.4C427.257 15.4 427.464 15.4867 427.624 15.66C427.797 15.82 427.884 16.0267 427.884 16.28V19.4H431.004Z" fill="#444444"/>
<path d="M513.004 19.4C513.257 19.4 513.464 19.4867 513.624 19.66C513.797 19.82 513.884 20.0267 513.884 20.28C513.884 20.5333 513.797 20.7467 513.624 20.92C513.464 21.08 513.257 21.16 513.004 21.16H509.884V24.26C509.884 24.5133 509.797 24.7267 509.624 24.9C509.464 25.0733 509.257 25.16 509.004 25.16C508.751 25.16 508.537 25.0733 508.364 24.9C508.204 24.7267 508.124 24.5133 508.124 24.26V21.16H505.004C504.751 21.16 504.537 21.08 504.364 20.92C504.204 20.7467 504.124 20.5333 504.124 20.28C504.124 20.0267 504.204 19.82 504.364 19.66C504.537 19.4867 504.751 19.4 505.004 19.4H508.124V16.28C508.124 16.0267 508.204 15.82 508.364 15.66C508.537 15.4867 508.751 15.4 509.004 15.4C509.257 15.4 509.464 15.4867 509.624 15.66C509.797 15.82 509.884 16.0267 509.884 16.28V19.4H513.004Z" fill="#444444"/>
<path d="M595.004 18.4C595.257 18.4 595.464 18.4867 595.624 18.66C595.797 18.82 595.884 19.0267 595.884 19.28C595.884 19.5333 595.797 19.7467 595.624 19.92C595.464 20.08 595.257 20.16 595.004 20.16H591.884V23.26C591.884 23.5133 591.797 23.7267 591.624 23.9C591.464 24.0733 591.257 24.16 591.004 24.16C590.751 24.16 590.537 24.0733 590.364 23.9C590.204 23.7267 590.124 23.5133 590.124 23.26V20.16H587.004C586.751 20.16 586.537 20.08 586.364 19.92C586.204 19.7467 586.124 19.5333 586.124 19.28C586.124 19.0267 586.204 18.82 586.364 18.66C586.537 18.4867 586.751 18.4 587.004 18.4H590.124V15.28C590.124 15.0267 590.204 14.82 590.364 14.66C590.537 14.4867 590.751 14.4 591.004 14.4C591.257 14.4 591.464 14.4867 591.624 14.66C591.797 14.82 591.884 15.0267 591.884 15.28V18.4H595.004Z" fill="#444444"/>
<rect x="198.5" y="5.5" width="49" height="27" rx="4.5" fill="#F6F6F6"/>
<rect x="198.5" y="5.5" width="49" height="27" rx="4.5" stroke="#1A1A1A" stroke-linecap="round" stroke-dasharray="5 5"/>
<rect x="280.5" y="5.5" width="49" height="27" rx="4.5" fill="#F6F6F6"/>
<rect x="280.5" y="5.5" width="49" height="27" rx="4.5" stroke="#1A1A1A" stroke-linecap="round" stroke-dasharray="5 5"/>
<rect x="362.5" y="5.5" width="49" height="27" rx="4.5" fill="#F6F6F6"/>
<rect x="362.5" y="5.5" width="49" height="27" rx="4.5" stroke="#1A1A1A" stroke-linecap="round" stroke-dasharray="5 5"/>
<rect x="444.5" y="5.5" width="49" height="27" rx="4.5" fill="#F6F6F6"/>
<rect x="444.5" y="5.5" width="49" height="27" rx="4.5" stroke="#1A1A1A" stroke-linecap="round" stroke-dasharray="5 5"/>
<rect x="526.5" y="5.5" width="49" height="27" rx="4.5" fill="#F6F6F6"/>
<rect x="526.5" y="5.5" width="49" height="27" rx="4.5" stroke="#1A1A1A" stroke-linecap="round" stroke-dasharray="5 5"/>
<rect x="608.5" y="5.5" width="49" height="27" rx="4.5" fill="#F6F6F6"/>
<rect x="608.5" y="5.5" width="49" height="27" rx="4.5" stroke="#1A1A1A" stroke-linecap="round" stroke-dasharray="5 5"/>
</svg>
