<svg width="680" height="60" viewBox="0 0 680 60" fill="none" xmlns="http://www.w3.org/2000/svg">
<g clip-path="url(#clip0_5555_5597)">
<path d="M96.8587 21.16C96.4453 21.16 96.1253 21.0467 95.8987 20.82C95.6853 20.58 95.5787 20.2533 95.5787 19.84V9.04H91.6787C91.332 9.04 91.0587 8.94667 90.8587 8.76C90.672 8.56 90.5787 8.29333 90.5787 7.96C90.5787 7.61333 90.672 7.35333 90.8587 7.18C91.0587 6.99333 91.332 6.9 91.6787 6.9H102.039C102.385 6.9 102.652 6.99333 102.839 7.18C103.039 7.35333 103.139 7.61333 103.139 7.96C103.139 8.29333 103.039 8.56 102.839 8.76C102.652 8.94667 102.385 9.04 102.039 9.04H98.1387V19.84C98.1387 20.2533 98.032 20.58 97.8187 20.82C97.6053 21.0467 97.2853 21.16 96.8587 21.16ZM106.694 21.16C106.294 21.16 105.988 21.0533 105.774 20.84C105.561 20.6133 105.454 20.2933 105.454 19.88V8C105.454 7.58667 105.561 7.27333 105.774 7.06C105.988 6.84667 106.294 6.74 106.694 6.74C107.094 6.74 107.401 6.84667 107.614 7.06C107.841 7.27333 107.954 7.58667 107.954 8V13.18H107.674C107.968 12.4733 108.421 11.94 109.034 11.58C109.661 11.2067 110.368 11.02 111.154 11.02C111.941 11.02 112.588 11.1667 113.094 11.46C113.601 11.7533 113.981 12.2 114.234 12.8C114.488 13.3867 114.614 14.1333 114.614 15.04V19.88C114.614 20.2933 114.508 20.6133 114.294 20.84C114.081 21.0533 113.774 21.16 113.374 21.16C112.974 21.16 112.661 21.0533 112.434 20.84C112.221 20.6133 112.114 20.2933 112.114 19.88V15.16C112.114 14.4 111.968 13.8467 111.674 13.5C111.394 13.1533 110.954 12.98 110.354 12.98C109.621 12.98 109.034 13.2133 108.594 13.68C108.168 14.1333 107.954 14.74 107.954 15.5V19.88C107.954 20.7333 107.534 21.16 106.694 21.16ZM121.974 21.2C120.867 21.2 119.914 20.9933 119.114 20.58C118.314 20.1667 117.694 19.58 117.254 18.82C116.827 18.06 116.614 17.16 116.614 16.12C116.614 15.1067 116.82 14.22 117.234 13.46C117.66 12.7 118.24 12.1067 118.974 11.68C119.72 11.24 120.567 11.02 121.514 11.02C122.207 11.02 122.827 11.1333 123.374 11.36C123.934 11.5867 124.407 11.9133 124.794 12.34C125.194 12.7667 125.494 13.2867 125.694 13.9C125.907 14.5 126.014 15.18 126.014 15.94C126.014 16.18 125.927 16.3667 125.754 16.5C125.594 16.62 125.36 16.68 125.054 16.68H118.634V15.24H124.254L123.934 15.54C123.934 14.9267 123.84 14.4133 123.654 14C123.48 13.5867 123.22 13.2733 122.874 13.06C122.54 12.8333 122.12 12.72 121.614 12.72C121.054 12.72 120.574 12.8533 120.174 13.12C119.787 13.3733 119.487 13.74 119.274 14.22C119.074 14.6867 118.974 15.2467 118.974 15.9V16.04C118.974 17.1333 119.227 17.9533 119.734 18.5C120.254 19.0333 121.014 19.3 122.014 19.3C122.36 19.3 122.747 19.26 123.174 19.18C123.614 19.0867 124.027 18.9333 124.414 18.72C124.694 18.56 124.94 18.4933 125.154 18.52C125.367 18.5333 125.534 18.6067 125.654 18.74C125.787 18.8733 125.867 19.04 125.894 19.24C125.92 19.4267 125.88 19.62 125.774 19.82C125.68 20.02 125.514 20.1933 125.274 20.34C124.807 20.6333 124.267 20.8533 123.654 21C123.054 21.1333 122.494 21.2 121.974 21.2ZM137.383 21.16C137.05 21.16 136.756 21.0733 136.503 20.9C136.263 20.7267 136.063 20.46 135.903 20.1L132.723 12.72C132.603 12.4267 132.556 12.1533 132.583 11.9C132.623 11.6467 132.743 11.4467 132.943 11.3C133.156 11.14 133.443 11.06 133.803 11.06C134.11 11.06 134.356 11.1333 134.543 11.28C134.73 11.4133 134.896 11.6733 135.043 12.06L137.743 18.8H137.143L139.923 12.04C140.07 11.6667 140.236 11.4133 140.423 11.28C140.623 11.1333 140.89 11.06 141.223 11.06C141.516 11.06 141.75 11.14 141.923 11.3C142.096 11.4467 142.203 11.6467 142.243 11.9C142.283 12.14 142.236 12.4067 142.103 12.7L138.863 20.1C138.716 20.46 138.516 20.7267 138.263 20.9C138.023 21.0733 137.73 21.16 137.383 21.16ZM146.995 21.2C146.288 21.2 145.655 21.0667 145.095 20.8C144.548 20.52 144.115 20.1467 143.795 19.68C143.488 19.2133 143.335 18.6867 143.335 18.1C143.335 17.38 143.521 16.8133 143.895 16.4C144.268 15.9733 144.875 15.6667 145.715 15.48C146.555 15.2933 147.681 15.2 149.095 15.2H150.095V16.64H149.115C148.288 16.64 147.628 16.68 147.135 16.76C146.641 16.84 146.288 16.98 146.075 17.18C145.875 17.3667 145.775 17.6333 145.775 17.98C145.775 18.42 145.928 18.78 146.235 19.06C146.541 19.34 146.968 19.48 147.515 19.48C147.955 19.48 148.341 19.38 148.675 19.18C149.021 18.9667 149.295 18.68 149.495 18.32C149.695 17.96 149.795 17.5467 149.795 17.08V14.78C149.795 14.1133 149.648 13.6333 149.355 13.34C149.061 13.0467 148.568 12.9 147.875 12.9C147.488 12.9 147.068 12.9467 146.615 13.04C146.175 13.1333 145.708 13.2933 145.215 13.52C144.961 13.64 144.735 13.6733 144.535 13.62C144.348 13.5667 144.201 13.46 144.095 13.3C143.988 13.1267 143.935 12.94 143.935 12.74C143.935 12.54 143.988 12.3467 144.095 12.16C144.201 11.96 144.381 11.8133 144.635 11.72C145.248 11.4667 145.835 11.2867 146.395 11.18C146.968 11.0733 147.488 11.02 147.955 11.02C148.915 11.02 149.701 11.1667 150.315 11.46C150.941 11.7533 151.408 12.2 151.715 12.8C152.021 13.3867 152.175 14.1467 152.175 15.08V19.88C152.175 20.2933 152.075 20.6133 151.875 20.84C151.675 21.0533 151.388 21.16 151.015 21.16C150.641 21.16 150.348 21.0533 150.135 20.84C149.935 20.6133 149.835 20.2933 149.835 19.88V18.92H149.995C149.901 19.3867 149.715 19.7933 149.435 20.14C149.168 20.4733 148.828 20.7333 148.415 20.92C148.001 21.1067 147.528 21.2 146.995 21.2ZM158.052 21.2C156.945 21.2 156.112 20.8867 155.552 20.26C154.992 19.62 154.712 18.6867 154.712 17.46V8C154.712 7.58667 154.819 7.27333 155.032 7.06C155.245 6.84667 155.552 6.74 155.952 6.74C156.352 6.74 156.659 6.84667 156.872 7.06C157.099 7.27333 157.212 7.58667 157.212 8V17.34C157.212 17.9533 157.339 18.4067 157.592 18.7C157.859 18.9933 158.232 19.14 158.712 19.14C158.819 19.14 158.919 19.14 159.012 19.14C159.105 19.1267 159.199 19.1133 159.292 19.1C159.479 19.0733 159.605 19.1267 159.672 19.26C159.739 19.38 159.772 19.6333 159.772 20.02C159.772 20.3533 159.705 20.6133 159.572 20.8C159.439 20.9867 159.219 21.1 158.912 21.14C158.779 21.1533 158.639 21.1667 158.492 21.18C158.345 21.1933 158.199 21.2 158.052 21.2ZM164.639 21.2C163.825 21.2 163.152 21.0533 162.619 20.76C162.085 20.4533 161.685 20 161.419 19.4C161.165 18.8 161.039 18.0533 161.039 17.16V12.32C161.039 11.8933 161.145 11.58 161.359 11.38C161.572 11.1667 161.879 11.06 162.279 11.06C162.679 11.06 162.985 11.1667 163.199 11.38C163.425 11.58 163.539 11.8933 163.539 12.32V17.2C163.539 17.8933 163.679 18.4067 163.959 18.74C164.239 19.0733 164.685 19.24 165.299 19.24C165.965 19.24 166.512 19.0133 166.939 18.56C167.365 18.0933 167.579 17.48 167.579 16.72V12.32C167.579 11.8933 167.685 11.58 167.899 11.38C168.112 11.1667 168.419 11.06 168.819 11.06C169.219 11.06 169.525 11.1667 169.739 11.38C169.965 11.58 170.079 11.8933 170.079 12.32V19.88C170.079 20.7333 169.672 21.16 168.859 21.16C168.472 21.16 168.172 21.0533 167.959 20.84C167.745 20.6133 167.639 20.2933 167.639 19.88V18.36L167.919 18.96C167.639 19.68 167.212 20.2333 166.639 20.62C166.079 21.0067 165.412 21.2 164.639 21.2ZM177.501 21.2C176.394 21.2 175.441 20.9933 174.641 20.58C173.841 20.1667 173.221 19.58 172.781 18.82C172.354 18.06 172.141 17.16 172.141 16.12C172.141 15.1067 172.348 14.22 172.761 13.46C173.188 12.7 173.768 12.1067 174.501 11.68C175.248 11.24 176.094 11.02 177.041 11.02C177.734 11.02 178.354 11.1333 178.901 11.36C179.461 11.5867 179.934 11.9133 180.321 12.34C180.721 12.7667 181.021 13.2867 181.221 13.9C181.434 14.5 181.541 15.18 181.541 15.94C181.541 16.18 181.454 16.3667 181.281 16.5C181.121 16.62 180.888 16.68 180.581 16.68H174.161V15.24H179.781L179.461 15.54C179.461 14.9267 179.368 14.4133 179.181 14C179.008 13.5867 178.748 13.2733 178.401 13.06C178.068 12.8333 177.648 12.72 177.141 12.72C176.581 12.72 176.101 12.8533 175.701 13.12C175.314 13.3733 175.014 13.74 174.801 14.22C174.601 14.6867 174.501 15.2467 174.501 15.9V16.04C174.501 17.1333 174.754 17.9533 175.261 18.5C175.781 19.0333 176.541 19.3 177.541 19.3C177.888 19.3 178.274 19.26 178.701 19.18C179.141 19.0867 179.554 18.9333 179.941 18.72C180.221 18.56 180.468 18.4933 180.681 18.52C180.894 18.5333 181.061 18.6067 181.181 18.74C181.314 18.8733 181.394 19.04 181.421 19.24C181.448 19.4267 181.408 19.62 181.301 19.82C181.208 20.02 181.041 20.1933 180.801 20.34C180.334 20.6333 179.794 20.8533 179.181 21C178.581 21.1333 178.021 21.2 177.501 21.2ZM193.41 21.2C192.397 21.2 191.517 20.9933 190.77 20.58C190.024 20.1667 189.444 19.58 189.03 18.82C188.617 18.0467 188.41 17.14 188.41 16.1C188.41 15.3133 188.524 14.6133 188.75 14C188.99 13.3733 189.33 12.84 189.77 12.4C190.21 11.9467 190.737 11.6067 191.35 11.38C191.964 11.14 192.65 11.02 193.41 11.02C194.424 11.02 195.304 11.2267 196.05 11.64C196.797 12.0533 197.377 12.64 197.79 13.4C198.204 14.16 198.41 15.06 198.41 16.1C198.41 16.8867 198.29 17.5933 198.05 18.22C197.824 18.8467 197.49 19.3867 197.05 19.84C196.61 20.28 196.084 20.62 195.47 20.86C194.857 21.0867 194.17 21.2 193.41 21.2ZM193.41 19.3C193.904 19.3 194.337 19.18 194.71 18.94C195.084 18.7 195.37 18.3467 195.57 17.88C195.784 17.4 195.89 16.8067 195.89 16.1C195.89 15.0333 195.664 14.24 195.21 13.72C194.757 13.1867 194.157 12.92 193.41 12.92C192.917 12.92 192.484 13.04 192.11 13.28C191.737 13.5067 191.444 13.86 191.23 14.34C191.03 14.8067 190.93 15.3933 190.93 16.1C190.93 17.1533 191.157 17.9533 191.61 18.5C192.064 19.0333 192.664 19.3 193.41 19.3ZM202.296 21.16C201.896 21.16 201.583 21.0533 201.356 20.84C201.143 20.6133 201.036 20.2933 201.036 19.88V13.1H200.116C199.796 13.1 199.55 13.02 199.376 12.86C199.203 12.6867 199.116 12.4533 199.116 12.16C199.116 11.8533 199.203 11.62 199.376 11.46C199.55 11.3 199.796 11.22 200.116 11.22H201.756L201.036 11.88V11.2C201.036 9.82667 201.383 8.8 202.076 8.12C202.77 7.42667 203.77 7.02 205.076 6.9L205.756 6.84C206.023 6.81333 206.236 6.86 206.396 6.98C206.556 7.08667 206.663 7.23333 206.716 7.42C206.77 7.59333 206.776 7.77333 206.736 7.96C206.696 8.14667 206.61 8.31333 206.476 8.46C206.356 8.59333 206.196 8.66667 205.996 8.68L205.716 8.7C204.956 8.75333 204.403 8.94667 204.056 9.28C203.71 9.61333 203.536 10.12 203.536 10.8V11.54L203.216 11.22H205.236C205.556 11.22 205.803 11.3 205.976 11.46C206.15 11.62 206.236 11.8533 206.236 12.16C206.236 12.4533 206.15 12.6867 205.976 12.86C205.803 13.02 205.556 13.1 205.236 13.1H203.536V19.88C203.536 20.7333 203.123 21.16 202.296 21.16Z" fill="#444444"/>
<rect x="210.5" width="20" height="28" rx="5" fill="#FFF2E5"/>
<path d="M217.98 22.1055C218.15 22.1055 218.312 22.0729 218.469 22.0078C219.094 21.7604 219.745 20.8164 220.422 19.1758L216.789 11.168H215.891V10.6602H220.012V11.168H218.742L221.301 17.0664L223.645 11.168H222.199V10.6602H225.207C225.207 10.7643 225.201 10.849 225.188 10.9141C225.148 11.0833 224.992 11.168 224.719 11.168C224.628 11.168 224.543 11.1745 224.465 11.1875C224.296 11.2266 224.146 11.4219 224.016 11.7734L221.105 19.0977C220.832 19.7878 220.546 20.3802 220.246 20.875C219.504 22.125 218.605 22.75 217.551 22.75C217.186 22.75 216.854 22.6849 216.555 22.5547C216.008 22.2943 215.734 21.9362 215.734 21.4805C215.734 21.4154 215.741 21.3503 215.754 21.2852C215.858 20.8945 216.125 20.6992 216.555 20.6992C216.737 20.6992 216.893 20.7448 217.023 20.8359C217.167 20.9271 217.316 21.1875 217.473 21.6172C217.59 21.9427 217.759 22.1055 217.98 22.1055Z" fill="#FF8F1F"/>
<path d="M239.605 21.2C238.752 21.2 237.998 20.9933 237.345 20.58C236.705 20.1667 236.205 19.58 235.845 18.82C235.485 18.0467 235.305 17.14 235.305 16.1C235.305 15.0467 235.485 14.1467 235.845 13.4C236.205 12.64 236.705 12.0533 237.345 11.64C237.998 11.2267 238.752 11.02 239.605 11.02C240.418 11.02 241.125 11.22 241.725 11.62C242.338 12.02 242.752 12.5467 242.965 13.2H242.745V8C242.745 7.58667 242.852 7.27333 243.065 7.06C243.278 6.84667 243.585 6.74 243.985 6.74C244.385 6.74 244.692 6.84667 244.905 7.06C245.132 7.27333 245.245 7.58667 245.245 8V19.88C245.245 20.2933 245.138 20.6133 244.925 20.84C244.712 21.0533 244.405 21.16 244.005 21.16C243.605 21.16 243.298 21.0533 243.085 20.84C242.872 20.6133 242.765 20.2933 242.765 19.88V18.32L242.985 18.92C242.785 19.6133 242.378 20.1667 241.765 20.58C241.152 20.9933 240.432 21.2 239.605 21.2ZM240.305 19.3C240.798 19.3 241.232 19.18 241.605 18.94C241.978 18.7 242.265 18.3467 242.465 17.88C242.678 17.4 242.785 16.8067 242.785 16.1C242.785 15.0333 242.558 14.24 242.105 13.72C241.652 13.1867 241.052 12.92 240.305 12.92C239.812 12.92 239.378 13.04 239.005 13.28C238.632 13.5067 238.338 13.86 238.125 14.34C237.925 14.8067 237.825 15.3933 237.825 16.1C237.825 17.1533 238.052 17.9533 238.505 18.5C238.958 19.0333 239.558 19.3 240.305 19.3ZM252.657 21.2C251.55 21.2 250.597 20.9933 249.797 20.58C248.997 20.1667 248.377 19.58 247.937 18.82C247.51 18.06 247.297 17.16 247.297 16.12C247.297 15.1067 247.504 14.22 247.917 13.46C248.344 12.7 248.924 12.1067 249.657 11.68C250.404 11.24 251.25 11.02 252.197 11.02C252.89 11.02 253.51 11.1333 254.057 11.36C254.617 11.5867 255.09 11.9133 255.477 12.34C255.877 12.7667 256.177 13.2867 256.377 13.9C256.59 14.5 256.697 15.18 256.697 15.94C256.697 16.18 256.61 16.3667 256.437 16.5C256.277 16.62 256.044 16.68 255.737 16.68H249.317V15.24H254.937L254.617 15.54C254.617 14.9267 254.524 14.4133 254.337 14C254.164 13.5867 253.904 13.2733 253.557 13.06C253.224 12.8333 252.804 12.72 252.297 12.72C251.737 12.72 251.257 12.8533 250.857 13.12C250.47 13.3733 250.17 13.74 249.957 14.22C249.757 14.6867 249.657 15.2467 249.657 15.9V16.04C249.657 17.1333 249.91 17.9533 250.417 18.5C250.937 19.0333 251.697 19.3 252.697 19.3C253.044 19.3 253.43 19.26 253.857 19.18C254.297 19.0867 254.71 18.9333 255.097 18.72C255.377 18.56 255.624 18.4933 255.837 18.52C256.05 18.5333 256.217 18.6067 256.337 18.74C256.47 18.8733 256.55 19.04 256.577 19.24C256.604 19.4267 256.564 19.62 256.457 19.82C256.364 20.02 256.197 20.1933 255.957 20.34C255.49 20.6333 254.95 20.8533 254.337 21C253.737 21.1333 253.177 21.2 252.657 21.2ZM263.197 21.2C262.17 21.2 261.277 20.9933 260.517 20.58C259.757 20.1533 259.17 19.5533 258.757 18.78C258.344 18.0067 258.137 17.1 258.137 16.06C258.137 15.2733 258.25 14.5733 258.477 13.96C258.717 13.3333 259.057 12.8067 259.497 12.38C259.937 11.94 260.47 11.6067 261.097 11.38C261.724 11.14 262.424 11.02 263.197 11.02C263.637 11.02 264.11 11.08 264.617 11.2C265.137 11.32 265.624 11.52 266.077 11.8C266.29 11.9333 266.43 12.0933 266.497 12.28C266.564 12.4667 266.577 12.66 266.537 12.86C266.497 13.0467 266.41 13.2133 266.277 13.36C266.157 13.4933 266.004 13.58 265.817 13.62C265.63 13.6467 265.424 13.6 265.197 13.48C264.904 13.3067 264.604 13.18 264.297 13.1C263.99 13.0067 263.697 12.96 263.417 12.96C262.977 12.96 262.59 13.0333 262.257 13.18C261.924 13.3133 261.637 13.5133 261.397 13.78C261.17 14.0333 260.997 14.3533 260.877 14.74C260.757 15.1267 260.697 15.5733 260.697 16.08C260.697 17.0667 260.93 17.8467 261.397 18.42C261.877 18.98 262.55 19.26 263.417 19.26C263.697 19.26 263.984 19.22 264.277 19.14C264.584 19.06 264.89 18.9333 265.197 18.76C265.424 18.64 265.624 18.6 265.797 18.64C265.984 18.68 266.137 18.7733 266.257 18.92C266.377 19.0533 266.45 19.22 266.477 19.42C266.504 19.6067 266.477 19.7933 266.397 19.98C266.33 20.1667 266.197 20.32 265.997 20.44C265.557 20.7067 265.09 20.9 264.597 21.02C264.104 21.14 263.637 21.2 263.197 21.2ZM269.391 21.16C268.977 21.16 268.657 21.0533 268.431 20.84C268.217 20.6133 268.111 20.2933 268.111 19.88V12.32C268.111 11.9067 268.217 11.5933 268.431 11.38C268.644 11.1667 268.944 11.06 269.331 11.06C269.717 11.06 270.017 11.1667 270.231 11.38C270.444 11.5933 270.551 11.9067 270.551 12.32V13.58H270.351C270.537 12.78 270.904 12.1733 271.451 11.76C271.997 11.3467 272.724 11.1 273.631 11.02C273.911 10.9933 274.131 11.0667 274.291 11.24C274.464 11.4 274.564 11.6533 274.591 12C274.617 12.3333 274.537 12.6067 274.351 12.82C274.177 13.02 273.911 13.14 273.551 13.18L273.111 13.22C272.297 13.3 271.684 13.5533 271.271 13.98C270.857 14.3933 270.651 14.98 270.651 15.74V19.88C270.651 20.2933 270.544 20.6133 270.331 20.84C270.117 21.0533 269.804 21.16 269.391 21.16ZM280.606 21.2C279.5 21.2 278.546 20.9933 277.746 20.58C276.946 20.1667 276.326 19.58 275.886 18.82C275.46 18.06 275.246 17.16 275.246 16.12C275.246 15.1067 275.453 14.22 275.866 13.46C276.293 12.7 276.873 12.1067 277.606 11.68C278.353 11.24 279.2 11.02 280.146 11.02C280.84 11.02 281.46 11.1333 282.006 11.36C282.566 11.5867 283.04 11.9133 283.426 12.34C283.826 12.7667 284.126 13.2867 284.326 13.9C284.54 14.5 284.646 15.18 284.646 15.94C284.646 16.18 284.56 16.3667 284.386 16.5C284.226 16.62 283.993 16.68 283.686 16.68H277.266V15.24H282.886L282.566 15.54C282.566 14.9267 282.473 14.4133 282.286 14C282.113 13.5867 281.853 13.2733 281.506 13.06C281.173 12.8333 280.753 12.72 280.246 12.72C279.686 12.72 279.206 12.8533 278.806 13.12C278.42 13.3733 278.12 13.74 277.906 14.22C277.706 14.6867 277.606 15.2467 277.606 15.9V16.04C277.606 17.1333 277.86 17.9533 278.366 18.5C278.886 19.0333 279.646 19.3 280.646 19.3C280.993 19.3 281.38 19.26 281.806 19.18C282.246 19.0867 282.66 18.9333 283.046 18.72C283.326 18.56 283.573 18.4933 283.786 18.52C284 18.5333 284.166 18.6067 284.286 18.74C284.42 18.8733 284.5 19.04 284.526 19.24C284.553 19.4267 284.513 19.62 284.406 19.82C284.313 20.02 284.146 20.1933 283.906 20.34C283.44 20.6333 282.9 20.8533 282.286 21C281.686 21.1333 281.126 21.2 280.606 21.2ZM289.846 21.2C289.14 21.2 288.506 21.0667 287.946 20.8C287.4 20.52 286.966 20.1467 286.646 19.68C286.34 19.2133 286.186 18.6867 286.186 18.1C286.186 17.38 286.373 16.8133 286.746 16.4C287.12 15.9733 287.726 15.6667 288.566 15.48C289.406 15.2933 290.533 15.2 291.946 15.2H292.946V16.64H291.966C291.14 16.64 290.48 16.68 289.986 16.76C289.493 16.84 289.14 16.98 288.926 17.18C288.726 17.3667 288.626 17.6333 288.626 17.98C288.626 18.42 288.78 18.78 289.086 19.06C289.393 19.34 289.82 19.48 290.366 19.48C290.806 19.48 291.193 19.38 291.526 19.18C291.873 18.9667 292.146 18.68 292.346 18.32C292.546 17.96 292.646 17.5467 292.646 17.08V14.78C292.646 14.1133 292.5 13.6333 292.206 13.34C291.913 13.0467 291.42 12.9 290.726 12.9C290.34 12.9 289.92 12.9467 289.466 13.04C289.026 13.1333 288.56 13.2933 288.066 13.52C287.813 13.64 287.586 13.6733 287.386 13.62C287.2 13.5667 287.053 13.46 286.946 13.3C286.84 13.1267 286.786 12.94 286.786 12.74C286.786 12.54 286.84 12.3467 286.946 12.16C287.053 11.96 287.233 11.8133 287.486 11.72C288.1 11.4667 288.686 11.2867 289.246 11.18C289.82 11.0733 290.34 11.02 290.806 11.02C291.766 11.02 292.553 11.1667 293.166 11.46C293.793 11.7533 294.26 12.2 294.566 12.8C294.873 13.3867 295.026 14.1467 295.026 15.08V19.88C295.026 20.2933 294.926 20.6133 294.726 20.84C294.526 21.0533 294.24 21.16 293.866 21.16C293.493 21.16 293.2 21.0533 292.986 20.84C292.786 20.6133 292.686 20.2933 292.686 19.88V18.92H292.846C292.753 19.3867 292.566 19.7933 292.286 20.14C292.02 20.4733 291.68 20.7333 291.266 20.92C290.853 21.1067 290.38 21.2 289.846 21.2ZM301.144 21.2C300.57 21.2 299.964 21.14 299.324 21.02C298.684 20.9 298.11 20.6933 297.604 20.4C297.39 20.2667 297.237 20.1133 297.144 19.94C297.064 19.7533 297.03 19.5733 297.044 19.4C297.07 19.2133 297.137 19.0533 297.244 18.92C297.364 18.7867 297.51 18.7 297.684 18.66C297.87 18.62 298.07 18.6533 298.284 18.76C298.817 19.0133 299.317 19.1933 299.784 19.3C300.25 19.3933 300.71 19.44 301.164 19.44C301.804 19.44 302.277 19.3333 302.584 19.12C302.904 18.8933 303.064 18.6 303.064 18.24C303.064 17.9333 302.957 17.7 302.744 17.54C302.544 17.3667 302.237 17.24 301.824 17.16L299.824 16.78C298.997 16.62 298.364 16.32 297.924 15.88C297.497 15.4267 297.284 14.8467 297.284 14.14C297.284 13.5 297.457 12.9467 297.804 12.48C298.164 12.0133 298.657 11.6533 299.284 11.4C299.91 11.1467 300.63 11.02 301.444 11.02C302.03 11.02 302.577 11.0867 303.084 11.22C303.604 11.34 304.104 11.5333 304.584 11.8C304.784 11.9067 304.917 12.0467 304.984 12.22C305.064 12.3933 305.084 12.5733 305.044 12.76C305.004 12.9333 304.924 13.0933 304.804 13.24C304.684 13.3733 304.53 13.46 304.344 13.5C304.17 13.5267 303.97 13.4867 303.744 13.38C303.33 13.1667 302.93 13.0133 302.544 12.92C302.17 12.8267 301.81 12.78 301.464 12.78C300.81 12.78 300.324 12.8933 300.004 13.12C299.697 13.3467 299.544 13.6467 299.544 14.02C299.544 14.3 299.637 14.5333 299.824 14.72C300.01 14.9067 300.297 15.0333 300.684 15.1L302.684 15.48C303.55 15.64 304.204 15.9333 304.644 16.36C305.097 16.7867 305.324 17.36 305.324 18.08C305.324 19.0533 304.944 19.82 304.184 20.38C303.424 20.9267 302.41 21.2 301.144 21.2ZM312.149 21.2C311.043 21.2 310.089 20.9933 309.289 20.58C308.489 20.1667 307.869 19.58 307.429 18.82C307.003 18.06 306.789 17.16 306.789 16.12C306.789 15.1067 306.996 14.22 307.409 13.46C307.836 12.7 308.416 12.1067 309.149 11.68C309.896 11.24 310.743 11.02 311.689 11.02C312.383 11.02 313.003 11.1333 313.549 11.36C314.109 11.5867 314.583 11.9133 314.969 12.34C315.369 12.7667 315.669 13.2867 315.869 13.9C316.083 14.5 316.189 15.18 316.189 15.94C316.189 16.18 316.103 16.3667 315.929 16.5C315.769 16.62 315.536 16.68 315.229 16.68H308.809V15.24H314.429L314.109 15.54C314.109 14.9267 314.016 14.4133 313.829 14C313.656 13.5867 313.396 13.2733 313.049 13.06C312.716 12.8333 312.296 12.72 311.789 12.72C311.229 12.72 310.749 12.8533 310.349 13.12C309.963 13.3733 309.663 13.74 309.449 14.22C309.249 14.6867 309.149 15.2467 309.149 15.9V16.04C309.149 17.1333 309.403 17.9533 309.909 18.5C310.429 19.0333 311.189 19.3 312.189 19.3C312.536 19.3 312.923 19.26 313.349 19.18C313.789 19.0867 314.203 18.9333 314.589 18.72C314.869 18.56 315.116 18.4933 315.329 18.52C315.543 18.5333 315.709 18.6067 315.829 18.74C315.963 18.8733 316.043 19.04 316.069 19.24C316.096 19.4267 316.056 19.62 315.949 19.82C315.856 20.02 315.689 20.1933 315.449 20.34C314.983 20.6333 314.443 20.8533 313.829 21C313.229 21.1333 312.669 21.2 312.149 21.2ZM321.749 21.2C321.176 21.2 320.569 21.14 319.929 21.02C319.289 20.9 318.716 20.6933 318.209 20.4C317.996 20.2667 317.842 20.1133 317.749 19.94C317.669 19.7533 317.636 19.5733 317.649 19.4C317.676 19.2133 317.742 19.0533 317.849 18.92C317.969 18.7867 318.116 18.7 318.289 18.66C318.476 18.62 318.676 18.6533 318.889 18.76C319.422 19.0133 319.922 19.1933 320.389 19.3C320.856 19.3933 321.316 19.44 321.769 19.44C322.409 19.44 322.882 19.3333 323.189 19.12C323.509 18.8933 323.669 18.6 323.669 18.24C323.669 17.9333 323.562 17.7 323.349 17.54C323.149 17.3667 322.842 17.24 322.429 17.16L320.429 16.78C319.602 16.62 318.969 16.32 318.529 15.88C318.102 15.4267 317.889 14.8467 317.889 14.14C317.889 13.5 318.062 12.9467 318.409 12.48C318.769 12.0133 319.262 11.6533 319.889 11.4C320.516 11.1467 321.236 11.02 322.049 11.02C322.636 11.02 323.182 11.0867 323.689 11.22C324.209 11.34 324.709 11.5333 325.189 11.8C325.389 11.9067 325.522 12.0467 325.589 12.22C325.669 12.3933 325.689 12.5733 325.649 12.76C325.609 12.9333 325.529 13.0933 325.409 13.24C325.289 13.3733 325.136 13.46 324.949 13.5C324.776 13.5267 324.576 13.4867 324.349 13.38C323.936 13.1667 323.536 13.0133 323.149 12.92C322.776 12.8267 322.416 12.78 322.069 12.78C321.416 12.78 320.929 12.8933 320.609 13.12C320.302 13.3467 320.149 13.6467 320.149 14.02C320.149 14.3 320.242 14.5333 320.429 14.72C320.616 14.9067 320.902 15.0333 321.289 15.1L323.289 15.48C324.156 15.64 324.809 15.9333 325.249 16.36C325.702 16.7867 325.929 17.36 325.929 18.08C325.929 19.0533 325.549 19.82 324.789 20.38C324.029 20.9267 323.016 21.2 321.749 21.2ZM337.144 21.16C336.811 21.16 336.524 21.08 336.284 20.92C336.044 20.7467 335.851 20.48 335.704 20.12L332.804 12.72C332.684 12.4 332.644 12.12 332.684 11.88C332.738 11.6267 332.864 11.4267 333.064 11.28C333.264 11.1333 333.531 11.06 333.864 11.06C334.158 11.06 334.398 11.1333 334.584 11.28C334.771 11.4133 334.931 11.6733 335.064 12.06L337.484 18.72H337.024L339.524 11.9C339.631 11.6067 339.771 11.3933 339.944 11.26C340.131 11.1267 340.371 11.06 340.664 11.06C340.958 11.06 341.198 11.1333 341.384 11.28C341.571 11.4133 341.711 11.62 341.804 11.9L344.264 18.72H343.844L346.284 12C346.418 11.64 346.584 11.3933 346.784 11.26C346.998 11.1267 347.231 11.06 347.484 11.06C347.804 11.06 348.051 11.14 348.224 11.3C348.398 11.46 348.498 11.6667 348.524 11.92C348.551 12.16 348.504 12.4267 348.384 12.72L345.504 20.12C345.371 20.4667 345.178 20.7267 344.924 20.9C344.684 21.0733 344.398 21.16 344.064 21.16C343.731 21.16 343.438 21.0733 343.184 20.9C342.944 20.7267 342.758 20.4667 342.624 20.12L340.004 13.18H341.144L338.584 20.1C338.451 20.46 338.264 20.7267 338.024 20.9C337.784 21.0733 337.491 21.16 337.144 21.16ZM351.655 21.14C351.255 21.14 350.949 21.02 350.735 20.78C350.522 20.54 350.415 20.2067 350.415 19.78V12.44C350.415 12 350.522 11.6667 350.735 11.44C350.949 11.2 351.255 11.08 351.655 11.08C352.055 11.08 352.362 11.2 352.575 11.44C352.802 11.6667 352.915 12 352.915 12.44V19.78C352.915 20.2067 352.809 20.54 352.595 20.78C352.382 21.02 352.069 21.14 351.655 21.14ZM351.655 9.22C351.189 9.22 350.822 9.10667 350.555 8.88C350.302 8.64 350.175 8.31333 350.175 7.9C350.175 7.47333 350.302 7.14667 350.555 6.92C350.822 6.69333 351.189 6.58 351.655 6.58C352.135 6.58 352.502 6.69333 352.755 6.92C353.009 7.14667 353.135 7.47333 353.135 7.9C353.135 8.31333 353.009 8.64 352.755 8.88C352.502 9.10667 352.135 9.22 351.655 9.22ZM359.993 21.2C359.126 21.2 358.4 21.0533 357.813 20.76C357.24 20.4667 356.813 20.04 356.533 19.48C356.253 18.9067 356.113 18.2 356.113 17.36V13.1H355.073C354.753 13.1 354.506 13.02 354.333 12.86C354.16 12.6867 354.073 12.4533 354.073 12.16C354.073 11.8533 354.16 11.62 354.333 11.46C354.506 11.3 354.753 11.22 355.073 11.22H356.113V9.4C356.113 8.98667 356.22 8.67333 356.433 8.46C356.66 8.24667 356.973 8.14 357.373 8.14C357.773 8.14 358.08 8.24667 358.293 8.46C358.506 8.67333 358.613 8.98667 358.613 9.4V11.22H360.733C361.053 11.22 361.3 11.3 361.473 11.46C361.646 11.62 361.733 11.8533 361.733 12.16C361.733 12.4533 361.646 12.6867 361.473 12.86C361.3 13.02 361.053 13.1 360.733 13.1H358.613V17.22C358.613 17.86 358.753 18.34 359.033 18.66C359.313 18.98 359.766 19.14 360.393 19.14C360.62 19.14 360.82 19.12 360.993 19.08C361.166 19.04 361.32 19.0133 361.453 19C361.613 18.9867 361.746 19.04 361.853 19.16C361.96 19.2667 362.013 19.4933 362.013 19.84C362.013 20.1067 361.966 20.3467 361.873 20.56C361.793 20.76 361.64 20.9 361.413 20.98C361.24 21.0333 361.013 21.08 360.733 21.12C360.453 21.1733 360.206 21.2 359.993 21.2ZM364.683 21.16C364.283 21.16 363.976 21.0533 363.763 20.84C363.549 20.6133 363.443 20.2933 363.443 19.88V8C363.443 7.58667 363.549 7.27333 363.763 7.06C363.976 6.84667 364.283 6.74 364.683 6.74C365.083 6.74 365.389 6.84667 365.603 7.06C365.829 7.27333 365.943 7.58667 365.943 8V13.18H365.663C365.956 12.4733 366.409 11.94 367.023 11.58C367.649 11.2067 368.356 11.02 369.143 11.02C369.929 11.02 370.576 11.1667 371.083 11.46C371.589 11.7533 371.969 12.2 372.223 12.8C372.476 13.3867 372.603 14.1333 372.603 15.04V19.88C372.603 20.2933 372.496 20.6133 372.283 20.84C372.069 21.0533 371.763 21.16 371.363 21.16C370.963 21.16 370.649 21.0533 370.423 20.84C370.209 20.6133 370.103 20.2933 370.103 19.88V15.16C370.103 14.4 369.956 13.8467 369.663 13.5C369.383 13.1533 368.943 12.98 368.343 12.98C367.609 12.98 367.023 13.2133 366.583 13.68C366.156 14.1333 365.943 14.74 365.943 15.5V19.88C365.943 20.7333 365.523 21.16 364.683 21.16ZM381.811 21.14C381.411 21.14 381.105 21.02 380.891 20.78C380.678 20.54 380.571 20.2067 380.571 19.78V12.44C380.571 12 380.678 11.6667 380.891 11.44C381.105 11.2 381.411 11.08 381.811 11.08C382.211 11.08 382.518 11.2 382.731 11.44C382.958 11.6667 383.071 12 383.071 12.44V19.78C383.071 20.2067 382.965 20.54 382.751 20.78C382.538 21.02 382.225 21.14 381.811 21.14ZM381.811 9.22C381.345 9.22 380.978 9.10667 380.711 8.88C380.458 8.64 380.331 8.31333 380.331 7.9C380.331 7.47333 380.458 7.14667 380.711 6.92C380.978 6.69333 381.345 6.58 381.811 6.58C382.291 6.58 382.658 6.69333 382.911 6.92C383.165 7.14667 383.291 7.47333 383.291 7.9C383.291 8.31333 383.165 8.64 382.911 8.88C382.658 9.10667 382.291 9.22 381.811 9.22ZM386.909 21.16C386.509 21.16 386.202 21.0533 385.989 20.84C385.776 20.6133 385.669 20.2933 385.669 19.88V12.32C385.669 11.9067 385.776 11.5933 385.989 11.38C386.202 11.1667 386.502 11.06 386.889 11.06C387.276 11.06 387.576 11.1667 387.789 11.38C388.002 11.5933 388.109 11.9067 388.109 12.32V13.68L387.889 13.18C388.182 12.4733 388.636 11.94 389.249 11.58C389.876 11.2067 390.582 11.02 391.369 11.02C392.156 11.02 392.802 11.1667 393.309 11.46C393.816 11.7533 394.196 12.2 394.449 12.8C394.702 13.3867 394.829 14.1333 394.829 15.04V19.88C394.829 20.2933 394.722 20.6133 394.509 20.84C394.296 21.0533 393.989 21.16 393.589 21.16C393.189 21.16 392.876 21.0533 392.649 20.84C392.436 20.6133 392.329 20.2933 392.329 19.88V15.16C392.329 14.4 392.182 13.8467 391.889 13.5C391.609 13.1533 391.169 12.98 390.569 12.98C389.836 12.98 389.249 13.2133 388.809 13.68C388.382 14.1333 388.169 14.74 388.169 15.5V19.88C388.169 20.7333 387.749 21.16 386.909 21.16ZM401.888 21.2C400.862 21.2 399.968 20.9933 399.208 20.58C398.448 20.1533 397.862 19.5533 397.448 18.78C397.035 18.0067 396.828 17.1 396.828 16.06C396.828 15.2733 396.942 14.5733 397.168 13.96C397.408 13.3333 397.748 12.8067 398.188 12.38C398.628 11.94 399.162 11.6067 399.788 11.38C400.415 11.14 401.115 11.02 401.888 11.02C402.328 11.02 402.802 11.08 403.308 11.2C403.828 11.32 404.315 11.52 404.768 11.8C404.982 11.9333 405.122 12.0933 405.188 12.28C405.255 12.4667 405.268 12.66 405.228 12.86C405.188 13.0467 405.102 13.2133 404.968 13.36C404.848 13.4933 404.695 13.58 404.508 13.62C404.322 13.6467 404.115 13.6 403.888 13.48C403.595 13.3067 403.295 13.18 402.988 13.1C402.682 13.0067 402.388 12.96 402.108 12.96C401.668 12.96 401.282 13.0333 400.948 13.18C400.615 13.3133 400.328 13.5133 400.088 13.78C399.862 14.0333 399.688 14.3533 399.568 14.74C399.448 15.1267 399.388 15.5733 399.388 16.08C399.388 17.0667 399.622 17.8467 400.088 18.42C400.568 18.98 401.242 19.26 402.108 19.26C402.388 19.26 402.675 19.22 402.968 19.14C403.275 19.06 403.582 18.9333 403.888 18.76C404.115 18.64 404.315 18.6 404.488 18.64C404.675 18.68 404.828 18.7733 404.948 18.92C405.068 19.0533 405.142 19.22 405.168 19.42C405.195 19.6067 405.168 19.7933 405.088 19.98C405.022 20.1667 404.888 20.32 404.688 20.44C404.248 20.7067 403.782 20.9 403.288 21.02C402.795 21.14 402.328 21.2 401.888 21.2ZM408.082 21.16C407.669 21.16 407.349 21.0533 407.122 20.84C406.909 20.6133 406.802 20.2933 406.802 19.88V12.32C406.802 11.9067 406.909 11.5933 407.122 11.38C407.335 11.1667 407.635 11.06 408.022 11.06C408.409 11.06 408.709 11.1667 408.922 11.38C409.135 11.5933 409.242 11.9067 409.242 12.32V13.58H409.042C409.229 12.78 409.595 12.1733 410.142 11.76C410.689 11.3467 411.415 11.1 412.322 11.02C412.602 10.9933 412.822 11.0667 412.982 11.24C413.155 11.4 413.255 11.6533 413.282 12C413.309 12.3333 413.229 12.6067 413.042 12.82C412.869 13.02 412.602 13.14 412.242 13.18L411.802 13.22C410.989 13.3 410.375 13.5533 409.962 13.98C409.549 14.3933 409.342 14.98 409.342 15.74V19.88C409.342 20.2933 409.235 20.6133 409.022 20.84C408.809 21.0533 408.495 21.16 408.082 21.16ZM419.298 21.2C418.191 21.2 417.238 20.9933 416.438 20.58C415.638 20.1667 415.018 19.58 414.578 18.82C414.151 18.06 413.938 17.16 413.938 16.12C413.938 15.1067 414.144 14.22 414.558 13.46C414.984 12.7 415.564 12.1067 416.298 11.68C417.044 11.24 417.891 11.02 418.838 11.02C419.531 11.02 420.151 11.1333 420.698 11.36C421.258 11.5867 421.731 11.9133 422.118 12.34C422.518 12.7667 422.818 13.2867 423.018 13.9C423.231 14.5 423.338 15.18 423.338 15.94C423.338 16.18 423.251 16.3667 423.078 16.5C422.918 16.62 422.684 16.68 422.378 16.68H415.958V15.24H421.578L421.258 15.54C421.258 14.9267 421.164 14.4133 420.978 14C420.804 13.5867 420.544 13.2733 420.198 13.06C419.864 12.8333 419.444 12.72 418.938 12.72C418.378 12.72 417.898 12.8533 417.498 13.12C417.111 13.3733 416.811 13.74 416.598 14.22C416.398 14.6867 416.298 15.2467 416.298 15.9V16.04C416.298 17.1333 416.551 17.9533 417.058 18.5C417.578 19.0333 418.338 19.3 419.338 19.3C419.684 19.3 420.071 19.26 420.498 19.18C420.938 19.0867 421.351 18.9333 421.738 18.72C422.018 18.56 422.264 18.4933 422.478 18.52C422.691 18.5333 422.858 18.6067 422.978 18.74C423.111 18.8733 423.191 19.04 423.218 19.24C423.244 19.4267 423.204 19.62 423.098 19.82C423.004 20.02 422.838 20.1933 422.598 20.34C422.131 20.6333 421.591 20.8533 420.978 21C420.378 21.1333 419.818 21.2 419.298 21.2ZM428.538 21.2C427.831 21.2 427.198 21.0667 426.638 20.8C426.091 20.52 425.658 20.1467 425.338 19.68C425.031 19.2133 424.878 18.6867 424.878 18.1C424.878 17.38 425.064 16.8133 425.438 16.4C425.811 15.9733 426.418 15.6667 427.258 15.48C428.098 15.2933 429.224 15.2 430.638 15.2H431.638V16.64H430.658C429.831 16.64 429.171 16.68 428.678 16.76C428.184 16.84 427.831 16.98 427.618 17.18C427.418 17.3667 427.318 17.6333 427.318 17.98C427.318 18.42 427.471 18.78 427.778 19.06C428.084 19.34 428.511 19.48 429.058 19.48C429.498 19.48 429.884 19.38 430.218 19.18C430.564 18.9667 430.838 18.68 431.038 18.32C431.238 17.96 431.338 17.5467 431.338 17.08V14.78C431.338 14.1133 431.191 13.6333 430.898 13.34C430.604 13.0467 430.111 12.9 429.418 12.9C429.031 12.9 428.611 12.9467 428.158 13.04C427.718 13.1333 427.251 13.2933 426.758 13.52C426.504 13.64 426.278 13.6733 426.078 13.62C425.891 13.5667 425.744 13.46 425.638 13.3C425.531 13.1267 425.478 12.94 425.478 12.74C425.478 12.54 425.531 12.3467 425.638 12.16C425.744 11.96 425.924 11.8133 426.178 11.72C426.791 11.4667 427.378 11.2867 427.938 11.18C428.511 11.0733 429.031 11.02 429.498 11.02C430.458 11.02 431.244 11.1667 431.858 11.46C432.484 11.7533 432.951 12.2 433.258 12.8C433.564 13.3867 433.718 14.1467 433.718 15.08V19.88C433.718 20.2933 433.618 20.6133 433.418 20.84C433.218 21.0533 432.931 21.16 432.558 21.16C432.184 21.16 431.891 21.0533 431.678 20.84C431.478 20.6133 431.378 20.2933 431.378 19.88V18.92H431.538C431.444 19.3867 431.258 19.7933 430.978 20.14C430.711 20.4733 430.371 20.7333 429.958 20.92C429.544 21.1067 429.071 21.2 428.538 21.2ZM439.835 21.2C439.262 21.2 438.655 21.14 438.015 21.02C437.375 20.9 436.802 20.6933 436.295 20.4C436.082 20.2667 435.928 20.1133 435.835 19.94C435.755 19.7533 435.722 19.5733 435.735 19.4C435.762 19.2133 435.828 19.0533 435.935 18.92C436.055 18.7867 436.202 18.7 436.375 18.66C436.562 18.62 436.762 18.6533 436.975 18.76C437.508 19.0133 438.008 19.1933 438.475 19.3C438.942 19.3933 439.402 19.44 439.855 19.44C440.495 19.44 440.968 19.3333 441.275 19.12C441.595 18.8933 441.755 18.6 441.755 18.24C441.755 17.9333 441.648 17.7 441.435 17.54C441.235 17.3667 440.928 17.24 440.515 17.16L438.515 16.78C437.688 16.62 437.055 16.32 436.615 15.88C436.188 15.4267 435.975 14.8467 435.975 14.14C435.975 13.5 436.148 12.9467 436.495 12.48C436.855 12.0133 437.348 11.6533 437.975 11.4C438.602 11.1467 439.322 11.02 440.135 11.02C440.722 11.02 441.268 11.0867 441.775 11.22C442.295 11.34 442.795 11.5333 443.275 11.8C443.475 11.9067 443.608 12.0467 443.675 12.22C443.755 12.3933 443.775 12.5733 443.735 12.76C443.695 12.9333 443.615 13.0933 443.495 13.24C443.375 13.3733 443.222 13.46 443.035 13.5C442.862 13.5267 442.662 13.4867 442.435 13.38C442.022 13.1667 441.622 13.0133 441.235 12.92C440.862 12.8267 440.502 12.78 440.155 12.78C439.502 12.78 439.015 12.8933 438.695 13.12C438.388 13.3467 438.235 13.6467 438.235 14.02C438.235 14.3 438.328 14.5333 438.515 14.72C438.702 14.9067 438.988 15.0333 439.375 15.1L441.375 15.48C442.242 15.64 442.895 15.9333 443.335 16.36C443.788 16.7867 444.015 17.36 444.015 18.08C444.015 19.0533 443.635 19.82 442.875 20.38C442.115 20.9267 441.102 21.2 439.835 21.2ZM450.841 21.2C449.734 21.2 448.781 20.9933 447.981 20.58C447.181 20.1667 446.561 19.58 446.121 18.82C445.694 18.06 445.481 17.16 445.481 16.12C445.481 15.1067 445.687 14.22 446.101 13.46C446.527 12.7 447.107 12.1067 447.841 11.68C448.587 11.24 449.434 11.02 450.381 11.02C451.074 11.02 451.694 11.1333 452.241 11.36C452.801 11.5867 453.274 11.9133 453.661 12.34C454.061 12.7667 454.361 13.2867 454.561 13.9C454.774 14.5 454.881 15.18 454.881 15.94C454.881 16.18 454.794 16.3667 454.621 16.5C454.461 16.62 454.227 16.68 453.921 16.68H447.501V15.24H453.121L452.801 15.54C452.801 14.9267 452.707 14.4133 452.521 14C452.347 13.5867 452.087 13.2733 451.741 13.06C451.407 12.8333 450.987 12.72 450.481 12.72C449.921 12.72 449.441 12.8533 449.041 13.12C448.654 13.3733 448.354 13.74 448.141 14.22C447.941 14.6867 447.841 15.2467 447.841 15.9V16.04C447.841 17.1333 448.094 17.9533 448.601 18.5C449.121 19.0333 449.881 19.3 450.881 19.3C451.227 19.3 451.614 19.26 452.041 19.18C452.481 19.0867 452.894 18.9333 453.281 18.72C453.561 18.56 453.807 18.4933 454.021 18.52C454.234 18.5333 454.401 18.6067 454.521 18.74C454.654 18.8733 454.734 19.04 454.761 19.24C454.787 19.4267 454.747 19.62 454.641 19.82C454.547 20.02 454.381 20.1933 454.141 20.34C453.674 20.6333 453.134 20.8533 452.521 21C451.921 21.1333 451.361 21.2 450.841 21.2ZM463.53 21.14C463.13 21.14 462.824 21.02 462.61 20.78C462.397 20.54 462.29 20.2067 462.29 19.78V12.44C462.29 12 462.397 11.6667 462.61 11.44C462.824 11.2 463.13 11.08 463.53 11.08C463.93 11.08 464.237 11.2 464.45 11.44C464.677 11.6667 464.79 12 464.79 12.44V19.78C464.79 20.2067 464.684 20.54 464.47 20.78C464.257 21.02 463.944 21.14 463.53 21.14ZM463.53 9.22C463.064 9.22 462.697 9.10667 462.43 8.88C462.177 8.64 462.05 8.31333 462.05 7.9C462.05 7.47333 462.177 7.14667 462.43 6.92C462.697 6.69333 463.064 6.58 463.53 6.58C464.01 6.58 464.377 6.69333 464.63 6.92C464.884 7.14667 465.01 7.47333 465.01 7.9C465.01 8.31333 464.884 8.64 464.63 8.88C464.377 9.10667 464.01 9.22 463.53 9.22ZM468.628 21.16C468.228 21.16 467.921 21.0533 467.708 20.84C467.495 20.6133 467.388 20.2933 467.388 19.88V12.32C467.388 11.9067 467.495 11.5933 467.708 11.38C467.921 11.1667 468.221 11.06 468.608 11.06C468.995 11.06 469.295 11.1667 469.508 11.38C469.721 11.5933 469.828 11.9067 469.828 12.32V13.68L469.608 13.18C469.901 12.4733 470.355 11.94 470.968 11.58C471.595 11.2067 472.301 11.02 473.088 11.02C473.875 11.02 474.521 11.1667 475.028 11.46C475.535 11.7533 475.915 12.2 476.168 12.8C476.421 13.3867 476.548 14.1333 476.548 15.04V19.88C476.548 20.2933 476.441 20.6133 476.228 20.84C476.015 21.0533 475.708 21.16 475.308 21.16C474.908 21.16 474.595 21.0533 474.368 20.84C474.155 20.6133 474.048 20.2933 474.048 19.88V15.16C474.048 14.4 473.901 13.8467 473.608 13.5C473.328 13.1533 472.888 12.98 472.288 12.98C471.555 12.98 470.968 13.2133 470.528 13.68C470.101 14.1333 469.888 14.74 469.888 15.5V19.88C469.888 20.7333 469.468 21.16 468.628 21.16ZM488.477 21.16C488.143 21.16 487.85 21.0733 487.597 20.9C487.357 20.7267 487.157 20.46 486.997 20.1L483.817 12.72C483.697 12.4267 483.65 12.1533 483.677 11.9C483.717 11.6467 483.837 11.4467 484.037 11.3C484.25 11.14 484.537 11.06 484.897 11.06C485.203 11.06 485.45 11.1333 485.637 11.28C485.823 11.4133 485.99 11.6733 486.137 12.06L488.837 18.8H488.237L491.017 12.04C491.163 11.6667 491.33 11.4133 491.517 11.28C491.717 11.1333 491.983 11.06 492.317 11.06C492.61 11.06 492.843 11.14 493.017 11.3C493.19 11.4467 493.297 11.6467 493.337 11.9C493.377 12.14 493.33 12.4067 493.197 12.7L489.957 20.1C489.81 20.46 489.61 20.7267 489.357 20.9C489.117 21.0733 488.823 21.16 488.477 21.16ZM498.088 21.2C497.382 21.2 496.748 21.0667 496.188 20.8C495.642 20.52 495.208 20.1467 494.888 19.68C494.582 19.2133 494.428 18.6867 494.428 18.1C494.428 17.38 494.615 16.8133 494.988 16.4C495.362 15.9733 495.968 15.6667 496.808 15.48C497.648 15.2933 498.775 15.2 500.188 15.2H501.188V16.64H500.208C499.382 16.64 498.722 16.68 498.228 16.76C497.735 16.84 497.382 16.98 497.168 17.18C496.968 17.3667 496.868 17.6333 496.868 17.98C496.868 18.42 497.022 18.78 497.328 19.06C497.635 19.34 498.062 19.48 498.608 19.48C499.048 19.48 499.435 19.38 499.768 19.18C500.115 18.9667 500.388 18.68 500.588 18.32C500.788 17.96 500.888 17.5467 500.888 17.08V14.78C500.888 14.1133 500.742 13.6333 500.448 13.34C500.155 13.0467 499.662 12.9 498.968 12.9C498.582 12.9 498.162 12.9467 497.708 13.04C497.268 13.1333 496.802 13.2933 496.308 13.52C496.055 13.64 495.828 13.6733 495.628 13.62C495.442 13.5667 495.295 13.46 495.188 13.3C495.082 13.1267 495.028 12.94 495.028 12.74C495.028 12.54 495.082 12.3467 495.188 12.16C495.295 11.96 495.475 11.8133 495.728 11.72C496.342 11.4667 496.928 11.2867 497.488 11.18C498.062 11.0733 498.582 11.02 499.048 11.02C500.008 11.02 500.795 11.1667 501.408 11.46C502.035 11.7533 502.502 12.2 502.808 12.8C503.115 13.3867 503.268 14.1467 503.268 15.08V19.88C503.268 20.2933 503.168 20.6133 502.968 20.84C502.768 21.0533 502.482 21.16 502.108 21.16C501.735 21.16 501.442 21.0533 501.228 20.84C501.028 20.6133 500.928 20.2933 500.928 19.88V18.92H501.088C500.995 19.3867 500.808 19.7933 500.528 20.14C500.262 20.4733 499.922 20.7333 499.508 20.92C499.095 21.1067 498.622 21.2 498.088 21.2ZM509.146 21.2C508.039 21.2 507.206 20.8867 506.646 20.26C506.086 19.62 505.806 18.6867 505.806 17.46V8C505.806 7.58667 505.913 7.27333 506.126 7.06C506.339 6.84667 506.646 6.74 507.046 6.74C507.446 6.74 507.753 6.84667 507.966 7.06C508.193 7.27333 508.306 7.58667 508.306 8V17.34C508.306 17.9533 508.433 18.4067 508.686 18.7C508.953 18.9933 509.326 19.14 509.806 19.14C509.913 19.14 510.013 19.14 510.106 19.14C510.199 19.1267 510.293 19.1133 510.386 19.1C510.573 19.0733 510.699 19.1267 510.766 19.26C510.833 19.38 510.866 19.6333 510.866 20.02C510.866 20.3533 510.799 20.6133 510.666 20.8C510.533 20.9867 510.313 21.1 510.006 21.14C509.873 21.1533 509.733 21.1667 509.586 21.18C509.439 21.1933 509.293 21.2 509.146 21.2ZM515.733 21.2C514.919 21.2 514.246 21.0533 513.713 20.76C513.179 20.4533 512.779 20 512.513 19.4C512.259 18.8 512.133 18.0533 512.133 17.16V12.32C512.133 11.8933 512.239 11.58 512.453 11.38C512.666 11.1667 512.973 11.06 513.373 11.06C513.773 11.06 514.079 11.1667 514.293 11.38C514.519 11.58 514.633 11.8933 514.633 12.32V17.2C514.633 17.8933 514.773 18.4067 515.053 18.74C515.333 19.0733 515.779 19.24 516.393 19.24C517.059 19.24 517.606 19.0133 518.033 18.56C518.459 18.0933 518.673 17.48 518.673 16.72V12.32C518.673 11.8933 518.779 11.58 518.993 11.38C519.206 11.1667 519.513 11.06 519.913 11.06C520.313 11.06 520.619 11.1667 520.833 11.38C521.059 11.58 521.173 11.8933 521.173 12.32V19.88C521.173 20.7333 520.766 21.16 519.953 21.16C519.566 21.16 519.266 21.0533 519.053 20.84C518.839 20.6133 518.733 20.2933 518.733 19.88V18.36L519.013 18.96C518.733 19.68 518.306 20.2333 517.733 20.62C517.173 21.0067 516.506 21.2 515.733 21.2ZM528.595 21.2C527.488 21.2 526.535 20.9933 525.735 20.58C524.935 20.1667 524.315 19.58 523.875 18.82C523.448 18.06 523.235 17.16 523.235 16.12C523.235 15.1067 523.441 14.22 523.855 13.46C524.281 12.7 524.861 12.1067 525.595 11.68C526.341 11.24 527.188 11.02 528.135 11.02C528.828 11.02 529.448 11.1333 529.995 11.36C530.555 11.5867 531.028 11.9133 531.415 12.34C531.815 12.7667 532.115 13.2867 532.315 13.9C532.528 14.5 532.635 15.18 532.635 15.94C532.635 16.18 532.548 16.3667 532.375 16.5C532.215 16.62 531.981 16.68 531.675 16.68H525.255V15.24H530.875L530.555 15.54C530.555 14.9267 530.461 14.4133 530.275 14C530.101 13.5867 529.841 13.2733 529.495 13.06C529.161 12.8333 528.741 12.72 528.235 12.72C527.675 12.72 527.195 12.8533 526.795 13.12C526.408 13.3733 526.108 13.74 525.895 14.22C525.695 14.6867 525.595 15.2467 525.595 15.9V16.04C525.595 17.1333 525.848 17.9533 526.355 18.5C526.875 19.0333 527.635 19.3 528.635 19.3C528.981 19.3 529.368 19.26 529.795 19.18C530.235 19.0867 530.648 18.9333 531.035 18.72C531.315 18.56 531.561 18.4933 531.775 18.52C531.988 18.5333 532.155 18.6067 532.275 18.74C532.408 18.8733 532.488 19.04 532.515 19.24C532.541 19.4267 532.501 19.62 532.395 19.82C532.301 20.02 532.135 20.1933 531.895 20.34C531.428 20.6333 530.888 20.8533 530.275 21C529.675 21.1333 529.115 21.2 528.595 21.2ZM544.504 21.2C543.491 21.2 542.611 20.9933 541.864 20.58C541.117 20.1667 540.537 19.58 540.124 18.82C539.711 18.0467 539.504 17.14 539.504 16.1C539.504 15.3133 539.617 14.6133 539.844 14C540.084 13.3733 540.424 12.84 540.864 12.4C541.304 11.9467 541.831 11.6067 542.444 11.38C543.057 11.14 543.744 11.02 544.504 11.02C545.517 11.02 546.397 11.2267 547.144 11.64C547.891 12.0533 548.471 12.64 548.884 13.4C549.297 14.16 549.504 15.06 549.504 16.1C549.504 16.8867 549.384 17.5933 549.144 18.22C548.917 18.8467 548.584 19.3867 548.144 19.84C547.704 20.28 547.177 20.62 546.564 20.86C545.951 21.0867 545.264 21.2 544.504 21.2ZM544.504 19.3C544.997 19.3 545.431 19.18 545.804 18.94C546.177 18.7 546.464 18.3467 546.664 17.88C546.877 17.4 546.984 16.8067 546.984 16.1C546.984 15.0333 546.757 14.24 546.304 13.72C545.851 13.1867 545.251 12.92 544.504 12.92C544.011 12.92 543.577 13.04 543.204 13.28C542.831 13.5067 542.537 13.86 542.324 14.34C542.124 14.8067 542.024 15.3933 542.024 16.1C542.024 17.1533 542.251 17.9533 542.704 18.5C543.157 19.0333 543.757 19.3 544.504 19.3ZM553.39 21.16C552.99 21.16 552.677 21.0533 552.45 20.84C552.237 20.6133 552.13 20.2933 552.13 19.88V13.1H551.21C550.89 13.1 550.643 13.02 550.47 12.86C550.297 12.6867 550.21 12.4533 550.21 12.16C550.21 11.8533 550.297 11.62 550.47 11.46C550.643 11.3 550.89 11.22 551.21 11.22H552.85L552.13 11.88V11.2C552.13 9.82667 552.477 8.8 553.17 8.12C553.863 7.42667 554.863 7.02 556.17 6.9L556.85 6.84C557.117 6.81333 557.33 6.86 557.49 6.98C557.65 7.08667 557.757 7.23333 557.81 7.42C557.863 7.59333 557.87 7.77333 557.83 7.96C557.79 8.14667 557.703 8.31333 557.57 8.46C557.45 8.59333 557.29 8.66667 557.09 8.68L556.81 8.7C556.05 8.75333 555.497 8.94667 555.15 9.28C554.803 9.61333 554.63 10.12 554.63 10.8V11.54L554.31 11.22H556.33C556.65 11.22 556.897 11.3 557.07 11.46C557.243 11.62 557.33 11.8533 557.33 12.16C557.33 12.4533 557.243 12.6867 557.07 12.86C556.897 13.02 556.65 13.1 556.33 13.1H554.63V19.88C554.63 20.7333 554.217 21.16 553.39 21.16Z" fill="#444444"/>
<rect x="561.5" width="19" height="28" rx="5" fill="#E7FBFF"/>
<path d="M566.625 19C566.625 18.9089 566.632 18.8242 566.645 18.7461C566.671 18.6159 566.781 18.5378 566.977 18.5117C567.354 18.4596 567.68 18.2643 567.953 17.9258L570.199 15.0352L567.562 11.1484H566.645V10.6602H570.805V11.1484H569.594L571.488 13.9609L573.559 11.1484H572.23V10.6602H575.141C575.141 10.7513 575.134 10.8359 575.121 10.9141C575.082 11.0443 574.965 11.1159 574.77 11.1289C574.366 11.181 574.034 11.3828 573.773 11.7344L571.801 14.4297L574.555 18.5117H574.945C575.01 18.5117 575.076 18.5182 575.141 18.5312C575.336 18.5573 575.434 18.7135 575.434 19H571.43V18.5117H572.582L570.531 15.4844L568.188 18.5117H569.613V19H566.625Z" fill="#1CB9D9"/>
<path d="M587.02 21.1C586.566 21.1 586.2 20.96 585.92 20.68C585.653 20.4 585.52 20.04 585.52 19.6C585.52 19.1733 585.653 18.8267 585.92 18.56C586.2 18.28 586.566 18.14 587.02 18.14C587.486 18.14 587.846 18.28 588.1 18.56C588.366 18.8267 588.5 19.1733 588.5 19.6C588.5 20.04 588.366 20.4 588.1 20.68C587.846 20.96 587.486 21.1 587.02 21.1Z" fill="#444444"/>
<path d="M216.83 53.16C216.416 53.16 216.096 53.0467 215.87 52.82C215.656 52.58 215.55 52.2533 215.55 51.84V40.06C215.55 39.6333 215.656 39.3067 215.87 39.08C216.096 38.8533 216.416 38.74 216.83 38.74C217.243 38.74 217.556 38.8533 217.77 39.08C217.996 39.3067 218.11 39.6333 218.11 40.06V51.84C218.11 52.2533 218.003 52.58 217.79 52.82C217.576 53.0467 217.256 53.16 216.83 53.16ZM225.434 53.2C224.568 53.2 223.841 53.0533 223.254 52.76C222.681 52.4667 222.254 52.04 221.974 51.48C221.694 50.9067 221.554 50.2 221.554 49.36V45.1H220.514C220.194 45.1 219.948 45.02 219.774 44.86C219.601 44.6867 219.514 44.4533 219.514 44.16C219.514 43.8533 219.601 43.62 219.774 43.46C219.948 43.3 220.194 43.22 220.514 43.22H221.554V41.4C221.554 40.9867 221.661 40.6733 221.874 40.46C222.101 40.2467 222.414 40.14 222.814 40.14C223.214 40.14 223.521 40.2467 223.734 40.46C223.948 40.6733 224.054 40.9867 224.054 41.4V43.22H226.174C226.494 43.22 226.741 43.3 226.914 43.46C227.088 43.62 227.174 43.8533 227.174 44.16C227.174 44.4533 227.088 44.6867 226.914 44.86C226.741 45.02 226.494 45.1 226.174 45.1H224.054V49.22C224.054 49.86 224.194 50.34 224.474 50.66C224.754 50.98 225.208 51.14 225.834 51.14C226.061 51.14 226.261 51.12 226.434 51.08C226.608 51.04 226.761 51.0133 226.894 51C227.054 50.9867 227.188 51.04 227.294 51.16C227.401 51.2667 227.454 51.4933 227.454 51.84C227.454 52.1067 227.408 52.3467 227.314 52.56C227.234 52.76 227.081 52.9 226.854 52.98C226.681 53.0333 226.454 53.08 226.174 53.12C225.894 53.1733 225.648 53.2 225.434 53.2ZM235.3 53.14C234.9 53.14 234.593 53.02 234.38 52.78C234.166 52.54 234.06 52.2067 234.06 51.78V44.44C234.06 44 234.166 43.6667 234.38 43.44C234.593 43.2 234.9 43.08 235.3 43.08C235.7 43.08 236.006 43.2 236.22 43.44C236.446 43.6667 236.56 44 236.56 44.44V51.78C236.56 52.2067 236.453 52.54 236.24 52.78C236.026 53.02 235.713 53.14 235.3 53.14ZM235.3 41.22C234.833 41.22 234.466 41.1067 234.2 40.88C233.946 40.64 233.82 40.3133 233.82 39.9C233.82 39.4733 233.946 39.1467 234.2 38.92C234.466 38.6933 234.833 38.58 235.3 38.58C235.78 38.58 236.146 38.6933 236.4 38.92C236.653 39.1467 236.78 39.4733 236.78 39.9C236.78 40.3133 236.653 40.64 236.4 40.88C236.146 41.1067 235.78 41.22 235.3 41.22ZM242.737 53.2C242.164 53.2 241.557 53.14 240.917 53.02C240.277 52.9 239.704 52.6933 239.197 52.4C238.984 52.2667 238.831 52.1133 238.737 51.94C238.657 51.7533 238.624 51.5733 238.637 51.4C238.664 51.2133 238.731 51.0533 238.837 50.92C238.957 50.7867 239.104 50.7 239.277 50.66C239.464 50.62 239.664 50.6533 239.877 50.76C240.411 51.0133 240.911 51.1933 241.377 51.3C241.844 51.3933 242.304 51.44 242.757 51.44C243.397 51.44 243.871 51.3333 244.177 51.12C244.497 50.8933 244.657 50.6 244.657 50.24C244.657 49.9333 244.551 49.7 244.337 49.54C244.137 49.3667 243.831 49.24 243.417 49.16L241.417 48.78C240.591 48.62 239.957 48.32 239.517 47.88C239.091 47.4267 238.877 46.8467 238.877 46.14C238.877 45.5 239.051 44.9467 239.397 44.48C239.757 44.0133 240.251 43.6533 240.877 43.4C241.504 43.1467 242.224 43.02 243.037 43.02C243.624 43.02 244.171 43.0867 244.677 43.22C245.197 43.34 245.697 43.5333 246.177 43.8C246.377 43.9067 246.511 44.0467 246.577 44.22C246.657 44.3933 246.677 44.5733 246.637 44.76C246.597 44.9333 246.517 45.0933 246.397 45.24C246.277 45.3733 246.124 45.46 245.937 45.5C245.764 45.5267 245.564 45.4867 245.337 45.38C244.924 45.1667 244.524 45.0133 244.137 44.92C243.764 44.8267 243.404 44.78 243.057 44.78C242.404 44.78 241.917 44.8933 241.597 45.12C241.291 45.3467 241.137 45.6467 241.137 46.02C241.137 46.3 241.231 46.5333 241.417 46.72C241.604 46.9067 241.891 47.0333 242.277 47.1L244.277 47.48C245.144 47.64 245.797 47.9333 246.237 48.36C246.691 48.7867 246.917 49.36 246.917 50.08C246.917 51.0533 246.537 51.82 245.777 52.38C245.017 52.9267 244.004 53.2 242.737 53.2ZM257.573 53.2C256.866 53.2 256.233 53.0667 255.673 52.8C255.126 52.52 254.693 52.1467 254.373 51.68C254.066 51.2133 253.913 50.6867 253.913 50.1C253.913 49.38 254.099 48.8133 254.473 48.4C254.846 47.9733 255.453 47.6667 256.293 47.48C257.133 47.2933 258.259 47.2 259.673 47.2H260.673V48.64H259.693C258.866 48.64 258.206 48.68 257.713 48.76C257.219 48.84 256.866 48.98 256.653 49.18C256.453 49.3667 256.353 49.6333 256.353 49.98C256.353 50.42 256.506 50.78 256.813 51.06C257.119 51.34 257.546 51.48 258.093 51.48C258.533 51.48 258.919 51.38 259.253 51.18C259.599 50.9667 259.873 50.68 260.073 50.32C260.273 49.96 260.373 49.5467 260.373 49.08V46.78C260.373 46.1133 260.226 45.6333 259.933 45.34C259.639 45.0467 259.146 44.9 258.453 44.9C258.066 44.9 257.646 44.9467 257.193 45.04C256.753 45.1333 256.286 45.2933 255.793 45.52C255.539 45.64 255.313 45.6733 255.113 45.62C254.926 45.5667 254.779 45.46 254.673 45.3C254.566 45.1267 254.513 44.94 254.513 44.74C254.513 44.54 254.566 44.3467 254.673 44.16C254.779 43.96 254.959 43.8133 255.213 43.72C255.826 43.4667 256.413 43.2867 256.973 43.18C257.546 43.0733 258.066 43.02 258.533 43.02C259.493 43.02 260.279 43.1667 260.893 43.46C261.519 43.7533 261.986 44.2 262.293 44.8C262.599 45.3867 262.753 46.1467 262.753 47.08V51.88C262.753 52.2933 262.653 52.6133 262.453 52.84C262.253 53.0533 261.966 53.16 261.593 53.16C261.219 53.16 260.926 53.0533 260.713 52.84C260.513 52.6133 260.413 52.2933 260.413 51.88V50.92H260.573C260.479 51.3867 260.293 51.7933 260.013 52.14C259.746 52.4733 259.406 52.7333 258.993 52.92C258.579 53.1067 258.106 53.2 257.573 53.2Z" fill="#444444"/>
<rect x="268" y="32" width="198" height="28" rx="5" fill="#444444"/>
<path d="M278.544 53.2C277.691 53.2 276.938 52.9933 276.284 52.58C275.644 52.1667 275.144 51.58 274.784 50.82C274.424 50.0467 274.244 49.14 274.244 48.1C274.244 47.0467 274.424 46.1467 274.784 45.4C275.144 44.64 275.644 44.0533 276.284 43.64C276.938 43.2267 277.691 43.02 278.544 43.02C279.358 43.02 280.064 43.22 280.664 43.62C281.278 44.02 281.691 44.5467 281.904 45.2H281.684V40C281.684 39.5867 281.791 39.2733 282.004 39.06C282.218 38.8467 282.524 38.74 282.924 38.74C283.324 38.74 283.631 38.8467 283.844 39.06C284.071 39.2733 284.184 39.5867 284.184 40V51.88C284.184 52.2933 284.078 52.6133 283.864 52.84C283.651 53.0533 283.344 53.16 282.944 53.16C282.544 53.16 282.238 53.0533 282.024 52.84C281.811 52.6133 281.704 52.2933 281.704 51.88V50.32L281.924 50.92C281.724 51.6133 281.318 52.1667 280.704 52.58C280.091 52.9933 279.371 53.2 278.544 53.2ZM279.244 51.3C279.738 51.3 280.171 51.18 280.544 50.94C280.918 50.7 281.204 50.3467 281.404 49.88C281.618 49.4 281.724 48.8067 281.724 48.1C281.724 47.0333 281.498 46.24 281.044 45.72C280.591 45.1867 279.991 44.92 279.244 44.92C278.751 44.92 278.318 45.04 277.944 45.28C277.571 45.5067 277.278 45.86 277.064 46.34C276.864 46.8067 276.764 47.3933 276.764 48.1C276.764 49.1533 276.991 49.9533 277.444 50.5C277.898 51.0333 278.498 51.3 279.244 51.3ZM291.597 53.2C290.49 53.2 289.537 52.9933 288.737 52.58C287.937 52.1667 287.317 51.58 286.877 50.82C286.45 50.06 286.237 49.16 286.237 48.12C286.237 47.1067 286.443 46.22 286.857 45.46C287.283 44.7 287.863 44.1067 288.597 43.68C289.343 43.24 290.19 43.02 291.137 43.02C291.83 43.02 292.45 43.1333 292.997 43.36C293.557 43.5867 294.03 43.9133 294.417 44.34C294.817 44.7667 295.117 45.2867 295.317 45.9C295.53 46.5 295.637 47.18 295.637 47.94C295.637 48.18 295.55 48.3667 295.377 48.5C295.217 48.62 294.983 48.68 294.677 48.68H288.257V47.24H293.877L293.557 47.54C293.557 46.9267 293.463 46.4133 293.277 46C293.103 45.5867 292.843 45.2733 292.497 45.06C292.163 44.8333 291.743 44.72 291.237 44.72C290.677 44.72 290.197 44.8533 289.797 45.12C289.41 45.3733 289.11 45.74 288.897 46.22C288.697 46.6867 288.597 47.2467 288.597 47.9V48.04C288.597 49.1333 288.85 49.9533 289.357 50.5C289.877 51.0333 290.637 51.3 291.637 51.3C291.983 51.3 292.37 51.26 292.797 51.18C293.237 51.0867 293.65 50.9333 294.037 50.72C294.317 50.56 294.563 50.4933 294.777 50.52C294.99 50.5333 295.157 50.6067 295.277 50.74C295.41 50.8733 295.49 51.04 295.517 51.24C295.543 51.4267 295.503 51.62 295.397 51.82C295.303 52.02 295.137 52.1933 294.897 52.34C294.43 52.6333 293.89 52.8533 293.277 53C292.677 53.1333 292.117 53.2 291.597 53.2ZM302.136 53.2C301.11 53.2 300.216 52.9933 299.456 52.58C298.696 52.1533 298.11 51.5533 297.696 50.78C297.283 50.0067 297.076 49.1 297.076 48.06C297.076 47.2733 297.19 46.5733 297.416 45.96C297.656 45.3333 297.996 44.8067 298.436 44.38C298.876 43.94 299.41 43.6067 300.036 43.38C300.663 43.14 301.363 43.02 302.136 43.02C302.576 43.02 303.05 43.08 303.556 43.2C304.076 43.32 304.563 43.52 305.016 43.8C305.23 43.9333 305.37 44.0933 305.436 44.28C305.503 44.4667 305.516 44.66 305.476 44.86C305.436 45.0467 305.35 45.2133 305.216 45.36C305.096 45.4933 304.943 45.58 304.756 45.62C304.57 45.6467 304.363 45.6 304.136 45.48C303.843 45.3067 303.543 45.18 303.236 45.1C302.93 45.0067 302.636 44.96 302.356 44.96C301.916 44.96 301.53 45.0333 301.196 45.18C300.863 45.3133 300.576 45.5133 300.336 45.78C300.11 46.0333 299.936 46.3533 299.816 46.74C299.696 47.1267 299.636 47.5733 299.636 48.08C299.636 49.0667 299.87 49.8467 300.336 50.42C300.816 50.98 301.49 51.26 302.356 51.26C302.636 51.26 302.923 51.22 303.216 51.14C303.523 51.06 303.83 50.9333 304.136 50.76C304.363 50.64 304.563 50.6 304.736 50.64C304.923 50.68 305.076 50.7733 305.196 50.92C305.316 51.0533 305.39 51.22 305.416 51.42C305.443 51.6067 305.416 51.7933 305.336 51.98C305.27 52.1667 305.136 52.32 304.936 52.44C304.496 52.7067 304.03 52.9 303.536 53.02C303.043 53.14 302.576 53.2 302.136 53.2ZM308.33 53.16C307.917 53.16 307.597 53.0533 307.37 52.84C307.157 52.6133 307.05 52.2933 307.05 51.88V44.32C307.05 43.9067 307.157 43.5933 307.37 43.38C307.583 43.1667 307.883 43.06 308.27 43.06C308.657 43.06 308.957 43.1667 309.17 43.38C309.383 43.5933 309.49 43.9067 309.49 44.32V45.58H309.29C309.477 44.78 309.843 44.1733 310.39 43.76C310.937 43.3467 311.663 43.1 312.57 43.02C312.85 42.9933 313.07 43.0667 313.23 43.24C313.403 43.4 313.503 43.6533 313.53 44C313.557 44.3333 313.477 44.6067 313.29 44.82C313.117 45.02 312.85 45.14 312.49 45.18L312.05 45.22C311.237 45.3 310.623 45.5533 310.21 45.98C309.797 46.3933 309.59 46.98 309.59 47.74V51.88C309.59 52.2933 309.483 52.6133 309.27 52.84C309.057 53.0533 308.743 53.16 308.33 53.16ZM319.546 53.2C318.439 53.2 317.486 52.9933 316.686 52.58C315.886 52.1667 315.266 51.58 314.826 50.82C314.399 50.06 314.186 49.16 314.186 48.12C314.186 47.1067 314.392 46.22 314.806 45.46C315.232 44.7 315.812 44.1067 316.546 43.68C317.292 43.24 318.139 43.02 319.086 43.02C319.779 43.02 320.399 43.1333 320.946 43.36C321.506 43.5867 321.979 43.9133 322.366 44.34C322.766 44.7667 323.066 45.2867 323.266 45.9C323.479 46.5 323.586 47.18 323.586 47.94C323.586 48.18 323.499 48.3667 323.326 48.5C323.166 48.62 322.932 48.68 322.626 48.68H316.206V47.24H321.826L321.506 47.54C321.506 46.9267 321.412 46.4133 321.226 46C321.052 45.5867 320.792 45.2733 320.446 45.06C320.112 44.8333 319.692 44.72 319.186 44.72C318.626 44.72 318.146 44.8533 317.746 45.12C317.359 45.3733 317.059 45.74 316.846 46.22C316.646 46.6867 316.546 47.2467 316.546 47.9V48.04C316.546 49.1333 316.799 49.9533 317.306 50.5C317.826 51.0333 318.586 51.3 319.586 51.3C319.932 51.3 320.319 51.26 320.746 51.18C321.186 51.0867 321.599 50.9333 321.986 50.72C322.266 50.56 322.512 50.4933 322.726 50.52C322.939 50.5333 323.106 50.6067 323.226 50.74C323.359 50.8733 323.439 51.04 323.466 51.24C323.492 51.4267 323.452 51.62 323.346 51.82C323.252 52.02 323.086 52.1933 322.846 52.34C322.379 52.6333 321.839 52.8533 321.226 53C320.626 53.1333 320.066 53.2 319.546 53.2ZM328.786 53.2C328.079 53.2 327.446 53.0667 326.886 52.8C326.339 52.52 325.906 52.1467 325.586 51.68C325.279 51.2133 325.126 50.6867 325.126 50.1C325.126 49.38 325.312 48.8133 325.686 48.4C326.059 47.9733 326.666 47.6667 327.506 47.48C328.346 47.2933 329.472 47.2 330.886 47.2H331.886V48.64H330.906C330.079 48.64 329.419 48.68 328.926 48.76C328.432 48.84 328.079 48.98 327.866 49.18C327.666 49.3667 327.566 49.6333 327.566 49.98C327.566 50.42 327.719 50.78 328.026 51.06C328.332 51.34 328.759 51.48 329.306 51.48C329.746 51.48 330.132 51.38 330.466 51.18C330.812 50.9667 331.086 50.68 331.286 50.32C331.486 49.96 331.586 49.5467 331.586 49.08V46.78C331.586 46.1133 331.439 45.6333 331.146 45.34C330.852 45.0467 330.359 44.9 329.666 44.9C329.279 44.9 328.859 44.9467 328.406 45.04C327.966 45.1333 327.499 45.2933 327.006 45.52C326.752 45.64 326.526 45.6733 326.326 45.62C326.139 45.5667 325.992 45.46 325.886 45.3C325.779 45.1267 325.726 44.94 325.726 44.74C325.726 44.54 325.779 44.3467 325.886 44.16C325.992 43.96 326.172 43.8133 326.426 43.72C327.039 43.4667 327.626 43.2867 328.186 43.18C328.759 43.0733 329.279 43.02 329.746 43.02C330.706 43.02 331.492 43.1667 332.106 43.46C332.732 43.7533 333.199 44.2 333.506 44.8C333.812 45.3867 333.966 46.1467 333.966 47.08V51.88C333.966 52.2933 333.866 52.6133 333.666 52.84C333.466 53.0533 333.179 53.16 332.806 53.16C332.432 53.16 332.139 53.0533 331.926 52.84C331.726 52.6133 331.626 52.2933 331.626 51.88V50.92H331.786C331.692 51.3867 331.506 51.7933 331.226 52.14C330.959 52.4733 330.619 52.7333 330.206 52.92C329.792 53.1067 329.319 53.2 328.786 53.2ZM340.083 53.2C339.51 53.2 338.903 53.14 338.263 53.02C337.623 52.9 337.05 52.6933 336.543 52.4C336.33 52.2667 336.176 52.1133 336.083 51.94C336.003 51.7533 335.97 51.5733 335.983 51.4C336.01 51.2133 336.076 51.0533 336.183 50.92C336.303 50.7867 336.45 50.7 336.623 50.66C336.81 50.62 337.01 50.6533 337.223 50.76C337.756 51.0133 338.256 51.1933 338.723 51.3C339.19 51.3933 339.65 51.44 340.103 51.44C340.743 51.44 341.216 51.3333 341.523 51.12C341.843 50.8933 342.003 50.6 342.003 50.24C342.003 49.9333 341.896 49.7 341.683 49.54C341.483 49.3667 341.176 49.24 340.763 49.16L338.763 48.78C337.936 48.62 337.303 48.32 336.863 47.88C336.436 47.4267 336.223 46.8467 336.223 46.14C336.223 45.5 336.396 44.9467 336.743 44.48C337.103 44.0133 337.596 43.6533 338.223 43.4C338.85 43.1467 339.57 43.02 340.383 43.02C340.97 43.02 341.516 43.0867 342.023 43.22C342.543 43.34 343.043 43.5333 343.523 43.8C343.723 43.9067 343.856 44.0467 343.923 44.22C344.003 44.3933 344.023 44.5733 343.983 44.76C343.943 44.9333 343.863 45.0933 343.743 45.24C343.623 45.3733 343.47 45.46 343.283 45.5C343.11 45.5267 342.91 45.4867 342.683 45.38C342.27 45.1667 341.87 45.0133 341.483 44.92C341.11 44.8267 340.75 44.78 340.403 44.78C339.75 44.78 339.263 44.8933 338.943 45.12C338.636 45.3467 338.483 45.6467 338.483 46.02C338.483 46.3 338.576 46.5333 338.763 46.72C338.95 46.9067 339.236 47.0333 339.623 47.1L341.623 47.48C342.49 47.64 343.143 47.9333 343.583 48.36C344.036 48.7867 344.263 49.36 344.263 50.08C344.263 51.0533 343.883 51.82 343.123 52.38C342.363 52.9267 341.35 53.2 340.083 53.2ZM347.509 53.14C347.109 53.14 346.802 53.02 346.589 52.78C346.375 52.54 346.269 52.2067 346.269 51.78V44.44C346.269 44 346.375 43.6667 346.589 43.44C346.802 43.2 347.109 43.08 347.509 43.08C347.909 43.08 348.215 43.2 348.429 43.44C348.655 43.6667 348.769 44 348.769 44.44V51.78C348.769 52.2067 348.662 52.54 348.449 52.78C348.235 53.02 347.922 53.14 347.509 53.14ZM347.509 41.22C347.042 41.22 346.675 41.1067 346.409 40.88C346.155 40.64 346.029 40.3133 346.029 39.9C346.029 39.4733 346.155 39.1467 346.409 38.92C346.675 38.6933 347.042 38.58 347.509 38.58C347.989 38.58 348.355 38.6933 348.609 38.92C348.862 39.1467 348.989 39.4733 348.989 39.9C348.989 40.3133 348.862 40.64 348.609 40.88C348.355 41.1067 347.989 41.22 347.509 41.22ZM352.606 53.16C352.206 53.16 351.9 53.0533 351.686 52.84C351.473 52.6133 351.366 52.2933 351.366 51.88V44.32C351.366 43.9067 351.473 43.5933 351.686 43.38C351.9 43.1667 352.2 43.06 352.586 43.06C352.973 43.06 353.273 43.1667 353.486 43.38C353.7 43.5933 353.806 43.9067 353.806 44.32V45.68L353.586 45.18C353.88 44.4733 354.333 43.94 354.946 43.58C355.573 43.2067 356.28 43.02 357.066 43.02C357.853 43.02 358.5 43.1667 359.006 43.46C359.513 43.7533 359.893 44.2 360.146 44.8C360.4 45.3867 360.526 46.1333 360.526 47.04V51.88C360.526 52.2933 360.42 52.6133 360.206 52.84C359.993 53.0533 359.686 53.16 359.286 53.16C358.886 53.16 358.573 53.0533 358.346 52.84C358.133 52.6133 358.026 52.2933 358.026 51.88V47.16C358.026 46.4 357.88 45.8467 357.586 45.5C357.306 45.1533 356.866 44.98 356.266 44.98C355.533 44.98 354.946 45.2133 354.506 45.68C354.08 46.1333 353.866 46.74 353.866 47.5V51.88C353.866 52.7333 353.446 53.16 352.606 53.16ZM367.626 56.8C366.906 56.8 366.206 56.7333 365.526 56.6C364.859 56.4667 364.252 56.26 363.706 55.98C363.452 55.8467 363.279 55.6867 363.186 55.5C363.106 55.3133 363.079 55.12 363.106 54.92C363.146 54.7333 363.226 54.5667 363.346 54.42C363.479 54.2733 363.639 54.1733 363.826 54.12C364.012 54.0667 364.206 54.0933 364.406 54.2C364.992 54.4933 365.546 54.68 366.066 54.76C366.599 54.8533 367.052 54.9 367.426 54.9C368.319 54.9 368.986 54.68 369.426 54.24C369.879 53.8133 370.106 53.1733 370.106 52.32V50.52H370.286C370.086 51.2 369.666 51.7467 369.026 52.16C368.399 52.56 367.686 52.76 366.886 52.76C366.006 52.76 365.239 52.56 364.586 52.16C363.932 51.7467 363.426 51.1733 363.066 50.44C362.706 49.7067 362.526 48.8533 362.526 47.88C362.526 47.1467 362.626 46.4867 362.826 45.9C363.039 45.3 363.332 44.7867 363.706 44.36C364.092 43.9333 364.552 43.6067 365.086 43.38C365.632 43.14 366.232 43.02 366.886 43.02C367.712 43.02 368.432 43.2267 369.046 43.64C369.672 44.04 370.079 44.5733 370.266 45.24L370.066 45.74V44.32C370.066 43.9067 370.172 43.5933 370.386 43.38C370.612 43.1667 370.919 43.06 371.306 43.06C371.706 43.06 372.012 43.1667 372.226 43.38C372.439 43.5933 372.546 43.9067 372.546 44.32V52.02C372.546 53.6067 372.126 54.8 371.286 55.6C370.446 56.4 369.226 56.8 367.626 56.8ZM367.566 50.86C368.086 50.86 368.532 50.74 368.906 50.5C369.279 50.26 369.566 49.92 369.766 49.48C369.979 49.0267 370.086 48.4933 370.086 47.88C370.086 46.96 369.859 46.24 369.406 45.72C368.952 45.1867 368.339 44.92 367.566 44.92C367.046 44.92 366.599 45.04 366.226 45.28C365.852 45.52 365.559 45.86 365.346 46.3C365.146 46.74 365.046 47.2667 365.046 47.88C365.046 48.8 365.272 49.5267 365.726 50.06C366.179 50.5933 366.792 50.86 367.566 50.86ZM382.486 53.16C382.086 53.16 381.772 53.0533 381.546 52.84C381.332 52.6133 381.226 52.2933 381.226 51.88V45.1H380.306C379.986 45.1 379.739 45.02 379.566 44.86C379.392 44.6867 379.306 44.4533 379.306 44.16C379.306 43.8533 379.392 43.62 379.566 43.46C379.739 43.3 379.986 43.22 380.306 43.22H381.946L381.226 43.88V43.2C381.226 41.8267 381.572 40.8 382.266 40.12C382.959 39.4267 383.959 39.02 385.266 38.9L385.946 38.84C386.212 38.8133 386.426 38.86 386.586 38.98C386.746 39.0867 386.852 39.2333 386.906 39.42C386.959 39.5933 386.966 39.7733 386.926 39.96C386.886 40.1467 386.799 40.3133 386.666 40.46C386.546 40.5933 386.386 40.6667 386.186 40.68L385.906 40.7C385.146 40.7533 384.592 40.9467 384.246 41.28C383.899 41.6133 383.726 42.12 383.726 42.8V43.54L383.406 43.22H385.426C385.746 43.22 385.992 43.3 386.166 43.46C386.339 43.62 386.426 43.8533 386.426 44.16C386.426 44.4533 386.339 44.6867 386.166 44.86C385.992 45.02 385.746 45.1 385.426 45.1H383.726V51.88C383.726 52.7333 383.312 53.16 382.486 53.16ZM391.391 53.2C390.577 53.2 389.904 53.0533 389.371 52.76C388.837 52.4533 388.437 52 388.171 51.4C387.917 50.8 387.791 50.0533 387.791 49.16V44.32C387.791 43.8933 387.897 43.58 388.111 43.38C388.324 43.1667 388.631 43.06 389.031 43.06C389.431 43.06 389.737 43.1667 389.951 43.38C390.177 43.58 390.291 43.8933 390.291 44.32V49.2C390.291 49.8933 390.431 50.4067 390.711 50.74C390.991 51.0733 391.437 51.24 392.051 51.24C392.717 51.24 393.264 51.0133 393.691 50.56C394.117 50.0933 394.331 49.48 394.331 48.72V44.32C394.331 43.8933 394.437 43.58 394.651 43.38C394.864 43.1667 395.171 43.06 395.571 43.06C395.971 43.06 396.277 43.1667 396.491 43.38C396.717 43.58 396.831 43.8933 396.831 44.32V51.88C396.831 52.7333 396.424 53.16 395.611 53.16C395.224 53.16 394.924 53.0533 394.711 52.84C394.497 52.6133 394.391 52.2933 394.391 51.88V50.36L394.671 50.96C394.391 51.68 393.964 52.2333 393.391 52.62C392.831 53.0067 392.164 53.2 391.391 53.2ZM400.673 53.16C400.273 53.16 399.966 53.0533 399.753 52.84C399.539 52.6133 399.433 52.2933 399.433 51.88V44.32C399.433 43.9067 399.539 43.5933 399.753 43.38C399.966 43.1667 400.266 43.06 400.653 43.06C401.039 43.06 401.339 43.1667 401.553 43.38C401.766 43.5933 401.873 43.9067 401.873 44.32V45.68L401.653 45.18C401.946 44.4733 402.399 43.94 403.013 43.58C403.639 43.2067 404.346 43.02 405.133 43.02C405.919 43.02 406.566 43.1667 407.073 43.46C407.579 43.7533 407.959 44.2 408.213 44.8C408.466 45.3867 408.593 46.1333 408.593 47.04V51.88C408.593 52.2933 408.486 52.6133 408.273 52.84C408.059 53.0533 407.753 53.16 407.353 53.16C406.953 53.16 406.639 53.0533 406.413 52.84C406.199 52.6133 406.093 52.2933 406.093 51.88V47.16C406.093 46.4 405.946 45.8467 405.653 45.5C405.373 45.1533 404.933 44.98 404.333 44.98C403.599 44.98 403.013 45.2133 402.573 45.68C402.146 46.1333 401.933 46.74 401.933 47.5V51.88C401.933 52.7333 401.513 53.16 400.673 53.16ZM415.652 53.2C414.625 53.2 413.732 52.9933 412.972 52.58C412.212 52.1533 411.625 51.5533 411.212 50.78C410.799 50.0067 410.592 49.1 410.592 48.06C410.592 47.2733 410.705 46.5733 410.932 45.96C411.172 45.3333 411.512 44.8067 411.952 44.38C412.392 43.94 412.925 43.6067 413.552 43.38C414.179 43.14 414.879 43.02 415.652 43.02C416.092 43.02 416.565 43.08 417.072 43.2C417.592 43.32 418.079 43.52 418.532 43.8C418.745 43.9333 418.885 44.0933 418.952 44.28C419.019 44.4667 419.032 44.66 418.992 44.86C418.952 45.0467 418.865 45.2133 418.732 45.36C418.612 45.4933 418.459 45.58 418.272 45.62C418.085 45.6467 417.879 45.6 417.652 45.48C417.359 45.3067 417.059 45.18 416.752 45.1C416.445 45.0067 416.152 44.96 415.872 44.96C415.432 44.96 415.045 45.0333 414.712 45.18C414.379 45.3133 414.092 45.5133 413.852 45.78C413.625 46.0333 413.452 46.3533 413.332 46.74C413.212 47.1267 413.152 47.5733 413.152 48.08C413.152 49.0667 413.385 49.8467 413.852 50.42C414.332 50.98 415.005 51.26 415.872 51.26C416.152 51.26 416.439 51.22 416.732 51.14C417.039 51.06 417.345 50.9333 417.652 50.76C417.879 50.64 418.079 50.6 418.252 50.64C418.439 50.68 418.592 50.7733 418.712 50.92C418.832 51.0533 418.905 51.22 418.932 51.42C418.959 51.6067 418.932 51.7933 418.852 51.98C418.785 52.1667 418.652 52.32 418.452 52.44C418.012 52.7067 417.545 52.9 417.052 53.02C416.559 53.14 416.092 53.2 415.652 53.2ZM425.085 53.2C424.218 53.2 423.491 53.0533 422.905 52.76C422.331 52.4667 421.905 52.04 421.625 51.48C421.345 50.9067 421.205 50.2 421.205 49.36V45.1H420.165C419.845 45.1 419.598 45.02 419.425 44.86C419.251 44.6867 419.165 44.4533 419.165 44.16C419.165 43.8533 419.251 43.62 419.425 43.46C419.598 43.3 419.845 43.22 420.165 43.22H421.205V41.4C421.205 40.9867 421.311 40.6733 421.525 40.46C421.751 40.2467 422.065 40.14 422.465 40.14C422.865 40.14 423.171 40.2467 423.385 40.46C423.598 40.6733 423.705 40.9867 423.705 41.4V43.22H425.825C426.145 43.22 426.391 43.3 426.565 43.46C426.738 43.62 426.825 43.8533 426.825 44.16C426.825 44.4533 426.738 44.6867 426.565 44.86C426.391 45.02 426.145 45.1 425.825 45.1H423.705V49.22C423.705 49.86 423.845 50.34 424.125 50.66C424.405 50.98 424.858 51.14 425.485 51.14C425.711 51.14 425.911 51.12 426.085 51.08C426.258 51.04 426.411 51.0133 426.545 51C426.705 50.9867 426.838 51.04 426.945 51.16C427.051 51.2667 427.105 51.4933 427.105 51.84C427.105 52.1067 427.058 52.3467 426.965 52.56C426.885 52.76 426.731 52.9 426.505 52.98C426.331 53.0333 426.105 53.08 425.825 53.12C425.545 53.1733 425.298 53.2 425.085 53.2ZM429.774 53.14C429.374 53.14 429.068 53.02 428.854 52.78C428.641 52.54 428.534 52.2067 428.534 51.78V44.44C428.534 44 428.641 43.6667 428.854 43.44C429.068 43.2 429.374 43.08 429.774 43.08C430.174 43.08 430.481 43.2 430.694 43.44C430.921 43.6667 431.034 44 431.034 44.44V51.78C431.034 52.2067 430.928 52.54 430.714 52.78C430.501 53.02 430.188 53.14 429.774 53.14ZM429.774 41.22C429.308 41.22 428.941 41.1067 428.674 40.88C428.421 40.64 428.294 40.3133 428.294 39.9C428.294 39.4733 428.421 39.1467 428.674 38.92C428.941 38.6933 429.308 38.58 429.774 38.58C430.254 38.58 430.621 38.6933 430.874 38.92C431.128 39.1467 431.254 39.4733 431.254 39.9C431.254 40.3133 431.128 40.64 430.874 40.88C430.621 41.1067 430.254 41.22 429.774 41.22ZM438.092 53.2C437.079 53.2 436.199 52.9933 435.452 52.58C434.705 52.1667 434.125 51.58 433.712 50.82C433.299 50.0467 433.092 49.14 433.092 48.1C433.092 47.3133 433.205 46.6133 433.432 46C433.672 45.3733 434.012 44.84 434.452 44.4C434.892 43.9467 435.419 43.6067 436.032 43.38C436.645 43.14 437.332 43.02 438.092 43.02C439.105 43.02 439.985 43.2267 440.732 43.64C441.479 44.0533 442.059 44.64 442.472 45.4C442.885 46.16 443.092 47.06 443.092 48.1C443.092 48.8867 442.972 49.5933 442.732 50.22C442.505 50.8467 442.172 51.3867 441.732 51.84C441.292 52.28 440.765 52.62 440.152 52.86C439.539 53.0867 438.852 53.2 438.092 53.2ZM438.092 51.3C438.585 51.3 439.019 51.18 439.392 50.94C439.765 50.7 440.052 50.3467 440.252 49.88C440.465 49.4 440.572 48.8067 440.572 48.1C440.572 47.0333 440.345 46.24 439.892 45.72C439.439 45.1867 438.839 44.92 438.092 44.92C437.599 44.92 437.165 45.04 436.792 45.28C436.419 45.5067 436.125 45.86 435.912 46.34C435.712 46.8067 435.612 47.3933 435.612 48.1C435.612 49.1533 435.839 49.9533 436.292 50.5C436.745 51.0333 437.345 51.3 438.092 51.3ZM446.395 53.16C445.995 53.16 445.689 53.0533 445.475 52.84C445.262 52.6133 445.155 52.2933 445.155 51.88V44.32C445.155 43.9067 445.262 43.5933 445.475 43.38C445.689 43.1667 445.989 43.06 446.375 43.06C446.762 43.06 447.062 43.1667 447.275 43.38C447.489 43.5933 447.595 43.9067 447.595 44.32V45.68L447.375 45.18C447.669 44.4733 448.122 43.94 448.735 43.58C449.362 43.2067 450.069 43.02 450.855 43.02C451.642 43.02 452.289 43.1667 452.795 43.46C453.302 43.7533 453.682 44.2 453.935 44.8C454.189 45.3867 454.315 46.1333 454.315 47.04V51.88C454.315 52.2933 454.209 52.6133 453.995 52.84C453.782 53.0533 453.475 53.16 453.075 53.16C452.675 53.16 452.362 53.0533 452.135 52.84C451.922 52.6133 451.815 52.2933 451.815 51.88V47.16C451.815 46.4 451.669 45.8467 451.375 45.5C451.095 45.1533 450.655 44.98 450.055 44.98C449.322 44.98 448.735 45.2133 448.295 45.68C447.869 46.1333 447.655 46.74 447.655 47.5V51.88C447.655 52.7333 447.235 53.16 446.395 53.16ZM458.055 53.1C457.601 53.1 457.235 52.96 456.955 52.68C456.688 52.4 456.555 52.04 456.555 51.6C456.555 51.1733 456.688 50.8267 456.955 50.56C457.235 50.28 457.601 50.14 458.055 50.14C458.521 50.14 458.881 50.28 459.135 50.56C459.401 50.8267 459.535 51.1733 459.535 51.6C459.535 52.04 459.401 52.4 459.135 52.68C458.881 52.96 458.521 53.1 458.055 53.1Z" fill="#F6F6F6"/>
</g>
<defs>
<clipPath id="clip0_5555_5597">
<rect width="680" height="60" fill="white"/>
</clipPath>
</defs>
</svg>
