<svg width="680" height="60" viewBox="0 0 680 60" fill="none" xmlns="http://www.w3.org/2000/svg">
<g clip-path="url(#clip0_1_28)">
<path d="M99.8587 21.16C99.4453 21.16 99.1253 21.0467 98.8987 20.82C98.6853 20.58 98.5787 20.2533 98.5787 19.84V9.04H94.6787C94.332 9.04 94.0587 8.94667 93.8587 8.76C93.672 8.56 93.5787 8.29333 93.5787 7.96C93.5787 7.61333 93.672 7.35333 93.8587 7.18C94.0587 6.99333 94.332 6.9 94.6787 6.9H105.039C105.385 6.9 105.652 6.99333 105.839 7.18C106.039 7.35333 106.139 7.61333 106.139 7.96C106.139 8.29333 106.039 8.56 105.839 8.76C105.652 8.94667 105.385 9.04 105.039 9.04H101.139V19.84C101.139 20.2533 101.032 20.58 100.819 20.82C100.605 21.0467 100.285 21.16 99.8587 21.16ZM109.694 21.16C109.294 21.16 108.988 21.0533 108.774 20.84C108.561 20.6133 108.454 20.2933 108.454 19.88V8C108.454 7.58667 108.561 7.27333 108.774 7.06C108.988 6.84667 109.294 6.74 109.694 6.74C110.094 6.74 110.401 6.84667 110.614 7.06C110.841 7.27333 110.954 7.58667 110.954 8V13.18H110.674C110.968 12.4733 111.421 11.94 112.034 11.58C112.661 11.2067 113.368 11.02 114.154 11.02C114.941 11.02 115.588 11.1667 116.094 11.46C116.601 11.7533 116.981 12.2 117.234 12.8C117.488 13.3867 117.614 14.1333 117.614 15.04V19.88C117.614 20.2933 117.508 20.6133 117.294 20.84C117.081 21.0533 116.774 21.16 116.374 21.16C115.974 21.16 115.661 21.0533 115.434 20.84C115.221 20.6133 115.114 20.2933 115.114 19.88V15.16C115.114 14.4 114.968 13.8467 114.674 13.5C114.394 13.1533 113.954 12.98 113.354 12.98C112.621 12.98 112.034 13.2133 111.594 13.68C111.168 14.1333 110.954 14.74 110.954 15.5V19.88C110.954 20.7333 110.534 21.16 109.694 21.16ZM124.974 21.2C123.867 21.2 122.914 20.9933 122.114 20.58C121.314 20.1667 120.694 19.58 120.254 18.82C119.827 18.06 119.614 17.16 119.614 16.12C119.614 15.1067 119.82 14.22 120.234 13.46C120.66 12.7 121.24 12.1067 121.974 11.68C122.72 11.24 123.567 11.02 124.514 11.02C125.207 11.02 125.827 11.1333 126.374 11.36C126.934 11.5867 127.407 11.9133 127.794 12.34C128.194 12.7667 128.494 13.2867 128.694 13.9C128.907 14.5 129.014 15.18 129.014 15.94C129.014 16.18 128.927 16.3667 128.754 16.5C128.594 16.62 128.36 16.68 128.054 16.68H121.634V15.24H127.254L126.934 15.54C126.934 14.9267 126.84 14.4133 126.654 14C126.48 13.5867 126.22 13.2733 125.874 13.06C125.54 12.8333 125.12 12.72 124.614 12.72C124.054 12.72 123.574 12.8533 123.174 13.12C122.787 13.3733 122.487 13.74 122.274 14.22C122.074 14.6867 121.974 15.2467 121.974 15.9V16.04C121.974 17.1333 122.227 17.9533 122.734 18.5C123.254 19.0333 124.014 19.3 125.014 19.3C125.36 19.3 125.747 19.26 126.174 19.18C126.614 19.0867 127.027 18.9333 127.414 18.72C127.694 18.56 127.94 18.4933 128.154 18.52C128.367 18.5333 128.534 18.6067 128.654 18.74C128.787 18.8733 128.867 19.04 128.894 19.24C128.92 19.4267 128.88 19.62 128.774 19.82C128.68 20.02 128.514 20.1933 128.274 20.34C127.807 20.6333 127.267 20.8533 126.654 21C126.054 21.1333 125.494 21.2 124.974 21.2ZM140.383 21.16C140.05 21.16 139.756 21.0733 139.503 20.9C139.263 20.7267 139.063 20.46 138.903 20.1L135.723 12.72C135.603 12.4267 135.556 12.1533 135.583 11.9C135.623 11.6467 135.743 11.4467 135.943 11.3C136.156 11.14 136.443 11.06 136.803 11.06C137.11 11.06 137.356 11.1333 137.543 11.28C137.73 11.4133 137.896 11.6733 138.043 12.06L140.743 18.8H140.143L142.923 12.04C143.07 11.6667 143.236 11.4133 143.423 11.28C143.623 11.1333 143.89 11.06 144.223 11.06C144.516 11.06 144.75 11.14 144.923 11.3C145.096 11.4467 145.203 11.6467 145.243 11.9C145.283 12.14 145.236 12.4067 145.103 12.7L141.863 20.1C141.716 20.46 141.516 20.7267 141.263 20.9C141.023 21.0733 140.73 21.16 140.383 21.16ZM149.995 21.2C149.288 21.2 148.655 21.0667 148.095 20.8C147.548 20.52 147.115 20.1467 146.795 19.68C146.488 19.2133 146.335 18.6867 146.335 18.1C146.335 17.38 146.521 16.8133 146.895 16.4C147.268 15.9733 147.875 15.6667 148.715 15.48C149.555 15.2933 150.681 15.2 152.095 15.2H153.095V16.64H152.115C151.288 16.64 150.628 16.68 150.135 16.76C149.641 16.84 149.288 16.98 149.075 17.18C148.875 17.3667 148.775 17.6333 148.775 17.98C148.775 18.42 148.928 18.78 149.235 19.06C149.541 19.34 149.968 19.48 150.515 19.48C150.955 19.48 151.341 19.38 151.675 19.18C152.021 18.9667 152.295 18.68 152.495 18.32C152.695 17.96 152.795 17.5467 152.795 17.08V14.78C152.795 14.1133 152.648 13.6333 152.355 13.34C152.061 13.0467 151.568 12.9 150.875 12.9C150.488 12.9 150.068 12.9467 149.615 13.04C149.175 13.1333 148.708 13.2933 148.215 13.52C147.961 13.64 147.735 13.6733 147.535 13.62C147.348 13.5667 147.201 13.46 147.095 13.3C146.988 13.1267 146.935 12.94 146.935 12.74C146.935 12.54 146.988 12.3467 147.095 12.16C147.201 11.96 147.381 11.8133 147.635 11.72C148.248 11.4667 148.835 11.2867 149.395 11.18C149.968 11.0733 150.488 11.02 150.955 11.02C151.915 11.02 152.701 11.1667 153.315 11.46C153.941 11.7533 154.408 12.2 154.715 12.8C155.021 13.3867 155.175 14.1467 155.175 15.08V19.88C155.175 20.2933 155.075 20.6133 154.875 20.84C154.675 21.0533 154.388 21.16 154.015 21.16C153.641 21.16 153.348 21.0533 153.135 20.84C152.935 20.6133 152.835 20.2933 152.835 19.88V18.92H152.995C152.901 19.3867 152.715 19.7933 152.435 20.14C152.168 20.4733 151.828 20.7333 151.415 20.92C151.001 21.1067 150.528 21.2 149.995 21.2ZM161.052 21.2C159.945 21.2 159.112 20.8867 158.552 20.26C157.992 19.62 157.712 18.6867 157.712 17.46V8C157.712 7.58667 157.819 7.27333 158.032 7.06C158.245 6.84667 158.552 6.74 158.952 6.74C159.352 6.74 159.659 6.84667 159.872 7.06C160.099 7.27333 160.212 7.58667 160.212 8V17.34C160.212 17.9533 160.339 18.4067 160.592 18.7C160.859 18.9933 161.232 19.14 161.712 19.14C161.819 19.14 161.919 19.14 162.012 19.14C162.105 19.1267 162.199 19.1133 162.292 19.1C162.479 19.0733 162.605 19.1267 162.672 19.26C162.739 19.38 162.772 19.6333 162.772 20.02C162.772 20.3533 162.705 20.6133 162.572 20.8C162.439 20.9867 162.219 21.1 161.912 21.14C161.779 21.1533 161.639 21.1667 161.492 21.18C161.345 21.1933 161.199 21.2 161.052 21.2ZM167.639 21.2C166.825 21.2 166.152 21.0533 165.619 20.76C165.085 20.4533 164.685 20 164.419 19.4C164.165 18.8 164.039 18.0533 164.039 17.16V12.32C164.039 11.8933 164.145 11.58 164.359 11.38C164.572 11.1667 164.879 11.06 165.279 11.06C165.679 11.06 165.985 11.1667 166.199 11.38C166.425 11.58 166.539 11.8933 166.539 12.32V17.2C166.539 17.8933 166.679 18.4067 166.959 18.74C167.239 19.0733 167.685 19.24 168.299 19.24C168.965 19.24 169.512 19.0133 169.939 18.56C170.365 18.0933 170.579 17.48 170.579 16.72V12.32C170.579 11.8933 170.685 11.58 170.899 11.38C171.112 11.1667 171.419 11.06 171.819 11.06C172.219 11.06 172.525 11.1667 172.739 11.38C172.965 11.58 173.079 11.8933 173.079 12.32V19.88C173.079 20.7333 172.672 21.16 171.859 21.16C171.472 21.16 171.172 21.0533 170.959 20.84C170.745 20.6133 170.639 20.2933 170.639 19.88V18.36L170.919 18.96C170.639 19.68 170.212 20.2333 169.639 20.62C169.079 21.0067 168.412 21.2 167.639 21.2ZM180.501 21.2C179.394 21.2 178.441 20.9933 177.641 20.58C176.841 20.1667 176.221 19.58 175.781 18.82C175.354 18.06 175.141 17.16 175.141 16.12C175.141 15.1067 175.348 14.22 175.761 13.46C176.188 12.7 176.768 12.1067 177.501 11.68C178.248 11.24 179.094 11.02 180.041 11.02C180.734 11.02 181.354 11.1333 181.901 11.36C182.461 11.5867 182.934 11.9133 183.321 12.34C183.721 12.7667 184.021 13.2867 184.221 13.9C184.434 14.5 184.541 15.18 184.541 15.94C184.541 16.18 184.454 16.3667 184.281 16.5C184.121 16.62 183.888 16.68 183.581 16.68H177.161V15.24H182.781L182.461 15.54C182.461 14.9267 182.368 14.4133 182.181 14C182.008 13.5867 181.748 13.2733 181.401 13.06C181.068 12.8333 180.648 12.72 180.141 12.72C179.581 12.72 179.101 12.8533 178.701 13.12C178.314 13.3733 178.014 13.74 177.801 14.22C177.601 14.6867 177.501 15.2467 177.501 15.9V16.04C177.501 17.1333 177.754 17.9533 178.261 18.5C178.781 19.0333 179.541 19.3 180.541 19.3C180.888 19.3 181.274 19.26 181.701 19.18C182.141 19.0867 182.554 18.9333 182.941 18.72C183.221 18.56 183.468 18.4933 183.681 18.52C183.894 18.5333 184.061 18.6067 184.181 18.74C184.314 18.8733 184.394 19.04 184.421 19.24C184.448 19.4267 184.408 19.62 184.301 19.82C184.208 20.02 184.041 20.1933 183.801 20.34C183.334 20.6333 182.794 20.8533 182.181 21C181.581 21.1333 181.021 21.2 180.501 21.2ZM196.41 21.2C195.397 21.2 194.517 20.9933 193.77 20.58C193.024 20.1667 192.444 19.58 192.03 18.82C191.617 18.0467 191.41 17.14 191.41 16.1C191.41 15.3133 191.524 14.6133 191.75 14C191.99 13.3733 192.33 12.84 192.77 12.4C193.21 11.9467 193.737 11.6067 194.35 11.38C194.964 11.14 195.65 11.02 196.41 11.02C197.424 11.02 198.304 11.2267 199.05 11.64C199.797 12.0533 200.377 12.64 200.79 13.4C201.204 14.16 201.41 15.06 201.41 16.1C201.41 16.8867 201.29 17.5933 201.05 18.22C200.824 18.8467 200.49 19.3867 200.05 19.84C199.61 20.28 199.084 20.62 198.47 20.86C197.857 21.0867 197.17 21.2 196.41 21.2ZM196.41 19.3C196.904 19.3 197.337 19.18 197.71 18.94C198.084 18.7 198.37 18.3467 198.57 17.88C198.784 17.4 198.89 16.8067 198.89 16.1C198.89 15.0333 198.664 14.24 198.21 13.72C197.757 13.1867 197.157 12.92 196.41 12.92C195.917 12.92 195.484 13.04 195.11 13.28C194.737 13.5067 194.444 13.86 194.23 14.34C194.03 14.8067 193.93 15.3933 193.93 16.1C193.93 17.1533 194.157 17.9533 194.61 18.5C195.064 19.0333 195.664 19.3 196.41 19.3ZM205.296 21.16C204.896 21.16 204.583 21.0533 204.356 20.84C204.143 20.6133 204.036 20.2933 204.036 19.88V13.1H203.116C202.796 13.1 202.55 13.02 202.376 12.86C202.203 12.6867 202.116 12.4533 202.116 12.16C202.116 11.8533 202.203 11.62 202.376 11.46C202.55 11.3 202.796 11.22 203.116 11.22H204.756L204.036 11.88V11.2C204.036 9.82667 204.383 8.8 205.076 8.12C205.77 7.42667 206.77 7.02 208.076 6.9L208.756 6.84C209.023 6.81333 209.236 6.86 209.396 6.98C209.556 7.08667 209.663 7.23333 209.716 7.42C209.77 7.59333 209.776 7.77333 209.736 7.96C209.696 8.14667 209.61 8.31333 209.476 8.46C209.356 8.59333 209.196 8.66667 208.996 8.68L208.716 8.7C207.956 8.75333 207.403 8.94667 207.056 9.28C206.71 9.61333 206.536 10.12 206.536 10.8V11.54L206.216 11.22H208.236C208.556 11.22 208.803 11.3 208.976 11.46C209.15 11.62 209.236 11.8533 209.236 12.16C209.236 12.4533 209.15 12.6867 208.976 12.86C208.803 13.02 208.556 13.1 208.236 13.1H206.536V19.88C206.536 20.7333 206.123 21.16 205.296 21.16Z" fill="#444444"/>
<rect x="213.5" width="20" height="28" rx="5" fill="#FFF2E5"/>
<path d="M220.98 22.1055C221.15 22.1055 221.312 22.0729 221.469 22.0078C222.094 21.7604 222.745 20.8164 223.422 19.1758L219.789 11.168H218.891V10.6602H223.012V11.168H221.742L224.301 17.0664L226.645 11.168H225.199V10.6602H228.207C228.207 10.7643 228.201 10.849 228.188 10.9141C228.148 11.0833 227.992 11.168 227.719 11.168C227.628 11.168 227.543 11.1745 227.465 11.1875C227.296 11.2266 227.146 11.4219 227.016 11.7734L224.105 19.0977C223.832 19.7878 223.546 20.3802 223.246 20.875C222.504 22.125 221.605 22.75 220.551 22.75C220.186 22.75 219.854 22.6849 219.555 22.5547C219.008 22.2943 218.734 21.9362 218.734 21.4805C218.734 21.4154 218.741 21.3503 218.754 21.2852C218.858 20.8945 219.125 20.6992 219.555 20.6992C219.737 20.6992 219.893 20.7448 220.023 20.8359C220.167 20.9271 220.316 21.1875 220.473 21.6172C220.59 21.9427 220.759 22.1055 220.98 22.1055Z" fill="#FF8F1F"/>
<path d="M240.103 21.14C239.703 21.14 239.396 21.02 239.183 20.78C238.969 20.54 238.863 20.2067 238.863 19.78V12.44C238.863 12 238.969 11.6667 239.183 11.44C239.396 11.2 239.703 11.08 240.103 11.08C240.503 11.08 240.809 11.2 241.023 11.44C241.249 11.6667 241.363 12 241.363 12.44V19.78C241.363 20.2067 241.256 20.54 241.043 20.78C240.829 21.02 240.516 21.14 240.103 21.14ZM240.103 9.22C239.636 9.22 239.269 9.10667 239.003 8.88C238.749 8.64 238.623 8.31333 238.623 7.9C238.623 7.47333 238.749 7.14667 239.003 6.92C239.269 6.69333 239.636 6.58 240.103 6.58C240.583 6.58 240.949 6.69333 241.203 6.92C241.456 7.14667 241.583 7.47333 241.583 7.9C241.583 8.31333 241.456 8.64 241.203 8.88C240.949 9.10667 240.583 9.22 240.103 9.22ZM245.2 21.16C244.8 21.16 244.493 21.0533 244.28 20.84C244.067 20.6133 243.96 20.2933 243.96 19.88V12.32C243.96 11.9067 244.067 11.5933 244.28 11.38C244.493 11.1667 244.793 11.06 245.18 11.06C245.567 11.06 245.867 11.1667 246.08 11.38C246.293 11.5933 246.4 11.9067 246.4 12.32V13.68L246.18 13.18C246.473 12.4733 246.927 11.94 247.54 11.58C248.167 11.2067 248.873 11.02 249.66 11.02C250.447 11.02 251.093 11.1667 251.6 11.46C252.107 11.7533 252.487 12.2 252.74 12.8C252.993 13.3867 253.12 14.1333 253.12 15.04V19.88C253.12 20.2933 253.013 20.6133 252.8 20.84C252.587 21.0533 252.28 21.16 251.88 21.16C251.48 21.16 251.167 21.0533 250.94 20.84C250.727 20.6133 250.62 20.2933 250.62 19.88V15.16C250.62 14.4 250.473 13.8467 250.18 13.5C249.9 13.1533 249.46 12.98 248.86 12.98C248.127 12.98 247.54 13.2133 247.1 13.68C246.673 14.1333 246.46 14.74 246.46 15.5V19.88C246.46 20.7333 246.04 21.16 245.2 21.16ZM260.179 21.2C259.153 21.2 258.259 20.9933 257.499 20.58C256.739 20.1533 256.153 19.5533 255.739 18.78C255.326 18.0067 255.119 17.1 255.119 16.06C255.119 15.2733 255.233 14.5733 255.459 13.96C255.699 13.3333 256.039 12.8067 256.479 12.38C256.919 11.94 257.453 11.6067 258.079 11.38C258.706 11.14 259.406 11.02 260.179 11.02C260.619 11.02 261.093 11.08 261.599 11.2C262.119 11.32 262.606 11.52 263.059 11.8C263.273 11.9333 263.413 12.0933 263.479 12.28C263.546 12.4667 263.559 12.66 263.519 12.86C263.479 13.0467 263.393 13.2133 263.259 13.36C263.139 13.4933 262.986 13.58 262.799 13.62C262.613 13.6467 262.406 13.6 262.179 13.48C261.886 13.3067 261.586 13.18 261.279 13.1C260.973 13.0067 260.679 12.96 260.399 12.96C259.959 12.96 259.573 13.0333 259.239 13.18C258.906 13.3133 258.619 13.5133 258.379 13.78C258.153 14.0333 257.979 14.3533 257.859 14.74C257.739 15.1267 257.679 15.5733 257.679 16.08C257.679 17.0667 257.913 17.8467 258.379 18.42C258.859 18.98 259.533 19.26 260.399 19.26C260.679 19.26 260.966 19.22 261.259 19.14C261.566 19.06 261.873 18.9333 262.179 18.76C262.406 18.64 262.606 18.6 262.779 18.64C262.966 18.68 263.119 18.7733 263.239 18.92C263.359 19.0533 263.433 19.22 263.459 19.42C263.486 19.6067 263.459 19.7933 263.379 19.98C263.313 20.1667 263.179 20.32 262.979 20.44C262.539 20.7067 262.073 20.9 261.579 21.02C261.086 21.14 260.619 21.2 260.179 21.2ZM266.373 21.16C265.96 21.16 265.64 21.0533 265.413 20.84C265.2 20.6133 265.093 20.2933 265.093 19.88V12.32C265.093 11.9067 265.2 11.5933 265.413 11.38C265.626 11.1667 265.926 11.06 266.313 11.06C266.7 11.06 267 11.1667 267.213 11.38C267.426 11.5933 267.533 11.9067 267.533 12.32V13.58H267.333C267.52 12.78 267.886 12.1733 268.433 11.76C268.98 11.3467 269.706 11.1 270.613 11.02C270.893 10.9933 271.113 11.0667 271.273 11.24C271.446 11.4 271.546 11.6533 271.573 12C271.6 12.3333 271.52 12.6067 271.333 12.82C271.16 13.02 270.893 13.14 270.533 13.18L270.093 13.22C269.28 13.3 268.666 13.5533 268.253 13.98C267.84 14.3933 267.633 14.98 267.633 15.74V19.88C267.633 20.2933 267.526 20.6133 267.313 20.84C267.1 21.0533 266.786 21.16 266.373 21.16ZM277.589 21.2C276.482 21.2 275.529 20.9933 274.729 20.58C273.929 20.1667 273.309 19.58 272.869 18.82C272.442 18.06 272.229 17.16 272.229 16.12C272.229 15.1067 272.435 14.22 272.849 13.46C273.275 12.7 273.855 12.1067 274.589 11.68C275.335 11.24 276.182 11.02 277.129 11.02C277.822 11.02 278.442 11.1333 278.989 11.36C279.549 11.5867 280.022 11.9133 280.409 12.34C280.809 12.7667 281.109 13.2867 281.309 13.9C281.522 14.5 281.629 15.18 281.629 15.94C281.629 16.18 281.542 16.3667 281.369 16.5C281.209 16.62 280.975 16.68 280.669 16.68H274.249V15.24H279.869L279.549 15.54C279.549 14.9267 279.455 14.4133 279.269 14C279.095 13.5867 278.835 13.2733 278.489 13.06C278.155 12.8333 277.735 12.72 277.229 12.72C276.669 12.72 276.189 12.8533 275.789 13.12C275.402 13.3733 275.102 13.74 274.889 14.22C274.689 14.6867 274.589 15.2467 274.589 15.9V16.04C274.589 17.1333 274.842 17.9533 275.349 18.5C275.869 19.0333 276.629 19.3 277.629 19.3C277.975 19.3 278.362 19.26 278.789 19.18C279.229 19.0867 279.642 18.9333 280.029 18.72C280.309 18.56 280.555 18.4933 280.769 18.52C280.982 18.5333 281.149 18.6067 281.269 18.74C281.402 18.8733 281.482 19.04 281.509 19.24C281.535 19.4267 281.495 19.62 281.389 19.82C281.295 20.02 281.129 20.1933 280.889 20.34C280.422 20.6333 279.882 20.8533 279.269 21C278.669 21.1333 278.109 21.2 277.589 21.2ZM286.829 21.2C286.122 21.2 285.489 21.0667 284.929 20.8C284.382 20.52 283.949 20.1467 283.629 19.68C283.322 19.2133 283.169 18.6867 283.169 18.1C283.169 17.38 283.355 16.8133 283.729 16.4C284.102 15.9733 284.709 15.6667 285.549 15.48C286.389 15.2933 287.515 15.2 288.929 15.2H289.929V16.64H288.949C288.122 16.64 287.462 16.68 286.969 16.76C286.475 16.84 286.122 16.98 285.909 17.18C285.709 17.3667 285.609 17.6333 285.609 17.98C285.609 18.42 285.762 18.78 286.069 19.06C286.375 19.34 286.802 19.48 287.349 19.48C287.789 19.48 288.175 19.38 288.509 19.18C288.855 18.9667 289.129 18.68 289.329 18.32C289.529 17.96 289.629 17.5467 289.629 17.08V14.78C289.629 14.1133 289.482 13.6333 289.189 13.34C288.895 13.0467 288.402 12.9 287.709 12.9C287.322 12.9 286.902 12.9467 286.449 13.04C286.009 13.1333 285.542 13.2933 285.049 13.52C284.795 13.64 284.569 13.6733 284.369 13.62C284.182 13.5667 284.035 13.46 283.929 13.3C283.822 13.1267 283.769 12.94 283.769 12.74C283.769 12.54 283.822 12.3467 283.929 12.16C284.035 11.96 284.215 11.8133 284.469 11.72C285.082 11.4667 285.669 11.2867 286.229 11.18C286.802 11.0733 287.322 11.02 287.789 11.02C288.749 11.02 289.535 11.1667 290.149 11.46C290.775 11.7533 291.242 12.2 291.549 12.8C291.855 13.3867 292.009 14.1467 292.009 15.08V19.88C292.009 20.2933 291.909 20.6133 291.709 20.84C291.509 21.0533 291.222 21.16 290.849 21.16C290.475 21.16 290.182 21.0533 289.969 20.84C289.769 20.6133 289.669 20.2933 289.669 19.88V18.92H289.829C289.735 19.3867 289.549 19.7933 289.269 20.14C289.002 20.4733 288.662 20.7333 288.249 20.92C287.835 21.1067 287.362 21.2 286.829 21.2ZM298.126 21.2C297.553 21.2 296.946 21.14 296.306 21.02C295.666 20.9 295.093 20.6933 294.586 20.4C294.373 20.2667 294.219 20.1133 294.126 19.94C294.046 19.7533 294.013 19.5733 294.026 19.4C294.053 19.2133 294.119 19.0533 294.226 18.92C294.346 18.7867 294.493 18.7 294.666 18.66C294.853 18.62 295.053 18.6533 295.266 18.76C295.799 19.0133 296.299 19.1933 296.766 19.3C297.233 19.3933 297.693 19.44 298.146 19.44C298.786 19.44 299.259 19.3333 299.566 19.12C299.886 18.8933 300.046 18.6 300.046 18.24C300.046 17.9333 299.939 17.7 299.726 17.54C299.526 17.3667 299.219 17.24 298.806 17.16L296.806 16.78C295.979 16.62 295.346 16.32 294.906 15.88C294.479 15.4267 294.266 14.8467 294.266 14.14C294.266 13.5 294.439 12.9467 294.786 12.48C295.146 12.0133 295.639 11.6533 296.266 11.4C296.893 11.1467 297.613 11.02 298.426 11.02C299.013 11.02 299.559 11.0867 300.066 11.22C300.586 11.34 301.086 11.5333 301.566 11.8C301.766 11.9067 301.899 12.0467 301.966 12.22C302.046 12.3933 302.066 12.5733 302.026 12.76C301.986 12.9333 301.906 13.0933 301.786 13.24C301.666 13.3733 301.513 13.46 301.326 13.5C301.153 13.5267 300.953 13.4867 300.726 13.38C300.313 13.1667 299.913 13.0133 299.526 12.92C299.153 12.8267 298.793 12.78 298.446 12.78C297.793 12.78 297.306 12.8933 296.986 13.12C296.679 13.3467 296.526 13.6467 296.526 14.02C296.526 14.3 296.619 14.5333 296.806 14.72C296.993 14.9067 297.279 15.0333 297.666 15.1L299.666 15.48C300.533 15.64 301.186 15.9333 301.626 16.36C302.079 16.7867 302.306 17.36 302.306 18.08C302.306 19.0533 301.926 19.82 301.166 20.38C300.406 20.9267 299.393 21.2 298.126 21.2ZM309.132 21.2C308.025 21.2 307.072 20.9933 306.272 20.58C305.472 20.1667 304.852 19.58 304.412 18.82C303.985 18.06 303.772 17.16 303.772 16.12C303.772 15.1067 303.978 14.22 304.392 13.46C304.818 12.7 305.398 12.1067 306.132 11.68C306.878 11.24 307.725 11.02 308.672 11.02C309.365 11.02 309.985 11.1333 310.532 11.36C311.092 11.5867 311.565 11.9133 311.952 12.34C312.352 12.7667 312.652 13.2867 312.852 13.9C313.065 14.5 313.172 15.18 313.172 15.94C313.172 16.18 313.085 16.3667 312.912 16.5C312.752 16.62 312.518 16.68 312.212 16.68H305.792V15.24H311.412L311.092 15.54C311.092 14.9267 310.998 14.4133 310.812 14C310.638 13.5867 310.378 13.2733 310.032 13.06C309.698 12.8333 309.278 12.72 308.772 12.72C308.212 12.72 307.732 12.8533 307.332 13.12C306.945 13.3733 306.645 13.74 306.432 14.22C306.232 14.6867 306.132 15.2467 306.132 15.9V16.04C306.132 17.1333 306.385 17.9533 306.892 18.5C307.412 19.0333 308.172 19.3 309.172 19.3C309.518 19.3 309.905 19.26 310.332 19.18C310.772 19.0867 311.185 18.9333 311.572 18.72C311.852 18.56 312.098 18.4933 312.312 18.52C312.525 18.5333 312.692 18.6067 312.812 18.74C312.945 18.8733 313.025 19.04 313.052 19.24C313.078 19.4267 313.038 19.62 312.932 19.82C312.838 20.02 312.672 20.1933 312.432 20.34C311.965 20.6333 311.425 20.8533 310.812 21C310.212 21.1333 309.652 21.2 309.132 21.2ZM318.732 21.2C318.158 21.2 317.552 21.14 316.912 21.02C316.272 20.9 315.698 20.6933 315.192 20.4C314.978 20.2667 314.825 20.1133 314.732 19.94C314.652 19.7533 314.618 19.5733 314.632 19.4C314.658 19.2133 314.725 19.0533 314.832 18.92C314.952 18.7867 315.098 18.7 315.272 18.66C315.458 18.62 315.658 18.6533 315.872 18.76C316.405 19.0133 316.905 19.1933 317.372 19.3C317.838 19.3933 318.298 19.44 318.752 19.44C319.392 19.44 319.865 19.3333 320.172 19.12C320.492 18.8933 320.652 18.6 320.652 18.24C320.652 17.9333 320.545 17.7 320.332 17.54C320.132 17.3667 319.825 17.24 319.412 17.16L317.412 16.78C316.585 16.62 315.952 16.32 315.512 15.88C315.085 15.4267 314.872 14.8467 314.872 14.14C314.872 13.5 315.045 12.9467 315.392 12.48C315.752 12.0133 316.245 11.6533 316.872 11.4C317.498 11.1467 318.218 11.02 319.032 11.02C319.618 11.02 320.165 11.0867 320.672 11.22C321.192 11.34 321.692 11.5333 322.172 11.8C322.372 11.9067 322.505 12.0467 322.572 12.22C322.652 12.3933 322.672 12.5733 322.632 12.76C322.592 12.9333 322.512 13.0933 322.392 13.24C322.272 13.3733 322.118 13.46 321.932 13.5C321.758 13.5267 321.558 13.4867 321.332 13.38C320.918 13.1667 320.518 13.0133 320.132 12.92C319.758 12.8267 319.398 12.78 319.052 12.78C318.398 12.78 317.912 12.8933 317.592 13.12C317.285 13.3467 317.132 13.6467 317.132 14.02C317.132 14.3 317.225 14.5333 317.412 14.72C317.598 14.9067 317.885 15.0333 318.272 15.1L320.272 15.48C321.138 15.64 321.792 15.9333 322.232 16.36C322.685 16.7867 322.912 17.36 322.912 18.08C322.912 19.0533 322.532 19.82 321.772 20.38C321.012 20.9267 319.998 21.2 318.732 21.2ZM334.127 21.16C333.794 21.16 333.507 21.08 333.267 20.92C333.027 20.7467 332.834 20.48 332.687 20.12L329.787 12.72C329.667 12.4 329.627 12.12 329.667 11.88C329.72 11.6267 329.847 11.4267 330.047 11.28C330.247 11.1333 330.514 11.06 330.847 11.06C331.14 11.06 331.38 11.1333 331.567 11.28C331.754 11.4133 331.914 11.6733 332.047 12.06L334.467 18.72H334.007L336.507 11.9C336.614 11.6067 336.754 11.3933 336.927 11.26C337.114 11.1267 337.354 11.06 337.647 11.06C337.94 11.06 338.18 11.1333 338.367 11.28C338.554 11.4133 338.694 11.62 338.787 11.9L341.247 18.72H340.827L343.267 12C343.4 11.64 343.567 11.3933 343.767 11.26C343.98 11.1267 344.214 11.06 344.467 11.06C344.787 11.06 345.034 11.14 345.207 11.3C345.38 11.46 345.48 11.6667 345.507 11.92C345.534 12.16 345.487 12.4267 345.367 12.72L342.487 20.12C342.354 20.4667 342.16 20.7267 341.907 20.9C341.667 21.0733 341.38 21.16 341.047 21.16C340.714 21.16 340.42 21.0733 340.167 20.9C339.927 20.7267 339.74 20.4667 339.607 20.12L336.987 13.18H338.127L335.567 20.1C335.434 20.46 335.247 20.7267 335.007 20.9C334.767 21.0733 334.474 21.16 334.127 21.16ZM348.638 21.14C348.238 21.14 347.931 21.02 347.718 20.78C347.504 20.54 347.398 20.2067 347.398 19.78V12.44C347.398 12 347.504 11.6667 347.718 11.44C347.931 11.2 348.238 11.08 348.638 11.08C349.038 11.08 349.344 11.2 349.558 11.44C349.784 11.6667 349.898 12 349.898 12.44V19.78C349.898 20.2067 349.791 20.54 349.578 20.78C349.364 21.02 349.051 21.14 348.638 21.14ZM348.638 9.22C348.171 9.22 347.804 9.10667 347.538 8.88C347.284 8.64 347.158 8.31333 347.158 7.9C347.158 7.47333 347.284 7.14667 347.538 6.92C347.804 6.69333 348.171 6.58 348.638 6.58C349.118 6.58 349.484 6.69333 349.738 6.92C349.991 7.14667 350.118 7.47333 350.118 7.9C350.118 8.31333 349.991 8.64 349.738 8.88C349.484 9.10667 349.118 9.22 348.638 9.22ZM356.975 21.2C356.109 21.2 355.382 21.0533 354.795 20.76C354.222 20.4667 353.795 20.04 353.515 19.48C353.235 18.9067 353.095 18.2 353.095 17.36V13.1H352.055C351.735 13.1 351.489 13.02 351.315 12.86C351.142 12.6867 351.055 12.4533 351.055 12.16C351.055 11.8533 351.142 11.62 351.315 11.46C351.489 11.3 351.735 11.22 352.055 11.22H353.095V9.4C353.095 8.98667 353.202 8.67333 353.415 8.46C353.642 8.24667 353.955 8.14 354.355 8.14C354.755 8.14 355.062 8.24667 355.275 8.46C355.489 8.67333 355.595 8.98667 355.595 9.4V11.22H357.715C358.035 11.22 358.282 11.3 358.455 11.46C358.629 11.62 358.715 11.8533 358.715 12.16C358.715 12.4533 358.629 12.6867 358.455 12.86C358.282 13.02 358.035 13.1 357.715 13.1H355.595V17.22C355.595 17.86 355.735 18.34 356.015 18.66C356.295 18.98 356.749 19.14 357.375 19.14C357.602 19.14 357.802 19.12 357.975 19.08C358.149 19.04 358.302 19.0133 358.435 19C358.595 18.9867 358.729 19.04 358.835 19.16C358.942 19.2667 358.995 19.4933 358.995 19.84C358.995 20.1067 358.949 20.3467 358.855 20.56C358.775 20.76 358.622 20.9 358.395 20.98C358.222 21.0333 357.995 21.08 357.715 21.12C357.435 21.1733 357.189 21.2 356.975 21.2ZM361.665 21.16C361.265 21.16 360.958 21.0533 360.745 20.84C360.532 20.6133 360.425 20.2933 360.425 19.88V8C360.425 7.58667 360.532 7.27333 360.745 7.06C360.958 6.84667 361.265 6.74 361.665 6.74C362.065 6.74 362.372 6.84667 362.585 7.06C362.812 7.27333 362.925 7.58667 362.925 8V13.18H362.645C362.938 12.4733 363.392 11.94 364.005 11.58C364.632 11.2067 365.338 11.02 366.125 11.02C366.912 11.02 367.558 11.1667 368.065 11.46C368.572 11.7533 368.952 12.2 369.205 12.8C369.458 13.3867 369.585 14.1333 369.585 15.04V19.88C369.585 20.2933 369.478 20.6133 369.265 20.84C369.052 21.0533 368.745 21.16 368.345 21.16C367.945 21.16 367.632 21.0533 367.405 20.84C367.192 20.6133 367.085 20.2933 367.085 19.88V15.16C367.085 14.4 366.938 13.8467 366.645 13.5C366.365 13.1533 365.925 12.98 365.325 12.98C364.592 12.98 364.005 13.2133 363.565 13.68C363.138 14.1333 362.925 14.74 362.925 15.5V19.88C362.925 20.7333 362.505 21.16 361.665 21.16ZM378.794 21.14C378.394 21.14 378.087 21.02 377.874 20.78C377.661 20.54 377.554 20.2067 377.554 19.78V12.44C377.554 12 377.661 11.6667 377.874 11.44C378.087 11.2 378.394 11.08 378.794 11.08C379.194 11.08 379.501 11.2 379.714 11.44C379.941 11.6667 380.054 12 380.054 12.44V19.78C380.054 20.2067 379.947 20.54 379.734 20.78C379.521 21.02 379.207 21.14 378.794 21.14ZM378.794 9.22C378.327 9.22 377.961 9.10667 377.694 8.88C377.441 8.64 377.314 8.31333 377.314 7.9C377.314 7.47333 377.441 7.14667 377.694 6.92C377.961 6.69333 378.327 6.58 378.794 6.58C379.274 6.58 379.641 6.69333 379.894 6.92C380.147 7.14667 380.274 7.47333 380.274 7.9C380.274 8.31333 380.147 8.64 379.894 8.88C379.641 9.10667 379.274 9.22 378.794 9.22ZM383.892 21.16C383.492 21.16 383.185 21.0533 382.972 20.84C382.758 20.6133 382.652 20.2933 382.652 19.88V12.32C382.652 11.9067 382.758 11.5933 382.972 11.38C383.185 11.1667 383.485 11.06 383.872 11.06C384.258 11.06 384.558 11.1667 384.772 11.38C384.985 11.5933 385.092 11.9067 385.092 12.32V13.68L384.872 13.18C385.165 12.4733 385.618 11.94 386.232 11.58C386.858 11.2067 387.565 11.02 388.352 11.02C389.138 11.02 389.785 11.1667 390.292 11.46C390.798 11.7533 391.178 12.2 391.432 12.8C391.685 13.3867 391.812 14.1333 391.812 15.04V19.88C391.812 20.2933 391.705 20.6133 391.492 20.84C391.278 21.0533 390.972 21.16 390.572 21.16C390.172 21.16 389.858 21.0533 389.632 20.84C389.418 20.6133 389.312 20.2933 389.312 19.88V15.16C389.312 14.4 389.165 13.8467 388.872 13.5C388.592 13.1533 388.152 12.98 387.552 12.98C386.818 12.98 386.232 13.2133 385.792 13.68C385.365 14.1333 385.152 14.74 385.152 15.5V19.88C385.152 20.7333 384.732 21.16 383.892 21.16ZM398.871 21.2C397.844 21.2 396.951 20.9933 396.191 20.58C395.431 20.1533 394.844 19.5533 394.431 18.78C394.017 18.0067 393.811 17.1 393.811 16.06C393.811 15.2733 393.924 14.5733 394.151 13.96C394.391 13.3333 394.731 12.8067 395.171 12.38C395.611 11.94 396.144 11.6067 396.771 11.38C397.397 11.14 398.097 11.02 398.871 11.02C399.311 11.02 399.784 11.08 400.291 11.2C400.811 11.32 401.297 11.52 401.751 11.8C401.964 11.9333 402.104 12.0933 402.171 12.28C402.237 12.4667 402.251 12.66 402.211 12.86C402.171 13.0467 402.084 13.2133 401.951 13.36C401.831 13.4933 401.677 13.58 401.491 13.62C401.304 13.6467 401.097 13.6 400.871 13.48C400.577 13.3067 400.277 13.18 399.971 13.1C399.664 13.0067 399.371 12.96 399.091 12.96C398.651 12.96 398.264 13.0333 397.931 13.18C397.597 13.3133 397.311 13.5133 397.071 13.78C396.844 14.0333 396.671 14.3533 396.551 14.74C396.431 15.1267 396.371 15.5733 396.371 16.08C396.371 17.0667 396.604 17.8467 397.071 18.42C397.551 18.98 398.224 19.26 399.091 19.26C399.371 19.26 399.657 19.22 399.951 19.14C400.257 19.06 400.564 18.9333 400.871 18.76C401.097 18.64 401.297 18.6 401.471 18.64C401.657 18.68 401.811 18.7733 401.931 18.92C402.051 19.0533 402.124 19.22 402.151 19.42C402.177 19.6067 402.151 19.7933 402.071 19.98C402.004 20.1667 401.871 20.32 401.671 20.44C401.231 20.7067 400.764 20.9 400.271 21.02C399.777 21.14 399.311 21.2 398.871 21.2ZM405.064 21.16C404.651 21.16 404.331 21.0533 404.104 20.84C403.891 20.6133 403.784 20.2933 403.784 19.88V12.32C403.784 11.9067 403.891 11.5933 404.104 11.38C404.318 11.1667 404.618 11.06 405.004 11.06C405.391 11.06 405.691 11.1667 405.904 11.38C406.118 11.5933 406.224 11.9067 406.224 12.32V13.58H406.024C406.211 12.78 406.578 12.1733 407.124 11.76C407.671 11.3467 408.398 11.1 409.304 11.02C409.584 10.9933 409.804 11.0667 409.964 11.24C410.138 11.4 410.238 11.6533 410.264 12C410.291 12.3333 410.211 12.6067 410.024 12.82C409.851 13.02 409.584 13.14 409.224 13.18L408.784 13.22C407.971 13.3 407.358 13.5533 406.944 13.98C406.531 14.3933 406.324 14.98 406.324 15.74V19.88C406.324 20.2933 406.218 20.6133 406.004 20.84C405.791 21.0533 405.478 21.16 405.064 21.16ZM416.28 21.2C415.173 21.2 414.22 20.9933 413.42 20.58C412.62 20.1667 412 19.58 411.56 18.82C411.133 18.06 410.92 17.16 410.92 16.12C410.92 15.1067 411.127 14.22 411.54 13.46C411.967 12.7 412.547 12.1067 413.28 11.68C414.027 11.24 414.873 11.02 415.82 11.02C416.513 11.02 417.133 11.1333 417.68 11.36C418.24 11.5867 418.713 11.9133 419.1 12.34C419.5 12.7667 419.8 13.2867 420 13.9C420.213 14.5 420.32 15.18 420.32 15.94C420.32 16.18 420.233 16.3667 420.06 16.5C419.9 16.62 419.667 16.68 419.36 16.68H412.94V15.24H418.56L418.24 15.54C418.24 14.9267 418.147 14.4133 417.96 14C417.787 13.5867 417.527 13.2733 417.18 13.06C416.847 12.8333 416.427 12.72 415.92 12.72C415.36 12.72 414.88 12.8533 414.48 13.12C414.093 13.3733 413.793 13.74 413.58 14.22C413.38 14.6867 413.28 15.2467 413.28 15.9V16.04C413.28 17.1333 413.533 17.9533 414.04 18.5C414.56 19.0333 415.32 19.3 416.32 19.3C416.667 19.3 417.053 19.26 417.48 19.18C417.92 19.0867 418.333 18.9333 418.72 18.72C419 18.56 419.247 18.4933 419.46 18.52C419.673 18.5333 419.84 18.6067 419.96 18.74C420.093 18.8733 420.173 19.04 420.2 19.24C420.227 19.4267 420.187 19.62 420.08 19.82C419.987 20.02 419.82 20.1933 419.58 20.34C419.113 20.6333 418.573 20.8533 417.96 21C417.36 21.1333 416.8 21.2 416.28 21.2ZM425.52 21.2C424.813 21.2 424.18 21.0667 423.62 20.8C423.073 20.52 422.64 20.1467 422.32 19.68C422.013 19.2133 421.86 18.6867 421.86 18.1C421.86 17.38 422.047 16.8133 422.42 16.4C422.793 15.9733 423.4 15.6667 424.24 15.48C425.08 15.2933 426.207 15.2 427.62 15.2H428.62V16.64H427.64C426.813 16.64 426.153 16.68 425.66 16.76C425.167 16.84 424.813 16.98 424.6 17.18C424.4 17.3667 424.3 17.6333 424.3 17.98C424.3 18.42 424.453 18.78 424.76 19.06C425.067 19.34 425.493 19.48 426.04 19.48C426.48 19.48 426.867 19.38 427.2 19.18C427.547 18.9667 427.82 18.68 428.02 18.32C428.22 17.96 428.32 17.5467 428.32 17.08V14.78C428.32 14.1133 428.173 13.6333 427.88 13.34C427.587 13.0467 427.093 12.9 426.4 12.9C426.013 12.9 425.593 12.9467 425.14 13.04C424.7 13.1333 424.233 13.2933 423.74 13.52C423.487 13.64 423.26 13.6733 423.06 13.62C422.873 13.5667 422.727 13.46 422.62 13.3C422.513 13.1267 422.46 12.94 422.46 12.74C422.46 12.54 422.513 12.3467 422.62 12.16C422.727 11.96 422.907 11.8133 423.16 11.72C423.773 11.4667 424.36 11.2867 424.92 11.18C425.493 11.0733 426.013 11.02 426.48 11.02C427.44 11.02 428.227 11.1667 428.84 11.46C429.467 11.7533 429.933 12.2 430.24 12.8C430.547 13.3867 430.7 14.1467 430.7 15.08V19.88C430.7 20.2933 430.6 20.6133 430.4 20.84C430.2 21.0533 429.913 21.16 429.54 21.16C429.167 21.16 428.873 21.0533 428.66 20.84C428.46 20.6133 428.36 20.2933 428.36 19.88V18.92H428.52C428.427 19.3867 428.24 19.7933 427.96 20.14C427.693 20.4733 427.353 20.7333 426.94 20.92C426.527 21.1067 426.053 21.2 425.52 21.2ZM436.818 21.2C436.244 21.2 435.638 21.14 434.998 21.02C434.358 20.9 433.784 20.6933 433.278 20.4C433.064 20.2667 432.911 20.1133 432.818 19.94C432.738 19.7533 432.704 19.5733 432.718 19.4C432.744 19.2133 432.811 19.0533 432.918 18.92C433.038 18.7867 433.184 18.7 433.358 18.66C433.544 18.62 433.744 18.6533 433.958 18.76C434.491 19.0133 434.991 19.1933 435.458 19.3C435.924 19.3933 436.384 19.44 436.838 19.44C437.478 19.44 437.951 19.3333 438.258 19.12C438.578 18.8933 438.738 18.6 438.738 18.24C438.738 17.9333 438.631 17.7 438.418 17.54C438.218 17.3667 437.911 17.24 437.498 17.16L435.498 16.78C434.671 16.62 434.038 16.32 433.598 15.88C433.171 15.4267 432.958 14.8467 432.958 14.14C432.958 13.5 433.131 12.9467 433.478 12.48C433.838 12.0133 434.331 11.6533 434.958 11.4C435.584 11.1467 436.304 11.02 437.118 11.02C437.704 11.02 438.251 11.0867 438.758 11.22C439.278 11.34 439.778 11.5333 440.258 11.8C440.458 11.9067 440.591 12.0467 440.658 12.22C440.738 12.3933 440.758 12.5733 440.718 12.76C440.678 12.9333 440.598 13.0933 440.478 13.24C440.358 13.3733 440.204 13.46 440.018 13.5C439.844 13.5267 439.644 13.4867 439.418 13.38C439.004 13.1667 438.604 13.0133 438.218 12.92C437.844 12.8267 437.484 12.78 437.138 12.78C436.484 12.78 435.998 12.8933 435.678 13.12C435.371 13.3467 435.218 13.6467 435.218 14.02C435.218 14.3 435.311 14.5333 435.498 14.72C435.684 14.9067 435.971 15.0333 436.358 15.1L438.358 15.48C439.224 15.64 439.878 15.9333 440.318 16.36C440.771 16.7867 440.998 17.36 440.998 18.08C440.998 19.0533 440.618 19.82 439.858 20.38C439.098 20.9267 438.084 21.2 436.818 21.2ZM447.823 21.2C446.716 21.2 445.763 20.9933 444.963 20.58C444.163 20.1667 443.543 19.58 443.103 18.82C442.676 18.06 442.463 17.16 442.463 16.12C442.463 15.1067 442.67 14.22 443.083 13.46C443.51 12.7 444.09 12.1067 444.823 11.68C445.57 11.24 446.416 11.02 447.363 11.02C448.056 11.02 448.676 11.1333 449.223 11.36C449.783 11.5867 450.256 11.9133 450.643 12.34C451.043 12.7667 451.343 13.2867 451.543 13.9C451.756 14.5 451.863 15.18 451.863 15.94C451.863 16.18 451.776 16.3667 451.603 16.5C451.443 16.62 451.21 16.68 450.903 16.68H444.483V15.24H450.103L449.783 15.54C449.783 14.9267 449.69 14.4133 449.503 14C449.33 13.5867 449.07 13.2733 448.723 13.06C448.39 12.8333 447.97 12.72 447.463 12.72C446.903 12.72 446.423 12.8533 446.023 13.12C445.636 13.3733 445.336 13.74 445.123 14.22C444.923 14.6867 444.823 15.2467 444.823 15.9V16.04C444.823 17.1333 445.076 17.9533 445.583 18.5C446.103 19.0333 446.863 19.3 447.863 19.3C448.21 19.3 448.596 19.26 449.023 19.18C449.463 19.0867 449.876 18.9333 450.263 18.72C450.543 18.56 450.79 18.4933 451.003 18.52C451.216 18.5333 451.383 18.6067 451.503 18.74C451.636 18.8733 451.716 19.04 451.743 19.24C451.77 19.4267 451.73 19.62 451.623 19.82C451.53 20.02 451.363 20.1933 451.123 20.34C450.656 20.6333 450.116 20.8533 449.503 21C448.903 21.1333 448.343 21.2 447.823 21.2ZM460.513 21.14C460.113 21.14 459.806 21.02 459.593 20.78C459.379 20.54 459.273 20.2067 459.273 19.78V12.44C459.273 12 459.379 11.6667 459.593 11.44C459.806 11.2 460.113 11.08 460.513 11.08C460.913 11.08 461.219 11.2 461.433 11.44C461.659 11.6667 461.773 12 461.773 12.44V19.78C461.773 20.2067 461.666 20.54 461.453 20.78C461.239 21.02 460.926 21.14 460.513 21.14ZM460.513 9.22C460.046 9.22 459.679 9.10667 459.413 8.88C459.159 8.64 459.033 8.31333 459.033 7.9C459.033 7.47333 459.159 7.14667 459.413 6.92C459.679 6.69333 460.046 6.58 460.513 6.58C460.993 6.58 461.359 6.69333 461.613 6.92C461.866 7.14667 461.993 7.47333 461.993 7.9C461.993 8.31333 461.866 8.64 461.613 8.88C461.359 9.10667 460.993 9.22 460.513 9.22ZM465.61 21.16C465.21 21.16 464.904 21.0533 464.69 20.84C464.477 20.6133 464.37 20.2933 464.37 19.88V12.32C464.37 11.9067 464.477 11.5933 464.69 11.38C464.904 11.1667 465.204 11.06 465.59 11.06C465.977 11.06 466.277 11.1667 466.49 11.38C466.704 11.5933 466.81 11.9067 466.81 12.32V13.68L466.59 13.18C466.884 12.4733 467.337 11.94 467.95 11.58C468.577 11.2067 469.284 11.02 470.07 11.02C470.857 11.02 471.504 11.1667 472.01 11.46C472.517 11.7533 472.897 12.2 473.15 12.8C473.404 13.3867 473.53 14.1333 473.53 15.04V19.88C473.53 20.2933 473.424 20.6133 473.21 20.84C472.997 21.0533 472.69 21.16 472.29 21.16C471.89 21.16 471.577 21.0533 471.35 20.84C471.137 20.6133 471.03 20.2933 471.03 19.88V15.16C471.03 14.4 470.884 13.8467 470.59 13.5C470.31 13.1533 469.87 12.98 469.27 12.98C468.537 12.98 467.95 13.2133 467.51 13.68C467.084 14.1333 466.87 14.74 466.87 15.5V19.88C466.87 20.7333 466.45 21.16 465.61 21.16ZM485.459 21.16C485.126 21.16 484.833 21.0733 484.579 20.9C484.339 20.7267 484.139 20.46 483.979 20.1L480.799 12.72C480.679 12.4267 480.633 12.1533 480.659 11.9C480.699 11.6467 480.819 11.4467 481.019 11.3C481.233 11.14 481.519 11.06 481.879 11.06C482.186 11.06 482.433 11.1333 482.619 11.28C482.806 11.4133 482.973 11.6733 483.119 12.06L485.819 18.8H485.219L487.999 12.04C488.146 11.6667 488.313 11.4133 488.499 11.28C488.699 11.1333 488.966 11.06 489.299 11.06C489.593 11.06 489.826 11.14 489.999 11.3C490.173 11.4467 490.279 11.6467 490.319 11.9C490.359 12.14 490.313 12.4067 490.179 12.7L486.939 20.1C486.793 20.46 486.593 20.7267 486.339 20.9C486.099 21.0733 485.806 21.16 485.459 21.16ZM495.071 21.2C494.364 21.2 493.731 21.0667 493.171 20.8C492.624 20.52 492.191 20.1467 491.871 19.68C491.564 19.2133 491.411 18.6867 491.411 18.1C491.411 17.38 491.597 16.8133 491.971 16.4C492.344 15.9733 492.951 15.6667 493.791 15.48C494.631 15.2933 495.757 15.2 497.171 15.2H498.171V16.64H497.191C496.364 16.64 495.704 16.68 495.211 16.76C494.717 16.84 494.364 16.98 494.151 17.18C493.951 17.3667 493.851 17.6333 493.851 17.98C493.851 18.42 494.004 18.78 494.311 19.06C494.617 19.34 495.044 19.48 495.591 19.48C496.031 19.48 496.417 19.38 496.751 19.18C497.097 18.9667 497.371 18.68 497.571 18.32C497.771 17.96 497.871 17.5467 497.871 17.08V14.78C497.871 14.1133 497.724 13.6333 497.431 13.34C497.137 13.0467 496.644 12.9 495.951 12.9C495.564 12.9 495.144 12.9467 494.691 13.04C494.251 13.1333 493.784 13.2933 493.291 13.52C493.037 13.64 492.811 13.6733 492.611 13.62C492.424 13.5667 492.277 13.46 492.171 13.3C492.064 13.1267 492.011 12.94 492.011 12.74C492.011 12.54 492.064 12.3467 492.171 12.16C492.277 11.96 492.457 11.8133 492.711 11.72C493.324 11.4667 493.911 11.2867 494.471 11.18C495.044 11.0733 495.564 11.02 496.031 11.02C496.991 11.02 497.777 11.1667 498.391 11.46C499.017 11.7533 499.484 12.2 499.791 12.8C500.097 13.3867 500.251 14.1467 500.251 15.08V19.88C500.251 20.2933 500.151 20.6133 499.951 20.84C499.751 21.0533 499.464 21.16 499.091 21.16C498.717 21.16 498.424 21.0533 498.211 20.84C498.011 20.6133 497.911 20.2933 497.911 19.88V18.92H498.071C497.977 19.3867 497.791 19.7933 497.511 20.14C497.244 20.4733 496.904 20.7333 496.491 20.92C496.077 21.1067 495.604 21.2 495.071 21.2ZM506.128 21.2C505.022 21.2 504.188 20.8867 503.628 20.26C503.068 19.62 502.788 18.6867 502.788 17.46V8C502.788 7.58667 502.895 7.27333 503.108 7.06C503.322 6.84667 503.628 6.74 504.028 6.74C504.428 6.74 504.735 6.84667 504.948 7.06C505.175 7.27333 505.288 7.58667 505.288 8V17.34C505.288 17.9533 505.415 18.4067 505.668 18.7C505.935 18.9933 506.308 19.14 506.788 19.14C506.895 19.14 506.995 19.14 507.088 19.14C507.182 19.1267 507.275 19.1133 507.368 19.1C507.555 19.0733 507.682 19.1267 507.748 19.26C507.815 19.38 507.848 19.6333 507.848 20.02C507.848 20.3533 507.782 20.6133 507.648 20.8C507.515 20.9867 507.295 21.1 506.988 21.14C506.855 21.1533 506.715 21.1667 506.568 21.18C506.422 21.1933 506.275 21.2 506.128 21.2ZM512.715 21.2C511.902 21.2 511.228 21.0533 510.695 20.76C510.162 20.4533 509.762 20 509.495 19.4C509.242 18.8 509.115 18.0533 509.115 17.16V12.32C509.115 11.8933 509.222 11.58 509.435 11.38C509.648 11.1667 509.955 11.06 510.355 11.06C510.755 11.06 511.062 11.1667 511.275 11.38C511.502 11.58 511.615 11.8933 511.615 12.32V17.2C511.615 17.8933 511.755 18.4067 512.035 18.74C512.315 19.0733 512.762 19.24 513.375 19.24C514.042 19.24 514.588 19.0133 515.015 18.56C515.442 18.0933 515.655 17.48 515.655 16.72V12.32C515.655 11.8933 515.762 11.58 515.975 11.38C516.188 11.1667 516.495 11.06 516.895 11.06C517.295 11.06 517.602 11.1667 517.815 11.38C518.042 11.58 518.155 11.8933 518.155 12.32V19.88C518.155 20.7333 517.748 21.16 516.935 21.16C516.548 21.16 516.248 21.0533 516.035 20.84C515.822 20.6133 515.715 20.2933 515.715 19.88V18.36L515.995 18.96C515.715 19.68 515.288 20.2333 514.715 20.62C514.155 21.0067 513.488 21.2 512.715 21.2ZM525.577 21.2C524.47 21.2 523.517 20.9933 522.717 20.58C521.917 20.1667 521.297 19.58 520.857 18.82C520.43 18.06 520.217 17.16 520.217 16.12C520.217 15.1067 520.424 14.22 520.837 13.46C521.264 12.7 521.844 12.1067 522.577 11.68C523.324 11.24 524.17 11.02 525.117 11.02C525.81 11.02 526.43 11.1333 526.977 11.36C527.537 11.5867 528.01 11.9133 528.397 12.34C528.797 12.7667 529.097 13.2867 529.297 13.9C529.51 14.5 529.617 15.18 529.617 15.94C529.617 16.18 529.53 16.3667 529.357 16.5C529.197 16.62 528.964 16.68 528.657 16.68H522.237V15.24H527.857L527.537 15.54C527.537 14.9267 527.444 14.4133 527.257 14C527.084 13.5867 526.824 13.2733 526.477 13.06C526.144 12.8333 525.724 12.72 525.217 12.72C524.657 12.72 524.177 12.8533 523.777 13.12C523.39 13.3733 523.09 13.74 522.877 14.22C522.677 14.6867 522.577 15.2467 522.577 15.9V16.04C522.577 17.1333 522.83 17.9533 523.337 18.5C523.857 19.0333 524.617 19.3 525.617 19.3C525.964 19.3 526.35 19.26 526.777 19.18C527.217 19.0867 527.63 18.9333 528.017 18.72C528.297 18.56 528.544 18.4933 528.757 18.52C528.97 18.5333 529.137 18.6067 529.257 18.74C529.39 18.8733 529.47 19.04 529.497 19.24C529.524 19.4267 529.484 19.62 529.377 19.82C529.284 20.02 529.117 20.1933 528.877 20.34C528.41 20.6333 527.87 20.8533 527.257 21C526.657 21.1333 526.097 21.2 525.577 21.2ZM541.487 21.2C540.473 21.2 539.593 20.9933 538.847 20.58C538.1 20.1667 537.52 19.58 537.107 18.82C536.693 18.0467 536.487 17.14 536.487 16.1C536.487 15.3133 536.6 14.6133 536.827 14C537.067 13.3733 537.407 12.84 537.847 12.4C538.287 11.9467 538.813 11.6067 539.427 11.38C540.04 11.14 540.727 11.02 541.487 11.02C542.5 11.02 543.38 11.2267 544.127 11.64C544.873 12.0533 545.453 12.64 545.867 13.4C546.28 14.16 546.487 15.06 546.487 16.1C546.487 16.8867 546.367 17.5933 546.127 18.22C545.9 18.8467 545.567 19.3867 545.127 19.84C544.687 20.28 544.16 20.62 543.547 20.86C542.933 21.0867 542.247 21.2 541.487 21.2ZM541.487 19.3C541.98 19.3 542.413 19.18 542.787 18.94C543.16 18.7 543.447 18.3467 543.647 17.88C543.86 17.4 543.967 16.8067 543.967 16.1C543.967 15.0333 543.74 14.24 543.287 13.72C542.833 13.1867 542.233 12.92 541.487 12.92C540.993 12.92 540.56 13.04 540.187 13.28C539.813 13.5067 539.52 13.86 539.307 14.34C539.107 14.8067 539.007 15.3933 539.007 16.1C539.007 17.1533 539.233 17.9533 539.687 18.5C540.14 19.0333 540.74 19.3 541.487 19.3ZM550.372 21.16C549.972 21.16 549.659 21.0533 549.432 20.84C549.219 20.6133 549.112 20.2933 549.112 19.88V13.1H548.192C547.872 13.1 547.626 13.02 547.452 12.86C547.279 12.6867 547.192 12.4533 547.192 12.16C547.192 11.8533 547.279 11.62 547.452 11.46C547.626 11.3 547.872 11.22 548.192 11.22H549.832L549.112 11.88V11.2C549.112 9.82667 549.459 8.8 550.152 8.12C550.846 7.42667 551.846 7.02 553.152 6.9L553.832 6.84C554.099 6.81333 554.312 6.86 554.472 6.98C554.632 7.08667 554.739 7.23333 554.792 7.42C554.846 7.59333 554.852 7.77333 554.812 7.96C554.772 8.14667 554.686 8.31333 554.552 8.46C554.432 8.59333 554.272 8.66667 554.072 8.68L553.792 8.7C553.032 8.75333 552.479 8.94667 552.132 9.28C551.786 9.61333 551.612 10.12 551.612 10.8V11.54L551.292 11.22H553.312C553.632 11.22 553.879 11.3 554.052 11.46C554.226 11.62 554.312 11.8533 554.312 12.16C554.312 12.4533 554.226 12.6867 554.052 12.86C553.879 13.02 553.632 13.1 553.312 13.1H551.612V19.88C551.612 20.7333 551.199 21.16 550.372 21.16Z" fill="#444444"/>
<rect x="558.5" width="19" height="28" rx="5" fill="#E7FBFF"/>
<path d="M563.625 19C563.625 18.9089 563.632 18.8242 563.645 18.7461C563.671 18.6159 563.781 18.5378 563.977 18.5117C564.354 18.4596 564.68 18.2643 564.953 17.9258L567.199 15.0352L564.562 11.1484H563.645V10.6602H567.805V11.1484H566.594L568.488 13.9609L570.559 11.1484H569.23V10.6602H572.141C572.141 10.7513 572.134 10.8359 572.121 10.9141C572.082 11.0443 571.965 11.1159 571.77 11.1289C571.366 11.181 571.034 11.3828 570.773 11.7344L568.801 14.4297L571.555 18.5117H571.945C572.01 18.5117 572.076 18.5182 572.141 18.5312C572.336 18.5573 572.434 18.7135 572.434 19H568.43V18.5117H569.582L567.531 15.4844L565.188 18.5117H566.613V19H563.625Z" fill="#1CB9D9"/>
<path d="M584.02 21.1C583.566 21.1 583.2 20.96 582.92 20.68C582.653 20.4 582.52 20.04 582.52 19.6C582.52 19.1733 582.653 18.8267 582.92 18.56C583.2 18.28 583.566 18.14 584.02 18.14C584.486 18.14 584.846 18.28 585.1 18.56C585.366 18.8267 585.5 19.1733 585.5 19.6C585.5 20.04 585.366 20.4 585.1 20.68C584.846 20.96 584.486 21.1 584.02 21.1Z" fill="#444444"/>
<path d="M220.33 53.16C219.916 53.16 219.596 53.0467 219.37 52.82C219.156 52.58 219.05 52.2533 219.05 51.84V40.06C219.05 39.6333 219.156 39.3067 219.37 39.08C219.596 38.8533 219.916 38.74 220.33 38.74C220.743 38.74 221.056 38.8533 221.27 39.08C221.496 39.3067 221.61 39.6333 221.61 40.06V51.84C221.61 52.2533 221.503 52.58 221.29 52.82C221.076 53.0467 220.756 53.16 220.33 53.16ZM228.934 53.2C228.068 53.2 227.341 53.0533 226.754 52.76C226.181 52.4667 225.754 52.04 225.474 51.48C225.194 50.9067 225.054 50.2 225.054 49.36V45.1H224.014C223.694 45.1 223.448 45.02 223.274 44.86C223.101 44.6867 223.014 44.4533 223.014 44.16C223.014 43.8533 223.101 43.62 223.274 43.46C223.448 43.3 223.694 43.22 224.014 43.22H225.054V41.4C225.054 40.9867 225.161 40.6733 225.374 40.46C225.601 40.2467 225.914 40.14 226.314 40.14C226.714 40.14 227.021 40.2467 227.234 40.46C227.448 40.6733 227.554 40.9867 227.554 41.4V43.22H229.674C229.994 43.22 230.241 43.3 230.414 43.46C230.588 43.62 230.674 43.8533 230.674 44.16C230.674 44.4533 230.588 44.6867 230.414 44.86C230.241 45.02 229.994 45.1 229.674 45.1H227.554V49.22C227.554 49.86 227.694 50.34 227.974 50.66C228.254 50.98 228.708 51.14 229.334 51.14C229.561 51.14 229.761 51.12 229.934 51.08C230.108 51.04 230.261 51.0133 230.394 51C230.554 50.9867 230.688 51.04 230.794 51.16C230.901 51.2667 230.954 51.4933 230.954 51.84C230.954 52.1067 230.908 52.3467 230.814 52.56C230.734 52.76 230.581 52.9 230.354 52.98C230.181 53.0333 229.954 53.08 229.674 53.12C229.394 53.1733 229.148 53.2 228.934 53.2ZM238.8 53.14C238.4 53.14 238.093 53.02 237.88 52.78C237.666 52.54 237.56 52.2067 237.56 51.78V44.44C237.56 44 237.666 43.6667 237.88 43.44C238.093 43.2 238.4 43.08 238.8 43.08C239.2 43.08 239.506 43.2 239.72 43.44C239.946 43.6667 240.06 44 240.06 44.44V51.78C240.06 52.2067 239.953 52.54 239.74 52.78C239.526 53.02 239.213 53.14 238.8 53.14ZM238.8 41.22C238.333 41.22 237.966 41.1067 237.7 40.88C237.446 40.64 237.32 40.3133 237.32 39.9C237.32 39.4733 237.446 39.1467 237.7 38.92C237.966 38.6933 238.333 38.58 238.8 38.58C239.28 38.58 239.646 38.6933 239.9 38.92C240.153 39.1467 240.28 39.4733 240.28 39.9C240.28 40.3133 240.153 40.64 239.9 40.88C239.646 41.1067 239.28 41.22 238.8 41.22ZM246.237 53.2C245.664 53.2 245.057 53.14 244.417 53.02C243.777 52.9 243.204 52.6933 242.697 52.4C242.484 52.2667 242.331 52.1133 242.237 51.94C242.157 51.7533 242.124 51.5733 242.137 51.4C242.164 51.2133 242.231 51.0533 242.337 50.92C242.457 50.7867 242.604 50.7 242.777 50.66C242.964 50.62 243.164 50.6533 243.377 50.76C243.911 51.0133 244.411 51.1933 244.877 51.3C245.344 51.3933 245.804 51.44 246.257 51.44C246.897 51.44 247.371 51.3333 247.677 51.12C247.997 50.8933 248.157 50.6 248.157 50.24C248.157 49.9333 248.051 49.7 247.837 49.54C247.637 49.3667 247.331 49.24 246.917 49.16L244.917 48.78C244.091 48.62 243.457 48.32 243.017 47.88C242.591 47.4267 242.377 46.8467 242.377 46.14C242.377 45.5 242.551 44.9467 242.897 44.48C243.257 44.0133 243.751 43.6533 244.377 43.4C245.004 43.1467 245.724 43.02 246.537 43.02C247.124 43.02 247.671 43.0867 248.177 43.22C248.697 43.34 249.197 43.5333 249.677 43.8C249.877 43.9067 250.011 44.0467 250.077 44.22C250.157 44.3933 250.177 44.5733 250.137 44.76C250.097 44.9333 250.017 45.0933 249.897 45.24C249.777 45.3733 249.624 45.46 249.437 45.5C249.264 45.5267 249.064 45.4867 248.837 45.38C248.424 45.1667 248.024 45.0133 247.637 44.92C247.264 44.8267 246.904 44.78 246.557 44.78C245.904 44.78 245.417 44.8933 245.097 45.12C244.791 45.3467 244.637 45.6467 244.637 46.02C244.637 46.3 244.731 46.5333 244.917 46.72C245.104 46.9067 245.391 47.0333 245.777 47.1L247.777 47.48C248.644 47.64 249.297 47.9333 249.737 48.36C250.191 48.7867 250.417 49.36 250.417 50.08C250.417 51.0533 250.037 51.82 249.277 52.38C248.517 52.9267 247.504 53.2 246.237 53.2ZM261.073 53.2C260.366 53.2 259.733 53.0667 259.173 52.8C258.626 52.52 258.193 52.1467 257.873 51.68C257.566 51.2133 257.413 50.6867 257.413 50.1C257.413 49.38 257.599 48.8133 257.973 48.4C258.346 47.9733 258.953 47.6667 259.793 47.48C260.633 47.2933 261.759 47.2 263.173 47.2H264.173V48.64H263.193C262.366 48.64 261.706 48.68 261.213 48.76C260.719 48.84 260.366 48.98 260.153 49.18C259.953 49.3667 259.853 49.6333 259.853 49.98C259.853 50.42 260.006 50.78 260.313 51.06C260.619 51.34 261.046 51.48 261.593 51.48C262.033 51.48 262.419 51.38 262.753 51.18C263.099 50.9667 263.373 50.68 263.573 50.32C263.773 49.96 263.873 49.5467 263.873 49.08V46.78C263.873 46.1133 263.726 45.6333 263.433 45.34C263.139 45.0467 262.646 44.9 261.953 44.9C261.566 44.9 261.146 44.9467 260.693 45.04C260.253 45.1333 259.786 45.2933 259.293 45.52C259.039 45.64 258.813 45.6733 258.613 45.62C258.426 45.5667 258.279 45.46 258.173 45.3C258.066 45.1267 258.013 44.94 258.013 44.74C258.013 44.54 258.066 44.3467 258.173 44.16C258.279 43.96 258.459 43.8133 258.713 43.72C259.326 43.4667 259.913 43.2867 260.473 43.18C261.046 43.0733 261.566 43.02 262.033 43.02C262.993 43.02 263.779 43.1667 264.393 43.46C265.019 43.7533 265.486 44.2 265.793 44.8C266.099 45.3867 266.253 46.1467 266.253 47.08V51.88C266.253 52.2933 266.153 52.6133 265.953 52.84C265.753 53.0533 265.466 53.16 265.093 53.16C264.719 53.16 264.426 53.0533 264.213 52.84C264.013 52.6133 263.913 52.2933 263.913 51.88V50.92H264.073C263.979 51.3867 263.793 51.7933 263.513 52.14C263.246 52.4733 262.906 52.7333 262.493 52.92C262.079 53.1067 261.606 53.2 261.073 53.2Z" fill="#444444"/>
<rect x="271.5" y="32" width="191" height="28" rx="5" fill="#444444"/>
<path d="M279.042 53.14C278.642 53.14 278.335 53.02 278.122 52.78C277.909 52.54 277.802 52.2067 277.802 51.78V44.44C277.802 44 277.909 43.6667 278.122 43.44C278.335 43.2 278.642 43.08 279.042 43.08C279.442 43.08 279.749 43.2 279.962 43.44C280.189 43.6667 280.302 44 280.302 44.44V51.78C280.302 52.2067 280.195 52.54 279.982 52.78C279.769 53.02 279.455 53.14 279.042 53.14ZM279.042 41.22C278.575 41.22 278.209 41.1067 277.942 40.88C277.689 40.64 277.562 40.3133 277.562 39.9C277.562 39.4733 277.689 39.1467 277.942 38.92C278.209 38.6933 278.575 38.58 279.042 38.58C279.522 38.58 279.889 38.6933 280.142 38.92C280.395 39.1467 280.522 39.4733 280.522 39.9C280.522 40.3133 280.395 40.64 280.142 40.88C279.889 41.1067 279.522 41.22 279.042 41.22ZM284.14 53.16C283.74 53.16 283.433 53.0533 283.22 52.84C283.006 52.6133 282.9 52.2933 282.9 51.88V44.32C282.9 43.9067 283.006 43.5933 283.22 43.38C283.433 43.1667 283.733 43.06 284.12 43.06C284.506 43.06 284.806 43.1667 285.02 43.38C285.233 43.5933 285.34 43.9067 285.34 44.32V45.68L285.12 45.18C285.413 44.4733 285.866 43.94 286.48 43.58C287.106 43.2067 287.813 43.02 288.6 43.02C289.386 43.02 290.033 43.1667 290.54 43.46C291.046 43.7533 291.426 44.2 291.68 44.8C291.933 45.3867 292.06 46.1333 292.06 47.04V51.88C292.06 52.2933 291.953 52.6133 291.74 52.84C291.526 53.0533 291.22 53.16 290.82 53.16C290.42 53.16 290.106 53.0533 289.88 52.84C289.666 52.6133 289.56 52.2933 289.56 51.88V47.16C289.56 46.4 289.413 45.8467 289.12 45.5C288.84 45.1533 288.4 44.98 287.8 44.98C287.066 44.98 286.48 45.2133 286.04 45.68C285.613 46.1333 285.4 46.74 285.4 47.5V51.88C285.4 52.7333 284.98 53.16 284.14 53.16ZM299.119 53.2C298.092 53.2 297.199 52.9933 296.439 52.58C295.679 52.1533 295.092 51.5533 294.679 50.78C294.265 50.0067 294.059 49.1 294.059 48.06C294.059 47.2733 294.172 46.5733 294.399 45.96C294.639 45.3333 294.979 44.8067 295.419 44.38C295.859 43.94 296.392 43.6067 297.019 43.38C297.645 43.14 298.345 43.02 299.119 43.02C299.559 43.02 300.032 43.08 300.539 43.2C301.059 43.32 301.545 43.52 301.999 43.8C302.212 43.9333 302.352 44.0933 302.419 44.28C302.485 44.4667 302.499 44.66 302.459 44.86C302.419 45.0467 302.332 45.2133 302.199 45.36C302.079 45.4933 301.925 45.58 301.739 45.62C301.552 45.6467 301.345 45.6 301.119 45.48C300.825 45.3067 300.525 45.18 300.219 45.1C299.912 45.0067 299.619 44.96 299.339 44.96C298.899 44.96 298.512 45.0333 298.179 45.18C297.845 45.3133 297.559 45.5133 297.319 45.78C297.092 46.0333 296.919 46.3533 296.799 46.74C296.679 47.1267 296.619 47.5733 296.619 48.08C296.619 49.0667 296.852 49.8467 297.319 50.42C297.799 50.98 298.472 51.26 299.339 51.26C299.619 51.26 299.905 51.22 300.199 51.14C300.505 51.06 300.812 50.9333 301.119 50.76C301.345 50.64 301.545 50.6 301.719 50.64C301.905 50.68 302.059 50.7733 302.179 50.92C302.299 51.0533 302.372 51.22 302.399 51.42C302.425 51.6067 302.399 51.7933 302.319 51.98C302.252 52.1667 302.119 52.32 301.919 52.44C301.479 52.7067 301.012 52.9 300.519 53.02C300.025 53.14 299.559 53.2 299.119 53.2ZM305.312 53.16C304.899 53.16 304.579 53.0533 304.352 52.84C304.139 52.6133 304.032 52.2933 304.032 51.88V44.32C304.032 43.9067 304.139 43.5933 304.352 43.38C304.566 43.1667 304.866 43.06 305.252 43.06C305.639 43.06 305.939 43.1667 306.152 43.38C306.366 43.5933 306.472 43.9067 306.472 44.32V45.58H306.272C306.459 44.78 306.826 44.1733 307.372 43.76C307.919 43.3467 308.646 43.1 309.552 43.02C309.832 42.9933 310.052 43.0667 310.212 43.24C310.386 43.4 310.486 43.6533 310.512 44C310.539 44.3333 310.459 44.6067 310.272 44.82C310.099 45.02 309.832 45.14 309.472 45.18L309.032 45.22C308.219 45.3 307.606 45.5533 307.192 45.98C306.779 46.3933 306.572 46.98 306.572 47.74V51.88C306.572 52.2933 306.466 52.6133 306.252 52.84C306.039 53.0533 305.726 53.16 305.312 53.16ZM316.528 53.2C315.422 53.2 314.468 52.9933 313.668 52.58C312.868 52.1667 312.248 51.58 311.808 50.82C311.382 50.06 311.168 49.16 311.168 48.12C311.168 47.1067 311.375 46.22 311.788 45.46C312.215 44.7 312.795 44.1067 313.528 43.68C314.275 43.24 315.122 43.02 316.068 43.02C316.762 43.02 317.382 43.1333 317.928 43.36C318.488 43.5867 318.962 43.9133 319.348 44.34C319.748 44.7667 320.048 45.2867 320.248 45.9C320.462 46.5 320.568 47.18 320.568 47.94C320.568 48.18 320.482 48.3667 320.308 48.5C320.148 48.62 319.915 48.68 319.608 48.68H313.188V47.24H318.808L318.488 47.54C318.488 46.9267 318.395 46.4133 318.208 46C318.035 45.5867 317.775 45.2733 317.428 45.06C317.095 44.8333 316.675 44.72 316.168 44.72C315.608 44.72 315.128 44.8533 314.728 45.12C314.342 45.3733 314.042 45.74 313.828 46.22C313.628 46.6867 313.528 47.2467 313.528 47.9V48.04C313.528 49.1333 313.782 49.9533 314.288 50.5C314.808 51.0333 315.568 51.3 316.568 51.3C316.915 51.3 317.302 51.26 317.728 51.18C318.168 51.0867 318.582 50.9333 318.968 50.72C319.248 50.56 319.495 50.4933 319.708 50.52C319.922 50.5333 320.088 50.6067 320.208 50.74C320.342 50.8733 320.422 51.04 320.448 51.24C320.475 51.4267 320.435 51.62 320.328 51.82C320.235 52.02 320.068 52.1933 319.828 52.34C319.362 52.6333 318.822 52.8533 318.208 53C317.608 53.1333 317.048 53.2 316.528 53.2ZM325.768 53.2C325.061 53.2 324.428 53.0667 323.868 52.8C323.321 52.52 322.888 52.1467 322.568 51.68C322.261 51.2133 322.108 50.6867 322.108 50.1C322.108 49.38 322.295 48.8133 322.668 48.4C323.041 47.9733 323.648 47.6667 324.488 47.48C325.328 47.2933 326.455 47.2 327.868 47.2H328.868V48.64H327.888C327.061 48.64 326.401 48.68 325.908 48.76C325.415 48.84 325.061 48.98 324.848 49.18C324.648 49.3667 324.548 49.6333 324.548 49.98C324.548 50.42 324.701 50.78 325.008 51.06C325.315 51.34 325.741 51.48 326.288 51.48C326.728 51.48 327.115 51.38 327.448 51.18C327.795 50.9667 328.068 50.68 328.268 50.32C328.468 49.96 328.568 49.5467 328.568 49.08V46.78C328.568 46.1133 328.421 45.6333 328.128 45.34C327.835 45.0467 327.341 44.9 326.648 44.9C326.261 44.9 325.841 44.9467 325.388 45.04C324.948 45.1333 324.481 45.2933 323.988 45.52C323.735 45.64 323.508 45.6733 323.308 45.62C323.121 45.5667 322.975 45.46 322.868 45.3C322.761 45.1267 322.708 44.94 322.708 44.74C322.708 44.54 322.761 44.3467 322.868 44.16C322.975 43.96 323.155 43.8133 323.408 43.72C324.021 43.4667 324.608 43.2867 325.168 43.18C325.741 43.0733 326.261 43.02 326.728 43.02C327.688 43.02 328.475 43.1667 329.088 43.46C329.715 43.7533 330.181 44.2 330.488 44.8C330.795 45.3867 330.948 46.1467 330.948 47.08V51.88C330.948 52.2933 330.848 52.6133 330.648 52.84C330.448 53.0533 330.161 53.16 329.788 53.16C329.415 53.16 329.121 53.0533 328.908 52.84C328.708 52.6133 328.608 52.2933 328.608 51.88V50.92H328.768C328.675 51.3867 328.488 51.7933 328.208 52.14C327.941 52.4733 327.601 52.7333 327.188 52.92C326.775 53.1067 326.301 53.2 325.768 53.2ZM337.066 53.2C336.492 53.2 335.886 53.14 335.246 53.02C334.606 52.9 334.032 52.6933 333.526 52.4C333.312 52.2667 333.159 52.1133 333.066 51.94C332.986 51.7533 332.952 51.5733 332.966 51.4C332.992 51.2133 333.059 51.0533 333.166 50.92C333.286 50.7867 333.432 50.7 333.606 50.66C333.792 50.62 333.992 50.6533 334.206 50.76C334.739 51.0133 335.239 51.1933 335.706 51.3C336.172 51.3933 336.632 51.44 337.086 51.44C337.726 51.44 338.199 51.3333 338.506 51.12C338.826 50.8933 338.986 50.6 338.986 50.24C338.986 49.9333 338.879 49.7 338.666 49.54C338.466 49.3667 338.159 49.24 337.746 49.16L335.746 48.78C334.919 48.62 334.286 48.32 333.846 47.88C333.419 47.4267 333.206 46.8467 333.206 46.14C333.206 45.5 333.379 44.9467 333.726 44.48C334.086 44.0133 334.579 43.6533 335.206 43.4C335.832 43.1467 336.552 43.02 337.366 43.02C337.952 43.02 338.499 43.0867 339.006 43.22C339.526 43.34 340.026 43.5333 340.506 43.8C340.706 43.9067 340.839 44.0467 340.906 44.22C340.986 44.3933 341.006 44.5733 340.966 44.76C340.926 44.9333 340.846 45.0933 340.726 45.24C340.606 45.3733 340.452 45.46 340.266 45.5C340.092 45.5267 339.892 45.4867 339.666 45.38C339.252 45.1667 338.852 45.0133 338.466 44.92C338.092 44.8267 337.732 44.78 337.386 44.78C336.732 44.78 336.246 44.8933 335.926 45.12C335.619 45.3467 335.466 45.6467 335.466 46.02C335.466 46.3 335.559 46.5333 335.746 46.72C335.932 46.9067 336.219 47.0333 336.606 47.1L338.606 47.48C339.472 47.64 340.126 47.9333 340.566 48.36C341.019 48.7867 341.246 49.36 341.246 50.08C341.246 51.0533 340.866 51.82 340.106 52.38C339.346 52.9267 338.332 53.2 337.066 53.2ZM344.491 53.14C344.091 53.14 343.785 53.02 343.571 52.78C343.358 52.54 343.251 52.2067 343.251 51.78V44.44C343.251 44 343.358 43.6667 343.571 43.44C343.785 43.2 344.091 43.08 344.491 43.08C344.891 43.08 345.198 43.2 345.411 43.44C345.638 43.6667 345.751 44 345.751 44.44V51.78C345.751 52.2067 345.645 52.54 345.431 52.78C345.218 53.02 344.905 53.14 344.491 53.14ZM344.491 41.22C344.025 41.22 343.658 41.1067 343.391 40.88C343.138 40.64 343.011 40.3133 343.011 39.9C343.011 39.4733 343.138 39.1467 343.391 38.92C343.658 38.6933 344.025 38.58 344.491 38.58C344.971 38.58 345.338 38.6933 345.591 38.92C345.845 39.1467 345.971 39.4733 345.971 39.9C345.971 40.3133 345.845 40.64 345.591 40.88C345.338 41.1067 344.971 41.22 344.491 41.22ZM349.589 53.16C349.189 53.16 348.882 53.0533 348.669 52.84C348.455 52.6133 348.349 52.2933 348.349 51.88V44.32C348.349 43.9067 348.455 43.5933 348.669 43.38C348.882 43.1667 349.182 43.06 349.569 43.06C349.955 43.06 350.255 43.1667 350.469 43.38C350.682 43.5933 350.789 43.9067 350.789 44.32V45.68L350.569 45.18C350.862 44.4733 351.315 43.94 351.929 43.58C352.555 43.2067 353.262 43.02 354.049 43.02C354.835 43.02 355.482 43.1667 355.989 43.46C356.495 43.7533 356.875 44.2 357.129 44.8C357.382 45.3867 357.509 46.1333 357.509 47.04V51.88C357.509 52.2933 357.402 52.6133 357.189 52.84C356.975 53.0533 356.669 53.16 356.269 53.16C355.869 53.16 355.555 53.0533 355.329 52.84C355.115 52.6133 355.009 52.2933 355.009 51.88V47.16C355.009 46.4 354.862 45.8467 354.569 45.5C354.289 45.1533 353.849 44.98 353.249 44.98C352.515 44.98 351.929 45.2133 351.489 45.68C351.062 46.1333 350.849 46.74 350.849 47.5V51.88C350.849 52.7333 350.429 53.16 349.589 53.16ZM364.608 56.8C363.888 56.8 363.188 56.7333 362.508 56.6C361.841 56.4667 361.235 56.26 360.688 55.98C360.435 55.8467 360.261 55.6867 360.168 55.5C360.088 55.3133 360.061 55.12 360.088 54.92C360.128 54.7333 360.208 54.5667 360.328 54.42C360.461 54.2733 360.621 54.1733 360.808 54.12C360.995 54.0667 361.188 54.0933 361.388 54.2C361.975 54.4933 362.528 54.68 363.048 54.76C363.581 54.8533 364.035 54.9 364.408 54.9C365.301 54.9 365.968 54.68 366.408 54.24C366.861 53.8133 367.088 53.1733 367.088 52.32V50.52H367.268C367.068 51.2 366.648 51.7467 366.008 52.16C365.381 52.56 364.668 52.76 363.868 52.76C362.988 52.76 362.221 52.56 361.568 52.16C360.915 51.7467 360.408 51.1733 360.048 50.44C359.688 49.7067 359.508 48.8533 359.508 47.88C359.508 47.1467 359.608 46.4867 359.808 45.9C360.021 45.3 360.315 44.7867 360.688 44.36C361.075 43.9333 361.535 43.6067 362.068 43.38C362.615 43.14 363.215 43.02 363.868 43.02C364.695 43.02 365.415 43.2267 366.028 43.64C366.655 44.04 367.061 44.5733 367.248 45.24L367.048 45.74V44.32C367.048 43.9067 367.155 43.5933 367.368 43.38C367.595 43.1667 367.901 43.06 368.288 43.06C368.688 43.06 368.995 43.1667 369.208 43.38C369.421 43.5933 369.528 43.9067 369.528 44.32V52.02C369.528 53.6067 369.108 54.8 368.268 55.6C367.428 56.4 366.208 56.8 364.608 56.8ZM364.548 50.86C365.068 50.86 365.515 50.74 365.888 50.5C366.261 50.26 366.548 49.92 366.748 49.48C366.961 49.0267 367.068 48.4933 367.068 47.88C367.068 46.96 366.841 46.24 366.388 45.72C365.935 45.1867 365.321 44.92 364.548 44.92C364.028 44.92 363.581 45.04 363.208 45.28C362.835 45.52 362.541 45.86 362.328 46.3C362.128 46.74 362.028 47.2667 362.028 47.88C362.028 48.8 362.255 49.5267 362.708 50.06C363.161 50.5933 363.775 50.86 364.548 50.86ZM379.468 53.16C379.068 53.16 378.755 53.0533 378.528 52.84C378.315 52.6133 378.208 52.2933 378.208 51.88V45.1H377.288C376.968 45.1 376.721 45.02 376.548 44.86C376.375 44.6867 376.288 44.4533 376.288 44.16C376.288 43.8533 376.375 43.62 376.548 43.46C376.721 43.3 376.968 43.22 377.288 43.22H378.928L378.208 43.88V43.2C378.208 41.8267 378.555 40.8 379.248 40.12C379.941 39.4267 380.941 39.02 382.248 38.9L382.928 38.84C383.195 38.8133 383.408 38.86 383.568 38.98C383.728 39.0867 383.835 39.2333 383.888 39.42C383.941 39.5933 383.948 39.7733 383.908 39.96C383.868 40.1467 383.781 40.3133 383.648 40.46C383.528 40.5933 383.368 40.6667 383.168 40.68L382.888 40.7C382.128 40.7533 381.575 40.9467 381.228 41.28C380.881 41.6133 380.708 42.12 380.708 42.8V43.54L380.388 43.22H382.408C382.728 43.22 382.975 43.3 383.148 43.46C383.321 43.62 383.408 43.8533 383.408 44.16C383.408 44.4533 383.321 44.6867 383.148 44.86C382.975 45.02 382.728 45.1 382.408 45.1H380.708V51.88C380.708 52.7333 380.295 53.16 379.468 53.16ZM388.373 53.2C387.56 53.2 386.887 53.0533 386.353 52.76C385.82 52.4533 385.42 52 385.153 51.4C384.9 50.8 384.773 50.0533 384.773 49.16V44.32C384.773 43.8933 384.88 43.58 385.093 43.38C385.307 43.1667 385.613 43.06 386.013 43.06C386.413 43.06 386.72 43.1667 386.933 43.38C387.16 43.58 387.273 43.8933 387.273 44.32V49.2C387.273 49.8933 387.413 50.4067 387.693 50.74C387.973 51.0733 388.42 51.24 389.033 51.24C389.7 51.24 390.247 51.0133 390.673 50.56C391.1 50.0933 391.313 49.48 391.313 48.72V44.32C391.313 43.8933 391.42 43.58 391.633 43.38C391.847 43.1667 392.153 43.06 392.553 43.06C392.953 43.06 393.26 43.1667 393.473 43.38C393.7 43.58 393.813 43.8933 393.813 44.32V51.88C393.813 52.7333 393.407 53.16 392.593 53.16C392.207 53.16 391.907 53.0533 391.693 52.84C391.48 52.6133 391.373 52.2933 391.373 51.88V50.36L391.653 50.96C391.373 51.68 390.947 52.2333 390.373 52.62C389.813 53.0067 389.147 53.2 388.373 53.2ZM397.655 53.16C397.255 53.16 396.949 53.0533 396.735 52.84C396.522 52.6133 396.415 52.2933 396.415 51.88V44.32C396.415 43.9067 396.522 43.5933 396.735 43.38C396.949 43.1667 397.249 43.06 397.635 43.06C398.022 43.06 398.322 43.1667 398.535 43.38C398.749 43.5933 398.855 43.9067 398.855 44.32V45.68L398.635 45.18C398.929 44.4733 399.382 43.94 399.995 43.58C400.622 43.2067 401.329 43.02 402.115 43.02C402.902 43.02 403.549 43.1667 404.055 43.46C404.562 43.7533 404.942 44.2 405.195 44.8C405.449 45.3867 405.575 46.1333 405.575 47.04V51.88C405.575 52.2933 405.469 52.6133 405.255 52.84C405.042 53.0533 404.735 53.16 404.335 53.16C403.935 53.16 403.622 53.0533 403.395 52.84C403.182 52.6133 403.075 52.2933 403.075 51.88V47.16C403.075 46.4 402.929 45.8467 402.635 45.5C402.355 45.1533 401.915 44.98 401.315 44.98C400.582 44.98 399.995 45.2133 399.555 45.68C399.129 46.1333 398.915 46.74 398.915 47.5V51.88C398.915 52.7333 398.495 53.16 397.655 53.16ZM412.634 53.2C411.608 53.2 410.714 52.9933 409.954 52.58C409.194 52.1533 408.608 51.5533 408.194 50.78C407.781 50.0067 407.574 49.1 407.574 48.06C407.574 47.2733 407.688 46.5733 407.914 45.96C408.154 45.3333 408.494 44.8067 408.934 44.38C409.374 43.94 409.908 43.6067 410.534 43.38C411.161 43.14 411.861 43.02 412.634 43.02C413.074 43.02 413.548 43.08 414.054 43.2C414.574 43.32 415.061 43.52 415.514 43.8C415.728 43.9333 415.868 44.0933 415.934 44.28C416.001 44.4667 416.014 44.66 415.974 44.86C415.934 45.0467 415.848 45.2133 415.714 45.36C415.594 45.4933 415.441 45.58 415.254 45.62C415.068 45.6467 414.861 45.6 414.634 45.48C414.341 45.3067 414.041 45.18 413.734 45.1C413.428 45.0067 413.134 44.96 412.854 44.96C412.414 44.96 412.028 45.0333 411.694 45.18C411.361 45.3133 411.074 45.5133 410.834 45.78C410.608 46.0333 410.434 46.3533 410.314 46.74C410.194 47.1267 410.134 47.5733 410.134 48.08C410.134 49.0667 410.368 49.8467 410.834 50.42C411.314 50.98 411.988 51.26 412.854 51.26C413.134 51.26 413.421 51.22 413.714 51.14C414.021 51.06 414.328 50.9333 414.634 50.76C414.861 50.64 415.061 50.6 415.234 50.64C415.421 50.68 415.574 50.7733 415.694 50.92C415.814 51.0533 415.888 51.22 415.914 51.42C415.941 51.6067 415.914 51.7933 415.834 51.98C415.768 52.1667 415.634 52.32 415.434 52.44C414.994 52.7067 414.528 52.9 414.034 53.02C413.541 53.14 413.074 53.2 412.634 53.2ZM422.067 53.2C421.2 53.2 420.474 53.0533 419.887 52.76C419.314 52.4667 418.887 52.04 418.607 51.48C418.327 50.9067 418.187 50.2 418.187 49.36V45.1H417.147C416.827 45.1 416.58 45.02 416.407 44.86C416.234 44.6867 416.147 44.4533 416.147 44.16C416.147 43.8533 416.234 43.62 416.407 43.46C416.58 43.3 416.827 43.22 417.147 43.22H418.187V41.4C418.187 40.9867 418.294 40.6733 418.507 40.46C418.734 40.2467 419.047 40.14 419.447 40.14C419.847 40.14 420.154 40.2467 420.367 40.46C420.58 40.6733 420.687 40.9867 420.687 41.4V43.22H422.807C423.127 43.22 423.374 43.3 423.547 43.46C423.72 43.62 423.807 43.8533 423.807 44.16C423.807 44.4533 423.72 44.6867 423.547 44.86C423.374 45.02 423.127 45.1 422.807 45.1H420.687V49.22C420.687 49.86 420.827 50.34 421.107 50.66C421.387 50.98 421.84 51.14 422.467 51.14C422.694 51.14 422.894 51.12 423.067 51.08C423.24 51.04 423.394 51.0133 423.527 51C423.687 50.9867 423.82 51.04 423.927 51.16C424.034 51.2667 424.087 51.4933 424.087 51.84C424.087 52.1067 424.04 52.3467 423.947 52.56C423.867 52.76 423.714 52.9 423.487 52.98C423.314 53.0333 423.087 53.08 422.807 53.12C422.527 53.1733 422.28 53.2 422.067 53.2ZM426.757 53.14C426.357 53.14 426.05 53.02 425.837 52.78C425.623 52.54 425.517 52.2067 425.517 51.78V44.44C425.517 44 425.623 43.6667 425.837 43.44C426.05 43.2 426.357 43.08 426.757 43.08C427.157 43.08 427.463 43.2 427.677 43.44C427.903 43.6667 428.017 44 428.017 44.44V51.78C428.017 52.2067 427.91 52.54 427.697 52.78C427.483 53.02 427.17 53.14 426.757 53.14ZM426.757 41.22C426.29 41.22 425.923 41.1067 425.657 40.88C425.403 40.64 425.277 40.3133 425.277 39.9C425.277 39.4733 425.403 39.1467 425.657 38.92C425.923 38.6933 426.29 38.58 426.757 38.58C427.237 38.58 427.603 38.6933 427.857 38.92C428.11 39.1467 428.237 39.4733 428.237 39.9C428.237 40.3133 428.11 40.64 427.857 40.88C427.603 41.1067 427.237 41.22 426.757 41.22ZM435.074 53.2C434.061 53.2 433.181 52.9933 432.434 52.58C431.688 52.1667 431.108 51.58 430.694 50.82C430.281 50.0467 430.074 49.14 430.074 48.1C430.074 47.3133 430.188 46.6133 430.414 46C430.654 45.3733 430.994 44.84 431.434 44.4C431.874 43.9467 432.401 43.6067 433.014 43.38C433.628 43.14 434.314 43.02 435.074 43.02C436.088 43.02 436.968 43.2267 437.714 43.64C438.461 44.0533 439.041 44.64 439.454 45.4C439.868 46.16 440.074 47.06 440.074 48.1C440.074 48.8867 439.954 49.5933 439.714 50.22C439.488 50.8467 439.154 51.3867 438.714 51.84C438.274 52.28 437.748 52.62 437.134 52.86C436.521 53.0867 435.834 53.2 435.074 53.2ZM435.074 51.3C435.568 51.3 436.001 51.18 436.374 50.94C436.748 50.7 437.034 50.3467 437.234 49.88C437.448 49.4 437.554 48.8067 437.554 48.1C437.554 47.0333 437.328 46.24 436.874 45.72C436.421 45.1867 435.821 44.92 435.074 44.92C434.581 44.92 434.148 45.04 433.774 45.28C433.401 45.5067 433.108 45.86 432.894 46.34C432.694 46.8067 432.594 47.3933 432.594 48.1C432.594 49.1533 432.821 49.9533 433.274 50.5C433.728 51.0333 434.328 51.3 435.074 51.3ZM443.378 53.16C442.978 53.16 442.671 53.0533 442.458 52.84C442.245 52.6133 442.138 52.2933 442.138 51.88V44.32C442.138 43.9067 442.245 43.5933 442.458 43.38C442.671 43.1667 442.971 43.06 443.358 43.06C443.745 43.06 444.045 43.1667 444.258 43.38C444.471 43.5933 444.578 43.9067 444.578 44.32V45.68L444.358 45.18C444.651 44.4733 445.105 43.94 445.718 43.58C446.345 43.2067 447.051 43.02 447.838 43.02C448.625 43.02 449.271 43.1667 449.778 43.46C450.285 43.7533 450.665 44.2 450.918 44.8C451.171 45.3867 451.298 46.1333 451.298 47.04V51.88C451.298 52.2933 451.191 52.6133 450.978 52.84C450.765 53.0533 450.458 53.16 450.058 53.16C449.658 53.16 449.345 53.0533 449.118 52.84C448.905 52.6133 448.798 52.2933 448.798 51.88V47.16C448.798 46.4 448.651 45.8467 448.358 45.5C448.078 45.1533 447.638 44.98 447.038 44.98C446.305 44.98 445.718 45.2133 445.278 45.68C444.851 46.1333 444.638 46.74 444.638 47.5V51.88C444.638 52.7333 444.218 53.16 443.378 53.16ZM455.037 53.1C454.584 53.1 454.217 52.96 453.937 52.68C453.67 52.4 453.537 52.04 453.537 51.6C453.537 51.1733 453.67 50.8267 453.937 50.56C454.217 50.28 454.584 50.14 455.037 50.14C455.504 50.14 455.864 50.28 456.117 50.56C456.384 50.8267 456.517 51.1733 456.517 51.6C456.517 52.04 456.384 52.4 456.117 52.68C455.864 52.96 455.504 53.1 455.037 53.1Z" fill="#F6F6F6"/>
</g>
<defs>
<clipPath id="clip0_1_28">
<rect width="680" height="60" fill="white"/>
</clipPath>
</defs>
</svg>
