<svg width="148" height="60" viewBox="0 0 148 60" fill="none" xmlns="http://www.w3.org/2000/svg">
<rect width="148" height="60" rx="10" fill="#1A1A1A"/>
<path d="M45.4219 21V26H40.4219" stroke="white" stroke-width="2" stroke-linecap="round" stroke-linejoin="round"/>
<path d="M45.3719 30.9996C45.1504 33.0054 44.2612 34.8786 42.8471 36.3183C41.433 37.758 39.5761 38.6807 37.5746 38.9382C35.5731 39.1956 33.5431 38.773 31.8107 37.7381C30.0782 36.7031 28.7439 35.116 28.0219 33.2316C27.3 31.3471 27.2323 29.2747 27.8297 27.3472C28.4272 25.4196 29.6551 23.7488 31.3163 22.603C32.9775 21.4573 34.9756 20.9031 36.9896 21.0294C39.0037 21.1557 40.9169 21.9552 42.4219 23.2996L45.4219 25.9996" stroke="white" stroke-width="2" stroke-linecap="round" stroke-linejoin="round"/>
<g clip-path="url(#clip0_5822_389)">
<path d="M63.8606 38.192C63.3646 38.192 62.9806 38.056 62.7086 37.784C62.4526 37.496 62.3246 37.104 62.3246 36.608V22.64C62.3246 22.128 62.4606 21.744 62.7326 21.488C63.0046 21.216 63.3886 21.08 63.8846 21.08H69.6686C71.5246 21.08 72.9566 21.528 73.9646 22.424C74.9726 23.304 75.4766 24.544 75.4766 26.144C75.4766 27.184 75.2446 28.08 74.7806 28.832C74.3326 29.584 73.6766 30.16 72.8126 30.56C71.9486 30.96 70.9006 31.16 69.6686 31.16L69.8846 30.8H70.6766C71.3326 30.8 71.9006 30.96 72.3806 31.28C72.8766 31.6 73.3086 32.104 73.6766 32.792L75.4766 36.128C75.6686 36.464 75.7566 36.792 75.7406 37.112C75.7246 37.432 75.6046 37.696 75.3806 37.904C75.1566 38.096 74.8286 38.192 74.3966 38.192C73.9646 38.192 73.6126 38.104 73.3406 37.928C73.0686 37.736 72.8286 37.448 72.6206 37.064L70.1966 32.6C69.9086 32.056 69.5646 31.696 69.1646 31.52C68.7806 31.328 68.2846 31.232 67.6766 31.232H65.3966V36.608C65.3966 37.104 65.2686 37.496 65.0126 37.784C64.7566 38.056 64.3726 38.192 63.8606 38.192ZM65.3966 28.952H69.1406C70.2446 28.952 71.0766 28.728 71.6366 28.28C72.2126 27.816 72.5006 27.128 72.5006 26.216C72.5006 25.32 72.2126 24.648 71.6366 24.2C71.0766 23.736 70.2446 23.504 69.1406 23.504H65.3966V28.952ZM83.969 38.24C82.641 38.24 81.497 37.992 80.537 37.496C79.577 37 78.833 36.296 78.305 35.384C77.793 34.472 77.537 33.392 77.537 32.144C77.537 30.928 77.785 29.864 78.281 28.952C78.793 28.04 79.489 27.328 80.369 26.816C81.265 26.288 82.281 26.024 83.417 26.024C84.249 26.024 84.993 26.16 85.649 26.432C86.321 26.704 86.889 27.096 87.353 27.608C87.833 28.12 88.193 28.744 88.433 29.48C88.689 30.2 88.817 31.016 88.817 31.928C88.817 32.216 88.713 32.44 88.505 32.6C88.313 32.744 88.033 32.816 87.665 32.816H79.961V31.088H86.705L86.321 31.448C86.321 30.712 86.209 30.096 85.985 29.6C85.777 29.104 85.465 28.728 85.049 28.472C84.649 28.2 84.145 28.064 83.537 28.064C82.865 28.064 82.289 28.224 81.809 28.544C81.345 28.848 80.985 29.288 80.729 29.864C80.489 30.424 80.369 31.096 80.369 31.88V32.048C80.369 33.36 80.673 34.344 81.281 35C81.905 35.64 82.817 35.96 84.017 35.96C84.433 35.96 84.897 35.912 85.409 35.816C85.937 35.704 86.433 35.52 86.897 35.264C87.233 35.072 87.529 34.992 87.785 35.024C88.041 35.04 88.241 35.128 88.385 35.288C88.545 35.448 88.641 35.648 88.673 35.888C88.705 36.112 88.657 36.344 88.529 36.584C88.417 36.824 88.217 37.032 87.929 37.208C87.369 37.56 86.721 37.824 85.985 38C85.265 38.16 84.593 38.24 83.969 38.24ZM95.4888 38.24C94.8008 38.24 94.0728 38.168 93.3048 38.024C92.5368 37.88 91.8488 37.632 91.2408 37.28C90.9848 37.12 90.8008 36.936 90.6888 36.728C90.5928 36.504 90.5528 36.288 90.5688 36.08C90.6008 35.856 90.6808 35.664 90.8088 35.504C90.9528 35.344 91.1288 35.24 91.3368 35.192C91.5608 35.144 91.8008 35.184 92.0568 35.312C92.6968 35.616 93.2968 35.832 93.8568 35.96C94.4168 36.072 94.9688 36.128 95.5128 36.128C96.2808 36.128 96.8488 36 97.2168 35.744C97.6008 35.472 97.7928 35.12 97.7928 34.688C97.7928 34.32 97.6648 34.04 97.4088 33.848C97.1688 33.64 96.8008 33.488 96.3048 33.392L93.9048 32.936C92.9128 32.744 92.1528 32.384 91.6248 31.856C91.1128 31.312 90.8568 30.616 90.8568 29.768C90.8568 29 91.0648 28.336 91.4808 27.776C91.9128 27.216 92.5048 26.784 93.2568 26.48C94.0088 26.176 94.8728 26.024 95.8488 26.024C96.5528 26.024 97.2088 26.104 97.8168 26.264C98.4408 26.408 99.0408 26.64 99.6168 26.96C99.8568 27.088 100.017 27.256 100.097 27.464C100.193 27.672 100.217 27.888 100.169 28.112C100.121 28.32 100.025 28.512 99.8808 28.688C99.7368 28.848 99.5528 28.952 99.3288 29C99.1208 29.032 98.8808 28.984 98.6088 28.856C98.1128 28.6 97.6328 28.416 97.1688 28.304C96.7208 28.192 96.2888 28.136 95.8728 28.136C95.0888 28.136 94.5048 28.272 94.1208 28.544C93.7528 28.816 93.5688 29.176 93.5688 29.624C93.5688 29.96 93.6808 30.24 93.9048 30.464C94.1288 30.688 94.4728 30.84 94.9368 30.92L97.3368 31.376C98.3768 31.568 99.1608 31.92 99.6888 32.432C100.233 32.944 100.505 33.632 100.505 34.496C100.505 35.664 100.049 36.584 99.1368 37.256C98.2248 37.912 97.0088 38.24 95.4888 38.24ZM108.696 38.24C107.368 38.24 106.224 37.992 105.264 37.496C104.304 37 103.56 36.296 103.032 35.384C102.52 34.472 102.264 33.392 102.264 32.144C102.264 30.928 102.512 29.864 103.008 28.952C103.52 28.04 104.216 27.328 105.096 26.816C105.992 26.288 107.008 26.024 108.144 26.024C108.976 26.024 109.72 26.16 110.376 26.432C111.048 26.704 111.616 27.096 112.08 27.608C112.56 28.12 112.92 28.744 113.16 29.48C113.416 30.2 113.544 31.016 113.544 31.928C113.544 32.216 113.44 32.44 113.232 32.6C113.04 32.744 112.76 32.816 112.392 32.816H104.688V31.088H111.432L111.048 31.448C111.048 30.712 110.936 30.096 110.712 29.6C110.504 29.104 110.192 28.728 109.776 28.472C109.376 28.2 108.872 28.064 108.264 28.064C107.592 28.064 107.016 28.224 106.536 28.544C106.072 28.848 105.712 29.288 105.456 29.864C105.216 30.424 105.096 31.096 105.096 31.88V32.048C105.096 33.36 105.4 34.344 106.008 35C106.632 35.64 107.544 35.96 108.744 35.96C109.16 35.96 109.624 35.912 110.136 35.816C110.664 35.704 111.16 35.52 111.624 35.264C111.96 35.072 112.256 34.992 112.512 35.024C112.768 35.04 112.968 35.128 113.112 35.288C113.272 35.448 113.368 35.648 113.4 35.888C113.432 36.112 113.384 36.344 113.256 36.584C113.144 36.824 112.944 37.032 112.656 37.208C112.096 37.56 111.448 37.824 110.712 38C109.992 38.16 109.32 38.24 108.696 38.24ZM121.249 38.24C120.209 38.24 119.337 38.064 118.633 37.712C117.945 37.36 117.433 36.848 117.097 36.176C116.761 35.488 116.593 34.64 116.593 33.632V28.52H115.345C114.961 28.52 114.665 28.424 114.457 28.232C114.248 28.024 114.144 27.744 114.144 27.392C114.144 27.024 114.248 26.744 114.457 26.552C114.665 26.36 114.961 26.264 115.345 26.264H116.593V24.08C116.593 23.584 116.721 23.208 116.977 22.952C117.249 22.696 117.625 22.568 118.105 22.568C118.585 22.568 118.953 22.696 119.209 22.952C119.465 23.208 119.593 23.584 119.593 24.08V26.264H122.137C122.521 26.264 122.817 26.36 123.025 26.552C123.233 26.744 123.337 27.024 123.337 27.392C123.337 27.744 123.233 28.024 123.025 28.232C122.817 28.424 122.521 28.52 122.137 28.52H119.593V33.464C119.593 34.232 119.761 34.808 120.097 35.192C120.433 35.576 120.977 35.768 121.729 35.768C122.001 35.768 122.241 35.744 122.449 35.696C122.657 35.648 122.841 35.616 123.001 35.6C123.193 35.584 123.353 35.648 123.481 35.792C123.609 35.92 123.673 36.192 123.673 36.608C123.673 36.928 123.617 37.216 123.505 37.472C123.409 37.712 123.225 37.88 122.953 37.976C122.745 38.04 122.473 38.096 122.137 38.144C121.801 38.208 121.505 38.24 121.249 38.24Z" fill="white"/>
</g>
<defs>
<clipPath id="clip0_5822_389">
<rect width="64" height="28" fill="white" transform="translate(60 16)"/>
</clipPath>
</defs>
</svg>
