<svg width="87" height="24" viewBox="0 0 87 24" fill="none" xmlns="http://www.w3.org/2000/svg">
<rect width="87" height="24" rx="3" fill="white" fill-opacity="0.8"/>
<path d="M59.436 18.2C58.7293 18.2 58.096 18.0667 57.536 17.8C56.9893 17.52 56.556 17.1467 56.236 16.68C55.9293 16.2133 55.776 15.6867 55.776 15.1C55.776 14.38 55.9627 13.8133 56.336 13.4C56.7093 12.9733 57.316 12.6667 58.156 12.48C58.996 12.2933 60.1227 12.2 61.536 12.2H62.536V13.64H61.556C60.7293 13.64 60.0693 13.68 59.576 13.76C59.0827 13.84 58.7293 13.98 58.516 14.18C58.316 14.3667 58.216 14.6333 58.216 14.98C58.216 15.42 58.3693 15.78 58.676 16.06C58.9827 16.34 59.4093 16.48 59.956 16.48C60.396 16.48 60.7827 16.38 61.116 16.18C61.4627 15.9667 61.736 15.68 61.936 15.32C62.136 14.96 62.236 14.5467 62.236 14.08V11.78C62.236 11.1133 62.0893 10.6333 61.796 10.34C61.5027 10.0467 61.0093 9.9 60.316 9.9C59.9293 9.9 59.5093 9.94667 59.056 10.04C58.616 10.1333 58.1493 10.2933 57.656 10.52C57.4027 10.64 57.176 10.6733 56.976 10.62C56.7893 10.5667 56.6427 10.46 56.536 10.3C56.4293 10.1267 56.376 9.94 56.376 9.74C56.376 9.54 56.4293 9.34667 56.536 9.16C56.6427 8.96 56.8227 8.81333 57.076 8.72C57.6893 8.46667 58.276 8.28667 58.836 8.18C59.4093 8.07333 59.9293 8.02 60.396 8.02C61.356 8.02 62.1427 8.16667 62.756 8.46C63.3827 8.75333 63.8493 9.2 64.156 9.8C64.4627 10.3867 64.616 11.1467 64.616 12.08V16.88C64.616 17.2933 64.516 17.6133 64.316 17.84C64.116 18.0533 63.8293 18.16 63.456 18.16C63.0827 18.16 62.7893 18.0533 62.576 17.84C62.376 17.6133 62.276 17.2933 62.276 16.88V15.92H62.436C62.3427 16.3867 62.156 16.7933 61.876 17.14C61.6093 17.4733 61.2693 17.7333 60.856 17.92C60.4427 18.1067 59.9693 18.2 59.436 18.2Z" fill="#CF8B04"/>
<path d="M12.8888 21.26C12.0622 19.9533 11.4622 18.58 11.0888 17.14C10.7288 15.6867 10.5488 14.22 10.5488 12.74C10.5488 11.7533 10.6288 10.7733 10.7888 9.8C10.9488 8.82667 11.2022 7.87333 11.5488 6.94C11.8955 5.99333 12.3422 5.08667 12.8888 4.22C13.0355 3.98 13.2288 3.83333 13.4688 3.78C13.7222 3.71333 13.9555 3.72667 14.1688 3.82C14.3955 3.91333 14.5622 4.08667 14.6688 4.34C14.7755 4.58 14.7622 4.88667 14.6288 5.26C14.3088 6.11333 14.0422 6.95333 13.8288 7.78C13.6288 8.59333 13.4755 9.40667 13.3688 10.22C13.2755 11.0333 13.2288 11.8733 13.2288 12.74C13.2288 13.6067 13.2822 14.4467 13.3888 15.26C13.4955 16.0733 13.6555 16.8867 13.8688 17.7C14.0822 18.5133 14.3355 19.3533 14.6288 20.22C14.7622 20.5933 14.7755 20.9 14.6688 21.14C14.5622 21.3933 14.3955 21.5667 14.1688 21.66C13.9555 21.7533 13.7222 21.7667 13.4688 21.7C13.2288 21.6467 13.0355 21.5 12.8888 21.26ZM40.5484 18.1C40.255 18.1 40.0084 18.02 39.8084 17.86C39.6217 17.6867 39.5217 17.4667 39.5084 17.2C39.5084 16.9333 39.6217 16.6533 39.8484 16.36L43.0884 12.36V13.54L40.0484 9.8C39.8084 9.50667 39.695 9.22667 39.7084 8.96C39.7217 8.69333 39.8217 8.48 40.0084 8.32C40.2084 8.14667 40.455 8.06 40.7484 8.06C41.055 8.06 41.3084 8.11333 41.5084 8.22C41.7217 8.32667 41.915 8.49333 42.0884 8.72L44.4884 11.8H43.6084L46.0284 8.72C46.215 8.49333 46.4084 8.32667 46.6084 8.22C46.8084 8.11333 47.055 8.06 47.3484 8.06C47.655 8.06 47.9017 8.14667 48.0884 8.32C48.275 8.49333 48.3684 8.71333 48.3684 8.98C48.3817 9.24667 48.2684 9.52667 48.0284 9.82L45.0084 13.52V12.4L48.2484 16.36C48.4884 16.64 48.6017 16.9133 48.5884 17.18C48.575 17.4467 48.4684 17.6667 48.2684 17.84C48.0817 18.0133 47.835 18.1 47.5284 18.1C47.235 18.1 46.9884 18.0467 46.7884 17.94C46.5884 17.8333 46.395 17.6667 46.2084 17.44L43.6084 14.16H44.4484L41.8684 17.44C41.695 17.6533 41.5084 17.82 41.3084 17.94C41.1084 18.0467 40.855 18.1 40.5484 18.1ZM74.1032 21.26C73.9565 21.5 73.7565 21.6467 73.5032 21.7C73.2632 21.7667 73.0299 21.7467 72.8032 21.64C72.5765 21.5467 72.4099 21.38 72.3032 21.14C72.2099 20.9 72.2299 20.5933 72.3632 20.22C72.6965 19.3533 72.9632 18.5133 73.1632 17.7C73.3632 16.8867 73.5099 16.0733 73.6032 15.26C73.7099 14.4467 73.7632 13.6067 73.7632 12.74C73.7632 11.8733 73.7099 11.0333 73.6032 10.22C73.4965 9.40667 73.3365 8.59333 73.1232 7.78C72.9232 6.96667 72.6699 6.12667 72.3632 5.26C72.2299 4.88667 72.2165 4.58 72.3232 4.34C72.4299 4.08667 72.5965 3.91333 72.8232 3.82C73.0499 3.72667 73.2832 3.71333 73.5232 3.78C73.7632 3.83333 73.9565 3.98 74.1032 4.22C74.9165 5.51333 75.5099 6.88667 75.8832 8.34C76.2565 9.79333 76.4432 11.26 76.4432 12.74C76.4432 13.7267 76.3565 14.7067 76.1832 15.68C76.0232 16.6533 75.7699 17.6067 75.4232 18.54C75.0899 19.4867 74.6499 20.3933 74.1032 21.26Z" fill="#646464"/>
<path d="M28.0865 18.2C27.2598 18.2 26.5332 17.9933 25.9065 17.58C25.2932 17.1667 24.8865 16.6133 24.6865 15.92L24.9065 15.42V16.88C24.9065 17.2933 24.7998 17.6133 24.5865 17.84C24.3732 18.0533 24.0732 18.16 23.6865 18.16C23.2865 18.16 22.9798 18.0533 22.7665 17.84C22.5532 17.6133 22.4465 17.2933 22.4465 16.88V5C22.4465 4.58667 22.5532 4.27333 22.7665 4.06C22.9798 3.84667 23.2865 3.74 23.6865 3.74C24.0865 3.74 24.3932 3.84667 24.6065 4.06C24.8332 4.27333 24.9465 4.58667 24.9465 5V10.2H24.7065C24.9198 9.54667 25.3332 9.02 25.9465 8.62C26.5598 8.22 27.2732 8.02 28.0865 8.02C28.9532 8.02 29.7065 8.22667 30.3465 8.64C30.9865 9.05333 31.4865 9.64 31.8465 10.4C32.2065 11.1467 32.3865 12.0467 32.3865 13.1C32.3865 14.14 32.2065 15.0467 31.8465 15.82C31.4865 16.58 30.9798 17.1667 30.3265 17.58C29.6865 17.9933 28.9398 18.2 28.0865 18.2ZM27.3865 16.3C27.8798 16.3 28.3132 16.18 28.6865 15.94C29.0598 15.7 29.3465 15.3467 29.5465 14.88C29.7598 14.4 29.8665 13.8067 29.8665 13.1C29.8665 12.0333 29.6398 11.24 29.1865 10.72C28.7332 10.1867 28.1332 9.92 27.3865 9.92C26.8932 9.92 26.4598 10.04 26.0865 10.28C25.7132 10.5067 25.4198 10.86 25.2065 11.34C25.0065 11.8067 24.9065 12.3933 24.9065 13.1C24.9065 14.1533 25.1332 14.9533 25.5865 15.5C26.0398 16.0333 26.6398 16.3 27.3865 16.3Z" fill="#2AD3F5"/>
</svg>
