<svg width="539" height="19" viewBox="0 0 539 19" fill="none" xmlns="http://www.w3.org/2000/svg">
<path d="M1.52703 15.16C1.1137 15.16 0.793698 15.0467 0.567031 14.82C0.353698 14.58 0.247031 14.2533 0.247031 13.84V2.2C0.247031 1.77333 0.360365 1.45333 0.587031 1.24C0.813698 1.01333 1.1337 0.899999 1.54703 0.899999H6.36703C7.9137 0.899999 9.10703 1.27333 9.94703 2.02C10.787 2.75333 11.207 3.78667 11.207 5.12C11.207 5.98667 11.0137 6.73333 10.627 7.36C10.2537 7.98667 9.70703 8.46667 8.98703 8.8C8.26703 9.13333 7.3937 9.3 6.36703 9.3L6.54703 9H7.20703C7.7537 9 8.22703 9.13333 8.62703 9.4C9.04036 9.66667 9.40036 10.0867 9.70703 10.66L11.207 13.44C11.367 13.72 11.4404 13.9933 11.427 14.26C11.4137 14.5267 11.3137 14.7467 11.127 14.92C10.9404 15.08 10.667 15.16 10.307 15.16C9.94703 15.16 9.6537 15.0867 9.42703 14.94C9.20037 14.78 9.00037 14.54 8.82703 14.22L6.80703 10.5C6.56703 10.0467 6.28037 9.74667 5.94703 9.6C5.62703 9.44 5.2137 9.36 4.70703 9.36H2.80703V13.84C2.80703 14.2533 2.70036 14.58 2.48703 14.82C2.2737 15.0467 1.9537 15.16 1.52703 15.16ZM2.80703 7.46H5.92703C6.84703 7.46 7.54036 7.27333 8.00703 6.9C8.48703 6.51333 8.72703 5.94 8.72703 5.18C8.72703 4.43333 8.48703 3.87333 8.00703 3.5C7.54036 3.11333 6.84703 2.92 5.92703 2.92H2.80703V7.46ZM17.9241 15.2C16.9107 15.2 16.0307 14.9933 15.2841 14.58C14.5374 14.1667 13.9574 13.58 13.5441 12.82C13.1307 12.0467 12.9241 11.14 12.9241 10.1C12.9241 9.31333 13.0374 8.61333 13.2641 8C13.5041 7.37333 13.8441 6.84 14.2841 6.4C14.7241 5.94667 15.2507 5.60667 15.8641 5.38C16.4774 5.14 17.1641 5.02 17.9241 5.02C18.9374 5.02 19.8174 5.22667 20.5641 5.64C21.3107 6.05333 21.8907 6.64 22.3041 7.4C22.7174 8.16 22.9241 9.06 22.9241 10.1C22.9241 10.8867 22.8041 11.5933 22.5641 12.22C22.3374 12.8467 22.0041 13.3867 21.5641 13.84C21.1241 14.28 20.5974 14.62 19.9841 14.86C19.3707 15.0867 18.6841 15.2 17.9241 15.2ZM17.9241 13.3C18.4174 13.3 18.8507 13.18 19.2241 12.94C19.5974 12.7 19.8841 12.3467 20.0841 11.88C20.2974 11.4 20.4041 10.8067 20.4041 10.1C20.4041 9.03333 20.1774 8.24 19.7241 7.72C19.2707 7.18667 18.6707 6.92 17.9241 6.92C17.4307 6.92 16.9974 7.04 16.6241 7.28C16.2507 7.50667 15.9574 7.86 15.7441 8.34C15.5441 8.80667 15.4441 9.39333 15.4441 10.1C15.4441 11.1533 15.6707 11.9533 16.1241 12.5C16.5774 13.0333 17.1774 13.3 17.9241 13.3ZM29.3698 15.2C28.5032 15.2 27.7765 15.0533 27.1898 14.76C26.6165 14.4667 26.1898 14.04 25.9098 13.48C25.6298 12.9067 25.4898 12.2 25.4898 11.36V7.1H24.4498C24.1298 7.1 23.8832 7.02 23.7098 6.86C23.5365 6.68667 23.4498 6.45333 23.4498 6.16C23.4498 5.85333 23.5365 5.62 23.7098 5.46C23.8832 5.3 24.1298 5.22 24.4498 5.22H25.4898V3.4C25.4898 2.98667 25.5965 2.67333 25.8098 2.46C26.0365 2.24667 26.3498 2.14 26.7498 2.14C27.1498 2.14 27.4565 2.24667 27.6698 2.46C27.8832 2.67333 27.9898 2.98667 27.9898 3.4V5.22H30.1098C30.4298 5.22 30.6765 5.3 30.8498 5.46C31.0232 5.62 31.1098 5.85333 31.1098 6.16C31.1098 6.45333 31.0232 6.68667 30.8498 6.86C30.6765 7.02 30.4298 7.1 30.1098 7.1H27.9898V11.22C27.9898 11.86 28.1298 12.34 28.4098 12.66C28.6898 12.98 29.1432 13.14 29.7698 13.14C29.9965 13.14 30.1965 13.12 30.3698 13.08C30.5432 13.04 30.6965 13.0133 30.8298 13C30.9898 12.9867 31.1232 13.04 31.2298 13.16C31.3365 13.2667 31.3898 13.4933 31.3898 13.84C31.3898 14.1067 31.3432 14.3467 31.2498 14.56C31.1698 14.76 31.0165 14.9 30.7898 14.98C30.6165 15.0333 30.3898 15.08 30.1098 15.12C29.8298 15.1733 29.5832 15.2 29.3698 15.2ZM35.7856 15.2C35.079 15.2 34.4456 15.0667 33.8856 14.8C33.339 14.52 32.9056 14.1467 32.5856 13.68C32.279 13.2133 32.1256 12.6867 32.1256 12.1C32.1256 11.38 32.3123 10.8133 32.6856 10.4C33.059 9.97333 33.6656 9.66667 34.5056 9.48C35.3456 9.29333 36.4723 9.2 37.8856 9.2H38.8856V10.64H37.9056C37.079 10.64 36.419 10.68 35.9256 10.76C35.4323 10.84 35.079 10.98 34.8656 11.18C34.6656 11.3667 34.5656 11.6333 34.5656 11.98C34.5656 12.42 34.719 12.78 35.0256 13.06C35.3323 13.34 35.759 13.48 36.3056 13.48C36.7456 13.48 37.1323 13.38 37.4656 13.18C37.8123 12.9667 38.0856 12.68 38.2856 12.32C38.4856 11.96 38.5856 11.5467 38.5856 11.08V8.78C38.5856 8.11333 38.439 7.63333 38.1456 7.34C37.8523 7.04667 37.359 6.9 36.6656 6.9C36.279 6.9 35.859 6.94667 35.4056 7.04C34.9656 7.13333 34.499 7.29333 34.0056 7.52C33.7523 7.64 33.5256 7.67333 33.3256 7.62C33.139 7.56667 32.9923 7.46 32.8856 7.3C32.779 7.12667 32.7256 6.94 32.7256 6.74C32.7256 6.54 32.779 6.34667 32.8856 6.16C32.9923 5.96 33.1723 5.81333 33.4256 5.72C34.039 5.46667 34.6256 5.28667 35.1856 5.18C35.759 5.07333 36.279 5.02 36.7456 5.02C37.7056 5.02 38.4923 5.16667 39.1056 5.46C39.7323 5.75333 40.199 6.2 40.5056 6.8C40.8123 7.38667 40.9656 8.14667 40.9656 9.08V13.88C40.9656 14.2933 40.8656 14.6133 40.6656 14.84C40.4656 15.0533 40.179 15.16 39.8056 15.16C39.4323 15.16 39.139 15.0533 38.9256 14.84C38.7256 14.6133 38.6256 14.2933 38.6256 13.88V12.92H38.7856C38.6923 13.3867 38.5056 13.7933 38.2256 14.14C37.959 14.4733 37.619 14.7333 37.2056 14.92C36.7923 15.1067 36.319 15.2 35.7856 15.2ZM47.9831 15.2C47.1165 15.2 46.3898 15.0533 45.8031 14.76C45.2298 14.4667 44.8031 14.04 44.5231 13.48C44.2431 12.9067 44.1031 12.2 44.1031 11.36V7.1H43.0631C42.7431 7.1 42.4965 7.02 42.3231 6.86C42.1498 6.68667 42.0631 6.45333 42.0631 6.16C42.0631 5.85333 42.1498 5.62 42.3231 5.46C42.4965 5.3 42.7431 5.22 43.0631 5.22H44.1031V3.4C44.1031 2.98667 44.2098 2.67333 44.4231 2.46C44.6498 2.24667 44.9631 2.14 45.3631 2.14C45.7631 2.14 46.0698 2.24667 46.2831 2.46C46.4965 2.67333 46.6031 2.98667 46.6031 3.4V5.22H48.7231C49.0431 5.22 49.2898 5.3 49.4631 5.46C49.6365 5.62 49.7231 5.85333 49.7231 6.16C49.7231 6.45333 49.6365 6.68667 49.4631 6.86C49.2898 7.02 49.0431 7.1 48.7231 7.1H46.6031V11.22C46.6031 11.86 46.7431 12.34 47.0231 12.66C47.3031 12.98 47.7565 13.14 48.3831 13.14C48.6098 13.14 48.8098 13.12 48.9831 13.08C49.1565 13.04 49.3098 13.0133 49.4431 13C49.6031 12.9867 49.7365 13.04 49.8431 13.16C49.9498 13.2667 50.0031 13.4933 50.0031 13.84C50.0031 14.1067 49.9565 14.3467 49.8631 14.56C49.7831 14.76 49.6298 14.9 49.4031 14.98C49.2298 15.0333 49.0031 15.08 48.7231 15.12C48.4431 15.1733 48.1965 15.2 47.9831 15.2ZM55.9013 15.2C54.7946 15.2 53.8413 14.9933 53.0413 14.58C52.2413 14.1667 51.6213 13.58 51.1813 12.82C50.7546 12.06 50.5413 11.16 50.5413 10.12C50.5413 9.10667 50.7479 8.22 51.1613 7.46C51.5879 6.7 52.1679 6.10667 52.9013 5.68C53.6479 5.24 54.4946 5.02 55.4413 5.02C56.1346 5.02 56.7546 5.13333 57.3013 5.36C57.8613 5.58667 58.3346 5.91333 58.7213 6.34C59.1213 6.76667 59.4213 7.28667 59.6213 7.9C59.8346 8.5 59.9413 9.18 59.9413 9.94C59.9413 10.18 59.8546 10.3667 59.6813 10.5C59.5213 10.62 59.2879 10.68 58.9813 10.68H52.5613V9.24H58.1813L57.8613 9.54C57.8613 8.92667 57.7679 8.41333 57.5813 8C57.4079 7.58667 57.1479 7.27333 56.8013 7.06C56.4679 6.83333 56.0479 6.72 55.5413 6.72C54.9813 6.72 54.5013 6.85333 54.1013 7.12C53.7146 7.37333 53.4146 7.74 53.2013 8.22C53.0013 8.68667 52.9013 9.24667 52.9013 9.9V10.04C52.9013 11.1333 53.1546 11.9533 53.6613 12.5C54.1813 13.0333 54.9413 13.3 55.9413 13.3C56.2879 13.3 56.6746 13.26 57.1013 13.18C57.5413 13.0867 57.9546 12.9333 58.3413 12.72C58.6213 12.56 58.8679 12.4933 59.0813 12.52C59.2946 12.5333 59.4613 12.6067 59.5813 12.74C59.7146 12.8733 59.7946 13.04 59.8213 13.24C59.8479 13.4267 59.8079 13.62 59.7013 13.82C59.6079 14.02 59.4413 14.1933 59.2013 14.34C58.7346 14.6333 58.1946 14.8533 57.5813 15C56.9813 15.1333 56.4213 15.2 55.9013 15.2ZM71.8308 15.2C70.9641 15.2 70.2374 15.0533 69.6508 14.76C69.0774 14.4667 68.6508 14.04 68.3708 13.48C68.0908 12.9067 67.9508 12.2 67.9508 11.36V7.1H66.9108C66.5908 7.1 66.3441 7.02 66.1708 6.86C65.9974 6.68667 65.9108 6.45333 65.9108 6.16C65.9108 5.85333 65.9974 5.62 66.1708 5.46C66.3441 5.3 66.5908 5.22 66.9108 5.22H67.9508V3.4C67.9508 2.98667 68.0574 2.67333 68.2708 2.46C68.4974 2.24667 68.8108 2.14 69.2108 2.14C69.6108 2.14 69.9174 2.24667 70.1308 2.46C70.3441 2.67333 70.4508 2.98667 70.4508 3.4V5.22H72.5708C72.8908 5.22 73.1374 5.3 73.3108 5.46C73.4841 5.62 73.5708 5.85333 73.5708 6.16C73.5708 6.45333 73.4841 6.68667 73.3108 6.86C73.1374 7.02 72.8908 7.1 72.5708 7.1H70.4508V11.22C70.4508 11.86 70.5908 12.34 70.8708 12.66C71.1508 12.98 71.6041 13.14 72.2308 13.14C72.4574 13.14 72.6574 13.12 72.8308 13.08C73.0041 13.04 73.1574 13.0133 73.2908 13C73.4508 12.9867 73.5841 13.04 73.6908 13.16C73.7974 13.2667 73.8508 13.4933 73.8508 13.84C73.8508 14.1067 73.8041 14.3467 73.7108 14.56C73.6308 14.76 73.4774 14.9 73.2508 14.98C73.0774 15.0333 72.8508 15.08 72.5708 15.12C72.2908 15.1733 72.0441 15.2 71.8308 15.2ZM76.5205 15.16C76.1205 15.16 75.8138 15.0533 75.6005 14.84C75.3871 14.6133 75.2805 14.2933 75.2805 13.88V2C75.2805 1.58667 75.3871 1.27333 75.6005 1.06C75.8138 0.846666 76.1205 0.739999 76.5205 0.739999C76.9205 0.739999 77.2271 0.846666 77.4405 1.06C77.6671 1.27333 77.7805 1.58667 77.7805 2V7.18H77.5005C77.7938 6.47333 78.2471 5.94 78.8605 5.58C79.4871 5.20667 80.1938 5.02 80.9805 5.02C81.7671 5.02 82.4138 5.16667 82.9205 5.46C83.4271 5.75333 83.8071 6.2 84.0605 6.8C84.3138 7.38667 84.4405 8.13333 84.4405 9.04V13.88C84.4405 14.2933 84.3338 14.6133 84.1205 14.84C83.9071 15.0533 83.6005 15.16 83.2005 15.16C82.8005 15.16 82.4871 15.0533 82.2605 14.84C82.0471 14.6133 81.9405 14.2933 81.9405 13.88V9.16C81.9405 8.4 81.7938 7.84667 81.5005 7.5C81.2205 7.15333 80.7805 6.98 80.1805 6.98C79.4471 6.98 78.8605 7.21333 78.4205 7.68C77.9938 8.13333 77.7805 8.74 77.7805 9.5V13.88C77.7805 14.7333 77.3605 15.16 76.5205 15.16ZM91.7997 15.2C90.693 15.2 89.7397 14.9933 88.9397 14.58C88.1397 14.1667 87.5197 13.58 87.0797 12.82C86.653 12.06 86.4397 11.16 86.4397 10.12C86.4397 9.10667 86.6464 8.22 87.0597 7.46C87.4864 6.7 88.0664 6.10667 88.7997 5.68C89.5464 5.24 90.393 5.02 91.3397 5.02C92.033 5.02 92.653 5.13333 93.1997 5.36C93.7597 5.58667 94.233 5.91333 94.6197 6.34C95.0197 6.76667 95.3197 7.28667 95.5197 7.9C95.733 8.5 95.8397 9.18 95.8397 9.94C95.8397 10.18 95.753 10.3667 95.5797 10.5C95.4197 10.62 95.1864 10.68 94.8797 10.68H88.4597V9.24H94.0797L93.7597 9.54C93.7597 8.92667 93.6664 8.41333 93.4797 8C93.3064 7.58667 93.0464 7.27333 92.6997 7.06C92.3664 6.83333 91.9464 6.72 91.4397 6.72C90.8797 6.72 90.3997 6.85333 89.9997 7.12C89.613 7.37333 89.313 7.74 89.0997 8.22C88.8997 8.68667 88.7997 9.24667 88.7997 9.9V10.04C88.7997 11.1333 89.053 11.9533 89.5597 12.5C90.0797 13.0333 90.8397 13.3 91.8397 13.3C92.1864 13.3 92.573 13.26 92.9997 13.18C93.4397 13.0867 93.853 12.9333 94.2397 12.72C94.5197 12.56 94.7664 12.4933 94.9797 12.52C95.193 12.5333 95.3597 12.6067 95.4797 12.74C95.613 12.8733 95.693 13.04 95.7197 13.24C95.7464 13.4267 95.7064 13.62 95.5997 13.82C95.5064 14.02 95.3397 14.1933 95.0997 14.34C94.633 14.6333 94.093 14.8533 93.4797 15C92.8797 15.1333 92.3197 15.2 91.7997 15.2ZM104.529 15.16C104.116 15.16 103.796 15.0533 103.569 14.84C103.356 14.6133 103.249 14.2933 103.249 13.88V6.32C103.249 5.90667 103.356 5.59333 103.569 5.38C103.783 5.16667 104.083 5.06 104.469 5.06C104.856 5.06 105.156 5.16667 105.369 5.38C105.583 5.59333 105.689 5.90667 105.689 6.32V7.58H105.489C105.676 6.78 106.043 6.17333 106.589 5.76C107.136 5.34667 107.863 5.1 108.769 5.02C109.049 4.99333 109.269 5.06667 109.429 5.24C109.603 5.4 109.703 5.65333 109.729 6C109.756 6.33333 109.676 6.60667 109.489 6.82C109.316 7.02 109.049 7.14 108.689 7.18L108.249 7.22C107.436 7.3 106.823 7.55333 106.409 7.98C105.996 8.39333 105.789 8.98 105.789 9.74V13.88C105.789 14.2933 105.683 14.6133 105.469 14.84C105.256 15.0533 104.943 15.16 104.529 15.16ZM112.321 15.14C111.921 15.14 111.615 15.02 111.401 14.78C111.188 14.54 111.081 14.2067 111.081 13.78V6.44C111.081 6 111.188 5.66667 111.401 5.44C111.615 5.2 111.921 5.08 112.321 5.08C112.721 5.08 113.028 5.2 113.241 5.44C113.468 5.66667 113.581 6 113.581 6.44V13.78C113.581 14.2067 113.475 14.54 113.261 14.78C113.048 15.02 112.735 15.14 112.321 15.14ZM112.321 3.22C111.855 3.22 111.488 3.10667 111.221 2.88C110.968 2.64 110.841 2.31333 110.841 1.9C110.841 1.47333 110.968 1.14667 111.221 0.919999C111.488 0.693333 111.855 0.58 112.321 0.58C112.801 0.58 113.168 0.693333 113.421 0.919999C113.675 1.14667 113.801 1.47333 113.801 1.9C113.801 2.31333 113.675 2.64 113.421 2.88C113.168 3.10667 112.801 3.22 112.321 3.22ZM120.739 18.8C120.019 18.8 119.319 18.7333 118.639 18.6C117.972 18.4667 117.366 18.26 116.819 17.98C116.566 17.8467 116.392 17.6867 116.299 17.5C116.219 17.3133 116.192 17.12 116.219 16.92C116.259 16.7333 116.339 16.5667 116.459 16.42C116.592 16.2733 116.752 16.1733 116.939 16.12C117.126 16.0667 117.319 16.0933 117.519 16.2C118.106 16.4933 118.659 16.68 119.179 16.76C119.712 16.8533 120.166 16.9 120.539 16.9C121.432 16.9 122.099 16.68 122.539 16.24C122.992 15.8133 123.219 15.1733 123.219 14.32V12.52H123.399C123.199 13.2 122.779 13.7467 122.139 14.16C121.512 14.56 120.799 14.76 119.999 14.76C119.119 14.76 118.352 14.56 117.699 14.16C117.046 13.7467 116.539 13.1733 116.179 12.44C115.819 11.7067 115.639 10.8533 115.639 9.88C115.639 9.14667 115.739 8.48667 115.939 7.9C116.152 7.3 116.446 6.78667 116.819 6.36C117.206 5.93333 117.666 5.60667 118.199 5.38C118.746 5.14 119.346 5.02 119.999 5.02C120.826 5.02 121.546 5.22667 122.159 5.64C122.786 6.04 123.192 6.57333 123.379 7.24L123.179 7.74V6.32C123.179 5.90667 123.286 5.59333 123.499 5.38C123.726 5.16667 124.032 5.06 124.419 5.06C124.819 5.06 125.126 5.16667 125.339 5.38C125.552 5.59333 125.659 5.90667 125.659 6.32V14.02C125.659 15.6067 125.239 16.8 124.399 17.6C123.559 18.4 122.339 18.8 120.739 18.8ZM120.679 12.86C121.199 12.86 121.646 12.74 122.019 12.5C122.392 12.26 122.679 11.92 122.879 11.48C123.092 11.0267 123.199 10.4933 123.199 9.88C123.199 8.96 122.972 8.24 122.519 7.72C122.066 7.18667 121.452 6.92 120.679 6.92C120.159 6.92 119.712 7.04 119.339 7.28C118.966 7.52 118.672 7.86 118.459 8.3C118.259 8.74 118.159 9.26667 118.159 9.88C118.159 10.8 118.386 11.5267 118.839 12.06C119.292 12.5933 119.906 12.86 120.679 12.86ZM129.489 15.16C129.089 15.16 128.783 15.0533 128.569 14.84C128.356 14.6133 128.249 14.2933 128.249 13.88V2C128.249 1.58667 128.356 1.27333 128.569 1.06C128.783 0.846666 129.089 0.739999 129.489 0.739999C129.889 0.739999 130.196 0.846666 130.409 1.06C130.636 1.27333 130.749 1.58667 130.749 2V7.18H130.469C130.763 6.47333 131.216 5.94 131.829 5.58C132.456 5.20667 133.163 5.02 133.949 5.02C134.736 5.02 135.383 5.16667 135.889 5.46C136.396 5.75333 136.776 6.2 137.029 6.8C137.283 7.38667 137.409 8.13333 137.409 9.04V13.88C137.409 14.2933 137.303 14.6133 137.089 14.84C136.876 15.0533 136.569 15.16 136.169 15.16C135.769 15.16 135.456 15.0533 135.229 14.84C135.016 14.6133 134.909 14.2933 134.909 13.88V9.16C134.909 8.4 134.763 7.84667 134.469 7.5C134.189 7.15333 133.749 6.98 133.149 6.98C132.416 6.98 131.829 7.21333 131.389 7.68C130.963 8.13333 130.749 8.74 130.749 9.5V13.88C130.749 14.7333 130.329 15.16 129.489 15.16ZM144.428 15.2C143.562 15.2 142.835 15.0533 142.248 14.76C141.675 14.4667 141.248 14.04 140.968 13.48C140.688 12.9067 140.548 12.2 140.548 11.36V7.1H139.508C139.188 7.1 138.942 7.02 138.768 6.86C138.595 6.68667 138.508 6.45333 138.508 6.16C138.508 5.85333 138.595 5.62 138.768 5.46C138.942 5.3 139.188 5.22 139.508 5.22H140.548V3.4C140.548 2.98667 140.655 2.67333 140.868 2.46C141.095 2.24667 141.408 2.14 141.808 2.14C142.208 2.14 142.515 2.24667 142.728 2.46C142.942 2.67333 143.048 2.98667 143.048 3.4V5.22H145.168C145.488 5.22 145.735 5.3 145.908 5.46C146.082 5.62 146.168 5.85333 146.168 6.16C146.168 6.45333 146.082 6.68667 145.908 6.86C145.735 7.02 145.488 7.1 145.168 7.1H143.048V11.22C143.048 11.86 143.188 12.34 143.468 12.66C143.748 12.98 144.202 13.14 144.828 13.14C145.055 13.14 145.255 13.12 145.428 13.08C145.602 13.04 145.755 13.0133 145.888 13C146.048 12.9867 146.182 13.04 146.288 13.16C146.395 13.2667 146.448 13.4933 146.448 13.84C146.448 14.1067 146.402 14.3467 146.308 14.56C146.228 14.76 146.075 14.9 145.848 14.98C145.675 15.0333 145.448 15.08 145.168 15.12C144.888 15.1733 144.642 15.2 144.428 15.2ZM157.534 15.2C156.667 15.2 155.941 15.0533 155.354 14.76C154.781 14.4667 154.354 14.04 154.074 13.48C153.794 12.9067 153.654 12.2 153.654 11.36V7.1H152.614C152.294 7.1 152.047 7.02 151.874 6.86C151.701 6.68667 151.614 6.45333 151.614 6.16C151.614 5.85333 151.701 5.62 151.874 5.46C152.047 5.3 152.294 5.22 152.614 5.22H153.654V3.4C153.654 2.98667 153.761 2.67333 153.974 2.46C154.201 2.24667 154.514 2.14 154.914 2.14C155.314 2.14 155.621 2.24667 155.834 2.46C156.047 2.67333 156.154 2.98667 156.154 3.4V5.22H158.274C158.594 5.22 158.841 5.3 159.014 5.46C159.187 5.62 159.274 5.85333 159.274 6.16C159.274 6.45333 159.187 6.68667 159.014 6.86C158.841 7.02 158.594 7.1 158.274 7.1H156.154V11.22C156.154 11.86 156.294 12.34 156.574 12.66C156.854 12.98 157.307 13.14 157.934 13.14C158.161 13.14 158.361 13.12 158.534 13.08C158.707 13.04 158.861 13.0133 158.994 13C159.154 12.9867 159.287 13.04 159.394 13.16C159.501 13.2667 159.554 13.4933 159.554 13.84C159.554 14.1067 159.507 14.3467 159.414 14.56C159.334 14.76 159.181 14.9 158.954 14.98C158.781 15.0333 158.554 15.08 158.274 15.12C157.994 15.1733 157.747 15.2 157.534 15.2ZM162.01 15.16C161.596 15.16 161.276 15.0533 161.05 14.84C160.836 14.6133 160.73 14.2933 160.73 13.88V6.32C160.73 5.90667 160.836 5.59333 161.05 5.38C161.263 5.16667 161.563 5.06 161.95 5.06C162.336 5.06 162.636 5.16667 162.85 5.38C163.063 5.59333 163.17 5.90667 163.17 6.32V7.58H162.97C163.156 6.78 163.523 6.17333 164.07 5.76C164.616 5.34667 165.343 5.1 166.25 5.02C166.53 4.99333 166.75 5.06667 166.91 5.24C167.083 5.4 167.183 5.65333 167.21 6C167.236 6.33333 167.156 6.60667 166.97 6.82C166.796 7.02 166.53 7.14 166.17 7.18L165.73 7.22C164.916 7.3 164.303 7.55333 163.89 7.98C163.476 8.39333 163.27 8.98 163.27 9.74V13.88C163.27 14.2933 163.163 14.6133 162.95 14.84C162.736 15.0533 162.423 15.16 162.01 15.16ZM169.802 15.14C169.402 15.14 169.095 15.02 168.882 14.78C168.668 14.54 168.562 14.2067 168.562 13.78V6.44C168.562 6 168.668 5.66667 168.882 5.44C169.095 5.2 169.402 5.08 169.802 5.08C170.202 5.08 170.508 5.2 170.722 5.44C170.948 5.66667 171.062 6 171.062 6.44V13.78C171.062 14.2067 170.955 14.54 170.742 14.78C170.528 15.02 170.215 15.14 169.802 15.14ZM169.802 3.22C169.335 3.22 168.968 3.10667 168.702 2.88C168.448 2.64 168.322 2.31333 168.322 1.9C168.322 1.47333 168.448 1.14667 168.702 0.919999C168.968 0.693333 169.335 0.58 169.802 0.58C170.282 0.58 170.648 0.693333 170.902 0.919999C171.155 1.14667 171.282 1.47333 171.282 1.9C171.282 2.31333 171.155 2.64 170.902 2.88C170.648 3.10667 170.282 3.22 169.802 3.22ZM176.879 15.2C176.173 15.2 175.539 15.0667 174.979 14.8C174.433 14.52 173.999 14.1467 173.679 13.68C173.373 13.2133 173.219 12.6867 173.219 12.1C173.219 11.38 173.406 10.8133 173.779 10.4C174.153 9.97333 174.759 9.66667 175.599 9.48C176.439 9.29333 177.566 9.2 178.979 9.2H179.979V10.64H178.999C178.173 10.64 177.513 10.68 177.019 10.76C176.526 10.84 176.173 10.98 175.959 11.18C175.759 11.3667 175.659 11.6333 175.659 11.98C175.659 12.42 175.813 12.78 176.119 13.06C176.426 13.34 176.853 13.48 177.399 13.48C177.839 13.48 178.226 13.38 178.559 13.18C178.906 12.9667 179.179 12.68 179.379 12.32C179.579 11.96 179.679 11.5467 179.679 11.08V8.78C179.679 8.11333 179.533 7.63333 179.239 7.34C178.946 7.04667 178.453 6.9 177.759 6.9C177.373 6.9 176.953 6.94667 176.499 7.04C176.059 7.13333 175.593 7.29333 175.099 7.52C174.846 7.64 174.619 7.67333 174.419 7.62C174.233 7.56667 174.086 7.46 173.979 7.3C173.873 7.12667 173.819 6.94 173.819 6.74C173.819 6.54 173.873 6.34667 173.979 6.16C174.086 5.96 174.266 5.81333 174.519 5.72C175.133 5.46667 175.719 5.28667 176.279 5.18C176.853 5.07333 177.373 5.02 177.839 5.02C178.799 5.02 179.586 5.16667 180.199 5.46C180.826 5.75333 181.293 6.2 181.599 6.8C181.906 7.38667 182.059 8.14667 182.059 9.08V13.88C182.059 14.2933 181.959 14.6133 181.759 14.84C181.559 15.0533 181.273 15.16 180.899 15.16C180.526 15.16 180.233 15.0533 180.019 14.84C179.819 14.6133 179.719 14.2933 179.719 13.88V12.92H179.879C179.786 13.3867 179.599 13.7933 179.319 14.14C179.053 14.4733 178.713 14.7333 178.299 14.92C177.886 15.1067 177.413 15.2 176.879 15.2ZM185.837 15.16C185.437 15.16 185.13 15.0533 184.917 14.84C184.704 14.6133 184.597 14.2933 184.597 13.88V6.32C184.597 5.90667 184.704 5.59333 184.917 5.38C185.13 5.16667 185.43 5.06 185.817 5.06C186.204 5.06 186.504 5.16667 186.717 5.38C186.93 5.59333 187.037 5.90667 187.037 6.32V7.68L186.817 7.18C187.11 6.47333 187.564 5.94 188.177 5.58C188.804 5.20667 189.51 5.02 190.297 5.02C191.084 5.02 191.73 5.16667 192.237 5.46C192.744 5.75333 193.124 6.2 193.377 6.8C193.63 7.38667 193.757 8.13333 193.757 9.04V13.88C193.757 14.2933 193.65 14.6133 193.437 14.84C193.224 15.0533 192.917 15.16 192.517 15.16C192.117 15.16 191.804 15.0533 191.577 14.84C191.364 14.6133 191.257 14.2933 191.257 13.88V9.16C191.257 8.4 191.11 7.84667 190.817 7.5C190.537 7.15333 190.097 6.98 189.497 6.98C188.764 6.98 188.177 7.21333 187.737 7.68C187.31 8.13333 187.097 8.74 187.097 9.5V13.88C187.097 14.7333 186.677 15.16 185.837 15.16ZM200.856 18.8C200.136 18.8 199.436 18.7333 198.756 18.6C198.089 18.4667 197.483 18.26 196.936 17.98C196.683 17.8467 196.509 17.6867 196.416 17.5C196.336 17.3133 196.309 17.12 196.336 16.92C196.376 16.7333 196.456 16.5667 196.576 16.42C196.709 16.2733 196.869 16.1733 197.056 16.12C197.243 16.0667 197.436 16.0933 197.636 16.2C198.223 16.4933 198.776 16.68 199.296 16.76C199.829 16.8533 200.283 16.9 200.656 16.9C201.549 16.9 202.216 16.68 202.656 16.24C203.109 15.8133 203.336 15.1733 203.336 14.32V12.52H203.516C203.316 13.2 202.896 13.7467 202.256 14.16C201.629 14.56 200.916 14.76 200.116 14.76C199.236 14.76 198.469 14.56 197.816 14.16C197.163 13.7467 196.656 13.1733 196.296 12.44C195.936 11.7067 195.756 10.8533 195.756 9.88C195.756 9.14667 195.856 8.48667 196.056 7.9C196.269 7.3 196.563 6.78667 196.936 6.36C197.323 5.93333 197.783 5.60667 198.316 5.38C198.863 5.14 199.463 5.02 200.116 5.02C200.943 5.02 201.663 5.22667 202.276 5.64C202.903 6.04 203.309 6.57333 203.496 7.24L203.296 7.74V6.32C203.296 5.90667 203.403 5.59333 203.616 5.38C203.843 5.16667 204.149 5.06 204.536 5.06C204.936 5.06 205.243 5.16667 205.456 5.38C205.669 5.59333 205.776 5.90667 205.776 6.32V14.02C205.776 15.6067 205.356 16.8 204.516 17.6C203.676 18.4 202.456 18.8 200.856 18.8ZM200.796 12.86C201.316 12.86 201.763 12.74 202.136 12.5C202.509 12.26 202.796 11.92 202.996 11.48C203.209 11.0267 203.316 10.4933 203.316 9.88C203.316 8.96 203.089 8.24 202.636 7.72C202.183 7.18667 201.569 6.92 200.796 6.92C200.276 6.92 199.829 7.04 199.456 7.28C199.083 7.52 198.789 7.86 198.576 8.3C198.376 8.74 198.276 9.26667 198.276 9.88C198.276 10.8 198.503 11.5267 198.956 12.06C199.409 12.5933 200.023 12.86 200.796 12.86ZM211.706 15.2C210.6 15.2 209.766 14.8867 209.206 14.26C208.646 13.62 208.366 12.6867 208.366 11.46V2C208.366 1.58667 208.473 1.27333 208.686 1.06C208.9 0.846666 209.206 0.739999 209.606 0.739999C210.006 0.739999 210.313 0.846666 210.526 1.06C210.753 1.27333 210.866 1.58667 210.866 2V11.34C210.866 11.9533 210.993 12.4067 211.246 12.7C211.513 12.9933 211.886 13.14 212.366 13.14C212.473 13.14 212.573 13.14 212.666 13.14C212.76 13.1267 212.853 13.1133 212.946 13.1C213.133 13.0733 213.26 13.1267 213.326 13.26C213.393 13.38 213.426 13.6333 213.426 14.02C213.426 14.3533 213.36 14.6133 213.226 14.8C213.093 14.9867 212.873 15.1 212.566 15.14C212.433 15.1533 212.293 15.1667 212.146 15.18C212 15.1933 211.853 15.2 211.706 15.2ZM219.475 15.2C218.369 15.2 217.415 14.9933 216.615 14.58C215.815 14.1667 215.195 13.58 214.755 12.82C214.329 12.06 214.115 11.16 214.115 10.12C214.115 9.10667 214.322 8.22 214.735 7.46C215.162 6.7 215.742 6.10667 216.475 5.68C217.222 5.24 218.069 5.02 219.015 5.02C219.709 5.02 220.329 5.13333 220.875 5.36C221.435 5.58667 221.909 5.91333 222.295 6.34C222.695 6.76667 222.995 7.28667 223.195 7.9C223.409 8.5 223.515 9.18 223.515 9.94C223.515 10.18 223.429 10.3667 223.255 10.5C223.095 10.62 222.862 10.68 222.555 10.68H216.135V9.24H221.755L221.435 9.54C221.435 8.92667 221.342 8.41333 221.155 8C220.982 7.58667 220.722 7.27333 220.375 7.06C220.042 6.83333 219.622 6.72 219.115 6.72C218.555 6.72 218.075 6.85333 217.675 7.12C217.289 7.37333 216.989 7.74 216.775 8.22C216.575 8.68667 216.475 9.24667 216.475 9.9V10.04C216.475 11.1333 216.729 11.9533 217.235 12.5C217.755 13.0333 218.515 13.3 219.515 13.3C219.862 13.3 220.249 13.26 220.675 13.18C221.115 13.0867 221.529 12.9333 221.915 12.72C222.195 12.56 222.442 12.4933 222.655 12.52C222.869 12.5333 223.035 12.6067 223.155 12.74C223.289 12.8733 223.369 13.04 223.395 13.24C223.422 13.4267 223.382 13.62 223.275 13.82C223.182 14.02 223.015 14.1933 222.775 14.34C222.309 14.6333 221.769 14.8533 221.155 15C220.555 15.1333 219.995 15.2 219.475 15.2ZM234.145 15.2C233.438 15.2 232.805 15.0667 232.245 14.8C231.698 14.52 231.265 14.1467 230.945 13.68C230.638 13.2133 230.485 12.6867 230.485 12.1C230.485 11.38 230.672 10.8133 231.045 10.4C231.418 9.97333 232.025 9.66667 232.865 9.48C233.705 9.29333 234.832 9.2 236.245 9.2H237.245V10.64H236.265C235.438 10.64 234.778 10.68 234.285 10.76C233.792 10.84 233.438 10.98 233.225 11.18C233.025 11.3667 232.925 11.6333 232.925 11.98C232.925 12.42 233.078 12.78 233.385 13.06C233.692 13.34 234.118 13.48 234.665 13.48C235.105 13.48 235.492 13.38 235.825 13.18C236.172 12.9667 236.445 12.68 236.645 12.32C236.845 11.96 236.945 11.5467 236.945 11.08V8.78C236.945 8.11333 236.798 7.63333 236.505 7.34C236.212 7.04667 235.718 6.9 235.025 6.9C234.638 6.9 234.218 6.94667 233.765 7.04C233.325 7.13333 232.858 7.29333 232.365 7.52C232.112 7.64 231.885 7.67333 231.685 7.62C231.498 7.56667 231.352 7.46 231.245 7.3C231.138 7.12667 231.085 6.94 231.085 6.74C231.085 6.54 231.138 6.34667 231.245 6.16C231.352 5.96 231.532 5.81333 231.785 5.72C232.398 5.46667 232.985 5.28667 233.545 5.18C234.118 5.07333 234.638 5.02 235.105 5.02C236.065 5.02 236.852 5.16667 237.465 5.46C238.092 5.75333 238.558 6.2 238.865 6.8C239.172 7.38667 239.325 8.14667 239.325 9.08V13.88C239.325 14.2933 239.225 14.6133 239.025 14.84C238.825 15.0533 238.538 15.16 238.165 15.16C237.792 15.16 237.498 15.0533 237.285 14.84C237.085 14.6133 236.985 14.2933 236.985 13.88V12.92H237.145C237.052 13.3867 236.865 13.7933 236.585 14.14C236.318 14.4733 235.978 14.7333 235.565 14.92C235.152 15.1067 234.678 15.2 234.145 15.2ZM247.503 15.2C246.676 15.2 245.949 14.9933 245.323 14.58C244.709 14.1667 244.303 13.6133 244.103 12.92L244.323 12.42V13.88C244.323 14.2933 244.216 14.6133 244.003 14.84C243.789 15.0533 243.489 15.16 243.103 15.16C242.703 15.16 242.396 15.0533 242.183 14.84C241.969 14.6133 241.863 14.2933 241.863 13.88V2C241.863 1.58667 241.969 1.27333 242.183 1.06C242.396 0.846666 242.703 0.739999 243.103 0.739999C243.503 0.739999 243.809 0.846666 244.023 1.06C244.249 1.27333 244.363 1.58667 244.363 2V7.2H244.123C244.336 6.54667 244.749 6.02 245.363 5.62C245.976 5.22 246.689 5.02 247.503 5.02C248.369 5.02 249.123 5.22667 249.763 5.64C250.403 6.05333 250.903 6.64 251.263 7.4C251.623 8.14667 251.803 9.04667 251.803 10.1C251.803 11.14 251.623 12.0467 251.263 12.82C250.903 13.58 250.396 14.1667 249.743 14.58C249.103 14.9933 248.356 15.2 247.503 15.2ZM246.803 13.3C247.296 13.3 247.729 13.18 248.103 12.94C248.476 12.7 248.763 12.3467 248.963 11.88C249.176 11.4 249.283 10.8067 249.283 10.1C249.283 9.03333 249.056 8.24 248.603 7.72C248.149 7.18667 247.549 6.92 246.803 6.92C246.309 6.92 245.876 7.04 245.503 7.28C245.129 7.50667 244.836 7.86 244.623 8.34C244.423 8.80667 244.323 9.39333 244.323 10.1C244.323 11.1533 244.549 11.9533 245.003 12.5C245.456 13.0333 246.056 13.3 246.803 13.3ZM258.315 15.2C257.301 15.2 256.421 14.9933 255.675 14.58C254.928 14.1667 254.348 13.58 253.935 12.82C253.521 12.0467 253.315 11.14 253.315 10.1C253.315 9.31333 253.428 8.61333 253.655 8C253.895 7.37333 254.235 6.84 254.675 6.4C255.115 5.94667 255.641 5.60667 256.255 5.38C256.868 5.14 257.555 5.02 258.315 5.02C259.328 5.02 260.208 5.22667 260.955 5.64C261.701 6.05333 262.281 6.64 262.695 7.4C263.108 8.16 263.315 9.06 263.315 10.1C263.315 10.8867 263.195 11.5933 262.955 12.22C262.728 12.8467 262.395 13.3867 261.955 13.84C261.515 14.28 260.988 14.62 260.375 14.86C259.761 15.0867 259.075 15.2 258.315 15.2ZM258.315 13.3C258.808 13.3 259.241 13.18 259.615 12.94C259.988 12.7 260.275 12.3467 260.475 11.88C260.688 11.4 260.795 10.8067 260.795 10.1C260.795 9.03333 260.568 8.24 260.115 7.72C259.661 7.18667 259.061 6.92 258.315 6.92C257.821 6.92 257.388 7.04 257.015 7.28C256.641 7.50667 256.348 7.86 256.135 8.34C255.935 8.80667 255.835 9.39333 255.835 10.1C255.835 11.1533 256.061 11.9533 256.515 12.5C256.968 13.0333 257.568 13.3 258.315 13.3ZM268.918 15.2C268.105 15.2 267.431 15.0533 266.898 14.76C266.365 14.4533 265.965 14 265.698 13.4C265.445 12.8 265.318 12.0533 265.318 11.16V6.32C265.318 5.89333 265.425 5.58 265.638 5.38C265.851 5.16667 266.158 5.06 266.558 5.06C266.958 5.06 267.265 5.16667 267.478 5.38C267.705 5.58 267.818 5.89333 267.818 6.32V11.2C267.818 11.8933 267.958 12.4067 268.238 12.74C268.518 13.0733 268.965 13.24 269.578 13.24C270.245 13.24 270.791 13.0133 271.218 12.56C271.645 12.0933 271.858 11.48 271.858 10.72V6.32C271.858 5.89333 271.965 5.58 272.178 5.38C272.391 5.16667 272.698 5.06 273.098 5.06C273.498 5.06 273.805 5.16667 274.018 5.38C274.245 5.58 274.358 5.89333 274.358 6.32V13.88C274.358 14.7333 273.951 15.16 273.138 15.16C272.751 15.16 272.451 15.0533 272.238 14.84C272.025 14.6133 271.918 14.2933 271.918 13.88V12.36L272.198 12.96C271.918 13.68 271.491 14.2333 270.918 14.62C270.358 15.0067 269.691 15.2 268.918 15.2ZM281.44 15.2C280.573 15.2 279.847 15.0533 279.26 14.76C278.687 14.4667 278.26 14.04 277.98 13.48C277.7 12.9067 277.56 12.2 277.56 11.36V7.1H276.52C276.2 7.1 275.953 7.02 275.78 6.86C275.607 6.68667 275.52 6.45333 275.52 6.16C275.52 5.85333 275.607 5.62 275.78 5.46C275.953 5.3 276.2 5.22 276.52 5.22H277.56V3.4C277.56 2.98667 277.667 2.67333 277.88 2.46C278.107 2.24667 278.42 2.14 278.82 2.14C279.22 2.14 279.527 2.24667 279.74 2.46C279.953 2.67333 280.06 2.98667 280.06 3.4V5.22H282.18C282.5 5.22 282.747 5.3 282.92 5.46C283.093 5.62 283.18 5.85333 283.18 6.16C283.18 6.45333 283.093 6.68667 282.92 6.86C282.747 7.02 282.5 7.1 282.18 7.1H280.06V11.22C280.06 11.86 280.2 12.34 280.48 12.66C280.76 12.98 281.213 13.14 281.84 13.14C282.067 13.14 282.267 13.12 282.44 13.08C282.613 13.04 282.767 13.0133 282.9 13C283.06 12.9867 283.193 13.04 283.3 13.16C283.407 13.2667 283.46 13.4933 283.46 13.84C283.46 14.1067 283.413 14.3467 283.32 14.56C283.24 14.76 283.087 14.9 282.86 14.98C282.687 15.0333 282.46 15.08 282.18 15.12C281.9 15.1733 281.653 15.2 281.44 15.2ZM291.306 15.14C290.906 15.14 290.599 15.02 290.386 14.78C290.172 14.54 290.066 14.2067 290.066 13.78V6.44C290.066 6 290.172 5.66667 290.386 5.44C290.599 5.2 290.906 5.08 291.306 5.08C291.706 5.08 292.012 5.2 292.226 5.44C292.452 5.66667 292.566 6 292.566 6.44V13.78C292.566 14.2067 292.459 14.54 292.246 14.78C292.032 15.02 291.719 15.14 291.306 15.14ZM291.306 3.22C290.839 3.22 290.472 3.10667 290.206 2.88C289.952 2.64 289.826 2.31333 289.826 1.9C289.826 1.47333 289.952 1.14667 290.206 0.919999C290.472 0.693333 290.839 0.58 291.306 0.58C291.786 0.58 292.152 0.693333 292.406 0.919999C292.659 1.14667 292.786 1.47333 292.786 1.9C292.786 2.31333 292.659 2.64 292.406 2.88C292.152 3.10667 291.786 3.22 291.306 3.22ZM299.643 15.2C298.777 15.2 298.05 15.0533 297.463 14.76C296.89 14.4667 296.463 14.04 296.183 13.48C295.903 12.9067 295.763 12.2 295.763 11.36V7.1H294.723C294.403 7.1 294.157 7.02 293.983 6.86C293.81 6.68667 293.723 6.45333 293.723 6.16C293.723 5.85333 293.81 5.62 293.983 5.46C294.157 5.3 294.403 5.22 294.723 5.22H295.763V3.4C295.763 2.98667 295.87 2.67333 296.083 2.46C296.31 2.24667 296.623 2.14 297.023 2.14C297.423 2.14 297.73 2.24667 297.943 2.46C298.157 2.67333 298.263 2.98667 298.263 3.4V5.22H300.383C300.703 5.22 300.95 5.3 301.123 5.46C301.297 5.62 301.383 5.85333 301.383 6.16C301.383 6.45333 301.297 6.68667 301.123 6.86C300.95 7.02 300.703 7.1 300.383 7.1H298.263V11.22C298.263 11.86 298.403 12.34 298.683 12.66C298.963 12.98 299.417 13.14 300.043 13.14C300.27 13.14 300.47 13.12 300.643 13.08C300.817 13.04 300.97 13.0133 301.103 13C301.263 12.9867 301.397 13.04 301.503 13.16C301.61 13.2667 301.663 13.4933 301.663 13.84C301.663 14.1067 301.617 14.3467 301.523 14.56C301.443 14.76 301.29 14.9 301.063 14.98C300.89 15.0333 300.663 15.08 300.383 15.12C300.103 15.1733 299.857 15.2 299.643 15.2ZM306.419 15.2C305.846 15.2 305.239 15.14 304.599 15.02C303.959 14.9 303.386 14.6933 302.879 14.4C302.666 14.2667 302.512 14.1133 302.419 13.94C302.339 13.7533 302.306 13.5733 302.319 13.4C302.346 13.2133 302.412 13.0533 302.519 12.92C302.639 12.7867 302.786 12.7 302.959 12.66C303.146 12.62 303.346 12.6533 303.559 12.76C304.092 13.0133 304.592 13.1933 305.059 13.3C305.526 13.3933 305.986 13.44 306.439 13.44C307.079 13.44 307.552 13.3333 307.859 13.12C308.179 12.8933 308.339 12.6 308.339 12.24C308.339 11.9333 308.232 11.7 308.019 11.54C307.819 11.3667 307.512 11.24 307.099 11.16L305.099 10.78C304.272 10.62 303.639 10.32 303.199 9.88C302.772 9.42667 302.559 8.84667 302.559 8.14C302.559 7.5 302.732 6.94667 303.079 6.48C303.439 6.01333 303.932 5.65333 304.559 5.4C305.186 5.14667 305.906 5.02 306.719 5.02C307.306 5.02 307.852 5.08667 308.359 5.22C308.879 5.34 309.379 5.53333 309.859 5.8C310.059 5.90667 310.192 6.04667 310.259 6.22C310.339 6.39333 310.359 6.57333 310.319 6.76C310.279 6.93333 310.199 7.09333 310.079 7.24C309.959 7.37333 309.806 7.46 309.619 7.5C309.446 7.52667 309.246 7.48667 309.019 7.38C308.606 7.16667 308.206 7.01333 307.819 6.92C307.446 6.82667 307.086 6.78 306.739 6.78C306.086 6.78 305.599 6.89333 305.279 7.12C304.972 7.34667 304.819 7.64667 304.819 8.02C304.819 8.3 304.912 8.53333 305.099 8.72C305.286 8.90667 305.572 9.03333 305.959 9.1L307.959 9.48C308.826 9.64 309.479 9.93333 309.919 10.36C310.372 10.7867 310.599 11.36 310.599 12.08C310.599 13.0533 310.219 13.82 309.459 14.38C308.699 14.9267 307.686 15.2 306.419 15.2ZM319.274 15.16C318.874 15.16 318.568 15.0533 318.354 14.84C318.141 14.6133 318.034 14.2933 318.034 13.88V2C318.034 1.58667 318.141 1.27333 318.354 1.06C318.568 0.846666 318.874 0.739999 319.274 0.739999C319.674 0.739999 319.981 0.846666 320.194 1.06C320.421 1.27333 320.534 1.58667 320.534 2V7.18H320.254C320.548 6.47333 321.001 5.94 321.614 5.58C322.241 5.20667 322.948 5.02 323.734 5.02C324.521 5.02 325.168 5.16667 325.674 5.46C326.181 5.75333 326.561 6.2 326.814 6.8C327.068 7.38667 327.194 8.13333 327.194 9.04V13.88C327.194 14.2933 327.088 14.6133 326.874 14.84C326.661 15.0533 326.354 15.16 325.954 15.16C325.554 15.16 325.241 15.0533 325.014 14.84C324.801 14.6133 324.694 14.2933 324.694 13.88V9.16C324.694 8.4 324.548 7.84667 324.254 7.5C323.974 7.15333 323.534 6.98 322.934 6.98C322.201 6.98 321.614 7.21333 321.174 7.68C320.748 8.13333 320.534 8.74 320.534 9.5V13.88C320.534 14.7333 320.114 15.16 319.274 15.16ZM334.554 15.2C333.447 15.2 332.494 14.9933 331.694 14.58C330.894 14.1667 330.274 13.58 329.834 12.82C329.407 12.06 329.194 11.16 329.194 10.12C329.194 9.10667 329.4 8.22 329.814 7.46C330.24 6.7 330.82 6.10667 331.554 5.68C332.3 5.24 333.147 5.02 334.094 5.02C334.787 5.02 335.407 5.13333 335.954 5.36C336.514 5.58667 336.987 5.91333 337.374 6.34C337.774 6.76667 338.074 7.28667 338.274 7.9C338.487 8.5 338.594 9.18 338.594 9.94C338.594 10.18 338.507 10.3667 338.334 10.5C338.174 10.62 337.94 10.68 337.634 10.68H331.214V9.24H336.834L336.514 9.54C336.514 8.92667 336.42 8.41333 336.234 8C336.06 7.58667 335.8 7.27333 335.454 7.06C335.12 6.83333 334.7 6.72 334.194 6.72C333.634 6.72 333.154 6.85333 332.754 7.12C332.367 7.37333 332.067 7.74 331.854 8.22C331.654 8.68667 331.554 9.24667 331.554 9.9V10.04C331.554 11.1333 331.807 11.9533 332.314 12.5C332.834 13.0333 333.594 13.3 334.594 13.3C334.94 13.3 335.327 13.26 335.754 13.18C336.194 13.0867 336.607 12.9333 336.994 12.72C337.274 12.56 337.52 12.4933 337.734 12.52C337.947 12.5333 338.114 12.6067 338.234 12.74C338.367 12.8733 338.447 13.04 338.474 13.24C338.5 13.4267 338.46 13.62 338.354 13.82C338.26 14.02 338.094 14.1933 337.854 14.34C337.387 14.6333 336.847 14.8533 336.234 15C335.634 15.1333 335.074 15.2 334.554 15.2ZM341.813 15.14C341.413 15.14 341.107 15.02 340.893 14.78C340.68 14.54 340.573 14.2067 340.573 13.78V6.44C340.573 6 340.68 5.66667 340.893 5.44C341.107 5.2 341.413 5.08 341.813 5.08C342.213 5.08 342.52 5.2 342.733 5.44C342.96 5.66667 343.073 6 343.073 6.44V13.78C343.073 14.2067 342.967 14.54 342.753 14.78C342.54 15.02 342.227 15.14 341.813 15.14ZM341.813 3.22C341.347 3.22 340.98 3.10667 340.713 2.88C340.46 2.64 340.333 2.31333 340.333 1.9C340.333 1.47333 340.46 1.14667 340.713 0.919999C340.98 0.693333 341.347 0.58 341.813 0.58C342.293 0.58 342.66 0.693333 342.913 0.919999C343.167 1.14667 343.293 1.47333 343.293 1.9C343.293 2.31333 343.167 2.64 342.913 2.88C342.66 3.10667 342.293 3.22 341.813 3.22ZM350.231 18.8C349.511 18.8 348.811 18.7333 348.131 18.6C347.464 18.4667 346.858 18.26 346.311 17.98C346.058 17.8467 345.884 17.6867 345.791 17.5C345.711 17.3133 345.684 17.12 345.711 16.92C345.751 16.7333 345.831 16.5667 345.951 16.42C346.084 16.2733 346.244 16.1733 346.431 16.12C346.618 16.0667 346.811 16.0933 347.011 16.2C347.598 16.4933 348.151 16.68 348.671 16.76C349.204 16.8533 349.658 16.9 350.031 16.9C350.924 16.9 351.591 16.68 352.031 16.24C352.484 15.8133 352.711 15.1733 352.711 14.32V12.52H352.891C352.691 13.2 352.271 13.7467 351.631 14.16C351.004 14.56 350.291 14.76 349.491 14.76C348.611 14.76 347.844 14.56 347.191 14.16C346.538 13.7467 346.031 13.1733 345.671 12.44C345.311 11.7067 345.131 10.8533 345.131 9.88C345.131 9.14667 345.231 8.48667 345.431 7.9C345.644 7.3 345.938 6.78667 346.311 6.36C346.698 5.93333 347.158 5.60667 347.691 5.38C348.238 5.14 348.838 5.02 349.491 5.02C350.318 5.02 351.038 5.22667 351.651 5.64C352.278 6.04 352.684 6.57333 352.871 7.24L352.671 7.74V6.32C352.671 5.90667 352.778 5.59333 352.991 5.38C353.218 5.16667 353.524 5.06 353.911 5.06C354.311 5.06 354.618 5.16667 354.831 5.38C355.044 5.59333 355.151 5.90667 355.151 6.32V14.02C355.151 15.6067 354.731 16.8 353.891 17.6C353.051 18.4 351.831 18.8 350.231 18.8ZM350.171 12.86C350.691 12.86 351.138 12.74 351.511 12.5C351.884 12.26 352.171 11.92 352.371 11.48C352.584 11.0267 352.691 10.4933 352.691 9.88C352.691 8.96 352.464 8.24 352.011 7.72C351.558 7.18667 350.944 6.92 350.171 6.92C349.651 6.92 349.204 7.04 348.831 7.28C348.458 7.52 348.164 7.86 347.951 8.3C347.751 8.74 347.651 9.26667 347.651 9.88C347.651 10.8 347.878 11.5267 348.331 12.06C348.784 12.5933 349.398 12.86 350.171 12.86ZM358.981 15.16C358.581 15.16 358.275 15.0533 358.061 14.84C357.848 14.6133 357.741 14.2933 357.741 13.88V2C357.741 1.58667 357.848 1.27333 358.061 1.06C358.275 0.846666 358.581 0.739999 358.981 0.739999C359.381 0.739999 359.688 0.846666 359.901 1.06C360.128 1.27333 360.241 1.58667 360.241 2V7.18H359.961C360.255 6.47333 360.708 5.94 361.321 5.58C361.948 5.20667 362.655 5.02 363.441 5.02C364.228 5.02 364.875 5.16667 365.381 5.46C365.888 5.75333 366.268 6.2 366.521 6.8C366.775 7.38667 366.901 8.13333 366.901 9.04V13.88C366.901 14.2933 366.795 14.6133 366.581 14.84C366.368 15.0533 366.061 15.16 365.661 15.16C365.261 15.16 364.948 15.0533 364.721 14.84C364.508 14.6133 364.401 14.2933 364.401 13.88V9.16C364.401 8.4 364.255 7.84667 363.961 7.5C363.681 7.15333 363.241 6.98 362.641 6.98C361.908 6.98 361.321 7.21333 360.881 7.68C360.455 8.13333 360.241 8.74 360.241 9.5V13.88C360.241 14.7333 359.821 15.16 358.981 15.16ZM373.921 15.2C373.054 15.2 372.327 15.0533 371.741 14.76C371.167 14.4667 370.741 14.04 370.461 13.48C370.181 12.9067 370.041 12.2 370.041 11.36V7.1H369.001C368.681 7.1 368.434 7.02 368.261 6.86C368.087 6.68667 368.001 6.45333 368.001 6.16C368.001 5.85333 368.087 5.62 368.261 5.46C368.434 5.3 368.681 5.22 369.001 5.22H370.041V3.4C370.041 2.98667 370.147 2.67333 370.361 2.46C370.587 2.24667 370.901 2.14 371.301 2.14C371.701 2.14 372.007 2.24667 372.221 2.46C372.434 2.67333 372.541 2.98667 372.541 3.4V5.22H374.661C374.981 5.22 375.227 5.3 375.401 5.46C375.574 5.62 375.661 5.85333 375.661 6.16C375.661 6.45333 375.574 6.68667 375.401 6.86C375.227 7.02 374.981 7.1 374.661 7.1H372.541V11.22C372.541 11.86 372.681 12.34 372.961 12.66C373.241 12.98 373.694 13.14 374.321 13.14C374.547 13.14 374.747 13.12 374.921 13.08C375.094 13.04 375.247 13.0133 375.381 13C375.541 12.9867 375.674 13.04 375.781 13.16C375.887 13.2667 375.941 13.4933 375.941 13.84C375.941 14.1067 375.894 14.3467 375.801 14.56C375.721 14.76 375.567 14.9 375.341 14.98C375.167 15.0333 374.941 15.08 374.661 15.12C374.381 15.1733 374.134 15.2 373.921 15.2ZM387.026 15.2C386.159 15.2 385.433 15.0533 384.846 14.76C384.273 14.4667 383.846 14.04 383.566 13.48C383.286 12.9067 383.146 12.2 383.146 11.36V7.1H382.106C381.786 7.1 381.539 7.02 381.366 6.86C381.193 6.68667 381.106 6.45333 381.106 6.16C381.106 5.85333 381.193 5.62 381.366 5.46C381.539 5.3 381.786 5.22 382.106 5.22H383.146V3.4C383.146 2.98667 383.253 2.67333 383.466 2.46C383.693 2.24667 384.006 2.14 384.406 2.14C384.806 2.14 385.113 2.24667 385.326 2.46C385.539 2.67333 385.646 2.98667 385.646 3.4V5.22H387.766C388.086 5.22 388.333 5.3 388.506 5.46C388.679 5.62 388.766 5.85333 388.766 6.16C388.766 6.45333 388.679 6.68667 388.506 6.86C388.333 7.02 388.086 7.1 387.766 7.1H385.646V11.22C385.646 11.86 385.786 12.34 386.066 12.66C386.346 12.98 386.799 13.14 387.426 13.14C387.653 13.14 387.853 13.12 388.026 13.08C388.199 13.04 388.353 13.0133 388.486 13C388.646 12.9867 388.779 13.04 388.886 13.16C388.993 13.2667 389.046 13.4933 389.046 13.84C389.046 14.1067 388.999 14.3467 388.906 14.56C388.826 14.76 388.673 14.9 388.446 14.98C388.273 15.0333 388.046 15.08 387.766 15.12C387.486 15.1733 387.239 15.2 387.026 15.2ZM394.584 15.2C393.571 15.2 392.691 14.9933 391.944 14.58C391.198 14.1667 390.618 13.58 390.204 12.82C389.791 12.0467 389.584 11.14 389.584 10.1C389.584 9.31333 389.698 8.61333 389.924 8C390.164 7.37333 390.504 6.84 390.944 6.4C391.384 5.94667 391.911 5.60667 392.524 5.38C393.138 5.14 393.824 5.02 394.584 5.02C395.598 5.02 396.478 5.22667 397.224 5.64C397.971 6.05333 398.551 6.64 398.964 7.4C399.378 8.16 399.584 9.06 399.584 10.1C399.584 10.8867 399.464 11.5933 399.224 12.22C398.998 12.8467 398.664 13.3867 398.224 13.84C397.784 14.28 397.258 14.62 396.644 14.86C396.031 15.0867 395.344 15.2 394.584 15.2ZM394.584 13.3C395.078 13.3 395.511 13.18 395.884 12.94C396.258 12.7 396.544 12.3467 396.744 11.88C396.958 11.4 397.064 10.8067 397.064 10.1C397.064 9.03333 396.838 8.24 396.384 7.72C395.931 7.18667 395.331 6.92 394.584 6.92C394.091 6.92 393.658 7.04 393.284 7.28C392.911 7.50667 392.618 7.86 392.404 8.34C392.204 8.80667 392.104 9.39333 392.104 10.1C392.104 11.1533 392.331 11.9533 392.784 12.5C393.238 13.0333 393.838 13.3 394.584 13.3ZM408.997 15.16C408.597 15.16 408.284 15.0533 408.057 14.84C407.844 14.6133 407.737 14.2933 407.737 13.88V7.1H406.817C406.497 7.1 406.251 7.02 406.077 6.86C405.904 6.68667 405.817 6.45333 405.817 6.16C405.817 5.85333 405.904 5.62 406.077 5.46C406.251 5.3 406.497 5.22 406.817 5.22H408.457L407.737 5.88V5.2C407.737 3.82667 408.084 2.8 408.777 2.12C409.471 1.42667 410.471 1.02 411.777 0.899999L412.457 0.84C412.724 0.813333 412.937 0.859999 413.097 0.979999C413.257 1.08667 413.364 1.23333 413.417 1.42C413.471 1.59333 413.477 1.77333 413.437 1.96C413.397 2.14667 413.311 2.31333 413.177 2.46C413.057 2.59333 412.897 2.66667 412.697 2.68L412.417 2.7C411.657 2.75333 411.104 2.94667 410.757 3.28C410.411 3.61333 410.237 4.12 410.237 4.8V5.54L409.917 5.22H411.937C412.257 5.22 412.504 5.3 412.677 5.46C412.851 5.62 412.937 5.85333 412.937 6.16C412.937 6.45333 412.851 6.68667 412.677 6.86C412.504 7.02 412.257 7.1 411.937 7.1H410.237V13.88C410.237 14.7333 409.824 15.16 408.997 15.16ZM418.569 15.2C417.555 15.2 416.675 14.9933 415.929 14.58C415.182 14.1667 414.602 13.58 414.189 12.82C413.775 12.0467 413.569 11.14 413.569 10.1C413.569 9.31333 413.682 8.61333 413.909 8C414.149 7.37333 414.489 6.84 414.929 6.4C415.369 5.94667 415.895 5.60667 416.509 5.38C417.122 5.14 417.809 5.02 418.569 5.02C419.582 5.02 420.462 5.22667 421.209 5.64C421.955 6.05333 422.535 6.64 422.949 7.4C423.362 8.16 423.569 9.06 423.569 10.1C423.569 10.8867 423.449 11.5933 423.209 12.22C422.982 12.8467 422.649 13.3867 422.209 13.84C421.769 14.28 421.242 14.62 420.629 14.86C420.015 15.0867 419.329 15.2 418.569 15.2ZM418.569 13.3C419.062 13.3 419.495 13.18 419.869 12.94C420.242 12.7 420.529 12.3467 420.729 11.88C420.942 11.4 421.049 10.8067 421.049 10.1C421.049 9.03333 420.822 8.24 420.369 7.72C419.915 7.18667 419.315 6.92 418.569 6.92C418.075 6.92 417.642 7.04 417.269 7.28C416.895 7.50667 416.602 7.86 416.389 8.34C416.189 8.80667 416.089 9.39333 416.089 10.1C416.089 11.1533 416.315 11.9533 416.769 12.5C417.222 13.0333 417.822 13.3 418.569 13.3ZM426.912 15.16C426.499 15.16 426.179 15.0533 425.952 14.84C425.739 14.6133 425.632 14.2933 425.632 13.88V6.32C425.632 5.90667 425.739 5.59333 425.952 5.38C426.165 5.16667 426.465 5.06 426.852 5.06C427.239 5.06 427.539 5.16667 427.752 5.38C427.965 5.59333 428.072 5.90667 428.072 6.32V7.58H427.872C428.059 6.78 428.425 6.17333 428.972 5.76C429.519 5.34667 430.245 5.1 431.152 5.02C431.432 4.99333 431.652 5.06667 431.812 5.24C431.985 5.4 432.085 5.65333 432.112 6C432.139 6.33333 432.059 6.60667 431.872 6.82C431.699 7.02 431.432 7.14 431.072 7.18L430.632 7.22C429.819 7.3 429.205 7.55333 428.792 7.98C428.379 8.39333 428.172 8.98 428.172 9.74V13.88C428.172 14.2933 428.065 14.6133 427.852 14.84C427.639 15.0533 427.325 15.16 426.912 15.16ZM434.744 15.16C434.344 15.16 434.037 15.0533 433.824 14.84C433.611 14.6133 433.504 14.2933 433.504 13.88V6.32C433.504 5.90667 433.611 5.59333 433.824 5.38C434.037 5.16667 434.337 5.06 434.724 5.06C435.111 5.06 435.411 5.16667 435.624 5.38C435.837 5.59333 435.944 5.90667 435.944 6.32V7.78L435.724 7.18C435.991 6.51333 436.404 5.98667 436.964 5.6C437.524 5.21333 438.191 5.02 438.964 5.02C439.751 5.02 440.397 5.20667 440.904 5.58C441.411 5.95333 441.764 6.52667 441.964 7.3H441.684C441.951 6.59333 442.391 6.04 443.004 5.64C443.617 5.22667 444.324 5.02 445.124 5.02C445.871 5.02 446.484 5.16667 446.964 5.46C447.457 5.75333 447.824 6.2 448.064 6.8C448.304 7.38667 448.424 8.13333 448.424 9.04V13.88C448.424 14.2933 448.311 14.6133 448.084 14.84C447.871 15.0533 447.564 15.16 447.164 15.16C446.764 15.16 446.457 15.0533 446.244 14.84C446.031 14.6133 445.924 14.2933 445.924 13.88V9.14C445.924 8.39333 445.797 7.84667 445.544 7.5C445.304 7.15333 444.891 6.98 444.304 6.98C443.651 6.98 443.137 7.21333 442.764 7.68C442.391 8.13333 442.204 8.76667 442.204 9.58V13.88C442.204 14.2933 442.097 14.6133 441.884 14.84C441.671 15.0533 441.364 15.16 440.964 15.16C440.564 15.16 440.251 15.0533 440.024 14.84C439.811 14.6133 439.704 14.2933 439.704 13.88V9.14C439.704 8.39333 439.577 7.84667 439.324 7.5C439.084 7.15333 438.677 6.98 438.104 6.98C437.451 6.98 436.937 7.21333 436.564 7.68C436.191 8.13333 436.004 8.76667 436.004 9.58V13.88C436.004 14.7333 435.584 15.16 434.744 15.16ZM460.913 15.2C460.046 15.2 459.319 15.0533 458.733 14.76C458.159 14.4667 457.733 14.04 457.453 13.48C457.173 12.9067 457.033 12.2 457.033 11.36V7.1H455.993C455.673 7.1 455.426 7.02 455.253 6.86C455.079 6.68667 454.993 6.45333 454.993 6.16C454.993 5.85333 455.079 5.62 455.253 5.46C455.426 5.3 455.673 5.22 455.993 5.22H457.033V3.4C457.033 2.98667 457.139 2.67333 457.353 2.46C457.579 2.24667 457.893 2.14 458.293 2.14C458.693 2.14 458.999 2.24667 459.213 2.46C459.426 2.67333 459.533 2.98667 459.533 3.4V5.22H461.653C461.973 5.22 462.219 5.3 462.393 5.46C462.566 5.62 462.653 5.85333 462.653 6.16C462.653 6.45333 462.566 6.68667 462.393 6.86C462.219 7.02 461.973 7.1 461.653 7.1H459.533V11.22C459.533 11.86 459.673 12.34 459.953 12.66C460.233 12.98 460.686 13.14 461.313 13.14C461.539 13.14 461.739 13.12 461.913 13.08C462.086 13.04 462.239 13.0133 462.373 13C462.533 12.9867 462.666 13.04 462.773 13.16C462.879 13.2667 462.933 13.4933 462.933 13.84C462.933 14.1067 462.886 14.3467 462.793 14.56C462.713 14.76 462.559 14.9 462.333 14.98C462.159 15.0333 461.933 15.08 461.653 15.12C461.373 15.1733 461.126 15.2 460.913 15.2ZM465.603 15.16C465.203 15.16 464.896 15.0533 464.683 14.84C464.469 14.6133 464.363 14.2933 464.363 13.88V2C464.363 1.58667 464.469 1.27333 464.683 1.06C464.896 0.846666 465.203 0.739999 465.603 0.739999C466.003 0.739999 466.309 0.846666 466.523 1.06C466.749 1.27333 466.863 1.58667 466.863 2V7.18H466.583C466.876 6.47333 467.329 5.94 467.943 5.58C468.569 5.20667 469.276 5.02 470.063 5.02C470.849 5.02 471.496 5.16667 472.003 5.46C472.509 5.75333 472.889 6.2 473.143 6.8C473.396 7.38667 473.523 8.13333 473.523 9.04V13.88C473.523 14.2933 473.416 14.6133 473.203 14.84C472.989 15.0533 472.683 15.16 472.283 15.16C471.883 15.16 471.569 15.0533 471.343 14.84C471.129 14.6133 471.023 14.2933 471.023 13.88V9.16C471.023 8.4 470.876 7.84667 470.583 7.5C470.303 7.15333 469.863 6.98 469.263 6.98C468.529 6.98 467.943 7.21333 467.503 7.68C467.076 8.13333 466.863 8.74 466.863 9.5V13.88C466.863 14.7333 466.443 15.16 465.603 15.16ZM480.882 15.2C479.775 15.2 478.822 14.9933 478.022 14.58C477.222 14.1667 476.602 13.58 476.162 12.82C475.735 12.06 475.522 11.16 475.522 10.12C475.522 9.10667 475.728 8.22 476.142 7.46C476.568 6.7 477.148 6.10667 477.882 5.68C478.628 5.24 479.475 5.02 480.422 5.02C481.115 5.02 481.735 5.13333 482.282 5.36C482.842 5.58667 483.315 5.91333 483.702 6.34C484.102 6.76667 484.402 7.28667 484.602 7.9C484.815 8.5 484.922 9.18 484.922 9.94C484.922 10.18 484.835 10.3667 484.662 10.5C484.502 10.62 484.268 10.68 483.962 10.68H477.542V9.24H483.162L482.842 9.54C482.842 8.92667 482.748 8.41333 482.562 8C482.388 7.58667 482.128 7.27333 481.782 7.06C481.448 6.83333 481.028 6.72 480.522 6.72C479.962 6.72 479.482 6.85333 479.082 7.12C478.695 7.37333 478.395 7.74 478.182 8.22C477.982 8.68667 477.882 9.24667 477.882 9.9V10.04C477.882 11.1333 478.135 11.9533 478.642 12.5C479.162 13.0333 479.922 13.3 480.922 13.3C481.268 13.3 481.655 13.26 482.082 13.18C482.522 13.0867 482.935 12.9333 483.322 12.72C483.602 12.56 483.848 12.4933 484.062 12.52C484.275 12.5333 484.442 12.6067 484.562 12.74C484.695 12.8733 484.775 13.04 484.802 13.24C484.828 13.4267 484.788 13.62 484.682 13.82C484.588 14.02 484.422 14.1933 484.182 14.34C483.715 14.6333 483.175 14.8533 482.562 15C481.962 15.1333 481.402 15.2 480.882 15.2ZM496.851 15.2C495.825 15.2 494.931 14.9933 494.171 14.58C493.411 14.1533 492.825 13.5533 492.411 12.78C491.998 12.0067 491.791 11.1 491.791 10.06C491.791 9.27333 491.905 8.57333 492.131 7.96C492.371 7.33333 492.711 6.80667 493.151 6.38C493.591 5.94 494.125 5.60667 494.751 5.38C495.378 5.14 496.078 5.02 496.851 5.02C497.291 5.02 497.765 5.08 498.271 5.2C498.791 5.32 499.278 5.52 499.731 5.8C499.945 5.93333 500.085 6.09333 500.151 6.28C500.218 6.46667 500.231 6.66 500.191 6.86C500.151 7.04667 500.065 7.21333 499.931 7.36C499.811 7.49333 499.658 7.58 499.471 7.62C499.285 7.64667 499.078 7.6 498.851 7.48C498.558 7.30667 498.258 7.18 497.951 7.1C497.645 7.00667 497.351 6.96 497.071 6.96C496.631 6.96 496.245 7.03333 495.911 7.18C495.578 7.31333 495.291 7.51333 495.051 7.78C494.825 8.03333 494.651 8.35333 494.531 8.74C494.411 9.12667 494.351 9.57333 494.351 10.08C494.351 11.0667 494.585 11.8467 495.051 12.42C495.531 12.98 496.205 13.26 497.071 13.26C497.351 13.26 497.638 13.22 497.931 13.14C498.238 13.06 498.545 12.9333 498.851 12.76C499.078 12.64 499.278 12.6 499.451 12.64C499.638 12.68 499.791 12.7733 499.911 12.92C500.031 13.0533 500.105 13.22 500.131 13.42C500.158 13.6067 500.131 13.7933 500.051 13.98C499.985 14.1667 499.851 14.32 499.651 14.44C499.211 14.7067 498.745 14.9 498.251 15.02C497.758 15.14 497.291 15.2 496.851 15.2ZM506.03 15.2C505.016 15.2 504.136 14.9933 503.39 14.58C502.643 14.1667 502.063 13.58 501.65 12.82C501.236 12.0467 501.03 11.14 501.03 10.1C501.03 9.31333 501.143 8.61333 501.37 8C501.61 7.37333 501.95 6.84 502.39 6.4C502.83 5.94667 503.356 5.60667 503.97 5.38C504.583 5.14 505.27 5.02 506.03 5.02C507.043 5.02 507.923 5.22667 508.67 5.64C509.416 6.05333 509.996 6.64 510.41 7.4C510.823 8.16 511.03 9.06 511.03 10.1C511.03 10.8867 510.91 11.5933 510.67 12.22C510.443 12.8467 510.11 13.3867 509.67 13.84C509.23 14.28 508.703 14.62 508.09 14.86C507.476 15.0867 506.79 15.2 506.03 15.2ZM506.03 13.3C506.523 13.3 506.956 13.18 507.33 12.94C507.703 12.7 507.99 12.3467 508.19 11.88C508.403 11.4 508.51 10.8067 508.51 10.1C508.51 9.03333 508.283 8.24 507.83 7.72C507.376 7.18667 506.776 6.92 506.03 6.92C505.536 6.92 505.103 7.04 504.73 7.28C504.356 7.50667 504.063 7.86 503.85 8.34C503.65 8.80667 503.55 9.39333 503.55 10.1C503.55 11.1533 503.776 11.9533 504.23 12.5C504.683 13.0333 505.283 13.3 506.03 13.3ZM514.333 15.16C513.933 15.16 513.626 15.0533 513.413 14.84C513.2 14.6133 513.093 14.2933 513.093 13.88V6.32C513.093 5.90667 513.2 5.59333 513.413 5.38C513.626 5.16667 513.926 5.06 514.313 5.06C514.7 5.06 515 5.16667 515.213 5.38C515.426 5.59333 515.533 5.90667 515.533 6.32V7.68L515.313 7.18C515.606 6.47333 516.06 5.94 516.673 5.58C517.3 5.20667 518.006 5.02 518.793 5.02C519.58 5.02 520.226 5.16667 520.733 5.46C521.24 5.75333 521.62 6.2 521.873 6.8C522.126 7.38667 522.253 8.13333 522.253 9.04V13.88C522.253 14.2933 522.146 14.6133 521.933 14.84C521.72 15.0533 521.413 15.16 521.013 15.16C520.613 15.16 520.3 15.0533 520.073 14.84C519.86 14.6133 519.753 14.2933 519.753 13.88V9.16C519.753 8.4 519.606 7.84667 519.313 7.5C519.033 7.15333 518.593 6.98 517.993 6.98C517.26 6.98 516.673 7.21333 516.233 7.68C515.806 8.13333 515.593 8.74 515.593 9.5V13.88C515.593 14.7333 515.173 15.16 514.333 15.16ZM529.612 15.2C528.506 15.2 527.552 14.9933 526.752 14.58C525.952 14.1667 525.332 13.58 524.892 12.82C524.466 12.06 524.252 11.16 524.252 10.12C524.252 9.10667 524.459 8.22 524.872 7.46C525.299 6.7 525.879 6.10667 526.612 5.68C527.359 5.24 528.206 5.02 529.152 5.02C529.846 5.02 530.466 5.13333 531.012 5.36C531.572 5.58667 532.046 5.91333 532.432 6.34C532.832 6.76667 533.132 7.28667 533.332 7.9C533.546 8.5 533.652 9.18 533.652 9.94C533.652 10.18 533.566 10.3667 533.392 10.5C533.232 10.62 532.999 10.68 532.692 10.68H526.272V9.24H531.892L531.572 9.54C531.572 8.92667 531.479 8.41333 531.292 8C531.119 7.58667 530.859 7.27333 530.512 7.06C530.179 6.83333 529.759 6.72 529.252 6.72C528.692 6.72 528.212 6.85333 527.812 7.12C527.426 7.37333 527.126 7.74 526.912 8.22C526.712 8.68667 526.612 9.24667 526.612 9.9V10.04C526.612 11.1333 526.866 11.9533 527.372 12.5C527.892 13.0333 528.652 13.3 529.652 13.3C529.999 13.3 530.386 13.26 530.812 13.18C531.252 13.0867 531.666 12.9333 532.052 12.72C532.332 12.56 532.579 12.4933 532.792 12.52C533.006 12.5333 533.172 12.6067 533.292 12.74C533.426 12.8733 533.506 13.04 533.532 13.24C533.559 13.4267 533.519 13.62 533.412 13.82C533.319 14.02 533.152 14.1933 532.912 14.34C532.446 14.6333 531.906 14.8533 531.292 15C530.692 15.1333 530.132 15.2 529.612 15.2ZM536.832 15.1C536.379 15.1 536.012 14.96 535.732 14.68C535.465 14.4 535.332 14.04 535.332 13.6C535.332 13.1733 535.465 12.8267 535.732 12.56C536.012 12.28 536.379 12.14 536.832 12.14C537.299 12.14 537.659 12.28 537.912 12.56C538.179 12.8267 538.312 13.1733 538.312 13.6C538.312 14.04 538.179 14.4 537.912 14.68C537.659 14.96 537.299 15.1 536.832 15.1Z" fill="#444444"/>
</svg>
