<svg width="503" height="47" viewBox="0 0 503 47" fill="none" xmlns="http://www.w3.org/2000/svg">
<path d="M5.64219 15.2C5.05552 15.2 4.46885 15.1533 3.88219 15.06C3.29552 14.98 2.74219 14.8533 2.22219 14.68C1.70219 14.4933 1.23552 14.2667 0.822188 14C0.582188 13.84 0.415521 13.6467 0.322188 13.42C0.228854 13.1933 0.195521 12.9733 0.222188 12.76C0.262188 12.5333 0.348854 12.34 0.482188 12.18C0.628854 12.0067 0.808854 11.9 1.02219 11.86C1.23552 11.82 1.46885 11.88 1.72219 12.04C2.30885 12.3867 2.92885 12.64 3.58219 12.8C4.23552 12.96 4.92219 13.04 5.64219 13.04C6.69552 13.04 7.46219 12.8667 7.94219 12.52C8.42219 12.16 8.66219 11.7 8.66219 11.14C8.66219 10.6733 8.48885 10.3067 8.14219 10.04C7.80885 9.77333 7.22885 9.55333 6.40219 9.38L4.20219 8.92C2.93552 8.65333 1.98885 8.20667 1.36219 7.58C0.748854 6.94 0.442188 6.1 0.442188 5.06C0.442188 4.40667 0.575521 3.81333 0.842188 3.28C1.10885 2.74667 1.48219 2.28667 1.96219 1.9C2.45552 1.51333 3.03552 1.22 3.70219 1.02C4.38219 0.806666 5.12885 0.699999 5.94219 0.699999C6.74219 0.699999 7.50219 0.799999 8.22219 0.999999C8.94219 1.2 9.58885 1.49333 10.1622 1.88C10.3755 2.02667 10.5155 2.20667 10.5822 2.42C10.6622 2.63333 10.6822 2.84667 10.6422 3.06C10.6022 3.26 10.5089 3.43333 10.3622 3.58C10.2155 3.72667 10.0289 3.81333 9.80219 3.84C9.58885 3.86667 9.34219 3.8 9.06219 3.64C8.56885 3.36 8.06885 3.16 7.56219 3.04C7.05552 2.92 6.50885 2.86 5.92219 2.86C5.30885 2.86 4.78219 2.94667 4.34219 3.12C3.90219 3.29333 3.56219 3.54 3.32219 3.86C3.09552 4.16667 2.98219 4.53333 2.98219 4.96C2.98219 5.44 3.14219 5.82667 3.46219 6.12C3.78219 6.4 4.32885 6.62 5.10219 6.78L7.28219 7.24C8.60219 7.52 9.58219 7.96 10.2222 8.56C10.8755 9.16 11.2022 9.96 11.2022 10.96C11.2022 11.6 11.0689 12.18 10.8022 12.7C10.5489 13.22 10.1755 13.6667 9.68219 14.04C9.20219 14.4133 8.62219 14.7 7.94219 14.9C7.26219 15.1 6.49552 15.2 5.64219 15.2ZM17.9794 15.2C16.8727 15.2 15.9194 14.9933 15.1194 14.58C14.3194 14.1667 13.6994 13.58 13.2594 12.82C12.8327 12.06 12.6194 11.16 12.6194 10.12C12.6194 9.10667 12.826 8.22 13.2394 7.46C13.666 6.7 14.246 6.10667 14.9794 5.68C15.726 5.24 16.5727 5.02 17.5194 5.02C18.2127 5.02 18.8327 5.13333 19.3794 5.36C19.9394 5.58667 20.4127 5.91333 20.7994 6.34C21.1994 6.76667 21.4994 7.28667 21.6994 7.9C21.9127 8.5 22.0194 9.18 22.0194 9.94C22.0194 10.18 21.9327 10.3667 21.7594 10.5C21.5994 10.62 21.366 10.68 21.0594 10.68H14.6394V9.24H20.2594L19.9394 9.54C19.9394 8.92667 19.846 8.41333 19.6594 8C19.486 7.58667 19.226 7.27333 18.8794 7.06C18.546 6.83333 18.126 6.72 17.6194 6.72C17.0594 6.72 16.5794 6.85333 16.1794 7.12C15.7927 7.37333 15.4927 7.74 15.2794 8.22C15.0794 8.68667 14.9794 9.24667 14.9794 9.9V10.04C14.9794 11.1333 15.2327 11.9533 15.7394 12.5C16.2594 13.0333 17.0194 13.3 18.0194 13.3C18.366 13.3 18.7527 13.26 19.1794 13.18C19.6194 13.0867 20.0327 12.9333 20.4194 12.72C20.6994 12.56 20.946 12.4933 21.1594 12.52C21.3727 12.5333 21.5394 12.6067 21.6594 12.74C21.7927 12.8733 21.8727 13.04 21.8994 13.24C21.926 13.4267 21.886 13.62 21.7794 13.82C21.686 14.02 21.5194 14.1933 21.2794 14.34C20.8127 14.6333 20.2727 14.8533 19.6594 15C19.0594 15.1333 18.4994 15.2 17.9794 15.2ZM28.4402 15.2C27.5735 15.2 26.8468 15.0533 26.2602 14.76C25.6868 14.4667 25.2602 14.04 24.9802 13.48C24.7002 12.9067 24.5602 12.2 24.5602 11.36V7.1H23.5202C23.2002 7.1 22.9535 7.02 22.7802 6.86C22.6068 6.68667 22.5202 6.45333 22.5202 6.16C22.5202 5.85333 22.6068 5.62 22.7802 5.46C22.9535 5.3 23.2002 5.22 23.5202 5.22H24.5602V3.4C24.5602 2.98667 24.6668 2.67333 24.8802 2.46C25.1068 2.24667 25.4202 2.14 25.8202 2.14C26.2202 2.14 26.5268 2.24667 26.7402 2.46C26.9535 2.67333 27.0602 2.98667 27.0602 3.4V5.22H29.1802C29.5002 5.22 29.7468 5.3 29.9202 5.46C30.0935 5.62 30.1802 5.85333 30.1802 6.16C30.1802 6.45333 30.0935 6.68667 29.9202 6.86C29.7468 7.02 29.5002 7.1 29.1802 7.1H27.0602V11.22C27.0602 11.86 27.2002 12.34 27.4802 12.66C27.7602 12.98 28.2135 13.14 28.8402 13.14C29.0668 13.14 29.2668 13.12 29.4402 13.08C29.6135 13.04 29.7668 13.0133 29.9002 13C30.0602 12.9867 30.1935 13.04 30.3002 13.16C30.4068 13.2667 30.4602 13.4933 30.4602 13.84C30.4602 14.1067 30.4135 14.3467 30.3202 14.56C30.2402 14.76 30.0868 14.9 29.8602 14.98C29.6868 15.0333 29.4602 15.08 29.1802 15.12C28.9002 15.1733 28.6535 15.2 28.4402 15.2ZM41.5456 15.2C40.679 15.2 39.9523 15.0533 39.3656 14.76C38.7923 14.4667 38.3656 14.04 38.0856 13.48C37.8056 12.9067 37.6656 12.2 37.6656 11.36V7.1H36.6256C36.3056 7.1 36.059 7.02 35.8856 6.86C35.7123 6.68667 35.6256 6.45333 35.6256 6.16C35.6256 5.85333 35.7123 5.62 35.8856 5.46C36.059 5.3 36.3056 5.22 36.6256 5.22H37.6656V3.4C37.6656 2.98667 37.7723 2.67333 37.9856 2.46C38.2123 2.24667 38.5256 2.14 38.9256 2.14C39.3256 2.14 39.6323 2.24667 39.8456 2.46C40.059 2.67333 40.1656 2.98667 40.1656 3.4V5.22H42.2856C42.6056 5.22 42.8523 5.3 43.0256 5.46C43.199 5.62 43.2856 5.85333 43.2856 6.16C43.2856 6.45333 43.199 6.68667 43.0256 6.86C42.8523 7.02 42.6056 7.1 42.2856 7.1H40.1656V11.22C40.1656 11.86 40.3056 12.34 40.5856 12.66C40.8656 12.98 41.319 13.14 41.9456 13.14C42.1723 13.14 42.3723 13.12 42.5456 13.08C42.719 13.04 42.8723 13.0133 43.0056 13C43.1656 12.9867 43.299 13.04 43.4056 13.16C43.5123 13.2667 43.5656 13.4933 43.5656 13.84C43.5656 14.1067 43.519 14.3467 43.4256 14.56C43.3456 14.76 43.1923 14.9 42.9656 14.98C42.7923 15.0333 42.5656 15.08 42.2856 15.12C42.0056 15.1733 41.759 15.2 41.5456 15.2ZM46.2353 15.16C45.8353 15.16 45.5286 15.0533 45.3153 14.84C45.102 14.6133 44.9953 14.2933 44.9953 13.88V2C44.9953 1.58667 45.102 1.27333 45.3153 1.06C45.5286 0.846666 45.8353 0.739999 46.2353 0.739999C46.6353 0.739999 46.942 0.846666 47.1553 1.06C47.382 1.27333 47.4953 1.58667 47.4953 2V7.18H47.2153C47.5086 6.47333 47.962 5.94 48.5753 5.58C49.202 5.20667 49.9086 5.02 50.6953 5.02C51.482 5.02 52.1286 5.16667 52.6353 5.46C53.142 5.75333 53.522 6.2 53.7753 6.8C54.0286 7.38667 54.1553 8.13333 54.1553 9.04V13.88C54.1553 14.2933 54.0486 14.6133 53.8353 14.84C53.622 15.0533 53.3153 15.16 52.9153 15.16C52.5153 15.16 52.202 15.0533 51.9753 14.84C51.762 14.6133 51.6553 14.2933 51.6553 13.88V9.16C51.6553 8.4 51.5086 7.84667 51.2153 7.5C50.9353 7.15333 50.4953 6.98 49.8953 6.98C49.162 6.98 48.5753 7.21333 48.1353 7.68C47.7086 8.13333 47.4953 8.74 47.4953 9.5V13.88C47.4953 14.7333 47.0753 15.16 46.2353 15.16ZM61.5145 15.2C60.4079 15.2 59.4545 14.9933 58.6545 14.58C57.8545 14.1667 57.2345 13.58 56.7945 12.82C56.3679 12.06 56.1545 11.16 56.1545 10.12C56.1545 9.10667 56.3612 8.22 56.7745 7.46C57.2012 6.7 57.7812 6.10667 58.5145 5.68C59.2612 5.24 60.1079 5.02 61.0545 5.02C61.7479 5.02 62.3679 5.13333 62.9145 5.36C63.4745 5.58667 63.9479 5.91333 64.3345 6.34C64.7345 6.76667 65.0345 7.28667 65.2345 7.9C65.4479 8.5 65.5545 9.18 65.5545 9.94C65.5545 10.18 65.4679 10.3667 65.2945 10.5C65.1345 10.62 64.9012 10.68 64.5945 10.68H58.1745V9.24H63.7945L63.4745 9.54C63.4745 8.92667 63.3812 8.41333 63.1945 8C63.0212 7.58667 62.7612 7.27333 62.4145 7.06C62.0812 6.83333 61.6612 6.72 61.1545 6.72C60.5945 6.72 60.1145 6.85333 59.7145 7.12C59.3279 7.37333 59.0279 7.74 58.8145 8.22C58.6145 8.68667 58.5145 9.24667 58.5145 9.9V10.04C58.5145 11.1333 58.7679 11.9533 59.2745 12.5C59.7945 13.0333 60.5545 13.3 61.5545 13.3C61.9012 13.3 62.2879 13.26 62.7145 13.18C63.1545 13.0867 63.5679 12.9333 63.9545 12.72C64.2345 12.56 64.4812 12.4933 64.6945 12.52C64.9079 12.5333 65.0745 12.6067 65.1945 12.74C65.3279 12.8733 65.4079 13.04 65.4345 13.24C65.4612 13.4267 65.4212 13.62 65.3145 13.82C65.2212 14.02 65.0545 14.1933 64.8145 14.34C64.3479 14.6333 63.8079 14.8533 63.1945 15C62.5945 15.1333 62.0345 15.2 61.5145 15.2ZM74.2041 18.76C73.8041 18.76 73.4974 18.6533 73.2841 18.44C73.0707 18.2267 72.9641 17.9133 72.9641 17.5V6.32C72.9641 5.90667 73.0707 5.59333 73.2841 5.38C73.4974 5.16667 73.7974 5.06 74.1841 5.06C74.5841 5.06 74.8907 5.16667 75.1041 5.38C75.3174 5.59333 75.4241 5.90667 75.4241 6.32V7.88L75.2041 7.28C75.4041 6.6 75.8107 6.05333 76.4241 5.64C77.0507 5.22667 77.7774 5.02 78.6041 5.02C79.4574 5.02 80.2041 5.22667 80.8441 5.64C81.4974 6.05333 82.0041 6.64 82.3641 7.4C82.7241 8.14667 82.9041 9.04667 82.9041 10.1C82.9041 11.14 82.7241 12.0467 82.3641 12.82C82.0041 13.58 81.5041 14.1667 80.8641 14.58C80.2241 14.9933 79.4707 15.2 78.6041 15.2C77.7907 15.2 77.0774 15 76.4641 14.6C75.8507 14.1867 75.4374 13.6533 75.2241 13H75.4641V17.5C75.4641 17.9133 75.3507 18.2267 75.1241 18.44C74.9107 18.6533 74.6041 18.76 74.2041 18.76ZM77.9041 13.3C78.3974 13.3 78.8307 13.18 79.2041 12.94C79.5774 12.7 79.8641 12.3467 80.0641 11.88C80.2774 11.4 80.3841 10.8067 80.3841 10.1C80.3841 9.03333 80.1574 8.24 79.7041 7.72C79.2507 7.18667 78.6507 6.92 77.9041 6.92C77.4107 6.92 76.9774 7.04 76.6041 7.28C76.2307 7.50667 75.9374 7.86 75.7241 8.34C75.5241 8.80667 75.4241 9.39333 75.4241 10.1C75.4241 11.1533 75.6507 11.9533 76.1041 12.5C76.5574 13.0333 77.1574 13.3 77.9041 13.3ZM89.7763 15.2C88.6696 15.2 87.7163 14.9933 86.9163 14.58C86.1163 14.1667 85.4963 13.58 85.0563 12.82C84.6296 12.06 84.4163 11.16 84.4163 10.12C84.4163 9.10667 84.6229 8.22 85.0363 7.46C85.4629 6.7 86.0429 6.10667 86.7763 5.68C87.5229 5.24 88.3696 5.02 89.3163 5.02C90.0096 5.02 90.6296 5.13333 91.1763 5.36C91.7363 5.58667 92.2096 5.91333 92.5963 6.34C92.9963 6.76667 93.2963 7.28667 93.4963 7.9C93.7096 8.5 93.8163 9.18 93.8163 9.94C93.8163 10.18 93.7296 10.3667 93.5563 10.5C93.3963 10.62 93.1629 10.68 92.8563 10.68H86.4363V9.24H92.0563L91.7363 9.54C91.7363 8.92667 91.6429 8.41333 91.4563 8C91.2829 7.58667 91.0229 7.27333 90.6763 7.06C90.3429 6.83333 89.9229 6.72 89.4163 6.72C88.8563 6.72 88.3763 6.85333 87.9763 7.12C87.5896 7.37333 87.2896 7.74 87.0763 8.22C86.8763 8.68667 86.7763 9.24667 86.7763 9.9V10.04C86.7763 11.1333 87.0296 11.9533 87.5363 12.5C88.0563 13.0333 88.8163 13.3 89.8163 13.3C90.1629 13.3 90.5496 13.26 90.9763 13.18C91.4163 13.0867 91.8296 12.9333 92.2163 12.72C92.4963 12.56 92.7429 12.4933 92.9563 12.52C93.1696 12.5333 93.3363 12.6067 93.4563 12.74C93.5896 12.8733 93.6696 13.04 93.6963 13.24C93.7229 13.4267 93.6829 13.62 93.5763 13.82C93.4829 14.02 93.3163 14.1933 93.0763 14.34C92.6096 14.6333 92.0696 14.8533 91.4563 15C90.8563 15.1333 90.2963 15.2 89.7763 15.2ZM97.0761 15.16C96.6628 15.16 96.3428 15.0533 96.1161 14.84C95.9028 14.6133 95.7961 14.2933 95.7961 13.88V6.32C95.7961 5.90667 95.9028 5.59333 96.1161 5.38C96.3294 5.16667 96.6294 5.06 97.0161 5.06C97.4028 5.06 97.7028 5.16667 97.9161 5.38C98.1294 5.59333 98.2361 5.90667 98.2361 6.32V7.58H98.0361C98.2228 6.78 98.5894 6.17333 99.1361 5.76C99.6828 5.34667 100.409 5.1 101.316 5.02C101.596 4.99333 101.816 5.06667 101.976 5.24C102.149 5.4 102.249 5.65333 102.276 6C102.303 6.33333 102.223 6.60667 102.036 6.82C101.863 7.02 101.596 7.14 101.236 7.18L100.796 7.22C99.9828 7.3 99.3694 7.55333 98.9561 7.98C98.5428 8.39333 98.3361 8.98 98.3361 9.74V13.88C98.3361 14.2933 98.2294 14.6133 98.0161 14.84C97.8028 15.0533 97.4894 15.16 97.0761 15.16ZM104.868 18.76C104.468 18.76 104.161 18.6533 103.948 18.44C103.735 18.2267 103.628 17.9133 103.628 17.5V6.32C103.628 5.90667 103.735 5.59333 103.948 5.38C104.161 5.16667 104.461 5.06 104.848 5.06C105.248 5.06 105.555 5.16667 105.768 5.38C105.981 5.59333 106.088 5.90667 106.088 6.32V7.88L105.868 7.28C106.068 6.6 106.475 6.05333 107.088 5.64C107.715 5.22667 108.441 5.02 109.268 5.02C110.121 5.02 110.868 5.22667 111.508 5.64C112.161 6.05333 112.668 6.64 113.028 7.4C113.388 8.14667 113.568 9.04667 113.568 10.1C113.568 11.14 113.388 12.0467 113.028 12.82C112.668 13.58 112.168 14.1667 111.528 14.58C110.888 14.9933 110.135 15.2 109.268 15.2C108.455 15.2 107.741 15 107.128 14.6C106.515 14.1867 106.101 13.6533 105.888 13H106.128V17.5C106.128 17.9133 106.015 18.2267 105.788 18.44C105.575 18.6533 105.268 18.76 104.868 18.76ZM108.568 13.3C109.061 13.3 109.495 13.18 109.868 12.94C110.241 12.7 110.528 12.3467 110.728 11.88C110.941 11.4 111.048 10.8067 111.048 10.1C111.048 9.03333 110.821 8.24 110.368 7.72C109.915 7.18667 109.315 6.92 108.568 6.92C108.075 6.92 107.641 7.04 107.268 7.28C106.895 7.50667 106.601 7.86 106.388 8.34C106.188 8.80667 106.088 9.39333 106.088 10.1C106.088 11.1533 106.315 11.9533 106.768 12.5C107.221 13.0333 107.821 13.3 108.568 13.3ZM120.44 15.2C119.334 15.2 118.38 14.9933 117.58 14.58C116.78 14.1667 116.16 13.58 115.72 12.82C115.294 12.06 115.08 11.16 115.08 10.12C115.08 9.10667 115.287 8.22 115.7 7.46C116.127 6.7 116.707 6.10667 117.44 5.68C118.187 5.24 119.034 5.02 119.98 5.02C120.674 5.02 121.294 5.13333 121.84 5.36C122.4 5.58667 122.874 5.91333 123.26 6.34C123.66 6.76667 123.96 7.28667 124.16 7.9C124.374 8.5 124.48 9.18 124.48 9.94C124.48 10.18 124.394 10.3667 124.22 10.5C124.06 10.62 123.827 10.68 123.52 10.68H117.1V9.24H122.72L122.4 9.54C122.4 8.92667 122.307 8.41333 122.12 8C121.947 7.58667 121.687 7.27333 121.34 7.06C121.007 6.83333 120.587 6.72 120.08 6.72C119.52 6.72 119.04 6.85333 118.64 7.12C118.254 7.37333 117.954 7.74 117.74 8.22C117.54 8.68667 117.44 9.24667 117.44 9.9V10.04C117.44 11.1333 117.694 11.9533 118.2 12.5C118.72 13.0333 119.48 13.3 120.48 13.3C120.827 13.3 121.214 13.26 121.64 13.18C122.08 13.0867 122.494 12.9333 122.88 12.72C123.16 12.56 123.407 12.4933 123.62 12.52C123.834 12.5333 124 12.6067 124.12 12.74C124.254 12.8733 124.334 13.04 124.36 13.24C124.387 13.4267 124.347 13.62 124.24 13.82C124.147 14.02 123.98 14.1933 123.74 14.34C123.274 14.6333 122.734 14.8533 122.12 15C121.52 15.1333 120.96 15.2 120.44 15.2ZM127.7 15.16C127.3 15.16 126.993 15.0533 126.78 14.84C126.567 14.6133 126.46 14.2933 126.46 13.88V6.32C126.46 5.90667 126.567 5.59333 126.78 5.38C126.993 5.16667 127.293 5.06 127.68 5.06C128.067 5.06 128.367 5.16667 128.58 5.38C128.793 5.59333 128.9 5.90667 128.9 6.32V7.68L128.68 7.18C128.973 6.47333 129.427 5.94 130.04 5.58C130.667 5.20667 131.373 5.02 132.16 5.02C132.947 5.02 133.593 5.16667 134.1 5.46C134.607 5.75333 134.987 6.2 135.24 6.8C135.493 7.38667 135.62 8.13333 135.62 9.04V13.88C135.62 14.2933 135.513 14.6133 135.3 14.84C135.087 15.0533 134.78 15.16 134.38 15.16C133.98 15.16 133.667 15.0533 133.44 14.84C133.227 14.6133 133.12 14.2933 133.12 13.88V9.16C133.12 8.4 132.973 7.84667 132.68 7.5C132.4 7.15333 131.96 6.98 131.36 6.98C130.627 6.98 130.04 7.21333 129.6 7.68C129.173 8.13333 128.96 8.74 128.96 9.5V13.88C128.96 14.7333 128.54 15.16 127.7 15.16ZM141.919 15.2C141.066 15.2 140.313 14.9933 139.659 14.58C139.019 14.1667 138.519 13.58 138.159 12.82C137.799 12.0467 137.619 11.14 137.619 10.1C137.619 9.04667 137.799 8.14667 138.159 7.4C138.519 6.64 139.019 6.05333 139.659 5.64C140.313 5.22667 141.066 5.02 141.919 5.02C142.733 5.02 143.439 5.22 144.039 5.62C144.653 6.02 145.066 6.54667 145.279 7.2H145.059V2C145.059 1.58667 145.166 1.27333 145.379 1.06C145.593 0.846666 145.899 0.739999 146.299 0.739999C146.699 0.739999 147.006 0.846666 147.219 1.06C147.446 1.27333 147.559 1.58667 147.559 2V13.88C147.559 14.2933 147.453 14.6133 147.239 14.84C147.026 15.0533 146.719 15.16 146.319 15.16C145.919 15.16 145.613 15.0533 145.399 14.84C145.186 14.6133 145.079 14.2933 145.079 13.88V12.32L145.299 12.92C145.099 13.6133 144.693 14.1667 144.079 14.58C143.466 14.9933 142.746 15.2 141.919 15.2ZM142.619 13.3C143.113 13.3 143.546 13.18 143.919 12.94C144.293 12.7 144.579 12.3467 144.779 11.88C144.993 11.4 145.099 10.8067 145.099 10.1C145.099 9.03333 144.873 8.24 144.419 7.72C143.966 7.18667 143.366 6.92 142.619 6.92C142.126 6.92 141.693 7.04 141.319 7.28C140.946 7.50667 140.653 7.86 140.439 8.34C140.239 8.80667 140.139 9.39333 140.139 10.1C140.139 11.1533 140.366 11.9533 140.819 12.5C141.273 13.0333 141.873 13.3 142.619 13.3ZM151.392 15.14C150.992 15.14 150.685 15.02 150.472 14.78C150.258 14.54 150.152 14.2067 150.152 13.78V6.44C150.152 6 150.258 5.66667 150.472 5.44C150.685 5.2 150.992 5.08 151.392 5.08C151.792 5.08 152.098 5.2 152.312 5.44C152.538 5.66667 152.652 6 152.652 6.44V13.78C152.652 14.2067 152.545 14.54 152.332 14.78C152.118 15.02 151.805 15.14 151.392 15.14ZM151.392 3.22C150.925 3.22 150.558 3.10667 150.292 2.88C150.038 2.64 149.912 2.31333 149.912 1.9C149.912 1.47333 150.038 1.14667 150.292 0.919999C150.558 0.693333 150.925 0.58 151.392 0.58C151.872 0.58 152.238 0.693333 152.492 0.919999C152.745 1.14667 152.872 1.47333 152.872 1.9C152.872 2.31333 152.745 2.64 152.492 2.88C152.238 3.10667 151.872 3.22 151.392 3.22ZM159.769 15.2C158.743 15.2 157.849 14.9933 157.089 14.58C156.329 14.1533 155.743 13.5533 155.329 12.78C154.916 12.0067 154.709 11.1 154.709 10.06C154.709 9.27333 154.823 8.57333 155.049 7.96C155.289 7.33333 155.629 6.80667 156.069 6.38C156.509 5.94 157.043 5.60667 157.669 5.38C158.296 5.14 158.996 5.02 159.769 5.02C160.209 5.02 160.683 5.08 161.189 5.2C161.709 5.32 162.196 5.52 162.649 5.8C162.863 5.93333 163.003 6.09333 163.069 6.28C163.136 6.46667 163.149 6.66 163.109 6.86C163.069 7.04667 162.983 7.21333 162.849 7.36C162.729 7.49333 162.576 7.58 162.389 7.62C162.203 7.64667 161.996 7.6 161.769 7.48C161.476 7.30667 161.176 7.18 160.869 7.1C160.563 7.00667 160.269 6.96 159.989 6.96C159.549 6.96 159.163 7.03333 158.829 7.18C158.496 7.31333 158.209 7.51333 157.969 7.78C157.743 8.03333 157.569 8.35333 157.449 8.74C157.329 9.12667 157.269 9.57333 157.269 10.08C157.269 11.0667 157.503 11.8467 157.969 12.42C158.449 12.98 159.123 13.26 159.989 13.26C160.269 13.26 160.556 13.22 160.849 13.14C161.156 13.06 161.463 12.9333 161.769 12.76C161.996 12.64 162.196 12.6 162.369 12.64C162.556 12.68 162.709 12.7733 162.829 12.92C162.949 13.0533 163.023 13.22 163.049 13.42C163.076 13.6067 163.049 13.7933 162.969 13.98C162.903 14.1667 162.769 14.32 162.569 14.44C162.129 14.7067 161.663 14.9 161.169 15.02C160.676 15.14 160.209 15.2 159.769 15.2ZM168.223 15.2C167.409 15.2 166.736 15.0533 166.203 14.76C165.669 14.4533 165.269 14 165.003 13.4C164.749 12.8 164.623 12.0533 164.623 11.16V6.32C164.623 5.89333 164.729 5.58 164.943 5.38C165.156 5.16667 165.463 5.06 165.863 5.06C166.263 5.06 166.569 5.16667 166.783 5.38C167.009 5.58 167.123 5.89333 167.123 6.32V11.2C167.123 11.8933 167.263 12.4067 167.543 12.74C167.823 13.0733 168.269 13.24 168.883 13.24C169.549 13.24 170.096 13.0133 170.523 12.56C170.949 12.0933 171.163 11.48 171.163 10.72V6.32C171.163 5.89333 171.269 5.58 171.483 5.38C171.696 5.16667 172.003 5.06 172.403 5.06C172.803 5.06 173.109 5.16667 173.323 5.38C173.549 5.58 173.663 5.89333 173.663 6.32V13.88C173.663 14.7333 173.256 15.16 172.443 15.16C172.056 15.16 171.756 15.0533 171.543 14.84C171.329 14.6133 171.223 14.2933 171.223 13.88V12.36L171.503 12.96C171.223 13.68 170.796 14.2333 170.223 14.62C169.663 15.0067 168.996 15.2 168.223 15.2ZM179.605 15.2C178.498 15.2 177.665 14.8867 177.105 14.26C176.545 13.62 176.265 12.6867 176.265 11.46V2C176.265 1.58667 176.372 1.27333 176.585 1.06C176.798 0.846666 177.105 0.739999 177.505 0.739999C177.905 0.739999 178.212 0.846666 178.425 1.06C178.652 1.27333 178.765 1.58667 178.765 2V11.34C178.765 11.9533 178.892 12.4067 179.145 12.7C179.412 12.9933 179.785 13.14 180.265 13.14C180.372 13.14 180.472 13.14 180.565 13.14C180.658 13.1267 180.752 13.1133 180.845 13.1C181.032 13.0733 181.158 13.1267 181.225 13.26C181.292 13.38 181.325 13.6333 181.325 14.02C181.325 14.3533 181.258 14.6133 181.125 14.8C180.992 14.9867 180.772 15.1 180.465 15.14C180.332 15.1533 180.192 15.1667 180.045 15.18C179.898 15.1933 179.752 15.2 179.605 15.2ZM185.872 15.2C185.165 15.2 184.532 15.0667 183.972 14.8C183.425 14.52 182.992 14.1467 182.672 13.68C182.365 13.2133 182.212 12.6867 182.212 12.1C182.212 11.38 182.398 10.8133 182.772 10.4C183.145 9.97333 183.752 9.66667 184.592 9.48C185.432 9.29333 186.558 9.2 187.972 9.2H188.972V10.64H187.992C187.165 10.64 186.505 10.68 186.012 10.76C185.518 10.84 185.165 10.98 184.952 11.18C184.752 11.3667 184.652 11.6333 184.652 11.98C184.652 12.42 184.805 12.78 185.112 13.06C185.418 13.34 185.845 13.48 186.392 13.48C186.832 13.48 187.218 13.38 187.552 13.18C187.898 12.9667 188.172 12.68 188.372 12.32C188.572 11.96 188.672 11.5467 188.672 11.08V8.78C188.672 8.11333 188.525 7.63333 188.232 7.34C187.938 7.04667 187.445 6.9 186.752 6.9C186.365 6.9 185.945 6.94667 185.492 7.04C185.052 7.13333 184.585 7.29333 184.092 7.52C183.838 7.64 183.612 7.67333 183.412 7.62C183.225 7.56667 183.078 7.46 182.972 7.3C182.865 7.12667 182.812 6.94 182.812 6.74C182.812 6.54 182.865 6.34667 182.972 6.16C183.078 5.96 183.258 5.81333 183.512 5.72C184.125 5.46667 184.712 5.28667 185.272 5.18C185.845 5.07333 186.365 5.02 186.832 5.02C187.792 5.02 188.578 5.16667 189.192 5.46C189.818 5.75333 190.285 6.2 190.592 6.8C190.898 7.38667 191.052 8.14667 191.052 9.08V13.88C191.052 14.2933 190.952 14.6133 190.752 14.84C190.552 15.0533 190.265 15.16 189.892 15.16C189.518 15.16 189.225 15.0533 189.012 14.84C188.812 14.6133 188.712 14.2933 188.712 13.88V12.92H188.872C188.778 13.3867 188.592 13.7933 188.312 14.14C188.045 14.4733 187.705 14.7333 187.292 14.92C186.878 15.1067 186.405 15.2 185.872 15.2ZM194.869 15.16C194.456 15.16 194.136 15.0533 193.909 14.84C193.696 14.6133 193.589 14.2933 193.589 13.88V6.32C193.589 5.90667 193.696 5.59333 193.909 5.38C194.122 5.16667 194.422 5.06 194.809 5.06C195.196 5.06 195.496 5.16667 195.709 5.38C195.922 5.59333 196.029 5.90667 196.029 6.32V7.58H195.829C196.016 6.78 196.382 6.17333 196.929 5.76C197.476 5.34667 198.202 5.1 199.109 5.02C199.389 4.99333 199.609 5.06667 199.769 5.24C199.942 5.4 200.042 5.65333 200.069 6C200.096 6.33333 200.016 6.60667 199.829 6.82C199.656 7.02 199.389 7.14 199.029 7.18L198.589 7.22C197.776 7.3 197.162 7.55333 196.749 7.98C196.336 8.39333 196.129 8.98 196.129 9.74V13.88C196.129 14.2933 196.022 14.6133 195.809 14.84C195.596 15.0533 195.282 15.16 194.869 15.16ZM210.431 15.2C209.857 15.2 209.251 15.14 208.611 15.02C207.971 14.9 207.397 14.6933 206.891 14.4C206.677 14.2667 206.524 14.1133 206.431 13.94C206.351 13.7533 206.317 13.5733 206.331 13.4C206.357 13.2133 206.424 13.0533 206.531 12.92C206.651 12.7867 206.797 12.7 206.971 12.66C207.157 12.62 207.357 12.6533 207.571 12.76C208.104 13.0133 208.604 13.1933 209.071 13.3C209.537 13.3933 209.997 13.44 210.451 13.44C211.091 13.44 211.564 13.3333 211.871 13.12C212.191 12.8933 212.351 12.6 212.351 12.24C212.351 11.9333 212.244 11.7 212.031 11.54C211.831 11.3667 211.524 11.24 211.111 11.16L209.111 10.78C208.284 10.62 207.651 10.32 207.211 9.88C206.784 9.42667 206.571 8.84667 206.571 8.14C206.571 7.5 206.744 6.94667 207.091 6.48C207.451 6.01333 207.944 5.65333 208.571 5.4C209.197 5.14667 209.917 5.02 210.731 5.02C211.317 5.02 211.864 5.08667 212.371 5.22C212.891 5.34 213.391 5.53333 213.871 5.8C214.071 5.90667 214.204 6.04667 214.271 6.22C214.351 6.39333 214.371 6.57333 214.331 6.76C214.291 6.93333 214.211 7.09333 214.091 7.24C213.971 7.37333 213.817 7.46 213.631 7.5C213.457 7.52667 213.257 7.48667 213.031 7.38C212.617 7.16667 212.217 7.01333 211.831 6.92C211.457 6.82667 211.097 6.78 210.751 6.78C210.097 6.78 209.611 6.89333 209.291 7.12C208.984 7.34667 208.831 7.64667 208.831 8.02C208.831 8.3 208.924 8.53333 209.111 8.72C209.297 8.90667 209.584 9.03333 209.971 9.1L211.971 9.48C212.837 9.64 213.491 9.93333 213.931 10.36C214.384 10.7867 214.611 11.36 214.611 12.08C214.611 13.0533 214.231 13.82 213.471 14.38C212.711 14.9267 211.697 15.2 210.431 15.2ZM217.856 15.14C217.456 15.14 217.15 15.02 216.936 14.78C216.723 14.54 216.616 14.2067 216.616 13.78V6.44C216.616 6 216.723 5.66667 216.936 5.44C217.15 5.2 217.456 5.08 217.856 5.08C218.256 5.08 218.563 5.2 218.776 5.44C219.003 5.66667 219.116 6 219.116 6.44V13.78C219.116 14.2067 219.01 14.54 218.796 14.78C218.583 15.02 218.27 15.14 217.856 15.14ZM217.856 3.22C217.39 3.22 217.023 3.10667 216.756 2.88C216.503 2.64 216.376 2.31333 216.376 1.9C216.376 1.47333 216.503 1.14667 216.756 0.919999C217.023 0.693333 217.39 0.58 217.856 0.58C218.336 0.58 218.703 0.693333 218.956 0.919999C219.21 1.14667 219.336 1.47333 219.336 1.9C219.336 2.31333 219.21 2.64 218.956 2.88C218.703 3.10667 218.336 3.22 217.856 3.22ZM225.474 15.2C224.621 15.2 223.867 14.9933 223.214 14.58C222.574 14.1667 222.074 13.58 221.714 12.82C221.354 12.0467 221.174 11.14 221.174 10.1C221.174 9.04667 221.354 8.14667 221.714 7.4C222.074 6.64 222.574 6.05333 223.214 5.64C223.867 5.22667 224.621 5.02 225.474 5.02C226.287 5.02 226.994 5.22 227.594 5.62C228.207 6.02 228.621 6.54667 228.834 7.2H228.614V2C228.614 1.58667 228.721 1.27333 228.934 1.06C229.147 0.846666 229.454 0.739999 229.854 0.739999C230.254 0.739999 230.561 0.846666 230.774 1.06C231.001 1.27333 231.114 1.58667 231.114 2V13.88C231.114 14.2933 231.007 14.6133 230.794 14.84C230.581 15.0533 230.274 15.16 229.874 15.16C229.474 15.16 229.167 15.0533 228.954 14.84C228.741 14.6133 228.634 14.2933 228.634 13.88V12.32L228.854 12.92C228.654 13.6133 228.247 14.1667 227.634 14.58C227.021 14.9933 226.301 15.2 225.474 15.2ZM226.174 13.3C226.667 13.3 227.101 13.18 227.474 12.94C227.847 12.7 228.134 12.3467 228.334 11.88C228.547 11.4 228.654 10.8067 228.654 10.1C228.654 9.03333 228.427 8.24 227.974 7.72C227.521 7.18667 226.921 6.92 226.174 6.92C225.681 6.92 225.247 7.04 224.874 7.28C224.501 7.50667 224.207 7.86 223.994 8.34C223.794 8.80667 223.694 9.39333 223.694 10.1C223.694 11.1533 223.921 11.9533 224.374 12.5C224.827 13.0333 225.427 13.3 226.174 13.3ZM238.526 15.2C237.42 15.2 236.466 14.9933 235.666 14.58C234.866 14.1667 234.246 13.58 233.806 12.82C233.38 12.06 233.166 11.16 233.166 10.12C233.166 9.10667 233.373 8.22 233.786 7.46C234.213 6.7 234.793 6.10667 235.526 5.68C236.273 5.24 237.12 5.02 238.066 5.02C238.76 5.02 239.38 5.13333 239.926 5.36C240.486 5.58667 240.96 5.91333 241.346 6.34C241.746 6.76667 242.046 7.28667 242.246 7.9C242.46 8.5 242.566 9.18 242.566 9.94C242.566 10.18 242.48 10.3667 242.306 10.5C242.146 10.62 241.913 10.68 241.606 10.68H235.186V9.24H240.806L240.486 9.54C240.486 8.92667 240.393 8.41333 240.206 8C240.033 7.58667 239.773 7.27333 239.426 7.06C239.093 6.83333 238.673 6.72 238.166 6.72C237.606 6.72 237.126 6.85333 236.726 7.12C236.34 7.37333 236.04 7.74 235.826 8.22C235.626 8.68667 235.526 9.24667 235.526 9.9V10.04C235.526 11.1333 235.78 11.9533 236.286 12.5C236.806 13.0333 237.566 13.3 238.566 13.3C238.913 13.3 239.3 13.26 239.726 13.18C240.166 13.0867 240.58 12.9333 240.966 12.72C241.246 12.56 241.493 12.4933 241.706 12.52C241.92 12.5333 242.086 12.6067 242.206 12.74C242.34 12.8733 242.42 13.04 242.446 13.24C242.473 13.4267 242.433 13.62 242.326 13.82C242.233 14.02 242.066 14.1933 241.826 14.34C241.36 14.6333 240.82 14.8533 240.206 15C239.606 15.1333 239.046 15.2 238.526 15.2ZM248.126 15.2C247.553 15.2 246.946 15.14 246.306 15.02C245.666 14.9 245.093 14.6933 244.586 14.4C244.373 14.2667 244.219 14.1133 244.126 13.94C244.046 13.7533 244.013 13.5733 244.026 13.4C244.053 13.2133 244.119 13.0533 244.226 12.92C244.346 12.7867 244.493 12.7 244.666 12.66C244.853 12.62 245.053 12.6533 245.266 12.76C245.799 13.0133 246.299 13.1933 246.766 13.3C247.233 13.3933 247.693 13.44 248.146 13.44C248.786 13.44 249.259 13.3333 249.566 13.12C249.886 12.8933 250.046 12.6 250.046 12.24C250.046 11.9333 249.939 11.7 249.726 11.54C249.526 11.3667 249.219 11.24 248.806 11.16L246.806 10.78C245.979 10.62 245.346 10.32 244.906 9.88C244.479 9.42667 244.266 8.84667 244.266 8.14C244.266 7.5 244.439 6.94667 244.786 6.48C245.146 6.01333 245.639 5.65333 246.266 5.4C246.893 5.14667 247.613 5.02 248.426 5.02C249.013 5.02 249.559 5.08667 250.066 5.22C250.586 5.34 251.086 5.53333 251.566 5.8C251.766 5.90667 251.899 6.04667 251.966 6.22C252.046 6.39333 252.066 6.57333 252.026 6.76C251.986 6.93333 251.906 7.09333 251.786 7.24C251.666 7.37333 251.513 7.46 251.326 7.5C251.153 7.52667 250.953 7.48667 250.726 7.38C250.313 7.16667 249.913 7.01333 249.526 6.92C249.153 6.82667 248.793 6.78 248.446 6.78C247.793 6.78 247.306 6.89333 246.986 7.12C246.679 7.34667 246.526 7.64667 246.526 8.02C246.526 8.3 246.619 8.53333 246.806 8.72C246.993 8.90667 247.279 9.03333 247.666 9.1L249.666 9.48C250.533 9.64 251.186 9.93333 251.626 10.36C252.079 10.7867 252.306 11.36 252.306 12.08C252.306 13.0533 251.926 13.82 251.166 14.38C250.406 14.9267 249.393 15.2 248.126 15.2ZM264.201 15.2C263.188 15.2 262.308 14.9933 261.561 14.58C260.815 14.1667 260.235 13.58 259.821 12.82C259.408 12.0467 259.201 11.14 259.201 10.1C259.201 9.31333 259.315 8.61333 259.541 8C259.781 7.37333 260.121 6.84 260.561 6.4C261.001 5.94667 261.528 5.60667 262.141 5.38C262.755 5.14 263.441 5.02 264.201 5.02C265.215 5.02 266.095 5.22667 266.841 5.64C267.588 6.05333 268.168 6.64 268.581 7.4C268.995 8.16 269.201 9.06 269.201 10.1C269.201 10.8867 269.081 11.5933 268.841 12.22C268.615 12.8467 268.281 13.3867 267.841 13.84C267.401 14.28 266.875 14.62 266.261 14.86C265.648 15.0867 264.961 15.2 264.201 15.2ZM264.201 13.3C264.695 13.3 265.128 13.18 265.501 12.94C265.875 12.7 266.161 12.3467 266.361 11.88C266.575 11.4 266.681 10.8067 266.681 10.1C266.681 9.03333 266.455 8.24 266.001 7.72C265.548 7.18667 264.948 6.92 264.201 6.92C263.708 6.92 263.275 7.04 262.901 7.28C262.528 7.50667 262.235 7.86 262.021 8.34C261.821 8.80667 261.721 9.39333 261.721 10.1C261.721 11.1533 261.948 11.9533 262.401 12.5C262.855 13.0333 263.455 13.3 264.201 13.3ZM273.087 15.16C272.687 15.16 272.374 15.0533 272.147 14.84C271.934 14.6133 271.827 14.2933 271.827 13.88V7.1H270.907C270.587 7.1 270.341 7.02 270.167 6.86C269.994 6.68667 269.907 6.45333 269.907 6.16C269.907 5.85333 269.994 5.62 270.167 5.46C270.341 5.3 270.587 5.22 270.907 5.22H272.547L271.827 5.88V5.2C271.827 3.82667 272.174 2.8 272.867 2.12C273.561 1.42667 274.561 1.02 275.867 0.899999L276.547 0.84C276.814 0.813333 277.027 0.859999 277.187 0.979999C277.347 1.08667 277.454 1.23333 277.507 1.42C277.561 1.59333 277.567 1.77333 277.527 1.96C277.487 2.14667 277.401 2.31333 277.267 2.46C277.147 2.59333 276.987 2.66667 276.787 2.68L276.507 2.7C275.747 2.75333 275.194 2.94667 274.847 3.28C274.501 3.61333 274.327 4.12 274.327 4.8V5.54L274.007 5.22H276.027C276.347 5.22 276.594 5.3 276.767 5.46C276.941 5.62 277.027 5.85333 277.027 6.16C277.027 6.45333 276.941 6.68667 276.767 6.86C276.594 7.02 276.347 7.1 276.027 7.1H274.327V13.88C274.327 14.7333 273.914 15.16 273.087 15.16ZM288.362 15.2C287.495 15.2 286.769 15.0533 286.182 14.76C285.609 14.4667 285.182 14.04 284.902 13.48C284.622 12.9067 284.482 12.2 284.482 11.36V7.1H283.442C283.122 7.1 282.875 7.02 282.702 6.86C282.529 6.68667 282.442 6.45333 282.442 6.16C282.442 5.85333 282.529 5.62 282.702 5.46C282.875 5.3 283.122 5.22 283.442 5.22H284.482V3.4C284.482 2.98667 284.589 2.67333 284.802 2.46C285.029 2.24667 285.342 2.14 285.742 2.14C286.142 2.14 286.449 2.24667 286.662 2.46C286.875 2.67333 286.982 2.98667 286.982 3.4V5.22H289.102C289.422 5.22 289.669 5.3 289.842 5.46C290.015 5.62 290.102 5.85333 290.102 6.16C290.102 6.45333 290.015 6.68667 289.842 6.86C289.669 7.02 289.422 7.1 289.102 7.1H286.982V11.22C286.982 11.86 287.122 12.34 287.402 12.66C287.682 12.98 288.135 13.14 288.762 13.14C288.989 13.14 289.189 13.12 289.362 13.08C289.535 13.04 289.689 13.0133 289.822 13C289.982 12.9867 290.115 13.04 290.222 13.16C290.329 13.2667 290.382 13.4933 290.382 13.84C290.382 14.1067 290.335 14.3467 290.242 14.56C290.162 14.76 290.009 14.9 289.782 14.98C289.609 15.0333 289.382 15.08 289.102 15.12C288.822 15.1733 288.575 15.2 288.362 15.2ZM293.052 15.16C292.652 15.16 292.345 15.0533 292.132 14.84C291.918 14.6133 291.812 14.2933 291.812 13.88V2C291.812 1.58667 291.918 1.27333 292.132 1.06C292.345 0.846666 292.652 0.739999 293.052 0.739999C293.452 0.739999 293.758 0.846666 293.972 1.06C294.198 1.27333 294.312 1.58667 294.312 2V7.18H294.032C294.325 6.47333 294.778 5.94 295.392 5.58C296.018 5.20667 296.725 5.02 297.512 5.02C298.298 5.02 298.945 5.16667 299.452 5.46C299.958 5.75333 300.338 6.2 300.592 6.8C300.845 7.38667 300.972 8.13333 300.972 9.04V13.88C300.972 14.2933 300.865 14.6133 300.652 14.84C300.438 15.0533 300.132 15.16 299.732 15.16C299.332 15.16 299.018 15.0533 298.792 14.84C298.578 14.6133 298.472 14.2933 298.472 13.88V9.16C298.472 8.4 298.325 7.84667 298.032 7.5C297.752 7.15333 297.312 6.98 296.712 6.98C295.978 6.98 295.392 7.21333 294.952 7.68C294.525 8.13333 294.312 8.74 294.312 9.5V13.88C294.312 14.7333 293.892 15.16 293.052 15.16ZM308.331 15.2C307.224 15.2 306.271 14.9933 305.471 14.58C304.671 14.1667 304.051 13.58 303.611 12.82C303.184 12.06 302.971 11.16 302.971 10.12C302.971 9.10667 303.178 8.22 303.591 7.46C304.018 6.7 304.598 6.10667 305.331 5.68C306.078 5.24 306.924 5.02 307.871 5.02C308.564 5.02 309.184 5.13333 309.731 5.36C310.291 5.58667 310.764 5.91333 311.151 6.34C311.551 6.76667 311.851 7.28667 312.051 7.9C312.264 8.5 312.371 9.18 312.371 9.94C312.371 10.18 312.284 10.3667 312.111 10.5C311.951 10.62 311.718 10.68 311.411 10.68H304.991V9.24H310.611L310.291 9.54C310.291 8.92667 310.198 8.41333 310.011 8C309.838 7.58667 309.578 7.27333 309.231 7.06C308.898 6.83333 308.478 6.72 307.971 6.72C307.411 6.72 306.931 6.85333 306.531 7.12C306.144 7.37333 305.844 7.74 305.631 8.22C305.431 8.68667 305.331 9.24667 305.331 9.9V10.04C305.331 11.1333 305.584 11.9533 306.091 12.5C306.611 13.0333 307.371 13.3 308.371 13.3C308.718 13.3 309.104 13.26 309.531 13.18C309.971 13.0867 310.384 12.9333 310.771 12.72C311.051 12.56 311.298 12.4933 311.511 12.52C311.724 12.5333 311.891 12.6067 312.011 12.74C312.144 12.8733 312.224 13.04 312.251 13.24C312.278 13.4267 312.238 13.62 312.131 13.82C312.038 14.02 311.871 14.1933 311.631 14.34C311.164 14.6333 310.624 14.8533 310.011 15C309.411 15.1333 308.851 15.2 308.331 15.2ZM321.06 15.16C320.647 15.16 320.327 15.0533 320.1 14.84C319.887 14.6133 319.78 14.2933 319.78 13.88V6.32C319.78 5.90667 319.887 5.59333 320.1 5.38C320.314 5.16667 320.614 5.06 321 5.06C321.387 5.06 321.687 5.16667 321.9 5.38C322.114 5.59333 322.22 5.90667 322.22 6.32V7.58H322.02C322.207 6.78 322.574 6.17333 323.12 5.76C323.667 5.34667 324.394 5.1 325.3 5.02C325.58 4.99333 325.8 5.06667 325.96 5.24C326.134 5.4 326.234 5.65333 326.26 6C326.287 6.33333 326.207 6.60667 326.02 6.82C325.847 7.02 325.58 7.14 325.22 7.18L324.78 7.22C323.967 7.3 323.354 7.55333 322.94 7.98C322.527 8.39333 322.32 8.98 322.32 9.74V13.88C322.32 14.2933 322.214 14.6133 322 14.84C321.787 15.0533 321.474 15.16 321.06 15.16ZM328.853 15.14C328.453 15.14 328.146 15.02 327.933 14.78C327.719 14.54 327.613 14.2067 327.613 13.78V6.44C327.613 6 327.719 5.66667 327.933 5.44C328.146 5.2 328.453 5.08 328.853 5.08C329.253 5.08 329.559 5.2 329.773 5.44C329.999 5.66667 330.113 6 330.113 6.44V13.78C330.113 14.2067 330.006 14.54 329.793 14.78C329.579 15.02 329.266 15.14 328.853 15.14ZM328.853 3.22C328.386 3.22 328.019 3.10667 327.753 2.88C327.499 2.64 327.373 2.31333 327.373 1.9C327.373 1.47333 327.499 1.14667 327.753 0.919999C328.019 0.693333 328.386 0.58 328.853 0.58C329.333 0.58 329.699 0.693333 329.953 0.919999C330.206 1.14667 330.333 1.47333 330.333 1.9C330.333 2.31333 330.206 2.64 329.953 2.88C329.699 3.10667 329.333 3.22 328.853 3.22ZM337.27 18.8C336.55 18.8 335.85 18.7333 335.17 18.6C334.503 18.4667 333.897 18.26 333.35 17.98C333.097 17.8467 332.923 17.6867 332.83 17.5C332.75 17.3133 332.723 17.12 332.75 16.92C332.79 16.7333 332.87 16.5667 332.99 16.42C333.123 16.2733 333.283 16.1733 333.47 16.12C333.657 16.0667 333.85 16.0933 334.05 16.2C334.637 16.4933 335.19 16.68 335.71 16.76C336.243 16.8533 336.697 16.9 337.07 16.9C337.963 16.9 338.63 16.68 339.07 16.24C339.523 15.8133 339.75 15.1733 339.75 14.32V12.52H339.93C339.73 13.2 339.31 13.7467 338.67 14.16C338.043 14.56 337.33 14.76 336.53 14.76C335.65 14.76 334.883 14.56 334.23 14.16C333.577 13.7467 333.07 13.1733 332.71 12.44C332.35 11.7067 332.17 10.8533 332.17 9.88C332.17 9.14667 332.27 8.48667 332.47 7.9C332.683 7.3 332.977 6.78667 333.35 6.36C333.737 5.93333 334.197 5.60667 334.73 5.38C335.277 5.14 335.877 5.02 336.53 5.02C337.357 5.02 338.077 5.22667 338.69 5.64C339.317 6.04 339.723 6.57333 339.91 7.24L339.71 7.74V6.32C339.71 5.90667 339.817 5.59333 340.03 5.38C340.257 5.16667 340.563 5.06 340.95 5.06C341.35 5.06 341.657 5.16667 341.87 5.38C342.083 5.59333 342.19 5.90667 342.19 6.32V14.02C342.19 15.6067 341.77 16.8 340.93 17.6C340.09 18.4 338.87 18.8 337.27 18.8ZM337.21 12.86C337.73 12.86 338.177 12.74 338.55 12.5C338.923 12.26 339.21 11.92 339.41 11.48C339.623 11.0267 339.73 10.4933 339.73 9.88C339.73 8.96 339.503 8.24 339.05 7.72C338.597 7.18667 337.983 6.92 337.21 6.92C336.69 6.92 336.243 7.04 335.87 7.28C335.497 7.52 335.203 7.86 334.99 8.3C334.79 8.74 334.69 9.26667 334.69 9.88C334.69 10.8 334.917 11.5267 335.37 12.06C335.823 12.5933 336.437 12.86 337.21 12.86ZM346.02 15.16C345.62 15.16 345.314 15.0533 345.1 14.84C344.887 14.6133 344.78 14.2933 344.78 13.88V2C344.78 1.58667 344.887 1.27333 345.1 1.06C345.314 0.846666 345.62 0.739999 346.02 0.739999C346.42 0.739999 346.727 0.846666 346.94 1.06C347.167 1.27333 347.28 1.58667 347.28 2V7.18H347C347.294 6.47333 347.747 5.94 348.36 5.58C348.987 5.20667 349.694 5.02 350.48 5.02C351.267 5.02 351.914 5.16667 352.42 5.46C352.927 5.75333 353.307 6.2 353.56 6.8C353.814 7.38667 353.94 8.13333 353.94 9.04V13.88C353.94 14.2933 353.834 14.6133 353.62 14.84C353.407 15.0533 353.1 15.16 352.7 15.16C352.3 15.16 351.987 15.0533 351.76 14.84C351.547 14.6133 351.44 14.2933 351.44 13.88V9.16C351.44 8.4 351.294 7.84667 351 7.5C350.72 7.15333 350.28 6.98 349.68 6.98C348.947 6.98 348.36 7.21333 347.92 7.68C347.494 8.13333 347.28 8.74 347.28 9.5V13.88C347.28 14.7333 346.86 15.16 346.02 15.16ZM360.96 15.2C360.093 15.2 359.366 15.0533 358.78 14.76C358.206 14.4667 357.78 14.04 357.5 13.48C357.22 12.9067 357.08 12.2 357.08 11.36V7.1H356.04C355.72 7.1 355.473 7.02 355.3 6.86C355.126 6.68667 355.04 6.45333 355.04 6.16C355.04 5.85333 355.126 5.62 355.3 5.46C355.473 5.3 355.72 5.22 356.04 5.22H357.08V3.4C357.08 2.98667 357.186 2.67333 357.4 2.46C357.626 2.24667 357.94 2.14 358.34 2.14C358.74 2.14 359.046 2.24667 359.26 2.46C359.473 2.67333 359.58 2.98667 359.58 3.4V5.22H361.7C362.02 5.22 362.266 5.3 362.44 5.46C362.613 5.62 362.7 5.85333 362.7 6.16C362.7 6.45333 362.613 6.68667 362.44 6.86C362.266 7.02 362.02 7.1 361.7 7.1H359.58V11.22C359.58 11.86 359.72 12.34 360 12.66C360.28 12.98 360.733 13.14 361.36 13.14C361.586 13.14 361.786 13.12 361.96 13.08C362.133 13.04 362.286 13.0133 362.42 13C362.58 12.9867 362.713 13.04 362.82 13.16C362.926 13.2667 362.98 13.4933 362.98 13.84C362.98 14.1067 362.933 14.3467 362.84 14.56C362.76 14.76 362.606 14.9 362.38 14.98C362.206 15.0333 361.98 15.08 361.7 15.12C361.42 15.1733 361.173 15.2 360.96 15.2ZM374.065 15.2C373.198 15.2 372.472 15.0533 371.885 14.76C371.312 14.4667 370.885 14.04 370.605 13.48C370.325 12.9067 370.185 12.2 370.185 11.36V7.1H369.145C368.825 7.1 368.578 7.02 368.405 6.86C368.232 6.68667 368.145 6.45333 368.145 6.16C368.145 5.85333 368.232 5.62 368.405 5.46C368.578 5.3 368.825 5.22 369.145 5.22H370.185V3.4C370.185 2.98667 370.292 2.67333 370.505 2.46C370.732 2.24667 371.045 2.14 371.445 2.14C371.845 2.14 372.152 2.24667 372.365 2.46C372.578 2.67333 372.685 2.98667 372.685 3.4V5.22H374.805C375.125 5.22 375.372 5.3 375.545 5.46C375.718 5.62 375.805 5.85333 375.805 6.16C375.805 6.45333 375.718 6.68667 375.545 6.86C375.372 7.02 375.125 7.1 374.805 7.1H372.685V11.22C372.685 11.86 372.825 12.34 373.105 12.66C373.385 12.98 373.838 13.14 374.465 13.14C374.692 13.14 374.892 13.12 375.065 13.08C375.238 13.04 375.392 13.0133 375.525 13C375.685 12.9867 375.818 13.04 375.925 13.16C376.032 13.2667 376.085 13.4933 376.085 13.84C376.085 14.1067 376.038 14.3467 375.945 14.56C375.865 14.76 375.712 14.9 375.485 14.98C375.312 15.0333 375.085 15.08 374.805 15.12C374.525 15.1733 374.278 15.2 374.065 15.2ZM378.541 15.16C378.128 15.16 377.808 15.0533 377.581 14.84C377.368 14.6133 377.261 14.2933 377.261 13.88V6.32C377.261 5.90667 377.368 5.59333 377.581 5.38C377.794 5.16667 378.094 5.06 378.481 5.06C378.868 5.06 379.168 5.16667 379.381 5.38C379.594 5.59333 379.701 5.90667 379.701 6.32V7.58H379.501C379.688 6.78 380.054 6.17333 380.601 5.76C381.148 5.34667 381.874 5.1 382.781 5.02C383.061 4.99333 383.281 5.06667 383.441 5.24C383.614 5.4 383.714 5.65333 383.741 6C383.768 6.33333 383.688 6.60667 383.501 6.82C383.328 7.02 383.061 7.14 382.701 7.18L382.261 7.22C381.448 7.3 380.834 7.55333 380.421 7.98C380.008 8.39333 379.801 8.98 379.801 9.74V13.88C379.801 14.2933 379.694 14.6133 379.481 14.84C379.268 15.0533 378.954 15.16 378.541 15.16ZM386.333 15.14C385.933 15.14 385.626 15.02 385.413 14.78C385.2 14.54 385.093 14.2067 385.093 13.78V6.44C385.093 6 385.2 5.66667 385.413 5.44C385.626 5.2 385.933 5.08 386.333 5.08C386.733 5.08 387.04 5.2 387.253 5.44C387.48 5.66667 387.593 6 387.593 6.44V13.78C387.593 14.2067 387.486 14.54 387.273 14.78C387.06 15.02 386.746 15.14 386.333 15.14ZM386.333 3.22C385.866 3.22 385.5 3.10667 385.233 2.88C384.98 2.64 384.853 2.31333 384.853 1.9C384.853 1.47333 384.98 1.14667 385.233 0.919999C385.5 0.693333 385.866 0.58 386.333 0.58C386.813 0.58 387.18 0.693333 387.433 0.919999C387.686 1.14667 387.813 1.47333 387.813 1.9C387.813 2.31333 387.686 2.64 387.433 2.88C387.18 3.10667 386.813 3.22 386.333 3.22ZM393.411 15.2C392.704 15.2 392.071 15.0667 391.511 14.8C390.964 14.52 390.531 14.1467 390.211 13.68C389.904 13.2133 389.751 12.6867 389.751 12.1C389.751 11.38 389.937 10.8133 390.311 10.4C390.684 9.97333 391.291 9.66667 392.131 9.48C392.971 9.29333 394.097 9.2 395.511 9.2H396.511V10.64H395.531C394.704 10.64 394.044 10.68 393.551 10.76C393.057 10.84 392.704 10.98 392.491 11.18C392.291 11.3667 392.191 11.6333 392.191 11.98C392.191 12.42 392.344 12.78 392.651 13.06C392.957 13.34 393.384 13.48 393.931 13.48C394.371 13.48 394.757 13.38 395.091 13.18C395.437 12.9667 395.711 12.68 395.911 12.32C396.111 11.96 396.211 11.5467 396.211 11.08V8.78C396.211 8.11333 396.064 7.63333 395.771 7.34C395.477 7.04667 394.984 6.9 394.291 6.9C393.904 6.9 393.484 6.94667 393.031 7.04C392.591 7.13333 392.124 7.29333 391.631 7.52C391.377 7.64 391.151 7.67333 390.951 7.62C390.764 7.56667 390.617 7.46 390.511 7.3C390.404 7.12667 390.351 6.94 390.351 6.74C390.351 6.54 390.404 6.34667 390.511 6.16C390.617 5.96 390.797 5.81333 391.051 5.72C391.664 5.46667 392.251 5.28667 392.811 5.18C393.384 5.07333 393.904 5.02 394.371 5.02C395.331 5.02 396.117 5.16667 396.731 5.46C397.357 5.75333 397.824 6.2 398.131 6.8C398.437 7.38667 398.591 8.14667 398.591 9.08V13.88C398.591 14.2933 398.491 14.6133 398.291 14.84C398.091 15.0533 397.804 15.16 397.431 15.16C397.057 15.16 396.764 15.0533 396.551 14.84C396.351 14.6133 396.251 14.2933 396.251 13.88V12.92H396.411C396.317 13.3867 396.131 13.7933 395.851 14.14C395.584 14.4733 395.244 14.7333 394.831 14.92C394.417 15.1067 393.944 15.2 393.411 15.2ZM402.368 15.16C401.968 15.16 401.661 15.0533 401.448 14.84C401.235 14.6133 401.128 14.2933 401.128 13.88V6.32C401.128 5.90667 401.235 5.59333 401.448 5.38C401.661 5.16667 401.961 5.06 402.348 5.06C402.735 5.06 403.035 5.16667 403.248 5.38C403.461 5.59333 403.568 5.90667 403.568 6.32V7.68L403.348 7.18C403.641 6.47333 404.095 5.94 404.708 5.58C405.335 5.20667 406.041 5.02 406.828 5.02C407.615 5.02 408.261 5.16667 408.768 5.46C409.275 5.75333 409.655 6.2 409.908 6.8C410.161 7.38667 410.288 8.13333 410.288 9.04V13.88C410.288 14.2933 410.181 14.6133 409.968 14.84C409.755 15.0533 409.448 15.16 409.048 15.16C408.648 15.16 408.335 15.0533 408.108 14.84C407.895 14.6133 407.788 14.2933 407.788 13.88V9.16C407.788 8.4 407.641 7.84667 407.348 7.5C407.068 7.15333 406.628 6.98 406.028 6.98C405.295 6.98 404.708 7.21333 404.268 7.68C403.841 8.13333 403.628 8.74 403.628 9.5V13.88C403.628 14.7333 403.208 15.16 402.368 15.16ZM417.387 18.8C416.667 18.8 415.967 18.7333 415.287 18.6C414.621 18.4667 414.014 18.26 413.467 17.98C413.214 17.8467 413.041 17.6867 412.947 17.5C412.867 17.3133 412.841 17.12 412.867 16.92C412.907 16.7333 412.987 16.5667 413.107 16.42C413.241 16.2733 413.401 16.1733 413.587 16.12C413.774 16.0667 413.967 16.0933 414.167 16.2C414.754 16.4933 415.307 16.68 415.827 16.76C416.361 16.8533 416.814 16.9 417.187 16.9C418.081 16.9 418.747 16.68 419.187 16.24C419.641 15.8133 419.867 15.1733 419.867 14.32V12.52H420.047C419.847 13.2 419.427 13.7467 418.787 14.16C418.161 14.56 417.447 14.76 416.647 14.76C415.767 14.76 415.001 14.56 414.347 14.16C413.694 13.7467 413.187 13.1733 412.827 12.44C412.467 11.7067 412.287 10.8533 412.287 9.88C412.287 9.14667 412.387 8.48667 412.587 7.9C412.801 7.3 413.094 6.78667 413.467 6.36C413.854 5.93333 414.314 5.60667 414.847 5.38C415.394 5.14 415.994 5.02 416.647 5.02C417.474 5.02 418.194 5.22667 418.807 5.64C419.434 6.04 419.841 6.57333 420.027 7.24L419.827 7.74V6.32C419.827 5.90667 419.934 5.59333 420.147 5.38C420.374 5.16667 420.681 5.06 421.067 5.06C421.467 5.06 421.774 5.16667 421.987 5.38C422.201 5.59333 422.307 5.90667 422.307 6.32V14.02C422.307 15.6067 421.887 16.8 421.047 17.6C420.207 18.4 418.987 18.8 417.387 18.8ZM417.327 12.86C417.847 12.86 418.294 12.74 418.667 12.5C419.041 12.26 419.327 11.92 419.527 11.48C419.741 11.0267 419.847 10.4933 419.847 9.88C419.847 8.96 419.621 8.24 419.167 7.72C418.714 7.18667 418.101 6.92 417.327 6.92C416.807 6.92 416.361 7.04 415.987 7.28C415.614 7.52 415.321 7.86 415.107 8.3C414.907 8.74 414.807 9.26667 414.807 9.88C414.807 10.8 415.034 11.5267 415.487 12.06C415.941 12.5933 416.554 12.86 417.327 12.86ZM428.238 15.2C427.131 15.2 426.298 14.8867 425.738 14.26C425.178 13.62 424.898 12.6867 424.898 11.46V2C424.898 1.58667 425.004 1.27333 425.218 1.06C425.431 0.846666 425.738 0.739999 426.138 0.739999C426.538 0.739999 426.844 0.846666 427.058 1.06C427.284 1.27333 427.398 1.58667 427.398 2V11.34C427.398 11.9533 427.524 12.4067 427.778 12.7C428.044 12.9933 428.418 13.14 428.898 13.14C429.004 13.14 429.104 13.14 429.198 13.14C429.291 13.1267 429.384 13.1133 429.478 13.1C429.664 13.0733 429.791 13.1267 429.858 13.26C429.924 13.38 429.958 13.6333 429.958 14.02C429.958 14.3533 429.891 14.6133 429.758 14.8C429.624 14.9867 429.404 15.1 429.098 15.14C428.964 15.1533 428.824 15.1667 428.678 15.18C428.531 15.1933 428.384 15.2 428.238 15.2ZM436.007 15.2C434.9 15.2 433.947 14.9933 433.147 14.58C432.347 14.1667 431.727 13.58 431.287 12.82C430.86 12.06 430.647 11.16 430.647 10.12C430.647 9.10667 430.853 8.22 431.267 7.46C431.693 6.7 432.273 6.10667 433.007 5.68C433.753 5.24 434.6 5.02 435.547 5.02C436.24 5.02 436.86 5.13333 437.407 5.36C437.967 5.58667 438.44 5.91333 438.827 6.34C439.227 6.76667 439.527 7.28667 439.727 7.9C439.94 8.5 440.047 9.18 440.047 9.94C440.047 10.18 439.96 10.3667 439.787 10.5C439.627 10.62 439.393 10.68 439.087 10.68H432.667V9.24H438.287L437.967 9.54C437.967 8.92667 437.873 8.41333 437.687 8C437.513 7.58667 437.253 7.27333 436.907 7.06C436.573 6.83333 436.153 6.72 435.647 6.72C435.087 6.72 434.607 6.85333 434.207 7.12C433.82 7.37333 433.52 7.74 433.307 8.22C433.107 8.68667 433.007 9.24667 433.007 9.9V10.04C433.007 11.1333 433.26 11.9533 433.767 12.5C434.287 13.0333 435.047 13.3 436.047 13.3C436.393 13.3 436.78 13.26 437.207 13.18C437.647 13.0867 438.06 12.9333 438.447 12.72C438.727 12.56 438.973 12.4933 439.187 12.52C439.4 12.5333 439.567 12.6067 439.687 12.74C439.82 12.8733 439.9 13.04 439.927 13.24C439.953 13.4267 439.913 13.62 439.807 13.82C439.713 14.02 439.547 14.1933 439.307 14.34C438.84 14.6333 438.3 14.8533 437.687 15C437.087 15.1333 436.527 15.2 436.007 15.2ZM450.676 15.2C449.97 15.2 449.336 15.0667 448.776 14.8C448.23 14.52 447.796 14.1467 447.476 13.68C447.17 13.2133 447.016 12.6867 447.016 12.1C447.016 11.38 447.203 10.8133 447.576 10.4C447.95 9.97333 448.556 9.66667 449.396 9.48C450.236 9.29333 451.363 9.2 452.776 9.2H453.776V10.64H452.796C451.97 10.64 451.31 10.68 450.816 10.76C450.323 10.84 449.97 10.98 449.756 11.18C449.556 11.3667 449.456 11.6333 449.456 11.98C449.456 12.42 449.61 12.78 449.916 13.06C450.223 13.34 450.65 13.48 451.196 13.48C451.636 13.48 452.023 13.38 452.356 13.18C452.703 12.9667 452.976 12.68 453.176 12.32C453.376 11.96 453.476 11.5467 453.476 11.08V8.78C453.476 8.11333 453.33 7.63333 453.036 7.34C452.743 7.04667 452.25 6.9 451.556 6.9C451.17 6.9 450.75 6.94667 450.296 7.04C449.856 7.13333 449.39 7.29333 448.896 7.52C448.643 7.64 448.416 7.67333 448.216 7.62C448.03 7.56667 447.883 7.46 447.776 7.3C447.67 7.12667 447.616 6.94 447.616 6.74C447.616 6.54 447.67 6.34667 447.776 6.16C447.883 5.96 448.063 5.81333 448.316 5.72C448.93 5.46667 449.516 5.28667 450.076 5.18C450.65 5.07333 451.17 5.02 451.636 5.02C452.596 5.02 453.383 5.16667 453.996 5.46C454.623 5.75333 455.09 6.2 455.396 6.8C455.703 7.38667 455.856 8.14667 455.856 9.08V13.88C455.856 14.2933 455.756 14.6133 455.556 14.84C455.356 15.0533 455.07 15.16 454.696 15.16C454.323 15.16 454.03 15.0533 453.816 14.84C453.616 14.6133 453.516 14.2933 453.516 13.88V12.92H453.676C453.583 13.3867 453.396 13.7933 453.116 14.14C452.85 14.4733 452.51 14.7333 452.096 14.92C451.683 15.1067 451.21 15.2 450.676 15.2ZM461.974 15.2C461.4 15.2 460.794 15.14 460.154 15.02C459.514 14.9 458.94 14.6933 458.434 14.4C458.22 14.2667 458.067 14.1133 457.974 13.94C457.894 13.7533 457.86 13.5733 457.874 13.4C457.9 13.2133 457.967 13.0533 458.074 12.92C458.194 12.7867 458.34 12.7 458.514 12.66C458.7 12.62 458.9 12.6533 459.114 12.76C459.647 13.0133 460.147 13.1933 460.614 13.3C461.08 13.3933 461.54 13.44 461.994 13.44C462.634 13.44 463.107 13.3333 463.414 13.12C463.734 12.8933 463.894 12.6 463.894 12.24C463.894 11.9333 463.787 11.7 463.574 11.54C463.374 11.3667 463.067 11.24 462.654 11.16L460.654 10.78C459.827 10.62 459.194 10.32 458.754 9.88C458.327 9.42667 458.114 8.84667 458.114 8.14C458.114 7.5 458.287 6.94667 458.634 6.48C458.994 6.01333 459.487 5.65333 460.114 5.4C460.74 5.14667 461.46 5.02 462.274 5.02C462.86 5.02 463.407 5.08667 463.914 5.22C464.434 5.34 464.934 5.53333 465.414 5.8C465.614 5.90667 465.747 6.04667 465.814 6.22C465.894 6.39333 465.914 6.57333 465.874 6.76C465.834 6.93333 465.754 7.09333 465.634 7.24C465.514 7.37333 465.36 7.46 465.174 7.5C465 7.52667 464.8 7.48667 464.574 7.38C464.16 7.16667 463.76 7.01333 463.374 6.92C463 6.82667 462.64 6.78 462.294 6.78C461.64 6.78 461.154 6.89333 460.834 7.12C460.527 7.34667 460.374 7.64667 460.374 8.02C460.374 8.3 460.467 8.53333 460.654 8.72C460.84 8.90667 461.127 9.03333 461.514 9.1L463.514 9.48C464.38 9.64 465.034 9.93333 465.474 10.36C465.927 10.7867 466.154 11.36 466.154 12.08C466.154 13.0533 465.774 13.82 465.014 14.38C464.254 14.9267 463.24 15.2 461.974 15.2ZM478.069 15.2C477.202 15.2 476.476 15.0533 475.889 14.76C475.316 14.4667 474.889 14.04 474.609 13.48C474.329 12.9067 474.189 12.2 474.189 11.36V7.1H473.149C472.829 7.1 472.582 7.02 472.409 6.86C472.236 6.68667 472.149 6.45333 472.149 6.16C472.149 5.85333 472.236 5.62 472.409 5.46C472.582 5.3 472.829 5.22 473.149 5.22H474.189V3.4C474.189 2.98667 474.296 2.67333 474.509 2.46C474.736 2.24667 475.049 2.14 475.449 2.14C475.849 2.14 476.156 2.24667 476.369 2.46C476.582 2.67333 476.689 2.98667 476.689 3.4V5.22H478.809C479.129 5.22 479.376 5.3 479.549 5.46C479.722 5.62 479.809 5.85333 479.809 6.16C479.809 6.45333 479.722 6.68667 479.549 6.86C479.376 7.02 479.129 7.1 478.809 7.1H476.689V11.22C476.689 11.86 476.829 12.34 477.109 12.66C477.389 12.98 477.842 13.14 478.469 13.14C478.696 13.14 478.896 13.12 479.069 13.08C479.242 13.04 479.396 13.0133 479.529 13C479.689 12.9867 479.822 13.04 479.929 13.16C480.036 13.2667 480.089 13.4933 480.089 13.84C480.089 14.1067 480.042 14.3467 479.949 14.56C479.869 14.76 479.716 14.9 479.489 14.98C479.316 15.0333 479.089 15.08 478.809 15.12C478.529 15.1733 478.282 15.2 478.069 15.2ZM482.759 15.16C482.359 15.16 482.052 15.0533 481.839 14.84C481.625 14.6133 481.519 14.2933 481.519 13.88V2C481.519 1.58667 481.625 1.27333 481.839 1.06C482.052 0.846666 482.359 0.739999 482.759 0.739999C483.159 0.739999 483.465 0.846666 483.679 1.06C483.905 1.27333 484.019 1.58667 484.019 2V7.18H483.739C484.032 6.47333 484.485 5.94 485.099 5.58C485.725 5.20667 486.432 5.02 487.219 5.02C488.005 5.02 488.652 5.16667 489.159 5.46C489.665 5.75333 490.045 6.2 490.299 6.8C490.552 7.38667 490.679 8.13333 490.679 9.04V13.88C490.679 14.2933 490.572 14.6133 490.359 14.84C490.145 15.0533 489.839 15.16 489.439 15.16C489.039 15.16 488.725 15.0533 488.499 14.84C488.285 14.6133 488.179 14.2933 488.179 13.88V9.16C488.179 8.4 488.032 7.84667 487.739 7.5C487.459 7.15333 487.019 6.98 486.419 6.98C485.685 6.98 485.099 7.21333 484.659 7.68C484.232 8.13333 484.019 8.74 484.019 9.5V13.88C484.019 14.7333 483.599 15.16 482.759 15.16ZM498.038 15.2C496.931 15.2 495.978 14.9933 495.178 14.58C494.378 14.1667 493.758 13.58 493.318 12.82C492.891 12.06 492.678 11.16 492.678 10.12C492.678 9.10667 492.885 8.22 493.298 7.46C493.725 6.7 494.305 6.10667 495.038 5.68C495.785 5.24 496.631 5.02 497.578 5.02C498.271 5.02 498.891 5.13333 499.438 5.36C499.998 5.58667 500.471 5.91333 500.858 6.34C501.258 6.76667 501.558 7.28667 501.758 7.9C501.971 8.5 502.078 9.18 502.078 9.94C502.078 10.18 501.991 10.3667 501.818 10.5C501.658 10.62 501.425 10.68 501.118 10.68H494.698V9.24H500.318L499.998 9.54C499.998 8.92667 499.905 8.41333 499.718 8C499.545 7.58667 499.285 7.27333 498.938 7.06C498.605 6.83333 498.185 6.72 497.678 6.72C497.118 6.72 496.638 6.85333 496.238 7.12C495.851 7.37333 495.551 7.74 495.338 8.22C495.138 8.68667 495.038 9.24667 495.038 9.9V10.04C495.038 11.1333 495.291 11.9533 495.798 12.5C496.318 13.0333 497.078 13.3 498.078 13.3C498.425 13.3 498.811 13.26 499.238 13.18C499.678 13.0867 500.091 12.9333 500.478 12.72C500.758 12.56 501.005 12.4933 501.218 12.52C501.431 12.5333 501.598 12.6067 501.718 12.74C501.851 12.8733 501.931 13.04 501.958 13.24C501.985 13.4267 501.945 13.62 501.838 13.82C501.745 14.02 501.578 14.1933 501.338 14.34C500.871 14.6333 500.331 14.8533 499.718 15C499.118 15.1333 498.558 15.2 498.038 15.2ZM115.875 43.16C115.462 43.16 115.142 43.0533 114.915 42.84C114.702 42.6133 114.595 42.2933 114.595 41.88V34.32C114.595 33.9067 114.702 33.5933 114.915 33.38C115.128 33.1667 115.428 33.06 115.815 33.06C116.202 33.06 116.502 33.1667 116.715 33.38C116.928 33.5933 117.035 33.9067 117.035 34.32V35.58H116.835C117.022 34.78 117.388 34.1733 117.935 33.76C118.482 33.3467 119.208 33.1 120.115 33.02C120.395 32.9933 120.615 33.0667 120.775 33.24C120.948 33.4 121.048 33.6533 121.075 34C121.102 34.3333 121.022 34.6067 120.835 34.82C120.662 35.02 120.395 35.14 120.035 35.18L119.595 35.22C118.782 35.3 118.168 35.5533 117.755 35.98C117.342 36.3933 117.135 36.98 117.135 37.74V41.88C117.135 42.2933 117.028 42.6133 116.815 42.84C116.602 43.0533 116.288 43.16 115.875 43.16ZM125.549 43.2C124.843 43.2 124.209 43.0667 123.649 42.8C123.103 42.52 122.669 42.1467 122.349 41.68C122.043 41.2133 121.889 40.6867 121.889 40.1C121.889 39.38 122.076 38.8133 122.449 38.4C122.823 37.9733 123.429 37.6667 124.269 37.48C125.109 37.2933 126.236 37.2 127.649 37.2H128.649V38.64H127.669C126.843 38.64 126.183 38.68 125.689 38.76C125.196 38.84 124.843 38.98 124.629 39.18C124.429 39.3667 124.329 39.6333 124.329 39.98C124.329 40.42 124.483 40.78 124.789 41.06C125.096 41.34 125.523 41.48 126.069 41.48C126.509 41.48 126.896 41.38 127.229 41.18C127.576 40.9667 127.849 40.68 128.049 40.32C128.249 39.96 128.349 39.5467 128.349 39.08V36.78C128.349 36.1133 128.203 35.6333 127.909 35.34C127.616 35.0467 127.123 34.9 126.429 34.9C126.043 34.9 125.623 34.9467 125.169 35.04C124.729 35.1333 124.263 35.2933 123.769 35.52C123.516 35.64 123.289 35.6733 123.089 35.62C122.903 35.5667 122.756 35.46 122.649 35.3C122.543 35.1267 122.489 34.94 122.489 34.74C122.489 34.54 122.543 34.3467 122.649 34.16C122.756 33.96 122.936 33.8133 123.189 33.72C123.803 33.4667 124.389 33.2867 124.949 33.18C125.523 33.0733 126.043 33.02 126.509 33.02C127.469 33.02 128.256 33.1667 128.869 33.46C129.496 33.7533 129.963 34.2 130.269 34.8C130.576 35.3867 130.729 36.1467 130.729 37.08V41.88C130.729 42.2933 130.629 42.6133 130.429 42.84C130.229 43.0533 129.943 43.16 129.569 43.16C129.196 43.16 128.903 43.0533 128.689 42.84C128.489 42.6133 128.389 42.2933 128.389 41.88V40.92H128.549C128.456 41.3867 128.269 41.7933 127.989 42.14C127.723 42.4733 127.383 42.7333 126.969 42.92C126.556 43.1067 126.083 43.2 125.549 43.2ZM137.027 43.2C136.173 43.2 135.42 42.9933 134.767 42.58C134.127 42.1667 133.627 41.58 133.267 40.82C132.907 40.0467 132.727 39.14 132.727 38.1C132.727 37.0467 132.907 36.1467 133.267 35.4C133.627 34.64 134.127 34.0533 134.767 33.64C135.42 33.2267 136.173 33.02 137.027 33.02C137.84 33.02 138.547 33.22 139.147 33.62C139.76 34.02 140.173 34.5467 140.387 35.2H140.167V30C140.167 29.5867 140.273 29.2733 140.487 29.06C140.7 28.8467 141.007 28.74 141.407 28.74C141.807 28.74 142.113 28.8467 142.327 29.06C142.553 29.2733 142.667 29.5867 142.667 30V41.88C142.667 42.2933 142.56 42.6133 142.347 42.84C142.133 43.0533 141.827 43.16 141.427 43.16C141.027 43.16 140.72 43.0533 140.507 42.84C140.293 42.6133 140.187 42.2933 140.187 41.88V40.32L140.407 40.92C140.207 41.6133 139.8 42.1667 139.187 42.58C138.573 42.9933 137.853 43.2 137.027 43.2ZM137.727 41.3C138.22 41.3 138.653 41.18 139.027 40.94C139.4 40.7 139.687 40.3467 139.887 39.88C140.1 39.4 140.207 38.8067 140.207 38.1C140.207 37.0333 139.98 36.24 139.527 35.72C139.073 35.1867 138.473 34.92 137.727 34.92C137.233 34.92 136.8 35.04 136.427 35.28C136.053 35.5067 135.76 35.86 135.547 36.34C135.347 36.8067 135.247 37.3933 135.247 38.1C135.247 39.1533 135.473 39.9533 135.927 40.5C136.38 41.0333 136.98 41.3 137.727 41.3ZM146.499 43.14C146.099 43.14 145.792 43.02 145.579 42.78C145.366 42.54 145.259 42.2067 145.259 41.78V34.44C145.259 34 145.366 33.6667 145.579 33.44C145.792 33.2 146.099 33.08 146.499 33.08C146.899 33.08 147.206 33.2 147.419 33.44C147.646 33.6667 147.759 34 147.759 34.44V41.78C147.759 42.2067 147.652 42.54 147.439 42.78C147.226 43.02 146.912 43.14 146.499 43.14ZM146.499 31.22C146.032 31.22 145.666 31.1067 145.399 30.88C145.146 30.64 145.019 30.3133 145.019 29.9C145.019 29.4733 145.146 29.1467 145.399 28.92C145.666 28.6933 146.032 28.58 146.499 28.58C146.979 28.58 147.346 28.6933 147.599 28.92C147.852 29.1467 147.979 29.4733 147.979 29.9C147.979 30.3133 147.852 30.64 147.599 30.88C147.346 31.1067 146.979 31.22 146.499 31.22ZM153.897 43.2C153.083 43.2 152.41 43.0533 151.877 42.76C151.343 42.4533 150.943 42 150.677 41.4C150.423 40.8 150.297 40.0533 150.297 39.16V34.32C150.297 33.8933 150.403 33.58 150.617 33.38C150.83 33.1667 151.137 33.06 151.537 33.06C151.937 33.06 152.243 33.1667 152.457 33.38C152.683 33.58 152.797 33.8933 152.797 34.32V39.2C152.797 39.8933 152.937 40.4067 153.217 40.74C153.497 41.0733 153.943 41.24 154.557 41.24C155.223 41.24 155.77 41.0133 156.197 40.56C156.623 40.0933 156.837 39.48 156.837 38.72V34.32C156.837 33.8933 156.943 33.58 157.157 33.38C157.37 33.1667 157.677 33.06 158.077 33.06C158.477 33.06 158.783 33.1667 158.997 33.38C159.223 33.58 159.337 33.8933 159.337 34.32V41.88C159.337 42.7333 158.93 43.16 158.117 43.16C157.73 43.16 157.43 43.0533 157.217 42.84C157.003 42.6133 156.897 42.2933 156.897 41.88V40.36L157.177 40.96C156.897 41.68 156.47 42.2333 155.897 42.62C155.337 43.0067 154.67 43.2 153.897 43.2ZM165.519 43.2C164.945 43.2 164.339 43.14 163.699 43.02C163.059 42.9 162.485 42.6933 161.979 42.4C161.765 42.2667 161.612 42.1133 161.519 41.94C161.439 41.7533 161.405 41.5733 161.419 41.4C161.445 41.2133 161.512 41.0533 161.619 40.92C161.739 40.7867 161.885 40.7 162.059 40.66C162.245 40.62 162.445 40.6533 162.659 40.76C163.192 41.0133 163.692 41.1933 164.159 41.3C164.625 41.3933 165.085 41.44 165.539 41.44C166.179 41.44 166.652 41.3333 166.959 41.12C167.279 40.8933 167.439 40.6 167.439 40.24C167.439 39.9333 167.332 39.7 167.119 39.54C166.919 39.3667 166.612 39.24 166.199 39.16L164.199 38.78C163.372 38.62 162.739 38.32 162.299 37.88C161.872 37.4267 161.659 36.8467 161.659 36.14C161.659 35.5 161.832 34.9467 162.179 34.48C162.539 34.0133 163.032 33.6533 163.659 33.4C164.285 33.1467 165.005 33.02 165.819 33.02C166.405 33.02 166.952 33.0867 167.459 33.22C167.979 33.34 168.479 33.5333 168.959 33.8C169.159 33.9067 169.292 34.0467 169.359 34.22C169.439 34.3933 169.459 34.5733 169.419 34.76C169.379 34.9333 169.299 35.0933 169.179 35.24C169.059 35.3733 168.905 35.46 168.719 35.5C168.545 35.5267 168.345 35.4867 168.119 35.38C167.705 35.1667 167.305 35.0133 166.919 34.92C166.545 34.8267 166.185 34.78 165.839 34.78C165.185 34.78 164.699 34.8933 164.379 35.12C164.072 35.3467 163.919 35.6467 163.919 36.02C163.919 36.3 164.012 36.5333 164.199 36.72C164.385 36.9067 164.672 37.0333 165.059 37.1L167.059 37.48C167.925 37.64 168.579 37.9333 169.019 38.36C169.472 38.7867 169.699 39.36 169.699 40.08C169.699 41.0533 169.319 41.82 168.559 42.38C167.799 42.9267 166.785 43.2 165.519 43.2ZM180.354 43.2C179.647 43.2 179.014 43.0667 178.454 42.8C177.907 42.52 177.474 42.1467 177.154 41.68C176.847 41.2133 176.694 40.6867 176.694 40.1C176.694 39.38 176.881 38.8133 177.254 38.4C177.627 37.9733 178.234 37.6667 179.074 37.48C179.914 37.2933 181.041 37.2 182.454 37.2H183.454V38.64H182.474C181.647 38.64 180.987 38.68 180.494 38.76C180.001 38.84 179.647 38.98 179.434 39.18C179.234 39.3667 179.134 39.6333 179.134 39.98C179.134 40.42 179.287 40.78 179.594 41.06C179.901 41.34 180.327 41.48 180.874 41.48C181.314 41.48 181.701 41.38 182.034 41.18C182.381 40.9667 182.654 40.68 182.854 40.32C183.054 39.96 183.154 39.5467 183.154 39.08V36.78C183.154 36.1133 183.007 35.6333 182.714 35.34C182.421 35.0467 181.927 34.9 181.234 34.9C180.847 34.9 180.427 34.9467 179.974 35.04C179.534 35.1333 179.067 35.2933 178.574 35.52C178.321 35.64 178.094 35.6733 177.894 35.62C177.707 35.5667 177.561 35.46 177.454 35.3C177.347 35.1267 177.294 34.94 177.294 34.74C177.294 34.54 177.347 34.3467 177.454 34.16C177.561 33.96 177.741 33.8133 177.994 33.72C178.607 33.4667 179.194 33.2867 179.754 33.18C180.327 33.0733 180.847 33.02 181.314 33.02C182.274 33.02 183.061 33.1667 183.674 33.46C184.301 33.7533 184.767 34.2 185.074 34.8C185.381 35.3867 185.534 36.1467 185.534 37.08V41.88C185.534 42.2933 185.434 42.6133 185.234 42.84C185.034 43.0533 184.747 43.16 184.374 43.16C184.001 43.16 183.707 43.0533 183.494 42.84C183.294 42.6133 183.194 42.2933 183.194 41.88V40.92H183.354C183.261 41.3867 183.074 41.7933 182.794 42.14C182.527 42.4733 182.187 42.7333 181.774 42.92C181.361 43.1067 180.887 43.2 180.354 43.2ZM189.311 43.16C188.911 43.16 188.605 43.0533 188.391 42.84C188.178 42.6133 188.071 42.2933 188.071 41.88V34.32C188.071 33.9067 188.178 33.5933 188.391 33.38C188.605 33.1667 188.905 33.06 189.291 33.06C189.678 33.06 189.978 33.1667 190.191 33.38C190.405 33.5933 190.511 33.9067 190.511 34.32V35.68L190.291 35.18C190.585 34.4733 191.038 33.94 191.651 33.58C192.278 33.2067 192.985 33.02 193.771 33.02C194.558 33.02 195.205 33.1667 195.711 33.46C196.218 33.7533 196.598 34.2 196.851 34.8C197.105 35.3867 197.231 36.1333 197.231 37.04V41.88C197.231 42.2933 197.125 42.6133 196.911 42.84C196.698 43.0533 196.391 43.16 195.991 43.16C195.591 43.16 195.278 43.0533 195.051 42.84C194.838 42.6133 194.731 42.2933 194.731 41.88V37.16C194.731 36.4 194.585 35.8467 194.291 35.5C194.011 35.1533 193.571 34.98 192.971 34.98C192.238 34.98 191.651 35.2133 191.211 35.68C190.785 36.1333 190.571 36.74 190.571 37.5V41.88C190.571 42.7333 190.151 43.16 189.311 43.16ZM203.531 43.2C202.677 43.2 201.924 42.9933 201.271 42.58C200.631 42.1667 200.131 41.58 199.771 40.82C199.411 40.0467 199.231 39.14 199.231 38.1C199.231 37.0467 199.411 36.1467 199.771 35.4C200.131 34.64 200.631 34.0533 201.271 33.64C201.924 33.2267 202.677 33.02 203.531 33.02C204.344 33.02 205.051 33.22 205.651 33.62C206.264 34.02 206.677 34.5467 206.891 35.2H206.671V30C206.671 29.5867 206.777 29.2733 206.991 29.06C207.204 28.8467 207.511 28.74 207.911 28.74C208.311 28.74 208.617 28.8467 208.831 29.06C209.057 29.2733 209.171 29.5867 209.171 30V41.88C209.171 42.2933 209.064 42.6133 208.851 42.84C208.637 43.0533 208.331 43.16 207.931 43.16C207.531 43.16 207.224 43.0533 207.011 42.84C206.797 42.6133 206.691 42.2933 206.691 41.88V40.32L206.911 40.92C206.711 41.6133 206.304 42.1667 205.691 42.58C205.077 42.9933 204.357 43.2 203.531 43.2ZM204.231 41.3C204.724 41.3 205.157 41.18 205.531 40.94C205.904 40.7 206.191 40.3467 206.391 39.88C206.604 39.4 206.711 38.8067 206.711 38.1C206.711 37.0333 206.484 36.24 206.031 35.72C205.577 35.1867 204.977 34.92 204.231 34.92C203.737 34.92 203.304 35.04 202.931 35.28C202.557 35.5067 202.264 35.86 202.051 36.34C201.851 36.8067 201.751 37.3933 201.751 38.1C201.751 39.1533 201.977 39.9533 202.431 40.5C202.884 41.0333 203.484 41.3 204.231 41.3ZM218.433 43.16C218.033 43.16 217.726 43.0533 217.513 42.84C217.299 42.6133 217.193 42.2933 217.193 41.88V30C217.193 29.5867 217.299 29.2733 217.513 29.06C217.726 28.8467 218.033 28.74 218.433 28.74C218.833 28.74 219.139 28.8467 219.353 29.06C219.579 29.2733 219.693 29.5867 219.693 30V35.18H219.413C219.706 34.4733 220.159 33.94 220.773 33.58C221.399 33.2067 222.106 33.02 222.893 33.02C223.679 33.02 224.326 33.1667 224.833 33.46C225.339 33.7533 225.719 34.2 225.973 34.8C226.226 35.3867 226.353 36.1333 226.353 37.04V41.88C226.353 42.2933 226.246 42.6133 226.033 42.84C225.819 43.0533 225.513 43.16 225.113 43.16C224.713 43.16 224.399 43.0533 224.173 42.84C223.959 42.6133 223.853 42.2933 223.853 41.88V37.16C223.853 36.4 223.706 35.8467 223.413 35.5C223.133 35.1533 222.693 34.98 222.093 34.98C221.359 34.98 220.773 35.2133 220.333 35.68C219.906 36.1333 219.693 36.74 219.693 37.5V41.88C219.693 42.7333 219.273 43.16 218.433 43.16ZM233.712 43.2C232.605 43.2 231.652 42.9933 230.852 42.58C230.052 42.1667 229.432 41.58 228.992 40.82C228.565 40.06 228.352 39.16 228.352 38.12C228.352 37.1067 228.558 36.22 228.972 35.46C229.398 34.7 229.978 34.1067 230.712 33.68C231.458 33.24 232.305 33.02 233.252 33.02C233.945 33.02 234.565 33.1333 235.112 33.36C235.672 33.5867 236.145 33.9133 236.532 34.34C236.932 34.7667 237.232 35.2867 237.432 35.9C237.645 36.5 237.752 37.18 237.752 37.94C237.752 38.18 237.665 38.3667 237.492 38.5C237.332 38.62 237.098 38.68 236.792 38.68H230.372V37.24H235.992L235.672 37.54C235.672 36.9267 235.578 36.4133 235.392 36C235.218 35.5867 234.958 35.2733 234.612 35.06C234.278 34.8333 233.858 34.72 233.352 34.72C232.792 34.72 232.312 34.8533 231.912 35.12C231.525 35.3733 231.225 35.74 231.012 36.22C230.812 36.6867 230.712 37.2467 230.712 37.9V38.04C230.712 39.1333 230.965 39.9533 231.472 40.5C231.992 41.0333 232.752 41.3 233.752 41.3C234.098 41.3 234.485 41.26 234.912 41.18C235.352 41.0867 235.765 40.9333 236.152 40.72C236.432 40.56 236.678 40.4933 236.892 40.52C237.105 40.5333 237.272 40.6067 237.392 40.74C237.525 40.8733 237.605 41.04 237.632 41.24C237.658 41.4267 237.618 41.62 237.512 41.82C237.418 42.02 237.252 42.1933 237.012 42.34C236.545 42.6333 236.005 42.8533 235.392 43C234.792 43.1333 234.232 43.2 233.712 43.2ZM240.972 43.14C240.572 43.14 240.265 43.02 240.052 42.78C239.838 42.54 239.732 42.2067 239.732 41.78V34.44C239.732 34 239.838 33.6667 240.052 33.44C240.265 33.2 240.572 33.08 240.972 33.08C241.372 33.08 241.678 33.2 241.892 33.44C242.118 33.6667 242.232 34 242.232 34.44V41.78C242.232 42.2067 242.125 42.54 241.912 42.78C241.698 43.02 241.385 43.14 240.972 43.14ZM240.972 31.22C240.505 31.22 240.138 31.1067 239.872 30.88C239.618 30.64 239.492 30.3133 239.492 29.9C239.492 29.4733 239.618 29.1467 239.872 28.92C240.138 28.6933 240.505 28.58 240.972 28.58C241.452 28.58 241.818 28.6933 242.072 28.92C242.325 29.1467 242.452 29.4733 242.452 29.9C242.452 30.3133 242.325 30.64 242.072 30.88C241.818 31.1067 241.452 31.22 240.972 31.22ZM249.389 46.8C248.669 46.8 247.969 46.7333 247.289 46.6C246.623 46.4667 246.016 46.26 245.469 45.98C245.216 45.8467 245.043 45.6867 244.949 45.5C244.869 45.3133 244.843 45.12 244.869 44.92C244.909 44.7333 244.989 44.5667 245.109 44.42C245.243 44.2733 245.403 44.1733 245.589 44.12C245.776 44.0667 245.969 44.0933 246.169 44.2C246.756 44.4933 247.309 44.68 247.829 44.76C248.363 44.8533 248.816 44.9 249.189 44.9C250.083 44.9 250.749 44.68 251.189 44.24C251.643 43.8133 251.869 43.1733 251.869 42.32V40.52H252.049C251.849 41.2 251.429 41.7467 250.789 42.16C250.163 42.56 249.449 42.76 248.649 42.76C247.769 42.76 247.003 42.56 246.349 42.16C245.696 41.7467 245.189 41.1733 244.829 40.44C244.469 39.7067 244.289 38.8533 244.289 37.88C244.289 37.1467 244.389 36.4867 244.589 35.9C244.803 35.3 245.096 34.7867 245.469 34.36C245.856 33.9333 246.316 33.6067 246.849 33.38C247.396 33.14 247.996 33.02 248.649 33.02C249.476 33.02 250.196 33.2267 250.809 33.64C251.436 34.04 251.843 34.5733 252.029 35.24L251.829 35.74V34.32C251.829 33.9067 251.936 33.5933 252.149 33.38C252.376 33.1667 252.683 33.06 253.069 33.06C253.469 33.06 253.776 33.1667 253.989 33.38C254.203 33.5933 254.309 33.9067 254.309 34.32V42.02C254.309 43.6067 253.889 44.8 253.049 45.6C252.209 46.4 250.989 46.8 249.389 46.8ZM249.329 40.86C249.849 40.86 250.296 40.74 250.669 40.5C251.043 40.26 251.329 39.92 251.529 39.48C251.743 39.0267 251.849 38.4933 251.849 37.88C251.849 36.96 251.623 36.24 251.169 35.72C250.716 35.1867 250.103 34.92 249.329 34.92C248.809 34.92 248.363 35.04 247.989 35.28C247.616 35.52 247.323 35.86 247.109 36.3C246.909 36.74 246.809 37.2667 246.809 37.88C246.809 38.8 247.036 39.5267 247.489 40.06C247.943 40.5933 248.556 40.86 249.329 40.86ZM258.14 43.16C257.74 43.16 257.433 43.0533 257.22 42.84C257.006 42.6133 256.9 42.2933 256.9 41.88V30C256.9 29.5867 257.006 29.2733 257.22 29.06C257.433 28.8467 257.74 28.74 258.14 28.74C258.54 28.74 258.846 28.8467 259.06 29.06C259.286 29.2733 259.4 29.5867 259.4 30V35.18H259.12C259.413 34.4733 259.866 33.94 260.48 33.58C261.106 33.2067 261.813 33.02 262.6 33.02C263.386 33.02 264.033 33.1667 264.54 33.46C265.046 33.7533 265.426 34.2 265.68 34.8C265.933 35.3867 266.06 36.1333 266.06 37.04V41.88C266.06 42.2933 265.953 42.6133 265.74 42.84C265.526 43.0533 265.22 43.16 264.82 43.16C264.42 43.16 264.106 43.0533 263.88 42.84C263.666 42.6133 263.56 42.2933 263.56 41.88V37.16C263.56 36.4 263.413 35.8467 263.12 35.5C262.84 35.1533 262.4 34.98 261.8 34.98C261.066 34.98 260.48 35.2133 260.04 35.68C259.613 36.1333 259.4 36.74 259.4 37.5V41.88C259.4 42.7333 258.98 43.16 258.14 43.16ZM273.079 43.2C272.212 43.2 271.485 43.0533 270.899 42.76C270.325 42.4667 269.899 42.04 269.619 41.48C269.339 40.9067 269.199 40.2 269.199 39.36V35.1H268.159C267.839 35.1 267.592 35.02 267.419 34.86C267.245 34.6867 267.159 34.4533 267.159 34.16C267.159 33.8533 267.245 33.62 267.419 33.46C267.592 33.3 267.839 33.22 268.159 33.22H269.199V31.4C269.199 30.9867 269.305 30.6733 269.519 30.46C269.745 30.2467 270.059 30.14 270.459 30.14C270.859 30.14 271.165 30.2467 271.379 30.46C271.592 30.6733 271.699 30.9867 271.699 31.4V33.22H273.819C274.139 33.22 274.385 33.3 274.559 33.46C274.732 33.62 274.819 33.8533 274.819 34.16C274.819 34.4533 274.732 34.6867 274.559 34.86C274.385 35.02 274.139 35.1 273.819 35.1H271.699V39.22C271.699 39.86 271.839 40.34 272.119 40.66C272.399 40.98 272.852 41.14 273.479 41.14C273.705 41.14 273.905 41.12 274.079 41.08C274.252 41.04 274.405 41.0133 274.539 41C274.699 40.9867 274.832 41.04 274.939 41.16C275.045 41.2667 275.099 41.4933 275.099 41.84C275.099 42.1067 275.052 42.3467 274.959 42.56C274.879 42.76 274.725 42.9 274.499 42.98C274.325 43.0333 274.099 43.08 273.819 43.12C273.539 43.1733 273.292 43.2 273.079 43.2ZM286.164 43.2C285.151 43.2 284.271 42.9933 283.524 42.58C282.778 42.1667 282.198 41.58 281.784 40.82C281.371 40.0467 281.164 39.14 281.164 38.1C281.164 37.3133 281.278 36.6133 281.504 36C281.744 35.3733 282.084 34.84 282.524 34.4C282.964 33.9467 283.491 33.6067 284.104 33.38C284.718 33.14 285.404 33.02 286.164 33.02C287.178 33.02 288.058 33.2267 288.804 33.64C289.551 34.0533 290.131 34.64 290.544 35.4C290.958 36.16 291.164 37.06 291.164 38.1C291.164 38.8867 291.044 39.5933 290.804 40.22C290.578 40.8467 290.244 41.3867 289.804 41.84C289.364 42.28 288.838 42.62 288.224 42.86C287.611 43.0867 286.924 43.2 286.164 43.2ZM286.164 41.3C286.658 41.3 287.091 41.18 287.464 40.94C287.838 40.7 288.124 40.3467 288.324 39.88C288.538 39.4 288.644 38.8067 288.644 38.1C288.644 37.0333 288.418 36.24 287.964 35.72C287.511 35.1867 286.911 34.92 286.164 34.92C285.671 34.92 285.238 35.04 284.864 35.28C284.491 35.5067 284.198 35.86 283.984 36.34C283.784 36.8067 283.684 37.3933 283.684 38.1C283.684 39.1533 283.911 39.9533 284.364 40.5C284.818 41.0333 285.418 41.3 286.164 41.3ZM295.05 43.16C294.65 43.16 294.337 43.0533 294.11 42.84C293.897 42.6133 293.79 42.2933 293.79 41.88V35.1H292.87C292.55 35.1 292.303 35.02 292.13 34.86C291.957 34.6867 291.87 34.4533 291.87 34.16C291.87 33.8533 291.957 33.62 292.13 33.46C292.303 33.3 292.55 33.22 292.87 33.22H294.51L293.79 33.88V33.2C293.79 31.8267 294.137 30.8 294.83 30.12C295.523 29.4267 296.523 29.02 297.83 28.9L298.51 28.84C298.777 28.8133 298.99 28.86 299.15 28.98C299.31 29.0867 299.417 29.2333 299.47 29.42C299.523 29.5933 299.53 29.7733 299.49 29.96C299.45 30.1467 299.363 30.3133 299.23 30.46C299.11 30.5933 298.95 30.6667 298.75 30.68L298.47 30.7C297.71 30.7533 297.157 30.9467 296.81 31.28C296.463 31.6133 296.29 32.12 296.29 32.8V33.54L295.97 33.22H297.99C298.31 33.22 298.557 33.3 298.73 33.46C298.903 33.62 298.99 33.8533 298.99 34.16C298.99 34.4533 298.903 34.6867 298.73 34.86C298.557 35.02 298.31 35.1 297.99 35.1H296.29V41.88C296.29 42.7333 295.877 43.16 295.05 43.16ZM310.325 43.2C309.458 43.2 308.732 43.0533 308.145 42.76C307.572 42.4667 307.145 42.04 306.865 41.48C306.585 40.9067 306.445 40.2 306.445 39.36V35.1H305.405C305.085 35.1 304.838 35.02 304.665 34.86C304.492 34.6867 304.405 34.4533 304.405 34.16C304.405 33.8533 304.492 33.62 304.665 33.46C304.838 33.3 305.085 33.22 305.405 33.22H306.445V31.4C306.445 30.9867 306.552 30.6733 306.765 30.46C306.992 30.2467 307.305 30.14 307.705 30.14C308.105 30.14 308.412 30.2467 308.625 30.46C308.838 30.6733 308.945 30.9867 308.945 31.4V33.22H311.065C311.385 33.22 311.632 33.3 311.805 33.46C311.978 33.62 312.065 33.8533 312.065 34.16C312.065 34.4533 311.978 34.6867 311.805 34.86C311.632 35.02 311.385 35.1 311.065 35.1H308.945V39.22C308.945 39.86 309.085 40.34 309.365 40.66C309.645 40.98 310.098 41.14 310.725 41.14C310.952 41.14 311.152 41.12 311.325 41.08C311.498 41.04 311.652 41.0133 311.785 41C311.945 40.9867 312.078 41.04 312.185 41.16C312.292 41.2667 312.345 41.4933 312.345 41.84C312.345 42.1067 312.298 42.3467 312.205 42.56C312.125 42.76 311.972 42.9 311.745 42.98C311.572 43.0333 311.345 43.08 311.065 43.12C310.785 43.1733 310.538 43.2 310.325 43.2ZM315.015 43.16C314.615 43.16 314.308 43.0533 314.095 42.84C313.881 42.6133 313.775 42.2933 313.775 41.88V30C313.775 29.5867 313.881 29.2733 314.095 29.06C314.308 28.8467 314.615 28.74 315.015 28.74C315.415 28.74 315.721 28.8467 315.935 29.06C316.161 29.2733 316.275 29.5867 316.275 30V35.18H315.995C316.288 34.4733 316.741 33.94 317.355 33.58C317.981 33.2067 318.688 33.02 319.475 33.02C320.261 33.02 320.908 33.1667 321.415 33.46C321.921 33.7533 322.301 34.2 322.555 34.8C322.808 35.3867 322.935 36.1333 322.935 37.04V41.88C322.935 42.2933 322.828 42.6133 322.615 42.84C322.401 43.0533 322.095 43.16 321.695 43.16C321.295 43.16 320.981 43.0533 320.755 42.84C320.541 42.6133 320.435 42.2933 320.435 41.88V37.16C320.435 36.4 320.288 35.8467 319.995 35.5C319.715 35.1533 319.275 34.98 318.675 34.98C317.941 34.98 317.355 35.2133 316.915 35.68C316.488 36.1333 316.275 36.74 316.275 37.5V41.88C316.275 42.7333 315.855 43.16 315.015 43.16ZM330.294 43.2C329.187 43.2 328.234 42.9933 327.434 42.58C326.634 42.1667 326.014 41.58 325.574 40.82C325.147 40.06 324.934 39.16 324.934 38.12C324.934 37.1067 325.14 36.22 325.554 35.46C325.98 34.7 326.56 34.1067 327.294 33.68C328.04 33.24 328.887 33.02 329.834 33.02C330.527 33.02 331.147 33.1333 331.694 33.36C332.254 33.5867 332.727 33.9133 333.114 34.34C333.514 34.7667 333.814 35.2867 334.014 35.9C334.227 36.5 334.334 37.18 334.334 37.94C334.334 38.18 334.247 38.3667 334.074 38.5C333.914 38.62 333.68 38.68 333.374 38.68H326.954V37.24H332.574L332.254 37.54C332.254 36.9267 332.16 36.4133 331.974 36C331.8 35.5867 331.54 35.2733 331.194 35.06C330.86 34.8333 330.44 34.72 329.934 34.72C329.374 34.72 328.894 34.8533 328.494 35.12C328.107 35.3733 327.807 35.74 327.594 36.22C327.394 36.6867 327.294 37.2467 327.294 37.9V38.04C327.294 39.1333 327.547 39.9533 328.054 40.5C328.574 41.0333 329.334 41.3 330.334 41.3C330.68 41.3 331.067 41.26 331.494 41.18C331.934 41.0867 332.347 40.9333 332.734 40.72C333.014 40.56 333.26 40.4933 333.474 40.52C333.687 40.5333 333.854 40.6067 333.974 40.74C334.107 40.8733 334.187 41.04 334.214 41.24C334.24 41.4267 334.2 41.62 334.094 41.82C334 42.02 333.834 42.1933 333.594 42.34C333.127 42.6333 332.587 42.8533 331.974 43C331.374 43.1333 330.814 43.2 330.294 43.2ZM346.263 43.2C345.237 43.2 344.343 42.9933 343.583 42.58C342.823 42.1533 342.237 41.5533 341.823 40.78C341.41 40.0067 341.203 39.1 341.203 38.06C341.203 37.2733 341.317 36.5733 341.543 35.96C341.783 35.3333 342.123 34.8067 342.563 34.38C343.003 33.94 343.537 33.6067 344.163 33.38C344.79 33.14 345.49 33.02 346.263 33.02C346.703 33.02 347.177 33.08 347.683 33.2C348.203 33.32 348.69 33.52 349.143 33.8C349.357 33.9333 349.497 34.0933 349.563 34.28C349.63 34.4667 349.643 34.66 349.603 34.86C349.563 35.0467 349.477 35.2133 349.343 35.36C349.223 35.4933 349.07 35.58 348.883 35.62C348.697 35.6467 348.49 35.6 348.263 35.48C347.97 35.3067 347.67 35.18 347.363 35.1C347.057 35.0067 346.763 34.96 346.483 34.96C346.043 34.96 345.657 35.0333 345.323 35.18C344.99 35.3133 344.703 35.5133 344.463 35.78C344.237 36.0333 344.063 36.3533 343.943 36.74C343.823 37.1267 343.763 37.5733 343.763 38.08C343.763 39.0667 343.997 39.8467 344.463 40.42C344.943 40.98 345.617 41.26 346.483 41.26C346.763 41.26 347.05 41.22 347.343 41.14C347.65 41.06 347.957 40.9333 348.263 40.76C348.49 40.64 348.69 40.6 348.863 40.64C349.05 40.68 349.203 40.7733 349.323 40.92C349.443 41.0533 349.517 41.22 349.543 41.42C349.57 41.6067 349.543 41.7933 349.463 41.98C349.397 42.1667 349.263 42.32 349.063 42.44C348.623 42.7067 348.157 42.9 347.663 43.02C347.17 43.14 346.703 43.2 346.263 43.2ZM355.442 43.2C354.428 43.2 353.548 42.9933 352.802 42.58C352.055 42.1667 351.475 41.58 351.062 40.82C350.648 40.0467 350.442 39.14 350.442 38.1C350.442 37.3133 350.555 36.6133 350.782 36C351.022 35.3733 351.362 34.84 351.802 34.4C352.242 33.9467 352.768 33.6067 353.382 33.38C353.995 33.14 354.682 33.02 355.442 33.02C356.455 33.02 357.335 33.2267 358.082 33.64C358.828 34.0533 359.408 34.64 359.822 35.4C360.235 36.16 360.442 37.06 360.442 38.1C360.442 38.8867 360.322 39.5933 360.082 40.22C359.855 40.8467 359.522 41.3867 359.082 41.84C358.642 42.28 358.115 42.62 357.502 42.86C356.888 43.0867 356.202 43.2 355.442 43.2ZM355.442 41.3C355.935 41.3 356.368 41.18 356.742 40.94C357.115 40.7 357.402 40.3467 357.602 39.88C357.815 39.4 357.922 38.8067 357.922 38.1C357.922 37.0333 357.695 36.24 357.242 35.72C356.788 35.1867 356.188 34.92 355.442 34.92C354.948 34.92 354.515 35.04 354.142 35.28C353.768 35.5067 353.475 35.86 353.262 36.34C353.062 36.8067 352.962 37.3933 352.962 38.1C352.962 39.1533 353.188 39.9533 353.642 40.5C354.095 41.0333 354.695 41.3 355.442 41.3ZM363.745 43.16C363.345 43.16 363.038 43.0533 362.825 42.84C362.612 42.6133 362.505 42.2933 362.505 41.88V34.32C362.505 33.9067 362.612 33.5933 362.825 33.38C363.038 33.1667 363.338 33.06 363.725 33.06C364.112 33.06 364.412 33.1667 364.625 33.38C364.838 33.5933 364.945 33.9067 364.945 34.32V35.68L364.725 35.18C365.018 34.4733 365.472 33.94 366.085 33.58C366.712 33.2067 367.418 33.02 368.205 33.02C368.992 33.02 369.638 33.1667 370.145 33.46C370.652 33.7533 371.032 34.2 371.285 34.8C371.538 35.3867 371.665 36.1333 371.665 37.04V41.88C371.665 42.2933 371.558 42.6133 371.345 42.84C371.132 43.0533 370.825 43.16 370.425 43.16C370.025 43.16 369.712 43.0533 369.485 42.84C369.272 42.6133 369.165 42.2933 369.165 41.88V37.16C369.165 36.4 369.018 35.8467 368.725 35.5C368.445 35.1533 368.005 34.98 367.405 34.98C366.672 34.98 366.085 35.2133 365.645 35.68C365.218 36.1333 365.005 36.74 365.005 37.5V41.88C365.005 42.7333 364.585 43.16 363.745 43.16ZM379.024 43.2C377.918 43.2 376.964 42.9933 376.164 42.58C375.364 42.1667 374.744 41.58 374.304 40.82C373.878 40.06 373.664 39.16 373.664 38.12C373.664 37.1067 373.871 36.22 374.284 35.46C374.711 34.7 375.291 34.1067 376.024 33.68C376.771 33.24 377.618 33.02 378.564 33.02C379.258 33.02 379.878 33.1333 380.424 33.36C380.984 33.5867 381.458 33.9133 381.844 34.34C382.244 34.7667 382.544 35.2867 382.744 35.9C382.958 36.5 383.064 37.18 383.064 37.94C383.064 38.18 382.978 38.3667 382.804 38.5C382.644 38.62 382.411 38.68 382.104 38.68H375.684V37.24H381.304L380.984 37.54C380.984 36.9267 380.891 36.4133 380.704 36C380.531 35.5867 380.271 35.2733 379.924 35.06C379.591 34.8333 379.171 34.72 378.664 34.72C378.104 34.72 377.624 34.8533 377.224 35.12C376.838 35.3733 376.538 35.74 376.324 36.22C376.124 36.6867 376.024 37.2467 376.024 37.9V38.04C376.024 39.1333 376.278 39.9533 376.784 40.5C377.304 41.0333 378.064 41.3 379.064 41.3C379.411 41.3 379.798 41.26 380.224 41.18C380.664 41.0867 381.078 40.9333 381.464 40.72C381.744 40.56 381.991 40.4933 382.204 40.52C382.418 40.5333 382.584 40.6067 382.704 40.74C382.838 40.8733 382.918 41.04 382.944 41.24C382.971 41.4267 382.931 41.62 382.824 41.82C382.731 42.02 382.564 42.1933 382.324 42.34C381.858 42.6333 381.318 42.8533 380.704 43C380.104 43.1333 379.544 43.2 379.024 43.2ZM386.244 43.1C385.791 43.1 385.424 42.96 385.144 42.68C384.877 42.4 384.744 42.04 384.744 41.6C384.744 41.1733 384.877 40.8267 385.144 40.56C385.424 40.28 385.791 40.14 386.244 40.14C386.711 40.14 387.071 40.28 387.324 40.56C387.591 40.8267 387.724 41.1733 387.724 41.6C387.724 42.04 387.591 42.4 387.324 42.68C387.071 42.96 386.711 43.1 386.244 43.1Z" fill="#444444"/>
</svg>
