<svg width="192" height="60" viewBox="0 0 192 60" fill="none" xmlns="http://www.w3.org/2000/svg">
<rect width="192" height="60" rx="10" fill="#1A1A1A"/>
<path d="M45.4219 21V26H40.4219" stroke="white" stroke-width="2" stroke-linecap="round" stroke-linejoin="round"/>
<path d="M45.3719 30.9996C45.1504 33.0054 44.2612 34.8786 42.8471 36.3183C41.433 37.758 39.5761 38.6807 37.5746 38.9382C35.5731 39.1956 33.5431 38.773 31.8107 37.7381C30.0782 36.7031 28.7439 35.116 28.0219 33.2316C27.3 31.3471 27.2323 29.2747 27.8297 27.3472C28.4272 25.4196 29.6551 23.7488 31.3163 22.603C32.9775 21.4573 34.9756 20.9031 36.9896 21.0294C39.0037 21.1557 40.9169 21.9552 42.4219 23.2996L45.4219 25.9996" stroke="white" stroke-width="2" stroke-linecap="round" stroke-linejoin="round"/>
<g clip-path="url(#clip0_2856_2335)">
<path d="M67.5578 38.192C67.0618 38.192 66.6778 38.056 66.4058 37.784C66.1498 37.496 66.0218 37.104 66.0218 36.608V23.648H61.3418C60.9258 23.648 60.5978 23.536 60.3578 23.312C60.1338 23.072 60.0217 22.752 60.0217 22.352C60.0217 21.936 60.1338 21.624 60.3578 21.416C60.5978 21.192 60.9258 21.08 61.3418 21.08H73.7738C74.1898 21.08 74.5098 21.192 74.7338 21.416C74.9738 21.624 75.0938 21.936 75.0938 22.352C75.0938 22.752 74.9738 23.072 74.7338 23.312C74.5098 23.536 74.1898 23.648 73.7738 23.648H69.0938V36.608C69.0938 37.104 68.9658 37.496 68.7098 37.784C68.4538 38.056 68.0698 38.192 67.5578 38.192ZM76.221 38.192C75.725 38.192 75.341 38.064 75.069 37.808C74.813 37.536 74.685 37.152 74.685 36.656V27.584C74.685 27.088 74.813 26.712 75.069 26.456C75.325 26.2 75.685 26.072 76.149 26.072C76.613 26.072 76.973 26.2 77.229 26.456C77.485 26.712 77.613 27.088 77.613 27.584V29.096H77.373C77.597 28.136 78.037 27.408 78.693 26.912C79.349 26.416 80.221 26.12 81.309 26.024C81.645 25.992 81.909 26.08 82.101 26.288C82.309 26.48 82.429 26.784 82.461 27.2C82.493 27.6 82.397 27.928 82.173 28.184C81.965 28.424 81.645 28.568 81.213 28.616L80.685 28.664C79.709 28.76 78.973 29.064 78.477 29.576C77.981 30.072 77.733 30.776 77.733 31.688V36.656C77.733 37.152 77.605 37.536 77.349 37.808C77.093 38.064 76.717 38.192 76.221 38.192ZM87.786 42.512C87.434 42.512 87.146 42.416 86.922 42.224C86.698 42.048 86.562 41.808 86.514 41.504C86.482 41.2 86.538 40.88 86.682 40.544L88.314 36.92V38.168L83.946 28.064C83.802 27.712 83.754 27.384 83.802 27.08C83.85 26.776 83.994 26.536 84.234 26.36C84.49 26.168 84.834 26.072 85.266 26.072C85.634 26.072 85.93 26.16 86.154 26.336C86.378 26.496 86.578 26.808 86.754 27.272L89.994 35.36H89.274L92.586 27.248C92.762 26.8 92.97 26.496 93.21 26.336C93.45 26.16 93.77 26.072 94.17 26.072C94.522 26.072 94.802 26.168 95.01 26.36C95.218 26.536 95.346 26.776 95.394 27.08C95.442 27.368 95.386 27.688 95.226 28.04L89.394 41.36C89.186 41.808 88.962 42.112 88.722 42.272C88.482 42.432 88.17 42.512 87.786 42.512ZM104.414 38.192C104.03 38.192 103.718 38.104 103.478 37.928C103.254 37.752 103.118 37.52 103.07 37.232C103.022 36.928 103.078 36.592 103.238 36.224L109.574 22.184C109.782 21.72 110.03 21.392 110.318 21.2C110.622 20.992 110.966 20.888 111.35 20.888C111.718 20.888 112.046 20.992 112.334 21.2C112.638 21.392 112.894 21.72 113.102 22.184L119.462 36.224C119.638 36.592 119.702 36.928 119.654 37.232C119.606 37.536 119.47 37.776 119.246 37.952C119.022 38.112 118.726 38.192 118.358 38.192C117.91 38.192 117.558 38.088 117.302 37.88C117.062 37.656 116.846 37.32 116.654 36.872L115.094 33.248L116.39 34.088H106.262L107.558 33.248L106.022 36.872C105.814 37.336 105.598 37.672 105.374 37.88C105.15 38.088 104.83 38.192 104.414 38.192ZM111.302 24.416L107.942 32.408L107.318 31.64H115.334L114.734 32.408L111.35 24.416H111.302ZM127.173 42.56C126.309 42.56 125.469 42.48 124.653 42.32C123.853 42.16 123.125 41.912 122.469 41.576C122.165 41.416 121.957 41.224 121.845 41C121.749 40.776 121.717 40.544 121.749 40.304C121.797 40.08 121.893 39.88 122.037 39.704C122.197 39.528 122.389 39.408 122.613 39.344C122.837 39.28 123.069 39.312 123.309 39.44C124.013 39.792 124.677 40.016 125.301 40.112C125.941 40.224 126.485 40.28 126.933 40.28C128.005 40.28 128.805 40.016 129.333 39.488C129.877 38.976 130.149 38.208 130.149 37.184V35.024H130.365C130.125 35.84 129.621 36.496 128.853 36.992C128.101 37.472 127.245 37.712 126.285 37.712C125.229 37.712 124.309 37.472 123.525 36.992C122.741 36.496 122.133 35.808 121.701 34.928C121.269 34.048 121.053 33.024 121.053 31.856C121.053 30.976 121.173 30.184 121.413 29.48C121.669 28.76 122.021 28.144 122.469 27.632C122.933 27.12 123.485 26.728 124.125 26.456C124.781 26.168 125.501 26.024 126.285 26.024C127.277 26.024 128.141 26.272 128.877 26.768C129.629 27.248 130.117 27.888 130.341 28.688L130.101 29.288V27.584C130.101 27.088 130.229 26.712 130.485 26.456C130.757 26.2 131.125 26.072 131.589 26.072C132.069 26.072 132.437 26.2 132.693 26.456C132.949 26.712 133.077 27.088 133.077 27.584V36.824C133.077 38.728 132.573 40.16 131.565 41.12C130.557 42.08 129.093 42.56 127.173 42.56ZM127.101 35.432C127.725 35.432 128.261 35.288 128.709 35C129.157 34.712 129.501 34.304 129.741 33.776C129.997 33.232 130.125 32.592 130.125 31.856C130.125 30.752 129.853 29.888 129.309 29.264C128.765 28.624 128.029 28.304 127.101 28.304C126.477 28.304 125.941 28.448 125.493 28.736C125.045 29.024 124.693 29.432 124.437 29.96C124.197 30.488 124.077 31.12 124.077 31.856C124.077 32.96 124.349 33.832 124.893 34.472C125.437 35.112 126.173 35.432 127.101 35.432ZM140.049 38.24C139.201 38.24 138.441 38.08 137.769 37.76C137.113 37.424 136.593 36.976 136.209 36.416C135.841 35.856 135.657 35.224 135.657 34.52C135.657 33.656 135.881 32.976 136.329 32.48C136.777 31.968 137.505 31.6 138.513 31.376C139.521 31.152 140.873 31.04 142.569 31.04H143.769V32.768H142.593C141.601 32.768 140.809 32.816 140.217 32.912C139.625 33.008 139.201 33.176 138.945 33.416C138.705 33.64 138.585 33.96 138.585 34.376C138.585 34.904 138.769 35.336 139.137 35.672C139.505 36.008 140.017 36.176 140.673 36.176C141.201 36.176 141.665 36.056 142.065 35.816C142.481 35.56 142.809 35.216 143.049 34.784C143.289 34.352 143.409 33.856 143.409 33.296V30.536C143.409 29.736 143.233 29.16 142.881 28.808C142.529 28.456 141.937 28.28 141.105 28.28C140.641 28.28 140.137 28.336 139.593 28.448C139.065 28.56 138.505 28.752 137.913 29.024C137.609 29.168 137.337 29.208 137.097 29.144C136.873 29.08 136.697 28.952 136.569 28.76C136.441 28.552 136.377 28.328 136.377 28.088C136.377 27.848 136.441 27.616 136.569 27.392C136.697 27.152 136.913 26.976 137.217 26.864C137.953 26.56 138.657 26.344 139.329 26.216C140.017 26.088 140.641 26.024 141.201 26.024C142.353 26.024 143.297 26.2 144.033 26.552C144.785 26.904 145.345 27.44 145.713 28.16C146.081 28.864 146.265 29.776 146.265 30.896V36.656C146.265 37.152 146.145 37.536 145.905 37.808C145.665 38.064 145.321 38.192 144.873 38.192C144.425 38.192 144.073 38.064 143.817 37.808C143.577 37.536 143.457 37.152 143.457 36.656V35.504H143.649C143.537 36.064 143.313 36.552 142.977 36.968C142.657 37.368 142.249 37.68 141.753 37.904C141.257 38.128 140.689 38.24 140.049 38.24ZM150.798 38.168C150.318 38.168 149.95 38.024 149.694 37.736C149.438 37.448 149.31 37.048 149.31 36.536V27.728C149.31 27.2 149.438 26.8 149.694 26.528C149.95 26.24 150.318 26.096 150.798 26.096C151.278 26.096 151.646 26.24 151.902 26.528C152.174 26.8 152.31 27.2 152.31 27.728V36.536C152.31 37.048 152.182 37.448 151.926 37.736C151.67 38.024 151.294 38.168 150.798 38.168ZM150.798 23.864C150.238 23.864 149.798 23.728 149.478 23.456C149.174 23.168 149.022 22.776 149.022 22.28C149.022 21.768 149.174 21.376 149.478 21.104C149.798 20.832 150.238 20.696 150.798 20.696C151.374 20.696 151.814 20.832 152.118 21.104C152.422 21.376 152.574 21.768 152.574 22.28C152.574 22.776 152.422 23.168 152.118 23.456C151.814 23.728 151.374 23.864 150.798 23.864ZM156.915 38.192C156.435 38.192 156.067 38.064 155.811 37.808C155.555 37.536 155.427 37.152 155.427 36.656V27.584C155.427 27.088 155.555 26.712 155.811 26.456C156.067 26.2 156.427 26.072 156.891 26.072C157.355 26.072 157.715 26.2 157.971 26.456C158.227 26.712 158.355 27.088 158.355 27.584V29.216L158.091 28.616C158.443 27.768 158.987 27.128 159.723 26.696C160.475 26.248 161.323 26.024 162.267 26.024C163.211 26.024 163.987 26.2 164.595 26.552C165.203 26.904 165.659 27.44 165.963 28.16C166.267 28.864 166.419 29.76 166.419 30.848V36.656C166.419 37.152 166.291 37.536 166.035 37.808C165.779 38.064 165.411 38.192 164.931 38.192C164.451 38.192 164.075 38.064 163.803 37.808C163.547 37.536 163.419 37.152 163.419 36.656V30.992C163.419 30.08 163.243 29.416 162.891 29C162.555 28.584 162.027 28.376 161.307 28.376C160.427 28.376 159.723 28.656 159.195 29.216C158.683 29.76 158.427 30.488 158.427 31.4V36.656C158.427 37.68 157.923 38.192 156.915 38.192Z" fill="white"/>
</g>
<defs>
<clipPath id="clip0_2856_2335">
<rect width="108" height="28" fill="white" transform="translate(60 16)"/>
</clipPath>
</defs>
</svg>
