<svg width="30" height="28" viewBox="0 0 30 28" fill="none" xmlns="http://www.w3.org/2000/svg">
<rect x="0.5" y="0.5" width="29" height="27" rx="4.5" fill="#D1F7FF"/>
<path d="M12.1451 21.2C11.3184 21.2 10.5917 20.9933 9.96508 20.58C9.35174 20.1667 8.94508 19.6133 8.74508 18.92L8.96508 18.42V19.88C8.96508 20.2933 8.85841 20.6133 8.64508 20.84C8.43174 21.0533 8.13174 21.16 7.74508 21.16C7.34508 21.16 7.03841 21.0533 6.82508 20.84C6.61174 20.6133 6.50508 20.2933 6.50508 19.88V8C6.50508 7.58667 6.61174 7.27333 6.82508 7.06C7.03841 6.84667 7.34508 6.74 7.74508 6.74C8.14508 6.74 8.45174 6.84667 8.66508 7.06C8.89175 7.27333 9.00508 7.58667 9.00508 8V13.2H8.76508C8.97841 12.5467 9.39174 12.02 10.0051 11.62C10.6184 11.22 11.3317 11.02 12.1451 11.02C13.0117 11.02 13.7651 11.2267 14.4051 11.64C15.0451 12.0533 15.5451 12.64 15.9051 13.4C16.2651 14.1467 16.4451 15.0467 16.4451 16.1C16.4451 17.14 16.2651 18.0467 15.9051 18.82C15.5451 19.58 15.0384 20.1667 14.3851 20.58C13.7451 20.9933 12.9984 21.2 12.1451 21.2ZM11.4451 19.3C11.9384 19.3 12.3717 19.18 12.7451 18.94C13.1184 18.7 13.4051 18.3467 13.6051 17.88C13.8184 17.4 13.9251 16.8067 13.9251 16.1C13.9251 15.0333 13.6984 14.24 13.2451 13.72C12.7917 13.1867 12.1917 12.92 11.4451 12.92C10.9517 12.92 10.5184 13.04 10.1451 13.28C9.77175 13.5067 9.47841 13.86 9.26508 14.34C9.06508 14.8067 8.96508 15.3933 8.96508 16.1C8.96508 17.1533 9.19175 17.9533 9.64508 18.5C10.0984 19.0333 10.6984 19.3 11.4451 19.3ZM19.0373 15.36C18.7706 15.36 18.5439 15.28 18.3573 15.12C18.1839 14.9467 18.0973 14.7267 18.0973 14.46C18.0973 14.2467 18.1439 14.06 18.2373 13.9C18.3306 13.74 18.4573 13.58 18.6173 13.42L20.6373 11.3C20.9706 10.9533 21.2039 10.64 21.3373 10.36C21.4839 10.08 21.5573 9.8 21.5573 9.52C21.5573 9.18667 21.4573 8.93333 21.2573 8.76C21.0706 8.57333 20.7839 8.48 20.3973 8.48C20.1706 8.48 19.9373 8.52 19.6973 8.6C19.4573 8.66667 19.2306 8.76 19.0173 8.88C18.7773 9.01333 18.5573 9.04667 18.3573 8.98C18.1706 8.91333 18.0306 8.79333 17.9373 8.62C17.8439 8.43333 17.8239 8.23333 17.8773 8.02C17.9306 7.80667 18.0773 7.62667 18.3173 7.48C18.6639 7.26667 19.0639 7.10667 19.5173 7C19.9706 6.88 20.4173 6.82 20.8573 6.82C21.4439 6.82 21.9506 6.92 22.3773 7.12C22.8039 7.32 23.1306 7.6 23.3573 7.96C23.5973 8.32 23.7173 8.74667 23.7173 9.24C23.7173 9.68 23.6106 10.1067 23.3973 10.52C23.1973 10.9333 22.8573 11.3867 22.3773 11.88L20.4573 13.86V13.68H23.3773C23.9506 13.68 24.2373 13.96 24.2373 14.52C24.2373 14.7867 24.1639 14.9933 24.0173 15.14C23.8706 15.2867 23.6573 15.36 23.3773 15.36H19.0373Z" fill="#2AD3F5"/>
<rect x="0.5" y="0.5" width="29" height="27" rx="4.5" stroke="#2AD3F5"/>
</svg>
