<svg width="535" height="28" viewBox="0 0 535 28" fill="none" xmlns="http://www.w3.org/2000/svg">
<path d="M6.57227 21.16C6.21227 21.16 5.91893 21.0733 5.69227 20.9C5.47893 20.7267 5.3056 20.4533 5.17227 20.08L0.992266 8.26C0.845599 7.83333 0.872266 7.47333 1.07227 7.18C1.2856 6.88667 1.63893 6.74 2.13227 6.74C2.49227 6.74 2.77227 6.82667 2.97227 7C3.17227 7.16 3.33227 7.42 3.45227 7.78L7.05227 18.46H6.25227L10.0123 7.8C10.1456 7.44 10.3123 7.17333 10.5123 7C10.7123 6.82667 10.9723 6.74 11.2923 6.74C11.6123 6.74 11.8656 6.82667 12.0523 7C12.2389 7.17333 12.3989 7.44667 12.5323 7.82L16.1723 18.46H15.4723L19.1323 7.78C19.2523 7.43333 19.4123 7.17333 19.6123 7C19.8123 6.82667 20.0856 6.74 20.4323 6.74C20.8589 6.74 21.1723 6.88667 21.3723 7.18C21.5723 7.47333 21.5989 7.83333 21.4523 8.26L17.2323 20.1C17.0989 20.46 16.9256 20.7267 16.7123 20.9C16.4989 21.0733 16.2123 21.16 15.8523 21.16C15.4923 21.16 15.2056 21.0733 14.9923 20.9C14.7789 20.7267 14.6056 20.4533 14.4723 20.08L10.9923 10.16H11.4523L7.93227 20.1C7.79893 20.46 7.6256 20.7267 7.41227 20.9C7.21227 21.0733 6.93227 21.16 6.57227 21.16ZM27.2079 21.2C26.1012 21.2 25.1479 20.9933 24.3479 20.58C23.5479 20.1667 22.9279 19.58 22.4879 18.82C22.0612 18.06 21.8479 17.16 21.8479 16.12C21.8479 15.1067 22.0546 14.22 22.4679 13.46C22.8946 12.7 23.4746 12.1067 24.2079 11.68C24.9546 11.24 25.8012 11.02 26.7479 11.02C27.4412 11.02 28.0612 11.1333 28.6079 11.36C29.1679 11.5867 29.6412 11.9133 30.0279 12.34C30.4279 12.7667 30.7279 13.2867 30.9279 13.9C31.1412 14.5 31.2479 15.18 31.2479 15.94C31.2479 16.18 31.1612 16.3667 30.9879 16.5C30.8279 16.62 30.5946 16.68 30.2879 16.68H23.8679V15.24H29.4879L29.1679 15.54C29.1679 14.9267 29.0746 14.4133 28.8879 14C28.7146 13.5867 28.4546 13.2733 28.1079 13.06C27.7746 12.8333 27.3546 12.72 26.8479 12.72C26.2879 12.72 25.8079 12.8533 25.4079 13.12C25.0212 13.3733 24.7212 13.74 24.5079 14.22C24.3079 14.6867 24.2079 15.2467 24.2079 15.9V16.04C24.2079 17.1333 24.4612 17.9533 24.9679 18.5C25.4879 19.0333 26.2479 19.3 27.2479 19.3C27.5946 19.3 27.9812 19.26 28.4079 19.18C28.8479 19.0867 29.2612 18.9333 29.6479 18.72C29.9279 18.56 30.1746 18.4933 30.3879 18.52C30.6012 18.5333 30.7679 18.6067 30.8879 18.74C31.0212 18.8733 31.1012 19.04 31.1279 19.24C31.1546 19.4267 31.1146 19.62 31.0079 19.82C30.9146 20.02 30.7479 20.1933 30.5079 20.34C30.0412 20.6333 29.5012 20.8533 28.8879 21C28.2879 21.1333 27.7279 21.2 27.2079 21.2ZM39.8974 21.16C39.4974 21.16 39.1908 21.0533 38.9774 20.84C38.7641 20.6133 38.6574 20.2933 38.6574 19.88V8C38.6574 7.58667 38.7641 7.27333 38.9774 7.06C39.1908 6.84667 39.4974 6.74 39.8974 6.74C40.2974 6.74 40.6041 6.84667 40.8174 7.06C41.0441 7.27333 41.1574 7.58667 41.1574 8V13.18H40.8774C41.1708 12.4733 41.6241 11.94 42.2374 11.58C42.8641 11.2067 43.5708 11.02 44.3574 11.02C45.1441 11.02 45.7908 11.1667 46.2974 11.46C46.8041 11.7533 47.1841 12.2 47.4374 12.8C47.6908 13.3867 47.8174 14.1333 47.8174 15.04V19.88C47.8174 20.2933 47.7108 20.6133 47.4974 20.84C47.2841 21.0533 46.9774 21.16 46.5774 21.16C46.1774 21.16 45.8641 21.0533 45.6374 20.84C45.4241 20.6133 45.3174 20.2933 45.3174 19.88V15.16C45.3174 14.4 45.1708 13.8467 44.8774 13.5C44.5974 13.1533 44.1574 12.98 43.5574 12.98C42.8241 12.98 42.2374 13.2133 41.7974 13.68C41.3708 14.1333 41.1574 14.74 41.1574 15.5V19.88C41.1574 20.7333 40.7374 21.16 39.8974 21.16ZM53.5766 21.2C52.87 21.2 52.2366 21.0667 51.6766 20.8C51.13 20.52 50.6966 20.1467 50.3766 19.68C50.07 19.2133 49.9166 18.6867 49.9166 18.1C49.9166 17.38 50.1033 16.8133 50.4766 16.4C50.85 15.9733 51.4566 15.6667 52.2966 15.48C53.1366 15.2933 54.2633 15.2 55.6766 15.2H56.6766V16.64H55.6966C54.87 16.64 54.21 16.68 53.7166 16.76C53.2233 16.84 52.87 16.98 52.6566 17.18C52.4566 17.3667 52.3566 17.6333 52.3566 17.98C52.3566 18.42 52.51 18.78 52.8166 19.06C53.1233 19.34 53.55 19.48 54.0966 19.48C54.5366 19.48 54.9233 19.38 55.2566 19.18C55.6033 18.9667 55.8766 18.68 56.0766 18.32C56.2766 17.96 56.3766 17.5467 56.3766 17.08V14.78C56.3766 14.1133 56.23 13.6333 55.9366 13.34C55.6433 13.0467 55.15 12.9 54.4566 12.9C54.07 12.9 53.65 12.9467 53.1966 13.04C52.7566 13.1333 52.29 13.2933 51.7966 13.52C51.5433 13.64 51.3166 13.6733 51.1166 13.62C50.93 13.5667 50.7833 13.46 50.6766 13.3C50.57 13.1267 50.5166 12.94 50.5166 12.74C50.5166 12.54 50.57 12.3467 50.6766 12.16C50.7833 11.96 50.9633 11.8133 51.2166 11.72C51.83 11.4667 52.4166 11.2867 52.9766 11.18C53.55 11.0733 54.07 11.02 54.5366 11.02C55.4966 11.02 56.2833 11.1667 56.8966 11.46C57.5233 11.7533 57.99 12.2 58.2966 12.8C58.6033 13.3867 58.7566 14.1467 58.7566 15.08V19.88C58.7566 20.2933 58.6566 20.6133 58.4566 20.84C58.2566 21.0533 57.97 21.16 57.5966 21.16C57.2233 21.16 56.93 21.0533 56.7166 20.84C56.5166 20.6133 56.4166 20.2933 56.4166 19.88V18.92H56.5766C56.4833 19.3867 56.2966 19.7933 56.0166 20.14C55.75 20.4733 55.41 20.7333 54.9966 20.92C54.5833 21.1067 54.11 21.2 53.5766 21.2ZM65.1565 21.16C64.8232 21.16 64.5298 21.0733 64.2765 20.9C64.0365 20.7267 63.8365 20.46 63.6765 20.1L60.4965 12.72C60.3765 12.4267 60.3298 12.1533 60.3565 11.9C60.3965 11.6467 60.5165 11.4467 60.7165 11.3C60.9298 11.14 61.2165 11.06 61.5765 11.06C61.8832 11.06 62.1298 11.1333 62.3165 11.28C62.5032 11.4133 62.6698 11.6733 62.8165 12.06L65.5165 18.8H64.9165L67.6965 12.04C67.8432 11.6667 68.0098 11.4133 68.1965 11.28C68.3965 11.1333 68.6632 11.06 68.9965 11.06C69.2898 11.06 69.5232 11.14 69.6965 11.3C69.8698 11.4467 69.9765 11.6467 70.0165 11.9C70.0565 12.14 70.0098 12.4067 69.8765 12.7L66.6365 20.1C66.4898 20.46 66.2898 20.7267 66.0365 20.9C65.7965 21.0733 65.5032 21.16 65.1565 21.16ZM76.368 21.2C75.2614 21.2 74.308 20.9933 73.508 20.58C72.708 20.1667 72.088 19.58 71.648 18.82C71.2214 18.06 71.008 17.16 71.008 16.12C71.008 15.1067 71.2147 14.22 71.628 13.46C72.0547 12.7 72.6347 12.1067 73.368 11.68C74.1147 11.24 74.9614 11.02 75.908 11.02C76.6014 11.02 77.2214 11.1333 77.768 11.36C78.328 11.5867 78.8014 11.9133 79.188 12.34C79.588 12.7667 79.888 13.2867 80.088 13.9C80.3014 14.5 80.408 15.18 80.408 15.94C80.408 16.18 80.3214 16.3667 80.148 16.5C79.988 16.62 79.7547 16.68 79.448 16.68H73.028V15.24H78.648L78.328 15.54C78.328 14.9267 78.2347 14.4133 78.048 14C77.8747 13.5867 77.6147 13.2733 77.268 13.06C76.9347 12.8333 76.5147 12.72 76.008 12.72C75.448 12.72 74.968 12.8533 74.568 13.12C74.1814 13.3733 73.8814 13.74 73.668 14.22C73.468 14.6867 73.368 15.2467 73.368 15.9V16.04C73.368 17.1333 73.6214 17.9533 74.128 18.5C74.648 19.0333 75.408 19.3 76.408 19.3C76.7547 19.3 77.1414 19.26 77.568 19.18C78.008 19.0867 78.4214 18.9333 78.808 18.72C79.088 18.56 79.3347 18.4933 79.548 18.52C79.7614 18.5333 79.928 18.6067 80.048 18.74C80.1814 18.8733 80.2614 19.04 80.288 19.24C80.3147 19.4267 80.2747 19.62 80.168 19.82C80.0747 20.02 79.908 20.1933 79.668 20.34C79.2014 20.6333 78.6614 20.8533 78.048 21C77.448 21.1333 76.888 21.2 76.368 21.2ZM91.0376 21.2C90.3309 21.2 89.6976 21.0667 89.1376 20.8C88.5909 20.52 88.1576 20.1467 87.8376 19.68C87.5309 19.2133 87.3776 18.6867 87.3776 18.1C87.3776 17.38 87.5642 16.8133 87.9376 16.4C88.3109 15.9733 88.9176 15.6667 89.7576 15.48C90.5976 15.2933 91.7242 15.2 93.1376 15.2H94.1376V16.64H93.1576C92.3309 16.64 91.6709 16.68 91.1776 16.76C90.6842 16.84 90.3309 16.98 90.1176 17.18C89.9176 17.3667 89.8176 17.6333 89.8176 17.98C89.8176 18.42 89.9709 18.78 90.2776 19.06C90.5842 19.34 91.0109 19.48 91.5576 19.48C91.9976 19.48 92.3842 19.38 92.7176 19.18C93.0642 18.9667 93.3376 18.68 93.5376 18.32C93.7376 17.96 93.8376 17.5467 93.8376 17.08V14.78C93.8376 14.1133 93.6909 13.6333 93.3976 13.34C93.1042 13.0467 92.6109 12.9 91.9176 12.9C91.5309 12.9 91.1109 12.9467 90.6576 13.04C90.2176 13.1333 89.7509 13.2933 89.2576 13.52C89.0042 13.64 88.7776 13.6733 88.5776 13.62C88.3909 13.5667 88.2442 13.46 88.1376 13.3C88.0309 13.1267 87.9776 12.94 87.9776 12.74C87.9776 12.54 88.0309 12.3467 88.1376 12.16C88.2442 11.96 88.4242 11.8133 88.6776 11.72C89.2909 11.4667 89.8776 11.2867 90.4376 11.18C91.0109 11.0733 91.5309 11.02 91.9976 11.02C92.9576 11.02 93.7442 11.1667 94.3576 11.46C94.9842 11.7533 95.4509 12.2 95.7576 12.8C96.0642 13.3867 96.2176 14.1467 96.2176 15.08V19.88C96.2176 20.2933 96.1176 20.6133 95.9176 20.84C95.7176 21.0533 95.4309 21.16 95.0576 21.16C94.6842 21.16 94.3909 21.0533 94.1776 20.84C93.9776 20.6133 93.8776 20.2933 93.8776 19.88V18.92H94.0376C93.9442 19.3867 93.7576 19.7933 93.4776 20.14C93.2109 20.4733 92.8709 20.7333 92.4576 20.92C92.0442 21.1067 91.5709 21.2 91.0376 21.2ZM108.665 21.2C107.798 21.2 107.071 21.0533 106.485 20.76C105.911 20.4667 105.485 20.04 105.205 19.48C104.925 18.9067 104.785 18.2 104.785 17.36V13.1H103.745C103.425 13.1 103.178 13.02 103.005 12.86C102.831 12.6867 102.745 12.4533 102.745 12.16C102.745 11.8533 102.831 11.62 103.005 11.46C103.178 11.3 103.425 11.22 103.745 11.22H104.785V9.4C104.785 8.98667 104.891 8.67333 105.105 8.46C105.331 8.24667 105.645 8.14 106.045 8.14C106.445 8.14 106.751 8.24667 106.965 8.46C107.178 8.67333 107.285 8.98667 107.285 9.4V11.22H109.405C109.725 11.22 109.971 11.3 110.145 11.46C110.318 11.62 110.405 11.8533 110.405 12.16C110.405 12.4533 110.318 12.6867 110.145 12.86C109.971 13.02 109.725 13.1 109.405 13.1H107.285V17.22C107.285 17.86 107.425 18.34 107.705 18.66C107.985 18.98 108.438 19.14 109.065 19.14C109.291 19.14 109.491 19.12 109.665 19.08C109.838 19.04 109.991 19.0133 110.125 19C110.285 18.9867 110.418 19.04 110.525 19.16C110.631 19.2667 110.685 19.4933 110.685 19.84C110.685 20.1067 110.638 20.3467 110.545 20.56C110.465 20.76 110.311 20.9 110.085 20.98C109.911 21.0333 109.685 21.08 109.405 21.12C109.125 21.1733 108.878 21.2 108.665 21.2ZM113.141 21.16C112.727 21.16 112.407 21.0533 112.181 20.84C111.967 20.6133 111.861 20.2933 111.861 19.88V12.32C111.861 11.9067 111.967 11.5933 112.181 11.38C112.394 11.1667 112.694 11.06 113.081 11.06C113.467 11.06 113.767 11.1667 113.981 11.38C114.194 11.5933 114.301 11.9067 114.301 12.32V13.58H114.101C114.287 12.78 114.654 12.1733 115.201 11.76C115.747 11.3467 116.474 11.1 117.381 11.02C117.661 10.9933 117.881 11.0667 118.041 11.24C118.214 11.4 118.314 11.6533 118.341 12C118.367 12.3333 118.287 12.6067 118.101 12.82C117.927 13.02 117.661 13.14 117.301 13.18L116.861 13.22C116.047 13.3 115.434 13.5533 115.021 13.98C114.607 14.3933 114.401 14.98 114.401 15.74V19.88C114.401 20.2933 114.294 20.6133 114.081 20.84C113.867 21.0533 113.554 21.16 113.141 21.16ZM120.933 21.14C120.533 21.14 120.226 21.02 120.013 20.78C119.799 20.54 119.693 20.2067 119.693 19.78V12.44C119.693 12 119.799 11.6667 120.013 11.44C120.226 11.2 120.533 11.08 120.933 11.08C121.333 11.08 121.639 11.2 121.853 11.44C122.079 11.6667 122.193 12 122.193 12.44V19.78C122.193 20.2067 122.086 20.54 121.873 20.78C121.659 21.02 121.346 21.14 120.933 21.14ZM120.933 9.22C120.466 9.22 120.099 9.10667 119.833 8.88C119.579 8.64 119.453 8.31333 119.453 7.9C119.453 7.47333 119.579 7.14667 119.833 6.92C120.099 6.69333 120.466 6.58 120.933 6.58C121.413 6.58 121.779 6.69333 122.033 6.92C122.286 7.14667 122.413 7.47333 122.413 7.9C122.413 8.31333 122.286 8.64 122.033 8.88C121.779 9.10667 121.413 9.22 120.933 9.22ZM128.01 21.2C127.304 21.2 126.67 21.0667 126.11 20.8C125.564 20.52 125.13 20.1467 124.81 19.68C124.504 19.2133 124.35 18.6867 124.35 18.1C124.35 17.38 124.537 16.8133 124.91 16.4C125.284 15.9733 125.89 15.6667 126.73 15.48C127.57 15.2933 128.697 15.2 130.11 15.2H131.11V16.64H130.13C129.304 16.64 128.644 16.68 128.15 16.76C127.657 16.84 127.304 16.98 127.09 17.18C126.89 17.3667 126.79 17.6333 126.79 17.98C126.79 18.42 126.944 18.78 127.25 19.06C127.557 19.34 127.984 19.48 128.53 19.48C128.97 19.48 129.357 19.38 129.69 19.18C130.037 18.9667 130.31 18.68 130.51 18.32C130.71 17.96 130.81 17.5467 130.81 17.08V14.78C130.81 14.1133 130.664 13.6333 130.37 13.34C130.077 13.0467 129.584 12.9 128.89 12.9C128.504 12.9 128.084 12.9467 127.63 13.04C127.19 13.1333 126.724 13.2933 126.23 13.52C125.977 13.64 125.75 13.6733 125.55 13.62C125.364 13.5667 125.217 13.46 125.11 13.3C125.004 13.1267 124.95 12.94 124.95 12.74C124.95 12.54 125.004 12.3467 125.11 12.16C125.217 11.96 125.397 11.8133 125.65 11.72C126.264 11.4667 126.85 11.2867 127.41 11.18C127.984 11.0733 128.504 11.02 128.97 11.02C129.93 11.02 130.717 11.1667 131.33 11.46C131.957 11.7533 132.424 12.2 132.73 12.8C133.037 13.3867 133.19 14.1467 133.19 15.08V19.88C133.19 20.2933 133.09 20.6133 132.89 20.84C132.69 21.0533 132.404 21.16 132.03 21.16C131.657 21.16 131.364 21.0533 131.15 20.84C130.95 20.6133 130.85 20.2933 130.85 19.88V18.92H131.01C130.917 19.3867 130.73 19.7933 130.45 20.14C130.184 20.4733 129.844 20.7333 129.43 20.92C129.017 21.1067 128.544 21.2 128.01 21.2ZM136.968 21.16C136.568 21.16 136.261 21.0533 136.048 20.84C135.834 20.6133 135.728 20.2933 135.728 19.88V12.32C135.728 11.9067 135.834 11.5933 136.048 11.38C136.261 11.1667 136.561 11.06 136.948 11.06C137.334 11.06 137.634 11.1667 137.848 11.38C138.061 11.5933 138.168 11.9067 138.168 12.32V13.68L137.948 13.18C138.241 12.4733 138.694 11.94 139.308 11.58C139.934 11.2067 140.641 11.02 141.428 11.02C142.214 11.02 142.861 11.1667 143.368 11.46C143.874 11.7533 144.254 12.2 144.508 12.8C144.761 13.3867 144.888 14.1333 144.888 15.04V19.88C144.888 20.2933 144.781 20.6133 144.568 20.84C144.354 21.0533 144.048 21.16 143.648 21.16C143.248 21.16 142.934 21.0533 142.708 20.84C142.494 20.6133 142.388 20.2933 142.388 19.88V15.16C142.388 14.4 142.241 13.8467 141.948 13.5C141.668 13.1533 141.228 12.98 140.628 12.98C139.894 12.98 139.308 13.2133 138.868 13.68C138.441 14.1333 138.228 14.74 138.228 15.5V19.88C138.228 20.7333 137.808 21.16 136.968 21.16ZM151.987 24.8C151.267 24.8 150.567 24.7333 149.887 24.6C149.22 24.4667 148.614 24.26 148.067 23.98C147.814 23.8467 147.64 23.6867 147.547 23.5C147.467 23.3133 147.44 23.12 147.467 22.92C147.507 22.7333 147.587 22.5667 147.707 22.42C147.84 22.2733 148 22.1733 148.187 22.12C148.374 22.0667 148.567 22.0933 148.767 22.2C149.354 22.4933 149.907 22.68 150.427 22.76C150.96 22.8533 151.414 22.9 151.787 22.9C152.68 22.9 153.347 22.68 153.787 22.24C154.24 21.8133 154.467 21.1733 154.467 20.32V18.52H154.647C154.447 19.2 154.027 19.7467 153.387 20.16C152.76 20.56 152.047 20.76 151.247 20.76C150.367 20.76 149.6 20.56 148.947 20.16C148.294 19.7467 147.787 19.1733 147.427 18.44C147.067 17.7067 146.887 16.8533 146.887 15.88C146.887 15.1467 146.987 14.4867 147.187 13.9C147.4 13.3 147.694 12.7867 148.067 12.36C148.454 11.9333 148.914 11.6067 149.447 11.38C149.994 11.14 150.594 11.02 151.247 11.02C152.074 11.02 152.794 11.2267 153.407 11.64C154.034 12.04 154.44 12.5733 154.627 13.24L154.427 13.74V12.32C154.427 11.9067 154.534 11.5933 154.747 11.38C154.974 11.1667 155.28 11.06 155.667 11.06C156.067 11.06 156.374 11.1667 156.587 11.38C156.8 11.5933 156.907 11.9067 156.907 12.32V20.02C156.907 21.6067 156.487 22.8 155.647 23.6C154.807 24.4 153.587 24.8 151.987 24.8ZM151.927 18.86C152.447 18.86 152.894 18.74 153.267 18.5C153.64 18.26 153.927 17.92 154.127 17.48C154.34 17.0267 154.447 16.4933 154.447 15.88C154.447 14.96 154.22 14.24 153.767 13.72C153.314 13.1867 152.7 12.92 151.927 12.92C151.407 12.92 150.96 13.04 150.587 13.28C150.214 13.52 149.92 13.86 149.707 14.3C149.507 14.74 149.407 15.2667 149.407 15.88C149.407 16.8 149.634 17.5267 150.087 18.06C150.54 18.5933 151.154 18.86 151.927 18.86ZM162.837 21.2C161.731 21.2 160.897 20.8867 160.337 20.26C159.777 19.62 159.497 18.6867 159.497 17.46V8C159.497 7.58667 159.604 7.27333 159.817 7.06C160.031 6.84667 160.337 6.74 160.737 6.74C161.137 6.74 161.444 6.84667 161.657 7.06C161.884 7.27333 161.997 7.58667 161.997 8V17.34C161.997 17.9533 162.124 18.4067 162.377 18.7C162.644 18.9933 163.017 19.14 163.497 19.14C163.604 19.14 163.704 19.14 163.797 19.14C163.891 19.1267 163.984 19.1133 164.077 19.1C164.264 19.0733 164.391 19.1267 164.457 19.26C164.524 19.38 164.557 19.6333 164.557 20.02C164.557 20.3533 164.491 20.6133 164.357 20.8C164.224 20.9867 164.004 21.1 163.697 21.14C163.564 21.1533 163.424 21.1667 163.277 21.18C163.131 21.1933 162.984 21.2 162.837 21.2ZM170.606 21.2C169.5 21.2 168.546 20.9933 167.746 20.58C166.946 20.1667 166.326 19.58 165.886 18.82C165.46 18.06 165.246 17.16 165.246 16.12C165.246 15.1067 165.453 14.22 165.866 13.46C166.293 12.7 166.873 12.1067 167.606 11.68C168.353 11.24 169.2 11.02 170.146 11.02C170.84 11.02 171.46 11.1333 172.006 11.36C172.566 11.5867 173.04 11.9133 173.426 12.34C173.826 12.7667 174.126 13.2867 174.326 13.9C174.54 14.5 174.646 15.18 174.646 15.94C174.646 16.18 174.56 16.3667 174.386 16.5C174.226 16.62 173.993 16.68 173.686 16.68H167.266V15.24H172.886L172.566 15.54C172.566 14.9267 172.473 14.4133 172.286 14C172.113 13.5867 171.853 13.2733 171.506 13.06C171.173 12.8333 170.753 12.72 170.246 12.72C169.686 12.72 169.206 12.8533 168.806 13.12C168.42 13.3733 168.12 13.74 167.906 14.22C167.706 14.6867 167.606 15.2467 167.606 15.9V16.04C167.606 17.1333 167.86 17.9533 168.366 18.5C168.886 19.0333 169.646 19.3 170.646 19.3C170.993 19.3 171.38 19.26 171.806 19.18C172.246 19.0867 172.66 18.9333 173.046 18.72C173.326 18.56 173.573 18.4933 173.786 18.52C174 18.5333 174.166 18.6067 174.286 18.74C174.42 18.8733 174.5 19.04 174.526 19.24C174.553 19.4267 174.513 19.62 174.406 19.82C174.313 20.02 174.146 20.1933 173.906 20.34C173.44 20.6333 172.9 20.8533 172.286 21C171.686 21.1333 171.126 21.2 170.606 21.2ZM185.836 21.16C185.503 21.16 185.216 21.08 184.976 20.92C184.736 20.7467 184.543 20.48 184.396 20.12L181.496 12.72C181.376 12.4 181.336 12.12 181.376 11.88C181.429 11.6267 181.556 11.4267 181.756 11.28C181.956 11.1333 182.223 11.06 182.556 11.06C182.849 11.06 183.089 11.1333 183.276 11.28C183.463 11.4133 183.623 11.6733 183.756 12.06L186.176 18.72H185.716L188.216 11.9C188.323 11.6067 188.463 11.3933 188.636 11.26C188.823 11.1267 189.063 11.06 189.356 11.06C189.649 11.06 189.889 11.1333 190.076 11.28C190.263 11.4133 190.403 11.62 190.496 11.9L192.956 18.72H192.536L194.976 12C195.109 11.64 195.276 11.3933 195.476 11.26C195.689 11.1267 195.923 11.06 196.176 11.06C196.496 11.06 196.743 11.14 196.916 11.3C197.089 11.46 197.189 11.6667 197.216 11.92C197.243 12.16 197.196 12.4267 197.076 12.72L194.196 20.12C194.063 20.4667 193.869 20.7267 193.616 20.9C193.376 21.0733 193.089 21.16 192.756 21.16C192.423 21.16 192.129 21.0733 191.876 20.9C191.636 20.7267 191.449 20.4667 191.316 20.12L188.696 13.18H189.836L187.276 20.1C187.143 20.46 186.956 20.7267 186.716 20.9C186.476 21.0733 186.183 21.16 185.836 21.16ZM200.347 21.14C199.947 21.14 199.64 21.02 199.427 20.78C199.213 20.54 199.107 20.2067 199.107 19.78V12.44C199.107 12 199.213 11.6667 199.427 11.44C199.64 11.2 199.947 11.08 200.347 11.08C200.747 11.08 201.053 11.2 201.267 11.44C201.493 11.6667 201.607 12 201.607 12.44V19.78C201.607 20.2067 201.5 20.54 201.287 20.78C201.073 21.02 200.76 21.14 200.347 21.14ZM200.347 9.22C199.88 9.22 199.513 9.10667 199.247 8.88C198.993 8.64 198.867 8.31333 198.867 7.9C198.867 7.47333 198.993 7.14667 199.247 6.92C199.513 6.69333 199.88 6.58 200.347 6.58C200.827 6.58 201.193 6.69333 201.447 6.92C201.7 7.14667 201.827 7.47333 201.827 7.9C201.827 8.31333 201.7 8.64 201.447 8.88C201.193 9.10667 200.827 9.22 200.347 9.22ZM208.684 21.2C207.818 21.2 207.091 21.0533 206.504 20.76C205.931 20.4667 205.504 20.04 205.224 19.48C204.944 18.9067 204.804 18.2 204.804 17.36V13.1H203.764C203.444 13.1 203.198 13.02 203.024 12.86C202.851 12.6867 202.764 12.4533 202.764 12.16C202.764 11.8533 202.851 11.62 203.024 11.46C203.198 11.3 203.444 11.22 203.764 11.22H204.804V9.4C204.804 8.98667 204.911 8.67333 205.124 8.46C205.351 8.24667 205.664 8.14 206.064 8.14C206.464 8.14 206.771 8.24667 206.984 8.46C207.198 8.67333 207.304 8.98667 207.304 9.4V11.22H209.424C209.744 11.22 209.991 11.3 210.164 11.46C210.338 11.62 210.424 11.8533 210.424 12.16C210.424 12.4533 210.338 12.6867 210.164 12.86C209.991 13.02 209.744 13.1 209.424 13.1H207.304V17.22C207.304 17.86 207.444 18.34 207.724 18.66C208.004 18.98 208.458 19.14 209.084 19.14C209.311 19.14 209.511 19.12 209.684 19.08C209.858 19.04 210.011 19.0133 210.144 19C210.304 18.9867 210.438 19.04 210.544 19.16C210.651 19.2667 210.704 19.4933 210.704 19.84C210.704 20.1067 210.658 20.3467 210.564 20.56C210.484 20.76 210.331 20.9 210.104 20.98C209.931 21.0333 209.704 21.08 209.424 21.12C209.144 21.1733 208.898 21.2 208.684 21.2ZM213.374 21.16C212.974 21.16 212.667 21.0533 212.454 20.84C212.241 20.6133 212.134 20.2933 212.134 19.88V8C212.134 7.58667 212.241 7.27333 212.454 7.06C212.667 6.84667 212.974 6.74 213.374 6.74C213.774 6.74 214.081 6.84667 214.294 7.06C214.521 7.27333 214.634 7.58667 214.634 8V13.18H214.354C214.647 12.4733 215.101 11.94 215.714 11.58C216.341 11.2067 217.047 11.02 217.834 11.02C218.621 11.02 219.267 11.1667 219.774 11.46C220.281 11.7533 220.661 12.2 220.914 12.8C221.167 13.3867 221.294 14.1333 221.294 15.04V19.88C221.294 20.2933 221.187 20.6133 220.974 20.84C220.761 21.0533 220.454 21.16 220.054 21.16C219.654 21.16 219.341 21.0533 219.114 20.84C218.901 20.6133 218.794 20.2933 218.794 19.88V15.16C218.794 14.4 218.647 13.8467 218.354 13.5C218.074 13.1533 217.634 12.98 217.034 12.98C216.301 12.98 215.714 13.2133 215.274 13.68C214.847 14.1333 214.634 14.74 214.634 15.5V19.88C214.634 20.7333 214.214 21.16 213.374 21.16ZM232.603 21.2C231.496 21.2 230.663 20.8867 230.103 20.26C229.543 19.62 229.263 18.6867 229.263 17.46V8C229.263 7.58667 229.37 7.27333 229.583 7.06C229.796 6.84667 230.103 6.74 230.503 6.74C230.903 6.74 231.21 6.84667 231.423 7.06C231.65 7.27333 231.763 7.58667 231.763 8V17.34C231.763 17.9533 231.89 18.4067 232.143 18.7C232.41 18.9933 232.783 19.14 233.263 19.14C233.37 19.14 233.47 19.14 233.563 19.14C233.656 19.1267 233.75 19.1133 233.843 19.1C234.03 19.0733 234.156 19.1267 234.223 19.26C234.29 19.38 234.323 19.6333 234.323 20.02C234.323 20.3533 234.256 20.6133 234.123 20.8C233.99 20.9867 233.77 21.1 233.463 21.14C233.33 21.1533 233.19 21.1667 233.043 21.18C232.896 21.1933 232.75 21.2 232.603 21.2ZM240.372 21.2C239.265 21.2 238.312 20.9933 237.512 20.58C236.712 20.1667 236.092 19.58 235.652 18.82C235.225 18.06 235.012 17.16 235.012 16.12C235.012 15.1067 235.219 14.22 235.632 13.46C236.059 12.7 236.639 12.1067 237.372 11.68C238.119 11.24 238.965 11.02 239.912 11.02C240.605 11.02 241.225 11.1333 241.772 11.36C242.332 11.5867 242.805 11.9133 243.192 12.34C243.592 12.7667 243.892 13.2867 244.092 13.9C244.305 14.5 244.412 15.18 244.412 15.94C244.412 16.18 244.325 16.3667 244.152 16.5C243.992 16.62 243.759 16.68 243.452 16.68H237.032V15.24H242.652L242.332 15.54C242.332 14.9267 242.239 14.4133 242.052 14C241.879 13.5867 241.619 13.2733 241.272 13.06C240.939 12.8333 240.519 12.72 240.012 12.72C239.452 12.72 238.972 12.8533 238.572 13.12C238.185 13.3733 237.885 13.74 237.672 14.22C237.472 14.6867 237.372 15.2467 237.372 15.9V16.04C237.372 17.1333 237.625 17.9533 238.132 18.5C238.652 19.0333 239.412 19.3 240.412 19.3C240.759 19.3 241.145 19.26 241.572 19.18C242.012 19.0867 242.425 18.9333 242.812 18.72C243.092 18.56 243.339 18.4933 243.552 18.52C243.765 18.5333 243.932 18.6067 244.052 18.74C244.185 18.8733 244.265 19.04 244.292 19.24C244.319 19.4267 244.279 19.62 244.172 19.82C244.079 20.02 243.912 20.1933 243.672 20.34C243.205 20.6333 242.665 20.8533 242.052 21C241.452 21.1333 240.892 21.2 240.372 21.2ZM250.952 24.8C250.232 24.8 249.532 24.7333 248.852 24.6C248.185 24.4667 247.578 24.26 247.032 23.98C246.778 23.8467 246.605 23.6867 246.512 23.5C246.432 23.3133 246.405 23.12 246.432 22.92C246.472 22.7333 246.552 22.5667 246.672 22.42C246.805 22.2733 246.965 22.1733 247.152 22.12C247.338 22.0667 247.532 22.0933 247.732 22.2C248.318 22.4933 248.872 22.68 249.392 22.76C249.925 22.8533 250.378 22.9 250.752 22.9C251.645 22.9 252.312 22.68 252.752 22.24C253.205 21.8133 253.432 21.1733 253.432 20.32V18.52H253.612C253.412 19.2 252.992 19.7467 252.352 20.16C251.725 20.56 251.012 20.76 250.212 20.76C249.332 20.76 248.565 20.56 247.912 20.16C247.258 19.7467 246.752 19.1733 246.392 18.44C246.032 17.7067 245.852 16.8533 245.852 15.88C245.852 15.1467 245.952 14.4867 246.152 13.9C246.365 13.3 246.658 12.7867 247.032 12.36C247.418 11.9333 247.878 11.6067 248.412 11.38C248.958 11.14 249.558 11.02 250.212 11.02C251.038 11.02 251.758 11.2267 252.372 11.64C252.998 12.04 253.405 12.5733 253.592 13.24L253.392 13.74V12.32C253.392 11.9067 253.498 11.5933 253.712 11.38C253.938 11.1667 254.245 11.06 254.632 11.06C255.032 11.06 255.338 11.1667 255.552 11.38C255.765 11.5933 255.872 11.9067 255.872 12.32V20.02C255.872 21.6067 255.452 22.8 254.612 23.6C253.772 24.4 252.552 24.8 250.952 24.8ZM250.892 18.86C251.412 18.86 251.858 18.74 252.232 18.5C252.605 18.26 252.892 17.92 253.092 17.48C253.305 17.0267 253.412 16.4933 253.412 15.88C253.412 14.96 253.185 14.24 252.732 13.72C252.278 13.1867 251.665 12.92 250.892 12.92C250.372 12.92 249.925 13.04 249.552 13.28C249.178 13.52 248.885 13.86 248.672 14.3C248.472 14.74 248.372 15.2667 248.372 15.88C248.372 16.8 248.598 17.5267 249.052 18.06C249.505 18.5933 250.118 18.86 250.892 18.86ZM262.042 21.2C261.469 21.2 260.862 21.14 260.222 21.02C259.582 20.9 259.009 20.6933 258.502 20.4C258.289 20.2667 258.135 20.1133 258.042 19.94C257.962 19.7533 257.929 19.5733 257.942 19.4C257.969 19.2133 258.035 19.0533 258.142 18.92C258.262 18.7867 258.409 18.7 258.582 18.66C258.769 18.62 258.969 18.6533 259.182 18.76C259.715 19.0133 260.215 19.1933 260.682 19.3C261.149 19.3933 261.609 19.44 262.062 19.44C262.702 19.44 263.175 19.3333 263.482 19.12C263.802 18.8933 263.962 18.6 263.962 18.24C263.962 17.9333 263.855 17.7 263.642 17.54C263.442 17.3667 263.135 17.24 262.722 17.16L260.722 16.78C259.895 16.62 259.262 16.32 258.822 15.88C258.395 15.4267 258.182 14.8467 258.182 14.14C258.182 13.5 258.355 12.9467 258.702 12.48C259.062 12.0133 259.555 11.6533 260.182 11.4C260.809 11.1467 261.529 11.02 262.342 11.02C262.929 11.02 263.475 11.0867 263.982 11.22C264.502 11.34 265.002 11.5333 265.482 11.8C265.682 11.9067 265.815 12.0467 265.882 12.22C265.962 12.3933 265.982 12.5733 265.942 12.76C265.902 12.9333 265.822 13.0933 265.702 13.24C265.582 13.3733 265.429 13.46 265.242 13.5C265.069 13.5267 264.869 13.4867 264.642 13.38C264.229 13.1667 263.829 13.0133 263.442 12.92C263.069 12.8267 262.709 12.78 262.362 12.78C261.709 12.78 261.222 12.8933 260.902 13.12C260.595 13.3467 260.442 13.6467 260.442 14.02C260.442 14.3 260.535 14.5333 260.722 14.72C260.909 14.9067 261.195 15.0333 261.582 15.1L263.582 15.48C264.449 15.64 265.102 15.9333 265.542 16.36C265.995 16.7867 266.222 17.36 266.222 18.08C266.222 19.0533 265.842 19.82 265.082 20.38C264.322 20.9267 263.309 21.2 262.042 21.2Z" fill="#444444"/>
<rect x="275" width="21" height="28" rx="5" fill="#F0A000"/>
<path d="M284.551 21.2C283.845 21.2 283.211 21.0667 282.651 20.8C282.105 20.52 281.671 20.1467 281.351 19.68C281.045 19.2133 280.891 18.6867 280.891 18.1C280.891 17.38 281.078 16.8133 281.451 16.4C281.825 15.9733 282.431 15.6667 283.271 15.48C284.111 15.2933 285.238 15.2 286.651 15.2H287.651V16.64H286.671C285.845 16.64 285.185 16.68 284.691 16.76C284.198 16.84 283.845 16.98 283.631 17.18C283.431 17.3667 283.331 17.6333 283.331 17.98C283.331 18.42 283.485 18.78 283.791 19.06C284.098 19.34 284.525 19.48 285.071 19.48C285.511 19.48 285.898 19.38 286.231 19.18C286.578 18.9667 286.851 18.68 287.051 18.32C287.251 17.96 287.351 17.5467 287.351 17.08V14.78C287.351 14.1133 287.205 13.6333 286.911 13.34C286.618 13.0467 286.125 12.9 285.431 12.9C285.045 12.9 284.625 12.9467 284.171 13.04C283.731 13.1333 283.265 13.2933 282.771 13.52C282.518 13.64 282.291 13.6733 282.091 13.62C281.905 13.5667 281.758 13.46 281.651 13.3C281.545 13.1267 281.491 12.94 281.491 12.74C281.491 12.54 281.545 12.3467 281.651 12.16C281.758 11.96 281.938 11.8133 282.191 11.72C282.805 11.4667 283.391 11.2867 283.951 11.18C284.525 11.0733 285.045 11.02 285.511 11.02C286.471 11.02 287.258 11.1667 287.871 11.46C288.498 11.7533 288.965 12.2 289.271 12.8C289.578 13.3867 289.731 14.1467 289.731 15.08V19.88C289.731 20.2933 289.631 20.6133 289.431 20.84C289.231 21.0533 288.945 21.16 288.571 21.16C288.198 21.16 287.905 21.0533 287.691 20.84C287.491 20.6133 287.391 20.2933 287.391 19.88V18.92H287.551C287.458 19.3867 287.271 19.7933 286.991 20.14C286.725 20.4733 286.385 20.7333 285.971 20.92C285.558 21.1067 285.085 21.2 284.551 21.2Z" fill="#FFF6DB"/>
<path d="M306.84 23.14C306.666 23.3533 306.48 23.4733 306.28 23.5C306.093 23.54 305.926 23.5067 305.78 23.4C305.633 23.2933 305.553 23.14 305.54 22.94C305.526 22.7533 305.613 22.5467 305.8 22.32C306.066 21.9867 306.246 21.6533 306.34 21.32C306.433 20.9867 306.48 20.6867 306.48 20.42L306.58 21.1C306.113 21.1 305.733 20.9667 305.44 20.7C305.16 20.42 305.02 20.0533 305.02 19.6C305.02 19.1733 305.153 18.8267 305.42 18.56C305.686 18.28 306.046 18.14 306.5 18.14C306.966 18.14 307.333 18.3 307.6 18.62C307.866 18.9267 308 19.3733 308 19.96C308 20.28 307.966 20.6133 307.9 20.96C307.846 21.2933 307.733 21.64 307.56 22C307.4 22.3733 307.16 22.7533 306.84 23.14Z" fill="#444444"/>
<rect x="317" width="22" height="28" rx="5" fill="#2AD3F5"/>
<path d="M328.944 21.2C328.117 21.2 327.391 20.9933 326.764 20.58C326.151 20.1667 325.744 19.6133 325.544 18.92L325.764 18.42V19.88C325.764 20.2933 325.657 20.6133 325.444 20.84C325.231 21.0533 324.931 21.16 324.544 21.16C324.144 21.16 323.837 21.0533 323.624 20.84C323.411 20.6133 323.304 20.2933 323.304 19.88V8C323.304 7.58667 323.411 7.27333 323.624 7.06C323.837 6.84667 324.144 6.74 324.544 6.74C324.944 6.74 325.251 6.84667 325.464 7.06C325.691 7.27333 325.804 7.58667 325.804 8V13.2H325.564C325.777 12.5467 326.191 12.02 326.804 11.62C327.417 11.22 328.131 11.02 328.944 11.02C329.811 11.02 330.564 11.2267 331.204 11.64C331.844 12.0533 332.344 12.64 332.704 13.4C333.064 14.1467 333.244 15.0467 333.244 16.1C333.244 17.14 333.064 18.0467 332.704 18.82C332.344 19.58 331.837 20.1667 331.184 20.58C330.544 20.9933 329.797 21.2 328.944 21.2ZM328.244 19.3C328.737 19.3 329.171 19.18 329.544 18.94C329.917 18.7 330.204 18.3467 330.404 17.88C330.617 17.4 330.724 16.8067 330.724 16.1C330.724 15.0333 330.497 14.24 330.044 13.72C329.591 13.1867 328.991 12.92 328.244 12.92C327.751 12.92 327.317 13.04 326.944 13.28C326.571 13.5067 326.277 13.86 326.064 14.34C325.864 14.8067 325.764 15.3933 325.764 16.1C325.764 17.1533 325.991 17.9533 326.444 18.5C326.897 19.0333 327.497 19.3 328.244 19.3Z" fill="#E7FBFF"/>
<path d="M351.565 21.2C350.858 21.2 350.225 21.0667 349.665 20.8C349.118 20.52 348.685 20.1467 348.365 19.68C348.058 19.2133 347.905 18.6867 347.905 18.1C347.905 17.38 348.092 16.8133 348.465 16.4C348.838 15.9733 349.445 15.6667 350.285 15.48C351.125 15.2933 352.252 15.2 353.665 15.2H354.665V16.64H353.685C352.858 16.64 352.198 16.68 351.705 16.76C351.212 16.84 350.858 16.98 350.645 17.18C350.445 17.3667 350.345 17.6333 350.345 17.98C350.345 18.42 350.498 18.78 350.805 19.06C351.112 19.34 351.538 19.48 352.085 19.48C352.525 19.48 352.912 19.38 353.245 19.18C353.592 18.9667 353.865 18.68 354.065 18.32C354.265 17.96 354.365 17.5467 354.365 17.08V14.78C354.365 14.1133 354.218 13.6333 353.925 13.34C353.632 13.0467 353.138 12.9 352.445 12.9C352.058 12.9 351.638 12.9467 351.185 13.04C350.745 13.1333 350.278 13.2933 349.785 13.52C349.532 13.64 349.305 13.6733 349.105 13.62C348.918 13.5667 348.772 13.46 348.665 13.3C348.558 13.1267 348.505 12.94 348.505 12.74C348.505 12.54 348.558 12.3467 348.665 12.16C348.772 11.96 348.952 11.8133 349.205 11.72C349.818 11.4667 350.405 11.2867 350.965 11.18C351.538 11.0733 352.058 11.02 352.525 11.02C353.485 11.02 354.272 11.1667 354.885 11.46C355.512 11.7533 355.978 12.2 356.285 12.8C356.592 13.3867 356.745 14.1467 356.745 15.08V19.88C356.745 20.2933 356.645 20.6133 356.445 20.84C356.245 21.0533 355.958 21.16 355.585 21.16C355.212 21.16 354.918 21.0533 354.705 20.84C354.505 20.6133 354.405 20.2933 354.405 19.88V18.92H354.565C354.472 19.3867 354.285 19.7933 354.005 20.14C353.738 20.4733 353.398 20.7333 352.985 20.92C352.572 21.1067 352.098 21.2 351.565 21.2ZM360.522 21.16C360.122 21.16 359.816 21.0533 359.602 20.84C359.389 20.6133 359.282 20.2933 359.282 19.88V12.32C359.282 11.9067 359.389 11.5933 359.602 11.38C359.816 11.1667 360.116 11.06 360.502 11.06C360.889 11.06 361.189 11.1667 361.402 11.38C361.616 11.5933 361.722 11.9067 361.722 12.32V13.68L361.502 13.18C361.796 12.4733 362.249 11.94 362.862 11.58C363.489 11.2067 364.196 11.02 364.982 11.02C365.769 11.02 366.416 11.1667 366.922 11.46C367.429 11.7533 367.809 12.2 368.062 12.8C368.316 13.3867 368.442 14.1333 368.442 15.04V19.88C368.442 20.2933 368.336 20.6133 368.122 20.84C367.909 21.0533 367.602 21.16 367.202 21.16C366.802 21.16 366.489 21.0533 366.262 20.84C366.049 20.6133 365.942 20.2933 365.942 19.88V15.16C365.942 14.4 365.796 13.8467 365.502 13.5C365.222 13.1533 364.782 12.98 364.182 12.98C363.449 12.98 362.862 13.2133 362.422 13.68C361.996 14.1333 361.782 14.74 361.782 15.5V19.88C361.782 20.7333 361.362 21.16 360.522 21.16ZM374.742 21.2C373.888 21.2 373.135 20.9933 372.482 20.58C371.842 20.1667 371.342 19.58 370.982 18.82C370.622 18.0467 370.442 17.14 370.442 16.1C370.442 15.0467 370.622 14.1467 370.982 13.4C371.342 12.64 371.842 12.0533 372.482 11.64C373.135 11.2267 373.888 11.02 374.742 11.02C375.555 11.02 376.262 11.22 376.862 11.62C377.475 12.02 377.888 12.5467 378.102 13.2H377.882V8C377.882 7.58667 377.988 7.27333 378.202 7.06C378.415 6.84667 378.722 6.74 379.122 6.74C379.522 6.74 379.828 6.84667 380.042 7.06C380.268 7.27333 380.382 7.58667 380.382 8V19.88C380.382 20.2933 380.275 20.6133 380.062 20.84C379.848 21.0533 379.542 21.16 379.142 21.16C378.742 21.16 378.435 21.0533 378.222 20.84C378.008 20.6133 377.902 20.2933 377.902 19.88V18.32L378.122 18.92C377.922 19.6133 377.515 20.1667 376.902 20.58C376.288 20.9933 375.568 21.2 374.742 21.2ZM375.442 19.3C375.935 19.3 376.368 19.18 376.742 18.94C377.115 18.7 377.402 18.3467 377.602 17.88C377.815 17.4 377.922 16.8067 377.922 16.1C377.922 15.0333 377.695 14.24 377.242 13.72C376.788 13.1867 376.188 12.92 375.442 12.92C374.948 12.92 374.515 13.04 374.142 13.28C373.768 13.5067 373.475 13.86 373.262 14.34C373.062 14.8067 372.962 15.3933 372.962 16.1C372.962 17.1533 373.188 17.9533 373.642 18.5C374.095 19.0333 374.695 19.3 375.442 19.3ZM389.644 21.16C389.244 21.16 388.937 21.0533 388.724 20.84C388.51 20.6133 388.404 20.2933 388.404 19.88V8C388.404 7.58667 388.51 7.27333 388.724 7.06C388.937 6.84667 389.244 6.74 389.644 6.74C390.044 6.74 390.35 6.84667 390.564 7.06C390.79 7.27333 390.904 7.58667 390.904 8V13.18H390.624C390.917 12.4733 391.37 11.94 391.984 11.58C392.61 11.2067 393.317 11.02 394.104 11.02C394.89 11.02 395.537 11.1667 396.044 11.46C396.55 11.7533 396.93 12.2 397.184 12.8C397.437 13.3867 397.564 14.1333 397.564 15.04V19.88C397.564 20.2933 397.457 20.6133 397.244 20.84C397.03 21.0533 396.724 21.16 396.324 21.16C395.924 21.16 395.61 21.0533 395.384 20.84C395.17 20.6133 395.064 20.2933 395.064 19.88V15.16C395.064 14.4 394.917 13.8467 394.624 13.5C394.344 13.1533 393.904 12.98 393.304 12.98C392.57 12.98 391.984 13.2133 391.544 13.68C391.117 14.1333 390.904 14.74 390.904 15.5V19.88C390.904 20.7333 390.484 21.16 389.644 21.16ZM402.485 24.76C402.192 24.76 401.952 24.68 401.765 24.52C401.578 24.3733 401.465 24.1733 401.425 23.92C401.398 23.6667 401.445 23.4 401.565 23.12L402.925 20.1V21.14L399.285 12.72C399.165 12.4267 399.125 12.1533 399.165 11.9C399.205 11.6467 399.325 11.4467 399.525 11.3C399.738 11.14 400.025 11.06 400.385 11.06C400.692 11.06 400.938 11.1333 401.125 11.28C401.312 11.4133 401.478 11.6733 401.625 12.06L404.325 18.8H403.725L406.485 12.04C406.632 11.6667 406.805 11.4133 407.005 11.28C407.205 11.1333 407.472 11.06 407.805 11.06C408.098 11.06 408.332 11.14 408.505 11.3C408.678 11.4467 408.785 11.6467 408.825 11.9C408.865 12.14 408.818 12.4067 408.685 12.7L403.825 23.8C403.652 24.1733 403.465 24.4267 403.265 24.56C403.065 24.6933 402.805 24.76 402.485 24.76ZM411.772 24.76C411.372 24.76 411.066 24.6533 410.852 24.44C410.639 24.2267 410.532 23.9133 410.532 23.5V12.32C410.532 11.9067 410.639 11.5933 410.852 11.38C411.066 11.1667 411.366 11.06 411.752 11.06C412.152 11.06 412.459 11.1667 412.672 11.38C412.886 11.5933 412.992 11.9067 412.992 12.32V13.88L412.772 13.28C412.972 12.6 413.379 12.0533 413.992 11.64C414.619 11.2267 415.346 11.02 416.172 11.02C417.026 11.02 417.772 11.2267 418.412 11.64C419.066 12.0533 419.572 12.64 419.932 13.4C420.292 14.1467 420.472 15.0467 420.472 16.1C420.472 17.14 420.292 18.0467 419.932 18.82C419.572 19.58 419.072 20.1667 418.432 20.58C417.792 20.9933 417.039 21.2 416.172 21.2C415.359 21.2 414.646 21 414.032 20.6C413.419 20.1867 413.006 19.6533 412.792 19H413.032V23.5C413.032 23.9133 412.919 24.2267 412.692 24.44C412.479 24.6533 412.172 24.76 411.772 24.76ZM415.472 19.3C415.966 19.3 416.399 19.18 416.772 18.94C417.146 18.7 417.432 18.3467 417.632 17.88C417.846 17.4 417.952 16.8067 417.952 16.1C417.952 15.0333 417.726 14.24 417.272 13.72C416.819 13.1867 416.219 12.92 415.472 12.92C414.979 12.92 414.546 13.04 414.172 13.28C413.799 13.5067 413.506 13.86 413.292 14.34C413.092 14.8067 412.992 15.3933 412.992 16.1C412.992 17.1533 413.219 17.9533 413.672 18.5C414.126 19.0333 414.726 19.3 415.472 19.3ZM426.985 21.2C425.971 21.2 425.091 20.9933 424.345 20.58C423.598 20.1667 423.018 19.58 422.605 18.82C422.191 18.0467 421.985 17.14 421.985 16.1C421.985 15.3133 422.098 14.6133 422.325 14C422.565 13.3733 422.905 12.84 423.345 12.4C423.785 11.9467 424.311 11.6067 424.925 11.38C425.538 11.14 426.225 11.02 426.985 11.02C427.998 11.02 428.878 11.2267 429.625 11.64C430.371 12.0533 430.951 12.64 431.365 13.4C431.778 14.16 431.985 15.06 431.985 16.1C431.985 16.8867 431.865 17.5933 431.625 18.22C431.398 18.8467 431.065 19.3867 430.625 19.84C430.185 20.28 429.658 20.62 429.045 20.86C428.431 21.0867 427.745 21.2 426.985 21.2ZM426.985 19.3C427.478 19.3 427.911 19.18 428.285 18.94C428.658 18.7 428.945 18.3467 429.145 17.88C429.358 17.4 429.465 16.8067 429.465 16.1C429.465 15.0333 429.238 14.24 428.785 13.72C428.331 13.1867 427.731 12.92 426.985 12.92C426.491 12.92 426.058 13.04 425.685 13.28C425.311 13.5067 425.018 13.86 424.805 14.34C424.605 14.8067 424.505 15.3933 424.505 16.1C424.505 17.1533 424.731 17.9533 425.185 18.5C425.638 19.0333 426.238 19.3 426.985 19.3ZM438.43 21.2C437.564 21.2 436.837 21.0533 436.25 20.76C435.677 20.4667 435.25 20.04 434.97 19.48C434.69 18.9067 434.55 18.2 434.55 17.36V13.1H433.51C433.19 13.1 432.944 13.02 432.77 12.86C432.597 12.6867 432.51 12.4533 432.51 12.16C432.51 11.8533 432.597 11.62 432.77 11.46C432.944 11.3 433.19 11.22 433.51 11.22H434.55V9.4C434.55 8.98667 434.657 8.67333 434.87 8.46C435.097 8.24667 435.41 8.14 435.81 8.14C436.21 8.14 436.517 8.24667 436.73 8.46C436.944 8.67333 437.05 8.98667 437.05 9.4V11.22H439.17C439.49 11.22 439.737 11.3 439.91 11.46C440.084 11.62 440.17 11.8533 440.17 12.16C440.17 12.4533 440.084 12.6867 439.91 12.86C439.737 13.02 439.49 13.1 439.17 13.1H437.05V17.22C437.05 17.86 437.19 18.34 437.47 18.66C437.75 18.98 438.204 19.14 438.83 19.14C439.057 19.14 439.257 19.12 439.43 19.08C439.604 19.04 439.757 19.0133 439.89 19C440.05 18.9867 440.184 19.04 440.29 19.16C440.397 19.2667 440.45 19.4933 440.45 19.84C440.45 20.1067 440.404 20.3467 440.31 20.56C440.23 20.76 440.077 20.9 439.85 20.98C439.677 21.0333 439.45 21.08 439.17 21.12C438.89 21.1733 438.644 21.2 438.43 21.2ZM446.349 21.2C445.242 21.2 444.289 20.9933 443.489 20.58C442.689 20.1667 442.069 19.58 441.629 18.82C441.202 18.06 440.989 17.16 440.989 16.12C440.989 15.1067 441.195 14.22 441.609 13.46C442.035 12.7 442.615 12.1067 443.349 11.68C444.095 11.24 444.942 11.02 445.889 11.02C446.582 11.02 447.202 11.1333 447.749 11.36C448.309 11.5867 448.782 11.9133 449.169 12.34C449.569 12.7667 449.869 13.2867 450.069 13.9C450.282 14.5 450.389 15.18 450.389 15.94C450.389 16.18 450.302 16.3667 450.129 16.5C449.969 16.62 449.735 16.68 449.429 16.68H443.009V15.24H448.629L448.309 15.54C448.309 14.9267 448.215 14.4133 448.029 14C447.855 13.5867 447.595 13.2733 447.249 13.06C446.915 12.8333 446.495 12.72 445.989 12.72C445.429 12.72 444.949 12.8533 444.549 13.12C444.162 13.3733 443.862 13.74 443.649 14.22C443.449 14.6867 443.349 15.2467 443.349 15.9V16.04C443.349 17.1333 443.602 17.9533 444.109 18.5C444.629 19.0333 445.389 19.3 446.389 19.3C446.735 19.3 447.122 19.26 447.549 19.18C447.989 19.0867 448.402 18.9333 448.789 18.72C449.069 18.56 449.315 18.4933 449.529 18.52C449.742 18.5333 449.909 18.6067 450.029 18.74C450.162 18.8733 450.242 19.04 450.269 19.24C450.295 19.4267 450.255 19.62 450.149 19.82C450.055 20.02 449.889 20.1933 449.649 20.34C449.182 20.6333 448.642 20.8533 448.029 21C447.429 21.1333 446.869 21.2 446.349 21.2ZM453.608 21.16C453.208 21.16 452.902 21.0533 452.688 20.84C452.475 20.6133 452.368 20.2933 452.368 19.88V12.32C452.368 11.9067 452.475 11.5933 452.688 11.38C452.902 11.1667 453.202 11.06 453.588 11.06C453.975 11.06 454.275 11.1667 454.488 11.38C454.702 11.5933 454.808 11.9067 454.808 12.32V13.68L454.588 13.18C454.882 12.4733 455.335 11.94 455.948 11.58C456.575 11.2067 457.282 11.02 458.068 11.02C458.855 11.02 459.502 11.1667 460.008 11.46C460.515 11.7533 460.895 12.2 461.148 12.8C461.402 13.3867 461.528 14.1333 461.528 15.04V19.88C461.528 20.2933 461.422 20.6133 461.208 20.84C460.995 21.0533 460.688 21.16 460.288 21.16C459.888 21.16 459.575 21.0533 459.348 20.84C459.135 20.6133 459.028 20.2933 459.028 19.88V15.16C459.028 14.4 458.882 13.8467 458.588 13.5C458.308 13.1533 457.868 12.98 457.268 12.98C456.535 12.98 455.948 13.2133 455.508 13.68C455.082 14.1333 454.868 14.74 454.868 15.5V19.88C454.868 20.7333 454.448 21.16 453.608 21.16ZM467.608 21.2C466.794 21.2 466.121 21.0533 465.588 20.76C465.054 20.4533 464.654 20 464.388 19.4C464.134 18.8 464.008 18.0533 464.008 17.16V12.32C464.008 11.8933 464.114 11.58 464.328 11.38C464.541 11.1667 464.848 11.06 465.248 11.06C465.648 11.06 465.954 11.1667 466.168 11.38C466.394 11.58 466.508 11.8933 466.508 12.32V17.2C466.508 17.8933 466.648 18.4067 466.928 18.74C467.208 19.0733 467.654 19.24 468.268 19.24C468.934 19.24 469.481 19.0133 469.908 18.56C470.334 18.0933 470.548 17.48 470.548 16.72V12.32C470.548 11.8933 470.654 11.58 470.868 11.38C471.081 11.1667 471.388 11.06 471.788 11.06C472.188 11.06 472.494 11.1667 472.708 11.38C472.934 11.58 473.048 11.8933 473.048 12.32V19.88C473.048 20.7333 472.641 21.16 471.828 21.16C471.441 21.16 471.141 21.0533 470.928 20.84C470.714 20.6133 470.608 20.2933 470.608 19.88V18.36L470.888 18.96C470.608 19.68 470.181 20.2333 469.608 20.62C469.048 21.0067 468.381 21.2 467.608 21.2ZM479.23 21.2C478.656 21.2 478.05 21.14 477.41 21.02C476.77 20.9 476.196 20.6933 475.69 20.4C475.476 20.2667 475.323 20.1133 475.23 19.94C475.15 19.7533 475.116 19.5733 475.13 19.4C475.156 19.2133 475.223 19.0533 475.33 18.92C475.45 18.7867 475.596 18.7 475.77 18.66C475.956 18.62 476.156 18.6533 476.37 18.76C476.903 19.0133 477.403 19.1933 477.87 19.3C478.336 19.3933 478.796 19.44 479.25 19.44C479.89 19.44 480.363 19.3333 480.67 19.12C480.99 18.8933 481.15 18.6 481.15 18.24C481.15 17.9333 481.043 17.7 480.83 17.54C480.63 17.3667 480.323 17.24 479.91 17.16L477.91 16.78C477.083 16.62 476.45 16.32 476.01 15.88C475.583 15.4267 475.37 14.8467 475.37 14.14C475.37 13.5 475.543 12.9467 475.89 12.48C476.25 12.0133 476.743 11.6533 477.37 11.4C477.996 11.1467 478.716 11.02 479.53 11.02C480.116 11.02 480.663 11.0867 481.17 11.22C481.69 11.34 482.19 11.5333 482.67 11.8C482.87 11.9067 483.003 12.0467 483.07 12.22C483.15 12.3933 483.17 12.5733 483.13 12.76C483.09 12.9333 483.01 13.0933 482.89 13.24C482.77 13.3733 482.616 13.46 482.43 13.5C482.256 13.5267 482.056 13.4867 481.83 13.38C481.416 13.1667 481.016 13.0133 480.63 12.92C480.256 12.8267 479.896 12.78 479.55 12.78C478.896 12.78 478.41 12.8933 478.09 13.12C477.783 13.3467 477.63 13.6467 477.63 14.02C477.63 14.3 477.723 14.5333 477.91 14.72C478.096 14.9067 478.383 15.0333 478.77 15.1L480.77 15.48C481.636 15.64 482.29 15.9333 482.73 16.36C483.183 16.7867 483.41 17.36 483.41 18.08C483.41 19.0533 483.03 19.82 482.27 20.38C481.51 20.9267 480.496 21.2 479.23 21.2ZM490.235 21.2C489.129 21.2 488.175 20.9933 487.375 20.58C486.575 20.1667 485.955 19.58 485.515 18.82C485.089 18.06 484.875 17.16 484.875 16.12C484.875 15.1067 485.082 14.22 485.495 13.46C485.922 12.7 486.502 12.1067 487.235 11.68C487.982 11.24 488.829 11.02 489.775 11.02C490.469 11.02 491.089 11.1333 491.635 11.36C492.195 11.5867 492.669 11.9133 493.055 12.34C493.455 12.7667 493.755 13.2867 493.955 13.9C494.169 14.5 494.275 15.18 494.275 15.94C494.275 16.18 494.189 16.3667 494.015 16.5C493.855 16.62 493.622 16.68 493.315 16.68H486.895V15.24H492.515L492.195 15.54C492.195 14.9267 492.102 14.4133 491.915 14C491.742 13.5867 491.482 13.2733 491.135 13.06C490.802 12.8333 490.382 12.72 489.875 12.72C489.315 12.72 488.835 12.8533 488.435 13.12C488.049 13.3733 487.749 13.74 487.535 14.22C487.335 14.6867 487.235 15.2467 487.235 15.9V16.04C487.235 17.1333 487.489 17.9533 487.995 18.5C488.515 19.0333 489.275 19.3 490.275 19.3C490.622 19.3 491.009 19.26 491.435 19.18C491.875 19.0867 492.289 18.9333 492.675 18.72C492.955 18.56 493.202 18.4933 493.415 18.52C493.629 18.5333 493.795 18.6067 493.915 18.74C494.049 18.8733 494.129 19.04 494.155 19.24C494.182 19.4267 494.142 19.62 494.035 19.82C493.942 20.02 493.775 20.1933 493.535 20.34C493.069 20.6333 492.529 20.8533 491.915 21C491.315 21.1333 490.755 21.2 490.235 21.2Z" fill="#444444"/>
<rect x="503" width="20" height="28" rx="5" fill="#C882FA"/>
<path d="M514.103 21.2C513.077 21.2 512.183 20.9933 511.423 20.58C510.663 20.1533 510.077 19.5533 509.663 18.78C509.25 18.0067 509.043 17.1 509.043 16.06C509.043 15.2733 509.157 14.5733 509.383 13.96C509.623 13.3333 509.963 12.8067 510.403 12.38C510.843 11.94 511.377 11.6067 512.003 11.38C512.63 11.14 513.33 11.02 514.103 11.02C514.543 11.02 515.017 11.08 515.523 11.2C516.043 11.32 516.53 11.52 516.983 11.8C517.197 11.9333 517.337 12.0933 517.403 12.28C517.47 12.4667 517.483 12.66 517.443 12.86C517.403 13.0467 517.317 13.2133 517.183 13.36C517.063 13.4933 516.91 13.58 516.723 13.62C516.537 13.6467 516.33 13.6 516.103 13.48C515.81 13.3067 515.51 13.18 515.203 13.1C514.897 13.0067 514.603 12.96 514.323 12.96C513.883 12.96 513.497 13.0333 513.163 13.18C512.83 13.3133 512.543 13.5133 512.303 13.78C512.077 14.0333 511.903 14.3533 511.783 14.74C511.663 15.1267 511.603 15.5733 511.603 16.08C511.603 17.0667 511.837 17.8467 512.303 18.42C512.783 18.98 513.457 19.26 514.323 19.26C514.603 19.26 514.89 19.22 515.183 19.14C515.49 19.06 515.797 18.9333 516.103 18.76C516.33 18.64 516.53 18.6 516.703 18.64C516.89 18.68 517.043 18.7733 517.163 18.92C517.283 19.0533 517.357 19.22 517.383 19.42C517.41 19.6067 517.383 19.7933 517.303 19.98C517.237 20.1667 517.103 20.32 516.903 20.44C516.463 20.7067 515.997 20.9 515.503 21.02C515.01 21.14 514.543 21.2 514.103 21.2Z" fill="#FAF2FF"/>
<path d="M533.52 21.1C533.066 21.1 532.7 20.96 532.42 20.68C532.153 20.4 532.02 20.04 532.02 19.6C532.02 19.1733 532.153 18.8267 532.42 18.56C532.7 18.28 533.066 18.14 533.52 18.14C533.986 18.14 534.346 18.28 534.6 18.56C534.866 18.8267 535 19.1733 535 19.6C535 20.04 534.866 20.4 534.6 20.68C534.346 20.96 533.986 21.1 533.52 21.1Z" fill="#444444"/>
</svg>
