<svg width="527" height="62" viewBox="0 0 527 62" fill="none" xmlns="http://www.w3.org/2000/svg">
<path d="M1.92055 21.16C1.50721 21.16 1.18055 21.0467 0.940547 20.82C0.71388 20.58 0.600547 20.24 0.600547 19.8V8.26C0.600547 7.82 0.71388 7.48667 0.940547 7.26C1.18055 7.02 1.52055 6.9 1.96055 6.9H8.94055C9.28721 6.9 9.54721 6.98667 9.72055 7.16C9.89388 7.33333 9.98055 7.58 9.98055 7.9C9.98055 8.23333 9.89388 8.49333 9.72055 8.68C9.54721 8.85333 9.28721 8.94 8.94055 8.94H3.16055V12.92H8.52055C8.85388 12.92 9.10721 13.0067 9.28055 13.18C9.46721 13.3533 9.56055 13.6 9.56055 13.92C9.56055 14.2533 9.46721 14.5133 9.28055 14.7C9.10721 14.8733 8.85388 14.96 8.52055 14.96H3.16055V19.8C3.16055 20.7067 2.74721 21.16 1.92055 21.16ZM15.6995 21.2C14.6861 21.2 13.8061 20.9933 13.0595 20.58C12.3128 20.1667 11.7328 19.58 11.3195 18.82C10.9061 18.0467 10.6995 17.14 10.6995 16.1C10.6995 15.3133 10.8128 14.6133 11.0395 14C11.2795 13.3733 11.6195 12.84 12.0595 12.4C12.4995 11.9467 13.0261 11.6067 13.6395 11.38C14.2528 11.14 14.9395 11.02 15.6995 11.02C16.7128 11.02 17.5928 11.2267 18.3395 11.64C19.0861 12.0533 19.6661 12.64 20.0795 13.4C20.4928 14.16 20.6995 15.06 20.6995 16.1C20.6995 16.8867 20.5795 17.5933 20.3395 18.22C20.1128 18.8467 19.7795 19.3867 19.3395 19.84C18.8995 20.28 18.3728 20.62 17.7595 20.86C17.1461 21.0867 16.4595 21.2 15.6995 21.2ZM15.6995 19.3C16.1928 19.3 16.6261 19.18 16.9995 18.94C17.3728 18.7 17.6595 18.3467 17.8595 17.88C18.0728 17.4 18.1795 16.8067 18.1795 16.1C18.1795 15.0333 17.9528 14.24 17.4995 13.72C17.0461 13.1867 16.4461 12.92 15.6995 12.92C15.2061 12.92 14.7728 13.04 14.3995 13.28C14.0261 13.5067 13.7328 13.86 13.5195 14.34C13.3195 14.8067 13.2195 15.3933 13.2195 16.1C13.2195 17.1533 13.4461 17.9533 13.8995 18.5C14.3528 19.0333 14.9528 19.3 15.6995 19.3ZM24.0429 21.16C23.6296 21.16 23.3096 21.0533 23.0829 20.84C22.8696 20.6133 22.7629 20.2933 22.7629 19.88V12.32C22.7629 11.9067 22.8696 11.5933 23.0829 11.38C23.2962 11.1667 23.5962 11.06 23.9829 11.06C24.3696 11.06 24.6696 11.1667 24.8829 11.38C25.0962 11.5933 25.2029 11.9067 25.2029 12.32V13.58H25.0029C25.1896 12.78 25.5562 12.1733 26.1029 11.76C26.6496 11.3467 27.3762 11.1 28.2829 11.02C28.5629 10.9933 28.7829 11.0667 28.9429 11.24C29.1162 11.4 29.2162 11.6533 29.2429 12C29.2696 12.3333 29.1896 12.6067 29.0029 12.82C28.8296 13.02 28.5629 13.14 28.2029 13.18L27.7629 13.22C26.9496 13.3 26.3362 13.5533 25.9229 13.98C25.5096 14.3933 25.3029 14.98 25.3029 15.74V19.88C25.3029 20.2933 25.1962 20.6133 24.9829 20.84C24.7696 21.0533 24.4562 21.16 24.0429 21.16ZM39.2446 21.2C38.5379 21.2 37.9046 21.0667 37.3446 20.8C36.7979 20.52 36.3646 20.1467 36.0446 19.68C35.7379 19.2133 35.5846 18.6867 35.5846 18.1C35.5846 17.38 35.7713 16.8133 36.1446 16.4C36.5179 15.9733 37.1246 15.6667 37.9646 15.48C38.8046 15.2933 39.9313 15.2 41.3446 15.2H42.3446V16.64H41.3646C40.5379 16.64 39.8779 16.68 39.3846 16.76C38.8913 16.84 38.5379 16.98 38.3246 17.18C38.1246 17.3667 38.0246 17.6333 38.0246 17.98C38.0246 18.42 38.1779 18.78 38.4846 19.06C38.7913 19.34 39.2179 19.48 39.7646 19.48C40.2046 19.48 40.5913 19.38 40.9246 19.18C41.2713 18.9667 41.5446 18.68 41.7446 18.32C41.9446 17.96 42.0446 17.5467 42.0446 17.08V14.78C42.0446 14.1133 41.8979 13.6333 41.6046 13.34C41.3113 13.0467 40.8179 12.9 40.1246 12.9C39.7379 12.9 39.3179 12.9467 38.8646 13.04C38.4246 13.1333 37.9579 13.2933 37.4646 13.52C37.2113 13.64 36.9846 13.6733 36.7846 13.62C36.5979 13.5667 36.4513 13.46 36.3446 13.3C36.2379 13.1267 36.1846 12.94 36.1846 12.74C36.1846 12.54 36.2379 12.3467 36.3446 12.16C36.4513 11.96 36.6313 11.8133 36.8846 11.72C37.4979 11.4667 38.0846 11.2867 38.6446 11.18C39.2179 11.0733 39.7379 11.02 40.2046 11.02C41.1646 11.02 41.9513 11.1667 42.5646 11.46C43.1913 11.7533 43.6579 12.2 43.9646 12.8C44.2713 13.3867 44.4246 14.1467 44.4246 15.08V19.88C44.4246 20.2933 44.3246 20.6133 44.1246 20.84C43.9246 21.0533 43.6379 21.16 43.2646 21.16C42.8913 21.16 42.5979 21.0533 42.3846 20.84C42.1846 20.6133 42.0846 20.2933 42.0846 19.88V18.92H42.2446C42.1513 19.3867 41.9646 19.7933 41.6846 20.14C41.4179 20.4733 41.0779 20.7333 40.6646 20.92C40.2513 21.1067 39.7779 21.2 39.2446 21.2ZM53.6718 21.16C53.2585 21.16 52.9385 21.0533 52.7118 20.84C52.4985 20.6133 52.3918 20.2933 52.3918 19.88V12.32C52.3918 11.9067 52.4985 11.5933 52.7118 11.38C52.9251 11.1667 53.2251 11.06 53.6118 11.06C53.9985 11.06 54.2985 11.1667 54.5118 11.38C54.7251 11.5933 54.8318 11.9067 54.8318 12.32V13.58H54.6318C54.8185 12.78 55.1851 12.1733 55.7318 11.76C56.2785 11.3467 57.0051 11.1 57.9118 11.02C58.1918 10.9933 58.4118 11.0667 58.5718 11.24C58.7451 11.4 58.8451 11.6533 58.8718 12C58.8985 12.3333 58.8185 12.6067 58.6318 12.82C58.4585 13.02 58.1918 13.14 57.8318 13.18L57.3918 13.22C56.5785 13.3 55.9651 13.5533 55.5518 13.98C55.1385 14.3933 54.9318 14.98 54.9318 15.74V19.88C54.9318 20.2933 54.8251 20.6133 54.6118 20.84C54.3985 21.0533 54.0851 21.16 53.6718 21.16ZM61.4638 21.14C61.0638 21.14 60.7572 21.02 60.5438 20.78C60.3305 20.54 60.2238 20.2067 60.2238 19.78V12.44C60.2238 12 60.3305 11.6667 60.5438 11.44C60.7572 11.2 61.0638 11.08 61.4638 11.08C61.8638 11.08 62.1705 11.2 62.3838 11.44C62.6105 11.6667 62.7238 12 62.7238 12.44V19.78C62.7238 20.2067 62.6172 20.54 62.4038 20.78C62.1905 21.02 61.8772 21.14 61.4638 21.14ZM61.4638 9.22C60.9972 9.22 60.6305 9.10667 60.3638 8.88C60.1105 8.64 59.9838 8.31333 59.9838 7.9C59.9838 7.47333 60.1105 7.14667 60.3638 6.92C60.6305 6.69333 60.9972 6.58 61.4638 6.58C61.9438 6.58 62.3105 6.69333 62.5638 6.92C62.8172 7.14667 62.9438 7.47333 62.9438 7.9C62.9438 8.31333 62.8172 8.64 62.5638 8.88C62.3105 9.10667 61.9438 9.22 61.4638 9.22ZM69.8815 24.8C69.1615 24.8 68.4615 24.7333 67.7815 24.6C67.1148 24.4667 66.5082 24.26 65.9615 23.98C65.7082 23.8467 65.5348 23.6867 65.4415 23.5C65.3615 23.3133 65.3348 23.12 65.3615 22.92C65.4015 22.7333 65.4815 22.5667 65.6015 22.42C65.7348 22.2733 65.8948 22.1733 66.0815 22.12C66.2682 22.0667 66.4615 22.0933 66.6615 22.2C67.2482 22.4933 67.8015 22.68 68.3215 22.76C68.8548 22.8533 69.3082 22.9 69.6815 22.9C70.5748 22.9 71.2415 22.68 71.6815 22.24C72.1348 21.8133 72.3615 21.1733 72.3615 20.32V18.52H72.5415C72.3415 19.2 71.9215 19.7467 71.2815 20.16C70.6548 20.56 69.9415 20.76 69.1415 20.76C68.2615 20.76 67.4948 20.56 66.8415 20.16C66.1882 19.7467 65.6815 19.1733 65.3215 18.44C64.9615 17.7067 64.7815 16.8533 64.7815 15.88C64.7815 15.1467 64.8815 14.4867 65.0815 13.9C65.2948 13.3 65.5882 12.7867 65.9615 12.36C66.3482 11.9333 66.8082 11.6067 67.3415 11.38C67.8882 11.14 68.4882 11.02 69.1415 11.02C69.9682 11.02 70.6882 11.2267 71.3015 11.64C71.9282 12.04 72.3348 12.5733 72.5215 13.24L72.3215 13.74V12.32C72.3215 11.9067 72.4282 11.5933 72.6415 11.38C72.8682 11.1667 73.1748 11.06 73.5615 11.06C73.9615 11.06 74.2682 11.1667 74.4815 11.38C74.6948 11.5933 74.8015 11.9067 74.8015 12.32V20.02C74.8015 21.6067 74.3815 22.8 73.5415 23.6C72.7015 24.4 71.4815 24.8 69.8815 24.8ZM69.8215 18.86C70.3415 18.86 70.7882 18.74 71.1615 18.5C71.5348 18.26 71.8215 17.92 72.0215 17.48C72.2348 17.0267 72.3415 16.4933 72.3415 15.88C72.3415 14.96 72.1148 14.24 71.6615 13.72C71.2082 13.1867 70.5948 12.92 69.8215 12.92C69.3015 12.92 68.8548 13.04 68.4815 13.28C68.1082 13.52 67.8148 13.86 67.6015 14.3C67.4015 14.74 67.3015 15.2667 67.3015 15.88C67.3015 16.8 67.5282 17.5267 67.9815 18.06C68.4348 18.5933 69.0482 18.86 69.8215 18.86ZM78.6318 21.16C78.2318 21.16 77.9251 21.0533 77.7118 20.84C77.4985 20.6133 77.3918 20.2933 77.3918 19.88V8C77.3918 7.58667 77.4985 7.27333 77.7118 7.06C77.9251 6.84667 78.2318 6.74 78.6318 6.74C79.0318 6.74 79.3385 6.84667 79.5518 7.06C79.7785 7.27333 79.8918 7.58667 79.8918 8V13.18H79.6118C79.9051 12.4733 80.3585 11.94 80.9718 11.58C81.5985 11.2067 82.3051 11.02 83.0918 11.02C83.8785 11.02 84.5251 11.1667 85.0318 11.46C85.5385 11.7533 85.9185 12.2 86.1718 12.8C86.4251 13.3867 86.5518 14.1333 86.5518 15.04V19.88C86.5518 20.2933 86.4451 20.6133 86.2318 20.84C86.0185 21.0533 85.7118 21.16 85.3118 21.16C84.9118 21.16 84.5985 21.0533 84.3718 20.84C84.1585 20.6133 84.0518 20.2933 84.0518 19.88V15.16C84.0518 14.4 83.9051 13.8467 83.6118 13.5C83.3318 13.1533 82.8918 12.98 82.2918 12.98C81.5585 12.98 80.9718 13.2133 80.5318 13.68C80.1051 14.1333 79.8918 14.74 79.8918 15.5V19.88C79.8918 20.7333 79.4718 21.16 78.6318 21.16ZM93.571 21.2C92.7043 21.2 91.9777 21.0533 91.391 20.76C90.8177 20.4667 90.391 20.04 90.111 19.48C89.831 18.9067 89.691 18.2 89.691 17.36V13.1H88.651C88.331 13.1 88.0843 13.02 87.911 12.86C87.7377 12.6867 87.651 12.4533 87.651 12.16C87.651 11.8533 87.7377 11.62 87.911 11.46C88.0843 11.3 88.331 11.22 88.651 11.22H89.691V9.4C89.691 8.98667 89.7977 8.67333 90.011 8.46C90.2377 8.24667 90.551 8.14 90.951 8.14C91.351 8.14 91.6577 8.24667 91.871 8.46C92.0843 8.67333 92.191 8.98667 92.191 9.4V11.22H94.311C94.631 11.22 94.8777 11.3 95.051 11.46C95.2243 11.62 95.311 11.8533 95.311 12.16C95.311 12.4533 95.2243 12.6867 95.051 12.86C94.8777 13.02 94.631 13.1 94.311 13.1H92.191V17.22C92.191 17.86 92.331 18.34 92.611 18.66C92.891 18.98 93.3443 19.14 93.971 19.14C94.1977 19.14 94.3977 19.12 94.571 19.08C94.7443 19.04 94.8977 19.0133 95.031 19C95.191 18.9867 95.3243 19.04 95.431 19.16C95.5377 19.2667 95.591 19.4933 95.591 19.84C95.591 20.1067 95.5443 20.3467 95.451 20.56C95.371 20.76 95.2177 20.9 94.991 20.98C94.8177 21.0333 94.591 21.08 94.311 21.12C94.031 21.1733 93.7843 21.2 93.571 21.2ZM106.676 21.2C105.81 21.2 105.083 21.0533 104.496 20.76C103.923 20.4667 103.496 20.04 103.216 19.48C102.936 18.9067 102.796 18.2 102.796 17.36V13.1H101.756C101.436 13.1 101.19 13.02 101.016 12.86C100.843 12.6867 100.756 12.4533 100.756 12.16C100.756 11.8533 100.843 11.62 101.016 11.46C101.19 11.3 101.436 11.22 101.756 11.22H102.796V9.4C102.796 8.98667 102.903 8.67333 103.116 8.46C103.343 8.24667 103.656 8.14 104.056 8.14C104.456 8.14 104.763 8.24667 104.976 8.46C105.19 8.67333 105.296 8.98667 105.296 9.4V11.22H107.416C107.736 11.22 107.983 11.3 108.156 11.46C108.33 11.62 108.416 11.8533 108.416 12.16C108.416 12.4533 108.33 12.6867 108.156 12.86C107.983 13.02 107.736 13.1 107.416 13.1H105.296V17.22C105.296 17.86 105.436 18.34 105.716 18.66C105.996 18.98 106.45 19.14 107.076 19.14C107.303 19.14 107.503 19.12 107.676 19.08C107.85 19.04 108.003 19.0133 108.136 19C108.296 18.9867 108.43 19.04 108.536 19.16C108.643 19.2667 108.696 19.4933 108.696 19.84C108.696 20.1067 108.65 20.3467 108.556 20.56C108.476 20.76 108.323 20.9 108.096 20.98C107.923 21.0333 107.696 21.08 107.416 21.12C107.136 21.1733 106.89 21.2 106.676 21.2ZM111.152 21.16C110.739 21.16 110.419 21.0533 110.192 20.84C109.979 20.6133 109.872 20.2933 109.872 19.88V12.32C109.872 11.9067 109.979 11.5933 110.192 11.38C110.406 11.1667 110.706 11.06 111.092 11.06C111.479 11.06 111.779 11.1667 111.992 11.38C112.206 11.5933 112.312 11.9067 112.312 12.32V13.58H112.112C112.299 12.78 112.666 12.1733 113.212 11.76C113.759 11.3467 114.486 11.1 115.392 11.02C115.672 10.9933 115.892 11.0667 116.052 11.24C116.226 11.4 116.326 11.6533 116.352 12C116.379 12.3333 116.299 12.6067 116.112 12.82C115.939 13.02 115.672 13.14 115.312 13.18L114.872 13.22C114.059 13.3 113.446 13.5533 113.032 13.98C112.619 14.3933 112.412 14.98 112.412 15.74V19.88C112.412 20.2933 112.306 20.6133 112.092 20.84C111.879 21.0533 111.566 21.16 111.152 21.16ZM118.944 21.14C118.544 21.14 118.238 21.02 118.024 20.78C117.811 20.54 117.704 20.2067 117.704 19.78V12.44C117.704 12 117.811 11.6667 118.024 11.44C118.238 11.2 118.544 11.08 118.944 11.08C119.344 11.08 119.651 11.2 119.864 11.44C120.091 11.6667 120.204 12 120.204 12.44V19.78C120.204 20.2067 120.098 20.54 119.884 20.78C119.671 21.02 119.358 21.14 118.944 21.14ZM118.944 9.22C118.478 9.22 118.111 9.10667 117.844 8.88C117.591 8.64 117.464 8.31333 117.464 7.9C117.464 7.47333 117.591 7.14667 117.844 6.92C118.111 6.69333 118.478 6.58 118.944 6.58C119.424 6.58 119.791 6.69333 120.044 6.92C120.298 7.14667 120.424 7.47333 120.424 7.9C120.424 8.31333 120.298 8.64 120.044 8.88C119.791 9.10667 119.424 9.22 118.944 9.22ZM126.022 21.2C125.315 21.2 124.682 21.0667 124.122 20.8C123.575 20.52 123.142 20.1467 122.822 19.68C122.515 19.2133 122.362 18.6867 122.362 18.1C122.362 17.38 122.549 16.8133 122.922 16.4C123.295 15.9733 123.902 15.6667 124.742 15.48C125.582 15.2933 126.709 15.2 128.122 15.2H129.122V16.64H128.142C127.315 16.64 126.655 16.68 126.162 16.76C125.669 16.84 125.315 16.98 125.102 17.18C124.902 17.3667 124.802 17.6333 124.802 17.98C124.802 18.42 124.955 18.78 125.262 19.06C125.569 19.34 125.995 19.48 126.542 19.48C126.982 19.48 127.369 19.38 127.702 19.18C128.049 18.9667 128.322 18.68 128.522 18.32C128.722 17.96 128.822 17.5467 128.822 17.08V14.78C128.822 14.1133 128.675 13.6333 128.382 13.34C128.089 13.0467 127.595 12.9 126.902 12.9C126.515 12.9 126.095 12.9467 125.642 13.04C125.202 13.1333 124.735 13.2933 124.242 13.52C123.989 13.64 123.762 13.6733 123.562 13.62C123.375 13.5667 123.229 13.46 123.122 13.3C123.015 13.1267 122.962 12.94 122.962 12.74C122.962 12.54 123.015 12.3467 123.122 12.16C123.229 11.96 123.409 11.8133 123.662 11.72C124.275 11.4667 124.862 11.2867 125.422 11.18C125.995 11.0733 126.515 11.02 126.982 11.02C127.942 11.02 128.729 11.1667 129.342 11.46C129.969 11.7533 130.435 12.2 130.742 12.8C131.049 13.3867 131.202 14.1467 131.202 15.08V19.88C131.202 20.2933 131.102 20.6133 130.902 20.84C130.702 21.0533 130.415 21.16 130.042 21.16C129.669 21.16 129.375 21.0533 129.162 20.84C128.962 20.6133 128.862 20.2933 128.862 19.88V18.92H129.022C128.929 19.3867 128.742 19.7933 128.462 20.14C128.195 20.4733 127.855 20.7333 127.442 20.92C127.029 21.1067 126.555 21.2 126.022 21.2ZM134.979 21.16C134.579 21.16 134.273 21.0533 134.059 20.84C133.846 20.6133 133.739 20.2933 133.739 19.88V12.32C133.739 11.9067 133.846 11.5933 134.059 11.38C134.273 11.1667 134.573 11.06 134.959 11.06C135.346 11.06 135.646 11.1667 135.859 11.38C136.073 11.5933 136.179 11.9067 136.179 12.32V13.68L135.959 13.18C136.253 12.4733 136.706 11.94 137.319 11.58C137.946 11.2067 138.653 11.02 139.439 11.02C140.226 11.02 140.873 11.1667 141.379 11.46C141.886 11.7533 142.266 12.2 142.519 12.8C142.773 13.3867 142.899 14.1333 142.899 15.04V19.88C142.899 20.2933 142.793 20.6133 142.579 20.84C142.366 21.0533 142.059 21.16 141.659 21.16C141.259 21.16 140.946 21.0533 140.719 20.84C140.506 20.6133 140.399 20.2933 140.399 19.88V15.16C140.399 14.4 140.253 13.8467 139.959 13.5C139.679 13.1533 139.239 12.98 138.639 12.98C137.906 12.98 137.319 13.2133 136.879 13.68C136.453 14.1333 136.239 14.74 136.239 15.5V19.88C136.239 20.7333 135.819 21.16 134.979 21.16ZM149.999 24.8C149.279 24.8 148.579 24.7333 147.899 24.6C147.232 24.4667 146.625 24.26 146.079 23.98C145.825 23.8467 145.652 23.6867 145.559 23.5C145.479 23.3133 145.452 23.12 145.479 22.92C145.519 22.7333 145.599 22.5667 145.719 22.42C145.852 22.2733 146.012 22.1733 146.199 22.12C146.385 22.0667 146.579 22.0933 146.779 22.2C147.365 22.4933 147.919 22.68 148.439 22.76C148.972 22.8533 149.425 22.9 149.799 22.9C150.692 22.9 151.359 22.68 151.799 22.24C152.252 21.8133 152.479 21.1733 152.479 20.32V18.52H152.659C152.459 19.2 152.039 19.7467 151.399 20.16C150.772 20.56 150.059 20.76 149.259 20.76C148.379 20.76 147.612 20.56 146.959 20.16C146.305 19.7467 145.799 19.1733 145.439 18.44C145.079 17.7067 144.899 16.8533 144.899 15.88C144.899 15.1467 144.999 14.4867 145.199 13.9C145.412 13.3 145.705 12.7867 146.079 12.36C146.465 11.9333 146.925 11.6067 147.459 11.38C148.005 11.14 148.605 11.02 149.259 11.02C150.085 11.02 150.805 11.2267 151.419 11.64C152.045 12.04 152.452 12.5733 152.639 13.24L152.439 13.74V12.32C152.439 11.9067 152.545 11.5933 152.759 11.38C152.985 11.1667 153.292 11.06 153.679 11.06C154.079 11.06 154.385 11.1667 154.599 11.38C154.812 11.5933 154.919 11.9067 154.919 12.32V20.02C154.919 21.6067 154.499 22.8 153.659 23.6C152.819 24.4 151.599 24.8 149.999 24.8ZM149.939 18.86C150.459 18.86 150.905 18.74 151.279 18.5C151.652 18.26 151.939 17.92 152.139 17.48C152.352 17.0267 152.459 16.4933 152.459 15.88C152.459 14.96 152.232 14.24 151.779 13.72C151.325 13.1867 150.712 12.92 149.939 12.92C149.419 12.92 148.972 13.04 148.599 13.28C148.225 13.52 147.932 13.86 147.719 14.3C147.519 14.74 147.419 15.2667 147.419 15.88C147.419 16.8 147.645 17.5267 148.099 18.06C148.552 18.5933 149.165 18.86 149.939 18.86ZM160.849 21.2C159.742 21.2 158.909 20.8867 158.349 20.26C157.789 19.62 157.509 18.6867 157.509 17.46V8C157.509 7.58667 157.616 7.27333 157.829 7.06C158.042 6.84667 158.349 6.74 158.749 6.74C159.149 6.74 159.456 6.84667 159.669 7.06C159.896 7.27333 160.009 7.58667 160.009 8V17.34C160.009 17.9533 160.136 18.4067 160.389 18.7C160.656 18.9933 161.029 19.14 161.509 19.14C161.616 19.14 161.716 19.14 161.809 19.14C161.902 19.1267 161.996 19.1133 162.089 19.1C162.276 19.0733 162.402 19.1267 162.469 19.26C162.536 19.38 162.569 19.6333 162.569 20.02C162.569 20.3533 162.502 20.6133 162.369 20.8C162.236 20.9867 162.016 21.1 161.709 21.14C161.576 21.1533 161.436 21.1667 161.289 21.18C161.142 21.1933 160.996 21.2 160.849 21.2ZM168.618 21.2C167.511 21.2 166.558 20.9933 165.758 20.58C164.958 20.1667 164.338 19.58 163.898 18.82C163.471 18.06 163.258 17.16 163.258 16.12C163.258 15.1067 163.465 14.22 163.878 13.46C164.305 12.7 164.885 12.1067 165.618 11.68C166.365 11.24 167.211 11.02 168.158 11.02C168.851 11.02 169.471 11.1333 170.018 11.36C170.578 11.5867 171.051 11.9133 171.438 12.34C171.838 12.7667 172.138 13.2867 172.338 13.9C172.551 14.5 172.658 15.18 172.658 15.94C172.658 16.18 172.571 16.3667 172.398 16.5C172.238 16.62 172.005 16.68 171.698 16.68H165.278V15.24H170.898L170.578 15.54C170.578 14.9267 170.485 14.4133 170.298 14C170.125 13.5867 169.865 13.2733 169.518 13.06C169.185 12.8333 168.765 12.72 168.258 12.72C167.698 12.72 167.218 12.8533 166.818 13.12C166.431 13.3733 166.131 13.74 165.918 14.22C165.718 14.6867 165.618 15.2467 165.618 15.9V16.04C165.618 17.1333 165.871 17.9533 166.378 18.5C166.898 19.0333 167.658 19.3 168.658 19.3C169.005 19.3 169.391 19.26 169.818 19.18C170.258 19.0867 170.671 18.9333 171.058 18.72C171.338 18.56 171.585 18.4933 171.798 18.52C172.011 18.5333 172.178 18.6067 172.298 18.74C172.431 18.8733 172.511 19.04 172.538 19.24C172.565 19.4267 172.525 19.62 172.418 19.82C172.325 20.02 172.158 20.1933 171.918 20.34C171.451 20.6333 170.911 20.8533 170.298 21C169.698 21.1333 169.138 21.2 168.618 21.2ZM183.848 21.16C183.514 21.16 183.228 21.08 182.988 20.92C182.748 20.7467 182.554 20.48 182.408 20.12L179.508 12.72C179.388 12.4 179.348 12.12 179.388 11.88C179.441 11.6267 179.568 11.4267 179.768 11.28C179.968 11.1333 180.234 11.06 180.568 11.06C180.861 11.06 181.101 11.1333 181.288 11.28C181.474 11.4133 181.634 11.6733 181.768 12.06L184.188 18.72H183.728L186.228 11.9C186.334 11.6067 186.474 11.3933 186.648 11.26C186.834 11.1267 187.074 11.06 187.368 11.06C187.661 11.06 187.901 11.1333 188.088 11.28C188.274 11.4133 188.414 11.62 188.508 11.9L190.968 18.72H190.548L192.988 12C193.121 11.64 193.288 11.3933 193.488 11.26C193.701 11.1267 193.934 11.06 194.188 11.06C194.508 11.06 194.754 11.14 194.928 11.3C195.101 11.46 195.201 11.6667 195.228 11.92C195.254 12.16 195.208 12.4267 195.088 12.72L192.208 20.12C192.074 20.4667 191.881 20.7267 191.628 20.9C191.388 21.0733 191.101 21.16 190.768 21.16C190.434 21.16 190.141 21.0733 189.888 20.9C189.648 20.7267 189.461 20.4667 189.328 20.12L186.708 13.18H187.848L185.288 20.1C185.154 20.46 184.968 20.7267 184.728 20.9C184.488 21.0733 184.194 21.16 183.848 21.16ZM198.358 21.14C197.958 21.14 197.652 21.02 197.438 20.78C197.225 20.54 197.118 20.2067 197.118 19.78V12.44C197.118 12 197.225 11.6667 197.438 11.44C197.652 11.2 197.958 11.08 198.358 11.08C198.758 11.08 199.065 11.2 199.278 11.44C199.505 11.6667 199.618 12 199.618 12.44V19.78C199.618 20.2067 199.512 20.54 199.298 20.78C199.085 21.02 198.772 21.14 198.358 21.14ZM198.358 9.22C197.892 9.22 197.525 9.10667 197.258 8.88C197.005 8.64 196.878 8.31333 196.878 7.9C196.878 7.47333 197.005 7.14667 197.258 6.92C197.525 6.69333 197.892 6.58 198.358 6.58C198.838 6.58 199.205 6.69333 199.458 6.92C199.712 7.14667 199.838 7.47333 199.838 7.9C199.838 8.31333 199.712 8.64 199.458 8.88C199.205 9.10667 198.838 9.22 198.358 9.22ZM206.696 21.2C205.829 21.2 205.103 21.0533 204.516 20.76C203.943 20.4667 203.516 20.04 203.236 19.48C202.956 18.9067 202.816 18.2 202.816 17.36V13.1H201.776C201.456 13.1 201.209 13.02 201.036 12.86C200.863 12.6867 200.776 12.4533 200.776 12.16C200.776 11.8533 200.863 11.62 201.036 11.46C201.209 11.3 201.456 11.22 201.776 11.22H202.816V9.4C202.816 8.98667 202.923 8.67333 203.136 8.46C203.363 8.24667 203.676 8.14 204.076 8.14C204.476 8.14 204.783 8.24667 204.996 8.46C205.209 8.67333 205.316 8.98667 205.316 9.4V11.22H207.436C207.756 11.22 208.003 11.3 208.176 11.46C208.349 11.62 208.436 11.8533 208.436 12.16C208.436 12.4533 208.349 12.6867 208.176 12.86C208.003 13.02 207.756 13.1 207.436 13.1H205.316V17.22C205.316 17.86 205.456 18.34 205.736 18.66C206.016 18.98 206.469 19.14 207.096 19.14C207.323 19.14 207.523 19.12 207.696 19.08C207.869 19.04 208.023 19.0133 208.156 19C208.316 18.9867 208.449 19.04 208.556 19.16C208.663 19.2667 208.716 19.4933 208.716 19.84C208.716 20.1067 208.669 20.3467 208.576 20.56C208.496 20.76 208.343 20.9 208.116 20.98C207.943 21.0333 207.716 21.08 207.436 21.12C207.156 21.1733 206.909 21.2 206.696 21.2ZM211.386 21.16C210.986 21.16 210.679 21.0533 210.466 20.84C210.252 20.6133 210.146 20.2933 210.146 19.88V8C210.146 7.58667 210.252 7.27333 210.466 7.06C210.679 6.84667 210.986 6.74 211.386 6.74C211.786 6.74 212.092 6.84667 212.306 7.06C212.532 7.27333 212.646 7.58667 212.646 8V13.18H212.366C212.659 12.4733 213.112 11.94 213.726 11.58C214.352 11.2067 215.059 11.02 215.846 11.02C216.632 11.02 217.279 11.1667 217.786 11.46C218.292 11.7533 218.672 12.2 218.926 12.8C219.179 13.3867 219.306 14.1333 219.306 15.04V19.88C219.306 20.2933 219.199 20.6133 218.986 20.84C218.772 21.0533 218.466 21.16 218.066 21.16C217.666 21.16 217.352 21.0533 217.126 20.84C216.912 20.6133 216.806 20.2933 216.806 19.88V15.16C216.806 14.4 216.659 13.8467 216.366 13.5C216.086 13.1533 215.646 12.98 215.046 12.98C214.312 12.98 213.726 13.2133 213.286 13.68C212.859 14.1333 212.646 14.74 212.646 15.5V19.88C212.646 20.7333 212.226 21.16 211.386 21.16ZM230.615 21.2C229.508 21.2 228.675 20.8867 228.115 20.26C227.555 19.62 227.275 18.6867 227.275 17.46V8C227.275 7.58667 227.381 7.27333 227.595 7.06C227.808 6.84667 228.115 6.74 228.515 6.74C228.915 6.74 229.221 6.84667 229.435 7.06C229.661 7.27333 229.775 7.58667 229.775 8V17.34C229.775 17.9533 229.901 18.4067 230.155 18.7C230.421 18.9933 230.795 19.14 231.275 19.14C231.381 19.14 231.481 19.14 231.575 19.14C231.668 19.1267 231.761 19.1133 231.855 19.1C232.041 19.0733 232.168 19.1267 232.235 19.26C232.301 19.38 232.335 19.6333 232.335 20.02C232.335 20.3533 232.268 20.6133 232.135 20.8C232.001 20.9867 231.781 21.1 231.475 21.14C231.341 21.1533 231.201 21.1667 231.055 21.18C230.908 21.1933 230.761 21.2 230.615 21.2ZM238.384 21.2C237.277 21.2 236.324 20.9933 235.524 20.58C234.724 20.1667 234.104 19.58 233.664 18.82C233.237 18.06 233.024 17.16 233.024 16.12C233.024 15.1067 233.23 14.22 233.644 13.46C234.07 12.7 234.65 12.1067 235.384 11.68C236.13 11.24 236.977 11.02 237.924 11.02C238.617 11.02 239.237 11.1333 239.784 11.36C240.344 11.5867 240.817 11.9133 241.204 12.34C241.604 12.7667 241.904 13.2867 242.104 13.9C242.317 14.5 242.424 15.18 242.424 15.94C242.424 16.18 242.337 16.3667 242.164 16.5C242.004 16.62 241.77 16.68 241.464 16.68H235.044V15.24H240.664L240.344 15.54C240.344 14.9267 240.25 14.4133 240.064 14C239.89 13.5867 239.63 13.2733 239.284 13.06C238.95 12.8333 238.53 12.72 238.024 12.72C237.464 12.72 236.984 12.8533 236.584 13.12C236.197 13.3733 235.897 13.74 235.684 14.22C235.484 14.6867 235.384 15.2467 235.384 15.9V16.04C235.384 17.1333 235.637 17.9533 236.144 18.5C236.664 19.0333 237.424 19.3 238.424 19.3C238.77 19.3 239.157 19.26 239.584 19.18C240.024 19.0867 240.437 18.9333 240.824 18.72C241.104 18.56 241.35 18.4933 241.564 18.52C241.777 18.5333 241.944 18.6067 242.064 18.74C242.197 18.8733 242.277 19.04 242.304 19.24C242.33 19.4267 242.29 19.62 242.184 19.82C242.09 20.02 241.924 20.1933 241.684 20.34C241.217 20.6333 240.677 20.8533 240.064 21C239.464 21.1333 238.904 21.2 238.384 21.2ZM248.964 24.8C248.244 24.8 247.544 24.7333 246.864 24.6C246.197 24.4667 245.59 24.26 245.044 23.98C244.79 23.8467 244.617 23.6867 244.524 23.5C244.444 23.3133 244.417 23.12 244.444 22.92C244.484 22.7333 244.564 22.5667 244.684 22.42C244.817 22.2733 244.977 22.1733 245.164 22.12C245.35 22.0667 245.544 22.0933 245.744 22.2C246.33 22.4933 246.884 22.68 247.404 22.76C247.937 22.8533 248.39 22.9 248.764 22.9C249.657 22.9 250.324 22.68 250.764 22.24C251.217 21.8133 251.444 21.1733 251.444 20.32V18.52H251.624C251.424 19.2 251.004 19.7467 250.364 20.16C249.737 20.56 249.024 20.76 248.224 20.76C247.344 20.76 246.577 20.56 245.924 20.16C245.27 19.7467 244.764 19.1733 244.404 18.44C244.044 17.7067 243.864 16.8533 243.864 15.88C243.864 15.1467 243.964 14.4867 244.164 13.9C244.377 13.3 244.67 12.7867 245.044 12.36C245.43 11.9333 245.89 11.6067 246.424 11.38C246.97 11.14 247.57 11.02 248.224 11.02C249.05 11.02 249.77 11.2267 250.384 11.64C251.01 12.04 251.417 12.5733 251.604 13.24L251.404 13.74V12.32C251.404 11.9067 251.51 11.5933 251.724 11.38C251.95 11.1667 252.257 11.06 252.644 11.06C253.044 11.06 253.35 11.1667 253.564 11.38C253.777 11.5933 253.884 11.9067 253.884 12.32V20.02C253.884 21.6067 253.464 22.8 252.624 23.6C251.784 24.4 250.564 24.8 248.964 24.8ZM248.904 18.86C249.424 18.86 249.87 18.74 250.244 18.5C250.617 18.26 250.904 17.92 251.104 17.48C251.317 17.0267 251.424 16.4933 251.424 15.88C251.424 14.96 251.197 14.24 250.744 13.72C250.29 13.1867 249.677 12.92 248.904 12.92C248.384 12.92 247.937 13.04 247.564 13.28C247.19 13.52 246.897 13.86 246.684 14.3C246.484 14.74 246.384 15.2667 246.384 15.88C246.384 16.8 246.61 17.5267 247.064 18.06C247.517 18.5933 248.13 18.86 248.904 18.86ZM260.054 21.2C259.48 21.2 258.874 21.14 258.234 21.02C257.594 20.9 257.02 20.6933 256.514 20.4C256.3 20.2667 256.147 20.1133 256.054 19.94C255.974 19.7533 255.94 19.5733 255.954 19.4C255.98 19.2133 256.047 19.0533 256.154 18.92C256.274 18.7867 256.42 18.7 256.594 18.66C256.78 18.62 256.98 18.6533 257.194 18.76C257.727 19.0133 258.227 19.1933 258.694 19.3C259.16 19.3933 259.62 19.44 260.074 19.44C260.714 19.44 261.187 19.3333 261.494 19.12C261.814 18.8933 261.974 18.6 261.974 18.24C261.974 17.9333 261.867 17.7 261.654 17.54C261.454 17.3667 261.147 17.24 260.734 17.16L258.734 16.78C257.907 16.62 257.274 16.32 256.834 15.88C256.407 15.4267 256.194 14.8467 256.194 14.14C256.194 13.5 256.367 12.9467 256.714 12.48C257.074 12.0133 257.567 11.6533 258.194 11.4C258.82 11.1467 259.54 11.02 260.354 11.02C260.94 11.02 261.487 11.0867 261.994 11.22C262.514 11.34 263.014 11.5333 263.494 11.8C263.694 11.9067 263.827 12.0467 263.894 12.22C263.974 12.3933 263.994 12.5733 263.954 12.76C263.914 12.9333 263.834 13.0933 263.714 13.24C263.594 13.3733 263.44 13.46 263.254 13.5C263.08 13.5267 262.88 13.4867 262.654 13.38C262.24 13.1667 261.84 13.0133 261.454 12.92C261.08 12.8267 260.72 12.78 260.374 12.78C259.72 12.78 259.234 12.8933 258.914 13.12C258.607 13.3467 258.454 13.6467 258.454 14.02C258.454 14.3 258.547 14.5333 258.734 14.72C258.92 14.9067 259.207 15.0333 259.594 15.1L261.594 15.48C262.46 15.64 263.114 15.9333 263.554 16.36C264.007 16.7867 264.234 17.36 264.234 18.08C264.234 19.0533 263.854 19.82 263.094 20.38C262.334 20.9267 261.32 21.2 260.054 21.2Z" fill="#444444"/>
<rect x="272" width="21" height="28" rx="5" fill="#F0A000"/>
<path d="M281.551 21.2C280.845 21.2 280.211 21.0667 279.651 20.8C279.105 20.52 278.671 20.1467 278.351 19.68C278.045 19.2133 277.891 18.6867 277.891 18.1C277.891 17.38 278.078 16.8133 278.451 16.4C278.825 15.9733 279.431 15.6667 280.271 15.48C281.111 15.2933 282.238 15.2 283.651 15.2H284.651V16.64H283.671C282.845 16.64 282.185 16.68 281.691 16.76C281.198 16.84 280.845 16.98 280.631 17.18C280.431 17.3667 280.331 17.6333 280.331 17.98C280.331 18.42 280.485 18.78 280.791 19.06C281.098 19.34 281.525 19.48 282.071 19.48C282.511 19.48 282.898 19.38 283.231 19.18C283.578 18.9667 283.851 18.68 284.051 18.32C284.251 17.96 284.351 17.5467 284.351 17.08V14.78C284.351 14.1133 284.205 13.6333 283.911 13.34C283.618 13.0467 283.125 12.9 282.431 12.9C282.045 12.9 281.625 12.9467 281.171 13.04C280.731 13.1333 280.265 13.2933 279.771 13.52C279.518 13.64 279.291 13.6733 279.091 13.62C278.905 13.5667 278.758 13.46 278.651 13.3C278.545 13.1267 278.491 12.94 278.491 12.74C278.491 12.54 278.545 12.3467 278.651 12.16C278.758 11.96 278.938 11.8133 279.191 11.72C279.805 11.4667 280.391 11.2867 280.951 11.18C281.525 11.0733 282.045 11.02 282.511 11.02C283.471 11.02 284.258 11.1667 284.871 11.46C285.498 11.7533 285.965 12.2 286.271 12.8C286.578 13.3867 286.731 14.1467 286.731 15.08V19.88C286.731 20.2933 286.631 20.6133 286.431 20.84C286.231 21.0533 285.945 21.16 285.571 21.16C285.198 21.16 284.905 21.0533 284.691 20.84C284.491 20.6133 284.391 20.2933 284.391 19.88V18.92H284.551C284.458 19.3867 284.271 19.7933 283.991 20.14C283.725 20.4733 283.385 20.7333 282.971 20.92C282.558 21.1067 282.085 21.2 281.551 21.2Z" fill="#FFF6DB"/>
<path d="M302.84 23.14C302.666 23.3533 302.48 23.4733 302.28 23.5C302.093 23.54 301.926 23.5067 301.78 23.4C301.633 23.2933 301.553 23.14 301.54 22.94C301.526 22.7533 301.613 22.5467 301.8 22.32C302.066 21.9867 302.246 21.6533 302.34 21.32C302.433 20.9867 302.48 20.6867 302.48 20.42L302.58 21.1C302.113 21.1 301.733 20.9667 301.44 20.7C301.16 20.42 301.02 20.0533 301.02 19.6C301.02 19.1733 301.153 18.8267 301.42 18.56C301.686 18.28 302.046 18.14 302.5 18.14C302.966 18.14 303.333 18.3 303.6 18.62C303.866 18.9267 304 19.3733 304 19.96C304 20.28 303.966 20.6133 303.9 20.96C303.846 21.2933 303.733 21.64 303.56 22C303.4 22.3733 303.16 22.7533 302.84 23.14Z" fill="#444444"/>
<rect x="312" width="22" height="28" rx="5" fill="#2AD3F5"/>
<path d="M323.944 21.2C323.117 21.2 322.391 20.9933 321.764 20.58C321.151 20.1667 320.744 19.6133 320.544 18.92L320.764 18.42V19.88C320.764 20.2933 320.657 20.6133 320.444 20.84C320.231 21.0533 319.931 21.16 319.544 21.16C319.144 21.16 318.837 21.0533 318.624 20.84C318.411 20.6133 318.304 20.2933 318.304 19.88V8C318.304 7.58667 318.411 7.27333 318.624 7.06C318.837 6.84667 319.144 6.74 319.544 6.74C319.944 6.74 320.251 6.84667 320.464 7.06C320.691 7.27333 320.804 7.58667 320.804 8V13.2H320.564C320.777 12.5467 321.191 12.02 321.804 11.62C322.417 11.22 323.131 11.02 323.944 11.02C324.811 11.02 325.564 11.2267 326.204 11.64C326.844 12.0533 327.344 12.64 327.704 13.4C328.064 14.1467 328.244 15.0467 328.244 16.1C328.244 17.14 328.064 18.0467 327.704 18.82C327.344 19.58 326.837 20.1667 326.184 20.58C325.544 20.9933 324.797 21.2 323.944 21.2ZM323.244 19.3C323.737 19.3 324.171 19.18 324.544 18.94C324.917 18.7 325.204 18.3467 325.404 17.88C325.617 17.4 325.724 16.8067 325.724 16.1C325.724 15.0333 325.497 14.24 325.044 13.72C324.591 13.1867 323.991 12.92 323.244 12.92C322.751 12.92 322.317 13.04 321.944 13.28C321.571 13.5067 321.277 13.86 321.064 14.34C320.864 14.8067 320.764 15.3933 320.764 16.1C320.764 17.1533 320.991 17.9533 321.444 18.5C321.897 19.0333 322.497 19.3 323.244 19.3Z" fill="#E7FBFF"/>
<path d="M345.565 21.2C344.858 21.2 344.225 21.0667 343.665 20.8C343.118 20.52 342.685 20.1467 342.365 19.68C342.058 19.2133 341.905 18.6867 341.905 18.1C341.905 17.38 342.092 16.8133 342.465 16.4C342.838 15.9733 343.445 15.6667 344.285 15.48C345.125 15.2933 346.252 15.2 347.665 15.2H348.665V16.64H347.685C346.858 16.64 346.198 16.68 345.705 16.76C345.212 16.84 344.858 16.98 344.645 17.18C344.445 17.3667 344.345 17.6333 344.345 17.98C344.345 18.42 344.498 18.78 344.805 19.06C345.112 19.34 345.538 19.48 346.085 19.48C346.525 19.48 346.912 19.38 347.245 19.18C347.592 18.9667 347.865 18.68 348.065 18.32C348.265 17.96 348.365 17.5467 348.365 17.08V14.78C348.365 14.1133 348.218 13.6333 347.925 13.34C347.632 13.0467 347.138 12.9 346.445 12.9C346.058 12.9 345.638 12.9467 345.185 13.04C344.745 13.1333 344.278 13.2933 343.785 13.52C343.532 13.64 343.305 13.6733 343.105 13.62C342.918 13.5667 342.772 13.46 342.665 13.3C342.558 13.1267 342.505 12.94 342.505 12.74C342.505 12.54 342.558 12.3467 342.665 12.16C342.772 11.96 342.952 11.8133 343.205 11.72C343.818 11.4667 344.405 11.2867 344.965 11.18C345.538 11.0733 346.058 11.02 346.525 11.02C347.485 11.02 348.272 11.1667 348.885 11.46C349.512 11.7533 349.978 12.2 350.285 12.8C350.592 13.3867 350.745 14.1467 350.745 15.08V19.88C350.745 20.2933 350.645 20.6133 350.445 20.84C350.245 21.0533 349.958 21.16 349.585 21.16C349.212 21.16 348.918 21.0533 348.705 20.84C348.505 20.6133 348.405 20.2933 348.405 19.88V18.92H348.565C348.472 19.3867 348.285 19.7933 348.005 20.14C347.738 20.4733 347.398 20.7333 346.985 20.92C346.572 21.1067 346.098 21.2 345.565 21.2ZM354.522 21.16C354.122 21.16 353.816 21.0533 353.602 20.84C353.389 20.6133 353.282 20.2933 353.282 19.88V12.32C353.282 11.9067 353.389 11.5933 353.602 11.38C353.816 11.1667 354.116 11.06 354.502 11.06C354.889 11.06 355.189 11.1667 355.402 11.38C355.616 11.5933 355.722 11.9067 355.722 12.32V13.68L355.502 13.18C355.796 12.4733 356.249 11.94 356.862 11.58C357.489 11.2067 358.196 11.02 358.982 11.02C359.769 11.02 360.416 11.1667 360.922 11.46C361.429 11.7533 361.809 12.2 362.062 12.8C362.316 13.3867 362.442 14.1333 362.442 15.04V19.88C362.442 20.2933 362.336 20.6133 362.122 20.84C361.909 21.0533 361.602 21.16 361.202 21.16C360.802 21.16 360.489 21.0533 360.262 20.84C360.049 20.6133 359.942 20.2933 359.942 19.88V15.16C359.942 14.4 359.796 13.8467 359.502 13.5C359.222 13.1533 358.782 12.98 358.182 12.98C357.449 12.98 356.862 13.2133 356.422 13.68C355.996 14.1333 355.782 14.74 355.782 15.5V19.88C355.782 20.7333 355.362 21.16 354.522 21.16ZM368.742 21.2C367.888 21.2 367.135 20.9933 366.482 20.58C365.842 20.1667 365.342 19.58 364.982 18.82C364.622 18.0467 364.442 17.14 364.442 16.1C364.442 15.0467 364.622 14.1467 364.982 13.4C365.342 12.64 365.842 12.0533 366.482 11.64C367.135 11.2267 367.888 11.02 368.742 11.02C369.555 11.02 370.262 11.22 370.862 11.62C371.475 12.02 371.888 12.5467 372.102 13.2H371.882V8C371.882 7.58667 371.988 7.27333 372.202 7.06C372.415 6.84667 372.722 6.74 373.122 6.74C373.522 6.74 373.828 6.84667 374.042 7.06C374.268 7.27333 374.382 7.58667 374.382 8V19.88C374.382 20.2933 374.275 20.6133 374.062 20.84C373.848 21.0533 373.542 21.16 373.142 21.16C372.742 21.16 372.435 21.0533 372.222 20.84C372.008 20.6133 371.902 20.2933 371.902 19.88V18.32L372.122 18.92C371.922 19.6133 371.515 20.1667 370.902 20.58C370.288 20.9933 369.568 21.2 368.742 21.2ZM369.442 19.3C369.935 19.3 370.368 19.18 370.742 18.94C371.115 18.7 371.402 18.3467 371.602 17.88C371.815 17.4 371.922 16.8067 371.922 16.1C371.922 15.0333 371.695 14.24 371.242 13.72C370.788 13.1867 370.188 12.92 369.442 12.92C368.948 12.92 368.515 13.04 368.142 13.28C367.768 13.5067 367.475 13.86 367.262 14.34C367.062 14.8067 366.962 15.3933 366.962 16.1C366.962 17.1533 367.188 17.9533 367.642 18.5C368.095 19.0333 368.695 19.3 369.442 19.3ZM383.644 21.16C383.244 21.16 382.937 21.0533 382.724 20.84C382.51 20.6133 382.404 20.2933 382.404 19.88V8C382.404 7.58667 382.51 7.27333 382.724 7.06C382.937 6.84667 383.244 6.74 383.644 6.74C384.044 6.74 384.35 6.84667 384.564 7.06C384.79 7.27333 384.904 7.58667 384.904 8V13.18H384.624C384.917 12.4733 385.37 11.94 385.984 11.58C386.61 11.2067 387.317 11.02 388.104 11.02C388.89 11.02 389.537 11.1667 390.044 11.46C390.55 11.7533 390.93 12.2 391.184 12.8C391.437 13.3867 391.564 14.1333 391.564 15.04V19.88C391.564 20.2933 391.457 20.6133 391.244 20.84C391.03 21.0533 390.724 21.16 390.324 21.16C389.924 21.16 389.61 21.0533 389.384 20.84C389.17 20.6133 389.064 20.2933 389.064 19.88V15.16C389.064 14.4 388.917 13.8467 388.624 13.5C388.344 13.1533 387.904 12.98 387.304 12.98C386.57 12.98 385.984 13.2133 385.544 13.68C385.117 14.1333 384.904 14.74 384.904 15.5V19.88C384.904 20.7333 384.484 21.16 383.644 21.16ZM396.485 24.76C396.192 24.76 395.952 24.68 395.765 24.52C395.578 24.3733 395.465 24.1733 395.425 23.92C395.398 23.6667 395.445 23.4 395.565 23.12L396.925 20.1V21.14L393.285 12.72C393.165 12.4267 393.125 12.1533 393.165 11.9C393.205 11.6467 393.325 11.4467 393.525 11.3C393.738 11.14 394.025 11.06 394.385 11.06C394.692 11.06 394.938 11.1333 395.125 11.28C395.312 11.4133 395.478 11.6733 395.625 12.06L398.325 18.8H397.725L400.485 12.04C400.632 11.6667 400.805 11.4133 401.005 11.28C401.205 11.1333 401.472 11.06 401.805 11.06C402.098 11.06 402.332 11.14 402.505 11.3C402.678 11.4467 402.785 11.6467 402.825 11.9C402.865 12.14 402.818 12.4067 402.685 12.7L397.825 23.8C397.652 24.1733 397.465 24.4267 397.265 24.56C397.065 24.6933 396.805 24.76 396.485 24.76ZM405.772 24.76C405.372 24.76 405.066 24.6533 404.852 24.44C404.639 24.2267 404.532 23.9133 404.532 23.5V12.32C404.532 11.9067 404.639 11.5933 404.852 11.38C405.066 11.1667 405.366 11.06 405.752 11.06C406.152 11.06 406.459 11.1667 406.672 11.38C406.886 11.5933 406.992 11.9067 406.992 12.32V13.88L406.772 13.28C406.972 12.6 407.379 12.0533 407.992 11.64C408.619 11.2267 409.346 11.02 410.172 11.02C411.026 11.02 411.772 11.2267 412.412 11.64C413.066 12.0533 413.572 12.64 413.932 13.4C414.292 14.1467 414.472 15.0467 414.472 16.1C414.472 17.14 414.292 18.0467 413.932 18.82C413.572 19.58 413.072 20.1667 412.432 20.58C411.792 20.9933 411.039 21.2 410.172 21.2C409.359 21.2 408.646 21 408.032 20.6C407.419 20.1867 407.006 19.6533 406.792 19H407.032V23.5C407.032 23.9133 406.919 24.2267 406.692 24.44C406.479 24.6533 406.172 24.76 405.772 24.76ZM409.472 19.3C409.966 19.3 410.399 19.18 410.772 18.94C411.146 18.7 411.432 18.3467 411.632 17.88C411.846 17.4 411.952 16.8067 411.952 16.1C411.952 15.0333 411.726 14.24 411.272 13.72C410.819 13.1867 410.219 12.92 409.472 12.92C408.979 12.92 408.546 13.04 408.172 13.28C407.799 13.5067 407.506 13.86 407.292 14.34C407.092 14.8067 406.992 15.3933 406.992 16.1C406.992 17.1533 407.219 17.9533 407.672 18.5C408.126 19.0333 408.726 19.3 409.472 19.3ZM420.985 21.2C419.971 21.2 419.091 20.9933 418.345 20.58C417.598 20.1667 417.018 19.58 416.605 18.82C416.191 18.0467 415.985 17.14 415.985 16.1C415.985 15.3133 416.098 14.6133 416.325 14C416.565 13.3733 416.905 12.84 417.345 12.4C417.785 11.9467 418.311 11.6067 418.925 11.38C419.538 11.14 420.225 11.02 420.985 11.02C421.998 11.02 422.878 11.2267 423.625 11.64C424.371 12.0533 424.951 12.64 425.365 13.4C425.778 14.16 425.985 15.06 425.985 16.1C425.985 16.8867 425.865 17.5933 425.625 18.22C425.398 18.8467 425.065 19.3867 424.625 19.84C424.185 20.28 423.658 20.62 423.045 20.86C422.431 21.0867 421.745 21.2 420.985 21.2ZM420.985 19.3C421.478 19.3 421.911 19.18 422.285 18.94C422.658 18.7 422.945 18.3467 423.145 17.88C423.358 17.4 423.465 16.8067 423.465 16.1C423.465 15.0333 423.238 14.24 422.785 13.72C422.331 13.1867 421.731 12.92 420.985 12.92C420.491 12.92 420.058 13.04 419.685 13.28C419.311 13.5067 419.018 13.86 418.805 14.34C418.605 14.8067 418.505 15.3933 418.505 16.1C418.505 17.1533 418.731 17.9533 419.185 18.5C419.638 19.0333 420.238 19.3 420.985 19.3ZM432.43 21.2C431.564 21.2 430.837 21.0533 430.25 20.76C429.677 20.4667 429.25 20.04 428.97 19.48C428.69 18.9067 428.55 18.2 428.55 17.36V13.1H427.51C427.19 13.1 426.944 13.02 426.77 12.86C426.597 12.6867 426.51 12.4533 426.51 12.16C426.51 11.8533 426.597 11.62 426.77 11.46C426.944 11.3 427.19 11.22 427.51 11.22H428.55V9.4C428.55 8.98667 428.657 8.67333 428.87 8.46C429.097 8.24667 429.41 8.14 429.81 8.14C430.21 8.14 430.517 8.24667 430.73 8.46C430.944 8.67333 431.05 8.98667 431.05 9.4V11.22H433.17C433.49 11.22 433.737 11.3 433.91 11.46C434.084 11.62 434.17 11.8533 434.17 12.16C434.17 12.4533 434.084 12.6867 433.91 12.86C433.737 13.02 433.49 13.1 433.17 13.1H431.05V17.22C431.05 17.86 431.19 18.34 431.47 18.66C431.75 18.98 432.204 19.14 432.83 19.14C433.057 19.14 433.257 19.12 433.43 19.08C433.604 19.04 433.757 19.0133 433.89 19C434.05 18.9867 434.184 19.04 434.29 19.16C434.397 19.2667 434.45 19.4933 434.45 19.84C434.45 20.1067 434.404 20.3467 434.31 20.56C434.23 20.76 434.077 20.9 433.85 20.98C433.677 21.0333 433.45 21.08 433.17 21.12C432.89 21.1733 432.644 21.2 432.43 21.2ZM440.349 21.2C439.242 21.2 438.289 20.9933 437.489 20.58C436.689 20.1667 436.069 19.58 435.629 18.82C435.202 18.06 434.989 17.16 434.989 16.12C434.989 15.1067 435.195 14.22 435.609 13.46C436.035 12.7 436.615 12.1067 437.349 11.68C438.095 11.24 438.942 11.02 439.889 11.02C440.582 11.02 441.202 11.1333 441.749 11.36C442.309 11.5867 442.782 11.9133 443.169 12.34C443.569 12.7667 443.869 13.2867 444.069 13.9C444.282 14.5 444.389 15.18 444.389 15.94C444.389 16.18 444.302 16.3667 444.129 16.5C443.969 16.62 443.735 16.68 443.429 16.68H437.009V15.24H442.629L442.309 15.54C442.309 14.9267 442.215 14.4133 442.029 14C441.855 13.5867 441.595 13.2733 441.249 13.06C440.915 12.8333 440.495 12.72 439.989 12.72C439.429 12.72 438.949 12.8533 438.549 13.12C438.162 13.3733 437.862 13.74 437.649 14.22C437.449 14.6867 437.349 15.2467 437.349 15.9V16.04C437.349 17.1333 437.602 17.9533 438.109 18.5C438.629 19.0333 439.389 19.3 440.389 19.3C440.735 19.3 441.122 19.26 441.549 19.18C441.989 19.0867 442.402 18.9333 442.789 18.72C443.069 18.56 443.315 18.4933 443.529 18.52C443.742 18.5333 443.909 18.6067 444.029 18.74C444.162 18.8733 444.242 19.04 444.269 19.24C444.295 19.4267 444.255 19.62 444.149 19.82C444.055 20.02 443.889 20.1933 443.649 20.34C443.182 20.6333 442.642 20.8533 442.029 21C441.429 21.1333 440.869 21.2 440.349 21.2ZM447.608 21.16C447.208 21.16 446.902 21.0533 446.688 20.84C446.475 20.6133 446.368 20.2933 446.368 19.88V12.32C446.368 11.9067 446.475 11.5933 446.688 11.38C446.902 11.1667 447.202 11.06 447.588 11.06C447.975 11.06 448.275 11.1667 448.488 11.38C448.702 11.5933 448.808 11.9067 448.808 12.32V13.68L448.588 13.18C448.882 12.4733 449.335 11.94 449.948 11.58C450.575 11.2067 451.282 11.02 452.068 11.02C452.855 11.02 453.502 11.1667 454.008 11.46C454.515 11.7533 454.895 12.2 455.148 12.8C455.402 13.3867 455.528 14.1333 455.528 15.04V19.88C455.528 20.2933 455.422 20.6133 455.208 20.84C454.995 21.0533 454.688 21.16 454.288 21.16C453.888 21.16 453.575 21.0533 453.348 20.84C453.135 20.6133 453.028 20.2933 453.028 19.88V15.16C453.028 14.4 452.882 13.8467 452.588 13.5C452.308 13.1533 451.868 12.98 451.268 12.98C450.535 12.98 449.948 13.2133 449.508 13.68C449.082 14.1333 448.868 14.74 448.868 15.5V19.88C448.868 20.7333 448.448 21.16 447.608 21.16ZM461.608 21.2C460.794 21.2 460.121 21.0533 459.588 20.76C459.054 20.4533 458.654 20 458.388 19.4C458.134 18.8 458.008 18.0533 458.008 17.16V12.32C458.008 11.8933 458.114 11.58 458.328 11.38C458.541 11.1667 458.848 11.06 459.248 11.06C459.648 11.06 459.954 11.1667 460.168 11.38C460.394 11.58 460.508 11.8933 460.508 12.32V17.2C460.508 17.8933 460.648 18.4067 460.928 18.74C461.208 19.0733 461.654 19.24 462.268 19.24C462.934 19.24 463.481 19.0133 463.908 18.56C464.334 18.0933 464.548 17.48 464.548 16.72V12.32C464.548 11.8933 464.654 11.58 464.868 11.38C465.081 11.1667 465.388 11.06 465.788 11.06C466.188 11.06 466.494 11.1667 466.708 11.38C466.934 11.58 467.048 11.8933 467.048 12.32V19.88C467.048 20.7333 466.641 21.16 465.828 21.16C465.441 21.16 465.141 21.0533 464.928 20.84C464.714 20.6133 464.608 20.2933 464.608 19.88V18.36L464.888 18.96C464.608 19.68 464.181 20.2333 463.608 20.62C463.048 21.0067 462.381 21.2 461.608 21.2ZM473.23 21.2C472.656 21.2 472.05 21.14 471.41 21.02C470.77 20.9 470.196 20.6933 469.69 20.4C469.476 20.2667 469.323 20.1133 469.23 19.94C469.15 19.7533 469.116 19.5733 469.13 19.4C469.156 19.2133 469.223 19.0533 469.33 18.92C469.45 18.7867 469.596 18.7 469.77 18.66C469.956 18.62 470.156 18.6533 470.37 18.76C470.903 19.0133 471.403 19.1933 471.87 19.3C472.336 19.3933 472.796 19.44 473.25 19.44C473.89 19.44 474.363 19.3333 474.67 19.12C474.99 18.8933 475.15 18.6 475.15 18.24C475.15 17.9333 475.043 17.7 474.83 17.54C474.63 17.3667 474.323 17.24 473.91 17.16L471.91 16.78C471.083 16.62 470.45 16.32 470.01 15.88C469.583 15.4267 469.37 14.8467 469.37 14.14C469.37 13.5 469.543 12.9467 469.89 12.48C470.25 12.0133 470.743 11.6533 471.37 11.4C471.996 11.1467 472.716 11.02 473.53 11.02C474.116 11.02 474.663 11.0867 475.17 11.22C475.69 11.34 476.19 11.5333 476.67 11.8C476.87 11.9067 477.003 12.0467 477.07 12.22C477.15 12.3933 477.17 12.5733 477.13 12.76C477.09 12.9333 477.01 13.0933 476.89 13.24C476.77 13.3733 476.616 13.46 476.43 13.5C476.256 13.5267 476.056 13.4867 475.83 13.38C475.416 13.1667 475.016 13.0133 474.63 12.92C474.256 12.8267 473.896 12.78 473.55 12.78C472.896 12.78 472.41 12.8933 472.09 13.12C471.783 13.3467 471.63 13.6467 471.63 14.02C471.63 14.3 471.723 14.5333 471.91 14.72C472.096 14.9067 472.383 15.0333 472.77 15.1L474.77 15.48C475.636 15.64 476.29 15.9333 476.73 16.36C477.183 16.7867 477.41 17.36 477.41 18.08C477.41 19.0533 477.03 19.82 476.27 20.38C475.51 20.9267 474.496 21.2 473.23 21.2ZM484.235 21.2C483.129 21.2 482.175 20.9933 481.375 20.58C480.575 20.1667 479.955 19.58 479.515 18.82C479.089 18.06 478.875 17.16 478.875 16.12C478.875 15.1067 479.082 14.22 479.495 13.46C479.922 12.7 480.502 12.1067 481.235 11.68C481.982 11.24 482.829 11.02 483.775 11.02C484.469 11.02 485.089 11.1333 485.635 11.36C486.195 11.5867 486.669 11.9133 487.055 12.34C487.455 12.7667 487.755 13.2867 487.955 13.9C488.169 14.5 488.275 15.18 488.275 15.94C488.275 16.18 488.189 16.3667 488.015 16.5C487.855 16.62 487.622 16.68 487.315 16.68H480.895V15.24H486.515L486.195 15.54C486.195 14.9267 486.102 14.4133 485.915 14C485.742 13.5867 485.482 13.2733 485.135 13.06C484.802 12.8333 484.382 12.72 483.875 12.72C483.315 12.72 482.835 12.8533 482.435 13.12C482.049 13.3733 481.749 13.74 481.535 14.22C481.335 14.6867 481.235 15.2467 481.235 15.9V16.04C481.235 17.1333 481.489 17.9533 481.995 18.5C482.515 19.0333 483.275 19.3 484.275 19.3C484.622 19.3 485.009 19.26 485.435 19.18C485.875 19.0867 486.289 18.9333 486.675 18.72C486.955 18.56 487.202 18.4933 487.415 18.52C487.629 18.5333 487.795 18.6067 487.915 18.74C488.049 18.8733 488.129 19.04 488.155 19.24C488.182 19.4267 488.142 19.62 488.035 19.82C487.942 20.02 487.775 20.1933 487.535 20.34C487.069 20.6333 486.529 20.8533 485.915 21C485.315 21.1333 484.755 21.2 484.235 21.2Z" fill="#444444"/>
<rect x="496" width="20" height="28" rx="5" fill="#C882FA"/>
<path d="M507.103 21.2C506.077 21.2 505.183 20.9933 504.423 20.58C503.663 20.1533 503.077 19.5533 502.663 18.78C502.25 18.0067 502.043 17.1 502.043 16.06C502.043 15.2733 502.157 14.5733 502.383 13.96C502.623 13.3333 502.963 12.8067 503.403 12.38C503.843 11.94 504.377 11.6067 505.003 11.38C505.63 11.14 506.33 11.02 507.103 11.02C507.543 11.02 508.017 11.08 508.523 11.2C509.043 11.32 509.53 11.52 509.983 11.8C510.197 11.9333 510.337 12.0933 510.403 12.28C510.47 12.4667 510.483 12.66 510.443 12.86C510.403 13.0467 510.317 13.2133 510.183 13.36C510.063 13.4933 509.91 13.58 509.723 13.62C509.537 13.6467 509.33 13.6 509.103 13.48C508.81 13.3067 508.51 13.18 508.203 13.1C507.897 13.0067 507.603 12.96 507.323 12.96C506.883 12.96 506.497 13.0333 506.163 13.18C505.83 13.3133 505.543 13.5133 505.303 13.78C505.077 14.0333 504.903 14.3533 504.783 14.74C504.663 15.1267 504.603 15.5733 504.603 16.08C504.603 17.0667 504.837 17.8467 505.303 18.42C505.783 18.98 506.457 19.26 507.323 19.26C507.603 19.26 507.89 19.22 508.183 19.14C508.49 19.06 508.797 18.9333 509.103 18.76C509.33 18.64 509.53 18.6 509.703 18.64C509.89 18.68 510.043 18.7733 510.163 18.92C510.283 19.0533 510.357 19.22 510.383 19.42C510.41 19.6067 510.383 19.7933 510.303 19.98C510.237 20.1667 510.103 20.32 509.903 20.44C509.463 20.7067 508.997 20.9 508.503 21.02C508.01 21.14 507.543 21.2 507.103 21.2Z" fill="#FAF2FF"/>
<path d="M525.84 23.14C525.666 23.3533 525.48 23.4733 525.28 23.5C525.093 23.54 524.926 23.5067 524.78 23.4C524.633 23.2933 524.553 23.14 524.54 22.94C524.526 22.7533 524.613 22.5467 524.8 22.32C525.066 21.9867 525.246 21.6533 525.34 21.32C525.433 20.9867 525.48 20.6867 525.48 20.42L525.58 21.1C525.113 21.1 524.733 20.9667 524.44 20.7C524.16 20.42 524.02 20.0533 524.02 19.6C524.02 19.1733 524.153 18.8267 524.42 18.56C524.686 18.28 525.046 18.14 525.5 18.14C525.966 18.14 526.333 18.3 526.6 18.62C526.866 18.9267 527 19.3733 527 19.96C527 20.28 526.966 20.6133 526.9 20.96C526.846 21.2933 526.733 21.64 526.56 22C526.4 22.3733 526.16 22.7533 525.84 23.14Z" fill="#444444"/>
<rect x="173" y="34.5" width="28" height="27" rx="4.5" fill="#FFEDB8"/>
<path d="M182.252 55.2C181.546 55.2 180.912 55.0667 180.352 54.8C179.806 54.52 179.372 54.1467 179.052 53.68C178.746 53.2133 178.592 52.6867 178.592 52.1C178.592 51.38 178.779 50.8133 179.152 50.4C179.526 49.9733 180.132 49.6667 180.972 49.48C181.812 49.2933 182.939 49.2 184.352 49.2H185.352V50.64H184.372C183.546 50.64 182.886 50.68 182.392 50.76C181.899 50.84 181.546 50.98 181.332 51.18C181.132 51.3667 181.032 51.6333 181.032 51.98C181.032 52.42 181.186 52.78 181.492 53.06C181.799 53.34 182.226 53.48 182.772 53.48C183.212 53.48 183.599 53.38 183.932 53.18C184.279 52.9667 184.552 52.68 184.752 52.32C184.952 51.96 185.052 51.5467 185.052 51.08V48.78C185.052 48.1133 184.906 47.6333 184.612 47.34C184.319 47.0467 183.826 46.9 183.132 46.9C182.746 46.9 182.326 46.9467 181.872 47.04C181.432 47.1333 180.966 47.2933 180.472 47.52C180.219 47.64 179.992 47.6733 179.792 47.62C179.606 47.5667 179.459 47.46 179.352 47.3C179.246 47.1267 179.192 46.94 179.192 46.74C179.192 46.54 179.246 46.3467 179.352 46.16C179.459 45.96 179.639 45.8133 179.892 45.72C180.506 45.4667 181.092 45.2867 181.652 45.18C182.226 45.0733 182.746 45.02 183.212 45.02C184.172 45.02 184.959 45.1667 185.572 45.46C186.199 45.7533 186.666 46.2 186.972 46.8C187.279 47.3867 187.432 48.1467 187.432 49.08V53.88C187.432 54.2933 187.332 54.6133 187.132 54.84C186.932 55.0533 186.646 55.16 186.272 55.16C185.899 55.16 185.606 55.0533 185.392 54.84C185.192 54.6133 185.092 54.2933 185.092 53.88V52.92H185.252C185.159 53.3867 184.972 53.7933 184.692 54.14C184.426 54.4733 184.086 54.7333 183.672 54.92C183.259 55.1067 182.786 55.2 182.252 55.2ZM190.51 49.36C190.243 49.36 190.017 49.28 189.83 49.12C189.657 48.9467 189.57 48.7267 189.57 48.46C189.57 48.2467 189.617 48.06 189.71 47.9C189.803 47.74 189.93 47.58 190.09 47.42L192.11 45.3C192.443 44.9533 192.677 44.64 192.81 44.36C192.957 44.08 193.03 43.8 193.03 43.52C193.03 43.1867 192.93 42.9333 192.73 42.76C192.543 42.5733 192.257 42.48 191.87 42.48C191.643 42.48 191.41 42.52 191.17 42.6C190.93 42.6667 190.703 42.76 190.49 42.88C190.25 43.0133 190.03 43.0467 189.83 42.98C189.643 42.9133 189.503 42.7933 189.41 42.62C189.317 42.4333 189.297 42.2333 189.35 42.02C189.403 41.8067 189.55 41.6267 189.79 41.48C190.137 41.2667 190.537 41.1067 190.99 41C191.443 40.88 191.89 40.82 192.33 40.82C192.917 40.82 193.423 40.92 193.85 41.12C194.277 41.32 194.603 41.6 194.83 41.96C195.07 42.32 195.19 42.7467 195.19 43.24C195.19 43.68 195.083 44.1067 194.87 44.52C194.67 44.9333 194.33 45.3867 193.85 45.88L191.93 47.86V47.68H194.85C195.423 47.68 195.71 47.96 195.71 48.52C195.71 48.7867 195.637 48.9933 195.49 49.14C195.343 49.2867 195.13 49.36 194.85 49.36H190.51Z" fill="#F0A000"/>
<rect x="173" y="34.5" width="28" height="27" rx="4.5" stroke="#F0A000"/>
<path d="M215.504 54.36C215.211 54.36 214.984 54.28 214.824 54.12C214.664 53.9467 214.584 53.7133 214.584 53.42V50.14H211.364C211.084 50.14 210.864 50.0667 210.704 49.92C210.544 49.76 210.464 49.54 210.464 49.26C210.464 48.98 210.544 48.7667 210.704 48.62C210.864 48.46 211.084 48.38 211.364 48.38H214.584V45.2C214.584 44.9067 214.664 44.68 214.824 44.52C214.984 44.36 215.217 44.28 215.524 44.28C215.817 44.28 216.037 44.36 216.184 44.52C216.344 44.68 216.424 44.9067 216.424 45.2V48.38H219.644C219.937 48.38 220.157 48.46 220.304 48.62C220.464 48.7667 220.544 48.98 220.544 49.26C220.544 49.54 220.464 49.76 220.304 49.92C220.157 50.0667 219.937 50.14 219.644 50.14H216.424V53.42C216.424 53.7133 216.344 53.9467 216.184 54.12C216.037 54.28 215.811 54.36 215.504 54.36Z" fill="#444444"/>
<rect x="230" y="34.5" width="29" height="27" rx="4.5" fill="#D1F7FF"/>
<path d="M241.645 55.2C240.818 55.2 240.092 54.9933 239.465 54.58C238.852 54.1667 238.445 53.6133 238.245 52.92L238.465 52.42V53.88C238.465 54.2933 238.358 54.6133 238.145 54.84C237.932 55.0533 237.632 55.16 237.245 55.16C236.845 55.16 236.538 55.0533 236.325 54.84C236.112 54.6133 236.005 54.2933 236.005 53.88V42C236.005 41.5867 236.112 41.2733 236.325 41.06C236.538 40.8467 236.845 40.74 237.245 40.74C237.645 40.74 237.952 40.8467 238.165 41.06C238.392 41.2733 238.505 41.5867 238.505 42V47.2H238.265C238.478 46.5467 238.892 46.02 239.505 45.62C240.118 45.22 240.832 45.02 241.645 45.02C242.512 45.02 243.265 45.2267 243.905 45.64C244.545 46.0533 245.045 46.64 245.405 47.4C245.765 48.1467 245.945 49.0467 245.945 50.1C245.945 51.14 245.765 52.0467 245.405 52.82C245.045 53.58 244.538 54.1667 243.885 54.58C243.245 54.9933 242.498 55.2 241.645 55.2ZM240.945 53.3C241.438 53.3 241.872 53.18 242.245 52.94C242.618 52.7 242.905 52.3467 243.105 51.88C243.318 51.4 243.425 50.8067 243.425 50.1C243.425 49.0333 243.198 48.24 242.745 47.72C242.292 47.1867 241.692 46.92 240.945 46.92C240.452 46.92 240.018 47.04 239.645 47.28C239.272 47.5067 238.978 47.86 238.765 48.34C238.565 48.8067 238.465 49.3933 238.465 50.1C238.465 51.1533 238.692 51.9533 239.145 52.5C239.598 53.0333 240.198 53.3 240.945 53.3ZM248.537 49.36C248.271 49.36 248.044 49.28 247.857 49.12C247.684 48.9467 247.597 48.7267 247.597 48.46C247.597 48.2467 247.644 48.06 247.737 47.9C247.831 47.74 247.957 47.58 248.117 47.42L250.137 45.3C250.471 44.9533 250.704 44.64 250.837 44.36C250.984 44.08 251.057 43.8 251.057 43.52C251.057 43.1867 250.957 42.9333 250.757 42.76C250.571 42.5733 250.284 42.48 249.897 42.48C249.671 42.48 249.437 42.52 249.197 42.6C248.957 42.6667 248.731 42.76 248.517 42.88C248.277 43.0133 248.057 43.0467 247.857 42.98C247.671 42.9133 247.531 42.7933 247.437 42.62C247.344 42.4333 247.324 42.2333 247.377 42.02C247.431 41.8067 247.577 41.6267 247.817 41.48C248.164 41.2667 248.564 41.1067 249.017 41C249.471 40.88 249.917 40.82 250.357 40.82C250.944 40.82 251.451 40.92 251.877 41.12C252.304 41.32 252.631 41.6 252.857 41.96C253.097 42.32 253.217 42.7467 253.217 43.24C253.217 43.68 253.111 44.1067 252.897 44.52C252.697 44.9333 252.357 45.3867 251.877 45.88L249.957 47.86V47.68H252.877C253.451 47.68 253.737 47.96 253.737 48.52C253.737 48.7867 253.664 48.9933 253.517 49.14C253.371 49.2867 253.157 49.36 252.877 49.36H248.537Z" fill="#2AD3F5"/>
<rect x="230" y="34.5" width="29" height="27" rx="4.5" stroke="#2AD3F5"/>
<path d="M269.364 48.14C269.084 48.14 268.864 48.0667 268.704 47.92C268.544 47.76 268.464 47.54 268.464 47.26C268.464 46.98 268.544 46.7667 268.704 46.62C268.864 46.46 269.084 46.38 269.364 46.38H277.644C277.937 46.38 278.157 46.46 278.304 46.62C278.464 46.7667 278.544 46.98 278.544 47.26C278.544 47.54 278.464 47.76 278.304 47.92C278.157 48.0667 277.937 48.14 277.644 48.14H269.364ZM269.364 52.12C269.084 52.12 268.864 52.0467 268.704 51.9C268.544 51.74 268.464 51.52 268.464 51.24C268.464 50.96 268.544 50.7467 268.704 50.6C268.864 50.4533 269.084 50.38 269.364 50.38H277.644C277.937 50.38 278.157 50.4533 278.304 50.6C278.464 50.7467 278.544 50.96 278.544 51.24C278.544 51.5333 278.464 51.7533 278.304 51.9C278.157 52.0467 277.937 52.12 277.644 52.12H269.364Z" fill="#444444"/>
<rect x="288" y="34.5" width="27" height="27" rx="4.5" fill="#F4E5FF"/>
<path d="M298.804 55.2C297.778 55.2 296.884 54.9933 296.124 54.58C295.364 54.1533 294.778 53.5533 294.364 52.78C293.951 52.0067 293.744 51.1 293.744 50.06C293.744 49.2733 293.858 48.5733 294.084 47.96C294.324 47.3333 294.664 46.8067 295.104 46.38C295.544 45.94 296.078 45.6067 296.704 45.38C297.331 45.14 298.031 45.02 298.804 45.02C299.244 45.02 299.718 45.08 300.224 45.2C300.744 45.32 301.231 45.52 301.684 45.8C301.898 45.9333 302.038 46.0933 302.104 46.28C302.171 46.4667 302.184 46.66 302.144 46.86C302.104 47.0467 302.018 47.2133 301.884 47.36C301.764 47.4933 301.611 47.58 301.424 47.62C301.238 47.6467 301.031 47.6 300.804 47.48C300.511 47.3067 300.211 47.18 299.904 47.1C299.598 47.0067 299.304 46.96 299.024 46.96C298.584 46.96 298.198 47.0333 297.864 47.18C297.531 47.3133 297.244 47.5133 297.004 47.78C296.778 48.0333 296.604 48.3533 296.484 48.74C296.364 49.1267 296.304 49.5733 296.304 50.08C296.304 51.0667 296.538 51.8467 297.004 52.42C297.484 52.98 298.158 53.26 299.024 53.26C299.304 53.26 299.591 53.22 299.884 53.14C300.191 53.06 300.498 52.9333 300.804 52.76C301.031 52.64 301.231 52.6 301.404 52.64C301.591 52.68 301.744 52.7733 301.864 52.92C301.984 53.0533 302.058 53.22 302.084 53.42C302.111 53.6067 302.084 53.7933 302.004 53.98C301.938 54.1667 301.804 54.32 301.604 54.44C301.164 54.7067 300.698 54.9 300.204 55.02C299.711 55.14 299.244 55.2 298.804 55.2ZM304.258 49.36C303.991 49.36 303.765 49.28 303.578 49.12C303.405 48.9467 303.318 48.7267 303.318 48.46C303.318 48.2467 303.365 48.06 303.458 47.9C303.551 47.74 303.678 47.58 303.838 47.42L305.858 45.3C306.191 44.9533 306.425 44.64 306.558 44.36C306.705 44.08 306.778 43.8 306.778 43.52C306.778 43.1867 306.678 42.9333 306.478 42.76C306.291 42.5733 306.005 42.48 305.618 42.48C305.391 42.48 305.158 42.52 304.918 42.6C304.678 42.6667 304.451 42.76 304.238 42.88C303.998 43.0133 303.778 43.0467 303.578 42.98C303.391 42.9133 303.251 42.7933 303.158 42.62C303.065 42.4333 303.045 42.2333 303.098 42.02C303.151 41.8067 303.298 41.6267 303.538 41.48C303.885 41.2667 304.285 41.1067 304.738 41C305.191 40.88 305.638 40.82 306.078 40.82C306.665 40.82 307.171 40.92 307.598 41.12C308.025 41.32 308.351 41.6 308.578 41.96C308.818 42.32 308.938 42.7467 308.938 43.24C308.938 43.68 308.831 44.1067 308.618 44.52C308.418 44.9333 308.078 45.3867 307.598 45.88L305.678 47.86V47.68H308.598C309.171 47.68 309.458 47.96 309.458 48.52C309.458 48.7867 309.385 48.9933 309.238 49.14C309.091 49.2867 308.878 49.36 308.598 49.36H304.258Z" fill="#C882FA"/>
<rect x="288" y="34.5" width="27" height="27" rx="4.5" stroke="#C882FA"/>
</svg>
