<svg width="263" height="19" viewBox="0 0 263 19" fill="none" xmlns="http://www.w3.org/2000/svg">
<path d="M1.79898 15C1.38565 15 1.06565 14.8867 0.838984 14.66C0.612318 14.42 0.498985 14.0933 0.498985 13.68V2.14C0.498985 1.71333 0.605651 1.39333 0.818984 1.18C1.04565 0.953333 1.36565 0.84 1.77898 0.84C2.19232 0.84 2.50565 0.953333 2.71898 1.18C2.94565 1.39333 3.05898 1.71333 3.05898 2.14V12.82H8.85899C9.21898 12.82 9.49232 12.9133 9.67898 13.1C9.87898 13.2867 9.97898 13.5533 9.97898 13.9C9.97898 14.2467 9.87898 14.52 9.67898 14.72C9.49232 14.9067 9.21898 15 8.85899 15H1.79898ZM16.2118 15.2C15.1051 15.2 14.1518 14.9933 13.3518 14.58C12.5518 14.1667 11.9318 13.58 11.4918 12.82C11.0651 12.06 10.8518 11.16 10.8518 10.12C10.8518 9.10667 11.0585 8.22 11.4718 7.46C11.8985 6.7 12.4785 6.10667 13.2118 5.68C13.9585 5.24 14.8051 5.02 15.7518 5.02C16.4451 5.02 17.0651 5.13333 17.6118 5.36C18.1718 5.58667 18.6451 5.91333 19.0318 6.34C19.4318 6.76667 19.7318 7.28667 19.9318 7.9C20.1451 8.5 20.2518 9.18 20.2518 9.94C20.2518 10.18 20.1651 10.3667 19.9918 10.5C19.8318 10.62 19.5985 10.68 19.2918 10.68H12.8718V9.24H18.4918L18.1718 9.54C18.1718 8.92667 18.0785 8.41333 17.8918 8C17.7185 7.58667 17.4585 7.27333 17.1118 7.06C16.7785 6.83333 16.3585 6.72 15.8518 6.72C15.2918 6.72 14.8118 6.85333 14.4118 7.12C14.0251 7.37333 13.7251 7.74 13.5118 8.22C13.3118 8.68667 13.2118 9.24667 13.2118 9.9V10.04C13.2118 11.1333 13.4651 11.9533 13.9718 12.5C14.4918 13.0333 15.2518 13.3 16.2518 13.3C16.5985 13.3 16.9851 13.26 17.4118 13.18C17.8518 13.0867 18.2651 12.9333 18.6518 12.72C18.9318 12.56 19.1785 12.4933 19.3918 12.52C19.6051 12.5333 19.7718 12.6067 19.8918 12.74C20.0251 12.8733 20.1051 13.04 20.1318 13.24C20.1585 13.4267 20.1185 13.62 20.0118 13.82C19.9185 14.02 19.7518 14.1933 19.5118 14.34C19.0451 14.6333 18.5051 14.8533 17.8918 15C17.2918 15.1333 16.7318 15.2 16.2118 15.2ZM26.6726 15.2C25.8059 15.2 25.0792 15.0533 24.4926 14.76C23.9192 14.4667 23.4926 14.04 23.2126 13.48C22.9326 12.9067 22.7926 12.2 22.7926 11.36V7.1H21.7526C21.4326 7.1 21.1859 7.02 21.0126 6.86C20.8392 6.68667 20.7526 6.45333 20.7526 6.16C20.7526 5.85333 20.8392 5.62 21.0126 5.46C21.1859 5.3 21.4326 5.22 21.7526 5.22H22.7926V3.4C22.7926 2.98667 22.8992 2.67333 23.1126 2.46C23.3392 2.24667 23.6526 2.14 24.0526 2.14C24.4526 2.14 24.7592 2.24667 24.9726 2.46C25.1859 2.67333 25.2926 2.98667 25.2926 3.4V5.22H27.4126C27.7326 5.22 27.9792 5.3 28.1526 5.46C28.3259 5.62 28.4126 5.85333 28.4126 6.16C28.4126 6.45333 28.3259 6.68667 28.1526 6.86C27.9792 7.02 27.7326 7.1 27.4126 7.1H25.2926V11.22C25.2926 11.86 25.4326 12.34 25.7126 12.66C25.9926 12.98 26.4459 13.14 27.0726 13.14C27.2992 13.14 27.4992 13.12 27.6726 13.08C27.8459 13.04 27.9992 13.0133 28.1326 13C28.2926 12.9867 28.4259 13.04 28.5326 13.16C28.6392 13.2667 28.6926 13.4933 28.6926 13.84C28.6926 14.1067 28.6459 14.3467 28.5526 14.56C28.4726 14.76 28.3192 14.9 28.0926 14.98C27.9192 15.0333 27.6926 15.08 27.4126 15.12C27.1326 15.1733 26.8859 15.2 26.6726 15.2ZM31.3884 5.8C31.215 6.01333 31.0284 6.13333 30.8284 6.16C30.6417 6.18667 30.475 6.15333 30.3284 6.06C30.1817 5.95333 30.1017 5.80667 30.0884 5.62C30.075 5.42 30.1617 5.20667 30.3484 4.98C30.615 4.64667 30.795 4.31333 30.8884 3.98C30.9817 3.64667 31.0284 3.35333 31.0284 3.1L31.1284 3.76C30.6617 3.76 30.2817 3.62667 29.9884 3.36C29.7084 3.09333 29.5684 2.73333 29.5684 2.28C29.5684 1.84 29.7017 1.48667 29.9684 1.22C30.235 0.939999 30.595 0.799999 31.0484 0.799999C31.515 0.799999 31.8817 0.959999 32.1484 1.28C32.415 1.58667 32.5484 2.03333 32.5484 2.62C32.5484 2.94 32.515 3.27333 32.4484 3.62C32.395 3.95333 32.2817 4.30667 32.1084 4.68C31.9484 5.04 31.7084 5.41333 31.3884 5.8ZM37.8429 15.2C37.2696 15.2 36.6629 15.14 36.0229 15.02C35.3829 14.9 34.8096 14.6933 34.3029 14.4C34.0896 14.2667 33.9362 14.1133 33.8429 13.94C33.7629 13.7533 33.7296 13.5733 33.7429 13.4C33.7696 13.2133 33.8362 13.0533 33.9429 12.92C34.0629 12.7867 34.2096 12.7 34.3829 12.66C34.5696 12.62 34.7696 12.6533 34.9829 12.76C35.5162 13.0133 36.0162 13.1933 36.4829 13.3C36.9496 13.3933 37.4096 13.44 37.8629 13.44C38.5029 13.44 38.9762 13.3333 39.2829 13.12C39.6029 12.8933 39.7629 12.6 39.7629 12.24C39.7629 11.9333 39.6562 11.7 39.4429 11.54C39.2429 11.3667 38.9362 11.24 38.5229 11.16L36.5229 10.78C35.6962 10.62 35.0629 10.32 34.6229 9.88C34.1962 9.42667 33.9829 8.84667 33.9829 8.14C33.9829 7.5 34.1562 6.94667 34.5029 6.48C34.8629 6.01333 35.3562 5.65333 35.9829 5.4C36.6096 5.14667 37.3296 5.02 38.1429 5.02C38.7296 5.02 39.2762 5.08667 39.7829 5.22C40.3029 5.34 40.8029 5.53333 41.2829 5.8C41.4829 5.90667 41.6162 6.04667 41.6829 6.22C41.7629 6.39333 41.7829 6.57333 41.7429 6.76C41.7029 6.93333 41.6229 7.09333 41.5029 7.24C41.3829 7.37333 41.2296 7.46 41.0429 7.5C40.8696 7.52667 40.6696 7.48667 40.4429 7.38C40.0296 7.16667 39.6296 7.01333 39.2429 6.92C38.8696 6.82667 38.5096 6.78 38.1629 6.78C37.5096 6.78 37.0229 6.89333 36.7029 7.12C36.3962 7.34667 36.2429 7.64667 36.2429 8.02C36.2429 8.3 36.3362 8.53333 36.5229 8.72C36.7096 8.90667 36.9962 9.03333 37.3829 9.1L39.3829 9.48C40.2496 9.64 40.9029 9.93333 41.3429 10.36C41.7962 10.7867 42.0229 11.36 42.0229 12.08C42.0229 13.0533 41.6429 13.82 40.8829 14.38C40.1229 14.9267 39.1096 15.2 37.8429 15.2ZM50.7382 15.16C50.3382 15.16 50.0315 15.0533 49.8182 14.84C49.6049 14.6133 49.4982 14.2933 49.4982 13.88V6.32C49.4982 5.90667 49.6049 5.59333 49.8182 5.38C50.0315 5.16667 50.3315 5.06 50.7182 5.06C51.1049 5.06 51.4049 5.16667 51.6182 5.38C51.8315 5.59333 51.9382 5.90667 51.9382 6.32V7.78L51.7182 7.18C51.9849 6.51333 52.3982 5.98667 52.9582 5.6C53.5182 5.21333 54.1849 5.02 54.9582 5.02C55.7449 5.02 56.3915 5.20667 56.8982 5.58C57.4049 5.95333 57.7582 6.52667 57.9582 7.3H57.6782C57.9449 6.59333 58.3849 6.04 58.9982 5.64C59.6115 5.22667 60.3182 5.02 61.1182 5.02C61.8649 5.02 62.4782 5.16667 62.9582 5.46C63.4515 5.75333 63.8182 6.2 64.0582 6.8C64.2982 7.38667 64.4182 8.13333 64.4182 9.04V13.88C64.4182 14.2933 64.3049 14.6133 64.0782 14.84C63.8649 15.0533 63.5582 15.16 63.1582 15.16C62.7582 15.16 62.4515 15.0533 62.2382 14.84C62.0249 14.6133 61.9182 14.2933 61.9182 13.88V9.14C61.9182 8.39333 61.7915 7.84667 61.5382 7.5C61.2982 7.15333 60.8849 6.98 60.2982 6.98C59.6449 6.98 59.1315 7.21333 58.7582 7.68C58.3849 8.13333 58.1982 8.76667 58.1982 9.58V13.88C58.1982 14.2933 58.0915 14.6133 57.8782 14.84C57.6649 15.0533 57.3582 15.16 56.9582 15.16C56.5582 15.16 56.2449 15.0533 56.0182 14.84C55.8049 14.6133 55.6982 14.2933 55.6982 13.88V9.14C55.6982 8.39333 55.5715 7.84667 55.3182 7.5C55.0782 7.15333 54.6715 6.98 54.0982 6.98C53.4449 6.98 52.9315 7.21333 52.5582 7.68C52.1849 8.13333 51.9982 8.76667 51.9982 9.58V13.88C51.9982 14.7333 51.5782 15.16 50.7382 15.16ZM70.2173 15.2C69.5106 15.2 68.8773 15.0667 68.3173 14.8C67.7706 14.52 67.3373 14.1467 67.0173 13.68C66.7106 13.2133 66.5573 12.6867 66.5573 12.1C66.5573 11.38 66.7439 10.8133 67.1173 10.4C67.4906 9.97333 68.0973 9.66667 68.9373 9.48C69.7773 9.29333 70.9039 9.2 72.3173 9.2H73.3173V10.64H72.3373C71.5106 10.64 70.8506 10.68 70.3573 10.76C69.8639 10.84 69.5106 10.98 69.2973 11.18C69.0973 11.3667 68.9973 11.6333 68.9973 11.98C68.9973 12.42 69.1506 12.78 69.4573 13.06C69.7639 13.34 70.1906 13.48 70.7373 13.48C71.1773 13.48 71.5639 13.38 71.8973 13.18C72.2439 12.9667 72.5173 12.68 72.7173 12.32C72.9173 11.96 73.0173 11.5467 73.0173 11.08V8.78C73.0173 8.11333 72.8706 7.63333 72.5773 7.34C72.2839 7.04667 71.7906 6.9 71.0973 6.9C70.7106 6.9 70.2906 6.94667 69.8373 7.04C69.3973 7.13333 68.9306 7.29333 68.4373 7.52C68.1839 7.64 67.9573 7.67333 67.7573 7.62C67.5706 7.56667 67.4239 7.46 67.3173 7.3C67.2106 7.12667 67.1573 6.94 67.1573 6.74C67.1573 6.54 67.2106 6.34667 67.3173 6.16C67.4239 5.96 67.6039 5.81333 67.8573 5.72C68.4706 5.46667 69.0573 5.28667 69.6173 5.18C70.1906 5.07333 70.7106 5.02 71.1773 5.02C72.1373 5.02 72.9239 5.16667 73.5373 5.46C74.1639 5.75333 74.6306 6.2 74.9373 6.8C75.2439 7.38667 75.3973 8.14667 75.3973 9.08V13.88C75.3973 14.2933 75.2973 14.6133 75.0973 14.84C74.8973 15.0533 74.6106 15.16 74.2373 15.16C73.8639 15.16 73.5706 15.0533 73.3573 14.84C73.1573 14.6133 73.0573 14.2933 73.0573 13.88V12.92H73.2173C73.1239 13.3867 72.9373 13.7933 72.6573 14.14C72.3906 14.4733 72.0506 14.7333 71.6373 14.92C71.2239 15.1067 70.7506 15.2 70.2173 15.2ZM79.2148 15.16C78.8014 15.16 78.4814 15.0533 78.2548 14.84C78.0414 14.6133 77.9348 14.2933 77.9348 13.88V6.32C77.9348 5.90667 78.0414 5.59333 78.2548 5.38C78.4681 5.16667 78.7681 5.06 79.1548 5.06C79.5414 5.06 79.8414 5.16667 80.0548 5.38C80.2681 5.59333 80.3748 5.90667 80.3748 6.32V7.58H80.1748C80.3614 6.78 80.7281 6.17333 81.2748 5.76C81.8214 5.34667 82.5481 5.1 83.4548 5.02C83.7348 4.99333 83.9548 5.06667 84.1148 5.24C84.2881 5.4 84.3881 5.65333 84.4148 6C84.4414 6.33333 84.3614 6.60667 84.1748 6.82C84.0014 7.02 83.7348 7.14 83.3748 7.18L82.9348 7.22C82.1214 7.3 81.5081 7.55333 81.0948 7.98C80.6814 8.39333 80.4748 8.98 80.4748 9.74V13.88C80.4748 14.2933 80.3681 14.6133 80.1548 14.84C79.9414 15.0533 79.6281 15.16 79.2148 15.16ZM87.0068 15.16C86.6068 15.16 86.3001 15.0533 86.0868 14.84C85.8735 14.6133 85.7668 14.2933 85.7668 13.88V2C85.7668 1.58667 85.8735 1.27333 86.0868 1.06C86.3001 0.846666 86.6068 0.739999 87.0068 0.739999C87.4068 0.739999 87.7135 0.846666 87.9268 1.06C88.1535 1.27333 88.2668 1.58667 88.2668 2V9.38H88.3068L91.6068 5.9C91.8735 5.63333 92.1068 5.42667 92.3068 5.28C92.5068 5.13333 92.7801 5.06 93.1268 5.06C93.4735 5.06 93.7335 5.15333 93.9068 5.34C94.0935 5.51333 94.1868 5.72667 94.1868 5.98C94.1868 6.23333 94.0668 6.48667 93.8268 6.74L90.3468 10.42V9.38L94.1668 13.5C94.4068 13.7533 94.5135 14.0133 94.4868 14.28C94.4735 14.5333 94.3668 14.7467 94.1668 14.92C93.9668 15.08 93.7135 15.16 93.4068 15.16C93.0335 15.16 92.7335 15.0867 92.5068 14.94C92.2935 14.7933 92.0535 14.5733 91.7868 14.28L88.3068 10.64H88.2668V13.88C88.2668 14.7333 87.8468 15.16 87.0068 15.16ZM105.139 15.2C104.432 15.2 103.799 15.0667 103.239 14.8C102.692 14.52 102.259 14.1467 101.939 13.68C101.632 13.2133 101.479 12.6867 101.479 12.1C101.479 11.38 101.666 10.8133 102.039 10.4C102.412 9.97333 103.019 9.66667 103.859 9.48C104.699 9.29333 105.826 9.2 107.239 9.2H108.239V10.64H107.259C106.432 10.64 105.772 10.68 105.279 10.76C104.786 10.84 104.432 10.98 104.219 11.18C104.019 11.3667 103.919 11.6333 103.919 11.98C103.919 12.42 104.072 12.78 104.379 13.06C104.686 13.34 105.112 13.48 105.659 13.48C106.099 13.48 106.486 13.38 106.819 13.18C107.166 12.9667 107.439 12.68 107.639 12.32C107.839 11.96 107.939 11.5467 107.939 11.08V8.78C107.939 8.11333 107.792 7.63333 107.499 7.34C107.206 7.04667 106.712 6.9 106.019 6.9C105.632 6.9 105.212 6.94667 104.759 7.04C104.319 7.13333 103.852 7.29333 103.359 7.52C103.106 7.64 102.879 7.67333 102.679 7.62C102.492 7.56667 102.346 7.46 102.239 7.3C102.132 7.12667 102.079 6.94 102.079 6.74C102.079 6.54 102.132 6.34667 102.239 6.16C102.346 5.96 102.526 5.81333 102.779 5.72C103.392 5.46667 103.979 5.28667 104.539 5.18C105.112 5.07333 105.632 5.02 106.099 5.02C107.059 5.02 107.846 5.16667 108.459 5.46C109.086 5.75333 109.552 6.2 109.859 6.8C110.166 7.38667 110.319 8.14667 110.319 9.08V13.88C110.319 14.2933 110.219 14.6133 110.019 14.84C109.819 15.0533 109.532 15.16 109.159 15.16C108.786 15.16 108.492 15.0533 108.279 14.84C108.079 14.6133 107.979 14.2933 107.979 13.88V12.92H108.139C108.046 13.3867 107.859 13.7933 107.579 14.14C107.312 14.4733 106.972 14.7333 106.559 14.92C106.146 15.1067 105.672 15.2 105.139 15.2ZM119.526 18.76C119.126 18.76 118.82 18.6533 118.606 18.44C118.393 18.2267 118.286 17.9133 118.286 17.5V6.32C118.286 5.90667 118.393 5.59333 118.606 5.38C118.82 5.16667 119.12 5.06 119.506 5.06C119.906 5.06 120.213 5.16667 120.426 5.38C120.64 5.59333 120.746 5.90667 120.746 6.32V7.88L120.526 7.28C120.726 6.6 121.133 6.05333 121.746 5.64C122.373 5.22667 123.1 5.02 123.926 5.02C124.78 5.02 125.526 5.22667 126.166 5.64C126.82 6.05333 127.326 6.64 127.686 7.4C128.046 8.14667 128.226 9.04667 128.226 10.1C128.226 11.14 128.046 12.0467 127.686 12.82C127.326 13.58 126.826 14.1667 126.186 14.58C125.546 14.9933 124.793 15.2 123.926 15.2C123.113 15.2 122.4 15 121.786 14.6C121.173 14.1867 120.76 13.6533 120.546 13H120.786V17.5C120.786 17.9133 120.673 18.2267 120.446 18.44C120.233 18.6533 119.926 18.76 119.526 18.76ZM123.226 13.3C123.72 13.3 124.153 13.18 124.526 12.94C124.9 12.7 125.186 12.3467 125.386 11.88C125.6 11.4 125.706 10.8067 125.706 10.1C125.706 9.03333 125.48 8.24 125.026 7.72C124.573 7.18667 123.973 6.92 123.226 6.92C122.733 6.92 122.3 7.04 121.926 7.28C121.553 7.50667 121.26 7.86 121.046 8.34C120.846 8.80667 120.746 9.39333 120.746 10.1C120.746 11.1533 120.973 11.9533 121.426 12.5C121.88 13.0333 122.48 13.3 123.226 13.3ZM134.739 15.2C133.725 15.2 132.845 14.9933 132.099 14.58C131.352 14.1667 130.772 13.58 130.359 12.82C129.945 12.0467 129.739 11.14 129.739 10.1C129.739 9.31333 129.852 8.61333 130.079 8C130.319 7.37333 130.659 6.84 131.099 6.4C131.539 5.94667 132.065 5.60667 132.679 5.38C133.292 5.14 133.979 5.02 134.739 5.02C135.752 5.02 136.632 5.22667 137.379 5.64C138.125 6.05333 138.705 6.64 139.119 7.4C139.532 8.16 139.739 9.06 139.739 10.1C139.739 10.8867 139.619 11.5933 139.379 12.22C139.152 12.8467 138.819 13.3867 138.379 13.84C137.939 14.28 137.412 14.62 136.799 14.86C136.185 15.0867 135.499 15.2 134.739 15.2ZM134.739 13.3C135.232 13.3 135.665 13.18 136.039 12.94C136.412 12.7 136.699 12.3467 136.899 11.88C137.112 11.4 137.219 10.8067 137.219 10.1C137.219 9.03333 136.992 8.24 136.539 7.72C136.085 7.18667 135.485 6.92 134.739 6.92C134.245 6.92 133.812 7.04 133.439 7.28C133.065 7.50667 132.772 7.86 132.559 8.34C132.359 8.80667 132.259 9.39333 132.259 10.1C132.259 11.1533 132.485 11.9533 132.939 12.5C133.392 13.0333 133.992 13.3 134.739 13.3ZM143.042 15.14C142.642 15.14 142.335 15.02 142.122 14.78C141.909 14.54 141.802 14.2067 141.802 13.78V6.44C141.802 6 141.909 5.66667 142.122 5.44C142.335 5.2 142.642 5.08 143.042 5.08C143.442 5.08 143.749 5.2 143.962 5.44C144.189 5.66667 144.302 6 144.302 6.44V13.78C144.302 14.2067 144.195 14.54 143.982 14.78C143.769 15.02 143.455 15.14 143.042 15.14ZM143.042 3.22C142.575 3.22 142.209 3.10667 141.942 2.88C141.689 2.64 141.562 2.31333 141.562 1.9C141.562 1.47333 141.689 1.14667 141.942 0.919999C142.209 0.693333 142.575 0.58 143.042 0.58C143.522 0.58 143.889 0.693333 144.142 0.919999C144.395 1.14667 144.522 1.47333 144.522 1.9C144.522 2.31333 144.395 2.64 144.142 2.88C143.889 3.10667 143.522 3.22 143.042 3.22ZM148.14 15.16C147.74 15.16 147.433 15.0533 147.22 14.84C147.006 14.6133 146.9 14.2933 146.9 13.88V6.32C146.9 5.90667 147.006 5.59333 147.22 5.38C147.433 5.16667 147.733 5.06 148.12 5.06C148.506 5.06 148.806 5.16667 149.02 5.38C149.233 5.59333 149.34 5.90667 149.34 6.32V7.68L149.12 7.18C149.413 6.47333 149.866 5.94 150.48 5.58C151.106 5.20667 151.813 5.02 152.6 5.02C153.386 5.02 154.033 5.16667 154.54 5.46C155.046 5.75333 155.426 6.2 155.68 6.8C155.933 7.38667 156.06 8.13333 156.06 9.04V13.88C156.06 14.2933 155.953 14.6133 155.74 14.84C155.526 15.0533 155.22 15.16 154.82 15.16C154.42 15.16 154.106 15.0533 153.88 14.84C153.666 14.6133 153.56 14.2933 153.56 13.88V9.16C153.56 8.4 153.413 7.84667 153.12 7.5C152.84 7.15333 152.4 6.98 151.8 6.98C151.066 6.98 150.48 7.21333 150.04 7.68C149.613 8.13333 149.4 8.74 149.4 9.5V13.88C149.4 14.7333 148.98 15.16 148.14 15.16ZM163.079 15.2C162.212 15.2 161.485 15.0533 160.899 14.76C160.325 14.4667 159.899 14.04 159.619 13.48C159.339 12.9067 159.199 12.2 159.199 11.36V7.1H158.159C157.839 7.1 157.592 7.02 157.419 6.86C157.245 6.68667 157.159 6.45333 157.159 6.16C157.159 5.85333 157.245 5.62 157.419 5.46C157.592 5.3 157.839 5.22 158.159 5.22H159.199V3.4C159.199 2.98667 159.305 2.67333 159.519 2.46C159.745 2.24667 160.059 2.14 160.459 2.14C160.859 2.14 161.165 2.24667 161.379 2.46C161.592 2.67333 161.699 2.98667 161.699 3.4V5.22H163.819C164.139 5.22 164.385 5.3 164.559 5.46C164.732 5.62 164.819 5.85333 164.819 6.16C164.819 6.45333 164.732 6.68667 164.559 6.86C164.385 7.02 164.139 7.1 163.819 7.1H161.699V11.22C161.699 11.86 161.839 12.34 162.119 12.66C162.399 12.98 162.852 13.14 163.479 13.14C163.705 13.14 163.905 13.12 164.079 13.08C164.252 13.04 164.405 13.0133 164.539 13C164.699 12.9867 164.832 13.04 164.939 13.16C165.045 13.2667 165.099 13.4933 165.099 13.84C165.099 14.1067 165.052 14.3467 164.959 14.56C164.879 14.76 164.725 14.9 164.499 14.98C164.325 15.0333 164.099 15.08 163.819 15.12C163.539 15.1733 163.292 15.2 163.079 15.2ZM174.924 15.2C174.218 15.2 173.584 15.0667 173.024 14.8C172.478 14.52 172.044 14.1467 171.724 13.68C171.418 13.2133 171.264 12.6867 171.264 12.1C171.264 11.38 171.451 10.8133 171.824 10.4C172.198 9.97333 172.804 9.66667 173.644 9.48C174.484 9.29333 175.611 9.2 177.024 9.2H178.024V10.64H177.044C176.218 10.64 175.558 10.68 175.064 10.76C174.571 10.84 174.218 10.98 174.004 11.18C173.804 11.3667 173.704 11.6333 173.704 11.98C173.704 12.42 173.858 12.78 174.164 13.06C174.471 13.34 174.898 13.48 175.444 13.48C175.884 13.48 176.271 13.38 176.604 13.18C176.951 12.9667 177.224 12.68 177.424 12.32C177.624 11.96 177.724 11.5467 177.724 11.08V8.78C177.724 8.11333 177.578 7.63333 177.284 7.34C176.991 7.04667 176.498 6.9 175.804 6.9C175.418 6.9 174.998 6.94667 174.544 7.04C174.104 7.13333 173.638 7.29333 173.144 7.52C172.891 7.64 172.664 7.67333 172.464 7.62C172.278 7.56667 172.131 7.46 172.024 7.3C171.918 7.12667 171.864 6.94 171.864 6.74C171.864 6.54 171.918 6.34667 172.024 6.16C172.131 5.96 172.311 5.81333 172.564 5.72C173.178 5.46667 173.764 5.28667 174.324 5.18C174.898 5.07333 175.418 5.02 175.884 5.02C176.844 5.02 177.631 5.16667 178.244 5.46C178.871 5.75333 179.338 6.2 179.644 6.8C179.951 7.38667 180.104 8.14667 180.104 9.08V13.88C180.104 14.2933 180.004 14.6133 179.804 14.84C179.604 15.0533 179.318 15.16 178.944 15.16C178.571 15.16 178.278 15.0533 178.064 14.84C177.864 14.6133 177.764 14.2933 177.764 13.88V12.92H177.924C177.831 13.3867 177.644 13.7933 177.364 14.14C177.098 14.4733 176.758 14.7333 176.344 14.92C175.931 15.1067 175.458 15.2 174.924 15.2ZM186.222 15.2C185.648 15.2 185.042 15.14 184.402 15.02C183.762 14.9 183.188 14.6933 182.682 14.4C182.468 14.2667 182.315 14.1133 182.222 13.94C182.142 13.7533 182.108 13.5733 182.122 13.4C182.148 13.2133 182.215 13.0533 182.322 12.92C182.442 12.7867 182.588 12.7 182.762 12.66C182.948 12.62 183.148 12.6533 183.362 12.76C183.895 13.0133 184.395 13.1933 184.862 13.3C185.328 13.3933 185.788 13.44 186.242 13.44C186.882 13.44 187.355 13.3333 187.662 13.12C187.982 12.8933 188.142 12.6 188.142 12.24C188.142 11.9333 188.035 11.7 187.822 11.54C187.622 11.3667 187.315 11.24 186.902 11.16L184.902 10.78C184.075 10.62 183.442 10.32 183.002 9.88C182.575 9.42667 182.362 8.84667 182.362 8.14C182.362 7.5 182.535 6.94667 182.882 6.48C183.242 6.01333 183.735 5.65333 184.362 5.4C184.988 5.14667 185.708 5.02 186.522 5.02C187.108 5.02 187.655 5.08667 188.162 5.22C188.682 5.34 189.182 5.53333 189.662 5.8C189.862 5.90667 189.995 6.04667 190.062 6.22C190.142 6.39333 190.162 6.57333 190.122 6.76C190.082 6.93333 190.002 7.09333 189.882 7.24C189.762 7.37333 189.608 7.46 189.422 7.5C189.248 7.52667 189.048 7.48667 188.822 7.38C188.408 7.16667 188.008 7.01333 187.622 6.92C187.248 6.82667 186.888 6.78 186.542 6.78C185.888 6.78 185.402 6.89333 185.082 7.12C184.775 7.34667 184.622 7.64667 184.622 8.02C184.622 8.3 184.715 8.53333 184.902 8.72C185.088 8.90667 185.375 9.03333 185.762 9.1L187.762 9.48C188.628 9.64 189.282 9.93333 189.722 10.36C190.175 10.7867 190.402 11.36 190.402 12.08C190.402 13.0533 190.022 13.82 189.262 14.38C188.502 14.9267 187.488 15.2 186.222 15.2ZM201.417 15.2C200.844 15.2 200.237 15.14 199.597 15.02C198.957 14.9 198.384 14.6933 197.877 14.4C197.664 14.2667 197.51 14.1133 197.417 13.94C197.337 13.7533 197.304 13.5733 197.317 13.4C197.344 13.2133 197.41 13.0533 197.517 12.92C197.637 12.7867 197.784 12.7 197.957 12.66C198.144 12.62 198.344 12.6533 198.557 12.76C199.09 13.0133 199.59 13.1933 200.057 13.3C200.524 13.3933 200.984 13.44 201.437 13.44C202.077 13.44 202.55 13.3333 202.857 13.12C203.177 12.8933 203.337 12.6 203.337 12.24C203.337 11.9333 203.23 11.7 203.017 11.54C202.817 11.3667 202.51 11.24 202.097 11.16L200.097 10.78C199.27 10.62 198.637 10.32 198.197 9.88C197.77 9.42667 197.557 8.84667 197.557 8.14C197.557 7.5 197.73 6.94667 198.077 6.48C198.437 6.01333 198.93 5.65333 199.557 5.4C200.184 5.14667 200.904 5.02 201.717 5.02C202.304 5.02 202.85 5.08667 203.357 5.22C203.877 5.34 204.377 5.53333 204.857 5.8C205.057 5.90667 205.19 6.04667 205.257 6.22C205.337 6.39333 205.357 6.57333 205.317 6.76C205.277 6.93333 205.197 7.09333 205.077 7.24C204.957 7.37333 204.804 7.46 204.617 7.5C204.444 7.52667 204.244 7.48667 204.017 7.38C203.604 7.16667 203.204 7.01333 202.817 6.92C202.444 6.82667 202.084 6.78 201.737 6.78C201.084 6.78 200.597 6.89333 200.277 7.12C199.97 7.34667 199.817 7.64667 199.817 8.02C199.817 8.3 199.91 8.53333 200.097 8.72C200.284 8.90667 200.57 9.03333 200.957 9.1L202.957 9.48C203.824 9.64 204.477 9.93333 204.917 10.36C205.37 10.7867 205.597 11.36 205.597 12.08C205.597 13.0533 205.217 13.82 204.457 14.38C203.697 14.9267 202.684 15.2 201.417 15.2ZM208.843 15.16C208.443 15.16 208.136 15.0533 207.923 14.84C207.709 14.6133 207.603 14.2933 207.603 13.88V2C207.603 1.58667 207.709 1.27333 207.923 1.06C208.136 0.846666 208.443 0.739999 208.843 0.739999C209.243 0.739999 209.549 0.846666 209.763 1.06C209.989 1.27333 210.103 1.58667 210.103 2V7.18H209.823C210.116 6.47333 210.569 5.94 211.183 5.58C211.809 5.20667 212.516 5.02 213.303 5.02C214.089 5.02 214.736 5.16667 215.243 5.46C215.749 5.75333 216.129 6.2 216.383 6.8C216.636 7.38667 216.763 8.13333 216.763 9.04V13.88C216.763 14.2933 216.656 14.6133 216.443 14.84C216.229 15.0533 215.923 15.16 215.523 15.16C215.123 15.16 214.809 15.0533 214.583 14.84C214.369 14.6133 214.263 14.2933 214.263 13.88V9.16C214.263 8.4 214.116 7.84667 213.823 7.5C213.543 7.15333 213.103 6.98 212.503 6.98C211.769 6.98 211.183 7.21333 210.743 7.68C210.316 8.13333 210.103 8.74 210.103 9.5V13.88C210.103 14.7333 209.683 15.16 208.843 15.16ZM223.762 15.2C222.749 15.2 221.869 14.9933 221.122 14.58C220.375 14.1667 219.795 13.58 219.382 12.82C218.969 12.0467 218.762 11.14 218.762 10.1C218.762 9.31333 218.875 8.61333 219.102 8C219.342 7.37333 219.682 6.84 220.122 6.4C220.562 5.94667 221.089 5.60667 221.702 5.38C222.315 5.14 223.002 5.02 223.762 5.02C224.775 5.02 225.655 5.22667 226.402 5.64C227.149 6.05333 227.729 6.64 228.142 7.4C228.555 8.16 228.762 9.06 228.762 10.1C228.762 10.8867 228.642 11.5933 228.402 12.22C228.175 12.8467 227.842 13.3867 227.402 13.84C226.962 14.28 226.435 14.62 225.822 14.86C225.209 15.0867 224.522 15.2 223.762 15.2ZM223.762 13.3C224.255 13.3 224.689 13.18 225.062 12.94C225.435 12.7 225.722 12.3467 225.922 11.88C226.135 11.4 226.242 10.8067 226.242 10.1C226.242 9.03333 226.015 8.24 225.562 7.72C225.109 7.18667 224.509 6.92 223.762 6.92C223.269 6.92 222.835 7.04 222.462 7.28C222.089 7.50667 221.795 7.86 221.582 8.34C221.382 8.80667 221.282 9.39333 221.282 10.1C221.282 11.1533 221.509 11.9533 221.962 12.5C222.415 13.0333 223.015 13.3 223.762 13.3ZM234.41 15.16C234.077 15.16 233.79 15.08 233.55 14.92C233.31 14.7467 233.117 14.48 232.97 14.12L230.07 6.72C229.95 6.4 229.91 6.12 229.95 5.88C230.003 5.62667 230.13 5.42667 230.33 5.28C230.53 5.13333 230.797 5.06 231.13 5.06C231.423 5.06 231.663 5.13333 231.85 5.28C232.037 5.41333 232.197 5.67333 232.33 6.06L234.75 12.72H234.29L236.79 5.9C236.897 5.60667 237.037 5.39333 237.21 5.26C237.397 5.12667 237.637 5.06 237.93 5.06C238.223 5.06 238.463 5.13333 238.65 5.28C238.837 5.41333 238.977 5.62 239.07 5.9L241.53 12.72H241.11L243.55 6C243.683 5.64 243.85 5.39333 244.05 5.26C244.263 5.12667 244.497 5.06 244.75 5.06C245.07 5.06 245.317 5.14 245.49 5.3C245.663 5.46 245.763 5.66667 245.79 5.92C245.817 6.16 245.77 6.42667 245.65 6.72L242.77 14.12C242.637 14.4667 242.443 14.7267 242.19 14.9C241.95 15.0733 241.663 15.16 241.33 15.16C240.997 15.16 240.703 15.0733 240.45 14.9C240.21 14.7267 240.023 14.4667 239.89 14.12L237.27 7.18H238.41L235.85 14.1C235.717 14.46 235.53 14.7267 235.29 14.9C235.05 15.0733 234.757 15.16 234.41 15.16ZM248.921 15.16C248.521 15.16 248.214 15.0533 248.001 14.84C247.788 14.6133 247.681 14.2933 247.681 13.88V6.32C247.681 5.90667 247.788 5.59333 248.001 5.38C248.214 5.16667 248.514 5.06 248.901 5.06C249.288 5.06 249.588 5.16667 249.801 5.38C250.014 5.59333 250.121 5.90667 250.121 6.32V7.68L249.901 7.18C250.194 6.47333 250.648 5.94 251.261 5.58C251.888 5.20667 252.594 5.02 253.381 5.02C254.168 5.02 254.814 5.16667 255.321 5.46C255.828 5.75333 256.208 6.2 256.461 6.8C256.714 7.38667 256.841 8.13333 256.841 9.04V13.88C256.841 14.2933 256.734 14.6133 256.521 14.84C256.308 15.0533 256.001 15.16 255.601 15.16C255.201 15.16 254.888 15.0533 254.661 14.84C254.448 14.6133 254.341 14.2933 254.341 13.88V9.16C254.341 8.4 254.194 7.84667 253.901 7.5C253.621 7.15333 253.181 6.98 252.581 6.98C251.848 6.98 251.261 7.21333 250.821 7.68C250.394 8.13333 250.181 8.74 250.181 9.5V13.88C250.181 14.7333 249.761 15.16 248.921 15.16ZM260.58 15.1C260.127 15.1 259.76 14.96 259.48 14.68C259.213 14.4 259.08 14.04 259.08 13.6C259.08 13.1733 259.213 12.8267 259.48 12.56C259.76 12.28 260.127 12.14 260.58 12.14C261.047 12.14 261.407 12.28 261.66 12.56C261.927 12.8267 262.06 13.1733 262.06 13.6C262.06 14.04 261.927 14.4 261.66 14.68C261.407 14.96 261.047 15.1 260.58 15.1Z" fill="#444444"/>
</svg>
