<svg width="284" height="19" viewBox="0 0 284 19" fill="none" xmlns="http://www.w3.org/2000/svg">
<path d="M7.62367 15.2C6.26367 15.2 5.07034 14.9 4.04367 14.3C3.03034 13.7 2.24367 12.86 1.68367 11.78C1.12367 10.6867 0.843672 9.40667 0.843672 7.94C0.843672 6.83333 1.00367 5.84 1.32367 4.96C1.64367 4.06667 2.09701 3.30667 2.68367 2.68C3.28367 2.04 3.99701 1.55333 4.82367 1.22C5.66367 0.873333 6.59701 0.699999 7.62367 0.699999C8.99701 0.699999 10.1903 0.999999 11.2037 1.6C12.217 2.18667 13.0037 3.02 13.5637 4.1C14.1237 5.18 14.4037 6.45333 14.4037 7.92C14.4037 9.02667 14.2437 10.0267 13.9237 10.92C13.6037 11.8133 13.1437 12.58 12.5437 13.22C11.957 13.86 11.2437 14.3533 10.4037 14.7C9.57701 15.0333 8.65034 15.2 7.62367 15.2ZM7.62367 13C8.49034 13 9.22367 12.8 9.82367 12.4C10.437 12 10.9037 11.42 11.2237 10.66C11.557 9.9 11.7237 8.99333 11.7237 7.94C11.7237 6.34 11.3637 5.1 10.6437 4.22C9.93701 3.34 8.93034 2.9 7.62367 2.9C6.77034 2.9 6.03701 3.1 5.42367 3.5C4.81034 3.88667 4.33701 4.46 4.00367 5.22C3.68367 5.96667 3.52367 6.87333 3.52367 7.94C3.52367 9.52667 3.88367 10.7667 4.60367 11.66C5.32367 12.5533 6.33034 13 7.62367 13ZM22.4068 15.2C21.5801 15.2 20.8535 14.9933 20.2268 14.58C19.6135 14.1667 19.2068 13.6133 19.0068 12.92L19.2268 12.42V13.88C19.2268 14.2933 19.1201 14.6133 18.9068 14.84C18.6935 15.0533 18.3935 15.16 18.0068 15.16C17.6068 15.16 17.3001 15.0533 17.0868 14.84C16.8735 14.6133 16.7668 14.2933 16.7668 13.88V2C16.7668 1.58667 16.8735 1.27333 17.0868 1.06C17.3001 0.846666 17.6068 0.739999 18.0068 0.739999C18.4068 0.739999 18.7135 0.846666 18.9268 1.06C19.1535 1.27333 19.2668 1.58667 19.2668 2V7.2H19.0268C19.2401 6.54667 19.6535 6.02 20.2668 5.62C20.8801 5.22 21.5935 5.02 22.4068 5.02C23.2735 5.02 24.0268 5.22667 24.6668 5.64C25.3068 6.05333 25.8068 6.64 26.1668 7.4C26.5268 8.14667 26.7068 9.04667 26.7068 10.1C26.7068 11.14 26.5268 12.0467 26.1668 12.82C25.8068 13.58 25.3001 14.1667 24.6468 14.58C24.0068 14.9933 23.2601 15.2 22.4068 15.2ZM21.7068 13.3C22.2001 13.3 22.6335 13.18 23.0068 12.94C23.3801 12.7 23.6668 12.3467 23.8668 11.88C24.0801 11.4 24.1868 10.8067 24.1868 10.1C24.1868 9.03333 23.9601 8.24 23.5068 7.72C23.0535 7.18667 22.4535 6.92 21.7068 6.92C21.2135 6.92 20.7801 7.04 20.4068 7.28C20.0335 7.50667 19.7401 7.86 19.5268 8.34C19.3268 8.80667 19.2268 9.39333 19.2268 10.1C19.2268 11.1533 19.4535 11.9533 19.9068 12.5C20.3601 13.0333 20.9601 13.3 21.7068 13.3ZM32.339 15.2C31.7657 15.2 31.159 15.14 30.519 15.02C29.879 14.9 29.3057 14.6933 28.799 14.4C28.5857 14.2667 28.4323 14.1133 28.339 13.94C28.259 13.7533 28.2257 13.5733 28.239 13.4C28.2657 13.2133 28.3323 13.0533 28.439 12.92C28.559 12.7867 28.7057 12.7 28.879 12.66C29.0657 12.62 29.2657 12.6533 29.479 12.76C30.0123 13.0133 30.5123 13.1933 30.979 13.3C31.4457 13.3933 31.9057 13.44 32.359 13.44C32.999 13.44 33.4723 13.3333 33.779 13.12C34.099 12.8933 34.259 12.6 34.259 12.24C34.259 11.9333 34.1523 11.7 33.939 11.54C33.739 11.3667 33.4323 11.24 33.019 11.16L31.019 10.78C30.1923 10.62 29.559 10.32 29.119 9.88C28.6923 9.42667 28.479 8.84667 28.479 8.14C28.479 7.5 28.6523 6.94667 28.999 6.48C29.359 6.01333 29.8523 5.65333 30.479 5.4C31.1057 5.14667 31.8257 5.02 32.639 5.02C33.2257 5.02 33.7723 5.08667 34.279 5.22C34.799 5.34 35.299 5.53333 35.779 5.8C35.979 5.90667 36.1123 6.04667 36.179 6.22C36.259 6.39333 36.279 6.57333 36.239 6.76C36.199 6.93333 36.119 7.09333 35.999 7.24C35.879 7.37333 35.7257 7.46 35.539 7.5C35.3657 7.52667 35.1657 7.48667 34.939 7.38C34.5257 7.16667 34.1257 7.01333 33.739 6.92C33.3657 6.82667 33.0057 6.78 32.659 6.78C32.0057 6.78 31.519 6.89333 31.199 7.12C30.8923 7.34667 30.739 7.64667 30.739 8.02C30.739 8.3 30.8323 8.53333 31.019 8.72C31.2057 8.90667 31.4923 9.03333 31.879 9.1L33.879 9.48C34.7457 9.64 35.399 9.93333 35.839 10.36C36.2923 10.7867 36.519 11.36 36.519 12.08C36.519 13.0533 36.139 13.82 35.379 14.38C34.619 14.9267 33.6057 15.2 32.339 15.2ZM43.3446 15.2C42.2379 15.2 41.2846 14.9933 40.4846 14.58C39.6846 14.1667 39.0646 13.58 38.6246 12.82C38.1979 12.06 37.9846 11.16 37.9846 10.12C37.9846 9.10667 38.1913 8.22 38.6046 7.46C39.0313 6.7 39.6113 6.10667 40.3446 5.68C41.0913 5.24 41.9379 5.02 42.8846 5.02C43.5779 5.02 44.1979 5.13333 44.7446 5.36C45.3046 5.58667 45.7779 5.91333 46.1646 6.34C46.5646 6.76667 46.8646 7.28667 47.0646 7.9C47.2779 8.5 47.3846 9.18 47.3846 9.94C47.3846 10.18 47.2979 10.3667 47.1246 10.5C46.9646 10.62 46.7313 10.68 46.4246 10.68H40.0046V9.24H45.6246L45.3046 9.54C45.3046 8.92667 45.2113 8.41333 45.0246 8C44.8513 7.58667 44.5913 7.27333 44.2446 7.06C43.9113 6.83333 43.4913 6.72 42.9846 6.72C42.4246 6.72 41.9446 6.85333 41.5446 7.12C41.1579 7.37333 40.8579 7.74 40.6446 8.22C40.4446 8.68667 40.3446 9.24667 40.3446 9.9V10.04C40.3446 11.1333 40.5979 11.9533 41.1046 12.5C41.6246 13.0333 42.3846 13.3 43.3846 13.3C43.7313 13.3 44.1179 13.26 44.5446 13.18C44.9846 13.0867 45.3979 12.9333 45.7846 12.72C46.0646 12.56 46.3113 12.4933 46.5246 12.52C46.7379 12.5333 46.9046 12.6067 47.0246 12.74C47.1579 12.8733 47.2379 13.04 47.2646 13.24C47.2913 13.4267 47.2513 13.62 47.1446 13.82C47.0513 14.02 46.8846 14.1933 46.6446 14.34C46.1779 14.6333 45.6379 14.8533 45.0246 15C44.4246 15.1333 43.8646 15.2 43.3446 15.2ZM50.6445 15.16C50.2311 15.16 49.9111 15.0533 49.6845 14.84C49.4711 14.6133 49.3645 14.2933 49.3645 13.88V6.32C49.3645 5.90667 49.4711 5.59333 49.6845 5.38C49.8978 5.16667 50.1978 5.06 50.5845 5.06C50.9711 5.06 51.2711 5.16667 51.4845 5.38C51.6978 5.59333 51.8045 5.90667 51.8045 6.32V7.58H51.6045C51.7911 6.78 52.1578 6.17333 52.7045 5.76C53.2511 5.34667 53.9778 5.1 54.8845 5.02C55.1645 4.99333 55.3845 5.06667 55.5445 5.24C55.7178 5.4 55.8178 5.65333 55.8445 6C55.8711 6.33333 55.7911 6.60667 55.6045 6.82C55.4311 7.02 55.1645 7.14 54.8045 7.18L54.3645 7.22C53.5511 7.3 52.9378 7.55333 52.5245 7.98C52.1111 8.39333 51.9045 8.98 51.9045 9.74V13.88C51.9045 14.2933 51.7978 14.6133 51.5845 14.84C51.3711 15.0533 51.0578 15.16 50.6445 15.16ZM61.762 15.16C61.4286 15.16 61.1353 15.0733 60.882 14.9C60.642 14.7267 60.442 14.46 60.282 14.1L57.102 6.72C56.982 6.42667 56.9353 6.15333 56.962 5.9C57.002 5.64667 57.122 5.44667 57.322 5.3C57.5353 5.14 57.822 5.06 58.182 5.06C58.4886 5.06 58.7353 5.13333 58.922 5.28C59.1086 5.41333 59.2753 5.67333 59.422 6.06L62.122 12.8H61.522L64.302 6.04C64.4486 5.66667 64.6153 5.41333 64.802 5.28C65.002 5.13333 65.2686 5.06 65.602 5.06C65.8953 5.06 66.1286 5.14 66.302 5.3C66.4753 5.44667 66.582 5.64667 66.622 5.9C66.662 6.14 66.6153 6.40667 66.482 6.7L63.242 14.1C63.0953 14.46 62.8953 14.7267 62.642 14.9C62.402 15.0733 62.1086 15.16 61.762 15.16ZM72.9735 15.2C71.8668 15.2 70.9135 14.9933 70.1135 14.58C69.3135 14.1667 68.6935 13.58 68.2535 12.82C67.8268 12.06 67.6135 11.16 67.6135 10.12C67.6135 9.10667 67.8202 8.22 68.2335 7.46C68.6602 6.7 69.2402 6.10667 69.9735 5.68C70.7202 5.24 71.5668 5.02 72.5135 5.02C73.2068 5.02 73.8268 5.13333 74.3735 5.36C74.9335 5.58667 75.4068 5.91333 75.7935 6.34C76.1935 6.76667 76.4935 7.28667 76.6935 7.9C76.9068 8.5 77.0135 9.18 77.0135 9.94C77.0135 10.18 76.9268 10.3667 76.7535 10.5C76.5935 10.62 76.3602 10.68 76.0535 10.68H69.6335V9.24H75.2535L74.9335 9.54C74.9335 8.92667 74.8402 8.41333 74.6535 8C74.4802 7.58667 74.2202 7.27333 73.8735 7.06C73.5402 6.83333 73.1202 6.72 72.6135 6.72C72.0535 6.72 71.5735 6.85333 71.1735 7.12C70.7868 7.37333 70.4868 7.74 70.2735 8.22C70.0735 8.68667 69.9735 9.24667 69.9735 9.9V10.04C69.9735 11.1333 70.2268 11.9533 70.7335 12.5C71.2535 13.0333 72.0135 13.3 73.0135 13.3C73.3602 13.3 73.7468 13.26 74.1735 13.18C74.6135 13.0867 75.0268 12.9333 75.4135 12.72C75.6935 12.56 75.9402 12.4933 76.1535 12.52C76.3668 12.5333 76.5335 12.6067 76.6535 12.74C76.7868 12.8733 76.8668 13.04 76.8935 13.24C76.9202 13.4267 76.8802 13.62 76.7735 13.82C76.6802 14.02 76.5135 14.1933 76.2735 14.34C75.8068 14.6333 75.2668 14.8533 74.6535 15C74.0535 15.1333 73.4935 15.2 72.9735 15.2ZM88.903 15.2C88.0364 15.2 87.3097 15.0533 86.723 14.76C86.1497 14.4667 85.723 14.04 85.443 13.48C85.163 12.9067 85.023 12.2 85.023 11.36V7.1H83.983C83.663 7.1 83.4164 7.02 83.243 6.86C83.0697 6.68667 82.983 6.45333 82.983 6.16C82.983 5.85333 83.0697 5.62 83.243 5.46C83.4164 5.3 83.663 5.22 83.983 5.22H85.023V3.4C85.023 2.98667 85.1297 2.67333 85.343 2.46C85.5697 2.24667 85.883 2.14 86.283 2.14C86.683 2.14 86.9897 2.24667 87.203 2.46C87.4164 2.67333 87.523 2.98667 87.523 3.4V5.22H89.643C89.963 5.22 90.2097 5.3 90.383 5.46C90.5564 5.62 90.643 5.85333 90.643 6.16C90.643 6.45333 90.5564 6.68667 90.383 6.86C90.2097 7.02 89.963 7.1 89.643 7.1H87.523V11.22C87.523 11.86 87.663 12.34 87.943 12.66C88.223 12.98 88.6764 13.14 89.303 13.14C89.5297 13.14 89.7297 13.12 89.903 13.08C90.0764 13.04 90.2297 13.0133 90.363 13C90.523 12.9867 90.6564 13.04 90.763 13.16C90.8697 13.2667 90.923 13.4933 90.923 13.84C90.923 14.1067 90.8764 14.3467 90.783 14.56C90.703 14.76 90.5497 14.9 90.323 14.98C90.1497 15.0333 89.923 15.08 89.643 15.12C89.363 15.1733 89.1164 15.2 88.903 15.2ZM93.5927 15.16C93.1927 15.16 92.8861 15.0533 92.6727 14.84C92.4594 14.6133 92.3527 14.2933 92.3527 13.88V2C92.3527 1.58667 92.4594 1.27333 92.6727 1.06C92.8861 0.846666 93.1927 0.739999 93.5927 0.739999C93.9927 0.739999 94.2994 0.846666 94.5127 1.06C94.7394 1.27333 94.8527 1.58667 94.8527 2V7.18H94.5727C94.8661 6.47333 95.3194 5.94 95.9327 5.58C96.5594 5.20667 97.2661 5.02 98.0527 5.02C98.8394 5.02 99.4861 5.16667 99.9927 5.46C100.499 5.75333 100.879 6.2 101.133 6.8C101.386 7.38667 101.513 8.13333 101.513 9.04V13.88C101.513 14.2933 101.406 14.6133 101.193 14.84C100.979 15.0533 100.673 15.16 100.273 15.16C99.8727 15.16 99.5594 15.0533 99.3327 14.84C99.1194 14.6133 99.0127 14.2933 99.0127 13.88V9.16C99.0127 8.4 98.8661 7.84667 98.5727 7.5C98.2927 7.15333 97.8527 6.98 97.2527 6.98C96.5194 6.98 95.9327 7.21333 95.4927 7.68C95.0661 8.13333 94.8527 8.74 94.8527 9.5V13.88C94.8527 14.7333 94.4327 15.16 93.5927 15.16ZM108.872 15.2C107.765 15.2 106.812 14.9933 106.012 14.58C105.212 14.1667 104.592 13.58 104.152 12.82C103.725 12.06 103.512 11.16 103.512 10.12C103.512 9.10667 103.719 8.22 104.132 7.46C104.559 6.7 105.139 6.10667 105.872 5.68C106.619 5.24 107.465 5.02 108.412 5.02C109.105 5.02 109.725 5.13333 110.272 5.36C110.832 5.58667 111.305 5.91333 111.692 6.34C112.092 6.76667 112.392 7.28667 112.592 7.9C112.805 8.5 112.912 9.18 112.912 9.94C112.912 10.18 112.825 10.3667 112.652 10.5C112.492 10.62 112.259 10.68 111.952 10.68H105.532V9.24H111.152L110.832 9.54C110.832 8.92667 110.739 8.41333 110.552 8C110.379 7.58667 110.119 7.27333 109.772 7.06C109.439 6.83333 109.019 6.72 108.512 6.72C107.952 6.72 107.472 6.85333 107.072 7.12C106.685 7.37333 106.385 7.74 106.172 8.22C105.972 8.68667 105.872 9.24667 105.872 9.9V10.04C105.872 11.1333 106.125 11.9533 106.632 12.5C107.152 13.0333 107.912 13.3 108.912 13.3C109.259 13.3 109.645 13.26 110.072 13.18C110.512 13.0867 110.925 12.9333 111.312 12.72C111.592 12.56 111.839 12.4933 112.052 12.52C112.265 12.5333 112.432 12.6067 112.552 12.74C112.685 12.8733 112.765 13.04 112.792 13.24C112.819 13.4267 112.779 13.62 112.672 13.82C112.579 14.02 112.412 14.1933 112.172 14.34C111.705 14.6333 111.165 14.8533 110.552 15C109.952 15.1333 109.392 15.2 108.872 15.2ZM123.541 15.2C122.835 15.2 122.201 15.0667 121.641 14.8C121.095 14.52 120.661 14.1467 120.341 13.68C120.035 13.2133 119.881 12.6867 119.881 12.1C119.881 11.38 120.068 10.8133 120.441 10.4C120.815 9.97333 121.421 9.66667 122.261 9.48C123.101 9.29333 124.228 9.2 125.641 9.2H126.641V10.64H125.661C124.835 10.64 124.175 10.68 123.681 10.76C123.188 10.84 122.835 10.98 122.621 11.18C122.421 11.3667 122.321 11.6333 122.321 11.98C122.321 12.42 122.475 12.78 122.781 13.06C123.088 13.34 123.515 13.48 124.061 13.48C124.501 13.48 124.888 13.38 125.221 13.18C125.568 12.9667 125.841 12.68 126.041 12.32C126.241 11.96 126.341 11.5467 126.341 11.08V8.78C126.341 8.11333 126.195 7.63333 125.901 7.34C125.608 7.04667 125.115 6.9 124.421 6.9C124.035 6.9 123.615 6.94667 123.161 7.04C122.721 7.13333 122.255 7.29333 121.761 7.52C121.508 7.64 121.281 7.67333 121.081 7.62C120.895 7.56667 120.748 7.46 120.641 7.3C120.535 7.12667 120.481 6.94 120.481 6.74C120.481 6.54 120.535 6.34667 120.641 6.16C120.748 5.96 120.928 5.81333 121.181 5.72C121.795 5.46667 122.381 5.28667 122.941 5.18C123.515 5.07333 124.035 5.02 124.501 5.02C125.461 5.02 126.248 5.16667 126.861 5.46C127.488 5.75333 127.955 6.2 128.261 6.8C128.568 7.38667 128.721 8.14667 128.721 9.08V13.88C128.721 14.2933 128.621 14.6133 128.421 14.84C128.221 15.0533 127.935 15.16 127.561 15.16C127.188 15.16 126.895 15.0533 126.681 14.84C126.481 14.6133 126.381 14.2933 126.381 13.88V12.92H126.541C126.448 13.3867 126.261 13.7933 125.981 14.14C125.715 14.4733 125.375 14.7333 124.961 14.92C124.548 15.1067 124.075 15.2 123.541 15.2ZM132.539 15.16C132.126 15.16 131.806 15.0533 131.579 14.84C131.366 14.6133 131.259 14.2933 131.259 13.88V6.32C131.259 5.90667 131.366 5.59333 131.579 5.38C131.792 5.16667 132.092 5.06 132.479 5.06C132.866 5.06 133.166 5.16667 133.379 5.38C133.592 5.59333 133.699 5.90667 133.699 6.32V7.58H133.499C133.686 6.78 134.052 6.17333 134.599 5.76C135.146 5.34667 135.872 5.1 136.779 5.02C137.059 4.99333 137.279 5.06667 137.439 5.24C137.612 5.4 137.712 5.65333 137.739 6C137.766 6.33333 137.686 6.60667 137.499 6.82C137.326 7.02 137.059 7.14 136.699 7.18L136.259 7.22C135.446 7.3 134.832 7.55333 134.419 7.98C134.006 8.39333 133.799 8.98 133.799 9.74V13.88C133.799 14.2933 133.692 14.6133 133.479 14.84C133.266 15.0533 132.952 15.16 132.539 15.16ZM143.755 15.2C142.648 15.2 141.695 14.9933 140.895 14.58C140.095 14.1667 139.475 13.58 139.035 12.82C138.608 12.06 138.395 11.16 138.395 10.12C138.395 9.10667 138.601 8.22 139.015 7.46C139.441 6.7 140.021 6.10667 140.755 5.68C141.501 5.24 142.348 5.02 143.295 5.02C143.988 5.02 144.608 5.13333 145.155 5.36C145.715 5.58667 146.188 5.91333 146.575 6.34C146.975 6.76667 147.275 7.28667 147.475 7.9C147.688 8.5 147.795 9.18 147.795 9.94C147.795 10.18 147.708 10.3667 147.535 10.5C147.375 10.62 147.141 10.68 146.835 10.68H140.415V9.24H146.035L145.715 9.54C145.715 8.92667 145.621 8.41333 145.435 8C145.261 7.58667 145.001 7.27333 144.655 7.06C144.321 6.83333 143.901 6.72 143.395 6.72C142.835 6.72 142.355 6.85333 141.955 7.12C141.568 7.37333 141.268 7.74 141.055 8.22C140.855 8.68667 140.755 9.24667 140.755 9.9V10.04C140.755 11.1333 141.008 11.9533 141.515 12.5C142.035 13.0333 142.795 13.3 143.795 13.3C144.141 13.3 144.528 13.26 144.955 13.18C145.395 13.0867 145.808 12.9333 146.195 12.72C146.475 12.56 146.721 12.4933 146.935 12.52C147.148 12.5333 147.315 12.6067 147.435 12.74C147.568 12.8733 147.648 13.04 147.675 13.24C147.701 13.4267 147.661 13.62 147.555 13.82C147.461 14.02 147.295 14.1933 147.055 14.34C146.588 14.6333 146.048 14.8533 145.435 15C144.835 15.1333 144.275 15.2 143.755 15.2ZM152.995 15.2C152.288 15.2 151.655 15.0667 151.095 14.8C150.548 14.52 150.115 14.1467 149.795 13.68C149.488 13.2133 149.335 12.6867 149.335 12.1C149.335 11.38 149.521 10.8133 149.895 10.4C150.268 9.97333 150.875 9.66667 151.715 9.48C152.555 9.29333 153.681 9.2 155.095 9.2H156.095V10.64H155.115C154.288 10.64 153.628 10.68 153.135 10.76C152.641 10.84 152.288 10.98 152.075 11.18C151.875 11.3667 151.775 11.6333 151.775 11.98C151.775 12.42 151.928 12.78 152.235 13.06C152.541 13.34 152.968 13.48 153.515 13.48C153.955 13.48 154.341 13.38 154.675 13.18C155.021 12.9667 155.295 12.68 155.495 12.32C155.695 11.96 155.795 11.5467 155.795 11.08V8.78C155.795 8.11333 155.648 7.63333 155.355 7.34C155.061 7.04667 154.568 6.9 153.875 6.9C153.488 6.9 153.068 6.94667 152.615 7.04C152.175 7.13333 151.708 7.29333 151.215 7.52C150.961 7.64 150.735 7.67333 150.535 7.62C150.348 7.56667 150.201 7.46 150.095 7.3C149.988 7.12667 149.935 6.94 149.935 6.74C149.935 6.54 149.988 6.34667 150.095 6.16C150.201 5.96 150.381 5.81333 150.635 5.72C151.248 5.46667 151.835 5.28667 152.395 5.18C152.968 5.07333 153.488 5.02 153.955 5.02C154.915 5.02 155.701 5.16667 156.315 5.46C156.941 5.75333 157.408 6.2 157.715 6.8C158.021 7.38667 158.175 8.14667 158.175 9.08V13.88C158.175 14.2933 158.075 14.6133 157.875 14.84C157.675 15.0533 157.388 15.16 157.015 15.16C156.641 15.16 156.348 15.0533 156.135 14.84C155.935 14.6133 155.835 14.2933 155.835 13.88V12.92H155.995C155.901 13.3867 155.715 13.7933 155.435 14.14C155.168 14.4733 154.828 14.7333 154.415 14.92C154.001 15.1067 153.528 15.2 152.995 15.2ZM170.602 15.2C169.588 15.2 168.708 14.9933 167.962 14.58C167.215 14.1667 166.635 13.58 166.222 12.82C165.808 12.0467 165.602 11.14 165.602 10.1C165.602 9.31333 165.715 8.61333 165.942 8C166.182 7.37333 166.522 6.84 166.962 6.4C167.402 5.94667 167.928 5.60667 168.542 5.38C169.155 5.14 169.842 5.02 170.602 5.02C171.615 5.02 172.495 5.22667 173.242 5.64C173.988 6.05333 174.568 6.64 174.982 7.4C175.395 8.16 175.602 9.06 175.602 10.1C175.602 10.8867 175.482 11.5933 175.242 12.22C175.015 12.8467 174.682 13.3867 174.242 13.84C173.802 14.28 173.275 14.62 172.662 14.86C172.048 15.0867 171.362 15.2 170.602 15.2ZM170.602 13.3C171.095 13.3 171.528 13.18 171.902 12.94C172.275 12.7 172.562 12.3467 172.762 11.88C172.975 11.4 173.082 10.8067 173.082 10.1C173.082 9.03333 172.855 8.24 172.402 7.72C171.948 7.18667 171.348 6.92 170.602 6.92C170.108 6.92 169.675 7.04 169.302 7.28C168.928 7.50667 168.635 7.86 168.422 8.34C168.222 8.80667 168.122 9.39333 168.122 10.1C168.122 11.1533 168.348 11.9533 168.802 12.5C169.255 13.0333 169.855 13.3 170.602 13.3ZM179.488 15.16C179.088 15.16 178.774 15.0533 178.548 14.84C178.334 14.6133 178.228 14.2933 178.228 13.88V7.1H177.308C176.988 7.1 176.741 7.02 176.568 6.86C176.394 6.68667 176.308 6.45333 176.308 6.16C176.308 5.85333 176.394 5.62 176.568 5.46C176.741 5.3 176.988 5.22 177.308 5.22H178.948L178.228 5.88V5.2C178.228 3.82667 178.574 2.8 179.268 2.12C179.961 1.42667 180.961 1.02 182.268 0.899999L182.948 0.84C183.214 0.813333 183.428 0.859999 183.588 0.979999C183.748 1.08667 183.854 1.23333 183.908 1.42C183.961 1.59333 183.968 1.77333 183.928 1.96C183.888 2.14667 183.801 2.31333 183.668 2.46C183.548 2.59333 183.388 2.66667 183.188 2.68L182.908 2.7C182.148 2.75333 181.594 2.94667 181.248 3.28C180.901 3.61333 180.728 4.12 180.728 4.8V5.54L180.408 5.22H182.428C182.748 5.22 182.994 5.3 183.168 5.46C183.341 5.62 183.428 5.85333 183.428 6.16C183.428 6.45333 183.341 6.68667 183.168 6.86C182.994 7.02 182.748 7.1 182.428 7.1H180.728V13.88C180.728 14.7333 180.314 15.16 179.488 15.16ZM194.762 15.2C193.896 15.2 193.169 15.0533 192.582 14.76C192.009 14.4667 191.582 14.04 191.302 13.48C191.022 12.9067 190.882 12.2 190.882 11.36V7.1H189.842C189.522 7.1 189.276 7.02 189.102 6.86C188.929 6.68667 188.842 6.45333 188.842 6.16C188.842 5.85333 188.929 5.62 189.102 5.46C189.276 5.3 189.522 5.22 189.842 5.22H190.882V3.4C190.882 2.98667 190.989 2.67333 191.202 2.46C191.429 2.24667 191.742 2.14 192.142 2.14C192.542 2.14 192.849 2.24667 193.062 2.46C193.276 2.67333 193.382 2.98667 193.382 3.4V5.22H195.502C195.822 5.22 196.069 5.3 196.242 5.46C196.416 5.62 196.502 5.85333 196.502 6.16C196.502 6.45333 196.416 6.68667 196.242 6.86C196.069 7.02 195.822 7.1 195.502 7.1H193.382V11.22C193.382 11.86 193.522 12.34 193.802 12.66C194.082 12.98 194.536 13.14 195.162 13.14C195.389 13.14 195.589 13.12 195.762 13.08C195.936 13.04 196.089 13.0133 196.222 13C196.382 12.9867 196.516 13.04 196.622 13.16C196.729 13.2667 196.782 13.4933 196.782 13.84C196.782 14.1067 196.736 14.3467 196.642 14.56C196.562 14.76 196.409 14.9 196.182 14.98C196.009 15.0333 195.782 15.08 195.502 15.12C195.222 15.1733 194.976 15.2 194.762 15.2ZM199.452 15.16C199.052 15.16 198.745 15.0533 198.532 14.84C198.319 14.6133 198.212 14.2933 198.212 13.88V2C198.212 1.58667 198.319 1.27333 198.532 1.06C198.745 0.846666 199.052 0.739999 199.452 0.739999C199.852 0.739999 200.159 0.846666 200.372 1.06C200.599 1.27333 200.712 1.58667 200.712 2V7.18H200.432C200.725 6.47333 201.179 5.94 201.792 5.58C202.419 5.20667 203.125 5.02 203.912 5.02C204.699 5.02 205.345 5.16667 205.852 5.46C206.359 5.75333 206.739 6.2 206.992 6.8C207.245 7.38667 207.372 8.13333 207.372 9.04V13.88C207.372 14.2933 207.265 14.6133 207.052 14.84C206.839 15.0533 206.532 15.16 206.132 15.16C205.732 15.16 205.419 15.0533 205.192 14.84C204.979 14.6133 204.872 14.2933 204.872 13.88V9.16C204.872 8.4 204.725 7.84667 204.432 7.5C204.152 7.15333 203.712 6.98 203.112 6.98C202.379 6.98 201.792 7.21333 201.352 7.68C200.925 8.13333 200.712 8.74 200.712 9.5V13.88C200.712 14.7333 200.292 15.16 199.452 15.16ZM214.731 15.2C213.625 15.2 212.671 14.9933 211.871 14.58C211.071 14.1667 210.451 13.58 210.011 12.82C209.585 12.06 209.371 11.16 209.371 10.12C209.371 9.10667 209.578 8.22 209.991 7.46C210.418 6.7 210.998 6.10667 211.731 5.68C212.478 5.24 213.325 5.02 214.271 5.02C214.965 5.02 215.585 5.13333 216.131 5.36C216.691 5.58667 217.165 5.91333 217.551 6.34C217.951 6.76667 218.251 7.28667 218.451 7.9C218.665 8.5 218.771 9.18 218.771 9.94C218.771 10.18 218.685 10.3667 218.511 10.5C218.351 10.62 218.118 10.68 217.811 10.68H211.391V9.24H217.011L216.691 9.54C216.691 8.92667 216.598 8.41333 216.411 8C216.238 7.58667 215.978 7.27333 215.631 7.06C215.298 6.83333 214.878 6.72 214.371 6.72C213.811 6.72 213.331 6.85333 212.931 7.12C212.545 7.37333 212.245 7.74 212.031 8.22C211.831 8.68667 211.731 9.24667 211.731 9.9V10.04C211.731 11.1333 211.985 11.9533 212.491 12.5C213.011 13.0333 213.771 13.3 214.771 13.3C215.118 13.3 215.505 13.26 215.931 13.18C216.371 13.0867 216.785 12.9333 217.171 12.72C217.451 12.56 217.698 12.4933 217.911 12.52C218.125 12.5333 218.291 12.6067 218.411 12.74C218.545 12.8733 218.625 13.04 218.651 13.24C218.678 13.4267 218.638 13.62 218.531 13.82C218.438 14.02 218.271 14.1933 218.031 14.34C217.565 14.6333 217.025 14.8533 216.411 15C215.811 15.1333 215.251 15.2 214.731 15.2ZM228.101 15.16C227.701 15.16 227.388 15.0533 227.161 14.84C226.948 14.6133 226.841 14.2933 226.841 13.88V7.1H225.921C225.601 7.1 225.354 7.02 225.181 6.86C225.008 6.68667 224.921 6.45333 224.921 6.16C224.921 5.85333 225.008 5.62 225.181 5.46C225.354 5.3 225.601 5.22 225.921 5.22H227.561L226.841 5.88V5.2C226.841 3.85333 227.181 2.83333 227.861 2.14C228.541 1.44667 229.528 1.03333 230.821 0.899999L231.421 0.84C231.728 0.813333 231.968 0.853333 232.141 0.96C232.328 1.06667 232.448 1.21333 232.501 1.4C232.568 1.57333 232.581 1.76 232.541 1.96C232.501 2.14667 232.421 2.31333 232.301 2.46C232.181 2.59333 232.028 2.66667 231.841 2.68L231.361 2.72C230.654 2.77333 230.141 2.96667 229.821 3.3C229.501 3.63333 229.341 4.13333 229.341 4.8V5.54L229.021 5.22H234.561C234.961 5.22 235.268 5.34 235.481 5.58C235.694 5.80667 235.801 6.13333 235.801 6.56V13.78C235.801 14.2067 235.694 14.54 235.481 14.78C235.281 15.02 234.974 15.14 234.561 15.14C234.161 15.14 233.848 15.02 233.621 14.78C233.408 14.54 233.301 14.2067 233.301 13.78V7.1H229.341V13.88C229.341 14.7333 228.928 15.16 228.101 15.16ZM234.601 3.22C234.148 3.22 233.794 3.10667 233.541 2.88C233.301 2.64 233.181 2.31333 233.181 1.9C233.181 1.47333 233.301 1.14667 233.541 0.919999C233.794 0.693333 234.148 0.58 234.601 0.58C235.068 0.58 235.421 0.693333 235.661 0.919999C235.914 1.14667 236.041 1.47333 236.041 1.9C236.041 2.31333 235.914 2.64 235.661 2.88C235.421 3.10667 235.068 3.22 234.601 3.22ZM242.967 18.8C242.247 18.8 241.547 18.7333 240.867 18.6C240.201 18.4667 239.594 18.26 239.047 17.98C238.794 17.8467 238.621 17.6867 238.527 17.5C238.447 17.3133 238.421 17.12 238.447 16.92C238.487 16.7333 238.567 16.5667 238.687 16.42C238.821 16.2733 238.981 16.1733 239.167 16.12C239.354 16.0667 239.547 16.0933 239.747 16.2C240.334 16.4933 240.887 16.68 241.407 16.76C241.941 16.8533 242.394 16.9 242.767 16.9C243.661 16.9 244.327 16.68 244.767 16.24C245.221 15.8133 245.447 15.1733 245.447 14.32V12.52H245.627C245.427 13.2 245.007 13.7467 244.367 14.16C243.741 14.56 243.027 14.76 242.227 14.76C241.347 14.76 240.581 14.56 239.927 14.16C239.274 13.7467 238.767 13.1733 238.407 12.44C238.047 11.7067 237.867 10.8533 237.867 9.88C237.867 9.14667 237.967 8.48667 238.167 7.9C238.381 7.3 238.674 6.78667 239.047 6.36C239.434 5.93333 239.894 5.60667 240.427 5.38C240.974 5.14 241.574 5.02 242.227 5.02C243.054 5.02 243.774 5.22667 244.387 5.64C245.014 6.04 245.421 6.57333 245.607 7.24L245.407 7.74V6.32C245.407 5.90667 245.514 5.59333 245.727 5.38C245.954 5.16667 246.261 5.06 246.647 5.06C247.047 5.06 247.354 5.16667 247.567 5.38C247.781 5.59333 247.887 5.90667 247.887 6.32V14.02C247.887 15.6067 247.467 16.8 246.627 17.6C245.787 18.4 244.567 18.8 242.967 18.8ZM242.907 12.86C243.427 12.86 243.874 12.74 244.247 12.5C244.621 12.26 244.907 11.92 245.107 11.48C245.321 11.0267 245.427 10.4933 245.427 9.88C245.427 8.96 245.201 8.24 244.747 7.72C244.294 7.18667 243.681 6.92 242.907 6.92C242.387 6.92 241.941 7.04 241.567 7.28C241.194 7.52 240.901 7.86 240.687 8.3C240.487 8.74 240.387 9.26667 240.387 9.88C240.387 10.8 240.614 11.5267 241.067 12.06C241.521 12.5933 242.134 12.86 242.907 12.86ZM254.018 15.2C253.204 15.2 252.531 15.0533 251.998 14.76C251.464 14.4533 251.064 14 250.798 13.4C250.544 12.8 250.418 12.0533 250.418 11.16V6.32C250.418 5.89333 250.524 5.58 250.738 5.38C250.951 5.16667 251.258 5.06 251.658 5.06C252.058 5.06 252.364 5.16667 252.578 5.38C252.804 5.58 252.918 5.89333 252.918 6.32V11.2C252.918 11.8933 253.058 12.4067 253.338 12.74C253.618 13.0733 254.064 13.24 254.678 13.24C255.344 13.24 255.891 13.0133 256.318 12.56C256.744 12.0933 256.958 11.48 256.958 10.72V6.32C256.958 5.89333 257.064 5.58 257.278 5.38C257.491 5.16667 257.798 5.06 258.198 5.06C258.598 5.06 258.904 5.16667 259.118 5.38C259.344 5.58 259.458 5.89333 259.458 6.32V13.88C259.458 14.7333 259.051 15.16 258.238 15.16C257.851 15.16 257.551 15.0533 257.338 14.84C257.124 14.6133 257.018 14.2933 257.018 13.88V12.36L257.298 12.96C257.018 13.68 256.591 14.2333 256.018 14.62C255.458 15.0067 254.791 15.2 254.018 15.2ZM263.34 15.16C262.926 15.16 262.606 15.0533 262.38 14.84C262.166 14.6133 262.06 14.2933 262.06 13.88V6.32C262.06 5.90667 262.166 5.59333 262.38 5.38C262.593 5.16667 262.893 5.06 263.28 5.06C263.666 5.06 263.966 5.16667 264.18 5.38C264.393 5.59333 264.5 5.90667 264.5 6.32V7.58H264.3C264.486 6.78 264.853 6.17333 265.4 5.76C265.946 5.34667 266.673 5.1 267.58 5.02C267.86 4.99333 268.08 5.06667 268.24 5.24C268.413 5.4 268.513 5.65333 268.54 6C268.566 6.33333 268.486 6.60667 268.3 6.82C268.126 7.02 267.86 7.14 267.5 7.18L267.06 7.22C266.246 7.3 265.633 7.55333 265.22 7.98C264.806 8.39333 264.6 8.98 264.6 9.74V13.88C264.6 14.2933 264.493 14.6133 264.28 14.84C264.066 15.0533 263.753 15.16 263.34 15.16ZM274.556 15.2C273.449 15.2 272.496 14.9933 271.696 14.58C270.896 14.1667 270.276 13.58 269.836 12.82C269.409 12.06 269.196 11.16 269.196 10.12C269.196 9.10667 269.402 8.22 269.816 7.46C270.242 6.7 270.822 6.10667 271.556 5.68C272.302 5.24 273.149 5.02 274.096 5.02C274.789 5.02 275.409 5.13333 275.956 5.36C276.516 5.58667 276.989 5.91333 277.376 6.34C277.776 6.76667 278.076 7.28667 278.276 7.9C278.489 8.5 278.596 9.18 278.596 9.94C278.596 10.18 278.509 10.3667 278.336 10.5C278.176 10.62 277.942 10.68 277.636 10.68H271.216V9.24H276.836L276.516 9.54C276.516 8.92667 276.422 8.41333 276.236 8C276.062 7.58667 275.802 7.27333 275.456 7.06C275.122 6.83333 274.702 6.72 274.196 6.72C273.636 6.72 273.156 6.85333 272.756 7.12C272.369 7.37333 272.069 7.74 271.856 8.22C271.656 8.68667 271.556 9.24667 271.556 9.9V10.04C271.556 11.1333 271.809 11.9533 272.316 12.5C272.836 13.0333 273.596 13.3 274.596 13.3C274.942 13.3 275.329 13.26 275.756 13.18C276.196 13.0867 276.609 12.9333 276.996 12.72C277.276 12.56 277.522 12.4933 277.736 12.52C277.949 12.5333 278.116 12.6067 278.236 12.74C278.369 12.8733 278.449 13.04 278.476 13.24C278.502 13.4267 278.462 13.62 278.356 13.82C278.262 14.02 278.096 14.1933 277.856 14.34C277.389 14.6333 276.849 14.8533 276.236 15C275.636 15.1333 275.076 15.2 274.556 15.2ZM281.775 15.1C281.322 15.1 280.955 14.96 280.675 14.68C280.409 14.4 280.275 14.04 280.275 13.6C280.275 13.1733 280.409 12.8267 280.675 12.56C280.955 12.28 281.322 12.14 281.775 12.14C282.242 12.14 282.602 12.28 282.855 12.56C283.122 12.8267 283.255 13.1733 283.255 13.6C283.255 14.04 283.122 14.4 282.855 14.68C282.602 14.96 282.242 15.1 281.775 15.1Z" fill="#444444"/>
</svg>
