<svg width="274" height="19" viewBox="0 0 274 19" fill="none" xmlns="http://www.w3.org/2000/svg">
<path d="M2.15445 15C1.74112 15 1.42112 14.8867 1.19445 14.66C0.967787 14.42 0.854453 14.0933 0.854453 13.68V2.14C0.854453 1.71333 0.96112 1.39333 1.17445 1.18C1.40112 0.953333 1.72112 0.84 2.13445 0.84C2.54779 0.84 2.86112 0.953333 3.07445 1.18C3.30112 1.39333 3.41445 1.71333 3.41445 2.14V12.82H9.21445C9.57445 12.82 9.84779 12.9133 10.0345 13.1C10.2345 13.2867 10.3345 13.5533 10.3345 13.9C10.3345 14.2467 10.2345 14.52 10.0345 14.72C9.84779 14.9067 9.57445 15 9.21445 15H2.15445ZM16.5673 15.2C15.4606 15.2 14.5073 14.9933 13.7073 14.58C12.9073 14.1667 12.2873 13.58 11.8473 12.82C11.4206 12.06 11.2073 11.16 11.2073 10.12C11.2073 9.10667 11.4139 8.22 11.8273 7.46C12.2539 6.7 12.8339 6.10667 13.5673 5.68C14.3139 5.24 15.1606 5.02 16.1073 5.02C16.8006 5.02 17.4206 5.13333 17.9673 5.36C18.5273 5.58667 19.0006 5.91333 19.3873 6.34C19.7873 6.76667 20.0873 7.28667 20.2873 7.9C20.5006 8.5 20.6073 9.18 20.6073 9.94C20.6073 10.18 20.5206 10.3667 20.3473 10.5C20.1873 10.62 19.9539 10.68 19.6473 10.68H13.2273V9.24H18.8473L18.5273 9.54C18.5273 8.92667 18.4339 8.41333 18.2473 8C18.0739 7.58667 17.8139 7.27333 17.4673 7.06C17.1339 6.83333 16.7139 6.72 16.2073 6.72C15.6473 6.72 15.1673 6.85333 14.7673 7.12C14.3806 7.37333 14.0806 7.74 13.8673 8.22C13.6673 8.68667 13.5673 9.24667 13.5673 9.9V10.04C13.5673 11.1333 13.8206 11.9533 14.3273 12.5C14.8473 13.0333 15.6073 13.3 16.6073 13.3C16.9539 13.3 17.3406 13.26 17.7673 13.18C18.2073 13.0867 18.6206 12.9333 19.0073 12.72C19.2873 12.56 19.5339 12.4933 19.7473 12.52C19.9606 12.5333 20.1273 12.6067 20.2473 12.74C20.3806 12.8733 20.4606 13.04 20.4873 13.24C20.5139 13.4267 20.4739 13.62 20.3673 13.82C20.2739 14.02 20.1073 14.1933 19.8673 14.34C19.4006 14.6333 18.8606 14.8533 18.2473 15C17.6473 15.1333 17.0873 15.2 16.5673 15.2ZM27.028 15.2C26.1614 15.2 25.4347 15.0533 24.848 14.76C24.2747 14.4667 23.848 14.04 23.568 13.48C23.288 12.9067 23.148 12.2 23.148 11.36V7.1H22.108C21.788 7.1 21.5414 7.02 21.368 6.86C21.1947 6.68667 21.108 6.45333 21.108 6.16C21.108 5.85333 21.1947 5.62 21.368 5.46C21.5414 5.3 21.788 5.22 22.108 5.22H23.148V3.4C23.148 2.98667 23.2547 2.67333 23.468 2.46C23.6947 2.24667 24.008 2.14 24.408 2.14C24.808 2.14 25.1147 2.24667 25.328 2.46C25.5414 2.67333 25.648 2.98667 25.648 3.4V5.22H27.768C28.088 5.22 28.3347 5.3 28.508 5.46C28.6814 5.62 28.768 5.85333 28.768 6.16C28.768 6.45333 28.6814 6.68667 28.508 6.86C28.3347 7.02 28.088 7.1 27.768 7.1H25.648V11.22C25.648 11.86 25.788 12.34 26.068 12.66C26.348 12.98 26.8014 13.14 27.428 13.14C27.6547 13.14 27.8547 13.12 28.028 13.08C28.2014 13.04 28.3547 13.0133 28.488 13C28.648 12.9867 28.7814 13.04 28.888 13.16C28.9947 13.2667 29.048 13.4933 29.048 13.84C29.048 14.1067 29.0014 14.3467 28.908 14.56C28.828 14.76 28.6747 14.9 28.448 14.98C28.2747 15.0333 28.048 15.08 27.768 15.12C27.488 15.1733 27.2414 15.2 27.028 15.2ZM31.7438 5.8C31.5705 6.01333 31.3838 6.13333 31.1838 6.16C30.9972 6.18667 30.8305 6.15333 30.6838 6.06C30.5372 5.95333 30.4572 5.80667 30.4438 5.62C30.4305 5.42 30.5172 5.20667 30.7038 4.98C30.9705 4.64667 31.1505 4.31333 31.2438 3.98C31.3372 3.64667 31.3838 3.35333 31.3838 3.1L31.4838 3.76C31.0172 3.76 30.6372 3.62667 30.3438 3.36C30.0638 3.09333 29.9238 2.73333 29.9238 2.28C29.9238 1.84 30.0572 1.48667 30.3238 1.22C30.5905 0.939999 30.9505 0.799999 31.4038 0.799999C31.8705 0.799999 32.2372 0.959999 32.5038 1.28C32.7705 1.58667 32.9038 2.03333 32.9038 2.62C32.9038 2.94 32.8705 3.27333 32.8038 3.62C32.7505 3.95333 32.6372 4.30667 32.4638 4.68C32.3038 5.04 32.0638 5.41333 31.7438 5.8ZM38.1984 15.2C37.625 15.2 37.0184 15.14 36.3784 15.02C35.7384 14.9 35.165 14.6933 34.6584 14.4C34.445 14.2667 34.2917 14.1133 34.1984 13.94C34.1184 13.7533 34.085 13.5733 34.0984 13.4C34.125 13.2133 34.1917 13.0533 34.2984 12.92C34.4184 12.7867 34.565 12.7 34.7384 12.66C34.925 12.62 35.125 12.6533 35.3384 12.76C35.8717 13.0133 36.3717 13.1933 36.8384 13.3C37.305 13.3933 37.765 13.44 38.2184 13.44C38.8584 13.44 39.3317 13.3333 39.6384 13.12C39.9584 12.8933 40.1184 12.6 40.1184 12.24C40.1184 11.9333 40.0117 11.7 39.7984 11.54C39.5984 11.3667 39.2917 11.24 38.8784 11.16L36.8784 10.78C36.0517 10.62 35.4184 10.32 34.9784 9.88C34.5517 9.42667 34.3384 8.84667 34.3384 8.14C34.3384 7.5 34.5117 6.94667 34.8584 6.48C35.2184 6.01333 35.7117 5.65333 36.3384 5.4C36.965 5.14667 37.685 5.02 38.4984 5.02C39.085 5.02 39.6317 5.08667 40.1384 5.22C40.6584 5.34 41.1584 5.53333 41.6384 5.8C41.8384 5.90667 41.9717 6.04667 42.0384 6.22C42.1184 6.39333 42.1384 6.57333 42.0984 6.76C42.0584 6.93333 41.9784 7.09333 41.8584 7.24C41.7384 7.37333 41.585 7.46 41.3984 7.5C41.225 7.52667 41.025 7.48667 40.7984 7.38C40.385 7.16667 39.985 7.01333 39.5984 6.92C39.225 6.82667 38.865 6.78 38.5184 6.78C37.865 6.78 37.3784 6.89333 37.0584 7.12C36.7517 7.34667 36.5984 7.64667 36.5984 8.02C36.5984 8.3 36.6917 8.53333 36.8784 8.72C37.065 8.90667 37.3517 9.03333 37.7384 9.1L39.7384 9.48C40.605 9.64 41.2584 9.93333 41.6984 10.36C42.1517 10.7867 42.3784 11.36 42.3784 12.08C42.3784 13.0533 41.9984 13.82 41.2384 14.38C40.4784 14.9267 39.465 15.2 38.1984 15.2ZM51.0937 15.16C50.6803 15.16 50.3603 15.0533 50.1337 14.84C49.9203 14.6133 49.8137 14.2933 49.8137 13.88V6.32C49.8137 5.90667 49.9203 5.59333 50.1337 5.38C50.347 5.16667 50.647 5.06 51.0337 5.06C51.4203 5.06 51.7203 5.16667 51.9337 5.38C52.147 5.59333 52.2537 5.90667 52.2537 6.32V7.58H52.0537C52.2403 6.78 52.607 6.17333 53.1537 5.76C53.7003 5.34667 54.427 5.1 55.3337 5.02C55.6137 4.99333 55.8337 5.06667 55.9937 5.24C56.167 5.4 56.267 5.65333 56.2937 6C56.3203 6.33333 56.2403 6.60667 56.0537 6.82C55.8803 7.02 55.6137 7.14 55.2537 7.18L54.8137 7.22C54.0003 7.3 53.387 7.55333 52.9737 7.98C52.5603 8.39333 52.3537 8.98 52.3537 9.74V13.88C52.3537 14.2933 52.247 14.6133 52.0337 14.84C51.8203 15.0533 51.507 15.16 51.0937 15.16ZM61.9495 15.2C60.9361 15.2 60.0561 14.9933 59.3095 14.58C58.5628 14.1667 57.9828 13.58 57.5695 12.82C57.1561 12.0467 56.9495 11.14 56.9495 10.1C56.9495 9.31333 57.0628 8.61333 57.2895 8C57.5295 7.37333 57.8695 6.84 58.3095 6.4C58.7495 5.94667 59.2761 5.60667 59.8895 5.38C60.5028 5.14 61.1895 5.02 61.9495 5.02C62.9628 5.02 63.8428 5.22667 64.5895 5.64C65.3361 6.05333 65.9161 6.64 66.3295 7.4C66.7428 8.16 66.9495 9.06 66.9495 10.1C66.9495 10.8867 66.8295 11.5933 66.5895 12.22C66.3628 12.8467 66.0295 13.3867 65.5895 13.84C65.1495 14.28 64.6228 14.62 64.0095 14.86C63.3961 15.0867 62.7095 15.2 61.9495 15.2ZM61.9495 13.3C62.4428 13.3 62.8761 13.18 63.2495 12.94C63.6228 12.7 63.9095 12.3467 64.1095 11.88C64.3228 11.4 64.4295 10.8067 64.4295 10.1C64.4295 9.03333 64.2028 8.24 63.7495 7.72C63.2961 7.18667 62.6961 6.92 61.9495 6.92C61.4561 6.92 61.0228 7.04 60.6495 7.28C60.2761 7.50667 59.9828 7.86 59.7695 8.34C59.5695 8.80667 59.4695 9.39333 59.4695 10.1C59.4695 11.1533 59.6961 11.9533 60.1495 12.5C60.6028 13.0333 61.2028 13.3 61.9495 13.3ZM73.3952 15.2C72.5286 15.2 71.8019 15.0533 71.2152 14.76C70.6419 14.4667 70.2152 14.04 69.9352 13.48C69.6552 12.9067 69.5152 12.2 69.5152 11.36V7.1H68.4752C68.1552 7.1 67.9086 7.02 67.7352 6.86C67.5619 6.68667 67.4752 6.45333 67.4752 6.16C67.4752 5.85333 67.5619 5.62 67.7352 5.46C67.9086 5.3 68.1552 5.22 68.4752 5.22H69.5152V3.4C69.5152 2.98667 69.6219 2.67333 69.8352 2.46C70.0619 2.24667 70.3752 2.14 70.7752 2.14C71.1752 2.14 71.4819 2.24667 71.6952 2.46C71.9086 2.67333 72.0152 2.98667 72.0152 3.4V5.22H74.1352C74.4552 5.22 74.7019 5.3 74.8752 5.46C75.0486 5.62 75.1352 5.85333 75.1352 6.16C75.1352 6.45333 75.0486 6.68667 74.8752 6.86C74.7019 7.02 74.4552 7.1 74.1352 7.1H72.0152V11.22C72.0152 11.86 72.1552 12.34 72.4352 12.66C72.7152 12.98 73.1686 13.14 73.7952 13.14C74.0219 13.14 74.2219 13.12 74.3952 13.08C74.5686 13.04 74.7219 13.0133 74.8552 13C75.0152 12.9867 75.1486 13.04 75.2552 13.16C75.3619 13.2667 75.4152 13.4933 75.4152 13.84C75.4152 14.1067 75.3686 14.3467 75.2752 14.56C75.1952 14.76 75.0419 14.9 74.8152 14.98C74.6419 15.0333 74.4152 15.08 74.1352 15.12C73.8552 15.1733 73.6086 15.2 73.3952 15.2ZM79.811 15.2C79.1043 15.2 78.471 15.0667 77.911 14.8C77.3643 14.52 76.931 14.1467 76.611 13.68C76.3043 13.2133 76.151 12.6867 76.151 12.1C76.151 11.38 76.3377 10.8133 76.711 10.4C77.0843 9.97333 77.691 9.66667 78.531 9.48C79.371 9.29333 80.4977 9.2 81.911 9.2H82.911V10.64H81.931C81.1043 10.64 80.4443 10.68 79.951 10.76C79.4577 10.84 79.1043 10.98 78.891 11.18C78.691 11.3667 78.591 11.6333 78.591 11.98C78.591 12.42 78.7443 12.78 79.051 13.06C79.3577 13.34 79.7843 13.48 80.331 13.48C80.771 13.48 81.1577 13.38 81.491 13.18C81.8377 12.9667 82.111 12.68 82.311 12.32C82.511 11.96 82.611 11.5467 82.611 11.08V8.78C82.611 8.11333 82.4643 7.63333 82.171 7.34C81.8777 7.04667 81.3843 6.9 80.691 6.9C80.3043 6.9 79.8843 6.94667 79.431 7.04C78.991 7.13333 78.5243 7.29333 78.031 7.52C77.7777 7.64 77.551 7.67333 77.351 7.62C77.1643 7.56667 77.0177 7.46 76.911 7.3C76.8043 7.12667 76.751 6.94 76.751 6.74C76.751 6.54 76.8043 6.34667 76.911 6.16C77.0177 5.96 77.1977 5.81333 77.451 5.72C78.0643 5.46667 78.651 5.28667 79.211 5.18C79.7843 5.07333 80.3043 5.02 80.771 5.02C81.731 5.02 82.5177 5.16667 83.131 5.46C83.7577 5.75333 84.2243 6.2 84.531 6.8C84.8377 7.38667 84.991 8.14667 84.991 9.08V13.88C84.991 14.2933 84.891 14.6133 84.691 14.84C84.491 15.0533 84.2043 15.16 83.831 15.16C83.4577 15.16 83.1643 15.0533 82.951 14.84C82.751 14.6133 82.651 14.2933 82.651 13.88V12.92H82.811C82.7177 13.3867 82.531 13.7933 82.251 14.14C81.9843 14.4733 81.6443 14.7333 81.231 14.92C80.8177 15.1067 80.3443 15.2 79.811 15.2ZM92.0085 15.2C91.1418 15.2 90.4152 15.0533 89.8285 14.76C89.2552 14.4667 88.8285 14.04 88.5485 13.48C88.2685 12.9067 88.1285 12.2 88.1285 11.36V7.1H87.0885C86.7685 7.1 86.5218 7.02 86.3485 6.86C86.1752 6.68667 86.0885 6.45333 86.0885 6.16C86.0885 5.85333 86.1752 5.62 86.3485 5.46C86.5218 5.3 86.7685 5.22 87.0885 5.22H88.1285V3.4C88.1285 2.98667 88.2352 2.67333 88.4485 2.46C88.6752 2.24667 88.9885 2.14 89.3885 2.14C89.7885 2.14 90.0952 2.24667 90.3085 2.46C90.5218 2.67333 90.6285 2.98667 90.6285 3.4V5.22H92.7485C93.0685 5.22 93.3152 5.3 93.4885 5.46C93.6618 5.62 93.7485 5.85333 93.7485 6.16C93.7485 6.45333 93.6618 6.68667 93.4885 6.86C93.3152 7.02 93.0685 7.1 92.7485 7.1H90.6285V11.22C90.6285 11.86 90.7685 12.34 91.0485 12.66C91.3285 12.98 91.7818 13.14 92.4085 13.14C92.6352 13.14 92.8352 13.12 93.0085 13.08C93.1818 13.04 93.3352 13.0133 93.4685 13C93.6285 12.9867 93.7618 13.04 93.8685 13.16C93.9752 13.2667 94.0285 13.4933 94.0285 13.84C94.0285 14.1067 93.9818 14.3467 93.8885 14.56C93.8085 14.76 93.6552 14.9 93.4285 14.98C93.2552 15.0333 93.0285 15.08 92.7485 15.12C92.4685 15.1733 92.2218 15.2 92.0085 15.2ZM99.9266 15.2C98.82 15.2 97.8666 14.9933 97.0666 14.58C96.2666 14.1667 95.6466 13.58 95.2066 12.82C94.78 12.06 94.5666 11.16 94.5666 10.12C94.5666 9.10667 94.7733 8.22 95.1866 7.46C95.6133 6.7 96.1933 6.10667 96.9266 5.68C97.6733 5.24 98.52 5.02 99.4666 5.02C100.16 5.02 100.78 5.13333 101.327 5.36C101.887 5.58667 102.36 5.91333 102.747 6.34C103.147 6.76667 103.447 7.28667 103.647 7.9C103.86 8.5 103.967 9.18 103.967 9.94C103.967 10.18 103.88 10.3667 103.707 10.5C103.547 10.62 103.313 10.68 103.007 10.68H96.5866V9.24H102.207L101.887 9.54C101.887 8.92667 101.793 8.41333 101.607 8C101.433 7.58667 101.173 7.27333 100.827 7.06C100.493 6.83333 100.073 6.72 99.5666 6.72C99.0066 6.72 98.5266 6.85333 98.1266 7.12C97.74 7.37333 97.44 7.74 97.2266 8.22C97.0266 8.68667 96.9266 9.24667 96.9266 9.9V10.04C96.9266 11.1333 97.18 11.9533 97.6866 12.5C98.2066 13.0333 98.9666 13.3 99.9666 13.3C100.313 13.3 100.7 13.26 101.127 13.18C101.567 13.0867 101.98 12.9333 102.367 12.72C102.647 12.56 102.893 12.4933 103.107 12.52C103.32 12.5333 103.487 12.6067 103.607 12.74C103.74 12.8733 103.82 13.04 103.847 13.24C103.873 13.4267 103.833 13.62 103.727 13.82C103.633 14.02 103.467 14.1933 103.227 14.34C102.76 14.6333 102.22 14.8533 101.607 15C101.007 15.1333 100.447 15.2 99.9266 15.2ZM115.856 15.2C114.99 15.2 114.263 15.0533 113.676 14.76C113.103 14.4667 112.676 14.04 112.396 13.48C112.116 12.9067 111.976 12.2 111.976 11.36V7.1H110.936C110.616 7.1 110.37 7.02 110.196 6.86C110.023 6.68667 109.936 6.45333 109.936 6.16C109.936 5.85333 110.023 5.62 110.196 5.46C110.37 5.3 110.616 5.22 110.936 5.22H111.976V3.4C111.976 2.98667 112.083 2.67333 112.296 2.46C112.523 2.24667 112.836 2.14 113.236 2.14C113.636 2.14 113.943 2.24667 114.156 2.46C114.37 2.67333 114.476 2.98667 114.476 3.4V5.22H116.596C116.916 5.22 117.163 5.3 117.336 5.46C117.51 5.62 117.596 5.85333 117.596 6.16C117.596 6.45333 117.51 6.68667 117.336 6.86C117.163 7.02 116.916 7.1 116.596 7.1H114.476V11.22C114.476 11.86 114.616 12.34 114.896 12.66C115.176 12.98 115.63 13.14 116.256 13.14C116.483 13.14 116.683 13.12 116.856 13.08C117.03 13.04 117.183 13.0133 117.316 13C117.476 12.9867 117.61 13.04 117.716 13.16C117.823 13.2667 117.876 13.4933 117.876 13.84C117.876 14.1067 117.83 14.3467 117.736 14.56C117.656 14.76 117.503 14.9 117.276 14.98C117.103 15.0333 116.876 15.08 116.596 15.12C116.316 15.1733 116.07 15.2 115.856 15.2ZM120.546 15.16C120.146 15.16 119.839 15.0533 119.626 14.84C119.413 14.6133 119.306 14.2933 119.306 13.88V2C119.306 1.58667 119.413 1.27333 119.626 1.06C119.839 0.846666 120.146 0.739999 120.546 0.739999C120.946 0.739999 121.253 0.846666 121.466 1.06C121.693 1.27333 121.806 1.58667 121.806 2V7.18H121.526C121.819 6.47333 122.273 5.94 122.886 5.58C123.513 5.20667 124.219 5.02 125.006 5.02C125.793 5.02 126.439 5.16667 126.946 5.46C127.453 5.75333 127.833 6.2 128.086 6.8C128.339 7.38667 128.466 8.13333 128.466 9.04V13.88C128.466 14.2933 128.359 14.6133 128.146 14.84C127.933 15.0533 127.626 15.16 127.226 15.16C126.826 15.16 126.513 15.0533 126.286 14.84C126.073 14.6133 125.966 14.2933 125.966 13.88V9.16C125.966 8.4 125.819 7.84667 125.526 7.5C125.246 7.15333 124.806 6.98 124.206 6.98C123.473 6.98 122.886 7.21333 122.446 7.68C122.019 8.13333 121.806 8.74 121.806 9.5V13.88C121.806 14.7333 121.386 15.16 120.546 15.16ZM135.825 15.2C134.718 15.2 133.765 14.9933 132.965 14.58C132.165 14.1667 131.545 13.58 131.105 12.82C130.678 12.06 130.465 11.16 130.465 10.12C130.465 9.10667 130.672 8.22 131.085 7.46C131.512 6.7 132.092 6.10667 132.825 5.68C133.572 5.24 134.418 5.02 135.365 5.02C136.058 5.02 136.678 5.13333 137.225 5.36C137.785 5.58667 138.258 5.91333 138.645 6.34C139.045 6.76667 139.345 7.28667 139.545 7.9C139.758 8.5 139.865 9.18 139.865 9.94C139.865 10.18 139.778 10.3667 139.605 10.5C139.445 10.62 139.212 10.68 138.905 10.68H132.485V9.24H138.105L137.785 9.54C137.785 8.92667 137.692 8.41333 137.505 8C137.332 7.58667 137.072 7.27333 136.725 7.06C136.392 6.83333 135.972 6.72 135.465 6.72C134.905 6.72 134.425 6.85333 134.025 7.12C133.638 7.37333 133.338 7.74 133.125 8.22C132.925 8.68667 132.825 9.24667 132.825 9.9V10.04C132.825 11.1333 133.078 11.9533 133.585 12.5C134.105 13.0333 134.865 13.3 135.865 13.3C136.212 13.3 136.598 13.26 137.025 13.18C137.465 13.0867 137.878 12.9333 138.265 12.72C138.545 12.56 138.792 12.4933 139.005 12.52C139.218 12.5333 139.385 12.6067 139.505 12.74C139.638 12.8733 139.718 13.04 139.745 13.24C139.772 13.4267 139.732 13.62 139.625 13.82C139.532 14.02 139.365 14.1933 139.125 14.34C138.658 14.6333 138.118 14.8533 137.505 15C136.905 15.1333 136.345 15.2 135.825 15.2ZM151.755 15.2C150.888 15.2 150.161 15.0533 149.575 14.76C149.001 14.4667 148.575 14.04 148.295 13.48C148.015 12.9067 147.875 12.2 147.875 11.36V7.1H146.835C146.515 7.1 146.268 7.02 146.095 6.86C145.921 6.68667 145.835 6.45333 145.835 6.16C145.835 5.85333 145.921 5.62 146.095 5.46C146.268 5.3 146.515 5.22 146.835 5.22H147.875V3.4C147.875 2.98667 147.981 2.67333 148.195 2.46C148.421 2.24667 148.735 2.14 149.135 2.14C149.535 2.14 149.841 2.24667 150.055 2.46C150.268 2.67333 150.375 2.98667 150.375 3.4V5.22H152.495C152.815 5.22 153.061 5.3 153.235 5.46C153.408 5.62 153.495 5.85333 153.495 6.16C153.495 6.45333 153.408 6.68667 153.235 6.86C153.061 7.02 152.815 7.1 152.495 7.1H150.375V11.22C150.375 11.86 150.515 12.34 150.795 12.66C151.075 12.98 151.528 13.14 152.155 13.14C152.381 13.14 152.581 13.12 152.755 13.08C152.928 13.04 153.081 13.0133 153.215 13C153.375 12.9867 153.508 13.04 153.615 13.16C153.721 13.2667 153.775 13.4933 153.775 13.84C153.775 14.1067 153.728 14.3467 153.635 14.56C153.555 14.76 153.401 14.9 153.175 14.98C153.001 15.0333 152.775 15.08 152.495 15.12C152.215 15.1733 151.968 15.2 151.755 15.2ZM158.887 15.16C158.553 15.16 158.267 15.08 158.027 14.92C157.787 14.7467 157.593 14.48 157.447 14.12L154.547 6.72C154.427 6.4 154.387 6.12 154.427 5.88C154.48 5.62667 154.607 5.42667 154.807 5.28C155.007 5.13333 155.273 5.06 155.607 5.06C155.9 5.06 156.14 5.13333 156.327 5.28C156.513 5.41333 156.673 5.67333 156.807 6.06L159.227 12.72H158.767L161.267 5.9C161.373 5.60667 161.513 5.39333 161.687 5.26C161.873 5.12667 162.113 5.06 162.407 5.06C162.7 5.06 162.94 5.13333 163.127 5.28C163.313 5.41333 163.453 5.62 163.547 5.9L166.007 12.72H165.587L168.027 6C168.16 5.64 168.327 5.39333 168.527 5.26C168.74 5.12667 168.973 5.06 169.227 5.06C169.547 5.06 169.793 5.14 169.967 5.3C170.14 5.46 170.24 5.66667 170.267 5.92C170.293 6.16 170.247 6.42667 170.127 6.72L167.247 14.12C167.113 14.4667 166.92 14.7267 166.667 14.9C166.427 15.0733 166.14 15.16 165.807 15.16C165.473 15.16 165.18 15.0733 164.927 14.9C164.687 14.7267 164.5 14.4667 164.367 14.12L161.747 7.18H162.887L160.327 14.1C160.193 14.46 160.007 14.7267 159.767 14.9C159.527 15.0733 159.233 15.16 158.887 15.16ZM176.422 15.2C175.409 15.2 174.529 14.9933 173.782 14.58C173.035 14.1667 172.455 13.58 172.042 12.82C171.629 12.0467 171.422 11.14 171.422 10.1C171.422 9.31333 171.535 8.61333 171.762 8C172.002 7.37333 172.342 6.84 172.782 6.4C173.222 5.94667 173.749 5.60667 174.362 5.38C174.975 5.14 175.662 5.02 176.422 5.02C177.435 5.02 178.315 5.22667 179.062 5.64C179.809 6.05333 180.389 6.64 180.802 7.4C181.215 8.16 181.422 9.06 181.422 10.1C181.422 10.8867 181.302 11.5933 181.062 12.22C180.835 12.8467 180.502 13.3867 180.062 13.84C179.622 14.28 179.095 14.62 178.482 14.86C177.869 15.0867 177.182 15.2 176.422 15.2ZM176.422 13.3C176.915 13.3 177.349 13.18 177.722 12.94C178.095 12.7 178.382 12.3467 178.582 11.88C178.795 11.4 178.902 10.8067 178.902 10.1C178.902 9.03333 178.675 8.24 178.222 7.72C177.769 7.18667 177.169 6.92 176.422 6.92C175.929 6.92 175.495 7.04 175.122 7.28C174.749 7.50667 174.455 7.86 174.242 8.34C174.042 8.80667 173.942 9.39333 173.942 10.1C173.942 11.1533 174.169 11.9533 174.622 12.5C175.075 13.0333 175.675 13.3 176.422 13.3ZM193.395 15.2C192.529 15.2 191.802 15.0533 191.215 14.76C190.642 14.4667 190.215 14.04 189.935 13.48C189.655 12.9067 189.515 12.2 189.515 11.36V7.1H188.475C188.155 7.1 187.909 7.02 187.735 6.86C187.562 6.68667 187.475 6.45333 187.475 6.16C187.475 5.85333 187.562 5.62 187.735 5.46C187.909 5.3 188.155 5.22 188.475 5.22H189.515V3.4C189.515 2.98667 189.622 2.67333 189.835 2.46C190.062 2.24667 190.375 2.14 190.775 2.14C191.175 2.14 191.482 2.24667 191.695 2.46C191.909 2.67333 192.015 2.98667 192.015 3.4V5.22H194.135C194.455 5.22 194.702 5.3 194.875 5.46C195.049 5.62 195.135 5.85333 195.135 6.16C195.135 6.45333 195.049 6.68667 194.875 6.86C194.702 7.02 194.455 7.1 194.135 7.1H192.015V11.22C192.015 11.86 192.155 12.34 192.435 12.66C192.715 12.98 193.169 13.14 193.795 13.14C194.022 13.14 194.222 13.12 194.395 13.08C194.569 13.04 194.722 13.0133 194.855 13C195.015 12.9867 195.149 13.04 195.255 13.16C195.362 13.2667 195.415 13.4933 195.415 13.84C195.415 14.1067 195.369 14.3467 195.275 14.56C195.195 14.76 195.042 14.9 194.815 14.98C194.642 15.0333 194.415 15.08 194.135 15.12C193.855 15.1733 193.609 15.2 193.395 15.2ZM197.871 15.16C197.458 15.16 197.138 15.0533 196.911 14.84C196.698 14.6133 196.591 14.2933 196.591 13.88V6.32C196.591 5.90667 196.698 5.59333 196.911 5.38C197.124 5.16667 197.424 5.06 197.811 5.06C198.198 5.06 198.498 5.16667 198.711 5.38C198.924 5.59333 199.031 5.90667 199.031 6.32V7.58H198.831C199.018 6.78 199.384 6.17333 199.931 5.76C200.478 5.34667 201.204 5.1 202.111 5.02C202.391 4.99333 202.611 5.06667 202.771 5.24C202.944 5.4 203.044 5.65333 203.071 6C203.098 6.33333 203.018 6.60667 202.831 6.82C202.658 7.02 202.391 7.14 202.031 7.18L201.591 7.22C200.778 7.3 200.164 7.55333 199.751 7.98C199.338 8.39333 199.131 8.98 199.131 9.74V13.88C199.131 14.2933 199.024 14.6133 198.811 14.84C198.598 15.0533 198.284 15.16 197.871 15.16ZM205.663 15.14C205.263 15.14 204.956 15.02 204.743 14.78C204.53 14.54 204.423 14.2067 204.423 13.78V6.44C204.423 6 204.53 5.66667 204.743 5.44C204.956 5.2 205.263 5.08 205.663 5.08C206.063 5.08 206.37 5.2 206.583 5.44C206.81 5.66667 206.923 6 206.923 6.44V13.78C206.923 14.2067 206.816 14.54 206.603 14.78C206.39 15.02 206.076 15.14 205.663 15.14ZM205.663 3.22C205.196 3.22 204.83 3.10667 204.563 2.88C204.31 2.64 204.183 2.31333 204.183 1.9C204.183 1.47333 204.31 1.14667 204.563 0.919999C204.83 0.693333 205.196 0.58 205.663 0.58C206.143 0.58 206.51 0.693333 206.763 0.919999C207.016 1.14667 207.143 1.47333 207.143 1.9C207.143 2.31333 207.016 2.64 206.763 2.88C206.51 3.10667 206.143 3.22 205.663 3.22ZM212.741 15.2C212.034 15.2 211.401 15.0667 210.841 14.8C210.294 14.52 209.861 14.1467 209.541 13.68C209.234 13.2133 209.081 12.6867 209.081 12.1C209.081 11.38 209.267 10.8133 209.641 10.4C210.014 9.97333 210.621 9.66667 211.461 9.48C212.301 9.29333 213.427 9.2 214.841 9.2H215.841V10.64H214.861C214.034 10.64 213.374 10.68 212.881 10.76C212.387 10.84 212.034 10.98 211.821 11.18C211.621 11.3667 211.521 11.6333 211.521 11.98C211.521 12.42 211.674 12.78 211.981 13.06C212.287 13.34 212.714 13.48 213.261 13.48C213.701 13.48 214.087 13.38 214.421 13.18C214.767 12.9667 215.041 12.68 215.241 12.32C215.441 11.96 215.541 11.5467 215.541 11.08V8.78C215.541 8.11333 215.394 7.63333 215.101 7.34C214.807 7.04667 214.314 6.9 213.621 6.9C213.234 6.9 212.814 6.94667 212.361 7.04C211.921 7.13333 211.454 7.29333 210.961 7.52C210.707 7.64 210.481 7.67333 210.281 7.62C210.094 7.56667 209.947 7.46 209.841 7.3C209.734 7.12667 209.681 6.94 209.681 6.74C209.681 6.54 209.734 6.34667 209.841 6.16C209.947 5.96 210.127 5.81333 210.381 5.72C210.994 5.46667 211.581 5.28667 212.141 5.18C212.714 5.07333 213.234 5.02 213.701 5.02C214.661 5.02 215.447 5.16667 216.061 5.46C216.687 5.75333 217.154 6.2 217.461 6.8C217.767 7.38667 217.921 8.14667 217.921 9.08V13.88C217.921 14.2933 217.821 14.6133 217.621 14.84C217.421 15.0533 217.134 15.16 216.761 15.16C216.387 15.16 216.094 15.0533 215.881 14.84C215.681 14.6133 215.581 14.2933 215.581 13.88V12.92H215.741C215.647 13.3867 215.461 13.7933 215.181 14.14C214.914 14.4733 214.574 14.7333 214.161 14.92C213.747 15.1067 213.274 15.2 212.741 15.2ZM221.698 15.16C221.298 15.16 220.992 15.0533 220.778 14.84C220.565 14.6133 220.458 14.2933 220.458 13.88V6.32C220.458 5.90667 220.565 5.59333 220.778 5.38C220.992 5.16667 221.292 5.06 221.678 5.06C222.065 5.06 222.365 5.16667 222.578 5.38C222.792 5.59333 222.898 5.90667 222.898 6.32V7.68L222.678 7.18C222.972 6.47333 223.425 5.94 224.038 5.58C224.665 5.20667 225.372 5.02 226.158 5.02C226.945 5.02 227.592 5.16667 228.098 5.46C228.605 5.75333 228.985 6.2 229.238 6.8C229.492 7.38667 229.618 8.13333 229.618 9.04V13.88C229.618 14.2933 229.512 14.6133 229.298 14.84C229.085 15.0533 228.778 15.16 228.378 15.16C227.978 15.16 227.665 15.0533 227.438 14.84C227.225 14.6133 227.118 14.2933 227.118 13.88V9.16C227.118 8.4 226.972 7.84667 226.678 7.5C226.398 7.15333 225.958 6.98 225.358 6.98C224.625 6.98 224.038 7.21333 223.598 7.68C223.172 8.13333 222.958 8.74 222.958 9.5V13.88C222.958 14.7333 222.538 15.16 221.698 15.16ZM236.717 18.8C235.997 18.8 235.297 18.7333 234.617 18.6C233.951 18.4667 233.344 18.26 232.797 17.98C232.544 17.8467 232.371 17.6867 232.277 17.5C232.197 17.3133 232.171 17.12 232.197 16.92C232.237 16.7333 232.317 16.5667 232.437 16.42C232.571 16.2733 232.731 16.1733 232.917 16.12C233.104 16.0667 233.297 16.0933 233.497 16.2C234.084 16.4933 234.637 16.68 235.157 16.76C235.691 16.8533 236.144 16.9 236.517 16.9C237.411 16.9 238.077 16.68 238.517 16.24C238.971 15.8133 239.197 15.1733 239.197 14.32V12.52H239.377C239.177 13.2 238.757 13.7467 238.117 14.16C237.491 14.56 236.777 14.76 235.977 14.76C235.097 14.76 234.331 14.56 233.677 14.16C233.024 13.7467 232.517 13.1733 232.157 12.44C231.797 11.7067 231.617 10.8533 231.617 9.88C231.617 9.14667 231.717 8.48667 231.917 7.9C232.131 7.3 232.424 6.78667 232.797 6.36C233.184 5.93333 233.644 5.60667 234.177 5.38C234.724 5.14 235.324 5.02 235.977 5.02C236.804 5.02 237.524 5.22667 238.137 5.64C238.764 6.04 239.171 6.57333 239.357 7.24L239.157 7.74V6.32C239.157 5.90667 239.264 5.59333 239.477 5.38C239.704 5.16667 240.011 5.06 240.397 5.06C240.797 5.06 241.104 5.16667 241.317 5.38C241.531 5.59333 241.637 5.90667 241.637 6.32V14.02C241.637 15.6067 241.217 16.8 240.377 17.6C239.537 18.4 238.317 18.8 236.717 18.8ZM236.657 12.86C237.177 12.86 237.624 12.74 237.997 12.5C238.371 12.26 238.657 11.92 238.857 11.48C239.071 11.0267 239.177 10.4933 239.177 9.88C239.177 8.96 238.951 8.24 238.497 7.72C238.044 7.18667 237.431 6.92 236.657 6.92C236.137 6.92 235.691 7.04 235.317 7.28C234.944 7.52 234.651 7.86 234.437 8.3C234.237 8.74 234.137 9.26667 234.137 9.88C234.137 10.8 234.364 11.5267 234.817 12.06C235.271 12.5933 235.884 12.86 236.657 12.86ZM247.568 15.2C246.461 15.2 245.628 14.8867 245.068 14.26C244.508 13.62 244.228 12.6867 244.228 11.46V2C244.228 1.58667 244.334 1.27333 244.548 1.06C244.761 0.846666 245.068 0.739999 245.468 0.739999C245.868 0.739999 246.174 0.846666 246.388 1.06C246.614 1.27333 246.728 1.58667 246.728 2V11.34C246.728 11.9533 246.854 12.4067 247.108 12.7C247.374 12.9933 247.748 13.14 248.228 13.14C248.334 13.14 248.434 13.14 248.528 13.14C248.621 13.1267 248.714 13.1133 248.808 13.1C248.994 13.0733 249.121 13.1267 249.188 13.26C249.254 13.38 249.288 13.6333 249.288 14.02C249.288 14.3533 249.221 14.6133 249.088 14.8C248.954 14.9867 248.734 15.1 248.428 15.14C248.294 15.1533 248.154 15.1667 248.008 15.18C247.861 15.1933 247.714 15.2 247.568 15.2ZM255.337 15.2C254.23 15.2 253.277 14.9933 252.477 14.58C251.677 14.1667 251.057 13.58 250.617 12.82C250.19 12.06 249.977 11.16 249.977 10.12C249.977 9.10667 250.183 8.22 250.597 7.46C251.023 6.7 251.603 6.10667 252.337 5.68C253.083 5.24 253.93 5.02 254.877 5.02C255.57 5.02 256.19 5.13333 256.737 5.36C257.297 5.58667 257.77 5.91333 258.157 6.34C258.557 6.76667 258.857 7.28667 259.057 7.9C259.27 8.5 259.377 9.18 259.377 9.94C259.377 10.18 259.29 10.3667 259.117 10.5C258.957 10.62 258.723 10.68 258.417 10.68H251.997V9.24H257.617L257.297 9.54C257.297 8.92667 257.203 8.41333 257.017 8C256.843 7.58667 256.583 7.27333 256.237 7.06C255.903 6.83333 255.483 6.72 254.977 6.72C254.417 6.72 253.937 6.85333 253.537 7.12C253.15 7.37333 252.85 7.74 252.637 8.22C252.437 8.68667 252.337 9.24667 252.337 9.9V10.04C252.337 11.1333 252.59 11.9533 253.097 12.5C253.617 13.0333 254.377 13.3 255.377 13.3C255.723 13.3 256.11 13.26 256.537 13.18C256.977 13.0867 257.39 12.9333 257.777 12.72C258.057 12.56 258.303 12.4933 258.517 12.52C258.73 12.5333 258.897 12.6067 259.017 12.74C259.15 12.8733 259.23 13.04 259.257 13.24C259.283 13.4267 259.243 13.62 259.137 13.82C259.043 14.02 258.877 14.1933 258.637 14.34C258.17 14.6333 257.63 14.8533 257.017 15C256.417 15.1333 255.857 15.2 255.337 15.2ZM264.937 15.2C264.363 15.2 263.757 15.14 263.117 15.02C262.477 14.9 261.903 14.6933 261.397 14.4C261.183 14.2667 261.03 14.1133 260.937 13.94C260.857 13.7533 260.823 13.5733 260.837 13.4C260.863 13.2133 260.93 13.0533 261.037 12.92C261.157 12.7867 261.303 12.7 261.477 12.66C261.663 12.62 261.863 12.6533 262.077 12.76C262.61 13.0133 263.11 13.1933 263.577 13.3C264.043 13.3933 264.503 13.44 264.957 13.44C265.597 13.44 266.07 13.3333 266.377 13.12C266.697 12.8933 266.857 12.6 266.857 12.24C266.857 11.9333 266.75 11.7 266.537 11.54C266.337 11.3667 266.03 11.24 265.617 11.16L263.617 10.78C262.79 10.62 262.157 10.32 261.717 9.88C261.29 9.42667 261.077 8.84667 261.077 8.14C261.077 7.5 261.25 6.94667 261.597 6.48C261.957 6.01333 262.45 5.65333 263.077 5.4C263.703 5.14667 264.423 5.02 265.237 5.02C265.823 5.02 266.37 5.08667 266.877 5.22C267.397 5.34 267.897 5.53333 268.377 5.8C268.577 5.90667 268.71 6.04667 268.777 6.22C268.857 6.39333 268.877 6.57333 268.837 6.76C268.797 6.93333 268.717 7.09333 268.597 7.24C268.477 7.37333 268.323 7.46 268.137 7.5C267.963 7.52667 267.763 7.48667 267.537 7.38C267.123 7.16667 266.723 7.01333 266.337 6.92C265.963 6.82667 265.603 6.78 265.257 6.78C264.603 6.78 264.117 6.89333 263.797 7.12C263.49 7.34667 263.337 7.64667 263.337 8.02C263.337 8.3 263.43 8.53333 263.617 8.72C263.803 8.90667 264.09 9.03333 264.477 9.1L266.477 9.48C267.343 9.64 267.997 9.93333 268.437 10.36C268.89 10.7867 269.117 11.36 269.117 12.08C269.117 13.0533 268.737 13.82 267.977 14.38C267.217 14.9267 266.203 15.2 264.937 15.2ZM272.225 15.1C271.771 15.1 271.405 14.96 271.125 14.68C270.858 14.4 270.725 14.04 270.725 13.6C270.725 13.1733 270.858 12.8267 271.125 12.56C271.405 12.28 271.771 12.14 272.225 12.14C272.691 12.14 273.051 12.28 273.305 12.56C273.571 12.8267 273.705 13.1733 273.705 13.6C273.705 14.04 273.571 14.4 273.305 14.68C273.051 14.96 272.691 15.1 272.225 15.1Z" fill="#444444"/>
</svg>
