<svg width="491" height="63" viewBox="0 0 491 63" fill="none" xmlns="http://www.w3.org/2000/svg">
<path d="M6.57547 15.16C6.16214 15.16 5.84214 15.0467 5.61547 14.82C5.40214 14.58 5.29547 14.2533 5.29547 13.84V3.04H1.39547C1.0488 3.04 0.775469 2.94667 0.575469 2.76C0.388802 2.56 0.295469 2.29333 0.295469 1.96C0.295469 1.61333 0.388802 1.35333 0.575469 1.18C0.775469 0.993332 1.0488 0.899999 1.39547 0.899999H11.7555C12.1021 0.899999 12.3688 0.993332 12.5555 1.18C12.7555 1.35333 12.8555 1.61333 12.8555 1.96C12.8555 2.29333 12.7555 2.56 12.5555 2.76C12.3688 2.94667 12.1021 3.04 11.7555 3.04H7.85547V13.84C7.85547 14.2533 7.7488 14.58 7.53547 14.82C7.32214 15.0467 7.00214 15.16 6.57547 15.16ZM16.9748 15.2C15.9615 15.2 15.0815 14.9933 14.3348 14.58C13.5882 14.1667 13.0082 13.58 12.5948 12.82C12.1815 12.0467 11.9748 11.14 11.9748 10.1C11.9748 9.31333 12.0882 8.61333 12.3148 8C12.5548 7.37333 12.8948 6.84 13.3348 6.4C13.7748 5.94667 14.3015 5.60667 14.9148 5.38C15.5282 5.14 16.2148 5.02 16.9748 5.02C17.9882 5.02 18.8682 5.22667 19.6148 5.64C20.3615 6.05333 20.9415 6.64 21.3548 7.4C21.7682 8.16 21.9748 9.06 21.9748 10.1C21.9748 10.8867 21.8548 11.5933 21.6148 12.22C21.3882 12.8467 21.0548 13.3867 20.6148 13.84C20.1748 14.28 19.6482 14.62 19.0348 14.86C18.4215 15.0867 17.7348 15.2 16.9748 15.2ZM16.9748 13.3C17.4682 13.3 17.9015 13.18 18.2748 12.94C18.6482 12.7 18.9348 12.3467 19.1348 11.88C19.3482 11.4 19.4548 10.8067 19.4548 10.1C19.4548 9.03333 19.2282 8.24 18.7748 7.72C18.3215 7.18667 17.7215 6.92 16.9748 6.92C16.4815 6.92 16.0482 7.04 15.6748 7.28C15.3015 7.50667 15.0082 7.86 14.7948 8.34C14.5948 8.80667 14.4948 9.39333 14.4948 10.1C14.4948 11.1533 14.7215 11.9533 15.1748 12.5C15.6282 13.0333 16.2282 13.3 16.9748 13.3ZM28.4206 15.2C27.554 15.2 26.8273 15.0533 26.2406 14.76C25.6673 14.4667 25.2406 14.04 24.9606 13.48C24.6806 12.9067 24.5406 12.2 24.5406 11.36V7.1H23.5006C23.1806 7.1 22.934 7.02 22.7606 6.86C22.5873 6.68667 22.5006 6.45333 22.5006 6.16C22.5006 5.85333 22.5873 5.62 22.7606 5.46C22.934 5.3 23.1806 5.22 23.5006 5.22H24.5406V3.4C24.5406 2.98667 24.6473 2.67333 24.8606 2.46C25.0873 2.24667 25.4006 2.14 25.8006 2.14C26.2006 2.14 26.5073 2.24667 26.7206 2.46C26.934 2.67333 27.0406 2.98667 27.0406 3.4V5.22H29.1606C29.4806 5.22 29.7273 5.3 29.9006 5.46C30.074 5.62 30.1606 5.85333 30.1606 6.16C30.1606 6.45333 30.074 6.68667 29.9006 6.86C29.7273 7.02 29.4806 7.1 29.1606 7.1H27.0406V11.22C27.0406 11.86 27.1806 12.34 27.4606 12.66C27.7406 12.98 28.194 13.14 28.8206 13.14C29.0473 13.14 29.2473 13.12 29.4206 13.08C29.594 13.04 29.7473 13.0133 29.8806 13C30.0406 12.9867 30.174 13.04 30.2806 13.16C30.3873 13.2667 30.4406 13.4933 30.4406 13.84C30.4406 14.1067 30.394 14.3467 30.3006 14.56C30.2206 14.76 30.0673 14.9 29.8406 14.98C29.6673 15.0333 29.4406 15.08 29.1606 15.12C28.8806 15.1733 28.634 15.2 28.4206 15.2ZM34.8364 15.2C34.1297 15.2 33.4964 15.0667 32.9364 14.8C32.3897 14.52 31.9564 14.1467 31.6364 13.68C31.3297 13.2133 31.1764 12.6867 31.1764 12.1C31.1764 11.38 31.3631 10.8133 31.7364 10.4C32.1097 9.97333 32.7164 9.66667 33.5564 9.48C34.3964 9.29333 35.5231 9.2 36.9364 9.2H37.9364V10.64H36.9564C36.1297 10.64 35.4697 10.68 34.9764 10.76C34.4831 10.84 34.1297 10.98 33.9164 11.18C33.7164 11.3667 33.6164 11.6333 33.6164 11.98C33.6164 12.42 33.7697 12.78 34.0764 13.06C34.3831 13.34 34.8097 13.48 35.3564 13.48C35.7964 13.48 36.1831 13.38 36.5164 13.18C36.8631 12.9667 37.1364 12.68 37.3364 12.32C37.5364 11.96 37.6364 11.5467 37.6364 11.08V8.78C37.6364 8.11333 37.4897 7.63333 37.1964 7.34C36.9031 7.04667 36.4097 6.9 35.7164 6.9C35.3297 6.9 34.9097 6.94667 34.4564 7.04C34.0164 7.13333 33.5497 7.29333 33.0564 7.52C32.8031 7.64 32.5764 7.67333 32.3764 7.62C32.1897 7.56667 32.0431 7.46 31.9364 7.3C31.8297 7.12667 31.7764 6.94 31.7764 6.74C31.7764 6.54 31.8297 6.34667 31.9364 6.16C32.0431 5.96 32.2231 5.81333 32.4764 5.72C33.0897 5.46667 33.6764 5.28667 34.2364 5.18C34.8097 5.07333 35.3297 5.02 35.7964 5.02C36.7564 5.02 37.5431 5.16667 38.1564 5.46C38.7831 5.75333 39.2497 6.2 39.5564 6.8C39.8631 7.38667 40.0164 8.14667 40.0164 9.08V13.88C40.0164 14.2933 39.9164 14.6133 39.7164 14.84C39.5164 15.0533 39.2297 15.16 38.8564 15.16C38.4831 15.16 38.1897 15.0533 37.9764 14.84C37.7764 14.6133 37.6764 14.2933 37.6764 13.88V12.92H37.8364C37.7431 13.3867 37.5564 13.7933 37.2764 14.14C37.0097 14.4733 36.6697 14.7333 36.2564 14.92C35.8431 15.1067 35.3697 15.2 34.8364 15.2ZM45.8939 15.2C44.7872 15.2 43.9539 14.8867 43.3939 14.26C42.8339 13.62 42.5539 12.6867 42.5539 11.46V2C42.5539 1.58667 42.6606 1.27333 42.8739 1.06C43.0872 0.846666 43.3939 0.739999 43.7939 0.739999C44.1939 0.739999 44.5006 0.846666 44.7139 1.06C44.9406 1.27333 45.0539 1.58667 45.0539 2V11.34C45.0539 11.9533 45.1806 12.4067 45.4339 12.7C45.7006 12.9933 46.0739 13.14 46.5539 13.14C46.6606 13.14 46.7606 13.14 46.8539 13.14C46.9472 13.1267 47.0406 13.1133 47.1339 13.1C47.3206 13.0733 47.4472 13.1267 47.5139 13.26C47.5806 13.38 47.6139 13.6333 47.6139 14.02C47.6139 14.3533 47.5472 14.6133 47.4139 14.8C47.2806 14.9867 47.0606 15.1 46.7539 15.14C46.6206 15.1533 46.4806 15.1667 46.3339 15.18C46.1872 15.1933 46.0406 15.2 45.8939 15.2ZM57.5903 15.2C56.8836 15.2 56.2503 15.0667 55.6903 14.8C55.1436 14.52 54.7103 14.1467 54.3903 13.68C54.0836 13.2133 53.9303 12.6867 53.9303 12.1C53.9303 11.38 54.117 10.8133 54.4903 10.4C54.8636 9.97333 55.4703 9.66667 56.3103 9.48C57.1503 9.29333 58.277 9.2 59.6903 9.2H60.6903V10.64H59.7103C58.8836 10.64 58.2236 10.68 57.7303 10.76C57.237 10.84 56.8836 10.98 56.6703 11.18C56.4703 11.3667 56.3703 11.6333 56.3703 11.98C56.3703 12.42 56.5236 12.78 56.8303 13.06C57.137 13.34 57.5636 13.48 58.1103 13.48C58.5503 13.48 58.937 13.38 59.2703 13.18C59.617 12.9667 59.8903 12.68 60.0903 12.32C60.2903 11.96 60.3903 11.5467 60.3903 11.08V8.78C60.3903 8.11333 60.2436 7.63333 59.9503 7.34C59.657 7.04667 59.1636 6.9 58.4703 6.9C58.0836 6.9 57.6636 6.94667 57.2103 7.04C56.7703 7.13333 56.3036 7.29333 55.8103 7.52C55.557 7.64 55.3303 7.67333 55.1303 7.62C54.9436 7.56667 54.797 7.46 54.6903 7.3C54.5836 7.12667 54.5303 6.94 54.5303 6.74C54.5303 6.54 54.5836 6.34667 54.6903 6.16C54.797 5.96 54.977 5.81333 55.2303 5.72C55.8436 5.46667 56.4303 5.28667 56.9903 5.18C57.5636 5.07333 58.0836 5.02 58.5503 5.02C59.5103 5.02 60.297 5.16667 60.9103 5.46C61.537 5.75333 62.0036 6.2 62.3103 6.8C62.617 7.38667 62.7703 8.14667 62.7703 9.08V13.88C62.7703 14.2933 62.6703 14.6133 62.4703 14.84C62.2703 15.0533 61.9836 15.16 61.6103 15.16C61.237 15.16 60.9436 15.0533 60.7303 14.84C60.5303 14.6133 60.4303 14.2933 60.4303 13.88V12.92H60.5903C60.497 13.3867 60.3103 13.7933 60.0303 14.14C59.7636 14.4733 59.4236 14.7333 59.0103 14.92C58.597 15.1067 58.1236 15.2 57.5903 15.2ZM66.5878 15.16C66.1745 15.16 65.8545 15.0533 65.6278 14.84C65.4145 14.6133 65.3078 14.2933 65.3078 13.88V6.32C65.3078 5.90667 65.4145 5.59333 65.6278 5.38C65.8411 5.16667 66.1411 5.06 66.5278 5.06C66.9145 5.06 67.2145 5.16667 67.4278 5.38C67.6411 5.59333 67.7478 5.90667 67.7478 6.32V7.58H67.5478C67.7345 6.78 68.1011 6.17333 68.6478 5.76C69.1945 5.34667 69.9211 5.1 70.8278 5.02C71.1078 4.99333 71.3278 5.06667 71.4878 5.24C71.6611 5.4 71.7611 5.65333 71.7878 6C71.8145 6.33333 71.7345 6.60667 71.5478 6.82C71.3745 7.02 71.1078 7.14 70.7478 7.18L70.3078 7.22C69.4945 7.3 68.8811 7.55333 68.4678 7.98C68.0545 8.39333 67.8478 8.98 67.8478 9.74V13.88C67.8478 14.2933 67.7411 14.6133 67.5278 14.84C67.3145 15.0533 67.0011 15.16 66.5878 15.16ZM77.8036 15.2C76.6969 15.2 75.7436 14.9933 74.9436 14.58C74.1436 14.1667 73.5236 13.58 73.0836 12.82C72.6569 12.06 72.4436 11.16 72.4436 10.12C72.4436 9.10667 72.6503 8.22 73.0636 7.46C73.4903 6.7 74.0703 6.10667 74.8036 5.68C75.5503 5.24 76.3969 5.02 77.3436 5.02C78.0369 5.02 78.6569 5.13333 79.2036 5.36C79.7636 5.58667 80.2369 5.91333 80.6236 6.34C81.0236 6.76667 81.3236 7.28667 81.5236 7.9C81.7369 8.5 81.8436 9.18 81.8436 9.94C81.8436 10.18 81.7569 10.3667 81.5836 10.5C81.4236 10.62 81.1903 10.68 80.8836 10.68H74.4636V9.24H80.0836L79.7636 9.54C79.7636 8.92667 79.6703 8.41333 79.4836 8C79.3103 7.58667 79.0503 7.27333 78.7036 7.06C78.3703 6.83333 77.9503 6.72 77.4436 6.72C76.8836 6.72 76.4036 6.85333 76.0036 7.12C75.6169 7.37333 75.3169 7.74 75.1036 8.22C74.9036 8.68667 74.8036 9.24667 74.8036 9.9V10.04C74.8036 11.1333 75.0569 11.9533 75.5636 12.5C76.0836 13.0333 76.8436 13.3 77.8436 13.3C78.1903 13.3 78.5769 13.26 79.0036 13.18C79.4436 13.0867 79.8569 12.9333 80.2436 12.72C80.5236 12.56 80.7703 12.4933 80.9836 12.52C81.1969 12.5333 81.3636 12.6067 81.4836 12.74C81.6169 12.8733 81.6969 13.04 81.7236 13.24C81.7503 13.4267 81.7103 13.62 81.6036 13.82C81.5103 14.02 81.3436 14.1933 81.1036 14.34C80.6369 14.6333 80.0969 14.8533 79.4836 15C78.8836 15.1333 78.3236 15.2 77.8036 15.2ZM87.0434 15.2C86.3368 15.2 85.7034 15.0667 85.1434 14.8C84.5968 14.52 84.1634 14.1467 83.8434 13.68C83.5368 13.2133 83.3834 12.6867 83.3834 12.1C83.3834 11.38 83.5701 10.8133 83.9434 10.4C84.3168 9.97333 84.9234 9.66667 85.7634 9.48C86.6034 9.29333 87.7301 9.2 89.1434 9.2H90.1434V10.64H89.1634C88.3368 10.64 87.6768 10.68 87.1834 10.76C86.6901 10.84 86.3368 10.98 86.1234 11.18C85.9234 11.3667 85.8234 11.6333 85.8234 11.98C85.8234 12.42 85.9768 12.78 86.2834 13.06C86.5901 13.34 87.0168 13.48 87.5634 13.48C88.0034 13.48 88.3901 13.38 88.7234 13.18C89.0701 12.9667 89.3434 12.68 89.5434 12.32C89.7434 11.96 89.8434 11.5467 89.8434 11.08V8.78C89.8434 8.11333 89.6968 7.63333 89.4034 7.34C89.1101 7.04667 88.6168 6.9 87.9234 6.9C87.5368 6.9 87.1168 6.94667 86.6634 7.04C86.2234 7.13333 85.7568 7.29333 85.2634 7.52C85.0101 7.64 84.7834 7.67333 84.5834 7.62C84.3968 7.56667 84.2501 7.46 84.1434 7.3C84.0368 7.12667 83.9834 6.94 83.9834 6.74C83.9834 6.54 84.0368 6.34667 84.1434 6.16C84.2501 5.96 84.4301 5.81333 84.6834 5.72C85.2968 5.46667 85.8834 5.28667 86.4434 5.18C87.0168 5.07333 87.5368 5.02 88.0034 5.02C88.9634 5.02 89.7501 5.16667 90.3634 5.46C90.9901 5.75333 91.4568 6.2 91.7634 6.8C92.0701 7.38667 92.2234 8.14667 92.2234 9.08V13.88C92.2234 14.2933 92.1234 14.6133 91.9234 14.84C91.7234 15.0533 91.4368 15.16 91.0634 15.16C90.6901 15.16 90.3968 15.0533 90.1834 14.84C89.9834 14.6133 89.8834 14.2933 89.8834 13.88V12.92H90.0434C89.9501 13.3867 89.7634 13.7933 89.4834 14.14C89.2168 14.4733 88.8768 14.7333 88.4634 14.92C88.0501 15.1067 87.5768 15.2 87.0434 15.2ZM104.651 15.2C103.637 15.2 102.757 14.9933 102.011 14.58C101.264 14.1667 100.684 13.58 100.271 12.82C99.8573 12.0467 99.6506 11.14 99.6506 10.1C99.6506 9.31333 99.764 8.61333 99.9906 8C100.231 7.37333 100.571 6.84 101.011 6.4C101.451 5.94667 101.977 5.60667 102.591 5.38C103.204 5.14 103.891 5.02 104.651 5.02C105.664 5.02 106.544 5.22667 107.291 5.64C108.037 6.05333 108.617 6.64 109.031 7.4C109.444 8.16 109.651 9.06 109.651 10.1C109.651 10.8867 109.531 11.5933 109.291 12.22C109.064 12.8467 108.731 13.3867 108.291 13.84C107.851 14.28 107.324 14.62 106.711 14.86C106.097 15.0867 105.411 15.2 104.651 15.2ZM104.651 13.3C105.144 13.3 105.577 13.18 105.951 12.94C106.324 12.7 106.611 12.3467 106.811 11.88C107.024 11.4 107.131 10.8067 107.131 10.1C107.131 9.03333 106.904 8.24 106.451 7.72C105.997 7.18667 105.397 6.92 104.651 6.92C104.157 6.92 103.724 7.04 103.351 7.28C102.977 7.50667 102.684 7.86 102.471 8.34C102.271 8.80667 102.171 9.39333 102.171 10.1C102.171 11.1533 102.397 11.9533 102.851 12.5C103.304 13.0333 103.904 13.3 104.651 13.3ZM113.536 15.16C113.136 15.16 112.823 15.0533 112.596 14.84C112.383 14.6133 112.276 14.2933 112.276 13.88V7.1H111.356C111.036 7.1 110.79 7.02 110.616 6.86C110.443 6.68667 110.356 6.45333 110.356 6.16C110.356 5.85333 110.443 5.62 110.616 5.46C110.79 5.3 111.036 5.22 111.356 5.22H112.996L112.276 5.88V5.2C112.276 3.82667 112.623 2.8 113.316 2.12C114.01 1.42667 115.01 1.02 116.316 0.899999L116.996 0.84C117.263 0.813333 117.476 0.859999 117.636 0.979999C117.796 1.08667 117.903 1.23333 117.956 1.42C118.01 1.59333 118.016 1.77333 117.976 1.96C117.936 2.14667 117.85 2.31333 117.716 2.46C117.596 2.59333 117.436 2.66667 117.236 2.68L116.956 2.7C116.196 2.75333 115.643 2.94667 115.296 3.28C114.95 3.61333 114.776 4.12 114.776 4.8V5.54L114.456 5.22H116.476C116.796 5.22 117.043 5.3 117.216 5.46C117.39 5.62 117.476 5.85333 117.476 6.16C117.476 6.45333 117.39 6.68667 117.216 6.86C117.043 7.02 116.796 7.1 116.476 7.1H114.776V13.88C114.776 14.7333 114.363 15.16 113.536 15.16ZM126.251 15.16C125.851 15.16 125.538 15.0533 125.311 14.84C125.098 14.6133 124.991 14.2933 124.991 13.88V7.1H124.071C123.751 7.1 123.505 7.02 123.331 6.86C123.158 6.68667 123.071 6.45333 123.071 6.16C123.071 5.85333 123.158 5.62 123.331 5.46C123.505 5.3 123.751 5.22 124.071 5.22H125.711L124.991 5.88V5.2C124.991 3.85333 125.331 2.83333 126.011 2.14C126.691 1.44667 127.678 1.03333 128.971 0.899999L129.571 0.84C129.878 0.813333 130.118 0.853333 130.291 0.96C130.478 1.06667 130.598 1.21333 130.651 1.4C130.718 1.57333 130.731 1.76 130.691 1.96C130.651 2.14667 130.571 2.31333 130.451 2.46C130.331 2.59333 130.178 2.66667 129.991 2.68L129.511 2.72C128.805 2.77333 128.291 2.96667 127.971 3.3C127.651 3.63333 127.491 4.13333 127.491 4.8V5.54L127.171 5.22H132.711C133.111 5.22 133.418 5.34 133.631 5.58C133.845 5.80667 133.951 6.13333 133.951 6.56V13.78C133.951 14.2067 133.845 14.54 133.631 14.78C133.431 15.02 133.125 15.14 132.711 15.14C132.311 15.14 131.998 15.02 131.771 14.78C131.558 14.54 131.451 14.2067 131.451 13.78V7.1H127.491V13.88C127.491 14.7333 127.078 15.16 126.251 15.16ZM132.751 3.22C132.298 3.22 131.945 3.10667 131.691 2.88C131.451 2.64 131.331 2.31333 131.331 1.9C131.331 1.47333 131.451 1.14667 131.691 0.919999C131.945 0.693333 132.298 0.58 132.751 0.58C133.218 0.58 133.571 0.693333 133.811 0.919999C134.065 1.14667 134.191 1.47333 134.191 1.9C134.191 2.31333 134.065 2.64 133.811 2.88C133.571 3.10667 133.218 3.22 132.751 3.22ZM141.118 18.8C140.398 18.8 139.698 18.7333 139.018 18.6C138.351 18.4667 137.744 18.26 137.198 17.98C136.944 17.8467 136.771 17.6867 136.678 17.5C136.598 17.3133 136.571 17.12 136.598 16.92C136.638 16.7333 136.718 16.5667 136.838 16.42C136.971 16.2733 137.131 16.1733 137.318 16.12C137.504 16.0667 137.698 16.0933 137.898 16.2C138.484 16.4933 139.038 16.68 139.558 16.76C140.091 16.8533 140.544 16.9 140.918 16.9C141.811 16.9 142.478 16.68 142.918 16.24C143.371 15.8133 143.598 15.1733 143.598 14.32V12.52H143.778C143.578 13.2 143.158 13.7467 142.518 14.16C141.891 14.56 141.178 14.76 140.378 14.76C139.498 14.76 138.731 14.56 138.078 14.16C137.424 13.7467 136.918 13.1733 136.558 12.44C136.198 11.7067 136.018 10.8533 136.018 9.88C136.018 9.14667 136.118 8.48667 136.318 7.9C136.531 7.3 136.824 6.78667 137.198 6.36C137.584 5.93333 138.044 5.60667 138.578 5.38C139.124 5.14 139.724 5.02 140.378 5.02C141.204 5.02 141.924 5.22667 142.538 5.64C143.164 6.04 143.571 6.57333 143.758 7.24L143.558 7.74V6.32C143.558 5.90667 143.664 5.59333 143.878 5.38C144.104 5.16667 144.411 5.06 144.798 5.06C145.198 5.06 145.504 5.16667 145.718 5.38C145.931 5.59333 146.038 5.90667 146.038 6.32V14.02C146.038 15.6067 145.618 16.8 144.778 17.6C143.938 18.4 142.718 18.8 141.118 18.8ZM141.058 12.86C141.578 12.86 142.024 12.74 142.398 12.5C142.771 12.26 143.058 11.92 143.258 11.48C143.471 11.0267 143.578 10.4933 143.578 9.88C143.578 8.96 143.351 8.24 142.898 7.72C142.444 7.18667 141.831 6.92 141.058 6.92C140.538 6.92 140.091 7.04 139.718 7.28C139.344 7.52 139.051 7.86 138.838 8.3C138.638 8.74 138.538 9.26667 138.538 9.88C138.538 10.8 138.764 11.5267 139.218 12.06C139.671 12.5933 140.284 12.86 141.058 12.86ZM152.168 15.2C151.355 15.2 150.681 15.0533 150.148 14.76C149.615 14.4533 149.215 14 148.948 13.4C148.695 12.8 148.568 12.0533 148.568 11.16V6.32C148.568 5.89333 148.675 5.58 148.888 5.38C149.101 5.16667 149.408 5.06 149.808 5.06C150.208 5.06 150.515 5.16667 150.728 5.38C150.955 5.58 151.068 5.89333 151.068 6.32V11.2C151.068 11.8933 151.208 12.4067 151.488 12.74C151.768 13.0733 152.215 13.24 152.828 13.24C153.495 13.24 154.041 13.0133 154.468 12.56C154.895 12.0933 155.108 11.48 155.108 10.72V6.32C155.108 5.89333 155.215 5.58 155.428 5.38C155.641 5.16667 155.948 5.06 156.348 5.06C156.748 5.06 157.055 5.16667 157.268 5.38C157.495 5.58 157.608 5.89333 157.608 6.32V13.88C157.608 14.7333 157.201 15.16 156.388 15.16C156.001 15.16 155.701 15.0533 155.488 14.84C155.275 14.6133 155.168 14.2933 155.168 13.88V12.36L155.448 12.96C155.168 13.68 154.741 14.2333 154.168 14.62C153.608 15.0067 152.941 15.2 152.168 15.2ZM161.49 15.16C161.077 15.16 160.757 15.0533 160.53 14.84C160.317 14.6133 160.21 14.2933 160.21 13.88V6.32C160.21 5.90667 160.317 5.59333 160.53 5.38C160.743 5.16667 161.043 5.06 161.43 5.06C161.817 5.06 162.117 5.16667 162.33 5.38C162.543 5.59333 162.65 5.90667 162.65 6.32V7.58H162.45C162.637 6.78 163.003 6.17333 163.55 5.76C164.097 5.34667 164.823 5.1 165.73 5.02C166.01 4.99333 166.23 5.06667 166.39 5.24C166.563 5.4 166.663 5.65333 166.69 6C166.717 6.33333 166.637 6.60667 166.45 6.82C166.277 7.02 166.01 7.14 165.65 7.18L165.21 7.22C164.397 7.3 163.783 7.55333 163.37 7.98C162.957 8.39333 162.75 8.98 162.75 9.74V13.88C162.75 14.2933 162.643 14.6133 162.43 14.84C162.217 15.0533 161.903 15.16 161.49 15.16ZM172.706 15.2C171.599 15.2 170.646 14.9933 169.846 14.58C169.046 14.1667 168.426 13.58 167.986 12.82C167.559 12.06 167.346 11.16 167.346 10.12C167.346 9.10667 167.553 8.22 167.966 7.46C168.393 6.7 168.973 6.10667 169.706 5.68C170.453 5.24 171.299 5.02 172.246 5.02C172.939 5.02 173.559 5.13333 174.106 5.36C174.666 5.58667 175.139 5.91333 175.526 6.34C175.926 6.76667 176.226 7.28667 176.426 7.9C176.639 8.5 176.746 9.18 176.746 9.94C176.746 10.18 176.659 10.3667 176.486 10.5C176.326 10.62 176.093 10.68 175.786 10.68H169.366V9.24H174.986L174.666 9.54C174.666 8.92667 174.573 8.41333 174.386 8C174.213 7.58667 173.953 7.27333 173.606 7.06C173.273 6.83333 172.853 6.72 172.346 6.72C171.786 6.72 171.306 6.85333 170.906 7.12C170.519 7.37333 170.219 7.74 170.006 8.22C169.806 8.68667 169.706 9.24667 169.706 9.9V10.04C169.706 11.1333 169.959 11.9533 170.466 12.5C170.986 13.0333 171.746 13.3 172.746 13.3C173.093 13.3 173.479 13.26 173.906 13.18C174.346 13.0867 174.759 12.9333 175.146 12.72C175.426 12.56 175.673 12.4933 175.886 12.52C176.099 12.5333 176.266 12.6067 176.386 12.74C176.519 12.8733 176.599 13.04 176.626 13.24C176.653 13.4267 176.613 13.62 176.506 13.82C176.413 14.02 176.246 14.1933 176.006 14.34C175.539 14.6333 174.999 14.8533 174.386 15C173.786 15.1333 173.226 15.2 172.706 15.2ZM184.715 8.14C184.435 8.14 184.215 8.06667 184.055 7.92C183.895 7.76 183.815 7.54 183.815 7.26C183.815 6.98 183.895 6.76667 184.055 6.62C184.215 6.46 184.435 6.38 184.715 6.38H192.995C193.289 6.38 193.509 6.46 193.655 6.62C193.815 6.76667 193.895 6.98 193.895 7.26C193.895 7.54 193.815 7.76 193.655 7.92C193.509 8.06667 193.289 8.14 192.995 8.14H184.715ZM184.715 12.12C184.435 12.12 184.215 12.0467 184.055 11.9C183.895 11.74 183.815 11.52 183.815 11.24C183.815 10.96 183.895 10.7467 184.055 10.6C184.215 10.4533 184.435 10.38 184.715 10.38H192.995C193.289 10.38 193.509 10.4533 193.655 10.6C193.815 10.7467 193.895 10.96 193.895 11.24C193.895 11.5333 193.815 11.7533 193.655 11.9C193.509 12.0467 193.289 12.12 192.995 12.12H184.715ZM206.677 15.2C206.091 15.2 205.504 15.1533 204.917 15.06C204.331 14.98 203.777 14.8533 203.257 14.68C202.737 14.4933 202.271 14.2667 201.857 14C201.617 13.84 201.451 13.6467 201.357 13.42C201.264 13.1933 201.231 12.9733 201.257 12.76C201.297 12.5333 201.384 12.34 201.517 12.18C201.664 12.0067 201.844 11.9 202.057 11.86C202.271 11.82 202.504 11.88 202.757 12.04C203.344 12.3867 203.964 12.64 204.617 12.8C205.271 12.96 205.957 13.04 206.677 13.04C207.731 13.04 208.497 12.8667 208.977 12.52C209.457 12.16 209.697 11.7 209.697 11.14C209.697 10.6733 209.524 10.3067 209.177 10.04C208.844 9.77333 208.264 9.55333 207.437 9.38L205.237 8.92C203.971 8.65333 203.024 8.20667 202.397 7.58C201.784 6.94 201.477 6.1 201.477 5.06C201.477 4.40667 201.611 3.81333 201.877 3.28C202.144 2.74667 202.517 2.28667 202.997 1.9C203.491 1.51333 204.071 1.22 204.737 1.02C205.417 0.806666 206.164 0.699999 206.977 0.699999C207.777 0.699999 208.537 0.799999 209.257 0.999999C209.977 1.2 210.624 1.49333 211.197 1.88C211.411 2.02667 211.551 2.20667 211.617 2.42C211.697 2.63333 211.717 2.84667 211.677 3.06C211.637 3.26 211.544 3.43333 211.397 3.58C211.251 3.72667 211.064 3.81333 210.837 3.84C210.624 3.86667 210.377 3.8 210.097 3.64C209.604 3.36 209.104 3.16 208.597 3.04C208.091 2.92 207.544 2.86 206.957 2.86C206.344 2.86 205.817 2.94667 205.377 3.12C204.937 3.29333 204.597 3.54 204.357 3.86C204.131 4.16667 204.017 4.53333 204.017 4.96C204.017 5.44 204.177 5.82667 204.497 6.12C204.817 6.4 205.364 6.62 206.137 6.78L208.317 7.24C209.637 7.52 210.617 7.96 211.257 8.56C211.911 9.16 212.237 9.96 212.237 10.96C212.237 11.6 212.104 12.18 211.837 12.7C211.584 13.22 211.211 13.6667 210.717 14.04C210.237 14.4133 209.657 14.7 208.977 14.9C208.297 15.1 207.531 15.2 206.677 15.2ZM217.735 15.2C216.921 15.2 216.248 15.0533 215.715 14.76C215.181 14.4533 214.781 14 214.515 13.4C214.261 12.8 214.135 12.0533 214.135 11.16V6.32C214.135 5.89333 214.241 5.58 214.455 5.38C214.668 5.16667 214.975 5.06 215.375 5.06C215.775 5.06 216.081 5.16667 216.295 5.38C216.521 5.58 216.635 5.89333 216.635 6.32V11.2C216.635 11.8933 216.775 12.4067 217.055 12.74C217.335 13.0733 217.781 13.24 218.395 13.24C219.061 13.24 219.608 13.0133 220.035 12.56C220.461 12.0933 220.675 11.48 220.675 10.72V6.32C220.675 5.89333 220.781 5.58 220.995 5.38C221.208 5.16667 221.515 5.06 221.915 5.06C222.315 5.06 222.621 5.16667 222.835 5.38C223.061 5.58 223.175 5.89333 223.175 6.32V13.88C223.175 14.7333 222.768 15.16 221.955 15.16C221.568 15.16 221.268 15.0533 221.055 14.84C220.841 14.6133 220.735 14.2933 220.735 13.88V12.36L221.015 12.96C220.735 13.68 220.308 14.2333 219.735 14.62C219.175 15.0067 218.508 15.2 217.735 15.2ZM227.057 15.16C226.657 15.16 226.35 15.0533 226.137 14.84C225.923 14.6133 225.817 14.2933 225.817 13.88V6.32C225.817 5.90667 225.923 5.59333 226.137 5.38C226.35 5.16667 226.65 5.06 227.037 5.06C227.423 5.06 227.723 5.16667 227.937 5.38C228.15 5.59333 228.257 5.90667 228.257 6.32V7.78L228.037 7.18C228.303 6.51333 228.717 5.98667 229.277 5.6C229.837 5.21333 230.503 5.02 231.277 5.02C232.063 5.02 232.71 5.20667 233.217 5.58C233.723 5.95333 234.077 6.52667 234.277 7.3H233.997C234.263 6.59333 234.703 6.04 235.317 5.64C235.93 5.22667 236.637 5.02 237.437 5.02C238.183 5.02 238.797 5.16667 239.277 5.46C239.77 5.75333 240.137 6.2 240.377 6.8C240.617 7.38667 240.737 8.13333 240.737 9.04V13.88C240.737 14.2933 240.623 14.6133 240.397 14.84C240.183 15.0533 239.877 15.16 239.477 15.16C239.077 15.16 238.77 15.0533 238.557 14.84C238.343 14.6133 238.237 14.2933 238.237 13.88V9.14C238.237 8.39333 238.11 7.84667 237.857 7.5C237.617 7.15333 237.203 6.98 236.617 6.98C235.963 6.98 235.45 7.21333 235.077 7.68C234.703 8.13333 234.517 8.76667 234.517 9.58V13.88C234.517 14.2933 234.41 14.6133 234.197 14.84C233.983 15.0533 233.677 15.16 233.277 15.16C232.877 15.16 232.563 15.0533 232.337 14.84C232.123 14.6133 232.017 14.2933 232.017 13.88V9.14C232.017 8.39333 231.89 7.84667 231.637 7.5C231.397 7.15333 230.99 6.98 230.417 6.98C229.763 6.98 229.25 7.21333 228.877 7.68C228.503 8.13333 228.317 8.76667 228.317 9.58V13.88C228.317 14.7333 227.897 15.16 227.057 15.16ZM253.205 15.2C252.192 15.2 251.312 14.9933 250.565 14.58C249.819 14.1667 249.239 13.58 248.825 12.82C248.412 12.0467 248.205 11.14 248.205 10.1C248.205 9.31333 248.319 8.61333 248.545 8C248.785 7.37333 249.125 6.84 249.565 6.4C250.005 5.94667 250.532 5.60667 251.145 5.38C251.759 5.14 252.445 5.02 253.205 5.02C254.219 5.02 255.099 5.22667 255.845 5.64C256.592 6.05333 257.172 6.64 257.585 7.4C257.999 8.16 258.205 9.06 258.205 10.1C258.205 10.8867 258.085 11.5933 257.845 12.22C257.619 12.8467 257.285 13.3867 256.845 13.84C256.405 14.28 255.879 14.62 255.265 14.86C254.652 15.0867 253.965 15.2 253.205 15.2ZM253.205 13.3C253.699 13.3 254.132 13.18 254.505 12.94C254.879 12.7 255.165 12.3467 255.365 11.88C255.579 11.4 255.685 10.8067 255.685 10.1C255.685 9.03333 255.459 8.24 255.005 7.72C254.552 7.18667 253.952 6.92 253.205 6.92C252.712 6.92 252.279 7.04 251.905 7.28C251.532 7.50667 251.239 7.86 251.025 8.34C250.825 8.80667 250.725 9.39333 250.725 10.1C250.725 11.1533 250.952 11.9533 251.405 12.5C251.859 13.0333 252.459 13.3 253.205 13.3ZM262.091 15.16C261.691 15.16 261.378 15.0533 261.151 14.84C260.938 14.6133 260.831 14.2933 260.831 13.88V7.1H259.911C259.591 7.1 259.344 7.02 259.171 6.86C258.998 6.68667 258.911 6.45333 258.911 6.16C258.911 5.85333 258.998 5.62 259.171 5.46C259.344 5.3 259.591 5.22 259.911 5.22H261.551L260.831 5.88V5.2C260.831 3.82667 261.178 2.8 261.871 2.12C262.564 1.42667 263.564 1.02 264.871 0.899999L265.551 0.84C265.818 0.813333 266.031 0.859999 266.191 0.979999C266.351 1.08667 266.458 1.23333 266.511 1.42C266.564 1.59333 266.571 1.77333 266.531 1.96C266.491 2.14667 266.404 2.31333 266.271 2.46C266.151 2.59333 265.991 2.66667 265.791 2.68L265.511 2.7C264.751 2.75333 264.198 2.94667 263.851 3.28C263.504 3.61333 263.331 4.12 263.331 4.8V5.54L263.011 5.22H265.031C265.351 5.22 265.598 5.3 265.771 5.46C265.944 5.62 266.031 5.85333 266.031 6.16C266.031 6.45333 265.944 6.68667 265.771 6.86C265.598 7.02 265.351 7.1 265.031 7.1H263.331V13.88C263.331 14.7333 262.918 15.16 262.091 15.16ZM276.106 15.2C275.399 15.2 274.766 15.0667 274.206 14.8C273.659 14.52 273.226 14.1467 272.906 13.68C272.599 13.2133 272.446 12.6867 272.446 12.1C272.446 11.38 272.633 10.8133 273.006 10.4C273.379 9.97333 273.986 9.66667 274.826 9.48C275.666 9.29333 276.793 9.2 278.206 9.2H279.206V10.64H278.226C277.399 10.64 276.739 10.68 276.246 10.76C275.753 10.84 275.399 10.98 275.186 11.18C274.986 11.3667 274.886 11.6333 274.886 11.98C274.886 12.42 275.039 12.78 275.346 13.06C275.653 13.34 276.079 13.48 276.626 13.48C277.066 13.48 277.453 13.38 277.786 13.18C278.133 12.9667 278.406 12.68 278.606 12.32C278.806 11.96 278.906 11.5467 278.906 11.08V8.78C278.906 8.11333 278.759 7.63333 278.466 7.34C278.173 7.04667 277.679 6.9 276.986 6.9C276.599 6.9 276.179 6.94667 275.726 7.04C275.286 7.13333 274.819 7.29333 274.326 7.52C274.073 7.64 273.846 7.67333 273.646 7.62C273.459 7.56667 273.313 7.46 273.206 7.3C273.099 7.12667 273.046 6.94 273.046 6.74C273.046 6.54 273.099 6.34667 273.206 6.16C273.313 5.96 273.493 5.81333 273.746 5.72C274.359 5.46667 274.946 5.28667 275.506 5.18C276.079 5.07333 276.599 5.02 277.066 5.02C278.026 5.02 278.813 5.16667 279.426 5.46C280.053 5.75333 280.519 6.2 280.826 6.8C281.133 7.38667 281.286 8.14667 281.286 9.08V13.88C281.286 14.2933 281.186 14.6133 280.986 14.84C280.786 15.0533 280.499 15.16 280.126 15.16C279.753 15.16 279.459 15.0533 279.246 14.84C279.046 14.6133 278.946 14.2933 278.946 13.88V12.92H279.106C279.013 13.3867 278.826 13.7933 278.546 14.14C278.279 14.4733 277.939 14.7333 277.526 14.92C277.113 15.1067 276.639 15.2 276.106 15.2ZM285.103 15.16C284.69 15.16 284.37 15.0533 284.143 14.84C283.93 14.6133 283.823 14.2933 283.823 13.88V6.32C283.823 5.90667 283.93 5.59333 284.143 5.38C284.357 5.16667 284.657 5.06 285.043 5.06C285.43 5.06 285.73 5.16667 285.943 5.38C286.157 5.59333 286.263 5.90667 286.263 6.32V7.58H286.063C286.25 6.78 286.617 6.17333 287.163 5.76C287.71 5.34667 288.437 5.1 289.343 5.02C289.623 4.99333 289.843 5.06667 290.003 5.24C290.177 5.4 290.277 5.65333 290.303 6C290.33 6.33333 290.25 6.60667 290.063 6.82C289.89 7.02 289.623 7.14 289.263 7.18L288.823 7.22C288.01 7.3 287.397 7.55333 286.983 7.98C286.57 8.39333 286.363 8.98 286.363 9.74V13.88C286.363 14.2933 286.257 14.6133 286.043 14.84C285.83 15.0533 285.517 15.16 285.103 15.16ZM296.319 15.2C295.213 15.2 294.259 14.9933 293.459 14.58C292.659 14.1667 292.039 13.58 291.599 12.82C291.173 12.06 290.959 11.16 290.959 10.12C290.959 9.10667 291.166 8.22 291.579 7.46C292.006 6.7 292.586 6.10667 293.319 5.68C294.066 5.24 294.913 5.02 295.859 5.02C296.553 5.02 297.173 5.13333 297.719 5.36C298.279 5.58667 298.753 5.91333 299.139 6.34C299.539 6.76667 299.839 7.28667 300.039 7.9C300.253 8.5 300.359 9.18 300.359 9.94C300.359 10.18 300.273 10.3667 300.099 10.5C299.939 10.62 299.706 10.68 299.399 10.68H292.979V9.24H298.599L298.279 9.54C298.279 8.92667 298.186 8.41333 297.999 8C297.826 7.58667 297.566 7.27333 297.219 7.06C296.886 6.83333 296.466 6.72 295.959 6.72C295.399 6.72 294.919 6.85333 294.519 7.12C294.133 7.37333 293.833 7.74 293.619 8.22C293.419 8.68667 293.319 9.24667 293.319 9.9V10.04C293.319 11.1333 293.573 11.9533 294.079 12.5C294.599 13.0333 295.359 13.3 296.359 13.3C296.706 13.3 297.093 13.26 297.519 13.18C297.959 13.0867 298.373 12.9333 298.759 12.72C299.039 12.56 299.286 12.4933 299.499 12.52C299.713 12.5333 299.879 12.6067 299.999 12.74C300.133 12.8733 300.213 13.04 300.239 13.24C300.266 13.4267 300.226 13.62 300.119 13.82C300.026 14.02 299.859 14.1933 299.619 14.34C299.153 14.6333 298.613 14.8533 297.999 15C297.399 15.1333 296.839 15.2 296.319 15.2ZM305.559 15.2C304.852 15.2 304.219 15.0667 303.659 14.8C303.112 14.52 302.679 14.1467 302.359 13.68C302.052 13.2133 301.899 12.6867 301.899 12.1C301.899 11.38 302.086 10.8133 302.459 10.4C302.832 9.97333 303.439 9.66667 304.279 9.48C305.119 9.29333 306.246 9.2 307.659 9.2H308.659V10.64H307.679C306.852 10.64 306.192 10.68 305.699 10.76C305.206 10.84 304.852 10.98 304.639 11.18C304.439 11.3667 304.339 11.6333 304.339 11.98C304.339 12.42 304.492 12.78 304.799 13.06C305.106 13.34 305.532 13.48 306.079 13.48C306.519 13.48 306.906 13.38 307.239 13.18C307.586 12.9667 307.859 12.68 308.059 12.32C308.259 11.96 308.359 11.5467 308.359 11.08V8.78C308.359 8.11333 308.212 7.63333 307.919 7.34C307.626 7.04667 307.132 6.9 306.439 6.9C306.052 6.9 305.632 6.94667 305.179 7.04C304.739 7.13333 304.272 7.29333 303.779 7.52C303.526 7.64 303.299 7.67333 303.099 7.62C302.912 7.56667 302.766 7.46 302.659 7.3C302.552 7.12667 302.499 6.94 302.499 6.74C302.499 6.54 302.552 6.34667 302.659 6.16C302.766 5.96 302.946 5.81333 303.199 5.72C303.812 5.46667 304.399 5.28667 304.959 5.18C305.532 5.07333 306.052 5.02 306.519 5.02C307.479 5.02 308.266 5.16667 308.879 5.46C309.506 5.75333 309.972 6.2 310.279 6.8C310.586 7.38667 310.739 8.14667 310.739 9.08V13.88C310.739 14.2933 310.639 14.6133 310.439 14.84C310.239 15.0533 309.952 15.16 309.579 15.16C309.206 15.16 308.912 15.0533 308.699 14.84C308.499 14.6133 308.399 14.2933 308.399 13.88V12.92H308.559C308.466 13.3867 308.279 13.7933 307.999 14.14C307.732 14.4733 307.392 14.7333 306.979 14.92C306.566 15.1067 306.092 15.2 305.559 15.2ZM323.166 15.2C322.153 15.2 321.273 14.9933 320.526 14.58C319.78 14.1667 319.2 13.58 318.786 12.82C318.373 12.0467 318.166 11.14 318.166 10.1C318.166 9.31333 318.28 8.61333 318.506 8C318.746 7.37333 319.086 6.84 319.526 6.4C319.966 5.94667 320.493 5.60667 321.106 5.38C321.72 5.14 322.406 5.02 323.166 5.02C324.18 5.02 325.06 5.22667 325.806 5.64C326.553 6.05333 327.133 6.64 327.546 7.4C327.96 8.16 328.166 9.06 328.166 10.1C328.166 10.8867 328.046 11.5933 327.806 12.22C327.58 12.8467 327.246 13.3867 326.806 13.84C326.366 14.28 325.84 14.62 325.226 14.86C324.613 15.0867 323.926 15.2 323.166 15.2ZM323.166 13.3C323.66 13.3 324.093 13.18 324.466 12.94C324.84 12.7 325.126 12.3467 325.326 11.88C325.54 11.4 325.646 10.8067 325.646 10.1C325.646 9.03333 325.42 8.24 324.966 7.72C324.513 7.18667 323.913 6.92 323.166 6.92C322.673 6.92 322.24 7.04 321.866 7.28C321.493 7.50667 321.2 7.86 320.986 8.34C320.786 8.80667 320.686 9.39333 320.686 10.1C320.686 11.1533 320.913 11.9533 321.366 12.5C321.82 13.0333 322.42 13.3 323.166 13.3ZM332.052 15.16C331.652 15.16 331.339 15.0533 331.112 14.84C330.899 14.6133 330.792 14.2933 330.792 13.88V7.1H329.872C329.552 7.1 329.305 7.02 329.132 6.86C328.959 6.68667 328.872 6.45333 328.872 6.16C328.872 5.85333 328.959 5.62 329.132 5.46C329.305 5.3 329.552 5.22 329.872 5.22H331.512L330.792 5.88V5.2C330.792 3.82667 331.139 2.8 331.832 2.12C332.525 1.42667 333.525 1.02 334.832 0.899999L335.512 0.84C335.779 0.813333 335.992 0.859999 336.152 0.979999C336.312 1.08667 336.419 1.23333 336.472 1.42C336.525 1.59333 336.532 1.77333 336.492 1.96C336.452 2.14667 336.365 2.31333 336.232 2.46C336.112 2.59333 335.952 2.66667 335.752 2.68L335.472 2.7C334.712 2.75333 334.159 2.94667 333.812 3.28C333.465 3.61333 333.292 4.12 333.292 4.8V5.54L332.972 5.22H334.992C335.312 5.22 335.559 5.3 335.732 5.46C335.905 5.62 335.992 5.85333 335.992 6.16C335.992 6.45333 335.905 6.68667 335.732 6.86C335.559 7.02 335.312 7.1 334.992 7.1H333.292V13.88C333.292 14.7333 332.879 15.16 332.052 15.16ZM347.327 15.2C346.46 15.2 345.734 15.0533 345.147 14.76C344.574 14.4667 344.147 14.04 343.867 13.48C343.587 12.9067 343.447 12.2 343.447 11.36V7.1H342.407C342.087 7.1 341.84 7.02 341.667 6.86C341.494 6.68667 341.407 6.45333 341.407 6.16C341.407 5.85333 341.494 5.62 341.667 5.46C341.84 5.3 342.087 5.22 342.407 5.22H343.447V3.4C343.447 2.98667 343.554 2.67333 343.767 2.46C343.994 2.24667 344.307 2.14 344.707 2.14C345.107 2.14 345.414 2.24667 345.627 2.46C345.84 2.67333 345.947 2.98667 345.947 3.4V5.22H348.067C348.387 5.22 348.634 5.3 348.807 5.46C348.98 5.62 349.067 5.85333 349.067 6.16C349.067 6.45333 348.98 6.68667 348.807 6.86C348.634 7.02 348.387 7.1 348.067 7.1H345.947V11.22C345.947 11.86 346.087 12.34 346.367 12.66C346.647 12.98 347.1 13.14 347.727 13.14C347.954 13.14 348.154 13.12 348.327 13.08C348.5 13.04 348.654 13.0133 348.787 13C348.947 12.9867 349.08 13.04 349.187 13.16C349.294 13.2667 349.347 13.4933 349.347 13.84C349.347 14.1067 349.3 14.3467 349.207 14.56C349.127 14.76 348.974 14.9 348.747 14.98C348.574 15.0333 348.347 15.08 348.067 15.12C347.787 15.1733 347.54 15.2 347.327 15.2ZM352.017 15.16C351.617 15.16 351.31 15.0533 351.097 14.84C350.883 14.6133 350.777 14.2933 350.777 13.88V2C350.777 1.58667 350.883 1.27333 351.097 1.06C351.31 0.846666 351.617 0.739999 352.017 0.739999C352.417 0.739999 352.723 0.846666 352.937 1.06C353.163 1.27333 353.277 1.58667 353.277 2V7.18H352.997C353.29 6.47333 353.743 5.94 354.357 5.58C354.983 5.20667 355.69 5.02 356.477 5.02C357.263 5.02 357.91 5.16667 358.417 5.46C358.923 5.75333 359.303 6.2 359.557 6.8C359.81 7.38667 359.937 8.13333 359.937 9.04V13.88C359.937 14.2933 359.83 14.6133 359.617 14.84C359.403 15.0533 359.097 15.16 358.697 15.16C358.297 15.16 357.983 15.0533 357.757 14.84C357.543 14.6133 357.437 14.2933 357.437 13.88V9.16C357.437 8.4 357.29 7.84667 356.997 7.5C356.717 7.15333 356.277 6.98 355.677 6.98C354.943 6.98 354.357 7.21333 353.917 7.68C353.49 8.13333 353.277 8.74 353.277 9.5V13.88C353.277 14.7333 352.857 15.16 352.017 15.16ZM367.296 15.2C366.189 15.2 365.236 14.9933 364.436 14.58C363.636 14.1667 363.016 13.58 362.576 12.82C362.149 12.06 361.936 11.16 361.936 10.12C361.936 9.10667 362.142 8.22 362.556 7.46C362.982 6.7 363.562 6.10667 364.296 5.68C365.042 5.24 365.889 5.02 366.836 5.02C367.529 5.02 368.149 5.13333 368.696 5.36C369.256 5.58667 369.729 5.91333 370.116 6.34C370.516 6.76667 370.816 7.28667 371.016 7.9C371.229 8.5 371.336 9.18 371.336 9.94C371.336 10.18 371.249 10.3667 371.076 10.5C370.916 10.62 370.682 10.68 370.376 10.68H363.956V9.24H369.576L369.256 9.54C369.256 8.92667 369.162 8.41333 368.976 8C368.802 7.58667 368.542 7.27333 368.196 7.06C367.862 6.83333 367.442 6.72 366.936 6.72C366.376 6.72 365.896 6.85333 365.496 7.12C365.109 7.37333 364.809 7.74 364.596 8.22C364.396 8.68667 364.296 9.24667 364.296 9.9V10.04C364.296 11.1333 364.549 11.9533 365.056 12.5C365.576 13.0333 366.336 13.3 367.336 13.3C367.682 13.3 368.069 13.26 368.496 13.18C368.936 13.0867 369.349 12.9333 369.736 12.72C370.016 12.56 370.262 12.4933 370.476 12.52C370.689 12.5333 370.856 12.6067 370.976 12.74C371.109 12.8733 371.189 13.04 371.216 13.24C371.242 13.4267 371.202 13.62 371.096 13.82C371.002 14.02 370.836 14.1933 370.596 14.34C370.129 14.6333 369.589 14.8533 368.976 15C368.376 15.1333 367.816 15.2 367.296 15.2ZM383.225 15.2C382.359 15.2 381.632 15.0533 381.045 14.76C380.472 14.4667 380.045 14.04 379.765 13.48C379.485 12.9067 379.345 12.2 379.345 11.36V7.1H378.305C377.985 7.1 377.739 7.02 377.565 6.86C377.392 6.68667 377.305 6.45333 377.305 6.16C377.305 5.85333 377.392 5.62 377.565 5.46C377.739 5.3 377.985 5.22 378.305 5.22H379.345V3.4C379.345 2.98667 379.452 2.67333 379.665 2.46C379.892 2.24667 380.205 2.14 380.605 2.14C381.005 2.14 381.312 2.24667 381.525 2.46C381.739 2.67333 381.845 2.98667 381.845 3.4V5.22H383.965C384.285 5.22 384.532 5.3 384.705 5.46C384.879 5.62 384.965 5.85333 384.965 6.16C384.965 6.45333 384.879 6.68667 384.705 6.86C384.532 7.02 384.285 7.1 383.965 7.1H381.845V11.22C381.845 11.86 381.985 12.34 382.265 12.66C382.545 12.98 382.999 13.14 383.625 13.14C383.852 13.14 384.052 13.12 384.225 13.08C384.399 13.04 384.552 13.0133 384.685 13C384.845 12.9867 384.979 13.04 385.085 13.16C385.192 13.2667 385.245 13.4933 385.245 13.84C385.245 14.1067 385.199 14.3467 385.105 14.56C385.025 14.76 384.872 14.9 384.645 14.98C384.472 15.0333 384.245 15.08 383.965 15.12C383.685 15.1733 383.439 15.2 383.225 15.2ZM390.357 15.16C390.024 15.16 389.737 15.08 389.497 14.92C389.257 14.7467 389.064 14.48 388.917 14.12L386.017 6.72C385.897 6.4 385.857 6.12 385.897 5.88C385.951 5.62667 386.077 5.42667 386.277 5.28C386.477 5.13333 386.744 5.06 387.077 5.06C387.371 5.06 387.611 5.13333 387.797 5.28C387.984 5.41333 388.144 5.67333 388.277 6.06L390.697 12.72H390.237L392.737 5.9C392.844 5.60667 392.984 5.39333 393.157 5.26C393.344 5.12667 393.584 5.06 393.877 5.06C394.171 5.06 394.411 5.13333 394.597 5.28C394.784 5.41333 394.924 5.62 395.017 5.9L397.477 12.72H397.057L399.497 6C399.631 5.64 399.797 5.39333 399.997 5.26C400.211 5.12667 400.444 5.06 400.697 5.06C401.017 5.06 401.264 5.14 401.437 5.3C401.611 5.46 401.711 5.66667 401.737 5.92C401.764 6.16 401.717 6.42667 401.597 6.72L398.717 14.12C398.584 14.4667 398.391 14.7267 398.137 14.9C397.897 15.0733 397.611 15.16 397.277 15.16C396.944 15.16 396.651 15.0733 396.397 14.9C396.157 14.7267 395.971 14.4667 395.837 14.12L393.217 7.18H394.357L391.797 14.1C391.664 14.46 391.477 14.7267 391.237 14.9C390.997 15.0733 390.704 15.16 390.357 15.16ZM407.893 15.2C406.879 15.2 405.999 14.9933 405.253 14.58C404.506 14.1667 403.926 13.58 403.513 12.82C403.099 12.0467 402.893 11.14 402.893 10.1C402.893 9.31333 403.006 8.61333 403.233 8C403.473 7.37333 403.813 6.84 404.253 6.4C404.693 5.94667 405.219 5.60667 405.833 5.38C406.446 5.14 407.133 5.02 407.893 5.02C408.906 5.02 409.786 5.22667 410.533 5.64C411.279 6.05333 411.859 6.64 412.273 7.4C412.686 8.16 412.893 9.06 412.893 10.1C412.893 10.8867 412.773 11.5933 412.533 12.22C412.306 12.8467 411.973 13.3867 411.533 13.84C411.093 14.28 410.566 14.62 409.953 14.86C409.339 15.0867 408.653 15.2 407.893 15.2ZM407.893 13.3C408.386 13.3 408.819 13.18 409.193 12.94C409.566 12.7 409.853 12.3467 410.053 11.88C410.266 11.4 410.373 10.8067 410.373 10.1C410.373 9.03333 410.146 8.24 409.693 7.72C409.239 7.18667 408.639 6.92 407.893 6.92C407.399 6.92 406.966 7.04 406.593 7.28C406.219 7.50667 405.926 7.86 405.713 8.34C405.513 8.80667 405.413 9.39333 405.413 10.1C405.413 11.1533 405.639 11.9533 406.093 12.5C406.546 13.0333 407.146 13.3 407.893 13.3ZM423.966 15.2C423.393 15.2 422.786 15.14 422.146 15.02C421.506 14.9 420.933 14.6933 420.426 14.4C420.213 14.2667 420.059 14.1133 419.966 13.94C419.886 13.7533 419.853 13.5733 419.866 13.4C419.893 13.2133 419.959 13.0533 420.066 12.92C420.186 12.7867 420.333 12.7 420.506 12.66C420.693 12.62 420.893 12.6533 421.106 12.76C421.639 13.0133 422.139 13.1933 422.606 13.3C423.073 13.3933 423.533 13.44 423.986 13.44C424.626 13.44 425.099 13.3333 425.406 13.12C425.726 12.8933 425.886 12.6 425.886 12.24C425.886 11.9333 425.779 11.7 425.566 11.54C425.366 11.3667 425.059 11.24 424.646 11.16L422.646 10.78C421.819 10.62 421.186 10.32 420.746 9.88C420.319 9.42667 420.106 8.84667 420.106 8.14C420.106 7.5 420.279 6.94667 420.626 6.48C420.986 6.01333 421.479 5.65333 422.106 5.4C422.733 5.14667 423.453 5.02 424.266 5.02C424.853 5.02 425.399 5.08667 425.906 5.22C426.426 5.34 426.926 5.53333 427.406 5.8C427.606 5.90667 427.739 6.04667 427.806 6.22C427.886 6.39333 427.906 6.57333 427.866 6.76C427.826 6.93333 427.746 7.09333 427.626 7.24C427.506 7.37333 427.353 7.46 427.166 7.5C426.993 7.52667 426.793 7.48667 426.566 7.38C426.153 7.16667 425.753 7.01333 425.366 6.92C424.993 6.82667 424.633 6.78 424.286 6.78C423.633 6.78 423.146 6.89333 422.826 7.12C422.519 7.34667 422.366 7.64667 422.366 8.02C422.366 8.3 422.459 8.53333 422.646 8.72C422.833 8.90667 423.119 9.03333 423.506 9.1L425.506 9.48C426.373 9.64 427.026 9.93333 427.466 10.36C427.919 10.7867 428.146 11.36 428.146 12.08C428.146 13.0533 427.766 13.82 427.006 14.38C426.246 14.9267 425.233 15.2 423.966 15.2ZM438.292 18.76C437.892 18.76 437.585 18.6533 437.372 18.44C437.158 18.2267 437.052 17.9133 437.052 17.5V13H437.272C437.058 13.6533 436.645 14.1867 436.032 14.6C435.432 15 434.725 15.2 433.912 15.2C433.058 15.2 432.305 14.9933 431.652 14.58C431.012 14.1667 430.512 13.58 430.152 12.82C429.792 12.0467 429.612 11.14 429.612 10.1C429.612 9.04667 429.792 8.14667 430.152 7.4C430.512 6.64 431.012 6.05333 431.652 5.64C432.305 5.22667 433.058 5.02 433.912 5.02C434.738 5.02 435.458 5.22667 436.072 5.64C436.685 6.05333 437.092 6.6 437.292 7.28L437.072 7.88V6.32C437.072 5.90667 437.178 5.59333 437.392 5.38C437.605 5.16667 437.912 5.06 438.312 5.06C438.712 5.06 439.018 5.16667 439.232 5.38C439.445 5.59333 439.552 5.90667 439.552 6.32V17.5C439.552 17.9133 439.438 18.2267 439.212 18.44C438.998 18.6533 438.692 18.76 438.292 18.76ZM434.612 13.3C435.105 13.3 435.538 13.18 435.912 12.94C436.285 12.7 436.572 12.3467 436.772 11.88C436.985 11.4 437.092 10.8067 437.092 10.1C437.092 9.03333 436.865 8.24 436.412 7.72C435.958 7.18667 435.358 6.92 434.612 6.92C434.118 6.92 433.685 7.04 433.312 7.28C432.938 7.50667 432.645 7.86 432.432 8.34C432.232 8.80667 432.132 9.39333 432.132 10.1C432.132 11.1533 432.358 11.9533 432.812 12.5C433.265 13.0333 433.865 13.3 434.612 13.3ZM445.684 15.2C444.87 15.2 444.197 15.0533 443.664 14.76C443.13 14.4533 442.73 14 442.464 13.4C442.21 12.8 442.084 12.0533 442.084 11.16V6.32C442.084 5.89333 442.19 5.58 442.404 5.38C442.617 5.16667 442.924 5.06 443.324 5.06C443.724 5.06 444.03 5.16667 444.244 5.38C444.47 5.58 444.584 5.89333 444.584 6.32V11.2C444.584 11.8933 444.724 12.4067 445.004 12.74C445.284 13.0733 445.73 13.24 446.344 13.24C447.01 13.24 447.557 13.0133 447.984 12.56C448.41 12.0933 448.624 11.48 448.624 10.72V6.32C448.624 5.89333 448.73 5.58 448.944 5.38C449.157 5.16667 449.464 5.06 449.864 5.06C450.264 5.06 450.57 5.16667 450.784 5.38C451.01 5.58 451.124 5.89333 451.124 6.32V13.88C451.124 14.7333 450.717 15.16 449.904 15.16C449.517 15.16 449.217 15.0533 449.004 14.84C448.79 14.6133 448.684 14.2933 448.684 13.88V12.36L448.964 12.96C448.684 13.68 448.257 14.2333 447.684 14.62C447.124 15.0067 446.457 15.2 445.684 15.2ZM456.946 15.2C456.239 15.2 455.606 15.0667 455.046 14.8C454.499 14.52 454.066 14.1467 453.746 13.68C453.439 13.2133 453.286 12.6867 453.286 12.1C453.286 11.38 453.472 10.8133 453.846 10.4C454.219 9.97333 454.826 9.66667 455.666 9.48C456.506 9.29333 457.632 9.2 459.046 9.2H460.046V10.64H459.066C458.239 10.64 457.579 10.68 457.086 10.76C456.592 10.84 456.239 10.98 456.026 11.18C455.826 11.3667 455.726 11.6333 455.726 11.98C455.726 12.42 455.879 12.78 456.186 13.06C456.492 13.34 456.919 13.48 457.466 13.48C457.906 13.48 458.292 13.38 458.626 13.18C458.972 12.9667 459.246 12.68 459.446 12.32C459.646 11.96 459.746 11.5467 459.746 11.08V8.78C459.746 8.11333 459.599 7.63333 459.306 7.34C459.012 7.04667 458.519 6.9 457.826 6.9C457.439 6.9 457.019 6.94667 456.566 7.04C456.126 7.13333 455.659 7.29333 455.166 7.52C454.912 7.64 454.686 7.67333 454.486 7.62C454.299 7.56667 454.152 7.46 454.046 7.3C453.939 7.12667 453.886 6.94 453.886 6.74C453.886 6.54 453.939 6.34667 454.046 6.16C454.152 5.96 454.332 5.81333 454.586 5.72C455.199 5.46667 455.786 5.28667 456.346 5.18C456.919 5.07333 457.439 5.02 457.906 5.02C458.866 5.02 459.652 5.16667 460.266 5.46C460.892 5.75333 461.359 6.2 461.666 6.8C461.972 7.38667 462.126 8.14667 462.126 9.08V13.88C462.126 14.2933 462.026 14.6133 461.826 14.84C461.626 15.0533 461.339 15.16 460.966 15.16C460.592 15.16 460.299 15.0533 460.086 14.84C459.886 14.6133 459.786 14.2933 459.786 13.88V12.92H459.946C459.852 13.3867 459.666 13.7933 459.386 14.14C459.119 14.4733 458.779 14.7333 458.366 14.92C457.952 15.1067 457.479 15.2 456.946 15.2ZM465.943 15.16C465.53 15.16 465.21 15.0533 464.983 14.84C464.77 14.6133 464.663 14.2933 464.663 13.88V6.32C464.663 5.90667 464.77 5.59333 464.983 5.38C465.197 5.16667 465.497 5.06 465.883 5.06C466.27 5.06 466.57 5.16667 466.783 5.38C466.997 5.59333 467.103 5.90667 467.103 6.32V7.58H466.903C467.09 6.78 467.457 6.17333 468.003 5.76C468.55 5.34667 469.277 5.1 470.183 5.02C470.463 4.99333 470.683 5.06667 470.843 5.24C471.017 5.4 471.117 5.65333 471.143 6C471.17 6.33333 471.09 6.60667 470.903 6.82C470.73 7.02 470.463 7.14 470.103 7.18L469.663 7.22C468.85 7.3 468.237 7.55333 467.823 7.98C467.41 8.39333 467.203 8.98 467.203 9.74V13.88C467.203 14.2933 467.097 14.6133 466.883 14.84C466.67 15.0533 466.357 15.16 465.943 15.16ZM477.159 15.2C476.052 15.2 475.099 14.9933 474.299 14.58C473.499 14.1667 472.879 13.58 472.439 12.82C472.012 12.06 471.799 11.16 471.799 10.12C471.799 9.10667 472.006 8.22 472.419 7.46C472.846 6.7 473.426 6.10667 474.159 5.68C474.906 5.24 475.752 5.02 476.699 5.02C477.392 5.02 478.012 5.13333 478.559 5.36C479.119 5.58667 479.592 5.91333 479.979 6.34C480.379 6.76667 480.679 7.28667 480.879 7.9C481.092 8.5 481.199 9.18 481.199 9.94C481.199 10.18 481.112 10.3667 480.939 10.5C480.779 10.62 480.546 10.68 480.239 10.68H473.819V9.24H479.439L479.119 9.54C479.119 8.92667 479.026 8.41333 478.839 8C478.666 7.58667 478.406 7.27333 478.059 7.06C477.726 6.83333 477.306 6.72 476.799 6.72C476.239 6.72 475.759 6.85333 475.359 7.12C474.972 7.37333 474.672 7.74 474.459 8.22C474.259 8.68667 474.159 9.24667 474.159 9.9V10.04C474.159 11.1333 474.412 11.9533 474.919 12.5C475.439 13.0333 476.199 13.3 477.199 13.3C477.546 13.3 477.932 13.26 478.359 13.18C478.799 13.0867 479.212 12.9333 479.599 12.72C479.879 12.56 480.126 12.4933 480.339 12.52C480.552 12.5333 480.719 12.6067 480.839 12.74C480.972 12.8733 481.052 13.04 481.079 13.24C481.106 13.4267 481.066 13.62 480.959 13.82C480.866 14.02 480.699 14.1933 480.459 14.34C479.992 14.6333 479.452 14.8533 478.839 15C478.239 15.1333 477.679 15.2 477.159 15.2ZM486.759 15.2C486.186 15.2 485.579 15.14 484.939 15.02C484.299 14.9 483.726 14.6933 483.219 14.4C483.006 14.2667 482.852 14.1133 482.759 13.94C482.679 13.7533 482.646 13.5733 482.659 13.4C482.686 13.2133 482.752 13.0533 482.859 12.92C482.979 12.7867 483.126 12.7 483.299 12.66C483.486 12.62 483.686 12.6533 483.899 12.76C484.432 13.0133 484.932 13.1933 485.399 13.3C485.866 13.3933 486.326 13.44 486.779 13.44C487.419 13.44 487.892 13.3333 488.199 13.12C488.519 12.8933 488.679 12.6 488.679 12.24C488.679 11.9333 488.572 11.7 488.359 11.54C488.159 11.3667 487.852 11.24 487.439 11.16L485.439 10.78C484.612 10.62 483.979 10.32 483.539 9.88C483.112 9.42667 482.899 8.84667 482.899 8.14C482.899 7.5 483.072 6.94667 483.419 6.48C483.779 6.01333 484.272 5.65333 484.899 5.4C485.526 5.14667 486.246 5.02 487.059 5.02C487.646 5.02 488.192 5.08667 488.699 5.22C489.219 5.34 489.719 5.53333 490.199 5.8C490.399 5.90667 490.532 6.04667 490.599 6.22C490.679 6.39333 490.699 6.57333 490.659 6.76C490.619 6.93333 490.539 7.09333 490.419 7.24C490.299 7.37333 490.146 7.46 489.959 7.5C489.786 7.52667 489.586 7.48667 489.359 7.38C488.946 7.16667 488.546 7.01333 488.159 6.92C487.786 6.82667 487.426 6.78 487.079 6.78C486.426 6.78 485.939 6.89333 485.619 7.12C485.312 7.34667 485.159 7.64667 485.159 8.02C485.159 8.3 485.252 8.53333 485.439 8.72C485.626 8.90667 485.912 9.03333 486.299 9.1L488.299 9.48C489.166 9.64 489.819 9.93333 490.259 10.36C490.712 10.7867 490.939 11.36 490.939 12.08C490.939 13.0533 490.559 13.82 489.799 14.38C489.039 14.9267 488.026 15.2 486.759 15.2Z" fill="#444444"/>
<path d="M185.794 49.14C185.514 49.14 185.294 49.0667 185.134 48.92C184.974 48.76 184.894 48.54 184.894 48.26C184.894 47.98 184.974 47.7667 185.134 47.62C185.294 47.46 185.514 47.38 185.794 47.38H194.074C194.367 47.38 194.587 47.46 194.734 47.62C194.894 47.7667 194.974 47.98 194.974 48.26C194.974 48.54 194.894 48.76 194.734 48.92C194.587 49.0667 194.367 49.14 194.074 49.14H185.794ZM185.794 53.12C185.514 53.12 185.294 53.0467 185.134 52.9C184.974 52.74 184.894 52.52 184.894 52.24C184.894 51.96 184.974 51.7467 185.134 51.6C185.294 51.4533 185.514 51.38 185.794 51.38H194.074C194.367 51.38 194.587 51.4533 194.734 51.6C194.894 51.7467 194.974 51.96 194.974 52.24C194.974 52.5333 194.894 52.7533 194.734 52.9C194.587 53.0467 194.367 53.12 194.074 53.12H185.794Z" fill="#444444"/>
<rect x="204.5" y="35.5" width="28" height="27" rx="4.5" fill="#FFEDB8"/>
<path d="M213.752 56.2C213.046 56.2 212.412 56.0667 211.852 55.8C211.306 55.52 210.872 55.1467 210.552 54.68C210.246 54.2133 210.092 53.6867 210.092 53.1C210.092 52.38 210.279 51.8133 210.652 51.4C211.026 50.9733 211.632 50.6667 212.472 50.48C213.312 50.2933 214.439 50.2 215.852 50.2H216.852V51.64H215.872C215.046 51.64 214.386 51.68 213.892 51.76C213.399 51.84 213.046 51.98 212.832 52.18C212.632 52.3667 212.532 52.6333 212.532 52.98C212.532 53.42 212.686 53.78 212.992 54.06C213.299 54.34 213.726 54.48 214.272 54.48C214.712 54.48 215.099 54.38 215.432 54.18C215.779 53.9667 216.052 53.68 216.252 53.32C216.452 52.96 216.552 52.5467 216.552 52.08V49.78C216.552 49.1133 216.406 48.6333 216.112 48.34C215.819 48.0467 215.326 47.9 214.632 47.9C214.246 47.9 213.826 47.9467 213.372 48.04C212.932 48.1333 212.466 48.2933 211.972 48.52C211.719 48.64 211.492 48.6733 211.292 48.62C211.106 48.5667 210.959 48.46 210.852 48.3C210.746 48.1267 210.692 47.94 210.692 47.74C210.692 47.54 210.746 47.3467 210.852 47.16C210.959 46.96 211.139 46.8133 211.392 46.72C212.006 46.4667 212.592 46.2867 213.152 46.18C213.726 46.0733 214.246 46.02 214.712 46.02C215.672 46.02 216.459 46.1667 217.072 46.46C217.699 46.7533 218.166 47.2 218.472 47.8C218.779 48.3867 218.932 49.1467 218.932 50.08V54.88C218.932 55.2933 218.832 55.6133 218.632 55.84C218.432 56.0533 218.146 56.16 217.772 56.16C217.399 56.16 217.106 56.0533 216.892 55.84C216.692 55.6133 216.592 55.2933 216.592 54.88V53.92H216.752C216.659 54.3867 216.472 54.7933 216.192 55.14C215.926 55.4733 215.586 55.7333 215.172 55.92C214.759 56.1067 214.286 56.2 213.752 56.2ZM222.01 50.36C221.743 50.36 221.517 50.28 221.33 50.12C221.157 49.9467 221.07 49.7267 221.07 49.46C221.07 49.2467 221.117 49.06 221.21 48.9C221.303 48.74 221.43 48.58 221.59 48.42L223.61 46.3C223.943 45.9533 224.177 45.64 224.31 45.36C224.457 45.08 224.53 44.8 224.53 44.52C224.53 44.1867 224.43 43.9333 224.23 43.76C224.043 43.5733 223.757 43.48 223.37 43.48C223.143 43.48 222.91 43.52 222.67 43.6C222.43 43.6667 222.203 43.76 221.99 43.88C221.75 44.0133 221.53 44.0467 221.33 43.98C221.143 43.9133 221.003 43.7933 220.91 43.62C220.817 43.4333 220.797 43.2333 220.85 43.02C220.903 42.8067 221.05 42.6267 221.29 42.48C221.637 42.2667 222.037 42.1067 222.49 42C222.943 41.88 223.39 41.82 223.83 41.82C224.417 41.82 224.923 41.92 225.35 42.12C225.777 42.32 226.103 42.6 226.33 42.96C226.57 43.32 226.69 43.7467 226.69 44.24C226.69 44.68 226.583 45.1067 226.37 45.52C226.17 45.9333 225.83 46.3867 225.35 46.88L223.43 48.86V48.68H226.35C226.923 48.68 227.21 48.96 227.21 49.52C227.21 49.7867 227.137 49.9933 226.99 50.14C226.843 50.2867 226.63 50.36 226.35 50.36H222.01Z" fill="#F0A000"/>
<rect x="204.5" y="35.5" width="28" height="27" rx="4.5" stroke="#F0A000"/>
<path d="M247.004 55.36C246.711 55.36 246.484 55.28 246.324 55.12C246.164 54.9467 246.084 54.7133 246.084 54.42V51.14H242.864C242.584 51.14 242.364 51.0667 242.204 50.92C242.044 50.76 241.964 50.54 241.964 50.26C241.964 49.98 242.044 49.7667 242.204 49.62C242.364 49.46 242.584 49.38 242.864 49.38H246.084V46.2C246.084 45.9067 246.164 45.68 246.324 45.52C246.484 45.36 246.717 45.28 247.024 45.28C247.317 45.28 247.537 45.36 247.684 45.52C247.844 45.68 247.924 45.9067 247.924 46.2V49.38H251.144C251.437 49.38 251.657 49.46 251.804 49.62C251.964 49.7667 252.044 49.98 252.044 50.26C252.044 50.54 251.964 50.76 251.804 50.92C251.657 51.0667 251.437 51.14 251.144 51.14H247.924V54.42C247.924 54.7133 247.844 54.9467 247.684 55.12C247.537 55.28 247.311 55.36 247.004 55.36Z" fill="#444444"/>
<rect x="261.5" y="35.5" width="29" height="27" rx="4.5" fill="#D1F7FF"/>
<path d="M273.145 56.2C272.318 56.2 271.592 55.9933 270.965 55.58C270.352 55.1667 269.945 54.6133 269.745 53.92L269.965 53.42V54.88C269.965 55.2933 269.858 55.6133 269.645 55.84C269.432 56.0533 269.132 56.16 268.745 56.16C268.345 56.16 268.038 56.0533 267.825 55.84C267.612 55.6133 267.505 55.2933 267.505 54.88V43C267.505 42.5867 267.612 42.2733 267.825 42.06C268.038 41.8467 268.345 41.74 268.745 41.74C269.145 41.74 269.452 41.8467 269.665 42.06C269.892 42.2733 270.005 42.5867 270.005 43V48.2H269.765C269.978 47.5467 270.392 47.02 271.005 46.62C271.618 46.22 272.332 46.02 273.145 46.02C274.012 46.02 274.765 46.2267 275.405 46.64C276.045 47.0533 276.545 47.64 276.905 48.4C277.265 49.1467 277.445 50.0467 277.445 51.1C277.445 52.14 277.265 53.0467 276.905 53.82C276.545 54.58 276.038 55.1667 275.385 55.58C274.745 55.9933 273.998 56.2 273.145 56.2ZM272.445 54.3C272.938 54.3 273.372 54.18 273.745 53.94C274.118 53.7 274.405 53.3467 274.605 52.88C274.818 52.4 274.925 51.8067 274.925 51.1C274.925 50.0333 274.698 49.24 274.245 48.72C273.792 48.1867 273.192 47.92 272.445 47.92C271.952 47.92 271.518 48.04 271.145 48.28C270.772 48.5067 270.478 48.86 270.265 49.34C270.065 49.8067 269.965 50.3933 269.965 51.1C269.965 52.1533 270.192 52.9533 270.645 53.5C271.098 54.0333 271.698 54.3 272.445 54.3ZM280.037 50.36C279.771 50.36 279.544 50.28 279.357 50.12C279.184 49.9467 279.097 49.7267 279.097 49.46C279.097 49.2467 279.144 49.06 279.237 48.9C279.331 48.74 279.457 48.58 279.617 48.42L281.637 46.3C281.971 45.9533 282.204 45.64 282.337 45.36C282.484 45.08 282.557 44.8 282.557 44.52C282.557 44.1867 282.457 43.9333 282.257 43.76C282.071 43.5733 281.784 43.48 281.397 43.48C281.171 43.48 280.937 43.52 280.697 43.6C280.457 43.6667 280.231 43.76 280.017 43.88C279.777 44.0133 279.557 44.0467 279.357 43.98C279.171 43.9133 279.031 43.7933 278.937 43.62C278.844 43.4333 278.824 43.2333 278.877 43.02C278.931 42.8067 279.077 42.6267 279.317 42.48C279.664 42.2667 280.064 42.1067 280.517 42C280.971 41.88 281.417 41.82 281.857 41.82C282.444 41.82 282.951 41.92 283.377 42.12C283.804 42.32 284.131 42.6 284.357 42.96C284.597 43.32 284.717 43.7467 284.717 44.24C284.717 44.68 284.611 45.1067 284.397 45.52C284.197 45.9333 283.857 46.3867 283.377 46.88L281.457 48.86V48.68H284.377C284.951 48.68 285.237 48.96 285.237 49.52C285.237 49.7867 285.164 49.9933 285.017 50.14C284.871 50.2867 284.657 50.36 284.377 50.36H280.037Z" fill="#2AD3F5"/>
<rect x="261.5" y="35.5" width="29" height="27" rx="4.5" stroke="#2AD3F5"/>
</svg>
