<svg width="422" height="28" viewBox="0 0 422 28" fill="none" xmlns="http://www.w3.org/2000/svg">
<path d="M1.88688 21C1.47354 21 1.15354 20.8867 0.926875 20.66C0.700208 20.42 0.586875 20.0933 0.586875 19.68V8.14C0.586875 7.71333 0.693542 7.39333 0.906875 7.18C1.13354 6.95333 1.45354 6.84 1.86688 6.84C2.28021 6.84 2.59354 6.95333 2.80688 7.18C3.03354 7.39333 3.14688 7.71333 3.14688 8.14V18.82H8.94688C9.30688 18.82 9.58021 18.9133 9.76688 19.1C9.96688 19.2867 10.0669 19.5533 10.0669 19.9C10.0669 20.2467 9.96688 20.52 9.76688 20.72C9.58021 20.9067 9.30688 21 8.94688 21H1.88688ZM16.2997 21.2C15.193 21.2 14.2397 20.9933 13.4397 20.58C12.6397 20.1667 12.0197 19.58 11.5797 18.82C11.153 18.06 10.9397 17.16 10.9397 16.12C10.9397 15.1067 11.1464 14.22 11.5597 13.46C11.9864 12.7 12.5664 12.1067 13.2997 11.68C14.0464 11.24 14.893 11.02 15.8397 11.02C16.533 11.02 17.153 11.1333 17.6997 11.36C18.2597 11.5867 18.733 11.9133 19.1197 12.34C19.5197 12.7667 19.8197 13.2867 20.0197 13.9C20.233 14.5 20.3397 15.18 20.3397 15.94C20.3397 16.18 20.253 16.3667 20.0797 16.5C19.9197 16.62 19.6864 16.68 19.3797 16.68H12.9597V15.24H18.5797L18.2597 15.54C18.2597 14.9267 18.1664 14.4133 17.9797 14C17.8064 13.5867 17.5464 13.2733 17.1997 13.06C16.8664 12.8333 16.4464 12.72 15.9397 12.72C15.3797 12.72 14.8997 12.8533 14.4997 13.12C14.113 13.3733 13.813 13.74 13.5997 14.22C13.3997 14.6867 13.2997 15.2467 13.2997 15.9V16.04C13.2997 17.1333 13.553 17.9533 14.0597 18.5C14.5797 19.0333 15.3397 19.3 16.3397 19.3C16.6864 19.3 17.073 19.26 17.4997 19.18C17.9397 19.0867 18.353 18.9333 18.7397 18.72C19.0197 18.56 19.2664 18.4933 19.4797 18.52C19.693 18.5333 19.8597 18.6067 19.9797 18.74C20.113 18.8733 20.193 19.04 20.2197 19.24C20.2464 19.4267 20.2064 19.62 20.0997 19.82C20.0064 20.02 19.8397 20.1933 19.5997 20.34C19.133 20.6333 18.593 20.8533 17.9797 21C17.3797 21.1333 16.8197 21.2 16.2997 21.2ZM26.7605 21.2C25.8938 21.2 25.1671 21.0533 24.5805 20.76C24.0071 20.4667 23.5805 20.04 23.3005 19.48C23.0205 18.9067 22.8805 18.2 22.8805 17.36V13.1H21.8405C21.5205 13.1 21.2738 13.02 21.1005 12.86C20.9271 12.6867 20.8405 12.4533 20.8405 12.16C20.8405 11.8533 20.9271 11.62 21.1005 11.46C21.2738 11.3 21.5205 11.22 21.8405 11.22H22.8805V9.4C22.8805 8.98667 22.9871 8.67333 23.2005 8.46C23.4271 8.24667 23.7405 8.14 24.1405 8.14C24.5405 8.14 24.8471 8.24667 25.0605 8.46C25.2738 8.67333 25.3805 8.98667 25.3805 9.4V11.22H27.5005C27.8205 11.22 28.0671 11.3 28.2405 11.46C28.4138 11.62 28.5005 11.8533 28.5005 12.16C28.5005 12.4533 28.4138 12.6867 28.2405 12.86C28.0671 13.02 27.8205 13.1 27.5005 13.1H25.3805V17.22C25.3805 17.86 25.5205 18.34 25.8005 18.66C26.0805 18.98 26.5338 19.14 27.1605 19.14C27.3871 19.14 27.5871 19.12 27.7605 19.08C27.9338 19.04 28.0871 19.0133 28.2205 19C28.3805 18.9867 28.5138 19.04 28.6205 19.16C28.7271 19.2667 28.7805 19.4933 28.7805 19.84C28.7805 20.1067 28.7338 20.3467 28.6405 20.56C28.5605 20.76 28.4071 20.9 28.1805 20.98C28.0071 21.0333 27.7805 21.08 27.5005 21.12C27.2205 21.1733 26.9738 21.2 26.7605 21.2ZM31.4763 11.8C31.3029 12.0133 31.1163 12.1333 30.9163 12.16C30.7296 12.1867 30.5629 12.1533 30.4163 12.06C30.2696 11.9533 30.1896 11.8067 30.1763 11.62C30.1629 11.42 30.2496 11.2067 30.4363 10.98C30.7029 10.6467 30.8829 10.3133 30.9763 9.98C31.0696 9.64667 31.1163 9.35333 31.1163 9.1L31.2163 9.76C30.7496 9.76 30.3696 9.62667 30.0763 9.36C29.7963 9.09333 29.6563 8.73333 29.6563 8.28C29.6563 7.84 29.7896 7.48667 30.0563 7.22C30.3229 6.94 30.6829 6.8 31.1363 6.8C31.6029 6.8 31.9696 6.96 32.2363 7.28C32.5029 7.58667 32.6363 8.03333 32.6363 8.62C32.6363 8.94 32.6029 9.27333 32.5363 9.62C32.4829 9.95333 32.3696 10.3067 32.1963 10.68C32.0363 11.04 31.7963 11.4133 31.4763 11.8ZM37.9308 21.2C37.3574 21.2 36.7508 21.14 36.1108 21.02C35.4708 20.9 34.8974 20.6933 34.3908 20.4C34.1774 20.2667 34.0241 20.1133 33.9308 19.94C33.8508 19.7533 33.8174 19.5733 33.8308 19.4C33.8574 19.2133 33.9241 19.0533 34.0308 18.92C34.1508 18.7867 34.2974 18.7 34.4708 18.66C34.6574 18.62 34.8574 18.6533 35.0708 18.76C35.6041 19.0133 36.1041 19.1933 36.5708 19.3C37.0374 19.3933 37.4974 19.44 37.9508 19.44C38.5908 19.44 39.0641 19.3333 39.3708 19.12C39.6908 18.8933 39.8508 18.6 39.8508 18.24C39.8508 17.9333 39.7441 17.7 39.5308 17.54C39.3308 17.3667 39.0241 17.24 38.6108 17.16L36.6108 16.78C35.7841 16.62 35.1508 16.32 34.7108 15.88C34.2841 15.4267 34.0708 14.8467 34.0708 14.14C34.0708 13.5 34.2441 12.9467 34.5908 12.48C34.9508 12.0133 35.4441 11.6533 36.0708 11.4C36.6974 11.1467 37.4174 11.02 38.2308 11.02C38.8174 11.02 39.3641 11.0867 39.8708 11.22C40.3908 11.34 40.8908 11.5333 41.3708 11.8C41.5708 11.9067 41.7041 12.0467 41.7708 12.22C41.8508 12.3933 41.8708 12.5733 41.8308 12.76C41.7908 12.9333 41.7108 13.0933 41.5908 13.24C41.4708 13.3733 41.3174 13.46 41.1308 13.5C40.9574 13.5267 40.7574 13.4867 40.5308 13.38C40.1174 13.1667 39.7174 13.0133 39.3308 12.92C38.9574 12.8267 38.5974 12.78 38.2508 12.78C37.5974 12.78 37.1108 12.8933 36.7908 13.12C36.4841 13.3467 36.3308 13.6467 36.3308 14.02C36.3308 14.3 36.4241 14.5333 36.6108 14.72C36.7974 14.9067 37.0841 15.0333 37.4708 15.1L39.4708 15.48C40.3374 15.64 40.9908 15.9333 41.4308 16.36C41.8841 16.7867 42.1108 17.36 42.1108 18.08C42.1108 19.0533 41.7308 19.82 40.9708 20.38C40.2108 20.9267 39.1974 21.2 37.9308 21.2ZM54.0261 21.2C53.1594 21.2 52.4328 21.0533 51.8461 20.76C51.2728 20.4667 50.8461 20.04 50.5661 19.48C50.2861 18.9067 50.1461 18.2 50.1461 17.36V13.1H49.1061C48.7861 13.1 48.5394 13.02 48.3661 12.86C48.1928 12.6867 48.1061 12.4533 48.1061 12.16C48.1061 11.8533 48.1928 11.62 48.3661 11.46C48.5394 11.3 48.7861 11.22 49.1061 11.22H50.1461V9.4C50.1461 8.98667 50.2528 8.67333 50.4661 8.46C50.6928 8.24667 51.0061 8.14 51.4061 8.14C51.8061 8.14 52.1128 8.24667 52.3261 8.46C52.5394 8.67333 52.6461 8.98667 52.6461 9.4V11.22H54.7661C55.0861 11.22 55.3328 11.3 55.5061 11.46C55.6794 11.62 55.7661 11.8533 55.7661 12.16C55.7661 12.4533 55.6794 12.6867 55.5061 12.86C55.3328 13.02 55.0861 13.1 54.7661 13.1H52.6461V17.22C52.6461 17.86 52.7861 18.34 53.0661 18.66C53.3461 18.98 53.7994 19.14 54.4261 19.14C54.6528 19.14 54.8528 19.12 55.0261 19.08C55.1994 19.04 55.3528 19.0133 55.4861 19C55.6461 18.9867 55.7794 19.04 55.8861 19.16C55.9928 19.2667 56.0461 19.4933 56.0461 19.84C56.0461 20.1067 55.9994 20.3467 55.9061 20.56C55.8261 20.76 55.6728 20.9 55.4461 20.98C55.2728 21.0333 55.0461 21.08 54.7661 21.12C54.4861 21.1733 54.2394 21.2 54.0261 21.2ZM60.4419 21.2C59.7352 21.2 59.1019 21.0667 58.5419 20.8C57.9952 20.52 57.5619 20.1467 57.2419 19.68C56.9352 19.2133 56.7819 18.6867 56.7819 18.1C56.7819 17.38 56.9685 16.8133 57.3419 16.4C57.7152 15.9733 58.3219 15.6667 59.1619 15.48C60.0019 15.2933 61.1285 15.2 62.5419 15.2H63.5419V16.64H62.5619C61.7352 16.64 61.0752 16.68 60.5819 16.76C60.0885 16.84 59.7352 16.98 59.5219 17.18C59.3219 17.3667 59.2219 17.6333 59.2219 17.98C59.2219 18.42 59.3752 18.78 59.6819 19.06C59.9885 19.34 60.4152 19.48 60.9619 19.48C61.4019 19.48 61.7885 19.38 62.1219 19.18C62.4685 18.9667 62.7419 18.68 62.9419 18.32C63.1419 17.96 63.2419 17.5467 63.2419 17.08V14.78C63.2419 14.1133 63.0952 13.6333 62.8019 13.34C62.5085 13.0467 62.0152 12.9 61.3219 12.9C60.9352 12.9 60.5152 12.9467 60.0619 13.04C59.6219 13.1333 59.1552 13.2933 58.6619 13.52C58.4085 13.64 58.1819 13.6733 57.9819 13.62C57.7952 13.5667 57.6485 13.46 57.5419 13.3C57.4352 13.1267 57.3819 12.94 57.3819 12.74C57.3819 12.54 57.4352 12.3467 57.5419 12.16C57.6485 11.96 57.8285 11.8133 58.0819 11.72C58.6952 11.4667 59.2819 11.2867 59.8419 11.18C60.4152 11.0733 60.9352 11.02 61.4019 11.02C62.3619 11.02 63.1485 11.1667 63.7619 11.46C64.3885 11.7533 64.8552 12.2 65.1619 12.8C65.4685 13.3867 65.6219 14.1467 65.6219 15.08V19.88C65.6219 20.2933 65.5219 20.6133 65.3219 20.84C65.1219 21.0533 64.8352 21.16 64.4619 21.16C64.0885 21.16 63.7952 21.0533 63.5819 20.84C63.3819 20.6133 63.2819 20.2933 63.2819 19.88V18.92H63.4419C63.3485 19.3867 63.1619 19.7933 62.8819 20.14C62.6152 20.4733 62.2752 20.7333 61.8619 20.92C61.4485 21.1067 60.9752 21.2 60.4419 21.2ZM69.3994 21.16C68.9994 21.16 68.6927 21.0533 68.4794 20.84C68.266 20.6133 68.1594 20.2933 68.1594 19.88V8C68.1594 7.58667 68.266 7.27333 68.4794 7.06C68.6927 6.84667 68.9994 6.74 69.3994 6.74C69.7994 6.74 70.106 6.84667 70.3194 7.06C70.546 7.27333 70.6594 7.58667 70.6594 8V15.38H70.6994L73.9994 11.9C74.266 11.6333 74.4994 11.4267 74.6994 11.28C74.8994 11.1333 75.1727 11.06 75.5194 11.06C75.866 11.06 76.126 11.1533 76.2994 11.34C76.486 11.5133 76.5794 11.7267 76.5794 11.98C76.5794 12.2333 76.4594 12.4867 76.2194 12.74L72.7394 16.42V15.38L76.5594 19.5C76.7994 19.7533 76.906 20.0133 76.8794 20.28C76.866 20.5333 76.7594 20.7467 76.5594 20.92C76.3594 21.08 76.106 21.16 75.7994 21.16C75.426 21.16 75.126 21.0867 74.8994 20.94C74.686 20.7933 74.446 20.5733 74.1794 20.28L70.6994 16.64H70.6594V19.88C70.6594 20.7333 70.2394 21.16 69.3994 21.16ZM83.5067 21.2C82.4001 21.2 81.4467 20.9933 80.6467 20.58C79.8467 20.1667 79.2267 19.58 78.7867 18.82C78.3601 18.06 78.1467 17.16 78.1467 16.12C78.1467 15.1067 78.3534 14.22 78.7667 13.46C79.1934 12.7 79.7734 12.1067 80.5067 11.68C81.2534 11.24 82.1001 11.02 83.0467 11.02C83.7401 11.02 84.3601 11.1333 84.9067 11.36C85.4667 11.5867 85.9401 11.9133 86.3267 12.34C86.7267 12.7667 87.0267 13.2867 87.2267 13.9C87.4401 14.5 87.5467 15.18 87.5467 15.94C87.5467 16.18 87.4601 16.3667 87.2867 16.5C87.1267 16.62 86.8934 16.68 86.5867 16.68H80.1667V15.24H85.7867L85.4667 15.54C85.4667 14.9267 85.3734 14.4133 85.1867 14C85.0134 13.5867 84.7534 13.2733 84.4067 13.06C84.0734 12.8333 83.6534 12.72 83.1467 12.72C82.5867 12.72 82.1067 12.8533 81.7067 13.12C81.3201 13.3733 81.0201 13.74 80.8067 14.22C80.6067 14.6867 80.5067 15.2467 80.5067 15.9V16.04C80.5067 17.1333 80.7601 17.9533 81.2667 18.5C81.7867 19.0333 82.5467 19.3 83.5467 19.3C83.8934 19.3 84.2801 19.26 84.7067 19.18C85.1467 19.0867 85.5601 18.9333 85.9467 18.72C86.2267 18.56 86.4734 18.4933 86.6867 18.52C86.9001 18.5333 87.0667 18.6067 87.1867 18.74C87.3201 18.8733 87.4001 19.04 87.4267 19.24C87.4534 19.4267 87.4134 19.62 87.3067 19.82C87.2134 20.02 87.0467 20.1933 86.8067 20.34C86.3401 20.6333 85.8001 20.8533 85.1867 21C84.5867 21.1333 84.0267 21.2 83.5067 21.2ZM99.4363 21.2C98.5696 21.2 97.8429 21.0533 97.2563 20.76C96.6829 20.4667 96.2563 20.04 95.9763 19.48C95.6963 18.9067 95.5563 18.2 95.5563 17.36V13.1H94.5163C94.1963 13.1 93.9496 13.02 93.7763 12.86C93.6029 12.6867 93.5162 12.4533 93.5162 12.16C93.5162 11.8533 93.6029 11.62 93.7763 11.46C93.9496 11.3 94.1963 11.22 94.5163 11.22H95.5563V9.4C95.5563 8.98667 95.6629 8.67333 95.8763 8.46C96.1029 8.24667 96.4163 8.14 96.8163 8.14C97.2163 8.14 97.5229 8.24667 97.7363 8.46C97.9496 8.67333 98.0563 8.98667 98.0563 9.4V11.22H100.176C100.496 11.22 100.743 11.3 100.916 11.46C101.09 11.62 101.176 11.8533 101.176 12.16C101.176 12.4533 101.09 12.6867 100.916 12.86C100.743 13.02 100.496 13.1 100.176 13.1H98.0563V17.22C98.0563 17.86 98.1963 18.34 98.4763 18.66C98.7563 18.98 99.2096 19.14 99.8363 19.14C100.063 19.14 100.263 19.12 100.436 19.08C100.61 19.04 100.763 19.0133 100.896 19C101.056 18.9867 101.19 19.04 101.296 19.16C101.403 19.2667 101.456 19.4933 101.456 19.84C101.456 20.1067 101.41 20.3467 101.316 20.56C101.236 20.76 101.083 20.9 100.856 20.98C100.683 21.0333 100.456 21.08 100.176 21.12C99.8963 21.1733 99.6496 21.2 99.4363 21.2ZM106.568 21.16C106.235 21.16 105.948 21.08 105.708 20.92C105.468 20.7467 105.275 20.48 105.128 20.12L102.228 12.72C102.108 12.4 102.068 12.12 102.108 11.88C102.162 11.6267 102.288 11.4267 102.488 11.28C102.688 11.1333 102.955 11.06 103.288 11.06C103.582 11.06 103.822 11.1333 104.008 11.28C104.195 11.4133 104.355 11.6733 104.488 12.06L106.908 18.72H106.448L108.948 11.9C109.055 11.6067 109.195 11.3933 109.368 11.26C109.555 11.1267 109.795 11.06 110.088 11.06C110.382 11.06 110.622 11.1333 110.808 11.28C110.995 11.4133 111.135 11.62 111.228 11.9L113.688 18.72H113.268L115.708 12C115.842 11.64 116.008 11.3933 116.208 11.26C116.422 11.1267 116.655 11.06 116.908 11.06C117.228 11.06 117.475 11.14 117.648 11.3C117.822 11.46 117.922 11.6667 117.948 11.92C117.975 12.16 117.928 12.4267 117.808 12.72L114.928 20.12C114.795 20.4667 114.602 20.7267 114.348 20.9C114.108 21.0733 113.822 21.16 113.488 21.16C113.155 21.16 112.862 21.0733 112.608 20.9C112.368 20.7267 112.182 20.4667 112.048 20.12L109.428 13.18H110.568L108.008 20.1C107.875 20.46 107.688 20.7267 107.448 20.9C107.208 21.0733 106.915 21.16 106.568 21.16ZM124.104 21.2C123.09 21.2 122.21 20.9933 121.464 20.58C120.717 20.1667 120.137 19.58 119.724 18.82C119.31 18.0467 119.104 17.14 119.104 16.1C119.104 15.3133 119.217 14.6133 119.444 14C119.684 13.3733 120.024 12.84 120.464 12.4C120.904 11.9467 121.43 11.6067 122.044 11.38C122.657 11.14 123.344 11.02 124.104 11.02C125.117 11.02 125.997 11.2267 126.744 11.64C127.49 12.0533 128.07 12.64 128.484 13.4C128.897 14.16 129.104 15.06 129.104 16.1C129.104 16.8867 128.984 17.5933 128.744 18.22C128.517 18.8467 128.184 19.3867 127.744 19.84C127.304 20.28 126.777 20.62 126.164 20.86C125.55 21.0867 124.864 21.2 124.104 21.2ZM124.104 19.3C124.597 19.3 125.03 19.18 125.404 18.94C125.777 18.7 126.064 18.3467 126.264 17.88C126.477 17.4 126.584 16.8067 126.584 16.1C126.584 15.0333 126.357 14.24 125.904 13.72C125.45 13.1867 124.85 12.92 124.104 12.92C123.61 12.92 123.177 13.04 122.804 13.28C122.43 13.5067 122.137 13.86 121.924 14.34C121.724 14.8067 121.624 15.3933 121.624 16.1C121.624 17.1533 121.85 17.9533 122.304 18.5C122.757 19.0333 123.357 19.3 124.104 19.3ZM140.177 21.2C139.604 21.2 138.997 21.14 138.357 21.02C137.717 20.9 137.144 20.6933 136.637 20.4C136.424 20.2667 136.27 20.1133 136.177 19.94C136.097 19.7533 136.064 19.5733 136.077 19.4C136.104 19.2133 136.17 19.0533 136.277 18.92C136.397 18.7867 136.544 18.7 136.717 18.66C136.904 18.62 137.104 18.6533 137.317 18.76C137.85 19.0133 138.35 19.1933 138.817 19.3C139.284 19.3933 139.744 19.44 140.197 19.44C140.837 19.44 141.31 19.3333 141.617 19.12C141.937 18.8933 142.097 18.6 142.097 18.24C142.097 17.9333 141.99 17.7 141.777 17.54C141.577 17.3667 141.27 17.24 140.857 17.16L138.857 16.78C138.03 16.62 137.397 16.32 136.957 15.88C136.53 15.4267 136.317 14.8467 136.317 14.14C136.317 13.5 136.49 12.9467 136.837 12.48C137.197 12.0133 137.69 11.6533 138.317 11.4C138.944 11.1467 139.664 11.02 140.477 11.02C141.064 11.02 141.61 11.0867 142.117 11.22C142.637 11.34 143.137 11.5333 143.617 11.8C143.817 11.9067 143.95 12.0467 144.017 12.22C144.097 12.3933 144.117 12.5733 144.077 12.76C144.037 12.9333 143.957 13.0933 143.837 13.24C143.717 13.3733 143.564 13.46 143.377 13.5C143.204 13.5267 143.004 13.4867 142.777 13.38C142.364 13.1667 141.964 13.0133 141.577 12.92C141.204 12.8267 140.844 12.78 140.497 12.78C139.844 12.78 139.357 12.8933 139.037 13.12C138.73 13.3467 138.577 13.6467 138.577 14.02C138.577 14.3 138.67 14.5333 138.857 14.72C139.044 14.9067 139.33 15.0333 139.717 15.1L141.717 15.48C142.584 15.64 143.237 15.9333 143.677 16.36C144.13 16.7867 144.357 17.36 144.357 18.08C144.357 19.0533 143.977 19.82 143.217 20.38C142.457 20.9267 141.444 21.2 140.177 21.2ZM154.503 24.76C154.103 24.76 153.796 24.6533 153.583 24.44C153.369 24.2267 153.263 23.9133 153.263 23.5V19H153.483C153.269 19.6533 152.856 20.1867 152.243 20.6C151.643 21 150.936 21.2 150.123 21.2C149.269 21.2 148.516 20.9933 147.863 20.58C147.223 20.1667 146.723 19.58 146.363 18.82C146.003 18.0467 145.823 17.14 145.823 16.1C145.823 15.0467 146.003 14.1467 146.363 13.4C146.723 12.64 147.223 12.0533 147.863 11.64C148.516 11.2267 149.269 11.02 150.123 11.02C150.949 11.02 151.669 11.2267 152.283 11.64C152.896 12.0533 153.303 12.6 153.503 13.28L153.283 13.88V12.32C153.283 11.9067 153.389 11.5933 153.603 11.38C153.816 11.1667 154.123 11.06 154.523 11.06C154.923 11.06 155.229 11.1667 155.443 11.38C155.656 11.5933 155.763 11.9067 155.763 12.32V23.5C155.763 23.9133 155.649 24.2267 155.423 24.44C155.209 24.6533 154.903 24.76 154.503 24.76ZM150.823 19.3C151.316 19.3 151.749 19.18 152.123 18.94C152.496 18.7 152.783 18.3467 152.983 17.88C153.196 17.4 153.303 16.8067 153.303 16.1C153.303 15.0333 153.076 14.24 152.623 13.72C152.169 13.1867 151.569 12.92 150.823 12.92C150.329 12.92 149.896 13.04 149.523 13.28C149.149 13.5067 148.856 13.86 148.643 14.34C148.443 14.8067 148.343 15.3933 148.343 16.1C148.343 17.1533 148.569 17.9533 149.023 18.5C149.476 19.0333 150.076 19.3 150.823 19.3ZM161.895 21.2C161.081 21.2 160.408 21.0533 159.875 20.76C159.341 20.4533 158.941 20 158.675 19.4C158.421 18.8 158.295 18.0533 158.295 17.16V12.32C158.295 11.8933 158.401 11.58 158.615 11.38C158.828 11.1667 159.135 11.06 159.535 11.06C159.935 11.06 160.241 11.1667 160.455 11.38C160.681 11.58 160.795 11.8933 160.795 12.32V17.2C160.795 17.8933 160.935 18.4067 161.215 18.74C161.495 19.0733 161.941 19.24 162.555 19.24C163.221 19.24 163.768 19.0133 164.195 18.56C164.621 18.0933 164.835 17.48 164.835 16.72V12.32C164.835 11.8933 164.941 11.58 165.155 11.38C165.368 11.1667 165.675 11.06 166.075 11.06C166.475 11.06 166.781 11.1667 166.995 11.38C167.221 11.58 167.335 11.8933 167.335 12.32V19.88C167.335 20.7333 166.928 21.16 166.115 21.16C165.728 21.16 165.428 21.0533 165.215 20.84C165.001 20.6133 164.895 20.2933 164.895 19.88V18.36L165.175 18.96C164.895 19.68 164.468 20.2333 163.895 20.62C163.335 21.0067 162.668 21.2 161.895 21.2ZM173.157 21.2C172.45 21.2 171.817 21.0667 171.257 20.8C170.71 20.52 170.277 20.1467 169.957 19.68C169.65 19.2133 169.497 18.6867 169.497 18.1C169.497 17.38 169.683 16.8133 170.057 16.4C170.43 15.9733 171.037 15.6667 171.877 15.48C172.717 15.2933 173.843 15.2 175.257 15.2H176.257V16.64H175.277C174.45 16.64 173.79 16.68 173.297 16.76C172.803 16.84 172.45 16.98 172.237 17.18C172.037 17.3667 171.937 17.6333 171.937 17.98C171.937 18.42 172.09 18.78 172.397 19.06C172.703 19.34 173.13 19.48 173.677 19.48C174.117 19.48 174.503 19.38 174.837 19.18C175.183 18.9667 175.457 18.68 175.657 18.32C175.857 17.96 175.957 17.5467 175.957 17.08V14.78C175.957 14.1133 175.81 13.6333 175.517 13.34C175.223 13.0467 174.73 12.9 174.037 12.9C173.65 12.9 173.23 12.9467 172.777 13.04C172.337 13.1333 171.87 13.2933 171.377 13.52C171.123 13.64 170.897 13.6733 170.697 13.62C170.51 13.5667 170.363 13.46 170.257 13.3C170.15 13.1267 170.097 12.94 170.097 12.74C170.097 12.54 170.15 12.3467 170.257 12.16C170.363 11.96 170.543 11.8133 170.797 11.72C171.41 11.4667 171.997 11.2867 172.557 11.18C173.13 11.0733 173.65 11.02 174.117 11.02C175.077 11.02 175.863 11.1667 176.477 11.46C177.103 11.7533 177.57 12.2 177.877 12.8C178.183 13.3867 178.337 14.1467 178.337 15.08V19.88C178.337 20.2933 178.237 20.6133 178.037 20.84C177.837 21.0533 177.55 21.16 177.177 21.16C176.803 21.16 176.51 21.0533 176.297 20.84C176.097 20.6133 175.997 20.2933 175.997 19.88V18.92H176.157C176.063 19.3867 175.877 19.7933 175.597 20.14C175.33 20.4733 174.99 20.7333 174.577 20.92C174.163 21.1067 173.69 21.2 173.157 21.2ZM182.154 21.16C181.741 21.16 181.421 21.0533 181.194 20.84C180.981 20.6133 180.874 20.2933 180.874 19.88V12.32C180.874 11.9067 180.981 11.5933 181.194 11.38C181.408 11.1667 181.708 11.06 182.094 11.06C182.481 11.06 182.781 11.1667 182.994 11.38C183.208 11.5933 183.314 11.9067 183.314 12.32V13.58H183.114C183.301 12.78 183.668 12.1733 184.214 11.76C184.761 11.3467 185.488 11.1 186.394 11.02C186.674 10.9933 186.894 11.0667 187.054 11.24C187.228 11.4 187.328 11.6533 187.354 12C187.381 12.3333 187.301 12.6067 187.114 12.82C186.941 13.02 186.674 13.14 186.314 13.18L185.874 13.22C185.061 13.3 184.448 13.5533 184.034 13.98C183.621 14.3933 183.414 14.98 183.414 15.74V19.88C183.414 20.2933 183.308 20.6133 183.094 20.84C182.881 21.0533 182.568 21.16 182.154 21.16ZM193.37 21.2C192.263 21.2 191.31 20.9933 190.51 20.58C189.71 20.1667 189.09 19.58 188.65 18.82C188.223 18.06 188.01 17.16 188.01 16.12C188.01 15.1067 188.217 14.22 188.63 13.46C189.057 12.7 189.637 12.1067 190.37 11.68C191.117 11.24 191.963 11.02 192.91 11.02C193.603 11.02 194.223 11.1333 194.77 11.36C195.33 11.5867 195.803 11.9133 196.19 12.34C196.59 12.7667 196.89 13.2867 197.09 13.9C197.303 14.5 197.41 15.18 197.41 15.94C197.41 16.18 197.323 16.3667 197.15 16.5C196.99 16.62 196.757 16.68 196.45 16.68H190.03V15.24H195.65L195.33 15.54C195.33 14.9267 195.237 14.4133 195.05 14C194.877 13.5867 194.617 13.2733 194.27 13.06C193.937 12.8333 193.517 12.72 193.01 12.72C192.45 12.72 191.97 12.8533 191.57 13.12C191.183 13.3733 190.883 13.74 190.67 14.22C190.47 14.6867 190.37 15.2467 190.37 15.9V16.04C190.37 17.1333 190.623 17.9533 191.13 18.5C191.65 19.0333 192.41 19.3 193.41 19.3C193.757 19.3 194.143 19.26 194.57 19.18C195.01 19.0867 195.423 18.9333 195.81 18.72C196.09 18.56 196.337 18.4933 196.55 18.52C196.763 18.5333 196.93 18.6067 197.05 18.74C197.183 18.8733 197.263 19.04 197.29 19.24C197.317 19.4267 197.277 19.62 197.17 19.82C197.077 20.02 196.91 20.1933 196.67 20.34C196.203 20.6333 195.663 20.8533 195.05 21C194.45 21.1333 193.89 21.2 193.37 21.2ZM202.97 21.2C202.397 21.2 201.79 21.14 201.15 21.02C200.51 20.9 199.937 20.6933 199.43 20.4C199.217 20.2667 199.063 20.1133 198.97 19.94C198.89 19.7533 198.857 19.5733 198.87 19.4C198.897 19.2133 198.963 19.0533 199.07 18.92C199.19 18.7867 199.337 18.7 199.51 18.66C199.697 18.62 199.897 18.6533 200.11 18.76C200.643 19.0133 201.143 19.1933 201.61 19.3C202.077 19.3933 202.537 19.44 202.99 19.44C203.63 19.44 204.103 19.3333 204.41 19.12C204.73 18.8933 204.89 18.6 204.89 18.24C204.89 17.9333 204.783 17.7 204.57 17.54C204.37 17.3667 204.063 17.24 203.65 17.16L201.65 16.78C200.823 16.62 200.19 16.32 199.75 15.88C199.323 15.4267 199.11 14.8467 199.11 14.14C199.11 13.5 199.283 12.9467 199.63 12.48C199.99 12.0133 200.483 11.6533 201.11 11.4C201.737 11.1467 202.457 11.02 203.27 11.02C203.857 11.02 204.403 11.0867 204.91 11.22C205.43 11.34 205.93 11.5333 206.41 11.8C206.61 11.9067 206.743 12.0467 206.81 12.22C206.89 12.3933 206.91 12.5733 206.87 12.76C206.83 12.9333 206.75 13.0933 206.63 13.24C206.51 13.3733 206.357 13.46 206.17 13.5C205.997 13.5267 205.797 13.4867 205.57 13.38C205.157 13.1667 204.757 13.0133 204.37 12.92C203.997 12.8267 203.637 12.78 203.29 12.78C202.637 12.78 202.15 12.8933 201.83 13.12C201.523 13.3467 201.37 13.6467 201.37 14.02C201.37 14.3 201.463 14.5333 201.65 14.72C201.837 14.9067 202.123 15.0333 202.51 15.1L204.51 15.48C205.377 15.64 206.03 15.9333 206.47 16.36C206.923 16.7867 207.15 17.36 207.15 18.08C207.15 19.0533 206.77 19.82 206.01 20.38C205.25 20.9267 204.237 21.2 202.97 21.2ZM218.365 21.16C218.032 21.16 217.745 21.08 217.505 20.92C217.265 20.7467 217.072 20.48 216.925 20.12L214.025 12.72C213.905 12.4 213.865 12.12 213.905 11.88C213.958 11.6267 214.085 11.4267 214.285 11.28C214.485 11.1333 214.752 11.06 215.085 11.06C215.378 11.06 215.618 11.1333 215.805 11.28C215.992 11.4133 216.152 11.6733 216.285 12.06L218.705 18.72H218.245L220.745 11.9C220.852 11.6067 220.992 11.3933 221.165 11.26C221.352 11.1267 221.592 11.06 221.885 11.06C222.178 11.06 222.418 11.1333 222.605 11.28C222.792 11.4133 222.932 11.62 223.025 11.9L225.485 18.72H225.065L227.505 12C227.638 11.64 227.805 11.3933 228.005 11.26C228.218 11.1267 228.452 11.06 228.705 11.06C229.025 11.06 229.272 11.14 229.445 11.3C229.618 11.46 229.718 11.6667 229.745 11.92C229.772 12.16 229.725 12.4267 229.605 12.72L226.725 20.12C226.592 20.4667 226.398 20.7267 226.145 20.9C225.905 21.0733 225.618 21.16 225.285 21.16C224.952 21.16 224.658 21.0733 224.405 20.9C224.165 20.7267 223.978 20.4667 223.845 20.12L221.225 13.18H222.365L219.805 20.1C219.672 20.46 219.485 20.7267 219.245 20.9C219.005 21.0733 218.712 21.16 218.365 21.16ZM232.876 21.14C232.476 21.14 232.169 21.02 231.956 20.78C231.743 20.54 231.636 20.2067 231.636 19.78V12.44C231.636 12 231.743 11.6667 231.956 11.44C232.169 11.2 232.476 11.08 232.876 11.08C233.276 11.08 233.583 11.2 233.796 11.44C234.023 11.6667 234.136 12 234.136 12.44V19.78C234.136 20.2067 234.029 20.54 233.816 20.78C233.603 21.02 233.289 21.14 232.876 21.14ZM232.876 9.22C232.409 9.22 232.043 9.10667 231.776 8.88C231.523 8.64 231.396 8.31333 231.396 7.9C231.396 7.47333 231.523 7.14667 231.776 6.92C232.043 6.69333 232.409 6.58 232.876 6.58C233.356 6.58 233.723 6.69333 233.976 6.92C234.229 7.14667 234.356 7.47333 234.356 7.9C234.356 8.31333 234.229 8.64 233.976 8.88C233.723 9.10667 233.356 9.22 232.876 9.22ZM241.214 21.2C240.347 21.2 239.62 21.0533 239.034 20.76C238.46 20.4667 238.034 20.04 237.754 19.48C237.474 18.9067 237.334 18.2 237.334 17.36V13.1H236.294C235.974 13.1 235.727 13.02 235.554 12.86C235.38 12.6867 235.294 12.4533 235.294 12.16C235.294 11.8533 235.38 11.62 235.554 11.46C235.727 11.3 235.974 11.22 236.294 11.22H237.334V9.4C237.334 8.98667 237.44 8.67333 237.654 8.46C237.88 8.24667 238.194 8.14 238.594 8.14C238.994 8.14 239.3 8.24667 239.514 8.46C239.727 8.67333 239.834 8.98667 239.834 9.4V11.22H241.954C242.274 11.22 242.52 11.3 242.694 11.46C242.867 11.62 242.954 11.8533 242.954 12.16C242.954 12.4533 242.867 12.6867 242.694 12.86C242.52 13.02 242.274 13.1 241.954 13.1H239.834V17.22C239.834 17.86 239.974 18.34 240.254 18.66C240.534 18.98 240.987 19.14 241.614 19.14C241.84 19.14 242.04 19.12 242.214 19.08C242.387 19.04 242.54 19.0133 242.674 19C242.834 18.9867 242.967 19.04 243.074 19.16C243.18 19.2667 243.234 19.4933 243.234 19.84C243.234 20.1067 243.187 20.3467 243.094 20.56C243.014 20.76 242.86 20.9 242.634 20.98C242.46 21.0333 242.234 21.08 241.954 21.12C241.674 21.1733 241.427 21.2 241.214 21.2ZM245.903 21.16C245.503 21.16 245.197 21.0533 244.983 20.84C244.77 20.6133 244.663 20.2933 244.663 19.88V8C244.663 7.58667 244.77 7.27333 244.983 7.06C245.197 6.84667 245.503 6.74 245.903 6.74C246.303 6.74 246.61 6.84667 246.823 7.06C247.05 7.27333 247.163 7.58667 247.163 8V13.18H246.883C247.177 12.4733 247.63 11.94 248.243 11.58C248.87 11.2067 249.577 11.02 250.363 11.02C251.15 11.02 251.797 11.1667 252.303 11.46C252.81 11.7533 253.19 12.2 253.443 12.8C253.697 13.3867 253.823 14.1333 253.823 15.04V19.88C253.823 20.2933 253.717 20.6133 253.503 20.84C253.29 21.0533 252.983 21.16 252.583 21.16C252.183 21.16 251.87 21.0533 251.643 20.84C251.43 20.6133 251.323 20.2933 251.323 19.88V15.16C251.323 14.4 251.177 13.8467 250.883 13.5C250.603 13.1533 250.163 12.98 249.563 12.98C248.83 12.98 248.243 13.2133 247.803 13.68C247.377 14.1333 247.163 14.74 247.163 15.5V19.88C247.163 20.7333 246.743 21.16 245.903 21.16ZM265.372 21.2C264.799 21.2 264.192 21.14 263.552 21.02C262.912 20.9 262.339 20.6933 261.832 20.4C261.619 20.2667 261.466 20.1133 261.372 19.94C261.292 19.7533 261.259 19.5733 261.272 19.4C261.299 19.2133 261.366 19.0533 261.472 18.92C261.592 18.7867 261.739 18.7 261.912 18.66C262.099 18.62 262.299 18.6533 262.512 18.76C263.046 19.0133 263.546 19.1933 264.012 19.3C264.479 19.3933 264.939 19.44 265.392 19.44C266.032 19.44 266.506 19.3333 266.812 19.12C267.132 18.8933 267.292 18.6 267.292 18.24C267.292 17.9333 267.186 17.7 266.972 17.54C266.772 17.3667 266.466 17.24 266.052 17.16L264.052 16.78C263.226 16.62 262.592 16.32 262.152 15.88C261.726 15.4267 261.512 14.8467 261.512 14.14C261.512 13.5 261.686 12.9467 262.032 12.48C262.392 12.0133 262.886 11.6533 263.512 11.4C264.139 11.1467 264.859 11.02 265.672 11.02C266.259 11.02 266.806 11.0867 267.312 11.22C267.832 11.34 268.332 11.5333 268.812 11.8C269.012 11.9067 269.146 12.0467 269.212 12.22C269.292 12.3933 269.312 12.5733 269.272 12.76C269.232 12.9333 269.152 13.0933 269.032 13.24C268.912 13.3733 268.759 13.46 268.572 13.5C268.399 13.5267 268.199 13.4867 267.972 13.38C267.559 13.1667 267.159 13.0133 266.772 12.92C266.399 12.8267 266.039 12.78 265.692 12.78C265.039 12.78 264.552 12.8933 264.232 13.12C263.926 13.3467 263.772 13.6467 263.772 14.02C263.772 14.3 263.866 14.5333 264.052 14.72C264.239 14.9067 264.526 15.0333 264.912 15.1L266.912 15.48C267.779 15.64 268.432 15.9333 268.872 16.36C269.326 16.7867 269.552 17.36 269.552 18.08C269.552 19.0533 269.172 19.82 268.412 20.38C267.652 20.9267 266.639 21.2 265.372 21.2ZM272.798 21.14C272.398 21.14 272.091 21.02 271.878 20.78C271.664 20.54 271.558 20.2067 271.558 19.78V12.44C271.558 12 271.664 11.6667 271.878 11.44C272.091 11.2 272.398 11.08 272.798 11.08C273.198 11.08 273.504 11.2 273.718 11.44C273.944 11.6667 274.058 12 274.058 12.44V19.78C274.058 20.2067 273.951 20.54 273.738 20.78C273.524 21.02 273.211 21.14 272.798 21.14ZM272.798 9.22C272.331 9.22 271.964 9.10667 271.698 8.88C271.444 8.64 271.318 8.31333 271.318 7.9C271.318 7.47333 271.444 7.14667 271.698 6.92C271.964 6.69333 272.331 6.58 272.798 6.58C273.278 6.58 273.644 6.69333 273.898 6.92C274.151 7.14667 274.278 7.47333 274.278 7.9C274.278 8.31333 274.151 8.64 273.898 8.88C273.644 9.10667 273.278 9.22 272.798 9.22ZM280.415 21.2C279.562 21.2 278.809 20.9933 278.155 20.58C277.515 20.1667 277.015 19.58 276.655 18.82C276.295 18.0467 276.115 17.14 276.115 16.1C276.115 15.0467 276.295 14.1467 276.655 13.4C277.015 12.64 277.515 12.0533 278.155 11.64C278.809 11.2267 279.562 11.02 280.415 11.02C281.229 11.02 281.935 11.22 282.535 11.62C283.149 12.02 283.562 12.5467 283.775 13.2H283.555V8C283.555 7.58667 283.662 7.27333 283.875 7.06C284.089 6.84667 284.395 6.74 284.795 6.74C285.195 6.74 285.502 6.84667 285.715 7.06C285.942 7.27333 286.055 7.58667 286.055 8V19.88C286.055 20.2933 285.949 20.6133 285.735 20.84C285.522 21.0533 285.215 21.16 284.815 21.16C284.415 21.16 284.109 21.0533 283.895 20.84C283.682 20.6133 283.575 20.2933 283.575 19.88V18.32L283.795 18.92C283.595 19.6133 283.189 20.1667 282.575 20.58C281.962 20.9933 281.242 21.2 280.415 21.2ZM281.115 19.3C281.609 19.3 282.042 19.18 282.415 18.94C282.789 18.7 283.075 18.3467 283.275 17.88C283.489 17.4 283.595 16.8067 283.595 16.1C283.595 15.0333 283.369 14.24 282.915 13.72C282.462 13.1867 281.862 12.92 281.115 12.92C280.622 12.92 280.189 13.04 279.815 13.28C279.442 13.5067 279.149 13.86 278.935 14.34C278.735 14.8067 278.635 15.3933 278.635 16.1C278.635 17.1533 278.862 17.9533 279.315 18.5C279.769 19.0333 280.369 19.3 281.115 19.3ZM293.468 21.2C292.361 21.2 291.408 20.9933 290.608 20.58C289.808 20.1667 289.188 19.58 288.748 18.82C288.321 18.06 288.108 17.16 288.108 16.12C288.108 15.1067 288.314 14.22 288.728 13.46C289.154 12.7 289.734 12.1067 290.468 11.68C291.214 11.24 292.061 11.02 293.008 11.02C293.701 11.02 294.321 11.1333 294.868 11.36C295.428 11.5867 295.901 11.9133 296.288 12.34C296.688 12.7667 296.988 13.2867 297.188 13.9C297.401 14.5 297.508 15.18 297.508 15.94C297.508 16.18 297.421 16.3667 297.248 16.5C297.088 16.62 296.854 16.68 296.548 16.68H290.128V15.24H295.748L295.428 15.54C295.428 14.9267 295.334 14.4133 295.148 14C294.974 13.5867 294.714 13.2733 294.368 13.06C294.034 12.8333 293.614 12.72 293.108 12.72C292.548 12.72 292.068 12.8533 291.668 13.12C291.281 13.3733 290.981 13.74 290.768 14.22C290.568 14.6867 290.468 15.2467 290.468 15.9V16.04C290.468 17.1333 290.721 17.9533 291.228 18.5C291.748 19.0333 292.508 19.3 293.508 19.3C293.854 19.3 294.241 19.26 294.668 19.18C295.108 19.0867 295.521 18.9333 295.908 18.72C296.188 18.56 296.434 18.4933 296.648 18.52C296.861 18.5333 297.028 18.6067 297.148 18.74C297.281 18.8733 297.361 19.04 297.388 19.24C297.414 19.4267 297.374 19.62 297.268 19.82C297.174 20.02 297.008 20.1933 296.768 20.34C296.301 20.6333 295.761 20.8533 295.148 21C294.548 21.1333 293.988 21.2 293.468 21.2ZM303.068 21.2C302.494 21.2 301.888 21.14 301.248 21.02C300.608 20.9 300.034 20.6933 299.528 20.4C299.314 20.2667 299.161 20.1133 299.068 19.94C298.988 19.7533 298.954 19.5733 298.968 19.4C298.994 19.2133 299.061 19.0533 299.168 18.92C299.288 18.7867 299.434 18.7 299.608 18.66C299.794 18.62 299.994 18.6533 300.208 18.76C300.741 19.0133 301.241 19.1933 301.708 19.3C302.174 19.3933 302.634 19.44 303.088 19.44C303.728 19.44 304.201 19.3333 304.508 19.12C304.828 18.8933 304.988 18.6 304.988 18.24C304.988 17.9333 304.881 17.7 304.668 17.54C304.468 17.3667 304.161 17.24 303.748 17.16L301.748 16.78C300.921 16.62 300.288 16.32 299.848 15.88C299.421 15.4267 299.208 14.8467 299.208 14.14C299.208 13.5 299.381 12.9467 299.728 12.48C300.088 12.0133 300.581 11.6533 301.208 11.4C301.834 11.1467 302.554 11.02 303.368 11.02C303.954 11.02 304.501 11.0867 305.008 11.22C305.528 11.34 306.028 11.5333 306.508 11.8C306.708 11.9067 306.841 12.0467 306.908 12.22C306.988 12.3933 307.008 12.5733 306.968 12.76C306.928 12.9333 306.848 13.0933 306.728 13.24C306.608 13.3733 306.454 13.46 306.268 13.5C306.094 13.5267 305.894 13.4867 305.668 13.38C305.254 13.1667 304.854 13.0133 304.468 12.92C304.094 12.8267 303.734 12.78 303.388 12.78C302.734 12.78 302.248 12.8933 301.928 13.12C301.621 13.3467 301.468 13.6467 301.468 14.02C301.468 14.3 301.561 14.5333 301.748 14.72C301.934 14.9067 302.221 15.0333 302.608 15.1L304.608 15.48C305.474 15.64 306.128 15.9333 306.568 16.36C307.021 16.7867 307.248 17.36 307.248 18.08C307.248 19.0533 306.868 19.82 306.108 20.38C305.348 20.9267 304.334 21.2 303.068 21.2Z" fill="#444444"/>
<rect x="316" width="21" height="28" rx="5" fill="#F0A000"/>
<path d="M325.551 21.2C324.845 21.2 324.211 21.0667 323.651 20.8C323.105 20.52 322.671 20.1467 322.351 19.68C322.045 19.2133 321.891 18.6867 321.891 18.1C321.891 17.38 322.078 16.8133 322.451 16.4C322.825 15.9733 323.431 15.6667 324.271 15.48C325.111 15.2933 326.238 15.2 327.651 15.2H328.651V16.64H327.671C326.845 16.64 326.185 16.68 325.691 16.76C325.198 16.84 324.845 16.98 324.631 17.18C324.431 17.3667 324.331 17.6333 324.331 17.98C324.331 18.42 324.485 18.78 324.791 19.06C325.098 19.34 325.525 19.48 326.071 19.48C326.511 19.48 326.898 19.38 327.231 19.18C327.578 18.9667 327.851 18.68 328.051 18.32C328.251 17.96 328.351 17.5467 328.351 17.08V14.78C328.351 14.1133 328.205 13.6333 327.911 13.34C327.618 13.0467 327.125 12.9 326.431 12.9C326.045 12.9 325.625 12.9467 325.171 13.04C324.731 13.1333 324.265 13.2933 323.771 13.52C323.518 13.64 323.291 13.6733 323.091 13.62C322.905 13.5667 322.758 13.46 322.651 13.3C322.545 13.1267 322.491 12.94 322.491 12.74C322.491 12.54 322.545 12.3467 322.651 12.16C322.758 11.96 322.938 11.8133 323.191 11.72C323.805 11.4667 324.391 11.2867 324.951 11.18C325.525 11.0733 326.045 11.02 326.511 11.02C327.471 11.02 328.258 11.1667 328.871 11.46C329.498 11.7533 329.965 12.2 330.271 12.8C330.578 13.3867 330.731 14.1467 330.731 15.08V19.88C330.731 20.2933 330.631 20.6133 330.431 20.84C330.231 21.0533 329.945 21.16 329.571 21.16C329.198 21.16 328.905 21.0533 328.691 20.84C328.491 20.6133 328.391 20.2933 328.391 19.88V18.92H328.551C328.458 19.3867 328.271 19.7933 327.991 20.14C327.725 20.4733 327.385 20.7333 326.971 20.92C326.558 21.1067 326.085 21.2 325.551 21.2Z" fill="#FFF6DB"/>
<path d="M349.706 21.2C348.999 21.2 348.366 21.0667 347.806 20.8C347.259 20.52 346.826 20.1467 346.506 19.68C346.199 19.2133 346.046 18.6867 346.046 18.1C346.046 17.38 346.232 16.8133 346.606 16.4C346.979 15.9733 347.586 15.6667 348.426 15.48C349.266 15.2933 350.392 15.2 351.806 15.2H352.806V16.64H351.826C350.999 16.64 350.339 16.68 349.846 16.76C349.352 16.84 348.999 16.98 348.786 17.18C348.586 17.3667 348.486 17.6333 348.486 17.98C348.486 18.42 348.639 18.78 348.946 19.06C349.252 19.34 349.679 19.48 350.226 19.48C350.666 19.48 351.052 19.38 351.386 19.18C351.732 18.9667 352.006 18.68 352.206 18.32C352.406 17.96 352.506 17.5467 352.506 17.08V14.78C352.506 14.1133 352.359 13.6333 352.066 13.34C351.772 13.0467 351.279 12.9 350.586 12.9C350.199 12.9 349.779 12.9467 349.326 13.04C348.886 13.1333 348.419 13.2933 347.926 13.52C347.672 13.64 347.446 13.6733 347.246 13.62C347.059 13.5667 346.912 13.46 346.806 13.3C346.699 13.1267 346.646 12.94 346.646 12.74C346.646 12.54 346.699 12.3467 346.806 12.16C346.912 11.96 347.092 11.8133 347.346 11.72C347.959 11.4667 348.546 11.2867 349.106 11.18C349.679 11.0733 350.199 11.02 350.666 11.02C351.626 11.02 352.412 11.1667 353.026 11.46C353.652 11.7533 354.119 12.2 354.426 12.8C354.732 13.3867 354.886 14.1467 354.886 15.08V19.88C354.886 20.2933 354.786 20.6133 354.586 20.84C354.386 21.0533 354.099 21.16 353.726 21.16C353.352 21.16 353.059 21.0533 352.846 20.84C352.646 20.6133 352.546 20.2933 352.546 19.88V18.92H352.706C352.612 19.3867 352.426 19.7933 352.146 20.14C351.879 20.4733 351.539 20.7333 351.126 20.92C350.712 21.1067 350.239 21.2 349.706 21.2ZM358.663 21.16C358.263 21.16 357.956 21.0533 357.743 20.84C357.53 20.6133 357.423 20.2933 357.423 19.88V12.32C357.423 11.9067 357.53 11.5933 357.743 11.38C357.956 11.1667 358.256 11.06 358.643 11.06C359.03 11.06 359.33 11.1667 359.543 11.38C359.756 11.5933 359.863 11.9067 359.863 12.32V13.68L359.643 13.18C359.936 12.4733 360.39 11.94 361.003 11.58C361.63 11.2067 362.336 11.02 363.123 11.02C363.91 11.02 364.556 11.1667 365.063 11.46C365.57 11.7533 365.95 12.2 366.203 12.8C366.456 13.3867 366.583 14.1333 366.583 15.04V19.88C366.583 20.2933 366.476 20.6133 366.263 20.84C366.05 21.0533 365.743 21.16 365.343 21.16C364.943 21.16 364.63 21.0533 364.403 20.84C364.19 20.6133 364.083 20.2933 364.083 19.88V15.16C364.083 14.4 363.936 13.8467 363.643 13.5C363.363 13.1533 362.923 12.98 362.323 12.98C361.59 12.98 361.003 13.2133 360.563 13.68C360.136 14.1333 359.923 14.74 359.923 15.5V19.88C359.923 20.7333 359.503 21.16 358.663 21.16ZM372.882 21.2C372.029 21.2 371.276 20.9933 370.622 20.58C369.982 20.1667 369.482 19.58 369.122 18.82C368.762 18.0467 368.582 17.14 368.582 16.1C368.582 15.0467 368.762 14.1467 369.122 13.4C369.482 12.64 369.982 12.0533 370.622 11.64C371.276 11.2267 372.029 11.02 372.882 11.02C373.696 11.02 374.402 11.22 375.002 11.62C375.616 12.02 376.029 12.5467 376.242 13.2H376.022V8C376.022 7.58667 376.129 7.27333 376.342 7.06C376.556 6.84667 376.862 6.74 377.262 6.74C377.662 6.74 377.969 6.84667 378.182 7.06C378.409 7.27333 378.522 7.58667 378.522 8V19.88C378.522 20.2933 378.416 20.6133 378.202 20.84C377.989 21.0533 377.682 21.16 377.282 21.16C376.882 21.16 376.576 21.0533 376.362 20.84C376.149 20.6133 376.042 20.2933 376.042 19.88V18.32L376.262 18.92C376.062 19.6133 375.656 20.1667 375.042 20.58C374.429 20.9933 373.709 21.2 372.882 21.2ZM373.582 19.3C374.076 19.3 374.509 19.18 374.882 18.94C375.256 18.7 375.542 18.3467 375.742 17.88C375.956 17.4 376.062 16.8067 376.062 16.1C376.062 15.0333 375.836 14.24 375.382 13.72C374.929 13.1867 374.329 12.92 373.582 12.92C373.089 12.92 372.656 13.04 372.282 13.28C371.909 13.5067 371.616 13.86 371.402 14.34C371.202 14.8067 371.102 15.3933 371.102 16.1C371.102 17.1533 371.329 17.9533 371.782 18.5C372.236 19.0333 372.836 19.3 373.582 19.3Z" fill="#444444"/>
<rect x="388" width="22" height="28" rx="5" fill="#2AD3F5"/>
<path d="M399.944 21.2C399.117 21.2 398.391 20.9933 397.764 20.58C397.151 20.1667 396.744 19.6133 396.544 18.92L396.764 18.42V19.88C396.764 20.2933 396.657 20.6133 396.444 20.84C396.231 21.0533 395.931 21.16 395.544 21.16C395.144 21.16 394.837 21.0533 394.624 20.84C394.411 20.6133 394.304 20.2933 394.304 19.88V8C394.304 7.58667 394.411 7.27333 394.624 7.06C394.837 6.84667 395.144 6.74 395.544 6.74C395.944 6.74 396.251 6.84667 396.464 7.06C396.691 7.27333 396.804 7.58667 396.804 8V13.2H396.564C396.777 12.5467 397.191 12.02 397.804 11.62C398.417 11.22 399.131 11.02 399.944 11.02C400.811 11.02 401.564 11.2267 402.204 11.64C402.844 12.0533 403.344 12.64 403.704 13.4C404.064 14.1467 404.244 15.0467 404.244 16.1C404.244 17.14 404.064 18.0467 403.704 18.82C403.344 19.58 402.837 20.1667 402.184 20.58C401.544 20.9933 400.797 21.2 399.944 21.2ZM399.244 19.3C399.737 19.3 400.171 19.18 400.544 18.94C400.917 18.7 401.204 18.3467 401.404 17.88C401.617 17.4 401.724 16.8067 401.724 16.1C401.724 15.0333 401.497 14.24 401.044 13.72C400.591 13.1867 399.991 12.92 399.244 12.92C398.751 12.92 398.317 13.04 397.944 13.28C397.571 13.5067 397.277 13.86 397.064 14.34C396.864 14.8067 396.764 15.3933 396.764 16.1C396.764 17.1533 396.991 17.9533 397.444 18.5C397.897 19.0333 398.497 19.3 399.244 19.3Z" fill="#E7FBFF"/>
<path d="M420.52 21.1C420.066 21.1 419.7 20.96 419.42 20.68C419.153 20.4 419.02 20.04 419.02 19.6C419.02 19.1733 419.153 18.8267 419.42 18.56C419.7 18.28 420.066 18.14 420.52 18.14C420.986 18.14 421.346 18.28 421.6 18.56C421.866 18.8267 422 19.1733 422 19.6C422 20.04 421.866 20.4 421.6 20.68C421.346 20.96 420.986 21.1 420.52 21.1Z" fill="#444444"/>
</svg>
