<svg width="13" height="16" viewBox="0 0 13 16" fill="none" xmlns="http://www.w3.org/2000/svg">
<path d="M6.489 15.168C6.055 15.168 5.719 15.049 5.481 14.811C5.257 14.559 5.145 14.209 5.145 13.761V7.377L5.712 8.994L0.651 1.875C0.469 1.623 0.385 1.357 0.399 1.077C0.427 0.782999 0.546 0.538 0.756 0.342C0.966 0.131999 1.26 0.0269988 1.638 0.0269988C1.918 0.0269988 2.17 0.0969991 2.394 0.237C2.632 0.377 2.856 0.593999 3.066 0.887999L6.825 6.222H6.237L10.017 0.887999C10.241 0.58 10.458 0.363 10.668 0.237C10.878 0.0969991 11.137 0.0269988 11.445 0.0269988C11.809 0.0269988 12.089 0.124999 12.285 0.320999C12.495 0.502999 12.6 0.733999 12.6 1.014C12.614 1.294 12.516 1.588 12.306 1.896L7.287 8.994L7.833 7.377V13.761C7.833 14.699 7.385 15.168 6.489 15.168Z" fill="black"/>
</svg>
