<svg width="158" height="97" viewBox="0 0 158 97" fill="none" xmlns="http://www.w3.org/2000/svg">
<path d="M150.817 7H15.1833C11.7684 7 9 10.4916 9 14.7987V79.2013C9 83.5084 11.7684 87 15.1833 87H150.817C154.232 87 157 83.5084 157 79.2013V14.7987C157 10.4916 154.232 7 150.817 7Z" fill="white"/>
<path d="M150.817 7H15.1833C11.7684 7 9 10.4916 9 14.7987V79.2013C9 83.5084 11.7684 87 15.1833 87H150.817C154.232 87 157 83.5084 157 79.2013V14.7987C157 10.4916 154.232 7 150.817 7Z" stroke="#1A1A1A" stroke-width="0.5"/>
<path d="M12 96.5C18.3513 96.5 23.5 91.3513 23.5 85C23.5 78.6487 18.3513 73.5 12 73.5C5.64873 73.5 0.5 78.6487 0.5 85C0.5 91.3513 5.64873 96.5 12 96.5Z" fill="white" stroke="#1A1A1A"/>
<path d="M12.0156 86.752C11.813 86.752 11.653 86.688 11.5356 86.56C11.429 86.432 11.365 86.2507 11.3436 86.016L10.8636 79.904C10.8316 79.5093 10.917 79.1947 11.1196 78.96C11.3223 78.7147 11.621 78.592 12.0156 78.592C12.3996 78.592 12.6876 78.7147 12.8796 78.96C13.0823 79.1947 13.1676 79.5093 13.1356 79.904L12.6556 86.016C12.645 86.2507 12.581 86.432 12.4636 86.56C12.357 86.688 12.2076 86.752 12.0156 86.752ZM12.0156 90.08C11.653 90.08 11.3596 89.968 11.1356 89.744C10.9223 89.52 10.8156 89.232 10.8156 88.88C10.8156 88.5387 10.9223 88.2613 11.1356 88.048C11.3596 87.824 11.653 87.712 12.0156 87.712C12.389 87.712 12.677 87.824 12.8796 88.048C13.093 88.2613 13.1996 88.5387 13.1996 88.88C13.1996 89.232 13.093 89.52 12.8796 89.744C12.677 89.968 12.389 90.08 12.0156 90.08Z" fill="#1A1A1A"/>
<path d="M135.25 8V7H147.25V8H135.25Z" fill="white"/>
<path d="M146.747 6.91515C147.037 7.2368 146.809 7.75 146.376 7.75H135.571C135.147 7.75 134.915 7.25428 135.188 6.92887L140.333 0.788458L140.392 0.717179C140.592 0.474889 140.963 0.474889 141.163 0.717179L141.222 0.788458L146.747 6.91515Z" fill="white"/>
<path d="M147.064 7.16753L147.232 7.35309L147.603 7.01804L147.436 6.83247L147.064 7.16753ZM135.056 6.84247C134.969 6.94968 134.985 7.10712 135.092 7.19412C135.2 7.28113 135.357 7.26474 135.444 7.15753L135.056 6.84247ZM147.436 6.83247C145.241 4.40169 143.904 2.92052 141.899 0.700168L141.528 1.03522C143.533 3.25557 144.87 4.73674 147.064 7.16753L147.436 6.83247ZM140 0.749468L135.056 6.84247L135.444 7.15753L140.389 1.06453L140 0.749468ZM141.899 0.700168C141.386 0.130971 140.484 0.153527 140 0.749468L140.389 1.06453C140.678 0.70736 141.22 0.693325 141.528 1.03522L141.899 0.700168Z" fill="#1A1A1A"/>
</svg>
