<svg width="21" height="17" viewBox="0 0 21 17" fill="none" xmlns="http://www.w3.org/2000/svg">
<g clip-path="url(#clip0_64_2)">
<path d="M20.2844 13.3042C20.4252 13.4464 20.5042 13.6384 20.5042 13.8386C20.5042 14.0387 20.4252 14.2307 20.2844 14.3729L18.0344 16.6229C17.891 16.7615 17.6994 16.839 17.5 16.839C17.3006 16.839 17.109 16.7615 16.9656 16.6229C16.8248 16.4807 16.7458 16.2887 16.7458 16.0886C16.7458 15.8884 16.8248 15.6964 16.9656 15.5542L17.9406 14.5886H16.8344C15.7596 14.5867 14.7008 14.3289 13.7455 13.8366C12.7902 13.3442 11.9658 12.6315 11.3406 11.7573L7.43125 6.29172C6.94613 5.6123 6.30623 5.05813 5.56449 4.67503C4.82274 4.29193 4.00046 4.09091 3.16562 4.08859H1C0.801088 4.08859 0.610322 4.00957 0.46967 3.86892C0.329018 3.72827 0.25 3.5375 0.25 3.33859C0.25 3.13968 0.329018 2.94891 0.46967 2.80826C0.610322 2.66761 0.801088 2.58859 1 2.58859H3.16562C4.24035 2.59048 5.29918 2.84826 6.2545 3.34059C7.20983 3.83292 8.03419 4.54566 8.65937 5.41984L12.5687 10.8854C13.0539 11.5648 13.6938 12.119 14.4355 12.5021C15.1773 12.8852 15.9995 13.0862 16.8344 13.0886H17.9406L16.9656 12.1229C16.846 11.9772 16.7849 11.7922 16.7942 11.6039C16.8034 11.4156 16.8824 11.2375 17.0157 11.1042C17.149 10.9709 17.3271 10.892 17.5154 10.8827C17.7037 10.8735 17.8887 10.9346 18.0344 11.0542L20.2844 13.3042ZM11.4062 6.61984C11.4867 6.67749 11.5779 6.71862 11.6743 6.74088C11.7708 6.76313 11.8707 6.76606 11.9684 6.7495C12.066 6.73294 12.1593 6.69722 12.2431 6.64439C12.3268 6.59157 12.3993 6.52268 12.4562 6.44171L12.5687 6.29172C13.0539 5.6123 13.6938 5.05813 14.4355 4.67503C15.1773 4.29193 15.9995 4.09091 16.8344 4.08859H17.9406L16.9656 5.05422C16.8248 5.19641 16.7458 5.38845 16.7458 5.58859C16.7458 5.78873 16.8248 5.98077 16.9656 6.12297C17.109 6.26158 17.3006 6.33907 17.5 6.33907C17.6994 6.33907 17.891 6.26158 18.0344 6.12297L20.2844 3.87297C20.4252 3.73077 20.5042 3.53873 20.5042 3.33859C20.5042 3.13845 20.4252 2.94641 20.2844 2.80422L18.0344 0.554219C17.8887 0.434622 17.7037 0.373503 17.5154 0.382751C17.3271 0.391998 17.149 0.470951 17.0157 0.604252C16.8824 0.737553 16.8034 0.915671 16.7942 1.10396C16.7849 1.29225 16.846 1.47724 16.9656 1.62297L17.9406 2.58859H16.8344C15.7596 2.59048 14.7008 2.84826 13.7455 3.34059C12.7902 3.83292 11.9658 4.54566 11.3406 5.41984L11.2375 5.56984C11.1794 5.64977 11.1376 5.7404 11.1147 5.83652C11.0917 5.93263 11.0879 6.03235 11.1036 6.12992C11.1193 6.2275 11.1541 6.32101 11.206 6.40509C11.258 6.48916 11.326 6.56215 11.4062 6.61984ZM8.59375 10.5573C8.51325 10.4997 8.42214 10.4585 8.32566 10.4363C8.22919 10.414 8.12926 10.4111 8.03164 10.4276C7.93403 10.4442 7.84066 10.4799 7.75692 10.5327C7.67318 10.5856 7.60073 10.6545 7.54375 10.7354L7.43125 10.8854C6.94613 11.5648 6.30623 12.119 5.56449 12.5021C4.82274 12.8852 4.00046 13.0862 3.16562 13.0886H1C0.801088 13.0886 0.610322 13.1676 0.46967 13.3082C0.329018 13.4489 0.25 13.6396 0.25 13.8386C0.25 14.0375 0.329018 14.2282 0.46967 14.3689C0.610322 14.5095 0.801088 14.5886 1 14.5886H3.16562C4.24035 14.5867 5.29918 14.3289 6.2545 13.8366C7.20983 13.3442 8.03419 12.6315 8.65937 11.7573L8.7625 11.6073C8.82062 11.5274 8.86237 11.4367 8.88535 11.3406C8.90833 11.2445 8.91209 11.1448 8.8964 11.0472C8.88072 10.9496 8.84591 10.8561 8.79397 10.7721C8.74203 10.688 8.67399 10.615 8.59375 10.5573Z" fill="white"/>
</g>
<defs>
<clipPath id="clip0_64_2">
<rect width="21" height="17" fill="white"/>
</clipPath>
</defs>
</svg>
