<svg width="23" height="17" viewBox="0 0 23 17" fill="none" xmlns="http://www.w3.org/2000/svg">
<path d="M11.5 0.5C16.5 0.5 20.77 3.61 22.5 8C20.77 12.39 16.5 15.5 11.5 15.5C11.14 15.5 10.78 15.5 10.42 15.45C10.4714 15.1359 10.4982 14.8183 10.5 14.5C10.5 13.94 10.42 13.38 10.26 12.84C10.67 12.94 11.08 13 11.5 13C14.26 13 16.5 10.76 16.5 8C16.5 5.24 14.26 3 11.5 3C8.74 3 6.5 5.24 6.5 8C6.5 8.29 6.53 8.59 6.58 8.88C5.92 8.63 5.21 8.5 4.5 8.5C3.33 8.5 2.19 8.84 1.21 9.5C0.939999 9 0.700001 8.5 0.5 8C2.23 3.61 6.5 0.5 11.5 0.5ZM11.5 5C13.16 5 14.5 6.34 14.5 8C14.5 9.66 13.16 11 11.5 11C9.84 11 8.5 9.66 8.5 8C8.5 6.34 9.84 5 11.5 5ZM5.5 11V13H1.5V15H5.5V17L8.5 14L5.5 11Z" fill="white"/>
</svg>
