<svg width="501" height="216" viewBox="0 0 501 216" fill="none" xmlns="http://www.w3.org/2000/svg">
<path d="M120.773 18.24C118.901 18.24 117.317 17.888 116.021 17.184C114.741 16.48 113.765 15.48 113.093 14.184C112.421 12.888 112.085 11.352 112.085 9.576C112.085 8.232 112.277 7.024 112.661 5.952C113.061 4.88 113.629 3.968 114.365 3.216C115.117 2.448 116.029 1.864 117.101 1.464C118.173 1.048 119.389 0.839999 120.749 0.839999C121.645 0.839999 122.541 0.951999 123.437 1.176C124.349 1.384 125.205 1.744 126.005 2.256C126.277 2.432 126.453 2.648 126.533 2.904C126.629 3.16 126.645 3.424 126.581 3.696C126.517 3.952 126.397 4.176 126.221 4.368C126.045 4.56 125.821 4.68 125.549 4.728C125.293 4.776 125.005 4.712 124.685 4.536C124.077 4.184 123.461 3.928 122.837 3.768C122.213 3.608 121.517 3.528 120.749 3.528C119.565 3.528 118.565 3.768 117.749 4.248C116.933 4.712 116.317 5.392 115.901 6.288C115.501 7.184 115.301 8.28 115.301 9.576C115.301 11.544 115.773 13.04 116.717 14.064C117.661 15.088 119.061 15.6 120.917 15.6C121.557 15.6 122.205 15.536 122.861 15.408C123.517 15.28 124.157 15.104 124.781 14.88L124.181 16.248V11.136H121.541C121.141 11.136 120.829 11.032 120.605 10.824C120.397 10.616 120.293 10.336 120.293 9.984C120.293 9.616 120.397 9.336 120.605 9.144C120.829 8.952 121.141 8.856 121.541 8.856H125.501C125.901 8.856 126.205 8.968 126.413 9.192C126.637 9.4 126.749 9.704 126.749 10.104V15.936C126.749 16.288 126.677 16.584 126.533 16.824C126.405 17.064 126.189 17.24 125.885 17.352C125.181 17.608 124.373 17.824 123.461 18C122.549 18.16 121.653 18.24 120.773 18.24ZM131.509 18.168C131.029 18.168 130.661 18.024 130.405 17.736C130.149 17.448 130.021 17.048 130.021 16.536V7.728C130.021 7.2 130.149 6.8 130.405 6.528C130.661 6.24 131.029 6.096 131.509 6.096C131.989 6.096 132.357 6.24 132.613 6.528C132.885 6.8 133.021 7.2 133.021 7.728V16.536C133.021 17.048 132.893 17.448 132.637 17.736C132.381 18.024 132.005 18.168 131.509 18.168ZM131.509 3.864C130.949 3.864 130.509 3.728 130.189 3.456C129.885 3.168 129.733 2.776 129.733 2.28C129.733 1.768 129.885 1.376 130.189 1.104C130.509 0.831999 130.949 0.696 131.509 0.696C132.085 0.696 132.525 0.831999 132.829 1.104C133.133 1.376 133.285 1.768 133.285 2.28C133.285 2.776 133.133 3.168 132.829 3.456C132.525 3.728 132.085 3.864 131.509 3.864ZM140.89 18.192C140.49 18.192 140.138 18.088 139.834 17.88C139.546 17.672 139.306 17.352 139.114 16.92L135.298 8.064C135.154 7.712 135.098 7.384 135.13 7.08C135.178 6.776 135.322 6.536 135.562 6.36C135.818 6.168 136.162 6.072 136.594 6.072C136.962 6.072 137.258 6.16 137.482 6.336C137.706 6.496 137.906 6.808 138.082 7.272L141.322 15.36H140.602L143.938 7.248C144.114 6.8 144.314 6.496 144.538 6.336C144.778 6.16 145.098 6.072 145.498 6.072C145.85 6.072 146.13 6.168 146.338 6.36C146.546 6.536 146.674 6.776 146.722 7.08C146.77 7.368 146.714 7.688 146.554 8.04L142.666 16.92C142.49 17.352 142.25 17.672 141.946 17.88C141.658 18.088 141.306 18.192 140.89 18.192ZM154.344 18.24C153.016 18.24 151.872 17.992 150.912 17.496C149.952 17 149.208 16.296 148.68 15.384C148.168 14.472 147.912 13.392 147.912 12.144C147.912 10.928 148.16 9.864 148.656 8.952C149.168 8.04 149.864 7.328 150.744 6.816C151.64 6.288 152.656 6.024 153.792 6.024C154.624 6.024 155.368 6.16 156.024 6.432C156.696 6.704 157.264 7.096 157.728 7.608C158.208 8.12 158.568 8.744 158.808 9.48C159.064 10.2 159.192 11.016 159.192 11.928C159.192 12.216 159.088 12.44 158.88 12.6C158.688 12.744 158.408 12.816 158.04 12.816H150.336V11.088H157.08L156.696 11.448C156.696 10.712 156.584 10.096 156.36 9.6C156.152 9.104 155.84 8.728 155.424 8.472C155.024 8.2 154.52 8.064 153.912 8.064C153.24 8.064 152.664 8.224 152.184 8.544C151.72 8.848 151.36 9.288 151.104 9.864C150.864 10.424 150.744 11.096 150.744 11.88V12.048C150.744 13.36 151.048 14.344 151.656 15C152.28 15.64 153.192 15.96 154.392 15.96C154.808 15.96 155.272 15.912 155.784 15.816C156.312 15.704 156.808 15.52 157.272 15.264C157.608 15.072 157.904 14.992 158.16 15.024C158.416 15.04 158.616 15.128 158.76 15.288C158.92 15.448 159.016 15.648 159.048 15.888C159.08 16.112 159.032 16.344 158.904 16.584C158.792 16.824 158.592 17.032 158.304 17.208C157.744 17.56 157.096 17.824 156.36 18C155.64 18.16 154.968 18.24 154.344 18.24ZM163.056 18.192C162.576 18.192 162.208 18.064 161.952 17.808C161.696 17.536 161.568 17.152 161.568 16.656V7.584C161.568 7.088 161.696 6.712 161.952 6.456C162.208 6.2 162.568 6.072 163.032 6.072C163.496 6.072 163.856 6.2 164.112 6.456C164.368 6.712 164.496 7.088 164.496 7.584V9.216L164.232 8.616C164.584 7.768 165.128 7.128 165.864 6.696C166.616 6.248 167.464 6.024 168.408 6.024C169.352 6.024 170.128 6.2 170.736 6.552C171.344 6.904 171.8 7.44 172.104 8.16C172.408 8.864 172.56 9.76 172.56 10.848V16.656C172.56 17.152 172.432 17.536 172.176 17.808C171.92 18.064 171.552 18.192 171.072 18.192C170.592 18.192 170.216 18.064 169.944 17.808C169.688 17.536 169.56 17.152 169.56 16.656V10.992C169.56 10.08 169.384 9.416 169.032 9C168.696 8.584 168.168 8.376 167.448 8.376C166.568 8.376 165.864 8.656 165.336 9.216C164.824 9.76 164.568 10.488 164.568 11.4V16.656C164.568 17.68 164.064 18.192 163.056 18.192ZM177.047 18.12C176.503 18.12 176.063 17.952 175.727 17.616C175.407 17.28 175.247 16.848 175.247 16.32C175.247 15.808 175.407 15.392 175.727 15.072C176.063 14.736 176.503 14.568 177.047 14.568C177.607 14.568 178.039 14.736 178.343 15.072C178.663 15.392 178.823 15.808 178.823 16.32C178.823 16.848 178.663 17.28 178.343 17.616C178.039 17.952 177.607 18.12 177.047 18.12ZM177.047 9.696C176.503 9.696 176.063 9.528 175.727 9.192C175.407 8.856 175.247 8.432 175.247 7.92C175.247 7.392 175.407 6.968 175.727 6.648C176.063 6.312 176.503 6.144 177.047 6.144C177.607 6.144 178.039 6.312 178.343 6.648C178.663 6.968 178.823 7.392 178.823 7.92C178.823 8.432 178.663 8.856 178.343 9.192C178.039 9.528 177.607 9.696 177.047 9.696Z" fill="#444444"/>
<path d="M2.81727 101.14C2.53727 101.14 2.31727 101.067 2.15727 100.92C2.0106 100.76 1.93727 100.533 1.93727 100.24V87.8C1.93727 87.5067 2.0106 87.2867 2.15727 87.14C2.31727 86.98 2.54393 86.9 2.83727 86.9H10.0973C10.3239 86.9 10.4973 86.96 10.6173 87.08C10.7373 87.2 10.7973 87.3667 10.7973 87.58C10.7973 87.8067 10.7373 87.98 10.6173 88.1C10.4973 88.22 10.3239 88.28 10.0973 88.28H3.57727V93.2H9.67727C9.90393 93.2 10.0773 93.26 10.1973 93.38C10.3306 93.5 10.3973 93.6667 10.3973 93.88C10.3973 94.1067 10.3306 94.28 10.1973 94.4C10.0773 94.52 9.90393 94.58 9.67727 94.58H3.57727V100.24C3.57727 100.84 3.32393 101.14 2.81727 101.14ZM15.3437 101.18C14.677 101.18 14.077 101.053 13.5437 100.8C13.0237 100.533 12.6103 100.173 12.3037 99.72C11.997 99.2667 11.8437 98.76 11.8437 98.2C11.8437 97.48 12.0237 96.9133 12.3837 96.5C12.757 96.0867 13.3637 95.7933 14.2037 95.62C15.057 95.4467 16.217 95.36 17.6837 95.36H18.5837V96.42H17.7037C16.6237 96.42 15.7703 96.4733 15.1437 96.58C14.5303 96.6733 14.097 96.84 13.8437 97.08C13.6037 97.32 13.4837 97.66 13.4837 98.1C13.4837 98.6467 13.6703 99.0933 14.0437 99.44C14.4303 99.7867 14.9503 99.96 15.6037 99.96C16.137 99.96 16.6037 99.8333 17.0037 99.58C17.417 99.3267 17.737 98.98 17.9637 98.54C18.2037 98.1 18.3237 97.5933 18.3237 97.02V94.74C18.3237 93.9133 18.157 93.32 17.8237 92.96C17.4903 92.5867 16.9437 92.4 16.1837 92.4C15.717 92.4 15.2503 92.46 14.7837 92.58C14.317 92.7 13.8237 92.8933 13.3037 93.16C13.117 93.2533 12.957 93.2867 12.8237 93.26C12.6903 93.22 12.5837 93.1467 12.5037 93.04C12.4237 92.9333 12.377 92.8133 12.3637 92.68C12.3503 92.5333 12.377 92.3933 12.4437 92.26C12.5237 92.1267 12.6437 92.02 12.8037 91.94C13.3903 91.6467 13.9703 91.4333 14.5437 91.3C15.117 91.1667 15.6637 91.1 16.1837 91.1C17.0237 91.1 17.717 91.24 18.2637 91.52C18.8103 91.7867 19.217 92.2 19.4837 92.76C19.7503 93.3067 19.8837 94.0133 19.8837 94.88V100.3C19.8837 100.567 19.817 100.773 19.6837 100.92C19.5637 101.067 19.3837 101.14 19.1437 101.14C18.8903 101.14 18.697 101.067 18.5637 100.92C18.4303 100.773 18.3637 100.567 18.3637 100.3V98.74H18.5437C18.437 99.2467 18.2303 99.68 17.9237 100.04C17.6303 100.4 17.2637 100.68 16.8237 100.88C16.3837 101.08 15.8903 101.18 15.3437 101.18ZM27.0091 101.18C26.0358 101.18 25.1958 100.967 24.4891 100.54C23.7825 100.113 23.2358 99.52 22.8491 98.76C22.4758 97.9867 22.2891 97.0933 22.2891 96.08C22.2891 95.3067 22.3958 94.6133 22.6091 94C22.8225 93.3867 23.1358 92.8667 23.5491 92.44C23.9625 92 24.4558 91.6667 25.0291 91.44C25.6158 91.2133 26.2758 91.1 27.0091 91.1C27.4891 91.1 27.9891 91.1733 28.5091 91.32C29.0291 91.4667 29.5025 91.72 29.9291 92.08C30.0625 92.1733 30.1491 92.2867 30.1891 92.42C30.2291 92.5533 30.2291 92.6867 30.1891 92.82C30.1491 92.94 30.0825 93.0467 29.9891 93.14C29.8958 93.22 29.7758 93.2667 29.6291 93.28C29.4958 93.2933 29.3558 93.2467 29.2091 93.14C28.8625 92.8733 28.5091 92.6867 28.1491 92.58C27.7891 92.4733 27.4425 92.42 27.1091 92.42C26.5891 92.42 26.1358 92.5067 25.7491 92.68C25.3625 92.84 25.0358 93.0733 24.7691 93.38C24.5025 93.6867 24.2958 94.0667 24.1491 94.52C24.0158 94.9733 23.9491 95.5 23.9491 96.1C23.9491 97.26 24.2225 98.18 24.7691 98.86C25.3158 99.5267 26.0958 99.86 27.1091 99.86C27.4425 99.86 27.7825 99.8067 28.1291 99.7C28.4891 99.5933 28.8491 99.4067 29.2091 99.14C29.3558 99.0333 29.4958 98.9867 29.6291 99C29.7625 99.0133 29.8758 99.0667 29.9691 99.16C30.0625 99.24 30.1225 99.3467 30.1491 99.48C30.1891 99.6133 30.1891 99.7467 30.1491 99.88C30.1091 100 30.0225 100.107 29.8891 100.2C29.4625 100.547 28.9958 100.8 28.4891 100.96C27.9825 101.107 27.4891 101.18 27.0091 101.18ZM36.047 101.18C35.287 101.18 34.647 101.047 34.127 100.78C33.6203 100.5 33.2403 100.1 32.987 99.58C32.7336 99.0467 32.607 98.4 32.607 97.64V92.54H31.267C31.0403 92.54 30.867 92.4867 30.747 92.38C30.627 92.26 30.567 92.1 30.567 91.9C30.567 91.7 30.627 91.5467 30.747 91.44C30.867 91.3333 31.0403 91.28 31.267 91.28H32.607V88.98C32.607 88.7133 32.6803 88.5133 32.827 88.38C32.9736 88.2333 33.1736 88.16 33.427 88.16C33.6803 88.16 33.8736 88.2333 34.007 88.38C34.1536 88.5133 34.227 88.7133 34.227 88.98V91.28H36.747C36.9736 91.28 37.147 91.3333 37.267 91.44C37.387 91.5467 37.447 91.7 37.447 91.9C37.447 92.1 37.387 92.26 37.267 92.38C37.147 92.4867 36.9736 92.54 36.747 92.54H34.227V97.48C34.227 98.24 34.387 98.82 34.707 99.22C35.027 99.6067 35.547 99.8 36.267 99.8C36.5203 99.8 36.7336 99.7733 36.907 99.72C37.0936 99.6667 37.247 99.64 37.367 99.64C37.487 99.6267 37.587 99.6667 37.667 99.76C37.747 99.8533 37.787 100.013 37.787 100.24C37.787 100.4 37.7536 100.547 37.687 100.68C37.6336 100.813 37.5336 100.907 37.387 100.96C37.227 101.013 37.0136 101.06 36.747 101.1C36.4936 101.153 36.2603 101.18 36.047 101.18ZM43.0815 101.18C42.1348 101.18 41.3148 100.973 40.6215 100.56C39.9282 100.147 39.3882 99.5667 39.0015 98.82C38.6282 98.06 38.4415 97.1667 38.4415 96.14C38.4415 95.3667 38.5482 94.6733 38.7615 94.06C38.9748 93.4333 39.2882 92.9 39.7015 92.46C40.1148 92.02 40.6015 91.6867 41.1615 91.46C41.7348 91.22 42.3748 91.1 43.0815 91.1C44.0282 91.1 44.8482 91.3067 45.5415 91.72C46.2348 92.1333 46.7682 92.72 47.1415 93.48C47.5282 94.2267 47.7215 95.1133 47.7215 96.14C47.7215 96.9133 47.6148 97.6067 47.4015 98.22C47.1882 98.8333 46.8748 99.3667 46.4615 99.82C46.0482 100.26 45.5548 100.6 44.9815 100.84C44.4215 101.067 43.7882 101.18 43.0815 101.18ZM43.0815 99.88C43.6815 99.88 44.2082 99.7333 44.6615 99.44C45.1148 99.1467 45.4615 98.72 45.7015 98.16C45.9548 97.6 46.0815 96.9267 46.0815 96.14C46.0815 94.9267 45.8082 94 45.2615 93.36C44.7282 92.72 44.0015 92.4 43.0815 92.4C42.4682 92.4 41.9348 92.5467 41.4815 92.84C41.0415 93.12 40.6948 93.54 40.4415 94.1C40.2015 94.6467 40.0815 95.3267 40.0815 96.14C40.0815 97.34 40.3548 98.2667 40.9015 98.92C41.4482 99.56 42.1748 99.88 43.0815 99.88ZM50.9748 101.14C50.7081 101.14 50.5014 101.067 50.3548 100.92C50.2214 100.773 50.1548 100.567 50.1548 100.3V91.96C50.1548 91.6933 50.2214 91.4933 50.3548 91.36C50.4881 91.2133 50.6814 91.14 50.9348 91.14C51.1881 91.14 51.3814 91.2133 51.5148 91.36C51.6614 91.4933 51.7348 91.6933 51.7348 91.96V93.58H51.5348C51.7481 92.7933 52.1548 92.1867 52.7548 91.76C53.3548 91.3333 54.0948 91.1067 54.9748 91.08C55.1748 91.0667 55.3348 91.1133 55.4548 91.22C55.5748 91.3133 55.6414 91.48 55.6548 91.72C55.6681 91.9467 55.6148 92.1267 55.4948 92.26C55.3748 92.3933 55.1881 92.4733 54.9348 92.5L54.6148 92.54C53.7081 92.62 53.0081 92.9133 52.5148 93.42C52.0348 93.9133 51.7948 94.5933 51.7948 95.46V100.3C51.7948 100.567 51.7214 100.773 51.5748 100.92C51.4414 101.067 51.2414 101.14 50.9748 101.14Z" fill="#1A1A1A"/>
<path d="M417.984 101C417.69 101 417.464 100.927 417.304 100.78C417.157 100.62 417.084 100.393 417.084 100.1V87.8C417.084 87.5067 417.157 87.2867 417.304 87.14C417.464 86.98 417.69 86.9 417.984 86.9H425.424C425.65 86.9 425.824 86.96 425.944 87.08C426.064 87.2 426.124 87.3667 426.124 87.58C426.124 87.8067 426.064 87.98 425.944 88.1C425.824 88.22 425.65 88.28 425.424 88.28H418.684V93.16H425.004C425.23 93.16 425.404 93.22 425.524 93.34C425.644 93.4467 425.704 93.6133 425.704 93.84C425.704 94.0667 425.644 94.24 425.524 94.36C425.404 94.48 425.23 94.54 425.004 94.54H418.684V99.62H425.424C425.65 99.62 425.824 99.68 425.944 99.8C426.064 99.92 426.124 100.087 426.124 100.3C426.124 100.527 426.064 100.7 425.944 100.82C425.824 100.94 425.65 101 425.424 101H417.984ZM428.564 101.12C428.391 101.12 428.237 101.067 428.104 100.96C427.971 100.853 427.897 100.713 427.884 100.54C427.884 100.353 427.971 100.16 428.144 99.96L431.644 95.56V96.4L428.364 92.3C428.191 92.0867 428.104 91.8933 428.104 91.72C428.117 91.5467 428.191 91.4067 428.324 91.3C428.457 91.1933 428.611 91.14 428.784 91.14C428.984 91.14 429.151 91.18 429.284 91.26C429.431 91.3267 429.564 91.44 429.684 91.6L432.544 95.22H431.984L434.864 91.6C434.984 91.44 435.111 91.3267 435.244 91.26C435.377 91.18 435.544 91.14 435.744 91.14C435.931 91.14 436.084 91.1933 436.204 91.3C436.337 91.4067 436.404 91.5533 436.404 91.74C436.417 91.9133 436.337 92.1067 436.164 92.32L432.904 96.36V95.62L436.404 99.96C436.564 100.16 436.637 100.353 436.624 100.54C436.624 100.713 436.557 100.853 436.424 100.96C436.291 101.067 436.131 101.12 435.944 101.12C435.757 101.12 435.591 101.08 435.444 101C435.311 100.933 435.177 100.82 435.044 100.66L431.964 96.78H432.544L429.464 100.66C429.344 100.807 429.211 100.92 429.064 101C428.931 101.08 428.764 101.12 428.564 101.12ZM439.832 104.74C439.565 104.74 439.365 104.667 439.232 104.52C439.098 104.387 439.032 104.187 439.032 103.92V91.96C439.032 91.6933 439.098 91.4933 439.232 91.36C439.365 91.2133 439.558 91.14 439.812 91.14C440.078 91.14 440.278 91.2133 440.412 91.36C440.558 91.4933 440.632 91.6933 440.632 91.96V93.86L440.412 93.58C440.625 92.82 441.045 92.22 441.672 91.78C442.312 91.3267 443.072 91.1 443.952 91.1C444.818 91.1 445.572 91.3067 446.212 91.72C446.865 92.12 447.365 92.7 447.712 93.46C448.072 94.2067 448.252 95.1 448.252 96.14C448.252 97.1667 448.072 98.06 447.712 98.82C447.365 99.5667 446.872 100.147 446.232 100.56C445.592 100.973 444.832 101.18 443.952 101.18C443.072 101.18 442.318 100.96 441.692 100.52C441.065 100.067 440.638 99.4667 440.412 98.72H440.652V103.92C440.652 104.187 440.578 104.387 440.432 104.52C440.285 104.667 440.085 104.74 439.832 104.74ZM443.612 99.88C444.225 99.88 444.752 99.7333 445.192 99.44C445.645 99.1467 445.992 98.72 446.232 98.16C446.485 97.6 446.612 96.9267 446.612 96.14C446.612 94.9267 446.338 94 445.792 93.36C445.258 92.72 444.532 92.4 443.612 92.4C443.012 92.4 442.485 92.5467 442.032 92.84C441.578 93.12 441.225 93.54 440.972 94.1C440.732 94.6467 440.612 95.3267 440.612 96.14C440.612 97.34 440.885 98.2667 441.432 98.92C441.978 99.56 442.705 99.88 443.612 99.88ZM454.732 101.18C453.785 101.18 452.965 100.973 452.272 100.56C451.579 100.147 451.039 99.5667 450.652 98.82C450.279 98.06 450.092 97.1667 450.092 96.14C450.092 95.3667 450.199 94.6733 450.412 94.06C450.625 93.4333 450.939 92.9 451.352 92.46C451.765 92.02 452.252 91.6867 452.812 91.46C453.385 91.22 454.025 91.1 454.732 91.1C455.679 91.1 456.499 91.3067 457.192 91.72C457.885 92.1333 458.419 92.72 458.792 93.48C459.179 94.2267 459.372 95.1133 459.372 96.14C459.372 96.9133 459.265 97.6067 459.052 98.22C458.839 98.8333 458.525 99.3667 458.112 99.82C457.699 100.26 457.205 100.6 456.632 100.84C456.072 101.067 455.439 101.18 454.732 101.18ZM454.732 99.88C455.332 99.88 455.859 99.7333 456.312 99.44C456.765 99.1467 457.112 98.72 457.352 98.16C457.605 97.6 457.732 96.9267 457.732 96.14C457.732 94.9267 457.459 94 456.912 93.36C456.379 92.72 455.652 92.4 454.732 92.4C454.119 92.4 453.585 92.5467 453.132 92.84C452.692 93.12 452.345 93.54 452.092 94.1C451.852 94.6467 451.732 95.3267 451.732 96.14C451.732 97.34 452.005 98.2667 452.552 98.92C453.099 99.56 453.825 99.88 454.732 99.88ZM462.605 101.14C462.338 101.14 462.138 101.067 462.005 100.92C461.872 100.773 461.805 100.567 461.805 100.3V91.96C461.805 91.6933 461.872 91.4933 462.005 91.36C462.138 91.2133 462.332 91.14 462.585 91.14C462.838 91.14 463.032 91.2133 463.165 91.36C463.312 91.4933 463.385 91.6933 463.385 91.96V93.68L463.165 93.44C463.445 92.6667 463.898 92.0867 464.525 91.7C465.165 91.3 465.898 91.1 466.725 91.1C467.498 91.1 468.138 91.24 468.645 91.52C469.165 91.8 469.552 92.2267 469.805 92.8C470.058 93.36 470.185 94.0733 470.185 94.94V100.3C470.185 100.567 470.112 100.773 469.965 100.92C469.832 101.067 469.638 101.14 469.385 101.14C469.118 101.14 468.912 101.067 468.765 100.92C468.632 100.773 468.565 100.567 468.565 100.3V95.04C468.565 94.1333 468.385 93.4733 468.025 93.06C467.678 92.6333 467.118 92.42 466.345 92.42C465.452 92.42 464.738 92.7 464.205 93.26C463.685 93.8067 463.425 94.54 463.425 95.46V100.3C463.425 100.86 463.152 101.14 462.605 101.14ZM477.552 101.18C476.526 101.18 475.639 100.98 474.892 100.58C474.159 100.167 473.586 99.5867 473.172 98.84C472.772 98.0933 472.572 97.2 472.572 96.16C472.572 95.1467 472.772 94.2667 473.172 93.52C473.572 92.76 474.119 92.1667 474.812 91.74C475.519 91.3133 476.332 91.1 477.252 91.1C477.906 91.1 478.492 91.2133 479.012 91.44C479.532 91.6533 479.972 91.9667 480.332 92.38C480.706 92.7933 480.986 93.2933 481.172 93.88C481.372 94.4667 481.472 95.1267 481.472 95.86C481.472 96.0733 481.412 96.2333 481.292 96.34C481.172 96.4333 480.999 96.48 480.772 96.48H473.812V95.42H480.392L480.072 95.68C480.072 94.96 479.966 94.3533 479.752 93.86C479.539 93.3533 479.226 92.9667 478.812 92.7C478.412 92.4333 477.906 92.3 477.292 92.3C476.612 92.3 476.032 92.46 475.552 92.78C475.086 93.0867 474.732 93.52 474.492 94.08C474.252 94.6267 474.132 95.2667 474.132 96V96.12C474.132 97.3467 474.426 98.28 475.012 98.92C475.612 99.56 476.459 99.88 477.552 99.88C478.006 99.88 478.452 99.82 478.892 99.7C479.346 99.58 479.786 99.38 480.212 99.1C480.399 98.98 480.566 98.9267 480.712 98.94C480.872 98.94 480.999 98.9867 481.092 99.08C481.186 99.16 481.246 99.2667 481.272 99.4C481.312 99.52 481.299 99.6533 481.232 99.8C481.179 99.9467 481.066 100.073 480.892 100.18C480.452 100.5 479.932 100.747 479.332 100.92C478.732 101.093 478.139 101.18 477.552 101.18ZM484.617 101.14C484.35 101.14 484.15 101.067 484.017 100.92C483.884 100.773 483.817 100.567 483.817 100.3V91.96C483.817 91.6933 483.884 91.4933 484.017 91.36C484.15 91.2133 484.344 91.14 484.597 91.14C484.85 91.14 485.044 91.2133 485.177 91.36C485.324 91.4933 485.397 91.6933 485.397 91.96V93.68L485.177 93.44C485.457 92.6667 485.91 92.0867 486.537 91.7C487.177 91.3 487.91 91.1 488.737 91.1C489.51 91.1 490.15 91.24 490.657 91.52C491.177 91.8 491.564 92.2267 491.817 92.8C492.07 93.36 492.197 94.0733 492.197 94.94V100.3C492.197 100.567 492.124 100.773 491.977 100.92C491.844 101.067 491.65 101.14 491.397 101.14C491.13 101.14 490.924 101.067 490.777 100.92C490.644 100.773 490.577 100.567 490.577 100.3V95.04C490.577 94.1333 490.397 93.4733 490.037 93.06C489.69 92.6333 489.13 92.42 488.357 92.42C487.464 92.42 486.75 92.7 486.217 93.26C485.697 93.8067 485.437 94.54 485.437 95.46V100.3C485.437 100.86 485.164 101.14 484.617 101.14ZM499.084 101.18C498.324 101.18 497.684 101.047 497.164 100.78C496.657 100.5 496.277 100.1 496.024 99.58C495.771 99.0467 495.644 98.4 495.644 97.64V92.54H494.304C494.077 92.54 493.904 92.4867 493.784 92.38C493.664 92.26 493.604 92.1 493.604 91.9C493.604 91.7 493.664 91.5467 493.784 91.44C493.904 91.3333 494.077 91.28 494.304 91.28H495.644V88.98C495.644 88.7133 495.717 88.5133 495.864 88.38C496.011 88.2333 496.211 88.16 496.464 88.16C496.717 88.16 496.911 88.2333 497.044 88.38C497.191 88.5133 497.264 88.7133 497.264 88.98V91.28H499.784C500.011 91.28 500.184 91.3333 500.304 91.44C500.424 91.5467 500.484 91.7 500.484 91.9C500.484 92.1 500.424 92.26 500.304 92.38C500.184 92.4867 500.011 92.54 499.784 92.54H497.264V97.48C497.264 98.24 497.424 98.82 497.744 99.22C498.064 99.6067 498.584 99.8 499.304 99.8C499.557 99.8 499.771 99.7733 499.944 99.72C500.131 99.6667 500.284 99.64 500.404 99.64C500.524 99.6267 500.624 99.6667 500.704 99.76C500.784 99.8533 500.824 100.013 500.824 100.24C500.824 100.4 500.791 100.547 500.724 100.68C500.671 100.813 500.571 100.907 500.424 100.96C500.264 101.013 500.051 101.06 499.784 101.1C499.531 101.153 499.297 101.18 499.084 101.18Z" fill="#1A1A1A"/>
<path d="M232.135 198.288C231.719 198.288 231.351 198.16 231.031 197.904C230.711 197.648 230.535 197.312 230.503 196.896C230.503 196.448 230.711 195.984 231.127 195.504L239.527 184.944V186.96L231.655 177.12C231.239 176.608 231.031 176.144 231.031 175.728C231.063 175.312 231.239 174.976 231.559 174.72C231.879 174.464 232.247 174.336 232.663 174.336C233.143 174.336 233.543 174.432 233.863 174.624C234.215 174.784 234.535 175.056 234.823 175.44L241.687 184.128H240.343L247.255 175.44C247.543 175.056 247.847 174.784 248.167 174.624C248.487 174.432 248.887 174.336 249.367 174.336C249.815 174.336 250.183 174.464 250.471 174.72C250.791 174.976 250.951 175.328 250.951 175.776C250.983 176.192 250.791 176.656 250.375 177.168L242.551 186.864V185.088L250.951 195.504C251.335 195.984 251.511 196.448 251.479 196.896C251.479 197.312 251.319 197.648 250.999 197.904C250.679 198.16 250.295 198.288 249.847 198.288C249.399 198.288 248.999 198.192 248.647 198C248.327 197.84 248.007 197.568 247.687 197.184L240.295 187.872H241.687L234.295 197.184C234.007 197.536 233.687 197.808 233.335 198C233.015 198.192 232.615 198.288 232.135 198.288Z" fill="#1A1A1A"/>
<path d="M281.659 202C281.083 202 280.635 201.856 280.315 201.568C279.995 201.248 279.835 200.816 279.835 200.272C279.835 199.728 279.995 199.328 280.315 199.072C280.635 198.784 281.083 198.64 281.659 198.64H287.899V171.424H289.963L283.003 176.032C282.587 176.256 282.187 176.352 281.803 176.32C281.451 176.288 281.147 176.16 280.891 175.936C280.667 175.68 280.507 175.392 280.411 175.072C280.315 174.72 280.331 174.368 280.459 174.016C280.587 173.632 280.859 173.312 281.275 173.056L287.899 168.688C288.315 168.432 288.715 168.224 289.099 168.064C289.483 167.904 289.867 167.824 290.251 167.824C290.699 167.824 291.067 167.968 291.355 168.256C291.675 168.512 291.835 168.928 291.835 169.504V198.64H297.595C298.171 198.64 298.619 198.784 298.939 199.072C299.259 199.328 299.419 199.728 299.419 200.272C299.419 200.848 299.259 201.28 298.939 201.568C298.619 201.856 298.171 202 297.595 202H281.659ZM317.4 202.432C313.528 202.432 310.584 200.944 308.568 197.968C306.552 194.992 305.544 190.688 305.544 185.056C305.544 181.28 305.992 178.112 306.888 175.552C307.784 172.96 309.112 171.008 310.872 169.696C312.664 168.384 314.84 167.728 317.4 167.728C321.304 167.728 324.248 169.2 326.232 172.144C328.248 175.056 329.256 179.344 329.256 185.008C329.256 188.784 328.808 191.968 327.912 194.56C327.016 197.152 325.688 199.12 323.928 200.464C322.168 201.776 319.992 202.432 317.4 202.432ZM317.4 199.024C320.088 199.024 322.072 197.888 323.352 195.616C324.664 193.312 325.32 189.776 325.32 185.008C325.32 180.208 324.664 176.704 323.352 174.496C322.072 172.256 320.088 171.136 317.4 171.136C314.744 171.136 312.76 172.256 311.448 174.496C310.136 176.736 309.48 180.24 309.48 185.008C309.48 189.776 310.136 193.312 311.448 195.616C312.76 197.888 314.744 199.024 317.4 199.024Z" fill="#1A1A1A"/>
<rect x="332" y="119" width="41" height="48" rx="8" fill="#6595DE"/>
<path d="M125 95.5L125.5 95.5L125.5 95H125V95.5ZM125 141L127.887 136L122.113 136L125 141ZM62.5 96H63.4766V95H62.5V96ZM65.4297 96H67.3828V95H65.4297V96ZM69.3359 96H71.2891V95H69.3359V96ZM73.2422 96H75.1953V95H73.2422V96ZM77.1484 96H79.1016V95H77.1484V96ZM81.0547 96H83.0078V95H81.0547V96ZM84.9609 96L86.9141 96V95H84.9609V96ZM88.8672 96H90.8203V95L88.8672 95V96ZM92.7734 96H94.7266V95H92.7734V96ZM96.6797 96H98.6328L98.6328 95H96.6797L96.6797 96ZM100.586 96H102.539L102.539 95H100.586L100.586 96ZM104.492 96H106.445V95H104.492V96ZM108.398 96H110.352V95H108.398V96ZM112.305 96H114.258L114.258 95H112.305L112.305 96ZM116.211 96H118.164L118.164 95H116.211L116.211 96ZM120.117 96H122.07V95H120.117V96ZM124.023 96H125V95H124.023V96ZM124.5 95.5L124.5 96.5341L125.5 96.5341L125.5 95.5L124.5 95.5ZM124.5 98.6023L124.5 100.67L125.5 100.67L125.5 98.6023L124.5 98.6023ZM124.5 102.739L124.5 104.807L125.5 104.807L125.5 102.739L124.5 102.739ZM124.5 106.875L124.5 108.943L125.5 108.943L125.5 106.875L124.5 106.875ZM124.5 111.011L124.5 113.08L125.5 113.08L125.5 111.011L124.5 111.011ZM124.5 115.148L124.5 117.216L125.5 117.216L125.5 115.148L124.5 115.148ZM124.5 119.284L124.5 121.352L125.5 121.352L125.5 119.284L124.5 119.284ZM124.5 123.42L124.5 125.489L125.5 125.489L125.5 123.42L124.5 123.42ZM124.5 127.557L124.5 129.625L125.5 129.625L125.5 127.557L124.5 127.557ZM124.5 131.693L124.5 133.761L125.5 133.761L125.5 131.693L124.5 131.693ZM124.5 135.83L124.5 137.898L125.5 137.898L125.5 135.83L124.5 135.83Z" fill="black"/>
<path d="M353 96L352.5 96L352.5 95.5L353 95.5L353 96ZM353 116L350.113 111L355.887 111L353 116ZM408 96.5L407.018 96.5L407.018 95.5L408 95.5L408 96.5ZM405.054 96.5L403.089 96.5L403.089 95.5L405.054 95.5L405.054 96.5ZM401.125 96.5L399.161 96.5L399.161 95.5L401.125 95.5L401.125 96.5ZM397.196 96.5L395.232 96.5L395.232 95.5L397.196 95.5L397.196 96.5ZM393.268 96.5L391.304 96.5L391.304 95.5L393.268 95.5L393.268 96.5ZM389.339 96.5L387.375 96.5L387.375 95.5L389.339 95.5L389.339 96.5ZM385.411 96.5L383.446 96.5L383.446 95.5L385.411 95.5L385.411 96.5ZM381.482 96.5L379.518 96.5L379.518 95.5L381.482 95.5L381.482 96.5ZM377.554 96.5L375.589 96.5L375.589 95.5L377.554 95.5L377.554 96.5ZM373.625 96.5L371.661 96.5L371.661 95.5L373.625 95.5L373.625 96.5ZM369.696 96.5L367.732 96.5L367.732 95.5L369.696 95.5L369.696 96.5ZM365.768 96.5L363.804 96.5L363.804 95.5L365.768 95.5L365.768 96.5ZM361.839 96.5L359.875 96.5L359.875 95.5L361.839 95.5L361.839 96.5ZM357.911 96.5L355.946 96.5L355.946 95.5L357.911 95.5L357.911 96.5ZM353.982 96.5L353 96.5L353 95.5L353.982 95.5L353.982 96.5ZM353.5 96L353.5 97L352.5 97L352.5 96L353.5 96ZM353.5 99L353.5 101L352.5 101L352.5 99L353.5 99ZM353.5 103L353.5 105L352.5 105L352.5 103L353.5 103ZM353.5 107L353.5 109L352.5 109L352.5 107L353.5 107ZM353.5 111L353.5 113L352.5 113L352.5 111L353.5 111Z" fill="black"/>
</svg>
