<svg width="188" height="60" viewBox="0 0 188 60" fill="none" xmlns="http://www.w3.org/2000/svg">
<rect x="0.5" width="187" height="60" rx="10" fill="#1A1A1A"/>
<path d="M39.9724 24.3422C40.3045 24.0469 40.4355 23.5828 40.2624 23.1703C40.1548 22.9219 40.0379 22.6781 39.9069 22.4438L39.7619 22.1906C39.6215 21.9563 39.4671 21.7266 39.3034 21.5063C39.0368 21.15 38.569 21.0328 38.1479 21.1734L36.8287 21.6094C36.3282 21.1969 35.7528 20.8594 35.1353 20.6297L34.8499 19.2703C34.761 18.8344 34.4242 18.4875 33.9845 18.4359C33.6757 18.3938 33.3623 18.375 33.0442 18.375H33.0115C32.6934 18.375 32.3799 18.3937 32.0712 18.4312C31.6314 18.4828 31.2946 18.8344 31.2057 19.2656L30.9204 20.6297C30.2982 20.8641 29.7275 21.1969 29.2269 21.6094L27.903 21.1781C27.482 21.0375 27.0142 21.1547 26.7476 21.5109C26.5838 21.7313 26.4295 21.9609 26.2844 22.1953L26.1441 22.4438C26.0131 22.6781 25.8962 22.9219 25.7886 23.175C25.6155 23.5828 25.7465 24.0469 26.0786 24.3469L27.1171 25.275C27.0657 25.5891 27.0376 25.9172 27.0376 26.25C27.0376 26.5828 27.0657 26.9109 27.1171 27.2297L26.0786 28.1578C25.7465 28.4531 25.6155 28.9172 25.7886 29.3297C25.8962 29.5781 26.0131 29.8219 26.1441 30.0609L26.2844 30.3047C26.4248 30.5437 26.5792 30.7688 26.7476 30.9891C27.0142 31.3453 27.482 31.4625 27.903 31.3219L29.2223 30.8859C29.7228 31.2984 30.2982 31.6359 30.9157 31.8656L31.2011 33.2297C31.2899 33.6656 31.6268 34.0125 32.0665 34.0641C32.3799 34.1016 32.698 34.1203 33.0208 34.1203C33.3436 34.1203 33.6617 34.1016 33.9751 34.0641C34.4149 34.0125 34.7517 33.6609 34.8406 33.2297L35.1259 31.8656C35.7481 31.6313 36.3188 31.2984 36.8194 30.8859L38.1386 31.3219C38.5596 31.4625 39.0274 31.3453 39.2941 30.9891C39.4578 30.7688 39.6122 30.5437 39.7525 30.3047L39.8975 30.0516C40.0285 29.8172 40.1455 29.5734 40.253 29.325C40.4261 28.9172 40.2951 28.4531 39.963 28.1531L38.9245 27.225C38.9759 26.9062 39.004 26.5781 39.004 26.2453C39.004 25.9125 38.9759 25.5844 38.9245 25.2656L39.963 24.3375L39.9724 24.3422ZM30.78 26.25C30.78 25.6533 31.0166 25.081 31.4377 24.659C31.8588 24.2371 32.43 24 33.0255 24C33.621 24 34.1922 24.2371 34.6133 24.659C35.0344 25.081 35.2709 25.6533 35.2709 26.25C35.2709 26.8467 35.0344 27.419 34.6133 27.841C34.1922 28.2629 33.621 28.5 33.0255 28.5C32.43 28.5 31.8588 28.2629 31.4377 27.841C31.0166 27.419 30.78 26.8467 30.78 26.25Z" fill="white"/>
<path d="M47.0794 34.3054C47.3326 34.0803 47.4325 33.7266 47.3005 33.4122C47.2185 33.2229 47.1293 33.0371 47.0294 32.8585L46.9189 32.6656C46.8119 32.487 46.6942 32.3119 46.5693 32.144C46.3661 31.8725 46.0094 31.7832 45.6884 31.8903L44.6826 32.2226C44.301 31.9082 43.8623 31.651 43.3915 31.4759L43.174 30.4399C43.1062 30.1077 42.8494 29.8433 42.5142 29.804C42.2788 29.7719 42.0398 29.7576 41.7973 29.7576H41.7723C41.5298 29.7576 41.2908 29.7719 41.0554 29.8004C40.7202 29.8397 40.4634 30.1077 40.3956 30.4363L40.1781 31.4759C39.7037 31.6546 39.2686 31.9082 38.887 32.2226L37.8776 31.8939C37.5567 31.7867 37.2 31.8761 36.9967 32.1476C36.8719 32.3155 36.7542 32.4905 36.6436 32.6691L36.5366 32.8585C36.4368 33.0371 36.3476 33.2229 36.2656 33.4158C36.1336 33.7266 36.2335 34.0803 36.4867 34.3089L37.2785 35.0163C37.2392 35.2556 37.2178 35.5057 37.2178 35.7594C37.2178 36.013 37.2392 36.2631 37.2785 36.506L36.4867 37.2134C36.2335 37.4384 36.1336 37.7921 36.2656 38.1065C36.3476 38.2958 36.4368 38.4816 36.5366 38.6638L36.6436 38.8496C36.7506 39.0318 36.8683 39.2032 36.9967 39.3711C37.2 39.6427 37.5567 39.732 37.8776 39.6248L38.8834 39.2925C39.265 39.6069 39.7037 39.8641 40.1745 40.0392L40.3921 41.0788C40.4598 41.411 40.7166 41.6754 41.0519 41.7147C41.2908 41.7433 41.5334 41.7576 41.7795 41.7576C42.0256 41.7576 42.2681 41.7433 42.507 41.7147C42.8423 41.6754 43.0991 41.4075 43.1668 41.0788L43.3844 40.0392C43.8588 39.8606 44.2939 39.6069 44.6755 39.2925L45.6813 39.6248C46.0023 39.732 46.3589 39.6427 46.5622 39.3711C46.687 39.2032 46.8047 39.0318 46.9117 38.8496L47.0223 38.6566C47.1222 38.478 47.2113 38.2923 47.2934 38.1029C47.4253 37.7921 47.3255 37.4384 47.0722 37.2098L46.2805 36.5024C46.3197 36.2595 46.3411 36.0094 46.3411 35.7558C46.3411 35.5021 46.3197 35.2521 46.2805 35.0091L47.0722 34.3018L47.0794 34.3054ZM40.0711 35.7594C40.0711 35.3046 40.2514 34.8684 40.5725 34.5468C40.8935 34.2252 41.329 34.0446 41.783 34.0446C42.2371 34.0446 42.6725 34.2252 42.9936 34.5468C43.3146 34.8684 43.495 35.3046 43.495 35.7594C43.495 36.2141 43.3146 36.6503 42.9936 36.9719C42.6725 37.2935 42.2371 37.4742 41.783 37.4742C41.329 37.4742 40.8935 37.2935 40.5725 36.9719C40.2514 36.6503 40.0711 36.2141 40.0711 35.7594Z" fill="white"/>
<g clip-path="url(#clip0_1290_1118)">
<path d="M70.8668 38.24C68.9948 38.24 67.4108 37.888 66.1148 37.184C64.8348 36.48 63.8588 35.48 63.1868 34.184C62.5148 32.888 62.1788 31.352 62.1788 29.576C62.1788 28.232 62.3708 27.024 62.7548 25.952C63.1548 24.88 63.7228 23.968 64.4588 23.216C65.2108 22.448 66.1228 21.864 67.1948 21.464C68.2668 21.048 69.4828 20.84 70.8428 20.84C71.7388 20.84 72.6348 20.952 73.5308 21.176C74.4428 21.384 75.2988 21.744 76.0988 22.256C76.3708 22.432 76.5468 22.648 76.6268 22.904C76.7228 23.16 76.7388 23.424 76.6748 23.696C76.6108 23.952 76.4908 24.176 76.3148 24.368C76.1388 24.56 75.9148 24.68 75.6428 24.728C75.3868 24.776 75.0988 24.712 74.7788 24.536C74.1708 24.184 73.5548 23.928 72.9308 23.768C72.3068 23.608 71.6108 23.528 70.8428 23.528C69.6588 23.528 68.6588 23.768 67.8428 24.248C67.0268 24.712 66.4108 25.392 65.9948 26.288C65.5948 27.184 65.3948 28.28 65.3948 29.576C65.3948 31.544 65.8668 33.04 66.8108 34.064C67.7548 35.088 69.1548 35.6 71.0108 35.6C71.6508 35.6 72.2988 35.536 72.9548 35.408C73.6108 35.28 74.2508 35.104 74.8748 34.88L74.2748 36.248V31.136H71.6348C71.2348 31.136 70.9228 31.032 70.6988 30.824C70.4908 30.616 70.3868 30.336 70.3868 29.984C70.3868 29.616 70.4908 29.336 70.6988 29.144C70.9228 28.952 71.2348 28.856 71.6348 28.856H75.5948C75.9948 28.856 76.2988 28.968 76.5068 29.192C76.7308 29.4 76.8428 29.704 76.8428 30.104V35.936C76.8428 36.288 76.7708 36.584 76.6268 36.824C76.4988 37.064 76.2828 37.24 75.9788 37.352C75.2748 37.608 74.4668 37.824 73.5548 38C72.6428 38.16 71.7468 38.24 70.8668 38.24ZM85.8987 38.24C84.5707 38.24 83.4267 37.992 82.4667 37.496C81.5067 37 80.7627 36.296 80.2347 35.384C79.7227 34.472 79.4667 33.392 79.4667 32.144C79.4667 30.928 79.7147 29.864 80.2107 28.952C80.7227 28.04 81.4187 27.328 82.2987 26.816C83.1947 26.288 84.2107 26.024 85.3467 26.024C86.1787 26.024 86.9227 26.16 87.5787 26.432C88.2507 26.704 88.8187 27.096 89.2827 27.608C89.7627 28.12 90.1227 28.744 90.3627 29.48C90.6187 30.2 90.7467 31.016 90.7467 31.928C90.7467 32.216 90.6427 32.44 90.4347 32.6C90.2427 32.744 89.9627 32.816 89.5947 32.816H81.8907V31.088H88.6347L88.2507 31.448C88.2507 30.712 88.1387 30.096 87.9147 29.6C87.7067 29.104 87.3947 28.728 86.9787 28.472C86.5787 28.2 86.0747 28.064 85.4667 28.064C84.7947 28.064 84.2187 28.224 83.7387 28.544C83.2747 28.848 82.9147 29.288 82.6587 29.864C82.4187 30.424 82.2987 31.096 82.2987 31.88V32.048C82.2987 33.36 82.6027 34.344 83.2107 35C83.8347 35.64 84.7467 35.96 85.9467 35.96C86.3627 35.96 86.8267 35.912 87.3387 35.816C87.8667 35.704 88.3627 35.52 88.8267 35.264C89.1627 35.072 89.4587 34.992 89.7147 35.024C89.9707 35.04 90.1707 35.128 90.3147 35.288C90.4747 35.448 90.5707 35.648 90.6027 35.888C90.6347 36.112 90.5867 36.344 90.4587 36.584C90.3467 36.824 90.1467 37.032 89.8587 37.208C89.2987 37.56 88.6507 37.824 87.9147 38C87.1947 38.16 86.5227 38.24 85.8987 38.24ZM94.6105 38.192C94.1305 38.192 93.7625 38.064 93.5065 37.808C93.2505 37.536 93.1225 37.152 93.1225 36.656V27.584C93.1225 27.088 93.2505 26.712 93.5065 26.456C93.7625 26.2 94.1225 26.072 94.5865 26.072C95.0505 26.072 95.4105 26.2 95.6665 26.456C95.9225 26.712 96.0505 27.088 96.0505 27.584V29.216L95.7865 28.616C96.1385 27.768 96.6825 27.128 97.4185 26.696C98.1705 26.248 99.0185 26.024 99.9625 26.024C100.907 26.024 101.683 26.2 102.291 26.552C102.899 26.904 103.355 27.44 103.659 28.16C103.963 28.864 104.115 29.76 104.115 30.848V36.656C104.115 37.152 103.987 37.536 103.731 37.808C103.475 38.064 103.107 38.192 102.627 38.192C102.147 38.192 101.771 38.064 101.499 37.808C101.243 37.536 101.115 37.152 101.115 36.656V30.992C101.115 30.08 100.939 29.416 100.587 29C100.251 28.584 99.7225 28.376 99.0025 28.376C98.1225 28.376 97.4185 28.656 96.8905 29.216C96.3785 29.76 96.1225 30.488 96.1225 31.4V36.656C96.1225 37.68 95.6185 38.192 94.6105 38.192ZM112.946 38.24C111.618 38.24 110.474 37.992 109.514 37.496C108.554 37 107.81 36.296 107.282 35.384C106.77 34.472 106.514 33.392 106.514 32.144C106.514 30.928 106.762 29.864 107.258 28.952C107.77 28.04 108.466 27.328 109.346 26.816C110.242 26.288 111.258 26.024 112.394 26.024C113.226 26.024 113.97 26.16 114.626 26.432C115.298 26.704 115.866 27.096 116.33 27.608C116.81 28.12 117.17 28.744 117.41 29.48C117.666 30.2 117.794 31.016 117.794 31.928C117.794 32.216 117.69 32.44 117.482 32.6C117.29 32.744 117.01 32.816 116.642 32.816H108.938V31.088H115.682L115.298 31.448C115.298 30.712 115.186 30.096 114.962 29.6C114.754 29.104 114.442 28.728 114.026 28.472C113.626 28.2 113.122 28.064 112.514 28.064C111.842 28.064 111.266 28.224 110.786 28.544C110.322 28.848 109.962 29.288 109.706 29.864C109.466 30.424 109.346 31.096 109.346 31.88V32.048C109.346 33.36 109.65 34.344 110.258 35C110.882 35.64 111.794 35.96 112.994 35.96C113.41 35.96 113.874 35.912 114.386 35.816C114.914 35.704 115.41 35.52 115.874 35.264C116.21 35.072 116.506 34.992 116.762 35.024C117.018 35.04 117.218 35.128 117.362 35.288C117.522 35.448 117.618 35.648 117.65 35.888C117.682 36.112 117.634 36.344 117.506 36.584C117.394 36.824 117.194 37.032 116.906 37.208C116.346 37.56 115.698 37.824 114.962 38C114.242 38.16 113.57 38.24 112.946 38.24ZM121.705 38.192C121.209 38.192 120.825 38.064 120.553 37.808C120.297 37.536 120.169 37.152 120.169 36.656V27.584C120.169 27.088 120.297 26.712 120.553 26.456C120.809 26.2 121.169 26.072 121.633 26.072C122.097 26.072 122.457 26.2 122.713 26.456C122.969 26.712 123.097 27.088 123.097 27.584V29.096H122.857C123.081 28.136 123.521 27.408 124.177 26.912C124.833 26.416 125.705 26.12 126.793 26.024C127.129 25.992 127.393 26.08 127.585 26.288C127.793 26.48 127.913 26.784 127.945 27.2C127.977 27.6 127.881 27.928 127.657 28.184C127.449 28.424 127.129 28.568 126.697 28.616L126.169 28.664C125.193 28.76 124.457 29.064 123.961 29.576C123.465 30.072 123.217 30.776 123.217 31.688V36.656C123.217 37.152 123.089 37.536 122.833 37.808C122.577 38.064 122.201 38.192 121.705 38.192ZM133.315 38.24C132.467 38.24 131.707 38.08 131.035 37.76C130.379 37.424 129.859 36.976 129.475 36.416C129.107 35.856 128.923 35.224 128.923 34.52C128.923 33.656 129.147 32.976 129.595 32.48C130.043 31.968 130.771 31.6 131.779 31.376C132.787 31.152 134.139 31.04 135.835 31.04H137.035V32.768H135.859C134.867 32.768 134.075 32.816 133.483 32.912C132.891 33.008 132.467 33.176 132.211 33.416C131.971 33.64 131.851 33.96 131.851 34.376C131.851 34.904 132.035 35.336 132.403 35.672C132.771 36.008 133.283 36.176 133.939 36.176C134.467 36.176 134.931 36.056 135.331 35.816C135.747 35.56 136.075 35.216 136.315 34.784C136.555 34.352 136.675 33.856 136.675 33.296V30.536C136.675 29.736 136.499 29.16 136.147 28.808C135.795 28.456 135.203 28.28 134.371 28.28C133.907 28.28 133.403 28.336 132.859 28.448C132.331 28.56 131.771 28.752 131.179 29.024C130.875 29.168 130.603 29.208 130.363 29.144C130.139 29.08 129.963 28.952 129.835 28.76C129.707 28.552 129.643 28.328 129.643 28.088C129.643 27.848 129.707 27.616 129.835 27.392C129.963 27.152 130.179 26.976 130.483 26.864C131.219 26.56 131.923 26.344 132.595 26.216C133.283 26.088 133.907 26.024 134.467 26.024C135.619 26.024 136.563 26.2 137.299 26.552C138.051 26.904 138.611 27.44 138.979 28.16C139.347 28.864 139.531 29.776 139.531 30.896V36.656C139.531 37.152 139.411 37.536 139.171 37.808C138.931 38.064 138.587 38.192 138.139 38.192C137.691 38.192 137.339 38.064 137.083 37.808C136.843 37.536 136.723 37.152 136.723 36.656V35.504H136.915C136.803 36.064 136.579 36.552 136.243 36.968C135.923 37.368 135.515 37.68 135.019 37.904C134.523 38.128 133.955 38.24 133.315 38.24ZM147.952 38.24C146.912 38.24 146.04 38.064 145.336 37.712C144.648 37.36 144.136 36.848 143.8 36.176C143.464 35.488 143.296 34.64 143.296 33.632V28.52H142.048C141.664 28.52 141.368 28.424 141.16 28.232C140.952 28.024 140.848 27.744 140.848 27.392C140.848 27.024 140.952 26.744 141.16 26.552C141.368 26.36 141.664 26.264 142.048 26.264H143.296V24.08C143.296 23.584 143.424 23.208 143.68 22.952C143.952 22.696 144.328 22.568 144.808 22.568C145.288 22.568 145.656 22.696 145.912 22.952C146.168 23.208 146.296 23.584 146.296 24.08V26.264H148.84C149.224 26.264 149.52 26.36 149.728 26.552C149.936 26.744 150.04 27.024 150.04 27.392C150.04 27.744 149.936 28.024 149.728 28.232C149.52 28.424 149.224 28.52 148.84 28.52H146.296V33.464C146.296 34.232 146.464 34.808 146.8 35.192C147.136 35.576 147.68 35.768 148.432 35.768C148.704 35.768 148.944 35.744 149.152 35.696C149.36 35.648 149.544 35.616 149.704 35.6C149.896 35.584 150.056 35.648 150.184 35.792C150.312 35.92 150.376 36.192 150.376 36.608C150.376 36.928 150.32 37.216 150.208 37.472C150.112 37.712 149.928 37.88 149.656 37.976C149.448 38.04 149.176 38.096 148.84 38.144C148.504 38.208 148.208 38.24 147.952 38.24ZM157.453 38.24C156.125 38.24 154.981 37.992 154.021 37.496C153.061 37 152.317 36.296 151.789 35.384C151.277 34.472 151.021 33.392 151.021 32.144C151.021 30.928 151.269 29.864 151.765 28.952C152.277 28.04 152.973 27.328 153.853 26.816C154.749 26.288 155.765 26.024 156.901 26.024C157.733 26.024 158.477 26.16 159.133 26.432C159.805 26.704 160.373 27.096 160.837 27.608C161.317 28.12 161.677 28.744 161.917 29.48C162.173 30.2 162.301 31.016 162.301 31.928C162.301 32.216 162.197 32.44 161.989 32.6C161.797 32.744 161.517 32.816 161.149 32.816H153.445V31.088H160.189L159.805 31.448C159.805 30.712 159.693 30.096 159.469 29.6C159.261 29.104 158.949 28.728 158.533 28.472C158.133 28.2 157.629 28.064 157.021 28.064C156.349 28.064 155.773 28.224 155.293 28.544C154.829 28.848 154.469 29.288 154.213 29.864C153.973 30.424 153.853 31.096 153.853 31.88V32.048C153.853 33.36 154.157 34.344 154.765 35C155.389 35.64 156.301 35.96 157.501 35.96C157.917 35.96 158.381 35.912 158.893 35.816C159.421 35.704 159.917 35.52 160.381 35.264C160.717 35.072 161.013 34.992 161.269 35.024C161.525 35.04 161.725 35.128 161.869 35.288C162.029 35.448 162.125 35.648 162.157 35.888C162.189 36.112 162.141 36.344 162.013 36.584C161.901 36.824 161.701 37.032 161.413 37.208C160.853 37.56 160.205 37.824 159.469 38C158.749 38.16 158.077 38.24 157.453 38.24Z" fill="white"/>
</g>
<defs>
<clipPath id="clip0_1290_1118">
<rect width="103" height="28" fill="white" transform="translate(60.5 16)"/>
</clipPath>
</defs>
</svg>
