<svg width="116" height="60" viewBox="0 0 116 60" fill="none" xmlns="http://www.w3.org/2000/svg">
<g opacity="0.2">
<rect width="116" height="60" rx="10" fill="#1A1A1A"/>
<g clip-path="url(#clip0_3856_563)">
<path d="M33.9466 38.24C32.1866 38.24 30.6746 37.888 29.4106 37.184C28.1626 36.464 27.2026 35.456 26.5306 34.16C25.8586 32.848 25.5226 31.304 25.5226 29.528C25.5226 28.2 25.7146 27.008 26.0986 25.952C26.4826 24.88 27.0346 23.968 27.7546 23.216C28.4746 22.448 29.3546 21.864 30.3946 21.464C31.4506 21.048 32.6346 20.84 33.9466 20.84C34.8266 20.84 35.6906 20.952 36.5386 21.176C37.3866 21.4 38.1306 21.72 38.7706 22.136C39.1066 22.344 39.3306 22.6 39.4426 22.904C39.5546 23.192 39.5786 23.48 39.5146 23.768C39.4506 24.04 39.3146 24.272 39.1066 24.464C38.9146 24.656 38.6666 24.768 38.3626 24.8C38.0746 24.816 37.7546 24.712 37.4026 24.488C36.9066 24.168 36.3706 23.936 35.7946 23.792C35.2186 23.648 34.6346 23.576 34.0426 23.576C32.9066 23.576 31.9466 23.808 31.1626 24.272C30.3786 24.736 29.7866 25.408 29.3866 26.288C28.9866 27.168 28.7866 28.248 28.7866 29.528C28.7866 30.792 28.9866 31.872 29.3866 32.768C29.7866 33.664 30.3786 34.344 31.1626 34.808C31.9466 35.272 32.9066 35.504 34.0426 35.504C34.6506 35.504 35.2506 35.432 35.8426 35.288C36.4346 35.128 36.9946 34.888 37.5226 34.568C37.8746 34.36 38.1866 34.272 38.4586 34.304C38.7466 34.32 38.9866 34.416 39.1786 34.592C39.3706 34.768 39.4986 34.992 39.5626 35.264C39.6266 35.52 39.6106 35.792 39.5146 36.08C39.4186 36.352 39.2266 36.592 38.9386 36.8C38.2986 37.264 37.5306 37.624 36.6346 37.88C35.7546 38.12 34.8586 38.24 33.9466 38.24ZM43.5871 38.192C43.1071 38.192 42.7391 38.064 42.4831 37.808C42.2271 37.536 42.0991 37.152 42.0991 36.656V22.4C42.0991 21.904 42.2271 21.528 42.4831 21.272C42.7391 21.016 43.1071 20.888 43.5871 20.888C44.0671 20.888 44.4351 21.016 44.6911 21.272C44.9631 21.528 45.0991 21.904 45.0991 22.4V28.616H44.7631C45.1151 27.768 45.6591 27.128 46.3951 26.696C47.1471 26.248 47.9951 26.024 48.9391 26.024C49.8831 26.024 50.6591 26.2 51.2671 26.552C51.8751 26.904 52.3311 27.44 52.6351 28.16C52.9391 28.864 53.0911 29.76 53.0911 30.848V36.656C53.0911 37.152 52.9631 37.536 52.7071 37.808C52.4511 38.064 52.0831 38.192 51.6031 38.192C51.1231 38.192 50.7471 38.064 50.4751 37.808C50.2191 37.536 50.0911 37.152 50.0911 36.656V30.992C50.0911 30.08 49.9151 29.416 49.5631 29C49.2271 28.584 48.6991 28.376 47.9791 28.376C47.0991 28.376 46.3951 28.656 45.8671 29.216C45.3551 29.76 45.0991 30.488 45.0991 31.4V36.656C45.0991 37.68 44.5951 38.192 43.5871 38.192ZM61.9221 38.24C60.5941 38.24 59.4501 37.992 58.4901 37.496C57.5301 37 56.7861 36.296 56.2581 35.384C55.7461 34.472 55.4901 33.392 55.4901 32.144C55.4901 30.928 55.7381 29.864 56.2341 28.952C56.7461 28.04 57.4421 27.328 58.3221 26.816C59.2181 26.288 60.2341 26.024 61.3701 26.024C62.2021 26.024 62.9461 26.16 63.6021 26.432C64.2741 26.704 64.8421 27.096 65.3061 27.608C65.7861 28.12 66.1461 28.744 66.3861 29.48C66.6421 30.2 66.7701 31.016 66.7701 31.928C66.7701 32.216 66.6661 32.44 66.4581 32.6C66.2661 32.744 65.9861 32.816 65.6181 32.816H57.9141V31.088H64.6581L64.2741 31.448C64.2741 30.712 64.1621 30.096 63.9381 29.6C63.7301 29.104 63.4181 28.728 63.0021 28.472C62.6021 28.2 62.0981 28.064 61.4901 28.064C60.8181 28.064 60.2421 28.224 59.7621 28.544C59.2981 28.848 58.9381 29.288 58.6821 29.864C58.4421 30.424 58.3221 31.096 58.3221 31.88V32.048C58.3221 33.36 58.6261 34.344 59.2341 35C59.8581 35.64 60.7701 35.96 61.9701 35.96C62.3861 35.96 62.8501 35.912 63.3621 35.816C63.8901 35.704 64.3861 35.52 64.8501 35.264C65.1861 35.072 65.4821 34.992 65.7381 35.024C65.9941 35.04 66.1941 35.128 66.3381 35.288C66.4981 35.448 66.5941 35.648 66.6261 35.888C66.6581 36.112 66.6101 36.344 66.4821 36.584C66.3701 36.824 66.1701 37.032 65.8821 37.208C65.3221 37.56 64.6741 37.824 63.9381 38C63.2181 38.16 62.5461 38.24 61.9221 38.24ZM74.5699 38.24C73.3379 38.24 72.2659 37.992 71.3539 37.496C70.4419 36.984 69.7379 36.264 69.2419 35.336C68.7459 34.408 68.4979 33.32 68.4979 32.072C68.4979 31.128 68.6339 30.288 68.9059 29.552C69.1939 28.8 69.6019 28.168 70.1299 27.656C70.6579 27.128 71.2979 26.728 72.0499 26.456C72.8019 26.168 73.6419 26.024 74.5699 26.024C75.0979 26.024 75.6659 26.096 76.2739 26.24C76.8979 26.384 77.4819 26.624 78.0259 26.96C78.2819 27.12 78.4499 27.312 78.5299 27.536C78.6099 27.76 78.6259 27.992 78.5779 28.232C78.5299 28.456 78.4259 28.656 78.2659 28.832C78.1219 28.992 77.9379 29.096 77.7139 29.144C77.4899 29.176 77.2419 29.12 76.9699 28.976C76.6179 28.768 76.2579 28.616 75.8899 28.52C75.5219 28.408 75.1699 28.352 74.8339 28.352C74.3059 28.352 73.8419 28.44 73.4419 28.616C73.0419 28.776 72.6979 29.016 72.4099 29.336C72.1379 29.64 71.9299 30.024 71.7859 30.488C71.6419 30.952 71.5699 31.488 71.5699 32.096C71.5699 33.28 71.8499 34.216 72.4099 34.904C72.9859 35.576 73.7939 35.912 74.8339 35.912C75.1699 35.912 75.5139 35.864 75.8659 35.768C76.2339 35.672 76.6019 35.52 76.9699 35.312C77.2419 35.168 77.4819 35.12 77.6899 35.168C77.9139 35.216 78.0979 35.328 78.2419 35.504C78.3859 35.664 78.4739 35.864 78.5059 36.104C78.5379 36.328 78.5059 36.552 78.4099 36.776C78.3299 37 78.1699 37.184 77.9299 37.328C77.4019 37.648 76.8419 37.88 76.2499 38.024C75.6579 38.168 75.0979 38.24 74.5699 38.24ZM81.9543 38.192C81.4743 38.192 81.1063 38.064 80.8503 37.808C80.5943 37.536 80.4663 37.152 80.4663 36.656V22.4C80.4663 21.904 80.5943 21.528 80.8503 21.272C81.1063 21.016 81.4743 20.888 81.9543 20.888C82.4343 20.888 82.8023 21.016 83.0583 21.272C83.3303 21.528 83.4663 21.904 83.4663 22.4V31.256H83.5143L87.4743 27.08C87.7943 26.76 88.0743 26.512 88.3143 26.336C88.5543 26.16 88.8823 26.072 89.2983 26.072C89.7143 26.072 90.0263 26.184 90.2343 26.408C90.4583 26.616 90.5703 26.872 90.5703 27.176C90.5703 27.48 90.4263 27.784 90.1383 28.088L85.9622 32.504V31.256L90.5463 36.2C90.8343 36.504 90.9623 36.816 90.9303 37.136C90.9143 37.44 90.7863 37.696 90.5463 37.904C90.3063 38.096 90.0023 38.192 89.6343 38.192C89.1863 38.192 88.8263 38.104 88.5543 37.928C88.2983 37.752 88.0103 37.488 87.6903 37.136L83.5143 32.768H83.4663V36.656C83.4663 37.68 82.9623 38.192 81.9543 38.192Z" fill="white"/>
</g>
</g>
<defs>
<clipPath id="clip0_3856_563">
<rect width="68" height="28" fill="white" transform="translate(24 16)"/>
</clipPath>
</defs>
</svg>
