<svg width="51" height="63" viewBox="0 0 51 63" fill="none" xmlns="http://www.w3.org/2000/svg">
<path d="M32.5 1H18.5C17.3954 1 16.5 1.89543 16.5 3V14C16.5 15.1046 15.6046 16 14.5 16H3.5C2.39543 16 1.5 16.8954 1.5 18V32C1.5 33.1046 2.39543 34 3.5 34H14.5C15.6046 34 16.5 34.8954 16.5 36V60C16.5 61.1046 17.3954 62 18.5 62H32.5C33.6046 62 34.5 61.1046 34.5 60V36C34.5 34.8954 35.3954 34 36.5 34H47.5C48.6046 34 49.5 33.1046 49.5 32V18C49.5 16.8954 48.6046 16 47.5 16H36.5C35.3954 16 34.5 15.1046 34.5 14V3C34.5 1.89543 33.6046 1 32.5 1Z" fill="#E8F0FE" stroke="#6595DE" stroke-width="2"/>
</svg>
