<svg width="25" height="25" viewBox="0 0 25 25" fill="none" xmlns="http://www.w3.org/2000/svg">
<path d="M24.7144 4.18134L20.8196 0.286549C20.7292 0.196018 20.6218 0.124199 20.5036 0.0751984C20.3854 0.0261977 20.2587 0.000976562 20.1307 0.000976562C20.0028 0.000976562 19.8761 0.0261977 19.7578 0.0751984C19.6396 0.124199 19.5323 0.196018 19.4418 0.286549L7.75744 11.9709C7.66704 12.0614 7.59537 12.1688 7.5465 12.287C7.49763 12.4052 7.47253 12.5319 7.47263 12.6598V16.5546C7.47263 16.8129 7.57522 17.0605 7.75782 17.2431C7.94042 17.4257 8.18809 17.5283 8.44633 17.5283H12.3411C12.469 17.5284 12.5957 17.5033 12.7139 17.4545C12.8321 17.4056 12.9395 17.3339 13.03 17.2435L24.7144 5.55913C24.8049 5.4687 24.8768 5.36131 24.9258 5.2431C24.9748 5.1249 25 4.9982 25 4.87024C25 4.74228 24.9748 4.61557 24.9258 4.49737C24.8768 4.37916 24.8049 4.27177 24.7144 4.18134ZM11.9383 15.5809H9.42003V13.0627L17.2096 5.2731L19.7278 7.79133L11.9383 15.5809ZM21.1044 6.41477L18.5862 3.89654L20.1307 2.35201L22.6489 4.87024L21.1044 6.41477ZM24.0255 11.6861V22.3968C24.0255 22.9133 23.8203 23.4086 23.4551 23.7738C23.0899 24.139 22.5946 24.3442 22.0781 24.3442H2.60414C2.08765 24.3442 1.59233 24.139 1.22712 23.7738C0.86191 23.4086 0.656738 22.9133 0.656738 22.3968V2.92284C0.656738 2.40636 0.86191 1.91103 1.22712 1.54582C1.59233 1.18061 2.08765 0.975441 2.60414 0.975441H13.3148C13.5731 0.975441 13.8207 1.07803 14.0033 1.26063C14.1859 1.44324 14.2885 1.6909 14.2885 1.94914C14.2885 2.20738 14.1859 2.45504 14.0033 2.63765C13.8207 2.82025 13.5731 2.92284 13.3148 2.92284H2.60414V22.3968H22.0781V11.6861C22.0781 11.4279 22.1807 11.1802 22.3633 10.9976C22.5459 10.815 22.7936 10.7124 23.0518 10.7124C23.3101 10.7124 23.5577 10.815 23.7403 10.9976C23.9229 11.1802 24.0255 11.4279 24.0255 11.6861Z" fill="white"/>
</svg>
