<svg width="25" height="24" viewBox="0 0 25 24" fill="none" xmlns="http://www.w3.org/2000/svg">
<path d="M17.5 16.88C18.06 16.88 18.5 17.32 18.5 17.88C18.5 18.44 18.06 18.88 17.5 18.88C16.94 18.88 16.5 18.43 16.5 17.88C16.5 17.33 16.94 16.88 17.5 16.88ZM17.5 13.88C20.23 13.88 22.56 15.54 23.5 17.88C22.56 20.22 20.23 21.88 17.5 21.88C14.77 21.88 12.44 20.22 11.5 17.88C12.44 15.54 14.77 13.88 17.5 13.88ZM17.5 15.38C16.837 15.38 16.2011 15.6434 15.7322 16.1122C15.2634 16.5811 15 17.217 15 17.88C15 18.543 15.2634 19.1789 15.7322 19.6478C16.2011 20.1166 16.837 20.38 17.5 20.38C18.163 20.38 18.7989 20.1166 19.2678 19.6478C19.7366 19.1789 20 18.543 20 17.88C20 17.217 19.7366 16.5811 19.2678 16.1122C18.7989 15.6434 18.163 15.38 17.5 15.38ZM18.5 3H4.5C3.4 3 2.5 3.9 2.5 5V17C2.5 18.1 3.4 19 4.5 19H9.92C9.76 18.68 9.62 18.34 9.5 18C9.62 17.66 9.76 17.32 9.92 17H4.5V13H10.5V15.97C11.05 15.11 11.73 14.37 12.5 13.76V13H13.65C14.81 12.36 16.12 12 17.5 12C18.56 12 19.57 12.21 20.5 12.59V5C20.5 3.9 19.6 3 18.5 3ZM10.5 11H4.5V7H10.5V11ZM18.5 11H12.5V7H18.5V11Z" fill="#1A1A1A"/>
</svg>
