<svg width="40" height="16" viewBox="0 0 40 16" fill="none" xmlns="http://www.w3.org/2000/svg">
<path d="M20.124 15.2C19.4173 15.2 18.6973 15.1067 17.964 14.92C17.2306 14.7333 16.5573 14.4467 15.944 14.06C15.6906 13.9 15.5173 13.7133 15.424 13.5C15.344 13.2733 15.324 13.0533 15.364 12.84C15.4173 12.6133 15.5173 12.4267 15.664 12.28C15.824 12.12 16.0106 12.0267 16.224 12C16.4506 11.9733 16.6973 12.0333 16.964 12.18C17.4573 12.46 17.9573 12.6733 18.464 12.82C18.9706 12.9667 19.5106 13.04 20.084 13.04C20.644 13.04 21.124 12.94 21.524 12.74C21.924 12.54 22.2306 12.26 22.444 11.9C22.6573 11.54 22.764 11.12 22.764 10.64C22.764 9.89333 22.5373 9.29333 22.084 8.84C21.6306 8.37333 21.0106 8.14 20.224 8.14C19.7973 8.14 19.384 8.21333 18.984 8.36C18.584 8.49333 18.1906 8.73333 17.804 9.08C17.684 9.18667 17.5306 9.29333 17.344 9.4C17.1573 9.49333 16.9573 9.54 16.744 9.54C16.4106 9.54 16.1573 9.45333 15.984 9.28C15.8106 9.10667 15.724 8.86667 15.724 8.56L15.724 2.02C15.724 1.66 15.8173 1.38667 16.004 1.2C16.204 0.999999 16.484 0.899999 16.844 0.899999L23.424 0.899999C23.784 0.899999 24.0573 0.993332 24.244 1.18C24.444 1.35333 24.544 1.61333 24.544 1.96C24.544 2.29333 24.444 2.55333 24.244 2.74C24.0573 2.92667 23.784 3.02 23.424 3.02L18.224 3.02L18.224 7.5L17.564 7.5C17.9106 7.03333 18.3706 6.67333 18.944 6.42C19.5173 6.16667 20.144 6.04 20.824 6.04C21.7173 6.04 22.4906 6.23333 23.144 6.62C23.8106 6.99333 24.324 7.52 24.684 8.2C25.0573 8.86667 25.244 9.64667 25.244 10.54C25.244 11.46 25.0373 12.2733 24.624 12.98C24.2106 13.6733 23.6173 14.22 22.844 14.62C22.084 15.0067 21.1773 15.2 20.124 15.2Z" fill="#212121"/>
</svg>
