<svg width="40" height="15" viewBox="0 0 40 15" fill="none" xmlns="http://www.w3.org/2000/svg">
<path d="M17.1239 15C16.7772 15 16.5039 14.9067 16.3039 14.72C16.1172 14.52 16.0239 14.2533 16.0239 13.92C16.0239 13.5733 16.1172 13.3133 16.3039 13.14C16.5039 12.9667 16.7772 12.88 17.1239 12.88L19.3639 12.88L19.3639 3.06L20.6039 3.06L17.6639 4.84C17.4106 4.98667 17.1706 5.04667 16.9439 5.02C16.7306 4.98 16.5439 4.88667 16.3839 4.74C16.2372 4.58 16.1372 4.39333 16.0839 4.18C16.0306 3.96667 16.0439 3.75333 16.1239 3.54C16.2172 3.31333 16.3906 3.12667 16.6439 2.98L19.4039 1.32C19.6706 1.16 19.9372 1.02667 20.2039 0.919998C20.4706 0.799998 20.7172 0.739998 20.9439 0.739998C21.2239 0.739998 21.4572 0.819999 21.6439 0.979999C21.8306 1.12667 21.9239 1.37333 21.9239 1.72L21.9239 12.88L23.9639 12.88C24.3106 12.88 24.5772 12.9667 24.7639 13.14C24.9639 13.3133 25.0639 13.5733 25.0639 13.92C25.0639 14.2667 24.9639 14.5333 24.7639 14.72C24.5772 14.9067 24.3106 15 23.9639 15L17.1239 15Z" fill="#212121"/>
</svg>
