<svg width="108" height="28" viewBox="0 0 108 28" fill="none" xmlns="http://www.w3.org/2000/svg">
<g clip-path="url(#clip0_1_59)">
<path d="M12.5 2C12.6945 2 12.881 2.07902 13.0185 2.21967C13.1561 2.36032 13.2333 2.55109 13.2333 2.75V25.25C13.2333 25.4489 13.1561 25.6397 13.0185 25.7803C12.881 25.921 12.6945 26 12.5 26C12.3055 26 12.119 25.921 11.9815 25.7803C11.8439 25.6397 11.7667 25.4489 11.7667 25.25V2.75C11.7667 2.55109 11.8439 2.36032 11.9815 2.21967C12.119 2.07902 12.3055 2 12.5 2ZM1.5 8C1.5 7.20435 1.80905 6.44129 2.35915 5.87868C2.90926 5.31607 3.65536 5 4.43333 5H10.3V6.5H4.43333C4.04435 6.5 3.6713 6.65804 3.39624 6.93934C3.12119 7.22064 2.96667 7.60218 2.96667 8V20C2.96667 20.3978 3.12119 20.7794 3.39624 21.0607C3.6713 21.342 4.04435 21.5 4.43333 21.5H10.3V23H4.43333C3.65536 23 2.90926 22.6839 2.35915 22.1213C1.80905 21.5587 1.5 20.7956 1.5 20V8ZM20.5667 6.5C20.9557 6.5 21.3287 6.65804 21.6038 6.93934C21.8788 7.22064 22.0333 7.60218 22.0333 8V8.75C22.0333 8.94891 22.1106 9.13968 22.2481 9.28033C22.3856 9.42098 22.5722 9.5 22.7667 9.5C22.9612 9.5 23.1477 9.42098 23.2852 9.28033C23.4227 9.13968 23.5 8.94891 23.5 8.75V8C23.5 7.20435 23.191 6.44129 22.6408 5.87868C22.0907 5.31607 21.3446 5 20.5667 5H19.8333C19.6388 5 19.4523 5.07902 19.3148 5.21967C19.1773 5.36032 19.1 5.55109 19.1 5.75C19.1 5.94891 19.1773 6.13968 19.3148 6.28033C19.4523 6.42098 19.6388 6.5 19.8333 6.5H20.5667ZM20.5667 21.5C20.9557 21.5 21.3287 21.342 21.6038 21.0607C21.8788 20.7794 22.0333 20.3978 22.0333 20V19.25C22.0333 19.0511 22.1106 18.8603 22.2481 18.7197C22.3856 18.579 22.5722 18.5 22.7667 18.5C22.9612 18.5 23.1477 18.579 23.2852 18.7197C23.4227 18.8603 23.5 19.0511 23.5 19.25V20C23.5 20.7956 23.191 21.5587 22.6408 22.1213C22.0907 22.6839 21.3446 23 20.5667 23H19.8333C19.6388 23 19.4523 22.921 19.3148 22.7803C19.1773 22.6397 19.1 22.4489 19.1 22.25C19.1 22.0511 19.1773 21.8603 19.3148 21.7197C19.4523 21.579 19.6388 21.5 19.8333 21.5H20.5667ZM22.7667 11C22.5722 11 22.3856 11.079 22.2481 11.2197C22.1106 11.3603 22.0333 11.5511 22.0333 11.75V16.25C22.0333 16.4489 22.1106 16.6397 22.2481 16.7803C22.3856 16.921 22.5722 17 22.7667 17C22.9612 17 23.1477 16.921 23.2852 16.7803C23.4227 16.6397 23.5 16.4489 23.5 16.25V11.75C23.5 11.5511 23.4227 11.3603 23.2852 11.2197C23.1477 11.079 22.9612 11 22.7667 11ZM16.9 5C17.0945 5 17.281 5.07902 17.4185 5.21967C17.5561 5.36032 17.6333 5.55109 17.6333 5.75C17.6333 5.94891 17.5561 6.13968 17.4185 6.28033C17.281 6.42098 17.0945 6.5 16.9 6.5H15.4333C15.2388 6.5 15.0523 6.42098 14.9148 6.28033C14.7773 6.13968 14.7 5.94891 14.7 5.75C14.7 5.55109 14.7773 5.36032 14.9148 5.21967C15.0523 5.07902 15.2388 5 15.4333 5H16.9ZM17.6333 22.25C17.6333 22.0511 17.5561 21.8603 17.4185 21.7197C17.281 21.579 17.0945 21.5 16.9 21.5H15.4333C15.2388 21.5 15.0523 21.579 14.9148 21.7197C14.7773 21.8603 14.7 22.0511 14.7 22.25C14.7 22.4489 14.7773 22.6397 14.9148 22.7803C15.0523 22.921 15.2388 23 15.4333 23H16.9C17.0945 23 17.281 22.921 17.4185 22.7803C17.5561 22.6397 17.6333 22.4489 17.6333 22.25Z" fill="white" stroke="white" stroke-width="0.5" stroke-linejoin="round"/>
</g>
<g clip-path="url(#clip1_1_59)">
<path d="M40.1948 22C39.6668 22 39.2588 21.864 38.9708 21.592C38.6988 21.304 38.5628 20.896 38.5628 20.368V6.712C38.5628 6.184 38.6988 5.784 38.9708 5.512C39.2588 5.224 39.6668 5.08 40.1948 5.08H44.8508C47.6828 5.08 49.8668 5.808 51.4028 7.264C52.9548 8.72 53.7308 10.808 53.7308 13.528C53.7308 14.888 53.5308 16.096 53.1308 17.152C52.7468 18.192 52.1708 19.072 51.4028 19.792C50.6508 20.512 49.7228 21.064 48.6188 21.448C47.5308 21.816 46.2748 22 44.8508 22H40.1948ZM41.6348 19.456H44.6588C45.6508 19.456 46.5068 19.336 47.2268 19.096C47.9628 18.84 48.5708 18.472 49.0508 17.992C49.5468 17.496 49.9148 16.88 50.1548 16.144C50.3948 15.392 50.5148 14.52 50.5148 13.528C50.5148 11.544 50.0268 10.064 49.0508 9.088C48.0748 8.112 46.6108 7.624 44.6588 7.624H41.6348V19.456ZM58.0441 22.168C57.5641 22.168 57.1961 22.024 56.9401 21.736C56.6841 21.448 56.5561 21.048 56.5561 20.536V11.728C56.5561 11.2 56.6841 10.8 56.9401 10.528C57.1961 10.24 57.5641 10.096 58.0441 10.096C58.5241 10.096 58.8921 10.24 59.1481 10.528C59.4201 10.8 59.5561 11.2 59.5561 11.728V20.536C59.5561 21.048 59.4281 21.448 59.1721 21.736C58.9161 22.024 58.5401 22.168 58.0441 22.168ZM58.0441 7.864C57.4841 7.864 57.0441 7.728 56.7241 7.456C56.4201 7.168 56.2681 6.776 56.2681 6.28C56.2681 5.768 56.4201 5.376 56.7241 5.104C57.0441 4.832 57.4841 4.696 58.0441 4.696C58.6201 4.696 59.0601 4.832 59.3641 5.104C59.6681 5.376 59.8201 5.768 59.8201 6.28C59.8201 6.776 59.6681 7.168 59.3641 7.456C59.0601 7.728 58.6201 7.864 58.0441 7.864ZM67.4253 22.192C67.0253 22.192 66.6733 22.088 66.3693 21.88C66.0813 21.672 65.8413 21.352 65.6493 20.92L61.8333 12.064C61.6893 11.712 61.6333 11.384 61.6653 11.08C61.7133 10.776 61.8573 10.536 62.0973 10.36C62.3533 10.168 62.6973 10.072 63.1293 10.072C63.4973 10.072 63.7933 10.16 64.0173 10.336C64.2413 10.496 64.4413 10.808 64.6173 11.272L67.8573 19.36H67.1373L70.4733 11.248C70.6493 10.8 70.8493 10.496 71.0733 10.336C71.3133 10.16 71.6333 10.072 72.0333 10.072C72.3853 10.072 72.6653 10.168 72.8733 10.36C73.0813 10.536 73.2093 10.776 73.2573 11.08C73.3053 11.368 73.2493 11.688 73.0893 12.04L69.2013 20.92C69.0253 21.352 68.7853 21.672 68.4813 21.88C68.1933 22.088 67.8413 22.192 67.4253 22.192ZM76.8175 22.168C76.3375 22.168 75.9695 22.024 75.7135 21.736C75.4575 21.448 75.3295 21.048 75.3295 20.536V11.728C75.3295 11.2 75.4575 10.8 75.7135 10.528C75.9695 10.24 76.3375 10.096 76.8175 10.096C77.2975 10.096 77.6655 10.24 77.9215 10.528C78.1935 10.8 78.3295 11.2 78.3295 11.728V20.536C78.3295 21.048 78.2015 21.448 77.9455 21.736C77.6895 22.024 77.3135 22.168 76.8175 22.168ZM76.8175 7.864C76.2575 7.864 75.8175 7.728 75.4975 7.456C75.1935 7.168 75.0415 6.776 75.0415 6.28C75.0415 5.768 75.1935 5.376 75.4975 5.104C75.8175 4.832 76.2575 4.696 76.8175 4.696C77.3935 4.696 77.8335 4.832 78.1375 5.104C78.4415 5.376 78.5935 5.768 78.5935 6.28C78.5935 6.776 78.4415 7.168 78.1375 7.456C77.8335 7.728 77.3935 7.864 76.8175 7.864ZM85.9587 22.24C84.9347 22.24 84.0307 21.992 83.2467 21.496C82.4787 21 81.8787 20.296 81.4467 19.384C81.0147 18.456 80.7987 17.368 80.7987 16.12C80.7987 14.856 81.0147 13.776 81.4467 12.88C81.8787 11.968 82.4787 11.264 83.2467 10.768C84.0307 10.272 84.9347 10.024 85.9587 10.024C86.9347 10.024 87.7827 10.264 88.5027 10.744C89.2387 11.224 89.7347 11.856 89.9907 12.64H89.7267V6.4C89.7267 5.904 89.8547 5.528 90.1107 5.272C90.3667 5.016 90.7347 4.888 91.2147 4.888C91.6947 4.888 92.0627 5.016 92.3187 5.272C92.5907 5.528 92.7267 5.904 92.7267 6.4V20.656C92.7267 21.152 92.5987 21.536 92.3427 21.808C92.0867 22.064 91.7187 22.192 91.2387 22.192C90.7587 22.192 90.3907 22.064 90.1347 21.808C89.8787 21.536 89.7507 21.152 89.7507 20.656V18.784L90.0147 19.504C89.7747 20.336 89.2867 21 88.5507 21.496C87.8147 21.992 86.9507 22.24 85.9587 22.24ZM86.7987 19.96C87.3907 19.96 87.9107 19.816 88.3587 19.528C88.8067 19.24 89.1507 18.816 89.3907 18.256C89.6467 17.68 89.7747 16.968 89.7747 16.12C89.7747 14.84 89.5027 13.888 88.9587 13.264C88.4147 12.624 87.6947 12.304 86.7987 12.304C86.2067 12.304 85.6867 12.448 85.2387 12.736C84.7907 13.008 84.4387 13.432 84.1827 14.008C83.9427 14.568 83.8227 15.272 83.8227 16.12C83.8227 17.384 84.0947 18.344 84.6387 19C85.1827 19.64 85.9027 19.96 86.7987 19.96ZM101.621 22.24C100.293 22.24 99.1493 21.992 98.1893 21.496C97.2293 21 96.4853 20.296 95.9573 19.384C95.4453 18.472 95.1893 17.392 95.1893 16.144C95.1893 14.928 95.4373 13.864 95.9333 12.952C96.4453 12.04 97.1413 11.328 98.0213 10.816C98.9173 10.288 99.9333 10.024 101.069 10.024C101.901 10.024 102.645 10.16 103.301 10.432C103.973 10.704 104.541 11.096 105.005 11.608C105.485 12.12 105.845 12.744 106.085 13.48C106.341 14.2 106.469 15.016 106.469 15.928C106.469 16.216 106.365 16.44 106.157 16.6C105.965 16.744 105.685 16.816 105.317 16.816H97.6133V15.088H104.357L103.973 15.448C103.973 14.712 103.861 14.096 103.637 13.6C103.429 13.104 103.117 12.728 102.701 12.472C102.301 12.2 101.797 12.064 101.189 12.064C100.517 12.064 99.9413 12.224 99.4613 12.544C98.9973 12.848 98.6373 13.288 98.3813 13.864C98.1413 14.424 98.0213 15.096 98.0213 15.88V16.048C98.0213 17.36 98.3253 18.344 98.9333 19C99.5573 19.64 100.469 19.96 101.669 19.96C102.085 19.96 102.549 19.912 103.061 19.816C103.589 19.704 104.085 19.52 104.549 19.264C104.885 19.072 105.181 18.992 105.437 19.024C105.693 19.04 105.893 19.128 106.037 19.288C106.197 19.448 106.293 19.648 106.325 19.888C106.357 20.112 106.309 20.344 106.181 20.584C106.069 20.824 105.869 21.032 105.581 21.208C105.021 21.56 104.373 21.824 103.637 22C102.917 22.16 102.245 22.24 101.621 22.24Z" fill="white"/>
</g>
<defs>
<clipPath id="clip0_1_59">
<rect width="24" height="24" fill="white" transform="translate(0.5 2)"/>
</clipPath>
<clipPath id="clip1_1_59">
<rect width="71" height="28" fill="white" transform="translate(36.5)"/>
</clipPath>
</defs>
</svg>
